<svg width="260" height="260" viewBox="0 0 260 260" fill="none" xmlns="http://www.w3.org/2000/svg">
<path d="M0 0H260V260H0V0Z" fill="white"/>
<path d="M100.487 171.928C107.867 176.925 115.722 179.864 124.703 178.885C129.152 178.389 133.322 177.06 137.333 174.625C136.842 173.474 136.306 172.403 135.91 171.3C135.353 169.751 136.072 168.795 137.732 168.913C139.995 169.077 142.277 169.227 144.537 169.544C145.835 169.716 146.567 170.576 146.006 172.01C145.1 174.382 144.257 176.797 143.225 179.102C142.865 179.902 141.993 180.481 141.362 181.16C140.688 180.495 139.954 179.906 139.374 179.168C138.968 178.656 138.785 177.988 138.438 177.28C129.01 182.033 119.411 182.693 109.653 178.653C106.073 177.179 102.816 175.187 100.47 171.926L100.487 171.928Z" fill="#714B67"/>
<path d="M50.2382 162.195C49.8109 163.14 49.5203 164.188 48.8919 164.986C48.5041 165.485 47.6257 165.609 46.9724 165.917C46.7788 165.275 46.2508 164.469 46.4564 163.984C47.5998 161.31 48.8802 158.685 50.2331 156.117C50.844 154.946 52.4775 154.99 53.0757 156.169C54.4633 158.925 55.7942 161.702 57.0397 164.535C57.2348 164.965 56.8376 165.664 56.7081 166.238C56.0944 166.1 55.2609 166.159 54.9199 165.772C54.206 164.949 53.7484 163.904 52.941 162.566C52.8001 166.451 52.7711 169.947 52.5158 173.418C52.2567 176.856 51.7793 180.281 51.3869 183.702C51.1808 183.68 50.9625 183.666 50.7644 183.657C50.7626 176.546 50.773 169.427 50.7632 162.304C50.5895 162.278 50.4279 162.245 50.2542 162.219L50.2382 162.195Z" fill="#714B67"/>
<path d="M145.068 95.2087C144.641 96.1539 144.35 97.2014 143.722 97.9994C143.334 98.4991 142.456 98.6228 141.802 98.9304C141.609 98.2889 141.081 97.483 141.287 96.9982C142.43 94.3236 143.71 91.6987 145.063 89.1309C145.674 87.96 147.308 88.0036 147.906 89.1827C149.293 91.9393 150.624 94.7158 151.87 97.5484C152.065 97.9792 151.668 98.6775 151.538 99.2519C150.924 99.114 150.091 99.1732 149.75 98.786C149.036 97.9626 148.578 96.9182 147.771 95.5796C147.63 99.4644 147.601 102.961 147.346 106.432C147.087 109.87 146.609 113.294 146.217 116.716C146.011 116.694 145.793 116.68 145.595 116.671C145.593 109.56 145.603 102.441 145.593 95.3176C145.42 95.2921 145.258 95.2586 145.084 95.2331L145.068 95.2087Z" fill="#714B67"/>
<path d="M96.8759 110.623C96.4486 109.678 96.158 108.63 95.5296 107.832C95.1418 107.333 94.2634 107.209 93.6101 106.901C93.4165 107.543 92.8885 108.349 93.0941 108.833C94.2375 111.508 95.5179 114.133 96.8708 116.701C97.4817 117.872 99.1152 117.828 99.7134 116.649C101.101 113.892 102.432 111.116 103.677 108.283C103.873 107.852 103.475 107.154 103.346 106.58C102.732 106.718 101.899 106.658 101.558 107.046C100.844 107.869 100.386 108.913 99.5787 110.252C99.4378 106.367 99.4088 102.871 99.1535 99.4001C98.8944 95.9618 98.417 92.5372 98.0246 89.1161C97.8185 89.1377 97.6002 89.1514 97.4021 89.1608C97.4003 96.2718 97.4107 103.391 97.4009 110.514C97.2272 110.54 97.0656 110.573 96.8919 110.599L96.8759 110.623Z" fill="#714B67"/>
<path d="M190.15 110.623C189.723 109.678 189.432 108.63 188.804 107.832C188.416 107.333 187.538 107.209 186.885 106.901C186.691 107.543 186.163 108.349 186.369 108.833C187.512 111.508 188.792 114.133 190.145 116.701C190.756 117.872 192.39 117.828 192.988 116.649C194.375 113.892 195.706 111.116 196.952 108.283C197.147 107.852 196.75 107.154 196.62 106.58C196.006 106.718 195.173 106.658 194.832 107.046C194.118 107.869 193.66 108.913 192.853 110.252C192.712 106.367 192.683 102.871 192.428 99.4001C192.169 95.9618 191.691 92.5372 191.299 89.1161C191.093 89.1377 190.875 89.1514 190.677 89.1608C190.675 96.2718 190.685 103.391 190.675 110.514C190.502 110.54 190.34 110.573 190.166 110.599L190.15 110.623Z" fill="#714B67"/>
<rect x="27.25" y="34.9449" width="13.4912" height="13.5204" fill="#D9D9D9" stroke="#F3F4F6" stroke-width="0.5"/>
<rect x="199.809" y="34.9449" width="13.4912" height="13.5204" fill="#D9D9D9" stroke="#F3F4F6" stroke-width="0.5"/>
<rect x="27.25" y="59.8702" width="13.4912" height="15.0782" fill="#D9D9D9" stroke="#F3F4F6" stroke-width="0.5"/>
<rect x="199.809" y="59.8702" width="13.4912" height="15.0782" fill="#1BB6F9" stroke="#F3F4F6" stroke-width="0.5"/>
<rect x="27.25" y="47.4076" width="13.4912" height="13.5204" fill="#D9D9D9" stroke="#F3F4F6" stroke-width="0.5"/>
<rect x="199.809" y="47.4076" width="13.4912" height="13.5204" fill="#D9D9D9" stroke="#F3F4F6" stroke-width="0.5"/>
<rect x="27.25" y="73.8905" width="13.4912" height="13.5204" fill="#00CEB3" stroke="#F3F4F6" stroke-width="0.5"/>
<rect x="199.809" y="73.8905" width="13.4912" height="13.5204" fill="#D9D9D9" stroke="#F3F4F6" stroke-width="0.5"/>
<rect x="27.25" y="86.3533" width="13.4912" height="13.5204" fill="#D9D9D9" stroke="#F3F4F6" stroke-width="0.5"/>
<rect x="199.809" y="86.3533" width="13.4912" height="13.5204" fill="#00CEB3" stroke="#F3F4F6" stroke-width="0.5"/>
<rect x="27.25" y="111.278" width="13.4912" height="13.5204" fill="#FBB130" stroke="#F3F4F6" stroke-width="0.5"/>
<rect x="199.809" y="111.278" width="13.4912" height="13.5204" fill="#FBB130" stroke="#F3F4F6" stroke-width="0.5"/>
<rect x="27.25" y="137.761" width="13.4912" height="13.5204" fill="#D9D9D9" stroke="#F3F4F6" stroke-width="0.5"/>
<rect x="199.809" y="137.761" width="13.4912" height="13.5204" fill="#D9D9D9" stroke="#F3F4F6" stroke-width="0.5"/>
<rect x="27.25" y="98.8157" width="13.4912" height="13.5204" fill="#D9D9D9" stroke="#F3F4F6" stroke-width="0.5"/>
<rect x="199.809" y="98.8157" width="13.4912" height="13.5204" fill="#D9D9D9" stroke="#F3F4F6" stroke-width="0.5"/>
<rect x="27.25" y="123.741" width="13.4912" height="15.0782" fill="#D9D9D9" stroke="#F3F4F6" stroke-width="0.5"/>
<rect x="199.809" y="123.741" width="13.4912" height="15.0782" fill="#D9D9D9" stroke="#F3F4F6" stroke-width="0.5"/>
<rect x="27.25" y="150.224" width="13.4912" height="13.5204" fill="#D9D9D9" stroke="#F3F4F6" stroke-width="0.5"/>
<rect x="199.809" y="150.224" width="13.4912" height="13.5204" fill="#D9D9D9" stroke="#F3F4F6" stroke-width="0.5"/>
<rect x="61.4512" y="34.9449" width="13.4912" height="13.5204" fill="#D9D9D9" stroke="#F3F4F6" stroke-width="0.5"/>
<rect x="108.088" y="34.9449" width="13.4912" height="13.5204" fill="#D9D9D9" stroke="#F3F4F6" stroke-width="0.5"/>
<rect x="154.726" y="34.9449" width="13.4912" height="13.5204" fill="#D9D9D9" stroke="#F3F4F6" stroke-width="0.5"/>
<rect x="73.8877" y="34.9449" width="13.4912" height="13.5204" fill="#D9D9D9" stroke="#F3F4F6" stroke-width="0.5"/>
<rect x="120.525" y="34.9449" width="13.4912" height="13.5204" fill="#D9D9D9" stroke="#F3F4F6" stroke-width="0.5"/>
<rect x="167.162" y="34.9449" width="13.4912" height="13.5204" fill="#D9D9D9" stroke="#F3F4F6" stroke-width="0.5"/>
<rect x="61.4512" y="59.8702" width="13.4912" height="15.0782" fill="#D9D9D9" stroke="#F3F4F6" stroke-width="0.5"/>
<rect x="108.088" y="59.8702" width="13.4912" height="15.0782" fill="#017E84" stroke="#F3F4F6" stroke-width="0.5"/>
<rect x="154.726" y="59.8702" width="13.4912" height="15.0782" fill="#D9D9D9" stroke="#F3F4F6" stroke-width="0.5"/>
<rect x="73.8877" y="59.8702" width="13.4912" height="15.0782" fill="#D9D9D9" stroke="#F3F4F6" stroke-width="0.5"/>
<rect x="120.525" y="59.8702" width="13.4912" height="15.0782" fill="#D9D9D9" stroke="#F3F4F6" stroke-width="0.5"/>
<rect x="167.162" y="59.8702" width="13.4912" height="15.0782" fill="#FBB130" stroke="#F3F4F6" stroke-width="0.5"/>
<rect x="61.4512" y="47.4076" width="13.4912" height="13.5204" fill="#FC787D" stroke="#F3F4F6" stroke-width="0.5"/>
<rect x="108.088" y="47.4076" width="13.4912" height="13.5204" fill="#D9D9D9" stroke="#F3F4F6" stroke-width="0.5"/>
<rect x="154.726" y="47.4076" width="13.4912" height="13.5204" fill="#D9D9D9" stroke="#F3F4F6" stroke-width="0.5"/>
<rect x="73.8877" y="47.4076" width="13.4912" height="13.5204" fill="#D9D9D9" stroke="#F3F4F6" stroke-width="0.5"/>
<rect x="120.525" y="47.4076" width="13.4912" height="13.5204" fill="#D9D9D9" stroke="#F3F4F6" stroke-width="0.5"/>
<rect x="167.162" y="47.4076" width="13.4912" height="13.5204" fill="#D9D9D9" stroke="#F3F4F6" stroke-width="0.5"/>
<rect x="61.4512" y="73.8905" width="13.4912" height="13.5204" fill="#D9D9D9" stroke="#F3F4F6" stroke-width="0.5"/>
<rect x="108.088" y="73.8905" width="13.4912" height="13.5204" fill="#D9D9D9" stroke="#F3F4F6" stroke-width="0.5"/>
<rect x="154.726" y="73.8905" width="13.4912" height="13.5204" fill="#D9D9D9" stroke="#F3F4F6" stroke-width="0.5"/>
<rect x="73.8877" y="73.8905" width="13.4912" height="13.5204" fill="#D9D9D9" stroke="#F3F4F6" stroke-width="0.5"/>
<rect x="120.525" y="73.8905" width="13.4912" height="13.5204" fill="#D9D9D9" stroke="#F3F4F6" stroke-width="0.5"/>
<rect x="167.162" y="73.8905" width="13.4912" height="13.5204" fill="#D9D9D9" stroke="#F3F4F6" stroke-width="0.5"/>
<rect x="61.4512" y="86.3533" width="13.4912" height="13.5204" fill="#FBB130" stroke="#F3F4F6" stroke-width="0.5"/>
<rect x="108.088" y="86.3533" width="13.4912" height="13.5204" fill="#D9D9D9" stroke="#F3F4F6" stroke-width="0.5"/>
<rect x="154.726" y="86.3533" width="13.4912" height="13.5204" fill="#D9D9D9" stroke="#F3F4F6" stroke-width="0.5"/>
<rect x="73.8877" y="86.3533" width="13.4912" height="13.5204" fill="#D9D9D9" stroke="#F3F4F6" stroke-width="0.5"/>
<rect x="120.525" y="86.3533" width="13.4912" height="13.5204" fill="#D9D9D9" stroke="#F3F4F6" stroke-width="0.5"/>
<rect x="167.162" y="86.3533" width="13.4912" height="13.5204" fill="#00CEB3" stroke="#F3F4F6" stroke-width="0.5"/>
<rect x="61.4512" y="111.278" width="13.4912" height="13.5204" fill="#D8DADD" stroke="#F3F4F6" stroke-width="0.5"/>
<rect x="108.088" y="111.278" width="13.4912" height="13.5204" fill="#D8DADD" stroke="#F3F4F6" stroke-width="0.5"/>
<rect x="154.726" y="111.278" width="13.4912" height="13.5204" fill="#D8DADD" stroke="#F3F4F6" stroke-width="0.5"/>
<rect x="73.8877" y="111.278" width="13.4912" height="13.5204" fill="#D8DADD" stroke="#F3F4F6" stroke-width="0.5"/>
<rect x="120.525" y="111.278" width="13.4912" height="13.5204" fill="#D8DADD" stroke="#F3F4F6" stroke-width="0.5"/>
<rect x="167.162" y="111.278" width="13.4912" height="13.5204" fill="#D8DADD" stroke="#F3F4F6" stroke-width="0.5"/>
<rect x="61.4512" y="137.761" width="13.4912" height="13.5204" fill="#D9D9D9" stroke="#F3F4F6" stroke-width="0.5"/>
<rect x="108.088" y="137.761" width="13.4912" height="13.5204" fill="#FBB130" stroke="#F3F4F6" stroke-width="0.5"/>
<rect x="154.726" y="137.761" width="13.4912" height="13.5204" fill="#D9D9D9" stroke="#F3F4F6" stroke-width="0.5"/>
<rect x="73.8877" y="137.761" width="13.4912" height="13.5204" fill="#FC787D" stroke="#F3F4F6" stroke-width="0.5"/>
<rect x="120.525" y="137.761" width="13.4912" height="13.5204" fill="#D9D9D9" stroke="#F3F4F6" stroke-width="0.5"/>
<rect x="167.162" y="137.761" width="13.4912" height="13.5204" fill="#D9D9D9" stroke="#F3F4F6" stroke-width="0.5"/>
<rect x="61.4512" y="98.8157" width="13.4912" height="13.5204" fill="#1BB6F9" stroke="#F3F4F6" stroke-width="0.5"/>
<rect x="108.088" y="98.8157" width="13.4912" height="13.5204" fill="#D9D9D9" stroke="#F3F4F6" stroke-width="0.5"/>
<rect x="154.726" y="98.8157" width="13.4912" height="13.5204" fill="#FC787D" stroke="#F3F4F6" stroke-width="0.5"/>
<rect x="73.8877" y="98.8157" width="13.4912" height="13.5204" fill="#D9D9D9" stroke="#F3F4F6" stroke-width="0.5"/>
<rect x="120.525" y="98.8157" width="13.4912" height="13.5204" fill="#D9D9D9" stroke="#F3F4F6" stroke-width="0.5"/>
<rect x="167.162" y="98.8157" width="13.4912" height="13.5204" fill="#D9D9D9" stroke="#F3F4F6" stroke-width="0.5"/>
<rect x="61.4512" y="123.741" width="13.4912" height="15.0782" fill="#00CEB3" stroke="#F3F4F6" stroke-width="0.5"/>
<rect x="108.088" y="123.741" width="13.4912" height="15.0782" fill="#D9D9D9" stroke="#F3F4F6" stroke-width="0.5"/>
<rect x="154.726" y="123.741" width="13.4912" height="15.0782" fill="#D9D9D9" stroke="#F3F4F6" stroke-width="0.5"/>
<rect x="73.8877" y="123.741" width="13.4912" height="15.0782" fill="#D9D9D9" stroke="#F3F4F6" stroke-width="0.5"/>
<rect x="120.525" y="123.741" width="13.4912" height="15.0782" fill="#00CEB3" stroke="#F3F4F6" stroke-width="0.5"/>
<rect x="167.162" y="123.741" width="13.4912" height="15.0782" fill="#D9D9D9" stroke="#F3F4F6" stroke-width="0.5"/>
<rect x="61.4512" y="150.224" width="13.4912" height="13.5204" fill="#D9D9D9" stroke="#F3F4F6" stroke-width="0.5"/>
<rect x="108.088" y="150.224" width="13.4912" height="13.5204" fill="#D9D9D9" stroke="#F3F4F6" stroke-width="0.5"/>
<rect x="154.726" y="150.224" width="13.4912" height="13.5204" fill="#D9D9D9" stroke="#F3F4F6" stroke-width="0.5"/>
<rect x="73.8877" y="150.224" width="13.4912" height="13.5204" fill="#D9D9D9" stroke="#F3F4F6" stroke-width="0.5"/>
<rect x="120.525" y="150.224" width="13.4912" height="13.5204" fill="#D9D9D9" stroke="#F3F4F6" stroke-width="0.5"/>
<rect x="167.162" y="150.224" width="13.4912" height="13.5204" fill="#D9D9D9" stroke="#F3F4F6" stroke-width="0.5"/>
<path d="M52.7633 28.5619C60.1435 23.5656 67.9982 20.6257 76.9795 21.6055C81.4286 22.1009 85.5984 23.4302 89.6096 25.8656C89.1183 27.0158 88.5826 28.0871 88.1867 29.1907C87.6295 30.7396 88.348 31.6955 90.008 31.5772C92.2713 31.4129 94.5534 31.263 96.8135 30.9465C98.1109 30.7746 98.8437 29.9145 98.282 28.48C97.3765 26.1077 96.5332 23.6933 95.5012 21.3887C95.1417 20.5886 94.2697 20.0091 93.6385 19.3298C92.9647 19.9955 92.23 20.5846 91.6504 21.3226C91.244 21.8342 91.0614 22.5027 90.7147 23.2099C81.2862 18.4577 71.687 17.7972 61.9295 21.837C58.3497 23.3117 55.0921 25.3033 52.7467 28.5641L52.7633 28.5619Z" fill="#714B67"/>
<path d="M146.039 28.5613C153.419 23.565 161.274 20.6251 170.255 21.6049C174.704 22.1003 178.874 23.4296 182.885 25.865C182.394 27.0152 181.858 28.0864 181.462 29.1901C180.905 30.739 181.623 31.6949 183.283 31.5766C185.547 31.4123 187.829 31.2624 190.089 30.9459C191.386 30.7739 192.119 29.9139 191.557 28.4794C190.652 26.1071 189.809 23.6927 188.777 21.3881C188.417 20.588 187.545 20.0085 186.914 19.3292C186.24 19.9949 185.505 20.584 184.926 21.322C184.519 21.8336 184.337 22.5021 183.99 23.2093C174.562 18.4571 164.962 17.7965 155.205 21.8364C151.625 23.3111 148.367 25.3026 146.022 28.5635L146.039 28.5613Z" fill="#714B67"/>
<rect x="218.6" y="199.093" width="13.4912" height="13.5204" fill="#00CEB3" stroke="#F3F4F6" stroke-width="0.5"/>
<rect x="218.6" y="185.093" width="13.4912" height="13.5204" fill="#017E84" stroke="#F3F4F6" stroke-width="0.5"/>
<rect x="204.628" y="199.093" width="13.4912" height="13.5204" fill="#FBB130" stroke="#F3F4F6" stroke-width="0.5"/>
<rect x="204.628" y="185.093" width="13.4912" height="13.5204" fill="#1BB6F9" stroke="#F3F4F6" stroke-width="0.5"/>
<rect x="190.657" y="199.093" width="13.4912" height="13.5204" fill="#FC787D" stroke="#F3F4F6" stroke-width="0.5"/>
<rect x="148.745" y="199.093" width="13.4912" height="13.5204" fill="#FC787D" stroke="#F3F4F6" stroke-width="0.5"/>
<rect x="129.78" y="199.093" width="13.4912" height="13.5204" fill="#FBB130" stroke="#F3F4F6" stroke-width="0.5"/>
<rect x="89.8594" y="199.093" width="13.4912" height="13.5204" fill="#017E84" stroke="#F3F4F6" stroke-width="0.5"/>
<rect x="115.81" y="199.093" width="13.4912" height="13.5204" fill="#FC787D" stroke="#F3F4F6" stroke-width="0.5"/>
<rect x="218.6" y="213.093" width="13.4912" height="13.5204" fill="#00CEB3" stroke="#F3F4F6" stroke-width="0.5"/>
<rect x="204.628" y="213.093" width="13.4912" height="13.5204" fill="#FBB130" stroke="#F3F4F6" stroke-width="0.5"/>
<rect x="190.657" y="213.093" width="13.4912" height="13.5204" fill="#FC787D" stroke="#F3F4F6" stroke-width="0.5"/>
<rect x="148.745" y="213.093" width="13.4912" height="13.5204" fill="#00CEB3" stroke="#F3F4F6" stroke-width="0.5"/>
<rect x="96.8457" y="213.093" width="13.4912" height="13.5204" fill="#FBB130" stroke="#F3F4F6" stroke-width="0.5"/>
<rect x="129.78" y="213.093" width="13.4912" height="13.5204" fill="#1BB6F9" stroke="#F3F4F6" stroke-width="0.5"/>
<rect x="82.874" y="213.093" width="13.4912" height="13.5204" fill="#FC787D" stroke="#F3F4F6" stroke-width="0.5"/>
<rect x="115.81" y="213.093" width="13.4912" height="13.5204" fill="#00CEB3" stroke="#F3F4F6" stroke-width="0.5"/>
<path d="M181.432 210.92C180.731 210.621 179.958 210.424 179.361 209.974C178.988 209.697 178.883 209.052 178.646 208.575C179.114 208.422 179.696 208.019 180.056 208.163C182.037 208.961 183.985 209.861 185.892 210.815C186.762 211.246 186.757 212.45 185.902 212.911C183.902 213.979 181.886 215.006 179.828 215.972C179.515 216.123 178.996 215.841 178.572 215.756C178.663 215.301 178.606 214.688 178.885 214.43C179.477 213.89 180.236 213.535 181.205 212.918C178.351 212.879 175.785 212.916 173.233 212.786C170.706 212.652 168.184 212.357 165.667 212.125C165.68 211.973 165.686 211.812 165.69 211.665C170.908 211.546 176.133 211.435 181.361 211.309C181.377 211.18 181.398 211.061 181.414 210.932L181.432 210.92Z" fill="#714B67"/>
<path d="M200.649 243.755C200.521 243.755 200.414 243.686 200.329 243.547C200.265 243.483 200.195 243.382 200.121 243.243C200.046 243.105 200.019 242.881 200.041 242.571C200.073 242.251 200.19 241.787 200.393 241.179C200.499 240.774 200.585 240.481 200.649 240.299C200.713 240.107 200.745 239.969 200.745 239.883C200.745 239.766 200.755 239.67 200.777 239.595C200.809 239.51 200.825 239.43 200.825 239.355C200.889 239.355 200.953 239.297 201.017 239.179C201.081 239.062 201.134 238.902 201.177 238.699C201.219 238.518 201.257 238.374 201.289 238.267C201.331 238.15 201.353 238.07 201.353 238.027C201.406 237.942 201.459 237.809 201.513 237.627C201.577 237.446 201.673 237.227 201.801 236.971C201.886 236.651 201.982 236.321 202.089 235.979C202.195 235.627 202.302 235.302 202.409 235.003C202.526 234.694 202.622 234.454 202.697 234.283C202.814 233.953 202.905 233.723 202.969 233.595C203.033 233.457 203.033 233.366 202.969 233.323C202.894 233.27 202.857 233.137 202.857 232.923C202.867 232.699 202.969 232.507 203.161 232.347C203.278 232.209 203.427 232.113 203.609 232.059C203.79 231.995 203.998 231.963 204.233 231.963C204.467 231.963 204.713 231.974 204.969 231.995C205.161 232.006 205.363 232.011 205.577 232.011C205.801 232.011 205.939 232.011 205.993 232.011C206.089 232.054 206.206 232.102 206.345 232.155C206.483 232.209 206.606 232.262 206.713 232.315C206.83 232.358 206.889 232.395 206.889 232.427C206.889 232.491 206.91 232.534 206.953 232.555C207.006 232.566 207.059 232.577 207.113 232.587C207.187 232.587 207.31 232.657 207.481 232.795C207.651 232.923 207.822 233.083 207.993 233.275C208.174 233.457 208.302 233.638 208.377 233.819C208.462 234.001 208.531 234.171 208.585 234.331C208.649 234.491 208.654 234.721 208.601 235.019C208.59 235.179 208.563 235.339 208.521 235.499C208.489 235.659 208.451 235.766 208.409 235.819C208.345 235.862 208.286 235.915 208.233 235.979C208.179 236.043 208.153 236.102 208.153 236.155C208.153 236.198 208.11 236.305 208.025 236.475C207.939 236.635 207.833 236.822 207.705 237.035C207.577 237.238 207.438 237.441 207.289 237.643C207.139 237.846 207.001 238.006 206.873 238.123C206.734 238.294 206.569 238.454 206.377 238.603C206.195 238.753 206.03 238.875 205.881 238.971C205.603 239.099 205.283 239.222 204.921 239.339C204.569 239.457 204.227 239.553 203.897 239.627C203.566 239.691 203.299 239.718 203.097 239.707C202.787 239.75 202.585 239.793 202.489 239.835C202.393 239.867 202.323 239.958 202.281 240.107C202.227 240.246 202.174 240.39 202.121 240.539C202.078 240.689 202.057 240.795 202.057 240.859C202.035 240.902 201.987 241.019 201.913 241.211C201.849 241.403 201.769 241.627 201.673 241.883C201.587 242.139 201.507 242.395 201.433 242.651C201.358 242.907 201.299 243.126 201.257 243.307C201.214 243.457 201.123 243.569 200.985 243.643C200.857 243.718 200.745 243.755 200.649 243.755ZM202.921 238.411C202.963 238.454 203.102 238.459 203.337 238.427C203.571 238.395 203.854 238.315 204.185 238.187C204.398 238.113 204.611 238.022 204.825 237.915C205.049 237.809 205.262 237.691 205.465 237.563C205.571 237.489 205.683 237.398 205.801 237.291C205.918 237.174 206.083 236.982 206.297 236.715C206.329 236.662 206.382 236.561 206.457 236.411C206.542 236.251 206.617 236.102 206.681 235.963C206.777 235.814 206.873 235.595 206.969 235.307C207.065 235.009 207.086 234.763 207.033 234.571C206.979 234.294 206.873 234.065 206.713 233.883C206.553 233.691 206.35 233.553 206.105 233.467C205.87 233.425 205.673 233.398 205.513 233.387C205.363 233.377 205.198 233.387 205.017 233.419C204.846 233.473 204.723 233.547 204.649 233.643C204.585 233.739 204.489 233.942 204.361 234.251C204.286 234.401 204.179 234.609 204.041 234.875C203.902 235.131 203.785 235.393 203.689 235.659C203.497 236.363 203.326 236.902 203.177 237.275C203.038 237.649 202.947 237.894 202.905 238.011C202.915 238.129 202.91 238.214 202.889 238.267C202.867 238.31 202.878 238.358 202.921 238.411ZM207.636 242.507C207.594 242.422 207.498 242.337 207.348 242.251C207.21 242.166 207.14 242.102 207.14 242.059C207.14 242.017 207.114 241.953 207.06 241.867C207.018 241.771 206.975 241.702 206.932 241.659C206.879 241.595 206.895 241.441 206.98 241.195C207.066 240.939 207.194 240.63 207.364 240.267C207.535 239.905 207.722 239.537 207.924 239.163C208.01 239.078 208.095 238.966 208.18 238.827C208.266 238.689 208.33 238.598 208.372 238.555C208.372 238.513 208.388 238.475 208.42 238.443C208.452 238.401 208.49 238.379 208.532 238.379L208.66 238.123C208.682 238.081 208.746 237.995 208.852 237.867C208.97 237.739 209.108 237.601 209.268 237.451C209.428 237.291 209.588 237.142 209.748 237.003C209.919 236.865 210.058 236.763 210.164 236.699C210.388 236.55 210.618 236.481 210.852 236.491C211.098 236.502 211.306 236.577 211.476 236.715C211.508 236.747 211.578 236.811 211.684 236.907C211.802 237.003 211.93 237.11 212.068 237.227C212.218 237.345 212.346 237.451 212.452 237.547L213.044 238.075L212.772 238.875C212.634 239.302 212.596 239.675 212.66 239.995C212.724 240.315 212.826 240.593 212.964 240.827C213.018 240.945 213.087 241.035 213.172 241.099C213.268 241.163 213.391 241.206 213.54 241.227C213.626 241.238 213.706 241.27 213.78 241.323C213.855 241.377 213.892 241.462 213.892 241.579C213.892 241.835 213.844 242.022 213.748 242.139C213.663 242.246 213.567 242.31 213.46 242.331C213.108 242.374 212.772 242.337 212.452 242.219C212.132 242.102 211.844 241.798 211.588 241.307C211.546 241.243 211.487 241.126 211.412 240.955C211.348 240.774 211.311 240.657 211.3 240.603C211.258 240.657 211.199 240.726 211.124 240.811C211.06 240.886 210.996 240.955 210.932 241.019C210.175 241.787 209.524 242.289 208.98 242.523C208.447 242.747 207.999 242.742 207.636 242.507ZM208.516 241.179C208.591 241.19 208.708 241.153 208.868 241.067C209.028 240.971 209.242 240.817 209.508 240.603C209.871 240.294 210.17 240.038 210.404 239.835C210.639 239.633 210.868 239.371 211.092 239.051L211.444 238.475C211.338 238.23 211.242 238.07 211.156 237.995C211.071 237.921 210.986 237.883 210.9 237.883C210.762 237.883 210.596 237.974 210.404 238.155C210.212 238.326 209.994 238.582 209.748 238.923C209.514 239.254 209.247 239.67 208.948 240.171C208.81 240.406 208.703 240.635 208.628 240.859C208.554 241.073 208.516 241.179 208.516 241.179ZM216.329 242.907C216.02 242.961 215.71 242.934 215.401 242.827C215.102 242.721 214.852 242.55 214.649 242.315C214.457 242.07 214.361 241.777 214.361 241.435C214.329 241.115 214.356 240.737 214.441 240.299C214.537 239.851 214.676 239.403 214.857 238.955C215.049 238.507 215.268 238.129 215.513 237.819C215.726 237.563 215.94 237.329 216.153 237.115C216.366 236.902 216.558 236.758 216.729 236.683C216.878 236.619 217.06 236.571 217.273 236.539C217.497 236.497 217.652 236.475 217.737 236.475C217.908 236.518 218.094 236.587 218.297 236.683C218.51 236.779 218.617 236.891 218.617 237.019C218.617 237.019 218.628 237.035 218.649 237.067C218.681 237.089 218.697 237.099 218.697 237.099C218.761 237.099 218.83 237.179 218.905 237.339C218.99 237.489 219.054 237.665 219.097 237.867C219.14 238.059 219.129 238.214 219.065 238.331C219.022 238.534 218.937 238.731 218.809 238.923C218.692 239.115 218.59 239.211 218.505 239.211C218.462 239.211 218.42 239.217 218.377 239.227C218.345 239.227 218.329 239.254 218.329 239.307C218.329 239.361 218.27 239.387 218.153 239.387C218.046 239.387 217.934 239.366 217.817 239.323C217.7 239.281 217.625 239.217 217.593 239.131C217.593 239.078 217.604 239.009 217.625 238.923C217.646 238.838 217.678 238.694 217.721 238.491C217.785 238.193 217.79 237.995 217.737 237.899C217.684 237.793 217.55 237.782 217.337 237.867C217.07 238.017 216.852 238.193 216.681 238.395C216.51 238.587 216.356 238.859 216.217 239.211C216.089 239.563 215.945 240.054 215.785 240.683C215.721 240.929 215.71 241.121 215.753 241.259C215.806 241.398 215.849 241.473 215.881 241.483C216.03 241.526 216.19 241.537 216.361 241.515C216.542 241.483 216.692 241.435 216.809 241.371C216.98 241.286 217.129 241.195 217.257 241.099C217.396 240.993 217.545 240.881 217.705 240.763C217.758 240.731 217.806 240.673 217.849 240.587C217.892 240.491 217.956 240.422 218.041 240.379C218.126 240.251 218.233 240.187 218.361 240.187C218.5 240.177 218.633 240.171 218.761 240.171C218.846 240.193 218.937 240.246 219.033 240.331C219.129 240.417 219.198 240.502 219.241 240.587C219.294 240.662 219.289 240.715 219.225 240.747C219.182 240.747 219.156 240.763 219.145 240.795C219.145 240.817 219.145 240.827 219.145 240.827C219.166 240.87 219.118 240.966 219.001 241.115C218.894 241.265 218.756 241.425 218.585 241.595C218.414 241.766 218.249 241.915 218.089 242.043C217.94 242.161 217.833 242.219 217.769 242.219C217.662 242.219 217.609 242.251 217.609 242.315C217.609 242.337 217.529 242.39 217.369 242.475C217.22 242.561 217.044 242.646 216.841 242.731C216.649 242.817 216.478 242.875 216.329 242.907ZM220.637 242.731C220.477 242.678 220.333 242.593 220.205 242.475C220.088 242.358 220.04 242.166 220.061 241.899C220.082 241.739 220.114 241.574 220.157 241.403C220.2 241.222 220.253 241.046 220.317 240.875C220.349 240.683 220.386 240.491 220.429 240.299C220.482 240.107 220.568 239.926 220.685 239.755C220.824 239.361 220.968 238.971 221.117 238.587C221.266 238.193 221.394 237.782 221.501 237.355C221.661 236.971 221.805 236.63 221.933 236.331C222.072 236.033 222.237 235.649 222.429 235.179C222.536 234.934 222.626 234.662 222.701 234.363C222.786 234.054 222.914 233.782 223.085 233.547C223.16 233.451 223.213 233.371 223.245 233.307C223.288 233.233 223.33 233.163 223.373 233.099C223.448 232.95 223.56 232.881 223.709 232.891C223.869 232.902 223.976 232.945 224.029 233.019C224.21 233.094 224.338 233.233 224.413 233.435C224.488 233.627 224.514 233.766 224.493 233.851C224.493 233.969 224.45 234.097 224.365 234.235C224.322 234.278 224.28 234.342 224.237 234.427C224.194 234.502 224.13 234.603 224.045 234.731C224.002 234.87 223.96 235.009 223.917 235.147C223.874 235.286 223.826 235.414 223.773 235.531C223.72 235.649 223.661 235.766 223.597 235.883C223.533 236.001 223.49 236.097 223.469 236.171C223.373 236.417 223.266 236.657 223.149 236.891C223.042 237.115 222.946 237.355 222.861 237.611C222.776 237.857 222.685 238.118 222.589 238.395C222.493 238.662 222.37 238.918 222.221 239.163C222.146 239.27 222.104 239.414 222.093 239.595C222.093 239.777 222.072 239.953 222.029 240.123C221.954 240.315 221.885 240.491 221.821 240.651C221.768 240.811 221.741 240.913 221.741 240.955C221.666 241.19 221.608 241.425 221.565 241.659C221.522 241.883 221.453 242.081 221.357 242.251C221.357 242.507 221.288 242.667 221.149 242.731C221.01 242.795 220.84 242.795 220.637 242.731ZM224.301 242.875C224.13 242.854 224.002 242.822 223.917 242.779C223.832 242.726 223.672 242.614 223.437 242.443C223.309 242.315 223.149 242.118 222.957 241.851C222.765 241.585 222.573 241.302 222.381 241.003C222.189 240.694 222.018 240.433 221.869 240.219L222.749 239.099C222.888 239.27 223 239.43 223.085 239.579C223.17 239.729 223.24 239.83 223.293 239.883C223.538 240.246 223.73 240.539 223.869 240.763C224.008 240.987 224.125 241.169 224.221 241.307C224.328 241.446 224.445 241.569 224.573 241.675C224.701 241.782 224.866 241.894 225.069 242.011C225.101 242.033 225.133 242.086 225.165 242.171C225.197 242.246 225.208 242.326 225.197 242.411C225.176 242.539 225.096 242.646 224.957 242.731C224.829 242.806 224.61 242.854 224.301 242.875ZM221.981 239.915C221.917 239.734 221.901 239.531 221.933 239.307C221.976 239.073 222.066 238.918 222.205 238.843C222.248 238.769 222.29 238.721 222.333 238.699C222.386 238.667 222.418 238.63 222.429 238.587C222.45 238.545 222.504 238.486 222.589 238.411C222.685 238.337 222.77 238.267 222.845 238.203C223.016 238.097 223.202 237.969 223.405 237.819C223.618 237.659 223.821 237.499 224.013 237.339C224.216 237.179 224.381 237.041 224.509 236.923C224.648 236.806 224.733 236.731 224.765 236.699C224.797 236.657 224.861 236.63 224.957 236.619C225.064 236.609 225.165 236.625 225.261 236.667C225.389 236.699 225.49 236.769 225.565 236.875C225.65 236.982 225.693 237.131 225.693 237.323C225.725 237.441 225.656 237.585 225.485 237.755C225.325 237.915 225.122 238.075 224.877 238.235C224.792 238.289 224.674 238.369 224.525 238.475C224.386 238.582 224.264 238.683 224.157 238.779C224.082 238.822 223.97 238.897 223.821 239.003C223.682 239.099 223.56 239.195 223.453 239.291C223.368 239.345 223.266 239.441 223.149 239.579C223.042 239.707 222.92 239.803 222.781 239.867C222.44 240.187 222.232 240.342 222.157 240.331C222.093 240.321 222.034 240.182 221.981 239.915Z" fill="#714B67"/>
</svg>
