<svg width="260" height="260" viewBox="0 0 260 260" fill="none" xmlns="http://www.w3.org/2000/svg">
<path d="M0 0H260V260H0V0Z" fill="white"/>
<path d="M55.082 152.392C54.6547 153.338 54.3641 154.385 53.7356 155.183C53.3479 155.683 52.4694 155.806 51.8162 156.114C51.6226 155.472 51.0945 154.667 51.3002 154.182C52.4435 151.507 53.724 148.882 55.0768 146.315C55.6878 145.144 57.3212 145.187 57.9194 146.366C59.307 149.123 60.6379 151.899 61.8835 154.732C62.0786 155.163 61.6813 155.861 61.5518 156.436C60.9381 156.298 60.1046 156.357 59.7637 155.97C59.0497 155.146 58.5921 154.102 57.7848 152.763C57.6438 156.648 57.6148 160.145 57.3595 163.615C57.1004 167.053 56.6231 170.478 56.2306 173.899C56.0245 173.878 55.8063 173.864 55.6082 173.854C55.6064 166.743 55.6167 159.624 55.6069 152.501C55.4332 152.476 55.2717 152.442 55.098 152.417L55.082 152.392Z" fill="#714B67"/>
<path d="M150.068 95.2087C149.641 96.1539 149.35 97.2014 148.722 97.9994C148.334 98.4991 147.456 98.6228 146.802 98.9304C146.609 98.2889 146.081 97.483 146.287 96.9982C147.43 94.3236 148.71 91.6987 150.063 89.1309C150.674 87.96 152.308 88.0036 152.906 89.1827C154.293 91.9393 155.624 94.7158 156.87 97.5484C157.065 97.9792 156.668 98.6775 156.538 99.2519C155.924 99.114 155.091 99.1732 154.75 98.786C154.036 97.9626 153.578 96.9182 152.771 95.5796C152.63 99.4644 152.601 102.961 152.346 106.432C152.087 109.87 151.609 113.294 151.217 116.716C151.011 116.694 150.793 116.68 150.595 116.671C150.593 109.56 150.603 102.441 150.593 95.3176C150.42 95.2921 150.258 95.2586 150.084 95.2331L150.068 95.2087Z" fill="#714B67"/>
<path d="M101.876 109.439C101.449 108.494 101.158 107.447 100.53 106.649C100.142 106.149 99.2634 106.025 98.6101 105.718C98.4165 106.359 97.8885 107.165 98.0941 107.65C99.2375 110.324 100.518 112.949 101.871 115.517C102.482 116.688 104.115 116.644 104.713 115.465C106.101 112.709 107.432 109.932 108.677 107.1C108.873 106.669 108.475 105.971 108.346 105.396C107.732 105.534 106.899 105.475 106.558 105.862C105.844 106.685 105.386 107.73 104.579 109.068C104.438 105.184 104.409 101.687 104.153 98.2165C103.894 94.7782 103.417 91.3536 103.025 87.9325C102.818 87.9542 102.6 87.9678 102.402 87.9772C102.4 95.0882 102.411 102.207 102.401 109.33C102.227 109.356 102.066 109.389 101.892 109.415L101.876 109.439Z" fill="#714B67"/>
<path d="M194.791 165.623C194.364 164.678 194.073 163.63 193.445 162.832C193.057 162.333 192.178 162.209 191.525 161.901C191.332 162.543 190.804 163.349 191.009 163.833C192.153 166.508 193.433 169.133 194.786 171.701C195.397 172.872 197.03 172.828 197.628 171.649C199.016 168.892 200.347 166.116 201.592 163.283C201.788 162.852 201.39 162.154 201.261 161.58C200.647 161.718 199.814 161.658 199.473 162.046C198.759 162.869 198.301 163.913 197.494 165.252C197.353 161.367 197.324 157.871 197.069 154.4C196.809 150.962 196.332 147.537 195.94 144.116C195.734 144.138 195.515 144.151 195.317 144.161C195.315 151.272 195.326 158.391 195.316 165.514C195.142 165.54 194.981 165.573 194.807 165.599L194.791 165.623Z" fill="#714B67"/>
<rect x="32.25" y="34.9449" width="13.4912" height="13.5204" fill="#D9D9D9" stroke="#F3F4F6" stroke-width="0.5"/>
<rect x="204.808" y="34.9449" width="13.4912" height="13.5204" fill="#D9D9D9" stroke="#F3F4F6" stroke-width="0.5"/>
<rect x="32.25" y="59.8702" width="13.4912" height="15.0782" fill="#D9D9D9" stroke="#F3F4F6" stroke-width="0.5"/>
<rect x="204.808" y="59.8702" width="13.4912" height="15.0782" fill="#D9D9D9" stroke="#F3F4F6" stroke-width="0.5"/>
<rect x="32.25" y="47.4076" width="13.4912" height="13.5204" fill="#D9D9D9" stroke="#F3F4F6" stroke-width="0.5"/>
<rect x="204.808" y="47.4076" width="13.4912" height="13.5204" fill="#D9D9D9" stroke="#F3F4F6" stroke-width="0.5"/>
<rect x="32.25" y="73.8905" width="13.4912" height="13.5204" fill="#00CEB3" stroke="#F3F4F6" stroke-width="0.5"/>
<rect x="204.808" y="73.8905" width="13.4912" height="13.5204" fill="#D9D9D9" stroke="#F3F4F6" stroke-width="0.5"/>
<rect x="32.25" y="86.3533" width="13.4912" height="13.5204" fill="#D9D9D9" stroke="#F3F4F6" stroke-width="0.5"/>
<rect x="204.808" y="86.3533" width="13.4912" height="13.5204" fill="#00CEB3" stroke="#F3F4F6" stroke-width="0.5"/>
<rect x="32.25" y="111.278" width="13.4912" height="13.5204" fill="#FBB130" stroke="#F3F4F6" stroke-width="0.5"/>
<rect x="204.808" y="111.278" width="13.4912" height="13.5204" fill="#FBB130" stroke="#F3F4F6" stroke-width="0.5"/>
<rect x="32.25" y="137.761" width="13.4912" height="13.5204" fill="#D9D9D9" stroke="#F3F4F6" stroke-width="0.5"/>
<rect x="204.808" y="137.761" width="13.4912" height="13.5204" fill="#D9D9D9" stroke="#F3F4F6" stroke-width="0.5"/>
<rect x="32.25" y="98.8157" width="13.4912" height="13.5204" fill="#D9D9D9" stroke="#F3F4F6" stroke-width="0.5"/>
<rect x="204.808" y="98.8157" width="13.4912" height="13.5204" fill="#D9D9D9" stroke="#F3F4F6" stroke-width="0.5"/>
<rect x="32.25" y="123.741" width="13.4912" height="15.0782" fill="#D9D9D9" stroke="#F3F4F6" stroke-width="0.5"/>
<rect x="204.808" y="123.741" width="13.4912" height="15.0782" fill="#D9D9D9" stroke="#F3F4F6" stroke-width="0.5"/>
<rect x="32.25" y="150.224" width="13.4912" height="13.5204" fill="#D9D9D9" stroke="#F3F4F6" stroke-width="0.5"/>
<rect x="204.808" y="150.224" width="13.4912" height="13.5204" fill="#D9D9D9" stroke="#F3F4F6" stroke-width="0.5"/>
<rect x="66.4502" y="34.9449" width="13.4912" height="13.5204" fill="#D9D9D9" stroke="#F3F4F6" stroke-width="0.5"/>
<rect x="113.088" y="34.9449" width="13.4912" height="13.5204" fill="#D9D9D9" stroke="#F3F4F6" stroke-width="0.5"/>
<rect x="159.726" y="34.9449" width="13.4912" height="13.5204" fill="#D9D9D9" stroke="#F3F4F6" stroke-width="0.5"/>
<rect x="78.8867" y="34.9449" width="13.4912" height="13.5204" fill="#D9D9D9" stroke="#F3F4F6" stroke-width="0.5"/>
<rect x="125.524" y="34.9449" width="13.4912" height="13.5204" fill="#D9D9D9" stroke="#F3F4F6" stroke-width="0.5"/>
<rect x="172.161" y="34.9449" width="13.4912" height="13.5204" fill="#D9D9D9" stroke="#F3F4F6" stroke-width="0.5"/>
<rect x="66.4502" y="59.8702" width="13.4912" height="15.0782" fill="#D9D9D9" stroke="#F3F4F6" stroke-width="0.5"/>
<rect x="113.088" y="59.8702" width="13.4912" height="15.0782" fill="#00CEB3" stroke="#F3F4F6" stroke-width="0.5"/>
<rect x="159.726" y="59.8702" width="13.4912" height="15.0782" fill="#D9D9D9" stroke="#F3F4F6" stroke-width="0.5"/>
<rect x="78.8867" y="59.8702" width="13.4912" height="15.0782" fill="#D9D9D9" stroke="#F3F4F6" stroke-width="0.5"/>
<rect x="125.524" y="59.8702" width="13.4912" height="15.0782" fill="#D9D9D9" stroke="#F3F4F6" stroke-width="0.5"/>
<rect x="172.161" y="59.8702" width="13.4912" height="15.0782" fill="#FBB130" stroke="#F3F4F6" stroke-width="0.5"/>
<rect x="66.4502" y="47.4076" width="13.4912" height="13.5204" fill="#D9D9D9" stroke="#F3F4F6" stroke-width="0.5"/>
<rect x="113.088" y="47.4076" width="13.4912" height="13.5204" fill="#D9D9D9" stroke="#F3F4F6" stroke-width="0.5"/>
<rect x="159.726" y="47.4076" width="13.4912" height="13.5204" fill="#D9D9D9" stroke="#F3F4F6" stroke-width="0.5"/>
<rect x="78.8867" y="47.4076" width="13.4912" height="13.5204" fill="#D9D9D9" stroke="#F3F4F6" stroke-width="0.5"/>
<rect x="125.524" y="47.4076" width="13.4912" height="13.5204" fill="#D9D9D9" stroke="#F3F4F6" stroke-width="0.5"/>
<rect x="172.161" y="47.4076" width="13.4912" height="13.5204" fill="#D9D9D9" stroke="#F3F4F6" stroke-width="0.5"/>
<rect x="66.4502" y="73.8905" width="13.4912" height="13.5204" fill="#FC787D" stroke="#F3F4F6" stroke-width="0.5"/>
<rect x="113.088" y="73.8905" width="13.4912" height="13.5204" fill="#D9D9D9" stroke="#F3F4F6" stroke-width="0.5"/>
<rect x="159.726" y="73.8905" width="13.4912" height="13.5204" fill="#D9D9D9" stroke="#F3F4F6" stroke-width="0.5"/>
<rect x="78.8867" y="73.8905" width="13.4912" height="13.5204" fill="#D9D9D9" stroke="#F3F4F6" stroke-width="0.5"/>
<rect x="125.524" y="73.8905" width="13.4912" height="13.5204" fill="#D9D9D9" stroke="#F3F4F6" stroke-width="0.5"/>
<rect x="172.161" y="73.8905" width="13.4912" height="13.5204" fill="#D9D9D9" stroke="#F3F4F6" stroke-width="0.5"/>
<rect x="66.4502" y="86.3533" width="13.4912" height="13.5204" fill="#FBB130" stroke="#F3F4F6" stroke-width="0.5"/>
<rect x="113.088" y="86.3533" width="13.4912" height="13.5204" fill="#D9D9D9" stroke="#F3F4F6" stroke-width="0.5"/>
<rect x="159.726" y="86.3533" width="13.4912" height="13.5204" fill="#D9D9D9" stroke="#F3F4F6" stroke-width="0.5"/>
<rect x="78.8867" y="86.3533" width="13.4912" height="13.5204" fill="#D9D9D9" stroke="#F3F4F6" stroke-width="0.5"/>
<rect x="125.524" y="86.3533" width="13.4912" height="13.5204" fill="#D9D9D9" stroke="#F3F4F6" stroke-width="0.5"/>
<rect x="172.161" y="86.3533" width="13.4912" height="13.5204" fill="#00CEB3" stroke="#F3F4F6" stroke-width="0.5"/>
<rect x="66.4502" y="111.278" width="13.4912" height="13.5204" fill="#D8DADD" stroke="#F3F4F6" stroke-width="0.5"/>
<rect x="113.088" y="111.278" width="13.4912" height="13.5204" fill="#D8DADD" stroke="#F3F4F6" stroke-width="0.5"/>
<rect x="159.726" y="111.278" width="13.4912" height="13.5204" fill="#D8DADD" stroke="#F3F4F6" stroke-width="0.5"/>
<rect x="78.8867" y="111.278" width="13.4912" height="13.5204" fill="#D8DADD" stroke="#F3F4F6" stroke-width="0.5"/>
<rect x="125.524" y="111.278" width="13.4912" height="13.5204" fill="#D8DADD" stroke="#F3F4F6" stroke-width="0.5"/>
<rect x="172.161" y="111.278" width="13.4912" height="13.5204" fill="#D8DADD" stroke="#F3F4F6" stroke-width="0.5"/>
<rect x="66.4502" y="137.761" width="13.4912" height="13.5204" fill="#D9D9D9" stroke="#F3F4F6" stroke-width="0.5"/>
<rect x="113.088" y="137.761" width="13.4912" height="13.5204" fill="#FBB130" stroke="#F3F4F6" stroke-width="0.5"/>
<rect x="159.726" y="137.761" width="13.4912" height="13.5204" fill="#D9D9D9" stroke="#F3F4F6" stroke-width="0.5"/>
<rect x="78.8867" y="137.761" width="13.4912" height="13.5204" fill="#D9D9D9" stroke="#F3F4F6" stroke-width="0.5"/>
<rect x="125.524" y="137.761" width="13.4912" height="13.5204" fill="#D9D9D9" stroke="#F3F4F6" stroke-width="0.5"/>
<rect x="172.161" y="137.761" width="13.4912" height="13.5204" fill="#D9D9D9" stroke="#F3F4F6" stroke-width="0.5"/>
<rect x="66.4502" y="98.8157" width="13.4912" height="13.5204" fill="#D9D9D9" stroke="#F3F4F6" stroke-width="0.5"/>
<rect x="113.088" y="98.8157" width="13.4912" height="13.5204" fill="#D9D9D9" stroke="#F3F4F6" stroke-width="0.5"/>
<rect x="159.726" y="98.8157" width="13.4912" height="13.5204" fill="#FC787D" stroke="#F3F4F6" stroke-width="0.5"/>
<rect x="78.8867" y="98.8157" width="13.4912" height="13.5204" fill="#D9D9D9" stroke="#F3F4F6" stroke-width="0.5"/>
<rect x="125.524" y="98.8157" width="13.4912" height="13.5204" fill="#D9D9D9" stroke="#F3F4F6" stroke-width="0.5"/>
<rect x="172.161" y="98.8157" width="13.4912" height="13.5204" fill="#D9D9D9" stroke="#F3F4F6" stroke-width="0.5"/>
<rect x="66.4502" y="123.741" width="13.4912" height="15.0782" fill="#00CEB3" stroke="#F3F4F6" stroke-width="0.5"/>
<rect x="113.088" y="123.741" width="13.4912" height="15.0782" fill="#D9D9D9" stroke="#F3F4F6" stroke-width="0.5"/>
<rect x="159.726" y="123.741" width="13.4912" height="15.0782" fill="#D9D9D9" stroke="#F3F4F6" stroke-width="0.5"/>
<rect x="78.8867" y="123.741" width="13.4912" height="15.0782" fill="#D9D9D9" stroke="#F3F4F6" stroke-width="0.5"/>
<rect x="125.524" y="123.741" width="13.4912" height="15.0782" fill="#00CEB3" stroke="#F3F4F6" stroke-width="0.5"/>
<rect x="172.161" y="123.741" width="13.4912" height="15.0782" fill="#D9D9D9" stroke="#F3F4F6" stroke-width="0.5"/>
<rect x="66.4502" y="150.224" width="13.4912" height="13.5204" fill="#D9D9D9" stroke="#F3F4F6" stroke-width="0.5"/>
<rect x="113.088" y="150.224" width="13.4912" height="13.5204" fill="#D9D9D9" stroke="#F3F4F6" stroke-width="0.5"/>
<rect x="159.726" y="150.224" width="13.4912" height="13.5204" fill="#D9D9D9" stroke="#F3F4F6" stroke-width="0.5"/>
<rect x="78.8867" y="150.224" width="13.4912" height="13.5204" fill="#FC787D" stroke="#F3F4F6" stroke-width="0.5"/>
<rect x="125.524" y="150.224" width="13.4912" height="13.5204" fill="#D9D9D9" stroke="#F3F4F6" stroke-width="0.5"/>
<rect x="172.161" y="150.224" width="13.4912" height="13.5204" fill="#D9D9D9" stroke="#F3F4F6" stroke-width="0.5"/>
<path d="M57.7633 28.5619C65.1435 23.5656 72.9982 20.6257 81.9795 21.6055C86.4286 22.1009 90.5984 23.4302 94.6096 25.8656C94.1183 27.0158 93.5826 28.0871 93.1867 29.1907C92.6295 30.7396 93.348 31.6955 95.008 31.5772C97.2713 31.4129 99.5534 31.263 101.813 30.9465C103.111 30.7746 103.844 29.9145 103.282 28.48C102.377 26.1077 101.533 23.6933 100.501 21.3887C100.142 20.5886 99.2697 20.0091 98.6385 19.3298C97.9647 19.9955 97.23 20.5846 96.6504 21.3226C96.244 21.8342 96.0614 22.5027 95.7147 23.2099C86.2862 18.4577 76.687 17.7972 66.9295 21.837C63.3497 23.3117 60.0921 25.3033 57.7467 28.5641L57.7633 28.5619Z" fill="#714B67"/>
<path d="M151.038 28.5613C158.418 23.565 166.273 20.6251 175.254 21.6049C179.703 22.1003 183.873 23.4296 187.884 25.865C187.393 27.0152 186.857 28.0864 186.461 29.1901C185.904 30.739 186.622 31.6949 188.282 31.5766C190.546 31.4123 192.828 31.2624 195.088 30.9459C196.385 30.7739 197.118 29.9139 196.556 28.4794C195.651 26.1071 194.808 23.6927 193.776 21.3881C193.416 20.588 192.544 20.0085 191.913 19.3292C191.239 19.9949 190.504 20.584 189.925 21.322C189.518 21.8336 189.336 22.5021 188.989 23.2093C179.561 18.4571 169.961 17.7965 160.204 21.8364C156.624 23.3111 153.366 25.3026 151.021 28.5635L151.038 28.5613Z" fill="#714B67"/>
<path d="M104.4 172.078C111.78 177.074 119.635 180.014 128.616 179.034C133.065 178.539 137.235 177.21 141.246 174.774C140.755 173.624 140.219 172.553 139.823 171.449C139.266 169.9 139.985 168.944 141.645 169.063C143.908 169.227 146.19 169.377 148.45 169.693C149.748 169.865 150.48 170.725 149.919 172.16C149.013 174.532 148.17 176.947 147.138 179.251C146.778 180.051 145.906 180.631 145.275 181.31C144.601 180.644 143.867 180.055 143.287 179.317C142.881 178.806 142.698 178.137 142.351 177.43C132.923 182.182 123.324 182.843 113.566 178.803C109.986 177.328 106.729 175.337 104.383 172.076L104.4 172.078Z" fill="#714B67"/>
<rect x="205.636" y="195.093" width="13.4912" height="13.5204" fill="#00CEB3" stroke="#F3F4F6" stroke-width="0.5"/>
<rect x="191.665" y="195.093" width="13.4912" height="13.5204" fill="#FBB130" stroke="#F3F4F6" stroke-width="0.5"/>
<rect x="177.694" y="195.093" width="13.4912" height="13.5204" fill="#FC787D" stroke="#F3F4F6" stroke-width="0.5"/>
<rect x="205.636" y="209.093" width="13.4912" height="13.5204" fill="#00CEB3" stroke="#F3F4F6" stroke-width="0.5"/>
<rect x="191.665" y="209.093" width="13.4912" height="13.5204" fill="#FBB130" stroke="#F3F4F6" stroke-width="0.5"/>
<rect x="177.694" y="209.093" width="13.4912" height="13.5204" fill="#FC787D" stroke="#F3F4F6" stroke-width="0.5"/>
<path d="M180.952 242.755C180.824 242.755 180.718 242.686 180.632 242.547C180.568 242.483 180.499 242.382 180.424 242.243C180.35 242.105 180.323 241.881 180.344 241.571C180.376 241.251 180.494 240.787 180.696 240.179C180.803 239.774 180.888 239.481 180.952 239.299C181.016 239.107 181.048 238.969 181.048 238.883C181.048 238.766 181.059 238.67 181.08 238.595C181.112 238.51 181.128 238.43 181.128 238.355C181.192 238.355 181.256 238.297 181.32 238.179C181.384 238.062 181.438 237.902 181.48 237.699C181.523 237.518 181.56 237.374 181.592 237.267C181.635 237.15 181.656 237.07 181.656 237.027C181.71 236.942 181.763 236.809 181.816 236.627C181.88 236.446 181.976 236.227 182.104 235.971C182.19 235.651 182.286 235.321 182.392 234.979C182.499 234.627 182.606 234.302 182.712 234.003C182.83 233.694 182.926 233.454 183 233.283C183.118 232.953 183.208 232.723 183.272 232.595C183.336 232.457 183.336 232.366 183.272 232.323C183.198 232.27 183.16 232.137 183.16 231.923C183.171 231.699 183.272 231.507 183.464 231.347C183.582 231.209 183.731 231.113 183.912 231.059C184.094 230.995 184.302 230.963 184.536 230.963C184.771 230.963 185.016 230.974 185.272 230.995C185.464 231.006 185.667 231.011 185.88 231.011C186.104 231.011 186.243 231.011 186.296 231.011C186.392 231.054 186.51 231.102 186.648 231.155C186.787 231.209 186.91 231.262 187.016 231.315C187.134 231.358 187.192 231.395 187.192 231.427C187.192 231.491 187.214 231.534 187.256 231.555C187.31 231.566 187.363 231.577 187.416 231.587C187.491 231.587 187.614 231.657 187.784 231.795C187.955 231.923 188.126 232.083 188.296 232.275C188.478 232.457 188.606 232.638 188.68 232.819C188.766 233.001 188.835 233.171 188.888 233.331C188.952 233.491 188.958 233.721 188.904 234.019C188.894 234.179 188.867 234.339 188.824 234.499C188.792 234.659 188.755 234.766 188.712 234.819C188.648 234.862 188.59 234.915 188.536 234.979C188.483 235.043 188.456 235.102 188.456 235.155C188.456 235.198 188.414 235.305 188.328 235.475C188.243 235.635 188.136 235.822 188.008 236.035C187.88 236.238 187.742 236.441 187.592 236.643C187.443 236.846 187.304 237.006 187.176 237.123C187.038 237.294 186.872 237.454 186.68 237.603C186.499 237.753 186.334 237.875 186.184 237.971C185.907 238.099 185.587 238.222 185.224 238.339C184.872 238.457 184.531 238.553 184.2 238.627C183.87 238.691 183.603 238.718 183.4 238.707C183.091 238.75 182.888 238.793 182.792 238.835C182.696 238.867 182.627 238.958 182.584 239.107C182.531 239.246 182.478 239.39 182.424 239.539C182.382 239.689 182.36 239.795 182.36 239.859C182.339 239.902 182.291 240.019 182.216 240.211C182.152 240.403 182.072 240.627 181.976 240.883C181.891 241.139 181.811 241.395 181.736 241.651C181.662 241.907 181.603 242.126 181.56 242.307C181.518 242.457 181.427 242.569 181.288 242.643C181.16 242.718 181.048 242.755 180.952 242.755ZM183.224 237.411C183.267 237.454 183.406 237.459 183.64 237.427C183.875 237.395 184.158 237.315 184.488 237.187C184.702 237.113 184.915 237.022 185.128 236.915C185.352 236.809 185.566 236.691 185.768 236.563C185.875 236.489 185.987 236.398 186.104 236.291C186.222 236.174 186.387 235.982 186.6 235.715C186.632 235.662 186.686 235.561 186.76 235.411C186.846 235.251 186.92 235.102 186.984 234.963C187.08 234.814 187.176 234.595 187.272 234.307C187.368 234.009 187.39 233.763 187.336 233.571C187.283 233.294 187.176 233.065 187.016 232.883C186.856 232.691 186.654 232.553 186.408 232.467C186.174 232.425 185.976 232.398 185.816 232.387C185.667 232.377 185.502 232.387 185.32 232.419C185.15 232.473 185.027 232.547 184.952 232.643C184.888 232.739 184.792 232.942 184.664 233.251C184.59 233.401 184.483 233.609 184.344 233.875C184.206 234.131 184.088 234.393 183.992 234.659C183.8 235.363 183.63 235.902 183.48 236.275C183.342 236.649 183.251 236.894 183.208 237.011C183.219 237.129 183.214 237.214 183.192 237.267C183.171 237.31 183.182 237.358 183.224 237.411ZM187.94 241.507C187.897 241.422 187.801 241.337 187.652 241.251C187.513 241.166 187.444 241.102 187.444 241.059C187.444 241.017 187.417 240.953 187.364 240.867C187.321 240.771 187.279 240.702 187.236 240.659C187.183 240.595 187.199 240.441 187.284 240.195C187.369 239.939 187.497 239.63 187.668 239.267C187.839 238.905 188.025 238.537 188.228 238.163C188.313 238.078 188.399 237.966 188.484 237.827C188.569 237.689 188.633 237.598 188.676 237.555C188.676 237.513 188.692 237.475 188.724 237.443C188.756 237.401 188.793 237.379 188.836 237.379L188.964 237.123C188.985 237.081 189.049 236.995 189.156 236.867C189.273 236.739 189.412 236.601 189.572 236.451C189.732 236.291 189.892 236.142 190.052 236.003C190.223 235.865 190.361 235.763 190.468 235.699C190.692 235.55 190.921 235.481 191.156 235.491C191.401 235.502 191.609 235.577 191.78 235.715C191.812 235.747 191.881 235.811 191.988 235.907C192.105 236.003 192.233 236.11 192.372 236.227C192.521 236.345 192.649 236.451 192.756 236.547L193.348 237.075L193.076 237.875C192.937 238.302 192.9 238.675 192.964 238.995C193.028 239.315 193.129 239.593 193.268 239.827C193.321 239.945 193.391 240.035 193.476 240.099C193.572 240.163 193.695 240.206 193.844 240.227C193.929 240.238 194.009 240.27 194.084 240.323C194.159 240.377 194.196 240.462 194.196 240.579C194.196 240.835 194.148 241.022 194.052 241.139C193.967 241.246 193.871 241.31 193.764 241.331C193.412 241.374 193.076 241.337 192.756 241.219C192.436 241.102 192.148 240.798 191.892 240.307C191.849 240.243 191.791 240.126 191.716 239.955C191.652 239.774 191.615 239.657 191.604 239.603C191.561 239.657 191.503 239.726 191.428 239.811C191.364 239.886 191.3 239.955 191.236 240.019C190.479 240.787 189.828 241.289 189.284 241.523C188.751 241.747 188.303 241.742 187.94 241.507ZM188.82 240.179C188.895 240.19 189.012 240.153 189.172 240.067C189.332 239.971 189.545 239.817 189.812 239.603C190.175 239.294 190.473 239.038 190.708 238.835C190.943 238.633 191.172 238.371 191.396 238.051L191.748 237.475C191.641 237.23 191.545 237.07 191.46 236.995C191.375 236.921 191.289 236.883 191.204 236.883C191.065 236.883 190.9 236.974 190.708 237.155C190.516 237.326 190.297 237.582 190.052 237.923C189.817 238.254 189.551 238.67 189.252 239.171C189.113 239.406 189.007 239.635 188.932 239.859C188.857 240.073 188.82 240.179 188.82 240.179ZM196.633 241.907C196.323 241.961 196.014 241.934 195.705 241.827C195.406 241.721 195.155 241.55 194.953 241.315C194.761 241.07 194.665 240.777 194.665 240.435C194.633 240.115 194.659 239.737 194.745 239.299C194.841 238.851 194.979 238.403 195.161 237.955C195.353 237.507 195.571 237.129 195.817 236.819C196.03 236.563 196.243 236.329 196.457 236.115C196.67 235.902 196.862 235.758 197.033 235.683C197.182 235.619 197.363 235.571 197.577 235.539C197.801 235.497 197.955 235.475 198.041 235.475C198.211 235.518 198.398 235.587 198.601 235.683C198.814 235.779 198.921 235.891 198.921 236.019C198.921 236.019 198.931 236.035 198.953 236.067C198.985 236.089 199.001 236.099 199.001 236.099C199.065 236.099 199.134 236.179 199.209 236.339C199.294 236.489 199.358 236.665 199.401 236.867C199.443 237.059 199.433 237.214 199.369 237.331C199.326 237.534 199.241 237.731 199.113 237.923C198.995 238.115 198.894 238.211 198.809 238.211C198.766 238.211 198.723 238.217 198.681 238.227C198.649 238.227 198.633 238.254 198.633 238.307C198.633 238.361 198.574 238.387 198.457 238.387C198.35 238.387 198.238 238.366 198.121 238.323C198.003 238.281 197.929 238.217 197.897 238.131C197.897 238.078 197.907 238.009 197.929 237.923C197.95 237.838 197.982 237.694 198.025 237.491C198.089 237.193 198.094 236.995 198.041 236.899C197.987 236.793 197.854 236.782 197.641 236.867C197.374 237.017 197.155 237.193 196.985 237.395C196.814 237.587 196.659 237.859 196.521 238.211C196.393 238.563 196.249 239.054 196.089 239.683C196.025 239.929 196.014 240.121 196.057 240.259C196.11 240.398 196.153 240.473 196.185 240.483C196.334 240.526 196.494 240.537 196.665 240.515C196.846 240.483 196.995 240.435 197.113 240.371C197.283 240.286 197.433 240.195 197.561 240.099C197.699 239.993 197.849 239.881 198.009 239.763C198.062 239.731 198.11 239.673 198.153 239.587C198.195 239.491 198.259 239.422 198.345 239.379C198.43 239.251 198.537 239.187 198.665 239.187C198.803 239.177 198.937 239.171 199.065 239.171C199.15 239.193 199.241 239.246 199.337 239.331C199.433 239.417 199.502 239.502 199.545 239.587C199.598 239.662 199.593 239.715 199.529 239.747C199.486 239.747 199.459 239.763 199.449 239.795C199.449 239.817 199.449 239.827 199.449 239.827C199.47 239.87 199.422 239.966 199.305 240.115C199.198 240.265 199.059 240.425 198.889 240.595C198.718 240.766 198.553 240.915 198.393 241.043C198.243 241.161 198.137 241.219 198.073 241.219C197.966 241.219 197.913 241.251 197.913 241.315C197.913 241.337 197.833 241.39 197.673 241.475C197.523 241.561 197.347 241.646 197.145 241.731C196.953 241.817 196.782 241.875 196.633 241.907ZM200.941 241.731C200.781 241.678 200.637 241.593 200.509 241.475C200.391 241.358 200.343 241.166 200.365 240.899C200.386 240.739 200.418 240.574 200.461 240.403C200.503 240.222 200.557 240.046 200.621 239.875C200.653 239.683 200.69 239.491 200.733 239.299C200.786 239.107 200.871 238.926 200.989 238.755C201.127 238.361 201.271 237.971 201.421 237.587C201.57 237.193 201.698 236.782 201.805 236.355C201.965 235.971 202.109 235.63 202.237 235.331C202.375 235.033 202.541 234.649 202.733 234.179C202.839 233.934 202.93 233.662 203.005 233.363C203.09 233.054 203.218 232.782 203.389 232.547C203.463 232.451 203.517 232.371 203.549 232.307C203.591 232.233 203.634 232.163 203.677 232.099C203.751 231.95 203.863 231.881 204.013 231.891C204.173 231.902 204.279 231.945 204.333 232.019C204.514 232.094 204.642 232.233 204.717 232.435C204.791 232.627 204.818 232.766 204.797 232.851C204.797 232.969 204.754 233.097 204.669 233.235C204.626 233.278 204.583 233.342 204.541 233.427C204.498 233.502 204.434 233.603 204.349 233.731C204.306 233.87 204.263 234.009 204.221 234.147C204.178 234.286 204.13 234.414 204.077 234.531C204.023 234.649 203.965 234.766 203.901 234.883C203.837 235.001 203.794 235.097 203.773 235.171C203.677 235.417 203.57 235.657 203.453 235.891C203.346 236.115 203.25 236.355 203.165 236.611C203.079 236.857 202.989 237.118 202.893 237.395C202.797 237.662 202.674 237.918 202.525 238.163C202.45 238.27 202.407 238.414 202.397 238.595C202.397 238.777 202.375 238.953 202.333 239.123C202.258 239.315 202.189 239.491 202.125 239.651C202.071 239.811 202.045 239.913 202.045 239.955C201.97 240.19 201.911 240.425 201.869 240.659C201.826 240.883 201.757 241.081 201.661 241.251C201.661 241.507 201.591 241.667 201.453 241.731C201.314 241.795 201.143 241.795 200.941 241.731ZM204.605 241.875C204.434 241.854 204.306 241.822 204.221 241.779C204.135 241.726 203.975 241.614 203.741 241.443C203.613 241.315 203.453 241.118 203.261 240.851C203.069 240.585 202.877 240.302 202.685 240.003C202.493 239.694 202.322 239.433 202.173 239.219L203.053 238.099C203.191 238.27 203.303 238.43 203.389 238.579C203.474 238.729 203.543 238.83 203.597 238.883C203.842 239.246 204.034 239.539 204.173 239.763C204.311 239.987 204.429 240.169 204.525 240.307C204.631 240.446 204.749 240.569 204.877 240.675C205.005 240.782 205.17 240.894 205.373 241.011C205.405 241.033 205.437 241.086 205.469 241.171C205.501 241.246 205.511 241.326 205.501 241.411C205.479 241.539 205.399 241.646 205.261 241.731C205.133 241.806 204.914 241.854 204.605 241.875ZM202.285 238.915C202.221 238.734 202.205 238.531 202.237 238.307C202.279 238.073 202.37 237.918 202.509 237.843C202.551 237.769 202.594 237.721 202.637 237.699C202.69 237.667 202.722 237.63 202.733 237.587C202.754 237.545 202.807 237.486 202.893 237.411C202.989 237.337 203.074 237.267 203.149 237.203C203.319 237.097 203.506 236.969 203.709 236.819C203.922 236.659 204.125 236.499 204.317 236.339C204.519 236.179 204.685 236.041 204.813 235.923C204.951 235.806 205.037 235.731 205.069 235.699C205.101 235.657 205.165 235.63 205.261 235.619C205.367 235.609 205.469 235.625 205.565 235.667C205.693 235.699 205.794 235.769 205.869 235.875C205.954 235.982 205.997 236.131 205.997 236.323C206.029 236.441 205.959 236.585 205.789 236.755C205.629 236.915 205.426 237.075 205.181 237.235C205.095 237.289 204.978 237.369 204.829 237.475C204.69 237.582 204.567 237.683 204.461 237.779C204.386 237.822 204.274 237.897 204.125 238.003C203.986 238.099 203.863 238.195 203.757 238.291C203.671 238.345 203.57 238.441 203.453 238.579C203.346 238.707 203.223 238.803 203.085 238.867C202.743 239.187 202.535 239.342 202.461 239.331C202.397 239.321 202.338 239.182 202.285 238.915ZM208.125 242.131C207.538 242.131 207.085 241.961 206.765 241.619C206.456 241.278 206.301 240.755 206.301 240.051C206.301 239.667 206.37 239.246 206.509 238.787C206.658 238.329 206.85 237.881 207.085 237.443C207.33 237.006 207.597 236.627 207.885 236.307C208.173 235.977 208.461 235.747 208.749 235.619C208.856 235.566 208.968 235.529 209.085 235.507C209.213 235.475 209.336 235.459 209.453 235.459C209.581 235.459 209.72 235.47 209.869 235.491C210.029 235.502 210.178 235.534 210.317 235.587C210.562 235.662 210.776 235.806 210.957 236.019C211.149 236.233 211.245 236.542 211.245 236.947C211.245 237.054 211.234 237.171 211.213 237.299C211.192 237.417 211.154 237.534 211.101 237.651C210.962 238.003 210.749 238.339 210.461 238.659C210.184 238.979 209.89 239.203 209.581 239.331C209.496 239.374 209.41 239.406 209.325 239.427C209.25 239.438 209.17 239.443 209.085 239.443C208.861 239.443 208.658 239.411 208.477 239.347C208.306 239.283 208.146 239.198 207.997 239.091L207.869 238.979L207.789 239.139C207.714 239.342 207.661 239.513 207.629 239.651C207.608 239.79 207.597 239.891 207.597 239.955C207.597 240.083 207.602 240.217 207.613 240.355C207.624 240.483 207.656 240.59 207.709 240.675C207.752 240.729 207.805 240.771 207.869 240.803C207.944 240.835 208.034 240.851 208.141 240.851C208.205 240.851 208.264 240.851 208.317 240.851C208.381 240.841 208.434 240.83 208.477 240.819C208.669 240.777 208.824 240.707 208.941 240.611C209.069 240.505 209.202 240.414 209.341 240.339L209.405 240.307L209.389 240.259C209.57 240.163 209.693 240.105 209.757 240.083C209.821 240.051 209.869 240.025 209.901 240.003C209.944 239.961 209.992 239.939 210.045 239.939C210.194 239.918 210.338 239.961 210.477 240.067C210.626 240.163 210.701 240.286 210.701 240.435C210.701 240.499 210.653 240.601 210.557 240.739C210.472 240.878 210.36 241.017 210.221 241.155C210.093 241.283 209.96 241.385 209.821 241.459C209.789 241.47 209.757 241.486 209.725 241.507C209.693 241.518 209.661 241.534 209.629 241.555H209.645C209.549 241.683 209.453 241.747 209.357 241.747H209.229C209.186 241.822 209.048 241.902 208.813 241.987C208.578 242.083 208.349 242.131 208.125 242.131ZM208.957 238.275C209.053 238.275 209.138 238.259 209.213 238.227C209.298 238.195 209.378 238.158 209.453 238.115C209.709 237.934 209.874 237.699 209.949 237.411C210.024 237.123 209.997 236.905 209.869 236.755C209.848 236.723 209.821 236.702 209.789 236.691C209.757 236.67 209.72 236.659 209.677 236.659C209.56 236.659 209.426 236.697 209.277 236.771C209.138 236.846 209 236.953 208.861 237.091C208.722 237.23 208.594 237.395 208.477 237.587L208.269 237.923C208.29 237.913 208.306 237.907 208.317 237.907C208.338 237.897 208.354 237.891 208.365 237.891C208.461 237.891 208.525 237.923 208.557 237.987C208.589 238.051 208.626 238.115 208.669 238.179C208.722 238.243 208.818 238.275 208.957 238.275ZM215.965 242.035C215.848 242.078 215.714 242.099 215.565 242.099C215.426 242.11 215.266 242.046 215.085 241.907C214.978 241.79 214.904 241.667 214.861 241.539C214.829 241.411 214.813 241.214 214.813 240.947C214.834 240.787 214.877 240.558 214.941 240.259C215.005 239.95 215.074 239.63 215.149 239.299C215.234 238.958 215.309 238.654 215.373 238.387C215.448 238.11 215.506 237.923 215.549 237.827C215.624 237.571 215.64 237.411 215.597 237.347C215.554 237.283 215.426 237.246 215.213 237.235C214.968 237.225 214.712 237.342 214.445 237.587C214.178 237.833 213.874 238.222 213.533 238.755C213.277 239.15 213.122 239.475 213.069 239.731C213.016 239.977 213.01 240.147 213.053 240.243C213.074 240.286 213.112 240.313 213.165 240.323C213.229 240.323 213.304 240.307 213.389 240.275C213.485 240.243 213.586 240.201 213.693 240.147C213.768 240.105 213.858 240.062 213.965 240.019C214.082 239.966 214.194 239.918 214.301 239.875C214.365 239.875 214.408 239.913 214.429 239.987C214.461 240.062 214.477 240.153 214.477 240.259C214.477 240.302 214.488 240.382 214.509 240.499C214.541 240.617 214.594 240.697 214.669 240.739C214.712 240.782 214.621 240.873 214.397 241.011C214.184 241.139 213.906 241.299 213.565 241.491C213.245 241.566 213.005 241.603 212.845 241.603C212.696 241.603 212.53 241.534 212.349 241.395C212.05 241.214 211.858 240.878 211.773 240.387C211.698 239.897 211.762 239.353 211.965 238.755C212.168 238.275 212.392 237.865 212.637 237.523C212.893 237.171 213.16 236.851 213.437 236.563C213.48 236.521 213.613 236.435 213.837 236.307C214.061 236.179 214.29 236.078 214.525 236.003C214.792 235.918 215.016 235.886 215.197 235.907C215.389 235.918 215.57 235.982 215.741 236.099C215.933 236.142 216.061 236.137 216.125 236.083C216.2 236.03 216.285 235.881 216.381 235.635C216.573 235.102 216.776 234.563 216.989 234.019C217.202 233.465 217.426 232.905 217.661 232.339C217.768 232.137 217.832 231.982 217.853 231.875C217.885 231.758 217.922 231.678 217.965 231.635L218.413 231.491C218.53 231.459 218.664 231.513 218.813 231.651C218.973 231.79 219.074 231.923 219.117 232.051C219.117 232.147 219.074 232.361 218.989 232.691C218.904 233.011 218.765 233.395 218.573 233.843C218.402 234.238 218.232 234.638 218.061 235.043C217.901 235.438 217.746 235.859 217.597 236.307C217.48 236.638 217.373 236.905 217.277 237.107C217.181 237.31 217.117 237.486 217.085 237.635C217.021 237.913 216.941 238.163 216.845 238.387C216.76 238.601 216.701 238.75 216.669 238.835C216.53 239.241 216.424 239.577 216.349 239.843C216.274 240.099 216.226 240.323 216.205 240.515C216.184 240.697 216.178 240.878 216.189 241.059C216.2 241.23 216.221 241.427 216.253 241.651C216.253 241.694 216.221 241.758 216.157 241.843C216.104 241.918 216.04 241.982 215.965 242.035Z" fill="#714B67"/>
</svg>
