<?xml version="1.0" encoding="utf-8"?>
<!-- Generator: Adobe Illustrator 25.2.1, SVG Export Plug-In . SVG Version: 6.00 Build 0)  -->
<svg version="1.1" id="Layer_1" xmlns="http://www.w3.org/2000/svg" xmlns:xlink="http://www.w3.org/1999/xlink" x="0px" y="0px"
	 viewBox="0 0 1080 1080" style="enable-background:new 0 0 1080 1080;" xml:space="preserve">
<style type="text/css">
	.st0{fill:#1AB9A4;}
	.st1{fill:#FFFFFF;}
</style>
<rect class="st0" width="1080" height="1080"/>
<path id="_Compound_Path__1_" class="st1" d="M995.84,736.46c-5.84-16.63-28.63-18.99-28.63-18.99H846.78l-66.58-181.02
	c-30.35-35.62-56.08,0-56.08,0l-48.48,113.35L562.51,221.28c-1.27-4.59-3.24-8.96-5.84-12.93c0,0-11.09-13.65-28.04-12.55
	c-16.95,1.1-27.45,17.79-27.45,17.79l-93.44,481.91c0,0-56.08-224.95-60.12-242.18c-4.05-17.23-6.42-18.99-6.42-18.99
	s-5.84-16.04-26.87-17.2c-21.03-1.16-30.88,20.18-30.88,20.18l-48.48,127.01l-124.38,0.6c-30.35,5.93-29.8,33.83-29.8,33.83
	C84.28,630.14,110,630.8,110,630.8l138.4,0.6c17.58,2.96,34.9-6.58,42.06-23.16l16.92-46.89l70.37,285.77
	c7.29,40.08,36.5,37.09,36.5,37.09c29.21,0,32.7-36.22,32.7-36.22l43.79-236.22h105.7l38.35,146.65c4.66,27.9,29.21,27.3,29.21,27.3
	c13,2.26,26.01-3.89,32.7-15.44l53.85-125.72c0,0,32.55,91.79,40.14,116.34c7.6,24.54,33.44,24.89,33.44,24.89h141.33
	c12.35-0.06,23.81-6.55,30.35-17.2C1003.43,747.13,995.84,736.46,995.84,736.46z M503.53,544.75l30.35-167.36l46.72,167.36H503.53z"
	/>
</svg>
