<svg xmlns="http://www.w3.org/2000/svg" xmlns:xlink="http://www.w3.org/1999/xlink" width="600" height="600">
    <defs>
        <clipPath id="clip-path" clipPathUnits="objectBoundingBox">
            <use xlink:href="#filterPath" fill="none"/>
        </clipPath>
        <path id="filterPath" d="M0.3065,0C0.3435,0,0.379,0.0066,0.4118,0.0186C0.4676,0.039,0.5324,0.039,0.5882,0.0186C0.621,0.0066,0.6565,0,0.6935,0C0.8628,0,1,0.1372,1,0.3065C1,0.3435,0.9934,0.379,0.9814,0.4118C0.961,0.4676,0.961,0.5324,0.9814,0.5882C0.9934,0.621,1,0.6565,1,0.6935C1,0.8628,0.8628,1,0.6935,1C0.6565,1,0.621,0.9934,0.5882,0.9814C0.5324,0.961,0.4676,0.961,0.4118,0.9814C0.379,0.9934,0.3435,1,0.3065,1C0.1372,1,0,0.8628,0,0.6935C0,0.6565,0.0066,0.621,0.0186,0.5882C0.039,0.5324,0.039,0.4676,0.0186,0.4118C0.0066,0.379,0,0.3435,0,0.3065C0,0.1372,0.1372,0,0.3065,0Z">
        </path>
    </defs>
    <svg viewBox="0 0 1 1" id="preview" preserveAspectRatio="none">
        <use xlink:href="#filterPath" fill="darkgrey"/>
    </svg>
    <image xlink:href="" clip-path="url(#clip-path)"/>
</svg>
