<svg xmlns="http://www.w3.org/2000/svg" xmlns:xlink="http://www.w3.org/1999/xlink" id="shape" width="800" height="600">
    <defs>
        <clipPath id="clip-path" clipPathUnits="objectBoundingBox">
            <use xlink:href="#filterPath" fill="none"/>
        </clipPath>
        <path id="filterPath" d="M.7306.2009c.0859.0167.2194.0167.2194.0586c0 .0418-.1336.1339-.1908.2259c-.0572.0921-.0318.1883-.0508.2301c-.0191.0418-.0827.0251-.1717.0753c-.089.0502-.2067.1632-.3053.159c-.0986-.0042-.1814-.1297-.1814-.2595c0-.1297.0827-.2677.1399-.3808c.0604-.1172.0954-.2134.1526-.2469c.0572-.0335.1399.0041.2003.046c.0636.0336.1018.0754.1876.0922z">
            <animate dur="100s" repeatCount="indefinite" attributeName="d" attributeType="XML"
            values="
            M.7306.2009c.0859.0167.2194.0167.2194.0586c0 .0418-.1336.1339-.1908.2259c-.0572.0921-.0318.1883-.0508.2301c-.0191.0418-.0827.0251-.1717.0753c-.089.0502-.2067.1632-.3053.159c-.0986-.0042-.1814-.1297-.1814-.2595c0-.1297.0827-.2677.1399-.3808c.0604-.1172.0954-.2134.1526-.2469c.0572-.0335.1399.0041.2003.046c.0636.0336.1018.0754.1876.0922z;
            M.6328.2501c.0698.0667.1807.0627.2441.1255c.0634.0588.0856.1842.0666.3019c-.019.1176-.0761.2313-.1585.2627c-.0824.0314-.1839-.0157-.2505-.0824c-.0666-.0667-.0919-.1489-.1489-.1921c-.0539-.0431-.1363-.0471-.2124-.1058c-.0761-.0588-.1489-.1764-.1141-.2274c.038-.0548.1806-.0431.2726-.1019c.0887-.0588.1268-.1842.1616-.1804c.0349.004.0666.1333.1395.2z;
            M.7259.05c.0824 0 .1427.113.1808.242c.0381.1291.0571.2743.0318.4034c-.0285.1291-.1015.2461-.1935.2542c-.092.0081-.1999-.0887-.2824-.1412c-.0825-.0525-.13-.0564-.2157-.0645c-.0825-.0121-.1999-.0323-.1967-.0847c.0032-.0525.13-.1412.203-.1936c.073-.0525.0952-.0726.1174-.0968c.0222-.0242.0445-.0525.1047-.125c.0635-.0767.1682-.1937.2507-.1937z;
            M.763.0904c.0256.0646-.0319.2242.0032.3458c.0351.1254.1661.2128.1821.2888c.0159.076-.0831.1406-.1725.1824c-.0895.0418-.1725.057-.2332.0266c-.0639-.0304-.1086-.1102-.1693-.1596c-.0639-.0494-.147-.076-.2172-.1482c-.0703-.0722-.1309-.1938-.0959-.266c.0351-.0722.1661-.0912.2587-.1292c.0926-.038.1501-.095.2332-.1368c.0768-.0418.1854-.0722.2109-.0038z;
            M.7948.0851c.0763.0459.124.1569.1463.2678c.0191.111.0095.2257-.0477.2831c-.0572.0574-.1654.0574-.2385.111c-.0699.0536-.1049.153-.159.1875c-.0541.0345-.1336.0077-.2131-.0421c-.0827-.0459-.1686-.111-.2067-.2066c-.0382-.0957-.0318-.2181.0032-.329c.0318-.1071.0922-.2027.1686-.2487c.0763-.0459.1717-.0459.2704-.0498c.0985-.0076.2003-.0229.2767.0268z;
            M.7306.2009c.0859.0167.2194.0167.2194.0586c0 .0418-.1336.1339-.1908.2259c-.0572.0921-.0318.1883-.0508.2301c-.0191.0418-.0827.0251-.1717.0753c-.089.0502-.2067.1632-.3053.159c-.0986-.0042-.1814-.1297-.1814-.2595c0-.1297.0827-.2677.1399-.3808c.0604-.1172.0954-.2134.1526-.2469c.0572-.0335.1399.0041.2003.046c.0636.0336.1018.0754.1876.0922z"
            calcMode="spline"
            keySplines=".56 .37 .43 .58;.56 .37 .43 .58;.56 .37 .43 .58;.56 .37 .43 .58;.56 .37 .43 .58"/>
        </path>
        <g id="animation">
            <animateTransform xlink:href="#shape" attributeName="transform" attributeType="XML" type="translate" dur="6s" values="0 0;0 8;0 0" repeatCount="indefinite" calcMode="spline" keySplines=".45 .05 .55 .95;.45 .05 .55 .95"/>
            <animateTransform xlink:href="#group_1" attributeName="transform" attributeType="XML" type="translate" dur="30s" values="0 0;0 30;0 0" repeatCount="indefinite" calcMode="spline" keySplines=".56 .37 .43 .58;.56 .37 .43 .58"/>
            <animateTransform xlink:href="#group_2" attributeName="transform" attributeType="XML" type="translate" dur="30s" begin="2s" values="0 0;0 30;0 0" repeatCount="indefinite" calcMode="spline" keySplines=".56 .37 .43 .58;.56 .37 .43 .58"/>
            <animateTransform xlink:href="#group_3" attributeName="transform" attributeType="XML" type="translate" dur="30s" values="0 0;10 30;0 0" repeatCount="indefinite" calcMode="spline" keySplines=".56 .37 .43 .58;.56 .37 .43 .58"/>
            <animateTransform xlink:href="#group_3" attributeName="transform" attributeType="XML" type="rotate" dur="30s" values="0;5;0" repeatCount="indefinite" calcMode="spline" keySplines=".56 .37 .43 .58;.56 .37 .43 .58" additive="sum"/>
            <animateTransform xlink:href="#group_4" attributeName="transform" attributeType="XML" type="translate" dur="30s" begin="3s" values="0 0;10 30;0 0" repeatCount="indefinite" calcMode="spline" keySplines=".56 .37 .43 .58;.56 .37 .43 .58"/>
            <animateTransform xlink:href="#group_4" attributeName="transform" attributeType="XML" type="rotate" dur="30s" begin="3s" values="0;-5;0" repeatCount="indefinite" calcMode="spline" keySplines=".56 .37 .43 .58;.56 .37 .43 .58" additive="sum"/>
            <animateTransform xlink:href="#group_5" attributeName="transform" attributeType="XML" type="translate" dur="30s" begin="2s" values="0 0;20 30;0 0" repeatCount="indefinite" calcMode="spline" keySplines=".56 .37 .43 .58;.56 .37 .43 .58"/>
            <animateTransform xlink:href="#group_5" attributeName="transform" attributeType="XML" type="rotate" dur="30s" begin="2s" values="0;5;0" repeatCount="indefinite" calcMode="spline" keySplines=".56 .37 .43 .58;.56 .37 .43 .58" additive="sum"/>
            <animateTransform xlink:href="#group_6" attributeName="transform" attributeType="XML" type="translate" dur="30s" values="0 0;-10 -30;0 0" repeatCount="indefinite" calcMode="spline" keySplines=".56 .37 .43 .58;.56 .37 .43 .58"/>
            <animateTransform xlink:href="#group_6" attributeName="transform" attributeType="XML" type="rotate" dur="30s" values="0;-5;0" repeatCount="indefinite" calcMode="spline" keySplines=".56 .37 .43 .58;.56 .37 .43 .58" additive="sum"/>
        </g>
    </defs>
    <svg viewBox="0 0 1 1" id="preview" preserveAspectRatio="none">
        <use xlink:href="#filterPath" fill="darkgrey"/>
    </svg>
    <image xlink:href="" clip-path="url(#clip-path)"/>
    <svg class="background" viewBox="0 0 1134.56 934.14" preserveAspectRatio="xMidYMid meet">
        <g id="group_1">
            <path d="M710.39,2.56a97,97,0,0,1,21.9,41.7,1.5,1.5,0,0,0,2.9-.8,100.31,100.31,0,0,0-22.6-43c-1.3-1.4-3.5.7-2.2,2.1Z" fill="#383E45" opacity=".1"/>
            <path d="M736.09,15.36a126.56,126.56,0,0,1,10.7,41.4c.2,1.9,3.2,1.9,3,0a127.66,127.66,0,0,0-11.1-42.9c-.8-1.8-3.4-.3-2.6,1.5Z" fill="#383E45" opacity=".1"/>
        </g>
        <g id="group_2">
            <path d="M49.79,417.86c-3.5,10-7.2,20-14,28.3-1.2,1.5.9,3.6,2.1,2.1,7.1-8.7,11.1-19.1,14.8-29.6.6-1.8-2.3-2.6-2.9-.8Z" fill="#383E45" opacity=".1"/>
            <path d="M49.79,418.66c2.2,4.9,2.9,10.6,4.6,15.7a117.9,117.9,0,0,0,5.7,13.8c.8,1.7,3.4.2,2.6-1.5a115.28,115.28,0,0,1-6.5-16.5c-1.3-4.3-2-8.9-3.8-13-.8-1.8-3.3-.2-2.6,1.5Z" fill="#383E45" opacity=".1"/>
            <path d="M36.49,448.16c2.9,1.2,4.9,6.9,6.1,9.6a63.87,63.87,0,0,1,4.1,12.1,1.5,1.5,0,0,0,2.9-.8,78,78,0,0,0-5.4-14.9c-1.6-3.3-3.3-7.4-6.9-8.9-1.8-.8-2.5,2.1-.8,2.9Z" fill="#383E45" opacity=".1"/>
            <path d="M49.69,470.46a170.94,170.94,0,0,1,12.2-22.2c1.1-1.6-1.5-3.1-2.6-1.5A170.94,170.94,0,0,0,47.09,469c-.8,1.8,1.8,3.3,2.6,1.5Z" fill="#383E45" opacity=".1"/>
            <path d="M2,535.76c-4.6,4.4-.5,11.2,5.1,11.8,3.8.4,12.8-4,12.8,2.3,0,3.1-.8,6.3.9,9.1a7.16,7.16,0,0,0,6.6,3.3c4-.1,7.7-4,10,.8,1.3,2.8,1.5,5.3,4.7,6.7a5.21,5.21,0,0,0,7-2c2.2-3.2-3-6.2-5.2-3,.7-1-1.7-6.5-2.5-7.5a7.11,7.11,0,0,0-4.6-2.9,12,12,0,0,0-5.9.8c-3,.9-5.4,1.6-5.3-2.4s.6-8.6-3.4-11.2a10,10,0,0,0-6.1-1.3,22,22,0,0,0-3.7.6c-.9.2-8.3,1.1-6.2-.9,2.8-2.6-1.4-6.8-4.2-4.2Z" fill="#3AADAA"/>
            <path d="M33.09,532.46c.6,3.4,1.3,6.9,1.9,10.3a3,3,0,0,0,2.9,2.2c3.8-.1,5.9-2,9.1-3.6,5.3-2.7,3.7,2.2,4.5,5.7a7,7,0,0,0,4.5,5.3c4.7,1.6,8.7,1.5,12.8,4.9,3,2.4,7.2-1.8,4.2-4.2a24.91,24.91,0,0,0-11.1-5.6,11.09,11.09,0,0,1-3.5-.8c-1.6-.9-1.2-1.4-1.2-3.3a15.94,15.94,0,0,0-.7-4.8,6.85,6.85,0,0,0-7-4c-4.4.3-7.3,4.6-11.6,4.6,1,.7,1.9,1.5,2.9,2.2-.6-3.4-1.3-6.9-1.9-10.3-.7-4-6.5-2.4-5.8,1.4Z" fill="#3AADAA"/>
        </g>
        <g id="group_3" transform-origin="center">
            <polygon points="1015.78 359.26 1005.49 355.26 996.38 361.36 996.99 350.36 988.28 343.56 998.99 340.76 1002.78 330.36 1008.78 339.76 1019.78 340.16 1012.78 348.66 1015.78 359.26" fill="none" stroke="#383E45" stroke-miterlimit="10" stroke-width="3" opacity=".1"/>
            <path d="M998.19,324.56a316.39,316.39,0,0,1,55.6-69.6c1.4-1.3-.7-3.4-2.1-2.1a317.27,317.27,0,0,0-56.1,70.2,1.5,1.5,0,0,0,2.6,1.5Z" fill="#383E45" opacity=".1"/>
            <path d="M1019.79,319.56a372.21,372.21,0,0,1,90.6-94.2c1.5-1.1.1-3.7-1.5-2.6a375.54,375.54,0,0,0-91.6,95.3c-1.2,1.6,1.4,3.1,2.5,1.5Z" fill="#383E45" opacity=".1"/>
            <path d="M1025.19,348.36c11.8-14.5,24.4-28.5,37.5-41.8,1.4-1.4-.8-3.5-2.1-2.1-13.2,13.3-25.7,27.3-37.5,41.8-1.2,1.4.9,3.6,2.1,2.1Z" fill="#383E45" opacity=".1"/>
            <ellipse cx="1016.99" cy="94.36" rx="53" ry="52.1" fill="#7C6576"/>
            <ellipse cx="992.79" cy="258.56" rx="28.7" ry="29.4" fill="#3AADAA"/>
            <path d="M882.09,129.76c7.7,0,7.7-12,0-12s-7.7,12,0,12Z" fill="#3AADAA"/>
            <path d="M1089.49,212.66c-4.2-4.1-2.5-12.6,3.2-14.6,7.1-2.4,12.9,7,9.6,12.9a1.5,1.5,0,0,0,2.6,1.5c4.5-7.9-2.8-19.7-12.3-17.5-8.4,2-11.3,14-5.3,19.8,1.4,1.3,3.5-.8,2.2-2.1Z" fill="#7C6576"/>
        </g>
        <g id="group_4">
            <path d="M389.89,749.46a49.52,49.52,0,0,1-13.4,27.8c-1.3,1.4.8,3.5,2.1,2.1a52.18,52.18,0,0,0,14.1-29.2c.3-1.8-2.6-2.6-2.8-.7Z" fill="#383E45" opacity=".1"/>
            <path d="M390.29,751.16a92.08,92.08,0,0,0,15,23.5c1.3,1.5,3.4-.7,2.1-2.1a84.57,84.57,0,0,1-14.5-22.9c-.7-1.8-3.3-.3-2.6,1.5Z" fill="#383E45" opacity=".1"/>
            <path d="M379.39,778.76c-.1-.2-.3-.5-.4-.7l-2.4,1.8a63,63,0,0,1,15.5,20c.8,1.7,3.4.2,2.6-1.5a65.55,65.55,0,0,0-15.9-20.7,1.52,1.52,0,0,0-2.4,1.8c.1.2.3.5.4.7.9,1.8,3.5.3,2.6-1.4Z" fill="#383E45" opacity=".1"/>
            <path d="M395,799a135.48,135.48,0,0,1,12.1-23.3c1-1.6-1.5-3.1-2.6-1.5a140.6,140.6,0,0,0-12.4,24.1c-.7,1.7,2.2,2.5,2.9.7Z" fill="#383E45" opacity=".1"/>
            <path d="M282.69,713.56c1.9,3,5.1,1.9,6.5-1,3.2-6.5,3-14.2,10.2-18.3,7.5-4.3,12.3,2.8,19.4,3.6,5.5.6,10.9-2.3,14.6-6.1,4.5-4.7,6.9-10.9,10-16.6,1.8-3.3,4.2-5,7.6-2.3,1.1.9,2,2,3,2.9a16.4,16.4,0,0,0,4.7,3,19.23,19.23,0,0,0,23.8-7.8,1.5,1.5,0,0,0-2.6-1.5,15.78,15.78,0,0,1-13.8,7.8c-6.6,0-9.2-3.9-14.1-7.4-9.2-6.6-13.2,8.4-16.6,14.2-3.9,6.5-10.7,13-18.9,10.2-4.6-1.6-8.1-5-13.3-4.3a15.66,15.66,0,0,0-10.5,6.6,30.07,30.07,0,0,0-3.3,6.1c-.6,1.5-1.1,3-1.6,4.6-.2.5-1.9,5.5-2.4,4.8-1.2-1.6-3.8-.1-2.7,1.5Z" fill="#383E45" opacity=".1"/>
            <path d="M346.69,701.66c1.4-11.3,17.6-3.2,23.6-2.6,5.6.6,10.4-1.3,13.1-6.4,1.8-3.5,2.4-7.8,6.8-9.3,3.6-1.2,7.9-.4,11.6-.9a43.81,43.81,0,0,0,19-7.6c1.6-1.1.1-3.7-1.5-2.6a42.34,42.34,0,0,1-13,6.3c-4.6,1.2-9,1.1-13.7,1.5-7.4.7-8.6,5.4-11.7,11.2-5.7,10.5-17.7,1.2-26.3,1.5-5.4.2-10.1,3.5-10.8,9-.4,1.8,2.6,1.8,2.9-.1Z" fill="#383E45" opacity=".1"/>
            <path d="M306.59,811.46c-6-6.9-2.5-19,7.7-18.6,8.9.4,11.9,12.4,3.9,16.6-1.7.9-.2,3.5,1.5,2.6,10.2-5.4,6.8-21-4.6-22.1-13.3-1.3-18.6,14.4-10.7,23.6,1.3,1.5,3.4-.6,2.2-2.1Z" fill="#7C6576"/>
            <path d="M293.39,672.56c-3.4-2.7-10.4-9.8-1.2-11.9,1.8-.4,3.5.4,5.3-.3,3.6-1.4,4.8-5.3,4.7-8.9a41.32,41.32,0,0,0-1.4-7c-.6-2.7-1.8-5.8,2-5.9.7,0,1.4.3,2.2.3,3.5,0,6-2.4,7.2-5.5.7-1.8-2.2-2.6-2.9-.8-2.4,6.6-10.3-1.2-11.8,6.4-1.1,5.9,6.6,18.1-3.7,18.7-4.1.2-7.7.1-8.8,5-1.1,5.1,2.8,8.9,6.4,11.8,1.3,1.4,3.5-.7,2-1.9Z" fill="#7C6576"/>
            <path d="M315.59,658.56c-1.5-2.5-4-6.9-2.9-10,1.2-3.3,6.8-3,9.4-5.2a11.21,11.21,0,0,0,3.6-11.8,1.5,1.5,0,0,0-2.9.8,8,8,0,0,1-1.6,7.7c-1.9,2.1-4,2-6.4,2.9a7.73,7.73,0,0,0-4.5,3.4c-2.2,4.4.4,9.9,2.7,13.7,1,1.6,3.6.1,2.6-1.5Z" fill="#7C6576"/>
        </g>
        <g id="group_5">
            <path d="M174.29,247.46a56.67,56.67,0,0,1-11.7,21.9c-1.3,1.5.9,3.6,2.1,2.1a59.57,59.57,0,0,0,12.5-23.2c.5-1.8-2.4-2.6-2.9-.8Z" fill="#383E45" opacity=".1"/>
            <path d="M174.09,249c1.8,7.5,3.6,16.3,8.6,22.4,1.2,1.5,3.3-.6,2.1-2.1-4.6-5.5-6.2-14.2-7.8-21-.4-2-3.3-1.2-2.9.7Z" fill="#383E45" opacity=".1"/>
            <path d="M161.89,272.26c2.7,1.5,4.9,7.5,6.2,10.3a71.47,71.47,0,0,1,4.3,11.7,1.5,1.5,0,0,0,2.9-.8,86.5,86.5,0,0,0-5.3-13.9c-1.5-3.1-3.4-8.2-6.6-10-1.7-.8-3.2,1.7-1.5,2.7Z" fill="#383E45" opacity=".1"/>
            <path d="M175.49,293.56a146.53,146.53,0,0,1,9.3-22c.9-1.7-1.7-3.2-2.6-1.5a156,156,0,0,0-9.6,22.7c-.6,1.8,2.3,2.6,2.9.8Z" fill="#383E45" opacity=".1"/>
            <path d="M339.49,59.26c-1.9-13.1,14.5-16.9,23.4-21.1a106,106,0,0,0,12.9-7.9c2.1-1.4,4.2-2.8,6.4-4,2.6-1.4,5.8-3.6,8-.8,1.6,2,.9,2.5-.1,4.7-.5,1-1,2.1-1.6,3.1a35,35,0,0,1-5,7.1c-4.1,4.3-10,4.9-15.3,7a72.22,72.22,0,0,0-11.8,5.9c-4.7,3-10.6,9.7-16.6,6.3a1.5,1.5,0,0,0-1.5,2.6c5.3,3,10.3.3,14.8-2.9a75.65,75.65,0,0,1,22.4-11.1c6.5-2,10.6-5.3,14.3-11.1,2.1-3.3,6.9-10.1,3.8-14.1-2.8-3.5-8.2-1.6-11.5,0-7,3.6-13,8.8-20.1,12.3-10.7,5.2-27.7,9.4-25.5,24.9.4,1.8,3.3,1,3-.9Z" fill="#383E45" opacity=".1"/>
            <path d="M174.79,327.66c-3.1,5-1.6,11.6,3,15.3,6.8,5.4,14.1-.4,19.9-4.3,4.8-3.3,11.7-5.5,15,.9,1.5,3,2,6.5,3.4,9.6a9.28,9.28,0,0,0,4.8,5.3c4.6,2,9.1-1.5,13.8-.8,1.9.3,2.7-2.6.8-2.9-3.4-.5-6.1.7-9.4,1.2-5.6.7-7.1-3-8.5-7.4s-2.7-9.5-7.3-11.5c-5.9-2.6-11.9,1.6-16.6,4.8-3.8,2.7-8.8,6.1-13.5,3.2a8.81,8.81,0,0,1-2.8-11.8,1.53,1.53,0,0,0-2.6-1.6Z" fill="#383E45" opacity=".1"/>
            <path d="M232.39,321.76c-2,5.3,1.8,9.7,6.6,11.5,4.2,1.6,26.2,2.7,25,9.5-.3,1.9,2.5,2.7,2.9.8,2.9-15.5-37.1-6.5-31.6-21,.7-1.8-2.2-2.6-2.9-.8Z" fill="#383E45" opacity=".1"/>
            <path d="M127.49,310.76a1.5,1.5,0,0,0,0-3,1.5,1.5,0,0,0,0,3Z" fill="#3AADAA"/>
            <path d="M126.19,315.26c7.7,0,7.7-12,0-12s-7.7,12,0,12Z" fill="#3AADAA"/>
            <path d="M253.49,181.16c-6-3.9-11.1-9.4-12.8-16.6-1.6-6.7.7-14.6,6.6-18.6s13.9-2.3,20.7-2.8a48.33,48.33,0,0,0,15.9-4c22.7-9.7,36.6-31.3,53.7-47.9,8.7-8.4,19.1-16.6,31.2-19.3,11.2-2.5,26.1.2,28.9,13.3,3.3,15.3-10.9,26.6-22,34.1-12.7,8.5-25.4,16.9-38.1,25.4-13.8,9.2-27.4,18.9-41.6,27.5-13.2,8.1-29.9,14.5-44.5,5.9a1.5,1.5,0,0,0-1.5,2.6c12,7.1,26.3,5,38.4-.8,15.6-7.4,29.9-18.7,44.2-28.2,14.9-9.9,29.8-19.7,44.7-29.7,10.9-7.3,22.4-16.4,23.7-30.5,1.1-11.8-6.9-20.8-18.3-22.8-12.3-2.2-24.4,2.9-34.3,9.8-24.3,17-38.5,47.4-67,58.6a47.83,47.83,0,0,1-13.3,3.2c-4.4.3-8.8-.2-13.2.3-6.6.7-12,3.9-15.1,9.8-6.7,12.8,1.3,26.3,12.3,33.4,1.5.9,3-1.6,1.4-2.7Z" fill="#383E45" opacity=".1"/>
            <path d="M258.59,163.06c-3.1-.5-2.7-3.2-2-5,.9-2.2,2.8-3,5-3.7a48,48,0,0,1,7.6-1.1,74.83,74.83,0,0,0,16.2-4.5,113.6,113.6,0,0,0,27.5-16.7c9.5-7.6,18.1-16.1,27-24.4,8.7-8.2,18.4-18.5,31.3-18.1l-1.5-1.5c1.1,11.7-9.7,19.5-18.2,25.5-10.2,7.2-20.3,14.5-30.5,21.7-9.4,6.7-18.7,13.7-28.3,20a79.16,79.16,0,0,1-15.2,8.1c-5.2,1.9-13.3,4.8-17.6-.1-1.3-1.4-3.4.7-2.1,2.1,6.8,7.7,20.5,1.4,27.8-2.4,12.6-6.5,23.9-15.8,35.5-24,12-8.6,24.3-16.9,36.2-25.8,8.1-6.1,16.6-14.2,15.6-25.2a1.54,1.54,0,0,0-1.5-1.5c-13.5-.4-23.7,9.8-32.8,18.4-11.5,10.8-22.6,22.1-35.6,31a99.22,99.22,0,0,1-19.8,10.6c-6.8,2.6-13.6,3.4-20.7,4.8-4.1.8-8.3,2.7-9.1,7.2-.6,3.4,1,7,4.7,7.6,1.6.2,2.5-2.7.5-3Z" fill="#383E45" opacity=".1"/>
            <path d="M374.29,122.16c1.8-2.4,3.8-2.8,6-1a7.68,7.68,0,0,1,1.8,5c.1,1.8-.7,3.5-.8,5.3-.1,1.6.1,3.1,1.4,4.1,2.8,2.1,6.6-.5,8.3-2.8.8-1.1,1.5-3.2,2.6-3.9,4.4-2.9,4.1,1.3,4.9,3.1a5.75,5.75,0,0,0,2.8,3.3c4.9,2.4,8.9-2.4,11.2-6.1,1-1.6-1.6-3.1-2.6-1.5-1.5,2.3-5.3,8.5-8.8,2.9-.6-1-.5-2.5-1.1-3.6a4.9,4.9,0,0,0-3.6-2.8c-2-.2-3.7,1.1-5,2.5-1.8,1.9-6.6,10.9-6.9,3.2-.1-4.6,1-10-4.3-12.3a6.55,6.55,0,0,0-9,3.7c-.4,1.9,2.5,2.7,3.1.9Z" fill="#7C6576"/>
            <path d="M375.59,109.36a7.35,7.35,0,0,1,10.8,1.4c1.4,2.2.4,5.1,1.9,7.2a3.18,3.18,0,0,0,3.6,1.4,7.72,7.72,0,0,0,2.4-1.2c3.2-2,6-2.8,9,.4,1.3,1.4,3.4-.7,2.1-2.1a9.12,9.12,0,0,0-9.3-2.8c-1.8.6-4.5,3.3-5.5,1.3-.7-1.3-.3-3.3-.9-4.7-2.8-6-11.3-7.4-16-3-1.7,1.3.5,3.4,1.9,2.1Z" fill="#7C6576"/>
            <ellipse cx="126.69" cy="158.06" rx="62.1" ry="60.9" fill="#3AADAA"/>
            <path d="M72.89,218.36c-2.8,1.9-7.9,5.9-11.6,3.3-4.1-2.8.5-10.2,2-13.1a104.36,104.36,0,0,1,12.3-18.5c9.5-11.6,20.8-21.6,32.2-31.3,2.9-2.5-1.3-6.7-4.2-4.2-15.7,13.4-31.4,27.5-42.3,45.4-3.7,6.1-10.6,16.3-6.4,23.6,4.8,8.3,14.9,4.2,20.9.1,3.3-2.3.3-7.5-2.9-5.3Z" fill="#383E45"/>
            <path d="M130.09,139.46l27-21.9c3-2.4-1.3-6.7-4.2-4.2l-27,21.9c-3.1,2.4,1.2,6.6,4.2,4.2Z" fill="#383E45"/>
            <path d="M181.39,105.66c4.6-2.4,21.3-12.2,24.3-4.3,2.6,6.8-3.8,16.7-7.9,21.7-2.4,3,1.8,7.2,4.2,4.2,6-7.3,14-20.8,8.2-30.4-6.6-10.8-24.1-.5-31.9,3.6-3.4,1.8-.3,7,3.1,5.2Z" fill="#383E45"/>
            <path d="M97.29,189.76a290.88,290.88,0,0,1,45.4-41.9c3.1-2.3.1-7.5-3-5.2a295.85,295.85,0,0,0-46.6,42.9c-2.6,2.8,1.6,7.1,4.2,4.2Z" fill="#383E45"/>
        </g>
        <g id="group_6">
            <path d="M984.59,762.66a47.4,47.4,0,0,1-9.2,16c-1.3,1.5.9,3.6,2.1,2.1a50.88,50.88,0,0,0,10-17.3c.6-1.8-2.3-2.6-2.9-.8Z" fill="#383E45" opacity=".1"/>
            <path d="M984.39,765.16c1.4,2.6,1.7,5.7,2.9,8.5a35.43,35.43,0,0,0,4.2,7.3c1.1,1.5,3.7,0,2.6-1.5a31.14,31.14,0,0,1-4.5-8.2c-.9-2.5-1.3-5.2-2.6-7.6-.9-1.7-3.5-.2-2.6,1.5Z" fill="#383E45" opacity=".1"/>
            <path d="M975.49,780a45.32,45.32,0,0,1,5.7,12.2,1.48,1.48,0,0,0,2.7.4,27.39,27.39,0,0,1,8.9-10.5c1.6-1.1.1-3.7-1.5-2.6a31.94,31.94,0,0,0-10,11.6,25.12,25.12,0,0,1,2.7.4,50.56,50.56,0,0,0-6-12.9c-1-1.7-3.6-.2-2.5,1.4Z" fill="#383E45" opacity=".1"/>
            <path d="M794.49,670.16c-.8,6.2,4.4,10.8,10.4,11.3,10.5.7,16.8-10.7,26.6-12.5,7.3-1.3,10,4.5,13.9,9.3A17.9,17.9,0,0,0,854,684a19.15,19.15,0,0,0,19.5-5.2c1.3-1.4-.8-3.5-2.1-2.1a16,16,0,0,1-20.2,2.7c-5.7-3.6-7.2-11.4-14.1-13.3-6.2-1.7-12.4,1.8-17.2,5.3-3.1,2.3-6.2,4.8-9.9,6.1-4.6,1.6-13.4.3-12.4-6.6,0-1.8-2.8-2.6-3.1-.7Z" fill="#383E45" opacity=".1"/>
            <path d="M830.09,700.36a27.56,27.56,0,0,1,23.3-1c5.5,2.4,9.6,6.7,16,6.4,5.7-.2,10.8-3.3,15.7-6,6.1-3.3,17.9-7.6,21.1,1.9.6,1.8,3.5,1,2.9-.8-1.8-5.1-6.6-7.9-11.9-8.1-8.2-.2-14.7,5.9-22,8.6-5.6,2.1-10,1.3-15.1-1.7a35.59,35.59,0,0,0-10.3-4.7,31.38,31.38,0,0,0-21.3,2.7c-1.6,1-.1,3.5,1.6,2.7Z" fill="#383E45" opacity=".1"/>
            <path d="M713.09,875.86a31.73,31.73,0,0,1-8.9,24.1l2.4,1.8a49.25,49.25,0,0,0,6.2-12.6c.6-1.8-2.3-2.6-2.9-.8a44.08,44.08,0,0,1-5.9,11.9c-1,1.4,1.2,3,2.4,1.8a35,35,0,0,0,9.7-26.2c-.1-1.9-3.1-1.9-3,0Z" fill="#383E45" opacity=".1"/>
            <path d="M713.19,876.26a44.56,44.56,0,0,0,11.6,21.8c1.3,1.4,3.5-.7,2.1-2.1a42.48,42.48,0,0,1-10.8-20.5c-.4-1.9-3.3-1.1-2.9.8Z" fill="#383E45" opacity=".1"/>
            <path d="M703.79,904.46a73,73,0,0,1,12.9,19.1c.8,1.8,3.4.2,2.6-1.5a71.56,71.56,0,0,0-13.4-19.7c-1.3-1.5-3.4.7-2.1,2.1Z" fill="#383E45" opacity=".1"/>
            <path d="M719,923.56c3.2-7.6,6.5-15.1,9.7-22.7.8-1.8-1.8-3.3-2.6-1.5-3.2,7.6-6.5,15.1-9.7,22.7-.7,1.8,1.9,3.3,2.6,1.5Z" fill="#383E45" opacity=".1"/>
            <ellipse cx="858.59" cy="756.06" rx="58.6" ry="57.7" fill="#7C6576"/>
            <path d="M822.69,706.46c1.5-11.2,16.7-6.4,22.9-3.5a107.67,107.67,0,0,1,17.6,10.5,123.44,123.44,0,0,1,30.5,33.1,164.7,164.7,0,0,1,19.4,44.2c2,7.1,14.4,49.7-3.3,45.1-3.7-1-5.3,4.8-1.6,5.8,5.8,1.5,11.4-1.2,14.6-6.2,3.8-6,2.8-13.6,1.7-20.2a202.48,202.48,0,0,0-13.3-47.7c-11.8-28.1-31.7-53.6-59.1-67.9-7-3.6-15.2-7.6-23.3-5.9a14.74,14.74,0,0,0-12.2,12.8c-.4,3.8,5.6,3.7,6.1-.1Z" fill="#383E45"/>
            <path d="M890.79,762.86a91.19,91.19,0,0,1,14.8,53c-.1,3.9,5.9,3.9,6,0a95.66,95.66,0,0,0-15.6-56c-2.1-3.3-7.3-.3-5.2,3Z" fill="#383E45"/>
            <path d="M835,685.66a45.57,45.57,0,0,1,27,13.2c2.7,2.7,7-1.5,4.2-4.2a51.66,51.66,0,0,0-31.2-15c-3.8-.4-3.8,5.6,0,6Z" fill="#383E45"/>
        </g>
    </svg>
</svg>
