<svg width="50" height="50" viewBox="0 0 50 50" xmlns="http://www.w3.org/2000/svg"><g clip-path="url(#o_icon_website__a)"><path d="M26 34.5s-.83-2-.997-2.167c20.502-9.84 23.518-3.54 23.94-.955.068.418.005.843-.124 1.247A24.856 24.856 0 0 1 47 36.89c-1.5 1.5-10 1.61-10 1.61l-11-4Z" fill="var(--o-icons-purple-cyan, #102E7A)"/><path d="M26 34.5s-.83-2-.997-2.167c20.502-9.84 23.518-3.54 23.94-.955.068.418.005.843-.124 1.247A24.856 24.856 0 0 1 47 36.89c-1.5 1.5-10 1.61-10 1.61l-11-4Z" fill="url(#o_icon_website__b)" fill-opacity=".3"/><path d="m21 14 4.003 3.667c-20.502 9.84-23.518 3.54-23.94.955-.068-.418-.005-.843.124-1.247a24.842 24.842 0 0 1 1.428-3.514C6.712 5.644 14.5 11 14.5 11l6.5 3Z" fill="var(--o-icons-red-teal, #006158)"/><path d="m21 14 4.003 3.667c-20.502 9.84-23.518 3.54-23.94.955-.068-.418-.005-.843.124-1.247a24.842 24.842 0 0 1 1.428-3.514C6.712 5.644 14.5 11 14.5 11l6.5 3Z" fill="url(#o_icon_website__c)" fill-opacity=".2"/><path d="M1.187 32.625c-.129-.404-.192-.829-.124-1.247.422-2.586 3.438-8.886 23.94.955 14.197 6.815 20.01 5.89 22.382 3.818C43.286 44.36 34.803 50 25.003 50 13.855 50 4.411 42.703 1.187 32.625Z" fill="var(--o-icons-cyan-pure, #1BB6F9)"/><path d="M1.187 32.625c-.129-.404-.192-.829-.124-1.247.422-2.586 3.438-8.886 23.94.955 14.197 6.815 20.01 5.89 22.382 3.818C43.286 44.36 34.803 50 25.003 50 13.855 50 4.411 42.703 1.187 32.625Z" fill="url(#o_icon_website__d)" fill-opacity=".2"/><path d="M48.819 17.375c.129.404.192.829.124 1.247-.422 2.586-3.438 8.886-23.94-.955-14.197-6.815-20.01-5.89-22.382-3.818C6.72 5.64 15.203 0 25.003 0 36.15 0 45.594 7.297 48.819 17.375Z" fill="var(--o-icons-teal-pure, #00CEB3)"/><path d="M48.819 17.375c.129.404.192.829.124 1.247-.422 2.586-3.438 8.886-23.94-.955-14.197-6.815-20.01-5.89-22.382-3.818C6.72 5.64 15.203 0 25.003 0 36.15 0 45.594 7.297 48.819 17.375Z" fill="url(#o_icon_website__e)" fill-opacity=".2"/></g><defs><linearGradient id="o_icon_website__b" x1="25.003" y1="27" x2="48.586" y2="39.306" gradientUnits="userSpaceOnUse"><stop stop-color="#fff"/><stop offset="1" stop-color="#fff" stop-opacity="0"/></linearGradient><linearGradient id="o_icon_website__c" x1="25.003" y1="23" x2="-.18" y2="11.982" gradientUnits="userSpaceOnUse"><stop stop-color="#fff"/><stop offset="1" stop-color="#fff" stop-opacity="0"/></linearGradient><linearGradient id="o_icon_website__d" x1="1" y1="27" x2="47.229" y2="50.308" gradientUnits="userSpaceOnUse"><stop stop-color="#fff"/><stop offset="1" stop-color="#fff" stop-opacity="0"/></linearGradient><linearGradient id="o_icon_website__e" x1="49.006" y1="23" x2="2.776" y2="-.308" gradientUnits="userSpaceOnUse"><stop stop-color="#fff"/><stop offset="1" stop-color="#fff" stop-opacity="0"/></linearGradient><clipPath id="o_icon_website__a"><path fill="#fff" d="M0 0h50v50H0z"/></clipPath></defs></svg>
