<svg width="70" height="70" viewBox="0 0 70 70" fill="none" xmlns="http://www.w3.org/2000/svg">
<path d="M36.0001 44.5C36.0001 44.5 35.1694 42.5 35.0029 42.3333C55.5053 32.4922 58.5212 38.7924 58.9428 41.3778C59.0111 41.7963 58.9481 42.2208 58.8189 42.6247C58.3432 44.1117 57.7322 45.5381 57.0002 46.8896C55.5 48.3897 47.0002 48.5 47.0002 48.5L36.0001 44.5Z" fill="#144496"/>
<path d="M30.9998 24L35.0029 27.6667C14.5006 37.5078 11.4846 31.2076 11.063 28.6222C10.9948 28.2037 11.0578 27.7792 11.187 27.3753C11.5754 26.1609 12.0543 24.9868 12.6155 23.861C16.7116 15.6444 24.5 21 24.5 21L30.9998 24Z" fill="#1A6F66"/>
<path d="M11.1873 42.6252C11.0581 42.2214 10.995 41.7963 11.0632 41.3778C11.4848 38.7924 14.5008 32.4922 35.0031 42.3333C49.2004 49.148 55.0126 48.2227 57.3848 46.1506C53.2864 54.361 44.8033 60 35.0031 60C23.8551 60 14.4114 52.7033 11.1873 42.6252Z" fill="#2EBCFA"/>
<path d="M58.8185 27.3748C58.9477 27.7786 59.0109 28.2037 58.9426 28.6222C58.521 31.2076 55.5051 37.5078 35.0028 27.6667C20.8055 20.852 14.9932 21.7773 12.6211 23.8494C16.7194 15.639 25.2026 10 35.0028 10C46.1507 10 55.5945 17.2967 58.8185 27.3748Z" fill="#1AD3BB"/>
</svg>
