<svg width="50" height="50" xmlns="http://www.w3.org/2000/svg"><path d="M25 50c13.807 0 25-11.193 25-25a24.9 24.9 0 0 0-2.276-10.435C45 12.5 41.07 10.5 38 10.5c-13.807 0-27 13.693-27 27.5 0 3.725 2.5 7.5 5.276 10.435A24.947 24.947 0 0 0 25 50Z" fill="var(--o-icons-cyan-pure, #1BB6F9)"/><path d="M25 50c13.807 0 25-11.193 25-25a24.9 24.9 0 0 0-2.276-10.435C45 12.5 41.07 10.5 38 10.5c-13.807 0-27 13.693-27 27.5 0 3.725 2.5 7.5 5.276 10.435A24.947 24.947 0 0 0 25 50Z" fill="url(#o_icon_website__a)" fill-opacity=".2"/><path d="M16.276 48.435A24.907 24.907 0 0 1 14 38c0-13.807 11.193-25 25-25 3.069 0 6.008.553 8.724 1.565a24.94 24.94 0 0 0-1.594-2.933C42.5 8 36.44 4 30.5 4c-13.531 0-26 12.969-26 26.5 0 5.94 3 11.5 7.132 15.63a24.912 24.912 0 0 0 4.644 2.305Z" fill="var(--o-icons-cyan-cyan, #0382F3)"/><path d="M16.276 48.435A24.907 24.907 0 0 1 14 38c0-13.807 11.193-25 25-25 3.069 0 6.008.553 8.724 1.565a24.94 24.94 0 0 0-1.594-2.933C42.5 8 36.44 4 30.5 4c-13.531 0-26 12.969-26 26.5 0 5.94 3 11.5 7.132 15.63a24.912 24.912 0 0 0 4.644 2.305Z" fill="url(#o_icon_website__b)" fill-opacity=".2"/><path d="M46.13 11.632C41.697 4.641 33.89 0 25 0 11.193 0 0 11.193 0 25c0 8.89 4.64 16.697 11.632 21.13A24.4 24.4 0 0 1 6 30.5C6 16.969 16.969 6 30.5 6a24.4 24.4 0 0 1 15.63 5.632Z" fill="var(--o-icons-purple-cyan, #102E7A)"/><path d="M46.13 11.632C41.697 4.641 33.89 0 25 0 11.193 0 0 11.193 0 25c0 8.89 4.64 16.697 11.632 21.13A24.4 24.4 0 0 1 6 30.5C6 16.969 16.969 6 30.5 6a24.4 24.4 0 0 1 15.63 5.632Z" fill="url(#o_icon_website__c)" fill-opacity=".3"/><defs><linearGradient id="o_icon_website__a" x1="11" y1="10.5" x2="56.95" y2="21.842" gradientUnits="userSpaceOnUse"><stop stop-color="#fff"/><stop offset="1" stop-color="#fff" stop-opacity="0"/></linearGradient><linearGradient id="o_icon_website__b" x1="4.5" y1="4" x2="55.514" y2="16.406" gradientUnits="userSpaceOnUse"><stop stop-color="#fff"/><stop offset="1" stop-color="#fff" stop-opacity="0"/></linearGradient><linearGradient id="o_icon_website__c" x1="0" y1="0" x2="54.27" y2="13.568" gradientUnits="userSpaceOnUse"><stop stop-color="#fff"/><stop offset="1" stop-color="#fff" stop-opacity="0"/></linearGradient></defs></svg>
