<svg width="1408" height="694" viewBox="0 0 1408 694" fill="none" xmlns="http://www.w3.org/2000/svg">
<g clip-path="url(#clip0_2133_160)">
<rect width="1408" height="694" rx="32" fill="url(#paint0_linear_2133_160)"/>
<g clip-path="url(#clip1_2133_160)">
<g opacity="0.3" clip-path="url(#clip2_2133_160)">
<g clip-path="url(#clip3_2133_160)">
<path d="M356.462 674.053C353.888 671.48 353.887 668.9 356.457 666.329C353.887 668.9 351.307 668.898 348.734 666.325C351.307 668.898 351.309 671.478 348.738 674.049C351.309 671.478 353.888 671.48 356.462 674.053ZM349.506 667.098C351.57 669.161 353.624 669.162 355.686 667.101C353.624 669.162 353.626 671.217 355.689 673.28C353.626 671.217 351.571 671.216 349.51 673.277C351.571 671.216 351.57 669.161 349.506 667.098Z" fill="#375DFB"/>
<path d="M395.06 635.455C392.487 632.881 392.485 630.301 395.056 627.73C392.485 630.301 389.906 630.3 387.332 627.726C389.906 630.3 389.907 632.88 387.336 635.45C389.907 632.88 392.487 632.881 395.06 635.455ZM388.105 628.499C390.168 630.563 392.223 630.564 394.284 628.502C392.223 630.564 392.224 632.618 394.288 634.682C392.224 632.618 390.17 632.617 388.108 634.678C390.17 632.617 390.168 630.563 388.105 628.499Z" fill="#375DFB"/>
<path d="M434.475 674.869C431.383 671.777 431.381 668.688 434.469 665.6C431.381 668.688 428.292 668.686 425.201 665.595C428.292 668.686 428.294 671.776 425.206 674.864C428.294 671.776 431.383 671.777 434.475 674.869ZM426.128 666.522C428.601 668.995 431.073 668.997 433.543 666.526C431.073 668.997 431.074 671.468 433.547 673.941C431.074 671.468 428.602 671.467 426.132 673.937C428.602 671.467 428.601 668.995 426.128 666.522Z" fill="#375DFB"/>
<path d="M433.659 596.856C431.085 594.282 431.084 591.703 433.655 589.132C431.084 591.703 428.504 591.701 425.931 589.128C428.504 591.701 428.506 594.281 425.935 596.852C428.506 594.281 431.085 594.282 433.659 596.856ZM426.703 589.901C428.767 591.964 430.821 591.965 432.883 589.904C430.821 591.965 430.823 594.02 432.886 596.083C430.823 594.02 428.768 594.019 426.707 596.08C428.768 594.019 428.767 591.964 426.703 589.901Z" fill="#375DFB"/>
<path d="M473.073 636.27C469.982 633.179 469.98 630.089 473.068 627.001C469.98 630.089 466.89 630.088 463.799 626.996C466.89 630.088 466.892 633.177 463.804 636.265C466.892 633.177 469.982 633.179 473.073 636.27ZM464.727 627.924C467.2 630.397 469.671 630.398 472.142 627.928C469.671 630.398 469.673 632.87 472.146 635.343C469.673 632.87 467.201 632.868 464.731 635.339C467.201 632.868 467.2 630.397 464.727 627.924Z" fill="#375DFB"/>
<path d="M512.487 675.684C508.878 672.075 508.876 668.476 512.481 664.871C508.876 668.476 505.277 668.474 501.668 664.865C505.277 668.474 505.279 672.073 501.674 675.678C505.279 672.073 508.878 672.075 512.487 675.684ZM502.75 665.947C505.632 668.829 508.521 668.831 511.4 665.952C508.521 668.831 508.523 671.72 511.405 674.602C508.523 671.72 505.634 671.718 502.754 674.598C505.634 671.718 505.632 668.829 502.75 665.947Z" fill="#375DFB"/>
<path d="M472.257 558.257C469.684 555.684 469.683 553.104 472.253 550.533C469.683 553.104 467.103 553.103 464.529 550.529C467.103 553.103 467.104 555.683 464.533 558.253C467.104 555.683 469.684 555.684 472.257 558.257ZM465.302 551.302C467.365 553.365 469.42 553.367 471.481 551.305C469.42 553.367 469.421 555.421 471.485 557.485C469.421 555.421 467.367 555.42 465.305 557.481C467.367 555.42 467.365 553.365 465.302 551.302Z" fill="#375DFB"/>
<path d="M511.672 597.672C508.58 594.58 508.579 591.491 511.666 588.403C508.579 591.491 505.489 591.489 502.398 588.398C505.489 591.489 505.491 594.579 502.403 597.666C505.491 594.579 508.58 594.58 511.672 597.672ZM503.325 589.325C505.798 591.798 508.27 591.8 510.74 589.329C508.27 591.8 508.271 594.271 510.744 596.744C508.271 594.271 505.799 594.27 503.329 596.74C505.799 594.27 505.798 591.798 503.325 589.325Z" fill="#375DFB"/>
<path d="M551.086 637.086C547.477 633.477 547.475 629.877 551.08 626.272C547.475 629.877 543.875 629.875 540.266 626.266C543.875 629.875 543.877 633.475 540.272 637.08C543.877 633.475 547.477 633.477 551.086 637.086ZM541.348 627.348C544.231 630.231 547.12 630.232 549.999 627.353C547.12 630.232 547.121 633.121 550.004 636.004C547.121 633.121 544.232 633.12 541.353 635.999C544.232 633.12 544.231 630.231 541.348 627.348Z" fill="#375DFB"/>
<path d="M590.5 676.5C586.381 672.381 586.379 668.256 590.493 664.142C586.379 668.256 582.254 668.254 578.135 664.135C582.254 668.254 582.256 672.379 578.142 676.493C582.256 672.379 586.381 672.381 590.5 676.5ZM579.371 665.371C582.671 668.671 585.962 668.673 589.258 665.377C585.962 668.673 585.963 671.964 589.263 675.263C585.963 671.964 582.673 671.962 579.377 675.258C582.673 671.962 582.671 668.671 579.371 665.371Z" fill="#375DFB"/>
<path d="M510.856 519.659C508.282 517.085 508.281 514.506 510.852 511.935C508.281 514.506 505.701 514.504 503.128 511.931C505.701 514.504 505.703 517.084 503.132 519.655C505.703 517.084 508.282 517.085 510.856 519.659ZM503.9 512.703C505.964 514.767 508.019 514.768 510.08 512.707C508.019 514.768 508.02 516.823 510.083 518.886C508.02 516.823 505.965 516.822 503.904 518.883C505.965 516.822 505.964 514.767 503.9 512.703Z" fill="#375DFB"/>
<path d="M550.27 559.073C547.179 555.982 547.177 552.892 550.265 549.804C547.177 552.892 544.087 552.89 540.996 549.799C544.087 552.89 544.089 555.98 541.001 559.068C544.089 555.98 547.179 555.982 550.27 559.073ZM541.924 550.727C544.397 553.2 546.868 553.201 549.339 550.731C546.868 553.201 546.87 555.673 549.343 558.146C546.87 555.673 544.398 555.671 541.928 558.142C544.398 555.671 544.397 553.2 541.924 550.727Z" fill="#375DFB"/>
<path d="M589.684 598.487C586.075 594.878 586.073 591.279 589.678 587.674C586.073 591.279 582.474 591.277 578.865 587.668C582.474 591.277 582.476 594.876 578.871 598.481C582.476 594.876 586.075 594.878 589.684 598.487ZM579.947 588.75C582.829 591.632 585.718 591.634 588.598 588.755C585.718 591.634 585.72 594.523 588.602 597.405C585.72 594.523 582.831 594.521 579.951 597.401C582.831 594.521 582.829 591.632 579.947 588.75Z" fill="#375DFB"/>
<path d="M549.454 481.06C546.881 478.487 546.879 475.907 549.45 473.336C546.879 475.907 544.3 475.906 541.726 473.332C544.3 475.906 544.301 478.485 541.73 481.056C544.301 478.485 546.881 478.487 549.454 481.06ZM542.499 474.105C544.562 476.168 546.617 476.17 548.678 474.108C546.617 476.17 546.618 478.224 548.682 480.288C546.618 478.224 544.564 478.223 542.502 480.284C544.564 478.223 544.562 476.168 542.499 474.105Z" fill="#375DFB"/>
<path d="M588.869 520.475C585.777 517.383 585.776 514.294 588.864 511.206C585.776 514.294 582.686 514.292 579.595 511.201C582.686 514.292 582.688 517.382 579.6 520.469C582.688 517.382 585.777 517.383 588.869 520.475ZM580.522 512.128C582.995 514.601 585.467 514.602 587.937 512.132C585.467 514.602 585.468 517.074 587.941 519.547C585.468 517.074 582.997 517.073 580.526 519.543C582.997 517.073 582.995 514.601 580.522 512.128Z" fill="#375DFB"/>
<path d="M588.053 442.462C585.48 439.888 585.478 437.308 588.049 434.738C585.478 437.308 582.898 437.307 580.325 434.734C582.898 437.307 582.9 439.887 580.329 442.458C582.9 439.887 585.48 439.888 588.053 442.462ZM581.098 435.506C583.161 437.57 585.216 437.571 587.277 435.51C585.216 437.571 585.217 439.626 587.28 441.689C585.217 439.626 583.162 439.624 581.101 441.686C583.162 439.624 583.161 437.57 581.098 435.506Z" fill="#375DFB"/>
<path d="M317.455 673.645C315.137 671.327 315.136 669.01 317.452 666.694C315.136 669.01 312.818 669.008 310.5 666.69C312.818 669.008 312.82 671.325 310.504 673.641C312.82 671.325 315.137 671.327 317.455 673.645ZM311.196 667.385C313.05 669.24 314.904 669.241 316.757 667.388C314.904 669.241 314.905 671.095 316.76 672.95C314.905 671.095 313.051 671.094 311.199 672.947C313.051 671.094 313.05 669.24 311.196 667.385Z" fill="#375DFB"/>
<path d="M356.054 635.047C353.736 632.728 353.734 630.411 356.05 628.095C353.734 630.411 351.417 630.41 349.099 628.091C351.417 630.41 351.418 632.727 349.102 635.043C351.418 632.727 353.736 632.728 356.054 635.047ZM349.794 628.787C351.649 630.642 353.503 630.643 355.355 628.79C353.503 630.643 353.504 632.496 355.358 634.351C353.504 632.496 351.65 632.495 349.797 634.348C351.65 632.495 351.649 630.642 349.794 628.787Z" fill="#375DFB"/>
<path d="M395.468 674.461C392.632 671.625 392.63 668.798 395.463 665.964C392.63 668.798 389.803 668.796 386.967 665.96C389.803 668.796 389.805 671.623 386.972 674.456C389.805 671.623 392.632 671.625 395.468 674.461ZM387.817 666.81C390.082 669.074 392.352 669.076 394.614 666.814C392.352 669.076 392.354 671.346 394.618 673.611C392.354 671.346 390.083 671.345 387.821 673.607C390.083 671.345 390.082 669.074 387.817 666.81Z" fill="#375DFB"/>
<path d="M394.653 596.448C392.334 594.13 392.333 591.813 394.649 589.497C392.333 591.813 390.016 591.811 387.697 589.493C390.016 591.811 390.017 594.128 387.701 596.444C390.017 594.128 392.334 594.13 394.653 596.448ZM388.393 590.188C390.247 592.043 392.101 592.044 393.954 590.191C392.101 592.044 392.102 593.898 393.957 595.753C392.102 593.898 390.248 593.897 388.396 595.75C390.248 593.897 390.247 592.043 388.393 590.188Z" fill="#375DFB"/>
<path d="M434.067 635.862C431.23 633.026 431.229 630.199 434.062 627.366C431.229 630.199 428.402 630.198 425.566 627.361C428.402 630.198 428.403 633.024 425.57 635.858C428.403 633.024 431.23 633.026 434.067 635.862ZM426.416 628.211C428.68 630.476 430.951 630.477 433.213 628.215C430.951 630.477 430.952 632.748 433.217 635.012C430.952 632.748 428.681 632.747 426.419 635.008C428.681 632.747 428.68 630.476 426.416 628.211Z" fill="#375DFB"/>
<path d="M473.481 675.277C470.135 671.93 470.133 668.578 473.475 665.235C470.133 668.578 466.78 668.576 463.434 665.23C466.78 668.576 466.782 671.928 463.44 675.271C466.782 671.928 470.135 671.93 473.481 675.277ZM464.439 666.235C467.121 668.916 469.793 668.918 472.472 666.239C469.793 668.918 469.794 671.59 472.476 674.272C469.794 671.59 467.122 671.589 464.443 674.267C467.122 671.589 467.121 668.916 464.439 666.235Z" fill="#375DFB"/>
<path d="M433.251 557.85C430.933 555.531 430.931 553.214 433.247 550.898C430.931 553.214 428.614 553.213 426.296 550.894C428.614 553.213 428.615 555.53 426.299 557.846C428.615 555.53 430.933 555.531 433.251 557.85ZM426.991 551.59C428.846 553.444 430.7 553.446 432.552 551.593C430.7 553.446 430.701 555.299 432.556 557.154C430.701 555.299 428.847 555.298 426.994 557.151C428.847 555.298 428.846 553.444 426.991 551.59Z" fill="#375DFB"/>
<path d="M472.665 597.264C469.829 594.428 469.827 591.601 472.661 588.767C469.827 591.601 467 591.599 464.164 588.763C467 591.599 467.002 594.426 464.169 597.259C467.002 594.426 469.829 594.428 472.665 597.264ZM465.014 589.613C467.279 591.877 469.549 591.879 471.811 589.617C469.549 591.879 469.551 594.149 471.815 596.414C469.551 594.149 467.28 594.148 465.018 596.41C467.28 594.148 467.279 591.877 465.014 589.613Z" fill="#375DFB"/>
<path d="M512.079 636.678C508.733 633.332 508.731 629.979 512.074 626.637C508.731 629.979 505.379 629.978 502.033 626.631C505.379 629.978 505.381 633.33 502.038 636.672C505.381 633.33 508.733 633.332 512.079 636.678ZM503.037 627.636C505.719 630.318 508.392 630.319 511.07 627.64C508.392 630.319 508.393 632.992 511.075 635.673C508.393 632.992 505.721 632.99 503.042 635.669C505.721 632.99 505.719 630.318 503.037 627.636Z" fill="#375DFB"/>
<path d="M551.494 676.092C547.629 672.228 547.627 668.366 551.487 664.506C547.627 668.366 543.765 668.364 539.901 664.5C543.765 668.364 543.767 672.226 539.908 676.086C543.767 672.226 547.629 672.228 551.494 676.092ZM541.06 665.659C544.152 668.75 547.241 668.752 550.329 665.664C547.241 668.752 547.243 671.842 550.334 674.933C547.243 671.842 544.153 671.84 541.066 674.928C544.153 671.84 544.152 668.75 541.06 665.659Z" fill="#375DFB"/>
<path d="M471.85 519.251C469.531 516.933 469.53 514.615 471.846 512.299C469.53 514.615 467.213 514.614 464.894 512.296C467.213 514.614 467.214 516.931 464.898 519.247C467.214 516.931 469.531 516.933 471.85 519.251ZM465.59 512.991C467.444 514.846 469.298 514.847 471.151 512.994C469.298 514.847 469.299 516.701 471.154 518.556C469.299 516.701 467.445 516.7 465.593 518.552C467.445 516.7 467.444 514.846 465.59 512.991Z" fill="#375DFB"/>
<path d="M511.264 558.665C508.428 555.829 508.426 553.002 511.259 550.169C508.426 553.002 505.599 553 502.763 550.164C505.599 553 505.601 555.827 502.767 558.661C505.601 555.827 508.428 555.829 511.264 558.665ZM503.613 551.014C505.877 553.279 508.148 553.28 510.41 551.018C508.148 553.28 508.149 555.551 510.414 557.815C508.149 555.551 505.878 555.55 503.617 557.811C505.878 555.55 505.877 553.279 503.613 551.014Z" fill="#375DFB"/>
<path d="M550.678 598.079C547.332 594.733 547.33 591.381 550.672 588.038C547.33 591.381 543.978 591.379 540.631 588.033C543.978 591.379 543.979 594.731 540.637 598.074C543.979 594.731 547.332 594.733 550.678 598.079ZM541.636 589.037C544.318 591.719 546.99 591.721 549.669 589.042C546.99 591.721 546.992 594.393 549.673 597.075C546.992 594.393 544.319 594.392 541.64 597.07C544.319 594.392 544.318 591.719 541.636 589.037Z" fill="#375DFB"/>
<path d="M590.092 637.494C586.228 633.63 586.226 629.768 590.086 625.908C586.226 629.768 582.364 629.765 578.5 625.901C582.364 629.765 582.366 633.627 578.506 637.487C582.366 633.627 586.228 633.63 590.092 637.494ZM579.659 627.061C582.75 630.152 585.84 630.154 588.928 627.066C585.84 630.154 585.842 633.243 588.933 636.334C585.842 633.243 582.752 633.241 579.664 636.329C582.752 633.241 582.75 630.152 579.659 627.061Z" fill="#375DFB"/>
<path d="M510.448 480.653C508.13 478.334 508.128 476.017 510.444 473.701C508.128 476.017 505.811 476.016 503.493 473.697C505.811 476.016 505.812 478.333 503.497 480.649C505.812 478.333 508.13 478.334 510.448 480.653ZM504.188 474.393C506.043 476.247 507.897 476.248 509.749 474.396C507.897 476.248 507.898 478.102 509.753 479.957C507.898 478.102 506.044 478.101 504.191 479.954C506.044 478.101 506.043 476.247 504.188 474.393Z" fill="#375DFB"/>
<path d="M549.862 520.067C547.026 517.231 547.024 514.403 549.858 511.57C547.024 514.403 544.197 514.402 541.361 511.566C544.197 514.402 544.199 517.229 541.366 520.062C544.199 517.229 547.026 517.231 549.862 520.067ZM542.211 512.416C544.476 514.68 546.747 514.681 549.008 512.42C546.747 514.681 546.748 516.952 549.012 519.217C546.748 516.952 544.477 516.951 542.215 519.213C544.477 516.951 544.476 514.68 542.211 512.416Z" fill="#375DFB"/>
<path d="M589.276 559.481C585.93 556.135 585.928 552.782 589.271 549.44C585.928 552.782 582.576 552.781 579.23 549.434C582.576 552.781 582.578 556.133 579.235 559.475C582.578 556.133 585.93 556.135 589.276 559.481ZM580.234 550.439C582.916 553.121 585.589 553.122 588.267 550.443C585.589 553.122 585.59 555.795 588.272 558.476C585.59 555.795 582.918 555.793 580.239 558.472C582.918 555.793 582.916 553.121 580.234 550.439Z" fill="#375DFB"/>
<path d="M549.047 442.054C546.728 439.735 546.727 437.418 549.043 435.102C546.727 437.418 544.41 437.417 542.091 435.099C544.41 437.417 544.411 439.734 542.095 442.05C544.411 439.734 546.728 439.735 549.047 442.054ZM542.787 435.794C544.642 437.649 546.495 437.65 548.348 435.797C546.495 437.65 546.496 439.504 548.351 441.358C546.496 439.504 544.643 439.503 542.79 441.355C544.643 439.503 544.642 437.649 542.787 435.794Z" fill="#375DFB"/>
<path d="M588.461 481.468C585.625 478.632 585.623 475.805 588.456 472.972C585.623 475.805 582.796 475.803 579.96 472.967C582.796 475.803 582.798 478.63 579.964 481.464C582.798 478.63 585.625 478.632 588.461 481.468ZM580.81 473.817C583.074 476.082 585.345 476.083 587.607 473.821C585.345 476.083 585.346 478.354 587.611 480.618C585.346 478.354 583.075 478.352 580.814 480.614C583.075 478.352 583.074 476.082 580.81 473.817Z" fill="#375DFB"/>
<path d="M587.645 403.455C585.327 401.137 585.325 398.82 587.641 396.504C585.325 398.82 583.008 398.818 580.69 396.5C583.008 398.818 583.01 401.136 580.694 403.452C583.01 401.136 585.327 401.137 587.645 403.455ZM581.385 397.196C583.24 399.05 585.094 399.051 586.947 397.199C585.094 399.051 585.095 400.905 586.95 402.76C585.095 400.905 583.241 400.904 581.388 402.757C583.241 400.904 583.24 399.05 581.385 397.196Z" fill="#375DFB"/>
</g>
</g>
</g>
<rect x="0.5" y="0.5" width="1407" height="693" rx="31.5" stroke="#D6E0FF"/>
</g>
<defs>
<linearGradient id="paint0_linear_2133_160" x1="704" y1="0" x2="704" y2="694" gradientUnits="userSpaceOnUse">
<stop stop-color="#E5EEFF"/>
<stop offset="1" stop-color="#F9FBFF"/>
</linearGradient>
<clipPath id="clip0_2133_160">
<rect width="1408" height="694" rx="32" fill="white"/>
</clipPath>
<clipPath id="clip1_2133_160">
<rect width="281" height="281" fill="white" transform="translate(311 397)"/>
</clipPath>
<clipPath id="clip2_2133_160">
<rect width="281" height="281" fill="white" transform="translate(310.5 396.5)"/>
</clipPath>
<clipPath id="clip3_2133_160">
<rect width="281" height="281" fill="white" transform="translate(310.5 396.5)"/>
</clipPath>
</defs>
</svg>
