<svg width="36" height="36" viewBox="0 0 36 36" fill="none" xmlns="http://www.w3.org/2000/svg">
<g clip-path="url(#clip0_48_635)">
<path d="M15.5549 16.005L18.4799 17.685L20.7299 13.785L17.8199 12.105C17.9399 11.58 17.9999 11.04 17.9999 10.485C17.9999 9.93 17.9249 9.39 17.8199 8.865L20.7299 7.185L18.4799 3.285L15.5549 4.965C14.7599 4.23 13.7999 3.69 12.7499 3.36V0H8.24991V3.39C7.19991 3.72 6.23991 4.275 5.44491 4.995L2.51991 3.315L0.284912 7.215L3.19491 8.895C3.07491 9.42 3.01491 9.96 3.01491 10.515C3.01491 11.07 3.08991 11.61 3.19491 12.135L0.284912 13.785L2.53491 17.685L5.45991 16.005C6.25491 16.74 7.21491 17.28 8.26491 17.61V21H12.7649V17.61C13.8149 17.28 14.7749 16.725 15.5699 16.005H15.5549ZM10.4999 7.5C12.1499 7.5 13.4999 8.85 13.4999 10.5C13.4999 12.15 12.1499 13.5 10.4999 13.5C8.84991 13.5 7.49991 12.15 7.49991 10.5C7.49991 8.85 8.84991 7.5 10.4999 7.5ZM32.9999 25.5C32.9999 24.945 32.9249 24.405 32.8199 23.88L35.7299 22.2L33.4799 18.3L30.5549 19.98C29.7599 19.245 28.7999 18.705 27.7499 18.375V14.985H23.2499V18.375C22.1999 18.705 21.2399 19.26 20.4449 19.98L17.5199 18.3L15.2699 22.2L18.1799 23.88C18.0599 24.405 17.9999 24.945 17.9999 25.5C17.9999 26.055 18.0749 26.595 18.1799 27.12L15.2699 28.8L17.5199 32.7L20.4449 31.02C21.2399 31.755 22.1999 32.295 23.2499 32.625V36.015H27.7499V32.625C28.7999 32.295 29.7599 31.74 30.5549 31.02L33.4799 32.7L35.7299 28.8L32.8199 27.12C32.9399 26.595 32.9999 26.055 32.9999 25.5ZM25.4999 28.5C23.8499 28.5 22.4999 27.15 22.4999 25.5C22.4999 23.85 23.8499 22.5 25.4999 22.5C27.1499 22.5 28.4999 23.85 28.4999 25.5C28.4999 27.15 27.1499 28.5 25.4999 28.5Z" fill="white"/>
</g>
<defs>
<clipPath id="clip0_48_635">
<rect width="36" height="36" fill="white"/>
</clipPath>
</defs>
</svg>
