<svg width="36" height="36" viewBox="0 0 36 36" fill="none" xmlns="http://www.w3.org/2000/svg">
<g id="puzzle-piece 1" clip-path="url(#clip0_226_336)">
<path id="Vector" d="M30 15.75C28.9888 15.7847 27.9837 15.9214 27 16.158V13.5C27 12.3065 26.5259 11.1619 25.682 10.318C24.8381 9.47411 23.6935 9 22.5 9H19.092C19.3296 8.01646 19.4663 7.01126 19.5 6C19.5 4.4087 18.8679 2.88258 17.7426 1.75736C16.6174 0.632141 15.0913 0 13.5 0C11.9087 0 10.3826 0.632141 9.25736 1.75736C8.13214 2.88258 7.5 4.4087 7.5 6C7.53374 7.01126 7.67045 8.01646 7.908 9H4.5C3.30653 9 2.16193 9.47411 1.31802 10.318C0.474106 11.1619 0 12.3065 0 13.5L0 36H9.804L9.45 34.5C9.19694 33.5182 9.04614 32.5128 9 31.5C9 30.3065 9.47411 29.1619 10.318 28.318C11.1619 27.4741 12.3065 27 13.5 27C14.6935 27 15.8381 27.4741 16.682 28.318C17.5259 29.1619 18 30.3065 18 31.5C17.9539 32.5128 17.8031 33.5182 17.55 34.5L17.1945 36H27V27.342C27.9837 27.5786 28.9888 27.7153 30 27.75C31.5913 27.75 33.1174 27.1179 34.2426 25.9926C35.3679 24.8674 36 23.3413 36 21.75C36 20.1587 35.3679 18.6326 34.2426 17.5074C33.1174 16.3821 31.5913 15.75 30 15.75Z" fill="white"/>
</g>
<defs>
<clipPath id="clip0_226_336">
<rect width="36" height="36" fill="white"/>
</clipPath>
</defs>
</svg>
