<?xml version="1.0" encoding="UTF-8"?>
<svg version="1.1" xmlns="http://www.w3.org/2000/svg" width="48" height="48">
<path d="M0 0 C15.84 0 31.68 0 48 0 C48 15.84 48 31.68 48 48 C32.16 48 16.32 48 0 48 C0 32.16 0 16.32 0 0 Z " fill="#0DAE81" transform="translate(0,0)"/>
<path d="M0 0 C5.69987621 1.26663916 11.30640799 2.55896985 16.9375 4.0625 C17.92459961 4.32256836 17.92459961 4.32256836 18.93164062 4.58789062 C23.75037775 5.87518887 23.75037775 5.87518887 26 7 C26 14.59 26 22.18 26 30 C23.009375 30.99 20.01875 31.98 16.9375 33 C16.00929443 33.31324219 15.08108887 33.62648437 14.12475586 33.94921875 C13.37073486 34.19285156 12.61671387 34.43648437 11.83984375 34.6875 C11.08050537 34.93886719 10.32116699 35.19023438 9.53881836 35.44921875 C7 36 7 36 0 36 C0 24.12 0 12.24 0 0 Z " fill="#0FAF82" transform="translate(11,6)"/>
<path d="M0 0 C5.68951148 1.19779189 11.31758041 2.57283408 16.9375 4.0625 C17.60015869 4.2368457 18.26281738 4.41119141 18.94555664 4.59082031 C23.75558593 5.87779296 23.75558593 5.87779296 26 7 C26 14.59 26 22.18 26 30 C22.90625 30.99 19.8125 31.98 16.625 33 C15.65127441 33.31324219 14.67754883 33.62648437 13.67431641 33.94921875 C12.90780762 34.19285156 12.14129883 34.43648437 11.3515625 34.6875 C10.56604004 34.93886719 9.78051758 35.19023438 8.97119141 35.44921875 C7 36 7 36 5 36 C5.27514648 34.09277344 5.27514648 34.09277344 6 32 C8.75243251 30.8643601 11.21427644 30.02433908 14.0625 29.25 C16.681875 28.5075 19.30125 27.765 22 27 C22.33 21.06 22.66 15.12 23 9 C21.72382812 8.72285156 20.44765625 8.44570312 19.1328125 8.16015625 C17.46351107 7.79441043 15.7942419 7.42851738 14.125 7.0625 C12.86236328 6.78889648 12.86236328 6.78889648 11.57421875 6.50976562 C10.76855469 6.33251953 9.96289062 6.15527344 9.1328125 5.97265625 C8.38918457 5.81031494 7.64555664 5.64797363 6.87939453 5.48071289 C5 5 5 5 3 4 C3 6.31 3 8.62 3 11 C2.01 11 1.02 11 0 11 C0 7.37 0 3.74 0 0 Z " fill="#EAF8F4" transform="translate(11,6)"/>
<path d="M0 0 C0.99 0 1.98 0 3 0 C3.33 2.97 3.66 5.94 4 9 C5.65 8.67 7.3 8.34 9 8 C9 5.36 9 2.72 9 0 C9.99 0 10.98 0 12 0 C12.08131463 1.43655854 12.13933559 2.8744483 12.1875 4.3125 C12.22230469 5.11300781 12.25710937 5.91351563 12.29296875 6.73828125 C12 9 12 9 10.67578125 10.76953125 C8.08865228 12.6691714 6.11047001 12.38880875 3 12 C1.32421875 10.76953125 1.32421875 10.76953125 0 9 C-0.29296875 6.73828125 -0.29296875 6.73828125 -0.1875 4.3125 C-0.16042969 3.50425781 -0.13335938 2.69601563 -0.10546875 1.86328125 C-0.07066406 1.24839844 -0.03585938 0.63351563 0 0 Z " fill="#E6F6F1" transform="translate(18,19)"/>
<path d="M0 0 C0.99 0 1.98 0 3 0 C3 7.59 3 15.18 3 23 C2.01 23 1.02 23 0 23 C0 15.41 0 7.82 0 0 Z " fill="#FCFEFD" transform="translate(11,19)"/>
</svg>
