<svg width="700" height="2236" viewBox="0 0 700 2236" fill="none" xmlns="http://www.w3.org/2000/svg" data-vsvg="002" class="theme_clean_svg_preview">
    <defs>
        <pattern id="theme_clean_s_banner_default_image_2_id" width="1" height="1" patternunits="objectBoundingBox">
            <image width="220" height="209" preserveAspectRatio="xMidYMid slice" href="#s_banner_default_image_url"></image>
        </pattern>
        <pattern id="theme_clean_s_picture_default_image_id" width="1" height="1" patternunits="objectBoundingBox">
            <image width="700" height="246" preserveAspectRatio="xMidYMid slice" href="#s_picture_default_image_url"></image>
        </pattern>
        <pattern id="theme_clean_s_text_image_default_image_id" width="1" height="1" patternunits="objectBoundingBox">
            <image width="220" height="146" preserveAspectRatio="xMidYMid slice" href="#s_text_image_default_image_url"></image>
        </pattern>
        <pattern id="theme_clean_s_image_text_default_image_id" width="1" height="1" patternunits="objectBoundingBox">
            <image width="212" height="205" preserveAspectRatio="xMidYMid slice" href="#s_image_text_default_image_url"></image>
        </pattern>
        <pattern id="theme_clean_s_accordion_image_default_image_id" width="1" height="1" patternunits="objectBoundingBox">
            <image width="236" height="218" preserveAspectRatio="xMidYMid slice" href="#s_image_text_default_image_url"></image>
        </pattern>
        <filter id="filter_readability_theme_clean">
            <feColorMatrix in="SourceGraphic" type="saturate" values="0"></feColorMatrix>
            <feComponentTransfer>
                <feFuncR type="table" tableValues="1 0"></feFuncR>
                <feFuncG type="table" tableValues="1 0"></feFuncG>
                <feFuncB type="table" tableValues="1 0"></feFuncB>
            </feComponentTransfer>
            <feComponentTransfer>
                <feFuncR type="linear" slope="10000" intercept="-4999.5"></feFuncR>
                <feFuncG type="linear" slope="10000" intercept="-4999.5"></feFuncG>
                <feFuncB type="linear" slope="10000" intercept="-4999.5"></feFuncB>
            </feComponentTransfer>
        </filter>
    </defs>
    <rect width="700" height="2236" fill="#ACACAC"></rect>
    <g clip-path="url(#clip0_295_9)" class="theme_clean">
        <rect width="700" height="2236" fill="#FFFFFF"></rect>
        <g class="svgc_menu">
            <rect width="700" height="40" fill="#MENU_COLOR" class="svgc_menu_bg"></rect>
            <path d="M74.3992 24.826V22.621H68.7742V12.1742H66V24.826H74.3992ZM81.4362 25C82.594 25 83.636 24.7448 84.5637 24.236C85.4944 23.7286 86.2282 22.9892 86.7695 22.0208C87.3108 21.0538 87.58 19.8795 87.58 18.4994C87.58 17.1207 87.3093 15.9464 86.768 14.978C86.2282 14.011 85.4944 13.2731 84.5652 12.7643C83.636 12.2554 82.5925 12.0003 81.4347 12.0003C80.2694 12.0003 79.2228 12.2554 78.2951 12.7643C77.3689 13.2717 76.6351 14.011 76.0983 14.978C75.56 15.9464 75.2909 17.1207 75.2909 18.5008C75.2909 19.8752 75.56 21.0466 76.0983 22.015C76.5948 22.9422 77.3574 23.7121 78.2951 24.2331C79.2228 24.7434 80.2694 24.9985 81.4347 24.9985L81.4362 25ZM81.4362 22.6326C80.8148 22.6459 80.2033 22.4803 79.6799 22.1571C79.1792 21.8396 78.7928 21.3742 78.5161 20.761C78.241 20.1477 78.1026 19.3939 78.1026 18.4994C78.1026 17.6064 78.241 16.8525 78.5161 16.2378C78.7913 15.6246 79.1792 15.1592 79.6799 14.8432C80.2027 14.5198 80.8137 14.3542 81.4347 14.3677C82.1053 14.3677 82.6902 14.5257 83.1909 14.8432C83.6901 15.1592 84.078 15.626 84.3532 16.2393C84.6299 16.8525 84.7667 17.6064 84.7667 18.5008C84.7667 19.3939 84.6299 20.1477 84.3532 20.761C84.078 21.3742 83.6916 21.8396 83.1909 22.1571C82.6677 22.4807 82.0576 22.6463 81.4362 22.6326ZM95.3853 24.9985C96.4874 24.9985 97.4663 24.784 98.3203 24.3534C99.1592 23.9371 99.8573 23.2983 100.332 22.5123C100.819 21.7149 101.063 20.761 101.063 19.649V18.0543H95.5717V20.0695H98.3865L98.3805 20.2521C98.3549 20.5957 98.2752 20.9074 98.1444 21.1872L98.0346 21.3902C97.7953 21.7878 97.4382 22.1073 97.0092 22.3078C96.5641 22.5253 96.0258 22.6326 95.3988 22.6326C94.7071 22.6326 94.1057 22.4717 93.5975 22.1484C93.0892 21.8251 92.6953 21.3539 92.4186 20.7363C92.142 20.1188 92.0021 19.3692 92.0021 18.4878C92.0021 17.6064 92.1435 16.8598 92.4246 16.248C92.7073 15.6362 93.1013 15.1694 93.608 14.849C94.1335 14.5225 94.7482 14.3549 95.3732 14.3677C95.7311 14.3677 96.0589 14.4112 96.3566 14.4967C96.6528 14.5837 96.9174 14.7084 97.1505 14.8707C97.3836 15.0331 97.5806 15.2303 97.7429 15.4637C97.9053 15.6956 98.0316 15.9624 98.1219 16.2639H100.941C100.858 15.6571 100.651 15.0722 100.332 14.5431C100.018 14.0225 99.6035 13.5644 99.1112 13.1934C98.5994 12.8072 98.0219 12.5095 97.4046 12.3134C96.7348 12.1005 96.0334 11.9947 95.3281 12.0003C94.5006 11.993 93.6797 12.1422 92.9118 12.4395C92.174 12.7281 91.5079 13.1639 90.9571 13.7182C90.3797 14.3063 89.9357 15.0039 89.6535 15.7667C89.3437 16.5713 89.1888 17.486 89.1888 18.5124C89.1888 19.8462 89.449 20.9987 89.9677 21.9686C90.4526 22.9034 91.2084 23.6825 92.1435 24.2113C93.0757 24.7361 94.1553 24.9985 95.3853 24.9985ZM108.855 24.9985C110.012 24.9985 111.055 24.7448 111.984 24.236C112.913 23.7286 113.648 22.9892 114.188 22.0208C114.729 21.0538 115 19.8795 115 18.4994C115 17.1207 114.729 15.9464 114.188 14.978C113.647 14.011 112.913 13.2731 111.984 12.7643C111.055 12.2554 110.012 12.0003 108.855 12.0003C107.688 12.0003 106.641 12.2554 105.715 12.7643C104.787 13.2717 104.055 14.011 103.517 14.978C102.979 15.9464 102.709 17.1207 102.709 18.5008C102.709 19.8752 102.979 21.0466 103.517 22.015C104.055 22.9834 104.787 23.7228 105.715 24.2331C106.641 24.7434 107.688 24.9985 108.855 24.9985ZM108.855 22.6326C108.184 22.6326 107.598 22.4731 107.098 22.1571C106.599 21.8396 106.211 21.3742 105.936 20.761C105.66 20.1477 105.523 19.3939 105.523 18.4994C105.523 17.6064 105.66 16.8525 105.936 16.2378C106.211 15.6246 106.598 15.1592 107.098 14.8432C107.622 14.5195 108.233 14.3539 108.855 14.3677C109.525 14.3677 110.11 14.5257 110.609 14.8432C111.11 15.1592 111.497 15.626 111.773 16.2393C112.048 16.8525 112.187 17.6064 112.187 18.5008C112.187 19.3939 112.048 20.1477 111.773 20.761C111.497 21.3742 111.11 21.8396 110.609 22.1571C110.087 22.4804 109.476 22.646 108.855 22.6326Z" fill="#MENU_COLOR" class="svgc_invert" filter="url(#filter_readability_theme_clean)"></path>
            <rect x="207" y="14" width="44" height="12" fill="#MENU_COLOR" fill-opacity="0.4" class="svgc_invert" filter="url(#filter_readability_theme_clean)"></rect>
            <rect x="155" y="14" width="44" height="12" fill="#MENU_COLOR" fill-opacity="0.4" class="svgc_invert" filter="url(#filter_readability_theme_clean)"></rect>
            <rect x="259" y="14" width="44" height="12" fill="#MENU_COLOR" fill-opacity="0.4" class="svgc_invert" filter="url(#filter_readability_theme_clean)"></rect>
            <rect x="310" y="14" width="44" height="12" fill="#MENU_COLOR" fill-opacity="0.4" class="svgc_invert" filter="url(#filter_readability_theme_clean)"></rect>
            <rect x="362" y="14" width="44" height="12" fill="#MENU_COLOR" fill-opacity="0.4" class="svgc_invert" filter="url(#filter_readability_theme_clean)"></rect>
            <rect x="555" y="14" width="79" height="12" fill="#MENU_COLOR" class="svgc_invert" filter="url(#filter_readability_theme_clean)"></rect>
        </g>
        <g class="s_banner">
            <rect y="40" width="700" height="268" fill="#FFFFFF"></rect>
            <text fill="#FFFFFF" xml:space="preserve" style="white-space: pre" font-family="Arial" font-size="38" font-weight="bold" letter-spacing="0em" class="svgc_invert" filter="url(#filter_readability_theme_clean)">
                <tspan x="66" y="115.174">Welcome </tspan>
                <tspan x="66" y="159.174">Message</tspan>
            </text>
            <path d="M117.701 166.587C218.088 168.377 243.264 166.587 238.44 146.822C234.33 131.832 182.288 129 144.997 129C107.706 129 54 131.832 54 147.794C54 163.755 97.802 170.346 187.036 172" stroke="#3AADAA" stroke-width="3" stroke-linecap="round"></path>
            <rect x="66" y="192" width="173" height="6" fill="#FFFFFF" fill-opacity="0.4" class="svgc_invert" filter="url(#filter_readability_theme_clean)"></rect>
            <rect x="66" y="206" width="97" height="6" fill="#FFFFFF" fill-opacity="0.4" class="svgc_invert" filter="url(#filter_readability_theme_clean)"></rect>
            <rect x="66" y="241" width="91" height="27" fill="#FFFFFF" class="svgc_invert" filter="url(#filter_readability_theme_clean)"></rect>
            <path d="M413.379 214.396C624.754 272.57 652.44 195.319 595.771 130.964C573.185 105.342 554.556 108.871 500.63 97.9526C375.654 72.6691 301.387 183.571 413.379 214.396Z" stroke="#7C6576" stroke-width="12" stroke-miterlimit="10"></path>
            <path fill-rule="evenodd" clip-rule="evenodd" d="M549.852 80.5222C575.844 93.057 594.332 116.874 600.911 145.55C608.423 178.289 611.697 218.241 586.784 241.487C562.773 263.891 527.353 245.41 495.392 244.006C462.213 242.548 422.933 258.538 401.479 233.345C378.781 206.689 383.579 163.788 399.354 131.227C412.917 103.233 444.729 93.9855 473.729 84.2149C499.311 75.5959 526.027 69.0323 549.852 80.5222Z" fill="url(#theme_clean_s_banner_default_image_2_id)" class="img_reference_s_banner_default_image_2"></path>
        </g>
        <g class="s_color_blocks_2">
            <rect y="308" width="346" height="246" fill="#3AADAA"></rect>
            <rect x="346" y="308" width="354" height="246" rx="4" fill="url(#theme_clean_s_picture_default_image_id)" class="img_reference_s_picture_default_image"></rect>
            <rect x="66" y="376" width="173" height="10" fill="#3AADAA" fill-opacity="0.5" class="svgc_invert" filter="url(#filter_readability_theme_clean)"></rect>
            <rect x="66" y="401" width="235" height="10" fill="#3AADAA" fill-opacity="0.5" class="svgc_invert" filter="url(#filter_readability_theme_clean)"></rect>
            <rect x="66" y="426" width="144" height="10" fill="#3AADAA" fill-opacity="0.5" class="svgc_invert" filter="url(#filter_readability_theme_clean)"></rect>
            <rect x="66" y="451" width="204" height="10" fill="#3AADAA" fill-opacity="0.5" class="svgc_invert" filter="url(#filter_readability_theme_clean)"></rect>
            <rect x="66" y="476" width="100" height="10" fill="#3AADAA" fill-opacity="0.5" class="svgc_invert" filter="url(#filter_readability_theme_clean)"></rect>
        </g>
        <g class="s_title">
            <rect y="554" width="700" height="61" fill="#FFFFFF"></rect>
            <text fill="#FFFFFF" xml:space="preserve" style="white-space: pre" font-family="Arial" font-size="24" font-weight="bold" letter-spacing="0em" class="svgc_invert" filter="url(#filter_readability_theme_clean)">
                <tspan x="282" y="601.32">Section title</tspan>
            </text>
        </g>
        <g class="s_text_image">
            <rect y="615" width="700" height="264" fill="#FFFFFF"></rect>
            <path fill-rule="evenodd" clip-rule="evenodd" d="M549.913 706.361C552.462 716.892 547.933 728.33 552.322 738.233C558.764 752.767 578.627 759.827 580.604 775.609C582.585 791.422 576.706 811.852 562.442 819.012C547.148 826.689 529.357 814.295 512.935 809.577C502.643 806.62 494.876 795.726 484.19 796.53C461.802 798.214 441.549 825.551 421.033 816.491C404.644 809.253 408.392 782.127 411.64 764.49C414.537 748.769 429.787 739.079 437.84 725.256C444.148 714.429 443.316 698.709 453.887 691.976C464.546 685.188 479.459 696.212 491.111 691.328C507.72 684.366 515.663 654.323 533.088 658.778C549.677 663.019 545.885 689.723 549.913 706.361Z" fill="#3AADAA"></path>
            <path fill-rule="evenodd" clip-rule="evenodd" d="M507.136 671.179C535.913 669.683 563.833 677.635 583.869 692.685C606.744 709.867 629.555 732.894 619.603 755.658C610.01 777.599 570.096 778.79 541.714 789.104C512.251 799.811 486.229 823.204 455.053 815.456C422.067 807.259 404.773 779.629 402.154 754.42C399.902 732.747 422.828 716.041 443.058 700.001C460.903 685.851 480.758 672.549 507.136 671.179Z" fill="url(#theme_clean_s_text_image_default_image_id)" class="img_reference_s_text_image_default_image"></path>
            <rect x="66" y="783" width="59" height="18" fill="#FFFFFF" class="svgc_invert" filter="url(#filter_readability_theme_clean)"></rect>
            <rect x="66" y="737" width="215" height="6" fill="#FFFFFF" fill-opacity="0.4" class="svgc_invert" filter="url(#filter_readability_theme_clean)"></rect>
            <rect x="66" y="751" width="237" height="6" fill="#FFFFFF" fill-opacity="0.4" class="svgc_invert" filter="url(#filter_readability_theme_clean)"></rect>
            <text fill="#FFFFFF" xml:space="preserve" style="white-space: pre" font-family="Arial" font-size="20" font-weight="bold" letter-spacing="0em" class="svgc_invert" filter="url(#filter_readability_theme_clean)">
                <tspan x="66" y="724.434">Section Title</tspan>
            </text>
            <rect x="66" y="765" width="177" height="6" fill="#FFFFFF" fill-opacity="0.4" class="svgc_invert" filter="url(#filter_readability_theme_clean)"></rect>
        </g>
        <g class="s_image_text">
            <rect y="850" width="700" height="273" fill="#FFFFFF"></rect>
            <rect x="378" y="979" width="229" height="6" fill="#FFFFFF" fill-opacity="0.4" class="svgc_invert" filter="url(#filter_readability_theme_clean)"></rect>
            <rect x="378" y="993" width="253" height="6" fill="#FFFFFF" fill-opacity="0.4" class="svgc_invert" filter="url(#filter_readability_theme_clean)"></rect>
            <text fill="#FFFFFF" xml:space="preserve" style="white-space: pre" font-family="Arial" font-size="20" font-weight="bold" letter-spacing="0em" class="svgc_invert" filter="url(#filter_readability_theme_clean)">
                <tspan x="378" y="967.434">Section Title</tspan>
            </text>
            <rect x="378" y="1007" width="189" height="6" fill="#FFFFFF" fill-opacity="0.4" class="svgc_invert" filter="url(#filter_readability_theme_clean)"></rect>
            <rect x="378" y="1025" width="59" height="18" fill="#FFFFFF" class="svgc_invert" filter="url(#filter_readability_theme_clean)"></rect>
            <path fill-rule="evenodd" clip-rule="evenodd" d="M193.013 895.353C226.735 892.892 264.506 886.569 290.351 902.279C317.17 918.58 317.533 946.837 319.124 972.008C320.823 998.876 327.304 1030.21 299.584 1048.35C272.23 1066.25 229.423 1059.45 193.013 1054.53C164.326 1050.66 141.851 1038.2 120.233 1024.14C96.9501 1009.01 67.4112 994.509 66.0559 972.008C64.6737 949.059 89.1519 929.973 113.67 915.169C135.934 901.727 164.046 897.466 193.013 895.353Z" fill="#3AADAA"></path>
            <path fill-rule="evenodd" clip-rule="evenodd" d="M116.787 918.934C135.034 902.906 159.875 896.861 184.024 899.234C205.956 901.389 220.983 918.44 239.107 930.955C264.632 948.58 305.2 955.3 309.688 986.008C314.213 1016.97 285.08 1044.43 257.987 1060.13C235.759 1073.02 209.548 1057.65 183.901 1058.92C155.453 1060.34 125.108 1084.75 102.184 1067.88C78.8952 1050.74 82.2155 1014.98 85.0393 986.18C87.5526 960.546 97.4235 935.943 116.787 918.934Z" fill="url(#theme_clean_s_image_text_default_image_id)" class="img_reference_s_image_text_default_image"></path>
        </g>
        <g class="s_numbers_showcase">
            <rect y="1123" width="700" height="198" fill="#3AADAA"></rect>
            <g>
                <rect x="66" y="1262" width="59" height="18" fill="#3AADAA" class="svgc_invert" filter="url(#filter_readability_theme_clean)"></rect>
                <rect x="66" y="1213" width="161" height="6" fill="#3AADAA" fill-opacity="0.4" class="svgc_invert" filter="url(#filter_readability_theme_clean)"></rect>
                <rect x="66" y="1227" width="178" height="6" fill="#3AADAA" fill-opacity="0.4" class="svgc_invert" filter="url(#filter_readability_theme_clean)"></rect>
                <rect x="66" y="1241" width="133" height="6" fill="#3AADAA" fill-opacity="0.4" class="svgc_invert" filter="url(#filter_readability_theme_clean)"></rect>
                <text fill="#3AADAA" xml:space="preserve" style="white-space: pre" font-family="Arial" font-size="24" font-weight="bold" letter-spacing="0em" class="svgc_invert" filter="url(#filter_readability_theme_clean)">
                    <tspan x="66" y="1180.32">Section title</tspan>
                </text>
            </g>
            <g>
                <rect x="283" y="1143" width="146" height="111" rx="4" fill="#FFFFFF"></rect>
                <rect x="300" y="1221" width="71" height="10" fill="#FFFFFF" fill-opacity="0.4" class="svgc_invert" filter="url(#filter_readability_theme_clean)"></rect>
                <rect x="300" y="1236" width="54" height="5" fill="#FFFFFF" fill-opacity="0.4" class="svgc_invert" filter="url(#filter_readability_theme_clean)"></rect>
                <rect x="300" y="1160" width="71" height="20" fill="#FFFFFF" fill-opacity="0.4" class="svgc_invert" filter="url(#filter_readability_theme_clean)"></rect>
            </g>
            <g>
                <rect x="437" y="1143" width="197" height="111" rx="4" fill="#383E45"></rect>
                <rect x="454" y="1160" width="71" height="20" fill="#383E45" fill-opacity="0.4" class="svgc_invert" filter="url(#filter_readability_theme_clean)"></rect>
                <rect x="454" y="1221" width="71" height="10" fill="#383E45" fill-opacity="0.4" class="svgc_invert" filter="url(#filter_readability_theme_clean)"></rect>
                <rect x="454" y="1236" width="54" height="5" fill="#383E45" fill-opacity="0.4" class="svgc_invert" filter="url(#filter_readability_theme_clean)"></rect>
            </g>
            <g>
                <rect x="283" y="1262" width="351" height="111" rx="4" fill="#7C6576"></rect>
                <rect x="300" y="1340" width="71" height="10" fill="#7C6576" fill-opacity="0.4" class="svgc_invert" filter="url(#filter_readability_theme_clean)"></rect>
                <rect x="300" y="1279" width="71" height="20" fill="#7C6576" fill-opacity="0.4" class="svgc_invert" filter="url(#filter_readability_theme_clean)"></rect>
                <rect x="300" y="1355" width="54" height="5" fill="#7C6576" fill-opacity="0.4" class="svgc_invert" filter="url(#filter_readability_theme_clean)"></rect>
            </g>
        </g>
        <g class="s_company_team">
            <rect y="1373" width="700" height="280" fill="#FFFFFF"></rect>
            <text fill="#FFFFFF" xml:space="preserve" style="white-space: pre" font-family="Arial" font-size="24" font-weight="bold" letter-spacing="0em" class="svgc_invert" filter="url(#filter_readability_theme_clean)">
                <tspan x="66" y="1424.32">Section title</tspan>
            </text>
            <rect x="66" y="1442" width="168" height="6" fill="#FFFFFF" fill-opacity="0.4" class="svgc_invert" filter="url(#filter_readability_theme_clean)"></rect>
            <g>
                <rect x="133" y="1513" width="200" height="5" fill="#FFFFFF" fill-opacity="0.4" class="svgc_invert" filter="url(#filter_readability_theme_clean)"></rect>
                <rect x="133" y="1523" width="151" height="5" fill="#FFFFFF" fill-opacity="0.4" class="svgc_invert" filter="url(#filter_readability_theme_clean)"></rect>
                <text fill="#FFFFFF" xml:space="preserve" style="white-space: pre" font-family="Arial" font-size="16" font-weight="bold" letter-spacing="0em" class="svgc_invert" filter="url(#filter_readability_theme_clean)">
                    <tspan x="133" y="1496.55">Entry Title</tspan>
                </text>
                <rect x="66" y="1482" width="52" height="52" rx="4" fill="#D9D9D9"></rect>
            </g>
            <g>
                <rect x="434" y="1513" width="200" height="5" fill="#FFFFFF" fill-opacity="0.4" class="svgc_invert" filter="url(#filter_readability_theme_clean)"></rect>
                <rect x="434" y="1523" width="151" height="5" fill="#FFFFFF" fill-opacity="0.4" class="svgc_invert" filter="url(#filter_readability_theme_clean)"></rect>
                <text fill="#FFFFFF" xml:space="preserve" style="white-space: pre" font-family="Arial" font-size="16" font-weight="bold" letter-spacing="0em" class="svgc_invert" filter="url(#filter_readability_theme_clean)">
                    <tspan x="434" y="1496.55">Entry Title</tspan>
                </text>
                <rect x="367" y="1482" width="52" height="52" rx="4" fill="#D9D9D9"></rect>
            </g>
            <g>
                <rect x="133" y="1592" width="200" height="5" fill="#FFFFFF" fill-opacity="0.4" class="svgc_invert" filter="url(#filter_readability_theme_clean)"></rect>
                <rect x="133" y="1602" width="151" height="5" fill="#FFFFFF" fill-opacity="0.4" class="svgc_invert" filter="url(#filter_readability_theme_clean)"></rect>
                <text fill="#FFFFFF" xml:space="preserve" style="white-space: pre" font-family="Arial" font-size="16" font-weight="bold" letter-spacing="0em" class="svgc_invert" filter="url(#filter_readability_theme_clean)">
                    <tspan x="133" y="1575.55">Entry Title</tspan>
                </text>
                <rect x="66" y="1561" width="52" height="52" rx="4" fill="#D9D9D9"></rect>
            </g>
            <g>
                <rect x="434" y="1592" width="200" height="5" fill="#FFFFFF" fill-opacity="0.4" class="svgc_invert" filter="url(#filter_readability_theme_clean)"></rect>
                <rect x="434" y="1602" width="151" height="5" fill="#FFFFFF" fill-opacity="0.4" class="svgc_invert" filter="url(#filter_readability_theme_clean)"></rect>
                <text fill="#FFFFFF" xml:space="preserve" style="white-space: pre" font-family="Arial" font-size="16" font-weight="bold" letter-spacing="0em" class="svgc_invert" filter="url(#filter_readability_theme_clean)">
                    <tspan x="434" y="1575.55">Entry Title</tspan>
                </text>
                <rect x="367" y="1561" width="52" height="52" rx="4" fill="#D9D9D9"></rect>
            </g>
        </g>
        <g class="s_hr">
            <rect y="1652" width="703" height="2" fill="#D9D9D9"></rect>
        </g>
        <g class="s_accordion_image">
            <path d="M0 1653H700V1959H0V1653Z" fill="#FFFFFF"></path>
            <text fill="#FFFFFF" xml:space="preserve" style="white-space: pre" font-family="Arial" font-size="24" font-weight="bold" letter-spacing="0em" class="svgc_invert" filter="url(#filter_readability_theme_clean)">
                <tspan x="66" y="1715.32">Section title</tspan>
            </text>
            <rect x="66" y="1733" width="168" height="6" fill="#FFFFFF" fill-opacity="0.4" class="svgc_invert" filter="url(#filter_readability_theme_clean)"></rect>
            <rect x="398" y="1697" width="236" height="218" rx="4" fill="url(#theme_clean_s_accordion_image_default_image_id)" class="img_reference_s_accordion_image_default_image"></rect>
            <path d="M357 1761H76C73.7909 1761 72 1762.79 72 1765V1831C72 1833.21 73.7909 1835 76 1835H357C359.209 1835 361 1833.21 361 1831V1765C361 1762.79 359.209 1761 357 1761Z" fill="#F6F6F6"></path>
            <path d="M343 1773.71L347 1777.72L346.44 1778.29L343 1774.84L339.56 1778.29L339 1777.72L343 1773.71Z" fill="black"></path>
            <path d="M343 1851.29L339 1847.28L339.56 1846.71L343 1850.16L346.44 1846.71L347 1847.28L343 1851.29Z" fill="black"></path>
            <path d="M343 1879.29L339 1875.28L339.56 1874.71L343 1878.16L346.44 1874.71L347 1875.28L343 1879.29Z" fill="black"></path>
            <path d="M321 1789H82V1794H321V1789Z" fill="#F6F6F6" fill-opacity="0.4" class="svgc_invert" filter="url(#filter_readability_theme_clean)"></path>
            <path d="M306 1809H82V1814H306V1809Z" fill="#F6F6F6" fill-opacity="0.4" class="svgc_invert" filter="url(#filter_readability_theme_clean)"></path>
            <path d="M205 1771H82V1781H205V1771Z" fill="#F6F6F6" fill-opacity="0.4" class="svgc_invert" filter="url(#filter_readability_theme_clean)"></path>
            <path d="M350 1799H82V1804H350V1799Z" fill="#F6F6F6" fill-opacity="0.4" class="svgc_invert" filter="url(#filter_readability_theme_clean)"></path>
            <path d="M330 1819H82V1824H330V1819Z" fill="#F6F6F6" fill-opacity="0.4" class="svgc_invert" filter="url(#filter_readability_theme_clean)"></path>
            <path d="M205 1848H82V1858H205V1848Z" fill="#FFFFFF" fill-opacity="0.4" class="svgc_invert" filter="url(#filter_readability_theme_clean)"></path>
            <path d="M205 1872H82V1882H205V1872Z" fill="#FFFFFF" fill-opacity="0.4" class="svgc_invert" filter="url(#filter_readability_theme_clean)"></path>
        </g>
        <g class="s_call_to_action">
            <path d="M700 1959H0V2134H700V1959Z" fill="#7C6576"></path>
            <rect x="67" y="2061" width="168" height="5" fill="#7C6576" fill-opacity="0.4" class="svgc_invert" filter="url(#filter_readability_theme_clean)"></rect>
            <path d="M399 2024H67V2034H399V2024Z" fill="#7C6576" fill-opacity="0.4" class="svgc_invert" filter="url(#filter_readability_theme_clean)"></path>
            <path d="M333 2041H67V2051H333V2041Z" fill="#7C6576" fill-opacity="0.4" class="svgc_invert" filter="url(#filter_readability_theme_clean)"></path>
            <g>
                <rect x="480" y="1979" width="154" height="133" fill="#FFFFFF"></rect>
                <path d="M585 1996H494V2006H585V1996Z" fill="#FFFFFF" fill-opacity="0.4" class="svgc_invert" filter="url(#filter_readability_theme_clean)"></path>
                <rect x="510" y="2025" width="95" height="5" fill="#FFFFFF" fill-opacity="0.4" class="svgc_invert" filter="url(#filter_readability_theme_clean)"></rect>
                <rect x="494" y="2025" width="6" height="5" fill="#FFFFFF" fill-opacity="0.4" class="svgc_invert" filter="url(#filter_readability_theme_clean)"></rect>
                <rect x="510" y="2037" width="95" height="5" fill="#FFFFFF" fill-opacity="0.4" class="svgc_invert" filter="url(#filter_readability_theme_clean)"></rect>
                <rect x="494" y="2037" width="6" height="5" fill="#FFFFFF" fill-opacity="0.4" class="svgc_invert" filter="url(#filter_readability_theme_clean)"></rect>
                <rect x="510" y="2050" width="95" height="5" fill="#FFFFFF" fill-opacity="0.4" class="svgc_invert" filter="url(#filter_readability_theme_clean)"></rect>
                <rect x="494" y="2050" width="6" height="5" fill="#FFFFFF" fill-opacity="0.4" class="svgc_invert" filter="url(#filter_readability_theme_clean)"></rect>
                <rect x="494" y="2073" width="124" height="23" fill="#FFFFFF" class="svgc_invert" filter="url(#filter_readability_theme_clean)"></rect>
            </g>
        </g>
        <g class="svgc_footer">
            <rect y="2134" width="700" height="102" fill="#FOOTER_COLOR" class="svgc_footer_bg"></rect>
            <rect x="66" y="2160" width="44" height="10" fill="#FOOTER_COLOR" fill-opacity="0.4" class="svgc_invert" filter="url(#filter_readability_theme_clean)"></rect>
            <rect x="147" y="2160" width="44" height="10" fill="#FOOTER_COLOR" fill-opacity="0.4" class="svgc_invert" filter="url(#filter_readability_theme_clean)"></rect>
            <rect x="222" y="2160" width="87" height="10" fill="#FOOTER_COLOR" fill-opacity="0.4" class="svgc_invert" filter="url(#filter_readability_theme_clean)"></rect>
            <rect x="66" y="2151" width="31" height="5" fill="#FOOTER_COLOR" fill-opacity="0.4" class="svgc_invert" filter="url(#filter_readability_theme_clean)"></rect>
            <rect x="147" y="2151" width="33" height="5" fill="#FOOTER_COLOR" fill-opacity="0.4" class="svgc_invert" filter="url(#filter_readability_theme_clean)"></rect>
            <rect x="472" y="2205" width="33" height="5" fill="#FOOTER_COLOR" fill-opacity="0.4" class="svgc_invert" filter="url(#filter_readability_theme_clean)"></rect>
            <rect x="515" y="2205" width="33" height="5" fill="#FOOTER_COLOR" fill-opacity="0.4" class="svgc_invert" filter="url(#filter_readability_theme_clean)"></rect>
            <rect x="558" y="2205" width="33" height="5" fill="#FOOTER_COLOR" fill-opacity="0.4" class="svgc_invert" filter="url(#filter_readability_theme_clean)"></rect>
            <rect x="601" y="2205" width="33" height="5" fill="#FOOTER_COLOR" fill-opacity="0.4" class="svgc_invert" filter="url(#filter_readability_theme_clean)"></rect>
            <rect x="222" y="2151" width="37" height="5" fill="#FOOTER_COLOR" fill-opacity="0.4" class="svgc_invert" filter="url(#filter_readability_theme_clean)"></rect>
            <circle cx="625.5" cy="2160.5" r="9.5" fill="#FOOTER_COLOR" fill-opacity="0.4" class="svgc_invert" filter="url(#filter_readability_theme_clean)"></circle>
            <circle cx="590.5" cy="2160.5" r="9.5" fill="#FOOTER_COLOR" fill-opacity="0.4" class="svgc_invert" filter="url(#filter_readability_theme_clean)"></circle>
            <circle cx="555.5" cy="2160.5" r="9.5" fill="#FOOTER_COLOR" fill-opacity="0.4" class="svgc_invert" filter="url(#filter_readability_theme_clean)"></circle>
            <path d="M74.3992 2213.83V2211.62H68.7742V2201.17H66V2213.83H74.3992ZM81.4362 2214C82.594 2214 83.636 2213.74 84.5637 2213.24C85.4944 2212.73 86.2282 2211.99 86.7695 2211.02C87.3108 2210.05 87.58 2208.88 87.58 2207.5C87.58 2206.12 87.3093 2204.95 86.768 2203.98C86.2282 2203.01 85.4944 2202.27 84.5652 2201.76C83.636 2201.26 82.5925 2201 81.4347 2201C80.2694 2201 79.2228 2201.26 78.2951 2201.76C77.3689 2202.27 76.6351 2203.01 76.0983 2203.98C75.56 2204.95 75.2909 2206.12 75.2909 2207.5C75.2909 2208.88 75.56 2210.05 76.0983 2211.02C76.5948 2211.94 77.3574 2212.71 78.2951 2213.23C79.2228 2213.74 80.2694 2214 81.4347 2214L81.4362 2214ZM81.4362 2211.63C80.8148 2211.65 80.2033 2211.48 79.6799 2211.16C79.1792 2210.84 78.7928 2210.37 78.5161 2209.76C78.241 2209.15 78.1026 2208.39 78.1026 2207.5C78.1026 2206.61 78.241 2205.85 78.5161 2205.24C78.7913 2204.62 79.1792 2204.16 79.6799 2203.84C80.2027 2203.52 80.8137 2203.35 81.4347 2203.37C82.1053 2203.37 82.6902 2203.53 83.1909 2203.84C83.6901 2204.16 84.078 2204.63 84.3532 2205.24C84.6299 2205.85 84.7667 2206.61 84.7667 2207.5C84.7667 2208.39 84.6299 2209.15 84.3532 2209.76C84.078 2210.37 83.6916 2210.84 83.1909 2211.16C82.6677 2211.48 82.0576 2211.65 81.4362 2211.63ZM95.3853 2214C96.4874 2214 97.4663 2213.78 98.3203 2213.35C99.1592 2212.94 99.8573 2212.3 100.332 2211.51C100.819 2210.71 101.063 2209.76 101.063 2208.65V2207.05H95.5717V2209.07H98.3865L98.3805 2209.25C98.3549 2209.6 98.2752 2209.91 98.1444 2210.19L98.0346 2210.39C97.7953 2210.79 97.4382 2211.11 97.0092 2211.31C96.5641 2211.53 96.0258 2211.63 95.3988 2211.63C94.7071 2211.63 94.1057 2211.47 93.5975 2211.15C93.0892 2210.83 92.6953 2210.35 92.4186 2209.74C92.142 2209.12 92.0021 2208.37 92.0021 2207.49C92.0021 2206.61 92.1435 2205.86 92.4246 2205.25C92.7073 2204.64 93.1013 2204.17 93.608 2203.85C94.1335 2203.52 94.7482 2203.35 95.3732 2203.37C95.7311 2203.37 96.0589 2203.41 96.3566 2203.5C96.6528 2203.58 96.9174 2203.71 97.1505 2203.87C97.3836 2204.03 97.5806 2204.23 97.7429 2204.46C97.9053 2204.7 98.0316 2204.96 98.1219 2205.26H100.941C100.858 2204.66 100.651 2204.07 100.332 2203.54C100.018 2203.02 99.6035 2202.56 99.1112 2202.19C98.5994 2201.81 98.0219 2201.51 97.4046 2201.31C96.7348 2201.1 96.0334 2200.99 95.3281 2201C94.5006 2200.99 93.6797 2201.14 92.9118 2201.44C92.174 2201.73 91.5079 2202.16 90.9571 2202.72C90.3797 2203.31 89.9357 2204 89.6535 2204.77C89.3437 2205.57 89.1888 2206.49 89.1888 2207.51C89.1888 2208.85 89.449 2210 89.9677 2210.97C90.4526 2211.9 91.2084 2212.68 92.1435 2213.21C93.0757 2213.74 94.1553 2214 95.3853 2214ZM108.855 2214C110.012 2214 111.055 2213.74 111.984 2213.24C112.913 2212.73 113.648 2211.99 114.188 2211.02C114.729 2210.05 115 2208.88 115 2207.5C115 2206.12 114.729 2204.95 114.188 2203.98C113.647 2203.01 112.913 2202.27 111.984 2201.76C111.055 2201.26 110.012 2201 108.855 2201C107.688 2201 106.641 2201.26 105.715 2201.76C104.787 2202.27 104.055 2203.01 103.517 2203.98C102.979 2204.95 102.709 2206.12 102.709 2207.5C102.709 2208.88 102.979 2210.05 103.517 2211.02C104.055 2211.98 104.787 2212.72 105.715 2213.23C106.641 2213.74 107.688 2214 108.855 2214ZM108.855 2211.63C108.184 2211.63 107.598 2211.47 107.098 2211.16C106.599 2210.84 106.211 2210.37 105.936 2209.76C105.66 2209.15 105.523 2208.39 105.523 2207.5C105.523 2206.61 105.66 2205.85 105.936 2205.24C106.211 2204.62 106.598 2204.16 107.098 2203.84C107.622 2203.52 108.233 2203.35 108.855 2203.37C109.525 2203.37 110.11 2203.53 110.609 2203.84C111.11 2204.16 111.497 2204.63 111.773 2205.24C112.048 2205.85 112.187 2206.61 112.187 2207.5C112.187 2208.39 112.048 2209.15 111.773 2209.76C111.497 2210.37 111.11 2210.84 110.609 2211.16C110.087 2211.48 109.476 2211.65 108.855 2211.63Z" fill="#FOOTER_COLOR" class="svgc_invert" filter="url(#filter_readability_theme_clean)"></path>
            <rect x="66" y="2185" width="568" height="1" fill="black" fill-opacity="0.2"></rect>
        </g>
    </g>
    <defs>
        <clipPath id="clip0_295_9">
            <rect width="700" height="2236" fill="#FFFFFF"></rect>
        </clipPath>
    </defs>
</svg>
