<svg width="36" height="44" viewBox="0 0 36 44" fill="none" xmlns="http://www.w3.org/2000/svg">
<path id="Vector" d="M7.25 19.3903C10.13 26.0689 14.76 31.5322 20.43 34.9305L24.83 29.7268C25.38 29.0778 26.17 28.889 26.86 29.1486C29.1 30.0218 31.51 30.4938 34 30.4938C35.11 30.4938 36 31.544 36 32.8537V41.1135C36 42.4233 35.11 43.4734 34 43.4734C15.22 43.4734 0 25.5143 0 3.35456C0 2.0448 0.9 0.994629 2 0.994629H9C10.11 0.994629 11 2.0448 11 3.35456C11 6.29268 11.4 9.1364 12.14 11.7795C12.36 12.5937 12.2 13.5259 11.65 14.1749L7.25 19.3903Z" fill="white"/>
</svg>
