<svg width="70" height="70" viewBox="0 0 70 70" fill="none" xmlns="http://www.w3.org/2000/svg">
<path fill-rule="evenodd" clip-rule="evenodd" d="M49 56C53.4183 56 57 52.4183 57 48L57 18L23 18C20.7909 18 19 19.7909 19 22L19 56L49 56Z" fill="#FC868B"/>
<path fill-rule="evenodd" clip-rule="evenodd" d="M49 52C51.2091 52 53 50.2091 53 48L53 14L23 14C18.5817 14 15 17.5817 15 22L15 52L49 52Z" fill="#2EBCFA"/>
<path fill-rule="evenodd" clip-rule="evenodd" d="M53 48C53 50.2091 51.2091 52 49 52L19 52L19 22C19 19.7909 20.7909 18 23 18L53 18L53 48Z" fill="#2D6388"/>
<path d="M35 38C33.8181 38 32.6478 38.2328 31.5558 38.6851C30.4639 39.1374 29.4718 39.8003 28.636 40.636C27.8003 41.4718 27.1374 42.4639 26.6851 43.5558C26.2328 44.6478 26 45.8181 26 47H36C37.1819 47 38.3522 46.7672 39.4442 46.3149C40.5361 45.8626 41.5282 45.1997 42.364 44.364C43.1997 43.5282 43.8626 42.5361 44.3149 41.4442C44.7672 40.3522 45 39.1819 45 38H35Z" fill="white"/>
<circle cx="35" cy="29" r="6" fill="white"/>
</svg>
