<svg xmlns="http://www.w3.org/2000/svg" xmlns:xlink="http://www.w3.org/1999/xlink" width="75" height="75" viewBox="0 0 512 512" version="1.1">
<g id="surface1">
<path style=" stroke:#7C6576;fill-rule:nonzero;fill:#7C6576;fill-opacity:1;" d="M 250.800781 1.398438 C 215.601562 -2.300781 184.199219 23.199219 180.5 58.398438 L 174 119 L 156.699219 69.601562 C 145 36.300781 108.398438 18.800781 75.101562 30.5 C 41.800781 42.199219 24.199219 78.800781 35.898438 112.101562 L 88.699219 262.199219 C 73.5 276.699219 64 297.300781 64 320 L 64 344 C 64 436.800781 139.199219 512 232 512 L 280 512 C 372.800781 512 448 436.800781 448 344 L 448 224 C 448 188.699219 419.300781 160 384 160 C 376.101562 160 368.601562 161.398438 361.601562 164 C 351.199219 142.699219 329.300781 128 304 128 C 303.300781 128 302.5 128 301.800781 128 L 307.699219 71.699219 C 311.398438 36.5 285.898438 5.101562 250.699219 1.398438 Z M 250.601562 156.800781 C 243.898438 166.898438 240 179 240 192 L 240 240 C 240 240.699219 240 241.398438 240 242 C 234.898438 240.699219 229.5 240 224 240 L 216.601562 240 L 211.199219 224.699219 L 228.199219 63.398438 C 229.101562 54.601562 237 48.199219 245.800781 49.199219 C 254.601562 50.199219 261 58 260 66.800781 L 250.5 156.898438 Z M 111.398438 85.601562 L 165.699219 240 L 144 240 C 140 240 136 240.300781 132.101562 240.898438 L 81.199219 96.199219 C 78.300781 87.898438 82.699219 78.699219 91 75.800781 C 99.300781 72.898438 108.5 77.300781 111.398438 85.601562 Z M 288 192 C 288 183.199219 295.199219 176 304 176 C 312.800781 176 320 183.199219 320 192 L 320 240 C 320 248.800781 312.800781 256 304 256 C 295.199219 256 288 248.800781 288 240 Z M 326.398438 300 C 336.800781 321.300781 358.699219 336 384 336 C 389.5 336 394.898438 335.300781 400 334 L 400 344 C 400 410.300781 346.300781 464 280 464 L 232 464 C 165.699219 464 112 410.300781 112 344 L 112 320 C 112 302.300781 126.300781 288 144 288 L 224 288 C 232.800781 288 240 295.199219 240 304 C 240 312.800781 232.800781 320 224 320 L 184 320 C 170.699219 320 160 330.699219 160 344 C 160 357.300781 170.699219 368 184 368 L 224 368 C 259.300781 368 288 339.300781 288 304 C 288 303.300781 288 302.601562 288 302 C 293.101562 303.300781 298.5 304 304 304 C 311.898438 304 319.398438 302.601562 326.398438 300 Z M 400 272 C 400 280.800781 392.800781 288 384 288 C 375.199219 288 368 280.800781 368 272 L 368 224 C 368 215.199219 375.199219 208 384 208 C 392.800781 208 400 215.199219 400 224 Z M 400 272 "></path>
</g>
</svg>
