<?xml version="1.0" encoding="UTF-8"?>
<svg xmlns="http://www.w3.org/2000/svg" xmlns:xlink="http://www.w3.org/1999/xlink" width="75px" height="75px" viewBox="0 0 75 75" version="1.1">
<g id="surface1">
<path style=" stroke:#7C6576;fill-rule:nonzero;fill:#7C6576;fill-opacity:1;" d="M 73.976562 64.847656 L 59.371094 50.242188 C 58.710938 49.585938 57.816406 49.21875 56.878906 49.21875 L 54.492188 49.21875 C 58.535156 44.046875 60.9375 37.542969 60.9375 30.46875 C 60.9375 13.636719 47.300781 0 30.46875 0 C 13.636719 0 0 13.636719 0 30.46875 C 0 47.300781 13.636719 60.9375 30.46875 60.9375 C 37.542969 60.9375 44.046875 58.535156 49.21875 54.492188 L 49.21875 56.878906 C 49.21875 57.816406 49.585938 58.710938 50.242188 59.371094 L 64.847656 73.976562 C 66.226562 75.351562 68.453125 75.351562 69.8125 73.976562 L 73.960938 69.828125 C 75.335938 68.453125 75.335938 66.226562 73.976562 64.847656 Z M 30.46875 49.21875 C 20.113281 49.21875 11.71875 40.839844 11.71875 30.46875 C 11.71875 20.113281 20.097656 11.71875 30.46875 11.71875 C 40.824219 11.71875 49.21875 20.097656 49.21875 30.46875 C 49.21875 40.824219 40.839844 49.21875 30.46875 49.21875 Z M 30.46875 49.21875 "/>
</g>
</svg>
