<svg xmlns="http://www.w3.org/2000/svg" xmlns:xlink="http://www.w3.org/1999/xlink" width="75" height="75" viewBox="0 0 512 512" version="1.1">
<g id="surface1">
<path style=" stroke:#7C6576;fill-rule:nonzero;fill:#7C6576;fill-opacity:1;" d="M 0 80 L 0 229.5 C 0 246.5 7.65625 262.800781 21.371094 274.800781 L 222.515625 450.800781 C 251.085938 475.800781 297.371094 475.800781 325.941406 450.800781 L 478.515625 317.300781 C 507.085938 292.300781 507.085938 251.800781 478.515625 226.800781 L 277.371094 50.800781 C 263.65625 38.800781 245.027344 32.101562 225.601562 32.101562 L 54.855469 32.101562 C 24.570312 32 0 53.5 0 80 Z M 128 112 C 148.199219 112 164.570312 126.328125 164.570312 144 C 164.570312 161.671875 148.199219 176 128 176 C 107.800781 176 91.429688 161.671875 91.429688 144 C 91.429688 126.328125 107.800781 112 128 112 Z M 128 112 "></path>
</g>
</svg>
