<svg xmlns="http://www.w3.org/2000/svg" xmlns:xlink="http://www.w3.org/1999/xlink" width="70" height="70" viewBox="0 0 70 70"><defs><path id="a" d="M4 0h61c4 0 5 1 5 5v60c0 4-1 5-5 5H4c-3 0-4-1-4-5V5c0-4 1-5 4-5z"/><linearGradient id="c" x1="100%" x2="0%" y1="0%" y2="100%"><stop offset="0%" stop-color="#B06161"/><stop offset="45.785%" stop-color="#984E4E"/><stop offset="100%" stop-color="#7C3838"/></linearGradient><path id="d" d="M24.592 27.281l3.283 14.7L31 41.796V39h19v2.042h1.908c1.441 0 1.441 1.834.088 1.998L28.36 44l.942 3h21.801c.942 0 .942 2 0 2H27.417l-5.65-24h-1.884v1c0 .667-.313 1-.941 1-.628 0-.942-.333-.942-1v-2c.062-.667.376-1 .942-1h3.767c.486 0 .8.333.941 1l.942 3.281zM49.423 55a2.497 2.497 0 0 1-2.493-2.5c0-1.38 1.116-2.5 2.493-2.5a2.497 2.497 0 0 1 2.494 2.5c0 1.38-1.117 2.5-2.494 2.5zm-19.95 0a2.497 2.497 0 0 1-2.494-2.5c0-1.38 1.116-2.5 2.494-2.5a2.497 2.497 0 0 1 2.493 2.5c0 1.38-1.116 2.5-2.493 2.5zM31 35h19v3H31v-3zm0-5h19v4H31v-4zm0-5h19v4H31v-4zm1 1v2h17v-2H32z"/><path id="e" d="M24.592 25.281l3.283 14.7L31 39.796V37h19v2.042h1.908c1.441 0 1.441 1.834.088 1.998L28.36 42l.942 3h21.801c.942 0 .942 2 0 2H27.417l-5.65-24h-1.884v1c0 .667-.313 1-.941 1-.628 0-.942-.333-.942-1v-2c.062-.667.376-1 .942-1h3.767c.486 0 .8.333.941 1l.942 3.281zM49.423 53a2.497 2.497 0 0 1-2.493-2.5c0-1.38 1.116-2.5 2.493-2.5a2.497 2.497 0 0 1 2.494 2.5c0 1.38-1.117 2.5-2.494 2.5zm-19.95 0a2.497 2.497 0 0 1-2.494-2.5c0-1.38 1.116-2.5 2.494-2.5a2.497 2.497 0 0 1 2.493 2.5c0 1.38-1.116 2.5-2.493 2.5zM31 33h19v3H31v-3zm0-5h19v4H31v-4zm0-5h19v4H31v-4zm1 1v2h17v-2H32z"/></defs><g fill="none" fill-rule="evenodd"><mask id="b" fill="#fff"><use xlink:href="#a"/></mask><g mask="url(#b)"><path fill="url(#c)" d="M0 0H70V70H0z"/><path fill="#FFF" fill-opacity=".383" d="M4 1h61c2.667 0 4.333.667 5 2V0H0v3c.667-1.333 2-2 4-2z"/><path fill="#393939" d="M35.869 69H4c-2 0-4-1-4-4V38.32l18.528-17.185h4.459l2.385 7.467L31 23h19v16l2.5 1.5-9.773 4.8H51V47l-.637 1.385 1.485 2.626-.388.927L35.869 69z" opacity=".324"/><path fill="#000" fill-opacity=".383" d="M4 69h61c2.667 0 4.333-1 5-3v4H0v-4c.667 2 2 3 4 3z"/><use fill="#000" fill-rule="nonzero" opacity=".3" xlink:href="#d"/><use fill="#FFF" fill-rule="nonzero" xlink:href="#e"/></g></g></svg>