<?xml version="1.0" encoding="UTF-8" standalone="no"?>
<!-- Created with Inkscape (http://www.inkscape.org/) -->

<svg
   xmlns:dc="http://purl.org/dc/elements/1.1/"
   xmlns:cc="http://creativecommons.org/ns#"
   xmlns:rdf="http://www.w3.org/1999/02/22-rdf-syntax-ns#"
   xmlns:svg="http://www.w3.org/2000/svg"
   xmlns="http://www.w3.org/2000/svg"
   xmlns:xlink="http://www.w3.org/1999/xlink"
   xmlns:sodipodi="http://sodipodi.sourceforge.net/DTD/sodipodi-0.dtd"
   xmlns:inkscape="http://www.inkscape.org/namespaces/inkscape"
   width="100"
   height="100"
   id="svg1306"
   sodipodi:version="0.32"
   inkscape:version="0.48.2 r9819"
   sodipodi:docname="weather-clear-night-000.svg"
   inkscape:output_extension="org.inkscape.output.svg.inkscape"
   version="1.1"
   inkscape:export-filename="/home/jjnf/workspace/openerp/radius/images/conect_hover.png"
   inkscape:export-xdpi="90"
   inkscape:export-ydpi="90">
  <defs
     id="defs1308">
    <linearGradient
       id="linearGradient5199">
      <stop
         style="stop-color:#7e7878;stop-opacity:0.09708738;"
         offset="0"
         id="stop5201" />
      <stop
         style="stop-color:#7e7878;stop-opacity:1;"
         offset="1"
         id="stop5203" />
    </linearGradient>
    <linearGradient
       inkscape:collect="always"
       id="linearGradient5191">
      <stop
         style="stop-color:#dadad9;stop-opacity:1;"
         offset="0"
         id="stop5193" />
      <stop
         style="stop-color:#dadad9;stop-opacity:0;"
         offset="1"
         id="stop5195" />
    </linearGradient>
    <linearGradient
       inkscape:collect="always"
       id="linearGradient5164">
      <stop
         style="stop-color:white;stop-opacity:1;"
         offset="0"
         id="stop5166" />
      <stop
         style="stop-color:white;stop-opacity:0;"
         offset="1"
         id="stop5168" />
    </linearGradient>
    <linearGradient
       id="linearGradient5154">
      <stop
         style="stop-color:#d9d8d6;stop-opacity:1;"
         offset="0"
         id="stop5156" />
      <stop
         style="stop-color:#b5b4b0;stop-opacity:1;"
         offset="1"
         id="stop5158" />
    </linearGradient>
    <linearGradient
       inkscape:collect="always"
       id="linearGradient5138">
      <stop
         style="stop-color:white;stop-opacity:1;"
         offset="0"
         id="stop5140" />
      <stop
         style="stop-color:white;stop-opacity:0;"
         offset="1"
         id="stop5142" />
    </linearGradient>
    <radialGradient
       inkscape:collect="always"
       xlink:href="#linearGradient5164"
       id="radialGradient3112"
       gradientUnits="userSpaceOnUse"
       cx="23.688078"
       cy="23.42804"
       fx="23.688078"
       fy="23.42804"
       r="22.45064" />
    <radialGradient
       inkscape:collect="always"
       xlink:href="#linearGradient5154"
       id="radialGradient3114"
       gradientUnits="userSpaceOnUse"
       gradientTransform="matrix(1.440625,0,0,1.440625,-10.16586,-3.037035)"
       cx="23.071428"
       cy="6.8925552"
       fx="23.071428"
       fy="6.8925552"
       r="22.812965" />
    <radialGradient
       inkscape:collect="always"
       xlink:href="#linearGradient5199"
       id="radialGradient3116"
       gradientUnits="userSpaceOnUse"
       gradientTransform="matrix(1.652014,0,0,1.088231,-15.72984,3.156134)"
       cx="24.125"
       cy="9.7349367"
       fx="24.125"
       fy="9.7349367"
       r="15.75" />
    <radialGradient
       inkscape:collect="always"
       xlink:href="#linearGradient5138"
       id="radialGradient3118"
       gradientUnits="userSpaceOnUse"
       gradientTransform="matrix(3.373032,0,0,3.373032,-54.74925,-26.13148)"
       cx="23.071428"
       cy="11.011853"
       fx="23.071428"
       fy="11.011853"
       r="22.856438" />
    <radialGradient
       inkscape:collect="always"
       xlink:href="#linearGradient5191"
       id="radialGradient3120"
       gradientUnits="userSpaceOnUse"
       gradientTransform="matrix(1.498147,0,0,1.130677,-11.10293,-5.288817)"
       cx="22.288452"
       cy="34.537094"
       fx="22.288452"
       fy="34.537094"
       r="9.9375" />
    <radialGradient
       inkscape:collect="always"
       xlink:href="#linearGradient5191"
       id="radialGradient3142"
       gradientUnits="userSpaceOnUse"
       gradientTransform="matrix(2.5491555,0,0,1.923891,98.842562,-80.757459)"
       cx="22.288452"
       cy="34.537094"
       fx="22.288452"
       fy="34.537094"
       r="9.9375" />
    <radialGradient
       inkscape:collect="always"
       xlink:href="#linearGradient5199"
       id="radialGradient3146"
       gradientUnits="userSpaceOnUse"
       gradientTransform="matrix(2.8109662,0,0,1.8516675,90.969694,-66.388046)"
       cx="24.125"
       cy="9.7349367"
       fx="24.125"
       fy="9.7349367"
       r="15.75" />
  </defs>
  <sodipodi:namedview
     id="base"
     pagecolor="white"
     bordercolor="#666"
     borderopacity="0.34117647"
     inkscape:pageopacity="0"
     inkscape:pageshadow="2"
     inkscape:zoom="5.6568542"
     inkscape:cx="32.825431"
     inkscape:cy="47.503142"
     inkscape:current-layer="layer1"
     showgrid="false"
     inkscape:grid-bbox="true"
     inkscape:document-units="px"
     inkscape:window-width="1069"
     inkscape:window-height="740"
     inkscape:window-x="0"
     inkscape:window-y="54"
     inkscape:showpageshadow="false"
     fit-margin-top="0"
     fit-margin-left="0"
     fit-margin-right="0"
     fit-margin-bottom="0"
     inkscape:window-maximized="0" />
  <metadata
     id="metadata1311">
    <rdf:RDF>
      <cc:Work
         rdf:about="">
        <dc:format>image/svg+xml</dc:format>
        <dc:type
           rdf:resource="http://purl.org/dc/dcmitype/StillImage" />
        <cc:license
           rdf:resource="http://creativecommons.org/licenses/GPL/2.0/" />
        <dc:title></dc:title>
        <dc:creator>
          <cc:Agent>
            <dc:title>Frank Solensky</dc:title>
          </cc:Agent>
        </dc:creator>
        <dc:subject>
          <rdf:Bag>
            <rdf:li>weather</rdf:li>
            <rdf:li>clear</rdf:li>
            <rdf:li>night</rdf:li>
            <rdf:li>moon</rdf:li>
            <rdf:li>0</rdf:li>
          </rdf:Bag>
        </dc:subject>
      </cc:Work>
      <cc:License
         rdf:about="http://creativecommons.org/licenses/GPL/2.0/">
        <cc:permits
           rdf:resource="http://web.resource.org/cc/Reproduction" />
        <cc:permits
           rdf:resource="http://web.resource.org/cc/Distribution" />
        <cc:requires
           rdf:resource="http://web.resource.org/cc/Notice" />
        <cc:permits
           rdf:resource="http://web.resource.org/cc/DerivativeWorks" />
        <cc:requires
           rdf:resource="http://web.resource.org/cc/ShareAlike" />
        <cc:requires
           rdf:resource="http://web.resource.org/cc/SourceCode" />
      </cc:License>
    </rdf:RDF>
  </metadata>
  <g
     id="layer1"
     inkscape:label="Layer 1"
     inkscape:groupmode="layer"
     transform="translate(-108.5,79.5)">
    <path
       sodipodi:type="arc"
       style="color:#000000;fill:url(#radialGradient3112);fill-opacity:1;fill-rule:evenodd;stroke:none;stroke-width:1;marker:none;visibility:visible;display:inline;overflow:visible"
       id="path5162"
       sodipodi:cx="23.688078"
       sodipodi:cy="23.42804"
       sodipodi:rx="22.45064"
       sodipodi:ry="22.45064"
       d="m 46.138718,23.42804 a 22.45064,22.45064 0 1 1 -44.9012798,0 22.45064,22.45064 0 1 1 44.9012798,0 z"
       transform="matrix(1.701539,0,0,1.701539,117.48545,-71.58213)" />
    <path
       sodipodi:type="arc"
       style="color:#000000;fill:url(#radialGradient3114);fill-opacity:1;fill-rule:evenodd;stroke:#888a85;stroke-width:1.34021831;stroke-linecap:butt;stroke-linejoin:round;stroke-miterlimit:4;stroke-opacity:1;stroke-dasharray:none;stroke-dashoffset:0;marker:none;visibility:visible;display:inline;overflow:visible"
       id="path1314"
       sodipodi:cx="23.071428"
       sodipodi:cy="23.142857"
       sodipodi:rx="22.142857"
       sodipodi:ry="22.142857"
       d="m 45.214285,23.142857 a 22.142857,22.142857 0 1 1 -44.2857133,0 22.142857,22.142857 0 1 1 44.2857133,0 z"
       transform="matrix(1.2696101,0,0,1.2695863,129.39098,-60.266375)" />
    <path
       style="opacity:0.33146069;color:#000000;fill:url(#radialGradient3146);fill-opacity:1;fill-rule:evenodd;stroke:none;stroke-width:1;marker:none;visibility:visible;display:inline;overflow:visible"
       d="m 136.23887,-29.219856 c 0,0 4.41336,2.073751 4.46654,3.61577 0.0532,1.54202 -3.93481,0.531731 -4.25385,2.552309 -0.31904,2.020577 0.47856,5.476829 2.97769,5.530002 2.49914,0.05317 3.13721,-4.147502 7.01885,-5.31731 3.88164,-1.169808 6.80616,2.499136 8.5077,0.638077 1.70153,-1.861058 -1.96741,-4.46654 -1.70154,-8.08231 0.26586,-3.61577 0.90394,-2.92452 2.765,-4.147501 1.86106,-1.222981 2.5574,2.9307 4.67923,-0.744424 2.0505,-3.551564 -4.30702,-2.286443 -4.04116,-4.679232 0.26587,-2.392789 1.86106,-5.051444 5.10462,-4.891924 3.24356,0.159519 7.86962,5.530001 7.86962,5.530001 2.0608,1.982741 0.0657,5.830155 1.06346,8.507695 1.17192,3.144957 4.39564,2.964811 6.59346,2.977694 0,0 -3.24355,-3.668944 -2.765,-5.955387 0.47856,-2.286443 2.33962,-4.572886 4.67924,-3.190385 2.33961,1.3825 4.67923,8.720387 4.67923,8.720387 l 1.70154,-7.444233 -3.61577,-8.93308 c 0,0 -5.15779,1.807885 -10.84731,0.638077 -5.68952,-1.169808 -6.27443,-5.583175 -11.91078,-5.317309 -5.63634,0.265865 -6.16808,5.902213 -10.63462,6.380771 -4.46654,0.478558 -5.74269,-1.967404 -7.23154,-4.46654 -1.48884,-2.499135 1.27616,-5.530002 1.27616,-5.530002 l -10.63462,14.463082 4.25385,9.145772 z"
       id="path5152"
       sodipodi:nodetypes="cssssssszsscscsscccssssccc"
       inkscape:connector-curvature="0" />
    <path
       sodipodi:type="arc"
       style="opacity:0.80898874;color:#000000;fill:none;stroke:url(#radialGradient3118);stroke-width:1.42716217;stroke-linecap:butt;stroke-linejoin:round;stroke-miterlimit:4;stroke-opacity:1;stroke-dasharray:none;stroke-dashoffset:0;marker:none;visibility:visible;display:inline;overflow:visible"
       id="path2044"
       sodipodi:cx="23.071428"
       sodipodi:cy="23.142857"
       sodipodi:rx="22.142857"
       sodipodi:ry="22.142857"
       d="m 45.214285,23.142857 a 22.142857,22.142857 0 1 1 -44.2857133,0 22.142857,22.142857 0 1 1 44.2857133,0 z"
       transform="matrix(1.192265,0,0,1.1922412,131.18224,-58.469626)" />
    <path
       sodipodi:nodetypes="ccaaac"
       style="opacity:0.25000000000000000;fill:#000080;fill-opacity:1;stroke:#000000;stroke-width:0;stroke-linejoin:miter;stroke-miterlimit:4;stroke-opacity:1"
       id="shadow"
       d="m 158.74172,-5.39831 c -14.11481,0 -25.55712,-11.44231 -25.55712,-25.557116 0,-14.114805 11.44231,-25.557116 25.55712,-25.557116 14.11481,0 25.55712,11.442311 25.55712,25.557116 0,14.114806 -11.44231,25.557116 -25.55712,25.557116 z"
       inkscape:connector-curvature="0" />
    <path
       style="opacity:0.64606742;color:#000000;fill:url(#radialGradient3142);fill-opacity:1;fill-rule:evenodd;stroke:none;stroke-width:1;marker:none;visibility:visible;display:inline;overflow:visible"
       d="m 156.23195,-25.816778 c 0.65022,2.704302 1.49338,4.44388 2.33962,6.168079 2.64509,-0.239822 4.75309,-1.553808 6.80615,-2.977693 -1.23014,2.567256 -2.67466,4.991592 -4.50524,7.158556 3.85563,1.499541 7.42986,1.170062 10.88601,0.07298 -2.42519,2.030631 -4.77578,3.598139 -9.72155,4.077648 3.57018,1.077228 7.52723,2.3168788 12.48655,0.814277 -4.55481,2.6312547 -9.33797,4.6231664 -14.88846,4.4665398 l 5.49351,-0.07742 -11.02351,0.5028099 -5.7427,-1.0634619 0.21269,-2.5523085 c -2.40139,0.2673952 -5.07095,-1.0741682 -7.65692,-1.9142312 2.32345,-1.030495 4.81979,-1.844882 6.38077,-3.828463 -3.02096,-0.594814 -4.4617,-2.769838 -6.59346,-4.253847 2.83589,0.425435 5.46155,2.112207 8.50769,1.276154 -1.5914,-4.395642 -1.40066,-8.791286 -1.91423,-13.186927 1.73723,3.757564 2.86807,7.515131 5.31731,11.272696 1.63395,-1.234921 2.78312,-3.318201 3.61577,-5.955387 z"
       id="path5150"
       sodipodi:nodetypes="ccccccccccccccccccc"
       inkscape:connector-curvature="0" />
    <path
       sodipodi:type="arc"
       style="opacity:0.33146069;color:#000000;fill:#bbbbb8;fill-opacity:1;fill-rule:evenodd;stroke:#888984;stroke-width:1.15470052;stroke-linecap:round;stroke-linejoin:round;stroke-miterlimit:4;stroke-opacity:1;stroke-dasharray:none;stroke-dashoffset:0;marker:none;visibility:visible;display:inline;overflow:visible"
       id="path4263"
       sodipodi:cx="21.625"
       sodipodi:cy="34.5"
       sodipodi:rx="2.25"
       sodipodi:ry="2.25"
       d="m 23.875,34.5 a 2.25,2.25 0 1 1 -4.5,0 2.25,2.25 0 1 1 4.5,0 z"
       transform="matrix(1.701539,0,0,1.2761542,117.73463,-56.836503)" />
    <path
       sodipodi:type="arc"
       style="opacity:0.71910112999999998;color:#000000;fill:#b4b3c1;fill-opacity:1;fill-rule:evenodd;stroke:none;stroke-width:1;marker:none;visibility:visible;display:inline;overflow:visible"
       id="path5207"
       sodipodi:cx="22.375"
       sodipodi:cy="21.75"
       sodipodi:rx="2.625"
       sodipodi:ry="2.3125"
       d="m 25,21.75 a 2.625,2.3125 0 1 1 -5.25,0 2.625,2.3125 0 1 1 5.25,0 z"
       transform="matrix(1.701539,0,0,1.701539,117.73463,-71.758331)" />
    <path
       d="m 25,21.75 a 2.625,2.3125 0 1 1 -5.25,0 2.625,2.3125 0 1 1 5.25,0 z"
       sodipodi:ry="2.3125"
       sodipodi:rx="2.625"
       sodipodi:cy="21.75"
       sodipodi:cx="22.375"
       id="path5209"
       style="opacity:0.71910112999999998;color:#000000;fill:#b4b4c2;fill-opacity:1;fill-rule:evenodd;stroke:none;stroke-width:1;marker:none;visibility:visible;display:inline;overflow:visible"
       sodipodi:type="arc"
       transform="matrix(2.0864101,0,0,2.0864101,100.56226,-89.314317)" />
    <path
       transform="matrix(1.8039325,1.0483012,-1.0483012,1.8039325,125.32304,-90.567892)"
       sodipodi:type="arc"
       style="opacity:0.71910112999999998;color:#000000;fill:#bab9c0;fill-opacity:1;fill-rule:evenodd;stroke:none;stroke-width:1;marker:none;visibility:visible;display:inline;overflow:visible"
       id="path5211"
       sodipodi:cx="22.375"
       sodipodi:cy="21.75"
       sodipodi:rx="2.625"
       sodipodi:ry="2.3125"
       d="m 25,21.75 a 2.625,2.3125 0 1 1 -5.25,0 2.625,2.3125 0 1 1 5.25,0 z" />
    <path
       transform="matrix(0.67796971,0.63870159,-0.3700473,0.65963052,171.33726,-60.957021)"
       sodipodi:type="arc"
       style="opacity:0.71910113;color:#000000;fill:#dfdedc;fill-opacity:1;fill-rule:evenodd;stroke:none;stroke-width:1;marker:none;visibility:visible;display:inline;overflow:visible"
       id="path5213"
       sodipodi:cx="22.375"
       sodipodi:cy="21.75"
       sodipodi:rx="2.625"
       sodipodi:ry="2.3125"
       d="m 25,21.75 a 2.625,2.3125 0 1 1 -5.25,0 2.625,2.3125 0 1 1 5.25,0 z" />
    <path
       d="m 25,21.75 a 2.625,2.3125 0 1 1 -5.25,0 2.625,2.3125 0 1 1 5.25,0 z"
       sodipodi:ry="2.3125"
       sodipodi:rx="2.625"
       sodipodi:cy="21.75"
       sodipodi:cx="22.375"
       id="path5215"
       style="opacity:0.71910113;color:#000000;fill:#dfdedc;fill-opacity:1;fill-rule:evenodd;stroke:none;stroke-width:1;marker:none;visibility:visible;display:inline;overflow:visible"
       sodipodi:type="arc"
       transform="matrix(-0.16036284,0.45399443,-0.38919982,-0.03716621,183.51766,-21.611373)"
       inkscape:transform-center-y="1.5541817"
       inkscape:transform-center-x="2.0330157" />
    <path
       inkscape:transform-center-x="-0.61605544"
       inkscape:transform-center-y="2.5542712"
       transform="matrix(0.35983806,0.33899591,-0.19640524,0.35010526,175.92452,-52.19817)"
       sodipodi:type="arc"
       style="opacity:0.71910113;color:#000000;fill:#dfdedc;fill-opacity:1;fill-rule:evenodd;stroke:none;stroke-width:1;marker:none;visibility:visible;display:inline;overflow:visible"
       id="path5217"
       sodipodi:cx="22.375"
       sodipodi:cy="21.75"
       sodipodi:rx="2.625"
       sodipodi:ry="2.3125"
       d="m 25,21.75 a 2.625,2.3125 0 1 1 -5.25,0 2.625,2.3125 0 1 1 5.25,0 z" />
    <path
       d="m 25,21.75 a 2.625,2.3125 0 1 1 -5.25,0 2.625,2.3125 0 1 1 5.25,0 z"
       sodipodi:ry="2.3125"
       sodipodi:rx="2.625"
       sodipodi:cy="21.75"
       sodipodi:cx="22.375"
       id="path5219"
       style="opacity:0.71910113;color:#000000;fill:#f7f7f6;fill-opacity:1;fill-rule:evenodd;stroke:none;stroke-width:1;marker:none;visibility:visible;display:inline;overflow:visible"
       sodipodi:type="arc"
       transform="matrix(0.85450608,-0.37067857,0.45991068,0.60044078,122.26435,-57.087461)" />
    <path
       transform="matrix(0.51340366,-0.22271104,0.27632313,0.3607569,138.61352,-57.065057)"
       sodipodi:type="arc"
       style="opacity:0.71910113;color:#000000;fill:#f7f7f6;fill-opacity:1;fill-rule:evenodd;stroke:none;stroke-width:1;marker:none;visibility:visible;display:inline;overflow:visible"
       id="path5221"
       sodipodi:cx="22.375"
       sodipodi:cy="21.75"
       sodipodi:rx="2.625"
       sodipodi:ry="2.3125"
       d="m 25,21.75 a 2.625,2.3125 0 1 1 -5.25,0 2.625,2.3125 0 1 1 5.25,0 z"
       inkscape:transform-center-x="2.2304367" />
    <path
       inkscape:transform-center-x="1.5718105"
       d="m 25,21.75 a 2.625,2.3125 0 1 1 -5.25,0 2.625,2.3125 0 1 1 5.25,0 z"
       sodipodi:ry="2.3125"
       sodipodi:rx="2.625"
       sodipodi:cy="21.75"
       sodipodi:cx="22.375"
       id="path5223"
       style="opacity:0.71910113;color:#000000;fill:#f7f7f6;fill-opacity:1;fill-rule:evenodd;stroke:none;stroke-width:1;marker:none;visibility:visible;display:inline;overflow:visible"
       sodipodi:type="arc"
       transform="matrix(0.36180334,-0.15694768,0.19472923,0.25423035,143.03898,-53.061242)" />
    <path
       style="fill:#ffffff"
       d="m 179.46967,-34.760723 c -2.22944,-0.06343 -3.02207,0.240327 -3.625,1.40625 -0.70702,1.36724 0.1023,2.658674 1.96875,3.1875 0.62776,0.177863 1.33909,0.464241 1.59375,0.625 0.63697,0.402093 0.58366,1.054954 -0.0937,1.3125 -0.78141,0.297092 -1.78496,-0.08197 -2.4375,-0.9375 -0.29773,-0.390342 -0.65247,-0.71875 -0.8125,-0.71875 -0.62202,0 -0.93041,1.450136 -0.53125,2.5 0.17396,0.457542 0.27094,0.48628 2.25,0.53125 1.47124,0.03343 2.26142,-0.01458 2.65625,-0.21875 1.94663,-1.006622 1.92449,-3.393316 -0.0313,-4.28125 -0.47354,-0.214989 -1.01505,-0.3725 -1.21875,-0.375 -0.57641,-0.007 -1.59375,-0.605841 -1.59375,-0.9375 0,-0.444524 0.9394,-0.970589 1.4375,-0.8125 0.23389,0.07423 0.69498,0.421656 1.03125,0.78125 0.50344,0.538362 0.70151,0.594171 1,0.40625 0.27289,-0.171784 0.34375,-0.480032 0.34375,-1.3125 l 0,-1.125 -1.9375,-0.03125 z m -33.34375,0.125 c -1.8122,0 -2.28157,0.271579 -1.875,1.03125 0.12502,0.233603 0.37214,0.4375 0.53125,0.4375 0.55464,0 0.52122,0.385438 -0.25,2.5 -0.77456,2.123749 -0.79962,2.12581 -1.53125,2.1875 -0.65652,0.05536 -0.78997,-0.03889 -1.28125,-0.78125 -0.67835,-1.02509 -0.67967,-1.265841 -0.0313,-1.875 0.70848,-0.665548 0.73011,-1.999297 0.0313,-2.8125 -0.49581,-0.576988 -0.51633,-0.5625 -3.15625,-0.5625 l -2.625,0 -0.0625,0.53125 c -0.0344,0.296097 0.0724,0.633883 0.25,0.78125 0.45546,0.377991 0.4538,4.373382 0,4.75 -0.31974,0.265366 -0.41129,1.057446 -0.15625,1.3125 0.0801,0.08015 0.75951,0.12669 1.5,0.09375 1.23305,-0.05484 1.34395,-0.122897 1.40625,-0.5625 0.0374,-0.263999 -0.0939,-0.636725 -0.28125,-0.84375 -0.37962,-0.4195 -0.33228,-1.46417 0.0625,-1.59375 0.13799,-0.04529 0.53491,0.370693 0.90625,0.90625 1.57263,2.268056 1.36192,2.125 4,2.125 2.1214,0 2.36518,-0.03756 2.5625,-0.40625 0.17294,-0.323156 0.11189,-0.481852 -0.21875,-0.8125 -0.67385,-0.673846 -0.48627,-0.84375 0.9375,-0.84375 1.42377,0 1.5801,0.169904 0.90625,0.84375 -0.3345,0.334509 -0.36624,0.478519 -0.1875,0.8125 0.1963,0.366776 0.40048,0.42814 1.6875,0.375 1.82747,-0.07546 2.19519,-0.453497 1.34375,-1.34375 -0.32989,-0.344926 -0.86597,-1.51391 -1.375,-2.9375 -1.21138,-3.387886 -1.14959,-3.3125 -3.09375,-3.3125 z m 16.65625,0 c -2.09572,0 -2.48408,0.05796 -2.59375,0.34375 -0.20045,0.522352 0.20036,1.011883 0.96875,1.125 l 0.71875,0.09375 0,2.25 0,2.28125 -0.71875,0.09375 c -0.77173,0.113606 -1.17147,0.596704 -0.96875,1.125 0.11472,0.298921 0.45599,0.33163 2.65625,0.28125 l 2.5,-0.0625 0,-0.625 c 0,-0.555058 -0.0728,-0.62619 -0.71875,-0.6875 -0.39515,-0.03751 -0.75955,-0.180229 -0.84375,-0.3125 -0.18367,-0.288679 -0.20865,-3.662719 -0.0313,-4.125 0.0794,-0.207013 0.37495,-0.3125 0.8125,-0.3125 0.79348,0 1.18665,-0.511416 0.875,-1.09375 -0.17067,-0.318888 -0.50205,-0.375 -2.65625,-0.375 z m -9.84375,0.125 c -0.92927,0.02929 -1.20292,0.12167 -1.34375,0.34375 -0.17485,0.27571 -0.10841,0.462233 0.25,0.84375 0.40836,0.434729 0.4375,0.683069 0.4375,2.53125 0,1.80284 -0.0468,2.112184 -0.40625,2.4375 -0.47484,0.429727 -0.51951,0.755578 -0.15625,1.125 0.18497,0.188102 0.88836,0.23504 2.46875,0.1875 2.3745,-0.07142 2.83353,-0.272486 3.75,-1.5 0.61799,-0.82772 0.61799,-3.73478 0,-4.5625 -0.94289,-1.2629 -1.36704,-1.40625 -3.84375,-1.40625 -0.48042,0 -0.84649,-0.0098 -1.15625,0 z m 14.6875,0 c -0.59249,0.02945 -0.63695,0.141593 -0.6875,0.5 -0.0391,0.276621 0.0558,0.599225 0.21875,0.71875 0.21085,0.154626 0.32455,0.837572 0.40625,2.375 0.13605,2.560666 0.35174,3.155457 1.25,3.71875 0.54417,0.341254 0.92185,0.39888 2.03125,0.34375 2.23918,-0.111271 2.84375,-0.976983 2.84375,-4.09375 0,-1.675448 0.0659,-1.946146 0.46875,-2.375 0.3576,-0.380646 0.39226,-0.56867 0.21875,-0.84375 -0.17359,-0.275185 -0.51507,-0.34375 -1.625,-0.34375 -1.21043,0 -1.4377,0.05129 -1.5,0.375 -0.0401,0.208171 0.12681,0.579554 0.375,0.84375 0.40877,0.435077 0.47195,0.67123 0.40625,2.34375 -0.0573,1.458278 -0.15915,1.939387 -0.46875,2.28125 -0.49406,0.545555 -1.24807,0.533178 -1.78125,0 -0.35187,-0.351838 -0.40625,-0.665339 -0.40625,-2.28125 0,-1.668623 0.0349,-1.946398 0.4375,-2.375 0.3576,-0.380646 0.42352,-0.568669 0.25,-0.84375 -0.17365,-0.275295 -0.51239,-0.34375 -1.625,-0.34375 -0.33685,0 -0.61501,-0.0098 -0.8125,0 z m -12.9375,1.3125 c 0.18478,0.02081 0.41729,0.09388 0.71875,0.21875 1.63966,0.679195 1.59199,3.735741 -0.0625,4.3125 -1.3603,0.474222 -1.4674,0.263262 -1.375,-2.5625 0.0504,-1.541673 0.1644,-2.031168 0.71875,-1.96875 z m -15.9375,0.03125 c 0.11478,-0.004 0.23298,0.01832 0.40625,0.03125 0.97099,0.07249 1.42647,0.544229 1.0625,1.125 -0.14081,0.224684 -0.54074,0.39854 -1.0625,0.4375 -0.69307,0.05174 -0.8576,-0.0248 -0.96875,-0.375 -0.0738,-0.232411 -0.0738,-0.611338 0,-0.84375 0.0834,-0.262675 0.21816,-0.363074 0.5625,-0.375 z m 8,0.71875 c 0.21699,-0.239314 0.86941,1.263631 0.71875,1.65625 -0.12042,0.31382 -1.04008,0.382831 -1.21875,0.09375 -0.12411,-0.200813 0.22626,-1.44809 0.5,-1.75 z"
       id="path3067"
       inkscape:connector-curvature="0" />
  </g>
</svg>
