<svg version="1.2" baseProfile="tiny-ps" xmlns="http://www.w3.org/2000/svg" viewBox="0 0 23 26" width="23" height="26">
	<title>password-svg</title>
	<style>
		tspan { white-space:pre }
		.shp0 { fill: #000000 } 
	</style>
	<path id="Layer" fill-rule="evenodd" class="shp0" d="M21 13.75L21 22.75C21 23.99 20.09 25 18.96 25L4.04 25C2.91 25 2 23.99 2 22.75L2 13.75C2 12.51 2.91 11.5 4.04 11.5L5.05 11.5L5.05 8.13C5.05 4.2 7.95 1 11.5 1C15.05 1 17.95 4.2 17.95 8.13L17.95 11.5L18.96 11.5C20.09 11.5 21 12.51 21 13.75ZM14.55 8.13C14.55 6.26 13.18 4.75 11.5 4.75C9.82 4.75 8.45 6.26 8.45 8.13L8.45 11.5L14.55 11.5L14.55 8.13Z" />
</svg>