<svg xmlns="http://www.w3.org/2000/svg">
    <svg viewBox="0 0 386 324" width="25%" height="50%" preserveAspectRatio="xMinYMin meet" fill="#3AADAA">
        <path d="M3.05176e-05 324C45.5 316.811 91.1 309.622 117.1 282.264C143.1 254.907 149.6 207.48 181.7 181.42C213.9 155.36 271.7 150.667 299.8 124.009C327.9 97.3498 293 0 386 0H3.05176e-05V324Z"/>
    </svg>
    <svg viewBox="0 0 382 324" width="25%" height="50%" x="75%" y="50%" preserveAspectRatio="xMaxYMax meet" fill="#383E45">
        <path d="M382 0C349.04 36.3439 316.18 72.7877 286.527 94.3544C256.873 115.821 230.525 122.611 192.857 135.491C155.188 148.371 106.199 167.541 81.6546 199.991C57.1101 232.441 82.8504 324 -6.70046e-06 324H382V0Z"/>
    </svg>
</svg>
