<svg viewBox="0 0 900 600" xmlns="http://www.w3.org/2000/svg" stroke="#3AADAA" fill="none">
    <path d="M0 31L5.2 40.7C10.3 50.3 20.7 69.7 31 121.5C41.3 173.3 51.7 257.7 62 326.2C72.3 394.7 82.7 447.3 93 457.7C103.3 468 113.7 436 124 432.5C134.3 429 144.7 454 155 400.7C165.3 347.3 175.7 215.7 186 151.2C196.3 86.7 206.7 89.3 217 129.2C227.3 169 237.7 246 248 304.5C258.3 363 268.7 403 279 431.8C289.3 460.7 299.7 478.3 310 462.5C320.3 446.7 330.7 397.3 341 354.8C351.3 312.3 361.7 276.7 372 274.3C382.3 272 392.7 303 403 290.3C413.3 277.7 423.7 221.3 434.2 250.7C444.7 280 455.3 395 465.8 421C476.3 447 486.7 384 497 352.5C507.3 321 517.7 321 528 358.2C538.3 395.3 548.7 469.7 559 500.3C569.3 531 579.7 518 590 451.7C600.3 385.3 610.7 265.7 621 273.8C631.3 282 641.7 418 652 448C662.3 478 672.7 402 683 380.2C693.3 358.3 703.7 390.7 714 342.7C724.3 294.7 734.7 166.3 745 148C755.3 129.7 765.7 221.3 776 280.3C786.3 339.3 796.7 365.7 807 334.7C817.3 303.7 827.7 215.3 838 158.5C848.3 101.7 858.7 76.3 869 124C879.3 171.7 889.7 292.3 894.8 352.7L900 413" stroke-linecap="round" stroke-linejoin="miter" stroke-width="100"/>
</svg>
