<svg viewBox="0 0 1400 1400" fill="none" xmlns="http://www.w3.org/2000/svg">
    <path d="M443.707 1507.47C377.69 1594.14 321.831 1663.21 250.106 1693.25C179.012 1723.12 91.8818 1713.33 -13.5858 1705.75C-118.884 1698.79 -241.89 1693.88 -281.257 1632.75C-320.624 1571.61 -275.553 1454.71 -242.024 1357.81C-208.495 1260.92 -186.509 1184.02 -136.64 1135.49C-87.4006 1087.13 -10.2781 1067.14 86.8924 1033.66C184.524 999.389 301.574 951.795 400.252 979.455C498.931 1007.12 579.577 1111.29 582.275 1214.71C584.973 1318.14 509.261 1421.6 443.707 1507.47Z" fill="#3AADAA"/>
    <path d="M1438.78 1189.79C1489.42 1232.83 1522.76 1296.12 1548.92 1371.65C1575.09 1446.76 1594.08 1534.11 1553.56 1569.97C1512.63 1606.26 1412.19 1590.65 1336.65 1597.4C1261.54 1603.73 1212.16 1632 1155.19 1632C1098.22 1632 1034.07 1604.15 994.405 1553.09C954.314 1502.46 939.122 1428.62 961.067 1371.65C983.011 1314.69 1042.51 1274.18 1097.37 1231.56C1151.81 1188.95 1202.03 1144.22 1261.11 1133.67C1320.19 1122.7 1388.14 1146.33 1438.78 1189.79Z" fill="#383E45"/>
</svg>
