<svg width="50" height="50" viewBox="0 0 50 50" xmlns="http://www.w3.org/2000/svg"><g clip-path="url(#Frame 1496__a)"><path d="M9.144 7.667C8.437 8.544 8 9.637 8 10.737v28.526c0 1.12.454 2.233 1.184 3.119.702.538 1.666.758 2.72.524l21.191-5.796C35.252 36.634 37 34.463 37 32.264V3.213c0-2.2-1.748-3.597-3.905-3.12L11.905 5.89c-1.051.232-2.005.867-2.707 1.71l-.014.017-.04.05Z" fill="#1AD3BB"/><path d="M9.184 7.618C8.454 8.503 8 9.616 8 10.736v28.527c0 1.121.454 2.234 1.184 3.12.703.54 1.663.758 2.72.523l21.191-5.795C35.252 36.634 37 34.463 37 32.264V12.646L11.905 7.093c-1.058-.234-2.018-.017-2.721.525Z" fill="#1A6F66"/><path d="M8 10.737c0-1.12.454-2.234 1.184-3.119a3.012 3.012 0 0 1 1.61-.607 3.726 3.726 0 0 1 1.11.083l26.191 5.796c2.157.476 3.905 2.647 3.905 4.847v29.05c0 2.2-1.748 3.597-3.905 3.12l-26.19-5.796c-1.051-.233-2.004-.865-2.706-1.71a.047.047 0 0 0-.015-.019C8.454 41.497 8 40.384 8 39.264V10.737Z" fill="#FC868B"/><path d="M9.184 7.618C8.454 8.503 8 9.616 8 10.736v28.527c0 1.121.454 2.234 1.184 3.12.703.54 1.663.758 2.72.523l21.191-5.795C35.252 36.634 37 34.463 37 32.264V12.646L11.905 7.093c-1.058-.234-2.018-.017-2.721.525Z" fill="#1A6F66"/></g><defs><clipPath id="Frame 1496__a"><path fill="#fff" d="M0 0h50v50H0z"/></clipPath></defs></svg>
