<svg xmlns="http://www.w3.org/2000/svg" xmlns:xlink="http://www.w3.org/1999/xlink" width="75" height="75" viewBox="0 0 512 512" version="1.1">
<g id="surface1">
<path style=" stroke:#7C6576;fill-rule:nonzero;fill:#7C6576;fill-opacity:1;" d="M 281.6875 18 C 276.976562 7 267.023438 0 256.089844 0 C 245.15625 0 235.289062 7 230.488281 18 L 173.332031 150.300781 L 45.6875 171.5 C 35.023438 173.300781 26.132812 181.699219 22.84375 193.199219 C 19.554688 204.699219 22.222656 217.398438 29.867188 225.898438 L 122.488281 329 L 100.621094 474.699219 C 98.84375 486.699219 103.289062 498.898438 112.089844 506 C 120.890625 513.101562 132.535156 514 142.132812 508.300781 L 256.179688 439.800781 L 370.222656 508.300781 C 379.820312 514 391.464844 513.199219 400.265625 506 C 409.066406 498.800781 413.511719 486.699219 411.734375 474.699219 L 389.777344 329 L 482.398438 225.898438 C 490.042969 217.398438 492.800781 204.699219 489.421875 193.199219 C 486.042969 181.699219 477.246094 173.300781 466.578125 171.5 L 338.84375 150.300781 Z M 281.6875 18 "></path>
</g>
</svg>
