<svg width="64" height="64" viewBox="0 0 64 64" fill="none" xmlns="http://www.w3.org/2000/svg">
<path d="M19.5361 39.9783L17.6236 52.295C17.5267 52.9189 17.9537 53.5028 18.5774 53.5997C18.637 53.6091 18.6959 53.6135 18.7542 53.6135C19.308 53.6135 19.7946 53.2102 19.8821 52.6459L21.6291 41.3951L19.5361 39.9783Z" fill="white"/>
<path d="M22.4912 35.843C22.5881 35.2191 22.1611 34.6352 21.5374 34.5383C20.9118 34.4406 20.3294 34.8687 20.2327 35.4921L19.5361 39.9783L21.6291 41.3951L22.4912 35.843Z" fill="#FBDBD0"/>
<path d="M35.8426 41.0912C35.8426 40.46 35.331 39.9484 34.6997 39.9484C34.0685 39.9484 33.5569 40.46 33.5569 41.0912V47.9542L35.8426 47.871V41.0912Z" fill="#FBDBD0"/>
<path d="M33.5569 47.9542V60.6352C33.5569 61.2665 34.0685 61.7781 34.6997 61.7781C35.331 61.7781 35.8426 61.2665 35.8426 60.6352V47.871L33.5569 47.9542Z" fill="white"/>
<path d="M50.6788 31.9591C50.6788 31.3278 50.1672 30.8162 49.5359 30.8162C48.9047 30.8162 48.3931 31.3278 48.3931 31.9591V40.5827L50.6788 38.9943V31.9591Z" fill="#FBDBD0"/>
<path d="M48.3931 40.5828V51.5031C48.3931 52.1343 48.9047 52.646 49.5359 52.646C50.1672 52.646 50.6788 52.1343 50.6788 51.5031V38.9944L48.3931 40.5828Z" fill="white"/>
<path d="M44.4211 25.7615L45.2389 26.2336L46.0567 26.7058L46.8746 27.178L47.6924 27.6501L48.5102 28.1223L49.328 28.5945L50.1459 29.0666L50.9637 29.5388L51.7815 30.011L52.5994 30.4831C52.5296 30.4428 52.2765 30.53 51.9746 30.7055L43.7964 25.9838C44.0983 25.8083 44.3513 25.7212 44.4211 25.7615Z" fill="#C1DBF6"/>
<path d="M53.5405 31.8065C53.5392 32.2668 53.2368 32.7264 52.6327 33.0778L52.6275 34.9411C52.6275 34.9565 52.6208 34.9678 52.6084 34.975C52.7968 34.8565 52.8673 34.8121 52.9426 34.746C53.0859 34.6203 53.1805 34.5374 53.3013 34.3672C53.3991 34.2295 53.4511 34.0926 53.4516 34.0913C53.4665 34.0467 53.4911 33.9885 53.5003 33.9424C53.5033 33.9271 53.5056 33.9079 53.5084 33.891C53.5241 33.8175 53.535 33.7438 53.5352 33.6697L53.5405 31.8065Z" fill="#C1DBF6"/>
<path d="M32.6087 41.9597L24.4304 37.238C24.0745 37.4449 23.7858 37.6959 23.7855 37.7988L23.7803 39.662C23.7802 39.6777 23.7868 39.689 23.7993 39.6962L24.6172 40.1684L25.435 40.6406L26.2528 41.1127L27.0706 41.5849L27.8884 42.057L28.7063 42.5292L29.5241 43.0014L30.3419 43.4736L31.1597 43.9458L31.9776 44.4179C31.965 44.4107 31.9584 44.3994 31.9585 44.3837L31.9638 42.5205C31.964 42.4176 32.2527 42.1665 32.6087 41.9597Z" fill="#C1DBF6"/>
<path d="M51.9745 30.7055C52.8399 31.2052 52.8445 32.0174 51.9847 32.5171C46.5685 35.6646 41.1522 38.8122 35.736 41.9597C34.8748 42.4602 33.474 42.4594 32.6086 41.9597C29.8826 40.3858 27.1565 38.8119 24.4304 37.238C19.0484 34.1307 19.02 29.0921 24.3671 25.9847C29.7157 22.8765 38.4142 22.8765 43.7963 25.9838C46.5224 27.5577 49.2484 29.1316 51.9745 30.7055Z" fill="white"/>
<path d="M52.6328 33.0778C52.6331 32.9749 52.343 32.7239 51.9847 32.5171L35.7361 41.9597C35.4277 42.139 35.0483 42.2468 34.6506 42.2967L34.7246 44.8844C34.7299 44.8838 34.7353 44.8838 34.7405 44.8832C34.7404 44.8833 34.7403 44.8833 34.7402 44.8833C34.735 44.8838 34.7298 44.8839 34.7246 44.8844L34.7255 44.9157C34.7279 44.9155 34.7303 44.9154 34.7328 44.9152C34.9419 44.893 35.1453 44.8597 35.331 44.8149C35.8237 44.696 36.1276 44.5474 36.3598 44.4177L37.9847 43.4735L39.6095 42.5292L41.2344 41.5849L42.8593 40.6407L44.4841 39.6964L46.109 38.7521L47.7339 37.8079L49.3587 36.8636L50.9836 35.9194L52.6084 34.9751C52.6208 34.9678 52.6275 34.9566 52.6275 34.9411L52.6328 33.0778Z" fill="#C1DBF6"/>
<path d="M34.7246 44.8844L34.6506 42.2967C34.5969 42.3035 34.544 42.3128 34.4897 42.3173C33.8237 42.3727 33.1223 42.2563 32.6087 41.9597C32.2527 42.1666 31.9641 42.4176 31.9638 42.5205L31.9585 44.3838C31.9585 44.3994 31.9651 44.4107 31.9776 44.4179C32.777 44.8774 33.6947 44.946 34.1706 44.946C34.3552 44.946 34.5424 44.935 34.7255 44.9158L34.7246 44.8844Z" fill="#C1DBF6"/>
<path d="M52.9336 30.7103C52.9065 30.6868 52.8786 30.6657 52.8474 30.6436L52.9336 30.7103Z" fill="#FBDBD0"/>
<path d="M53.2962 31.0872C53.2658 31.0445 53.2238 30.9884 53.1875 30.9507C53.1441 30.9055 53.0912 30.8547 53.038 30.8052C53.7538 31.5517 51.9846 32.517 51.9846 32.517C52.3429 32.7239 52.633 32.9749 52.6327 33.0778C53.2368 32.7264 53.5391 32.2668 53.5404 31.8065C53.5384 31.5542 53.4562 31.3123 53.2962 31.0872Z" fill="#C1DBF6"/>
<path d="M52.9341 30.7106C52.966 30.7382 53.0023 30.7718 53.0382 30.8052C53.0075 30.7733 52.9741 30.7416 52.9341 30.7106Z" fill="#FBDBD0"/>
<path d="M53.038 30.8052C53.0021 30.7718 52.9658 30.7382 52.9339 30.7106C52.9338 30.7105 52.9337 30.7105 52.9336 30.7103L52.8474 30.6436C52.7924 30.6045 52.7229 30.5606 52.5992 30.4832C52.5294 30.4429 52.2763 30.5301 51.9744 30.7056C52.8398 31.2052 52.8444 32.0174 51.9846 32.5171C51.9846 32.5171 53.7537 31.5518 53.038 30.8052Z" fill="#C1DBF6"/>
<path d="M41.5584 21.8985C39.5665 20.3556 37.9735 18.3577 36.9127 16.0723L32.0036 5.49575C31.6503 4.7344 30.8872 4.24731 30.0479 4.24731H27.4927C27.068 4.24731 26.6458 4.26923 26.226 4.30562C22.9362 5.54395 16.6554 8.26645 16.3716 11.0938C15.9863 14.9325 18.6422 32.3395 21.5363 34.7888C21.261 34.4251 21.0348 34.052 20.8576 33.6728C20.8575 33.6726 20.8574 33.6724 20.8573 33.6722C20.6823 33.2976 20.5556 32.917 20.4765 32.5339C20.475 32.5267 20.4733 32.5195 20.4718 32.5122C20.4536 32.4216 20.4381 32.3308 20.4251 32.2399C20.4235 32.2287 20.4223 32.2175 20.4208 32.2063C20.3844 31.9364 20.3721 31.6658 20.383 31.3954C20.3838 31.3753 20.3841 31.3553 20.3851 31.3352C20.3893 31.2563 20.3962 31.1775 20.4044 31.0988C20.4076 31.0676 20.4115 31.0365 20.4154 31.0053C20.425 30.9285 20.4353 30.8517 20.4487 30.7751C20.4524 30.7543 20.4573 30.7336 20.4613 30.7128C20.4883 30.5698 20.5226 30.4272 20.563 30.285C20.5744 30.2451 20.5848 30.205 20.5973 30.1651C20.6171 30.1011 20.6395 30.0374 20.6621 29.9737C20.6794 29.9251 20.6974 29.8765 20.7163 29.828C20.7397 29.768 20.7635 29.708 20.7893 29.6482C20.8139 29.5912 20.8408 29.5345 20.8676 29.4778C20.9035 29.402 20.9409 29.3263 20.9807 29.251C21.0206 29.1755 21.0612 29.1002 21.1051 29.0253C21.1335 28.9768 21.1642 28.9287 21.1942 28.8805C21.233 28.8184 21.2727 28.7564 21.3142 28.6947C21.3457 28.6479 21.3777 28.6013 21.4107 28.5547C21.4601 28.4854 21.5118 28.4166 21.5648 28.3479C21.5931 28.311 21.6202 28.2738 21.6496 28.2372C21.7307 28.136 21.8158 28.0357 21.9048 27.9362C21.9345 27.9028 21.9663 27.8701 21.9969 27.837C22.0634 27.7651 22.1314 27.6936 22.2021 27.6227C22.2391 27.5855 22.2769 27.5484 22.3151 27.5115C22.3887 27.4403 22.4647 27.3697 22.5425 27.2996C22.5765 27.2689 22.6096 27.238 22.6444 27.2075C22.7566 27.1095 22.8722 27.0124 22.9927 26.9167C23.0157 26.8984 23.0402 26.8807 23.0634 26.8626C23.1647 26.7835 23.2687 26.7053 23.3758 26.628C23.4181 26.5974 23.4615 26.5671 23.5047 26.5368C23.6008 26.4695 23.6991 26.4029 23.7996 26.3371C23.8424 26.3091 23.8846 26.2808 23.9282 26.2531C24.07 26.1628 24.2149 26.0733 24.3652 25.9859C24.3659 25.9856 24.3665 25.9852 24.3671 25.9848C25.37 25.402 26.4906 24.9285 27.6851 24.5642C28.0832 24.4428 28.4896 24.3335 28.9025 24.2363C29.3154 24.1392 29.7349 24.0542 30.1594 23.9814C30.7961 23.8721 31.4439 23.7901 32.0973 23.7355C32.533 23.6991 32.9711 23.6747 33.4101 23.6626C33.8491 23.6504 34.2891 23.6504 34.7282 23.6626C38.0219 23.7535 41.2734 24.5273 43.7963 25.9839C46.5224 27.5578 49.2484 29.1317 51.9745 30.7056C52.0342 30.74 52.0888 30.7762 52.1403 30.8134L52.9337 30.7104L41.5584 21.8985Z" fill="#C1DBF6"/>
<path d="M21.5362 34.7888C18.6421 32.3395 15.9861 14.9325 16.3714 11.0938C16.6553 8.26643 22.936 5.54396 26.2258 4.3056C22.768 4.60515 19.5117 6.11989 17.053 8.60823L16.3832 9.28613C15.8632 9.81239 15.6008 10.5405 15.6654 11.2775L16.3616 19.2123C16.5946 21.8675 17.0346 24.5004 17.6775 27.087L19.5548 34.6392C19.5814 34.778 19.6137 34.9186 19.6528 35.0333C19.6614 35.0586 19.6727 35.0876 19.682 35.1139C19.6738 35.0868 19.6662 35.0598 19.6585 35.0327C19.6717 35.0789 19.6882 35.1248 19.7028 35.1709C19.6959 35.1519 19.6886 35.1324 19.682 35.1139C19.7868 35.4582 19.9274 35.7994 20.1057 36.1358C20.0962 36.1157 20.0868 36.0957 20.0773 36.0752C20.1094 36.1376 20.1414 36.2001 20.1761 36.2621C20.1525 36.22 20.1281 36.178 20.1057 36.1358C20.1241 36.1746 20.1431 36.2171 20.161 36.2535C20.263 36.4611 20.4382 36.7171 20.5727 36.9052C20.7127 37.1009 20.9055 37.3592 21.0723 37.5325C21.1467 37.6098 21.2295 37.6929 21.3146 37.777C21.3408 37.8042 21.369 37.831 21.3958 37.8581C21.4517 37.9146 21.5078 37.9708 21.566 38.0267C21.631 38.089 21.6987 38.1507 21.7667 38.2123C21.8136 38.2547 21.8584 38.2977 21.9067 38.3397C21.8997 38.3334 21.8926 38.3266 21.8856 38.3201C21.8947 38.3281 21.903 38.3363 21.9122 38.3443C21.9104 38.3427 21.9085 38.3412 21.9067 38.3397C22.024 38.4469 22.1388 38.5501 22.2445 38.6415C22.4582 38.8263 22.7696 39.0407 23.0035 39.1994C23.2364 39.3574 23.5604 39.5472 23.7991 39.6961C23.7866 39.6889 23.78 39.6776 23.7801 39.662L23.7853 37.7988C23.7856 37.6959 24.0743 37.4449 24.4302 37.2379C23.1711 36.511 22.209 35.6776 21.5362 34.7888ZM19.5949 34.8004C19.6022 34.831 19.6098 34.8615 19.6176 34.892L19.6177 34.8923C19.6098 34.8616 19.6022 34.831 19.5949 34.8004ZM20.4014 36.6346C20.5702 36.8946 20.7626 37.1505 20.9768 37.4018C20.7623 37.1505 20.5705 36.8945 20.4014 36.6346Z" fill="#C1DBF6"/>
<path d="M30.0478 4.24729C30.8871 4.24729 31.6502 4.73438 32.0035 5.49573L36.9126 16.0723C37.9734 18.3577 39.5664 20.3556 41.5583 21.8985L52.8474 30.6434C52.8786 30.6656 52.9064 30.6867 52.9336 30.7103C53.0129 30.7789 53.1148 30.875 53.1875 30.9506C53.2238 30.9883 53.2658 31.0445 53.2961 31.0872C53.4562 31.3122 53.5384 31.5542 53.5404 31.8065L53.5351 33.6697C53.5349 33.7436 53.524 33.8174 53.5083 33.8909C53.5055 33.9079 53.5032 33.927 53.5001 33.9423C53.491 33.9885 53.4664 34.0467 53.4514 34.0913C53.451 34.0926 53.399 34.2295 53.3012 34.3672C53.1804 34.5373 52.7967 34.8564 52.6083 34.975C52.5992 34.9802 50.9834 35.9192 50.9834 35.9192L50.6788 36.0963V51.5031C50.6788 52.1343 50.1672 52.6459 49.5359 52.6459C48.9047 52.6459 48.3931 52.1343 48.3931 51.5031V37.4246L47.7337 37.8078L46.1088 38.752L44.484 39.6963L42.8591 40.6406L41.2342 41.5848L39.6094 42.5291L37.9845 43.4733C37.9845 43.4733 36.4051 44.3838 36.3791 44.3838C36.3788 44.3838 36.3787 44.3838 36.3787 44.3837C36.3787 44.3991 36.0564 44.5787 35.8426 44.6591V60.6352C35.8426 61.2664 35.331 61.7781 34.6997 61.7781C34.0685 61.7781 33.5569 61.2664 33.5569 60.6352V44.9085C33.0862 44.8535 32.5071 44.7224 31.9774 44.4179L31.1596 43.9457L30.3418 43.4735L29.524 43.0014L28.7061 42.5292L27.8883 42.0571L27.0705 41.5849L26.2527 41.1127L25.4349 40.6405L24.6171 40.1683L23.7993 39.6962C23.5606 39.5472 23.2365 39.3574 23.0036 39.1994C22.7697 39.0408 22.4583 38.8264 22.2446 38.6415C22.1926 38.5965 22.1351 38.5444 22.0795 38.4949L21.6292 41.3951L19.8822 52.6459C19.7947 53.2102 19.3081 53.6135 18.7542 53.6135C18.696 53.6135 18.6371 53.6091 18.5775 53.5997C17.9538 53.5028 17.5268 52.9189 17.6237 52.295L19.5362 39.9783L20.1261 36.1791C20.1194 36.1651 20.1125 36.1501 20.1057 36.1357C20.1125 36.1485 20.1201 36.1611 20.127 36.1738L20.1275 36.1701C20.1105 36.1385 20.0936 36.1069 20.0773 36.0752C20.0869 36.0957 20.0963 36.1157 20.1057 36.1357C19.9274 35.7995 19.7868 35.4583 19.6821 35.114C19.6887 35.1326 19.696 35.1521 19.7029 35.1711C19.6883 35.125 19.6718 35.079 19.6585 35.0327C19.6663 35.0598 19.6739 35.0869 19.6821 35.114C19.6728 35.0878 19.6614 35.0587 19.6528 35.0335C19.6138 34.9187 19.5814 34.778 19.5549 34.6393L17.6776 27.087C17.0347 24.5003 16.5947 21.8675 16.3617 19.2123L15.6655 11.2775C15.6008 10.5406 15.8633 9.81239 16.3832 9.28613L17.0531 8.60823C19.5117 6.11989 22.7681 4.60517 26.2259 4.3056C26.6457 4.26921 27.0679 4.24729 27.4926 4.24729H30.0478ZM30.0478 3.33301H27.4926C27.0663 3.33301 26.6261 3.35321 26.1469 3.39475C22.4602 3.71411 18.9996 5.3374 16.4027 7.96563L15.7329 8.64352C15.023 9.36202 14.6664 10.3512 14.7547 11.3574L15.4509 19.2922C15.6873 21.9862 16.1379 24.683 16.7903 27.3075L18.6619 34.8368C18.6999 35.031 18.741 35.1917 18.7872 35.3277C18.7946 35.3494 18.8034 35.3734 18.8123 35.3974L18.815 35.4046C18.9112 35.7165 19.0329 36.0256 19.178 36.3266L18.6327 39.8379L16.7202 52.1546C16.5462 53.2755 17.3163 54.329 18.4371 54.5031C18.5407 54.5194 18.6479 54.5277 18.7542 54.5277C19.7748 54.5277 20.6291 53.7952 20.7856 52.7859L22.5326 41.5353L22.7515 40.1255C22.857 40.1915 22.9661 40.258 23.0733 40.3233C23.1587 40.3753 23.2411 40.4255 23.3151 40.4717L23.3285 40.48L23.3421 40.4879L24.16 40.9601L24.9777 41.4323L25.7956 41.9044L26.6134 42.3766L27.4312 42.8488L28.2491 43.321L29.0669 43.7931L29.8847 44.2653L30.7025 44.7374L31.5203 45.2096C31.86 45.4047 32.2352 45.5568 32.6426 45.6648V60.6351C32.6426 61.7695 33.5655 62.6923 34.6998 62.6923C35.8341 62.6923 36.7569 61.7695 36.7569 60.6351V45.2317C36.7995 45.2049 36.8387 45.1781 36.875 45.1512C37.1379 45.0167 37.5849 44.759 38.4412 44.2654L40.0688 43.3196L41.6937 42.3753L43.3185 41.4311L44.9434 40.4868L46.5683 39.5425L47.4788 39.0133V51.503C47.4788 52.6373 48.4016 53.5602 49.536 53.5602C50.6703 53.5602 51.5931 52.6373 51.5931 51.503V36.6224C51.9914 36.3909 53.0453 35.7785 53.0668 35.766L53.081 35.7577L53.0952 35.7488C53.3066 35.6158 53.8193 35.2166 54.0466 34.8965C54.1988 34.6823 54.2925 34.4613 54.3208 34.3743L54.3251 34.3633C54.3457 34.3072 54.3767 34.2224 54.397 34.1201C54.4011 34.0998 54.405 34.0763 54.4086 34.0524C54.4357 33.9178 54.4491 33.7931 54.4494 33.6723L54.4547 31.809C54.4512 31.362 54.3082 30.9326 54.0412 30.5572C53.9717 30.4595 53.908 30.3807 53.8464 30.3168C53.7561 30.2229 53.6357 30.1088 53.5323 30.0192C53.4901 29.9826 53.4457 29.9476 53.3938 29.9101L42.1182 21.1757C40.2501 19.7286 38.7368 17.8307 37.742 15.6874L32.8329 5.11077C32.3316 4.03079 31.2384 3.33301 30.0478 3.33301Z" fill="#374874"/>
<path fill-rule="evenodd" clip-rule="evenodd" d="M19.7547 35.869C19.8686 35.8145 20.0051 35.8626 20.0596 35.9765C20.3345 36.5512 20.9685 37.3097 21.5347 37.908C21.8148 38.2038 22.0713 38.4533 22.2476 38.6125C22.3077 38.6668 22.3557 38.7081 22.3907 38.7365C22.4525 38.7495 22.5086 38.7878 22.5423 38.847C22.5475 38.8561 22.5545 38.8692 22.5608 38.8849C22.5658 38.8975 22.5773 38.9281 22.5787 38.9682C22.5802 39.01 22.5702 39.0998 22.4862 39.1628C22.4131 39.2177 22.3367 39.2104 22.3125 39.207C22.2631 39.1999 22.225 39.178 22.215 39.1722C22.2147 39.1721 22.2144 39.1719 22.2141 39.1717C22.1971 39.162 22.1808 39.1509 22.1667 39.1408C22.1116 39.1013 22.0327 39.0344 21.9412 38.9517C21.7545 38.7831 21.4894 38.5251 21.2027 38.2222C20.6356 37.6231 19.9561 36.8193 19.6472 36.1738C19.5927 36.06 19.6408 35.9235 19.7547 35.869Z" fill="#374874"/>
<path fill-rule="evenodd" clip-rule="evenodd" d="M36.5591 44.5348C36.6207 44.645 36.5812 44.7842 36.471 44.8458C36.2251 44.9831 35.9017 45.1408 35.3844 45.2656C35.1872 45.3132 34.9738 45.3479 34.7567 45.371L34.7509 45.3716L34.1767 45.4031H34.1704C33.6801 45.4031 32.7145 45.3337 31.8635 44.8446C31.754 44.7817 31.7163 44.642 31.7792 44.5325C31.8421 44.4231 31.9818 44.3854 32.0913 44.4483C32.8359 44.8762 33.7013 44.9453 34.1643 44.9459L34.7141 44.9158C34.9133 44.8944 35.1046 44.8629 35.2771 44.8212M36.5591 44.5348C36.4976 44.4246 36.3584 44.3851 36.2481 44.4467L36.5591 44.5348ZM36.2481 44.4467C36.0296 44.5687 35.7452 44.7083 35.2771 44.8212L36.2481 44.4467Z" fill="#374874"/>
<path fill-rule="evenodd" clip-rule="evenodd" d="M51.1811 36.033C51.2445 36.1422 51.2074 36.2821 51.0983 36.3455L49.4734 37.2897L47.8486 38.234C47.7394 38.2974 47.5995 38.2604 47.5361 38.1512C47.4727 38.0421 47.5097 37.9022 47.6189 37.8387L50.8686 35.9502C50.9778 35.8868 51.1176 35.9239 51.1811 36.033Z" fill="#374874"/>
</svg>
