<svg width="70" height="70" viewBox="0 0 70 70" fill="none" xmlns="http://www.w3.org/2000/svg">
<circle cx="35" cy="35" r="29" fill="white" stroke="#875B7B" stroke-width="2"/>
<path d="M34 24C34 23.4477 34.4477 23 35 23V23C35.5523 23 36 23.4477 36 24V35C36 35.5523 35.5523 36 35 36V36C34.4477 36 34 35.5523 34 35V24Z" fill="#875B7B"/>
<circle cx="35" cy="39" r="3" stroke="#875B7B" stroke-width="2"/>
<path d="M25 49C25 48.4477 25.4477 48 26 48H44C44.5523 48 45 48.4477 45 49V53C45 53.5523 44.5523 54 44 54H26C25.4477 54 25 53.5523 25 53V49Z" fill="#C0A5BD" stroke="#875B7B" stroke-width="2"/>
<path d="M34 14.0234C28.1407 14.2981 22.9093 16.974 19.2678 21.0893L21.1247 22.9463L19.9462 24.1248L18.2083 22.3869C15.5661 25.8989 14 30.2666 14 35H17V37H12V35C12 22.2975 22.2975 12 35 12C47.7025 12 58 22.2975 58 35V37H53V35H56C56 30.0425 54.2822 25.4863 51.4093 21.894L49.1785 24.1248L48 22.9463L50.3149 20.6314C46.6965 16.7762 41.6391 14.2878 36 14.0234V17H34V14.0234Z" fill="#875B7B"/>
</svg>
