<svg width="700" height="2113" viewBox="0 0 700 2113" fill="none" xmlns="http://www.w3.org/2000/svg" data-vsvg="002" class="theme_vehicle_svg_preview">
    <defs>
        <pattern id="theme_vehicle_s_cover_default_image_id" width="1" height="1" patternunits="objectBoundingBox">
            <image width="700" height="194" preserveAspectRatio="xMidYMid slice" href="#s_cover_default_image_url"></image>
        </pattern>
        <pattern id="theme_vehicle_s_three_columns_default_image_1_id" width="1" height="1" patternunits="objectBoundingBox">
            <image width="168" height="90" preserveAspectRatio="xMidYMid slice" href="#s_three_columns_default_image_1_url"></image>
        </pattern>
        <pattern id="theme_vehicle_s_three_columns_default_image_2_id" width="1" height="1" patternunits="objectBoundingBox">
            <image width="168" height="90" preserveAspectRatio="xMidYMid slice" href="#s_three_columns_default_image_2_url"></image>
        </pattern>
        <pattern id="theme_vehicle_s_three_columns_default_image_3_id" width="1" height="1" patternunits="objectBoundingBox">
            <image width="168" height="90" preserveAspectRatio="xMidYMid slice" href="#s_three_columns_default_image_3_url"></image>
        </pattern>
        <pattern id="theme_vehicle_s_key_images_default_image_1_id" width="1" height="1" patternunits="objectBoundingBox">
            <image width="130.052" height="90" preserveAspectRatio="xMidYMid slice" href="#s_media_list_default_image_1_url"></image>
        </pattern>
        <pattern id="theme_vehicle_s_key_images_default_image_2_id" width="1" height="1" patternunits="objectBoundingBox">
            <image width="130.052" height="90" preserveAspectRatio="xMidYMid slice" href="#s_image_text_default_image_url"></image>
        </pattern>
        <pattern id="theme_vehicle_s_key_images_default_image_3_id" width="1" height="1" patternunits="objectBoundingBox">
            <image width="130.052" height="90" preserveAspectRatio="xMidYMid slice" href="#s_media_list_default_image_2_url"></image>
        </pattern>
        <pattern id="theme_vehicle_s_key_images_default_image_4_id" width="1" height="1" patternunits="objectBoundingBox">
            <image width="130.052" height="90" preserveAspectRatio="xMidYMid slice" href="#s_text_image_default_image_url"></image>
        </pattern>
        <pattern id="theme_vehicle_s_picture_default_image_id" width="1" height="1" patternunits="objectBoundingBox">
            <image width="568" height="246" preserveAspectRatio="xMidYMid slice" href="#s_picture_default_image_url"></image>
        </pattern>
        <pattern id="theme_vehicle_s_media_list_default_image_1_id" width="1" height="1" patternunits="objectBoundingBox">
            <image width="175" height="115" preserveAspectRatio="xMidYMid slice" href="#s_media_list_default_image_1_url"></image>
        </pattern>
        <pattern id="theme_vehicle_s_media_list_default_image_2_id" width="1" height="1" patternunits="objectBoundingBox">
            <image width="175" height="115" preserveAspectRatio="xMidYMid slice" href="#s_media_list_default_image_2_url"></image>
        </pattern>
        <pattern id="theme_vehicle_s_media_list_default_image_3_id" width="1" height="1" patternunits="objectBoundingBox">
            <image width="175" height="115" preserveAspectRatio="xMidYMid slice" href="#s_media_list_default_image_3_url"></image>
        </pattern>
        <filter id="filter_readability_theme_vehicle">
            <feColorMatrix in="SourceGraphic" type="saturate" values="0"></feColorMatrix>
            <feComponentTransfer>
                <feFuncR type="table" tableValues="1 0"></feFuncR>
                <feFuncG type="table" tableValues="1 0"></feFuncG>
                <feFuncB type="table" tableValues="1 0"></feFuncB>
            </feComponentTransfer>
            <feComponentTransfer>
                <feFuncR type="linear" slope="10000" intercept="-4999.5"></feFuncR>
                <feFuncG type="linear" slope="10000" intercept="-4999.5"></feFuncG>
                <feFuncB type="linear" slope="10000" intercept="-4999.5"></feFuncB>
            </feComponentTransfer>
        </filter>
    </defs>
    <rect width="700" height="2113" fill="#ACACAC"></rect>
    <g clip-path="url(#clip0_30_2)" class="theme_vehicle">
        <rect width="700" height="2113" fill="#FFFFFF"></rect>
        <g class="svgc_menu">
            <rect width="700" height="40" fill="#MENU_COLOR" class="svgc_menu_bg"></rect>
            <path d="M76.6276 28.7725V25.889H69.5102V12.2278H66V28.7725H76.6276ZM85.5315 29C86.9964 29 88.3149 28.6663 89.4888 28.0009C90.6664 27.3374 91.5949 26.3705 92.2798 25.1041C92.9647 23.8396 93.3053 22.304 93.3053 20.4992C93.3053 18.6963 92.9628 17.1607 92.2779 15.8943C91.5949 14.6298 90.6664 13.6648 89.4907 12.9994C88.3149 12.334 86.9945 12.0003 85.5296 12.0003C84.0551 12.0003 82.7309 12.334 81.5571 12.9994C80.3851 13.663 79.4567 14.6298 78.7775 15.8943C78.0963 17.1607 77.7558 18.6963 77.7558 20.5011C77.7558 22.2983 78.0963 23.8301 78.7775 25.0965C79.4057 26.309 80.3706 27.3159 81.5571 27.9971C82.7309 28.6644 84.0551 28.9981 85.5296 28.9981L85.5315 29ZM85.5315 25.9042C84.7452 25.9215 83.9716 25.705 83.3093 25.2823C82.6758 24.8671 82.1868 24.2586 81.8367 23.4567C81.4886 22.6547 81.3135 21.6689 81.3135 20.4992C81.3135 19.3314 81.4886 18.3456 81.8367 17.5418C82.1849 16.7398 82.6758 16.1313 83.3093 15.718C83.9708 15.2951 84.7439 15.0786 85.5296 15.0962C86.3781 15.0962 87.1182 15.3028 87.7517 15.718C88.3834 16.1313 88.8742 16.7417 89.2224 17.5437C89.5725 18.3456 89.7456 19.3314 89.7456 20.5011C89.7456 21.6689 89.5725 22.6547 89.2224 23.4567C88.8742 24.2586 88.3853 24.8671 87.7517 25.2823C87.0897 25.7056 86.3178 25.9221 85.5315 25.9042ZM103.181 28.9981C104.576 28.9981 105.814 28.7175 106.895 28.1545C107.957 27.6101 108.84 26.7747 109.441 25.7468C110.057 24.7041 110.365 23.4567 110.365 22.0026V19.9172H103.417V22.5524H106.979L106.971 22.7912C106.939 23.2405 106.838 23.6481 106.673 24.014L106.534 24.2794C106.231 24.7994 105.779 25.2173 105.236 25.4795C104.673 25.7639 103.992 25.9042 103.198 25.9042C102.323 25.9042 101.562 25.6937 100.919 25.271C100.276 24.8482 99.7777 24.2321 99.4276 23.4244C99.0776 22.6168 98.9006 21.6367 98.9006 20.484C98.9006 19.3314 99.0795 18.3551 99.4352 17.555C99.7929 16.755 100.291 16.1446 100.933 15.7256C101.597 15.2987 102.375 15.0795 103.166 15.0962C103.619 15.0962 104.034 15.1531 104.41 15.2649C104.785 15.3787 105.12 15.5417 105.415 15.754C105.71 15.9663 105.959 16.2242 106.165 16.5294C106.37 16.8327 106.53 17.1816 106.644 17.5759H110.211C110.106 16.7824 109.844 16.0175 109.441 15.3256C109.043 14.6448 108.519 14.0458 107.896 13.5606C107.248 13.0556 106.518 12.6662 105.736 12.4098C104.889 12.1314 104.001 11.9931 103.109 12.0003C102.062 11.9908 101.023 12.186 100.052 12.5748C99.1182 12.9522 98.2753 13.522 97.5784 14.2469C96.8478 15.0159 96.286 15.9282 95.9289 16.9256C95.5369 17.9778 95.341 19.1741 95.341 20.5163C95.341 22.2604 95.6701 23.7676 96.3265 25.0359C96.94 26.2583 97.8963 27.2772 99.0795 27.9687C100.259 28.655 101.625 28.9981 103.181 28.9981ZM120.224 28.9981C121.689 28.9981 123.008 28.6663 124.184 28.0009C125.359 27.3374 126.29 26.3705 126.973 25.1041C127.658 23.8396 128 22.304 128 20.4992C128 18.6963 127.658 17.1607 126.973 15.8943C126.288 14.6298 125.359 13.6648 124.184 12.9994C123.008 12.334 121.689 12.0003 120.224 12.0003C118.748 12.0003 117.424 12.334 116.252 12.9994C115.078 13.663 114.151 14.6298 113.47 15.8943C112.789 17.1607 112.449 18.6963 112.449 20.5011C112.449 22.2983 112.789 23.8301 113.47 25.0965C114.151 26.3629 115.078 27.3298 116.252 27.9971C117.424 28.6644 118.748 28.9981 120.224 28.9981ZM120.224 25.9042C119.376 25.9042 118.634 25.6956 118.002 25.2823C117.371 24.8671 116.88 24.2586 116.531 23.4567C116.181 22.6547 116.008 21.6689 116.008 20.4992C116.008 19.3314 116.181 18.3456 116.531 17.5418C116.88 16.7398 117.369 16.1313 118.002 15.718C118.664 15.2948 119.438 15.0782 120.224 15.0962C121.073 15.0962 121.813 15.3028 122.445 15.718C123.078 16.1313 123.567 16.7417 123.917 17.5437C124.265 18.3456 124.44 19.3314 124.44 20.5011C124.44 21.6689 124.265 22.6547 123.917 23.4567C123.567 24.2586 123.078 24.8671 122.445 25.2823C121.783 25.7052 121.01 25.9217 120.224 25.9042Z" fill="#MENU_COLOR" class="svgc_invert" filter="url(#filter_readability_theme_vehicle)"></path>
            <rect x="207" y="14" width="44" height="12" fill="#MENU_COLOR" fill-opacity="0.4" class="svgc_invert" filter="url(#filter_readability_theme_vehicle)"></rect>
            <rect x="155" y="14" width="44" height="12" fill="#MENU_COLOR" fill-opacity="0.4" class="svgc_invert" filter="url(#filter_readability_theme_vehicle)"></rect>
            <rect x="259" y="14" width="44" height="12" fill="#MENU_COLOR" fill-opacity="0.4" class="svgc_invert" filter="url(#filter_readability_theme_vehicle)"></rect>
            <rect x="310" y="14" width="44" height="12" fill="#MENU_COLOR" fill-opacity="0.4" class="svgc_invert" filter="url(#filter_readability_theme_vehicle)"></rect>
            <rect x="362" y="14" width="44" height="12" fill="#MENU_COLOR" fill-opacity="0.4" class="svgc_invert" filter="url(#filter_readability_theme_vehicle)"></rect>
            <rect x="555" y="14" width="79" height="12" fill="#MENU_COLOR" class="svgc_invert" filter="url(#filter_readability_theme_vehicle)"></rect>
        </g>
        <g class="s_cover">
            <rect y="40" width="700" height="194" fill="url(#theme_vehicle_s_cover_default_image_id)" class="img_reference_s_cover_default_image"></rect>
            <rect y="40" width="700" height="194" fill="black" fill-opacity="0.2"></rect>
            <text fill="#383E45" xml:space="preserve" style="white-space: pre" font-family="Arial" font-size="36" font-weight="bold" letter-spacing="0em" class="svgc_invert" filter="url(#filter_readability_theme_vehicle)">
                <tspan x="190.145" y="115.98">Welcome Message</tspan>
            </text>
            <rect x="263" y="129" width="173" height="6" fill="#383E45" fill-opacity="0.5" class="svgc_invert" filter="url(#filter_readability_theme_vehicle)"></rect>
            <rect x="304" y="159" width="91" height="27" fill="#383E45" class="svgc_invert" filter="url(#filter_readability_theme_vehicle)"></rect>
        </g>
        <g class="s_three_columns">
            <rect y="234" width="700" height="336" fill="#F6F6F6"></rect>
            <text fill="#F6F6F6" xml:space="preserve" style="white-space: pre" font-family="Arial" font-size="24" font-weight="bold" letter-spacing="0em" class="svgc_invert" filter="url(#filter_readability_theme_vehicle)">
                <tspan x="66" y="288.32">Section title</tspan>
            </text>
            <g>
                <rect x="66" y="316" width="168" height="90" fill="url(#theme_vehicle_s_three_columns_default_image_1_id)" class="img_reference_s_three_columns_default_image_1"></rect>
                <rect x="66" y="406" width="168" height="122" fill="#FFFFFF"></rect>
                <rect x="76" y="415" width="42" height="5" fill="#FFFFFF" fill-opacity="0.4" class="svgc_invert" filter="url(#filter_readability_theme_vehicle)"></rect>
                <rect x="76" y="501" width="42" height="18" fill="#FFFFFF" class="svgc_invert" filter="url(#filter_readability_theme_vehicle)"></rect>
                <rect x="76" y="453" width="147" height="5" fill="#FFFFFF" fill-opacity="0.4" class="svgc_invert" filter="url(#filter_readability_theme_vehicle)"></rect>
                <rect x="76" y="463" width="111.674" height="5" fill="#FFFFFF" fill-opacity="0.4" class="svgc_invert" filter="url(#filter_readability_theme_vehicle)"></rect>
                <rect x="76" y="473" width="133.326" height="5" fill="#FFFFFF" fill-opacity="0.4" class="svgc_invert" filter="url(#filter_readability_theme_vehicle)"></rect>
                <rect x="76" y="483" width="100.279" height="5" fill="#FFFFFF" fill-opacity="0.4" class="svgc_invert" filter="url(#filter_readability_theme_vehicle)"></rect>
                <text fill="#FFFFFF" xml:space="preserve" style="white-space: pre" font-family="Arial" font-size="14" font-weight="bold" letter-spacing="0em" class="svgc_invert" filter="url(#filter_readability_theme_vehicle)">
                    <tspan x="76" y="440.354">Entry Title</tspan>
                </text>
            </g>
            <g>
                <rect x="266" y="316" width="168" height="90" fill="url(#theme_vehicle_s_three_columns_default_image_2_id)" class="img_reference_s_three_columns_default_image_2"></rect>
                <rect x="266" y="406" width="168" height="122" fill="#FFFFFF"></rect>
                <rect x="276" y="415" width="42" height="5" fill="#FFFFFF" fill-opacity="0.4" class="svgc_invert" filter="url(#filter_readability_theme_vehicle)"></rect>
                <rect x="276" y="501" width="42" height="18" fill="#FFFFFF" class="svgc_invert" filter="url(#filter_readability_theme_vehicle)"></rect>
                <rect x="276" y="453" width="147" height="5" fill="#FFFFFF" fill-opacity="0.4" class="svgc_invert" filter="url(#filter_readability_theme_vehicle)"></rect>
                <rect x="276" y="463" width="111.674" height="5" fill="#FFFFFF" fill-opacity="0.4" class="svgc_invert" filter="url(#filter_readability_theme_vehicle)"></rect>
                <rect x="276" y="473" width="133.326" height="5" fill="#FFFFFF" fill-opacity="0.4" class="svgc_invert" filter="url(#filter_readability_theme_vehicle)"></rect>
                <rect x="276" y="483" width="100.279" height="5" fill="#FFFFFF" fill-opacity="0.4" class="svgc_invert" filter="url(#filter_readability_theme_vehicle)"></rect>
                <text fill="#FFFFFF" xml:space="preserve" style="white-space: pre" font-family="Arial" font-size="14" font-weight="bold" letter-spacing="0em" class="svgc_invert" filter="url(#filter_readability_theme_vehicle)">
                    <tspan x="276" y="440.354">Entry Title</tspan>
                </text>
            </g>
            <g>
                <rect x="466" y="316" width="168" height="90" fill="url(#theme_vehicle_s_three_columns_default_image_3_id)" class="img_reference_s_three_columns_default_image_3"></rect>
                <rect x="466" y="406" width="168" height="122" fill="#FFFFFF"></rect>
                <path d="M476 415H518V420H476V415Z" fill="#FFFFFF" fill-opacity="0.4" class="svgc_invert" filter="url(#filter_readability_theme_vehicle)"></path>
                <rect x="476" y="501" width="42" height="18" fill="#FFFFFF" class="svgc_invert" filter="url(#filter_readability_theme_vehicle)"></rect>
                <rect x="476" y="453" width="147" height="5" fill="#FFFFFF" fill-opacity="0.4" class="svgc_invert" filter="url(#filter_readability_theme_vehicle)"></rect>
                <rect x="476" y="463" width="111.674" height="5" fill="#FFFFFF" fill-opacity="0.4" class="svgc_invert" filter="url(#filter_readability_theme_vehicle)"></rect>
                <rect x="476" y="473" width="133.326" height="5" fill="#FFFFFF" fill-opacity="0.4" class="svgc_invert" filter="url(#filter_readability_theme_vehicle)"></rect>
                <rect x="476" y="483" width="100.279" height="5" fill="#FFFFFF" fill-opacity="0.4" class="svgc_invert" filter="url(#filter_readability_theme_vehicle)"></rect>
                <text fill="#FFFFFF" xml:space="preserve" style="white-space: pre" font-family="Arial" font-size="14" font-weight="bold" letter-spacing="0em" class="svgc_invert" filter="url(#filter_readability_theme_vehicle)">
                    <tspan x="476" y="440.354">Entry Title</tspan>
                </text>
            </g>
        </g>
        <g class="s_key_images">
            <rect y="980" width="700" height="286" fill="#FFFFFF"></rect>
            <text fill="#FFFFFF" xml:space="preserve" style="white-space: pre" font-family="Arial" font-size="24" font-weight="bold" letter-spacing="0em" class="svgc_invert" filter="url(#filter_readability_theme_vehicle)">
                <tspan x="66" y="1034.32">Section title</tspan>
            </text>
            <rect x="66" y="1045" width="98" height="6" fill="#FFFFFF" fill-opacity="0.4" class="svgc_invert" filter="url(#filter_readability_theme_vehicle)"></rect>
            <g>
                <rect x="66" y="1105" width="130.052" height="90" fill="url(#theme_vehicle_s_key_images_default_image_1_id)" class="img_reference_s_key_images_default_image_1"></rect>
                <rect x="69.0964" y="1205" width="124.633" height="5" fill="#FFFFFF" fill-opacity="0.4" class="svgc_invert" filter="url(#filter_readability_theme_vehicle)"></rect>
                <rect x="69.0964" y="1215" width="94.4425" height="5" fill="#FFFFFF" fill-opacity="0.4" class="svgc_invert" filter="url(#filter_readability_theme_vehicle)"></rect>
                <text fill="#FFFFFF" xml:space="preserve" style="white-space: pre" font-family="Arial" font-size="20" letter-spacing="0em" class="svgc_invert" filter="url(#filter_readability_theme_vehicle)">
                    <tspan x="66" y="1092.43">01</tspan>
                </text>
            </g>
            <g>
                <rect x="211.983" y="1105" width="130.052" height="90" fill="url(#theme_vehicle_s_key_images_default_image_2_id)" class="img_reference_s_key_images_default_image_2"></rect>
                <rect x="215.079" y="1205" width="124.633" height="5" fill="#FFFFFF" fill-opacity="0.4" class="svgc_invert" filter="url(#filter_readability_theme_vehicle)"></rect>
                <rect x="215.079" y="1215" width="94.4425" height="5" fill="#FFFFFF" fill-opacity="0.4" class="svgc_invert" filter="url(#filter_readability_theme_vehicle)"></rect>
                <text fill="#FFFFFF" xml:space="preserve" style="white-space: pre" font-family="Arial" font-size="20" letter-spacing="0em" class="svgc_invert" filter="url(#filter_readability_theme_vehicle)">
                    <tspan x="211.983" y="1092.43">02</tspan>
                </text>
            </g>
            <g>
                <rect x="357.965" y="1105" width="130.052" height="90" fill="url(#theme_vehicle_s_key_images_default_image_3_id)" class="img_reference_s_key_images_default_image_3"></rect>
                <rect x="361.062" y="1205" width="124.633" height="5" fill="#FFFFFF" fill-opacity="0.4" class="svgc_invert" filter="url(#filter_readability_theme_vehicle)"></rect>
                <rect x="361.062" y="1215" width="94.4425" height="5" fill="#FFFFFF" fill-opacity="0.4" class="svgc_invert" filter="url(#filter_readability_theme_vehicle)"></rect>
                <text fill="#FFFFFF" xml:space="preserve" style="white-space: pre" font-family="Arial" font-size="20" letter-spacing="0em" class="svgc_invert" filter="url(#filter_readability_theme_vehicle)">
                    <tspan x="357.965" y="1092.43">03</tspan>
                </text>
            </g>
            <g>
                <rect x="503.948" y="1105" width="130.052" height="90" fill="url(#theme_vehicle_s_key_images_default_image_4_id)" class="img_reference_s_key_images_default_image_4"></rect>
                <rect x="507.045" y="1205" width="124.633" height="5" fill="#FFFFFF" fill-opacity="0.4" class="svgc_invert" filter="url(#filter_readability_theme_vehicle)"></rect>
                <rect x="507.045" y="1215" width="94.4425" height="5" fill="#FFFFFF" fill-opacity="0.4" class="svgc_invert" filter="url(#filter_readability_theme_vehicle)"></rect>
                <text fill="#FFFFFF" xml:space="preserve" style="white-space: pre" font-family="Arial" font-size="20" letter-spacing="0em" class="svgc_invert" filter="url(#filter_readability_theme_vehicle)">
                    <tspan x="503.948" y="1092.43">04</tspan>
                </text>
            </g>
        </g>
        <g class="s_numbers_charts">
            <rect y="1266" width="700" height="261" fill="#FFFFFF"></rect>
            <text fill="#FFFFFF" xml:space="preserve" style="white-space: pre" font-family="Arial" font-size="24" font-weight="bold" letter-spacing="0em" class="svgc_invert" filter="url(#filter_readability_theme_vehicle)">
                <tspan x="66" y="1295.32">Section title</tspan>
            </text>
            <rect x="66" y="1306" width="274" height="6" fill="#FFFFFF" fill-opacity="0.4" class="svgc_invert" filter="url(#filter_readability_theme_vehicle)"></rect>
            <rect x="66" y="1317" width="248" height="6" fill="#FFFFFF" fill-opacity="0.4" class="svgc_invert" filter="url(#filter_readability_theme_vehicle)"></rect>
            <g>
                <rect x="66" y="1399" width="215.366" height="5" fill="#FFFFFF" fill-opacity="0.4" class="svgc_invert" filter="url(#filter_readability_theme_vehicle)"></rect>
                <rect x="66" y="1409" width="163.197" height="5" fill="#FFFFFF" fill-opacity="0.4" class="svgc_invert" filter="url(#filter_readability_theme_vehicle)"></rect>
                <rect x="66" y="1426" width="216" height="5" rx="2.5" fill="#FFFFFF" fill-opacity="0.4" class="svgc_invert" filter="url(#filter_readability_theme_vehicle)"></rect>
                <rect x="66" y="1426" width="174.528" height="5" rx="2.5" fill="#FFFFFF" class="svgc_invert" filter="url(#filter_readability_theme_vehicle)"></rect>
                <text fill="#FFFFFF" xml:space="preserve" style="white-space: pre" font-family="Arial" font-size="20" letter-spacing="0em" class="svgc_invert" filter="url(#filter_readability_theme_vehicle)">
                    <tspan x="66" y="1383.43">$ 2.4B</tspan>
                </text>
            </g>
            <g>
                <rect x="66" y="1486" width="215.366" height="5" fill="#FFFFFF" fill-opacity="0.4" class="svgc_invert" filter="url(#filter_readability_theme_vehicle)"></rect>
                <rect x="66" y="1496" width="163.197" height="5" fill="#FFFFFF" fill-opacity="0.4" class="svgc_invert" filter="url(#filter_readability_theme_vehicle)"></rect>
                <rect x="66" y="1513" width="216" height="5" rx="2.5" fill="#FFFFFF" fill-opacity="0.4" class="svgc_invert" filter="url(#filter_readability_theme_vehicle)"></rect>
                <rect x="66" y="1513" width="174.528" height="5" rx="2.5" fill="#FFFFFF" class="svgc_invert" filter="url(#filter_readability_theme_vehicle)"></rect>
                <text fill="#FFFFFF" xml:space="preserve" style="white-space: pre" font-family="Arial" font-size="20" letter-spacing="0em" class="svgc_invert" filter="url(#filter_readability_theme_vehicle)">
                    <tspan x="66" y="1470.43">+300,000</tspan>
                </text>
            </g>
            <g>
                <rect x="437" y="1280" width="197" height="238" fill="#F6F6F6"></rect>
                <rect x="467" y="1469" width="138" height="6" fill="#FFFFFF" fill-opacity="0.4" class="svgc_invert" filter="url(#filter_readability_theme_vehicle)"></rect>
                <rect x="486" y="1480" width="98" height="6" fill="#FFFFFF" fill-opacity="0.4" class="svgc_invert" filter="url(#filter_readability_theme_vehicle)"></rect>
                <text fill="#FFFFFF" xml:space="preserve" style="white-space: pre" font-family="Arial" font-size="30" letter-spacing="0em" class="svgc_invert" filter="url(#filter_readability_theme_vehicle)">
                    <tspan x="505.456" y="1441.4">75%</tspan>
                </text>
                <g>
                    <path d="M535.5 1309C527.688 1309 520.051 1311.32 513.555 1315.66C507.059 1320 501.996 1326.17 499.007 1333.38C496.017 1340.6 495.235 1348.54 496.759 1356.21C498.283 1363.87 502.045 1370.91 507.569 1376.43C513.093 1381.95 520.132 1385.72 527.794 1387.24C535.456 1388.77 543.398 1387.98 550.616 1384.99C557.834 1382 564.003 1376.94 568.343 1370.45C572.683 1363.95 575 1356.31 575 1348.5H535.5L535.5 1309Z" fill="#7C6576"></path>
                    <path d="M562.102 1348.5C562.102 1363.19 550.192 1375.1 535.5 1375.1C520.808 1375.1 508.898 1363.19 508.898 1348.5C508.898 1333.81 520.808 1321.9 535.5 1321.9C550.192 1321.9 562.102 1333.81 562.102 1348.5Z" fill="#F6F6F6"></path>
                </g>
            </g>
        </g>
        <g class="s_picture">
            <rect y="570" width="700" height="410" fill="#383E45"></rect>
            <text fill="#383E45" xml:space="preserve" style="white-space: pre" font-family="Arial" font-size="24" font-weight="bold" letter-spacing="0em" class="svgc_invert" filter="url(#filter_readability_theme_vehicle)">
                <tspan x="282.438" y="625.32">Section title</tspan>
            </text>
            <rect x="66" y="664" width="568" height="246" fill="url(#theme_vehicle_s_picture_default_image_id)" class="img_reference_s_picture_default_image"></rect>
            <rect x="263" y="638" width="173" height="6" fill="#383E45" fill-opacity="0.5" class="svgc_invert" filter="url(#filter_readability_theme_vehicle)"></rect>
            <rect x="290" y="930" width="119" height="6" fill="#383E45" fill-opacity="0.5" class="svgc_invert" filter="url(#filter_readability_theme_vehicle)"></rect>
        </g>
        <g class="s_media_list">
            <rect y="1558" width="700" height="510" fill="#383E45"></rect>
            <text fill="#383E45" xml:space="preserve" style="white-space: pre" font-family="Arial" font-size="24" font-weight="bold" letter-spacing="0em" class="svgc_invert" filter="url(#filter_readability_theme_vehicle)">
                <tspan x="282.438" y="1612.32">Section title</tspan>
            </text>
            <g>
                <rect x="241" y="1652" width="393" height="115" fill="#FFFFFF"></rect>
                <rect x="261" y="1701" width="349" height="5" fill="#FFFFFF" fill-opacity="0.4" class="svgc_invert" filter="url(#filter_readability_theme_vehicle)"></rect>
                <rect x="261" y="1711" width="328" height="5" fill="#FFFFFF" fill-opacity="0.4" class="svgc_invert" filter="url(#filter_readability_theme_vehicle)"></rect>
                <rect x="261" y="1731" width="100.279" height="5" fill="#FFFFFF" class="svgc_invert" filter="url(#filter_readability_theme_vehicle)"></rect>
                <text fill="#FFFFFF" xml:space="preserve" style="white-space: pre" font-family="Arial" font-size="14" font-weight="bold" letter-spacing="0em" class="svgc_invert" filter="url(#filter_readability_theme_vehicle)">
                    <tspan x="261" y="1688.35">Entry Title</tspan>
                </text>
                <rect x="66" y="1652" width="175" height="115" fill="url(#theme_vehicle_s_media_list_default_image_1_id)" class="img_reference_s_media_list_default_image_1"></rect>
            </g>
            <g>
                <rect x="66" y="1777" width="393" height="115" fill="#FFFFFF"></rect>
                <rect x="87" y="1826" width="349" height="5" fill="#FFFFFF" fill-opacity="0.4" class="svgc_invert" filter="url(#filter_readability_theme_vehicle)"></rect>
                <rect x="87" y="1836" width="328" height="5" fill="#FFFFFF" fill-opacity="0.4" class="svgc_invert" filter="url(#filter_readability_theme_vehicle)"></rect>
                <rect x="87" y="1856" width="100.279" height="5" fill="#FFFFFF" class="svgc_invert" filter="url(#filter_readability_theme_vehicle)"></rect>
                <text fill="#FFFFFF" xml:space="preserve" style="white-space: pre" font-family="Arial" font-size="14" font-weight="bold" letter-spacing="0em" class="svgc_invert" filter="url(#filter_readability_theme_vehicle)">
                    <tspan x="87" y="1813.35">Entry Title</tspan>
                </text>
                <rect x="459" y="1777" width="175" height="115" fill="url(#theme_vehicle_s_media_list_default_image_2_id)" class="img_reference_s_media_list_default_image_2"></rect>
            </g>
            <g>
                <rect x="66" y="1902" width="568" height="115" fill="#FFFFFF"></rect>
                <rect x="261" y="1951" width="349" height="5" fill="#FFFFFF" fill-opacity="0.4" class="svgc_invert" filter="url(#filter_readability_theme_vehicle)"></rect>
                <rect x="261" y="1961" width="328" height="5" fill="#FFFFFF" fill-opacity="0.4" class="svgc_invert" filter="url(#filter_readability_theme_vehicle)"></rect>
                <rect x="261" y="1981" width="100.279" height="5" fill="#FFFFFF" class="svgc_invert" filter="url(#filter_readability_theme_vehicle)"></rect>
                <text fill="#FFFFFF" xml:space="preserve" style="white-space: pre" font-family="Arial" font-size="14" font-weight="bold" letter-spacing="0em" class="svgc_invert" filter="url(#filter_readability_theme_vehicle)">
                    <tspan x="261" y="1938.35">Entry Title</tspan>
                </text>
                <rect x="66" y="1902" width="175" height="115" fill="url(#theme_vehicle_s_media_list_default_image_3_id)" class="img_reference_s_media_list_default_image_3"></rect>
            </g>
        </g>
        <g class="svgc_footer">
            <rect y="2068" width="700" height="45" fill="#FOOTER_COLOR" class="svgc_footer_bg"></rect>
            <rect x="161" y="2085" width="44" height="12" fill="#FOOTER_COLOR" fill-opacity="0.4" class="svgc_invert" filter="url(#filter_readability_theme_vehicle)"></rect>
            <rect x="213" y="2085" width="44" height="12" fill="#FOOTER_COLOR" fill-opacity="0.4" class="svgc_invert" filter="url(#filter_readability_theme_vehicle)"></rect>
            <rect x="264" y="2085" width="44" height="12" fill="#FOOTER_COLOR" fill-opacity="0.4" class="svgc_invert" filter="url(#filter_readability_theme_vehicle)"></rect>
            <rect x="316" y="2085" width="44" height="12" fill="#FOOTER_COLOR" fill-opacity="0.4" class="svgc_invert" filter="url(#filter_readability_theme_vehicle)"></rect>
            <rect x="594" y="2085" width="40" height="12" fill="#FOOTER_COLOR" class="svgc_invert" filter="url(#filter_readability_theme_vehicle)"></rect>
            <circle cx="573" cy="2091" r="6" fill="#FOOTER_COLOR" fill-opacity="0.4" class="svgc_invert" filter="url(#filter_readability_theme_vehicle)"></circle>
            <circle cx="551" cy="2091" r="6" fill="#FOOTER_COLOR" fill-opacity="0.4" class="svgc_invert" filter="url(#filter_readability_theme_vehicle)"></circle>
            <circle cx="529" cy="2091" r="6" fill="#FOOTER_COLOR" fill-opacity="0.4" class="svgc_invert" filter="url(#filter_readability_theme_vehicle)"></circle>
            <path d="M76.6276 2098.77V2095.89H69.5102V2082.23H66V2098.77H76.6276ZM85.5315 2099C86.9964 2099 88.3149 2098.67 89.4888 2098C90.6664 2097.34 91.5949 2096.37 92.2798 2095.1C92.9647 2093.84 93.3053 2092.3 93.3053 2090.5C93.3053 2088.7 92.9628 2087.16 92.2779 2085.89C91.5949 2084.63 90.6664 2083.66 89.4907 2083C88.3149 2082.33 86.9945 2082 85.5296 2082C84.0551 2082 82.7309 2082.33 81.5571 2083C80.3851 2083.66 79.4567 2084.63 78.7775 2085.89C78.0963 2087.16 77.7558 2088.7 77.7558 2090.5C77.7558 2092.3 78.0963 2093.83 78.7775 2095.1C79.4057 2096.31 80.3706 2097.32 81.5571 2098C82.7309 2098.66 84.0551 2099 85.5296 2099L85.5315 2099ZM85.5315 2095.9C84.7452 2095.92 83.9716 2095.71 83.3093 2095.28C82.6758 2094.87 82.1868 2094.26 81.8367 2093.46C81.4886 2092.65 81.3135 2091.67 81.3135 2090.5C81.3135 2089.33 81.4886 2088.35 81.8367 2087.54C82.1849 2086.74 82.6758 2086.13 83.3093 2085.72C83.9708 2085.3 84.7439 2085.08 85.5296 2085.1C86.3781 2085.1 87.1182 2085.3 87.7517 2085.72C88.3834 2086.13 88.8742 2086.74 89.2224 2087.54C89.5725 2088.35 89.7456 2089.33 89.7456 2090.5C89.7456 2091.67 89.5725 2092.65 89.2224 2093.46C88.8742 2094.26 88.3853 2094.87 87.7517 2095.28C87.0897 2095.71 86.3178 2095.92 85.5315 2095.9ZM103.181 2099C104.576 2099 105.814 2098.72 106.895 2098.15C107.957 2097.61 108.84 2096.77 109.441 2095.75C110.057 2094.7 110.365 2093.46 110.365 2092V2089.92H103.417V2092.55H106.979L106.971 2092.79C106.939 2093.24 106.838 2093.65 106.673 2094.01L106.534 2094.28C106.231 2094.8 105.779 2095.22 105.236 2095.48C104.673 2095.76 103.992 2095.9 103.198 2095.9C102.323 2095.9 101.562 2095.69 100.919 2095.27C100.276 2094.85 99.7777 2094.23 99.4276 2093.42C99.0776 2092.62 98.9006 2091.64 98.9006 2090.48C98.9006 2089.33 99.0795 2088.36 99.4352 2087.56C99.7929 2086.76 100.291 2086.14 100.933 2085.73C101.597 2085.3 102.375 2085.08 103.166 2085.1C103.619 2085.1 104.034 2085.15 104.41 2085.26C104.785 2085.38 105.12 2085.54 105.415 2085.75C105.71 2085.97 105.959 2086.22 106.165 2086.53C106.37 2086.83 106.53 2087.18 106.644 2087.58H110.211C110.106 2086.78 109.844 2086.02 109.441 2085.33C109.043 2084.64 108.519 2084.05 107.896 2083.56C107.248 2083.06 106.518 2082.67 105.736 2082.41C104.889 2082.13 104.001 2081.99 103.109 2082C102.062 2081.99 101.023 2082.19 100.052 2082.57C99.1182 2082.95 98.2753 2083.52 97.5784 2084.25C96.8478 2085.02 96.286 2085.93 95.9289 2086.93C95.5369 2087.98 95.341 2089.17 95.341 2090.52C95.341 2092.26 95.6701 2093.77 96.3265 2095.04C96.94 2096.26 97.8963 2097.28 99.0795 2097.97C100.259 2098.65 101.625 2099 103.181 2099ZM120.224 2099C121.689 2099 123.008 2098.67 124.184 2098C125.359 2097.34 126.29 2096.37 126.973 2095.1C127.658 2093.84 128 2092.3 128 2090.5C128 2088.7 127.658 2087.16 126.973 2085.89C126.288 2084.63 125.359 2083.66 124.184 2083C123.008 2082.33 121.689 2082 120.224 2082C118.748 2082 117.424 2082.33 116.252 2083C115.078 2083.66 114.151 2084.63 113.47 2085.89C112.789 2087.16 112.449 2088.7 112.449 2090.5C112.449 2092.3 112.789 2093.83 113.47 2095.1C114.151 2096.36 115.078 2097.33 116.252 2098C117.424 2098.66 118.748 2099 120.224 2099ZM120.224 2095.9C119.376 2095.9 118.634 2095.7 118.002 2095.28C117.371 2094.87 116.88 2094.26 116.531 2093.46C116.181 2092.65 116.008 2091.67 116.008 2090.5C116.008 2089.33 116.181 2088.35 116.531 2087.54C116.88 2086.74 117.369 2086.13 118.002 2085.72C118.664 2085.29 119.438 2085.08 120.224 2085.1C121.073 2085.1 121.813 2085.3 122.445 2085.72C123.078 2086.13 123.567 2086.74 123.917 2087.54C124.265 2088.35 124.44 2089.33 124.44 2090.5C124.44 2091.67 124.265 2092.65 123.917 2093.46C123.567 2094.26 123.078 2094.87 122.445 2095.28C121.783 2095.71 121.01 2095.92 120.224 2095.9Z" fill="#FOOTER_COLOR" class="svgc_invert" filter="url(#filter_readability_theme_vehicle)"></path>
        </g>
    </g>
    <defs>
        <clipPath id="clip0_30_2">
            <rect width="700" height="2113" fill="#FFFFFF"></rect>
        </clipPath>
    </defs>
</svg>
