<svg xmlns="http://www.w3.org/2000/svg" xmlns:xlink="http://www.w3.org/1999/xlink" width="600" height="600">
    <defs>
        <clipPath id="clip-path" clipPathUnits="objectBoundingBox">
            <use xlink:href="#filterPath" fill="none"/>
        </clipPath>
        <path id="filterPath" d="M0.4281,0.0681C0.4281,0.0305,0.4603,0,0.5,0C0.5397,0,0.5719,0.0305,0.5719,0.0681V0.1326C0.5779,0.1008,0.6073,0.0766,0.6427,0.0766C0.6824,0.0766,0.7146,0.1071,0.7146,0.1447V0.2432C0.7206,0.2114,0.75,0.1872,0.7854,0.1872C0.8251,0.1872,0.8573,0.2177,0.8573,0.2553V0.3539C0.8633,0.322,0.8927,0.2979,0.9281,0.2979C0.9678,0.2979,1,0.3284,1,0.366V0.5872C1,0.6248,0.9678,0.6553,0.9281,0.6553C0.8927,0.6553,0.8633,0.6312,0.8573,0.5993V0.7489C0.8573,0.7865,0.8251,0.817,0.7854,0.817C0.75,0.817,0.7206,0.7929,0.7146,0.761V0.8596C0.7146,0.8972,0.6824,0.9277,0.6427,0.9277C0.6073,0.9277,0.5779,0.9035,0.5719,0.8716V0.9319C0.5719,0.9695,0.5397,1,0.5,1C0.4603,1,0.4281,0.9695,0.4281,0.9319V0.8716C0.4221,0.9035,0.3927,0.9277,0.3573,0.9277C0.3176,0.9277,0.2854,0.8972,0.2854,0.8596V0.761C0.2794,0.7929,0.25,0.817,0.2146,0.817C0.1749,0.817,0.1427,0.7865,0.1427,0.7489V0.5993C0.1367,0.6312,0.1073,0.6553,0.0719,0.6553C0.0322,0.6553,0,0.6248,0,0.5872V0.366C0,0.3284,0.0322,0.2979,0.0719,0.2979C0.1073,0.2979,0.1367,0.322,0.1427,0.3539V0.2553C0.1427,0.2177,0.1749,0.1872,0.2146,0.1872C0.25,0.1872,0.2794,0.2114,0.2854,0.2432V0.1447C0.2854,0.1071,0.3176,0.0766,0.3573,0.0766C0.3927,0.0766,0.4221,0.1008,0.4281,0.1326V0.0681Z">
        </path>
    </defs>
    <svg viewBox="0 0 1 1" id="preview" preserveAspectRatio="none">
        <use xlink:href="#filterPath" fill="darkgrey"/>
    </svg>
    <image xlink:href="" clip-path="url(#clip-path)"/>
</svg>
