<?xml version="1.0" encoding="utf-8"?>
<!-- Generator: Adobe Illustrator 23.0.4, SVG Export Plug-In . SVG Version: 6.00 Build 0)  -->
<svg version="1.1" baseProfile="tiny" id="Layer_1" xmlns="http://www.w3.org/2000/svg" xmlns:xlink="http://www.w3.org/1999/xlink"
	 x="0px" y="0px" viewBox="0 0 1270 444.5" xml:space="preserve">
<rect y="56" fill="#002A39" width="1270" height="390"/>
<path fill="#002A39" d="M1265.2,32.6c-0.5,0.6-0.9,1.2-1.4,1.8c-1-2.7-2.2-5.4-3.4-7.8c-0.6-1.1-1.1-2.2-1.6-3.3
	c0.5-4.4,0.8-8.6,1-11.9c0.2-2.3,0.2-4.3,0.3-5.7s0.1-2.2,0.1-2.2s-0.2,0.8-0.6,2.1s-1,3.2-1.7,5.5c-0.6,1.9-1.3,4.1-2.2,6.5
	c-0.8-1.5-1.5-2.7-2-3.7l-1.1-1.9l0.6,2.2c0.4,1.4,1,3.4,1.6,5.8v0.1c-0.9,2.4-1.8,4.9-2.8,7.3c-0.6,1.5-1.2,2.9-1.8,4.3
	c-0.7-1.3-1.4-2.6-2.2-3.8c-1-1.6-2-3-3-4.1c-0.5-0.6-0.9-1.1-1.3-1.6c-0.2-0.2-0.4-0.4-0.5-0.6c-0.2-1.8-0.4-3.4-0.6-4.9
	c-0.2-1-0.3-2-0.5-2.8s-0.3-1.6-0.5-2.2l-0.4-1.9c0,0,0,0.7-0.1,2c0,0.6-0.1,1.4-0.1,2.2s-0.1,1.8-0.3,2.9c-0.2,2.1-0.6,4.5-1.1,7
	s-1.2,5.1-2,7.7s-1.8,5-2.7,7.2c-0.4,0.8-0.7,1.6-1.1,2.3l0,0c-0.4,0.9-1.5,1.3-2.5,0.9c-0.7-0.3-1.1-1-1.1-1.8
	c0-1.9,0.3-3.7,0.7-5.6c0.8-3.8,1.7-7.5,2.6-10.2c0.9-2.8,1.5-4.6,1.5-4.6l-0.9,1c-0.6,0.7-1.4,1.6-2.4,2.8c-2.4,2.9-4.6,6-6.7,9.2
	c-0.2,0.3-0.3,0.5-0.5,0.7c0-2.1,0.2-4.2,0.5-6.2c0.3-1.9,0.7-3.8,1.2-5.6l0.3-1.2c0.1-0.4,0.2-0.7,0.3-1c0.2-0.7,0.4-1.2,0.6-1.7
	c0.4-0.9,0.6-1.5,0.6-1.5l-1,1.2c-0.3,0.4-0.7,0.9-1.2,1.5l-0.7,0.9l-0.7,1.1c-1.2,1.7-2.2,3.6-3.2,5.4c-1.1,2.2-2,4.6-2.8,6.9
	c-0.4,1.2-0.7,2.4-1,3.6c0.1-0.5,0.1-1.1,0.2-1.6c0.3-1.8,0.6-3.6,1.1-5.4c0.2-0.8,0.4-1.5,0.6-2.1s0.4-1.2,0.5-1.6l0.5-1.4l-1,1.2
	c-0.3,0.4-0.7,0.8-1.1,1.4c-0.4,0.5-0.9,1.2-1.4,1.9c-0.9,1.3-1.8,2.7-2.5,4.1c0.7-5.5,1.1-10.8,1.4-14.9c0.2-2.3,0.3-4.3,0.3-5.7
	c0.1-1.4,0.1-2.2,0.1-2.2l-0.6,2.1c-0.4,1.3-1,3.2-1.7,5.5c-1.4,4.5-3.5,10.5-5.8,16.3c-0.8,1.9-1.5,3.8-2.3,5.6
	c-0.1-3.5-0.5-7-1.1-10.4c-0.3-1.5-0.5-2.8-0.7-3.7l-0.3-1.4l-0.2,1.5c-0.1,0.9-0.4,2.2-0.7,3.8c-0.8,3.7-1.8,7.3-3.1,10.8
	c-0.3,0.8-0.6,1.5-0.9,2.2c0.1-0.3,0.1-0.5,0.2-0.8c0.6-2.1,1-4.3,1.2-6.5c0.2-2.5,0.3-5,0.2-7.5c-0.2-2.5-0.5-4.9-1.1-7.3
	c-0.5-2.1-1.2-4.1-2-6.1c-0.2-0.4-0.3-0.8-0.5-1.2l-0.5-1.1c-0.3-0.7-0.6-1.3-0.9-1.7l-0.9-1.5l0.4,1.7c0.1,0.6,0.3,1.3,0.3,2
	c0,0.4,0.1,0.8,0.2,1.2s0.1,0.9,0.1,1.3c0.2,2.1,0.2,4.1,0,6.2c-0.2,2.3-0.6,4.5-1.2,6.7c-0.4,1.4-0.9,2.7-1.4,4
	c0-2-0.1-3.9-0.2-5.7c-0.2-2.7-0.4-5.1-0.6-7.2c-0.4-4.2-0.8-6.9-0.8-6.9s-0.4,2.8-1.2,6.9c-0.4,2.1-0.8,4.5-1.4,7.1
	s-1.3,5.3-2.1,7.9c-0.8,2.5-1.7,5-2.8,7.4l0,0c-0.4,0.9-1.4,1.3-2.3,0.9c-0.6-0.3-1-0.8-1-1.5c0-0.1,0-0.3,0-0.4
	c0.1-0.8,0.2-1.6,0.3-2.4c0.2-1.8,0.6-3.6,1-5.4c0.4-1.7,0.9-3.3,1.4-4.6c0.2-0.7,0.5-1.3,0.7-1.8s0.4-1,0.6-1.4l0.5-1.2l-1,0.9
	c-0.3,0.3-0.7,0.7-1.1,1.1s-0.9,0.9-1.4,1.5c-0.8,0.9-1.7,2-2.6,3.2c0.3-1.9,0.6-3.8,1-5.5c0.5-2.2,1.1-4.3,1.8-6.5
	c0.2-0.5,0.3-0.9,0.5-1.3s0.3-0.8,0.5-1.2c0.3-0.7,0.5-1.4,0.8-1.9l0.7-1.7l-1.2,1.4c-0.4,0.4-0.8,1-1.3,1.7
	c-0.5,0.7-1.1,1.4-1.7,2.3c-1.4,1.9-2.6,4-3.8,6c-1.3,2.5-2.5,5-3.6,7.7c-1,2.7-1.9,5.5-2.6,8.3c-0.1,0.6-0.3,1.1-0.4,1.7
	c-0.7-1.1-3.7-7.1-1.9-3.3c0.6,1.3-1.3-2.5-1.8-3.8c-0.3-0.7-0.5-1.4-0.8-2.1l0,0c0.4-1.3,1-2.5,1.6-3.6c0.7-1.1,1.5-2.2,2.3-3.2
	c0.2-0.2,0.4-0.4,0.6-0.6l0.5-0.5c0.3-0.3,0.6-0.5,0.9-0.8l0.8-0.6l-1.1,0.2c-0.4,0.1-0.9,0.2-1.3,0.3l-0.8,0.2
	c-0.3,0.1-0.6,0.2-0.9,0.3c-1.4,0.5-2.8,1.3-4,2.1c-0.1-1.4-0.2-2.7-0.1-4.1c0.1-2.5,0.4-5,1.1-7.4c0.5-1.7,1.1-3.4,1.8-5l0.9-1.8
	c0,0-0.5,0.5-1.4,1.5c-1.1,1.5-2.1,3-3,4.7c-1.3,2.4-2.4,5-3.1,7.6c-0.8,3-1.2,6.1-1.3,9.2c-0.4-0.7-0.7-1.5-1.1-2.2
	c-2.5-5.1-5.3-10-6.5-12c-0.2-2-0.4-3.8-0.7-5.5c-0.1-0.7-0.2-1.3-0.4-1.9s-0.3-1.2-0.4-1.7s-0.2-1.1-0.4-1.5
	c-0.1-0.5-0.3-0.9-0.4-1.3l-0.7-2.4c0,0,0.1,0.9,0.2,2.5c0,0.4,0.1,0.8,0.1,1.3s0,1,0,1.6s0,1.1,0,1.8c0,0.6,0,1.3-0.1,2
	c-0.1,3-0.5,6.1-1,9.1c-0.6,3-1.4,5.9-2.4,8.8c-0.9-1.9-1.9-3.6-3.1-5.4c-1.3-1.9-2.6-3.7-4.2-5.4l-0.9-1c-0.3-0.3-0.6-0.6-0.9-0.9
	c0,0-0.1,0-0.1-0.1c-0.1-2.8-0.3-5.4-0.5-7.6c-0.3-2.9-0.6-5.2-0.8-6.8l-0.3-2.6c0,0-0.1,0.9-0.2,2.6c-0.1,1.6-0.3,4-0.6,6.9
	c-0.6,5.6-1.7,13.3-4.4,20.2c-0.6,1.7-1.4,3.3-2.2,4.9c-0.8,1.5-1.7,2.9-2.7,4.3c-0.9,1.3-1.9,2.5-3,3.6c0.2-1.5,0.5-2.9,0.8-4.4
	c0.5-2.3,1.1-4.6,1.8-6.7c0.7-2.1,1.4-4,2-5.7c0.3-0.8,0.6-1.6,0.9-2.2c0.3-0.7,0.5-1.2,0.8-1.7c0.5-0.9,0.7-1.5,0.7-1.5l-1.2,1.2
	c-0.4,0.4-0.8,0.9-1.3,1.4c-0.5,0.6-1.1,1.2-1.7,1.9c-1.2,1.4-2.5,3.1-3.9,5s-2.8,4.1-4,6.3c-0.8,1.5-1.6,2.9-2.4,4.4
	c-0.1-0.7-0.2-1.3-0.3-2c-0.1-1.5-0.1-3,0-4.5c0.2-1.3,0.4-2.6,0.8-3.9c0.1-0.3,0.2-0.6,0.3-0.8c0.1-0.2,0.2-0.5,0.3-0.7
	c0.1-0.4,0.3-0.8,0.5-1.1l0.5-1l-0.9,0.7c-0.4,0.3-0.7,0.5-1,0.8l-0.6,0.6c-0.2,0.2-0.4,0.4-0.7,0.7c-1.1,1.2-2.1,2.4-2.9,3.8
	c-0.5,0.8-0.9,1.6-1.2,2.4c-0.4-2-0.6-4-0.8-6c-0.2-2.5-0.2-5-0.1-7.5c0.1-2.2,0.3-4.4,0.7-6.5c0.1-0.5,0.2-0.9,0.2-1.4
	c0.1-0.4,0.2-0.8,0.3-1.2c0.2-0.8,0.3-1.4,0.5-2l0.4-1.7l-0.9,1.6c-0.3,0.5-0.7,1.1-1,1.8c-0.2,0.4-0.4,0.7-0.6,1.1l-0.6,1.3
	c-1,2.1-1.9,4.3-2.7,6.5l-0.9,0.7c-0.4,0.3-0.7,0.6-1.1,1c-1.8,1.6-3.5,3.4-5,5.2c-1,1.2-2,2.6-3,4c-0.1-1-0.1-2-0.1-3
	c0-2.3,0.1-4.6,0.3-6.9c0.2-2.2,0.5-4.3,0.9-6c0.2-0.9,0.4-1.7,0.5-2.4c0.2-0.7,0.3-1.3,0.5-1.8l0.4-1.6l-0.9,1.4
	c-0.3,0.5-0.7,1-1,1.7s-0.8,1.4-1.3,2.2c-1.1,1.9-2,3.9-2.9,5.9c-1,2.4-1.9,4.8-2.6,7.2V29l-0.1-0.1c0.1-0.6,0.2-1.2,0.2-1.7
	c0.5-3.1,1.1-6.1,1.9-9s1.5-5.5,2.3-7.7c0.4-1.1,0.8-2.1,1.1-3s0.6-1.7,0.9-2.3l0.8-2l-1.3,1.8c-0.4,0.6-0.9,1.3-1.5,2
	c-0.6,0.8-1.2,1.7-1.8,2.7c-1.3,2-2.8,4.5-4.3,7.2c-1,1.9-2,4-3,6.1c-1.1-1.3-2.4-2.6-3.7-3.8c-0.5-0.5-1-0.9-1.4-1.3l-0.3-0.2
	c0-0.5,0.1-1,0.1-1.5c0.1-1,0.2-1.9,0.3-2.6c0.1-0.8,0.2-1.5,0.3-2c0.2-1.1,0.3-1.8,0.3-1.8l-0.8,1.6c-0.3,0.5-0.6,1.2-0.9,1.9
	s-0.7,1.6-1.1,2.6c0,0.1-0.1,0.2-0.1,0.3l-0.4-0.3c-0.4-0.3-0.7-0.5-1-0.8l-2-1.4l1.7,1.8c0.3,0.3,0.6,0.6,0.9,1l0.5,0.7
	c-0.6,1.6-1.2,3.4-1.8,5.4c-0.1,0.5-0.3,1-0.4,1.5c-0.7-3.1-1.6-6.3-2.5-9.1c-1-3.1-2.1-5.9-3.1-8.3c-0.5-1.2-1-2.3-1.4-3.2
	s-0.8-1.8-1.2-2.5l-1.3-2l0.6,2.3c0.2,0.7,0.4,1.6,0.6,2.7c0.2,1,0.5,2.2,0.7,3.5c0.3,1.6,0.6,3.3,0.8,5.2l-0.7,0.7l-0.9,1
	c-0.3,0.4-0.6,0.7-1,1.1c-1.6,1.9-3.1,3.8-4.4,5.9c-0.9,1.4-1.7,2.8-2.5,4.3c-0.3-0.8-0.5-1.5-0.8-2.3c-0.9-2.4-1.8-4.5-2.6-6.4
	c-0.4-0.9-0.8-1.8-1.2-2.5c-0.4-0.7-0.7-1.4-0.9-1.9c-0.5-1-0.8-1.6-0.8-1.6l0.4,1.8c0.1,0.6,0.2,1.3,0.4,2.1
	c0.1,0.8,0.3,1.7,0.4,2.7c0.3,2,0.5,4.3,0.7,6.8s0.2,5.1,0.1,7.7c0,1.5-0.1,3-0.2,4.5c-0.1,0.2-0.1,0.4-0.2,0.6
	c-0.2,0.8-0.4,1.6-0.6,2.4c-0.1-0.9-0.2-1.8-0.3-2.7c-0.3-2.8-0.8-5.7-1.4-8.6s-1.3-5.8-2.1-8.4c-0.8-2.7-1.6-5.1-2.4-7.2
	c-0.4-1-0.8-2-1.1-2.8c-0.3-0.8-0.6-1.6-0.9-2.1l-0.8-1.9c0,0,0.1,0.7,0.3,2c0.1,0.6,0.2,1.4,0.3,2.3c0.1,0.9,0.2,1.9,0.3,3
	c0.2,2.2,0.4,4.8,0.4,7.5s0,5.6-0.2,8.4s-0.5,5.6-0.9,8.2c-0.3,2-0.7,3.9-1.1,5.6c0-1.2,0.1-2.4,0.1-3.6c0-2.8-0.2-5.6-0.6-8.4
	s-0.9-5.5-1.5-8.2c-0.6-2.3-1.3-4.7-2.1-6.9c-0.4-1-0.7-1.9-1-2.7s-0.6-1.5-0.9-2l-0.8-1.8l0.3,2c0.1,0.6,0.2,1.4,0.3,2.2
	c0.1,0.9,0.2,1.8,0.3,2.9c0.2,2.4,0.2,4.7,0.1,7.1c-0.1,2.7-0.4,5.3-0.8,7.9c-0.1,0.6-0.2,1.2-0.3,1.9c0,1.1-0.1,2.3-0.2,3.4
	c-0.2,1.1-1.1,1.8-2.2,1.6c-0.9-0.1-1.6-1-1.7-1.9l0,0c0.1-2.2,0.3-4.4,0.6-6.6c0.3-2,0.7-3.9,1.1-5.8c0.2-0.9,0.4-1.6,0.7-2.3
	c0.2-0.7,0.4-1.3,0.6-1.8l0.6-1.6l-1,1.3c-0.3,0.4-0.7,0.9-1.1,1.5s-0.9,1.2-1.4,2c-1,1.5-2,3.2-3.1,5.2c-1.1,1.9-2,4.1-2.9,6.3
	c-0.2,0.4-0.3,0.8-0.5,1.3c-0.3-1.4-0.6-2.8-0.9-4.3c-0.4-2.6-0.7-5.3-0.8-7.9c-0.1-2.4,0-4.7,0.1-7.1c0.1-1.1,0.2-2,0.3-2.9
	s0.2-1.6,0.3-2.2c0.2-1.2,0.3-2,0.3-2l-0.8,1.8c-0.3,0.6-0.6,1.2-0.9,2c-0.3,0.8-0.7,1.7-1,2.7c-0.8,2.3-1.5,4.6-2.1,6.9
	c-0.7,2.7-1.2,5.5-1.5,8.2c-0.3,2.8-0.5,5.6-0.6,8.4c0,1.2,0,2.4,0.1,3.6c-0.4-1.7-0.7-3.6-1.1-5.6c-0.4-2.6-0.7-5.4-0.9-8.2
	s-0.3-5.7-0.2-8.4c0-2.7,0.2-5.3,0.4-7.5c0.1-1.1,0.2-2.1,0.3-3s0.2-1.7,0.3-2.3l0.3-2c0,0-0.3,0.7-0.8,1.8
	c-0.3,0.6-0.6,1.3-0.9,2.1c-0.3,0.8-0.7,1.8-1.1,2.8c-0.8,2.1-1.6,4.5-2.4,7.2s-1.5,5.5-2.1,8.4s-1,5.8-1.4,8.6
	c-0.1,0.9-0.2,1.8-0.3,2.7c-0.2-0.8-0.4-1.6-0.6-2.4c-0.1-0.2-0.1-0.4-0.2-0.6c-0.1-1.5-0.2-3-0.2-4.5c-0.1-2.6,0-5.2,0.1-7.7
	s0.4-4.8,0.7-6.8c0.1-1,0.3-1.9,0.4-2.7c0.1-0.8,0.3-1.5,0.4-2.1l0.4-1.8l-0.8,1.6c-0.3,0.5-0.6,1.1-0.9,1.9
	c-0.4,0.7-0.8,1.6-1.2,2.5c-0.8,1.8-1.7,4-2.6,6.4c-0.3,0.7-0.5,1.5-0.8,2.3c-0.8-1.5-1.7-3-2.5-4.3c-1.3-2.1-2.8-4-4.4-5.9
	c-0.4-0.4-0.7-0.8-1-1.1l-0.9-1l-0.7-0.7c0.2-1.9,0.5-3.6,0.8-5.2c0.2-1.3,0.5-2.4,0.7-3.5c0.2-1,0.4-1.9,0.6-2.7l0.6-2.3
	c0,0-0.4,0.8-1.1,2.1c-0.4,0.7-0.7,1.5-1.2,2.5s-1,2-1.4,3.2c-1,2.4-2.1,5.2-3.1,8.3c-0.9,2.9-1.8,6-2.5,9.1c-0.1-0.5-0.3-1-0.4-1.5
	c-0.6-2-1.2-3.8-1.8-5.4l0.6-0.7c0.3-0.4,0.6-0.7,0.9-1l1.7-1.8l-2,1.4c-0.3,0.2-0.7,0.5-1,0.8l-0.4,0.3l-0.1-0.3
	c-0.4-1-0.7-1.8-1.1-2.6s-0.6-1.4-0.9-1.9l-0.8-1.6l0.3,1.8c0.1,0.6,0.2,1.2,0.3,2s0.2,1.7,0.3,2.6c0.1,0.5,0.1,1,0.1,1.5l-0.3,0.2
	c-0.5,0.4-0.9,0.8-1.4,1.3c-1.3,1.2-2.5,2.4-3.7,3.8c-1-2.1-2-4.2-3-6.1c-1.5-2.7-2.9-5.2-4.3-7.2c-0.6-1-1.3-1.9-1.8-2.7
	c-0.6-0.8-1.1-1.5-1.5-2l-1.3-1.8c0,0,0.3,0.7,0.8,2c0.3,0.6,0.6,1.4,0.9,2.3c0.3,0.9,0.7,1.9,1.1,3c0.8,2.2,1.6,4.8,2.3,7.7
	c0.8,2.8,1.3,5.9,1.9,9l0.2,1.7l-0.1,0.1c0,0,0,0,0-0.1c-0.7-2.5-1.6-4.9-2.6-7.2c-0.9-2-1.8-4-2.9-5.9c-0.4-0.8-0.9-1.6-1.3-2.2
	c-0.4-0.6-0.7-1.2-1-1.7l-0.9-1.4c0,0,0.2,0.6,0.5,1.6c0.2,0.5,0.3,1.1,0.5,1.8s0.4,1.5,0.5,2.4c0.4,1.7,0.7,3.8,0.9,6
	c0.2,2.3,0.3,4.6,0.3,6.9c0,1-0.1,2-0.1,3c-1-1.4-2-2.8-3-4c-1.5-1.9-3.2-3.6-5-5.2c-0.4-0.3-0.7-0.7-1.1-1l-0.9-0.7
	c-0.8-2.2-1.7-4.4-2.7-6.5l-0.6-1.3c-0.2-0.4-0.4-0.8-0.6-1.1c-0.4-0.7-0.7-1.3-1-1.8l-1.1-1.6l0.4,1.7c0.2,0.5,0.3,1.2,0.4,2
	l0.3,1.2l0.2,1.4c0.4,2.2,0.6,4.4,0.7,6.5c0.1,2.5,0.1,5-0.1,7.4c-0.2,2.1-0.5,4.1-0.8,6c-0.4-0.8-0.8-1.7-1.2-2.4
	c-0.8-1.4-1.8-2.7-2.9-3.8c-0.2-0.2-0.4-0.5-0.7-0.7l-0.6-0.6c-0.3-0.3-0.7-0.6-1-0.8l-0.9-0.7c0,0,0.2,0.4,0.5,1
	c0.2,0.4,0.4,0.7,0.5,1.1c0.1,0.2,0.2,0.4,0.3,0.7s0.2,0.5,0.3,0.8c0.4,1.3,0.7,2.6,0.8,3.9c0.1,1.5,0.1,3,0,4.5
	c-0.1,0.7-0.2,1.3-0.3,2c-0.8-1.5-1.5-3-2.4-4.4c-1.3-2.2-2.7-4.4-4.1-6.3s-2.7-3.7-3.9-5c-0.6-0.7-1.2-1.4-1.7-1.9s-0.9-1-1.3-1.4
	l-1.2-1.2l0.7,1.5c0.2,0.5,0.5,1,0.8,1.7s0.6,1.4,0.9,2.2c0.7,1.6,1.4,3.6,2,5.7s1.3,4.4,1.8,6.7c0.3,1.5,0.6,2.9,0.8,4.4
	c-1.1-1.1-2.1-2.4-3-3.6c-1-1.4-1.9-2.8-2.7-4.3c-0.8-1.6-1.6-3.2-2.2-4.8c-2.7-6.8-3.8-14.5-4.4-20.2c-0.3-2.8-0.5-5.2-0.6-6.9
	L923.6,0l-0.3,2.6c-0.2,1.6-0.5,4-0.8,6.8c-0.2,2.2-0.4,4.8-0.5,7.6l-0.1,0.1L921,18l-1,1c-1.5,1.7-2.9,3.5-4.2,5.4
	c-1.1,1.7-2.1,3.5-3,5.4c-1-2.9-1.8-5.8-2.4-8.8c-0.5-3-0.9-6-1-9.1c0-0.7-0.1-1.3-0.1-2c0-0.6,0-1.2,0-1.8V6.8
	c0-0.5,0.1-0.9,0.1-1.3c0.1-1.6,0.2-2.5,0.2-2.5l-0.7,2.4c-0.1,0.4-0.3,0.8-0.4,1.3l-0.4,1.5c-0.1,0.5-0.3,1.1-0.4,1.7
	c-0.2,0.6-0.2,1.3-0.3,1.9c-0.3,1.7-0.5,3.5-0.7,5.5c-1.2,2-4,6.9-6.5,12c-0.4,0.7-0.7,1.5-1.1,2.2c0-3.1-0.5-6.2-1.3-9.2
	c-0.7-2.7-1.8-5.2-3.1-7.6c-0.9-1.6-2-3.2-3.2-4.6c-0.9-1-1.4-1.5-1.4-1.5l0.9,1.8c0.7,1.6,1.3,3.3,1.8,5c0.6,2.4,1,4.9,1.1,7.4
	c0,1.4,0,2.7-0.2,4.1c-1.2-0.9-2.5-1.6-3.9-2.1c-0.3-0.1-0.6-0.3-0.9-0.3l-0.8-0.2c-0.4-0.1-0.9-0.3-1.3-0.3l-1.1-0.2l0.8,0.6
	c0.3,0.2,0.6,0.5,0.9,0.8l0.5,0.5c0.2,0.2,0.4,0.4,0.6,0.6c0.9,1,1.7,2,2.3,3.2s1.2,2.4,1.6,3.6l0,0c-0.3,0.7-0.5,1.4-0.8,2.1
	c-0.5,1.3-2.4,5-1.8,3.8c1.8-3.8-1.3,2.2-1.9,3.3c-0.1-0.6-0.3-1.2-0.4-1.7c-0.7-2.8-1.6-5.6-2.7-8.3c-1-2.6-2.2-5.2-3.6-7.7
	c-1.1-2.1-2.4-4.1-3.8-6c-0.6-0.9-1.1-1.6-1.7-2.3c-0.5-0.7-0.9-1.2-1.3-1.7l-1.2-1.4l0.7,1.7c0.3,0.5,0.5,1.2,0.8,1.9
	c0.1,0.4,0.3,0.8,0.5,1.2c0.2,0.4,0.3,0.9,0.5,1.3c0.7,2.1,1.3,4.3,1.8,6.5c0.4,1.8,0.7,3.6,1,5.5c-0.9-1.2-1.8-2.3-2.6-3.2
	c-0.5-0.6-1-1.1-1.4-1.5s-0.8-0.8-1.1-1.1l-1-0.9c0,0,0.2,0.4,0.5,1.2c0.2,0.4,0.4,0.8,0.6,1.4c0.2,0.5,0.4,1.1,0.7,1.8
	c0.5,1.3,0.9,2.9,1.4,4.6c0.4,1.7,0.8,3.5,1,5.4c0.1,0.8,0.2,1.6,0.3,2.4c0,0.1,0,0.3,0,0.4c-0.1,1-0.9,1.7-1.9,1.6
	c-0.6,0-1.2-0.4-1.4-1l0,0c-1.1-2.4-2.1-4.9-2.8-7.4c-0.8-2.6-1.5-5.3-2.1-7.9s-1-5-1.4-7.1c-0.7-4.2-1.2-6.9-1.2-6.9
	s-0.3,2.7-0.8,6.9c-0.2,2.1-0.4,4.5-0.6,7.2c-0.1,1.8-0.2,3.8-0.2,5.7c-0.6-1.3-1-2.7-1.4-4c-0.6-2.2-1-4.4-1.2-6.7
	c-0.2-2.1-0.2-4.1,0-6.2c0-0.5,0.1-0.9,0.1-1.3c0.1-0.4,0.1-0.8,0.2-1.2c0.1-0.8,0.2-1.4,0.3-2c0.2-1.1,0.4-1.7,0.4-1.7
	s-0.3,0.5-0.8,1.5c-0.3,0.6-0.6,1.1-0.9,1.7l-0.5,1.1c-0.2,0.4-0.3,0.8-0.5,1.2c-0.8,2-1.5,4-2,6.1c-0.6,2.4-0.9,4.9-1.1,7.3
	c-0.1,2.5-0.1,5,0.2,7.5c0.3,2.2,0.7,4.4,1.3,6.5c0.1,0.3,0.1,0.5,0.2,0.8c-0.3-0.7-0.6-1.5-0.9-2.2c-1.3-3.5-2.4-7.2-3.1-10.8
	c-0.3-1.5-0.5-2.9-0.7-3.8l-0.2-1.5l-0.3,1.4c-0.2,0.9-0.5,2.1-0.7,3.7c-0.6,3.4-0.9,6.9-1.1,10.4c-0.8-1.8-1.6-3.7-2.3-5.6
	c-2.3-5.8-4.4-11.8-5.8-16.3c-0.7-2.3-1.3-4.2-1.7-5.5l-0.6-2.1c0,0,0,0.8,0.1,2.2s0.1,3.3,0.3,5.7c0.3,4.1,0.7,9.4,1.4,14.9
	c-0.8-1.4-1.6-2.8-2.5-4.1c-0.5-0.7-0.9-1.4-1.4-1.9s-0.8-1-1.1-1.4l-1-1.2c0,0,0.2,0.5,0.5,1.4c0.2,0.4,0.3,1,0.5,1.6
	s0.4,1.3,0.6,2.1c0.5,1.8,0.8,3.6,1.1,5.4c0.1,0.5,0.1,1.1,0.2,1.6c-0.3-1.2-0.6-2.4-1-3.6c-0.8-2.4-1.7-4.7-2.8-6.9
	c-0.9-1.9-2-3.7-3.2-5.4l-0.8-1.1l-0.7-0.9c-0.4-0.6-0.8-1.1-1.2-1.5l-1-1.2l0.6,1.5c0.2,0.5,0.4,1,0.6,1.7c0.1,0.3,0.2,0.7,0.3,1
	l0.3,1.2c0.5,1.8,0.9,3.7,1.2,5.6c0.3,2.1,0.4,4.1,0.5,6.2l-0.5-0.7c-2.1-3.2-4.3-6.2-6.7-9.1c-1-1.2-1.8-2.1-2.4-2.8l-0.9-1
	c0,0,0.7,1.8,1.5,4.6s1.8,6.5,2.6,10.2c0.4,1.8,0.6,3.7,0.7,5.6c0,1-0.8,1.9-1.8,1.9c-0.7,0-1.4-0.4-1.8-1.1l0,0
	c-0.4-0.7-0.7-1.5-1.1-2.3c-1-2.4-2-4.8-2.7-7.2c-0.8-2.5-1.5-5.2-2-7.7s-0.9-4.9-1.1-7c-0.1-1-0.2-2-0.3-2.9s-0.1-1.6-0.1-2.2
	l-0.1-2c0,0-0.2,0.7-0.4,1.9c-0.2,0.6-0.3,1.3-0.5,2.2c-0.2,0.8-0.4,1.8-0.5,2.8c-0.3,1.5-0.5,3.1-0.6,4.9l-0.5,0.6
	c-0.4,0.5-0.8,1-1.3,1.6c-1.1,1.3-2.1,2.7-3,4.1c-0.8,1.2-1.5,2.4-2.2,3.8c-0.6-1.4-1.2-2.9-1.8-4.3c-1-2.5-1.9-4.9-2.8-7.3V20
	c0.6-2.4,1.2-4.4,1.6-5.8s0.6-2.2,0.6-2.2s-0.4,0.7-1.1,1.9c-0.5,0.9-1.2,2.2-2,3.7c-0.8-2.3-1.5-4.5-2.2-6.5
	c-0.7-2.3-1.3-4.2-1.7-5.5l-0.6-2.1c0,0,0,0.8,0.1,2.2s0.2,3.3,0.3,5.7c0.2,3.4,0.6,7.5,1,11.9c-0.5,1.1-1.1,2.1-1.6,3.3
	c-1.1,2.4-2.3,5.1-3.4,7.8c-0.5-0.6-0.9-1.2-1.4-1.8c-1.8-2.1-3.7-4.1-5.7-6l-0.4-0.4l-0.6-0.9c-0.7-2-1.2-4.1-1.6-6.1
	c-0.2-0.9-0.3-1.7-0.4-2.4c-0.1-0.7-0.2-1.4-0.2-1.9c-0.1-1.1-0.2-1.7-0.2-1.7s-0.1,0.6-0.4,1.6c-0.1,0.5-0.2,1.1-0.4,1.9
	c-0.1,0.7-0.3,1.5-0.4,2.4c-0.2,1-0.3,2.2-0.3,3.5c-1-0.8-1.9-1.4-2.8-2c-0.7-0.5-1.2-0.8-1.7-1.1l-1.5-0.9l1.2,1.3
	c0.4,0.4,0.8,0.9,1.3,1.5s1,1.3,1.6,2.1c0.6,0.8,1.2,1.7,1.9,2.6c0,2,0.1,4.2,0.3,6.3c0.3,2.4,0.7,4.7,1.2,7.1
	c0.4,1.6,0.8,3.2,1.3,4.6H784l-0.2-1.3c-0.5-2.4-1.2-4.8-2-7.1c-0.8-2.2-1.7-4.4-2.8-6.5c-0.9-1.8-1.9-3.5-3-5.1
	c-0.5-0.7-0.9-1.4-1.4-1.9c-0.4-0.5-0.8-1-1.1-1.4c0.1-0.5,0.3-1,0.4-1.5c0.2-0.8,0.4-1.5,0.6-2.1c0.4-1.1,0.5-1.8,0.5-1.8l-1,1.5
	c-0.3,0.5-0.7,1.1-1.1,1.8s-0.9,1.5-1.4,2.4c-1,1.7-2,3.8-3,6.1c-0.7,1.7-1.4,3.6-2.1,5.4c-1.8-2.8-3.7-5.4-5.4-7.5
	c0.4-1.3,0.8-2.6,1.2-3.8c0.9-2.4,1.9-4.7,3-6.9c0.3-0.5,0.5-1,0.7-1.4c0.3-0.4,0.5-0.9,0.7-1.3c0.5-0.8,0.9-1.5,1.2-2l1.2-1.8
	l-1.5,1.4c-0.5,0.4-1.1,1-1.7,1.6l-1,1l-1.1,1.2c-1.7,1.9-3.3,3.9-4.8,6c-0.4,0.6-0.8,1.2-1.2,1.9l-0.4-0.4l-0.9-1
	c0,0,0.3,0.9,0.8,2.3c-1,1.6-1.9,3.3-2.8,5c-0.4,0.8-0.8,1.6-1.2,2.5c-0.6-1.9-1-3.9-1.4-5.8c-0.5-2.5-0.9-4.9-1.1-7
	c-0.1-1-0.2-2-0.3-2.9c-0.1-0.8-0.1-1.6-0.1-2.2c0-1.2-0.1-2-0.1-2l-0.4,1.9c-0.1,0.6-0.3,1.3-0.5,2.2c-0.2,0.8-0.4,1.8-0.5,2.8
	c-0.4,2.1-0.6,4.5-0.9,7.1c-0.1,1.1-0.1,2.3-0.2,3.5c-1.1-1.6-2.2-3-3.3-4.4l-1.1-1.3l-1.1-1.2c-0.4-0.4-0.7-0.8-1.1-1.1
	c-0.3-0.4-0.7-0.7-1-1c-0.5-0.5-1-0.8-1.6-1.1c-0.3-0.1-0.7-0.2-1-0.1c-0.2,0-0.4,0.1-0.6,0.2l-0.2,0.1h0.2c0.1,0,0.3,0.1,0.4,0.2
	c0.1,0.1,0.1,0.1,0.2,0.2l0.2,0.3c0.3,0.4,0.6,0.9,0.8,1.3s0.4,0.7,0.5,1.1c0.2,0.4,0.4,0.8,0.6,1.3l0.6,1.4c0.2,0.5,0.4,1,0.6,1.5
	c0.8,2.1,1.5,4.2,2.1,6.4c0.9,3.3,1.5,6.7,1.8,10.1c-2.8-3.8-4.8-8.8-8.2-12.6c1.4,3.2,2.3,6.6,2.8,10.1c0.3,2.1-0.4,5.2-2.9,5.6
	c-3.6,0.6-2.6-3.8-2.5-6.5c0.1-2.2,0.3-4.4,0.6-6.6c0.3-1.9,0.7-3.9,1.2-5.7c0.2-0.9,0.4-1.6,0.7-2.3c0.2-0.7,0.4-1.3,0.6-1.8
	c0.3-1,0.5-1.6,0.5-1.6l-1,1.3c-0.3,0.4-0.7,0.9-1.1,1.5s-0.9,1.2-1.4,2c-1,1.5-2,3.2-3.1,5.2c-1.1,1.9-2,4.1-2.9,6.3
	c-0.2,0.4-0.3,0.8-0.5,1.3c-0.3-1.4-0.6-2.8-0.9-4.3c-0.4-2.6-0.7-5.3-0.8-7.9c-0.1-2.4,0-4.7,0.1-7.1c0.1-1.1,0.2-2,0.3-2.9
	s0.2-1.6,0.3-2.2c0.2-1.2,0.3-2,0.3-2l-0.8,1.8c-0.3,0.6-0.6,1.2-0.9,2c-0.3,0.8-0.7,1.7-1,2.7c-0.8,2.3-1.5,4.6-2.1,6.9
	c-0.7,2.7-1.2,5.4-1.6,8.2c-0.3,2.8-0.5,5.6-0.6,8.4c0,1.2,0,2.4,0.1,3.6c-0.4-1.7-0.7-3.6-1.1-5.6c-0.4-2.6-0.7-5.4-0.9-8.2
	s-0.3-5.7-0.2-8.4c0-2.7,0.2-5.3,0.4-7.5c0.1-1.1,0.2-2.1,0.3-3s0.2-1.7,0.3-2.3c0.2-1.3,0.3-2,0.3-2l-0.8,1.8
	c-0.3,0.6-0.6,1.3-0.9,2.1c-0.3,0.8-0.7,1.8-1.1,2.8c-0.8,2.1-1.6,4.5-2.4,7.2s-1.5,5.5-2.1,8.4s-1,5.8-1.3,8.6
	c-0.1,0.9-0.2,1.8-0.3,2.7c-0.2-0.8-0.4-1.6-0.6-2.4c-0.1-0.2-0.1-0.4-0.2-0.6c-0.1-1.5-0.2-3-0.2-4.5c-0.1-2.6,0-5.2,0.1-7.7
	s0.4-4.8,0.7-6.8c0.1-1,0.3-1.9,0.4-2.7c0.1-0.8,0.3-1.5,0.4-2.1l0.4-1.8l-0.8,1.6c-0.3,0.5-0.6,1.1-0.9,1.9
	c-0.3,0.8-0.8,1.6-1.2,2.5c-0.8,1.8-1.7,4-2.6,6.4c-0.3,0.7-0.5,1.5-0.8,2.3c-0.8-1.5-1.7-3-2.5-4.3c-1.3-2.1-2.8-4-4.4-5.9
	c-0.4-0.4-0.7-0.8-1-1.1l-0.9-1l-0.6-0.7c0.2-1.9,0.5-3.6,0.8-5.2c0.2-1.3,0.5-2.4,0.7-3.5s0.4-1.9,0.6-2.7l0.6-2.3L697,2.4
	c-0.4,0.7-0.7,1.5-1.2,2.5c-0.4,1-1,2-1.4,3.2c-1,2.4-2.1,5.2-3.1,8.3c-0.9,2.9-1.8,6-2.5,9.1c-0.1-0.5-0.3-1-0.4-1.5
	c-0.8-2.5-1.5-4.8-2.3-6.7c-0.4-1-0.8-1.8-1.1-2.6s-0.6-1.4-0.9-1.9c-0.4-0.8-0.6-1.3-0.7-1.5c0.3-0.9,0.6-1.8,0.9-2.6
	c0.3-0.8,0.6-1.7,0.9-2.3c0.5-1.3,0.8-2,0.8-2l-1.3,1.8c-0.4,0.6-0.9,1.3-1.5,2c-0.6,0.8-1.2,1.7-1.8,2.7c-1.3,2-2.8,4.5-4.3,7.2
	l-0.6,1.3c-0.2-0.4-0.4-0.8-0.6-1.1c-1.5-2.7-2.9-5.2-4.3-7.2c-0.7-1-1.3-1.9-1.8-2.7c-0.6-0.8-1-1.5-1.5-2L668.2,4
	c0,0,0.3,0.7,0.8,2c0.3,0.6,0.6,1.4,0.9,2.3c0.3,0.9,0.6,1.6,0.9,2.6l-0.7,1.5c-0.3,0.5-0.6,1.2-0.9,1.9c-0.3,0.7-0.7,1.6-1.1,2.6
	c-0.8,1.9-1.6,4.2-2.3,6.7c-0.1,0.5-0.3,1-0.4,1.5c-0.7-3.1-1.6-6.3-2.5-9.1c-1-3.1-2.1-5.9-3.1-8.3c-0.5-1.2-1-2.3-1.4-3.2
	s-0.8-1.8-1.2-2.5l-1.1-2.2l0.6,2.3c0.2,0.7,0.4,1.6,0.6,2.7s0.5,2.2,0.7,3.5c0.3,1.6,0.6,3.3,0.8,5.2l-0.6,0.7l-0.9,1
	c-0.3,0.4-0.6,0.7-1,1.1c-1.6,1.9-3.1,3.8-4.4,5.9c-0.9,1.4-1.7,2.8-2.5,4.3c-0.3-0.8-0.5-1.5-0.8-2.3c-0.9-2.4-1.8-4.5-2.6-6.4
	c-0.4-0.9-0.8-1.8-1.2-2.5s-0.7-1.4-0.9-1.9c-0.5-1-0.8-1.6-0.8-1.6s0.1,0.7,0.4,1.8c0.1,0.6,0.2,1.3,0.4,2.1
	c0.1,0.8,0.3,1.7,0.4,2.7c0.3,2,0.5,4.3,0.7,6.8s0.2,5.1,0.1,7.7c0,1.5-0.1,3-0.2,4.5c-0.1,0.2-0.1,0.4-0.2,0.6
	c-0.2,0.8-0.4,1.6-0.6,2.4c-0.1-0.9-0.2-1.8-0.3-2.7c-0.3-2.8-0.8-5.7-1.4-8.6s-1.3-5.8-2-8.4s-1.6-5.1-2.4-7.2
	c-0.4-1-0.8-2-1.1-2.8s-0.6-1.6-0.9-2.1l-1-1.8c0,0,0.1,0.7,0.3,2c0.1,0.6,0.2,1.4,0.3,2.3c0.1,0.9,0.2,1.9,0.3,3
	c0.2,2.2,0.4,4.8,0.4,7.5s0,5.6-0.2,8.4s-0.5,5.6-0.9,8.2c-0.3,2-0.7,3.9-1.1,5.6c0-1.2,0.1-2.4,0.1-3.6c0-2.8-0.2-5.6-0.6-8.4
	c-0.4-2.8-0.9-5.5-1.5-8.2c-0.6-2.3-1.3-4.7-2.1-6.9c-0.4-1-0.7-1.9-1-2.7s-0.6-1.5-0.9-2l-0.8-1.8c0,0,0.1,0.7,0.3,2
	c0.1,0.6,0.2,1.4,0.3,2.2c0.1,0.9,0.2,1.8,0.3,2.9c0.2,2.4,0.2,4.7,0.1,7.1c-0.1,2.7-0.4,5.3-0.8,7.9c-0.3,1.5-0.5,2.9-0.9,4.3
	c-0.2-0.4-0.3-0.8-0.5-1.3c-0.9-2.1-1.8-4.3-2.9-6.3c-1-1.9-2.1-3.7-3.1-5.2c-0.5-0.7-0.9-1.4-1.4-2s-0.8-1.1-1.1-1.5l-1-1.3
	c0,0,0.2,0.6,0.5,1.6c0.2,0.5,0.4,1.1,0.6,1.8s0.4,1.5,0.7,2.3c0.5,1.9,0.9,3.9,1.2,5.8c0.3,2.2,0.5,4.4,0.6,6.6
	c0.1,2.6,1.1,7.1-2.5,6.5c-2.4-0.4-3.2-3.5-2.9-5.6c0.5-3.5,1.5-6.8,2.8-10.1c-3.4,3.8-5.3,8.8-8.2,12.6c0.2-3.4,0.8-6.8,1.8-10.1
	c0.6-2.2,1.3-4.3,2.1-6.4l0.6-1.5l0.6-1.4c0.2-0.5,0.4-0.9,0.6-1.3l0.5-1.1c0.2-0.5,0.5-0.9,0.8-1.3l0.2-0.3
	c0.1-0.1,0.1-0.1,0.2-0.2c0.1-0.1,0.3-0.1,0.4-0.2h0.2l-0.2-0.1c-0.2-0.1-0.4-0.2-0.6-0.2c-0.3,0-0.7,0-1,0.1
	c-0.6,0.3-1.1,0.7-1.6,1.1c-0.3,0.3-0.6,0.6-1,1s-0.7,0.7-1,1.1l-1.1,1.2l-1.1,1.3c-1.1,1.4-2.2,2.9-3.3,4.4c0-1.2-0.1-2.3-0.2-3.5
	c-0.2-2.6-0.5-5-0.9-7.1c-0.2-1-0.3-2-0.5-2.8s-0.3-1.6-0.5-2.2L604,9.1c0,0,0,0.7-0.1,2c0,0.6-0.1,1.4-0.1,2.2s-0.2,1.8-0.3,2.9
	c-0.2,2.1-0.6,4.5-1.1,7c-0.4,1.9-0.9,3.9-1.4,5.8c-0.4-0.8-0.8-1.7-1.2-2.5c-0.9-1.7-1.8-3.4-2.8-5c0.5-1.4,0.8-2.3,0.8-2.3l-0.9,1
	l-0.4,0.4c-0.4-0.6-0.8-1.3-1.2-1.9c-1.5-2.1-3.1-4.1-4.8-6l-1.1-1.2l-1-1c-0.6-0.7-1.2-1.2-1.7-1.6l-1.5-1.4c0,0,0.4,0.6,1.1,1.8
	c0.4,0.5,0.8,1.2,1.2,2l0.7,1.3c0.3,0.4,0.5,0.9,0.7,1.4c1.2,2.2,2.2,4.6,3,6.9c0.4,1.2,0.8,2.5,1.2,3.8c-1.7,2.1-3.6,4.8-5.4,7.5
	c-0.7-1.9-1.4-3.7-2.1-5.4c-1-2.3-2-4.4-3-6.1c-0.5-0.9-0.9-1.7-1.4-2.4s-0.8-1.3-1.1-1.8l-1-1.5c0,0,0.2,0.7,0.5,1.8
	c0.2,0.6,0.4,1.3,0.6,2.1c0.1,0.5,0.3,1,0.4,1.5c-0.3,0.4-0.7,0.8-1.1,1.4s-0.9,1.2-1.4,1.9c-1.1,1.6-2.2,3.4-3.1,5.1
	c-1.1,2.1-2,4.3-2.8,6.5c-0.8,2.3-1.5,4.7-2,7.1l-0.2,1.3h0c0.5-1.4,0.9-2.9,1.3-4.6c0.5-2.3,1-4.7,1.2-7.1c0.2-2.1,0.3-4.2,0.3-6.3
	c0.6-0.9,1.2-1.8,1.8-2.6c0.6-0.8,1.1-1.5,1.6-2.1s0.9-1.1,1.3-1.5l1.2-1.3l-1.5,0.9c-0.5,0.3-1.1,0.7-1.8,1.1
	c-0.8,0.5-1.8,1.2-2.8,2c-0.1-1.3-0.2-2.4-0.3-3.5c-0.1-0.9-0.2-1.7-0.4-2.4c-0.1-0.7-0.2-1.4-0.4-1.9c-0.2-1-0.4-1.6-0.4-1.6
	s-0.1,0.6-0.2,1.7c0,0.5-0.1,1.2-0.3,1.9c-0.1,0.7-0.2,1.6-0.4,2.4c-0.4,2.1-0.9,4.1-1.6,6.1l-0.6,0.9l-0.4,0.4
	c-2,1.9-3.9,3.9-5.7,6c-0.5,0.6-0.9,1.2-1.4,1.8c-1-2.7-2.2-5.4-3.4-7.8c-0.6-1.1-1.1-2.2-1.6-3.3c0.5-4.4,0.8-8.6,1-11.9
	c0.2-2.3,0.2-4.3,0.3-5.7s0.1-2.2,0.1-2.2s-0.2,0.8-0.6,2.1c-0.4,1.3-1,3.2-1.7,5.5c-0.6,1.9-1.3,4.1-2.2,6.5
	c-0.8-1.5-1.5-2.7-2-3.7c-0.7-1.2-1.1-1.9-1.1-1.9s0.2,0.8,0.6,2.2c0.4,1.4,1,3.4,1.6,5.8v0.1c-0.9,2.4-1.8,4.9-2.8,7.3
	c-0.6,1.5-1.2,2.9-1.8,4.3c-0.7-1.3-1.4-2.6-2.2-3.8c-0.9-1.4-1.9-2.8-3-4.1c-0.5-0.6-0.9-1.1-1.3-1.6l-0.5-0.6
	c-0.2-1.8-0.4-3.4-0.6-4.9c-0.2-1-0.3-2-0.5-2.8s-0.3-1.6-0.5-2.2l-0.4-1.9c0,0,0,0.7-0.1,2c0,0.6-0.1,1.4-0.1,2.2s-0.1,1.8-0.3,2.9
	c-0.2,2.1-0.6,4.5-1.1,7s-1.2,5.1-2,7.7c-0.8,2.5-1.7,4.9-2.7,7.2c-0.4,0.8-0.7,1.6-1.1,2.3l0,0c-0.4,0.9-1.5,1.3-2.5,0.9
	c-0.7-0.3-1.1-1-1.1-1.8c0-1.9,0.3-3.7,0.7-5.6c0.8-3.8,1.7-7.5,2.6-10.2s1.5-4.6,1.5-4.6l-0.9,1c-0.6,0.7-1.4,1.6-2.4,2.8
	c-2.4,2.9-4.6,6-6.7,9.2l-0.5,0.7c0-2.1,0.2-4.2,0.5-6.2c0.3-1.9,0.7-3.8,1.2-5.6l0.3-1.2c0.1-0.4,0.2-0.7,0.3-1
	c0.2-0.7,0.4-1.2,0.6-1.7l0.6-1.5l-1,1.2c-0.3,0.4-0.7,0.9-1.2,1.5c-0.2,0.3-0.5,0.6-0.7,0.9l-0.7,1.1c-1.2,1.7-2.2,3.6-3.2,5.4
	c-1.1,2.2-2,4.6-2.8,6.9c-0.4,1.2-0.7,2.4-1,3.6c0.1-0.5,0.1-1.1,0.2-1.6c0.3-1.8,0.6-3.6,1.1-5.4c0.2-0.8,0.4-1.5,0.6-2.1
	c0.2-0.6,0.4-1.2,0.5-1.6l0.5-1.4c0,0-0.4,0.4-1,1.2c-0.3,0.4-0.7,0.8-1.1,1.4c-0.4,0.5-0.9,1.2-1.4,1.9c-0.9,1.3-1.7,2.7-2.5,4.1
	c0.7-5.5,1.1-10.8,1.4-14.9c0.2-2.3,0.3-4.3,0.3-5.7c0.1-1.4,0.1-2.2,0.1-2.2l-0.6,2.1c-0.4,1.3-1,3.2-1.7,5.5
	c-1.4,4.5-3.5,10.5-5.8,16.3c-0.8,1.9-1.5,3.8-2.3,5.6c-0.1-3.5-0.5-7-1.1-10.4c-0.3-1.5-0.5-2.8-0.7-3.7l-0.3-1.4l-0.2,1.5
	c-0.1,0.9-0.4,2.2-0.7,3.8c-0.8,3.7-1.8,7.3-3.1,10.8c-0.3,0.8-0.6,1.5-0.9,2.2l0.2-0.8c0.6-2.1,1-4.3,1.2-6.5
	c0.3-2.5,0.3-5,0.2-7.5c-0.2-2.5-0.5-4.9-1.1-7.3c-0.5-2.1-1.2-4.1-2-6.1c-0.2-0.4-0.3-0.8-0.5-1.2s-0.4-0.7-0.5-1.1
	c-0.3-0.7-0.6-1.3-0.9-1.7c-0.5-0.9-0.8-1.5-0.8-1.5s0.1,0.6,0.4,1.7c0.1,0.5,0.2,1.2,0.3,2c0.1,0.4,0.1,0.8,0.2,1.2
	s0.1,0.9,0.1,1.3c0.2,2.1,0.2,4.1,0,6.2c-0.2,2.3-0.6,4.5-1.2,6.7c-0.4,1.4-0.9,2.7-1.4,4c0-2-0.1-3.9-0.2-5.7
	c-0.2-2.7-0.4-5.1-0.6-7.2c-0.4-4.2-0.8-6.9-0.8-6.9s-0.4,2.8-1.2,6.9c-0.4,2.1-0.8,4.5-1.4,7.1s-1.3,5.3-2.1,7.9
	c-0.8,2.5-1.7,5-2.8,7.4l0,0c-0.4,0.9-1.4,1.3-2.3,0.9c-0.6-0.3-1-0.8-1-1.5c0-0.1,0-0.3,0-0.4c0.1-0.8,0.2-1.6,0.3-2.4
	c0.3-1.8,0.6-3.7,1-5.4s0.9-3.3,1.4-4.6c0.2-0.7,0.5-1.3,0.7-1.8s0.4-1,0.6-1.4c0.3-0.8,0.5-1.2,0.5-1.2l-1,0.9
	c-0.3,0.3-0.7,0.7-1.1,1.1s-0.9,0.9-1.4,1.5c-0.8,0.9-1.7,2-2.6,3.2c0.3-1.9,0.6-3.8,1-5.5c0.5-2.2,1.1-4.3,1.8-6.5
	c0.2-0.5,0.3-0.9,0.5-1.3s0.3-0.8,0.5-1.2c0.3-0.7,0.5-1.4,0.8-1.9c0.5-1,0.7-1.7,0.7-1.7l-1.2,1.4c-0.4,0.4-0.8,1-1.3,1.7
	s-1.1,1.4-1.7,2.3c-1.4,1.9-2.6,4-3.8,6c-1.3,2.5-2.5,5-3.6,7.7c-1,2.7-1.9,5.5-2.7,8.3c-0.1,0.6-0.3,1.1-0.4,1.7
	c-0.7-1.1-3.7-7.1-1.9-3.3c0.6,1.3-1.3-2.5-1.8-3.8c-0.3-0.7-0.5-1.4-0.8-2.1l0,0c0.4-1.3,1-2.5,1.6-3.6c0.7-1.1,1.5-2.2,2.3-3.2
	c0.2-0.2,0.4-0.4,0.6-0.6l0.5-0.5c0.3-0.3,0.6-0.5,0.9-0.8l0.8-0.6l-1.1,0.2c-0.4,0.1-0.9,0.2-1.3,0.3l-0.8,0.2
	c-0.3,0.1-0.6,0.2-0.9,0.3c-1.4,0.5-2.7,1.3-3.9,2.1c-0.1-1.4-0.2-2.7-0.2-4.1c0.1-2.5,0.4-5,1.1-7.4c0.5-1.7,1.1-3.4,1.8-5l0.9-1.8
	c0,0-0.5,0.5-1.4,1.5c-1.2,1.4-2.2,3-3.2,4.6c-1.3,2.4-2.4,5-3.1,7.6c-0.8,3-1.2,6.1-1.3,9.2c-0.4-0.7-0.7-1.5-1.1-2.2
	c-2.5-5.1-5.3-10-6.5-12c-0.2-2-0.4-3.8-0.7-5.5c-0.1-0.7-0.2-1.3-0.4-1.9c-0.1-0.6-0.3-1.2-0.4-1.7l-0.4-1.5
	c-0.1-0.5-0.3-0.9-0.4-1.3L444.4,2c0,0,0.1,0.9,0.2,2.5c0,0.4,0.1,0.8,0.1,1.3v1.6c0,0.6,0,1.1,0,1.8s-0.1,1.3-0.1,2
	c-0.1,3-0.5,6.1-1,9.1c-0.6,3-1.4,5.9-2.4,8.8c-0.9-1.8-1.9-3.6-3.1-5.4c-1.3-1.9-2.6-3.7-4.2-5.4l-1-1l-0.9-0.9l-0.1-0.1
	c-0.1-2.8-0.3-5.4-0.5-7.6c-0.3-2.9-0.6-5.2-0.8-6.8l-0.3-2.6l0.7,3.6c-0.1,1.6-0.3,4-0.6,6.9c-0.6,5.6-1.7,13.3-4.4,20.2
	c-0.7,1.7-1.4,3.3-2.2,4.9c-0.8,1.5-1.7,2.9-2.7,4.3c-0.9,1.3-1.9,2.5-3,3.6c0.2-1.5,0.5-2.9,0.8-4.4c0.5-2.3,1.1-4.6,1.8-6.7
	c0.7-2.1,1.4-4,2-5.7c0.3-0.8,0.6-1.6,0.9-2.2c0.3-0.7,0.5-1.2,0.8-1.7c0.5-0.9,0.7-1.5,0.7-1.5l-1.2,1.2c-0.4,0.4-0.8,0.9-1.3,1.4
	c-0.5,0.6-1.1,1.2-1.7,1.9c-1.2,1.4-2.5,3.1-3.9,5s-2.8,4.1-4.1,6.3c-0.8,1.5-1.6,2.9-2.4,4.4c-0.1-0.7-0.2-1.3-0.3-2
	c-0.1-1.5-0.1-3,0-4.5c0.2-1.3,0.4-2.6,0.8-3.9c0.1-0.3,0.2-0.6,0.3-0.8l0.3-0.7c0.1-0.4,0.3-0.8,0.5-1.1c0.3-0.6,0.5-1,0.5-1
	l-0.9,0.7c-0.4,0.3-0.7,0.5-1,0.8l-0.6,0.6c-0.2,0.2-0.4,0.4-0.7,0.7c-1.1,1.2-2.1,2.4-2.9,3.8c-0.5,0.8-0.9,1.6-1.2,2.4
	c-0.4-2-0.6-4-0.8-6c-0.2-2.5-0.2-5-0.1-7.5c0.1-2.2,0.3-4.4,0.7-6.6c0.1-0.5,0.2-0.9,0.2-1.4l0.3-1.2c0.2-0.8,0.3-1.4,0.4-2
	l0.4-1.7l-0.9,1.6c-0.3,0.5-0.7,1.1-1,1.8c-0.2,0.4-0.4,0.7-0.6,1.1l-0.6,1.3c-1,2.1-1.9,4.3-2.7,6.5l-0.9,0.7
	c-0.4,0.3-0.7,0.6-1.1,1c-1.8,1.6-3.4,3.4-5,5.2c-1,1.2-2,2.6-3,4c-0.1-1-0.1-2-0.1-3c0-2.3,0.1-4.6,0.3-6.9c0.3-2.2,0.5-4.3,0.9-6
	c0.2-0.9,0.4-1.7,0.5-2.4c0.2-0.7,0.3-1.3,0.5-1.8c0.3-1,0.5-1.6,0.5-1.6l-0.9,1.4c-0.3,0.5-0.7,1-1.1,1.7c-0.4,0.6-0.8,1.4-1.3,2.2
	c-1.1,1.9-2,3.9-2.9,6c-1,2.4-1.9,4.8-2.6,7.2v0.1l-0.1-0.1l0.2-1.7c0.5-3.1,1.1-6.1,1.9-9s1.5-5.5,2.3-7.7c0.4-1.1,0.8-2.1,1.1-3
	s0.7-1.7,0.9-2.3c0.5-1.3,0.8-2,0.8-2l-1.3,1.8c-0.4,0.6-0.9,1.3-1.5,2c-0.6,0.8-1.2,1.7-1.8,2.7c-1.3,2-2.8,4.5-4.3,7.2
	c-1,1.9-2,4-3,6.1c-1.1-1.3-2.4-2.6-3.7-3.8c-0.5-0.5-1-0.9-1.4-1.3l-0.3-0.2c0-0.5,0.1-1,0.1-1.5c0.1-1,0.2-1.9,0.3-2.6
	c0.1-0.8,0.2-1.5,0.3-2l0.3-1.8l-0.8,1.6c-0.3,0.5-0.6,1.2-0.9,1.9s-0.7,1.6-1.1,2.6l-0.1,0.3l-0.4-0.3c-0.4-0.3-0.7-0.5-1.1-0.8
	l-2-1.4l1.7,1.8c0.3,0.3,0.6,0.6,0.9,1l0.6,0.7c-0.6,1.6-1.2,3.4-1.8,5.4c-0.1,0.5-0.3,1-0.4,1.5c-0.7-3.1-1.6-6.3-2.5-9.1
	c-1-3.1-2.1-5.9-3.1-8.3c-0.5-1.2-1-2.3-1.4-3.2s-0.8-1.8-1.2-2.5l-1.1-2.1l0.6,2.3c0.2,0.7,0.4,1.6,0.6,2.7s0.5,2.2,0.7,3.5
	c0.3,1.6,0.6,3.3,0.8,5.2l-0.6,0.7l-0.9,1c-0.3,0.4-0.6,0.7-1,1.1c-1.6,1.9-3.1,3.8-4.4,5.9c-0.9,1.4-1.7,2.8-2.5,4.3
	c-0.3-0.8-0.5-1.5-0.8-2.3c-0.9-2.4-1.8-4.5-2.6-6.4c-0.4-0.9-0.8-1.8-1.2-2.5c-0.4-0.7-0.7-1.4-0.9-1.9l-0.8-1.6l0.4,1.8
	c0.1,0.6,0.2,1.3,0.4,2.1c0.1,0.8,0.3,1.7,0.4,2.7c0.3,2,0.5,4.3,0.7,6.8s0.2,5.1,0.1,7.7c0,1.5-0.1,3-0.2,4.5
	c-0.1,0.2-0.1,0.4-0.2,0.6c-0.2,0.8-0.4,1.6-0.6,2.4c-0.1-0.9-0.2-1.8-0.3-2.7c-0.3-2.8-0.8-5.7-1.3-8.6c-0.6-2.9-1.3-5.8-2.1-8.4
	c-0.8-2.7-1.6-5.1-2.4-7.2c-0.4-1-0.7-2-1.1-2.8c-0.3-0.8-0.6-1.6-0.9-2.1l-0.8-1.9c0,0,0.1,0.7,0.3,2c0.1,0.6,0.2,1.4,0.3,2.3
	c0.1,0.9,0.2,1.9,0.3,3c0.2,2.2,0.4,4.8,0.4,7.5s0,5.6-0.2,8.4s-0.5,5.6-0.9,8.2c-0.3,2-0.7,3.9-1.1,5.6c0-1.2,0.1-2.4,0.1-3.6
	c0-2.8-0.2-5.6-0.6-8.4s-0.9-5.5-1.5-8.2c-0.6-2.3-1.3-4.7-2.1-6.9c-0.4-1-0.7-1.9-1-2.7s-0.6-1.5-0.9-2l-0.8-1.8c0,0,0.1,0.7,0.3,2
	c0.1,0.6,0.2,1.4,0.3,2.2c0.1,0.9,0.2,1.8,0.3,2.9c0.2,2.4,0.2,4.7,0.1,7.1c-0.1,2.7-0.4,5.3-0.8,7.9c-0.1,0.6-0.2,1.2-0.3,1.9
	c0,1.1-0.1,2.3-0.2,3.4c-0.1,1.1-1,1.8-2.1,1.8c-1-0.1-1.8-1-1.8-2l0,0c0.1-2.2,0.3-4.4,0.6-6.6c0.3-2,0.7-3.9,1.2-5.8
	c0.2-0.9,0.4-1.6,0.7-2.3s0.4-1.3,0.6-1.8c0.3-1,0.5-1.6,0.5-1.6l-1,1.3c-0.3,0.4-0.7,0.9-1.1,1.5s-0.9,1.2-1.4,2
	c-1,1.5-2,3.2-3.1,5.2s-2,4.2-2.9,6.3c-0.2,0.4-0.3,0.8-0.5,1.3c-0.3-1.4-0.6-2.8-0.9-4.3c-0.4-2.6-0.6-5.3-0.7-8
	c-0.1-2.4,0-4.7,0.1-7.1c0.1-1.1,0.2-2,0.3-2.9c0.1-0.9,0.2-1.6,0.3-2.2c0.2-1.2,0.3-2,0.3-2l-0.8,1.8c-0.3,0.6-0.6,1.2-0.9,2
	s-0.7,1.7-1,2.7c-0.8,2.3-1.5,4.6-2.1,6.9c-0.7,2.7-1.2,5.5-1.5,8.2c-0.3,2.8-0.5,5.6-0.6,8.4c0,1.2,0,2.4,0.1,3.6
	c-0.4-1.7-0.7-3.6-1.1-5.6c-0.4-2.6-0.7-5.4-0.9-8.2c-0.2-2.8-0.3-5.7-0.2-8.4s0.2-5.3,0.4-7.5c0.1-1.1,0.2-2.1,0.3-3
	c0.1-0.9,0.2-1.7,0.3-2.3c0.2-1.3,0.3-2,0.3-2l-0.8,1.8c-0.3,0.6-0.6,1.3-0.9,2.1s-0.7,1.8-1.1,2.8c-0.8,2.1-1.6,4.5-2.4,7.2
	s-1.5,5.5-2.1,8.4s-1,5.8-1.3,8.6c-0.1,0.9-0.2,1.8-0.3,2.7c-0.2-0.8-0.4-1.6-0.6-2.4c-0.1-0.2-0.1-0.4-0.2-0.6
	c-0.1-1.5-0.2-3-0.2-4.5c-0.1-2.6,0-5.2,0.1-7.7s0.4-4.8,0.7-6.8c0.1-1,0.3-1.9,0.4-2.7s0.3-1.5,0.4-2.1l0.4-1.8
	c0,0-0.3,0.6-0.8,1.6c-0.3,0.5-0.6,1.1-0.9,1.9c-0.4,0.7-0.8,1.6-1.2,2.5c-0.8,1.8-1.7,4-2.6,6.4c-0.3,0.7-0.5,1.5-0.8,2.3
	c-0.8-1.5-1.7-3-2.5-4.3c-1.3-2.1-2.8-4-4.4-5.9c-0.4-0.4-0.7-0.8-1-1.1l-0.9-1l-0.6-0.7c0.2-1.9,0.5-3.6,0.8-5.2
	c0.2-1.3,0.5-2.4,0.7-3.5s0.4-1.9,0.6-2.7l0.6-2.3L291,1.6c-0.4,0.7-0.7,1.5-1.2,2.5s-1,2-1.4,3.2c-1,2.4-2.1,5.2-3.1,8.3
	c-0.9,2.9-1.8,6-2.5,9.1c-0.1-0.5-0.3-1-0.4-1.5c-0.6-2-1.2-3.8-1.8-5.4l0.6-0.7c0.3-0.4,0.6-0.7,0.9-1l1.7-1.8l-2,1.4
	c-0.3,0.2-0.7,0.5-1.1,0.8l-0.4,0.3c0-0.1-0.1-0.2-0.1-0.3c-0.4-1-0.7-1.8-1.1-2.6s-0.6-1.4-0.9-1.9l-0.8-1.6c0,0,0.1,0.6,0.3,1.8
	c0.1,0.6,0.2,1.2,0.3,2c0.1,0.8,0.2,1.7,0.3,2.6c0.1,0.5,0.1,1,0.1,1.5l-0.3,0.2c-0.5,0.4-0.9,0.8-1.4,1.3c-1.3,1.2-2.5,2.4-3.7,3.8
	c-0.9-2.1-2-4.2-3-6.1c-1.5-2.7-2.9-5.2-4.3-7.2c-0.7-1-1.3-1.9-1.8-2.7c-0.6-0.8-1-1.5-1.5-2l-1.3-1.8c0,0,0.3,0.7,0.8,2
	c0.3,0.6,0.6,1.4,0.9,2.3s0.7,1.9,1.1,3c0.8,2.2,1.6,4.8,2.3,7.7s1.3,6,1.8,9.1l0.2,1.7c0,0,0,0.1-0.1,0.1v-0.1
	c-0.7-2.5-1.6-4.9-2.7-7.2c-0.9-2-1.8-4-2.9-5.9c-0.5-0.8-0.9-1.6-1.3-2.2s-0.7-1.2-1.1-1.7l-0.9-1.4l0.4,1.6
	c0.2,0.5,0.3,1.1,0.5,1.8s0.4,1.5,0.5,2.4c0.4,1.7,0.7,3.8,0.9,6c0.2,2.3,0.3,4.6,0.3,6.9c0,1-0.1,2-0.1,3c-1-1.4-2-2.8-3-4
	c-1.5-1.9-3.2-3.6-5-5.2c-0.4-0.3-0.7-0.7-1.1-1l-0.9-0.7c-0.8-2.2-1.7-4.4-2.7-6.5l-0.6-1.3c-0.2-0.4-0.4-0.8-0.6-1.1
	c-0.4-0.7-0.7-1.3-1-1.8l-0.9-1.6l0.4,1.7c0.2,0.5,0.3,1.2,0.5,2c0.1,0.4,0.2,0.8,0.3,1.2s0.2,0.9,0.2,1.4c0.4,2.2,0.6,4.4,0.7,6.5
	c0.1,2.5,0.1,5-0.1,7.5c-0.2,2.1-0.5,4.1-0.8,6c-0.4-0.8-0.8-1.7-1.2-2.4c-0.8-1.4-1.8-2.7-2.9-3.8c-0.2-0.2-0.4-0.5-0.7-0.7
	l-0.6-0.6c-0.3-0.3-0.7-0.6-1-0.8l-0.9-0.7l0.5,1c0.2,0.4,0.4,0.7,0.5,1.1c0.1,0.2,0.2,0.4,0.3,0.7c0.1,0.3,0.2,0.5,0.3,0.8
	c0.4,1.3,0.7,2.6,0.8,3.9c0.1,1.5,0.1,3,0,4.5c-0.1,0.7-0.2,1.3-0.3,2c-0.7-1.5-1.5-3-2.4-4.4c-1.3-2.2-2.7-4.4-4-6.3
	s-2.7-3.7-3.9-5c-0.6-0.7-1.2-1.4-1.7-1.9s-0.9-1-1.3-1.4l-1.2-1.3c0,0,0.3,0.5,0.7,1.5c0.2,0.5,0.5,1,0.8,1.7s0.6,1.4,0.9,2.2
	c0.7,1.6,1.4,3.6,2,5.7s1.3,4.4,1.8,6.7c0.3,1.5,0.6,2.9,0.8,4.4c-1.1-1.1-2.1-2.4-3-3.6c-1-1.4-1.9-2.8-2.7-4.3
	c-0.8-1.6-1.5-3.2-2.2-4.8c-2.7-6.8-3.8-14.5-4.4-20.2c-0.3-2.8-0.5-5.2-0.6-6.9s-0.2-2.6-0.2-2.6L221,3.1c-0.2,1.6-0.5,4-0.8,6.8
	c-0.2,2.2-0.4,4.8-0.5,7.6l-0.1,0.1l-0.9,0.9l-1,1c-1.5,1.7-2.9,3.5-4.1,5.4c-1.1,1.7-2.2,3.5-3.1,5.4c-1-2.9-1.7-5.8-2.3-8.8
	c-0.5-3-0.9-6-1-9.1c0-0.7-0.1-1.3-0.1-2c0-0.6,0-1.2,0-1.8s0-1.1,0-1.6s0.1-0.9,0.1-1.3c0.1-1.6,0.2-2.5,0.2-2.5l-0.7,2.4
	c-0.1,0.4-0.2,0.8-0.4,1.3c-0.1,0.5-0.2,1-0.4,1.5c-0.1,0.5-0.3,1.1-0.4,1.7c-0.1,0.6-0.2,1.3-0.4,1.9c-0.3,1.7-0.5,3.5-0.7,5.5
	c-1.2,2-4,6.9-6.5,12c-0.4,0.7-0.7,1.5-1.1,2.2c0-3.1-0.5-6.2-1.3-9.2c-0.7-2.7-1.7-5.2-3.1-7.7c-0.9-1.6-2-3.2-3.2-4.6
	c-0.9-1-1.4-1.5-1.4-1.5l0.9,1.8c0.7,1.6,1.3,3.3,1.8,5c0.6,2.4,1,4.9,1.1,7.4c0,1.4,0,2.7-0.1,4.1c-1.2-0.9-2.6-1.6-4-2.1
	c-0.3-0.1-0.6-0.3-0.9-0.3l-0.8-0.2c-0.4-0.1-0.9-0.2-1.3-0.3l-1.1-0.2l0.8,0.6c0.3,0.2,0.6,0.5,0.9,0.8l0.5,0.5
	c0.2,0.2,0.4,0.4,0.6,0.6c0.9,1,1.7,2,2.3,3.2c0.7,1.2,1.2,2.4,1.6,3.6l0,0c-0.3,0.7-0.5,1.4-0.8,2.1c-0.5,1.3-2.4,5-1.8,3.8
	c1.8-3.8-1.3,2.2-1.9,3.3c-0.1-0.6-0.3-1.1-0.4-1.7c-0.7-2.8-1.6-5.6-2.6-8.3c-1-2.6-2.2-5.2-3.6-7.7c-1.2-2.1-2.4-4.1-3.8-6
	c-0.6-0.9-1.1-1.6-1.7-2.3c-0.5-0.7-1-1.2-1.3-1.7l-1.2-1.4l0.7,1.7c0.2,0.5,0.5,1.2,0.8,1.9c0.1,0.4,0.3,0.8,0.5,1.2
	s0.3,0.9,0.5,1.3c0.7,2.1,1.3,4.3,1.8,6.5c0.4,1.8,0.7,3.6,1,5.5c-0.9-1.2-1.8-2.3-2.6-3.2c-0.5-0.6-1-1.1-1.4-1.5s-0.8-0.8-1.1-1.1
	l-1-0.9l0.5,1.2c0.2,0.4,0.4,0.8,0.6,1.4c0.2,0.5,0.5,1.1,0.7,1.8c0.5,1.3,0.9,2.9,1.4,4.6c0.4,1.8,0.8,3.6,1,5.4
	c0.1,0.8,0.2,1.6,0.3,2.4c0,0.1,0,0.3,0,0.4c-0.1,1-0.9,1.7-1.8,1.6c-0.6,0-1.2-0.4-1.5-1l0,0c-1.1-2.4-2-4.9-2.8-7.4
	c-0.8-2.6-1.5-5.3-2.1-7.9s-1-5-1.4-7.1c-0.7-4.2-1.2-6.9-1.2-6.9s-0.3,2.7-0.8,6.9c-0.2,2.1-0.4,4.5-0.6,7.2
	c-0.1,1.8-0.2,3.8-0.2,5.7c-0.5-1.3-1-2.7-1.4-4c-0.6-2.2-1-4.4-1.2-6.7c-0.2-2.1-0.2-4.1,0-6.2c0-0.5,0.1-0.9,0.1-1.3l0.2-1.2
	c0.1-0.7,0.2-1.3,0.3-2c0.2-1.1,0.4-1.7,0.4-1.7l-0.9,1.5c-0.3,0.5-0.6,1-0.9,1.7l-0.5,1.1c-0.2,0.4-0.3,0.8-0.5,1.2
	c-0.8,2-1.5,4-2,6.1c-0.6,2.4-0.9,4.9-1.1,7.3c-0.1,2.5-0.1,5,0.2,7.5c0.2,2.2,0.7,4.4,1.2,6.5l0.2,0.8c-0.3-0.7-0.6-1.5-0.9-2.2
	c-1.3-3.5-2.4-7.2-3.1-10.8c-0.3-1.5-0.6-2.9-0.7-3.8l-0.2-1.5l-0.3,1.4c-0.2,0.9-0.4,2.1-0.7,3.7c-0.6,3.4-0.9,6.9-1.1,10.4
	c-0.8-1.8-1.6-3.7-2.3-5.6c-2.3-5.8-4.4-11.8-5.8-16.3c-0.7-2.3-1.3-4.2-1.7-5.5l-0.6-2.1c0,0,0,0.8,0.1,2.2s0.1,3.3,0.3,5.7
	c0.3,4.1,0.7,9.4,1.4,14.9c-0.8-1.4-1.6-2.8-2.5-4.1c-0.5-0.7-0.9-1.4-1.4-1.9c-0.4-0.5-0.8-1-1.1-1.4l-1-1.2l0.5,1.4
	c0.2,0.4,0.3,1,0.5,1.6s0.4,1.3,0.6,2.1c0.5,1.8,0.8,3.6,1.1,5.4c0.1,0.5,0.1,1.1,0.2,1.6c-0.3-1.2-0.6-2.4-1-3.6
	c-0.8-2.4-1.7-4.7-2.8-6.9c-0.9-1.9-2-3.7-3.2-5.4l-0.7-1.1l-0.7-0.9c-0.4-0.6-0.8-1.1-1.2-1.5l-1-1.2l0.6,1.5
	c0.2,0.5,0.4,1,0.6,1.7c0.1,0.3,0.2,0.7,0.3,1l0.3,1.2c0.5,1.8,0.9,3.7,1.2,5.6c0.3,2.1,0.4,4.1,0.5,6.2l-0.5-0.7
	c-2-3.2-4.3-6.2-6.6-9.2c-1-1.2-1.8-2.1-2.4-2.8l-0.9-1c0,0,0.7,1.8,1.5,4.6s1.8,6.5,2.6,10.2c0.4,1.8,0.6,3.7,0.7,5.6
	c0,1-0.8,1.9-1.8,1.9c-0.7,0-1.4-0.4-1.8-1.1l0,0c-0.4-0.7-0.7-1.5-1.1-2.3c-1-2.2-1.9-4.7-2.7-7.2c-0.8-2.6-1.5-5.2-2-7.7
	s-0.9-4.9-1.1-7c-0.1-1-0.2-2-0.3-2.9s-0.1-1.6-0.1-2.2l-0.1-2l-0.5,1.8c-0.2,0.6-0.3,1.3-0.5,2.2c-0.2,0.8-0.4,1.8-0.5,2.8
	c-0.3,1.5-0.5,3.1-0.6,4.9l-0.5,0.6c-0.4,0.5-0.8,1-1.3,1.6c-0.9,1.1-2,2.6-3,4.1c-0.8,1.2-1.5,2.4-2.2,3.8
	c-0.6-1.4-1.2-2.9-1.8-4.3c-1-2.5-1.9-4.9-2.8-7.3v-0.1c0.6-2.4,1.2-4.4,1.6-5.8s0.6-2.2,0.6-2.2l-1.1,1.9c-0.5,0.9-1.2,2.2-2,3.7
	c-0.8-2.3-1.5-4.5-2.2-6.5c-0.7-2.3-1.2-4.2-1.6-5.5S95,4,95,4s0,0.8,0.1,2.2s0.2,3.3,0.3,5.7c0.2,3.4,0.6,7.5,1,11.9
	c-0.5,1.1-1.1,2.1-1.6,3.3c-1.1,2.4-2.3,5.1-3.4,7.8c-0.5-0.6-0.9-1.2-1.4-1.8c-1.8-2.1-3.7-4.1-5.6-6L84,26.7l-0.6-0.9
	c-0.7-2-1.2-4.1-1.6-6.1c-0.2-0.9-0.3-1.7-0.4-2.4c-0.1-0.7-0.1-1.3-0.2-1.8c-0.1-1.1-0.2-1.7-0.2-1.7l-0.4,1.6
	c-0.1,0.5-0.2,1.1-0.4,1.9c-0.1,0.7-0.3,1.5-0.4,2.4c-0.2,1-0.3,2.2-0.3,3.5c-1-0.8-1.9-1.4-2.8-2c-0.7-0.5-1.3-0.8-1.8-1.1
	l-1.5-0.9l1.2,1.3c0.4,0.4,0.8,0.9,1.3,1.5s1,1.3,1.6,2.1s1.2,1.7,1.9,2.6c0,2.1,0.1,4.2,0.3,6.3c0.3,2.4,0.7,4.7,1.2,7.1
	c0.4,1.6,0.8,3.2,1.3,4.6h-0.4l-0.2-1.3c-0.5-2.4-1.2-4.7-2-7.1c-0.8-2.2-1.8-4.4-2.8-6.5c-0.9-1.8-2-3.5-3.1-5.1
	c-0.5-0.7-0.9-1.4-1.4-1.9c-0.4-0.5-0.8-1-1.1-1.4c0.1-0.5,0.3-1,0.4-1.5c0.2-0.8,0.4-1.5,0.6-2.1l0.5-1.8c0,0-0.4,0.6-1,1.5
	c-0.3,0.5-0.7,1.1-1.1,1.8c-0.4,0.7-0.9,1.5-1.4,2.4c-1,1.7-2,3.8-3,6.1c-0.7,1.7-1.4,3.6-2.1,5.4c-1.8-2.8-3.7-5.4-5.4-7.5
	c0.4-1.3,0.8-2.6,1.2-3.8c0.9-2.4,1.9-4.7,3-6.9c0.3-0.5,0.5-1,0.7-1.4l0.7-1.3c0.5-0.8,0.9-1.5,1.2-2l1.2-1.8l-1.5,1.4
	c-0.5,0.4-1,1-1.7,1.6l-1,1L61.7,13c-1.7,1.9-3.3,3.9-4.8,6c-0.4,0.6-0.8,1.2-1.2,1.9l-0.4-0.4l-0.9-1c0,0,0.3,0.9,0.8,2.3
	c-1,1.6-1.9,3.3-2.8,5c-0.4,0.8-0.8,1.6-1.2,2.5c-0.6-1.9-1.1-3.9-1.5-5.8c-0.5-2.5-0.9-4.9-1.1-7c-0.1-1-0.2-2-0.3-2.9
	c-0.1-0.8-0.1-1.6-0.1-2.2c0-1.2-0.1-2-0.1-2l-0.4,1.9c-0.2,0.6-0.3,1.3-0.5,2.2c-0.2,0.8-0.4,1.8-0.5,2.8c-0.4,2.1-0.6,4.5-0.9,7.1
	c-0.1,1.1-0.1,2.3-0.2,3.5c-1.1-1.6-2.2-3-3.3-4.4l-1.1-1.4l-1-1.2c-0.3-0.4-0.7-0.8-1.1-1.1c-0.3-0.4-0.7-0.7-1-1
	c-0.5-0.5-1-0.8-1.6-1.1c-0.3-0.1-0.7-0.2-1-0.1c-0.2,0-0.4,0.1-0.6,0.2l-0.2,0.1h0.2c0.1,0,0.3,0.1,0.4,0.2
	c0.1,0.1,0.1,0.1,0.2,0.2l0.2,0.3c0.3,0.4,0.6,0.9,0.8,1.3L37,20c0.2,0.4,0.4,0.8,0.6,1.3c0.2,0.5,0.4,0.9,0.6,1.4l0.6,1.5
	c0.8,2.1,1.5,4.2,2.1,6.4c0.9,3.3,1.5,6.7,1.8,10.1c-2.8-3.8-4.8-8.8-8.2-12.6c1.4,3.2,2.3,6.6,2.8,10.1c0.3,2.1-0.4,5.2-2.9,5.6
	c-3.6,0.6-2.6-3.8-2.5-6.5c0.1-2.2,0.3-4.4,0.6-6.6c0.3-1.9,0.7-3.8,1.2-5.7c0.2-0.9,0.4-1.6,0.7-2.3c0.2-0.7,0.4-1.3,0.6-1.8
	l0.6-1.6l-1,1.3c-0.3,0.4-0.7,0.9-1.1,1.5s-0.9,1.2-1.4,2c-1,1.5-2,3.2-3.1,5.2s-2,4.2-2.9,6.3c-0.2,0.4-0.3,0.8-0.5,1.3
	c-0.3-1.4-0.6-2.8-0.9-4.3c-0.4-2.6-0.6-5.3-0.7-8c-0.1-2.4,0-4.7,0.1-7.1c0.1-1.1,0.2-2,0.3-2.9c0.1-0.9,0.2-1.6,0.3-2.2
	c0.2-1.2,0.3-2,0.3-2s-0.3,0.6-0.8,1.8c-0.3,0.6-0.6,1.2-0.9,2s-0.7,1.7-1,2.7c-0.8,2.3-1.5,4.6-2.1,6.9c-0.7,2.7-1.2,5.5-1.5,8.2
	c-0.3,2.8-0.5,5.6-0.6,8.4c0,1.2,0,2.4,0.1,3.6c-0.4-1.7-0.7-3.6-1.1-5.6c-0.4-2.6-0.7-5.4-1-8.2c-0.1-3-0.1-5.8-0.1-8.6
	s0.2-5.3,0.4-7.5c0.1-1.1,0.2-2.1,0.3-3c0.1-0.9,0.2-1.6,0.3-2.3l0.3-2l-0.8,1.8c-0.3,0.6-0.6,1.3-0.9,2.1c-0.3,0.8-0.7,1.8-1.1,2.8
	c-0.8,2.1-1.6,4.5-2.4,7.2c-0.8,2.7-1.5,5.5-2.1,8.4s-1,5.8-1.4,8.6c-0.1,0.9-0.2,1.8-0.3,2.7c-0.2-0.8-0.4-1.6-0.6-2.4
	c-0.1-0.2-0.1-0.4-0.2-0.6c-0.1-1.5-0.2-3-0.2-4.5c0-2.6,0-5.2,0.2-7.7s0.4-4.8,0.7-6.8c0.1-1,0.3-1.9,0.4-2.7
	c0.1-0.8,0.3-1.5,0.4-2.1l0.4-1.8c0,0-0.3,0.6-0.8,1.6c-0.3,0.5-0.6,1.1-0.9,1.9c-0.3,0.8-0.8,1.5-1.2,2.4c-0.8,1.8-1.7,4-2.6,6.4
	c-0.3,0.7-0.5,1.5-0.8,2.3c-0.8-1.5-1.7-3-2.5-4.3l-0.6-1v52.5h1270V27.4C1268.4,29,1266.8,30.7,1265.2,32.6z M57.3,44
	c-0.1-0.2-0.2-0.3-0.3-0.5c-0.1-2-0.1-4,0-6c0.1-2.3,0.4-4.5,0.8-6.7c0.3,1.2,0.5,2.4,0.8,3.6c0.7,3.5,1.2,6.9,1.5,9.7L57.3,44z
	 M72.2,43.9c-0.5,0.5-1.3,0.1-2.2-1.7c-0.2-2-0.3-4-0.3-6.1c0-2.5,0.2-5.1,0.4-7.6c0.2-2.2,0.6-4.4,1.1-6.6c0-0.1,0-0.1,0-0.2
	l0.3,0.9c0.2,0.6,0.4,1.3,0.6,2.1c0.5,1.8,0.8,3.6,1.1,5.4c0.3,2.1,0.5,4.1,0.5,6.2C73.8,37.5,73.4,42.8,72.2,43.9L72.2,43.9z
	 M97.9,44L97.9,44c-0.8-1.4-1.1-3.1-1-4.7c0-0.6,0.1-1.2,0.2-1.8c0.2-1.8,0.5-3.6,0.8-5.3c0.6,4.3,1.3,8.4,2,11.8H97.9z M110.6,44
	L110.6,44c-0.3-1-0.4-2.1-0.5-3.1c-0.1-1.8-0.2-3.6-0.1-5.4c0.1-1.9,0.3-3.7,0.6-5.6c0.3-1.7,0.7-3.3,1.1-5
	c-0.1,2.3-0.2,4.8-0.2,7.3c0.1,2.8,0.3,5.7,0.6,8.3c0.1,0.4,0.1,0.9,0.2,1.3c0.2,1-0.5,2-1.5,2.2C110.8,44,110.7,44,110.6,44
	L110.6,44z M206.4,41.6c-0.3,1.4-1.5,2.4-3,2.4c0-0.6,0-1.2,0-1.9c0-2.8,0-6.6,0.2-10.3c0.1-2.8,0.4-5.7,0.6-8.1
	c0,2.9,0.2,5.7,0.6,8.5c0.4,3,1,6,1.8,8.9C206.5,41.3,206.4,41.4,206.4,41.6L206.4,41.6z M216,39.8c-0.1,0.5-0.3,1-0.4,1.5l-0.4-0.7
	c-0.1-2.2,0-4.5,0.2-6.7c0.3-2.4,0.8-4.8,1.4-7.1c0.6-2.1,1.3-4.2,2.2-6.2c0.1-0.3,0.3-0.6,0.4-0.8c0,3.5,0.2,7,0.7,10.5
	C218.4,33.2,217,36.4,216,39.8L216,39.8z M222.6,44c-0.3-0.9-0.5-1.9-0.6-2.9c-0.2-1.3-0.2-2.5-0.2-3.8c0.6,1.9,1.2,3.8,2,5.6
	c0.2,0.4,0.3,0.7,0.5,1.1C224.3,44,222.6,44,222.6,44z M255.2,40.1c0-0.5,0-1-0.1-1.6c-0.2-2.9-0.6-5.7-1.1-8.5
	c-0.3-1.3-0.6-2.5-0.9-3.8c0.8,1.4,1.5,2.9,2.2,4.5c1,2.4,1.8,4.8,2.5,7.2c0.5,2,0.9,3.9,1.2,5.9C256.9,44,255.2,42.3,255.2,40.1
	L255.2,40.1z M277.9,31.3c-0.2,1.6-0.4,3.2-0.7,4.8l0,0c-0.8-2.8-1.9-5.8-3-8.6c1-2.1,2.2-4,3.5-5.9l0.4-0.7c0,0.9,0.1,1.9,0.1,2.9
	C278.2,26.1,278.1,28.7,277.9,31.3L277.9,31.3z M295.1,40c-0.3,1.4-0.5,2.7-0.6,3.9c-2.6,0-4.8-1.9-5.1-4.5c-0.1-1-0.3-2-0.4-3
	c-0.3-3-0.5-6.4-0.6-9.7s0.1-6.7,0.4-9.9l0.2-2c0.2,0.3,0.3,0.6,0.5,0.9s0.4,0.8,0.6,1.3c1,2.1,1.8,4.2,2.5,6.4
	c0.8,2.5,1.4,5,1.8,7.6s0.7,5.1,0.7,7.7C295.1,39.3,295.1,39.7,295.1,40z M363.5,36.4c-0.1,1-0.3,2.1-0.4,3
	c-0.4,2.6-2.5,4.5-5.1,4.5c-0.2-1.2-0.4-2.6-0.6-3.9v-1.2c0.1-2.6,0.3-5.2,0.7-7.7c0.5-2.6,1.1-5.1,1.8-7.6c0.7-2.2,1.5-4.3,2.5-6.4
	c0.2-0.5,0.4-0.9,0.6-1.3c0.2-0.4,0.3-0.6,0.5-0.9l0.2,2c0.3,3.2,0.4,6.6,0.4,9.9C364,30.1,363.8,33.4,363.5,36.4L363.5,36.4z
	 M375.2,36L375.2,36c-0.3-1.6-0.5-3.2-0.7-4.8c-0.2-2.6-0.4-5.1-0.4-7.6c0-1,0-2,0.1-2.9c0.1,0.2,0.3,0.4,0.5,0.7
	c1.3,1.9,2.5,3.9,3.5,5.9C377.1,30.2,376.1,33.2,375.2,36z M398.4,30.1c-0.5,2.8-0.9,5.7-1.1,8.5c0,0.5-0.1,1-0.1,1.6
	c0,2.1-1.8,3.8-3.9,3.9c0.3-2,0.7-4,1.2-5.9c0.7-2.5,1.5-4.9,2.5-7.2c0.7-1.6,1.5-3.1,2.2-4.5C399,27.5,398.7,28.8,398.4,30.1z
	 M430.4,41.2c-0.1,1-0.3,1.9-0.6,2.9h-1.7c0.2-0.4,0.3-0.7,0.5-1.1c0.8-1.8,1.5-3.7,2-5.6C430.6,38.6,430.6,39.9,430.4,41.2
	L430.4,41.2z M437.2,40.6l-0.4,0.7c-0.1-0.5-0.2-1-0.4-1.5c-1-3.4-2.4-6.6-4.2-9.6c0.5-3.5,0.7-7,0.7-10.5c0.1,0.3,0.3,0.5,0.4,0.8
	c0.9,2,1.7,4.1,2.3,6.2c0.7,2.3,1.1,4.7,1.4,7.1C437.2,36.1,437.3,38.4,437.2,40.6L437.2,40.6z M449,42.2c0,0.7,0,1.3,0,1.9
	c-1.4,0-2.7-1-3-2.4c0-0.1-0.1-0.3-0.1-0.4c0.8-2.9,1.4-5.9,1.8-8.9c0.3-2.8,0.5-5.7,0.6-8.5c0.2,2.5,0.5,5.3,0.6,8.1
	C449,35.6,449,39.3,449,42.2L449,42.2z M542.3,40.9c-0.1,1.1-0.2,2.1-0.4,3l-0.1,0.1c-1,0-1.9-0.9-1.9-1.9c0-0.1,0-0.2,0-0.3
	c0.1-0.4,0.1-0.9,0.2-1.3c0.3-2.6,0.5-5.5,0.6-8.3c0-2.5,0-4.9-0.2-7.3c0.5,1.6,0.9,3.2,1.2,4.9c0.3,1.8,0.5,3.7,0.6,5.6
	C542.5,37.2,542.4,39.1,542.3,40.9L542.3,40.9z M554.5,44L554.5,44h-1.9c0.7-3.4,1.4-7.6,2-11.8c0.3,1.8,0.6,3.5,0.8,5.3
	c0.1,0.6,0.1,1.2,0.2,1.8C555.7,40.9,555.3,42.5,554.5,44L554.5,44z M582.5,42.3c-0.9,1.8-1.6,2.1-2.2,1.7c-1.3-1.1-1.6-6.4-1.6-7.7
	c0-2.1,0.2-4.2,0.5-6.2c0.3-1.8,0.6-3.6,1.1-5.4c0.2-0.8,0.4-1.5,0.6-2.1l0.3-0.9c0,0.1,0,0.1,0,0.2c0.5,2.2,0.9,4.4,1.1,6.7
	c0.3,2.5,0.4,5,0.4,7.6C582.7,38.2,582.6,40.3,582.5,42.3L582.5,42.3z M595.4,43.5l-0.3,0.5h-2.7c0.3-2.7,0.8-6.2,1.5-9.7
	c0.2-1.2,0.5-2.4,0.8-3.6c0.4,2.2,0.6,4.5,0.8,6.7C595.6,39.5,595.6,41.5,595.4,43.5L595.4,43.5z M659,36.5c-0.2,1.9-0.8,5.4-2,6.8
	c-0.9,1-2,0.9-3.5-1.6c-1.8-2.9-0.4-7.6,0.1-10.5c0.4-2.6,1-5.1,1.8-7.7c0.7-2.2,1.5-4.3,2.5-6.4c0.2-0.5,0.4-0.9,0.6-1.3
	c0.2-0.4,0.3-0.6,0.5-0.9l0.2,2c0.3,3.2,0.4,6.6,0.4,9.9S659.4,33.4,659,36.5L659,36.5z M670.8,36L670.8,36
	c-0.3-1.6-0.5-3.2-0.7-4.8c-0.2-2.6-0.4-5.1-0.4-7.6s0.1-4.7,0.3-6.6c0.1-1,0.2-1.9,0.3-2.6c0.1-0.8,0.2-1.5,0.3-2
	c0.1-0.7,0.2-1.3,0.3-1.5c0,0.1,0.1,0.2,0.1,0.4c0.8,2.2,1.6,4.8,2.3,7.7c0.5,2,0.9,4,1.3,6.1l-0.7,1.5
	C672.9,29.7,671.7,32.9,670.8,36z M685.3,31.3c-0.2,1.6-0.4,3.2-0.7,4.8l0,0c-0.9-3.1-2.1-6.3-3.3-9.4c-0.2-0.5-0.4-1-0.7-1.5
	c0.4-2.1,0.9-4.2,1.3-6.1c0.8-2.8,1.5-5.5,2.3-7.7c0-0.1,0.1-0.2,0.1-0.4c0,0.3,0.1,0.8,0.3,1.5c0.1,0.6,0.2,1.2,0.3,2
	s0.2,1.7,0.3,2.6c0.2,1.9,0.3,4.2,0.3,6.6C685.7,26.1,685.6,28.7,685.3,31.3L685.3,31.3z M702,41.6c-1.5,2.5-2.7,2.6-3.5,1.6
	c-1.2-1.4-1.8-4.8-2-6.8c-0.3-3-0.5-6.4-0.6-9.7s0.1-6.7,0.4-9.9l0.2-2c0.2,0.3,0.3,0.6,0.5,0.9c0.2,0.3,0.4,0.8,0.6,1.3
	c1,2.1,1.8,4.2,2.5,6.4c0.8,2.5,1.4,5,1.8,7.6C702.4,34,703.8,38.7,702,41.6z M760.3,44l-0.3-0.5c-0.1-2-0.1-4,0-6
	c0.1-2.3,0.4-4.5,0.8-6.7c0.3,1.2,0.6,2.4,0.8,3.6c0.7,3.5,1.2,6.9,1.5,9.7L760.3,44z M775.2,43.9c-0.6,0.5-1.3,0.1-2.2-1.7
	c-0.2-2-0.3-4-0.3-6.1c0-2.5,0.2-5.1,0.4-7.6c0.3-2.2,0.6-4.4,1.1-6.6c0-0.1,0-0.1,0-0.2l0.3,0.9c0.2,0.6,0.4,1.3,0.6,2.1
	c0.5,1.8,0.8,3.6,1.1,5.4c0.3,2.1,0.5,4.1,0.5,6.2C776.8,37.5,776.4,42.8,775.2,43.9L775.2,43.9z M800.9,44L800.9,44
	c-0.8-1.4-1.1-3.1-1-4.7c0-0.6,0.1-1.2,0.2-1.8c0.2-1.8,0.5-3.6,0.8-5.3c0.6,4.3,1.3,8.4,2,11.8H800.9z M813.7,44L813.7,44
	c-0.3-1-0.4-2.1-0.5-3.1c-0.1-1.8-0.2-3.6-0.1-5.4c0.1-1.9,0.3-3.7,0.6-5.6c0.3-1.7,0.7-3.3,1.1-5c-0.1,2.3-0.2,4.8-0.1,7.3
	c0.1,2.8,0.3,5.7,0.6,8.3c0.1,0.4,0.1,0.9,0.2,1.3c0.2,1-0.5,2-1.6,2.2C813.8,44,813.7,44,813.7,44L813.7,44z M909.5,41.6
	c-0.3,1.4-1.5,2.4-3,2.4c0-0.6,0-1.2,0-1.9c0-2.8,0-6.6,0.2-10.3c0.1-2.8,0.3-5.7,0.6-8.1c0,2.9,0.2,5.7,0.5,8.5c0.4,3,1,6,1.8,8.9
	C909.5,41.3,909.5,41.4,909.5,41.6L909.5,41.6z M919.1,39.8c-0.1,0.5-0.3,1-0.4,1.5l-0.4-0.7c-0.1-2.2,0-4.5,0.2-6.7
	c0.3-2.4,0.8-4.8,1.4-7.1c0.6-2.1,1.4-4.2,2.3-6.2l0.4-0.8c0,3.5,0.2,7,0.7,10.5C921.5,33.2,920.1,36.4,919.1,39.8L919.1,39.8z
	 M925.7,44c-0.3-0.9-0.5-1.9-0.6-2.9c-0.2-1.3-0.3-2.5-0.3-3.8c0.6,1.9,1.2,3.8,2,5.6c0.2,0.4,0.3,0.7,0.5,1.1L925.7,44z
	 M958.2,40.1c0-0.5-0.1-1-0.1-1.6c-0.2-2.9-0.6-5.7-1.1-8.5c-0.3-1.3-0.6-2.5-0.9-3.8c0.8,1.4,1.5,2.9,2.2,4.5
	c1,2.4,1.8,4.8,2.5,7.2c0.5,2,0.9,3.9,1.2,5.9C960,44,958.2,42.3,958.2,40.1L958.2,40.1z M980.9,31.3c-0.2,1.6-0.4,3.2-0.7,4.8l0,0
	c-0.9-2.8-1.9-5.8-3-8.6c1-2.1,2.2-4,3.5-5.9c0.2-0.2,0.3-0.4,0.5-0.7c0,0.9,0.1,1.9,0.1,2.9C981.2,26.1,981.1,28.7,980.9,31.3
	L980.9,31.3z M998.2,40c-0.3,1.4-0.5,2.7-0.7,3.9c-2.6,0-4.8-1.9-5.1-4.5c-0.1-1-0.3-2-0.4-3c-0.3-3-0.5-6.4-0.6-9.7
	s0.1-6.7,0.4-9.9c0.1-0.7,0.1-1.3,0.2-2c0.2,0.3,0.3,0.6,0.5,0.9l0.6,1.3c1,2.1,1.8,4.2,2.5,6.4c0.8,2.5,1.4,5,1.8,7.6
	c0.4,2.6,0.7,5.1,0.7,7.7L998.2,40z M1066.5,36.4c-0.1,1-0.3,2.1-0.4,3c-0.4,2.6-2.5,4.5-5.1,4.5c-0.2-1.2-0.4-2.6-0.6-3.9
	c0-0.4,0-0.8,0-1.2c0.1-2.6,0.3-5.2,0.7-7.7c0.4-2.6,1.1-5.1,1.8-7.6c0.7-2.2,1.5-4.3,2.5-6.4l0.6-1.3l0.5-0.9l0.2,2
	c0.3,3.2,0.4,6.6,0.4,9.9C1067.1,30.1,1066.8,33.4,1066.5,36.4L1066.5,36.4z M1078.3,36L1078.3,36c-0.3-1.6-0.5-3.2-0.7-4.8
	c-0.2-2.6-0.4-5.1-0.4-7.6c0-1,0-2,0.1-2.9l0.4,0.7c1.3,1.9,2.5,3.9,3.5,5.9C1080.2,30.2,1079.1,33.2,1078.3,36L1078.3,36z
	 M1101.5,30c-0.5,2.8-0.9,5.7-1.1,8.5c0,0.5-0.1,1-0.1,1.6c0,2.1-1.8,3.8-3.9,3.9c0.3-2,0.7-4,1.2-5.9c0.7-2.5,1.5-4.9,2.5-7.2
	c0.7-1.6,1.5-3.1,2.3-4.5C1102,27.5,1101.7,28.8,1101.5,30L1101.5,30z M1133.4,41.1c-0.1,1-0.3,1.9-0.6,2.9h-1.7
	c0.2-0.4,0.3-0.7,0.5-1.1c0.8-1.8,1.4-3.7,2-5.6C1133.7,38.6,1133.6,39.9,1133.4,41.1L1133.4,41.1z M1140.2,40.6
	c-0.1,0.2-0.3,0.5-0.4,0.7c-0.1-0.5-0.2-1-0.4-1.5c-1-3.4-2.4-6.6-4.2-9.6c0.5-3.5,0.7-7,0.7-10.5c0.1,0.3,0.3,0.5,0.4,0.8
	c0.9,2,1.7,4.1,2.3,6.2c0.7,2.3,1.1,4.7,1.4,7.1C1140.3,36.1,1140.3,38.3,1140.2,40.6L1140.2,40.6z M1152,42.1c0,0.7,0,1.3,0,1.9
	c-1.4,0-2.7-1-3-2.4c0-0.1-0.1-0.3-0.1-0.4c0.8-2.9,1.4-5.9,1.8-8.9c0.3-2.8,0.5-5.7,0.6-8.5c0.2,2.5,0.5,5.3,0.6,8.1
	C1152,35.6,1152.1,39.3,1152,42.1z M1245.3,40.9c-0.1,1.1-0.2,2.1-0.4,3l-0.1,0.1c-1,0-1.9-0.9-1.9-1.9c0-0.1,0-0.2,0-0.3
	c0.1-0.4,0.1-0.9,0.2-1.3c0.3-2.6,0.5-5.5,0.6-8.3c0-2.5,0-4.9-0.2-7.3c0.5,1.6,0.9,3.3,1.2,4.9c0.3,1.8,0.5,3.7,0.6,5.6
	C1245.5,37.2,1245.5,39,1245.3,40.9L1245.3,40.9z M1257.6,44L1257.6,44h-1.9c0.7-3.4,1.4-7.6,2-11.8c0.3,1.8,0.6,3.5,0.8,5.3
	c0.1,0.6,0.1,1.2,0.2,1.8C1258.7,40.9,1258.4,42.5,1257.6,44L1257.6,44z"/>
</svg>
