<svg width="64" height="64" viewBox="0 0 64 64" fill="none" xmlns="http://www.w3.org/2000/svg">
<path d="M16.376 45.5317C17.1026 33.5076 23.9747 21.4504 33.1645 13.7722C38.4136 9.4823 45.6679 6.72472 52.2221 10.3616C51.9341 10.1907 43.9663 5.15163 43.9745 5.2212C42.6941 4.60548 41.2935 4.26875 39.8761 4.17736C31.2311 3.84811 24.2539 10.041 19.251 16.5016C15.3733 21.5634 12.3934 27.347 10.6655 33.4905C8.28743 41.465 8.5365 52.7762 15.5077 56.6752C15.5075 56.6753 24.089 61.0976 24.089 61.0976C19.9257 58.925 15.8798 52.1542 16.376 45.5317Z" fill="#FBDBD0"/>
<path d="M36.8403 11.2289C25.5026 17.8293 16.3392 33.833 16.3762 46.9724C16.4131 60.1091 25.6363 65.4088 36.974 58.8084C48.3144 52.2066 57.4776 36.2028 57.4407 23.0662C57.4037 9.9268 48.1806 4.62689 36.8403 11.2289ZM36.809 55.0952C27.2055 60.6649 19.3665 56.1774 19.3352 45.0923C19.3039 34.0038 27.092 20.4531 36.6956 14.8834C46.3021 9.31192 54.1411 13.7993 54.1724 24.888C54.2037 35.9732 46.4155 49.5239 36.809 55.0952Z" fill="white"/>
<path d="M36.809 55.0952C27.2055 60.6649 19.3665 56.1774 19.3352 45.0923C19.3039 34.0038 27.092 20.4531 36.6956 14.8834C46.3021 9.31192 54.1411 13.7993 54.1724 24.888C54.2037 35.9732 46.4155 49.5239 36.809 55.0952Z" fill="white"/>
<path d="M48.2282 13.2289C50.3568 15.6328 51.9008 19.8191 51.9135 24.0517C51.9476 35.3917 43.4906 49.2021 33.026 54.8997C29.727 56.6958 26.2628 56.199 23.4779 55.7818C27.781 58.7178 31.8169 57.9904 36.809 55.0952C46.4156 49.5239 54.2037 35.9732 54.1724 24.888C54.1565 19.253 52.658 15.3425 48.2282 13.2289Z" fill="#C1DBF6"/>
<path d="M40.7406 35.8751L46.1874 38.6438L45.0732 40.4964L39.8762 37.7142L40.7406 35.8751Z" fill="#374874"/>
<path d="M35.1716 32.7948L31.8221 23.0592L32.8727 22.3906L36.2633 31.6678L35.1716 32.7948Z" fill="#374874"/>
<path d="M34.8618 37.2808C34.972 35.4566 36.0146 33.5669 37.4087 32.4021C38.205 31.7514 39.3785 31.1622 40.3728 31.7139C40.3291 31.688 39.0694 30.9524 39.0706 30.9629C38.8764 30.8695 38.6639 30.8184 38.4489 30.8046C37.1374 30.7546 35.9306 31.8146 35.1716 32.7948C34.5833 33.5626 34.1313 34.4401 33.8691 35.3721C33.5084 36.5818 33.5462 38.2978 34.6037 38.8893C34.6037 38.8893 35.799 39.5839 35.799 39.5839C35.1674 39.2543 34.7865 38.2854 34.8618 37.2808Z" fill="#374874"/>
<path d="M39.522 31.9525C40.3559 31.9525 40.8557 32.6377 40.8589 33.7854C40.8642 35.6538 39.4945 38.0257 37.8678 38.9648C37.4252 39.2204 36.9888 39.3555 36.6058 39.3555C35.7496 39.3555 35.2364 38.6846 35.2333 37.5609C35.228 35.6912 36.6342 33.2972 38.3039 32.3331C38.7352 32.0841 39.1564 31.9525 39.522 31.9525ZM39.522 31.4954C39.0861 31.4954 38.5947 31.6375 38.0754 31.9373C36.2942 32.9656 34.7703 35.5155 34.7761 37.5623C34.7802 38.9998 35.538 39.8126 36.6058 39.8126C37.0583 39.8126 37.5663 39.6667 38.0964 39.3607C39.8776 38.3324 41.3219 35.8308 41.3161 33.784C41.312 32.3339 40.5811 31.4954 39.522 31.4954Z" fill="#374874"/>
<path d="M38.0805 33.7538C37.1711 34.2788 36.4336 35.5561 36.4366 36.6012C36.4396 37.6461 37.1818 38.0692 38.0913 37.5441C39.0007 37.019 39.7382 35.7418 39.7352 34.6967C39.7322 33.6516 38.99 33.2287 38.0805 33.7538Z" fill="#374874"/>
<path d="M39.2165 4.16477C39.4349 4.16477 39.6556 4.16903 39.8762 4.17739C41.2935 4.2688 42.6941 4.60551 43.9745 5.22137C43.9745 5.22091 43.9748 5.22071 43.9755 5.22071C44.0484 5.22071 48.222 7.84772 50.6054 9.34727C54.7836 11.2764 57.421 16.0536 57.4407 23.0662C57.4776 36.2029 48.3144 52.2066 36.974 58.8084C33.6668 60.7338 30.5403 61.6451 27.7689 61.6451C26.3434 61.6451 25.0119 61.4039 23.7981 60.9357C23.895 60.9913 23.9919 61.0471 24.089 61.0977C24.0877 61.0971 23.9331 61.0175 23.6716 60.8826C23.1017 60.6536 22.5592 60.3733 22.0449 60.0443C19.5068 58.7363 15.5076 56.6753 15.5077 56.6753C8.53651 52.7763 8.28744 41.4651 10.6655 33.4906C12.3934 27.3472 15.3733 21.5634 19.251 16.5017C24.1262 10.2059 30.8751 4.1642 39.2165 4.16477ZM39.2152 3.25049C32.0094 3.25049 25.0493 7.52057 18.5281 15.9419C14.5215 21.1719 11.5 27.1508 9.78746 33.2357C8.46776 37.6646 8.06266 42.5881 8.67615 46.7447C9.42938 51.8483 11.6374 55.5582 15.0614 57.4733L15.0654 57.4661C15.1426 57.5157 15.214 57.5525 15.2656 57.5791L15.7534 57.8305L17.4057 58.6821L21.589 60.8379C22.129 61.1803 22.7008 61.4749 23.29 61.7145L23.6583 61.9043L23.6695 61.9101C23.8036 61.9792 23.9468 62.012 24.088 62.012C24.0938 62.012 24.0996 62.012 24.1053 62.0119C25.2531 62.3754 26.4823 62.5593 27.7689 62.5593C30.8074 62.5593 34.0592 61.5631 37.4339 59.5986C43.055 56.3263 48.3229 50.7305 52.2672 43.8423C56.2112 36.9543 58.3732 29.5751 58.3549 23.0637C58.335 15.9992 55.6712 10.711 51.0434 8.54272L50.9002 8.45266C49.6953 7.69451 48.1026 6.6925 46.8023 5.88C45.2748 4.92553 44.6738 4.54999 44.3685 4.40221L44.3708 4.39753C43.0224 3.74887 41.53 3.36795 39.935 3.26505C39.9269 3.2645 39.9189 3.26416 39.9109 3.26381C39.6806 3.25499 39.447 3.25053 39.2165 3.25053L39.2152 3.25049Z" fill="#374874"/>
<path d="M44.4976 12.4896C50.21 12.489 54.1502 17.0316 54.1723 24.888C54.2036 35.9732 46.4155 49.5239 36.809 55.0952C34.0095 56.7188 31.3597 57.4879 29.0098 57.4879C23.2984 57.4879 19.3573 52.946 19.3351 45.0923C19.3039 34.0038 27.0919 20.453 36.6955 14.8834C39.4959 13.2593 42.1472 12.4899 44.4976 12.4896ZM44.4988 12.0325V12.4896L44.4985 12.0325C41.9771 12.0327 39.275 12.8589 36.4662 14.4879C26.7364 20.1308 18.8463 33.8604 18.878 45.0936C18.889 48.9926 19.8589 52.2528 21.6827 54.5217C23.4831 56.7612 26.0167 57.945 29.0098 57.945C31.5291 57.945 34.2303 57.1192 37.0383 55.4906C46.7698 49.8469 54.6612 36.118 54.6295 24.8866C54.6185 20.9867 53.6488 17.7259 51.8254 15.4567C50.0252 13.2165 47.4917 12.0325 44.4988 12.0325Z" fill="#374874"/>
</svg>
