<svg viewBox="0 0 64 64" preserveAspectRatio="none" xmlns="http://www.w3.org/2000/svg" fill="#383E45">
    <path opacity="0.5" d="M33.28 4.92364C29.4852 9.84672 23.5671 24.0005 17.9702 35.6928C18.7985 40 19.7522 45.1692 20.5553 48C32.4769 80 37.0799 59.3236 45.6283 23.3852C41.4268 12.4313 38.1039 -1.35328 33.28 4.92364Z"/>
    <path opacity="0.5" d="M49.5937 7.2615C48.1933 12.923 46.8731 18.092 45.6282 23.3843C46.4565 38.5 51.2954 46.1538 53.8604 48C57.7807 50.9538 60.9631 41 64 24.615C59.6279 6.39963 53.8052 -9.84619 49.5937 7.2615Z"/>
    <path opacity="0.5" d="M0 61C0.0153665 61.0987 0.346445 60.7403 5.85833 58.5C8.65415 57.3937 13.1765 53 17.9702 35.6927C11.1488 13.813 1.77688 -10.3154 0 7.38504V61Z"/>
    <path d="M45.6282 23.3848C37.0798 59.3231 31.5231 82.0922 20.5954 44.3076C19.823 41.5849 18.9669 38.8623 18.0764 36.0301L17.9702 35.6923C13.8207 43.082 11.7459 57.8615 0 57.8615V64.9996H64V24.6154C60.5766 31.877 56.2045 38.2774 52.2842 35.3235C49.7192 33.4774 47.5758 28.4309 45.6282 23.3848Z"/>
</svg>
