<svg width="320" height="180" viewBox="0 0 320 180" fill="none" xmlns="http://www.w3.org/2000/svg">
  <rect width="320" height="180" rx="24" fill="#111827"/>
  <rect x="18" y="18" width="284" height="144" rx="20" fill="url(#card)" stroke="#2F466F" stroke-width="2"/>
  <rect x="38" y="42" width="90" height="10" rx="5" fill="#5A79FF"/>
  <rect x="38" y="62" width="148" height="8" rx="4" fill="#9AA3B8"/>
  <rect x="38" y="84" width="58" height="8" rx="4" fill="#7C5CFF"/>
  <rect x="106" y="84" width="82" height="8" rx="4" fill="#E8EAF6" fill-opacity="0.9"/>
  <rect x="38" y="102" width="46" height="8" rx="4" fill="#4FD1C5"/>
  <rect x="94" y="102" width="116" height="8" rx="4" fill="#7F8FB3"/>
  <rect x="38" y="120" width="66" height="8" rx="4" fill="#F59E0B"/>
  <rect x="114" y="120" width="54" height="8" rx="4" fill="#E8EAF6"/>
  <rect x="198" y="46" width="76" height="84" rx="16" fill="#121B2A" stroke="#314B78" stroke-width="2"/>
  <path d="M218 72L234 58L250 72" stroke="#5A79FF" stroke-width="6" stroke-linecap="round" stroke-linejoin="round"/>
  <path d="M250 104L234 118L218 104" stroke="#7C5CFF" stroke-width="6" stroke-linecap="round" stroke-linejoin="round"/>
  <path d="M222 89H246" stroke="#E8EAF6" stroke-width="5" stroke-linecap="round"/>
  <circle cx="256" cy="30" r="8" fill="#5A79FF"/>
  <circle cx="274" cy="142" r="6" fill="#7C5CFF"/>
  <defs>
    <linearGradient id="card" x1="32" y1="24" x2="280" y2="154" gradientUnits="userSpaceOnUse">
      <stop stop-color="#162135"/>
      <stop offset="1" stop-color="#111827"/>
    </linearGradient>
  </defs>
</svg>
