<svg viewBox="0 0 1400 1400" fill="none" xmlns="http://www.w3.org/2000/svg">
    <defs>
        <linearGradient id="gradient_1" x1="1211.5" y1="1310.5" x2="616.5" y2="1304.5" gradientUnits="userSpaceOnUse">
            <stop stop-color="#383E45" stop-opacity="0"/>
            <stop offset="1" stop-color="#383E45"/>
        </linearGradient>
        <linearGradient id="gradient_2" x1="561.5" y1="1310.5" x2="-33.5001" y2="1304.5" gradientUnits="userSpaceOnUse">
            <stop stop-color="#383E45" stop-opacity="0"/>
            <stop offset="1" stop-color="#383E45"/>
        </linearGradient>
        <linearGradient id="gradient_3" x1="310.692" y1="1369.75" x2="-103.05" y2="1365.58" gradientUnits="userSpaceOnUse">
            <stop stop-color="#383E45" stop-opacity="0"/>
            <stop offset="1" stop-color="#383E45"/>
        </linearGradient>
        <linearGradient id="gradient_4" x1="1234.5" y1="1601.5" x2="1724.5" y2="1131" gradientUnits="userSpaceOnUse">
            <stop stop-color="#383E45" stop-opacity="0"/>
            <stop offset="1" stop-color="#383E45"/>
        </linearGradient>
        <linearGradient id="gradient_5" x1="727.489" y1="1805.67" x2="1552.08" y2="1013.9" gradientUnits="userSpaceOnUse">
            <stop stop-color="#383E45" stop-opacity="0"/>
            <stop offset="1" stop-color="#383E45"/>
        </linearGradient>
        <linearGradient id="gradient_6" x1="709.835" y1="1706.41" x2="73.769" y2="1095.65" gradientUnits="userSpaceOnUse">
            <stop stop-color="#383E45" stop-opacity="0"/>
            <stop offset="1" stop-color="#383E45"/>
        </linearGradient>
    </defs>
    <path d="M1350 1505L1048 1203L746 1505L1350 1505Z" fill="url(#gradient_1)"/>
    <path d="M700 1505L398 1203L95.9999 1505L700 1505Z" fill="url(#gradient_2)"/>
    <path d="M407 1505L197 1295L-13.0001 1505L407 1505Z" fill="url(#gradient_3)"/>
    <path d="M1977 1632L1400 1055L823 1632L1977 1632Z" fill="url(#gradient_4)"/>
    <path d="M1977 1857L1006 886L34.9998 1857L1977 1857Z" fill="url(#gradient_5)" opacity="0.25"/>
    <path d="M-254 1746L495 997L1244 1746L-254 1746Z" fill="url(#gradient_6)" opacity="0.15"/>
</svg>
