<?xml version="1.0" encoding="UTF-8" standalone="no"?><svg xmlns="http://www.w3.org/2000/svg" xmlns:xlink="http://www.w3.org/1999/xlink" style="isolation:isolate" viewBox="0 0 100 100" width="100pt" height="100pt"><defs><clipPath id="_clipPath_JQKfeprzGCqweYHysNwFC93s33TTLYMa"><rect width="100" height="100"/></clipPath></defs><g clip-path="url(#_clipPath_JQKfeprzGCqweYHysNwFC93s33TTLYMa)"><rect width="100" height="100" style="fill:rgb(0,0,0)" fill-opacity="0"/><g><path d=" M 73.153 24.364 C 74.115 25.121 75.195 25.725 76.364 26.15 C 77.481 26.557 78.643 26.788 79.811 26.841 C 79.345 31.478 78.276 37.25 76.809 43.024 L 63.516 43.024 C 67.067 34.977 70.347 28.628 73.153 24.364 Z " fill="rgb(247,134,19)"/><g><rect x="44.544" y="-0.228" width="13.952" height="43.252" transform="matrix(1,0,0,1,0,0)" fill="rgb(0,160,121)"/><path d=" M 44.544 -0.228 L 58.496 -0.228 L 58.496 5.121 L 53.846 5.121 C 52.562 5.121 51.52 6.162 51.52 7.446 C 51.52 8.73 52.562 9.771 53.846 9.771 L 58.496 9.771 L 58.496 14.422 L 53.846 14.422 C 52.562 14.422 51.52 15.463 51.52 16.747 C 51.52 18.032 52.562 19.073 53.846 19.073 L 58.496 19.073 L 58.496 23.723 L 53.846 23.723 C 52.562 23.723 51.52 24.764 51.52 26.049 C 51.52 27.333 52.562 28.374 53.846 28.374 L 58.496 28.374 L 58.496 33.025 L 53.846 33.025 C 52.562 33.025 51.52 34.066 51.52 35.35 C 51.52 36.635 52.562 37.676 53.846 37.676 L 58.496 37.676 L 58.496 43.024 L 44.544 43.024 L 44.544 -0.228 Z " fill="rgb(0,206,179)"/></g><path d=" M 17.747 7.168 L 28.646 19.92 C 27.183 22.113 25.114 23.728 22.681 24.547 C 20.258 25.364 17.71 25.31 15.348 24.419 L 17.747 7.168 Z " fill="rgb(46,188,250)"/><path d=" M 15.288 23.257 C 16.318 23.473 17.367 23.583 18.422 23.583 C 19.766 23.583 21.12 23.406 22.453 23.049 C 24.834 22.412 26.979 21.241 28.763 19.643 L 31.201 28.742 L 34.872 43.024 L 20.423 43.024 L 17.737 32.397 C 17.734 32.386 17.731 32.375 17.728 32.365 L 15.288 23.257 Z " fill="rgb(8,139,245)"/><g><path d=" M 79.61 93.252 C 79.61 97.098 76.481 100.228 72.634 100.228 L 26.127 100.228 C 22.28 100.228 19.151 97.098 19.151 93.252 L 19.151 47.675 L 79.61 47.675 L 79.61 93.252 Z " fill="rgb(152,81,132)"/><path d=" M 84.261 45.349 C 84.261 45.97 84.019 46.554 83.579 46.993 C 83.14 47.433 82.556 47.675 81.935 47.675 L 16.825 47.675 C 15.543 47.675 14.5 46.631 14.5 45.349 C 14.5 44.729 14.742 44.145 15.182 43.706 C 15.621 43.266 16.205 43.024 16.825 43.024 L 37.843 43.024 C 37.848 43.024 37.852 43.024 37.857 43.024 C 37.86 43.024 37.863 43.024 37.866 43.024 L 61.636 43.024 C 61.64 43.024 61.644 43.024 61.648 43.024 C 61.65 43.024 61.653 43.024 61.656 43.024 L 80.275 43.024 C 80.278 43.024 80.281 43.024 80.284 43.024 C 80.288 43.024 80.293 43.024 80.297 43.024 L 81.936 43.024 C 83.217 43.024 84.261 44.067 84.261 45.349 Z " fill="rgb(113,34,88)"/><g><path d=" M 26.127 61.627 C 24.843 61.627 23.801 62.668 23.801 63.952 L 23.801 93.252 C 23.801 94.536 24.843 95.577 26.127 95.577 C 27.411 95.577 28.452 94.536 28.452 93.252 L 28.452 63.952 C 28.452 62.668 27.411 61.627 26.127 61.627 Z " fill="rgb(113,34,88)"/><path d=" M 26.127 52.325 C 24.843 52.325 23.801 53.367 23.801 54.651 C 23.801 55.934 24.843 56.976 26.127 56.976 C 27.41 56.976 28.452 55.934 28.452 54.651 C 28.452 53.367 27.41 52.325 26.127 52.325 Z " fill="rgb(113,34,88)"/></g></g><path d=" M 85.197 22.249 C 84.376 24.502 82.486 26.157 80.134 26.676 C 78.848 26.963 77.506 26.874 76.255 26.419 C 74.959 25.947 73.843 25.112 73.028 24.006 C 73.028 24.005 73.028 24.005 73.027 24.004 C 71.637 22.118 71.285 19.678 72.084 17.478 C 72.956 15.085 78.628 9.982 83.565 6.1 C 84.923 12.271 86.067 19.86 85.197 22.249 Z " fill="rgb(251,185,69)"/></g></g></svg>