<svg width="64" height="64" viewBox="0 0 64 64" fill="none" xmlns="http://www.w3.org/2000/svg">
<path d="M32.5125 11.4113L27.7457 8.71763C27.1893 8.28739 26.4241 8.24848 25.827 8.62007L5.13932 20.5438C4.48071 20.9576 4.19072 21.7682 4.43744 22.5058L18.4411 60.5643C18.5986 61.0023 19.1694 61.9233 19.6074 61.7658C19.6564 61.7482 19.7037 61.7261 19.7486 61.6997L59.5116 38.6814C60.1816 38.2923 60.4578 37.4658 60.1566 36.752L47.0757 5.88032C46.7147 5.02549 45.7291 4.62519 44.8742 4.9862C44.835 5.00275 44.7965 5.02078 44.7587 5.04025L34.3227 11.5712C33.7399 11.8763 33.0328 11.8138 32.5125 11.4113Z" fill="#FBDBD0"/>
<path d="M3.40499 22.1807L18.0382 60.8153L17.959 59.2562L4.43747 22.514C4.34574 22.2361 4.32707 21.9394 4.38327 21.6522L3.35349 21.2999C3.29203 21.5929 3.30981 21.8969 3.40499 22.1807Z" fill="#C1DBF6"/>
<path d="M26.9895 8.37342C26.4303 7.9467 25.6642 7.91425 25.0709 8.29212L4.10676 20.2159C3.71826 20.4593 3.44612 20.8509 3.35339 21.2998L4.38318 21.644C4.47273 21.1887 4.74631 20.7906 5.13924 20.5438L25.8269 8.62003C26.1857 8.3971 26.6154 8.31774 27.0302 8.39781L26.9895 8.37342Z" fill="white"/>
<path d="M43.7642 4.99963L33.5667 11.2325C33.2289 11.4099 32.8403 11.4654 32.4664 11.3897L32.5125 11.4168C33.0328 11.8193 33.7399 11.8818 34.3227 11.5767L44.7587 5.04029C45.1904 4.81487 45.6987 4.78818 46.1516 4.96713C46.1516 4.96713 44.7885 4.44409 43.7642 4.99963Z" fill="white"/>
<path d="M46.4362 10.7474L45.3902 16.7391C45.3128 17.0273 45.1287 17.2753 44.8753 17.4328L18.8599 32.5109C18.5202 32.7272 18.3155 33.1028 18.3179 33.5055L18.8599 61.3989C18.8647 61.6608 19.081 61.8691 19.3428 61.8643C19.4237 61.8628 19.5027 61.8406 19.5726 61.8L60.1404 38.3129C60.4772 38.1185 60.6839 37.7587 60.6824 37.3699V3.82893C60.6826 3.18089 60.1574 2.65536 59.5094 2.65515C59.2888 2.65508 59.0726 2.71721 58.8857 2.83437L46.962 10.0537C46.7037 10.2083 46.5153 10.4569 46.4362 10.7474Z" fill="white"/>
<path d="M43.9565 16.9044L17.9085 31.931C17.7906 32.0026 17.686 32.0944 17.5996 32.202L18.5725 32.7657L18.6375 32.6871C18.7061 32.6153 18.7835 32.5525 18.8679 32.5001L44.8833 17.422C45.0062 17.3459 45.1137 17.2476 45.2004 17.132L44.2736 16.6117C44.1867 16.7279 44.0793 16.8271 43.9565 16.9044Z" fill="white"/>
<path d="M45.5148 10.0672L44.4688 16.2106C44.4283 16.3597 44.3592 16.4996 44.2655 16.6225L45.1923 17.1428C45.2798 17.0236 45.345 16.8896 45.3847 16.7471L46.4307 10.7555C46.4505 10.6836 46.4768 10.6138 46.5093 10.5468C46.5643 10.435 46.6365 10.3326 46.7234 10.2433L45.7207 9.64709C45.6253 9.77233 45.5554 9.91505 45.5148 10.0672Z" fill="#C1DBF6"/>
<path d="M57.0781 2.38721C57.0613 2.39425 57.045 2.40239 57.0293 2.4116L46.0296 9.37615C45.9114 9.44737 45.8067 9.53914 45.7207 9.64714L46.7315 10.2244C46.7987 10.1558 46.8732 10.0949 46.9537 10.0428L54.9074 5.22993L58.8829 2.82351C59.4283 2.48309 60.1461 2.64504 60.4926 3.18664C59.975 2.40076 58.4222 1.76392 57.0781 2.38721Z" fill="white"/>
<path d="M17.3559 32.9283L18.0095 60.8153C18.0095 61.0132 19.1119 62.0576 19.5265 61.8163C19.5265 61.8163 19.5237 61.7906 19.4181 61.8054C19.0089 61.838 18.8409 61.3854 18.8328 60.9925L18.3152 33.4947C18.3161 33.2954 18.3674 33.0997 18.4642 32.9256C18.4953 32.869 18.5316 32.8155 18.5726 32.7657L17.5998 32.202C17.4401 32.4103 17.3542 32.6658 17.3559 32.9283Z" fill="#C1DBF6"/>
<path fill-rule="evenodd" clip-rule="evenodd" d="M51.8461 19.7264C52.0683 19.8463 52.1512 20.1236 52.0312 20.3458L39.1085 44.282C39.0509 44.3887 38.9533 44.4682 38.8371 44.5029C38.7209 44.5376 38.5957 44.5247 38.489 44.4671L33.1549 41.5857C32.9327 41.4657 32.8499 41.1883 32.9699 40.9662C33.0899 40.7441 33.3673 40.6613 33.5894 40.7813L38.5212 43.4453L51.2267 19.9114C51.3466 19.6893 51.624 19.6064 51.8461 19.7264Z" fill="#374874"/>
<path d="M58.2392 2.13562C59.2166 2.13567 60.1207 2.6225 60.4923 3.18609C60.4896 3.18209 60.4862 3.17901 60.4834 3.17501C60.609 3.36189 60.6824 3.5868 60.6823 3.82888V37.3699C60.6839 37.7586 60.4771 38.1185 60.1404 38.3129C60.1404 38.3129 19.4236 61.8628 19.3428 61.8643H19.3423C19.2174 61.8643 18.0094 60.9114 18.0094 60.8153L3.40501 22.1806C3.30981 21.8969 3.29205 21.5929 3.35352 21.2999C3.44625 20.851 3.71839 20.4593 4.10689 20.2159L25.071 8.29219C25.3467 8.11661 25.6597 8.02961 25.972 8.02963C26.3316 8.02963 26.6903 8.14509 26.9896 8.3735L27.0285 8.39686C27.2842 8.44511 27.5307 8.55135 27.7457 8.71768L32.4761 11.3908C32.5824 11.4116 32.6899 11.422 32.797 11.422C33.0635 11.422 33.3278 11.3579 33.5667 11.2325L43.7642 4.99965C44.0909 4.82248 44.5835 4.68003 45.1017 4.68006C45.8459 4.68008 46.6428 4.97389 47.0757 5.88035L48.0224 8.11448C48.0224 8.11448 56.3587 2.84095 57.0781 2.38721C57.4579 2.21112 57.8542 2.13562 58.2392 2.13562ZM58.2392 1.22134C57.695 1.22131 57.175 1.3345 56.6935 1.55777L56.6401 1.5825L56.5904 1.61388C56.0181 1.97482 50.6262 5.38545 48.4439 6.76593L47.9176 5.52367L47.9096 5.50481L47.9007 5.48634C47.3785 4.39299 46.3584 3.76586 45.1018 3.76577C44.4788 3.76572 43.8324 3.92252 43.3283 4.19594L43.3075 4.20721L43.2873 4.21955L33.1204 10.4337C33.0203 10.4822 32.9089 10.5077 32.797 10.5077C32.7883 10.5077 32.7796 10.5076 32.7709 10.5073L28.2464 7.95046C27.9935 7.76636 27.7056 7.62854 27.4016 7.5454C26.9798 7.26705 26.4785 7.11535 25.972 7.11532C25.4865 7.11532 25.0131 7.25085 24.6013 7.50751L3.65487 19.4212L3.63793 19.4308L3.62143 19.4411C3.0246 19.8151 2.60058 20.4252 2.45813 21.115C2.36396 21.5639 2.39144 22.0339 2.5382 22.4714L2.54369 22.4877L2.54979 22.5039L17.1263 61.0648C17.2203 61.4152 17.528 61.6723 18.0632 62.094C18.8065 62.6796 19.0345 62.7785 19.3423 62.7785H19.3508L19.3598 62.7784C19.6004 62.7739 19.6254 62.7596 20.2671 62.3938C20.5704 62.2209 21.0128 61.9673 21.5744 61.6446C22.6958 61.0004 24.2934 60.0801 26.2082 58.9757C30.037 56.7676 35.1344 53.8236 40.2293 50.8797C50.4188 44.9919 60.5981 39.1044 60.5981 39.1044C61.2166 38.7473 61.5995 38.0811 61.5966 37.3662V3.82888C61.5967 3.42636 61.4821 3.03656 61.2647 2.69907L61.2657 2.69841L61.2567 2.68422L61.251 2.6759C60.6729 1.80561 59.4638 1.22143 58.2392 1.22134Z" fill="#374874"/>
</svg>
