<svg xmlns="http://www.w3.org/2000/svg" xmlns:xlink="http://www.w3.org/1999/xlink" viewBox="0 0 70 70"><defs><mask id="a" x="0" y="0" width="70" height="70" maskUnits="userSpaceOnUse"><path d="M4,0H65c4,0,5,1,5,5V65c0,4-1,5-5,5H4c-3,0-4-1-4-5V5C0,1,1,0,4,0Z" style="fill:#fff;fill-rule:evenodd"/></mask></defs><g style="mask:url(#a)"><path d="M0,0H70V70H0Z" style="fill:#5f3b83;fill-rule:evenodd"/><path d="M4,1H65c2.67,0,4.33.67,5,2V0H0V3C.67,1.67,2,1,4,1Z" style="fill:#fff;fill-opacity:0.382999986410141;fill-rule:evenodd"/><path d="M4,69a3.66,3.66,0,0,1-4-4V19.19L8.63,10.5A23.59,23.59,0,0,1,14.5,7h40c3.57.45,6.57,2.38,8.41,7.39l0,41a17.75,17.75,0,0,1-3.8,6.19L51.7,69.1Z" style="fill:#393939;fill-rule:evenodd;isolation:isolate;opacity:0.324000000953674"/><path d="M4,69H65c2.67,0,4.33-1,5-3v4H0V66A3.92,3.92,0,0,0,4,69Z" style="fill-opacity:0.382999986410141;fill-rule:evenodd"/></g><g style="opacity:0.4"><path d="M51.82,9.33a8.88,8.88,0,0,1,8.85,8.85V55.82a8.88,8.88,0,0,1-8.85,8.86H14.18a8.88,8.88,0,0,1-8.86-8.86V18.18a8.88,8.88,0,0,1,8.86-8.85H51.82m0-.56H14.18a9.44,9.44,0,0,0-9.41,9.41V55.82a9.43,9.43,0,0,0,9.41,9.41H51.82a9.44,9.44,0,0,0,9.41-9.41V18.18A9.44,9.44,0,0,0,51.82,8.77Z"/><path d="M20.11,21h16a11.4,11.4,0,0,1,7.1,2,7.24,7.24,0,0,1,2.68,6.14,7.35,7.35,0,0,1-1.22,4.26,7.9,7.9,0,0,1-3.49,2.75v.09a7.18,7.18,0,0,1,4.61,2.88,9.5,9.5,0,0,1,1.57,5.61,9.36,9.36,0,0,1-.69,3.61,7.24,7.24,0,0,1-2.17,2.91,11.11,11.11,0,0,1-3.78,1.94,18.55,18.55,0,0,1-5.49.72H20.11V21Zm5.77,13.79h9.41a5.1,5.1,0,0,0,3.46-1.18,4.22,4.22,0,0,0,1.38-3.39,4.31,4.31,0,0,0-1.25-3.51,5.6,5.6,0,0,0-3.59-1H25.88v9.09Zm0,14.44H36.07a5.71,5.71,0,0,0,4.08-1.36,5,5,0,0,0,1.46-3.86,4.78,4.78,0,0,0-1.46-3.76A5.82,5.82,0,0,0,36.07,39H25.88Z"/></g><path d="M53.82,7.32a8.91,8.91,0,0,1,8.86,8.86V53.82a8.91,8.91,0,0,1-8.86,8.86H16.18a8.91,8.91,0,0,1-8.86-8.86V16.18a8.91,8.91,0,0,1,8.86-8.86H53.82m0-.55H16.18a9.43,9.43,0,0,0-9.41,9.41V53.82a9.43,9.43,0,0,0,9.41,9.41H53.82a9.43,9.43,0,0,0,9.41-9.41V16.18A9.43,9.43,0,0,0,53.82,6.77Z" style="fill:#fff"/><path d="M22.11,19h16a11.4,11.4,0,0,1,7.1,2A7.22,7.22,0,0,1,47.9,27.2a7.36,7.36,0,0,1-1.22,4.27,7.84,7.84,0,0,1-3.49,2.75v.09a7.18,7.18,0,0,1,4.61,2.88,9.48,9.48,0,0,1,1.57,5.61,9.36,9.36,0,0,1-.69,3.61,7.24,7.24,0,0,1-2.17,2.91,11,11,0,0,1-3.78,1.94,18.91,18.91,0,0,1-5.49.71H22.11V19Zm5.77,13.79h9.41a5.15,5.15,0,0,0,3.46-1.18,4.22,4.22,0,0,0,1.38-3.39,4.3,4.3,0,0,0-1.24-3.51,5.61,5.61,0,0,0-3.6-1H27.88v9.09Zm0,14.44H38.07a5.67,5.67,0,0,0,4.08-1.37,5,5,0,0,0,1.46-3.85,4.82,4.82,0,0,0-1.46-3.77A5.87,5.87,0,0,0,38.07,37H27.88Z" style="fill:#fff"/></svg>