<svg xmlns="http://www.w3.org/2000/svg" xmlns:xlink="http://www.w3.org/1999/xlink" width="70" height="70" viewBox="0 0 70 70"><defs><path id="a" d="M4 0h61c4 0 5 1 5 5v60c0 4-1 5-5 5H4c-3 0-4-1-4-5V5c0-4 1-5 4-5z"/><linearGradient id="c" x1="100%" x2="0%" y1="0%" y2="100%"><stop offset="0%" stop-color="#B06161"/><stop offset="45.785%" stop-color="#984E4E"/><stop offset="100%" stop-color="#7C3838"/></linearGradient></defs><g fill="none" fill-rule="evenodd"><mask id="b" fill="#fff"><use xlink:href="#a"/></mask><g mask="url(#b)"><path fill="url(#c)" d="M0 0H70V70H0z"/><path fill="#FFF" fill-opacity=".383" d="M4 1h61c2.667 0 4.333.667 5 2V0H0v3c.667-1.333 2-2 4-2z"/><path fill="#393939" d="M41.118 69H4c-2 0-4-1-4-4V28.375L15 12h41v42L41.118 69z" opacity=".324"/><path fill="#000" fill-opacity=".383" d="M4 69h61c2.667 0 4.333-1 5-3v4H0v-4c.667 2 2 3 4 3z"/><path fill="#FFF" d="M34 17v-2h2v2h2v2h-2v2h-2v-2h-2v-2h2zM15 42h41v12H15V42zm19.51 8.985a.608.608 0 0 0 .73 0l5.942-4.792c.202-.162.202-.426 0-.589l-.73-.59a.608.608 0 0 0-.731 0l-4.846 3.909-2.262-1.825a.608.608 0 0 0-.731 0l-.73.59c-.202.162-.202.426 0 .589l3.358 2.708zM15 12h41v12H15V12zm0 15h41v12H15V27zm2-13v8h37v-8H17zm0 15v8h37v-8H17zm15 3h6v2h-6v-2z"/></g></g></svg>