<svg width="50" height="50" viewBox="0 0 50 50" xmlns="http://www.w3.org/2000/svg"><g clip-path="url(#cod_provider__a)"><path d="M33.414 5.173a3.938 3.938 0 0 1 5.609 0l9.815 9.914a4.034 4.034 0 0 1 0 5.664L25 44.827a3.939 3.939 0 0 1-5.609 0l-9.815-9.914a4.034 4.034 0 0 1 0-5.664L33.414 5.173Z" fill="#1AD3BB"/><path d="M25.002 44.827a4.034 4.034 0 0 1 0-5.664l8.413-8.498a3.938 3.938 0 0 1 5.609 0L25 44.827Z" fill="#1A6F66"/><path d="M39.022 30.664a4.034 4.034 0 0 1 0 5.665l-8.413 8.497a3.938 3.938 0 0 1-5.609 0l14.022-14.162ZM3.924 13.92c-3.512.042-5.237 4.33-2.752 6.84l8.404 8.488L25 13.67l-21.076.25Z" fill="#FC868B"/><path d="m32.363 21.105-7.362-7.435-9.114 9.205a5.908 5.908 0 0 1 8.413 0l3.155 3.187a3.446 3.446 0 0 0 4.908 0 3.53 3.53 0 0 0 0-4.957Z" fill="#1A6F66"/></g><defs><clipPath id="cod_provider__a"><path fill="#fff" d="M0 0h50v50H0z"/></clipPath></defs></svg>
