<svg width="81" height="81" viewBox="0 0 81 81" fill="none" xmlns="http://www.w3.org/2000/svg">
<g clip-path="url(#clip0_882_8207)">
<path d="M23.0828 10.1519L16.4683 9.29089L15.8131 14.3237L22.4277 15.1847L23.0828 10.1519Z" fill="#E9963C"/>
<path d="M80.3769 21.8169L7.60303 12.3438L1.55948 58.7709L74.3333 68.244L80.3769 21.8169Z" fill="#E9963C"/>
<path d="M23.1732 55.1187C32.1608 56.2886 40.4617 49.4401 41.7138 39.8221C42.9658 30.2041 36.6947 21.4587 27.7071 20.2888C18.7194 19.1188 10.4185 25.9673 9.16652 35.5853C7.91452 45.2033 14.1855 53.9487 23.1732 55.1187Z" fill="#DB8E3A" stroke="white" stroke-miterlimit="1.5" stroke-linecap="round" stroke-linejoin="round"/>
<path d="M23.7564 50.6446C30.4343 51.5139 36.6019 46.4254 37.5322 39.2791C38.4624 32.1329 33.803 25.635 27.1251 24.7657C20.4472 23.8965 14.2796 28.9849 13.3493 36.1312C12.4191 43.2775 17.0785 49.7753 23.7564 50.6446Z" fill="white"/>
<path d="M70.3477 25.3328L59.9412 23.9781L58.4915 35.1145L68.8981 36.4692L70.3477 25.3328Z" fill="white"/>
</g>
<defs>
<clipPath id="clip0_882_8207">
<rect width="80" height="80" fill="white" transform="translate(0.0500488 0.861694)"/>
</clipPath>
</defs>
</svg>
