<svg width="81" height="80" viewBox="0 0 81 80" fill="none" xmlns="http://www.w3.org/2000/svg">
<g clip-path="url(#clip0_961_7890)">
<path d="M23.5213 9.29023L16.9067 8.4292L16.2516 13.462L22.8662 14.3231L23.5213 9.29023Z" fill="#2149CE"/>
<path d="M80.8153 20.9551L8.0415 11.482L1.99795 57.9091L74.7718 67.3822L80.8153 20.9551Z" fill="#2149CE"/>
<path d="M23.6117 54.257C32.5993 55.4269 40.9002 48.5784 42.1522 38.9604C43.4042 29.3424 37.1332 20.5971 28.1456 19.4271C19.1579 18.2572 10.857 25.1057 9.605 34.7237C8.353 44.3417 14.624 53.087 23.6117 54.257Z" fill="#4A5BC9" stroke="white" stroke-miterlimit="1.5" stroke-linecap="round" stroke-linejoin="round"/>
<path d="M24.1949 49.783C30.8728 50.6522 37.0404 45.5637 37.9707 38.4175C38.9009 31.2712 34.2415 24.7734 27.5636 23.9041C20.8857 23.0348 14.7181 28.1233 13.7878 35.2695C12.8576 42.4158 17.517 48.9137 24.1949 49.783Z" fill="white"/>
<path d="M70.7862 24.4711L60.3796 23.1164L58.93 34.2528L69.3365 35.6075L70.7862 24.4711Z" fill="white"/>
</g>
<defs>
<clipPath id="clip0_961_7890">
<rect width="80" height="80" fill="white" transform="translate(0.488525)"/>
</clipPath>
</defs>
</svg>
