<svg width="81" height="80" viewBox="0 0 81 80" fill="none" xmlns="http://www.w3.org/2000/svg">
<path d="M56.3539 46.7665V30.2959L33.6615 19.3156V60.7031L56.3539 46.7665Z" fill="#EB4824"/>
<path d="M24.3307 19.5006C24.3307 17.4782 25.9702 15.8387 27.9926 15.8387C30.015 15.8387 31.6544 17.4782 31.6544 19.5006V60.5182C31.6544 62.5406 30.015 64.1801 27.9926 64.1801C25.9702 64.1801 24.3307 62.5406 24.3307 60.5182V19.5006Z" fill="#EB4824"/>
<rect width="12.6933" height="3.05679" transform="matrix(0.951986 0.306142 -0.283886 0.958858 8.67188 17.0118)" fill="#EB4824"/>
<rect width="12.6505" height="3.06639" transform="matrix(0.999872 0.0159882 -0.00851731 0.999964 5.05469 32.004)" fill="#EB4824"/>
<rect width="12.656" height="3.06517" transform="matrix(0.990043 -0.140766 0.129793 0.991541 4.9021 45.9271)" fill="#EB4824"/>
<rect width="12.6835" height="3.059" transform="matrix(0.962093 -0.272723 0.252519 0.967592 7.03162 59.9025)" fill="#EB4824"/>
<path d="M58.361 30.3329H59.7829C64.2012 30.3329 67.7829 33.9146 67.7829 38.3329V46.6916H58.361V30.3329Z" fill="#EB4824"/>
<path d="M59.5568 47.8709L67.1083 47.8709L64.3673 61.6273L57.6042 61.6273L59.5568 47.8709Z" fill="#EB4824"/>
</svg>
