<svg width="160" height="161" viewBox="0 0 160 161" fill="none" xmlns="http://www.w3.org/2000/svg">
<path d="M80 4.93262L86.2996 17.5688L100.264 19.6553L90.1927 29.5515L92.5236 43.4772L80 36.9571L67.4761 43.4772L69.807 29.5515L59.7358 19.6553L73.7004 17.5688L80 4.93262Z" fill="#EFBA39"/>
<path d="M43.2629 27.8369L47.747 36.8315L57.687 38.3167L50.5184 45.3608L52.1774 55.2733L43.2629 50.6322L34.3483 55.2733L36.0075 45.3608L28.8387 38.3167L38.7787 36.8315L43.2629 27.8369Z" fill="#EFBA39"/>
<path d="M26.7362 57.5059L30.212 64.4778L37.9167 65.629L32.3602 71.0891L33.6462 78.7725L26.7362 75.1754L19.8263 78.7725L21.1123 71.0891L15.5557 65.629L23.2605 64.4778L26.7362 57.5059Z" fill="#EFBA39"/>
<path d="M116.737 27.8369L112.253 36.8315L102.313 38.3167L109.481 45.3608L107.823 55.2733L116.737 50.6322L125.652 55.2733L123.993 45.3608L131.161 38.3167L121.221 36.8315L116.737 27.8369Z" fill="#EFBA39"/>
<path d="M133.264 57.5059L129.788 64.4778L122.083 65.629L127.64 71.0891L126.354 78.7725L133.264 75.1754L140.174 78.7725L138.888 71.0891L144.444 65.629L136.74 64.4778L133.264 57.5059Z" fill="#EFBA39"/>
<path d="M98.7084 110.299L112.924 145.314L96.9331 141.965L96.9891 141.942L87.8575 155.49L73.6422 120.476L98.7084 110.299Z" fill="#780E33"/>
<path d="M86.7041 120.753L71.9964 155.564L63.0571 141.889L63.1123 141.913L47.076 145.036L61.7837 110.225L86.7041 120.753Z" fill="#971E3E"/>
<path d="M118.391 86.1798C118.391 88.1624 115.97 89.9318 115.671 91.8315C115.365 93.7806 117.118 96.2089 116.521 98.046C115.914 99.9151 113.064 100.849 112.183 102.576C111.292 104.32 112.204 107.175 111.06 108.746C109.911 110.326 106.913 110.335 105.535 111.714C104.156 113.093 104.147 116.09 102.567 117.24C100.995 118.384 98.1411 117.471 96.3963 118.362C94.6698 119.244 93.7352 122.094 91.8662 122.701C90.0298 123.297 87.6014 121.545 85.6516 121.851C83.7527 122.149 81.9825 124.57 80 124.57C78.0174 124.57 76.2472 122.149 74.3483 121.851C72.3987 121.545 69.9705 123.297 68.1338 122.701C66.2646 122.094 65.3302 119.244 63.6037 118.362C61.8591 117.471 59.005 118.384 57.4328 117.24C55.8531 116.09 55.8439 113.092 54.4656 111.714C53.0872 110.335 50.0891 110.326 48.9395 108.746C47.7952 107.175 48.7077 104.32 47.817 102.576C46.9356 100.849 44.0858 99.9151 43.4789 98.046C42.8825 96.2089 44.6348 93.7806 44.3285 91.8315C44.0301 89.9326 41.6095 88.1624 41.6095 86.1798C41.6095 84.1966 44.0301 82.4271 44.3285 80.5275C44.6348 78.5784 42.8825 76.15 43.4789 74.3136C44.0858 72.444 46.9356 71.5098 47.817 69.7832C48.7077 68.0386 47.7952 65.1846 48.9395 63.6124C50.0891 62.0328 53.0873 62.0235 54.4656 60.6451C55.8439 59.2669 55.8532 56.2686 57.4329 55.119C59.0051 53.9748 61.8591 54.8872 63.6037 53.9966C65.3303 53.1152 66.2646 50.2654 68.1338 49.6584C69.9705 49.062 72.3987 50.8144 74.3483 50.508C76.2472 50.2096 78.0174 47.7891 80 47.7891C81.9825 47.7891 83.7527 50.2096 85.6516 50.508C87.6014 50.8144 90.0298 49.062 91.8662 49.6584C93.7352 50.2654 94.6698 53.1152 96.3963 53.9966C98.1411 54.8872 100.995 53.9748 102.567 55.119C104.147 56.2686 104.156 59.2669 105.535 60.6452C106.913 62.0235 109.911 62.0328 111.06 63.6124C112.204 65.1846 111.292 68.0386 112.183 69.7832C113.064 71.5098 115.914 72.444 116.521 74.3136C117.118 76.15 115.365 78.5784 115.671 80.5275C115.97 82.4271 118.391 84.1966 118.391 86.1798Z" fill="#D1394A"/>
<path d="M108.673 86.179C108.673 102.015 95.8357 114.852 80 114.852C64.1645 114.852 51.3271 102.015 51.3271 86.179C51.3271 70.3432 64.1645 57.5059 80 57.5059C95.8357 57.5059 108.673 70.3432 108.673 86.179Z" fill="white"/>
<path d="M105.974 86.1789C105.974 100.524 94.3447 112.152 80 112.152C65.6552 112.152 54.0265 100.524 54.0265 86.1789C54.0265 71.8338 65.6552 60.2051 80 60.2051C94.3447 60.2051 105.974 71.8338 105.974 86.1789Z" fill="#D1394A"/>
<path d="M96.2298 75.6613L77.2007 99.4715L75.168 102.015L72.5796 99.8424L63.7705 92.4482L69.4896 86.729L74.4145 92.5959L88.8582 70.3428L96.2298 75.6613Z" fill="white"/>
</svg>
