<svg width="23" height="22" viewBox="0 0 23 22" fill="none" xmlns="http://www.w3.org/2000/svg">
<path d="M13.293 1C13.6176 1 13.9334 1.10527 14.193 1.3C13.6578 1.55921 13.2117 1.97165 12.9113 2.48492C12.611 2.9982 12.47 3.58916 12.5062 4.18274C12.5424 4.77633 12.7542 5.34576 13.1148 5.81871C13.4753 6.29166 13.9682 6.64679 14.531 6.839L14.909 6.969C15.0534 7.01827 15.1846 7.09994 15.2926 7.20776C15.4006 7.31557 15.4825 7.44666 15.532 7.591L15.661 7.969C15.821 8.43782 16.0947 8.85971 16.4575 9.19701C16.8203 9.53431 17.261 9.7765 17.7403 9.90198C18.2195 10.0275 18.7223 10.0323 19.2039 9.9161C19.6855 9.79989 20.1307 9.56623 20.5 9.236V17C20.5 17.5304 20.2893 18.0391 19.9142 18.4142C19.5391 18.7893 19.0304 19 18.5 19H2.5C1.96957 19 1.46086 18.7893 1.08579 18.4142C0.710714 18.0391 0.5 17.5304 0.5 17V5C0.5 4.46957 0.710714 3.96086 1.08579 3.58579C1.46086 3.21071 1.96957 3 2.5 3H5.086L6.646 1.44C6.78527 1.30055 6.95066 1.18992 7.13272 1.11442C7.31477 1.03892 7.50991 1.00004 7.707 1H13.293ZM10.5 5.5C9.17392 5.5 7.90215 6.02678 6.96447 6.96447C6.02678 7.90215 5.5 9.17392 5.5 10.5C5.5 11.8261 6.02678 13.0979 6.96447 14.0355C7.90215 14.9732 9.17392 15.5 10.5 15.5C11.8261 15.5 13.0979 14.9732 14.0355 14.0355C14.9732 13.0979 15.5 11.8261 15.5 10.5C15.5 9.17392 14.9732 7.90215 14.0355 6.96447C13.0979 6.02678 11.8261 5.5 10.5 5.5ZM10.5 7.5C10.894 7.5 11.2841 7.5776 11.6481 7.72836C12.012 7.87913 12.3427 8.1001 12.6213 8.37868C12.8999 8.65726 13.1209 8.98797 13.2716 9.35195C13.4224 9.71593 13.5 10.106 13.5 10.5C13.5 10.894 13.4224 11.2841 13.2716 11.6481C13.1209 12.012 12.8999 12.3427 12.6213 12.6213C12.3427 12.8999 12.012 13.1209 11.6481 13.2716C11.2841 13.4224 10.894 13.5 10.5 13.5C9.70435 13.5 8.94129 13.1839 8.37868 12.6213C7.81607 12.0587 7.5 11.2956 7.5 10.5C7.5 9.70435 7.81607 8.94129 8.37868 8.37868C8.94129 7.81607 9.70435 7.5 10.5 7.5ZM18.5 0C18.6871 -4.16657e-07 18.8704 0.0524781 19.0292 0.151471C19.1879 0.250465 19.3157 0.392002 19.398 0.56L19.446 0.677L19.576 1.055C19.7132 1.45718 19.9343 1.82563 20.2246 2.13594C20.5149 2.44625 20.8678 2.69135 21.26 2.855L21.445 2.925L21.823 3.054C22.0102 3.11786 22.1742 3.2358 22.2944 3.3929C22.4146 3.54999 22.4854 3.7392 22.4981 3.93658C22.5107 4.13396 22.4645 4.33065 22.3654 4.50178C22.2662 4.67291 22.1185 4.8108 21.941 4.898L21.823 4.946L21.445 5.076C21.0428 5.2132 20.6744 5.43428 20.3641 5.72459C20.0537 6.01491 19.8086 6.36783 19.645 6.76L19.575 6.945L19.446 7.323C19.382 7.51014 19.264 7.6741 19.1068 7.79416C18.9497 7.91423 18.7605 7.98499 18.5631 7.99752C18.3657 8.01004 18.1691 7.96376 17.998 7.86452C17.8269 7.76528 17.6891 7.61755 17.602 7.44L17.554 7.323L17.424 6.945C17.2868 6.54282 17.0657 6.17437 16.7754 5.86406C16.4851 5.55375 16.1322 5.30865 15.74 5.145L15.555 5.075L15.177 4.946C14.9898 4.88214 14.8258 4.7642 14.7056 4.6071C14.5854 4.45001 14.5146 4.2608 14.5019 4.06342C14.4893 3.86604 14.5355 3.66935 14.6346 3.49822C14.7338 3.32709 14.8815 3.1892 15.059 3.102L15.177 3.054L15.555 2.924C15.9572 2.7868 16.3256 2.56572 16.6359 2.27541C16.9463 1.98509 17.1914 1.63217 17.355 1.24L17.425 1.055L17.554 0.677C17.6214 0.479587 17.7488 0.308185 17.9184 0.18679C18.0881 0.0653942 18.2914 8.32272e-05 18.5 0Z" fill="#F9AA4E"/>
</svg>
