<svg width="84" height="84" viewBox="0 0 84 84" fill="none" xmlns="http://www.w3.org/2000/svg">
<path d="M74.5198 42.0095C74.5198 59.7504 59.9647 74.1323 42.01 74.1323C24.0554 74.1323 9.50024 59.7504 9.50024 42.0095C9.50024 24.2686 24.0554 9.88672 42.01 9.88672C59.9647 9.88672 74.5198 24.2686 74.5198 42.0095Z" fill="#FFF3F3"/>
<path d="M68.927 42.0095C68.927 27.3207 56.8758 15.413 42.01 15.413C27.1443 15.413 15.0931 27.3207 15.0931 42.0095C15.0931 56.6982 27.1443 68.606 42.01 68.606V74.1323L41.1703 74.1215C23.8824 73.6884 9.94884 59.9202 9.51117 42.8379L9.50024 42.0095C9.50024 24.2686 24.0554 9.88672 42.01 9.88672L42.8484 9.89751C60.4155 10.337 74.5198 24.5456 74.5198 42.0095L74.5089 42.8379C74.0642 60.1958 59.6843 74.1322 42.01 74.1323V68.606C56.8757 68.606 68.9269 56.6982 68.927 42.0095Z" fill="#DB7709"/>
<path d="M54.8409 29.2608C55.6016 28.5273 56.8165 28.4688 57.6496 29.1569C58.538 29.891 58.6559 31.1972 57.9131 32.0752L42.8536 49.8778L28.4291 42.008C27.415 41.4548 27.0459 40.1942 27.6057 39.1922C28.1655 38.1906 29.4415 37.8272 30.4554 38.38L41.8528 44.5971L54.6948 29.4173L54.8409 29.2608Z" fill="#DB7709"/>
<path d="M39.9323 17.9898H44.0877V22.0958H39.9323V17.9898Z" fill="#DB7709"/>
<path d="M63.6284 38.9919H67.7839V43.0979H63.6284V38.9919Z" fill="#DB7709"/>
<path d="M39.9323 62.9885H44.0877V67.0945H39.9323V62.9885Z" fill="#DB7709"/>
<path d="M16.7077 38.9919H20.8631V43.0979H16.7077V38.9919Z" fill="#DB7709"/>
</svg>
