<svg width="85" height="84" viewBox="0 0 85 84" fill="none" xmlns="http://www.w3.org/2000/svg">
<path d="M74.9984 42C74.9984 59.7409 60.4432 74.1228 42.4886 74.1228C24.5339 74.1228 9.97876 59.7409 9.97876 42C9.97876 24.2591 24.5339 9.87723 42.4886 9.87723C60.4432 9.87723 74.9984 24.2591 74.9984 42Z" fill="#FFF3F3"/>
<path d="M69.4055 42C69.4055 27.3112 57.3543 15.4035 42.4886 15.4035C27.6228 15.4035 15.5716 27.3112 15.5716 42C15.5717 56.6888 27.6228 68.5965 42.4886 68.5965V74.1228L41.6488 74.112C24.3609 73.6789 10.4274 59.9107 9.98968 42.8284L9.97876 42C9.97876 24.2591 24.5339 9.87723 42.4886 9.87723L43.3269 9.88802C60.894 10.3275 74.9984 24.5361 74.9984 42L74.9874 42.8284C74.5427 60.1863 60.1628 74.1227 42.4886 74.1228V68.5965C57.3543 68.5965 69.4055 56.6887 69.4055 42Z" fill="#2149CE"/>
<path d="M55.3194 29.2513C56.0801 28.5178 57.295 28.4593 58.1281 29.1474C59.0166 29.8815 59.1344 31.1877 58.3916 32.0657L43.3321 49.8683L28.9076 41.9985C27.8935 41.4453 27.5244 40.1847 28.0842 39.1827C28.644 38.1811 29.92 37.8177 30.9339 38.3705L42.3313 44.5876L55.1733 29.4078L55.3194 29.2513Z" fill="#2149CE"/>
<path d="M40.4108 17.9803H44.5663V22.0863H40.4108V17.9803Z" fill="#2149CE"/>
<path d="M64.107 38.9825H68.2624V43.0885H64.107V38.9825Z" fill="#2149CE"/>
<path d="M40.4108 62.979H44.5663V67.085H40.4108V62.979Z" fill="#2149CE"/>
<path d="M17.1862 38.9825H21.3417V43.0885H17.1862V38.9825Z" fill="#2149CE"/>
</svg>
