<svg width="27" height="38" viewBox="0 0 27 38" fill="none" xmlns="http://www.w3.org/2000/svg">
<path fill-rule="evenodd" clip-rule="evenodd" d="M13.5001 0.833252V11.6666C13.5001 12.3296 13.7635 12.9655 14.2323 13.4344C14.7012 13.9032 15.337 14.1666 16.0001 14.1666H26.8334V30.8333C26.8334 31.7173 26.4822 32.5652 25.8571 33.1903C25.232 33.8154 24.3841 34.1666 23.5001 34.1666H3.50008C2.61603 34.1666 1.76818 33.8154 1.14306 33.1903C0.517937 32.5652 0.166748 31.7173 0.166748 30.8333V4.16659C0.166748 3.28253 0.517937 2.43468 1.14306 1.80956C1.76818 1.18444 2.61603 0.833252 3.50008 0.833252H13.5001ZM13.4834 22.4999H11.8334C11.3914 22.4999 10.9675 22.6755 10.6549 22.9881C10.3423 23.3006 10.1667 23.7246 10.1667 24.1666C10.1667 24.6086 10.3423 25.0325 10.6549 25.3451C10.9675 25.6577 11.3914 25.8333 11.8334 25.8333V27.4833C11.8334 28.4133 12.5867 29.1666 13.5167 29.1666H14.3334C14.7003 29.1666 15.0569 29.0455 15.348 28.8222C15.639 28.5988 15.8483 28.2857 15.9432 27.9313C16.0382 27.5769 16.0135 27.2011 15.8732 26.8622C15.7328 26.5232 15.4845 26.24 15.1667 26.0566V24.1833C15.1667 23.9622 15.1232 23.7433 15.0386 23.5391C14.954 23.3348 14.83 23.1493 14.6737 22.993C14.5174 22.8366 14.3318 22.7127 14.1276 22.6281C13.9234 22.5435 13.7045 22.4999 13.4834 22.4999ZM13.5001 17.4999C13.0581 17.4999 12.6341 17.6755 12.3216 17.9881C12.009 18.3006 11.8334 18.7246 11.8334 19.1666C11.8334 19.6086 12.009 20.0325 12.3216 20.3451C12.6341 20.6577 13.0581 20.8333 13.5001 20.8333C13.9421 20.8333 14.366 20.6577 14.6786 20.3451C14.9912 20.0325 15.1667 19.6086 15.1667 19.1666C15.1667 18.7246 14.9912 18.3006 14.6786 17.9881C14.366 17.6755 13.9421 17.4999 13.5001 17.4999ZM16.8334 0.904919C17.4649 1.03884 18.0439 1.35324 18.5001 1.80992L25.8567 9.16659C26.3134 9.62279 26.6278 10.2018 26.7617 10.8333H16.8334V0.904919Z" fill="#F9AA4E"/>
</svg>
