<svg width="19" height="21" viewBox="0 0 19 21" fill="none" xmlns="http://www.w3.org/2000/svg">
<path d="M17.5 0C17.7449 3.23106e-05 17.9813 0.0899562 18.1644 0.252715C18.3474 0.415475 18.4643 0.639749 18.493 0.883L18.5 1V15C18.5 15.7652 18.2077 16.5015 17.6827 17.0583C17.1578 17.615 16.4399 17.9501 15.676 17.995L15.5 18H3C2.36528 18.0001 1.75429 17.7588 1.29095 17.325C0.827621 16.8912 0.546638 16.2973 0.505 15.664L0.5 15.5V8C0.500032 7.75507 0.589956 7.51866 0.752715 7.33563C0.915475 7.15259 1.13975 7.03566 1.383 7.007L1.5 7H3.5V1C3.50003 0.755067 3.58996 0.518663 3.75272 0.335628C3.91547 0.152593 4.13975 0.0356572 4.383 0.00699997L4.5 0H17.5ZM3.5 9H2.5V15.5C2.49977 15.6249 2.54633 15.7455 2.63051 15.8378C2.71469 15.9301 2.83039 15.9876 2.95482 15.9989C3.07926 16.0102 3.20341 15.9745 3.30283 15.8988C3.40225 15.8231 3.46974 15.7129 3.492 15.59L3.5 15.5V9ZM12.5 11H7.5C7.23478 11 6.98043 11.1054 6.79289 11.2929C6.60536 11.4804 6.5 11.7348 6.5 12C6.5 12.2652 6.60536 12.5196 6.79289 12.7071C6.98043 12.8946 7.23478 13 7.5 13H12.5C12.7652 13 13.0196 12.8946 13.2071 12.7071C13.3946 12.5196 13.5 12.2652 13.5 12C13.5 11.7348 13.3946 11.4804 13.2071 11.2929C13.0196 11.1054 12.7652 11 12.5 11ZM14.5 4H7.5C7.25507 4.00003 7.01866 4.08996 6.83563 4.25272C6.65259 4.41547 6.53566 4.63975 6.507 4.883L6.5 5V8C6.50003 8.24493 6.58996 8.48134 6.75272 8.66437C6.91547 8.84741 7.13975 8.96434 7.383 8.993L7.5 9H14.5C14.7449 8.99997 14.9813 8.91004 15.1644 8.74728C15.3474 8.58453 15.4643 8.36025 15.493 8.117L15.5 8V5C15.5 4.75507 15.41 4.51866 15.2473 4.33563C15.0845 4.15259 14.8603 4.03566 14.617 4.007L14.5 4ZM13.5 6V7H8.5V6H13.5Z" fill="#F9AA4E"/>
</svg>
