<svg width="54" height="69" viewBox="0 0 54 69" fill="none" xmlns="http://www.w3.org/2000/svg">
<path d="M5.98306 68.5313C3.96099 68.5678 2.29219 66.9582 2.25569 64.9361C2.21919 62.9141 3.82882 61.2453 5.85089 61.2088L46.8618 60.4685C48.8838 60.432 50.5526 62.0416 50.5891 64.0637C50.6256 66.0858 49.016 67.7546 46.9939 67.7911L5.98306 68.5313Z" fill="#EB4824"/>
<path d="M11.6193 29.6088C12.2443 25.7996 15.5 22.98 19.3594 22.9056L34.5479 22.6125C38.6099 22.5342 42.0857 25.513 42.63 29.5392L46.519 58.3046L6.76177 59.2133L11.6193 29.6088Z" fill="#EB4824"/>
<path d="M28.7704 28.0131L29.3464 28.6611L27.1144 44.9691L24.8104 45.3651L24.2344 44.8971L23.5144 29.4171L23.9464 28.8051L28.7704 28.0131ZM25.3864 53.7891C24.5224 53.7891 23.8624 53.5491 23.4064 53.0691C22.9504 52.5651 22.7224 51.8931 22.7224 51.0531C22.7224 50.1891 22.9864 49.4811 23.5144 48.9291C24.0424 48.3771 24.7504 48.1011 25.6384 48.1011C26.4784 48.1011 27.1384 48.3531 27.6184 48.8571C28.0984 49.3371 28.3384 49.9851 28.3384 50.8011C28.3384 51.6891 28.0624 52.4091 27.5104 52.9611C26.9824 53.5131 26.2744 53.7891 25.3864 53.7891Z" fill="white"/>
<path d="M2.18945 8.77979L9.32358 20.4964" stroke="#DB7709" stroke-width="3" stroke-linecap="round"/>
<path d="M51.4231 8.75024L42.8051 19.4229" stroke="#DB7709" stroke-width="3" stroke-linecap="round"/>
<path d="M19.7812 2.50952L21.2341 16.15" stroke="#DB7709" stroke-width="3" stroke-linecap="round"/>
<path d="M35.0525 2.40356L32.4545 15.873" stroke="#DB7709" stroke-width="3" stroke-linecap="round"/>
</svg>
