<svg width="20" height="22" viewBox="0 0 20 22" fill="none" xmlns="http://www.w3.org/2000/svg">
<path fill-rule="evenodd" clip-rule="evenodd" d="M17.631 1.1601C17.0684 0.597685 16.3055 0.281738 15.51 0.281738C14.7145 0.281738 13.9516 0.597685 13.389 1.1601L12.682 1.8681L17.632 6.8181L18.338 6.1111C18.6166 5.83252 18.8377 5.50178 18.9884 5.13777C19.1392 4.77376 19.2169 4.38361 19.2169 3.9896C19.2169 3.59559 19.1392 3.20544 18.9884 2.84143C18.8377 2.47742 18.6166 2.14668 18.338 1.8681L17.631 1.1601ZM16.217 8.2321L11.267 3.2821L2.177 12.3731C1.97808 12.5721 1.83912 12.8229 1.776 13.0971L0.746995 17.5521C0.708654 17.7175 0.713052 17.8899 0.759774 18.0531C0.806497 18.2164 0.894005 18.365 1.01405 18.485C1.1341 18.6051 1.28274 18.6926 1.44596 18.7393C1.60918 18.786 1.78161 18.7904 1.947 18.7521L6.403 17.7241C6.6768 17.6608 6.92732 17.5219 7.126 17.3231L16.217 8.2321Z" fill="#F9AA4E"/>
</svg>
