<svg width="81" height="80" viewBox="0 0 81 80" fill="none" xmlns="http://www.w3.org/2000/svg">
<path d="M34.8854 32.8746L44.1332 28.7399C41.9035 27.7679 31.1659 27.5019 29.4493 27.4913C28.076 27.4828 27.2234 28.0631 26.9688 28.3543L34.8854 32.8746Z" fill="#F88431"/>
<path d="M59.7909 23.0404C62.7349 21.9936 66.6876 22.6042 68.2959 23.0404C69.5606 22.7017 71.0424 22.6732 71.8937 23.4637C72.745 24.2543 72.4892 25.643 71.8937 26.2121C65.1519 31.6601 53.4809 36.2939 48.4881 37.9297C39.868 54.0695 35.4231 56.3316 33.4416 55.9648L37.7019 42.3403L17.8346 47.7817C16.7211 48.7265 12.4776 52.0279 10.4951 53.5605L11.9164 48.8408C10.5029 48.4799 10.0963 47.5733 10.0696 47.165C9.67706 46.1183 10.8874 44.9298 11.5416 44.4663L5.57178 39.3143L7.86157 38.4147L19.4741 41.1952L59.7909 23.0404Z" fill="#F88431"/>
</svg>
