<svg width="85" height="85" viewBox="0 0 85 85" fill="none" xmlns="http://www.w3.org/2000/svg">
<path d="M38.7304 16.8237C40.4533 13.2758 45.5189 13.3074 47.1972 16.8766L50.7345 24.4015C51.102 25.1831 50.7666 26.1141 49.9851 26.4818C49.2034 26.8493 48.2714 26.514 47.9038 25.7323L44.3664 18.2075C43.807 17.0178 42.1181 17.0076 41.5438 18.1902L37.8731 25.7497C37.4957 26.5267 36.5596 26.8509 35.7826 26.4736C35.0056 26.0963 34.6813 25.1602 35.0586 24.3832L38.7304 16.8237Z" fill="#DB7709"/>
<path d="M8.9447 29.4706C8.9447 27.1672 10.812 25.2998 13.1154 25.2998H69.9247C72.2281 25.2998 74.0954 27.1672 74.0954 29.4706V65.7551C74.0954 68.0585 72.2281 69.9258 69.9247 69.9258H13.1154C10.812 69.9258 8.9447 68.0585 8.9447 65.7551V29.4706Z" fill="#FFF4F4"/>
<path d="M69.9245 66.7975L69.9247 69.9258H13.1154L13.1154 66.7975H69.9245ZM70.9672 65.7548V29.4706C70.9672 28.8947 70.5003 28.4279 69.9245 28.4279H13.1154C12.5396 28.4279 12.0728 28.8947 12.0728 29.4706V65.7548C12.0728 66.3307 12.5396 66.7975 13.1154 66.7975L13.1154 69.9258L12.9006 69.9205C10.7681 69.8123 9.05786 68.1022 8.94979 65.9697L8.9447 65.7551V29.4706C8.9447 27.2392 10.697 25.4167 12.9006 25.3049L13.1154 25.2998H69.9247L70.1393 25.3049C72.343 25.4167 74.0954 27.2391 74.0954 29.4706V65.7551L74.0901 65.9697C73.9821 68.1023 72.2719 69.8124 70.1393 69.9205L69.9247 69.9258L69.9245 66.7975C70.5003 66.7975 70.9672 66.3307 70.9672 65.7548Z" fill="#DB7709"/>
<path d="M11.4077 40.024H71.1286V55.2491H11.4077V40.024Z" fill="#DB7709"/>
<path d="M66.5623 47.7753C66.5068 47.7753 66.4588 47.7474 66.4184 47.6915C66.378 47.6356 66.3578 47.5692 66.3578 47.4923V43.5297C66.3578 43.4528 66.378 43.3864 66.4184 43.3305C66.4588 43.2746 66.5068 43.2466 66.5623 43.2466H67.8807C67.9363 43.2466 67.9843 43.2746 68.0247 43.3305C68.0651 43.3864 68.0853 43.4528 68.0853 43.5297V47.4923C68.0853 47.5692 68.0651 47.6356 68.0247 47.6915C67.9843 47.7474 67.9363 47.7753 67.8807 47.7753H66.5623ZM66.5623 50.5848C66.5068 50.5848 66.4588 50.5569 66.4184 50.501C66.378 50.4451 66.3578 50.3787 66.3578 50.3018V48.4777C66.3578 48.4008 66.378 48.3344 66.4184 48.2785C66.4588 48.2226 66.5068 48.1947 66.5623 48.1947H67.8807C67.9363 48.1947 67.9843 48.2226 68.0247 48.2785C68.0651 48.3344 68.0853 48.4008 68.0853 48.4777V50.3018C68.0853 50.3787 68.0651 50.4451 68.0247 50.501C67.9843 50.5569 67.9363 50.5848 67.8807 50.5848H66.5623Z" fill="white"/>
<path d="M63.6919 50.6897C63.3282 50.6897 63.0176 50.6407 62.76 50.5429C62.5074 50.4381 62.3003 50.3088 62.1387 50.155C61.9821 49.9943 61.8659 49.83 61.7901 49.6623C61.7144 49.4876 61.6739 49.3304 61.6689 49.1906C61.6638 49.1137 61.679 49.0473 61.7144 48.9914C61.7548 48.9355 61.8002 48.9075 61.8507 48.9075H63.1691C63.1742 48.9075 63.1792 48.9075 63.1843 48.9075C63.1893 48.9075 63.1944 48.9075 63.1994 48.9075C63.2651 48.9145 63.3232 48.946 63.3737 49.0019C63.4292 49.0508 63.4848 49.0997 63.5404 49.1486C63.601 49.1976 63.6692 49.222 63.7449 49.222C63.7854 49.222 63.8232 49.208 63.8586 49.1801C63.899 49.1521 63.9192 49.1137 63.9192 49.0648C63.9192 49.0019 63.9041 48.946 63.8738 48.897C63.8485 48.8481 63.7803 48.7992 63.6692 48.7503C63.5631 48.6944 63.3838 48.635 63.1312 48.5721C62.8989 48.5092 62.6766 48.4113 62.4645 48.2785C62.2523 48.1458 62.078 47.9606 61.9417 47.7229C61.8103 47.4853 61.7447 47.1848 61.7447 46.8214C61.7447 46.5209 61.8179 46.2343 61.9644 45.9618C62.1109 45.6892 62.3255 45.4656 62.6084 45.2909C62.8963 45.1161 63.2474 45.0288 63.6616 45.0288C63.9748 45.0288 64.2526 45.0777 64.4951 45.1755C64.7375 45.2734 64.9421 45.3992 65.1088 45.5529C65.2805 45.7067 65.4119 45.8709 65.5028 46.0456C65.5937 46.2204 65.6417 46.3811 65.6467 46.5279C65.6518 46.6047 65.6366 46.6711 65.6013 46.727C65.5659 46.783 65.5255 46.8109 65.48 46.8109H64.2829C64.2728 46.8109 64.2602 46.8109 64.245 46.8109C64.2299 46.8109 64.2172 46.8109 64.2071 46.8109C64.1364 46.8109 64.0733 46.7864 64.0177 46.7375C63.9621 46.6816 63.9066 46.6292 63.851 46.5803C63.7955 46.5244 63.7298 46.4964 63.654 46.4964C63.6187 46.4964 63.5833 46.5139 63.5479 46.5488C63.5176 46.5768 63.5025 46.6152 63.5025 46.6641C63.5025 46.7201 63.5176 46.776 63.5479 46.8319C63.5783 46.8808 63.6515 46.9297 63.7677 46.9786C63.8839 47.0206 64.0733 47.0695 64.3359 47.1254C64.6996 47.1953 64.9901 47.3246 65.2073 47.5133C65.4245 47.702 65.5785 47.9186 65.6695 48.1632C65.7654 48.4078 65.8134 48.649 65.8134 48.8866C65.8134 49.257 65.7301 49.5785 65.5634 49.851C65.4018 50.1236 65.1618 50.3332 64.8436 50.48C64.5304 50.6198 64.1465 50.6897 63.6919 50.6897Z" fill="white"/>
<path d="M59.0731 50.6897C58.6084 50.6897 58.2169 50.6023 57.8987 50.4276C57.5804 50.2529 57.3355 49.9908 57.1637 49.6414C56.997 49.2919 56.9011 48.8621 56.8758 48.3519C56.8707 48.1912 56.8682 48.027 56.8682 47.8592C56.8682 47.6845 56.8707 47.5203 56.8758 47.3665C56.9011 46.8493 57.0046 46.4195 57.1864 46.0771C57.3683 45.7277 57.6183 45.4656 57.9366 45.2909C58.2548 45.1161 58.6336 45.0288 59.0731 45.0288C59.5125 45.0288 59.8914 45.1161 60.2096 45.2909C60.5278 45.4656 60.7779 45.7277 60.9597 46.0771C61.1416 46.4195 61.2451 46.8493 61.2704 47.3665C61.2805 47.5203 61.2855 47.6845 61.2855 47.8592C61.2855 48.027 61.2805 48.1912 61.2704 48.3519C61.2451 48.8621 61.1466 49.2919 60.9749 49.6414C60.8082 49.9908 60.5657 50.2529 60.2475 50.4276C59.9293 50.6023 59.5378 50.6897 59.0731 50.6897ZM59.0731 49.0124C59.2196 49.0124 59.3105 48.9565 59.3459 48.8446C59.3812 48.7258 59.4039 48.5441 59.414 48.2995C59.4191 48.1947 59.4216 48.0479 59.4216 47.8592C59.4216 47.6705 59.4191 47.5238 59.414 47.4189C59.4039 47.1883 59.3812 47.0136 59.3459 46.8948C59.3105 46.769 59.2196 46.7061 59.0731 46.7061C58.9316 46.7061 58.8407 46.769 58.8003 46.8948C58.765 47.0136 58.7422 47.1883 58.7321 47.4189C58.7271 47.5238 58.7245 47.6705 58.7245 47.8592C58.7245 48.0479 58.7271 48.1947 58.7321 48.2995C58.7422 48.5441 58.765 48.7258 58.8003 48.8446C58.8407 48.9565 58.9316 49.0124 59.0731 49.0124Z" fill="white"/>
<path d="M53.4804 50.6897C53.2631 50.6897 53.0586 50.6478 52.8666 50.5639C52.6797 50.4731 52.513 50.3333 52.3666 50.1446C52.2251 49.9489 52.1115 49.6973 52.0256 49.3898C51.9397 49.0823 51.8892 48.7084 51.8741 48.2681C51.869 48.1074 51.8665 47.9676 51.8665 47.8488C51.8665 47.73 51.869 47.5937 51.8741 47.44C51.8842 47.0276 51.9321 46.6712 52.018 46.3707C52.1039 46.0632 52.2175 45.8116 52.359 45.6159C52.5055 45.4202 52.6747 45.2734 52.8666 45.1756C53.0586 45.0778 53.2631 45.0288 53.4804 45.0288C53.6925 45.0288 53.8819 45.0743 54.0486 45.1651C54.2204 45.249 54.3668 45.3678 54.4881 45.5215V43.4249C54.4881 43.348 54.5083 43.2816 54.5487 43.2257C54.5891 43.1698 54.6371 43.1419 54.6926 43.1419H56.0944C56.1499 43.1419 56.1979 43.1698 56.2383 43.2257C56.2787 43.2816 56.2989 43.348 56.2989 43.4249V50.3018C56.2989 50.3787 56.2787 50.4451 56.2383 50.501C56.1979 50.5569 56.1499 50.5849 56.0944 50.5849H54.8063C54.7507 50.5849 54.7028 50.5569 54.6623 50.501C54.6219 50.4451 54.6017 50.3787 54.6017 50.3018V50.0607C54.4805 50.2494 54.329 50.4032 54.1471 50.522C53.9653 50.6338 53.743 50.6897 53.4804 50.6897ZM54.1092 48.8132C54.2052 48.8132 54.2784 48.7888 54.329 48.7399C54.3845 48.6909 54.4224 48.6211 54.4426 48.5302C54.4679 48.4393 54.483 48.331 54.4881 48.2052C54.4982 48.0445 54.5032 47.9152 54.5032 47.8173C54.5032 47.7125 54.4982 47.5832 54.4881 47.4295C54.483 47.3176 54.4653 47.2233 54.435 47.1464C54.4098 47.0695 54.3694 47.0101 54.3138 46.9682C54.2633 46.9263 54.1951 46.9053 54.1092 46.9053C54.0183 46.9053 53.9451 46.9298 53.8895 46.9787C53.839 47.0276 53.8011 47.0975 53.7758 47.1884C53.7556 47.2792 53.7405 47.3875 53.7304 47.5133C53.7152 47.744 53.7152 47.9746 53.7304 48.2052C53.7405 48.331 53.7556 48.4393 53.7758 48.5302C53.8011 48.6211 53.839 48.6909 53.8895 48.7399C53.9451 48.7888 54.0183 48.8132 54.1092 48.8132Z" fill="white"/>
<path d="M49.728 50.5848C49.6724 50.5848 49.6244 50.5568 49.584 50.5009C49.5436 50.445 49.5234 50.3786 49.5234 50.3017V45.4166C49.5234 45.3397 49.5436 45.2733 49.584 45.2174C49.6244 45.1615 49.6724 45.1336 49.728 45.1336H51.0842C51.1398 45.1336 51.1878 45.1615 51.2282 45.2174C51.2686 45.2733 51.2888 45.3397 51.2888 45.4166V50.3017C51.2888 50.3786 51.2686 50.445 51.2282 50.5009C51.1878 50.5568 51.1398 50.5848 51.0842 50.5848H49.728ZM49.7659 44.557C49.7103 44.557 49.6623 44.529 49.6219 44.4731C49.5815 44.4172 49.5613 44.3508 49.5613 44.2739V43.0055C49.5613 42.9286 49.5815 42.8622 49.6219 42.8063C49.6623 42.7504 49.7103 42.7224 49.7659 42.7224H51.0463C51.1019 42.7224 51.1499 42.7504 51.1903 42.8063C51.2307 42.8622 51.2509 42.9286 51.2509 43.0055V44.2739C51.2509 44.3508 51.2307 44.4172 51.1903 44.4731C51.1499 44.529 51.1019 44.557 51.0463 44.557H49.7659Z" fill="white"/>
<path d="M44.6224 50.5848C44.5668 50.5848 44.5189 50.5569 44.4785 50.501C44.438 50.4451 44.4178 50.3787 44.4178 50.3018V45.4167C44.4178 45.3398 44.438 45.2734 44.4785 45.2175C44.5189 45.1616 44.5668 45.1336 44.6224 45.1336H45.9484C46.0039 45.1336 46.0519 45.1616 46.0923 45.2175C46.1327 45.2734 46.1529 45.3398 46.1529 45.4167V45.7626C46.2792 45.5599 46.4535 45.3887 46.6757 45.2489C46.898 45.1022 47.143 45.0288 47.4107 45.0288C47.6683 45.0288 47.9082 45.1126 48.1305 45.2804C48.3528 45.4481 48.5321 45.7067 48.6685 46.0561C48.8099 46.4056 48.8806 46.8563 48.8806 47.4084V50.3018C48.8806 50.3787 48.8604 50.4451 48.82 50.501C48.7796 50.5569 48.7316 50.5848 48.676 50.5848H47.2288C47.1733 50.5848 47.1253 50.5569 47.0849 50.501C47.0445 50.4451 47.0243 50.3787 47.0243 50.3018V47.4818C47.0243 47.2931 46.9914 47.1499 46.9258 47.052C46.8601 46.9542 46.7667 46.9053 46.6454 46.9053C46.5242 46.9053 46.4308 46.9542 46.3651 47.052C46.2994 47.1499 46.2666 47.2931 46.2666 47.4818V50.3018C46.2666 50.3787 46.2464 50.4451 46.206 50.501C46.1656 50.5569 46.1176 50.5848 46.062 50.5848H44.6224Z" fill="white"/>
<path d="M41.7353 50.6897C41.0736 50.6897 40.5458 50.466 40.1518 50.0187C39.7628 49.5645 39.5684 48.8481 39.5684 47.8697C39.5684 47.8557 39.5684 47.8417 39.5684 47.8278C39.5684 47.8138 39.5684 47.8033 39.5684 47.7963C39.5785 47.1953 39.6719 46.6886 39.8487 46.2763C40.0305 45.8639 40.2806 45.5529 40.5988 45.3433C40.9221 45.1336 41.2984 45.0288 41.7278 45.0288C42.2228 45.0288 42.6294 45.1616 42.9476 45.4271C43.2659 45.6857 43.5007 46.0317 43.6523 46.465C43.8089 46.8913 43.8872 47.363 43.8872 47.8802V48.1947C43.8872 48.2716 43.867 48.338 43.8265 48.3939C43.7861 48.4498 43.7382 48.4777 43.6826 48.4777H41.4247C41.4247 48.4847 41.4247 48.4917 41.4247 48.4987C41.4247 48.5057 41.4247 48.5162 41.4247 48.5301C41.4247 48.6699 41.4323 48.7887 41.4474 48.8866C41.4676 48.9774 41.5005 49.0473 41.5459 49.0962C41.5914 49.1451 41.6495 49.1696 41.7202 49.1696C41.7505 49.1696 41.7757 49.1626 41.796 49.1486C41.8212 49.1347 41.8439 49.1137 41.8641 49.0857C41.8894 49.0508 41.9147 49.0159 41.9399 48.9809C41.9854 48.918 42.0233 48.8796 42.0536 48.8656C42.0839 48.8446 42.1293 48.8342 42.1899 48.8342H43.622C43.6725 48.8342 43.7129 48.8551 43.7432 48.897C43.7786 48.939 43.7937 48.9949 43.7887 49.0648C43.7836 49.1976 43.7382 49.3583 43.6523 49.547C43.5715 49.7287 43.4477 49.9069 43.281 50.0816C43.1143 50.2564 42.9022 50.4031 42.6446 50.5219C42.3869 50.6338 42.0839 50.6897 41.7353 50.6897ZM41.4247 47.1673H42.0308V47.1569C42.0308 47.0031 42.0182 46.8773 41.993 46.7795C41.9727 46.6816 41.9399 46.6117 41.8945 46.5698C41.849 46.5209 41.7934 46.4964 41.7278 46.4964C41.6621 46.4964 41.6065 46.5209 41.5611 46.5698C41.5156 46.6117 41.4803 46.6816 41.455 46.7795C41.4348 46.8773 41.4247 47.0031 41.4247 47.1569V47.1673Z" fill="white"/>
<path d="M36.5271 50.5849C36.4513 50.5849 36.3957 50.5569 36.3604 50.501C36.3301 50.4451 36.3023 50.3857 36.277 50.3228L34.8223 45.4586C34.8172 45.4377 34.8147 45.4132 34.8147 45.3853C34.8147 45.3154 34.8324 45.256 34.8677 45.207C34.9031 45.1581 34.946 45.1337 34.9965 45.1337H36.277C36.3528 45.1337 36.4084 45.1616 36.4437 45.2175C36.4841 45.2734 36.5119 45.3293 36.5271 45.3853L37.1332 47.8278L37.7394 45.3853C37.7545 45.3293 37.7798 45.2734 37.8151 45.2175C37.8555 45.1616 37.9136 45.1337 37.9894 45.1337H39.2699C39.3204 45.1337 39.3633 45.1581 39.3987 45.207C39.4341 45.256 39.4517 45.3154 39.4517 45.3853C39.4517 45.4132 39.4492 45.4377 39.4442 45.4586L37.9894 50.3228C37.9692 50.3857 37.9414 50.4451 37.9061 50.501C37.8707 50.5569 37.8151 50.5849 37.7394 50.5849H36.5271Z" fill="white"/>
<path d="M30.3197 50.5848C30.2642 50.5848 30.2162 50.5569 30.1758 50.501C30.1354 50.4451 30.1151 50.3787 30.1151 50.3018V45.4167C30.1151 45.3398 30.1354 45.2734 30.1758 45.2175C30.2162 45.1616 30.2642 45.1336 30.3197 45.1336H31.6457C31.7012 45.1336 31.7492 45.1616 31.7896 45.2175C31.83 45.2734 31.8502 45.3398 31.8502 45.4167V45.7626C31.9765 45.5599 32.1508 45.3887 32.3731 45.2489C32.5953 45.1022 32.8403 45.0288 33.108 45.0288C33.3656 45.0288 33.6056 45.1126 33.8278 45.2804C34.0501 45.4481 34.2294 45.7067 34.3658 46.0561C34.5072 46.4056 34.5779 46.8563 34.5779 47.4084V50.3018C34.5779 50.3787 34.5577 50.4451 34.5173 50.501C34.4769 50.5569 34.4289 50.5848 34.3733 50.5848H32.9262C32.8706 50.5848 32.8226 50.5569 32.7822 50.501C32.7418 50.4451 32.7216 50.3787 32.7216 50.3018V47.4818C32.7216 47.2931 32.6888 47.1499 32.6231 47.052C32.5574 46.9542 32.464 46.9053 32.3427 46.9053C32.2215 46.9053 32.1281 46.9542 32.0624 47.052C31.9967 47.1499 31.9639 47.2931 31.9639 47.4818V50.3018C31.9639 50.3787 31.9437 50.4451 31.9033 50.501C31.8629 50.5569 31.8149 50.5848 31.7593 50.5848H30.3197Z" fill="white"/>
<path d="M27.4325 50.6897C26.7708 50.6897 26.243 50.466 25.849 50.0187C25.46 49.5645 25.2656 48.8481 25.2656 47.8697C25.2656 47.8557 25.2656 47.8417 25.2656 47.8278C25.2656 47.8138 25.2656 47.8033 25.2656 47.7963C25.2757 47.1953 25.3691 46.6886 25.5459 46.2763C25.7277 45.8639 25.9778 45.5529 26.296 45.3433C26.6193 45.1336 26.9956 45.0288 27.425 45.0288C27.92 45.0288 28.3266 45.1616 28.6448 45.4271C28.9631 45.6857 29.1979 46.0317 29.3495 46.465C29.5061 46.8913 29.5844 47.363 29.5844 47.8802V48.1947C29.5844 48.2716 29.5642 48.338 29.5237 48.3939C29.4833 48.4498 29.4353 48.4777 29.3798 48.4777H27.1219C27.1219 48.4847 27.1219 48.4917 27.1219 48.4987C27.1219 48.5057 27.1219 48.5162 27.1219 48.5301C27.1219 48.6699 27.1295 48.7887 27.1446 48.8866C27.1648 48.9774 27.1976 49.0473 27.2431 49.0962C27.2886 49.1451 27.3467 49.1696 27.4174 49.1696C27.4477 49.1696 27.4729 49.1626 27.4931 49.1486C27.5184 49.1347 27.5411 49.1137 27.5613 49.0857C27.5866 49.0508 27.6118 49.0159 27.6371 48.9809C27.6826 48.918 27.7204 48.8796 27.7508 48.8656C27.7811 48.8446 27.8265 48.8342 27.8871 48.8342H29.3192C29.3697 48.8342 29.4101 48.8551 29.4404 48.897C29.4758 48.939 29.4909 48.9949 29.4859 49.0648C29.4808 49.1976 29.4353 49.3583 29.3495 49.547C29.2687 49.7287 29.1449 49.9069 28.9782 50.0816C28.8115 50.2564 28.5994 50.4031 28.3418 50.5219C28.0841 50.6338 27.7811 50.6897 27.4325 50.6897ZM27.1219 47.1673H27.728V47.1569C27.728 47.0031 27.7154 46.8773 27.6901 46.7795C27.6699 46.6816 27.6371 46.6117 27.5916 46.5698C27.5462 46.5209 27.4906 46.4964 27.425 46.4964C27.3593 46.4964 27.3037 46.5209 27.2583 46.5698C27.2128 46.6117 27.1774 46.6816 27.1522 46.7795C27.132 46.8773 27.1219 47.0031 27.1219 47.1569V47.1673Z" fill="white"/>
<path d="M23.1498 50.5848C23.0942 50.5848 23.0462 50.5568 23.0058 50.5009C22.9654 50.445 22.9452 50.3786 22.9452 50.3017V45.4166C22.9452 45.3397 22.9654 45.2733 23.0058 45.2174C23.0462 45.1615 23.0942 45.1336 23.1498 45.1336H24.506C24.5616 45.1336 24.6096 45.1615 24.65 45.2174C24.6904 45.2733 24.7106 45.3397 24.7106 45.4166V50.3017C24.7106 50.3786 24.6904 50.445 24.65 50.5009C24.6096 50.5568 24.5616 50.5848 24.506 50.5848H23.1498ZM23.1876 44.557C23.1321 44.557 23.0841 44.529 23.0437 44.4731C23.0033 44.4172 22.9831 44.3508 22.9831 44.2739V43.0055C22.9831 42.9286 23.0033 42.8622 23.0437 42.8063C23.0841 42.7504 23.1321 42.7224 23.1876 42.7224H24.4681C24.5237 42.7224 24.5717 42.7504 24.6121 42.8063C24.6525 42.8622 24.6727 42.9286 24.6727 43.0055V44.2739C24.6727 44.3508 24.6525 44.4172 24.6121 44.4731C24.5717 44.529 24.5237 44.557 24.4681 44.557H23.1876Z" fill="white"/>
<path d="M17.6613 50.5848C17.6057 50.5848 17.5577 50.5569 17.5173 50.501C17.4769 50.4451 17.4567 50.3787 17.4567 50.3018V43.5297C17.4567 43.4528 17.4769 43.3864 17.5173 43.3305C17.5577 43.2746 17.6057 43.2466 17.6613 43.2466H20.1768C20.6617 43.2466 21.0583 43.3305 21.3664 43.4982C21.6745 43.659 21.9018 43.9036 22.0483 44.2321C22.1998 44.5535 22.2756 44.9589 22.2756 45.4481C22.2756 45.6717 22.2402 45.8744 22.1695 46.0561C22.1039 46.2308 22.023 46.3776 21.9271 46.4964C21.8361 46.6152 21.7503 46.7026 21.6695 46.7585C21.8614 46.8703 22.0281 47.066 22.1695 47.3455C22.316 47.6181 22.3893 47.9291 22.3893 48.2785C22.3893 48.8027 22.3059 49.236 22.1392 49.5784C21.9725 49.9139 21.7301 50.1655 21.4118 50.3332C21.0987 50.501 20.7122 50.5848 20.2526 50.5848H17.6613ZM19.3509 48.7817H20.0556C20.1819 48.7817 20.2703 48.7258 20.3208 48.614C20.3763 48.4952 20.4041 48.3799 20.4041 48.2681C20.4041 48.1423 20.3738 48.0269 20.3132 47.9221C20.2576 47.8103 20.1718 47.7544 20.0556 47.7544H19.3509V48.7817ZM19.3509 46.0037H19.9874C20.0985 46.0037 20.1768 45.9548 20.2223 45.8569C20.2728 45.7521 20.298 45.6438 20.298 45.532C20.298 45.4201 20.2728 45.3118 20.2223 45.207C20.1768 45.1022 20.0985 45.0497 19.9874 45.0497H19.3509V46.0037Z" fill="white"/>
<path d="M16.4776 47.9746C16.5332 47.9746 16.5812 48.0025 16.6216 48.0585C16.662 48.1144 16.6822 48.1807 16.6822 48.2576V52.2202C16.6822 52.2971 16.662 52.3635 16.6216 52.4194C16.5812 52.4753 16.5332 52.5033 16.4776 52.5033H15.1593C15.1037 52.5033 15.0557 52.4753 15.0153 52.4194C14.9749 52.3635 14.9547 52.2971 14.9547 52.2202V48.2576C14.9547 48.1807 14.9749 48.1144 15.0153 48.0585C15.0557 48.0025 15.1037 47.9746 15.1593 47.9746H16.4776ZM16.4776 45.1651C16.5332 45.1651 16.5812 45.1931 16.6216 45.249C16.662 45.3049 16.6822 45.3713 16.6822 45.4482V47.2722C16.6822 47.3491 16.662 47.4155 16.6216 47.4714C16.5812 47.5273 16.5332 47.5553 16.4776 47.5553H15.1593C15.1037 47.5553 15.0557 47.5273 15.0153 47.4714C14.9749 47.4155 14.9547 47.3491 14.9547 47.2722V45.4482C14.9547 45.3713 14.9749 45.3049 15.0153 45.249C15.0557 45.1931 15.1037 45.1651 15.1593 45.1651H16.4776Z" fill="white"/>
<path d="M45.0041 21.042C45.0041 22.2081 44.0588 23.1535 42.8926 23.1535C41.7265 23.1535 40.7812 22.2081 40.7812 21.042C40.7812 19.8759 41.7265 18.9305 42.8926 18.9305C44.0588 18.9305 45.0041 19.8759 45.0041 21.042Z" fill="#DB7709"/>
<path d="M15.9077 28.1536C16.179 28.0203 16.5005 28.1007 16.6785 28.3307L16.7447 28.4387L16.8445 28.6647C17.2908 29.8191 17.009 31.2985 16.3344 32.4944C15.6012 33.7938 14.3053 34.9427 12.5943 35.1265C12.2508 35.1634 11.9419 34.9141 11.905 34.5706C11.8683 34.2273 12.1167 33.9193 12.4599 33.8822C13.6622 33.7532 14.6505 32.9337 15.2448 31.8803C15.8148 30.8702 15.9374 29.8046 15.6786 29.1219L15.6226 28.9906L15.5778 28.8714C15.5047 28.59 15.6366 28.2869 15.9077 28.1536Z" fill="#DB7709"/>
<path d="M67.748 28.1535C67.4767 28.0202 67.1553 28.1006 66.9772 28.3307L66.911 28.4387L66.8112 28.6647C66.365 29.8191 66.6467 31.2985 67.3214 32.4943C68.0545 33.7938 69.3504 34.9427 71.0614 35.1265C71.4049 35.1634 71.7139 34.9141 71.7507 34.5705C71.7874 34.2273 71.539 33.9193 71.1958 33.8822C69.9935 33.7532 69.0053 32.9337 68.4109 31.8803C67.8409 30.8702 67.7183 29.8046 67.9771 29.1219L68.0331 28.9905L68.0779 28.8714C68.1511 28.59 68.0191 28.2869 67.748 28.1535Z" fill="#DB7709"/>
<path d="M67.2261 67.0722C66.9548 67.2055 66.6334 67.1251 66.4553 66.895L66.3891 66.7871L66.2893 66.561C65.8431 65.4066 66.1248 63.9272 66.7994 62.7314C67.5326 61.4319 68.8285 60.283 70.5395 60.0992C70.883 60.0624 71.1919 60.3116 71.2288 60.6552C71.2655 60.9985 71.0171 61.3064 70.6739 61.3435C69.4716 61.4725 68.4833 62.292 67.889 63.3454C67.319 64.3556 67.1964 65.4212 67.4552 66.1038L67.5112 66.2352L67.556 66.3543C67.6292 66.6357 67.4972 66.9389 67.2261 67.0722Z" fill="#DB7709"/>
<path d="M15.2921 67.0722C15.5634 67.2055 15.8848 67.1251 16.0629 66.895L16.1291 66.7871L16.2288 66.561C16.6751 65.4066 16.3933 63.9272 15.7187 62.7314C14.9855 61.4319 13.6897 60.283 11.9787 60.0992C11.6351 60.0623 11.3262 60.3116 11.2893 60.6552C11.2526 60.9985 11.5011 61.3064 11.8443 61.3435C13.0466 61.4725 14.0348 62.292 14.6292 63.3454C15.1991 64.3556 15.3217 65.4211 15.063 66.1038L15.0069 66.2352L14.9621 66.3543C14.889 66.6357 15.0209 66.9389 15.2921 67.0722Z" fill="#DB7709"/>
</svg>
