<svg width="85" height="84" viewBox="0 0 85 84" fill="none" xmlns="http://www.w3.org/2000/svg">
<path d="M39.1989 16.7702C40.9218 13.2223 45.9875 13.2539 47.6657 16.8231L51.2031 24.348C51.5705 25.1296 51.2351 26.0606 50.4536 26.4283C49.6719 26.7958 48.7399 26.4605 48.3723 25.6788L44.8349 18.154C44.2755 16.9643 42.5866 16.9541 42.0124 18.1367L38.3416 25.6962C37.9642 26.4732 37.0281 26.7975 36.2511 26.4201C35.4742 26.0428 35.1498 25.1067 35.5271 24.3297L39.1989 16.7702Z" fill="#2149CE"/>
<path d="M9.41321 29.4171C9.41321 27.1137 11.2805 25.2464 13.5839 25.2464H70.3932C72.6966 25.2464 74.5639 27.1137 74.5639 29.4171V65.7016C74.5639 68.005 72.6966 69.8723 70.3932 69.8723H13.5839C11.2805 69.8723 9.41321 68.005 9.41321 65.7016V29.4171Z" fill="#FFF4F4"/>
<path d="M70.393 66.744L70.3932 69.8723H13.5839L13.5839 66.744H70.393ZM71.4357 65.7013V29.4171C71.4357 28.8412 70.9688 28.3744 70.393 28.3744H13.5839C13.0081 28.3744 12.5413 28.8412 12.5413 29.4171V65.7013C12.5413 66.2772 13.0081 66.744 13.5839 66.744L13.5839 69.8723L13.3691 69.867C11.2366 69.7588 9.52637 68.0487 9.4183 65.9162L9.41321 65.7016V29.4171C9.41321 27.1857 11.1655 25.3633 13.3691 25.2514L13.5839 25.2464H70.3932L70.6078 25.2514C72.8115 25.3632 74.5639 27.1856 74.5639 29.4171V65.7016L74.5586 65.9162C74.4506 68.0488 72.7405 69.7589 70.6078 69.867L70.3932 69.8723L70.393 66.744C70.9689 66.744 71.4357 66.2772 71.4357 65.7013Z" fill="#2149CE"/>
<path d="M11.8762 39.9705H71.5971V55.1956H11.8762V39.9705Z" fill="#2149CE"/>
<path d="M67.0308 47.7219C66.9753 47.7219 66.9273 47.6939 66.8869 47.638C66.8465 47.5821 66.8263 47.5157 66.8263 47.4388V43.4762C66.8263 43.3993 66.8465 43.3329 66.8869 43.277C66.9273 43.2211 66.9753 43.1931 67.0308 43.1931H68.3492C68.4048 43.1931 68.4528 43.2211 68.4932 43.277C68.5336 43.3329 68.5538 43.3993 68.5538 43.4762V47.4388C68.5538 47.5157 68.5336 47.5821 68.4932 47.638C68.4528 47.6939 68.4048 47.7219 68.3492 47.7219H67.0308ZM67.0308 50.5313C66.9753 50.5313 66.9273 50.5034 66.8869 50.4475C66.8465 50.3916 66.8263 50.3252 66.8263 50.2483V48.4242C66.8263 48.3473 66.8465 48.281 66.8869 48.225C66.9273 48.1691 66.9753 48.1412 67.0308 48.1412H68.3492C68.4048 48.1412 68.4528 48.1691 68.4932 48.225C68.5336 48.281 68.5538 48.3473 68.5538 48.4242V50.2483C68.5538 50.3252 68.5336 50.3916 68.4932 50.4475C68.4528 50.5034 68.4048 50.5313 68.3492 50.5313H67.0308Z" fill="white"/>
<path d="M64.1604 50.6362C63.7967 50.6362 63.4861 50.5872 63.2285 50.4894C62.9759 50.3846 62.7688 50.2553 62.6072 50.1015C62.4506 49.9408 62.3344 49.7766 62.2586 49.6088C62.1829 49.4341 62.1424 49.2769 62.1374 49.1371C62.1323 49.0602 62.1475 48.9938 62.1829 48.9379C62.2233 48.882 62.2687 48.854 62.3192 48.854H63.6376C63.6427 48.854 63.6477 48.854 63.6528 48.854C63.6578 48.854 63.6629 48.854 63.6679 48.854C63.7336 48.861 63.7917 48.8925 63.8422 48.9484C63.8978 48.9973 63.9533 49.0462 64.0089 49.0951C64.0695 49.1441 64.1377 49.1685 64.2135 49.1685C64.2539 49.1685 64.2917 49.1546 64.3271 49.1266C64.3675 49.0986 64.3877 49.0602 64.3877 49.0113C64.3877 48.9484 64.3726 48.8925 64.3423 48.8436C64.317 48.7946 64.2488 48.7457 64.1377 48.6968C64.0316 48.6409 63.8523 48.5815 63.5997 48.5186C63.3674 48.4557 63.1451 48.3578 62.933 48.2251C62.7208 48.0923 62.5465 47.9071 62.4102 47.6694C62.2788 47.4318 62.2132 47.1313 62.2132 46.7679C62.2132 46.4674 62.2864 46.1808 62.4329 45.9083C62.5794 45.6357 62.7941 45.4121 63.0769 45.2374C63.3648 45.0626 63.7159 44.9753 64.1301 44.9753C64.4433 44.9753 64.7211 45.0242 64.9636 45.122C65.206 45.2199 65.4106 45.3457 65.5773 45.4994C65.749 45.6532 65.8804 45.8174 65.9713 45.9921C66.0622 46.1669 66.1102 46.3276 66.1152 46.4744C66.1203 46.5512 66.1051 46.6176 66.0698 46.6735C66.0344 46.7295 65.994 46.7574 65.9486 46.7574H64.7514C64.7413 46.7574 64.7287 46.7574 64.7135 46.7574C64.6984 46.7574 64.6857 46.7574 64.6756 46.7574C64.6049 46.7574 64.5418 46.7329 64.4862 46.684C64.4307 46.6281 64.3751 46.5757 64.3195 46.5268C64.264 46.4709 64.1983 46.4429 64.1225 46.4429C64.0872 46.4429 64.0518 46.4604 64.0165 46.4953C63.9861 46.5233 63.971 46.5617 63.971 46.6106C63.971 46.6666 63.9861 46.7225 64.0165 46.7784C64.0468 46.8273 64.12 46.8762 64.2362 46.9251C64.3524 46.9671 64.5418 47.016 64.8045 47.0719C65.1681 47.1418 65.4586 47.2711 65.6758 47.4598C65.893 47.6485 66.0471 47.8651 66.138 48.1097C66.2339 48.3543 66.2819 48.5955 66.2819 48.8331C66.2819 49.2035 66.1986 49.525 66.0319 49.7975C65.8703 50.0701 65.6303 50.2797 65.3121 50.4265C64.9989 50.5663 64.615 50.6362 64.1604 50.6362Z" fill="white"/>
<path d="M59.5416 50.6362C59.0769 50.6362 58.6854 50.5488 58.3672 50.3741C58.0489 50.1994 57.804 49.9373 57.6322 49.5879C57.4655 49.2384 57.3696 48.8086 57.3443 48.2984C57.3393 48.1377 57.3367 47.9735 57.3367 47.8057C57.3367 47.631 57.3393 47.4668 57.3443 47.313C57.3696 46.7959 57.4731 46.366 57.655 46.0236C57.8368 45.6742 58.0868 45.4121 58.4051 45.2374C58.7233 45.0626 59.1021 44.9753 59.5416 44.9753C59.981 44.9753 60.3599 45.0626 60.6781 45.2374C60.9963 45.4121 61.2464 45.6742 61.4282 46.0236C61.6101 46.366 61.7136 46.7959 61.7389 47.313C61.749 47.4668 61.754 47.631 61.754 47.8057C61.754 47.9735 61.749 48.1377 61.7389 48.2984C61.7136 48.8086 61.6151 49.2384 61.4434 49.5879C61.2767 49.9373 61.0342 50.1994 60.716 50.3741C60.3978 50.5488 60.0063 50.6362 59.5416 50.6362ZM59.5416 48.9589C59.6881 48.9589 59.779 48.903 59.8144 48.7911C59.8497 48.6723 59.8724 48.4906 59.8825 48.246C59.8876 48.1412 59.8901 47.9944 59.8901 47.8057C59.8901 47.617 59.8876 47.4703 59.8825 47.3654C59.8724 47.1348 59.8497 46.9601 59.8144 46.8413C59.779 46.7155 59.6881 46.6526 59.5416 46.6526C59.4002 46.6526 59.3092 46.7155 59.2688 46.8413C59.2335 46.9601 59.2107 47.1348 59.2006 47.3654C59.1956 47.4703 59.1931 47.617 59.1931 47.8057C59.1931 47.9944 59.1956 48.1412 59.2006 48.246C59.2107 48.4906 59.2335 48.6723 59.2688 48.7911C59.3092 48.903 59.4002 48.9589 59.5416 48.9589Z" fill="white"/>
<path d="M53.9489 50.6362C53.7317 50.6362 53.5271 50.5943 53.3351 50.5104C53.1482 50.4196 52.9815 50.2798 52.8351 50.0911C52.6936 49.8954 52.58 49.6438 52.4941 49.3363C52.4082 49.0288 52.3577 48.6549 52.3426 48.2146C52.3375 48.0539 52.335 47.9141 52.335 47.7953C52.335 47.6765 52.3375 47.5402 52.3426 47.3865C52.3527 46.9741 52.4007 46.6177 52.4865 46.3172C52.5724 46.0097 52.6861 45.7581 52.8275 45.5624C52.974 45.3667 53.1432 45.2199 53.3351 45.1221C53.5271 45.0243 53.7317 44.9753 53.9489 44.9753C54.161 44.9753 54.3504 45.0208 54.5171 45.1116C54.6889 45.1955 54.8353 45.3143 54.9566 45.468V43.3714C54.9566 43.2945 54.9768 43.2282 55.0172 43.1722C55.0576 43.1163 55.1056 43.0884 55.1612 43.0884H56.5629C56.6184 43.0884 56.6664 43.1163 56.7068 43.1722C56.7472 43.2282 56.7674 43.2945 56.7674 43.3714V50.2483C56.7674 50.3252 56.7472 50.3916 56.7068 50.4475C56.6664 50.5034 56.6184 50.5314 56.5629 50.5314H55.2748C55.2192 50.5314 55.1713 50.5034 55.1308 50.4475C55.0904 50.3916 55.0702 50.3252 55.0702 50.2483V50.0072C54.949 50.1959 54.7975 50.3497 54.6156 50.4685C54.4338 50.5803 54.2115 50.6362 53.9489 50.6362ZM54.5777 48.7597C54.6737 48.7597 54.7469 48.7353 54.7975 48.6864C54.853 48.6374 54.8909 48.5676 54.9111 48.4767C54.9364 48.3858 54.9515 48.2775 54.9566 48.1517C54.9667 47.991 54.9717 47.8617 54.9717 47.7638C54.9717 47.659 54.9667 47.5297 54.9566 47.376C54.9515 47.2642 54.9338 47.1698 54.9035 47.0929C54.8783 47.016 54.8379 46.9566 54.7823 46.9147C54.7318 46.8728 54.6636 46.8518 54.5777 46.8518C54.4868 46.8518 54.4136 46.8763 54.358 46.9252C54.3075 46.9741 54.2696 47.044 54.2444 47.1349C54.2241 47.2257 54.209 47.334 54.1989 47.4598C54.1837 47.6905 54.1837 47.9211 54.1989 48.1517C54.209 48.2775 54.2241 48.3858 54.2444 48.4767C54.2696 48.5676 54.3075 48.6374 54.358 48.6864C54.4136 48.7353 54.4868 48.7597 54.5777 48.7597Z" fill="white"/>
<path d="M50.1965 50.5313C50.1409 50.5313 50.0929 50.5033 50.0525 50.4474C50.0121 50.3915 49.9919 50.3251 49.9919 50.2482V45.3631C49.9919 45.2862 50.0121 45.2198 50.0525 45.1639C50.0929 45.108 50.1409 45.0801 50.1965 45.0801H51.5527C51.6083 45.0801 51.6563 45.108 51.6967 45.1639C51.7371 45.2198 51.7573 45.2862 51.7573 45.3631V50.2482C51.7573 50.3251 51.7371 50.3915 51.6967 50.4474C51.6563 50.5033 51.6083 50.5313 51.5527 50.5313H50.1965ZM50.2344 44.5035C50.1788 44.5035 50.1308 44.4755 50.0904 44.4196C50.05 44.3637 50.0298 44.2973 50.0298 44.2204V42.952C50.0298 42.8751 50.05 42.8087 50.0904 42.7528C50.1308 42.6969 50.1788 42.6689 50.2344 42.6689H51.5148C51.5704 42.6689 51.6184 42.6969 51.6588 42.7528C51.6992 42.8087 51.7194 42.8751 51.7194 42.952V44.2204C51.7194 44.2973 51.6992 44.3637 51.6588 44.4196C51.6184 44.4755 51.5704 44.5035 51.5148 44.5035H50.2344Z" fill="white"/>
<path d="M45.0909 50.5313C45.0354 50.5313 44.9874 50.5034 44.947 50.4475C44.9065 50.3916 44.8863 50.3252 44.8863 50.2483V45.3632C44.8863 45.2863 44.9065 45.2199 44.947 45.164C44.9874 45.1081 45.0354 45.0801 45.0909 45.0801H46.4169C46.4724 45.0801 46.5204 45.1081 46.5608 45.164C46.6012 45.2199 46.6214 45.2863 46.6214 45.3632V45.7091C46.7477 45.5064 46.922 45.3352 47.1442 45.1954C47.3665 45.0487 47.6115 44.9753 47.8792 44.9753C48.1368 44.9753 48.3767 45.0591 48.599 45.2269C48.8213 45.3946 49.0006 45.6532 49.137 46.0026C49.2784 46.3521 49.3491 46.8028 49.3491 47.3549V50.2483C49.3491 50.3252 49.3289 50.3916 49.2885 50.4475C49.2481 50.5034 49.2001 50.5313 49.1445 50.5313H47.6974C47.6418 50.5313 47.5938 50.5034 47.5534 50.4475C47.513 50.3916 47.4928 50.3252 47.4928 50.2483V47.4283C47.4928 47.2396 47.4599 47.0964 47.3943 46.9985C47.3286 46.9007 47.2352 46.8518 47.1139 46.8518C46.9927 46.8518 46.8993 46.9007 46.8336 46.9985C46.7679 47.0964 46.7351 47.2396 46.7351 47.4283V50.2483C46.7351 50.3252 46.7149 50.3916 46.6745 50.4475C46.6341 50.5034 46.5861 50.5313 46.5305 50.5313H45.0909Z" fill="white"/>
<path d="M42.2038 50.6362C41.5421 50.6362 41.0143 50.4125 40.6203 49.9652C40.2313 49.511 40.0369 48.7946 40.0369 47.8162C40.0369 47.8022 40.0369 47.7882 40.0369 47.7743C40.0369 47.7603 40.0369 47.7498 40.0369 47.7428C40.047 47.1418 40.1404 46.6351 40.3172 46.2228C40.4991 45.8104 40.7491 45.4994 41.0673 45.2898C41.3906 45.0801 41.7669 44.9753 42.1963 44.9753C42.6913 44.9753 43.0979 45.1081 43.4161 45.3736C43.7344 45.6322 43.9692 45.9782 44.1208 46.4115C44.2774 46.8378 44.3557 47.3095 44.3557 47.8267V48.1412C44.3557 48.2181 44.3355 48.2845 44.2951 48.3404C44.2546 48.3963 44.2067 48.4242 44.1511 48.4242H41.8932C41.8932 48.4312 41.8932 48.4382 41.8932 48.4452C41.8932 48.4522 41.8932 48.4627 41.8932 48.4766C41.8932 48.6164 41.9008 48.7352 41.9159 48.8331C41.9361 48.9239 41.969 48.9938 42.0144 49.0427C42.0599 49.0917 42.118 49.1161 42.1887 49.1161C42.219 49.1161 42.2443 49.1091 42.2645 49.0951C42.2897 49.0812 42.3124 49.0602 42.3326 49.0322C42.3579 48.9973 42.3832 48.9624 42.4084 48.9274C42.4539 48.8645 42.4918 48.8261 42.5221 48.8121C42.5524 48.7911 42.5978 48.7807 42.6585 48.7807H44.0905C44.141 48.7807 44.1814 48.8016 44.2117 48.8436C44.2471 48.8855 44.2622 48.9414 44.2572 49.0113C44.2521 49.1441 44.2067 49.3048 44.1208 49.4935C44.04 49.6752 43.9162 49.8534 43.7495 50.0281C43.5828 50.2029 43.3707 50.3496 43.1131 50.4684C42.8555 50.5803 42.5524 50.6362 42.2038 50.6362ZM41.8932 47.1138H42.4993V47.1034C42.4993 46.9496 42.4867 46.8238 42.4615 46.726C42.4412 46.6281 42.4084 46.5582 42.363 46.5163C42.3175 46.4674 42.2619 46.4429 42.1963 46.4429C42.1306 46.4429 42.075 46.4674 42.0296 46.5163C41.9841 46.5582 41.9488 46.6281 41.9235 46.726C41.9033 46.8238 41.8932 46.9496 41.8932 47.1034V47.1138Z" fill="white"/>
<path d="M36.9956 50.5314C36.9198 50.5314 36.8642 50.5034 36.8289 50.4475C36.7986 50.3916 36.7708 50.3322 36.7455 50.2693L35.2908 45.4051C35.2857 45.3842 35.2832 45.3597 35.2832 45.3318C35.2832 45.2619 35.3009 45.2025 35.3362 45.1536C35.3716 45.1046 35.4145 45.0802 35.465 45.0802H36.7455C36.8213 45.0802 36.8769 45.1081 36.9122 45.164C36.9526 45.2199 36.9804 45.2759 36.9956 45.3318L37.6017 47.7743L38.2079 45.3318C38.223 45.2759 38.2483 45.2199 38.2836 45.164C38.324 45.1081 38.3821 45.0802 38.4579 45.0802H39.7384C39.7889 45.0802 39.8318 45.1046 39.8672 45.1536C39.9026 45.2025 39.9202 45.2619 39.9202 45.3318C39.9202 45.3597 39.9177 45.3842 39.9127 45.4051L38.4579 50.2693C38.4377 50.3322 38.4099 50.3916 38.3746 50.4475C38.3392 50.5034 38.2836 50.5314 38.2079 50.5314H36.9956Z" fill="white"/>
<path d="M30.7882 50.5313C30.7327 50.5313 30.6847 50.5034 30.6443 50.4475C30.6039 50.3916 30.5837 50.3252 30.5837 50.2483V45.3632C30.5837 45.2863 30.6039 45.2199 30.6443 45.164C30.6847 45.1081 30.7327 45.0801 30.7882 45.0801H32.1142C32.1697 45.0801 32.2177 45.1081 32.2581 45.164C32.2985 45.2199 32.3188 45.2863 32.3188 45.3632V45.7091C32.445 45.5064 32.6193 45.3352 32.8416 45.1954C33.0638 45.0487 33.3088 44.9753 33.5765 44.9753C33.8341 44.9753 34.0741 45.0591 34.2963 45.2269C34.5186 45.3946 34.6979 45.6532 34.8343 46.0026C34.9757 46.3521 35.0464 46.8028 35.0464 47.3549V50.2483C35.0464 50.3252 35.0262 50.3916 34.9858 50.4475C34.9454 50.5034 34.8974 50.5313 34.8418 50.5313H33.3947C33.3391 50.5313 33.2911 50.5034 33.2507 50.4475C33.2103 50.3916 33.1901 50.3252 33.1901 50.2483V47.4283C33.1901 47.2396 33.1573 47.0964 33.0916 46.9985C33.0259 46.9007 32.9325 46.8518 32.8112 46.8518C32.69 46.8518 32.5966 46.9007 32.5309 46.9985C32.4652 47.0964 32.4324 47.2396 32.4324 47.4283V50.2483C32.4324 50.3252 32.4122 50.3916 32.3718 50.4475C32.3314 50.5034 32.2834 50.5313 32.2278 50.5313H30.7882Z" fill="white"/>
<path d="M27.901 50.6362C27.2393 50.6362 26.7115 50.4125 26.3175 49.9652C25.9285 49.511 25.7341 48.7946 25.7341 47.8162C25.7341 47.8022 25.7341 47.7882 25.7341 47.7743C25.7341 47.7603 25.7341 47.7498 25.7341 47.7428C25.7442 47.1418 25.8376 46.6351 26.0144 46.2228C26.1962 45.8104 26.4463 45.4994 26.7645 45.2898C27.0878 45.0801 27.4641 44.9753 27.8935 44.9753C28.3885 44.9753 28.7951 45.1081 29.1133 45.3736C29.4316 45.6322 29.6664 45.9782 29.818 46.4115C29.9746 46.8378 30.0529 47.3095 30.0529 47.8267V48.1412C30.0529 48.2181 30.0327 48.2845 29.9923 48.3404C29.9518 48.3963 29.9039 48.4242 29.8483 48.4242H27.5904C27.5904 48.4312 27.5904 48.4382 27.5904 48.4452C27.5904 48.4522 27.5904 48.4627 27.5904 48.4766C27.5904 48.6164 27.598 48.7352 27.6131 48.8331C27.6333 48.9239 27.6662 48.9938 27.7116 49.0427C27.7571 49.0917 27.8152 49.1161 27.8859 49.1161C27.9162 49.1161 27.9414 49.1091 27.9617 49.0951C27.9869 49.0812 28.0096 49.0602 28.0298 49.0322C28.0551 48.9973 28.0804 48.9624 28.1056 48.9274C28.1511 48.8645 28.189 48.8261 28.2193 48.8121C28.2496 48.7911 28.295 48.7807 28.3556 48.7807H29.7877C29.8382 48.7807 29.8786 48.8016 29.9089 48.8436C29.9443 48.8855 29.9594 48.9414 29.9544 49.0113C29.9493 49.1441 29.9039 49.3048 29.818 49.4935C29.7372 49.6752 29.6134 49.8534 29.4467 50.0281C29.28 50.2029 29.0679 50.3496 28.8103 50.4684C28.5526 50.5803 28.2496 50.6362 27.901 50.6362ZM27.5904 47.1138H28.1965V47.1034C28.1965 46.9496 28.1839 46.8238 28.1586 46.726C28.1384 46.6281 28.1056 46.5582 28.0602 46.5163C28.0147 46.4674 27.9591 46.4429 27.8935 46.4429C27.8278 46.4429 27.7722 46.4674 27.7268 46.5163C27.6813 46.5582 27.646 46.6281 27.6207 46.726C27.6005 46.8238 27.5904 46.9496 27.5904 47.1034V47.1138Z" fill="white"/>
<path d="M23.6183 50.5313C23.5627 50.5313 23.5147 50.5033 23.4743 50.4474C23.4339 50.3915 23.4137 50.3251 23.4137 50.2482V45.3631C23.4137 45.2862 23.4339 45.2198 23.4743 45.1639C23.5147 45.108 23.5627 45.0801 23.6183 45.0801H24.9745C25.0301 45.0801 25.0781 45.108 25.1185 45.1639C25.1589 45.2198 25.1791 45.2862 25.1791 45.3631V50.2482C25.1791 50.3251 25.1589 50.3915 25.1185 50.4474C25.0781 50.5033 25.0301 50.5313 24.9745 50.5313H23.6183ZM23.6562 44.5035C23.6006 44.5035 23.5526 44.4755 23.5122 44.4196C23.4718 44.3637 23.4516 44.2973 23.4516 44.2204V42.952C23.4516 42.8751 23.4718 42.8087 23.5122 42.7528C23.5526 42.6969 23.6006 42.6689 23.6562 42.6689H24.9366C24.9922 42.6689 25.0402 42.6969 25.0806 42.7528C25.121 42.8087 25.1412 42.8751 25.1412 42.952V44.2204C25.1412 44.2973 25.121 44.3637 25.0806 44.4196C25.0402 44.4755 24.9922 44.5035 24.9366 44.5035H23.6562Z" fill="white"/>
<path d="M18.1298 50.5313C18.0742 50.5313 18.0262 50.5034 17.9858 50.4475C17.9454 50.3916 17.9252 50.3252 17.9252 50.2483V43.4762C17.9252 43.3993 17.9454 43.3329 17.9858 43.277C18.0262 43.2211 18.0742 43.1931 18.1298 43.1931H20.6453C21.1302 43.1931 21.5268 43.277 21.8349 43.4447C22.143 43.6055 22.3703 43.8501 22.5168 44.1786C22.6683 44.5 22.7441 44.9054 22.7441 45.3946C22.7441 45.6182 22.7087 45.8209 22.638 46.0026C22.5724 46.1773 22.4915 46.3241 22.3956 46.4429C22.3046 46.5617 22.2188 46.6491 22.138 46.705C22.3299 46.8168 22.4966 47.0125 22.638 47.292C22.7845 47.5646 22.8578 47.8756 22.8578 48.225C22.8578 48.7492 22.7744 49.1825 22.6077 49.5249C22.441 49.8604 22.1986 50.112 21.8803 50.2797C21.5672 50.4475 21.1807 50.5313 20.7211 50.5313H18.1298ZM19.8194 48.7282H20.5241C20.6504 48.7282 20.7388 48.6723 20.7893 48.5605C20.8448 48.4417 20.8726 48.3264 20.8726 48.2146C20.8726 48.0888 20.8423 47.9734 20.7817 47.8686C20.7261 47.7568 20.6403 47.7009 20.5241 47.7009H19.8194V48.7282ZM19.8194 45.9502H20.4559C20.567 45.9502 20.6453 45.9013 20.6908 45.8034C20.7413 45.6986 20.7665 45.5903 20.7665 45.4785C20.7665 45.3666 20.7413 45.2583 20.6908 45.1535C20.6453 45.0487 20.567 44.9962 20.4559 44.9962H19.8194V45.9502Z" fill="white"/>
<path d="M16.9461 47.9211C17.0017 47.9211 17.0497 47.949 17.0901 48.005C17.1305 48.0609 17.1507 48.1273 17.1507 48.2041V52.1668C17.1507 52.2436 17.1305 52.31 17.0901 52.3659C17.0497 52.4218 17.0017 52.4498 16.9461 52.4498H15.6278C15.5722 52.4498 15.5242 52.4218 15.4838 52.3659C15.4434 52.31 15.4232 52.2436 15.4232 52.1668V48.2041C15.4232 48.1273 15.4434 48.0609 15.4838 48.005C15.5242 47.949 15.5722 47.9211 15.6278 47.9211H16.9461ZM16.9461 45.1116C17.0017 45.1116 17.0497 45.1396 17.0901 45.1955C17.1305 45.2514 17.1507 45.3178 17.1507 45.3947V47.2187C17.1507 47.2956 17.1305 47.362 17.0901 47.4179C17.0497 47.4738 17.0017 47.5018 16.9461 47.5018H15.6278C15.5722 47.5018 15.5242 47.4738 15.4838 47.4179C15.4434 47.362 15.4232 47.2956 15.4232 47.2187V45.3947C15.4232 45.3178 15.4434 45.2514 15.4838 45.1955C15.5242 45.1396 15.5722 45.1116 15.6278 45.1116H16.9461Z" fill="white"/>
<path d="M45.4726 20.9885C45.4726 22.1546 44.5273 23.1 43.3611 23.1C42.195 23.1 41.2497 22.1546 41.2497 20.9885C41.2497 19.8224 42.195 18.877 43.3611 18.877C44.5273 18.877 45.4726 19.8224 45.4726 20.9885Z" fill="#2149CE"/>
<path d="M16.3762 28.1001C16.6475 27.9668 16.969 28.0472 17.147 28.2772L17.2132 28.3852L17.313 28.6112C17.7593 29.7656 17.4775 31.245 16.8029 32.4409C16.0697 33.7403 14.7738 34.8892 13.0629 35.073C12.7193 35.1099 12.4104 34.8606 12.3735 34.5171C12.3368 34.1738 12.5852 33.8658 12.9284 33.8287C14.1307 33.6997 15.119 32.8802 15.7133 31.8269C16.2833 30.8167 16.4059 29.7511 16.1471 29.0684L16.0911 28.9371L16.0463 28.8179C15.9732 28.5365 16.1051 28.2334 16.3762 28.1001Z" fill="#2149CE"/>
<path d="M68.2165 28.1C67.9452 27.9667 67.6238 28.0471 67.4457 28.2772L67.3795 28.3852L67.2797 28.6112C66.8335 29.7656 67.1152 31.245 67.7899 32.4408C68.523 33.7403 69.8189 34.8892 71.5299 35.073C71.8734 35.1099 72.1824 34.8606 72.2192 34.517C72.2559 34.1738 72.0075 33.8658 71.6643 33.8287C70.462 33.6997 69.4738 32.8802 68.8794 31.8268C68.3094 30.8167 68.1868 29.7511 68.4456 29.0684L68.5016 28.937L68.5464 28.8179C68.6196 28.5365 68.4876 28.2334 68.2165 28.1Z" fill="#2149CE"/>
<path d="M67.6946 67.0187C67.4233 67.152 67.1019 67.0716 66.9238 66.8415L66.8576 66.7336L66.7578 66.5075C66.3116 65.3531 66.5933 63.8737 67.2679 62.6779C68.0011 61.3784 69.297 60.2295 71.008 60.0457C71.3515 60.0089 71.6604 60.2581 71.6973 60.6017C71.734 60.945 71.4856 61.2529 71.1424 61.29C69.9401 61.419 68.9519 62.2385 68.3575 63.2919C67.7875 64.3021 67.6649 65.3677 67.9237 66.0503L67.9797 66.1817L68.0245 66.3008C68.0977 66.5822 67.9657 66.8854 67.6946 67.0187Z" fill="#2149CE"/>
<path d="M15.7606 67.0187C16.0319 67.152 16.3533 67.0716 16.5314 66.8415L16.5976 66.7336L16.6974 66.5075C17.1436 65.3531 16.8618 63.8737 16.1872 62.6779C15.454 61.3784 14.1582 60.2295 12.4472 60.0457C12.1036 60.0088 11.7947 60.2581 11.7578 60.6017C11.7211 60.945 11.9696 61.2529 12.3128 61.29C13.5151 61.419 14.5033 62.2385 15.0977 63.2919C15.6676 64.3021 15.7902 65.3676 15.5315 66.0503L15.4755 66.1817L15.4307 66.3008C15.3575 66.5822 15.4895 66.8854 15.7606 67.0187Z" fill="#2149CE"/>
</svg>
