<svg width="84" height="84" viewBox="0 0 84 84" fill="none" xmlns="http://www.w3.org/2000/svg">
<path d="M54.8221 47.7713L64.566 72.5833L53.6053 70.2101L53.6437 70.1941L47.3844 79.7941L37.6405 54.9826L54.8221 47.7713Z" fill="#F28231"/>
<path d="M46.5935 55.683L36.5122 82.0094L30.3847 71.6675L30.4226 71.6851L19.4305 74.0468L29.5118 47.7204L46.5935 55.683Z" fill="#EA7C2D"/>
<path d="M70.5817 37.8123C70.2422 39.2883 68.1373 40.1912 67.5895 41.5543C67.0278 42.9529 67.9168 45.061 67.1577 46.3264C66.3861 47.6141 64.1042 47.8213 63.1528 48.9564C62.1908 50.1022 62.381 52.3836 61.2602 53.3578C60.1336 54.3369 57.9002 53.8306 56.6381 54.6207C55.3759 55.4113 54.8556 57.6415 53.4826 58.227C52.1161 58.8095 50.1478 57.6413 48.6963 58.0058C47.2599 58.3664 46.0761 60.3283 44.5807 60.4598C43.1114 60.5893 41.6035 58.8692 40.0995 58.7632C38.6347 58.66 36.9022 60.1594 35.4262 59.8199C33.9502 59.4804 33.0469 57.3748 31.6842 56.8277C30.2851 56.2659 28.1774 57.1544 26.9121 56.3959C25.6243 55.6242 25.4168 53.3423 24.2823 52.3904C23.136 51.4284 20.8549 51.6192 19.8803 50.4983C18.9011 49.3717 19.4077 47.1377 18.6175 45.8757C17.8274 44.6136 15.5969 44.0932 15.0115 42.7203C14.4288 41.3543 15.5969 39.3853 15.2324 37.9344C14.872 36.4975 12.9102 35.3143 12.7784 33.8188C12.649 32.349 14.3694 30.8412 14.4751 29.3376C14.5781 27.8728 13.0791 26.1404 13.4186 24.6644C13.7582 23.1879 15.8634 22.285 16.4108 20.9218C16.9726 19.5232 16.0839 17.4152 16.8423 16.1502C17.6143 14.8622 19.896 14.6547 20.8478 13.5202C21.8097 12.3738 21.6191 10.0928 22.7402 9.11825C23.8666 8.13909 26.1003 8.64556 27.3625 7.85543C28.6246 7.06533 29.145 4.83474 30.5179 4.24932C31.8843 3.66673 33.8529 4.83475 35.3042 4.47043C36.7406 4.10986 37.9242 2.14816 39.4197 2.01635C40.8893 1.88688 42.397 3.6073 43.9009 3.7131C45.3658 3.81605 47.0981 2.31712 48.5741 2.65661C50.0501 2.9961 50.9535 5.10128 52.3162 5.64866C53.7153 6.2106 55.8233 5.32181 57.0884 6.08025C58.376 6.85221 58.5837 9.13391 59.7182 10.0858C60.8646 11.0476 63.1455 10.857 64.1202 11.9781C65.0994 13.1045 64.593 15.3383 65.383 16.6005C66.1731 17.8626 68.4033 18.3828 68.9889 19.7558C69.5713 21.1222 68.4037 23.0908 68.7682 24.5422C69.1282 25.9784 71.0902 27.162 71.2216 28.6578C71.3517 30.1272 69.631 31.635 69.5252 33.1385C69.4224 34.6039 70.9213 36.3358 70.5817 37.8123Z" fill="#F88431"/>
<path d="M63.3758 31.2386C63.3758 43.0438 53.8054 52.6136 42.0001 52.6136C30.1948 52.6136 20.6247 43.0438 20.6247 31.2386C20.6247 19.433 30.1948 9.86289 42.0001 9.86289C53.8054 9.86289 63.3758 19.433 63.3758 31.2386Z" fill="white"/>
<path d="M44.7503 37.2751C44.7503 37.767 44.7428 38.2514 44.7279 38.7284C44.7279 39.1905 44.7279 39.6824 44.7279 40.2041V41.6351H40.2115V40.2041C40.2115 39.6824 40.204 39.1905 40.1891 38.7284C40.1891 38.2514 40.1891 37.767 40.1891 37.2751V28.2646C40.1891 27.8621 40.2115 27.4 40.2562 26.8783C40.3158 26.3417 40.368 25.7977 40.4127 25.2461C40.4574 24.6797 40.4798 24.1506 40.4798 23.6587L40.4127 19.1199C40.7704 19.0453 41.1431 19.0006 41.5306 18.9857C41.9331 18.9708 42.2983 18.9634 42.6262 18.9634C42.9541 18.9634 43.297 18.9708 43.6547 18.9857C44.0125 19.0006 44.3776 19.0453 44.7503 19.1199V37.2751ZM37.8415 39.7793C38.1247 39.7793 38.5346 39.7942 39.0712 39.824C39.6078 39.8389 40.0177 39.8464 40.3009 39.8464H44.6832C44.9515 39.8464 45.3689 39.8389 45.9353 39.824C46.5166 39.7942 46.9414 39.7793 47.2097 39.7793H49.7139C49.7884 40.0476 49.8406 40.3532 49.8704 40.696C49.9002 41.0239 49.9151 41.3444 49.9151 41.6574C49.9151 41.9555 49.9002 42.2686 49.8704 42.5965C49.8406 42.9095 49.7884 43.2151 49.7139 43.5132H34.3535C34.2194 42.8722 34.1523 42.2536 34.1523 41.6574C34.1523 40.9717 34.2194 40.3457 34.3535 39.7793H37.8415ZM33.012 26.1405C34.9945 25.0375 36.5745 23.8972 37.752 22.7196C38.9445 21.5421 39.8314 20.3421 40.4127 19.1199L42.0672 22.5184C41.4561 24.009 40.5021 25.2834 39.2053 26.3417C37.9085 27.3851 36.4776 28.2273 34.9125 28.8683C34.4057 28.6298 33.9809 28.2571 33.638 27.7503C33.3101 27.2435 33.1014 26.7069 33.012 26.1405Z" fill="#F88431"/>
</svg>
