<svg width="85" height="84" viewBox="0 0 85 84" fill="none" xmlns="http://www.w3.org/2000/svg">
<path d="M55.3108 47.7619L65.0547 72.5739L54.0939 70.2007L54.1323 70.1847L47.873 79.7847L38.1291 54.9732L55.3108 47.7619Z" fill="#2147C3"/>
<path d="M47.0822 55.6736L37.0008 82L30.8733 71.6581L30.9112 71.6757L19.9191 74.0374L30.0005 47.711L47.0822 55.6736Z" fill="#2F57DD"/>
<path d="M71.0704 37.8029C70.7309 39.2789 68.6259 40.1818 68.0781 41.5449C67.5164 42.9435 68.4055 45.0516 67.6464 46.317C66.8747 47.6047 64.5929 47.8119 63.6414 48.947C62.6795 50.0928 62.8697 52.3742 61.7488 53.3484C60.6223 54.3275 58.3888 53.8212 57.1268 54.6113C55.8646 55.4019 55.3442 57.6321 53.9713 58.2176C52.6048 58.8001 50.6364 57.6319 49.1849 57.9964C47.7486 58.357 46.5648 60.3189 45.0694 60.4504C43.6001 60.5799 42.0922 58.8598 40.5881 58.7538C39.1233 58.6506 37.3909 60.15 35.9149 59.8105C34.4389 59.471 33.5356 57.3654 32.1729 56.8183C30.7738 56.2565 28.666 57.145 27.4007 56.3865C26.113 55.6148 25.9054 53.3329 24.7709 52.381C23.6247 51.419 21.3435 51.6098 20.3689 50.4889C19.3898 49.3623 19.8963 47.1283 19.1062 45.8663C18.316 44.6042 16.0856 44.0838 15.5001 42.7109C14.9174 41.3449 16.0855 39.3759 15.721 37.925C15.3606 36.4881 13.3989 35.3049 13.2671 33.8094C13.1377 32.3396 14.8581 30.8318 14.9638 29.3282C15.0668 27.8634 13.5678 26.131 13.9073 24.655C14.2469 23.1785 16.352 22.2756 16.8995 20.9124C17.4613 19.5138 16.5725 17.4059 17.331 16.1408C18.103 14.8528 20.3846 14.6453 21.3365 13.5108C22.2983 12.3644 22.1077 10.0834 23.2288 9.10885C24.3552 8.12969 26.589 8.63616 27.8512 7.84603C29.1133 7.05593 29.6336 4.82534 31.0066 4.23992C32.3729 3.65733 34.3415 4.82535 35.7929 4.46103C37.2293 4.10046 38.4128 2.13876 39.9084 2.00695C41.3779 1.87748 42.8856 3.5979 44.3896 3.7037C45.8544 3.80665 47.5868 2.30772 49.0628 2.64721C50.5388 2.9867 51.4422 5.09188 52.8048 5.63926C54.204 6.2012 56.312 5.31241 57.577 6.07085C58.8646 6.84281 59.0724 9.12451 60.2068 10.0764C61.3533 11.0382 63.6342 10.8476 64.6089 11.9687C65.588 13.0951 65.0816 15.3289 65.8717 16.5911C66.6617 17.8532 68.892 18.3734 69.4775 19.7464C70.06 21.1128 68.8923 23.0814 69.2568 24.5328C69.6169 25.969 71.5788 27.1526 71.7103 28.6484C71.8403 30.1178 70.1196 31.6256 70.0138 33.1291C69.911 34.5945 71.41 36.3264 71.0704 37.8029Z" fill="#2149CE"/>
<path d="M63.8644 31.2292C63.8644 43.0345 54.2941 52.6042 42.4888 52.6042C30.6834 52.6042 21.1133 43.0345 21.1133 31.2292C21.1133 19.4236 30.6834 9.85349 42.4888 9.85349C54.2941 9.85349 63.8644 19.4236 63.8644 31.2292Z" fill="white"/>
<path d="M45.2389 37.2657C45.2389 37.7576 45.2315 38.242 45.2166 38.719C45.2166 39.1811 45.2166 39.673 45.2166 40.1947V41.6257H40.7001V40.1947C40.7001 39.673 40.6927 39.1811 40.6778 38.719C40.6778 38.242 40.6778 37.7576 40.6778 37.2657V28.2552C40.6778 27.8527 40.7001 27.3906 40.7448 26.8689C40.8045 26.3323 40.8566 25.7883 40.9014 25.2367C40.9461 24.6703 40.9684 24.1412 40.9684 23.6493L40.9014 19.1105C41.2591 19.0359 41.6317 18.9912 42.0193 18.9763C42.4217 18.9614 42.7869 18.954 43.1149 18.954C43.4428 18.954 43.7856 18.9614 44.1434 18.9763C44.5011 18.9912 44.8663 19.0359 45.2389 19.1105V37.2657ZM38.3301 39.7699C38.6133 39.7699 39.0232 39.7848 39.5598 39.8146C40.0964 39.8295 40.5064 39.837 40.7896 39.837H45.1719C45.4402 39.837 45.8575 39.8295 46.424 39.8146C47.0053 39.7848 47.4301 39.7699 47.6984 39.7699H50.2026C50.2771 40.0382 50.3293 40.3438 50.3591 40.6866C50.3889 41.0145 50.4038 41.335 50.4038 41.648C50.4038 41.9461 50.3889 42.2592 50.3591 42.5871C50.3293 42.9001 50.2771 43.2057 50.2026 43.5038H34.8422C34.708 42.8628 34.6409 42.2442 34.6409 41.648C34.6409 40.9623 34.708 40.3363 34.8422 39.7699H38.3301ZM33.5006 26.1311C35.4831 25.0281 37.0631 23.8878 38.2407 22.7102C39.4331 21.5327 40.32 20.3327 40.9014 19.1105L42.5559 22.509C41.9448 23.9996 40.9908 25.274 39.694 26.3323C38.3972 27.3757 36.9662 28.2179 35.4011 28.8589C34.8943 28.6204 34.4695 28.2477 34.1267 27.7409C33.7987 27.2341 33.5901 26.6975 33.5006 26.1311Z" fill="#2149CE"/>
</svg>
