<svg xmlns="http://www.w3.org/2000/svg" viewBox="0 0 1400 346">
	<path d="M0,346.6h1400c-61.6-11.1-129-20.7-201-28.7v-14.6c11.6-3.1,14.6-14.4,11.6-34.8-2.7-17.8-4.9-35.7-10.3-46.5-1.7-3.6-5.6-3-6.9.9-4.1,12.3-7.3,28.5-10.1,47.6-2.9,19.5,1.7,31.2,11.7,32.7v14.3c-17.7-1.9-35.7-3.8-54-5.5v-23.4s24.1-23.4,19-56.9c-4.3-29.2-8-58.4-16.8-76.1-2.9-5.9-9.1-4.8-11.3,1.4-6.8,19.9-12,46.7-16.6,78-4.8,32.1,18.7,53.6,18.7,53.6v22.7c-23.5-2.2-47.5-4.2-71.9-6.1,0-10.7,0-41.4,0-41.4,0,0,33.1-7.1,32.8-23.1,17.4-10.8,16.2-25.7,6.1-33.1,7.2-4,6.7-31.3-10.7-31.3,4.1-8.4-5.4-23.1-16.8-24.6-5.6-.7-12.7,1-17.4,3.9-14.6-5.3-31.7-1.9-31.7,16.3-10.7,5.3-17.7,17.8-10.7,35.1-8.7,11-10,21.1,6.2,34.1-.6,17.3,33.2,22.5,33.2,22.5v40.8c-28.2-2.1-56.8-3.9-86-5.5v-31.3c24-6.4,30.4-29,24-70.3-5.5-36.1-10.1-72.1-21.2-94-3.7-7.2-11.7-5.9-14.4,1.7-8.6,24.7-15.1,57.6-20.9,96.3-5.9,39.6,3.9,63.4,24.4,66.2v31c-10.7-.6-21.6-1.1-32.7-1.6-17.1-.8-34.3-1.5-51.6-2.1-.7-10.6,0-40.5,0-40.5,34.7-.3,46.9-41.2,31-67.6,0-23.1-3.3-37.3-16.6-48.2,0-10-4.8-32.9-17.8-32.9-13.2,0-18.9,22.8-18.7,32.9-16.3,9-17.4,30.5-14.5,48.2-15.8,21.8-7.2,62.5,28.9,67.6v40.3c-25.9-.9-52-1.5-78.5-2,0-7.7,0-24.3,0-31.3,0,0,14.7,3.3,22.5-14.4,0,0,16.9-7.2,16.9-30s-16.9-32.9-16.9-32.9c0-33.9-52.5-33-52.5,0-5.4,3.1-17.2,14.9-16.6,32.9.9,29,16.6,30,16.6,30,7.5,17.5,22.8,14.3,22.8,14.3,0,8.3-.2,28.4-.3,31.3-25.1-.4-50.5-.6-76-.6v-54.6c34-8.8,43-40.9,34-99.1-7.7-50.7-13.4-99.7-29.1-130.7-5.2-10.3-17.2-10.1-21,.7v.4c-12,35-21.1,81.2-29.4,135.8-8.5,55.8,5.4,89.4,34.5,93.3v54.2c-25.2,0-50.2.2-75,.6v-23c22-.3,28.4-26,18.3-42.6,0-14.5-2-23.5-10.4-30.4,0-6.4-3.1-20.8-11.3-20.8s-11.9,14.4-11.7,20.8c-10.4,5.6-11,19.3-9.1,30.4-10,13.8-5.4,39.5,17.3,42.6v23.1c-25.5.4-50.8,1.1-75.8,1.9,0-10,0-32.3,0-41.6,0,0,30,7.6,30-19.2,0,0,22.4-9.7,22.4-40s-22.4-43.6-22.4-43.6c0-45.2-69.8-43.9-69.8,0,0,0-22.1,4.9-22.1,43.6s22.1,40,22.1,40c0,25.4,30.3,18.9,30.3,18.9,0,12.3-.4,33.5-.4,42.2-28.5,1-56.6,2.2-84.3,3.6-.4-9.5.2-26,.2-26,0,0,13.8-.1,20.3-5.5,8.9-7,8.8-15.2,3.5-24.3,4.5-15.7,2.7-18.7-1.9-29.5,1.7-7.5-2.6-19.3-8.6-23.3.1-6.8-1.3-14.8-6.2-19.8-2.7-2.9-6.2-5-10.2-5s-7.3,1.9-10.1,4.6c-8.9,9.1-5,17.5-7.1,20.6-6.9,6.3-8.1,10.2-8.1,23.1-4.5,8.2-8.4,13.5-2.9,29-2,8.9-6.2,16,4,24.9,5.9,5,13,5.3,20.3,5.3v26.2c-27.5,1.5-54.6,3.2-81.2,5.1-.1-11.4-.1-35.4-.3-45.3,23.3.9,39-10.9,38.7-34.9,20.4-16.5,19.1-38.8,7.1-49.8,8.6-6.1,8-47.2-12.6-47.2,4.8-12.7-6.1-34.6-19.7-36.9-6.7-1.2-14.9,1.6-20.4,5.9-17.4-7.8-37.5-2.7-37.5,24.6-12.6,8-20.7,26.6-12.6,52.7-10.3,16.4-11.9,31.5,7.2,51.1-.7,26,14.3,36.8,39.3,33.9-.1,13.2-.5,36.4-.6,46.7-22.5,1.7-44.6,3.5-66.4,5.5v-14.4s16.3-4.5,16.3-14.3c8.4-6.8,7.8-15.9,2.9-20.4,3.5-2.5,3.2-19.2-5.2-19.2,1.9-5.1-2.6-14.2-8.1-15-2.7-.4-6.1.7-8.4,2.5-7.1-3.2-15.3-1-15.3,10.1-5.2,3.2-8.5,10.8-5.2,21.5-4.2,6.8-4.8,13,3,20.9-.3,10.7,16,13.9,16,13.9v14.8c-19,1.7-37.7,3.6-56.1,5.6,0-5.1.2-9.5.2-9.5,0,0,10.3-.1,15.1-4.1,6.7-5.4,6.6-11.3,2.6-18.2,3.2-11.6,2-14-1.5-21.9,1.3-5.7-1.9-14.5-6.4-17.4.1-5.1-.9-11-4.5-14.8-2-2.2-4.5-3.8-7.6-3.8s-5.5,1.5-7.6,3.5c-6.6,6.7-3.8,13.1-5.2,15.3-5.2,4.8-6.1,7.6-6.1,17.3-3.3,6.1-6.3,10-2.2,21.7-1.5,6.5-4.7,11.9,3.1,18.5,4.4,3.8,9.6,3.9,15.1,3.9v10.1c-75.8,8.2-146.5,18.2-211,29.8h.1Z" fill="#3aadaa"/>
</svg>
