<svg xmlns="http://www.w3.org/2000/svg" viewBox="0 0 1400 856">
	<path d="M1241.3,14.4c5.6-16.9,22.7-19.7,30.7-3.8,23.8,48.3,33.5,127.3,45.2,206.2,13.5,90.7,0,140.5-51.4,154.3v88.2c29.1-1,59-1.8,90-2v-49.3c-26.6-3.6-39.1-35.3-31.4-87.4,7.4-51.1,15.8-94.5,26.8-127,3.3-10.2,13.8-12,18.4-2.3,14.3,29.1,20.2,76.7,27.3,123.9,8.2,54.4,0,84.6-30.9,92.8v49.1h34v399.1H0c32.5-15.1,63.9-32.5,94.3-47.5,0-2,.5-38.8.5-57.5,0,0-24.8,5.1-37.1-23.3,0,0-27.1-8.4-27.1-49.1s27.1-53.7,27.1-53.7c0-53.9,85.6-55.4,85.6,0,0,0,27.3,16.4,27.3,53.7s-27.3,49.1-27.3,49.1c-12.8,28.9-36.5,23.5-36.8,23.5v50.8c40.6-20.2,80.2-40.6,119.1-60.6h-2v-35.8c-8.9,0-17.4-.3-24.5-6.4-12.3-10.7-7.2-19.2-4.9-29.9-6.6-18.7-1.8-25,3.6-35,0-15.6,1.3-20.4,9.7-27.9,2.3-3.6-2.3-13.8,8.4-24.8,3.3-3.3,7.4-5.6,12.3-5.6s8.9,2.6,12.3,6.1c5.9,6.1,7.7,15.8,7.4,24,7.4,4.9,12.5,19.2,10.5,28.1,5.6,13,7.7,16.6,2.3,35.5,6.4,11,6.6,20.7-4.1,29.4-7.9,6.4-24.5,6.6-24.5,6.6,0,0-.8,21.7,0,32.7,25-12.8,49.8-25.6,74.9-38.1v-39.4c-32.7-4.6-48.3-43.4-38.6-107.8,9.2-63.1,19.7-116.5,33.2-156.9,4.3-12.5,16.9-14.6,22.7-2.8,17.6,35.8,24.8,94.5,33.7,153.1,10,67.2,0,104.3-38.1,114.5v33c31.9-15.8,64.4-31.7,97.4-46.8v-37.6c-37.6-5.1-45-47.5-28.6-70.3-3.1-18.4-2-40.9,15.1-50.1-.3-10.5,5.6-34.5,19.4-34.2,13.5,0,18.7,23.8,18.4,34.2,13.8,11.2,17.1,26.1,17.1,50.1,16.6,27.3,6.1,70-29.9,70.3v32.5c24.8-11.2,49.8-22.2,75.6-32.7v-16.6c-16.6,1.8-26.6-5.1-26.1-22.5-12.8-13-11.8-23-4.9-34-5.4-17.4,0-29.9,8.4-35,0-18.1,13.3-21.7,25-16.4,3.6-2.8,9.2-4.6,13.5-3.8,8.9,1.5,16.4,16.1,13,24.5,13.8,0,14.1,27.3,8.4,31.4,7.9,7.4,8.9,22.2-4.9,33.2,0,16.1-10.2,23.8-25.8,23.3v13.3c33-13.3,67-26.3,102.2-38.3,0-13,.8-57,.8-80.7-40.6,4.6-64.9-12.8-63.6-55.2-31.2-31.7-28.4-56.5-11.8-83-13.3-42.4,0-72.8,20.4-85.6,0-44.5,32.7-52.9,60.8-39.9,8.9-7.2,22.5-11.5,33.2-9.7,22,3.6,39.9,39.4,32.2,59.8,33.5,0,34.2,66.9,20.4,76.7,19.4,17.9,21.7,54.2-11.8,80.7.5,39.1-24.8,58-62.6,56.5,0,16.4.3,55.7.3,74.1,41.9-13.8,85.6-26.6,132.1-38.1v-47c-12,0-23.5-.5-33.2-8.7-16.9-14.6-9.7-26.1-6.6-40.6-8.9-25.6-2.6-34,4.6-47.5,0-21.2,1.8-27.6,13.3-37.8,3.3-4.9-3.1-18.9,11.5-33.5,4.3-4.3,10.2-7.7,16.6-7.7s12.3,3.6,16.6,8.2c7.9,8.4,10.2,21.5,10,32.5,10,6.4,16.9,25.8,14.1,38.3,7.4,17.6,10.2,22.5,3.1,48.3,8.7,14.8,8.9,28.1-5.6,39.9-10.7,8.7-33.2,8.9-33.2,8.9,0,0-1,29.4-.3,44.2,33.5-8.2,68.2-15.6,104.5-22.2v-48c-58.8-8.2-72.8-74.6-47-110.1-4.9-28.9-3.1-63.9,23.5-78.4-.5-16.6,8.9-53.9,30.4-53.7,21.2,0,29.4,37.3,28.9,53.7,21.7,17.9,27.1,40.9,27.1,78.4,26.1,42.9,6.1,109.6-50.3,110.1,0,0-.5,25.3-.5,45.7,29.4-5.4,59.5-10,91.2-14.3v-24.8c-16.4-2.3-24-21.7-19.4-53.9,4.6-31.7,9.7-58.3,16.6-78.4,2-6.1,8.4-7.4,11.2-1.5,8.9,17.9,12.5,47.3,16.9,76.7,5.1,33.7,0,52.1-19.2,57.2v23.8c31.2-4.1,63.4-7.9,96.9-11,0-16.1.5-47.5.8-65.9,0,0-49.1,10.7-49.1-30.7,0,0-35.8-11-35.8-64.6s35.8-70.5,35.8-70.8c0-71,113-73.1,113,0,0,0,36.3,21.7,36.3,70.8s-36.3,64.6-36.3,64.6c0,43.2-48.6,31.2-48.6,31.2,0,14.1.3,46.5.3,63.9,46.3-4.1,94.8-7.2,146.2-9.5v-88.9c-44.2-6.1-64.9-58.5-52.1-145.1,12.5-85.1,26.3-157.1,44.7-211.3l.5-.3Z" fill="#3aadaa"/>
</svg>
