<svg xmlns="http://www.w3.org/2000/svg" viewBox="0 0 1400 315">
	<path d="M1386,187.8l-1.5-.4c-2,.5-3.9.9-5.7,1.8,3,1.6,3.2,3.6,3.2,6.7v9.5c-2-2.4-6.1-7.4-8.4-8.9.2,2.6,6.1,9,5.7,13.8-.8-.7-4.4-5.5-5.2-6.6-1.3-1.6-2.7-3.3-4-5-1.3-1.8-2.6-3.5-3.6-5.2l-.9-.6c-.2,1.6,5,9.9,5.9,10.3,1,1.9,2.4,3.8,1.5,5.9v.5c-.6,2.5-1.2,6-2.3,7.5-1.7-.5-1.9-1.3-3-3.4-.8-1.9-2.5-7.1-3.6-8.1-1.4,3.6-1.8,4.6-3.9,7.1l-.4.5c-.5.9-1,1.8-1.5,2.7l-.6-.3c-.8-2.5-.3-8,.3-10.6,1.5-3.6,3.3-15,4.2-19.6.7-3.1,1.6-6.4,1.6-9.5h-.5c-1.3,2.1-1.5,4.1-2.1,6.6v.5c-.3,1.6-1,5.8-1.8,7.1l-1.2,5.1-.4.2c-.4-1.5-.4-2.3-.4-3.9,0-2.6,0-21.7-.6-22.9-.3-4-1.7-8.7-2.8-12.5,0,4.4-.8,14.5.4,17.4.7,3.7,1.6,5.5,1.3,9.2v.2c1.1,4.3.8,18,.3,22.5,0-.4-.2-.7-.2-1.1-.6-2.5-1.5-5.7-1.5-7.9-2.2-6.8-1.4-6.9-5.8-12.5l-.6.2c.5,1.2,2.9,7.4,2.9,7.9-.3,6.2-2.3,12.1-2.7,18.5l-.5.4c-.5-1-.5-1.5-.5-2.7l-.6-1.2v-3.1c.3-3.6-.3-9.2-2.2-12.2v.9c0,2.1-.1,3.4-.3,5.7-.9-1.9-.5-4.6-1.8-7.4-1,2.3,0,10.3.3,13.4.3,1.3.7,2.5,1,3.8l.5.2v10.8c-1.4-1.5-2.4-5.1-3.1-7.1-.9-2.5.2-3.4,0-5.8-1.7.8-2.7,5.3-4.3,6.2-.4-1.3-.2-2.8-.2-4.1v-4.7c-.3.2-.3.4-.3.6s-.2.3-.2.4c-1.6,8.4.8,4.3-4.2,11.5-.2-1.6-.8-6.3-1.6-7.3-.2.1-.5.3-.5.4-.4.3-.7.5-1.4.7l-.3-1c.3-.9.9-2.1,1.1-3v-1c-.5.6-1.3,1.4-1.8,1.9l-.6-.3.3-.6c1.3-5.7,3.3-11.1,6-16-1.4,1.1-2.5,2.6-3.5,4.2-.9,1.4-1.7,2.9-2.4,4.5-.3.8-.6,1.5-.9,2.3,0,.4-.4.7-.4,1.1,0,.4-.4.7-.4,1.1s-.1.3-.3.4c-.1,0-.3.3-.3.3l-.3-.3c0-1.4.4-2.7.4-4.1v-2.7c-.2-.2-.2-.7-.2-.9,0,.4-.4.7-.6,1-.2.2-.2.1-.4.9s-.5,1.6-.7,2.4-.5,1.7-.7,2.5c-.2.7-.4,1.6-.6,2.3l-1.8,4.7-.8-2.3c-.4-.2-.7-.4-1-.4-.2,0-.4,0-.6,0-.5,0-.8,0-1.1,0-.3.2-.5.6-.8,1v.3h-.3c-.2,0-.5.3-.8.3-.3-.1-.3-.4-.5-.6-.3-.6-.7-1.2-.7-1.9v-1.1c0-.4-.3-.8-.5-1-.8.9-1.4,1.7-2.2,2.7.6-1.8,1.3-6,.8-7.8h-.6c-.5,1.9-.9,3-1.6,4.6h-.6c-.8-1.8-2-11.3-2.5-14.1,4.1-6.8,10.9-15.1,15.8-22.9-4.6,3-13.3,13.1-17.2,17.9l-2.9,2.5c-.7-.4-.5-.1-.9-1.3-.7.5-4.5,7.6-6.4,10v-20.4c0-.4-.5-.4-.5,0-.4,7.9-1.2,18.5-1.2,19.7l-.6.5c0-2.2.4-6.5-.3-8.2-1.2,2.4.2,6.5-1.8,10l-.6-.4c-.8-2.6-.6-7.1-.8-10v.2c-1.1,2.3-.7,6.4-1.1,8.5,0,0-.6.3-1.2.9,1.7,4.2,1.7,2.3,1.7,7.1-1.7-2.5-2.3-6.1-3.8-9.3,0-3.3.4-4.1,1.4-7.2-.7.9-1.4,1.6-2.2,2.4l-.8-.2-.6-1.3-1.1-1.9h-.5c.7,2.8,1.8,6.8,1.6,9.7l-.8.9-.7-.5c-.4-1.7-.5-2.5-.7-4.3-1.6.5-2.9,1-4.5,1.5-.6,0-.9-.5-1.4-1,.6-14.8,5.3-28.4,4.4-40.6-1.5,6.8-3.4,19.5-4.1,26.3l-.4.2c-.5-2.2-.7-3.8-1-6-1.5,2.6,0,7.2-1.5,9.5-.3-3.8-1.4-8.6-1.9-12.6l-.9-2.7-.6-.2c-.4,3.1,2.3,13,2,16.4-.1,1.6-2.2,4.6-2.8,7.5-1-2.3-.6-14.3-.6-18-1.7,5.4-2.8,10.5-3.1,16.3-.2,1.1-.4,2.9-.7,3.9-1.4,2.3-.8,1.8-2.7,2.3-1.6-.6-2-.7-3.4-1.7,0,0-1-2-1-2.1h-.8c-1.3-.5-4.2-2.7-5.6-3.6,1.3-2.4,2.3-4.9,3.4-7.4,2.3-4.5,2.6-2.5,1.6-8.7,0-1.5-.2-2.6-.4-3.9l-.2-1.4c-.3-2.7-1.3-11.4-2.3-13.6-6.1,9.9-10.2,18.3-14.6,29.5-.9,2.3.2,8.4-4.2,9.2-.9-2.9.3-4.5,2-6.6-.7-1.8.2-6.3.5-8.7-1.6,2.7-2,5.3-3.6,8.2l-1.1-.3-.4-1.5c-2.4-.6-3-4.3-3.5-6.8-.6-5.8.7-19.6.2-27.4-1,3.8-1.4,11.3-2.8,13.4-.2-3-.6-6.4-.9-9.5,0-2.4.6-10.2,0-11.8-1.2,1.3-2.2,5.6-2.8,7.7-1-6.7-1.2-16.7-1.2-23.4-.9-5.1,0-11.5-.9-13.5l-1,.2c-.2,5.9,1.8,32.8.6,37-1.9.4-1.6-.3-3.7-1.4v-.9c1-7.4,1.6-12.2,2.1-19.7-1,1.8-1.7,3.6-3.2,4.8l-.7-.3c-.4-1.2-.2-11.3-.4-14.3-1.4,6.7-1.3,12.2-2.8,18.6-3.2,3.9-5.7,7.5-8.2,12.1-1.3-2.4.9-7.6-.4-11.6-.9,2.2-1.9,7-2.3,9.5v2.2c-2-5,.4-29.5-.2-37.3-.5-7.9-1.5-14.8-2.6-22.7-1.1-7.5-.9-16-3.1-23.3-1.6,15,2.9,30.3,3.7,44.1.7,10.5,0,27.3,0,38.8v1.1c0,3.1.2,8.8-1.3,11.2h-.8c-.3-.7-.8-1.6-1.1-2.3l-.9.4c1.5,4.6,1.3,5.8,1.1,10.7-.8-1.1-3.2-4.3-4.1-4.9-3.1-4.3-5.2-11.4-7.2-16.8-.8-2.6-4.1-14.5-4.9-16.2l-.7-.2c-.7,1.6.4,3.3,0,4-1.4,2.5-7.7,13-9,14.5-.6-.9-.6-1.5-.6-2.9-1.5.8-1.8,3.9-1.8,5.8-.9,3.7-2.1,5.1-3.6,8.4-1.7-1.3-3-8.4-4.2-10.8-.4-.9-2.9-3.3-3.7-4.1l-.4.2c.7,2.1,1.1,2.6,2.2,4.4-.3,3.6-.4,6.4-3,8.6l-.6,2.6v.2c-1.2,4-1.5,14.7-3.3,16.2-1-1.5-2.5-11.8-2.7-14.2-.2-1.8-1.9-10.3-2.4-13.8-1.3,1.6-1.1,9.5,0,11.3v2c0,2.1.2,4.5,0,6.3.5,2.2,1.4,6,.8,8.2-1-1.5-1.5-4.4-2.1-6.5-1.7.4-2.3,1-3.7.4-1-2.7-2.2-5.8-2.4-8.8l-1.1-1.1-.8,1c-1.8-3.7-.4-17-1.2-20.2-1.2,1.7-3,20.6-3,24-2.8-5.5-2.8-16.8-4.6-22-.5,1.5-.5,5.3-.5,7.2,1.5,2.4,1.9,19.9,1.5,23.8-1.1-2.1-2.7-20.7-3.1-24.6-1.5-4.9-4.6-9.4-4.6-14.4.7-6.7,5.2-43.1,4.4-45.8-.9,2.4-5.5,25.9-5.8,28.8,0,5.6-.6,10.8-2.1,16.1l-.3-16.3c0-2.9-.7-6.3-.9-9.6,0-4.4-.4-34-1-36.2-.3-6.5-2.2-20.1-4.8-25.6,0,11.2-1.6,32,3.4,40.6.2,4.2.9,13.1.4,16.7-.9-3.8-2.2-7.4-3.9-10.7-1-3.7-4.5-10.2-7.4-12.4,2,4.6,4.1,9.1,6.2,13.6,2.2,5.4,4.7,21.3,5.8,27.3,1.2,6.4,4.4,43.4,2.4,47.3l-.8.4c-2.1-1.3-2.6-1.8-3.1-4.6.4-1.4-2.8-38.5-3.3-43.2-2.4,17.5,3.6,27.8-.4,45.7l.5,1.1v1.1c-.3,1.3-1.2,4.6-1.2,4.9-5-4.7-5.8-10.2-8.1-16.7l-.4.3-.4,4.5-.5.3.5-1.1-1,.8c-2.7-2.2-5-3.6-7.9-5.4h-.2c-6.9-2.9-11.2-12.5-16.1-13.2-.2,3.2,12.4,12.8,15,14.8,3.2,3,4,2.6,6.3,6.9v.9l-2-.2c1.5,3.9,10.4,10.1,10,16.7-.9,1-1.5,1.2-2.7,1.8l.2.5c2.1,1,5.2,2.4,4,6-5,1.6-5.6,3.5-6.4,9.4-7.3-14.6-5.8-23.3-10.9-38.3,0,10.6,2.5,18.8,3.4,29.1l-.5.6c-3.1,0-4.6-.3-5-4.2h-.3c-1.6,1.7-1.7,3.4-2.3,5.9l-.7.5-2.2-1.5-.2-.5-1.8-.5c-1.2-2.5.4-8.9,0-10-1.7,3.7-1.7,7.1-3.1,8.9l-.7-.3c-1.4-2.2-3.9-3-6.2-5.2l-.2-.2-.3.8c.1.2.2.3.3.5s.3.5.5.7c.2,0,.2.2.2.2.8,1,1.8,1.7,2.5,2.5.2,0,.2.2.2.2.5.5.9,1.1,1.1,1.8v.2c-.2.4-.2.8-.2,1.1v.5c0,.3-.2.5-.2.8v.2c0,.2-.2.4-.4.6v.3c-1.4,3.2-1.2,4.9-3.4,7.2h-.9c-.6-3.9,2-7.7.6-11.7-.5,1.2-.8,2-1.5,3.2h-1.2c-2.3-2.7-1.1-2.1-2.6-5l-.2-.3c-.3,2.6-.4,5.5-1.2,7.8h-.6c-.7-1.8-1.1-2.6-1.6-4.3h-.5l-.7,1.7c-1.1-2.2-1.5-3.4-1.1-5.8,1.3-1.7,4.1-2.3,6.2-3.3.7-.8,1.3-1.5,2-2.2l-.2-.7c-3.5.7-3.5,2.5-8.9,2.8,0-2.8.5-11.4,0-13.6-1.1,1.3-1,8.8-2.5,12h-.5l-.5-3.2-.6.3c-.2,1.7-.2,2.6-.2,4.3-2,1.4-4.1,0-5.6,1.3,1.7.6,3.8,1.1,4.7,2.7-.7,4-3.1,8.6-5.9,10.8-1.6-3.3-2.4-5.6-2.4-9.5s0-2.2-.4-3l.3-.9c-.9,1.3-2.5,6.5-3.2,8.5-4.8-9.2-1.1-42.6-2.6-57.2-2.3,10.1-1.3,35-1.5,47.4-1.6,1.9-5.1,5.5-5.5,7.7h-.7c-.5-2.8-.5-3.4-.2-6.2,1.5-2.1,3.3-7.1,4.4-9.8-2.2,1.2-5.1,7.1-6.2,9.8-.7-1.2-2-2.4-2.9-3.3v1c.6,4.5.9,5.5-1.6,9.6-.2.2-.4.4-.4.6-2.3-5.8-2.2-13.2-4.1-20.3-.6-2.4-1.3-5.9-2.4-7.9-.7,2.5,2,9.6,1.5,15.4-1.3-1.9-1.6-3.3-2.1-4.3-4.7-8.1-1.3-16.9-2.3-23.3-2.3,2.2-1.2,7.8-2,9.6-2.6-2.8-5.4-23.2-7.6-27.4-1.1,8,7.5,33.3,10.1,41.2,1.4,4.3,5.6,8.8,3,13v.2l1.3-.3c1.3,2.4-.2,3.2,1.3,5.9-1.8.9-1.2.4-2.3,2.7-1.9-3.7-2-3.6-.6-7.6-1.1,1.4-.9,1.4-2.2,1.8-2.6-3.1-2.6-11.9-2.6-16.3-.7,2.1-.2,4.4-1.2,6.6-1.4-3.5-3.7-17.7-4.2-18.5-.3,7,0,8.5,1.6,15.2v.2c1.9,3.5,1.7,8.9,1.3,12.9l-.6.8-1.2-.8c-2.2-1.7-.7.4-2.9,0-1.6-1.5-2.1-2-4-3.1,1.4,3.6,4.4,4.3,3.7,8.7-1.3,0-1.2-.3-2.4-1.4.4,4,.5,7.7.9,11.2-3.7-4.6-3.4-14.8-4.4-21.4h-.5c-1.2,4.6-.1,12.1.3,17.1v.2l-.4.9c-1.4-1-2.6-4.4-3.7-6.3,0,3.6,1.1,5.3.5,8.3-.5,0-.9,0-1.2-.3-1.1-.6-1.2-2.2-2.4-4v-.4c-1.7-6-1.8-8.6-2-14.8l-.8.6c-.9,4.9.9,15.9-.9,18.2-.5-.6-.8-1.2-1-1.7v-2.7c-1.7-3.9-.9-7.2-1.7-11.7l-.9-2.9c-1.5-1.5-1.2-1-3.3-1.3,1.1,5.6,5.4,22,1.8,25.9h-.7l-1-1.9c-.8.3-1,.8-1.5,1.7-.8-.8-.6-.4-.8-1.7l-1.1-.7c-.6,1.1-.9,2-1.6,3-.8-2-.9-3.7-1.6-5.8l-.9-.9c-.9,1.1-1,2.7-1.9,2.7s-.4,0-.6-.2c-.1-3.7,1.8-2.6.6-9.1v-1.3c-.9,1.7,0,4.8-3,7.2h-.7c-.4-1.6-.4-3.2-.4-4.8,0-2.2.3-3.2-.2-5.3-.9,2.3-1.6,7.4-1.9,10.1l-.6-1.1-.9.3c-.4,1.3-.4.7-.4,2.1l-.7,3.7-1.6-2.7-.6.5c-.6-2.2-.2-1.5-1.7-2.9-.5-2,.9-2.8.9-6-.8.7-1.3,1.3-2.2,1.9l-.4-1.2-.8.3-.4-.3c-.5-3.3,1.9-4,3.3-6.4l-.6-1.1v-1.6c-.6.5-2.4,2.7-3.2,3.5-.8-.7-1.4-3.6-2.6-5.7-.2,3.1-.2,6.4-.2,9.5-1.1,1.5-2.2,3.2-3.7,4.1-.4-3.9,0-6.2.3-10,.6-1.9.8-8.5.8-10.9l-1.6,2.9c-.4,1.8-1.2,5.3-1.4,7-.5,3.1-.6,3.9-1.7,6.7-.3,2.2-2.2,4.1-3.4,6.4l-2.1-5.1-.5.3c-1.2-1.1-1.3-2.5-1.9-4.5-.2,1.9-.2,4.2-1.3,5.4-1-1.1-1-2.7-1.4-4.7,0,0-.4-.3-.8-.6.3-1.9.7-3,2.1-4.3.4-3.2,2.5-5.2,3-7.7l-.4-.3c-3.4,3.3-4.8,8.8-6.1,11.1-4.9-5.6-2.6-7.5-9.4-9.8-1.3-1.8-.7-3.2-1.1-6.1h-.5c-.2,2.5,0,5.3-2.2,4.7-3-.8-5.4-1-8.3-.2-11.3,3.1-4.4-20-1.8-25.3,1.4-2.9,2.5-5.1,3.9-7.5,1.1-1,3.7-6.7,4.5-8.5-1.9,2.1-4.3,5.4-6.2,7.7-4,5.6-9.2,16.7-11.4,23.7-.9-2,.2-16.2,0-21.3-1.2,3.6-3.2,19.6-3.2,23.6,0,3.1-.5,4.2-1.5,7-1-1.8-.5-5.8-.7-8.1-1.5-15.5-.2-32.6,2.5-48h.2c1-4.4,7-20.8,5.7-22.9-1.4,1.3-6.3,18.9-7,22.1-.6,2.6-2.6,9.6-2.8,12-1.5-3-.6-23.6-1.5-28.8-2.1-2.9-1.6-10-4.7-14.3h-.8c-.2,1.1-.4,1.5,0,2.8,2,6.2.5,16,1.1,22.7,0,.4,1.4,2.9,2.3,4.4l.6,1.1c.8,5.1,1.8,14.8,1.5,19.9.3,4.1-.2,14.5.9,17.1,0,4.2.7,15.7-.7,18.6-.4.3-.9.7-1.3.9l-1.7-3.2.3-.5c.3-.5.4-1,.6-1.4v-.2c.3-.7.3-1.3.3-1.9v-1.2c0-.5-.3-1.1-.3-1.8l-1.6,7.5c-.9-2.2-1.9-4.6-2.7-6.9-.5-1.6.4-2.9,1.2-4.7l-.3-.6c-2.7,1.9-4,6.6-7.6,6.4-1.4-2.1-1-2.8-1.4-5.8l-.7-1c-1.9,1.8-2.4,11.7-4.1,16.5-2.9.5-7.3,2.5-8.5,2.3-.6-.8-2.4-5.9-2.4-6.9,1.9-4.5,1.7-10.2,4.8-14,1-1.2,1.2-1.9,1.2-3.3-3.7-.7-4.7,11.3-6.9,12.8-1.5-.8-2-2.6-2.7-4.5-.4-1.5-.8-3.4-1.6-4.7-.7,2.3.6,9.3,1.1,12,.5,1.5.5,2.4.5,4.2l-.5,1.1c-.7-.6-1-1-1.7-1,.3,2.3.7,4.2.7,6.5-1.8-.2-2.4-4-2.4-5.8-.2-.2-.2-.3-.2-.5v-.2c-.2-.7-.4-1.3-.7-1.7v-.3c0,0-.2-.2-.2-.2v4.6c.2.8.2,1.5.2,2.2v2.6c-.1.9-.2,1.6-.4,2.4-2.8.8-2.1,2.7-2.1,6.1-.4.1-1.1-.2-1.6-.2-4.8-5.9,3.6-42.2,1.5-49.2l-.6.2c-1.2,4.8-4,36.1-3.4,40-.4,1.5,0,1.4-1,2.2-1.2-.9-1.6-3.8-2.6-5.8v-.2c-.8-3.7-1.3-3.8-2.4-7-.5-1.2.3-6.4-.7-7.9-1.4,1.8-2.9,14.7-2.9,17.4v1.1c-1.6,2.1-3.5,4.6-5.8,3.7-3.6-4.8,7.8-67.7,9.5-77.6,0,0,1.1-1.1,1.1-1.3l1.1-1.9c1.6-2.3,6.8-6.7,7.6-10.1-3.1.8-6,4.9-8,8.2l-.4.6-.4.2-.3-.5c.8-6.1,2.1-11.7,3.2-17.7l-.8-.2c-1.2,2.1-1.2,3.7-1.5,6.3-.4,1.4-1.1,4.2-1.7,5.4l-1.3,1.4,1.2,1.9c-3.3,16.8-5.6,34.3-8.3,51.2-.8,5.3-2.8,24.8-4,28.4-5-1.5-4.4-6.3-6.1-9.8-.4.4-.6,1-.9,1.6-1.5-.2-5.3-4.8-6.7-6.4.2-1.9.6-3.6.9-5.4l-.8-.2c.3-.8.6-1.7.9-2.7-1.7,2.4-1.6,5.4-3.7,7.7-3.4,0-4.6.7-8,1.9-.5-3,1.5-19.7,1.9-23.8.1-1,1.2-3.5,1.7-4.5,2.1-3.4,6.7-13.3,8.2-17.1-3.3,3.6-6.3,9.4-8.8,13.9-1.5.2-.2-1.4-1.5-2.5-.7,2-1,2.8-1.2,5-1.5,6.6-1.3,7.4-4.1,13.4-3,6-6.3,14.2-5.9,21.4l-.2,1c-1.6-1.3-1.1-2.4-2.4-4.8,0,0,1.1-3,1.1-3.4.3-1.4.6-2.8,1-4.2.3-1.4.7-2.7,1.3-3.9.2-.5.6-.9.8-1.4.3-.6.4-1.5.7-2.2.3-.9.8-1.8.8-2.8,0-.9,0-2-.5-2.8-.3.4-.5.9-.5,1.4-1,4.7-3.5,8.7-5.8,12.6,0,.2-.3.4-.5.4-.2,0-.2-.2-.2-.4-.6-2.1-.6-4.4-.6-6.6,0-2.2.4-4.4.6-6.6.3-3.4.3-7,0-10.4-.2-3.1-.6-6.3-.4-9.4,1.1-16.3,2.6-32,7.2-47.4.7-2.4,1.4-4.7,2.3-7,1-2.4,4.4-6.6,3.2-9.2-3.8,3.3-11.9,26.7-12.3,33.1l-.6-.5c-1-2.2.3-35.6.6-40.2,2.2-3.5,3.5-22.1,4.3-27.8-.3-.8-.6-1.1-1.3-1.6.9-3.3,3.3-13.9,3.1-16.9h-1.3c-.5-1.5,2.1-10,1.9-15.5l-1.7-.5-.6.2c-1.4,1.3-1.2,3.2-2,4.8-2,4.4-3.1,9.5-2.9,14.6-3.3,2.3-.5,3.5-2,6.1l-1.4-.8c-2.4,4.5,3.4,11,1.8,15.4-.7-1.5-1.4-3-2-4.6h-.5c-.6,2.2-.2,4.2-.2,6.5,1.8,10.1-4.1,19.8,0,28.2,1,4.5.6,15.2.4,20.2v2.5c0,7.8.3,27-.4,29.3-.9-1.7-1.1-2-1.1-4.1-.3-3.9-2.9-14.4-3.9-18.8-.4-2.6-4.5-20-5.5-21.6-1.1,1.3,3.4,21.5,4.6,26.8l.2.9c2.3,10,8.5,49.5,5.4,58.2-1.1-2.1-1.7-3.5-3.5-4.2-1.3.5-1.9,2.3-2.7,3.8,0-3-3.5-32.1-4.1-32.8l-.6,1.6c.2,3.5.6,21.4-1.1,23.5l-.2-1v-.2c-.4-.7-1.7-2.7-1.7-2.5-.3-1.1-1.4-3.6-2.4-6.2.9,4.1-2.9,10.4-4,14.3-.3-1.9-.3-4.9,0-7.6v-1c.2-1.4.5-2.6.9-3.5.7-1.7.9-3.2,2.1-3.9h0v-.3c.2.2.3.4.5.7-1.1-3.2-1.9-6.4-1-7.4.3-5.3,1.1-9.8,1.3-15.6-1.8,3-5.4,11.4-5.4,15.5v.2c-1.4,1.2-2.4,24.3-2.2,27.2,0,1.1-.2,1.6-.4,2.6h-.6c-1.2-2.6-3.2-11.6-4.2-15.2-.5-2.3-1.1-5.6-2.1-7.5-.9,1.6,0,3-.9,3.9-1.1-2.6-2.5-9-3.5-9.9-1.3,2.7,3.4,15.8.7,19.4l-.4-1.4-.5.6c.2,2.7,1.4,10.6,1.4,11.9v.4c1.1,4.4,1.3,9.6.8,14.1l-.5.4-.2-.5-.2,2.8c-1.2-.8-1.5-1.2-2.5-2.3-.5-2.1-.7-3.5.8-4.8h0c0,.1,0,.1,0,.1.2.1.3.3.5.4-.5-1.7-.8-3.5-.8-5.2l-.6-1.6c-.1,0-.4.2-.4.3-.2,0-.2.2-.2.2-.2.2-.2.3-.2.5v.3c-.2.7-.4,1.5-.6,2.4v.8c0,.6-.3,1.2-.5,1.8-.2.2-.2.3-.2.4v.2c-.2.2-.2.3-.2.4-.2,0-.2.2-.2.3-.6.9-1.4,1.7-2.5,2.1-1.8-.9-1.8-1.2-3-3.4v-.2l-.9,1.4c-3,0-5.1-7.5-4.7-10.5.2-1.2,1.5-3.4,2.3-5.5v-.4c.2-.2.2-.3.2-.5,0-.4.3-.8.3-1.1v-.9c-.3.2-.5.3-.7.6-.2,0-.2.2-.2.2-.6.9-1,2.1-1.6,3.1-.2.1-.2.3-.2.3-.3.4-.5.7-.9,1h-.2c0,.1-1.2-.7-1.2-.7v.2c-.2.4-.2.6-.2.9v1.9c0,.5-.1,1-.4,1.8l-1.1.5c-.2-1.8-.3-5.8-1.1-7.1-.9.8-1,2-1.3,3.3-3.1-3.9-3.9-4.7-5.1-9.9-.4,6.3,1.6,20.9.4,25.4l-.8.4c-2-4.7-3.9-9.5-5.8-14.3.4-1.9.7-3.4.4-5.3l-.6.2c-1.4,2.6-1.5,3.8-1.9,6.9-.4.9-2.9,9.9-3.9,12.2v.6c-.3,2.9-.5,7.9-2.6,9.1l-.7-.6c0-2.8,2.7-6.5,2.4-8.7-1.5,1.2-2.7,4.7-3.6,6.7l-2.5-9.5-1.1,2.3c.3,1.9.8,3.7-.2,5.3l-1-.5c-1-1.9-1.4-2.5-2-4.6l-.3-4.1c-.6-4.3-.7-7-1-11.1-.4-5.8.8-23.2-1.1-27.5,0,0-.4-1.2-.4-1.1h-.7c-.7,2.5,0,12.1,0,15.3.2,7.4,1.1,14.3,0,21.6,0,.1.8-.2.8,1.5s.3,2.3-.4,3.3c-1.2-.7-1.6-1.3-2.6-2.5-.4,4.1,5.2,8.4,2.9,11.7-4.1.9-4.5-2.6-8-4.6-.3-.1-1.1-2.4-1.7-3.1-.4,1.4-.4,3.2-.4,4.7-.3,3-.4,6-1.7,8.6l.5,1.4c-.3,2.6-.3,5-1.8,6.7h-1.2c-1.8-1.7-1.2-1.1-2.1-3.9-1.5-1.2-.8-.9-2.8-.7-1.4-1-1.4-2-2.1-4.2l1.5-4.2c0-.4.6-1.6,1.1-2.9.2-.5.3-1,.5-1.4.2-.5.4-.9.4-1.1h.4c2.1.2,5.4.8,7.2,1.6,0-1.5,0-3.3.4-4.7l-.9.2-.2,2.3c-1.8.1-4.4-1.2-6.2-1.2,0-2.2,3.9-5.9,4.9-7.9-2.1,1.3-4.7,5.2-6.3,7.4-3.9-3.5-7.5-5.1-12.3-5.8-1.8-.3-3.6,0-5.2-.9l1-3.2-1-2.5c-.7,2.9-.9,4.3-2.6,6.5h-1.2c-1.8-3.4-.2-11,.6-14.6l-1.1-2.5c-.2,1.5-.3,3.5-1.3,4.4-1.5-2.2-1.7-15.1-2.5-19.1l-.6.3c-.8,5.4,1.3,21.9.9,30.3-1.2,1.9-.8,5.6-2.4,8.5v.4c-1.3,3.1-2.1,3.6-1.9,5.4v.7c0,.4.3.7.3,1.2-.3,1-.5,1.5-.8,2.1,0,.2-.3.5-.5.9-.2-.4-.4-1.4-.4-2.5v-2.4l-.6-.6-.7,1.5-1.1.4c-.9-2.8-2.6-8.5-1.3-11.1,1.5-.9,1.2-1.1,2.6-.9l.6-1.7v-1.5c-.7.3-1.3.6-2,.9-.2,0-.4.3-.6.3-.2,0-.3.2-.5.2l-.4-.9c.3-2.1.3-2.5-.5-4.4l-.3.4c-3,3.8-7.2,6.8-8.5,8.9l-.8,1.6c-.4.3-.7.3-1.2.3.8-4.9,1.3-20.7-.7-28.8h-.3c-.8,5.7-1.3,8.6-2.8,14.1-.7,3.7-.9,12.8-3.8,13.7-1.4-9.4-.1-11.1,1.8-19.5,1.9-8,9-37.2,9.2-45l-.4-.2c-1.7,3.4-4.1,20-4.9,20.6l-1.4-3c-.4.4-2.8,29.4-5.1,32.2,0,0-1.1,2.7-1.1,3-.3-.9-.3-5.6-.3-6.9-.2-3.5.5-11.2.7-15.1-.2-.1-.2-.3-.2-.3-.2-.4-.2-.7-.2-1v-1c-.2-1.6-1.9-9.3-2.3-11.4-1,2.5,2.8,23.9-2.3,37.3l1.2-.5c.8,1.4.3,6.2.3,8.5-.9.3-.6.2-1.7-.5.2-2.6.2-5.1.2-7.6l-.9.9c-.9-.5-1.4-2.4-2.7-4.1-.2-.9-.6-6.9-.6-8.5-.3.6-.5,1.2-.7,1.9-.2.2-.2.4-.2.6v.2c-.5,1.7-.7,3.1-1.1,3.9-2.1-3.1-1.3-10.3-1.7-15.3-.2,2.8-.4,10-2.2,11.6-.7-1-3.6-11.7-4.6-14.5h-.6l-.5,1.3c.8,1.8,1.8,4.3,1.8,6.3l.2.4c1.7,4,3.6,14,3,18.6-1.9-2.8-2.2-5.8-3.9-9.2h-.6l-.4,2.6v.3h-.5c-.2-.2-.5-.4-.8-.7-1.9-1.6-4.7-4.6-5.7-4.8-2.4,4-1.8,18.5-4.6,22.1-3-.6-5.8-5.9-5.5-9.6,1.1-2.1,1.7-2.3,3.9-2.9-1.9-.6-3-.8-4.9-1.1l-.7-2.1h-.5l-.2,3.1c-1,1-.6.7-2,.7-2.4-2.4-2.5-14.1-5.2-16.1-.1,4.3,2.6,13,1.1,15.9-2.2,1-3,.5-4.3,1.1-.7-1.8-1.4-15.1-2.3-19.6-.8,6.8.2,15.9-.8,21.8v.6l-.4-.3c-1.7-1.7-2.8-4.2-4.2-4.8-.1,2.3,1.3,5.5,1.3,6.5,0,1.9-3.7,9-4.9,11.3h-.2c-.3-6.4,0-12.8,0-19.2v-2.4c1.4-2.6,1-23,.8-27.2-1.5,1.4-1.6,3.8-1.9,6.1-2.2,16.3-.2,26.3-.7,42.1h-.4c-3-7.6-6.4-16.4-12.1-21.2-.4-1.4-.7-2.8-.7-4.2l-.7-.9-.4,2.3c-1.6,0-4.5-2.3-6.1-3.4,4.3,5.8,7.1,6.9,7.8,15,.4,4.3,1.9,9.5,2.6,13.7-1.6,1.4-5.2-.2-6.5-1.9-.4-.7-.4-10.7-.4-12.4h-.5c-1.3,3.3-.8,7.6-2.1,10.2-1.8.5-13-7.6-15.6-9.2,4.2,6.6,17.9,10.9,15.1,17.5-2.4.4-5.5-4-8.2-4.6-2.8-1-4.6-1.7-6.4-1.7h-.9c-.6,0-1.3.2-2,.5-.1,0-.4,0-.4,0-.5.2-1.1.4-1.7.7,2.1,0,2.5-.3,4.1.9,1.4,2.8,1.1,6-.9,8.3-1.2-.3-3.3-1.1-4.3-.6,1.7,3.6,1.9,3.8,1.9,8,0,0-.2,3.7-.2,3.8h-.6c-1.6-2.4-4.9-11.1-5-11.7-.3,3.3,0,7.5-2,9.9-.2,1.4-.3,2.7-.5,4-1.4-2.3-.4-6.4-1.3-10.5-.9,1.7-1.4,3.6-1.9,5.6h-.7c-2.8-.7-3.6-6-3.6-8.9-.4,1.8-.3,2.6-1.4,3.4l-.8-.8-1.4-2.8c0,0-.3-.2-.3-.2-.1-.1-.2-.1-.2-.2h-.2c-.1,0-.2-.2-.2-.2,0,0-.1-.1-.1-.2h0c-.2.7-.4,1.3-.6,1.8,0-1,0-2,0-2.9,0-.4-.3-.7-.3-1.1v-.2c0-.4,0-.9-.3-1.4-.1-.2-.2-.4-.2-.6,0-.3-.2-.5-.3-.8-.1-.2-.2-.3-.2-.4-.9-1.8-1.2-.9-1.8-3.8-1.1-3.4-2.2-13.5-3.7-15.7l-.4.4c0,2.1.5,5.7.7,7.9-.9-1.3-1.7-2.6-2.6-3.9-2.8-4.2-4.1-2.7-8.2-3.2-2.1-2.7,1.4-5.7,1.4-9.4l-.8-.2c-2.1,1.5-2.6,13.1-8.9,12.6-1.4-.2-1.9,1-3.8,0-.1-1.6,3.6-18.5,4.3-20,3-1.2,8.7,4.3,12.5,4.8v-.6c-4.4-4-7.1-5.8-12.2-8,5.3-4.3,19.6-15.2,23.4-20-6.2,3.1-13.2,8.4-19,12.6-5.1,3.7-4.6,7.8-9,8.8l-.6-.7c-.6-2.6,0-9.1.2-12.3l-.4.2c-1.9,5.6-2.3,11.1-4,15.8l-.2.4-1.7,1.2-.2.2c-.4.4-.5.7-.7.9,0,.1-.2.1-.2.1-.2,0-.4.2-.7.2h-.2c-1.9-3.9.6-6.1.6-9.2l-1.2-.3c-.9-1.5-1-8.6-1.2-11.2-1.2,2.2-1.1,10.5-1.1,13.8-.9,1.5-2.1,3.7-3.1,4.9-.4-9,3-20.4,3.2-31.1-3.9-3.5-8.6,4-10.6,7.7,0-2.8-.3-14.5-1.7-16.1-2,5.5-.2,18.6-.2,24.7s-1.7,4.6-1.8,7.8c-.2,2.2-.2,8.6-.7,10-2.3-.9-.5-2.5-4.9-5.1.3,1.5.7,3.3,0,4.6-.9-1-3.4-20.2-4.3-23.7-.4,9.8,1.3,22,.7,29.8l-.5.5c-1.8-1.3-1.9-3.2-2.5-5.8-1.8,1-.7,3.1-3.5.7-.7-.2-3.3-.7-3.6-1.4-3.5-8.6-5.3-17.7-9.1-26.2-10.6-1.9-12.2-1.3-22.7.2,7.7,1.2,13,1.5,20.8,1.5,2.9,6.7,5.6,16,7.9,23.3-1-.4-1.9-.8-2.9-1.1-9-2.9-12-1.2-19.5,4.1-1.1,1-2.2,1.7-2.5,3,1.4,0,2.2-.7,3.4-1.6,3.7-2.6,10.2-6.1,14.2-3.9,3.1,1.7,7.1,1.5,8.2,3.8,1.9,4,4.2,16.6,5.8,19.9.3.7,2.3,7.8,2.3,8-4.2,0-7.6-12-11.2-14.7l-.4.6,1,2.4.7.7c-.3,2.8-1.3,2-1.4,4.2,1,1.5,1.4,2.3,2.1,4-2.3,3.2-29.2,2.3-37.6,11.4,7.8-2.2,18.2-5.3,26.2-6.2-.5,2.3-5.5,8-5.4,10.5,2.7-2.9,5-8.2,7.6-9.8,1.3,4.1,4,10.1,2.7,14.1-1,1.4-1.3,1.4-2.8,1.7-1.1-.7-.9-.7-1.7-2.2-2.3,2.1,1.1,4.4-4.3,5.6-1.4-1.6-1.5-6-3.5-7.1-.6,1-.7,3.6-.8,5h-.5c-.8-1.3-2.3-3.7-3.2-4.7.3,1.6,1.2,6.1.8,7.3l-1.5-2c-.6.5-.6.7-.9,1.5-3.9-.6-13.4-10.3-14.8-10.6,2.4,4.1,5.3,6,5.2,10.4-1.7,3.5-2.9,3.6-4.1,7.2,0,.6-.4.9-.8,1.4-.8-1.1-.4-4.9-.4-6.8l-.5-.6-2.3,4c-.4-2-.9-5.7-1.7-7.2v-.3c-.5-1.7-.7-3.6-1.6-4.9l-.6.7v.7c0,1.5.2,2.7-.5,3.8-.3-1-.7-2-1.4-2.6,0,2.4.4,6.6,0,8.8l-.9-.7c-1.7-4.7-1.5-10.7-1.4-15.7.2-6.2,1.1-12,1.6-18.1.2-2.3.8-6.2-.3-8.3-1.7,5.8-2.4,14.7-2.4,20.7s.6,19-.4,21.1c-.8-.9-.6-1.4-.8-3.2l-.5-.4-1.3.9c-.1,2.9-.3,3.4-1.4,5.9-.8-3.2-.6-3.8-3.3-4,0-.8-.3-1.6-.3-2.4-.2-2.1.3-3,1.3-4.6-1.1-.3-.7,0-1.6-1.2-2.1-.6-.3,1.5-3.1,2-2.7-3.1,1.8-4.2.7-9.7-2.4-2.6-6.4.4-8.3-.6,3.7-5.5,13.9-3.9,14.9-8.6-1.8-3-9.8-.6-12.9-3.3,1-2,4.7-6.6,3.8-8.6-7.7,2-4.7-4.3-8.7-2.6-5.8,9.3,7.5,18.5-2.5,22.7-1.4.6-3.4.6-4.7-.4-1.5-4.3,3.7-8.7,1.2-14.7-3.1-2.9-4.1,1.4-7.1,1-.8-2.1.4-8.7,1.5-10.3,3.9-5.4,12.5-6.4,17.9-7.7-6.9-2.2-11.5-3.7-17.5,1.8.4-9.1,1.8-9.6,5.3-17.4,1-2.4,2.3-5.1,1.7-7.8l-1.3-.6c-1.8.2-2.8,2.2-4.9,3.4l-1.5-1.1c-2.8,1,0,3.3-.9,5.5-1.3-.1-1.9-.4-3.1-1l-.6.5c-.4,2.1,0,3.7.2,5.8l.3.7c.3.8.7,1.8,1,2.3,5.7,9.3-1.1,12.7-6.1,17.9-5-6.7,5-10.3,4.3-15.8l-.3-.6c-.2-.3-.5-.6-.8-.8-.2-.1-.5-.3-.8-.4-.2,0-.3-.2-.5-.2,0,0-.3,0-.3,0h-.3c-.2,0-.3.2-.4.3-.3.3-.6.6-.9.8-.2.2-.4.4-.7.4h-.9c-3.3-6.9,3-16.2,3-25.7l-.4-.7c-1.8.6-2.8,3.3-4.6,4.9-1.1-2-.9-2.3-2.5-3l-1.2.6c-.4,1.1-.7,2.3-1.1,3.4-1.4.2-5.5-3.7-7.1-5,1.2,2.6,5.1,9.1,4.1,11.1-3.2,6.8-2.2,8,4.1,13.5-1.9.1-4.5,0-6,1.3-.8,1.5-.7.9-.7,2.7,9.7,3.6,7.5-3,11.4,9.7.9,1.5.9,1,.6,2.5-.7.5-1,.8-1.6,1.1-.5-1.1-1-2.2-1.5-3.3-.3-.6-.6-1.1-.9-1.7s-.3-1.1-.6-1.5c-.1-.1-.1-.2-.1-.3,0,0-.2-.2-.2-.3h0c-.1,0-.2-.2-.2-.2-.8-.9-1.7-1.6-2.6-2.2-.2-.1-.3-.3-.5-.3,0,0-.3,0-.3,0-.3-.2-.5-.3-.8-.4-.2,0-.4-.3-.6-.3h.2c-.2,0-.3,0-.4,0h-.2c0-.1-.2-.1-.3-.1h-.3c0,0-.2,0-.3,0h-.2c-.6-.2-1.2-.3-1.8-.5-2.2,0-5.7,0-7.3,1.9.6,1.1,1.6,1.8,2.5,2.3,2.2,1.2,4.6,1.8,6.9,2.5,1.2.4,2.3.8,3.5,1.2.4.1.8.4,1.2.5.4.2.7,0,1,.2.7.6,1.4,1.3,2,2,.3.4.6.8.9,1.2.1,0,.2.2.2.2.9,1.2,2.2,2.6,2.2,4.1-1.9,1.2-7.5,2.6-10.1,2.1-2.5,1.8-5.6,3.4-5.4,7.5,2.1,1.6,8.1-2.3,11.1-3.1,2.2.8,4.5,1.2,5.7,3.4v1c-2,2.2-4,1.5-5.5,3.9-.3,6.9,11.3,3.8,4,14.4l-.9.4c-3.7-3-8.7-12.3-14.6-9.2.3,3.7,5.3,5.6,3.8,10.9l-3,2.9c-2.1-2-2.2-6.9-3.5-7.1-.1,3,1.3,5.9.4,8.8l-.8-1.5c-.5,0-.9.3-1.2.6-.8-1-1-1.4-1.7-2.6l-.4,2.6-.7.4c-2.6-2.9-1.6-8-2.4-10-.8,1.5-1.3,2.5-2.2,3.8-1.3-1.2-1.4-8.8-1.6-11.1-.7,4.6-.2,4.1-.2,8l-1.1,1.4c-1.1-1.1-1.6-1.7-2.5-3-.2,2-.3,7.5-.9,8.5-.7-1.4-1.4-2.5-1.6-4.2-.8-6.2,3-10.4,4.2-15.2-1.1.7-2.1,1.2-2.5,2.5-.8,2.1-2.1,3.9-3.2,5.8-.9-4.7-1.5-9.3-2.2-14-.3-1.8-.4-2.4-1.4-3.7-1.7,4.3,3.3,16.3.5,26v.3c-4.4-5.5-3.4-11-3.4-18.6-1.8,6.8-1.9,14.4.3,21l-.6.7-1.2-1c-.7.3-.8.4-1.6.4-.6-1.6-.2-4.8,0-6.7-.7-1-.4-1.7-1.4-2.5-.3,1.4-.5,2.6-.7,4l-.5-.2c-1.6-3.1-1.1-12-.8-15.6.5-3.3,3.7-7.2,3.7-8.7-2.5,2-2.9,2.6-4.7,5.5,0-3.8,1.3-16.8.2-18.7-1.2,8.3-1.2,11-1.2,19.7-.7-1.5-1.7-4.5-2.8-5-.8,3.5,5.1,25.2.3,30.7l-.6.3c-1-2.6-3.2-5.5-4.8-7.7-.2,2.2,1,4.1,1.9,6l-.4.5c-1-1.3-1.5-1.8-2.3-2.5.6,1.1,1.6,3.5,1.8,4,0,1.9,0,2.8-1,4.2-1.7.4-1,.5-2.6-.5-2.5-3.8-2-6.3-.2-10.3l-.6-1c-.1-.9-.1-1.5,0-2,.2-.7.6-1.2,1.3-2.5l.4-1.3-.6-.5c-2.2,1.2-2.6,1.7-4.2,3.8-.3,1.4-.1,2.9-.4,4.3,0,.4-.9,3.9-1.2,3.9h-.8c-.6-1-1.2-2.1-1.9-3.1-.3-.3-.5-.7-.7-1-1.9.9-1.8,4.2-3.9,4.8h-.3l-.7-1.4-1,.8v.2c-.3,2.5-2.1,5.6-3.8,6.8-.2-1.9,1.9-9,2.8-10.4.6-3.6,1.3-6.8,1.3-10.5l-.3-.4c-1.7,1.8-1.6,7.7-2.8,11.1l-.2,1.2c-.6,2.8-1.4,5.6-3.9,5.6-1.1-.8-1.6-2.3-2.2-3.7.7-2,1.1-2.8,2.1-4.6-1.4.6-1.6,1-2.9.6l-.6-2c-.4-2.8-.5-6.7-.5-9.6,3.4-.9,20.2-7.3,22.6-9.2-2.9-1.2-19.8,6-23.2,7.9.2-1.9.6-9.8,1.6-11,2.2-2.5,16.3-5,17.7-6.8-1.6-.2-5.3-.4-5.9-.7-4.8-2.3-8.1-6.4-13.5-7.5-5.6-2.7-8.6-2.4-14.6-1.6,3.2-5.5,6.8-11.2,9-17.3-4.6,5.3-7.8,11.5-11.7,17.7-.2.4-2.4,1-2.8,1.6l-.4.2c-1.5.6-2.4,1.1-3.4,1.1-.3-.1-.7-.2-1.2-.4,1.3-2,1.9-3.9,3.1-6,2.6-4.6,5.6-7,9.2-10-.3-.4-1-1.1-1.4-1.4-1.6,1.3-3.4,2.9-5,4-1.6-1.1-2.6-6.2-5-6-1.6,0-2.9.4-4.6.4l-.7-1c-.2-2.1,2.8-9.8,3.8-11.7l-1-2.4c-2.5,5.3-5.4,12.7-6.3,18.8-1.7,1-2.8,1.8-4.6,2.5-.2-.2-.5-.5-.6-.8,0,0,0-.1,0-.1v-.7c.6-3.5.8-7.4,2.4-9.9,2.1-5.2,17.2-37.9,20-39.6,4-.3,12.9,6,17.9,8-7.6-7.1-10.9-11.4-20.5-10-4.1,5.9-16.2,35-17.8,36.1-.2-2.9-.8-10.9-1.3-13.5l-.5.3c-1.1,6.2-.4,14.2-1.6,21.2-1.2,2.3-2.4,9.3-4,10.3-.2-1-.2-1.7-.6-2.6-.9,1-1.2,1.6-1.9,2.8-.3-1.9,1.3-6.1,1-8.2-.9.2-2.6,2.4-3.4,3.3-.2-7.5.5-16.3.4-24.4-1.3,5.8-1.9,9.4-2.4,15.3-.4-.2-.7-.3-1-.4h-.2c-.2,0-.3-.2-.5-.2h-.4l-.7-.2c0-1.8.5-6.9,0-8.6l-.8.5c-.5,3-.8,4.4-.8,7.5-.3,0-.5.2-.8.3-.8.3-1.8.7-2.5.8-1.1-9.2,1-31.4-1.3-38.7-2,1.2-1.7,23.9-2.2,27.7-.2,2.1-1,4.2-1.6,6.1-.7,1.4-.9,1.7-1.9,2.8-.2-.2-.4-.4-.6-.7,0-8.2,1-18.3.8-26.3-2.4,8-3.1,17.4-3.5,25.9-1.9-2.9-3.9-6.8-5.6-9.9,0-1.8.2-3.9-.7-5.2-1.3.5-1.1.8-2,2.6-.3,1.8-.3,3.5-1.4,4.9-3.5-3.3-2.6-9.5-3.2-14.3-.5-3.9-1.2-7.8-1.4-11.7,0-1.6.4-2.7-.2-3.9-1.3,4.1-.9,4.7-3.9,6.2l-.4.2c-.6,3.2-1.4,5.6-2.1,8.6l-.6.2c-1.6-5.9-1.1-19-3-22.2h-.3c-.1,2.4.4,8.2.5,11.1.7,12.8.7,34.1,3.6,46.2.2,3.6,2.5,10.3,1.1,12.4-2.1-1.1-1.5-2.6-2.4-3.7-3.6-4.6-.3-19.1-2.4-22.5-.9,3.3-1.6,5.4-1.6,8.9-1.7-2.3-1.9-7.3-3.7-10.6l-.4.3c.3,5.7.9,11.4,1.2,17.1-4.9-6.6-4.9-6.9-8.9-13.6h-.4c.6,4.4,2.2,8.1,2.8,12.3l.2.2c.2,1.8.6,3.4,0,5.1-.7,0-1.1-.3-1.8-.5v2.8c-1.9-1.2-5.4-18.5-6.9-22.6,0-4.2-3.7-16.2-6.4-19.4-2.6-3-3.7-1.3-6.4-2.8-.9-.5-1.4-3.9-2.5-4.2.3,1.6.5,2.4.7,4-1.2,1.7-16.3,7.4-18.8,12.8.5,0,16.8-9.5,19.6-10.5,1.5,7.1,7.2,24,10.5,30.4,1.4,4,4.2,11,4.7,15-1.6.2-1.4-1.9-2.6-.9.7,4.3,2.8,8.5,3.8,12.9-1.4-1.6-5.3-6.3-6.2-8-2.3-4.2-4.8-16.1-9.5-16.9l-.3.4c2.8,4.9,3.3,6.5,5.3,11.8-1.5.2-2.5-.8-3.7-1.9-2.3-1.7-3.7-2.8-5.8-4.8l-.6,1.7c2.4,4,13.8,26.1,13.8,29.6l-.5,1c-4.3-1.6-3.7-3-8.8-3.9l-.2,1.2c1.3,1.2,2.6,2,3,3.6-.9.9-.5.7-1.5.9-.6-.9-2.5-1.5-3.9-3.1-4.3-2.7-7-3.8-11.6-5l-1.5-.4c-2,.5-3.8.9-5.7,1.8,3,1.6,3.2,3.6,3.2,6.7v9.5c-2-2.4-6.1-7.4-8.4-8.9.2,2.6,6.1,8.9,5.7,13.8-.8-.7-4.5-5.5-5.2-6.6-1.3-1.6-2.7-3.3-4-5-1.3-1.8-2.6-3.5-3.6-5.2l-.9-.6c-.2,1.6,5,9.9,5.9,10.3,1,1.9,2.4,3.8,1.5,5.9v.5c-.6,2.5-1.2,6-2.3,7.5-1-.3-1.4-.7-1.9-1.3.1.9,0,1.9-.2,2.7-1,1.2-1.1,1.4-2.4,1.8-.6-.8-.6-1-.6-2.1-1.5,0-1.3.6-2.3.4l.3-4.8c.8-1,1.6-3.2,2.2-4.9-.6-1.5-1.2-2.8-1.7-3.3-1.4,3.9-1.8,4.7-4.3,7.6-.5.9-1,1.8-1.5,2.7l-.6-.3c-.8-2.5-.3-8,.3-10.6,1.5-3.6,3.3-15,4.2-19.6.7-3.1,1.6-6.4,1.6-9.5h-.5c-1.3,2.1-1.5,4.1-2.1,6.6v.5c-.3,1.6-1,5.8-1.8,7.1l-1.2,5.1-.4.2c-.4-1.5-.4-2.3-.4-3.9-.1-2.6,0-21.7-.6-22.9-.3-4-1.8-8.7-2.8-12.5,0,4.4-.8,14.5.4,17.4.7,3.7,1.6,5.5,1.3,9.2v.2c1.1,4.3.8,18,.3,22.5,0-.4-.2-.7-.2-1.1-.6-2.5-1.5-5.7-1.5-7.9-2.2-6.8-1.4-6.9-5.8-12.5l-.6.2c.5,1.2,2.9,7.4,2.9,7.9-.3,6.2-2.3,12.1-2.7,18.5l-.5.4c-.5-1-.5-1.5-.5-2.7l-.6-1.2v-3.1c.3-3.6-.3-9.2-2.2-12.2v.9c0,2.1,0,3.4-.3,5.7-.9-1.9-.5-4.6-1.8-7.4-1,2.3,0,10.3.3,13.4.3,1.3.6,2.5,1,3.8l.5.2v10.8c-1.3-1.5-2.3-5.1-3-7.1-.9-2.5.2-3.4,0-5.8-1.7.8-2.7,5.3-4.3,6.2-.4-1.3-.2-2.8-.2-4.1v-4.6c-.3.2-.3.4-.3.6s-.2.3-.2.4c-1.6,8.4.8,4.3-4.2,11.5-.2-1.6-.8-6.3-1.6-7.3-.2,0-.5.3-.5.4-.4.3-.7.5-1.4.7l-.3-1c.3-.9.9-2.1,1.1-3v-1c-.5.6-1.3,1.4-1.8,1.9l-.6-.3.3-.6c1.3-5.7,3.3-11.1,6-16-1.4,1.1-2.5,2.6-3.5,4.2-.9,1.4-1.7,2.9-2.4,4.5-.3.8-.6,1.5-.9,2.3-.1.4-.3.7-.4,1.1,0,.4-.3.7-.4,1.1,0,.3-.1.3-.3.4,0,.1-.3.3-.3.3l-.3-.3c0-1.5.4-3.1.5-4.6v-2.3c0-.2-.2-.7-.2-.9,0,.4-.4.7-.6,1-.2.2-.2.1-.4.9s-.5,1.6-.7,2.4c-.2.8-.5,1.7-.7,2.5-.2.7-.3,1.6-.6,2.3l-1.8,4.7-.9-2.3c-.4-.2-.7-.4-1-.4-.2,0-.4,0-.6,0-.5,0-.8,0-1.1,0h-.1c-.3.2-.5.6-.8,1,0,.1-.2.2-.2.3h-.3c-.3,0-.6.3-.9.3-.3-.1-.2,0-.5-.6-.3-.6-.6-1.2-.7-1.9v-1.1c0-.4-.3-.8-.5-1-.8.8-1.4,1.6-2.2,2.6.7-1.8,1.4-6,.9-7.8h-.6c-.5,1.9-.9,3-1.6,4.6h-.6c-.8-1.8-2-11.3-2.5-14.1,4.1-6.8,10.9-15.1,15.8-22.9-4.6,3-13.3,13.1-17.2,17.9l-2.9,2.5c-.8-.4-.6-.1-1-1.3-.7.5-3.7,7.8-5.5,10.1v118.9l1400-.2v-122.2s-7.1-4.4-14-5ZM2.2,212.1c-.9-4.6-1.4-6.2,1.1-10,.5,3.5.8,7.2-1.1,10ZM10.8,198.3l-.7.9c0-1.1-.9-3.5-1.3-4.7.4-2,.6-1.9,1.9-3.5h0c.2,2.6.5,4.7,0,7.3ZM58,197.9c3.2,2.4,1.7,12.1-.2,15.7-2.8-4-.8-11.1.2-15.7ZM61.3,218.7l-.7.3c-1.4-1.9-1.5-3.4-.6-5.8l1.1-.5c1.4,1.5,1.1,4.3.2,6ZM68.1,214l.2.2h0c-.2,0-.2-.2-.2-.2ZM91.6,203.8l-1-.4c-.9-1.8-1.3-11.5-1.3-14h0c4,1.7,2.9,10,2.3,14.4ZM103,203.9c-.4,2.1-.5,3.5-1.8,4.9l-1.4.4c-.9.9-1.3,1.3-2.3,2-.3-.2-.7-.3-1.1-.4-.4,0-.7-.2-1-.4-1.3-.5-1.5-.8-2.5-2-.2-2.3-.2-1.6.9-4,1.8-4.6,7.4-6.6,9.4-.5h-.2c.5.3.8.5,1.1.7-.3-.2-.7-.4-1.1-.7ZM108,200c-6.7-.5-5-5.2-14,.4-.8-3.3-2-7,0-9.7,3.1-1.3,9.6,5,13.6,6.9h0v.2h.3l.5,1.5-.4.7ZM107.7,169.9c2.3.7,1.8.7,3.6,2.8,3.7,3.1,3.8,5.9,5,11-3.3-4.5-5.8-8.8-8.6-13.8ZM118.9,180.9c2,1.6,4,4.9,3.8,8.1-2.2-1-3.8-5.3-3.8-8.1ZM125.4,197.2c-2.4-1.7-2.8-5.2-2.4-8.3,2.6,1.8,2.4,5.1,2.4,8.3ZM134.7,168.8l-.4.4c-1.5-2.1-3.1-7.6-4.3-10.6v-1.8c1.8.7,2,3.2,3.5,4.2,1.2,2.3,1.3,5.2,1.2,7.8ZM141.6,176.1c-1-2.1-.9-3.3-.9-5.8h0c1.4,1.1,1.9,5,2.1,6.9l-1.2-1.1ZM143.6,154.7v-.2h0c0-.1,0-.1,0-.1,0,.1,0,.2,0,.3ZM147.5,149.9v-.2c0-.2,0-.5,0-.7v-.6c-.1-.8-.3-1.8-.3-2.9v-.4c-.1-1.1-.2-2.3-.2-3.6v-3.3c-.1-3.8-.2-7.5-.3-9.9-1.6,3-1.6,18.5-1.6,24.3v.9l-.2-.8-.4-2.2c-2-10.5-1.7-13.3-.1-24.7l1-3.1h0s-.4-.2-.4-.2l2.4-5.5c1.4,7.1,3,17.8,3.8,25.1-.6,2.2-2.4,6.7-3.4,8.7,0-.2-.2-.5-.2-.9ZM150.6,161.7c-1.6-4.4-1.8-6.9.6-11,.8,3.1,1,8.3-.6,11ZM170.3,167.1c-2.8-4.1-2.4-8.3.4-12l.4.6c0,3.4.8,9.1-.8,11.4ZM178.2,165.3c-.6-1.4-.6-2-.8-3.6.2-.8.5-1.9.7-2.7v.2h.5l.3,1.8c0,1.3,0,3.4-.7,4.3ZM180.4,163.7h-.6c-.2-.8-.5-1.7-.6-2.5,0-2.9-.4-6.7.4-9.3.4-1.2,1.5-1.3,2.6-1.7,0,3.8,0,10.5-1.8,13.5ZM188.1,189l-.7-.6c-.6-3.4,1.3-13.1,3.1-15.8l.5.8c0,2.9-1.9,13.1-2.9,15.6ZM198.2,162.2v6.1c0,.2-.2.5-.2.7l-.2.9c-.4,1.3-.7,2.5-1,3.6,0,.2-.2.4-.2.7-.1.2-.2.5-.2.8v1h0v.4c-1.5,2.7-1.4.5-2.9,4.5l-.3-.5c0-2.7.9-3.6,2.4-5.7-.9-.4-1.1-.5-2-1.1-.2-2.6.3-7.1,1.7-9.3,1.9,0,2.1-2.5,3.9-2.5l-1,.4ZM203,161c1.3-5.7,9.5-4.5,7.3,3.6h0c-3.6,2.6-6,7.9-8.9,11.4-1-2.8.9-11.7,1.7-15ZM209.4,177.2h-.1l2.9-.7c-1.6,2.8-3.8,7.4-5.6,9.3-.4-2.1,1.6-7.1,2.8-8.6ZM215.5,175.8c1.5-1.8,4.3-2.1,7.1-2.1h0c0,.1,2.1.1,2.1.1,1.1,0,2.1.2,3,.2h.7c2.3.3,4.2.8,5.8,1.4,0,0,.3.2.4.2,1.9.8,3.5,1.9,5.3,3.5,0,0,.3.2.4.3,0,0,.1.1.1.2h0l.2.2.2.2c.7.5,1.3,1.2,2,1.9l-.3-.2-.7,1.4-6.9,1.9-.5-.4.3-1.6c-1.6.7-2.3,2.7-3,2.9-3.9.9-16,7.8-19.1,8,.3-4.4,11.5-11.6,14.7-16.5l-.4-.4c-1.8,1.1-3.2,1.8-5.1,2.6-5,2.1-9.5,5.7-13.8,9.4,2.6-4.3,5.2-8.7,7.4-13.2ZM216,203.6c-.9.1-1.4.2-2.3,0-.4-1-.9-1.5-1.4-2h0c-1.1-.8-1.8-1-.7-4.4h0c1.7,1.2,4.5,3,5,5.5l-.5.9ZM219.3,201.5l-.4-1.1c-.3-.8-.5-1.7-.8-2.6l-2.5-1-.2-.6c3.3-3.6,5.6-3.9,9.8-5.4h1.2c-.4,2.1-5.6,10.3-7.1,10.7ZM226.3,215.1c-1.6-3.7-3.7-6.3-2.1-9.9,1.8,2.9,3.8,6.2,2.1,9.9ZM223.6,202.6l-.6-.7c0-3.1,5.8-11,7.9-12.8l.6.6c-.5,3.6-.7,7.1-.9,10.7-2.3.6-4.7,1.4-7,2.2ZM330.1,176.3h0v1.9c0,2.7-.2,4-1.7,6-1.3-4.1-.5-4.7,1.6-7.9ZM340.9,211c-1.6-1.7-3-2.2-4.2-4.3l.8-1.5h0c2.2,0,2.6,0,4.1,1.7.3,2.5.3,1.5-.7,4.1ZM422.2,214c-.7-2.4-1.2-5.9-2.5-7.9-.5-.7-1-1-1.4-1.8-.2-.3-.7-2.6-.9-2.7h-.9c-.9,1-1,1.2-1.4,2.7v.4c-.4-2.5-3.8-7-4.2-10.2,1.9-1.7,6.2-1,8.6-.8-.5-.8-.7-1.2-.7-1.7,0,.4.2.8.7,1.7,0,1.7.2,3.3.5,4.7v.4c.6,2.6,1.5,5,2.2,7.5.3,1.3.3,2.7.3,4s-.5,2.9-.3,3.7ZM422.8,165.2h0c1.8,1.6,3.9,4,3.7,6.7-.3,3.1.7,6.7.7,9.1-1.8-1.6-4.6-12.8-4.4-15.8ZM439.5,177c-.9-1.1-.8-1.6-1.2-2.9-1.5-5.6-2-6.4-.9-12.3,1.6,1,5,12,2.1,15.2ZM450.2,143.7c-2.1,2.9-3.3,10.3-4.1,14.2-1.3-13.5-2.4-19.9,6.7-29.4.1,5.4-.8,8.5-1,13.6-.4,7.1-1.7,19-3.7,25.7-2.4-7.1,2.4-17.5,2.1-24.1ZM450.6,191.4h-.9c-.7-2.6-.4-6.8.3-9.4,2.7,2.3,1.5,6.2.6,9.4ZM451.3,171.4c-.6-3.3.2-6.1.8-9.3,1.2,2.5,1.1,7.4-.8,9.3ZM454.6,184.3l-.8-.6c-.5-2,.2-10.6.8-12.5.7,1.6,0,3.8,1,5.2.6,4.1.8,4.4-1,7.9ZM454.6,165.7c-.8-2.1.2-5.8.7-7.9,1.8,2.3.3,5.5-.7,7.9ZM457.5,175.6c-.3-4.3-.9-10.5,2.1-13.6h0c0,0,.9,0,.9,0-.4,3.1-.8,11.9-3,13.5ZM465,169.3l.2-1.1.3-1.3h.1l.9-1h.6c-.1,1.6-2.2,10-3,10.8.2-2.7.2-4.8.9-7.4ZM465,188.5c-.2.5-.4,1.1-.6,1.7h-.4c-1,.2-.2.2-1-.4,0-2,1.2-4.7,1.9-6.6h0c.7,1.9.7,3.3,0,5.3ZM467.6,189.3c-.9-1.1-.6-6.7-.6-8.6l.2-.3c1.4-.7,4.3-2.5,5.5-2.1h0c.8,2.6-2.9,10.3-5,11ZM487.2,205.5c-1-2.4.6-5.9.4-7.4-2.3,2.1-2.8,6.8-3.3,10.1-.8,1.4-.9,1.8-2.1,2.8h-.3c-.5-2.5-.7-3.6-2.2-5.5,0,0-.3.2-.3.3h-.2c-.4,4.3.9,7.4,0,10.4l-.7-2.8-.7-.3-1.5,1.4c-2.3-6,2.4-8.2-.2-15.8.4-.9,3.3-2.4,4.7-3.7-1.5-.2-6.1,2.3-8.5,2.8l-.2-.5,1.4-2-1.1-.8c.2-2.7,2.9-5,5-5.3,4.5-.5,5.9.6,9.4,3.9h0c1.1,2,1.2,2.4,1.4,4.8.6,3,.6,4.8-.8,7.6ZM492.3,208.2l-1.2-2.5-.5.3v2.1l-.2,2.1c-2.6-3.8.7-8.4-.6-13.4,0-.3.3-1.1.5-1.5l1.2,1c1.2,2,2.3,10.4.8,11.9ZM487.5,191.1c-8.8-8.9-9-2-14-3.6-1.5-3.1,1.3-8.3,3.5-10,5.8-4.7,8.7,3,11.6,7.9h0l.4.8c2,3.8,2.6,5.6,4.1,10.1-1.7-1.6-3.9-3.9-5.7-5.2ZM526.6,210.9c-2.2-2.2-3.1-3.2-4.2-6.5h0c0,0,.3,0,.3,0,2.2,1.1,2.5,2.5,4.3,4.8l-.4,1.8ZM523.1,197.1c-.9-1.6-.9-4.5-.9-6.6h.1c2.5,1.3,9.3,3.2,9.3,6.9-2.8.6-6.1,1.5-8.5-.3ZM540.7,207.8c-.5-.2-.9-.7-1.3-1.2-.9-1.4-.9-2.9-.9-4.4,2,1.3,2.6,3,2.2,5.6ZM548,197.7v4.5c-.7-1.9-3-5.8-4.3-7.1.6,2.1,1.4,4.1,1.4,6.3l-.5.5c-2.4-1.2-3-2.6-3.8-5.4h-.6c-.3,1.2-.5,1.7-1,2.9-1-2.1-1.2-2.6-1.2-5,.6-1.8,1.9-2.4,3.5-2.4l.2.4h.6c.2,0,.3,0,.5,0,2.2.7,4.3,2.6,5.2,5v.2ZM545.3,176c2.5,1.3,5.3,10.4,6.1,13.5-4.3-.6-5.6-8.9-6.1-13.5ZM568.2,196.4c-1.4-1.4-1.9-4.8-1.1-6.9h-.1l1.2-.3c0,2.2.4,5.1,0,7.2ZM570.3,185.6l-.3-.6c-.3-.5-.5-1-.7-1.5-.3-.9-.7-1.9-1.1-2.8.8-1.9.5-1.9,1.8-2.9,1.7,1.4,1,5.7.3,7.8ZM575.6,184.1l-.6.8c-.9-2.3-2.2-4.9-.9-7.2l.8.5c.9,1.8.7,3.7.7,5.9ZM581.1,184.2l-.9,1.1c-.3-.7-.5-1.5-.7-2.3-.2-.8-.4-1.6-.6-2.3-.8-2.4-1.1-1.9-.8-4.3h0s.7-.6.7-.6c2.8,1.6,2.7,5.2,2.3,8.4ZM598.8,176.5c-.3,2.1-.8,5.6-2.4,6.8-.3,0-.6-.3-.6-.4-.4-.4-.4-.8-.8-2.1-.5-1.5-1.7-3.2-2.5-4.5-.1-3.8,0-7.4.3-11.2h0c0,0,0,0,0,0,1.4,1.7,3.1,3.6,4.6,5.3,1.5,2.6,1.8,2.8,1.3,6.2ZM605.4,179.8v-3.8h.1l.8.8c0,1.2.2,2.2-.9,3ZM611.7,183.6l-.5.3c-2.2-3-1-4-2.7-5.7-.7-1.7-1.9-5.3-1.4-7.2h0c2.4,0,4.2,5.7,4.8,8.2,0,1.8,0,2.6-.2,4.4ZM626,188.1c-.9-2.6,0-17.3.9-19.8,1.2,2.6.7,16.8-.9,19.8ZM633.7,191.6c-.8,1.1-1.1,1.7-2.3,1.9l-.3-.9c.5-3.3,1.6-5.5,2.9-8.3h-.1l1.6-1.7.7.2c0,2-1.8,6.5-2.5,8.8ZM636.8,197.2c-.6-1.7-.8-4.9,0-6.5h0c0-.1,0-.1,0-.1l.6.4c-.1,1.8-.3,4.7-.7,6.2ZM651.3,191.2h-.4c-.8,0-.6,0-1.5-1.1.6-3.5,1.1-7,1.7-10.6h0c0,0,0,0,0,0,.3,2.8.5,4.8,1.5,7.4-.3,1.6-.4,3.3-1.4,4.4ZM655.1,186l-1.2.4c0-2.5-.4-3.9.7-6.1,1.8.9.5,3.9.5,5.7ZM669.3,190.3c-1.1-1-2.2-1.8-3.4-2.6l-1.2-.8c1.6,3.2,2.7,4.2,2.4,7.8-2.5-.4-1.5-.6-3.9,1.1-.8-1.2-.5-1.8-.5-3.6s-.7-1.9-.9-2.5c-.4,3.9-2,7-3.6,10.4v-8.8c-.7-5-.6-7,0-12.1h.1c3.2.6,13.4,1.6,15.4,5-1.7,3.2-1.8,2.4-2.2,5.7l-.5,2.4c-1.6-.2,0-.4-1.7-2ZM688.2,198.5l-.9-.7c-.8-2-.4-5.7-.4-8.1,1.9,1.7,2.9,5.2,3.1,8l-1.8.8ZM711.8,194.2c-2.6-1-2.3-6.9-2.3-9.8.7-2.7,1.7-7.7,3.1-9.3h0s.9,2.4.9,2.4c.7,4.5,2.3,13.9-1.8,16.7ZM723.7,183.3c-1.3-7.1-1.3-8.5-1.6-15.9h.3s.4,0,.4,0l.4-.6c.7.8.9,1.3,1.5,2.2,0,.3.3.6.3.9v.3c.2.2.2.4.2.6v2.3c.6,3.4,0,6.5-1.5,10.2ZM751.5,163c-.8-2.4-.4-5.5-.4-8.1h0c1.4,1.3,1.6,7.2,1.6,9.2-.5-.2-.8-.6-1.2-1.1ZM762.4,189.6h-.6c-1.5-1.9-1.7-6.3-1.7-8.9,3.3,2.2,2.9,5.1,2.3,8.9ZM763.7,179.9c-1.8-2.3-2.3-3.2-3.6-6,.5-2.3.8-4.8,1.2-7.2h0c1.4,3.1,2.7,9.6,2.4,13.2ZM767.7,168.7l-.4.4-1.2-2c0-1.5-.4-2.9-.6-4.4l-.4-2.2c-1.1,1.8-.6,7.4-.6,9.9-2.5-4.2-3.7-8.3-.8-12.8.4-2.3.7-4,1.9-5.8h.6c.9,1.4.7,4,.7,5.9l.8,4.5c0,2,.2,4.5,0,6.5ZM778.7,181.6l-.8-.8c-1.5-5.6.3-6.8.8-10.7,1.3-1.3,1.4-1.8,2.8-1.6h0c0,0,.3.6.3.6l.9,2.2c-.9,3-1.3,9.1-4.1,10.3ZM788,188.1l-.8-.3c-1.5-2.2-.9-8.1-.7-11.1,2.2,3.9,2.5,5.2,2.7,10l-1.2,1.4ZM792.7,178.7c-1.7-4.6,1.8-14.8,3.9-18.7-.3,6.1-2.4,12.8-3.9,18.7ZM805.7,178.9l-.6-.8c-.2-3.6.6-4.1,2.5-6.1l1.1,2.1c-.9,2.1-1.4,4-3,4.8ZM817.8,186.9v1.6c-.1,1.7-.3,3.7-.9,4.8-1-.7-1-1.7-1.4-3.4l-1.6,1.2c-.6,2.1-.9,4.5-1.2,6.7,0,0-.4,0-.4-.1h.4v-.3c-2,1-2.5,1.8-4,3.6-1.9-3.8.2-9.2,2.8-11.9v-.2l-.2-1c-.9.7-1.1.9-2.2,1.1-1.4-2.8.8-8.7,1.2-13.4h0c0,0,.9-.3.9-.3,1,1,2.2,2.1,3,3.2l1.5.9c2.7,3.2,2.6,2.7,2.2,7.5ZM820.8,194h-.5c-.5-1.3-.6-1.9-.9-3.2v-3.4c0-1.7-.3-2.8.5-3.9h0c2.5.9,1.8,8.3.9,10.5ZM824.1,201.1l-.7-.4-.7-2.5c0-2.4-.2-8.2.5-10.4l.5.3c1.3,4.3-.5,7.6.7,10.6.1,1.1,0,1.3-.3,2.4ZM830.6,199.6l-.8-1.3c-.5-1.9-.4-2.3.2-4.3.8-.7,1.5-1.4,2.3-2,.5,1.6.5,2.1.7,3.8-.4,2.2-.4,3.8-2.4,3.8ZM845.9,198c.4-.4.8-.7,1.1-1.1-.3.4-.7.7-1.1,1.1ZM850.9,193.4c-.6-.9-.6-1.4-.6-2.8l.8-1.1c.2,1,.4,1.3.4,2.3,0,.4-.4,1.1-.6,1.6ZM1032,197.3c0-.3-.4-.5-.4-.8v-.2c-.2-.2-.4-.4-.4-.6s-.2-.2-.2-.3c-.2-.3-.5-.5-.8-.8-.2-.2-.7-.9-.9-1.2l.3-1.7c1.1-1.5,1.5-2.9,2.8-3.4.9,1.9.3,4.9,0,7,0,1,0,1.1-.4,2ZM1071.2,201.6l-.9.7c-.2-3.7,0-5.7,1.3-9l1.2-.5c.5,2.4-.7,6.7-1.6,8.8ZM1078.4,205h-1.6l-.9-1c-.7-2.4-.2-6.1,0-8.7h0c.4.3,1.1.9,1.5,1.2,1.2,2.8,1.7,5.2,1,8.5ZM1091.3,200.9c-3.5-3.2-4.9-3-3.8-8,3,1.2,4.1,4.2,3.8,8ZM1102.5,201.9v.3c0,.7-.3,1.2-.6,1.9l-.8-.2c-1.4-3.3,0-2.7-2-6.4.3-1.2.9-2.1,1.6-3,.7-.6,1.3-1.1,2-1.6l.5,2.3c-1,2.8-1,3.5-.7,6.7ZM1114.7,180.1l-.5.5c-1.1-1-1.1-1.2-1.7-2.6-.2-1.6-.3-3.1-.5-4.7h0l.6-.5c1.7,2.5,2.2,3.8,2,7.3ZM1121.8,178c-3.7-3.8-3.9-12-4.1-17.4v-.6c-1.3-6.3-1.2-10.4-.9-17,4.2,1.5,5.2,7.7,5.2,12.6v.6c0,6.4.8,16.9-.2,21.8ZM1127.8,166.9h0l.6-.5c.5,2.9.3,4.2,0,7.1-1.1-1.7-.9-4.6-.7-6.6ZM1129.9,187.2c-1.7-2.4-1.4-4.3-.4-7.1l.8,1.6c.3,2.5,0,3.1-.4,5.5ZM1155.2,171.8l-.5-.4c-1-4.2-.6-6.8-.6-11.1h0c1,1.1,1.5,2,1.7,3.2v.3c.1.7.3,1.6.3,2.7,0,2.3,0,3.3-.9,5.3ZM1157.7,163.8c-1.6-1.6-2.2-7.6-1.8-10.1,1.8,3.8,2.1,5.9,1.8,10.1ZM1164.7,174.9c-3.3-1.6-1.2-5.9-.2-9,.5,2.8,1,6.2.2,9ZM1170.4,176.2c-1.8-3.4-.8-4.8.2-8.5h0l.7.7c.5,2.2-.4,5.2-.9,7.8ZM1172.9,181.3c-1.6-2.8-1-5.5-.5-8.9h0c0,.1,1,1,1,1,.6,2.6.6,5.4-.5,7.9ZM1179,182.6c-1.3-2.5-1.7-4.6-.6-7.1,2.2,2,1.6,4.5.6,7.1ZM1182.1,165.9c-1.5-.2-1.1-.3-2.5-1.7-1,2.8.3,5-1,6.1-3.3-1.9-3.4-5.7-4.8-9.6-1.3,1.9,0,2.4-1,3.2-1.1-2-1.5-3.7-2.2-5.9-1,2.4-.2,6.7-1.5,9.6h-.9c-1-1.1-1.8-1.4-1.8-3.1-.2-3-.4-11,.9-13.4l.2-.7c2.8-3.3,6.2-11.5,8.2-13.7h.1s0,.3,0,.3h.9c1.5,2.2,2.9,8.2,3.8,11.3.7,2.2,1.7,4.4,1.7,6.7l-.6.4-4-2-.2.6c1.8,2.4,9.5,6.5,4.7,11.9ZM1195.9,169.7l-1.2-1.2c-.7-1.9-.3-3.3,0-5.3h0l.9.7c.8,1.5.2,3.9.2,5.8ZM1203.5,182l-.6-.3c-1.4-2.5-.4-6.4,0-9.4h0c.4.3.8.7,1.1,1.1.3,2.2-.3,6.2-.5,8.6ZM1208.2,148.8c-1.5,9-2.1,9.3-7.5,15.8,0-11.4,3.2-17.6,8.5-26.8.3,3.2-.4,7.7-1,11ZM1212.7,141.2v.7c-.4.7-.8,1.4-1.2,2-.8-1.4-.3-6.1-.3-8.3.9-1.7,1.2-2.2,2.4-3.5h0l.5.3c-.2,3.6-1.1,5.5-1.3,8.5l-.2.3ZM1213.2,156.5c.8-1.5.8-5.7,1-7.8h1.4c1.5-.1.4.4,2.4.9l.5,3c-.8,4.8-3.9,16.1-5.3,20.9,0-4.3-.4-12.8,0-17ZM1218,184l-.2.7-.5-.5c-.4-3.8-.4-5.8,1.3-8.9l1.3.6.4,1.2c-.1,2.4-1.4,4.7-2.3,6.9ZM1220.3,171.4c-.5-.2-1-.6-1.5-.9-.6-2-.1-4.4.2-6.5h0c0,0,.9,1,.9,1,.7,2.4.4,3.8.4,6.4ZM1245.7,186.1c-1.7-.4-1.9-.7-3.2-2.2,1.4-5.6,4.4-15.8,7-20.6h0l.8-1.4c1.6,1,1.9,4.3,2.3,6.5v.3c.1,1.6,1,4.7.8,6-.8,3.8-4.3,10.8-7.7,11.4ZM1277.8,199.3c-.3,2-.6,2.6-1,4.4h-1.5c-1.8-2-1.2-6,.3-8h0l.3.2c.6.6,1,1.1,1.4,1.6v.2c.2.2.4.5.4.9v.7ZM1296.6,212.1c-.8-4.6-1.3-6.2,1.2-10,.4,3.5.7,7.2-1.2,10ZM1305.3,198.3l-.7.9c-.1-1.1-.9-3.5-1.3-4.7.4-2,.6-1.9,1.9-3.5h0c.2,2.6.5,4.7,0,7.3ZM1352.5,197.9c3.4,2.4,1.9,12.1,0,15.7-3-4-1-11.1,0-15.7ZM1355.8,218.7l-.7.3c-1.4-1.9-1.5-3.4-.6-5.8h0l1-.5c1.4,1.5,1.1,4.3.2,6ZM1368.1,219.3c-1,1.2-1.1,1.4-2.4,1.8-.6-.8-.6-1-.6-2.1-1.5,0-1.3.6-2.3.4l.3-4.8c1-1.2,2-4.2,2.6-5.9h0c1.2,3.5,3.5,7.4,2.4,10.6ZM1387.4,190.9c2.3-.9,4.5,3.9,7.4,7-1.6-.1-3.7.4-7.4,2.7-.3-3.4.2-6.9,0-9.7ZM1386,203.8l-1-.4c-.8-1.8-1.2-11.5-1.2-14h0c3.9,1.9,2.8,10,2.2,14.4ZM1397.2,205.9c-.3,1-.8,2.2-1.5,2.9l-1.4.4c-.9.9-1.3,1.3-2.3,2-.3-.2-.7-.3-1.1-.4s-.7-.2-1-.4c-1.3-.5-1.5-.8-2.5-2-.2-2.3-.2-1.6.9-4,1.6-4,6.2-6.1,8.5-2.3.3.5.7,2.8.3,3.8Z" fill="#3aadaa"/>
</svg>
