<svg xmlns="http://www.w3.org/2000/svg" viewBox="0 0 1400 220">
	<path d="M1400,22.6s-9.3-1.4-7.1-3c-4.2-2.7,1.7-2.5-4.9-4.4,4.5-2.1-2.1-2,1.4-4.5-3-.2-2.2-8.1-4.1-10-1,11-9.4,15.5-9.2,27.5-6.4,3.4-2.2-5-5.6-7.2,0,5.8-4.3,9.5-2.8,13.5-3,1.1-4.7,2.6-2.8,5.7.6,3.6-2.6,1-2-1.2-3.9-1.7-3.8-1.9-.6-3.9-3.7-4.2-4.6-.7-2-6.2-7.8-3.9,1.7-1.2-4-4.9,1.4-2-1.9-8.7-2.5-12.6-3.3,7.6-1.2,14.6-8.7,18,4,7.2-5.3,8.2-6.8-4.5-3,1.7.7,10.4-4.5,8.4-4.9-2.7,0-6-6.5-7.8,2.2-2.3,3.6-3.7-.7-4.1.4-1.5,2.5-4.3-.9-4.1,2.8-2.6-2.1-3.4.2-5.9-2.8-15.4-3.2-1.1-4.7,2.7-3.1,1.1,3.3,4.9-1.5,3.6-1,1.2,1.3,1.2,1.3,2.1-3.1-.3-1.9.6-3.4,2.5-3.3-.5-2.5-14.1-5-2.5-2.8,1.1,2.5,2.4-1.8,2.7,2.6,5.9-3.1.6,0,6.5-7.6,3,.6,3.2-3.2,4.9,1.7,2-4.1,4.1-3.4,1.2-.6,1.3.2,1.2-1.3,1.6,1.5-7.2-3.4-1.4.7-7.7-2.8-.4-1.7-1.7.3-1.5.5-.3-2.8-2.1-2.7-2.2,2.7-5-3.2-6.5-3.7-15-.9,5.1-4.4,12.2-4.8,16.8-.2.8-1.6.1-1.5,1,4.9,3.6-2.6,1.8,2,4.8-4.9,1.7,2.8,3.4-3.9,2.9,0,1.5,3.3,4.7.6,4-4.7-1.1-5.5-20.5-8.3-10.6-1.7,2.6.2,8.1-2,7.3-.9.7,2,1.9,0,1.9-.7-1.5-1.1.9,0,1.9-.6,0-1.6,0-1.5.8-.4-2-4.6-.3-1.8-2.4-.5-2.7.3-5-3.3-7.2,1.5-.9-3.2-24.5-4.3-7-3.9,1.4-1.2,1.4-.8,3.7-3.7-.2,0,1.6-.6,2.9-5.1-.2,3.7,3.8-3.9,2.3,2.1,4-2.1,1.1,0,5.4-.6,1-.9.6-1.1,1.6,2.7,4.5-2,2.3-2.6-.7.9-3-4-.5-5.3-1.5,7.7-12.3-1.2-5.6.2-12.5-5.3,1,2.2-5.6-2.9-4.7,1.3-11.7-2.9-11.6-2.5,0-4.1-5.3-7.5,1-7.3,6.3-3.8-1.4-.6,1.3-.5,3-4.4,2-1.6,1.6-1,4.3-3.2-.7-.5,2.6-1.3,4.5-3-2-4.3,2.8-5.9-1.4,1.5-1.4-4-19.4-3.3-5.5-1.1,3-2.8,2.7-1.6,6-2.4-.3-8.1,4.6-5.9.7-2.8.7-2.1-8-4.7-12.6-1.9,3.8-.4,9.2-3,10,.9,5.7.5,1.2-2.8,3.4-2.9-1.2,1.6-3.7-3.9-3,0-4.5,1.6-2.8-2.3-4.3,3.8-5.8-2.9-1.5.5-6.9-3.2,0-1.1-8.7-3.7-9.6-1.3,15.6-8.9,18-11.2.9-1.6,4.5-4,9.3-3.4,13.9-4.7-1.6-1.2,8.5-5,10.7,2.4,2.2-2.4,1.5.5,1.9.3,2.3-5.7,1.2-3.9-1.5-2.9,1.1,0-2.6-3.1-.9-.6-.5,2-1.7,0-2.4,3.4-9.1-3.7-13-3-21.4-2.2,2.4-6.7,17-3.8,18.9-6.2-.4-1.5,4.8-4.1,7.1-3.9-21.4-3,2.5-7-11.8-.3,4.9-5.8,11.3-5.5,13.5-3.9-.6-1.4,3.4-.5,5.4-5.3,4.1-4.1-5.3-5.7-7.7-1.6,9.2-5.7,8.3-7.4-.8-2.9,5-2.4,16.1-7.1,12.9,2.8,2.6-1,1.6-2.6,1.9.8-.9,1.4-1.4,1-2.6-3.4,2-.4-3.4-3.5-8.9-.8,1.4-6.4,15.3-6.7,10.1-4.5-1.7-.8-6-4.4-4.7-1.8-1.3,1.5-4.5-2.5-3.1,1.1-4.3-.9-16.7-3.8-4.7-.3.7,1.5,2.8-.7,2.2-.4,1.7,1.9,4.1-1.6,2-4.3.7,3.7,6.7-1.6,4.7-1.7.6,1.3,2.3.5,2.5-2.6,0-.3,3.3,0,4.6-4.3,1-6.8.9-4.4,6.6-3.2-.2-1.2-2.9-5.3-2.6-2.4-.3,4.8-2.9-2-2.6,1.7-1.8,5.1-3.6.2-3.2,1.1-2.3-2.6-18.1-4.9-5,0,4.8-3.9,1.4-1,4-.8,2-3.1.6-3.7,2.2-1.2-.2,0-4.1-2-2.1-1.3-.9-.4-3.1-2.9-2.6,3.2-.7,3.5,1.1,2.7-2.4-2.5-.5-8.5-.7-2.7-2.2-4-1.3,2.4-3.5-2.3-2.9-.6-1.1,1.6-.7,1-1.6-2.3,0-.3-1.9-1-1.5-3.3-1.1,2-2.8-1.7-3.2,0-4.1.2-3.8-1.6-7.3-2.2,2,0,8.1-4.3,7.4.4,3.4,2.4,2.1,0,4.1,4,1.9-8.4,5.7-5.2.3-5.2-1.6.3-4.2-4.4-6.9,1.9-2.7-1.1-4.8-.4-8-3.7,0-.2,10.7-4.5,9.9,3.9,8-4.5.8,1.9,8.5-6.1-2.2-6.4,3.1-6.5,7.4-1-3.1-3-3.5-2.9,0-2.1-8.8-2.3,13.5-5.5,4.5-.5,1.4,1.9,4.3-2.4,3.4,4.6-5.6-5.3-.3-1.3-6.3-2.9,1.5-4-22.4-6.4-10.3-.2,3.3-2.4,8.6-6.9,8.1-1.9-7.8-4.9,3.3-2.5,5.4-3.3.7-.6,2.2-4.1,1.4,3.5-7.9-4.7,3.2-1.5-7.8-3.8,2-.7-3.7-.7-5.7-2.6.6-1.6-.2-1.9-2.5-2.3-9.7-3.8-12.1-4.2-.5-5.1,3.1-3.4,5.1-1.4,9.5-4.2-2.5-2.8,6.9-7.9-.3-.7,10.4-6.2-5.2-6.2-10.5-1.9,0-2.3,7.1-3.1,9.2-7.8,1.2-5.6,12.3-8.8-4.5-3.4,12-4.5,1.8-6.4-4.1-3,4.9-2.8,12.5-4.6,14.6.2,1.2,0,2.3-1.3,2.7,1,1.5,1.6,2.1-.6,1.5-1.1,2.3,3.5,4.4-1,4.7-4,6.3-7.5-10.8-2.8-9.4-9,0-3.2-16.2-11-18.9,2.4-2-1.5-2.3-2.1-3.4,2.9-5.4-1.7-1.2,1.2-4.8-5.3-3.9,0-3.5-3.8-8-2.1,4.4.9,6.3-2.5,7.6.6,1.5,2.5,1.3-.5,2.2,2,3.6.6,2.7-2.3,3.7.7,7.6-5.7,4.5,1.6,9.5-3.7,1.3-14.7,11.4-11.8.8-4-1-2-.8-1.2-4.4-4.3.6-1.9-10.8-4.6-12.9-3.1,7.2.4,11.6-4.8,15.1.6.4,0,4.1-1.6,4.8-.5-1.5.4-.5-.9-2.1-3.1.5-3.3,1.9-1.2-2.1-2.5-.6-1.8-7.1-3-10.8-2.9,12.7-3.9,3.7-9.1,3.7,2.4-3.8-.6-12.7-2.6-16.4-2.2,2.5,1.1,9.8-3.1,9.2,2,3.1,2.3,1.9-.9,2.8,3.2,3.9-3.4,2.2,2.8,5.4-4.5.4-6,4.7-5.1,7.5-5.5.7-1.5-10.4-8-7.6,1.6-2.8-.7-5.8-1.3-10.6-2.7-9.4-.4,8.5-3.7,6.9-1.1,1.7,1,2,.6,3.7-6.4,1.8,3.8,4-3.7,3.9-.9,2.7-2,.8-2,4.8-6-2.7.3-10.6-6.6-7.7,5.7-10.9-2.2-3.4-.8-8-.9-2-.3-5-2.1-7.7-1.6,3.5-.3,11.8-4.9,11.4-.5,4.8-2.5,5,.7,9.9-4.1-1.8-3.1,8.6-7.3,2.1,1.7-5.9-6.2,0-.3-6.7-3.4-4.6.7-8.3-3.4-7.5-.9-1.7,2-7.6-2-4.2-2.8-29.9-7.2,22.5-17.7,19.6,1.9-1.5,3.7-3.8,0-3.6,2.2-12-6.3-7.8-3.9-13.4-5.1-19.6-2.1-3.8-7.1,2.9-.3,1.3,2.2,1.3,1.2,2.6-4.6,1.9,1.7,3.6-3.7,2.6-3.4,9.2-6-20.9-7.2-10.4-2.1.9,1.3,2.6-1.3,2.7.2,6.6-3.8,5-.9,10.8-8.7,3.6-6.8-13.3-10.2-17.8-1.4,2.6-2.8,10.3-1.6,11.3-5,6.2-7.7-2.6-6.8-4.7-4.5-17.7-3.3,4.4-9.2,7.1-1-4.4-1.5-7.6-3.6-11-3.4.6,2.6-3.8-1.9-2.3-.8-1.4,1-1.2,1.2-3.5-3,.4-2.4-5.4-3.2-7.7-1.3-.1-1.6,5.5-2.1,6.7-2.1,0-.2,2.3-.5,3.7-3.5-2.1-2.1,3.4-4.5,4.6-4.8-.8,2.6-3.3-4.4-3.9,3.3-3.1-.8-3.6-1.3-6.4,1.1-1.1,1.5-2.4-.2-2.7-3.1-18.1-2.7,8.1-7.2,7.8,2.1,3.6-5.1,8.4-9.3,7.4,11-6.2-6.5-2.1,1-6.3.4-3.6-2.1-2.4-3.2-3.4,3.5-1.7,1.1-2.6-1.1-3.6,2.3-1.8.5-2,0-3.9-2.7-16.2-3.4,10.4-9.4-14.4-.5,3.8-3.1,10.3-4.7,13.2,6.2,5.1-3.7,1.4,1.4,5.6-1.8-.3-5-.2-2.5,2.1-1.2,1.2-4.3,0-2.2,2.5-.5,3.3-3.5,1.4-.3,6.9-2.8.7,0,2.3-2.9,3,2.8,4.2,0,1.3.2,4.5-6,1.7-4.2,1.3-3.1-2.5-5.3,1.6,1.6-2.3-1.9-2.3-.4-1,.8-1.5,1.1-2.5-5.3-2-3.4-19.5-5.8-8.7,0,2.5-2,4.8-3.5,5.3-.3-8.5-6-6.6-4.3-9-4.3-10.4-2.3-14.2-5.8,1.8-3.9-3-1.3,2.7-1.3,4.3-1.4-1.5-2.4-3.7-1.4-4.4-10.6-15.3-3.4-33.2-16.9,8.6-6.4,3.4-2.2-5-5.6-7.2,0,5.8-4.3,9.5-2.8,13.5-3,1.1-4.7,2.6-2.8,5.7.6,3.6-2.6,1-2-1.2-3.9-1.7-3.8-1.9-.6-3.9-3.7-4.2-4.6-.7-2-6.2-7.8-3.9,1.7-1.2-4-4.9,1-2-1.7-8.7-2.5-12.6-3.2,7.6-1.3,14.6-8.7,18,4,7.2-5.3,8.2-6.8-4.5-3,1.7.7,10.4-4.5,8.4-4.9-2.7,0-6-6.5-7.8,2.2-2.3,3.6-3.7-.7-4.1,0-1.5,2.6-4.3-.9-4.1,2.8-2.6-2.1-3.4.2-5.9-2.8-15.4-3.2-1.1-4.7,2.7-3.1,1.1,3.3,4.9-1.5,3.6-1,1.2,1.3,1.2,1.3,2.1-3.1-.3-1.9.6-3.4,2.5-3.3-.5-2.5-14.1-5-2.5-2.8,1.1,2.5,2.4-1.8,2.7,2.6,5.9-3.1.6,0,6.5-7.6,3,.6,3.2-3.2,4.9,1.7,2-4.1,4.1-3.4,1.2-.6,1.3.2,1.2-1.3,1.6,1.5-7.2-3.4-1.4.7-7.7-2.8-.4-1.7-1.7.3-1.5.5-.3-2.8-2.1-2.7-2.2,2.7-5-3.2-6.5-3.7-15-.9,5.1-4.4,12.2-4.8,16.8-.2.8-1.6.1-1.5,1,4.9,3.6-2.6,1.8,2,4.8-4.9,1.7,2.8,3.4-3.9,2.9,0,1.5,3.3,4.7.6,4-4.7-1.1-5.5-20.5-8.3-10.6-1.7,2.6.2,8.1-2,7.3-.9.7,2,1.9,0,1.9-.7-1.5-1.1.9,0,1.9-.6,0-1.6,0-1.5.8-.4-2-4.6-.3-1.8-2.4-.5-2.7.3-5-3.3-7.2,1.5-.9-3.2-24.5-4.3-7-3.9,1.4-1.2,1.4-.8,3.7-3.7-.2,0,1.6-.6,2.9-5.1-.2,3.7,3.8-3.9,2.3,2.1,4-2.1,1.1,0,5.4-.6,1-.9.6-1.1,1.6,2.7,4.5-2,2.3-2.6-.7.9-3-4-.5-5.3-1.5,7.7-12.3-1.2-5.6.2-12.5-5.3,1,2.2-5.6-2.9-4.7,1.3-11.7-2.9-11.6-2.5,0-4.1-5.3-7.5,1-7.3,6.3-3.8-1.4-.6,1.3-.5,3-4.4,2-1.6,1.6-1,4.3-3.2-.7-.5,2.6-1.3,4.5-3-2-4.3,2.8-5.9-1.4,1.5-1.4-4-19.4-3.3-5.5-1.1,3-2.8,2.7-1.6,6-2.4-.3-8.1,4.6-5.9.7-2.8.7-2.1-8-4.7-12.6-1.9,3.8-.4,9.2-3,10,.9,5.7.5,1.2-2.8,3.4-2.9-1.2,1.6-3.7-3.9-3,0-4.5,1.6-2.8-2.3-4.3,3.8-5.8-2.9-1.5.5-6.9-3.2,0-1.1-8.7-3.7-9.6-1.3,15.6-8.9,18-11.2.9-1.6,4.5-4,9.3-3.4,13.9-4.7-1.6-1.2,8.5-5,10.7,2.4,2.2-2.4,1.5.5,1.9.3,2.3-5.7,1.2-3.9-1.5-2.9,1.1-.1-2.6-3.1-.9-.6-.5,2-1.7,0-2.4,3.4-9.1-3.7-13-3-21.4-2.2,2.4-6.7,17-3.8,18.9-6.2-.4-1.5,4.8-4.1,7.1-3.9-21.4-3,2.5-7-11.8-.3,4.9-5.8,11.3-5.5,13.5-3.9-.6-1.4,3.4-.5,5.4-5.3,4.1-4.1-5.3-5.7-7.7-1.6,9.2-5.7,8.3-7.4-.8-2.9,5-2.4,16.1-7.1,12.9,2.8,2.6-1,1.6-2.6,1.9.8-.9,1.4-1.4,1-2.6-3.4,2-.4-3.4-3.5-8.9-.8,1.4-6.4,15.3-6.7,10.1-4.5-1.7-.8-6-4.4-4.7-1.8-1.3,1.5-4.5-2.5-3.1,1.1-4.3-.9-16.7-3.8-4.7-.3.7,1.5,2.8-.7,2.2-.4,1.7,1.9,4.1-1.6,2-4.3.7,3.7,6.7-1.6,4.7-1.7.6,1.3,2.3.5,2.5-2.6,0-.3,3.3-.1,4.6-4.3,1-6.8.9-4.4,6.6-3.2-.2-1.2-2.9-5.3-2.6-2.4-.3,4.8-2.9-2-2.6,1.7-1.8,5.1-3.6.2-3.2,1.1-2.3-2.6-18.1-4.9-5,0,4.8-3.9,1.4-1,4-.8,2-3.1.6-3.7,2.2-1.2-.2,0-4.1-2-2.1-1.3-.9-.4-3.1-2.9-2.6,3.2-.7,3.5,1.1,2.7-2.4-2.5-.5-8.5-.7-2.7-2.2-4-1.3,2.4-3.5-2.3-2.9-.6-1.1,1.6-.7,1-1.6-2.3,0-.3-1.9-1-1.5-3.3-1.1,2-2.8-1.7-3.2,0-4.1.2-3.8-1.6-7.3-2.2,2,.1,8.1-4.3,7.4.4,3.4,2.4,2.1-.1,4.1,4,1.9-8.4,5.7-5.2.3-5.2-1.6.3-4.2-4.4-6.9,1.9-2.7-1.1-4.8-.4-8-3.7,0-.2,10.7-4.5,9.9,3.9,8-4.5.8,1.9,8.5-6.1-2.2-6.4,3.1-6.5,7.4-1-3.1-3-3.5-2.9,0-2.1-8.8-2.3,13.5-5.5,4.5-.5,1.4,1.9,4.3-2.4,3.4,4.6-5.6-5.3-.3-1.3-6.3-2.9,1.5-4-22.4-6.4-10.3-.2,3.3-2.4,8.6-6.9,8.1-1.9-7.8-4.9,3.3-2.5,5.4-3.3.7-.6,2.2-4.1,1.4,3.5-7.9-4.7,3.2-1.5-7.8-3.8,2-.7-3.7-.7-5.7-2.6.6-1.6-.2-1.9-2.5-2.3-9.7-3.8-12.1-4.2-.5-5.1,3.1-3.4,5.1-1.4,9.5-4.2-2.5-2.8,6.9-7.9-.3-.7,10.4-6.2-5.2-6.2-10.5-1.9,0-2.3,7.1-3.1,9.2-7.8,1.2-5.6,12.3-8.8-4.5-3.4,12-4.5,1.8-6.4-4.1-3,4.9-2.8,12.5-4.6,14.6.2,1.2,0,2.3-1.3,2.7,1,1.5,1.6,2.1-.6,1.5-1.1,2.3,3.5,4.4-1,4.7-4,6.3-7.5-10.8-2.8-9.4-9,0-3.2-16.2-11-18.9,2.4-2-1.5-2.3-2.1-3.4,2.9-5.4-1.7-1.2,1.2-4.8-5.3-3.9,0-3.5-3.8-8-2.1,4.4.9,6.3-2.5,7.6.6,1.5,2.5,1.3-.5,2.2,2,3.6.6,2.7-2.3,3.7.7,7.6-5.7,4.5,1.6,9.5-3.7,1.3-14.7,11.4-11.8.8-4-1-2-.8-1.2-4.4-4.3.6-1.9-10.8-4.6-12.9-3.1,7.2.4,11.6-4.8,15.1.6.4,0,4.1-1.6,4.8-.5-1.5.4-.5-.9-2.1-3.1.5-3.3,1.9-1.2-2.1-2.5-.6-1.8-7.1-3-10.8-2.9,12.7-3.9,3.7-9.1,3.7,2.4-3.8-.6-12.7-2.6-16.4-2,2.5.9,9.8-3.1,9.2,2,3.1,2.3,1.9-.9,2.8,3.2,3.9-3.4,2.2,2.8,5.4-3.9.4-4.6,1.6-4.3,5.1-2-2-1.7,1.2-.8,2.4-5.5.7-1.5-10.4-8-7.6,1.5-2.8-.6-5.8-1.3-10.6-2.7-9.4-.4,8.5-3.7,6.9-1.1,1.7,1,2,.6,3.7-6.4,1.8,3.8,4-3.7,3.9-.9,2.7-2,.8-2,4.8-5.9-2.7.3-10.6-6.6-7.7,5.7-10.9-2.2-3.4-.8-8-.9-2-.3-5-2.1-7.7-1.6,3.5-.3,11.8-4.9,11.4-.5,4.8-2.5,5,.7,9.9-4.1-1.8-3.1,8.6-7.3,2.1,1.7-5.9-6.2,0-.3-6.7-3.4-4.7.7-8.3-3.4-7.5-.9-1.7,2-7.6-2-4.2-2.7-29.9-7.3,22.5-17.7,19.6,1.9-1.5,3.7-3.8-.1-3.6,2.2-12-6.3-7.8-3.9-13.4-5.1-19.6-2.1-3.8-7.1,2.9-.3,1.3,2.2,1.3,1.2,2.6-4.6,1.9,1.7,3.6-3.7,2.6-.5,3.7-1.5,0-4.4.6,2.7.2-2.8-19.8-2.9-11-2.1.9,1.3,2.6-1.3,2.7.2,6.6-3.8,5-.9,10.8-8.7,3.6-6.8-13.3-10.2-17.8-1.4,2.6-2.8,10.3-1.6,11.3-5,6.2-7.7-2.6-6.8-4.7-4.5-17.7-3.3,4.4-9.2,7.1-1-4.4-1.5-7.6-3.6-11-3.4.6,2.6-3.8-1.9-2.3,1.5-3.3-1.8-5.9-2-11.2-1.6,2.1-3.1,7.5-2.6,10.4-3.5-2.1-2.1,3.4-4.5,4.6-4.8-.8,2.6-3.3-4.4-3.9,3.3-3.1-.8-3.6-1.3-6.4,1.4-2.5-1.4-6.5-1.9-10.1-2.7,5.1-1.5,13.7-5.5,15.1,2,3.6-5,8.4-9.3,7.4,11-6.2-6.5-2.1,1-6.3.4-3.6-2.1-2.4-3.2-3.4,3.5-1.7,1.1-2.6-1.1-3.6,2.3-1.8.5-2,0-3.9-2.7-16.2-3.4,10.4-9.4-14.4-.5,3.8-3.1,10.3-4.7,13.2,6.2,5.1-3.7,1.4,1.4,5.6-1.8-.3-5-.2-2.5,2.1-1.2,1.2-4.3,0-2.2,2.5-.5,3.3-3.5,1.4-.3,6.9-2.8.7,0,2.3-2.9,3,.2,1.6,2.9,2.5,0,3.1.9,2-2.5,2.5-4.6,2.2-.4-1.3,3.1-2.1,1.6-3.3-5.2,1.6,1.6-2.3-1.9-2.3-.4-1,.8-1.5,1.1-2.5-5.3-2-3.4-19.5-5.8-8.7-8.5,22.3-9.3-34.8-13.7-1.9-1-.2-1.4-1.5-2.3-.8,3.3,21.9-8,3.6-8,3.6v196.8h1400V22.6h0Z" fill="#f6f6f6"/>
	<path d="M1393.8,72.4c-1.7.5-3.3,1.3-1.1,2.4,3.1,2.8-3.3.3-2.5,3.3,3.2,1.4-1.1,4.5,2.4,7.4-2.7,1.9-1.7.8-1.4,3.6-2.4.8-.9,1.6-1.6,3.1-3.8,0-3.5,3-2.7,5.3-6.8,3-.2-7.8-4.1-6.8-4.4-2.7,3.8-7.8-.9-6.7,3.1-18.9-9.6-9.9-7.2-14.1-.9-4.4,1.7-2.4-2.3-4.2-2.7,2.1,2.7-5.6-1.8-2.9,3.3-9-1.3-2.2-2-11.9-2.9,6.1-2.1,10.8-1.9,14.1-3.7-4.5-3.9,1.5-1.3,3.7-6.3,2.6-4.5,4.6.7,6-1.6,3.1-7.9-.9-6.3,3.8-4.2,1.1,3.1,1.7,4.3,2.8-.9,2.4-4.6,1.7-2.1,4.2-1.3,2.7-5.5-2.2-7.6,0-2.6-10.7-1.3,5.8-4,4-.7.2,1.1,1.6.6,2.2-7.5,0-2.5-5.3-5-9.3-2.5,2.4-1.9-12.3-3.9-7.2-8.2,5.2-4.2-12.3-13.5-.2,1.7,1.9,0,.4-.8,2.2-5.5-1.6,1.3,4.4-2.5,5.2,0,9.4-5.1-.8.2,9.5-1.4,1.3-1,1.8,0,3.2-9,2.9-.8-3.9-5.3-8.5-1.4,0-.4-13.1-3.8-10.4-1.3,6.1-4.3,22.7-5.6,10.9-7.3-.7.5-2.7,2.1-3.7,0-4-8.9-.6-3.4-6.1-2.4,0-4.4-1.2-1.3-1.7,5.3-6.8-7.8-3.5-.2-13.4-5,0-2.4-8.4-5.8-9.3,1,4.3-6.3,12.3-.5,13.9-2,.5-5.8,1.4-2.6,3.1-.9,2.3-3.8,1.9-.4,5.3,0,2.9-2.7-.8-4.2,1.2-2.1-.2,1-2.4-.5-2.4-5.4-.3-2.5.9-5,4.1-7.4-2.6,3.6,7.5-3.1,4.2-1.3,2.3-1.6,0-3.3,0,8,11.4-4.7,10.6,2.6,14-1.9-1-6.7,6.2-9.5,2.1.5-.8,5.7-.2,5.7-2.4-10.1-7.5-3.6-5.3-1.2-14.4-9.7.6-1.1-4.4-7.4-4.2-3-.3,0-4.2-1.4-5.4-1.1,2,.2,5.8-3.5,5.3,1.2,3,.8,1.3-.7,4.1,1.9,4.4-1.8,2.2-3.8.6.7,4.3,3.1,4.4,6.4,5.9-3,3.3-5.8-2-2.3,4.3-1.2,3.4-2.8-2.8-1.9,4.4-6.8,0-2.6-2.5-1.7-5.2-3.3.9,1.1-7.3-3-5.1-2.5-1.6,1.5-1.9,1.2-3.4-3.6,2.7-2.8-11.4-3.4-2.7,1.1,4.3-5-.6-2.3,3.4.9.8,0,3.9-1.3,2.5,1.2-1.3-.9-1.1-1.3-.3.6,1.6,3.4,3.7-.3,1.9-3.5-1.2,2.7,3.1,2,4.4-2.1,1.8-4.8,1.9-4.5,5.5-6.6.9-7,0-1.1-2.6.8-2.1-16-3.8-6.2-5.8-.4-4.4,7.1-.8,3.7-4.1-2.1-1.4-6-1.3-7.5-2.9,5.9-4.6,3.3,0-.8-7,6.2-3.5.2-.3.7-3.5,6.2-4.7.7-2.7-1-5.8,5.1-1.4-.8-4.7-3.6-4.6,1.1,4-1.3,2-2.1,4.6,2.4,1.5-3,3.5-2.4,5.1,5.3,1.1-2.5,2-1,3.1,6.1,7.3-3,3.1-4.6,7.1,1.3,1.9,4,1.1,6.2,1.9-.4,2.5-7.3.3-6.3,3.8,12.1-2.5-7.2,5-4.8-1.5,5.5,3.6,1.1-6.9-1-8.3,1.2-1,4.4,0,2-1.8,4.1-4.1-3.3,2.2.5-3.4-2-2.9-6.1-1.6-6.2,2-.8,2.3-6.1-.4-2.6,2.6-5.4,1.3,6,3-2.9,5.6,5.6,3.8,3,3.6-2,3.5,1.4,2.8,4.7,3.1,5.5,4.8-7.2,1.9-5.2,2.8-7.8-2.4.5,7.7-9.7,32.6-7,18.4-2.7-4-3-3.2-.9-7.2-5,3.6-7.2-4-2.2-4.6.4-3.4-8.1-22.4-6.7-7.4-4.3,2.8,1.3,2.4-2.4,4.4,0,.4,1.4,1,.7,1.5-4.9-.3,3.9,2.9-.7,4.3,0,6.6-5.1,6.3-10.2,6.5,4.5-6.2.2-2.6.4-6.3,8.1-1.4-2.9-5.6,1.8-5,3.3-6.1-2.7-6.9-2.1-11.2-4.1.6,1.8-4.4-2-3.9-.7-2.5,1.7-2.6-.6-5.3-1.3-11.9-1.1,5.7-4.4,5.6-1,1.5,2.8,7.3-.4,5.8-6.1,3.5,7.3,6.9-4.7,6.4-1,4.9,9.7,8.3-1,6.6-.3,4.2,7.2,6.4,0,4.7-2.8-.7-1.1,1.2-.2,2.3-2.4,1.7,2.1,2.9,2.1,4.1-7.5.3-1.9,1-5,4.6,1.2.2,3.4-1,3.3.5-5.9,2.2-3.8.5-2.5,4.9-1.3.6-4.4-.7-3-2.2-10.5-3.9,10.6-1.3-3.2-7,2.2-6.4-.2-1.8-2.9-8.5,1.2-.9,8.1-1,4.7-3.7,4.8-6.3-11.6,1.7-5.3-7.5-6.7-5.2-1.1-3.1.9-7.8-20.3-6.9-4.7,5.9-13.9.4,10.1,11.3-9.6-1.4,2.6,12.7-8.4,4,.7,1.9-1,5.6-11.3-3.8-6.2,6.4-10.6,10.1-1.7,2.5-1.7,3.2,1.6,3.3.8,4.1-4,4.4-1.6,7.9-1.6,2.8-4.9-7.1-5.2.5-5.5,1.3,2.3-3.7-2.6-3.6-3.3-3.8,5.2-3.2,3.3-6.3-1.1,0-11.4-1.3-6.9-2.2-3.3-3.4,3.8-2.2,4.7-4.3-3.4-1.3-10.4-2.5-3-4,2.4-2.9-6.3-1.7-7-4.1,4.5-1.5,1.2-3.1-1.5-2.5.9-2.3,1.9-6.8-1.3-2.4,0-2.1.7-4.2-1.2-4.9,4.2-.5-1.8-5.1,2.3-4.6,1.2-1.1,1.4-4-.8-3.5-1-2.1.3-3.4-1.9-3.5-.3-1.4,1.8-2.2.3-3.3-5.1-9.5-2.1,5-5.8,7.7,3.1,3.9-1,2.4-2.9,4.2,1.8,2.4,5.8,3.9-.3,3-1.8,1.5-2.8,4.9,1.3,4.3,4.4,1.9-5,.4-4.2,2.2,4,2.8-.7,2.1,5.2,2.5-1.8,2.1-8.5,5.2-8.6.3-8.1,24.1-8.5-7.4-10.6,12.7-3.4,3.8,2.2,2.7-3.2,3.8,1.1,1.9,3.4,3.7,0,3.3.4,2.2,2.1,1.7-.8,2.9.5.7.4,1.6-.5,1-3-.3,2.2,5.5-1.2,4.7.9.7,3.7,5.5,1.5,6.5-3.9,0-8.5,9.8-11.9,3,2-6.6-8.2-.2-2-7.3-4.6-3.1-5.9-1.5-1.1-5.8,0-4.8-2.7-10.3-2.9-15.1-4.6,6.4,1,12.2-7.6,13.6-1.3,4.8,5.9,3.9-1.2,7.7,7.5,2.1-2,7.5-4.9,3.8-8.5-6.7,3.9-17.3-3.8-13.7-.7-6.9,2.2-5.5-5.6-5.1,6.3-5.1,5-6.6-2.5-8.4,1.2-.2,8.1-2.5,3.5-4.2-1.2-3.3-8.4-34.1-8.6-12-4.6-.3,2.4,4-2.4,4.1-6.4,2.1,3.1,3.2-2.3,5.2-.4-.3-1.7-.3-1.3.7,4.8,5-3.1,1.6-1.6,5.7,9.5,9.9-3.6-2.3-2.3,9.6.6,3.3.2,1.7-1.4,2.2,3.1,5.6-1.4,2.2-3.9,2.3-.5,2.4,3.3,3.2,2.5,4.9-1.1-1-2.6-2.8-4.2-1.6,1.1,10-8.1,3.3-3-2.2-5.3.3-1.1-11.8-6-12.9,2.5-2,3.2-2.4-.2-2.9-.3-2,3.2-3.4-.9-5,1.7-3.7-8.8-9.3-3.1-15.4-2.6,0-9.5-2.6-4.7,1.7-7.7,2.1,4.2,5.2-8.1,8.2,3.6,3.1,10.2,4.7-1.4,4.9.5,2.8,5.1-.3,5.3,3.6-10.8,4.3,6.1,2.3-8.4,9.2,7.1.3-4.5,4,5.5,3.1-1.9,5.3-14.4,1-3,7.9-8.4,4.8-6-4-7.1-.4-3.5-6.6,3.6-3.2-6.9-6.5,4.5-4.4,4.8-4.3,0-7.4-2.5-7,8.4-10.2-2.4-10.7-3.4-.9,5.8-2.8,2.8-4.3-8.8-2.1,2-.2-4-4.7,0-1.7,3.8-2.1,1.4-4.1-17.9-.5-2.9,2-9.3,5.9,3.4,1.5,3.8,1.8,0,2.4,6,.9-1.9,1.3-.3,3.2-4.8.9-1.5.9-1.1,3.6-6.3-2-4.5,10.2-7.5-.2-8.4,15.1,1.4,2-3.4,10.3-10.3-5.6,2.8,12.6-15.5,6.7,5.8-4.6.6-3.9-3-6.1,7.8-1.9,0-3,2.9-4-3-1.5,3.9-.3.9-2.2,3.7-3.2.4-1.7-1.8-3.1-5.8.4,6.9-3.6.8-4.4-3.1-.2-1.3-1.8-.6-3.6-5.6,1.5-4.8-2.3-1.4-5.8-3.7,2.7-1.3-20.3-5.3-6.4,0,.6,2,2.2.4,2.1-5.7,5.2,6.9,13.7-3.4,12.5-2.6,1.5,3.4,4.7-2.3,3.6-2.3,2.2,6.1,4.9,2.5,5,0,0-1.3,0-1.1.6,1.6,3-3.4-2.5-3.8.2,4.8,5.8,5.9.8.9,6.6-.2-3.1-1.3-.4-2.2-1.7,2.1-7.4-4.8-2.8.9-8-1.3-1.1-5.2-1.5-1.6-3.8-2-3.5-1.9-4.7-2.8-10.7-1.7,3.3-1.7,13.5-4.2,11.5-.5,5.8,2.6,1.3-1.6,7.3-6.9-15.1-11.4-3.4-2.2-14.3-4.9.8,2.1-2.9-6,0-3.6-.3,1.5-3.3-1.6-4.8,9.2-6.3-.2-.5-3.7-6.3,4.9-9.5-10.6,1.8-1.4,5.5-3.1.7-.5,12.3-6.2,7.2-1,0-.9,2.3-1.3,2.7,11.2,9.4-5.2,4.3-2.1-2.6-5-.9,4.5-4-2.3-5.1,1.5-1.3,1.3-2.8-1.8-2.2,0,1.5-.8-2.8-2.8-1.1,4.6,2-2.2,3.4-4.2,5.8,6.2,3.5-4.4,5.7,1,8.1-4.8,3.8-2.1,2-.5,6.6-5.5,0-2.9,5-7.7,2.6,3.1-2.4,4-7.9-1.1-7.1-.4-1.8,5.9-2.6,1.9-3.2-1.6,2.2-2-1.9-4.3-.8-.4-1.5,5.2-3.7,2.7-5.5-4.3,2.9-1.7-3.2-5.7-2.3,3-2.5-1.4-1.5,1.7-2.5-14.3-7.2-2.3,16.2-9.5,8.2-3.8,1.2,1.1-3.8-3.6-2.4-.3-2.2,5-4.1-1.3-6.6,2.4-5.9-2.1-.2-.7-7.6,4.4-1-4.4-6.7-3.3-11.4-2.4,8.2-2.6,6.5-3.8,15.7-5.1,1.4-1.2,4.9,1.9,2.7.9,3.1-3,3-3.9,3.8,3.4,1,1.8,4.2-1,3.2.4,6.9-4.4,1.8-1,5.9-3.5,0-3.4,2.7-.9,3.6-5.9,3.8-.2-9.4-4.2-5.5-1.9-.3,3.6-6.6-.3-4.3-.7-4.1-2.6.4-.3-5-3.5,0,.2-.7-2-3.8,0-8.2-15,1.5-3.6-7.2-7.9.7,3-4-5.2-3.5,1.7-2.5,4.7-4.8-.6-3.7-.6-3.2-2.8,0-3.5.4,3,3-2.6,0-3.7,2.3,4.7,5.2-1.8-.2-.5,5.7-1.2.4-2.2-1.2-2.8,0,9.3,10.4-4.4,4.4,3,11.3.7-2.7,4.3,4.7-5.7,2.2,0,1-6.3,6.6-4.9,2.6-.4-.9-6.4-1.9-3.3-3.4-1.6-2.3,9.1-.7,5.8-4.5-1.3-2,1.9-1.5,2.8,0-.2-4.2-2.4-.5-4.3-3.2-2-1.9,1.4-1.5,1.2-3.2-5.2-1,.5-.6-.6-4-5-2.7-.9-8.6-5.7-11.6-8-2.4-1.4-11.7-5.9-18.4-2.9,3.7-1.1,14.3-4.1,14.2-2.8,0,1.1,1.5,1.1,2.4-3.5,2.1-2.8,2.2,0,3.7-5.2,4.5-1.7.9-.7,6.1-1.2,5.2-11.2,11.5-15.4,8.6,0-1.4,2.1-7.9-1.6-5.5,1.1-12-5.3,2.1-2.5-5.9-9.2-3.8-2.2,10-9.6,2.7-1.6.5,1.3,4.9,1.7,5.4-1.3.6-5.1-.7-3.4,1.8,9.7,6.5-5.5.6,6,7.7-1.5-.2-3.1,1.5-2.2,3.1-2.2,1.8-7.9-2-3.1,5.5-5.4,0-5,1.9-1.7,5.6-2.7-.4-2,4.4.7,4.9,1.1,1.6-9.5-.2-4.5-1.9-2-3.3-4.6-.4-4.7,1.5-.2-2.7-1.3-2.2-2.5,0-5.9.6,5.8-5.4-2.7-5.6.4-4.2-.5-11.3-2.7-14.9-3,1.9-1.7,8.8-6.2,8.6,8.4,8.3-6.3,13.2-8.6-1.3-24.8-.4,7.2-13.2-11.3-13.3,0-.7,1.4-6.9.4-6.7-3.8-2.1-1.9-15.9-4.8-4.5-1.8-8.2-1.7-.9-2.8,2.7-4.4-2.8,1.3,4.1-1.5,5.1-3.5-.4-1.4,1.8.2,3.4-4.8,0,0,4.7-2.2,7.1-5.8-19.3-10.7-7.6-15.7-13.5-.9-4.4,1.7-2.4-2.3-4.2-2.7,2.1,2.7-5.6-1.8-2.9,3.3-9-1.3-2.2-2-11.9-2.2,3.3-1.1,9.2-2.8,9.7,3.9,9.3-6.2-3.2-.5,8-6.3,2.6-4.5,4.6.7,6-1.6,3.1-7.9-.9-6.3,3.8-4.2,1.1,3.1,1.7,4.3,2.8-.9,2.4-4.6,1.7-2.1,4.2-1.5,2.7-5.1-2.1-7.6,0-.7-8.5-3.7.9-2.3,4-2.1.5-1.9-.5-1.1,2.2-7.5,0-2.5-5.3-5-9.3-3.4.5-1.4-1.3-1-2.6-1.7-.3-1.5-9-2.9-4.6-8.9,4.7-4.7-14.3-14.3,2-5.5-1.6,1.3,4.4-2.5,5.2-1.5,1.2.8,3.7-.4,4.6-4.8-2,.8,3.8.6,4.9-1.4,1.3-1,1.8,0,3.2-9,2.9-.8-3.9-5.3-8.5-1.4,0-.4-13.1-3.8-10.4-1.8,6.1-4,22.7-5.6,10.9-6.6-.7,0-2.7,2.1-3.7,0-4-8.9-.6-3.4-6.1-2.4,0-4.4-1.2-1.3-1.7,5.2-5.4-5.2-5.2-2.5-8.8,2.8-2-1.2-11.1-3.5-14,1,4.3-6.3,12.3-.5,13.9-2,.5-5.8,1.4-2.6,3.1-5.6,4.8,4.8,5.7-4.5,6.5-2.1-.2,1-2.4-.5-2.4-5.8-.2-2.2.6-5,4.1-7.4-2.6,3.6,7.5-3.1,4.2-7.3.6,2.2,4.6-.5,10-3.4-.6-4.3,2.9-.2,3.8-1.9-1-6.7,6.2-9.5,2.1.5-.8,5.7-.2,5.7-2.4-9.5-7-3.7-5.5-1.2-14.4-9,.7-1.7-4.9-7.4-4.2-3-.3,0-4.2-1.4-5.4-2.6,4.5-2.9,15.6-8,10,.7,4.3,3.2,4.4,6.4,5.9-3,3.3-5.8-2-2.3,4.3-1.2,3.4-2.8-2.8-1.9,4.4-6.8,0-2.6-2.5-1.7-5.2-3.3.9,1.1-7.3-3-5.1-2.5-1.6,1.5-1.9,1.2-3.4-3.6,2.7-2.8-11.4-3.4-2.7,1.1,4.3-5-.6-2.3,3.4.9.8,0,3.9-1.3,2.5,1.2-1.3-.9-1.1-1.3-.3.6,1.6,3.4,3.7-.3,1.9-3.5-1.2,2.7,3.1,2,4.4-2.2,4.1-16.1,9.1-5.7,2.9.8-2.1-16-3.8-6.2-5.8-.4-4.4,7.1-.8,3.7-4.1-2.1-1.4-6-1.3-7.5-2.9,5.9-4.6,3.3,0-.8-7,6.2-3.5.2-.3.7-3.5,6.2-4.7.7-2.7-1-5.8,5.1-1.4-.8-4.7-3.6-4.6,1.1,4-1.3,2-2.1,4.6,2.4,1.5-3,3.5-2.4,5.1,5.6,1.3-2.5,1.9-1,3.1,7.8,6.6-13.7,6,1.7,9.1-.4,2.5-7.3.3-6.3,3.8,12.1-2.5-7.2,5-4.8-1.5,4.5,4,1.7-7.3-1-8.3,1.2-1,4.4,0,2-1.8,4.1-4.1-3.3,2.2.5-3.4-2-2.9-6.1-1.6-6.2,2-.8,2.3-6.1-.4-2.6,2.6-5.4,1.3,6,3-2.9,5.6,5.6,3.8,3,3.6-2,3.5,1.4,2.8,4.7,3.1,5.5,4.8-7.2,1.9-5.2,2.8-7.8-2.4-.7,9.1-6.3,16.6-4.6,22.3-4,2.5-4.5-.6-2.4-3.9-2.7-4-3-3.2-.9-7.2-5,3.6-7.2-4-2.2-4.6-1.2-3.4-7-22.4-6.7-7.4-4.3,2.8,1.3,2.4-2.4,4.4,0,.4,1.4,1,.7,1.5-4.9-.3,3.9,2.9-.7,4.3,1.4,7.2-14.4,9.1-7.7,2.7-.7-.7-2.8-.9-2.1-2.5,8.1-1.4-2.9-5.6,1.8-5,3.1-6.1-2.6-6.9-2.1-11.2-4.1.6,1.8-4.4-2-3.9-.1-2.4,1.2-2.9-.6-5.3-1.3-11.9-1.1,5.7-4.4,5.6-1,1.5,2.8,7.3-.4,5.8-4.9,4-.3,2.5,1,5.5-14.1,1.6,6.4,9.6-6.6,7.5-.3,4.2,7.2,6.4-.1,4.7-4.1-1.3,1.2,5.8,2,6.4-7.5.3-1.9,1-5,4.6,1.2.2,3.4-1,3.3.5-5.9,2.2-3.8.5-2.5,4.9-1.3.6-4.4-.7-3-2.2-10.5-3.9,10.6-1.3-3.2-7,2.3-6.3-.5-2.1-2.9-8.5,1.2-.9,8.1-1,4.7-3.7,4.8-6.3-11.6,1.7-5.3-7.5-6.7-5.2-1.1-3.1.9-7.8-20.2-6.9-4.7,5.9-13.9.4,10.1,11.3-9.6-1.4,2.6,12.7-8.4,4,.7,1.9-1,5.6-11.3-3.8-6.2,6.4-10.6,10.1-1.7,2.5-1.7,3.2,1.6,3.3.8,4.1-4,4.4-1.6,7.9-1.6,2.8-4.9-7.1-5.2.5-5.5,1.3,2.3-3.7-2.6-3.6-3-6.1,10.6-2.8-1-7.8-1.6,1.3-6.1,0-2.6-.8-3.3-3.4,3.8-2.2,4.7-4.3-3.4-1.3-10.4-2.5-3-4,2.4-2.9-6.3-1.7-7-4.1,4.5-1.5,1.2-3.1-1.5-2.5.9-2.3,1.9-6.8-1.3-2.4.7-3-1.7-10.1,1.1-9.5,1.8-3.7-3.4-7.1-2.4-10.4-6.2-10.6-1.6,12.8-8.7,11.9,6.6,6.2-1.8,0-1.2,5.2-2.8,1.7.7,2.1,2.2,2.1,4.4,1.9-5,.4-4.2,2.2,4,2.8-.7,2.1,5.2,2.5-1.8,2.1-8.5,5.2-8.6.3-8.1,24.1-8.5-7.4-10.6,12.7-3.4,3.8,2.2,2.7-3.2,3.8,1.1,1.9,3.4,3.7-.1,3.3.4,2.2,2.1,1.7-.8,2.9.5.7.4,1.6-.5,1-3-.3,2.2,5.5-1.2,4.7-.4,1.6,1.7,1.6,1.9,3,2.3,7.5-4.8,1-2.4,5-.1-.2-.8.2-1.5.6-4.8,2.5,1.7-5.1-.2-6.7-3.2,4.4-7.8-7.1-3.5-6.9-10.8-5,5.7-4.3-6.3-9.6,1.2-2.9,4-4.3.3-7.2,2.5-8.9-.7-21-4.7-3.6,3.1,4.5-3,3.5-3.9,6.2,4.5,3.7-.3,5-3.7,6.9,2.1.9,3.9,2.5,4.8,4.6-13.5,3.9-2.8,5.7-14.9,6.5,0-1.5,7.9-10.2.3-6.1-.7-6.9,2.2-5.5-5.6-5.1,6.3-5.1,5-6.6-2.5-8.4,5.6-1.2,5.8-2.8,2.4-5.9-5.5-13.9-3.2-28.6-10-6.2-6.4,2.1,3.1,3.2-2.3,5.2-.4-.3-1.7-.3-1.3.7,4.8,5-3.1,1.6-1.6,5.7,9,9.1-3.4-1.5-2.3,9.6.6,3.3.2,1.7-1.4,2.2,3.1,5.6-1.4,2.2-3.9,2.3,3,7,3.5,2.8-1.6,3.3,1.1,10-8.1,3.3-3-2.2-6.3,1.2,1-8.3-5-8,2.4-1.9,1.4-4-.9-4.9,2.5-2,3.2-2.4-.2-2.9-.3-2,3.2-3.4-.9-5,.5-3.9-8-9.2-3.1-15.4-2,0-4.1.5-4.5-2.1-1.6,1.7-3.1,2.7-.1,3.7-4.1,1.1-3,1.2-2.2,4.6,3.2,1.3-4.9,2.2-5.9,3.6,5.6,3.8,8.4,4.7-1.4,4.9.5,2.8,5.1-.3,5.3,3.6-10.4,3.9,4.6,3.7-4.6,6,3.7,1.2-2.7,2.2-3.8,3.2,7,.4-5.4,3.6,5.5,3.1-1.9,5.3-14.4,1-3,7.9-8.4,4.8-6-4-7.1-.4-2.7.3.8-5.7-1.7-5.1-10.6-.4,3.7-5.7-5.2-8.8-.3-2.9,1.9-4.3-1.4-6,5.2-2.2,6.2-4.6-1-4.7-3.4-.9,5.8-2.8,2.8-4.3-8.8-2.1,2-.2-4-4.7,6-6.4-5.7-4-8.2-3.5,1.5,3.1,4.3,2.9.3,5.3,3.4,1.5,3.8,1.8,0,2.4,6,.9-1.9,1.3-.3,3.2-4.8.9-1.5.9-1.1,3.6-6.3-2-4.5,10.2-7.5-.2.3,3.9-6.9,7.8-2.8,7.8,1.4-2.7.6,2.2-.6,2.5-5.2-3.2-5.1,1.6-4.9,7.2-14.8,3.2-3.6-4.2-13.6-6.6,5,0,3.9-5,2.1-2.4-.5-3.6,3.9-2,1.7-3.8,3.7-3.2.4-1.7-1.8-3.1-5.8.4,6.9-3.6.8-4.4-3.1-.2-1.3-1.8-.6-3.6-1.9.4-5.2,1.2-3.6-1.9-2.4-1.5,1.4-1.2,2.2-3.8-4.2.4,0-6.9-3.5-11.6-7.2,16,5.2,20.5-4.7,19.8-2.6,1.5,3.4,4.7-2.3,3.6-2,3.6,7.4,4,1.4,5.6,1.6,3-3.4-2.5-3.8.2,6.4,6.5,5.1.7.9,6.6-.2-3.1-1.3-.4-2.2-1.7,2.1-7.4-4.8-2.8.9-8-4.9-2.8-1.8-6.9-4.4-14.5-3.8,11.7-2.7,25.4-11,10.8-7.7-1.5,3.7-2.8,2.9-6.3-4.9.8,2.1-2.9-6,0-3.6-.3,1.5-3.3-1.6-4.8,9.2-6.3-.2-.5-3.7-6.3,4.9-8.6-6.7-.5-3.9,2.3-2.3,2.1,1.8,1,2.5,3.2-3.1.7-.5,12.3-6.2,7.2-1,0-.9,2.3-1.3,2.7,11.2,9.4-5.2,4.3-2.1-2.6-5-.9,4.5-4-2.3-5.1,1.7-2,.8-2.8-1.5-1.8-3.1-4.2-5.5,1.5-7.3,4.2,7.3-.4,1.5,1.8-1.6,4.3,7.4-1.3,2.5,3.9-.3,6.2,11,.4-3.6,9.1-4.5,6.2,1.3-3.2,3.7-6.3-2-6.3,3.1-4.4,6.3-1.6-2.4-4.1-.4-1.5,5.2-3.7,2.7-5.5-4.4,2.9-1.7-3.2-5.7-2.3,3.5-2.8-1.9-1.2,1.7-2.5.1-2-4.2-2.3-3.9,0-2.2-2.9-2.5,0-4,1.8-1.5,1.9,4.8,12.2-1.6,6.3-3.8,1.2,1.1-3.8-3.6-2.4-1.5-.6,4.6-4.1.5-5-.5-4.4-2.5,1.8-1.3-4.8-5.3-1.4,2.9-5-1.1-8.3-3.2,0-2-5-3.4-7.6-.5,5.5-10,22.3-2,18.3.9,3.1-3,3-3.9,3.8,3.4,1,1.8,4.2-1,3.2.4,6.9-4.4,1.8-1,5.9-3.9-.5-.9,1.7-3.5,2.1.9.9,1.6.3,2.6,1.6-5.9,3.8-.2-9.4-4.2-5.5-1.9-.3,3.6-6.6-.3-4.3-.7-4.2-2.6.4-.3-5-3.5,0,.2-.7-2-3.8-.1-8.2-15,1.5-3.6-7.2-7.9.7,3-4-5.2-3.5,1.7-2.5,4.7-4.8-.6-3.7-1.2-3.5-1.5.4-3-.3,0,.2-.8.6-.5.7,3,3-2.6,0-3.7,2.3,4.7,5.2-1.8-.2-.5,5.7-1.2.4-2.2-1.2-2.8,0,9.4,10.4-4.4,4.3,3,11.3.7-2.7,4.3,4.7-5.7,2.2,0,1-6.3,6.6-4.9,2.6-11.3-5.7,5.1-3,2.5-7.9-1.3-2,1.9-1.5,2.8,0-.2-4.2-2.4-.5-4.3-3.2-1.7-2.2,3.6-3.2-2.1-3.6,1-4.6,8.1-8.6-1.6-9.4,2.4-4.6-.3-5.4-4.4-6.9,5.3-.6,3.5-5.6-1-5,2.6-1,3.5-4,.2-4.4,1.1-6.5,2.7-1.1-2-7.8-2,.8,0,3.5-1.2,4.5-3.2,1.8,3,3.3-2.5,6.1.8,2,2.9,3.3-.4,3.5-2.8,0,1.1,1.5,1.1,2.4-3.5,2.1-2.8,2.2,0,3.7-6.5,3.3,6.5,8.8-9.1,13.1-.7,5-4.4,2.1-7,1.6,0-1.4,2.1-7.9-1.6-5.5,1.1-12-5.3,2.1-2.5-5.9-9.2-3.8-2.2,10-9.6,2.7-1.6.5,1.3,4.9,1.7,5.4-1.3.6-5.1-.7-3.4,1.8,9.7,6.5-5.5.6,6,7.7-1.5-.2-3.1,1.5-2.2,3.1-2.2,1.8-7.9-2-3.1,5.5-1.3.8-3.6-1.3-3.4,1.1-3.6,1.2,1.3,2.2,1.6,4.4-2.7-.4-2,4.4.7,4.9,1.1,1.6-9.5-.2-4.5-1.9-2-3.3-4.6-.4-4.7,1.5-.2-2.7-1.3-2.2-2.5,0-5.9.6,5.8-5.4-2.7-5.6-2.2-30.1-6.4-5-10.2,6.5-1.6,5.5-7.3-2.5-10-3.5-.8-3.2,4.8-3.9,4.9-6.9-4.8-7.1-11.6-1.3-2.4-11.1-2.8,0-6,0-8.7-.5,3.9-4-2.8-2.9,1-5.6-5.2-.6-.5-1.9-2.9-3.8,0,0,1.6-3,0-2.7-3.8-2.1-1.9-15.9-4.8-4.5-2.3-9-1.1.6-2.7,2.8-4.4-2.8.7,3.4-1.2,5-7.3-1,6.5,7.7-1.7,4.2,1.2,14.1-6.7-7.1-6.7-7.1v149h1400V77.6c-1.1-7.7-6.2-23-6.2-5.2h0Z" fill="#3aadaa"/>
	<path d="M1400,105.6c-13.8,2.5,5.9-20.6-5.7-16.8-7.3,4,3.8-4.1-3-3.7,3.2-3.4-1.2-7.5-1.5-13.2-1.5,2.8.5,6.5-2.8,7,.8,1.5,2.7,3.6-.3,4-.9,2.8,4.1,4.6-1.7,4,.3,1.6,4.6,7.7-2.1,5.1-1.8,4.1,6.3,14.6-3.2,6.6-2.1,2.6,2.8,6.9,5.1,7.8-4.3,7.1-6.6-4-7.6,3.5.8,5.2,7.2,5.4,2,6.2,1.6.2,3,.3,2.8,1.9,6.8,0-1.3,3.5-3.9,0-3.1,4.5,3.9,5,2.2,7.2,15.4,8.8-18.5-2.2-2.3,10.8,8.6-1.1-1.1,8.3-6.3,7.2,2.8-1.2,0-4-1-5.1,3.7-1.7,2.1-6.6-2-6.1.8-1.4,3.5-.9,1.4-1.7,0-1.6,2.6-4.7-1.2-3.5-4.3.7,3.6-5.9-1.8-6.7-.8-2.6,2.1-3.1-1-5.3-.7,0,.9-6.9-1.6-6.9-4.1,6.1.9,12.1-4.9,13.6-.7,1.1-4.5,5.6-1.2,5.4,1.1,1.4-6.4,1.3.5,3-4.3,4.5-2.5,3.3-2.4,9.3-1.1-.5-2.9-.6-1-1-12.8,5.4,6.2-11.5-11.6-11.3,4.6-.5,1.2-1.8,4.6-6-2.9-.2,4.4-7.7-1.5-2.9-.5-.7.5-2,0-2.8-6.2.6,4.1-4.9-4.5-3.5.2-1.3,4.4-2.7-.7-3,.8-1.5,6.2-4.8.4-3.3.8-1.8,3.8-3-1.1-2.1.3-1.5.9-6.5-1-3.3-4.1-.2-3.8,5.6-2.3,7.7-1.5,1.2-4.5,1.5-2,4.2,4.9,5.6-1.2.9-3.6,3.9,3.2,3.2-3,6.8,2.1,8.8-2.7.7-.2,1.7-3.5,1.5-3.2,11-6.2-28.5-7.3-14-2.7,16.8-10.7,16.5-8.1,26.4,2.5-6.4,0,7.8-2.7,5.6.3-4.3-3.2,1.2-5.2-2.6,3.6.8,5.1-3.7.6-5.2.2-2.7.5-4.9-2.5-3.6.5-8.8,2.1-13.3-2.9-24.8,0,5.4-6.6,18.4-1.7,20.8-8.9-.5-4.1,1.2-1.2,4.2-1.1,2-9.1-4.5-3.8,1.7-2.9,12.8-7.2,4-3.5,11.1-4.1.4-.6,3.3,2,4.2-8.2.6-4.2-1.9-6.5-3.6-3.3-1.8-11.1,2.4-14.5.6,7.6-2.4.4-.5,3.7-3.5,1,1.3,4.6.2,6.2-2.2-1.5-1.5-4,.2-1.4-2.6-1.3-7.9-.3-1.4-5.2-2.9-2.4-5.3,4.4-2.6,3.5-7.3-10.8-2.3-5.8.9-3.4-7.2.4-2.2-.7-2.1-1.9-.6-1.7-1.6.6-6.8-2.8-6.5,3.9-8.8-1.2,1.2-1.5-10.7-1.8-.2-.8,4.1-1,5.9-3.5,0,.2,2.2-.3,3.4-1.5.4-.3.9.5,1.3-6.1,4.1-4.9-.8-2.2,8.3-5.3,2.4,2.9,6.1-2,7.2-1.9,3.1.3-1.2-2.2-1.8-6.5,1.5-3.3,1.8,0,5-5.3.7-1,4.8,1.7,3.6-.6,6.5-3.9,4.1-6.7.2-.8,2.9,1,2.2,1.1,4.3-4.7,1.4,1.5,7.7,1.2,10-14-3-4.5,7.2-.8,11.9-1.6.2-8.5-.5-4.2.6.6,3.2-4.5,4.1-6.1-.2-2.5,1.7,5.5,7-1.1,4.9-.6.5.2,1.5-.5,1.9-4-.8,2.5,4.8-5.1,3.8-.4,1-2.3,3.2-2.8,1.2-.5-4.4,8.4-3.2,5.5-8.7-2.6-.6-2.4-2.6-2.6.3-7.8-3.8-1-.7-.6-4.9-2.3-2.1,4.1-8.1.6-9-5.3.3,3.4-8.8,0-9.2-.4-3.7-4.6,4-2.2-6.7-6.8,2-.2-4.3-1.1-9.2-2.8,5.4-4,0-2.7-3-7.5,3.4.4-2.1-6-4.3.8-1.5,3.7-5,.5-4.8.2-2.3,3.9-4.7-1.1-3.8,1.6-17.2-3.9-5.1-2.4,3.3-3.8-1.8.2,7-3.5,3.2-.7.2-.2,1.5-1.2,1.1-2.1-1.1.2,3.1-2.9,2.3-3.2,14.6,9.4,13.2-5.3,17.3.9,6.1,8.9,7.5,7,12.2-7.7-8.4-5.3,5.9-7.3,1.2-6.2.7,6.8,8.1,6,10.9-1.6.8-4-1.4-5.3-2.3-1,1.8-3.1.2-1.4-.4-6.5-3.8,3,11.6,2.8,12.4-.9-.1-6.6,0-4.8-2.5-8.3-.7.6-5.3-4.4-8.2-4.2.8,3.1-5.6,1.6-8.3-1.1.7-5,7.3-4.3,2.5-4,0,5.3-4.1.8-5.8.4-4.4-3.2.6-2.5-3,2.9-3.7-1.1-7.3-1.1-12.5.4,7.2-6.3,13.6-1.7,17.7-7-3.2-3.4-2.4-4,3.5-.2,4.3,5.7,5.2-.6,7,3.8,7.6-3.9,5.1,1.4,8.9-.2,2.8-2.3-.6-2.4-.9-21.3-.4,11.7-10-7.1-11,8.6-7.9-3.6-4.2,2.2-13.5-4.7.6-1.2-2.3-3.2-4.8-2.9-.7-.2-3.7-.8-5.6-1-3.1-1.7-2.8-2.2-6.4-2.7,2.4,2.1,15.1-4.2,10.2,4.8,8.3-3.5,1.8,2.8,9.4-5.8,0-1.6.2-3,3.3-4.7-4.4-1.4,3.5-5.5,2.3,4.8,7.1-2.8,4.4,6.7,10.2-23.2,0,11.1,15.6-10.1,8.8,4.1,4.7-2.4,4.2-4.3,1.4,2.1-2.4,5-2.4,2.5-5.7,3.8-4.8-4.6.5-6.1-3.4,5.2-4.5,7.5-9.4-3-5.3-3.1-4.1,5.9-4.6,5.8-8.4-9.8.2,3.4-1.1-2.3-7.6-6.3,2.8,2.1-6.7-3.8-10.1-.6-.3,3-5.3-.2-3.2-.4-.5-1.2-10.2-1.3-11.5-1.8,16.1-7.7,19.8-2.4,29.6-1.3,1.9-6.6,1.2-4.1,4.3,5.3,5.9,0-.1-4.9,2.6-1.2.4-3,.6-3.2-1-1.8-3.1,10-1.3.6-5.5,4.8-4.7,7-1.5.9-6.4,1.1-1.3,4.6-1.1,3.9-3.7-6.5,2.6,1.2-5.1-4.8-1.6-5.9,2.8.8-1.6.2-4.5-7.9,4,1.6-13-3.5-14.9-2.1-8.6,0-1.1-3.3-.2,3.1,6.8-3.4-1.1.4,7.4-1.2.9-4.5,0-2.5,2.4-2.4,2.1,2,4.9,1.3,7.1-5.5-2.9-1.6,2.9-1,4-4.8-1.6,1.4,5.1-6.2-.4,6.4,8.4-2.5,7.1-1.4,15.2-3.9-1.5,2.5,6.6,2.6,8.5-9.5-.2,11.2,10.4,5,8.4-1.1,3-2,1.5-4.1.5,1.5,5.7-5.5-2.6-6.8-2.7-2.9,2.3,5.2,4.2.4,5.7,2.3,3,5,2.5,7.3,4.4-4.8.7,1.1,2.1,1.7,3.6-4.2,2.4-8.4,1.1-12.8,2.6,6.1,8.8,8.5,3.8,1.3,8.4,9.9,5.7-7.4,2.3-.3-3.4-1.3-2.5-7.7,1.8-7.6-2.1-5.8-.9,3.3,0,1-2.3,5,1.8-.6-2.8-1.3-3.9,6.3-2.6,6.1-14.2-.6-14-1.4-2.3,6.6-5.6,1.7-7.2-.5-2.8-5.1-4.4.5-3.9-4.1-7.4-4.9-27-6.6-10-3.3-1.8,1.5,3.1.6,4.4-2.1,1.8-1,5.6-3.5,7.1-18-4.6,12.7-3.4-7-9.8l5.9-1.7c-9-4.5-4.8-8.1-7.8-15-2.9,2.4.8,8.9-3,9.8,0,1.7,3.6,4.3,0,4.1.8,4.1-.4,1.7-2.7,1.6,2.5,5.4,6.6,3.9-1.4,3.7,5.4,4.6,3,4.2-2.2,1.5,2.4,4,8.6,4.7,1.9,6-1.2,3.8,6,4.7,3.2,6.9-1.7.3-4.7-3.5-6-1.7,4.5,8.2,1.5,2.7-2,3.4,4.3,4.1-2.7,7.1-5.2.9,7.5-10.8-13.6,8.6-2.1-4.7-6.5.2.4-.9.6-4.5-8.6,1,2.2-2.6-3.8-2.9.8-10.7-3.8-11.3-3-1.1-5.5-1.9-1,5.5-4.3,5.2,7.7,9.4-11.8-1.7-1.1,11.8,1.5-.5,2.3,1.3,2.6,2.6-2.6-.4-2.7-2.5-1.7,1.7-10.8.2,8.6,6.9-5.7,5.5-1.3,4.4,9,7.6-1.4,7-1.4,4,5.4,2.2,5.6,5.1-16.6-3.1,3.5,7.8-4.6,5.6,0,2.4-2.5-.2-3.8.2,8.5,11.4-7.2,5.1-3.7-.5,5.9-9.6,3.4-6.6-6.1-4.8,11.6-11.9-3.5,2.1,3.1-12.2-2.7,2.2-9.5,3.5-4.1-.6-1.3-.5-2.7-1-4-1.5,8.9-8.6,4.1-4.6-1-9.8,0-1.7,3.3-2.6,2.3-4.4-5.3-2.1-1.9-9.6-3.3-14.1-.6,5.6-.5,27.4-9.6,20.3.2-1.2,2.7-.9,2.6-2.3-1.7-1.8-5.2-1.5-.5-3.5.4-3.1-4-5.6-3.8-8.9-2.6,2.5-1.6,8-5.2,9.4,4.9,1.3,3,2.8-.8,3.8,3.6.8,6,6.2.8,2.8-.4-.2-.8-.5-1.1.1.2,3.4,4.9,7.2-2.3,3.6,4.3,7-2.2.8.3,5.4,14.9,4.2-1.1,3.9-.4,6.9,2,0,4.4-.5,1.9,1.7,5.6,5.2-8.4.9-9-.9,6.5-3,0-2.1-3.5-4.4-6.7-1.5,4.1-.7,5.5-2.6-.4-4.2-2.7-1-6.7-3.7-10.6-2.5,7.8-.7,6.2-5.4,7.2-3.9-7.3-2.5-8.8-2.6.3-1.5,1.4-2.8-1.5-2.6-3.1,3.3-2.7-3.6-.9-2.2,1,1.6,10,3,8.1-.5,6.1-5.1-22,1.5-5.3-4.6,1.2-.6,4.1.2,3-2,8.7-5.8-4.3-.3,2.2-7-7.5,4.5-13.2,1.5-3.1-1.9-12.6-.6-1.3-12.3-8.8-11.2,9-7.8-3.9-.3,2.9-7.3-5.8.7-4.7-2.8-3-7.8-6.7-4.7-3.2,7.3-9.4,7.4,7.4,2.9-3,5.6,3.9,7-.7,1.4-6.2,4-6.9,3,2.1,5.8,3.5.6,4.8,1.8.7,3-3.8,4-5.8,3.6,0,3.1,5.9.7,5.7,2.8-10.9,1.8,4.7,4.6-10.8,4.7,12.2,5.9,12.1,5.1-2.4,7.6,6.3,5-7.9,6.4,5.3,8.5,0,3.3-6.1,1.3-8.3.6,0,2,4.3,3,.7,3.9,1,4.9,15.8.5,6.3,5.8-10.8,4.3-3.2,3.5,2.5,5.3-21.1,4.1,8.8,2.8-18.9,12.1,2.1-2.1,11.9-12.3,4.2-8.3-1.6-.3-.6-.3-1.8-1.3-14.8-1.7,7.8-7.5-.8-12-7.1.2.2-1.7,1.1-6.4-10.7,2.4,1-3.1-1.8-6.8,0-1.3-3.2-2.9-.2-3.5,4.8-.8-3.8-2.4-2-5.6-.8-.5-4.8,2.3-6,1.1,8.2-9.2-.4-2.2,2.2-7.3-4.8-1.1,2.9-2.9,1.6-4.9-6.4.7-2.1.4-1.9-2.1-4.6,1.5-1-1.1.5-2.6,1.7-2.6-2.3-.2-3-.9.3-3.1-.9-5.5-1.6-8.9-2.3,1.9,1.6,6-2.9,5.7,1,2.2,4.2,4.3-.3,2.8,6.9,11.1-5.2,5.5.7,11-8.5,0-.5,6.3-.8,9.1-20.3-7,8.1,8.6-12.3,6.7-.4,4.4,14.5,4.2,8.2,5-1.4,4-16.7,1.4-3.9,6.7,4.5,2.6-3.7,1.4-5.1,0,.3,2.3.7,3.8-2.5,3.7,1.9-7.1,3.1-4.3-5.1-4.5,4.4-2.6,4.6-6.5,5.7-11-1.7,1.4-5.5,5.8-7.7,3.1,3.2-6.4,11.6-9.1-.6-6,17.7-12.7-2.6-2,6.3-11.9-9.2,2,.3-6-3-7.8-6.8,7.1-4.4,1.5-1.4-4-7.3,6.6-7.5,2.5-3.7-3.6-3.4-1.6,3.1-5.4-3.9-2.1-.3-2,3.9-3,1.8-4.7-5,2.1.8-8.9-2.9-11.3-.9,2.8,0,3-2.1,5.2,3.8,7.4-4.9,1,.5,11.4-4.6-4.1-1.7,5.3-7.3,3.7-2,1.4,4.2,5.5.7,4.9,0,1.9,4.8,4.6,4.9,6.7-9.6-3.7-1.7.1-4.9,5.2-4.8-1.5,4.8,3.6,3.7,3.9-2.7.2-1.2,1.5-2.2,1.2-.3-4-3.8,3.9,1.7,5.5-18.4,2.1-3-4.3-9.1-7.8-5.3.3,4.4-5.7,2.4-8-11.1,6.9,1.4-15-6.2-8.4.8-1.9-1.3-22.1-3.2-9.6-.4.3,1.4,5.7-1.4,3.5-.6,3.6,2.6,6.2-1.6,9.2,3.2,4.7-5.8-.6.9,5.8,1.3,5.1-7.3-.9-5.5,3.1,4.7,6.4-7.6,8.5,3.4,11-.6,11.5-4.4-1.4-7.6,4.2,5.1,4.6-3.5,4.9,5.2,5.4,2.9,5.9-7.7.9-8,4.7-5.5-1.3-1.3,1.8-1.3,4,0,3.9,7.2,2,8.8,4.4-9.2-1.2,1.6,3.9-10.3.5-.7,2.3-1,3.5-3.7,3.4-1.7-1.4,2.9-4.4,1-6.5-1.8.8-5.2,5.2-7.5,3.6.9-1.6,5.7-4.5,1.6-5-.4-2.4,1.3-3.1-1.9-3.5,10.8-8.5,0-.4,3.4-8.2-3.2,1.1-3.2,3.6-2.7-1.7-6.4,2.2,5.2-6.3-3-3.6,2-5.6-.4-7.6-1.6-16.1-5.4,28.7-12.1,2.9-11.7,15.9-6.7-2.1,3.1-7.5,6.1-10.6,0-9.6-8,5.2-7-1.6-.3-7,3.5-9.5,3.9-19.8-7.2,6.6-7.4,2.6-3.7-3.2-7.7.7-.9-1.8,0-6.3-7.1,6.2-3.5-1.6-2.5-5.6-7.1,2.3,4.6-15.8-7.5-6.9.8,2.3-.4,2.9-2.4,2.9,5.4,7.1-5.9-2.5,2.1,7.7-3.6-2-5.8-4.1-2.6,1.3-3.3,2.6.9,1.4,2.6,3.2-1.6,1.1-10.9,1.3-3.6,3.6-7,.8,4.5,13.2-5.1,6.4-1.6,4.5-2.3,1.8-4.8.3-9.4,5.4,4.8-13.3-6.3-3.4,11.4-16.9-1.6-4.8-1-20.5,2.7-7.8-9.8-11.9-3.8-.9-1.2,2-3.5-1.7-.4,4.3-7.2,1,3.8,3.8-2.1,5.3,1.7,6.9-2.4-1-1,6.2-4.1-3.2-2.7-.7-2.1,2.6,0,3.7-2.4-1.9-3.5-.2,2.6,4.2-.9,5.6-.3,9.7,3.8,10,1.6,4-3.1,2.4,0,2.5,6.5,9.1.7,6.9,4.9,5.4,7.6,9.3,0,3.8-2.8,8.2,2.9,2.4,2.4,12.8-5.8-4.7-5.8,4.8-9.8,2.9,1.2-9.7,4.2-11.4-.6-18.8-.3,2.6-1.1,9.6-1.7,2.8-7.8,3.7-2.2-2.1,1.7-3,2.1-5.1-1.8-.5-4.2-.7-1.9-.7,0-6.1-2.9-3.3-3.3-1-.8-2.3,1.3-3.7.3-5.2-2.3,0,.5-7.1-.4-3.4-3.9.5-2.2-3.6-4.2.7,1.8-4.7-3.6-13.9-.2,4.7-5.5,9.1-2,12.3-7.3-.5,4.5,9.2-3.5,7.6,2.7,5.9-1,1.9-3.7,2.6,3.7,7.1-.2,2.1-2.1,6.5,6.8,2.8-4.1,7.5-4.3-.6-4,3.7-5.4.8-9.4,5.6-9.4-3.6,9-7.9,5.6-14-3.9,5.5-2.9-1.9-7,.8,0-2.1,2.6-2.8,2-6.6-7.5,7,3.1-6.5-3-4.3-3.2-3.6-7.4-.2-.3-6.5,3.9-6.9,2.7-11.3-4-4.2,2.2-4.9,4.5-6.5-.8-8.8,5.1-8.7-1.8-11.7-1.5-22-1.2,4.4,1,8.4-2.9,11.2,4.8,7.1-5.9-1.7,1.2,6.8,0,9.2-4.6-2.7-1,8.9-4.4,1.1,0,4-.9,7.4-11.2-9.1,2.1,6.8-7.6,3.4-5.4-3.5.8,4.1-2.1,5.5-10.1-3.4,5.1,7.8,4.9,11.3-8.5.4-10.2-6.8-5.6,4.9.8,1.3,10.7,6.8,3.4,4-1.8,3.2-9.3-10.1-6.5-.2,2.7,7.5,8.3,7.3-2,9.9-2.1-5.6-2.2-3.9-7.7-7.4,14.7-5.6-3.3-1.4,1.5-9.6,7.3-5.8-5.2-.2,1.9-7,1.2-2.2-.6-2.1-2.1-1.5,6.3-6.4,1.7-3.4-3.4-4.5,1-1.3,2.7-2.9,1.2-3.4-4.1.4.7-1.8,0-4-3.7.8-.4-6.5-3.3-8.1,1.7,6-7.8,17.8,0,17.6-3.2,1.1,2.6,6.3-3.9,3.5.7,3-2.7,3.3-2.8,5.7,5.9,2.4-3.7,2.3-4.3.7,2.9-.9,6.8-7.4,2.7-6.4-11,5.1,7.4-7.8-6.2-7.3-6.2-2,10.9-7.5,3.4-12.3-.2-6.9-.7-2.5-7-2.3,4-1.5,5.6-3.3.5-4.2,8.9-5.8,0-6.3-3.9-9,3.6-1.8,4.7-7,0-3.8,5.1-8.9-.3-5.4-4.3-11,8.1-9.9-.3,0-1.8-13.3,0,5-5.6,12.6-3,13.3,4,3.7-8,3.6-4.8,6.3,6.9,0-2,2.7,1.4,10.8-5.8-5.3-5.8,1.2,0,4.5-6.8-2-6.8,1.5-5.5,6.5-.5,2.9,5.8,3.1,2.8,3.9-5.3-5-1.4,4.6-6.1-1.3-.4,4.6,0,7.6,4.5,9.9,1.4-.6,4.7,5.8,1.2,1.4-.2,4.7-2.9,1.9-5.7,1.8-1.5,3.2,1.4,8.7,6.2,8.1-11.9-3.5.8,6.3-8.3,7.8,2.8-1.2,0-4-1-5.1,3.6-1.7,2.2-6.6-2-6.1.8-1.4,3.5-.9,1.4-1.7,0-1.6,2.6-4.7-1.2-3.5-4.3.7,3.6-5.9-1.8-6.7-.8-2.6,2.1-3.1-1-5.3-.7,0,.9-6.9-1.6-6.9,0,9.7-10,18.6-6.1,19,1.1,1.4-6.4,1.3.5,3-6.7,6.9,2.2,8.6-8.5,9.7,6.6-18.4-10-7.6-1.9-18.7-2.9-.2,4.4-7.7-1.5-2.9-.5-.7.5-2,0-2.8-6.2.6,4.1-4.9-4.5-3.5.2-1.3,4.4-2.7-.7-3,.8-1.5,6.2-4.8.4-3.3.8-1.8,3.8-3-1.1-2.1.3-1.6.9-6.5-1-3.3-3.5-.2-4.2,5.6-2.3,7.7-1.5,1.2-4.5,1.5-2,4.2,4.9,5.6-1.2.9-3.6,3.9,3.2,3.2-3,6.8,2.1,8.8-2.7.7-.2,1.7-3.5,1.5-3.8,11.2-6-30-7.3-14-1.7,4.6-2.2,12.2-5.3,11.5-1.9,1.5,2.3,1.8,1.8,3.7-5.2,2.1-2.9,4.8-6.4,6.5,1.9.9.8,3.1,1.7,4.7.8-5.3,2.4,2.4-1.2,3.7.9,2.3.8,2-1.5,1.9.3-4.3-3.2,1.2-5.2-2.6,6.8,2,.3-10.6-1.9-8.7.6-10.4,2.4-11.5-2.9-24.8-1.1,7.3-5.9,16.7-1.7,20.8-6.5-.4-5.6.7-1.2,4.2-1.1,2-9.1-4.5-3.8,1.7-2.9,12.7-7.2,4-3.5,11.1-4.1.4-.6,3.3,2,4.2-8.2.6-4.2-1.9-6.5-3.6-3.3-1.8-11.1,2.4-14.5.6,7.6-2.4.4-.5,3.7-3.5.2,1.2,5.1.2,6.2-2.2-1.5-1.5-4,.2-1.4-2.6-1.3-7.9-.3-1.4-5.2-2.9-2.4-5.3,4.4-2.6,3.5-7.3-10.8-2.3-5.8.9-3.4-7.2.4-2.2-.7-2.1-1.9-.6-1.7-1.6.6-6.8-2.8-6.5,3.9-8.8-1.2,1.2-1.5-10.7-1.8-.2-.8,4.1-1,5.9-3.5,0,.2,2.2-.3,3.4.3,5.9-6.9-1.2-1.7,9.6-5,2.9,3.5,7.4-3.5,8.1,2.5-4.8-9.8-2.2-.7,2.4-4.9.7-1.3,4.8,1.7,3.6-.6,6.5-3.9,4.1-6.7.2-.8,2.9,1,2.2,1.1,4.3-4.7,1.4,1.5,7.7,1.2,10-14-2.9-4.5,7-.8,11.9-1.6.2-8.5-.5-4.2.6.8,3.3-4.7,4-6.1-.2-2.5,1.7,5.5,7-1.1,4.9-.6.5.2,1.5-.5,1.9-4-.8,2.5,4.8-5.1,3.8-.4,1-2.3,3.2-2.8,1.2-.5-4.4,8.4-3.2,5.5-8.7-2.6-.6-2.4-2.6-2.6.3-7.4-3.7-1.4-.7-.6-4.9-2.3-2.1,4.1-8.1.6-9-5.3.3,3.4-8.8,0-9.2-.4-3.7-4.6,4-2.2-6.7-6.8,2-.2-4.3-1.1-9.2-2.8,5.4-4,0-2.7-3-7.5,3.4.4-2.1-6-4.3.8-1.5,3.7-5,.5-4.8,2.1-4.1-4.1-24-2.9-4.1-3.2-.7-.4,2.1-.6,3.6-3.8-1.8.2,7-3.5,3.2-.7.2-.2,1.5-1.2,1.1-2.1-1.1.2,3.1-2.9,2.3-1.5,1,2.5,4.9-.2,4-2.9,10,10.2,9-5,13.4.9,6.1,8.9,7.5,7,12.2-7.7-8.4-5.3,5.9-7.3,1.2-6.2.7,6.8,8.1,6,10.9-14.3-5.5-8.1-1.4-4,9.7-13.7-2.1-4.7-7.4-9.2-10.7-4.2.8,3.1-5.6,1.6-8.3-1.1.7-5,7.3-4.3,2.5-4,0,5.3-4.1.8-5.8.4-4.4-3.2.6-2.5-3,2.1-3.7-.5-7.3-1.1-12.5.4,7.2-6.3,13.6-1.7,17.7-11.6-7.1,3,10.5-4.5,10.5,3.8,7.6-3.9,5.1,1.4,8.9-.2,2.8-2.3-.6-2.4-.9-21.3-.4,11.7-10-7.1-11,8.2-7.6-3.3-4.3,2.2-13.5-5.8-1.3-2.7-9.8-6.2-16.8-2.7,2.4,2.1,15.1-4.2,10.2,4.8,8.3-3.5,1.8,2.8,9.4-5.8,0-1.6.2-3,3.3-4.7-4.4-1.4,3.5-5.5,2.3-.2,2.6,2.3,2.3,2.9,4.1-5.3,1.6,2.4,4.5,3.8,6-23.2,0,11.1,15.6-10.1,8.8,4.1,4.7-2.4,4.2-4.3,1.4,2.1-2.4,5-2.4,2.5-5.7,3.8-4.8-4.6.5-6.1-3.4,6.3-4.8,6.4-9.2-3-5.3-3.1-4.1,5.9-4.6,5.8-8.4-9.8.2,3.3-1.1-2.3-7.6-6.3,2.8,2.1-6.7-3.8-10.2-.6-.3,3-5.3-.2-3.2-1.6-20.1-4-.5-3.4,7.4-2.9-2-5.1,2.3-4,3.5,5.1-.7-.2,5.7,3.6,7.2-1.3,1.9-7.4-2.4-4.9.7,5.3,5.9.9,3.4-4.2,6.2-8.1-.1.5-2.8.8-4.8-9.9-2.5,8.5-5.6-2-5.8,1.7-1.1,1.7-2.5-.5-2.3,1.1-1.3,4.6-1.1,3.9-3.7-6.5,2.6,1.2-5.1-4.8-1.6-5.9,2.8.8-1.6.2-4.5-8.8,4.4,2.1-11.7-3.5-14.9-1.9-8-.2-1.2-3.3-.2,3.1,6.8-3.4-1.1.4,7.4-5.9.5-1.8,5.9-1.2,9.5-5.5-2.9-1.6,2.9-1,4,1.6,5.6-5.2,2-5.1,3.8,0,1.7,3.9,2,4,3.7-1.8,4.3-9.7,1.6-2.5,7.5,0,1.7-2.2,1.7-3.5,1.8-2.7.2,4.6,6.1,6,8.8-13.1,0-1.2,3.1,2.3,6.1-2.8.2-1.4,3.1-5.3.3.2,5.4-4.6-2.3-6.8-2.7-2.9,2.3,5.2,4.2.4,5.7,2,3,5.1,2.4,7.3,4.4-4.7.7,1.1,2.1,1.7,3.6-4.7,2.6-7.9,1-12.8,2.6,6.8,9.1,7.8,4,1.3,8.4,9.9,5.7-14.7,4.2-.3-3.4-3.6-5.8-13-8.4-1.4-11.7,4.2-1.7-8.7-4-7.9-4.8-.1-.7,6.2-2.8,6.1-3.5-7.6-1.2-6-2.3-2.2-7.7,0-1.2-6.7-6.1-1.1-5.5-4.1-7.4-4.9-27-6.6-10-2.5-1.6-.5,1.1,0,2.1,1.4,5.1.4,13.6-6.9,10.3-1.2-3.1,8.8-2.9,4.6-6.3-1.2-1.2-7.3-2.1-3.6-3.8,5.4-2.4-6.4-2.8-5-12.2-3.2-16.8-.3,18.2-6.7,10.4,2.5,5.4,6.6,3.9-1.4,3.7,5.4,4.6,3,4.2-2.2,1.5,2.4,4,8.6,4.7,1.9,6-1.2,3.8,6,4.7,3.2,6.9-13.7-6.2,2.9,5.5-8,1.7,4.2,4.3-2.7,7-5.2.9,7.5-10.8-13.6,8.6-2.1-4.7-6.5.2.4-.9.6-4.5-8.6,1,2.2-2.6-3.8-2.9,1.9-3.8-1.2-6.4-1.6-11.5-.8,6.6-2.5,7.3-1.4,10.4-5.5-1.9-1,5.5-4.3,5.2,7.6,10.8-14.6-4,1.5,14.4-2.6-.4-2.7-2.5-1.7,1.7-10.8.2,8.6,6.9-5.7,5.5-1.3,4.4,9,7.6-1.4,7-1.4,4,5.4,2.2,5.6,5.1-1.7,1-6-3.1-7,.8,3,4.9-9.4,7.2-11.3-.2,13.4-3.2-3.6,2,3.1-12.3-13.2,8.6,1.3-6.4-6.1-5.8-7-30.9.2-20.5-9.6-1.8-5.3-6.1-5.6-28.2-7.3-8.2-5.1-2,3.2,13.1-3.7,6.6-3.7.3,5.4,8.5-3.1,4,4.3,7-2.2.8.3,5.4,4.4.6,2.4.1,5.9,2.2,2,4.4-7.7,1-6.3,4.7,2,0,4.4-.5,1.9,1.7,5.6,5.2-8.4.9-9-.9,1.8-1.2,4.1-.8,2.2-2.2,1.5-2.1-4.5.3-5.7-2.2-6.7-1.5,4.1-.7,5.5-2.6-.4-4.2-2.7-1-6.7-3.7-10.8-2.5,8-.7,6.2-5.4,7.2-3.9-7.3-2.5-8.8-2.6.3-1.5,1.4-2.8-1.5-2.6-3.1,3.3-2.7-3.6-.9-2.2,1,1.6,10,3,8.1-.5,6-5.1-21.9,1.5-5.3-4.6,13.7-7.5-1.7-3,5.2-9-6.4,4.3-14,1.8-3.1-1.9-12.8-1.4-1.3-13.3-8.8-11.2,8-6.9-3.5-.7,2.9-7.3-4.4.7-5.7-2.8-3-7.8-1.6-2.4-5.7-.8-4.5,2.1-5.6,2.9,4.7,2.5-4.9,5.3,8.1,3-3.5,5.1,3.9,7-.5,1.4-6.3,4-6.9,3,2.8,6.5,3.7-1.1,5.2,3-2.1,2.6-3.9,2.7-6.1,2.5,0,3.1,5.9.7,5.7,2.8-10.9,1.8,4.7,4.6-10.8,4.7,13.9,6.2,10,5.3-2.4,7.6,5.1,4.5-6.5,7.2,5.3,8.5,0,3.3-6.1,1.3-8.3.6,0,2,4.3,3,.7,3.9,1,4.9,15.8.5,6.3,5.8-10.8,4.3-3.2,3.5,2.5,5.3-21.1,4.1,8.8,2.8-18.9,12.1,2.1-2.1,11.9-12.3,4.2-8.3-17.8-4.7,5.6-6.8-2.6-13.3-9.9,1.6,8.8-8.4-3.2-5.9-1.3-1.7,4.9-5.3,2.5-7.4-.3-1.3-3-2.9-.2-3.5,4.8-.8-3.8-2.4-2-5.6-.8-.5-4.8,2.3-6,1.1,8.4-9.3-.6-2.1,2.2-7.3-4.8-1.1,2.9-2.9,1.6-4.9-6.4.7-2.1.4-1.9-2.1-4.6,1.5-1-1.1.5-2.6,1.7-2.6-2.3-.2-3-.9-2-14.3-.8-3.3-4.4-3.2,1,2.2,4.2,4.3-.3,2.8-.4,2,4.4,4.4,1.7,6.1-.4,4.7-5.8-1.4-.9,4.9-8.5,0-.5,6.3-.8,9.1-20.4-6.6,8.1,8.9-12.3,6.7-.6,5.1,12,2.3,9.2,5.6-.8,0-.7-.1-1-.7-.4,2.4-4.5.1-1.9,2.4-7-.1-10.9.8-2,4.3,4.5,2.6-3.7,1.4-5.1,0,.3,2.3.7,3.8-2.5,3.7,1.9-7.1,3.1-4.3-5.1-4.5,12.6-15.7.4-5.4-1.9-7.9,3.6-7.1,10.9-8.7-.6-6-.2-3.1,4.8-2.6,6.6-4.4,4.4-5.8-8.1.8-.2-7.5-9.2,2,.3-6-3-7.8-6.8,7.1-4.4,1.5-1.4-4-2.6.5-7.7,7.6-5.2,1.3-2.7-2,1.1-2.9,1.5-4.9-2.8-.9.2-1.7-.6-3.8-6.9,4.7.2-1.5-1.6-3-5,2.1.8-8.9-2.9-11.3-.9,2.8-.1,3-2.1,5.2,3.8,7.4-4.9,1,.5,11.4-4.6-4.1-1.7,5.3-7.3,3.7-2,1.4,4.2,5.5.7,4.9-.1,1.9,4.8,4.6,4.9,6.7-9.6-3.7-1.7.1-4.9,5.2-5-1.7,4.9,3.7,3.7,3.9-2.7.2-1.2,1.5-2.2,1.2.6-4.1-4.7,2.5,1.7,5.5-17.5,1.7-4.5-2.5-8.7-4.5,2.4-5.6-4.7.9,2-11.3-10.4,7,.8-15-6.2-8.4.2-1.3-.8-22.8-3.2-9.7-.4.3,1.4,5.7-1.4,3.5-.6,3.6,2.6,6.2-1.6,9.2,2.8,4.7-5.4-.3.9,5.8,1.3,5.1-7.3-.9-5.5,3.1,4.7,6.4-7.6,8.5,3.4,11,.2,11.4-4.7-1.3-7.6,4.2,5.1,4.6-3.5,4.9,5.2,5.4,2,7.2-15.4-.5-9.3,8.8,0,3.9,7.2,2,8.8,4.4-9.2-1.2,1.6,3.9-10.3.5-.7,2.3-1,3.5-3.7,3.4,3.2-12.6-1.2-1.4-6.4-2.9.9-1.6,5.7-4.5,1.6-5-.4-2.4,1.3-3.1-1.9-3.5.9-.7,9.3-6.2,2.2-4.2-.8-.7,1.4-.4,1.2-3.9-3.2,1.1-3.2,3.6-2.7-1.7-6.4,2.2,5.2-6.3-3-3.6,1.2-5.6.1-7.6-1.6-16.1-.1,5-7.4,21.8-8.7,11.5-10.5,8-4.4-.9,3-6.2.3-9.6-8.2,5.2-7-1.6-.8-6.3,4.2-11.9,3.9-19.8-1.5,1.4-7.6,6-6,3,4.6-13-5.6.5,2.3-12.6-7.2,6.2-3.5-1.6-2.5-5.6-6.1,1-.9-2.1-1-5.2-.9,1.3-2.4,1.1-2-.4,5-4.6-2.3-4.6-4.5-1.4.8,2.3-.4,2.9-2.4,2.9,5.4,7.1-5.9-2.5,2.1,7.7-3.6-2-5.8-4.1-2.6,1.3-3.3,2.6.9,1.4,2.6,3.2-1.6,1.1-10.9,1.3-3.6,3.6-7.9.8,4.5,13.3-5.1,6.4-1.6,4.5-2.3,1.8-4.8.3-9.4,5.4,4.8-13.3-6.3-3.4,11.8-16.1-5.8-8-.1-24.2-4.1,1.3-3-11.1-5-2.9-2.8,2.5-1.5,3.1.4,5.7-1.2,2-3.5-1.7-.4,4.3-7.2,1,3.8,3.8-2.1,5.3,1.7,6.9-2.4-1-1,6.2-4.1-3.2-2.7-.7-2.1,2.6,0,3.7-2.4-1.9-3.5-.2,2.6,4.2-.9,5.6-.3,9.7,3.8,10,1.6,4-3.1,2.4,0,2.5,6.5,9.1.7,6.9,4.9,5.4,7.6,9.3,0,3.8-3,7.9,3.2,2.9,2.4,12.8-5.7-4.7-5.8,4.8-9.8,2.9,1-15.9,6.2-5.7-.6-18.8-.3,2.6-1.1,9.6-1.7,2.8-7.8,3.7-2.2-2.1,1.7-3,2.1-5.1-1.8-.5-4.2-.7-1.9-.7,0-6.1-2.9-3.3-3.3-1-.8-2.3,1.3-3.7.3-5.2-2.3,0,.5-7.1-.4-3.4-3.9.5-2.2-3.6-3.9.2-.9-1.7,0-4.1-3.2-2.1-2.3-18.6-6-1.7-2.7,0-1.1,3.2.3,4.2-7.3-.5,4.5,9.2-3.5,7.6,2.7,5.9-1,1.9-3.7,2.6,3.7,7.1-.2,2.1-2.1,6.5,6.8,2.8-4.1,7.5-4.3-.6-4.4,3.7-5.2.8-9.4,5.6-9.4-3.6,9-7.9,5.6-14-3.9,5.5-2.9-1.9-7,.8,0-2.1,2.6-2.8,2-6.6-6.1,5.4,0-1.7-1.5-3.2.3-4.1-11.7-.4-1.8-7.6,3.9-6.9,2.7-11.3-4-4.2,2.2-4.9,4.5-6.5-.8-8.8,4.6-8.7-1.4-11.7-1.5-22-1.2,4.4,1,8.4-2.9,11.2,4.8,7.1-5.9-1.7,1.2,6.8,0,9.2-4.6-2.7-1,8.9-4.4,1.1,0,4-.9,7.4-11.2-9.1,2.1,6.8-7.6,3.4-5.4-3.5.8,4.1-2.1,5.5-10.1-3.4,5.1,7.8,4.9,11.3-1.8,1.6-7.5-2.2-9.3-3.4,1.1,2.6,3.4,6.1,3.7,8.2.8,1.3,10.7,6.8,3.4,4-1.6,3.1-9.5-10-6.5-.2,9,14.3-2.1,8.8-9.7,2.5,14.5-5.3-3.1-1.6,1.5-9.6,7.3-5.8-5.2-.2,1.9-7-2.2-6.5,6.2-5.3-5.5-6,4.9-6-2.5-.2,1.2-7.4-3.7.8-.4-6.5-3.3-8.1.9,7.2-7.4,16.2,0,17.6-3.2,1.1,2.6,6.3-3.9,3.5.7,3-2.7,3.3-2.8,5.7,7,1.6-14.4,5,.2-3.8-1.7-1.3,1.5-4.5-1.8-2.8-2.9,2.2-11.6.5-4.4-1.1,5.9-.6,3.4-4.1,1.6-6.1-15.1,1.3-3.7-3.5,2.7-8.6-7.1-8.2-8.6,0-14.9-4.8,3.4.3,14.8-2.8,5.5-4.7-6.8.4,2.5-4.8-3.2-8.6,1.5-1.1,4.8-3.5,2.3-5.1-5.7,5.3-1.7-6-5.7-6-.8-1,1.2-2.1.2-3.1-5.6,0,2.2-3.6,3.4-4.8-.3-3-2.5.3-3.9.3-1.4-1.7,3.3-1.3-1-2.6-13.4,8.2,7.9,11-9.9,11.2.4.6.2,1.8.9,1.8,4.8,0,2.2,2.1,5.6,3.8-1.5,1.5-3.4-.9-4.6.7-.2,1.5,2.7,2.7-.8,3.4.9.7,2.4,2.5.5,2.9,1.9,1.2,2.3-.8,2.4,2,4.7,4.1-6.8,1.5-6.8,1.5v115.9h1400v-114.4Z" fill="#383e45"/>
</svg>
