<svg viewBox="0 0 1400 848" xmlns="http://www.w3.org/2000/svg">
    <defs>
        <filter id="filter0_f_59_43763" x="591.284" y="0.0151062" width="824.716" height="847.036" filterUnits="userSpaceOnUse" color-interpolation-filters="sRGB">
            <feBlend mode="normal" in="SourceGraphic" in2="BackgroundImageFix" result="shape" />
            <feGaussianBlur stdDeviation="5" result="effect1_foregroundBlur_59_43763" />
        </filter>
    </defs>
    <path fill="#3AADAA" fill-rule="evenodd" clip-rule="evenodd" filter="url(#filter0_f_59_43763)" d="M1050.95 667.636C1066.03 634.636 1084.44 606.745 1106.07 578.079C1101.58 579.026 1092.65 584.461 1089.89 588.322C1077.69 612.848 1052.83 663.047 1050.95 667.636C1050.93 667.615 1050.92 667.598 1050.91 667.585L1050.9 667.579C1050.9 667.573 1050.89 667.568 1050.89 667.565C1050.89 667.562 1050.88 667.56 1050.88 667.557C1013.55 720.553 975.014 772.746 935.953 824.474C961.597 739.343 1026.39 658.616 1081.57 591.423C1037.88 616.974 1003.61 656.211 969.511 695.256C931.653 738.601 894.001 781.71 843.911 805.594C885.952 751.258 979.579 638.498 1017.76 622.144C1014.44 622.698 1011.37 623.398 1008.45 624.065C1003.36 625.226 998.721 626.284 994.002 626.284C945.34 698.082 886.874 729.632 820.474 765.463C818.7 766.421 816.92 767.381 815.135 768.345C846.257 736.135 889.861 701.811 937.771 666.36C904.257 681.09 783.934 731.77 791.449 726.945C797.865 722.825 804.33 718.539 810.853 714.214C834.486 698.544 858.882 682.368 884.508 671.778L925.966 654.827C914.691 658.051 903.57 661.366 892.422 664.689C850.821 677.089 808.829 689.605 756.988 698C775.118 690.541 793.519 683.505 811.915 676.47C835.348 667.509 858.773 658.551 881.619 648.726C862.074 647.762 842.419 648.636 822.786 649.508C799.597 650.539 776.438 651.568 753.526 649.567C753.526 649.567 890.064 635.724 859.512 633.038C828.986 630.353 759.836 625.283 759.719 625.275C783.201 619.065 845.084 616.311 873.09 615.71C854.045 613.352 835.955 606.184 817.801 598.989C801.071 592.359 784.286 585.706 766.646 582.776C785.3 584.942 803.723 587.654 822.118 590.362C846.397 593.936 870.626 597.502 895.274 599.797L782.152 547.821C933.312 575.773 982.221 605.032 987.78 616.167C991.038 615.227 995.241 615.18 1000 615.127C1008.16 615.037 1017.95 614.928 1027.44 610.275C1014.05 605.769 1001.32 602.458 987.821 598.949C944.854 587.775 894.19 574.6 790.113 514.502C869.507 536.302 1030.14 584.439 1037.5 602.588C1047.9 606.099 1078.53 590.294 1067.61 589.266H1067.6C1000.83 577.72 943.829 550.017 885.913 521.872C870.954 514.602 855.934 507.303 840.669 500.246C839.874 501.887 839.078 503.482 838.279 505.029C838.399 503.408 838.433 501.366 838.433 499.217C827.352 494.119 816.139 489.152 804.722 484.424C816.149 485.857 827.37 487.608 838.359 489.625C838.359 489.61 838.358 489.595 838.358 489.581C838.412 481.103 838.681 472.629 839.162 464.164C841.631 421.449 851.104 373.142 868.738 333.932L846.417 341.284C844.028 389.406 814.675 461.374 786.225 500.267C786.719 491.045 789.33 477.296 791.06 468.137C798.439 428.954 816.068 376.393 838.354 343.222C832.634 346.134 821.484 349.477 815.001 351.684C813.886 357.72 809.998 368.406 807.795 374.222C793.649 411.64 772.411 448.415 746.193 478.678C743.029 482.334 737.368 488.748 733.776 491.636C735.682 486.182 737.124 480.389 738.934 474.926C749.876 441.917 765.306 411.551 784.596 382.641C791.246 372.678 797.595 363.961 805.54 354.78C798.767 356.676 790.649 358.971 784.191 361.683C774.137 393.182 746.074 432.02 723.731 456.17C715.328 465.247 705.234 474.629 696.045 482.99C697.606 478.527 700.45 472.518 702.376 468.082C718.924 430.039 745.168 394.639 773.896 364.869C768.757 366.639 763.766 367.605 758.611 369.694C734.442 408.165 693.434 442.725 654.472 465.462C673.15 437.739 695.992 413.062 722.198 392.305C714.899 395.809 707.985 400.462 700.745 404.192C678.369 415.715 655.507 425.586 630.916 431.334C626.052 432.474 617.217 434.321 612.353 434.178C645.87 405.241 681.397 388.636 722.755 374.569C717.519 374.673 712.092 374.992 706.849 375.216C672.789 376.662 640.633 372.964 607.284 366.551C634.478 359.811 674.199 359.38 702.133 359.89L701.618 358.549C695.244 358.104 686.76 356.241 680.253 355.156C656.938 351.265 634.88 345.281 612.23 338.653C664.488 336.891 733.859 340.276 783.491 359.02C788.726 357.972 799.141 354.347 803.763 351.877C742.771 345.871 693.939 333.556 637.41 309.243C641.627 308.587 657.32 310.084 662.229 310.539C702.483 313.994 742.217 322.004 780.665 334.415C791.704 337.996 805.239 342.587 815.301 348.479C821.616 346.437 830.077 343.811 836.136 341.19C821.692 338.095 806.772 336.405 791.682 333.069C746.228 323.153 702.105 307.877 660.248 287.568C678.693 287.654 715.955 294.38 733.758 297.995C733.834 296.809 733.956 297.361 733.177 296.363C717.907 290.912 698.029 282.603 683.757 275.047C691.593 275.057 708.321 277.083 716.695 278.162C764.309 284.289 840.14 300.976 881.762 325.644C889.734 322.79 897.691 319.895 905.634 316.957C867.901 309.608 830.504 300.468 794.604 286.487C773.948 278.443 753.451 269.198 733.734 259.045C727.93 256.057 722.319 252.522 716.467 249.635C762.803 252.17 879.556 285.825 916.483 313.264C924.657 310.235 932.875 307.335 941.142 304.571C931.353 302.813 922.888 300.221 913.427 297.442C865.592 283.216 819.644 263.268 776.584 238.038C768.931 233.461 758.245 226.996 751.124 221.613C756.478 221.962 770.82 225.569 776.425 226.923C820.305 237.517 862.864 252.979 903.308 273.022C918.209 280.251 938.016 290.508 950.779 301.141C958.751 298.415 969.991 294.712 977.596 291.568C966.978 289.314 951.08 284.469 940.7 281.097C893.579 265.789 845.624 244.003 803.786 217.478C800.27 215.249 786.029 206.057 783.808 203.538C786.283 203.54 806.427 208.605 809.665 209.459C861.566 223.172 913.78 242.992 960.517 269.563C970.275 275.111 979.919 280.703 988.64 287.741C995.834 285.123 1003.06 282.582 1010.31 280.114C997.623 275.748 984.066 271.27 971.631 266.31C927.848 248.823 886.318 226.161 847.921 198.804C842.829 195.228 823.34 181.184 819.91 177.377C838.877 182.288 858.568 189.754 876.802 196.804C917.948 212.713 958.341 232.38 995.117 256.815C1003.28 262.241 1014.05 269.308 1021.29 275.842C1028.02 273.577 1034.69 271.158 1041.31 268.589C983.112 244.251 928.548 210.622 880.747 169.288C873.512 163.03 864.81 155.253 858.364 148.314C907.937 167.461 955.089 192.379 998.84 222.546C1018.53 236.04 1034.96 247.966 1052 264.879C1058.33 262.7 1065.83 260.177 1072.05 257.77C1069.19 256.418 1066.45 254.987 1063.7 253.437C1002.85 219.177 947.713 172.489 903.479 118.564C963.545 149.647 1038.69 202.001 1081.7 254.333C1088.06 252.292 1099.2 248.43 1105.32 245.848C1054.72 213.55 986.266 144.21 956.044 91.4692C966.487 98.5858 975.853 104.662 986.1 112.234C1020.99 138.068 1053.09 167.455 1081.9 199.915C1091.95 211.208 1107.28 229.802 1114.88 242.788C1122.37 240.034 1129.89 237.364 1137.44 234.774C1085.43 195.015 1030.9 126.098 1001.97 67.5913C1048.97 106.809 1089.08 146.416 1124.92 196.435C1130.68 204.472 1143.25 222.837 1147.01 231.624C1153.59 229.423 1161.68 226.893 1168 224.285C1160.18 217.113 1149.43 203.803 1142.97 195.362C1109.84 152.093 1077.04 95.6878 1061.97 43.0991C1073.44 55.7186 1084.54 68.0935 1095.13 81.4956C1101.4 89.4455 1107.14 97.4911 1113.16 105.601L1114.22 105.13C1105.75 89.9607 1098.11 74.3485 1091.31 58.3598C1088.88 52.7265 1085.03 43.9838 1083.14 38.1665C1132.37 84.5875 1179.44 150.138 1205.86 212.226L1224.82 205.599C1186.56 166.355 1137.44 83.0359 1124.58 29.7641C1141.77 48.2015 1163.41 74.3167 1177.6 95.6313L1178.93 95.227C1168.75 76.7973 1154.21 43.4259 1148.04 23.5278C1157.22 33.8182 1167.34 43.6204 1176.12 54.4907C1208.46 94.5319 1242.85 145.717 1260.21 193.913C1265.71 191.715 1273.27 189.395 1279.08 187.391C1239.18 140.61 1207.27 83.3794 1191.51 23.8286C1228.28 62.392 1272.25 133.87 1288.43 184.28C1294.75 182.598 1303.62 179.325 1310.01 177.182C1304.84 170.204 1298.95 158.712 1295.2 150.862C1275.29 109.141 1260.67 62.2292 1257.63 16.0151C1284.03 55.1057 1313.56 127.371 1318.33 174.435C1324.35 172.846 1332.4 169.791 1338.28 167.643C1336.54 161.893 1334.52 156.396 1332.89 150.531C1321.28 108.897 1315.49 62.5687 1321.13 19.5493C1338.38 58.1903 1350.23 123.024 1346.22 165.19C1351.74 163.871 1359.51 160.67 1365.53 158.878C1365.68 113.81 1372.96 73.2372 1390.08 31.6069C1391.29 80.218 1389.47 109.239 1374.17 155.912C1378.58 154.826 1390.25 150.305 1395.12 148.585C1396.74 148.018 1398.37 147.453 1400 146.888V158.297C1387.87 162.215 1375.67 166.328 1365.88 170.29C1378.15 175.751 1389.4 181.598 1400 187.934V207.362C1384.84 197.409 1370.56 185.92 1356.84 172.897C1351.39 174.515 1345.17 176.703 1339.74 178.556C1351.57 185.267 1360.73 192.174 1371.54 200.355C1381.32 207.755 1390.82 215.483 1400 223.576V248.268C1374.56 229.568 1352.02 207.966 1331.32 181.055C1326.41 183.109 1315.38 186.669 1310.27 188.096C1343.34 210.402 1373.48 236.719 1400 266.419V288.873C1364 262.618 1325.71 227.518 1301.46 191.033C1293.5 193.929 1284.35 196.649 1276.22 199.247C1310.08 231.509 1337.63 263.824 1361.57 300.512C1372.63 311.016 1381.33 321.137 1385.03 329.221C1390.14 326.776 1394.32 321.477 1397.3 316.773C1345.71 277.441 1341.49 264.757 1336.95 251.149C1336.24 249.008 1335.52 246.843 1334.61 244.548C1353.78 252.53 1368.84 271.933 1382.96 290.116C1388.72 297.534 1394.32 304.75 1399.98 310.904V331.72C1396.33 331.386 1394.13 340.338 1394.11 340.399C1394.11 340.399 1398.41 346.449 1399.98 346.576V388.904C1395.11 373.329 1392.12 362.246 1390.65 353.689C1388.13 351.45 1385.27 349.169 1382.67 347.04C1377.94 351.629 1372.8 358.539 1371.66 362.688C1375 373.912 1380.49 385.265 1386.07 396.822C1391.13 407.295 1396.27 417.936 1399.98 428.801V484.111C1397.29 475.663 1394.2 467.208 1391.11 458.725C1384.8 441.399 1379.53 423.778 1374.27 406.146C1370.55 393.709 1366.84 381.265 1362.75 368.915C1342.91 395.894 1359.1 436.512 1373.28 472.09C1389.87 513.722 1393.63 556.759 1397.5 601.077C1398.28 610.067 1399.07 619.111 1399.98 628.207L1364.76 524.831C1364.07 522.048 1363.38 519.278 1362.68 516.516C1353.17 478.533 1344.01 441.963 1342.78 390.825C1331.47 404.503 1314.45 422.168 1314.37 422.257C1342.61 503.248 1349.79 587.256 1345.49 677.526C1345.34 690.984 1345.19 704.446 1345.65 717.859L1340.22 688.74C1337.8 671.502 1333.79 650.615 1329.38 627.671C1317.39 565.241 1302.48 487.58 1308.81 426.743L1292.99 441.401L1292.98 441.407C1294.04 459.457 1295.83 479.298 1297.66 499.581C1301.7 544.462 1305.94 591.511 1302.88 626.14C1301.92 636.943 1301.74 649.969 1301.54 663.601C1301.14 691.298 1300.7 721.497 1293.72 740.636C1273.7 644.542 1275.26 544.585 1285.95 447.401L1266.43 463.749C1260.05 468.805 1253.49 473.998 1248.81 480.3C1249.11 484.216 1249.41 488.124 1249.71 492.024C1257.09 587.371 1264.14 678.416 1226.17 774.557C1225.85 675.894 1230.11 583.083 1241.9 485.473C1240.43 486.502 1238.94 487.51 1237.44 488.521C1233.64 491.081 1229.83 493.657 1226.38 496.619C1213.56 565.32 1199.19 633.82 1180.41 701.172C1171.63 732.536 1160.27 763.465 1149.06 793.987C1148.62 795.181 1148.18 796.375 1147.74 797.569C1154.13 696.76 1172.59 603.586 1211 509.897L1192.24 522.85C1178.95 623.252 1156.58 680.487 1124.16 763.451C1119.14 776.288 1113.88 789.742 1108.38 804.067C1122.79 689.181 1144.63 630.719 1185.81 527.41C1183.35 527.689 1167.88 538.384 1166.45 540.636C1138.97 639.032 1112.69 695.448 1076.29 773.595C1069.01 789.214 1061.33 805.702 1053.16 823.566C1053.32 789.886 1146.7 558.069 1158.28 545.236C1142.02 550.832 1135.69 571.687 1130.31 589.427C1128.88 594.15 1127.51 598.653 1126.04 602.588C1122.25 612.557 1118.51 622.526 1114.77 632.482C1089.44 699.956 1064.34 766.82 1026.36 828.741C1030.91 796.936 1043.13 762.196 1054.12 730.935C1055.17 727.947 1056.21 724.99 1057.23 722.071L1132.3 561.789C1119.12 570.631 1107.37 595.765 1096.31 619.43C1089.11 634.837 1082.2 649.622 1075.37 658.883L983.99 831.051L1050.95 667.636ZM1375.61 341.026C1369.9 336.04 1364.28 330.949 1358.75 325.756C1355.72 322.843 1352.73 319.887 1349.79 316.895C1318.64 297.572 1300.84 276.004 1284.95 244.548C1288.05 246.134 1291.51 248.07 1295.23 250.292C1291.46 244.724 1287.81 239.074 1284.29 233.342C1278.33 223.661 1271.71 212.361 1267.22 201.881C1258.98 204.98 1249.82 207.097 1241.9 210.317C1249.35 216.344 1260.89 229.328 1267.29 236.771C1285.92 258.465 1302.68 281.911 1317.79 306.317C1334.61 317.525 1351.61 329.822 1371.66 345.372L1375.61 341.026ZM1266.49 274.698C1258.17 261.927 1250.45 248.768 1243.42 235.231C1239.58 227.847 1236.46 220.138 1232.91 212.609C1225.27 216.231 1214.25 218.697 1205.91 221.98C1216.01 233.146 1225.42 244.599 1234.25 256.372C1245.96 262.946 1256.58 268.957 1266.49 274.698ZM1227.91 290.663C1221.48 279.275 1215.66 268.058 1210.65 257.339C1205.61 246.573 1201.76 235.37 1197.34 224.354C1188.87 227.395 1179.48 230.03 1171.22 233.373C1177.42 240.083 1183.35 245.658 1189.5 252.714C1198.98 263.574 1208.07 274.744 1216.77 286.203C1220.51 287.597 1224.23 289.086 1227.91 290.663ZM1201.75 309.253C1196.96 302.198 1192.36 295.046 1188.03 287.854C1187.96 287.814 1187.9 287.773 1187.83 287.733C1180.52 283.251 1173.3 278.827 1165.8 274.357C1171.07 274.811 1176.26 275.505 1181.39 276.414C1173.76 262.761 1167.22 249.063 1162.27 235.68C1152.2 239.13 1142.07 242.411 1131.89 245.519C1143.78 259.504 1155.39 275.436 1166.37 292.508C1178.16 297.899 1190 303.504 1201.75 309.253ZM1151.01 316.175C1147.35 309.046 1143.89 301.904 1140.67 294.793C1129.68 286.213 1118.25 276.903 1106.07 266.736C1115.08 270.296 1124.25 274.067 1133.53 278.012C1129.52 267.954 1126.07 258.036 1123.31 248.393C1115.3 251.385 1105.04 254.361 1096.73 257.176C1099.48 262.651 1103.5 268.193 1106.5 273.634C1112.57 284.637 1118.34 295.955 1123.76 307.518C1132.99 309.927 1142.06 312.847 1151.01 316.175ZM1097.39 302.177C1093.62 288.386 1090.48 274.431 1088.02 260.34C1081.33 261.967 1068.16 266.838 1061.43 269.248C1063.48 273.805 1066.5 279.146 1068.78 283.793C1071.39 289.217 1073.89 294.691 1076.28 300.212C1083.42 300.519 1090.45 301.187 1097.39 302.177ZM1063.85 336.081C1057.82 313.062 1053.91 290.905 1053.21 271.844C1045.18 275.052 1036.34 277.978 1028.13 280.854C1034.31 297.375 1039.66 314.158 1044.18 331.14C1050.65 332.704 1057.22 334.353 1063.85 336.081ZM1322.79 346.407C1313.62 336.539 1304.8 326.35 1296.36 315.848C1278.8 305.343 1262.54 292.923 1249.39 277.718C1257.1 289.221 1264.34 301.028 1271.18 313.168C1285.84 321.934 1300.18 331.438 1314.44 340.884C1317.22 342.73 1320.01 344.572 1322.79 346.407ZM1020.39 325.671C1020.28 324.235 1020.18 322.798 1020.08 321.358C1019.3 309.513 1018.68 294.988 1020.28 283.22C1013.23 286.04 1004.8 288.701 997.571 291.09C1001.18 301.266 1004.46 311.929 1007.43 322.933C1011.68 323.803 1016 324.716 1020.39 325.671ZM991.143 365.165C990.657 361.093 990.223 357.024 989.849 352.976C987.678 351.363 985.553 349.734 983.48 348.086C985.263 347.405 987.205 346.865 989.297 346.455C987.851 327.64 987.767 309.463 989.682 293.58C983.757 296.075 975.722 298.726 969.589 300.944C974.404 314.263 977.72 333.068 980.074 347.153C980.873 351.926 981.628 356.782 982.334 361.704C985.223 362.828 988.161 363.982 991.143 365.165ZM958.404 351.239C958.222 336.407 958.382 317.632 961.876 303.185C954.282 305.634 946.855 308.547 939.084 310.995C941.454 322.884 943.358 335.266 944.787 347.949C949.081 349.387 953.639 350.979 958.426 352.707C958.418 352.218 958.41 351.728 958.404 351.239ZM922.96 381.316C923.593 356.297 926.147 332.621 931.07 313.542C922.944 316.374 914.785 319.114 906.601 321.765C908.621 331.53 909.176 343.958 909.549 353.862C909.865 360.795 910.01 367.729 909.988 374.659C914.23 376.933 918.557 379.15 922.96 381.316ZM1257.68 338.09C1254.06 332.864 1250.52 327.576 1247.07 322.258C1244.56 320.917 1242.03 319.552 1239.5 318.16C1242.91 323.286 1246.25 328.463 1249.51 333.687C1252.25 335.152 1254.97 336.62 1257.68 338.09ZM1113.17 350.121C1111.44 345.628 1109.77 341.113 1108.17 336.577C1099.42 331.473 1091.34 326.092 1084.63 320.6C1087.61 328.295 1090.49 336.163 1093.23 344.148C1099.85 346.064 1106.51 348.057 1113.17 350.121ZM883.489 423.403C884.719 387.467 889.606 351.134 899.161 324.121C891.532 326.525 883.935 329.027 876.369 331.622C879.148 355.449 875.344 387.488 868.085 419.034C873.629 419.925 878.409 421.606 883.489 423.403ZM1022.55 347.647C1021.92 342.484 1021.37 337.299 1020.91 332.089C1016.61 329.861 1012.33 327.609 1008.07 325.333C1009.88 332.189 1011.56 339.172 1013.11 346.249C1016.14 346.602 1019.29 347.071 1022.55 347.647ZM1242.59 362.5C1240.95 360.575 1239.3 358.627 1237.65 356.658C1220.19 348.297 1203.94 339.116 1187.72 328.62C1188.6 330.241 1189.48 331.866 1190.35 333.496C1208.08 342.386 1225.43 352.354 1242.59 362.5ZM1381.99 334.007C1381.89 333.962 1381.79 333.916 1381.7 333.871C1381.75 333.965 1381.8 334.06 1381.85 334.155L1381.99 334.007ZM1352.53 365.454C1353.46 365.392 1367.48 350.387 1368.03 349.261C1357.24 345.044 1346.06 340.54 1334.88 335.559C1335.99 337.565 1337.09 339.574 1338.17 341.588C1341.95 348.589 1345.33 355.805 1348.63 363.05C1349.93 363.857 1351.23 364.659 1352.53 365.454ZM1334.61 383.749C1334.64 383.716 1343.65 375.176 1346.81 371.359C1334.48 364.617 1319.94 357.784 1303.99 350.286C1298.29 347.608 1292.42 344.844 1286.39 341.97C1287.8 344.81 1289.19 347.668 1290.56 350.543C1291.84 353.223 1293.15 356 1294.46 358.846C1308.82 367.283 1322.32 375.644 1334.61 383.749ZM1390 349.3C1389.7 346.789 1389.56 344.509 1389.56 342.391L1389.55 342.392H1389.54C1388.84 342.455 1387.95 342.851 1386.95 343.499C1387.97 345.419 1388.99 347.353 1390 349.3ZM1071.02 360.782C1070.5 359.155 1069.99 357.528 1069.5 355.903C1062.23 352.538 1055 349.106 1047.81 345.608C1048.48 348.432 1049.13 351.262 1049.75 354.096C1056.61 356.059 1063.72 358.304 1071.02 360.782ZM1186.59 376.066C1185.09 373.848 1183.61 371.614 1182.13 369.366C1171.54 365.974 1157.69 360.758 1143.27 354.349C1144.04 356.473 1144.81 358.601 1145.56 360.734C1159.44 365.544 1173.19 370.661 1186.59 376.066ZM961.117 398.278C960.002 387.508 959.216 376.618 958.777 365.541C954.404 362.545 950.035 359.502 945.666 356.416C946.799 368.343 947.515 380.494 947.805 392.713C952.192 394.601 956.632 396.455 961.117 398.278ZM1125.85 380.31C1117.72 377.025 1109.63 373.655 1101.57 370.2C1101.77 370.89 1101.98 371.581 1102.18 372.273C1110.34 375.49 1118.58 378.885 1126.81 382.395C1126.49 381.701 1126.17 381.006 1125.85 380.31ZM1308.33 400.591C1301.29 393.378 1294.24 385.498 1287.27 377.138C1281.74 375.165 1276.37 373.164 1271.14 371.125C1273.26 375.103 1275.34 379.104 1277.37 383.128C1287.69 389.175 1297.99 395.062 1308.33 400.591ZM1027.61 380.08C1027.39 378.93 1027.18 377.779 1026.97 376.627C1023.95 374.953 1020.98 373.255 1018.05 371.532C1018.33 373.163 1018.6 374.798 1018.87 376.434C1021.76 377.634 1024.68 378.849 1027.61 380.08ZM924.403 436.021C923.109 418.807 922.563 401.133 922.899 384.028C918.156 381.373 913.829 378.922 909.978 376.715C909.834 394.658 908.56 412.566 906.165 430.332C912.03 432.146 918.126 434.044 924.403 436.021ZM1277.58 421.92C1286.59 427.795 1290.16 430.124 1295.21 426.743C1299.91 423.596 1311.66 412.436 1312.77 406.985C1303.65 405.086 1294.67 402.833 1285.76 400.367C1287.71 404.528 1289.62 408.711 1291.48 412.916C1287.97 409.366 1283.52 405.881 1279.92 402.324C1278.22 400.641 1276.49 398.931 1274.75 397.206C1264.69 394.223 1254.69 391.036 1244.69 387.846C1233.71 384.341 1222.71 380.835 1211.6 377.594C1213.22 381.341 1214.79 385.084 1216.31 388.816C1238.66 399.034 1259.47 410.098 1277.58 421.92ZM999.025 412.786C997.4 405.034 995.889 397.039 994.544 388.934C991.361 386.956 988.183 384.953 985.011 382.925C985.924 391.331 986.675 399.857 987.23 408.434C991.142 409.897 995.075 411.346 999.025 412.786ZM1311.9 402.08C1319.28 403.898 1325.88 397.578 1329.38 390.745C1320.88 388.239 1312.77 385.722 1304.98 383.177C1307.54 389.58 1309.9 395.965 1311.9 402.08ZM1087.07 405.097C1076.8 400.896 1066.6 396.45 1056.63 391.76C1056.67 392.002 1056.7 392.245 1056.73 392.487C1066.94 396.897 1077.21 401.395 1087.4 405.905C1087.29 405.636 1087.18 405.367 1087.07 405.097ZM1227.98 430.539C1222.82 424.558 1217.62 418.231 1212.43 411.619C1193.35 405.515 1174.34 398.914 1155.47 391.843C1155.82 393.079 1156.17 394.316 1156.51 395.553C1182.76 407.577 1207.67 419.981 1227.98 430.539ZM969.117 450.408C966.098 435.449 963.671 420.477 961.892 405.296C957.058 402.721 952.384 400.212 947.899 397.783C948.111 412.903 947.668 428.096 946.549 443.069C953.94 445.446 961.485 447.899 969.117 450.408ZM1038.81 426.926C1037.43 422.1 1036.11 417.258 1034.86 412.399C1030.87 410.237 1026.89 408.035 1022.93 405.793C1023.54 411.169 1024.07 416.544 1024.54 421.905C1028.95 423.461 1033.37 425.014 1037.79 426.568C1038.13 426.687 1038.47 426.807 1038.81 426.926ZM1155.32 436.686C1153.61 433.791 1151.92 430.882 1150.26 427.958C1138.21 424.1 1125.77 419.86 1113.23 415.248C1113.41 416.062 1113.59 416.876 1113.76 417.689C1128.26 424.225 1142.27 430.638 1155.32 436.686ZM1267.46 451.882C1270.83 450.27 1287.02 436.277 1287.45 432.945C1267.13 427.896 1246.8 422.246 1226.52 416.032C1228.43 421.604 1230.2 427.113 1231.81 432.535C1247.09 440.525 1259.47 447.319 1267.46 451.882ZM1012.81 465.111C1011 459.409 1009.26 453.682 1007.59 447.933C1005.67 441.118 1003.79 433.821 1002 426.185C997.192 423.739 992.456 421.31 987.81 418.907C988.385 431.534 988.511 444.208 988.091 456.707C996.326 459.467 1004.59 462.277 1012.81 465.111ZM883.793 467.562C883.192 455.262 883.019 442.376 883.319 429.367C878.157 426.248 873.014 423.086 867.889 419.888C864.61 434.012 860.643 448.022 856.27 461.134C864.343 462.568 873.628 464.766 883.793 467.562ZM1109.08 452.672C1107.83 450.298 1106.58 447.878 1105.34 445.415C1090.08 439.39 1075.16 432.774 1060.49 425.606C1060.74 428.673 1060.97 431.743 1061.17 434.815C1077.36 440.577 1093.44 446.456 1109.08 452.672ZM1235.93 476.107C1240.07 477.763 1260.29 459.631 1262.58 456.13C1251.59 455.011 1212.68 446.998 1165.32 432.652C1165.95 435.822 1166.54 438.994 1167.1 442.166C1205.55 460.137 1233.31 473.869 1235.93 476.107ZM1057.14 480.874C1052.82 469.823 1048.81 458.711 1045.15 447.524C1038.62 444.394 1032.13 441.235 1025.71 438.069C1026.34 448.842 1026.67 459.501 1026.68 469.934C1037.05 473.574 1047.26 477.236 1057.14 480.874ZM929.843 482.044C928.358 473.083 927.082 463.645 926.038 453.931C918.805 449.991 911.611 445.958 904.454 441.838C902.819 451.891 900.823 461.891 898.468 471.819C908.406 474.838 918.947 478.289 929.843 482.044ZM1204 501.789C1210.88 501.832 1228.73 485.235 1234.21 480.012C1193.38 473.839 1155.62 463.986 1119.83 450.919C1120.12 452.97 1120.41 455.154 1120.68 457.379C1151.24 470.065 1179.82 484.293 1204 501.789ZM1161.77 532.129C1171.2 528.442 1193.28 513.409 1200.58 506.115C1166.49 500.789 1114.18 479.808 1062.12 455.549C1062.36 464.599 1062.37 473.661 1062.15 482.729C1115.89 502.698 1158.71 521.697 1161.77 532.129ZM886.598 500.47C885.673 493.162 884.925 485.383 884.365 477.277C874.149 471.698 864.542 466.951 855.47 463.511C852.149 473.276 848.606 482.507 844.965 490.875C859.274 493.664 873.173 496.898 886.598 500.47ZM981.429 500.965C979.359 493.62 977.414 486.323 975.599 479.052C965.164 474.168 954.816 469.062 944.551 463.756C943.653 471.298 942.574 478.747 941.313 486.062C954.45 490.734 967.959 495.772 981.429 500.965ZM1075.37 585.817C1087.23 581.59 1101.26 573.223 1111.66 565.852C1040.3 562.113 983.432 534.227 936.952 507.687C936.637 509.042 936.316 510.39 935.986 511.732C935.537 509.986 935.1 508.201 934.67 506.38C927.541 502.288 920.658 498.238 914.007 494.324C907.63 490.571 901.465 486.944 895.501 483.525C893.928 489.348 892.041 495.769 890.054 501.401C979.806 525.813 1047.9 565.041 1075.37 585.817ZM1119.11 559.511C1122.15 557.85 1126 556.215 1130.09 554.479C1141.09 549.805 1153.84 544.395 1157.15 535.744L1157.16 535.714C1111.61 528.889 1067.93 516.672 1025.76 500.457C1025.73 500.922 1025.7 501.386 1025.67 501.849C1025.46 501.293 1025.25 500.736 1025.04 500.179C1011.96 495.136 999.03 489.706 986.232 483.937C985.59 490.016 984.793 496.009 983.825 501.889C1040.09 523.669 1095.24 547.959 1119.11 559.511Z" />
</svg>
