<svg viewBox="0 0 1400 813" fill="none" xmlns="http://www.w3.org/2000/svg">
	<defs>
		<filter id="filter0_f_59_43763" x="591.284" y="0.0151062" width="824.716" height="847.036"
			filterUnits="userSpaceOnUse" color-interpolation-filters="sRGB">
			<feBlend mode="normal" in="SourceGraphic" in2="BackgroundImageFix" result="shape" />
			<feGaussianBlur stdDeviation="8" result="effect1_foregroundBlur_59_43763" />
		</filter>
	</defs>
	<g fill="#383e45" fill-opacity="0.1" filter="url(#filter0_f_59_43763)">
		<path d="M907.1,519.5c-13.2-11.4-23.4-27.9-28.4-47.1h-.4c25.8-15.7,59.3-3.2,73.6,22.8,22.4-18.6,54.7-16.3,73.2,8.3-16.8,16.6-40.9,18.1-62.6,19.9.8,4,1.2,8.1,1.4,12.3-4.5.9-9.1,1.3-13.7,1.2h0c-7.7,24.7-28.8,42-50.1,41.2,9.6-18.3,21.8-40.5,44.4-41.6-6.2-.7-12.4-2.3-18.3-4.8-5.4,1.8-19.1-12.2-19.1-12.2Z" />
		<path d="M880.8,547c-4.9,10.3-53.9,32-53.9,32,8.3,4.6,16.5,9.3,25.6,14.7h0c-10,5.6-17.9,15.9-26.3,24.4,3.1,1.1,5.8,3.3,8.7,4.8,6.3-7.4,16.7-3.5,21.1,3.9,11.3-27.8,36.6-40.5,64.6-40.1,3-14.3,19.2-24.5,32.6-19.2,2.3-1.7,4.7-3,7.3-3.8,6.5-21.2,34.3-45.7,55.1-50.2-1.2,22.3-19.1,44.5-33.9,54.8,12.3,10.6,14.7,42.1,14.3,58-4.8-.9-9.5-1.9-14.3-2.8,0,.2,0,.4.2.6-4.1,1-8.3,1.3-12.5,1.1,6,16.4,5.4,36,3.8,54.3-7.3-5-15.7-6.2-23.5-9.7,4.5,25,15,53.6,6.4,78.2l-2.8-.3h1.9c-28.9-5.2-54.5-50.7-56.1-78.7-9.2,26.4-25.7,49-46.4,62.1h0c-.7-18.1-2.2-35.5,1.9-52.8-5.1,8-10.9,15.7-17.1,22.6-3.3-5.6-5.1-12.1-6.2-18.9h0c-3.3,7.3-5.6,15.1-7,23.2-3.8-3.2-7.7-6.3-11.3-9.7,3.2,29.3,1.1,59.8-9.4,87.5-18.2-3.8-31.7-19.5-39.2-36,4.6,14.1-5.1,31.7-17.3,37.5-1.7.8-3.7,1.2-5.3,0-6.1-8.1-8.6-20.7-5.8-30.7-6.6,9.5-49.9,34.9-56.7,22.5-1.1-29.8,11.2-63.9,37.1-80.1,7-4,15.1-2.5,20.6,3.2,3.1,2.1,7.2,2.7,9,6.4,4.5,9.6-1.9,27.3-5.3,39.4,4.8-6.6,11.4-12.7,18.7-12.8,1,2.1,1.9,4.3,2.7,6.5-6.6-27.6-3.5-63.9,23.7-78.8,1.4,5.6,9.6,4.8,13.7,9.6-2.5-13.5,1.3-29.2,10.4-39.1-2,.9-4.1,1.6-6.3,2-15.9,29.7-59.2,57.3-92.2,53.6-1.9,0-2.4-1.9-2.2-3.6.7-39.8,21.7-92,67.1-88.3,9.2-15.2,25.6-30.2,43.5-19.3,9.8-20.7,25.9-41.7,50.5-42.5h0c-20.5-17.9-47.5,9.1-68.6-6,13.2-.2,25.2-23.2,43.2-24.8,17.8-4,34.6,12.1,33.5,30.6" />
		<path d="M1343.8,456.7c12.2-24,35.2-39.6,58.2-38.1.6,15.2-1.2,42.2-1.6,57.4-2.5.7-5,1.2-7.5,1.4-.5.9-1.2,1.8-1.8,2.6.6-.2,1.2-.2,1.8,0h0c6.1,11.3,7.3,24.2,5.7,36.8-.5,6.9-1.9,13.8-2.5,20.5,8.7,32.2,6.9,68.6-4.9,99.2-18.7-15.7-35.5-38.3-44.2-62.7-5,10.1-11.4,19.3-18.2,28-2,19.7-7.9,43.2-22.8,52.6-15.2-28.6-42-56-27.9-91,3.2-10.4,11.2-23.6,23.2-20.7h0c5.2,1.5,9.2,7.4,13.5,11.4,3.8-16.1,14.3-30.2,27.6-32.2,3.3,1.4,5.9,4.1,7.8,7.7,5.8-9.5,7.5-13.2,17.8-25.2h0c2.9,5.5,7.6,8.6,12.4,11.8-2.3-11.3,1.5-21.4,6.2-31.5-11.1,11.3-27.1,13.2-39.3,23,0-7.6,1.5-15.1,3.9-22.1-18.8,8.1-39.9,7.7-57.7-3.4-2.3,5.8-5.2,11.4-7.7,17,13.3.8,18.9,16.1,26.9,24.8-11.3,18.2-38.1,33.4-56.6,17.6-.7,5.9-1.6,11.9-2.6,17.7,4.4.3,8.8,1.5,12.9,3.4-.8,5.2-2.5,11.5-4.1,17.4,2.3,3.6,7.3,7.4,10.3,12.4,7.3,16,8.8,36.2,8,53.8-2.5,22.6-16.3,40.4-29.3,56.6-1.6,2-3.8,4.2-6,3.4-15.3-26.7-23.7-62.8-15.3-93.7-4.3,2.5-8.7,4.6-13.2,6-3.5,21-20.7,34.6-33,50.7-2.2-22.9,7.3-45.5,22.2-57.6,1.8-22.9,15.3-48.1,38.7-51.9-6.8-7-9.8-17.1-15-25.2-3.6-5.6-8.2-10.7-9.9-17.5-6.8,14.3-22,21.3-35.5,26.5-17.9,7.2-35.7,14.3-53.6,21.5.3-25,5.8-31.3,18.4-50.7,8.2-27.8,48.6-37.2,71.3-23.5h0c.9,1.9,1.6,3.8,2.1,5.8,4.2-8.7,12.5-14.6,20.5-18.5,3.4,2.7,7.9,8.7,9,9.6-2.2-15,1.3-31.4,7.2-45.2,4.2-6.6,12.3-6.4,18.3-10.3h0c6.9-3.3,18,26.7,18.8,34.5,13.6-10.2,31.2-14.9,47.7-10h-.2Z" />
		<path d="M1060.1,487.6c-.8,9.9,8,10.4,7.3,28,4.6,37.9-9.8,59.1-26,91.1-.8,2.1-2.6,1.8-3.6,0-22.7-31.2-24.3-110.6,22.3-119h0Z" />
		<path d="M1113,458.6c4-12.7,15.4-21,26.3-19.3-.3,6.7,10.8,15.7,13.3,23.4,5.7,22.4-7.2,49.6-22.5,63.6-8.3-7.6-15.2-18.2-19.2-29.7.7,26.4-11.1,51.4-23.6,73.3-23.3-24.1-32.9-109.4,15.1-109.7,3.5,6.6,5.9,14.2,7.2,22,1-7.8,1.1-16.1,3.4-23.6h0Z" />
		<path d="M1006.4,287.7c15.4-2.2,29.8,9.4,41.7,21.7h0c1.3.8-8,12-11.4,14.6,17-3.7,37-3.2,52.1,6.6,5.3,4.5,9.2,12.5,15.7,13.5-20.7,17.5-18.6,18.4-46.7,16.2,6.5,5.7,9.7,14.1,13.9,21.6,6.9,10.7,14.4,22.3,12.3,35.9,3.3,1.7,6.5,3.8,9.5,6.3,16.6-31.3,47.3-51.6,78.8-26.9,2.8,5-1.1,11.7-5.2,15.2-19.6,17.5-44.2,9.2-67.3,11.9h0c-1.7.2-3.4.5-5.1.8,6.8,5.4,10.8,13.9,16.4,20.6-19.5,6.4-39.8,5-59.9,1.2,7.8,6.9,16.1,14.2,19.3,24.7-22.5,19.7-56.1,23.2-76.2-1.9-3.2.7-6.5,1.3-9.8,1.6h0c-4.7.6-9.5.2-14.1-1,3.3-35.8,44.7-60.8,76.1-57.9-24.1-15.1-22.9-34.2-22.1-60-4.4-3-8.6-5.7-12.7-4.4h0c3.2-5.1,6.4-10.2,10.2-14.5-9.8,4.4-20.7,5-31.3,3.7,12.3,9.1,25.6,24.9,33.7,40,1.8,9.8,0,20.1.2,30.1-27.8,2.3-53.1-46.5-46-72.1-3.4-.7-6.7-1.5-10.1-2.2-.6-19.6,20.7-42.2,37.9-45.3h0Z" />
		<path d="M1225.1,440.1c9.6-.5,19.3,5.2,25,14.8h0c1.7,2.9-2.5,9.2-7.4,13.5-11.4,10-26.5,9.5-40.5,8.6-4.2-1-11.9.8-14.7-2.2,1.2-6.6,4.4-13.8,7.7-19.6,7.9-7.7,19.4-13.8,29.9-15.1h0Z" />
		<path d="M949.6,423.8c11.5-11.6,32.4-16.8,44.4-6.4-10.6,13.1-36.7,16.5-52.4,22.1.5-6.3,4-11.7,8-15.6h0Z" />
		<path d="M948.6,357.7c.7-2.5,3.4-4.2,5-2.6h0c16.7,8.6,21.4,14.6,33.7,30.1-5.5,1.8-11.2,2.4-16.9,1.7,3.1,3.5,5.8,7.5,7.9,12.1-23.6,22.5-58.7,41.1-88.1,19.1.8-27.1,33.1-55.4,61.5-44-1.6-5.1-4.1-11-3.1-16.5h0Z" />
		<path d="M1297.1,376.7c13.2-2,27.4,3.8,36,16.4-34.7,36.4-38.3,22.6-77.8,28,3.6-20.9,22-41.4,41.8-44.4Z" />
		<path d="M1391.6,279.8h9.8v35.9c-7.9,4-18.7,9-27.7,7.9,2,10.4,2.4,21.3-.3,31.7,13.8,10.2,26.1,25.5,26.1,44.8.3,4.4-1.8,8.5-6.4,8.7-12.9,2.4-27.4,4.6-36.3-7.6h0c-.6,1.6-1.2,3.2-1.8,4.9-6.9-11.9-17.5-20.2-23.3-33-7.7-17.2-5.2-39.4,4.9-55.1-2.2-.2-4.4-.3-6.7-.3,14-23.8,37.8-38.4,61.6-37.9h.1Z" />
		<path d="M1191,308.9c6.4,19.9,18.7,36.8,21.5,57.2,22.8-21.1,45.5-27.6,73.2-9.5-23.9,26.2-48.2,45.9-82.2,41.3l-4.8,12.6c-3.4-6.8-7.4-13.1-12.3-17.9-5.6-5.4-12.5-9.2-16.1-16.8-7.9-16.5,6.3-57.3,20.7-66.9h0Z" />
		<path d="M1081.5,128.9c9.1-5.8,15.3,5,19.2,12,8.5,19.2-6.2,39-8.2,58.2-10.5-6.1-22.8-7.8-32.7-14.7-15.4,8.4-30.7,16.1-46,23.2,4.2,4.1,8,8.7,11.3,13.8,11.3-15.3,30.3-30.6,49.5-25.4,16.6,6.5,27.4,16,46.9,15.9-2.7,12.3-16.1,16.2-25.4,21.9,2.8,7.5,4.4,15.9,4.4,24.1,20.2-19.9,56.4-13.8,69.7,11.4,8.2.6,16.2,3.7,23.2,8.9h0c-4.4,6.5-4.7,11.9-7.1,16-2.8,4.7-7.6,6.5-11.9,8.6-6.7,3.2-13.1,7.6-19.4,11.9,19.5,21,3.8,50.6,8.4,75.1-1.9-5.8-7.7-8.9-12.8-11.6-13.7-7.1-27.1-16.5-36.5-30.8-13.3-19.7-16.6-52,1.5-70.2,4.2,5.2,9.3,9.9,14.5,14.4,5.3-8.4,12.6-15,20.7-18.8h0c-16.3-6.1-34.6-8.9-51.1-2.1-2.2,16.2-8.6,31.7-14.8,46.5-24.8-6.1-38.2-42.5-39.7-68.2-2.8.3-5.6.5-8.4.7h0c2.8,11.6-1.4,23.5-6.4,33.7.2-3-2.4-4.9-4.6-6.1-14-9.3-30.3-10.7-44.8-18.3-11.8-7.8-18.4-26-15.2-42,1.3-8.6,8.3-20.2,17.8-15.5-2.4-3.6,2.3-6.9,6.9-7.2h0c12.2-22.3,38.2-35.8,60.2-21.2-5.9-8.2-7.5-25.6,3-29.8,9-3.1,17.9-10.2,27.6-14.6l.2.2Z" />
		<path d="M1235.1,59c11.4-1.9,25.9,1.6,32.7,12.7.6,4.6-1.5,9.2-2.4,13.7,4.6,3.2,11.6,3.2,13.6,9.8.6,1.4,0,3-1.5,3.6h0c.2.4.4.8.6,1.2,13.6-12.8,32.8-5.7,41.9,9.2h0c-3.1,7.9-7.6,14.9-12.9,20.7,10.6,9.9,15.9,25,27.4,34.3-22.3,18.1-46.6,27-72.2,11.3,1.1,19.2,2.8,37.3-2,55.5,4.2-3.2,9.3-1,12.6,2.4,6.8-13.7,26.4-43.7,44.1-34.1,1-21,19.1-34,35.1-42.7,4.9-15.3,20.8-34.1,37.4-32.5,8.6-4.6,6.4,35.2,3.5,39.1,12.8,20.3-.8,44.6-7.6,64.3-7.3-1.5-11.7-12.5-14.9-19.3-.6,7-1.9,14-3.8,20.6,11.5,5.4,21.8,12.4,31.3,21,4.3,2.9,3.3,8.7-.7,11.3-22.1,17-64.8,25.1-91.1,16.9,6.3,11.4,20.4,83,3.9,85.9-19.5-1.1-32.5-51.2-33.7-68.1-5.5,8.9-9.2,18.7-10.6,29.4h0c-1-4.2-5.4-4.9-8-7.5-4-6.8-11.3-10.1-15.6-16.6-.8,3.3-1.9,6.5-3.4,9.4,0,.2,0,.5,0,.5-18-14.5-34.3-35.2-32.1-59.8.9-12.9,5.9-38.7,23.4-33.3h0c2.6,1.3,4.7,3.2,6.5,5.6-1.5-20.6-1.5-38.5,8.8-54.5-16.2,21.8-37.8,67.3-40.5,65,1.3-4.8,8.6-22.8,10.6-27.6,4.6-23.6,6-33.9,31.8-40.1-8.3-6.1-18.7-6-27.3-8.6,5.6-11,14.6-18.3,23.3-26.2-2.2-4-4.2-8.2-5.9-12.6-12.6,6.3-25.6,12.5-34.8,24.8h0c-.9-5.5-5-13-3.9-20.1,4.9-16.6,19-31.6,33-37.7-7.3-4.4-17.8-14.7-26.6-11.7,9.5-6.9,19.7-12.9,30.6-14.7l-.5-.5Z" />
		<path d="M1152.1,90c6.2,7.1,7.7,22.3,7.7,33.2,1.2,12.2,8,22.8,8.8,35.1-.9,28.6-17.1,53.9-22.2,81.9-17.3-11.4-28.5-32.1-33.5-52.3-5.3-36.4,11.9-75.8,38.8-98.4l.4.5h0Z" />
		<path d="M1388.8,39.5c3.1-.6,3.7,2.6,3,5.2-6,33-33.5,62.8-67.2,57.9-5.8-41.6,28.4-63.7,64.3-63.1h-.1Z" />
		<path d="M1114.4,52.7c13.4-2.2,26.7,4.4,39.2,10.9-29.1,9.5-59,29.1-90.2,25.2,16.8-12.1,31.2-32.9,51-36.1Z" />
		<path d="M1120.1,39.8c30.8-23.9,68.2-8.8,95.3,15.1-46.3,16.5-59.9-11.8-95.3-15.1Z" />
	</g>
	<g fill="#7c6576">
		<path d="M994.7,439.3c3.7-1.9,6.4-3.3,6.9-3.5,12.7-7.1,4.8.6,4.8.6l1.5,1.1c6.5-11.2,13.1-10.7,27.9-20.1,6.8-3.5,66.5-39,59.5-28.5h2.5s1.7-3.3,2.6-3.7c.3-1,1.2-2,3.5-2,11,0,36.2-1.8,49.2-3.6,23.6-4.9,47-1.4,70.7.4,9.9,1.1,20-.5,29.4,1.8,2,.5-7.6,10.1-13.8,16.3-1.9,1.7-6.1,2.7-10.6,2.9v1.8c2-.6,5.9-1.4,5.9,0-9.3,9.5-27.9,26.5-37.1,31.9v3.6l19.6-17.4c0,1.2-.5,2.6-1.1,4.5l2.3.3c.9-10,15-18.5,24.8-29.1,7.2-6.6,12.7-14.1,23.4-14.7,29.3-2.6,48.3-6.4,77.6-12.8l57.8,3.7v-7l-14-18.5h-6.5l15.9,18.2c-7.5-.8-54.1-1.6-59.6-6.3-14.1-8.8-27.5-18.8-41.1-28.4-3.3-3.1-10.1-20.2-11.1-23.2h-1.4l8.6,20.4c-14.3-9.9-26.5-17.4-41.5-27.4h0c-3.6-2.3-10.7-7.8-11.3-8.4-1.3-.5-13.3-32.4-16.1-38.6l-1.9.8,12.1,33.9c-6.6-4-27.8-13.7-30.3-17-1.7-2.8-5-16.5-6.5-21.9l-1.2.5,5.2,20.6c-8.9-5.1-33.8-17.8-39.2-21.7-10.5-7.6-16.3-13.8-27-22.9-10.5-10.7-18.3-11.7-23.5-25.2l-2.1,1c1.7,6.2-3.8.6-11.3-2.9-11.1-6.7-22.3-10.7-32.3-18.3-2.6-3.1-20.5-11.4-24.3-18.7l-1.4,1,.8,2.6c-12.1-4.4-39-12.8-49.5-11.8v2.1c14.4-1.3,67.7,16,79.6,31.6h-6.2v2c22.8-.7,74,40.9,87.1,55.9h-5.1v2c17.4.7,45.2,22.2,61.3,31.1,22.7,12,33.4,18.9,58.8,36.6.3,1-.9,1.4-5.4,1.5v2.5c10.3-2.5,10.6-.1,19,4.8,16.5,9.9,23.4,13.7,35.9,24.6-.5.4-2,.6-5.3.5v1.8c2-.2,5.9-.5,8.1-.3,5.4,3,13.8,7.7,16.6,10.4,15.6,9.5-61.8,17.6-67.6,16.3-18.2.4-39.1-.5-57.2-1.7-11.4-.7-28.2-1.5-39.6-4.2-.6-3,3-15.9,1.5-18.5h-.7c.7,1.9-5.4,16.2-5.7,16.9,0,.3-.5.2-1.3-.7-10-6.9-28.3-14.9-32.7-29l-3.4-4.5c.6,1.2,2.8,7.7,1.3,6.8-9.6-6.9-27-17.6-37.3-23.4-11.8-6.4-57.3-29.5-56.5-42.7l-3.8-9,2.3,14.6c-6.1.5-11.7-4.3-21.9-9.6h0c-14-5.8-33.7-26.8-47.8-39.4-1.8-1.2-1.5-2.2-1.1-2.6h-1.4c-2,2.5,18.9,22.3,27.5,29.3,5.1,4.1,9.1,7.3,8.4,7.7-1.4.8-4.5-1.4-5.9-2.5l-.4,3.4c20.8,1.9,50.3,22.5,68.2,35.8l-4.4-1.4-.4,2c17.8,5.6,36,16.6,51.4,26.5,2.1,2.3,47.2,30.4,31.8,25.1v1.8c1.5,0,4.7.3,5.9.3s9.2,7.2,13,10.8c6.9,5.9.6,6.8.6,6.8-21.5,5.7-67.7,3.8-92.1.4-14.2-1.7-30.2-.2-41.7-9.8h0c-12.7-10.5-25.5-20.8-32.1-36.5l-.4.3c3.4,17.5,23.2,28.7,35.5,40.9-19.3,2.1-41-3.7-59.9-8.6-12.4-2.2-20.4-7.7-28.1-17.7-13.2-12.5-12.9-16-12.8-33.2l-.6-.2c-.6,1.7-.2,16.1,0,18.8-2-1.8-7.3-8.4-8.9-8.4,1.9,3,9.4,10.6,11.1,13.8-4.2-.5-11.5-2.1-14,.8l.3.6c14-5.8,25,9.1,32.3,19.6-13,0-26.1-5.9-38.9-5.3,18,5.4,38.5,6,56.3,13.2-10.4-1.4-20.8,1.3-31.1-.3-2.2-.5-4.3-1-6.2.6l.2.5c2.6.3,6.8.5,8.6,1.4v.5c-4.2,2.4-7,1.1-11.3,2.6,3.2,1,8.4,0,11.5-1.3,12.5-6,39.4-2.1,52.2,2.5-4.1,1.6-10.9,2.8-13.8,5.5,14.5-5.1,25.8-4.8,42.7-2.3,6.6.9,36.8,3.5,43.8,4.1,11.4.2,33,1.4,27.7,3.8-4.1,2.2-18.4,12.8-24.5,9.5l-1.5,2.4c2.4-.2,6.6-.2,4.3,1.2-11.4,6.3-74.9,40-88,47.2h-6.4c-.5,0-.9,1.2-1,1.8,12.7-1.9-37.2,22.3-50.5,28.6-5.6,3.3-7.2,2.8-17-1.7l-1.9,1.7c5.1.7,11.4,2.6-4.3,4.5-5.4.6-9,1-11.3,1.3-14.1.6-28.3-1.1-42.4,0l-1.6,1.5c10.6.4,47.8-3.6,33.8,2.9l1.9,1.2c1.2-3.1,4.5-3.2,8.4-3.1,5.9-.2,15.5-.6,15.5.1-16.5,19.4-67.4,36.5-83.5,41.3-31.8,14-41.8,12.6-75.6,12.6l-.3,1.6c4.6,1.7,16.3.8,25.6,0,8.3-.6,14.8-1.1,12.6.5-14.1,10.3-47.3,24.1-49.6,24-3.2-.2-10.8-3.2-14.1-4.9v1.8l6.6,2.7c1,.3,5.9,2,5,2.2-19,11.1-86.7,58.2-89.8,67.9,26.8-20,54.8-42.3,69.8-52.8-12.2,18.2-15.9,28-12.1,55.2-9.4,7-32.2,31.9-32.6,35.7,12.5-15,31.9-34.3,32.9-33.3,2.6,13,3.2,24.1,8.3,23.3-8.9-13.7-14.9-62.8,13.2-86.8,8.8-5.2,18.5-10.5,28.7-15.4l-1,4.4h1.6l4.4-6.7c28.8-14.1,57-27.9,88.6-35.8,0-.9,0-.8,0,0,4.2-1.4,9.8-2.3,13.6-3.9,0,1.2-6.7,15.8-13.4,17.2v1.8c5.6-1.8,2.3,1,0,6.4v3.8s12.3-23.3,17.2-31.7c20.3-8.4,35.6-22.4,53.9-32.5,25.4-11.3,57.6-28.4,81.6-40.5l.5.2Z" />
		<path d="M1244.2,514.2c-1.3-5.7,45.6-38.8,44.7-31.3-1.9,1-3.5,4.6-4,6.3h2.2c3.6-11.3,18.9-15.6,28.4-21.5,7.6-2.7,21.1-10.9,16.7-2.2l2.5-1.3c-.2-2.2,6.2-7.4,10.3-9.2,6.5-3.3,23.1-14.9,18.8-7.2l3,1c4.5-12,22.5-27,34.6-34.7v-4.1c-29.2,22.2-64.3,57.6-103.2,55.6v2.9h8c-2.1,1.2-4.4,2.4-6.8,3.7h0c-12.8,7.6-38.2,20.1-52.6,26l1.3,1.6,21.4-10.5c-9.3,6.1-17.1,13.8-26.4,20v1.1l4.3-3-4.3,6.9h1.1Z" />
		<path d="M1235.2,38.1c6-.2,26,0,33.3,2.1,9.6-.6-26.9,12.7-28.5,14.7l1.9,1.9c18.6-11.8,49.1-21,58.1,5.4,9.1,22.2,20.5,44.2,28.2,66.9-6.4-2.4-30.5-13.2-23.9-3.9,10,1.4,18,0,26.3,13.9,19.8,34,40,60.7,65.6,81.6-12,7.9-39.9,28.7-55.7,49.2-9.9,12.8,2.7,1,18.7-13.9,16-15,35.5-33.3,39.3-33.2,1,.8,3,2.4,3.6,2.9v-6.2c-7.5-10.2-23.2-18.1-23.3-33.7l-2.3,1.9c.2,2.2.8,6.7,1.7,7.6-25.6-27.5-46.9-59.3-58-95.5-5.3-16.4-12.3-31.6-20-46.9-11.9-30.9-126.5-16.1-195.5-9.8,43.5,1.7,86.8-4.8,130.4-5h.1Z" />
	</g>
	<g fill="#3aadaa" fill-opacity="0.9">
		<path d="M658.3,630c-2.1-3.4-6.7-3.9-10.2-5.9-6.5-5.4-15.4-6.5-23.3-2.9-15.7,7.8-28.7,21.4-34.7,38-5.1,11.3-9.6,24.4-6.7,36.9,20.5,4.4,49.8-10.2,65-23.7,6.7-10.4,14.9-32.5,9.8-42.3h.1Z" />
		<path d="M673.5,654.3c-12,.7-24.1,11.2-27.4,22.8-1.1,8.5,1.4,18.6,7.5,24.7,10.4,2.3,19.6-8.9,24.4-17.2,5.8-9.7.4-21.4-4.5-30.3Z" />
		<path d="M703.4,588.3c-25.1,10.3-34.7,39.9-28.4,65,3.8,23.8,25.2,42.9,48.5,47.1,12-26.2,15.3-56.4,9.5-84.6-3.7-11.4-13.5-20.7-25.1-23.7-1.8-.5-3.7-.8-4.5-3.8h0Z" />
		<path d="M743.8,553.7c-25.7,7.8-34.3,43-15.2,61.8,5.4,5.5,12.2,9.4,18.4,13.8,2.8-24,32.6-43.7,19.8-68.9-2.9-5.6-10-6.5-15-9.5-3.2-2.4-7,.6-8.1,2.8h0Z" />
		<path d="M732.2,544.1c-20.6-18.7-57.8-22.5-80.2-5-23.4,15-34.4,42.5-35.4,69.8-.2,1.7.6,3.3,2.5,3.3,40.4,3.3,102.3-26.2,113.1-68.1h0Z" />
		<path d="M779.1,527.8c-19.5,8.7-32,30.6-53.7,35.1-11.4,2-23.9-.2-34.1-5.8-5-2.9-9.6-7.2-15.3-7.9,38.9-53.5,46.9-49.1,103.1-21.4h0Z" />
		<path d="M758.2,555.4c9.5-10.6,25.5-1.4,29.3,10.3,4.2,9.9,3.7,21.7-1.1,31.3-6.1,11-15.4,19.9-24.4,28.5-10.8-16.3-13.2-53.3-3.8-70.1Z" />
		<path d="M770.7,585.6c30.9-4.7,75.4-34.2,86.3-64.4-44.3-1.3-73.7,20.8-86.4,64.4h.1Z" />
		<path d="M779.3,653c34.1-17.4,58.1-53.2,61.2-91.3.3-1.6-.4-3.1-2.1-3.1-22.4-2.7-42.6,13.3-51.8,32.9-10,19.2-8.5,40.4-7.2,61.5h-.1Z" />
		<path d="M853.8,542.9c-26.7,13.4-26.8,50.8-16.3,75.1,12.5,22.1,31.1,46.3,57.7,50.3h-2.1l3.2.3c10.7-24.4-5.9-66.6-14.4-91.2-4.8-14.5-19.6-23.8-28.1-34.4h0Z" />
		<path d="M878.1,526.2c-9.7,17.1-14,39.8-5.9,58.3,8.9,15.1,29.5,13.8,43.4,21.4,5.3-32.4-3.3-68.6-37.5-79.7h0Z" />
		<path d="M855.7,523.7c4-23.3,38.7-27.8,52.4-10.3,9.6,11.9,12,28,17.4,42-27.7,6.4-53-12.2-69.8-31.7h0Z" />
		<path d="M882.1,515c8.2-15.8,30.4-20.6,44.4-9.6,11.9,9.2,15.6,37.7,14.9,52-10-2-20.6-2.3-30.3-5.6-14-7.4-24.8-22.1-29-36.7h0Z" />
		<path d="M899.4,511.7c-1.3-26.5,41-53.3,64.1-57.3-4.1,30.5-36.8,56.4-64.1,57.2h0Z" />
		<path d="M832.9,513.4c24.2.7,48-15.1,56.7-37.7-25.5-3.9-44.9,17.9-56.7,37.7Z" />
		<path d="M738.9,519.2c23.5-10.6,48-18.6,72-28,16.9-6.1,34.3-13.8,52.5-12.7-34.3-3.4-75.5-17.5-103.8,9.4-8.3,9.3-18.1,18.6-20.7,31.3h0Z" />
		<path d="M721.3,466.4c27.1,14.8,60.9-15.6,85.4,11.9,7.4-21.4-16.6-38.9-36.6-34.6-20.2,1.4-33.5,22.3-48.9,22.7h0Z" />
		<path d="M823.7,480.7c5.1-25.4,48.5-36.6,67.8-23-13.7,13.7-48.5,17.4-67.9,23h.1Z" />
		<path d="M974.3,445.3c-27.4-29.6-77.4-21.9-101.2,8.6,19.6,17.8,82.5,7.7,101.2-8.6h0Z" />
		<path d="M808.3,417c41.7-21,95.4,11,96.8,57.7-40.7,7.1-84.3-17.8-96.8-57.7h0Z" />
		<path d="M1014,430.8c-48.9,5-53.4,77.7-25.2,108.7,1.1,1.6,3.2,2.1,4.1,0,17.7-28.8,34.5-46.8,29.4-83.2.6-16.9-9.2-16.3-8.2-25.6h0Z" />
		<path d="M1061.8,405.7c-50.9-.3-46.5,74.5-17,100.2,21.2-27.9,38.1-67.8,17-100.2Z" />
		<path d="M1103.6,386.6c-27.4-2.6-35.1,25-33.7,47.2,3.3,13.1,12.7,24.2,23.2,32.2,16.9-12.7,31.9-36.5,25.5-58-2.8-7-15.4-15.2-15.1-21.4h0Z" />
		<path d="M1195.3,433.8c13.5,26.5-20,42.6-40.9,48.2-20.2,6.5-40.4,13.1-60.7,19.6.5-24.3,7.1-28.9,20.8-46.3,31.3-18.8,49-21.1,80.7-21.5h0Z" />
		<path d="M1128.9,438.5c20.3-10.8,45.7-14.8,66.4-4.7l-80.7,21.5c2.8-7.2,6.9-13.6,14.3-16.7h0Z" />
		<path d="M935.6,406.3c-.5,3,1.6,5.8,3.7,8,22.9,23.2,61.1,19.7,86.3,1.9-1.8-5.4-5.9-9.6-10.1-13.4-24.8-25.4-57.2-22.1-79.9,3.5h0Z" />
		<path d="M928.3,415.9c-5.3.5-10.7.2-15.9-.9,5.3-41.7,78.2-66.6,110.9-46-23.4,24.4-57,42.8-94.9,46.9h0Z" />
		<path d="M1071.5,392.4c-30.7,7.5-64.2,3.7-94.7-4.5-6.3-3-11.7-9.7-18.5-8.3,7.5-1.7,14.1-6,21.1-9.3,32.4-16.8,71.5-8.1,92.2,22.2h0Z" />
		<path d="M821.7,367.4c32.2,19.7,72.2,3.8,99.7-17.5-22.3-41.6-95.8-26-99.7,17.5Z" />
		<path d="M893.5,309.8c-5.6-2.8-7.3,5.5-5.1,9.4,3.1,20.4,26.9,22.4,43.3,18.1-14.6-15-20.1-20-38.1-27.5h-.1Z" />
		<path d="M923,288.6c-12.5,26.7,22,71.7,50.7,68.8-.2-9.1,1.9-18.6-.2-27.4-12.5-17.7-31.1-36.4-50.5-41.4h0Z" />
		<path d="M1000.3,268c-27.2-25-58.9-28.1-82.6,2.8-4.5,5.3-8.7,11.9-7.4,18.8,30.5,7.5,72.1,7.3,90-21.6h0Z" />
		<path d="M959.1,303.2c16.2-27.1,47.6-26.8,75.1-20.7,13,1.1,18.7,14.4,29.8,17.1-7.8,3.7-13.6,11-21.8,13.9-14.5,3.6-30,.1-44.8.3-16.3,1.7-26.5-11.9-38.4-10.6h.1Z" />
		<path d="M973.9,303.2c-1.2,14.3-2.1,30.4,4.9,43.5,15.5,15.7,38.6,29.6,60.7,29.5,4.9-17.5-1.2-29-12.5-42-10.4-21.6-31.5-30.4-53.1-31Z" />
		<path d="M1058.8,372.8c-3,.3-6,.7-9,1.2,5.1-4.1,9.3-11.9,14.2-16.6,19-19.2,46-24.6,70.6-13.2,10.4,2.4,8.4,12.6.3,17.6-22.6,16.1-50.6,8.3-76.1,10.9h0Z" />
		<path d="M1228.9,400.9c-12.9-18.1-37-15.3-54.1-4.9-9.5,3.5-14.2,14.2-16.7,23.1.4,1,1.8,1.3,2.9,1.3,19.8.7,42.7,4.6,59.6-7.1,5.6-4,10.3-9.7,8.4-12.3h-.1Z" />
		<path d="M1220.8,422.1c-25.2,9.2-37.5,31.3-15,51.6,7.6,9.8,12.6,24.3,25.8,27.5,3.7-19.5,8.9-40,6-59.9-2.7-9.1-8.5-12.4-16.7-19.3h-.1Z" />
		<path d="M1259.8,380.2c-9.3,4.1-21.7,4.5-24,16.3-7.1,17.2-8.2,36,2.7,51.7,3,6.1,8.4,13.6,16.1,11.9,10.3-4.7,13.3-18.7,19.8-27.4,3.3-5.8,6.8-11.9,6.8-18.6.4-8.2-13.9-37.1-21.4-33.9h0Z" />
		<path d="M1247.2,499.4c-36-13.6-69.4,16.3-69.1,52.8,22-.9,43-14.1,60-27.9,4.9-6.9,7-17.3,9.1-24.9Z" />
		<path d="M1153.9,596.7c18.4-18.3,38-31,40-59.2-25,6.4-43.1,32.7-40,59.2Z" />
		<path d="M1241.2,511.4c-11.9,1.6-21.4-1.6-26.4,12.5-6,12.7-11.5,26-12.5,40.1-.9,20.5,8.3,50.4,21.2,66.5,2.5.7,4.9-1.3,6.8-3.1,25.1-22.6,41-49.8,30.4-83.5-2.4-22.4-17.1-22-19.4-32.4h0Z" />
		<path d="M1287,481.2c-12.3-2.7-22.3,8.2-26.3,18.9-16,33.3,15,57.4,31.5,83.1,24.2-13.5,34.4-58.7,19.7-82.1-6.9-7.6-15.5-16.1-24.9-19.9h0Z" />
		<path d="M1227.3,471.1c16.3,26.4,56.7,13.9,72.4-7.1-12.7-13.8-23.9-29.7-44.9-19.7-9.2,4.9-25.3,15.9-27.5,26.8h0Z" />
		<path d="M1333.5,462.2c-37.1,6.2-39.2,53.6-24.3,81.3,19.8-17.1,57.9-61.2,24.3-81.3Z" />
		<path d="M1362.4,446.2c6.3,9.6,20.5,11.3,27.4,20.5,15.8,30.5,13.1,69.3-1.1,100-26-19.3-60.8-51.3-52.3-86.7,7.2-15,12-19.8,26.1-33.8h0Z" />
		<path d="M1390.6,423.8c-8-.4-10,12-13.8,17.4-4.6,18.2,4.1,26,16.7,37.1,3.5-18.1,8.4-38.1-2.9-54.5h0Z" />
		<path d="M1269.2,420.6c15.6,10.9,36.1,15.2,54.9,13.1,15.2-3.5,30.2-8.1,45.9-8.3-28-31.5-69.9-32.4-100.9-4.8h0Z" />
		<path d="M1399.9,396.7c-30.2-10.3-61.1,23.3-61,52.5,16.6-10.5,39.5-11.7,52.2-28.3,4-7.8,5.2-15.5,8.8-24.1h0Z" />
		<path d="M1400.2,419.9c-23,5.6-46.8-2.3-69.2-10,10.6-25.7,47.7-46.8,70.2-41.3" />
		<path d="M1330.3,301.1c27-5.4,76.8,25.4,65.9,55.8-9.1,3.9-24.7,4.7-34.5,2.5-22.3-10.1-36.9-33-31.5-58.3h0Z" />
		<path d="M1234.8,370.1c8.5-36.8,62.1-56.2,88.1-25.6-37.5,32.9-47.1,20.9-88.1,25.6h0Z" />
		<path d="M1162.1,267.6c-15.2,7.5-32.7,45.7-23.4,61.1,4.1,6.9,12,10.4,18.3,15.3,5.6,4.4,10.1,10.2,13.9,16.4,27.5-52.8,13.4-43.2-8.8-92.7h0Z" />
		<path d="M1269.2,311.2c-41.1-23.3-82.5-.6-107.8,34,40,13.7,77-5.8,107.8-34Z" />
		<path d="M1361.2,254c-31,6.7-56.3,42.1-39.7,72.1,6.5,11.7,18.5,19.3,26.3,30.1,21.4-46.2,31.1-51.3,13.4-102.2h0Z" />
		<path d="M1389.1,241c-26.9-.5-53.8,12.8-69.7,34.6,27.9.6,54.3,12.4,80.8-1.8v-32.7h-11.2,0Z" />
		<path d="M1077,238.8c-19.9,15.8-17.2,45.9-1.6,64.1,10.6,13.1,25.8,21.6,41.3,28.2,5.8,2.4,12.3,5.3,14.5,10.6-4.6-16.2,5.2-33.8,1.3-50.2-7-25.8-38.7-35.1-55.4-52.7h-.1Z" />
		<path d="M1165.1,239.7c-25.6-16.4-63.2-7.3-76.8,20.3-4.8,9.4-6.8,20.3-13.7,28.2,25.6,1.6,46.3-17.2,69-26,15.2-4.3,13-10,21.5-22.5h0Z" />
		<path d="M1054.7,227.6c5.8-10.2,18.1-14.8,29.7-16.4,25.4-4.6,53.5,8.3,61.5,33.8-29.2-11.5-63.2-23.4-93.5-9.6-2-3.1-.4-7.8,2.3-7.9h0Z" />
		<path d="M1023.1,169.5c-47,18.2-23.2,97.3,19.2,105.8,23.9-41.5,28.2-81-19.2-105.8h0Z" />
		<path d="M959.2,206c16.7-22.2,41.1-47.5,71.4-41.3,9.6,2.1,18.1,7.7,27.5,10.7,8.1,2.5,16.6,3.1,25.1,3.8,0,0-.2,0,.5,0-2.9,21.3-119.6,49.8-124.4,26.8h0Z" />
		<path d="M927.6,169.8c-9.5-4.2-18.5,5.1-20.2,14.1-3.6,14.7,3.9,31.3,17.2,38.4,8.9,5.4,54.4,11.6,56,22.2,20.8-28.2-4.1-62.7-30.2-76.8-4.6-2.5-9.7-4.6-14.9-4.5-5.3.2-10.7,3.3-7.9,6.6h0Z" />
		<path d="M1015,153.5c-28.2-33.9-85.5-5.9-89.2,34.4,29.9-9.9,59.4-21.2,89.2-34.4Z" />
		<path d="M1007,116.6c-18.6,8.2-3.6,32.6,9.4,39,11.1,4.6,23.2,6.9,34.3,11.8,3-19.4,23.1-42.8,4-59.8-4.1-5.4-10.3-7.5-16.5-4.3-11,4.1-21.1,10.5-31.2,13.3h0Z" />
		<path d="M1117.7,67.3c-23.2,16.2-43.1,42.1-44.5,72.1-3.4,26.8,16.1,52.8,38.5,65.4,4.8-17.1,12.6-33.3,19.2-49.8,3.3-8,6.7-16.4,6-25-.9-11.2-8.7-20.9-10-32,0-10.5-1.9-24.4-9.2-30.8h0Z" />
		<path d="M1205.9,184.2c-22-5.7-29.1,26.2-25.9,42.4,5.2,19.6,19.7,31.7,35.8,42.6,0,0,.2-.2,0-.4,10.8-22.3,15.5-70.7-10-84.5h0Z" />
		<path d="M1225.7,136.9c-18.5,18.6-45.2,64.2-48.4,62,1.5-4.4,9.8-20.8,12-25.2,5.9-25.8,9.5-30.8,36.4-36.8Z" />
		<path d="M1242.3,126.6c-25.4,7.7-32.8,34.9-29.1,60.2.2,14.7,3.1,33.5,16.4,43,18-48.8,14.3-52.8,12.7-103.3h0Z" />
		<path d="M1198.5,131.1l-3.3-.9c13.3-.2,26.2,4,37.5,10.8,32.4,18.7,61.3,14.9,91.8-5.5-7.7-5.9-14.6-12.5-20-20.6-15.6-18.6-40.9-29.1-63.8-20.6-17.4,7.7-34.9,19.5-46.2,34.9.8.8,2,1.1,4,1.9h0Z" />
		<path d="M1254.1,204c21.8-9.4,48.2-4.5,68.9-16.1.7-5.5-3.9-10.2-8.2-13.7-9.4-9.4-23.2-11.8-34.1-3.3-8.4,6.7-27.9,21.8-26.7,33h0Z" />
		<path d="M1254.1,229.6c8.1-14.6,22.7-24.4,34.3-36.1,16.3-16.5-11.9-19.4-20.6-7-17.1,13.6-13.9,23.9-13.7,43.1h0Z" />
		<path d="M1246.5,282.2c1.7-12.9,9.6-23.3,16.7-33.8,8.2-14.4,6.2-34-4.9-46.4-4.8-5.7-13.9-10.5-20.1-3.8-23.9-8-29.7,28.4-26.3,45.2,2.9,17.9,14.9,20.7,25.5,31.9,2.9,2.4,7.9,3.1,9,6.9h.1Z" />
		<path d="M1267,214.7c2.7,7.1,13.2,8.2,17.8,14.2,16.9,19.1,25.5,62.6,16.9,86.7-20.5,11.3-37.8-35.5-41.6-50.3-3.1-16.5-3.2-36.5,7-50.6h-.1Z" />
		<path d="M1272,227.5c19.6,17.6,47.6,16.2,72,12.2,17.9-2.7,36.4-5.9,51.4-16,4.5-2.5,5.7-7.7.8-10.3-10.9-7.9-22.8-14.5-36.2-19.4-28.3-12.8-67.2-1.1-87,23.9-2.5,1.7-5.5,10.3-1,9.7h0Z" />
		<path d="M1174.6,116.3c23.1-21.5,56.7-27.7,84.9-40.5,7.2-3.5-4.2-9.8-8.4-10.3-28.9-11.5-61.7-1.3-78,25.9-6.6,7.4-.7,17.9,1.5,24.9h0Z" />
		<path d="M1313.2,79.3c34.1,4.5,68.5-19.4,76.1-52.9.4-1.5.6-3.4-.7-4.3-34.7-2.7-82.2,14.4-75.4,57.2Z" />
		<path d="M1386.6,98.7c-32.3-1.8-59.8,43.6-39.8,70.4,10.4-2.5,19.4-9,27.8-15.7,16.9-11.1,22.7-31.7,17.1-50.9-.7-2.7-1.5-5.4-5.1-3.8Z" />
		<path d="M1368.6,133.3c-18,12.5-5.5,53.8,13.4,59.7,6.8-15.6,17.8-31.7,13.5-49.7-2.3-11-19.1-22.9-26.9-10h0Z" />
		<path d="M1354.3,123.6c-16.6,8.4-38.5,15.5-46.8,33.1-10,26.4,7.3,55,19.4,78.1,38.9-21.4,48.7-73.4,27.4-111.2h0Z" />
		<path d="M1308,85.2c-36.2-38.8-66.4,7.2-79.9,40.6,30.8-1.7,65.3-10.5,79.9-40.6h0Z" />
		<path d="M1210.1,66c-5.3,34.2,27.8,63.5,56.1,76.8-.5-20.6.3-41.7-3.9-61.8-6.4-21.4-35.5-24.4-52.2-15Z" />
		<path d="M1240.8,76.8c2.2-5.8,12.2-23.9,6.3-28.2-20.1-17.2-49.4-8.5-69.7,4.2,18.9-3,42.1,23.9,63.4,24h0Z" />
		<path d="M1017.7,66.6c35.1,3.6,68.7-14.2,102-23-46.4-23.1-65.1-2.9-102,23h0Z" />
		<path d="M1081.9,21.9c40.3,3.5,58.2,28.9,107.9,13.8-30.9-22.1-73.8-35.4-107.9-13.8h0Z" />
		<path d="M879.9,386.8c4.9-22.4,42-31.9,59.3-20.1-12.6,12.2-42,15-59.3,20.1h0Z" />
	</g>
</svg>