<svg viewBox="0 0 64 64" fill="none" xmlns="http://www.w3.org/2000/svg">
<path d="M3 14L20.5 3.5L48 19L48.5 43L30.5 52.5L25.5 49.5L25 50.5L22.5 51.5L20 49.5L18 45L12.5 42L10.5 44L8 43L6 40.5L5 37.5L3 36V14Z" fill="#FFFFFF"/>
<path d="M30.4881 51.9247L47.9005 42.0744V19.47L30.4881 29.5601V51.9247Z" fill="#7C6576"/>
<path d="M56.2236 33.9922L58.502 38.9453L59.1592 38.6172C59.5045 38.4448 59.911 38.696 59.9111 39.082V42.0088L60.6143 43.5381V50.6406L44.6084 59.916L40.3398 57.4219C40.3401 57.4424 40.3418 57.4629 40.3418 57.4834C40.3418 58.5499 39.9672 59.3472 39.2871 59.7275C39.0166 59.8786 38.7096 59.9551 38.375 59.9551C37.8965 59.955 37.3857 59.8 36.8574 59.4951C35.0623 58.4586 33.6016 55.9293 33.6016 53.8564C33.6016 53.7323 33.6088 53.6118 33.6191 53.4951L32.4355 52.8037L32.4736 39.1055L49.1191 29.666L56.2236 33.9922Z" fill="#FFFFFF"/>
<path d="M40.2901 43.5499L55.8923 34.9944L59.6862 43.2425L44.8814 51.7668L40.2901 43.5499Z" fill="#7C6576"/>
<path d="M44.6088 57.6676L49.6328 54.775V57.0042L44.6088 59.9157V57.6676Z" fill="#7C6576"/>
<path d="M55.5903 51.3064L60.6143 48.4137V50.643L55.5903 53.5545V51.3064Z" fill="#7C6576"/>
<path d="M39.3086 43.2676L44.6084 52.7539V59.916L40.3398 57.4219C40.3401 57.4424 40.3418 57.4629 40.3418 57.4834C40.3418 58.5499 39.9672 59.3472 39.2871 59.7275C39.0166 59.8786 38.7096 59.9551 38.375 59.9551C37.8965 59.955 37.3857 59.8 36.8574 59.4951C35.0623 58.4586 33.6016 55.9293 33.6016 53.8564C33.6016 53.7323 33.6088 53.6118 33.6191 53.4951L32.4355 52.8037L32.4736 39.1055L39.3086 43.2676Z" fill="#3AADAA"/>
<path d="M30.4883 29.5605V51.9248L25.1895 48.8223C25.1576 49.8176 24.7884 50.5614 24.1387 50.9248C23.8682 51.0761 23.561 51.1523 23.2266 51.1523C22.748 51.1523 22.2374 50.9973 21.709 50.6924C19.9139 49.6557 18.4531 47.1265 18.4531 45.0537C18.4531 44.9953 18.4557 44.9377 18.458 44.8809L12.041 41.124C12.0388 42.1855 11.6646 42.9792 10.9863 43.3584C10.716 43.5093 10.4095 43.5859 10.0752 43.5859C9.59668 43.5859 9.08591 43.431 8.55762 43.126C6.76241 42.0896 5.30193 39.5602 5.30176 37.4873C5.30176 37.3839 5.30529 37.2828 5.3125 37.1846L3.38574 36.0566V14.1729L30.4883 29.5605Z" fill="#3AADAA"/>
<path fill-rule="evenodd" clip-rule="evenodd" d="M20.8125 3.31641C21.136 3.31643 21.4558 3.4008 21.7373 3.56055L47.8662 18.3994C48.4511 18.7316 48.8145 19.3556 48.8145 20.0283V28.9277C48.9091 28.9131 49.0053 28.9053 49.1016 28.9053C49.4453 28.9053 49.7825 28.9999 50.0762 29.1787L56.4482 33.0596C56.7679 33.2542 57.0204 33.5361 57.1768 33.876L58.9443 37.7197C59.0886 37.6723 59.2399 37.6475 59.3906 37.6475C60.1814 37.6475 60.8251 38.2911 60.8252 39.082V41.8086L61.4453 43.1562L61.5283 43.3379V51.1699L56.0488 54.3457L54.6758 55.1387L45.5498 60.4268C45.2648 60.5918 44.9397 60.6797 44.6104 60.6797C44.2788 60.6796 43.9522 60.591 43.666 60.4238L40.8369 58.7705C40.6121 59.463 40.1948 60.0054 39.6211 60.3262C39.2473 60.535 38.8279 60.6406 38.375 60.6406C37.7746 60.6406 37.1486 60.4548 36.5146 60.0889C34.5807 58.972 33.0487 56.4108 32.9248 54.1484L32.4512 53.8721C31.9165 53.5598 31.5713 52.9991 31.5273 52.3867L31.4189 52.4482C31.1381 52.6071 30.8187 52.6914 30.4961 52.6914C30.1638 52.6914 29.8367 52.6025 29.5498 52.4346L25.627 50.1387C25.3918 50.7498 24.998 51.2297 24.4727 51.5234C24.0989 51.7324 23.6795 51.8379 23.2266 51.8379C22.6262 51.8379 22.0002 51.6521 21.3662 51.2861C19.4901 50.2028 17.9913 47.7603 17.79 45.5498L12.5156 42.4619C12.2866 43.1252 11.878 43.6447 11.3213 43.9561C10.9473 44.1651 10.5274 44.2715 10.0742 44.2715C9.47397 44.2714 8.84848 44.0856 8.21484 43.7197C6.29916 42.6137 4.77719 40.0902 4.62793 37.8438L3.39844 37.124C2.82671 36.7893 2.47168 36.1694 2.47168 35.5068V14.7256C2.47169 14.0594 2.82976 13.4382 3.40625 13.1045L19.874 3.56836C20.1588 3.40357 20.4834 3.31641 20.8125 3.31641ZM32.7031 39.2402L32.7637 52.9736C32.8094 53.0138 32.8585 53.0507 32.9121 53.082L33.4023 53.3682C33.5581 52.0092 34.3731 51.1563 35.5693 51.1562C36.0882 51.1563 36.637 51.3214 37.2002 51.6465C39.0898 52.7375 40.5701 55.3014 40.5703 57.4834C40.5703 57.5072 40.5687 57.5312 40.5684 57.5547L44.127 59.6338C44.2762 59.7211 44.4433 59.7646 44.6104 59.7646C44.7765 59.7646 44.943 59.7219 45.0918 59.6357L55.5908 53.5518V53.5547L60.6143 50.6426V43.5381L59.9111 42.0088V39.082C59.911 38.7809 59.6632 38.5615 59.3906 38.5615C59.3139 38.5616 59.235 38.5793 59.1592 38.6172L58.502 38.9463L56.3457 34.2588C56.2659 34.0853 56.1357 33.9391 55.9727 33.8398L49.6006 29.96C49.5912 29.9543 49.5808 29.9497 49.5713 29.9443L32.7031 39.2402ZM35.5693 51.6133C34.5965 51.6133 33.9117 52.3457 33.8379 53.623L33.8408 53.625C33.8364 53.7012 33.8311 53.7764 33.8311 53.8564C33.8311 54.4825 33.9682 55.151 34.21 55.8047C34.742 57.2424 35.779 58.6093 36.9717 59.2979C37.476 59.589 37.9527 59.7266 38.375 59.7266C38.5233 59.7266 38.665 59.7092 38.7988 59.6758L38.9941 59.6133C39.0568 59.5885 39.1175 59.56 39.1758 59.5273C39.2674 59.4761 39.3526 59.414 39.4326 59.3438C39.4835 59.2991 39.5323 59.2513 39.5781 59.1992C39.6478 59.12 39.7113 59.0324 39.7686 58.9365C39.965 58.6072 40.0861 58.1815 40.1094 57.6699L40.1133 57.4834C40.1133 57.4179 40.1075 57.3505 40.1045 57.2842L40.1084 57.2861C40.0206 55.3228 38.65 53.012 36.9717 52.043C36.4676 51.752 35.9915 51.6134 35.5693 51.6133ZM20.8125 4.23047C20.6465 4.23042 20.4806 4.27432 20.332 4.36035L3.86426 13.8955C3.56808 14.067 3.38574 14.3833 3.38574 14.7256V35.5068C3.38574 35.8475 3.56643 36.1629 3.86035 36.335L5.0957 37.0576C5.23435 35.6645 6.05521 34.7872 7.26855 34.7871C7.78766 34.7871 8.33689 34.952 8.90039 35.2773C10.79 36.3684 12.2704 38.9323 12.2705 41.1143C12.2705 41.1622 12.268 41.2099 12.2666 41.2568L18.2344 44.75C18.3348 43.284 19.1705 42.3537 20.4199 42.3535C20.939 42.3535 21.4883 42.5185 22.0518 42.8438C23.9414 43.9348 25.4217 46.4987 25.4219 48.6807C25.4219 48.7733 25.4174 48.8643 25.4121 48.9531L30.0117 51.6455C30.1613 51.733 30.3286 51.7773 30.4961 51.7773C30.6589 51.7773 30.8222 51.7353 30.9688 51.6523L32.2979 50.9004L32.2451 39.1074C32.2447 39.0238 32.29 38.9457 32.3633 38.9053L47.9004 30.3428V20.0283C47.9004 19.6832 47.7151 19.3648 47.415 19.1943L21.2861 4.35547C21.1393 4.27211 20.9758 4.23049 20.8125 4.23047ZM20.4199 42.8105C19.3993 42.8107 18.6961 43.6168 18.6826 45.0127L18.6836 45.0137C18.6834 45.0273 18.6816 45.0399 18.6816 45.0537L18.6855 45.2422C18.7688 47.191 20.1197 49.4852 21.7812 50.4697C21.7953 50.4781 21.8091 50.487 21.8232 50.4951C22.2106 50.7187 22.5821 50.8507 22.9248 50.9004C23.028 50.9154 23.1288 50.9238 23.2266 50.9238C23.3841 50.9238 23.5337 50.9029 23.6748 50.8652C23.7991 50.832 23.9168 50.7859 24.0264 50.7246C24.6035 50.402 24.9615 49.6973 24.9639 48.6904C24.9639 48.6873 24.9648 48.6838 24.9648 48.6807C24.9647 46.6775 23.5581 44.242 21.8232 43.2402C21.319 42.9491 20.8422 42.8105 20.4199 42.8105ZM7.26855 35.2441C6.28015 35.2442 5.59015 36 5.53516 37.3154L5.53809 37.3174C5.53568 37.3738 5.5303 37.4279 5.53027 37.4863C5.53027 39.4897 6.93693 41.9261 8.67188 42.9277C8.85837 43.0354 9.0412 43.1218 9.21875 43.1885C9.52107 43.3017 9.80825 43.3574 10.0742 43.3574C10.3708 43.3574 10.6411 43.289 10.875 43.1582C11.0815 43.0427 11.259 42.8776 11.4033 42.668C11.6381 42.3267 11.7828 41.8662 11.8086 41.3008L11.8135 41.1143C11.8135 41.0727 11.8088 41.0301 11.8076 40.9883L11.8096 40.9893C11.7529 39.0106 10.3709 36.6538 8.67188 35.6729C8.16763 35.3817 7.69086 35.2441 7.26855 35.2441Z" fill="#383E45"/>
<path d="M33.175 45.3316L33.1893 40.3841L38.7726 43.7839L42.226 49.9642C42.3612 50.2061 42.0915 50.4722 41.8514 50.3338L33.175 45.3316Z" fill="#3AADAA" fill-opacity="0.5"/>
<path d="M42.4882 53.8502H41.834L41.8441 53.8445V51.375H42.4882C42.4882 51.375 42.6337 51.3398 42.6337 51.1691C42.6337 50.9984 42.4882 50.9726 42.4882 50.9726H41.8441C41.8441 50.9726 41.4464 50.5457 40.899 50.6118C40.7155 50.634 39.5897 50.8636 39.5897 51.368V54.0378C39.5897 54.805 40.3657 55.2053 41.084 54.9358C41.3854 54.8228 41.687 54.7503 41.8316 54.2526H42.4882C42.4882 54.2526 42.6337 54.2174 42.6337 54.0467C42.6337 53.876 42.4882 53.8502 42.4882 53.8502Z" fill="#FFFFFF"/>
</svg>
