<svg viewBox="0 0 64 64" fill="none" xmlns="http://www.w3.org/2000/svg">
<path d="M40.6397 6.7627C46.2563 6.76274 51.5453 8.03144 55.5352 10.335C59.5783 12.6695 61.8077 15.787 61.8125 19.1133C61.8129 19.4106 61.7947 19.7065 61.7598 20H62V42.5L61 45L58 49L54 51L49 53L41 54L33 53L26 50.5V27.9043C25.9584 27.8806 25.9164 27.8579 25.875 27.834C21.832 25.4996 19.6023 22.3825 19.5977 19.0566C19.5931 15.7525 21.7892 12.6553 25.7803 10.3359C29.7457 8.03144 35.0231 6.7627 40.6397 6.7627Z" fill="#FFFFFF"/>
<path d="M40.7724 31.4069C35.1561 31.4069 29.8651 30.1382 25.8746 27.8344C21.8316 25.5 19.6025 22.3828 19.5978 19.0569C19.5931 15.7527 21.7887 12.6558 25.7798 10.3364C29.7454 8.0317 35.0226 6.76251 40.6393 6.76251C46.2561 6.76251 51.5447 8.03127 55.5347 10.3348C59.5782 12.6694 61.8076 15.7871 61.8123 19.1136C61.817 22.4179 59.6219 25.5147 55.6315 27.8337C51.6663 30.138 46.3893 31.4069 40.7724 31.4069Z" fill="#3AADAA"/>
<path fill-rule="evenodd" clip-rule="evenodd" d="M40.6396 6.07715C46.3738 6.07744 51.786 7.37873 55.8779 9.74121C60.1171 12.1889 62.5029 15.5927 62.4951 19.1445L62.498 19.1455L62.4775 41.3418C62.4768 41.568 62.4638 41.8043 62.4394 42.0645C62.4341 42.121 62.4276 42.178 62.4199 42.2344L62.4111 42.2959C62.3881 42.4829 62.3645 42.6396 62.3369 42.7881L62.3379 42.7861C62.3329 42.8241 62.327 42.8621 62.3193 42.9004C62.297 43.0116 62.2706 43.1229 62.2422 43.2402C62.2377 43.2606 62.2336 43.2813 62.2285 43.3018C62.1841 43.4773 62.1296 43.6609 62.0634 43.8633C62.0499 43.9046 62.0357 43.9459 62.0215 43.9873L62.0176 44C61.9544 44.1826 61.8905 44.3497 61.8232 44.5117C61.8161 44.5302 61.8088 44.5489 61.8017 44.5654C61.7296 44.7358 61.6468 44.9152 61.5478 45.1123C61.5252 45.1574 61.5016 45.2028 61.4785 45.2471C61.3829 45.4303 61.29 45.5952 61.1992 45.7471C61.1905 45.7626 61.1816 45.7785 61.1728 45.793C61.0881 45.9331 61.0006 46.0705 60.9131 46.2012C60.8954 46.2276 60.8766 46.2542 60.8574 46.2803L60.8486 46.291C60.7875 46.3803 60.7231 46.4692 60.6582 46.5576L60.6396 46.583L60.6308 46.5947C60.5617 46.6891 60.4921 46.7837 60.4189 46.877C60.3478 46.9677 60.2724 47.0576 60.1972 47.1475L60.1855 47.1621L60.1748 47.1758C60.0984 47.2671 60.0216 47.358 59.9414 47.4482C59.8643 47.535 59.7841 47.6212 59.7031 47.707L59.6777 47.7334C59.5919 47.8244 59.5058 47.9151 59.416 48.0049C59.3311 48.0899 59.2421 48.1738 59.1533 48.2578L59.1308 48.2793C59.0365 48.3685 58.9422 48.4577 58.8437 48.5459C58.749 48.6306 58.6504 48.7151 58.5517 48.7988L58.54 48.8086C58.4362 48.8967 58.3321 48.9841 58.2236 49.0713C58.1199 49.1546 58.0124 49.2375 57.8974 49.3252C57.7857 49.4105 57.674 49.4958 57.5576 49.5801C57.4456 49.6611 57.3292 49.7407 57.208 49.8242C57.0884 49.9066 56.9684 49.9884 56.8447 50.0693C56.7232 50.1488 56.598 50.2277 56.4726 50.3057C56.4436 50.3238 56.4151 50.342 56.3867 50.3604C56.3325 50.3952 56.2783 50.4304 56.2226 50.4639C56.1347 50.5168 56.0455 50.5694 55.9551 50.6221C55.6592 50.7939 55.3406 50.9668 54.9521 51.166C54.8727 51.2067 54.7923 51.2465 54.7119 51.2861L54.6562 51.3135C54.3926 51.4438 54.1212 51.5711 53.8506 51.6924L53.7617 51.7334C53.7002 51.7614 53.6388 51.7892 53.5761 51.8164C53.2026 51.9783 52.8486 52.1218 52.4961 52.2559C52.455 52.2715 52.4137 52.2869 52.372 52.3018L52.3017 52.3271C51.9971 52.4404 51.6814 52.5513 51.3642 52.6562C51.3477 52.6617 51.3316 52.668 51.3154 52.6738C51.2778 52.6875 51.2401 52.701 51.2031 52.7129C51.1536 52.729 51.103 52.7438 51.0527 52.7588C51.0229 52.7677 50.9926 52.7768 50.9629 52.7861C50.8024 52.8366 50.641 52.8855 50.4785 52.9336C50.324 52.9792 50.1691 53.0242 50.0136 53.0674C49.8499 53.113 49.6852 53.1571 49.5195 53.2002C49.3626 53.241 49.2053 53.2808 49.0468 53.3193C48.8803 53.3599 48.7128 53.3985 48.5449 53.4365C48.3858 53.4725 48.2258 53.5083 48.0654 53.542C47.8955 53.5777 47.7249 53.6116 47.5547 53.6445C47.3939 53.6758 47.2329 53.7055 47.0713 53.7344C46.8993 53.7651 46.7265 53.7942 46.5537 53.8223C46.391 53.8488 46.2279 53.8753 46.0644 53.8994C45.8908 53.9251 45.7163 53.9485 45.542 53.9717C45.3777 53.9934 45.2131 54.0148 45.0488 54.0342C44.8733 54.055 44.6973 54.0737 44.5215 54.0918C44.3559 54.1089 44.1903 54.1258 44.0244 54.1406C43.8478 54.1564 43.6709 54.1695 43.4941 54.1826C43.4541 54.1856 43.4139 54.1899 43.374 54.1934C43.31 54.1988 43.2459 54.2038 43.1816 54.208L42.2021 54.2695V54.2559C41.7086 54.2754 41.2141 54.2852 40.7236 54.2852C40.0514 54.2852 39.3767 54.267 38.708 54.2305V54.2432L37.7197 54.1631L37.6972 54.1611C37.3213 54.1299 36.9254 54.0904 36.4873 54.0391C36.4059 54.0296 36.3242 54.0183 36.2431 54.0078L36.1406 53.9951C35.8415 53.9571 35.5413 53.915 35.248 53.8701L35.1894 53.8613C35.0864 53.8456 34.9836 53.8294 34.8808 53.8125C34.5147 53.7523 34.1579 53.6882 33.8222 53.6221L33.7744 53.6133C33.746 53.6081 33.7173 53.6026 33.6875 53.5967C33.3194 53.5225 32.9382 53.4384 32.5234 53.3389L32.4941 53.332C32.466 53.3261 32.4375 53.3201 32.4101 53.3135C32.3302 53.294 32.251 53.273 32.1718 53.252L32.04 53.2168L31.9492 53.1934C31.8343 53.1639 31.719 53.1346 31.6045 53.1035C31.4508 53.0616 31.2986 53.018 31.1465 52.9736L30.999 52.9307C30.8899 52.8991 30.7809 52.8673 30.6728 52.834C30.532 52.7907 30.393 52.7448 30.2539 52.6992L30.1748 52.6738L30.0654 52.6377C29.9633 52.6046 29.861 52.571 29.7597 52.5361C29.6222 52.4887 29.4862 52.4395 29.3506 52.3896L29.1445 52.3135C29.0511 52.2797 28.9569 52.2463 28.8652 52.2109C28.7297 52.1589 28.5962 52.1044 28.4629 52.0498L28.3652 52.0098L28.248 51.9619C28.1621 51.9274 28.0757 51.8935 27.9912 51.8574C27.8495 51.7969 27.7104 51.7333 27.5713 51.6699L27.4804 51.6289L27.3662 51.5771C27.2903 51.5434 27.2141 51.5098 27.1396 51.4746C26.9745 51.3965 26.8129 51.3141 26.6513 51.2324L26.5898 51.2021L26.3125 51.0635C26.0369 50.9194 25.767 50.771 25.5107 50.623C21.2319 48.1527 18.8814 44.8128 18.8916 41.2207L18.9121 19.0254C18.9212 15.4784 21.2376 12.1828 25.4355 9.74316C29.5041 7.37891 34.903 6.07715 40.6377 6.07715H40.6396ZM19.8056 41.2217C19.7968 44.3359 21.852 47.4548 25.9677 49.8311C26.219 49.9761 26.4758 50.1168 26.7363 50.2529C26.8237 50.2985 26.9145 50.3411 27.0029 50.3857C27.1778 50.4741 27.3525 50.563 27.5312 50.6475C27.6389 50.6984 27.7494 50.7464 27.8584 50.7959C28.0216 50.87 28.1845 50.9447 28.3506 51.0156C28.4692 51.0663 28.5908 51.114 28.7109 51.1631C28.8712 51.2284 29.0307 51.2949 29.1933 51.3574C29.3195 51.406 29.4486 51.4513 29.5761 51.498C29.7361 51.5567 29.8955 51.616 30.0576 51.6719C30.1901 51.7175 30.3251 51.7608 30.459 51.8047C30.6194 51.8572 30.7801 51.91 30.9424 51.96C31.0791 52.002 31.2175 52.0419 31.3554 52.082C31.518 52.1294 31.6805 52.1769 31.8447 52.2217C31.9849 52.2598 32.1272 52.2957 32.2685 52.332C32.3881 52.3628 32.5066 52.3955 32.6269 52.4248C32.6627 52.4335 32.6995 52.4407 32.7353 52.4492C33.1098 52.5391 33.487 52.6243 33.8681 52.7012C33.9108 52.7097 33.9544 52.7163 33.997 52.7246C34.3386 52.7919 34.6833 52.8533 35.0293 52.9102C35.1481 52.9297 35.2674 52.9475 35.3867 52.9658C35.6753 53.01 35.9649 53.0509 36.2558 53.0879C36.3681 53.1022 36.4802 53.1177 36.5927 53.1309C36.9857 53.1769 37.3803 53.2182 37.7763 53.251L37.7929 53.252C38.7647 53.332 39.7445 53.3711 40.7236 53.3711C41.5243 53.3711 42.3247 53.3444 43.1211 53.292V53.2959C43.2228 53.2892 43.3242 53.2791 43.4258 53.2715C43.5983 53.2586 43.7712 53.2449 43.9433 53.2295C44.1051 53.215 44.2665 53.1993 44.4277 53.1826C44.5992 53.165 44.7705 53.1462 44.9414 53.126C45.1018 53.1071 45.2621 53.0866 45.4218 53.0654C45.5918 53.0429 45.7616 53.0201 45.9306 52.9951C46.0897 52.9716 46.248 52.9457 46.4062 52.9199C46.5747 52.8925 46.7427 52.8649 46.9101 52.835C47.0672 52.8069 47.2237 52.7774 47.3799 52.7471C47.5462 52.7149 47.7128 52.6812 47.8779 52.6465C48.0335 52.6137 48.1883 52.5799 48.3427 52.5449C48.5059 52.508 48.6683 52.4701 48.83 52.4307C48.9839 52.3932 49.1374 52.355 49.29 52.3154C49.4502 52.2738 49.6098 52.2307 49.7685 52.1865C49.9195 52.1446 50.0701 52.1009 50.2197 52.0566C50.3768 52.0101 50.533 51.963 50.6884 51.9141C50.7651 51.8899 50.8437 51.8675 50.9199 51.8428C50.9727 51.8257 51.0236 51.8055 51.0761 51.7881C51.382 51.6869 51.6849 51.5807 51.9834 51.4697C52.0454 51.4467 52.1091 51.4259 52.1709 51.4023C52.524 51.268 52.8705 51.1256 53.2119 50.9775C53.3009 50.9389 53.3884 50.898 53.4765 50.8584C53.7385 50.741 53.9967 50.6198 54.2509 50.4941C54.3459 50.4472 54.4413 50.4006 54.5351 50.3525C54.8617 50.185 55.1839 50.0123 55.4961 49.8311C55.5816 49.7813 55.6662 49.7311 55.75 49.6807C55.8322 49.6313 55.9087 49.5794 55.9892 49.5293C56.1089 49.4549 56.2289 49.3804 56.3447 49.3047C56.4623 49.2278 56.5758 49.1495 56.6894 49.0713C56.8012 48.9943 56.9135 48.917 57.0215 48.8389C57.1311 48.7594 57.2371 48.6793 57.3427 48.5986C57.4468 48.5192 57.5512 48.4398 57.6513 48.3594C57.753 48.2775 57.8505 48.1943 57.9482 48.1113C58.0445 48.0297 58.1409 47.9479 58.2334 47.8652C58.3273 47.7812 58.4178 47.6964 58.5078 47.6113C58.5962 47.5276 58.6849 47.444 58.7695 47.3594C58.8556 47.2732 58.9374 47.1857 59.0195 47.0986C59.1002 47.013 59.1809 46.9273 59.2578 46.8408C59.3358 46.7531 59.4103 46.6648 59.4843 46.5762C59.5575 46.4887 59.631 46.4008 59.7002 46.3125C59.7702 46.2232 59.8362 46.1331 59.9023 46.043C59.9676 45.954 60.0333 45.8651 60.0947 45.7754C60.1135 45.748 60.1348 45.7209 60.1533 45.6934C60.2362 45.5696 60.315 45.4443 60.3906 45.3193C60.3979 45.3073 60.4048 45.2953 60.4121 45.2832C60.5032 45.131 60.5877 44.978 60.6679 44.8242C60.689 44.784 60.7102 44.7436 60.7304 44.7031C60.8127 44.5394 60.8899 44.3743 60.9599 44.209C60.9667 44.193 60.9728 44.1763 60.9795 44.1602C61.0429 44.0077 61.1003 43.8547 61.1533 43.7012C61.1674 43.6603 61.1819 43.6189 61.1953 43.5781C61.2497 43.4117 61.2995 43.2445 61.3418 43.0771C61.3468 43.0573 61.3506 43.0374 61.3554 43.0176C61.3795 42.9189 61.403 42.8196 61.4228 42.7207C61.4294 42.688 61.4314 42.6549 61.4375 42.6221C61.4646 42.4763 61.4859 42.3298 61.5039 42.1836C61.5123 42.1156 61.5229 42.0476 61.5293 41.9795C61.5493 41.7662 61.5619 41.5524 61.5625 41.3389L61.5664 36.7129C60.6344 39.0134 58.6495 41.0974 55.7861 42.7666C51.7596 45.1137 46.4195 46.4004 40.7529 46.4004C35.0862 46.4004 29.733 45.114 25.6816 42.7676C22.7713 41.0821 20.754 38.9763 19.8095 36.6514L19.8056 41.2217ZM19.8105 35.1035C20.3754 37.8373 22.4706 40.3806 25.9092 42.3721C29.8778 44.6705 35.1489 45.9434 40.7529 45.9434C46.3569 45.9434 51.6146 44.6706 55.5576 42.3721C58.9561 40.3909 61.0208 37.8598 61.5683 35.1396L61.5732 29.5137C60.5847 31.6796 58.6512 33.6417 55.9209 35.2285C51.8797 37.577 46.5193 38.8642 40.832 38.8643C35.1446 38.8643 29.7713 37.5782 25.705 35.2305C22.7887 33.5467 20.7662 31.4429 19.8164 29.1211L19.8105 35.1035ZM19.8174 27.5869C20.392 30.3126 22.4932 32.8476 25.9336 34.834C29.9167 37.1337 35.2074 38.4072 40.832 38.4072C46.4564 38.4072 51.733 37.1336 55.6904 34.834C58.8466 32.9998 60.857 30.6944 61.5752 28.2041L61.581 21.7422C60.7346 24.1195 58.7362 26.2936 55.7461 28.0312C51.7467 30.3554 46.4284 31.6357 40.7724 31.6357C35.1166 31.6357 29.7854 30.3558 25.7607 28.0322C22.7113 26.2716 20.6758 24.0659 19.8232 21.6543L19.8174 27.5869ZM40.6396 6.99121C38.6915 6.99121 36.7444 7.14993 34.8593 7.46387C32.7516 7.81486 30.7218 8.36094 28.8554 9.10449C27.8125 9.51995 26.8203 9.99618 25.8945 10.5342C25.6402 10.682 25.3935 10.832 25.1552 10.9854C24.629 11.324 24.1426 11.677 23.6943 12.04C23.5997 12.1166 23.5071 12.1939 23.416 12.2715C23.3122 12.3598 23.2105 12.4485 23.1113 12.5381C22.9951 12.6429 22.8825 12.749 22.7724 12.8555C21.8151 13.7816 21.0908 14.7654 20.6006 15.7803C20.5782 15.8266 20.5556 15.8725 20.5342 15.9189C20.0613 16.9448 19.8258 18.0002 19.8271 19.0557C19.8311 22.1604 21.8861 25.2678 25.9892 27.6367C30.0793 29.998 35.4291 31.1787 40.7724 31.1787C46.1159 31.1787 51.453 29.9972 55.5166 27.6357C59.5357 25.3 61.5553 22.2468 61.582 19.1855C61.5817 19.2113 61.5798 19.237 61.5791 19.2627C61.6171 17.3354 60.8656 15.4027 59.3242 13.6416C59.3127 13.6284 59.3007 13.6157 59.289 13.6025C59.1395 13.4332 58.9825 13.2656 58.8183 13.0996C58.7055 12.9856 58.5895 12.8721 58.4697 12.7598C58.3126 12.6124 58.1495 12.4665 57.9804 12.3223C57.3683 11.8002 56.6782 11.2998 55.9101 10.8262C55.7501 10.7274 55.5867 10.6295 55.4199 10.5332C51.5863 8.31985 46.6448 7.1434 41.6406 7.00488L40.6396 6.99121Z" fill="#383E45"/>
<path d="M26 22L29 22.5L26 20L22 19L18 20L12.5 23.5L7 29.5L3 38L2 46L4 52.5L10 56L8.5 54L7 51L6.5 47.5L7 44.5L7.5 41L9.5 36.5L12.5 31L16.5 26.5L19.5 24.5L22.5 23L26 22Z" fill="#FFFFFF"/>
<path d="M26 22L29 22.5L26 20L22 19L18 20L12.5 23.5L7 29.5L3 38L2 46L4 52.5L10 56L8.5 54L7 51L6.5 47.5L7 44.5L7.5 41L9.5 36.5L12.5 31L16.5 26.5L19.5 24.5L22.5 23L26 22Z" fill="#3AADAA"/>
<path fill-rule="evenodd" clip-rule="evenodd" d="M39.8251 11.9216C40.0609 11.9275 40.2588 12.0892 40.2118 12.2488C40.1764 12.3685 40.057 12.4102 39.9394 12.4148L39.8251 12.4089C39.4876 12.357 39.0126 12.3617 38.4579 12.4285C37.9062 12.4962 37.2812 12.6214 36.6308 12.7966C35.455 13.1129 34.2072 13.593 33.1562 14.1619L40.0751 18.1404C40.2094 18.0915 40.3446 18.0442 40.4794 17.9949C40.9184 17.8344 41.3602 17.6734 41.8036 17.5193C42.9656 17.1169 44.1416 16.7656 45.3359 16.6316C46.0206 16.5555 46.7123 16.551 47.4023 16.6531C48.1905 16.771 48.9649 17.0296 49.7128 17.4597C50.4476 17.8823 50.9508 18.3305 51.2392 18.7957C51.5296 19.2644 51.5974 19.7455 51.4804 20.2136C51.2477 21.137 50.3231 21.9835 49.1103 22.6912C48.9253 22.7991 48.732 22.9026 48.5331 23.0046L50.2782 24.0086C50.4447 24.1046 50.4471 24.3135 50.2802 24.4109C50.1435 24.4904 49.9476 24.4917 49.8105 24.4129L47.8945 23.3113C46.9108 23.7562 45.8141 24.1315 44.7128 24.405C43.1314 24.7962 41.5361 24.9889 40.2236 24.8777C40.026 24.8798 39.8206 24.7957 39.9062 24.5711C39.969 24.4065 40.1468 24.3486 40.3114 24.363C41.4435 24.4625 42.9491 24.2916 44.4589 23.9158C45.4347 23.6743 46.4095 23.3472 47.2909 22.9636L39.9804 18.7586C39.8072 18.8206 39.6348 18.8857 39.4609 18.9461C38.2969 19.3474 37.1189 19.6971 35.9169 19.8289C35.2321 19.9028 34.534 19.9061 33.8417 19.8005C33.0498 19.6804 32.272 19.4202 31.5204 18.988C30.8214 18.5861 30.3553 18.1542 30.1015 17.7019L30.0165 17.53C29.8427 17.1295 29.8352 16.723 29.9609 16.3298C30.1041 15.8832 30.4137 15.4571 30.828 15.0593C31.1551 14.7453 31.5514 14.446 31.9921 14.1648L30.4208 13.2615C30.3503 13.2209 30.2896 13.1518 30.29 13.0593C30.2912 12.7936 30.7163 12.7591 30.8876 12.8572L32.5693 13.824C33.9427 13.06 35.6285 12.4505 37.1425 12.1218C38.1972 11.945 38.6687 11.8937 39.8251 11.9216ZM46.9462 17.1257C46.1788 17.0492 45.3867 17.1206 44.5663 17.2869C43.347 17.5345 42.0931 17.9925 40.8153 18.4597C40.7771 18.4737 40.7384 18.4867 40.7001 18.5007L47.9374 22.6619C48.1768 22.543 48.4084 22.4235 48.6259 22.2966C49.501 21.786 50.1647 21.231 50.5175 20.6707C50.6922 20.391 50.7897 20.1143 50.8027 19.8416C50.8155 19.5698 50.7444 19.294 50.5712 19.0134C50.3393 18.6378 49.9179 18.2504 49.246 17.864C48.4754 17.4209 47.715 17.2012 46.9462 17.1257ZM32.5732 14.4988C31.8579 14.9439 31.2843 15.4267 30.9472 15.9148C30.5738 16.4556 30.4893 16.9836 30.7782 17.5017C30.9772 17.8561 31.3548 18.2201 31.9872 18.5837C32.7638 19.0303 33.53 19.2532 34.3027 19.3308C35.078 19.4096 35.8724 19.3418 36.6962 19.1755C37.5662 19.0008 38.4535 18.7163 39.3544 18.3992L32.5732 14.4988Z" fill="#383E45"/>
<path fill-rule="evenodd" clip-rule="evenodd" d="M22.371 18.7568L22.415 18.7588C22.4513 18.7598 22.4881 18.761 22.5204 18.7627C22.5418 18.7632 22.5633 18.7633 22.5839 18.7646C22.7447 18.7747 22.9108 18.7902 23.0927 18.8125C23.1216 18.816 23.1501 18.8208 23.1786 18.8252L23.2079 18.8291L23.2558 18.8359C23.3382 18.847 23.4206 18.8588 23.5029 18.873C23.5417 18.8798 23.5799 18.8874 23.6181 18.8955L23.6601 18.9043C23.7111 18.9142 23.7624 18.9236 23.8134 18.9346C23.9958 18.9737 24.159 19.0141 24.3095 19.0566C24.3174 19.0587 24.3257 19.061 24.3349 19.0635L24.3476 19.0664L24.3622 19.0713C24.52 19.1171 24.6879 19.1723 24.8749 19.2412C24.9142 19.2557 24.9533 19.2709 24.9921 19.2861L25.0117 19.2939L25.0556 19.3105C25.0958 19.3256 25.1355 19.3416 25.1757 19.3584C25.2431 19.3866 25.3099 19.4165 25.3759 19.4473L25.4208 19.4678L25.4462 19.4795C25.4725 19.4911 25.4992 19.5036 25.5263 19.5166C25.6829 19.592 25.8228 19.6639 25.9531 19.7373C25.9811 19.7531 26.0086 19.7696 26.037 19.7861L30.29 22.2568L30.289 22.2578C33.1206 23.9028 34.6865 27.2699 34.6992 31.7422C34.7113 36.0618 33.2692 40.951 30.6376 45.5088C28.0063 50.0661 24.4871 53.7714 20.7285 55.9414C18.4536 57.2548 16.2553 57.9208 14.1953 57.9209C12.7076 57.9209 11.3536 57.5705 10.1669 56.8799L10.164 56.8848L5.91107 54.4131C5.04299 53.9085 4.28146 53.228 3.64838 52.3916C2.25294 50.5477 1.51055 47.9681 1.50189 44.9316C1.50123 44.6934 1.50597 44.4376 1.51654 44.1504C1.51864 44.0934 1.5223 44.0358 1.52533 43.9785L1.52924 43.9033C1.53815 43.721 1.54867 43.5383 1.56244 43.3545C1.56946 43.2612 1.57763 43.1675 1.58588 43.0742C1.6018 42.8935 1.62005 42.7119 1.64056 42.5303L1.64838 42.459C1.6553 42.3962 1.66205 42.3331 1.66986 42.2705L1.67377 42.2354C1.67655 42.2094 1.68015 42.1832 1.68353 42.1572C1.69091 42.1005 1.69985 42.0434 1.70892 41.9863C1.71409 41.9538 1.719 41.921 1.72357 41.8887C1.7503 41.6996 1.778 41.5101 1.80951 41.3203C1.82894 41.2033 1.85062 41.086 1.87201 40.9688L1.87689 40.9385C1.91029 40.755 1.94565 40.5714 1.98334 40.3877C1.98766 40.3666 1.99119 40.3452 1.99506 40.3242C2.00232 40.2846 2.01 40.2451 2.01849 40.2051C2.03001 40.1509 2.04285 40.0962 2.0556 40.042L2.07709 39.9473C2.10437 39.8248 2.1319 39.7026 2.16107 39.5801C2.1993 39.4195 2.23979 39.2585 2.28119 39.0977L2.29388 39.0508C2.32084 38.9458 2.34729 38.8407 2.37592 38.7354L2.38861 38.6865C2.39636 38.6562 2.40461 38.6251 2.41302 38.5947C2.44471 38.4805 2.47879 38.3662 2.51263 38.252L2.54095 38.1553L2.56342 38.0762C2.57648 38.0306 2.58961 37.9851 2.60345 37.9395C2.68679 37.6645 2.76697 37.412 2.84857 37.167C2.85188 37.1571 2.8555 37.1472 2.85931 37.1367C2.97751 36.7834 3.11294 36.4055 3.27338 35.9824C3.27807 35.97 3.28274 35.9577 3.28705 35.9453C3.29807 35.9135 3.30895 35.8815 3.32123 35.8496C3.3348 35.8143 3.34948 35.7792 3.3642 35.7441C3.37153 35.7267 3.37978 35.709 3.38666 35.6914C3.51878 35.3532 3.65231 35.0244 3.78509 34.7148L3.79877 34.6826C3.80992 34.6547 3.82089 34.6258 3.83392 34.5957C3.83955 34.5828 3.84568 34.5701 3.84857 34.5645C3.99579 34.2259 4.15686 33.875 4.33978 33.4922L4.35248 33.4648C4.36381 33.4394 4.37502 33.4139 4.38763 33.3877C4.40574 33.3502 4.42508 33.3125 4.44427 33.2754C4.45474 33.2552 4.46479 33.2348 4.47455 33.2148C4.61154 32.9349 4.75464 32.6529 4.89935 32.377C4.90997 32.3567 4.92047 32.3358 4.9306 32.3154C4.94926 32.2778 4.96765 32.24 4.98724 32.2031C4.99897 32.1811 5.01197 32.1594 5.02435 32.1377L5.03509 32.1182C5.22578 31.762 5.41977 31.4132 5.6142 31.0781C5.62293 31.0621 5.6319 31.0459 5.64154 31.0293C5.6598 30.998 5.67901 30.9673 5.69818 30.9365C5.70746 30.9217 5.71747 30.9069 5.7265 30.8916C5.89827 30.6004 6.0795 30.302 6.26654 30.0059C6.27753 29.9884 6.28819 29.9708 6.29877 29.9531C6.3192 29.919 6.34015 29.8846 6.36127 29.8516C6.37747 29.8262 6.39412 29.8011 6.41107 29.7764L6.42865 29.75C6.67151 29.373 6.90311 29.0284 7.13568 28.6953C7.14627 28.6792 7.15696 28.6631 7.16791 28.6475C7.18665 28.6207 7.20598 28.5943 7.22552 28.5684L7.24506 28.542C7.49742 28.1853 7.75873 27.8309 8.02142 27.4893L8.03998 27.4639C8.05824 27.4386 8.07673 27.4134 8.09662 27.3877L8.1308 27.3447L8.14349 27.3291C8.20371 27.2518 8.26489 27.1757 8.32611 27.0996L8.39642 27.0127L8.4433 26.9531C8.53292 26.8409 8.62252 26.7287 8.71381 26.6182C8.7782 26.5402 8.84377 26.4634 8.90912 26.3867L8.98041 26.3027L9.06537 26.2012C9.11965 26.1363 9.1748 26.0718 9.23041 26.0078C9.24579 25.9902 9.26156 25.9732 9.27728 25.9561L9.29193 25.9385C9.5205 25.6775 9.73634 25.44 9.95404 25.207L9.98529 25.1719C10.2049 24.938 10.4393 24.6982 10.7001 24.4395L10.7109 24.4277C10.7269 24.411 10.7433 24.394 10.7587 24.3789C10.8883 24.2512 11.02 24.1272 11.1513 24.0029L11.164 23.9902L11.2109 23.9453C11.2382 23.9189 11.2653 23.8919 11.2929 23.8662C11.4925 23.6797 11.7012 23.4913 11.913 23.3057C11.9488 23.2743 11.9853 23.2434 12.0214 23.2129L12.0829 23.1611C12.2369 23.0285 12.3918 22.8974 12.5478 22.7695C12.6055 22.7222 12.6635 22.6752 12.7216 22.6289L12.7812 22.582C12.9193 22.4717 13.0576 22.3625 13.1972 22.2559C13.2811 22.1918 13.3655 22.1283 13.4492 22.0664C13.5877 21.9635 13.727 21.8627 13.8671 21.7637L13.9033 21.7383C13.9744 21.6879 14.0458 21.6379 14.1171 21.5889C14.2682 21.4851 14.4204 21.3844 14.5732 21.2852L14.6464 21.2373C14.6946 21.2056 14.7432 21.1744 14.7919 21.1436C15.0356 20.9896 15.2586 20.8546 15.4736 20.7305C15.6727 20.6155 15.8817 20.5005 16.1318 20.3691C16.1883 20.3395 16.2447 20.3104 16.3017 20.2812C16.5114 20.174 16.7035 20.0796 16.8876 19.9941L16.9042 19.9863C16.9222 19.9776 16.9406 19.9689 16.9579 19.9609C17.1369 19.8789 17.3124 19.802 17.4794 19.7324C17.5058 19.7215 17.5316 19.7116 17.5576 19.7021L17.5624 19.7012C17.7626 19.6192 17.9718 19.539 18.2021 19.457L18.249 19.4395C18.2863 19.4252 18.3243 19.4117 18.3603 19.3994C18.611 19.3135 18.8694 19.2334 19.1308 19.1611C19.1491 19.1553 19.1677 19.1497 19.1865 19.1445C19.2981 19.1142 19.4082 19.0881 19.5185 19.0625L19.6005 19.043C19.6225 19.0378 19.6448 19.0329 19.6669 19.0273C19.7164 19.0148 19.7663 19.0018 19.8154 18.9912C20.0357 18.9438 20.2511 18.9039 20.455 18.8721L20.4687 18.8691L20.5009 18.8652C20.5057 18.8645 20.5108 18.8638 20.5156 18.8633C20.7052 18.8347 20.8992 18.8115 21.1083 18.792C21.1565 18.7875 21.2042 18.7844 21.2519 18.7812L21.3076 18.7773L21.3847 18.7705C21.4533 18.7649 21.5218 18.7598 21.5878 18.7568C21.6252 18.7551 21.6623 18.7552 21.6992 18.7549L21.7363 18.7539C21.8002 18.752 21.8638 18.7505 21.9267 18.75H22.0107C22.1317 18.75 22.2517 18.7522 22.371 18.7568ZM21.9355 19.665C21.8784 19.6655 21.8211 19.6662 21.7636 19.668C21.7189 19.6692 21.6748 19.6679 21.6298 19.6699C21.5453 19.6737 21.4584 19.6823 21.373 19.6885C21.3128 19.6929 21.2529 19.6965 21.1923 19.7021C21.01 19.7191 20.8258 19.7403 20.6396 19.7686C20.6334 19.7695 20.6272 19.7705 20.621 19.7715H20.6191C20.4176 19.8025 20.2135 19.8414 20.0078 19.8857C19.942 19.8999 19.8747 19.9181 19.8085 19.9336C19.6813 19.9635 19.5544 19.9914 19.4257 20.0264C19.4132 20.0298 19.4002 20.0347 19.3876 20.0381C19.1464 20.1044 18.9025 20.1792 18.6562 20.2637C18.6076 20.2803 18.5576 20.301 18.5087 20.3184C18.31 20.3891 18.1098 20.4644 17.9081 20.5469C17.8817 20.5576 17.8556 20.5662 17.829 20.5771C17.6668 20.6447 17.5037 20.7168 17.3398 20.792C17.3179 20.802 17.2953 20.813 17.2734 20.8232C17.0893 20.9087 16.9038 20.9996 16.7177 21.0947C16.6637 21.1224 16.6098 21.1503 16.5556 21.1787C16.3483 21.2876 16.1402 21.4005 15.9306 21.5215C15.7126 21.6474 15.4957 21.7799 15.2802 21.916C15.2104 21.9601 15.1408 22.0066 15.0712 22.0518C14.9252 22.1466 14.7794 22.2424 14.6347 22.3418C14.5544 22.3969 14.4744 22.4543 14.3945 22.5107C14.2605 22.6055 14.1268 22.7022 13.9941 22.8008C13.9133 22.8607 13.8322 22.9211 13.7519 22.9824C13.6177 23.0849 13.4843 23.1897 13.3515 23.2959C13.2766 23.3558 13.2013 23.4155 13.1269 23.4766C12.9767 23.5997 12.8279 23.7258 12.6796 23.8535C12.6252 23.9004 12.5698 23.9457 12.5156 23.9932C12.3142 24.1697 12.1145 24.3506 11.9169 24.5352C11.8755 24.5738 11.8351 24.6142 11.7939 24.6533C11.6624 24.7778 11.5301 24.9023 11.4003 25.0303C11.3815 25.0488 11.3635 25.0692 11.3447 25.0879C11.1111 25.3196 10.8797 25.5556 10.6523 25.7979C10.6408 25.8101 10.6295 25.8227 10.6181 25.835C10.4025 26.0654 10.19 26.3016 9.98041 26.541C9.96045 26.5638 9.93877 26.5856 9.91888 26.6084C9.83724 26.7022 9.75836 26.7994 9.67767 26.8945C9.59139 26.9963 9.50407 27.0971 9.41888 27.2002C9.31474 27.3263 9.21273 27.4549 9.11029 27.583C9.02823 27.6856 8.94513 27.7878 8.8642 27.8916C8.84933 27.9106 8.83407 27.9292 8.81927 27.9482C8.79431 27.9805 8.7709 28.0146 8.74603 28.0469C8.48856 28.3817 8.23751 28.7234 7.99213 29.0703C7.96774 29.1048 7.9412 29.1372 7.91693 29.1719C7.90567 29.1879 7.89497 29.2046 7.88373 29.2207C7.64877 29.5569 7.42106 29.8991 7.19818 30.2451C7.17681 30.2783 7.15303 30.3104 7.13177 30.3438C7.10018 30.3932 7.07132 30.4445 7.03998 30.4941C6.86043 30.7785 6.68459 31.0656 6.51361 31.3555C6.48691 31.4007 6.45806 31.4448 6.43158 31.4902C6.42162 31.5074 6.41224 31.5249 6.40228 31.542C6.20903 31.8746 6.02215 32.2109 5.84076 32.5498C5.82602 32.5773 5.80955 32.6042 5.79486 32.6318C5.76525 32.6875 5.73917 32.7449 5.7099 32.8008C5.56812 33.0712 5.42971 33.3436 5.29584 33.6172C5.26827 33.6735 5.23809 33.7288 5.21088 33.7852C5.19465 33.8189 5.18011 33.853 5.164 33.8867C4.99889 34.2321 4.83937 34.5793 4.68744 34.9287C4.68264 34.9397 4.67659 34.951 4.67181 34.9619C4.65556 34.9994 4.64202 35.0376 4.62592 35.0752C4.49077 35.3903 4.36221 35.707 4.23822 36.0244C4.21815 36.0758 4.19452 36.1264 4.17474 36.1777C4.15826 36.2206 4.14512 36.2648 4.12884 36.3076C3.98657 36.6828 3.84951 37.0585 3.72357 37.4355C3.72108 37.443 3.71825 37.4506 3.71576 37.458C3.63294 37.7067 3.55394 37.956 3.47845 38.2051C3.45747 38.2744 3.43833 38.3438 3.41791 38.4131C3.37606 38.5551 3.33329 38.6978 3.29388 38.8398C3.28136 38.885 3.27101 38.9305 3.25873 38.9756C3.22703 39.0922 3.19692 39.2086 3.16693 39.3252C3.12691 39.4807 3.08768 39.6367 3.05072 39.792C3.02259 39.9102 2.99599 40.0283 2.96967 40.1465C2.95118 40.2294 2.92965 40.3127 2.91205 40.3955C2.89962 40.4541 2.89086 40.5128 2.87884 40.5713C2.84254 40.7484 2.80849 40.9249 2.77631 41.1016C2.75391 41.2244 2.73124 41.3481 2.71088 41.4707C2.68059 41.6531 2.65455 41.8349 2.62884 42.0166C2.61668 42.1025 2.60091 42.1897 2.58978 42.2754C2.5851 42.3114 2.58158 42.3477 2.57709 42.3838C2.56671 42.467 2.55815 42.5498 2.54877 42.6328C2.5291 42.8069 2.5113 42.9811 2.49603 43.1543C2.48813 43.2439 2.48029 43.3335 2.47357 43.4229C2.46038 43.5986 2.45085 43.7737 2.44232 43.9482C2.43848 44.0267 2.43348 44.1054 2.4306 44.1836C2.42142 44.4332 2.41525 44.682 2.41595 44.9287C2.4243 47.8665 3.14068 50.2053 4.37787 51.8398C4.94027 52.5829 5.61062 53.1802 6.37103 53.6221L9.11908 55.2197C7.43162 53.5359 6.45018 50.8597 6.44037 47.4004C6.42806 43.048 7.95076 38.2378 10.4111 33.9766C12.8715 29.7151 16.2821 25.9809 20.0683 23.7949C23.1277 22.0286 25.9907 21.5302 28.3261 22.1729L25.5781 20.5762C25.5536 20.562 25.5286 20.5481 25.5038 20.5342C25.3817 20.4653 25.2565 20.4008 25.1298 20.3398C25.0996 20.3253 25.0676 20.3129 25.037 20.2988C24.9659 20.266 24.8956 20.2315 24.8232 20.2012C24.7756 20.1813 24.7258 20.1644 24.6777 20.1455C24.6377 20.1299 24.5979 20.1135 24.5576 20.0986C24.4097 20.0441 24.2603 19.9927 24.1074 19.9482C24.1049 19.9476 24.102 19.947 24.0995 19.9463C24.0903 19.9436 24.0805 19.942 24.0712 19.9395C23.9241 19.8976 23.7737 19.8616 23.622 19.8291C23.5771 19.8195 23.5315 19.8105 23.4863 19.8018C23.4393 19.7927 23.393 19.7817 23.3456 19.7734C23.2595 19.7586 23.1714 19.7473 23.0839 19.7354C23.0491 19.7306 23.0144 19.7241 22.9794 19.7197C22.8305 19.7015 22.6799 19.6873 22.5273 19.6777C22.5097 19.6766 22.4912 19.6768 22.4736 19.6758C22.4282 19.6733 22.3816 19.6727 22.3359 19.6709C22.2282 19.6667 22.119 19.6641 22.0097 19.6641C21.985 19.6641 21.9603 19.6648 21.9355 19.665Z" fill="#383E45"/>
<path d="M29.6697 23.2189C27.3037 21.8706 23.9998 22.053 20.2969 24.1909C16.5963 26.3274 13.2378 29.9946 10.8069 34.2047C8.37607 38.4148 6.8853 43.1465 6.89735 47.3992C6.90941 51.6519 8.41885 54.5753 10.7846 55.9229C13.1509 57.2709 16.4547 57.0885 20.1567 54.9511C23.8582 52.814 27.2168 49.1469 29.6474 44.9372C32.078 40.7275 33.5683 35.9966 33.5562 31.745C33.5442 27.4911 32.0352 24.567 29.6697 23.2189Z" fill="#FFFFFF"/>
<path fill-rule="evenodd" clip-rule="evenodd" d="M20.1457 28.4395C20.2719 28.4395 20.3741 28.5419 20.3742 28.668V30.5869C21.572 30.0276 22.6227 29.9387 23.3957 30.001C23.8139 30.0347 24.1499 30.1124 24.383 30.1826C24.4996 30.2177 24.5905 30.2513 24.6535 30.2764C24.6849 30.2888 24.7096 30.299 24.7268 30.3066C24.7352 30.3104 24.7424 30.3132 24.7473 30.3154L24.7551 30.3193L24.7561 30.3203C24.8694 30.3756 24.9176 30.5126 24.8625 30.626C24.8074 30.7391 24.6712 30.786 24.5578 30.7314L24.5549 30.7305C24.5524 30.7293 24.5482 30.7273 24.5422 30.7246C24.5301 30.7193 24.5105 30.7115 24.4846 30.7012C24.4328 30.6806 24.3543 30.6512 24.2512 30.6201C24.0446 30.5579 23.7405 30.4868 23.3586 30.4561C22.6161 30.3962 21.5749 30.4885 20.3742 31.0957V39.5986C21.2527 39.4144 22.1588 39.2415 22.9709 39.3105C23.8759 39.3875 24.6786 39.7656 25.2151 40.7344C25.8185 41.8242 25.797 42.9786 25.3518 44.0547C24.909 45.1248 24.0484 46.1191 22.967 46.9229C22.2017 47.4917 21.3154 47.9684 20.3742 48.3145V50.4736C20.3741 50.5998 20.2719 50.7021 20.1457 50.7021C20.0196 50.7021 19.9173 50.5997 19.9172 50.4736V48.4697C18.3295 48.9703 16.617 49.0866 15.0686 48.6055C14.948 48.568 14.8807 48.4399 14.9182 48.3193C14.9557 48.1988 15.0838 48.1315 15.2043 48.1689C16.6934 48.6316 18.3669 48.504 19.9172 47.9902V40.1592C19.0672 40.3367 18.1966 40.5006 17.4162 40.4385C16.5165 40.3667 15.7196 39.9954 15.1926 39.0352C14.314 37.4336 14.9319 35.6721 16.0266 34.1914C17.0854 32.7594 18.6349 31.5241 19.9172 30.8203V28.668C19.9174 28.5419 20.0196 28.4395 20.1457 28.4395ZM22.9319 39.7656C22.1668 39.7006 21.2919 39.8722 20.3742 40.0654V47.8262C21.2112 47.5024 22.0027 47.0699 22.6946 46.5557C23.7294 45.7864 24.5261 44.8535 24.9289 43.8799C25.3292 42.9124 25.3417 41.9063 24.8157 40.9561C24.3661 40.1441 23.7139 39.8322 22.9319 39.7656ZM19.9172 31.3457C18.7317 32.0379 17.35 33.171 16.3948 34.4629C15.3349 35.8962 14.8462 37.4528 15.594 38.8154C16.0332 39.6159 16.6761 39.9205 17.4533 39.9824C18.19 40.041 19.0312 39.8784 19.9172 39.6924V31.3457Z" fill="#383E45"/>
</svg>
