<svg viewBox="0 0 64 64" fill="none" xmlns="http://www.w3.org/2000/svg">
<path d="M47 7.5L44 5.5L40.5 3.5L37 2.5L31 4L24.5 8.5L18 16.5L14 26.5L13 34.5L14 39L16 42L9.5 56.5V57.5L13.5 59.5L17 57L17.5 59L21.5 61.5L28 47L33 45L38.5 41L42 44.5L44.5 46L46.5 47L48 38.5L54.5 35.5L47.5 27.5L49.5 20.5V14.5L49 10.5L47 7.5Z" fill="#FFFFFF"/>
<path d="M45.5 46L42.5 45L38.5 40.5L39.5 39.5L45.5 46Z" fill="#3AADAA"/>
<path d="M21 61L17.5 59.5L17 56.5L19.5 54.5H20L21 61Z" fill="#3AADAA"/>
<path d="M29.7197 5.36369C34.2099 2.77134 38.2787 2.53058 41.2168 4.23772L44.5664 6.18498C41.6283 4.47752 37.5597 4.71756 33.0693 7.30998C24.1441 12.463 16.9338 24.9534 16.9629 35.2074C16.974 39.1071 18.0297 42.1219 19.8252 44.0776C20.3754 44.6768 20.9954 45.1763 21.6758 45.5717L19.6777 44.4106L13.1602 59.1459L9.81055 57.1996L16.4756 42.1313C14.6803 40.1756 13.6244 37.1604 13.6133 33.2612C13.5842 23.0072 20.7945 10.5167 29.7197 5.36369Z" fill="#3AADAA"/>
<path d="M33.0825 12.0886C39.7093 8.26265 45.1005 11.3349 45.122 18.9496C45.1436 26.566 39.7875 35.8414 33.1607 39.6674C26.5324 43.4942 21.1428 40.4229 21.1212 32.8065C21.0996 25.1918 26.4542 15.9155 33.0825 12.0886ZM39.8435 32.5421L38.5403 24.7192L43.9377 15.5282L36.4517 18.6L33.0844 12.7406L29.7597 22.4636L22.2823 28.0309L27.7126 30.9706L26.4595 40.2694L33.14 32.363L39.8435 32.5421Z" fill="#7C6576"/>
<path fill-rule="evenodd" clip-rule="evenodd" d="M36.9696 2.2334C38.7064 2.23347 40.2902 2.64164 41.6766 3.44727L45.0262 5.39453C48.3448 7.32278 50.1802 11.2815 50.1952 16.5459C50.2047 19.9174 49.4509 23.6493 48.0126 27.3721L54.8632 34.8398C55.0695 35.0649 55.1495 35.3782 55.077 35.6748C55.0045 35.9714 54.7887 36.2119 54.5018 36.3164L48.2235 38.6035L47.0624 46.5908C47.0187 46.8913 46.828 47.1512 46.5546 47.2832C46.4288 47.3438 46.2927 47.374 46.1571 47.374C45.9982 47.374 45.8396 47.3322 45.6981 47.25L42.3485 45.3037C42.2687 45.2573 42.196 45.1988 42.1337 45.1309L38.7118 41.3994C37.0771 42.9441 35.3716 44.2327 33.6317 45.2373C31.7795 46.3066 29.9541 47.0174 28.1981 47.3535L22.0643 61.2227C21.9592 61.4602 21.7576 61.6414 21.5106 61.7217C21.4185 61.7516 21.3232 61.7666 21.2284 61.7666C21.0687 61.7666 20.9094 61.7245 20.7684 61.6426L17.4188 59.6963C17.1876 59.5617 17.0272 59.3325 16.9794 59.0693L16.6971 57.5146L13.7274 59.8633C13.5623 59.9938 13.3615 60.0596 13.16 60.0596C13.0022 60.0596 12.8436 60.0193 12.701 59.9365L9.35143 57.9902C8.94844 57.756 8.78593 57.2554 8.97448 56.8291L15.4061 42.2891C13.6434 40.104 12.7097 36.9995 12.6991 33.2637C12.6846 28.1454 14.3953 22.3488 17.5165 16.9424C20.6375 11.5364 24.8093 7.14335 29.2626 4.57227C31.9507 3.02022 34.5437 2.23324 36.9696 2.2334ZM13.16 59.1455L19.9442 53.7812L21.2284 60.8525L27.3436 47.0244C26.8621 47.0858 26.3859 47.1201 25.9237 47.1201C23.4252 47.1201 21.2527 46.2235 19.6249 44.5283L13.16 59.1455ZM17.4159 56.3623L17.8788 58.9062L20.7079 60.5498L19.6298 54.6123L17.4159 56.3623ZM36.9696 3.14746C34.7869 3.1473 32.3244 3.8603 29.7196 5.36426C20.7945 10.5172 13.5841 23.0068 13.6132 33.2607C13.6242 37.1605 14.68 40.1751 16.4755 42.1309L9.81042 57.1992L12.7626 58.9141L19.288 44.1602C17.4773 42.0495 16.5164 38.9631 16.5057 35.209C16.4914 30.1701 18.181 24.4549 21.2626 19.1172C24.3441 13.7798 28.4559 9.4456 32.8407 6.91406C35.4581 5.40295 37.9744 4.63672 40.3192 4.63672C40.9789 4.63674 41.6143 4.70057 42.2225 4.82227L41.2176 4.23828C39.9838 3.52127 38.5496 3.14753 36.9696 3.14746ZM40.3192 5.09375C38.1364 5.09375 35.6743 5.80651 33.0692 7.31055C24.1441 12.4635 16.9338 24.9531 16.9628 35.207C16.9738 39.1067 18.0296 42.1214 19.8251 44.0771C21.3732 45.7633 23.472 46.6621 25.9237 46.6621C26.4533 46.6621 26.9998 46.6202 27.5604 46.5352C27.779 46.502 27.9997 46.4623 28.2225 46.416C29.7839 46.0914 31.4481 45.4431 33.1747 44.4463C33.2398 44.4087 33.3041 44.3694 33.369 44.3311C34.0586 43.9235 34.7372 43.4719 35.4032 42.9814C36.3265 42.3012 37.2255 41.5465 38.0917 40.7275L38.7489 40.0869C39.0196 39.8158 39.288 39.5398 39.5516 39.2568C42.6388 35.9434 45.224 31.8418 46.952 27.5674C48.4382 23.8909 49.2902 20.0866 49.2801 16.5488C49.2758 14.9999 49.1051 13.5909 48.7899 12.332C48.7766 12.2788 48.7637 12.2256 48.7499 12.1729C47.556 7.63067 44.4363 5.09386 40.3192 5.09375ZM47.2919 27.9385C45.5233 32.2437 42.9673 36.2618 39.8866 39.5684C39.8783 39.5773 39.8695 39.5858 39.8612 39.5947L46.1571 46.459L47.3973 37.9316L54.1893 35.458L47.2919 27.9385ZM39.5458 39.9268C39.3841 40.0954 39.2217 40.2614 39.0585 40.4248L42.8075 44.5127L44.829 45.6875L39.5458 39.9268Z" fill="#383E45"/>
</svg>
