<?xml version="1.0" encoding="utf-8"?>
<!-- Generator: Adobe Illustrator 24.1.3, SVG Export Plug-In . SVG Version: 6.00 Build 0)  -->
<svg version="1.1" id="Layer_1" xmlns="http://www.w3.org/2000/svg" xmlns:xlink="http://www.w3.org/1999/xlink" x="0px" y="0px"
	 viewBox="0 0 1400 1140" xml:space="preserve">
<style type="text/css">
	.st0{opacity:0.5;fill:#3AADAA;enable-background:new    ;}
	.st1{opacity:0.08;fill:#3AADAA;enable-background:new    ;}
	.st2{opacity:0.2;fill:#3AADAA;enable-background:new    ;}
	.st3{fill:#3AADAA;}
</style>
<g>
	<path class="st0" d="M1335.3,914c0,0.1-0.1,0.1-0.2,0.2l-53.9,53.9h56.1c0.1-0.1,0.1-0.2,0.2-0.3l54.8-53.8H1335.3z"/>
	<polygon class="st1" points="1346.4,968 1399.6,968 1399.6,914.9 	"/>
	<polygon class="st1" points="1334.5,801.5 1281.3,853.8 1338.3,853.8 1390.6,801.5 	"/>
	<polygon class="st0" points="1346.4,853.8 1399.1,853.8 1399.1,801.5 	"/>
	<polygon class="st2" points="1281.3,858.7 1334.8,910.3 1389.8,910.3 1338.3,858.7 	"/>
	<polygon class="st3" points="1346.4,858.7 1399.6,909.2 1399.6,858.7 	"/>
	<polygon class="st1" points="1335,1028.6 1281.3,1079.9 1338.8,1079.9 1391,1028.6 	"/>
	<polygon class="st3" points="1346.4,1079.9 1399.6,1079.9 1399.6,1029 	"/>
	<polygon class="st3" points="1339.3,973 1281.3,973 1335.1,1024.9 1391.2,1024.9 	"/>
	<polygon class="st2" points="1346.4,973 1399.6,1024.6 1399.6,973 	"/>
	<polygon class="st0" points="1336.9,1140 1393,1140 1337.8,1084.8 1281.3,1084.8 	"/>
	<polygon class="st2" points="1346.4,1084.8 1399.6,1138.1 1399.6,1084.8 	"/>
	<path class="st0" d="M1338.3,632.1h-57.1c0,0,54.3,52.4,54.4,52.7h56.3L1338.3,632.1z"/>
	<polygon class="st2" points="1346.4,632.1 1400,683 1400,632.1 	"/>
	<path class="st0" d="M1339.6,746.7h-58.3l53.9,50.7c0.1,0.1,0.2,0.3,0.3,0.4h56.1L1339.6,746.7z"/>
	<path class="st1" d="M1346.4,746.7c0,0,52.6,50.9,52.7,51.1l-0.2-51.1H1346.4z"/>
	<polygon class="st3" points="1336.9,572.5 1281.3,627.1 1338.3,627.1 1393,572.5 	"/>
	<polygon class="st0" points="1399.5,574.3 1346.4,627.1 1400,627.1 	"/>
	<path class="st2" d="M1334.2,688.5l-52.9,53.2c0,0,56.2-0.4,56.3-0.5l52.7-52.7L1334.2,688.5z"/>
	<polygon class="st3" points="1399.6,688.5 1346.4,741.7 1399.8,741.7 1399.8,688.5 	"/>
</g>
<g>
	<path class="st0" d="M1335.3,341.5c0,0.1-0.1,0.1-0.2,0.2l-53.9,53.9h56.1c0.1-0.1,0.1-0.2,0.2-0.3l54.8-53.8L1335.3,341.5z"/>
	<polygon class="st1" points="1346.4,395.6 1399.6,395.6 1399.6,342.4 	"/>
	<polygon class="st1" points="1334.5,229 1281.3,281.3 1338.3,281.3 1390.6,229 	"/>
	<polygon class="st0" points="1346.4,281.3 1399.1,281.3 1399.1,229 	"/>
	<polygon class="st2" points="1281.3,286.2 1334.8,337.8 1389.8,337.8 1338.3,286.2 	"/>
	<polygon class="st3" points="1346.4,286.2 1399.6,336.7 1399.6,286.2 	"/>
	<polygon class="st1" points="1335,456.1 1281.3,507.4 1338.8,507.4 1391,456.1 	"/>
	<polygon class="st3" points="1346.4,507.4 1399.6,507.4 1399.6,456.6 	"/>
	<polygon class="st3" points="1339.3,400.5 1281.3,400.5 1335.1,452.4 1391.2,452.4 	"/>
	<polygon class="st2" points="1346.4,400.5 1399.6,452.1 1399.6,400.5 	"/>
	<polygon class="st0" points="1336.9,567.5 1393,567.5 1337.8,512.4 1281.3,512.4 	"/>
	<polygon class="st2" points="1346.4,512.4 1399.6,565.6 1399.6,512.4 	"/>
	<path class="st0" d="M1338.3,59.6h-57.1c0,0,54.3,52.4,54.4,52.7h56.3L1338.3,59.6z"/>
	<polygon class="st2" points="1346.4,59.6 1400,110.5 1400,59.6 	"/>
	<path class="st0" d="M1339.6,174.2h-58.3l53.9,50.7c0.1,0.1,0.2,0.3,0.3,0.4h56.1L1339.6,174.2z"/>
	<path class="st1" d="M1346.4,174.2c0,0,52.6,50.9,52.7,51.1l-0.2-51.1H1346.4z"/>
	<polygon class="st3" points="1336.9,0 1281.3,54.7 1338.3,54.7 1393,0 	"/>
	<polygon class="st0" points="1399.5,1.8 1346.4,54.7 1400,54.7 	"/>
	<path class="st2" d="M1334.2,116l-52.9,53.2c0,0,56.2-0.4,56.3-0.5l52.7-52.7L1334.2,116z"/>
	<polygon class="st3" points="1399.6,116 1346.4,169.2 1399.8,169.2 1399.8,116 	"/>
</g>
</svg>
