<svg width="63" height="72" viewBox="0 0 63 72" fill="none" xmlns="http://www.w3.org/2000/svg">
<path d="M63 50.625V3.375C63 1.50469 61.4953 0 59.625 0H13.5C6.04688 0 0 6.04688 0 13.5V58.5C0 65.9531 6.04688 72 13.5 72H59.625C61.4953 72 63 70.4953 63 68.625V66.375C63 65.3203 62.5078 64.3641 61.7484 63.7453C61.1578 61.5797 61.1578 55.4062 61.7484 53.2406C62.5078 52.6359 63 51.6797 63 50.625ZM18 18.8438C18 18.3797 18.3797 18 18.8438 18H48.6562C49.1203 18 49.5 18.3797 49.5 18.8438V21.6562C49.5 22.1203 49.1203 22.5 48.6562 22.5H18.8438C18.3797 22.5 18 22.1203 18 21.6562V18.8438ZM18 27.8438C18 27.3797 18.3797 27 18.8438 27H48.6562C49.1203 27 49.5 27.3797 49.5 27.8438V30.6562C49.5 31.1203 49.1203 31.5 48.6562 31.5H18.8438C18.3797 31.5 18 31.1203 18 30.6562V27.8438ZM53.6344 63H13.5C11.0109 63 9 60.9891 9 58.5C9 56.025 11.025 54 13.5 54H53.6344C53.3672 56.4047 53.3672 60.5953 53.6344 63Z" fill="#3BB8A7"/>
</svg>
