<svg width="75" height="67" viewBox="0 0 75 67" fill="none" xmlns="http://www.w3.org/2000/svg">
<path d="M72.9167 37.6875H62.5V50.25L58.3333 47.4627L54.1667 50.25V37.6875H43.75C42.6042 37.6875 41.6667 38.6297 41.6667 39.7812V64.9062C41.6667 66.0578 42.6042 67 43.75 67H72.9167C74.0625 67 75 66.0578 75 64.9062V39.7812C75 38.6297 74.0625 37.6875 72.9167 37.6875ZM22.9167 29.3125H52.0833C53.2292 29.3125 54.1667 28.3703 54.1667 27.2188V2.09375C54.1667 0.942187 53.2292 0 52.0833 0H41.6667V12.5625L37.5 9.7752L33.3333 12.5625V0H22.9167C21.7708 0 20.8333 0.942187 20.8333 2.09375V27.2188C20.8333 28.3703 21.7708 29.3125 22.9167 29.3125ZM31.25 37.6875H20.8333V50.25L16.6667 47.4627L12.5 50.25V37.6875H2.08333C0.9375 37.6875 0 38.6297 0 39.7812V64.9062C0 66.0578 0.9375 67 2.08333 67H31.25C32.3958 67 33.3333 66.0578 33.3333 64.9062V39.7812C33.3333 38.6297 32.3958 37.6875 31.25 37.6875Z" fill="#1FBBA6"/>
</svg>
