<svg width="909" height="839" viewBox="0 0 909 839" fill="none" xmlns="http://www.w3.org/2000/svg">
<path d="M1133.76 659.064C1126.51 638.801 1098.21 635.75 1098.21 635.75H948.969L866.363 415.253C828.849 372.058 796.733 415.253 796.733 415.253L736.918 553.064L597.277 31.7807C595.664 26.012 593.221 20.5076 590.025 15.4395C585.65 10.5673 580.282 6.68581 574.283 4.05535C568.283 1.42489 561.789 0.106224 555.238 0.187768C534.191 1.33165 521.159 21.976 521.159 21.976L404.964 609.386C404.964 609.386 335.335 335.182 330.373 314.319C325.411 293.457 322.521 291.006 322.521 291.006C319.556 284.643 314.826 279.264 308.891 275.508C302.957 271.752 296.067 269.777 289.042 269.817C263.033 268.292 250.874 294.274 250.874 294.274L190.895 449.08L36.696 449.842C26.6449 451.197 17.4139 456.109 10.6802 463.686C3.9465 471.262 0.156909 481 0 491.131C4.1985 529.26 36.3143 530.132 36.3143 530.132L207.744 530.894C218.332 532.612 229.191 530.761 238.609 525.632C248.027 520.504 255.469 512.39 259.762 502.57L280.809 445.648L368.05 793.824C377.21 842.847 413.198 838.925 413.198 838.925C449.512 838.925 453.71 794.968 453.71 794.968L508.236 507.2H639.099L686.918 685.645C687.828 694.687 692.039 703.078 698.747 709.217C705.455 715.355 714.19 718.812 723.287 718.927C731.151 720.249 739.232 719.168 746.471 715.824C753.709 712.481 759.768 707.031 763.854 700.189L830.376 546.909C830.376 546.909 870.561 658.9 880.158 688.532C889.754 718.164 921.434 718.763 921.434 718.763H1096.68C1104.2 718.734 1111.59 716.787 1118.14 713.108C1124.7 709.428 1130.2 704.138 1134.14 697.738C1143.35 672.082 1133.76 659.064 1133.76 659.064ZM523.94 425.548L561.454 221.828L619.197 425.548H523.94Z" fill="white" fill-opacity="0.82"/>
</svg>
