<svg width="50" height="50" viewBox="0 0 50 50" xmlns="http://www.w3.org/2000/svg"><path d="m17.544 19.392-2.53.783v-.87h-3.208v10.868h3.208v-7.799l2.103-.684s1.057-.385 1.175.614v7.868h3.23v-7.58s.341-4.555-3.977-3.202l-.001.002Zm14.475 5.362c-.487-.478-1.104-.727-1.738-.924l-2.78-.865c-.303-.093-.8-.159-.8-.564v-.928l2.821-.002v.885h2.975v-.5c0-.473.039-.963-.133-1.412-.185-.487-.573-.843-1.033-1.055-.51-.235-.984-.25-1.526-.25h-3.482c-.673 0-1.316.076-1.851.526a2.435 2.435 0 0 0-.859 1.601c.01.307 0 1.775 0 2.193 0 .841.857 1.464 1.58 1.68a1337.171 1337.171 0 0 1 3.658 1.098c.201.06.67.104.67.406v1.134H26.73v-.954h-3.12v.982c0 .54.044 1.093.354 1.556.251.378.645.622 1.075.732.443.114.914.073 1.369.073h3.89c.63 0 1.256-.052 1.726-.532.473-.482.615-1.22.615-1.915v-1.238c0-.36-.002-.701-.144-1.038a2.113 2.113 0 0 0-.478-.69l.002.001ZM7.422 19.139H2.3A2.302 2.302 0 0 0 0 21.444v6.422a2.305 2.305 0 0 0 2.3 2.307h5.122c1.27 0 2.3-1.033 2.3-2.307v-6.422a2.304 2.304 0 0 0-2.3-2.305Zm-.878 8.642H3.177v-6.26h3.367v6.26Zm28.179 2.392h3.472V19.14h-3.472v11.034Zm15.27-7.558s.342-4.584-3.977-3.224l-2.53.79v-.706h-3.209V35l3.209-1.038v-3.609h4.172c1.3 0 2.337-1.024 2.337-2.289v-2.208l-.002-.002v-3.243.003Zm-3.233 5.433h-3.276v-5.532l2.104-.687s1.052-.387 1.172.618v5.603-.002Z" fill="#3D6DFC"/><path d="M43.105 4h.972V.818h1.108V0H42v.818h1.105V4Zm2.775 0h.858V1.453h.053L47.663 4h.555l.871-2.547h.056V4H50V0h-1.108l-.924 2.714h-.05L46.99 0h-1.11v4Z" fill="#D1D5DB"/></svg>
