<svg width="70" height="70" viewBox="0 0 70 70" fill="none" xmlns="http://www.w3.org/2000/svg">
<circle cx="35" cy="35" r="17" fill="#985184"/>
<path d="M52.5858 25.5858L44.4142 17.4142C43.1543 16.1543 44.0466 14 45.8284 14H52C54.2091 14 56 15.7909 56 18V24.1716C56 25.9534 53.8457 26.8457 52.5858 25.5858Z" fill="#FBB945"/>
<path d="M17.4142 44.4142L25.5858 52.5858C26.8457 53.8457 25.9534 56 24.1716 56L18 56C15.7909 56 14 54.2091 14 52L14 45.8284C14 44.0466 16.1543 43.1543 17.4142 44.4142Z" fill="#FBB945"/>
<path d="M44.4142 52.5858L52.5858 44.4142C53.8457 43.1543 56 44.0466 56 45.8284L56 52C56 54.2091 54.2091 56 52 56L45.8284 56C44.0466 56 43.1543 53.8457 44.4142 52.5858Z" fill="#FBB945"/>
<path d="M25.5858 17.4142L17.4142 25.5858C16.1543 26.8457 14 25.9534 14 24.1716L14 18C14 15.7909 15.7909 14 18 14L24.1716 14C25.9534 14 26.8457 16.1543 25.5858 17.4142Z" fill="#FBB945"/>
</svg>
