<svg width="50" height="50" viewBox="0 0 50 50" xmlns="http://www.w3.org/2000/svg"><circle cx="25" cy="25.001" r="17" fill="#985184"/><path d="m42.586 15.587-8.172-8.172c-1.26-1.26-.367-3.414 1.414-3.414H42a4 4 0 0 1 4 4v6.171c0 1.782-2.154 2.675-3.414 1.415ZM7.414 34.415l8.172 8.172c1.26 1.26.367 3.414-1.414 3.414H8a4 4 0 0 1-4-4v-6.172c0-1.781 2.154-2.674 3.414-1.414Zm27 8.172 8.172-8.172c1.26-1.26 3.414-.367 3.414 1.414v6.172a4 4 0 0 1-4 4h-6.172c-1.781 0-2.674-2.154-1.414-3.414ZM15.586 7.415l-8.172 8.172C6.154 16.847 4 15.954 4 14.172v-6.17a4 4 0 0 1 4-4h6.172c1.781 0 2.674 2.154 1.414 3.414Z" fill="#FBB945"/></svg>
