<svg width="722" height="91" viewBox="0 0 722 91" fill="none" xmlns="http://www.w3.org/2000/svg">
<g clip-path="url(#clip0_76_492)">
<path d="M3.96206 36.4143H16.4878C17.0972 33.1867 18.1886 30.0692 19.7253 27.1662C22.0512 22.5767 25.4478 18.6146 29.628 15.6148C30.3275 15.1152 31.0219 14.6705 31.7114 14.2658V8.67495C31.7121 8.15446 31.6101 7.63895 31.4112 7.15796C31.2123 6.67696 30.9205 6.23993 30.5524 5.87189C30.1844 5.50384 29.7474 5.21203 29.2664 5.01315C28.7854 4.81427 28.2699 4.71224 27.7494 4.71289H3.96206C2.91126 4.71289 1.90349 5.13032 1.16046 5.87335C0.417433 6.61638 3.15053e-06 7.62415 3.15053e-06 8.67495V32.4473C-0.000653502 32.968 0.101344 33.4838 0.300161 33.965C0.498979 34.4463 0.790718 34.8837 1.15869 35.2521C1.52667 35.6206 1.96367 35.9128 2.44469 36.1123C2.92572 36.3117 3.44133 36.4143 3.96206 36.4143Z" fill="#231F20"/>
<path d="M26.2803 36.4143H27.7492C28.2699 36.4143 28.7855 36.3116 29.2666 36.1122C29.7476 35.9128 30.1846 35.6205 30.5525 35.252C30.9205 34.8836 31.2123 34.4462 31.4111 33.965C31.6099 33.4837 31.7119 32.9679 31.7112 32.4472V21.4854C30.4259 23.5406 29.3433 25.7159 28.4786 27.9805C27.3964 30.6889 26.6579 33.5222 26.2803 36.4143Z" fill="#231F20"/>
<path d="M15.9182 42.4053C15.9165 41.0255 16.0033 39.647 16.178 38.2783H3.96205C2.91079 38.2796 1.90304 38.6982 1.16016 39.442C0.417269 40.1858 -8.33757e-07 41.1941 0 42.2454L0 67.8913C-8.33757e-07 68.9426 0.417269 69.9508 1.16016 70.6947C1.90304 71.4385 2.91079 71.857 3.96205 71.8584H29.613C30.6627 71.8505 31.6672 71.43 32.4095 70.6878C33.1517 69.9455 33.5722 68.941 33.58 67.8913V60.6867C28.5838 60.4868 24.4435 58.7847 21.1593 55.5805C17.6619 52.1697 15.9148 47.7779 15.9182 42.4053Z" fill="#B22126"/>
<path d="M63.1879 40.1416H39.4055C38.8844 40.1409 38.3682 40.2431 37.8866 40.4422C37.405 40.6414 36.9674 40.9336 36.5989 41.3021C36.2304 41.6706 35.9382 42.1082 35.7391 42.5898C35.54 43.0714 35.4378 43.5875 35.4385 44.1087V55.2004C37.0405 55.7764 38.7324 56.0624 40.4348 56.0448C42.9361 56.0853 45.4022 55.4519 47.5745 54.2111C50.0647 52.6651 52.2871 50.7246 54.1546 48.4654V52.4275C48.9551 57.7568 42.7164 60.5098 35.4385 60.6863V67.886C35.4463 68.9357 35.8668 69.9402 36.6091 70.6824C37.3513 71.4247 38.3558 71.8452 39.4055 71.853H63.1879C64.2376 71.8452 65.242 71.4247 65.9843 70.6824C66.7266 69.9402 67.1471 68.9357 67.1549 67.886V44.1087C67.1549 43.0565 66.737 42.0475 65.993 41.3035C65.249 40.5596 64.24 40.1416 63.1879 40.1416Z" fill="#231F20"/>
<path d="M63.1879 4.71297H37.5419C36.4915 4.71429 35.4845 5.13215 34.7418 5.87489C33.9991 6.61763 33.5812 7.62463 33.5799 8.67502V13.2566C36.09 11.9862 38.8559 11.3028 41.6689 11.2581C44.9697 11.2581 47.6627 12.249 49.7479 14.2309C51.833 16.2128 52.8739 18.7808 52.8705 21.9352C52.9064 24.6318 52.2802 27.2961 51.0469 29.6944C50.9919 29.8143 50.932 29.9342 50.862 30.0541C50.862 30.0841 50.8271 30.1241 50.8071 30.1541C50.3864 30.8401 49.7531 31.3699 49.0036 31.6629C48.2541 31.9559 47.4294 31.996 46.655 31.7771C45.8806 31.5581 45.199 31.0922 44.7138 30.4502C44.2286 29.8082 43.9664 29.0252 43.9672 28.2205C43.9601 27.5105 44.1654 26.8145 44.5567 26.222C45.5827 24.3205 46.1152 22.1921 46.1056 20.0316C46.1056 18.133 45.6692 16.6241 44.7965 15.5049C44.3888 14.9675 43.8589 14.5348 43.2507 14.2429C42.6425 13.951 41.9735 13.8081 41.2991 13.8262C39.1807 13.8262 36.9174 15.1452 34.5092 17.7833C34.1994 18.123 33.8896 18.4827 33.5949 18.8425V34.311C33.5955 34.8321 33.4934 35.3483 33.2942 35.8299C33.0951 36.3115 32.8029 36.7491 32.4344 37.1176C32.0659 37.4861 31.6283 37.7783 31.1467 37.9774C30.6651 38.1765 30.149 38.2787 29.6278 38.278H26.1304C26.1004 38.7777 26.0854 39.2773 26.0854 39.7769C26.0854 44.5334 27.4344 48.4338 30.1324 51.4782C31.1249 52.6139 32.2982 53.5778 33.6049 54.3311V42.2451C33.6049 41.1938 34.0221 40.1855 34.765 39.4417C35.5079 38.6979 36.5157 38.2793 37.5669 38.278H63.2129C64.265 38.278 65.274 37.8601 66.018 37.1161C66.762 36.3721 67.1799 35.3631 67.1799 34.311V8.67502C67.1793 8.15238 67.0753 7.63501 66.8741 7.15264C66.6729 6.67028 66.3784 6.23243 66.0074 5.86426C65.6364 5.49609 65.1964 5.20485 64.7125 5.00727C64.2286 4.80969 63.7105 4.70968 63.1879 4.71297Z" fill="#B22126"/>
<path d="M119.037 6.17721V17.5987H118.087C117.371 14.6209 116.039 12.336 114.09 10.7438C112.24 9.18871 109.897 8.34376 107.48 8.36059C105.453 8.35176 103.473 8.97333 101.814 10.1393C100.128 11.2806 98.8172 12.8956 98.0473 14.7808C97.0001 17.3752 96.4804 20.1522 96.5184 22.9497C96.4851 25.6754 96.8623 28.3905 97.6376 31.0038C98.3837 33.4286 99.5495 35.2606 101.135 36.4997C102.72 37.7388 104.779 38.3583 107.31 38.3583C109.293 38.379 111.251 37.9124 113.011 36.9993C114.733 36.09 116.552 34.5261 118.467 32.3078V35.1507C116.842 36.9203 114.878 38.3458 112.691 39.3426C110.473 40.2503 108.093 40.6925 105.697 40.6416C102.448 40.7028 99.2319 39.9778 96.3236 38.5282C93.6588 37.1874 91.456 35.0802 89.9983 32.4777C88.5371 29.9073 87.7708 27.0006 87.7749 24.0439C87.7777 20.8934 88.6304 17.802 90.2431 15.0956C91.8236 12.3238 94.1364 10.0405 96.9281 8.49549C99.6453 6.95916 102.715 6.15514 105.837 6.16222C108.357 6.20019 110.848 6.70854 113.181 7.66111C114.67 8.24734 115.618 8.53879 116.024 8.53546C116.276 8.5371 116.525 8.48745 116.757 8.38953C116.989 8.2916 117.199 8.14745 117.373 7.96588C117.807 7.458 118.066 6.82385 118.112 6.15723L119.037 6.17721Z" fill="black"/>
<path d="M157.148 6.93164V7.82598C156.244 7.90593 155.379 8.23447 154.65 8.77527C153.841 9.44144 152.562 11.2967 150.813 14.3411L143.658 26.2773V34.2713C143.658 35.9701 143.748 37.0276 143.928 37.444C144.156 37.9107 144.524 38.2936 144.982 38.5381C145.626 38.8905 146.353 39.0631 147.086 39.0378H148.934V39.9371H130.448V38.9728H132.172C132.972 39.0166 133.77 38.8441 134.48 38.4732C134.936 38.2101 135.288 37.7995 135.479 37.3091C135.656 36.9194 135.744 35.8984 135.744 34.2463V27.6412L127.98 13.5167C126.441 10.7288 125.355 9.08837 124.722 8.5954C123.987 8.06809 123.099 7.79767 122.194 7.82598V6.93164H137.998V7.82598H137.293C136.601 7.7672 135.906 7.91129 135.295 8.24067C135.136 8.32984 135.002 8.45588 134.903 8.6081C134.804 8.76032 134.743 8.93421 134.725 9.11502C134.725 9.70125 135.373 11.1685 136.669 13.5167L142.624 24.4286L148.545 14.491C150.02 12.0595 150.758 10.4457 150.758 9.64962C150.754 9.42828 150.694 9.21158 150.583 9.02008C150.472 8.82858 150.314 8.66864 150.124 8.55543C149.574 8.15073 148.56 7.91091 147.086 7.82598V6.93164H157.148Z" fill="black"/>
<path d="M179.866 22.4151C182.994 23.1446 185.191 24.0273 186.456 25.0632C187.327 25.7396 188.027 26.611 188.5 27.6071C188.973 28.6033 189.206 29.6965 189.179 30.7989C189.195 31.9871 188.932 33.1624 188.412 34.2306C187.891 35.2987 187.127 36.2299 186.182 36.9493C183.74 38.9079 180.184 39.8888 175.515 39.8921H158.752V38.9728C160.277 38.9728 161.312 38.8296 161.855 38.5431C162.341 38.3207 162.741 37.9452 162.994 37.4739C163.214 37.0193 163.324 35.9051 163.324 34.1214V12.7123C163.324 10.9337 163.214 9.8095 162.994 9.34984C162.75 8.85687 162.342 8.46452 161.84 8.24067C161.29 7.96421 160.261 7.82598 158.752 7.82598V6.93164H174.555C178.332 6.93164 181.005 7.26473 182.574 7.9309C184.08 8.54684 185.374 9.58864 186.296 10.9287C187.174 12.1792 187.648 13.668 187.655 15.1955C187.656 16.7787 187.038 18.2994 185.932 19.4324C184.776 20.6914 182.754 21.6857 179.866 22.4151ZM171.018 23.6542V34.2264V35.4405C170.969 35.7998 171.004 36.1656 171.12 36.5092C171.236 36.8528 171.43 37.1651 171.686 37.4218C171.942 37.6785 172.254 37.8726 172.597 37.9891C172.941 38.1056 173.306 38.1413 173.666 38.0935C174.914 38.104 176.146 37.8072 177.253 37.2291C178.322 36.6711 179.193 35.7993 179.751 34.731C180.343 33.6039 180.644 32.3466 180.626 31.0737C180.65 29.6203 180.28 28.1875 179.556 26.9268C178.904 25.7558 177.863 24.8493 176.614 24.3637C175.37 23.8691 173.486 23.6392 171.003 23.6542H171.018ZM171.018 21.7556C173.323 21.7556 175.022 21.4975 176.114 20.9812C177.142 20.5106 178.01 19.75 178.612 18.7928C179.235 17.6992 179.538 16.4528 179.487 15.1955C179.539 13.9431 179.241 12.701 178.627 11.6082C178.036 10.671 177.176 9.93434 176.159 9.49474C175.09 9.01176 173.371 8.77694 171.003 8.79026L171.018 21.7556Z" fill="black"/>
<path d="M204.138 24.8683V34.1064C204.138 35.8901 204.248 37.0093 204.463 37.4739C204.711 37.9623 205.118 38.3517 205.617 38.5781C206.172 38.8529 207.196 38.9928 208.705 38.9928V39.8921H191.857V38.9728C193.356 38.9728 194.415 38.8279 194.955 38.5431C195.435 38.3174 195.83 37.9423 196.079 37.4739C196.299 37.0193 196.409 35.9051 196.409 34.1214V12.7123C196.409 10.9337 196.299 9.8095 196.079 9.34984C195.833 8.85885 195.426 8.4673 194.925 8.24067C194.376 7.96587 193.341 7.82598 191.837 7.82598V6.93164H207.151C211.148 6.93164 214.064 7.20644 215.9 7.75603C217.691 8.2681 219.274 9.33516 220.421 10.8038C221.591 12.2877 222.21 14.1308 222.175 16.0199C222.202 17.1558 221.981 18.284 221.527 19.3256C221.073 20.3672 220.397 21.2971 219.547 22.0504C218.185 23.1754 216.57 23.9507 214.84 24.3087L222.779 35.4754C223.421 36.4497 224.163 37.354 224.993 38.1734C225.663 38.6676 226.468 38.9463 227.301 38.9728V39.8722H216.924L206.302 24.8683H204.138ZM204.138 8.70532V23.1446H205.522C207.776 23.1446 209.459 22.9347 210.578 22.5251C211.695 22.1139 212.629 21.3209 213.217 20.2867C213.908 18.9924 214.239 17.536 214.176 16.0698C214.176 13.5551 213.588 11.6998 212.412 10.504C211.236 9.30821 209.344 8.70865 206.736 8.70532H204.138Z" fill="black"/>
<path d="M246.092 6.46642C251.342 6.27323 255.607 7.80542 258.888 11.063C262.169 14.3206 263.807 18.3959 263.804 23.2889C263.869 27.2766 262.574 31.1675 260.132 34.3207C256.888 38.5376 252.309 40.6443 246.397 40.641C240.485 40.6377 235.901 38.6292 232.647 34.6155C230.09 31.4121 228.738 27.4121 228.83 23.3139C228.83 18.4175 230.495 14.3372 233.826 11.073C237.157 7.80875 241.246 6.27323 246.092 6.46642ZM246.382 8.02026C243.384 8.02026 241.091 9.56079 239.502 12.6418C238.223 15.1699 237.584 18.7989 237.584 23.5287C237.584 29.1546 238.571 33.3181 240.546 36.0195C241.202 36.9265 242.072 37.6568 243.079 38.1451C244.086 38.6334 245.199 38.8643 246.317 38.8174C247.803 38.8704 249.268 38.4448 250.494 37.6033C251.923 36.5674 253.034 34.9019 253.826 32.607C254.619 30.312 255.016 27.3426 255.016 23.6986C255.016 19.3418 254.611 16.0809 253.801 13.9159C252.992 11.7508 251.96 10.2236 250.704 9.33429C249.437 8.45253 247.925 7.99271 246.382 8.02026Z" fill="black"/>
<path d="M288.97 6.17699L289.235 17.1688H288.236C287.885 14.6146 286.668 12.2581 284.788 10.4938C283.187 8.91862 281.039 8.02351 278.793 7.99564C277.364 7.91684 275.959 8.39094 274.871 9.31966C274.423 9.69261 274.062 10.1582 273.811 10.6844C273.561 11.2106 273.428 11.7848 273.422 12.3674C273.406 13.0489 273.579 13.7215 273.921 14.3109C274.52 15.2067 275.289 15.9757 276.185 16.5743C277.884 17.6257 279.644 18.5751 281.456 19.4172C285.343 21.3191 287.952 23.1111 289.285 24.7932C290.599 26.433 291.305 28.4774 291.283 30.5789C291.29 31.9257 291.006 33.2581 290.451 34.4851C289.896 35.7121 289.082 36.8048 288.066 37.6886C285.917 39.6871 283.189 40.6863 279.882 40.6863C278.894 40.6914 277.908 40.5858 276.944 40.3716C275.748 40.0718 274.578 39.6741 273.447 39.1825C272.844 38.8962 272.193 38.7266 271.528 38.6828C271.041 38.7082 270.574 38.8826 270.189 39.1825C269.675 39.5638 269.28 40.0837 269.05 40.6813H268.146V28.2006H269.05C269.759 31.698 271.132 34.3627 273.167 36.1947C275.202 38.0267 277.399 38.9526 279.757 38.9726C281.342 39.0506 282.895 38.5136 284.094 37.4737C284.597 37.0496 285.003 36.5212 285.282 35.9252C285.561 35.3292 285.708 34.6796 285.712 34.0213C285.709 33.227 285.495 32.4478 285.093 31.763C284.608 30.9527 283.968 30.2463 283.209 29.6845C281.792 28.6929 280.287 27.8333 278.713 27.1164C275.715 25.6442 273.56 24.3885 272.247 23.3492C271.012 22.4007 269.981 21.2108 269.22 19.8518C268.511 18.5549 268.146 17.0979 268.16 15.62C268.144 14.361 268.393 13.1126 268.891 11.9564C269.39 10.8002 270.126 9.76213 271.053 8.90996C272.026 7.98966 273.172 7.27121 274.424 6.79612C275.676 6.32104 277.009 6.09872 278.348 6.14202C279.396 6.14028 280.44 6.26952 281.456 6.52673C282.434 6.80729 283.383 7.1821 284.289 7.6459C284.998 8.04833 285.775 8.31598 286.582 8.43531C286.766 8.44492 286.951 8.41514 287.123 8.34795C287.296 8.28076 287.452 8.1777 287.581 8.0456C287.944 7.48124 288.176 6.84276 288.261 6.17699H288.97Z" fill="black"/>
<path d="M328.666 6.93164V7.82598C327.761 7.90412 326.896 8.23285 326.168 8.77527C325.355 9.44144 324.074 11.2967 322.326 14.3411L315.171 26.2773V34.2713C315.171 35.9701 315.261 37.0276 315.441 37.444C315.669 37.9118 316.04 38.295 316.5 38.5381C317.143 38.8916 317.87 39.0643 318.603 39.0378H320.447V39.9371H301.961V38.9728H303.685C304.486 39.0158 305.285 38.8433 305.998 38.4732C306.453 38.2092 306.805 37.7989 306.997 37.3091C307.177 36.9194 307.267 35.8984 307.267 34.2463V27.6412L299.498 13.5167C297.955 10.7288 296.87 9.08837 296.24 8.5954C295.504 8.06943 294.616 7.79916 293.712 7.82598V6.93164H309.51V7.82598H308.806C308.113 7.76807 307.419 7.91211 306.807 8.24067C306.649 8.32984 306.514 8.45588 306.415 8.6081C306.316 8.76032 306.255 8.93421 306.238 9.11502C306.238 9.70125 306.885 11.1685 308.181 13.5167L314.137 24.4286L320.057 14.491C321.526 12.0595 322.261 10.4457 322.261 9.64962C322.257 9.42886 322.197 9.21265 322.087 9.02127C321.977 8.82989 321.82 8.66961 321.631 8.55543C321.077 8.15073 320.062 7.91091 318.593 7.82598V6.93164H328.666Z" fill="black"/>
<path d="M352.608 6.17706L352.873 17.1689H351.874C351.52 14.6133 350.3 12.2567 348.416 10.4938C346.571 8.82842 344.572 7.99571 342.421 7.99571C340.992 7.9169 339.587 8.39101 338.499 9.31972C338.049 9.69134 337.687 10.1567 337.437 10.6832C337.186 11.2097 337.054 11.7845 337.05 12.3675C337.034 13.049 337.207 13.7216 337.549 14.311C338.147 15.2055 338.914 15.9744 339.808 16.5743C341.509 17.6243 343.271 18.5736 345.084 19.4172C348.941 21.3158 351.542 23.1061 352.888 24.7882C354.202 26.4281 354.908 28.4724 354.886 30.5739C354.893 31.9212 354.609 33.2541 354.053 34.4813C353.496 35.7084 352.682 36.8008 351.664 37.6836C349.522 39.6822 346.796 40.6814 343.485 40.6814C342.495 40.6867 341.508 40.5811 340.542 40.3666C339.354 40.0649 338.193 39.6672 337.07 39.1775C336.467 38.8913 335.816 38.7217 335.151 38.6779C334.664 38.7032 334.197 38.8776 333.812 39.1775C333.298 39.56 332.901 40.0794 332.668 40.6764H331.769V28.2007H332.668C333.384 31.6981 334.758 34.3628 336.79 36.1947C338.822 38.0267 341.023 38.9527 343.395 38.9727C344.983 39.0533 346.541 38.5161 347.742 37.4738C348.56 36.7963 349.111 35.8492 349.294 34.8026C349.477 33.7559 349.281 32.6782 348.741 31.763C348.255 30.9538 347.615 30.2477 346.857 29.6846C345.44 28.6924 343.935 27.8327 342.361 27.1165C339.363 25.6443 337.209 24.3885 335.9 23.3493C334.665 22.4008 333.634 21.2109 332.873 19.8519C332.164 18.555 331.799 17.098 331.814 15.62C331.797 14.3611 332.046 13.1127 332.544 11.9565C333.043 10.8003 333.779 9.76219 334.706 8.91003C335.679 7.98949 336.824 7.2709 338.077 6.7958C339.329 6.3207 340.662 6.09851 342.001 6.14208C343.049 6.14035 344.093 6.26959 345.109 6.5268C346.069 6.79899 347 7.16203 347.892 7.61099C348.602 8.01369 349.382 8.28134 350.19 8.40041C350.375 8.41132 350.56 8.38215 350.732 8.31488C350.905 8.24762 351.06 8.14385 351.189 8.0107C351.557 7.44809 351.791 6.80896 351.874 6.14208L352.608 6.17706Z" fill="black"/>
<path d="M101.65 56.0352L101.82 59.6425H101.385C101.348 59.1737 101.233 58.7143 101.045 58.2835C100.84 57.8725 100.514 57.5343 100.111 57.3142C99.6313 57.0849 99.1029 56.9769 98.5719 56.9994H96.4285V68.7507C96.4285 69.7 96.5284 70.2896 96.7333 70.5244C96.9082 70.6936 97.1173 70.8235 97.3465 70.9053C97.5757 70.9872 97.8197 71.0191 98.0623 70.999H98.5919V71.4187H92.0967V70.999H92.6413C92.903 71.025 93.167 70.9846 93.4089 70.8816C93.6508 70.7785 93.8628 70.6162 94.0253 70.4095C94.2419 69.885 94.3276 69.3157 94.2751 68.7507V56.9994H92.4265C91.9101 56.9763 91.3931 57.0302 90.8926 57.1593C90.4809 57.3244 90.1314 57.6144 89.8934 57.9887C89.5861 58.4872 89.4139 59.0572 89.3937 59.6425H88.9341L89.1139 56.0352H101.65Z" fill="black"/>
<path d="M117.318 64.9529C117.237 66.2587 117.637 67.549 118.442 68.5802C118.759 68.987 119.163 69.317 119.625 69.5454C120.087 69.7738 120.595 69.8948 121.11 69.8992C121.747 69.9116 122.371 69.7131 122.884 69.3346C123.478 68.825 123.916 68.1583 124.148 67.4111L124.498 67.6409C124.329 68.7006 123.847 69.6856 123.114 70.4688C122.759 70.8797 122.318 71.2073 121.823 71.4284C121.327 71.6495 120.789 71.7585 120.246 71.7479C119.638 71.751 119.037 71.6222 118.484 71.3703C117.931 71.1184 117.44 70.7494 117.043 70.2889C116.112 69.2009 115.635 67.7969 115.709 66.3668C115.709 64.5932 116.164 63.2042 117.078 62.2099C117.506 61.7261 118.035 61.3414 118.627 61.0825C119.219 60.8237 119.86 60.6969 120.506 60.7111C121.038 60.6936 121.568 60.7867 122.063 60.9845C122.557 61.1823 123.005 61.4805 123.379 61.8602C123.761 62.2734 124.057 62.759 124.25 63.2884C124.442 63.8179 124.526 64.3804 124.498 64.9429L117.318 64.9529ZM117.318 64.2934H122.129C122.124 63.8141 122.043 63.3386 121.89 62.8844C121.715 62.474 121.421 62.1258 121.045 61.8852C120.699 61.6497 120.29 61.5227 119.871 61.5204C119.556 61.5225 119.244 61.5882 118.955 61.7135C118.666 61.8389 118.405 62.0213 118.187 62.2499C117.665 62.8028 117.357 63.5237 117.318 64.2834V64.2934Z" fill="black"/>
<path d="M147.58 67.4509C147.389 68.6537 146.812 69.7617 145.937 70.6086C145.207 71.3115 144.236 71.7084 143.224 71.7178C142.63 71.7112 142.046 71.5734 141.512 71.3142C140.978 71.0551 140.508 70.681 140.136 70.2189C139.217 69.0956 138.749 67.671 138.822 66.2218C138.789 65.4923 138.902 64.7636 139.152 64.0776C139.402 63.3916 139.786 62.7619 140.281 62.2248C140.723 61.7376 141.263 61.3495 141.866 61.086C142.469 60.8225 143.12 60.6896 143.778 60.696C144.68 60.6627 145.565 60.9494 146.276 61.5054C146.559 61.6933 146.796 61.9428 146.969 62.2352C147.142 62.5277 147.247 62.8555 147.276 63.1941C147.28 63.323 147.258 63.4515 147.21 63.5711C147.161 63.6908 147.088 63.7989 146.996 63.8886C146.891 63.9817 146.768 64.053 146.635 64.0984C146.502 64.1439 146.361 64.1625 146.221 64.1534C146.033 64.1648 145.844 64.1319 145.671 64.0573C145.497 63.9826 145.343 63.8684 145.222 63.7237C145.061 63.4474 144.973 63.1343 144.967 62.8144C144.946 62.4351 144.782 62.0779 144.508 61.8151C144.194 61.5732 143.804 61.4525 143.408 61.4754C143.06 61.464 142.714 61.534 142.397 61.6797C142.081 61.8254 141.803 62.0428 141.585 62.3148C140.939 63.1538 140.613 64.1952 140.665 65.2526C140.643 66.4126 140.961 67.5537 141.58 68.5351C141.825 68.9714 142.183 69.3338 142.616 69.5843C143.05 69.8348 143.542 69.9642 144.043 69.9591C144.78 69.963 145.493 69.6923 146.041 69.1996C146.581 68.6659 146.996 68.0192 147.256 67.306L147.58 67.4509Z" fill="black"/>
<path d="M164.987 55.29V62.8894C165.558 62.1977 166.233 61.5978 166.986 61.1107C167.437 60.8606 167.944 60.7267 168.46 60.721C169.001 60.7158 169.529 60.8916 169.959 61.2206C170.429 61.6155 170.758 62.1518 170.898 62.7495C171.081 63.6213 171.155 64.5125 171.118 65.4025V69.0798C171.089 69.5351 171.142 69.9918 171.273 70.4288C171.35 70.6108 171.485 70.762 171.657 70.8585C171.973 70.9913 172.315 71.0462 172.657 71.0183V71.428H167.575V71.0183H167.81C168.158 71.0505 168.507 70.9737 168.809 70.7985C169.011 70.6323 169.152 70.4038 169.209 70.149C169.24 69.7935 169.252 69.4366 169.244 69.0798V65.4025C169.282 64.6534 169.221 63.9026 169.064 63.1692C168.972 62.8478 168.775 62.5664 168.505 62.3698C168.23 62.1859 167.905 62.0933 167.575 62.105C167.171 62.1114 166.774 62.2123 166.416 62.3998C165.873 62.7119 165.386 63.114 164.977 63.5889V69.0848C164.947 69.5313 164.988 69.9798 165.097 70.4138C165.194 70.6015 165.348 70.7537 165.537 70.8485C165.892 70.9917 166.275 71.0515 166.656 71.0233V71.433H161.515V71.0233C161.89 71.042 162.264 70.9682 162.604 70.8085C162.773 70.7133 162.902 70.5609 162.969 70.3788C163.084 69.9577 163.13 69.5206 163.104 69.0848V59.6668C163.126 58.9362 163.097 58.2051 163.019 57.4784C162.995 57.27 162.904 57.0751 162.759 56.9238C162.626 56.8189 162.459 56.7657 162.289 56.7739C162.024 56.7967 161.763 56.8572 161.515 56.9538L161.355 56.5591L164.468 55.29H164.987Z" fill="black"/>
<path d="M189.449 62.92C190.668 61.4544 191.834 60.7217 192.947 60.7217C193.467 60.7073 193.979 60.8557 194.411 61.1463C194.872 61.5013 195.212 61.9899 195.385 62.5453C195.583 63.2229 195.667 63.9286 195.635 64.6338V69.0705C195.607 69.5228 195.661 69.9764 195.795 70.4095C195.878 70.5964 196.02 70.7508 196.199 70.8491C196.516 70.9791 196.858 71.0338 197.199 71.009V71.4187H192.072V71.009H192.287C192.635 71.0402 192.984 70.9634 193.286 70.7892C193.491 70.6247 193.634 70.3957 193.691 70.1397C193.735 69.785 193.75 69.4275 193.736 69.0705V64.8186C193.784 64.1125 193.657 63.4056 193.366 62.7601C193.241 62.5463 193.058 62.3723 192.837 62.2582C192.617 62.1442 192.369 62.0947 192.122 62.1156C191.223 62.1156 190.329 62.6153 189.434 63.6145V69.1104C189.401 69.549 189.443 69.9901 189.559 70.4145C189.649 70.6235 189.803 70.7986 189.999 70.9141C190.361 71.0422 190.745 71.0933 191.128 71.064V71.4737H186.002V71.064H186.232C186.429 71.0888 186.629 71.0654 186.816 70.9958C187.002 70.9262 187.168 70.8124 187.301 70.6643C187.529 70.1852 187.624 69.6537 187.576 69.1254V65.2683C187.599 64.5079 187.572 63.7469 187.496 62.99C187.469 62.7801 187.376 62.5842 187.231 62.4304C187.096 62.3281 186.93 62.2767 186.761 62.2855C186.5 62.2955 186.243 62.3531 186.002 62.4554L185.832 62.0457L188.965 60.7766H189.464L189.449 62.92Z" fill="black"/>
<path d="M215.989 60.7212C216.718 60.699 217.441 60.8501 218.099 61.1619C218.757 61.4737 219.332 61.9374 219.777 62.5148C220.574 63.5052 221.003 64.7411 220.991 66.0122C220.978 66.991 220.75 67.955 220.321 68.8352C219.948 69.7034 219.325 70.441 218.531 70.9543C217.738 71.4676 216.809 71.7335 215.864 71.718C215.136 71.7387 214.414 71.5784 213.762 71.2514C213.111 70.9244 212.551 70.441 212.132 69.8444C211.363 68.8264 210.952 67.5828 210.963 66.307C210.971 65.3166 211.214 64.3422 211.673 63.4641C212.051 62.6376 212.659 61.9375 213.424 61.4475C214.19 60.9576 215.08 60.6985 215.989 60.7012V60.7212ZM215.64 61.4606C215.212 61.466 214.794 61.5887 214.431 61.8154C213.969 62.1122 213.618 62.553 213.431 63.0694C213.16 63.8061 213.033 64.588 213.057 65.3727C213.022 66.7323 213.333 68.0785 213.961 69.2848C214.56 70.384 215.355 70.9286 216.339 70.9286C216.692 70.9328 217.04 70.8529 217.355 70.6956C217.671 70.5384 217.944 70.3082 218.153 70.0243C218.627 69.4147 218.867 68.3805 218.867 66.9016C218.867 65.0563 218.469 63.604 217.673 62.5448C217.45 62.2098 217.148 61.9351 216.793 61.7451C216.438 61.5551 216.042 61.4557 215.64 61.4556V61.4606Z" fill="black"/>
<path d="M238.967 55.29V69.0698C238.939 69.506 238.986 69.9438 239.107 70.3638C239.194 70.5747 239.349 70.7505 239.547 70.8635C239.896 71.0003 240.272 71.0566 240.646 71.0283V71.438H235.55V71.0283C235.89 71.0556 236.231 71.006 236.549 70.8834C236.735 70.766 236.878 70.5904 236.954 70.3838C237.081 69.9614 237.131 69.5199 237.104 69.0798V59.6318C237.126 58.9097 237.099 58.1869 237.024 57.4684C237.002 57.2636 236.912 57.0719 236.769 56.9238C236.643 56.8199 236.482 56.7664 236.319 56.7739C236.061 56.7884 235.807 56.8494 235.57 56.9538L235.38 56.5591L238.478 55.29H238.967Z" fill="black"/>
<path d="M259.807 60.7212C260.535 60.6999 261.258 60.8513 261.916 61.163C262.574 61.4748 263.149 61.9381 263.594 62.5149C264.391 63.5052 264.82 64.7411 264.808 66.0123C264.796 66.9911 264.567 67.955 264.139 68.8352C263.765 69.7034 263.142 70.441 262.349 70.9543C261.555 71.4677 260.627 71.7335 259.682 71.718C258.953 71.7401 258.23 71.5803 257.579 71.2532C256.927 70.9261 256.367 70.442 255.95 69.8444C255.181 68.8265 254.77 67.5828 254.78 66.3071C254.788 65.3166 255.032 64.3422 255.49 63.4642C255.867 62.6369 256.475 61.9361 257.241 61.446C258.007 60.9558 258.898 60.6972 259.807 60.7012V60.7212ZM259.452 61.4607C259.026 61.4662 258.609 61.5889 258.248 61.8154C257.786 62.1123 257.435 62.553 257.249 63.0695C256.975 63.8055 256.848 64.5879 256.874 65.3727C256.839 66.7323 257.15 68.0785 257.778 69.2848C258.378 70.384 259.172 70.9286 260.151 70.9286C260.505 70.9332 260.854 70.8535 261.17 70.6963C261.486 70.539 261.761 70.3086 261.97 70.0243C262.445 69.4147 262.685 68.3805 262.685 66.9016C262.685 65.0563 262.287 63.6041 261.49 62.5448C261.266 62.2088 260.962 61.9334 260.606 61.7434C260.249 61.5533 259.851 61.4545 259.447 61.4557L259.452 61.4607Z" fill="black"/>
<path d="M281.985 67.6312C281.381 67.3504 280.872 66.8988 280.521 66.3321C280.187 65.7759 280.014 65.1375 280.022 64.4885C280.019 63.9886 280.12 63.4935 280.321 63.0356C280.522 62.5776 280.816 62.167 281.186 61.8305C281.587 61.4565 282.059 61.1659 282.574 60.9755C283.088 60.7851 283.636 60.6987 284.184 60.7213C285.096 60.6979 285.995 60.9504 286.762 61.4458H288.96C289.151 61.4363 289.341 61.4463 289.53 61.4757C289.578 61.4916 289.617 61.5257 289.64 61.5707C289.695 61.6838 289.719 61.8098 289.71 61.9354C289.718 62.0742 289.699 62.2133 289.655 62.3451C289.623 62.3851 289.582 62.4161 289.535 62.435C289.345 62.467 289.152 62.4788 288.96 62.47H287.611C288.095 63.1637 288.31 64.009 288.218 64.8495C288.127 65.69 287.733 66.4687 287.112 67.0416C286.283 67.7591 285.209 68.128 284.114 68.0708C283.581 68.0683 283.052 67.9926 282.54 67.846C282.272 68.0556 282.044 68.311 281.865 68.6004C281.762 68.7662 281.702 68.9551 281.691 69.15C281.693 69.2221 281.71 69.293 281.742 69.3577C281.774 69.4223 281.819 69.4793 281.875 69.5248C282.089 69.678 282.342 69.7681 282.605 69.7846C282.82 69.8145 283.349 69.8395 284.194 69.8645C285.753 69.9045 286.762 69.9544 287.221 70.0244C287.856 70.0882 288.45 70.3627 288.91 70.8038C289.116 71.0092 289.278 71.2541 289.386 71.5237C289.494 71.7934 289.546 72.0822 289.54 72.3726C289.52 72.8354 289.402 73.2888 289.195 73.7029C288.987 74.1171 288.694 74.4827 288.336 74.7759C287.072 75.9092 285.415 76.5028 283.719 76.4296C282.415 76.4696 281.128 76.1218 280.022 75.4304C279.452 75.0507 279.167 74.6609 279.167 74.2512C279.17 74.0623 279.214 73.8764 279.297 73.7067C279.515 73.288 279.78 72.8957 280.087 72.5375C280.142 72.4676 280.526 72.0379 281.246 71.3134C280.939 71.145 280.658 70.9329 280.412 70.6839C280.255 70.5117 280.167 70.2873 280.167 70.0544C280.19 69.7212 280.302 69.4003 280.492 69.1251C280.916 68.5586 281.419 68.0555 281.985 67.6312ZM281.87 71.4184C281.559 71.7435 281.289 72.106 281.066 72.4976C280.897 72.7755 280.803 73.092 280.791 73.4169C280.807 73.6194 280.876 73.8141 280.992 73.9809C281.108 74.1478 281.266 74.2807 281.451 74.3662C282.459 74.8951 283.592 75.1386 284.728 75.0706C286.087 75.0706 287.097 74.8308 287.726 74.3512C287.998 74.1896 288.227 73.9659 288.396 73.6984C288.564 73.4309 288.667 73.1272 288.695 72.8123C288.701 72.6288 288.648 72.4484 288.544 72.2973C288.439 72.1463 288.289 72.0326 288.116 71.9729C287.358 71.7547 286.571 71.6552 285.783 71.6782C284.475 71.6609 283.169 71.5742 281.87 71.4184ZM283.959 61.2659C283.689 61.2635 283.421 61.3225 283.177 61.4385C282.933 61.5544 282.719 61.7244 282.55 61.9354C282.128 62.5331 281.928 63.2595 281.985 63.9889C281.924 64.9748 282.195 65.9529 282.755 66.7668C282.927 67.0025 283.152 67.1935 283.413 67.3239C283.674 67.4543 283.962 67.5203 284.254 67.5163C284.523 67.5228 284.79 67.4682 285.035 67.3566C285.28 67.2449 285.496 67.0791 285.668 66.8717C286.089 66.2815 286.287 65.5609 286.227 64.8382C286.288 63.8361 286.012 62.8424 285.443 62.0153C285.274 61.7799 285.051 61.5888 284.793 61.4583C284.535 61.3278 284.248 61.2618 283.959 61.2659Z" fill="black"/>
<path d="M307.272 60.7212V69.07C307.244 69.5078 307.291 69.9472 307.412 70.369C307.492 70.5778 307.639 70.7537 307.831 70.8686C308.147 70.9993 308.49 71.054 308.831 71.0285V71.4382H303.784V71.0285C304.124 71.0512 304.464 71.0018 304.784 70.8836C304.974 70.7679 305.12 70.5921 305.198 70.384C305.33 69.9626 305.383 69.5205 305.353 69.08V65.0829C305.376 64.3519 305.341 63.6201 305.248 62.8946C305.222 62.7063 305.136 62.5314 305.003 62.3949C304.867 62.2963 304.702 62.2469 304.534 62.255C304.269 62.2654 304.009 62.3229 303.764 62.4249L303.604 62.0152L306.737 60.7462L307.272 60.7212ZM306.327 55.2902C306.479 55.2882 306.628 55.3164 306.768 55.3731C306.908 55.4299 307.036 55.514 307.143 55.6206C307.25 55.7271 307.334 55.854 307.392 55.9938C307.449 56.1335 307.478 56.2833 307.477 56.4344C307.478 56.5856 307.449 56.7355 307.392 56.8754C307.334 57.0152 307.249 57.1422 307.142 57.2488C306.98 57.4095 306.775 57.5189 306.552 57.5631C306.328 57.6074 306.097 57.5845 305.886 57.4974C305.676 57.4104 305.496 57.263 305.369 57.0738C305.242 56.8846 305.174 56.6621 305.173 56.4344C305.172 56.2829 305.201 56.1327 305.259 55.9926C305.316 55.8525 305.401 55.7254 305.509 55.6187C305.617 55.5121 305.744 55.4281 305.885 55.3717C306.026 55.3152 306.176 55.2875 306.327 55.2902Z" fill="black"/>
<path d="M324.759 64.9529C324.673 66.2584 325.072 67.5496 325.878 68.5802C326.195 68.9862 326.599 69.3156 327.061 69.5439C327.523 69.7722 328.031 69.8937 328.546 69.8992C329.185 69.9115 329.81 69.7131 330.324 69.3346C330.917 68.8238 331.355 68.1575 331.588 67.4111L331.938 67.6409C331.768 68.6999 331.286 69.6843 330.554 70.4688C330.199 70.8798 329.757 71.2074 329.26 71.4285C328.764 71.6495 328.225 71.7586 327.681 71.7478C327.074 71.7507 326.473 71.6217 325.92 71.3698C325.367 71.1179 324.875 70.7492 324.479 70.2889C323.548 69.2009 323.07 67.7969 323.145 66.3668C323.145 64.5931 323.599 63.2042 324.514 62.2099C324.943 61.7257 325.472 61.3408 326.065 61.0819C326.657 60.8231 327.3 60.6965 327.946 60.711C328.478 60.6937 329.007 60.7868 329.501 60.9846C329.994 61.1825 330.442 61.4806 330.814 61.8602C331.198 62.273 331.495 62.7584 331.688 63.2878C331.881 63.8173 331.966 64.38 331.938 64.9429L324.759 64.9529ZM324.759 64.2934H329.565C329.563 63.8141 329.484 63.3384 329.33 62.8844C329.152 62.4761 328.859 62.1288 328.486 61.8852C328.139 61.651 327.73 61.5242 327.312 61.5204C326.996 61.523 326.683 61.5888 326.393 61.7141C326.103 61.8394 325.841 62.0216 325.623 62.2499C325.1 62.8022 324.794 63.5239 324.759 64.2834V64.2934Z" fill="black"/>
<path d="M352.913 60.7215V64.2589H352.538C352.387 63.4142 352.002 62.6286 351.429 61.9906C350.953 61.5828 350.341 61.3689 349.715 61.391C349.25 61.3692 348.793 61.5185 348.431 61.8107C348.283 61.9183 348.162 62.0576 348.075 62.2185C347.989 62.3793 347.94 62.5576 347.931 62.74C347.922 63.1345 348.051 63.5197 348.296 63.8292C348.694 64.2619 349.182 64.6029 349.725 64.8284L351.384 65.6328C352.919 66.3823 353.685 67.3682 353.682 68.5906C353.696 69.0292 353.606 69.4648 353.42 69.8623C353.235 70.2598 352.958 70.6081 352.613 70.8789C351.941 71.4429 351.092 71.7509 350.215 71.7483C349.477 71.7321 348.744 71.6178 348.036 71.4086C347.838 71.3395 347.631 71.3007 347.422 71.2936C347.332 71.2965 347.246 71.3261 347.174 71.3787C347.102 71.4312 347.047 71.5043 347.017 71.5884H346.642V67.8762H347.017C347.149 68.7843 347.573 69.6247 348.226 70.2694C348.765 70.7836 349.48 71.0731 350.225 71.0788C350.694 71.0977 351.153 70.9328 351.504 70.6191C351.662 70.4809 351.788 70.3103 351.874 70.1189C351.96 69.9275 352.004 69.7199 352.003 69.51C352.008 69.2643 351.962 69.0203 351.866 68.7938C351.77 68.5674 351.628 68.3637 351.449 68.1959C350.782 67.6487 350.044 67.1949 349.255 66.8469C348.444 66.4971 347.712 65.9873 347.102 65.3481C346.752 64.8774 346.575 64.3002 346.602 63.7143C346.592 63.3155 346.664 62.9189 346.816 62.5498C346.967 62.1808 347.194 61.8473 347.482 61.5709C347.783 61.2811 348.139 61.0552 348.53 60.9067C348.921 60.7581 349.337 60.6901 349.755 60.7065C350.264 60.7205 350.769 60.808 351.254 60.9663C351.504 61.0529 351.764 61.1099 352.028 61.1362C352.128 61.1433 352.227 61.115 352.308 61.0562C352.412 60.9582 352.494 60.8389 352.548 60.7065L352.913 60.7215Z" fill="black"/>
<path d="M359.183 8.9948V2.82439H356.885V2H362.421V2.82439H360.107V8.9948H359.183Z" fill="#231F20"/>
<path d="M363.34 8.9948V2H364.729L366.383 6.94133C366.532 7.40598 366.642 7.74573 366.712 7.97556C366.792 7.72075 366.917 7.35102 367.087 6.85639L368.756 2H370V8.9948H369.111V3.13915L367.082 8.9948H366.228L364.229 3.03923V8.9948H363.34Z" fill="#231F20"/>
</g>
<line x1="418.5" y1="91" x2="418.5" y2="1" stroke="#E7E7E7"/>
<path d="M689.289 19.2031C682.98 19.2031 676.812 21.0739 671.567 24.579C666.321 28.084 662.233 33.0658 659.818 38.8945C657.404 44.7232 656.772 51.1369 658.003 57.3245C659.234 63.5122 662.272 69.1959 666.733 73.657C671.194 78.1181 676.878 81.1561 683.065 82.3869C689.253 83.6177 695.667 82.986 701.495 80.5717C707.324 78.1574 712.306 74.0689 715.811 68.8232C719.316 63.5776 721.187 57.4104 721.187 51.1015C721.187 42.6415 717.826 34.528 711.844 28.5459C705.862 22.5638 697.748 19.2031 689.289 19.2031ZM689.289 70.2405C685.503 70.2405 681.803 69.118 678.655 67.015C675.508 64.912 673.055 61.9228 671.606 58.4256C670.158 54.9285 669.779 51.0802 670.517 47.3676C671.256 43.655 673.079 40.2448 675.755 37.5681C678.432 34.8915 681.842 33.0687 685.555 32.3302C689.267 31.5917 693.115 31.9707 696.613 33.4193C700.11 34.8679 703.099 37.321 705.202 40.4684C707.305 43.6158 708.428 47.3161 708.428 51.1015C708.428 56.1774 706.411 61.0455 702.822 64.6348C699.233 68.2241 694.364 70.2405 689.289 70.2405Z" fill="#8F8F8F"/>
<path d="M622.492 19.2031C616.183 19.2031 610.016 21.0739 604.77 24.579C599.524 28.084 595.436 33.0658 593.021 38.8945C590.607 44.7232 589.975 51.1369 591.206 57.3245C592.437 63.5122 595.475 69.1959 599.936 73.657C604.397 78.1181 610.081 81.1561 616.269 82.3869C622.456 83.6177 628.87 82.986 634.699 80.5717C640.527 78.1574 645.509 74.0689 649.014 68.8232C652.519 63.5776 654.39 57.4104 654.39 51.1015C654.39 46.9125 653.565 42.7646 651.962 38.8945C650.359 35.0244 648.009 31.508 645.047 28.5459C642.085 25.5839 638.569 23.2343 634.699 21.6312C630.829 20.0282 626.681 19.2031 622.492 19.2031ZM622.492 70.2405C618.706 70.2405 615.006 69.118 611.859 67.015C608.711 64.912 606.258 61.9228 604.809 58.4256C603.361 54.9285 602.982 51.0802 603.72 47.3676C604.459 43.655 606.282 40.2448 608.958 37.5681C611.635 34.8915 615.045 33.0687 618.758 32.3302C622.47 31.5917 626.319 31.9707 629.816 33.4193C633.313 34.8679 636.302 37.321 638.405 40.4684C640.508 43.6158 641.631 47.3161 641.631 51.1015C641.631 56.1774 639.614 61.0455 636.025 64.6348C632.436 68.2241 627.568 70.2405 622.492 70.2405Z" fill="#8F8F8F"/>
<path d="M488.898 19.2031C482.589 19.2031 476.422 21.0739 471.177 24.579C465.931 28.084 461.842 33.0658 459.428 38.8945C457.014 44.7232 456.382 51.1369 457.613 57.3245C458.844 63.5122 461.882 69.1959 466.343 73.657C470.804 78.1181 476.488 81.1561 482.675 82.3869C488.863 83.6177 495.277 82.986 501.105 80.5717C506.934 78.1574 511.916 74.0689 515.421 68.8232C518.926 63.5776 520.797 57.4104 520.797 51.1015C520.797 42.6415 517.436 34.528 511.454 28.5459C505.472 22.5638 497.358 19.2031 488.898 19.2031ZM488.898 70.2405C485.113 70.2405 481.413 69.118 478.265 67.015C475.118 64.912 472.665 61.9228 471.216 58.4256C469.768 54.9285 469.389 51.0802 470.127 47.3676C470.866 43.655 472.688 40.2448 475.365 37.5681C478.042 34.8915 481.452 33.0687 485.165 32.3302C488.877 31.5917 492.725 31.9707 496.223 33.4193C499.72 34.8679 502.709 37.321 504.812 40.4684C506.915 43.6158 508.037 47.3161 508.037 51.1015C508.037 56.1774 506.021 61.0455 502.432 64.6348C498.842 68.2241 493.974 70.2405 488.898 70.2405Z" fill="#714B67"/>
<path d="M581.214 0C579.522 0 577.899 0.672142 576.703 1.86856C575.506 3.06498 574.834 4.68768 574.834 6.37967V25.5187C569.088 21.2089 562.055 18.9648 554.874 19.1496C547.694 19.3345 540.786 21.9375 535.269 26.5372C529.752 31.137 525.949 37.4642 524.475 44.4944C523.002 51.5247 523.944 58.8465 527.15 65.2743C530.356 71.7022 535.638 76.8599 542.14 79.9123C548.642 82.9648 555.984 83.7333 562.977 82.0934C569.971 80.4536 576.206 76.5014 580.673 70.8767C585.141 65.252 587.579 58.2842 587.594 51.1012V6.37967C587.594 4.68768 586.921 3.06498 585.725 1.86856C584.529 0.672142 582.906 0 581.214 0ZM555.695 70.1764C551.91 70.1764 548.21 69.0539 545.062 66.9509C541.915 64.8479 539.462 61.8588 538.013 58.3616C536.564 54.8644 536.185 51.0161 536.924 47.3035C537.662 43.5909 539.485 40.1807 542.162 37.504C544.839 34.8274 548.249 33.0046 551.961 32.2661C555.674 31.5276 559.522 31.9066 563.019 33.3552C566.517 34.8038 569.506 37.2569 571.609 40.4043C573.712 43.5517 574.834 47.252 574.834 51.0374C574.834 56.1134 572.818 60.9814 569.229 64.5707C565.639 68.16 560.771 70.1764 555.695 70.1764Z" fill="#8F8F8F"/>
<defs>
<clipPath id="clip0_76_492">
<rect width="370" height="74.4297" fill="white" transform="translate(0 2)"/>
</clipPath>
</defs>
</svg>
