<svg width="24" height="24" viewBox="0 0 24 24" fill="none" xmlns="http://www.w3.org/2000/svg">
<g clip-path="url(#clip0_36_1852)">
<path d="M7.5 0H3.5C1.57 0 0 1.57 0 3.5V11H11V3.5C11 1.57 9.43 0 7.5 0ZM8 8H3V3.5C3 3.22 3.22 3 3.5 3H7.5C7.78 3 8 3.22 8 3.5V8ZM20.5 13H16.5C14.57 13 13 14.57 13 16.5V24H24V16.5C24 14.57 22.43 13 20.5 13ZM21 21H16V16.5C16 16.22 16.22 16 16.5 16H20.5C20.78 16 21 16.22 21 16.5V21ZM24 8V11H21V8C21 7.45 20.55 7 20 7H18V10.56L13.83 6.29C13.39 5.85 13.39 5.14 13.83 4.7L18 0.44V4H20C22.21 4 24 5.79 24 8ZM10.17 17.64C10.61 18.08 10.61 18.79 10.17 19.23L6 23.5V20H4C1.79 20 0 18.21 0 16V13H3V16C3 16.55 3.45 17 4 17H6V13.38L10.17 17.65V17.64Z" fill="white"/>
</g>
<defs>
<clipPath id="clip0_36_1852">
<rect width="24" height="24" fill="white"/>
</clipPath>
</defs>
</svg>
