<svg width="70" height="70" viewBox="0 0 70 70" xmlns="http://www.w3.org/2000/svg" xmlns:xlink="http://www.w3.org/1999/xlink"><title>mail/static/description/icon</title><defs><path d="M4 0h61c4 0 5 1 5 5v60c0 4-1 5-5 5H4c-3 0-4-1-4-5V5c0-4 1-5 4-5z" id="a"/><linearGradient x1="100%" y1="0%" x2="0%" y2="100%" id="c"><stop stop-color="#CD7690" offset="0%"/><stop stop-color="#CA5377" offset="100%"/></linearGradient><path d="M57.706 35.71c0 9.276-10.012 16.777-22.351 16.777-3.749 0-7.287-.694-10.392-1.92-3.127 2.517-6.969 4.057-11.051 4.493a.835.835 0 0 1-.893-.621c-.1-.404.21-.654.513-.952 1.497-1.484 3.313-2.646 4.027-7.63-2.855-2.815-4.555-6.331-4.555-10.146 0-9.267 10.011-16.776 22.35-16.776 12.34 0 22.352 7.509 22.352 16.776zm-33.647-6.534a1 1 0 0 0-1 1v1.353a1 1 0 0 0 1 1h22.588a1 1 0 0 0 1-1v-1.353a1 1 0 0 0-1-1H24.06zm0 8.056a1 1 0 0 0-1 1v1.353a1 1 0 0 0 1 1h22.588a1 1 0 0 0 1-1v-1.353a1 1 0 0 0-1-1H24.06z" id="d"/><path d="M57.706 33.71c0 9.276-10.012 16.777-22.351 16.777-3.749 0-7.287-.694-10.392-1.92-3.127 2.517-6.969 4.057-11.051 4.493a.835.835 0 0 1-.893-.621c-.1-.404.21-.654.513-.952 1.497-1.484 3.313-2.646 4.027-7.63-2.855-2.815-4.555-6.331-4.555-10.146 0-9.267 10.011-16.776 22.35-16.776 12.34 0 22.352 7.509 22.352 16.776zm-33.647-6.534a1 1 0 0 0-1 1v1.353a1 1 0 0 0 1 1h22.588a1 1 0 0 0 1-1v-1.353a1 1 0 0 0-1-1H24.06zm0 8.056a1 1 0 0 0-1 1v1.353a1 1 0 0 0 1 1h22.588a1 1 0 0 0 1-1v-1.353a1 1 0 0 0-1-1H24.06z" id="e"/></defs><g fill="none" fill-rule="evenodd"><mask id="b" fill="#fff"><use xlink:href="#a"/></mask><g mask="url(#b)"><path fill="url(#c)" d="M0 0H70V70H0z"/><path d="M4 1h61c2.667 0 4.333.667 5 2V0H0v3c.667-1.333 2-2 4-2z" fill="#FFF" fill-opacity=".383"/><path d="M36.847 68.65L4 69c-2 0-4-.146-4-4.098V46.5L17.288 24 54 24.95v17.92L36.847 68.65z" fill="#393939" opacity=".324"/><path d="M4 69h61c2.667 0 4.333-1 5-3v4H0v-4c.667 2 2 3 4 3z" fill="#000" fill-opacity=".383"/><use fill="#000" fill-rule="nonzero" opacity=".3" xlink:href="#d"/><use fill="#FFF" fill-rule="nonzero" xlink:href="#e"/></g></g></svg>