<svg width="50" height="50" viewBox="0 0 50 50" xmlns="http://www.w3.org/2000/svg"><path d="M4 25C4 13.402 13.402 4 25 4s21 9.402 21 21-9.402 21-21 21H7.111A3.111 3.111 0 0 1 4 42.889V25Z" fill="var(--o-icons-red-yellow, #F85318)"/><path d="M4 25C4 13.402 13.402 4 25 4s21 9.402 21 21-9.402 21-21 21H7.111A3.111 3.111 0 0 1 4 42.889V25Z" fill="url(#o_icon_mail__a)" fill-opacity=".2"/><path d="M5.767 45.696C23.95 43.356 38 27.819 38 9c0-.166-.001-.331-.003-.496A20.91 20.91 0 0 0 25 4C13.402 4 4 13.402 4 25v17.889c0 1.237.722 2.305 1.767 2.807Z" fill="var(--o-icons-yellow-yellow, #F77B09)"/><path d="M5.767 45.696C23.95 43.356 38 27.819 38 9c0-.166-.001-.331-.003-.496A20.91 20.91 0 0 0 25 4C13.402 4 4 13.402 4 25v17.889c0 1.237.722 2.305 1.767 2.807Z" fill="url(#o_icon_mail__b)" fill-opacity=".2"/><defs><linearGradient id="o_icon_mail__a" x1="4" y1="4" x2="53.412" y2="16.353" gradientUnits="userSpaceOnUse"><stop stop-color="#fff"/><stop offset="1" stop-color="#fff" stop-opacity="0"/></linearGradient><linearGradient id="o_icon_mail__b" x1="4" y1="4" x2="44.804" y2="12.318" gradientUnits="userSpaceOnUse"><stop stop-color="#fff"/><stop offset="1" stop-color="#fff" stop-opacity="0"/></linearGradient></defs></svg>
