<svg width="50" height="50" viewBox="0 0 50 50" xmlns="http://www.w3.org/2000/svg"><path d="M26.936 5H15.642L4 25.012 15.642 45l2.296-3.929-9.346-16.06 9.346-16.06h6.68L26.936 5Z" fill="#446CB3"/><path d="m18.982 18.579 2.296-3.929-3.34-5.698-2.296 3.952 3.34 5.675Zm13.08-9.627 2.296 3.952-16.42 28.168-2.296-3.952 16.42-28.168Z" fill="#D24D57"/><path d="m23.087 45 2.273-3.952h6.702l9.346-16.037-9.346-16.06L34.358 5 46 25.012 34.358 45H23.087Z" fill="#446CB3"/><path d="m30.972 31.352-2.296 3.93 3.386 5.766 2.296-3.883-3.386-5.813Z" fill="#D24D57"/></svg>
