<svg width="1044" height="554" viewBox="0 0 1044 554" fill="none" xmlns="http://www.w3.org/2000/svg">
<path d="M378.646 402.384H369.966V414.094H378.646V402.384Z" fill="#F9B499"/>
<path d="M424.646 395.364L427.346 406.584H437.456L432.066 393.784L424.646 395.364Z" fill="#F9B499"/>
<path d="M348.716 422.534C348.716 421.166 349.26 419.853 350.228 418.885C351.195 417.918 352.508 417.374 353.876 417.374H360.616C361.59 417.276 362.52 416.921 363.311 416.344C364.102 415.768 364.725 414.991 365.116 414.094C365.116 414.094 367.806 407.714 370.956 409.954C370.956 409.954 372.956 410.404 372.306 413.104H378.426C379.079 413.1 379.718 413.287 380.266 413.643C380.813 413.998 381.244 414.506 381.506 415.104C382.36 417.468 382.671 419.994 382.416 422.494H374.306L373.226 419.374L372.556 422.514L348.716 422.534Z" fill="#2A4F97"/>
<path d="M426.896 417.374C426.389 416.362 426.124 415.246 426.124 414.114C426.124 412.982 426.389 411.866 426.896 410.854C426.896 410.854 425.326 401.424 433.746 404.004V405.464L435.806 405.344C436.3 405.311 436.793 405.427 437.221 405.676C437.648 405.926 437.992 406.298 438.206 406.744C438.596 407.544 439.076 408.564 439.496 409.534C439.78 410.252 439.777 411.052 439.486 411.767C439.196 412.482 438.64 413.058 437.936 413.374C435.926 414.244 432.476 415.584 426.896 417.374Z" fill="#2A4F97"/>
<path d="M660.376 408.674L665.226 424.054C665.226 424.054 671.796 429.114 674.496 424.054L672.796 407.874L660.376 408.674Z" fill="#FFBF9D"/>
<path d="M692.326 405.534L699.476 422.534L708.406 422.874L704.386 399.384L692.326 405.534Z" fill="#FFBF9D"/>
<path d="M522.206 420.184H512.436V433.494H522.206V420.184Z" fill="#F9B499"/>
<path d="M568.006 418.944L569.526 433.494L578.656 432.594L577.106 417.374L568.006 418.944Z" fill="#F9B499"/>
<path d="M510.756 442.594V435.764C510.756 434.759 511.156 433.795 511.866 433.084C512.577 432.373 513.541 431.974 514.546 431.974H515.636C515.636 431.974 519.686 425.574 523.386 431.974C523.386 431.974 523.926 435.614 525.726 437.704C526.183 438.235 526.431 438.914 526.426 439.614V439.614C526.426 440.41 526.11 441.173 525.548 441.735C524.985 442.298 524.222 442.614 523.426 442.614L510.756 442.594Z" fill="#F09E47"/>
<path d="M565.536 442.594C565.536 442.594 565.356 430.124 571.416 432.024C572.116 432.426 572.915 432.62 573.72 432.585C574.526 432.55 575.305 432.286 575.966 431.824C575.966 431.824 580.136 424.824 582.226 429.934C582.226 429.934 585.636 436.194 591.896 437.144L598.796 437.404C599.64 437.435 600.439 437.792 601.024 438.4C601.61 439.008 601.937 439.82 601.936 440.664V442.594H576.346L574.786 439.224V442.594H565.536Z" fill="#F09E47"/>
<path d="M529.796 134.294V123.494C529.796 123.494 522.046 121.144 529.796 116.544C529.796 116.544 543.956 108.114 556.026 112.044C556.026 112.044 559.566 114.744 557.026 121.264C557.026 121.264 561.306 126.204 555.576 134.854L554.896 127.104L540.896 125.974L537.896 139.124L533.516 137.664L529.796 134.294Z" fill="#2A4F97"/>
<path d="M532.866 139.534C532.866 139.534 530.226 153.014 523.226 158.614L532.226 162.434L544.996 160.644L543.156 148.724C543.156 148.724 554.886 155.024 555.586 134.014C556.193 131.186 556.193 128.262 555.586 125.434C555.586 125.434 552.286 127.554 549.586 123.584C549.586 123.584 540.116 122.834 539.796 125.754C539.796 125.754 537.676 142.754 535.876 137.214C536.208 135.976 536.303 134.687 536.156 133.414C536.063 132.698 535.761 132.026 535.287 131.481C534.813 130.936 534.19 130.542 533.494 130.35C532.798 130.158 532.061 130.176 531.374 130.4C530.688 130.625 530.084 131.047 529.636 131.614C529.537 131.751 529.447 131.895 529.366 132.044C529.366 132.044 527.226 135.224 532.866 139.534Z" fill="#F9B499"/>
<path d="M360.956 263.484C360.956 263.484 363.956 322.114 367.696 335.254C367.696 335.254 366.346 387.824 369.376 404.004H379.826C379.826 404.004 379.156 395.244 382.526 381.084C382.526 381.084 392.916 349.424 385.866 333.744L389.316 324.804C389.316 324.804 392.406 337.304 393.196 340.154L423.976 398.614L433.746 395.364C433.746 395.364 427.346 352.364 409.146 328.454C409.146 328.454 418.246 292.144 411.506 263.454H359.226" fill="#F09E47"/>
<path d="M356.576 179.004C356.576 179.004 373.646 145.624 403.756 163.654C403.756 163.654 426.226 174.734 429.816 201.914H406.446C406.446 201.914 415.666 240.914 415.886 266.384C415.888 266.621 415.842 266.856 415.752 267.076C415.662 267.296 415.53 267.495 415.363 267.663C415.195 267.832 414.996 267.965 414.777 268.056C414.558 268.147 414.323 268.194 414.086 268.194H360.906C360.665 268.194 360.426 268.146 360.203 268.052C359.981 267.957 359.78 267.819 359.612 267.646C359.444 267.472 359.313 267.267 359.226 267.041C359.139 266.816 359.098 266.575 359.106 266.334L361.516 188.884L356.576 179.004Z" fill="#2A4F97"/>
<path d="M362.636 178.714H369.226C370.232 178.716 371.21 179.045 372.012 179.651C372.815 180.257 373.399 181.107 373.676 182.074L389.226 236.754C389.349 237.198 389.368 237.664 389.282 238.116C389.196 238.568 389.006 238.995 388.729 239.362C388.451 239.73 388.093 240.028 387.682 240.235C387.27 240.442 386.817 240.551 386.356 240.554H383.566L362.636 178.714Z" fill="#FAFAFA"/>
<path d="M487.666 203.154H514.666C514.666 203.154 504.226 219.754 510.226 238.244C510.226 238.244 510.906 249.754 509.226 258.294C509.226 258.294 505.516 265.674 512.226 265.244H559.406C559.406 265.244 566.146 266.934 562.776 258.294C562.776 258.294 552.666 241.904 565.136 203.154H575.926C575.488 193.15 572.299 183.461 566.71 175.153C561.12 166.845 553.347 160.24 544.246 156.064C544.246 156.064 544.356 162.594 533.576 161.064C533.576 161.064 525.706 161.174 524.576 157.244C524.626 157.204 500.816 161.254 487.666 203.154Z" fill="#465C68"/>
<path d="M491.636 203.154C491.636 203.154 491.006 206.204 490.366 210.664C488.056 226.794 508.776 235.374 518.536 222.374C522.006 217.724 525.916 212.174 530.246 205.544C530.246 205.544 534.956 202.954 536.756 191.784V178.104C536.756 178.104 539.456 171.364 534.756 173.604C534.756 173.604 524.196 181.924 524.866 200.004L510.226 212.374C510.114 212.46 509.98 212.512 509.84 212.526C509.699 212.539 509.558 212.513 509.431 212.451C509.304 212.389 509.197 212.293 509.122 212.173C509.047 212.053 509.007 211.915 509.006 211.774L513.176 203.184L491.636 203.154Z" fill="#F9B499"/>
<path d="M508.426 263.484C508.426 263.484 499.126 289.764 511.936 347.724C511.936 347.724 504.486 373.334 508.546 392.884L511.936 422.884H522.716C522.716 422.884 532.826 357.504 533.496 348.074L537.496 321.784L547.966 346.054C547.966 346.054 542.236 356.834 554.706 384.464C554.706 384.464 565.486 412.774 566.836 422.884H578.626C578.626 422.884 572.566 366.604 569.196 349.084C569.196 349.084 567.076 276.614 563.586 263.494L508.426 263.484Z" fill="#2A4F97"/>
<path d="M574.596 203.154L574.956 208.924C574.956 208.924 589.446 194.924 592.476 192.534C592.476 192.534 589.946 184.114 592.476 180.534C592.476 180.534 598.376 173.794 601.406 175.814C600.517 177.244 599.441 178.549 598.206 179.694L595.206 184.744V188.374L603.286 188.204L604.636 185.844C604.636 185.844 604.766 178.784 609.376 177.844C610.113 177.701 610.877 177.845 611.511 178.246C612.145 178.648 612.601 179.277 612.786 180.004C613.256 181.864 613.246 184.764 610.366 187.844C610.366 187.844 605.146 194.084 600.926 194.414C600.926 194.414 588.466 221.044 571.106 231.994C571.106 231.994 566.526 238.764 559.946 225.284C560.516 221.554 561.286 217.534 562.326 213.284C563.206 209.664 564.186 206.284 565.206 203.184C568.327 202.861 571.473 202.851 574.596 203.154V203.154Z" fill="#F9B499"/>
<path d="M600.546 165.354L594.076 189.504H607.026L612.986 165.354H600.546Z" fill="#2A4F97"/>
<path d="M629.706 235.704C629.706 235.704 627.706 223.064 623.616 213.534C623.616 213.534 624.866 213.064 625.806 210.724C625.806 210.724 627.676 203.854 625.496 200.894C625.402 200.679 625.348 200.449 625.336 200.214C625.337 199.529 625.069 198.87 624.591 198.379C624.113 197.887 623.462 197.602 622.776 197.584C621.922 197.613 621.087 197.842 620.338 198.254C619.589 198.666 618.948 199.248 618.466 199.954C618.466 199.954 614.876 202.614 617.376 214.324C617.376 214.324 617.056 243.824 621.746 250.854C621.746 250.854 624.556 256.944 631.266 252.574C631.266 252.574 642.666 240.864 649.846 226.964L648.446 208.964L641.576 205.774C641.576 205.774 631.896 229.774 629.706 235.704Z" fill="#F9B499"/>
<path d="M690.556 214.704C690.556 214.704 698.466 264.144 696.946 288.914C696.946 288.914 691.886 295.994 693.156 302.914C693.156 302.914 694.416 304.914 695.256 299.204C695.256 299.204 697.116 297.694 697.116 300.044C696.793 302.583 696.223 305.085 695.416 307.514C695.308 307.792 695.259 308.089 695.27 308.386C695.282 308.684 695.355 308.976 695.484 309.244C695.614 309.513 695.797 309.751 696.023 309.946C696.248 310.14 696.512 310.286 696.796 310.374C698.546 310.904 700.946 310.594 702.506 306.114C702.506 306.114 704.866 302.404 703.856 289.114C703.856 289.114 708.856 230.024 705.036 212.734L695.616 213.734L690.556 214.704Z" fill="#F9B499"/>
<path d="M642.946 255.804C642.946 255.804 621.456 302.564 660.886 410.074H672.886C672.886 410.074 672.716 362.214 664.626 345.364L666.986 332.934C666.986 332.934 682.826 384.454 693.606 408.384L705.066 404.384C705.066 404.384 700.006 361.924 691.586 343.224C691.586 343.224 710.776 288.494 690.336 258.164L642.946 255.804Z" fill="#2A4F97"/>
<path d="M649.426 441.744C649.428 440.878 649.664 440.028 650.109 439.285C650.555 438.542 651.193 437.934 651.956 437.524L660.396 432.994C662.014 432.12 663.244 430.671 663.846 428.934L665.746 423.424C665.801 423.278 665.908 423.159 666.048 423.09C666.187 423.022 666.348 423.009 666.496 423.054L670.046 424.224C670.359 424.328 670.693 424.35 671.017 424.289C671.34 424.227 671.643 424.085 671.896 423.874L673.066 422.874C673.254 422.72 673.475 422.61 673.711 422.553C673.948 422.496 674.194 422.493 674.432 422.545C674.67 422.597 674.893 422.702 675.084 422.853C675.275 423.003 675.43 423.195 675.536 423.414C676.409 425.235 676.873 427.225 676.896 429.244V440.534C676.896 440.847 676.772 441.147 676.551 441.368C676.329 441.59 676.029 441.714 675.716 441.714V441.714C675.403 441.714 675.103 441.59 674.882 441.368C674.661 441.147 674.536 440.847 674.536 440.534V431.694L669.716 439.454C669.282 440.147 668.679 440.717 667.963 441.113C667.248 441.508 666.444 441.715 665.626 441.714L649.426 441.744Z" fill="#F09E47"/>
<path d="M687.006 438.544C687.006 438.544 684.816 442.254 689.196 441.744L703.006 439.744C703.612 439.653 704.18 439.391 704.642 438.989C705.104 438.587 705.442 438.062 705.616 437.474L708.406 428.114L710.546 437.344C710.609 437.605 710.757 437.838 710.967 438.004C711.178 438.171 711.438 438.263 711.706 438.264V438.264C711.868 438.263 712.027 438.229 712.175 438.164C712.323 438.1 712.456 438.005 712.567 437.888C712.677 437.77 712.763 437.631 712.817 437.479C712.872 437.327 712.896 437.165 712.886 437.004C712.656 433.414 711.806 423.184 709.236 419.334C709.148 419.203 709.032 419.091 708.897 419.008C708.762 418.925 708.611 418.872 708.454 418.852C708.297 418.832 708.137 418.846 707.986 418.893C707.834 418.94 707.695 419.019 707.576 419.124L706.496 420.124C706.04 420.535 705.498 420.837 704.91 421.01C704.321 421.184 703.702 421.222 703.096 421.124L699.746 420.574C699.596 420.549 699.441 420.555 699.293 420.592C699.145 420.63 699.006 420.698 698.886 420.792C698.765 420.886 698.666 421.004 698.594 421.139C698.521 421.274 698.478 421.422 698.466 421.574L698.096 428.444C698.049 429.238 697.821 430.01 697.431 430.703C697.042 431.396 696.5 431.991 695.846 432.444L687.006 438.544Z" fill="#F09E47"/>
<path d="M342.226 217.304L332.126 182.804C331.988 182.328 331.963 181.826 332.052 181.338C332.142 180.85 332.343 180.39 332.641 179.993C332.938 179.596 333.324 179.274 333.768 179.052C334.211 178.831 334.7 178.715 335.196 178.714H366.776C367.47 178.716 368.145 178.943 368.699 179.361C369.253 179.78 369.655 180.367 369.846 181.034L385.706 236.484C385.843 236.959 385.867 237.46 385.777 237.946C385.686 238.432 385.484 238.89 385.187 239.285C384.889 239.68 384.504 240 384.061 240.22C383.618 240.44 383.131 240.555 382.636 240.554H351.846C351.165 240.555 350.502 240.338 349.953 239.935C349.404 239.532 348.999 238.964 348.796 238.314L342.226 217.304Z" fill="#2A4F97"/>
<path d="M428.726 201.914H406.446L409.626 220.424C409.663 220.65 409.652 220.882 409.592 221.104C409.532 221.325 409.426 221.531 409.28 221.708C409.134 221.885 408.953 222.029 408.747 222.13C408.541 222.231 408.316 222.287 408.086 222.294L390.386 222.694C386.796 211.804 383.386 212.254 383.386 212.254C381.586 211.914 382.386 217.864 382.386 217.864H378.226C370.966 211.964 370.806 214.724 370.806 214.724C369.126 216.514 376.586 220.074 376.586 220.074C376.298 220.463 376.107 220.915 376.031 221.393C375.955 221.871 375.996 222.361 376.151 222.819C376.305 223.278 376.568 223.693 376.917 224.028C377.266 224.363 377.691 224.609 378.156 224.744C376.156 228.464 379.156 229.324 379.156 229.324C377.916 235.614 389.316 232.024 389.316 232.024L413.606 236.864C415.402 237.227 417.268 236.919 418.852 235.997C420.435 235.076 421.625 233.605 422.196 231.864C422.196 231.864 427.946 208.204 428.726 201.914Z" fill="#F9B499"/>
<path d="M379.156 153.614V159.314C379.156 159.314 387.746 169.164 396.336 160.014C396.336 160.014 391.016 156.014 389.126 143.434H384.886L379.156 153.614Z" fill="#F9B499"/>
<path d="M665.496 179.004C665.496 179.004 650.376 183.554 640.686 207.944L647.516 210.724C647.516 210.724 651.116 226.854 648.866 237.864C648.866 237.864 643.476 254.484 641.676 259.434H691.106C688.244 254.842 685.614 250.109 683.226 245.254C681.709 241.986 681.114 238.366 681.506 234.784C682.339 227.737 685.031 221.038 689.306 215.374L705.036 212.684C705.036 212.684 703.036 186.174 680.766 177.414C680.766 177.414 678.266 182.414 670.766 181.994C670.226 181.994 669.696 181.934 669.156 181.914C668.016 181.914 665.666 181.544 665.496 179.004Z" fill="#F09E47"/>
<path d="M666.136 181.764C665.957 181.675 665.798 181.549 665.67 181.394C665.542 181.24 665.448 181.06 665.393 180.867C665.339 180.674 665.325 180.472 665.353 180.274C665.381 180.075 665.45 179.884 665.556 179.714C668.556 174.714 667.676 168.564 667.676 168.564C666.355 168.349 665.097 167.844 663.994 167.085C662.89 166.326 661.969 165.332 661.296 164.174C660.6 163.041 660.128 161.785 659.906 160.474C658.967 155.343 659.31 150.06 660.906 145.094C660.906 145.094 667.196 136.894 673.826 146.214C673.826 146.214 674.616 156.444 677.986 156.104C677.986 156.104 681.686 152.284 683.826 154.754C683.826 154.754 686.096 157.364 680.696 162.194L677.756 164.074C677.756 164.074 679.956 174.804 680.206 180.074C680.226 180.409 680.13 180.74 679.936 181.013C679.741 181.285 679.459 181.484 679.136 181.574L675.516 182.574C672.396 183.459 669.059 183.171 666.136 181.764V181.764Z" fill="#F9B499"/>
<path d="M661.346 145.464C661.346 145.464 655.716 141.254 660.216 133.284C660.216 133.284 664.486 125.194 674.476 130.924C676.383 132.866 678.079 135.005 679.536 137.304C680.038 137.844 680.667 138.248 681.366 138.481C682.065 138.713 682.812 138.766 683.536 138.634C684.254 138.564 684.977 138.594 685.686 138.724C687.307 139.025 688.816 139.763 690.049 140.857C691.282 141.951 692.194 143.361 692.686 144.934C693.214 146.486 693.418 148.13 693.286 149.764C693.061 152.867 692.264 155.901 690.936 158.714C689.965 160.709 689.408 162.879 689.296 165.094C689.186 167.614 689.656 170.534 691.876 172.374C691.876 172.374 703.566 183.494 700.306 190.904C700.306 190.904 692.666 198.324 683.006 194.274C680.804 190.983 679.886 186.997 680.426 183.074C679.928 176.69 679.026 170.344 677.726 164.074C677.726 164.074 684.226 158.354 684.126 155.874C684.126 155.874 684.486 153.674 681.276 154.014C680.004 154.403 678.858 155.125 677.956 156.104C677.956 156.104 674.696 157.104 673.796 146.214C673.806 146.194 667.226 137.264 661.346 145.464Z" fill="#2A4F97"/>
<path d="M379.156 157.864V155.794C380.621 155.318 381.972 154.546 383.127 153.526C384.281 152.505 385.213 151.259 385.866 149.864C385.75 151.74 385.035 153.529 383.828 154.968C382.62 156.408 380.983 157.423 379.156 157.864V157.864Z" fill="#F4A48E"/>
<path d="M365.446 135.974C365.446 135.974 364.066 149.754 372.636 154.864C374.205 155.801 376.033 156.21 377.851 156.03C379.67 155.85 381.382 155.091 382.736 153.864C385.179 151.43 386.997 148.442 388.036 145.154C388.036 145.154 393.756 138.004 387.356 134.414H379.356L371.266 130.814L365.446 135.974Z" fill="#F9B499"/>
<path d="M359.446 132.904C359.272 132.94 359.092 132.928 358.924 132.871C358.756 132.813 358.606 132.712 358.49 132.578C358.374 132.443 358.296 132.281 358.263 132.106C358.231 131.931 358.246 131.751 358.306 131.584C359.306 129.124 361.606 125.464 366.546 125.354H371.226C371.226 125.354 379.336 119.514 385.506 123.734C385.506 123.734 390.506 125.354 388.746 134.594C388.746 134.594 392.806 136.054 391.826 144.334C391.826 144.334 394.746 149.334 389.396 147.414L387.866 144.894C387.719 144.643 387.674 144.345 387.741 144.062C387.808 143.779 387.982 143.532 388.226 143.374C389.106 142.834 390.146 141.484 389.786 138.034C389.741 137.383 389.503 136.761 389.102 136.246C388.701 135.731 388.156 135.347 387.536 135.144C387.176 135.045 386.799 135.021 386.429 135.074C386.059 135.128 385.704 135.257 385.386 135.454C384.9 135.766 384.495 136.189 384.205 136.688C383.915 137.187 383.747 137.748 383.716 138.324C383.616 139.534 383.716 141.104 384.856 141.634C384.856 141.634 383.166 143.124 381.186 139.374C380.659 138.377 380.047 137.426 379.356 136.534C377.636 134.364 374.856 131.674 373.506 135.074C373.506 135.074 372.386 137.944 370.806 135.074C370.806 135.074 371.146 132.194 369.016 134.214C369.016 134.214 364.636 141.214 363.626 136.124C363.626 136.124 360.626 139.124 360.256 135.124C360.256 135.124 360.256 133.484 361.256 132.974C360.665 132.824 360.048 132.8 359.446 132.904Z" fill="#2A4F97"/>
<path d="M543.126 148.724L543.536 151.354C541.921 150.979 540.467 150.098 539.388 148.839C538.308 147.579 537.66 146.008 537.536 144.354C537.536 144.354 540.106 148.194 543.126 148.724Z" fill="#F4A48E"/>
<path d="M667.626 168.544C667.696 169.383 667.696 170.226 667.626 171.064C670.252 170.123 672.479 168.313 673.936 165.934C673.936 165.934 670.366 169.374 667.626 168.544Z" fill="#F4A48E"/>
</svg>
