<svg viewBox="0 0 610 410" xmlns="http://www.w3.org/2000/svg"><path d="m357.8337 298.4274c0 4.7842 23.1398 9.6453 51.6842 9.6453s51.6842-4.8611 51.6842-9.6453l-116.5459-81.9214s-16.3593-9.9918-55.5944 1.3767c-16.9279 4.9049-32.8283 14.905-21.81 26.164 24.2404 24.7698 90.5818 54.3808 90.5818 54.3808z" fill="#e6e6e6"/><path d="m349.3248 143.792 15.6315 144.4477v4.6571c0 4.032 7.1584 7.6052 18.1821 9.8239l-2.8192-158.9287z" fill="#e6e6e6"/><path d="m380.3192 143.792 2.8192 158.9287c7.3802 1.4853 16.4904 2.3644 26.3539 2.3644 24.5966 0 44.536-5.4569 44.536-12.1883v-4.6571l15.6315-144.4477h-89.3405z" fill="#fff"/><path d="m364.9562 288.2397v4.6571c0 6.7314 19.9395 12.1883 44.536 12.1883s44.536-5.4569 44.536-12.1883v-4.6571l15.6314-144.4477h-120.335l15.6315 144.4477z" fill="none" stroke="#000" stroke-miterlimit="10" stroke-width="3"/><path d="m409.5179 119.9224c-36.8805 0-66.8037 3.5107-66.8037 17.7421v5.4377c0 7.8598 29.8976 14.2314 66.778 14.2314s66.778-6.3716 66.778-14.2314v-5.4377c0-16.1488-29.8719-17.7421-66.7524-17.7421z" fill="#e6e6e6"/><path d="m474.3796 130.7936c0-6.004-29.0396-10.8712-64.8617-10.8712s-64.8617 4.8672-64.8617 10.8712 29.0396 13.1045 64.8617 13.1045 64.8617-7.1005 64.8617-13.1045z" fill="#fff"/><path d="m409.4923 117.9421c-36.8805 0-66.778 6.3716-66.778 14.2314v11.604c0 7.8598 29.8976 14.2314 66.778 14.2314s66.778-6.3716 66.778-14.2314v-11.604c0-7.8598-29.8975-14.2314-66.778-14.2314z" fill="none" stroke="#000" stroke-miterlimit="10" stroke-width="3"/><path d="m367.0678 130.2501c0 3.9294 19.0055 7.922 42.4501 7.922s42.4501-3.9926 42.4501-7.922v-7.0628h-84.9001v7.0628z" fill="#e6e6e6"/><path d="m451.968 123.0295c0-3.9294-19.0055-7.1149-42.4501-7.1149s-42.4501 3.1854-42.4501 7.1149 19.0055 7.922 42.4501 7.922 42.4501-3.9926 42.4501-7.922z" fill="#fff"/><path d="m452.5719 121.3024c-5.7138-4.5513-23.6029-6.5048-42.5118-6.5048-18.8801 0-37.7135 1.8605-43.8286 6.5348-16.0477 2.5992-23.5173 6.2141-23.5173 10.8411v11.604c0 7.8598 29.8975 14.2314 66.778 14.2314s66.778-6.3716 66.778-14.2314v-11.604c0-4.6194-7.6954-8.2711-23.6983-10.871z" fill="none" stroke="#000" stroke-miterlimit="10" stroke-width="3"/><path d="m414.5693 64.65v57.6991c-3.0061 1.8143-6.0121 1.8143-9.0182 0v-57.8656c0-.65 2.0188-1.7936 4.5091-1.7936s4.5091 1.1436 4.5091 1.7936z" fill="#fff"/><ellipse cx="410.0602" cy="64.3201" fill="#e6e6e6" rx="3.859" ry="1.6302"/><g fill="none" stroke="#000" stroke-miterlimit="10" stroke-width="3"><path d="m414.5693 64.65v57.0175c-3.1931 1.816-6.1882 1.8159-9.0182 0v-57.184c0-.65 2.0188-1.7936 4.5091-1.7936s4.5091 1.1436 4.5091 1.7936z" stroke-linecap="round"/><path d="m355.6709 202.4354s50.4776 17.1743 107.3811 1.6836"/><path d="m361.3371 259.5429s41.759 19.3722 96.367 1.1688"/></g><path d="m369.9382 313.01-213.558-61.0295-82.6504 20.2727 182.6631 67.8408z" fill="#e6e6e6"/><path d="m224.6539 158.3008-19.5266 2.1876 15.1908-40.8899 13.6536 27.6924z" fill="#e6e6e6"/><path d="m224.6539 158.3008-19.5266 2.1876 15.1908-40.8899 13.6536 27.6924z" fill="none" stroke="#000" stroke-linejoin="round" stroke-width="3"/><path d="m233.9717 147.2909-35.0927 41.4657-4.6791 124.1506c35.4459 18.148 62.1927 27.1866 62.1927 27.1866s.0002.0002.0002.0001c.0006-.0151 3.1796-78.8155 3.1127-142.4374l-25.5339-50.3657z" fill="#fff"/><g fill="#e6e6e6"><path d="m250.6709 309.6037-56.471 3.3036 62.193 27.1867z"/><path d="m243.2592 309.6237 9.9652-124.3568 6.2812 12.3897-3.1127 142.4374z"/><path d="m253.2244 185.2669c-13.4693-26.2011-19.2527-37.976-19.2527-37.976l-24.7357 29.2279c16.1213-.3636 27.9022 10.0608 43.9885 8.7481z"/></g><path d="m233.9717 147.2909-35.0927 41.4657-4.6791 124.1506c35.4459 18.148 62.1927 27.1866 62.1927 27.1866s.0002.0002.0002.0001c.0006-.0151 3.1796-78.8155 3.1127-142.4374l-25.5339-50.3657z" fill="none" stroke="#000" stroke-linecap="round" stroke-linejoin="round" stroke-width="3"/><path d="m256.3929 340.094s3.1796-78.8095 3.1127-142.4374l-39.1875-78.0581 95.431-29.5582 45.2378 73.4564c7.5173 39.1821 7.469 128.3103 8.9513 149.5132.3686 5.2724-113.5454 27.084-113.5454 27.084" fill="#fff"/><path d="m256.393 341.5938c-.356 0-.7041-.127-.979-.3633-.3467-.2988-.5381-.7393-.52-1.1973.0317-.7861 3.166-79.2119 3.1123-142.0205l-39.0283-77.7412c-.1982-.394-.2124-.855-.0396-1.2607.1724-.4053.5151-.7144.936-.8447l95.4307-29.5581c.6538-.2061 1.3618.063 1.7212.646l45.2378 73.4561c.0952.1548.1616.3257.1958.5039 5.4858 28.5933 6.9507 83.333 7.9199 119.5557.3643 13.6172.6519 24.373 1.0552 30.1357.1431 2.0459.3208 4.5928-57.8159 17.0898-28.1235 6.0459-56.6592 11.5176-56.9438 11.5723-.0938.0176-.1885.0264-.2822.0264zm-33.9399-221.0859 38.3931 76.4756c.105.208.1592.4385.1597.6709.0605 57.4961-2.5625 128.2217-3.04 140.6104 41.0029-7.8877 105.0054-21.3721 110.4443-25.6191-.3906-5.9258-.6733-16.501-1.0293-29.7959-.9634-36.0107-2.4185-90.3726-7.8159-118.8013l-44.4834-72.231-92.6284 28.6904z"/><path d="m339.2314 192.4307c-.1713.0395-.3412.0899-.5094.1512-5.8373 2.1491-10.7151 7.089-13.7356 13.9123l-1.7841 4.0138c-2.389 5.3971-1.4914 12.6515 2.1353 17.2678l.6722.8581-2.012 4.5454c-7.7146 17.3954-15.9007 33.5547-24.3493 48.0335-.8465 1.4575-1.0157 3.4587-.4466 5.2342l.0763.2311c.7442 2.3246 2.5496 3.7686 4.395 3.5268.0895-.0123.1784-.0287.2661-.049 1.265-.2921 2.3389-1.3984 2.8319-2.9509 5.4082-17.1485 12.0444-34.6357 19.7238-51.9586l2.0186-4.547.8682.4168c1.8091.8646 3.6858 1.0526 5.4453.6464 2.7909-.6443 5.2872-2.7833 6.7534-6.0881l1.7841-4.0138c3.0205-6.8233 3.9594-15.0177 2.6502-23.0615-.3425-2.0857-1.3325-3.9391-2.725-5.0823-1.2391-1.024-2.6886-1.4027-4.0583-1.0865" fill="#fff"/><path d="m303.9393 290.1561c-.0878.0203-.1767.0367-.2661.049-1.8454.2418-3.6507-1.2022-4.395-3.5268l-.0763-.2311c-.5691-1.7755-.4-3.7767.4466-5.2342 8.4486-14.4788 16.6347-30.6381 24.3493-48.0335l2.012-4.5454-.6722-.8581c-3.6267-4.6162-4.5242-11.8707-2.1353-17.2678l1.7841-4.0138c3.0205-6.8233 7.8983-11.7632 13.7356-13.9123.1682-.0614.3381-.1117.5094-.1512 1.3697-.3162 2.8192.0625 4.0583 1.0865 1.3925 1.1432 2.3825 2.9966 2.725 5.0823 1.3091 8.0439.3703 16.2382-2.6502 23.0615l-1.7841 4.0138c-1.4662 3.3048-3.9625 5.4438-6.7534 6.0881-1.7594.4062-3.6362.2182-5.4453-.6464l-.8682-.4168-2.0186 4.547c-7.6794 17.3228-14.3156 34.8101-19.7238 51.9586-.493 1.5524-1.5669 2.6588-2.8319 2.9509m34.768-100.679c-.2448.0565-.4877.1291-.7277.2178-6.3606 2.3436-11.6756 7.7253-14.9775 15.1663l-1.7775 4.0123c-2.7509 6.2175-1.9139 14.4717 1.9363 20.0957l-1.1409 2.5756c-7.671 17.2932-15.8119 33.3592-24.2071 47.752-1.3157 2.2567-1.5776 5.3848-.6907 8.1555l.0696.2327c1.1643 3.6187 3.9791 5.8798 6.8531 5.4926.1488-.0159.296-.0407.435-.0728 1.9723-.4553 3.6317-2.1834 4.3949-4.5981 5.3728-17.039 11.9686-34.4064 19.6044-51.627l1.1393-2.5845c1.9222.7252 3.883.8406 5.737.4126 3.3915-.783 6.4253-3.3848 8.2092-7.4l1.7775-4.0122c3.2953-7.4395 4.3228-16.3636 2.8876-25.1429-.473-2.9216-1.8747-5.5274-3.8293-7.1488-1.7378-1.4287-3.7758-1.9693-5.6932-1.5267"/><path d="m291.6664 203.9537c-.0179.0041-.0358.0087-.0536.0137-.3791.1152-.6817.4245-.8628.8717-.3473.8632-.0685 2.024.6285 2.6001l12.3742 10.215c2.0583 1.6988 2.6875 3.9211 1.878 6.6136-.2647.8625-.8089 1.5133-1.4979 1.7829-.0881.0343-.1775.0619-.2676.0827-.6216.1435-1.2815-.0325-1.8414-.4986l-13.7026-11.3085c-.3499-.2854-.7488-.3775-1.1091-.2944-.3559.0821-.6743.3353-.8714.7424-.2058.4252-.2569.9436-.1592 1.4462.0993.5114.3429.9434.6832 1.2241l13.7535 11.3613c.6461.5233 1.0986 1.3861 1.2513 2.3457.1462.9612-.0249 1.9219-.4671 2.6412-.6373 1.0438-1.3581 1.659-2.1558 1.8432-.9069.2094-1.9131-.1384-3.009-1.0469l-12.3726-10.2062c-.3496-.2889-.747-.3814-1.1063-.2984-.3571.0824-.6765.3381-.8742.7465-.2058.4252-.2651.9363-.1592 1.4462.0993.5114.3429.9434.6832 1.2241l12.4302 10.2574c2.3683 1.9556 5.1119 2.6031 7.6426 2.0188 2.0156-.4653 3.896-1.7113 5.3461-3.7002l.6081-.8313 3.5904 2.9664c19.6983 16.253 34.0076 30.7655 39.2465 36.2531.9691 1.0121 2.2043 1.4317 3.3556 1.1659.2218-.0512.4406-.1279.6537-.2306l.1707-.0855c1.7118-.8282 2.6973-3.1192 2.3917-5.5727-.2366-1.843-1.1882-3.4842-2.4919-4.2886-6.069-3.7484-22.303-14.2238-41.9273-30.411l-3.5904-2.9664.2596-1.1193c1.3982-6.0343-.6811-12.9607-4.9423-16.4723l-12.4236-10.2589c-.3304-.2659-.7038-.3547-1.0617-.2721" fill="#fff"/><path d="m303.8653 226.1333c.0901-.0208.1795-.0483.2676-.0827.689-.2696 1.2332-.9203 1.4979-1.7829.8095-2.6925.1803-4.9148-1.878-6.6136l-12.3742-10.215c-.6971-.576-.9758-1.7369-.6285-2.6001.1812-.4471.4838-.7565.8628-.8717.0178-.005.0357-.0095.0536-.0137.3579-.0826.7313.0062 1.0617.2721l12.4236 10.2589c4.2612 3.5117 6.3405 10.4381 4.9423 16.4723l-.2596 1.1193 3.5904 2.9664c19.6243 16.1872 35.8583 26.6626 41.9273 30.411 1.3037.8045 2.2553 2.4456 2.4919 4.2886.3056 2.4535-.6799 4.7445-2.3917 5.5727l-.1707.0855c-.2131.1028-.4319.1794-.6537.2306-1.1513.2658-2.3865-.1538-3.3556-1.1659-5.2389-5.4876-19.5482-20.0001-39.2465-36.2531l-3.5904-2.9664-.6081.8313c-1.4501 1.9889-3.3305 3.2349-5.3461 3.7002-2.5306.5842-5.2743-.0633-7.6426-2.0188l-12.4302-10.2574c-.3403-.2807-.5839-.7127-.6832-1.2241-.1059-.5098-.0466-1.021.1592-1.4462.1977-.4084.5171-.6641.8742-.7465.3593-.0829.7567.0096 1.1063.2984l12.3726 10.2062c1.0959.9085 2.1021 1.2563 3.009 1.0469.7977-.1842 1.5185-.7994 2.1558-1.8432.4422-.7193.6133-1.68.4671-2.6412-.1528-.9596-.6052-1.8224-1.2513-2.3457l-13.7535-11.3613c-.3403-.2807-.5839-.7127-.6832-1.2241-.0977-.5025-.0466-1.021.1592-1.4462.197-.4071.5154-.6602.8714-.7424.3604-.0832.7592.009 1.1091.2944l13.7026 11.3085c.5599.4661 1.2199.6421 1.8414.4986m-12.7299-25.1292c-.0603.0139-.1206.0298-.1805.0476-.9651.3057-1.7597 1.0972-2.2211 2.2446-.9209 2.2669-.248 5.1884 1.5325 6.6473l12.3742 10.215c1.1919.9869 1.2358 1.6492.8716 2.8387-.0354.1095-.0968.1513-.1481.1724-.0104.0045-.023.009-.0374.0124-.0478.011-.1159.0087-.1904-.0519l-13.7026-11.3086c-.8748-.724-1.8553-.9584-2.7498-.7518-.921.2126-1.7509.8926-2.2805 1.9869-.5255 1.0978-.6723 2.4214-.4209 3.7359.258 1.313.8889 2.4386 1.7717 3.1652l13.7585 11.3509c.0904.0805.1244.1924.1356.2543.0062.0723.0105.1726-.0429.2586-.2982.486-.5565.7946-.8815.8696-.3424.0791-.7589-.1013-1.3738-.6069l-12.3726-10.2062c-.8759-.7249-1.8582-.9611-2.7538-.7543-.9198.2124-1.7483.892-2.2765 1.9894-.5271 1.089-.6806 2.4141-.4225 3.7271.258 1.313.8889 2.4386 1.7733 3.174l12.4286 10.2485c2.8794 2.3804 6.2146 3.1692 9.2907 2.459 2.1628-.4993 4.1976-1.74 5.8547-3.6895l2.0418 1.6842c19.593 16.1667 33.817 30.5884 39.0214 36.0379 1.5137 1.5851 3.4379 2.237 5.2249 1.8245.3508-.081.6869-.2046 1.0233-.3652l.1707-.0855c2.6763-1.2903 4.2098-4.8594 3.7242-8.69-.3592-2.8649-1.8423-5.4243-3.8751-6.6776-6.0311-3.7295-22.1615-14.1275-41.6657-30.2226l-2.0352-1.6857c1.1945-7.0466-1.329-14.8285-6.238-18.8723l-12.4302-10.2574c-.83-.6902-1.7791-.931-2.6985-.7187"/></svg>