<svg width="67" height="67" viewBox="0 0 67 67" fill="none" xmlns="http://www.w3.org/2000/svg">
<path d="M66.8928 49.5695L63.399 28.632C63.0588 26.6168 61.3184 25.1381 59.264 25.1381H27.2308V16.7631H39.7929C40.9444 16.7631 41.8865 15.8209 41.8865 14.6693V2.09375C41.8865 0.942187 40.9444 0 39.7929 0H6.2941C5.14258 0 4.20043 0.942187 4.20043 2.09375V14.6562C4.20043 15.8078 5.14258 16.75 6.2941 16.75H18.8561V25.125H7.74659C5.70526 25.125 3.95181 26.6037 3.61159 28.6189L0.117769 49.5564C0.0392564 50.0145 0 50.4725 0 50.9305V62.8125C0 65.1287 1.87122 67 4.18735 67H62.8102C65.1263 67 66.9975 65.1287 66.9975 62.8125V50.9436C67.0106 50.4855 66.9714 50.0275 66.8928 49.5695ZM36.6524 32.4531C36.6524 31.3016 37.5945 30.3594 38.746 30.3594H40.8397C41.9912 30.3594 42.9334 31.3016 42.9334 32.4531V34.5469C42.9334 35.6984 41.9912 36.6406 40.8397 36.6406H38.746C37.5945 36.6406 36.6524 35.6984 36.6524 34.5469V32.4531ZM32.465 40.8281H34.5587C35.7102 40.8281 36.6524 41.7703 36.6524 42.9219V45.0156C36.6524 46.1672 35.7102 47.1094 34.5587 47.1094H32.465C31.3135 47.1094 30.3713 46.1672 30.3713 45.0156V42.9219C30.3713 41.7703 31.3135 40.8281 32.465 40.8281ZM28.2777 30.3594C29.4292 30.3594 30.3713 31.3016 30.3713 32.4531V34.5469C30.3713 35.6984 29.4292 36.6406 28.2777 36.6406H26.184C25.0325 36.6406 24.0903 35.6984 24.0903 34.5469V32.4531C24.0903 31.3016 25.0325 30.3594 26.184 30.3594H28.2777ZM10.4814 10.4688V6.28125H35.6055V10.4688H10.4814ZM15.7156 36.6406H13.622C12.4704 36.6406 11.5283 35.6984 11.5283 34.5469V32.4531C11.5283 31.3016 12.4704 30.3594 13.622 30.3594H15.7156C16.8671 30.3594 17.8093 31.3016 17.8093 32.4531V34.5469C17.8093 35.6984 16.8671 36.6406 15.7156 36.6406ZM17.8093 45.0156V42.9219C17.8093 41.7703 18.7515 40.8281 19.903 40.8281H21.9966C23.1482 40.8281 24.0903 41.7703 24.0903 42.9219V45.0156C24.0903 46.1672 23.1482 47.1094 21.9966 47.1094H19.903C18.7515 47.1094 17.8093 46.1672 17.8093 45.0156ZM46.0739 59.6719C46.0739 60.2477 45.6028 60.7188 45.027 60.7188H21.9966C21.4209 60.7188 20.9498 60.2477 20.9498 59.6719V57.5781C20.9498 57.0023 21.4209 56.5312 21.9966 56.5312H45.027C45.6028 56.5312 46.0739 57.0023 46.0739 57.5781V59.6719ZM49.2144 45.0156C49.2144 46.1672 48.2722 47.1094 47.1207 47.1094H45.027C43.8755 47.1094 42.9334 46.1672 42.9334 45.0156V42.9219C42.9334 41.7703 43.8755 40.8281 45.027 40.8281H47.1207C48.2722 40.8281 49.2144 41.7703 49.2144 42.9219V45.0156ZM55.4954 34.5469C55.4954 35.6984 54.5533 36.6406 53.4017 36.6406H51.3081C50.1565 36.6406 49.2144 35.6984 49.2144 34.5469V32.4531C49.2144 31.3016 50.1565 30.3594 51.3081 30.3594H53.4017C54.5533 30.3594 55.4954 31.3016 55.4954 32.4531V34.5469Z" fill="#1FBBA6"/>
</svg>
