<svg width="69" height="92" viewBox="0 0 69 92" fill="none" xmlns="http://www.w3.org/2000/svg">
<path d="M64.4 0.574774L57.5 8.62477L47.725 0.574774C47.2285 0.198746 46.6228 -0.00475844 46 -0.00475844C45.3772 -0.00475844 44.7715 0.198746 44.275 0.574774L34.5 8.62477L24.725 0.574774C24.2285 0.198746 23.6228 -0.00475844 23 -0.00475844C22.3772 -0.00475844 21.7715 0.198746 21.275 0.574774L11.5 8.62477L4.6 0.574774C2.69531 -0.844758 0 0.502899 0 2.87477V89.1248C0 91.4967 2.69531 92.8443 4.6 91.4248L11.5 83.3748L21.275 91.4248C21.7715 91.8008 22.3772 92.0043 23 92.0043C23.6228 92.0043 24.2285 91.8008 24.725 91.4248L34.5 83.3748L44.275 91.4248C44.7715 91.8008 45.3772 92.0043 46 92.0043C46.6228 92.0043 47.2285 91.8008 47.725 91.4248L57.5 83.3748L64.4 91.4248C66.2867 92.8443 69 91.4967 69 89.1248V2.87477C69 0.502899 66.3047 -0.844758 64.4 0.574774ZM57.5 64.6873C57.5 65.4779 56.8531 66.1248 56.0625 66.1248H12.9375C12.1469 66.1248 11.5 65.4779 11.5 64.6873V61.8123C11.5 61.0217 12.1469 60.3748 12.9375 60.3748H56.0625C56.8531 60.3748 57.5 61.0217 57.5 61.8123V64.6873ZM57.5 47.4373C57.5 48.2279 56.8531 48.8748 56.0625 48.8748H12.9375C12.1469 48.8748 11.5 48.2279 11.5 47.4373V44.5623C11.5 43.7716 12.1469 43.1248 12.9375 43.1248H56.0625C56.8531 43.1248 57.5 43.7716 57.5 44.5623V47.4373ZM57.5 30.1873C57.5 30.9779 56.8531 31.6248 56.0625 31.6248H12.9375C12.1469 31.6248 11.5 30.9779 11.5 30.1873V27.3123C11.5 26.5216 12.1469 25.8748 12.9375 25.8748H56.0625C56.8531 25.8748 57.5 26.5216 57.5 27.3123V30.1873Z" fill="#12B9A9"/>
</svg>
