<svg width="75" height="60" viewBox="0 0 75 60" fill="none" xmlns="http://www.w3.org/2000/svg">
<path d="M60.0117 22.383L59.0508 24.0587C58.6992 24.6798 57.9492 24.9376 57.2812 24.6916C55.8984 24.1759 54.6328 23.4376 53.5195 22.5119C52.9805 22.0666 52.8398 21.2814 53.1914 20.672L54.1523 18.9962C53.3437 18.0587 52.7109 16.9689 52.2891 15.7853H50.3555C49.6523 15.7853 49.043 15.2814 48.9258 14.5783C48.6914 13.172 48.6797 11.6955 48.9258 10.2306C49.043 9.52749 49.6523 9.01186 50.3555 9.01186H52.2891C52.7109 7.82827 53.3437 6.73843 54.1523 5.80093L53.1914 4.12514C52.8398 3.51577 52.9687 2.73061 53.5195 2.2853C54.6328 1.35952 55.9102 0.621237 57.2812 0.105612C57.9492 -0.140482 58.6992 0.117331 59.0508 0.738425L60.0117 2.41421C61.2422 2.19155 62.4961 2.19155 63.7266 2.41421L64.6875 0.738425C65.0391 0.117331 65.7891 -0.140482 66.457 0.105612C67.8398 0.621237 69.1055 1.35952 70.2187 2.2853C70.7578 2.73061 70.8984 3.51577 70.5469 4.12514L69.5859 5.80093C70.3945 6.73843 71.0273 7.82827 71.4492 9.01186H73.3828C74.0859 9.01186 74.6953 9.51577 74.8125 10.2189C75.0469 11.6251 75.0586 13.1017 74.8125 14.5666C74.6953 15.2697 74.0859 15.7853 73.3828 15.7853H71.4492C71.0273 16.9689 70.3945 18.0587 69.5859 18.9962L70.5469 20.672C70.8984 21.2814 70.7695 22.0666 70.2187 22.5119C69.1055 23.4376 67.8281 24.1759 66.457 24.6916C65.7891 24.9376 65.0391 24.6798 64.6875 24.0587L63.7266 22.383C62.5078 22.6056 61.2422 22.6056 60.0117 22.383ZM58.7812 15.4923C63.293 18.9611 68.4375 13.8166 64.9688 9.30483C60.457 5.82436 55.3125 10.9806 58.7812 15.4923ZM45.2695 33.5275L49.2187 35.4962C50.4023 36.1759 50.918 37.6173 50.4492 38.9064C49.4062 41.7423 47.3555 44.3439 45.457 46.6173C44.5898 47.6603 43.0898 47.9181 41.9062 47.2384L38.4961 45.2697C36.6211 46.8751 34.4414 48.1525 32.0625 48.9845V52.922C32.0625 54.2814 31.0898 55.4533 29.7539 55.6876C26.8711 56.1798 23.8477 56.2033 20.8594 55.6876C19.5117 55.4533 18.5156 54.2931 18.5156 52.922V48.9845C16.1367 48.1408 13.957 46.8751 12.082 45.2697L8.67188 47.2267C7.5 47.9064 5.98828 47.6486 5.1211 46.6056C3.22266 44.3322 1.21875 41.7306 0.175783 38.9064C-0.292967 37.6291 0.222658 36.1876 1.40625 35.4962L5.3086 33.5275C4.85156 31.0783 4.85156 28.5587 5.3086 26.0978L1.40625 24.1173C0.222658 23.4376 -0.304686 21.9962 0.175783 20.7189C1.21875 17.883 3.22266 15.2814 5.1211 13.008C5.98828 11.965 7.48828 11.7072 8.67188 12.3869L12.082 14.3556C13.957 12.7501 16.1367 11.4728 18.5156 10.6408V6.69155C18.5156 5.34389 19.4766 4.17202 20.8125 3.93764C23.6953 3.44546 26.7305 3.42202 29.7187 3.92593C31.0664 4.1603 32.0625 5.32046 32.0625 6.69155V10.6291C34.4414 11.4728 36.6211 12.7384 38.4961 14.3439L41.9062 12.3751C43.0781 11.6955 44.5898 11.9533 45.457 12.9962C47.3555 15.2697 49.3477 17.8712 50.3906 20.7072C50.8594 21.9845 50.4023 23.4259 49.2187 24.1173L45.2695 26.0861C45.7266 28.547 45.7266 31.0666 45.2695 33.5275ZM31.4883 36.0001C38.4258 26.9767 28.125 16.6759 19.1016 23.6134C12.1641 32.6369 22.4648 42.9376 31.4883 36.0001ZM60.0117 57.4103L59.0508 59.0861C58.6992 59.7072 57.9492 59.965 57.2812 59.7189C55.8984 59.2033 54.6328 58.465 53.5195 57.5392C52.9805 57.0939 52.8398 56.3087 53.1914 55.6994L54.1523 54.0236C53.3437 53.0861 52.7109 51.9962 52.2891 50.8126H50.3555C49.6523 50.8126 49.043 50.3087 48.9258 49.6056C48.6914 48.1994 48.6797 46.7228 48.9258 45.258C49.043 44.5548 49.6523 44.0392 50.3555 44.0392H52.2891C52.7109 42.8556 53.3437 41.7658 54.1523 40.8283L53.1914 39.1525C52.8398 38.5431 52.9687 37.758 53.5195 37.3126C54.6328 36.3869 55.9102 35.6486 57.2812 35.133C57.9492 34.8869 58.6992 35.1447 59.0508 35.7658L60.0117 37.4416C61.2422 37.2189 62.4961 37.2189 63.7266 37.4416L64.6875 35.7658C65.0391 35.1447 65.7891 34.8869 66.457 35.133C67.8398 35.6486 69.1055 36.3869 70.2187 37.3126C70.7578 37.758 70.8984 38.5431 70.5469 39.1525L69.5859 40.8283C70.3945 41.7658 71.0273 42.8556 71.4492 44.0392H73.3828C74.0859 44.0392 74.6953 44.5431 74.8125 45.2462C75.0469 46.6525 75.0586 48.1291 74.8125 49.5939C74.6953 50.297 74.0859 50.8126 73.3828 50.8126H71.4492C71.0273 51.9962 70.3945 53.0861 69.5859 54.0236L70.5469 55.6994C70.8984 56.3087 70.7695 57.0939 70.2187 57.5392C69.1055 58.465 67.8281 59.2033 66.457 59.7189C65.7891 59.965 65.0391 59.7072 64.6875 59.0861L63.7266 57.4103C62.5078 57.633 61.2422 57.633 60.0117 57.4103ZM58.7812 50.508C63.293 53.9767 68.4375 48.8322 64.9688 44.3205C60.457 40.8517 55.3125 45.9962 58.7812 50.508Z" fill="#12B9A9"/>
</svg>
