<svg width="90" height="89" viewBox="0 0 90 89" fill="none" xmlns="http://www.w3.org/2000/svg">
<path d="M89.9814 30.4199C88.3996 17.2785 76.3533 7.40508 62.4644 2.8334C68.7918 9.68223 73.3113 20.3205 73.3113 33.375H78.1959L57.9275 55.8857C57.493 55.7814 57.0932 55.625 56.6238 55.625H48.2801V33.375H67.7488C67.7488 13.35 55.7721 0 45.4988 0C35.2256 0 23.2488 13.35 23.2488 33.375H42.7176V55.625H34.3738C33.9045 55.625 33.5047 55.7814 33.0701 55.8857L12.8017 33.375H17.6863C17.6863 20.3205 22.2058 9.68223 28.5332 2.8334C14.6443 7.42246 2.59803 17.2959 1.0162 30.4199C0.824987 32.0018 2.19823 33.375 3.79745 33.375H5.30975L29.0721 59.7795C28.9504 60.2314 28.7939 60.6834 28.7939 61.1875V83.4375C28.7939 86.5143 31.2797 89 34.3564 89H56.6064C59.6832 89 62.1689 86.5143 62.1689 83.4375V61.1875C62.1689 60.6834 62.0125 60.2488 61.8908 59.7795L85.6705 33.375H87.1828C88.7994 33.375 90.1726 32.0191 89.9814 30.4199Z" fill="#3BB8A7"/>
</svg>
