<svg width="87" height="61" viewBox="0 0 87 61" fill="none" xmlns="http://www.w3.org/2000/svg">
<path d="M26.1 30.5C34.5085 30.5 41.325 23.6723 41.325 15.25C41.325 6.82766 34.5085 0 26.1 0C17.6915 0 10.875 6.82766 10.875 15.25C10.875 23.6723 17.6915 30.5 26.1 30.5Z" fill="#12B9A9"/>
<path d="M36.54 34.8571H35.4117C32.5114 36.2771 29.3282 37.0218 26.1 37.0357C22.7559 37.0357 19.6294 36.2188 16.7883 34.8571H15.66C11.507 34.8582 7.52449 36.5112 4.5879 39.4526C1.65132 42.394 0.00108108 46.3831 0 50.5429L0 54.4643C0 56.1977 0.687453 57.8601 1.91113 59.0857C3.1348 60.3114 4.79446 61 6.525 61H45.675C47.4055 61 49.0652 60.3114 50.2889 59.0857C51.5125 57.8601 52.2 56.1977 52.2 54.4643V50.5429C52.1989 46.3831 50.5487 42.394 47.6121 39.4526C44.6755 36.5112 40.693 34.8582 36.54 34.8571Z" fill="#12B9A9"/>
<path opacity="0.62" d="M65.25 30.5C72.4573 30.5 78.3 24.6477 78.3 17.4286C78.3 10.2094 72.4573 4.35715 65.25 4.35715C58.0427 4.35715 52.2 10.2094 52.2 17.4286C52.2 24.6477 58.0427 30.5 65.25 30.5Z" fill="#12B9A9"/>
<path opacity="0.62" d="M71.775 34.8571H71.2585C69.3689 35.5107 67.3706 35.9464 65.25 35.9464C63.1294 35.9464 61.1311 35.5107 59.2416 34.8571H58.725C55.9519 34.8571 53.3963 35.6605 51.1533 36.954C54.4702 40.535 56.55 45.2871 56.55 50.5429V55.7714C56.55 56.071 56.482 56.3569 56.4684 56.6429H80.475C82.2056 56.6429 83.8652 55.9543 85.0889 54.7286C86.3126 53.5029 87 51.8405 87 50.1071C87.0011 48.1042 86.608 46.1207 85.8433 44.27C85.0785 42.4193 83.9571 40.7377 82.5431 39.3214C81.1291 37.9051 79.4503 36.7818 77.6026 36.0158C75.755 35.2498 73.7747 34.8561 71.775 34.8571Z" fill="#12B9A9"/>
</svg>
