<svg width="64" height="64" viewBox="0 0 64 64" fill="none" xmlns="http://www.w3.org/2000/svg">
<path d="M37.1361 56.2543L25.1477 50.2208L25.1246 43.1896L37.113 49.2231L37.1361 56.2543Z" fill="#FBDBD0"/>
<path d="M51.0838 11.0535C56.427 8.3819 60.8114 10.5479 60.8288 15.8649L60.8674 27.6643C60.8848 32.9815 56.5289 39.5153 51.1857 42.1869L37.1362 56.2543L37.1131 49.2231L28.0819 53.7387C22.7387 56.4103 18.3543 54.2466 18.3369 48.9294L18.2983 37.13C18.2809 31.813 22.6368 25.2769 27.9799 22.6053L51.0838 11.0535Z" fill="white"/>
<path d="M18.3368 48.9295L18.2982 37.1301C18.2894 34.4656 19.3792 31.4951 21.1408 28.8582L9.16403 22.8078C7.39571 25.449 6.30101 28.4263 6.30974 31.0966L6.34837 42.8959C6.35704 45.5374 7.44334 47.4006 9.18954 48.2794L21.1779 54.3128C19.4318 53.434 18.3454 51.5708 18.3368 48.9295Z" fill="#FBDBD0"/>
<path d="M45.998 4.44656C44.2292 3.55639 41.7836 3.67593 39.0953 5.01997L15.9915 16.5719C13.3316 17.9018 10.9169 20.1896 9.16403 22.8078L21.1408 28.8582C22.8945 26.2328 25.3142 23.9381 27.9798 22.6054L51.0837 11.0536C53.772 9.70937 56.2176 9.58983 57.9864 10.48L45.998 4.44656Z" fill="#FBDBD0"/>
<path d="M43.4306 3.8751C44.3852 3.8751 45.2518 4.07096 45.998 4.44653L57.9859 10.4797C57.9805 10.477 57.9749 10.4748 57.9696 10.4722C59.7261 11.348 60.82 13.2148 60.8287 15.865L60.8673 27.6642C60.8847 32.9814 56.5288 39.5153 51.1857 42.1868L37.1361 56.2543L30.1164 52.7214L28.0817 53.7387C26.5286 54.5153 25.0571 54.8825 23.7503 54.8825C22.7292 54.8825 21.8087 54.6584 21.0282 54.2303C21.0782 54.2577 21.1268 54.2871 21.1779 54.3128L9.1895 48.2795C7.44333 47.4006 6.357 45.5374 6.34833 42.8959L6.30973 31.0967C6.29233 25.7796 10.6482 19.2435 15.9914 16.5718L39.0953 5.01997C40.6495 4.24296 42.1225 3.8751 43.4306 3.8751ZM57.9859 10.4797C57.9861 10.4798 57.9862 10.4799 57.9864 10.48L57.9859 10.4797ZM43.4306 2.96082C41.93 2.96082 40.3339 3.37855 38.6864 4.20223L15.5825 15.754C9.94687 18.572 5.37697 25.456 5.39544 31.0997L5.43405 42.8989C5.44349 45.7723 6.66246 48.0311 8.77844 49.0961L20.7669 55.1296C20.7927 55.1425 20.8188 55.1541 20.8451 55.1645C21.7087 55.5842 22.6845 55.7968 23.7502 55.7968C25.2498 55.7968 26.8447 55.3795 28.4906 54.5565L30.115 53.7443L36.725 57.071C36.8555 57.1367 36.9962 57.1686 37.1358 57.1686C37.3731 57.1686 37.6073 57.0762 37.7829 56.9005L51.7292 42.9364C57.3026 40.077 61.7999 33.2587 61.7815 27.6612L61.7429 15.8619C61.7336 13.0015 60.5265 10.7519 58.4285 9.67967C58.4222 9.67622 58.4158 9.67275 58.4093 9.66941C58.4049 9.66706 58.3999 9.66461 58.3954 9.66228L46.409 3.62991C45.527 3.18594 44.5249 2.96082 43.4306 2.96082Z" fill="#374874"/>
</svg>
