<svg width="1920" height="1080" viewBox="0 0 1920 1080" fill="none" xmlns="http://www.w3.org/2000/svg">
<g opacity="0.55" clip-path="url(#clip0_2932_1598)">
<path d="M3.51172 1080H76.3517L1153.55 0H3.51172V1080Z" fill="url(#paint0_linear_2932_1598)"/>
<path d="M76.3516 1080H842.982L1920 0.18V0H1153.55L76.3516 1080Z" fill="url(#paint1_linear_2932_1598)"/>
<path d="M1920 0.179688L842.98 1080H1063.11L1920 220.88V0.179688Z" fill="url(#paint2_linear_2932_1598)"/>
<path d="M1920 1080V220.881L1063.11 1080H1920Z" fill="url(#paint3_linear_2932_1598)"/>
<path d="M1920 0H0V1080H1920V0Z" fill="url(#paint4_radial_2932_1598)" fill-opacity="0.25"/>
<path d="M1920 0H0V1080H1920V0Z" fill="#FFE1E1" fill-opacity="0.45"/>
</g>
<defs>
<linearGradient id="paint0_linear_2932_1598" x1="-222.428" y1="727.19" x2="904.262" y2="-76.67" gradientUnits="userSpaceOnUse">
<stop offset="0.1" stop-color="#8C0000" stop-opacity="0.15"/>
<stop offset="0.36" stop-color="#8C0000" stop-opacity="0.25"/>
<stop offset="0.68" stop-color="#8C0000" stop-opacity="0.5"/>
<stop offset="1" stop-color="#8C0000" stop-opacity="0.75"/>
</linearGradient>
<linearGradient id="paint1_linear_2932_1598" x1="407.232" y1="1021.82" x2="1848.47" y2="-153.08" gradientUnits="userSpaceOnUse">
<stop offset="0.32" stop-color="#8C0000" stop-opacity="0.3"/>
<stop offset="0.66" stop-color="#8C0000" stop-opacity="0.67"/>
<stop offset="1" stop-color="#8C0000"/>
</linearGradient>
<linearGradient id="paint2_linear_2932_1598" x1="1142.33" y1="846.569" x2="1951.83" y2="136.159" gradientUnits="userSpaceOnUse">
<stop offset="0.15" stop-color="#8C0000" stop-opacity="0.25"/>
<stop offset="0.51" stop-color="#8C0000" stop-opacity="0.5"/>
<stop offset="0.85" stop-color="#8C0000" stop-opacity="0.75"/>
</linearGradient>
<linearGradient id="paint3_linear_2932_1598" x1="1409.74" y1="1071" x2="2070.98" y2="526.011" gradientUnits="userSpaceOnUse">
<stop offset="0.45" stop-color="#8C0000" stop-opacity="0.25"/>
<stop offset="0.88" stop-color="#8C0000" stop-opacity="0.5"/>
<stop offset="1" stop-color="#8C0000" stop-opacity="0.75"/>
</linearGradient>
<radialGradient id="paint4_radial_2932_1598" cx="0" cy="0" r="1" gradientUnits="userSpaceOnUse" gradientTransform="translate(960 540) rotate(90) scale(540 960)">
<stop stop-color="#FF0000"/>
<stop offset="1" stop-color="#8C0000"/>
</radialGradient>
<clipPath id="clip0_2932_1598">
<rect width="1920" height="1080" fill="white"/>
</clipPath>
</defs>
</svg>
