<svg width="698" height="291" viewBox="0 0 698 291" fill="none" xmlns="http://www.w3.org/2000/svg">
<path d="M332.877 165.791L279.319 20.6202H278.407C278.711 23.7122 278.939 27.6546 279.091 32.4472C279.395 37.2398 279.622 42.4963 279.774 48.2165C279.926 53.7821 280.002 59.5024 280.002 65.3772V165.791H261.086V0.212891H291.398L341.537 135.875H342.449L393.5 0.212891H423.584V83.0017V165.791H403.3V63.9858C403.3 58.5748 403.376 53.241 403.528 47.9846C403.68 42.5736 403.908 37.549 404.212 32.911C404.516 28.1184 404.744 24.0987 404.896 20.8521H403.984L349.742 165.791H332.877Z" fill="url(#paint0_linear_1488_1501)"/>
<path d="M510.924 143.528L504.543 165.327H453.72V163.703C456.303 163.703 458.05 162.621 458.961 160.457C460.025 158.292 460.557 155.973 460.557 153.5V68.3919C460.557 65.7637 460.025 63.3674 458.961 61.203C458.05 59.0386 456.303 57.9564 453.72 57.9564V56.333H500.441L504.087 74.1895H501.808C501.352 72.7981 500.593 71.7931 499.529 71.1747C498.465 70.4017 497.326 69.8606 496.11 69.5514C494.895 69.0876 493.679 68.8557 492.464 68.8557C491.248 68.7011 490.185 68.6238 489.273 68.6238H478.561V98.3072H480.841C485.247 98.3072 488.665 98.2299 491.096 98.0753C493.679 97.9207 495.579 96.2974 496.794 93.2054H499.073V115.932H496.794C495.427 113.149 493.527 111.603 491.096 111.294C488.665 110.984 485.247 110.83 480.841 110.83H478.561V153.036H496.338C498.921 152.881 501.352 151.954 503.631 150.253C506.062 148.398 507.734 146.156 508.645 143.528H510.924Z" fill="url(#paint1_linear_1488_1501)"/>
<path d="M602.032 57.9564C599.449 57.9564 597.626 59.1159 596.562 61.4349C595.651 63.5993 595.195 65.9956 595.195 68.6238V153.5C595.195 156.128 595.651 158.524 596.562 160.689C597.626 162.853 599.449 163.935 602.032 163.935V165.559H575.139L541.865 78.5956V153.5C541.865 156.128 542.32 158.524 543.232 160.689C544.296 162.853 546.119 163.935 548.702 163.935V165.559H522.492V163.935C525.075 163.935 526.823 162.853 527.734 160.689C528.798 158.524 529.33 156.128 529.33 153.5V68.3919C529.33 65.7637 528.798 63.3674 527.734 61.203C526.823 59.0386 525.075 57.9564 522.492 57.9564V56.333H551.437L582.66 138.194V68.3919C582.66 65.7637 582.128 63.3674 581.065 61.203C580.153 59.0386 578.406 57.9564 575.823 57.9564V56.333H602.032V57.9564Z" fill="url(#paint2_linear_1488_1501)"/>
<path d="M697.285 56.333V57.9564C694.702 57.9564 692.879 59.1159 691.815 61.4349C690.904 63.5993 690.448 65.9956 690.448 68.6238V132.165C690.448 136.803 689.536 141.209 687.713 145.383C686.042 149.403 683.687 152.959 680.648 156.051C677.761 158.988 674.342 161.307 670.392 163.008C666.442 164.708 662.187 165.559 657.629 165.559C653.071 165.559 648.741 164.708 644.639 163.008C640.688 161.307 637.194 158.988 634.155 156.051C631.268 152.959 628.989 149.403 627.318 145.383C625.646 141.209 624.811 136.803 624.811 132.165V68.3919C624.659 65.7637 624.051 63.3674 622.987 61.203C622.076 59.0386 620.404 57.9564 617.973 57.9564V56.333H649.652V57.9564C647.07 57.9564 645.246 59.1159 644.183 61.4349C643.271 63.5993 642.815 65.9956 642.815 68.6238V137.962C642.815 142.137 644.259 145.692 647.146 148.63C650.032 151.567 653.527 153.036 657.629 153.036C661.58 153.036 664.998 151.567 667.885 148.63C670.772 145.692 672.215 142.137 672.215 137.962V68.3919C672.215 65.7637 671.684 63.3674 670.62 61.203C669.708 59.0386 667.961 57.9564 665.378 57.9564V56.333H697.285Z" fill="url(#paint3_linear_1488_1501)"/>
<path d="M477.874 222.101C477.874 227.595 476.476 232.636 473.681 237.224C470.886 241.813 466.821 245.561 461.485 248.47C456.149 251.378 449.796 253.091 442.427 253.608L438.33 276.971C436.742 285.955 432.422 290.446 425.371 290.446C421.496 290.446 417.907 289.283 414.603 286.956C411.364 284.63 408.759 281.075 406.79 276.293C404.821 271.51 403.836 265.629 403.836 258.649C403.836 245.529 405.9 234.413 410.03 225.3C414.222 216.123 419.812 209.272 426.8 204.748C433.851 200.16 441.601 197.865 450.05 197.865C456.021 197.865 461.072 198.932 465.201 201.064C469.393 203.197 472.538 206.105 474.634 209.789C476.794 213.409 477.874 217.512 477.874 222.101ZM444.142 243.623C457.165 241.942 463.676 235.059 463.676 222.974C463.676 218.708 462.279 215.25 459.484 212.601C456.752 209.886 452.496 208.529 446.715 208.529C440.172 208.529 434.455 210.629 429.563 214.83C424.736 219.031 420.988 224.88 418.32 232.377C415.715 239.809 414.413 248.308 414.413 257.873C414.413 261.88 414.794 265.435 415.556 268.537C416.382 271.639 417.398 274.063 418.605 275.808C419.876 277.488 421.083 278.328 422.226 278.328C423.814 278.328 425.021 276.099 425.847 271.639L428.992 253.317C426.514 252.929 425.434 252.768 425.752 252.832C423.846 252.509 422.607 251.927 422.036 251.087C421.464 250.182 421.178 249.051 421.178 247.694C421.178 246.272 421.559 245.141 422.322 244.301C423.147 243.461 424.259 243.041 425.657 243.041C426.292 243.041 426.768 243.073 427.086 243.138C428.611 243.396 429.786 243.558 430.612 243.623C431.437 238.582 432.613 231.828 434.137 223.361C434.518 221.164 435.376 219.613 436.71 218.708C438.108 217.739 439.727 217.254 441.57 217.254C443.666 217.254 445.159 217.674 446.048 218.514C447.001 219.29 447.477 220.55 447.477 222.295C447.477 223.329 447.414 224.169 447.287 224.816L444.142 243.623Z" fill="black"/>
<path d="M481.792 280.364C479.378 280.364 477.663 279.072 476.646 276.486C475.694 273.901 475.217 269.765 475.217 264.078C475.217 255.676 476.392 247.694 478.743 240.133C479.314 238.258 480.236 236.901 481.506 236.061C482.84 235.156 484.682 234.704 487.033 234.704C488.303 234.704 489.193 234.865 489.701 235.188C490.209 235.512 490.463 236.126 490.463 237.03C490.463 238.064 489.987 240.391 489.034 244.01C488.398 246.596 487.89 248.858 487.509 250.796C487.128 252.735 486.81 255.127 486.556 257.97C488.653 252.412 491.003 247.888 493.607 244.398C496.212 240.908 498.753 238.42 501.23 236.933C503.771 235.447 506.09 234.704 508.186 234.704C512.316 234.704 514.38 236.804 514.38 241.005C514.38 241.845 514.094 243.881 513.522 247.113C513.014 249.698 512.76 251.313 512.76 251.96C512.76 254.222 513.554 255.353 515.142 255.353C516.921 255.353 519.208 253.931 522.003 251.087C522.829 250.247 523.686 249.827 524.576 249.827C525.402 249.827 526.037 250.215 526.482 250.99C526.99 251.701 527.244 252.671 527.244 253.899C527.244 256.29 526.609 258.164 525.338 259.521C523.559 261.396 521.463 263.011 519.049 264.368C516.699 265.661 514.189 266.307 511.521 266.307C508.155 266.307 505.582 265.435 503.803 263.69C502.088 261.945 501.23 259.586 501.23 256.613C501.23 255.644 501.326 254.674 501.516 253.705C501.643 252.412 501.707 251.54 501.707 251.087C501.707 250.053 501.357 249.536 500.659 249.536C499.706 249.536 498.435 250.635 496.847 252.832C495.323 254.965 493.798 257.809 492.273 261.363C490.749 264.918 489.51 268.666 488.557 272.609C487.859 275.646 487.033 277.714 486.08 278.813C485.19 279.847 483.761 280.364 481.792 280.364Z" fill="black"/>
<path d="M534.493 280.364C530.745 280.364 527.537 279.427 524.869 277.553C522.265 275.614 520.295 273.093 518.961 269.991C517.627 266.889 516.96 263.561 516.96 260.006C516.96 255.094 517.85 250.732 519.628 246.919C521.47 243.041 523.948 240.036 527.061 237.903C530.173 235.706 533.667 234.607 537.542 234.607C541.29 234.607 544.498 235.576 547.166 237.515C549.834 239.389 551.835 241.878 553.169 244.98C554.503 248.082 555.17 251.41 555.17 254.965C555.17 259.877 554.249 264.272 552.407 268.149C550.565 271.962 548.056 274.968 544.879 277.165C541.767 279.298 538.305 280.364 534.493 280.364ZM535.541 269.894C537.701 269.894 539.512 268.699 540.973 266.307C542.497 263.916 543.259 260.426 543.259 255.837C543.259 252.283 542.624 249.601 541.354 247.791C540.083 245.982 538.559 245.077 536.78 245.077C534.493 245.077 532.587 246.272 531.063 248.664C529.602 250.99 528.871 254.48 528.871 259.134C528.871 262.817 529.506 265.532 530.777 267.277C532.047 269.022 533.635 269.894 535.541 269.894Z" fill="black"/>
<path fill-rule="evenodd" clip-rule="evenodd" d="M0.636719 103.091C0.636719 46.2993 44.9319 0.212891 99.5161 0.212891C154.1 0.212891 198.395 46.2993 198.395 103.091C198.395 128.034 182.126 167.266 162.647 203.405L140.037 157.207C154.572 144.928 163.866 126.189 163.866 105.208C163.866 68.2539 135.034 38.2553 99.5161 38.2553C63.9986 38.2553 35.1657 68.2539 35.1657 105.208C35.1657 142.162 63.9986 172.16 99.5161 172.16C105.704 172.16 111.689 171.25 117.354 169.551L141.996 219.9C143.445 223.013 145.337 227.048 147.033 230.658C126.425 264.578 106.009 290.626 99.5161 290.522C84.979 290.288 0.636719 159.883 0.636719 103.091Z" fill="url(#paint4_linear_1488_1501)"/>
<path fill-rule="evenodd" clip-rule="evenodd" d="M107.439 79.3271C107.439 82.6979 108.981 85.7498 111.474 87.9595C111.072 89.0902 110.853 90.3077 110.853 91.5763C110.853 97.5382 115.686 102.371 121.648 102.371C123.282 102.371 124.832 102.008 126.22 101.358C128.164 103.25 130.819 104.415 133.746 104.415C135.331 104.415 136.835 104.074 138.191 103.461C138.706 105.908 138.977 108.445 138.977 111.045C138.977 131.268 122.583 147.663 102.36 147.663C82.1364 147.663 65.7422 131.268 65.7422 111.045C65.7422 90.8219 82.1364 74.4277 102.36 74.4277C104.405 74.4277 106.411 74.5954 108.365 74.9178C107.767 76.2855 107.439 77.7724 107.439 79.3271Z" fill="url(#paint5_linear_1488_1501)"/>
<path fill-rule="evenodd" clip-rule="evenodd" d="M138.872 158.1C157.503 144.003 169.074 121.244 167.85 96.1473C165.88 55.7899 131.568 24.6701 91.2104 26.6394C50.8529 28.6087 19.7331 62.9213 21.7024 103.279C23.6717 143.636 57.9843 174.756 98.3418 172.787C105.776 172.424 112.897 170.964 119.555 168.57C115.052 169.976 110.308 170.837 105.391 171.077C73.2082 172.648 45.8049 146.997 44.1843 113.784C42.5636 80.5708 67.3393 52.3734 99.5223 50.803C131.705 49.2326 159.109 74.8839 160.729 108.097C161.71 128.199 153.021 146.464 138.872 158.1Z" fill="url(#paint6_linear_1488_1501)"/>
<defs>
<linearGradient id="paint0_linear_1488_1501" x1="479.186" y1="0.212891" x2="479.186" y2="165.791" gradientUnits="userSpaceOnUse">
<stop offset="0.255208" stop-color="#FF000D"/>
<stop offset="0.989583" stop-color="#B50009"/>
</linearGradient>
<linearGradient id="paint1_linear_1488_1501" x1="479.186" y1="0.212891" x2="479.186" y2="165.791" gradientUnits="userSpaceOnUse">
<stop offset="0.255208" stop-color="#FF000D"/>
<stop offset="0.989583" stop-color="#B50009"/>
</linearGradient>
<linearGradient id="paint2_linear_1488_1501" x1="479.186" y1="0.212891" x2="479.186" y2="165.791" gradientUnits="userSpaceOnUse">
<stop offset="0.255208" stop-color="#FF000D"/>
<stop offset="0.989583" stop-color="#B50009"/>
</linearGradient>
<linearGradient id="paint3_linear_1488_1501" x1="479.186" y1="0.212891" x2="479.186" y2="165.791" gradientUnits="userSpaceOnUse">
<stop offset="0.255208" stop-color="#FF000D"/>
<stop offset="0.989583" stop-color="#B50009"/>
</linearGradient>
<linearGradient id="paint4_linear_1488_1501" x1="114.987" y1="27.6335" x2="188.497" y2="207.91" gradientUnits="userSpaceOnUse">
<stop offset="0.1875" stop-color="#DF0610"/>
<stop offset="1" stop-color="#67050A"/>
</linearGradient>
<linearGradient id="paint5_linear_1488_1501" x1="102.36" y1="74.4277" x2="102.36" y2="147.663" gradientUnits="userSpaceOnUse">
<stop stop-color="#DF0610"/>
<stop offset="0.244792" stop-color="#DF0610"/>
<stop offset="1" stop-color="#8B181D"/>
</linearGradient>
<linearGradient id="paint6_linear_1488_1501" x1="91.2104" y1="26.6394" x2="98.3418" y2="172.787" gradientUnits="userSpaceOnUse">
<stop stop-color="#790909"/>
<stop offset="1" stop-color="#FF1D1D"/>
</linearGradient>
</defs>
</svg>
