<svg width="240" height="70" viewBox="0 0 240 70" fill="none" xmlns="http://www.w3.org/2000/svg">
<g clip-path="url(#clip0_12_75)">
<path d="M41.1599 5H17.1621C13.2961 5 10.1621 8.13401 10.1621 12V35C10.1621 38.866 13.2961 42 17.1621 42H41.1599C45.0259 42 48.1599 38.866 48.1599 35V12C48.1599 8.13401 45.0259 5 41.1599 5Z" fill="#9CCDE4"/>
<path d="M45.7852 52H12.5371V54H45.7852V52Z" fill="#C7C7C7"/>
<path d="M44.2019 58H14.1203C13.246 58 12.5371 58.8954 12.5371 60V63C12.5371 64.1046 13.246 65 14.1203 65H44.2019C45.0763 65 45.7852 64.1046 45.7852 63V60C45.7852 58.8954 45.0763 58 44.2019 58Z" fill="#3AADAA"/>
<path d="M35.4938 61H22.8279V62H35.4938V61Z" fill="white"/>
<path d="M24.1612 47H12.2869V49H24.1612V47Z" fill="black"/>
<path d="M29.1609 12.4H21.6779L16.6609 18.928L19.5209 22.611H21.2209V34.9H37.0809V22.611H38.8069L41.6609 18.928L36.6439 12.4H29.1609Z" fill="#E89849"/>
<path d="M21.2149 22.612H19.5149L16.6609 18.928L21.6779 12.4H36.6439L41.6609 18.928L38.8009 22.612H37.0749" stroke="#89440B" stroke-linecap="round" stroke-linejoin="round"/>
<path d="M37.0748 20.526V34.9H21.2148V17.437" stroke="#89440B" stroke-linecap="round" stroke-linejoin="round"/>
<path d="M32.9788 13.648C32.7396 14.3821 32.2947 15.0322 31.6969 15.5208C31.0991 16.0095 30.3736 16.3162 29.6065 16.4046C28.8395 16.493 28.0632 16.3592 27.37 16.0193C26.6767 15.6794 26.0956 15.1475 25.6958 14.487" stroke="#89440B" stroke-linecap="round" stroke-linejoin="round"/>
<path d="M37.0749 30.1151H34.6099" stroke="#89440B" stroke-linecap="round" stroke-linejoin="round"/>
<path d="M37.0748 31.742H31.0068" stroke="#89440B" stroke-linecap="round" stroke-linejoin="round"/>
<rect x="5.66089" y="0.322021" width="47" height="69" rx="11.5" stroke="#C7C7C7"/>
<path d="M101.786 4.82202H77.7881C73.9221 4.82202 70.7881 7.95603 70.7881 11.822V34.822C70.7881 38.688 73.9221 41.822 77.7881 41.822H101.786C105.652 41.822 108.786 38.688 108.786 34.822V11.822C108.786 7.95603 105.652 4.82202 101.786 4.82202Z" fill="#9CCDE4"/>
<path d="M106.411 51.822H73.1631V53.822H106.411V51.822Z" fill="#C7C7C7"/>
<path d="M104.828 57.822H74.7463C73.8719 57.822 73.1631 58.7175 73.1631 59.822V62.822C73.1631 63.9266 73.8719 64.822 74.7463 64.822H104.828C105.702 64.822 106.411 63.9266 106.411 62.822V59.822C106.411 58.7175 105.702 57.822 104.828 57.822Z" fill="#3AADAA"/>
<path d="M96.12 60.822H83.4541V61.822H96.12V60.822Z" fill="white"/>
<path d="M84.7869 46.822H72.9126V48.822H84.7869V46.822Z" fill="black"/>
<path d="M96.511 34.9H91.547L89.786 19.094L88.024 34.9H83.063V12.4H96.511V34.9Z" fill="#E89849" stroke="#89440B" stroke-linecap="round" stroke-linejoin="round"/>
<path d="M84.894 16.648H87.354V20.157L85.229 21.215L83.063 20.077" stroke="#89440B" stroke-linecap="round" stroke-linejoin="round"/>
<path d="M96.4731 16.648H92.1831V20.157L94.3081 21.215" stroke="#89440B" stroke-linecap="round" stroke-linejoin="round"/>
<rect x="66.2871" y="0.322021" width="47" height="69" rx="11.5" stroke="#C7C7C7"/>
<path d="M162.412 5H138.415C134.549 5 131.415 8.13401 131.415 12V35C131.415 38.866 134.549 42 138.415 42H162.412C166.278 42 169.412 38.866 169.412 35V12C169.412 8.13401 166.278 5 162.412 5Z" fill="#9CCDE4"/>
<path d="M167.037 52H133.789V54H167.037V52Z" fill="#C7C7C7"/>
<path d="M165.454 58H135.373C134.498 58 133.789 58.8954 133.789 60V63C133.789 64.1046 134.498 65 135.373 65H165.454C166.329 65 167.037 64.1046 167.037 63V60C167.037 58.8954 166.329 58 165.454 58Z" fill="#3AADAA"/>
<path d="M156.746 61H144.081V62H156.746V61Z" fill="white"/>
<path d="M145.413 47H133.539V49H145.413V47Z" fill="black"/>
<path d="M150.413 12.4H142.93L137.913 18.928L140.773 22.611H142.473V34.9H158.333V22.611H160.059L162.913 18.928L157.896 12.4H150.413Z" fill="#E89849"/>
<path d="M142.467 22.612H140.767L137.913 18.928L142.93 12.4H157.896L162.913 18.928L160.053 22.612H158.327" stroke="#89440B" stroke-linecap="round" stroke-linejoin="round"/>
<path d="M158.327 20.526V34.9H142.467V17.437" stroke="#89440B" stroke-linecap="round" stroke-linejoin="round"/>
<path d="M154.231 13.648C153.992 14.3821 153.547 15.0322 152.949 15.5208C152.352 16.0095 151.626 16.3162 150.859 16.4046C150.092 16.493 149.316 16.3592 148.622 16.0193C147.929 15.6794 147.348 15.1475 146.948 14.487" stroke="#89440B" stroke-linecap="round" stroke-linejoin="round"/>
<path d="M158.327 30.1151H155.862" stroke="#89440B" stroke-linecap="round" stroke-linejoin="round"/>
<path d="M158.327 31.742H152.259" stroke="#89440B" stroke-linecap="round" stroke-linejoin="round"/>
<rect x="126.913" y="0.5" width="47" height="69" rx="11.5" stroke="#C7C7C7"/>
<path d="M223.038 4.82202H199.041C195.175 4.82202 192.041 7.95603 192.041 11.822V34.822C192.041 38.688 195.175 41.822 199.041 41.822H223.038C226.904 41.822 230.038 38.688 230.038 34.822V11.822C230.038 7.95603 226.904 4.82202 223.038 4.82202Z" fill="#9CCDE4"/>
<path d="M227.663 51.822H194.415V53.822H227.663V51.822Z" fill="#C7C7C7"/>
<path d="M226.08 57.822H195.999C195.124 57.822 194.415 58.7175 194.415 59.822V62.822C194.415 63.9266 195.124 64.822 195.999 64.822H226.08C226.954 64.822 227.663 63.9266 227.663 62.822V59.822C227.663 58.7175 226.954 57.822 226.08 57.822Z" fill="#3AADAA"/>
<path d="M217.372 60.822H204.706V61.822H217.372V60.822Z" fill="white"/>
<path d="M206.039 46.822H194.165V48.822H206.039V46.822Z" fill="black"/>
<path d="M213.419 27.7H208.676V34.822H213.419V27.7Z" fill="#E89849" stroke="#89440B" stroke-linecap="round" stroke-linejoin="round"/>
<path d="M213.419 12H208.676V19.122H213.419V12Z" fill="#E89849" stroke="#89440B" stroke-linecap="round" stroke-linejoin="round"/>
<path d="M216.4 23.642C216.4 24.7022 216.085 25.7386 215.496 26.6201C214.907 27.5015 214.07 28.1885 213.09 28.5941C212.111 28.9998 211.033 29.1059 209.993 28.899C208.953 28.6921 207.998 28.1815 207.248 27.4318C206.499 26.6821 205.988 25.727 205.781 24.6872C205.574 23.6473 205.68 22.5695 206.086 21.5899C206.492 20.6104 207.179 19.7731 208.06 19.1839C208.942 18.5948 209.978 18.2802 211.038 18.28C212.46 18.28 213.824 18.845 214.83 19.8505C215.835 20.8561 216.4 22.2199 216.4 23.642Z" fill="#E89849" stroke="#89440B" stroke-linecap="round" stroke-linejoin="round"/>
<path d="M211.038 23.642V20.459" stroke="#89440B" stroke-linecap="round" stroke-linejoin="round"/>
<path d="M211.038 23.642L212.999 22.329" stroke="#89440B" stroke-linecap="round" stroke-linejoin="round"/>
<rect x="187.539" y="0.5" width="47" height="69" rx="11.5" stroke="#C7C7C7"/>
</g>
<defs>
<clipPath id="clip0_12_75">
<rect width="240" height="70" fill="white"/>
</clipPath>
</defs>
</svg>
