<svg width="240" height="70" viewBox="0 0 240 70" fill="none" xmlns="http://www.w3.org/2000/svg">
<rect x="5.66089" y="0.5" width="228.839" height="69" fill="white" stroke="#C7C7C7"/>
<path d="M63.37 1H6V38H63.37V1Z" fill="#9CCDE4"/>
<path d="M55.1435 48H14.2266V50H55.1435V48Z" fill="#C7C7C7"/>
<path d="M53.1951 54H16.175C15.0989 54 14.2266 54.8954 14.2266 56V59C14.2266 60.1046 15.0989 61 16.175 61H53.1951C54.2712 61 55.1435 60.1046 55.1435 59V56C55.1435 54.8954 54.2712 54 53.1951 54Z" fill="#3AADAA"/>
<path d="M44.2466 57H25.1233V58H44.2466V57Z" fill="white"/>
<path d="M32.1547 43H14.2266V45H32.1547V43Z" fill="#252525"/>
<path d="M34.6851 8.40002H27.2021L22.1851 14.928L25.0451 18.611H26.7451V30.9H42.6051V18.611H44.3311L47.1851 14.928L42.1681 8.40002H34.6851Z" fill="#E89849"/>
<path d="M26.7391 18.612H25.0391L22.1851 14.928L27.2021 8.40002H42.1681L47.1851 14.928L44.3251 18.612H42.5991" stroke="#89440B" stroke-linecap="round" stroke-linejoin="round"/>
<path d="M42.599 16.526V30.9H26.739V13.437" stroke="#89440B" stroke-linecap="round" stroke-linejoin="round"/>
<path d="M38.503 9.64801C38.2638 10.3821 37.8189 11.0322 37.2211 11.5208C36.6233 12.0095 35.8977 12.3162 35.1307 12.4046C34.3637 12.493 33.5874 12.3592 32.8941 12.0193C32.2009 11.6794 31.6198 11.1475 31.22 10.487" stroke="#89440B" stroke-linecap="round" stroke-linejoin="round"/>
<path d="M42.599 26.1151H40.134" stroke="#89440B" stroke-linecap="round" stroke-linejoin="round"/>
<path d="M42.599 27.742H36.531" stroke="#89440B" stroke-linecap="round" stroke-linejoin="round"/>
<path d="M120.74 1H63.3701V38H120.74V1Z" fill="#9CCDE4"/>
<path d="M112.064 48H72.0466V50H112.064V48Z" fill="#C7C7C7"/>
<path d="M110.158 54H73.9522C72.8998 54 72.0466 54.8954 72.0466 56V59C72.0466 60.1046 72.8998 61 73.9522 61H110.158C111.211 61 112.064 60.1046 112.064 59V56C112.064 54.8954 111.211 54 110.158 54Z" fill="#3AADAA"/>
<path d="M101.617 57H82.4934V58H101.617V57Z" fill="white"/>
<path d="M89.622 43H71.6938V45H89.622V43Z" fill="black"/>
<path d="M98.7791 30.9H93.8151L92.0541 15.094L90.2921 30.9H85.3311V8.40002H98.7791V30.9Z" fill="#E89849" stroke="#89440B" stroke-linecap="round" stroke-linejoin="round"/>
<path d="M87.1621 12.648H89.6221V16.157L87.4971 17.215L85.3311 16.077" stroke="#89440B" stroke-linecap="round" stroke-linejoin="round"/>
<path d="M98.7412 12.648H94.4512V16.157L96.5762 17.215" stroke="#89440B" stroke-linecap="round" stroke-linejoin="round"/>
<path d="M178.11 0.822021H120.74V37.822H178.11V0.822021Z" fill="#9CCDE4"/>
<path d="M169.579 47.822H129.272V49.822H169.579V47.822Z" fill="#C7C7C7"/>
<path d="M167.659 53.822H131.191C130.131 53.822 129.272 54.7175 129.272 55.822V58.822C129.272 59.9266 130.131 60.822 131.191 60.822H167.659C168.719 60.822 169.579 59.9266 169.579 58.822V55.822C169.579 54.7175 168.719 53.822 167.659 53.822Z" fill="#3AADAA"/>
<path d="M158.987 56.822H139.864V57.822H158.987V56.822Z" fill="white"/>
<path d="M147.2 42.722H129.272V44.722H147.2V42.722Z" fill="black"/>
<path d="M149.425 8.22205H141.942L136.925 14.75L139.785 18.433H141.485V30.722H157.345V18.433H159.071L161.925 14.75L156.908 8.22205H149.425Z" fill="#E89849"/>
<path d="M141.479 18.434H139.779L136.925 14.75L141.942 8.22205H156.908L161.925 14.75L159.065 18.434H157.339" stroke="#89440B" stroke-linecap="round" stroke-linejoin="round"/>
<path d="M157.339 16.348V30.722H141.479V13.259" stroke="#89440B" stroke-linecap="round" stroke-linejoin="round"/>
<path d="M153.243 9.47003C153.004 10.2042 152.559 10.8542 151.961 11.3429C151.364 11.8315 150.638 12.1383 149.871 12.2266C149.104 12.315 148.328 12.1813 147.634 11.8413C146.941 11.5014 146.36 10.9696 145.96 10.309" stroke="#89440B" stroke-linecap="round" stroke-linejoin="round"/>
<path d="M157.339 25.9371H154.874" stroke="#89440B" stroke-linecap="round" stroke-linejoin="round"/>
<path d="M157.339 27.564H151.271" stroke="#89440B" stroke-linecap="round" stroke-linejoin="round"/>
<path d="M233.939 0.722046H178.11V37.722H233.939V0.722046Z" fill="#9CCDE4"/>
<path d="M226.499 47.722H185.55V49.722H226.499V47.722Z" fill="#C7C7C7"/>
<path d="M224.549 53.722H187.5C186.423 53.722 185.55 54.6175 185.55 55.722V58.722C185.55 59.8266 186.423 60.722 187.5 60.722H224.549C225.626 60.722 226.499 59.8266 226.499 58.722V55.722C226.499 54.6175 225.626 53.722 224.549 53.722Z" fill="#3AADAA"/>
<path d="M215.329 56.722H196.72V57.722H215.329V56.722Z" fill="white"/>
<path d="M202.996 42.722H185.55V44.722H202.996V42.722Z" fill="black"/>
<path d="M207.334 23.761H202.591V30.883H207.334V23.761Z" fill="#E89849" stroke="#89440B" stroke-linecap="round" stroke-linejoin="round"/>
<path d="M207.334 8.06104H202.591V15.183H207.334V8.06104Z" fill="#E89849" stroke="#89440B" stroke-linecap="round" stroke-linejoin="round"/>
<path d="M210.315 19.7031C210.314 20.7633 210 21.7996 209.411 22.6811C208.821 23.5626 207.984 24.2495 207.005 24.6552C206.025 25.0608 204.947 25.1669 203.907 24.96C202.868 24.7531 201.912 24.2426 201.163 23.4929C200.413 22.7432 199.902 21.788 199.696 20.7482C199.489 19.7083 199.595 18.6305 200 17.651C200.406 16.6714 201.093 15.8341 201.974 15.245C202.856 14.6558 203.892 14.3413 204.953 14.3411C206.375 14.3411 207.738 14.906 208.744 15.9116C209.75 16.9171 210.315 18.281 210.315 19.7031Z" fill="#E89849" stroke="#89440B" stroke-linecap="round" stroke-linejoin="round"/>
<path d="M204.953 19.703V16.52" stroke="#89440B" stroke-linecap="round" stroke-linejoin="round"/>
<path d="M204.953 19.703L206.914 18.39" stroke="#89440B" stroke-linecap="round" stroke-linejoin="round"/>
<rect x="63.8701" y="0.5" width="56.3701" height="69" stroke="#C7C7C7"/>
<rect x="120.421" y="0.5" width="57.3655" height="69" stroke="#C7C7C7"/>
</svg>
