<svg width="50" height="50" viewBox="0 0 50 50" fill="none" xmlns="http://www.w3.org/2000/svg">
<g clip-path="url(#clip0_7758_19731)">
<path d="M25 9.64734C25 8.89701 25.7956 8.41396 26.4614 8.76012L49.4614 20.7201C49.7923 20.8922 50 21.2343 50 21.6073V41.0002C50 41.5525 49.5523 42.0002 49 42.0002H26C25.4477 42.0002 25 41.5525 25 41.0002V9.64734Z" fill="#2EBCFA"/>
<path d="M50 22.2059C50 21.5794 49.4306 21.1072 48.815 21.2231L0.814976 30.2604C0.342346 30.3494 0 30.7622 0 31.2431V41C0 41.5523 0.447716 42 1 42H49C49.5523 42 50 41.5523 50 41V22.2059Z" fill="#985184"/>
<path d="M26 41.9998H49C49.5523 41.9998 50 41.5526 50 40.9998V22.2059C50 21.5789 49.4306 21.1072 48.815 21.2225L25 25.7069V40.9998C25 41.5526 25.4477 41.9998 26 41.9998Z" fill="#144496"/>
</g>
<defs>
<clipPath id="clip0_7758_19731">
<rect width="50" height="50" fill="white"/>
</clipPath>
</defs>
</svg>
