<svg width="12" height="12" xmlns="http://www.w3.org/2000/svg" xmlns:xlink="http://www.w3.org/1999/xlink"><defs><path d="M7.158 11.549a2.005 2.005 0 0 1-3.105-1.286 2.005 2.005 0 0 1-1.286-3.105 2.005 2.005 0 0 1 1.286-3.105 2.005 2.005 0 0 1 3.105-1.286 2.005 2.005 0 0 1 3.105 1.286 2.005 2.005 0 0 1 1.286 3.105 2.005 2.005 0 0 1-1.286 3.105 2.005 2.005 0 0 1-3.105 1.286z" id="a"/><filter filterUnits="objectBoundingBox" id="b"><feMorphology radius=".5" in="SourceAlpha" result="shadowSpreadInner1"/><feOffset in="shadowSpreadInner1" result="shadowOffsetInner1"/><feComposite in="shadowOffsetInner1" in2="SourceAlpha" operator="arithmetic" k2="-1" k3="1" result="shadowInnerInner1"/><feColorMatrix values="0 0 0 0 0 0 0 0 0 0 0 0 0 0 0 0 0 0 0.0749562937 0" in="shadowInnerInner1"/></filter><path id="d" d="M6.04788912 6.85018391L7.55257375 8.20939291 9.91700506 6 11 6.947144 7.55257375 10 5 7.75171917z"/><filter x="-2.5%" y="-3.8%" width="105%" height="115%" filterUnits="objectBoundingBox" id="c"><feOffset dy=".3" in="SourceAlpha" result="shadowOffsetOuter1"/><feColorMatrix values="0 0 0 0 0 0 0 0 0 0 0 0 0 0 0 0 0 0 0.233200393 0" in="shadowOffsetOuter1"/></filter></defs><g transform="translate(-2 -2)" fill="none" fill-rule="evenodd"><g transform="rotate(22 5.57 9.903)"><use fill="#00C9FF" xlink:href="#a"/><use fill="#000" filter="url(#b)" xlink:href="#a"/><path stroke="#FFF" stroke-width=".7" d="M7.158 11.96a2.355 2.355 0 0 1-3.395-1.407 2.355 2.355 0 0 1-1.406-3.395 2.355 2.355 0 0 1 1.406-3.395 2.355 2.355 0 0 1 3.395-1.406 2.355 2.355 0 0 1 3.395 1.406 2.355 2.355 0 0 1 1.406 3.395 2.355 2.355 0 0 1-1.406 3.395 2.355 2.355 0 0 1-3.395 1.406z"/></g><use fill="#000" filter="url(#c)" xlink:href="#d"/><use fill="#FFF" xlink:href="#d"/></g></svg>