<svg width="50" height="50" viewBox="0 0 50 50" xmlns="http://www.w3.org/2000/svg"><path d="M4 8a4 4 0 0 1 4-4h17v17a4 4 0 0 1-4 4H4V8Z" fill="var(--o-icons-purple-pure, #93407D)"/><path d="M4 8a4 4 0 0 1 4-4h17v17a4 4 0 0 1-4 4H4V8Z" fill="url(#o_icon_spreadsheet_dashboard__a)" fill-opacity=".2"/><path d="M4 35a4 4 0 0 1 4-4h11v11a4 4 0 0 1-4 4H4V35Z" fill="var(--o-icons-cyan-cyan, #0382F3)"/><path d="M4 35a4 4 0 0 1 4-4h11v11a4 4 0 0 1-4 4H4V35Z" fill="url(#o_icon_spreadsheet_dashboard__b)" fill-opacity=".2"/><path d="M25 46h4a4 4 0 0 0 4-4V31h-4a4 4 0 0 0-4 4v11Z" fill="var(--o-icons-teal-pure, #00CEB3)"/><path d="M25 46h4a4 4 0 0 0 4-4V31h-4a4 4 0 0 0-4 4v11Z" fill="url(#o_icon_spreadsheet_dashboard__c)" fill-opacity=".2"/><path d="M31 17v4a4 4 0 0 0 4 4h11v-4a4 4 0 0 0-4-4H31Z" fill="var(--o-icons-red-red, #F9383D)"/><path d="M31 17v4a4 4 0 0 0 4 4h11v-4a4 4 0 0 0-4-4H31Z" fill="url(#o_icon_spreadsheet_dashboard__d)" fill-opacity=".2"/><path d="M31 4v4a4 4 0 0 0 4 4h11V8a4 4 0 0 0-4-4H31Z" fill="var(--o-icons-red-pure, #FC787D)"/><path d="M31 4v4a4 4 0 0 0 4 4h11V8a4 4 0 0 0-4-4H31Z" fill="url(#o_icon_spreadsheet_dashboard__e)" fill-opacity=".2"/><path d="M38 46h4a4 4 0 0 0 4-4V31h-4a4 4 0 0 0-4 4v11Z" fill="var(--o-icons-teal-teal, #00A079)"/><path d="M38 46h4a4 4 0 0 0 4-4V31h-4a4 4 0 0 0-4 4v11Z" fill="url(#o_icon_spreadsheet_dashboard__f)" fill-opacity=".2"/><defs><linearGradient id="o_icon_spreadsheet_dashboard__a" x1="4" y1="4" x2="28.706" y2="10.177" gradientUnits="userSpaceOnUse"><stop stop-color="#fff"/><stop offset="1" stop-color="#fff" stop-opacity="0"/></linearGradient><linearGradient id="o_icon_spreadsheet_dashboard__b" x1="4" y1="31" x2="21.647" y2="35.412" gradientUnits="userSpaceOnUse"><stop stop-color="#fff"/><stop offset="1" stop-color="#fff" stop-opacity="0"/></linearGradient><linearGradient id="o_icon_spreadsheet_dashboard__c" x1="25" y1="31" x2="34.825" y2="32.31" gradientUnits="userSpaceOnUse"><stop stop-color="#fff"/><stop offset="1" stop-color="#fff" stop-opacity="0"/></linearGradient><linearGradient id="o_icon_spreadsheet_dashboard__d" x1="31" y1="17" x2="46.372" y2="24.206" gradientUnits="userSpaceOnUse"><stop stop-color="#fff"/><stop offset="1" stop-color="#fff" stop-opacity="0"/></linearGradient><linearGradient id="o_icon_spreadsheet_dashboard__e" x1="31" y1="4" x2="46.372" y2="11.206" gradientUnits="userSpaceOnUse"><stop stop-color="#fff"/><stop offset="1" stop-color="#fff" stop-opacity="0"/></linearGradient><linearGradient id="o_icon_spreadsheet_dashboard__f" x1="38" y1="31" x2="47.825" y2="32.31" gradientUnits="userSpaceOnUse"><stop stop-color="#fff"/><stop offset="1" stop-color="#fff" stop-opacity="0"/></linearGradient></defs></svg>
