<svg width="70" height="70" viewBox="0 0 70 70" fill="none" xmlns="http://www.w3.org/2000/svg">
<path d="M14 18C14 15.7909 15.7909 14 18 14H35V31C35 33.2091 33.2091 35 31 35H14V18Z" fill="#985184"/>
<path d="M14 45C14 42.7909 15.7909 41 18 41H29V52C29 54.2091 27.2091 56 25 56H14V45Z" fill="#088BF5"/>
<path d="M35 56H39C41.2091 56 43 54.2091 43 52V41H39C36.7909 41 35 42.7909 35 45V56Z" fill="#1AD3BB"/>
<path d="M41 27L41 31C41 33.2091 42.7909 35 45 35L56 35V31C56 28.7909 54.2091 27 52 27L41 27Z" fill="#F9464C"/>
<path d="M41 14L41 18C41 20.2091 42.7909 22 45 22L56 22V18C56 15.7909 54.2091 14 52 14L41 14Z" fill="#FC868B"/>
<path d="M48 56H52C54.2091 56 56 54.2091 56 52V41H52C49.7909 41 48 42.7909 48 45V56Z" fill="#03AF89"/>
</svg>
