<svg width="50" height="50" viewBox="0 0 50 50" xmlns="http://www.w3.org/2000/svg"><g clip-path="url(#o_icon_social_facebook__a)"><path d="M20.875 49.75C9 47.625 0 37.375 0 25 0 11.25 11.25 0 25 0s25 11.25 25 25c0 12.375-9 22.625-20.875 24.75l-1.375-1.125h-5.5l-1.375 1.125Z" fill="url(#o_icon_social_facebook__b)"/><path d="m34.75 32 1.125-7H29.25v-4.875c0-2 .75-3.5 3.75-3.5h3.25V10.25c-1.75-.25-3.75-.5-5.5-.5C25 9.75 21 13.25 21 19.5V25h-6.25v7H21v17.625c1.375.25 2.75.375 4.125.375s2.75-.125 4.125-.375V32h5.5Z" fill="#fff"/></g><defs><linearGradient id="o_icon_social_facebook__b" x1="25.001" y1="48.261" x2="25.001" y2="-.009" gradientUnits="userSpaceOnUse"><stop stop-color="#0062E0"/><stop offset="1" stop-color="#19AFFF"/></linearGradient><clipPath id="o_icon_social_facebook__a"><path fill="#fff" d="M0 0h50v50H0z"/></clipPath></defs></svg>
