<svg width="70" height="70" viewBox="0 0 70 70" xmlns="http://www.w3.org/2000/svg" xmlns:xlink="http://www.w3.org/1999/xlink"><title>maintenance/static/description/icon</title><defs><path d="M4 0h61c4 0 5 1 5 5v60c0 4-1 5-5 5H4c-3 0-4-1-4-5V5c0-4 1-5 4-5z" id="a"/><linearGradient x1="100%" y1="0%" x2="0%" y2="98.616%" id="c"><stop stop-color="#797C79" offset="0%"/><stop stop-color="#545554" offset="100%"/></linearGradient></defs><g fill="none" fill-rule="evenodd"><mask id="b" fill="#fff"><use xlink:href="#a"/></mask><g mask="url(#b)"><path fill="url(#c)" d="M0 0H70V70H0z"/><path d="M4 1h61c2.667 0 4.333.667 5 2V0H0v3c.667-1.333 2-2 4-2z" fill="#FFF" fill-opacity=".383"/><path d="M42.863 70H4c-2 0-4-.149-4-4.17V42.7L22 21l35 33.362L42.863 70z" fill="#393939" opacity=".324"/><path d="M4 69h61c2.667 0 4.333-1 5-3v4H0v-4c.667 2 2 3 4 3z" fill="#000" fill-opacity=".383"/><path d="M34.821 40.185l-9.488-9.488-3.163 3.163h-3.162c-1.487 1.054-3.02 2.372-4.602 3.953-1.02 1.53-1.81 2.88-2.372 4.05-.622-2.173-.173-4.424 1.346-6.755 1.116-1.36 2.465-3.093 4.046-5.202v-2.372l7.907-7.906c2.635.527 3.69-.528 3.163-3.163l3.162-3.163 6.326 5.535A38.251 38.251 0 0 1 34.82 22c-2.636-.528-3.953.527-3.953 3.162l-2.372 2.372 8.697 9.488 3.953-.79L56.96 52.045v3.163l-4.744 4.744h-3.163L34.03 44.138v-2.372l.791-1.58z" fill="#000" opacity=".3"/><path d="M34.821 38.185l-9.488-9.488-3.163 3.163h-3.162c-1.487 1.054-3.02 2.372-4.602 3.953-1.02 1.53-1.81 2.88-2.372 4.05-.622-2.173-.173-4.424 1.346-6.755 1.116-1.36 2.465-3.093 4.046-5.202v-2.372l7.907-7.906c2.635.527 3.69-.528 3.163-3.163l3.162-3.163 6.326 5.535A38.251 38.251 0 0 1 34.82 20c-2.636-.528-3.953.527-3.953 3.162l-2.372 2.372 8.697 9.488 3.953-.79L56.96 50.045v3.163l-4.744 4.744h-3.163L34.03 42.138v-2.372l.791-1.58z" fill="#FFF"/></g></g></svg>