<svg width="70" height="70" viewBox="0 0 70 70" fill="none" xmlns="http://www.w3.org/2000/svg">
<path d="M22.1709 34.1927C22.1709 34.1927 28.2922 31.6069 29.9491 29.9501C31.6059 28.2932 34.1917 22.1719 34.1917 22.1719L47.6267 35.6069C47.6267 35.6069 41.5283 38.1698 39.8486 39.8495C38.1689 41.5293 35.6059 47.6277 35.6059 47.6277L22.1709 34.1927Z" fill="#2EBCFA"/>
<path fill-rule="evenodd" clip-rule="evenodd" d="M52.577 32.7782C56.8728 28.4824 56.8728 21.5176 52.577 17.2218C48.2812 12.9261 41.3164 12.9261 37.0207 17.2218C32.7249 21.5176 32.7249 28.4824 37.0207 32.7782C41.3164 37.0739 48.2812 37.0739 52.577 32.7782ZM48.3344 28.5355C50.287 26.5829 50.287 23.4171 48.3344 21.4645C46.3817 19.5118 43.2159 19.5118 41.2633 21.4645C39.3107 23.4171 39.3107 26.5829 41.2633 28.5355C43.2159 30.4882 46.3818 30.4882 48.3344 28.5355Z" fill="#088BF5"/>
<path fill-rule="evenodd" clip-rule="evenodd" d="M32.7782 52.577C37.0739 48.2812 37.0739 41.3164 32.7782 37.0207C28.4824 32.7249 21.5176 32.7249 17.2218 37.0207C12.9261 41.3164 12.9261 48.2812 17.2218 52.577C21.5176 56.8728 28.4824 56.8728 32.7782 52.577ZM28.5355 48.3344C30.4882 46.3817 30.4882 43.2159 28.5355 41.2633C26.5829 39.3107 23.4171 39.3107 21.4645 41.2633C19.5119 43.2159 19.5119 46.3817 21.4645 48.3344C23.4171 50.287 26.5829 50.287 28.5355 48.3344Z" fill="#088BF5"/>
</svg>
