<svg width="50" height="50" viewBox="0 0 50 50" xmlns="http://www.w3.org/2000/svg"><path d="M12.172 24.193s6.121-2.586 7.778-4.243c1.657-1.657 4.243-7.778 4.243-7.778l13.435 13.435s-6.099 2.563-7.779 4.242c-1.68 1.68-4.242 7.779-4.242 7.779L12.172 24.193Z" fill="#2EBCFA"/><path fill-rule="evenodd" clip-rule="evenodd" d="M42.577 22.778c4.296-4.296 4.296-11.26 0-15.556-4.296-4.296-11.26-4.296-15.556 0-4.296 4.296-4.296 11.26 0 15.556 4.295 4.296 11.26 4.296 15.556 0Zm-4.243-4.242a5 5 0 1 0-7.07-7.072 5 5 0 0 0 7.07 7.071ZM22.778 42.577c4.296-4.296 4.296-11.26 0-15.556-4.296-4.296-11.26-4.296-15.556 0-4.296 4.295-4.296 11.26 0 15.556 4.296 4.296 11.26 4.296 15.556 0Zm-4.242-4.243a5 5 0 1 0-7.071-7.07 5 5 0 0 0 7.07 7.07Z" fill="#088BF5"/></svg>
