<svg width="50" height="50" viewBox="0 0 50 50" fill="none" xmlns="http://www.w3.org/2000/svg">
<path d="M24.9999 4L31.857 8L15.5 19V35L16 40.75L7 35.5L7 14.5L24.9999 4Z" fill="#FC868B"/>
<path d="M18.0856 41.9667L11.9482 38.3866L11.9482 17.5002L30.0455 6.94336L36.3284 10.6084L22 23.5L18.0856 41.9667Z" fill="#962B48"/>
<path d="M36.3285 10.6084L42.9997 14.5L42.9997 35.5L24.9998 46L18.0859 41.9668L18.0859 21.25L36.3285 10.6084Z" fill="#985184"/>
<path d="M46 36.5C46 41.7467 41.7467 46 36.5 46C31.2533 46 27 41.7467 27 36.5C27 31.2533 31.2533 27 36.5 27C41.7467 27 46 31.2533 46 36.5Z" fill="#FC868B"/>
<path d="M40.6575 33.5307C40.8836 33.0454 41 32.5253 41 32L32 32C32 32.5253 32.1164 33.0454 32.3425 33.5307C32.5687 34.016 32.9002 34.457 33.318 34.8284C33.7359 35.1999 34.232 35.4945 34.7779 35.6955C34.9804 35.7701 35.1883 36.1064 35.3999 36.5C35.1883 36.8936 34.9804 37.2299 34.7779 37.3045C34.232 37.5055 33.7359 37.8001 33.318 38.1716C32.9002 38.543 32.5687 38.984 32.3425 39.4693C32.1164 39.9546 32 40.4747 32 41L41 41C41 40.4747 40.8836 39.9546 40.6575 39.4693C40.4313 38.984 40.0998 38.543 39.682 38.1716C39.2641 37.8001 38.768 37.5055 38.2221 37.3045C38.0196 37.2299 37.8117 36.8936 37.6001 36.5C37.8117 36.1064 38.0196 35.7701 38.2221 35.6955C38.768 35.4945 39.2641 35.1999 39.682 34.8284C40.0998 34.457 40.4313 34.016 40.6575 33.5307Z" fill="white"/>
</svg>
