<svg width="50" height="50" viewBox="0 0 50 50" xmlns="http://www.w3.org/2000/svg"><path fill="#fff" d="M0 0h50v50H0z"/><path d="m23 4 6.857 4L13.5 19v16l.5 5.75-9-5.25v-21L23 4Z" fill="#FC868B"/><path d="m16.086 41.967-6.138-3.58V17.5L28.045 6.943l6.283 3.665L20 23.5l-3.914 18.467Z" fill="#962B48"/><path d="M34.328 10.608 41 14.5v21L23 46l-6.914-4.033V21.25l18.242-10.642Z" fill="#985184"/><path d="M45 36.5a9.5 9.5 0 1 1-19 0 9.5 9.5 0 0 1 19 0Z" fill="#FC868B"/><path d="M39.657 33.53A3.618 3.618 0 0 0 40 32h-9c0 .525.116 1.045.343 1.53.226.486.557.927.975 1.298.418.372.914.666 1.46.867.202.075.41.411.622.805-.212.394-.42.73-.622.804a4.573 4.573 0 0 0-1.46.868 3.98 3.98 0 0 0-.975 1.297A3.618 3.618 0 0 0 31 41h9c0-.525-.116-1.045-.343-1.53a4.006 4.006 0 0 0-.975-1.298 4.573 4.573 0 0 0-1.46-.867c-.202-.075-.41-.411-.622-.805.212-.394.42-.73.622-.804a4.573 4.573 0 0 0 1.46-.868 3.98 3.98 0 0 0 .975-1.297Z" fill="#fff"/></svg>
