<svg width="120" height="140" viewBox="0 0 120 140" fill="none" xmlns="http://www.w3.org/2000/svg">
<g clip-path="url(#clip0_25_2)">
<path d="M896 896C896 825.333 871 765 821 715C771 665 710.667 640 640 640C569.333 640 509 665 459 715C409 765 384 825.333 384 896C384 966.667 409 1027 459 1077C509 1127 569.333 1152 640 1152C710.667 1152 771 1127 821 1077C871 1027 896 966.667 896 896ZM1664 1408C1664 1373.33 1651.33 1343.33 1626 1318C1600.67 1292.67 1570.67 1280 1536 1280C1501.33 1280 1471.33 1292.67 1446 1318C1420.67 1343.33 1408 1373.33 1408 1408C1408 1443.33 1420.5 1473.5 1445.5 1498.5C1470.5 1523.5 1500.67 1536 1536 1536C1571.33 1536 1601.5 1523.5 1626.5 1498.5C1651.5 1473.5 1664 1443.33 1664 1408ZM1664 384C1664 349.333 1651.33 319.333 1626 294C1600.67 268.667 1570.67 256 1536 256C1501.33 256 1471.33 268.667 1446 294C1420.67 319.333 1408 349.333 1408 384C1408 419.333 1420.5 449.5 1445.5 474.5C1470.5 499.5 1500.67 512 1536 512C1571.33 512 1601.5 499.5 1626.5 474.5C1651.5 449.5 1664 419.333 1664 384ZM1280 805V990C1280 996.667 1277.67 1003.17 1273 1009.5C1268.33 1015.83 1263 1019.33 1257 1020L1102 1044C1094.67 1067.33 1084 1092.67 1070 1120C1092.67 1152 1122.67 1190.33 1160 1235C1164.67 1242.33 1167 1249 1167 1255C1167 1263 1164.67 1269.33 1160 1274C1144.67 1294 1117.17 1323.83 1077.5 1363.5C1037.83 1403.17 1011.67 1423 999 1423C991.667 1423 984.667 1420.67 978 1416L863 1326C838.333 1338.67 812.667 1349 786 1357C778.667 1429 771 1480.67 763 1512C758.333 1528 748.333 1536 733 1536H547C539.667 1536 533 1533.5 527 1528.5C521 1523.5 517.667 1517.67 517 1511L494 1358C471.333 1351.33 446.333 1341 419 1327L301 1416C296.333 1420.67 289.667 1423 281 1423C273.667 1423 266.667 1420.33 260 1415C164 1326.33 116 1273 116 1255C116 1249 118.333 1242.67 123 1236C129.667 1226.67 143.333 1209 164 1183C184.667 1157 200.333 1136.67 211 1122C195.667 1092.67 184 1065.33 176 1040L24 1016C17.3333 1015.33 11.6667 1012.17 7 1006.5C2.33333 1000.83 0 994.333 0 987V802C0 795.333 2.33333 788.833 7 782.5C11.6667 776.167 17 772.667 23 772L178 748C185.333 724.667 196 699.333 210 672C187.333 640 157.333 601.667 120 557C115.333 549.667 113 543 113 537C113 529 115.333 522.333 120 517C134.667 497 162 467.333 202 428C242 388.667 268.333 369 281 369C288.333 369 295.333 371.333 302 376L417 466C439.667 454 465.333 443.333 494 434C501.333 362 509 310.667 517 280C521.667 264 531.667 256 547 256H733C740.333 256 747 258.5 753 263.5C759 268.5 762.333 274.333 763 281L786 434C808.667 440.667 833.667 451 861 465L979 376C984.333 371.333 991 369 999 369C1006.33 369 1013.33 371.667 1020 377C1116 465.667 1164 519 1164 537C1164 542.333 1161.67 548.667 1157 556C1149 566.667 1135 584.667 1115 610C1095 635.333 1080 655.333 1070 670C1085.33 702 1096.67 729.333 1104 752L1256 775C1262.67 776.333 1268.33 779.833 1273 785.5C1277.67 791.167 1280 797.667 1280 805ZM1920 1338V1478C1920 1488.67 1870.33 1499 1771 1509C1763 1527 1753 1544.33 1741 1561C1775 1636.33 1792 1682.33 1792 1699C1792 1701.67 1790.67 1704 1788 1706C1706.67 1753.33 1665.33 1777 1664 1777C1658.67 1777 1643.33 1761.33 1618 1730C1592.67 1698.67 1575.33 1676 1566 1662C1552.67 1663.33 1542.67 1664 1536 1664C1529.33 1664 1519.33 1663.33 1506 1662C1496.67 1676 1479.33 1698.67 1454 1730C1428.67 1761.33 1413.33 1777 1408 1777C1406.67 1777 1365.33 1753.33 1284 1706C1281.33 1704 1280 1701.67 1280 1699C1280 1682.33 1297 1636.33 1331 1561C1319 1544.33 1309 1527 1301 1509C1201.67 1499 1152 1488.67 1152 1478V1338C1152 1327.33 1201.67 1317 1301 1307C1309.67 1287.67 1319.67 1270.33 1331 1255C1297 1179.67 1280 1133.67 1280 1117C1280 1114.33 1281.33 1112 1284 1110C1286.67 1108.67 1298.33 1102 1319 1090C1339.67 1078 1359.33 1066.67 1378 1056C1396.67 1045.33 1406.67 1040 1408 1040C1413.33 1040 1428.67 1055.5 1454 1086.5C1479.33 1117.5 1496.67 1140 1506 1154C1519.33 1152.67 1529.33 1152 1536 1152C1542.67 1152 1552.67 1152.67 1566 1154C1600 1106.67 1630.67 1069.33 1658 1042L1664 1040C1666.67 1040 1708 1063.33 1788 1110C1790.67 1112 1792 1114.33 1792 1117C1792 1133.67 1775 1179.67 1741 1255C1752.33 1270.33 1762.33 1287.67 1771 1307C1870.33 1317 1920 1327.33 1920 1338ZM1920 314V454C1920 464.667 1870.33 475 1771 485C1763 503 1753 520.333 1741 537C1775 612.333 1792 658.333 1792 675C1792 677.667 1790.67 680 1788 682C1706.67 729.333 1665.33 753 1664 753C1658.67 753 1643.33 737.333 1618 706C1592.67 674.667 1575.33 652 1566 638C1552.67 639.333 1542.67 640 1536 640C1529.33 640 1519.33 639.333 1506 638C1496.67 652 1479.33 674.667 1454 706C1428.67 737.333 1413.33 753 1408 753C1406.67 753 1365.33 729.333 1284 682C1281.33 680 1280 677.667 1280 675C1280 658.333 1297 612.333 1331 537C1319 520.333 1309 503 1301 485C1201.67 475 1152 464.667 1152 454V314C1152 303.333 1201.67 293 1301 283C1309.67 263.667 1319.67 246.333 1331 231C1297 155.667 1280 109.667 1280 93C1280 90.3333 1281.33 88 1284 86C1286.67 84.6667 1298.33 78 1319 66C1339.67 54 1359.33 42.6667 1378 32C1396.67 21.3333 1406.67 16 1408 16C1413.33 16 1428.67 31.5 1454 62.5C1479.33 93.5 1496.67 116 1506 130C1519.33 128.667 1529.33 128 1536 128C1542.67 128 1552.67 128.667 1566 130C1600 82.6667 1630.67 45.3333 1658 18L1664 16C1666.67 16 1708 39.3333 1788 86C1790.67 88 1792 90.3333 1792 93C1792 109.667 1775 155.667 1741 231C1752.33 246.333 1762.33 263.667 1771 283C1870.33 293 1920 303.333 1920 314Z" fill="black"/>
<mask id="mask0_25_2" style="mask-type:luminance" maskUnits="userSpaceOnUse" x="0" y="0" width="120" height="140">
<path d="M0 0H120V140H0V0Z" fill="white"/>
</mask>
<g mask="url(#mask0_25_2)">
<g filter="url(#filter0_d_25_2)">
<path d="M60 134.614C90.928 134.614 116 109.542 116 78.614C116 47.686 90.928 22.614 60 22.614C29.072 22.614 4 47.686 4 78.614C4 109.542 29.072 134.614 60 134.614Z" fill="black"/>
</g>
<path d="M60 134.614C90.928 134.614 116 109.542 116 78.614C116 47.686 90.928 22.614 60 22.614C29.072 22.614 4 47.686 4 78.614C4 109.542 29.072 134.614 60 134.614Z" fill="url(#paint0_linear_25_2)"/>
<mask id="mask1_25_2" style="mask-type:luminance" maskUnits="userSpaceOnUse" x="4" y="12" width="112" height="123">
<path d="M60 134.807C90.928 134.807 116 109.672 116 78.667V12H4V78.667C4 109.672 29.072 134.807 60 134.807Z" fill="white"/>
</mask>
<g mask="url(#mask1_25_2)">
<path d="M26 18.015H88.315L104.5 34.556V126.83C104.5 136.218 96.889 143.83 87.5 143.83H35C25.611 143.83 18 136.218 18 126.83V26.015C18 23.8933 18.8429 21.8585 20.3431 20.3582C21.8434 18.8579 23.8783 18.015 26 18.015Z" fill="white"/>
<path d="M103.5 34.964L87.894 19.015H26C24.1435 19.015 22.363 19.7525 21.0503 21.0653C19.7375 22.378 19 24.1585 19 26.015V126.83C19 135.666 26.163 142.83 35 142.83H87.5C96.337 142.83 103.5 135.666 103.5 126.83V34.964Z" stroke="#A1ACBA" stroke-width="2"/>
</g>
<mask id="mask2_25_2" style="mask-type:luminance" maskUnits="userSpaceOnUse" x="4" y="12" width="112" height="123">
<path d="M60 134.807C90.928 134.807 116 109.672 116 78.667V12H4V78.667C4 109.672 29.072 134.807 60 134.807Z" fill="white"/>
</mask>
<g mask="url(#mask2_25_2)">
<path d="M88.5549 21.049C88.4679 24.647 88.2889 30.138 88.4769 30.853C88.6309 31.437 88.9329 31.893 89.6509 32.611C90.0979 33.059 90.6279 33.388 91.2849 33.631C92.3849 34.035 93.8349 34.2029 96.1219 34.2229C96.8739 34.2299 99.5439 34.1859 101.662 34.1559L88.5549 21.049Z" stroke="#A1ACBA" stroke-width="2"/>
</g>
<path d="M17 16L8 7M22 11V2M5 22H14" stroke="#A1ACBA" stroke-width="2" stroke-linecap="round"/>
</g>
<path d="M28 39H43V45H28V39Z" fill="#A1ACBA"/>
<path d="M46 39H71V45H46V39Z" fill="#A1ACBA"/>
<path d="M73 39H95V45H73V39Z" fill="#A1ACBA"/>
<path d="M28 39H43V45H28V39Z" fill="#A1ACBA"/>
<path d="M46 39H71V45H46V39Z" fill="#A1ACBA"/>
<path d="M73 39H95V45H73V39Z" fill="#A1ACBA"/>
<path d="M28 49H43V55H28V49Z" fill="#EDEDED"/>
<path d="M46 49H71V55H46V49Z" fill="#EDEDED"/>
<path d="M73 49H95V55H73V49Z" fill="#EDEDED"/>
<path d="M28 59H43V65H28V59Z" fill="#EDEDED"/>
<path d="M46 59H71V65H46V59Z" fill="#EDEDED"/>
<path d="M73 59H95V65H73V59Z" fill="#EDEDED"/>
<path d="M28 69H43V75H28V69Z" fill="#EDEDED"/>
<path d="M46 69H71V75H46V69Z" fill="#EDEDED"/>
<path d="M73 69H95V75H73V69Z" fill="#EDEDED"/>
<path d="M28 79H43V85H28V79Z" fill="#EDEDED"/>
<path d="M46 79H71V85H46V79Z" fill="#EDEDED"/>
<path d="M73 79H95V85H73V79Z" fill="#EDEDED"/>
<path d="M28 89H43V95H28V89Z" fill="#EDEDED"/>
<path d="M46 89H71V95H46V89Z" fill="#EDEDED"/>
<path d="M73 89H95V95H73V89Z" fill="#EDEDED"/>
<path d="M28 99H43V105H28V99Z" fill="#EDEDED"/>
<path d="M46 99H71V105H46V99Z" fill="#EDEDED"/>
<path d="M73 99H95V105H73V99Z" fill="#EDEDED"/>
<path d="M28 109H43V115H28V109Z" fill="#EDEDED"/>
<path d="M46 109H71V115H46V109Z" fill="#EDEDED"/>
<path d="M73 109H95V115H73V109Z" fill="#EDEDED"/>
<path d="M76 77C76 85.8366 68.8366 93 60 93C51.1634 93 44 85.8366 44 77C44 68.1634 51.1634 61 60 61C68.8366 61 76 68.1634 76 77Z" fill="#714B67"/>
<path fill-rule="evenodd" clip-rule="evenodd" d="M79 77C79 87.4934 70.4934 96 60 96C49.5066 96 41 87.4934 41 77C41 66.5066 49.5066 58 60 58C70.4934 58 79 66.5066 79 77ZM60 93C68.8366 93 76 85.8366 76 77C76 68.1634 68.8366 61 60 61C51.1634 61 44 68.1634 44 77C44 85.8366 51.1634 93 60 93Z" fill="#906083"/>
<path d="M57.4901 77.4661C57.4901 76.824 57.245 76.2758 56.7548 75.8216C56.2646 75.3673 55.6731 75.1401 54.9803 75.1401C54.2875 75.1401 53.696 75.3673 53.2058 75.8216C52.7156 76.2758 52.4705 76.824 52.4705 77.4661C52.4705 78.1081 52.7156 78.6563 53.2058 79.1106C53.696 79.5649 54.2875 79.792 54.9803 79.792C55.6731 79.792 56.2646 79.5649 56.7548 79.1106C57.245 78.6563 57.4901 78.1081 57.4901 77.4661ZM65.0195 82.118C65.0195 81.803 64.8953 81.5304 64.647 81.3003C64.3986 81.0701 64.1045 80.955 63.7646 80.955C63.4247 80.955 63.1306 81.0701 62.8823 81.3003C62.6339 81.5304 62.5097 81.803 62.5097 82.118C62.5097 82.439 62.6323 82.7131 62.8773 82.9402C63.1224 83.1674 63.4182 83.281 63.7646 83.281C64.111 83.281 64.4068 83.1674 64.6519 82.9402C64.897 82.7131 65.0195 82.439 65.0195 82.118ZM65.0195 72.8142C65.0195 72.4992 64.8953 72.2266 64.647 71.9965C64.3986 71.7663 64.1045 71.6512 63.7646 71.6512C63.4247 71.6512 63.1306 71.7663 62.8823 71.9965C62.6339 72.2266 62.5097 72.4992 62.5097 72.8142C62.5097 73.1352 62.6323 73.4093 62.8773 73.6364C63.1224 73.8636 63.4182 73.9772 63.7646 73.9772C64.111 73.9772 64.4068 73.8636 64.6519 73.6364C64.897 73.4093 65.0195 73.1352 65.0195 72.8142ZM61.2548 76.6393V78.3201C61.2548 78.3807 61.2319 78.4398 61.1862 78.4973C61.1404 78.5549 61.0881 78.5867 61.0293 78.5927L59.5097 78.8108C59.4378 79.0228 59.3332 79.2529 59.196 79.5013C59.4182 79.792 59.7123 80.1403 60.0783 80.5462C60.1241 80.6128 60.147 80.6734 60.147 80.7279C60.147 80.8006 60.1241 80.8581 60.0783 80.9005C59.928 81.0822 59.6584 81.3533 59.2695 81.7137C58.8806 82.0741 58.6241 82.2543 58.4999 82.2543C58.428 82.2543 58.3594 82.2331 58.294 82.1907L57.1666 81.373C56.9247 81.488 56.6731 81.5819 56.4117 81.6546C56.3398 82.3088 56.2646 82.7782 56.1862 83.0629C56.1404 83.2083 56.0424 83.281 55.8921 83.281H54.0685C53.9966 83.281 53.9313 83.2582 53.8724 83.2128C53.8136 83.1674 53.7809 83.1144 53.7744 83.0538L53.5489 81.6637C53.3267 81.6031 53.0816 81.5092 52.8136 81.382L51.6568 82.1907C51.611 82.2331 51.5457 82.2543 51.4607 82.2543C51.3888 82.2543 51.3202 82.23 51.2548 82.1816C50.3136 81.376 49.843 80.8914 49.843 80.7279C49.843 80.6734 49.8659 80.6158 49.9117 80.5552C49.977 80.4704 50.111 80.3099 50.3136 80.0737C50.5162 79.8375 50.6698 79.6527 50.7744 79.5195C50.6241 79.2529 50.5097 79.0046 50.4313 78.7744L48.9411 78.5564C48.8757 78.5503 48.8202 78.5215 48.7744 78.4701C48.7287 78.4186 48.7058 78.3595 48.7058 78.2929V76.612C48.7058 76.5515 48.7287 76.4924 48.7744 76.4348C48.8202 76.3773 48.8724 76.3455 48.9313 76.3394L50.4509 76.1214C50.5228 75.9094 50.6274 75.6792 50.7646 75.4309C50.5424 75.1401 50.2483 74.7918 49.8823 74.386C49.8365 74.3194 49.8136 74.2588 49.8136 74.2043C49.8136 74.1316 49.8365 74.071 49.8823 74.0226C50.026 73.8409 50.294 73.5713 50.6862 73.214C51.0783 72.8566 51.3365 72.6779 51.4607 72.6779C51.5326 72.6779 51.6012 72.6991 51.6666 72.7415L52.794 73.5592C53.0162 73.4502 53.2679 73.3533 53.5489 73.2685C53.6208 72.6143 53.696 72.1479 53.7744 71.8693C53.8202 71.7239 53.9182 71.6512 54.0685 71.6512H55.8921C55.964 71.6512 56.0293 71.6739 56.0881 71.7193C56.147 71.7648 56.1796 71.8178 56.1862 71.8783L56.4117 73.2685C56.6339 73.329 56.879 73.4229 57.147 73.5501L58.3038 72.7415C58.3561 72.6991 58.4215 72.6779 58.4999 72.6779C58.5718 72.6779 58.6404 72.7021 58.7058 72.7506C59.647 73.5562 60.1175 74.0408 60.1175 74.2043C60.1175 74.2528 60.0947 74.3103 60.0489 74.3769C59.9705 74.4738 59.8332 74.6374 59.6372 74.8676C59.4411 75.0977 59.294 75.2794 59.196 75.4127C59.3463 75.7034 59.4574 75.9518 59.5293 76.1577L61.0195 76.3667C61.0849 76.3788 61.1404 76.4106 61.1862 76.4621C61.2319 76.5136 61.2548 76.5726 61.2548 76.6393ZM67.5293 81.482V82.754C67.5293 82.8509 67.0424 82.9448 66.0685 83.0356C65.9901 83.1992 65.8921 83.3567 65.7744 83.5081C66.1077 84.1926 66.2744 84.6105 66.2744 84.7619C66.2744 84.7862 66.2613 84.8074 66.2352 84.8255C65.4378 85.2556 65.0326 85.4706 65.0195 85.4706C64.9672 85.4706 64.8169 85.3283 64.5685 85.0436C64.3202 84.7589 64.1502 84.553 64.0587 84.4258C63.928 84.4379 63.83 84.4439 63.7646 84.4439C63.6992 84.4439 63.6012 84.4379 63.4705 84.4258C63.379 84.553 63.209 84.7589 62.9607 85.0436C62.7123 85.3283 62.562 85.4706 62.5097 85.4706C62.4966 85.4706 62.0914 85.2556 61.294 84.8255C61.2679 84.8074 61.2548 84.7862 61.2548 84.7619C61.2548 84.6105 61.4215 84.1926 61.7548 83.5081C61.6372 83.3567 61.5391 83.1992 61.4607 83.0356C60.4868 82.9448 59.9999 82.8509 59.9999 82.754V81.482C59.9999 81.3851 60.4868 81.2912 61.4607 81.2003C61.5457 81.0247 61.6437 80.8672 61.7548 80.7279C61.4215 80.0434 61.2548 79.6255 61.2548 79.474C61.2548 79.4498 61.2679 79.4286 61.294 79.4104C61.3202 79.3983 61.4345 79.3377 61.6372 79.2287C61.8398 79.1197 62.0326 79.0167 62.2156 78.9198C62.3986 78.8229 62.4966 78.7744 62.5097 78.7744C62.562 78.7744 62.7123 78.9153 62.9607 79.1969C63.209 79.4786 63.379 79.683 63.4705 79.8102C63.6012 79.7981 63.6992 79.792 63.7646 79.792C63.83 79.792 63.928 79.7981 64.0587 79.8102C64.3921 79.3801 64.6927 79.0409 64.9607 78.7926L65.0195 78.7744C65.0457 78.7744 65.4509 78.9864 66.2352 79.4104C66.2613 79.4286 66.2744 79.4498 66.2744 79.474C66.2744 79.6255 66.1077 80.0434 65.7744 80.7279C65.8855 80.8672 65.9836 81.0247 66.0685 81.2003C67.0424 81.2912 67.5293 81.3851 67.5293 81.482ZM67.5293 72.1782V73.4502C67.5293 73.5471 67.0424 73.641 66.0685 73.7318C65.9901 73.8954 65.8921 74.0529 65.7744 74.2043C66.1077 74.8888 66.2744 75.3067 66.2744 75.4581C66.2744 75.4824 66.2613 75.5036 66.2352 75.5217C65.4378 75.9518 65.0326 76.1668 65.0195 76.1668C64.9672 76.1668 64.8169 76.0245 64.5685 75.7398C64.3202 75.4551 64.1502 75.2492 64.0587 75.122C63.928 75.1341 63.83 75.1401 63.7646 75.1401C63.6992 75.1401 63.6012 75.1341 63.4705 75.122C63.379 75.2492 63.209 75.4551 62.9607 75.7398C62.7123 76.0245 62.562 76.1668 62.5097 76.1668C62.4966 76.1668 62.0914 75.9518 61.294 75.5217C61.2679 75.5036 61.2548 75.4824 61.2548 75.4581C61.2548 75.3067 61.4215 74.8888 61.7548 74.2043C61.6372 74.0529 61.5391 73.8954 61.4607 73.7318C60.4868 73.641 59.9999 73.5471 59.9999 73.4502V72.1782C59.9999 72.0813 60.4868 71.9874 61.4607 71.8965C61.5457 71.7209 61.6437 71.5634 61.7548 71.4241C61.4215 70.7396 61.2548 70.3217 61.2548 70.1702C61.2548 70.146 61.2679 70.1248 61.294 70.1066C61.3202 70.0945 61.4345 70.0339 61.6372 69.9249C61.8398 69.8159 62.0326 69.7129 62.2156 69.616C62.3986 69.5191 62.4966 69.4706 62.5097 69.4706C62.562 69.4706 62.7123 69.6115 62.9607 69.8931C63.209 70.1748 63.379 70.3792 63.4705 70.5064C63.6012 70.4943 63.6992 70.4882 63.7646 70.4882C63.83 70.4882 63.928 70.4943 64.0587 70.5064C64.3921 70.0763 64.6927 69.7371 64.9607 69.4888L65.0195 69.4706C65.0457 69.4706 65.4509 69.6826 66.2352 70.1066C66.2613 70.1248 66.2744 70.146 66.2744 70.1702C66.2744 70.3217 66.1077 70.7396 65.7744 71.4241C65.8855 71.5634 65.9836 71.7209 66.0685 71.8965C67.0424 71.9874 67.5293 72.0813 67.5293 72.1782Z" fill="white"/>
</g>
<defs>
<filter id="filter0_d_25_2" x="0" y="20.614" width="120" height="120" filterUnits="userSpaceOnUse" color-interpolation-filters="sRGB">
<feFlood flood-opacity="0" result="BackgroundImageFix"/>
<feColorMatrix in="SourceAlpha" type="matrix" values="0 0 0 0 0 0 0 0 0 0 0 0 0 0 0 0 0 0 127 0" result="hardAlpha"/>
<feOffset dy="2"/>
<feGaussianBlur stdDeviation="2"/>
<feColorMatrix type="matrix" values="0 0 0 0 0 0 0 0 0 0 0 0 0 0 0 0 0 0 0.106063 0"/>
<feBlend mode="normal" in2="BackgroundImageFix" result="effect1_dropShadow_25_2"/>
<feBlend mode="normal" in="SourceGraphic" in2="effect1_dropShadow_25_2" result="shape"/>
</filter>
<linearGradient id="paint0_linear_25_2" x1="10227.8" y1="11222.6" x2="2883.18" y2="22.6131" gradientUnits="userSpaceOnUse">
<stop stop-color="#875A7B"/>
<stop offset="1" stop-color="#6B4862"/>
</linearGradient>
<clipPath id="clip0_25_2">
<rect width="120" height="140" fill="white"/>
</clipPath>
</defs>
</svg>
