<svg xmlns="http://www.w3.org/2000/svg" class="o_ignore_content position-absolute top-50 start-0 w-100 h-100 overflow-visible" xmlns:xlink="http://www.w3.org/1999/xlink" viewBox="0 0 572.96 17.69" preserveAspectRatio="xMidYMid meet"
    stroke-width="var(--text-highlight-width)"
    stroke="var(--text-highlight-color)"
    fill="none">
        <path d="m0,17.19c7.35-.06,14.57-15.52,21.92-15.58,7.35-.06,14.81,15.29,22.15,15.24,7.35-.05,14.59-15.5,21.94-15.55,7.35-.05,14.79,15.31,22.14,15.26,7.35-.04,14.61-15.49,21.95-15.53,7.35-.04,14.77,15.33,22.12,15.29,7.35-.04,14.62-15.47,21.97-15.5s14.75,15.34,22.1,15.32c7.35-.03,14.64-15.45,21.99-15.47s14.74,15.36,22.08,15.34S235.03.58,242.38.56c7.35-.01,14.72,15.38,22.07,15.37,7.35,0,14.68-15.42,22.03-15.42s14.7,15.39,22.05,15.39c7.35,0,14.7-15.4,22.04-15.4,7.35,0,14.68,15.41,22.03,15.42,7.35,0,14.71-15.38,22.06-15.37s14.67,15.43,22.01,15.44,14.73-15.37,22.08-15.35c7.35.02,14.65,15.44,21.99,15.47s14.75-15.35,22.1-15.32,14.63,15.46,21.98,15.49c7.35.03,14.77-15.33,22.11-15.3,7.35.04,14.61,15.48,21.96,15.52,7.35.04,14.78-15.32,22.13-15.27s14.59,15.49,21.94,15.54" stroke-linecap="round" stroke-linejoin="miter" vector-effect="non-scaling-stroke"/>
</svg>
