<svg xmlns="http://www.w3.org/2000/svg" class="o_ignore_content position-absolute top-50 start-0 w-100 h-100 overflow-visible" xmlns:xlink="http://www.w3.org/1999/xlink" viewBox="0 0 575.07 23.53" preserveAspectRatio="xMidYMid meet"
    stroke-width="var(--text-highlight-width)"
    stroke="var(--text-highlight-color)"
    fill="none">
          <path d="m.5,23.03c10.1-.18,53.8-15.6,64.6-15.82,10.79-.22-14.15,14.89-4.08,14.71,10.06-.19,57.97-15.82,68.73-16.04,10.75-.23-18.5,15.09-8.47,14.89,10.02-.19,62.16-16.03,72.88-16.26,10.71-.23-22.84,15.28-12.85,15.08,9.98-.2,66.35-16.25,77.05-16.48,10.68-.24-27.16,15.47-17.2,15.26,9.96-.21,66.07-13.4,76.74-13.64,10.66-.24-26.97,12.59-17.03,12.38,9.94-.21,70.3-13.61,80.95-13.86,10.65-.25-35.77,15.85-25.84,15.63,9.92-.22,79.04-16.89,89.68-17.15,10.64-.26-40.05,16.04-30.12,15.81,9.92-.23,83.27-15.14,93.91-15.4,10.64-.26-44.32,16.22-34.39,15.99,9.92-.23,87.57-17.33,98.22-17.6,10.64-.27-48.57,16.41-38.64,16.17" stroke-linecap="round" stroke-linejoin="miter" vector-effect="non-scaling-stroke"/>

</svg>
