<svg xmlns="http://www.w3.org/2000/svg" viewBox="0 0 960 960"><path d="M804 140Q711 91 611 72Q597 101 587 130Q479 112 373 130Q363 101 349 72Q249 91 156 140Q68 291 36 448Q5 593 17 751Q128 844 254 888Q283 841 304 793Q266 779 225 750Q237 740 244 733Q360 793 480 793Q601 793 716 733Q723 740 735 750Q701 775 656 794Q678 842 706 888Q832 844 943 751Q971 424 804 140ZM325 628Q291 628 266 596Q241 565 241 520Q241 476 266 444Q291 413 326 413Q360 413 385 444Q410 476 410 520Q410 565 385 596Q360 628 325 628ZM635 628Q601 628 576 596Q552 565 552 520Q552 476 576 444Q600 413 634 413Q669 413 694 444Q719 476 719 520Q719 565 694 596Q669 628 635 628Z"/></svg>
