<svg xmlns="http://www.w3.org/2000/svg" xmlns:xlink="http://www.w3.org/1999/xlink" width="70" height="70" viewBox="0 0 70 70"><defs><path id="a" d="M4 0h61c4 0 5 1 5 5v60c0 4-1 5-5 5H4c-3 0-4-1-4-5V5c0-4 1-5 4-5z"/><linearGradient id="c" x1="100%" x2="0%" y1="0%" y2="100%"><stop offset="0%" stop-color="#7CC098"/><stop offset="100%" stop-color="#5F8A71"/></linearGradient><path id="d" d="M53.373 32.454c.742 0 1.206.784.824 1.4-2.009 3.235-5.668 5.4-9.848 5.4-6.318 0-11.445-4.944-11.484-11.056C32.825 22.058 38.012 17 44.349 17c4.176 0 7.831 2.16 9.842 5.389.385.62-.07 1.41-.818 1.41h-8.386l-3.19 4.328 3.19 4.327h8.386zM39.684 39.64l-15.97 15.473c-1.994 1.931-5.226 1.931-7.22 0a4.837 4.837 0 0 1 0-6.994l15.971-15.472c1.289 3.183 3.932 5.744 7.219 6.993zm-16.39 10.74c0-1.024-.857-1.854-1.914-1.854s-1.914.83-1.914 1.854.857 1.854 1.914 1.854 1.914-.83 1.914-1.854z"/><path id="e" d="M53.373 30.454c.742 0 1.206.784.824 1.4-2.009 3.235-5.668 5.4-9.848 5.4-6.318 0-11.445-4.944-11.484-11.056C32.825 20.058 38.012 15 44.349 15c4.176 0 7.831 2.16 9.842 5.389.385.62-.07 1.41-.818 1.41h-8.386l-3.19 4.328 3.19 4.327h8.386zM39.684 37.64l-15.97 15.473c-1.994 1.931-5.226 1.931-7.22 0a4.837 4.837 0 0 1 0-6.994l15.971-15.472c1.289 3.183 3.932 5.744 7.219 6.993zm-16.39 10.74c0-1.024-.857-1.854-1.914-1.854s-1.914.83-1.914 1.854.857 1.854 1.914 1.854 1.914-.83 1.914-1.854z"/></defs><g fill="none" fill-rule="evenodd"><mask id="b" fill="#fff"><use xlink:href="#a"/></mask><g mask="url(#b)"><path fill="url(#c)" d="M0 0H70V70H0z"/><path fill="#FFF" fill-opacity=".383" d="M4 1h61c2.667 0 4.333.667 5 2V0H0v3c.667-1.333 2-2 4-2z"/><path fill="#393939" d="M4 69c-2 0-4-1-4-4V36.075l15.053-15.2 18.452.218 2.734 6.93v4.524L53.62 51.98 42.667 69H4z" opacity=".324"/><path fill="#000" fill-opacity=".383" d="M4 69h61c2.667 0 4.333-1 5-3v4H0v-4c.667 2 2 3 4 3z"/><use fill="#000" fill-rule="nonzero" opacity=".3" transform="matrix(-1 0 0 1 69.334 0)" xlink:href="#d"/><use fill="#FFF" fill-rule="nonzero" transform="matrix(-1 0 0 1 69.334 0)" xlink:href="#e"/></g></g></svg>