<svg width="70" height="70" viewBox="0 0 70 70" fill="none" xmlns="http://www.w3.org/2000/svg">
<path d="M60 29.0234C60 28.2877 59.2627 27.7929 58.6024 28.0854L30.6024 40.4885C30.2367 40.6505 30 41.0191 30 41.4265V50.9778C30 51.5423 30.4477 52 31 52H56C58.2091 52 60 50.1693 60 47.9111V29.0234Z" fill="#FBB945"/>
<path d="M52 24.018C52 23.2962 51.2812 22.8041 50.6236 23.0758L20.6236 35.4704C20.2466 35.6262 20 35.9988 20 36.4126V50.983C20 51.5447 20.4477 52 21 52H48C50.2091 52 52 50.1787 52 47.932V24.018Z" fill="#FC868B"/>
<path d="M52 31.0098L30.6024 40.4883C30.2367 40.6503 30 41.0188 30 41.4262V50.9775C30 51.542 30.4477 51.9997 31 51.9997H48C50.2091 51.9997 52 50.1784 52 47.9317V31.0098Z" fill="#F86126"/>
<path d="M42 19.0155C42 18.2955 41.2812 17.8046 40.6236 18.0756L10.6236 30.4393C10.2466 30.5947 10 30.9664 10 31.3792V50.9855C10 51.5458 10.4477 52 11 52H38C40.2091 52 42 50.1832 42 47.9422V19.0155Z" fill="#1AD3BB"/>
<path d="M42 26.6387L20.6236 35.4704C20.2466 35.6262 20 35.9988 20 36.4126V50.983C20 51.5447 20.4477 52 21 52H38C40.2091 52 42 50.1832 42 47.9421V26.6387Z" fill="#1A6F66"/>
</svg>
