<svg width="50" height="50" viewBox="0 0 50 50" xmlns="http://www.w3.org/2000/svg"><path d="M50 19.023c0-.735-.737-1.23-1.398-.938l-28 12.403a1.026 1.026 0 0 0-.602.939v9.55c0 .565.448 1.023 1 1.023h25c2.21 0 4-1.83 4-4.089V19.023Z" fill="var(--o-icons-yellow-pure, #FBB130)"/><path d="M50 19.023c0-.735-.737-1.23-1.398-.938l-28 12.403a1.026 1.026 0 0 0-.602.939v9.55c0 .565.448 1.023 1 1.023h25c2.21 0 4-1.83 4-4.089V19.023Z" fill="url(#o_icon_mrp__a)" fill-opacity=".2"/><path d="M42 14.018c0-.722-.719-1.214-1.376-.942l-30 12.394a1.017 1.017 0 0 0-.624.943v14.57c0 .562.448 1.017 1 1.017h27c2.21 0 4-1.821 4-4.068V14.018Z" fill="var(--o-icons-red-pure, #FC787D)"/><path d="M42 14.018c0-.722-.719-1.214-1.376-.942l-30 12.394a1.017 1.017 0 0 0-.624.943v14.57c0 .562.448 1.017 1 1.017h27c2.21 0 4-1.821 4-4.068V14.018Z" fill="url(#o_icon_mrp__b)" fill-opacity=".2"/><path d="m42 21.01-21.398 9.478a1.026 1.026 0 0 0-.602.939v9.55c0 .565.448 1.023 1 1.023h17c2.21 0 4-1.821 4-4.068V21.01Z" fill="var(--o-icons-red-yellow, #F85318)"/><path d="m42 21.01-21.398 9.478a1.026 1.026 0 0 0-.602.939v9.55c0 .565.448 1.023 1 1.023h17c2.21 0 4-1.821 4-4.068V21.01Z" fill="url(#o_icon_mrp__c)" fill-opacity=".2"/><path d="M32 9.015c0-.72-.719-1.21-1.376-.94l-30 12.364a1.015 1.015 0 0 0-.624.94v19.607C0 41.546.448 42 1 42h27c2.21 0 4-1.817 4-4.058V9.015Z" fill="var(--o-icons-teal-pure, #00CEB3)"/><path d="M32 9.015c0-.72-.719-1.21-1.376-.94l-30 12.364a1.015 1.015 0 0 0-.624.94v19.607C0 41.546.448 42 1 42h27c2.21 0 4-1.817 4-4.058V9.015Z" fill="url(#o_icon_mrp__d)" fill-opacity=".2"/><path d="M32 16.639 10.624 25.47a1.017 1.017 0 0 0-.624.943v14.57c0 .562.448 1.017 1 1.017h17c2.21 0 4-1.817 4-4.058V16.64Z" fill="var(--o-icons-red-teal, #006158)"/><path d="M32 16.639 10.624 25.47a1.017 1.017 0 0 0-.624.943v14.57c0 .562.448 1.017 1 1.017h17c2.21 0 4-1.817 4-4.058V16.64Z" fill="url(#o_icon_mrp__e)" fill-opacity=".2"/><defs><linearGradient id="o_icon_mrp__a" x1="20" y1="18" x2="54.164" y2="28.676" gradientUnits="userSpaceOnUse"><stop stop-color="#fff"/><stop offset="1" stop-color="#fff" stop-opacity="0"/></linearGradient><linearGradient id="o_icon_mrp__b" x1="10" y1="13" x2="47.171" y2="23.254" gradientUnits="userSpaceOnUse"><stop stop-color="#fff"/><stop offset="1" stop-color="#fff" stop-opacity="0"/></linearGradient><linearGradient id="o_icon_mrp__c" x1="20" y1="21.01" x2="45.733" y2="27.753" gradientUnits="userSpaceOnUse"><stop stop-color="#fff"/><stop offset="1" stop-color="#fff" stop-opacity="0"/></linearGradient><linearGradient id="o_icon_mrp__d" x1="0" y1="8" x2="37.902" y2="16.918" gradientUnits="userSpaceOnUse"><stop stop-color="#fff"/><stop offset="1" stop-color="#fff" stop-opacity="0"/></linearGradient><linearGradient id="o_icon_mrp__e" x1="10" y1="16.639" x2="36.265" y2="22.335" gradientUnits="userSpaceOnUse"><stop stop-color="#fff"/><stop offset="1" stop-color="#fff" stop-opacity="0"/></linearGradient></defs></svg>
