<svg width="50" height="50" viewBox="0 0 50 50" xmlns="http://www.w3.org/2000/svg"><path d="M30.576 14.907a4.029 4.029 0 0 1 5.697 0l8.547 8.547a4.029 4.029 0 0 1 0 5.698L29.151 44.82a4.029 4.029 0 0 1-5.698 0l-8.546-8.547a4.029 4.029 0 0 1 0-5.698l15.669-15.669Z" fill="var(--o-icons-yellow-pure, #FBB130)"/><path d="M30.576 14.907a4.029 4.029 0 0 1 5.697 0l8.547 8.547a4.029 4.029 0 0 1 0 5.698L29.151 44.82a4.029 4.029 0 0 1-5.698 0l-8.546-8.547a4.029 4.029 0 0 1 0-5.698l15.669-15.669Z" fill="url(#o_icon_hr_skills__a)" fill-opacity=".2"/><path d="M18.721 9.047a4.029 4.029 0 0 1 5.264-2.18l11.167 4.625a4.029 4.029 0 0 1 2.18 5.264l-8.48 20.473a4.029 4.029 0 0 1-5.263 2.18l-11.167-4.625a4.03 4.03 0 0 1-2.18-5.264l8.48-20.473Z" fill="var(--o-icons-purple-pure, #93407D)"/><path d="M18.721 9.047a4.029 4.029 0 0 1 5.264-2.18l11.167 4.625a4.029 4.029 0 0 1 2.18 5.264l-8.48 20.473a4.029 4.029 0 0 1-5.263 2.18l-11.167-4.625a4.03 4.03 0 0 1-2.18-5.264l8.48-20.473Z" fill="url(#o_icon_hr_skills__b)" fill-opacity=".2"/><path d="M37.527 16.16c-.048.2-.113.399-.194.595l-8.48 20.473a4.029 4.029 0 0 1-5.265 2.18l-9.236-3.825a4.03 4.03 0 0 1 .555-5.008l15.669-15.669a4.029 4.029 0 0 1 5.697 0l1.254 1.254Z" fill="var(--o-icons-purple-purple, #55103D)"/><path d="M37.527 16.16c-.048.2-.113.399-.194.595l-8.48 20.473a4.029 4.029 0 0 1-5.265 2.18l-9.236-3.825a4.03 4.03 0 0 1 .555-5.008l15.669-15.669a4.029 4.029 0 0 1 5.697 0l1.254 1.254Z" fill="url(#o_icon_hr_skills__c)" fill-opacity=".3"/><path d="M4 8.029A4.029 4.029 0 0 1 8.029 4h12.087a4.029 4.029 0 0 1 4.029 4.029v22.16a4.029 4.029 0 0 1-4.03 4.028H8.03A4.029 4.029 0 0 1 4 30.188V8.03Z" fill="var(--o-icons-teal-pure, #00CEB3)"/><path d="M4 8.029A4.029 4.029 0 0 1 8.029 4h12.087a4.029 4.029 0 0 1 4.029 4.029v22.16a4.029 4.029 0 0 1-4.03 4.028H8.03A4.029 4.029 0 0 1 4 30.188V8.03Z" fill="url(#o_icon_hr_skills__d)" fill-opacity=".2"/><path d="M23.973 6.861c.112.37.172.762.172 1.168v22.16a4.029 4.029 0 0 1-4.029 4.028h-8.658a4.03 4.03 0 0 1-1.217-4.698l8.48-20.472a4.029 4.029 0 0 1 5.252-2.186Z" fill="var(--o-icons-purple-teal, #003458)"/><path d="M23.973 6.861c.112.37.172.762.172 1.168v22.16a4.029 4.029 0 0 1-4.029 4.028h-8.658a4.03 4.03 0 0 1-1.217-4.698l8.48-20.472a4.029 4.029 0 0 1 5.252-2.186Z" fill="url(#o_icon_hr_skills__e)" fill-opacity=".3"/><defs><linearGradient id="o_icon_hr_skills__a" x1="13.727" y1="13.727" x2="51.696" y2="23.22" gradientUnits="userSpaceOnUse"><stop stop-color="#fff"/><stop offset="1" stop-color="#fff" stop-opacity="0"/></linearGradient><linearGradient id="o_icon_hr_skills__b" x1="9.934" y1="6.559" x2="43.119" y2="13.491" gradientUnits="userSpaceOnUse"><stop stop-color="#fff"/><stop offset="1" stop-color="#fff" stop-opacity="0"/></linearGradient><linearGradient id="o_icon_hr_skills__c" x1="13.727" y1="13.726" x2="41.996" y2="20.198" gradientUnits="userSpaceOnUse"><stop stop-color="#fff"/><stop offset="1" stop-color="#fff" stop-opacity="0"/></linearGradient><linearGradient id="o_icon_hr_skills__d" x1="4" y1="4" x2="28.501" y2="8.083" gradientUnits="userSpaceOnUse"><stop stop-color="#fff"/><stop offset="1" stop-color="#fff" stop-opacity="0"/></linearGradient><linearGradient id="o_icon_hr_skills__e" x1="9.934" y1="6.558" x2="27.409" y2="8.803" gradientUnits="userSpaceOnUse"><stop stop-color="#fff"/><stop offset="1" stop-color="#fff" stop-opacity="0"/></linearGradient></defs></svg>
