<svg width="70" height="70" viewBox="0 0 70 70" fill="none" xmlns="http://www.w3.org/2000/svg">
<path d="M40.5757 24.9076C42.1491 23.3342 44.7001 23.3342 46.2735 24.9076L54.8203 33.4544C56.3937 35.0278 56.3937 37.5788 54.8203 39.1522L39.1512 54.8213C37.5778 56.3947 35.0268 56.3947 33.4534 54.8213L24.9066 46.2745C23.3332 44.7011 23.3332 42.1501 24.9066 40.5767L40.5757 24.9076Z" fill="#FBB945"/>
<path d="M28.7214 19.0468C29.5729 16.991 31.9297 16.0148 33.9855 16.8663L45.1524 21.4918C47.2081 22.3433 48.1844 24.7002 47.3328 26.7559L38.8528 47.2285C38.0013 49.2843 35.6445 50.2605 33.5887 49.409L22.4218 44.7835C20.366 43.932 19.3898 41.5752 20.2413 39.5194L28.7214 19.0468Z" fill="#985184"/>
<path d="M47.5272 26.1603C47.4786 26.3604 47.4139 26.5594 47.3327 26.7556L38.8526 47.2282C38.0011 49.284 35.6443 50.2602 33.5885 49.4087L24.3525 45.583C23.3622 44.025 23.547 41.9353 24.9066 40.5757L40.5757 24.9066C42.1491 23.3332 44.7001 23.3332 46.2735 24.9066L47.5272 26.1603Z" fill="#712258"/>
<path d="M14 18.029C14 15.8038 15.8038 14 18.029 14H30.1159C32.3411 14 34.1449 15.8038 34.1449 18.029V40.1884C34.1449 42.4135 32.3411 44.2174 30.1159 44.2174H18.029C15.8038 44.2174 14 42.4135 14 40.1884V18.029Z" fill="#1AD3BB"/>
<path d="M33.9731 16.8612C34.0849 17.2309 34.145 17.623 34.145 18.0291V40.1885C34.145 42.4137 32.3411 44.2175 30.116 44.2175H21.4578C20.0835 43.1276 19.5368 41.2204 20.2413 39.5194L28.7214 19.0468C29.5712 16.9952 31.9202 16.0187 33.9731 16.8612Z" fill="#005E7A"/>
</svg>
