<svg version="1.0" xmlns="http://www.w3.org/2000/svg" viewBox="0 0 1144 1280">
<g transform="translate(0,1280) scale(0.1,-0.1)" fill="#000000" stroke="none">
<path d="M7166 11004 c-603 -901 -1094 -1639 -1092 -1641 1 -2 369 42 817 97
448 55 825 101 838 103 30 3 26 14 86 -278 131 -634 218 -1317 255 -2010 13
-246 13 -898 0 -1135 -71 -1262 -367 -2292 -883 -3065 -162 -242 -308 -418
-541 -650 -661 -658 -1465 -1094 -2581 -1400 -1069 -293 -2283 -471 -3660
-536 -132 -6 -242 -13 -244 -15 -6 -5 16 -190 30 -255 9 -43 13 -47 47 -53
108 -17 1148 -2 1627 24 2760 152 4778 866 6094 2155 506 496 887 1018 1216
1670 444 877 715 1860 819 2970 35 365 41 510 41 1000 0 581 -17 880 -76 1355
-19 158 -65 452 -74 477 -5 14 -54 7 730 104 363 44 662 83 665 85 2 3 0 8 -6
12 -6 4 -682 594 -1503 1312 -822 718 -1497 1306 -1501 1308 -4 2 -501 -734
-1104 -1634z"/>
</g>
</svg>
