<svg xmlns="http://www.w3.org/2000/svg" width="15" height="15" viewBox="0 0 15 15">
  <g fill="none" class="snippet_disabled">
    <path fill="#E16F2B" d="M7.5 0c1.36 0 2.616.335 3.765 1.006a7.466 7.466 0 0 1 2.73 2.73A7.337 7.337 0 0 1 15 7.5c0 1.36-.335 2.616-1.006 3.765a7.466 7.466 0 0 1-2.73 2.73A7.337 7.337 0 0 1 7.5 15a7.337 7.337 0 0 1-3.765-1.006 7.466 7.466 0 0 1-2.73-2.73A7.337 7.337 0 0 1 0 7.5c0-1.36.335-2.616 1.006-3.765a7.466 7.466 0 0 1 2.73-2.73A7.337 7.337 0 0 1 7.5 0z" class="path"/>
    <path fill="#E17D41" d="M7.5 1c1.18 0 2.267.29 3.263.872a6.47 6.47 0 0 1 2.365 2.365C13.71 5.233 14 6.321 14 7.5a6.35 6.35 0 0 1-.872 3.263 6.47 6.47 0 0 1-2.365 2.365A6.358 6.358 0 0 1 7.5 14a6.35 6.35 0 0 1-3.263-.872 6.47 6.47 0 0 1-2.365-2.365A6.358 6.358 0 0 1 1 7.5c0-1.18.29-2.267.872-3.263a6.47 6.47 0 0 1 2.365-2.365A6.358 6.358 0 0 1 7.5 1z" class="path"/>
    <path fill="#FFF" d="M8.51 10c.09 0 .167.03.23.093a.31.31 0 0 1 .093.23v1.855a.31.31 0 0 1-.093.23.313.313 0 0 1-.23.092h-2a.34.34 0 0 1-.24-.098.3.3 0 0 1-.103-.224v-1.856a.3.3 0 0 1 .104-.224.34.34 0 0 1 .24-.098zm.136-7.5c.097 0 .18.026.25.078A.19.19 0 0 1 9 2.754l-.188 6.064c-.006.065-.043.122-.109.171a.4.4 0 0 1-.245.073H6.531a.423.423 0 0 1-.25-.073c-.07-.049-.104-.106-.104-.17L6 2.753a.19.19 0 0 1 .104-.176.405.405 0 0 1 .25-.078z" class="shape"/>
  </g>
</svg>
