<svg width="50" height="50" viewBox="0 0 50 50" xmlns="http://www.w3.org/2000/svg"><path d="M43.105 4h.972V.818h1.108V0H42v.818h1.105V4Zm2.775 0h.858V1.453h.053L47.663 4h.555l.871-2.547h.056V4H50V0h-1.108l-.924 2.714h-.05L46.99 0h-1.11v4Z" fill="#D1D5DB"/><path d="M23.611 28.8c.253.16.471.2.76.2.256 0 .545-.078.763-.2l16.153-10.229v-2.709c0-.995-.47-1.91-1.233-2.389l-14.45-9.115A2.261 2.261 0 0 0 24.372 4c-.434 0-.833.121-1.233.358L8.692 13.474c-.763.479-1.234 1.393-1.234 2.388v18.273c0 .958.47 1.872 1.234 2.351l14.446 9.156c.4.236.8.358 1.233.358.437 0 .874-.121 1.234-.358l14.449-9.156c.763-.48 1.233-1.393 1.233-2.351v-2.706L25.134 41.66c-.181.118-.47.2-.763.2-.252 0-.507-.041-.76-.2l-7.696-4.898v-4.258l7.696 4.855c.253.158.508.24.76.24.292 0 .545-.082.763-.24l16.153-10.23V22.83L25.134 33.102a1.7 1.7 0 0 1-.763.2c-.289 0-.507-.041-.76-.2l-7.696-4.899v-4.298L23.61 28.8Z" fill="#164DFF"/></svg>
