<?xml version="1.0" encoding="UTF-8"?><svg id="b" xmlns="http://www.w3.org/2000/svg" viewBox="0 0 203.0829 243.7154"><g id="c"><g id="d"><polygon points="101.5414 238.2685 20.0382 190.7423 20.0382 101.8237 101.5414 148.9972 101.5414 238.2685" style="fill:#c1dbf6;"/><polygon points="101.5414 238.2685 183.044 191.095 183.044 101.8237 101.5414 148.9972 101.5414 238.2685" style="fill:#fff;"/><polygon points="183.044 101.8237 183.044 158.6371 111.3156 202.3055 101.5414 148.9972 183.044 101.8237" style="fill:#c1dbf6;"/><polygon points="20.8288 101.9859 101.5414 148.9972 101.5414 148.6905 101.5414 54.625 20.8288 101.9859" style="fill:#c1dbf6;"/><polygon points="101.5414 54.625 101.5414 148.9972 183.044 101.8237 101.5414 54.625" style="fill:#374874;"/><path d="m155.6613,118.1373l-23.2882-13.2862c-2.5378-1.4928-4.1799-4.1799-4.1799-7.1656h0c0-3.2842,3.5828-5.3742,6.4192-3.7321l24.6317,14.1819c2.09,1.1943,3.4335,3.5828,3.4335,5.9713h0c.1493,3.5828-3.8814,5.822-7.0163,4.0306Z" style="fill:#fff;"/><path d="m101.5414,54.625l81.5026,47.1988,14.3455,43.1314-14.3455,8.2813v37.8586l-81.5025,47.1734-81.5032-47.5262v-32.0983l-.0114-.007v-5.4006l-14.3455-8.2813,14.3455-43.1314,81.5146-47.1987m0-5.4541L17.6841,97.7379l-1.5591.894-.5672,1.7053L1.2123,143.4687l-1.2123,3.6449,3.3267,1.9204,11.9903,6.9217v5.3231l.0114.007v32.1621l2.3372,1.3629,83.8758,48.9045,83.8617-48.5441,2.3506-1.3604v-37.8551l11.9903-6.9217,3.3388-1.9273-1.2296-3.6538-14.4874-43.0493-.5615-1.6686-1.5184-.8911-83.7445-48.673h0Z" style="fill:#374874;"/><polygon points="183.044 101.8237 101.5414 54.625 20.2749 101.9673 20.0269 101.8237 5.6814 144.9551 87.3993 192.1287 101.5414 148.9972 24.9857 104.6936 101.5414 60.2454 178.3204 104.5575 101.5414 148.9972 115.6715 192.1287 197.3895 144.9551 183.044 101.8237" style="fill:#fff;"/><path d="m49.8818,64.403c-.6002,0-1.2004-.2277-1.6592-.6842l-24.5309-24.3699c-.9233-.9164-.9279-2.4078-.0115-3.33.9176-.9222,2.4101-.9268,3.33-.0115l24.5309,24.3699c.9233.9164.9279,2.4078.0115,3.33-.4599.4634-1.0659.6957-1.6707.6957Z" style="fill:#374874;"/><path d="m150.4164,64.403c-.6048,0-1.2108-.2323-1.6707-.6957-.9164-.9222-.9118-2.4135.0115-3.33l24.5309-24.3699c.9199-.9176,2.4124-.913,3.33.0115.9164.9222.9118,2.4135-.0115,3.33l-24.5309,24.3699c-.4588.4565-1.059.6842-1.6592.6842Z" style="fill:#374874;"/><path d="m101.5353,41.5659c-1.3005,0-2.3549-1.0544-2.3549-2.3549V2.3549c0-1.3005,1.0544-2.3549,2.3549-2.3549s2.3549,1.0544,2.3549,2.3549v36.8561c0,1.3005-1.0544,2.3549-2.3549,2.3549Z" style="fill:#374874;"/></g></g></svg>