<?xml version="1.0" encoding="UTF-8"?><svg id="b" xmlns="http://www.w3.org/2000/svg" xmlns:xlink="http://www.w3.org/1999/xlink" viewBox="0 0 280 280"><defs><clipPath id="ax"><path d="m155.0968,19.9087l8.8672,5.1531c-1.246-.7241-2.9713-.6223-4.8752.4769l-8.8673-5.1531c1.9039-1.0992,3.6292-1.201,4.8752-.4769Z" style="fill:none;"/></clipPath><clipPath id="ay"><path d="m129.8559,50.3026l-8.8673-5.1531c-.0123-4.3475,3.0462-9.645,6.8296-11.8293l8.8673,5.1531c-3.7834,2.1844-6.8419,7.4819-6.8296,11.8293Z" style="fill:none;"/></clipPath></defs><g id="aw"><g><g style="isolation:isolate;"><path d="m84.9067,270.0492l-8.8673-5.1531c-1.1523-.6697-1.8672-2.093-1.873-4.1152l8.8673,5.1531c.0057,2.0222.7206,3.4455,1.873,4.1151Z" style="fill:#fbdbd0;"/><path d="m202.69,7.5572l8.8673,5.1531c-1.1664-.6779-2.7814-.5822-4.561.4453l-8.8673-5.1531c1.7796-1.0275,3.3946-1.1231,4.561-.4453Z" style="fill:#fbdbd0;"/><polygon points="83.0337 265.9341 74.1665 260.781 73.6745 87.234 82.5417 92.3871 83.0337 265.9341" style="fill:#fbdbd0;"/><polygon points="88.939 81.316 80.0718 76.1629 198.129 8.0025 206.9962 13.1556 88.939 81.316" style="fill:#fbdbd0;"/><path d="m206.9962,13.1556c3.5344-2.0406,6.4195-.4058,6.431,3.6647l.492,173.5469c.0115,4.0705-2.8548,9.0352-6.3892,11.0758l-118.0572,68.1604c-3.5424,2.0452-6.4275.4012-6.4391-3.6693l-.492-173.5469c-.0115-4.0705,2.8549-9.0259,6.3973-11.0711L206.9962,13.1556Z" style="fill:#fff;"/><path d="m82.5417,92.3871l-8.8673-5.1531c-.0115-4.0705,2.8549-9.0259,6.3973-11.0711l8.8673,5.1531c-3.5424,2.0452-6.4088,7.0006-6.3973,11.0711Z" style="fill:#fbdbd0;"/></g><g style="isolation:isolate;"><g style="isolation:isolate;"><g style="clip-path:url(#ax);"><path d="m159.0888,25.5387l-8.8673-5.1531c1.9039-1.0992,3.6292-1.201,4.8752-.4769l8.8673,5.1531c-1.246-.7241-2.9713-.6223-4.8752.4769" style="fill:#c1dbf6;"/></g></g><polygon points="129.8807 59.0621 121.0134 53.9091 120.9886 45.1495 129.8559 50.3026 129.8807 59.0621" style="fill:#c1dbf6;"/><polygon points="136.6855 38.4733 127.8182 33.3202 150.2215 20.3856 159.0888 25.5387 136.6855 38.4733" style="fill:#c1dbf6;"/><g style="isolation:isolate;"><g style="clip-path:url(#ay);"><path d="m129.8559,50.3026l-8.8673-5.1531c-.0123-4.3475,3.0462-9.645,6.8296-11.8293l8.8673,5.1531c-3.7834,2.1844-6.8419,7.4819-6.8296,11.8293" style="fill:#c1dbf6;"/></g></g><path d="m159.0888,25.5387c3.7834-2.1844,6.8619-.43,6.8743,3.9174l.0248,8.7595,4.5385-2.6203c3.7674-2.1751,6.8378-.4254,6.8501,3.9038l.0189,6.6695c.0021.7274-.3852,1.4004-1.0152,1.7641l-54.7858,31.6306c-1.3514.7802-3.0411-.1922-3.0455-1.7526l-.0123-4.3404c-.0123-4.3292,3.0382-9.6128,6.8056-11.7879l4.5385-2.6203-.0248-8.7595c-.0123-4.3475,3.0462-9.645,6.8296-11.8293l22.4033-12.9346Z" style="fill:#c1dbf6;"/></g><path d="m201.0358,7.1119c.5868,0,1.1066.1328,1.5316.3838,0,0,8.9769,5.2085,8.9772,5.2085,0,0,0,0,0,0h0c1.1571.6655,1.877,2.0879,1.8827,4.1157l.2624,92.5566.2297-1.6968,17.4963-25.6675s.3992.0088,1.0211.0674l.005-.0073s.6036-1.8105,3.8631-2.2334c.2436-.0312.4697-.0459.6799-.0459.6467,0,1.1413.1377,1.5214.3438l2.3258-3.7383s.8253-.2358,1.9065-.2358c.9656,0,2.1353.188,3.1035.8999,2.4706,1.8164,2.0523,3.8633,2.0523,3.8633l-5.1667,7.0454c.6516,1.209.6396,2.0083.6396,2.0083l-29.6152,41.332.1674,59.0557c.0116,4.0703-2.8548,9.0352-6.3892,11.0757l-118.0572,68.1602c-1.032.5962-2.0074.8774-2.8725.8774-.6375,0-1.2151-.1528-1.711-.4458h0c-.0012,0-8.8499-5.1387-8.8499-5.1387-1.1523-.6699-1.8672-2.0933-1.8729-4.1152l-.4921-173.5474c-.0115-4.0703,2.8549-9.0254,6.3973-11.0708l40.9377-23.6353-.0209-7.3779c-.0124-4.3477,3.0461-9.645,6.8295-11.8291l22.4034-12.9346c1.1041-.6377,2.1481-.9399,3.0735-.9399.6702,0,1.2783.1587,1.8017.4629l8.8672,5.1528c-.0034-.002-.0072-.0029-.0107-.0049-.0005-.0005-.001-.0005-.0015-.001.0005.0005.001.0005.0015.001.6556.3779,1.1744.9893,1.5225,1.7979l32.6533-18.8521c1.0551-.6089,2.0521-.8911,2.9067-.8906m.0003-4h-.0001c-1.5931-.0005-3.2899.4932-4.9067,1.4263l-29.8667,17.2432c-.0543-.0347-.1088-.0693-.1641-.1025-.041-.0259-.0825-.0513-.1247-.0757l-8.8672-5.1528c-1.1302-.6567-2.4482-1.0039-3.8112-1.0044-1.6713,0-3.3786.4966-5.0744,1.4761l-22.4028,12.9341c-5.0501,2.9155-8.8461,9.4951-8.8295,15.3047l.0143,5.061-38.9312,22.4766c-4.8029,2.7734-8.413,9.0269-8.3973,14.5464l.4921,173.5474c.0095,3.3843,1.4174,6.1406,3.8625,7.562l4.4263,2.5703c2.2759,1.3218,3.585,2.082,4.4203,2.519l-.0209.0352c1.1097.6558,2.4048,1.002,3.7455,1.002,1.609,0,3.2485-.4756,4.8729-1.4136l118.0568-68.1597c4.7983-2.7705,8.4049-9.0264,8.3892-14.5513l-.1638-57.7646,28.863-40.2822c.4748-.6626.7358-1.4546.748-2.2695.0041-.2695-.0157-.7617-.1564-1.417l3.9095-5.3311c.3413-.4658.5779-.9995.6935-1.5649.4293-2.1011-.2565-5.4272-3.602-7.8867-1.4924-1.0972-3.3848-1.6772-5.4728-1.6772-1.5621,0-2.7773.3247-3.005.3896-.9544.2725-1.7734.8901-2.2978,1.7329l-.9468,1.522c-.2294.0127-.4624.0347-.697.0649-2.5431.3296-4.2152,1.2681-5.3002,2.248-.9587.228-1.8127.8052-2.3812,1.6392l-10.4612,15.3467-.222-78.2974c-.0096-3.3926-1.4241-6.1504-3.881-7.5674-.2045-.1187-8.9715-5.2056-8.9715-5.2056-1.0138-.5991-2.2468-.9238-3.5387-.9238h0Z" style="fill:#374874;"/><path d="m240.8319,76.3987s2.9577-.8451,5.0099.664c2.4706,1.8166,2.0523,3.8631,2.0523,3.8631l-5.9757,8.1487-6.1568-4.5271,5.0703-8.1487Z" style="fill:#fff;"/><path d="m165.5017,178.7103l65.914-96.698s2.1056.0293,4.433.7028c1.206.349,2.4715.8709,3.5346,1.6513,4.0383,2.9645,3.9838,5.6136,3.9838,5.6136l-66.2762,95.9737-11.5893,6.519-1.9919-1.509,1.9919-12.2532Z" style="fill:#c1dbf6;"/><path d="m219.8867,109.2024l19.8587-27.1901s-.1811-2.5955-3.4406-2.173c-3.2595.4225-3.8631,2.2333-3.8631,2.2333l-17.7461,25.0497s-2.3541,3.3753,5.191,2.08Z" style="fill:#fff;"/><path d="m163.6908,189.9676l-.7838,3.4914c-.0768.3421.3027.6033.5948.4093l2.875-1.9088s-.6201-1.052-.9356-1.2978c-.3714-.2893-1.7505-.6941-1.7505-.6941Z" style="fill:#ececec;"/></g><g><polygon points="138.8269 100.666 115.2305 139.8727 107.3576 135.3796 138.8269 100.666" style="fill:#fff;"/><g style="isolation:isolate;"><path d="m146.859,88.5339c.7569-.437,1.5141-.5281,2.0748-.1665,1.0763.6938,1.0247,2.7888-.1146,4.6809l-31.6856,52.6479c-.5453.9085-1.2428,1.6054-1.9407,2.0083-.7277.4201-1.4558.5203-2.0116.2073l-10.5818-6.0304c-1.1082-.6388-1.114-2.7002-.0131-4.6143.5537-.9555,1.279-1.6921,2.0053-2.1114s1.4534-.5214,2.0107-.2072l.7553.4311,7.8729,4.4931,23.5964-39.2067,6.0969-10.1306c.5428-.9046,1.2389-1.5995,1.9352-2.0015Z" style="fill:#374874;"/><path d="m153.0003,72.3292c.7853-.4534,1.4258-.0956,1.4284.8067l.1782,62.8443c.0025.8948-.6339,1.9969-1.4192,2.4503l-54.6846,31.5722c-.7853.4534-1.4195.0848-1.422-.81l-.1782-62.8443c-.0026-.9023.6275-1.9937,1.4128-2.4471l54.6846-31.5722Zm.1828,64.4731l-.1782-62.8443-54.6846,31.5722.1782,62.8443,54.6846-31.5722" style="fill:#374874;"/><path d="m98.3203,105.5301l54.6846-31.5722.1782,62.8443-54.6846,31.5722-.1782-62.8443Zm50.4988-12.4819c1.1394-1.8921,1.191-3.9871.1146-4.6809-.5607-.3616-1.3178-.2705-2.0748.1665-.6963.402-1.3924,1.0969-1.9352,2.0016l-6.0969,10.1306-31.4693,34.7136-.7553-.431c-.5573-.3142-1.2844-.2121-2.0107.2072s-1.4516,1.1558-2.0053,2.1114c-1.101,1.9142-1.0951,3.9756.0131,4.6143l10.5818,6.0304c.5558.313,1.2839.2128,2.0116-.2073.6979-.4029,1.3954-1.0999,1.9407-2.0083l31.6856-52.6479" style="fill:#fff;"/></g></g><g><path d="m100.0484,179.4833l54.691-31.5758.1782,62.8439-54.691,31.5758-.1782-62.8439Zm50.4987-12.4819c1.1394-1.8925,1.191-3.9871.1146-4.6809-.5606-.3617-1.3161-.2716-2.0723.1651-.6956.4016-1.3918,1.0962-1.9377,2.003l-6.0969,10.1301-31.4693,34.7136-.7553-.4311c-.5541-.3156-1.2812-.2135-2.0075.2058s-1.4516,1.1558-2.0021,2.1091c-1.1073,1.9179-1.1015,3.9797.0131,4.6148l10.5754,6.0341c.5558.313,1.2839.2124,2.0116-.2077.6979-.4029,1.3954-1.0999,1.9407-2.0079l31.6856-52.6479" style="fill:#fff;"/><path d="m154.7347,146.2787c.7853-.4534,1.4194-.0919,1.422.8104l.1782,62.8439c.0025.8952-.6274,1.9937-1.4128,2.4471l-54.691,31.5759c-.7789.4497-1.4195.0847-1.422-.8104l-.1782-62.8439c-.0026-.9023.6338-1.9973,1.4128-2.447l54.691-31.5759Zm.1828,64.4726l-.1782-62.8439-54.691,31.5759.1782,62.8439,54.691-31.5759" style="fill:#374874;"/><path d="m148.5894,162.4855c.7562-.4366,1.5117-.5267,2.0723-.1651,1.0764.6938,1.0247,2.7884-.1146,4.6809l-31.6856,52.6479c-.5453.9081-1.2428,1.605-1.9407,2.0079-.7277.4201-1.4558.5207-2.0116.2077l-10.5754-6.0341c-1.1146-.6351-1.1204-2.6969-.0131-4.6147.5505-.9533,1.2758-1.6898,2.0021-2.1091s1.4534-.5214,2.0075-.2058l.7553.4311,7.8729,4.4935,23.5964-39.2071,6.0969-10.1302c.5459-.9068,1.2421-1.6014,1.9377-2.003Z" style="fill:#374874;"/><polygon points="140.5549 174.6187 116.9585 213.8258 109.0856 209.3323 140.5549 174.6187" style="fill:#fff;"/></g></g></svg>