<svg id="ehLJC65DH021" xmlns="http://www.w3.org/2000/svg" xmlns:xlink="http://www.w3.org/1999/xlink" viewBox="0 0 280 220" shape-rendering="geometricPrecision" text-rendering="geometricPrecision">
<style><![CDATA[
#ehLJC65DH0233_to {animation: ehLJC65DH0233_to__to 6300ms linear 1 normal forwards}@keyframes ehLJC65DH0233_to__to { 0% {transform: translate(40.708263px,221.555573px)} 6.349206% {transform: translate(40.708263px,221.555573px)} 7.936508% {transform: translate(77.243603px,228.644236px)} 9.52381% {transform: translate(83.948707px,218.43696px)} 14.285714% {transform: translate(132.622403px,135.864352px)} 100% {transform: translate(132.622403px,135.864352px)}} #ehLJC65DH0234_to {animation: ehLJC65DH0234_to__to 6300ms linear 1 normal forwards}@keyframes ehLJC65DH0234_to__to { 0% {offset-distance: 0%} 6.349206% {offset-distance: 0%} 7.936508% {offset-distance: 15.254728%} 9.52381% {offset-distance: 17.975347%} 11.111111% {offset-distance: 41.531645%} 14.285714% {offset-distance: 100%} 100% {offset-distance: 100%}} #ehLJC65DH0234 {animation: ehLJC65DH0234_c_o 6300ms linear 1 normal forwards}@keyframes ehLJC65DH0234_c_o { 0% {opacity: 0.5} 6.349206% {opacity: 0.5} 14.285714% {opacity: 1} 100% {opacity: 1}} #ehLJC65DH0235_to {animation: ehLJC65DH0235_to__to 6300ms linear 1 normal forwards}@keyframes ehLJC65DH0235_to__to { 0% {offset-distance: 0%;animation-timing-function: cubic-bezier(0,0,0.58,1)} 3.174603% {offset-distance: 0%;animation-timing-function: cubic-bezier(0,0,0.58,1)} 6.349206% {offset-distance: 19.237652%} 8.253968% {offset-distance: 28.606232%} 9.84127% {offset-distance: 28.606232%} 11.111111% {offset-distance: 64.552276%} 15.873016% {offset-distance: 64.552276%} 19.047619% {offset-distance: 100%} 100% {offset-distance: 100%}} #ehLJC65DH0235_tr {animation: ehLJC65DH0235_tr__tr 6300ms linear 1 normal forwards}@keyframes ehLJC65DH0235_tr__tr { 0% {transform: rotate(7217.43444deg);animation-timing-function: cubic-bezier(0,0,0.58,1)} 3.174603% {transform: rotate(7217.43444deg);animation-timing-function: cubic-bezier(0,0,0.58,1)} 4.761905% {transform: rotate(7243.789991deg)} 6.349206% {transform: rotate(7243.789991deg)} 7.936508% {transform: rotate(7211.010101deg)} 9.52381% {transform: rotate(7211.010101deg)} 11.111111% {transform: rotate(7259.905792deg)} 15.873016% {transform: rotate(7259.905792deg)} 19.047619% {transform: rotate(7217.43444deg)} 100% {transform: rotate(7217.43444deg)}}
]]></style>
<g transform="matrix(.726223 0 0 0.726223 25.717122 13.518461)"><g><g style="isolation:isolate"><path d="M84.9067,270.0492l-8.8673-5.1531c-1.1523-.6697-1.8672-2.093-1.873-4.1152l8.8673,5.1531c.0057,2.0222.7206,3.4455,1.873,4.1151Z" fill="#fbdbd0"/><path d="M202.69,7.5572l8.8673,5.1531c-1.1664-.6779-2.7814-.5822-4.561.4453L198.129,8.0025c1.7796-1.0275,3.3946-1.1231,4.561-.4453Z" fill="#fbdbd0"/><polygon points="83.0337,265.9341 74.1665,260.781 73.6745,87.234 82.5417,92.3871 83.0337,265.9341" fill="#fbdbd0"/><polygon points="88.939,81.316 80.0718,76.1629 198.129,8.0025 206.9962,13.1556 88.939,81.316" fill="#fbdbd0"/><path d="M206.9962,13.1556c3.5344-2.0406,6.4195-.4058,6.431,3.6647l.492,173.5469c.0115,4.0705-2.8548,9.0352-6.3892,11.0758L89.4728,269.6034c-3.5424,2.0452-6.4275.4012-6.4391-3.6693l-.492-173.5469c-.0115-4.0705,2.8549-9.0259,6.3973-11.0711L206.9962,13.1556Z" fill="#fff"/><path d="M82.5417,92.3871L73.6744,87.234c-.0115-4.0705,2.8549-9.0259,6.3973-11.0711L88.939,81.316c-3.5424,2.0452-6.4088,7.0006-6.3973,11.0711Z" fill="#fbdbd0"/></g><g style="isolation:isolate"><g style="isolation:isolate"><g clip-path="url(#ehLJC65DH0216)"><g><path d="M159.0888,25.5387l-8.8673-5.1531c1.9039-1.0992,3.6292-1.201,4.8752-.4769l8.8673,5.1531c-1.246-.7241-2.9713-.6223-4.8752.4769" fill="#c1dbf6"/></g><clipPath id="ehLJC65DH0216"><path d="M155.0968,19.9087l8.8672,5.1531c-1.246-.7241-2.9713-.6223-4.8752.4769l-8.8673-5.1531c1.9039-1.0992,3.6292-1.201,4.8752-.4769Z" fill="none"/></clipPath></g></g><polygon points="129.8807,59.0621 121.0134,53.9091 120.9886,45.1495 129.8559,50.3026 129.8807,59.0621" fill="#c1dbf6"/><polygon points="136.6855,38.4733 127.8182,33.3202 150.2215,20.3856 159.0888,25.5387 136.6855,38.4733" fill="#c1dbf6"/><g style="isolation:isolate"><g clip-path="url(#ehLJC65DH0224)"><g><path d="M129.8559,50.3026l-8.8673-5.1531c-.0123-4.3475,3.0462-9.645,6.8296-11.8293l8.8673,5.1531c-3.7834,2.1844-6.8419,7.4819-6.8296,11.8293" fill="#c1dbf6"/></g><clipPath id="ehLJC65DH0224"><path d="M129.8559,50.3026l-8.8673-5.1531c-.0123-4.3475,3.0462-9.645,6.8296-11.8293l8.8673,5.1531c-3.7834,2.1844-6.8419,7.4819-6.8296,11.8293Z" fill="none"/></clipPath></g></g><path d="M159.0888,25.5387c3.7834-2.1844,6.8619-.43,6.8743,3.9174l.0248,8.7595l4.5385-2.6203c3.7674-2.1751,6.8378-.4254,6.8501,3.9038l.0189,6.6695c.0021.7274-.3852,1.4004-1.0152,1.7641L121.5944,79.5633c-1.3514.7802-3.0411-.1922-3.0455-1.7526l-.0123-4.3404c-.0123-4.3292,3.0382-9.6128,6.8056-11.7879l4.5385-2.6203-.0248-8.7595c-.0123-4.3475,3.0462-9.645,6.8296-11.8293l22.4033-12.9346Z" fill="#c1dbf6"/></g><path d="M201.0358,7.1119c.5868,0,1.1066.1328,1.5316.3838c0,0,8.9769,5.2085,8.9772,5.2085c0,0,0,0,0,0v0c1.1571.6655,1.877,2.0879,1.8827,4.1157l.2624,92.5566.2297-1.6968-.1674,23.6319.1674,59.0557c.0116,4.0703-2.8548,9.0352-6.3892,11.0757L89.473,269.6032c-1.032.5962-2.0074.8774-2.8725.8774-.6375,0-1.2151-.1528-1.711-.4458v0c-.0012,0-8.8499-5.1387-8.8499-5.1387-1.1523-.6699-1.8672-2.0933-1.8729-4.1152L73.6746,87.2335c-.0115-4.0703,2.8549-9.0254,6.3973-11.0708l40.9377-23.6353-.0209-7.3779c-.0124-4.3477,3.0461-9.645,6.8295-11.8291l22.4034-12.9346c1.1041-.6377,2.1481-.9399,3.0735-.9399.6702,0,1.2783.1587,1.8017.4629l8.8672,5.1528c-.0034-.002-.0072-.0029-.0107-.0049-.0005-.0005-.001-.0005-.0015-.001.0005.0005.001.0005.0015.001.6556.3779,1.1744.9893,1.5225,1.7979L198.1291,8.0025c1.0551-.6089,2.0521-.8911,2.9067-.8906m.0003-4h-.0001c-1.5931-.0005-3.2899.4932-4.9067,1.4263L166.2626,21.7814c-.0543-.0347-.1088-.0693-.1641-.1025-.041-.0259-.0825-.0513-.1247-.0757l-8.8672-5.1528c-1.1302-.6567-2.4482-1.0039-3.8112-1.0044-1.6713,0-3.3786.4966-5.0744,1.4761L125.8182,29.8562c-5.0501,2.9155-8.8461,9.4951-8.8295,15.3047l.0143,5.061L78.0718,72.6985c-4.8029,2.7734-8.413,9.0269-8.3973,14.5464l.4921,173.5474c.0095,3.3843,1.4174,6.1406,3.8625,7.562l4.4263,2.5703c2.2759,1.3218,3.585,2.082,4.4203,2.519l-.0209.0352c1.1097.6558,2.4048,1.002,3.7455,1.002c1.609,0,3.2485-.4756,4.8729-1.4136L209.53,204.9075c4.7983-2.7705,8.4049-9.0264,8.3892-14.5513l-.1638-57.7646-.1064-37.4853-.222-78.2974c-.0096-3.3926-1.4241-6.1504-3.881-7.5674-.2045-.1187-8.9715-5.2056-8.9715-5.2056-1.0138-.5991-2.2468-.9238-3.5387-.9238v0Z" fill="#374874"/></g><g><path d="M200.531966,66.389409c1.426337-.823509,2.57805-.166918,2.582772,1.471925l.323664,114.143078c.004541,1.625948-1.139544,3.621148-2.566062,4.444656l-99.335004,57.351158c-1.414713.816788-2.578231.15384-2.582772-1.471926L98.6309,128.185222c-.004722-1.638843,1.151168-3.627686,2.566062-4.444474L200.531966,66.38959Zm.332019,117.101278l-.323664-114.143078-99.335004,57.351157.323664,114.143078l99.335004-57.351157" transform="translate(1.882949-11.712263)" fill="#374874"/><g mask="url(#ehLJC65DH0232)"><path style="isolation:isolate" d="M185.382784,113.866345c1.373483-.792994,2.745694-.956642,3.763909-.29987c1.95506,1.260146,1.861158,5.064558-.208147,8.501897L131.38814,217.692503c-.990425,1.649378-2.257291,2.915154-3.524884,3.646939-1.321718.763026-2.644163.945745-3.653659.377245L105.001548,210.75698c-2.024443-1.15353-2.034978-4.898367-.023794-8.381658.999871-1.731474,2.31723-3.069176,3.636405-3.830749s2.639803-.947016,3.646213-.373793l1.371847.783005l14.299511,8.161523l42.85803-71.21167l11.073771-18.399435c.991515-1.647016,2.25602-2.908615,3.519435-3.638039Z" transform="translate(3.882949-13.160476)" fill="#374874"/><mask id="ehLJC65DH0232" mask-type="luminance" x="-150%" y="-150%" height="400%" width="400%"><g id="ehLJC65DH0233_to" transform="translate(40.708263,221.555573)"><path d="M0,0h97.615151v35.936169c15.200495,4.506138,12.074533,12.085024,0,15.553138v67.240644h-97.615151L0,0Z" transform="scale(1.159569,1.410487) translate(-50.400241,-64.314561)" opacity="0.5" fill="#fff" stroke-width="0"/></g><g id="ehLJC65DH0234_to" style="offset-path:path('M27.816465,218.648707L48.878002,221.434557L52.583106,222.227279Q63.381835,222.942955,79.478639,204.77984C90.6842,190.43971,103.781004,161.276595,124.269705,136.884962');offset-rotate:0deg"><path id="ehLJC65DH0234" d="M0,0h97.615151v35.936169c15.200495,4.506138,12.074533,12.085024,0,15.553138v67.240644h-97.615151L0,0Z" transform="scale(1.159569,1.410487) translate(-39.282494,-62.253666)" opacity="0.5" fill="#fff" stroke-width="0"/></g></mask></g></g><g id="ehLJC65DH0235_to" style="offset-path:path('M165.924956,211.879051L165.924956,211.879051L109.085502,185.9537C109.085502,185.9537,135.271091,201.443,135.271091,201.443C135.271091,201.443,135.271091,201.443,135.271091,201.443C135.271091,201.443,193.029643,100.00187,193.029643,100.00187Q193.029643,100.00187,193.029643,100.00187Q193.029643,100.00187,165.924956,211.879051');offset-rotate:0deg"><g id="ehLJC65DH0235_tr" transform="rotate(7217.43444)"><g transform="translate(-160,-200)"><path d="M240.8319,76.3987c0,0,2.9577-.8451,5.0099.664c2.4706,1.8166,2.0523,3.8631,2.0523,3.8631l-5.16498,7.04317c.65442,1.21177.63798,2.01103.63798,2.01103l-66.2762,95.9737-10.92014,6.1426-2.66896,1.772c-.2921.194-.6716-.0672-.5948-.4093l.7143-3.18183l1.8803-11.56667.0001-.0002l65.914-96.698c0,0,.39102.00544,1.02229.06553l.00371-.00523c0,0,.6036-1.8108,3.8631-2.2333.99234-.12863,1.69935.02247,2.20279.2949l2.32431-3.7355Z" fill="none" stroke="#374874" stroke-width="6" stroke-linejoin="round" stroke-dashoffset="1"/><path d="M240.8319,76.3987c0,0,2.9577-.8451,5.0099.664c2.4706,1.8166,2.0523,3.8631,2.0523,3.8631l-5.9757,8.1487-6.1568-4.5271l5.0703-8.1487Z" fill="#fff"/><path d="M165.5017,178.7103l65.914-96.698c0,0,2.1056.0293,4.433.7028c1.206.349,2.4715.8709,3.5346,1.6513c4.0383,2.9645,3.9838,5.6136,3.9838,5.6136l-66.2762,95.9737-11.5893,6.519-1.9919-1.509l1.9919-12.2532Z" fill="#c1dbf6"/><path d="M219.8867,109.2024l19.8587-27.1901c0,0-.1811-2.5955-3.4406-2.173s-3.8631,2.2333-3.8631,2.2333l-17.7461,25.0497c0,0-2.3541,3.3753,5.191,2.08Z" fill="#fff"/><path d="M163.6908,189.9676l-.7838,3.4914c-.0768.3421.3027.6033.5948.4093l2.875-1.9088c0,0-.6201-1.052-.9356-1.2978-.3714-.2893-1.7505-.6941-1.7505-.6941Z" fill="#ececec"/></g></g></g></g></svg>
