<svg width="50" height="50" viewBox="0 0 50 50" xmlns="http://www.w3.org/2000/svg"><path fill-rule="evenodd" clip-rule="evenodd" d="M21.897 17H5v-4a4 4 0 0 1 4-4h15.837l7.347 8H46a4 4 0 0 1 4 4v4H29.244l-7.347-8Z" fill="#FC868B"/><path fill-rule="evenodd" clip-rule="evenodd" d="M16.772 33H0v-4a4 4 0 0 1 4-4h15.962l7.347 9H41a4 4 0 0 1 4 4v4H24.12l-7.348-9Z" fill="#1AD3BB"/><path fill-rule="evenodd" clip-rule="evenodd" d="M31.225 25H50v-4a4 4 0 0 0-4-4H27.959l-8.164 8H4a4 4 0 0 0-4 4v4h23.062l8.163-8Z" fill="#985184"/><path d="M24.968 31.132 19.962 25H4a4.005 4.005 0 0 0-4 4v4h23.062l1.906-1.868Z" fill="#005E7A"/></svg>
