<svg xmlns="http://www.w3.org/2000/svg" xmlns:xlink="http://www.w3.org/1999/xlink" width="70" height="70" viewBox="0 0 70 70"><defs><path id="a" d="M4 0h61c4 0 5 1 5 5v60c0 4-1 5-5 5H4c-3 0-4-1-4-5V5c0-4 1-5 4-5z"/><linearGradient id="c" x1="100%" x2="0%" y1="0%" y2="100%"><stop offset="0%" stop-color="#CDC484"/><stop offset="100%" stop-color="#B5AA59"/></linearGradient></defs><g fill="none" fill-rule="evenodd"><mask id="b" fill="#fff"><use xlink:href="#a"/></mask><g mask="url(#b)"><path fill="url(#c)" d="M0 0H70V70H0z"/><path fill="#FFF" fill-opacity=".383" d="M4 1h61c2.667 0 4.333.667 5 2V0H0v3c.667-1.333 2-2 4-2z"/><path fill="#393939" d="M3.986 70C.584 70 0 68 0 65V31.978L6 26l8-5h32l18 6-13 10v14L38.632 70H3.986z" opacity=".324"/><path fill="#000" fill-opacity=".383" d="M4 69h61c2.667 0 4.333-1 5-3v4H0v-4c.667 2 2 3 4 3z"/><path fill="#000" d="M18 33L6.016 29.586c-1.344-.39-1.413-1.25-.207-2.576l7.28-8.007c.607-.669 1.582-.82 2.925-.454L25 21h19l9.35-2.4c1.1-.4 1.959-.26 2.576.419l7.078 7.786c1.33 1.463 1.327 2.383-.01 2.758L51 33v20c0 .667-.333 1-1 1H19c-.667 0-1-.333-1-1V33zm7.367-10l-6.414 10h31L43.54 23H25.367zm.323 13.954v1.895H23.73v1.896h1.959v8.529h1.958v-8.53h1.959V38.85h-1.959v-1.895H25.69zm7.834 0v7.581h-1.958v1.896h1.958v2.843h1.959V46.43h1.959v-1.896h-1.96v-7.581h-1.958zm8.814 0v5.686H40.38v1.895h1.96v4.739h1.958v-4.739h1.958V42.64h-1.958v-5.686h-1.959z" opacity=".3"/><path fill="#FFF" d="M18 31L6.016 27.586c-1.344-.39-1.413-1.25-.207-2.576l7.28-8.007c.607-.669 1.582-.82 2.925-.454L25 20h19l9.35-3.4c1.1-.4 1.959-.26 2.576.419l7.078 7.786c1.33 1.463 1.327 2.383-.01 2.758L51 31v20c0 .667-.333 1-1 1H19c-.667 0-1-.333-1-1V31zm7.367-10l-6.414 10h31L43.54 21H25.367zm.323 13.954v1.895H23.73v1.896h1.959v8.529h1.958v-8.53h1.959V36.85h-1.959v-1.895H25.69zm7.834 0v7.581h-1.958v1.896h1.958v2.843h1.959V44.43h1.959v-1.896h-1.96v-7.581h-1.958zm8.814 0v5.686H40.38v1.895h1.96v4.739h1.958v-4.739h1.958V40.64h-1.958v-5.686h-1.959z"/></g></g></svg>