<svg xmlns="http://www.w3.org/2000/svg" xmlns:xlink="http://www.w3.org/1999/xlink" width="70" height="70" viewBox="0 0 70 70"><defs><path id="a" d="M4 0h61c4 0 5 1 5 5v60c0 4-1 5-5 5H4c-3 0-4-1-4-5V5c0-4 1-5 4-5z"/><linearGradient id="c" x1="100%" x2="0%" y1="0%" y2="98.616%"><stop offset="0%" stop-color="#797C79"/><stop offset="100%" stop-color="#545554"/></linearGradient><path id="d" d="M19.25 34.621C20.983 35.541 22.9 36 25 36c4 0 7-1.667 9-5h15.036v-3.212a.342.342 0 0 0-.339-.343H35c.347-.502.423-1.416.228-2.742h13.808c1.5 0 2.714 1.228 2.714 2.742v20.11c0 1.514-1.213 2.742-2.714 2.742H21.964c-1.5 0-2.714-1.228-2.714-2.742V34.62zm29.447 12.934a.342.342 0 0 0 .339-.343V37.5H21.964v9.712c0 .188.152.343.339.343h26.394zm-18.614-5.713v2.285a.683.683 0 0 1-.677.685h-4.062a.683.683 0 0 1-.677-.685v-2.285c0-.377.304-.686.677-.686h4.062c.373 0 .677.309.677.686zm10.834 0v2.285a.683.683 0 0 1-.677.685h-7.674a.683.683 0 0 1-.677-.685v-2.285c0-.377.305-.686.677-.686h7.674c.372 0 .677.309.677.686zM22.874 19.77c0 2.517 8.146 1.879 8.146 6.663 0 2.292-1.783 4.25-4.681 4.657v1.897c0 .265-.237.48-.53.48h-1.763c-.292 0-.53-.215-.53-.48v-1.928c-1.74-.268-3.293-.997-4.353-1.917a.447.447 0 0 1-.058-.634l1.34-1.625a.566.566 0 0 1 .757-.086c1.098.8 2.517 1.435 3.873 1.435 1.58 0 2.299-.853 2.299-1.646 0-2.342-8.147-1.834-8.147-6.772 0-2.107 1.705-3.811 4.29-4.342V13.48c0-.265.237-.48.53-.48h1.763c.292 0 .529.215.529.48v1.888c1.418.149 2.954.653 4.025 1.511.184.148.23.391.113.587l-1.038 1.74c-.152.255-.516.33-.775.161-.985-.642-2.193-1.132-3.371-1.132-1.47 0-2.42.603-2.42 1.535z"/><path id="e" d="M19.25 32.621C20.983 33.541 22.9 34 25 34c4 0 7-1.667 9-5h15.036v-3.212a.342.342 0 0 0-.339-.343H35c.347-.502.423-1.416.228-2.742h13.808c1.5 0 2.714 1.228 2.714 2.742v20.11c0 1.514-1.213 2.742-2.714 2.742H21.964c-1.5 0-2.714-1.228-2.714-2.742V32.62zm29.447 12.934a.342.342 0 0 0 .339-.343V35.5H21.964v9.712c0 .188.152.343.339.343h26.394zm-18.614-5.713v2.285a.683.683 0 0 1-.677.685h-4.062a.683.683 0 0 1-.677-.685v-2.285c0-.377.304-.686.677-.686h4.062c.373 0 .677.309.677.686zm10.834 0v2.285a.683.683 0 0 1-.677.685h-7.674a.683.683 0 0 1-.677-.685v-2.285c0-.377.305-.686.677-.686h7.674c.372 0 .677.309.677.686zM22.874 17.77c0 2.517 8.146 1.879 8.146 6.663 0 2.292-1.783 4.25-4.681 4.657v1.897c0 .265-.237.48-.53.48h-1.763c-.292 0-.53-.215-.53-.48v-1.928c-1.74-.268-3.293-.997-4.353-1.917a.447.447 0 0 1-.058-.634l1.34-1.625a.566.566 0 0 1 .757-.086c1.098.8 2.517 1.435 3.873 1.435 1.58 0 2.299-.853 2.299-1.646 0-2.342-8.147-1.834-8.147-6.772 0-2.107 1.705-3.811 4.29-4.342V11.48c0-.265.237-.48.53-.48h1.763c.292 0 .529.215.529.48v1.888c1.418.149 2.954.653 4.025 1.511.184.148.23.391.113.587l-1.038 1.74c-.152.255-.516.33-.775.161-.985-.642-2.193-1.132-3.371-1.132-1.47 0-2.42.603-2.42 1.535z"/></defs><g fill="none" fill-rule="evenodd"><mask id="b" fill="#fff"><use xlink:href="#a"/></mask><g mask="url(#b)"><path fill="url(#c)" d="M0 0H70V70H0z"/><path fill="#FFF" fill-opacity=".383" d="M4 1h61c2.667 0 4.333.667 5 2V0H0v3c.667-1.333 2-2 4-2z"/><path fill="#393939" d="M4 69c-2 0-4-1-4-4V36.095l23.6-24.837 5.552 6.125-3.147 3.581 4.02 6.176 5.257-4.413L48 23l3.377 2.017v21.868L32.142 69H4z" opacity=".324"/><path fill="#000" fill-opacity=".383" d="M4 69h61c2.667 0 4.333-1 5-3v4H0v-4c.667 2 2 3 4 3z"/><use fill="#000" fill-rule="nonzero" opacity=".3" xlink:href="#d"/><use fill="#FFF" fill-rule="nonzero" xlink:href="#e"/></g></g></svg>