<svg id="e96522f1-fece-48a6-894d-75176804884c" data-name="Layer 1" xmlns="http://www.w3.org/2000/svg" xmlns:xlink="http://www.w3.org/1999/xlink" width="1144" height="727.23" viewBox="0 0 1144 727.23"><defs><linearGradient id="e9df2e8e-6999-41c4-9621-44bffc2f2623" x1="241.37" y1="811.22" x2="241.37" y2="492.1" gradientUnits="userSpaceOnUse"><stop offset="0" stop-color="gray" stop-opacity="0.25"/><stop offset="0.54" stop-color="gray" stop-opacity="0.12"/><stop offset="1" stop-color="gray" stop-opacity="0.1"/></linearGradient></defs><title>wind turbine</title><path d="M1172,547.72a244.4,244.4,0,0,1-6.85,57.75A228.14,228.14,0,0,1,1145.89,657,147.47,147.47,0,0,1,998.24,804.67H245.17A188.29,188.29,0,0,1,77.25,701.34a.08.08,0,0,1,0,0,187.1,187.1,0,0,1-20.11-84.68C38.72,583.66,28,544.19,28,501.75c0-115.43,79.24-209,177-209,3.46,0,6.9.13,10.31.36C276.65,171.32,415,86.39,575.74,86.39c98.82,0,189.15,32.08,258.35,85.08,25.44-16.71,54.73-26.25,85.9-26.25,97.75,0,177,93.58,177,209q0,11.08-1,21.86C1141.94,413.84,1172,476.63,1172,547.72Z" transform="translate(-28 -86.39)" fill="#3AADAA" opacity="0.1"/><path d="M603.59,291.88c-1.18,6.48-5.17,20.16-18.06,19.82-9.84-.25-17.42-8.84-17.16-18.68l3.71-134,1.21-43.7s6.38-12.09,12.73,42.11l0,.2,17.64,128.52A18,18,0,0,1,603.59,291.88Z" transform="translate(-28 -86.39)" fill="#fff"/><rect x="548.06" y="218.5" width="18.94" height="40.51" fill="#fff"/><rect x="550.39" y="249.39" width="14.57" height="17.78" fill="#fff"/><path d="M586.05,157.64c-6.63-1.93-11.14-.46-14,1.39l1.21-43.7s6.38-12.09,12.73,42.11Z" transform="translate(-28 -86.39)" fill="#3AADAA"/><path d="M595,317v28.4H576.06V317.56A25.6,25.6,0,0,1,595,317Z" transform="translate(-28 -86.39)" fill="#3AADAA"/><path d="M639.59,407.29c-5.31-3.9-15.85-13.48-9.9-24.92,4.54-8.73,15.58-11.79,24.31-7.24l118.81,62.08,38.75,20.24s8.06,11-43.44-7l-.19-.06L644.68,409.89A18.28,18.28,0,0,1,639.59,407.29Z" transform="translate(-28 -86.39)" fill="#fff"/><rect x="608.15" y="356.23" width="18.94" height="40.51" transform="translate(-19.51 680.17) rotate(-64)" fill="#fff"/><rect x="592.72" y="359.16" width="14.57" height="17.78" transform="translate(1165.83 -96.27) rotate(116)" fill="#fff"/><path d="M767.93,450.38c4.64-5.12,5.3-9.82,4.88-13.17l38.75,20.24s8.06,11-43.44-7Z" transform="translate(-28 -86.39)" fill="#3AADAA"/><path d="M620.79,388.56l-25.53-12.45,8.3-17,25,12.2A25.59,25.59,0,0,1,620.79,388.56Z" transform="translate(-28 -86.39)" fill="#3AADAA"/><path d="M531.47,407.29c5.31-3.9,15.85-13.48,9.9-24.92-4.54-8.73-15.58-11.79-24.31-7.24L398.25,437.21,359.5,457.45s-8.06,11,43.44-7l.19-.06,123.25-40.49A18.28,18.28,0,0,0,531.47,407.29Z" transform="translate(-28 -86.39)" fill="#fff"/><rect x="533.19" y="367.01" width="40.51" height="18.94" transform="translate(-137.03 194.33) rotate(-26)" fill="#fff"/><rect x="563.77" y="359.16" width="14.57" height="17.78" transform="translate(623.52 -392.94) rotate(64)" fill="#fff"/><path d="M403.13,450.38c-4.64-5.12-5.3-9.82-4.88-13.17L359.5,457.45s-8.06,11,43.44-7Z" transform="translate(-28 -86.39)" fill="#3AADAA"/><path d="M550.27,388.56l25.53-12.45-8.3-17-25,12.2A25.59,25.59,0,0,0,550.27,388.56Z" transform="translate(-28 -86.39)" fill="#3AADAA"/><polygon points="574.57 717.37 537.42 717.37 549.22 279.84 562.77 279.84 574.57 717.37" fill="#fff"/><circle cx="557.53" cy="274.45" r="12.38" fill="#3AADAA"/><path d="M878.67,268.82c-.79,4.38-3.49,13.63-12.21,13.4a12.19,12.19,0,0,1-11.62-12.63l2.52-90.66.81-29.56s4.32-8.18,8.62,28.49l0,.13,11.93,87A12.26,12.26,0,0,1,878.67,268.82Z" transform="translate(-28 -86.39)" fill="#fff"/><rect x="832.05" y="191.22" width="12.81" height="27.41" fill="#fff"/><rect x="833.62" y="212.12" width="9.86" height="12.03" fill="#fff"/><path d="M866.81,178c-4.49-1.3-7.54-.31-9.45.94l.81-29.56s4.32-8.18,8.62,28.49Z" transform="translate(-28 -86.39)" fill="#3AADAA"/><path d="M872.86,285.8V305H860.05V286.19A17.29,17.29,0,0,1,872.86,285.8Z" transform="translate(-28 -86.39)" fill="#3AADAA"/><path d="M903,346.89c-3.59-2.63-10.73-9.11-6.7-16.85a12.18,12.18,0,0,1,16.45-4.9l80.38,42,26.21,13.69s5.46,7.47-29.38-4.74l-.13,0-83.39-27.39A12.33,12.33,0,0,1,903,346.89Z" transform="translate(-28 -86.39)" fill="#fff"/><rect x="881.76" y="312.35" width="12.81" height="27.41" transform="translate(177.76 895.01) rotate(-64)" fill="#fff"/><rect x="871.32" y="314.33" width="9.86" height="12.03" transform="translate(1520.3 -413.17) rotate(116)" fill="#fff"/><path d="M989.86,376.05c3.14-3.46,3.59-6.64,3.3-8.91l26.21,13.69s5.46,7.47-29.38-4.74Z" transform="translate(-28 -86.39)" fill="#3AADAA"/><path d="M890.31,334.23,873,325.8l5.61-11.51,16.93,8.25A17.35,17.35,0,0,1,890.31,334.23Z" transform="translate(-28 -86.39)" fill="#3AADAA"/><path d="M829.88,346.89c3.59-2.63,10.73-9.11,6.7-16.85a12.18,12.18,0,0,0-16.45-4.9l-80.38,42-26.21,13.69s-5.46,7.47,29.38-4.74l.13,0,83.39-27.39A12.33,12.33,0,0,0,829.88,346.89Z" transform="translate(-28 -86.39)" fill="#fff"/><rect x="831.05" y="319.65" width="27.41" height="12.81" transform="translate(-85.44 316.93) rotate(-26)" fill="#fff"/><rect x="851.73" y="314.33" width="9.86" height="12.03" transform="translate(741.05 -676.43) rotate(64)" fill="#fff"/><path d="M743.05,376.05c-3.14-3.46-3.59-6.64-3.3-8.91l-26.21,13.69s-5.46,7.47,29.38-4.74Z" transform="translate(-28 -86.39)" fill="#3AADAA"/><path d="M842.6,334.23l17.27-8.43-5.61-11.51-16.93,8.25A17.35,17.35,0,0,0,842.6,334.23Z" transform="translate(-28 -86.39)" fill="#3AADAA"/><polygon points="849.99 528.74 824.73 533.18 832.83 232.73 842 232.73 849.99 528.74" fill="#fff"/><circle cx="838.46" cy="229.08" r="8.38" fill="#3AADAA"/><path d="M305.51,268.82c-.79,4.38-3.49,13.63-12.21,13.4a12.18,12.18,0,0,1-11.61-12.63l2.51-90.66.81-29.56s4.32-8.18,8.62,28.49l0,.13,11.94,87A12.56,12.56,0,0,1,305.51,268.82Z" transform="translate(-28 -86.39)" fill="#fff"/><rect x="258.89" y="191.22" width="12.81" height="27.41" fill="#fff"/><rect x="260.46" y="212.12" width="9.86" height="12.03" fill="#fff"/><path d="M293.65,178c-4.48-1.3-7.54-.31-9.45.94l.81-29.56s4.32-8.18,8.62,28.49Z" transform="translate(-28 -86.39)" fill="#3AADAA"/><path d="M299.7,285.8V305H286.89V286.19A17.29,17.29,0,0,1,299.7,285.8Z" transform="translate(-28 -86.39)" fill="#3AADAA"/><path d="M329.87,346.89c-3.59-2.63-10.72-9.11-6.69-16.85a12.17,12.17,0,0,1,16.44-4.9l80.38,42,26.22,13.69s5.45,7.47-29.39-4.74l-.13,0-83.38-27.39A12.39,12.39,0,0,1,329.87,346.89Z" transform="translate(-28 -86.39)" fill="#fff"/><rect x="308.6" y="312.35" width="12.81" height="27.41" transform="translate(-144.14 379.86) rotate(-64)" fill="#fff"/><rect x="298.16" y="314.33" width="9.86" height="12.03" transform="translate(695.88 101.98) rotate(116)" fill="#fff"/><path d="M416.7,376.05c3.14-3.46,3.59-6.64,3.3-8.91l26.22,13.69s5.45,7.47-29.39-4.74Z" transform="translate(-28 -86.39)" fill="#3AADAA"/><path d="M317.15,334.23l-17.27-8.43,5.62-11.51,16.92,8.25A17.31,17.31,0,0,1,317.15,334.23Z" transform="translate(-28 -86.39)" fill="#3AADAA"/><path d="M256.72,346.89c3.6-2.63,10.73-9.11,6.7-16.85a12.18,12.18,0,0,0-16.45-4.9l-80.38,42-26.21,13.69s-5.46,7.47,29.38-4.74l.13,0,83.39-27.39A12.33,12.33,0,0,0,256.72,346.89Z" transform="translate(-28 -86.39)" fill="#fff"/><rect x="257.89" y="319.65" width="27.41" height="12.81" transform="translate(-143.45 65.67) rotate(-26)" fill="#fff"/><rect x="278.58" y="314.33" width="9.86" height="12.03" transform="translate(419.15 -161.28) rotate(64)" fill="#fff"/><path d="M169.89,376.05c-3.13-3.46-3.58-6.64-3.3-8.91l-26.21,13.69s-5.46,7.47,29.38-4.74Z" transform="translate(-28 -86.39)" fill="#3AADAA"/><path d="M269.44,334.23l17.27-8.43-5.61-11.51-16.93,8.25A17.4,17.4,0,0,0,269.44,334.23Z" transform="translate(-28 -86.39)" fill="#3AADAA"/><polygon points="276.83 528.74 251.69 528.74 259.68 232.73 268.84 232.73 276.83 528.74" fill="#fff"/><circle cx="265.3" cy="229.08" r="8.38" fill="#3AADAA"/><path d="M1140.69,696A147.72,147.72,0,0,1,998.24,804.67H245.17A188.29,188.29,0,0,1,77.25,701.34a.08.08,0,0,1,0,0S186.4,550.36,469.87,649c235.34,81.89,343.89,4.45,374-24.21a33.26,33.26,0,0,1,24.5-9.08c57.67,2.73,257.44,16.71,272.35,80.27A0,0,0,0,0,1140.69,696Z" transform="translate(-28 -86.39)" fill="#fff"/><ellipse cx="209.13" cy="712.91" rx="121.92" ry="14.31" fill="#3AADAA" opacity="0.1"/><path d="M298.16,786.53s-7.91-.93-13.06-4.77l-.39-.31a4.78,4.78,0,0,0,.67-1.53,7.7,7.7,0,0,1-.85-3.48,7.81,7.81,0,0,0-.68-3.3v-5.62s-1.71-1.82-1.88-6.45-.34-27.45-.34-27.45a10.73,10.73,0,0,1-.17-3.64c.17-2.64.17-3.63.17-3.63a10,10,0,0,1-.51-4.8c.51-2-1.2-4.3-1.2-4.3l2.56-12.56s1.42-43.39-2.71-56.47l0-.08s0-.11,0-.16c.35-8.44-4.77-22.49-1.87-32.24s3.24-11.91,3.24-11.91-12.78-32.08-16-39.68c-2.23-5.24-4.54-11-6.82-14.28q-.3-.43-.6-.81c-.11-.14-.22-.28-.33-.4a8.86,8.86,0,0,0,1.23-3.82c.18-2.36-.16-5.08,1.56-6.75a13.15,13.15,0,0,1,2.11-1.41,8.47,8.47,0,0,0,3.75-8.1c-.36-2.49-1.79-4.56-3.42-6.57A18.38,18.38,0,0,0,257,505.19h0c0-.31,0-.63,0-.94a10.53,10.53,0,0,0-2-6.39l.48.34c-.27-.24-.53-.47-.81-.7a5.65,5.65,0,0,0-1.34-1,25,25,0,0,0-26-1.35,14.51,14.51,0,0,0-5.07,4.51c-2.67,4.12-2,9.45-3.38,14.13-1.34,4.47-4.5,8.17-7.12,12.07s-4.81,8.52-3.82,13.08c.71,3.31,3.07,6.28,3,9.67a7.64,7.64,0,0,1-6.7,7.08l-.09,0a6.87,6.87,0,0,1-1,.08c3.18,2.19,7.13,3,11,3.51-.08.3-.16.6-.23.91C210.79,572,208,587,208,587s1.87,15.2-2.05,27.11-3.41,36.38-3.41,36.38,10.91-5.63,11.59-2,0,4.63,0,4.63,2.23,1.13,4.85,2.13l-.11,1.45-.48,6.5a7.25,7.25,0,0,0,.6,4c.94,1.82,0,6.78,0,6.78s-.8.5,0,2.82-.63,5.62-.63,5.62-1,12.4-1.13,15-3.41,10.09-3.41,10.09,2.9,3.63,0,4.13-3.24,5-3.24,5-3.41,2.81-3.41,3.8c0,0-15.34,15.55-18.92,41.17,0,0-3.58,3.31-3.07,6.45.29,1.78-.29,2.39-.85,2.59.63.08,1.32.49,1,2-.51,2.64-1.87,8.27-1.87,8.27l.24,0,0,0c-2.79,3.23-6.87,8.64-7.49,13.39q0,.3-.06.6l-1.54,3.47,13.47,6,1.19-1.82s6,6.78,12.79,8.26a17.2,17.2,0,0,0,3.57.39A31.52,31.52,0,0,0,216.69,809s4.94-6.11-7.85-7.27c0,0-7.49-8.6-6.81-12.24a35.92,35.92,0,0,0,.47-4.63q0-.51,0-1l.87.13.16-2.77a2.37,2.37,0,0,0,.51-1.66c0-1.15-1-1.32,0-2s1,0,1-1.65-.68-1.16.85-2.81-.17-4.63-.17-4.63,3.58-2.65,3.41-6.12,11.42-25.46,13.8-26.29,2.56-5.13,2.56-5.13,3.24.66,4.26,0,4.26-5.78,4.26-5.78,13-32.74,13.13-45.14l.85-2.81s4.95,6.45,4.26,11.08,3.78,7.93,3.78,7.93v14.06a41,41,0,0,1,.82,7.44c-.17,2.31,2,4.63,1.18,6.61s0,5.46,0,5.46-.18,4.63,0,5.95-.67,16.53,3.77,23.15c0,0,1.87,4.79,0,7.93s1.7,6.29,1.7,6.29-2.21,3.63,0,6.28a8.13,8.13,0,0,1,1.59,5.86c-.89,3.36-1.55,7.77-.06,10.84v.07l.4,4.72,13.06-1v-2.64s8.92,2.37,17.23,1.08c4.48-.69,8.78-2.45,11.41-6.21C307.2,792.15,312.48,783.06,298.16,786.53Z" transform="translate(-28 -86.39)" fill="url(#e9df2e8e-6999-41c4-9621-44bffc2f2623)"/><path d="M304.78,792.23c-2.54,3.75-6.69,5.5-11,6.19-8,1.28-16.63-1.08-16.63-1.08V800l-12.61,1-.39-4.7v-.08c-1.46-3.1-.79-7.58.09-10.95a39.8,39.8,0,0,1,1.56-4.68s10.86-9.22,14.48-2.3a11.21,11.21,0,0,0,3.19,3.64c5,3.82,12.61,4.75,12.61,4.75C309.88,783.18,304.78,792.23,304.78,792.23Z" transform="translate(-28 -86.39)" fill="#65617d"/><path d="M271.2,783.18s0,8.56,6.25,8.4,7.09-3.41,5.11-5.61a27,27,0,0,1-3.46-5.09Z" transform="translate(-28 -86.39)" opacity="0.1"/><path d="M217.38,809a29.7,29.7,0,0,1-10.71,2.2,16.8,16.8,0,0,1-3.45-.38c-6.58-1.49-12.34-8.24-12.34-8.24l-1.15,1.82-13-5.93L178.2,795l.06-.59c.6-4.73,4.54-10.12,7.24-13.34,1.47-1.75,2.58-2.85,2.58-2.85l15.64,2.3s.06,2,0,4.44a35.45,35.45,0,0,1-.46,4.61c-.65,3.62,6.58,12.18,6.58,12.18C222.15,802.93,217.38,809,217.38,809Z" transform="translate(-28 -86.39)" fill="#65617d"/><path d="M186.1,770.78a1.64,1.64,0,0,1-.82.06A2.42,2.42,0,0,1,186.1,770.78Z" transform="translate(-28 -86.39)" fill="#444053"/><path d="M203.72,780.55s.06,2,0,4.44l-18.4-3s.09-.35.22-.93c1.47-1.75,2.58-2.85,2.58-2.85Z" transform="translate(-28 -86.39)" opacity="0.1"/><path d="M283.44,781.89c-2.78,6.43-19.32,4.91-19.32,4.91a7.9,7.9,0,0,0,.09-1.57,39.8,39.8,0,0,1,1.56-4.68s10.86-9.22,14.48-2.3A11.21,11.21,0,0,0,283.44,781.89Z" transform="translate(-28 -86.39)" opacity="0.1"/><path d="M283.71,780.06c-1.64,7.4-19.59,5.76-19.59,5.76a8.51,8.51,0,0,0-1.48-6.26c-2.14-2.63,0-6.25,0-6.25s-3.46-3.13-1.64-6.26,0-7.9,0-7.9c-4.29-6.58-3.46-21.73-3.64-23s0-5.92,0-5.92-.81-3.46,0-5.44-1.3-4.28-1.14-6.58a42.58,42.58,0,0,0-.79-7.41v-14s-4.31-3.29-3.65-7.9-4.12-11-4.12-11l-.82,2.8c-.16,12.34-12.67,44.93-12.67,44.93s-3.13,5.11-4.12,5.77-4.11,0-4.11,0-.17,4.28-2.47,5.1-13.5,22.71-13.33,26.17-3.3,6.09-3.3,6.09,1.65,3,.17,4.61-.83,1.15-.83,2.8,0,1-1,1.64,0,.83,0,2a2.34,2.34,0,0,1-.5,1.64l-.15,2.77-19.27-3.09s1.32-5.6,1.81-8.24c.29-1.54-.38-1.95-1-2,.55-.2,1.11-.81.83-2.57-.5-3.13,3-6.42,3-6.42,3.46-25.52,18.27-41,18.27-41,0-1,3.29-3.78,3.29-3.78s.33-4.45,3.13-4.94,0-4.12,0-4.12,3.13-7.4,3.29-10,1.09-15,1.09-15,1.38-3.29.61-5.59,0-2.8,0-2.8.93-4.94,0-6.75a7.4,7.4,0,0,1-.58-3.95l.47-6.48.68-9.65S271.36,639,277,646.07a9,9,0,0,1,1.33,2.88c4,13,2.62,56.21,2.62,56.21l-2.47,12.51s1.65,2.31,1.16,4.28a10.17,10.17,0,0,0,.49,4.78s0,1-.17,3.62a11,11,0,0,0,.17,3.62s.16,22.71.33,27.32,1.81,6.42,1.81,6.42v5.6a8.09,8.09,0,0,1,.65,3.29A7.75,7.75,0,0,0,283.71,780.06Z" transform="translate(-28 -86.39)" fill="#444053"/><path d="M206.67,811.22a16.8,16.8,0,0,1-3.45-.38c-6.58-1.49-12.34-8.24-12.34-8.24l-1.15,1.82-13-5.93L178.2,795l.06-.59,13.44,6.85S202.43,806.4,206.67,811.22Z" transform="translate(-28 -86.39)" opacity="0.1"/><path d="M293.76,798.42c-8,1.28-16.63-1.08-16.63-1.08V800l-12.61,1-.39-4.7c4,.07,10.43.14,13.23-.08A61.41,61.41,0,0,1,293.76,798.42Z" transform="translate(-28 -86.39)" opacity="0.1"/><path d="M192.54,766.54a4.52,4.52,0,0,1,1.94.25,13.52,13.52,0,0,1,1.84,1.32,7.6,7.6,0,0,1,1.22.81c.48.47.68,1.17,1.16,1.64.88.87,2.33.67,3.5,1.09.13,0,.27.11.29.24s-.09.24-.2.32a1.92,1.92,0,0,1-1.9,0,7.64,7.64,0,0,1-1.59-1.2,10.75,10.75,0,0,0-3.09-1.92c-1.55-.61-4.25-.78-5.23-2.3C190.94,766.44,191.94,766.55,192.54,766.54Z" transform="translate(-28 -86.39)" opacity="0.1"/><path d="M191.22,770a4.72,4.72,0,0,1,1,.41l1.69.85a6.26,6.26,0,0,1-3.45-.77,9.93,9.93,0,0,1-1.09-.52A5.58,5.58,0,0,1,191.22,770Z" transform="translate(-28 -86.39)" opacity="0.1"/><path d="M193.45,772.88a4.5,4.5,0,0,1,1.1.09,5.47,5.47,0,0,1,1.74,1,6.8,6.8,0,0,0,4.36,1.51,1.9,1.9,0,0,1-1,.17h-3.54a4.7,4.7,0,0,1-2.64-.61c-.6-.29-3.08-1-3.1-1.83S192.85,772.88,193.45,772.88Z" transform="translate(-28 -86.39)" opacity="0.1"/><path d="M274,777.08a19.71,19.71,0,0,0,3.26.09,6.23,6.23,0,0,0,3.22-1c.95-.73.75-1.48-.46-1.53a8.63,8.63,0,0,0-3.25.8,9.86,9.86,0,0,0-1.52.77C275,776.32,274.18,777.09,274,777.08Z" transform="translate(-28 -86.39)" opacity="0.1"/><path d="M277.94,778.88c-.1.4-.52.62-.9.77a10.32,10.32,0,0,1-2.9.64c-.25,0-.95,0-.86-.39s1.13-.27,1.38-.3A25,25,0,0,0,277.94,778.88Z" transform="translate(-28 -86.39)" opacity="0.1"/><path d="M268.06,778.23a6.69,6.69,0,0,1,4,.79.2.2,0,0,1,.08.1.1.1,0,0,1,0,.09,1.37,1.37,0,0,1-1.34.72,6.26,6.26,0,0,1-1.56-.39,8.08,8.08,0,0,0-2.58-.39,6.51,6.51,0,0,1-1.17,0c-1.16-.2-.78-.67.11-.77A23.49,23.49,0,0,1,268.06,778.23Z" transform="translate(-28 -86.39)" opacity="0.1"/><path d="M222.84,713.55a10.18,10.18,0,0,0-5.62-1.84A8,8,0,0,1,222.84,713.55Z" transform="translate(-28 -86.39)" opacity="0.1"/><path d="M221.3,706.91a8.11,8.11,0,0,1,4.2,1.2l-1.52-.42a14.34,14.34,0,0,0-2.81-.59c-.55-.05-1.1,0-1.65-.06s-1.25-.16-1.87-.18C218.86,706.92,220.08,706.85,221.3,706.91Z" transform="translate(-28 -86.39)" opacity="0.1"/><path d="M226.25,710.07c.46.09,1,.29,1.1.76,0-.28-3.26-1.2-3.66-1.33-.67-.24-2.82-1.18-3.31-.53C222.27,709.48,224.31,709.67,226.25,710.07Z" transform="translate(-28 -86.39)" opacity="0.1"/><path d="M230.83,695.45a13.79,13.79,0,0,0,5.67-3.64,4.5,4.5,0,0,1-2.09,3.7,11.78,11.78,0,0,1-4.13,1.54,18.2,18.2,0,0,0-4.24,1.27c-.65.33-2.68,2.25-3.32,2.15-.81-.12.48-1.4.78-1.63C225.64,697.17,228.35,696.43,230.83,695.45Z" transform="translate(-28 -86.39)" opacity="0.1"/><path d="M271.16,716.8c-.7-.24-9.2,1.41-8.68-.24.32-1,3.08-.64,3.77-.61A17.45,17.45,0,0,1,271.16,716.8Z" transform="translate(-28 -86.39)" opacity="0.1"/><path d="M262,520a18.76,18.76,0,1,1-5.66-13.43A18.62,18.62,0,0,1,262,520Z" transform="translate(-28 -86.39)" fill="#fbbebe"/><path d="M252.93,527.73s-6.09,17.78-2.63,21.4-24.86,5.76-24.86,5.76,11.85-21.23,10.7-26.5S252.93,527.73,252.93,527.73Z" transform="translate(-28 -86.39)" fill="none" stroke="#3AADAA" stroke-miterlimit="10"/><path d="M278.29,649c0,.43,0,.84,0,1.24-.33,8.4-15.31,25.35-18.77,22.55s-27-8.4-27-8.4-3.46-5.43-7.08-5.43a18.51,18.51,0,0,1-5.95-1.54l.68-9.65S271.36,639,277,646.07A9,9,0,0,1,278.29,649Z" transform="translate(-28 -86.39)" opacity="0.1"/><path d="M278.28,648.71c-.17,4.21-4,10.56-8.23,15.5s-8.81,8.44-10.54,7a16.62,16.62,0,0,0-4.08-1.93c-7.79-2.87-22.91-6.47-22.91-6.47s-3.46-5.43-7.08-5.43-10.53-3.62-10.53-3.62.66-1,0-4.61-11.19,2-11.19,2-.5-24.36,3.29-36.22,2-27,2-27,2.71-14.92,5.65-26.71c1.77-7.07,3.63-13,5.05-13.94,3.79-2.47,23.54,0,23.54,0s8.23.16,11.36,1a5,5,0,0,1,2.37,1.93c.19.26.39.53.58.82,2.2,3.3,4.44,9,6.59,14.21,3.13,7.57,15.48,39.5,15.48,39.5s-.33,2.14-3.13,11.85S278.61,640.32,278.28,648.71Z" transform="translate(-28 -86.39)" fill="#65617d"/><path d="M264.12,658.42l5.93,5.78s5.43,18.74-1.65,17.1-13-12-13-12Z" transform="translate(-28 -86.39)" fill="#fbbebe"/><path d="M279.1,606.24c-14-.16-17.61-19.75-17.61-19.75s-1-19.42-2.8-23c-1-2-1.45-6.92-1.65-10.92,2.2,3.3,4.43,9,6.59,14.21C266.76,574.31,279.1,606.24,279.1,606.24Z" transform="translate(-28 -86.39)" opacity="0.1"/><path d="M279.6,604.76C265.6,604.6,262,585,262,585s-1-19.42-2.8-23c-1-2-1.45-6.92-1.65-10.92,2.2,3.3,4.44,9,6.59,14.21C267.25,572.83,279.6,604.76,279.6,604.76Z" transform="translate(-28 -86.39)" fill="#65617d"/><path d="M254.54,556.44s-4.12-11.19-10.87,0-6.91,25.35-6.91,25.35l-1.15,30.94s2.14,4.12,2.06,6.42,4,8.89,4,8.89,1,13,4.77,15.14l3.62,10.7s.17,7.08,2.64,9.88,1.17,7.12,1.17,7.12l14.63-5.12s-1.65.59,0-3.83-1-10.19-1-10.19-9.38-20.41-10.53-23.37-2.8-6.42-2.14-9.88.13-40.16,1-45.75S254.54,556.44,254.54,556.44Z" transform="translate(-28 -86.39)" opacity="0.1"/><path d="M256.06,554.89s-4.12-11.19-10.87,0-6.91,25.35-6.91,25.35l-1.15,30.94s2.14,4.12,2.06,6.42,4,8.89,4,8.89,1,13,4.77,15.14l3.62,10.7s.17,7.08,2.64,9.88,1.18,7.12,1.18,7.12l14.62-5.13s-1.65.6,0-3.82-1-10.19-1-10.19-9.38-20.41-10.53-23.37-2.8-6.42-2.14-9.88.14-40.16,1-45.76S256.06,554.89,256.06,554.89Z" transform="translate(-28 -86.39)" fill="#444053"/><path d="M256.34,651.68a5.53,5.53,0,0,1,1.79.53c.45.24.84.59,1.28.84a3.57,3.57,0,0,0,1.69.46c-.66,0-1.32.07-2,.08a3.5,3.5,0,0,1-1.21-.15,4.92,4.92,0,0,1-1-.67,5.39,5.39,0,0,0-1.31-.72c-.35-.15-.73-.2-.88-.56A10.17,10.17,0,0,1,256.34,651.68Z" transform="translate(-28 -86.39)" opacity="0.1"/><path d="M261.91,656.1c.62,0,1.24-.14,1.87-.18a15.39,15.39,0,0,1,2.71.14,7.63,7.63,0,0,1-4.28.76,2.56,2.56,0,0,0-1.29,0c-.46.19-1.79,1.7-1.91.36S261.15,656.13,261.91,656.1Z" transform="translate(-28 -86.39)" opacity="0.1"/><path d="M254.34,500.25,252,498.51a4.5,4.5,0,0,1,.74.33,5.46,5.46,0,0,1,1.34,1.05c.26.22.52.46.77.69Z" transform="translate(-28 -86.39)" opacity="0.1"/><path d="M257,550.23a5.82,5.82,0,0,1-2,2.44,4.1,4.1,0,0,1-1.76.68,6.88,6.88,0,0,1-2.66-.28,32.84,32.84,0,0,1-3.23-1,53.35,53.35,0,0,0-6.35-2.16c-3.29-.75-7.12-.48-9.48,1.92-2.07,2.11-2.58,5.39-4.65,7.5-2.77,2.82-7.31,2.65-11.24,2.1l-.92-.13c1.77-7.07,3.63-13,5.05-13.94,3.79-2.47,23.54,0,23.54,0s8.23.16,11.36,1A5,5,0,0,1,257,550.23Z" transform="translate(-28 -86.39)" opacity="0.1"/><path d="M224.46,520a18.76,18.76,0,0,1,31.86-13.43v0c.06,3.27-.65,6.62.27,9.77.85,2.93,3,5.29,4.94,7.73A18.76,18.76,0,0,1,224.46,520Z" transform="translate(-28 -86.39)" opacity="0.1"/><path d="M254.8,499.6a23.42,23.42,0,0,0-27.21-3.06,14.09,14.09,0,0,0-4.9,4.49c-2.58,4.11-1.92,9.41-3.27,14.07-1.28,4.45-4.34,8.13-6.87,12s-4.64,8.49-3.69,13c.69,3.3,3,6.26,2.92,9.63a7.47,7.47,0,0,1-7.23,7.1c3.18,2.25,7.15,3,11,3.55s8.46.72,11.24-2.11c2.07-2.1,2.58-5.39,4.65-7.49,2.36-2.41,6.19-2.68,9.48-1.92s6.32,2.35,9.58,3.2a7.07,7.07,0,0,0,2.66.27c2.81-.38,4.44-3.5,4.66-6.32.18-2.35-.16-5.06,1.51-6.72a12.74,12.74,0,0,1,2-1.41,8.51,8.51,0,0,0,3.61-8.06c-.77-5.58-6.81-9.06-8.39-14.47-.92-3.14-.21-6.49-.27-9.76s-1.29-7-4.37-8.1" transform="translate(-28 -86.39)" fill="#444053"/><path d="M264.68,529.85c-.78-5.58-6.82-9.06-8.4-14.47-.92-3.14-.21-6.49-.26-9.76a10.72,10.72,0,0,0-2-6.36l.46.34q-.37-.36-.78-.69a5.28,5.28,0,0,0-1.29-1c-.28-.21-.57-.4-.85-.59l.45.41-.46-.34a10.7,10.7,0,0,1,2,6.36c0,3.26-.66,6.62.26,9.76,1.58,5.41,7.62,8.89,8.4,14.47a8.53,8.53,0,0,1-3.62,8.06,12.55,12.55,0,0,0-2,1.41c-1.66,1.66-1.33,4.37-1.51,6.72-.22,2.82-1.85,5.94-4.65,6.32a7.12,7.12,0,0,1-2.67-.27c-3.26-.85-6.29-2.45-9.58-3.2s-7.11-.49-9.48,1.92c-2.07,2.1-2.58,5.38-4.65,7.49-2.77,2.83-7.31,2.65-11.23,2.11a34.47,34.47,0,0,1-7.56-1.74,6.37,6.37,0,0,1-1,.08c3.18,2.25,7.15,3,11,3.55s8.46.72,11.23-2.11c2.07-2.1,2.58-5.39,4.65-7.49,2.37-2.41,6.2-2.68,9.48-1.92s6.32,2.35,9.58,3.2a7.12,7.12,0,0,0,2.67.27c2.8-.38,4.43-3.5,4.65-6.32.18-2.35-.15-5.06,1.51-6.72a13.21,13.21,0,0,1,2-1.41A8.52,8.52,0,0,0,264.68,529.85Z" transform="translate(-28 -86.39)" opacity="0.1"/></svg>