<svg xmlns="http://www.w3.org/2000/svg" xmlns:xlink="http://www.w3.org/1999/xlink" width="70" height="70" viewBox="0 0 70 70"><defs><path id="a" d="M4 0h61c4 0 5 1 5 5v60c0 4-1 5-5 5H4c-3 0-4-1-4-5V5c0-4 1-5 4-5z"/><linearGradient id="c" x1="100%" x2="0%" y1="0%" y2="100%"><stop offset="0%" stop-color="#DA956B"/><stop offset="100%" stop-color="#CC7039"/></linearGradient><path id="d" d="M48 30l-2 1.882V22H20v32h26v-5.647l2-1.882V54a2 2 0 0 1-2 2H20a2 2 0 0 1-2-2V16a2 2 0 0 1 2-2h6v-2h4v2h6v-2h4l.03 2H46a2 2 0 0 1 2 2v14zM20 16v4h26v-4h-6v2h-4v-2h-6v2h-4v-2h-6zm5 23h12a1 1 0 0 1 1 1v10a1 1 0 0 1-1 1H25a1 1 0 0 1-1-1V40a1 1 0 0 1 1-1zm1 1.984V49h10v-8.016H26zm3.687 7.327l-2.571-2.806a.46.46 0 0 1 0-.61l.56-.61a.373.373 0 0 1 .559 0l1.732 1.89 3.71-4.049a.373.373 0 0 1 .56 0l.56.61a.46.46 0 0 1 0 .611l-4.55 4.964a.373.373 0 0 1-.56 0zM25 25h12a1 1 0 0 1 1 1v9a1 1 0 0 1-1 1H25a1 1 0 0 1-1-1v-9a1 1 0 0 1 1-1zm1 2v7h10v-7H26zm35.5 2.95l-1.914 2.053a.517.517 0 0 1-.731.025l-4.942-4.608a.517.517 0 0 1-.026-.731l1.914-2.052a2.07 2.07 0 0 1 2.921-.102l2.676 2.495c.837.776.883 2.083.102 2.92zm-9.575-1.805l-10.903 11.69-.73 5.259c-.1.71.537 1.299 1.238 1.154l5.195-1.099 10.903-11.69a.517.517 0 0 0-.026-.732l-4.942-4.608a.522.522 0 0 0-.735.026zm-6.45 10.572a.6.6 0 0 1-.03-.852l6.394-6.856a.6.6 0 0 1 .852-.03.6.6 0 0 1 .03.852l-6.395 6.856a.6.6 0 0 1-.851.03zm-1.687 3.492l2.065-.072.055 1.561-2.758.583-1.385-1.291.39-2.792 1.56-.054.073 2.065z"/><path id="e" d="M48 28l-2 1.882V20H20v32h26v-5.647l2-1.882V52a2 2 0 0 1-2 2H20a2 2 0 0 1-2-2V14a2 2 0 0 1 2-2h6v-2h4v2h6v-2h4l.03 2H46a2 2 0 0 1 2 2v14zM20 14v4h26v-4h-6v1h-4v-1h-6v1h-4v-1h-6zm5 23h12a1 1 0 0 1 1 1v10a1 1 0 0 1-1 1H25a1 1 0 0 1-1-1V38a1 1 0 0 1 1-1zm1 1.984V47h10v-8.016H26zm3.687 7.327l-2.571-2.806a.46.46 0 0 1 0-.61l.56-.61a.373.373 0 0 1 .559 0l1.732 1.89 3.71-4.049a.373.373 0 0 1 .56 0l.56.61a.46.46 0 0 1 0 .611l-4.55 4.964a.373.373 0 0 1-.56 0zM25 23h12a1 1 0 0 1 1 1v9a1 1 0 0 1-1 1H25a1 1 0 0 1-1-1v-9a1 1 0 0 1 1-1zm1 2v7h10v-7H26zm35.5 2.95l-1.914 2.053a.517.517 0 0 1-.731.025l-4.942-4.608a.517.517 0 0 1-.026-.731l1.914-2.052a2.07 2.07 0 0 1 2.921-.102l2.676 2.495c.837.776.883 2.083.102 2.92zm-9.575-1.805l-10.903 11.69-.73 5.259c-.1.71.537 1.299 1.238 1.154l5.195-1.099 10.903-11.69a.517.517 0 0 0-.026-.732l-4.942-4.608a.522.522 0 0 0-.735.026zm-6.45 10.572a.6.6 0 0 1-.03-.852l6.394-6.856a.6.6 0 0 1 .852-.03.6.6 0 0 1 .03.852l-6.395 6.856a.6.6 0 0 1-.851.03zm-1.687 3.492l2.065-.072.055 1.561-2.758.583-1.385-1.291.39-2.792 1.56-.054.073 2.065z"/></defs><g fill="none" fill-rule="evenodd"><mask id="b" fill="#fff"><use xlink:href="#a"/></mask><g mask="url(#b)"><path fill="url(#c)" d="M0 0H70V70H0z"/><path fill="#FFF" fill-opacity=".383" d="M4 1h61c2.667 0 4.333.667 5 2V0H0v3c.667-1.333 2-2 4-2z"/><path fill="#393939" d="M32.889 69H4c-2 0-4-.145-4-4.073v-33.6L20 12h20l8 2V31.327l6-6.109 5 5.091-11 11.2-.245 11.542L32.889 69z" opacity=".324"/><path fill="#000" fill-opacity=".383" d="M4 69h61c2.667 0 4.333-1 5-3v4H0v-4c.667 2 2 3 4 3z"/><use fill="#000" fill-rule="nonzero" opacity=".3" xlink:href="#d"/><use fill="#FFF" fill-rule="nonzero" xlink:href="#e"/></g></g></svg>