<svg width="70" height="70" viewBox="0 0 70 70" fill="none" xmlns="http://www.w3.org/2000/svg">
<path d="M25 25.5C25 29.6421 21.6421 33 17.5 33C13.3579 33 10 29.6421 10 25.5C10 21.3579 13.3579 18 17.5 18C21.6421 18 25 21.3579 25 25.5Z" fill="#088BF5"/>
<path d="M29 22C29 19.7909 30.7909 18 33 18H60V29C60 31.2091 58.2091 33 56 33H29V22Z" fill="#2EBCFA"/>
<path d="M10 44.5C10 40.3579 13.3579 37 17.5 37C21.6421 37 25 40.3579 25 44.5C25 48.6421 21.6421 52 17.5 52C13.3579 52 10 48.6421 10 44.5Z" fill="#F9464C"/>
<path d="M29 52L48 52C50.2091 52 52 50.2091 52 48L52 37L33 37C30.7909 37 29 38.7909 29 41L29 52Z" fill="#FC868B"/>
</svg>
