<svg width="50" height="50" viewBox="0 0 50 50" xmlns="http://www.w3.org/2000/svg"><path d="M15 15.5a7.5 7.5 0 1 1-15 0 7.5 7.5 0 0 1 15 0Z" fill="var(--o-icons-cyan-cyan, #0382F3)"/><path d="M15 15.5a7.5 7.5 0 1 1-15 0 7.5 7.5 0 0 1 15 0Z" fill="url(#o_icon_survey__a)" fill-opacity=".2"/><path d="M19 12a4 4 0 0 1 4-4h27v11a4 4 0 0 1-4 4H19V12Z" fill="var(--o-icons-cyan-pure, #1BB6F9)"/><path d="M19 12a4 4 0 0 1 4-4h27v11a4 4 0 0 1-4 4H19V12Z" fill="url(#o_icon_survey__b)" fill-opacity=".2"/><path d="M0 34.5a7.5 7.5 0 1 1 15 0 7.5 7.5 0 0 1-15 0Z" fill="var(--o-icons-red-red, #F9383D)"/><path d="M0 34.5a7.5 7.5 0 1 1 15 0 7.5 7.5 0 0 1-15 0Z" fill="url(#o_icon_survey__c)" fill-opacity=".2"/><path d="M19 42h19a4 4 0 0 0 4-4V27H23a4 4 0 0 0-4 4v11Z" fill="var(--o-icons-red-pure, #FC787D)"/><path d="M19 42h19a4 4 0 0 0 4-4V27H23a4 4 0 0 0-4 4v11Z" fill="url(#o_icon_survey__d)" fill-opacity=".2"/><defs><linearGradient id="o_icon_survey__a" x1="0" y1="8" x2="17.647" y2="12.412" gradientUnits="userSpaceOnUse"><stop stop-color="#fff"/><stop offset="1" stop-color="#fff" stop-opacity="0"/></linearGradient><linearGradient id="o_icon_survey__b" x1="19" y1="8" x2="49.585" y2="23.802" gradientUnits="userSpaceOnUse"><stop stop-color="#fff"/><stop offset="1" stop-color="#fff" stop-opacity="0"/></linearGradient><linearGradient id="o_icon_survey__c" x1="0" y1="27" x2="17.647" y2="31.412" gradientUnits="userSpaceOnUse"><stop stop-color="#fff"/><stop offset="1" stop-color="#fff" stop-opacity="0"/></linearGradient><linearGradient id="o_icon_survey__d" x1="19" y1="42" x2="44.067" y2="32.391" gradientUnits="userSpaceOnUse"><stop stop-color="#fff"/><stop offset="1" stop-color="#fff" stop-opacity="0"/></linearGradient></defs></svg>
