<?xml version="1.0" standalone="no"?>
<!DOCTYPE svg PUBLIC "-//W3C//DTD SVG 1.1//EN" "http://www.w3.org/Graphics/SVG/1.1/DTD/svg11.dtd">
<svg xmlns="http://www.w3.org/2000/svg">
<defs >
<font id="Cairo" horiz-adv-x="591" ><font-face
    font-family="Cairo"
    units-per-em="1000"
    panose-1="0 0 5 0 0 0 0 0 0 0"
    ascent="1303"
    descent="-571"
    alphabetic="0" />
<glyph unicode=" " glyph-name="space" horiz-adv-x="220" />
<glyph unicode="!" glyph-name="exclam" horiz-adv-x="247" d="M84 692H163L158 228H89L84 692ZM83 112H165V0H83V112Z" />
<glyph unicode="&quot;" glyph-name="quotedbl" horiz-adv-x="373" d="M67 692H142L137 470H70L67 692ZM232 692H307L302 470H235L232 692Z" />
<glyph unicode="#" glyph-name="numbersign" horiz-adv-x="560" d="M135 174H24V238H135V424H24V488H135V666H203V488H357V666H425V488H536V424H425V238H536V174H425V0H357V174H203V0H135V174ZM357 238V424H203V238H357Z" />
<glyph unicode="$" glyph-name="dollar" horiz-adv-x="560" d="M203 -121T203 -117L217 -6Q172 -2 90 10L74 12L82 73Q158 63 225 58L258 308Q186 325 146 346T88 401T69 493Q69 590 120 630T281 670L304 669L321 798H372L355 666Q420 660 459 654L480 651L474
589L446 592Q373 600 347 602L317 369Q385 353 422 334T477 282T494 194Q494 -9 283 -9H268L254 -124Q203 -121 203 -117ZM296 605Q212 605 178 582T143 497Q143 461 154 440T192 406T267 380L296 605ZM350 56T385 89T420 189Q420 224 410 244T376 275T308 298L277
56Q350 56 385 89Z" />
<glyph unicode="%" glyph-name="percent" horiz-adv-x="560" d="M155 -4L360 681L408 665L203 -18L155 -4ZM85 391T57 426T28 533Q28 670 138 670Q248 670 248 533Q248 462 220 427T138 391Q85 391 57 426ZM164 442T176 464T188 534Q188 578 177 598T139 619Q113
619 101 599T89 534Q89 442 139 442Q164 442 176 464ZM370 -10T342 26T313 132Q313 269 423 269Q532 269 532 133Q532 62 504 26T422 -10Q370 -10 342 26ZM449 41T460 63T472 131Q472 177 461 197T423 218Q396 218 385 198T373 133Q373 85 385 63T423 41Q449 41
460 63Z" />
<glyph unicode="&amp;" glyph-name="ampersand" horiz-adv-x="688" d="M155 -10T99 44T42 202Q42 288 79 333T197 405Q167 438 154 470T140 543Q140 621 185 661T315 701Q400 701 443 662T487 547Q487 482 452 440T333 360L485 210Q507 273 513 372L586 371Q572
243 540 163L669 41L624 -9L503 104Q463 40 411 15T280 -10Q155 -10 99 44ZM357 434T384 463T412 541Q412 636 314 636Q215 636 215 543Q215 481 260 433L289 405Q357 434 384 463ZM343 58T385 80T451 148L240 358Q175 338 147 305T118 208Q118 132 158 95T279
58Q343 58 385 80Z" />
<glyph unicode="&apos;" glyph-name="quotesingle" horiz-adv-x="208" d="M67 692H142L137 470H70L67 692Z" />
<glyph unicode="(" glyph-name="parenleft" horiz-adv-x="264" d="M51 110T51 303Q51 497 155 750H227Q190 651 161 518T132 295Q132 212 157 103T227 -125H155Q51 110 51 303Z" />
<glyph unicode=")" glyph-name="parenright" horiz-adv-x="264" d="M37 -125Q85 6 108 107T131 294Q131 396 103 521T37 750H109Q213 496 213 303Q213 110 109 -125H37Z" />
<glyph unicode="*" glyph-name="asterisk" horiz-adv-x="420" d="M192 497L85 418L54 458L162 537L56 614L87 656L193 578L234 704L283 688L243 561H373V511H241L282 386L233 371L192 497Z" />
<glyph unicode="+" glyph-name="plus" horiz-adv-x="560" d="M244 217H55V285H244V480H314V285H505V217H314V20H244V217Z" />
<glyph unicode="," glyph-name="comma" horiz-adv-x="223" d="M80 107H163L96 -123H34L80 107Z" />
<glyph unicode="-" glyph-name="hyphen" horiz-adv-x="438" d="M68 310H371V240H68V310Z" />
<glyph unicode="." glyph-name="period" horiz-adv-x="216" d="M67 114H149V0H67V114Z" />
<glyph unicode="/" glyph-name="slash" horiz-adv-x="412" d="M32 10L314 708L381 683L99 -14L32 10Z" />
<glyph unicode="0" glyph-name="zero" horiz-adv-x="560" d="M198 -10T145 23T66 131T39 330Q39 454 65 529T145 637T280 671Q402 671 461 592T520 330Q520 206 494 131T414 23T280 -10Q198 -10 145 23ZM337 58T372 83T424 168T441 330Q441 432 424 491T372 576T280
602Q223 602 188 577T136 492T119 330Q119 228 136 169T188 84T280 58Q337 58 372 83Z" />
<glyph unicode="1" glyph-name="one" horiz-adv-x="560" d="M312 574L142 462L107 520L317 660H389V0H312V574Z" />
<glyph unicode="2" glyph-name="two" horiz-adv-x="560" d="M69 65L262 268Q308 316 333 345T377 411T395 485Q395 548 361 574T251 601Q188 601 106 584L80 579L74 643Q168 670 270 670Q373 670 423 627T474 493Q474 425 444 373T336 246L160 67H491V0H69V65Z" />
<glyph unicode="3" glyph-name="three" horiz-adv-x="560" d="M193 -10T93 10L62 17L69 80Q183 56 249 56Q326 56 370 85T414 186Q414 306 278 310H145V376H278Q307 376 334 391T380 435T398 498Q398 553 367 577T263 602Q183 602 105 587L79 582L72 643Q165 671
274 671Q381 671 429 630T477 499Q477 450 451 409T379 349Q420 334 444 316T480 268T493 189Q493 87 441 39T279 -10Q193 -10 93 10Z" />
<glyph unicode="4" glyph-name="four" horiz-adv-x="560" d="M360 129H40V189L228 660H312L121 197H360V403H437V197H521V129H437V0H360V129Z" />
<glyph unicode="5" glyph-name="five" horiz-adv-x="560" d="M196 -9T96 13L63 20L72 81Q185 59 266 59Q343 59 383 99T424 213Q424 284 389 315T284 347Q251 347 212 338T148 317L127 307L74 317L92 660H477V590H156L138 375Q215 416 293 416Q503 416 503 221Q503
110 446 51T282 -9Q196 -9 96 13Z" />
<glyph unicode="6" glyph-name="six" horiz-adv-x="560" d="M50 -10T50 333Q50 503 116 586T308 670Q389 670 462 658L489 653L482 590Q392 602 307 602Q222 602 176 543T130 374L155 384Q184 395 225 404T295 413Q517 413 517 208Q517 103 457 47T286 -10Q50
-10 50 333ZM358 58T397 96T437 206Q437 275 399 309T290 344Q259 344 219 335T152 316L129 306Q130 189 168 124T282 58Q358 58 397 96Z" />
<glyph unicode="7" glyph-name="seven" horiz-adv-x="560" d="M160 13L409 564V590H77V660H487V559L233 -10L160 13Z" />
<glyph unicode="8" glyph-name="eight" horiz-adv-x="560" d="M32 -10T32 168Q32 236 58 273T146 345Q91 373 67 407T43 500Q43 585 106 628Q167 671 278 671Q390 671 453 627T517 499Q517 438 493 406T407 345Q470 317 498 280T527 179Q527 -10 280 -10Q32 -10
32 168ZM328 375Q383 393 409 420T435 490Q435 601 280 601Q125 601 125 491Q125 447 148 420T223 375H328ZM445 60T445 187Q445 238 418 264T328 308H223Q167 293 141 263T114 181Q114 60 280 60Q445 60 445 187Z" />
<glyph unicode="9" glyph-name="nine" horiz-adv-x="560" d="M174 -10T92 4L66 8L73 70Q163 58 247 58Q427 58 429 288Q327 250 257 250Q41 250 41 451Q41 552 103 611T270 670Q509 670 509 318Q509 147 444 69T247 -10Q174 -10 92 4ZM325 318T404 345L430 354Q427
602 270 602Q200 602 161 562T121 451Q121 318 263 318Q325 318 404 345Z" />
<glyph unicode=":" glyph-name="colon" horiz-adv-x="217" d="M67 436H149V322H67V436ZM67 114H149V0H67V114Z" />
<glyph unicode=";" glyph-name="semicolon" horiz-adv-x="248" d="M87 436H169V322H87V436ZM94 107H177L110 -123H48L94 107Z" />
<glyph unicode="&lt;" glyph-name="less" horiz-adv-x="560" d="M61 218V284L477 487V409L138 252L477 92V13L61 218Z" />
<glyph unicode="=" glyph-name="equal" horiz-adv-x="560" d="M64 378H496V309H64V378ZM64 193H496V124H64V193Z" />
<glyph unicode="&gt;" glyph-name="greater" horiz-adv-x="560" d="M82 92L421 252L82 409V487L498 284V218L82 13V92Z" />
<glyph unicode="?" glyph-name="question" horiz-adv-x="447" d="M152 227T152 262Q152 294 173 323T249 399Q286 431 303 450T327 490T334 542Q334 589 302 611T201 634Q158 634 46 611L41 672Q141 702 208 702Q312 702 361 664T410 542Q410 497 403 470T378
420T322 366Q267 320 248 294T228 236V201H165Q152 227 152 262ZM154 113H236V1H154V113Z" />
<glyph unicode="@" glyph-name="at" horiz-adv-x="977" d="M385 -203T306 -181T168 -106Q51 -4 51 261Q51 498 164 610T504 723Q726 723 829 621T933 305V292Q933 174 914 110T859 20T762 -6Q666 -6 640 54Q542 -5 466 -5Q382 -5 336 46T290 233Q290 331 310 390T374
477T493 505Q537 505 590 486L608 479V495H683V304Q683 131 694 96Q702 76 712 68T732 59T767 57Q808 57 827 90T852 171T857 292V306Q857 431 821 507T708 620T503 657Q310 657 219 562T127 256Q127 113 165 28T286 -97T504 -137L647 -127L650 -194Q556 -203 504
-203Q385 -203 306 -181ZM515 61T617 107Q608 161 608 280V419Q546 439 505 439Q451 439 421 419T379 357T366 244Q366 61 471 61Q515 61 617 107Z" />
<glyph unicode="A" glyph-name="A" horiz-adv-x="596" d="M446 178H150L100 0H24L214 692H382L572 0H496L446 178ZM167 247H429L324 626H272L167 247Z" />
<glyph unicode="B" glyph-name="B" horiz-adv-x="616" d="M85 692H336Q441 692 491 649T542 513Q542 452 520 416T453 357Q509 337 536 297T563 189Q563 91 509 46T349 0H85V692ZM340 385Q403 385 433 415T463 507Q463 569 432 596T333 624H162V385H340ZM346 68Q414
68 449 97T485 191Q485 261 446 289T341 318H162V68H346Z" />
<glyph unicode="C" glyph-name="C" horiz-adv-x="544" d="M215 -10T158 29T80 145T59 346Q59 470 80 546T156 662T316 702Q397 702 503 680L500 615Q399 633 326 633Q248 633 208 605T154 515T139 335Q139 233 152 176T208 89T335 59Q404 59 500 77L503 11Q400
-10 321 -10Q215 -10 158 29Z" />
<glyph unicode="D" glyph-name="D" horiz-adv-x="645" d="M437 692T493 646T569 529T588 363Q588 173 526 87T332 0H85V692H332Q437 692 493 646ZM509 68T509 356Q509 496 466 560T332 624H162V68H332Q509 68 509 356Z" />
<glyph unicode="E" glyph-name="E" horiz-adv-x="553" d="M162 624V385H446V318H162V68H506V0H85V692H506V624H162Z" />
<glyph unicode="F" glyph-name="F" horiz-adv-x="526" d="M162 624V354H447V286H162V0H85V692H499V624H162Z" />
<glyph unicode="G" glyph-name="G" horiz-adv-x="616" d="M225 -10T167 28T83 143T57 346Q57 470 82 548T166 664T323 702Q413 702 516 682L550 676L547 612Q423 633 332 633Q256 633 214 605T154 515T137 346Q137 239 154 178T213 87T331 58Q398 58 474 72V285H359V354H550V14Q424
-10 325 -10Q225 -10 167 28Z" />
<glyph unicode="H" glyph-name="H" horiz-adv-x="675" d="M590 692V0H514V313H162V0H85V692H162V382H514V692H590Z" />
<glyph unicode="I" glyph-name="I" horiz-adv-x="246" d="M85 692H162V0H85V692Z" />
<glyph unicode="J" glyph-name="J" horiz-adv-x="289" d="M18 -3Q70 -3 92 4T122 33T131 106V692H207L208 95Q208 19 187 -17T127 -62T18 -72V-3Z" />
<glyph unicode="K" glyph-name="K" horiz-adv-x="569" d="M277 306L162 302V0H85V692H162V370L276 374L453 692H541L343 344L552 0H461L277 306Z" />
<glyph unicode="L" glyph-name="L" horiz-adv-x="479" d="M466 69V0H85V692H162V69H466Z" />
<glyph unicode="M" glyph-name="M" horiz-adv-x="840" d="M755 692V0H678V610H664L463 25H377L176 610H162V0H85V692H224L420 106L616 692H755Z" />
<glyph unicode="N" glyph-name="N" horiz-adv-x="676" d="M591 692V0H450L181 624H162V0H85V692H229L495 68H515V692H591Z" />
<glyph unicode="O" glyph-name="O" horiz-adv-x="660" d="M228 -10T168 27T83 140T57 343Q57 468 83 546T169 663T330 702Q431 702 491 664T577 547T604 341Q604 214 579 138T494 26T331 -10Q228 -10 168 27ZM407 58T448 86T507 174T524 341Q524 447 507 510T447
603T330 634Q255 634 213 604T154 511T136 343Q136 238 153 177T212 87T331 58Q407 58 448 86Z" />
<glyph unicode="P" glyph-name="P" horiz-adv-x="593" d="M85 692H338Q451 692 505 638T559 469Q559 233 338 233H162V0H85V692ZM337 301Q480 301 480 469Q480 550 446 587T337 624H162V301H337Z" />
<glyph unicode="Q" glyph-name="Q" horiz-adv-x="660" d="M414 -1Q381 -10 330 -10Q227 -10 168 27T83 140T57 343Q57 468 83 546T169 663T330 702Q431 702 491 664T577 547T604 343Q604 214 578 138T489 26L574 -111L502 -145L414 -1ZM407 58T448 86T507 174T524
341Q524 447 507 510T447 603T330 634Q255 634 213 604T154 511T136 343Q136 238 153 177T212 87T331 58Q407 58 448 86Z" />
<glyph unicode="R" glyph-name="R" horiz-adv-x="616" d="M85 692H341Q452 692 507 641T562 482Q562 321 435 281L568 0H483L358 265H162V0H85V692ZM342 333Q483 333 483 479Q483 624 341 624H162V333H342Z" />
<glyph unicode="S" glyph-name="S" horiz-adv-x="542" d="M203 -9T90 8L54 13L62 77Q199 59 269 59Q417 59 417 198Q417 236 404 258T358 294T263 320Q181 337 136 359T69 418T48 517Q48 703 271 703Q348 703 480 683L473 618Q329 635 276 635Q126 635 126 522Q126
479 140 457T190 420T301 389Q375 372 415 351T475 296T494 204Q494 -9 273 -9Q203 -9 90 8Z" />
<glyph unicode="T" glyph-name="T" horiz-adv-x="526" d="M226 623H13V692H513V623H302V0H226V623Z" />
<glyph unicode="U" glyph-name="U" horiz-adv-x="644" d="M199 -10T140 42T80 210V692H157V208Q157 58 319 58Q404 58 446 94T488 208V692H564V210Q564 96 504 43T321 -10Q199 -10 140 42Z" />
<glyph unicode="V" glyph-name="V" horiz-adv-x="582" d="M24 692H104L263 68H319L478 692H558L377 0H205L24 692Z" />
<glyph unicode="W" glyph-name="W" horiz-adv-x="886" d="M30 692H110L228 68H257L398 686H488L629 68H658L776 692H855L715 0H574L443 591L312 0H171L30 692Z" />
<glyph unicode="X" glyph-name="X" horiz-adv-x="558" d="M233 339L19 692H106L281 396L457 692H540L327 341L540 0H453L279 287L102 0H19L233 339Z" />
<glyph unicode="Y" glyph-name="Y" horiz-adv-x="538" d="M231 291L10 692H97L269 368L441 692H528L308 291V0H231V291Z" />
<glyph unicode="Z" glyph-name="Z" horiz-adv-x="536" d="M43 88L404 602V624H43V692H493V602L131 88V68H493V-1H43V88Z" />
<glyph unicode="[" glyph-name="bracketleft" horiz-adv-x="329" d="M79 749H289V682H155V-56H289V-123H79V749Z" />
<glyph unicode="\" glyph-name="backslash" horiz-adv-x="436" d="M30 678L97 707L405 14L338 -14L30 678Z" />
<glyph unicode="]" glyph-name="bracketright" horiz-adv-x="329" d="M40 -123V-56H174V682H40V749H250V-123H40Z" />
<glyph unicode="^" glyph-name="asciicircum" horiz-adv-x="560" d="M243 660H310L501 319H421L278 586L138 319H58L243 660Z" />
<glyph unicode="_" glyph-name="underscore" horiz-adv-x="632" d="M102 -92H530V-158H102V-92Z" />
<glyph unicode="`" glyph-name="grave" horiz-adv-x="236" d="M-1 676L25 740L241 642L220 591L-1 676Z" />
<glyph unicode="a" glyph-name="a" horiz-adv-x="501" d="M112 -10T76 29T40 141Q40 213 76 248T193 291L350 306V349Q350 444 268 444Q187 444 71 431L68 488Q175 510 263 510Q348 510 386 472T425 349V93Q428 56 483 49L480 -10Q401 -10 361 30Q272 -10 181
-10Q112 -10 76 29ZM260 53T327 76L350 84V249L202 235Q157 231 137 209T117 145Q117 53 193 53Q260 53 327 76Z" />
<glyph unicode="b" glyph-name="b" horiz-adv-x="526" d="M168 -9T100 -2L72 1V718H146V475Q224 510 298 510Q364 510 402 485T457 403T475 253Q475 150 453 94T380 15T234 -9Q168 -9 100 -2ZM305 57T339 76T386 138T399 255Q399 326 388 366T352 425T281 443Q226
443 146 414V62Q218 57 242 57Q305 57 339 76Z" />
<glyph unicode="c" glyph-name="c" horiz-adv-x="436" d="M177 -10T133 16T70 99T51 250Q51 369 91 440T246 511Q276 511 308 508T395 495L392 434Q313 443 271 443Q214 443 184 426T141 367T128 248Q128 175 140 135T183 76T275 57L393 66L396 4Q300 -10 252
-10Q177 -10 133 16Z" />
<glyph unicode="d" glyph-name="d" horiz-adv-x="529" d="M132 -10T91 51T50 241Q50 384 99 447T263 510Q320 510 382 497V718H456V0H382V34Q305 -10 227 -10Q132 -10 91 51ZM270 57T304 65T362 85L382 94V433Q317 445 269 445Q190 445 159 399T127 247Q127 150
152 104T241 57Q270 57 304 65Z" />
<glyph unicode="e" glyph-name="e" horiz-adv-x="505" d="M145 -10T98 49T50 237Q50 376 101 443T261 510Q361 510 410 453T460 276L456 219H126Q126 157 139 122T185 72T276 56Q305 56 343 57T412 62L441 65L443 6Q332 -10 259 -10Q145 -10 98 49ZM385 279Q385
370 356 408T261 447Q192 447 159 407T125 279H385Z" />
<glyph unicode="f" glyph-name="f" horiz-adv-x="331" d="M93 435H30V500H93V545Q93 616 106 655T148 711T228 728L329 721L328 659Q265 661 251 661T232 662Q195 662 182 632T168 544V500H313V435H168V0H93V435Z" />
<glyph unicode="g" glyph-name="g" horiz-adv-x="514" d="M143 -235T97 -202T50 -90Q50 -58 57 -38T81 -1T129 40Q115 49 108 67T101 105Q101 118 107 133T135 188Q56 223 56 338Q56 425 103 467T245 510Q291 510 347 497L495 501V437L400 439Q417 422 425 398T433
335Q433 246 387 208T242 170Q211 170 191 174Q183 154 178 139T173 113Q173 87 193 79T257 71H296Q362 71 402 61T465 21T487 -68Q487 -155 433 -195T255 -235Q143 -235 97 -202ZM306 230T332 255T358 340Q358 399 332 424T246 449Q184 449 158 424T131 339Q131
280 157 255T245 230Q306 230 332 255ZM345 -172T378 -150T411 -72Q411 -40 400 -24T363 -1T288 5L180 10Q147 -14 136 -32T124 -80Q124 -132 154 -152T262 -172Q345 -172 378 -150Z" />
<glyph unicode="h" glyph-name="h" horiz-adv-x="537" d="M72 718H147V472Q191 492 228 501T305 510Q370 510 405 487T455 410T470 264V0H395V262Q395 336 387 373T355 427T285 443Q228 443 166 420L147 413V0H72V718Z" />
<glyph unicode="i" glyph-name="i" horiz-adv-x="218" d="M72 500H146V0H72V500ZM328 700H402V613H328V700Z" />
<glyph unicode="j" glyph-name="j" horiz-adv-x="219" d="M-49 -165Q5 -134 30 -112T64 -62T73 13V500H147V12Q147 -51 133 -89T85 -158T-19 -223L-49 -165ZM329 700H403V613H329V700Z" />
<glyph unicode="k" glyph-name="k" horiz-adv-x="479" d="M72 718H147V294L225 298L368 500H453L290 270L460 0H375L226 232L147 229V0H72V718Z" />
<glyph unicode="l" glyph-name="l" horiz-adv-x="231" d="M78 718H153V0H78V718Z" />
<glyph unicode="m" glyph-name="m" horiz-adv-x="836" d="M72 500H146V465Q221 510 296 510Q337 510 370 498T422 459Q459 481 509 495T611 510Q672 510 706 486T754 408T769 264V0H694V262Q694 333 686 371T657 426T593 443Q559 443 524 435T467 415L448 406Q461
374 461 260V0H386V258Q386 332 378 370T349 426T286 443Q253 443 219 435T164 415L147 406V0H72V500Z" />
<glyph unicode="n" glyph-name="n" horiz-adv-x="537" d="M72 500H146V465Q191 490 228 500T307 510Q371 510 406 486T455 410T470 264V0H396V262Q396 333 388 371T357 426T293 443Q259 443 224 435T166 415L147 406V0H72V500Z" />
<glyph unicode="o" glyph-name="o" horiz-adv-x="528" d="M184 -10T137 16T70 99T50 247Q50 342 71 399T139 483T264 510Q343 510 389 483T457 399T478 247Q478 155 458 99T392 17T264 -10Q184 -10 137 16ZM320 55T349 73T389 132T401 247Q401 325 389 367T348
427T265 445Q211 445 182 427T140 367T127 247Q127 174 138 133T179 74T265 55Q320 55 349 73Z" />
<glyph unicode="p" glyph-name="p" horiz-adv-x="527" d="M72 500H146V464Q185 487 221 498T299 510Q392 510 434 449T477 253Q477 158 455 101T385 17T256 -10Q200 -10 147 1V-222H72V500ZM335 55T368 101T401 250Q401 352 373 397T286 443Q257 443 224 434T166
413L147 403V66Q221 55 257 55Q335 55 368 101Z" />
<glyph unicode="q" glyph-name="q" horiz-adv-x="526" d="M379 23Q309 -10 235 -10Q137 -10 94 49T50 246Q50 343 72 400T146 484T286 510L453 500V-222H379V23ZM305 57T361 79L379 86V439Q318 445 285 445Q223 445 189 424T140 360T126 245Q126 143 154 100T250
57Q305 57 361 79Z" />
<glyph unicode="r" glyph-name="r" horiz-adv-x="346" d="M72 500H146V432Q232 491 329 511V435Q290 427 245 411T172 380L147 367V0H72V500Z" />
<glyph unicode="s" glyph-name="s" horiz-adv-x="465" d="M169 -10T82 4L52 9L56 74Q173 57 228 57Q288 57 317 76T347 139Q347 170 333 186T296 209T232 222L207 226Q147 236 113 250T62 289T45 360Q45 441 94 475T233 509Q304 509 378 496L406 491L404 427Q296
443 235 443Q177 443 149 425T120 369Q120 342 134 328T170 307T234 293L259 288Q321 277 355 263T405 221T422 146Q422 65 375 28T229 -10Q169 -10 82 4Z" />
<glyph unicode="t" glyph-name="t" horiz-adv-x="351" d="M180 -11T152 5T111 61T98 172V435H27V500H98V653H172V500H331V435H172V196Q172 140 176 113T195 71T244 56L333 62L338 0Q267 -11 231 -11Q180 -11 152 5Z" />
<glyph unicode="u" glyph-name="u" horiz-adv-x="531" d="M164 -10T130 13T81 90T67 239V500H142V240Q142 165 150 127T179 73T244 57Q312 57 384 94V500H459V0H384V35Q343 11 308 1T228 -10Q164 -10 130 13Z" />
<glyph unicode="v" glyph-name="v" horiz-adv-x="481" d="M25 500H105L222 65H259L380 500H457L316 0H166L25 500Z" />
<glyph unicode="w" glyph-name="w" horiz-adv-x="762" d="M31 500H106L207 65H223L342 490H420L539 65H556L656 500H731L612 0H487L381 391L275 0H150L31 500Z" />
<glyph unicode="x" glyph-name="x" horiz-adv-x="452" d="M179 250L22 500H104L226 304L348 500H430L271 252L429 0H347L226 195L104 0H22L179 250Z" />
<glyph unicode="y" glyph-name="y" horiz-adv-x="483" d="M241 0H167L25 500H100L225 65H258L384 500H459L251 -222H176L241 0Z" />
<glyph unicode="z" glyph-name="z" horiz-adv-x="455" d="M42 67L322 433H42V500H413V433L133 67H413V0H42V67Z" />
<glyph unicode="{" glyph-name="braceleft" horiz-adv-x="352" d="M209 -124T167 -84T124 47L131 169Q131 212 106 238T24 281V342Q80 355 105 381T131 451L124 579Q124 671 166 711T311 755L312 690Q248 686 223 660T197 575L204 452Q204 408 195 383T164 341T99
312Q159 294 181 264T204 170L197 54Q197 -4 222 -31T312 -63L310 -128Q209 -124 167 -84Z" />
<glyph unicode="|" glyph-name="bar" horiz-adv-x="230" d="M78 718H152V-222H78V718Z" />
<glyph unicode="}" glyph-name="braceright" horiz-adv-x="352" d="M40 -63Q104 -59 129 -32T155 54L148 170Q148 233 170 263T253 312Q211 324 189 340T157 382T148 452L155 575Q155 633 130 659T40 690L41 755Q143 751 185 711T228 579L221 451Q221 408 246
382T328 342V281Q271 265 246 239T221 169L228 47Q228 -43 186 -83T42 -128L40 -63Z" />
<glyph unicode="~" glyph-name="asciitilde" horiz-adv-x="560" d="M351 195T277 226Q202 257 183 257Q166 257 140 246T95 222L78 210L67 272Q129 325 183 325Q212 325 287 295Q359 264 380 264Q416 264 468 298L485 310L495 249Q432 195 379 195Q351 195 277 226Z" />
<glyph unicode="&#xa0;" glyph-name="uni00A0" horiz-adv-x="220" />
<glyph unicode="&#xa1;" glyph-name="exclamdown" horiz-adv-x="228" d="M154 500V388H72V500H154ZM147 272L152 -192H73L78 272H147Z" />
<glyph unicode="&#xa2;" glyph-name="cent" horiz-adv-x="560" d="M278 36Q184 41 143 89T101 246Q101 356 144 408T278 465V583H343V462L444 450L441 390Q367 397 312 397Q238 397 209 364T179 248Q179 192 191 161T234 117T318 103L442 110L445 49Q381 39 343
38V-81H278V36Z" />
<glyph unicode="&#xa3;" glyph-name="sterling" horiz-adv-x="560" d="M80 66H165V352H98V417H165V472Q165 550 179 592T225 652T313 670Q366 670 424 658L446 653L445 592Q362 603 319 603Q287 603 270 591T246 550T238 467V417H409V352H238V66H392L469 82L482
18L400 0H80V66Z" />
<glyph unicode="&#xa4;" glyph-name="currency" horiz-adv-x="560" d="M58 83L128 153Q99 199 99 251Q99 304 128 351L58 421L111 474L181 403Q225 433 279 433Q333 433 379 403L449 474L502 421L431 351Q461 305 461 251Q461 197 431 153L502 83L449 30L379 101Q333
71 279 71Q225 71 181 101L111 30L58 83ZM327 137T361 171T395 252Q395 299 361 333T280 367Q233 367 199 333T165 252Q165 205 199 171Q233 137 280 137Q327 137 361 171Z" />
<glyph unicode="&#xa5;" glyph-name="yen" horiz-adv-x="560" d="M243 163H58V228H243V315H57V380H197L23 660H109L281 390L451 660H537L366 380H502V315H320V228H503V163H320V0H243V163Z" />
<glyph unicode="&#xa6;" glyph-name="brokenbar" horiz-adv-x="234" d="M80 718H154V344H80V718ZM80 156H154V-222H80V156Z" />
<glyph unicode="&#xa7;" glyph-name="section" horiz-adv-x="499" d="M181 -150T100 -138L70 -133L77 -70Q187 -85 241 -85Q364 -85 364 14Q364 58 335 75Q305 91 218 107Q157 118 122 135T69 180T52 255Q52 290 71 328T110 381Q66 413 66 492Q66 651 258 651Q312
651 396 638L422 634L418 571Q308 586 253 586Q196 586 168 564T139 494Q139 462 152 444T195 415T285 393Q344 382 377 367T427 324T443 251Q443 183 399 118Q436 87 436 18Q436 -150 245 -150Q181 -150 100 -138ZM349 155T358 185T367 248Q367 284 342 302T252
332Q191 342 160 354Q127 299 127 261Q127 222 152 203T245 172Q316 158 342 146Q349 155 358 185Z" />
<glyph unicode="&#xa8;" glyph-name="dieresis" horiz-adv-x="236" d="M-12 711H60V621H-12V711ZM188 711H261V621H188V711Z" />
<glyph unicode="&#xa9;" glyph-name="copyright" horiz-adv-x="645" d="M249 161T189 197T94 296T59 435Q59 511 93 573T188 671T323 707Q398 707 458 671T552 572T586 433Q586 357 552 295T459 197T324 161Q249 161 189 197ZM383 205T433 235T513 318T542 434Q542
497 513 550T434 633T323 664Q229 664 166 597Q103 530 103 434Q103 371 131 319T210 236T322 205Q383 205 433 235ZM262 276T236 313T209 434Q209 518 236 554T327 591Q366 591 394 584L404 581L400 528Q363 534 328 534Q294 534 282 513T270 436Q270 380 283
357T330 333L400 340L404 288Q367 276 326 276Q262 276 236 313Z" />
<glyph unicode="&#xaa;" glyph-name="ordfeminine" horiz-adv-x="386" d="M101 357T78 381T54 449Q54 529 150 535L238 541V563Q238 584 226 593T189 603L74 596L72 644Q141 659 195 659Q250 659 276 637T302 560V423Q312 412 332 406L330 357Q293 357 277 362T247
383Q190 357 146 357Q101 357 78 381ZM187 411T238 428V495L161 490Q139 488 130 479T120 450Q120 411 156 411Q187 411 238 428Z" />
<glyph unicode="&#xab;" glyph-name="guillemotleft" horiz-adv-x="539" d="M45 218V278L234 421V344L110 250L234 145V67L45 218ZM283 218V278L472 421V344L348 250L472 145V67L283 218Z" />
<glyph unicode="&#xac;" glyph-name="logicalnot" horiz-adv-x="560" d="M423 274H65V342H493V117H423V274Z" />
<glyph unicode="&#xae;" glyph-name="registered" horiz-adv-x="645" d="M249 161T189 197T94 296T59 435Q59 511 93 573T188 671T323 707Q398 707 458 671T552 573T586 434Q586 358 552 296T459 197T324 161Q249 161 189 197ZM384 205T434 235T513 318T542 434Q542
497 513 550T434 633T323 664Q262 664 212 634T132 551T103 435Q103 372 132 319T211 236T323 205Q384 205 434 235ZM213 585H323Q437 585 437 497Q437 453 426 432T386 397L441 282H380L330 389H271V282H213V585ZM329 436Q356 436 368 448T380 487Q380 538 318
538H270V436H329Z" />
<glyph unicode="&#xaf;" glyph-name="overscore" horiz-adv-x="236" d="M-14 683H261V624H-14V683Z" />
<glyph unicode="&#xb0;" glyph-name="degree" horiz-adv-x="560" d="M217 420T178 459T138 561Q138 624 177 663T280 702Q343 702 382 663T422 561Q422 498 383 459T280 420Q217 420 178 459ZM321 468T347 493T373 561Q373 602 347 628T280 654Q239 654 214 628T189
561Q189 519 214 494T280 468Q321 468 347 493Z" />
<glyph unicode="&#xb1;" glyph-name="plusminus" horiz-adv-x="560" d="M244 293H55V361H244V487H314V361H505V293H314V166H244V293ZM55 106H505V38H55V106Z" />
<glyph unicode="&#xb2;" glyph-name="uni00B2" horiz-adv-x="280" d="M30 533L118 620Q169 670 169 703Q169 740 120 740L35 731L33 788Q91 800 140 800Q235 800 235 709Q235 677 222 653T174 597L111 536H239V478H30V533Z" />
<glyph unicode="&#xb3;" glyph-name="uni00B3" horiz-adv-x="280" d="M30 478L34 534Q95 526 138 526Q184 526 184 569Q184 611 137 611H72V664H137Q152 664 163 677T175 708Q175 742 130 742L38 735L34 790Q90 800 136 800Q241 800 241 716Q241 666 202 643Q227
634 238 617T249 565Q249 468 143 468L30 478Z" />
<glyph unicode="&#xb4;" glyph-name="acute" horiz-adv-x="268" d="M26 642L242 740L268 676L47 591L26 642Z" />
<glyph unicode="&#xb5;" glyph-name="uni00B5" horiz-adv-x="560" d="M84 500H159V240Q159 164 167 126T197 73T264 57Q294 57 328 66T383 85L401 94V500H476V0H401V35Q326 -10 261 -10Q196 -10 159 7V-222H84V500Z" />
<glyph unicode="&#xb6;" glyph-name="paragraph" horiz-adv-x="593" d="M228 324H221Q168 324 126 347T59 412T35 507Q35 560 59 602T126 668T222 692H551V627H479V0H411V627H295V0H228V324Z" />
<glyph unicode="&#xb7;" glyph-name="middot" horiz-adv-x="217" d="M67 343H149V229H67V343Z" />
<glyph unicode="&#xb8;" glyph-name="cedilla" horiz-adv-x="263" d="M86 -217T54 -212L42 -210L45 -162Q84 -165 111 -165Q155 -165 155 -127Q155 -93 111 -93H69V1H110V-49Q171 -49 196 -65T221 -127Q221 -217 128 -217Q86 -217 54 -212Z" />
<glyph unicode="&#xb9;" glyph-name="uni00B9" horiz-adv-x="280" d="M129 720L61 673L32 720L133 790H193V478H129V720Z" />
<glyph unicode="&#xba;" glyph-name="ordmasculine" horiz-adv-x="380" d="M53 357T53 510Q53 587 87 623T191 659Q260 659 293 623T326 510Q326 357 191 357Q53 357 53 510ZM228 418T242 439T257 510Q257 559 243 578T191 598Q153 598 138 578T122 510Q122 461
138 440T191 418Q228 418 242 439Z" />
<glyph unicode="&#xbb;" glyph-name="guillemotright" horiz-adv-x="539" d="M67 145L191 250L67 344V421L256 278V218L67 67V145ZM305 145L429 250L305 344V421L494 278V218L305 67V145Z" />
<glyph unicode="&#xbc;" glyph-name="onequarter" horiz-adv-x="560" d="M208 634L193 610V478H129V507L-185 3L-224 28L129 597V720L61 673L32 720L133 790H193V644L208 634ZM535 6V-52H508V-100H445V-52H304V2L373 212H443L370 6H445L450 95H508V6H535Z" />
<glyph unicode="&#xbd;" glyph-name="onehalf" horiz-adv-x="560" d="M208 634L193 610V478H129V507L-185 3L-224 28L129 597V720L61 673L32 720L133 790H193V644L208 634ZM519 -42V-100H310V-45L398 42Q449 92 449 125Q449 162 400 162L315 153L313 210Q372 222
420 222Q515 222 515 131Q515 99 502 75T454 19L391 -42H519Z" />
<glyph unicode="&#xbe;" glyph-name="threequarters" horiz-adv-x="560" d="M-224 28L168 660L208 634L-185 3L-224 28ZM165 -52H24V2L93 212H163L90 6H165L170 95H228V6H255V-52H228V-100H165V-52ZM310 478L314 534Q375 526 418 526Q464 526 464 569Q464 611
417 611H352V664H417Q432 664 443 677T455 708Q455 742 410 742L318 735L314 790Q370 800 416 800Q521 800 521 716Q521 666 482 643Q507 634 518 617T529 565Q529 468 423 468L310 478Z" />
<glyph unicode="&#xbf;" glyph-name="questiondown" horiz-adv-x="441" d="M294 388H212V500H294V388ZM296 274T296 239Q296 207 275 178T199 102Q162 70 145 51T121 11T114 -41Q114 -88 146 -110T247 -133Q290 -133 402 -110L407 -171Q307 -201 240 -201Q136
-201 87 -163T38 -41Q38 4 45 31T70 81T126 135Q181 181 200 207T220 265V300H283Q296 274 296 239Z" />
<glyph unicode="&#xc0;" glyph-name="Agrave" horiz-adv-x="596" d="M163 865L189 931L405 831L382 778L163 865ZM446 178H150L100 0H24L214 692H382L572 0H496L446 178ZM167 247H429L324 626H272L167 247Z" />
<glyph unicode="&#xc1;" glyph-name="Aacute" horiz-adv-x="596" d="M446 178H150L100 0H24L214 692H382L572 0H496L446 178ZM167 247H429L324 626H272L167 247ZM186 831L402 931L428 865L209 778L186 831Z" />
<glyph unicode="&#xc2;" glyph-name="Acircumflex" horiz-adv-x="596" d="M446 178H150L100 0H24L214 692H382L572 0H496L446 178ZM167 247H429L324 626H272L167 247ZM264 926H329L463 791H379L297 871L214 791H130L264 926Z" />
<glyph unicode="&#xc3;" glyph-name="Atilde" horiz-adv-x="596" d="M446 178H150L100 0H24L214 692H382L572 0H496L446 178ZM167 247H429L324 626H272L167 247ZM352 803T291 830Q229 857 216 857Q194 857 155 821L142 809L125 865Q146 889 171 906T219 923Q241
923 303 896Q364 869 374 869Q394 869 432 904L444 915L462 859Q415 803 374 803Q352 803 291 830Z" />
<glyph unicode="&#xc4;" glyph-name="Adieresis" horiz-adv-x="596" d="M446 178H150L100 0H24L214 692H382L572 0H496L446 178ZM167 247H429L324 626H272L167 247ZM159 898H232V808H159V898ZM363 898H435V808H363V898Z" />
<glyph unicode="&#xc5;" glyph-name="Aring" horiz-adv-x="596" d="M446 178H150L100 0H24L208 669Q178 697 178 744Q178 793 211 821T297 849Q350 849 382 821T415 744Q415 700 388 671L572 0H496L446 178ZM235 797T235 744Q235 724 246 710T277 692H317Q337
696 348 710T359 744Q359 769 343 783T297 797Q235 797 235 744ZM167 247H429L324 626H272L167 247Z" />
<glyph unicode="&#xc6;" glyph-name="AE" horiz-adv-x="876" d="M244 696H829V623H484V393H769V320H484V73H829V0H408V175H157L99 0H20L244 696ZM408 249L409 623H300L178 249H408Z" />
<glyph unicode="&#xc7;" glyph-name="Ccedilla" horiz-adv-x="544" d="M400 -10T322 -10V-49Q383 -49 408 -65T433 -127Q433 -217 340 -217Q298 -217 266 -212L254 -210L257 -162Q296 -165 323 -165Q367 -165 367 -127Q367 -93 323 -93H281V-8Q192 -1 144 41T77
156T59 346Q59 470 80 546T156 662T316 702Q397 702 503 680L500 615Q399 633 326 633Q248 633 208 605T154 515T139 335Q139 233 152 176T208 89T335 59Q404 59 500 77L503 11Q400 -10 322 -10Z" />
<glyph unicode="&#xc8;" glyph-name="Egrave" horiz-adv-x="553" d="M162 624V385H446V318H162V68H506V0H85V692H506V624H162ZM169 865L195 931L411 831L388 778L169 865Z" />
<glyph unicode="&#xc9;" glyph-name="Eacute" horiz-adv-x="553" d="M162 624V385H446V318H162V68H506V0H85V692H506V624H162ZM176 831L392 931L418 865L199 778L176 831Z" />
<glyph unicode="&#xca;" glyph-name="Ecircumflex" horiz-adv-x="553" d="M162 624V385H446V318H162V68H506V0H85V692H506V624H162ZM261 926H326L460 791H376L294 871L211 791H127L261 926Z" />
<glyph unicode="&#xcb;" glyph-name="Edieresis" horiz-adv-x="553" d="M162 624V385H446V318H162V68H506V0H85V692H506V624H162ZM157 898H230V808H157V898ZM361 898H433V808H361V898Z" />
<glyph unicode="&#xcc;" glyph-name="Igrave" horiz-adv-x="246" d="M85 692H162V0H85V692ZM236 865L262 931L478 831L455 778L236 865Z" />
<glyph unicode="&#xcd;" glyph-name="Iacute" horiz-adv-x="246" d="M85 692H162V0H85V692ZM12 831L228 931L254 865L35 778L12 831Z" />
<glyph unicode="&#xce;" glyph-name="Icircumflex" horiz-adv-x="246" d="M85 692H162V0H85V692ZM343 926H408L542 791H458L376 871L293 791H209L343 926Z" />
<glyph unicode="&#xcf;" glyph-name="Idieresis" horiz-adv-x="246" d="M85 692H162V0H85V692ZM-15 898H58V808H-15V898ZM189 898H261V808H189V898Z" />
<glyph unicode="&#xd0;" glyph-name="Eth" horiz-adv-x="647" d="M88 311H20V384H88V696H335Q471 696 531 612T591 359Q591 175 527 88T335 0H88V311ZM335 73Q511 73 511 359Q511 496 468 559T335 623H164V384H322V311H164V73H335Z" />
<glyph unicode="&#xd1;" glyph-name="Ntilde" horiz-adv-x="676" d="M591 692V0H450L181 624H162V0H85V692H229L495 68H515V692H591ZM394 803T333 830Q271 857 258 857Q236 857 197 821L184 809L167 865Q188 889 213 906T261 923Q283 923 345 896Q406 869 416
869Q436 869 474 904L486 915L504 859Q457 803 416 803Q394 803 333 830Z" />
<glyph unicode="&#xd2;" glyph-name="Ograve" horiz-adv-x="660" d="M228 -10T168 27T83 140T57 343Q57 468 83 546T169 663T330 702Q431 702 491 664T577 547T604 341Q604 214 579 138T494 26T331 -10Q228 -10 168 27ZM407 58T448 86T507 174T524 341Q524 447
507 510T447 603T330 634Q255 634 213 604T154 511T136 343Q136 238 153 177T212 87T331 58Q407 58 448 86ZM201 865L227 931L443 831L420 778L201 865Z" />
<glyph unicode="&#xd3;" glyph-name="Oacute" horiz-adv-x="660" d="M228 -10T168 27T83 140T57 343Q57 468 83 546T169 663T330 702Q431 702 491 664T577 547T604 341Q604 214 579 138T494 26T331 -10Q228 -10 168 27ZM407 58T448 86T507 174T524 341Q524 447
507 510T447 603T330 634Q255 634 213 604T154 511T136 343Q136 238 153 177T212 87T331 58Q407 58 448 86ZM198 831L414 931L440 865L221 778L198 831Z" />
<glyph unicode="&#xd4;" glyph-name="Ocircumflex" horiz-adv-x="660" d="M228 -10T168 27T83 140T57 343Q57 468 83 546T169 663T330 702Q431 702 491 664T577 547T604 341Q604 214 579 138T494 26T331 -10Q228 -10 168 27ZM407 58T448 86T507 174T524 341Q524
447 507 510T447 603T330 634Q255 634 213 604T154 511T136 343Q136 238 153 177T212 87T331 58Q407 58 448 86ZM298 926H363L497 791H413L331 871L248 791H164L298 926Z" />
<glyph unicode="&#xd5;" glyph-name="Otilde" horiz-adv-x="660" d="M228 -10T168 27T83 140T57 343Q57 468 83 546T169 663T330 702Q431 702 491 664T577 547T604 341Q604 214 579 138T494 26T331 -10Q228 -10 168 27ZM407 58T448 86T507 174T524 341Q524 447
507 510T447 603T330 634Q255 634 213 604T154 511T136 343Q136 238 153 177T212 87T331 58Q407 58 448 86ZM386 803T325 830Q263 857 250 857Q228 857 189 821L176 809L159 865Q180 889 205 906T253 923Q275 923 337 896Q398 869 408 869Q428 869 466 904L478
915L496 859Q449 803 408 803Q386 803 325 830Z" />
<glyph unicode="&#xd6;" glyph-name="Odieresis" horiz-adv-x="660" d="M228 -10T168 27T83 140T57 343Q57 468 83 546T169 663T330 702Q431 702 491 664T577 547T604 341Q604 214 579 138T494 26T331 -10Q228 -10 168 27ZM407 58T448 86T507 174T524 341Q524
447 507 510T447 603T330 634Q255 634 213 604T154 511T136 343Q136 238 153 177T212 87T331 58Q407 58 448 86ZM192 898H265V808H192V898ZM396 898H468V808H396V898Z" />
<glyph unicode="&#xd7;" glyph-name="multiply" horiz-adv-x="560" d="M292 254L449 97L401 49L244 206L87 49L39 97L196 254L39 411L87 459L244 302L401 459L449 411L292 254Z" />
<glyph unicode="&#xd8;" glyph-name="Oslash" horiz-adv-x="660" d="M96 -90L155 36Q103 75 80 149T57 343Q57 468 83 546T169 663T330 702Q405 702 456 681L512 799L570 775L511 648Q604 570 604 343Q604 215 579 139T494 26T330 -10Q263 -10 210 7L153 -116L96
-90ZM426 615Q389 634 330 634Q254 634 213 604T154 509T136 331Q136 166 188 108L426 615ZM407 58T448 86T507 176T524 349Q524 510 476 574L241 72Q277 58 330 58Q407 58 448 86Z" />
<glyph unicode="&#xd9;" glyph-name="Ugrave" horiz-adv-x="644" d="M199 -10T140 42T80 210V692H157V208Q157 58 319 58Q404 58 446 94T488 208V692H564V210Q564 96 504 43T321 -10Q199 -10 140 42ZM196 865L222 931L438 831L415 778L196 865Z" />
<glyph unicode="&#xda;" glyph-name="Uacute" horiz-adv-x="644" d="M199 -10T140 42T80 210V692H157V208Q157 58 319 58Q404 58 446 94T488 208V692H564V210Q564 96 504 43T321 -10Q199 -10 140 42ZM199 831L415 931L441 865L222 778L199 831Z" />
<glyph unicode="&#xdb;" glyph-name="Ucircumflex" horiz-adv-x="644" d="M199 -10T140 42T80 210V692H157V208Q157 58 319 58Q404 58 446 94T488 208V692H564V210Q564 96 504 43T321 -10Q199 -10 140 42ZM289 926H354L488 791H404L322 871L239 791H155L289 926Z" />
<glyph unicode="&#xdc;" glyph-name="Udieresis" horiz-adv-x="644" d="M199 -10T140 42T80 210V692H157V208Q157 58 319 58Q404 58 446 94T488 208V692H564V210Q564 96 504 43T321 -10Q199 -10 140 42ZM184 898H257V808H184V898ZM388 898H460V808H388V898Z" />
<glyph unicode="&#xdd;" glyph-name="Yacute" horiz-adv-x="538" d="M231 291L10 692H97L269 368L441 692H528L308 291V0H231V291ZM167 831L383 931L409 865L190 778L167 831Z" />
<glyph unicode="&#xde;" glyph-name="Thorn" horiz-adv-x="599" d="M85 696H162V584H338Q451 584 505 529T560 360Q560 244 504 183T338 121H162V0H85V696ZM337 195Q481 195 481 361Q481 439 447 474T337 510H162V195H337Z" />
<glyph unicode="&#xdf;" glyph-name="germandbls" horiz-adv-x="574" d="M291 -10T228 1L207 5L210 68Q300 57 332 57Q401 57 431 82T461 159Q461 192 453 211T422 245T354 282Q289 313 266 337T243 399Q243 435 260 455T319 494Q358 511 371 529T384 587Q384
626 358 643T267 661Q221 661 196 650T159 612T147 536V0H72V545Q72 645 117 686T267 728Q371 728 416 694T462 584Q462 532 444 504T384 457Q348 441 335 432T321 406Q321 396 323 391T336 380T364 363Q371 359 384 352T419 332Q487 298 513 266T539 177Q539 108
520 68T456 9T338 -10Q291 -10 228 1Z" />
<glyph unicode="&#xe0;" glyph-name="agrave" horiz-adv-x="501" d="M112 -10T76 29T40 141Q40 213 76 248T193 291L350 306V349Q350 444 268 444Q187 444 71 431L68 488Q175 510 263 510Q348 510 386 472T425 349V93Q428 56 483 49L480 -10Q401 -10 361 30Q272
-10 181 -10Q112 -10 76 29ZM260 53T327 76L350 84V249L202 235Q157 231 137 209T117 145Q117 53 193 53Q260 53 327 76ZM121 676L147 740L363 642L342 591L121 676Z" />
<glyph unicode="&#xe1;" glyph-name="aacute" horiz-adv-x="501" d="M112 -10T76 29T40 141Q40 213 76 248T193 291L350 306V349Q350 444 268 444Q187 444 71 431L68 488Q175 510 263 510Q348 510 386 472T425 349V93Q428 56 483 49L480 -10Q401 -10 361 30Q272
-10 181 -10Q112 -10 76 29ZM260 53T327 76L350 84V249L202 235Q157 231 137 209T117 145Q117 53 193 53Q260 53 327 76ZM118 642L334 740L360 676L139 591L118 642Z" />
<glyph unicode="&#xe2;" glyph-name="acircumflex" horiz-adv-x="501" d="M112 -10T76 29T40 141Q40 213 76 248T193 291L350 306V349Q350 444 268 444Q187 444 71 431L68 488Q175 510 263 510Q348 510 386 472T425 349V93Q428 56 483 49L480 -10Q401 -10 361
30Q272 -10 181 -10Q112 -10 76 29ZM260 53T327 76L350 84V249L202 235Q157 231 137 209T117 145Q117 53 193 53Q260 53 327 76ZM218 732H269L393 592H318L245 679L170 592H95L218 732Z" />
<glyph unicode="&#xe3;" glyph-name="atilde" horiz-adv-x="501" d="M112 -10T76 29T40 141Q40 213 76 248T193 291L350 306V349Q350 444 268 444Q187 444 71 431L68 488Q175 510 263 510Q348 510 386 472T425 349V93Q428 56 483 49L480 -10Q401 -10 361 30Q272
-10 181 -10Q112 -10 76 29ZM260 53T327 76L350 84V249L202 235Q157 231 137 209T117 145Q117 53 193 53Q260 53 327 76ZM286 612T235 636Q181 659 170 659Q147 659 108 629L95 619L77 667Q126 719 168 719Q187 719 241 696Q295 673 305 673Q325 673 363 702L376
711L393 663Q346 612 307 612Q286 612 235 636Z" />
<glyph unicode="&#xe4;" glyph-name="adieresis" horiz-adv-x="501" d="M112 -10T76 29T40 141Q40 213 76 248T193 291L350 306V349Q350 444 268 444Q187 444 71 431L68 488Q175 510 263 510Q348 510 386 472T425 349V93Q428 56 483 49L480 -10Q401 -10 361 30Q272
-10 181 -10Q112 -10 76 29ZM260 53T327 76L350 84V249L202 235Q157 231 137 209T117 145Q117 53 193 53Q260 53 327 76ZM105 711H177V621H105V711ZM305 711H378V621H305V711Z" />
<glyph unicode="&#xe5;" glyph-name="aring" horiz-adv-x="501" d="M112 -10T76 29T40 141Q40 213 76 248T193 291L350 306V349Q350 444 268 444Q187 444 71 431L68 488Q175 510 263 510Q348 510 386 472T425 349V93Q428 56 483 49L480 -10Q401 -10 361 30Q272
-10 181 -10Q112 -10 76 29ZM260 53T327 76L350 84V249L202 235Q157 231 137 209T117 145Q117 53 193 53Q260 53 327 76ZM212 541T183 571T154 646Q154 689 183 719T255 749Q298 749 327 719T356 646Q356 602 327 572T255 541Q212 541 183 571ZM278 589T294 605T310
646Q310 669 294 685T255 702Q232 702 216 686T200 646Q200 622 216 606T255 589Q278 589 294 605Z" />
<glyph unicode="&#xe6;" glyph-name="ae" horiz-adv-x="804" d="M109 -10T75 29T40 146Q40 198 57 227T114 272T221 294L350 306V347Q350 438 263 438Q203 438 104 430L73 428L70 495Q189 510 267 510Q369 510 402 437Q450 510 555 510Q660 510 709 453T759 276L755
218H425Q425 137 455 98T547 58Q615 58 710 65L739 67L741 6Q632 -10 538 -10Q448 -10 400 44L368 30Q282 -10 176 -10Q109 -10 75 29ZM684 279Q684 368 655 405T559 443Q491 443 458 404T425 279H684ZM229 55T278 68T348 92V245L202 233Q158 229 138 208T117 145Q117
55 188 55Q229 55 278 68Z" />
<glyph unicode="&#xe7;" glyph-name="ccedilla" horiz-adv-x="436" d="M310 -49T335 -65T360 -127Q360 -217 267 -217Q225 -217 193 -212L181 -210L184 -162Q223 -165 250 -165Q294 -165 294 -127Q294 -93 250 -93H208V-7Q122 3 87 63T51 250Q51 369 91 440T246
511Q276 511 308 508T395 495L392 434Q313 443 271 443Q214 443 184 426T141 367T128 248Q128 175 140 135T183 76T275 57L393 66L396 4Q300 -10 252 -10H249V-49Q310 -49 335 -65Z" />
<glyph unicode="&#xe8;" glyph-name="egrave" horiz-adv-x="505" d="M145 -10T98 49T50 237Q50 376 101 443T261 510Q361 510 410 453T460 276L456 219H126Q126 157 139 122T185 72T276 56Q305 56 343 57T412 62L441 65L443 6Q332 -10 259 -10Q145 -10 98 49ZM385
279Q385 370 356 408T261 447Q192 447 159 407T125 279H385ZM121 676L147 740L363 642L342 591L121 676Z" />
<glyph unicode="&#xe9;" glyph-name="eacute" horiz-adv-x="505" d="M145 -10T98 49T50 237Q50 376 101 443T261 510Q361 510 410 453T460 276L456 219H126Q126 157 139 122T185 72T276 56Q305 56 343 57T412 62L441 65L443 6Q332 -10 259 -10Q145 -10 98 49ZM385
279Q385 370 356 408T261 447Q192 447 159 407T125 279H385ZM145 642L361 740L387 676L166 591L145 642Z" />
<glyph unicode="&#xea;" glyph-name="ecircumflex" horiz-adv-x="505" d="M145 -10T98 49T50 237Q50 376 101 443T261 510Q361 510 410 453T460 276L456 219H126Q126 157 139 122T185 72T276 56Q305 56 343 57T412 62L441 65L443 6Q332 -10 259 -10Q145 -10 98
49ZM385 279Q385 370 356 408T261 447Q192 447 159 407T125 279H385ZM235 732H286L410 592H335L262 679L187 592H112L235 732Z" />
<glyph unicode="&#xeb;" glyph-name="edieresis" horiz-adv-x="505" d="M145 -10T98 49T50 237Q50 376 101 443T261 510Q361 510 410 453T460 276L456 219H126Q126 157 139 122T185 72T276 56Q305 56 343 57T412 62L441 65L443 6Q332 -10 259 -10Q145 -10 98 49ZM385
279Q385 370 356 408T261 447Q192 447 159 407T125 279H385ZM120 711H192V621H120V711ZM320 711H393V621H320V711Z" />
<glyph unicode="&#xec;" glyph-name="igrave" horiz-adv-x="218" d="M72 500H146V0H72V500ZM196 676L222 740L438 642L417 591L196 676Z" />
<glyph unicode="&#xed;" glyph-name="iacute" horiz-adv-x="218" d="M72 500H146V0H72V500ZM38 642L254 740L280 676L59 591L38 642Z" />
<glyph unicode="&#xee;" glyph-name="icircumflex" horiz-adv-x="218" d="M72 500H146V0H72V500ZM337 732H388L512 592H437L364 679L289 592H214L337 732Z" />
<glyph unicode="&#xef;" glyph-name="idieresis" horiz-adv-x="218" d="M72 500H146V0H72V500ZM225 711H297V621H225V711ZM425 711H498V621H425V711Z" />
<glyph unicode="&#xf0;" glyph-name="eth" horiz-adv-x="548" d="M158 -9T100 48T42 210Q42 314 97 372T252 430Q317 430 392 403L417 394Q409 525 280 601L158 520L125 567L220 631Q162 655 96 672L111 728Q210 709 284 674L385 742L419 695L342 643Q496 546
496 352Q496 222 473 143T399 28T265 -9Q158 -9 100 48ZM323 59T355 84T402 168T418 327Q328 363 260 363Q193 363 157 322T121 210Q121 138 158 99T271 59Q323 59 355 84Z" />
<glyph unicode="&#xf1;" glyph-name="ntilde" horiz-adv-x="537" d="M72 500H146V465Q191 490 228 500T307 510Q371 510 406 486T455 410T470 264V0H396V262Q396 333 388 371T357 426T293 443Q259 443 224 435T166 415L147 406V0H72V500ZM328 612T277 636Q223
659 212 659Q189 659 150 629L137 619L119 667Q168 719 210 719Q229 719 283 696Q337 673 347 673Q367 673 405 702L418 711L435 663Q388 612 349 612Q328 612 277 636Z" />
<glyph unicode="&#xf2;" glyph-name="ograve" horiz-adv-x="528" d="M184 -10T137 16T70 99T50 247Q50 342 71 399T139 483T264 510Q343 510 389 483T457 399T478 247Q478 155 458 99T392 17T264 -10Q184 -10 137 16ZM320 55T349 73T389 132T401 247Q401 325 389
367T348 427T265 445Q211 445 182 427T140 367T127 247Q127 174 138 133T179 74T265 55Q320 55 349 73ZM141 676L167 740L383 642L362 591L141 676Z" />
<glyph unicode="&#xf3;" glyph-name="oacute" horiz-adv-x="528" d="M184 -10T137 16T70 99T50 247Q50 342 71 399T139 483T264 510Q343 510 389 483T457 399T478 247Q478 155 458 99T392 17T264 -10Q184 -10 137 16ZM320 55T349 73T389 132T401 247Q401 325 389
367T348 427T265 445Q211 445 182 427T140 367T127 247Q127 174 138 133T179 74T265 55Q320 55 349 73ZM154 642L370 740L396 676L175 591L154 642Z" />
<glyph unicode="&#xf4;" glyph-name="ocircumflex" horiz-adv-x="528" d="M184 -10T137 16T70 99T50 247Q50 342 71 399T139 483T264 510Q343 510 389 483T457 399T478 247Q478 155 458 99T392 17T264 -10Q184 -10 137 16ZM320 55T349 73T389 132T401 247Q401
325 389 367T348 427T265 445Q211 445 182 427T140 367T127 247Q127 174 138 133T179 74T265 55Q320 55 349 73ZM236 732H287L411 592H336L263 679L188 592H113L236 732Z" />
<glyph unicode="&#xf5;" glyph-name="otilde" horiz-adv-x="528" d="M184 -10T137 16T70 99T50 247Q50 342 71 399T139 483T264 510Q343 510 389 483T457 399T478 247Q478 155 458 99T392 17T264 -10Q184 -10 137 16ZM320 55T349 73T389 132T401 247Q401 325 389
367T348 427T265 445Q211 445 182 427T140 367T127 247Q127 174 138 133T179 74T265 55Q320 55 349 73ZM314 612T263 636Q209 659 198 659Q175 659 136 629L123 619L105 667Q154 719 196 719Q215 719 269 696Q323 673 333 673Q353 673 391 702L404 711L421 663Q374
612 335 612Q314 612 263 636Z" />
<glyph unicode="&#xf6;" glyph-name="odieresis" horiz-adv-x="528" d="M184 -10T137 16T70 99T50 247Q50 342 71 399T139 483T264 510Q343 510 389 483T457 399T478 247Q478 155 458 99T392 17T264 -10Q184 -10 137 16ZM320 55T349 73T389 132T401 247Q401 325
389 367T348 427T265 445Q211 445 182 427T140 367T127 247Q127 174 138 133T179 74T265 55Q320 55 349 73ZM125 711H197V621H125V711ZM325 711H398V621H325V711Z" />
<glyph unicode="&#xf7;" glyph-name="divide" horiz-adv-x="560" d="M242 605H317V504H242V605ZM120 354H439V281H120V354ZM242 131H317V30H242V131Z" />
<glyph unicode="&#xf8;" glyph-name="oslash" horiz-adv-x="528" d="M95 -94L139 15Q91 42 71 99T50 256Q50 390 99 450T264 510Q301 510 338 502L381 606L431 587L388 483Q478 434 478 256Q478 159 458 102T392 17T264 -10Q225 -10 188 -2L145 -112L95 -94ZM314
439L264 445Q188 445 158 405T127 273Q127 193 134 148T169 80L314 439ZM321 55T350 73T390 135T401 261Q401 379 359 417L213 60Q233 55 264 55Q321 55 350 73Z" />
<glyph unicode="&#xf9;" glyph-name="ugrave" horiz-adv-x="531" d="M164 -10T130 13T81 90T67 239V500H142V240Q142 165 150 127T179 73T244 57Q312 57 384 94V500H459V0H384V35Q343 11 308 1T228 -10Q164 -10 130 13ZM114 676L140 740L356 642L335 591L114 676Z" />
<glyph unicode="&#xfa;" glyph-name="uacute" horiz-adv-x="531" d="M164 -10T130 13T81 90T67 239V500H142V240Q142 165 150 127T179 73T244 57Q312 57 384 94V500H459V0H384V35Q343 11 308 1T228 -10Q164 -10 130 13ZM155 642L371 740L397 676L176 591L155 642Z" />
<glyph unicode="&#xfb;" glyph-name="ucircumflex" horiz-adv-x="531" d="M164 -10T130 13T81 90T67 239V500H142V240Q142 165 150 127T179 73T244 57Q312 57 384 94V500H459V0H384V35Q343 11 308 1T228 -10Q164 -10 130 13ZM228 732H279L403 592H328L255 679L180
592H105L228 732Z" />
<glyph unicode="&#xfc;" glyph-name="udieresis" horiz-adv-x="531" d="M164 -10T130 13T81 90T67 239V500H142V240Q142 165 150 127T179 73T244 57Q312 57 384 94V500H459V0H384V35Q343 11 308 1T228 -10Q164 -10 130 13ZM132 711H204V621H132V711ZM332 711H405V621H332V711Z"
/>
<glyph unicode="&#xfd;" glyph-name="yacute" horiz-adv-x="483" d="M241 0H167L25 500H100L225 65H258L384 500H459L251 -222H176L241 0ZM154 642L370 740L396 676L175 591L154 642Z" />
<glyph unicode="&#xfe;" glyph-name="thorn" horiz-adv-x="527" d="M72 718H147V475Q223 510 293 510Q361 510 401 485T458 405T476 252Q476 154 455 98T384 16T248 -10L147 -3V-222H72V718ZM306 55T339 74T386 136T399 252Q399 323 389 364T354 424T286 443Q226
443 166 421L147 414V61Q212 55 244 55Q306 55 339 74Z" />
<glyph unicode="&#xff;" glyph-name="ydieresis" horiz-adv-x="483" d="M241 0H167L25 500H100L225 65H258L384 500H459L251 -222H176L241 0ZM104 711H176V621H104V711ZM304 711H377V621H304V711Z" />
<glyph unicode="&#x2013;" glyph-name="endash" horiz-adv-x="631" d="M66 301H566V235H66V301Z" />
<glyph unicode="&#x2014;" glyph-name="emdash" horiz-adv-x="1131" d="M66 301H1066V235H66V301Z" />
<glyph unicode="&#x2018;" glyph-name="quoteleft" horiz-adv-x="219" d="M115 708H174L130 489H51L115 708Z" />
<glyph unicode="&#x2019;" glyph-name="quoteright" horiz-adv-x="216" d="M112 489H53L97 708H176L112 489Z" />
<glyph unicode="&#x201a;" glyph-name="quotesinglbase" horiz-adv-x="218" d="M81 22H93L84 -21H68L81 22Z" />
<glyph unicode="&#x201c;" glyph-name="quotedblleft" horiz-adv-x="373" d="M115 708H174L130 489H51L115 708ZM268 708H327L283 489H204L268 708Z" />
<glyph unicode="&#x201d;" glyph-name="quotedblright" horiz-adv-x="377" d="M119 490H60L104 709H183L119 490ZM272 490H213L257 709H336L272 490Z" />
<glyph unicode="&#x201e;" glyph-name="quotedblbase" horiz-adv-x="359" d="M86 112H145L101 -107H22L86 112ZM239 112H298L254 -107H175L239 112Z" />
<glyph unicode="&#x2022;" glyph-name="bullet" horiz-adv-x="473" d="M111 392H361V106H111V392Z" />
<glyph unicode="&#x2039;" glyph-name="guilsinglleft" horiz-adv-x="301" d="M45 218V278L234 421V344L110 250L234 145V67L45 218Z" />
<glyph unicode="&#x203a;" glyph-name="guilsinglright" horiz-adv-x="301" d="M67 145L191 250L67 344V421L256 278V218L67 67V145Z" />
</font>
</defs>
</svg>
