<svg xmlns="http://www.w3.org/2000/svg" xmlns:xlink="http://www.w3.org/1999/xlink" viewBox="0 0 1500 1150" width="1500" height="1150" data-forced-size="true">
    <style>
        image { 
            width: calc(100% - 100px);
            height: calc(100% - 100px);
        }
    </style>
    <defs>
        <linearGradient id="linear-gradient" x1="5711.39" y1="1238.26" x2="5711.39" y2="1177.5" gradientTransform="translate(7209.89 2255.54) rotate(180)" gradientUnits="userSpaceOnUse">
            <stop offset="0" stop-color="#2b2b2b"/>
            <stop offset="0.03" stop-color="#858585"/>
            <stop offset="0.05" stop-color="#bfbfbf"/>
            <stop offset="0.15" stop-color="#8c8c8c"/>
            <stop offset="0.85" stop-color="#8c8c8c"/>
            <stop offset="0.95" stop-color="#bfbfbf"/>
            <stop offset="0.97" stop-color="#858585"/>
            <stop offset="1" stop-color="#2b2b2b"/>
        </linearGradient>
        <linearGradient id="linear-gradient-2" x1="100.38" y1="522.62" x2="100.38" y2="470.59" gradientTransform="translate(868.7 1248.88) rotate(-90)" xlink:href="#linear-gradient"/>
        <linearGradient id="linear-gradient-3" x1="100.38" y1="458.84" x2="100.38" y2="406.81" gradientTransform="translate(868.7 1248.88) rotate(-90)" xlink:href="#linear-gradient"/>
        <radialGradient id="radial_gradient" data-name="Dégradé sans nom 33" cx="748.49" cy="-148.22" r="6.2" gradientTransform="translate(1324.86 -175) rotate(90)" gradientUnits="userSpaceOnUse">
            <stop offset="0" stop-color="#6d7f86"/>
            <stop offset="0.05" stop-color="#5c6c76"/>
            <stop offset="0.15" stop-color="#414e5b"/>
            <stop offset="0.26" stop-color="#2b3445"/>
            <stop offset="0.37" stop-color="#1a2134"/>
            <stop offset="0.51" stop-color="#0e1328"/>
            <stop offset="0.68" stop-color="#070b21"/>
            <stop offset="1" stop-color="#05091f"/>
        </radialGradient>
        <path id="filterPath" d="M0.0333,0.9537V0.0437H0.9646V0.9537Z"/>
    </defs>
    <path d="M1490,1076.94V70.06a63,63,0,0,0-63-63H70.05A63,63,0,0,0,7,70.06V1076.94a63.05,63.05,0,0,0,63.05,63H1427A63,63,0,0,0,1490,1076.94Z"/>
    <svg viewBox="0 0 1 1" id="preview" preserveAspectRatio="none">
        <use xlink:href="#filterPath" fill="darkgrey"/>
    </svg>
    <image xlink:href="" preserveAspectRatio="xMidYMin slice" x="48" y="49">
        <animateMotion dur="1ms" repeatCount="indefinite"/>
    </image>
    <g id="device">
        <path d="M1497,1076.94V70.06A70.14,70.14,0,0,0,1427,0H70.05A70.13,70.13,0,0,0,0,70.06V1076.94A70.13,70.13,0,0,0,70.05,1147H1427A70.14,70.14,0,0,0,1497,1076.94Zm-17.8-72.21v70.13c0,34.68-16.81,55.17-57.79,55.17H81.3c-26.79,0-65.49-1.58-65.49-61.48v-991c0-59.9,38.7-61.47,65.49-61.47H1421.41c41,0,57.79,20.49,57.79,55.16v933.45Z" fill="#6f6f6f"/>
        <path d="M1495.6,1076.94V70.06A68.73,68.73,0,0,0,1427,1.4H70.05A68.73,68.73,0,0,0,1.4,70.06V1076.94a68.73,68.73,0,0,0,68.65,68.66H1427A68.73,68.73,0,0,0,1495.6,1076.94Zm-16.4-72.21v70.13c0,34.68-16.81,55.17-57.79,55.17H81.3c-26.79,0-65.49-1.58-65.49-61.48v-991c0-59.9,38.7-61.47,65.49-61.47H1421.41c41,0,57.79,20.49,57.79,55.16v933.45Z" fill="#949494"/>
        <path d="M1494.2,1076.94V70.06A67.33,67.33,0,0,0,1427,2.8H70.05A67.33,67.33,0,0,0,2.8,70.06V1076.94a67.33,67.33,0,0,0,67.25,67.25H1427A67.33,67.33,0,0,0,1494.2,1076.94Zm-15-72.21v70.13c0,34.68-16.81,55.17-57.79,55.17H81.3c-26.79,0-65.49-1.58-65.49-61.48v-991c0-59.9,38.7-61.47,65.49-61.47H1421.41c41,0,57.79,20.49,57.79,55.16v933.45Z" fill="#bfbfbf"/>
        <path d="M1492.79,1076.94V70.06A65.92,65.92,0,0,0,1427,4.2H70.05A65.93,65.93,0,0,0,4.2,70.06V1076.94a65.92,65.92,0,0,0,65.85,65.85H1427A65.92,65.92,0,0,0,1492.79,1076.94Zm-13.59-72.21v70.13c0,34.68-16.81,55.17-57.79,55.17H81.3c-26.79,0-65.49-1.58-65.49-61.48v-991c0-59.9,38.7-61.47,65.49-61.47H1421.41c41,0,57.79,20.49,57.79,55.16v933.45Z" fill="#949494"/>
        <path d="M1491.39,1076.94V70.06A64.52,64.52,0,0,0,1427,5.61H70.05A64.51,64.51,0,0,0,5.61,70.06V1076.94a64.51,64.51,0,0,0,64.44,64.45H1427A64.52,64.52,0,0,0,1491.39,1076.94ZM70.05,1140a63.05,63.05,0,0,1-63-63V70.06A63,63,0,0,1,70.05,7H1427a63,63,0,0,1,63,63.05V1076.94a63,63,0,0,1-63,63Z" fill="#6f6f6f"/>
        <path d="M1490,1076.94V70.06a63,63,0,0,0-63-63H70.05A63,63,0,0,0,7,70.06V1076.94a63.05,63.05,0,0,0,63.05,63H1427A63,63,0,0,0,1490,1076.94ZM65.16,50.23H1431.83a15.06,15.06,0,0,1,15.07,15.06V1081.71a15.07,15.07,0,0,1-15.07,15.06H65.16a15.07,15.07,0,0,1-15.07-15.06V65.29A15.07,15.07,0,0,1,65.16,50.23Z"/>
        <g id="details">
            <path d="M1497,1078h1.73a1.27,1.27,0,0,0,1.27-1.27v-58.22a1.27,1.27,0,0,0-1.27-1.27H1497Z" fill="url(#linear-gradient)"/>
            <path d="M1339.29,1147v1.73a1.27,1.27,0,0,0,1.27,1.27h49.49a1.27,1.27,0,0,0,1.27-1.27V1147Z" fill="url(#linear-gradient-2)"/>
            <path d="M1275.5,1147v1.73a1.28,1.28,0,0,0,1.28,1.27h49.48a1.27,1.27,0,0,0,1.28-1.27V1147Z" fill="url(#linear-gradient-3)"/>
            <g>
                <path d="M1473.2,582.28a8.78,8.78,0,1,1,8.78-8.78A8.78,8.78,0,0,1,1473.2,582.28Z" fill="#202022"/>
                <circle cx="1473.2" cy="573.49" r="6.21" fill="url(#radial_gradient)"/>
            </g>
        </g>
        <path d="M1339.29,1148.73a1.27,1.27,0,0,0,1.27,1.27h49.49a1.27,1.27,0,0,0,1.27-1.27V1147H1427a70.14,70.14,0,0,0,70-70.06v1.1h1.73a1.27,1.27,0,0,0,1.27-1.27v-58.22a1.27,1.27,0,0,0-1.27-1.27H1497V70.06A70.14,70.14,0,0,0,1427,0H70.05A70.13,70.13,0,0,0,0,70.06V1076.94A70.13,70.13,0,0,0,70.05,1147H1275.5v1.73a1.28,1.28,0,0,0,1.28,1.27h49.48a1.27,1.27,0,0,0,1.28-1.27V1147h11.75ZM86.48,1130.46c-26.79,0-65.49-1.58-65.49-61.48V78c0-59.9,38.7-61.48,65.49-61.48h1340.1c41,0,57.79,20.49,57.79,55.17V1075.29c0,34.67-16.81,55.17-57.79,55.17Z" fill="#383E45" style="mix-blend-mode: overlay" opacity="0.75"/>
    </g>
</svg>
