<svg xmlns="http://www.w3.org/2000/svg" xmlns:xlink="http://www.w3.org/1999/xlink" viewBox="0 0 1150 1500" width="1150" height="1500" data-forced-size="true">
    <style>
        image { 
            width: calc(100% - 101px);
            height: calc(100% - 101px);
        }
    </style>
    <defs>
        <linearGradient id="linear-gradient" x1="3491.05" y1="697.62" x2="3491.05" y2="645.59" gradientTransform="translate(4639.55 806.3) rotate(180)" gradientUnits="userSpaceOnUse">
            <stop offset="0" stop-color="#2b2b2b"/>
            <stop offset="0.03" stop-color="#858585"/>
            <stop offset="0.05" stop-color="#bfbfbf"/>
            <stop offset="0.15" stop-color="#8c8c8c"/>
            <stop offset="0.85" stop-color="#8c8c8c"/>
            <stop offset="0.95" stop-color="#bfbfbf"/>
            <stop offset="0.97" stop-color="#858585"/>
            <stop offset="1" stop-color="#2b2b2b"/>
        </linearGradient>
        <linearGradient id="linear-gradient-2" x1="3491.05" y1="633.84" x2="3491.05" y2="581.81" xlink:href="#linear-gradient"/>
        <linearGradient id="linear-gradient-3" x1="7319.23" y1="3196.1" x2="7319.23" y2="3135.34" gradientTransform="translate(4213.38 -7317.73) rotate(90)" xlink:href="#linear-gradient"/>
        <radialGradient id="radial_gradient" cx="573.49" cy="26.78" r="6.2" gradientUnits="userSpaceOnUse">
            <stop offset="0" stop-color="#6d7f86"/>
            <stop offset="0.05" stop-color="#5c6c76"/>
            <stop offset="0.15" stop-color="#414e5b"/>
            <stop offset="0.26" stop-color="#2b3445"/>
            <stop offset="0.37" stop-color="#1a2134"/>
            <stop offset="0.51" stop-color="#0e1328"/>
            <stop offset="0.68" stop-color="#070b21"/>
            <stop offset="1" stop-color="#05091f"/>
        </radialGradient>
        <path id="filterPath" d="M0.9537,0.9666H0.0437V0.0354H0.9537Z"/>
    </defs>
    <path d="M1076.94,10H70.06a63,63,0,0,0-63,63V1430a63,63,0,0,0,63.05,63H1076.94a63.05,63.05,0,0,0,63-63V73.05A63,63,0,0,0,1076.94,10Z"/>
    <svg viewBox="0 0 1 1" id="preview" preserveAspectRatio="none">
        <use xlink:href="#filterPath" fill="darkgrey"/>
    </svg>
    <image xlink:href="" preserveAspectRatio="xMidYMin slice" x="49" y="52"/>
    <g id="device">
        <path d="M1076.94,3H70.06A70.14,70.14,0,0,0,0,73.05V1430a70.13,70.13,0,0,0,70.06,70H1076.94a70.13,70.13,0,0,0,70.06-70V73.05A70.14,70.14,0,0,0,1076.94,3Zm-72.21,17.8h70.13c34.68,0,55.17,16.81,55.17,57.79V1418.7c0,26.79-1.58,65.49-61.48,65.49h-991c-59.9,0-61.47-38.7-61.47-65.49V78.59c0-41,20.49-57.79,55.16-57.79h933.45Z" fill="#6f6f6f"/>
        <path d="M1076.94,4.4H70.06A68.73,68.73,0,0,0,1.4,73.05V1430a68.73,68.73,0,0,0,68.66,68.65H1076.94A68.73,68.73,0,0,0,1145.6,1430V73.05A68.73,68.73,0,0,0,1076.94,4.4Zm-72.21,16.4h70.13c34.68,0,55.17,16.81,55.17,57.79V1418.7c0,26.79-1.58,65.49-61.48,65.49h-991c-59.9,0-61.47-38.7-61.47-65.49V78.59c0-41,20.49-57.79,55.16-57.79h933.45Z" fill="#949494"/>
        <path d="M1076.94,5.8H70.06A67.33,67.33,0,0,0,2.8,73.05V1430a67.33,67.33,0,0,0,67.26,67.25H1076.94a67.33,67.33,0,0,0,67.25-67.25V73.05A67.33,67.33,0,0,0,1076.94,5.8Zm-72.21,15h70.13c34.68,0,55.17,16.81,55.17,57.79V1418.7c0,26.79-1.58,65.49-61.48,65.49h-991c-59.9,0-61.47-38.7-61.47-65.49V78.59c0-41,20.49-57.79,55.16-57.79h933.45Z" fill="#bfbfbf"/>
        <path d="M1076.94,7.21H70.06A65.92,65.92,0,0,0,4.2,73.05V1430a65.93,65.93,0,0,0,65.86,65.85H1076.94a65.92,65.92,0,0,0,65.85-65.85V73.05A65.92,65.92,0,0,0,1076.94,7.21ZM1004.73,20.8h70.13c34.68,0,55.17,16.81,55.17,57.79V1418.7c0,26.79-1.58,65.49-61.48,65.49h-991c-59.9,0-61.47-38.7-61.47-65.49V78.59c0-41,20.49-57.79,55.16-57.79h933.45Z" fill="#949494"/>
        <path d="M1076.94,8.61H70.06A64.52,64.52,0,0,0,5.61,73.05V1430a64.51,64.51,0,0,0,64.45,64.44H1076.94a64.51,64.51,0,0,0,64.45-64.44V73.05A64.52,64.52,0,0,0,1076.94,8.61ZM1140,1430a63.05,63.05,0,0,1-63,63H70.06a63,63,0,0,1-63-63V73.05A63,63,0,0,1,70.06,10H1076.94a63,63,0,0,1,63,63Z" fill="#6f6f6f"/>
        <path d="M1076.94,10H70.06a63,63,0,0,0-63,63V1430a63,63,0,0,0,63.05,63H1076.94a63.05,63.05,0,0,0,63-63V73.05A63,63,0,0,0,1076.94,10ZM50.23,1434.84V68.17A15.06,15.06,0,0,1,65.29,53.1H1081.71a15.07,15.07,0,0,1,15.06,15.07V1434.84a15.07,15.07,0,0,1-15.06,15.07H65.29A15.07,15.07,0,0,1,50.23,1434.84Z"/>
        <g id="details">
            <path d="M1147,160.71h1.73a1.27,1.27,0,0,0,1.27-1.27V110a1.27,1.27,0,0,0-1.27-1.27H1147Z" fill="url(#linear-gradient)"/>
            <path d="M1147,224.5h1.73a1.28,1.28,0,0,0,1.27-1.28V173.74a1.27,1.27,0,0,0-1.27-1.28H1147Z" fill="url(#linear-gradient-2)"/>
            <path d="M1078,3V1.27A1.27,1.27,0,0,0,1076.77,0h-58.22a1.27,1.27,0,0,0-1.27,1.27V3Z" fill="url(#linear-gradient-3)"/>
            <g>
                <path d="M582.28,26.8A8.78,8.78,0,1,1,573.5,18,8.78,8.78,0,0,1,582.28,26.8Z" fill="#202022"/>
                <circle cx="573.49" cy="26.8" r="6.21" fill="url(#radial_gradient)"/>
            </g>
        </g>
        <path d="M1148.73,160.71a1.27,1.27,0,0,0,1.27-1.27V110a1.27,1.27,0,0,0-1.27-1.27H1147V73.05a70.14,70.14,0,0,0-70.06-70h1.1V1.27A1.27,1.27,0,0,0,1076.77,0h-58.22a1.27,1.27,0,0,0-1.27,1.27V3H70.06A70.14,70.14,0,0,0,0,73.05V1430a70.13,70.13,0,0,0,70.06,70H1076.94a70.13,70.13,0,0,0,70.06-70V224.5h1.73a1.28,1.28,0,0,0,1.27-1.28V173.74a1.27,1.27,0,0,0-1.27-1.28H1147V160.71Zm-18.7,1258c0,26.79-1.58,65.49-61.48,65.49h-991c-59.9,0-61.48-38.7-61.48-65.49V78.59c0-41,20.5-63.41,55.17-63.41h933.45c5.95,0,70.13,5.62,70.13,5.62,34.68,0,55.17,16.81,55.17,57.79Z" fill="#383E45" style="mix-blend-mode: overlay" opacity="0.75"/>
    </g>
</svg>
