<svg viewBox="0 0 465 462" xmlns="http://www.w3.org/2000/svg">
<path d="M456.969 9.84743L454.026 6.90425C444.956 -2.16512 429.098 -1.01124 418.605 9.48152L10.8984 417.188C0.405681 427.681 -0.748186 443.539 8.32118 452.609L11.2644 455.552C20.3337 464.621 36.1919 463.467 46.6847 452.975L454.392 45.2678C464.884 34.775 466.038 18.9168 456.969 9.84743Z"/>
<path d="M346.673 26.269H39.1908C17.8303 26.269 0.5 43.6036 0.5 64.9695V322.973C0.5 336.409 7.35309 348.251 17.752 355.19L114.47 258.472H62.9696C56.9597 258.472 52.0878 253.601 52.0878 247.591V88.7515C52.0878 82.7417 56.9597 77.8697 62.9696 77.8697H295.072L346.673 26.269Z"/>
<path d="M296.331 258.472H402.32C408.33 258.472 413.202 253.601 413.202 247.591V141.602L464.79 90.0139V322.973C464.79 344.339 447.46 361.674 426.099 361.674H271.336L284.233 400.375H342.269C352.949 400.375 361.614 409.042 361.614 419.725C361.614 430.408 352.949 439.075 342.269 439.075H123.021C120.837 439.075 118.734 438.708 116.771 438.033L154.429 400.375H181.057L193.954 361.674H193.13L226.244 328.56C228.268 329.181 230.417 329.516 232.645 329.516C244.665 329.516 254.409 319.772 254.409 307.753C254.409 305.525 254.074 303.376 253.452 301.352L296.331 258.472Z"/>
</svg>
