<svg viewBox="0 0 513 457" xmlns="http://www.w3.org/2000/svg">
<path d="M43.1667 0.887085H469.833C493.389 0.887085 512.5 20.003 512.5 43.5645V328.081C512.5 351.642 493.389 370.758 469.833 370.758H299.167L313.389 413.435H377.389C389.167 413.435 398.722 422.993 398.722 434.774C398.722 446.555 389.167 456.113 377.389 456.113H135.611C123.878 456.113 114.278 446.51 114.278 434.774C114.278 423.038 123.878 413.435 135.611 413.435H199.611L213.833 370.758H43.1667C19.6111 370.758 0.5 351.642 0.5 328.081V43.5645C0.5 20.003 19.6111 0.887085 43.1667 0.887085ZM443.611 256.952C450.239 256.952 455.611 251.579 455.611 244.952V69.7903C455.611 63.1629 450.239 57.7903 443.611 57.7903H69.3889C62.7615 57.7903 57.3889 63.1629 57.3889 69.7903V244.952C57.3889 251.579 62.7615 256.952 69.3889 256.952H443.611ZM256.5 335.296C269.755 335.296 280.5 324.551 280.5 311.296C280.5 298.041 269.755 287.296 256.5 287.296C243.245 287.296 232.5 298.041 232.5 311.296C232.5 324.551 243.245 335.296 256.5 335.296Z"/>
</svg>
