<svg width="220" height="80" viewBox="0 0 220 80" fill="none" xmlns="http://www.w3.org/2000/svg">
<path d="M10 11C10 10.4477 10.4477 10 11 10H209C209.552 10 210 10.4477 210 11V56H10V11Z" fill="white"/>
<rect x="156" y="34" width="12" height="3" rx="1" fill="#2B2B33"/>
<rect x="156" y="48" width="18" height="2" rx="1" fill="#2B2B33"/>
<rect x="180" y="48" width="18" height="2" rx="1" fill="#2B2B33"/>
<rect x="156" y="44" width="18" height="2" rx="1" fill="#2B2B33"/>
<rect x="180" y="44" width="18" height="2" rx="1" fill="#2B2B33"/>
<rect x="156" y="40" width="18" height="2" rx="1" fill="#2B2B33"/>
<rect x="180" y="40" width="18" height="2" rx="1" fill="#2B2B33"/>
<rect x="102" y="34" width="12" height="3" rx="1" fill="#2B2B33"/>
<rect x="102" y="48" width="18" height="2" rx="1" fill="#2B2B33"/>
<rect x="126" y="48" width="18" height="2" rx="1" fill="#2B2B33"/>
<rect x="102" y="44" width="18" height="2" rx="1" fill="#2B2B33"/>
<rect x="126" y="44" width="18" height="2" rx="1" fill="#2B2B33"/>
<rect x="102" y="40" width="18" height="2" rx="1" fill="#2B2B33"/>
<rect x="126" y="40" width="18" height="2" rx="1" fill="#2B2B33"/>
<rect x="22" y="29" width="176" height="1" fill="#D9D9D9"/>
<path d="M10 56H210V69C210 69.5523 209.552 70 209 70H11C10.4477 70 10 69.5523 10 69V56Z" fill="#D9D9D9"/>
<circle cx="24" cy="63" r="2" fill="#2B2B33"/>
<circle cx="30" cy="63" r="2" fill="#2B2B33"/>
<circle cx="36" cy="63" r="2" fill="#2B2B33"/>
<circle cx="42" cy="63" r="2" fill="#2B2B33"/>
<circle cx="48" cy="63" r="2" fill="#2B2B33"/>
<rect x="22" y="34" width="36" height="3" rx="1" fill="#2B2B33"/>
<rect x="22" y="40" width="68" height="2" rx="1" fill="#2B2B33"/>
<rect x="22" y="44" width="42" height="2" rx="1" fill="#2B2B33"/>
<rect x="48" y="48" width="42" height="2" rx="1" fill="#2B2B33"/>
<rect x="66" y="44" width="24" height="2" rx="1" fill="#2B2B33"/>
<rect x="22" y="48" width="24" height="2" rx="1" fill="#2B2B33"/>
<circle cx="29" cy="21" r="5" fill="#00B2CA"/>
</svg>
