<svg xmlns="http://www.w3.org/2000/svg" xmlns:xlink="http://www.w3.org/1999/xlink" width="234" height="60" viewBox="0 0 234 60">
  <defs>
    <linearGradient id="linearGradient-1" x1="0%" x2="100%" y1="47.717%" y2="52.283%">
      <stop offset="0%" stop-color="#00A09D"/>
      <stop offset="100%" stop-color="#00E2FF"/>
    </linearGradient>
    <rect id="path-2" width="234" height="50" x="0" y="5"/>
  </defs>
  <g fill="none" fill-rule="evenodd" class="footer_template_links">
    <g class="rectangle">
      <use fill="#000" fill-opacity=".14" xlink:href="#path-2"/>
      <use fill="url(#linearGradient-1)" fill-opacity=".3" xlink:href="#path-2"/>
    </g>
    <g fill="#FFF" class="group_2" opacity=".804" transform="translate(20 17)">
      <g class="group_copy_3" transform="translate(128)">
        <rect width="23" height="4" class="rectangle" rx="1"/>
        <rect width="23" height="4" class="rectangle" rx="1" transform="translate(0 8)"/>
        <rect width="23" height="4" class="rectangle" rx="1" transform="translate(0 16)"/>
        <rect width="23" height="4" class="rectangle" rx="1" transform="translate(0 24)"/>
      </g>
      <g class="group_copy_2" transform="translate(85)">
        <rect width="23" height="4" class="rectangle" rx="1"/>
        <rect width="23" height="4" class="rectangle" rx="1" transform="translate(0 8)"/>
        <rect width="23" height="4" class="rectangle" rx="1" transform="translate(0 16)"/>
        <rect width="23" height="4" class="rectangle" rx="1" transform="translate(0 24)"/>
      </g>
      <g class="group_copy" transform="translate(43)">
        <rect width="23" height="4" class="rectangle" rx="1"/>
        <rect width="23" height="4" class="rectangle" rx="1" transform="translate(0 8)"/>
        <rect width="23" height="4" class="rectangle" rx="1" transform="translate(0 16)"/>
        <rect width="23" height="4" class="rectangle" rx="1" transform="translate(0 24)"/>
      </g>
      <g class="group">
        <rect width="23" height="4" class="rectangle" rx="1"/>
        <rect width="23" height="4" class="rectangle" rx="1" transform="translate(0 8)"/>
        <rect width="23" height="4" class="rectangle" rx="1" transform="translate(0 16)"/>
        <rect width="23" height="4" class="rectangle" rx="1" transform="translate(0 24)"/>
      </g>
      <g class="link" transform="translate(171)">
        <rect width="23" height="22" class="rectangle" rx="1"/>
      </g>
    </g>
  </g>
</svg>
