<svg xmlns="http://www.w3.org/2000/svg" width="234" height="60" viewBox="0 0 234 60">
    <rect y="5" width="234" height="50" fill="url(#bg_gradient)"/>
    <rect x="87" y="28" width="10" height="4" rx="1" fill="white"/>
    <rect x="101" y="28" width="13" height="4" rx="1" fill="white"/>
    <rect x="118" y="28" width="15" height="4" rx="1" fill="white"/>
    <rect x="137" y="28" width="10" height="4" rx="1" fill="white"/>
    <path d="M30.2055 34.8673V32.9638H26.4222V27.1317H24V34.8683L30.2055 34.8673ZM34.2306 35C35.0999 35 35.8274 34.8387 36.41 34.5172C36.9793 34.2088 37.4444 33.7386 37.7466 33.1659C38.0558 32.5871 38.2098 31.8461 38.2098 30.9418C38.2098 29.6966 37.8568 28.728 37.1507 28.037C36.4447 27.346 35.4397 27 34.1337 27C32.8614 27 31.8686 27.3521 31.1544 28.0554C30.4412 28.7596 30.0851 29.7425 30.0851 31.0051C30.0851 31.9094 30.2647 32.6627 30.6259 33.2638C30.985 33.866 31.4554 34.3049 32.0339 34.5825C32.6145 34.8612 33.346 35 34.2306 35ZM34.15 33.2108C33.6439 33.2108 33.243 33.0403 32.9491 32.6994C32.6553 32.3575 32.5083 31.7971 32.5083 31.0153C32.5083 30.2274 32.6563 29.6629 32.9522 29.321C33.2481 28.9811 33.6399 28.8107 34.1286 28.8107C34.6387 28.8107 35.0428 28.9781 35.3407 29.3139C35.6376 29.6507 35.7866 30.1814 35.7866 30.9102C35.7866 31.7757 35.6437 32.3759 35.3581 32.7096C35.0734 33.0434 34.6704 33.2108 34.15 33.2108ZM42.6094 35C43.3654 35 44.0184 34.9132 44.5694 34.7387C45.1204 34.5652 45.755 34.2365 46.4713 33.7548V30.456H42.7267V32.0656H44.348V32.7943C44.0819 32.9572 43.7986 33.09 43.5032 33.1904C43.2521 33.2682 42.9906 33.3071 42.7277 33.3057C42.1564 33.3057 41.7115 33.1261 41.3922 32.7678C41.0738 32.4085 40.9136 31.8104 40.9136 30.9735C40.9136 30.1855 41.0718 29.6098 41.3871 29.2455C41.7034 28.8811 42.1258 28.6994 42.6573 28.6994C43.0145 28.6994 43.3073 28.777 43.5379 28.9311C43.7674 29.0862 43.9307 29.3088 44.0276 29.6017L46.3641 29.1904C46.2213 28.6902 46.0091 28.2779 45.7254 27.9523C45.4369 27.6238 45.0681 27.3759 44.6551 27.2327C44.2266 27.0776 43.5777 27 42.7114 27C41.8125 27 41.0973 27.1245 40.5657 27.3746C39.9119 27.6732 39.3691 28.1708 39.0148 28.7964C38.6618 29.421 38.4853 30.1559 38.4853 31C38.4853 31.8022 38.6465 32.5126 38.9689 33.1322C39.2687 33.7278 39.7452 34.2162 40.3331 34.5305C40.9198 34.8428 41.6789 35 42.6094 35ZM51.0208 35C51.8911 35 52.6176 34.8387 53.2002 34.5172C53.7694 34.2088 54.2345 33.7386 54.5368 33.1659C54.8459 32.5871 55 31.8461 55 30.9418C55 29.6966 54.647 28.728 53.9409 28.037C53.2349 27.346 52.2299 27 50.9239 27C49.6515 27 48.6588 27.3521 47.9446 28.0554C47.2314 28.7596 46.8753 29.7425 46.8753 31.0051C46.8753 31.9094 47.0549 32.6627 47.4161 33.2638C47.7752 33.866 48.2456 34.3049 48.8241 34.5825C49.4046 34.8612 50.1362 35 51.0208 35ZM50.9402 33.2108C50.4341 33.2108 50.0342 33.0403 49.7393 32.6994C49.4454 32.3575 49.2985 31.7971 49.2985 31.0153C49.2985 30.2274 49.4465 29.6629 49.7424 29.321C50.0382 28.9811 50.43 28.8107 50.9188 28.8107C51.4289 28.8107 51.833 28.9781 52.1309 29.3139C52.4288 29.6507 52.5768 30.1814 52.5768 30.9102C52.5768 31.7757 52.4339 32.3759 52.1493 32.7096C51.8636 33.0434 51.4606 33.2108 50.9402 33.2108Z" fill="white"/>
    <circle cx="206.5" cy="30.5" r="4.5" fill="white"/>
    <circle cx="192.5" cy="30.5" r="4.5" fill="white"/>
    <circle cx="178.5" cy="30.5" r="4.5" fill="white"/>
    <defs>
        <linearGradient id="bg_gradient" x1="0" y1="5" x2="234" y2="55" gradientUnits="userSpaceOnUse">
            <stop stop-color="#357C83"/>
            <stop offset="1" stop-color="#01A09D"/>
        </linearGradient>
    </defs>
</svg>
