<svg width="220" height="80" viewBox="0 0 220 80" fill="none" xmlns="http://www.w3.org/2000/svg">
<path d="M10 32C10 31.4477 10.4477 31 11 31H209C209.552 31 210 31.4477 210 32V69C210 69.5523 209.552 70 209 70H11C10.4477 70 10 69.5523 10 69V32Z" fill="white"/>
<rect x="144" y="62" width="12" height="2" rx="1" fill="#2B2B33"/>
<rect x="158" y="62" width="12" height="2" rx="1" fill="#2B2B33"/>
<rect x="172" y="62" width="12" height="2" rx="1" fill="#2B2B33"/>
<rect x="186" y="62" width="12" height="2" rx="1" fill="#2B2B33"/>
<rect x="10" y="10" width="200" height="18" rx="1" fill="white" fill-opacity="0.2"/>
<rect x="158" y="37" width="40" height="19" rx="3" fill="#D9D9D9"/>
<rect x="166" y="43" width="12" height="2" rx="1" fill="#2B2B33"/>
<rect x="166" y="47" width="24" height="3" rx="1" fill="#2B2B33"/>
<rect x="67" y="37" width="40" height="19" rx="3" fill="#D9D9D9"/>
<rect x="75" y="43" width="12" height="2" rx="1" fill="#2B2B33"/>
<rect x="75" y="47" width="24" height="3" rx="1" fill="#2B2B33"/>
<rect x="113" y="37" width="39" height="19" rx="3" fill="#D9D9D9"/>
<rect x="121" y="43" width="12" height="2" rx="1" fill="#2B2B33"/>
<rect x="121" y="47" width="24" height="3" rx="1" fill="#2B2B33"/>
<rect x="22" y="37" width="39" height="19" rx="3" fill="#D9D9D9"/>
<rect x="30" y="43" width="12" height="2" rx="1" fill="#2B2B33"/>
<rect x="30" y="47" width="24" height="3" rx="1" fill="#2B2B33"/>
</svg>
