<svg width="220" height="80" viewBox="0 0 220 80" fill="none" xmlns="http://www.w3.org/2000/svg">
<path d="M10 39C10 38.4477 10.4477 38 11 38H209C209.552 38 210 38.4477 210 39V69C210 69.5523 209.552 70 209 70H11C10.4477 70 10 69.5523 10 69V39Z" fill="white"/>
<rect x="22" y="44" width="12" height="3" rx="1" fill="#2B2B33"/>
<rect x="168" y="44" width="18" height="3" rx="1" fill="#2B2B33"/>
<rect x="22" y="50" width="24" height="2" rx="1" fill="#2B2B33"/>
<rect x="168" y="50" width="30" height="2" rx="1" fill="#2B2B33"/>
<rect x="22" y="54" width="24" height="2" rx="1" fill="#2B2B33"/>
<rect x="22" y="58" width="24" height="2" rx="1" fill="#2B2B33"/>
<rect x="70" y="44" width="18" height="3" rx="1" fill="#2B2B33"/>
<rect x="70" y="50" width="60" height="2" rx="1" fill="#2B2B33"/>
<rect x="70" y="62" width="27" height="2" rx="1" fill="#2B2B33"/>
<rect x="70" y="54" width="40" height="2" rx="1" fill="#2B2B33"/>
<rect x="90" y="58" width="40" height="2" rx="1" fill="#2B2B33"/>
<rect x="112" y="54" width="18" height="2" rx="1" fill="#2B2B33"/>
<rect x="70" y="58" width="18" height="2" rx="1" fill="#2B2B33"/>
<rect x="168" y="54" width="30" height="2" rx="1" fill="#2B2B33"/>
<rect x="22" y="62" width="24" height="2" rx="1" fill="#2B2B33"/>
<rect x="10" y="10" width="200" height="25" rx="1" fill="white" fill-opacity="0.2"/>
<circle cx="170" cy="62" r="2" fill="#2B2B33"/>
<circle cx="176" cy="62" r="2" fill="#2B2B33"/>
<circle cx="182" cy="62" r="2" fill="#2B2B33"/>
</svg>
