<svg xmlns="http://www.w3.org/2000/svg" width="234" height="60" viewBox="0 0 234 60">
    <rect y="5" width="234" height="50" fill="url(#bg_gradient)"/>
    <path fill-rule="evenodd" clip-rule="evenodd" d="M234 55H0V5H234V55ZM11 10C8.23858 10 6 12.2386 6 15V45C6 47.7614 8.23858 50 11 50H223C225.761 50 228 47.7614 228 45V15C228 12.2386 225.761 10 223 10H11Z" fill="white"/>
    <rect x="181" y="20" width="30" height="12" rx="1" fill="white"/>
    <rect x="138" y="28" width="28" height="4" rx="1" fill="white"/>
    <rect x="138" y="20" width="28" height="4" rx="1" fill="white"/>
    <rect x="100" y="28" width="23" height="4" rx="1" fill="white"/>
    <rect x="100" y="36" width="23" height="4" rx="1" fill="white"/>
    <rect x="100" y="20" width="23" height="4" rx="1" fill="white"/>
    <rect x="24" y="28" width="23" height="4" rx="1" fill="white"/>
    <rect x="24" y="36" width="23" height="4" rx="1" fill="white"/>
    <rect x="24" y="20" width="23" height="4" rx="1" fill="white"/>
    <rect x="62" y="28" width="23" height="4" rx="1" fill="white"/>
    <rect x="62" y="36" width="23" height="4" rx="1" fill="white"/>
    <rect x="62" y="20" width="23" height="4" rx="1" fill="white"/>
    <defs>
        <linearGradient id="bg_gradient" x1="0" y1="5" x2="234" y2="55" gradientUnits="userSpaceOnUse">
            <stop stop-color="#357C83"/>
            <stop offset="1" stop-color="#01A09D"/>
        </linearGradient>
    </defs>
</svg>
