<svg width="220" height="80" viewBox="0 0 220 80" fill="none" xmlns="http://www.w3.org/2000/svg">
<path d="M10 11C10 10.4477 10.4477 10 11 10H209C209.552 10 210 10.4477 210 11V69C210 69.5523 209.552 70 209 70H11C10.4477 70 10 69.5523 10 69V11Z" fill="white"/>
<rect x="22" y="16" width="54" height="24" rx="1" fill="#D9D9D9"/>
<rect x="82" y="16" width="56" height="24" rx="1" fill="#D9D9D9"/>
<rect x="144" y="16" width="54" height="24" rx="1" fill="#D9D9D9"/>
<path d="M172.771 34.5752L179.58 28.0635L192.044 40H145C144.448 40 144 39.5523 144 39V38.9297L160.664 23L172.771 34.5752Z" fill="#2B2B33"/>
<rect x="28" y="20" width="18" height="3" rx="1" fill="#2B2B33"/>
<rect x="28" y="34" width="30" height="2" rx="1" fill="#2B2B33"/>
<rect x="28" y="30" width="30" height="2" rx="1" fill="#2B2B33"/>
<rect x="28" y="26" width="30" height="2" rx="1" fill="#2B2B33"/>
<rect x="22" y="43" width="54" height="21" rx="1" fill="#D9D9D9"/>
<rect x="144" y="43" width="54" height="21" rx="1" fill="#D9D9D9"/>
<rect x="28" y="47" width="18" height="3" rx="1" fill="#2B2B33"/>
<rect x="28" y="57" width="42" height="2" rx="1" fill="#2B2B33"/>
<rect x="28" y="53" width="42" height="2" rx="1" fill="#2B2B33"/>
<rect x="82" y="43" width="56" height="21" rx="1" fill="#D9D9D9"/>
<rect x="88" y="47" width="18" height="3" rx="1" fill="#2B2B33"/>
<rect x="88" y="57" width="44" height="2" rx="1" fill="#2B2B33"/>
<rect x="88" y="53" width="44" height="2" rx="1" fill="#2B2B33"/>
<rect x="88" y="20" width="18" height="3" rx="1" fill="#2B2B33"/>
<rect x="88" y="34" width="30" height="2" rx="1" fill="#2B2B33"/>
<rect x="88" y="30" width="30" height="2" rx="1" fill="#2B2B33"/>
<rect x="88" y="26" width="30" height="2" rx="1" fill="#2B2B33"/>
<circle cx="152" cy="55" r="2" fill="#2B2B33"/>
<circle cx="158" cy="55" r="2" fill="#2B2B33"/>
<circle cx="164" cy="55" r="2" fill="#2B2B33"/>
<rect x="150" y="47" width="18" height="3" rx="1" fill="#2B2B33"/>
<circle cx="170" cy="55" r="2" fill="#2B2B33"/>
</svg>
