<svg width="220" height="80" viewBox="0 0 220 80" fill="none" xmlns="http://www.w3.org/2000/svg">
<path d="M10 11C10 10.4477 10.4477 10 11 10H209C209.552 10 210 10.4477 210 11V56H10V11Z" fill="white"/>
<rect x="82" y="18" width="18" height="3" rx="1" fill="#2B2B33"/>
<rect x="22" y="18" width="12" height="3" rx="1" fill="#2B2B33"/>
<rect x="52" y="18" width="12" height="3" rx="1" fill="#2B2B33"/>
<rect x="22" y="36" width="18" height="2" rx="1" fill="#2B2B33"/>
<rect x="52" y="36" width="18" height="2" rx="1" fill="#2B2B33"/>
<rect x="82" y="36" width="24" height="2" rx="1" fill="#2B2B33"/>
<rect x="22" y="32" width="18" height="2" rx="1" fill="#2B2B33"/>
<rect x="52" y="32" width="18" height="2" rx="1" fill="#2B2B33"/>
<rect x="82" y="32" width="30" height="2" rx="1" fill="#2B2B33"/>
<rect x="22" y="28" width="18" height="2" rx="1" fill="#2B2B33"/>
<rect x="52" y="28" width="18" height="2" rx="1" fill="#2B2B33"/>
<rect x="82" y="28" width="18" height="2" rx="1" fill="#2B2B33"/>
<rect x="22" y="24" width="18" height="2" rx="1" fill="#2B2B33"/>
<rect x="52" y="24" width="18" height="2" rx="1" fill="#2B2B33"/>
<rect x="82" y="24" width="30" height="2" rx="1" fill="#2B2B33"/>
<rect x="22" y="41" width="176" height="1" fill="#D9D9D9"/>
<path d="M10 56H210V69C210 69.5523 209.552 70 209 70H11C10.4477 70 10 69.5523 10 69V56Z" fill="#D9D9D9"/>
<circle cx="24" cy="63" r="2" fill="#2B2B33"/>
<circle cx="30" cy="63" r="2" fill="#2B2B33"/>
<circle cx="36" cy="63" r="2" fill="#2B2B33"/>
<circle cx="192" cy="24" r="6" fill="#00B2CA"/>
<rect x="22" y="45" width="36" height="6" rx="1" fill="#2B2B33"/>
<rect x="158" y="62" width="12" height="2" rx="1" fill="#2B2B33"/>
<rect x="172" y="62" width="12" height="2" rx="1" fill="#2B2B33"/>
<rect x="186" y="62" width="12" height="2" rx="1" fill="#2B2B33"/>
</svg>
