<svg xmlns="http://www.w3.org/2000/svg" width="234" height="60" viewBox="0 0 234 60">
    <rect y="5" width="234" height="50" fill="url(#bg_gradient)"/>
    <rect x="42" y="32" width="40" height="4" rx="1" fill="white"/>
    <rect x="152" y="32" width="40" height="4" rx="1" fill="white"/>
    <rect x="42" y="39" width="40" height="4" rx="1" fill="white"/>
    <rect x="152" y="39" width="40" height="4" rx="1" fill="white"/>
    <path d="M108.605 40.8839V39.2183H105.188V34.1152H103V40.8848L108.605 40.8839ZM112.241 41C113.026 41 113.683 40.8589 114.209 40.5776C114.723 40.3077 115.143 39.8962 115.416 39.3951C115.696 38.8887 115.835 38.2404 115.835 37.4491C115.835 36.3595 115.516 35.512 114.878 34.9074C114.24 34.3028 113.333 34 112.153 34C111.004 34 110.107 34.3081 109.462 34.9234C108.818 35.5397 108.496 36.3997 108.496 37.5045C108.496 38.2957 108.658 38.9548 108.985 39.4809C109.309 40.0078 109.734 40.3918 110.256 40.6347C110.781 40.8785 111.442 41 112.241 41ZM112.168 39.4344C111.711 39.4344 111.348 39.2853 111.083 38.987C110.818 38.6878 110.685 38.1975 110.685 37.5134C110.685 36.8239 110.819 36.3301 111.086 36.0309C111.353 35.7335 111.707 35.5843 112.148 35.5843C112.609 35.5843 112.974 35.7308 113.243 36.0246C113.511 36.3193 113.646 36.7837 113.646 37.4214C113.646 38.1787 113.517 38.7039 113.259 38.9959C113.002 39.288 112.638 39.4344 112.168 39.4344ZM119.808 41C120.491 41 121.081 40.9241 121.579 40.7714C122.076 40.6195 122.65 40.332 123.297 39.9104V37.024H119.914V38.4324H121.379V39.07C121.138 39.2125 120.883 39.3288 120.616 39.4166C120.389 39.4847 120.153 39.5187 119.915 39.5175C119.399 39.5175 118.997 39.3603 118.709 39.0468C118.422 38.7325 118.277 38.2091 118.277 37.4768C118.277 36.7873 118.42 36.2836 118.704 35.9648C118.99 35.646 119.372 35.487 119.852 35.487C120.174 35.487 120.439 35.5549 120.647 35.6897C120.854 35.8255 121.002 36.0202 121.089 36.2765L123.2 35.9166C123.071 35.4789 122.879 35.1181 122.623 34.8332C122.362 34.5458 122.029 34.3289 121.656 34.2036C121.269 34.0679 120.683 34 119.901 34C119.089 34 118.443 34.109 117.963 34.3278C117.372 34.5891 116.882 35.0245 116.562 35.5718C116.243 36.1184 116.083 36.7614 116.083 37.5C116.083 38.202 116.229 38.8236 116.52 39.3657C116.791 39.8868 117.221 40.3141 117.752 40.5892C118.282 40.8625 118.968 41 119.808 41ZM127.406 41C128.192 41 128.848 40.8589 129.374 40.5776C129.889 40.3077 130.309 39.8962 130.582 39.3951C130.861 38.8887 131 38.2404 131 37.4491C131 36.3595 130.681 35.512 130.043 34.9074C129.406 34.3028 128.498 34 127.318 34C126.169 34 125.272 34.3081 124.627 34.9234C123.983 35.5397 123.662 36.3997 123.662 37.5045C123.662 38.2957 123.824 38.9548 124.15 39.4809C124.474 40.0078 124.899 40.3918 125.422 40.6347C125.946 40.8785 126.607 41 127.406 41ZM127.333 39.4344C126.876 39.4344 126.515 39.2853 126.248 38.987C125.983 38.6878 125.85 38.1975 125.85 37.5134C125.85 36.8239 125.984 36.3301 126.251 36.0309C126.518 35.7335 126.872 35.5843 127.314 35.5843C127.775 35.5843 128.139 35.7308 128.409 36.0246C128.678 36.3193 128.811 36.7837 128.811 37.4214C128.811 38.1787 128.682 38.7039 128.425 38.9959C128.167 39.288 127.803 39.4344 127.333 39.4344Z" fill="white"/>
    <circle cx="103" cy="21" r="4" fill="white"/>
    <circle cx="117" cy="21" r="4" fill="white"/>
    <circle cx="131" cy="21" r="4" fill="white"/>
    <defs>
        <linearGradient id="bg_gradient" x1="0" y1="5" x2="234" y2="55" gradientUnits="userSpaceOnUse">
            <stop stop-color="#357C83"/>
            <stop offset="1" stop-color="#01A09D"/>
        </linearGradient>
    </defs>
</svg>
