<svg width="220" height="80" viewBox="0 0 220 80" fill="none" xmlns="http://www.w3.org/2000/svg">
<path d="M10 45C10 44.4477 10.4477 44 11 44H209C209.552 44 210 44.4477 210 45V69C210 69.5523 209.552 70 209 70H11C10.4477 70 10 69.5523 10 69V45Z" fill="white"/>
<path d="M195 50H181C179.343 50 178 51.3431 178 53C178 54.6569 179.343 56 181 56H195C196.657 56 198 54.6569 198 53C198 51.3431 196.657 50 195 50Z" fill="#2B2B33"/>
<path d="M22 51C22 50.4477 22.4477 50 23 50H45C45.5523 50 46 50.4477 46 51V55C46 55.5523 45.5523 56 45 56H23C22.4477 56 22 55.5523 22 55V51Z" fill="#2B2B33"/>
<rect x="70" y="50" width="60" height="2" rx="1" fill="#2B2B33"/>
<rect x="70" y="54" width="40" height="2" rx="1" fill="#2B2B33"/>
<rect x="22" y="62" width="30" height="2" rx="1" fill="#2B2B33"/>
<rect x="70" y="62" width="30" height="2" rx="1" fill="#2B2B33"/>
<rect x="10" y="10" width="200" height="31" rx="1" fill="white" fill-opacity="0.2"/>
<circle cx="182" cy="62" r="2" fill="#2B2B33"/>
<circle cx="188" cy="62" r="2" fill="#2B2B33"/>
<circle cx="194" cy="62" r="2" fill="#2B2B33"/>
</svg>
