<svg width="220" height="80" viewBox="0 0 220 80" fill="none" xmlns="http://www.w3.org/2000/svg">
<path d="M10 53C10 52.4477 10.4477 52 11 52H209C209.552 52 210 52.4477 210 53V69C210 69.5523 209.552 70 209 70H11C10.4477 70 10 69.5523 10 69V53Z" fill="white"/>
<circle cx="184" cy="61" r="2" fill="#2B2B33"/>
<circle cx="190" cy="61" r="2" fill="#2B2B33"/>
<circle cx="196" cy="61" r="2" fill="#2B2B33"/>
<rect x="83" y="60" width="12" height="2" rx="1" fill="#2B2B33"/>
<rect x="97" y="60" width="12" height="2" rx="1" fill="#2B2B33"/>
<rect x="111" y="60" width="12" height="2" rx="1" fill="#2B2B33"/>
<rect x="126" y="60" width="12" height="2" rx="1" fill="#2B2B33"/>
<rect x="10" y="10" width="200" height="39" rx="1" fill="white" fill-opacity="0.2"/>
<circle cx="25" cy="61" r="3" fill="#00B2CA"/>
</svg>
