<!-- <svg width="226" height="60" viewBox="0 0 226 60" xmlns="http://www.w3.org/2000/svg">
    <path d="M21 23.2236V26.7764L18 28.5264L15 26.7764V23.2236L18 21.4736L21 23.2236Z" fill="white"/>
    <path fill-rule="evenodd" clip-rule="evenodd" d="M225 10C225.552 10 226 10.4477 226 11V40H0V11C4.50978e-07 10.4477 0.447716 10 1 10H225ZM12 21.5V28.5L18 32L24 28.5V21.5L18 18L12 21.5ZM89.8496 22C88.2758 22.0002 87 23.3433 87 25C87 26.6567 88.2758 27.9998 89.8496 28H103.15C104.724 27.9998 106 26.6567 106 25C106 23.3433 104.724 22.0002 103.15 22H89.8496ZM195 22C193.343 22 192 23.3431 192 25C192 26.6569 193.343 28 195 28C196.657 28 198 26.6569 198 25C198 23.3431 196.657 22 195 22ZM203 22C201.343 22 200 23.3431 200 25C200 26.6569 201.343 28 203 28C204.657 28 206 26.6569 206 25C206 23.3431 204.657 22 203 22ZM211 22C209.343 22 208 23.3431 208 25C208 26.6569 209.343 28 211 28C212.657 28 214 26.6569 214 25C214 23.3431 212.657 22 211 22ZM34 24C33.4477 24 33 24.4477 33 25C33 25.5523 33.4477 26 34 26H43C43.5523 26 44 25.5523 44 25C44 24.4477 43.5523 24 43 24H34ZM47 24C46.4477 24 46 24.4477 46 25C46 25.5523 46.4477 26 47 26H56C56.5523 26 57 25.5523 57 25C57 24.4477 56.5523 24 56 24H47ZM60 24C59.4477 24 59 24.4477 59 25C59 25.5523 59.4477 26 60 26H69C69.5523 26 70 25.5523 70 25C70 24.4477 69.5523 24 69 24H60ZM73 24C72.4477 24 72 24.4477 72 25C72 25.5523 72.4477 26 73 26H82C82.5523 26 83 25.5523 83 25C83 24.4477 82.5523 24 82 24H73Z" fill="white"/>
    <path d="M0 40H226V49C226 49.5523 225.552 50 225 50H0.999994C0.447709 50 0 49.5523 0 49V40Z" fill="white" fill-opacity="0.2"/>
    <rect x="12" y="44" width="20" height="2" rx="1" fill="white"/>
    <rect x="36" y="44" width="20" height="2" rx="1" fill="white"/>
    <rect x="60" y="44" width="20" height="2" rx="1" fill="white"/>
</svg> -->
<svg width="220" height="80" viewBox="0 0 220 80" fill="none" xmlns="http://www.w3.org/2000/svg">
<path d="M10 50H210V59C210 59.5523 209.552 60 209 60H11C10.4477 60 10 59.5523 10 59V50Z" fill="#2B2B33"/>
<path d="M10 20C10 19.4477 10.4477 19 11 19H209C209.552 19 210 19.4477 210 20V49H10V20Z" fill="white"/>
<rect x="46" y="33" width="10" height="2" rx="1" fill="#2B2B33"/>
<rect x="22" y="54" width="20" height="2" rx="1" fill="white"/>
<rect x="46" y="54" width="20" height="2" rx="1" fill="white"/>
<rect x="70" y="54" width="20" height="2" rx="1" fill="white"/>
<rect x="70" y="33" width="10" height="2" rx="1" fill="#2B2B33"/>
<rect x="58" y="33" width="10" height="2" rx="1" fill="#2B2B33"/>
<rect x="82" y="33" width="10" height="2" rx="1" fill="#2B2B33"/>
<circle cx="195" cy="34" r="3" fill="#2B2B33"/>
<circle cx="187" cy="34" r="3" fill="#2B2B33"/>
<circle cx="179" cy="34" r="3" fill="#2B2B33"/>
<path d="M34 30.5V37.5L28 41L22 37.5V30.5L28 27L34 30.5ZM25 32.2236V35.7764L28 37.5264L31 35.7764V32.2236L28 30.4736L25 32.2236Z" fill="#00B2CA"/>
<path d="M115 31H101C99.3431 31 98 32.3431 98 34C98 35.6569 99.3431 37 101 37H115C116.657 37 118 35.6569 118 34C118 32.3431 116.657 31 115 31Z" fill="#2B2B33"/>
</svg>
