<!-- <svg width="226" height="60" viewBox="0 0 226 60" xmlns="http://www.w3.org/2000/svg">
    <path d="M21 28.2236V31.7764L18 33.5264L15 31.7764V28.2236L18 26.4736L21 28.2236Z" fill="white"/>
    <path fill-rule="evenodd" clip-rule="evenodd" d="M36 15V45H1C0.447715 45 0 44.5523 0 44V16C4.50978e-07 15.4477 0.447716 15 1 15H36ZM12 26.5V33.5L18 37L24 33.5V26.5L18 23L12 26.5Z" fill="white"/>
    <path fill-rule="evenodd" clip-rule="evenodd" d="M60 15V45H37V15H60ZM44 29C43.4477 29 43 29.4477 43 30C43 30.5523 43.4477 31 44 31H53C53.5523 31 54 30.5523 54 30C54 29.4477 53.5523 29 53 29H44Z" fill="white"/>
    <path fill-rule="evenodd" clip-rule="evenodd" d="M84 15V45H61V15H84ZM68 29C67.4477 29 67 29.4477 67 30C67 30.5523 67.4477 31 68 31H77C77.5523 31 78 30.5523 78 30C78 29.4477 77.5523 29 77 29H68Z" fill="white"/>
    <path fill-rule="evenodd" clip-rule="evenodd" d="M108 15V45H85V15H108ZM92 29C91.4477 29 91 29.4477 91 30C91 30.5523 91.4477 31 92 31H101C101.552 31 102 30.5523 102 30C102 29.4477 101.552 29 101 29H92Z" fill="white"/>
    <path fill-rule="evenodd" clip-rule="evenodd" d="M225 15C225.552 15 226 15.4477 226 16V44C226 44.5523 225.552 45 225 45H109V15H225ZM197 16V44H225V16H197Z" fill="white"/>
</svg> -->
<svg width="220" height="80" viewBox="0 0 220 80" fill="none" xmlns="http://www.w3.org/2000/svg">
<path d="M10 26C10 25.4477 10.4477 25 11 25H46V55H11C10.4477 55 10 54.5523 10 54V26Z" fill="white"/>
<rect x="47" y="25" width="30" height="30" fill="white"/>
<rect x="78" y="25" width="30" height="30" fill="white"/>
<rect x="109" y="25" width="30" height="30" fill="white"/>
<path d="M140 25H209C209.552 25 210 25.4477 210 26V54C210 54.5523 209.552 55 209 55H140V25Z" fill="white"/>
<path d="M195 37H181C179.343 37 178 38.3431 178 40C178 41.6569 179.343 43 181 43H195C196.657 43 198 41.6569 198 40C198 38.3431 196.657 37 195 37Z" fill="#2B2B33"/>
<path d="M34 36.5V43.5L28 47L22 43.5V36.5L28 33L34 36.5ZM25 38.2236V41.7764L28 43.5264L31 41.7764V38.2236L28 36.4736L25 38.2236Z" fill="#00B2CA"/>
<rect x="57" y="39" width="10" height="2" rx="1" fill="#2B2B33"/>
<rect x="88" y="39" width="10" height="2" rx="1" fill="#2B2B33"/>
<rect x="119" y="39" width="10" height="2" rx="1" fill="#2B2B33"/>
</svg>
