<!-- <svg width="226" height="60" viewBox="0 0 226 60" xmlns="http://www.w3.org/2000/svg">
    <path d="M21 28.2236V31.7764L18 33.5264L15 31.7764V28.2236L18 26.4736L21 28.2236Z" fill="white"/>
    <path fill-rule="evenodd" clip-rule="evenodd" d="M225 15C225.552 15 226 15.4477 226 16V44C226 44.5523 225.552 45 225 45H1C0.447715 45 0 44.5523 0 44V16C4.50978e-07 15.4477 0.447716 15 1 15H225ZM12 26.5V33.5L18 37L24 33.5V26.5L18 23L12 26.5ZM197.85 27C196.276 27.0002 195 28.3433 195 30C195 31.6567 196.276 32.9998 197.85 33H211.15C212.724 32.9998 214 31.6567 214 30C214 28.3433 212.724 27.0002 211.15 27H197.85ZM36 29V31H47V29H36ZM49 29V31H60V29H49ZM62 29V31H73V29H62ZM75 29V31H86V29H75Z" fill="white"/>
</svg> -->

<!-- <svg width="220" height="80" viewBox="0 0 220 80" fill="none" xmlns="http://www.w3.org/2000/svg">
<path d="M0 25C0 24.4477 0.447715 24 1 24H219C219.552 24 220 24.4477 220 25V55C220 55.5523 219.552 56 219 56H0.999999C0.447714 56 0 55.5523 0 55V25Z" fill="white"/>
<path d="M205 37H191C189.343 37 188 38.3431 188 40C188 41.6569 189.343 43 191 43H205C206.657 43 208 41.6569 208 40C208 38.3431 206.657 37 205 37Z" fill="#36363D"/>
<rect x="36" y="39" width="10" height="2" rx="1" fill="#36363D"/>
<rect x="60" y="39" width="10" height="2" rx="1" fill="#36363D"/>
<rect x="48" y="39" width="10" height="2" rx="1" fill="#36363D"/>
<rect x="72" y="39" width="10" height="2" rx="1" fill="#36363D"/>
<path d="M24 36.5V43.5L18 47L12 43.5V36.5L18 33L24 36.5ZM15 38.2236V41.7764L18 43.5264L21 41.7764V38.2236L18 36.4736L15 38.2236Z" fill="#00B2CA"/>
</svg> -->

<svg width="220" height="80" viewBox="0 0 220 80" fill="none" xmlns="http://www.w3.org/2000/svg">
<path d="M10 26C10 25.4477 10.4477 25 11 25H209C209.552 25 210 25.4477 210 26V54C210 54.5523 209.552 55 209 55H11C10.4477 55 10 54.5523 10 54V26Z" fill="white"/>
<path d="M195 37H181C179.343 37 178 38.3431 178 40C178 41.6569 179.343 43 181 43H195C196.657 43 198 41.6569 198 40C198 38.3431 196.657 37 195 37Z" fill="#2B2B33"/>
<rect x="46" y="39" width="10" height="2" rx="1" fill="#2B2B33"/>
<rect x="70" y="39" width="10" height="2" rx="1" fill="#2B2B33"/>
<rect x="58" y="39" width="10" height="2" rx="1" fill="#2B2B33"/>
<rect x="82" y="39" width="10" height="2" rx="1" fill="#2B2B33"/>
<path d="M34 36.5V43.5L28 47L22 43.5V36.5L28 33L34 36.5ZM25 38.2236V41.7764L28 43.5264L31 41.7764V38.2236L28 36.4736L25 38.2236Z" fill="#00B2CA"/>
</svg>



