<svg xmlns="http://www.w3.org/2000/svg" xmlns:xlink="http://www.w3.org/1999/xlink" width="234" height="60" viewBox="0 0 234 60">
  <defs>
    <linearGradient id="linearGradient-1" x1="0%" x2="100%" y1="49.429%" y2="50.571%">
      <stop offset="0%" stop-color="#00A09D"/>
      <stop offset="100%" stop-color="#00E2FF"/>
    </linearGradient>
    <rect id="path-28" width="234" height="25" x="0" y="30"/>
    <rect id="path-38" width="234" height="25" x="0" y="0"/>
    <linearGradient id="linearGradient-5" x1="72.875%" x2="40.332%" y1="47.355%" y2="38.066%">
      <stop offset="0%" stop-color="#008374"/>
      <stop offset="100%" stop-color="#006A59"/>
    </linearGradient>
    <linearGradient id="linearGradient-6" x1="88.517%" x2="50%" y1="43.259%" y2="50%">
      <stop offset="0%" stop-color="#00AA89"/>
      <stop offset="100%" stop-color="#009989"/>
    </linearGradient>
    <linearGradient id="linearGradient-7" x1="88.517%" x2="50%" y1="43.604%" y2="50%">
      <stop offset="0%" stop-color="#00AA89"/>
      <stop offset="100%" stop-color="#009989"/>
    </linearGradient>
  </defs>
  <g fill="none" fill-rule="evenodd" class="header_template_image">
    <g class="bg_top">
      <use fill="#000" fill-opacity=".14" xlink:href="#path-28"/>
      <use fill="url(#linearGradient-1)" fill-opacity=".3" xlink:href="#path-28"/>
    </g>
    <g fill="#FFF" fill-rule="nonzero" class="group" transform="translate(10 33)">
      <path d="M7.676 13v-2.115H3.533V4.41H.88V13h6.797zm4.409.146c.953 0 1.749-.178 2.387-.536a3.613 3.613 0 0 0 1.465-1.5c.338-.642.507-1.465.507-2.47 0-1.382-.387-2.457-1.16-3.225-.773-.768-1.875-1.151-3.305-1.151-1.394 0-2.482.39-3.263 1.172-.782.78-1.172 1.873-1.172 3.275 0 1.004.197 1.84.592 2.508.394.668.909 1.156 1.543 1.465.635.308 1.437.462 2.406.462zm-.088-1.986c-.555 0-.993-.19-1.316-.568-.322-.38-.483-1.002-.483-1.87 0-.874.162-1.501.486-1.88.325-.38.754-.569 1.29-.569.558 0 1 .187 1.327.56.326.373.489.964.489 1.772 0 .961-.156 1.627-.469 1.999-.312.37-.754.556-1.324.556zm9.266 1.986c.828 0 1.544-.096 2.148-.29.603-.193 1.298-.557 2.083-1.092V8.102h-4.102v1.787h1.776v.808a4.59 4.59 0 0 1-.926.44 2.78 2.78 0 0 1-.85.129c-.625 0-1.112-.2-1.462-.598-.35-.398-.524-1.063-.524-1.992 0-.875.173-1.515.518-1.92.346-.403.81-.606 1.392-.606.39 0 .712.086.964.258.252.172.43.42.536.744l2.56-.457c-.156-.554-.39-1.012-.7-1.374a2.765 2.765 0 0 0-1.172-.8c-.47-.171-1.18-.257-2.13-.257-.984 0-1.767.138-2.349.416a3.757 3.757 0 0 0-1.7 1.579c-.386.693-.58 1.509-.58 2.446 0 .89.177 1.68.531 2.367a3.569 3.569 0 0 0 1.494 1.553c.643.348 1.474.521 2.493.521zm9.214 0c.953 0 1.749-.178 2.388-.536a3.613 3.613 0 0 0 1.464-1.5c.338-.642.507-1.465.507-2.47 0-1.382-.386-2.457-1.16-3.225-.773-.768-1.875-1.151-3.305-1.151-1.394 0-2.482.39-3.263 1.172-.781.78-1.172 1.873-1.172 3.275 0 1.004.197 1.84.592 2.508.394.668.909 1.156 1.544 1.465.634.308 1.436.462 2.405.462zm-.088-1.986c-.555 0-.993-.19-1.315-.568-.323-.38-.484-1.002-.484-1.87 0-.874.162-1.501.487-1.88.324-.38.753-.569 1.289-.569.558 0 1 .187 1.327.56.326.373.489.964.489 1.772 0 .961-.156 1.627-.469 1.999-.312.37-.754.556-1.324.556z" class="logo"/>
    </g>
    <g fill="#FFF" class="group" opacity=".804" transform="translate(71 40)">
      <rect width="23" height="4" class="rectangle" rx="1"/>
      <rect width="23" height="4" class="rectangle" rx="1" transform="translate(28)"/>
      <rect width="23" height="4" class="rectangle" rx="1" transform="translate(56)"/>
      <rect width="23" height="4" class="rectangle" rx="1" transform="translate(84)"/>
    </g>
    <rect width="20" height="9" fill="#FFF" class="rectangle" rx="4.5" transform="translate(204 37)"/>
    <g class="image_1_border_long" transform="translate(0 5)">
      <rect width="234" height="25" fill="#FFF" class="rectangle"/>
      <g class="oval___oval_mask">
        <mask id="mask-4" fill="#fff">
          <use xlink:href="#path-38"/>
        </mask>
        <use fill="#79D1F2" class="mask" xlink:href="#path-38"/>
        <ellipse cx="51.5" cy="29.5" fill="url(#linearGradient-5)" class="oval" mask="url(#mask-4)" rx="23.5" ry="12.5"/>
        <ellipse cx="3.5" cy="27" fill="url(#linearGradient-6)" class="oval" mask="url(#mask-4)" rx="37.5" ry="18"/>
        <ellipse cx="221.5" cy="25" fill="url(#linearGradient-7)" class="oval" mask="url(#mask-4)" rx="38.5" ry="18"/>
        <circle cx="129.5" cy="9.5" r="5.5" fill="#F3EC60" class="oval" mask="url(#mask-4)"/>
        <ellipse cx="174.5" cy="27.5" fill="url(#linearGradient-5)" class="oval" mask="url(#mask-4)" rx="23.5" ry="12.5"/>
      </g>
    </g>
    <rect width="234" height="1" y="30" fill="#FFF" class="rectangle_topbar"/>
  </g>
</svg>
