<svg width="220" height="80" viewBox="0 0 220 80" fill="none" xmlns="http://www.w3.org/2000/svg">
<path d="M10 11C10 10.4477 10.4477 10 11 10H83C83.5523 10 84 10.4477 84 11V69C84 69.5523 83.5523 70 83 70H11C10.4477 70 10 69.5523 10 69V11Z" fill="white"/>
<circle cx="28" cy="22" r="6" fill="#00B2CA"/>
<rect x="22" y="44" width="50" height="2" rx="1" fill="#2B2B33"/>
<rect x="22" y="50" width="50" height="2" rx="1" fill="#2B2B33"/>
<rect x="22" y="56" width="50" height="2" rx="1" fill="#2B2B33"/>
<rect x="22" y="62" width="50" height="2" rx="1" fill="#2B2B33"/>
<circle cx="69" cy="22" r="3" fill="#2B2B33"/>
<circle cx="61" cy="22" r="3" fill="#2B2B33"/>
<circle cx="53" cy="22" r="3" fill="#2B2B33"/>
<rect x="87" y="10" width="123" height="60" rx="1" fill="white" fill-opacity="0.2"/>
</svg>



