<!-- <svg width="226" height="60" viewBox="0 0 226 60" xmlns="http://www.w3.org/2000/svg">
    <path d="M0 11C0 10.4477 0.447715 10 1 10H225C225.552 10 226 10.4477 226 11V20H0V11Z" fill="white" fill-opacity="0.2"/>
    <rect x="12" y="14" width="11" height="2" rx="1" fill="white"/>
    <rect x="38" y="14" width="11" height="2" rx="1" fill="white"/>
    <rect x="25" y="14" width="11" height="2" rx="1" fill="white"/>
    <rect x="51" y="14" width="11" height="2" rx="1" fill="white"/>
    <rect x="203" y="14" width="11" height="2" rx="1" fill="white"/>
    <rect x="190" y="14" width="11" height="2" rx="1" fill="white"/>
    <rect x="177" y="14" width="11" height="2" rx="1" fill="white"/>
    <path d="M116 33.2236V36.7764L113 38.5264L110 36.7764V33.2236L113 31.4736L116 33.2236Z" fill="white"/>
    <path fill-rule="evenodd" clip-rule="evenodd" d="M226 49C226 49.5523 225.552 50 225 50H1C0.447715 50 2.8186e-08 49.5523 0 49V20H226V49ZM107 31.5V38.5L113 42L119 38.5V31.5L113 28L107 31.5ZM15.75 32C13.6789 32 12 33.3431 12 35C12 36.6569 13.6789 38 15.75 38H33.25C35.3211 38 37 36.6569 37 35C37 33.3431 35.3211 32 33.25 32H15.75ZM182 32C180.343 32 179 33.3431 179 35C179 36.6569 180.343 38 182 38C183.657 38 185 36.6569 185 35C185 33.3431 183.657 32 182 32ZM190 32C188.343 32 187 33.3431 187 35C187 36.6569 188.343 38 190 38C191.657 38 193 36.6569 193 35C193 33.3431 191.657 32 190 32ZM197.85 32C196.276 32.0002 195 33.3433 195 35C195 36.6567 196.276 37.9998 197.85 38H211.15C212.724 37.9998 214 36.6567 214 35C214 33.3433 212.724 32.0002 211.15 32H197.85Z" fill="white"/>
</svg> -->
<svg width="220" height="80" viewBox="0 0 220 80" fill="none" xmlns="http://www.w3.org/2000/svg">
<path d="M10 20C10 19.4477 10.4477 19 11 19H209C209.552 19 210 19.4477 210 20V29H10V20Z" fill="#2B2B33"/>
<path d="M10 30H210V59C210 59.5523 209.552 60 209 60H11C10.4477 60 10 59.5523 10 59V30Z" fill="white"/>
<rect x="22" y="23" width="10" height="2" rx="1" fill="white"/>
<rect x="46" y="23" width="10" height="2" rx="1" fill="white"/>
<rect x="176" y="23" width="10" height="2" rx="1" fill="white"/>
<rect x="34" y="23" width="10" height="2" rx="1" fill="white"/>
<rect x="164" y="23" width="10" height="2" rx="1" fill="white"/>
<rect x="58" y="23" width="10" height="2" rx="1" fill="white"/>
<rect x="188" y="23" width="10" height="2" rx="1" fill="white"/>
<path d="M116 41.5V48.5L110 52L104 48.5V41.5L110 38L116 41.5ZM107 43.2236V46.7764L110 48.5264L113 46.7764V43.2236L110 41.4736L107 43.2236Z" fill="#00B2CA"/>
<path d="M195 42H181C179.343 42 178 43.3431 178 45C178 46.6569 179.343 48 181 48H195C196.657 48 198 46.6569 198 45C198 43.3431 196.657 42 195 42Z" fill="#2B2B33"/>
<path d="M49 42H25C23.3431 42 22 43.3431 22 45C22 46.6569 23.3431 48 25 48H49C50.6569 48 52 46.6569 52 45C52 43.3431 50.6569 42 49 42Z" fill="#2B2B33"/>
<circle cx="173" cy="45" r="3" fill="#2B2B33"/>
<circle cx="165" cy="45" r="3" fill="#2B2B33"/>
</svg>
