<svg width="220" height="80" viewBox="0 0 220 80" fill="none" xmlns="http://www.w3.org/2000/svg">
<path d="M10 43H210V50C210 50.5523 209.552 51 209 51H11C10.4477 51 10 50.5523 10 50V43Z" fill="white"/>
<rect x="178" y="43" width="20" height="8" fill="#2B2B33"/>
<path d="M10 11C10 10.4477 10.4477 10 11 10H209C209.552 10 210 10.4477 210 11V18H10V11Z" fill="#2B2B33"/>
<path d="M10 18H210V42H10V18Z" fill="white"/>
<circle cx="28" cy="30" r="6" fill="#00B2CA"/>
<rect x="22" y="46" width="10" height="2" rx="1" fill="#2B2B33"/>
<rect x="22" y="13" width="20" height="2" rx="1" fill="white"/>
<rect x="178" y="13" width="20" height="2" rx="1" fill="white"/>
<rect x="90" y="13" width="40" height="2" rx="1" fill="white"/>
<rect x="46" y="46" width="10" height="2" rx="1" fill="#2B2B33"/>
<rect x="34" y="46" width="10" height="2" rx="1" fill="#2B2B33"/>
<rect x="58" y="46" width="10" height="2" rx="1" fill="#2B2B33"/>
<circle cx="194" cy="30" r="4" fill="#2B2B33"/>
<circle cx="182" cy="30" r="4" fill="#2B2B33"/>
<circle cx="170" cy="30" r="4" fill="#2B2B33"/>
<rect x="10" y="54" width="200" height="16" rx="1" fill="white" fill-opacity="0.2"/>
<rect x="10" y="42" width="200" height="1" fill="#D9D9D9"/>
</svg>


