<svg xmlns="http://www.w3.org/2000/svg" xmlns:xlink="http://www.w3.org/1999/xlink" width="234" height="60" viewBox="0 0 234 60">
  <defs>
    <linearGradient id="linearGradient-1" x1="0%" x2="100%" y1="49.429%" y2="50.571%">
      <stop offset="0%" stop-color="#00A09D"/>
      <stop offset="100%" stop-color="#00E2FF"/>
    </linearGradient>
    <rect id="path-29b" width="234" height="25" x="0" y="5"/>
  </defs>
  <g fill="none" fill-rule="evenodd" class="header_template_centered_logo">
    <g class="bg_1lev">
      <use fill="#000" fill-opacity=".14" xlink:href="#path-29b"/>
      <use fill="url(#linearGradient-1)" fill-opacity=".3" xlink:href="#path-29b"/>
    </g>
    <g fill="#FFF" class="group_2" transform="translate(10 9)">
      <g fill-rule="nonzero" class="group" transform="translate(88)">
        <path d="M7.676 13v-2.115H3.533V4.41H.88V13h6.797zm4.409.146c.953 0 1.749-.178 2.387-.536a3.613 3.613 0 0 0 1.465-1.5c.338-.642.507-1.465.507-2.47 0-1.382-.387-2.457-1.16-3.225-.773-.768-1.875-1.151-3.305-1.151-1.394 0-2.482.39-3.263 1.172-.782.78-1.172 1.873-1.172 3.275 0 1.004.197 1.84.592 2.508.394.668.909 1.156 1.543 1.465.635.308 1.437.462 2.406.462zm-.088-1.986c-.555 0-.993-.19-1.316-.568-.322-.38-.483-1.002-.483-1.87 0-.874.162-1.501.486-1.88.325-.38.754-.569 1.29-.569.558 0 1 .187 1.327.56.326.373.489.964.489 1.772 0 .961-.156 1.627-.469 1.999-.312.37-.754.556-1.324.556zm9.266 1.986c.828 0 1.544-.096 2.148-.29.603-.193 1.298-.557 2.083-1.092V8.102h-4.102v1.787h1.776v.808a4.59 4.59 0 0 1-.926.44 2.78 2.78 0 0 1-.85.129c-.625 0-1.112-.2-1.462-.598-.35-.398-.524-1.063-.524-1.992 0-.875.173-1.515.518-1.92.346-.403.81-.606 1.392-.606.39 0 .712.086.964.258.252.172.43.42.536.744l2.56-.457c-.156-.554-.39-1.012-.7-1.374a2.765 2.765 0 0 0-1.172-.8c-.47-.171-1.18-.257-2.13-.257-.984 0-1.767.138-2.349.416a3.757 3.757 0 0 0-1.7 1.579c-.386.693-.58 1.509-.58 2.446 0 .89.177 1.68.531 2.367a3.569 3.569 0 0 0 1.494 1.553c.643.348 1.474.521 2.493.521zm9.214 0c.953 0 1.749-.178 2.388-.536a3.613 3.613 0 0 0 1.464-1.5c.338-.642.507-1.465.507-2.47 0-1.382-.386-2.457-1.16-3.225-.773-.768-1.875-1.151-3.305-1.151-1.394 0-2.482.39-3.263 1.172-.781.78-1.172 1.873-1.172 3.275 0 1.004.197 1.84.592 2.508.394.668.909 1.156 1.544 1.465.634.308 1.436.462 2.405.462zm-.088-1.986c-.555 0-.993-.19-1.315-.568-.323-.38-.484-1.002-.484-1.87 0-.874.162-1.501.487-1.88.324-.38.753-.569 1.289-.569.558 0 1 .187 1.327.56.326.373.489.964.489 1.772 0 .961-.156 1.627-.469 1.999-.312.37-.754.556-1.324.556z" class="logo"/>
      </g>
      <g class="group" opacity=".804" transform="translate(0 7)">
        <g class="link">
          <rect width="15" height="4" class="rectangle" rx="1"/>
        </g>
        <g class="link" transform="translate(18)">
          <rect width="15" height="4" class="rectangle" rx="1"/>
        </g>
        <g class="link" transform="translate(37)">
          <rect width="15" height="4" class="rectangle" rx="1"/>
        </g>
        <g class="link" transform="translate(173)">
          <rect width="15" height="4" class="rectangle" rx="1"/>
        </g>
      </g>
      <rect width="20" height="9" class="rectangle" rx="4.5" transform="translate(194 4)"/>
    </g>
    <g fill="#FFF" class="page_content" opacity=".442" transform="translate(0 30)">
      <rect width="234" height="25" class="rectangle_v1"/>
    </g>
  </g>
</svg>
