<!-- <svg width="226" height="60" viewBox="0 0 226 60" xmlns="http://www.w3.org/2000/svg">
    <path d="M21 33.2236V36.7764L18 38.5264L15 36.7764V33.2236L18 31.4736L21 33.2236Z" fill="white"/>
    <path fill-rule="evenodd" clip-rule="evenodd" d="M226 49C226 49.5523 225.552 50 225 50H1C0.447715 50 2.8186e-08 49.5523 0 49V20H226V49ZM12 31.5V38.5L18 42L24 38.5V31.5L18 28L12 31.5ZM165 37C164.448 37 164 37.4477 164 38C164 38.5523 164.448 39 165 39H174C174.552 39 175 38.5523 175 38C175 37.4477 174.552 37 174 37H165ZM178 37C177.448 37 177 37.4477 177 38C177 38.5523 177.448 39 178 39H187C187.552 39 188 38.5523 188 38C188 37.4477 187.552 37 187 37H178ZM191 37C190.448 37 190 37.4477 190 38C190 38.5523 190.448 39 191 39H200C200.552 39 201 38.5523 201 38C201 37.4477 200.552 37 200 37H191ZM204 37C203.448 37 203 37.4477 203 38C203 38.5523 203.448 39 204 39H213C213.552 39 214 38.5523 214 38C214 37.4477 213.552 37 213 37H204ZM178 31C177.448 31 177 31.4477 177 32C177 32.5523 177.448 33 178 33H187C187.552 33 188 32.5523 188 32C188 31.4477 187.552 31 187 31H178ZM191 31C190.448 31 190 31.4477 190 32C190 32.5523 190.448 33 191 33H200C200.552 33 201 32.5523 201 32C201 31.4477 200.552 31 200 31H191ZM204 31C203.448 31 203 31.4477 203 32C203 32.5523 203.448 33 204 33H213C213.552 33 214 32.5523 214 32C214 31.4477 213.552 31 213 31H204Z" fill="white"/>
    <path d="M0 11C0 10.4477 0.447715 10 1 10H225C225.552 10 226 10.4477 226 11V20H0V11Z" fill="white" fill-opacity="0.2"/>
    <rect x="12" y="14" width="20" height="2" rx="1" fill="white"/>
    <rect x="36" y="14" width="20" height="2" rx="1" fill="white"/>
    <rect x="60" y="14" width="20" height="2" rx="1" fill="white"/>
    <rect x="189" y="11" width="25" height="8" fill="white"/>
</svg> -->
<svg width="220" height="80" viewBox="0 0 220 80" fill="none" xmlns="http://www.w3.org/2000/svg">
<path d="M10 20C10 19.4477 10.4477 19 11 19H209C209.552 19 210 19.4477 210 20V29H10V20Z" fill="#2B2B33"/>
<path d="M10 30H210V59C210 59.5523 209.552 60 209 60H11C10.4477 60 10 59.5523 10 59V30Z" fill="white"/>
<rect x="152" y="47" width="10" height="2" rx="1" fill="#2B2B33"/>
<rect x="22" y="23" width="20" height="2" rx="1" fill="white"/>
<rect x="46" y="23" width="20" height="2" rx="1" fill="white"/>
<rect x="70" y="23" width="20" height="2" rx="1" fill="white"/>
<rect x="176" y="47" width="10" height="2" rx="1" fill="#2B2B33"/>
<rect x="176" y="41" width="10" height="2" rx="1" fill="#2B2B33"/>
<rect x="164" y="47" width="10" height="2" rx="1" fill="#2B2B33"/>
<rect x="188" y="47" width="10" height="2" rx="1" fill="#2B2B33"/>
<rect x="188" y="41" width="10" height="2" rx="1" fill="#2B2B33"/>
<path d="M34 41.5V48.5L28 52L22 48.5V41.5L28 38L34 41.5ZM25 43.2236V46.7764L28 48.5264L31 46.7764V43.2236L28 41.4736L25 43.2236Z" fill="#00B2CA"/>
<path d="M195 21H181C179.343 21 178 22.3431 178 24C178 25.6569 179.343 27 181 27H195C196.657 27 198 25.6569 198 24C198 22.3431 196.657 21 195 21Z" fill="white"/>
</svg>
