<!-- <svg width="226" height="60" viewBox="0 0 226 60" xmlns="http://www.w3.org/2000/svg">
    <path d="M21 28.2236V31.7764L18 33.5264L15 31.7764V28.2236L18 26.4736L21 28.2236Z" fill="white"/>
    <path fill-rule="evenodd" clip-rule="evenodd" d="M211 15C219.284 15 226 21.7157 226 30C226 38.2843 219.284 45 211 45H15C6.71573 45 0 38.2843 0 30C0 21.7157 6.71573 15 15 15H211ZM12 26.5V33.5L18 37L24 33.5V26.5L18 23L12 26.5ZM197.85 27C196.276 27.0002 195 28.3433 195 30C195 31.6567 196.276 32.9998 197.85 33H211.15C212.724 32.9998 214 31.6567 214 30C214 28.3433 212.724 27.0002 211.15 27H197.85ZM37 29C36.4477 29 36 29.4477 36 30C36 30.5523 36.4477 31 37 31H46C46.5523 31 47 30.5523 47 30C47 29.4477 46.5523 29 46 29H37ZM50 29C49.4477 29 49 29.4477 49 30C49 30.5523 49.4477 31 50 31H59C59.5523 31 60 30.5523 60 30C60 29.4477 59.5523 29 59 29H50ZM63 29C62.4477 29 62 29.4477 62 30C62 30.5523 62.4477 31 63 31H72C72.5523 31 73 30.5523 73 30C73 29.4477 72.5523 29 72 29H63ZM76 29C75.4477 29 75 29.4477 75 30C75 30.5523 75.4477 31 76 31H85C85.5523 31 86 30.5523 86 30C86 29.4477 85.5523 29 85 29H76Z" fill="white"/>
</svg> -->
<svg width="220" height="80" viewBox="0 0 220 80" fill="none" xmlns="http://www.w3.org/2000/svg">
<path d="M10 40C10 31.7157 16.7157 25 25 25H195C203.284 25 210 31.7157 210 40C210 48.2843 203.284 55 195 55H25C16.7157 55 10 48.2843 10 40Z" fill="white"/>
<path d="M195 37H181C179.343 37 178 38.3431 178 40C178 41.6569 179.343 43 181 43H195C196.657 43 198 41.6569 198 40C198 38.3431 196.657 37 195 37Z" fill="#2B2B33"/>
<rect x="46" y="39" width="10" height="2" rx="1" fill="#2B2B33"/>
<rect x="70" y="39" width="10" height="2" rx="1" fill="#2B2B33"/>
<rect x="58" y="39" width="10" height="2" rx="1" fill="#2B2B33"/>
<rect x="82" y="39" width="10" height="2" rx="1" fill="#2B2B33"/>
<path d="M34 36.5V43.5L28 47L22 43.5V36.5L28 33L34 36.5ZM25 38.2236V41.7764L28 43.5264L31 41.7764V38.2236L28 36.4736L25 38.2236Z" fill="#00B2CA"/>
</svg>
