<svg width="220" height="80" viewBox="0 0 220 80" fill="none" xmlns="http://www.w3.org/2000/svg">
<path d="M10 34H210V43C210 43.5523 209.552 44 209 44H11C10.4477 44 10 43.5523 10 43V34Z" fill="#D9D9D9"/>
<path d="M10 11C10 10.4477 10.4477 10 11 10H209C209.552 10 210 10.4477 210 11V34H10V11Z" fill="white"/>
<circle cx="28" cy="22" r="6" fill="#00B2CA"/>
<rect x="46" y="21" width="10" height="2" rx="1" fill="#2B2B33"/>
<rect x="22" y="38" width="20" height="2" rx="1" fill="#2B2B33"/>
<rect x="46" y="38" width="20" height="2" rx="1" fill="#2B2B33"/>
<rect x="70" y="38" width="20" height="2" rx="1" fill="#2B2B33"/>
<rect x="70" y="21" width="10" height="2" rx="1" fill="#2B2B33"/>
<rect x="58" y="21" width="10" height="2" rx="1" fill="#2B2B33"/>
<rect x="82" y="21" width="10" height="2" rx="1" fill="#2B2B33"/>
<circle cx="195" cy="22" r="3" fill="#2B2B33"/>
<circle cx="187" cy="22" r="3" fill="#2B2B33"/>
<circle cx="179" cy="22" r="3" fill="#2B2B33"/>
<path d="M115 19H101C99.3431 19 98 20.3431 98 22C98 23.6569 99.3431 25 101 25H115C116.657 25 118 23.6569 118 22C118 20.3431 116.657 19 115 19Z" fill="#2B2B33"/>
<rect x="10" y="47" width="200" height="23" rx="1" fill="white" fill-opacity="0.2"/>
</svg>



