<svg width="220" height="80" viewBox="0 0 220 80" fill="none" xmlns="http://www.w3.org/2000/svg">
<path d="M10 11C10 10.4477 10.4477 10 11 10H209C209.552 10 210 10.4477 210 11V18H10V11Z" fill="#D9D9D9"/>
<path d="M10 18H210V41C210 41.5523 209.552 42 209 42H11C10.4477 42 10 41.5523 10 41V18Z" fill="white"/>
<circle cx="28" cy="30" r="6" fill="#00B2CA"/>
<rect x="152" y="32" width="10" height="2" rx="1" fill="#2B2B33"/>
<rect x="22" y="13" width="20" height="2" rx="1" fill="#2B2B33"/>
<rect x="46" y="13" width="20" height="2" rx="1" fill="#2B2B33"/>
<rect x="70" y="13" width="20" height="2" rx="1" fill="#2B2B33"/>
<rect x="176" y="32" width="10" height="2" rx="1" fill="#2B2B33"/>
<rect x="176" y="26" width="10" height="2" rx="1" fill="#2B2B33"/>
<rect x="164" y="32" width="10" height="2" rx="1" fill="#2B2B33"/>
<rect x="188" y="32" width="10" height="2" rx="1" fill="#2B2B33"/>
<rect x="188" y="26" width="10" height="2" rx="1" fill="#2B2B33"/>
<rect x="10" y="45" width="200" height="25" rx="1" fill="white" fill-opacity="0.2"/>
<rect x="178" y="10" width="20" height="8" fill="#2B2B33"/>
</svg>


