<svg width="234" height="60" viewBox="0 0 234 60" xmlns="http://www.w3.org/2000/svg"><path fill="#fff" fill-opacity=".5" d="M0 5h234v50H0z"/><path fill="url(#header_preview_sales_four__a)" d="M0 5h234v34H0z"/><path d="M108.082 29.708v-1.865h-3.708v-5.714H102v7.58l6.082-.001Zm3.945.13c.852 0 1.565-.158 2.136-.473a3.208 3.208 0 0 0 1.31-1.324c.303-.567.454-1.293.454-2.179 0-1.22-.346-2.169-1.038-2.846-.692-.677-1.677-1.016-2.957-1.016-1.247 0-2.22.345-2.92 1.034-.699.69-1.048 1.653-1.048 2.89 0 .886.176 1.624.53 2.213.352.59.813 1.02 1.38 1.292.569.273 1.286.409 2.153.409Zm-.079-1.753c-.496 0-.889-.167-1.177-.501-.288-.335-.432-.884-.432-1.65 0-.772.145-1.325.435-1.66.29-.333.674-.5 1.153-.5.5 0 .896.164 1.188.493.291.33.437.85.437 1.564 0 .848-.14 1.436-.42 1.763-.279.327-.674.491-1.184.491Zm8.291 1.753c.741 0 1.381-.085 1.921-.256.54-.17 1.162-.492 1.864-.964v-3.232h-3.67v1.577h1.589v.714c-.261.16-.538.29-.828.388a2.518 2.518 0 0 1-.76.113c-.56 0-.996-.176-1.309-.527-.312-.352-.469-.938-.469-1.758 0-.772.155-1.336.464-1.693.31-.357.724-.535 1.245-.535.35 0 .637.076.863.227.225.152.385.37.48.657l2.29-.403c-.14-.49-.348-.894-.626-1.213a2.476 2.476 0 0 0-1.049-.705c-.42-.152-1.056-.228-1.905-.228-.881 0-1.582.122-2.103.367a3.34 3.34 0 0 0-1.52 1.393c-.346.612-.519 1.332-.519 2.159 0 .786.158 1.482.474 2.089a3.172 3.172 0 0 0 1.337 1.37c.575.306 1.319.46 2.231.46Zm8.244 0c.853 0 1.565-.158 2.136-.473a3.208 3.208 0 0 0 1.31-1.324c.303-.567.454-1.293.454-2.179 0-1.22-.346-2.169-1.038-2.846-.692-.677-1.677-1.016-2.957-1.016-1.247 0-2.22.345-2.92 1.034-.699.69-1.048 1.653-1.048 2.89 0 .886.176 1.624.53 2.213.352.59.813 1.02 1.38 1.292.569.273 1.286.409 2.153.409Zm-.079-1.753c-.496 0-.888-.167-1.177-.501-.288-.335-.432-.884-.432-1.65 0-.772.145-1.325.435-1.66.29-.333.674-.5 1.153-.5.5 0 .896.164 1.188.493.292.33.437.85.437 1.564 0 .848-.14 1.436-.419 1.763-.28.327-.675.491-1.185.491Z" fill="#fff"/><rect x="204" y="22" width="8" height="8" rx="1" fill="#fff"/><rect x="194" y="22" width="8" height="8" rx="1" fill="#fff"/><rect x="214" y="22" width="8" height="8" rx="1" fill="#fff"/><path fill-opacity=".33" d="M0 5h234v8H0z"/><rect x="206" y="7" width="4" height="4" rx="1" fill="#fff"/><rect x="212" y="7" width="4" height="4" rx="1" fill="#fff"/><rect x="218" y="7" width="4" height="4" rx="1" fill="#fff"/><rect x="12" y="7" width="12" height="4" rx="1" fill="#fff"/><rect x="26" y="7" width="18" height="4" rx="1" fill="#fff"/><rect x="46" y="7" width="12" height="4" rx="1" fill="#fff"/><rect x="12" y="20" width="40" height="12" rx="6" fill="#fff"/><path d="M33.786 25.286a2.41 2.41 0 0 0-.734-1.767 2.408 2.408 0 0 0-1.766-.733 2.41 2.41 0 0 0-1.767.733 2.408 2.408 0 0 0-.733 1.767c0 .688.244 1.277.733 1.766.49.49 1.078.734 1.767.734.688 0 1.277-.245 1.766-.734.49-.49.734-1.078.734-1.766Zm2.857 4.642c0 .194-.07.361-.212.503a.687.687 0 0 1-.502.212.662.662 0 0 1-.503-.212l-1.914-1.909a3.822 3.822 0 0 1-2.226.692 3.86 3.86 0 0 1-1.527-.31 3.925 3.925 0 0 1-1.255-.837 3.928 3.928 0 0 1-.837-1.255 3.861 3.861 0 0 1-.31-1.526c0-.532.103-1.041.31-1.527a3.91 3.91 0 0 1 .837-1.255c.351-.352.77-.63 1.255-.837.486-.207.995-.31 1.527-.31.532 0 1.04.103 1.526.31.485.206.904.485 1.256.837.351.351.63.77.837 1.255.206.486.31.995.31 1.527 0 .818-.231 1.56-.693 2.226l1.914 1.914a.684.684 0 0 1 .207.503Z" fill="#35979C"/><defs><linearGradient id="header_preview_sales_four__a" x1="0" y1="5" x2="234.841" y2="31.566" gradientUnits="userSpaceOnUse"><stop stop-color="#357C83"/><stop offset="1" stop-color="#01A09D"/></linearGradient></defs></svg>
