<!-- <svg width="226" height="60" viewBox="0 0 226 60" xmlns="http://www.w3.org/2000/svg">
    <path d="M116 28.2236V31.7764L113 33.5264L110 31.7764V28.2236L113 26.4736L116 28.2236Z" fill="white"/>
    <path fill-rule="evenodd" clip-rule="evenodd" d="M225 15C225.552 15 226 15.4477 226 16V44C226 44.5523 225.552 45 225 45H1C0.447715 45 0 44.5523 0 44V16C4.50978e-07 15.4477 0.447716 15 1 15H225ZM107 26.5V33.5L113 37L119 33.5V26.5L113 23L107 26.5ZM12 32V34H22V32H12ZM197.85 27C196.276 27.0002 195 28.3433 195 30C195 31.6567 196.276 32.9998 197.85 33H211.15C212.724 32.9998 214 31.6567 214 30C214 28.3433 212.724 27.0002 211.15 27H197.85ZM12 29V31H22V29H12ZM12 26V28H22V26H12Z" fill="white"/>
</svg> -->
<svg width="220" height="80" viewBox="0 0 220 80" fill="none" xmlns="http://www.w3.org/2000/svg">
<path d="M10 26C10 25.4477 10.4477 25 11 25H209C209.552 25 210 25.4477 210 26V54C210 54.5523 209.552 55 209 55H11C10.4477 55 10 54.5523 10 54V26Z" fill="white"/>
<rect x="22" y="36" width="10" height="2" rx="1" fill="#2B2B33"/>
<rect x="22" y="42" width="10" height="2" rx="1" fill="#2B2B33"/>
<rect x="22" y="39" width="10" height="2" rx="1" fill="#2B2B33"/>
<path d="M195 37H181C179.343 37 178 38.3431 178 40C178 41.6569 179.343 43 181 43H195C196.657 43 198 41.6569 198 40C198 38.3431 196.657 37 195 37Z" fill="#2B2B33"/>
<path d="M116 36.5V43.5L110 47L104 43.5V36.5L110 33L116 36.5ZM107 38.2236V41.7764L110 43.5264L113 41.7764V38.2236L110 36.4736L107 38.2236Z" fill="#00B2CA"/>
</svg>
