<svg width="220" height="80" viewBox="0 0 220 80" fill="none" xmlns="http://www.w3.org/2000/svg">
<path d="M10 11C10 10.4477 10.4477 10 11 10H209C209.552 10 210 10.4477 210 11V20H10V11Z" fill="white"/>
<path d="M10 21H210V44C210 44.5523 209.552 45 209 45H11C10.4477 45 10 44.5523 10 44V21Z" fill="white"/>
<circle cx="110" cy="33" r="6" fill="#00B2CA"/>
<path d="M195 30H181C179.343 30 178 31.3431 178 33C178 34.6569 179.343 36 181 36H195C196.657 36 198 34.6569 198 33C198 31.3431 196.657 30 195 30Z" fill="#2B2B33"/>
<circle cx="184" cy="15" r="2" fill="#2B2B33"/>
<circle cx="190" cy="15" r="2" fill="#2B2B33"/>
<circle cx="196" cy="15" r="2" fill="#2B2B33"/>
<rect x="22" y="32" width="10" height="2" rx="1" fill="#2B2B33"/>
<rect x="22" y="14" width="10" height="2" rx="1" fill="#2B2B33"/>
<rect x="46" y="32" width="10" height="2" rx="1" fill="#2B2B33"/>
<rect x="34" y="32" width="10" height="2" rx="1" fill="#2B2B33"/>
<rect x="58" y="32" width="10" height="2" rx="1" fill="#2B2B33"/>
<rect x="10" y="48" width="200" height="22" rx="1" fill="white" fill-opacity="0.2"/>
<rect x="10" y="20" width="200" height="1" fill="#D9D9D9"/>
<rect x="38" y="10" width="1" height="10" fill="#D9D9D9"/>
<rect x="175" y="10" width="1" height="10" fill="#D9D9D9"/>
</svg>


