<!-- <svg width="226" height="60" viewBox="0 0 226 60" xmlns="http://www.w3.org/2000/svg">
    <path d="M116 33.2236V36.7764L113 38.5264L110 36.7764V33.2236L113 31.4736L116 33.2236Z" fill="white"/>
    <path fill-rule="evenodd" clip-rule="evenodd" d="M226 49C226 49.5523 225.552 50 225 50H0.999994C0.447709 50 0 49.5523 0 49V20H226V49ZM107 31.5V38.5L113 42L119 38.5V31.5L113 28L107 31.5ZM197.85 32C196.276 32.0002 195 33.3433 195 35C195 36.6567 196.276 37.9998 197.85 38H211.15C212.724 37.9998 214 36.6567 214 35C214 33.3433 212.724 32.0002 211.15 32H197.85ZM13 35C12.4477 35 12 35.4477 12 36C12 36.5523 12.4477 37 13 37H22C22.5523 37 23 36.5523 23 36C23 35.4477 22.5523 35 22 35H13ZM26 35C25.4477 35 25 35.4477 25 36C25 36.5523 25.4477 37 26 37H35C35.5523 37 36 36.5523 36 36C36 35.4477 35.5523 35 35 35H26ZM39 35C38.4477 35 38 35.4477 38 36C38 36.5523 38.4477 37 39 37H48C48.5523 37 49 36.5523 49 36C49 35.4477 48.5523 35 48 35H39ZM52 35C51.4477 35 51 35.4477 51 36C51 36.5523 51.4477 37 52 37H61C61.5523 37 62 36.5523 62 36C62 35.4477 61.5523 35 61 35H52Z" fill="white"/>
    <rect y="19" width="226" height="1" fill="white" fill-opacity="0.8"/>
    <path fill-rule="evenodd" clip-rule="evenodd" d="M225 10C225.552 10 226 10.4477 226 11V19H0V11C0 10.4477 0.447715 10 1 10H225ZM201 13C199.895 13 199 13.8954 199 15C199 16.1046 199.895 17 201 17C202.105 17 203 16.1046 203 15C203 13.8954 202.105 13 201 13ZM207 13C205.895 13 205 13.8954 205 15C205 16.1046 205.895 17 207 17C208.105 17 209 16.1046 209 15C209 13.8954 208.105 13 207 13ZM213 13C211.895 13 211 13.8954 211 15C211 16.1046 211.895 17 213 17C214.105 17 215 16.1046 215 15C215 13.8954 214.105 13 213 13ZM13 14C12.4477 14 12 14.4477 12 15C12 15.5523 12.4477 16 13 16H22C22.5523 16 23 15.5523 23 15C23 14.4477 22.5523 14 22 14H13Z" fill="white"/>
</svg> -->
<svg width="220" height="80" viewBox="0 0 220 80" fill="none" xmlns="http://www.w3.org/2000/svg">
<path d="M10 20C10 19.4477 10.4477 19 11 19H209C209.552 19 210 19.4477 210 20V29H10V20Z" fill="white"/>
<path d="M10 30H210V59C210 59.5523 209.552 60 209 60H11C10.4477 60 10 59.5523 10 59V30Z" fill="white"/>
<path d="M117 41.5V48.5L111 52L105 48.5V41.5L111 38L117 41.5ZM108 43.2236V46.7764L111 48.5264L114 46.7764V43.2236L111 41.4736L108 43.2236Z" fill="#00B2CA"/>
<path d="M195 41H181C179.343 41 178 42.3431 178 44C178 45.6569 179.343 47 181 47H195C196.657 47 198 45.6569 198 44C198 42.3431 196.657 41 195 41Z" fill="#2B2B33"/>
<circle cx="184" cy="24" r="2" fill="#2B2B33"/>
<circle cx="190" cy="24" r="2" fill="#2B2B33"/>
<circle cx="196" cy="24" r="2" fill="#2B2B33"/>
<rect x="22" y="44" width="10" height="2" rx="1" fill="#2B2B33"/>
<rect x="22" y="23" width="10" height="2" rx="1" fill="#2B2B33"/>
<rect x="46" y="44" width="10" height="2" rx="1" fill="#2B2B33"/>
<rect x="34" y="44" width="10" height="2" rx="1" fill="#2B2B33"/>
<rect x="58" y="44" width="10" height="2" rx="1" fill="#2B2B33"/>
</svg>
