<svg width="220" height="80" viewBox="0 0 220 80" fill="none" xmlns="http://www.w3.org/2000/svg">
<path d="M10 11C10 10.4477 10.4477 10 11 10H209C209.552 10 210 10.4477 210 11V43C210 43.5523 209.552 44 209 44H11C10.4477 44 10 43.5523 10 43V11Z" fill="white"/>
<circle cx="110" cy="22" r="6" fill="#00B2CA"/>
<path d="M195 20H181C179.343 20 178 21.3431 178 23C178 24.6569 179.343 26 181 26H195C196.657 26 198 24.6569 198 23C198 21.3431 196.657 20 195 20Z" fill="#2B2B33"/>
<rect x="87" y="34" width="10" height="2" rx="1" fill="#2B2B33"/>
<rect x="111" y="34" width="10" height="2" rx="1" fill="#2B2B33"/>
<rect x="99" y="34" width="10" height="2" rx="1" fill="#2B2B33"/>
<rect x="123" y="34" width="10" height="2" rx="1" fill="#2B2B33"/>
<circle cx="173" cy="23" r="3" fill="#2B2B33"/>
<circle cx="165" cy="23" r="3" fill="#2B2B33"/>
<circle cx="33" cy="23" r="3" fill="#2B2B33"/>
<circle cx="41" cy="23" r="3" fill="#2B2B33"/>
<circle cx="25" cy="23" r="3" fill="#2B2B33"/>
<rect x="10" y="47" width="200" height="23" rx="1" fill="white" fill-opacity="0.2"/>
</svg>



