<svg id="Postcard" xmlns="http://www.w3.org/2000/svg" xmlns:xlink="http://www.w3.org/1999/xlink" width="82" height="60" viewBox="0 0 85.26 61.95">
  <defs>
    <linearGradient id="linear-gradient" x1="-535.26" y1="513.44" x2="-535.26" y2="512.27" gradientTransform="matrix(44, 0, 0, -17, 23594.27, 8745.52)" gradientUnits="userSpaceOnUse">
      <stop offset="0" stop-color="#00a09d"/>
      <stop offset="1" stop-color="#00e2ff"/>
    </linearGradient>
    <linearGradient id="linear-gradient-2" x1="12.05" y1="5.66" x2="73.27" y2="5.66" gradientTransform="matrix(1, 0, 0, 1, 0, 0)" xlink:href="#linear-gradient"/>
    <mask id="mask" x="46.82" y="21.3" width="17.31" height="11.37" maskUnits="userSpaceOnUse">
      <g id="mask-2">
        <rect id="path-1" x="46.82" y="21.3" width="17.31" height="11.37" fill="#fff"/>
      </g>
    </mask>
    <mask id="mask-2-2" x="46.82" y="21.3" width="17.57" height="11.61" maskUnits="userSpaceOnUse">
      <g id="mask-2-3" data-name="mask-2">
        <rect id="path-1-2" data-name="path-1" x="46.82" y="21.3" width="17.31" height="11.37" fill="#fff"/>
      </g>
    </mask>
    <linearGradient id="linear-gradient-3" x1="-530.86" y1="514.33" x2="-530.97" y2="514.36" gradientTransform="matrix(32.81, 0, 0, -17.65, 17483.86, 9108.82)" gradientUnits="userSpaceOnUse">
      <stop offset="0" stop-color="#008374"/>
      <stop offset="1" stop-color="#006a59"/>
    </linearGradient>
    <mask id="mask-3" x="46.82" y="21.3" width="17.31" height="11.48" maskUnits="userSpaceOnUse">
      <g id="mask-2-4" data-name="mask-2">
        <rect id="path-1-3" data-name="path-1" x="46.82" y="21.3" width="17.31" height="11.37" fill="#fff"/>
      </g>
    </mask>
    <linearGradient id="linear-gradient-4" x1="-538.3" y1="519.44" x2="-538.48" y2="519.41" gradientTransform="matrix(61.88, 0, 0, -25.41, 33363.79, 13229.75)" gradientUnits="userSpaceOnUse">
      <stop offset="0" stop-color="#00aa89"/>
      <stop offset="1" stop-color="#009989"/>
    </linearGradient>
  </defs>
  <g>
    <rect x="12.05" y="16.99" width="61.21" height="19.99" fill-opacity="0.4" fill="url(#linear-gradient)"/>
    <g>
      <g>
        <rect id="path-2" x="20.85" y="22.52" width="18.92" height="1.7"/>
        <rect id="path-2-2" data-name="path-2" x="20.85" y="22.52" width="18.92" height="1.7" fill="#fff" fill-opacity="0.95"/>
      </g>
      <g opacity="0.6">
        <rect id="path-2-3" data-name="path-2" x="20.85" y="25.91" width="16.46" height="0.79" fill="#fff"/>
        <rect id="path-2-4" data-name="path-2" x="20.85" y="25.91" width="16.46" height="0.79" fill="#fff" fill-opacity="0.95"/>
      </g>
      <g opacity="0.6">
        <rect id="path-2-5" data-name="path-2" x="20.85" y="28.28" width="14.02" height="0.79" fill="#fff"/>
        <rect id="path-2-6" data-name="path-2" x="20.85" y="28.28" width="14.02" height="0.79" fill="#fff" fill-opacity="0.95"/>
      </g>
      <g opacity="0.6">
        <rect id="path-2-7" data-name="path-2" x="20.85" y="30.65" width="16.46" height="0.79" fill="#fff"/>
        <rect id="path-2-8" data-name="path-2" x="20.85" y="30.65" width="16.46" height="0.79" fill="#fff" fill-opacity="0.95"/>
      </g>
    </g>
    <g id="Group">
      <rect id="Rectangle" x="12.05" width="61.21" height="11.33" fill="url(#linear-gradient-2)"/>
    </g>
    <g id="Group-4" opacity="0.8">
      <g id="Group-2" data-name="Group">
        <path id="Rectangle-2" data-name="Rectangle" d="M61.58,4.92V6.41H29.42V4.92Z" fill="#fff"/>
      </g>
    </g>
    <path id="Rectangle-3" data-name="Rectangle" d="M66,4.36h2.85A1.25,1.25,0,0,1,70,5.66h0A1.24,1.24,0,0,1,68.85,7H66a1.24,1.24,0,0,1-1.16-1.3h0A1.24,1.24,0,0,1,66,4.36Z" fill="#fff"/>
    <path id="Rectangle-4" data-name="Rectangle" d="M16.29,4.36h8.86a1,1,0,0,1,1,1.1v.41a1,1,0,0,1-1,1.09H16.29a1,1,0,0,1-1-1.09V5.46A1,1,0,0,1,16.29,4.36Z" fill="#fff"/>
    <g>
      <rect x="46.48" y="20.95" width="17.99" height="12.08" fill="#fff"/>
      <g>
        <rect id="path-1-4" data-name="path-1" x="46.82" y="21.3" width="17.31" height="11.37" fill="#79d1f2"/>
        <g mask="url(#mask)">
          <ellipse cx="61.59" cy="24.21" rx="1.87" ry="1.9" fill="#f3ec60"/>
        </g>
        <g mask="url(#mask-2-2)">
          <path d="M64.21,32.74c0-.19.47-3.26-.08-3.27H64c-3.63,0-6.69,1.35-7.66,3.2C56.1,33.06,64.21,32.91,64.21,32.74Z" fill-rule="evenodd" fill="url(#linear-gradient-3)"/>
        </g>
        <g mask="url(#mask-3)">
          <path d="M46.82,32.67c2.89,0,12.07.23,12,0-.64-2.91-5.19-5.18-12-5.56Z" fill-rule="evenodd" fill="url(#linear-gradient-4)"/>
        </g>
      </g>
      <path d="M64.47,21V33h-18V21Zm-.34.35H46.82V32.67H64.13Z" fill="#fff" fill-rule="evenodd"/>
    </g>
    <rect x="12.04" y="42.64" width="61.21" height="13.65" fill="#d8d8d8" opacity="0.26" style="isolation: isolate"/>
    <g>
      <circle cx="53.41" cy="49.46" r="1.25" fill="#fff"/>
      <circle cx="58.21" cy="49.46" r="1.25" fill="#fff"/>
      <circle cx="63.16" cy="49.46" r="1.25" fill="#fff"/>
    </g>
    <g>
      <g opacity="0.6">
        <rect id="path-2-9" data-name="path-2" x="36.52" y="46.7" width="9.95" height="0.79" fill="#fff"/>
        <rect id="path-2-10" data-name="path-2" x="36.52" y="46.7" width="9.95" height="0.79" fill="#fff" fill-opacity="0.95"/>
      </g>
      <g opacity="0.6">
        <rect id="path-2-11" data-name="path-2" x="36.52" y="49.07" width="8.47" height="0.79" fill="#fff"/>
        <rect id="path-2-12" data-name="path-2" x="36.52" y="49.07" width="8.47" height="0.79" fill="#fff" fill-opacity="0.95"/>
      </g>
      <g opacity="0.6">
        <rect id="path-2-13" data-name="path-2" x="36.52" y="51.44" width="9.95" height="0.79" fill="#fff"/>
        <rect id="path-2-14" data-name="path-2" x="36.52" y="51.44" width="9.95" height="0.79" fill="#fff" fill-opacity="0.95"/>
      </g>
    </g>
    <g>
      <g opacity="0.6">
        <rect id="path-2-15" data-name="path-2" x="20.84" y="46.69" width="7.45" height="0.79" fill="#fff"/>
        <rect id="path-2-16" data-name="path-2" x="20.84" y="46.69" width="7.45" height="0.79" fill="#fff" fill-opacity="0.95"/>
      </g>
      <g opacity="0.6">
        <rect id="path-2-17" data-name="path-2" x="20.84" y="49.06" width="9.95" height="0.79" fill="#fff"/>
        <rect id="path-2-18" data-name="path-2" x="20.84" y="49.06" width="9.95" height="0.79" fill="#fff" fill-opacity="0.95"/>
      </g>
      <g opacity="0.6">
        <rect id="path-2-19" data-name="path-2" x="20.84" y="51.43" width="9.95" height="0.79" fill="#fff"/>
        <rect id="path-2-20" data-name="path-2" x="20.84" y="51.43" width="9.95" height="0.79" fill="#fff" fill-opacity="0.95"/>
      </g>
    </g>
  </g>
</svg>
