<svg xmlns="http://www.w3.org/2000/svg" xmlns:xlink="http://www.w3.org/1999/xlink" width="82" height="60" viewBox="0 0 85.26 61.95">
  <defs>
    <linearGradient id="linear-gradient" x1="-247.54" y1="513.78" x2="-247.54" y2="511.93" gradientTransform="matrix(44, 0, 0, -17, 10934.29, 8745.52)" gradientUnits="userSpaceOnUse">
      <stop offset="0" stop-color="#00a09d"/>
      <stop offset="1" stop-color="#00e2ff"/>
    </linearGradient>
    <linearGradient id="linear-gradient-2" x1="0" y1="5.67" x2="85.27" y2="5.67" gradientTransform="matrix(1, 0, 0, 1, 0, 0)" xlink:href="#linear-gradient"/>
    <mask id="mask" x="49.01" y="19.22" width="23.75" height="15.61" maskUnits="userSpaceOnUse">
      <g id="mask-2">
        <rect id="path-1" x="49.01" y="19.22" width="23.75" height="15.61" fill="#fff"/>
      </g>
    </mask>
    <mask id="mask-2-2" x="49.01" y="19.22" width="24.11" height="15.95" maskUnits="userSpaceOnUse">
      <g id="mask-2-3" data-name="mask-2">
        <rect id="path-1-2" data-name="path-1" x="49.01" y="19.22" width="23.75" height="15.61" fill="#fff"/>
      </g>
    </mask>
    <linearGradient id="linear-gradient-3" x1="-245.13" y1="514.22" x2="-245.29" y2="514.27" gradientTransform="matrix(32.81, 0, 0, -17.65, 8117.83, 9108.82)" gradientUnits="userSpaceOnUse">
      <stop offset="0" stop-color="#008374"/>
      <stop offset="1" stop-color="#006a59"/>
    </linearGradient>
    <mask id="mask-3" x="49.01" y="19.22" width="23.75" height="15.77" maskUnits="userSpaceOnUse">
      <g id="mask-2-4" data-name="mask-2">
        <rect id="path-1-3" data-name="path-1" x="49.01" y="19.22" width="23.75" height="15.61" fill="#fff"/>
      </g>
    </mask>
    <linearGradient id="linear-gradient-4" x1="-248.56" y1="519.39" x2="-248.81" y2="519.36" gradientTransform="matrix(61.88, 0, 0, -25.41, 15440.22, 13229.75)" gradientUnits="userSpaceOnUse">
      <stop offset="0" stop-color="#00aa89"/>
      <stop offset="1" stop-color="#009989"/>
    </linearGradient>
  </defs>
  <g id="Full">
    <g>
      <rect y="11.34" width="85.26" height="31.36" fill-opacity="0.4" fill="url(#linear-gradient)"/>
      <g>
        <g>
          <rect id="path-2" x="12.05" y="22.06" width="22.81" height="1.89"/>
          <rect id="path-2-2" data-name="path-2" x="12.05" y="22.06" width="22.81" height="1.89" fill="#fff" fill-opacity="0.95"/>
        </g>
        <g opacity="0.6">
          <rect id="path-2-3" data-name="path-2" x="12.05" y="25.84" width="19.84" height="0.88" fill="#fff"/>
          <rect id="path-2-4" data-name="path-2" x="12.05" y="25.84" width="19.84" height="0.88" fill="#fff" fill-opacity="0.95"/>
        </g>
        <g opacity="0.6">
          <rect id="path-2-5" data-name="path-2" x="12.05" y="28.47" width="16.9" height="0.88" fill="#fff"/>
          <rect id="path-2-6" data-name="path-2" x="12.05" y="28.47" width="16.9" height="0.88" fill="#fff" fill-opacity="0.95"/>
        </g>
        <g opacity="0.6">
          <rect id="path-2-7" data-name="path-2" x="12.05" y="31.11" width="19.84" height="0.88" fill="#fff"/>
          <rect id="path-2-8" data-name="path-2" x="12.05" y="31.11" width="19.84" height="0.88" fill="#fff" fill-opacity="0.95"/>
        </g>
      </g>
      <g id="Group">
        <rect id="Rectangle" width="85.27" height="11.34" fill="url(#linear-gradient-2)"/>
      </g>
      <g id="Group-4" opacity="0.8">
        <g id="Group-2" data-name="Group">
          <path id="Rectangle-2" data-name="Rectangle" d="M69,5.24V7H24.2V5.24Z" fill="#fff"/>
        </g>
      </g>
      <path id="Rectangle-3" data-name="Rectangle" d="M75.13,3.87h4a1.83,1.83,0,0,1,1.62,2h0a1.83,1.83,0,0,1-1.62,2h-4a1.83,1.83,0,0,1-1.62-2h0A1.83,1.83,0,0,1,75.13,3.87Z" fill="#fff"/>
      <path id="Rectangle-4" data-name="Rectangle" d="M6,3.87H18.29a1.54,1.54,0,0,1,1.37,1.67v.63a1.54,1.54,0,0,1-1.37,1.67H6A1.54,1.54,0,0,1,4.6,6.17V5.54A1.54,1.54,0,0,1,6,3.87Z" fill="#fff"/>
      <g>
        <rect x="48.54" y="18.74" width="24.68" height="16.59" fill="#fff"/>
        <g>
          <rect id="path-1-4" data-name="path-1" x="49.01" y="19.22" width="23.75" height="15.61" fill="#79d1f2"/>
          <g mask="url(#mask)">
            <ellipse cx="69.26" cy="23.22" rx="2.56" ry="2.61" fill="#f3ec60"/>
          </g>
          <g mask="url(#mask-2-2)">
            <path d="M72.86,34.94c0-.26.64-4.48-.11-4.49h-.23c-5,0-9.18,1.85-10.51,4.39C61.73,35.38,72.86,35.16,72.86,34.94Z" fill-rule="evenodd" fill="url(#linear-gradient-3)"/>
          </g>
          <g mask="url(#mask-3)">
            <path d="M49,34.84c4,.07,16.55.32,16.48,0-.87-4-7.12-7.11-16.48-7.64Z" fill-rule="evenodd" fill="url(#linear-gradient-4)"/>
          </g>
        </g>
        <path d="M73.22,18.74V35.33H48.54V18.74Zm-.47.48H49V34.84H72.75Z" fill="#fff" fill-rule="evenodd"/>
      </g>
      <rect y="42.7" width="85.27" height="19.25" fill="#d8d8d8" opacity="0.26" style="isolation: isolate"/>
      <g>
        <circle cx="58.83" cy="52.37" r="1.55" fill="#fff"/>
        <circle cx="65.02" cy="52.37" r="1.55" fill="#fff"/>
        <circle cx="71.2" cy="52.37" r="1.55" fill="#fff"/>
      </g>
      <g>
        <g opacity="0.6">
          <rect id="path-2-9" data-name="path-2" x="33.24" y="49.28" width="16.38" height="0.88" fill="#fff"/>
          <rect id="path-2-10" data-name="path-2" x="33.24" y="49.28" width="16.38" height="0.88" fill="#fff" fill-opacity="0.95"/>
        </g>
        <g opacity="0.6">
          <rect id="path-2-11" data-name="path-2" x="33.24" y="51.92" width="13.95" height="0.88" fill="#fff"/>
          <rect id="path-2-12" data-name="path-2" x="33.24" y="51.92" width="13.95" height="0.88" fill="#fff" fill-opacity="0.95"/>
        </g>
        <g opacity="0.6">
          <rect id="path-2-13" data-name="path-2" x="33.24" y="54.55" width="16.38" height="0.88" fill="#fff"/>
          <rect id="path-2-14" data-name="path-2" x="33.24" y="54.55" width="16.38" height="0.88" fill="#fff" fill-opacity="0.95"/>
        </g>
      </g>
      <g>
        <g opacity="0.6">
          <rect id="path-2-15" data-name="path-2" x="11.94" y="49.28" width="12.26" height="0.88" fill="#fff"/>
          <rect id="path-2-16" data-name="path-2" x="11.94" y="49.28" width="12.26" height="0.88" fill="#fff" fill-opacity="0.95"/>
        </g>
        <g opacity="0.6">
          <rect id="path-2-17" data-name="path-2" x="11.94" y="51.92" width="16.38" height="0.88" fill="#fff"/>
          <rect id="path-2-18" data-name="path-2" x="11.94" y="51.92" width="16.38" height="0.88" fill="#fff" fill-opacity="0.95"/>
        </g>
        <g opacity="0.6">
          <rect id="path-2-19" data-name="path-2" x="11.94" y="54.55" width="16.38" height="0.88" fill="#fff"/>
          <rect id="path-2-20" data-name="path-2" x="11.94" y="54.55" width="16.38" height="0.88" fill="#fff" fill-opacity="0.95"/>
        </g>
      </g>
    </g>
  </g>
</svg>
