<svg xmlns="http://www.w3.org/2000/svg" xmlns:xlink="http://www.w3.org/1999/xlink" width="82" height="60" viewBox="0 0 85.26 61.95">
  <defs>
    <linearGradient id="linear-gradient" x1="-341.08" y1="513.78" x2="-341.08" y2="511.93" gradientTransform="matrix(44, 0, 0, -17, 15050.29, 8745.52)" gradientUnits="userSpaceOnUse">
      <stop offset="0" stop-color="#00a09d"/>
      <stop offset="1" stop-color="#00e2ff"/>
    </linearGradient>
    <linearGradient id="linear-gradient-2" x1="12.04" y1="5.66" x2="73.26" y2="5.66" gradientTransform="matrix(1, 0, 0, 1, 0, 0)" xlink:href="#linear-gradient"/>
    <mask id="mask" x="47.27" y="20.68" width="19.23" height="12.63" maskUnits="userSpaceOnUse">
      <g id="mask-2">
        <rect id="path-1" x="47.27" y="20.68" width="19.23" height="12.63" fill="#fff"/>
      </g>
    </mask>
    <mask id="mask-2-2" x="47.27" y="20.68" width="19.53" height="12.9" maskUnits="userSpaceOnUse">
      <g id="mask-2-3" data-name="mask-2">
        <rect id="path-1-2" data-name="path-1" x="47.27" y="20.68" width="19.23" height="12.63" fill="#fff"/>
      </g>
    </mask>
    <linearGradient id="linear-gradient-3" x1="-338.14" y1="514.3" x2="-338.27" y2="514.34" gradientTransform="matrix(32.81, 0, 0, -17.65, 11162.9, 9108.82)" gradientUnits="userSpaceOnUse">
      <stop offset="0" stop-color="#008374"/>
      <stop offset="1" stop-color="#006a59"/>
    </linearGradient>
    <mask id="mask-3" x="47.27" y="20.68" width="19.23" height="12.76" maskUnits="userSpaceOnUse">
      <g id="mask-2-4" data-name="mask-2">
        <rect id="path-1-3" data-name="path-1" x="47.27" y="20.68" width="19.23" height="12.63" fill="#fff"/>
      </g>
    </mask>
    <linearGradient id="linear-gradient-4" x1="-342.8" y1="519.42" x2="-343" y2="519.4" gradientTransform="matrix(61.88, 0, 0, -25.41, 21267.5, 13229.75)" gradientUnits="userSpaceOnUse">
      <stop offset="0" stop-color="#00aa89"/>
      <stop offset="1" stop-color="#009989"/>
    </linearGradient>
  </defs>
  <g id="Boxed">
    <g>
      <rect x="12.04" y="11.33" width="61.21" height="31.31" fill-opacity="0.4" fill="url(#linear-gradient)"/>
      <g>
        <g>
          <rect id="path-2" x="18.42" y="22.03" width="22.11" height="1.88"/>
          <rect id="path-2-2" data-name="path-2" x="18.42" y="22.03" width="22.11" height="1.88" fill="#fff" fill-opacity="0.95"/>
        </g>
        <g opacity="0.6">
          <rect id="path-2-3" data-name="path-2" x="18.42" y="25.8" width="19.24" height="0.88" fill="#fff"/>
          <rect id="path-2-4" data-name="path-2" x="18.42" y="25.8" width="19.24" height="0.88" fill="#fff" fill-opacity="0.95"/>
        </g>
        <g opacity="0.6">
          <rect id="path-2-5" data-name="path-2" x="18.42" y="28.43" width="16.38" height="0.88" fill="#fff"/>
          <rect id="path-2-6" data-name="path-2" x="18.42" y="28.43" width="16.38" height="0.88" fill="#fff" fill-opacity="0.95"/>
        </g>
        <g opacity="0.6">
          <rect id="path-2-7" data-name="path-2" x="18.42" y="31.06" width="19.24" height="0.88" fill="#fff"/>
          <rect id="path-2-8" data-name="path-2" x="18.42" y="31.06" width="19.24" height="0.88" fill="#fff" fill-opacity="0.95"/>
        </g>
      </g>
      <g id="Group">
        <rect id="Rectangle" x="12.04" width="61.21" height="11.33" fill="url(#linear-gradient-2)"/>
      </g>
      <g id="Group-4" opacity="0.8">
        <g id="Group-2" data-name="Group">
          <path id="Rectangle-2" data-name="Rectangle" d="M61.57,4.92V6.41H29.4V4.92Z" fill="#fff"/>
        </g>
      </g>
      <path id="Rectangle-3" data-name="Rectangle" d="M66,4.36h2.85A1.24,1.24,0,0,1,70,5.66h0A1.24,1.24,0,0,1,68.84,7H66a1.24,1.24,0,0,1-1.17-1.3h0A1.25,1.25,0,0,1,66,4.36Z" fill="#fff"/>
      <path id="Rectangle-4" data-name="Rectangle" d="M16.27,4.36h8.87a1,1,0,0,1,1,1.1v.41a1,1,0,0,1-1,1.09H16.27a1,1,0,0,1-1-1.09V5.46A1,1,0,0,1,16.27,4.36Z" fill="#fff"/>
      <g>
        <rect x="46.9" y="20.28" width="19.99" height="13.42" fill="#fff"/>
        <g>
          <rect id="path-1-4" data-name="path-1" x="47.27" y="20.68" width="19.23" height="12.63" fill="#79d1f2"/>
          <g mask="url(#mask)">
            <ellipse cx="63.68" cy="23.91" rx="2.07" ry="2.11" fill="#f3ec60"/>
          </g>
          <g mask="url(#mask-2-2)">
            <path d="M66.6,33.39c0-.21.51-3.63-.09-3.64h-.19c-4,0-7.44,1.5-8.51,3.56C57.58,33.74,66.6,33.57,66.6,33.39Z" fill-rule="evenodd" fill="url(#linear-gradient-3)"/>
          </g>
          <g mask="url(#mask-3)">
            <path d="M47.27,33.31c3.21,0,13.41.25,13.36,0-.71-3.24-5.77-5.76-13.36-6.18Z" fill-rule="evenodd" fill="url(#linear-gradient-4)"/>
          </g>
        </g>
        <path d="M66.88,20.28V33.7h-20V20.28Zm-.37.4H47.27V33.31H66.51Z" fill="#fff" fill-rule="evenodd"/>
      </g>
      <rect x="12.04" y="42.64" width="61.21" height="19.31" fill="#d8d8d8" opacity="0.26" style="isolation: isolate"/>
      <g>
        <circle cx="54.66" cy="52.29" r="1.39" fill="#fff"/>
        <circle cx="60" cy="52.29" r="1.39" fill="#fff"/>
        <circle cx="65.49" cy="52.29" r="1.39" fill="#fff"/>
      </g>
      <g>
        <g opacity="0.6">
          <rect id="path-2-9" data-name="path-2" x="35.84" y="49.22" width="11.05" height="0.88" fill="#fff"/>
          <rect id="path-2-10" data-name="path-2" x="35.84" y="49.22" width="11.05" height="0.88" fill="#fff" fill-opacity="0.95"/>
        </g>
        <g opacity="0.6">
          <rect id="path-2-11" data-name="path-2" x="35.84" y="51.85" width="9.41" height="0.88" fill="#fff"/>
          <rect id="path-2-12" data-name="path-2" x="35.84" y="51.85" width="9.41" height="0.88" fill="#fff" fill-opacity="0.95"/>
        </g>
        <g opacity="0.6">
          <rect id="path-2-13" data-name="path-2" x="35.84" y="54.49" width="11.05" height="0.88" fill="#fff"/>
          <rect id="path-2-14" data-name="path-2" x="35.84" y="54.49" width="11.05" height="0.88" fill="#fff" fill-opacity="0.95"/>
        </g>
      </g>
      <g>
        <g opacity="0.6">
          <rect id="path-2-15" data-name="path-2" x="18.42" y="49.21" width="8.28" height="0.88" fill="#fff"/>
          <rect id="path-2-16" data-name="path-2" x="18.42" y="49.21" width="8.28" height="0.88" fill="#fff" fill-opacity="0.95"/>
        </g>
        <g opacity="0.6">
          <rect id="path-2-17" data-name="path-2" x="18.42" y="51.84" width="11.05" height="0.88" fill="#fff"/>
          <rect id="path-2-18" data-name="path-2" x="18.42" y="51.84" width="11.05" height="0.88" fill="#fff" fill-opacity="0.95"/>
        </g>
        <g opacity="0.6">
          <rect id="path-2-19" data-name="path-2" x="18.42" y="54.47" width="11.05" height="0.88" fill="#fff"/>
          <rect id="path-2-20" data-name="path-2" x="18.42" y="54.47" width="11.05" height="0.88" fill="#fff" fill-opacity="0.95"/>
        </g>
      </g>
    </g>
  </g>
</svg>
