<svg xmlns="http://www.w3.org/2000/svg" xmlns:xlink="http://www.w3.org/1999/xlink" width="82" height="60" viewBox="0 0 85.26 61.95">
  <defs>
    <linearGradient id="linear-gradient" x1="-437.08" y1="513.44" x2="-437.08" y2="511.93" gradientTransform="matrix(44, 0, 0, -17, 19274.28, 8745.52)" gradientUnits="userSpaceOnUse">
      <stop offset="0" stop-color="#00a09d"/>
      <stop offset="1" stop-color="#00e2ff"/>
    </linearGradient>
    <linearGradient id="linear-gradient-2" x1="12.05" y1="11.33" x2="73.27" y2="11.33" gradientTransform="matrix(1, 0, 0, 1, 0, 0)" xlink:href="#linear-gradient"/>
    <mask id="mask" x="48.25" y="24.13" width="17.31" height="11.37" maskUnits="userSpaceOnUse">
      <g id="mask-2">
        <rect id="path-1" x="48.25" y="24.13" width="17.31" height="11.37" fill="#fff"/>
      </g>
    </mask>
    <mask id="mask-2-2" x="48.25" y="24.13" width="17.57" height="11.61" maskUnits="userSpaceOnUse">
      <g id="mask-2-3" data-name="mask-2">
        <rect id="path-1-2" data-name="path-1" x="48.25" y="24.13" width="17.31" height="11.37" fill="#fff"/>
      </g>
    </mask>
    <linearGradient id="linear-gradient-3" x1="-433.41" y1="514.17" x2="-433.53" y2="514.2" gradientTransform="matrix(32.81, 0, 0, -17.65, 14287.87, 9108.82)" gradientUnits="userSpaceOnUse">
      <stop offset="0" stop-color="#008374"/>
      <stop offset="1" stop-color="#006a59"/>
    </linearGradient>
    <mask id="mask-3" x="48.25" y="24.13" width="17.31" height="11.48" maskUnits="userSpaceOnUse">
      <g id="mask-2-4" data-name="mask-2">
        <rect id="path-1-3" data-name="path-1" x="48.25" y="24.13" width="17.31" height="11.37" fill="#fff"/>
      </g>
    </mask>
    <linearGradient id="linear-gradient-4" x1="-439.44" y1="519.33" x2="-439.62" y2="519.3" gradientTransform="matrix(61.88, 0, 0, -25.41, 27247.69, 13229.75)" gradientUnits="userSpaceOnUse">
      <stop offset="0" stop-color="#00aa89"/>
      <stop offset="1" stop-color="#009989"/>
    </linearGradient>
  </defs>
  <g id="Framed">
    <g>
      <rect x="12.05" y="16.99" width="61.21" height="25.65" fill-opacity="0.4" fill="url(#linear-gradient)"/>
      <g>
        <g>
          <rect id="path-2" x="19.53" y="25.35" width="19.9" height="1.7"/>
          <rect id="path-2-2" data-name="path-2" x="19.53" y="25.35" width="19.9" height="1.7" fill="#fff" fill-opacity="0.95"/>
        </g>
        <g opacity="0.6">
          <rect id="path-2-3" data-name="path-2" x="19.53" y="28.74" width="17.31" height="0.79" fill="#fff"/>
          <rect id="path-2-4" data-name="path-2" x="19.53" y="28.74" width="17.31" height="0.79" fill="#fff" fill-opacity="0.95"/>
        </g>
        <g opacity="0.6">
          <rect id="path-2-5" data-name="path-2" x="19.53" y="31.11" width="14.74" height="0.79" fill="#fff"/>
          <rect id="path-2-6" data-name="path-2" x="19.53" y="31.11" width="14.74" height="0.79" fill="#fff" fill-opacity="0.95"/>
        </g>
        <g opacity="0.6">
          <rect id="path-2-7" data-name="path-2" x="19.53" y="33.48" width="17.31" height="0.79" fill="#fff"/>
          <rect id="path-2-8" data-name="path-2" x="19.53" y="33.48" width="17.31" height="0.79" fill="#fff" fill-opacity="0.95"/>
        </g>
      </g>
      <g id="Group">
        <rect id="Rectangle" x="12.05" y="5.66" width="61.21" height="11.33" fill="url(#linear-gradient-2)"/>
      </g>
      <g id="Group-4" opacity="0.8">
        <g id="Group-2" data-name="Group">
          <path id="Rectangle-2" data-name="Rectangle" d="M61.58,10.58v1.5H29.42v-1.5Z" fill="#fff"/>
        </g>
      </g>
      <path id="Rectangle-3" data-name="Rectangle" d="M66,10h2.85A1.24,1.24,0,0,1,70,11.33h0a1.24,1.24,0,0,1-1.17,1.3H66a1.24,1.24,0,0,1-1.16-1.3h0A1.24,1.24,0,0,1,66,10Z" fill="#fff"/>
      <path id="Rectangle-4" data-name="Rectangle" d="M16.29,10h8.86a1,1,0,0,1,1,1.09v.41a1,1,0,0,1-1,1.1H16.29a1,1,0,0,1-1-1.1v-.41A1,1,0,0,1,16.29,10Z" fill="#fff"/>
      <g>
        <rect x="47.91" y="23.78" width="17.99" height="12.08" fill="#fff"/>
        <g>
          <rect id="path-1-4" data-name="path-1" x="48.25" y="24.13" width="17.31" height="11.37" fill="#79d1f2"/>
          <g mask="url(#mask)">
            <ellipse cx="63.01" cy="27.04" rx="1.87" ry="1.9" fill="#f3ec60"/>
          </g>
          <g mask="url(#mask-2-2)">
            <path d="M65.64,35.57c0-.19.46-3.26-.08-3.27h-.17c-3.63,0-6.7,1.35-7.66,3.2C57.52,35.89,65.64,35.74,65.64,35.57Z" fill-rule="evenodd" fill="url(#linear-gradient-3)"/>
          </g>
          <g mask="url(#mask-3)">
            <path d="M48.25,35.5c2.88,0,12.07.23,12,0-.64-2.91-5.2-5.18-12-5.56Z" fill-rule="evenodd" fill="url(#linear-gradient-4)"/>
          </g>
        </g>
        <path d="M65.9,23.78V35.85h-18V23.78Zm-.34.35H48.25V35.5H65.56Z" fill="#fff" fill-rule="evenodd"/>
      </g>
      <rect x="12.05" y="42.64" width="61.22" height="13.65" fill="#d8d8d8" opacity="0.26" style="isolation: isolate"/>
      <g>
        <circle cx="53.41" cy="49.46" r="1.25" fill="#fff"/>
        <circle cx="58.21" cy="49.46" r="1.25" fill="#fff"/>
        <circle cx="63.16" cy="49.46" r="1.25" fill="#fff"/>
      </g>
      <g>
        <g opacity="0.6">
          <rect id="path-2-9" data-name="path-2" x="36.52" y="46.7" width="9.95" height="0.79" fill="#fff"/>
          <rect id="path-2-10" data-name="path-2" x="36.52" y="46.7" width="9.95" height="0.79" fill="#fff" fill-opacity="0.95"/>
        </g>
        <g opacity="0.6">
          <rect id="path-2-11" data-name="path-2" x="36.52" y="49.07" width="8.47" height="0.79" fill="#fff"/>
          <rect id="path-2-12" data-name="path-2" x="36.52" y="49.07" width="8.47" height="0.79" fill="#fff" fill-opacity="0.95"/>
        </g>
        <g opacity="0.6">
          <rect id="path-2-13" data-name="path-2" x="36.52" y="51.44" width="9.95" height="0.79" fill="#fff"/>
          <rect id="path-2-14" data-name="path-2" x="36.52" y="51.44" width="9.95" height="0.79" fill="#fff" fill-opacity="0.95"/>
        </g>
      </g>
      <g>
        <g opacity="0.6">
          <rect id="path-2-15" data-name="path-2" x="20.84" y="46.69" width="7.45" height="0.79" fill="#fff"/>
          <rect id="path-2-16" data-name="path-2" x="20.84" y="46.69" width="7.45" height="0.79" fill="#fff" fill-opacity="0.95"/>
        </g>
        <g opacity="0.6">
          <rect id="path-2-17" data-name="path-2" x="20.84" y="49.06" width="9.95" height="0.79" fill="#fff"/>
          <rect id="path-2-18" data-name="path-2" x="20.84" y="49.06" width="9.95" height="0.79" fill="#fff" fill-opacity="0.95"/>
        </g>
        <g opacity="0.6">
          <rect id="path-2-19" data-name="path-2" x="20.84" y="51.43" width="9.95" height="0.79" fill="#fff"/>
          <rect id="path-2-20" data-name="path-2" x="20.84" y="51.43" width="9.95" height="0.79" fill="#fff" fill-opacity="0.95"/>
        </g>
      </g>
    </g>
  </g>
</svg>
