<svg version="1.0" xmlns="http://www.w3.org/2000/svg" viewBox="0 0 1280 1280">
    <g transform="translate(0,1280) scale(0.1,-0.1)">
        <path fill="white" d="M6125 11184 c-953 -60 -1851 -388 -2595 -948 -269 -203 -593 -507
-791 -746 -641 -770 -1007 -1643 -1111 -2650 -17 -164 -17 -716 0 -880 118
-1151 590 -2150 1391 -2950 384 -383 783 -668 1272 -910 638 -315 1326 -480
2009 -484 200 -1 245 2 299 17 279 79 491 291 567 568 25 89 25 308 0 399 -23
87 -86 214 -136 275 -190 233 -242 360 -243 590 -1 149 17 223 85 363 102 209
287 359 523 424 77 21 102 22 755 28 724 7 746 9 986 65 659 155 1233 555
1609 1120 388 583 519 1238 405 2020 -182 1242 -967 2345 -2159 3029 -615 354
-1312 574 -2061 651 -147 16 -668 28 -805 19z m-850 -1068 c385 -106 639 -477
595 -869 -23 -199 -107 -367 -254 -504 -393 -368 -1035 -251 -1272 232 -58
118 -75 187 -81 321 -6 133 12 242 60 354 104 241 318 418 572 474 90 20 295
15 380 -8z m2623 8 c316 -64 563 -314 628 -634 20 -99 15 -272 -10 -365 -43
-158 -160 -334 -289 -430 -369 -279 -888 -202 -1152 170 -224 316 -194 742 73
1027 78 84 217 172 327 208 126 42 291 51 423 24z m-4314 -2124 c322 -47 581
-282 667 -605 29 -111 29 -279 0 -390 -144 -547 -769 -786 -1236 -474 -147 98
-255 242 -317 420 -31 90 -33 100 -33 249 0 149 2 159 33 250 46 134 101 221
201 321 185 185 428 266 685 229z m5960 -19 c131 -34 247 -102 352 -206 106
-104 158 -188 206 -325 31 -91 33 -101 33 -250 0 -149 -2 -159 -33 -249 -62
-178 -170 -322 -317 -420 -467 -312 -1092 -73 -1236 474 -29 111 -29 279 0
390 84 319 341 554 659 605 84 13 246 4 336 -19z"/>
    </g>
</svg>
