<svg xmlns="http://www.w3.org/2000/svg" xmlns:xlink="http://www.w3.org/1999/xlink" width="70" height="70"><defs><path id="a" d="M4 0h61c4 0 5 1 5 5v60c0 4-1 5-5 5H4c-3 0-4-1-4-5V5c0-4 1-5 4-5z"/><linearGradient id="c" x1="100%" x2="0%" y1="0%" y2="100%"><stop offset="0%" stop-color="#94B6C8"/><stop offset="100%" stop-color="#6A9EBA"/></linearGradient><path id="d" d="M35.363 37.5c1.129-2.152 1.841-4.318 2.137-6.5h11.536v-3.212a.342.342 0 0 0-.339-.343H37.5c-.109-.965-.34-1.879-.697-2.742h12.233c1.5 0 2.714 1.228 2.714 2.742v20.11c0 1.514-1.213 2.742-2.714 2.742H21.964c-1.5 0-2.714-1.228-2.714-2.742 2.258.007 3.907.022 5.137 0h24.31a.342.342 0 0 0 .339-.343V37.5H35.363zM15.46 55.642h-1.036V55h2.833v.642h-1.037v2.832h-.76v-2.832zM17.423 55h1.07l.809 2.389h.01L20.075 55h1.07v3.474h-.711v-2.462h-.01l-.847 2.462h-.586l-.848-2.438h-.01v2.438h-.711V55zm4.765-36h4.547c2.803 0 6.062 2.167 5.09 6.933-.858 4.21-4.06 6.686-7.892 6.686h-2.496c-.549 0-.913.478-.999 1.047L19.334 41h-4.326c-.548 0-1.085-.479-.999-1.048l2.997-19.904c.086-.57.45-1.048 1-1.048h4.182zm11.656 10.987c-.76 3.915-3.604 6.218-7.006 6.218l-.81-.003-.488.003c-.488.003-.727.442-.803.97l-.053.363-.774 5.388c-.081.56-.416 1.036-.92 1.072L19.896 44c-.487 0-.963-.445-.887-.974l.015-.103h1.985l1.043-7.26.029.004.176-1.36h1.589c4.727 0 8.518-3.272 9.606-8.307.512 1.003.717 2.325.393 3.987z"/><path id="e" d="M35.363 35.5c1.129-2.152 1.841-4.318 2.137-6.5h11.536v-3.212a.342.342 0 0 0-.339-.343H37.5c-.109-.965-.34-1.879-.697-2.742h12.233c1.5 0 2.714 1.228 2.714 2.742v20.11c0 1.514-1.213 2.742-2.714 2.742H21.964c-1.5 0-2.714-1.228-2.714-2.742 2.258.007 3.907.022 5.137 0h24.31a.342.342 0 0 0 .339-.343V35.5H35.363zM15.46 53.642h-1.036V53h2.833v.642h-1.037v2.832h-.76v-2.832zM17.423 53h1.07l.809 2.389h.01L20.075 53h1.07v3.474h-.711v-2.462h-.01l-.847 2.462h-.586l-.848-2.438h-.01v2.438h-.711V53zm4.765-36h4.547c2.803 0 6.062 2.167 5.09 6.933-.858 4.21-4.06 6.686-7.892 6.686h-2.496c-.549 0-.913.478-.999 1.047L19.334 39h-4.326c-.548 0-1.085-.479-.999-1.048l2.997-19.904c.086-.57.45-1.048 1-1.048h4.182zm11.656 10.987c-.76 3.915-3.604 6.218-7.006 6.218l-.81-.003-.488.003c-.488.003-.727.442-.803.97l-.053.363-.774 5.388c-.081.56-.416 1.036-.92 1.072L19.896 42c-.487 0-.963-.445-.887-.974l.015-.103h1.985l1.043-7.26.029.004.176-1.36h1.589c4.727 0 8.518-3.272 9.606-8.307.512 1.003.717 2.325.393 3.987z"/></defs><g fill="none" fill-rule="evenodd"><mask id="b" fill="#fff"><use xlink:href="#a"/></mask><g mask="url(#b)"><path fill="url(#c)" d="M0 0H70V70H0z"/><path fill="#FFF" fill-opacity=".383" d="M4 1h61c2.667 0 4.333.667 5 2V0H0v3c.667-1.333 2-2 4-2z"/><path fill="#393939" d="M4 69c-2 0-4-1-4-4V33.916L17.423 17.25H28l3.391 5.453h5.859L48 23l3.576 1.968-.236 22.01L39.224 69H4z" opacity=".324"/><path fill="#000" fill-opacity=".383" d="M4 69h61c2.667 0 4.333-1 5-3v4H0v-4c.667 2 2 3 4 3z"/><use fill="#000" fill-rule="nonzero" opacity=".3" xlink:href="#d"/><use fill="#FFF" fill-rule="nonzero" xlink:href="#e"/></g></g></svg>