<?xml version="1.0" encoding="utf-8"?>
<svg viewBox="0 0 50 50" width="50px" height="50px" xmlns="http://www.w3.org/2000/svg" xmlns:xlink="http://www.w3.org/1999/xlink" xmlns:bx="https://boxy-svg.com"><defs><bx:export><bx:file format="png" xlink:href="#object-0"/><bx:file format="png" path="Untitled 2.png" xlink:href="#object-1"/><bx:file format="png" path="Untitled 3.png" xlink:href="#object-2"/><bx:file format="png" path="Untitled 4.png" xlink:href="#object-3"/><bx:file format="png" path="Untitled 5.png" xlink:href="#object-4"/><bx:file format="png" path="Untitled 6.png" xlink:href="#object-5"/><bx:file format="png" path="Untitled 7.png" xlink:href="#object-6"/><bx:file format="png" path="Untitled 8.png" xlink:href="#object-7"/><bx:file format="png" path="Untitled 9.png" xlink:href="#object-8"/><bx:file format="png" path="Untitled 10.png" xlink:href="#object-9"/><bx:file format="png" path="Untitled 11.png" xlink:href="#object-10"/><bx:file format="png" path="Untitled 12.png" xlink:href="#object-11"/><bx:file format="svg"/></bx:export></defs><path fill="#004B74" d="M 30.857 35.55 L 30.357 30.15 L 32.057 17.25 C 32.157 17.05 32.257 16.95 32.357 16.85 C 32.657 16.65 32.857 16.55 33.157 16.55 C 33.357 16.65 33.457 16.75 33.457 16.95 L 34.257 25.85 L 32.457 35.15 C 32.357 35.35 32.257 35.55 32.157 35.65 C 31.857 35.95 31.557 36.05 31.357 36.05 C 31.057 35.95 30.857 35.85 30.857 35.55 Z" transform="matrix(0.9999999999999999, 0, 0, 0.9999999999999999, 0, -8.881784197001252e-16)" id="object-0"/><path fill="#004B74" d="M 24.257 34.65 L 23.757 32.85 L 24.457 23.85 C 24.557 23.65 24.557 23.45 24.757 23.35 C 24.857 23.15 25.057 23.05 25.257 22.95 C 25.557 23.05 25.757 23.25 25.757 23.45 L 26.857 27.45 L 25.957 34.15 L 25.957 34.25 C 25.857 34.35 25.757 34.55 25.657 34.65 C 25.457 34.95 25.157 35.05 24.857 35.15 C 24.557 35.15 24.357 34.95 24.257 34.65 Z" transform="matrix(0.9999999999999999, 0, 0, 0.9999999999999999, 0, -8.881784197001252e-16)" id="object-1"/><path fill="#004B74" d="M 18.057 33.75 L 17.257 32.35 L 17.757 28.15 C 17.857 28.05 17.857 27.85 17.957 27.75 C 18.157 27.55 18.357 27.45 18.557 27.45 C 18.857 27.55 19.057 27.65 19.157 27.85 L 19.957 29.25 L 19.657 33.25 L 19.657 33.35 C 19.557 33.45 19.457 33.55 19.357 33.65 C 19.157 33.95 18.857 34.05 18.557 34.05 C 18.457 34.05 18.157 33.95 18.057 33.75 Z M 17.757 28.05 Z" transform="matrix(0.9999999999999999, 0, 0, 0.9999999999999999, 0, -8.881784197001252e-16)" id="object-2"/><path fill="#004B74" d="M 13.657 38.75 C 13.657 36.75 15.357 35.05 17.357 35.05 C 19.357 35.05 21.057 36.65 21.057 38.75 C 21.057 40.85 19.357 42.45 17.357 42.45 C 15.357 42.45 13.657 40.85 13.657 38.75 Z" transform="matrix(0.9999999999999999, 0, 0, 0.9999999999999999, 0, -8.881784197001252e-16)" id="object-3"/><path fill="#004B74" d="M 27.257 39.65 C 27.257 38.15 28.557 36.85 30.157 36.85 C 31.757 36.85 32.957 38.15 32.957 39.65 C 32.957 41.25 31.757 42.55 30.157 42.55 C 28.557 42.55 27.257 41.25 27.257 39.65 Z" transform="matrix(0.9999999999999999, 0, 0, 0.9999999999999999, 0, -8.881784197001252e-16)" id="object-4"/><path fill="#853C8A" d="M 16.657 33.95 L 13.657 33.45 L 13.157 33.35 L 12.957 33.25 L 12.257 33.15 C 12.457 33.15 12.757 33.05 12.857 32.85 C 12.957 32.75 13.057 32.65 13.057 32.45 L 13.657 26.95 C 13.757 26.65 13.957 26.45 14.257 26.45 L 14.657 26.55 L 17.757 27.15 L 18.057 27.25 L 18.757 27.45 C 18.557 27.45 18.357 27.55 18.157 27.75 C 18.057 27.85 17.957 28.05 17.957 28.15 L 17.157 33.55 C 17.157 33.85 16.857 34.05 16.657 33.95 Z M 17.757 28.05 Z" transform="matrix(0.9999999999999999, 0, 0, 0.9999999999999999, 0, -8.881784197001252e-16)" id="object-5"/><path fill="#00B3BC" d="M 23.157 34.95 L 19.657 34.35 L 18.657 34.15 C 18.957 34.15 19.257 33.95 19.457 33.75 C 19.557 33.65 19.657 33.55 19.757 33.45 L 19.757 33.35 L 20.557 22.65 C 20.557 22.35 20.857 22.15 21.157 22.15 L 21.057 22.15 L 25.257 22.95 C 25.057 23.05 24.957 23.15 24.757 23.35 C 24.557 23.55 24.557 23.65 24.457 23.85 L 23.657 34.45 C 23.657 34.75 23.357 34.95 23.157 34.95 Z" transform="matrix(0.9999999999999999, 0, 0, 0.9999999999999999, 0, -8.881784197001252e-16)" id="object-6"/><path fill="#739B38" d="M 29.357 35.75 L 25.757 35.25 L 24.757 35.15 C 25.057 35.05 25.357 34.95 25.557 34.65 C 25.657 34.55 25.757 34.35 25.857 34.25 L 25.857 34.15 L 28.357 15.75 C 28.357 15.65 28.457 15.45 28.557 15.45 C 28.757 15.35 28.857 15.35 29.057 15.35 C 29.057 15.45 29.057 15.55 29.057 15.55 L 32.257 16.25 L 32.357 16.35 L 33.157 16.55 C 32.857 16.55 32.557 16.65 32.357 16.95 C 32.157 17.05 32.057 17.25 32.057 17.35 L 29.557 35.45 C 29.657 35.55 29.457 35.65 29.357 35.75 Z" transform="matrix(0.9999999999999999, 0, 0, 0.9999999999999999, 0, -8.881784197001252e-16)" id="object-7"/><path fill="#FE4200" d="M 36.057 36.85 L 32.257 36.25 L 31.257 36.05 C 31.557 36.05 31.857 35.95 32.157 35.65 C 32.357 35.55 32.457 35.35 32.457 35.15 L 37.857 8.05 C 37.857 7.95 37.957 7.85 38.057 7.75 C 38.257 7.55 38.457 7.45 38.657 7.45 L 43.057 8.15 C 42.757 8.25 42.457 8.35 42.257 8.55 C 42.057 8.75 41.957 8.85 41.957 9.05 L 36.457 36.55 C 36.357 36.65 36.157 36.85 36.057 36.85 Z" transform="matrix(0.9999999999999999, 0, 0, 0.9999999999999999, 0, -8.881784197001252e-16)" id="object-8"/><path fill="#004B74" d="M 44.557 13.65 L 41.157 12.75 L 41.957 8.95 C 42.057 8.75 42.157 8.55 42.257 8.45 C 42.457 8.25 42.757 8.15 43.057 8.05 C 43.257 8.05 43.457 8.25 43.557 8.45 L 44.957 13.25 C 45.057 13.45 44.857 13.65 44.557 13.65 Z" transform="matrix(0.9999999999999999, 0, 0, 0.9999999999999999, 0, -8.881784197001252e-16)" id="object-9"/><path fill="#004B74" d="M 11.657 33.05 L 5.057 20.05 C 4.857 19.65 5.457 19.15 5.857 19.15 L 10.857 19.95 L 14.757 20.55 L 13.557 23.75 L 12.057 23.55 L 10.557 23.35 L 12.557 27.55 L 13.357 29.45 L 13.057 32.65 C 12.957 32.85 12.957 32.95 12.857 33.05 C 12.657 33.25 12.457 33.35 12.257 33.35 C 11.957 33.25 11.757 33.15 11.657 33.05 Z" transform="matrix(0.9999999999999999, 0, 0, 0.9999999999999999, 0, -8.881784197001252e-16)" id="object-10"/><path d="M43.105 4h.972V.818h1.108V0H42v.818h1.105V4Zm2.775 0h.858V1.453h.053L47.663 4h.555l.871-2.547h.056V4H50V0h-1.108l-.924 2.714h-.05L46.99 0h-1.11v4Z" fill="#D1D5DB" id="object-11"/></svg>