<svg xmlns="http://www.w3.org/2000/svg" xmlns:xlink="http://www.w3.org/1999/xlink"  width="800" height="600">
    <defs>
        <pattern id="pattern" width="1634.68" height="1461.26" patternUnits="userSpaceOnUse" viewBox="0 0 1634.68 1461.26" patternTransform="scale(0.05)">
            <rect width="1634.68" height="1461.26" fill="#FFFFFF"/>
            <path d="M1617.34,1014.13c0,32-25.74,58-57.5,58s-57.5-26-57.5-58" fill="none" stroke="#3AADAA" stroke-linecap="round" stroke-linejoin="round" stroke-width="20"/>
            <path d="M1617.34,170.13c-39.77,0-72-32.46-72-72.5s32.23-72.5,72-72.5" fill="none" stroke="#7C6576" stroke-linecap="round" stroke-linejoin="round" stroke-width="20"/>
            <path d="M579.34,84a60,60,0,1,0,120,0V-44" fill="none" stroke="#3AADAA" stroke-linecap="round" stroke-linejoin="round" stroke-width="20"/>
            <path d="M579.34,1450.22a60,60,0,1,1,120,0v128" fill="none" stroke="#3AADAA" stroke-linecap="round" stroke-linejoin="round" stroke-width="20"/>
            <path d="M154.57,1427.13c-74.68,0-135.23-60.22-135.23-134.5s60.55-134.5,135.23-134.5H278.34" fill="none" stroke="#7C6576" stroke-linecap="round" stroke-linejoin="round" stroke-width="20"/>
            <path d="M146.32,1335.13c-24.84,0-45-19.48-45-43.5s20.14-43.5,45-43.5h48" fill="none" stroke="#3AADAA" stroke-linecap="round" stroke-linejoin="round" stroke-width="20"/>
            <path d="M1617.34,477.13V308.81a60,60,0,0,0-120,0v26.05" fill="none" stroke="#3AADAA" stroke-linecap="round" stroke-linejoin="round" stroke-width="20"/>
            <path d="M585,1143.58H510.9c-45.23,0-81.89-36.47-81.89-81.46s36.66-81.46,81.89-81.46H690.34M585.49,1228.18a84.48,84.48,0,0,1-84.43,84.53H373.48a57.21,57.21,0,0,0,0,114.42h10.7M690.34,894.5a85.26,85.26,0,0,0-85.21-85.31H548.72c-78.22,0-141.62-63.47-141.62-141.78V603.13" fill="none" stroke="#3AADAA" stroke-linecap="round" stroke-linejoin="round" stroke-width="20"/>
            <circle cx="605.34" cy="408.13" r="40" fill="none" stroke="#3AADAA" stroke-linecap="round" stroke-linejoin="round" stroke-width="20"/>
            <ellipse cx="715.34" cy="1210.63" rx="58" ry="57.5" fill="none" stroke="#7C6576" stroke-linecap="round" stroke-linejoin="round" stroke-width="20"/>
            <circle cx="201.34" cy="272.13" r="63" fill="none" stroke="#3AADAA" stroke-linecap="round" stroke-linejoin="round" stroke-width="20"/>
            <path d="M201.84,409.13c77.59,0,140.5-62,140.5-138.5s-62.91-138.5-140.5-138.5-140.5,62-140.5,138.5" fill="none" stroke="#7C6576" stroke-linecap="round" stroke-linejoin="round" stroke-width="20"/>
            <path d="M1328.55,1239.58c-21.35,79.82,24.83,161.56,103.14,182.58s159.09-26.64,180.44-106.46S1587.3,1154.15,1509,1133.13" fill="none" stroke="#3AADAA" stroke-linecap="round" stroke-linejoin="round" stroke-width="20"/>
            <path d="M368,971.5a179.74,179.74,0,0,0-22.7,88.14c0,93,68.87,168.49,153.83,168.49M409.7,921.42C435,901.73,466,890.13,499.54,890.13h104.8" fill="none" stroke="#3AADAA" stroke-linecap="round" stroke-linejoin="round" stroke-width="20"/>
            <path d="M345.84,429.13a57.5,57.5,0,1,0,57.5,57.5v-57.5" fill="none" stroke="#3AADAA" stroke-linecap="round" stroke-linejoin="round" stroke-width="20"/>
            <path d="M88.84,881.71c-36.73,0-66.5-29.46-66.5-65.79s29.77-65.79,66.5-65.79,66.5,29.45,66.5,65.79v201.21" fill="none" stroke="#3AADAA" stroke-linecap="round" stroke-linejoin="round" stroke-width="20"/>
            <path d="M1479.33,885.13c0,33.69,26.87,61,60,61s60-27.31,60-61-26.86-61-60-61h-201" fill="none" stroke="#3AADAA" stroke-linecap="round" stroke-linejoin="round" stroke-width="20"/>
            <path d="M983.34,154.92c-35.35,0-64,28.25-64,63.1s28.65,63.11,64,63.11,64-28.26,64-63.11V15.13" fill="none" stroke="#7C6576" stroke-linecap="round" stroke-linejoin="round" stroke-width="20"/>
            <path d="M932.26,1369.13c0-32,25.76-58,57.54-58s57.54,26,57.54,58-25.76,58-57.54,58H898.34" fill="none" stroke="#3AADAA" stroke-linecap="round" stroke-linejoin="round" stroke-width="20"/>
            <path d="M1106.84,577.7a57.22,57.22,0,1,1-57.5,57.22V421.13" fill="none" stroke="#3AADAA" stroke-linecap="round" stroke-linejoin="round" stroke-width="20"/>
            <path d="M79.84,583.83c-31.76,0-57.5,25.37-57.5,56.65s25.74,56.65,57.5,56.65,57.5-25.36,57.5-56.65V409.13" fill="none" stroke="#3AADAA" stroke-linecap="round" stroke-linejoin="round" stroke-width="20"/>
            <path d="M706,409.13c0-56.89-45.37-103-101.35-103s-101.35,46.11-101.35,103,45.38,103,101.35,103H870.34" fill="none" stroke="#7C6576" stroke-linecap="round" stroke-linejoin="round" stroke-width="20"/>
            <path d="M1516,742.13c56,0,101.36-46.12,101.36-103s-45.37-103-101.36-103H1250.34" fill="none" stroke="#3AADAA" stroke-linecap="round" stroke-linejoin="round" stroke-width="20"/>
            <path d="M1124.34,190.63c0-53.3,42.74-96.5,95.46-96.5h98.08c52.72,0,95.46,43.2,95.46,96.5h0c0,53.29-42.74,96.5-95.46,96.5H1219.8c-52.72,0-95.46-43.21-95.46-96.5Z" fill="none" stroke="#3AADAA" stroke-linecap="round" stroke-linejoin="round" stroke-width="20"/>
            <path d="M283.84,886.13a59.45,59.45,0,0,1-59.5-59.4V657.53a59.45,59.45,0,0,1,59.5-59.4h0a59.45,59.45,0,0,1,59.5,59.4v169.2a59.45,59.45,0,0,1-59.5,59.4Z" fill="none" stroke="#7C6576" stroke-linecap="round" stroke-linejoin="round" stroke-width="20"/>
            <path d="M845.34,810.63V721.29a46.33,46.33,0,0,1,46.5-46.16h0a46.33,46.33,0,0,1,46.5,46.16V900a46.34,46.34,0,0,1-46.5,46.17h0A46.34,46.34,0,0,1,845.34,900V878.38" fill="none" stroke="#7C6576" stroke-linecap="round" stroke-linejoin="round" stroke-width="20"/>
            <path d="M931.34,333.06v7.79a80.39,80.39,0,0,1-80.5,80.28h0a80.39,80.39,0,0,1-80.5-80.28V96.41a80.39,80.39,0,0,1,80.5-80.28h0a80.39,80.39,0,0,1,80.5,80.28V98.8" fill="none" stroke="#7C6576" stroke-linecap="round" stroke-linejoin="round" stroke-width="20"/>
            <path d="M89.09,967.13H84.28a62,62,0,0,0-61.94,62h0a62,62,0,0,0,61.94,62H227.4a62,62,0,0,0,61.94-62h0a62,62,0,0,0-61.94-62h-4.81" fill="none" stroke="#7C6576" stroke-linecap="round" stroke-linejoin="round" stroke-width="20"/>
            <path d="M768.34,675.13V906.76c0,69.24,56.63,125.37,126.5,125.37s126.5-56.13,126.5-125.37V852" fill="none" stroke="#3AADAA" stroke-linecap="round" stroke-linejoin="round" stroke-width="20"/>
            <path d="M514.34,1067.13h207.8c79.09,0,143.2,64.47,143.2,144s-64.11,144-143.2,144H659.63" fill="none" stroke="#3AADAA" stroke-linecap="round" stroke-linejoin="round" stroke-width="20"/>
            <path d="M603.34,716.13H554.15a60,60,0,0,1,0-120h98.38a59.9,59.9,0,0,1,59.81,60v5.33a54.59,54.59,0,0,1-54.5,54.67" fill="none" stroke="#7C6576" stroke-linecap="round" stroke-linejoin="round" stroke-width="20"/>
            <path d="M1106.84,487.13H1163c37.73,0,68.32-28.88,68.32-64.5s-30.59-64.5-68.32-64.5H1050.66c-37.73,0-68.32,28.87-68.32,64.5" fill="none" stroke="#3AADAA" stroke-linecap="round" stroke-linejoin="round" stroke-width="20"/>
            <path d="M692.34,218.13H557.66c-85.23,0-154.32,69.39-154.32,155" fill="none" stroke="#3AADAA" stroke-linecap="round" stroke-linejoin="round" stroke-width="20"/>
            <path d="M1466.84,1222c31.76,0,57.5,25.56,57.5,57.08s-25.74,57.08-57.5,57.08-57.5-25.56-57.5-57.08V907.13" fill="none" stroke="#7C6576" stroke-linecap="round" stroke-linejoin="round" stroke-width="20"/>
            <path d="M1036.34,1259.13c0-58.54,46.85-106,104.63-106h184.37" fill="none" stroke="#3AADAA" stroke-linecap="round" stroke-linejoin="round" stroke-width="20"/>
            <path d="M764.34,596.13h98.37c66.07,0,119.63-53.73,119.63-120" fill="none" stroke="#7C6576" stroke-linecap="round" stroke-linejoin="round" stroke-width="20"/>
            <path d="M1338.34,909.13v53.75a98.27,98.27,0,0,1-98.29,98.25h-76.71" fill="none" stroke="#7C6576" stroke-linecap="round" stroke-linejoin="round" stroke-width="20"/>
            <path d="M1524.34,641.13h-84c-60.75,0-110,49.69-110,111" fill="none" stroke="#3AADAA" stroke-linecap="round" stroke-linejoin="round" stroke-width="20"/>
            <path d="M235.34,1427.13V1336c0-52.46,41-96.41,96-107.88" fill="none" stroke="#3AADAA" stroke-linecap="round" stroke-linejoin="round" stroke-width="20"/>
            <path d="M61.84,341.13v184" fill="none" stroke="#3AADAA" stroke-linecap="round" stroke-linejoin="round" stroke-width="20"/>
            <path d="M1105.84,764.13v152" fill="none" stroke="#3AADAA" stroke-linecap="round" stroke-linejoin="round" stroke-width="20"/>
            <path d="M951.84,1177.13v62" fill="none" stroke="#3AADAA" stroke-linecap="round" stroke-linejoin="round" stroke-width="20"/>
            <path d="M1135.92,974.23h64.17a50.06,50.06,0,0,0,50.25-49.86v-9.31a40.71,40.71,0,0,0-40.87-40.55A40.71,40.71,0,0,1,1168.61,834v-8.41A40.71,40.71,0,0,1,1209.47,785a40.7,40.7,0,0,0,40.87-40.53V602.13m-152,404.93a100.12,100.12,0,0,1-100.19,100.07H971.34" fill="none" stroke="#7C6576" stroke-linecap="round" stroke-linejoin="round" stroke-width="20"/>
            <path d="M1498.34,405.05v20.28a51.87,51.87,0,0,1-51.94,51.8h0a51.88,51.88,0,0,1-52-51.8v-16.8a51.47,51.47,0,0,0-51.54-51.4h0a51.48,51.48,0,0,0-51.56,51.4v20.68" fill="none" stroke="#7C6576" stroke-linecap="round" stroke-linejoin="round" stroke-width="20"/>
            <path d="M1106.34,1301.09a73,73,0,0,1,73-73h0a73,73,0,0,1,73,73v53.07a73,73,0,0,1-73,73h0a73,73,0,0,1-73-73Z" fill="none" stroke="#7C6576" stroke-linecap="round" stroke-linejoin="round" stroke-width="20"/>
            <line x1="1250.34" y1="59.01" x2="1250.34" y2="-43.43" fill="none" stroke="#3AADAA" stroke-linecap="round" stroke-linejoin="round" stroke-width="20"/>
            <line x1="1363.34" y1="25.2" x2="1363.34" y2="-43.43" fill="none" stroke="#3AADAA" stroke-linecap="round" stroke-linejoin="round" stroke-width="20"/>
            <path d="M1250.34,1461.26a56.5,56.5,0,0,1,113,0" fill="none" stroke="#3AADAA" stroke-linejoin="round" stroke-width="20"/>
            <path d="M156.35,1427.13a34.53,34.53,0,0,1,34.54,34.54" fill="none" stroke="#7C6576" stroke-linecap="round" stroke-linejoin="round" stroke-width="20"/>
            <path d="M363.34,92.63c0,42.25,34,76.5,76,76.5s76-34.25,76-76.5-34-76.5-76-76.5h-235a13.4,13.4,0,0,1-13.4-13.4V-91.92" fill="none" stroke="#7C6576" stroke-linecap="round" stroke-linejoin="round" stroke-width="20"/>
        </pattern>
        <clipPath id="clip-path" clipPathUnits="objectBoundingBox">
            <use xlink:href="#filterPath" fill="none"/>
        </clipPath>
        <path id="filterPath" d="M.8.4673c0 .1991-.2988.3327-.4996.3327C.1008.8 0 .6667 0 .4673c0-.2003.1008-.4673.3004-.4673C.5012.0004.8.2674.8.4673z">
            <animate dur="30s" repeatCount="indefinite" attributeName="d" attributeType="XML"
            values="
            M.8.4673c0 .1991-.2988.3327-.4996.3327C.1008.8 0 .6667 0 .4673c0-.2003.1008-.4673.3004-.4673C.5012.0004.8.2674.8.4673z;
            M.9.6592c0 .1749-.1812.3408-.3812.3408C.3188 1 .1.8341.1.6592c0-.1761.2192-.3592.4188-.3592C.7184.3.9.4838.9.6592z;
            M.8.4428c0 .1992-.1678.4572-.3686.4572c-.199 0-.4314-.258-.4314-.4572C.0005.242.2325.1.4314.1C.6326.1.8.242.8.4428z;
            M.8.4673c0 .1991-.2988.3327-.4996.3327C.1008.8 0 .6667 0 .4673c0-.2003.1008-.4673.3004-.4673C.5012.0004.8.2674.8.4673z"
            calcMode="spline"
            keySplines=".56 .37 .43 .58;.56 .37 .43 .58;.56 .37 .43 .58"/>
        </path>
    </defs>
    <svg viewBox="0 0 200 200" preserveAspectRatio="xMaxYMid meet">
        <path id="background" d="M144.2 2.5c8.5 7.8 4.3 35.3 16 54.1C172 75.4 199.4 85.5 200 95.7c.4 10.3-26.5 20.9-48.2 22c-21.7 1.1-38.2-7-47.1-6.6c-8.9.2-10.2 8.9-23.2 29.6C68.5 161.4 44 193.9 25.7 199.3c-18.2 5.1-30-16.9-24.1-38.7c5.7-21.8 29.3-43.5 32.3-63.2c3-19.8-14.7-37.8-11.1-42.9c3.5-5.3 28.2 2.5 43.6-1.5c15.2-3.8 21-19 34.5-32.7C114.4 6.6 135.6-5.3 144.2 2.5z" fill="url(#pattern)">
            <animate dur="15s" repeatCount="indefinite" attributeName="d" attributeType="XML"
            values="
            M144.2 2.5c8.5 7.8 4.3 35.3 16 54.1C172 75.4 199.4 85.5 200 95.7c.4 10.3-26.5 20.9-48.2 22c-21.7 1.1-38.2-7-47.1-6.6c-8.9.2-10.2 8.9-23.2 29.6C68.5 161.4 44 193.9 25.7 199.3c-18.2 5.1-30-16.9-24.1-38.7c5.7-21.8 29.3-43.5 32.3-63.2c3-19.8-14.7-37.8-11.1-42.9c3.5-5.3 28.2 2.5 43.6-1.5c15.2-3.8 21-19 34.5-32.7C114.4 6.6 135.6-5.3 144.2 2.5z;
            M160.8 16.7c21.7 8.5 42.7 19.7 38.7 35.4c-4 15.7-32.9 35.7-38.1 53.4c-5.2 17.7 13.7 33.2 13.8 43.5c.3 10.4-18.2 15.7-34.8 22.8c-16.8 7.1-31.8 15.7-51.4 21.8c-19.4 6.2-43.5 9.9-57.8 1.7c-14.3-8.2-19-28.1-16.3-44.5c2.6-16.6 12.4-29.8 9.2-44.5c-3.4-14.6-20-30.9-23.5-48.5c-3.4-17.7 6.4-36.6 24.1-47c17.7-10.3 43.2-12 67.4-10C116.2 2.7 138.9 8.3 160.8 16.7z;
            M107.4 55.5c7 18.1 11.9 23.4 32.6 29.1c20.7 5.6 57.1 11.5 59.9 18.4c2.6 7-28.2 15.2-39.4 32.5c-11.4 17.3-3.2 44-12.8 56.2c-9.6 12.2-37.3 10.1-57.3.5c-20-9.7-32.2-26.6-46.2-37.1c-13.8-10.4-29.4-14.3-32.7-22c-3.3-7.8 5.6-19.5 3.5-32.1C12.6 88.2-.7 74.6 0 63.6c.9-11 15.6-19.4 31.9-33.6C48 15.6 65.3-4.6 78.5.9C91.8 6.3 100.5 37.2 107.4 55.5z;
            M144.2 2.5c8.5 7.8 4.3 35.3 16 54.1C172 75.4 199.4 85.5 200 95.7c.4 10.3-26.5 20.9-48.2 22c-21.7 1.1-38.2-7-47.1-6.6c-8.9.2-10.2 8.9-23.2 29.6C68.5 161.4 44 193.9 25.7 199.3c-18.2 5.1-30-16.9-24.1-38.7c5.7-21.8 29.3-43.5 32.3-63.2c3-19.8-14.7-37.8-11.1-42.9c3.5-5.3 28.2 2.5 43.6-1.5c15.2-3.8 21-19 34.5-32.7C114.4 6.6 135.6-5.3 144.2 2.5z"
            calcMode="spline"
            keySplines=".56 .37 .43 .58;.56 .37 .43 .58;.56 .37 .43 .58"/>
        </path>
    </svg>
    <svg viewBox="0 0 1 1" id="preview" preserveAspectRatio="none">
        <use xlink:href="#filterPath" fill="darkgrey"/>
    </svg>
    <image xlink:href="" clip-path="url(#clip-path)"/>
</svg>
