<svg xmlns="http://www.w3.org/2000/svg" width="156" height="240" viewBox="0 0 156 240">
   <defs>
      <path fill="#ffffff" stroke="#000000" stroke-width="0.5" id="shirt" d="
            M7 41l-4-2s3-12 6-12h18c3 0 6 12 6 12l-4 2s-1-2-2-8v9H9v-9c-1 6-2 8-2 8zm42-4l-4-2s1-8 4-8h18c3 0 6 10 5 14l-5 1v-9 9H49v-9 4zm38 4l-4-2s3-12 6-12h18c3 0 6 12 6 12l-4 2s-1-2-2-8v9H89v-9c-1 6-2 8-2 8zm60-4l4-2s-1-8-4-8h-18c-3 0-6 10-5 14l5 1v-9 9h18v-9 4z
            M26 102c-4 2-15 2-18 1 1-8 3-13 6-16 2-1 5-1 6 0 2 1 6 10 6 15zm40 2c-4 2-15 2-18 1 1-8 3-13 6-16 2-1 5-1 6 0 2 1 6 10 6 15zm40-2c-4 2-15 2-18 1 1-8 3-13 6-16 2-1 5-1 6 0 2 1 6 10 6 15zm40 2c-4 2-15 2-18 1 1-8 3-13 6-16 2-1 5-1 6 0 2 1 6 10 6 15z
            M10 164c4 2 15 2 18 1-1-8-3-13-6-16-2-1-5-1-6 0-2 1-6 10-6 15zm40-2c4 2 15 2 18 1-1-8-3-13-6-16-2-1-5-1-6 0-2 1-6 10-6 15zm40 2c4 2 15 2 18 1-1-8-3-13-6-16-2-1-5-1-6 0-2 1-6 10-6 15zm40-2c4 2 15 2 18 1-1-8-3-13-6-16-2-1-5-1-6 0-2 1-6 10-6 15z
            M7 221l-4-2s3-12 6-12h18c3 0 6 12 6 12l-4 2s-1-2-2-8v9H9v-9c-1 6-2 8-2 8zm41.5-3l-3.75-2s1-8 4-8h18c3 0 6 10 5 14l-4.3 1-.452-9v9.02H49v-9h0zm38.5 3l-4-2s3-12 6-12h18c3 0 6 12 6 12l-4 2s-1-2-2-8v9H89v-9c-1 6-2 8-2 8zm60.5-3l3.75-2s-1-8-4-8h-18c-3 0-6 10-5 14l4.3 1 .452-9v9.02H147v-9h0z
            "/>
      <clipPath id="shirt_clip"><use href="#shirt"/></clipPath>

      <path fill="#333333" stroke="#000000" stroke-width="0.5" id="pants" d="
            M9 41h18v11h-7s0-5-2-6c-2 1-2 6-2 6H9V43z
            M49 41h18v8h-7s0-2-2-3c-2 1-2 6-2 6H49V41z
            M89 41h18v11h-7s0-5-2-6c-2 1-2 6-2 6H89V43z
            M147 41h-18v8h7s0-2 2-3c2 1 2 6 2 6H147V41z

            M14 114c-2-2-4-10-6-12 5 0 12 1 16 0 0 5-2 10-3 12z
            M53 116l-5-6c1-2 1-3 2-4 0 0-1 0-2-2 6 0 12 7 16 0l3 3s-3 4-4 6c-1 0-4 0-5-5 0 1 1 3 1 3-1 1-3 3-6 5z
            M94 114c-2-2-4-10-6-12 5 0 12 1 16 0 0 5-2 10-3 12z
            M133 116l-5-6c1-2 1-3 2-4 0 0-1 0-2-2 5 0 12 7 16 0l3 3s-3 4-4 6c-1 0-4 0-5-5 0 1 1 3 1 3-1 1-3 3-6 5z

            M23 176l5-6c-1-2-1-3-2-4 0 0 1 0 2-2-5 0-12 7-16 0l-3 3s3 4 4 6c1 0 4 0 5-5 0 1-1 3-1 3 1 1 3 3 6 5z
            M62 174c2-2 4-10 6-12-5 0-12 1-16 0 0 5 2 10 3 12z
            M103 176l5-6c-1-2-1-3-2-4 0 0 1 0 2-2-6 0-12 7-16 0l-3 3s3 4 4 6c1 0 4 0 5-5 0 1-1 3-1 3 1 1 3 3 6 5z
            M142 174c2-2 4-10 6-12-5 0-12 1-16 0 0 5 2 10 3 12z

            M9 220h18v11h-7s0-5-2-6c-2 1-2 6-2 6H9V220z
            M49 220h18v8h-7s0-2-2-3c-2 1-2 7-2 7H49V220z
            M89 220h18v11h-7s0-5-2-6c-2 1-2 6-2 6H89V220z
            M147 220h-18v8h7s0-2 2-3c2 1 2 7 2 7H147V220z
            "/>
      <clipPath id="pants_clip"><use href="#pants"/></clipPath>

      <path fill="#97694c" stroke="#000000" stroke-width="0.5" id="shoes" d="
            M9 51h7c0 8-7 8-7 0zm18 0h-7c0 8 7 8 7 0z
            M49 52h7c0 8-7 8-7 0zm18-4h-7c0 8 7 8 7 0z
            M89 51h7c0 8-7 8-7 0zm18 0h-7c0 8 7 8 7 0z
            M147 52h-7c0 8 7 8 7 0zm-18-4h7c0 8-7 8-7 0z

            M11 118zc-1-3 4-3 4-4h6c1 3 0 4 0 4z
            M50 118zc0 0-7-6-7-6 2-2 4 0 6-1 1 0 5 4 4 5zm17-11c3 2 3 3 3 3l-5 7c-3-2 0-5-1-6z
            M91 118zc-1-3 4-3 4-4h6c1 3 0 4 0 4z
            M130 118zc0 0-7-6-7-6 2-2 4 0 6-1 1 0 5 4 4 5zm17-11c3 2 3 3 3 3l-5 7c-3-2 0-5-1-6z

            M26 178zc0 0 7-6 7-6-2-2-4 0-6-1-1 0-5 4-4 5zm-17-11c-3 2-3 3-3 3l5 7c3-2 0-5 1-6z
            M65 178zc1-3-4-3-4-4h-6c-1 3 0 4 0 4z
            M106 178zc0 0 7-6 7-6-2-2-4 0-6-1-1 0-5 4-4 5zm-17-11c-3 2-3 3-3 3l5 7c3-2 0-5 1-6z
            M145 178zc1-3-4-3-4-4h-6c-1 3 0 4 0 4z

            M9 229zh7v5c0 2-7 2-7 0zM20 229zh7v5c0 2-7 2-7 0z
            M49 230zh7v5c0 2-7 2-7 0zM60 226zh7v4c0 2-7 2-7 0z
            M89 229zh7v5c0 2-7 2-7 0zM100 229zh7v5c0 2-7 2-7 0z
            M147 230zh-7v5c0 2 7 2 7 0zM136 226zh-7v4c0 2 7 2 7 0z
            "/>
      <clipPath id="shoes_clip"><use href="#shoes"/></clipPath>

      <path fill="#6e7077" stroke="#000000" stroke-width="0.5" id="jacket" d="
            M17 43c-5 0-8 0-8-2V28c7 4 8 9 8 9v6zm2 0c5 0 8 0 8-2V28c-7 4-8 9-8 9v6z
            M57 43c-5 0-8 0-8-2V28c7 4 8 9 8 9v6zm2 0c5 0 8 0 8-2V28c-7 4-8 9-8 9v6z
            M97 43c-5 0-8 0-8-2V28c7 4 8 9 8 9v6zm2 0c5 0 8 0 8-2V28c-7 4-8 9-8 9v6z
            M137 43c-5 0-8 0-8-2V28c7 4 8 9 8 9v6zm2 0c5 0 8 0 8-2V28c-7 4-8 9-8 9v6z

            M16 88c-4 2-6 15-6 18 2 0 13 0 17-2 0-5-4-16-5-17-3 0-4 0-6 1zM16 96C16 92 18 91 20 92 22 93 22 101 21 104 19 103 16 104 16 104Z
            M57 98c-1-3 2-5 4-4s5 9 5 11c-2-1-5 0-5 0zM56 90c-4 2-6 15-6 18 2 0 13 0 17-2 0-5-4-16-5-17-3 0-4 0-6 1z
            M96 88c-4 2-6 15-6 18 2 0 13 0 17-2 0-5-4-16-5-17-3 0-4 0-6 1zM96 96C96 92 98 91 100 92 102 93 102 101 101 104 99 103 96 104 96 104Z
            M136 90c-4 2-6 15-6 18 2 0 13 0 17-2 0-5-4-16-5-17-3 0-4 0-6 1zM137 95c2-2 5 0 5 2s-5 9-7 9.83C135 105 132 103 132 103z

            M140 148c4 2 6 15 6 18-2 0-13 0-17-2 0-5 4-16 5-17 3 0 4 0 6 1zM140 156C140 152 138 151 136 152 134 153 134 161 135 164 137 163 140 164 140 164Z
            M99 158c1-3-2-5-4-4s-5 9-5 11c2-1 5 0 5 0zM100 150c4 2 6 15 6 18-2 0-13 0-17-2 0-5 4-16 5-17 3 0 4 0 6 1z
            M60 148c4 2 6 15 6 18-2 0-13 0-17-2 0-5 4-16 5-17 3 0 4 0 6 1zM60 156C60 152 58 151 56 152 54 153 54 161 55 164 57 163 60 164 60 164Z
            M20 150c4 2 6 15 6 18-2 0-13 0-17-2 0-5 4-16 5-17 3 0 4 0 6 1zM19 155c-2-2-5 0-5 2s5 9 7 9.83C21 165 24 163 24 163z

            M18 223c-6 0-9 0-9-2L9 207l18 0v14c0 2-3 2-9 2z
            M58 223.75c-6 0-9 0-9-2L49 207.75l18 0v14c0 2-3 2-9 2z
            M98 223c-6 0-9 0-9-2L89 207l18 0v14c0 2-3 2-9 2z
            M138 223.75c-6 0-9 0-9-2L129 207.75l18 0v14c0 2-3 2-9 2z
            "/>
      <clipPath id="jacket_clip"><use href="#jacket"/></clipPath>

      <path fill="#e9c1ad" stroke="#000000" stroke-width="0.5" id="skin" d="
            M18 32c-8 0-13-9-12-10-3 6-3-12-1-5-1-5 6-11 13-11s14 6 13 11c2-7 2 11-1 5 1 1-4 10-12 10z
            M58 32c-8 0-13-9-12-10-3 6-3-12-1-5-1-5 6-11 13-11s14 6 13 11c2-7 2 11-1 5 1 1-4 10-12 10z
            M98 32c-8 0-13-9-12-10-3 6-3-12-1-5-1-5 6-11 13-11s14 6 13 11c2-7 2 11-1 5 1 1-4 10-12 10z
            M138 32c-8 0-13-9-12-10-3 6-3-12-1-5-1-5 6-11 13-11s14 6 13 11c2-7 2 11-1 5 1 1-4 10-12 10z
            M1.9 41.5a2.6 2.6 0 105.2 0 2.6 2.6 0 10-5.2 0
            M28.9 41.5a2.6 2.6 0 105.2 0 2.6 2.6 0 10-5.2 0
            M44.5 37a2.5 2.5 0 105 0 2.5 2.5 0 10-5 0
            M66.5 42a3 3 0 106 0 3 3 0 10-6 0
            M81.9 41.5a2.6 2.6 0 105.2 0 2.6 2.6 0 10-5.2 0
            M108.9 41.5a2.6 2.6 0 105.2 0 2.6 2.6 0 10-5.2 0
            M124 42a3 3 0 106 0 3 3 0 10-6 0
            M147 37a2.5 2.5 0 105 0 2.5 2.5 0 10-5 0

            M24 85c-2 4-12 6-17 1-1-1 0-1-1-2H3c0-2 1-2 1-4 1-4-2-11 9-13 5-1 18 4 11 18z
            M64 87c-2 4-12 6-17 1-1-1 0-1-1-2H43c0-2 1-2 1-4 1-4-2-11 9-13 5-1 18 4 11 18z
            M104 85c-2 4-12 6-17 1-1-1 0-1-1-2H83c0-2 1-2 1-4 1-4-2-11 9-13 5-1 18 4 11 18z
            M144 87c-2 4-12 6-17 1-1-1 0-1-1-2H123c0-2 1-2 1-4 1-4-2-11 9-13 5-1 18 4 11 18z
            M15.5 103.5a3 3 0 106 0 3 3 0 10-6 0
            M60 104a3 3 0 106 0 3 3 0 10-6 0
            M95.5 103.5a3 3 0 106 0 3 3 0 10-6 0
            M130 105.5a3 3 0 106 0 3 3 0 10-6 0

            M12 149c2 4 12 6 17 1 1-1 0-1 1-2H33c0-2-1-2-1-4-1-4 2-11-9-13-5-1-18 4-11 18z
            M52 147c2 4 12 6 17 1 1-1 0-1 1-2H73c0-2-1-2-1-4-1-4 2-11-9-13-5-1-18 4-11 18z
            M92 149c2 4 12 6 17 1 1-1 0-1 1-2H113c0-2-1-2-1-4-1-4 2-11-9-13-5-1-18 4-11 18z
            M132 147c2 4 12 6 17 1 1-1 0-1 1-2H153c0-2-1-2-1-4-1-4 2-11-9-13-5-1-18 4-11 18z

            M26 165.5a3 3 90 11-6 0 3 3 90 116 0
            M60.5 163.5a3 3 90 11-6 0 3 3 90 116 0
            M96 164a3 3 90 11-6 0 3 3 90 116 0
            M140.5 163.5a3 3 90 11-6 0 3 3 90 116 0

            M30.5 197C33.5 189 33.5 207 30.5 201zM6 201c-3 6-3-12 0-4z
            M70.5 197C73.5 189 73.5 207 70.5 201zM46 201c-3 6-3-12 0-4z
            M110.5 197C113.5 189 113.5 207 110.5 201zM86 201c-3 6-3-12 0-4z
            M150.5 197C153.5 189 153.5 207 150.5 201zM126 201c-3 6-3-12 0-4z

            M1.9 221.5a2.6 2.6 0 105.2 0 2.6 2.6 0 10-5.2 0
            M28.9 221.5a2.6 2.6 0 105.2 0 2.6 2.6 0 10-5.2 0
            M44.5 217a2.5 2.5 0 105 0 2.5 2.5 0 10-5 0
            M66.5 222a3 3 0 106 0 3 3 0 10-6 0
            M81.9 221.5a2.6 2.6 0 105.2 0 2.6 2.6 0 10-5.2 0
            M108.9 221.5a2.6 2.6 0 105.2 0 2.6 2.6 0 10-5.2 0
            M124 222a3 3 0 106 0 3 3 0 10-6 0
            M147 217a2.5 2.5 0 105 0 2.5 2.5 0 10-5 0
            "/>
      <clipPath id="skin_clip"><use href="#skin"/></clipPath>

      <path fill="#000000" stroke="#000000" stroke-width="0.5" id="hair" d="
            M3 21c-1 0-2-3-1-8C5 4 11 1 18 1s14 3 16 12c1 5 0 8-1 8-2 0 0-4-2-4s0 4-2 4 0-6-3-6-2 2-8 2-5-2-8-2-1 6-3 6 0-4-2-4 0 4-2 4z
            M43 21c-1 0-2-3-1-8C45 4 51 1 58 1s14 3 16 12c1 5 0 8-1 8-2 0 0-4-2-4s0 4-2 4 0-6-3-6-2 2-8 2-5-2-8-2-1 6-3 6 0-4-2-4 0 4-2 4z
            M83 21c-1 0-2-3-1-8C85 4 91 1 98 1s14 3 16 12c1 5 0 8-1 8-2 0 0-4-2-4s0 4-2 4 0-6-3-6-2 2-8 2-5-2-8-2-1 6-3 6 0-4-2-4 0 4-2 4z
            M123 21c-1 0-2-3-1-8C125 4 131 1 138 1s14 3 16 12c1 5 0 8-1 8-2 0 0-4-2-4s0 4-2 4 0-6-3-6-2 2-8 2-5-2-8-2-1 6-3 6 0-4-2-4 0 4-2 4z

            M4 72C9 55 26 58 31 67c4 8-2 18-7 19 0 0-4 1-5-4 0 0 4 1 4-3 0-3-4-4-6-1 0 0-4-2-4-9-6 0-6 3-9 3z
            M44 74C49 57 66 60 71 69c4 8-2 18-7 19 0 0-4 1-5-4 0 0 4 1 4-3 0-3-4-4-6-1 0 0-4-2-4-9-6 0-6 3-9 3z
            M84 72C89 55 106 58 111 67c4 8-2 18-7 19 0 0-4 1-5-4 0 0 4 1 4-3 0-3-4-4-6-1 0 0-4-2-4-9-6 0-6 3-9 3z
            M124 74C129 57 146 60 151 69c4 8-2 18-7 19 0 0-4 1-5-4 0 0 4 1 4-3 0-3-4-4-6-1 0 0-4-2-4-9-6 0-6 3-9 3z

            M152 134C147 117 130 120 125 129c-4 8 2 18 7 19 0 0 4 1 5-4 0 0-4 1-4-3 0-3 4-4 6-1 0 0 4-2 4-9 6 0 6 3 9 3z
            M112 136C107 119 90 122 85 131c-4 8 2 18 7 19 0 0 4 1 5-4 0 0-4 1-4-3 0-3 4-4 6-1 0 0 4-2 4-9 6 0 6 3 9 3z
            M72 134C67 117 50 120 45 129c-4 8 2 18 7 19 0 0 4 1 5-4 0 0-4 1-4-3 0-3 4-4 6-1 0 0 4-2 4-9 6 0 6 3 9 3z
            M32 136C27 119 10 122 5 131c-4 8 2 18 7 19 0 0 4 1 5-4 0 0-4 1-4-3 0-3 4-4 6-1 0 0 4-2 4-9 6 0 6 3 9 3z

            M15 210C0 202 0 183 18 182c19 1 19 20 3 28z
            M55 210C40 202 40 183 58 182c19 1 19 20 3 28z
            M95 210C80 202 80 183 98 182c19 1 19 20 3 28z
            M135 210C120 202 120 183 138 182c19 1 19 20 3 28z
            "/>
      <clipPath id="hair_clip"><use href="#hair"/></clipPath>

      <symbol id="head" width="156" height="240">
         <symbol id="_eye_1" width="30" height="25">
            <path fill="#ffffff" stroke="none" d="M14 23c-1 0-4 1-4-2 1-1 3-1 4 0s1 2 0 2z"/>
            <path fill="#000000" stroke="none" d="M15 21a1 1 0 01-3 2 1 1 0 012-2c-1-1-3-1-4 0 1-2 4.5-1 5 0z"/>
         </symbol>
         <symbol id="_eye_2" width="30" height="25">
            <path fill="#ffffff" stroke="none" d="M22 23c1 0 4 1 4-2-1-1-3-1-4 0s-1 2 0 2z"/>
            <path fill="#000000" stroke="none" d="M21 21a1 1 90 003 2 1 1 90 00-2-2c1-1 3-1 4 0-1-2-4.5-1-5 0z"/>
         </symbol>

         <use href="#_eye_1"/>
         <use href="#_eye_2"/>
         <use href="#_eye_1" x="40"/>
         <use href="#_eye_2" x="40"/>
         <use href="#_eye_1" x="80"/>
         <use href="#_eye_2" x="80"/>
         <use href="#_eye_1" x="120"/>
         <use href="#_eye_2" x="120"/>
         <path id="_mouth_1" fill="#bf775e" stroke="#b05555" stroke-width="0.5" d="M17.5 29c-1 0-2-1-2-2s5-1 5 0-1 2-2 2z"/>
         <use href="#_mouth_1" x="40"/>
         <use href="#_mouth_1" x="80"/>
         <use href="#_mouth_1" x="120"/>

         <use href="#_eye_2" x="-15" y="56"/>
         <use href="#_eye_2" x="25" y="58"/>
         <use href="#_eye_2" x="65" y="56"/>
         <use href="#_eye_2" x="105" y="58"/>
         <path id="_mouth_2" fill="#bf775e" stroke="#b05555" stroke-width="0.5" d="M7 86c2-1 3-1 3-1 1 0 0 1-.74 2.82z"/>
         <use href="#_mouth_2" x="40" y="2"/>
         <use href="#_mouth_2" x="80"/>
         <use href="#_mouth_2" x="120" y="2"/>

         <use href="#_eye_1" x="15" y="119"/>
         <use href="#_eye_1" x="55" y="117"/>
         <use href="#_eye_1" x="95" y="119"/>
         <use href="#_eye_1" x="135" y="117"/>
         <path id="_mouth_3" fill="#bf775e" stroke="#b05555" stroke-width="0.5" d="M29.5 149.5c-2-1-3-1-3-1-1 0 0 1 .74 2.82z"/>
         <use href="#_mouth_3" x="39" y="-1"/>
         <use href="#_mouth_3" x="80"/>
         <use href="#_mouth_3" x="119" y="-1"/>
      </symbol>

      <symbol id="light" width="156" height="240">
         <filter id="hair_light_" filterUnits="objectBoundingBox">
            <feGaussianBlur stdDeviation="4"></feGaussianBlur>
         </filter>
         <path opacity="0.4" fill="#ffffff" filter="url(#hair_light_)" d="
            M5 1a8 8 0 1020 0 8 8 0 10-20 0
            M45 1a8 8 0 1020 0 8 8 0 10-20 0
            M85 1a8 8 0 1020 0 8 8 0 10-20 0
            M125 1a8 8 0 1020 0 8 8 0 10-20 0

            M5 59a8 8 0 1020 0 8 8 0 10-20 0
            M45 61a8 8 0 1020 0 8 8 0 10-20 0
            M85 59a8 8 0 1020 0 8 8 0 10-20 0
            M125 61a8 8 0 1020 0 8 8 0 10-20 0

            M142 121a8 8 90 11-20 0 8 8 90 1120 0
            M102 123a8 8 90 11-20 0 8 8 90 1120 0
            M62 121a8 8 90 11-20 0 8 8 90 1120 0
            M22 123a8 8 90 11-20 0 8 8 90 1120 0

            M5 181a8 8 0 1020 0 8 8 0 10-20 0
            M45 181a8 8 0 1020 0 8 8 0 10-20 0
            M85 181a8 8 0 1020 0 8 8 0 10-20 0
            M125 181a8 8 0 1020 0 8 8 0 10-20 0
            "/>
      </symbol>
   </defs>

   <use href="#shirt"/>
   <rect width="156" height="240" fill="#ffffff" clip-path="url(#shirt_clip)"/>
   <use href="#shoes"/>
   <rect width="156" height="240" fill="#97694c" clip-path="url(#shoes_clip)"/>
   <use href="#pants"/>
   <rect width="156" height="240" fill="#000000" clip-path="url(#pants_clip)"/>
   <use href="#jacket"/>
   <rect width="156" height="240" fill="#6e7077" clip-path="url(#jacket_clip)"/>
   <use href="#skin"/>
   <rect width="156" height="240" fill="#e9c1ad" clip-path="url(#skin_clip)"/>
   <use href="#hair"/>
   <rect width="156" height="240" fill="#000000" clip-path="url(#hair_clip)"/>
   <use href="#light" clip-path="url(#hair_clip)"/>

   <use href="#head"/>
</svg>
