<svg xmlns="http://www.w3.org/2000/svg" xmlns:xlink="http://www.w3.org/1999/xlink" width="1280" height="515"><defs><path id="a" d="M0 0L1280 0 1280 515 0 515z"/></defs><g fill="none" fill-rule="evenodd"><mask id="b" fill="#fff"><use xlink:href="#a"/></mask><use fill="#845978" xlink:href="#a"/><g mask="url(#b)"><g transform="translate(-238 -978)"><path fill="#FFF" opacity=".101" d="M2560 1257.215L1494.187 1286.119 2545.323 1103.766 2526.265 1005.092 1481.549 1245.226 2481.399 853.6 2443.725 760.682 1469.888 1204.02 2372.678 624.649 2318.107 540.942 1442.872 1171.185 2219.915 418.519 2150.277 347.403 1416.649 1137.689 2033.686 249.494 1951.901 193.491 1379.408 1117.883 1815.318 118.773 1724.348 80.284 1342.631 1097.186 1579.95 35.41 1483.409 15.639 1300.81 1093.465 1329.232 0 1230.768 0 1259.073 1088.687 1080.55 14.989 983.951 34.456 1219.029 1101.615 835.652 80.284 744.685 118.773 1178.704 1113.549 611.515 191.345 529.566 247.096 1146.553 1141.127 409.713 347.396 340.088 418.516 1113.739 1167.899 244.251 537.623 189.416 621.159 1094.35 1205.947 116.272 760.679 78.594 853.6 1074.111 1243.515 34.664 1001.099 15.304 1099.718 1070.511 1286.254 0 1257.215 0 1357.78 1065.826 1328.876 14.672 1511.237 33.732 1609.9 1078.463 1369.772 78.594 1761.395 116.272 1854.316 1090.122 1410.977 187.322 1990.346 241.893 2074.063 1117.133 1443.818 340.088 2196.479 409.708 2267.597 1143.349 1477.318 526.309 2365.501 608.092 2421.514 1180.607 1497.092 744.675 2496.227 835.644 2534.721 1217.369 1517.806 980.047 2579.588 1076.586 2599.359 1259.195 1521.54 1230.768 2615 1329.232 2615 1300.932 1526.29 1479.453 2600.009 1576.049 2580.541 1340.973 1513.385 1724.348 2534.721 1815.318 2496.227 1381.305 1501.468 1948.487 2423.652 2030.447 2367.904 1413.474 1473.89 2150.284 2267.597 2219.915 2196.479 1446.256 1447.099 2315.757 2077.374 2370.584 1993.836 1465.623 1409.033 2443.733 1854.316 2481.399 1761.395 1485.901 1371.472 2525.339 1613.896 2544.686 1515.272 1489.581 1328.754 2560 1357.78 2560 1257.215"/><path fill="#845978" d="M238 1530L1649 1530 1649 1288 238 1288z"/><path fill="#62495B" d="M1184.337 1239.582c.847 2.898-.292 11.332-2.838 16.44-2.61 5.243-3.973 11.4-3.87 16.3.104 4.9.696 9.381 1.768 13.249.61 2.202 1.424 4.075 1.53 5.704.116 1.291-.188 2.43-1.356 3.457-2.603 2.295-3.393.38-6.824.172-3.432-.206-3.377.77-5.994 2.872-2.615 2.1-7.481 1.773-10.954.786-1.726-.491-2.233-1.085-2.187-1.666-.052-.639.623-1.273 1.146-1.75 1.139-1.047 7.964-5.337 9.272-6.39 1.31-1.052 2.808-1.722 4.869-4.58 1.502-2.083 1.38-8.905 1.677-9.706.296-.8.117-25.32.223-26.503.103-1.182.032-11.58-.154-14.905-.187-3.326-1.853-20.897-1.838-23.644.015-2.42-.22-10.46-.078-12.351.41-5.36 1.482-11.253 1.951-13.672-4.047-5.29-17.535-20.276-17.058-27.208-.057-.897.08-1.685.456-2.335 1.178-2.043 4.149-6.69 10.967-14.3 1.108-1.237 5.609-8.446 6.549-9.792 2.508-3.59 4.842-6.03 7.015-7.427-.027.117-.055.234-.085.351.4-.253.795-.47 1.184-.652.237-.186.453-.34.638-.455.473-.493 1.117-.989 1.75-1.443.481-1.24 1.321-2.015 2.509-2.517-3.11-1.568-6.466-5.624-7.866-11.291-.793-3.207-1.213-6.385-1.116-9.238a36.606 36.606 0 0 1-.004-1.584c.05-2.044-.037 2.043 0 0 .03-1.213.25-3.094.303-4.57a7.24 7.24 0 0 1-.374-.35 4.327 4.327 0 0 1-1.252-2.69c-.086-1.057.41-1.68-.018-2.645-.936-2.078-.973-2.206.426-4.024 3.676-4.777 11.967-6.44 17.705-5.739 7.173.876 14.116 3.421 20.537 6.594 3.653 1.805 7.251 3.718 10.968 5.39 3.375 1.521 6.992 3.053 10.734 3.371 4.154.355 8.352-.273 12.49.385 1.772.281 4.26.434 5.608 1.746.248.241 2.206 3.148 1.81 3.342.095-.226-.966-1.376-1.136-1.566-.788-.882-1.703-1.326-2.893-1.368-2.524-.101-5.084.242-7.542.785.274.095 5.011 2 4.888 2.282-.025-.343-4.147-.683-4.444-.707a27.4 27.4 0 0 0-7.93.534c2.858.064 5.61.666 8.367 1.327-1.572.141-3.148.277-4.711.525-2.476.384-4.768 1.278-7.145 2.015 1.693.203 3.296-.053 4.942-.39 2.869-.573 5.825-.874 8.754-.652 2.58.202 5.574.812 7.277 2.893.675.826 1.216 1.822 1.359 2.883.022.163-.131.914-.333 1.544 4.53-.863 9.602-.703 13.088 2.02 1.676 1.31 2.9 3.46 3.444 5.487.458 1.708.577 3.55.225 5.286-.36 1.774-1.093 2.183-.192 3.927 1.311 2.557 3.37 4.884 5.808 6.424 1.445.911 3.14 1.577 4.877 1.47.442-.026 4.739-1.7 4.322-2.072.184.126-2.103 2.09-2.29 2.202-1.71 1.025-3.767 1.167-5.687.749-3.085-.667-6.333-2.054-9.115-3.504 1.537 2.123 2.864 4.395 4.24 6.623-1.362-1.229-2.709-2.476-4.09-3.683-1.857-1.615-3.806-3.24-6.152-4.093-2.191.973-4.198 2.336-6.114 3.76 3.956-.25 8.58.182 11.377 3.33 1.338 1.483 2.231 3.402 2.041 5.427-.035.392-1.534 4.865-1.974 4.541 1.149.416.78-5.87.497-6.42-1.249-2.423-3.903-3.582-6.528-3.677-4.764-.174-9.383 1.896-13.727 3.607-6.39 2.517-12.823 3.525-18.704 1.79 2.999 6.302 5.64 12.88 11.16 17.713 8.531 7.055 19.945 9.093 30.411 10.297 13.644 1.476 26.787 2.094 37.221 10.814 7.107 5.805 18.999 8.258 28.462 7.75-12.617.678-17.857 12.01-26.522 18.664-8.667 6.653-20.557 4.2-30.995 3.437-13.168-1.06-15.554 12.77-20.491 21.434-4.558 7.316-14.275 11.375-22.461 10.491-7.107-.997-15.08-7.592-22.722-9.996.467 2.288.937 4.31 1.045 4.606.212.6 3.277 6.553 5.59 12.14 1.463 3.533 2.892 9.43 1.173 17.681-1.72 8.25-3.245 11.791-2.26 21.321.641 6.24 3.83 8.669 1.184 14.64-.103.294-.219.596-.349.907-1.936 4.633-2.625 6.691-4.74 6.816-.578.031-1.172-.081-1.816-.352-2.175-.91-3.326-5.513-3.108-9.464.019-1.23.178-2.415.49-3.412.688-2.203 1.28-3.8 1.771-5.177.302-.93.556-1.757.77-2.639.54-2.223-2.647-21.654-3.117-23.984-.05-.245-.1-.596-.154-1.034-.475-3.534-1.13-13.188-2.435-16.05-1.452-3.185-2.71-2.913-6.159-12.517-.37-1.031-.726-2.042-1.071-3.033-5.187 1.108-9.326 2.34-12.572 3.377-.905.288-2.457.932-4.1 1.502.263 1.753.538 3.221.777 4.037zm-11.709-65.5c1.087-5.093 2.296-10.76 2.52-12.129.378-2.328 1.356-4.99.86-8.373-.388-2.641-.758-4.978-1.322-7.285-.747.847-1.202 1.338-1.202 1.338s-9.15 7.925-10.484 10.847c.444 1.05 2.883 5.021 5.29 8.849 1.714 2.697 3.396 5.3 4.338 6.753zm61.355-68.14c.228.352.467.7.718 1.041 3.884 5.285 10.252 2.212 15.227.516 1.19-.406 2.49-.765 3.843-1.034.062-.433.087-.88.074-.937-.198-.864-.796-1.621-1.454-2.205-1.619-1.431-3.95-1.446-6.002-1.208-3.992.463-7.307 2.44-11.08 3.506-.437.124-.88.23-1.326.32z"/><path fill="#62495B" d="M1331.97 1238.626l.367-.223.221.408c.275.51.574.931.84 1.303.216.303.42.59.583.883l.064.114c4.362 7.816 5.312 15.846 5.339 21.21.039 7.821-2.491 17.906-4.167 24.58l-.242.962c.212 1.792.492 4.332.815 8.157.27 3.188.858 5.808 1.379 8.121 1.164 5.17 2.085 9.252-1.103 16.058-3.496 7.467-5.598 10.801-8.8 10.801h-.002c-.797 0-1.66-.2-2.712-.635-4.58-1.881-6.41-13.277-4.25-19.88 1.368-4.174 2.033-6.992 2.62-9.475.303-1.28.59-2.487.94-3.746.417-1.5.013-5.424-1.203-11.658-2.256-7.179-4.35-18.57-5.474-24.693-.154-.832-.289-1.57-.406-2.188-.387-2.067-.62-4.118-.848-6.1-.298-2.614-.581-5.083-1.173-7.008l-.327-1.061.544.309a8.815 8.815 0 0 0-.566-1.255c-1.825-3.28-2.65-1.935-4.132-7.236-1.126-4.03-2.505-7.587-5.064-12.134-.473 1.561-1.02 3.08-1.54 4.657-1.003 3.032-1.03 5.612.02 8.575.39 1.104.693 2.256.921 3.436l.417-.178.096.547c.7 3.956.67 8.541-.086 13.632-1.32 8.76-5.312 16.59-9.638 24.507-.478.873-1.003 1.739-1.557 2.657-2.172 3.594-4.418 7.31-3.705 11.336.252 1.42.697 2.841 1.172 4.348.744 2.373 1.515 4.829 1.452 7.264-.071 2.677-2.49 5.787-5.507 5.787-.307 0-.615-.032-.918-.098a34.52 34.52 0 0 1-2.077-.564c-1.4-.41-2.846-.837-4.24-.837-.855 0-1.618.157-2.331.483-.81.365-1.509 1.016-2.185 1.646-.21.2-.42.394-.636.582-1.716 1.51-3.194 2.332-4.942 2.743a16.802 16.802 0 0 1-3.87.429c-2.328 0-4.836-.409-7.456-1.216-1.04-.323-3.206-.989-3.178-2.633.018-1.058.919-1.86 1.576-2.447l.345-.306c1.544-1.341 3.353-2.45 5.107-3.526.66-.407 1.35-.829 1.996-1.248 2.074-1.342 4.258-2.833 6.874-4.683 2.628-1.862 4.36-3.785 5.296-5.883.38-.85.81-1.695 1.225-2.51.812-1.6 1.654-3.254 2.13-4.984 1.076-3.925 1.9-16.317 1.908-16.43.205-5.779.481-11.955 1.098-17.95l.02-.194.158-.115c.106-.078.212-.156.32-.233.162-1.516.347-3.027.56-4.53.592-4.18 1.876-8.963-.08-12.97-1.553-3.182-1.278-6.316-1.553-9.79-.595-7.467-3.566-14.373-4.586-21.76a134.789 134.789 0 0 1-1.17-22.97c.096-2.784.253-5.595.683-8.337-.568-.9-1.161-1.672-1.78-2.214-2.905-2.543-17.648-11.6-20.243-16.44-2.6-4.838-.735-14.198.534-19.22 1.237-4.89 3.433-4.748 3.988-10.246.554-5.498 7.1-15.47 7.1-15.47s3.67-10.345 10.06-13.431c2.578-2.049 5.136-2.368 7.123-2.245.422-.104 4.63-1.145 9.092-2.29l-.047-.343c-2.981-.45-2.067-1.528-2.067-1.528s-.803.548-1.445.326c-1.642-.568-2.723-1.923-3.084-3.084-.362-1.16-.341-9.855-.934-11.167-.593-1.311-2.168-3.855-1.793-4.93.378-1.074 1.331-2.826 1.128-3.224-.203-.397-1.608-3.293-1.04-4.966.206-.605.958-1.9 1.858-3.332-.183.196-.289.314-.289.314s.023-2.072 1.68-5.607c1.66-3.534 5.244-6.47 5.244-6.47l-.234 3.078s.56-2.669 4.162-3.616c3.6-.947 6.081.213 6.081.213l-2.045 1.5s3.3-1.604 6.868-1.187c3.568.414 6.966 3.295 6.966 3.295l-1.901.277s1.904 1.836 4.233 3.226c2.33 1.388 2.706 2.427 2.706 2.427s-1.916.397-2.174 2.605c-.26 2.207-.802 8.977-1.719 11.48-.695 1.896-1.884 3.735-2.418 4.514l.3.797c-1.185 2.732.29 4.964-.128 7.925a2.378 2.378 0 0 1-.358.918c14.484-2.305 31.741-1.504 40.772 1.926 17.559 6.732 27.689 24.24 47.948 24.912 20.262.674 40.522-12.793 61.456-7.406 6.078 1.347 10.13 4.714 14.184 8.753 5.402 4.713 10.803 9.426 16.884 12.793-12.833 4.714-22.961 2.693-24.99 19.527-1.348 14.14-2.026 27.606-18.233 30.973-14.183 3.367-29.04-4.04-41.872 4.714-8.104 5.386-7.429 15.487-12.156 22.892-4.726 10.1-11.48 16.833-22.96 15.487-12.834-1.347-22.96-10.1-35.794-9.427-2.62 0-5.245.635-7.866 1.903.945 9.11 1.565 17.69 1.13 21.006-.56 4.294-.024 6.665.71 8.211zm-50.243-80.861c1.092-4.104-.2-11.253-.843-15.414-.464-2.979-1.828-5.89-3.08-8.56-2.677 5.731-6.853 10.803-5.855 14.223 1.166 3.992 5.353 5.992 8.902 11.585.251-.663.726-2.018.726-2.018l.15.184z"/></g></g></g></svg>