<svg width="64" height="64" fill="none" xmlns="http://www.w3.org/2000/svg">
  <path d="M31 .577a2 2 0 0 1 2 0l25.713 14.846a2 2 0 0 1 1 1.732v29.69a2 2 0 0 1-1 1.732L33 63.423a2 2 0 0 1-2 0L5.287 48.577a2 2 0 0 1-1-1.732v-29.69a2 2 0 0 1 1-1.732L31 .577Z" fill="#DBE7FB"/>
  <path d="M14 35.275c0-4.339 3.518-7.923 7.857-7.923 4.34 0 7.857 3.584 7.857 7.923 0 0-2.05 2.882-7.857 2.882S14 35.275 14 35.275Z" fill="#2EBCFA"/>
  <ellipse cx="21.729" cy="21.82" rx="4.135" ry="4.156" fill="#2EBCFA"/>
  <path d="M33.023 35.275c0-4.339 3.517-7.923 7.857-7.923 4.339 0 7.857 3.584 7.857 7.923 0 0-2.05 2.882-7.857 2.882-5.808 0-7.858-2.882-7.858-2.882Z" fill="#2EBCFA"/>
  <ellipse cx="40.751" cy="21.82" rx="4.135" ry="4.156" fill="#2EBCFA"/>
  <path d="M19.79 43.374c0-6.396 5.184-11.581 11.58-11.581h.824c6.395 0 11.58 5.185 11.58 11.58 0 0-3.128 4.212-11.992 4.212S19.79 43.374 19.79 43.374Z" fill="#144496"/>
  <ellipse cx="31.369" cy="22.649" rx="6.617" ry="6.649" fill="#144496"/>
</svg>
