<svg width="64" height="64" viewBox="0 0 64 64" fill="none" xmlns="http://www.w3.org/2000/svg">
<path d="M22.6059 22.2694C21.6513 22.8017 20.8603 23.3952 20.2334 24.0289C20.2286 24.0338 20.2237 24.0387 20.2189 24.0437C20.2171 24.0454 20.2148 24.0478 20.213 24.0496C20.2122 24.0505 20.211 24.0516 20.2101 24.0525C20.2084 24.0543 20.206 24.0566 20.2043 24.0584C20.2025 24.0602 20.2002 24.0625 20.1984 24.0643C20.1976 24.0652 20.1964 24.0664 20.1955 24.0673C20.1938 24.069 20.1915 24.0714 20.1897 24.0732C20.1879 24.0749 20.1856 24.0773 20.1839 24.079C20.183 24.0799 20.1818 24.0811 20.181 24.082C20.1792 24.0838 20.1769 24.0861 20.1751 24.0879C20.1449 24.1184 20.1173 24.1497 20.0878 24.1804C20.0524 24.2174 20.0152 24.254 19.9809 24.2912C19.9788 24.2935 19.9317 24.3417 19.8515 24.4288C19.6699 24.6245 19.3586 24.9716 18.9685 25.4492C18.9662 25.4518 18.9643 25.4541 18.9621 25.4568C18.9475 25.4745 18.9337 25.4921 18.9192 25.5097C18.8832 25.5541 18.8481 25.597 18.8109 25.6435C18.3653 26.1971 17.9816 26.7236 17.6652 27.1823C17.4203 27.5361 17.1693 27.9172 16.9179 28.3223C16.8737 28.3929 16.8334 28.4579 16.7991 28.5133C16.7985 28.5142 16.7981 28.5151 16.7975 28.516C16.7972 28.5165 16.7968 28.517 16.7965 28.5175C16.6596 28.743 16.5333 28.9593 16.4151 29.1674C16.4017 29.1908 16.3888 29.2137 16.3759 29.2364C16.3655 29.2549 16.3548 29.2737 16.3445 29.2921C16.226 29.5021 16.1236 29.6919 16.0038 29.9208C15.9898 29.9476 15.976 29.974 15.9624 30.0004C15.9434 30.0367 15.9253 30.0713 15.9051 30.1102C15.6085 30.6819 15.3666 31.2304 15.2366 31.5251C15.2258 31.5495 15.2122 31.5809 15.1973 31.6154C15.1928 31.6256 15.188 31.637 15.1833 31.6478C15.1787 31.6585 15.1745 31.6683 15.1697 31.6797C15.0626 31.93 14.8996 32.3304 14.7188 32.8395C14.7137 32.8539 14.7086 32.8681 14.7034 32.8827C14.6909 32.9181 14.6783 32.9544 14.6657 32.9908C14.6515 33.0314 14.6375 33.0721 14.6232 33.1138C14.6197 33.124 14.6163 33.1344 14.6128 33.1445C14.5001 33.4763 14.3845 33.8419 14.276 34.2307C14.2738 34.2385 14.2719 34.2461 14.2697 34.2539C14.2688 34.2573 14.2678 34.2606 14.2668 34.2642C14.091 34.8939 13.9708 35.473 13.8906 35.9311C13.8288 36.2828 13.7931 36.5486 13.7753 36.6965C13.7664 36.7683 13.7595 36.8279 13.7551 36.87C13.7375 37.0345 13.718 37.219 13.7008 37.4332C13.7007 37.4336 13.7007 37.4341 13.7006 37.4346C13.6935 37.5232 13.6869 37.6177 13.6809 37.7176C13.6785 37.7553 13.6763 37.7932 13.6742 37.8321C13.6693 37.9272 13.6653 38.0293 13.662 38.1357C13.6616 38.1492 13.6607 38.1611 13.6604 38.1748C13.6599 38.1929 13.6593 38.2175 13.6588 38.2427C13.6585 38.2547 13.658 38.2656 13.6578 38.2776C13.6576 38.2851 13.6578 38.2942 13.6577 38.3018C13.6531 38.5521 13.6508 39.0293 13.6924 39.6184C13.6925 39.6198 13.6924 39.6212 13.6925 39.6225L13.7053 39.7953C13.7101 39.8605 13.7202 39.9255 13.7271 39.9907C13.7342 40.0589 13.7404 40.127 13.7499 40.1951C13.7636 40.2939 13.782 40.3926 13.8005 40.4912C13.8124 40.555 13.8225 40.6187 13.8364 40.6824C13.8603 40.7915 13.8899 40.9002 13.9197 41.009C13.9341 41.0617 13.9458 41.1146 13.9616 41.1672C14.0101 41.3283 14.0642 41.4888 14.1255 41.6486C14.1278 41.6545 14.1307 41.6603 14.133 41.6662C14.1925 41.8201 14.2583 41.9734 14.3298 42.126C14.3545 42.1787 14.3833 42.2308 14.4095 42.2833C14.4619 42.3887 14.5146 42.494 14.5729 42.5986C14.6073 42.6604 14.6455 42.7215 14.6819 42.7829C14.738 42.8776 14.7942 42.9721 14.855 43.066C14.8971 43.1308 14.9423 43.195 14.9866 43.2595C15.0481 43.3489 15.1102 43.4382 15.1761 43.5269C15.225 43.5926 15.2763 43.6579 15.3276 43.7232C15.3955 43.8096 15.4648 43.8958 15.5369 43.9814C15.592 44.0468 15.6488 44.1118 15.7064 44.1767C15.7812 44.261 15.8582 44.3448 15.9373 44.4281C15.9981 44.4924 16.0598 44.5564 16.1232 44.62C16.206 44.7031 16.2916 44.7855 16.3786 44.8675C16.4444 44.9296 16.5102 44.9918 16.5786 45.0533C16.6704 45.136 16.7661 45.2177 16.8623 45.2993C16.9319 45.3583 17.0005 45.4175 17.0724 45.4758C17.176 45.5598 17.2843 45.6425 17.3926 45.7252C17.4634 45.7793 17.5323 45.8338 17.6052 45.8872C17.7284 45.9775 17.8572 46.066 17.9862 46.1545C18.0501 46.1983 18.1112 46.243 18.1765 46.2863C18.3737 46.4173 18.5766 46.5463 18.7868 46.6728C23.5907 49.564 30.5552 50.5264 36.8114 49.5318L33.9536 20.1535C29.9592 19.8195 25.745 20.5191 22.6059 22.2694Z" fill="white"/>
<path d="M50.3398 38.1955C50.3396 38.1877 50.3398 38.1785 50.3396 38.1707C50.3391 38.1528 50.3383 38.1365 50.3377 38.1189C50.3372 38.1019 50.3369 38.085 50.3364 38.0679C50.336 38.0541 50.335 38.0423 50.3346 38.0288C50.3306 37.9228 50.3261 37.8211 50.3206 37.7263C50.3184 37.6868 50.3158 37.6482 50.3132 37.6099C50.2907 37.2684 50.2605 36.9962 50.2343 36.7638C50.2296 36.7218 50.2224 36.6625 50.2132 36.5909C50.1944 36.4425 50.1569 36.1747 50.0924 35.8203C50.0097 35.3639 49.8866 34.7881 49.708 34.1621C49.707 34.1583 49.7059 34.1548 49.7048 34.151C49.7027 34.1435 49.7008 34.1364 49.6987 34.129C49.5882 33.7417 49.4709 33.3776 49.3565 33.0471C49.3527 33.0361 49.3489 33.0249 49.3451 33.014C49.3311 32.9736 49.3172 32.9343 49.3033 32.895C49.2898 32.8568 49.2764 32.8189 49.2631 32.7818C49.2585 32.7691 49.254 32.7568 49.2495 32.7442C49.0657 32.2358 48.9003 31.8359 48.7916 31.5855C48.7856 31.5718 48.7804 31.5599 48.775 31.5473C48.7713 31.5388 48.7674 31.53 48.7639 31.522C48.7485 31.4869 48.7344 31.4549 48.7233 31.4302C48.6977 31.373 48.6666 31.3039 48.6329 31.2293C48.6325 31.2283 48.6321 31.2274 48.6317 31.2265C48.4919 30.9177 48.2877 30.4773 48.0472 30.0199C48.0262 29.9801 48.0074 29.9446 47.9877 29.9074C47.9748 29.8828 47.9617 29.8581 47.9485 29.8331C47.8272 29.6046 47.7236 29.4152 47.604 29.2058C47.5927 29.1859 47.581 29.1656 47.5695 29.1456C47.5575 29.1248 47.5456 29.1038 47.5331 29.0823C47.4135 28.8744 47.2856 28.6583 47.1471 28.433C47.1468 28.4325 47.1463 28.432 47.146 28.4314C47.1455 28.4305 47.145 28.4297 47.1445 28.4289C47.1099 28.3737 47.0693 28.3091 47.0248 28.2388C46.7708 27.8345 46.5173 27.4544 46.2701 27.1018C45.9513 26.6452 45.5649 26.1215 45.1168 25.5711C45.0794 25.525 45.0441 25.4823 45.0079 25.4382C44.9934 25.4206 44.9795 25.4033 44.9648 25.3856C44.9626 25.3831 44.9608 25.3808 44.9586 25.3782C44.5658 24.903 44.2526 24.5577 44.0698 24.363C43.989 24.2762 43.9416 24.2281 43.9395 24.2259C43.8905 24.1733 43.8389 24.1215 43.7877 24.0695C43.7727 24.0542 43.7592 24.0388 43.744 24.0236L43.6854 23.965C43.6594 23.9389 43.6295 23.9138 43.6029 23.888C43.548 23.8356 43.4927 23.7833 43.4355 23.7316C42.951 23.2845 42.3859 22.8581 41.7291 22.4629C39.5695 21.1631 36.8181 20.3931 33.9539 20.1536L36.8117 49.5319C39.6744 49.0768 42.389 48.2124 44.6802 46.9348C44.9056 46.8092 45.1239 46.6809 45.3358 46.5504C45.4068 46.5066 45.4728 46.4612 45.5422 46.4169C45.6801 46.3291 45.819 46.2416 45.9509 46.1518C46.031 46.0971 46.1057 46.0408 46.1837 45.9855C46.2986 45.904 46.4153 45.823 46.5255 45.7398C46.6052 45.6798 46.6794 45.6181 46.7565 45.5574C46.8586 45.4769 46.9624 45.3971 47.06 45.3154C47.1364 45.2515 47.2073 45.1862 47.281 45.1216C47.3727 45.0411 47.4661 44.9612 47.5536 44.8797C47.6255 44.8127 47.6922 44.7445 47.7613 44.6768C47.8441 44.5958 47.9284 44.5151 48.0071 44.433C48.0735 44.3638 48.135 44.2935 48.1986 44.2236C48.2732 44.1416 48.3491 44.0599 48.4197 43.977C48.4806 43.9056 48.5367 43.8332 48.5947 43.7612C48.6613 43.6783 48.7291 43.5958 48.7919 43.5121C48.847 43.4387 48.8975 43.3645 48.9497 43.2905C49.0085 43.207 49.0682 43.1238 49.1232 43.0397C49.1723 42.9645 49.2171 42.8888 49.2631 42.8132C49.3145 42.7289 49.3666 42.6447 49.4141 42.5598C49.4569 42.4835 49.4956 42.4067 49.5353 42.33C49.5794 42.2449 49.6239 42.1598 49.6642 42.0742C49.7007 41.9967 49.7334 41.9187 49.7669 41.8409C49.8036 41.7551 49.8406 41.6695 49.8737 41.5834C49.9038 41.5049 49.9304 41.4261 49.9574 41.3472C49.9869 41.2611 50.0164 41.175 50.0423 41.0885C50.066 41.0091 50.0864 40.9295 50.107 40.8499C50.1294 40.7633 50.1515 40.6768 50.1702 40.5901C50.1874 40.5102 50.2015 40.4302 50.2156 40.3502C50.2309 40.2633 50.2457 40.1764 50.2572 40.0894C50.2679 40.009 50.2758 39.9286 50.2833 39.8481C50.2883 39.795 50.297 39.7419 50.3006 39.6887C50.3045 39.6311 50.3084 39.5735 50.3124 39.5159C50.3124 39.5149 50.3124 39.5139 50.3124 39.5129C50.347 38.9824 50.3495 38.5916 50.3398 38.1955Z" fill="#FBDBD0"/>
<path d="M41.7299 22.4629C46.9011 25.5753 46.7238 30.5347 41.3337 33.5402C35.9436 36.5457 27.382 36.4591 22.2107 33.3468C17.0394 30.2344 17.2167 25.275 22.6068 22.2695C27.9969 19.264 36.5586 19.3506 41.7299 22.4629Z" fill="white"/>
<path d="M62.9223 25.7258C62.9223 25.7399 62.92 25.7539 62.9187 25.7679C62.9174 25.7832 62.9163 25.7985 62.9135 25.8137C62.9112 25.8261 62.9075 25.8383 62.9042 25.8507C62.9005 25.8651 62.897 25.8796 62.8919 25.8938C62.8877 25.9056 62.8821 25.9173 62.877 25.929C62.8705 25.9441 62.8639 25.9592 62.8559 25.9741C62.8501 25.9849 62.8431 25.9955 62.8366 26.0062C62.8261 26.0231 62.815 26.0399 62.8026 26.0565C62.7953 26.0664 62.7872 26.0762 62.7792 26.0858C62.7606 26.1082 62.7401 26.1301 62.7179 26.1517C62.7099 26.1595 62.7026 26.1674 62.6941 26.1751C62.6802 26.1876 62.6646 26.1998 62.6494 26.212C62.6362 26.2226 62.6234 26.2333 62.6092 26.2437C62.5928 26.2557 62.5746 26.2671 62.5569 26.2786C62.5388 26.2903 62.5217 26.3024 62.5023 26.3137L33.1263 43.385L33.1221 44.8651L62.498 27.7938C62.504 27.7904 62.5099 27.7869 62.5157 27.7834C62.5289 27.7754 62.5402 27.7668 62.5529 27.7586C62.5705 27.7471 62.5886 27.7358 62.6049 27.7239C62.6193 27.7135 62.6321 27.7026 62.6455 27.6918C62.6606 27.6797 62.676 27.6677 62.6898 27.6553C62.6926 27.6527 62.6961 27.6504 62.6988 27.6478C62.7045 27.6426 62.7084 27.637 62.7138 27.6318C62.736 27.6102 62.7565 27.5882 62.7751 27.5658C62.7791 27.5609 62.7846 27.5564 62.7885 27.5514C62.7922 27.5466 62.7947 27.5416 62.7983 27.5368C62.8108 27.5201 62.8219 27.5032 62.8325 27.4862C62.8368 27.4791 62.8426 27.4722 62.8466 27.4651C62.8486 27.4616 62.8498 27.4578 62.8517 27.4542C62.8597 27.4393 62.8662 27.4243 62.8728 27.4092C62.8767 27.4004 62.8818 27.3918 62.8851 27.3829C62.8863 27.38 62.8866 27.3769 62.8877 27.3739C62.8928 27.3596 62.8963 27.3452 62.9001 27.3307C62.9027 27.321 62.9065 27.3113 62.9085 27.3016C62.909 27.299 62.9089 27.2964 62.9094 27.2938C62.9122 27.2787 62.9132 27.2635 62.9146 27.2484C62.9155 27.2385 62.9177 27.2286 62.918 27.2187C62.9181 27.2144 62.9181 27.2102 62.9181 27.206L62.9223 25.7258Z" fill="#C1DBF6"/>
<path d="M62.4945 25.128C63.0626 25.4559 63.0656 25.9864 62.5026 26.3135L33.1267 43.3848C32.5638 43.7119 31.6466 43.7127 31.0785 43.3848L1.51043 26.3138C0.943813 25.9866 0.942275 25.4554 1.50517 25.1283L30.8811 8.057C31.444 7.72986 32.3598 7.72986 32.9264 8.057L62.4945 25.128Z" fill="white"/>
<path d="M32.9245 43.4807C32.9061 43.4881 32.8874 43.4951 32.8685 43.5019C32.8246 43.5179 32.7784 43.5306 32.7324 43.5435C32.6848 43.5569 32.6368 43.5694 32.5875 43.5795C32.5298 43.5914 32.4717 43.6022 32.4122 43.6097C32.3976 43.6116 32.3832 43.6142 32.3685 43.6158C32.2882 43.6244 32.2068 43.6287 32.1253 43.6294C32.1123 43.6295 32.0994 43.6296 32.0865 43.6296C32.006 43.629 31.9256 43.6246 31.8461 43.6163C31.834 43.6151 31.822 43.6137 31.8101 43.6123C31.7311 43.6029 31.6533 43.5896 31.5773 43.5724C31.5633 43.5693 31.5496 43.5656 31.5358 43.5623C31.4667 43.5452 31.3998 43.5247 31.335 43.5012C31.3233 43.4969 31.3108 43.4936 31.2991 43.4891C31.2214 43.459 31.1471 43.4246 31.0783 43.3849L1.5102 26.3139C1.36781 26.2317 1.26111 26.1367 1.1901 26.0351C1.1546 25.9843 1.12799 25.932 1.11031 25.8788C1.10146 25.8522 1.09484 25.8254 1.09047 25.7986C1.0861 25.7717 1.08394 25.7447 1.08402 25.7178L1.07984 27.1979C1.07922 27.4136 1.22125 27.6296 1.50601 27.794L31.0741 44.865C31.1395 44.9028 31.2095 44.9362 31.283 44.9652C31.2869 44.9667 31.2911 44.9677 31.2949 44.9692C31.3066 44.9737 31.319 44.977 31.3308 44.9813C31.3729 44.9966 31.4149 45.012 31.4589 45.0245C31.4826 45.0313 31.5073 45.0364 31.5315 45.0423C31.5454 45.0457 31.559 45.0494 31.5731 45.0525C31.5855 45.0553 31.5974 45.0589 31.6099 45.0615C31.6571 45.0713 31.705 45.0796 31.7534 45.0865C31.7707 45.0889 31.7884 45.0902 31.8058 45.0923C31.8179 45.0937 31.8298 45.0951 31.8418 45.0964C31.8593 45.0981 31.8766 45.1008 31.8942 45.1022C31.9416 45.1061 31.9892 45.1086 32.0369 45.1098C32.052 45.1102 32.0671 45.1095 32.0823 45.1096C32.0953 45.1097 32.1081 45.1096 32.1211 45.1094C32.1425 45.1092 32.1639 45.1099 32.1853 45.1092C32.2391 45.1073 32.2927 45.1038 32.346 45.0984C32.3522 45.0978 32.3582 45.0966 32.3644 45.0959C32.3791 45.0943 32.3933 45.0916 32.408 45.0898C32.4491 45.0847 32.4905 45.08 32.5309 45.0727C32.5489 45.0694 32.5655 45.0633 32.5833 45.0597C32.6328 45.0495 32.6805 45.037 32.7282 45.0236C32.7535 45.0164 32.7805 45.0124 32.8052 45.0045C32.8256 44.9978 32.8444 44.9892 32.8643 44.982C32.8833 44.9751 32.9019 44.9682 32.9203 44.9608C32.991 44.9324 33.0595 44.9015 33.1223 44.8649L33.1265 43.3848C33.0637 43.4213 32.9952 43.4524 32.9245 43.4807Z" fill="#C1DBF6"/>
<path d="M33.082 26.1013L43.2811 37.3378C43.7389 37.7655 43.9987 38.3639 43.9987 38.9904V47.3889" stroke="#374874" stroke-width="0.5" stroke-miterlimit="10"/>
<path d="M31.9954 24.0183C32.4661 24.0183 32.9242 24.1231 33.262 24.3181C33.6019 24.5145 33.7161 24.7375 33.717 24.9089C33.7178 25.0797 33.6064 25.3012 33.2698 25.4968C32.9348 25.6914 32.4787 25.7957 32.0081 25.7957C31.5375 25.7956 31.0791 25.6912 30.7405 25.4958C30.4014 25.3001 30.2865 25.0774 30.2854 24.906C30.2844 24.7353 30.3956 24.5134 30.7317 24.3181C31.0675 24.123 31.5245 24.0184 31.9954 24.0183Z" fill="white" stroke="#374874" stroke-width="0.5"/>
<path d="M30.9897 26.1699C30.9933 26.1711 30.9981 26.1727 31.0034 26.1748C31.0034 26.1748 31.005 26.1761 31.0132 26.1787C31.0193 26.1807 31.0335 26.1844 31.0474 26.1895C31.1067 26.211 31.1549 26.229 31.2046 26.2432H31.2056C31.2329 26.2509 31.2469 26.2531 31.2935 26.2646C31.3191 26.2709 31.329 26.2737 31.3452 26.2773H31.3462C31.3595 26.2804 31.3727 26.2844 31.3794 26.2861C31.3875 26.2882 31.3911 26.2887 31.3931 26.2891H31.3921C31.4509 26.3013 31.5112 26.3118 31.5718 26.3203C31.5948 26.3236 31.5953 26.3223 31.6362 26.3271H31.6372C31.6516 26.3289 31.6659 26.3314 31.6812 26.333H31.6821C31.724 26.3374 31.7244 26.3379 31.7485 26.3398C31.8082 26.3447 31.8682 26.3481 31.9282 26.3496H32.0327C32.0772 26.3492 32.0876 26.3496 32.1147 26.3486L32.3159 26.3359H32.3149C32.3165 26.3357 32.3201 26.3345 32.3237 26.334C32.3275 26.3334 32.3326 26.3327 32.3384 26.332H32.3394C32.3631 26.3295 32.3455 26.331 32.3911 26.3252H32.3921C32.4529 26.3176 32.5004 26.3121 32.5474 26.3037H32.5483C32.5494 26.3035 32.553 26.302 32.561 26.2998L32.7915 26.2422L32.8569 26.2266C32.8744 26.2227 32.8827 26.2202 32.8872 26.2188C32.8925 26.217 32.8995 26.2148 32.9116 26.21C32.9218 26.2059 32.9404 26.198 32.9585 26.1914L33.0269 26.166L33.1548 26.1104C33.1949 26.0915 33.2328 26.0722 33.2681 26.0518H33.269C33.2708 26.0507 33.2721 26.0489 33.2739 26.0479C33.2538 26.0564 33.2343 26.0662 33.2144 26.0742C33.1856 26.0858 33.157 26.0968 33.1304 26.1064C33.0602 26.1319 32.9875 26.1523 32.9282 26.1689C32.8614 26.1877 32.7896 26.2062 32.7144 26.2217C32.6329 26.2384 32.546 26.2543 32.4556 26.2656L32.4331 26.2695C32.4235 26.271 32.4094 26.2728 32.394 26.2744C32.2758 26.2871 32.1566 26.293 32.0386 26.2939C32.0231 26.294 32.0014 26.2941 31.9819 26.2939C31.8649 26.2931 31.748 26.2865 31.6323 26.2744V26.2754C31.6146 26.2736 31.5963 26.2707 31.5786 26.2686C31.4631 26.2547 31.3492 26.235 31.2378 26.21V26.2109C31.2165 26.2062 31.1894 26.1983 31.1772 26.1953H31.1763C31.0736 26.1699 30.9735 26.1394 30.8774 26.1045L30.8628 26.0996C30.8549 26.0971 30.8403 26.092 30.8247 26.0859V26.0869C30.7943 26.0751 30.7649 26.0607 30.7349 26.0479C30.7361 26.0486 30.7375 26.05 30.7388 26.0508C30.8135 26.0939 30.8947 26.1325 30.981 26.167L30.9897 26.1699ZM30.9897 26.1699H30.9878L30.9849 26.1689C30.9863 26.1695 30.9883 26.1703 30.9897 26.1709H30.9907L30.9897 26.1699Z" fill="#374874" stroke="#374874" stroke-width="0.5"/>
<path d="M41.7219 55.5644L41.7235 55.5654C43.0624 56.3978 44.7578 56.3978 46.0967 55.5654C46.2451 55.4731 46.3288 55.3067 46.3124 55.1327C46.2339 54.2949 45.9815 51.7751 45.6366 50.0529C45.4608 49.175 44.9943 48.3828 44.3148 47.7998L43.889 47.4344L43.5169 47.7467C42.8167 48.3342 42.3361 49.1418 42.1596 50.0385C41.8175 51.7763 41.5793 54.2983 41.5059 55.1344C41.4907 55.3075 41.5743 55.4726 41.7219 55.5644Z" fill="white"/>
<path d="M45.6367 50.0529C45.4609 49.175 44.9944 48.3828 44.3149 47.7997L43.8891 47.4344L43.517 47.7467C43.4642 47.791 43.4152 47.8389 43.365 47.8856C44.0765 48.5178 44.5668 49.3617 44.7539 50.2962C45.1309 52.1785 45.4067 54.9324 45.4926 55.8482C45.4934 55.8568 45.491 55.8651 45.4914 55.8737C45.6991 55.7879 45.902 55.6865 46.0968 55.5654C46.2452 55.4731 46.3289 55.3068 46.3126 55.1328C46.234 54.2949 45.9816 51.7751 45.6367 50.0529Z" fill="#FBDBD0"/>
<path d="M43.8894 49.2713C44.9039 49.2713 45.7263 48.4489 45.7263 47.4344C45.7263 46.4199 44.9039 45.5975 43.8894 45.5975C42.8749 45.5975 42.0525 46.4199 42.0525 47.4344C42.0525 48.4489 42.8749 49.2713 43.8894 49.2713Z" fill="#FBDBD0"/>
<path d="M45.495 46.9474C45.495 46.7746 45.4732 46.6071 45.4357 46.4455C45.1092 45.936 44.5394 45.5975 43.8894 45.5975C42.8749 45.5975 42.0525 46.4199 42.0525 47.4344C42.0525 48.2299 42.559 48.9052 43.2665 49.1606C43.2714 49.1606 43.2761 49.1613 43.2811 49.1613C44.5038 49.1613 45.495 48.1702 45.495 46.9474Z" fill="white"/>
<path d="M45.495 46.9474C45.495 46.7746 45.4732 46.6071 45.4357 46.4455C45.1092 45.936 44.5394 45.5975 43.8894 45.5975C42.8749 45.5975 42.0525 46.4199 42.0525 47.4344C42.0525 48.2299 42.559 48.9052 43.2665 49.1606C43.2714 49.1606 43.2761 49.1613 43.2811 49.1613C44.5038 49.1613 45.495 48.1702 45.495 46.9474Z" fill="white"/>
<mask id="path-15-outside-1_405_9719" maskUnits="userSpaceOnUse" x="0.079834" y="6.8114" width="64" height="51" fill="black">
<rect fill="white" x="0.079834" y="6.8114" width="64" height="51"/>
<path d="M32.9265 8.05675C32.3599 7.72962 31.4436 7.72961 30.8806 8.05675L1.50562 25.128C1.14297 25.3388 1.07326 25.6091 1.08374 25.7179L1.08309 25.9648L1.07983 27.1984C1.07942 27.4138 1.22124 27.6298 1.50562 27.7941L14.0691 35.047C13.995 35.372 13.9359 35.6708 13.8904 35.9308C13.8285 36.2824 13.793 36.5486 13.7751 36.6964C13.7662 36.7683 13.7591 36.8281 13.7546 36.8702C13.7371 37.0345 13.7182 37.2189 13.7009 37.4327V37.4347C13.6938 37.5233 13.6864 37.618 13.6804 37.7179C13.6781 37.7555 13.6766 37.7934 13.6746 37.8321C13.6696 37.9273 13.6652 38.0295 13.6619 38.1359C13.6615 38.1493 13.6603 38.1612 13.6599 38.1749C13.6595 38.1929 13.6595 38.2173 13.6589 38.2423L13.658 38.2775V38.8331C13.662 39.0573 13.6714 39.3238 13.6921 39.6183V39.6222L13.7048 39.795C13.7096 39.8601 13.7204 39.9253 13.7273 39.9903C13.7345 40.0585 13.7403 40.1274 13.7498 40.1954C13.7632 40.2921 13.7813 40.3886 13.7994 40.4852L13.8005 40.4913C13.8125 40.555 13.8228 40.6191 13.8367 40.6827C13.8606 40.7917 13.8899 40.9003 13.9197 41.0089C13.9341 41.0616 13.9459 41.1145 13.9617 41.1671C14.0101 41.3281 14.0644 41.4887 14.1257 41.6485L14.1326 41.6661C14.1921 41.8201 14.2583 41.9735 14.3298 42.1261C14.3545 42.1787 14.3838 42.2309 14.4099 42.2833L14.4131 42.2898C14.4645 42.393 14.516 42.4964 14.573 42.5987C14.6074 42.6605 14.646 42.7219 14.6824 42.7833C14.7383 42.8777 14.7945 42.9719 14.8552 43.0655C14.8973 43.1304 14.9428 43.1954 14.9871 43.2599C15.0484 43.3492 15.1108 43.438 15.1765 43.5265C15.2253 43.5922 15.2766 43.6574 15.3278 43.7227L15.3279 43.7228C15.3958 43.8092 15.4647 43.8959 15.5369 43.9816C15.592 44.0469 15.6492 44.112 15.7068 44.1769C15.7815 44.2611 15.8584 44.3447 15.9373 44.4278C15.9981 44.4921 16.0594 44.5567 16.1228 44.6202C16.2055 44.7033 16.2917 44.7853 16.3787 44.8673C16.4445 44.9294 16.5106 44.9913 16.5789 45.0528C16.6706 45.1355 16.7659 45.2174 16.8621 45.2989C16.9316 45.3578 17.0002 45.4174 17.072 45.4757C17.1756 45.5597 17.284 45.643 17.3923 45.7257C17.4631 45.7797 17.5324 45.8335 17.6052 45.8868C17.7284 45.9771 17.8571 46.066 17.9861 46.1544C18.05 46.1982 18.1112 46.2429 18.1765 46.2862C18.3737 46.4172 18.5766 46.5464 18.7869 46.673C23.5907 49.5641 30.5551 50.5268 36.8113 49.5323C38.6902 49.2336 40.505 48.7561 42.1785 48.1036C42.2028 48.1656 42.2308 48.2258 42.2615 48.2843C42.2742 48.3086 42.2887 48.3319 42.3025 48.3556C42.3122 48.3722 42.3216 48.3891 42.3318 48.4054C42.3494 48.4335 42.3674 48.4613 42.3865 48.4884C42.402 48.5104 42.4188 48.5315 42.4353 48.5528C42.4975 48.6336 42.5658 48.7091 42.6404 48.7784C42.4113 49.1652 42.248 49.5907 42.1599 50.0382C41.8179 51.7757 41.5791 54.2974 41.5056 55.1339C41.4904 55.3069 41.574 55.4728 41.7214 55.5646L41.7234 55.5655C42.8675 56.2769 44.2711 56.3785 45.491 55.8741C45.6986 55.7883 45.9017 55.6866 46.0964 55.5655C46.2448 55.4733 46.3285 55.3068 46.3123 55.1329C46.273 54.7141 46.191 53.8747 46.075 52.9249C46.0459 52.6874 46.0142 52.4429 45.9812 52.1964C45.8822 51.4569 45.7658 50.6987 45.6365 50.0528C45.5486 49.6139 45.3883 49.1962 45.1648 48.8155C45.1569 48.8022 45.1474 48.7898 45.1394 48.7765C45.4992 48.4412 45.7262 47.9653 45.7263 47.4347C45.7263 47.0821 45.6251 46.7535 45.4529 46.4737C45.4823 46.4544 45.5127 46.4362 45.5427 46.4171L45.5517 46.4114C45.6865 46.3256 45.8219 46.2393 45.9509 46.1515C46.031 46.0969 46.1055 46.0407 46.1833 45.9855C46.2983 45.9039 46.415 45.8225 46.5251 45.7394C46.6048 45.6793 46.6795 45.6185 46.7566 45.5577C46.8586 45.4773 46.9627 45.3972 47.0603 45.3155C47.1366 45.2517 47.2074 45.1858 47.281 45.1212C47.3726 45.0409 47.4661 44.9614 47.5535 44.88C47.6253 44.8131 47.6924 44.7445 47.7615 44.6769C47.8442 44.5958 47.9288 44.5148 48.0076 44.4327C48.0739 44.3636 48.1355 44.2935 48.199 44.2237L48.224 44.1962C48.2904 44.1234 48.3569 44.0503 48.4197 43.9767C48.4805 43.9053 48.5366 43.8328 48.5945 43.7609C48.6611 43.678 48.729 43.5954 48.7917 43.5118C48.8468 43.4385 48.8979 43.3641 48.95 43.2901C49.0085 43.207 49.068 43.124 49.1228 43.0401C49.1719 42.9651 49.2174 42.8892 49.2634 42.8136C49.3148 42.7293 49.3662 42.6446 49.4138 42.5597C49.4565 42.4835 49.4953 42.4068 49.5349 42.3302L49.5461 42.3086C49.5865 42.2307 49.627 42.1526 49.6638 42.0743C49.7003 41.9968 49.7339 41.9188 49.7673 41.8409C49.8041 41.7552 49.8407 41.6692 49.8738 41.5831C49.9023 41.5088 49.9279 41.4339 49.9535 41.3593L49.9578 41.3468C49.9872 41.2609 50.0169 41.1752 50.0427 41.089C50.0665 41.0096 50.0866 40.9293 50.1072 40.8497L50.1086 40.8444C50.1305 40.7597 50.1524 40.6749 50.1707 40.59C50.1859 40.5191 50.1984 40.4476 50.2109 40.3765L50.2156 40.3497C50.2308 40.2629 50.246 40.1759 50.2576 40.089C50.2673 40.0157 50.2742 39.9421 50.281 39.8687L50.283 39.8478C50.288 39.7947 50.297 39.7417 50.3005 39.6886L50.3123 39.5157V39.5128C50.3469 38.9824 50.3493 38.5915 50.3396 38.1954C50.3394 38.1877 50.3398 38.1787 50.3396 38.171C50.3391 38.1532 50.3382 38.1367 50.3376 38.1192C50.3372 38.1022 50.3372 38.0846 50.3367 38.0675C50.3363 38.0539 50.3352 38.0419 50.3347 38.0284C50.3308 37.9227 50.3265 37.8212 50.321 37.7267C50.3188 37.6871 50.3158 37.6479 50.3132 37.6095C50.2907 37.2682 50.2603 36.9962 50.2341 36.7638L50.2326 36.7504C50.2281 36.7096 50.222 36.6552 50.2136 36.5909C50.1948 36.4425 50.157 36.1747 50.0925 35.8204C50.0529 35.6015 50.003 35.3552 49.9431 35.089L62.4978 27.7941C62.5037 27.7907 62.5096 27.7868 62.5154 27.7833C62.5285 27.7754 62.54 27.767 62.5525 27.7589C62.5701 27.7474 62.5889 27.7356 62.6052 27.7237C62.6195 27.7134 62.632 27.7022 62.6453 27.6915C62.6604 27.6794 62.6764 27.6679 62.6902 27.6554L62.699 27.6476C62.7044 27.6425 62.7084 27.637 62.7136 27.6319C62.7359 27.6103 62.7566 27.588 62.7751 27.5655C62.7791 27.5607 62.785 27.5567 62.7888 27.5519C62.7926 27.5471 62.7951 27.542 62.7986 27.5372C62.8111 27.5205 62.8223 27.5034 62.8328 27.4864C62.8371 27.4793 62.8424 27.4721 62.8464 27.465C62.8484 27.4615 62.8494 27.4578 62.8513 27.4542C62.8593 27.4393 62.8662 27.4244 62.8728 27.4093C62.8766 27.4005 62.8822 27.3918 62.8855 27.3829C62.8866 27.3801 62.8865 27.377 62.8875 27.3741C62.8925 27.36 62.8964 27.3455 62.9001 27.3312C62.9027 27.3215 62.907 27.3115 62.9089 27.3019C62.9094 27.2994 62.9085 27.2965 62.9089 27.2941C62.9117 27.279 62.9134 27.2633 62.9148 27.2482C62.9157 27.2384 62.9174 27.2286 62.9177 27.2189C62.9178 27.2147 62.9177 27.2103 62.9177 27.2062L62.9226 25.7257C62.9233 25.5097 62.7808 25.2932 62.4949 25.128L32.9265 8.05675Z"/>
</mask>
<path d="M32.9265 8.05675C32.3599 7.72962 31.4436 7.72961 30.8806 8.05675L1.50562 25.128C1.14297 25.3388 1.07326 25.6091 1.08374 25.7179L1.08309 25.9648L1.07983 27.1984C1.07942 27.4138 1.22124 27.6298 1.50562 27.7941L14.0691 35.047C13.995 35.372 13.9359 35.6708 13.8904 35.9308C13.8285 36.2824 13.793 36.5486 13.7751 36.6964C13.7662 36.7683 13.7591 36.8281 13.7546 36.8702C13.7371 37.0345 13.7182 37.2189 13.7009 37.4327V37.4347C13.6938 37.5233 13.6864 37.618 13.6804 37.7179C13.6781 37.7555 13.6766 37.7934 13.6746 37.8321C13.6696 37.9273 13.6652 38.0295 13.6619 38.1359C13.6615 38.1493 13.6603 38.1612 13.6599 38.1749C13.6595 38.1929 13.6595 38.2173 13.6589 38.2423L13.658 38.2775V38.8331C13.662 39.0573 13.6714 39.3238 13.6921 39.6183V39.6222L13.7048 39.795C13.7096 39.8601 13.7204 39.9253 13.7273 39.9903C13.7345 40.0585 13.7403 40.1274 13.7498 40.1954C13.7632 40.2921 13.7813 40.3886 13.7994 40.4852L13.8005 40.4913C13.8125 40.555 13.8228 40.6191 13.8367 40.6827C13.8606 40.7917 13.8899 40.9003 13.9197 41.0089C13.9341 41.0616 13.9459 41.1145 13.9617 41.1671C14.0101 41.3281 14.0644 41.4887 14.1257 41.6485L14.1326 41.6661C14.1921 41.8201 14.2583 41.9735 14.3298 42.1261C14.3545 42.1787 14.3838 42.2309 14.4099 42.2833L14.4131 42.2898C14.4645 42.393 14.516 42.4964 14.573 42.5987C14.6074 42.6605 14.646 42.7219 14.6824 42.7833C14.7383 42.8777 14.7945 42.9719 14.8552 43.0655C14.8973 43.1304 14.9428 43.1954 14.9871 43.2599C15.0484 43.3492 15.1108 43.438 15.1765 43.5265C15.2253 43.5922 15.2766 43.6574 15.3278 43.7227L15.3279 43.7228C15.3958 43.8092 15.4647 43.8959 15.5369 43.9816C15.592 44.0469 15.6492 44.112 15.7068 44.1769C15.7815 44.2611 15.8584 44.3447 15.9373 44.4278C15.9981 44.4921 16.0594 44.5567 16.1228 44.6202C16.2055 44.7033 16.2917 44.7853 16.3787 44.8673C16.4445 44.9294 16.5106 44.9913 16.5789 45.0528C16.6706 45.1355 16.7659 45.2174 16.8621 45.2989C16.9316 45.3578 17.0002 45.4174 17.072 45.4757C17.1756 45.5597 17.284 45.643 17.3923 45.7257C17.4631 45.7797 17.5324 45.8335 17.6052 45.8868C17.7284 45.9771 17.8571 46.066 17.9861 46.1544C18.05 46.1982 18.1112 46.2429 18.1765 46.2862C18.3737 46.4172 18.5766 46.5464 18.7869 46.673C23.5907 49.5641 30.5551 50.5268 36.8113 49.5323C38.6902 49.2336 40.505 48.7561 42.1785 48.1036C42.2028 48.1656 42.2308 48.2258 42.2615 48.2843C42.2742 48.3086 42.2887 48.3319 42.3025 48.3556C42.3122 48.3722 42.3216 48.3891 42.3318 48.4054C42.3494 48.4335 42.3674 48.4613 42.3865 48.4884C42.402 48.5104 42.4188 48.5315 42.4353 48.5528C42.4975 48.6336 42.5658 48.7091 42.6404 48.7784C42.4113 49.1652 42.248 49.5907 42.1599 50.0382C41.8179 51.7757 41.5791 54.2974 41.5056 55.1339C41.4904 55.3069 41.574 55.4728 41.7214 55.5646L41.7234 55.5655C42.8675 56.2769 44.2711 56.3785 45.491 55.8741C45.6986 55.7883 45.9017 55.6866 46.0964 55.5655C46.2448 55.4733 46.3285 55.3068 46.3123 55.1329C46.273 54.7141 46.191 53.8747 46.075 52.9249C46.0459 52.6874 46.0142 52.4429 45.9812 52.1964C45.8822 51.4569 45.7658 50.6987 45.6365 50.0528C45.5486 49.6139 45.3883 49.1962 45.1648 48.8155C45.1569 48.8022 45.1474 48.7898 45.1394 48.7765C45.4992 48.4412 45.7262 47.9653 45.7263 47.4347C45.7263 47.0821 45.6251 46.7535 45.4529 46.4737C45.4823 46.4544 45.5127 46.4362 45.5427 46.4171L45.5517 46.4114C45.6865 46.3256 45.8219 46.2393 45.9509 46.1515C46.031 46.0969 46.1055 46.0407 46.1833 45.9855C46.2983 45.9039 46.415 45.8225 46.5251 45.7394C46.6048 45.6793 46.6795 45.6185 46.7566 45.5577C46.8586 45.4773 46.9627 45.3972 47.0603 45.3155C47.1366 45.2517 47.2074 45.1858 47.281 45.1212C47.3726 45.0409 47.4661 44.9614 47.5535 44.88C47.6253 44.8131 47.6924 44.7445 47.7615 44.6769C47.8442 44.5958 47.9288 44.5148 48.0076 44.4327C48.0739 44.3636 48.1355 44.2935 48.199 44.2237L48.224 44.1962C48.2904 44.1234 48.3569 44.0503 48.4197 43.9767C48.4805 43.9053 48.5366 43.8328 48.5945 43.7609C48.6611 43.678 48.729 43.5954 48.7917 43.5118C48.8468 43.4385 48.8979 43.3641 48.95 43.2901C49.0085 43.207 49.068 43.124 49.1228 43.0401C49.1719 42.9651 49.2174 42.8892 49.2634 42.8136C49.3148 42.7293 49.3662 42.6446 49.4138 42.5597C49.4565 42.4835 49.4953 42.4068 49.5349 42.3302L49.5461 42.3086C49.5865 42.2307 49.627 42.1526 49.6638 42.0743C49.7003 41.9968 49.7339 41.9188 49.7673 41.8409C49.8041 41.7552 49.8407 41.6692 49.8738 41.5831C49.9023 41.5088 49.9279 41.4339 49.9535 41.3593L49.9578 41.3468C49.9872 41.2609 50.0169 41.1752 50.0427 41.089C50.0665 41.0096 50.0866 40.9293 50.1072 40.8497L50.1086 40.8444C50.1305 40.7597 50.1524 40.6749 50.1707 40.59C50.1859 40.5191 50.1984 40.4476 50.2109 40.3765L50.2156 40.3497C50.2308 40.2629 50.246 40.1759 50.2576 40.089C50.2673 40.0157 50.2742 39.9421 50.281 39.8687L50.283 39.8478C50.288 39.7947 50.297 39.7417 50.3005 39.6886L50.3123 39.5157V39.5128C50.3469 38.9824 50.3493 38.5915 50.3396 38.1954C50.3394 38.1877 50.3398 38.1787 50.3396 38.171C50.3391 38.1532 50.3382 38.1367 50.3376 38.1192C50.3372 38.1022 50.3372 38.0846 50.3367 38.0675C50.3363 38.0539 50.3352 38.0419 50.3347 38.0284C50.3308 37.9227 50.3265 37.8212 50.321 37.7267C50.3188 37.6871 50.3158 37.6479 50.3132 37.6095C50.2907 37.2682 50.2603 36.9962 50.2341 36.7638L50.2326 36.7504C50.2281 36.7096 50.222 36.6552 50.2136 36.5909C50.1948 36.4425 50.157 36.1747 50.0925 35.8204C50.0529 35.6015 50.003 35.3552 49.9431 35.089L62.4978 27.7941C62.5037 27.7907 62.5096 27.7868 62.5154 27.7833C62.5285 27.7754 62.54 27.767 62.5525 27.7589C62.5701 27.7474 62.5889 27.7356 62.6052 27.7237C62.6195 27.7134 62.632 27.7022 62.6453 27.6915C62.6604 27.6794 62.6764 27.6679 62.6902 27.6554L62.699 27.6476C62.7044 27.6425 62.7084 27.637 62.7136 27.6319C62.7359 27.6103 62.7566 27.588 62.7751 27.5655C62.7791 27.5607 62.785 27.5567 62.7888 27.5519C62.7926 27.5471 62.7951 27.542 62.7986 27.5372C62.8111 27.5205 62.8223 27.5034 62.8328 27.4864C62.8371 27.4793 62.8424 27.4721 62.8464 27.465C62.8484 27.4615 62.8494 27.4578 62.8513 27.4542C62.8593 27.4393 62.8662 27.4244 62.8728 27.4093C62.8766 27.4005 62.8822 27.3918 62.8855 27.3829C62.8866 27.3801 62.8865 27.377 62.8875 27.3741C62.8925 27.36 62.8964 27.3455 62.9001 27.3312C62.9027 27.3215 62.907 27.3115 62.9089 27.3019C62.9094 27.2994 62.9085 27.2965 62.9089 27.2941C62.9117 27.279 62.9134 27.2633 62.9148 27.2482C62.9157 27.2384 62.9174 27.2286 62.9177 27.2189C62.9178 27.2147 62.9177 27.2103 62.9177 27.2062L62.9226 25.7257C62.9233 25.5097 62.7808 25.2932 62.4949 25.128L32.9265 8.05675Z" stroke="#374874" stroke-width="2" mask="url(#path-15-outside-1_405_9719)"/>
</svg>
