<svg width="64" height="64" fill="none" xmlns="http://www.w3.org/2000/svg">
  <path d="M31 .577a2 2 0 0 1 2 0l25.713 14.846a2 2 0 0 1 1 1.732v29.69a2 2 0 0 1-1 1.732L33 63.423a2 2 0 0 1-2 0L5.287 48.577a2 2 0 0 1-1-1.732v-29.69a2 2 0 0 1 1-1.732L31 .577Z" fill="#DBFBE1"/>
  <path fill-rule="evenodd" clip-rule="evenodd" d="M33.55 17.906a2.833 2.833 0 0 0-4.154 0L27.822 19.6a2.836 2.836 0 0 1-2.173.904l-2.304-.078a2.85 2.85 0 0 0-2.937 2.952l.078 2.315c.028.825-.3 1.62-.9 2.184l-1.684 1.582a2.867 2.867 0 0 0 0 4.174l1.684 1.582c.6.564.928 1.36.9 2.184l-.078 2.315a2.85 2.85 0 0 0 2.937 2.952l2.304-.078a2.836 2.836 0 0 1 2.173.905l1.574 1.692a2.833 2.833 0 0 0 4.154 0l1.574-1.692a2.836 2.836 0 0 1 2.173-.905l2.304.078a2.85 2.85 0 0 0 2.938-2.952l-.078-2.315c-.028-.824.3-1.62.9-2.184l1.684-1.581a2.867 2.867 0 0 0 0-4.175l-1.684-1.582a2.864 2.864 0 0 1-.9-2.184l.078-2.315a2.85 2.85 0 0 0-2.938-2.952l-2.304.078a2.836 2.836 0 0 1-2.173-.904l-1.574-1.693Zm-2.077 21.951c4.568 0 8.27-3.72 8.27-8.311 0-4.59-3.702-8.312-8.27-8.312-4.567 0-8.27 3.722-8.27 8.312s3.703 8.311 8.27 8.311Z" fill="#1AD3BB"/>
  <path fill-rule="evenodd" clip-rule="evenodd" d="m31.154 29.739 11.247-11.356 2.938 2.969c.81.82.81 2.149 0 2.969L32.623 37.16c-.811.82-2.126.82-2.937 0l-6.437-6.496a8.312 8.312 0 0 1 3.172-5.702l4.733 4.776Z" fill="#1A6F66"/>
  <path fill-rule="evenodd" clip-rule="evenodd" d="m40.317 20.492-4.162 4.203a8.318 8.318 0 0 1 3.464 5.407l3.096-3.127a2.868 2.868 0 0 1-.254-1.282l.078-2.315a2.856 2.856 0 0 0-2.222-2.886Z" fill="#1A6F66"/>
</svg>
