<svg xmlns="http://www.w3.org/2000/svg" xmlns:xlink="http://www.w3.org/1999/xlink" viewBox="0 0 70 70"><defs><mask id="a" x="0" y="0" width="70" height="70" maskUnits="userSpaceOnUse"><path d="M4,0H65c4,0,5,1,5,5V65c0,4-1,5-5,5H4c-3,0-4-1-4-5V5C0,1,1,0,4,0Z" style="fill:#fff;fill-rule:evenodd"/></mask><linearGradient id="b" x1="-246.07" y1="85.8" x2="-247.07" y2="84.8" gradientTransform="matrix(70, 0, 0, -70, 17294.9, 6006)" gradientUnits="userSpaceOnUse"><stop offset="0" stop-color="#7cc098"/><stop offset="1" stop-color="#5f8a71"/></linearGradient></defs><g style="mask:url(#a)"><path d="M0,0H70V70H0Z" style="fill-rule:evenodd;fill:url(#b)"/><path d="M4,1H65c2.67,0,4.33.67,5,2V0H0V3C.67,1.67,2,1,4,1Z" style="fill:#fff;fill-opacity:0.382999986410141;fill-rule:evenodd"/><path d="M32.73,69,4,69a3.66,3.66,0,0,1-4-4V43.33l9-9,13.35.32,1.25,3,3.21-3.22,7-1.16,4.31-4.33L40,31.82l3.4-3.39,1.49,2.81,3.56-3.56.1,2.47L44.9,33.77l-.14,3.32,3.4-3.41,1.38,3.91,3.77-3.82,6.42,1.33L60,38.26l-2.41,2.42,1.84,1.55Z" style="fill:#393939;fill-rule:evenodd;isolation:isolate;opacity:0.324000000953674"/><path d="M4,69H65c2.67,0,4.33-1,5-3v4H0V66A3.92,3.92,0,0,0,4,69Z" style="fill-opacity:0.382999986410141;fill-rule:evenodd"/></g><g style="opacity:0.4"><path d="M28.86,34.25a5.34,5.34,0,1,0,5.34,5.34A5.35,5.35,0,0,0,28.86,34.25Zm0,8.16a2.81,2.81,0,1,1,2.81-2.81A2.81,2.81,0,0,1,28.86,42.41Z" style="fill-rule:evenodd"/><path d="M46.63,32.4a1.67,1.67,0,1,0,0-3.33,1.67,1.67,0,0,0,0,3.33Z"/><path d="M18,34.25h-.41a4.66,4.66,0,0,0-3.39,1.46,4.63,4.63,0,0,0-8,3.17v5.85h2.5V38.94a2.2,2.2,0,0,1,1.9-2.14h.21a2.11,2.11,0,0,1,2.11,2.1v5.83h2.55V38.93a2.22,2.22,0,0,1,1.9-2.14h.21a2.11,2.11,0,0,1,2.11,2.09v5.85h2.56V38.94A4.71,4.71,0,0,0,21,35.77a4.53,4.53,0,0,0-3-1.52Z" style="fill-rule:evenodd"/><path d="M38.14,29.32H35.58V44.73h2.56Z"/><path d="M43,29.32H40.47V44.73H43Z"/><path d="M47.91,34.5H45.36V44.72h2.55Z"/><path d="M59.85,39.35a5.09,5.09,0,0,0-1.48-3.6,5,5,0,0,0-3.58-1.51h-.06a5.35,5.35,0,0,0,.07,10.69h0a5.38,5.38,0,0,0,4.59-2.62l.13-.21-2.11-1-.11.18a2.84,2.84,0,0,1-2.46,1.38,2.87,2.87,0,0,1-2.77-2.09h7.77Zm-5.16-2.79a2.75,2.75,0,0,1,2.58,1.85H52.12A2.74,2.74,0,0,1,54.69,36.56Z" style="fill-rule:evenodd"/></g><path d="M30.86,32.25a5.34,5.34,0,1,0,5.35,5.34A5.35,5.35,0,0,0,30.86,32.25Zm0,8.16a2.81,2.81,0,1,1,2.81-2.81A2.81,2.81,0,0,1,30.86,40.41Z" style="fill:#fff;fill-rule:evenodd"/><path d="M48.64,30.4A1.67,1.67,0,1,0,47,28.73,1.66,1.66,0,0,0,48.64,30.4Z" style="fill:#fff"/><path d="M20,32.25h-.41a4.62,4.62,0,0,0-3.39,1.46,4.63,4.63,0,0,0-8,3.17v5.85h2.5V36.94a2.21,2.21,0,0,1,1.9-2.14h.21a2.11,2.11,0,0,1,2.11,2.1v5.83h2.55V36.93a2.21,2.21,0,0,1,1.9-2.14h.22a2.12,2.12,0,0,1,2.11,2.09v5.85h2.55V36.94A4.71,4.71,0,0,0,23,33.77a4.53,4.53,0,0,0-3-1.52Z" style="fill:#fff;fill-rule:evenodd"/><path d="M40.14,27.32H37.58V42.73h2.56Z" style="fill:#fff"/><path d="M45,27.32H42.47V42.73H45Z" style="fill:#fff"/><path d="M49.91,32.5H47.36V42.72h2.55Z" style="fill:#fff"/><path d="M61.86,37.35a5.1,5.1,0,0,0-1.49-3.6,5,5,0,0,0-3.57-1.51h-.07a5.35,5.35,0,0,0,.07,10.69h0a5.41,5.41,0,0,0,4.6-2.62l.12-.21-2.11-1-.11.17a2.83,2.83,0,0,1-2.46,1.39,2.87,2.87,0,0,1-2.77-2.1h7.78ZM56.7,34.56a2.73,2.73,0,0,1,2.57,1.85H54.12A2.73,2.73,0,0,1,56.7,34.56Z" style="fill:#fff;fill-rule:evenodd"/></svg>