<svg id="icons" enable-background="new 0 0 64 64" height="512" viewBox="0 0 64 64" width="512" xmlns="http://www.w3.org/2000/svg"><g><g><g><path d="m63 41.5v5l-31 15v-5z" fill="#844747"/></g><g><path d="m32 56.5v5l-31-15v-5z" fill="#965353"/></g><g><path d="m17.88 33.34c.08.47.12.87.12 1.16 0 1.66-1.34 3-3 3-1.12 0-2.09-.61-2.6-1.51-.25-.44-.4-.95-.4-1.49 0-1.66 1.34-7 3-7 1.37 0 2.52 3.63 2.88 5.84z" fill="#a0d468"/></g><g><path d="m42 7.5-10 5-10-5 10-5z" fill="#ccd1d9"/></g><g><path d="m22 41.5v-10.16-23.84l10 5v34z" fill="#f5f7fa"/></g><g><path d="m42 31.34v10.16l-10 5v-34l10-5z" fill="#e6e9ed"/></g><g><path d="m49 27.5c1.66 0 3 5.34 3 7 0 .54-.15 1.05-.4 1.49-.51.9-1.48 1.51-2.6 1.51-1.66 0-3-1.34-3-3 0-.29.04-.7.13-1.17.35-2.21 1.5-5.83 2.87-5.83z" fill="#a0d468"/></g><g><path d="m15 37.5c1.66 0 3-1.34 3-3 0-.29-.04-.69-.12-1.16l4.12-2v10.16l10 5 10-5v-10.16l4.11 1.99h.02c-.09.47-.13.88-.13 1.17 0 1.66 1.34 3 3 3 1.12 0 2.09-.61 2.6-1.51l11.4 5.51-31 15-31-15 11.4-5.51c.51.9 1.48 1.51 2.6 1.51z" fill="#8cc152"/></g></g><g><path d="m42.03 55.164c-.553 0-1.005-.447-1.005-1s.442-1 .994-1h.011c.552 0 1 .447 1 1s-.448 1-1 1z" fill="#773e3e"/></g><g><path d="m57.03 47.906c-.553 0-1.005-.447-1.005-1s.442-1 .994-1h.011c.552 0 1 .447 1 1s-.448 1-1 1z" fill="#773e3e"/></g><g><path d="m52.03 50.325c-.553 0-1.005-.447-1.005-1s.442-1 .994-1h.011c.552 0 1 .447 1 1s-.448 1-1 1z" fill="#773e3e"/></g><g><path d="m47.03 52.745c-.553 0-1.005-.447-1.005-1s.442-1 .994-1h.011c.552 0 1 .447 1 1s-.448 1-1 1z" fill="#773e3e"/></g><g><path d="m37.03 57.584c-.553 0-1.005-.447-1.005-1s.442-1 .994-1h.011c.552 0 1 .447 1 1s-.448 1-1 1z" fill="#773e3e"/></g><g><path d="m22.03 55.164c-.553 0-1.005-.447-1.005-1s.442-1 .994-1h.011c.552 0 1 .447 1 1s-.448 1-1 1z" fill="#844747"/></g><g><path d="m7.03 47.906c-.553 0-1.005-.447-1.005-1s.442-1 .994-1h.011c.552 0 1 .447 1 1s-.448 1-1 1z" fill="#844747"/></g><g><path d="m12.03 50.325c-.553 0-1.005-.447-1.005-1s.442-1 .994-1h.011c.552 0 1 .447 1 1s-.448 1-1 1z" fill="#844747"/></g><g><path d="m17.03 52.745c-.553 0-1.005-.447-1.005-1s.442-1 .994-1h.011c.552 0 1 .447 1 1s-.448 1-1 1z" fill="#844747"/></g><g><path d="m27.03 57.584c-.553 0-1.005-.447-1.005-1s.442-1 .994-1h.011c.552 0 1 .447 1 1s-.448 1-1 1z" fill="#844747"/></g><g><path d="m28.998 41c-.15 0-.303-.034-.446-.105l-4.001-2.001c-.494-.247-.694-.848-.447-1.342.248-.494.848-.692 1.342-.447l4.001 2.001c.494.247.694.848.447 1.342-.176.35-.529.552-.896.552z" fill="#ccd1d9"/></g><g><path d="m28.998 37c-.15 0-.303-.034-.446-.105l-4.001-2.001c-.494-.247-.694-.848-.447-1.342.248-.494.848-.692 1.342-.447l4.001 2.001c.494.247.694.848.447 1.342-.176.35-.529.552-.896.552z" fill="#ccd1d9"/></g><g><path d="m28.998 33c-.15 0-.303-.034-.446-.105l-4.001-2.001c-.494-.247-.694-.848-.447-1.342.248-.494.848-.693 1.342-.447l4.001 2.001c.494.247.694.848.447 1.342-.176.35-.529.552-.896.552z" fill="#ccd1d9"/></g><g><path d="m28.998 29c-.15 0-.303-.034-.446-.105l-4.001-2.001c-.494-.247-.694-.848-.447-1.342.248-.495.848-.692 1.342-.447l4.001 2.001c.494.247.694.848.447 1.342-.176.35-.529.552-.896.552z" fill="#ccd1d9"/></g><g><path d="m28.998 25c-.15 0-.303-.034-.446-.105l-4.001-2.001c-.494-.247-.694-.848-.447-1.342.248-.494.848-.692 1.342-.447l4.001 2.001c.494.247.694.848.447 1.342-.176.35-.529.552-.896.552z" fill="#ccd1d9"/></g><g><path d="m28.998 21c-.15 0-.303-.034-.446-.105l-4.001-2.001c-.494-.247-.694-.848-.447-1.342.248-.494.848-.693 1.342-.447l4.001 2.001c.494.247.694.848.447 1.342-.176.35-.529.552-.896.552z" fill="#ccd1d9"/></g><g><path d="m28.998 17c-.15 0-.303-.034-.446-.105l-4.001-2.001c-.494-.247-.694-.848-.447-1.342.248-.494.848-.693 1.342-.447l4.001 2.001c.494.247.694.848.447 1.342-.176.35-.529.552-.896.552z" fill="#ccd1d9"/></g><g><path d="m35.002 41c-.367 0-.72-.202-.896-.553-.247-.494-.047-1.095.447-1.342l4.001-2.001c.494-.245 1.095-.047 1.342.447s.047 1.095-.447 1.342l-4.001 2.001c-.143.072-.296.106-.446.106z" fill="#ccd1d9"/></g><g><path d="m35.002 37c-.367 0-.72-.202-.896-.553-.247-.494-.047-1.095.447-1.342l4.001-2.001c.494-.245 1.095-.047 1.342.447s.047 1.095-.447 1.342l-4.001 2.001c-.143.072-.296.106-.446.106z" fill="#ccd1d9"/></g><g><path d="m35.002 33c-.367 0-.72-.202-.896-.553-.247-.494-.047-1.095.447-1.342l4.001-2.001c.494-.246 1.095-.047 1.342.447s.047 1.095-.447 1.342l-4.001 2.001c-.143.072-.296.106-.446.106z" fill="#ccd1d9"/></g><g><path d="m35.002 29c-.367 0-.72-.202-.896-.553-.247-.494-.047-1.095.447-1.342l4.001-2.001c.494-.245 1.095-.048 1.342.447.247.494.047 1.095-.447 1.342l-4.001 2.001c-.143.072-.296.106-.446.106z" fill="#ccd1d9"/></g><g><path d="m35.002 25c-.367 0-.72-.202-.896-.553-.247-.494-.047-1.095.447-1.342l4.001-2.001c.494-.245 1.095-.047 1.342.447s.047 1.095-.447 1.342l-4.001 2.001c-.143.072-.296.106-.446.106z" fill="#ccd1d9"/></g><g><path d="m35.002 21c-.367 0-.72-.202-.896-.553-.247-.494-.047-1.095.447-1.342l4.001-2.001c.494-.246 1.095-.047 1.342.447s.047 1.095-.447 1.342l-4.001 2.001c-.143.072-.296.106-.446.106z" fill="#ccd1d9"/></g><g><path d="m35.002 17c-.367 0-.72-.202-.896-.553-.247-.494-.047-1.095.447-1.342l4.001-2.001c.494-.246 1.095-.047 1.342.447s.047 1.095-.447 1.342l-4.001 2.001c-.143.072-.296.106-.446.106z" fill="#ccd1d9"/></g><g><path d="m49 38.5c-2.206 0-4-1.794-4-4 0-1.141 1.152-8.004 4-8.004s4 6.863 4 8.004c0 2.206-1.794 4-4 4zm0-9.982c-.79.485-2 4.333-2 5.982 0 1.103.897 2 2 2s2-.897 2-2c0-1.649-1.21-5.497-2-5.982z" fill="#a0d468"/></g><g><path d="m49 42.497c-.553 0-1-.447-1-1v-6.997c0-.553.447-1 1-1s1 .447 1 1v6.997c0 .553-.447 1-1 1z" fill="#965353"/></g><g><path d="m15 38.5c-2.206 0-4-1.794-4-4 0-1.141 1.152-8.004 4-8.004s4 6.863 4 8.004c0 2.206-1.794 4-4 4zm0-9.982c-.79.485-2 4.333-2 5.982 0 1.103.897 2 2 2s2-.897 2-2c0-1.649-1.21-5.497-2-5.982z" fill="#a0d468"/></g><g><path d="m15 42.497c-.553 0-1-.447-1-1v-6.997c0-.553.447-1 1-1s1 .447 1 1v6.997c0 .553-.447 1-1 1z" fill="#965353"/></g></g></svg>