<svg id="Layer_35" enable-background="new 0 0 64 64" height="512" viewBox="0 0 64 64" width="512" xmlns="http://www.w3.org/2000/svg"><path d="m48 16.49v9.51c0-1.1-.45-2.1-1.17-2.83-.73-.72-1.73-1.17-2.83-1.17 0-2.21-1.79-4-4-4h-5c-1.95 0-3.84-.63-5.4-1.8-1.04-.78-2.3-1.2-3.6-1.2-3.31 0-6 2.69-6 6v1c-2.21 0-4 1.79-4 4v-12.9c0-2.97 2.09-5.52 5-6.1l.76-.76c2.71-2.71 6.4-4.24 10.24-4.24h1.51c8 0 14.49 6.49 14.49 14.49z" fill="#656d78"/><path d="m16 62h-10c0-6.05 3.66-11.5 9.26-13.79l4.74-1.94v3.73l4 2-2 3 10 6v1z" fill="#5d9cec"/><path d="m48 62h-16v-1l.44-.26 9.56-5.74-2-3 4-2v-3.73l4.74 1.94c2.8 1.15 5.12 3.08 6.73 5.49 1.61 2.4 2.53 5.28 2.53 8.3z" fill="#5d9cec"/><path d="m32 60 .44.74-.44.26-10-6 2-3-4-2v-3.73l4-1.63v3.36l3.02 4.53z" fill="#75b1f2"/><path d="m40 52 2 3-9.56 5.74-.44-.74 4.98-7.47 3.02-4.53v-3.36l4 1.63v3.73z" fill="#75b1f2"/><path d="m36.98 52.53-4.98 7.47-4.98-7.47.63-.42 4.35-3.11 4.35 3.11z" fill="#ffc729"/><path d="m40 44.64v3.36l-3.02 4.53-.63-.42-4.35-3.11 5.54-5.54c.29.23.61.42.95.56z" fill="#fcd770"/><path d="m32 49-4.35 3.11-.63.42-3.02-4.53v-3.36l1.51-.62c.34-.14.66-.33.95-.56z" fill="#fcd770"/><g fill="#f0d0b4"><path d="m37.54 43.46-5.54 5.54-5.54-5.54c.96-.74 1.54-1.89 1.54-3.15v-1.24c1.23.8 2.57 1.45 4 1.93 1.43-.48 2.77-1.13 4-1.93v1.24c0 1.26.58 2.41 1.54 3.15z"/><path d="m46.83 23.17c.72.73 1.17 1.73 1.17 2.83 0 2.21-1.79 4-4 4h-.94c.61-1.79.94-3.69.94-5.65v-2.35c1.1 0 2.1.45 2.83 1.17z"/><path d="m44 22v2.35c0 1.96-.33 3.86-.94 5.65-1.26 3.72-3.74 6.92-7.06 9.07-1.23.8-2.57 1.45-4 1.93-1.43-.48-2.77-1.13-4-1.93-1.84-1.19-3.42-2.71-4.69-4.46-1.01-1.4-1.81-2.96-2.37-4.61-.61-1.79-.94-3.69-.94-5.65v-2.35-1c0-3.31 2.69-6 6-6 1.3 0 2.56.42 3.6 1.2 1.56 1.17 3.45 1.8 5.4 1.8h5c2.21 0 4 1.79 4 4z"/><path d="m20.94 30h-.94c-1.1 0-2.1-.45-2.83-1.17-.72-.73-1.17-1.73-1.17-2.83 0-2.21 1.79-4 4-4v2.35c0 1.96.33 3.86.94 5.65z"/></g><path d="m49.123 47.288-10.259-4.197c-1.132-.463-1.864-1.553-1.864-2.777v-.718c3.077-2.126 5.427-5.126 6.759-8.596h.241c2.757 0 5-2.243 5-5v-9.515c0-8.539-6.947-15.485-15.485-15.485h-1.515c-4.136 0-8.024 1.61-10.95 4.535l-.552.553c-3.204.786-5.498 3.685-5.498 7.011v12.901c0 2.757 2.243 5 5 5h.241c1.332 3.471 3.682 6.47 6.759 8.596v.718c0 1.224-.732 2.313-1.864 2.776l-10.259 4.197c-6 2.456-9.877 8.231-9.877 14.713v1h54v-1c0-6.482-3.877-12.257-9.877-14.712zm-28.123-.344 2-.818v2.177l2.079 3.119-4.079-2.04zm4.333 4.859 4.479 6.718-6.399-3.84zm6.667-1.574 3.599 2.57-3.599 5.398-3.599-5.398zm6.667 1.574 1.92 2.879-6.399 3.84zm.254-.381 2.079-3.119v-2.177l2 .818v2.438zm.079-6.114v2.39l-2.291 3.437-3.167-2.262 4.141-4.141c.14.073.276.151.424.212zm5.414-16.35c.379-1.482.586-3.025.586-4.607v-1.166c1.161.414 2 1.514 2 2.816 0 1.511-1.129 2.753-2.586 2.957zm-23.218-20.978.297-.06.971-.972c2.548-2.546 5.934-3.948 9.536-3.948h1.515c7.436 0 13.485 6.05 13.485 13.485v5.54c-.608-.46-1.314-.79-2.092-.934-.429-2.323-2.462-4.091-4.908-4.091h-5c-1.719 0-3.424-.568-4.8-1.6-1.203-.903-2.695-1.4-4.2-1.4-3.86 0-7 3.141-7 7v.101c-.743.152-1.416.482-2 .924v-8.927c0-2.479 1.765-4.631 4.196-5.118zm-4.196 18.02c0-1.302.839-2.402 2-2.816v1.166c0 1.582.207 3.126.586 4.608-1.457-.204-2.586-1.446-2.586-2.958zm4-1.649v-3.351c0-2.757 2.243-5 5-5 1.075 0 2.141.355 3 1 1.72 1.29 3.851 2 6 2h5c1.654 0 3 1.346 3 3v2.351c0 7.023-4.406 13.247-11 15.592-6.594-2.345-11-8.569-11-15.592zm10.684 17.597.316.106.316-.105c.947-.316 1.855-.702 2.719-1.152.095.995.479 1.914 1.089 2.664l-4.124 4.125-4.125-4.125c.61-.751.994-1.67 1.089-2.665.864.45 1.773.837 2.72 1.152zm-5.79 2.994c.148-.061.284-.138.423-.211l4.141 4.141-3.167 2.262-2.291-3.437v-2.389zm-10.26 4.198 3.366-1.377v2.856l3.54 1.77-1.953 2.931 9.47 5.68h-13.057v-6h-2v6h-7.965c.373-5.255 3.665-9.842 8.599-11.86zm33.366 11.86v-6h-2v6h-13.057l9.47-5.682-1.953-2.931 3.54-1.77v-2.856l3.366 1.377c4.934 2.019 8.226 6.605 8.599 11.86h-7.965z"/><circle cx="38" cy="23" r="1"/><circle cx="26" cy="23" r="1"/><path d="m36 32h-2c0 1.103-.897 2-2 2s-2-.897-2-2h-2c0 2.206 1.794 4 4 4s4-1.794 4-4z"/><path d="m42.653 15.249 1.938-.498c-.191-.741-.45-1.471-.771-2.169l-1.817.836c.271.589.49 1.205.65 1.831z"/><path d="m40.937 11.584 1.623-1.168c-2.44-3.392-6.388-5.416-10.56-5.416v2c3.531 0 6.871 1.714 8.937 4.584z"/></svg>