<svg id="Layer_1" enable-background="new 0 0 128 128" height="512" viewBox="0 0 128 128" width="512" xmlns="http://www.w3.org/2000/svg"><g><g><g><path d="m24.534 74.251h73c.552 0 1-.448 1-1v-2.948c0-2.761-2.239-5-5-5h-.775c.099-.294.166-.604.166-.932v-.328c0-.742-.286-1.413-.742-1.93.456-.517.742-1.188.742-1.93v-.328c0-.328-.066-.638-.166-.933h.082c1.62 0 2.933-1.313 2.933-2.933v-.327c0-1.62-1.313-2.933-2.933-2.933h-1.346c.099-.293.165-.602.165-.928v-.328c0-1.62-1.313-2.933-2.933-2.933h-.111c2.873-1.665 4.815-4.766 4.815-8.319 0-.463-.044-.915-.108-1.361h.697c1.363 0 2.659-.787 3.134-2.064.49-1.316.089-2.737-1.006-3.603l-10.713-8.457v-9.555c0-1.753-1.421-3.175-3.175-3.175h-4.758c-1.753 0-3.175 1.421-3.175 3.175v.786l-11.365-8.971c-1.158-.914-2.776-.913-3.934 0l-33.06 26.101c-1.069.844-1.597 2.264-1.179 3.56.431 1.336 1.626 2.205 3.023 2.205h6.357v26.441h-5.635c-2.761 0-5 2.239-5 5v2.948c0 .552.447 1 1 1z" fill="#e6e7e8"/></g><g><path d="m120.7 68.653c-2.452-2.582-6.412-2.865-9.211-.662l-17.877 14.088c-1.217-1.59-3.093-2.54-5.126-2.54h-14.664c-3.643 0-7.261-.52-10.755-1.544l-3.425-1.003c-3.333-.983-6.621-1.341-9.779-1.062-8.722.755-12.35 5.396-14.299 7.891-.432.553-.84 1.075-1.1 1.269-.126.094-1.054.724-6.727 4.405-.775-.896-1.799-1.531-2.978-1.787-1.441-.316-2.914-.046-4.152.751l-8.665 5.575c-2.555 1.644-3.297 5.06-1.654 7.616l13.824 21.506c.797 1.238 2.028 2.093 3.467 2.405.393.086.789.128 1.181.128 1.045 0 2.071-.3 2.971-.879l8.665-5.575c2.555-1.644 3.297-5.06 1.654-7.616l-.842-1.311c4.361-2.678 7.711-4.623 8.279-4.802 2.316-.656 7.327.438 12.633 1.595 5.15 1.123 10.475 2.284 14.899 2.284 5.76 0 10.438-2.932 13.35-5.394 0 0 13.418-11.244 13.838-11.604 7.343-6.258 15.94-13.771 16.024-13.845 1.424-1.239 2.258-2.96 2.348-4.845.087-1.884-.579-3.676-1.879-5.044z" fill="#e6e7e8"/></g></g><g><g><g><g><path d="m91.527 29.979-11.092-8.757v-10.04c0-1.201-.974-2.175-2.175-2.175h-4.758c-1.201 0-2.175.974-2.175 2.175v2.85l-12.984-10.251c-.79-.624-1.905-.624-2.695 0l-33.184 26.198c-1.619 1.278-.715 3.882 1.348 3.882h7.356v28.442h51.655v-28.442h7.356c2.063 0 2.967-2.603 1.348-3.882z" fill="#6dc9f7"/></g><g fill="#d4fbff"><path d="m54.922 30.973h-5.936c-.554 0-1.002.449-1.002 1.002v5.936c0 .554.449 1.002 1.002 1.002h5.936c.554 0 1.002-.449 1.002-1.002v-5.936c0-.553-.449-1.002-1.002-1.002z"/><path d="m65.005 30.973h-5.936c-.554 0-1.002.449-1.002 1.002v5.936c0 .554.449 1.002 1.002 1.002h5.936c.554 0 1.002-.449 1.002-1.002v-5.936c0-.553-.448-1.002-1.002-1.002z"/><path d="m54.922 40.543h-5.936c-.554 0-1.002.449-1.002 1.002v5.936c0 .554.449 1.002 1.002 1.002h5.936c.554 0 1.002-.449 1.002-1.002v-5.936c0-.553-.449-1.002-1.002-1.002z"/><path d="m65.005 40.543h-5.936c-.554 0-1.002.449-1.002 1.002v5.936c0 .554.449 1.002 1.002 1.002h5.936c.554 0 1.002-.449 1.002-1.002v-5.936c0-.553-.448-1.002-1.002-1.002z"/></g><path d="m89.534 62.303h-65c-2.209 0-4 1.791-4 4v2.948h73v-2.948c0-2.209-1.791-4-4-4z" fill="#0089ef"/></g><g><g fill="#fa759e"><path d="m85.993 58.11h-17.652c-1.067 0-1.932.865-1.932 1.932v.328c0 1.067.865 1.932 1.932 1.932h17.652c1.067 0 1.932-.865 1.932-1.932v-.328c0-1.066-.865-1.932-1.932-1.932z"/><path d="m85.993 53.923h-17.652c-1.067 0-1.932.865-1.932 1.932v.328c0 1.067.865 1.932 1.932 1.932h17.652c1.067 0 1.932-.865 1.932-1.932v-.328c0-1.067-.865-1.932-1.932-1.932z"/><path d="m84.727 45.542h-17.652c-1.067 0-1.932.865-1.932 1.932v.328c0 1.067.865 1.932 1.932 1.932h17.652c1.067 0 1.932-.865 1.932-1.932v-.328c0-1.067-.865-1.932-1.932-1.932z"/><path d="m88.84 49.73h-17.651c-1.067 0-1.932.865-1.932 1.932v.328c0 1.067.865 1.932 1.932 1.932h17.651c1.067 0 1.932-.865 1.932-1.932v-.328c0-1.067-.865-1.932-1.932-1.932z"/><circle cx="79.814" cy="36.222" r="8.616"/></g><g><path d="m82.848 36.811c-.147-.285-.352-.52-.615-.707-.263-.186-.581-.345-.956-.475-.261-.091-.551-.174-.855-.254v-2.094c.101.039.193.084.265.144.209.173.387.414.536.724.115.216.223.372.321.467.099.095.243.142.433.142.209 0 .383-.079.522-.237.14-.158.21-.336.21-.534 0-.216-.056-.438-.168-.665s-.289-.444-.531-.651-.547-.372-.914-.497c-.204-.069-.43-.117-.676-.148v-1.135c0-.337-.273-.609-.609-.609s-.609.273-.609.609v1.13c-.387.041-.74.122-1.053.248-.466.188-.821.457-1.067.808-.246.35-.369.751-.369 1.201 0 .473.116.869.349 1.187s.548.57.944.754c.331.154.732.29 1.195.411v2.544c-.109-.027-.211-.061-.298-.106-.22-.114-.39-.258-.511-.433s-.234-.393-.338-.654c-.086-.22-.189-.386-.31-.497-.121-.112-.269-.168-.444-.168-.216 0-.394.072-.534.215s-.21.316-.21.517c0 .347.116.703.349 1.07s.536.66.908.88c.386.224.85.365 1.388.424v1.13c0 .337.273.609.609.609s.609-.273.609-.609v-1.132c.423-.048.806-.145 1.142-.298.492-.224.865-.533 1.12-.928s.383-.84.383-1.336c.005-.412-.069-.762-.216-1.047zm-4.093-1.952c-.157-.086-.279-.188-.369-.307-.089-.119-.134-.261-.134-.425 0-.265.131-.491.394-.679.156-.112.344-.186.558-.231v1.834c-.151-.048-.301-.111-.449-.192zm2.215 4.037c-.158.118-.341.204-.547.261v-2.207c.039.012.081.025.117.037.263.089.477.219.643.388.166.17.249.39.249.662-.001.344-.154.63-.462.859z" fill="#fff"/></g></g></g><g><g><g><g><path d="m115.975 65.342c-2.083-2.192-5.492-2.437-7.867-.566l-18.747 14.774c-.909-1.779-2.739-3.01-4.875-3.01h-14.664c-3.736 0-7.452-.533-11.037-1.584l-3.426-1.004c-3.054-.901-6.242-1.304-9.41-1.025-10.528.911-13.167 7.681-14.886 8.964-.471.352-6.407 4.2-7.561 4.948l12.312 19.154c1.268-.783 8.371-5.156 9.399-5.448 4.86-1.376 18.706 3.84 27.805 3.84 5.517 0 10.02-2.888 12.702-5.155 2.464-2.091 29.854-25.44 29.854-25.44 2.515-2.188 2.697-6.032.401-8.448z" fill="#ffd7e5"/></g><g><path d="m31.063 84.891c1.718-1.284 4.358-8.054 14.886-8.964 3.168-.28 6.356.124 9.41 1.025l3.426 1.004c3.585 1.05 7.301 1.584 11.037 1.584h14.664c2.135 0 3.966 1.231 4.875 3.01l18.747-14.773c2.375-1.872 5.784-1.626 7.867.566.702.739 1.17 1.612 1.412 2.53.499-1.893.043-3.998-1.412-5.53-2.083-2.192-5.492-2.437-7.867-.566l-18.747 14.773c-.909-1.779-2.74-3.01-4.875-3.01h-14.664c-3.736 0-7.452-.533-11.037-1.584l-3.426-1.004c-3.054-.901-6.242-1.304-9.41-1.025-10.528.911-13.167 7.681-14.886 8.964-.471.352-6.407 4.2-7.561 4.948l1.361 2.117c2.156-1.399 5.833-3.791 6.2-4.065z" fill="#fff"/></g></g><path d="m35.854 114.394-8.664 5.575c-2.096 1.349-4.889.742-6.237-1.355l-13.824-21.505c-1.347-2.095-.741-4.886 1.354-6.234l8.664-5.575c2.096-1.349 4.889-.742 6.237 1.355l13.824 21.506c1.347 2.095.741 4.885-1.354 6.233z" fill="#6dc9f7"/></g><g><circle cx="25.286" cy="111.018" fill="#0089ef" r="2.5"/><g fill="#3a2c60"><path d="m49.484 61.303h-6.667c-.552 0-1 .447-1 1s.448 1 1 1h6.667c.552 0 1-.447 1-1s-.448-1-1-1z"/><path d="m20.534 70.25h73c.553 0 1-.447 1-1v-2.947c0-2.757-2.243-5-5-5h-.776c.1-.295.166-.605.166-.933v-.328c0-.742-.286-1.412-.742-1.929.456-.517.742-1.188.742-1.93v-.328c0-.328-.066-.638-.166-.933h.082c1.616 0 2.932-1.315 2.932-2.932v-.328c0-1.617-1.315-2.933-2.932-2.933h-1.346c.099-.293.164-.601.164-.927v-.329c0-1.616-1.315-2.932-2.932-2.932h-.114c2.874-1.665 4.817-4.767 4.817-8.32 0-.463-.044-.915-.108-1.361h.857c1.372 0 2.549-.838 2.999-2.134s.045-2.683-1.032-3.533l-10.712-8.456v-9.556c0-1.751-1.424-3.175-3.175-3.175h-4.758c-1.751 0-3.175 1.424-3.175 3.175v.786l-11.362-8.97c-1.158-.914-2.776-.915-3.935 0l-33.184 26.197c-1.077.851-1.482 2.237-1.032 3.533s1.627 2.134 3 2.134h6.356v26.442h-5.634c-2.757 0-5 2.243-5 5v2.947c0 .553.448 1 1 1zm46.875-9.879v-.328c0-.508.41-.919.916-.928.005 0 .011.002.016.002h17.652c.005 0 .011-.002.016-.002.506.009.916.42.916.928v.328c0 .515-.418.933-.932.933h-17.652c-.514-.001-.932-.419-.932-.933zm19.516-4.516v.328c0 .509-.41.92-.916.929-.005 0-.011-.002-.016-.002h-17.652c-.005 0-.011.002-.016.002-.506-.009-.916-.421-.916-.929v-.328c0-.515.418-.933.932-.933h2.848 14.805c.513 0 .931.418.931.933zm2.847-4.192v.328c0 .514-.418.932-.932.932h-2.848-14.804c-.514 0-.932-.418-.932-.932v-.328c0-.506.406-.914.908-.928h13.563c.017 0 .032-.005.048-.005h4.065c.514 0 .932.418.932.933zm-4.113-4.189v.329c0 .505-.406.913-.908.927h-13.563c-.017 0-.032.005-.048.005h-4.065c-.514 0-.932-.418-.932-.932v-.329c0-.514.418-.932.932-.932h17.652c.514 0 .932.418.932.932zm-5.846-3.636c-4.199 0-7.616-3.417-7.616-7.616s3.417-7.616 7.616-7.616c4.2 0 7.617 3.417 7.617 7.616s-3.417 7.616-7.617 7.616zm-58.279 22.465c0-1.654 1.346-3 3-3h14.533c.552 0 1-.447 1-1s-.448-1-1-1h-6.899v-27.442c0-.553-.448-1-1-1h-7.356c-.775 0-1.045-.604-1.11-.789-.064-.186-.227-.827.382-1.308l33.183-26.197c.429-.34 1.027-.34 1.456 0l12.983 10.25c.303.237.712.282 1.057.114.345-.167.563-.517.563-.899v-2.85c0-.647.527-1.175 1.175-1.175h4.758c.647 0 1.175.527 1.175 1.175v10.04c0 .306.141.596.381.785l11.092 8.757c.609.48.446 1.122.382 1.307-.063.186-.334.79-1.109.79h-1.367c-1.367-3.647-4.88-6.255-8.999-6.255-5.303 0-9.616 4.313-9.616 9.616 0 3.554 1.942 6.656 4.816 8.32h-7.939c-1.617 0-2.932 1.315-2.932 2.932v.329c0 1.616 1.315 2.932 2.932 2.932h1.346c-.099.293-.165.602-.165.928v.328c0 .328.066.637.166.932h-.082c-1.616 0-2.932 1.315-2.932 2.933v.328c0 .742.286 1.413.742 1.93-.456.517-.742 1.188-.742 1.929v.328c0 .328.066.638.166.933h-12.298c-.552 0-1 .447-1 1s.448 1 1 1h15.065 17.652 3.541c1.654 0 3 1.346 3 3v1.947h-71z"/><path d="m116.7 64.654c-2.452-2.582-6.412-2.867-9.211-.663l-17.877 14.088c-1.217-1.59-3.092-2.539-5.126-2.539h-14.664c-3.64 0-7.258-.52-10.756-1.544l-3.424-1.003c-3.333-.983-6.622-1.344-9.779-1.063-8.724.755-12.351 5.397-14.3 7.893-.432.553-.839 1.074-1.097 1.267-.316.236-3.894 2.568-6.729 4.406-.775-.896-1.799-1.531-2.978-1.787-1.438-.31-2.914-.046-4.152.752l-8.665 5.574c-2.554 1.645-3.296 5.061-1.654 7.616l13.824 21.506c.796 1.238 2.027 2.093 3.467 2.405.393.086.788.128 1.181.128 1.046 0 2.071-.3 2.972-.879l8.664-5.575c2.555-1.644 3.297-5.06 1.654-7.615l-.842-1.311c4.359-2.679 7.709-4.624 8.279-4.803 2.315-.65 7.326.438 12.632 1.595 5.15 1.123 10.477 2.284 14.9 2.284 5.76 0 10.438-2.932 13.35-5.393 2.463-2.091 29.854-25.442 29.862-25.448 1.424-1.239 2.258-2.96 2.348-4.846.088-1.885-.578-3.677-1.879-5.045zm-81.387 48.899-8.664 5.575c-.789.508-1.727.675-2.646.479-.917-.199-1.701-.743-2.208-1.533l-13.825-21.506c-1.046-1.628-.574-3.805 1.054-4.853l8.665-5.574c.573-.369 1.227-.56 1.893-.56.25 0 .502.026.752.081.917.199 1.701.743 2.208 1.533l13.824 21.506c1.048 1.629.575 3.804-1.053 4.852zm79.613-40.524s-27.39 23.348-29.851 25.438c-2.655 2.244-6.901 4.919-12.057 4.919-4.209 0-9.427-1.138-14.475-2.238-5.798-1.264-10.806-2.357-13.603-1.564-.963.273-5.617 3.077-8.816 5.044l-11.242-17.492c1.89-1.226 6.339-4.115 6.78-4.444.472-.353.916-.92 1.477-1.639 1.885-2.412 5.04-6.451 12.898-7.131 2.91-.256 5.949.076 9.041.989l3.426 1.004c3.681 1.077 7.488 1.624 11.318 1.624h14.664c1.68 0 3.207.944 3.984 2.464.321.633.484 1.316.484 2.03 0 2.478-2.016 4.493-4.494 4.493h-26.156c-.552 0-1 .447-1 1s.448 1 1 1h26.156c3.581 0 6.494-2.913 6.494-6.493 0-.751-.129-1.478-.375-2.171l18.149-14.302c1.982-1.562 4.786-1.356 6.523.47.92.969 1.393 2.238 1.329 3.573s-.654 2.555-1.654 3.426z"/><path d="m25.286 107.518c-1.93 0-3.5 1.57-3.5 3.5s1.57 3.5 3.5 3.5 3.5-1.57 3.5-3.5-1.57-3.5-3.5-3.5zm0 5c-.827 0-1.5-.673-1.5-1.5s.673-1.5 1.5-1.5 1.5.673 1.5 1.5-.673 1.5-1.5 1.5z"/></g></g></g></g></g></svg>