<svg width="70" height="70" viewBox="0 0 70 70" fill="none" xmlns="http://www.w3.org/2000/svg">
<path d="M57 38C57 34.717 56.3534 31.4661 55.097 28.4329C53.8406 25.3998 51.9991 22.6438 49.6777 20.3223C47.3562 18.0009 44.6002 16.1594 41.5671 14.903C38.5339 13.6466 35.283 13 32 13L32 38H57Z" fill="#985184"/>
<path d="M49 42C49 39.2422 48.4568 36.5115 47.4015 33.9636C46.3461 31.4158 44.7993 29.1008 42.8492 27.1508C40.8992 25.2007 38.5842 23.6539 36.0364 22.5985C33.4885 21.5432 30.7578 21 28 21L28 42H49Z" fill="#088BF5"/>
<path d="M48.6155 38.0002C48.3479 36.6208 47.9418 35.2683 47.4015 33.9639C46.3461 31.416 44.7993 29.1011 42.8492 27.1511C40.8992 25.2009 38.5842 23.6541 36.0363 22.5989C34.7319 22.0586 33.3795 21.6523 32 21.3848V38.0002H48.6155Z" fill="#144496"/>
<path d="M16.942 39.4185C17.2134 37.8887 18.3554 36.5953 19.8719 36.1003L32.4329 32C32.4329 32 35.2998 32.3296 36.4817 33.4876C37.6636 34.6455 38 37.4542 38 37.4542L33.7783 49.8362C33.2867 51.2778 32.026 52.3772 30.5165 52.6806L14 56L16.942 39.4185Z" fill="#2EBCFA"/>
</svg>
