<svg xmlns="http://www.w3.org/2000/svg" viewBox="0 0 156 160">
  <defs>
    <radialGradient id="sg" cx="45%" cy="38%" r="62%">
      <stop offset="0%" stop-color="#c0392b"/>
      <stop offset="100%" stop-color="#8b1a1a"/>
    </radialGradient>
  </defs>
  <circle cx="78" cy="80" r="74" fill="#1a7a3c"/>
  <circle cx="78" cy="80" r="69" fill="#c8930a"/>
  <circle cx="78" cy="80" r="65" fill="url(#sg)"/>
  <line x1="6" y1="152" x2="26" y2="28" stroke="#c8930a" stroke-width="3"/>
  <line x1="150" y1="152" x2="130" y2="28" stroke="#c8930a" stroke-width="3"/>
  <ellipse cx="3" cy="118" rx="9" ry="4" fill="#1a7a3c" transform="rotate(-22,3,118)"/>
  <ellipse cx="1" cy="101" rx="9" ry="4" fill="#1a7a3c" transform="rotate(-16,1,101)"/>
  <ellipse cx="3" cy="85" rx="9" ry="4" fill="#1a7a3c" transform="rotate(-10,3,85)"/>
  <ellipse cx="8" cy="70" rx="9" ry="4" fill="#1a7a3c" transform="rotate(-4,8,70)"/>
  <ellipse cx="16" cy="56" rx="9" ry="4" fill="#1a7a3c" transform="rotate(6,16,56)"/>
  <ellipse cx="153" cy="118" rx="9" ry="4" fill="#1a7a3c" transform="rotate(22,153,118)"/>
  <ellipse cx="155" cy="101" rx="9" ry="4" fill="#1a7a3c" transform="rotate(16,155,101)"/>
  <ellipse cx="153" cy="85" rx="9" ry="4" fill="#1a7a3c" transform="rotate(10,153,85)"/>
  <ellipse cx="148" cy="70" rx="9" ry="4" fill="#1a7a3c" transform="rotate(4,148,70)"/>
  <ellipse cx="140" cy="56" rx="9" ry="4" fill="#1a7a3c" transform="rotate(-6,140,56)"/>
  <circle cx="62" cy="55" r="8.5" fill="#f5cba7"/>
  <path d="M50 67 Q62 61 74 67 L76 107 Q62 113 48 107 Z" fill="#27ae60"/>
  <line x1="50" y1="76" x2="40" y2="97" stroke="#27ae60" stroke-width="5.5" stroke-linecap="round"/>
  <line x1="74" y1="76" x2="82" y2="95" stroke="#27ae60" stroke-width="5.5" stroke-linecap="round"/>
  <line x1="56" y1="107" x2="52" y2="128" stroke="#d5b895" stroke-width="5" stroke-linecap="round"/>
  <line x1="68" y1="107" x2="71" y2="128" stroke="#d5b895" stroke-width="5" stroke-linecap="round"/>
  <circle cx="94" cy="55" r="8.5" fill="#f5cba7"/>
  <path d="M82 67 Q94 61 106 67 L108 107 Q94 113 80 107 Z" fill="#c0392b"/>
  <line x1="82" y1="76" x2="74" y2="95" stroke="#c0392b" stroke-width="5.5" stroke-linecap="round"/>
  <line x1="106" y1="76" x2="116" y2="97" stroke="#c0392b" stroke-width="5.5" stroke-linecap="round"/>
  <line x1="86" y1="107" x2="82" y2="128" stroke="#d5b895" stroke-width="5" stroke-linecap="round"/>
  <line x1="102" y1="107" x2="106" y2="128" stroke="#d5b895" stroke-width="5" stroke-linecap="round"/>
  <rect x="40" y="128" width="76" height="3.5" rx="1.5" fill="#7a4010" opacity="0.5"/>
  <path id="ta" d="M 14,80 A 64,64 0 0,1 142,80" fill="none"/>
  <text font-family="Arial,sans-serif" font-size="10" font-weight="bold" fill="white" letter-spacing="0.5">
    <textPath href="#ta" startOffset="4%">MUNICIPIO DE BORBA</textPath>
  </text>
  <path id="ba" d="M 22,98 A 57,57 0 0,0 134,98" fill="none"/>
  <text font-family="Arial,sans-serif" font-size="9.5" fill="#FFD700" letter-spacing="2.2">
    <textPath href="#ba" startOffset="16%">1-01-1756</textPath>
  </text>
  <circle cx="78" cy="8" r="3" fill="#FFD700"/>
</svg>
