<svg id="Layer_1" data-name="Layer 1" xmlns="http://www.w3.org/2000/svg" xmlns:xlink="http://www.w3.org/1999/xlink" viewBox="0 0 70 70">
  <defs>
    <mask id="mask" x="0" y="0" width="70" height="70" maskUnits="userSpaceOnUse">
      <g id="icon-b">
        <path id="icon-a" d="M4,0H65c4,0,5,1,5,5V65c0,4-1,5-5,5H4c-3,0-4-1-4-5V5C0,1,1,0,4,0Z" fill="#fff" fill-rule="evenodd"/>
      </g>
    </mask>
    <linearGradient id="linear-gradient" x1="-1083.78" y1="477.94" x2="-1084.78" y2="476.94" gradientTransform="matrix(70, 0, 0, -70, 75934.61, 33455.73)" gradientUnits="userSpaceOnUse">
      <stop offset="0" stop-color="#da956b"/>
      <stop offset="1" stop-color="#cc7039"/>
    </linearGradient>
  </defs>
  <g mask="url(#mask)">
    <g>
      <path d="M0,0H70V70H0Z" fill-rule="evenodd" fill="url(#linear-gradient)"/>
      <path d="M4,1H65c2.67,0,4.33.67,5,2V0H0V3C.67,1.67,2,1,4,1Z" fill="#fff" fill-opacity="0.38" fill-rule="evenodd"/>
      <path d="M4,69H65c2.67,0,4.33-1,5-3v4H0V66A3.92,3.92,0,0,0,4,69Z" fill-opacity="0.38" fill-rule="evenodd"/>
      <path d="M4,69c-2,0-4-.14-4-4V43.11l7.8-7.77,5.42-2.14L20.45,26l28.1,3.32-8,8L49,36l2.78-2.77,2,0,2.53-2.53L63.6,36l-33,33Z" fill="#393939" fill-rule="evenodd" opacity="0.32" style="isolation: isolate"/>
      <g>
        <g opacity="0.4">
          <path d="M15.32,35.22H7.44a1.94,1.94,0,0,0-1.95,1.56A1.87,1.87,0,0,0,7.34,39h8Z"/>
          <path d="M61.58,36.2l-5.1-3.84a1.5,1.5,0,0,0-2.4,1.2v1.65H50.2a1.75,1.75,0,0,0-.4,0v3.65a1.75,1.75,0,0,0,.4.05h3.88v1.77a1.5,1.5,0,0,0,2.41,1.18L61.59,38A1.19,1.19,0,0,0,61.58,36.2Z"/>
          <path d="M46.5,33.91a.34.34,0,0,1,.55.24V44.69a2.6,2.6,0,0,1-2.72,2.47H20.7A2.61,2.61,0,0,1,18,44.69V34.16a.35.35,0,0,1,.55-.25c1.28.9,3,2,8.76,5.86,1.2.79,3.22,2.46,5.23,2.45s4.09-1.69,5.24-2.45c5.8-3.82,7.48-5,8.75-5.86Z" fill-rule="evenodd"/>
          <path d="M32.52,40.07c-1.32,0-3.22-1.51-4.17-2.14-7.54-5-8.11-5.4-9.85-6.63a1.18,1.18,0,0,1-.52-1v-1a2.61,2.61,0,0,1,2.72-2.48H44.33a2.62,2.62,0,0,1,2.73,2.48v1a1.19,1.19,0,0,1-.53,1c-1.74,1.24-2.31,1.67-9.85,6.64-1,.62-2.85,2.15-4.16,2.13Z" fill-rule="evenodd"/>
        </g>
        <g>
          <path d="M17.33,33.21H9.46a1.93,1.93,0,0,0-2,1.55,1.87,1.87,0,0,0,1.85,2.19h8Z" fill="#fff"/>
          <path d="M63.59,34.18,58.5,30.34a1.5,1.5,0,0,0-2.4,1.2V33.2H52.22a1.75,1.75,0,0,0-.4,0V36.9a1.75,1.75,0,0,0,.4,0H56.1v1.77a1.5,1.5,0,0,0,2.41,1.18L63.6,36A1.18,1.18,0,0,0,63.59,34.18Z" fill="#fff"/>
          <path d="M48.52,31.89a.35.35,0,0,1,.55.24V42.67a2.6,2.6,0,0,1-2.72,2.47H22.72A2.6,2.6,0,0,1,20,42.67V32.14a.34.34,0,0,1,.55-.24c1.28.89,3,2,8.76,5.85,1.19.79,3.21,2.46,5.23,2.45s4.09-1.69,5.24-2.45c5.8-3.82,7.48-5,8.75-5.86Z" fill="#fff" fill-rule="evenodd"/>
          <path d="M34.53,38.05c-1.31,0-3.21-1.51-4.17-2.13-7.53-5-8.1-5.4-9.84-6.64a1.22,1.22,0,0,1-.53-1v-1a2.61,2.61,0,0,1,2.73-2.47H46.35a2.6,2.6,0,0,1,2.72,2.47v1a1.18,1.18,0,0,1-.52,1c-1.74,1.24-2.31,1.67-9.85,6.64-1,.62-2.85,2.15-4.17,2.13Z" fill="#fff" fill-rule="evenodd"/>
        </g>
      </g>
    </g>
  </g>
</svg>
