<svg width="50" height="50" viewBox="0 0 50 50" xmlns="http://www.w3.org/2000/svg"><path d="M3.817 15.97c.416-2.013 2.227-3.714 4.234-3.977l30.247-3.958c2.415-.316 4.115 1.554 3.614 3.977l-5.365 25.976c-.5 2.423-2.972 4.293-5.257 3.977L2.678 38.007C.78 37.744-.33 36.043.087 34.03l3.73-18.06Z" fill="#2EBCFA"/><path d="m15.145 32.038 3.708-13.13c.751-2.66 4.048-3.774 6.372-2.153l23.926 16.687c1.607 1.12.78 3.558-1.206 3.558h-28.84c-2.702 0-4.666-2.461-3.96-4.962Z" fill="#FC868B"/><path d="M38.955 26.33 36.75 37H19.105c-2.702 0-4.666-2.461-3.96-4.962l3.708-13.13c.751-2.66 4.048-3.774 6.372-2.153l13.73 9.576Z" fill="#2D6388"/></svg>