<svg width="50" height="51" viewBox="0 0 50 51" fill="none" xmlns="http://www.w3.org/2000/svg">
<path d="M25.1695 9.41511L21.4793 7.31066C21.0486 6.97454 20.4562 6.94414 19.994 7.23445L3.97861 16.5499C3.46876 16.8731 3.24426 17.5064 3.43526 18.0827L14.2761 47.8159C14.3981 48.1581 14.84 48.8776 15.1791 48.7546C15.217 48.7408 15.2536 48.7235 15.2884 48.7029L46.0708 30.7199C46.5895 30.4159 46.8033 29.7702 46.5701 29.2125L36.4436 5.09402C36.1641 4.42618 35.4011 4.11345 34.7393 4.39548C34.709 4.40841 34.6791 4.4225 34.6499 4.43771L26.5709 9.54004C26.1197 9.77839 25.5723 9.72957 25.1695 9.41511Z" fill="#FBDBD0"/>
<path d="M2.63599 17.8286L13.9643 48.012L13.903 46.7939L3.43528 18.089C3.36427 17.872 3.34981 17.6401 3.39333 17.4158L2.59612 17.1406C2.54854 17.3694 2.56231 17.6069 2.63599 17.8286Z" fill="#C1DBF6"/>
<path d="M20.894 7.04179C20.461 6.70841 19.868 6.68305 19.4087 6.97827L3.17935 16.2937C2.87859 16.4839 2.66792 16.7898 2.59613 17.1406L3.39333 17.4094C3.46266 17.0537 3.67445 16.7427 3.97864 16.5499L19.994 7.23445C20.2717 7.06029 20.6044 6.99829 20.9255 7.06084L20.894 7.04179Z" fill="white"/>
<path d="M33.88 4.40595L25.9856 9.27538C25.7241 9.41395 25.4233 9.45732 25.1339 9.39818L25.1695 9.41936C25.5723 9.73382 26.1197 9.78263 26.5709 9.54427L34.6499 4.43772C34.9841 4.26161 35.3776 4.24075 35.7282 4.38055C35.7282 4.38055 34.673 3.97193 33.88 4.40595Z" fill="white"/>
<path d="M35.9484 8.89639L35.1387 13.5774C35.0787 13.8025 34.9362 13.9963 34.7401 14.1194L14.6003 25.8992C14.3373 26.0681 14.1788 26.3616 14.1807 26.6761L14.6003 48.4679C14.604 48.6725 14.7714 48.8353 14.9741 48.8314C15.0367 48.8303 15.0979 48.813 15.152 48.7812L46.5575 30.432C46.8182 30.2801 46.9783 29.9989 46.9771 29.6952V3.49134C46.9772 2.98505 46.5707 2.57448 46.069 2.57432C45.8982 2.57427 45.7309 2.6228 45.5862 2.71434L36.3554 8.35441C36.1555 8.47523 36.0096 8.66946 35.9484 8.89639Z" fill="white"/>
<path d="M34.0289 13.7066L13.8639 25.4461C13.7726 25.5021 13.6916 25.5737 13.6248 25.6578L14.3779 26.0982L14.4282 26.0368C14.4813 25.9807 14.5413 25.9316 14.6066 25.8907L34.7464 14.1109C34.8415 14.0515 34.9247 13.9747 34.9918 13.8844L34.2743 13.4779C34.2071 13.5687 34.1239 13.6462 34.0289 13.7066Z" fill="white"/>
<path d="M35.2352 8.365L34.4254 13.1646C34.3941 13.2811 34.3406 13.3904 34.2681 13.4864L34.9855 13.8928C35.0533 13.7997 35.1038 13.695 35.1345 13.5837L35.9443 8.90273C35.9596 8.84662 35.9799 8.79205 36.0051 8.73971C36.0477 8.65237 36.1036 8.57234 36.1708 8.50259L35.3946 8.03682C35.3208 8.13466 35.2666 8.24616 35.2352 8.365Z" fill="#C1DBF6"/>
<path d="M44.1869 2.36502C44.1739 2.37052 44.1613 2.37688 44.1491 2.38407L35.6338 7.82513C35.5422 7.88077 35.4612 7.95246 35.3946 8.03684L36.1771 8.48779C36.2291 8.43425 36.2868 8.38668 36.3492 8.34595L42.5065 4.58589L45.5841 2.70588C46.0064 2.43993 46.562 2.56645 46.8303 2.98957C46.4296 2.37561 45.2275 1.87807 44.1869 2.36502Z" fill="white"/>
<path d="M13.4359 26.2252L13.9419 48.012C13.9419 48.1665 14.7954 48.9825 15.1164 48.794C15.1164 48.794 15.1141 48.7739 15.0324 48.7855C14.7157 48.8109 14.5856 48.4573 14.5793 48.1504L14.1786 26.6677C14.1793 26.5121 14.219 26.3591 14.294 26.2231C14.3181 26.1789 14.3462 26.1371 14.3779 26.0982L13.6248 25.6578C13.5011 25.8206 13.4347 26.0202 13.4359 26.2252Z" fill="#C1DBF6"/>
<path d="M25.835 32.6746L29.9644 34.9257L39.9684 16.2255" stroke="#374874" stroke-linecap="round" stroke-linejoin="round"/>
<path d="M45.0857 2.16847C45.8424 2.1685 46.5423 2.54884 46.83 2.98914C46.8279 2.98602 46.8252 2.98361 46.8231 2.98048C46.9203 3.12648 46.9772 3.3022 46.9771 3.49132V29.6952C46.9783 29.9989 46.8182 30.2801 46.5575 30.432C46.5575 30.432 15.0367 48.8303 14.9742 48.8315H14.9738C14.8771 48.8315 13.9419 48.087 13.9419 48.012L2.63599 17.8286C2.5623 17.6069 2.54855 17.3694 2.59613 17.1406C2.66792 16.7898 2.87859 16.4839 3.17935 16.2937L19.4087 6.97829C19.6221 6.84111 19.8644 6.77314 20.1061 6.77316C20.3846 6.77316 20.6622 6.86336 20.894 7.04181L20.9241 7.06006C21.122 7.09775 21.3128 7.18075 21.4793 7.3107L25.1413 9.39906C25.2236 9.41536 25.3068 9.42345 25.3897 9.42345C25.5961 9.42345 25.8007 9.37338 25.9856 9.27541L33.8799 4.40598C34.1329 4.26757 34.5142 4.15629 34.9154 4.15631C35.4915 4.15632 36.1084 4.38586 36.4436 5.09404L37.1764 6.83945C37.1764 6.83945 43.6299 2.7195 44.1869 2.36502C44.4809 2.22745 44.7877 2.16847 45.0857 2.16847ZM45.0858 1.45418C44.6645 1.45416 44.2619 1.54259 43.8892 1.71702L43.8479 1.73634L43.8093 1.76086C43.3663 2.04284 39.1922 4.70739 37.5028 5.78589L37.0953 4.81538L37.0891 4.80064L37.0823 4.78622C36.678 3.93204 35.8882 3.44209 34.9154 3.44202C34.4332 3.44198 33.9328 3.56448 33.5425 3.77809L33.5264 3.7869L33.5108 3.79654L25.6401 8.65136C25.5626 8.68922 25.4764 8.70916 25.3897 8.70916C25.383 8.70916 25.3763 8.70906 25.3696 8.70881L21.8669 6.71131C21.6711 6.56748 21.4483 6.45981 21.2129 6.39486C20.8863 6.17739 20.4983 6.05888 20.1061 6.05886C19.7303 6.05886 19.3639 6.16473 19.045 6.36525L2.82942 15.6728L2.8163 15.6803L2.80353 15.6884C2.3415 15.9806 2.01324 16.4572 1.90297 16.9961C1.83007 17.3468 1.85134 17.714 1.96495 18.0558L1.9692 18.0686L1.97393 18.0812L13.2583 48.2069C13.3311 48.4806 13.5692 48.6815 13.9836 49.0109C14.559 49.4684 14.7355 49.5458 14.9738 49.5458H14.9804L14.9873 49.5456C15.1736 49.5421 15.193 49.531 15.6897 49.2452C15.9245 49.1101 16.267 48.912 16.7018 48.6599C17.5699 48.1566 18.8067 47.4376 20.2891 46.5748C23.2531 44.8497 27.1992 42.5497 31.1434 40.2498C39.0316 35.65 46.9119 31.0503 46.9119 31.0503C47.3907 30.7713 47.6871 30.2509 47.6849 29.6924V3.49132C47.685 3.17686 47.5962 2.87232 47.4279 2.60866L47.4287 2.60814L47.4218 2.59706L47.4174 2.59056C46.9698 1.91064 46.0338 1.45425 45.0858 1.45418Z" fill="#374874"/>
</svg>
