<svg width="50" height="51" viewBox="0 0 50 51" fill="none" xmlns="http://www.w3.org/2000/svg">
<g clip-path="url(#clip0_27_110)">
<path d="M15.1924 49.2554L13.5913 48.3249C13.3832 48.204 13.2541 47.947 13.2531 47.5818L14.8542 48.5123C14.8552 48.8775 14.9843 49.1345 15.1924 49.2554Z" fill="#FBDBD0"/>
<path d="M36.46 1.85818L38.0611 2.78866C37.8505 2.66625 37.5589 2.68353 37.2376 2.86907L35.6364 1.93859C35.9578 1.75306 36.2494 1.7358 36.46 1.85818Z" fill="#FBDBD0"/>
<path d="M14.8541 48.5124L13.253 47.5819L13.1642 16.2452L14.7653 17.1757L14.8541 48.5124Z" fill="#FBDBD0"/>
<path d="M15.9204 15.1767L14.3193 14.2462L35.6364 1.93875L37.2375 2.86923L15.9204 15.1767Z" fill="#FBDBD0"/>
<path d="M37.2376 2.86907C37.8758 2.50061 38.3968 2.7958 38.3989 3.53079L38.4877 34.8675C38.4898 35.6025 37.9722 36.4989 37.334 36.8674L16.0169 49.1748C15.3773 49.5441 14.8563 49.2473 14.8542 48.5123L14.7654 17.1756C14.7633 16.4406 15.2809 15.5458 15.9205 15.1765L37.2376 2.86907Z" fill="white"/>
<path d="M14.7653 17.1757L13.1642 16.2452C13.1621 15.5102 13.6797 14.6155 14.3193 14.2462L15.9205 15.1766C15.2808 15.5459 14.7632 16.4407 14.7653 17.1757Z" fill="#FBDBD0"/>
<mask id="mask0_27_110" style="mask-type:luminance" maskUnits="userSpaceOnUse" x="26" y="4" width="4" height="2">
<path d="M27.8663 4.08863L29.4675 5.0191C29.2425 4.88835 28.9309 4.90673 28.5872 5.10521L26.986 4.17474C27.3298 3.97626 27.6414 3.95788 27.8663 4.08863Z" fill="white"/>
</mask>
<g mask="url(#mask0_27_110)">
<path d="M28.5872 5.10521L26.986 4.17474C27.3298 3.97626 27.6413 3.95788 27.8663 4.08863L29.4675 5.0191C29.2425 4.88835 28.9309 4.90673 28.5872 5.10521Z" fill="#C1DBF6"/>
</g>
<path d="M23.313 11.1584L21.7119 10.2279L21.7074 8.64622L23.3085 9.5767L23.313 11.1584Z" fill="#C1DBF6"/>
<path d="M24.5418 7.44075L22.9407 6.51028L26.9859 4.17473L28.5871 5.1052L24.5418 7.44075Z" fill="#C1DBF6"/>
<mask id="mask1_27_110" style="mask-type:luminance" maskUnits="userSpaceOnUse" x="21" y="6" width="4" height="4">
<path d="M23.3085 9.5767L21.7074 8.64622C21.7052 7.86121 22.2574 6.90466 22.9406 6.51025L24.5417 7.44073C23.8586 7.83516 23.3063 8.79171 23.3085 9.5767Z" fill="white"/>
</mask>
<g mask="url(#mask1_27_110)">
<path d="M23.3085 9.5767L21.7074 8.64622C21.7052 7.86121 22.2574 6.90466 22.9406 6.51025L24.5417 7.44073C23.8586 7.83516 23.3063 8.79171 23.3085 9.5767Z" fill="#C1DBF6"/>
</g>
<path d="M28.5871 5.1051C29.2703 4.71067 29.8262 5.02746 29.8284 5.81245L29.8329 7.39412L30.6524 6.92098C31.3326 6.52823 31.887 6.84417 31.8893 7.62588L31.8927 8.83016C31.8931 8.96151 31.8231 9.08303 31.7094 9.1487L21.8169 14.8601C21.5729 15.001 21.2678 14.8254 21.267 14.5437L21.2648 13.7599C21.2626 12.9782 21.8134 12.0242 22.4936 11.6314L23.3131 11.1583L23.3087 9.57662C23.3064 8.79161 23.8587 7.83506 24.5419 7.44065L28.5871 5.1051Z" fill="#C1DBF6"/>
<path d="M36.1613 1.77793C36.2672 1.77793 36.3611 1.80191 36.4378 1.84723C36.4378 1.84723 38.0588 2.78771 38.0588 2.78771C38.2678 2.90787 38.3977 3.16471 38.3988 3.53086L38.4462 20.2434L38.4876 19.9371L41.6469 15.3024C41.6469 15.3024 41.719 15.304 41.8312 15.3145L41.8321 15.3132C41.8321 15.3132 41.9411 14.9863 42.5297 14.91C42.5737 14.9043 42.6145 14.9017 42.6525 14.9017C42.7692 14.9017 42.8585 14.9265 42.9272 14.9637L43.3471 14.2887C43.3471 14.2887 43.4962 14.2462 43.6914 14.2462C43.8657 14.2462 44.0769 14.2801 44.2518 14.4086C44.6979 14.7366 44.6223 15.1062 44.6223 15.1062L43.6894 16.3784C43.8071 16.5967 43.8049 16.741 43.8049 16.741L38.4574 24.2042L38.4876 34.8676C38.4897 35.6026 37.9722 36.4991 37.334 36.8675L16.0168 49.1749C15.8305 49.2826 15.6544 49.3334 15.4982 49.3334C15.3831 49.3334 15.2788 49.3058 15.1892 49.2529C15.189 49.2529 13.5912 48.325 13.5912 48.325C13.3832 48.204 13.2541 47.947 13.253 47.5819L13.1642 16.2452C13.1621 15.5102 13.6797 14.6155 14.3193 14.2462L21.7113 9.97842L21.7075 8.64623C21.7053 7.86118 22.2575 6.90467 22.9407 6.51029L26.986 4.17474C27.1853 4.0596 27.3738 4.00503 27.5409 4.00503C27.662 4.00503 27.7718 4.03369 27.8663 4.08861L29.4674 5.01903C29.4668 5.01867 29.4661 5.01851 29.4655 5.01815C29.5838 5.08638 29.6775 5.19678 29.7404 5.34279L35.6364 1.93874C35.827 1.82879 36.007 1.77784 36.1613 1.77793ZM36.1613 1.05566C35.8737 1.05557 35.5673 1.14472 35.2753 1.31321L29.8824 4.42674C29.8726 4.42048 29.8628 4.41423 29.8528 4.40823C29.8454 4.40356 29.8379 4.39897 29.8303 4.39456L28.2292 3.46414C28.0251 3.34557 27.7871 3.28287 27.541 3.28278C27.2392 3.28278 26.9309 3.37245 26.6247 3.54932L22.5795 5.88478C21.6677 6.41122 20.9822 7.59927 20.9852 8.64828L20.9878 9.56213L13.9582 13.6206C13.0909 14.1214 12.4391 15.2506 12.4419 16.2472L12.5308 47.584C12.5325 48.1951 12.7867 48.6928 13.2282 48.9494L14.0274 49.4135C14.4384 49.6522 14.6748 49.7895 14.8256 49.8684L14.8218 49.8747C15.0222 49.9931 15.256 50.0557 15.4981 50.0557C15.7887 50.0557 16.0847 49.9698 16.378 49.8004L37.6951 37.4931C38.5615 36.9928 39.2127 35.8632 39.2099 34.8656L39.1803 24.4353L44.392 17.1617C44.4777 17.0421 44.5248 16.899 44.527 16.7519C44.5278 16.7032 44.5242 16.6144 44.4988 16.496L45.2047 15.5334C45.2663 15.4493 45.3091 15.353 45.3299 15.2509C45.4074 14.8715 45.2836 14.2709 44.6795 13.8268C44.4101 13.6287 44.0683 13.5239 43.6913 13.5239C43.4093 13.5239 43.1898 13.5826 43.1487 13.5943C42.9764 13.6435 42.8285 13.755 42.7338 13.9072L42.5629 14.182C42.5214 14.1843 42.4794 14.1883 42.437 14.1937C41.9778 14.2533 41.6759 14.4227 41.48 14.5996C41.3069 14.6408 41.1527 14.745 41.05 14.8956L39.1611 17.6667L39.121 3.52888C39.1193 2.91629 38.8638 2.41832 38.4202 2.16246C38.3833 2.14103 36.8003 1.22251 36.8003 1.22251C36.6172 1.11433 36.3946 1.05566 36.1613 1.05566Z" fill="#374874"/>
<path d="M43.3471 14.2888C43.3471 14.2888 43.8811 14.1362 44.2517 14.4087C44.6978 14.7367 44.6223 15.1062 44.6223 15.1062L43.5433 16.5776L42.4315 15.7602L43.3471 14.2888Z" fill="white"/>
<path d="M29.7451 32.7628L41.647 15.3024C41.647 15.3024 42.0272 15.3077 42.4474 15.4293C42.6652 15.4923 42.8937 15.5865 43.0856 15.7275C43.8148 16.2627 43.805 16.7411 43.805 16.7411L31.8377 34.0707L29.7451 35.2478L29.3854 34.9753L29.7451 32.7628Z" fill="#C1DBF6"/>
<path d="M39.5651 20.212L43.1509 15.3024C43.1509 15.3024 43.1182 14.8337 42.5297 14.91C41.9411 14.9863 41.8321 15.3133 41.8321 15.3133L38.6278 19.8364C38.6278 19.8364 38.2027 20.4459 39.5651 20.212Z" fill="white"/>
<path d="M29.4181 34.7954L29.2766 35.4259C29.2627 35.4876 29.3313 35.5348 29.384 35.4998L29.9031 35.1551C29.9031 35.1551 29.7912 34.9652 29.7342 34.9208C29.6671 34.8685 29.4181 34.7954 29.4181 34.7954Z" fill="#ECECEC"/>
<path d="M24.9284 18.6707L20.6677 25.7501L19.2462 24.9388L24.9284 18.6707Z" fill="white"/>
<path d="M26.3788 16.48C26.5155 16.4011 26.6522 16.3846 26.7534 16.4499C26.9478 16.5752 26.9385 16.9535 26.7327 17.2951L21.0114 26.8016C20.9129 26.9656 20.787 27.0914 20.661 27.1642C20.5296 27.24 20.3981 27.2581 20.2977 27.2016L18.387 26.1127C18.1869 25.9974 18.1859 25.6252 18.3847 25.2796C18.4846 25.107 18.6156 24.974 18.7468 24.8983C18.8779 24.8226 19.0092 24.8042 19.1098 24.8609L19.2462 24.9387L20.6678 25.75L24.9285 18.6706L26.0294 16.8414C26.1274 16.6781 26.2531 16.5526 26.3788 16.48Z" fill="#374874"/>
<path d="M27.4877 13.5539C27.6295 13.4721 27.7451 13.5367 27.7456 13.6996L27.7778 25.0471C27.7782 25.2087 27.6633 25.4077 27.5215 25.4896L17.6473 31.1904C17.5055 31.2723 17.391 31.2058 17.3906 31.0442L17.3584 19.6966C17.3579 19.5337 17.4717 19.3366 17.6135 19.2548L27.4877 13.5539ZM27.5207 25.1956L27.4885 13.848L17.6143 19.5489L17.6465 30.8964L27.5207 25.1956Z" fill="#374874"/>
<path d="M17.6143 19.549L27.4885 13.8481L27.5207 25.1957L17.6465 30.8965L17.6143 19.549ZM26.7327 17.2952C26.9384 16.9535 26.9477 16.5752 26.7534 16.45C26.6521 16.3847 26.5154 16.4011 26.3787 16.48C26.253 16.5526 26.1273 16.6781 26.0293 16.8414L24.9284 18.6707L19.2461 24.9388L19.1097 24.861C19.0091 24.8042 18.8778 24.8227 18.7467 24.8984C18.6155 24.9741 18.4846 25.1071 18.3846 25.2796C18.1858 25.6253 18.1869 25.9975 18.387 26.1128L20.2977 27.2017C20.398 27.2582 20.5295 27.2401 20.6609 27.1643C20.7869 27.0915 20.9129 26.9657 21.0113 26.8016L26.7327 17.2952Z" fill="white"/>
<path d="M17.9264 32.9024L27.8017 27.2009L27.8339 38.5484L17.9586 44.2499L17.9264 32.9024ZM27.0447 30.6486C27.2505 30.3069 27.2598 29.9287 27.0654 29.8034C26.9642 29.7381 26.8278 29.7544 26.6912 29.8332C26.5656 29.9058 26.4399 30.0312 26.3414 30.1949L25.2405 32.0241L19.5582 38.2922L19.4218 38.2143C19.3218 38.1573 19.1905 38.1758 19.0593 38.2515C18.9282 38.3272 18.7972 38.4602 18.6978 38.6323C18.4979 38.9786 18.4989 39.3509 18.7002 39.4656L20.6097 40.5551C20.7101 40.6117 20.8416 40.5935 20.973 40.5176C21.099 40.4449 21.2249 40.319 21.3234 40.1551L27.0447 30.6486Z" fill="white"/>
<path d="M27.8009 26.9068C27.9426 26.8249 28.0571 26.8902 28.0576 27.0531L28.0898 38.4006C28.0902 38.5622 27.9765 38.7606 27.8347 38.8424L17.9594 44.544C17.8187 44.6252 17.703 44.5593 17.7026 44.3976L17.6704 33.0502C17.6699 32.8872 17.7849 32.6895 17.9255 32.6083L27.8009 26.9068ZM27.8339 38.5483L27.8017 27.2009L17.9263 32.9024L17.9585 44.2499L27.8339 38.5483Z" fill="#374874"/>
<path d="M26.6912 29.8332C26.8277 29.7544 26.9641 29.7381 27.0653 29.8034C27.2597 29.9287 27.2504 30.3069 27.0447 30.6486L21.3233 40.155C21.2248 40.319 21.0989 40.4449 20.9729 40.5176C20.8415 40.5935 20.71 40.6116 20.6097 40.5551L18.7001 39.4656C18.4988 39.3509 18.4978 38.9786 18.6977 38.6323C18.7971 38.4602 18.9281 38.3272 19.0592 38.2515C19.1904 38.1757 19.3217 38.1573 19.4217 38.2143L19.5581 38.2921L20.9797 39.1035L25.2404 32.024L26.3413 30.1949C26.4399 30.0311 26.5656 29.9057 26.6912 29.8332Z" fill="#374874"/>
<path d="M25.2405 32.024L20.9797 39.1035L19.5582 38.2921L25.2405 32.024Z" fill="white"/>
</g>
<defs>
<clipPath id="clip0_27_110">
<rect width="50" height="50" fill="white" transform="translate(0 0.5)"/>
</clipPath>
</defs>
</svg>
