<svg width="64" height="64" viewBox="0 0 64 64" fill="none" xmlns="http://www.w3.org/2000/svg">
<path d="M19.4073 61.7256L17.3805 60.5477C17.1171 60.3946 16.9537 60.0693 16.9524 59.6071L18.9792 60.7849C18.9805 61.2472 19.1439 61.5725 19.4073 61.7256Z" fill="#FBDBD0"/>
<path d="M46.3291 1.72739L48.3559 2.90524C48.0893 2.75029 47.7202 2.77217 47.3134 3.00702L45.2866 1.82917C45.6934 1.59432 46.0625 1.57246 46.3291 1.72739Z" fill="#FBDBD0"/>
<path d="M18.9792 60.7849L16.9524 59.6071L16.8399 19.9392L18.8666 21.1171L18.9792 60.7849Z" fill="#FBDBD0"/>
<path d="M20.3289 18.5865L18.3021 17.4087L45.2866 1.82917L47.3134 3.00702L20.3289 18.5865Z" fill="#FBDBD0"/>
<path d="M47.3134 3.00702C48.1213 2.5406 48.7807 2.91429 48.7833 3.84469L48.8958 43.5126C48.8984 44.443 48.2433 45.5777 47.4354 46.0442L20.4509 61.6237C19.6412 62.0912 18.9818 61.7153 18.9792 60.7849L18.8666 21.1171C18.864 20.1867 19.5192 19.054 20.3289 18.5865L47.3134 3.00702Z" fill="white"/>
<path d="M18.8666 21.1171L16.8399 19.9392C16.8372 19.0088 17.4924 17.8762 18.3021 17.4087L20.3289 18.5865C19.5192 19.054 18.864 20.1867 18.8666 21.1171Z" fill="#FBDBD0"/>
<path d="M36.3632 5.83742L34.3364 4.65957C34.7715 4.40832 35.1659 4.38505 35.4507 4.55056L37.4775 5.72841C37.1927 5.5629 36.7983 5.58617 36.3632 5.83742Z" fill="#C1DBF6"/>
<path d="M29.687 13.4999L27.6602 12.3221L27.6545 10.3199L29.6814 11.4977L29.687 13.4999Z" fill="#C1DBF6"/>
<path d="M31.2424 8.79392L29.2156 7.61607L34.3364 4.65957L36.3632 5.83742L31.2424 8.79392Z" fill="#C1DBF6"/>
<path d="M29.6814 11.4977L27.6545 10.3199C27.6517 9.32618 28.3508 8.11533 29.2156 7.61607L31.2424 8.79392C30.3776 9.29321 29.6785 10.5041 29.6814 11.4977Z" fill="#C1DBF6"/>
<path d="M36.3631 5.83743C37.2279 5.33814 37.9315 5.73914 37.9343 6.73284L37.94 8.73501L38.9774 8.13608C39.8385 7.63892 40.5403 8.03885 40.5431 9.02838L40.5474 10.5528C40.5479 10.7191 40.4594 10.8729 40.3154 10.9561L27.7929 18.1859C27.484 18.3642 27.0978 18.142 27.0968 17.7853L27.094 16.7932C27.0912 15.8037 27.7884 14.596 28.6496 14.0988L29.6869 13.4999L29.6813 11.4977C29.6785 10.504 30.3775 9.29318 31.2423 8.79391L36.3631 5.83743Z" fill="#C1DBF6"/>
<path d="M45.951 1.62559C46.0851 1.62559 46.2039 1.65594 46.3011 1.71332C46.3011 1.71332 48.3529 2.90383 48.353 2.90383C48.6175 3.05594 48.782 3.38106 48.7833 3.84456L48.8433 25.0004L48.8958 24.6125L52.895 18.7457C52.895 18.7457 52.9862 18.7477 53.1284 18.7611L53.1295 18.7594C53.1295 18.7594 53.2675 18.3456 54.0125 18.2489C54.0682 18.2418 54.1199 18.2384 54.1679 18.2384C54.3157 18.2384 54.4288 18.2699 54.5156 18.317L55.0473 17.4625C55.0473 17.4625 55.2359 17.4086 55.483 17.4086C55.7037 17.4086 55.9711 17.4516 56.1924 17.6143C56.7571 18.0295 56.6615 18.4974 56.6615 18.4974L55.4805 20.1077C55.6295 20.3841 55.6267 20.5668 55.6267 20.5668L48.8575 30.0141L48.8958 43.5125C48.8985 44.4429 48.2433 45.5777 47.4354 46.0441L20.4509 61.6236C20.215 61.7599 19.9921 61.8241 19.7943 61.8241C19.6486 61.8241 19.5166 61.7892 19.4033 61.7222C19.403 61.7222 17.3804 60.5477 17.3804 60.5477C17.117 60.3946 16.9536 60.0692 16.9523 59.6071L16.8399 19.9391C16.8372 19.0087 17.4924 17.8761 18.3021 17.4086L27.6593 12.0063L27.6545 10.3199C27.6517 9.32614 28.3508 8.11533 29.2155 7.6161L34.3363 4.65962C34.5887 4.51386 34.8273 4.44479 35.0388 4.44479C35.192 4.44479 35.331 4.48106 35.4506 4.5506L37.4774 5.72838C37.4767 5.72792 37.4758 5.72772 37.475 5.72726C37.6248 5.81363 37.7434 5.95338 37.823 6.13821L45.2866 1.82916C45.5278 1.68998 45.7556 1.62548 45.951 1.62559ZM45.9511 0.711304C45.5869 0.71119 45.1991 0.824035 44.8295 1.03732L38.0028 4.97862C37.9904 4.97069 37.978 4.96278 37.9653 4.95519C37.9559 4.94927 37.9465 4.94346 37.9368 4.93789L35.91 3.7601C35.6517 3.61 35.3504 3.53064 35.0389 3.53053C34.6569 3.53053 34.2666 3.64404 33.879 3.86792L28.7584 6.82429C27.6041 7.49069 26.7364 8.9946 26.7402 10.3225L26.7435 11.4793L17.8449 16.6168C16.7471 17.2507 15.922 18.6801 15.9255 19.9417L16.038 59.6097C16.0402 60.3832 16.362 61.0132 16.9209 61.3381L17.9326 61.9256C18.4528 62.2278 18.752 62.4015 18.943 62.5014L18.9382 62.5094C19.1918 62.6593 19.4879 62.7385 19.7943 62.7385C20.1621 62.7385 20.5368 62.6298 20.9081 62.4154L47.8925 46.836C48.9893 46.2028 49.8136 44.7728 49.8101 43.51L49.7726 30.3067L56.3699 21.0993C56.4784 20.9479 56.538 20.7668 56.5408 20.5806C56.5418 20.519 56.5373 20.4065 56.5051 20.2567L57.3987 19.0381C57.4767 18.9317 57.5308 18.8097 57.5572 18.6804C57.6553 18.2002 57.4986 17.4399 56.7339 16.8778C56.3928 16.627 55.9602 16.4944 55.483 16.4944C55.1259 16.4944 54.8482 16.5686 54.7961 16.5835C54.578 16.6457 54.3908 16.7869 54.2709 16.9796L54.0545 17.3274C54.0021 17.3303 53.9488 17.3354 53.8952 17.3423C53.3139 17.4176 52.9317 17.6321 52.6837 17.8561C52.4646 17.9082 52.2694 18.0401 52.1394 18.2308L49.7483 21.7386L49.6975 3.84205C49.6954 3.0666 49.372 2.43624 48.8105 2.11236C48.7637 2.08522 46.7598 0.922504 46.7598 0.922504C46.5281 0.785567 46.2463 0.711304 45.9511 0.711304Z" fill="#374874"/>
<path d="M55.0474 17.4626C55.0474 17.4626 55.7234 17.2694 56.1925 17.6144C56.7572 18.0296 56.6616 18.4974 56.6616 18.4974L55.2957 20.3599L53.8884 19.3252L55.0474 17.4626Z" fill="white"/>
<path d="M37.8288 40.8481L52.8949 18.7457C52.8949 18.7457 53.3762 18.7524 53.9082 18.9064C54.1838 18.9861 54.4731 19.1054 54.7161 19.2838C55.6391 19.9614 55.6267 20.5669 55.6267 20.5669L40.4778 42.5038L37.8288 43.9938L37.3735 43.6489L37.8288 40.8481Z" fill="#C1DBF6"/>
<path d="M50.2599 24.9606L54.799 18.7457C54.799 18.7457 54.7576 18.1525 54.0126 18.249C53.2676 18.3456 53.1296 18.7595 53.1296 18.7595L49.0733 24.4851C49.0733 24.4851 48.5353 25.2567 50.2599 24.9606Z" fill="white"/>
<path d="M37.4151 43.4211L37.2359 44.2192C37.2184 44.2974 37.3051 44.3571 37.3719 44.3127L38.029 43.8764C38.029 43.8764 37.8873 43.636 37.8152 43.5798C37.7303 43.5137 37.4151 43.4211 37.4151 43.4211Z" fill="#ECECEC"/>
<path d="M33.5678 20.2363C33.7408 20.1365 33.9139 20.1156 34.042 20.1983C34.2881 20.3569 34.2763 20.8357 34.0159 21.2682L26.7734 33.302C26.6488 33.5097 26.4894 33.669 26.3298 33.7611C26.1635 33.8571 25.9971 33.88 25.87 33.8084L23.4514 32.4301C23.198 32.284 23.1967 31.8129 23.4484 31.3754C23.5749 31.157 23.7407 30.9886 23.9067 30.8928C24.0727 30.7969 24.2389 30.7736 24.3663 30.8454L24.5389 30.9439L26.3385 31.9709L31.7319 23.0094L33.1255 20.6938C33.2496 20.4871 33.4087 20.3282 33.5678 20.2363Z" fill="#374874"/>
<path d="M34.9714 16.5324C35.1509 16.4288 35.2973 16.5106 35.2979 16.7168L35.3387 31.0812C35.3392 31.2857 35.1938 31.5377 35.0143 31.6413L22.5149 38.8578C22.3354 38.9614 22.1905 38.8772 22.1899 38.6727L22.1492 24.3082C22.1486 24.102 22.2926 23.8525 22.4721 23.7489L34.9714 16.5324ZM35.0132 31.2691L34.9725 16.9047L22.4731 24.1212L22.5139 38.4856L35.0132 31.2691Z" fill="#374874"/>
<path d="M35.3679 33.4351C35.5474 33.3314 35.6923 33.4141 35.6929 33.6203L35.7337 47.9846C35.7342 48.1893 35.5903 48.4403 35.4108 48.544L22.91 55.7613C22.7319 55.8641 22.5855 55.7807 22.5849 55.5761L22.5442 41.2118C22.5436 41.0055 22.6891 40.7552 22.8671 40.6525L35.3679 33.4351ZM35.4097 48.1717L35.369 33.8074L22.8682 41.0247L22.9089 55.389L35.4097 48.1717Z" fill="#374874"/>
<path d="M33.9633 37.1396C34.1361 37.0398 34.3088 37.0192 34.4369 37.1018C34.683 37.2604 34.6712 37.7392 34.4108 38.1717L27.1683 50.2055C27.0437 50.4131 26.8843 50.5724 26.7247 50.6645C26.5584 50.7605 26.392 50.7835 26.2649 50.712L23.8477 49.3327C23.5929 49.1876 23.5916 48.7163 23.8447 48.278C23.9705 48.0601 24.1363 47.8917 24.3023 47.7959C24.4684 47.7 24.6345 47.6767 24.7612 47.7488L24.9338 47.8474L26.7334 48.8745L32.1268 39.9128L33.5204 37.5974C33.6452 37.3901 33.8043 37.2314 33.9633 37.1396Z" fill="#374874"/>
</svg>
