<svg width="50" height="50" viewBox="0 0 50 50" xmlns="http://www.w3.org/2000/svg"><path d="M42.89 4H7.1C5.391 4 4 5.356 4 7.025v35.942c0 1.673 1.391 3.032 3.1 3.032h35.792c1.713 0 3.108-1.359 3.108-3.032V7.025C46 5.355 44.605 4 42.89 4Z" fill="#0177B5"/><path d="M10.227 19.745h6.24v20.042h-6.24V19.745Zm3.116-9.975a3.612 3.612 0 0 1 3.61 3.61 3.615 3.615 0 0 1-3.609 3.613 3.622 3.622 0 0 1-3.615-3.614 3.61 3.61 0 0 1 3.614-3.609Zm7.022 9.975h5.974v2.74h.083c.832-1.576 2.864-3.237 5.906-3.237 6.308 0 7.472 4.151 7.472 9.547v10.993h-6.225V30.04c0-2.323-.042-5.316-3.237-5.316-3.242 0-3.74 2.534-3.74 5.145v9.915h-6.224V19.741l-.01.004Z" fill="#fff"/></svg>
