<svg width="98" height="60" viewBox="0 0 98 60" fill="none" xmlns="http://www.w3.org/2000/svg">
<path d="M87.1214 0H13.2897C3.96582 0 0 6.09244 0 16.3866C0 31.1765 12.91 60 29.2373 60C32.3594 60 36.6627 58.1092 40.1644 56.1765C51.8509 49.8319 97.5 24.1176 97.5 8.78151C97.5 4.53782 94.6733 0 87.1214 0Z" fill="white"/>
<path d="M87.1214 0H13.2897C3.96582 0 0 6.09244 0 16.3866C0 31.1765 12.91 60 29.2373 60C32.3594 60 36.6627 58.1092 40.1644 56.1765C51.8509 49.8319 97.5 24.1176 97.5 8.78151C97.5 4.53782 94.6733 0 87.1214 0ZM29.2373 55.7983C14.0913 55.7983 1.51882 29.4538 1.51882 15.7983C1.51882 8.9916 3.37516 4.7479 7.21441 2.77311C5.27369 4.07563 4.17676 5.96639 3.58611 7.68908C2.70013 10.2941 2.36261 13.3613 2.70013 16.4286C4.72523 34.5798 17.6352 45.4622 25.145 50.3782C28.5623 52.605 31.6421 53.9496 34.4267 54.4958C32.275 55.2941 30.4608 55.7983 29.2373 55.7983Z" fill="#A0CF67"/>
<path d="M27.0435 47.9832C19.0697 43.3193 6.24406 32.1428 4.4721 15.9244C3.71269 8.94956 5.90654 3.36133 13.2897 3.36133H87.1214C93.2389 3.36133 94.1248 6.76469 94.1248 8.7815C94.1248 11.2185 91.8888 18.4454 71.2581 33.1092C63.7484 38.4454 52.8635 45.084 43.6662 49.5378C39.1097 51.7647 34.5954 52.3529 27.0435 47.9832Z" fill="#EF4138"/>
<path d="M25.6924 18.3619L25.6502 8.99219H19.6593L13.373 28.614H19.2374L21.5578 19.7905L21.9375 28.614H25.5236L29.2363 19.7905L28.2238 28.614H34.1303L35.2694 8.99219H29.2785L25.6924 18.3619Z" fill="white"/>
<path d="M50.3313 9.66389C46.4498 7.35297 40.8808 9.53784 37.8853 14.5378C34.8899 19.5799 35.6493 25.5042 39.5307 27.8572C43.4122 30.1681 48.9812 27.9832 51.9766 22.9832C54.9299 17.9412 54.2127 12.0168 50.3313 9.66389ZM48.0952 18.7815C47.6733 20.9244 45.9435 22.6891 44.2138 22.6891C42.484 22.6891 41.4293 20.9664 41.8512 18.7815C42.2731 16.6387 44.0028 14.874 45.7326 14.874C47.4624 14.916 48.5171 16.6387 48.0952 18.7815Z" fill="white"/>
<path d="M60.3295 22.6477L62.9452 8.99219H56.9121L53.1572 28.614H59.8232L64.3797 22.6477H60.3295Z" fill="white"/>
</svg>
