<svg xmlns="http://www.w3.org/2000/svg" xmlns:xlink="http://www.w3.org/1999/xlink" width="70" height="70" viewBox="0 0 70 70"><defs><path id="a" d="M4 0h61c4 0 5 1 5 5v60c0 4-1 5-5 5H4c-3 0-4-1-4-5V5c0-4 1-5 4-5z"/><linearGradient id="c" x1="100%" x2="0%" y1="0%" y2="100%"><stop offset="0%" stop-color="#94B6C8"/><stop offset="100%" stop-color="#6A9EBA"/></linearGradient><path id="d" d="M50.363 41a1.636 1.636 0 0 1-1.59 1.286L27 43l1 4h19c1 0 1 2 0 2H26l-6-24h-2v1c0 .667-.333 1-1 1s-1-.333-1-1v-2c.066-.667.4-1 1-1h4c.517 0 .85.333 1 1l1 3.281h28.45c1.048 0 1.824.985 1.592 2.019L50.363 41zM45.5 55a2.5 2.5 0 1 1 0-5 2.5 2.5 0 0 1 0 5zm-19 0a2.5 2.5 0 1 1 0-5 2.5 2.5 0 0 1 0 5z"/><path id="e" d="M50.363 39a1.636 1.636 0 0 1-1.59 1.286L27 41l1 4h19c1 0 1 2 0 2H26l-6-24h-2v1c0 .667-.333 1-1 1s-1-.333-1-1v-2c.066-.667.4-1 1-1h4c.517 0 .85.333 1 1l1 3.281h28.45c1.048 0 1.824.985 1.592 2.019L50.363 39zM45.5 53a2.5 2.5 0 1 1 0-5 2.5 2.5 0 0 1 0 5zm-19 0a2.5 2.5 0 1 1 0-5 2.5 2.5 0 0 1 0 5z"/></defs><g fill="none" fill-rule="evenodd"><mask id="b" fill="#fff"><use xlink:href="#a"/></mask><g mask="url(#b)"><path fill="url(#c)" d="M0 0H70V70H0z"/><path fill="#FFF" fill-opacity=".383" d="M4 1h61c2.667 0 4.333.667 5 2V0H0v3c.667-1.333 2-2 4-2z"/><path fill="#393939" d="M35 69H4c-2 0-4-1-4-4V37.785l16.292-16.467L21 21l2 5h29l-1.963 13.743L45 45h2l.542 1.59-3.3 3.164 3.3 1.837L35 69z" opacity=".324"/><path fill="#000" fill-opacity=".383" d="M4 69h61c2.667 0 4.333-1 5-3v4H0v-4c.667 2 2 3 4 3z"/><use fill="#000" fill-rule="nonzero" opacity=".3" xlink:href="#d"/><use fill="#FFF" fill-rule="nonzero" xlink:href="#e"/></g></g></svg>