<svg width="70" height="70" viewBox="0 0 70 70" fill="none" xmlns="http://www.w3.org/2000/svg">
<path fill-rule="evenodd" clip-rule="evenodd" d="M25.7242 16.3967C26.3772 14.9408 27.8517 14 29.4807 14H40.5185C42.1475 14 43.622 14.9408 44.275 16.3967L47.2363 23H51.899C54.3592 23 56.2655 25.0988 55.9695 27.4813L52.8632 52.4813C52.6137 54.4896 50.8664 56 48.7927 56H21.2071C19.1334 56 17.3862 54.4896 17.1366 52.4813L14.0304 27.4813C13.7343 25.0988 15.6407 23 18.1008 23H22.7629L25.7242 16.3967ZM42.9172 23H27.082C27.082 22.4402 27.205 21.8658 27.4716 21.3085L28.4283 19.3085C29.102 17.9002 30.5508 17 32.1439 17H37.8553C39.4484 17 40.8972 17.9002 41.5709 19.3085L42.5276 21.3085C42.7942 21.8658 42.9172 22.4402 42.9172 23Z" fill="#712258"/>
<path fill-rule="evenodd" clip-rule="evenodd" d="M18.5135 55.0158C17.7724 54.3858 17.2629 53.4973 17.1366 52.4813L14.0304 27.4813C13.7343 25.0988 15.6407 23 18.1008 23H22.7629L25.7242 16.3967C26.3772 14.9408 27.8517 14 29.4807 14H40.5185C42.1475 14 43.622 14.9408 44.275 16.3967L46.8658 22.1738C45.4995 38.2558 33.8468 51.4051 18.5135 55.0158ZM27.082 23H42.9172C42.9172 22.4402 42.7942 21.8658 42.5276 21.3085L41.5709 19.3085C40.8972 17.9002 39.4484 17 37.8553 17H32.1439C30.5508 17 29.102 17.9002 28.4283 19.3085L27.4716 21.3085C27.205 21.8658 27.082 22.4402 27.082 23Z" fill="#985184"/>
</svg>
