<svg xmlns="http://www.w3.org/2000/svg" xmlns:xlink="http://www.w3.org/1999/xlink" width="70" height="70" viewBox="0 0 70 70">
    <defs>
        <path id="modules-a" d="M4,5.35309892e-14 C36.4160122,9.87060235e-15 58.0836068,-3.97961823e-14 65,5.07020818e-14 C69,6.733808e-14 70,1 70,5 C70,43.0488877 70,62.4235458 70,65 C70,69 69,70 65,70 C61,70 9,70 4,70 C1,70 7.10542736e-15,69 7.10542736e-15,65 C7.25721566e-15,62.4676575 3.83358709e-14,41.8005206 3.60818146e-14,5 C-1.13686838e-13,1 1,5.75716207e-14 4,5.35309892e-14 Z"/>
        <linearGradient id="modules-c" x1="100%" x2="0%" y1="0%" y2="100%">
            <stop offset="0%" stop-color="#B06161"/>
            <stop offset="45.785%" stop-color="#984E4E"/>
            <stop offset="100%" stop-color="#7C3838"/>
        </linearGradient>
    </defs>
    <g fill="none" fill-rule="evenodd">
        <mask id="modules-b" fill="#fff">
            <use xlink:href="#modules-a"/>
        </mask>
        <g mask="url(#modules-b)">
            <rect width="70" height="70" fill="url(#modules-c)"/>
            <path fill="#FFF" fill-opacity=".383" d="M4,1.8 L65,1.8 C67.6666667,1.8 69.3333333,1.13333333 70,-0.2 C70,2.46666667 70,3.46666667 70,2.8 L1.10547097e-14,2.8 C-1.65952376e-14,3.46666667 -2.9161925e-14,2.46666667 -2.66453526e-14,-0.2 C0.666666667,1.13333333 2,1.8 4,1.8 Z" transform="matrix(1 0 0 -1 0 2.8)"/>
            <path fill="#393939" d="M4,53 C2,53 1.45716772e-16,52 1.45716772e-16,49 L0,26.5 L24.2967077,3.76847114 L35,0 L45,5 L45,16 L56,21 L56,31.1642772 L38.575061,53 L4,53 Z" opacity=".324" transform="translate(0 16)"/>
            <path fill="#000" fill-opacity=".383" d="M4,4 L65,4 C67.6666667,4 69.3333333,3 70,1 C70,3.66666667 70,5 70,5 L1.77635684e-15,5 C1.77635684e-15,5 1.77635684e-15,3.66666667 1.77635684e-15,1 C0.666666667,3 2,4 4,4 Z" transform="translate(0 65)"/>
            <path fill="#000" fill-rule="nonzero" d="M55.9627633,37.3175622 C55.941748,37.257152 55.9136537,37.1990753 55.8789872,37.1443796 L55.8789872,37.1184022 C55.8368853,37.0580162 55.7868543,37.0027487 55.7300518,36.9538787 L55.6881637,36.9192421 C55.6350549,36.8788061 55.5773016,36.8439577 55.5159572,36.8153325 L55.4926861,36.8153325 L46.0027111,32.7412107 L46.0027111,22.1251142 C46.0021217,22.0505133 45.9911711,21.9762961 45.9701315,21.9043063 L45.9701315,21.8523515 C45.9491161,21.7919413 45.9210218,21.7338646 45.8863553,21.6791689 L45.8863553,21.6531915 C45.8442535,21.5928054 45.7942225,21.537538 45.73742,21.488668 L45.6955319,21.4540314 C45.642423,21.4135954 45.5846698,21.378747 45.5233254,21.3501218 L45.5000542,21.3501218 L35.4096836,17.0205556 C35.1629944,16.9151184 34.8791164,16.9151184 34.6324272,17.0205556 L24.5467107,21.3501218 L24.5234396,21.3501218 C24.4620952,21.378747 24.404342,21.4135954 24.3512331,21.4540314 L24.309345,21.488668 C24.2525425,21.537538 24.2025115,21.5928054 24.1604097,21.6531915 L24.1604097,21.6791689 C24.1257431,21.7338646 24.0976488,21.7919413 24.0766335,21.8523515 L24.0766335,21.9043063 C24.0555938,21.9762961 24.0446433,22.0505133 24.0440539,22.1251142 L24.0440539,32.7412107 L14.5028824,36.8023438 L14.4796112,36.8023438 C14.4182668,36.830969 14.3605136,36.8658174 14.3074047,36.9062534 L14.2655167,36.94089 C14.2087141,36.98976 14.1586831,37.0450275 14.1165813,37.1054135 L14.1165813,37.1313909 C14.0819148,37.1860866 14.0538205,37.2441633 14.0328052,37.3045735 L14.0328052,37.3565283 C14.0117655,37.4285181 14.0008149,37.5027353 14.0002255,37.5773362 L14.0002255,48.8039015 C13.9924262,49.1342656 14.1874289,49.4399581 14.5028824,49.5918826 L24.5885988,53.9214489 C24.835288,54.026886 25.119166,54.026886 25.3658552,53.9214489 L34.9814944,49.7910426 L44.6064421,53.9171193 C44.8531313,54.0225564 45.1370093,54.0225564 45.3836985,53.9171193 L55.4601065,49.5918826 C55.7900488,49.4498389 56.0008968,49.1421021 55.9999971,48.8039015 L55.9999971,37.5903249 C55.9994077,37.515724 55.9884572,37.4415068 55.9674175,37.369517 L55.9627633,37.3175622 Z M24.9655914,40.963057 L17.0999427,37.5903249 L24.8399272,34.2738771 L32.7055759,37.629291 L24.9655914,40.963057 Z M34.0506484,48.2843536 L25.8964374,51.7783136 L25.8964374,42.4697461 L34.0506484,38.9757861 L34.0506484,48.2843536 Z M34.9814944,25.5065054 L27.1158457,22.1251142 L34.9814944,18.7523821 L42.8471431,22.1251142 L34.9814944,25.5065054 Z M35.9123404,27.0131945 L44.1410191,23.484598 L44.1410191,32.7931655 L35.9123404,36.3304211 L35.9123404,27.0131945 Z M44.9973974,40.963057 L37.2527587,37.629291 L45.1184074,34.2565589 L52.8583919,37.5730066 L44.9973974,40.963057 Z M54.1522678,48.2497171 L45.9282434,51.7783136 L45.9282434,42.4697461 L54.1522678,38.9281609 L54.1522678,48.2497171 Z" opacity=".3"/>
            <path fill="#FFF" fill-rule="nonzero" d="M55.9627633,35.4570756 C55.941748,35.3966654 55.9136537,35.3385887 55.8789872,35.283893 L55.8789872,35.2579156 C55.8368853,35.1975296 55.7868543,35.1422621 55.7300518,35.0933921 L55.6881637,35.0587555 C55.6350549,35.0183195 55.5773016,34.9834712 55.5159572,34.9548459 L55.4926861,34.9548459 L46.0027111,30.8807241 L46.0027111,20.2646276 C46.0021217,20.1900267 45.9911711,20.1158095 45.9701315,20.0438197 L45.9701315,19.9918649 C45.9491161,19.9314547 45.9210218,19.873378 45.8863553,19.8186823 L45.8863553,19.7927049 C45.8442535,19.7323188 45.7942225,19.6770514 45.73742,19.6281814 L45.6955319,19.5935448 C45.642423,19.5531088 45.5846698,19.5182604 45.5233254,19.4896352 L45.5000542,19.4896352 L35.4096836,15.160069 C35.1629944,15.0546318 34.8791164,15.0546318 34.6324272,15.160069 L24.5467107,19.4896352 L24.5234396,19.4896352 C24.4620952,19.5182604 24.404342,19.5531088 24.3512331,19.5935448 L24.309345,19.6281814 C24.2525425,19.6770514 24.2025115,19.7323188 24.1604097,19.7927049 L24.1604097,19.8186823 C24.1257431,19.873378 24.0976488,19.9314547 24.0766335,19.9918649 L24.0766335,20.0438197 C24.0555938,20.1158095 24.0446433,20.1900267 24.0440539,20.2646276 L24.0440539,30.8807241 L14.5028824,34.9418572 L14.4796112,34.9418572 C14.4182668,34.9704825 14.3605136,35.0053308 14.3074047,35.0457668 L14.2655167,35.0804034 C14.2087141,35.1292734 14.1586831,35.1845409 14.1165813,35.2449269 L14.1165813,35.2709043 C14.0819148,35.3256 14.0538205,35.3836767 14.0328052,35.4440869 L14.0328052,35.4960417 C14.0117655,35.5680315 14.0008149,35.6422487 14.0002255,35.7168496 L14.0002255,46.9434149 C13.9924262,47.273779 14.1874289,47.5794715 14.5028824,47.731396 L24.5885988,52.0609623 C24.835288,52.1663994 25.119166,52.1663994 25.3658552,52.0609623 L34.9814944,47.9305561 L44.6064421,52.0566327 C44.8531313,52.1620699 45.1370093,52.1620699 45.3836985,52.0566327 L55.4601065,47.731396 C55.7900488,47.5893523 56.0008968,47.2816155 55.9999971,46.9434149 L55.9999971,35.7298383 C55.9994077,35.6552374 55.9884572,35.5810202 55.9674175,35.5090304 L55.9627633,35.4570756 Z M24.9655914,39.1025704 L17.0999427,35.7298383 L24.8399272,32.4133905 L32.7055759,35.7688044 L24.9655914,39.1025704 Z M34.0506484,46.423867 L25.8964374,49.917827 L25.8964374,40.6092595 L34.0506484,37.1152995 L34.0506484,46.423867 Z M34.9814944,23.6460189 L27.1158457,20.2646276 L34.9814944,16.8918955 L42.8471431,20.2646276 L34.9814944,23.6460189 Z M35.9123404,25.1527079 L44.1410191,21.6241114 L44.1410191,30.9326789 L35.9123404,34.4699345 L35.9123404,25.1527079 Z M44.9973974,39.1025704 L37.2527587,35.7688044 L45.1184074,32.3960723 L52.8583919,35.71252 L44.9973974,39.1025704 Z M54.1522678,46.3892305 L45.9282434,49.917827 L45.9282434,40.6092595 L54.1522678,37.0676743 L54.1522678,46.3892305 Z"/>
        </g>
    </g>
</svg>
