<svg width="700" height="1902" viewBox="0 0 700 1902" fill="none" xmlns="http://www.w3.org/2000/svg" data-vsvg="002" class="theme_beauty_svg_preview">
    <defs>
        <pattern id="theme_beauty_library_image_14_id" width="1" height="1" patternunits="objectBoundingBox">
            <image href="#library_image_14_url" width="91" height="183" preserveAspectRatio="xMidYMid slice"></image>
        </pattern>
        <pattern id="theme_beauty_library_image_10_id" width="1" height="1" patternunits="objectBoundingBox">
            <image href="#library_image_10_url" width="82" height="164" preserveAspectRatio="xMidYMid slice"></image>
        </pattern>
        <pattern id="theme_beauty_s_text_image_default_image_id" width="1" height="1" patternunits="objectBoundingBox">
            <image href="#s_text_image_default_image_url" width="277" height="160" preserveAspectRatio="xMidYMid slice"></image>
        </pattern>
        <pattern id="theme_beauty_s_masonry_block_default_image_1_id" width="1" height="1" patternunits="objectBoundingBox">
            <image href="#s_masonry_block_default_image_1_url" width="275" height="160" preserveAspectRatio="xMidYMid slice"></image>
        </pattern>
        <pattern id="theme_beauty_s_product_catalog_default_image_id" width="1" height="1" patternunits="objectBoundingBox">
            <image href="#s_product_catalog_default_image_url" width="700" height="431" preserveAspectRatio="xMidYMid slice"></image>
        </pattern>
        <pattern id="theme_beauty_library_image_16_id" width="1" height="1" patternunits="objectBoundingBox">
            <image href="#library_image_16_url" width="105" height="105" preserveAspectRatio="xMidYMid slice"></image>
        </pattern>
        <pattern id="theme_beauty_library_image_03_id" width="1" height="1" patternunits="objectBoundingBox">
            <image href="#library_image_03_url" width="105" height="105" preserveAspectRatio="xMidYMid slice"></image>
        </pattern>
        <pattern id="theme_beauty_library_image_13_id" width="1" height="1" patternunits="objectBoundingBox">
            <image href="#library_image_13_url" width="105" height="105" preserveAspectRatio="xMidYMid slice"></image>
        </pattern>
        <pattern id="theme_beauty_s_carousel_default_image_2_id" width="1" height="1" patternunits="objectBoundingBox">
            <image href="#s_carousel_default_image_2_url" width="460" height="190" preserveAspectRatio="xMidYMid slice"></image>
        </pattern>
        <filter id="filter_readability_theme_beauty">
            <feColorMatrix in="SourceGraphic" type="saturate" values="0"></feColorMatrix>
            <feComponentTransfer>
                <feFuncR type="table" tableValues="1 0"></feFuncR>
                <feFuncG type="table" tableValues="1 0"></feFuncG>
                <feFuncB type="table" tableValues="1 0"></feFuncB>
            </feComponentTransfer>
            <feComponentTransfer>
                <feFuncR type="linear" slope="10000" intercept="-4999.5"></feFuncR>
                <feFuncG type="linear" slope="10000" intercept="-4999.5"></feFuncG>
                <feFuncB type="linear" slope="10000" intercept="-4999.5"></feFuncB>
            </feComponentTransfer>
        </filter>
    </defs>
    <rect width="700" height="1902" fill="#ACACAC"></rect>
    <g clip-path="url(#clip0_287_2)" class="theme_beauty">
        <rect width="700" height="1902" fill="#FFFFFF"></rect>
        <g class="svgc_menu">
            <path d="M700 0H0V37H700V0Z" fill="#MENU_COLOR" class="svgc_menu_bg"></path>
            <path d="M622.5 11H591.5C587.358 11 584 14.3579 584 18.5C584 22.6421 587.358 26 591.5 26H622.5C626.642 26 630 22.6421 630 18.5C630 14.3579 626.642 11 622.5 11Z" fill="#3AADAA"></path>
            <path d="M356 15H319V22H356V15Z" fill="#MENU_COLOR" fill-opacity="0.3" class="svgc_invert" filter="url(#filter_readability_theme_beauty)"></path>
            <path d="M298 15H261V22H298V15Z" fill="#MENU_COLOR" fill-opacity="0.3" class="svgc_invert" filter="url(#filter_readability_theme_beauty)"></path>
            <path d="M240 15H203V22H240V15Z" fill="#MENU_COLOR" fill-opacity="0.3" class="svgc_invert" filter="url(#filter_readability_theme_beauty)"></path>
            <path d="M182 15H145V22H182V15Z" fill="#MENU_COLOR" class="svgc_invert" filter="url(#filter_readability_theme_beauty)"></path>
            <path d="M76.3448 23V21.479H72.6038V14.273H70.7588V23H76.3448ZM81.0248 23.12C81.7948 23.12 82.4878 22.944 83.1048 22.593C83.7238 22.243 84.2118 21.733 84.5718 21.065C84.9318 20.398 85.1108 19.588 85.1108 18.636C85.1108 17.685 84.9308 16.875 84.5708 16.207C84.2118 15.54 83.7238 15.031 83.1058 14.68C82.4878 14.329 81.7938 14.153 81.0238 14.153C80.2488 14.153 79.5528 14.329 78.9358 14.68C78.3198 15.03 77.8318 15.54 77.4748 16.207C77.1168 16.875 76.9378 17.685 76.9378 18.637C76.9378 19.585 77.1168 20.393 77.4748 21.061C77.805 21.7006 78.3121 22.2317 78.9358 22.591C79.5528 22.943 80.2488 23.119 81.0238 23.119L81.0248 23.12ZM81.0248 21.487C80.6115 21.4962 80.2049 21.382 79.8568 21.159C79.5238 20.94 79.2668 20.619 79.0828 20.196C78.8998 19.773 78.8078 19.253 78.8078 18.636C78.8078 18.02 78.8998 17.5 79.0828 17.076C79.2658 16.653 79.5238 16.332 79.8568 16.114C80.2045 15.891 80.6108 15.7767 81.0238 15.786C81.4698 15.786 81.8588 15.895 82.1918 16.114C82.5238 16.332 82.7818 16.654 82.9648 17.077C83.1488 17.5 83.2398 18.02 83.2398 18.637C83.2398 19.253 83.1488 19.773 82.9648 20.196C82.7818 20.619 82.5248 20.94 82.1918 21.159C81.8438 21.3823 81.4381 21.4965 81.0248 21.487ZM90.3018 23.119C91.0348 23.119 91.6858 22.971 92.2538 22.674C92.8117 22.3868 93.2759 21.9462 93.5918 21.404C93.9158 20.854 94.0778 20.196 94.0778 19.429V18.329H90.4258V19.719H92.2978L92.2938 19.845C92.2768 20.082 92.2238 20.297 92.1368 20.49L92.0638 20.63C91.9046 20.9043 91.6671 21.1247 91.3818 21.263C91.0858 21.413 90.7278 21.487 90.3108 21.487C89.8508 21.487 89.4508 21.376 89.1128 21.153C88.7748 20.93 88.5128 20.605 88.3288 20.179C88.1448 19.753 88.0518 19.236 88.0518 18.628C88.0518 18.02 88.1458 17.505 88.3328 17.083C88.5208 16.661 88.7828 16.339 89.1198 16.118C89.4693 15.8928 89.8781 15.7772 90.2938 15.786C90.5318 15.786 90.7498 15.816 90.9478 15.875C91.1448 15.935 91.3208 16.021 91.4758 16.133C91.6308 16.245 91.7618 16.381 91.8698 16.542C91.9778 16.702 92.0618 16.886 92.1218 17.094H93.9968C93.9417 16.6754 93.804 16.272 93.5918 15.907C93.3827 15.5479 93.1071 15.2319 92.7798 14.976C92.4394 14.7096 92.0553 14.5042 91.6448 14.369C91.1993 14.2222 90.7328 14.1492 90.2638 14.153C89.7135 14.148 89.1675 14.2509 88.6568 14.456C88.1661 14.6551 87.7231 14.9557 87.3568 15.338C86.9728 15.7437 86.6775 16.2249 86.4898 16.751C86.2838 17.306 86.1808 17.937 86.1808 18.645C86.1808 19.565 86.3538 20.36 86.6988 21.029C87.0212 21.6738 87.5239 22.2112 88.1458 22.576C88.7658 22.938 89.4838 23.119 90.3018 23.119ZM99.2598 23.119C100.03 23.119 100.723 22.944 101.341 22.593C101.959 22.243 102.448 21.733 102.807 21.065C103.167 20.398 103.347 19.588 103.347 18.636C103.347 17.685 103.167 16.875 102.807 16.207C102.447 15.54 101.959 15.031 101.341 14.68C100.723 14.329 100.03 14.153 99.2598 14.153C98.4838 14.153 97.7878 14.329 97.1718 14.68C96.5548 15.03 96.0678 15.54 95.7098 16.207C95.3518 16.875 95.1728 17.685 95.1728 18.637C95.1728 19.585 95.3518 20.393 95.7098 21.061C96.0678 21.729 96.5548 22.239 97.1718 22.591C97.7878 22.943 98.4838 23.119 99.2598 23.119ZM99.2598 21.487C98.8138 21.487 98.4238 21.377 98.0918 21.159C97.7598 20.94 97.5018 20.619 97.3188 20.196C97.1348 19.773 97.0438 19.253 97.0438 18.636C97.0438 18.02 97.1348 17.5 97.3188 17.076C97.5018 16.653 97.7588 16.332 98.0918 16.114C98.4398 15.8908 98.8465 15.7765 99.2598 15.786C99.7058 15.786 100.095 15.895 100.427 16.114C100.76 16.332 101.017 16.654 101.201 17.077C101.384 17.5 101.476 18.02 101.476 18.637C101.476 19.253 101.384 19.773 101.201 20.196C101.017 20.619 100.76 20.94 100.427 21.159C100.079 21.3821 99.6728 21.4963 99.2598 21.487Z" fill="#MENU_COLOR" class="svgc_invert" filter="url(#filter_readability_theme_beauty)"></path>
        </g>
        <g class="s_intro_pill">
            <path d="M700 37H0V270H700V37Z" fill="#FFFFFF"></path>
            <rect x="539" y="70" width="91" height="183" rx="45.5" fill="url(#theme_beauty_library_image_14_id)" class="img_reference_library_image_14"></rect>
            <rect x="70" y="53" width="82" height="164" rx="41" fill="url(#theme_beauty_library_image_10_id)" class="img_reference_library_image_10"></rect>
            <path d="M292.534 117L287.407 95.5254H291.845L295.083 110.276L299.008 95.5254H304.165L307.929 110.525L311.225 95.5254H315.59L310.376 117H305.776L301.499 100.945L297.236 117H292.534ZM326.24 112.049L330.341 112.737C329.814 114.241 328.979 115.389 327.837 116.18C326.704 116.961 325.283 117.352 323.574 117.352C320.869 117.352 318.867 116.468 317.568 114.7C316.543 113.284 316.03 111.497 316.03 109.339C316.03 106.761 316.704 104.744 318.051 103.289C319.399 101.824 321.103 101.092 323.164 101.092C325.478 101.092 327.304 101.858 328.642 103.392C329.98 104.915 330.62 107.254 330.561 110.408H320.249C320.278 111.629 320.61 112.581 321.245 113.265C321.88 113.938 322.671 114.275 323.618 114.275C324.262 114.275 324.804 114.1 325.244 113.748C325.683 113.396 326.015 112.83 326.24 112.049ZM326.474 107.889C326.445 106.697 326.137 105.794 325.551 105.179C324.965 104.554 324.253 104.241 323.413 104.241C322.514 104.241 321.772 104.568 321.186 105.223C320.6 105.877 320.312 106.766 320.322 107.889H326.474ZM333.93 117V95.5254H338.047V117H333.93ZM355.844 106.043L351.787 106.775C351.65 105.965 351.338 105.354 350.849 104.944C350.371 104.534 349.746 104.329 348.974 104.329C347.949 104.329 347.129 104.686 346.513 105.398C345.908 106.102 345.605 107.283 345.605 108.943C345.605 110.789 345.913 112.093 346.528 112.854C347.153 113.616 347.988 113.997 349.033 113.997C349.814 113.997 350.454 113.777 350.952 113.338C351.45 112.889 351.801 112.122 352.006 111.038L356.049 111.727C355.63 113.582 354.824 114.983 353.632 115.931C352.441 116.878 350.844 117.352 348.842 117.352C346.567 117.352 344.751 116.634 343.393 115.198C342.046 113.763 341.372 111.775 341.372 109.236C341.372 106.668 342.05 104.671 343.408 103.245C344.765 101.81 346.601 101.092 348.916 101.092C350.81 101.092 352.314 101.502 353.427 102.322C354.55 103.133 355.356 104.373 355.844 106.043ZM358.027 109.002C358.027 107.635 358.364 106.312 359.038 105.032C359.712 103.753 360.664 102.776 361.894 102.103C363.134 101.429 364.516 101.092 366.04 101.092C368.393 101.092 370.322 101.858 371.826 103.392C373.33 104.915 374.082 106.844 374.082 109.178C374.082 111.531 373.32 113.484 371.797 115.037C370.283 116.58 368.374 117.352 366.069 117.352C364.643 117.352 363.281 117.029 361.982 116.385C360.693 115.74 359.712 114.798 359.038 113.558C358.364 112.308 358.027 110.789 358.027 109.002ZM362.246 109.222C362.246 110.765 362.612 111.946 363.344 112.767C364.077 113.587 364.98 113.997 366.054 113.997C367.129 113.997 368.027 113.587 368.75 112.767C369.482 111.946 369.848 110.755 369.848 109.192C369.848 107.669 369.482 106.497 368.75 105.677C368.027 104.856 367.129 104.446 366.054 104.446C364.98 104.446 364.077 104.856 363.344 105.677C362.612 106.497 362.246 107.679 362.246 109.222ZM377.011 101.443H380.805V103.567C382.163 101.917 383.779 101.092 385.654 101.092C386.65 101.092 387.514 101.297 388.247 101.707C388.979 102.117 389.58 102.737 390.048 103.567C390.732 102.737 391.469 102.117 392.26 101.707C393.051 101.297 393.896 101.092 394.795 101.092C395.937 101.092 396.904 101.326 397.695 101.795C398.486 102.254 399.077 102.933 399.467 103.831C399.751 104.495 399.892 105.569 399.892 107.054V117H395.776V108.108C395.776 106.565 395.634 105.569 395.351 105.12C394.97 104.534 394.384 104.241 393.593 104.241C393.017 104.241 392.475 104.417 391.967 104.769C391.46 105.12 391.093 105.638 390.869 106.321C390.644 106.995 390.532 108.064 390.532 109.529V117H386.416V108.475C386.416 106.961 386.342 105.984 386.196 105.545C386.049 105.105 385.82 104.778 385.507 104.563C385.205 104.349 384.79 104.241 384.262 104.241C383.628 104.241 383.056 104.412 382.548 104.754C382.041 105.096 381.674 105.589 381.45 106.233C381.235 106.878 381.128 107.947 381.128 109.441V117H377.011V101.443ZM413.017 112.049L417.119 112.737C416.591 114.241 415.756 115.389 414.614 116.18C413.481 116.961 412.06 117.352 410.351 117.352C407.646 117.352 405.644 116.468 404.345 114.7C403.32 113.284 402.807 111.497 402.807 109.339C402.807 106.761 403.481 104.744 404.829 103.289C406.176 101.824 407.881 101.092 409.941 101.092C412.256 101.092 414.082 101.858 415.42 103.392C416.757 104.915 417.397 107.254 417.339 110.408H407.026C407.055 111.629 407.387 112.581 408.022 113.265C408.657 113.938 409.448 114.275 410.395 114.275C411.04 114.275 411.582 114.1 412.021 113.748C412.461 113.396 412.793 112.83 413.017 112.049ZM413.252 107.889C413.222 106.697 412.915 105.794 412.329 105.179C411.743 104.554 411.03 104.241 410.19 104.241C409.292 104.241 408.549 104.568 407.964 105.223C407.378 105.877 407.089 106.766 407.099 107.889H413.252Z" fill="#FFFFFF" class="svgc_invert" filter="url(#filter_readability_theme_beauty)"></path>
            <path d="M291.893 154V132.525H298.382L302.279 147.174L306.131 132.525H312.635V154H308.607V137.096L304.344 154H300.169L295.921 137.096V154H291.893ZM325.921 149.049L330.023 149.737C329.495 151.241 328.661 152.389 327.518 153.18C326.385 153.961 324.964 154.352 323.255 154.352C320.55 154.352 318.548 153.468 317.249 151.7C316.224 150.284 315.711 148.497 315.711 146.339C315.711 143.761 316.385 141.744 317.733 140.289C319.08 138.824 320.785 138.092 322.845 138.092C325.16 138.092 326.986 138.858 328.324 140.392C329.662 141.915 330.301 144.254 330.243 147.408H319.93C319.959 148.629 320.291 149.581 320.926 150.265C321.561 150.938 322.352 151.275 323.299 151.275C323.944 151.275 324.486 151.1 324.925 150.748C325.365 150.396 325.697 149.83 325.921 149.049ZM326.156 144.889C326.126 143.697 325.819 142.794 325.233 142.179C324.647 141.554 323.934 141.241 323.094 141.241C322.196 141.241 321.453 141.568 320.868 142.223C320.282 142.877 319.994 143.766 320.003 144.889H326.156ZM332.162 149.562L336.292 148.932C336.468 149.732 336.825 150.343 337.362 150.763C337.899 151.173 338.651 151.378 339.618 151.378C340.682 151.378 341.483 151.183 342.02 150.792C342.381 150.519 342.562 150.152 342.562 149.693C342.562 149.381 342.464 149.122 342.269 148.917C342.064 148.722 341.605 148.541 340.892 148.375C337.572 147.643 335.467 146.974 334.578 146.368C333.348 145.528 332.733 144.361 332.733 142.867C332.733 141.52 333.265 140.387 334.329 139.469C335.394 138.551 337.044 138.092 339.281 138.092C341.41 138.092 342.992 138.438 344.027 139.132C345.062 139.825 345.775 140.851 346.165 142.208L342.284 142.926C342.118 142.32 341.8 141.856 341.331 141.534C340.872 141.212 340.213 141.051 339.354 141.051C338.27 141.051 337.494 141.202 337.025 141.505C336.712 141.72 336.556 141.998 336.556 142.34C336.556 142.633 336.693 142.882 336.966 143.087C337.337 143.36 338.617 143.746 340.804 144.244C343.001 144.742 344.535 145.353 345.404 146.075C346.263 146.808 346.693 147.828 346.693 149.137C346.693 150.562 346.097 151.788 344.906 152.813C343.714 153.839 341.952 154.352 339.618 154.352C337.498 154.352 335.819 153.922 334.578 153.062C333.348 152.203 332.542 151.036 332.162 149.562ZM348.861 149.562L352.992 148.932C353.167 149.732 353.524 150.343 354.061 150.763C354.598 151.173 355.35 151.378 356.317 151.378C357.381 151.378 358.182 151.183 358.719 150.792C359.08 150.519 359.261 150.152 359.261 149.693C359.261 149.381 359.163 149.122 358.968 148.917C358.763 148.722 358.304 148.541 357.591 148.375C354.271 147.643 352.166 146.974 351.278 146.368C350.047 145.528 349.432 144.361 349.432 142.867C349.432 141.52 349.964 140.387 351.029 139.469C352.093 138.551 353.744 138.092 355.98 138.092C358.109 138.092 359.691 138.438 360.726 139.132C361.761 139.825 362.474 140.851 362.865 142.208L358.983 142.926C358.817 142.32 358.499 141.856 358.031 141.534C357.572 141.212 356.912 141.051 356.053 141.051C354.969 141.051 354.193 141.202 353.724 141.505C353.412 141.72 353.255 141.998 353.255 142.34C353.255 142.633 353.392 142.882 353.665 143.087C354.037 143.36 355.316 143.746 357.503 144.244C359.701 144.742 361.234 145.353 362.103 146.075C362.962 146.808 363.392 147.828 363.392 149.137C363.392 150.562 362.796 151.788 361.605 152.813C360.413 153.839 358.651 154.352 356.317 154.352C354.198 154.352 352.518 153.922 351.278 153.062C350.047 152.203 349.242 151.036 348.861 149.562ZM370.086 143.189L366.351 142.516C366.771 141.012 367.494 139.898 368.519 139.176C369.544 138.453 371.068 138.092 373.089 138.092C374.925 138.092 376.292 138.312 377.191 138.751C378.089 139.181 378.719 139.732 379.08 140.406C379.452 141.07 379.637 142.296 379.637 144.083L379.593 148.888C379.593 150.255 379.657 151.266 379.784 151.92C379.92 152.564 380.169 153.258 380.531 154H376.458C376.351 153.727 376.219 153.321 376.063 152.784C375.995 152.54 375.946 152.379 375.916 152.301C375.213 152.984 374.461 153.497 373.661 153.839C372.86 154.181 372.005 154.352 371.097 154.352C369.495 154.352 368.231 153.917 367.303 153.048C366.385 152.179 365.926 151.08 365.926 149.752C365.926 148.873 366.136 148.092 366.556 147.408C366.976 146.715 367.562 146.188 368.314 145.826C369.076 145.455 370.169 145.133 371.595 144.859C373.519 144.498 374.852 144.161 375.594 143.849V143.438C375.594 142.647 375.399 142.086 375.008 141.754C374.618 141.412 373.88 141.241 372.796 141.241C372.064 141.241 371.493 141.388 371.082 141.681C370.672 141.964 370.34 142.467 370.086 143.189ZM375.594 146.529C375.067 146.705 374.232 146.915 373.089 147.159C371.947 147.403 371.2 147.643 370.848 147.877C370.311 148.258 370.042 148.741 370.042 149.327C370.042 149.903 370.257 150.401 370.687 150.821C371.117 151.241 371.663 151.451 372.328 151.451C373.07 151.451 373.778 151.207 374.452 150.719C374.95 150.348 375.277 149.894 375.433 149.356C375.54 149.005 375.594 148.336 375.594 147.35V146.529ZM383.328 155.025L388.031 155.597C388.109 156.144 388.289 156.52 388.573 156.725C388.963 157.018 389.578 157.164 390.418 157.164C391.493 157.164 392.298 157.003 392.835 156.681C393.197 156.466 393.47 156.119 393.656 155.641C393.783 155.299 393.846 154.669 393.846 153.751V151.48C392.616 153.16 391.063 154 389.188 154C387.098 154 385.443 153.116 384.222 151.349C383.265 149.952 382.787 148.214 382.787 146.134C382.787 143.526 383.412 141.534 384.662 140.157C385.921 138.78 387.484 138.092 389.349 138.092C391.273 138.092 392.86 138.937 394.11 140.626V138.443H397.962V152.403C397.962 154.239 397.811 155.611 397.508 156.52C397.205 157.428 396.781 158.141 396.234 158.658C395.687 159.176 394.954 159.581 394.037 159.874C393.128 160.167 391.976 160.313 390.579 160.313C387.943 160.313 386.073 159.859 384.969 158.951C383.866 158.053 383.314 156.91 383.314 155.523C383.314 155.387 383.319 155.221 383.328 155.025ZM387.005 145.899C387.005 147.55 387.323 148.761 387.957 149.532C388.602 150.294 389.393 150.675 390.33 150.675C391.336 150.675 392.186 150.284 392.879 149.503C393.573 148.712 393.919 147.545 393.919 146.002C393.919 144.391 393.587 143.194 392.923 142.413C392.259 141.632 391.419 141.241 390.404 141.241C389.417 141.241 388.602 141.627 387.957 142.398C387.323 143.16 387.005 144.327 387.005 145.899ZM411.058 149.049L415.16 149.737C414.632 151.241 413.797 152.389 412.655 153.18C411.522 153.961 410.101 154.352 408.392 154.352C405.687 154.352 403.685 153.468 402.386 151.7C401.361 150.284 400.848 148.497 400.848 146.339C400.848 143.761 401.522 141.744 402.87 140.289C404.217 138.824 405.921 138.092 407.982 138.092C410.296 138.092 412.122 138.858 413.46 140.392C414.798 141.915 415.438 144.254 415.379 147.408H405.067C405.096 148.629 405.428 149.581 406.063 150.265C406.698 150.938 407.489 151.275 408.436 151.275C409.08 151.275 409.622 151.1 410.062 150.748C410.501 150.396 410.833 149.83 411.058 149.049ZM411.292 144.889C411.263 143.697 410.955 142.794 410.37 142.179C409.784 141.554 409.071 141.241 408.231 141.241C407.332 141.241 406.59 141.568 406.004 142.223C405.418 142.877 405.13 143.766 405.14 144.889H411.292Z" fill="#FFFFFF" class="svgc_invert" filter="url(#filter_readability_theme_beauty)"></path>
            <path d="M386 181H320C312.268 181 306 187.268 306 195C306 202.732 312.268 209 320 209H386C393.732 209 400 202.732 400 195C400 187.268 393.732 181 386 181Z" fill="#3AADAA"></path>
            <path d="M330.795 190.921H333.701C334.356 190.921 334.855 190.971 335.199 191.071C335.661 191.207 336.057 191.449 336.386 191.797C336.716 192.144 336.966 192.57 337.138 193.075C337.31 193.576 337.396 194.196 337.396 194.933C337.396 195.581 337.315 196.14 337.154 196.609C336.957 197.182 336.676 197.646 336.311 198C336.035 198.269 335.663 198.478 335.194 198.629C334.843 198.74 334.374 198.795 333.787 198.795H330.795V190.921ZM332.385 192.253V197.468H333.572C334.016 197.468 334.336 197.443 334.533 197.393C334.791 197.329 335.004 197.22 335.172 197.066C335.344 196.912 335.484 196.659 335.591 196.308C335.699 195.954 335.752 195.472 335.752 194.863C335.752 194.255 335.699 193.787 335.591 193.462C335.484 193.136 335.333 192.881 335.14 192.699C334.947 192.516 334.701 192.393 334.404 192.328C334.182 192.278 333.747 192.253 333.099 192.253H332.385ZM338.739 192.318V190.921H340.248V192.318H338.739ZM338.739 198.795V193.091H340.248V198.795H338.739ZM341.269 197.168L342.783 196.937C342.848 197.23 342.978 197.454 343.175 197.608C343.372 197.758 343.648 197.834 344.002 197.834C344.393 197.834 344.686 197.762 344.883 197.619C345.016 197.519 345.082 197.384 345.082 197.216C345.082 197.101 345.046 197.006 344.975 196.931C344.899 196.86 344.731 196.793 344.47 196.733C343.252 196.464 342.481 196.219 342.155 195.997C341.704 195.689 341.478 195.261 341.478 194.713C341.478 194.219 341.673 193.804 342.063 193.467C342.454 193.13 343.059 192.962 343.879 192.962C344.66 192.962 345.24 193.089 345.619 193.343C345.999 193.598 346.26 193.974 346.403 194.471L344.98 194.734C344.919 194.512 344.803 194.342 344.631 194.224C344.463 194.106 344.221 194.047 343.906 194.047C343.508 194.047 343.224 194.102 343.052 194.214C342.937 194.292 342.88 194.394 342.88 194.52C342.88 194.627 342.93 194.718 343.03 194.794C343.166 194.894 343.635 195.035 344.438 195.218C345.243 195.401 345.805 195.624 346.124 195.889C346.439 196.158 346.597 196.532 346.597 197.012C346.597 197.535 346.378 197.984 345.941 198.36C345.505 198.736 344.858 198.924 344.002 198.924C343.225 198.924 342.61 198.766 342.155 198.451C341.704 198.136 341.408 197.708 341.269 197.168ZM352.897 194.777L351.409 195.046C351.359 194.749 351.244 194.525 351.065 194.375C350.89 194.224 350.661 194.149 350.378 194.149C350.002 194.149 349.701 194.28 349.476 194.541C349.254 194.799 349.143 195.232 349.143 195.841C349.143 196.518 349.255 196.996 349.481 197.275C349.71 197.554 350.016 197.694 350.399 197.694C350.686 197.694 350.92 197.613 351.103 197.452C351.286 197.288 351.415 197.006 351.49 196.609L352.972 196.861C352.818 197.542 352.523 198.056 352.086 198.403C351.649 198.75 351.064 198.924 350.33 198.924C349.495 198.924 348.829 198.661 348.332 198.134C347.837 197.608 347.59 196.879 347.59 195.948C347.59 195.007 347.839 194.274 348.337 193.752C348.835 193.225 349.508 192.962 350.356 192.962C351.051 192.962 351.603 193.112 352.011 193.413C352.423 193.71 352.718 194.165 352.897 194.777ZM353.697 195.862C353.697 195.361 353.821 194.876 354.068 194.407C354.315 193.938 354.664 193.58 355.115 193.333C355.57 193.086 356.077 192.962 356.635 192.962C357.498 192.962 358.205 193.243 358.757 193.805C359.308 194.364 359.584 195.071 359.584 195.927C359.584 196.79 359.305 197.506 358.746 198.075C358.191 198.641 357.491 198.924 356.646 198.924C356.123 198.924 355.624 198.806 355.147 198.569C354.675 198.333 354.315 197.988 354.068 197.533C353.821 197.075 353.697 196.518 353.697 195.862ZM355.244 195.943C355.244 196.509 355.378 196.942 355.647 197.243C355.916 197.544 356.247 197.694 356.641 197.694C357.035 197.694 357.364 197.544 357.629 197.243C357.897 196.942 358.032 196.505 358.032 195.932C358.032 195.374 357.897 194.944 357.629 194.643C357.364 194.342 357.035 194.192 356.641 194.192C356.247 194.192 355.916 194.342 355.647 194.643C355.378 194.944 355.244 195.377 355.244 195.943ZM362.339 198.795L360.041 193.091H361.625L362.699 196.002L363.011 196.974C363.093 196.727 363.145 196.564 363.167 196.485C363.217 196.324 363.27 196.163 363.328 196.002L364.413 193.091H365.965L363.698 198.795H362.339ZM370.197 196.98L371.701 197.232C371.508 197.783 371.202 198.204 370.783 198.494C370.367 198.781 369.846 198.924 369.22 198.924C368.228 198.924 367.494 198.6 367.018 197.952C366.642 197.433 366.454 196.777 366.454 195.986C366.454 195.041 366.701 194.301 367.195 193.768C367.689 193.231 368.314 192.962 369.069 192.962C369.918 192.962 370.588 193.243 371.078 193.805C371.569 194.364 371.803 195.221 371.782 196.378H368C368.011 196.826 368.133 197.175 368.366 197.425C368.598 197.672 368.889 197.796 369.236 197.796C369.472 197.796 369.671 197.732 369.832 197.603C369.993 197.474 370.115 197.266 370.197 196.98ZM370.283 195.454C370.272 195.017 370.16 194.686 369.945 194.461C369.73 194.231 369.469 194.117 369.161 194.117C368.831 194.117 368.559 194.237 368.344 194.477C368.129 194.717 368.024 195.042 368.027 195.454H370.283ZM374.462 198.795H372.953V193.091H374.354V193.902C374.594 193.519 374.809 193.266 374.999 193.145C375.192 193.023 375.411 192.962 375.654 192.962C375.998 192.962 376.329 193.057 376.648 193.247L376.181 194.563C375.926 194.398 375.69 194.316 375.472 194.316C375.26 194.316 375.081 194.375 374.935 194.493C374.788 194.607 374.671 194.817 374.585 195.121C374.503 195.426 374.462 196.063 374.462 197.033V198.795Z" fill="#3AADAA" class="svgc_invert" filter="url(#filter_readability_theme_beauty)"></path>
        </g>
        <g class="s_masonry">
            <rect y="270" width="700" height="260" fill="#FFFFFF"></rect>
            <rect x="70" y="283" width="134" height="66" rx="4" fill="#7C6576"></rect>
            <rect x="212" y="283" width="133" height="66" rx="4" fill="#F6F6F6"></rect>
            <rect x="353" y="451" width="135" height="66" rx="4" fill="#F6F6F6"></rect>
            <rect x="496" y="451" width="134" height="66" rx="4" fill="#3AADAA"></rect>
            <path d="M145 313H79V315H145V313Z" fill="#7C6576" fill-opacity="0.4" class="svgc_invert" filter="url(#filter_readability_theme_beauty)"></path>
            <path d="M149 295H79V303H149V295Z" fill="#7C6576" fill-opacity="0.4" class="svgc_invert" filter="url(#filter_readability_theme_beauty)"></path>
            <path d="M287 313H221V315H287V313Z" fill="#F6F6F6" fill-opacity="0.4" class="svgc_invert" filter="url(#filter_readability_theme_beauty)"></path>
            <path d="M429 481H363V483H429V481Z" fill="#F6F6F6" fill-opacity="0.4" class="svgc_invert" filter="url(#filter_readability_theme_beauty)"></path>
            <path d="M291 295H221V303H291V295Z" fill="#F6F6F6" fill-opacity="0.4" class="svgc_invert" filter="url(#filter_readability_theme_beauty)"></path>
            <path d="M433 463H363V471H433V463Z" fill="#F6F6F6" fill-opacity="0.4" class="svgc_invert" filter="url(#filter_readability_theme_beauty)"></path>
            <path d="M570 481H504V483H570V481Z" fill="#3AADAA" fill-opacity="0.4" class="svgc_invert" filter="url(#filter_readability_theme_beauty)"></path>
            <path d="M574 463H504V471H574V463Z" fill="#3AADAA" fill-opacity="0.4" class="svgc_invert" filter="url(#filter_readability_theme_beauty)"></path>
            <rect x="353" y="283" width="277" height="160" rx="4" fill="url(#theme_beauty_s_text_image_default_image_id)" class="img_reference_s_masonry_block_default_image_2"></rect>
            <rect x="70" y="357" width="275" height="160" rx="4" fill="url(#theme_beauty_s_masonry_block_default_image_1_id)" class="img_reference_s_masonry_block_default_image_1"></rect>
        </g>
        <g class="s_pricelist_boxed">
            <rect y="530" width="700" height="431" fill="url(#theme_beauty_s_product_catalog_default_image_id)" class="img_reference_s_product_catalog_default_image"></rect>
            <g>
                <path d="M700 530H0V633L700 674V530Z" fill="#FFFFFF"></path>
                <path d="M700 819.5L0 859V961H700V819.5Z" fill="#FFFFFF"></path>
            </g>
            <g>
                <rect x="110" y="541" width="201" height="410" fill="#FFFFFF"></rect>
                <rect x="116" y="541" width="189" height="410" fill="#F6F6F6"></rect>
                <path d="M163.455 585V570.684H174.07V573.105H166.346V576.279H173.533V578.691H166.346V582.588H174.344V585H163.455ZM186.209 585H183.465V579.707C183.465 578.587 183.406 577.865 183.289 577.539C183.172 577.207 182.98 576.95 182.713 576.768C182.452 576.585 182.137 576.494 181.766 576.494C181.29 576.494 180.864 576.624 180.486 576.885C180.109 577.145 179.848 577.49 179.705 577.92C179.568 578.35 179.5 579.144 179.5 580.303V585H176.756V574.629H179.305V576.152C180.21 574.98 181.349 574.395 182.723 574.395C183.328 574.395 183.882 574.505 184.383 574.727C184.884 574.941 185.262 575.218 185.516 575.557C185.776 575.895 185.955 576.279 186.053 576.709C186.157 577.139 186.209 577.754 186.209 578.555V585ZM193.758 574.629V576.816H191.883V580.996C191.883 581.842 191.899 582.337 191.932 582.48C191.971 582.617 192.052 582.731 192.176 582.822C192.306 582.913 192.462 582.959 192.645 582.959C192.898 582.959 193.266 582.871 193.748 582.695L193.982 584.824C193.344 585.098 192.622 585.234 191.814 585.234C191.32 585.234 190.874 585.153 190.477 584.99C190.079 584.821 189.786 584.606 189.598 584.346C189.415 584.079 189.288 583.721 189.217 583.271C189.158 582.952 189.129 582.308 189.129 581.338V576.816H187.869V574.629H189.129V572.568L191.883 570.967V574.629H193.758ZM198.289 585H195.545V574.629H198.094V576.104C198.53 575.407 198.921 574.948 199.266 574.727C199.617 574.505 200.014 574.395 200.457 574.395C201.082 574.395 201.684 574.567 202.264 574.912L201.414 577.305C200.952 577.005 200.522 576.855 200.125 576.855C199.741 576.855 199.415 576.963 199.148 577.178C198.882 577.386 198.67 577.767 198.514 578.32C198.364 578.874 198.289 580.033 198.289 581.797V585ZM202.156 574.629H205.076L207.557 581.992L209.979 574.629H212.82L209.158 584.609L208.504 586.416C208.263 587.021 208.032 587.484 207.811 587.803C207.596 588.122 207.345 588.379 207.059 588.574C206.779 588.776 206.43 588.932 206.014 589.043C205.604 589.154 205.138 589.209 204.617 589.209C204.09 589.209 203.572 589.154 203.064 589.043L202.82 586.895C203.25 586.979 203.637 587.021 203.982 587.021C204.62 587.021 205.092 586.833 205.398 586.455C205.704 586.084 205.939 585.609 206.102 585.029L202.156 574.629ZM223.396 585V573.105H219.148V570.684H230.525V573.105H226.287V585H223.396ZM232.01 573.223V570.684H234.754V573.223H232.01ZM232.01 585V574.629H234.754V585H232.01ZM242.332 574.629V576.816H240.457V580.996C240.457 581.842 240.473 582.337 240.506 582.48C240.545 582.617 240.626 582.731 240.75 582.822C240.88 582.913 241.036 582.959 241.219 582.959C241.473 582.959 241.84 582.871 242.322 582.695L242.557 584.824C241.919 585.098 241.196 585.234 240.389 585.234C239.894 585.234 239.448 585.153 239.051 584.99C238.654 584.821 238.361 584.606 238.172 584.346C237.99 584.079 237.863 583.721 237.791 583.271C237.732 582.952 237.703 582.308 237.703 581.338V576.816H236.443V574.629H237.703V572.568L240.457 570.967V574.629H242.332ZM244.236 585V570.684H246.98V585H244.236ZM255.809 581.699L258.543 582.158C258.191 583.161 257.635 583.926 256.873 584.453C256.118 584.974 255.171 585.234 254.031 585.234C252.228 585.234 250.893 584.645 250.027 583.467C249.344 582.523 249.002 581.331 249.002 579.893C249.002 578.174 249.451 576.829 250.35 575.859C251.248 574.883 252.384 574.395 253.758 574.395C255.301 574.395 256.518 574.906 257.41 575.928C258.302 576.943 258.729 578.503 258.689 580.605H251.814C251.834 581.419 252.055 582.054 252.479 582.51C252.902 582.959 253.429 583.184 254.061 583.184C254.49 583.184 254.852 583.066 255.145 582.832C255.438 582.598 255.659 582.22 255.809 581.699ZM255.965 578.926C255.945 578.132 255.74 577.529 255.35 577.119C254.959 576.702 254.484 576.494 253.924 576.494C253.325 576.494 252.83 576.712 252.439 577.148C252.049 577.585 251.857 578.177 251.863 578.926H255.965Z" fill="#F6F6F6" class="svgc_invert" filter="url(#filter_readability_theme_beauty)"></path>
                <path d="M264 608H149V610H264V608Z" fill="#F6F6F6" fill-opacity="0.4" class="svgc_invert" filter="url(#filter_readability_theme_beauty)"></path>
                <path d="M264 616H149V618H264V616Z" fill="#F6F6F6" fill-opacity="0.4" class="svgc_invert" filter="url(#filter_readability_theme_beauty)"></path>
                <path d="M274 612H139V614H274V612Z" fill="#F6F6F6" fill-opacity="0.4" class="svgc_invert" filter="url(#filter_readability_theme_beauty)"></path>
                <path d="M279 840H133V842H279V840Z" fill="#F6F6F6" fill-opacity="0.4" class="svgc_invert" filter="url(#filter_readability_theme_beauty)"></path>
                <path d="M268 845H133V847H268V845Z" fill="#F6F6F6" fill-opacity="0.4" class="svgc_invert" filter="url(#filter_readability_theme_beauty)"></path>
                <path d="M259 850H133V852H259V850Z" fill="#F6F6F6" fill-opacity="0.4" class="svgc_invert" filter="url(#filter_readability_theme_beauty)"></path>
                <path d="M267 830H201V831H267V830Z" fill="#F6F6F6" fill-opacity="0.4" class="svgc_invert" filter="url(#filter_readability_theme_beauty)"></path>
                <path d="M195 828H133V833H195V828Z" fill="#F6F6F6" class="svgc_invert" filter="url(#filter_readability_theme_beauty)"></path>
                <path d="M288 828H273V833H288V828Z" fill="#F6F6F6" class="svgc_invert" filter="url(#filter_readability_theme_beauty)"></path>
                <path d="M279 879H133V881H279V879Z" fill="#F6F6F6" fill-opacity="0.4" class="svgc_invert" filter="url(#filter_readability_theme_beauty)"></path>
                <path d="M268 884H133V886H268V884Z" fill="#F6F6F6" fill-opacity="0.4" class="svgc_invert" filter="url(#filter_readability_theme_beauty)"></path>
                <path d="M259 889H133V891H259V889Z" fill="#F6F6F6" fill-opacity="0.4" class="svgc_invert" filter="url(#filter_readability_theme_beauty)"></path>
                <path d="M267 869H201V870H267V869Z" fill="#F6F6F6" fill-opacity="0.4" class="svgc_invert" filter="url(#filter_readability_theme_beauty)"></path>
                <path d="M195 867H133V872H195V867Z" fill="#F6F6F6" class="svgc_invert" filter="url(#filter_readability_theme_beauty)"></path>
                <path d="M288 867H273V872H288V867Z" fill="#F6F6F6" class="svgc_invert" filter="url(#filter_readability_theme_beauty)"></path>
                <path d="M279 918H133V920H279V918Z" fill="#F6F6F6" fill-opacity="0.4" class="svgc_invert" filter="url(#filter_readability_theme_beauty)"></path>
                <path d="M268 923H133V925H268V923Z" fill="#F6F6F6" fill-opacity="0.4" class="svgc_invert" filter="url(#filter_readability_theme_beauty)"></path>
                <path d="M259 928H133V930H259V928Z" fill="#F6F6F6" fill-opacity="0.4" class="svgc_invert" filter="url(#filter_readability_theme_beauty)"></path>
                <path d="M267 908H201V909H267V908Z" fill="#F6F6F6" fill-opacity="0.4" class="svgc_invert" filter="url(#filter_readability_theme_beauty)"></path>
                <path d="M195 906H133V911H195V906Z" fill="#F6F6F6" class="svgc_invert" filter="url(#filter_readability_theme_beauty)"></path>
                <path d="M288 906H273V911H288V906Z" fill="#F6F6F6" class="svgc_invert" filter="url(#filter_readability_theme_beauty)"></path>
                <rect x="133" y="806" width="119" height="8" fill="#F6F6F6" class="svgc_invert" filter="url(#filter_readability_theme_beauty)"></rect>
                <path d="M279 694H133V696H279V694Z" fill="#F6F6F6" fill-opacity="0.4" class="svgc_invert" filter="url(#filter_readability_theme_beauty)"></path>
                <path d="M268 699H133V701H268V699Z" fill="#F6F6F6" fill-opacity="0.4" class="svgc_invert" filter="url(#filter_readability_theme_beauty)"></path>
                <path d="M259 704H133V706H259V704Z" fill="#F6F6F6" fill-opacity="0.4" class="svgc_invert" filter="url(#filter_readability_theme_beauty)"></path>
                <path d="M267 684H201V685H267V684Z" fill="#F6F6F6" fill-opacity="0.4" class="svgc_invert" filter="url(#filter_readability_theme_beauty)"></path>
                <path d="M195 682H133V687H195V682Z" fill="#F6F6F6" class="svgc_invert" filter="url(#filter_readability_theme_beauty)"></path>
                <path d="M288 682H273V687H288V682Z" fill="#F6F6F6" class="svgc_invert" filter="url(#filter_readability_theme_beauty)"></path>
                <path d="M279 733H133V735H279V733Z" fill="#F6F6F6" fill-opacity="0.4" class="svgc_invert" filter="url(#filter_readability_theme_beauty)"></path>
                <path d="M268 738H133V740H268V738Z" fill="#F6F6F6" fill-opacity="0.4" class="svgc_invert" filter="url(#filter_readability_theme_beauty)"></path>
                <path d="M259 743H133V745H259V743Z" fill="#F6F6F6" fill-opacity="0.4" class="svgc_invert" filter="url(#filter_readability_theme_beauty)"></path>
                <path d="M267 723H201V724H267V723Z" fill="#F6F6F6" fill-opacity="0.4" class="svgc_invert" filter="url(#filter_readability_theme_beauty)"></path>
                <path d="M195 721H133V726H195V721Z" fill="#F6F6F6" class="svgc_invert" filter="url(#filter_readability_theme_beauty)"></path>
                <path d="M288 721H273V726H288V721Z" fill="#F6F6F6" class="svgc_invert" filter="url(#filter_readability_theme_beauty)"></path>
                <path d="M279 772H133V774H279V772Z" fill="#F6F6F6" fill-opacity="0.4" class="svgc_invert" filter="url(#filter_readability_theme_beauty)"></path>
                <path d="M268 777H133V779H268V777Z" fill="#F6F6F6" fill-opacity="0.4" class="svgc_invert" filter="url(#filter_readability_theme_beauty)"></path>
                <path d="M259 782H133V784H259V782Z" fill="#F6F6F6" fill-opacity="0.4" class="svgc_invert" filter="url(#filter_readability_theme_beauty)"></path>
                <path d="M267 762H201V763H267V762Z" fill="#F6F6F6" fill-opacity="0.4" class="svgc_invert" filter="url(#filter_readability_theme_beauty)"></path>
                <path d="M195 760H133V765H195V760Z" fill="#F6F6F6" class="svgc_invert" filter="url(#filter_readability_theme_beauty)"></path>
                <path d="M288 760H273V765H288V760Z" fill="#F6F6F6" class="svgc_invert" filter="url(#filter_readability_theme_beauty)"></path>
                <rect x="133" y="660" width="119" height="8" fill="#F6F6F6" class="svgc_invert" filter="url(#filter_readability_theme_beauty)"></rect>
            </g>
        </g>
        <g class="s_features_wall">
            <rect y="961" width="700" height="412" fill="#FFFFFF"></rect>
            <path d="M269 1052H70V1054H269V1052Z" fill="#FFFFFF" fill-opacity="0.4" class="svgc_invert" filter="url(#filter_readability_theme_beauty)"></path>
            <path d="M218 1064H70V1066H218V1064Z" fill="#FFFFFF" fill-opacity="0.4" class="svgc_invert" filter="url(#filter_readability_theme_beauty)"></path>
            <path d="M269 1058H70V1060H269V1058Z" fill="#FFFFFF" fill-opacity="0.4" class="svgc_invert" filter="url(#filter_readability_theme_beauty)"></path>
            <path d="M70.8672 1024.41L74.2422 1024.08C74.4453 1025.21 74.8555 1026.05 75.4727 1026.58C76.0977 1027.11 76.9375 1027.38 77.9922 1027.38C79.1094 1027.38 79.9492 1027.14 80.5117 1026.67C81.082 1026.2 81.3672 1025.64 81.3672 1025.01C81.3672 1024.6 81.2461 1024.26 81.0039 1023.98C80.7695 1023.69 80.3555 1023.44 79.7617 1023.23C79.3555 1023.09 78.4297 1022.84 76.9844 1022.48C75.125 1022.02 73.8203 1021.45 73.0703 1020.78C72.0156 1019.83 71.4883 1018.68 71.4883 1017.32C71.4883 1016.45 71.7344 1015.63 72.2266 1014.87C72.7266 1014.11 73.4414 1013.52 74.3711 1013.12C75.3086 1012.73 76.4375 1012.53 77.7578 1012.53C79.9141 1012.53 81.5352 1013 82.6211 1013.95C83.7148 1014.89 84.2891 1016.15 84.3438 1017.73L80.875 1017.88C80.7266 1017 80.4062 1016.37 79.9141 1015.98C79.4297 1015.59 78.6992 1015.4 77.7227 1015.4C76.7148 1015.4 75.9258 1015.61 75.3555 1016.02C74.9883 1016.29 74.8047 1016.64 74.8047 1017.09C74.8047 1017.49 74.9766 1017.84 75.3203 1018.13C75.7578 1018.5 76.8203 1018.88 78.5078 1019.28C80.1953 1019.68 81.4414 1020.09 82.2461 1020.52C83.0586 1020.94 83.6914 1021.52 84.1445 1022.27C84.6055 1023 84.8359 1023.91 84.8359 1025C84.8359 1025.98 84.5625 1026.9 84.0156 1027.76C83.4688 1028.62 82.6953 1029.26 81.6953 1029.68C80.6953 1030.1 79.4492 1030.3 77.957 1030.3C75.7852 1030.3 74.1172 1029.8 72.9531 1028.8C71.7891 1027.8 71.0938 1026.33 70.8672 1024.41ZM94.9375 1026.04L98.2188 1026.59C97.7969 1027.79 97.1289 1028.71 96.2148 1029.34C95.3086 1029.97 94.1719 1030.28 92.8047 1030.28C90.6406 1030.28 89.0391 1029.57 88 1028.16C87.1797 1027.03 86.7695 1025.6 86.7695 1023.87C86.7695 1021.81 87.3086 1020.2 88.3867 1019.03C89.4648 1017.86 90.8281 1017.27 92.4766 1017.27C94.3281 1017.27 95.7891 1017.89 96.8594 1019.11C97.9297 1020.33 98.4414 1022.2 98.3945 1024.73H90.1445C90.168 1025.7 90.4336 1026.46 90.9414 1027.01C91.4492 1027.55 92.082 1027.82 92.8398 1027.82C93.3555 1027.82 93.7891 1027.68 94.1406 1027.4C94.4922 1027.12 94.7578 1026.66 94.9375 1026.04ZM95.125 1022.71C95.1016 1021.76 94.8555 1021.04 94.3867 1020.54C93.918 1020.04 93.3477 1019.79 92.6758 1019.79C91.957 1019.79 91.3633 1020.05 90.8945 1020.58C90.4258 1021.1 90.1953 1021.81 90.2031 1022.71H95.125ZM111.941 1021.23L108.695 1021.82C108.586 1021.17 108.336 1020.68 107.945 1020.36C107.562 1020.03 107.062 1019.86 106.445 1019.86C105.625 1019.86 104.969 1020.15 104.477 1020.72C103.992 1021.28 103.75 1022.23 103.75 1023.55C103.75 1025.03 103.996 1026.07 104.488 1026.68C104.988 1027.29 105.656 1027.6 106.492 1027.6C107.117 1027.6 107.629 1027.42 108.027 1027.07C108.426 1026.71 108.707 1026.1 108.871 1025.23L112.105 1025.78C111.77 1027.27 111.125 1028.39 110.172 1029.14C109.219 1029.9 107.941 1030.28 106.34 1030.28C104.52 1030.28 103.066 1029.71 101.98 1028.56C100.902 1027.41 100.363 1025.82 100.363 1023.79C100.363 1021.73 100.906 1020.14 101.992 1019C103.078 1017.85 104.547 1017.27 106.398 1017.27C107.914 1017.27 109.117 1017.6 110.008 1018.26C110.906 1018.91 111.551 1019.9 111.941 1021.23ZM120.156 1017.55V1020.18H117.906V1025.2C117.906 1026.21 117.926 1026.8 117.965 1026.98C118.012 1027.14 118.109 1027.28 118.258 1027.39C118.414 1027.5 118.602 1027.55 118.82 1027.55C119.125 1027.55 119.566 1027.45 120.145 1027.23L120.426 1029.79C119.66 1030.12 118.793 1030.28 117.824 1030.28C117.23 1030.28 116.695 1030.18 116.219 1029.99C115.742 1029.79 115.391 1029.53 115.164 1029.21C114.945 1028.89 114.793 1028.46 114.707 1027.93C114.637 1027.54 114.602 1026.77 114.602 1025.61V1020.18H113.09V1017.55H114.602V1015.08L117.906 1013.16V1017.55H120.156ZM122.441 1015.87V1012.82H125.734V1015.87H122.441ZM122.441 1030V1017.55H125.734V1030H122.441ZM128.359 1023.6C128.359 1022.51 128.629 1021.45 129.168 1020.43C129.707 1019.4 130.469 1018.62 131.453 1018.08C132.445 1017.54 133.551 1017.27 134.77 1017.27C136.652 1017.27 138.195 1017.89 139.398 1019.11C140.602 1020.33 141.203 1021.88 141.203 1023.74C141.203 1025.62 140.594 1027.19 139.375 1028.43C138.164 1029.66 136.637 1030.28 134.793 1030.28C133.652 1030.28 132.562 1030.02 131.523 1029.51C130.492 1028.99 129.707 1028.24 129.168 1027.25C128.629 1026.25 128.359 1025.03 128.359 1023.6ZM131.734 1023.78C131.734 1025.01 132.027 1025.96 132.613 1026.61C133.199 1027.27 133.922 1027.6 134.781 1027.6C135.641 1027.6 136.359 1027.27 136.938 1026.61C137.523 1025.96 137.816 1025 137.816 1023.75C137.816 1022.54 137.523 1021.6 136.938 1020.94C136.359 1020.29 135.641 1019.96 134.781 1019.96C133.922 1019.96 133.199 1020.29 132.613 1020.94C132.027 1021.6 131.734 1022.54 131.734 1023.78ZM155.113 1030H151.82V1023.65C151.82 1022.3 151.75 1021.44 151.609 1021.05C151.469 1020.65 151.238 1020.34 150.918 1020.12C150.605 1019.9 150.227 1019.79 149.781 1019.79C149.211 1019.79 148.699 1019.95 148.246 1020.26C147.793 1020.57 147.48 1020.99 147.309 1021.5C147.145 1022.02 147.062 1022.97 147.062 1024.36V1030H143.77V1017.55H146.828V1019.38C147.914 1017.98 149.281 1017.27 150.93 1017.27C151.656 1017.27 152.32 1017.41 152.922 1017.67C153.523 1017.93 153.977 1018.26 154.281 1018.67C154.594 1019.07 154.809 1019.54 154.926 1020.05C155.051 1020.57 155.113 1021.3 155.113 1022.27V1030ZM169.035 1030V1015.73H163.938V1012.82H177.59V1015.73H172.504V1030H169.035ZM179.371 1015.87V1012.82H182.664V1015.87H179.371ZM179.371 1030V1017.55H182.664V1030H179.371ZM191.758 1017.55V1020.18H189.508V1025.2C189.508 1026.21 189.527 1026.8 189.566 1026.98C189.613 1027.14 189.711 1027.28 189.859 1027.39C190.016 1027.5 190.203 1027.55 190.422 1027.55C190.727 1027.55 191.168 1027.45 191.746 1027.23L192.027 1029.79C191.262 1030.12 190.395 1030.28 189.426 1030.28C188.832 1030.28 188.297 1030.18 187.82 1029.99C187.344 1029.79 186.992 1029.53 186.766 1029.21C186.547 1028.89 186.395 1028.46 186.309 1027.93C186.238 1027.54 186.203 1026.77 186.203 1025.61V1020.18H184.691V1017.55H186.203V1015.08L189.508 1013.16V1017.55H191.758ZM194.043 1030V1012.82H197.336V1030H194.043ZM207.93 1026.04L211.211 1026.59C210.789 1027.79 210.121 1028.71 209.207 1029.34C208.301 1029.97 207.164 1030.28 205.797 1030.28C203.633 1030.28 202.031 1029.57 200.992 1028.16C200.172 1027.03 199.762 1025.6 199.762 1023.87C199.762 1021.81 200.301 1020.2 201.379 1019.03C202.457 1017.86 203.82 1017.27 205.469 1017.27C207.32 1017.27 208.781 1017.89 209.852 1019.11C210.922 1020.33 211.434 1022.2 211.387 1024.73H203.137C203.16 1025.7 203.426 1026.46 203.934 1027.01C204.441 1027.55 205.074 1027.82 205.832 1027.82C206.348 1027.82 206.781 1027.68 207.133 1027.4C207.484 1027.12 207.75 1026.66 207.93 1026.04ZM208.117 1022.71C208.094 1021.76 207.848 1021.04 207.379 1020.54C206.91 1020.04 206.34 1019.79 205.668 1019.79C204.949 1019.79 204.355 1020.05 203.887 1020.58C203.418 1021.1 203.188 1021.81 203.195 1022.71H208.117Z" fill="#FFFFFF" class="svgc_invert" filter="url(#filter_readability_theme_beauty)"></path>
            <g>
                <path d="M508 1128H408V1130H508V1128Z" fill="#FFFFFF" fill-opacity="0.4" class="svgc_invert" filter="url(#filter_readability_theme_beauty)"></path>
                <path d="M508 1134H408V1136H508V1134Z" fill="#FFFFFF" fill-opacity="0.4" class="svgc_invert" filter="url(#filter_readability_theme_beauty)"></path>
                <path d="M490 1140H408V1142H490V1140Z" fill="#FFFFFF" fill-opacity="0.4" class="svgc_invert" filter="url(#filter_readability_theme_beauty)"></path>
                <path d="M409.019 1119V1108.98H416.449V1110.67H411.042V1112.9H416.073V1114.58H411.042V1117.31H416.641V1119H409.019ZM424.946 1119H423.025V1115.29C423.025 1114.51 422.984 1114.01 422.902 1113.78C422.82 1113.54 422.686 1113.36 422.499 1113.24C422.317 1113.11 422.096 1113.05 421.836 1113.05C421.503 1113.05 421.205 1113.14 420.94 1113.32C420.676 1113.5 420.494 1113.74 420.394 1114.04C420.298 1114.34 420.25 1114.9 420.25 1115.71V1119H418.329V1111.74H420.113V1112.81C420.747 1111.99 421.544 1111.58 422.506 1111.58C422.93 1111.58 423.317 1111.65 423.668 1111.81C424.019 1111.96 424.283 1112.15 424.461 1112.39C424.643 1112.63 424.769 1112.9 424.837 1113.2C424.91 1113.5 424.946 1113.93 424.946 1114.49V1119ZM430.23 1111.74V1113.27H428.918V1116.2C428.918 1116.79 428.929 1117.14 428.952 1117.24C428.979 1117.33 429.036 1117.41 429.123 1117.48C429.214 1117.54 429.324 1117.57 429.451 1117.57C429.629 1117.57 429.886 1117.51 430.224 1117.39L430.388 1118.88C429.941 1119.07 429.435 1119.16 428.87 1119.16C428.524 1119.16 428.212 1119.11 427.934 1118.99C427.656 1118.87 427.451 1118.72 427.318 1118.54C427.191 1118.36 427.102 1118.1 427.052 1117.79C427.011 1117.57 426.99 1117.12 426.99 1116.44V1113.27H426.108V1111.74H426.99V1110.3L428.918 1109.18V1111.74H430.23ZM433.402 1119H431.481V1111.74H433.266V1112.77C433.571 1112.28 433.844 1111.96 434.086 1111.81C434.332 1111.65 434.61 1111.58 434.92 1111.58C435.357 1111.58 435.779 1111.7 436.185 1111.94L435.59 1113.61C435.266 1113.4 434.965 1113.3 434.688 1113.3C434.419 1113.3 434.191 1113.37 434.004 1113.52C433.817 1113.67 433.669 1113.94 433.56 1114.32C433.455 1114.71 433.402 1115.52 433.402 1116.76V1119ZM436.109 1111.74H438.153L439.89 1116.89L441.585 1111.74H443.574L441.011 1118.73L440.553 1119.99C440.384 1120.42 440.222 1120.74 440.067 1120.96C439.917 1121.19 439.742 1121.37 439.541 1121.5C439.345 1121.64 439.101 1121.75 438.81 1121.83C438.522 1121.91 438.197 1121.95 437.832 1121.95C437.463 1121.95 437.101 1121.91 436.745 1121.83L436.574 1120.33C436.875 1120.39 437.146 1120.42 437.388 1120.42C437.834 1120.42 438.165 1120.28 438.379 1120.02C438.593 1119.76 438.757 1119.43 438.871 1119.02L436.109 1111.74ZM450.978 1119V1110.67H448.004V1108.98H455.968V1110.67H453.001V1119H450.978ZM457.007 1110.76V1108.98H458.928V1110.76H457.007ZM457.007 1119V1111.74H458.928V1119H457.007ZM464.232 1111.74V1113.27H462.92V1116.2C462.92 1116.79 462.931 1117.14 462.954 1117.24C462.981 1117.33 463.038 1117.41 463.125 1117.48C463.216 1117.54 463.326 1117.57 463.453 1117.57C463.631 1117.57 463.888 1117.51 464.226 1117.39L464.39 1118.88C463.943 1119.07 463.437 1119.16 462.872 1119.16C462.526 1119.16 462.214 1119.11 461.936 1118.99C461.658 1118.87 461.452 1118.72 461.32 1118.54C461.193 1118.36 461.104 1118.1 461.054 1117.79C461.013 1117.57 460.992 1117.12 460.992 1116.44V1113.27H460.11V1111.74H460.992V1110.3L462.92 1109.18V1111.74H464.232ZM465.565 1119V1108.98H467.486V1119H465.565ZM473.666 1116.69L475.58 1117.01C475.334 1117.71 474.944 1118.25 474.411 1118.62C473.882 1118.98 473.219 1119.16 472.422 1119.16C471.16 1119.16 470.225 1118.75 469.619 1117.93C469.141 1117.27 468.901 1116.43 468.901 1115.42C468.901 1114.22 469.216 1113.28 469.845 1112.6C470.474 1111.92 471.269 1111.58 472.23 1111.58C473.311 1111.58 474.163 1111.93 474.787 1112.65C475.411 1113.36 475.71 1114.45 475.683 1115.92H470.87C470.884 1116.49 471.039 1116.94 471.335 1117.26C471.631 1117.57 472 1117.73 472.442 1117.73C472.743 1117.73 472.996 1117.65 473.201 1117.48C473.406 1117.32 473.561 1117.05 473.666 1116.69ZM473.775 1114.75C473.762 1114.19 473.618 1113.77 473.345 1113.48C473.071 1113.19 472.739 1113.05 472.347 1113.05C471.927 1113.05 471.581 1113.2 471.308 1113.5C471.034 1113.81 470.9 1114.22 470.904 1114.75H473.775Z" fill="#FFFFFF" class="svgc_invert" filter="url(#filter_readability_theme_beauty)"></path>
                <rect x="408" y="991" width="105" height="105" rx="52.5" fill="url(#theme_beauty_library_image_16_id)" class="img_reference_library_image_16"></rect>
            </g>
            <g>
                <path d="M625 1219H525V1221H625V1219Z" fill="#FFFFFF" fill-opacity="0.4" class="svgc_invert" filter="url(#filter_readability_theme_beauty)"></path>
                <path d="M625 1225H525V1227H625V1225Z" fill="#FFFFFF" fill-opacity="0.4" class="svgc_invert" filter="url(#filter_readability_theme_beauty)"></path>
                <path d="M607 1231H525V1233H607V1231Z" fill="#FFFFFF" fill-opacity="0.4" class="svgc_invert" filter="url(#filter_readability_theme_beauty)"></path>
                <path d="M526.019 1210V1199.98H533.449V1201.67H528.042V1203.9H533.073V1205.58H528.042V1208.31H533.641V1210H526.019ZM541.946 1210H540.025V1206.29C540.025 1205.51 539.984 1205.01 539.902 1204.78C539.82 1204.54 539.686 1204.36 539.499 1204.24C539.317 1204.11 539.096 1204.05 538.836 1204.05C538.503 1204.05 538.205 1204.14 537.94 1204.32C537.676 1204.5 537.494 1204.74 537.394 1205.04C537.298 1205.34 537.25 1205.9 537.25 1206.71V1210H535.329V1202.74H537.113V1203.81C537.747 1202.99 538.544 1202.58 539.506 1202.58C539.93 1202.58 540.317 1202.65 540.668 1202.81C541.019 1202.96 541.283 1203.15 541.461 1203.39C541.643 1203.63 541.769 1203.9 541.837 1204.2C541.91 1204.5 541.946 1204.93 541.946 1205.49V1210ZM547.23 1202.74V1204.27H545.918V1207.2C545.918 1207.79 545.929 1208.14 545.952 1208.24C545.979 1208.33 546.036 1208.41 546.123 1208.48C546.214 1208.54 546.324 1208.57 546.451 1208.57C546.629 1208.57 546.886 1208.51 547.224 1208.39L547.388 1209.88C546.941 1210.07 546.435 1210.16 545.87 1210.16C545.524 1210.16 545.212 1210.11 544.934 1209.99C544.656 1209.87 544.451 1209.72 544.318 1209.54C544.191 1209.36 544.102 1209.1 544.052 1208.79C544.011 1208.57 543.99 1208.12 543.99 1207.44V1204.27H543.108V1202.74H543.99V1201.3L545.918 1200.18V1202.74H547.23ZM550.402 1210H548.481V1202.74H550.266V1203.77C550.571 1203.28 550.844 1202.96 551.086 1202.81C551.332 1202.65 551.61 1202.58 551.92 1202.58C552.357 1202.58 552.779 1202.7 553.185 1202.94L552.59 1204.61C552.266 1204.4 551.965 1204.3 551.688 1204.3C551.419 1204.3 551.191 1204.37 551.004 1204.52C550.817 1204.67 550.669 1204.94 550.56 1205.32C550.455 1205.71 550.402 1206.52 550.402 1207.76V1210ZM553.109 1202.74H555.153L556.89 1207.89L558.585 1202.74H560.574L558.011 1209.73L557.553 1210.99C557.384 1211.42 557.222 1211.74 557.067 1211.96C556.917 1212.19 556.742 1212.37 556.541 1212.5C556.345 1212.64 556.101 1212.75 555.81 1212.83C555.522 1212.91 555.197 1212.95 554.832 1212.95C554.463 1212.95 554.101 1212.91 553.745 1212.83L553.574 1211.33C553.875 1211.39 554.146 1211.42 554.388 1211.42C554.834 1211.42 555.165 1211.28 555.379 1211.02C555.593 1210.76 555.757 1210.43 555.871 1210.02L553.109 1202.74ZM567.978 1210V1201.67H565.004V1199.98H572.968V1201.67H570.001V1210H567.978ZM574.007 1201.76V1199.98H575.928V1201.76H574.007ZM574.007 1210V1202.74H575.928V1210H574.007ZM581.232 1202.74V1204.27H579.92V1207.2C579.92 1207.79 579.931 1208.14 579.954 1208.24C579.981 1208.33 580.038 1208.41 580.125 1208.48C580.216 1208.54 580.326 1208.57 580.453 1208.57C580.631 1208.57 580.888 1208.51 581.226 1208.39L581.39 1209.88C580.943 1210.07 580.437 1210.16 579.872 1210.16C579.526 1210.16 579.214 1210.11 578.936 1209.99C578.658 1209.87 578.452 1209.72 578.32 1209.54C578.193 1209.36 578.104 1209.1 578.054 1208.79C578.013 1208.57 577.992 1208.12 577.992 1207.44V1204.27H577.11V1202.74H577.992V1201.3L579.92 1200.18V1202.74H581.232ZM582.565 1210V1199.98H584.486V1210H582.565ZM590.666 1207.69L592.58 1208.01C592.334 1208.71 591.944 1209.25 591.411 1209.62C590.882 1209.98 590.219 1210.16 589.422 1210.16C588.16 1210.16 587.225 1209.75 586.619 1208.93C586.141 1208.27 585.901 1207.43 585.901 1206.42C585.901 1205.22 586.216 1204.28 586.845 1203.6C587.474 1202.92 588.269 1202.58 589.23 1202.58C590.311 1202.58 591.163 1202.93 591.787 1203.65C592.411 1204.36 592.71 1205.45 592.683 1206.92H587.87C587.884 1207.49 588.039 1207.94 588.335 1208.26C588.631 1208.57 589 1208.73 589.442 1208.73C589.743 1208.73 589.996 1208.65 590.201 1208.48C590.406 1208.32 590.561 1208.05 590.666 1207.69ZM590.775 1205.75C590.762 1205.19 590.618 1204.77 590.345 1204.48C590.071 1204.19 589.739 1204.05 589.347 1204.05C588.927 1204.05 588.581 1204.2 588.308 1204.5C588.034 1204.81 587.9 1205.22 587.904 1205.75H590.775Z" fill="#FFFFFF" class="svgc_invert" filter="url(#filter_readability_theme_beauty)"></path>
                <rect x="525" y="1082" width="105" height="105" rx="52.5" fill="url(#theme_beauty_library_image_03_id)" class="img_reference_library_image_03"></rect>
            </g>
            <g>
                <path d="M508 1328H408V1330H508V1328Z" fill="#FFFFFF" fill-opacity="0.4" class="svgc_invert" filter="url(#filter_readability_theme_beauty)"></path>
                <path d="M508 1334H408V1336H508V1334Z" fill="#FFFFFF" fill-opacity="0.4" class="svgc_invert" filter="url(#filter_readability_theme_beauty)"></path>
                <path d="M490 1340H408V1342H490V1340Z" fill="#FFFFFF" fill-opacity="0.4" class="svgc_invert" filter="url(#filter_readability_theme_beauty)"></path>
                <path d="M409.019 1319V1308.98H416.449V1310.67H411.042V1312.9H416.073V1314.58H411.042V1317.31H416.641V1319H409.019ZM424.946 1319H423.025V1315.29C423.025 1314.51 422.984 1314.01 422.902 1313.78C422.82 1313.54 422.686 1313.36 422.499 1313.24C422.317 1313.11 422.096 1313.05 421.836 1313.05C421.503 1313.05 421.205 1313.14 420.94 1313.32C420.676 1313.5 420.494 1313.74 420.394 1314.04C420.298 1314.34 420.25 1314.9 420.25 1315.71V1319H418.329V1311.74H420.113V1312.81C420.747 1311.99 421.544 1311.58 422.506 1311.58C422.93 1311.58 423.317 1311.65 423.668 1311.81C424.019 1311.96 424.283 1312.15 424.461 1312.39C424.643 1312.63 424.769 1312.9 424.837 1313.2C424.91 1313.5 424.946 1313.93 424.946 1314.49V1319ZM430.23 1311.74V1313.27H428.918V1316.2C428.918 1316.79 428.929 1317.14 428.952 1317.24C428.979 1317.33 429.036 1317.41 429.123 1317.48C429.214 1317.54 429.324 1317.57 429.451 1317.57C429.629 1317.57 429.886 1317.51 430.224 1317.39L430.388 1318.88C429.941 1319.07 429.435 1319.16 428.87 1319.16C428.524 1319.16 428.212 1319.11 427.934 1318.99C427.656 1318.87 427.451 1318.72 427.318 1318.54C427.191 1318.36 427.102 1318.1 427.052 1317.79C427.011 1317.57 426.99 1317.12 426.99 1316.44V1313.27H426.108V1311.74H426.99V1310.3L428.918 1309.18V1311.74H430.23ZM433.402 1319H431.481V1311.74H433.266V1312.77C433.571 1312.28 433.844 1311.96 434.086 1311.81C434.332 1311.65 434.61 1311.58 434.92 1311.58C435.357 1311.58 435.779 1311.7 436.185 1311.94L435.59 1313.61C435.266 1313.4 434.965 1313.3 434.688 1313.3C434.419 1313.3 434.191 1313.37 434.004 1313.52C433.817 1313.67 433.669 1313.94 433.56 1314.32C433.455 1314.71 433.402 1315.52 433.402 1316.76V1319ZM436.109 1311.74H438.153L439.89 1316.89L441.585 1311.74H443.574L441.011 1318.73L440.553 1319.99C440.384 1320.42 440.222 1320.74 440.067 1320.96C439.917 1321.19 439.742 1321.37 439.541 1321.5C439.345 1321.64 439.101 1321.75 438.81 1321.83C438.522 1321.91 438.197 1321.95 437.832 1321.95C437.463 1321.95 437.101 1321.91 436.745 1321.83L436.574 1320.33C436.875 1320.39 437.146 1320.42 437.388 1320.42C437.834 1320.42 438.165 1320.28 438.379 1320.02C438.593 1319.76 438.757 1319.43 438.871 1319.02L436.109 1311.74ZM450.978 1319V1310.67H448.004V1308.98H455.968V1310.67H453.001V1319H450.978ZM457.007 1310.76V1308.98H458.928V1310.76H457.007ZM457.007 1319V1311.74H458.928V1319H457.007ZM464.232 1311.74V1313.27H462.92V1316.2C462.92 1316.79 462.931 1317.14 462.954 1317.24C462.981 1317.33 463.038 1317.41 463.125 1317.48C463.216 1317.54 463.326 1317.57 463.453 1317.57C463.631 1317.57 463.888 1317.51 464.226 1317.39L464.39 1318.88C463.943 1319.07 463.437 1319.16 462.872 1319.16C462.526 1319.16 462.214 1319.11 461.936 1318.99C461.658 1318.87 461.452 1318.72 461.32 1318.54C461.193 1318.36 461.104 1318.1 461.054 1317.79C461.013 1317.57 460.992 1317.12 460.992 1316.44V1313.27H460.11V1311.74H460.992V1310.3L462.92 1309.18V1311.74H464.232ZM465.565 1319V1308.98H467.486V1319H465.565ZM473.666 1316.69L475.58 1317.01C475.334 1317.71 474.944 1318.25 474.411 1318.62C473.882 1318.98 473.219 1319.16 472.422 1319.16C471.16 1319.16 470.225 1318.75 469.619 1317.93C469.141 1317.27 468.901 1316.43 468.901 1315.42C468.901 1314.22 469.216 1313.28 469.845 1312.6C470.474 1311.92 471.269 1311.58 472.23 1311.58C473.311 1311.58 474.163 1311.93 474.787 1312.65C475.411 1313.36 475.71 1314.45 475.683 1315.92H470.87C470.884 1316.49 471.039 1316.94 471.335 1317.26C471.631 1317.57 472 1317.73 472.442 1317.73C472.743 1317.73 472.996 1317.65 473.201 1317.48C473.406 1317.32 473.561 1317.05 473.666 1316.69ZM473.775 1314.75C473.762 1314.19 473.618 1313.77 473.345 1313.48C473.071 1313.19 472.739 1313.05 472.347 1313.05C471.927 1313.05 471.581 1313.2 471.308 1313.5C471.034 1313.81 470.9 1314.22 470.904 1314.75H473.775Z" fill="#FFFFFF" class="svgc_invert" filter="url(#filter_readability_theme_beauty)"></path>
                <rect x="408" y="1191" width="105" height="105" rx="52.5" fill="url(#theme_beauty_library_image_13_id)" class="img_reference_library_image_13"></rect>
            </g>
            <path d="M700 1373L0 1351.5V1373H700Z" fill="#3AADAA"></path>
        </g>
        <g class="s_image_frame">
            <rect y="1373" width="700" height="253" fill="#3AADAA"></rect>
            <path d="M0 1626L700 1503V1626H0Z" fill="#383E45"></path>
            <rect x="120" y="1405" width="460" height="190" rx="4" fill="url(#theme_beauty_s_carousel_default_image_2_id)" class="img_reference_s_carousel_default_image_2"></rect>
            <rect x="350" y="1511" width="196" height="73" rx="4" fill="#FFFFFF"></rect>
            <path d="M531 1545H365V1547H531V1545Z" fill="#FFFFFF" fill-opacity="0.4" class="svgc_invert" filter="url(#filter_readability_theme_beauty)"></path>
            <path d="M531 1551H365V1553H531V1551Z" fill="#FFFFFF" fill-opacity="0.4" class="svgc_invert" filter="url(#filter_readability_theme_beauty)"></path>
            <path d="M501 1557H365V1559H501V1557Z" fill="#FFFFFF" fill-opacity="0.4" class="svgc_invert" filter="url(#filter_readability_theme_beauty)"></path>
            <path d="M366.019 1536V1525.98H373.449V1527.67H368.042V1529.9H373.073V1531.58H368.042V1534.31H373.641V1536H366.019ZM381.946 1536H380.025V1532.29C380.025 1531.51 379.984 1531.01 379.902 1530.78C379.82 1530.54 379.686 1530.36 379.499 1530.24C379.317 1530.11 379.096 1530.05 378.836 1530.05C378.503 1530.05 378.205 1530.14 377.94 1530.32C377.676 1530.5 377.494 1530.74 377.394 1531.04C377.298 1531.34 377.25 1531.9 377.25 1532.71V1536H375.329V1528.74H377.113V1529.81C377.747 1528.99 378.544 1528.58 379.506 1528.58C379.93 1528.58 380.317 1528.65 380.668 1528.81C381.019 1528.96 381.283 1529.15 381.461 1529.39C381.643 1529.63 381.769 1529.9 381.837 1530.2C381.91 1530.5 381.946 1530.93 381.946 1531.49V1536ZM387.23 1528.74V1530.27H385.918V1533.2C385.918 1533.79 385.929 1534.14 385.952 1534.24C385.979 1534.33 386.036 1534.41 386.123 1534.48C386.214 1534.54 386.324 1534.57 386.451 1534.57C386.629 1534.57 386.886 1534.51 387.224 1534.39L387.388 1535.88C386.941 1536.07 386.435 1536.16 385.87 1536.16C385.524 1536.16 385.212 1536.11 384.934 1535.99C384.656 1535.87 384.451 1535.72 384.318 1535.54C384.191 1535.36 384.102 1535.1 384.052 1534.79C384.011 1534.57 383.99 1534.12 383.99 1533.44V1530.27H383.108V1528.74H383.99V1527.3L385.918 1526.18V1528.74H387.23ZM390.402 1536H388.481V1528.74H390.266V1529.77C390.571 1529.28 390.844 1528.96 391.086 1528.81C391.332 1528.65 391.61 1528.58 391.92 1528.58C392.357 1528.58 392.779 1528.7 393.185 1528.94L392.59 1530.61C392.266 1530.4 391.965 1530.3 391.688 1530.3C391.419 1530.3 391.191 1530.37 391.004 1530.52C390.817 1530.67 390.669 1530.94 390.56 1531.32C390.455 1531.71 390.402 1532.52 390.402 1533.76V1536ZM393.109 1528.74H395.153L396.89 1533.89L398.585 1528.74H400.574L398.011 1535.73L397.553 1536.99C397.384 1537.42 397.222 1537.74 397.067 1537.96C396.917 1538.19 396.742 1538.37 396.541 1538.5C396.345 1538.64 396.101 1538.75 395.81 1538.83C395.522 1538.91 395.197 1538.95 394.832 1538.95C394.463 1538.95 394.101 1538.91 393.745 1538.83L393.574 1537.33C393.875 1537.39 394.146 1537.42 394.388 1537.42C394.834 1537.42 395.165 1537.28 395.379 1537.02C395.593 1536.76 395.757 1536.43 395.871 1536.02L393.109 1528.74ZM407.978 1536V1527.67H405.004V1525.98H412.968V1527.67H410.001V1536H407.978ZM414.007 1527.76V1525.98H415.928V1527.76H414.007ZM414.007 1536V1528.74H415.928V1536H414.007ZM421.232 1528.74V1530.27H419.92V1533.2C419.92 1533.79 419.931 1534.14 419.954 1534.24C419.981 1534.33 420.038 1534.41 420.125 1534.48C420.216 1534.54 420.326 1534.57 420.453 1534.57C420.631 1534.57 420.888 1534.51 421.226 1534.39L421.39 1535.88C420.943 1536.07 420.437 1536.16 419.872 1536.16C419.526 1536.16 419.214 1536.11 418.936 1535.99C418.658 1535.87 418.452 1535.72 418.32 1535.54C418.193 1535.36 418.104 1535.1 418.054 1534.79C418.013 1534.57 417.992 1534.12 417.992 1533.44V1530.27H417.11V1528.74H417.992V1527.3L419.92 1526.18V1528.74H421.232ZM422.565 1536V1525.98H424.486V1536H422.565ZM430.666 1533.69L432.58 1534.01C432.334 1534.71 431.944 1535.25 431.411 1535.62C430.882 1535.98 430.219 1536.16 429.422 1536.16C428.16 1536.16 427.225 1535.75 426.619 1534.93C426.141 1534.27 425.901 1533.43 425.901 1532.42C425.901 1531.22 426.216 1530.28 426.845 1529.6C427.474 1528.92 428.269 1528.58 429.23 1528.58C430.311 1528.58 431.163 1528.93 431.787 1529.65C432.411 1530.36 432.71 1531.45 432.683 1532.92H427.87C427.884 1533.49 428.039 1533.94 428.335 1534.26C428.631 1534.57 429 1534.73 429.442 1534.73C429.743 1534.73 429.996 1534.65 430.201 1534.48C430.406 1534.32 430.561 1534.05 430.666 1533.69ZM430.775 1531.75C430.762 1531.19 430.618 1530.77 430.345 1530.48C430.071 1530.19 429.739 1530.05 429.347 1530.05C428.927 1530.05 428.581 1530.2 428.308 1530.5C428.034 1530.81 427.9 1531.22 427.904 1531.75H430.775Z" fill="#FFFFFF" class="svgc_invert" filter="url(#filter_readability_theme_beauty)"></path>
        </g>
        <g class="s_call_to_action">
            <rect y="1626" width="700" height="176" fill="#383E45"></rect>
            <path d="M455 1710H256V1712H455V1710Z" fill="#383E45" fill-opacity="0.4" class="svgc_invert" filter="url(#filter_readability_theme_beauty)"></path>
            <path d="M430 1716H282V1718H430V1716Z" fill="#383E45" fill-opacity="0.4" class="svgc_invert" filter="url(#filter_readability_theme_beauty)"></path>
            <path d="M285.188 1688.41L288.562 1688.08C288.766 1689.21 289.176 1690.05 289.793 1690.58C290.418 1691.11 291.258 1691.38 292.312 1691.38C293.43 1691.38 294.27 1691.14 294.832 1690.67C295.402 1690.2 295.688 1689.64 295.688 1689.01C295.688 1688.6 295.566 1688.26 295.324 1687.98C295.09 1687.69 294.676 1687.44 294.082 1687.23C293.676 1687.09 292.75 1686.84 291.305 1686.48C289.445 1686.02 288.141 1685.45 287.391 1684.78C286.336 1683.83 285.809 1682.68 285.809 1681.32C285.809 1680.45 286.055 1679.63 286.547 1678.87C287.047 1678.11 287.762 1677.52 288.691 1677.12C289.629 1676.73 290.758 1676.53 292.078 1676.53C294.234 1676.53 295.855 1677 296.941 1677.95C298.035 1678.89 298.609 1680.15 298.664 1681.73L295.195 1681.88C295.047 1681 294.727 1680.37 294.234 1679.98C293.75 1679.59 293.02 1679.4 292.043 1679.4C291.035 1679.4 290.246 1679.61 289.676 1680.02C289.309 1680.29 289.125 1680.64 289.125 1681.09C289.125 1681.49 289.297 1681.84 289.641 1682.13C290.078 1682.5 291.141 1682.88 292.828 1683.28C294.516 1683.68 295.762 1684.09 296.566 1684.52C297.379 1684.94 298.012 1685.52 298.465 1686.27C298.926 1687 299.156 1687.91 299.156 1689C299.156 1689.98 298.883 1690.9 298.336 1691.76C297.789 1692.62 297.016 1693.26 296.016 1693.68C295.016 1694.1 293.77 1694.3 292.277 1694.3C290.105 1694.3 288.438 1693.8 287.273 1692.8C286.109 1691.8 285.414 1690.33 285.188 1688.41ZM309.258 1690.04L312.539 1690.59C312.117 1691.79 311.449 1692.71 310.535 1693.34C309.629 1693.97 308.492 1694.28 307.125 1694.28C304.961 1694.28 303.359 1693.57 302.32 1692.16C301.5 1691.03 301.09 1689.6 301.09 1687.87C301.09 1685.81 301.629 1684.2 302.707 1683.03C303.785 1681.86 305.148 1681.27 306.797 1681.27C308.648 1681.27 310.109 1681.89 311.18 1683.11C312.25 1684.33 312.762 1686.2 312.715 1688.73H304.465C304.488 1689.7 304.754 1690.46 305.262 1691.01C305.77 1691.55 306.402 1691.82 307.16 1691.82C307.676 1691.82 308.109 1691.68 308.461 1691.4C308.812 1691.12 309.078 1690.66 309.258 1690.04ZM309.445 1686.71C309.422 1685.76 309.176 1685.04 308.707 1684.54C308.238 1684.04 307.668 1683.79 306.996 1683.79C306.277 1683.79 305.684 1684.05 305.215 1684.58C304.746 1685.1 304.516 1685.81 304.523 1686.71H309.445ZM326.262 1685.23L323.016 1685.82C322.906 1685.17 322.656 1684.68 322.266 1684.36C321.883 1684.03 321.383 1683.86 320.766 1683.86C319.945 1683.86 319.289 1684.15 318.797 1684.72C318.312 1685.28 318.07 1686.23 318.07 1687.55C318.07 1689.03 318.316 1690.07 318.809 1690.68C319.309 1691.29 319.977 1691.6 320.812 1691.6C321.438 1691.6 321.949 1691.42 322.348 1691.07C322.746 1690.71 323.027 1690.1 323.191 1689.23L326.426 1689.78C326.09 1691.27 325.445 1692.39 324.492 1693.14C323.539 1693.9 322.262 1694.28 320.66 1694.28C318.84 1694.28 317.387 1693.71 316.301 1692.56C315.223 1691.41 314.684 1689.82 314.684 1687.79C314.684 1685.73 315.227 1684.14 316.312 1683C317.398 1681.85 318.867 1681.27 320.719 1681.27C322.234 1681.27 323.438 1681.6 324.328 1682.26C325.227 1682.91 325.871 1683.9 326.262 1685.23ZM334.477 1681.55V1684.18H332.227V1689.2C332.227 1690.21 332.246 1690.8 332.285 1690.98C332.332 1691.14 332.43 1691.28 332.578 1691.39C332.734 1691.5 332.922 1691.55 333.141 1691.55C333.445 1691.55 333.887 1691.45 334.465 1691.23L334.746 1693.79C333.98 1694.12 333.113 1694.28 332.145 1694.28C331.551 1694.28 331.016 1694.18 330.539 1693.99C330.062 1693.79 329.711 1693.53 329.484 1693.21C329.266 1692.89 329.113 1692.46 329.027 1691.93C328.957 1691.54 328.922 1690.77 328.922 1689.61V1684.18H327.41V1681.55H328.922V1679.08L332.227 1677.16V1681.55H334.477ZM336.762 1679.87V1676.82H340.055V1679.87H336.762ZM336.762 1694V1681.55H340.055V1694H336.762ZM342.68 1687.6C342.68 1686.51 342.949 1685.45 343.488 1684.43C344.027 1683.4 344.789 1682.62 345.773 1682.08C346.766 1681.54 347.871 1681.27 349.09 1681.27C350.973 1681.27 352.516 1681.89 353.719 1683.11C354.922 1684.33 355.523 1685.88 355.523 1687.74C355.523 1689.62 354.914 1691.19 353.695 1692.43C352.484 1693.66 350.957 1694.28 349.113 1694.28C347.973 1694.28 346.883 1694.02 345.844 1693.51C344.812 1692.99 344.027 1692.24 343.488 1691.25C342.949 1690.25 342.68 1689.03 342.68 1687.6ZM346.055 1687.78C346.055 1689.01 346.348 1689.96 346.934 1690.61C347.52 1691.27 348.242 1691.6 349.102 1691.6C349.961 1691.6 350.68 1691.27 351.258 1690.61C351.844 1689.96 352.137 1689 352.137 1687.75C352.137 1686.54 351.844 1685.6 351.258 1684.94C350.68 1684.29 349.961 1683.96 349.102 1683.96C348.242 1683.96 347.52 1684.29 346.934 1684.94C346.348 1685.6 346.055 1686.54 346.055 1687.78ZM369.434 1694H366.141V1687.65C366.141 1686.3 366.07 1685.44 365.93 1685.05C365.789 1684.65 365.559 1684.34 365.238 1684.12C364.926 1683.9 364.547 1683.79 364.102 1683.79C363.531 1683.79 363.02 1683.95 362.566 1684.26C362.113 1684.57 361.801 1684.99 361.629 1685.5C361.465 1686.02 361.383 1686.97 361.383 1688.36V1694H358.09V1681.55H361.148V1683.38C362.234 1681.98 363.602 1681.27 365.25 1681.27C365.977 1681.27 366.641 1681.41 367.242 1681.67C367.844 1681.93 368.297 1682.26 368.602 1682.67C368.914 1683.07 369.129 1683.54 369.246 1684.05C369.371 1684.57 369.434 1685.3 369.434 1686.27V1694ZM383.355 1694V1679.73H378.258V1676.82H391.91V1679.73H386.824V1694H383.355ZM393.691 1679.87V1676.82H396.984V1679.87H393.691ZM393.691 1694V1681.55H396.984V1694H393.691ZM406.078 1681.55V1684.18H403.828V1689.2C403.828 1690.21 403.848 1690.8 403.887 1690.98C403.934 1691.14 404.031 1691.28 404.18 1691.39C404.336 1691.5 404.523 1691.55 404.742 1691.55C405.047 1691.55 405.488 1691.45 406.066 1691.23L406.348 1693.79C405.582 1694.12 404.715 1694.28 403.746 1694.28C403.152 1694.28 402.617 1694.18 402.141 1693.99C401.664 1693.79 401.312 1693.53 401.086 1693.21C400.867 1692.89 400.715 1692.46 400.629 1691.93C400.559 1691.54 400.523 1690.77 400.523 1689.61V1684.18H399.012V1681.55H400.523V1679.08L403.828 1677.16V1681.55H406.078ZM408.363 1694V1676.82H411.656V1694H408.363ZM422.25 1690.04L425.531 1690.59C425.109 1691.79 424.441 1692.71 423.527 1693.34C422.621 1693.97 421.484 1694.28 420.117 1694.28C417.953 1694.28 416.352 1693.57 415.312 1692.16C414.492 1691.03 414.082 1689.6 414.082 1687.87C414.082 1685.81 414.621 1684.2 415.699 1683.03C416.777 1681.86 418.141 1681.27 419.789 1681.27C421.641 1681.27 423.102 1681.89 424.172 1683.11C425.242 1684.33 425.754 1686.2 425.707 1688.73H417.457C417.48 1689.7 417.746 1690.46 418.254 1691.01C418.762 1691.55 419.395 1691.82 420.152 1691.82C420.668 1691.82 421.102 1691.68 421.453 1691.4C421.805 1691.12 422.07 1690.66 422.25 1690.04ZM422.438 1686.71C422.414 1685.76 422.168 1685.04 421.699 1684.54C421.23 1684.04 420.66 1683.79 419.988 1683.79C419.27 1683.79 418.676 1684.05 418.207 1684.58C417.738 1685.1 417.508 1685.81 417.516 1686.71H422.438Z" fill="#383E45" class="svgc_invert" filter="url(#filter_readability_theme_beauty)"></path>
            <path d="M389 1728H323C315.268 1728 309 1734.27 309 1742C309 1749.73 315.268 1756 323 1756H389C396.732 1756 403 1749.73 403 1742C403 1734.27 396.732 1728 389 1728Z" fill="#3AADAA"></path>
            <path d="M340.853 1742.9L342.395 1743.39C342.158 1744.25 341.764 1744.89 341.213 1745.31C340.665 1745.72 339.969 1745.93 339.124 1745.93C338.078 1745.93 337.219 1745.57 336.545 1744.86C335.872 1744.14 335.536 1743.17 335.536 1741.93C335.536 1740.62 335.874 1739.6 336.551 1738.88C337.228 1738.15 338.117 1737.79 339.22 1737.79C340.183 1737.79 340.966 1738.07 341.567 1738.64C341.925 1738.98 342.194 1739.46 342.373 1740.09L340.799 1740.47C340.706 1740.06 340.511 1739.74 340.214 1739.5C339.92 1739.26 339.562 1739.15 339.14 1739.15C338.556 1739.15 338.082 1739.36 337.716 1739.77C337.355 1740.19 337.174 1740.87 337.174 1741.81C337.174 1742.81 337.353 1743.51 337.711 1743.94C338.069 1744.36 338.535 1744.57 339.107 1744.57C339.53 1744.57 339.893 1744.44 340.198 1744.17C340.502 1743.9 340.721 1743.48 340.853 1742.9ZM343.404 1742.86C343.404 1742.36 343.528 1741.88 343.775 1741.41C344.022 1740.94 344.371 1740.58 344.822 1740.33C345.277 1740.09 345.784 1739.96 346.342 1739.96C347.205 1739.96 347.912 1740.24 348.464 1740.81C349.015 1741.36 349.291 1742.07 349.291 1742.93C349.291 1743.79 349.012 1744.51 348.453 1745.08C347.898 1745.64 347.198 1745.92 346.353 1745.92C345.83 1745.92 345.331 1745.81 344.854 1745.57C344.382 1745.33 344.022 1744.99 343.775 1744.53C343.528 1744.07 343.404 1743.52 343.404 1742.86ZM344.951 1742.94C344.951 1743.51 345.085 1743.94 345.354 1744.24C345.623 1744.54 345.954 1744.69 346.348 1744.69C346.742 1744.69 347.071 1744.54 347.336 1744.24C347.604 1743.94 347.739 1743.51 347.739 1742.93C347.739 1742.37 347.604 1741.94 347.336 1741.64C347.071 1741.34 346.742 1741.19 346.348 1741.19C345.954 1741.19 345.623 1741.34 345.354 1741.64C345.085 1741.94 344.951 1742.38 344.951 1742.94ZM355.667 1745.8H354.157V1742.88C354.157 1742.27 354.125 1741.87 354.061 1741.69C353.996 1741.51 353.89 1741.37 353.744 1741.27C353.6 1741.17 353.427 1741.12 353.223 1741.12C352.961 1741.12 352.727 1741.19 352.519 1741.33C352.311 1741.47 352.168 1741.66 352.089 1741.9C352.014 1742.14 351.977 1742.57 351.977 1743.21V1745.8H350.467V1740.09H351.869V1740.93C352.367 1740.28 352.993 1739.96 353.749 1739.96C354.082 1739.96 354.386 1740.02 354.662 1740.14C354.938 1740.26 355.146 1740.41 355.285 1740.6C355.428 1740.79 355.527 1741 355.581 1741.23C355.638 1741.47 355.667 1741.81 355.667 1742.25V1745.8ZM359.818 1740.09V1741.29H358.787V1743.59C358.787 1744.06 358.796 1744.33 358.814 1744.41C358.835 1744.48 358.88 1744.55 358.948 1744.6C359.02 1744.65 359.106 1744.67 359.206 1744.67C359.346 1744.67 359.548 1744.62 359.813 1744.53L359.942 1745.7C359.591 1745.85 359.194 1745.92 358.75 1745.92C358.477 1745.92 358.232 1745.88 358.014 1745.79C357.795 1745.7 357.634 1745.58 357.53 1745.44C357.43 1745.29 357.36 1745.09 357.321 1744.84C357.289 1744.67 357.272 1744.31 357.272 1743.78V1741.29H356.58V1740.09H357.272V1738.96L358.787 1738.08V1740.09H359.818ZM361.994 1741.83L360.624 1741.58C360.778 1741.03 361.043 1740.62 361.419 1740.36C361.795 1740.09 362.354 1739.96 363.095 1739.96C363.768 1739.96 364.269 1740.04 364.599 1740.2C364.928 1740.36 365.159 1740.56 365.292 1740.81C365.428 1741.05 365.496 1741.5 365.496 1742.16L365.479 1743.92C365.479 1744.42 365.503 1744.79 365.549 1745.03C365.599 1745.27 365.691 1745.52 365.823 1745.8H364.33C364.291 1745.69 364.242 1745.55 364.185 1745.35C364.16 1745.26 364.142 1745.2 364.131 1745.17C363.874 1745.42 363.598 1745.61 363.304 1745.74C363.011 1745.86 362.697 1745.92 362.364 1745.92C361.777 1745.92 361.313 1745.76 360.973 1745.45C360.637 1745.13 360.468 1744.72 360.468 1744.24C360.468 1743.92 360.545 1743.63 360.699 1743.38C360.853 1743.12 361.068 1742.93 361.344 1742.8C361.623 1742.66 362.024 1742.54 362.547 1742.44C363.252 1742.31 363.741 1742.19 364.013 1742.07V1741.92C364.013 1741.63 363.942 1741.43 363.798 1741.3C363.655 1741.18 363.385 1741.12 362.987 1741.12C362.719 1741.12 362.509 1741.17 362.359 1741.28C362.208 1741.38 362.087 1741.57 361.994 1741.83ZM364.013 1743.06C363.82 1743.12 363.514 1743.2 363.095 1743.29C362.676 1743.38 362.402 1743.46 362.273 1743.55C362.076 1743.69 361.978 1743.87 361.978 1744.08C361.978 1744.29 362.056 1744.48 362.214 1744.63C362.371 1744.78 362.572 1744.86 362.815 1744.86C363.088 1744.86 363.347 1744.77 363.594 1744.59C363.777 1744.46 363.897 1744.29 363.954 1744.09C363.993 1743.96 364.013 1743.72 364.013 1743.36V1743.06ZM371.962 1741.78L370.475 1742.05C370.424 1741.75 370.31 1741.53 370.131 1741.37C369.955 1741.22 369.726 1741.15 369.443 1741.15C369.067 1741.15 368.767 1741.28 368.541 1741.54C368.319 1741.8 368.208 1742.23 368.208 1742.84C368.208 1743.52 368.321 1744 368.546 1744.28C368.776 1744.55 369.082 1744.69 369.465 1744.69C369.751 1744.69 369.986 1744.61 370.168 1744.45C370.351 1744.29 370.48 1744.01 370.555 1743.61L372.038 1743.86C371.884 1744.54 371.588 1745.06 371.151 1745.4C370.715 1745.75 370.129 1745.92 369.395 1745.92C368.561 1745.92 367.895 1745.66 367.397 1745.13C366.903 1744.61 366.656 1743.88 366.656 1742.95C366.656 1742.01 366.905 1741.27 367.402 1740.75C367.9 1740.23 368.573 1739.96 369.422 1739.96C370.117 1739.96 370.668 1740.11 371.076 1740.41C371.488 1740.71 371.783 1741.17 371.962 1741.78ZM375.728 1740.09V1741.29H374.696V1743.59C374.696 1744.06 374.705 1744.33 374.723 1744.41C374.745 1744.48 374.789 1744.55 374.857 1744.6C374.929 1744.65 375.015 1744.67 375.115 1744.67C375.255 1744.67 375.457 1744.62 375.722 1744.53L375.851 1745.7C375.5 1745.85 375.103 1745.92 374.659 1745.92C374.387 1745.92 374.141 1745.88 373.923 1745.79C373.704 1745.7 373.543 1745.58 373.439 1745.44C373.339 1745.29 373.269 1745.09 373.23 1744.84C373.198 1744.67 373.182 1744.31 373.182 1743.78V1741.29H372.489V1740.09H373.182V1738.96L374.696 1738.08V1740.09H375.728Z" fill="#3AADAA" class="svgc_invert" filter="url(#filter_readability_theme_beauty)"></path>
        </g>
        <g class="svgc_footer">
            <path d="M700 1802H0V1902H700V1802Z" fill="#FOOTER_COLOR" class="svgc_footer_bg"></path>
            <path d="M630 1850H578V1852H630V1850Z" fill="#FOOTER_COLOR" class="svgc_invert" filter="url(#filter_readability_theme_beauty)"></path>
            <path d="M615 1844H578V1846H615V1844Z" fill="#FOOTER_COLOR" class="svgc_invert" filter="url(#filter_readability_theme_beauty)"></path>
            <path d="M234 1848H70V1850H234V1848Z" fill="#FOOTER_COLOR" fill-opacity="0.4" class="svgc_invert" filter="url(#filter_readability_theme_beauty)"></path>
            <path d="M234 1854H70V1856H234V1854Z" fill="#FOOTER_COLOR" fill-opacity="0.4" class="svgc_invert" filter="url(#filter_readability_theme_beauty)"></path>
            <path d="M234 1860H70V1862H234V1860Z" fill="#FOOTER_COLOR" fill-opacity="0.4" class="svgc_invert" filter="url(#filter_readability_theme_beauty)"></path>
            <path d="M234 1866H70V1868H234V1866Z" fill="#FOOTER_COLOR" fill-opacity="0.4" class="svgc_invert" filter="url(#filter_readability_theme_beauty)"></path>
            <path d="M234 1872H70V1874H234V1872Z" fill="#FOOTER_COLOR" fill-opacity="0.4" class="svgc_invert" filter="url(#filter_readability_theme_beauty)"></path>
            <path d="M327 1848H280V1850H327V1848Z" fill="#FOOTER_COLOR" fill-opacity="0.4" class="svgc_invert" filter="url(#filter_readability_theme_beauty)"></path>
            <path d="M375 1854H280V1856H375V1854Z" fill="#FOOTER_COLOR" fill-opacity="0.4" class="svgc_invert" filter="url(#filter_readability_theme_beauty)"></path>
            <path d="M388 1860H280V1862H388V1860Z" fill="#FOOTER_COLOR" fill-opacity="0.4" class="svgc_invert" filter="url(#filter_readability_theme_beauty)"></path>
            <path d="M415 1866H280V1868H415V1866Z" fill="#FOOTER_COLOR" fill-opacity="0.4" class="svgc_invert" filter="url(#filter_readability_theme_beauty)"></path>
            <path d="M388 1872H280V1874H388V1872Z" fill="#FOOTER_COLOR" fill-opacity="0.4" class="svgc_invert" filter="url(#filter_readability_theme_beauty)"></path>
            <path d="M623 1873C626.866 1873 630 1869.87 630 1866C630 1862.13 626.866 1859 623 1859C619.134 1859 616 1862.13 616 1866C616 1869.87 619.134 1873 623 1873Z" fill="#FOOTER_COLOR" class="svgc_invert" filter="url(#filter_readability_theme_beauty)"></path>
            <path d="M604 1873C607.866 1873 611 1869.87 611 1866C611 1862.13 607.866 1859 604 1859C600.134 1859 597 1862.13 597 1866C597 1869.87 600.134 1873 604 1873Z" fill="#FOOTER_COLOR" class="svgc_invert" filter="url(#filter_readability_theme_beauty)"></path>
            <path d="M585 1873C588.866 1873 592 1869.87 592 1866C592 1862.13 588.866 1859 585 1859C581.134 1859 578 1862.13 578 1866C578 1869.87 581.134 1873 585 1873Z" fill="#FOOTER_COLOR" class="svgc_invert" filter="url(#filter_readability_theme_beauty)"></path>
            <path d="M139 1825H70V1835H139V1825Z" fill="#FOOTER_COLOR" class="svgc_invert" filter="url(#filter_readability_theme_beauty)"></path>
        </g>
        <path d="M0 1356L700 1373L0 1379V1356Z" fill="#3AADAA"></path>
        <path d="M700 1645L1.66103e-06 1626L700 1615L700 1645Z" fill="#383E45"></path>
        <rect width="700" height="10" y="524" fill="#FFFFFF"></rect>
        <rect width="700" height="10" y="956" fill="#FFFFFF"></rect>

    </g>
    <defs>
        <clipPath id="clip0_287_2">
            <rect width="700" height="1902" fill="#FFFFFF"></rect>
        </clipPath>
    </defs>
</svg>
