<svg xmlns="http://www.w3.org/2000/svg" xmlns:xlink="http://www.w3.org/1999/xlink" viewBox="0 0 800 1696" width="800" height="1696" data-forced-size="true">
    <style>
        image { 
            width: calc(100% - 66px);
            height: calc(100% - 66px);
        }
    </style>
    <defs>
        <radialGradient id="gradient_01" cx="396.94" cy="847.32" r="1240.76" gradientTransform="translate(1322.37 450.38) rotate(90) scale(1 1.09)" gradientUnits="userSpaceOnUse">
            <stop offset="0.11" stop-color="#5c5c5c"/>
            <stop offset="0.11" stop-color="#454545"/>
            <stop offset="0.12"/>
            <stop offset="0.13" stop-color="#464646"/>
            <stop offset="0.24" stop-color="#636161"/>
            <stop offset="0.37" stop-color="#606060"/>
            <stop offset="0.38"/>
            <stop offset="0.39" stop-color="#aaa"/>
            <stop offset="0.44" stop-color="#6d6d6d"/>
            <stop offset="0.5" stop-color="#7a7a7a"/>
            <stop offset="0.59" stop-color="#7c7c7c"/>
            <stop offset="0.62" stop-color="#545454"/>
            <stop offset="0.62"/>
            <stop offset="0.63" stop-color="#505050"/>
            <stop offset="0.84" stop-color="#444"/>
            <stop offset="0.87" stop-color="#343434"/>
            <stop offset="0.88"/>
            <stop offset="0.89" stop-color="#252527"/>
            <stop offset="0.97" stop-color="#363636"/>
        </radialGradient>
        <radialGradient id="gradient_02" cx="618.92" cy="215.32" r="0.68" gradientTransform="matrix(33.12, 47.69, 47.7, -33.11, -30386.77, -22337.26)" gradientUnits="userSpaceOnUse">
            <stop offset="0" stop-color="#121212"/>
            <stop offset="1" stop-color="#090909"/>
        </radialGradient>
        <radialGradient id="gradient_03" cx="674.84" cy="213.66" r="0.68" gradientTransform="matrix(-11.81, 10.64, 10.64, 11.81, 6095.05, -9641.04)" gradientUnits="userSpaceOnUse">
            <stop offset="0.21" stop-color="#191919"/>
            <stop offset="0.27" stop-color="#3c5052"/>
            <stop offset="0.4" stop-color="#2e5457"/>
            <stop offset="0.52" stop-color="#72a9b7"/>
            <stop offset="0.71" stop-color="#4a6861"/>
            <stop offset="0.92" stop-color="#191919"/>
        </radialGradient>
        <radialGradient id="gradient_04" cx="674.84" cy="213.66" r="0.68" gradientTransform="matrix(-11.81, 10.64, 10.64, 11.81, 6095.05, -9641.04)" gradientUnits="userSpaceOnUse">
            <stop offset="0.41" stop-opacity="0"/>
            <stop offset="0.51"/>
            <stop offset="0.82" stop-opacity="0"/>
        </radialGradient>
        <radialGradient id="gradient_05" cx="674.84" cy="213.66" r="0.68" gradientTransform="matrix(-11.81, 10.64, 10.64, 11.81, 6095.05, -9641.04)" gradientUnits="userSpaceOnUse">
            <stop offset="0.09"/>
            <stop offset="0.17" stop-opacity="0.13"/>
            <stop offset="0.3" stop-opacity="0.13"/>
            <stop offset="0.46"/>
            <stop offset="0.63"/>
            <stop offset="0.68" stop-opacity="0"/>
            <stop offset="0.88" stop-opacity="0"/>
            <stop offset="1"/>
        </radialGradient>
        <radialGradient id="gradient_06" cx="719.38" cy="92.96" r="0.68" gradientTransform="matrix(-1.04, 5.24, 5.15, 1.02, 671.4, -3804.19)" gradientUnits="userSpaceOnUse">
            <stop offset="0.13" stop-color="#6ba7d2"/>
            <stop offset="1" stop-opacity="0"/>
        </radialGradient>
        <mask id="mask" x="21.07" y="18.35" width="752.42" height="1659.31" maskUnits="userSpaceOnUse">
            <rect x="21.07" y="18.35" width="752.42" height="1659.31" fill="#fff"/>
            <path d="M22.43,94.79c0-51.3,29.91-75.08,74.09-75.08H697.37c45.2,0,74.76,26.5,74.76,74.74v1513.9a68,68,0,0,1-68,67.94H90.4a68,68,0,0,1-68-67.94Z"/>
        </mask>
        <mask id="mask-2" x="29.23" y="27.18" width="735.43" height="1632.81" maskUnits="userSpaceOnUse">
            <rect x="29.23" y="27.18" width="735.43" height="1632.81" fill="#fff"/>
            <path d="M29.91,95.81a68,68,0,0,1,68-67.95H696a68,68,0,0,1,68,68V1590.68a68,68,0,0,1-68,68H97.88a68,68,0,0,1-68-68Z"/>
        </mask>
        <path id="filterPath" d="M0.955,0.978H0.0374V0.0164H0.955Z"/>
    </defs>
    <svg viewBox="0 0 1 1" id="preview" preserveAspectRatio="none">
        <use xlink:href="#filterPath" fill="darkgrey"/>
    </svg>
    <image xlink:href="" preserveAspectRatio="xMidYMin slice" x="30" y="28">
        <animateMotion dur="1ms" repeatCount="indefinite"/>
    </image>
    <g id="device">
        <g>
            <path d="M796.64,262.28H784.73V469.12h11.91a3.37,3.37,0,0,0,3.36-3.35V265.63A3.37,3.37,0,0,0,796.64,262.28Z" fill="#1a1a1a"/>
            <path d="M796.49,264.38H784.73V467h11.76a3.35,3.35,0,0,0,3.36-3.32v-196A3.35,3.35,0,0,0,796.49,264.38Z" fill="#353535"/>
            <path d="M794.59,264.38h-9.86V467h9.86A3.35,3.35,0,0,0,798,463.7v-196A3.35,3.35,0,0,0,794.59,264.38Z" fill="#4c4c4c"/>
        </g>
        <g>
            <path d="M796.64,573.68H784.73V691.16h11.91a3.36,3.36,0,0,0,3.36-3.35V577A3.37,3.37,0,0,0,796.64,573.68Z" fill="#1a1a1a"/>
            <path d="M796.49,575.78H784.73V689.06h11.76a3.35,3.35,0,0,0,3.36-3.31V579.09A3.35,3.35,0,0,0,796.49,575.78Z" fill="#353535"/>
            <path d="M794.59,575.78h-9.86V689.06h9.86a3.34,3.34,0,0,0,3.36-3.31V579.09A3.34,3.34,0,0,0,794.59,575.78Z" fill="#4c4c4c"/>
        </g>
        <path d="M764.66,29c-16.28-16.28-40.49-24.88-70-24.88H92.44c-26.38,0-48.87,9.07-65,26.24-15,16-23.31,37.76-23.31,61.41V1607.67a84.36,84.36,0,0,0,84.28,84.25h615.8a84.36,84.36,0,0,0,84.29-84.25V93.43C788.45,66.81,780.22,44.51,764.66,29ZM764,1590.68a68,68,0,0,1-68,68H97.88a68,68,0,0,1-68-68V95.81a68,68,0,0,1,68-67.95H696a68,68,0,0,1,68,68Z"/>
        <path d="M694.65,0H92.44C34.32,0,0,42.81,0,91.73V1607.67A88.35,88.35,0,0,0,88.36,1696h615.8a88.34,88.34,0,0,0,88.36-88.33V93.43C792.52,38.39,758.54,0,694.65,0Zm93.8,1607.67a84.36,84.36,0,0,1-84.29,84.25H88.36a84.36,84.36,0,0,1-84.28-84.25V91.73c0-23.65,8.28-45.46,23.31-61.41C43.57,13.15,66.06,4.08,92.44,4.08H694.65c29.52,0,53.73,8.6,70,24.88,15.56,15.55,23.79,37.85,23.79,64.47Z" fill="#1a1a1a"/>
        <path d="M697.71,8.15H93.8c-52.34,0-84.28,32.62-84.28,84.6v1515.6a78.15,78.15,0,0,0,78.16,78.14H704.84A78.16,78.16,0,0,0,783,1608.35L784.37,93.77C784.37,45.87,756.5,8.15,697.71,8.15ZM764,1590.68a68,68,0,0,1-68,68H97.88a68,68,0,0,1-68-68V95.81a68,68,0,0,1,68-67.95H696a68,68,0,0,1,68,68Z" fill="url(#gradient_01)"/>
        <path d="M697.71,2.66H93.8C66.68,2.66,44,11.1,28.13,27.09S4,65.7,4,92.75v1515.6A83.74,83.74,0,0,0,87.68,1692H704.84a83.75,83.75,0,0,0,83.67-83.64L789.87,93.77C789.87,37.57,754.55,2.66,697.71,2.66ZM783,1608.35a78.16,78.16,0,0,1-78.17,78.14H87.68a78.15,78.15,0,0,1-78.16-78.14V92.75c0-52,31.94-84.6,84.28-84.6H697.71c58.79,0,86.66,37.72,86.66,85.62Z" fill="#1a1a1a"/>
        <path d="M697.37,19.71H96.52c-44.18,0-74.09,23.78-74.09,75.08V1608.35a68,68,0,0,0,68,67.94H704.16a68,68,0,0,0,68-67.94V94.45C772.13,46.21,742.57,19.71,697.37,19.71Zm66.61,1571a68,68,0,0,1-68,68H97.88a68,68,0,0,1-68-68V95.81a68,68,0,0,1,68-67.95H696a68,68,0,0,1,68,68Z"/>
        <g mask="url(#mask)">
            <path d="M22.43,94.79c0-51.3,29.91-75.08,74.09-75.08H697.37c45.2,0,74.76,26.5,74.76,74.74v1513.9a68,68,0,0,1-68,67.94H90.4a68,68,0,0,1-68-67.94Z" fill="none" stroke="#000" stroke-width="2.72"/>
        </g>
        <path d="M29.91,95.81a68,68,0,0,1,68-67.95H696a68,68,0,0,1,68,68V1590.68a68,68,0,0,1-68,68H97.88a68,68,0,0,1-68-68Z" fill="none"/>
        <g mask="url(#mask-2)">
            <path d="M29.91,95.81a68,68,0,0,1,68-67.95H696a68,68,0,0,1,68,68V1590.68a68,68,0,0,1-68,68H97.88a68,68,0,0,1-68-68Z" fill="none" stroke="#000" stroke-width="1.36"/>
        </g>
        <path d="M249.79,8.15H545.45a3.06,3.06,0,0,1,3.06,3.06h0a3.06,3.06,0,0,1-3.06,3.06H249.79a3.06,3.06,0,0,1-3.06-3.06h0A3.06,3.06,0,0,1,249.79,8.15Z" fill="#1a1a1a"/>
        <rect x="668.82" y="1682.41" width="14.95" height="13.59" fill="#191919"/>
        <rect x="104.67" y="1682.41" width="14.95" height="13.59" fill="#191919"/>
        <rect x="780.29" y="146.77" width="12.23" height="18.35" fill="#191919"/>
        <rect y="146.77" width="13.59" height="18.35" fill="#191919"/>
        <path d="M29.91,95.81a68,68,0,0,1,68-67.95H696a68,68,0,0,1,68,68V1590.68a68,68,0,0,1-68,68H97.88a68,68,0,0,1-68-68Z" fill="none" stroke="#000" stroke-width="1.36"/>
        <g>
            <g>
                <ellipse cx="397.28" cy="62.17" rx="18.01" ry="18.01"/>
                <ellipse cx="397.28" cy="62.17" rx="17.16" ry="17.16" fill="none" stroke-width="1.7" stroke="url(#gradient_02)"/>
            </g>
            <path d="M404.52,70.2a10.8,10.8,0,1,1,.79-15.26A10.82,10.82,0,0,1,404.52,70.2Z" fill="url(#gradient_03)"/>
            <path d="M404.52,70.2a10.8,10.8,0,1,1,.79-15.26A10.82,10.82,0,0,1,404.52,70.2Z" fill="url(#gradient_04)"/>
            <path d="M404.52,70.2a10.8,10.8,0,1,1,.79-15.26A10.82,10.82,0,0,1,404.52,70.2Z" fill="url(#gradient_05)"/>
            <path d="M403.51,59.11a3.8,3.8,0,0,1-4.24,3,3.41,3.41,0,0,1-2.82-4.1,3.8,3.8,0,0,1,4.24-3A3.41,3.41,0,0,1,403.51,59.11Z" fill="url(#gradient_06)"/>
        </g>
        <path d="M796.64,469.12a3.37,3.37,0,0,0,3.36-3.35V265.63a3.37,3.37,0,0,0-3.36-3.35h-4.12V93.43c0-55-34-93.43-97.87-93.43H92.44C34.32,0,0,42.81,0,91.73V1607.67A88.35,88.35,0,0,0,88.36,1696h615.8a88.34,88.34,0,0,0,88.36-88.33V691.16h4.12a3.36,3.36,0,0,0,3.36-3.35V577a3.37,3.37,0,0,0-3.36-3.35h-4.12V469.12ZM772.13,1608.35a68,68,0,0,1-68,67.94H90.4a68,68,0,0,1-68-67.94V94.79c0-51.3,29.91-75.08,74.09-75.08H697.37c45.2,0,74.76,26.5,74.76,74.74Z" fill="#383E45" style="mix-blend-mode: overlay"/>
    </g>
</svg>
