<svg xmlns="http://www.w3.org/2000/svg" xmlns:xlink="http://www.w3.org/1999/xlink" xmlns:xhtml="http://www.w3.org/1999/xhtml" viewBox="0 0 800 1928" data-forced-size="true" width="800" height="1928" data-img-aspect-ratio="9:19.5" data-img-perspective="[[1.90, 4.84], [92.64, 0.67], [92.64, 99.17], [1.90, 95.15]]">
    <defs>
        <linearGradient id="gradient_01" x1="757.28" y1="1922.76" x2="757.28" y2="4.88" gradientUnits="userSpaceOnUse">
            <stop offset="0" stop-color="#515151"/>
            <stop offset=".02" stop-color="silver"/>
            <stop offset=".03" stop-color="#959595"/>
            <stop offset=".04" stop-color="#707070"/>
            <stop offset=".08" stop-color="silver"/>
            <stop offset=".93" stop-color="silver"/>
            <stop offset=".97" stop-color="#707070"/>
            <stop offset=".98" stop-color="silver"/>
            <stop offset="1" stop-color="#515151"/>
        </linearGradient>
        <linearGradient id="gradient_02" x1="716.15" y1="963.82" x2="798.41" y2="963.82" gradientUnits="userSpaceOnUse">
            <stop offset="0" stop-color="#515151"/>
            <stop offset="1" stop-color="#515151" stop-opacity="0"/>
        </linearGradient>
        <linearGradient id="gradient_03" x1="759.84" y1="67.41" x2="759.84" y2="21.12" gradientUnits="userSpaceOnUse">
            <stop offset="0" stop-color="#fff" stop-opacity="0"/>
            <stop offset=".71" stop-color="#fff"/>
            <stop offset="1" stop-color="#fff" stop-opacity="0"/>
        </linearGradient>
        <linearGradient id="gradient_04" x1="782.26" y1="598.66" x2="782.26" y2="363.17" gradientUnits="userSpaceOnUse">
            <stop offset="0" stop-color="#515151"/>
            <stop offset=".05" stop-color="#959595"/>
            <stop offset=".1" stop-color="#515151"/>
            <stop offset=".92" stop-color="#515151"/>
            <stop offset=".96" stop-color="#959595"/>
            <stop offset="1" stop-color="#515151"/>
        </linearGradient>
        <linearGradient id="gradient_05" x1="776.12" y1="480.92" x2="788.41" y2="480.92" gradientUnits="userSpaceOnUse">
            <stop offset=".15" stop-color="#fff" stop-opacity="0"/>
            <stop offset=".37" stop-color="#fff" stop-opacity=".5"/>
        </linearGradient>
        <linearGradient id="gradient_06" y1="869.87" y2="710.38" xlink:href="#gradient_04"/>
        <linearGradient id="gradient_07" y1="790.13" y2="790.13" xlink:href="#gradient_05"/>
        <radialGradient id="gradient_08" cx="361.29" cy="107.39" fx="361.29" fy="107.39" r="15.32" gradientUnits="userSpaceOnUse">
            <stop offset="0" stop-color="#6a7f86"/>
            <stop offset=".07" stop-color="#54656f"/>
            <stop offset=".16" stop-color="#3a4654"/>
            <stop offset=".27" stop-color="#242d3e"/>
            <stop offset=".39" stop-color="#141a2d"/>
            <stop offset=".52" stop-color="#080c22"/>
            <stop offset=".69" stop-color="#02041b"/>
            <stop offset="1" stop-color="#000219"/>
        </radialGradient>
        <clipPath id="screenPath">
            <polygon points="737.11 18.9 18.17 99.21 18.17 1829.36 737.11 1907.15 737.11 18.9"/>
        </clipPath>
        <path id="filterPath" d="M.8617.0087.0677.0465.026.0585.0124.0783.0138.9247.0318.9443.0677.955.8599.9916.9023.9856.9344.9649.9327.0324.9316.0318.9028.0132.8617.0087Z"/>
    </defs>
    <svg viewBox="0 0 1 1" id="preview" preserveAspectRatio="none">
        <use xlink:href="#filterPath" fill="darkgrey"/>
    </svg>
    <image xlink:href="" clip-path="url(#screenPath)" preserveAspectRatio="none" width="100%" height="100%">
        <animateMotion dur="1ms" repeatCount="indefinite"/>
    </image>
    <g>
        <g id="background_side">
            <path d="M798.39,124.97v-22.28c0-13.94,1.44-46.33-22.47-70.24-15.79-15.79-59.78-27.57-59.78-27.57l26.35,51.53v1762.46h4.75l-6.13,71.1-22.09,32.79s39.72-15.24,46-19.08c10.69-6.55,33.38-28.54,33.38-62.29V124.97h-.02Z" fill="url(#gradient_01)"/>
            <path d="M798.39,124.97v-22.28c0-13.94,1.44-46.33-22.47-70.24-15.79-15.79-59.78-27.57-59.78-27.57l26.35,51.53v1762.46h4.75l-6.13,71.1-22.09,32.79s39.72-15.24,46-19.08c10.69-6.55,33.38-28.54,33.38-62.29V124.97h-.02Z" fill="url(#gradient_02)"/>
            <path d="M742.5,67.41v-11l-18.05-35.29h34.78c6.62,3.42,12.6,7.24,16.69,11.33,10.76,10.76,16.38,23.23,19.32,34.96h-52.74Z" fill="url(#gradient_03)"/>
        </g>
        <g id="background_border">
            <path d="M692.13,15.84c15.23,0,29.54,5.8,40.31,16.32,10.83,10.59,16.8,24.85,16.8,40.14v1784.73c0,30.52-24.78,55.36-55.23,55.36-2.07,0-4.16-.12-6.24-.35l-611.58-68.03c-16.76-1.86-32.16-10.18-43.39-23.41-11.47-13.53-17.79-31.27-17.79-49.95V157.2c0-39.18,25.56-69.43,62.13-73.54L685.37,16.22c2.25-.25,4.52-.38,6.76-.38M692.13.84c-2.78,0-5.6.16-8.44.48L75.48,68.75C32.49,73.59,0,109.23,0,157.2v1613.46c0,46.09,32.09,83.55,74.52,88.27l611.58,68.03c2.66.3,5.29.44,7.9.44,38.27,0,70.23-31.1,70.23-70.36V72.3c0-40.36-32.79-71.46-72.1-71.46h0Z" fill="silver"/>
            <path d="M692.13,4.84c18.12,0,35.17,6.91,48,19.46,12.96,12.68,20.1,29.73,20.1,48v1784.73c0,36.59-29.71,66.36-66.23,66.36-2.47,0-4.98-.14-7.45-.41l-611.58-68.03c-19.56-2.18-37.52-11.85-50.56-27.23-13.16-15.51-20.4-35.78-20.4-57.06V157.2c0-22.28,7.14-42.26,20.64-57.77,13.02-14.96,31.23-24.45,51.28-26.7L684.14,5.29c2.65-.3,5.34-.45,7.99-.45M692.13.84c-2.78,0-5.6.16-8.44.48L75.48,68.75C32.49,73.59,0,109.23,0,157.2v1613.46C0,1816.75,32.09,1854.21,74.52,1858.93l611.58,68.03c2.66.3,5.29.44,7.9.44,38.27,0,70.23-31.1,70.23-70.36V72.3c0-40.36-32.79-71.46-72.1-71.46h0Z" fill="#959595"/>
            <path d="M692.13,2.84c18.65,0,36.19,7.11,49.39,20.03,13.35,13.06,20.71,30.61,20.71,49.43v1784.73c0,37.69-30.61,68.36-68.23,68.36-2.54,0-5.13-.14-7.68-.43l-611.58-68.03c-20.07-2.23-38.49-12.15-51.87-27.93-13.46-15.88-20.88-36.6-20.88-58.36V157.2c0-22.77,7.31-43.2,21.13-59.09,13.35-15.34,32.02-25.06,52.57-27.38L683.91,3.31c2.73-.31,5.49-.46,8.21-.46M692.13.84c-2.78,0-5.6.16-8.44.48L75.48,68.75C32.49,73.59,0,109.23,0,157.2v1613.46C0,1816.75,32.09,1854.21,74.52,1858.93l611.58,68.03c2.66.3,5.29.44,7.9.44,38.27,0,70.23-31.1,70.23-70.36V72.3c0-40.36-32.79-71.46-72.1-71.46h0Z" fill="#707070"/>
        </g>
        <g id="button_2">
            <path d="M788.41,374.5c0-1.97-.4-3.93-1.09-5.64v-5.69h-6.21c-2.83.02-5,3.2-5,7.83v220.44c0,4.63,2.16,7.54,5,7.19v.03h6.21v-6.51c.68-1.8,1.09-3.81,1.09-5.78v-211.88Z" fill="url(#gradient_04)"/>
            <path d="M788.41,374.5c0-1.97-.4-3.93-1.09-5.64v-5.69h-6.21c-2.83.02-5,3.2-5,7.83v220.44c0,4.63,2.16,7.54,5,7.19v.03h6.21v-6.51c.68-1.8,1.09-3.81,1.09-5.78v-211.88Z" fill="url(#gradient_05)"/>
            <path d="M788.53,598.28h0c-3.43,1.52-6.27-1.53-6.27-6.83v-220.44c0-5.3,2.84-8.71,6.27-7.64h0c3.36,1.05,6.03,6.03,6.03,11.13v211.88c0,5.1-2.67,10.42-6.03,11.9Z" fill="#959595"/>
        </g>
        <g id="button_1">
            <path d="M788.41,721.71c0-1.97-.4-3.93-1.09-5.64v-5.69h-6.21c-2.83.02-5,3.2-5,7.83v144.44c0,4.63,2.16,7.54,5,7.19v.03h6.21v-6.51c.68-1.8,1.09-3.81,1.09-5.78v-135.88Z" fill="url(#gradient_06)"/>
            <path d="M788.41,721.71c0-1.97-.4-3.93-1.09-5.64v-5.69h-6.21c-2.83.02-5,3.2-5,7.83v144.44c0,4.63,2.16,7.54,5,7.19v.03h6.21v-6.51c.68-1.8,1.09-3.81,1.09-5.78v-135.88Z" fill="url(#gradient_07)"/>
            <path d="M788.53,869.49h0c-3.43,1.52-6.27-1.53-6.27-6.83v-144.44c0-5.3,2.84-8.71,6.27-7.64h0c3.36,1.05,6.03,6.03,6.03,11.13v135.88c0,5.1-2.67,10.42-6.03,11.9Z" fill="#959595"/>
        </g>
        <path id="overlay" d="M798.39,124.97v-22.28c0-7.67.43-20.93-3.16-35.28h.01c-.05-.2-.11-.41-.16-.61-.07-.27-.14-.54-.21-.8-.13-.5-.27-.99-.41-1.49-.09-.32-.19-.64-.28-.96-.14-.45-.28-.9-.42-1.36-.11-.35-.22-.7-.34-1.06-.14-.43-.29-.85-.44-1.28-.13-.37-.26-.74-.4-1.12-.15-.41-.31-.82-.47-1.23-.15-.38-.29-.77-.45-1.15-.17-.41-.35-.82-.52-1.23-.31-.74-.64-1.47-.98-2.21-.18-.39-.36-.79-.55-1.18-.2-.41-.41-.81-.61-1.22-.19-.38-.38-.76-.58-1.13-.22-.41-.44-.81-.67-1.22-.21-.37-.41-.75-.63-1.12-.23-.41-.48-.81-.72-1.21-.22-.37-.45-.74-.68-1.11-.25-.4-.51-.8-.77-1.19-.24-.37-.49-.74-.75-1.11-.27-.39-.54-.78-.82-1.17-.27-.37-.54-.74-.82-1.11-.29-.38-.57-.76-.87-1.14-.29-.38-.6-.75-.9-1.12-.3-.37-.6-.74-.91-1.11-.33-.39-.68-.77-1.02-1.16-.3-.34-.6-.69-.92-1.03-.44-.48-.9-.95-1.36-1.42-.23-.23-.44-.47-.67-.7-1.02-1.02-2.16-2.03-3.4-3.01,0,0-.01-.01-.02-.02-.61-.48-1.24-.96-1.89-1.43-.03-.02-.06-.04-.09-.06-.63-.46-1.28-.91-1.95-1.35-.05-.03-.1-.07-.15-.1-.65-.43-1.31-.86-1.99-1.28-.08-.05-.15-.09-.23-.14-.66-.41-1.33-.81-2.01-1.21-.1-.06-.21-.12-.32-.18-.65-.38-1.32-.75-1.99-1.12-.15-.08-.29-.16-.44-.24-.63-.34-1.27-.68-1.91-1.02-.1-.05-.2-.11-.3-.16h0c-18.93-9.77-43.08-16.24-43.08-16.24h0c-.36-.11-.72-.22-1.08-.34-1.06-.35-2.13-.68-3.21-.98-1.14-.32-2.28-.61-3.44-.87-5.25-1.19-10.7-1.84-16.29-1.84-2.78,0-5.6.16-8.44.48L75.48,68.75C32.49,73.59,0,109.23,0,157.2H0v1613.46H0c0,7.2.78,14.19,2.27,20.88.3,1.34.62,2.66.97,3.98,9.16,34.13,36.81,59.58,71.28,63.41l424.38,47.2,187.2,20.82c2.66.3,5.29.44,7.9.44,5.8,0,11.45-.72,16.87-2.07.53-.13,1.06-.28,1.59-.42,1.29-.35,2.56-.74,3.82-1.17.93-.31,1.86-.65,2.77-1l-.02.03s39.72-15.24,46-19.08c10.69-6.55,33.38-28.54,33.38-62.29V124.97h-.02ZM728.17,28.39l1.25,2.44,13.08,25.57v1762.46h4.75l-5.72,66.31c-9.63,16.28-27.33,27.22-47.53,27.22-2.07,0-4.16-.12-6.24-.35l-611.58-68.03c-16.76-1.86-32.16-10.18-43.39-23.41-11.47-13.53-17.79-31.27-17.79-49.95V157.2c0-39.18,25.56-69.43,62.13-73.54L685.37,16.22c2.25-.25,4.52-.38,6.76-.38,13.3,0,25.89,4.42,36.04,12.55Z" fill="#383E45" style="mix-blend-mode: overlay" opacity="0.75"/>
        <path id="bezel" d="M686.63,9.94c-2.46,0-4.95.14-7.45.42L68.76,79.26c-35.69,4.03-62.67,34.22-62.67,70.14v1627.2c0,37.14,27.94,68.33,64.85,72.41l610.35,67.44c2.39.26,4.76.39,7.1.39,34.66,0,63.58-28.16,63.58-63.7V75.39c0-36.53-29.73-65.46-65.34-65.46ZM680.2,1900.99l-607.93-65.77c-30.77-3.33-54.1-29.31-54.1-60.27V153.55c0-30.88,23.22-56.83,53.91-60.25L678.12,25.87c31.46-3.5,58.97,21.12,58.98,52.78l.02,1771.26c0,30.57-26.52,54.37-56.91,51.09Z"/>
        <g id="details">
            <polygon points="798.41 1755.81 763.04 1767.21 751.27 1767.21 751.27 1755.3 762.77 1755.3 798.41 1743.9 798.41 1755.81" opacity=".1"/>
            <polygon points="631.92 1920.92 620.1 1919.62 620.1 1906.81 631.92 1906.81 631.92 1920.92" opacity=".1"/>
            <polygon points="109.63 1853.28 109.63 1862.83 119.78 1863.96 119.78 1854.41 109.63 1853.28" opacity=".1"/>
        </g>
        <g id="camera">
            <path d="M382.11,105.67c0,13.72-10.08,24.94-21.68,24.94-10.75,0-18.78-9.81-18.6-21.82.18-11.9,8.39-22.7,18.97-24.33,11.4-1.75,21.3,7.63,21.3,21.21Z" fill="#1a1a1c"/>
            <path d="M375.48,106.18c-.02,9.49-6.92,17.39-15,17.57s-13.51-6.73-13.39-15.37,6.08-16.27,13.66-17.27c7.98-1.05,14.76,5.64,14.73,15.06Z" fill="url(#gradient_08)"/>
        </g>
    </g>
</svg>
