<svg xmlns="http://www.w3.org/2000/svg" xmlns:xlink="http://www.w3.org/1999/xlink" viewBox="0 0 800 1668" width="800" height="1668" data-forced-size="true">
    <style>
        image {
            width: calc(100% - 50px);
            height: calc(100% - 46px);
        }
    </style>
    <defs>
        <linearGradient id="gradient_01" x1="798.16" y1="584.49" x2="798.29" y2="724.38" gradientUnits="userSpaceOnUse">
            <stop offset="0" stop-color="silver"/>
            <stop offset=".05" stop-color="#959595"/>
            <stop offset=".05" stop-color="#959595"/>
            <stop offset=".95" stop-color="#959595"/>
            <stop offset="1" stop-color="#b8b8b8"/>
            </linearGradient>
            <linearGradient id="gradient_01-2" x1="798.12" y1="275.41" x2="798.33" y2="483.83" xlink:href="#gradient_01"/>
            <radialGradient id="gradient_02" cx="398.21" cy="65.2" fx="398.21" fy="65.2" r="16.53" gradientUnits="userSpaceOnUse">
            <stop offset="0" stop-color="#6a7f86"/>
            <stop offset=".07" stop-color="#54656f"/>
            <stop offset=".16" stop-color="#3a4654"/>
            <stop offset=".27" stop-color="#242d3e"/>
            <stop offset=".39" stop-color="#141a2d"/>
            <stop offset=".52" stop-color="#080c22"/>
            <stop offset=".69" stop-color="#02041b"/>
            <stop offset="1" stop-color="#000219"/>
        </radialGradient>
        <path id="filterPath" d="M.8937.012H.0903c-.0361 0-.0653.014-.0653.0313v.9134c0 .0173.0293.0313.0653.0313h.8149c.0361 0 .0653-.014.0653-.0313V.0433c0-.0173-.0408-.0313-.0769-.0313Z"/>
    </defs>
    <svg viewBox="0 0 1 1" id="preview" preserveAspectRatio="none">
        <use xlink:href="#filterPath" fill="darkgrey"/>
    </svg>
    <image xlink:href="" preserveAspectRatio="xMidYMin slice" x="23" y="23">
        <animateMotion dur="1ms" repeatCount="indefinite"/>
    </image>
    <g>
        <g id="device_border">
            <path d="M716.04,20c33.31,0,60.41,27.1,60.41,60.41v1507.18c0,33.31-27.1,60.41-60.41,60.41H80.41c-33.31,0-60.41-27.1-60.41-60.41V80.41c0-33.31,27.1-60.41,60.41-60.41h635.63M716.04,0H80.41C36,0,0,36,0,80.41v1507.18C0,1632,36,1668,80.41,1668h635.63c44.41,0,80.41-36,80.41-80.41V80.41C796.45,36,760.45,0,716.04,0h0Z" fill="silver"/>
            <path d="M716.04,9c39.38,0,71.41,32.03,71.41,71.41v1507.18c0,39.38-32.03,71.41-71.41,71.41H80.41c-39.38,0-71.41-32.03-71.41-71.41V80.41C9,41.03,41.03,9,80.41,9h635.63M716.04,0H80.41C36,0,0,36,0,80.41v1507.18C0,1632,36,1668,80.41,1668h635.63c44.41,0,80.41-36,80.41-80.41V80.41C796.45,36,760.45,0,716.04,0h0Z" fill="#959595"/>
            <path d="M716.04,4c42.13,0,76.41,34.28,76.41,76.41v1507.18c0,42.13-34.28,76.41-76.41,76.41H80.41c-42.13,0-76.41-34.28-76.41-76.41V80.41C4,38.28,38.28,4,80.41,4h635.63M716.04,0H80.41C36,0,0,36,0,80.41v1507.18C0,1632,36,1668,80.41,1668h635.63c44.41,0,80.41-36,80.41-80.41V80.41C796.45,36,760.45,0,716.04,0h0Z" fill="#707070"/>
        </g>
        <g id="details">
            <rect id="button_02" x="796.45" y="584.88" width="3.55" height="139.89" fill="url(#gradient_01)"/>
            <rect id="button_01" x="796.45" y="275.99" width="3.55" height="208.42" fill="url(#gradient_01-2)"/>
            <rect id="detail_03" y="1528.47" width="13" height="10.77" opacity=".1"/>
            <rect id="detail_02" y="129.15" width="13" height="10.77" opacity=".1"/>
            <rect id="detail_01" x="783.45" y="129.19" width="13" height="10.77" opacity=".1"/>
        </g>
        <path id="overlay" d="M800,484.41v-208.42h-3.55V80.41C796.45,36,760.45,0,716.04,0H80.41C36,0,0,36,0,80.41v1507.18C0,1632,36,1668,80.41,1668h635.63c44.41,0,80.41-36,80.41-80.41v-862.82h3.55v-139.89h-3.55v-100.47h3.55ZM776.45,1587.59c0,33.31-27.1,60.41-60.41,60.41H80.41c-33.31,0-60.41-27.1-60.41-60.41V80.41c0-33.31,27.1-60.41,60.41-60.41h635.63c33.31,0,60.41,27.1,60.41,60.41v1507.18Z" fill="#383E45" style="mix-blend-mode: overlay"/>
        <path id="bezel" d="M716.04,13H80.41C43.24,13,13,43.24,13,80.41v1507.18c0,37.17,30.24,67.41,67.41,67.41h635.63c37.17,0,67.41-30.24,67.41-67.41V80.41c0-37.17-30.24-67.41-67.41-67.41ZM770.45,1587.59c0,30-24.41,54.41-54.41,54.41H80.41c-30,0-54.41-24.41-54.41-54.41V80.41c0-30,24.41-54.41,54.41-54.41h635.63c30,0,54.41,24.41,54.41,54.41v1507.18Z"/>
        <g id="camera">
            <path d="M421.62,65.2c0,12.91-10.48,23.37-23.4,23.37s-23.39-10.46-23.39-23.37,10.48-23.37,23.39-23.37,23.4,10.46,23.4,23.37Z" fill="#1a1a1c"/>
            <ellipse cx="398.21" cy="65.2" rx="16.53" ry="16.53" fill="url(#gradient_02)"/>
        </g>
    </g>
</svg>
