<svg xmlns="http://www.w3.org/2000/svg" xmlns:xlink="http://www.w3.org/1999/xlink" viewBox="0 0 1668 800" width="1668" height="800" data-forced-size="true">
    <style>
        image {
            width: calc(100% - 46px);
            height: calc(100% - 50px);
        }
    </style>
    <defs>
        <linearGradient id="gradient_01" x1="3607.24" y1="-2224.61" x2="3607.38" y2="-2084.71" gradientTransform="translate(-2594.1391 2952.495)" gradientUnits="userSpaceOnUse">
            <stop offset="0" stop-color="silver"/>
            <stop offset=".05" stop-color="#959595"/>
            <stop offset=".05" stop-color="#959595"/>
            <stop offset=".95" stop-color="#959595"/>
            <stop offset="1" stop-color="#b8b8b8"/>
        </linearGradient>
        <linearGradient id="gradient_01-2" x1="3607.21" y1="-2533.69" x2="3607.41" y2="-2325.26" gradientTransform="translate(-2319.5126 3227.1216)" xlink:href="#gradient_01"/>
        <radialGradient id="gradient_02" cx="3207.3" cy="-2743.89" fx="3207.3" fy="-2743.89" r="16.53" gradientTransform="translate(-1141.0918 -2809.0918) rotate(90)" gradientUnits="userSpaceOnUse">
            <stop offset="0" stop-color="#6a7f86"/>
            <stop offset=".07" stop-color="#54656f"/>
            <stop offset=".16" stop-color="#3a4654"/>
            <stop offset=".27" stop-color="#242d3e"/>
            <stop offset=".39" stop-color="#141a2d"/>
            <stop offset=".52" stop-color="#080c22"/>
            <stop offset=".69" stop-color="#02041b"/>
            <stop offset="1" stop-color="#000219"/>
        </radialGradient>
        <path id="filterPath" d="M.012.9052V.0903c0-.0361.0226-.0653.0399-.0653h.9048c.0173 0 .0313.0293.0313.0653v.8149c0 .0361-.014.0653-.0313.0653H.0433c-.0173 0-.0313-.0293-.0313-.0653Z"/>
    </defs>
    <svg viewBox="0 0 1 1" id="preview" preserveAspectRatio="none">
        <use xlink:href="#filterPath" fill="darkgrey"/>
    </svg>
    <image xlink:href="" preserveAspectRatio="xMidYMin slice" x="23" y="23">
        <animateMotion dur="1ms" repeatCount="indefinite"/>
    </image>
    <g>
        <g id="device_border">
            <path d="M1648,716.04c0,33.31-27.1,60.41-60.41,60.41H80.41c-33.31,0-60.41-27.1-60.41-60.41V80.41c0-33.31,27.1-60.41,60.41-60.41h1507.18c33.31,0,60.41,27.1,60.41,60.41v635.63M1668,716.04V80.41c0-44.41-36-80.41-80.41-80.41H80.41C36,0,0,36,0,80.41v635.63c0,44.41,36,80.41,80.41,80.41h1507.18c44.41,0,80.41-36,80.41-80.41h0Z" fill="silver"/>
            <path d="M1659,716.04c0,39.38-32.03,71.41-71.41,71.41H80.41c-39.38,0-71.41-32.03-71.41-71.41V80.41C9,41.03,41.03,9,80.41,9h1507.18c39.38,0,71.41,32.03,71.41,71.41v635.63M1668,716.04V80.41c0-44.41-36-80.41-80.41-80.41H80.41C36,0,0,36,0,80.41v635.63c0,44.41,36,80.41,80.41,80.41h1507.18c44.41,0,80.41-36,80.41-80.41h0Z" fill="#959595"/>
            <path d="M1664,716.04c0,42.13-34.28,76.41-76.41,76.41H80.41c-42.13,0-76.41-34.28-76.41-76.41V80.41C4,38.28,38.28,4,80.41,4h1507.18c42.13,0,76.41,34.28,76.41,76.41v635.63M1668,716.04V80.41c0-44.41-36-80.41-80.41-80.41H80.41C36,0,0,36,0,80.41v635.63c0,44.41,36,80.41,80.41,80.41h1507.18c44.41,0,80.41-36,80.41-80.41h0Z" fill="#707070"/>
        </g>
        <g id="details">
            <rect id="button_02" x="1011.4" y="728.28" width="3.55" height="139.89" transform="translate(1811.4032 -214.9527) rotate(90)" fill="url(#gradient_01)"/>
            <rect id="button_01" x="1286.03" y="694.01" width="3.55" height="208.42" transform="translate(2086.0297 -489.5793) rotate(90)" fill="url(#gradient_01-2)"/>
            <rect id="detail_03" x="127.64" y="1.11" width="13" height="10.77" transform="translate(140.64 -127.64) rotate(90)" opacity=".1"/>
            <rect id="detail_02" x="1526.97" y="1.11" width="13" height="10.77" transform="translate(1539.9657 -1526.9657) rotate(90)" opacity=".1"/>
            <rect id="detail_01" x="1526.92" y="784.56" width="13" height="10.77" transform="translate(2323.371 -743.4701) rotate(90)" opacity=".1"/>
        </g>
        <path id="overlay" d="M1183.59,800h208.42v-3.55h195.58c44.41,0,80.41-36,80.41-80.41V80.41c0-44.41-36-80.41-80.41-80.41H80.41C36,0,0,36,0,80.41v635.63c0,44.41,36,80.41,80.41,80.41h862.82v3.55h139.89v-3.55h100.47v3.55ZM80.41,776.45c-33.31,0-60.41-27.1-60.41-60.41V80.41c0-33.31,27.1-60.41,60.41-60.41h1507.18c33.31,0,60.41,27.1,60.41,60.41v635.63c0,33.31-27.1,60.41-60.41,60.41H80.41Z" fill="#383E45" style="mix-blend-mode: overlay"/>
        <path id="bezel" d="M1655,716.04V80.41c0-37.17-30.24-67.41-67.41-67.41H80.41C43.24,13,13,43.24,13,80.41v635.63c0,37.17,30.24,67.41,67.41,67.41h1507.18c37.17,0,67.41-30.24,67.41-67.41ZM80.41,770.45c-30,0-54.41-24.41-54.41-54.41V80.41c0-30,24.41-54.41,54.41-54.41h1507.18c30,0,54.41,24.41,54.41,54.41v635.63c0,30-24.41,54.41-54.41,54.41H80.41Z"/>
        <g id="camera">
            <path d="M1602.8,421.62c-12.91,0-23.37-10.48-23.37-23.4s10.46-23.39,23.37-23.39,23.37,10.48,23.37,23.39-10.46,23.4-23.37,23.4Z" fill="#1a1a1c"/>
            <ellipse cx="1602.8" cy="398.21" rx="16.53" ry="16.53" fill="url(#gradient_02)"/>
        </g>
    </g>
</svg>
