<svg xmlns="http://www.w3.org/2000/svg" xmlns:xlink="http://www.w3.org/1999/xlink" xmlns:xhtml="http://www.w3.org/1999/xhtml" viewBox="0 0 800 1928" data-forced-size="true" width="800" height="1928" data-img-aspect-ratio="9:19.5" data-img-perspective="[[7.49, 0.90], [98.06, 5.01], [98.06, 95.04], [7.49, 99.07]]">
    <defs>
        <linearGradient id="gradient_01" x1="757.28" y1="1922.76" x2="757.28" y2="4.88" gradientTransform="translate(800) scale(-1 1)" gradientUnits="userSpaceOnUse">
            <stop offset="0" stop-color="#515151"/>
            <stop offset=".02" stop-color="silver"/>
            <stop offset=".03" stop-color="#959595"/>
            <stop offset=".04" stop-color="#707070"/>
            <stop offset=".08" stop-color="silver"/>
            <stop offset=".93" stop-color="silver"/>
            <stop offset=".97" stop-color="#707070"/>
            <stop offset=".98" stop-color="silver"/>
            <stop offset="1" stop-color="#515151"/>
        </linearGradient>
        <linearGradient id="gradient_02" x1="716.15" y1="963.82" x2="798.41" y2="963.82" gradientTransform="translate(800) scale(-1 1)" gradientUnits="userSpaceOnUse">
            <stop offset="0" stop-color="#515151"/>
            <stop offset="1" stop-color="#515151" stop-opacity="0"/>
        </linearGradient>
        <linearGradient id="gradient_03" x1="759.84" y1="67.41" x2="759.84" y2="21.12" gradientTransform="translate(800) scale(-1 1)" gradientUnits="userSpaceOnUse">
            <stop offset="0" stop-color="#fff" stop-opacity="0"/>
            <stop offset=".71" stop-color="#fff"/>
            <stop offset="1" stop-color="#fff" stop-opacity="0"/>
        </linearGradient>
        <radialGradient id="gradient_04" cx="361.29" cy="107.39" fx="361.29" fy="107.39" r="15.32" gradientTransform="translate(800) scale(-1 1)" gradientUnits="userSpaceOnUse">
            <stop offset="0" stop-color="#6a7f86"/>
            <stop offset=".07" stop-color="#54656f"/>
            <stop offset=".16" stop-color="#3a4654"/>
            <stop offset=".27" stop-color="#242d3e"/>
            <stop offset=".39" stop-color="#141a2d"/>
            <stop offset=".52" stop-color="#080c22"/>
            <stop offset=".69" stop-color="#02041b"/>
            <stop offset="1" stop-color="#000219"/>
        </radialGradient>
        <clipPath id="screenPath">
            <path d="M110.67,16.75l635.19,72.9,33.56,23.1,10.83,37.89-1.08,1632-14.44,37.89-28.51,20.57-633.98,70.94-33.87-11.57-25.62-40.06S54.01,63.44,54.96,62.22s23.01-35.73,23.01-35.73l32.71-9.74Z"/>
        </clipPath>
        <path id="filterPath" d="M.1383.0087.9327.0465.9745.0585.988.0783.9866.9247.9689.9443.9331.955.1409.9916.0984.9856.0667.9649.0675.0324.0687.0318.0975.0132.1383.0087Z"/>
    </defs>
    <svg viewBox="0 0 1 1" id="preview" preserveAspectRatio="none">
        <use xlink:href="#filterPath" fill="darkgrey"/>
    </svg>
    <image xlink:href="" clip-path="url(#screenPath)" preserveAspectRatio="none" width="100%" height="100%">
        <animateMotion dur="1ms" repeatCount="indefinite"/>
    </image>
    <g>
        <g id="background_side">
            <path d="M1.61,124.97v-22.28c0-13.94-1.44-46.33,22.47-70.24,15.79-15.79,59.78-27.57,59.78-27.57l-26.35,51.53v68.56s0,7.63,0,7.63v1686.27h-4.75s6.13,71.1,6.13,71.1l22.09,32.79s-39.72-15.24-46-19.08c-10.69-6.55-33.38-28.54-33.38-62.29,0-9.2,0-16.6,0-22.53,0-15.81,0-21,0-21V124.97h.02Z" fill="url(#gradient_01)"/>
            <path d="M1.61,124.97v-22.28c0-13.94-1.44-46.33,22.47-70.24,15.79-15.79,59.78-27.57,59.78-27.57l-26.35,51.53v68.56s0,7.63,0,7.63v1686.27h-4.75s6.13,71.1,6.13,71.1l22.09,32.79s-39.72-15.24-46-19.08c-10.69-6.55-33.38-28.54-33.38-62.29,0-9.2,0-16.6,0-22.53,0-15.81,0-21,0-21V124.97h.02Z" fill="url(#gradient_02)"/>
            <path d="M57.5,67.41v-11s18.05-35.29,18.05-35.29h-34.78c-6.62,3.42-12.6,7.24-16.69,11.33-10.76,10.76-16.38,23.23-19.32,34.96h52.74Z" fill="url(#gradient_03)"/>
        </g>
        <g id="background_border">
            <path d="M107.87,15.84c2.24,0,4.51.13,6.76.38l608.23,67.43c36.57,4.11,62.13,34.36,62.13,73.54v1613.46c0,18.68-6.32,36.42-17.79,49.95-11.22,13.23-26.63,21.55-43.39,23.41l-611.58,68.03c-2.07.23-4.17.35-6.24.35-30.45,0-55.23-24.83-55.23-55.36V72.3c0-15.29,5.96-29.55,16.8-40.14,10.76-10.52,25.08-16.32,40.31-16.32M107.87.84c-39.31,0-72.1,31.1-72.1,71.46v1784.73c0,39.26,31.96,70.36,70.23,70.36,2.61,0,5.24-.14,7.9-.44l611.58-68.03c42.43-4.72,74.52-42.18,74.52-88.27V157.2c0-47.97-32.49-83.61-75.48-88.45L116.31,1.32c-2.84-.32-5.65-.48-8.44-.48h0Z" fill="silver"/>
            <path d="M107.87,4.84c2.65,0,5.34.15,7.99.45l608.22,67.43c20.05,2.26,38.27,11.74,51.28,26.7,13.5,15.52,20.64,35.5,20.64,57.77v1613.46c0,21.28-7.25,41.55-20.4,57.06-13.05,15.38-31,25.06-50.56,27.23l-611.58,68.03c-2.47.28-4.98.41-7.45.41-36.52,0-66.23-29.77-66.23-66.36V72.3c0-18.28,7.14-35.33,20.1-48,12.83-12.55,29.88-19.46,48-19.46M107.87.84c-39.31,0-72.1,31.1-72.1,71.46v1784.73c0,39.26,31.95,70.36,70.23,70.36,2.61,0,5.24-.14,7.9-.44l611.58-68.03c42.43-4.72,74.52-42.18,74.52-88.27V157.2c0-47.97-32.49-83.61-75.48-88.45L116.31,1.32c-2.84-.32-5.65-.48-8.44-.48h0Z" fill="#959595"/>
            <path d="M107.87,2.84c2.72,0,5.48.16,8.21.46l608.21,67.43c20.55,2.31,39.22,12.04,52.57,27.38,13.82,15.89,21.13,36.32,21.13,59.09v1613.46c0,21.76-7.41,42.48-20.88,58.36-13.38,15.78-31.8,25.69-51.87,27.93l-611.58,68.03c-2.55.28-5.13.43-7.68.43-37.62,0-68.23-30.66-68.23-68.36V72.3c0-18.82,7.35-36.38,20.71-49.43,13.21-12.91,30.75-20.03,49.39-20.03M107.87.84c-39.31,0-72.1,31.1-72.1,71.46v1784.73c0,39.26,31.95,70.36,70.23,70.36,2.61,0,5.24-.14,7.9-.44l611.58-68.03c42.43-4.72,74.52-42.18,74.52-88.27V157.2c0-47.97-32.49-83.61-75.48-88.45L116.31,1.32c-2.84-.32-5.65-.48-8.44-.48h0Z" fill="#707070"/>
        </g>
        <path id="overlay" d="M1.59,124.97v1672.9s0,5.19,0,21c0,5.92,0,13.33,0,22.53,0,33.74,22.69,55.74,33.38,62.29,6.27,3.84,46,19.08,46,19.08l-.02-.03c.92.35,1.84.68,2.77,1,1.26.42,2.53.81,3.82,1.17.53.14,1.06.29,1.59.42,5.42,1.35,11.07,2.07,16.87,2.07,2.61,0,5.24-.14,7.9-.44l187.2-20.82,424.38-47.2c34.47-3.83,62.12-29.28,71.28-63.41.35-1.31.68-2.64.97-3.98,1.48-6.69,2.27-13.68,2.27-20.88h0V157.2s0,0,0,0c0-47.97-32.49-83.61-75.48-88.45L116.31,1.32c-2.84-.32-5.65-.48-8.44-.48-5.59,0-11.04.65-16.29,1.84-1.16.26-2.31.55-3.44.87-1.08.3-2.15.63-3.21.98-.36.12-.72.23-1.08.36h0s-24.14,6.45-43.08,16.22h0c-.1.05-.2.11-.3.16-.64.33-1.28.67-1.91,1.02-.15.08-.29.16-.44.24-.67.37-1.34.74-1.99,1.12-.11.06-.21.12-.32.18-.68.4-1.35.8-2.01,1.21-.08.05-.15.09-.23.14-.68.42-1.34.85-1.99,1.28-.05.03-.1.07-.15.1-.67.45-1.32.9-1.95,1.35-.03.02-.06.04-.09.06-.65.47-1.28.95-1.89,1.43,0,0-.01.01-.02.02-1.24.99-2.38,1.99-3.4,3.01-.23.23-.44.47-.67.7-.46.47-.92.94-1.36,1.42-.31.34-.61.69-.92,1.03-.34.39-.69.77-1.02,1.16-.31.37-.61.74-.91,1.11-.3.37-.61.75-.9,1.12-.3.38-.58.76-.87,1.14-.28.37-.55.74-.82,1.11-.28.39-.55.78-.82,1.17-.25.37-.5.74-.75,1.11-.26.4-.52.8-.77,1.19-.23.37-.46.74-.68,1.11-.24.4-.49.81-.72,1.21-.21.37-.42.74-.63,1.12-.23.41-.45.81-.67,1.22-.2.38-.39.75-.58,1.13-.21.41-.42.81-.61,1.22-.19.39-.37.78-.55,1.18-.34.73-.67,1.47-.98,2.21-.17.41-.35.82-.52,1.23-.16.38-.3.77-.45,1.15-.16.41-.32.82-.47,1.23-.14.37-.27.74-.4,1.12-.15.43-.3.85-.44,1.28-.12.35-.23.7-.34,1.06-.14.45-.29.91-.42,1.36-.1.32-.19.64-.28.96-.14.5-.28.99-.41,1.49-.07.27-.14.54-.21.8-.05.2-.11.41-.16.61h.01c-3.59,14.35-3.16,27.61-3.16,35.28v22.28h-.02ZM107.87,15.84c2.24,0,4.51.13,6.76.38l608.23,67.43c36.57,4.11,62.13,34.36,62.13,73.54v1613.46c0,18.68-6.32,36.42-17.79,49.95-11.22,13.23-26.63,21.55-43.39,23.41l-611.58,68.03c-2.07.23-4.17.35-6.24.35-20.21,0-37.9-10.94-47.53-27.22l-5.72-66.31h4.75s0-1686.27,0-1686.27v-7.63s0-68.56,0-68.56l13.08-25.57,1.25-2.44c10.15-8.13,22.75-12.55,36.04-12.55Z" fill="#383E45" style="mix-blend-mode: overlay" opacity="0.75"/>
        <path id="bezel" d="M48.03,75.39v1777.76c0,35.54,28.93,63.7,63.58,63.7,2.34,0,4.71-.13,7.1-.39l610.35-67.44c36.91-4.08,64.85-35.27,64.85-72.41V149.4c0-35.92-26.98-66.11-62.67-70.14L120.82,10.36c-2.51-.28-5-.42-7.45-.42-35.61,0-65.34,28.93-65.34,65.46ZM62.89,1849.9l.02-1771.26c0-31.65,27.52-56.28,58.98-52.78l606.03,67.43c30.69,3.42,53.91,29.36,53.91,60.25v1621.4c0,30.95-23.32,56.94-54.1,60.27l-607.93,65.77c-30.39,3.29-56.91-20.52-56.91-51.09Z"/>
        <g id="details">
            <polygon points="1.59 1755.81 36.96 1767.21 48.73 1767.21 48.73 1755.3 37.23 1755.3 1.59 1743.9 1.59 1755.81" opacity=".1"/>
            <polygon points="1.59 122.52 37.23 115.73 48.73 115.73 48.73 127.64 36.96 127.64 1.59 134.78 1.59 122.52" opacity=".1"/>
            <polygon points="168.08 1920.92 179.9 1919.62 179.9 1906.81 168.08 1906.81 168.08 1920.92" opacity=".1"/>
            <polygon points="690.37 1853.28 690.37 1862.83 680.22 1863.96 680.22 1854.41 690.37 1853.28" opacity=".1"/>
        </g>
        <g id="camera">
            <path d="M417.89,105.67c0,13.72,10.08,24.94,21.68,24.94,10.75,0,18.78-9.81,18.6-21.82s-8.39-22.7-18.97-24.33c-11.4-1.75-21.3,7.63-21.3,21.21Z" fill="#1a1a1c"/>
            <path d="M424.52,106.18c.02,9.49,6.92,17.39,15,17.57,7.67.18,13.51-6.73,13.39-15.37-.11-8.58-6.08-16.27-13.66-17.27-7.98-1.05-14.76,5.64-14.73,15.06Z" fill="url(#gradient_04)"/>
        </g>
    </g>
</svg>
