<svg xmlns="http://www.w3.org/2000/svg" xmlns:xlink="http://www.w3.org/1999/xlink" viewBox="0 0 1376 680" width="1376" height="672" data-forced-size="true">
    <style>
        image {
            width: calc(100% - 42px);
            height: calc(100% - 59px);
        }
    </style>
    <defs>
        <linearGradient id="linear-gradient" x1="706.46" y1="-345.06" x2="706.46" y2="-408.67" gradientTransform="translate(672 -704) rotate(90)" gradientUnits="userSpaceOnUse">
        <stop offset="0" stop-color="#2b2b2b"/>
        <stop offset=".03" stop-color="#858585"/>
        <stop offset=".05" stop-color="#bfbfbf"/>
        <stop offset=".15" stop-color="#8c8c8c"/>
        <stop offset=".85" stop-color="#8c8c8c"/>
        <stop offset=".95" stop-color="#bfbfbf"/>
        <stop offset=".97" stop-color="#858585"/>
        <stop offset="1" stop-color="#2b2b2b"/>
        </linearGradient>
        <linearGradient id="linear-gradient-2" y1="-190.77" y2="-294.44" xlink:href="#linear-gradient"/>
        <linearGradient id="linear-gradient-3" y1="-56.79" y2="-162.08" xlink:href="#linear-gradient"/>
        <linearGradient id="linear-gradient-4" x1="-1089.26" y1="-8768.32" x2="-1089.26" y2="-8931.08" gradientTransform="translate(9701.1962 -419.7186) rotate(-90)" xlink:href="#linear-gradient"/>
        <radialGradient id="gradient_02" cx="1110.62" cy="-631.83" fx="1110.62" fy="-631.83" r="7.92" gradientTransform="translate(672 -704) rotate(90)" gradientUnits="userSpaceOnUse">
        <stop offset="0" stop-color="#658088"/>
        <stop offset=".07" stop-color="#4f6570"/>
        <stop offset=".16" stop-color="#374655"/>
        <stop offset=".27" stop-color="#222d3f"/>
        <stop offset=".39" stop-color="#131a2e"/>
        <stop offset=".52" stop-color="#080c23"/>
        <stop offset=".69" stop-color="#01041c"/>
        <stop offset="1" stop-color="#00021a"/>
        </radialGradient>
        <clipPath id="screenPath">
            <polygon points="1360.79 96.61 1360.79 579.09 1354.56 624.67 1308.28 653.35 92.41 653.35 46.39 643.13 11.74 582.32 11.74 96.61 27.99 48 87.53 14.1 1283.38 14.1 1335.89 35.09 1360.79 96.61"/>
        </clipPath>
        <path id="filterPath" d="M.9892.1438.9892.8617.9846.9296.951.9722.0671.9722.0337.957.0085.8665.0085.1438.0203.0714.0636.021.934.021.9722.0522.9892.1438Z"/>
    </defs>
    <svg viewBox="0 0 1 1" id="preview" preserveAspectRatio="none">
        <use xlink:href="#filterPath" fill="darkgrey"/>
    </svg>
    <image xlink:href="" clip-path="url(#screenPath)" preserveAspectRatio="xMidYMin slice" x="21" y="26">
        <animateMotion dur="1ms" repeatCount="indefinite"/>
    </image>
    <g>
        <g id="device_border">
            <path d="M1376,562.58V109.42c0-57.62-46.83-104.49-115.69-104.49H93.11C46.83,4.93,0,51.8,0,109.42v453.16c0,57.61,46.83,104.49,104.4,104.49h1167.2c57.57,0,104.4-46.88,104.4-104.49ZM104.4,656.62c-51.89,0-93.96-42.11-93.96-94.04V109.42C10.44,57.48,52.51,15.38,104.4,15.38h1167.2c51.89,0,93.96,42.1,93.96,94.04v453.16c0,51.93-42.07,94.04-93.96,94.04H104.4Z" fill="#707070"/>
            <path d="M1373.91,562.58V109.42c0-56.46-45.9-102.4-113.33-102.4H93.38C47.99,7.02,2.09,52.96,2.09,109.42v453.16c0,56.46,45.9,102.4,102.31,102.4h1167.2c56.41,0,102.31-45.94,102.31-102.4ZM104.4,656.62c-51.89,0-93.96-42.11-93.96-94.04V109.42C10.44,57.48,52.51,15.38,104.4,15.38h1167.2c51.89,0,93.96,42.1,93.96,94.04v453.16c0,51.93-42.07,94.04-93.96,94.04H104.4Z" fill="#969696"/>
            <path d="M1371.82,562.58V109.42c0-55.31-44.96-100.31-100.22-100.31H104.4C49.14,9.11,4.18,54.11,4.18,109.42v453.16c0,55.31,44.96,100.31,100.22,100.31h1167.2c55.26,0,100.22-45,100.22-100.31ZM104.4,656.62c-51.89,0-93.96-42.11-93.96-94.04V109.42C10.44,57.48,52.51,15.38,104.4,15.38h1167.2c51.89,0,93.96,42.1,93.96,94.04v453.16c0,51.93-42.07,94.04-93.96,94.04H104.4Z" fill="#c1c1c1"/>
            <path d="M1369.74,562.58V109.42c0-54.16-44.02-98.22-98.14-98.22H104.4C50.29,11.2,6.26,55.26,6.26,109.42v453.16c0,54.16,44.02,98.22,98.14,98.22h1167.2c54.11,0,98.14-44.06,98.14-98.22ZM104.4,656.62c-51.89,0-93.96-42.11-93.96-94.04V109.42C10.44,57.48,52.51,15.38,104.4,15.38h1167.2c51.89,0,93.96,42.1,93.96,94.04v453.16c0,51.93-42.07,94.04-93.96,94.04H104.4Z" fill="#969696"/>
            <path d="M1367.65,562.58V109.42c0-53.01-43.09-96.13-96.05-96.13H104.4C51.44,13.29,8.35,56.41,8.35,109.42v453.16c0,53,43.09,96.13,96.05,96.13h1167.2c52.96,0,96.05-43.13,96.05-96.13ZM104.4,656.62c-51.89,0-93.96-42.11-93.96-94.04V109.42C10.44,57.48,52.51,15.38,104.4,15.38h1167.2c51.89,0,93.96,42.1,93.96,94.04v453.16c0,51.93-42.07,94.04-93.96,94.04H104.4Z" fill="#707070"/>
        </g>
        <g id="details">
            <path d="M1080.67,4.93v-2.84C1080.67.94,1079.73,0,1078.58,0h-59.43c-1.15,0-2.09.94-2.09,2.09v2.84h63.61Z" fill="url(#linear-gradient)"/>
            <path d="M966.44,4.93v-2.84C966.44.94,965.51,0,964.36,0h-99.49c-1.15,0-2.09.94-2.09,2.09v2.84h103.67Z" fill="url(#linear-gradient-2)"/>
            <path d="M834.08,4.93v-2.84C834.08.94,833.15,0,831.99,0h-101.12c-1.15,0-2.09.94-2.09,2.09v2.84h105.29Z" fill="url(#linear-gradient-3)"/>
            <path d="M770.11,667.07v2.84c0,1.15.93,2.09,2.09,2.09h158.59c1.15,0,2.09-.94,2.09-2.09v-2.84h-162.77Z" fill="url(#linear-gradient-4)"/>
            <rect x="1223.58" y="656.62" width="14.96" height="10.45" fill="#fff" opacity=".3"/>
            <rect x="1365.56" y="520.09" width="10.44" height="14.98" fill="#fff" opacity=".3"/>
            <rect x="1223.79" y="4.93" width="14.22" height="10.45" fill="#fff" opacity=".3"/>
            <rect x="137.23" y="4.93" width="14.27" height="10.45" fill="#fff" opacity=".3"/>
            <rect x="0" y="137.29" width="10.44" height="15.33" fill="#fff" opacity=".3"/>
            <rect x="136.42" y="656.62" width="15.31" height="10.45" fill="#fff" opacity=".3"/>
        </g>
        <g id="dynamic_island">
            <rect x="1206.83" y="306.83" width="193.99" height="58.33" rx="29.17" ry="29.17" transform="translate(1639.8272 -967.8272) rotate(90)"/>
            <path d="M1303.83,417.84c-6.18,0-11.2-5.02-11.2-11.21s5.01-11.21,11.2-11.21,11.2,5.02,11.2,11.21-5.01,11.21-11.2,11.21Z" fill="#1a1a1c"/>
            <circle cx="1303.83" cy="406.62" r="7.92" fill="url(#gradient_02)"/>
        </g>
        <path id="bezel" d="M1354.56,562.58c0,45.79-37.22,83.04-82.96,83.04H104.4c-45.75,0-82.96-37.25-82.96-83.04V109.42c0-45.79,37.22-83.04,82.96-83.04h1167.2c45.74,0,82.96,37.25,82.96,83.04v453.16M1365.56,562.58V109.42c0-51.94-42.07-94.04-93.96-94.04H104.4C52.51,15.38,10.44,57.48,10.44,109.42v453.16c0,51.93,42.07,94.04,93.96,94.04h1167.2c51.89,0,93.96-42.11,93.96-94.04h0Z"/>
        <path id="overlay" d="M932.88,669.91v-2.84h338.72c57.57,0,104.4-46.88,104.4-104.49V109.42c0-57.62-46.83-104.49-115.69-104.49h-179.64v-2.84C1080.67.94,1079.73,0,1078.58,0h-59.43c-1.15,0-2.09.94-2.09,2.09v2.84h-50.62v-2.84C966.44.94,965.51,0,964.36,0h-99.49c-1.15,0-2.09.94-2.09,2.09v2.84h-28.69v-2.84C834.08.94,833.15,0,831.99,0h-101.12c-1.15,0-2.09.94-2.09,2.09v2.84H93.11C46.83,4.93,0,51.8,0,109.42v453.16c0,57.61,46.83,104.49,104.4,104.49h665.71v2.84c0,1.15.93,2.09,2.09,2.09h158.59c1.15,0,2.09-.93,2.09-2.09ZM21.44,562.58V109.42c0-45.79,37.22-83.04,82.96-83.04h1167.2c45.74,0,82.96,37.25,82.96,83.04v453.16c0,45.79-37.22,83.04-82.96,83.04H104.4c-45.75,0-82.96-37.25-82.96-83.04Z" fill="#383E45" style="mix-blend-mode: overlay" opacity="0.75"/>
    </g>
</svg>
