<svg xmlns="http://www.w3.org/2000/svg" xmlns:xlink="http://www.w3.org/1999/xlink" xmlns:xhtml="http://www.w3.org/1999/xhtml" viewBox="0 0 2000 1248" data-forced-size="true" width="2000" height="1248" data-img-aspect-ratio="19.5:9" data-img-perspective="[[31.60, -1.49], [101.83, 63.96], [68.38, 95.40], [-1.49, 28.93]]">
    <defs>
        <linearGradient id="gradient_01" x1="1968.17" y1="865.75" x2="-167.22" y2="765.2" gradientUnits="userSpaceOnUse">
            <stop offset="0" stop-color="#707070"/>
            <stop offset=".02" stop-color="#515151"/>
            <stop offset=".03" stop-color="#515151"/>
            <stop offset=".1" stop-color="#bfbfbf"/>
            <stop offset=".23" stop-color="#707070"/>
            <stop offset=".27" stop-color="#515151"/>
            <stop offset=".35" stop-color="#bfbfbf"/>
            <stop offset=".46" stop-color="#949494"/>
            <stop offset=".48" stop-color="#bfbfbf"/>
            <stop offset=".51" stop-color="#949494"/>
            <stop offset=".56" stop-color="#949494"/>
            <stop offset=".84" stop-color="#949494"/>
            <stop offset=".88" stop-color="#515151"/>
            <stop offset=".97" stop-color="#515151"/>
            <stop offset="1" stop-color="#bfbfbf"/>
        </linearGradient>
        <linearGradient id="gradient_02" x1="1737.35" y1="804.38" x2="1737.35" y2="927.05" gradientTransform="translate(-30.18 248.21) rotate(-1.72)" gradientUnits="userSpaceOnUse">
            <stop offset=".05" stop-color="#333"/>
            <stop offset=".49" stop-color="#000"/>
            <stop offset=".49" stop-color="#c4c4c4"/>
            <stop offset=".67" stop-color="#c4c4c4"/>
            <stop offset=".92" stop-color="#333"/>
            <stop offset=".98" stop-color="#c4c4c4"/>
            <stop offset="1" stop-color="#333"/>
        </linearGradient>
        <linearGradient id="gradient_03" x1="1881" y1="-300.36" x2="1935.8" y2="-300.36" gradientTransform="translate(-1256.4363 1701.5893) rotate(-41.5602) scale(1.0001 -1.0001)" gradientUnits="userSpaceOnUse">
            <stop offset="0" stop-color="#141414"/>
            <stop offset=".35" stop-color="#343434"/>
            <stop offset=".5" stop-color="#424242"/>
            <stop offset=".65" stop-color="#343434"/>
            <stop offset="1" stop-color="#141414"/>
        </linearGradient>
        <linearGradient id="gradient_03-2" x1="1845.13" y1="-163.45" x2="1881.65" y2="-163.45" xlink:href="#gradient_03"/>
        <linearGradient id="gradient_03-3" x1="1934.41" y1="-461.56" x2="1989.2" y2="-461.56" xlink:href="#gradient_03"/>
        <radialGradient id="gradient_04" cx="422.29" cy="164.43" fx="422.29" fy="164.43" r="10.51" gradientUnits="userSpaceOnUse">
            <stop offset="0" stop-color="#658088"/>
            <stop offset=".07" stop-color="#4f6570"/>
            <stop offset=".16" stop-color="#374655"/>
            <stop offset=".27" stop-color="#222d3f"/>
            <stop offset=".39" stop-color="#131a2e"/>
            <stop offset=".52" stop-color="#080c23"/>
            <stop offset=".69" stop-color="#01041c"/>
            <stop offset="1" stop-color="#00021a"/>
        </radialGradient>
        <linearGradient id="gradient_05" x1="1022.79" y1="679.43" x2="2000" y2="679.43" gradientUnits="userSpaceOnUse">
            <stop offset="0" stop-color="#fff" stop-opacity=".5"/>
            <stop offset="1" stop-color="#fff" stop-opacity="0"/>
        </linearGradient>
        <clipPath id="screenPath">
            <polygon points="631.69 8.05 702.61 21.58 1963.42 750.79 1985.07 775.69 1989.4 803.84 1974.25 836.32 1463.93 1136.08 1385.71 1158.03 1298.55 1146.49 63.99 422.18 14.19 385.91 11.48 343.15 33.14 320.41 560.95 18.64 631.69 8.05"/>
        </clipPath>
        <path id="filterPath" d="M.3158.0064.3513.0173.9817.6018.9925.6211.9947.6431.9861.6699.732.9103.6929.928.6493.9183.032.3381.0071.3097.0057.2756.0166.2572.2805.0149.3158.0064Z"/>
    </defs>
    <svg viewBox="0 0 1 1" id="preview" preserveAspectRatio="none">
        <use xlink:href="#filterPath" fill="darkgrey"/>
    </svg>
    <image xlink:href="" clip-path="url(#screenPath)" preserveAspectRatio="none" width="100%" height="100%">
        <animateMotion dur="1ms" repeatCount="indefinite"/>
    </image>
    <g>
        <path id="device_background" d="M2000,798.07v82.39c-.02,21.23-13.79,42.4-41.39,58.54l-486.62,284.45c-56.21,32.86-147.8,32.72-204.07-.31L40.68,502.83c-13.5-7.93-23.64-17.06-30.41-26.8S.08,455.94,0,445.57v-83.17c.21,20.67,13.74,41.28,40.67,57.09l1227.24,720.3c28.23,16.57,65.36,24.86,102.44,24.86s73.62-8.17,101.63-24.55l486.62-284.45c27.19-15.9,40.97-36.68,41.39-57.58Z" fill="url(#gradient_01)"/>
        <path id="edge_reflection" d="M1958.61,869.77l-486.62,284.45c-56.21,32.86-147.8,32.72-204.07-.31L40.68,433.61C10.46,415.87-2.87,392.12.53,368.98c.08.51.16,1.01.25,1.52.02.15.05.29.08.44.08.42.17.85.26,1.28.04.2.08.4.14.6.08.37.16.74.26,1.11.06.24.12.47.19.71.09.38.2.76.31,1.14.18.6.36,1.19.56,1.78.34,1.04.73,2.08,1.15,3.12.15.4.32.8.5,1.19.14.36.3.73.47,1.09.1.21.19.42.3.63.16.37.34.74.52,1.1.18.36.36.71.54,1.06.08.16.17.33.26.49.2.38.4.75.61,1.12.27.49.55.98.85,1.47.33.57.69,1.14,1.05,1.71.83,1.28,1.7,2.56,2.64,3.82.42.57.86,1.14,1.32,1.72.59.75,1.2,1.5,1.85,2.25.39.47.8.94,1.22,1.41.01.01.02.02.03.03.52.59,1.06,1.17,1.62,1.75.37.39.74.79,1.14,1.17.27.29.55.57.84.85.49.49,1,.97,1.51,1.45.61.58,1.24,1.15,1.87,1.71,2.02,1.79,4.18,3.55,6.47,5.27.59.45,1.19.89,1.8,1.32.7.51,1.41,1.01,2.14,1.5.08.06.16.12.24.17.59.4,1.19.8,1.79,1.19.21.15.42.28.63.42.51.33,1.02.65,1.54.97,1.04.66,2.11,1.31,3.2,1.95l1227.24,720.3c6.18,3.63,12.78,6.86,19.71,9.69,1.71.69,3.44,1.37,5.19,2.02,7.37,2.74,15.07,5.05,23,6.93,2.18.52,4.38,1.01,6.59,1.46,15.5,3.17,31.73,4.76,47.95,4.76,10.36,0,20.72-.65,30.87-1.94,2.26-.29,4.51-.61,6.74-.96,2.24-.35,4.46-.73,6.67-1.15,2.02-.38,4.02-.79,6.01-1.22.4-.08.79-.17,1.18-.26,4.15-.92,8.24-1.96,12.26-3.12,2.11-.61,4.19-1.25,6.26-1.92,2.35-.76,4.66-1.56,6.93-2.42,1.74-.63,3.46-1.3,5.16-1.99.99-.4,1.96-.81,2.93-1.23,2.9-1.24,5.74-2.56,8.52-3.95,1.84-.93,3.66-1.89,5.45-2.88.89-.49,1.77-1,2.65-1.51l486.62-284.45c.86-.5,1.71-1.01,2.55-1.53.65-.4,1.29-.8,1.92-1.21.59-.38,1.17-.76,1.75-1.14.16-.1.32-.21.47-.32.64-.42,1.26-.85,1.88-1.27.04-.03.08-.06.12-.09.68-.48,1.35-.96,2.01-1.45.05-.03.09-.06.13-.09.62-.46,1.22-.91,1.82-1.37.64-.49,1.27-.99,1.89-1.49.54-.43,1.08-.87,1.6-1.31.07-.06.15-.12.22-.19.6-.5,1.18-1.01,1.76-1.52.57-.51,1.14-1.02,1.69-1.54s1.1-1.03,1.63-1.56c2.13-2.08,4.09-4.21,5.88-6.38.09-.1.17-.2.25-.3.36-.44.71-.88,1.06-1.33.37-.48.73-.95,1.09-1.43.06-.07.11-.14.15-.21.41-.55.8-1.1,1.19-1.65h0c.38-.56.75-1.12,1.11-1.68.36-.55.72-1.11,1.06-1.68.68-1.12,1.31-2.25,1.91-3.38,2.98-5.68,4.89-11.52,5.74-17.4,0,.02,0,.03.01.05,3.36,23.52-10.23,47.67-40.89,65.59Z" fill="#f5fdff" opacity=".5"/>
        <g id="details">
            <g id="bottom">
                <g>
                    <path d="M1571.88,1124.91c-4.81,1.96-9.32,7.15-9.81,11.27s3.24,5.39,8.14,3.14c4.61-2.25,8.54-7.06,8.93-10.88.3-3.82-2.75-5.49-7.26-3.53Z" fill="#000102"/>
                    <path d="M1570.01,1139.22c-4.81,2.45-8.54,1.08-8.14-3.14l11.19,1.18c-.88.78-1.96,1.47-3.04,1.96Z" fill="#7a7a7a" fill-rule="evenodd"/>
                    <path d="M1576.39,1133.93c-1.57,2.16-3.92,4.02-6.38,5.19l-6.18-4.21,2.36-2.06,10.2,1.08Z" fill="#f4f4f4" fill-rule="evenodd"/>
                    <path d="M1569.82,1127.07c-3.92,1.76-7.65,5.88-8.14,9.31-.29,3.33,2.65,4.41,6.77,2.55,3.83-1.86,7.16-5.88,7.56-8.92.29-3.23-2.36-4.61-6.18-2.94Z" fill="#0a0e0e"/>
                </g>
                <g>
                    <path d="M1596.49,1109.94c-4.71,1.96-9.22,7.06-9.81,11.27-.59,4.12,3.04,5.49,7.85,3.23,4.51-2.16,8.44-6.96,8.93-10.78.59-3.92-2.45-5.59-6.97-3.72Z" fill="#000102"/>
                    <path d="M1600.9,1119.05c-1.57,2.16-3.92,4.02-6.28,5.19l-5.98-4.31,2.36-2.06,9.91,1.18Z" fill="#f4f4f4" fill-rule="evenodd"/>
                    <path d="M1594.62,1112.09c-3.83,1.67-7.65,5.78-8.14,9.21-.39,3.33,2.55,4.51,6.48,2.55,3.73-1.86,7.06-5.78,7.46-8.92.49-3.14-2.06-4.51-5.79-2.84Z" fill="#0a0e0e"/>
                </g>
                <g>
                    <path d="M1620.58,1096.04c-4.61,1.86-9.12,7.06-9.71,11.17-.59,4.12,2.85,5.49,7.65,3.33,4.51-2.16,8.34-6.96,8.93-10.78.49-3.82-2.55-5.59-6.87-3.72Z" fill="#000102"/>
                    <path d="M1618.32,1110.34c-4.71,2.35-8.14.98-7.65-3.33l10.6,1.37c-.78.88-1.86,1.57-2.94,1.96Z" fill="#7a7a7a" fill-rule="evenodd"/>
                    <path d="M1624.6,1105.25c-1.57,2.06-3.92,3.92-6.18,5.1l-5.79-4.31,2.36-2.06,9.62,1.27Z" fill="#f4f4f4" fill-rule="evenodd"/>
                    <path d="M1618.52,1098.29c-3.83,1.67-7.56,5.78-8.05,9.21-.39,3.33,2.36,4.51,6.28,2.65,3.73-1.76,7.06-5.78,7.46-8.82.59-3.33-1.96-4.7-5.69-3.04Z" fill="#0a0e0e"/>
                </g>
                <g>
                    <path d="M1659.74,1071.74c-5.68,2.27-11.36,8.83-12.37,14.12s3.16,7.19,8.96,4.54c5.56-2.65,10.48-8.7,11.36-13.62.88-4.92-2.65-7.19-7.95-5.04Z" fill="#000102"/>
                    <path d="M1656.21,1090.52c-5.81,2.9-9.85,1.01-8.96-4.54l12.62,2.27c-1.14.63-2.27,1.51-3.66,2.27Z" fill="#7a7a7a" fill-rule="evenodd"/>
                    <path d="M1664.04,1084.09c-2.02,2.65-4.92,5.04-7.83,6.43l-6.69-5.8,2.9-2.52,11.61,1.89Z" fill="#f4f4f4" fill-rule="evenodd"/>
                    <path d="M1657.22,1074.51c-4.67,2.02-9.34,7.19-10.23,11.6-.76,4.41,2.52,5.93,7.45,3.66,4.54-2.14,8.84-7.19,9.59-11.22.76-3.91-2.27-5.8-6.82-4.03Z" fill="#3c3d3d"/>
                </g>
                <g>
                    <path d="M1803.5,986.23c-5.18,2.02-10.73,8.32-12.12,13.74-1.39,5.42,2.02,7.57,7.32,5.04,5.05-2.4,9.97-8.32,11.11-13.24,1.39-5.04-1.39-7.57-6.31-5.55Z" fill="#000102"/>
                    <path d="M1798.71,1005.01c-5.3,2.65-8.71.5-7.32-5.04l10.73,2.9c-1.01.63-2.27,1.51-3.41,2.14Z" fill="#7a7a7a" fill-rule="evenodd"/>
                    <path d="M1806.16,998.83c-2.02,2.65-4.8,4.79-7.32,6.05l-5.18-6.3,2.78-2.4,9.72,2.65Z" fill="#f4f4f4" fill-rule="evenodd"/>
                    <path d="M1801.11,988.87c-4.29,1.77-8.84,6.81-9.97,11.22-1.01,4.41,1.64,6.18,6.06,4.03,4.17-2.02,8.33-6.81,9.34-10.84,1.14-4.03-1.26-6.05-5.43-4.41Z" fill="#3c3d3d"/>
                </g>
                <g>
                    <path d="M1839.31,965.53c-3.77,1.62-7.89,6.59-8.9,10.84-1.01,4.26,1.51,5.82,5.36,3.91,3.66-1.91,7.3-6.56,8.23-10.52.93-3.86-1.11-5.84-4.68-4.23Z" fill="#000102"/>
                    <path d="M1835.77,980.28c-3.84,2.11-6.36.45-5.36-3.91l7.84,2.14c-.76.62-1.52,1.24-2.48,1.77Z" fill="#7a7a7a" fill-rule="evenodd"/>
                    <path d="M1841.27,975.36c-1.49,2.02-3.48,3.86-5.41,4.82l-3.82-4.85,2.08-1.95,7.15,1.97Z" fill="#f4f4f4" fill-rule="evenodd"/>
                    <path d="M1837.53,967.66c-3.08,1.49-6.46,5.45-7.31,8.92-.75,3.46,1.17,4.76,4.45,3.16,3.08-1.59,6.07-5.44,6.83-8.61.76-3.17-.97-4.77-3.97-3.47Z" fill="#0a0e0e"/>
                </g>
                <g>
                    <path d="M1859.51,952.47c-3.77,1.62-7.79,6.58-8.9,10.84-1.01,4.26,1.31,5.93,5.16,3.91,3.66-1.91,7.2-6.56,8.13-10.42,1.12-3.87-.72-5.86-4.39-4.34Z" fill="#000102"/>
                    <path d="M1855.97,967.13c-3.84,2.11-6.27.44-5.16-3.91l7.65,2.25c-.86.72-1.72,1.15-2.49,1.67Z" fill="#7a7a7a" fill-rule="evenodd"/>
                    <path d="M1861.28,962.31c-1.49,2.02-3.48,3.77-5.41,4.82l-3.63-4.86,2.08-1.95,6.95,1.98Z" fill="#f4f4f4" fill-rule="evenodd"/>
                    <path d="M1857.82,954.5c-3.09,1.4-6.47,5.35-7.31,8.92-.85,3.47,1.17,4.86,4.35,3.16,2.98-1.59,6.07-5.44,6.83-8.61.76-3.17-.88-4.77-3.87-3.48Z" fill="#0a0e0e"/>
                </g>
                <g>
                    <path d="M1878.88,940.63c-3.67,1.62-7.8,6.49-8.81,10.74-1.11,4.26,1.22,5.93,5.07,4.02,3.56-1.81,7.21-6.46,8.13-10.42,1.12-3.87-.72-5.86-4.39-4.34Z" fill="#000102"/>
                    <path d="M1875.24,955.38c-3.75,2.01-6.07.34-5.07-4.02l7.45,2.26c-.76.72-1.62,1.34-2.39,1.76Z" fill="#7a7a7a" fill-rule="evenodd"/>
                    <path d="M1880.55,950.66c-1.49,2.02-3.48,3.77-5.31,4.82l-3.53-4.96,1.98-1.94,6.86,2.08Z" fill="#f4f4f4" fill-rule="evenodd"/>
                    <path d="M1877.2,942.75c-2.99,1.39-6.37,5.35-7.31,8.82-.85,3.47,1.08,4.86,4.25,3.26,2.98-1.59,5.98-5.34,6.83-8.51.76-3.17-.78-4.77-3.77-3.58Z" fill="#0a0e0e"/>
                </g>
                <g>
                    <path d="M1897.85,928.7c-3.67,1.52-7.7,6.48-8.81,10.74-1.11,4.26,1.12,5.94,4.87,4.02,3.56-1.81,7.11-6.46,8.14-10.32,1.12-3.97-.73-5.95-4.2-4.44Z" fill="#000102"/>
                    <path d="M1894.01,943.46c-3.75,2.01-5.98.33-4.87-4.02l7.36,2.36c-.86.62-1.62,1.24-2.49,1.67Z" fill="#7a7a7a" fill-rule="evenodd"/>
                    <path d="M1899.33,938.74c-1.49,2.02-3.39,3.76-5.31,4.72l-3.44-4.96,1.99-1.84,6.76,2.09Z" fill="#f4f4f4" fill-rule="evenodd"/>
                    <path d="M1896.07,930.83c-2.99,1.39-6.37,5.35-7.31,8.82-.85,3.47.98,4.86,4.06,3.27,2.98-1.59,5.98-5.34,6.83-8.51.96-3.18-.68-4.78-3.58-3.59Z" fill="#0a0e0e"/>
                </g>
                <g>
                    <path d="M1918.13,915.29c-3.57,1.51-7.6,6.38-8.81,10.65-1.11,4.26,1.02,5.94,4.78,4.13,3.56-1.81,7.11-6.46,8.14-10.32,1.12-3.87-.53-5.96-4.1-4.45Z" fill="#000102"/>
                    <path d="M1914.3,930.05c-3.65,2.01-5.88.23-4.78-4.13l7.17,2.46c-.86.62-1.62,1.24-2.39,1.66Z" fill="#7a7a7a" fill-rule="evenodd"/>
                    <path d="M1919.51,925.33c-1.49,2.02-3.39,3.76-5.21,4.72l-3.24-5.07,1.99-1.84,6.47,2.2Z" fill="#f4f4f4" fill-rule="evenodd"/>
                    <path d="M1916.45,917.41c-2.99,1.39-6.27,5.25-7.22,8.72-.85,3.47.88,4.87,3.96,3.28,2.89-1.49,5.88-5.33,6.73-8.5.96-3.08-.58-4.68-3.48-3.49Z" fill="#0a0e0e"/>
                </g>
                <path d="M1768.25,1027.54l-72.32,45.02c-4.36,3.71-8.52-1.46-8.35-8.48h0c.17-7.02,2.01-17.35,6.37-21.06l72.32-45.02c4.42-1.69,9.71,4.26,9.54,11.28h0c-.17,7.02-3.13,16.57-7.56,18.26Z" fill="url(#gradient_02)"/>
                <path d="M1764.9,1026.59l-67.06,41.97c-4.09,3.54-7.29.26-7.13-6.32h0c.16-6.58,3.63-13.96,7.71-17.5l67.06-41.97c4.15-1.52,7.35,1.76,7.19,8.34h0c-.16,6.58-3.63,13.96-7.78,15.48Z" fill="#131313"/>
                <polygon points="1516.16 1197.62 1534.19 1187.09 1534.19 1117.86 1516.16 1128.4 1516.16 1197.62" opacity=".3"/>
            </g>
            <g id="side">
                <polygon points="81.77 526.95 99.8 537.53 99.8 468.31 81.77 457.73 81.77 526.95" fill="#fff" opacity=".3"/>
                <polygon points="1206.95 1187.35 1224.97 1197.93 1224.97 1128.71 1206.95 1118.13 1206.95 1187.35" opacity=".2"/>
                <g id="button_02">
                    <path d="M418.19,700.72l-94.37-52.31h0c-1.68-1.01-3.23-2.73-4.82-4.84-1.49-2.12-2.82-4.54-3.76-7.01s-1.67-4.86-1.88-7-.48-1.82.22-2.68c1.35-1.32,2.92-3.34,3.94-3.94.64-.46,1.31-.72,1.77-1.06,1.48-.94,2.71-1.45,3.86-1.86,1.15-.31,2.22-.52,3.33-.23,1.21.27,2.45.84,4.02,1.76l86.41,51.63c6.73,4.15,10.61,11.45,10.16,18.78h0c-.07,1.29-.27,2.19-.69,2.93-.31.82-.83,1.56-1.65,2.23-1.34,1.41-2.43,2.31-6.54,3.61" fill="url(#gradient_03)"/>
                    <path d="M323.13,648.38c-6.62-4.07-11.43-9.79-11.38-16.19,0-2.95,1.91-5.51,4.66-6.67,2.73-1.26,6.29-1.22,9.44.73l84.94,50.69c6.53,4.17,10.74,10.74,10.81,17.34,0,2.95-1.75,5.2-4.32,6.14s-5.95.69-9-1.27l-85.14-50.77Z" fill="#898989" stroke="#1c1c1c" stroke-width=".69"/>
                </g>
                <g id="button_01">
                    <path d="M269.1,613.88l-44.94-24.06h0c-1.68-1.01-3.23-2.73-4.82-4.84-1.49-2.12-2.82-4.54-3.76-7.01-.94-2.47-1.67-4.86-1.88-7s-.48-1.82.22-2.68c1.35-1.32,2.92-3.34,3.94-3.94.64-.46,1.31-.72,1.77-1.06,1.48-.94,2.71-1.45,3.86-1.86,1.15-.31,2.22-.52,3.33-.23,1.21.27,2.45.84,4.02,1.76l36.98,23.38c6.73,4.15,10.61,11.45,10.16,18.78h0c-.07,1.29-.27,2.19-.69,2.93-.31.82-.83,1.56-1.65,2.23-1.34,1.41-2.43,2.31-6.54,3.61" fill="url(#gradient_03-2)"/>
                    <path d="M223.47,589.79c-6.62-4.07-11.43-9.79-11.38-16.19,0-2.95,1.91-5.51,4.66-6.67,2.73-1.26,6.29-1.22,9.44.73l35.51,22.45c6.53,4.17,10.74,10.74,10.81,17.34,0,2.95-1.75,5.2-4.32,6.14s-5.95.69-9-1.27l-35.71-22.52Z" fill="#898989" stroke="#1c1c1c" stroke-width=".69"/>
                </g>
                <g id="button_03">
                    <path d="M565.1,785.91l-94.37-52.31h0c-1.68-1.01-3.23-2.73-4.82-4.84-1.49-2.12-2.82-4.54-3.76-7.01s-1.67-4.86-1.88-7-.48-1.82.22-2.68c1.35-1.32,2.92-3.34,3.94-3.94.64-.46,1.31-.72,1.77-1.06,1.48-.94,2.71-1.45,3.86-1.86,1.15-.31,2.22-.52,3.33-.23,1.21.27,2.45.84,4.02,1.76l86.41,51.63c6.73,4.15,10.61,11.45,10.16,18.78h0c-.07,1.29-.27,2.19-.69,2.93-.31.82-.83,1.56-1.65,2.23-1.34,1.41-2.43,2.31-6.54,3.61" fill="url(#gradient_03-3)"/>
                    <path d="M470.04,733.57c-6.62-4.07-11.43-9.79-11.38-16.19,0-2.95,1.91-5.51,4.66-6.67,2.73-1.26,6.29-1.22,9.44.73l84.94,50.69c6.53,4.17,10.74,10.74,10.81,17.34,0,2.95-1.75,5.2-4.32,6.14s-5.95.69-9-1.27l-85.14-50.77Z" fill="#898989" stroke="#1c1c1c" stroke-width=".69"/>
                </g>
            </g>
        </g>
        <path id="overlay" d="M2000,798.07v82.39c-.02,21.23-13.79,42.4-41.39,58.54l-486.62,284.45c-56.21,32.86-147.8,32.72-204.07-.31L40.68,502.83c-13.5-7.93-23.64-17.06-30.41-26.8S.08,455.94,0,445.57v-83.17c.21,20.67,13.74,41.28,40.67,57.09l1227.24,720.3c28.23,16.57,65.36,24.86,102.44,24.86s73.62-8.17,101.63-24.55l486.62-284.45c27.19-15.9,40.97-36.68,41.39-57.58Z" fill="#383E45" style="mix-blend-mode: overlay" opacity="0.75"/>
        <path id="bezel" d="M630.25,18.64c34.5,0,67.88,7.89,91.57,21.63l1226.54,712.88c21.26,12.34,33.46,28.33,33.48,43.87.02,15.47-11.48,30.72-32.4,42.95l-486.62,284.45c-24.35,14.23-57.19,22.07-92.47,22.07s-69.03-8.15-93.25-22.36L49.87,403.82c-20.55-12.06-31.81-27.02-31.71-42.12.1-15.33,12.38-31.09,33.73-43.25L539.05,39.95c24.12-13.74,56.51-21.31,91.19-21.31M630.25.48c-36.2,0-72.44,7.89-100.18,23.69L42.87,302.7c-56.27,32.05-57.3,84.45-2.2,116.79l1227.24,720.3c28.23,16.57,65.36,24.86,102.44,24.86s73.62-8.18,101.63-24.55l486.62-284.45c55.65-32.53,55.11-85.56-1.13-118.2L730.94,24.58C703.28,8.52,666.78.48,630.25.48h0Z"/>
        <g id="dynamic_island">
            <path d="M460.3,176.07l-151.84,89.9c-14.2,8.41-40.13,6.3-56.87-4.32h0c-16.06-10.19-17.75-24.55-4.4-32.25l143.08-82.5c12.48-7.2,37.82-7.1,57.04.45h0c20,7.86,26.21,20.89,13,28.71Z"/>
            <ellipse cx="422.29" cy="164.43" rx="17.48" ry="10.15" fill="#1a1a1c"/>
            <ellipse cx="422.29" cy="164.43" rx="12.86" ry="7.46" fill="url(#gradient_04)"/>
        </g>
        <path id="screen_reflection" d="M1957.47,737.45L1022.79,194.2v801.71l245.13,143.87c28.23,16.57,65.36,24.86,102.44,24.86s73.62-8.18,101.63-24.55l486.62-284.45c55.66-32.53,55.11-85.56-1.13-118.2Z" fill="url(#gradient_05)" opacity=".4"/>
    </g>
</svg>
