<svg xmlns="http://www.w3.org/2000/svg" xmlns:xlink="http://www.w3.org/1999/xlink" xmlns:xhtml="http://www.w3.org/1999/xhtml" viewBox="0 0 2000 1248" data-forced-size="true" width="2000" height="1248" data-img-aspect-ratio="19.5:9" data-img-perspective="[[-1.95, 63.87], [68.49, -1.70], [101.78, 28.93], [31.45, 95.29]]">
    <defs>
        <linearGradient id="gradient_01" x1="37.65" y1="991.45" x2="2235.54" y2="673.14" gradientUnits="userSpaceOnUse">
            <stop offset="0" stop-color="#707070"/>
            <stop offset=".02" stop-color="#515151"/>
            <stop offset=".1" stop-color="#bfbfbf"/>
            <stop offset=".23" stop-color="#707070"/>
            <stop offset=".27" stop-color="#515151"/>
            <stop offset=".35" stop-color="#bfbfbf"/>
            <stop offset=".46" stop-color="#949494"/>
            <stop offset=".48" stop-color="#bfbfbf"/>
            <stop offset=".51" stop-color="#949494"/>
            <stop offset=".56" stop-color="#707070"/>
            <stop offset=".84" stop-color="#949494"/>
            <stop offset=".88" stop-color="#515151"/>
            <stop offset=".97" stop-color="#515151"/>
            <stop offset="1" stop-color="#bfbfbf"/>
        </linearGradient>
        <linearGradient id="gradient_02" x1="1696.88" y1="803.82" x2="1696.88" y2="926.49" gradientTransform="translate(1989.713 247.5593) rotate(-178.2757) scale(1 -1)" gradientUnits="userSpaceOnUse">
            <stop offset=".05" stop-color="#333"/>
            <stop offset=".49" stop-color="#000"/>
            <stop offset=".49" stop-color="#c4c4c4"/>
            <stop offset=".67" stop-color="#c4c4c4"/>
            <stop offset=".92" stop-color="#333"/>
            <stop offset=".98" stop-color="#c4c4c4"/>
            <stop offset="1" stop-color="#333"/>
        </linearGradient>
        <linearGradient id="gradient_03" x1="2798.76" y1="-12146.5" x2="2880.49" y2="-12146.5" gradientTransform="translate(11937.5161 -6345.6305) rotate(-137.3567)" gradientUnits="userSpaceOnUse">
            <stop offset="0" stop-color="#141414"/>
            <stop offset=".35" stop-color="#343434"/>
            <stop offset=".5" stop-color="#424242"/>
            <stop offset=".65" stop-color="#343434"/>
            <stop offset="1" stop-color="#141414"/>
        </linearGradient>
        <radialGradient id="gradient_04" cx="286.09" cy="241.43" fx="286.09" fy="241.43" r="10.51" gradientTransform="translate(2002.7985) scale(-1 1)" gradientUnits="userSpaceOnUse">
            <stop offset="0" stop-color="#658088"/>
            <stop offset=".07" stop-color="#4f6570"/>
            <stop offset=".16" stop-color="#374655"/>
            <stop offset=".27" stop-color="#222d3f"/>
            <stop offset=".39" stop-color="#131a2e"/>
            <stop offset=".52" stop-color="#080c23"/>
            <stop offset=".69" stop-color="#01041c"/>
            <stop offset="1" stop-color="#00021a"/>
        </radialGradient>
        <linearGradient id="gradient_05" x1="22.11" y1="557.57" x2="2000" y2="557.57" gradientUnits="userSpaceOnUse">
            <stop offset="0" stop-color="#fff" stop-opacity=".5"/>
            <stop offset="1" stop-color="#fff" stop-opacity="0"/>
        </linearGradient>
        <clipPath id="screenPath">
            <polygon points="1371.11 8.05 1300.19 21.58 39.38 750.79 17.73 775.69 13.4 803.84 28.55 836.32 538.87 1136.08 617.09 1158.03 704.25 1146.49 1938.81 422.18 1988.61 385.91 1991.32 343.15 1969.66 320.41 1441.84 18.64 1371.11 8.05"/>
        </clipPath>
        <path id="filterPath" d="M.6856.0064.6501.0173.0197.6018.0089.6211.0067.6431.0143.6699.2694.9103.3085.928.3521.9183.9694.3381.9943.3097.9957.2756.9848.2572.7209.0149.6856.0064Z"/>
    </defs>
    <svg viewBox="0 0 1 1" id="preview" preserveAspectRatio="none">
        <use xlink:href="#filterPath" fill="darkgrey"/>
    </svg>
    <image xlink:href="" clip-path="url(#screenPath)" preserveAspectRatio="none" width="100%" height="100%">
        <animateMotion dur="1ms" repeatCount="indefinite"/>
    </image>
    <g>
        <path d="M2000,445.57h-.01c-.13,20.73-13.65,41.41-40.66,57.27l-1227.24,720.3c-56.27,33.03-147.86,33.17-204.07.31L41.4,939C13.8,922.86.03,901.69,0,880.46H0v-83.08c.13,21.14,13.91,42.21,41.4,58.27l486.62,284.45c28.01,16.38,64.8,24.56,101.63,24.56s74.21-8.3,102.44-24.87L1959.33,419.49c26.94-15.81,40.46-36.41,40.66-57.09v83.17Z" fill="url(#gradient_01)"/>
        <path id="edge_reflection" d="M41.4,855.65l486.62,284.45c56.21,32.86,147.8,32.72,204.07-.31L1959.32,419.48c24.08-14.13,37.44-32.1,40.16-50.52,3.4,23.14-9.94,46.9-40.16,64.64l-1227.24,720.3c-56.27,33.03-147.86,33.17-204.07.31L41.4,869.77c-30.68-17.93-44.27-42.1-40.88-65.64,2.72,18.82,16.33,37.16,40.88,51.51Z" fill="#f5fdff" opacity=".5"/>
        <g id="details">
            <g id="bottom">
                <g>
                    <path d="M428.12,1124.91c4.81,1.96,9.32,7.15,9.81,11.27.49,4.12-3.24,5.39-8.14,3.14-4.61-2.25-8.54-7.06-8.93-10.88-.3-3.82,2.75-5.49,7.26-3.53Z" fill="#000102"/>
                    <path d="M429.99,1139.22c4.81,2.45,8.54,1.08,8.14-3.14l-11.19,1.18c.88.78,1.96,1.47,3.04,1.96Z" fill="#7a7a7a" fill-rule="evenodd"/>
                    <path d="M423.61,1133.93c1.57,2.16,3.92,4.02,6.38,5.19l6.18-4.21-2.36-2.06-10.2,1.08Z" fill="#f4f4f4" fill-rule="evenodd"/>
                    <path d="M430.18,1127.07c3.92,1.76,7.65,5.88,8.14,9.31.29,3.33-2.65,4.41-6.77,2.55-3.83-1.86-7.16-5.88-7.56-8.92-.29-3.23,2.36-4.61,6.18-2.94Z" fill="#0a0e0e"/>
                </g>
                <g>
                    <path d="M451.9,1139.15c4.81,1.96,9.32,7.15,9.81,11.27.49,4.12-3.24,5.39-8.14,3.14-4.61-2.25-8.54-7.06-8.93-10.88-.3-3.82,2.75-5.49,7.26-3.53Z" fill="#000102"/>
                    <path d="M453.76,1153.45c4.81,2.45,8.54,1.08,8.14-3.14l-11.19,1.18c.88.78,1.96,1.47,3.04,1.96Z" fill="#7a7a7a" fill-rule="evenodd"/>
                    <path d="M447.39,1148.16c1.57,2.16,3.92,4.02,6.38,5.19l6.18-4.21-2.36-2.06-10.2,1.08Z" fill="#f4f4f4" fill-rule="evenodd"/>
                    <path d="M453.96,1141.3c3.92,1.76,7.65,5.88,8.14,9.31.29,3.33-2.65,4.41-6.77,2.55-3.83-1.86-7.16-5.88-7.56-8.92-.29-3.23,2.36-4.61,6.18-2.94Z" fill="#0a0e0e"/>
                </g>
                <g>
                    <path d="M476.77,1153.32c4.81,1.96,9.32,7.15,9.81,11.27.49,4.12-3.24,5.39-8.14,3.14-4.61-2.25-8.54-7.06-8.93-10.88-.3-3.82,2.75-5.49,7.26-3.53Z" fill="#000102"/>
                    <path d="M478.64,1167.62c4.81,2.45,8.54,1.08,8.14-3.14l-11.19,1.18c.88.78,1.96,1.47,3.04,1.96Z" fill="#7a7a7a" fill-rule="evenodd"/>
                    <path d="M472.26,1162.33c1.57,2.16,3.92,4.02,6.38,5.19l6.18-4.21-2.36-2.06-10.2,1.08Z" fill="#f4f4f4" fill-rule="evenodd"/>
                    <path d="M478.83,1155.47c3.92,1.76,7.65,5.88,8.14,9.31.29,3.33-2.65,4.41-6.77,2.55-3.83-1.86-7.16-5.88-7.56-8.92-.29-3.23,2.36-4.61,6.18-2.94Z" fill="#0a0e0e"/>
                </g>
                <g>
                    <path d="M403.51,1109.94c4.71,1.96,9.22,7.06,9.81,11.27.59,4.12-3.04,5.49-7.85,3.23-4.51-2.16-8.44-6.96-8.93-10.78-.59-3.92,2.45-5.59,6.97-3.72Z" fill="#000102"/>
                    <path d="M399.1,1119.05c1.57,2.16,3.92,4.02,6.28,5.19l5.98-4.31-2.36-2.06-9.91,1.18Z" fill="#f4f4f4" fill-rule="evenodd"/>
                    <path d="M405.38,1112.09c3.83,1.67,7.65,5.78,8.14,9.21.39,3.33-2.55,4.51-6.48,2.55-3.73-1.86-7.06-5.78-7.46-8.92-.49-3.14,2.06-4.51,5.79-2.84Z" fill="#0a0e0e"/>
                </g>
                <g>
                    <path d="M379.42,1096.04c4.61,1.86,9.12,7.06,9.71,11.17.59,4.12-2.85,5.49-7.65,3.33-4.51-2.16-8.34-6.96-8.93-10.78-.49-3.82,2.55-5.59,6.87-3.72Z" fill="#000102"/>
                    <path d="M381.68,1110.34c4.71,2.35,8.14.98,7.65-3.33l-10.6,1.37c.78.88,1.86,1.57,2.94,1.96Z" fill="#7a7a7a" fill-rule="evenodd"/>
                    <path d="M375.4,1105.25c1.57,2.06,3.92,3.92,6.18,5.1l5.79-4.31-2.36-2.06-9.62,1.27Z" fill="#f4f4f4" fill-rule="evenodd"/>
                    <path d="M381.48,1098.29c3.83,1.67,7.56,5.78,8.05,9.21.39,3.33-2.36,4.51-6.28,2.65-3.73-1.76-7.06-5.78-7.46-8.82-.59-3.33,1.96-4.7,5.69-3.04Z" fill="#0a0e0e"/>
                </g>
                <g>
                    <path d="M340.26,1071.74c5.68,2.27,11.36,8.83,12.37,14.12,1.01,5.3-3.16,7.19-8.96,4.54-5.56-2.65-10.48-8.7-11.36-13.62-.88-4.92,2.65-7.19,7.95-5.04Z" fill="#000102"/>
                    <path d="M343.79,1090.52c5.81,2.9,9.85,1.01,8.96-4.54l-12.62,2.27c1.14.63,2.27,1.51,3.66,2.27Z" fill="#7a7a7a" fill-rule="evenodd"/>
                    <path d="M335.96,1084.09c2.02,2.65,4.92,5.04,7.83,6.43l6.69-5.8-2.9-2.52-11.61,1.89Z" fill="#f4f4f4" fill-rule="evenodd"/>
                    <path d="M342.78,1074.51c4.67,2.02,9.34,7.19,10.23,11.6.76,4.41-2.52,5.93-7.45,3.66-4.54-2.14-8.84-7.19-9.59-11.22-.76-3.91,2.27-5.8,6.82-4.03Z" fill="#3c3d3d"/>
                </g>
                <g>
                    <path d="M196.5,986.23c5.18,2.02,10.73,8.32,12.12,13.74,1.39,5.42-2.02,7.57-7.32,5.04-5.05-2.4-9.97-8.32-11.11-13.24-1.39-5.04,1.39-7.57,6.31-5.55Z" fill="#000102"/>
                    <path d="M201.29,1005.01c5.3,2.65,8.71.5,7.32-5.04l-10.73,2.9c1.01.63,2.27,1.51,3.41,2.14Z" fill="#7a7a7a" fill-rule="evenodd"/>
                    <path d="M193.84,998.83c2.02,2.65,4.8,4.79,7.32,6.05l5.18-6.3-2.78-2.4-9.72,2.65Z" fill="#f4f4f4" fill-rule="evenodd"/>
                    <path d="M198.89,988.87c4.29,1.77,8.84,6.81,9.97,11.22,1.01,4.41-1.64,6.18-6.06,4.03-4.17-2.02-8.33-6.81-9.34-10.84-1.14-4.03,1.26-6.05,5.43-4.41Z" fill="#3c3d3d"/>
                </g>
                <g>
                    <path d="M160.69,965.53c3.77,1.62,7.89,6.59,8.9,10.84,1.01,4.26-1.51,5.82-5.36,3.91-3.66-1.91-7.3-6.56-8.23-10.52-.93-3.86,1.11-5.84,4.68-4.23Z" fill="#000102"/>
                    <path d="M164.23,980.28c3.84,2.11,6.36.45,5.36-3.91l-7.84,2.14c.76.62,1.52,1.24,2.48,1.77Z" fill="#7a7a7a" fill-rule="evenodd"/>
                    <path d="M158.73,975.36c1.49,2.02,3.48,3.86,5.41,4.82l3.82-4.85-2.08-1.95-7.15,1.97Z" fill="#f4f4f4" fill-rule="evenodd"/>
                    <path d="M162.47,967.66c3.08,1.49,6.46,5.45,7.31,8.92.75,3.46-1.17,4.76-4.45,3.16-3.08-1.59-6.07-5.44-6.83-8.61-.76-3.17.97-4.77,3.97-3.47Z" fill="#0a0e0e"/>
                </g>
                <g>
                    <path d="M140.49,952.47c3.77,1.62,7.79,6.58,8.9,10.84,1.01,4.26-1.31,5.93-5.16,3.91-3.66-1.91-7.2-6.56-8.13-10.42-1.12-3.87.72-5.86,4.39-4.34Z" fill="#000102"/>
                    <path d="M144.03,967.13c3.84,2.11,6.27.44,5.16-3.91l-7.65,2.25c.86.72,1.72,1.15,2.49,1.67Z" fill="#7a7a7a" fill-rule="evenodd"/>
                    <path d="M138.72,962.31c1.49,2.02,3.48,3.77,5.41,4.82l3.63-4.86-2.08-1.95-6.95,1.98Z" fill="#f4f4f4" fill-rule="evenodd"/>
                    <path d="M142.18,954.5c3.09,1.4,6.47,5.35,7.31,8.92.85,3.47-1.17,4.86-4.35,3.16-2.98-1.59-6.07-5.44-6.83-8.61-.76-3.17.88-4.77,3.87-3.48Z" fill="#0a0e0e"/>
                </g>
                <g>
                    <path d="M121.12,940.63c3.67,1.62,7.8,6.49,8.81,10.74,1.11,4.26-1.22,5.93-5.07,4.02-3.56-1.81-7.21-6.46-8.13-10.42-1.12-3.87.72-5.86,4.39-4.34Z" fill="#000102"/>
                    <path d="M124.76,955.38c3.75,2.01,6.07.34,5.07-4.02l-7.45,2.26c.76.72,1.62,1.34,2.39,1.76Z" fill="#7a7a7a" fill-rule="evenodd"/>
                    <path d="M119.45,950.66c1.49,2.02,3.48,3.77,5.31,4.82l3.53-4.96-1.98-1.94-6.86,2.08Z" fill="#f4f4f4" fill-rule="evenodd"/>
                    <path d="M122.8,942.75c2.99,1.39,6.37,5.35,7.31,8.82.85,3.47-1.08,4.86-4.25,3.26-2.98-1.59-5.98-5.34-6.83-8.51-.76-3.17.78-4.77,3.77-3.58Z" fill="#0a0e0e"/>
                </g>
                <path d="M231.75,1027.54l72.32,45.02c4.36,3.71,8.52-1.46,8.35-8.48h0c-.17-7.02-2.01-17.35-6.37-21.06l-72.32-45.02c-4.42-1.69-9.71,4.26-9.54,11.28h0c.17,7.02,3.13,16.57,7.56,18.26Z" fill="url(#gradient_02)"/>
                <path d="M235.1,1026.59l67.06,41.97c4.09,3.54,7.29.26,7.13-6.32h0c-.16-6.58-3.63-13.96-7.71-17.5l-67.06-41.97c-4.15-1.52-7.35,1.76-7.19,8.34h0c.16,6.58,3.63,13.96,7.78,15.48Z" fill="#131313"/>
                <polygon points="62.44 951.29 80.46 961.83 80.46 892.61 62.44 882.07 62.44 951.29" fill="#fff" opacity=".3"/>
            </g>
            <g id="side">
                <polygon points="1918.23 526.95 1900.2 537.53 1900.2 468.31 1918.23 457.73 1918.23 526.95" fill="#fff" opacity=".3"/>
                <polygon points="793.05 1187.35 775.03 1197.93 775.03 1128.71 793.05 1118.13 793.05 1187.35" opacity=".2"/>
                <g id="button_02">
                    <path d="M1249.83,898.65c8.29-4.89,14.36-11.83,14.46-19.82.11-3.69-2.26-6.86-5.66-8.35-3.33-1.58-7.71-1.66-11.64.65l-178.34,105.53c-8.2,4.97-13.53,13.09-13.72,21.16-.11,3.69,2.07,6.52,5.21,7.77,3.14,1.24,7.33.99,11.18-1.4l178.51-105.54Z" fill="#898989" stroke="#1c1c1c" stroke-width=".71"/>
                    <path d="M1264.29,878.83c.11-3.69-2.26-6.86-5.66-8.35-.54-.25-1.11-.45-1.69-.63,2.2,4.85,4.32,13.08-2.52,19.15-10.29,9.13-190.02,112.66-190.02,112.66,0,0-4.58.65-8.95-.75.81,2.16,2.5,3.81,4.69,4.67,3.14,1.24,7.33.99,11.18-1.4l178.51-105.54c8.29-4.89,14.36-11.83,14.46-19.82Z" isolation="isolate" opacity=".7"/>
                </g>
                <g id="button_01">
                    <path d="M1530.21,730.65l178.7-101.82h0c1.73-.99,3.35-2.76,4.97-4.8,1.54-2.12,3-4.58,3.95-7.1,1.03-2.45,1.85-4.96,2.04-7.09.27-2.06.56-1.79-.18-2.75-1.33-1.36-2.9-3.49-3.92-4.16-.66-.47-1.31-.8-1.82-1.13-1.45-.93-2.75-1.59-3.9-1.96-1.15-.38-2.22-.55-3.41-.28-1.19.26-2.51.81-4.18,1.73l-170.58,101.28c-6.91,4.11-10.99,11.49-10.68,18.98h0c.05,1.27.23,2.26.62,3.02.32.84.84,1.59,1.65,2.34,1.47,1.35,2.57,2.37,6.74,3.76" fill="url(#gradient_03)"/>
                    <path d="M1709.69,628.72c6.84-4.03,11.84-9.76,11.92-16.34.09-3.05-1.86-5.66-4.67-6.88-2.74-1.3-6.35-1.37-9.6.54l-169,100.29c-6.77,4.1-11.16,10.79-11.31,17.45-.09,3.05,1.71,5.38,4.3,6.4,2.59,1.03,6.05.81,9.22-1.16l169.14-100.3Z" fill="#898989" stroke="#1c1c1c" stroke-width=".71"/>
                </g>
            </g>
        </g>
        <path d="M2000,403.32v42.25h-.01c-.13,20.73-13.65,41.41-40.66,57.27l-1227.24,720.3c-56.27,33.03-147.86,33.17-204.07.31L41.4,939C13.8,922.86.03,901.69,0,880.46H0v-83.08c.13,21.14,13.91,42.21,41.4,58.27l486.62,284.45c28.01,16.38,64.8,24.56,101.63,24.56s74.21-8.3,102.44-24.87L1959.33,419.49c26.94-15.81,40.46-36.41,40.66-57.09.01,3.73.01,22.21.01,40.92Z" fill="#383E45" style="mix-blend-mode: overlay" opacity="0.75"/>
        <path id="bezel" d="M1369.75,18.64c34.68,0,67.07,7.57,91.19,21.31l487.17,278.51c21.34,12.16,33.63,27.91,33.73,43.25.1,15.1-11.16,30.06-31.71,42.12l-1227.24,720.3c-24.22,14.21-58.2,22.36-93.25,22.36s-68.12-7.84-92.47-22.07L50.56,839.97c-20.92-12.23-32.43-27.48-32.4-42.95.02-15.54,12.23-31.53,33.48-43.87L1278.19,40.28c23.68-13.75,57.06-21.63,91.57-21.63M1369.75.48c-36.53,0-73.03,8.04-100.69,24.09L42.53,737.45c-56.24,32.64-56.79,85.66-1.13,118.2l486.62,284.45c28.01,16.37,64.8,24.55,101.63,24.55,37.08,0,74.21-8.29,102.44-24.86L1959.32,419.48c55.1-32.34,54.08-84.73-2.2-116.79L1469.93,24.17c-27.74-15.8-63.97-23.69-100.18-23.69h0Z"/>
        <g id="dynamic_island">
            <path d="M1539.7,176.07l151.84,89.9c14.2,8.41,40.13,6.3,56.87-4.32h0c16.06-10.19,17.75-24.55,4.4-32.25l-143.08-82.5c-12.48-7.2-37.82-7.1-57.04.45h0c-20,7.86-26.21,20.89-13,28.71Z"/>
            <ellipse cx="1716.71" cy="241.43" rx="17.48" ry="10.15" fill="#1a1a1c"/>
            <ellipse cx="1716.71" cy="241.43" rx="12.86" ry="7.46" fill="url(#gradient_04)"/>
        </g>
        <path id="screen_reflection" d="M1957.13,302.7L1469.93,24.17c-27.74-15.8-63.97-23.69-100.18-23.69s-73.03,8.04-100.69,24.09L42.53,737.45c-7.91,4.59-14.72,9.58-20.42,14.87,5.7-5.28,12.51-10.28,20.42-14.87L977.21,194.2v801.71l-202.32,118.75L1959.32,419.49c55.1-32.34,54.08-84.73-2.2-116.79Z" fill="url(#gradient_05)" opacity=".4"/>
    </g>
</svg>
