<svg xmlns="http://www.w3.org/2000/svg" xmlns:xlink="http://www.w3.org/1999/xlink" viewBox="0 0 1158 600" width="1158" height="600" data-forced-size="true">
    <style>
        image {
            width: calc(100% - 30px);
            height: calc(100% - 14px);
        }
    </style>
    <defs>
        <radialGradient id="gradient_01" cx="-1298.46" cy="-952.91" fx="-1298.46" fy="-952.91" r="1" gradientTransform="translate(5343.5454 6514.312) rotate(90) scale(5 -5)" gradientUnits="userSpaceOnUse">
            <stop offset="0" stop-color="#9797ab"/>
            <stop offset=".39" stop-color="#2c2c46"/>
            <stop offset="1" stop-color="#3f3f46"/>
        </radialGradient>
        <path id="filterPath" d="M0.989301,1.000000L0.011252,1.000000L0.011252,0.021917L0.487806,0.021917L0.989301,0.021917L0.989301,1.000000Z"/>
    </defs>
    <svg viewBox="0 0 1 1" id="preview" preserveAspectRatio="none">
        <use xlink:href="#filterPath" fill="darkgrey"/>
    </svg>
    <image xlink:href="" preserveAspectRatio="xMidYMin slice" x="15" y="14">
        <animateMotion dur="1ms" repeatCount="indefinite"/>
    </image>
    <g>
        <g id="device_background">
            <path d="M1128,0H30C13.99,0,1,12.99,1,29v571h16.16L14.94,15.08l1128.52.51-2.33,584.41h15.87V29C1157,12.99,1144.02,0,1128,0Z" fill="#6d6e70"/>
            <path d="M1128,2H30C15.09,2,3,14.09,3,29v571h14.16L15.06,14.37l1127.1.36-2.16,585.27h15V29c0-14.91-12.09-27-27-27Z" fill="#1f1f1f"/>
            <path d="M1128,0H30C13.99,0,1,12.99,1,29v571h2V29C3,14.09,15.09,2,30,2h1098c14.91,0,27,12.09,27,27v571h2V29C1157,12.99,1144.02,0,1128,0Z" fill="#F6F6F6"/>
        </g>
        <g id="notch">
            <path d="M508,17h9c1.66,0,3,1.34,3,3v11c0,3.31,2.69,6,6,6h107c2.76,0,5-2.24,5-5v-12c0-1.66,1.34-3,3-3h9l.43-2.43-142.47-.05.03,2.47Z"/>
            <circle cx="579" cy="22" r="5" fill="url(#gradient_01)"/>
        </g>
        <path id="bezel" d="M1128,5H30c-13.25,0-24,10.75-24,24v571h12V29c0-6.62,5.38-12,12-12h1098c6.62,0,12,5.38,12,12v571h12V29c0-13.25-10.75-24-24-24Z"/>
    </g>
</svg>
