<svg width="50" height="50" viewBox="0 0 50 50" fill="none" xmlns="http://www.w3.org/2000/svg">
<g clip-path="url(#clip0_238_265)">
<path d="M38 46L12 46C7.58172 46 4 42.5016 4 38.186L4 4L34 4C36.2091 4 38 5.74922 38 7.90698L38 46Z" fill="#1AD3BB"/>
<path d="M12 46H38C39.0506 46 40.0909 45.7931 41.0615 45.391C42.0321 44.989 42.914 44.3997 43.6569 43.6569C44.3997 42.914 44.989 42.0321 45.391 41.0615C45.7931 40.0909 46 39.0506 46 38H20C20 42.4183 16.4183 46 12 46Z" fill="#1A6F66"/>
<path d="M38 8C23.4078 8 10.6874 16.0141 4 27.8809L4 4L34 4C36.2091 4 38 5.79087 38 8Z" fill="#03AF89"/>
<path d="M20.3293 36H21.7073V34.0081C25.4756 33.7773 28 31.919 28 28.834V28.8097C28 26.0891 26.2561 24.7287 22.8171 23.9757L21.7073 23.7449V20.2227C22.9146 20.417 23.7073 21.085 23.878 22.2146L23.8902 22.2389L27.7195 22.2267L27.7317 22.2146C27.5976 19.2632 25.3902 17.2955 21.7073 17.0405V15H20.3293V17.0283C16.7439 17.1984 14.1707 19.0445 14.1707 22.081V22.1053C14.1707 24.8381 15.9756 26.3077 19.2317 27.0243L20.3293 27.2551V30.8502C18.9024 30.7166 18.0732 30.1215 17.878 29.0526L17.8659 29.0283L14.0244 29.0405L14 29.0526C14.0976 32.1619 16.6098 33.8745 20.3293 34.0202V36ZM18.2561 21.7773V21.753C18.2561 20.8785 18.9634 20.3198 20.3293 20.1984V23.4291C18.9146 23.0526 18.2561 22.5789 18.2561 21.7773ZM23.9146 29.2713V29.2955C23.9146 30.2308 23.122 30.7287 21.7073 30.8502V27.5587C23.2927 27.9595 23.9146 28.3725 23.9146 29.2713Z" fill="white"/>
</g>
<defs>
<clipPath id="clip0_238_265">
<rect width="50" height="50" fill="white"/>
</clipPath>
</defs>
</svg>
