<svg width="26" height="26" viewBox="0 0 26 26" fill="none" xmlns="http://www.w3.org/2000/svg">
<g clip-path="url(#clip0_36_1835)">
<path d="M5.41675 16.25V18.4167C5.41658 18.9633 5.62302 19.4898 5.9947 19.8906C6.36638 20.2914 6.87583 20.5369 7.42091 20.5779L7.58342 20.5833H10.8334V22.75H7.58342C6.43414 22.75 5.33194 22.2934 4.51929 21.4808C3.70663 20.6681 3.25008 19.5659 3.25008 18.4167V16.25H5.41675ZM19.5001 10.8333L24.2667 22.75H21.9322L20.6311 19.5H16.2002L14.9013 22.75H12.5678L17.3334 10.8333H19.5001ZM18.4167 13.9587L17.0658 17.3333H19.7655L18.4167 13.9587ZM8.66675 2.16666V4.33332H13.0001V11.9167H8.66675V15.1667H6.50008V11.9167H2.16675V4.33332H6.50008V2.16666H8.66675ZM18.4167 3.24999C19.566 3.24999 20.6682 3.70654 21.4809 4.51919C22.2935 5.33185 22.7501 6.43405 22.7501 7.58332V9.74999H20.5834V7.58332C20.5834 7.00869 20.3551 6.45759 19.9488 6.05126C19.5425 5.64493 18.9914 5.41666 18.4167 5.41666H15.1667V3.24999H18.4167ZM6.50008 6.49999H4.33341V9.74999H6.50008V6.49999ZM10.8334 6.49999H8.66675V9.74999H10.8334V6.49999Z" fill="white"/>
</g>
<defs>
<clipPath id="clip0_36_1835">
<rect width="26" height="26" fill="white"/>
</clipPath>
</defs>
</svg>
