<svg xmlns="http://www.w3.org/2000/svg" xmlns:xlink="http://www.w3.org/1999/xlink" width="70" height="70" viewBox="0 0 70 70"><defs><path id="a" d="M4 0h61c4 0 5 1 5 5v60c0 4-1 5-5 5H4c-3 0-4-1-4-5V5c0-4 1-5 4-5z"/><linearGradient id="c" x1="100%" x2="0%" y1="0%" y2="100%"><stop offset="0%" stop-color="#7CC098"/><stop offset="100%" stop-color="#5F8A71"/></linearGradient></defs><g fill="none" fill-rule="evenodd"><mask id="b" fill="#fff"><use xlink:href="#a"/></mask><g mask="url(#b)"><path fill="url(#c)" d="M0 0H70V70H0z"/><path fill="#FFF" fill-opacity=".383" d="M4 1h61c2.667 0 4.333.667 5 2V0H0v3c.667-1.333 2-2 4-2z"/><path fill="#393939" d="M44.5 69H4c-2 0-4-1-4-4V36.525L21 16h9l4-4h3l4 5h9l4 11 1 26-10.5 15z" opacity=".324"/><path fill="#000" fill-opacity=".383" d="M4 69h61c2.667 0 4.333-1 5-3v4H0v-4c.667 2 2 3 4 3z"/><path fill="#000" d="M16 51.482V29.488L20.875 18h9.147a5.5 5.5 0 0 1 10.956 0h9.147L55 29.488V56H16v-4.023l15.79-5.185.216 1.967 1.37-.61.642-2.245 5.024-2.236.628 7.555 1.826-.813 1.656-8.572 5.023-2.237c.758-.337 1.126-1.157.824-1.836-.302-.678-1.158-.953-1.916-.616l-5.023 2.237-7.478-4.506-1.827.813 5.195 5.522-5.023 2.237-2.098-1.025-1.37.61 1.466 1.645L16 51.482zM30.207 20h-8.951L18 29h35l-4.07-9h-8.137a5.502 5.502 0 0 1-10.586 0zm3.934-.08H33a2.49 2.49 0 0 0 .165.99c.116.287.281.528.495.725.213.197.47.348.77.455.3.107.63.163.99.17v.78h.43v-.78c.333-.013.643-.068.93-.165a2.23 2.23 0 0 0 .75-.42 1.93 1.93 0 0 0 .505-.69c.123-.277.185-.602.185-.975 0-.36-.067-.663-.2-.91a1.904 1.904 0 0 0-.53-.62 2.957 2.957 0 0 0-.76-.41c-.287-.107-.58-.2-.88-.28v-2.11c.36 0 .621.09.785.27.163.18.251.44.265.78h1.14a1.99 1.99 0 0 0-.175-.86 1.721 1.721 0 0 0-.47-.61 1.996 1.996 0 0 0-.695-.36c-.267-.08-.55-.12-.85-.12V14h-.43v.78c-.3 0-.587.043-.86.13a2.302 2.302 0 0 0-.725.375c-.21.163-.377.367-.5.61a1.845 1.845 0 0 0-.185.845c0 .367.066.673.2.92.133.247.308.452.525.615.216.163.46.297.73.4.27.103.541.192.815.265v2.42c-.46-.013-.79-.147-.99-.4-.2-.253-.297-.6-.29-1.04zM35.13 16v2a3.704 3.704 0 0 1-.415-.125 1.33 1.33 0 0 1-.36-.195 1.013 1.013 0 0 1-.255-.29.795.795 0 0 1-.1-.41c0-.353.098-.605.295-.755.197-.15.475-.225.835-.225zm.87 5.33V19c.153.04.303.087.45.14.147.053.278.123.395.21.117.087.21.193.28.32a.96.96 0 0 1 .105.47c0 .4-.115.692-.345.875-.23.183-.525.288-.885.315z" opacity=".3"/><path fill="#FFF" d="M16 49.482V27.488L20.875 16h9.147a5.5 5.5 0 0 1 10.956 0h9.147L55 27.488V54H16v-4.023l15.79-5.185.216 1.967 1.37-.61.642-2.245 5.024-2.236.628 7.555 1.826-.813 1.656-8.572 5.023-2.237c.758-.337 1.126-1.157.824-1.836-.302-.678-1.158-.953-1.916-.616l-5.023 2.237-7.478-4.506-1.827.813 5.195 5.522-5.023 2.237-2.098-1.025-1.37.61 1.466 1.645L16 49.482zM30.207 18h-8.951L18 27h35l-4.07-9h-8.137a5.502 5.502 0 0 1-10.586 0zm3.934-.08H33a2.49 2.49 0 0 0 .165.99c.116.287.281.528.495.725.213.197.47.348.77.455.3.107.63.163.99.17v.78h.43v-.78c.333-.013.643-.068.93-.165a2.23 2.23 0 0 0 .75-.42 1.93 1.93 0 0 0 .505-.69c.123-.277.185-.602.185-.975 0-.36-.067-.663-.2-.91a1.904 1.904 0 0 0-.53-.62 2.957 2.957 0 0 0-.76-.41c-.287-.107-.58-.2-.88-.28v-2.11c.36 0 .621.09.785.27.163.18.251.44.265.78h1.14a1.99 1.99 0 0 0-.175-.86 1.721 1.721 0 0 0-.47-.61 1.996 1.996 0 0 0-.695-.36c-.267-.08-.55-.12-.85-.12V12h-.43v.78c-.3 0-.587.043-.86.13a2.302 2.302 0 0 0-.725.375c-.21.163-.377.367-.5.61a1.845 1.845 0 0 0-.185.845c0 .367.066.673.2.92.133.247.308.452.525.615.216.163.46.297.73.4.27.103.541.192.815.265v2.42c-.46-.013-.79-.147-.99-.4-.2-.253-.297-.6-.29-1.04zM35.13 14v2a3.704 3.704 0 0 1-.415-.125 1.33 1.33 0 0 1-.36-.195 1.013 1.013 0 0 1-.255-.29.795.795 0 0 1-.1-.41c0-.353.098-.605.295-.755.197-.15.475-.225.835-.225zm.87 5.33V17c.153.04.303.087.45.14.147.053.278.123.395.21.117.087.21.193.28.32a.96.96 0 0 1 .105.47c0 .4-.115.692-.345.875-.23.183-.525.288-.885.315z"/></g></g></svg>