<svg width="70" height="70" viewBox="0 0 70 70" fill="none" xmlns="http://www.w3.org/2000/svg">
    <mask id="mask0_2_36" style="mask-type:alpha" maskUnits="userSpaceOnUse" x="0" y="0" width="70" height="70">
    <path d="M4 0H65C69 0 70 1 70 5V65C70 69 69 70 65 70H4C1 70 0 69 0 65V5C0 1 1 0 4 0Z" fill="white"/>
    </mask>
    <g mask="url(#mask0_2_36)">
    <path fill-rule="evenodd" clip-rule="evenodd" d="M0 0H70V70H0V0Z" fill="url(#paint0_linear_2_36)"/>
    <path fill-rule="evenodd" clip-rule="evenodd" d="M4 1H65C67.667 1 69.333 1.667 70 3V0H0V3C0.667 1.667 2 1 4 1Z" fill="white" fill-opacity="0.383"/>
    <path fill-rule="evenodd" clip-rule="evenodd" d="M4 69H65C67.667 69 69.333 68 70 66V70H0V66C0.667 68 2 69 4 69Z" fill="black" fill-opacity="0.383"/>
    </g>
    <path opacity="0.324" fill-rule="evenodd" clip-rule="evenodd" d="M4 69C2 69 0 68 0 65V33.916C0 33.916 18 23 19.5 22.5C21 22 23 22 23 22L28.7087 22.703H37.25L48 23L51.576 24.968L51.34 46.978L39.224 69H4Z" fill="#393939"/>
    <path d="M30.3879 41.7839C21.4712 46.0275 15.9374 42.477 12.395 40.3205C12.1758 40.1846 11.8033 40.3523 12.1265 40.7236C13.3067 42.1545 17.1742 45.6035 22.2225 45.6035C27.2743 45.6035 30.2796 42.847 30.6556 42.3662C31.029 41.8894 30.7653 41.6264 30.3879 41.7839ZM32.8921 40.4009C32.6527 40.0891 31.4361 40.031 30.6705 40.125C29.9036 40.2164 28.7527 40.685 28.8527 40.9664C28.9041 41.0718 29.0089 41.0246 29.5357 40.9772C30.0639 40.9245 31.5436 40.7377 31.852 41.1408C32.1617 41.5467 31.38 43.4801 31.2372 43.7919C31.0993 44.1037 31.2899 44.1841 31.549 43.9764C31.8046 43.7688 32.2672 43.2312 32.5777 42.4704C32.886 41.7055 33.0741 40.6383 32.8921 40.4009Z" fill="#465C68"/>
    <path fill-rule="evenodd" clip-rule="evenodd" d="M24.3924 33.1249C24.3924 34.2383 24.4205 35.1669 23.8577 36.1557C23.4035 36.9597 22.6839 37.4541 21.88 37.4541C20.7826 37.4541 20.1435 36.618 20.1435 35.384C20.1435 32.948 22.3261 32.5058 24.3924 32.5058V33.1249ZM27.2745 40.0912C27.0856 40.2599 26.8122 40.2721 26.5992 40.1594C25.6506 39.3716 25.4817 39.0058 24.9592 38.2541C23.3915 39.854 22.282 40.3323 20.248 40.3323C17.8442 40.3323 15.9709 38.849 15.9709 35.8784C15.9709 33.559 17.2292 31.9792 19.0179 31.2075C20.5696 30.5241 22.7362 30.4035 24.3924 30.2146V29.8448C24.3924 29.1654 24.4446 28.3615 24.0467 27.7746C23.6969 27.248 23.0297 27.0309 22.4427 27.0309C21.3534 27.0309 20.3806 27.5896 20.1435 28.7473C20.0952 29.0047 19.9063 29.2579 19.649 29.2699L16.8754 28.9725C16.6423 28.9202 16.385 28.7313 16.4493 28.3735C17.0885 25.013 20.1233 24 22.8406 24C24.2315 24 26.0484 24.3699 27.1458 25.4231C28.5367 26.7214 28.404 28.4539 28.404 30.3392V34.7931C28.404 36.1317 28.9587 36.7185 29.4813 37.4421C29.6661 37.6994 29.7064 38.009 29.4732 38.2018C28.8903 38.6882 27.8532 39.5927 27.2825 40.0992L27.2745 40.0912Z" fill="#465C68"/>
    <path d="M30.3879 39.7839C21.4712 44.0275 15.9374 40.477 12.395 38.3205C12.1758 38.1846 11.8033 38.3523 12.1265 38.7236C13.3067 40.1545 17.1742 43.6035 22.2225 43.6035C27.2743 43.6035 30.2796 40.847 30.6556 40.3662C31.029 39.8894 30.7653 39.6264 30.3879 39.7839ZM32.8921 38.4009C32.6527 38.0891 31.4361 38.031 30.6705 38.125C29.9036 38.2164 28.7527 38.685 28.8527 38.9664C28.9041 39.0718 29.0089 39.0246 29.5357 38.9772C30.0639 38.9245 31.5436 38.7377 31.852 39.1408C32.1617 39.5467 31.38 41.4801 31.2372 41.7919C31.0993 42.1037 31.2899 42.1841 31.549 41.9764C31.8046 41.7688 32.2672 41.2312 32.5777 40.4704C32.886 39.7055 33.0741 38.6383 32.8921 38.4009Z" fill="white"/>
    <path fill-rule="evenodd" clip-rule="evenodd" d="M24.3924 31.1249C24.3924 32.2383 24.4205 33.1669 23.8577 34.1557C23.4035 34.9597 22.6839 35.4541 21.88 35.4541C20.7826 35.4541 20.1435 34.618 20.1435 33.384C20.1435 30.948 22.3261 30.5058 24.3924 30.5058V31.1249ZM27.2745 38.0912C27.0856 38.2599 26.8122 38.2721 26.5992 38.1594C25.6506 37.3716 25.4817 37.0058 24.9592 36.2541C23.3915 37.854 22.282 38.3323 20.248 38.3323C17.8442 38.3323 15.9709 36.849 15.9709 33.8784C15.9709 31.559 17.2292 29.9792 19.0179 29.2075C20.5696 28.5241 22.7362 28.4035 24.3924 28.2146V27.8448C24.3924 27.1654 24.4446 26.3615 24.0467 25.7746C23.6969 25.248 23.0297 25.0309 22.4427 25.0309C21.3534 25.0309 20.3806 25.5896 20.1435 26.7473C20.0952 27.0047 19.9063 27.2579 19.649 27.2699L16.8754 26.9725C16.6423 26.9202 16.385 26.7313 16.4493 26.3735C17.0885 23.013 20.1233 22 22.8406 22C24.2315 22 26.0484 22.3699 27.1458 23.4231C28.5367 24.7214 28.404 26.4539 28.404 28.3392V32.7931C28.404 34.1317 28.9587 34.7185 29.4813 35.4421C29.6661 35.6994 29.7064 36.009 29.4732 36.2018C28.8903 36.6882 27.8532 37.5927 27.2825 38.0992L27.2745 38.0912Z" fill="white"/>
    <path d="M32 37.5C31.5 37.5 30.9327 36.408 30.9327 35.4908L31.0317 31H49.036V27.788C49.0363 27.6976 49.0008 27.6108 48.9372 27.5466C48.8737 27.4823 48.7874 27.4458 48.697 27.445H31.0317C30.8494 26.7368 30.5144 26.0864 29.9023 25.5151C29.5571 25.1837 29.1449 24.9159 28.6974 24.703H49.036C50.536 24.703 51.75 25.931 51.75 27.445V47.555C51.75 49.069 50.537 50.297 49.036 50.297H21.964C20.464 50.297 19.25 49.069 19.25 47.555H21.964C21.964 47.555 22.116 47.555 22.303 47.555H48.697C48.7874 47.5542 48.8737 47.5177 48.9372 47.4534C49.0008 47.3892 49.0363 47.3024 49.036 47.212V37.5C49.036 37.5 32.5 37.5 32 37.5Z" fill="#465C68"/>
    <path d="M15.459 55.642H14.423V55H17.256V55.642H16.219V58.474H15.459V55.642Z" fill="#465C68"/>
    <path d="M17.422 55H18.492L19.301 57.389H19.311L20.075 55H21.145V58.474H20.434V56.012H20.424L19.577 58.474H18.991L18.143 56.036H18.133V58.474H17.422V55Z" fill="#465C68"/>
    <path d="M32 35.5C31.5 35.5 30.9327 34.408 30.9327 33.4908L31.0317 29H49.036V25.788C49.0363 25.6976 49.0008 25.6108 48.9372 25.5466C48.8737 25.4823 48.7874 25.4458 48.697 25.445H31.0317C30.8494 24.7368 30.5144 24.0864 29.9023 23.5151C29.5571 23.1837 29.1449 22.9159 28.6974 22.703H49.036C50.536 22.703 51.75 23.931 51.75 25.445V45.555C51.75 47.069 50.537 48.297 49.036 48.297H21.964C20.464 48.297 19.25 47.069 19.25 45.555H21.964C21.964 45.555 22.116 45.555 22.303 45.555H48.697C48.7874 45.5542 48.8737 45.5177 48.9372 45.4534C49.0008 45.3892 49.0363 45.3024 49.036 45.212V35.5C49.036 35.5 32.5 35.5 32 35.5Z" fill="white"/>
    <path d="M15.459 53.642H14.423V53H17.256V53.642H16.219V56.474H15.459V53.642Z" fill="white"/>
    <path d="M17.422 53H18.492L19.301 55.389H19.311L20.075 53H21.145V56.474H20.434V54.012H20.424L19.577 56.474H18.991L18.143 54.036H18.133V56.474H17.422V53Z" fill="white"/>
    <defs>
    <linearGradient id="paint0_linear_2_36" x1="70" y1="0" x2="0" y2="70" gradientUnits="userSpaceOnUse">
    <stop stop-color="#DA956B"/>
    <stop offset="1" stop-color="#CC7039"/>
    </linearGradient>
    </defs>
</svg>