<svg width="50" height="50" viewBox="0 0 50 50" xmlns="http://www.w3.org/2000/svg"><path d="M28 16c0 5.523-4.477 10-10 10S8 21.523 8 16 12.477 6 18 6s10 4.477 10 10Z" fill="#1AD3BB"/><path d="M43 24a5 5 0 1 1-10 0 5 5 0 0 1 10 0Zm-27 7h26a4 4 0 0 1 4 4v5a4 4 0 0 1-4 4H16V31Z" fill="#005E7A"/><path d="M4 31h16c7.18 0 13 5.82 13 13H17C9.82 44 4 38.18 4 31Z" fill="#1AD3BB"/><path d="M23.549 12.128 22.425 11l-5.532 5.556-3.319-3.335-1.123 1.129a1.552 1.552 0 0 0 0 2.188L16.892 21l6.657-6.685a1.55 1.55 0 0 0 0-2.187Z" fill="#fff"/></svg>
