<svg xmlns="http://www.w3.org/2000/svg" xmlns:xlink="http://www.w3.org/1999/xlink" width="70" height="70" viewBox="0 0 70 70"><defs><path id="a" d="M4 0h61c4 0 5 1 5 5v60c0 4-1 5-5 5H4c-3 0-4-1-4-5V5c0-4 1-5 4-5z"/><linearGradient id="c" x1="100%" x2="0%" y1="0%" y2="100%"><stop offset="0%" stop-color="#DA956B"/><stop offset="100%" stop-color="#CC7039"/></linearGradient></defs><g fill="none" fill-rule="evenodd"><mask id="b" fill="#fff"><use xlink:href="#a"/></mask><g mask="url(#b)"><path fill="url(#c)" d="M0 0H70V70H0z"/><path fill="#FFF" fill-opacity=".383" d="M4 1h61c2.667 0 4.333.667 5 2V0H0v3c.667-1.333 2-2 4-2z"/><path fill="#393939" d="M4 69c-2 0-4-.146-4-4.09V40.738L18.16 24H52l1 2.045v6.137l-10.585 11.3 10.05 4.09L37.071 69H4z" opacity=".324"/><path fill="#000" fill-opacity=".383" d="M4 69h61c2.667 0 4.333-1 5-3v4H0v-4c.667 2 2 3 4 3z"/><path fill="#000" d="M53 42.084v5.66c0 1.837-1.111 3.34-3.556 3.34h-28c-2.466 0-4.444-1.503-4.444-3.34V28.34c0-1.837 1.978-3.34 4.444-3.34H49c2.444 0 4 1.368 4 3.205v5.88H37c-2.667 0-4 1.857-4 3.957 0 2.1 1.333 4.042 4 4.042h16zm-15-1.39a2.656 2.656 0 0 1-2.667-2.652A2.656 2.656 0 0 1 38 35.39a2.656 2.656 0 0 1 2.667 2.653A2.656 2.656 0 0 1 38 40.695z" opacity=".3"/><path fill="#FFF" d="M53 40.084v5.66c0 1.837-1.111 3.34-3.556 3.34h-28c-2.466 0-4.444-1.503-4.444-3.34V26.34c0-1.837 1.978-3.34 4.444-3.34H49c2.444 0 4 1.368 4 3.205v5.88H37c-2.667 0-4 1.857-4 3.957 0 2.1 1.333 4.042 4 4.042h16zm-15-1.39a2.656 2.656 0 0 1-2.667-2.652A2.656 2.656 0 0 1 38 33.39a2.656 2.656 0 0 1 2.667 2.653A2.656 2.656 0 0 1 38 38.695z"/></g></g></svg>