<svg width="50" height="50" viewBox="0 0 50 50" xmlns="http://www.w3.org/2000/svg"><path fill-rule="evenodd" clip-rule="evenodd" d="M37.694 20.15c.857 0 1.551-.705 1.551-1.575S38.551 17 37.694 17s-1.551.705-1.551 1.575.694 1.575 1.551 1.575Zm-16.546 1.748c-2.746 0-4.974 2.269-4.974 5.051 0 2.783 2.233 5.051 4.974 5.051 2.74 0 4.974-2.268 4.974-5.05 0-2.783-2.229-5.052-4.974-5.052Zm0 7.713c-1.443 0-2.616-1.192-2.616-2.657 0-1.464 1.173-2.656 2.616-2.656 1.442 0 2.616 1.192 2.616 2.657 0 1.464-1.174 2.656-2.616 2.656ZM10.61 21.888a4.22 4.22 0 0 1 3.196 1.45 4.523 4.523 0 0 1 1.132 2.997v5.46h-2.379v-5.528c-.005-1.087-.889-1.974-1.964-1.974-.062 0-.13.005-.197.01-.962.1-1.768 1.024-1.768 2.021v5.471H6.25v-5.513c-.005-1.092-.884-1.984-1.96-1.984-.061 0-.129.005-.196.01-.956.1-1.768 1.024-1.768 2.027v5.46H0v-5.528c0-2.415 1.939-4.379 4.317-4.379 1.19 0 2.322.504 3.14 1.38a4.29 4.29 0 0 1 3.153-1.38Zm19.173-4.652h-2.379v14.57h2.379v-14.57Zm2.172 0h2.378v14.57h-2.378v-14.57Zm6.928 4.904h-2.378v9.66h2.378v-9.66Zm9.736 1.176A4.872 4.872 0 0 1 50 26.724v1.107h-7.234a2.678 2.678 0 0 0 2.575 1.985c.947 0 1.8-.488 2.29-1.313l.099-.162 1.965.981-.114.195c-.894 1.527-2.534 2.478-4.281 2.478h-.005a4.896 4.896 0 0 1-3.532-1.507 5.054 5.054 0 0 1-1.442-3.607 5.075 5.075 0 0 1 1.453-3.512 4.895 4.895 0 0 1 3.453-1.481h.063c1.256 0 2.435.51 3.33 1.428Zm-1.023 2.52c-.342-1.029-1.314-1.753-2.4-1.753-1.085 0-2.057.724-2.393 1.753h4.793Z"/><path d="M43.105 4h.972V.818h1.108V0H42v.818h1.105V4Zm2.775 0h.858V1.453h.053L47.663 4h.555l.871-2.547h.056V4H50V0h-1.108l-.924 2.714h-.05L46.99 0h-1.11v4Z" fill="#D1D5DB"/></svg>
