<svg xmlns="http://www.w3.org/2000/svg" xmlns:xlink="http://www.w3.org/1999/xlink" width="600" height="600">
    <defs>
        <clipPath id="clip-path" clipPathUnits="objectBoundingBox">
            <use xlink:href="#filterPath" fill="none"/>
        </clipPath>
        <path id="filterPath" d="M0.5,0L0.5687,0.1548L0.6913,0.0381L0.6956,0.2073L0.8536,0.1464L0.7927,0.3044L0.9619,0.3087L0.8452,0.4313L1,0.5L0.8452,0.5687L0.9619,0.6913L0.7927,0.6956L0.8536,0.8536L0.6956,0.7927L0.6913,0.9619L0.5687,0.8452L0.5,1L0.4313,0.8452L0.3087,0.9619L0.3044,0.7927L0.1464,0.8536L0.2073,0.6956L0.0381,0.6913L0.1548,0.5687L0,0.5L0.1548,0.4313L0.0381,0.3087L0.2073,0.3044L0.1464,0.1464L0.3044,0.2073L0.3087,0.0381L0.4313,0.1548L0.5,0Z">
        </path>
    </defs>
    <svg viewBox="0 0 1 1" id="preview" preserveAspectRatio="none">
        <use xlink:href="#filterPath" fill="darkgrey"/>
    </svg>
    <image xlink:href="" clip-path="url(#clip-path)"/>
</svg>
