<svg width="50" height="50" viewBox="0 0 50 50" xmlns="http://www.w3.org/2000/svg"><path d="M41.413 29.673c0 9.018-7.348 16.328-16.412 16.328-9.065 0-16.413-7.31-16.413-16.328 0-9.017 7.348-16.327 16.413-16.327 9.064 0 16.412 7.31 16.412 16.327Z" fill="#1AD3BB"/><path d="M22.637 5.551a5.337 5.337 0 0 1 4.726 0L50 16.921 27.363 28.288a5.337 5.337 0 0 1-4.726 0L0 16.92 22.637 5.551Z" fill="#985184"/><path d="m39.574 22.156-12.211 6.132a5.337 5.337 0 0 1-4.725 0l-12.212-6.133A16.421 16.421 0 0 1 25 13.344a16.42 16.42 0 0 1 14.574 8.812Z" fill="#005E7A"/></svg>
