<svg width="50" height="50" viewBox="0 0 50 50" xmlns="http://www.w3.org/2000/svg"><path d="M0 12a4 4 0 0 1 4-4h42a4 4 0 0 1 4 4v26a4 4 0 0 1-4 4H4a4 4 0 0 1-4-4V12Z" fill="#FFCB01"/><path d="m10.09 21-1.47 2.149h8.01c.405 0 .4.164.202.454-.201.293-.538.8-.743 1.1-.104.15-.292.426.33.426h3.276l.97-1.42c.603-.879.053-2.708-2.1-2.708L10.09 21Z" fill="#D80613"/><path d="m8.025 28 2.952-4.317h3.664c.405 0 .4.166.202.455l-.748 1.095c-.104.151-.292.426.33.426h4.907C18.925 26.261 17.6 28 15.224 28h-7.2Zm16.906-2.342L23.33 28h-4.223l1.6-2.342h4.224Zm6.468-.53H21.071L23.895 21h4.221l-1.618 2.367h1.884L30.002 21h4.221L31.4 25.128Zm-.363.53L29.436 28h-4.221l1.6-2.342h4.221ZM2 26.582h6.22l-.34.496H2v-.496Zm0-.924h6.852l-.34.497H2v-.497Zm0 1.848h5.589L7.25 28H2v-.494Zm46-.428h-6.198l.34-.496H48v.496ZM48 28h-6.827l.337-.494H48V28Zm-5.226-2.342H48v.498h-5.565l.34-.498ZM40.07 21l-2.824 4.128h-4.473L35.598 21h4.471Zm-7.659 4.658s-.308.454-.458.672c-.53.771-.062 1.669 1.668 1.669h6.78l1.6-2.341h-9.59Z" fill="#D80613"/><path d="M43.105 4h.972V.818h1.108V0H42v.818h1.105V4Zm2.775 0h.858V1.453h.053L47.663 4h.555l.871-2.547h.056V4H50V0h-1.108l-.924 2.714h-.05L46.99 0h-1.11v4Z" fill="#D1D5DB"/></svg>
