<svg viewBox="0 0 558 1400" fill="none" xmlns="http://www.w3.org/2000/svg" preserveAspectRatio="none">
    <defs>
        <linearGradient id="gradient">
        <stop offset="0" stop-color="#383E45" stop-opacity="0"/>
        <stop offset="1" stop-color="#383E45"/>
        </linearGradient>
    </defs>
    <path d="M1.0954 772.539L560.912 1052.66M1.09541 989.779L208.821 1405M1.09541 1062.19L138.307 1405M1.09541 1134.6L91.291 1405M1.0954 917.363L326.321 1405M1.09541 1207.02L57.7028 1405M1.09542 1351.85L12.9172 1405M1.09542 1279.43L32.5095 1405M1.09544 193.229L57.8055 -5M1.0954 700.124L560.912 700.609M1.09544 120.813L32.5838 -5M1.09544 48.4052L12.9761 -4.99914M1.09545 265.644L91.4285 -5M1.09545 338.059L138.497 -5M1.09545 482.884L326.862 -4.99976M1.09545 410.468L209.127 -4.99976M1.09546 627.708L560.912 348.558M1.0954 844.955L560.912 1404.7M1.09545 555.299L560.912 -3.48646M560.913 -3.48732L560.913 1404.7M77.4953 -4.99902L77.4953 1405M26.2613 -4.99902L26.2613 1405M36.7073 -4.99902L36.7073 1405M48.5217 -4.99902L48.5217 1405M8.61601 -4.99902L8.61599 1405M16.9569 -4.99902L16.9569 1405M412.715 -4.99903V1405M95.5167 -4.99902L95.5167 1405M61.9964 -4.99902L61.9964 1405M1.09574 -4.99902L1.09573 1405M116.73 -4.99902L116.73 1405M142.074 -4.99902L142.074 1405M324.127 -4.99903V1405M172.88 -4.99902L172.88 1405M211.124 -4.99903L211.124 1405M259.869 -4.99903V1405" stroke="url(#gradient)" vector-effect="non-scaling-stroke"/>
</svg>
