<svg viewBox="0 0 1400 900" fill="none" xmlns="http://www.w3.org/2000/svg" preserveAspectRatio="none">
    <defs>
        <radialGradient id="gradient">
            <stop stop-color="#383E45"/>
            <stop stop-color="#383E45" offset=".95" stop-opacity="0"/>
        </radialGradient>
    </defs>
    <path d="M1410.24 -14.6165L894.493 328.966V581.601L1410.24 925.719M1410.24 807.52L957.778 581.601M957.778 581.601V328.966M957.778 581.601L452.476 581.599V328.966L957.778 328.966M957.778 328.966L1410.24 102.658M0.244141 -248.576L579.077 328.966V581.599L0.366413 1160.18M351.858 -249.82L642.164 328.966V581.599L352.618 1160.06M1057.59 -249.82L768.326 328.966V581.599L1056.87 1160.06M704.724 -249.82L704.744 1160.06M1410.24 -249.616L831.412 328.965V581.602L1409.01 1160.06M0.244141 102.638L452.478 328.966V581.599L0.244141 807.54M0.244141 -14.2055L515.996 328.966V581.601L0.244141 925.329M1410.24 631.874L957.777 518.198H452.476L0.244995 631.729M1410.24 279.245L957.777 392.042H452.476L0.244995 279.418M1410.24 455.56L0.244995 455.573M1410.24 100.982H0.244995M1410.24 52.3555H0.244995M1410.24 858.949H0.244995M1410.24 923.219H0.244995M1410.24 1011.83H0.244995M1410.24 1141.81H0.244995M1410.24 -11.7375H0.244995M1410.24 -100.1H0.244995M1410.24 -229.716H0.244995M1410.24 810.189H0.244995M441.474 587.104H968.824V323.46H441.474V587.104ZM429.081 593.307H981.243V317.253H429.081V593.307ZM415.465 600.119H994.887V310.442H415.465V600.119ZM400.441 607.598H1009.87V302.918H400.441V607.598ZM383.768 615.927H1026.55V294.576H383.768V615.927ZM365.165 625.221H1045.16V285.271H365.165V625.221ZM344.281 635.655H1066.06V274.814H344.281V635.655ZM320.661 647.456H1089.69V262.997H320.661V647.456ZM293.737 660.908H1116.63V249.519H293.737V660.908ZM262.756 676.383H1147.63V234.018H262.756V676.383ZM226.73 694.38H1183.68V215.987H226.73V694.38ZM184.308 715.581H1226.12V194.755H184.308V715.581ZM133.661 741.125H1277.28V169.406H133.661V741.125ZM72.3571 771.51H1338.13V138.729H72.3571V771.51Z" vector-effect="non-scaling-stroke" stroke="url(#gradient)"/>
</svg>
