<svg viewBox="0 0 1400 1400" fill="none" xmlns="http://www.w3.org/2000/svg" preserveAspectRatio="none">
    <style>
        @media only screen and (max-width: 130px) {
			path {
				stroke-width: .5px;
			}
		}
	</style>
    <defs>
        <radialGradient id="gradient" cy="75%" cx="66%">
            <stop stop-color="#383E45"/>
            <stop stop-color="#383E45" offset="1" stop-opacity="0"/>
        </radialGradient>
    </defs>
    <path d="M384.479 -4.99957V825.685L-4.99827 981.502M447.56 -4.99957V825.685L-4.99805 1051.99M510.64 -4.99957V825.685L-4.9987 1169.43M573.726 -4.99951V825.685L-4.69844 1403.91H1403.48L826.054 825.685V-4.99951M636.806 -4.99951V825.685L347.345 1403.91M699.888 -4.99951L699.394 1403.91M762.974 -4.99951V825.685L1051.44 1403.91M889.141 -4.99951V825.685L1405 1169.97M952.221 -4.99951V825.685L1405 1052.29M1015.3 -4.99951V825.685L1405 981.698M1078.39 -4.99951V825.685L1405 934.643M1141.47 -4.99951V825.685L1405 901.038M1204.55 -4.99951V825.685L1405 875.834M1267.64 -4.99951V825.685L1405 856.232M1330.72 -4.99951V825.685L1405 840.554M1393.8 -4.99951V825.685L1405 827.721M-4.99892 900.935L258.312 825.685V-5M321.392 -4.99957V825.685L-4.99935 934.507M195.232 -4.99957V825.685L-5 875.76M132.144 -4.99957V825.685L-4.99783 856.168M69.0641 -4.99957V825.685L-4.99935 840.499M5.97687 -4.99957V825.685L-4.99913 827.681M-4.9989 762.653H1405M-4.9989 699.615H1405M-4.9989 636.584H1405M-4.9989 573.552H1405M-4.9989 510.514H1405M-4.9989 447.482H1405M-4.9989 384.451H1405M-4.9989 321.412H1405M-4.9989 258.38H1405M-4.9989 195.35H1405M-4.9989 132.31H1405M-4.9989 69.2793H1405M-4.9989 6.24152H1405M1405 1103.01H-4.99939M1405 1054.28H-4.99939M1405 1016.06H-4.99939M1405 1167.23H-4.99939M1405 985.273H-4.99939M1405 959.941H-4.99939M1405 831.35H-4.99939M1405 825.685H-4.99939M1405 844.353H-4.99939M1405 837.547H-4.99939M1405 905.226H-4.99939M1405 938.73H-4.99939M1405 1255.78H-4.99939M1405 860.207H-4.99939M1405 851.87H-4.99939M1405 891.765H-4.99939M1405 879.949H-4.99939M1405 869.507H-4.99939M1405 920.717H-4.99939" vector-effect="non-scaling-stroke" stroke="url(#gradient)"/>
</svg>
