<svg viewBox="0 0 1400 700" fill="none" xmlns="http://www.w3.org/2000/svg" stroke="#383E45" preserveAspectRatio="none">
    <path d="M3032.9 2630.7C1929.3 1738.7 120.199 2173 -277.801 -45.2996C-675.801 -2263.6 1133.2 -2698 1838.7 -4024.3M3237.9 2413.2C2086 1630.4 351.799 2202.3 -217.801 64.8003C-787.401 -2072.7 946.699 -2644.5 1528.9 -3999.1M3420 2182.9C2230.1 1511.1 581.001 2211.1 -149.699 167.5C-880.399 -1876.1 768.701 -2576.2 1228 -3948M3578.4 1942C2360.8 1382 805.802 2200.1 -74.2985 262C-954.398 -1676.1 600.502 -2494.2 938.002 -3872.3M3712.6 1693C2477.6 1244.7 1024.7 2170.3 7.50012 348.101C-1009.7 -1474.1 443.1 -2399.6 660.9 -3773.5M3822.5 1438C2580 1100.4 1236.2 2122.3 94.8008 425.3C-1046.6 -1271.7 297.301 -2293.6 398.501 -3653M3908.1 1179.4C2667.6 950.6 1438.7 2057.2 186.8 493.101C-1065.1 -1071 163.9 -2177.6 152.5 -3512.9M3969.3 919.4C2740.3 796.8 1630.8 1976.2 282.399 551.5C-1066 -873.2 43.4989 -2052.7 -75.9011 -3354.8M4006.8 660.3C2798.2 640.3 1811.6 1880.6 380.901 600.3C-1049.8 -680 -63.1987 -1920.4 -285.199 -3180.7M4021 404.101C2841.1 482.501 1979.7 1771.6 481.2 639.3C-1017.3 -493 -155.9 -1782.1 -474.5 -2992.8M4012.6 153C2869.2 324.9 2134.3 1650.8 582.499 668.8C-969.301 -313.2 -234.401 -1639.1 -642.801 -2793.1M3982.7 -91.2C2883.1 168.8 2274.6 1519.5 683.801 688.7C-906.999 -142.1 -298.499 -1492.9 -789.699 -2583.7M3932.3 -326.7C2883 15.3006 2399.9 1379.3 784.301 699.3C-831.299 19.3006 -348.299 -1344.8 -914.699 -2366.8M3862.7 -551.7C2869.5 -134.1 2509.8 1231.9 883.098 700.9C-743.602 169.9 -384.002 -1196.1 -1017.6 -2144.6M3775.2 -764.7C2843.3 -278.5 2604 1078.7 979.499 693.8C-645.001 308.9 -405.701 -1048.2 -1098.3 -1919.2M3671.4 -964.4C2805.2 -416.8 2682.2 921.2 1072.7 678.5C-536.799 435.8 -413.899 -902.3 -1157.2 -1692.7M3552.8 -1149.6C2755.9 -547.9 2744.5 761.2 1162 655.4C-420.501 549.6 -409.002 -759.6 -1194.6 -1467.1M3421.2 -1319.2C2696.4 -671.1 2790.9 600.1 1246.8 625C-297.2 649.9 -391.7 -621.4 -1211 -1244.5M3278.3 -1472.4C2627.7 -785.6 2821.7 439.5 1326.6 588C-168.499 736.5 -362.599 -488.5 -1207.2 -1026.8M3125.8 -1608.4C2550.8 -890.6 2837.4 280.7 1400.7 545C-36.0007 809.299 -322.601 -362 -1184.3 -815.5M2965.7 -1726.9C2466.8 -985.8 2838.4 125.1 1468.9 496.5C99.3983 867.9 -272.402 -242.9 -1143.1 -612.6M2799.7 -1827.5C2376.7 -1070.5 2825.5 -25.8997 1530.6 443.4C235.702 912.7 -213.098 -131.8 -1084.9 -419.4M2629.8 -1910C2281.8 -1144.5 2799.4 -171.1 1585.7 386.5C371.998 944.1 -145.502 -29.3999 -1011.1 -237.4M2457.7 -1974.6C2183.1 -1207.7 2760.9 -309.4 1633.9 326.2C506.901 961.8 -70.7992 63.6003 -923.199 -67.6997M2285.2 -2021.4C2081.8 -1259.7 2711.1 -439.7 1675.1 263.6C639.098 966.9 9.99841 146.9 -822.602 88.5M2114 -2050.9C1979.1 -1300.9 2650.9 -561.3 1709.2 199.2C767.502 959.7 95.8016 220 -710.898 230.5M1945.8 -2063.6C1875.9 -1331.1 2581.5 -673.2 1736.2 133.8C890.902 940.8 185.502 282.8 -589.898 357.4M1782.2 -2060.3C1773.5 -1350.8 2504.1 -774.9 1756.2 68.1006C1008.3 911.1 277.899 335.2 -461.301 468.7M1624.6 -2041.8C1672.9 -1360.3 2419.8 -865.9 1769.4 2.80054C1119 871.5 372.001 377 -326.699 564.1M1474.4 -2009C1575 -1359.8 2330.1 -945.5 1776 -61.3999C1221.9 822.7 466.702 408.5 -187.898 643.4M1332.9 -1963.2C1480.7 -1350.1 2236.1 -1013.8 1776.2 -123.9C1316.3 766 560.998 429.8 -46.6016 706.5M1201 -1905.4C1390.8 -1331.6 2138.9 -1070.3 1770.4 -183.9C1401.9 702.5 653.698 441.2 95.3984 753.7M1079.8 -1837.1C1306.2 -1305.1 2040 -1115.4 1758.9 -241.2C1477.8 633 744 443.1 236.5 785.3M970.099 -1759.5C1227.5 -1271.4 1940.5 -1148.8 1742.2 -295.1C1543.9 558.6 830.899 436.2 375.199 801.8M872.6 -1674.1C1155.4 -1231.1 1841.8 -1171 1720.9 -345.1C1600 480.8 913.6 420.8 510 803.7M787.798 -1582.4C1090.4 -1185.2 1745 -1182.4 1695.5 -390.9C1646 400.6 991.398 397.7 639.398 792M715.898 -1485.9C1032.7 -1134.7 1651 -1183.3 1666.3 -432.2C1681.7 318.9 1063.4 367.6 761.998 767.4M657.199 -1386C982.899 -1080.2 1560.9 -1174.4 1634.2 -468.6C1707.4 237.1 1129.3 331.3 876.899 731.2M611.699 -1284.3C940.999 -1022.9 1475.9 -1156.3 1599.6 -500C1723.3 156.3 1188.4 289.6 982.799 684.4L969.5 711M579.301 -1182.3C907.201 -963.6 1396.6 -1129.7 1563.1 -526.2C1729.6 77.3005 1240.2 243.4 1078.8 628.2L1017.5 760M559.699 -1081.5C881.599 -903.4 1324 -1095.8 1525.5 -547.3C1727 1.2002 1284.7 193.5 1164.3 563.9C1147.69 615 1116 716 1107.5 734M552.398 -983.1C863.998 -843.1 1258.5 -1055.1 1487.2 -563C1715.9 -70.8991 1321.3 141.001 1238.4 493.101C1217.77 563.734 1178.6 712.7 1187 743.5M556.801 -888.6C854.101 -783.6 1200.9 -1008.8 1448.8 -573.6C1696.7 -138.4 1350 86.7008 1300.6 416.9C1286.9 513.767 1279 713.2 1285 726M572.398 -799.1C851.998 -725.8 1151.7 -957.8 1411.2 -579.1C1670.7 -200.4 1371 31.7009 1351 337C1342.5 446.834 1337 676.2 1383 715M598.102 -715.8C857.002 -670.4 1111 -903.2 1374.6 -579.6C1638.2 -256 1384.2 -23.2995 1389 254.9C1388.67 308.6 1391.5 419.6 1405.5 434M633.199 -639.9C868.699 -618.5 1079.2 -846.2 1339.8 -575.6C1600.4 -305 1389.9 -77.2993 1414.9 171.8M676.398 -572.1C886.598 -570.5 1056.3 -787.6 1307.1 -567.2C1557.9 -346.8 1388.2 -129.5 1428.7 89.2998M726.801 -513.4C910.201 -527.2 1042.5 -728.9 1277.1 -554.8C1511.7 -380.7 1379.5 -179 1430.6 8.90063" vector-effect="non-scaling-stroke"/>
</svg>
