<svg width="220" height="80" viewBox="0 0 220 80" fill="none" xmlns="http://www.w3.org/2000/svg">
<path d="M10 29C10 28.4477 10.4477 28 11 28H209C209.552 28 210 28.4477 210 29V69C210 69.5523 209.552 70 209 70H11C10.4477 70 10 69.5523 10 69V29Z" fill="white"/>
<rect x="132" y="34" width="18" height="3" rx="1" fill="#2B2B33"/>
<rect x="22" y="34" width="12" height="3" rx="1" fill="#2B2B33"/>
<rect x="70" y="34" width="12" height="3" rx="1" fill="#2B2B33"/>
<rect x="22" y="56" width="18" height="2" rx="1" fill="#2B2B33"/>
<rect x="22" y="60" width="18" height="2" rx="1" fill="#2B2B33"/>
<rect x="70" y="56" width="18" height="2" rx="1" fill="#2B2B33"/>
<rect x="70" y="60" width="18" height="2" rx="1" fill="#2B2B33"/>
<rect x="132" y="55" width="10" height="2" rx="1" fill="#2B2B33"/>
<rect x="144" y="55" width="10" height="2" rx="1" fill="#2B2B33"/>
<rect x="156" y="55" width="10" height="2" rx="1" fill="#2B2B33"/>
<rect x="22" y="52" width="18" height="2" rx="1" fill="#2B2B33"/>
<rect x="70" y="52" width="18" height="2" rx="1" fill="#2B2B33"/>
<rect x="22" y="48" width="18" height="2" rx="1" fill="#2B2B33"/>
<rect x="70" y="48" width="18" height="2" rx="1" fill="#2B2B33"/>
<rect x="22" y="44" width="18" height="2" rx="1" fill="#2B2B33"/>
<rect x="70" y="44" width="18" height="2" rx="1" fill="#2B2B33"/>
<rect x="22" y="40" width="42" height="1" fill="#D9D9D9"/>
<rect x="70" y="40" width="42" height="1" fill="#D9D9D9"/>
<rect x="132" y="40" width="66" height="1" fill="#D9D9D9"/>
<rect x="132" y="51" width="66" height="1" fill="#D9D9D9"/>
<circle cx="134" cy="62" r="2" fill="#2B2B33"/>
<circle cx="140" cy="62" r="2" fill="#2B2B33"/>
<circle cx="146" cy="62" r="2" fill="#2B2B33"/>
<circle cx="152" cy="62" r="2" fill="#2B2B33"/>
<rect x="132" y="44" width="8" height="4" rx="2" fill="#00B2CA"/>
<rect x="154" y="44" width="8" height="4" rx="2" fill="#00B2CA"/>
<rect x="143" y="44" width="8" height="4" rx="2" fill="#00B2CA"/>
<rect x="165" y="44" width="8" height="4" rx="2" fill="#00B2CA"/>
<rect x="10" y="10" width="200" height="15" rx="1" fill="white" fill-opacity="0.2"/>
</svg>
