<svg width="234" height="60" viewBox="0 0 234 60" fill="none" xmlns="http://www.w3.org/2000/svg">
    <rect y="5" width="234" height="50" fill="url(#bg_gradient)"/>
    <rect x="24" y="24" width="32" height="4" rx="1" fill="white"/>
    <rect x="24" y="32" width="32" height="4" rx="1" fill="white"/>
    <rect x="24" y="40" width="32" height="4" rx="1" fill="white"/>
    <rect x="24" y="16" width="32" height="4" rx="1" fill="white"/>
    <rect x="72" y="24" width="32" height="4" rx="1" fill="white"/>
    <rect x="72" y="32" width="32" height="4" rx="1" fill="white"/>
    <rect x="72" y="40" width="32" height="4" rx="1" fill="white"/>
    <rect x="72" y="16" width="32" height="4" rx="1" fill="white"/>
    <rect x="171" y="26" width="13" height="4" rx="1" fill="white"/>
    <rect x="154" y="26" width="13" height="4" rx="1" fill="white"/>
    <rect x="188" y="26" width="13" height="4" rx="1" fill="white"/>
    <rect x="202" y="16" width="8" height="4" rx="1" fill="white"/>
    <rect x="190" y="16" width="8" height="4" rx="1" fill="white"/>
    <rect x="178" y="16" width="8" height="4" rx="1" fill="white"/>
    <rect x="166" y="16" width="8" height="4" rx="1" fill="white"/>
    <rect x="154" y="16" width="8" height="4" rx="1" fill="white"/>
    <circle cx="186.5" cy="39.5" r="4.5" fill="white"/>
    <circle cx="172.5" cy="39.5" r="4.5" fill="white"/>
    <circle cx="158.5" cy="39.5" r="4.5" fill="white"/>
    <defs>
        <linearGradient id="bg_gradient" x1="0" y1="5" x2="234" y2="55" gradientUnits="userSpaceOnUse">
            <stop stop-color="#357C83"/>
            <stop offset="1" stop-color="#01A09D"/>
        </linearGradient>
    </defs>
</svg>
