<svg xmlns="http://www.w3.org/2000/svg" class="hb-svg d-flex m-auto" width="234" viewBox="0 0 234 60" fill="" style="width: 100%;">
<defs>
  <linearGradient id="linearGradient-1" x1="0%" x2="100%" y1="47.717%" y2="52.283%">
    <stop offset="0%" stop-color="#00A09D"></stop>
    <stop offset="100%" stop-color="#00E2FF"></stop>
  </linearGradient>
  <rect id="path-2" width="234" height="50" x="0" y="5"></rect>
</defs>
<g fill="none" fill-rule="evenodd" class="footer_template_default">
  <g class="rectangle">
    <use fill="#000" fill-opacity=".14" href="#path-2"></use>
    <use fill="url(#linearGradient-1)" fill-opacity=".3" href="#path-2"></use>
  </g>
  <g fill="#FFF" class="group" opacity=".804">
    <path d="M42 16H21C20.4477 16 20 16.4477 20 17V19C20 19.5523 20.4477 20 21 20H42C42.5523 20 43 19.5523 43 19V17C43 16.4477 42.5523 16 42 16Z"/>
    <path d="M42 24H21C20.4477 24 20 24.4477 20 25V27C20 27.5523 20.4477 28 21 28H42C42.5523 28 43 27.5523 43 27V25C43 24.4477 42.5523 24 42 24Z"/>
    <path d="M42 32H21C20.4477 32 20 32.4477 20 33V35C20 35.5523 20.4477 36 21 36H42C42.5523 36 43 35.5523 43 35V33C43 32.4477 42.5523 32 42 32Z"/>
    <path d="M42 40H21C20.4477 40 20 40.4477 20 41V43C20 43.5523 20.4477 44 21 44H42C42.5523 44 43 43.5523 43 43V41C43 40.4477 42.5523 40 42 40Z"/>
    <path d="M93 16H72C71.4477 16 71 16.4477 71 17V19C71 19.5523 71.4477 20 72 20H93C93.5523 20 94 19.5523 94 19V17C94 16.4477 93.5523 16 93 16Z"/>
    <path d="M93 24H72C71.4477 24 71 24.4477 71 25V27C71 27.5523 71.4477 28 72 28H93C93.5523 28 94 27.5523 94 27V25C94 24.4477 93.5523 24 93 24Z"/>
    <path d="M93 32H72C71.4477 32 71 32.4477 71 33V35C71 35.5523 71.4477 36 72 36H93C93.5523 36 94 35.5523 94 35V33C94 32.4477 93.5523 32 93 32Z"/>
    <path d="M131 41H123C122.448 41 122 41.4477 122 42V44C122 44.5523 122.448 45 123 45H131C131.552 45 132 44.5523 132 44V42C132 41.4477 131.552 41 131 41Z"/>
    <path d="M143 41H135C134.448 41 134 41.4477 134 42V44C134 44.5523 134.448 45 135 45H143C143.552 45 144 44.5523 144 44V42C144 41.4477 143.552 41 143 41Z"/>
    <path d="M155 41H147C146.448 41 146 41.4477 146 42V44C146 44.5523 146.448 45 147 45H155C155.552 45 156 44.5523 156 44V42C156 41.4477 155.552 41 155 41Z"/>
    <path d="M167 41H159C158.448 41 158 41.4477 158 42V44C158 44.5523 158.448 45 159 45H167C167.552 45 168 44.5523 168 44V42C168 41.4477 167.552 41 167 41Z"/>
    <path d="M179 41H171C170.448 41 170 41.4477 170 42V44C170 44.5523 170.448 45 171 45H179C179.552 45 180 44.5523 180 44V42C180 41.4477 179.552 41 179 41Z"/>
    <path d="M167 16H159C158.448 16 158 16.4477 158 17V19C158 19.5523 158.448 20 159 20H167C167.552 20 168 19.5523 168 19V17C168 16.4477 167.552 16 167 16Z"/>
    <path d="M134 16H123C122.448 16 122 16.4477 122 17V19C122 19.5523 122.448 20 123 20H134C134.552 20 135 19.5523 135 19V17C135 16.4477 134.552 16 134 16Z"/>
    <path d="M153.348 16H139.652C139.292 16 139 16.4477 139 17V19C139 19.5523 139.292 20 139.652 20H153.348C153.708 20 154 19.5523 154 19V17C154 16.4477 153.708 16 153.348 16Z"/>
    <path d="M131 30.5C131 28.0147 128.985 26 126.5 26C124.015 26 122 28.0147 122 30.5C122 32.9853 124.015 35 126.5 35C128.985 35 131 32.9853 131 30.5Z"/>
    <path d="M145 30.5C145 28.0147 142.985 26 140.5 26C138.015 26 136 28.0147 136 30.5C136 32.9853 138.015 35 140.5 35C142.985 35 145 32.9853 145 30.5Z"/>
    <path d="M159 30.5C159 28.0147 156.985 26 154.5 26C152.015 26 150 28.0147 150 30.5C150 32.9853 152.015 35 154.5 35C156.985 35 159 32.9853 159 30.5Z"/>
  </g>
</g>
</svg>
