<svg xmlns="http://www.w3.org/2000/svg" xmlns:xlink="http://www.w3.org/1999/xlink" width="240" height="70" viewBox="0 0 240 70">
    <defs>
        <g id="product_horizontal_card_2_item">
            <rect width="110" height="26" fill="#9ccde4"/>
            <g transform="translate(10 4) scale(.75)">
                <path d="M12.9.4H5.417L.4,6.928l2.86,3.683h1.7V22.9h15.86V10.611h1.726L25.4,6.928,20.383.4Z" fill="#e89849"/>
                <path d="M4.954,10.612h-1.7L.4,6.928,5.417.4H20.383L25.4,6.928l-2.86,3.684H20.814" fill="none" stroke="#89440b" stroke-linecap="round" stroke-linejoin="round" stroke-width="1"/>
                <path d="M20.814,8.526V22.9H4.954V5.437" fill="none" stroke="#89440b" stroke-linecap="round" stroke-linejoin="round" stroke-width="1"/>
                <path d="M16.718,1.648a4.032,4.032,0,0,1-7.283.839" fill="none" stroke="#89440b" stroke-linecap="round" stroke-linejoin="round" stroke-width="1"/>
                <line x1="2.465" transform="translate(18.349 18.115)" fill="none" stroke="#89440b" stroke-linecap="round" stroke-linejoin="round" stroke-width="1"/>
                <line x1="6.068" transform="translate(14.746 19.742)" fill="none" stroke="#89440b" stroke-linecap="round" stroke-linejoin="round" stroke-width="1"/>
            </g>
            <g transform="translate(51 4) scale(.75)">
                <rect width="4.743" height="7.122" x="3.4" y="15.7" fill="#e89849" stroke="#89440b" stroke-linecap="round" stroke-linejoin="round" stroke-width="1"/>
                <rect width="4.743" height="7.122" x="3.4" fill="#e89849" stroke="#89440b" stroke-linecap="round" stroke-linejoin="round" stroke-width="1"/>
                <path d="M11.124,11.642A5.361,5.361,0,1,1,5.762,6.28,5.362,5.362,0,0,1,11.124,11.642Z" fill="#e89849" stroke="#89440b" stroke-linecap="round" stroke-linejoin="round" stroke-width="1"/>
                <line y1="3.183" transform="translate(5.762 8.459)" fill="none" stroke="#89440b" stroke-linecap="round" stroke-linejoin="round" stroke-width="1"/>
                <line y1="1.313" x2="1.961" transform="translate(5.762 10.329)" fill="none" stroke="#89440b" stroke-linecap="round" stroke-linejoin="round" stroke-width="1"/>
            </g>
            <g transform="translate(83 4) scale(.75)">
                <path d="M13.848,22.9H8.884L7.123,7.094,5.361,22.9H.4V.4H13.848Z" fill="#e89849" stroke="#89440b" stroke-linecap="round" stroke-linejoin="round" stroke-width="1"/>
                <path d="M2.231,4.648h2.46V8.157L2.566,9.215.4,8.077" fill="none" stroke="#89440b" stroke-linecap="round" stroke-linejoin="round" stroke-width="1"/>
                <path d="M13.81,4.648H9.52V8.157l2.125,1.058" fill="none" stroke="#89440b" stroke-linecap="round" stroke-linejoin="round" stroke-width="1"/>
            </g>
            <rect width="110" height="26" fill="#000" opacity="0.5"/>
            <rect width="67" height="2" x="5" y="5" fill="#fff"/>
            <rect width="52" height="1" x="5" y="10" fill="#fff"/>
            <rect width="15" height="2" x="11" y="17" fill="#fff"/>
            <path d="M1.116-11.744H.5a1.827,1.827,0,0,0,.486,1.192,1.818,1.818,0,0,0,1.152.5v.594h.4v-.594a2.2,2.2,0,0,0,.638-.145,1.559,1.559,0,0,0,.5-.315A1.432,1.432,0,0,0,4-10.983a1.57,1.57,0,0,0,.12-.63A1.207,1.207,0,0,0,4-12.186a1.393,1.393,0,0,0-.308-.4,1.571,1.571,0,0,0-.377-.25,1.975,1.975,0,0,0-.341-.127l-.435-.116V-14.86a.964.964,0,0,1,.812.841h.616a2.074,2.074,0,0,0-.493-1,1.5,1.5,0,0,0-.935-.435v-.486h-.4v.478a1.794,1.794,0,0,0-.583.138,1.48,1.48,0,0,0-.471.315,1.48,1.48,0,0,0-.315.471,1.508,1.508,0,0,0-.116.6,1.508,1.508,0,0,0,.087.544.929.929,0,0,0,.272.38,1.7,1.7,0,0,0,.464.268,4.95,4.95,0,0,0,.663.207v1.92a1.3,1.3,0,0,1-.721-.355A1.079,1.079,0,0,1,1.116-11.744Zm1.42,1.123V-12.44q.2.058.37.127a1.1,1.1,0,0,1,.3.17.762.762,0,0,1,.2.243.765.765,0,0,1,.072.351,1.07,1.07,0,0,1-.069.4.742.742,0,0,1-.2.283.861.861,0,0,1-.3.17A1.483,1.483,0,0,1,2.536-10.621Zm-.4-4.261v1.7A2.683,2.683,0,0,1,1.8-13.3a1.123,1.123,0,0,1-.265-.156.613.613,0,0,1-.174-.225.768.768,0,0,1-.062-.322.791.791,0,0,1,.243-.627A1.031,1.031,0,0,1,2.138-14.882Z" transform="translate(4.5 31)" fill="#fff"/>
            <rect width="28" height="7" rx="2" x="77" y="14" fill="#3aadaa"/>
            <rect width="12" height="1" x="85" y="17" fill="#fff"/>
        </g>
    </defs> 
    <use href="#product_horizontal_card_2_item" y="5" x="5"/>
    <use href="#product_horizontal_card_2_item" y="5" x="125"/>
    <use href="#product_horizontal_card_2_item" y="39" x="5"/>
    <use href="#product_horizontal_card_2_item" y="39" x="125"/>
</svg>
