<svg xmlns="http://www.w3.org/2000/svg" xmlns:xlink="http://www.w3.org/1999/xlink" width="240" height="70" viewBox="0 0 240 70">
    <defs>
        <g id="product_image_only_shirt">
            <path d="M12.9.4H5.417L.4,6.928l2.86,3.683h1.7V22.9h15.86V10.611h1.726L25.4,6.928,20.383.4Z" fill="#e89849"/>
            <path d="M4.954,10.612h-1.7L.4,6.928,5.417.4H20.383L25.4,6.928l-2.86,3.684H20.814" fill="none" stroke="#89440b" stroke-linecap="round" stroke-linejoin="round" stroke-width="1"/>
            <path d="M20.814,8.526V22.9H4.954V5.437" fill="none" stroke="#89440b" stroke-linecap="round" stroke-linejoin="round" stroke-width="1"/>
            <path d="M16.718,1.648a4.032,4.032,0,0,1-7.283.839" fill="none" stroke="#89440b" stroke-linecap="round" stroke-linejoin="round" stroke-width="1"/>
            <line x1="2.465" transform="translate(18.349 18.115)" fill="none" stroke="#89440b" stroke-linecap="round" stroke-linejoin="round" stroke-width="1"/>
            <line x1="6.068" transform="translate(14.746 19.742)" fill="none" stroke="#89440b" stroke-linecap="round" stroke-linejoin="round" stroke-width="1"/>
        </g>
        <g id="product_image_only_watch">
            <rect width="4.743" height="7.122" x="3.4" y="15.7" fill="#e89849" stroke="#89440b" stroke-linecap="round" stroke-linejoin="round" stroke-width="1"/>
            <rect width="4.743" height="7.122" x="3.4" fill="#e89849" stroke="#89440b" stroke-linecap="round" stroke-linejoin="round" stroke-width="1"/>
            <path d="M11.124,11.642A5.361,5.361,0,1,1,5.762,6.28,5.362,5.362,0,0,1,11.124,11.642Z" fill="#e89849" stroke="#89440b" stroke-linecap="round" stroke-linejoin="round" stroke-width="1"/>
            <line y1="3.183" transform="translate(5.762 8.459)" fill="none" stroke="#89440b" stroke-linecap="round" stroke-linejoin="round" stroke-width="1"/>
            <line y1="1.313" x2="1.961" transform="translate(5.762 10.329)" fill="none" stroke="#89440b" stroke-linecap="round" stroke-linejoin="round" stroke-width="1"/>
        </g>
        <g id="product_image_only_pants">
            <path d="M13.848,22.9H8.884L7.123,7.094,5.361,22.9H.4V.4H13.848Z" fill="#e89849" stroke="#89440b" stroke-linecap="round" stroke-linejoin="round" stroke-width="1"/>
            <path d="M2.231,4.648h2.46V8.157L2.566,9.215.4,8.077" fill="none" stroke="#89440b" stroke-linecap="round" stroke-linejoin="round" stroke-width="1"/>
            <path d="M13.81,4.648H9.52V8.157l2.125,1.058" fill="none" stroke="#89440b" stroke-linecap="round" stroke-linejoin="round" stroke-width="1"/>
        </g>
        <rect id="product_image_only_item" width="50" height="60" fill="#9ccde4"/>
    </defs> 
    <use href="#product_image_only_item" y="5" x="5"/>
    <use href="#product_image_only_item" y="5" x="65"/>
    <use href="#product_image_only_item" y="5" x="125"/>
    <use href="#product_image_only_item" y="5" x="185"/>
    <use href="#product_image_only_shirt" y="23" x="17"/>
    <use href="#product_image_only_pants" y="23" x="83"/>
    <use href="#product_image_only_shirt" y="23" x="137"/>
    <use href="#product_image_only_watch" y="23" x="205"/>
</svg>
