<svg width="50" height="50" viewBox="0 0 50 50" xmlns="http://www.w3.org/2000/svg"><path d="M29 21v-9h-8v9h-9v8h9v9h8v-9h9v-8h-9Z" fill="#fff"/><path fill-rule="evenodd" clip-rule="evenodd" d="M12 29H4V16a4 4 0 0 1 4-4h13v17h-9Zm0 0v-4c0-2 2-4 4-4h5v8h-9Zm26-8h8v13a4 4 0 0 1-4 4H29V21h9Zm0 0v4c0 2-2 4-4 4h-5v-8h9Z" fill="#985184"/><path fill-rule="evenodd" clip-rule="evenodd" d="M21 12V4h13a4 4 0 0 1 4 4v13H21v-9Zm0 0h4c2 0 4 2 4 4v5h-8v-9Zm8 26v8H16a4 4 0 0 1-4-4V29h17v9Zm0 0h-4c-2 0-4-2-4-4v-5h8v9Z" fill="#FBB945"/></svg>
