<svg xmlns="http://www.w3.org/2000/svg" xmlns:xlink="http://www.w3.org/1999/xlink" preserveAspectRatio="xMidYMid" viewBox="0 -120 1680 1200">
    <g>
        <linearGradient id="lg-0.7532065671201398" x1="0" x2="1" y1="0" y2="0">
            <stop stop-color="#7c6576" offset="0"></stop>
            <stop stop-color="#3aadaa" offset="1"></stop>
        </linearGradient>
        <path d="M 1421.22 458 C 1421.22 619.45 1135.41 844.654 981.73 894.214 C 828.048 943.775 509.689 897.079 414.824 766.422 C 319.959 635.764 266.506 240.453 361.371 109.796 C 456.236 -20.8613 831.952 -40.716 985.633 8.8445 C 1139.31 58.405 1421.22 296.55 1421.22 458"
        fill="url(#lg-0.7532065671201398)" opacity="0.4">
            <animate attributeName="d" dur="30s" repeatCount="indefinite"
            keyTimes="0;0.3333333333333333;0.6666666666666666;1" calcmod="spline"
            keySplines="0.3 0.1 0.7 0.9;0.3 0.1 0.7 0.9;0.3 0.1 0.7 0.9" begin="-4s"
            values="M 1448 458 C 1448 644 1186 925 1010 982 C 834 1039 410 999 301 849 C 192 699 175 204 284 54 C 393 -96 826 -98 1002 -41 C 1178 16 1448 272 1448 458;M 1412 458 C 1412 611 1118 817 972 864 C 826 911 544 862 454 738 C 364 614 298 253 388 129 C 478 5 834 -21 980 26 C 1126 73 1412 305 1412 458;M 1433 458 C 1433 616 1099 744 949 793 C 799 842 557 859 464 731 C 371 603 344 293 437 165 C 530 37 800 70 950 119 C 1100 168 1433 300 1433 458;M 1448 458 C 1448 644 1186 925 1010 982 C 834 1039 410 999 301 849 C 192 699 175 204 284 54 C 393 -96 826 -98 1002 -41 C 1178 16 1448 272 1448 458">
            </animate>
        </path>
        <path d="M 1471.46 458 C 1471.46 639.135 1166.29 876.478 993.903 932.197 C 821.512 987.917 472.27 949.024 366.087 802.865 C 259.903 656.706 281.661 275.613 387.845 129.453 C 494.028 -16.7058 836.72 -118.54 1009.11 -62.8203 C 1181.5 -7.10055 1471.46 276.865 1471.46 458"
        fill="url(#lg-0.7532065671201398)" opacity="0.4">
            <animate attributeName="d" dur="30s" repeatCount="indefinite"
            keyTimes="0;0.3333333333333333;0.6666666666666666;1" calcmod="spline"
            keySplines="0.3 0.1 0.7 0.9;0.3 0.1 0.7 0.9;0.3 0.1 0.7 0.9" begin="-4s"
            values="M 1374 458 C 1374 625 1141 843 982 895 C 823 947 444 952 346 817 C 248 682 240 228 338 93 C 436 -42 833 -62 992 -10 C 1151 42 1374 291 1374 458;M 1505 458 C 1505 644 1175 888 998 945 C 821 1002 482 948 373 798 C 264 648 296 292 405 142 C 514 -8 838 -138 1015 -81 C 1192 -24 1505 272 1505 458;M 1328 458 C 1328 614 1129 841 980 889 C 831 937 496 901 404 775 C 312 649 371 310 463 184 C 555 58 810 44 959 92 C 1108 140 1328 302 1328 458;M 1374 458 C 1374 625 1141 843 982 895 C 823 947 444 952 346 817 C 248 682 240 228 338 93 C 436 -42 833 -62 992 -10 C 1151 42 1374 291 1374 458">
            </animate>
        </path>
        <path d="M 1395.49 458 C 1395.49 628.561 1157.79 886.183 996.232 938.952 C 834.671 991.72 453.986 949.903 353.45 811.855 C 252.913 673.806 326.467 295.685 426.004 157.637 C 525.54 19.5885 798.329 36.7961 959.889 89.5642 C 1121.45 142.332 1395.49 287.439 1395.49 458"
        fill="url(#lg-0.7532065671201398)" opacity="0.4">
            <animate attributeName="d" dur="30s" repeatCount="indefinite"
            keyTimes="0;0.3333333333333333;0.6666666666666666;1" calcmod="spline"
            keySplines="0.3 0.1 0.7 0.9;0.3 0.1 0.7 0.9;0.3 0.1 0.7 0.9" begin="-4s"
            values="M 1487 458 C 1487 636 1163 878 994 933 C 825 988 483 938 378 794 C 273 650 261 257 365 113 C 469 -31 808 -19 977 36 C 1146 91 1487 280 1487 458;M 1364 458 C 1364 626 1156 889 997 941 C 838 993 444 954 345 818 C 246 682 349 309 447 173 C 545 37 795 56 954 108 C 1113 160 1364 290 1364 458;M 1486 458 C 1486 629 1120 764 957 817 C 794 870 436 963 335 825 C 234 687 261 250 362 111 C 463 -28 804 14 967 67 C 1130 120 1486 287 1486 458;M 1487 458 C 1487 636 1163 878 994 933 C 825 988 483 938 378 794 C 273 650 261 257 365 113 C 469 -31 808 -19 977 36 C 1146 91 1487 280 1487 458">
            </animate>
        </path>
        <path d="M 1495.79 458 C 1495.79 635.806 1165.22 882.526 996.159 937.966 C 827.097 993.405 499.412 926.211 394.277 781.869 C 289.142 637.526 267.591 262.363 372.726 118.277 C 477.861 -25.81 822.599 -63.3985 991.661 -7.95902 C 1160.72 47.4805 1495.79 280.194 1495.79 458"
        fill="url(#lg-0.7532065671201398)" opacity="0.4">
            <animate attributeName="d" dur="30s" repeatCount="indefinite"
            keyTimes="0;0.3333333333333333;0.6666666666666666;1" calcmod="spline"
            keySplines="0.3 0.1 0.7 0.9;0.3 0.1 0.7 0.9;0.3 0.1 0.7 0.9" begin="-4s"
            values="M 1347 458 C 1347 612 1131 855 985 903 C 839 951 550 860 459 735 C 368 610 371 307 462 183 C 553 59 804 72 950 120 C 1096 168 1347 304 1347 458;M 1547 458 C 1547 644 1177 892 1000 950 C 823 1008 482 949 372 798 C 262 647 232 247 342 96 C 452 -55 829 -110 1006 -52 C 1183 6 1547 272 1547 458;M 1473 458 C 1473 642 1142 791 967 848 C 792 905 493 938 385 789 C 277 640 247 255 355 106 C 463 -43 835 -121 1010 -64 C 1185 -7 1473 274 1473 458;M 1347 458 C 1347 612 1131 855 985 903 C 839 951 550 860 459 735 C 368 610 371 307 462 183 C 553 59 804 72 950 120 C 1096 168 1347 304 1347 458">
            </animate>
        </path>
        <path d="M 1444.33 458 C 1444.33 637.135 1171.32 897.318 1000.93 952.782 C 830.536 1008.25 454.29 959.405 349.107 814.246 C 243.924 669.087 253.571 253.097 358.754 107.938 C 463.938 -37.2216 808.585 -26.3911 978.976 29.0726 C 1149.37 84.5363 1444.33 278.865 1444.33 458"
        fill="url(#lg-0.7532065671201398)" opacity="0.4">
            <animate attributeName="d" dur="30s" repeatCount="indefinite"
            keyTimes="0;0.3333333333333333;0.6666666666666666;1" calcmod="spline"
            keySplines="0.3 0.1 0.7 0.9;0.3 0.1 0.7 0.9;0.3 0.1 0.7 0.9" begin="-4s"
            values="M 1393 458 C 1393 623 1149 875 992 926 C 835 977 490 917 393 783 C 296 649 293 265 390 131 C 487 -3 819 -13 976 38 C 1133 89 1393 293 1393 458;M 1462 458 C 1462 642 1179 905 1004 962 C 829 1019 442 974 334 825 C 226 676 240 249 348 100 C 456 -49 805 -31 980 26 C 1155 83 1462 274 1462 458;M 1439 458 C 1439 611 1121 828 975 875 C 829 922 480 909 390 785 C 300 661 386 317 476 193 C 566 69 817 33 963 80 C 1109 127 1439 305 1439 458;M 1393 458 C 1393 623 1149 875 992 926 C 835 977 490 917 393 783 C 296 649 293 265 390 131 C 487 -3 819 -13 976 38 C 1133 89 1393 293 1393 458">
            </animate>
        </path>
    </g>
</svg>
