<svg width="50" height="50" viewBox="0 0 50 50" xmlns="http://www.w3.org/2000/svg"><path d="M4 26.222C4 27.204 4.796 28 5.778 28H16c6.627 0 12-5.373 12-12S22.627 4 16 4 4 9.373 4 16v10.222Z" fill="#FBB945"/><path d="M46 5.778C46 4.796 45.204 4 44.222 4H34c-6.627 0-12 5.373-12 12s5.373 12 12 12 12-5.373 12-12V5.778Z" fill="#985184"/><path d="M25 23.937c1.867-2.115 3-4.894 3-7.937s-1.133-5.822-3-7.938A11.954 11.954 0 0 0 22 16c0 3.043 1.133 5.822 3 7.937Z" fill="#953B24"/><path d="M4 38.5C4 32.701 8.701 28 14.5 28S25 32.701 25 38.5V46H4v-7.5Z" fill="#FBB945"/><path d="M25 38.5C25 32.701 29.701 28 35.5 28S46 32.701 46 38.5V46H25v-7.5Z" fill="#985184"/></svg>
