<svg width="72" height="42" viewBox="0 0 72 42" fill="none" xmlns="http://www.w3.org/2000/svg"><rect x=".5" y=".5" width="71" height="41" rx="3.5" stroke="#C7CBD1"/><rect x="3" y="3" width="12.375" height="8.229" rx="1.5" fill="#DADCE0"/><rect x="16.406" y="3" width="12.375" height="8.229" rx="1.5" fill="#DADCE0"/><rect x="29.813" y="3" width="12.375" height="8.229" rx="1.5" fill="#DADCE0"/><rect x="43.219" y="3" width="12.375" height="8.229" rx="1.5" fill="#DADCE0"/><rect x="56.625" y="3" width="12.375" height="8.229" rx="1.5" fill="#DADCE0"/><rect x="3" y="12.258" width="12.375" height="8.229" rx="1.5" fill="#DADCE0"/><rect x="16.406" y="12.258" width="12.375" height="8.229" rx="1.5" fill="#DADCE0"/><rect x="29.813" y="12.258" width="12.375" height="8.229" rx="1.5" fill="#DADCE0"/><rect x="43.219" y="12.258" width="12.375" height="8.229" rx="1.5" fill="#DADCE0"/><rect x="56.625" y="12.258" width="12.375" height="8.229" rx="1.5" fill="#DADCE0"/><rect x="3" y="21.514" width="12.375" height="8.229" rx="1.5" fill="#DADCE0"/><rect x="16.406" y="21.514" width="12.375" height="8.229" rx="1.5" fill="#DADCE0"/><rect x="29.813" y="21.514" width="12.375" height="8.229" rx="1.5" fill="#DADCE0"/><rect x="43.219" y="21.514" width="12.375" height="8.229" rx="1.5" fill="#DADCE0"/><rect x="56.625" y="21.514" width="12.375" height="8.229" rx="1.5" fill="#DADCE0"/><rect x="3" y="30.771" width="12.375" height="8.229" rx="1.5" fill="#DADCE0"/><rect x="16.406" y="30.771" width="12.375" height="8.229" rx="1.5" fill="#DADCE0"/><rect x="29.813" y="30.771" width="12.375" height="8.229" rx="1.5" fill="#DADCE0"/><rect x="43.219" y="30.771" width="12.375" height="8.229" rx="1.5" fill="#DADCE0"/><rect x="56.625" y="30.771" width="12.375" height="8.229" rx="1.5" fill="#DADCE0"/></svg>
