<?xml version="1.0" encoding="utf-8"?>
<!-- Generator: Adobe Illustrator 16.0.0, SVG Export Plug-In . SVG Version: 6.00 Build 0)  -->
<!DOCTYPE svg PUBLIC "-//W3C//DTD SVG 1.1//EN" "http://www.w3.org/Graphics/SVG/1.1/DTD/svg11.dtd">
<svg version="1.1" id="Layer_1" xmlns="http://www.w3.org/2000/svg" xmlns:xlink="http://www.w3.org/1999/xlink" x="0px" y="0px"
	 width="15px" height="15px" viewBox="0 0 15 15" enable-background="new 0 0 15 15" xml:space="preserve">
<g>
	<path fill="#666766" d="M12.385,5.578L7.65,10.313l-0.89,0.888c-0.119,0.119-0.281,0.184-0.444,0.184
		c-0.162,0-0.328-0.064-0.445-0.184l-0.89-0.888L2.615,7.944C2.497,7.828,2.432,7.664,2.432,7.5c0-0.163,0.065-0.325,0.183-0.444
		l0.89-0.89c0.118-0.117,0.281-0.183,0.444-0.183c0.164,0,0.327,0.065,0.445,0.183l1.923,1.929l4.289-4.296
		c0.119-0.118,0.282-0.183,0.445-0.183c0.164,0,0.327,0.065,0.445,0.183l0.889,0.89c0.118,0.118,0.184,0.281,0.184,0.445
		C12.568,5.296,12.503,5.46,12.385,5.578z"/>
</g>
</svg>

