<svg width="700" height="1948" viewBox="0 0 700 1948" fill="none" xmlns="http://www.w3.org/2000/svg" data-vsvg="002" class="theme_artists_svg_preview">
    <defs>
        <pattern id="theme_artists_library_image_05_id" width="1" height="1" patternunits="objectBoundingBox">
            <image width="390" height="75" preserveAspectRatio="xMidYMid slice" href="#library_image_05_url"></image>
        </pattern>
        <pattern id="theme_artists_library_image_13_id" width="1" height="1" patternunits="objectBoundingBox">
            <image width="125" height="178" preserveAspectRatio="xMidYMid slice" href="#library_image_13_url"></image>
        </pattern>
        <pattern id="theme_artists_library_image_10_id" width="1" height="1" patternunits="objectBoundingBox">
            <image width="170" height="178" preserveAspectRatio="xMidYMid slice" href="#library_image_10_url"></image>
        </pattern>
        <pattern id="theme_artists_library_image_03_id" width="1" height="1" patternunits="objectBoundingBox">
            <image width="170" height="75" preserveAspectRatio="xMidYMid slice" href="#library_image_03_url"></image>
        </pattern>
        <pattern id="theme_artists_library_image_02_id" width="1" height="1" patternunits="objectBoundingBox">
            <image width="174" height="172" preserveAspectRatio="xMidYMid slice" href="#library_image_02_url"></image>
        </pattern>
        <pattern id="theme_artists_s_carousel_default_image_2_id" width="1" height="1" patternunits="objectBoundingBox">
            <image width="568" height="222" preserveAspectRatio="xMidYMid slice" href="#s_carousel_default_image_2_url"></image>
        </pattern>
        <pattern id="theme_artists_library_image_16_id" width="1" height="1" patternunits="objectBoundingBox">
            <image width="185" height="270" preserveAspectRatio="xMidYMid slice" href="#library_image_16_url"></image>
        </pattern>
        <pattern id="theme_artists_library_image_14_id" width="1" height="1" patternunits="objectBoundingBox">
            <image width="185" height="120" preserveAspectRatio="xMidYMid slice" href="#library_image_14_url"></image>
        </pattern>
        <pattern id="theme_artists_library_image_05_2_id" width="1" height="1" patternunits="objectBoundingBox">
            <image width="186" height="120" preserveAspectRatio="xMidYMid slice" href="#library_image_05_url"></image>
        </pattern>
        <pattern id="theme_artists_library_image_13_2_id" width="1" height="1" patternunits="objectBoundingBox">
            <image width="186" height="270" preserveAspectRatio="xMidYMid slice" href="#library_image_13_url"></image>
        </pattern>
        <pattern id="theme_artists_library_image_10_2_id" width="1" height="1" patternunits="objectBoundingBox">
            <image width="185" height="270" preserveAspectRatio="xMidYMid slice" href="#library_image_10_url"></image>
        </pattern>
        <pattern id="theme_artists_library_image_03_2_id" width="1" height="1" patternunits="objectBoundingBox">
            <image width="185" height="120" preserveAspectRatio="xMidYMid slice" href="#library_image_03_url"></image>
        </pattern>
        <pattern id="theme_artists_s_image_text_default_image_id" width="1" height="1" patternunits="objectBoundingBox">
            <image width="164" height="188" preserveAspectRatio="xMidYMid slice" href="#s_image_text_default_image_url"></image>
        </pattern>
        <filter id="filter_readability_theme_artists">
            <feColorMatrix in="SourceGraphic" type="saturate" values="0"></feColorMatrix>
            <feComponentTransfer>
                <feFuncR type="table" tableValues="1 0"></feFuncR>
                <feFuncG type="table" tableValues="1 0"></feFuncG>
                <feFuncB type="table" tableValues="1 0"></feFuncB>
            </feComponentTransfer>
            <feComponentTransfer>
                <feFuncR type="linear" slope="10000" intercept="-4999.5"></feFuncR>
                <feFuncG type="linear" slope="10000" intercept="-4999.5"></feFuncG>
                <feFuncB type="linear" slope="10000" intercept="-4999.5"></feFuncB>
            </feComponentTransfer>
        </filter>
    </defs>
    <g clip-path="url(#clip0_433_146)" class="theme_artists">
        <rect width="700" height="1948" fill="#FFFFFF"></rect>
        <rect width="700" height="1948" fill="#383E45"></rect>
        <g class="svgc_menu">
            <path d="M700 0H0V65H700V0Z" fill="#MENU_COLOR" class="svgc_menu_bg"></path>
            <path d="M634 12H588V27H634V12Z" fill="#3AADAA"></path>
            <path d="M583 12H537V27H583V12Z" fill="#MENU_COLOR" fill-opacity="0.1" class="svgc_invert" filter="url(#filter_readability_theme_artists)"></path>
            <path d="M112 12H66V27H112V12Z" fill="#MENU_COLOR" fill-opacity="0.1" class="svgc_invert" filter="url(#filter_readability_theme_artists)"></path>
            <path d="M456 41H419V48H456V41Z" fill="#MENU_COLOR" fill-opacity="0.3" class="svgc_invert" filter="url(#filter_readability_theme_artists)"></path>
            <path d="M398 41H361V48H398V41Z" fill="#MENU_COLOR" fill-opacity="0.3" class="svgc_invert" filter="url(#filter_readability_theme_artists)"></path>
            <path d="M340 41H303V48H340V41Z" fill="#MENU_COLOR" fill-opacity="0.3" class="svgc_invert" filter="url(#filter_readability_theme_artists)"></path>
            <path d="M282 41H245V48H282V41Z" fill="#MENU_COLOR" class="svgc_invert" filter="url(#filter_readability_theme_artists)"></path>
            <path d="M339.586 24.8472V23.3262H335.845V16.1202H334V24.8472H339.586ZM344.266 24.9672C345.036 24.9672 345.729 24.7912 346.346 24.4402C346.965 24.0902 347.453 23.5802 347.813 22.9122C348.173 22.2452 348.352 21.4352 348.352 20.4832C348.352 19.5322 348.172 18.7222 347.812 18.0542C347.453 17.3872 346.965 16.8782 346.347 16.5272C345.729 16.1762 345.035 16.0002 344.265 16.0002C343.49 16.0002 342.794 16.1762 342.177 16.5272C341.561 16.8772 341.073 17.3872 340.716 18.0542C340.358 18.7222 340.179 19.5322 340.179 20.4842C340.179 21.4322 340.358 22.2402 340.716 22.9082C341.046 23.5477 341.553 24.0788 342.177 24.4382C342.794 24.7902 343.49 24.9662 344.265 24.9662L344.266 24.9672ZM344.266 23.3342C343.853 23.3433 343.446 23.2291 343.098 23.0062C342.765 22.7872 342.508 22.4662 342.324 22.0432C342.141 21.6202 342.049 21.1002 342.049 20.4832C342.049 19.8672 342.141 19.3472 342.324 18.9232C342.507 18.5002 342.765 18.1792 343.098 17.9612C343.446 17.7381 343.852 17.6239 344.265 17.6332C344.711 17.6332 345.1 17.7422 345.433 17.9612C345.765 18.1792 346.023 18.5012 346.206 18.9242C346.39 19.3472 346.481 19.8672 346.481 20.4842C346.481 21.1002 346.39 21.6202 346.206 22.0432C346.023 22.4662 345.766 22.7872 345.433 23.0062C345.085 23.2294 344.679 23.3436 344.266 23.3342ZM353.543 24.9662C354.276 24.9662 354.927 24.8182 355.495 24.5212C356.053 24.234 356.517 23.7934 356.833 23.2512C357.157 22.7012 357.319 22.0432 357.319 21.2762V20.1762H353.667V21.5662H355.539L355.535 21.6922C355.518 21.9292 355.465 22.1442 355.378 22.3372L355.305 22.4772C355.146 22.7514 354.908 22.9719 354.623 23.1102C354.327 23.2602 353.969 23.3342 353.552 23.3342C353.092 23.3342 352.692 23.2232 352.354 23.0002C352.016 22.7772 351.754 22.4522 351.57 22.0262C351.386 21.6002 351.293 21.0832 351.293 20.4752C351.293 19.8672 351.387 19.3522 351.574 18.9302C351.762 18.5082 352.024 18.1862 352.361 17.9652C352.711 17.74 353.119 17.6244 353.535 17.6332C353.773 17.6332 353.991 17.6632 354.189 17.7222C354.386 17.7822 354.562 17.8682 354.717 17.9802C354.872 18.0922 355.003 18.2282 355.111 18.3892C355.219 18.5492 355.303 18.7332 355.363 18.9412H357.238C357.183 18.5226 357.045 18.1191 356.833 17.7542C356.624 17.3951 356.348 17.0791 356.021 16.8232C355.681 16.5568 355.297 16.3514 354.886 16.2162C354.441 16.0693 353.974 15.9964 353.505 16.0002C352.955 15.9952 352.409 16.0981 351.898 16.3032C351.407 16.5023 350.964 16.8028 350.598 17.1852C350.214 17.5908 349.919 18.0721 349.731 18.5982C349.525 19.1532 349.422 19.7842 349.422 20.4922C349.422 21.4122 349.595 22.2072 349.94 22.8762C350.262 23.521 350.765 24.0584 351.387 24.4232C352.007 24.7852 352.725 24.9662 353.543 24.9662ZM362.501 24.9662C363.271 24.9662 363.964 24.7912 364.582 24.4402C365.2 24.0902 365.689 23.5802 366.048 22.9122C366.408 22.2452 366.588 21.4352 366.588 20.4832C366.588 19.5322 366.408 18.7222 366.048 18.0542C365.688 17.3872 365.2 16.8782 364.582 16.5272C363.964 16.1762 363.271 16.0002 362.501 16.0002C361.725 16.0002 361.029 16.1762 360.413 16.5272C359.796 16.8772 359.309 17.3872 358.951 18.0542C358.593 18.7222 358.414 19.5322 358.414 20.4842C358.414 21.4322 358.593 22.2402 358.951 22.9082C359.309 23.5762 359.796 24.0862 360.413 24.4382C361.029 24.7902 361.725 24.9662 362.501 24.9662ZM362.501 23.3342C362.055 23.3342 361.665 23.2242 361.333 23.0062C361.001 22.7872 360.743 22.4662 360.56 22.0432C360.376 21.6202 360.285 21.1002 360.285 20.4832C360.285 19.8672 360.376 19.3472 360.56 18.9232C360.743 18.5002 361 18.1792 361.333 17.9612C361.681 17.7379 362.088 17.6237 362.501 17.6332C362.947 17.6332 363.336 17.7422 363.668 17.9612C364.001 18.1792 364.258 18.5012 364.442 18.9242C364.625 19.3472 364.717 19.8672 364.717 20.4842C364.717 21.1002 364.625 21.6202 364.442 22.0432C364.258 22.4662 364.001 22.7872 363.668 23.0062C363.32 23.2292 362.914 23.3434 362.501 23.3342Z" fill="#MENU_COLOR" class="svgc_invert" filter="url(#filter_readability_theme_artists)"></path>
        </g>
        <g class="s_sidegrid">
            <rect y="65" width="700" height="325" fill="#383E45"></rect>
            <path d="M568 219.208H428V221.208H568V219.208Z" fill="#383E45" fill-opacity="0.4" class="svgc_invert" filter="url(#filter_readability_theme_artists)"></path>
            <path d="M558.987 224.208H428V226.208H558.987V224.208Z" fill="#383E45" fill-opacity="0.4" class="svgc_invert" filter="url(#filter_readability_theme_artists)"></path>
            <path d="M427.54 134.8H431.356L433.12 154.168H433.192L435.064 134.8H439.384L441.256 154.168H441.328L443.092 134.8H446.512L443.956 160H439.024L437.224 143.008H437.152L435.352 160H430.096L427.54 134.8ZM448.515 134.8H459.315V138.4H452.475V145.06H457.911V148.66H452.475V156.4H459.315V160H448.515V134.8ZM461.593 134.8H465.553V156.4H472.069V160H461.593V134.8ZM479.408 160.36C477.512 160.36 476.06 159.82 475.052 158.74C474.068 157.66 473.576 156.136 473.576 154.168V140.632C473.576 138.664 474.068 137.14 475.052 136.06C476.06 134.98 477.512 134.44 479.408 134.44C481.304 134.44 482.744 134.98 483.728 136.06C484.736 137.14 485.24 138.664 485.24 140.632V143.296H481.496V140.38C481.496 138.82 480.836 138.04 479.516 138.04C478.196 138.04 477.536 138.82 477.536 140.38V154.456C477.536 155.992 478.196 156.76 479.516 156.76C480.836 156.76 481.496 155.992 481.496 154.456V150.604H485.24V154.168C485.24 156.136 484.736 157.66 483.728 158.74C482.744 159.82 481.304 160.36 479.408 160.36ZM493.403 160.36C491.459 160.36 489.971 159.808 488.939 158.704C487.907 157.6 487.391 156.04 487.391 154.024V140.776C487.391 138.76 487.907 137.2 488.939 136.096C489.971 134.992 491.459 134.44 493.403 134.44C495.347 134.44 496.835 134.992 497.867 136.096C498.899 137.2 499.415 138.76 499.415 140.776V154.024C499.415 156.04 498.899 157.6 497.867 158.704C496.835 159.808 495.347 160.36 493.403 160.36ZM493.403 156.76C494.771 156.76 495.455 155.932 495.455 154.276V140.524C495.455 138.868 494.771 138.04 493.403 138.04C492.035 138.04 491.351 138.868 491.351 140.524V154.276C491.351 155.932 492.035 156.76 493.403 156.76ZM502.093 134.8H507.745L510.265 152.836H510.337L512.857 134.8H518.509V160H514.765V140.92H514.693L511.813 160H508.501L505.621 140.92H505.549V160H502.093V134.8ZM521.464 134.8H532.264V138.4H525.424V145.06H530.86V148.66H525.424V156.4H532.264V160H521.464V134.8ZM428.476 177.8H434.128L436.648 195.836H436.72L439.24 177.8H444.892V203H441.148V183.92H441.076L438.196 203H434.884L432.004 183.92H431.932V203H428.476V177.8ZM447.847 177.8H458.647V181.4H451.807V188.06H457.243V191.66H451.807V199.4H458.647V203H447.847V177.8ZM466.144 203.36C464.224 203.36 462.772 202.82 461.788 201.74C460.804 200.636 460.312 199.064 460.312 197.024V195.584H464.056V197.312C464.056 198.944 464.74 199.76 466.108 199.76C466.78 199.76 467.284 199.568 467.62 199.184C467.98 198.776 468.16 198.128 468.16 197.24C468.16 196.184 467.92 195.26 467.44 194.468C466.96 193.652 466.072 192.68 464.776 191.552C463.144 190.112 462.004 188.816 461.356 187.664C460.708 186.488 460.384 185.168 460.384 183.704C460.384 181.712 460.888 180.176 461.896 179.096C462.904 177.992 464.368 177.44 466.288 177.44C468.184 177.44 469.612 177.992 470.572 179.096C471.556 180.176 472.048 181.736 472.048 183.776V184.82H468.304V183.524C468.304 182.66 468.136 182.036 467.8 181.652C467.464 181.244 466.972 181.04 466.324 181.04C465.004 181.04 464.344 181.844 464.344 183.452C464.344 184.364 464.584 185.216 465.064 186.008C465.568 186.8 466.468 187.76 467.764 188.888C469.42 190.328 470.56 191.636 471.184 192.812C471.808 193.988 472.12 195.368 472.12 196.952C472.12 199.016 471.604 200.6 470.572 201.704C469.564 202.808 468.088 203.36 466.144 203.36ZM479.538 203.36C477.618 203.36 476.166 202.82 475.182 201.74C474.198 200.636 473.706 199.064 473.706 197.024V195.584H477.45V197.312C477.45 198.944 478.134 199.76 479.502 199.76C480.174 199.76 480.678 199.568 481.014 199.184C481.374 198.776 481.554 198.128 481.554 197.24C481.554 196.184 481.314 195.26 480.834 194.468C480.354 193.652 479.466 192.68 478.17 191.552C476.538 190.112 475.398 188.816 474.75 187.664C474.102 186.488 473.778 185.168 473.778 183.704C473.778 181.712 474.282 180.176 475.29 179.096C476.298 177.992 477.762 177.44 479.682 177.44C481.578 177.44 483.006 177.992 483.966 179.096C484.95 180.176 485.442 181.736 485.442 183.776V184.82H481.698V183.524C481.698 182.66 481.53 182.036 481.194 181.652C480.858 181.244 480.366 181.04 479.718 181.04C478.398 181.04 477.738 181.844 477.738 183.452C477.738 184.364 477.978 185.216 478.458 186.008C478.962 186.8 479.862 187.76 481.158 188.888C482.814 190.328 483.954 191.636 484.578 192.812C485.202 193.988 485.514 195.368 485.514 196.952C485.514 199.016 484.998 200.6 483.966 201.704C482.958 202.808 481.482 203.36 479.538 203.36ZM490.739 177.8H496.103L500.207 203H496.247L495.527 197.996V198.068H491.027L490.307 203H486.635L490.739 177.8ZM495.059 194.648L493.295 182.192H493.223L491.495 194.648H495.059ZM507.674 203.36C505.754 203.36 504.29 202.82 503.282 201.74C502.274 200.636 501.77 199.064 501.77 197.024V183.776C501.77 181.736 502.274 180.176 503.282 179.096C504.29 177.992 505.754 177.44 507.674 177.44C509.594 177.44 511.058 177.992 512.066 179.096C513.074 180.176 513.578 181.736 513.578 183.776V185.936H509.834V183.524C509.834 181.868 509.15 181.04 507.782 181.04C506.414 181.04 505.73 181.868 505.73 183.524V197.312C505.73 198.944 506.414 199.76 507.782 199.76C509.15 199.76 509.834 198.944 509.834 197.312V192.38H507.854V188.78H513.578V197.024C513.578 199.064 513.074 200.636 512.066 201.74C511.058 202.82 509.594 203.36 507.674 203.36ZM516.121 177.8H526.921V181.4H520.081V188.06H525.517V191.66H520.081V199.4H526.921V203H516.121V177.8Z" fill="#383E45" class="svgc_invert" filter="url(#filter_readability_theme_artists)"></path>
            <rect x="244" y="283" width="390" height="75" fill="url(#theme_artists_library_image_05_id)" class="img_reference_library_image_05"></rect>
            <rect x="244" y="97" width="125" height="178" fill="url(#theme_artists_library_image_13_id)" class="img_reference_library_image_13"></rect>
            <rect x="66" y="180" width="170" height="178" fill="url(#theme_artists_library_image_10_id)" class="img_reference_library_image_10"></rect>
            <rect x="66" y="97" width="170" height="75" fill="url(#theme_artists_library_image_03_id)" class="img_reference_library_image_03"></rect>
        </g>
        <g class="s_product_catalog">
            <rect y="390" width="700" height="221" fill="#383E45"></rect>
            <g>
                <path d="M619.495 475H385V477H619.495V475Z" fill="#383E45" fill-opacity="0.4" class="svgc_invert" filter="url(#filter_readability_theme_artists)"></path>
                <path d="M600.155 462H493.786V463H600.155V462Z" fill="#383E45" fill-opacity="0.4" class="svgc_invert" filter="url(#filter_readability_theme_artists)"></path>
                <path d="M484.117 460H385V465H484.117V460Z" fill="#383E45" class="svgc_invert" filter="url(#filter_readability_theme_artists)"></path>
                <path d="M634 460H609.825V465H634V460Z" fill="#383E45" class="svgc_invert" filter="url(#filter_readability_theme_artists)"></path>
                <path d="M619.495 526H385V528H619.495V526Z" fill="#383E45" fill-opacity="0.4" class="svgc_invert" filter="url(#filter_readability_theme_artists)"></path>
                <path d="M600.155 513H493.786V514H600.155V513Z" fill="#383E45" fill-opacity="0.4" class="svgc_invert" filter="url(#filter_readability_theme_artists)"></path>
                <path d="M484.117 511H385V516H484.117V511Z" fill="#383E45" class="svgc_invert" filter="url(#filter_readability_theme_artists)"></path>
                <path d="M634 511H609.825V516H634V511Z" fill="#383E45" class="svgc_invert" filter="url(#filter_readability_theme_artists)"></path>
                <path d="M619.495 577H385V579H619.495V577Z" fill="#383E45" fill-opacity="0.4" class="svgc_invert" filter="url(#filter_readability_theme_artists)"></path>
                <path d="M600.155 564H493.786V565H600.155V564Z" fill="#383E45" fill-opacity="0.4" class="svgc_invert" filter="url(#filter_readability_theme_artists)"></path>
                <path d="M484.117 562H385V567H484.117V562Z" fill="#383E45" class="svgc_invert" filter="url(#filter_readability_theme_artists)"></path>
                <path d="M634 562H609.825V567H634V562Z" fill="#383E45" class="svgc_invert" filter="url(#filter_readability_theme_artists)"></path>
            </g>
            <g>
                <path d="M300.495 429H66V431H300.495V429Z" fill="#383E45" fill-opacity="0.4" class="svgc_invert" filter="url(#filter_readability_theme_artists)"></path>
                <path d="M283.573 434H66V436H283.573V434Z" fill="#383E45" fill-opacity="0.4" class="svgc_invert" filter="url(#filter_readability_theme_artists)"></path>
                <path d="M300.495 475H66V477H300.495V475Z" fill="#383E45" fill-opacity="0.4" class="svgc_invert" filter="url(#filter_readability_theme_artists)"></path>
                <path d="M281.155 462H174.786V463H281.155V462Z" fill="#383E45" fill-opacity="0.4" class="svgc_invert" filter="url(#filter_readability_theme_artists)"></path>
                <path d="M165.117 460H66V465H165.117V460Z" fill="#383E45" class="svgc_invert" filter="url(#filter_readability_theme_artists)"></path>
                <path d="M315 460H290.825V465H315V460Z" fill="#383E45" class="svgc_invert" filter="url(#filter_readability_theme_artists)"></path>
                <path d="M300.495 526H66V528H300.495V526Z" fill="#383E45" fill-opacity="0.4" class="svgc_invert" filter="url(#filter_readability_theme_artists)"></path>
                <path d="M281.155 513H174.786V514H281.155V513Z" fill="#383E45" fill-opacity="0.4" class="svgc_invert" filter="url(#filter_readability_theme_artists)"></path>
                <path d="M165.117 511H66V516H165.117V511Z" fill="#383E45" class="svgc_invert" filter="url(#filter_readability_theme_artists)"></path>
                <path d="M315 511H290.825V516H315V511Z" fill="#383E45" class="svgc_invert" filter="url(#filter_readability_theme_artists)"></path>
                <path d="M300.495 577H66V579H300.495V577Z" fill="#383E45" fill-opacity="0.4" class="svgc_invert" filter="url(#filter_readability_theme_artists)"></path>
                <path d="M281.155 564H174.786V565H281.155V564Z" fill="#383E45" fill-opacity="0.4" class="svgc_invert" filter="url(#filter_readability_theme_artists)"></path>
                <path d="M165.117 562H66V567H165.117V562Z" fill="#383E45" class="svgc_invert" filter="url(#filter_readability_theme_artists)"></path>
                <path d="M315 562H290.825V567H315V562Z" fill="#383E45" class="svgc_invert" filter="url(#filter_readability_theme_artists)"></path>
                <path d="M67.23 398H76.23V401H70.53V406.55H75.06V409.55H70.53V416H76.23V419H67.23V398ZM78.1284 398H82.2684L85.4784 410.57H85.5384V398H88.4784V419H85.0884L81.1284 403.67H81.0684V419H78.1284V398ZM93.5112 401H90.0612V398H100.261V401H96.8112V419H93.5112V401ZM101.859 398H106.749C108.449 398 109.689 398.4 110.469 399.2C111.249 399.98 111.639 401.19 111.639 402.83V404.12C111.639 406.3 110.919 407.68 109.479 408.26V408.32C110.279 408.56 110.839 409.05 111.159 409.79C111.499 410.53 111.669 411.52 111.669 412.76V416.45C111.669 417.05 111.689 417.54 111.729 417.92C111.769 418.28 111.869 418.64 112.029 419H108.669C108.549 418.66 108.469 418.34 108.429 418.04C108.389 417.74 108.369 417.2 108.369 416.42V412.58C108.369 411.62 108.209 410.95 107.889 410.57C107.589 410.19 107.059 410 106.299 410H105.159V419H101.859V398ZM106.359 407C107.019 407 107.509 406.83 107.829 406.49C108.169 406.15 108.339 405.58 108.339 404.78V403.16C108.339 402.4 108.199 401.85 107.919 401.51C107.659 401.17 107.239 401 106.659 401H105.159V407H106.359ZM116.52 410.06L112.53 398H116.04L118.29 405.71H118.35L120.6 398H123.81L119.82 410.06V419H116.52V410.06ZM132.681 401H129.231V398H139.431V401H135.981V419H132.681V401ZM141.029 398H144.329V419H141.029V398ZM149.38 401H145.93V398H156.13V401H152.68V419H149.38V401ZM157.728 398H161.028V416H166.458V419H157.728V398ZM168.041 398H177.041V401H171.341V406.55H175.871V409.55H171.341V416H177.041V419H168.041V398Z" fill="#383E45" class="svgc_invert" filter="url(#filter_readability_theme_artists)"></path>
            </g>
        </g>
        <g class="s_cta_box">
            <path d="M700 611H0V847H700V611Z" fill="#3AADAA"></path>
            <path d="M71.52 708.3C69.92 708.3 68.71 707.85 67.89 706.95C67.07 706.03 66.66 704.72 66.66 703.02V701.82H69.78V703.26C69.78 704.62 70.35 705.3 71.49 705.3C72.05 705.3 72.47 705.14 72.75 704.82C73.05 704.48 73.2 703.94 73.2 703.2C73.2 702.32 73 701.55 72.6 700.89C72.2 700.21 71.46 699.4 70.38 698.46C69.02 697.26 68.07 696.18 67.53 695.22C66.99 694.24 66.72 693.14 66.72 691.92C66.72 690.26 67.14 688.98 67.98 688.08C68.82 687.16 70.04 686.7 71.64 686.7C73.22 686.7 74.41 687.16 75.21 688.08C76.03 688.98 76.44 690.28 76.44 691.98V692.85H73.32V691.77C73.32 691.05 73.18 690.53 72.9 690.21C72.62 689.87 72.21 689.7 71.67 689.7C70.57 689.7 70.02 690.37 70.02 691.71C70.02 692.47 70.22 693.18 70.62 693.84C71.04 694.5 71.79 695.3 72.87 696.24C74.25 697.44 75.2 698.53 75.72 699.51C76.24 700.49 76.5 701.64 76.5 702.96C76.5 704.68 76.07 706 75.21 706.92C74.37 707.84 73.14 708.3 71.52 708.3ZM78.3921 687H87.3921V690H81.6921V695.55H86.2221V698.55H81.6921V705H87.3921V708H78.3921V687ZM93.9405 708.3C92.3605 708.3 91.1505 707.85 90.3105 706.95C89.4905 706.05 89.0805 704.78 89.0805 703.14V691.86C89.0805 690.22 89.4905 688.95 90.3105 688.05C91.1505 687.15 92.3605 686.7 93.9405 686.7C95.5205 686.7 96.7205 687.15 97.5405 688.05C98.3805 688.95 98.8005 690.22 98.8005 691.86V694.08H95.6805V691.65C95.6805 690.35 95.1305 689.7 94.0305 689.7C92.9305 689.7 92.3805 690.35 92.3805 691.65V703.38C92.3805 704.66 92.9305 705.3 94.0305 705.3C95.1305 705.3 95.6805 704.66 95.6805 703.38V700.17H98.8005V703.14C98.8005 704.78 98.3805 706.05 97.5405 706.95C96.7205 707.85 95.5205 708.3 93.9405 708.3ZM103.355 690H99.9049V687H110.105V690H106.655V708H103.355V690ZM111.703 687H115.003V708H111.703V687ZM122.244 708.3C120.624 708.3 119.384 707.84 118.524 706.92C117.664 706 117.234 704.7 117.234 703.02V691.98C117.234 690.3 117.664 689 118.524 688.08C119.384 687.16 120.624 686.7 122.244 686.7C123.864 686.7 125.104 687.16 125.964 688.08C126.824 689 127.254 690.3 127.254 691.98V703.02C127.254 704.7 126.824 706 125.964 706.92C125.104 707.84 123.864 708.3 122.244 708.3ZM122.244 705.3C123.384 705.3 123.954 704.61 123.954 703.23V691.77C123.954 690.39 123.384 689.7 122.244 689.7C121.104 689.7 120.534 690.39 120.534 691.77V703.23C120.534 704.61 121.104 705.3 122.244 705.3ZM129.486 687H133.626L136.836 699.57H136.896V687H139.836V708H136.446L132.486 692.67H132.426V708H129.486V687ZM149.673 690H146.223V687H156.423V690H152.973V708H149.673V690ZM158.021 687H161.321V708H158.021V687ZM166.373 690H162.923V687H173.123V690H169.673V708H166.373V690ZM174.72 687H178.02V705H183.45V708H174.72V687ZM185.033 687H194.033V690H188.333V695.55H192.863V698.55H188.333V705H194.033V708H185.033V687Z" fill="#383E45" class="svgc_invert" filter="url(#filter_readability_theme_artists)"></path>
            <path d="M224 722H66V724H224V722Z" fill="#3AADAA" fill-opacity="0.4" class="svgc_invert" filter="url(#filter_readability_theme_artists)"></path>
            <path d="M214 727H66V729H214V727Z" fill="#3AADAA" fill-opacity="0.4" class="svgc_invert" filter="url(#filter_readability_theme_artists)"></path>
            <rect x="66" y="750" width="94" height="28" fill="#FFFFFF"></rect>
            <path d="M87.7227 759.842H90.3643C90.96 759.842 91.4141 759.887 91.7266 759.979C92.1465 760.102 92.5062 760.322 92.8057 760.638C93.1051 760.953 93.333 761.341 93.4893 761.8C93.6455 762.256 93.7236 762.819 93.7236 763.489C93.7236 764.078 93.6504 764.586 93.5039 765.013C93.3249 765.534 93.0693 765.955 92.7373 766.277C92.4867 766.521 92.1481 766.712 91.7217 766.849C91.4027 766.95 90.9762 767 90.4424 767H87.7227V759.842ZM89.168 761.053V765.794H90.2471C90.6507 765.794 90.9421 765.771 91.1211 765.726C91.3555 765.667 91.5492 765.568 91.7021 765.428C91.8584 765.288 91.9854 765.058 92.083 764.739C92.1807 764.417 92.2295 763.979 92.2295 763.426C92.2295 762.872 92.1807 762.448 92.083 762.151C91.9854 761.855 91.8486 761.624 91.6729 761.458C91.4971 761.292 91.2741 761.18 91.0039 761.121C90.8021 761.076 90.4066 761.053 89.8174 761.053H89.168ZM94.9102 767V759.842H96.3555V767H94.9102ZM97.3711 764.671L98.7773 764.534C98.862 765.006 99.0329 765.353 99.29 765.574C99.5505 765.796 99.9004 765.906 100.34 765.906C100.805 765.906 101.155 765.809 101.39 765.613C101.627 765.415 101.746 765.184 101.746 764.92C101.746 764.751 101.696 764.607 101.595 764.49C101.497 764.37 101.325 764.266 101.077 764.178C100.908 764.119 100.522 764.015 99.9199 763.865C99.1452 763.673 98.6016 763.437 98.2891 763.157C97.8496 762.763 97.6299 762.283 97.6299 761.717C97.6299 761.352 97.7324 761.012 97.9375 760.696C98.1458 760.377 98.4437 760.135 98.8311 759.969C99.2217 759.803 99.6921 759.72 100.242 759.72C101.141 759.72 101.816 759.917 102.269 760.311C102.724 760.704 102.964 761.23 102.986 761.888L101.541 761.951C101.479 761.583 101.346 761.32 101.141 761.16C100.939 760.997 100.634 760.916 100.228 760.916C99.8076 760.916 99.4788 761.002 99.2412 761.175C99.0882 761.285 99.0117 761.434 99.0117 761.619C99.0117 761.788 99.0833 761.933 99.2266 762.054C99.4089 762.207 99.8516 762.366 100.555 762.532C101.258 762.698 101.777 762.871 102.112 763.05C102.451 763.226 102.715 763.468 102.903 763.777C103.095 764.083 103.191 764.463 103.191 764.915C103.191 765.325 103.077 765.709 102.85 766.067C102.622 766.425 102.299 766.692 101.883 766.868C101.466 767.041 100.947 767.127 100.325 767.127C99.4202 767.127 98.7253 766.919 98.2402 766.502C97.7552 766.082 97.4655 765.472 97.3711 764.671ZM108.987 764.368L110.389 764.812C110.174 765.594 109.816 766.175 109.314 766.556C108.816 766.933 108.183 767.122 107.415 767.122C106.465 767.122 105.683 766.798 105.071 766.15C104.459 765.499 104.153 764.611 104.153 763.484C104.153 762.293 104.461 761.368 105.076 760.711C105.691 760.05 106.5 759.72 107.503 759.72C108.379 759.72 109.09 759.979 109.637 760.496C109.962 760.802 110.206 761.242 110.369 761.814L108.938 762.156C108.854 761.785 108.676 761.492 108.406 761.277C108.139 761.062 107.814 760.955 107.43 760.955C106.899 760.955 106.468 761.146 106.136 761.526C105.807 761.907 105.643 762.524 105.643 763.377C105.643 764.282 105.805 764.926 106.131 765.311C106.456 765.695 106.88 765.887 107.4 765.887C107.785 765.887 108.115 765.765 108.392 765.521C108.668 765.276 108.867 764.892 108.987 764.368ZM111.341 763.465C111.341 762.736 111.45 762.124 111.668 761.629C111.831 761.264 112.052 760.937 112.332 760.647C112.615 760.358 112.924 760.143 113.26 760.003C113.706 759.814 114.22 759.72 114.803 759.72C115.857 759.72 116.701 760.047 117.332 760.701C117.967 761.355 118.284 762.265 118.284 763.431C118.284 764.586 117.97 765.491 117.342 766.146C116.714 766.797 115.874 767.122 114.822 767.122C113.758 767.122 112.911 766.798 112.283 766.15C111.655 765.499 111.341 764.604 111.341 763.465ZM112.83 763.416C112.83 764.227 113.017 764.842 113.392 765.262C113.766 765.678 114.241 765.887 114.817 765.887C115.394 765.887 115.866 765.68 116.233 765.267C116.604 764.85 116.79 764.227 116.79 763.396C116.79 762.576 116.609 761.964 116.248 761.561C115.89 761.157 115.413 760.955 114.817 760.955C114.222 760.955 113.742 761.16 113.377 761.57C113.012 761.977 112.83 762.592 112.83 763.416ZM121.243 767L118.685 759.842H120.252L122.063 765.14L123.816 759.842H125.35L122.786 767H121.243ZM126.087 767V759.842H131.395V761.053H127.532V762.64H131.126V763.846H127.532V765.794H131.531V767H126.087ZM132.762 767V759.842H135.804C136.569 759.842 137.124 759.907 137.469 760.037C137.817 760.164 138.095 760.392 138.304 760.721C138.512 761.049 138.616 761.425 138.616 761.849C138.616 762.386 138.458 762.83 138.143 763.182C137.827 763.53 137.355 763.75 136.727 763.841C137.039 764.023 137.296 764.223 137.498 764.441C137.703 764.66 137.978 765.047 138.323 765.604L139.197 767H137.469L136.424 765.442C136.053 764.886 135.799 764.536 135.662 764.393C135.525 764.246 135.381 764.147 135.228 764.095C135.075 764.039 134.832 764.012 134.5 764.012H134.207V767H132.762ZM134.207 762.869H135.276C135.97 762.869 136.403 762.84 136.575 762.781C136.748 762.723 136.883 762.622 136.98 762.479C137.078 762.335 137.127 762.156 137.127 761.941C137.127 761.701 137.062 761.507 136.932 761.36C136.805 761.211 136.624 761.116 136.39 761.077C136.272 761.061 135.921 761.053 135.335 761.053H134.207V762.869Z" fill="#FFFFFF" class="svgc_invert" filter="url(#filter_readability_theme_artists)"></path>
            <rect x="460" y="643" width="174" height="172" fill="url(#theme_artists_library_image_02_id)" class="img_reference_library_image_02"></rect>
        </g>
        <g class="s_title">
            <rect y="847" width="700" height="64" fill="#383E45"></rect>
            <path d="M291.169 902.3C289.569 902.3 288.359 901.85 287.539 900.95C286.719 900.03 286.309 898.72 286.309 897.02V895.82H289.429V897.26C289.429 898.62 289.999 899.3 291.139 899.3C291.699 899.3 292.119 899.14 292.399 898.82C292.699 898.48 292.849 897.94 292.849 897.2C292.849 896.32 292.649 895.55 292.249 894.89C291.849 894.21 291.109 893.4 290.029 892.46C288.669 891.26 287.719 890.18 287.179 889.22C286.639 888.24 286.369 887.14 286.369 885.92C286.369 884.26 286.789 882.98 287.629 882.08C288.469 881.16 289.689 880.7 291.289 880.7C292.869 880.7 294.059 881.16 294.859 882.08C295.679 882.98 296.089 884.28 296.089 885.98V886.85H292.969V885.77C292.969 885.05 292.829 884.53 292.549 884.21C292.269 883.87 291.859 883.7 291.319 883.7C290.219 883.7 289.669 884.37 289.669 885.71C289.669 886.47 289.869 887.18 290.269 887.84C290.689 888.5 291.439 889.3 292.519 890.24C293.899 891.44 294.849 892.53 295.369 893.51C295.889 894.49 296.149 895.64 296.149 896.96C296.149 898.68 295.719 900 294.859 900.92C294.019 901.84 292.789 902.3 291.169 902.3ZM298.042 881H307.042V884H301.342V889.55H305.872V892.55H301.342V899H307.042V902H298.042V881ZM313.59 902.3C312.01 902.3 310.8 901.85 309.96 900.95C309.14 900.05 308.73 898.78 308.73 897.14V885.86C308.73 884.22 309.14 882.95 309.96 882.05C310.8 881.15 312.01 880.7 313.59 880.7C315.17 880.7 316.37 881.15 317.19 882.05C318.03 882.95 318.45 884.22 318.45 885.86V888.08H315.33V885.65C315.33 884.35 314.78 883.7 313.68 883.7C312.58 883.7 312.03 884.35 312.03 885.65V897.38C312.03 898.66 312.58 899.3 313.68 899.3C314.78 899.3 315.33 898.66 315.33 897.38V894.17H318.45V897.14C318.45 898.78 318.03 900.05 317.19 900.95C316.37 901.85 315.17 902.3 313.59 902.3ZM323.004 884H319.554V881H329.754V884H326.304V902H323.004V884ZM331.352 881H334.652V902H331.352V881ZM341.894 902.3C340.274 902.3 339.034 901.84 338.174 900.92C337.314 900 336.884 898.7 336.884 897.02V885.98C336.884 884.3 337.314 883 338.174 882.08C339.034 881.16 340.274 880.7 341.894 880.7C343.514 880.7 344.754 881.16 345.614 882.08C346.474 883 346.904 884.3 346.904 885.98V897.02C346.904 898.7 346.474 900 345.614 900.92C344.754 901.84 343.514 902.3 341.894 902.3ZM341.894 899.3C343.034 899.3 343.604 898.61 343.604 897.23V885.77C343.604 884.39 343.034 883.7 341.894 883.7C340.754 883.7 340.184 884.39 340.184 885.77V897.23C340.184 898.61 340.754 899.3 341.894 899.3ZM349.135 881H353.275L356.485 893.57H356.545V881H359.485V902H356.095L352.135 886.67H352.075V902H349.135V881ZM369.323 884H365.873V881H376.073V884H372.623V902H369.323V884ZM377.67 881H380.97V902H377.67V881ZM386.022 884H382.572V881H392.772V884H389.322V902H386.022V884ZM394.37 881H397.67V899H403.1V902H394.37V881ZM404.682 881H413.682V884H407.982V889.55H412.512V892.55H407.982V899H413.682V902H404.682V881Z" fill="#383E45" class="svgc_invert" filter="url(#filter_readability_theme_artists)"></path>
        </g>
        <g class="s_image_frame">
            <path d="M700 911H0V1143H700V911Z" fill="#383E45"></path>
            <rect x="66" y="915" width="568" height="222" fill="url(#theme_artists_s_carousel_default_image_2_id)" class="img_reference_s_carousel_default_image_2"></rect>
            <rect x="427" y="1033" width="191" height="88" fill="#FFFFFF"></rect>
            <path d="M449.52 1078.3C447.92 1078.3 446.71 1077.85 445.89 1076.95C445.07 1076.03 444.66 1074.72 444.66 1073.02V1071.82H447.78V1073.26C447.78 1074.62 448.35 1075.3 449.49 1075.3C450.05 1075.3 450.47 1075.14 450.75 1074.82C451.05 1074.48 451.2 1073.94 451.2 1073.2C451.2 1072.32 451 1071.55 450.6 1070.89C450.2 1070.21 449.46 1069.4 448.38 1068.46C447.02 1067.26 446.07 1066.18 445.53 1065.22C444.99 1064.24 444.72 1063.14 444.72 1061.92C444.72 1060.26 445.14 1058.98 445.98 1058.08C446.82 1057.16 448.04 1056.7 449.64 1056.7C451.22 1056.7 452.41 1057.16 453.21 1058.08C454.03 1058.98 454.44 1060.28 454.44 1061.98V1062.85H451.32V1061.77C451.32 1061.05 451.18 1060.53 450.9 1060.21C450.62 1059.87 450.21 1059.7 449.67 1059.7C448.57 1059.7 448.02 1060.37 448.02 1061.71C448.02 1062.47 448.22 1063.18 448.62 1063.84C449.04 1064.5 449.79 1065.3 450.87 1066.24C452.25 1067.44 453.2 1068.53 453.72 1069.51C454.24 1070.49 454.5 1071.64 454.5 1072.96C454.5 1074.68 454.07 1076 453.21 1076.92C452.37 1077.84 451.14 1078.3 449.52 1078.3ZM456.392 1057H465.392V1060H459.692V1065.55H464.222V1068.55H459.692V1075H465.392V1078H456.392V1057ZM471.941 1078.3C470.361 1078.3 469.151 1077.85 468.311 1076.95C467.491 1076.05 467.081 1074.78 467.081 1073.14V1061.86C467.081 1060.22 467.491 1058.95 468.311 1058.05C469.151 1057.15 470.361 1056.7 471.941 1056.7C473.521 1056.7 474.721 1057.15 475.541 1058.05C476.381 1058.95 476.801 1060.22 476.801 1061.86V1064.08H473.681V1061.65C473.681 1060.35 473.131 1059.7 472.031 1059.7C470.931 1059.7 470.381 1060.35 470.381 1061.65V1073.38C470.381 1074.66 470.931 1075.3 472.031 1075.3C473.131 1075.3 473.681 1074.66 473.681 1073.38V1070.17H476.801V1073.14C476.801 1074.78 476.381 1076.05 475.541 1076.95C474.721 1077.85 473.521 1078.3 471.941 1078.3ZM481.355 1060H477.905V1057H488.105V1060H484.655V1078H481.355V1060ZM489.703 1057H493.003V1078H489.703V1057ZM500.244 1078.3C498.624 1078.3 497.384 1077.84 496.524 1076.92C495.664 1076 495.234 1074.7 495.234 1073.02V1061.98C495.234 1060.3 495.664 1059 496.524 1058.08C497.384 1057.16 498.624 1056.7 500.244 1056.7C501.864 1056.7 503.104 1057.16 503.964 1058.08C504.824 1059 505.254 1060.3 505.254 1061.98V1073.02C505.254 1074.7 504.824 1076 503.964 1076.92C503.104 1077.84 501.864 1078.3 500.244 1078.3ZM500.244 1075.3C501.384 1075.3 501.954 1074.61 501.954 1073.23V1061.77C501.954 1060.39 501.384 1059.7 500.244 1059.7C499.104 1059.7 498.534 1060.39 498.534 1061.77V1073.23C498.534 1074.61 499.104 1075.3 500.244 1075.3ZM507.486 1057H511.626L514.836 1069.57H514.896V1057H517.836V1078H514.446L510.486 1062.67H510.426V1078H507.486V1057ZM527.673 1060H524.223V1057H534.423V1060H530.973V1078H527.673V1060ZM536.021 1057H539.321V1078H536.021V1057ZM544.373 1060H540.923V1057H551.123V1060H547.673V1078H544.373V1060ZM552.72 1057H556.02V1075H561.45V1078H552.72V1057ZM563.033 1057H572.033V1060H566.333V1065.55H570.863V1068.55H566.333V1075H572.033V1078H563.033V1057Z" fill="#FFFFFF" class="svgc_invert" filter="url(#filter_readability_theme_artists)"></path>
            <path d="M602 1091H444V1093H602V1091Z" fill="#FFFFFF" fill-opacity="0.4" class="svgc_invert" filter="url(#filter_readability_theme_artists)"></path>
            <path d="M543 1103H444V1105H543V1103Z" fill="#FFFFFF" fill-opacity="0.4" class="svgc_invert" filter="url(#filter_readability_theme_artists)"></path>
            <path d="M592 1097H444V1099H592V1097Z" fill="#FFFFFF" fill-opacity="0.4" class="svgc_invert" filter="url(#filter_readability_theme_artists)"></path>
        </g>
        <g class="s_images_wall">
            <rect y="1143" width="700" height="428" fill="#383E45"></rect>
            <rect x="257" y="1419" width="186" height="120" fill="url(#theme_artists_library_image_05_2_id)" class="img_reference_library_image_05_2"></rect>
            <rect x="257" y="1142.93" width="186" height="270" fill="url(#theme_artists_library_image_13_2_id)" class="img_reference_library_image_13_2"></rect>
            <path d="M66 1269H251V1539H66V1269Z" fill="url(#theme_artists_library_image_10_2_id)" class="img_reference_library_image_10_2"></path>
            <path d="M449 1269H634V1539H449V1269Z" fill="url(#theme_artists_library_image_16_id)" class="img_reference_library_image_16"></path>
            <rect x="66" y="1143" width="185" height="120" fill="url(#theme_artists_library_image_03_2_id)" class="img_reference_library_image_03_2"></rect>
            <rect x="449" y="1143" width="185" height="120" fill="url(#theme_artists_library_image_14_id)" class="img_reference_library_image_14"></rect>
        </g>
        <g class="s_shape_image">
            <path d="M700 1571H0V1822H700V1571Z" fill="#3AADAA"></path>
            <path d="M420.52 1678.3C418.92 1678.3 417.71 1677.85 416.89 1676.95C416.07 1676.03 415.66 1674.72 415.66 1673.02V1671.82H418.78V1673.26C418.78 1674.62 419.35 1675.3 420.49 1675.3C421.05 1675.3 421.47 1675.14 421.75 1674.82C422.05 1674.48 422.2 1673.94 422.2 1673.2C422.2 1672.32 422 1671.55 421.6 1670.89C421.2 1670.21 420.46 1669.4 419.38 1668.46C418.02 1667.26 417.07 1666.18 416.53 1665.22C415.99 1664.24 415.72 1663.14 415.72 1661.92C415.72 1660.26 416.14 1658.98 416.98 1658.08C417.82 1657.16 419.04 1656.7 420.64 1656.7C422.22 1656.7 423.41 1657.16 424.21 1658.08C425.03 1658.98 425.44 1660.28 425.44 1661.98V1662.85H422.32V1661.77C422.32 1661.05 422.18 1660.53 421.9 1660.21C421.62 1659.87 421.21 1659.7 420.67 1659.7C419.57 1659.7 419.02 1660.37 419.02 1661.71C419.02 1662.47 419.22 1663.18 419.62 1663.84C420.04 1664.5 420.79 1665.3 421.87 1666.24C423.25 1667.44 424.2 1668.53 424.72 1669.51C425.24 1670.49 425.5 1671.64 425.5 1672.96C425.5 1674.68 425.07 1676 424.21 1676.92C423.37 1677.84 422.14 1678.3 420.52 1678.3ZM427.392 1657H436.392V1660H430.692V1665.55H435.222V1668.55H430.692V1675H436.392V1678H427.392V1657ZM442.941 1678.3C441.361 1678.3 440.151 1677.85 439.311 1676.95C438.491 1676.05 438.081 1674.78 438.081 1673.14V1661.86C438.081 1660.22 438.491 1658.95 439.311 1658.05C440.151 1657.15 441.361 1656.7 442.941 1656.7C444.521 1656.7 445.721 1657.15 446.541 1658.05C447.381 1658.95 447.801 1660.22 447.801 1661.86V1664.08H444.681V1661.65C444.681 1660.35 444.131 1659.7 443.031 1659.7C441.931 1659.7 441.381 1660.35 441.381 1661.65V1673.38C441.381 1674.66 441.931 1675.3 443.031 1675.3C444.131 1675.3 444.681 1674.66 444.681 1673.38V1670.17H447.801V1673.14C447.801 1674.78 447.381 1676.05 446.541 1676.95C445.721 1677.85 444.521 1678.3 442.941 1678.3ZM452.355 1660H448.905V1657H459.105V1660H455.655V1678H452.355V1660ZM460.703 1657H464.003V1678H460.703V1657ZM471.244 1678.3C469.624 1678.3 468.384 1677.84 467.524 1676.92C466.664 1676 466.234 1674.7 466.234 1673.02V1661.98C466.234 1660.3 466.664 1659 467.524 1658.08C468.384 1657.16 469.624 1656.7 471.244 1656.7C472.864 1656.7 474.104 1657.16 474.964 1658.08C475.824 1659 476.254 1660.3 476.254 1661.98V1673.02C476.254 1674.7 475.824 1676 474.964 1676.92C474.104 1677.84 472.864 1678.3 471.244 1678.3ZM471.244 1675.3C472.384 1675.3 472.954 1674.61 472.954 1673.23V1661.77C472.954 1660.39 472.384 1659.7 471.244 1659.7C470.104 1659.7 469.534 1660.39 469.534 1661.77V1673.23C469.534 1674.61 470.104 1675.3 471.244 1675.3ZM478.486 1657H482.626L485.836 1669.57H485.896V1657H488.836V1678H485.446L481.486 1662.67H481.426V1678H478.486V1657ZM498.673 1660H495.223V1657H505.423V1660H501.973V1678H498.673V1660ZM507.021 1657H510.321V1678H507.021V1657ZM515.373 1660H511.923V1657H522.123V1660H518.673V1678H515.373V1660ZM523.72 1657H527.02V1675H532.45V1678H523.72V1657ZM534.033 1657H543.033V1660H537.333V1665.55H541.863V1668.55H537.333V1675H543.033V1678H534.033V1657Z" fill="#383E45" class="svgc_invert" filter="url(#filter_readability_theme_artists)"></path>
            <path d="M573 1691H415V1693H573V1691Z" fill="#3AADAA" fill-opacity="0.4" class="svgc_invert" filter="url(#filter_readability_theme_artists)"></path>
            <path d="M563 1696H415V1698H563V1696Z" fill="#3AADAA" fill-opacity="0.4" class="svgc_invert" filter="url(#filter_readability_theme_artists)"></path>
            <g>
                <rect x="415" y="1721" width="86" height="23" fill="#383E45"></rect>
                <path d="M430.308 1733.37L431.709 1733.81C431.494 1734.59 431.136 1735.17 430.635 1735.56C430.137 1735.93 429.504 1736.12 428.735 1736.12C427.785 1736.12 427.004 1735.8 426.392 1735.15C425.78 1734.5 425.474 1733.61 425.474 1732.48C425.474 1731.29 425.781 1730.37 426.396 1729.71C427.012 1729.05 427.821 1728.72 428.823 1728.72C429.699 1728.72 430.41 1728.98 430.957 1729.5C431.283 1729.8 431.527 1730.24 431.689 1730.81L430.259 1731.16C430.174 1730.79 429.997 1730.49 429.727 1730.28C429.46 1730.06 429.134 1729.96 428.75 1729.96C428.219 1729.96 427.788 1730.15 427.456 1730.53C427.127 1730.91 426.963 1731.52 426.963 1732.38C426.963 1733.28 427.126 1733.93 427.451 1734.31C427.777 1734.69 428.2 1734.89 428.721 1734.89C429.105 1734.89 429.435 1734.76 429.712 1734.52C429.989 1734.28 430.187 1733.89 430.308 1733.37ZM432.661 1732.46C432.661 1731.74 432.77 1731.12 432.988 1730.63C433.151 1730.26 433.372 1729.94 433.652 1729.65C433.936 1729.36 434.245 1729.14 434.58 1729C435.026 1728.81 435.54 1728.72 436.123 1728.72C437.178 1728.72 438.021 1729.05 438.652 1729.7C439.287 1730.36 439.604 1731.27 439.604 1732.43C439.604 1733.59 439.29 1734.49 438.662 1735.15C438.034 1735.8 437.194 1736.12 436.143 1736.12C435.078 1736.12 434.232 1735.8 433.604 1735.15C432.975 1734.5 432.661 1733.6 432.661 1732.46ZM434.15 1732.42C434.15 1733.23 434.338 1733.84 434.712 1734.26C435.086 1734.68 435.562 1734.89 436.138 1734.89C436.714 1734.89 437.186 1734.68 437.554 1734.27C437.925 1733.85 438.11 1733.23 438.11 1732.4C438.11 1731.58 437.93 1730.96 437.568 1730.56C437.21 1730.16 436.733 1729.96 436.138 1729.96C435.542 1729.96 435.062 1730.16 434.697 1730.57C434.333 1730.98 434.15 1731.59 434.15 1732.42ZM440.752 1736V1728.84H442.158L445.088 1733.62V1728.84H446.431V1736H444.98L442.095 1731.33V1736H440.752ZM449.575 1736V1730.05H447.451V1728.84H453.14V1730.05H451.021V1736H449.575ZM459.79 1736H458.218L457.593 1734.37H454.731L454.141 1736H452.607L455.396 1728.84H456.924L459.79 1736ZM457.129 1733.17L456.143 1730.51L455.176 1733.17H457.129ZM465.142 1733.37L466.543 1733.81C466.328 1734.59 465.97 1735.17 465.469 1735.56C464.971 1735.93 464.338 1736.12 463.569 1736.12C462.619 1736.12 461.838 1735.8 461.226 1735.15C460.614 1734.5 460.308 1733.61 460.308 1732.48C460.308 1731.29 460.615 1730.37 461.23 1729.71C461.846 1729.05 462.655 1728.72 463.657 1728.72C464.533 1728.72 465.244 1728.98 465.791 1729.5C466.117 1729.8 466.361 1730.24 466.523 1730.81L465.093 1731.16C465.008 1730.79 464.831 1730.49 464.561 1730.28C464.294 1730.06 463.968 1729.96 463.584 1729.96C463.053 1729.96 462.622 1730.15 462.29 1730.53C461.961 1730.91 461.797 1731.52 461.797 1732.38C461.797 1733.28 461.96 1733.93 462.285 1734.31C462.611 1734.69 463.034 1734.89 463.555 1734.89C463.939 1734.89 464.269 1734.76 464.546 1734.52C464.823 1734.28 465.021 1733.89 465.142 1733.37ZM469.399 1736V1730.05H467.275V1728.84H472.964V1730.05H470.845V1736H469.399ZM476.665 1736V1728.84H478.828L480.127 1733.72L481.411 1728.84H483.579V1736H482.236V1730.37L480.815 1736H479.424L478.008 1730.37V1736H476.665ZM485.015 1736V1728.84H490.322V1730.05H486.46V1731.64H490.054V1732.85H486.46V1734.79H490.459V1736H485.015Z" fill="#383E45" class="svgc_invert" filter="url(#filter_readability_theme_artists)"></path>
            </g>
            <path d="M66 1602L230 1612V1790L66 1779V1602Z" fill="url(#theme_artists_s_image_text_default_image_id)" class="img_reference_s_image_text_default_image"></path>
        </g>
        <g class="svgc_footer">
            <path d="M700 1822H0V1948H700V1822Z" fill="#FOOTER_COLOR" class="svgc_footer_bg"></path>
            <path d="M374 1862C378.971 1862 383 1857.97 383 1853C383 1848.03 378.971 1844 374 1844C369.029 1844 365 1848.03 365 1853C365 1857.97 369.029 1862 374 1862Z" fill="#FOOTER_COLOR" class="svgc_invert" filter="url(#filter_readability_theme_artists)"></path>
            <path d="M349 1862C353.971 1862 358 1857.97 358 1853C358 1848.03 353.971 1844 349 1844C344.029 1844 340 1848.03 340 1853C340 1857.97 344.029 1862 349 1862Z" fill="#FOOTER_COLOR" class="svgc_invert" filter="url(#filter_readability_theme_artists)"></path>
            <path d="M325 1862C329.971 1862 334 1857.97 334 1853C334 1848.03 329.971 1844 325 1844C320.029 1844 316 1848.03 316 1853C316 1857.97 320.029 1862 325 1862Z" fill="#FOOTER_COLOR" class="svgc_invert" filter="url(#filter_readability_theme_artists)"></path>
            <path d="M472 1881H227V1883H472V1881Z" fill="#FOOTER_COLOR" fill-opacity="0.4" class="svgc_invert" filter="url(#filter_readability_theme_artists)"></path>
            <path d="M430 1887H270V1889H430V1887Z" fill="#FOOTER_COLOR" class="svgc_invert" filter="url(#filter_readability_theme_artists)"></path>
            <path d="M333.41 1925.32V1923.03H327.778V1912.18H325V1925.32H333.41ZM340.455 1925.5C341.615 1925.5 342.658 1925.24 343.587 1924.71C344.519 1924.18 345.253 1923.41 345.795 1922.41C346.337 1921.4 346.607 1920.18 346.607 1918.75C346.607 1917.32 346.336 1916.1 345.794 1915.09C345.253 1914.09 344.519 1913.32 343.588 1912.79C342.658 1912.27 341.613 1912 340.454 1912C339.287 1912 338.239 1912.27 337.31 1912.79C336.383 1913.32 335.648 1914.09 335.111 1915.09C334.572 1916.1 334.302 1917.32 334.302 1918.75C334.302 1920.18 334.572 1921.39 335.111 1922.4C335.608 1923.36 336.372 1924.16 337.31 1924.7C338.239 1925.23 339.287 1925.5 340.454 1925.5L340.455 1925.5ZM340.455 1923.04C339.833 1923.06 339.221 1922.88 338.697 1922.55C338.196 1922.22 337.809 1921.73 337.532 1921.1C337.256 1920.46 337.118 1919.68 337.118 1918.75C337.118 1917.82 337.256 1917.04 337.532 1916.4C337.807 1915.76 338.196 1915.28 338.697 1914.95C339.22 1914.62 339.832 1914.44 340.454 1914.46C341.125 1914.46 341.711 1914.62 342.212 1914.95C342.712 1915.28 343.101 1915.77 343.376 1916.4C343.653 1917.04 343.79 1917.82 343.79 1918.75C343.79 1919.68 343.653 1920.46 343.376 1921.1C343.101 1921.73 342.714 1922.22 342.212 1922.55C341.688 1922.88 341.078 1923.06 340.455 1923.04ZM354.422 1925.5C355.525 1925.5 356.505 1925.28 357.361 1924.83C358.2 1924.4 358.899 1923.73 359.375 1922.92C359.863 1922.09 360.107 1921.1 360.107 1919.94V1918.29H354.608V1920.38H357.427L357.421 1920.57C357.395 1920.93 357.315 1921.25 357.184 1921.54L357.074 1921.75C356.835 1922.16 356.477 1922.5 356.048 1922.7C355.602 1922.93 355.063 1923.04 354.435 1923.04C353.743 1923.04 353.141 1922.87 352.632 1922.54C352.123 1922.2 351.728 1921.71 351.451 1921.07C351.174 1920.43 351.034 1919.65 351.034 1918.74C351.034 1917.82 351.176 1917.05 351.457 1916.41C351.741 1915.78 352.135 1915.29 352.642 1914.96C353.168 1914.62 353.784 1914.45 354.41 1914.46C354.768 1914.46 355.096 1914.5 355.394 1914.59C355.691 1914.68 355.956 1914.81 356.189 1914.98C356.423 1915.15 356.62 1915.35 356.782 1915.6C356.945 1915.84 357.071 1916.11 357.162 1916.43H359.985C359.902 1915.8 359.694 1915.19 359.375 1914.64C359.06 1914.1 358.645 1913.62 358.152 1913.24C357.64 1912.84 357.062 1912.53 356.444 1912.33C355.773 1912.1 355.071 1911.99 354.365 1912C353.536 1911.99 352.714 1912.15 351.945 1912.46C351.207 1912.76 350.54 1913.21 349.988 1913.78C349.41 1914.39 348.965 1915.12 348.683 1915.91C348.373 1916.75 348.218 1917.7 348.218 1918.76C348.218 1920.15 348.478 1921.34 348.998 1922.35C349.483 1923.32 350.24 1924.13 351.176 1924.68C352.109 1925.23 353.19 1925.5 354.422 1925.5ZM367.908 1925.5C369.067 1925.5 370.111 1925.24 371.041 1924.71C371.971 1924.18 372.707 1923.41 373.248 1922.41C373.79 1921.4 374.061 1920.18 374.061 1918.75C374.061 1917.32 373.79 1916.1 373.248 1915.09C372.706 1914.09 371.971 1913.32 371.041 1912.79C370.111 1912.27 369.067 1912 367.908 1912C366.74 1912 365.692 1912.27 364.765 1912.79C363.836 1913.32 363.102 1914.09 362.563 1915.09C362.025 1916.1 361.755 1917.32 361.755 1918.75C361.755 1920.18 362.025 1921.39 362.563 1922.4C363.102 1923.41 363.836 1924.17 364.765 1924.7C365.692 1925.23 366.74 1925.5 367.908 1925.5ZM367.908 1923.04C367.237 1923.04 366.649 1922.88 366.15 1922.55C365.65 1922.22 365.261 1921.73 364.986 1921.1C364.709 1920.46 364.572 1919.68 364.572 1918.75C364.572 1917.82 364.709 1917.04 364.986 1916.4C365.261 1915.76 365.648 1915.28 366.15 1914.95C366.673 1914.62 367.286 1914.44 367.908 1914.46C368.579 1914.46 369.165 1914.62 369.665 1914.95C370.166 1915.28 370.553 1915.77 370.83 1916.4C371.106 1917.04 371.244 1917.82 371.244 1918.75C371.244 1919.68 371.106 1920.46 370.83 1921.1C370.553 1921.73 370.166 1922.22 369.665 1922.55C369.141 1922.88 368.53 1923.06 367.908 1923.04Z" fill="#FOOTER_COLOR" class="svgc_invert" filter="url(#filter_readability_theme_artists)"></path>
        </g>
    </g>
    <defs>
        <clipPath id="clip0_433_146">
            <rect width="700" height="1948" fill="#FFFFFF"></rect>
        </clipPath>
    </defs>
</svg>