<svg width="70" height="70" viewBox="0 0 70 70" fill="none" xmlns="http://www.w3.org/2000/svg">
<path d="M53 34C53 36.7614 50.7614 39 48 39C45.2386 39 43 36.7614 43 34C43 31.2386 45.2386 29 48 29C50.7614 29 53 31.2386 53 34Z" fill="#1AD3BB"/>
<path d="M38 26C38 31.5228 33.5228 36 28 36C22.4772 36 18 31.5228 18 26C18 20.4772 22.4772 16 28 16C33.5228 16 38 20.4772 38 26Z" fill="#985184"/>
<path d="M26 41H52C54.2091 41 56 42.7909 56 45V50C56 52.2091 54.2091 54 52 54H26V41Z" fill="#1AD3BB"/>
<path d="M14 41H30C37.1797 41 43 46.8203 43 54H27C19.8203 54 14 48.1797 14 41Z" fill="#985184"/>
<path d="M23.9482 31.3311L28.0003 28.3968L32.0524 31.3311L30.4456 26.6152L34.4977 23.6809H29.5373L28.0003 19L26.4633 23.6809H21.5029L25.5201 26.6152L23.9482 31.3311Z" fill="white"/>
</svg>
