<svg xmlns="http://www.w3.org/2000/svg" xmlns:xlink="http://www.w3.org/1999/xlink" width="70" height="70" viewBox="0 0 70 70"><defs><path id="a" d="M4 0h61c4 0 5 1 5 5v60c0 4-1 5-5 5H4c-3 0-4-1-4-5V5c0-4 1-5 4-5z"/><linearGradient id="c" x1="100%" x2="0%" y1="0%" y2="100%"><stop offset="0%" stop-color="#7CC098"/><stop offset="100%" stop-color="#5F8A71"/></linearGradient><path id="d" d="M28.352 34.871c.482.038 1.02.074 1.648.129.8.07 2-1.196 2-2 0-1.693-1.596-2.82-2-4 1.84-1.809 2-2.806 2-5.304 0-.666-.061-1.317-.18-1.949a11.475 11.475 0 0 1 6.855-2.247c6.235 0 11.29 4.897 11.29 10.938 0 6.04-5.055 10.937-11.29 10.937-4.606 0-8.567-2.672-10.323-6.504zm23.255 7.449c3.015.73 5.13 3.355 5.13 6.366v2.533c0 1.812-1.516 3.281-3.386 3.281H23.999c-1.87 0-3.386-1.469-3.386-3.281v-2.533c0-3.011 2.115-5.636 5.13-6.366l5.032-1.219c4.106 2.862 10.514 3.684 15.8 0l5.032 1.219zM19.151 14.158c6.41 0 11.611 4.09 11.611 9.14 0 2.167-.955 4.153-2.552 5.722.351 1.024.891 1.437 1.496 1.894.448.338 1.298.866.992 1.898a1.45 1.45 0 0 1-1.536 1.024c-2.326-.202-4.483-.843-6.33-1.867-1.157.303-2.395.47-3.677.47-6.414 0-11.611-4.087-11.611-9.14-.004-5.05 5.193-9.141 11.607-9.141zm0 16.171c1.31 0 2.637-.193 3.923-.615 1.302.835 3.173 2.022 5.43 2.373-1.29-1.054-2.29-2.707-2.467-3.884 1.536-1.143 2.79-2.853 2.79-4.905 0-3.116-3.48-7.031-9.676-7.031-6.197 0-9.676 3.915-9.676 7.031 0 3.12 3.48 7.031 9.676 7.031z"/><path id="e" d="M28.352 32.871c.482.038 1.02.074 1.648.129.8.07 2-1.196 2-2 0-1.693-1.596-2.82-2-4 1.84-1.809 2-2.806 2-5.304 0-.666-.061-1.317-.18-1.949a11.475 11.475 0 0 1 6.855-2.247c6.235 0 11.29 4.897 11.29 10.938 0 6.04-5.055 10.937-11.29 10.937-4.606 0-8.567-2.672-10.323-6.504zm23.255 7.449c3.015.73 5.13 3.355 5.13 6.366v2.533c0 1.812-1.516 3.281-3.386 3.281H23.999c-1.87 0-3.386-1.469-3.386-3.281v-2.533c0-3.011 2.115-5.636 5.13-6.366l5.032-1.219c4.106 2.862 10.514 3.684 15.8 0l5.032 1.219zM19.151 12.158c6.41 0 11.611 4.09 11.611 9.14 0 2.167-.955 4.153-2.552 5.722.351 1.024.891 1.437 1.496 1.894.448.338 1.298.866.992 1.898a1.45 1.45 0 0 1-1.536 1.024c-2.326-.202-4.483-.843-6.33-1.867-1.157.303-2.395.47-3.677.47-6.414 0-11.611-4.087-11.611-9.14-.004-5.05 5.193-9.141 11.607-9.141zm0 16.171c1.31 0 2.637-.193 3.923-.615 1.302.835 3.173 2.022 5.43 2.373-1.29-1.054-2.29-2.707-2.467-3.884 1.536-1.143 2.79-2.853 2.79-4.905 0-3.116-3.48-7.031-9.676-7.031-6.197 0-9.676 3.915-9.676 7.031 0 3.12 3.48 7.031 9.676 7.031z"/></defs><g fill="none" fill-rule="evenodd"><mask id="b" fill="#fff"><use xlink:href="#a"/></mask><g mask="url(#b)"><path fill="url(#c)" d="M0 0H70V70H0z"/><path fill="#FFF" fill-opacity=".383" d="M4 1h61c2.667 0 4.333.667 5 2V0H0v3c.667-1.333 2-2 4-2z"/><path fill="#393939" d="M4 69c-2 0-4-.145-4-4.054V27.195l7.973-7.858c2.666-5.405 7.36-6.757 12.027-6.08 4.667.675 8 2.702 10 6.08v4.16l1.956-3.643 17.05 12.426-8.914 11.08 16.21 7.48L43.794 69H4z" opacity=".324"/><path fill="#000" fill-opacity=".383" d="M4 69h61c2.667 0 4.333-1 5-3v4H0v-4c.667 2 2 3 4 3z"/><use fill="#000" fill-rule="nonzero" opacity=".3" xlink:href="#d"/><use fill="#FFF" fill-rule="nonzero" xlink:href="#e"/></g></g></svg>