<?xml version="1.0" ?><svg style="enable-background:new 0 0 64 64;" version="1.1" viewBox="0 0 64 64" xml:space="preserve" xmlns="http://www.w3.org/2000/svg" xmlns:xlink="http://www.w3.org/1999/xlink"><style type="text/css">
	.st0{fill:#4267B2;}
	.st1{fill:url(#SVGID_1_);}
	.st2{fill:#FFFFFF;}
	.st3{fill:#C2191E;}
	.st4{fill:#1DA1F3;}
	.st5{fill:#FEFE00;}
	.st6{fill:#25D366;stroke:#FFFFFF;stroke-width:5;stroke-miterlimit:10;}
	.st7{fill:#CB2027;}
	.st8{fill:#0077B5;}
	.st9{fill:url(#SVGID_2_);}
	.st10{fill:url(#SVGID_3_);}
	.st11{fill:#FF004F;}
	.st12{fill:#00F7EF;}
	.st13{fill:#5181B8;}
	.st14{fill:#395976;}
	.st15{fill:#F58220;}
	.st16{fill:#E6162D;}
	.st17{fill:#FF9933;}
</style><g id="guidlines"/><g id="ig"><radialGradient cx="6.5" cy="62.5" fx="3.1684" fy="60.7807" gradientTransform="matrix(0.9116 -0.411 0.3329 0.7384 -20.233 19.0203)" gradientUnits="userSpaceOnUse" id="SVGID_1_" r="93.512"><stop offset="0" style="stop-color:#F9ED32"/><stop offset="0.2555" style="stop-color:#F59F4F"/><stop offset="0.6535" style="stop-color:#EE2A7B"/><stop offset="0.6848" style="stop-color:#E32A81"/><stop offset="0.7394" style="stop-color:#C72A91"/><stop offset="0.8107" style="stop-color:#982AAB"/><stop offset="0.896" style="stop-color:#582ACE"/><stop offset="0.9922" style="stop-color:#072AFB"/><stop offset="1" style="stop-color:#002AFF"/></radialGradient><path class="st1" d="M50,62H14C7.4,62,2,56.6,2,50V14C2,7.4,7.4,2,14,2h36c6.6,0,12,5.4,12,12v36C62,56.6,56.6,62,50,62z"/><g><path class="st2" d="M40,53H24c-7.2,0-13-5.8-13-13V24c0-7.2,5.8-13,13-13h16c7.2,0,13,5.8,13,13v16C53,47.2,47.2,53,40,53z     M24,13c-6.1,0-11,4.9-11,11v16c0,6.1,4.9,11,11,11h16c6.1,0,11-4.9,11-11V24c0-6.1-4.9-11-11-11H24z"/></g><g><path class="st2" d="M32,43c-6.1,0-11-4.9-11-11s4.9-11,11-11s11,4.9,11,11S38.1,43,32,43z M32,23c-5,0-9,4-9,9s4,9,9,9s9-4,9-9    S37,23,32,23z"/></g><g><path class="st2" d="M44,23c-1.7,0-3-1.3-3-3s1.3-3,3-3s3,1.3,3,3S45.7,23,44,23z M44,19c-0.6,0-1,0.4-1,1s0.4,1,1,1s1-0.4,1-1    S44.6,19,44,19z"/></g></g></svg>