<svg xmlns="http://www.w3.org/2000/svg" xmlns:xlink="http://www.w3.org/1999/xlink" width="70" height="70" viewBox="0 0 70 70"><defs><path id="a" d="M4 0h61c4 0 5 1 5 5v60c0 4-1 5-5 5H4c-3 0-4-1-4-5V5c0-4 1-5 4-5z"/><linearGradient id="c" x1="100%" x2="0%" y1="0%" y2="100%"><stop offset="0%" stop-color="#CD7690"/><stop offset="100%" stop-color="#CA5377"/></linearGradient></defs><g fill="none" fill-rule="evenodd"><mask id="b" fill="#fff"><use xlink:href="#a"/></mask><g mask="url(#b)"><path fill="url(#c)" d="M0 0H70V70H0z"/><path fill="#FFF" fill-opacity=".383" d="M4 1h61c2.667 0 4.333.667 5 2V0H0v3c.667-1.333 2-2 4-2z"/><path fill="#393939" d="M41.118 69H4c-2 0-4-1-4-4V36.484l22.035-20.738C35.114 10.68 43.66 10.935 49 16c2.735 4.148 6.148 9.762 7.946 15.892.03.105-.731 1.21-2.285 3.317l1.36.836c.141 7.649.141 13.586 0 17.812L41.119 69z" opacity=".324"/><path fill="#000" fill-opacity=".383" d="M4 69h61c2.667 0 4.333-1 5-3v4H0v-4c.667 2 2 3 4 3z"/><path fill="#000" d="M33 42.108v13.756a20.831 20.831 0 0 1-8.292-2.747 21.403 21.403 0 0 1-7.825-7.825C14.961 41.998 14 38.401 14 34.5c0-3.9.961-7.498 2.883-10.792a21.403 21.403 0 0 1 7.825-7.825C28.002 13.961 31.599 13 35.5 13c3.9 0 7.498.961 10.792 2.883a21.403 21.403 0 0 1 7.825 7.825c1.84 3.153 2.799 6.584 2.878 10.292H53.77v-1.94H46.45V34h-2.092v-1.94H40.11a.617.617 0 0 0 .135-.248c.047-.149.117-.242.21-.28.168.225.364.243.588.057.13-.15.14-.3.028-.448.093-.131.285-.229.574-.294.29-.066.462-.154.518-.266.13.037.205.018.224-.056.018-.075.028-.187.028-.336 0-.15.028-.261.084-.336.074-.093.214-.177.42-.252.205-.075.326-.121.364-.14l.475-.308c.056-.075.056-.112 0-.112.336.037.626-.065.868-.308.187-.205.13-.392-.168-.56.056-.112.028-.2-.084-.266a1.465 1.465 0 0 0-.42-.154c.056-.018.164-.023.322-.014.159.01.257-.004.294-.042.28-.186.215-.336-.196-.448-.317-.093-.718.019-1.203.336-.038.019-.126.108-.266.266-.14.159-.266.248-.378.266.037 0 .079-.046.126-.14.046-.093.093-.196.14-.308a.859.859 0 0 1 .098-.196c.112-.13.317-.27.616-.42.26-.112.746-.224 1.455-.336.635-.149 1.11-.046 1.428.308-.037-.037.051-.158.266-.364.215-.205.35-.317.406-.335.056-.038.196-.08.42-.126.224-.047.364-.117.42-.21l.056-.616c-.224.018-.388-.047-.49-.196-.103-.15-.164-.346-.182-.588 0 .037-.056.112-.168.224 0-.13-.042-.205-.126-.224a.673.673 0 0 0-.322.028c-.13.037-.215.046-.252.028a1.1 1.1 0 0 1-.42-.21c-.093-.084-.168-.238-.224-.462a7.963 7.963 0 0 0-.112-.42c-.037-.093-.126-.191-.266-.294-.14-.103-.228-.2-.266-.294a3.036 3.036 0 0 1-.07-.154 3.42 3.42 0 0 0-.084-.182.59.59 0 0 0-.112-.154.214.214 0 0 0-.154-.07c-.056 0-.121.047-.196.14a5.47 5.47 0 0 0-.21.28c-.065.093-.107.14-.126.14a.229.229 0 0 0-.168-.042.892.892 0 0 0-.126.028.472.472 0 0 0-.126.084.783.783 0 0 1-.14.098.639.639 0 0 1-.237.084 1.83 1.83 0 0 0-.238.056c.28-.093.27-.196-.028-.308-.187-.075-.336-.103-.448-.084.168-.074.238-.186.21-.336a.674.674 0 0 0-.238-.392h.14c-.019-.074-.098-.154-.238-.238a3.432 3.432 0 0 0-.49-.238 2.41 2.41 0 0 1-.364-.168c-.15-.093-.467-.182-.952-.266-.485-.084-.793-.088-.924-.014-.093.112-.135.21-.126.294.01.084.047.215.112.392.066.178.098.294.098.35.019.112-.032.234-.154.364-.121.13-.182.243-.182.336 0 .13.13.275.392.434.261.159.355.36.28.602-.056.15-.205.299-.448.448-.242.15-.392.261-.448.336-.093.15-.107.322-.042.518.066.196.164.35.294.462.038.037.052.074.042.112-.01.037-.042.079-.098.126a1.253 1.253 0 0 1-.154.112c-.046.028-.107.06-.182.098l-.084.056c-.205.093-.396.037-.574-.168a1.81 1.81 0 0 1-.377-.728c-.131-.467-.28-.747-.448-.84-.43-.15-.7-.14-.812.028-.094-.243-.476-.485-1.148-.728-.467-.168-1.008-.205-1.624-.112.112-.019.112-.159 0-.42-.13-.28-.308-.392-.532-.336.056-.112.094-.275.112-.49.019-.214.028-.34.028-.378.056-.242.168-.457.336-.644a5.367 5.367 0 0 0 .462-.615c.066-.112.07-.168.014-.168.653.074 1.12-.028 1.4-.308.093-.094.2-.252.322-.476.121-.224.22-.383.294-.476.168-.112.298-.163.392-.154.093.01.228.06.406.154.177.093.312.14.406.14.26.018.406-.084.433-.308a.608.608 0 0 0-.21-.56c.224.019.252-.14.085-.476a1.069 1.069 0 0 0-.224-.252c-.224-.075-.476-.028-.756.14-.15.075-.13.15.056.224-.019-.019-.108.08-.266.294a2.368 2.368 0 0 1-.462.49c-.15.112-.299.065-.448-.14-.019-.019-.07-.145-.154-.378-.084-.233-.173-.36-.266-.378-.15 0-.299.14-.448.42.056-.15-.047-.29-.308-.42s-.485-.205-.672-.224c.355-.224.28-.476-.224-.756-.13-.074-.322-.121-.574-.14-.252-.018-.434.019-.545.112-.094.13-.145.238-.154.322-.01.084.037.159.14.224.102.065.2.117.293.154.094.037.201.075.322.112.122.037.201.065.238.084.262.187.336.317.224.392a3.385 3.385 0 0 1-.238.098l-.322.126c-.093.037-.149.075-.168.112-.056.075-.056.205 0 .392.056.186.038.317-.056.392-.093-.094-.177-.257-.252-.49-.074-.233-.14-.387-.195-.462.13.168-.103.224-.7.168l-.28-.028c-.075 0-.224.019-.448.056a2.08 2.08 0 0 1-.574.028.52.52 0 0 1-.378-.224c-.075-.15-.075-.336 0-.56.019-.075.056-.093.112-.056a4.195 4.195 0 0 1-.308-.266c-.13-.121-.224-.2-.28-.238-.858.28-1.736.663-2.631 1.148a.69.69 0 0 0 .335-.028c.094-.037.215-.098.364-.182a9.44 9.44 0 0 1 .28-.154c.635-.261 1.027-.327 1.176-.196l.14-.14c.261.299.448.532.56.7-.13-.075-.41-.084-.84-.028-.373.112-.578.224-.616.336.13.224.178.392.14.504a4.372 4.372 0 0 1-.322-.28 2.22 2.22 0 0 0-.406-.308 1.118 1.118 0 0 0-.42-.14c-.298 0-.503.01-.615.028-2.725 1.493-4.918 3.565-6.58 6.215.131.13.243.205.337.224.074.018.121.102.14.252.018.149.042.252.07.308.028.056.135.028.322-.084.168.149.196.326.084.532.018-.02.429.233 1.231.755.355.318.551.514.588.588.056.206-.037.374-.28.504-.018-.037-.102-.121-.252-.252-.149-.13-.233-.168-.252-.112-.056.094-.05.266.014.518.066.252.164.369.294.35-.13 0-.219.15-.266.448-.046.299-.07.63-.07.994s-.009.583-.028.658l.056.028c-.056.224-.004.546.154.966.16.42.36.601.602.545-.242.056-.056.458.56 1.204.112.15.187.233.224.252.056.037.168.107.336.21s.308.196.42.28c.112.084.205.182.28.294.075.093.168.303.28.63.112.326.243.546.392.658-.037.112.051.298.266.56.214.26.312.476.294.644a.136.136 0 0 0-.07.028.136.136 0 0 1-.07.028c.056.13.2.26.434.391.233.131.378.252.434.364.018.056.037.15.056.28.018.131.046.234.084.308.037.075.112.094.224.056.037-.373-.187-.952-.672-1.735a23 23 0 0 1-.476-.812 1.61 1.61 0 0 1-.154-.434 2.135 2.135 0 0 0-.126-.406c.037 0 .093.014.168.042.074.028.154.06.238.098.084.037.154.075.21.112.056.037.074.065.056.084-.056.13-.038.294.056.49.093.196.205.368.336.518a38.394 38.394 0 0 0 .811.895c.112.112.243.294.392.546.15.252.15.378 0 .378.168 0 .355.094.56.28.206.187.364.374.476.56.094.15.168.392.224.728.056.336.103.56.14.672.037.13.117.257.238.378.121.121.238.21.35.266l.448.224.364.196c.093.037.266.135.518.294.252.158.452.266.602.322.186.074.336.112.448.112.112 0 .247-.024.405-.07l.174-.05zm0-1.223c-.18-.158-.341-.392-.481-.702-.178-.392-.266-.737-.266-1.036 0-.186.023-.434.07-.742a8.37 8.37 0 0 0 .084-.7c.009-.158-.042-.387-.154-.685a1.42 1.42 0 0 0 .252-.266c.112-.14.205-.238.28-.294a.5.5 0 0 1 .125-.042.317.317 0 0 1 .09-.006v4.473zm9.438 5.573h-1.876a.556.556 0 0 1-.562-.547V44.09c0-.301.253-.547.563-.547h1.874c.31 0 .563.246.563.547v1.822c0 .301-.253.547-.563.547zm5.062-.547V44.09c0-.301-.253-.547-.563-.547h-1.874a.556.556 0 0 0-.563.547v1.822c0 .301.253.547.563.547h1.874c.31 0 .563-.246.563-.547zm4.5 0V44.09c0-.301-.253-.547-.563-.547h-1.874a.556.556 0 0 0-.563.547v1.822c0 .301.253.547.563.547h1.874c.31 0 .563-.246.563-.547zm-4.5 4.375v-1.822c0-.301-.253-.547-.563-.547h-1.874a.556.556 0 0 0-.563.547v1.822c0 .301.253.547.563.547h1.874c.31 0 .563-.246.563-.547zm-4.5 0v-1.822c0-.301-.253-.547-.563-.547h-1.874a.556.556 0 0 0-.563.547v1.822c0 .301.253.547.563.547h1.874c.31 0 .563-.246.563-.547zm9 0v-1.822c0-.301-.253-.547-.563-.547h-1.874a.556.556 0 0 0-.563.547v1.822c0 .301.253.547.563.547h1.874c.31 0 .563-.246.563-.547zm4.5-11.849V54.48c0 1.208-1.008 2.188-2.25 2.188h-16.5c-1.242 0-2.25-.98-2.25-2.188V38.438c0-1.208 1.008-2.188 2.25-2.188H40v-2.37c0-.3.253-.547.563-.547h1.874c.31 0 .563.246.563.547v2.37h6v-2.37c0-.3.253-.547.563-.547h1.874c.31 0 .563.246.563.547v2.37h2.25c1.242 0 2.25.98 2.25 2.188zm-2.25 15.769V40.625h-16.5v13.58c0 .151.127.274.281.274H53.97a.278.278 0 0 0 .281-.273z" opacity=".3"/><path fill="#FFF" d="M33 40.108v13.756a20.831 20.831 0 0 1-8.292-2.747 21.403 21.403 0 0 1-7.825-7.825C14.961 39.998 14 36.401 14 32.5c0-3.9.961-7.498 2.883-10.792a21.403 21.403 0 0 1 7.825-7.825C28.002 11.961 31.599 11 35.5 11c3.9 0 7.498.961 10.792 2.883a21.403 21.403 0 0 1 7.825 7.825c1.84 3.153 2.799 6.584 2.878 10.292H53.77v-1.94H46.45V32h-2.092v-1.94H40.11a.617.617 0 0 0 .135-.247c.047-.15.117-.243.21-.28.168.224.364.242.588.056.13-.15.14-.3.028-.448.093-.131.285-.229.574-.294.29-.066.462-.154.518-.266.13.037.205.018.224-.056.018-.075.028-.187.028-.336 0-.15.028-.261.084-.336.074-.093.214-.177.42-.252.205-.075.326-.121.364-.14l.475-.308c.056-.075.056-.112 0-.112.336.037.626-.065.868-.308.187-.205.13-.392-.168-.56.056-.112.028-.2-.084-.266a1.465 1.465 0 0 0-.42-.154c.056-.018.164-.023.322-.014.159.01.257-.004.294-.042.28-.186.215-.336-.196-.448-.317-.093-.718.019-1.203.336-.038.019-.126.108-.266.266-.14.159-.266.248-.378.266.037 0 .079-.046.126-.14.046-.093.093-.196.14-.308a.859.859 0 0 1 .098-.196c.112-.13.317-.27.616-.42.26-.112.746-.224 1.455-.336.635-.149 1.11-.046 1.428.308-.037-.037.051-.158.266-.364.215-.205.35-.317.406-.335.056-.038.196-.08.42-.126.224-.047.364-.117.42-.21l.056-.616c-.224.018-.388-.047-.49-.196-.103-.15-.164-.346-.182-.588 0 .037-.056.112-.168.224 0-.13-.042-.205-.126-.224a.673.673 0 0 0-.322.028c-.13.037-.215.046-.252.028a1.1 1.1 0 0 1-.42-.21c-.093-.084-.168-.238-.224-.462a7.963 7.963 0 0 0-.112-.42c-.037-.093-.126-.191-.266-.294-.14-.103-.228-.2-.266-.294a3.036 3.036 0 0 1-.07-.154 3.42 3.42 0 0 0-.084-.182.59.59 0 0 0-.112-.154.214.214 0 0 0-.154-.07c-.056 0-.121.047-.196.14a5.47 5.47 0 0 0-.21.28c-.065.093-.107.14-.126.14a.229.229 0 0 0-.168-.042.892.892 0 0 0-.126.028.472.472 0 0 0-.126.084.783.783 0 0 1-.14.098.639.639 0 0 1-.237.084 1.83 1.83 0 0 0-.238.056c.28-.093.27-.196-.028-.308-.187-.075-.336-.103-.448-.084.168-.074.238-.186.21-.336a.674.674 0 0 0-.238-.392h.14c-.019-.074-.098-.154-.238-.238a3.432 3.432 0 0 0-.49-.238 2.41 2.41 0 0 1-.364-.168c-.15-.093-.467-.182-.952-.266-.485-.084-.793-.088-.924-.014-.093.112-.135.21-.126.294.01.084.047.215.112.392.066.178.098.294.098.35.019.112-.032.234-.154.364-.121.13-.182.243-.182.336 0 .13.13.275.392.434.261.159.355.36.28.602-.056.15-.205.299-.448.448-.242.15-.392.261-.448.336-.093.15-.107.322-.042.518.066.196.164.35.294.462.038.037.052.074.042.112-.01.037-.042.079-.098.126a1.253 1.253 0 0 1-.154.112c-.046.028-.107.06-.182.098l-.084.056c-.205.093-.396.037-.574-.168a1.81 1.81 0 0 1-.377-.728c-.131-.467-.28-.747-.448-.84-.43-.15-.7-.14-.812.028-.094-.243-.476-.485-1.148-.728-.467-.168-1.008-.205-1.624-.112.112-.019.112-.159 0-.42-.13-.28-.308-.392-.532-.336.056-.112.094-.275.112-.49.019-.214.028-.34.028-.378.056-.242.168-.457.336-.644a5.367 5.367 0 0 0 .462-.615c.066-.112.07-.168.014-.168.653.074 1.12-.028 1.4-.308.093-.094.2-.252.322-.476.121-.224.22-.383.294-.476.168-.112.298-.163.392-.154.093.01.228.06.406.154.177.093.312.14.406.14.26.018.406-.084.433-.308a.608.608 0 0 0-.21-.56c.224.019.252-.14.085-.476a1.069 1.069 0 0 0-.224-.252c-.224-.075-.476-.028-.756.14-.15.075-.13.15.056.224-.019-.019-.108.08-.266.294a2.368 2.368 0 0 1-.462.49c-.15.112-.299.065-.448-.14-.019-.019-.07-.145-.154-.378-.084-.233-.173-.36-.266-.378-.15 0-.299.14-.448.42.056-.15-.047-.29-.308-.42s-.485-.205-.672-.224c.355-.224.28-.476-.224-.756-.13-.074-.322-.121-.574-.14-.252-.018-.434.019-.545.112-.094.13-.145.238-.154.322-.01.084.037.159.14.224.102.065.2.117.293.154.094.037.201.075.322.112.122.037.201.065.238.084.262.187.336.317.224.392a3.385 3.385 0 0 1-.238.098l-.322.126c-.093.037-.149.075-.168.112-.056.075-.056.205 0 .392.056.186.038.317-.056.392-.093-.094-.177-.257-.252-.49-.074-.233-.14-.387-.195-.462.13.168-.103.224-.7.168l-.28-.028c-.075 0-.224.019-.448.056a2.08 2.08 0 0 1-.574.028.52.52 0 0 1-.378-.224c-.075-.15-.075-.336 0-.56.019-.075.056-.093.112-.056a4.195 4.195 0 0 1-.308-.266c-.13-.121-.224-.2-.28-.238-.858.28-1.736.663-2.631 1.148a.69.69 0 0 0 .335-.028c.094-.037.215-.098.364-.182a9.44 9.44 0 0 1 .28-.154c.635-.261 1.027-.327 1.176-.196l.14-.14c.261.299.448.532.56.7-.13-.075-.41-.084-.84-.028-.373.112-.578.224-.616.336.13.224.178.392.14.504a4.372 4.372 0 0 1-.322-.28 2.22 2.22 0 0 0-.406-.308 1.118 1.118 0 0 0-.42-.14c-.298 0-.503.01-.615.028-2.725 1.493-4.918 3.565-6.58 6.215.131.13.243.205.337.224.074.018.121.102.14.252.018.149.042.252.07.308.028.056.135.028.322-.084.168.149.196.326.084.532.018-.02.429.233 1.231.755.355.318.551.514.588.588.056.206-.037.374-.28.504-.018-.037-.102-.121-.252-.252-.149-.13-.233-.168-.252-.112-.056.094-.05.266.014.518.066.252.164.369.294.35-.13 0-.219.15-.266.448-.046.299-.07.63-.07.994s-.009.583-.028.658l.056.028c-.056.224-.004.546.154.966.16.42.36.601.602.545-.242.056-.056.458.56 1.204.112.15.187.233.224.252.056.037.168.107.336.21s.308.196.42.28c.112.084.205.182.28.294.075.093.168.303.28.63.112.326.243.546.392.658-.037.112.051.298.266.56.214.26.312.476.294.644a.136.136 0 0 0-.07.028.136.136 0 0 1-.07.028c.056.13.2.26.434.391.233.131.378.252.434.364.018.056.037.15.056.28.018.131.046.234.084.308.037.075.112.094.224.056.037-.373-.187-.952-.672-1.735a23 23 0 0 1-.476-.812 1.61 1.61 0 0 1-.154-.434 2.135 2.135 0 0 0-.126-.406c.037 0 .093.014.168.042.074.028.154.06.238.098.084.037.154.075.21.112.056.037.074.065.056.084-.056.13-.038.294.056.49.093.196.205.368.336.518a38.394 38.394 0 0 0 .811.895c.112.112.243.294.392.546.15.252.15.378 0 .378.168 0 .355.094.56.28.206.187.364.374.476.56.094.15.168.392.224.728.056.336.103.56.14.672.037.13.117.257.238.378.121.121.238.21.35.266l.448.224.364.196c.093.037.266.135.518.294.252.158.452.266.602.322.186.074.336.112.448.112.112 0 .247-.024.405-.07l.174-.05zm0-1.223c-.18-.158-.341-.392-.481-.702-.178-.392-.266-.737-.266-1.036 0-.186.023-.434.07-.742a8.37 8.37 0 0 0 .084-.7c.009-.158-.042-.387-.154-.685a1.42 1.42 0 0 0 .252-.266c.112-.14.205-.238.28-.294a.5.5 0 0 1 .125-.042.317.317 0 0 1 .09-.006v4.473zm9.438 5.573h-1.876a.556.556 0 0 1-.562-.547V42.09c0-.301.253-.547.563-.547h1.874c.31 0 .563.246.563.547v1.822c0 .301-.253.547-.563.547zm5.062-.547V42.09c0-.301-.253-.547-.563-.547h-1.874a.556.556 0 0 0-.563.547v1.822c0 .301.253.547.563.547h1.874c.31 0 .563-.246.563-.547zm4.5 0V42.09c0-.301-.253-.547-.563-.547h-1.874a.556.556 0 0 0-.563.547v1.822c0 .301.253.547.563.547h1.874c.31 0 .563-.246.563-.547zm-4.5 4.375v-1.822c0-.301-.253-.547-.563-.547h-1.874a.556.556 0 0 0-.563.547v1.822c0 .301.253.547.563.547h1.874c.31 0 .563-.246.563-.547zm-4.5 0v-1.822c0-.301-.253-.547-.563-.547h-1.874a.556.556 0 0 0-.563.547v1.822c0 .301.253.547.563.547h1.874c.31 0 .563-.246.563-.547zm9 0v-1.822c0-.301-.253-.547-.563-.547h-1.874a.556.556 0 0 0-.563.547v1.822c0 .301.253.547.563.547h1.874c.31 0 .563-.246.563-.547zm4.5-11.849V52.48c0 1.208-1.008 2.188-2.25 2.188h-16.5c-1.242 0-2.25-.98-2.25-2.188V36.438c0-1.208 1.008-2.188 2.25-2.188H40v-2.37c0-.3.253-.547.563-.547h1.874c.31 0 .563.246.563.547v2.37h6v-2.37c0-.3.253-.547.563-.547h1.874c.31 0 .563.246.563.547v2.37h2.25c1.242 0 2.25.98 2.25 2.188zm-2.25 15.769V38.625h-16.5v13.58c0 .151.127.274.281.274H53.97a.278.278 0 0 0 .281-.273z"/></g></g></svg>