<svg viewBox="0 0 1400 190" xmlns="http://www.w3.org/2000/svg">
    <path d="M1336,29h2.9V8.6h1.2v20.4h3.8v93.1h11.4v-51.4h2.6v-9.2h2.7v-6.3h18.4v6.3h2.6v9.2h9.4v-3.8h4.5v3.8h1.7v-10.5h2.9v129.9H0v-100.3l10.9-14.8,12.7,18.5v42.1h31.4v-56.8h9.6v-3.3h11.7v3.3h5.3v15.9h27.7v2.4h-3.8v26.3h10.9V44.1h-1.3v-1.3h17.6v1.3h-1.3v3.6h23.4v99.5h18.2l8.1-28.8h16.8v-24.5h17.2v-10.6h-2.1v-1h3.5v-17h.7v17h2.7v-3.3h.9v3.3h8.5v1h-2v10.6h3.3v32.1h24.9v-37.7h27.8v58.9h5.8V34.7h4.9v1.7l8.9-2.1v-3.1h4.9v1.9l9-2.1v-3.4h4.9v2.3l8.9-2.1v-3.2h4.9v2l9-2.1v-3.1h4.9v116.9h6.5v-37.5l20.4-18.6,20.4,18.6v46.5h10.1v-8.3h-1.8v-1.3h1.8v-16.3h-1.8v-1.3h1.8v-16.4h-1.8v-1.3h1.8v-16.4h-1.8v-1.3h1.8v-16.3h-1.8v-1.3h1.8v-16.4h-1.8v-1.3h1.8v-16.9h-3.1v-1.3h-1.5v-3.6h7.3v-4.1h-1v-1.1h16.1v1.1h-.9v4.1h29.6v3.6h-1.6v1.3h-3.1v16.9h1.9v1.3h-1.9v16.4h1.9v1.3h-1.9v16.3h1.9v1.3h-1.9v16.4h1.9v1.3h-1.9v16.4h1.9v1.3h-1.9v16.3h1.9v.6h10v-57.3h-1.6v-3h10.4v-8.2h4.9v8.2h4.6v-8.2h4.5v8.2h8.8v-8.2h26.8v8.2h6.3v3h-3.6v41.4l22.1,9.4v-42.7h19.9v-43.4h-1.3v-3.3h3v-4.1h23.8v-6.4h9.1l1.4-4.1h2.2v-7.2c-.2-.1-.4-.3-.4-.6,0-.5.4-1,.9-1,.4,0,.8.3.9.7,0,.4-.1.7-.4.9v7.2h4.2v10.5h3.4v4.1h3v3.3h-1.4v66.6h15.1v27.2h19.4V49.7h-4.4v-1.4h4.4v-2.5h5.5v-4.1h45.5v4.1h5.5v2.5h4.4v1.4h-4.4v80.7h12.1v10.2h13.7v-38.2h9.8v-17h-3.5v-3h6.3v-8.3h26.8v8.3h8.7v-8.3h4.5v8.3h4.6v-8.3h4.9v8.3h10.5v3h-1.7v45h33.6V53.7h1.3v-5.3h2.5v-17.2h.9v17.2h2v-13.8h.9v13.8h4.4v5.3h5.4v76.6h16.2v-23.4h10v-12.6h46v10.3h23.8v57.5h10v-35.5h23v-33.3l13.7-18.5,12.7,18.5v44.6h35.5v-11.6h16.5v-51.7h2.2v-28.5h10.6v-10.9h5.7v-9h2.1v-15.7h.5v15.7h2v9h5.7v10.9h10.7v28.5h2.1v44.6l4.8-23.9h5v-21.1h-2.3v-.9h51.8v.9h-2.3v41.8h6.1v22h30.8V56.6h4.4v-14.2h-2.6v-1.4h11.4v-4.4h1.2v4.4h3.6v-22.7h1v22.7h4.7v1.4h-2.8v14.2h23v32.8h41.2v48.6h5.6v-42.8h24.6V29h22.2v-15.3h1.2v15.3h2.5V.6h1.2v28.4Z" fill="#3aadaa"/>
</svg>
