<svg viewBox="0 0 1400 1400" xmlns="http://www.w3.org/2000/svg">
<path d="M305.1 1127.4L0 1248.1V1400H1400V1242.2L1033.3 1127.4L714 1237.7L305.1 1127.4Z" fill="#3AADAA"/>
<path fill-rule="evenodd" clip-rule="evenodd" d="M1034.5 1126L714.4 1236.72L304.1 1125L0 1244.61V1248.81C0.4 1248.21 32.7 1236.12 33.2 1235.82C37.8 1236.92 40.5 1248.41 43.7 1252.51C46 1256.5 20.1 1263.7 22.7 1267.7C23.6 1268.7 24.8 1272.89 26.8 1271.79C34.5 1269.3 43.9 1259.4 47.3 1261.3C48 1263.3 55.7 1270.89 52.6 1273.79L22.9 1285.58C13.9 1279.59 3.6 1263.4 0 1252.81V1278.89C2.4 1277.89 4.9 1274.49 6.9 1276.49L16.5 1290.98C17 1291.78 16.7 1292.98 15.8 1293.38C14.6 1293.38 0 1299.87 0 1299.87V1308.07C0 1308.07 21.4 1294.38 21.8 1298.27C27.8 1314.56 32.7 1310.07 16.6 1319.96C14.9 1321.06 16.5 1323.76 18.2 1322.76C35.8 1313.06 29.5 1314.56 39.1 1330.15C42.6 1333.25 8.1 1342.04 7.6 1343.14C6.2 1343.84 1.1 1340.04 0 1339.04V1349.74C1 1350.74 9.3 1358.63 7.1 1360.33C5.2 1361.53 2.7 1363.23 0 1365.43V1400H8.6C7.1 1397.8 1.4 1379.91 0.8 1379.32C0.6 1378.72 0.8 1378.02 1.2 1377.62C2.6 1377.22 14.1 1362.73 15.9 1365.62C41.8 1393.11 40.7 1382.61 9.1 1400H20.8C36.7 1392.01 53.4 1383.31 66.2 1377.92C69.2 1376.42 70 1385.81 71 1387.01C72.1 1389.91 75.2 1386.41 76.5 1385.51C77.9 1385.01 76.3 1375.62 76.5 1374.62C88.6 1362.63 108.1 1358.43 123 1349.84C125.6 1346.84 131.2 1367.42 128.6 1367.12C105.4 1376.72 59.8 1400 59.8 1400H73.1C73.1 1400 145.9 1362.43 174.2 1350.74C181 1347.34 163.9 1400 163.9 1400H169.6C169.6 1400 170 1397.1 171.1 1396.8L244.7 1368.22C248 1366.12 249 1382.91 249.9 1384.01C252.4 1386.21 212.6 1399.2 212.3 1400H233.7L301 1371.82C302.1 1371.12 332.8 1378.72 333.9 1378.62C334.5 1378.72 334.9 1379.12 335.1 1379.71C335.6 1381.21 337.5 1384.91 334.4 1384.71C321.6 1383.51 301 1378.22 288.5 1384.01C275.6 1390.01 263.9 1400 263.9 1400H271.9C271.9 1400 282.7 1391.11 287.4 1389.11C305 1379.71 330.7 1390.71 348.5 1393.3C355.2 1392.01 347.8 1384.91 353.1 1384.81C354 1385.31 408 1400 408 1400H445.7L394.4 1387.81C393.8 1387.71 393.4 1387.31 393.2 1386.71L389 1374.42C388.6 1373.22 389.7 1372.02 390.9 1372.32C400.2 1374.02 504.2 1400 504.2 1400H521.1C521.1 1400 521.1 1396 523.1 1396.4L537.8 1400H558.9L521.8 1391.51C520.2 1391.51 519.4 1386.41 518.8 1385.41C515.6 1378.72 596 1398.9 598.8 1400H640.7C639.4 1398.6 516.5 1376.22 516.8 1372.92L513.9 1345.94C512 1340.34 557.8 1356.13 558.7 1355.13C562.2 1356.13 557.6 1370.82 561.3 1371.52C561.3 1371.52 567.3 1372.62 567.3 1372.32C568 1370.82 565.5 1357.23 569.3 1358.33L630.4 1371.52C631.1 1371.72 631.7 1372.32 631.7 1373.02C632.2 1374.12 631.2 1389.11 633.4 1389.01C633.4 1389.01 640.9 1391.41 640.9 1391.11L639.8 1375.72C639.8 1374.62 640.8 1373.72 641.8 1374.02L709.5 1390.91C712 1391.21 710.3 1398.6 710.7 1400H717.6C718 1398.6 716.7 1391.31 718.5 1390.71C720.8 1391.71 818.7 1335.55 820.2 1341.34C820.2 1342.74 823.4 1351.14 821.2 1351.84C820.9 1352.33 779.7 1372.42 779.8 1373.32C778.9 1374.72 780.4 1376.42 781.9 1375.72L833.3 1349.84C833.9 1349.54 834.2 1348.94 834.2 1348.34L833.5 1333.05C833.5 1332.35 833.8 1331.75 834.4 1331.45L884.7 1306.97C886.4 1304.77 898.9 1323.16 900 1323.46C901.6 1327.75 962.9 1295.58 965.4 1295.08C968.1 1293.28 972 1305.17 973.4 1306.07C973.9 1306.97 973.4 1308.07 972.6 1308.37L752.3 1400H776C776 1400 960.5 1316.16 972.1 1313.16C974.8 1310.27 989.2 1349.24 990.4 1349.64C993.7 1352.03 956.3 1366.12 956.1 1367.12C955.2 1367.52 954.1 1367.12 953.8 1366.02C952.7 1364.93 949.6 1342.24 946.3 1344.54L886.9 1368.72C885 1369.42 884.4 1367.22 884.6 1365.82C884.3 1359.93 800 1400 800 1400H815.2L872.5 1377.62C873.5 1377.22 874.6 1377.92 874.7 1378.92L876.8 1395.9C877.3 1397.9 872.3 1399.2 871.2 1400H891.8C892 1398.7 883.3 1377.72 886.4 1377.52C888.8 1377.82 943.1 1349.74 944.5 1354.03L949.9 1372.42C951.1 1375.62 897 1400 897 1400H906.8C906.8 1400 985.5 1360.73 990.9 1359.13C993.6 1357.43 996.4 1367.92 997.5 1369.02C999.6 1372.02 949.8 1400 949.8 1400H967.6C967.6 1400 999 1376.32 999.7 1375.02C1000.3 1374.52 1001.2 1374.62 1001.8 1375.22L1023.1 1396C1024.6 1397.4 1022.5 1399.2 1021.5 1400H1073.2C1069.7 1399.2 1063.9 1398.4 1063 1396.3C1062.7 1395.3 1047.5 1343.34 1053.6 1345.94C1054.9 1347.24 1118.4 1360.63 1118.2 1363.63L1120.7 1385.31C1120.7 1386.41 1119.9 1387.31 1118.8 1387.11L1098.5 1383.41C1089.4 1381.51 1089.2 1394.2 1087.9 1400H1096.5C1096.5 1396.4 1095.6 1388.11 1101.7 1389.41L1119.1 1393.4C1120.8 1393.5 1121 1398.9 1121.6 1400H1134.1C1135 1399 1127.8 1361.23 1132.5 1363.43C1163.1 1368.32 1151.3 1361.53 1157.5 1400H1165.5C1166.4 1399.1 1159 1361.93 1163.4 1363.93C1177.2 1365.53 1197.4 1367.02 1210.2 1370.82C1211.9 1372.92 1212.5 1377.02 1220 1379.12C1222.1 1385.91 1222.8 1392.71 1224.4 1400H1268.8L1232.2 1391.51C1230.5 1391.51 1229.1 1382.41 1228.7 1379.81C1228.59 1379.12 1228.9 1379.22 1229.2 1379.12C1231.2 1378.72 1234.1 1377.52 1234.5 1375.52C1234.8 1374.62 1235.1 1374.32 1236 1374.52L1287.2 1385.61C1288.6 1385.11 1293 1399.3 1293.7 1400H1301.3C1301.3 1398.3 1294 1387.81 1299.3 1388.21C1306.1 1389.31 1354.1 1400 1354.1 1400H1361.4L1358.6 1387.21C1358.4 1386.11 1359.3 1385.11 1360.4 1385.21C1361.3 1385.21 1399.2 1388.91 1400 1388.71V1240.42L1034.7 1126.2L1034.5 1126ZM323.3 1400H284.6L295.9 1394.1C296.2 1393.9 296.6 1393.9 297 1394L323.3 1400ZM1028.6 1343.84C1028.3 1342.64 1029.3 1341.54 1030.5 1341.74C1031.7 1342.54 1043.8 1342.84 1043.7 1345.24C1042.7 1346.14 1054.5 1396.1 1049.5 1393.9C1030.6 1391.91 1034.3 1393.9 1019.3 1381.91C1018.4 1381.21 1018.5 1379.91 1019.3 1379.22C1030.4 1370.22 1031.7 1356.93 1028.6 1343.94V1343.84ZM382 1320.56C380.1 1315.66 434.6 1327.65 435.4 1326.65C439.1 1327.55 434.5 1338.14 437.9 1339.34C439.1 1340.64 505.9 1356.33 505.7 1359.13L509.7 1390.51C510 1397 389.2 1362.43 387.2 1364.03C386.5 1363.83 386 1363.33 385.9 1362.53L381.9 1320.56H382ZM1225.3 1329.85C1225.3 1328.75 1226.2 1327.85 1227.4 1328.05L1241 1331.65C1243.62 1332.39 1242.95 1345.61 1244.5 1351.18C1244.84 1352.41 1245.7 1353.65 1247.8 1354.03C1262.74 1356.79 1268.5 1358.53 1272.5 1359.09C1273.59 1358.7 1274.15 1357.75 1274.25 1356.03C1274.4 1353.43 1273.48 1349.06 1271.7 1342.14C1271.4 1340.94 1272.5 1339.84 1273.7 1340.14C1304.3 1350.54 1337.5 1345.64 1341.8 1388.11C1342.04 1390.51 1341 1390.19 1339.9 1390.01C1337.9 1389.69 1235.2 1371.82 1235.3 1368.12C1235 1363.93 1231.5 1359.53 1228.3 1358.53L1225.3 1329.85ZM237.6 1320.66C241.7 1317.36 245.6 1361.23 246.8 1361.83C246.9 1362.63 246.5 1363.43 245.7 1363.63L176.7 1387.51C170.4 1390.71 184.7 1351.44 183.7 1350.84C202.9 1336.25 216.7 1330.55 237.6 1320.66ZM763.1 1331.55C765 1328.75 779.1 1351.64 780.2 1351.93C780.8 1352.73 780.5 1353.93 779.6 1354.43C778.3 1354.63 716.1 1386.51 714.7 1386.11L682.7 1379.91C682.3 1379.91 681.9 1379.61 681.7 1379.22L667.6 1359.43C666.8 1358.33 667.6 1356.73 669 1356.83C669.4 1357.03 690.9 1357.23 690.2 1358.53L704 1379.02C704.5 1380.01 706 1379.71 706.9 1379.71C708.2 1379.71 709 1378.32 708.3 1377.22L698.6 1360.53C697.9 1359.33 698.8 1357.93 700.2 1358.03L714.8 1359.33C716 1359.63 762.1 1331.65 763.2 1331.45H763.1V1331.55ZM42.2 1334.95C44.4 1332.55 63.3 1370.92 64.4 1371.32C64.9 1372.12 64.4 1373.22 63.7 1373.62L43.9 1382.71C43.3 1383.01 42.5 1382.81 42 1382.31L11 1349.24C6.3 1345.94 41.9 1336.25 42.2 1334.95ZM305.6 1329.75C306.8 1328.95 372.6 1343.54 373.8 1343.34C374.5 1343.44 375.1 1344.14 375.1 1344.84C374.1 1345.64 380.6 1385.51 375.7 1382.71L344.5 1374.22C330 1355.23 318.1 1344.64 297.8 1336.85C293.2 1333.95 304.5 1331.05 305.7 1329.75H305.6ZM1325.9 1324.85C1325.9 1323.76 1327.01 1323.01 1328 1323.36C1330 1324.06 1382.66 1339.96 1394.05 1344.03C1396.4 1344.87 1396.25 1345.76 1396.26 1347.26L1396.6 1376.42C1396.6 1378.62 1394.8 1380.31 1392.7 1380.01L1356.5 1374.42C1354.5 1374.42 1355 1370.12 1354.5 1368.92C1353.4 1356.13 1327 1345.94 1326 1345.24C1325 1344.54 1325.1 1344.54 1325.2 1343.94L1325.9 1324.85ZM253.1 1330.75C252.9 1329.65 254 1328.65 255.1 1328.95C290 1337.05 305.5 1347.04 326.4 1366.62C327.6 1367.72 326.6 1369.72 325 1369.42L304 1365.43C243 1384.31 265.5 1394 253.2 1330.75H253.1ZM1215.3 1367.02C1216.5 1361.03 1231.2 1364.33 1229.7 1370.32C1228.5 1376.32 1213.8 1373.02 1215.3 1367.02ZM509 1314.46C508.8 1313.26 509.8 1312.26 511 1312.56C511.9 1313.06 645.1 1341.64 645.6 1342.74C644.3 1343.04 675.3 1373.32 666.2 1371.72C664.9 1370.42 513.3 1338.84 513.3 1335.95L509 1314.46ZM1017.9 1346.14C1018.9 1345.64 1020.1 1346.34 1020.2 1347.44C1021.8 1356.93 1017.8 1372.62 1005.4 1367.82C997.6 1348.74 998.9 1356.43 1017.9 1346.14ZM95.4 1309.27C124.2 1321.06 80.3 1317.36 97.9 1354.53C98.3 1355.33 97.9 1356.33 97.1 1356.73C64.8 1372.32 80.4 1372.62 53.4 1334.35C52.8 1333.45 53.4 1332.25 54.3 1331.85C62.1 1328.85 68.6 1324.26 75.2 1319.56C81.4 1316.16 87.7 1308.47 95.4 1309.27ZM1164.8 1301.07L1212.5 1311.56C1213.1 1311.66 1213.6 1312.16 1213.7 1312.76C1214 1314.56 1217.5 1350.54 1218.2 1357.53C1212.9 1358.33 1211.5 1362.03 1207.8 1363.73L1160.9 1357.33C1160.1 1357.23 1159.4 1356.43 1159.5 1355.63L1161.9 1303.57C1161.9 1302.49 1163.66 1300.88 1164.8 1301.07ZM167.5 1324.95C172 1324.16 175.5 1343.54 176.7 1344.74C179.5 1346.94 140.4 1360.73 140.2 1361.53C137 1363.73 134.9 1345.54 133.9 1344.54C133.7 1343.84 134 1343.04 134.7 1342.64C142.5 1338.44 159.3 1329.35 167.5 1324.85V1324.95ZM1072.9 1284.68C1072.5 1283.48 1073.7 1282.29 1074.9 1282.69L1120.9 1295.98C1121.6 1296.18 1122.1 1296.78 1122.1 1297.47L1122.6 1306.27C1122.6 1307.77 1125.9 1308.57 1126.8 1309.27C1130.7 1310.76 1128.7 1302.27 1129.2 1300.77C1128.3 1296.48 1151 1303.97 1152.3 1303.37C1155.7 1303.47 1150.6 1355.33 1151.5 1356.93C1151.5 1357.93 1150.5 1358.63 1149.5 1358.43L1085.4 1345.74C1084.7 1345.64 1084.2 1345.04 1084.1 1344.34C1085 1343.14 1077.3 1311.06 1082.3 1313.36C1083.5 1312.56 1137.3 1330.05 1136.1 1324.95C1135.9 1323.76 1136.7 1320.96 1134.9 1320.56L1079.1 1303.87C1077.5 1304.37 1073.4 1285.38 1072.8 1284.68H1072.9ZM674.2 1296.18C673.7 1294.98 674.7 1293.78 675.9 1293.98L695.7 1296.28C696.1 1294.88 706.9 1312.06 707.3 1312.16C707.5 1312.56 715.3 1332.25 715.5 1332.65C717.5 1336.65 771.8 1303.37 774.3 1303.47C775.2 1302.87 779.6 1304.37 780.5 1304.37C782.1 1304.37 783.7 1310.86 784.5 1311.66C784.8 1312.46 784.5 1313.36 783.8 1313.76L715.8 1352.33C715.4 1352.53 715 1352.63 714.6 1352.53L694.7 1347.94C691.7 1345.74 675.9 1297.97 674.3 1296.18H674.2ZM108.5 1323.36C110.6 1320.46 121.8 1341.04 123 1341.54C123.6 1342.34 123.3 1343.54 122.3 1343.94L106.9 1351.14C106.2 1351.44 105.3 1351.24 104.9 1350.64C98.4 1340.94 98.9 1330.55 108.5 1323.36ZM1253 1334.58C1256.28 1334.65 1261.77 1336.85 1263.3 1337.45C1265.5 1338.05 1266.75 1347.78 1267 1348.94C1268 1353.53 1255.8 1349.04 1254 1348.54C1253.49 1348.4 1252.5 1348.04 1252.28 1346.54C1251.86 1343.77 1250.5 1339.11 1250.5 1338.05C1250.5 1336.05 1250.43 1334.53 1253 1334.58ZM446.1 1329.25C446 1324.95 501.7 1342.44 503.3 1341.74C505.6 1342.04 504.1 1347.94 504.4 1349.34C504.4 1350.34 503.4 1351.14 502.4 1350.94L446.5 1337.95C443.8 1337.55 446.5 1330.85 446.2 1329.35H446.1V1329.25ZM630.8 1289.68C630.6 1288.58 631.6 1287.68 632.6 1287.78C632.9 1288.08 664.6 1291.18 663.3 1292.78C662.3 1293.98 687.3 1351.04 681.2 1349.64C680.5 1349.34 659.7 1348.54 660 1347.24C659.6 1346.34 633.5 1307.67 633.4 1306.67L630.8 1289.68ZM835.5 1291.28C837.4 1289.48 843.5 1298.17 844.8 1298.77C845.6 1299.57 845.4 1300.87 844.4 1301.37C844.4 1302.97 795.5 1324.06 802 1327.05C802.6 1331.65 847.3 1304.67 848.7 1304.87C851.1 1303.17 855.2 1313.06 856.5 1313.86C857 1314.66 856.7 1315.76 855.9 1316.26C854 1315.96 793.6 1349.54 791.8 1346.84L777.2 1331.65C776.5 1330.95 776.6 1329.65 777.5 1329.15L835.6 1291.28H835.5ZM1036.7 1316.96C1037.2 1316.76 1069.1 1326.55 1068.9 1328.05L1072.8 1342.64C1074.8 1349.24 1041.7 1332.75 1040.6 1334.45L1003.7 1345.24C1001 1346.64 998.3 1333.25 997.3 1332.15C994.5 1329.25 1036.3 1317.96 1036.7 1316.96ZM232.3 1290.88C233.2 1290.38 234.3 1290.88 234.6 1291.88C234.6 1292.78 241.5 1311.06 240 1311.46C239.8 1311.76 235.6 1316.76 235.4 1316.66L184.5 1340.64C183.6 1341.04 182.6 1340.64 182.2 1339.64L176.2 1322.26C173.2 1320.56 212.2 1301.67 212.2 1300.97L232.4 1290.88H232.3ZM1221.9 1289.28C1221.9 1289.28 1314.8 1317.66 1315.4 1317.86C1316 1318.06 1316.13 1317.74 1316.13 1319.06C1316.13 1320.38 1316.94 1335.9 1317.1 1340.84C1317.1 1342.54 1316.2 1342.54 1315.3 1342.24C1304.8 1339.14 1262.18 1327.39 1261 1327.15C1258 1326.55 1259.1 1317.06 1256.5 1316.16C1247.4 1313.36 1246.4 1311.46 1247.8 1322.36C1247.8 1323.56 1246.8 1324.36 1245.7 1324.06L1225 1319.06C1224.59 1318.93 1223.82 1318.55 1223.5 1317.06C1221.9 1309.57 1219.78 1291.77 1219.7 1291.28C1219.5 1290.08 1220.4 1288.82 1221.9 1289.28ZM219.1 1269C221.6 1266.5 229.2 1283.09 230.5 1283.78C231 1284.58 230.7 1285.68 229.9 1286.08C227.8 1285.58 133.9 1341.84 131.9 1337.95C131.8 1336.25 124.4 1329.35 127.4 1327.85L219.1 1269ZM306.3 1299.77C307.4 1299.17 367 1312.16 368.1 1312.16C370.4 1311.26 371.5 1333.25 372.1 1334.05C373.9 1339.44 305.5 1323.26 304.5 1324.35H303.7L285.9 1330.65C285.5 1330.75 285.2 1330.75 284.8 1330.65L257.7 1321.26C249 1317.86 307 1300.97 306.3 1299.77ZM1306.5 1274.39C1307.01 1274.56 1350.4 1287.88 1350.4 1287.88C1351.1 1288.08 1351.65 1288.78 1351.6 1289.58C1351.53 1290.69 1351.18 1295.91 1351.05 1298.57C1351 1299.57 1350.04 1299.91 1349.1 1299.67L1327.6 1293.98C1325 1293.38 1324.8 1297.57 1327.1 1298.07C1333.7 1299.77 1355.7 1306.87 1361.8 1308.37C1363.6 1308.77 1363.5 1306.47 1363.4 1305.37C1363.4 1304.37 1362.5 1303.77 1361.6 1303.67C1359.1 1303.37 1360.75 1296.1 1360.8 1294.58C1360.82 1293.81 1361.93 1293.55 1363 1293.44C1369.07 1292.83 1385.96 1300.38 1390.04 1301.83C1391.64 1302.43 1396.17 1305.4 1396.26 1309.01C1396.48 1315.43 1396.2 1323.62 1396.19 1327.22C1396.19 1328.62 1395.29 1328.87 1394.31 1328.61L1374.16 1322.21C1373.59 1321.97 1372.87 1322.21 1372.68 1322.78C1372.5 1323.34 1372.31 1324.19 1373 1324.5C1376.1 1326.15 1391.93 1331.48 1395 1332.16C1395.89 1332.36 1395.96 1332.81 1395.93 1333.41L1395.84 1334.91C1395.79 1335.71 1395.92 1337.02 1393.94 1336.5C1391.97 1335.98 1303.1 1308.17 1303.1 1308.17C1302.4 1307.97 1301.9 1307.27 1301.9 1306.57C1302.2 1295.78 1302.9 1282.19 1304.2 1275.69C1304.5 1274.59 1305.99 1274.22 1306.5 1274.39ZM452 1280.39C452.9 1275.49 471.4 1282.19 474.8 1282.19C486.8 1284.08 486 1285.08 495.3 1292.08C500 1301.07 506.4 1335.55 501.6 1334.55C445.6 1322.16 462.3 1337.95 452.1 1280.39H452ZM512 1290.38C512.9 1285.68 624.8 1314.76 626.9 1313.66C627.9 1312.66 635.9 1331.55 636.4 1331.85C637 1333.05 635.9 1334.45 634.6 1334.15L509 1305.87C508.4 1305.77 507.9 1305.27 507.8 1304.67C504.5 1290.08 505.5 1298.97 512 1290.38ZM61.5 1278.69C62.1 1278.49 62.7 1278.59 63.2 1278.99L89.1 1301.27C89.9 1301.97 89.8 1303.37 88.9 1303.87C87.8 1303.57 48.1 1331.35 47.7 1327.25C24.8 1283.28 13.2 1297.87 61.5 1278.69ZM1010.5 1272.39C1014.1 1268.6 1023.6 1310.37 1024.9 1310.86C1027.2 1313.36 997.4 1323.86 996.8 1324.85C996 1325.25 995.1 1324.85 994.7 1324.06C973.5 1280.89 972.7 1299.57 1010.5 1272.29V1272.39ZM758.9 1279.19C760.3 1278.89 764.5 1279.99 765.5 1280.89L775.8 1295.68C776.4 1296.48 776.1 1297.67 775.2 1298.07L720.8 1324.35C719.9 1324.75 718.8 1324.36 718.5 1323.36C717.1 1319.36 714.3 1310.96 713 1306.87C712.3 1306.07 715 1300.07 715.9 1299.47C716.5 1298.57 758.2 1279.89 759 1279.09L758.9 1279.19ZM421 1304.77C421 1302.17 423.5 1300.27 426 1300.87C426.7 1301.37 445.4 1304.47 444.6 1306.17L448.2 1321.06C448.5 1322.26 447.3 1323.36 446.1 1323.06L421.9 1315.56C419.6 1315.26 421.3 1306.17 420.9 1304.87H421V1304.77ZM133.1 1273.69C134 1270.99 159.8 1297.97 160.6 1297.97C161.4 1298.77 161.2 1300.07 160.3 1300.57L122.6 1321.56C122 1321.86 121.2 1321.86 120.7 1321.36C83.2 1287.68 89.2 1304.57 133 1273.69H133.1ZM1038 1272.89C1038.3 1272.89 1038.6 1272.79 1038.9 1272.89L1062.6 1279.09C1063.2 1279.29 1063.6 1279.69 1063.8 1280.29L1073 1316.76C1073.3 1317.96 1072.3 1318.96 1071.1 1318.76L1036.3 1311.96C1035.6 1311.86 1035.1 1311.26 1035 1310.66L1029.2 1277.39C1028.4 1274.79 1036.9 1273.89 1038.1 1272.99L1038 1272.89ZM374.8 1260.7C374.5 1259.5 375.6 1258.4 376.8 1258.7C378.1 1260 441.6 1273.39 441.4 1276.39C443.4 1304.37 451.3 1301.47 421.6 1296.18C411.9 1294.18 412.2 1308.27 410.7 1314.16C411 1317.86 388.7 1309.87 387.4 1310.37C386.8 1310.27 386.3 1309.77 386.2 1309.17L374.8 1260.7ZM994.1 1249.31C996.2 1247.81 999.8 1254.81 1001 1255.51C1001.5 1257 1010.1 1264.1 1007.3 1265.8C1004.8 1268.3 993.9 1274.29 990.7 1276.19C972 1287.18 932.4 1304.77 912.8 1313.96C911.1 1315.26 905.2 1307.77 904 1307.27C902.7 1304.97 898.6 1301.97 900.8 1299.07C901.2 1297.47 993.2 1250.21 994.1 1249.21V1249.31ZM301.5 1269.3C302.8 1268.4 337.4 1276.89 338.7 1276.69C340.7 1275.89 344 1298.47 344.6 1299.17C344.9 1300.37 343.8 1301.37 342.6 1301.17L322.6 1296.78C322.6 1296.78 301.5 1292.98 301.4 1293.08L253.4 1311.26C249.7 1312.96 250.6 1299.27 249.7 1297.87C249.7 1297.17 250 1296.58 250.6 1296.18L301.4 1269.2H301.5V1269.3ZM351.7 1282.29C351.4 1281.19 352.4 1280.19 353.5 1280.29L370.4 1282.09C372.6 1281.09 376.3 1305.27 377 1306.07C377.3 1307.27 376.3 1308.27 375.1 1308.07L357.9 1304.87C355.9 1305.67 352.3 1283.09 351.7 1282.39V1282.29ZM818.4 1254.61C820.6 1253.31 824.2 1262 825.3 1262.9C825.8 1263.7 825.5 1264.8 824.7 1265.2C824 1266.5 800.5 1275.79 803.5 1278.49C804.4 1279.49 805.5 1282.49 807.4 1281.39L828.3 1269.39C829.2 1268.9 830.3 1269.3 830.6 1270.19C830.6 1271.59 837.8 1283.78 835 1284.58C781.3 1310.86 801.5 1320.76 773.2 1274.39C769.3 1271.39 818.3 1255.7 818.5 1254.51H818.4V1254.61ZM952.9 1191.45C954.6 1188.85 971.7 1214.93 972.8 1215.13C973.4 1215.93 973.2 1217.13 972.2 1217.63C970.9 1217.43 930.2 1241.32 929.7 1237.92C928.6 1237.32 919 1219.03 916.9 1221.03L854.4 1249.61C853.5 1250.01 853.2 1251.11 853.6 1251.91C854.7 1252.31 870.6 1285.78 872.8 1282.89C874 1283.28 907.3 1264.2 906.8 1269.1L910.7 1286.38C911.5 1289.38 871.5 1305.77 870.3 1307.27C869.5 1307.67 868.6 1307.27 868.2 1306.57L836.8 1251.81C834.1 1247.61 952.2 1193.65 952.9 1191.45ZM502.4 1257.9C502.8 1252.01 611 1285.38 613.9 1284.78C614.3 1285.48 618.5 1287.98 618.3 1289.08C618 1291.68 622.3 1304.67 617.5 1304.67C616 1303.07 512 1286.28 512.1 1282.69C505.8 1267.5 505.9 1283.98 502.5 1257.9H502.4ZM1216.2 1271.59C1216.6 1266.2 1290.1 1291.88 1292.6 1292.98C1293.3 1293.18 1293.8 1293.88 1293.8 1294.58C1293.8 1301.57 1295 1304.87 1291.6 1304.37L1217.4 1279.99C1215.2 1279.59 1216.7 1272.99 1216.3 1271.69H1216.2V1271.59ZM1074.9 1249.01C1074.6 1242.21 1205.9 1283.28 1209.5 1284.58C1210.92 1285.1 1211.9 1285.94 1211.9 1288.78C1211.9 1292.58 1212.86 1299.82 1212.5 1301.57C1212.35 1302.28 1211.63 1302.66 1209.5 1302.57C1189.19 1301.71 1081.51 1274.83 1079.7 1276.19C1077.4 1277.19 1075.6 1249.61 1074.9 1248.91V1249.01ZM187.2 1227.93C189.2 1225.73 199.8 1242.51 201 1243.11C203.2 1246.01 191.4 1251.91 190.7 1251.31C172.5 1241.72 150.5 1237.12 135.8 1262.3C133.6 1265.1 132.1 1267.8 129.3 1270.09L91.5 1293.98C90.9 1294.38 90.1 1294.28 89.5 1293.78C89.5 1292.48 63.4 1273.99 68.8 1272.49C70 1272.29 146.9 1233.72 148.3 1234.02C160.5 1236.82 175.6 1235.62 187.2 1228.03V1227.93ZM185.2 1253.51C192.7 1258.5 196.4 1253.61 204.3 1249.41C206.4 1247.51 213.6 1259.7 214.8 1260.3C215.4 1261 215.2 1262.1 214.5 1262.7L170.2 1293.68C169.5 1296.68 142.8 1270.49 142.1 1270.59C138.5 1266.7 149.7 1252.01 160.2 1248.71C168.6 1246.01 178.4 1250.51 185.1 1253.51H185.2ZM1306.6 1242.01C1306.6 1240.92 1307.6 1240.12 1308.7 1240.42C1309.8 1241.82 1382.96 1259.57 1395.19 1264.49C1396.65 1265.08 1396.91 1265.9 1396.95 1267C1397.12 1272.62 1397.22 1287.09 1397.03 1290.28C1396.84 1293.48 1390.3 1292 1388.8 1291.5C1375.4 1286.7 1322 1269.39 1308.5 1265.2C1305.66 1264.32 1305.9 1263.1 1305.9 1261.5L1306.5 1241.91H1306.6V1242.01ZM283.6 1251.81C284.5 1251.31 285.6 1251.81 285.9 1252.81C285.7 1254.21 292.8 1270.29 289.9 1270.79C288.7 1270.29 245.2 1294.18 245.3 1289.88L239.6 1275.49C239.3 1274.69 239.6 1273.79 240.4 1273.39L283.6 1251.81ZM742.3 1256.5C743.2 1256.1 744.3 1256.7 744.5 1257.7C744.3 1259 749.9 1275.19 747.3 1275.49C746.4 1275.69 718.201 1289.98 716.7 1289.98C715 1289.98 704.1 1289.98 704.3 1287.48C703.2 1263.3 695.2 1263.3 716.7 1266.7C717.8 1266.9 741.2 1256.7 742.2 1256.5H742.3ZM493 1281.09C494.2 1275.09 508.9 1278.39 507.4 1284.38C506.2 1290.38 491.5 1287.08 493 1281.09ZM830.9 1201.04C834.7 1201.04 833.5 1207.44 834.9 1210.04C836.7 1217.63 838.4 1225.43 841.4 1232.42C841.8 1233.22 841.4 1234.22 840.6 1234.62L761.1 1270.29C760.2 1270.69 759.1 1270.29 758.8 1269.2L752.9 1248.61C753.2 1244.31 718.3 1261.4 717.2 1260.9C716.8 1261 716.4 1261.1 716.1 1260.9L694.2 1253.81C693 1253.41 691.8 1254.51 692.1 1255.8C694.5 1265.7 696.3 1272.99 696.4 1285.48C696.4 1286.58 695.4 1287.28 694.4 1287.08L630.1 1272.79C628.2 1272.59 628.8 1269 628.5 1267.8C627.1 1251.71 625.7 1235.52 624.2 1219.43C624.2 1218.33 625.2 1217.43 626.3 1217.73L713.9 1240.92C714.9 1241.42 830 1201.04 831 1201.04H830.9ZM1269.8 1278.59C1268.3 1278.09 1267.4 1276.69 1267.5 1275.19L1269.4 1252.01C1269.6 1249.91 1271.6 1248.51 1273.6 1249.11L1294.1 1254.81C1295.6 1255.21 1296.6 1256.6 1296.5 1258.2C1296.2 1263.5 1295.9 1274.79 1294.8 1281.19C1293.7 1287.58 1291.6 1285.48 1289 1284.68L1269.8 1278.69V1278.59ZM976.7 1226.13C979.2 1223.63 987.7 1244.21 988.9 1244.91C989.3 1245.71 988.9 1246.71 988.2 1247.21L923.2 1280.89C922.3 1281.39 921.1 1280.89 920.8 1279.79L916.3 1261.1C915.5 1257.8 975.5 1228.12 976.7 1226.23V1226.13ZM493.8 1221.73C493.5 1220.53 494.6 1219.43 495.8 1219.73L615.1 1248.51C617.6 1247.31 617.5 1277.59 618.2 1278.19C618.6 1283.78 536.9 1256.8 535.1 1257.8C532.5 1257 533.3 1247.71 530.7 1246.81C521.6 1244.01 520.6 1242.11 522 1253.01C522 1254.21 521 1255.01 519.9 1254.71L502.2 1249.51C501 1250.91 494.2 1221.83 493.9 1221.73H493.8ZM454.9 1218.53C454.6 1216.83 487 1225.93 486 1227.03C485.3 1228.12 499 1272.59 495.1 1271.89C489.8 1272.59 488.4 1276.59 484.7 1277.99L452.6 1271.79C451.8 1271.59 451.2 1270.89 451.3 1270.09L453.6 1220.53C453.6 1219.73 454.5 1219.03 455 1218.53H454.9ZM310.3 1242.11C311.3 1241.42 361.6 1255.8 362.6 1255.7C363.1 1255.8 363.5 1256.2 363.7 1256.7L370.3 1274.39C373.9 1281.29 310.1 1260.2 309.6 1261.5C309.1 1261.1 301.6 1264.2 301 1264.3C297.7 1266.3 296.9 1250.11 296 1248.91C294.7 1246.41 309.3 1242.91 310.3 1242.01V1242.11ZM1065.7 1209.64C1065 1202.34 1205 1245.11 1207 1245.81C1209.5 1246.61 1207.3 1273.39 1208 1274.29C1208 1275.39 1207 1276.19 1205.9 1275.89C1204.7 1274.59 1100.7 1249.21 1100.8 1246.41C1100.2 1245.11 1099.7 1234.12 1097.4 1234.42C1096 1234.52 1091.7 1233.12 1091.7 1235.72C1091.3 1237.22 1092.6 1243.91 1089.4 1243.11L1074 1239.32C1072.4 1240.32 1066.1 1210.14 1065.6 1209.64H1065.7ZM1035.4 1231.82C1035.7 1231.72 1036.1 1231.72 1036.5 1231.82L1060.2 1238.92C1060.8 1239.12 1061.2 1239.52 1061.3 1240.12L1068.3 1272.59C1070.7 1278.59 1036.7 1264.3 1035.9 1265.2C1034.4 1265.2 1026 1270.79 1024.8 1268.6L1006.2 1245.21C1002.1 1241.91 1035 1233.02 1035.5 1231.82H1035.4ZM1217.61 1234.73C1223.89 1234.59 1246.32 1241.44 1255 1244.11C1257.1 1244.71 1258.5 1246.71 1258.5 1248.81C1258.5 1255.9 1258.5 1270.89 1258.8 1271.59C1258.8 1272.59 1257.7 1273.19 1256.7 1272.99C1236 1266 1224.2 1262.3 1219.3 1260.9C1216.3 1260.04 1216.6 1259 1216.5 1257.4C1216.3 1253.61 1215.9 1245.91 1215.8 1235.82C1215.8 1235.12 1216.18 1234.76 1217.61 1234.73ZM366 1190.05C366 1188.95 367.1 1188.15 368.2 1188.55L407.1 1201.94C407.7 1202.14 408.2 1202.74 408.2 1203.44L408.7 1212.34C408.7 1213.84 412 1214.63 412.9 1215.33C416.8 1216.83 414.8 1208.64 415.3 1207.14C414.2 1202.04 441.8 1215.03 443 1214.43C443.7 1214.63 444.1 1215.33 444.1 1216.03L442 1268C442 1269 441 1269.79 439.9 1269.49C438.6 1268.1 370.1 1253.51 370.2 1250.51L366.4 1221.33C365.4 1214.24 422.8 1237.72 422.3 1231.12C422.1 1229.92 422.9 1227.13 421.1 1226.73L367 1210.54C364.5 1210.84 366.6 1191.35 366 1190.35V1190.05ZM300.7 1212.74C304.3 1210.44 305.3 1234.32 306.3 1235.22C308.2 1237.32 280.2 1247.01 279.8 1247.91C276.9 1248.11 272.7 1242.61 273 1239.02C273.6 1235.42 279.3 1234.12 282.7 1233.62C284 1233.42 284.7 1231.92 284 1230.82C281 1228.22 267.5 1233.22 265.9 1239.02C263.7 1243.91 270.9 1251.01 268.1 1253.41L237.1 1268.9C236.3 1269.3 235.3 1268.9 234.9 1268.2C234.9 1266.8 229.2 1259.7 231 1258.4C245 1240.42 277.6 1218.53 300.8 1212.74H300.7ZM90.1 1213.74C92.4 1210.84 103 1240.72 103.9 1241.02C105.6 1243.81 65.6 1266.5 64.7 1268.1C60.5 1269.89 41.2 1228.12 43.8 1231.62L90 1213.64L90.1 1213.74ZM909.7 1235.22C912.1 1233.52 915.9 1243.11 917.2 1244.01C917.7 1244.81 917.4 1246.01 916.5 1246.41L879.6 1262.9C876.9 1264.3 875.5 1256.6 874.5 1255.41C874.2 1254.61 874.5 1253.71 875.2 1253.31L909.7 1235.22ZM1214.1 1223.83C1212.9 1223.53 1212 1222.43 1211.9 1221.23L1208.9 1194.75C1208.7 1192.65 1210.6 1190.95 1212.6 1191.45L1264.5 1203.14C1265.9 1203.44 1266.9 1204.64 1266.9 1206.14L1267.1 1218.63C1267.1 1220.23 1268.3 1221.63 1269.8 1222.03L1271.1 1222.33C1273.3 1222.83 1275.3 1221.23 1275.5 1219.03L1276 1210.04C1276 1208.04 1278.1 1206.64 1280.1 1207.24L1396.95 1243.5C1397.93 1243.86 1398.47 1244.89 1398.3 1245.98L1397.92 1256.37C1397.64 1257.65 1396.29 1258.48 1395.02 1258L1302.1 1231.02C1300 1230.42 1297.8 1231.72 1297.5 1233.92L1296.4 1241.82C1296.1 1244.11 1293.8 1245.71 1291.5 1245.01L1214.2 1223.83H1214.1ZM254.1 1188.45C258.9 1185.06 255.5 1223.63 256.5 1224.23C256.9 1225.73 226.8 1252.31 226.2 1253.41C225.5 1254.01 224.5 1254.01 223.9 1253.41C223.3 1251.81 213.1 1244.21 216.2 1242.31C216.9 1240.92 234.2 1231.72 230.6 1229.52C229.7 1228.82 228.3 1226.93 226.9 1228.03C225.6 1228.22 211.6 1240.62 210.3 1237.92C210 1236.52 193.2 1221.63 196.5 1220.03C200.5 1217.23 200.9 1213.44 203.5 1209.94L254 1188.55H254.1V1188.45ZM315.8 1215.03C314.4 1209.54 355.7 1224.93 356.9 1224.13C359.1 1223.53 360 1247.01 360.6 1247.81C360.7 1248.91 359.7 1249.91 358.5 1249.61L319.1 1239.32C318.4 1239.12 317.9 1238.52 317.9 1237.92L315.9 1215.13H315.8V1215.03ZM493.4 1185.66C493.6 1179.66 609.4 1215.43 611.4 1213.94C612.1 1214.14 612.6 1214.73 612.6 1215.43C613.4 1224.23 614.3 1233.82 614.7 1238.32C615.5 1240.42 612 1241.32 610.8 1242.21C602.6 1239.92 525.9 1220.83 493.4 1211.44V1185.76V1185.66ZM100.8 1217.83C100.3 1216.73 101.1 1215.43 102.3 1215.53C103.2 1216.43 146.9 1214.73 145.2 1218.23C148.6 1221.63 114 1238.62 113.1 1240.22C110.3 1243.21 101.9 1218.43 100.8 1217.83ZM996 1171.07C996.7 1170.77 997.6 1170.97 998 1171.57C1006.7 1182.46 1012.9 1181.26 1020.7 1179.86C1026.5 1177.86 1035.4 1179.26 1043.5 1180.06C1044.2 1180.06 1044.9 1180.56 1045.1 1181.26C1045.5 1182.66 1064.6 1234.12 1057.8 1231.62L1045.1 1227.63C1044.9 1227.63 1044.7 1227.43 1044.5 1227.33C1034.9 1217.63 1022 1208.34 1007.7 1213.14C1006.4 1213.54 1009 1215.83 1009.1 1216.33C1015.4 1217.53 1020.6 1214.14 1026.8 1221.13C1027.5 1222.53 1034 1226.83 1030.5 1228.42C1029.5 1228.22 1006.4 1239.72 1006.3 1236.82C1006.6 1234.92 968.9 1183.46 973.2 1182.06L996 1171.07ZM1054.2 1161.37C1053.1 1154.28 1196.5 1198.45 1198.3 1196.75C1199 1196.95 1199.5 1197.55 1199.5 1198.25C1198.4 1199.05 1203.5 1233.22 1198.8 1230.72C1197.6 1229.52 1062.6 1198.65 1062.5 1196.05L1057.1 1175.86C1055.4 1169.97 1104.6 1185.46 1110.8 1184.76C1124.5 1177.76 1050.8 1169.07 1054.2 1161.27V1161.37ZM896.8 1192.95C897.7 1192.55 898.7 1192.95 899.1 1193.85C899.1 1195.35 905.6 1206.54 902.7 1207.34C901.5 1206.74 848.7 1234.22 849.1 1229.42C849.3 1227.93 845 1219.03 847.5 1218.23L896.9 1192.95H896.8ZM183.8 1199.15C212.4 1202.54 168.9 1237.52 158.3 1222.33C154.2 1210.44 173.6 1199.35 183.8 1199.15ZM407.2 1197.15C406.5 1192.55 481.3 1215.73 482.5 1214.53C483.7 1214.73 483.9 1216.63 484.3 1217.53C484.8 1218.83 483.6 1220.03 482.3 1219.63C481.6 1219.03 407.3 1198.35 407.2 1197.15ZM301.3 1169.47C302.3 1168.77 352.9 1182.26 353.9 1182.26C356.3 1181.26 357 1215.43 357.6 1216.13C359.4 1221.43 302.3 1204.64 301.4 1205.64C300 1204.14 265.2 1223.83 265.5 1218.13C263.8 1171.37 256.8 1190.75 301.3 1169.57V1169.47ZM892.5 1177.96C895.3 1176.56 896.1 1184.16 897.1 1185.36C897.4 1186.16 897.1 1187.05 896.3 1187.35C895.1 1186.76 846.2 1214.73 846.5 1209.74C846.8 1208.14 842.3 1199.15 845 1198.45L892.6 1177.96H892.5ZM168.4 1183.36C171.5 1182.66 170.5 1186.56 170.4 1188.35C169.8 1191.05 170.8 1194.55 169.2 1196.75C163.3 1200.35 157.8 1204.54 152.4 1208.74C149.1 1210.14 106 1211.44 113.2 1204.84L168.5 1183.36H168.4ZM432.9 1168.67C433 1167.67 434 1167.07 435 1167.27L482.8 1179.86C483.6 1180.06 484.1 1180.76 484 1181.66C482.4 1187.85 484 1204.54 479.8 1204.74L435.1 1194.05C434.3 1194.05 430.9 1189.45 430.3 1189.05C429.6 1183.56 432.4 1175.96 433 1168.67H432.9ZM950.8 1158.18C951.9 1157.78 953 1158.58 953 1159.67V1178.46C953 1179.06 952.7 1179.66 952.1 1179.96L911.7 1200.94C907.8 1204.14 906.8 1177.66 905.8 1176.76C906.3 1173.07 948.6 1160.07 950.8 1158.18ZM254.5 1149.88C258.9 1146.98 256.2 1175.16 257.1 1175.96C257.1 1176.66 256.7 1177.26 256 1177.56C254.5 1177.36 206.3 1196.95 204.8 1195.35C191.6 1185.56 188.3 1196.95 185.8 1178.16C185.6 1177.36 186 1176.46 186.8 1176.16L254.4 1149.88H254.5ZM1031.8 1132.09C1032.7 1131.4 1195.1 1184.36 1196.1 1184.36C1198 1184.76 1197 1188.35 1197.2 1189.55C1197.2 1190.65 1196.2 1191.45 1195.2 1191.15C1152.4 1180.06 1073 1155.8 1030.5 1149C1016.1 1155.1 979.7 1168.87 973.7 1171.37C970.466 1172.36 967.5 1166 965.035 1159.5C964.449 1157.95 963.935 1156.45 965.539 1155.5C973.986 1150.49 1030.89 1133.48 1031.9 1132.09H1031.8ZM366.2 1151.28C366.2 1150.18 367.2 1149.38 368.3 1149.68L422.6 1164.07C423.4 1164.27 423.9 1165.07 423.8 1165.87C418.7 1199.35 423 1188.05 392.6 1183.76C358.2 1175.86 367.2 1182.86 366.2 1151.28ZM1029.5 1156C1030.73 1155.69 1031.67 1155.78 1032.23 1156.5C1035.04 1160.08 1041.07 1171.97 1041.5 1173C1042.24 1174.77 1042.11 1175.67 1040 1175.5C1014.5 1173.5 1014.78 1181.75 1003.6 1169.77C1001.21 1167.2 1024.59 1157.23 1029.5 1156ZM311.3 1136.69C309.7 1131.6 356.4 1147.58 357.3 1146.68C360 1146.08 357.5 1172.97 358.1 1173.96C358.1 1175.06 357 1175.86 356 1175.56C341.1 1171.17 326.1 1166.97 311.2 1162.47V1136.69H311.3ZM297.3 1144.59C298.4 1144.19 299.5 1144.99 299.5 1146.08L299.7 1161.37C301.3 1163.27 267.3 1173.46 266.8 1174.16C262.9 1175.86 264.8 1161.27 264.1 1159.87C263.5 1157.88 272.8 1155.38 273.8 1154.48C277.9 1153.28 274.3 1160.57 278.3 1159.67C279.4 1158.78 291.5 1156.78 290.9 1154.38C290.4 1146.28 289.7 1147.28 297.3 1144.59ZM298.2 1132.99C301.1 1131.7 301.2 1138.69 299.6 1139.39C295.2 1140.89 264.7 1155.98 264.2 1151.08C264.4 1149.78 263.3 1146.38 265.1 1145.78L298.2 1132.89V1132.99Z" fill="#FFFFFF"/>
<path fill-rule="evenodd" clip-rule="evenodd" d="M1113.1 1022C1147.4 1022.3 1167.4 1036.9 1183.6 1068.1C1205.1 1109.4 1186.2 1152.6 1178.5 1166.1L1177.8 1167.3C1173.4 1174.6 1157.1 1205 1139.4 1231.6C1132.4 1242 1122.9 1250.5 1111.9 1256.2C1105.7 1259.4 1098.3 1256.2 1095.3 1249.9C1078.2 1214.3 1051.2 1158.2 1048.4 1151.9C1033.7 1119.6 1031 1077.6 1048.4 1054.7C1055.4 1046.7 1068.3 1036.6 1084.2 1032.3L1111.4 1022.3C1112 1022.1 1112.6 1022 1113.3 1022H1113.1ZM1112.2 1076.9C1091.6 1096.7 1099.5 1129.9 1125.1 1141.7C1124.3 1142.5 1123.4 1143.1 1122.6 1143.7C1123.5 1143.1 1124.3 1142.4 1125.1 1141.7C1145.8 1124.2 1130.7 1088.7 1112.2 1076.9Z" fill="#7C6576"/>
<path opacity="0.2" d="M1177.8 1167.3C1184.9 1155.5 1205.8 1110.8 1183.6 1068.1C1167.4 1036.9 1147.4 1022.2 1113.1 1022C1112.5 1022 1111.8 1022 1111.2 1022.3L1084 1032.3C1100.2 1028 1119.6 1029.7 1139.3 1045.6C1174.5 1074.1 1175.5 1111.8 1171.8 1135.4C1169.7 1148.7 1165.5 1161.7 1159.3 1173.7C1147.3 1197.1 1124.7 1235 1111.7 1256.1C1122.8 1250.4 1132.3 1242 1139.2 1231.5C1157 1204.9 1173.3 1174.5 1177.6 1167.2H1177.8V1167.3Z" fill="#000000"/>
<path opacity="0.2" d="M1125 1141.7C1099.4 1129.9 1091.5 1096.7 1112.1 1076.9C1084 1058.8 1071.5 1107.1 1084 1129.1C1091.4 1142.1 1111.8 1154.1 1125 1141.7Z" fill="#000000"/>
</svg>
