<svg viewBox="0 0 1400 1400" xmlns="http://www.w3.org/2000/svg">
    <path d="M290.1 98.3L0 212.5V0H1400V212.4L1043 101.4L714.3 203.5L290.1 98.2V98.3Z" fill="#3AADAA"/>
    <path fill-rule="evenodd" clip-rule="evenodd" d="M0 36.5V29.5L59.8 0H73.1C47.3 12.8 0 36.5 0 36.5ZM0 10.7C0 10.7 0 10.9 0 11V0H20.8C13.9 3.5 6.4 7.6 0 10.7Z" fill="#FFFFFF"/>
    <path fill-rule="evenodd" clip-rule="evenodd" d="M1042.7 105.4L1400.1 220V135.6L1321.3 125.9C1320.2 125.9 1319.3 126.7 1319.5 127.8C1318 127.5 1333.4 193.8 1327.2 189.3C1326.1 188 1222 155.5 1222.2 152.9L1213.5 91.3C1213.5 90.3 1214.2 89.3 1215.3 89.4L1275.6 94.4C1276.3 94.4 1276.9 95 1277.1 95.7L1281.6 114.4C1281.8 115.4 1281.1 116.4 1280 116.5H1262.5C1259.6 116.2 1261.3 122.8 1260.9 124.2C1259.1 127.1 1293.7 129.2 1294.3 130C1295.5 130.1 1296.4 129.1 1296.1 128L1288.1 97.1C1287.8 95.9 1288.8 94.8 1290 95.1L1400.1 115.2V103.2L1330.8 89.6C1330.2 89.6 1329.7 89.1 1329.6 88.5L1320.3 59.9C1316.2 52.6 1400.3 81.1 1400.1 79.5V56.9L1391 40.2C1389.1 36.1 1398.8 38.2 1400.1 37.7V26.4C1399.9 26.2 1377.5 25.1 1378 24.1L1361.1 0H1354.1C1355.4 1.7 1363.9 22.3 1358 20.8L1305.7 9C1304.2 9 1301.4 0 1301.4 0H1293.8C1294.4 1.8 1296.8 6.5 1293.3 6.2L1268.9 0H1224.5C1224.5 0 1229.1 21.6 1225 21.2C1216.2 19.9 1180.8 14.4 1168.1 11.9C1165.9 11.9 1165.6 0 1165.6 0H1157.6C1157.6 0 1159.7 7.9 1156.2 7.3C1156.2 7.3 1134 3.3 1134.2 0H1121.7L1124.2 10.5C1124.5 11.7 1123.3 12.8 1122.1 12.5L1097.9 5C1096.2 4.6 1096.6 0 1096.6 0H1088C1088 0 1087.7 4.1 1085.9 3.7L1073.3 0H1021.6C1021.6 0 994.4 25.6 993.4 22.7C992.9 22 967.7 0 967.7 0H949.9C949.9 0 907.7 29 906.5 25.4C894.5 4.2 888.1 9.4 906.9 0H897.1C895.6 0.9 892.5 3 891.9 0H871.3L799.9 31.5C798.9 31.9 797.8 31.3 797.6 30.3L793.8 10.5C791.9 8.2 815.3 0 815.3 0H800.1L776 11.3C772.1 12.7 774.2 4.4 773.8 2.8C773.8 1.5 775.2 0.6 776.1 0H752.4L720.2 14.1C719.1 14.6 717.9 13.7 718.1 12.6L717.7 0H710.8L711.1 12.9C711.1 13.9 710 14.7 709 14.5L640.7 0H598.8L649.6 11.2C650.4 11.4 651 12.1 650.9 13C650.3 14.4 651.4 20.9 648.3 20.2C636.8 18 558.9 0 558.9 0H537.8C537.8 0 650.7 23.7 650.7 26.5L655.2 48.7C655.8 50.3 651.9 52.1 650.8 52C650.2 51.7 547.3 26.7 526 21.5C522 20.5235 522.1 19 522 16.7C521.7 10.3 521.1 0.3 521.1 0H504.2C505.5 0.3 510.9 1.1 510.6 3.4L510.4 13.5C510.4 14.5 509.4 15.3 508.4 15.1L445.7 0H408C408 0 407.8 16.1 408 16.7C408 17.7 407 18.5 406 18.3L323.3 0H284.6L271.1 7.1C267.4 8 270.9 1.8 271.9 0H263.9C262.5 2.5 262.8 10.1 260.5 11.9L194.9 37.6C193.8 38 192.7 37.2 193 36.1V18.8C193 18 193.1 17.5 193.7 17.2L233.7 0H212.3L167.6 18.3C166.3 18.8 165.1 17.6 165.4 16.3L169.6 0H163.9L158.4 22.7C156.5 24.5 0 85.8 0 85.8V95.9C0 95.5 180.4 23.6 180.6 23.4C182.7 22.5 184.5 28.4 182.2 29.2C182.2 29.2 45.4 81.6 45.9 84.5C45.5 85.5 46.3 99.3 44.3 99.3L0 116V122C0.5 121.4 71.4 94.1 72 93.7C73.1 93.3 74.3 94.1 74.2 95.4C73.7 96.3 73.6 118.9 71.6 118.5L0 144.7V150.2C0.5 149.6 68.2 125.1 68.9 124.8C70 124.4 71.2 125.3 71.1 126.4C70.4 132.2 72.3 139.9 69 144.6C46.2 151.6 23 162.2 0 166.8V176.6C20.9 169.6 45.3 162.6 65.4 153.2C66.5 152.7 67.7 153.5 67.7 154.7C67 159.4 67.9 166.5 65.4 170C44.3 178.4 21.8 188.4 0 193.3V203.5C0.2 203.3 27.8 197.1 27.8 197.1C29.1 196.8 29.7 198.7 28.4 199.2C27.6 199.2 0.2 211.4 0 209.4V215L292.4 102.2L713.4 209.5L1042.7 105.4ZM1340 143.2C1338.9 143.1 1338.1 144 1338.2 145L1343.9 191.6C1343.9 192.3 1344.6 192.9 1345.3 193C1346.2 192 1395.1 202.3 1393.1 197.5L1389.8 149.5C1389.8 148.7 1389.1 148.1 1388.3 148L1340 143.1C1340 143.167 1340 143.2 1340 143.2ZM685.4 159.5C684.4 159.2 683.3 160 683.3 161.1C683.8 162 682 189 684.4 188.3L712.6 197.8C712.9 197.9 713.3 197.9 713.7 197.8C714.7 197.1 727 194.3 726.6 192.5C728.7 160.7 736.8 163.1 713.4 166.7C712.8 166.9 685.9 159.5 685.3 159.5H685.4ZM180.8 134.1C179.3 132.2 46.2 183.9 44.6 183.6C43.1 183.9 42.6 189 42 190C41.6 191.3 42.9 192.5 44.2 192C44.2 189.5 193.7 138.4 180.8 134.1ZM776 147.5C776 143 760.8 151.4 759.1 151.1C751.2 154 740.6 156.5 736.9 162.1C734.4 165.3 733.9 173.9 733.5 180.1C734.1 182.1 730.7 191.3 735 190.8L775.6 177.2C778.1 178.1 775.6 148.2 776 147.6C776 147.533 776 147.533 776 147.6V147.5ZM647.9 175C646.8 174.7 645.8 175.5 645.8 176.6C646 177.8 645.2 180.7 647 181.1L667.4 186.4C669.4 186.9 669.6 184.5 669.7 183.1C671.3 180.7 648.6 175.9 647.9 175ZM529.5 116.5C528.4 116.2 527.4 117.1 527.5 118.2C528.2 119.1 527.5 151.4 530.1 150.6L632.4 177C636.4 177.4 632.8 171.4 631.5 171C629.4 170.4 621.5 168.2 617.7 167C616.8 166.8 616.4 165.3 616 164.7C612.2 156.5 675.1 178.6 672 171.9L671.8 152.8C672.4 149.3 530.8 118.1 529.6 116.5H529.5ZM818 132.6C817.7 129.9 814.6 131.5 813 131.9C804.2 134.6 790.7 138.6 784.6 145C783.6 147.3 780.5 176.3 785.1 174L817.8 163C820.3 164.1 817.5 133.1 818 132.5C818 132.567 818 132.567 818 132.5V132.6ZM130 103.7C130.3 102.4 129.1 101.3 127.8 101.7L81.9 118.3C81.3 118.5 80.9 119 80.8 119.6L75.5 160.6C75.5 161.4 75.9 162.2 76.7 162.4C77.6 162.4 80.6 163.8 81.4 163.3L116.6 150.2C118.3 149.8 117.7 145.4 118.1 144.2C118.1 143 117.1 142.1 116 142.5L96.9 148.4C96 148.7 95.1 148.1 95 147.2C95 146.5 95.3 145.9 95.9 145.6L121.2 135.3C121.7 135.1 122 134.7 122.2 134.2L130 103.5V103.7ZM712.8 153.5L681 144.5C679.9 144.2 678.8 145.1 678.9 146.2C679.4 147.5 678.3 153.8 680.6 154L712 161.7C713.2 162.1 773.7 140.8 774.8 140.7L712.8 153.5ZM860 137.5C853.3 138.5 828.6 143.3 826 157.7C825.8 158.8 826.9 159.6 828 159.3C828.5 158.5 864.3 148.6 862.4 146.5C861.8 145.1 863 136.9 860.1 137.5H860ZM773.5 74.5C774.6 69.1 722.1 92.4 721.2 91.5C720.6 91.7 720.1 92.3 720.1 93L718.2 146.4C718.2 147.5 719.2 148.3 720.3 148.1L737.8 143.5C740.8 142.5 737.8 132.9 740.6 131.7C745.8 128.9 744.4 135.3 745.1 138.2C745.1 139.2 746.2 139.9 747.1 139.6L775.4 132.4C778 132.8 776.1 115 776.6 113.9C776.6 112.8 775.5 112 774.5 112.3L735.4 124C733 124.7 732.4 120.3 734.5 119.7L775.4 107.4C778.4 108.4 772.8 75.3 773.4 74.5H773.5ZM1144.5 80.5C1143.3 80.3 1142.4 81.4 1142.7 82.5L1153.2 128.9C1153.2 129.5 1153.7 129.9 1154.3 130.1L1203.3 146.9C1204.5 147.3 1205.6 146.4 1205.5 145.2L1199.3 90C1199.3 89.3 1198.6 88.7 1197.9 88.6L1144.6 80.5H1144.5ZM410.6 85.3C405.8 85.3 406.9 109.3 405.9 117.4C405.9 118.2 406.4 118.9 407.1 119.1C408.2 117.6 518.6 151.7 514.9 144.5C514.7 143.5 514.1 142.4 513 142.2L489.1 137.3C487.3 136.9 487.8 134.1 489.6 134.4C516.6 137.1 515.6 147.5 513.5 116.7C513.2 115.1 513.9 113.2 512.3 112.5C502 108.5 489.6 105.8 478.6 103.9C475.5 103.2 476.7 111.3 476.2 112.8C476 115.3 480 114 479.9 116.4C479.9 117.6 480.1 119.8 478.3 119.4C471.2 118 443.3 110.5 435.6 109C433.3 108.7 433.4 104.4 436 104.9L463.1 110.9C464.1 111.1 465 110.4 465.1 109.4L465.6 100.8C465.6 100 465.1 99.3 464.4 99.1L410.7 85.4H410.6C410.6 85.4 410.6 85.3667 410.6 85.3ZM527.4 77.4C526.4 77.1 525.3 77.9 525.3 79C525.8 80 523.8 108.1 526.3 107.5L665.6 145.7C666.8 146 667.9 144.9 667.6 143.7C667.1 143.2 660.8 113 659.2 114L643.8 110.2C640.6 109.4 642 116.1 641.5 117.6C641.5 118.5 640.7 119.2 639.7 119.2C638.4 118.9 634.5 119.6 634.3 117.6L632.4 107C632.4 104.2 528.5 78.8 527.3 77.5L527.4 77.4ZM184.3 110.7C165.4 113.9 146.4 118.3 130 127.1L127.2 143.5C127 144.7 128.2 145.8 129.4 145.3L184.1 125.1C184.7 124.9 185.1 124.3 185.2 123.7L186.2 112.4C186.2 111.4 185.4 110.5 184.4 110.6H184.3C184.3 110.6 184.3 110.633 184.3 110.7ZM671 85.1C670 85.1 669.1 85.8 669.2 86.8C669.2 87.3 670.8 114.2 671 114.7L677.4 135.6C677.6 136.1 678 136.5 678.5 136.7L706 145.1C707 145.4 708.1 144.7 708.1 143.6L710.2 94.1C710.2 93.3 709.7 92.6 708.9 92.4C704.1 91.4 675.2 84.7 671 85V85.1ZM921.8 99.5C921.3 99 920.6 98.7 919.9 98.9L870.8 112.8C870.1 113 869.6 113.7 869.6 114.4C871.4 155 861.7 147.1 900.2 135.7C903 134.8 899.1 130.8 902.1 130L944.9 120C945.7 119.8 946.2 119.1 946.2 118.3L945.5 105.9C945.5 105 944.7 104.4 943.9 104.3C935.1 104.3 926 104.1 921.9 99.5H921.8ZM861.8 118.1C861.8 117 860.6 116.2 859.6 116.6L828.1 127.9C825.8 127.9 828.1 141.5 827.8 142.7C827.8 143.9 829.3 144.7 830.3 144C861.9 123.1 863.6 144.4 861.8 118.1ZM862 72.7C861.5 71.6 860.4 70.8 859.3 71.2L785.3 97.9C782.9 97.1 785 130.7 784.4 131.4C784.4 132.5 785.5 133.3 786.6 132.9L860.7 107.4C861.4 107.2 861.8 106.5 861 105.8L862 72.8C862 72.8 862 72.7667 862 72.7ZM279.6 91.5C279.4 90.5 278.3 89.9 277.3 90.3L196.8 121.9C194.7 123.7 195.7 127.1 194.8 130.1C194.6 131.4 195.9 132.3 197 131.9L208 127.5C208.2 127.5 208.3 127.2 208.4 127.1L277.2 99.6C278.8 98.4 279.6 96.2 279.9 94.6C279.9 93.8 279.7 92.4 279.5 91.5H279.6ZM1033.3 50.5C1031.9 50.2 1030.8 51.6 1031.4 52.8L1053.9 97.2C1054.4 98.8 1138.2 129 1139.3 129.9C1140.6 130.4 1141.8 129.2 1141.5 127.9L1126.6 75C1126.6 72.5 1034.6 51.6 1033.4 50.5H1033.3ZM162.1 92.5C162.3 91.3 161 90.3 159.9 90.8C159.5 91.3 135.7 99.8 136.9 100.9L134.3 115C134.1 116.3 135.3 117.3 136.5 116.8C136.9 116.3 161.6 107.3 160.4 106L162.2 92.5H162.1ZM972.6 88.3C972.1 87.7 954.5 100.1 955 100.9C954.5 105.3 954 109.8 953.4 114.9C953.1 116.1 954.3 117.2 955.5 116.8L1013.5 97.3C1015.2 96.7 1014.9 94.4 1013.2 94.1L972.4 88.2H972.6V88.3ZM302.4 80.6C302.2 79.9 290.3 85.2 289.9 85.2C289.3 85.5 288.9 86.1 288.9 86.8C288.3 98.6 290.7 94 298.7 91.5C300.5 90.2 352.1 112.3 395.1 117.5C397.1 117.9 396.4 113 395.4 112.8C394.4 112.6 367.8 107 360.8 105.5C360 104.9 360.6 103.5 361.6 103.7L393.7 110.4C394.7 110.6 395.7 109.8 395.7 108.8C395.4 107.5 396.4 104.7 394.5 104.3L302.4 80.7V80.6ZM279.1 69.9C279.1 68.7 277.9 67.9 276.8 68.4C275.8 69.7 197 98.9 197.4 101.4C197.8 103 194.8 112 198.9 110.8L278 80.9C280.1 80.6 278.7 71.2 279.1 69.9ZM280.8 11.9C280.5 4.6 89.1 89.1 86.9 87.5C84.8 87.9 86.1 97.1 85.6 98.4L84.4 107.4C84.2 108.6 85.4 109.6 86.6 109.2L120.5 97.1C121.1 96.9 121.5 96.4 121.6 95.8L123.7 80.8C123.7 79.7 125.2 79.3 125.9 78.9C127 78.3 128.2 79.1 128.3 80.3L128.9 93.5C127.6 99.6 188.3 69.2 189.1 70.2C190.5 69.9 197.8 53.9 199.2 53.6L278.8 21.7C279.4 21.5 279.8 21 279.8 20.3L280.7 11.8L280.8 11.9ZM526 51.9C525 51.7 524 52.4 524 53.5C524.2 54.5 522.7 70.5 524.4 70.5L529.7 73.4C529.7 73.6 656.7 108.8 656.8 108.9C657.8 109.2 658.8 108.5 658.9 107.4L660 85.2C660.8 81.4 527.2 53.6 526 52V51.9ZM189.2 81.5C189.2 80.3 188.1 79.4 187 79.8C186.3 80.4 168.8 85.3 169.6 86.9L166.8 104.4C166.6 105.6 167.8 106.6 168.9 106.2C191.8 97.5 187.1 106.4 189.1 81.5H189.2ZM413.3 51.4C412.3 51.2 411.3 51.9 411.3 53C411.9 54.1 409.7 75.6 412.3 75.1L510.1 103C511.2 103.3 512.3 102.5 512.2 101.3L511 75.4C511.4 72.1 414.6 52.8 413.3 51.4ZM901.8 40.2C901.2 39.4 900.1 39.2 899.3 39.9L870.5 66.4C870.2 66.7 870 67.1 870 67.6L869.7 96C869.7 97.1 870.7 97.9 871.7 97.6L920 87C920.7 86.8 921.2 86.3 921.3 85.6C921.9 81.9 923.5 79.5 928.4 75.6C929.1 75 929.3 74 928.7 73.2C927.6 72.7 915.1 53.4 913.3 55.7L897 64.2C895.8 64.8 894.4 63.8 894.6 62.5C893.7 60.4 907.1 54.1 908.3 52.9C909.1 52.4 909.3 51.3 908.8 50.6L901.7 40.1C901.7 40.1 901.7 40.1333 901.7 40.2H901.8ZM964.4 67.5C958.1 65.8 949.9 68.3 943.9 70.5C931.4 76.9 921.3 85.5 926.9 93.7C932.8 100.9 948.5 97.4 954.7 94.1C970.1 87.1 980 71.9 964.5 67.5H964.4ZM368.3 59.5C367.3 59.3 366.4 60 366.3 60.9L363.7 87.4C363.7 88.2 364.1 88.9 364.9 89.2C365.7 88.9 392.9 95.5 395.2 96.1C396.2 96.5 397.1 93.9 397.1 93.1L399 68C400.8 65.3 368.9 60.3 368.3 59.5ZM181.3 33.2L51.5 84.1C49.3 84.6 51 92.1 50.6 93.4C50.6 94.6 51.8 95.3 52.9 94.9L97.7 77L183 42.8C185.2 42.2 184.8 33.2 181.3 33.2ZM240.5 46.5C240.3 45.4 239.2 44.8 238.2 45.3C233.4 47.5 206.8 60 202.6 61.9C202.1 62.1 201.7 62.6 201.7 63.2L198.4 91.7C198.3 93 199.5 93.9 200.7 93.4L279.2 60.5C281.5 60 278.8 51.4 279 50.1C278.9 49 277.7 48.4 276.8 48.8L245.2 61.6C244.2 62 243.1 61.4 243 60.3L240.7 46.5H240.5ZM812.6 59.5C812.4 58.4 811.3 57.8 810.4 58.2L783.1 69.2C780.4 68.9 785.4 90.3 785 91.3C785 92.3 786.2 93 787.2 92.6L814.7 83.1C817.6 83.6 812.2 60.5 812.7 59.5H812.6ZM1024.3 53.5C1024.7 48.7 981.7 73.6 980.8 73C980.4 73.2 980.1 73.6 980 74C980 75.5 977.3 79.7 980 80.2L1034.5 90.4C1035.7 90.6 1036.8 89.4 1036.4 88.2L1024.4 53.5H1024.3ZM663.7 29.5C663 29.3 662.2 29.7 661.9 30.3C661.7 31.1 659.8 33.6 660.1 34.5L666 74.9C666.3 76.2 670.9 79.8 672 80.4L708.9 87.9C714.1 91.4 703.8 39.5 704.9 39.3C704.9 38.6 704.3 38 703.6 37.9L663.8 29.5H663.7ZM1138.2 14.4C1132.4 14.2 1142.3 27 1136.4 26.7L1125.2 24.1C1123.9 23.8 1122.8 25 1123.3 26.3C1133.8 51.7 1124.7 46.5 1146.5 51.2C1149.1 51.6 1153.9 71.4 1156.7 71.5L1208.9 75.2C1210.1 75.2 1211 74.1 1210.6 73L1204.6 57.4C1204.4 56.8 1203.9 56.4 1203.3 56.4L1165.1 51.6C1163.4 51.6 1162.6 46.8 1161.9 45.8C1161.4 44.6 1162.4 43.4 1163.7 43.6L1210.7 51.3C1212.2 50.4 1219.6 74 1220.2 74.5C1220.5 77.1 1314.8 86.4 1316.1 87.4C1317.3 87.4 1318.3 86.4 1317.8 85.2L1306.2 52.3C1305.9 49.9 1239.7 37.4 1238.4 36.3C1237.3 36.1 1236.3 37 1236.4 38.1L1239.2 59.6C1239.2 60.6 1238.6 61.5 1237.6 61.5H1233C1230.4 63 1227 32.7 1226.2 31.9C1226.2 28.8 1139.4 15.8 1138.1 14.5C1138.1 14.4333 1138.1 14.4333 1138.1 14.5L1138.2 14.4ZM761.2 24.8C761 23.8 759.9 23.3 758.9 23.7L744.1 30.4C743.5 30.7 743.1 31.2 743.1 31.9C743.8 41.7 739.7 51.7 730.6 56.2C729.8 57.1 715.9 62.6 717 64.5L719.8 83.6C719.8 84.6 721 85.2 721.9 84.9L770.4 69.1C771.2 68.8 771.7 68 771.5 67.1L761.1 24.7C761.1 24.7667 761.1 24.8 761.1 24.8H761.2ZM303 39.5C302.6 38.9 294 42.6 293.5 42.6C292.8 42.8 292.4 43.5 292 44.2V72.2C293.2 76 300.1 71.6 302 72.2C303.2 71.4 354.2 87.1 353.5 82.7L358 55.8C358.1 55 357.6 54.2 356.8 53.9L303 39.4V39.5ZM893 23.6C892.5 23.3 891.9 23.2 891.4 23.4L859.1 36.9C857 37.6 858.9 41.4 859.1 42.7C861.2 56.9 861.7 51.3 847.5 58.3C846.1 58.9 844.7 57.4 845.4 56.1L853.1 52.6C855.1 51.9 853.1 47.3 853.3 46C853.3 45 850.3 43.2 849.7 42.5C849.2 42.1 848.6 42 848 42.3C847.5 43.1 820.2 53.4 822 55.4L825.7 78.3C825.9 79.3 826.9 79.9 827.9 79.6C828.6 79.2 860.6 67.4 861.1 66.8L896.4 33.9C898.1 32.9 894.6 26.4 894.6 25.2C894.6 24.5 893.5 24.1 893 23.7V23.6ZM577 39.4C576.5 39.1 575.5 39.9 575 41V57.1C575.3 57.9 575.8 58.5 576.6 58.7L654.4 76.2C655.6 76.5 656.7 75.3 656.3 74.1L651.9 59.2C651.9 56.8 578.7 40.4 577 39.3C577 39.3 577 39.3333 577 39.4ZM301 2.3C298 -0.2 293.7 31.8 292.7 32.3C292.5 33.2 293.1 34.1 294 34.3L396.2 56.5C397.1 56.7 398 56.1 398.2 55.2L400.4 42.3C400.6 41.4 401.5 40.7 402.4 41L509.2 68.1C510.1 68.3 511.1 67.7 511.2 66.8L513 55.5C513 54.7 512.6 53.9 511.8 53.6C509.7 55 374.7 13.1 374.2 18.7L373.4 32.2C373.4 33.2 372.4 33.9 371.4 33.7C370.2 33.1 363.1 33.2 363.4 30.8L363.1 15.7C363.1 14.9 362.5 14.3 361.8 14.1L300.9 2.3H301ZM960 4.8C959.5 4.2 958.6 4 957.9 4.4L912.5 30.7C907.6 31.2 938.3 65 937.9 66C938.4 66.6 939.1 66.8 939.8 66.5C954.4 60.8 962.5 61.1 975.7 65.5C976.1 65.5 976.6 65.5 976.9 65.5L1019.2 45.2C1021.2 45.9 1019.7 15.6 1020.1 15C1020.1 13.6 1018.5 12.9 1017.5 13.7C996.1 29.9 969.3 55.9 940 44C939 43.2 927.9 41.1 928.4 38.9C928.4 37.8 929.3 36.9 930.4 37.1L940.6 39.7C956.2 43.6 972.8 39.7 985.1 29.5C985.9 28.8 985.8 27.6 985.1 27C984.7 27 966.5 12.9 966.4 14.3C964.6 14.4 957.6 18.1 956.6 15.7C954.2 13 961 11.7 962.2 10.7C965 9.3 960.9 6.2 960.1 4.9L960 4.8ZM826 26.5C826.6 21.5 778.8 45.7 777.8 45C775.4 45 779 61.7 778.6 62.9C778.6 64 779.8 64.7 780.9 64.2L828.7 44.6C829.4 44.3 829.9 43.5 829.7 42.7L826 26.6C826 26.5333 826 26.5 826 26.5ZM1234.4 2C1233.2 1.7 1232.2 2.8 1232.4 3.9L1236.7 25.4C1236.7 28.3 1388.3 60 1389.6 61.2C1391.1 61.5 1392.2 59.7 1391.2 58.5L1369 32.2C1368.5 31.1 1235.3 2.5 1234.4 2ZM1082 38.2C1080.6 37.9 1079.6 39.3 1080.2 40.6L1085.2 50.1C1085.4 50.5 1085.8 50.8 1086.3 50.9L1119.6 58C1121 58.3 1122.1 56.8 1121.4 55.5L1115.5 45.6C1115.3 45.2 1114.9 44.9 1114.4 44.8L1082 38.2ZM735.2 35.5C735.2 34.4 734.1 33.7 733.1 34L715.9 40.2C715.2 40.5 714.7 41.2 714.8 42L716.5 55.6C716.7 57 718.2 57.3 719.3 56.7C728.5 53.6 734.7 45.1 735.1 35.5H735.2ZM523 28.5L522.5 45.3C520.4 47.6 561.1 55.3 561.4 56C562.5 56.3 563.5 55.4 563.4 54.3L562 37.3C562 36.6 561.4 36 560.8 35.8L525 27C525 27 523 27.4 523 28.5ZM279.9 31.5C279.9 30.3 278.6 29.6 277.5 30.1L248.9 44C247 44.5 248.5 51.9 248.2 53.1C248.2 54.3 249.4 55 250.5 54.6L279.4 41.8C281.5 41.3 279.5 32.8 279.8 31.5H279.9ZM1031.8 3.4C1030.9 3.4 1030.2 4.1 1030.2 5C1030.8 5.9 1026.7 41.5 1029.6 40.6L1064 49.7C1065.2 50 1066.3 48.9 1066 47.7L1054.4 4.7C1054.2 4 1053.5 3.5 1052.8 3.5H1031.8C1031.8 3.5 1031.8 3.46667 1031.8 3.4ZM420.1 1.9C419.1 1.7 418.1 2.4 418.1 3.4L417 17.9C417 18.7 417.5 19.4 418.2 19.6L507.5 42.9C508.5 43.2 509.5 42.4 509.6 41.4L510.6 25.6C510.6 24.8 510.1 24.1 509.4 23.9L420.1 1.9ZM783.7 15.5C783.4 14.6 782.4 14.1 781.5 14.4L768.9 19.3C766.1 19.1 771.9 40.1 771.6 41.2C771.8 42.3 772.9 42.9 773.9 42.4L788.1 35.7C791 35.7 783.5 16.7 783.7 15.5ZM881 2C881.4 -2.3 838.5 19.6 837.6 19C834.5 21 840.1 34.1 840.8 37C841.1 37.9 842.1 38.4 843 38L881.9 21.9C882.4 21.9 885.8 17.8 886.2 17.5C888 16.8 881 3.1 881 2ZM1069.9 6.5C1068.6 6.2 1067.4 7.5 1068 8.7L1076.5 28.7C1076.7 29.2 1077.1 29.6 1077.7 29.7L1110.8 36.9C1112 37.2 1113 36.1 1112.8 34.9L1108.6 17.3C1108.6 16.7 1108 16.2 1107.4 16.1L1070.1 6.5H1069.9ZM660.8 13.1C659.8 12.9 658.9 13.7 658.9 14.7C659.4 16.1 657.6 22.5 660 22.9C663 23.9 707.8 35 712.3 36.2C713.2 36.6 715.7 34.9 716.5 34.6C718.1 34.4 718.1 25.3 718.6 24.3C718.6 23.4 718.1 22.6 717.2 22.5L686.6 17.6L660.9 13.2C660.9 13.1333 660.9 13.1 660.9 13.1H660.8ZM764.9 5.6C765.2 4.3 763.9 3.2 762.7 3.7L725 19C723.1 19.4 724.1 27 723.7 28.2C723.5 30.2 727.7 30.6 729 30.4L761.7 16.2C762.2 16 762.5 15.6 762.6 15.1L764.9 5.6Z" fill="#FFFFFF"/>
</svg>
