<?xml version="1.0" standalone="no"?>
<!DOCTYPE svg PUBLIC "-//W3C//DTD SVG 1.1//EN" "http://www.w3.org/Graphics/SVG/1.1/DTD/svg11.dtd" >
<svg xmlns="http://www.w3.org/2000/svg">
<metadata>
This is a custom SVG webfont generated by Font Squirrel.
Copyright   : Copyright c 20102011 by tyPoland Lukasz Dziedzic with Reserved Font Name Lato Licensed under the SIL Open Font License Version 11
Designer    : Lukasz Dziedzic
Foundry     : tyPoland Lukasz Dziedzic
Foundry URL : httpwwwtypolandcom
</metadata>
<defs>
<font id="LatoBoldItalic" horiz-adv-x="1160" >
<font-face units-per-em="2000" ascent="1610" descent="-390" />
<missing-glyph horiz-adv-x="386" />
<glyph unicode="&#xfb01;" horiz-adv-x="1112" d="M443 1017h590l-123 -1017h-243l104 841h-340l-98 -800l-50 -188q-13 -49 -43.5 -75.5t-84.5 -26.5h-99l134 1089l-76 14q-25 5 -39.5 16.5t-14.5 34.5l11 112h141l4 33q11 94 49.5 173.5t105 138t160.5 91.5t217 33q39 0 82 -4.5t72 -14.5l-24 -123q-5 -23 -26.5 -26.5 t-51.5 -3.5q-92 0 -155.5 -16.5t-105 -50t-63.5 -84t-30 -118.5z" />
<glyph unicode="&#xfb02;" horiz-adv-x="1138" d="M432 841l-99 -800l-50 -188q-13 -49 -43.5 -75.5t-84.5 -26.5h-99l134 1089l-76 14q-25 5 -39.5 16.5t-14.5 34.5l12 112h139l6 45q10 82 43 156.5t89 131.5t135 90.5t182 33.5q78 0 148 -6t140 -6h160l-180 -1462h-239l156 1286q-43 5 -86 9.5t-83 4.5q-99 0 -160 -60 t-73 -178l-5 -45h217l-20 -176h-209z" />
<glyph unicode="&#xd;" horiz-adv-x="0" />
<glyph horiz-adv-x="0" />
<glyph horiz-adv-x="0" />
<glyph unicode=" "  horiz-adv-x="386" />
<glyph unicode="&#x09;" horiz-adv-x="386" />
<glyph unicode="&#xa0;" horiz-adv-x="386" />
<glyph unicode="!" horiz-adv-x="668" d="M566 1446l-70 -573q-11 -91 -31 -178.5t-46 -186.5h-161q0 20 -0.5 39.5t-0.5 38.5q0 75 3.5 145t12.5 142l70 573h223zM154 136q0 31 11.5 59t31.5 48t48 32t60 12t59.5 -12t48 -32t32.5 -48t12 -59q0 -32 -12 -59.5t-32.5 -47.5t-48 -31.5t-59.5 -11.5t-60 11.5 t-48 31.5t-31.5 47.5t-11.5 59.5z" />
<glyph unicode="&#x22;" horiz-adv-x="784" d="M441 1445l-36 -288l-40 -157q-11 -42 -31.5 -65t-62.5 -23q-35 0 -51.5 23t-21.5 65v157l36 288h207zM786 1445l-36 -288l-40 -157q-11 -42 -31.5 -65t-62.5 -23q-35 0 -51.5 23t-21.5 65v157l36 288h207z" />
<glyph unicode="#" d="M809 409l-127 -409h-110q-26 0 -43 19t-17 48q0 14 5 32l97 310h-211l-99 -322q-14 -47 -47.5 -67t-70.5 -20h-106l128 409h-119q-27 0 -42 12t-15 39q0 17 8 46l21 75h192l88 284h-216l30 98q11 38 37.5 55.5t78.5 17.5h116l103 328q12 38 43 59.5t69 21.5h109 l-129 -409h210l128 409h107q30 0 49 -17t19 -43q0 -13 -4 -24l-103 -325h205l-32 -99q-12 -37 -37 -54.5t-76 -17.5h-106l-88 -284h147q28 0 43 -11t15 -39q0 -17 -8 -46l-22 -76h-220zM448 581h211l88 284h-210z" />
<glyph unicode="$" d="M406 -9q-115 15 -211.5 63t-159.5 120l87 109q11 14 28 23t36 9q21 0 43.5 -16t52 -37t69 -42.5t95.5 -31.5l94 459q-63 19 -124 43.5t-109 63.5t-78 97.5t-30 144.5q0 87 35 168t101 144.5t160 104t212 45.5l26 127q5 24 25 42.5t47 18.5h88l-40 -196 q104 -17 175.5 -59.5t120.5 -97.5l-68 -87q-15 -20 -29.5 -29.5t-34.5 -9.5q-15 0 -34.5 10t-44 24t-56 28t-70.5 23l-87 -424q43 -14 86 -29t82.5 -34.5t73 -44t58.5 -57.5t39.5 -75t14.5 -96q0 -98 -36.5 -186.5t-104.5 -156.5t-165.5 -111.5t-219.5 -51.5l-31 -151 q-5 -23 -25 -41.5t-47 -18.5h-88zM846 434q0 34 -12.5 60t-35 46t-53 35t-66.5 28l-85 -418q122 14 187 80.5t65 168.5zM428 1049q0 -34 12 -60t33 -47t50 -37t64 -30l78 381q-63 -7 -108 -26t-73.5 -46.5t-42 -62t-13.5 -72.5z" />
<glyph unicode="%" horiz-adv-x="1483" d="M753 1150q0 -96 -31 -172.5t-81.5 -130t-115 -82t-131.5 -28.5q-60 0 -110 21.5t-85 61.5t-54.5 96.5t-19.5 126.5q0 95 28 172t76.5 131t114 83.5t139.5 29.5q60 0 110 -21.5t85.5 -62t55 -97.5t19.5 -128zM568 1149q0 84 -29.5 120t-74.5 36q-33 0 -61.5 -14.5 t-49.5 -46t-32.5 -81t-11.5 -120.5q0 -41 7.5 -70t21.5 -47t33 -26t42 -8q32 0 60.5 13.5t49.5 44t33 79.5t12 120zM1225 1407q14 14 32.5 26t49.5 12h173l-1166 -1409q-13 -16 -32 -26t-45 -10h-176zM1415 395q0 -96 -31 -172.5t-81 -130t-115 -82t-132 -28.5 q-60 0 -110 22t-85 61.5t-54.5 96t-19.5 125.5q0 96 28 173.5t76.5 131.5t114 83.5t139.5 29.5q60 0 110 -22t85.5 -62.5t55 -97.5t19.5 -128zM1231 394q0 84 -30 119.5t-75 35.5q-33 0 -61.5 -14.5t-49.5 -46t-32.5 -81t-11.5 -120.5q0 -81 29 -116t75 -35q33 0 61.5 13.5 t49.5 44t33 80t12 120.5z" />
<glyph unicode="&#x26;" horiz-adv-x="1316" d="M728 1461q76 0 138 -23t105.5 -65t67.5 -101t24 -132l-142 -28q-14 -3 -24 -3q-36 0 -46 40q-7 28 -19 51.5t-30 41t-41.5 27.5t-54.5 10q-42 0 -75.5 -17t-57 -46.5t-36 -69t-12.5 -84.5q0 -48 17.5 -99.5t60.5 -107.5l296 -384q33 60 56.5 125t36.5 134q5 23 16.5 37 t36.5 14h167q-17 -133 -65.5 -253t-121.5 -220l238 -308h-207q-29 0 -49.5 3.5t-37 12t-30 21.5t-28.5 32l-52 68q-93 -72 -200 -112.5t-224 -40.5q-92 0 -165 25.5t-124 73t-78 115t-27 151.5q0 77 24.5 145.5t68 126t103 103.5t128.5 78q-32 63 -47 125t-15 119 q0 85 30 160.5t85 132t133.5 89.5t176.5 33zM286 381q0 -97 51.5 -152t148.5 -55q72 0 138 28.5t124 79.5l-296 391q-89 -58 -127.5 -132.5t-38.5 -159.5z" />
<glyph unicode="'" horiz-adv-x="441" d="M441 1445l-36 -288l-40 -157q-11 -42 -31.5 -65t-62.5 -23q-35 0 -52.5 23t-20.5 65v157l36 288h207z" />
<glyph unicode="(" horiz-adv-x="552" d="M302 433q0 -69 5.5 -146t17 -154.5t28.5 -151t41 -136.5q7 -18 7 -35q0 -22 -11.5 -35.5t-28.5 -23.5l-113 -63q-41 85 -70 177t-47.5 185.5t-27.5 186t-9 178.5q0 149 18.5 289.5t62.5 280.5t118 283.5t185 298.5l99 -63q11 -8 19 -18t8 -25q0 -10 -4 -22.5t-14 -28.5 q-68 -114 -121 -227.5t-89 -232.5t-55 -247t-19 -270z" />
<glyph unicode=")" horiz-adv-x="552" d="M284 822q0 69 -5.5 146t-17 154.5t-28.5 151t-41 136.5q-7 18 -7 35q0 22 11.5 35.5t28.5 23.5l113 63q40 -85 69.5 -177t48 -185.5t27.5 -186t9 -178.5q0 -149 -18.5 -289.5t-62.5 -280.5t-118 -283.5t-185 -298.5l-99 63q-11 8 -19 18t-8 25q0 10 4 22.5t14 28.5 q68 114 121 227.5t89 232.5t55 247t19 270z" />
<glyph unicode="*" horiz-adv-x="736" d="M348 840l23 184q2 20 6.5 37.5t12.5 34.5q-13 -13 -28 -22.5t-32 -20.5l-155 -94l-44 97l155 93q19 11 37.5 18.5t37.5 9.5q-38 6 -68 28l-133 94l68 97l133 -95q14 -11 27.5 -21.5t22.5 -24.5q-3 10 -4 20t-1 21q0 8 0.5 16t1.5 16l23 186h114l-23 -184q-2 -20 -7 -38 t-13 -34q11 11 25 20.5t29 18.5l162 98l44 -97l-155 -93q-36 -22 -73 -28q17 -3 33.5 -10t32.5 -18l132 -94l-67 -96l-133 94q-14 11 -27.5 21t-22.5 22q5 -22 5 -42q0 -7 -0.5 -14t-1.5 -14l-24 -186h-113z" />
<glyph unicode="+" d="M759 1172l-51 -412h392l-22 -177h-391l-51 -414h-194l51 414h-389l22 177h389l51 412h193z" />
<glyph unicode="," horiz-adv-x="450" d="M40 152q0 28 10.5 52.5t29.5 43t45.5 29t58.5 10.5q38 0 66.5 -13.5t47 -37t28 -54t9.5 -64.5q0 -48 -14.5 -101t-42.5 -106t-69 -103t-95 -92l-43 39q-18 15 -18 36q0 15 17 34.5t38.5 45t42.5 58.5t30 74q-32 0 -57.5 11.5t-44.5 31.5t-29 47t-10 59z" />
<glyph unicode="-" horiz-adv-x="664" d="M118 703h481l-25 -199h-480z" />
<glyph unicode="." horiz-adv-x="450" d="M34 136q0 31 11.5 59t32 48t48 32t59.5 12t59.5 -12t48 -32t32.5 -48t12 -59q0 -32 -12 -59.5t-32.5 -47.5t-48 -31.5t-59.5 -11.5t-59.5 11.5t-48 31.5t-32 47.5t-11.5 59.5z" />
<glyph unicode="/" horiz-adv-x="724" d="M151 -7q-21 -44 -60.5 -67t-75.5 -23h-102l703 1468q20 41 54.5 62.5t77.5 21.5h100z" />
<glyph unicode="0" d="M696 1461q98 0 179.5 -37t140 -110.5t91 -184t32.5 -257.5q0 -225 -49 -392t-134 -277.5t-199 -164.5t-244 -54q-98 0 -179.5 37t-140 110.5t-91 184t-32.5 257.5q0 225 49 392t134 277.5t199 164.5t244 54zM545 182q72 0 135 42t109.5 127t73.5 213.5t27 302.5 q0 112 -18.5 188t-50 122.5t-72.5 66t-85 19.5q-72 0 -135 -42t-109.5 -127t-73.5 -213.5t-27 -302.5q0 -112 18.5 -188t50 -122t72.5 -66t85 -20z" />
<glyph unicode="1" d="M233 179h295l108 883l19 84l-243 -186q-14 -11 -27 -15t-25 -4q-20 0 -35.5 8.5t-21.5 19.5l-61 104l484 375h197l-157 -1269h264l-22 -179h-796z" />
<glyph unicode="2" d="M714 1461q91 0 165 -26t126.5 -73t81 -114t28.5 -148q0 -90 -27.5 -165t-75 -142t-111.5 -130t-137 -129l-373 -340q48 13 94.5 20.5t87.5 7.5h385q35 0 55 -19t20 -50q0 -2 -0.5 -5.5t-2 -18t-5.5 -45t-11 -84.5h-986l9 79q3 23 16 50t38 49l496 443q72 64 124.5 120 t87.5 110t52 108.5t17 116.5q0 89 -52 136.5t-141 47.5q-45 0 -84.5 -12.5t-71.5 -35.5t-56.5 -55t-40.5 -70q-15 -37 -38.5 -53t-56.5 -16q-14 0 -32 3l-122 22q28 103 80 181.5t123 131t157 79t181 26.5z" />
<glyph unicode="3" d="M744 1461q92 0 164.5 -25.5t123 -70.5t77 -106t26.5 -132q0 -79 -18.5 -138t-53.5 -102.5t-86 -72.5t-116 -47q112 -38 167 -113.5t55 -181.5q0 -117 -45.5 -208t-122 -153t-175.5 -94.5t-207 -32.5q-102 0 -179 22.5t-132.5 69.5t-90.5 119t-54 170l111 43q30 12 57 12 q26 0 43.5 -10t24.5 -30q16 -50 37 -86.5t50 -61t67 -36.5t88 -12q69 0 123 24t91 63.5t56.5 90.5t19.5 105q0 41 -13 75.5t-48 59t-96 39t-157 14.5l23 169q93 1 158.5 18.5t106.5 50.5t59.5 79.5t18.5 106.5q0 89 -51.5 135t-139.5 46q-92 0 -157.5 -48t-97.5 -125 q-15 -37 -38 -53t-55 -16q-14 0 -32 3l-122 22q27 103 79 181.5t122.5 131t156.5 79t182 26.5z" />
<glyph unicode="4" d="M951 540h181l-19 -136q-2 -19 -16.5 -33.5t-38.5 -14.5h-130l-43 -356h-216l43 356h-600q-25 0 -47.5 15t-25.5 37l-9 121l799 918h232zM795 1031q8 58 26 130l-530 -621h444z" />
<glyph unicode="5" d="M1093 1344q-6 -50 -42.5 -82t-112.5 -32h-404l-93 -314q94 19 177 19q106 0 185 -29t132 -80.5t79.5 -121.5t26.5 -152q0 -84 -21.5 -159t-60.5 -138.5t-94 -113.5t-121.5 -85t-143.5 -53.5t-160 -18.5q-68 0 -127 13.5t-109 36.5t-91.5 53.5t-73.5 63.5l85 103 q14 17 31 24t34 7q25 0 49 -16t55.5 -34.5t75.5 -34.5t109 -16q77 0 137 26t101 72t62.5 107t21.5 132q0 100 -62.5 159.5t-189.5 59.5q-46 0 -99 -8.5t-116 -26.5l-143 42l206 699h709z" />
<glyph unicode="6" d="M718 900q76 0 144.5 -24.5t120.5 -71.5t82.5 -117.5t30.5 -161.5q0 -113 -43.5 -211.5t-120 -171.5t-181 -115.5t-227.5 -42.5q-104 0 -186 32t-138.5 89.5t-86 138t-29.5 176.5q0 65 14.5 126.5t43 123t71.5 124t100 128.5l405 466q20 24 56 40.5t78 16.5h212l-493 -527 l-60 -65q46 23 97.5 35t109.5 12zM310 411q0 -51 15 -94t44.5 -74t73 -48t100.5 -17q66 0 123 23.5t99 64.5t66 98t24 123q0 54 -17 97.5t-48.5 74t-75.5 46.5t-99 16q-66 0 -122 -23.5t-96.5 -65t-63.5 -98t-23 -123.5z" />
<glyph unicode="7" d="M1213 1446l-11 -94q-4 -33 -12.5 -62t-19.5 -48l-724 -1186q-14 -23 -40 -39.5t-55 -16.5h-199l702 1117q21 34 43 61t47 52h-699q-21 0 -35.5 14.5t-14.5 34.5l21 167h997z" />
<glyph unicode="8" d="M518 -16q-103 0 -186.5 26.5t-143 75.5t-91.5 117.5t-32 152.5q0 149 76.5 251t233.5 147q-89 40 -133 110t-44 164q0 92 38 171.5t105 137.5t159 91t199 33q93 0 168 -27t128 -74t82 -110t29 -136q0 -130 -64.5 -222.5t-190.5 -140.5q113 -39 168 -115.5t55 -183.5 t-42 -193.5t-116 -147.5t-176 -94t-222 -33zM540 171q69 0 122.5 20.5t90.5 57t56 87.5t19 112q0 51 -16 89.5t-46 64.5t-72 39t-94 13q-66 0 -118.5 -18.5t-90 -53.5t-57.5 -87t-20 -118q0 -45 14.5 -82.5t43 -65t70.5 -43t98 -15.5zM622 840q73 0 121 24t76.5 61.5t40 83 t11.5 88.5q0 37 -11 70t-34.5 58t-60 40t-87.5 15q-62 0 -109 -20t-78 -53.5t-46.5 -78.5t-15.5 -96q0 -37 10 -71.5t33 -61.5t60 -43t90 -16z" />
<glyph unicode="9" d="M544 579q-70 0 -134 23t-113 68.5t-78 112.5t-29 156q0 108 42 203t116 166t175 112t219 41q100 0 179 -30.5t133.5 -85.5t83 -131t28.5 -167q0 -76 -15.5 -142.5t-44 -128.5t-70.5 -122.5t-94 -123.5l-392 -475q-20 -23 -53.5 -39t-75.5 -16h-219l517 562q20 22 38.5 43 t35.5 42q-55 -34 -118 -51t-131 -17zM940 1045q0 51 -16.5 92t-46 69.5t-71 44t-91.5 15.5q-62 0 -114 -22t-89.5 -61t-58.5 -93.5t-21 -118.5q0 -102 55.5 -157t161.5 -55q67 0 121 22t92 61t58 91t20 112z" />
<glyph unicode=":" horiz-adv-x="450" d="M34 136q0 31 11.5 59t32 48t48 32t59.5 12t59.5 -12t48 -32t32.5 -48t12 -59q0 -32 -12 -59.5t-32.5 -47.5t-48 -31.5t-59.5 -11.5t-59.5 11.5t-48 31.5t-32 47.5t-11.5 59.5zM132 849q0 31 11.5 59t32 48t48 32t59.5 12t59.5 -12t48 -32t32.5 -48t12 -59 q0 -32 -12 -59.5t-32.5 -47.5t-48 -31.5t-59.5 -11.5t-59.5 11.5t-48 31.5t-32 47.5t-11.5 59.5z" />
<glyph unicode=";" horiz-adv-x="450" d="M35 152q0 28 10.5 52.5t29.5 43t45.5 29t58.5 10.5q38 0 66.5 -13.5t47 -37t28 -54t9.5 -64.5q0 -48 -14.5 -101t-42.5 -106t-69 -103t-95 -92l-43 39q-18 15 -18 36q0 15 17 34.5t38.5 45t42.5 58.5t30 74q-32 0 -57.5 11.5t-44.5 31.5t-29 47t-10 59zM134 849 q0 31 11.5 59t32 48t48 32t59.5 12t59.5 -12t48 -32t32.5 -48t12 -59q0 -32 -12 -59.5t-32.5 -47.5t-48 -31.5t-59.5 -11.5t-59.5 11.5t-48 31.5t-32 47.5t-11.5 59.5z" />
<glyph unicode="&#x3c;" horiz-adv-x="1067" d="M159 724l843 413l-22 -176q-2 -20 -14 -36.5t-37 -28.5l-386 -186q-25 -12 -51.5 -20.5t-55.5 -15.5q27 -7 51.5 -15.5t46.5 -20.5l341 -187q20 -11 28 -24.5t8 -30.5q0 -1 -0.5 -5t-3 -22t-7 -55t-12.5 -104l-741 414z" />
<glyph unicode="=" d="M148 586h883l-22 -177h-883zM192 936h881l-20 -178h-883z" />
<glyph unicode="&#x3e;" horiz-adv-x="1067" d="M956 624l-843 -413l22 176q2 20 14 36.5t37 28.5l386 186q25 12 51.5 20.5t55.5 15.5q-27 7 -51.5 15.5t-46.5 20.5l-341 187q-20 11 -28 24.5t-8 30.5q0 1 0.5 5t2.5 22t7 55t13 104l741 -414z" />
<glyph unicode="?" horiz-adv-x="780" d="M135 1314q36 30 76.5 56.5t87 47t99 32t111.5 11.5q78 0 138.5 -22.5t101.5 -61.5t62 -91.5t21 -112.5q0 -63 -13 -111.5t-35 -86t-50 -66.5t-58.5 -53.5t-61 -46t-57 -44.5t-46.5 -49t-29 -60l-40 -148h-164v164q0 50 24.5 89t62 72t80.5 63.5t80.5 64.5t62 74t24.5 93 q0 65 -37 102.5t-110 37.5q-51 0 -88.5 -13t-64.5 -28.5t-46 -28.5t-35 -13q-15 0 -27 7t-18 23zM183 136q0 31 11.5 59t31.5 48t48 32t60 12t59.5 -12t48 -32t32.5 -48t12 -59q0 -32 -12 -59.5t-32.5 -47.5t-48 -31.5t-59.5 -11.5t-60 11.5t-48 31.5t-31.5 47.5t-11.5 59.5 z" />
<glyph unicode="@" horiz-adv-x="1491" d="M1021 184q-63 0 -108 31.5t-56 102.5q-63 -72 -128 -102.5t-136 -30.5q-51 0 -88 18t-62 50t-37 75.5t-12 93.5q0 61 16 124.5t47.5 123.5t78 112.5t107.5 92t136.5 62.5t164.5 23q37 0 67 -3t56 -8.5t49 -13.5t46 -19l-135 -370q-17 -45 -23 -78.5t-6 -57.5 q0 -45 21 -61.5t54 -16.5q45 0 86 34t72.5 94t50.5 142t19 178q0 108 -30.5 191.5t-87 140t-137 85.5t-179.5 29q-88 0 -169.5 -26t-151.5 -74t-127.5 -115.5t-98.5 -151.5t-63.5 -181.5t-22.5 -205.5q0 -136 37.5 -240t105.5 -174.5t163 -107t210 -36.5q71 0 132.5 8 t112 21.5t90 30.5t68.5 34q14 8 26 11t22 3q21 0 32 -12t16 -29l18 -68q-104 -68 -237 -111t-298 -43q-152 0 -275.5 49.5t-211.5 141t-136 221.5t-48 292q0 125 30 241.5t84 218.5t130 185.5t167.5 143.5t196.5 93t217 33q121 0 227 -41.5t185.5 -119t125.5 -188.5t46 -249 q0 -126 -35.5 -234.5t-96.5 -189t-142.5 -126.5t-174.5 -46zM660 339q23 0 47 8.5t47.5 29.5t45.5 56.5t42 88.5l103 284q-27 6 -58 6q-60 0 -115.5 -31t-98 -82t-68 -116.5t-25.5 -134.5q0 -51 20 -80t60 -29z" />
<glyph unicode="A" horiz-adv-x="1283" d="M1237 0h-201q-34 0 -54 16t-25 43l-60 302h-539l-134 -302q-11 -23 -36 -41t-56 -18h-204l699 1446h265zM439 544h421l-98 495q-8 36 -16 76t-15 90q-19 -50 -37.5 -92.5t-34.5 -74.5z" />
<glyph unicode="B" horiz-adv-x="1200" d="M70 0l178 1446h464q120 0 205.5 -23.5t140 -66.5t80.5 -104t26 -136q0 -62 -16.5 -118.5t-51.5 -104.5t-89 -86t-129 -63q123 -31 183 -100.5t60 -176.5q0 -100 -37 -185.5t-107 -148t-170.5 -98t-227.5 -35.5h-509zM407 637l-53 -435h245q70 0 120 19t82.5 53.5t48 83 t15.5 106.5q0 79 -50 126t-164 47h-244zM429 816h192q134 0 206.5 63t72.5 193q0 91 -51.5 132.5t-160.5 41.5h-206z" />
<glyph unicode="C" horiz-adv-x="1207" d="M678 204q61 0 106.5 9.5t79 24.5t57.5 31.5t42 31.5t32 24.5t28 9.5q12 0 20 -5t13 -10l91 -113q-94 -108 -221 -165.5t-292 -57.5q-133 0 -237 47.5t-176 131.5t-109.5 199t-37.5 251q0 125 27 236.5t77 206t120 169.5t155 128t183.5 81t205.5 28q79 0 144 -14.5 t118 -40.5t95 -62.5t76 -81.5l-90 -108q-10 -12 -23.5 -21t-33.5 -9q-22 0 -42 18t-50.5 39.5t-79 39.5t-127.5 18q-104 0 -193 -42.5t-155 -121.5t-103.5 -190.5t-37.5 -250.5q0 -101 25.5 -181t70.5 -135.5t107 -85t135 -29.5z" />
<glyph unicode="D" horiz-adv-x="1374" d="M1354 820q0 -180 -58 -331t-161.5 -259.5t-245.5 -169t-310 -60.5h-509l178 1446h510q138 0 248.5 -47t187.5 -130t118.5 -198t41.5 -251zM1088 814q0 97 -24 176t-69.5 134.5t-111.5 85.5t-151 30h-249l-127 -1033h249q109 0 198 42t152.5 120.5t98 191t34.5 253.5z" />
<glyph unicode="E" horiz-adv-x="1051" d="M1091 1446l-26 -207h-582l-50 -411h457l-25 -199h-457l-52 -422h584l-26 -207h-844l178 1446h843z" />
<glyph unicode="F" horiz-adv-x="1032" d="M1065 1239h-582l-54 -440h491l-27 -207h-489l-73 -592h-261l178 1446h843z" />
<glyph unicode="G" horiz-adv-x="1327" d="M707 191q81 0 143 15.5t119 43.5l34 276h-160q-23 0 -35.5 11.5t-12.5 29.5l17 154h450l-72 -581q-110 -80 -237 -118t-290 -38q-133 0 -241.5 48t-186 133.5t-119.5 203t-42 256.5q0 122 27 231.5t76.5 202.5t119 167.5t156 127t186.5 80.5t210 28q88 0 160 -15.5 t130 -42.5t104 -63t82 -76l-84 -108q-27 -35 -64 -35q-23 0 -44 14q-33 22 -64 41t-66 33t-76.5 22t-96.5 8q-108 0 -198 -43.5t-155 -123t-101 -191t-36 -248.5q0 -104 26.5 -186t74.5 -139t115.5 -87.5t150.5 -30.5z" />
<glyph unicode="H" horiz-adv-x="1392" d="M1200 0h-261l78 635h-608l-78 -635h-261l178 1446h261l-78 -627h609l78 627h261z" />
<glyph unicode="I" horiz-adv-x="580" d="M360 0h-261l177 1446h261z" />
<glyph unicode="J" horiz-adv-x="802" d="M673 501q-15 -120 -54 -216t-101.5 -162.5t-148.5 -102.5t-195 -36q-53 0 -101.5 6.5t-99.5 20.5l19 152q2 21 14.5 35t38.5 14q23 0 53 -7t77 -7q46 0 85 16t70 51.5t52 92t31 137.5l116 951h260z" />
<glyph unicode="K" horiz-adv-x="1290" d="M438 835h56q35 0 59.5 10.5t44.5 34.5l418 510q26 32 55 44t68 12h223l-512 -605q-23 -27 -44.5 -46t-45.5 -30q30 -12 51.5 -33t39.5 -55l367 -677h-228q-23 0 -39 3.5t-27.5 10t-19 16t-13.5 21.5l-298 539q-14 26 -36 37.5t-65 11.5h-78l-79 -639h-258l177 1447h260z " />
<glyph unicode="L" horiz-adv-x="952" d="M355 215h526l-25 -215h-786l178 1446h259z" />
<glyph unicode="M" horiz-adv-x="1715" d="M825 578q9 -26 16 -53t14 -55q12 28 26 55t30 53l502 826q9 15 18.5 23.5t20 12.5t23.5 5t30 1h197l-178 -1446h-228l116 942q3 26 9 57t13 63l-497 -826q-17 -28 -42.5 -42t-55.5 -14h-36q-30 0 -52.5 14t-32.5 42l-298 823q-1 -31 -2.5 -60t-4.5 -53l-114 -946h-229 l178 1446h195q17 0 30 -1t23 -5t17 -12.5t13 -23.5l299 -826v0z" />
<glyph unicode="N" horiz-adv-x="1392" d="M384 1446q17 0 28.5 -1.5t20.5 -6t16 -12.5t15 -22l563 -987q2 29 4.5 56.5t5.5 51.5l113 921h229l-179 -1446h-133q-30 0 -51 9.5t-35 35.5l-560 987q-2 -24 -4 -46.5t-4 -42.5l-114 -943h-229l178 1446h136v0z" />
<glyph unicode="O" horiz-adv-x="1464" d="M1446 820q0 -120 -26.5 -228.5t-76 -201.5t-119 -168t-156 -128t-187.5 -81.5t-212 -28.5q-138 0 -248 49t-187.5 135t-118.5 203t-41 254q0 120 26.5 228.5t76 201.5t119 168t156 128.5t187.5 82t213 28.5q138 0 248 -49t187 -135t118 -203.5t41 -254.5zM1180 814 q0 98 -24.5 178t-71 137t-113.5 88t-151 31q-108 0 -196.5 -44t-151.5 -125t-97.5 -195t-34.5 -253q0 -98 24 -178t70 -136.5t112.5 -87t151.5 -30.5q109 0 198 44t152 124t97.5 193.5t34.5 253.5z" />
<glyph unicode="P" horiz-adv-x="1155" d="M398 512l-63 -512h-258l177 1446h440q123 0 211.5 -29.5t145.5 -82.5t84.5 -125.5t27.5 -159.5q0 -116 -36.5 -214.5t-109.5 -170t-182.5 -112t-255.5 -40.5h-181zM489 1246l-66 -532h182q76 0 132 23t93 64.5t54.5 98.5t17.5 126q0 49 -14 90t-43 69.5t-72.5 44.5 t-103.5 16h-180z" />
<glyph unicode="Q" horiz-adv-x="1464" d="M1446 820q0 -115 -24.5 -220t-70.5 -195.5t-110.5 -165t-145.5 -128.5l289 -395h-212q-47 0 -82.5 12t-60.5 47l-166 233q-46 -11 -94.5 -17.5t-99.5 -6.5q-138 0 -248 49t-187.5 135t-118.5 203t-41 254q0 120 26.5 228.5t76 201.5t119 168t156 128.5t187.5 82t213 28.5 q138 0 248 -49t187 -135t118 -203.5t41 -254.5zM1180 814q0 98 -24.5 178t-71 137t-113.5 88t-151 31q-108 0 -196.5 -44t-151.5 -125t-97.5 -195t-34.5 -253q0 -98 24 -178t70 -136.5t112.5 -87t151.5 -30.5q109 0 198 44t152 124t97.5 193.5t34.5 253.5z" />
<glyph unicode="R" horiz-adv-x="1209" d="M405 570l-70 -570h-258l177 1446h411q125 0 214 -26.5t146 -74t84 -113.5t27 -145q0 -84 -23.5 -157.5t-67.5 -133.5t-108 -105t-145 -70q23 -14 42 -34t33 -48l258 -539h-233q-33 0 -55.5 13.5t-33.5 38.5l-212 469q-12 26 -29.5 37.5t-54.5 11.5h-102zM489 1246 l-61 -491h150q78 0 134.5 22.5t93 62t54.5 92.5t18 114q0 94 -58 147t-179 53h-152z" />
<glyph unicode="S" horiz-adv-x="989" d="M935 1186q-14 -20 -28 -29.5t-34 -9.5t-41 16t-50 35.5t-68.5 35.5t-95.5 16q-55 0 -97 -16t-70.5 -44t-43 -66t-14.5 -82q0 -46 23.5 -76.5t61.5 -53.5t87 -41t99.5 -38t99.5 -46t87 -64t61.5 -91.5t23.5 -129.5q0 -106 -36.5 -200t-105 -164.5t-166 -112t-219.5 -41.5 q-63 0 -124 13.5t-115 38.5t-100 60t-80 78l92 124q11 14 28 23t34 9q16 0 31.5 -10t34 -24.5t40 -32t49.5 -32t63 -24.5t81 -10q113 0 177 64t64 177q0 50 -23 82t-61 54t-86 38.5t-98.5 35t-98.5 43t-86 63t-61 94.5t-23 138q0 93 34.5 179t98.5 151.5t155.5 105 t206.5 39.5q59 0 113.5 -12t101.5 -34t86.5 -52.5t68.5 -67.5z" />
<glyph unicode="T" horiz-adv-x="1096" d="M1192 1446l-27 -213h-396l-152 -1233h-258l151 1233h-397l26 213h1053z" />
<glyph unicode="U" horiz-adv-x="1338" d="M635 208q70 0 128.5 26.5t102.5 75t72.5 116.5t38.5 151l107 869h259l-106 -869q-16 -128 -68 -237t-133.5 -188t-190 -123.5t-237.5 -44.5q-117 0 -208 36.5t-153.5 102.5t-95 157.5t-32.5 201.5q0 45 6 95l105 869h260l-107 -868q-2 -19 -3 -37t-1 -35q0 -68 16.5 -123 t49 -94t80.5 -60t110 -21z" />
<glyph unicode="V" horiz-adv-x="1316" d="M121 1446h208q34 0 54 -16.5t25 -42.5l193 -901q10 -47 19 -94.5t17 -101.5q17 54 38 103.5t41 92.5l411 901q10 22 35.5 40.5t57.5 18.5h210l-714 -1446h-236z" />
<glyph unicode="W" horiz-adv-x="1933" d="M128 1446h204q34 0 54.5 -16.5t24.5 -42.5l127 -887q5 -32 6.5 -69t3.5 -78q26 82 53 147l360 887q9 22 34.5 40.5t57.5 18.5h60q34 0 55 -16.5t26 -42.5l144 -887q5 -32 9.5 -68t6.5 -75q11 39 22 75.5t23 67.5l343 887q9 23 35.5 41t58.5 18h205l-591 -1446h-235 l-163 1002q-3 19 -6.5 41.5t-5.5 47.5q-8 -25 -16.5 -47.5t-16.5 -41.5l-409 -1002h-234z" />
<glyph unicode="X" horiz-adv-x="1261" d="M485 772l-325 674h235q26 0 37.5 -7.5t19.5 -25.5l222 -499q10 21 24 42l307 454q24 36 59 36h271l-492 -662l363 -784h-232q-26 0 -40.5 14t-22.5 31l-251 579q-5 -8 -9.5 -16t-9.5 -16l-374 -547q-17 -25 -37 -35t-44 -10h-259z" />
<glyph unicode="Y" horiz-adv-x="1212" d="M745 563l-70 -563h-260l70 564l-376 882h231q34 0 52 -16.5t28 -42.5l187 -500q14 -36 22.5 -70.5t14.5 -67.5q16 33 34.5 67t41.5 71l311 500q14 23 36.5 41t55.5 18h215z" />
<glyph unicode="Z" horiz-adv-x="1133" d="M1204 1446l-11 -81q-2 -17 -10 -32t-19 -30l-799 -1096h670l-26 -207h-1016l10 79q2 17 9.5 32.5t18.5 29.5l801 1098h-642l25 207h989z" />
<glyph unicode="[" horiz-adv-x="552" d="M4 -305l227 1850h383l-11 -94q-3 -24 -23 -42t-47 -18h-121l-191 -1543h124q22 0 38 -12.5t16 -34.5l-12 -106h-383z" />
<glyph unicode="\" horiz-adv-x="722" d="M104 1455h100q43 0 73 -22t39 -62l342 -1468h-100q-38 0 -71.5 23t-44.5 67z" />
<glyph unicode="]" horiz-adv-x="552" d="M-31 -305l12 92q3 26 22.5 43.5t46.5 17.5h123l190 1543h-123q-25 0 -40 15.5t-15 37.5l12 101h383l-228 -1850h-383z" />
<glyph unicode="^" d="M1082 777h-181q-23 0 -37.5 12t-24.5 29l-158 289q-15 28 -27.5 53.5t-21.5 50.5q-8 -26 -19 -51.5t-26 -52.5l-155 -289q-9 -17 -24.5 -29t-41.5 -12h-190l373 669h160z" />
<glyph unicode="_" horiz-adv-x="726" d="M648 -138l-19 -155h-726l19 155h726z" />
<glyph unicode="`" horiz-adv-x="591" d="M260 1461q38 0 55 -13t28 -39l100 -243h-136q-26 0 -42.5 7t-30.5 27l-198 261h224z" />
<glyph unicode="a" horiz-adv-x="1035" d="M858 0h-130q-45 0 -63 21t-18 53l8 140q-68 -106 -153 -167.5t-187 -61.5q-58 0 -108.5 23t-88 68.5t-59 114t-21.5 160.5t23 179t65.5 163.5t102.5 140.5t134.5 110t161 71.5t182.5 25.5q69 0 138.5 -10t136.5 -36zM412 187q41 0 80.5 28t74.5 77.5t65 116.5t52 144 l39 310q-27 3 -50 3q-83 0 -154 -38t-123 -102.5t-81.5 -150t-29.5 -180.5q0 -108 34 -158t93 -50z" />
<glyph unicode="b" horiz-adv-x="1076" d="M60 0l181 1486h241l-81 -663q72 101 160.5 160t188.5 59q64 0 116.5 -23.5t89.5 -70.5t57 -119t20 -169q0 -87 -18 -171t-51 -159t-78.5 -138t-101.5 -109t-119.5 -72t-131.5 -26q-79 0 -140.5 31.5t-103.5 85.5l-8 -34q-8 -36 -27 -52t-60 -16h-134zM654 848 q-41 0 -83 -28t-81.5 -77t-73 -115.5t-57.5 -142.5l-30 -245q34 -37 78 -52t87 -15q66 0 120 41t92.5 107t59.5 148.5t21 165.5q0 108 -35 160.5t-98 52.5z" />
<glyph unicode="c" horiz-adv-x="871" d="M838 182q-51 -56 -97.5 -94t-94.5 -61t-101 -32.5t-116 -9.5q-89 0 -159.5 30.5t-119.5 86.5t-74.5 135t-25.5 176q0 125 40 238.5t112 200t171 138t216 51.5q102 0 173.5 -36t127.5 -108l-79 -94q-9 -9 -20.5 -16.5t-25.5 -7.5q-17 0 -31 10.5t-32.5 22.5t-46 22.5 t-71.5 10.5q-57 0 -109 -31t-91.5 -88t-63 -137t-23.5 -177q0 -113 50 -174.5t135 -61.5q57 0 94.5 16.5t63.5 36t46.5 36t44.5 16.5q12 0 23.5 -6.5t20.5 -16.5l63 -76v0z" />
<glyph unicode="d" horiz-adv-x="1078" d="M761 0q-45 0 -63 21t-18 53l8 150q-74 -110 -166 -174.5t-196 -64.5q-64 0 -116.5 23.5t-89.5 70.5t-57 119t-20 170q0 87 18 170.5t51 158.5t78.5 138t101.5 109t119.5 72t131.5 26q69 0 125 -25t98 -68l67 537h242l-183 -1486h-131zM422 179q40 0 82 27.5t81 76 t72.5 114t57.5 141.5l31 249q-34 37 -78 52t-86 15q-66 0 -120 -41t-92.5 -107t-59.5 -148.5t-21 -165.5q0 -108 35 -160.5t98 -52.5z" />
<glyph unicode="e" horiz-adv-x="946" d="M918 788q0 -69 -27.5 -126t-98.5 -102t-192.5 -77.5t-309.5 -51.5v-13q0 -242 205 -242q44 0 78 8.5t59.5 20.5t46 27t38 27t34.5 20.5t37 8.5q12 0 24 -5.5t20 -16.5l63 -76q-53 -53 -104 -92t-104 -64t-112 -37t-129 -12q-90 0 -163 30.5t-125 86t-80.5 134 t-28.5 175.5q0 81 17.5 159t50.5 148t81 129t108.5 102t133 67t155.5 24q81 0 141.5 -23t101 -59.5t60.5 -81.5t20 -88zM581 868q-50 0 -93 -20.5t-77.5 -57.5t-60 -88.5t-40.5 -112.5q124 17 199.5 37t117 44t55 51t13.5 58q0 15 -6.5 31t-20 28.5t-35 21t-52.5 8.5z" />
<glyph unicode="f" horiz-adv-x="636" d="M432 841l-97 -799l-51 -188q-14 -49 -43.5 -75t-83.5 -26h-99l131 1088l-79 14q-22 4 -36 16.5t-14 35.5q0 1 0.5 4t1.5 13.5t3.5 32t7.5 60.5h138l9 76q11 88 46.5 158t90 119t125.5 75t153 26q64 0 118 -19l-22 -128q-2 -11 -9.5 -17.5t-18.5 -9.5t-24.5 -4t-27.5 -1 q-40 0 -73.5 -11t-59 -35.5t-42 -64t-23.5 -96.5l-8 -68h230l-23 -176h-220z" />
<glyph unicode="g" horiz-adv-x="970" d="M860 729q0 -46 -10 -82.5t-24.5 -67.5t-31.5 -58.5t-32 -56t-24.5 -60t-9.5 -69.5q0 -41 17 -75.5t37 -70.5t37 -77t17 -95q0 -76 -34 -144.5t-98 -120t-156 -81.5t-208 -30q-95 0 -170.5 19.5t-129 54.5t-82 82.5t-28.5 104.5q0 85 43 143t111 93.5t152.5 51t168.5 15.5 q41 0 80 -3.5t74 -9.5q-4 16 -6.5 32t-2.5 34q0 58 32 128q-38 -26 -86 -40t-116 -14q-58 0 -110.5 19t-92.5 58t-63.5 97.5t-23.5 136.5q0 75 28 146.5t83 128t136 90.5t188 34q57 0 108.5 -13.5t94.5 -39.5h287l-11 -80q-4 -24 -15.5 -41t-33.5 -23l-105 -28 q5 -20 7.5 -42t2.5 -46zM450 481q45 0 79 21t57.5 55t35.5 76.5t12 86.5q0 75 -35 115t-102 40q-45 0 -79 -19.5t-57 -52t-34.5 -74.5t-11.5 -87q0 -77 34.5 -119t100.5 -42zM611 -4q0 14 -1.5 27.5t-3.5 25.5q-54 9 -99.5 13t-85.5 4q-68 0 -116.5 -11t-80 -29t-46 -42 t-14.5 -51q0 -60 48 -91t148 -31q56 0 102 14t79 39t51.5 59t18.5 73z" />
<glyph unicode="h" horiz-adv-x="1085" d="M60 0l181 1486h246l-77 -635q75 97 162.5 144t178.5 47q58 0 105 -20.5t80 -60t51 -97t18 -132.5q0 -19 -1.5 -38.5t-3.5 -40.5l-77 -653h-247l77 653q2 18 3.5 34t1.5 30q0 66 -25 95t-76 29q-38 0 -79 -21.5t-79 -61t-71 -95.5t-56 -125l-65 -538h-247z" />
<glyph unicode="i" horiz-adv-x="515" d="M441 1026l-123 -1026h-244l123 1026h244zM503 1325q0 -32 -13.5 -60t-35 -49t-49.5 -33.5t-58 -12.5q-29 0 -56.5 12.5t-48.5 33.5t-33.5 49t-12.5 60t13 61t34 50.5t48.5 34t56.5 12.5q30 0 58 -12.5t49.5 -33.5t34.5 -50t13 -62z" />
<glyph unicode="j" horiz-adv-x="506" d="M441 1026l-130 -1061q-8 -67 -33.5 -126t-68 -103.5t-103 -70t-139.5 -25.5q-39 0 -67.5 4.5t-56.5 14.5l24 133q6 20 19 25.5t47 5.5t57.5 7.5t39.5 24t25 43.5t14 67l130 1061h242zM495 1325q0 -32 -13.5 -60t-35 -49t-49.5 -33.5t-58 -12.5q-29 0 -56.5 12.5 t-48.5 33.5t-33.5 49t-12.5 60t13 61t34 50.5t48.5 34t56.5 12.5q30 0 58 -12.5t49.5 -33.5t34.5 -50t13 -62z" />
<glyph unicode="k" horiz-adv-x="1019" d="M488 1486l-104 -851h25q23 0 37.5 7t30.5 26l272 315q18 20 37 31.5t48 11.5h220l-338 -381q-19 -21 -38 -38.5t-40 -30.5q19 -14 31.5 -34.5t24.5 -43.5l254 -498h-214q-27 0 -44.5 10t-29.5 34l-199 389q-12 23 -24.5 30t-40.5 7h-33l-57 -470h-244l182 1486h244z" />
<glyph unicode="l" horiz-adv-x="499" d="M65 0l180 1486h243l-180 -1486h-243z" />
<glyph unicode="m" horiz-adv-x="1581" d="M52 0l125 1027h125q38 0 60 -18t22 -57v-3t-0.5 -13.5t-1.5 -35t-3 -66.5q69 105 150 156.5t169 51.5q95 0 149.5 -63t63.5 -182q72 126 159.5 185.5t190.5 59.5q115 0 177.5 -77.5t62.5 -223.5q0 -20 -1 -42.5t-4 -45.5l-77 -653h-244q20 170 34 288.5t23 198t14 124.5 t7.5 69.5t3 33t0.5 13.5q0 60 -20 86.5t-65 26.5q-38 0 -74 -20t-68.5 -58t-60 -93t-48.5 -124l-64 -545h-243l77 653q2 21 3.5 39.5t1.5 34.5q0 60 -19.5 86.5t-64.5 26.5q-39 0 -76 -21t-69.5 -60.5t-60 -96t-48.5 -126.5l-64 -536h-242z" />
<glyph unicode="n" horiz-adv-x="1077" d="M52 0l123 1027h126q39 0 60.5 -19t21.5 -61l-7 -133q78 115 173 171.5t196 56.5q57 0 103.5 -20.5t79.5 -60t51 -97t18 -132.5q0 -19 -1.5 -38.5t-3.5 -40.5l-77 -653h-247q20 169 34 286.5t23 195.5t14 122.5t7.5 67.5t3 30.5t0.5 12.5q0 66 -24 95.5t-75 29.5 q-41 0 -85 -24t-84 -68t-73 -106t-54 -138l-56 -504h-247z" />
<glyph unicode="o" horiz-adv-x="1020" d="M460 175q62 0 112 35.5t85.5 95t54.5 138.5t19 166q0 125 -42.5 184t-128.5 59q-62 0 -112 -35t-85 -95t-54 -139t-19 -167q0 -125 42 -183.5t128 -58.5zM438 -15q-85 0 -157.5 28.5t-125 83.5t-82.5 135t-30 183q0 133 42.5 248t116 199t171.5 132t209 48 q85 0 157.5 -28.5t125.5 -83.5t83 -135t30 -183q0 -132 -43 -246.5t-116.5 -199t-171.5 -133t-209 -48.5z" />
<glyph unicode="p" horiz-adv-x="1060" d="M11 -335l166 1362h125q34 0 58 -14.5t24 -47.5v-3t-1 -18.5t-2 -49t-4 -94.5q74 111 167.5 176.5t197.5 65.5q64 0 116.5 -23.5t89.5 -70.5t57 -119t20 -169q0 -87 -18 -171t-51 -159t-78.5 -138t-101.5 -109t-119.5 -72t-131.5 -26q-69 0 -125.5 24.5t-97.5 68.5 l-51 -413h-240zM646 848q-41 0 -83 -27.5t-81 -76t-72.5 -114.5t-57.5 -142l-30 -249q34 -36 77.5 -51t86.5 -15q66 0 120 41t92.5 107t59.5 148.5t21 165.5q0 108 -35 160.5t-98 52.5z" />
<glyph unicode="q" horiz-adv-x="1035" d="M816 -335h-160q-21 0 -35.5 7t-23 18t-12.5 25t-4 28q0 1 0.5 4.5t2 16.5t4.5 40t9 75.5t15.5 123t23.5 183.5q-66 -94 -146 -147.5t-175 -53.5q-58 0 -108.5 23t-88 68.5t-59 114t-21.5 160.5t23 179t65.5 163.5t102.5 140.5t134.5 110t161 71.5t182.5 25.5 q69 0 138.5 -10t136.5 -36zM412 187q40 0 79.5 27.5t74.5 76t64.5 114.5t51.5 142l41 317q-14 1 -26 1.5t-24 0.5q-83 0 -154 -38t-123 -102.5t-81.5 -150t-29.5 -180.5q0 -108 34 -158t93 -50z" />
<glyph unicode="r" horiz-adv-x="727" d="M52 0l125 1027h125q36 0 59 -16t23 -51v-3.5t-1 -20.5t-2 -53.5t-4 -102.5q63 121 138 187t156 66q41 0 83 -18l-45 -236q-50 21 -95 21q-89 0 -156 -85t-110 -266l-54 -449h-242z" />
<glyph unicode="s" horiz-adv-x="785" d="M733 833q-11 -16 -21 -22.5t-26 -6.5q-17 0 -35 10t-41.5 22.5t-54 22.5t-73.5 10q-79 0 -121 -35.5t-42 -88.5q0 -31 17.5 -52.5t45.5 -37.5t64 -29.5t74 -29t74 -35t64 -47.5t45.5 -67.5t17.5 -94.5q0 -74 -29.5 -141t-84.5 -117.5t-133 -80t-174 -29.5 q-49 0 -94.5 9.5t-85.5 26.5t-72.5 40t-55.5 50l60 94q11 17 26.5 26t36.5 9t38 -13t40 -28.5t55.5 -28.5t83.5 -13q41 0 72.5 11t53 30t32.5 44t11 53q0 34 -17 56.5t-45.5 39t-64.5 29t-73.5 26.5t-73 32t-64 45.5t-45.5 67t-17 96.5q0 68 26 132.5t76.5 114t124 79.5 t168.5 30q98 0 173.5 -33.5t127.5 -85.5z" />
<glyph unicode="t" horiz-adv-x="709" d="M147 209v16.5t1.5 28t5 49t9.5 78.5l57 460h-97q-17 0 -27.5 10.5t-10.5 31.5q0 1 0.5 4t1.5 13.5t3.5 31.5t6.5 59l156 27l82 280q6 20 20.5 31t35.5 11h132l-40 -323h248l-21 -176h-249l-55 -447q-5 -41 -7.5 -65t-4 -37.5t-2 -19t-0.5 -7.5q0 -38 18.5 -60t52.5 -22 q21 0 36 5.5t26 11.5t19.5 11.5t16.5 5.5q11 0 17.5 -5.5t11.5 -16.5l53 -120q-55 -45 -122 -68t-135 -23q-109 0 -172.5 59t-66.5 166z" />
<glyph unicode="u" horiz-adv-x="1075" d="M409 1026q-20 -169 -34 -286t-23 -195t-14 -123t-7.5 -68t-3 -31t-0.5 -13q0 -66 24.5 -94.5t74.5 -28.5q39 0 80.5 21.5t80 61.5t71.5 97t56 127l64 532h247l-124 -1026h-125q-17 0 -32.5 4.5t-28 13.5t-20 23t-7.5 33v4l6 125q-78 -110 -170.5 -164t-191.5 -54 q-57 0 -103.5 20.5t-79.5 59.5t-51 96.5t-18 131.5q0 20 1 40t4 42l77 651h247z" />
<glyph unicode="v" horiz-adv-x="994" d="M69 1026h202q26 0 41.5 -13t19.5 -33l108 -548q10 -49 14 -97.5t7 -96.5q14 48 30.5 95.5t39.5 98.5l245 548q9 20 27.5 33t40.5 13h195l-506 -1026h-208z" />
<glyph unicode="w" horiz-adv-x="1467" d="M77 1026h187q26 0 43 -13t19 -33l60 -548q5 -45 5.5 -87t2.5 -84q15 42 31.5 84t34.5 87l223 550q8 20 26 33t40 13h106q26 0 41 -13t18 -33l86 -550q7 -45 12 -87t9 -84q11 42 23.5 84t29.5 87l199 548q7 20 25 33t41 13h180l-423 -1026h-191q-31 0 -38 44l-98 593 q-6 40 -9 77q-7 -20 -14 -39.5t-15 -39.5l-244 -591q-18 -44 -53 -44h-183z" />
<glyph unicode="x" horiz-adv-x="1006" d="M353 555l-238 471h224q25 0 36 -7t19 -24l141 -306q6 12 13 24.5t16 25.5l180 252q12 17 25 26t30 9h224l-361 -472l264 -554h-225q-25 0 -39.5 13.5t-22.5 31.5l-157 360q-5 -11 -11 -22t-12 -20l-228 -318q-13 -17 -29 -31t-39 -14h-217z" />
<glyph unicode="y" horiz-adv-x="994" d="M371 -284q-26 -51 -80 -51h-183l228 413l-259 948h207q27 0 40.5 -13.5t18.5 -32.5l126 -532q6 -26 9.5 -51t5.5 -51q11 26 22.5 51.5t23.5 51.5l253 532q10 20 29 32.5t39 12.5h198z" />
<glyph unicode="z" horiz-adv-x="876" d="M869 924q-3 -26 -13.5 -51t-26.5 -41l-513 -642h451l-22 -190h-746l13 103q2 17 12.5 41t27.5 44l517 649h-441l23 189h731z" />
<glyph unicode="{" horiz-adv-x="552" d="M125 441q0 48 -22.5 79t-71.5 31l17 138q74 0 103 61.5t29 188.5q0 16 -1 37t-1.5 43.5t-1.5 44t-1 38.5q0 106 24 188.5t72.5 139t122.5 86t175 29.5h47l-13 -107q-2 -12 -8 -21t-14.5 -15t-17.5 -8.5t-16 -2.5h-7q-66 0 -104 -47.5t-46 -135.5q-5 -51 -6 -98t-1 -91.5 t-1 -87t-5 -85.5q-4 -42 -17.5 -78.5t-36 -66t-52.5 -51t-66 -31.5q58 -20 89 -69.5t31 -112.5q0 -58 -13 -113.5t-29 -111t-29 -112t-13 -117.5q0 -60 27.5 -97.5t81.5 -37.5h8q14 0 29 -9.5t15 -32.5v-3.5t-1.5 -13t-4 -32.5t-7.5 -62h-48q-80 0 -138 21t-95.5 58.5 t-56 89.5t-18.5 115q0 65 14.5 124t31.5 115t31.5 111t14.5 112z" />
<glyph unicode="|" horiz-adv-x="600" d="M144 1547h192v-1882h-192v1882z" />
<glyph unicode="}" horiz-adv-x="552" d="M458 799q0 -48 22.5 -79t71.5 -31l-17 -138q-74 0 -103 -61.5t-29 -188.5q0 -16 1 -37t1.5 -43.5t1.5 -44.5t1 -38q0 -106 -24 -188.5t-72.5 -139t-123 -86t-174.5 -29.5h-47l13 107q1 12 7.5 21t15 15t17.5 8.5t16 2.5h7q66 0 104 47.5t46 135.5q5 51 6 98t1 91.5t1 87 t5 85.5q4 42 17.5 78.5t36 66t52.5 50.5t66 32q-58 20 -89 69.5t-31 112.5q0 58 13 113.5t29 111t29 112t13 117.5q0 60 -27.5 97.5t-81.5 37.5h-8q-14 0 -29 9.5t-15 32.5v3.5t1.5 13t4 32.5t7.5 62h48q79 0 137.5 -21t96 -58.5t56 -89.5t18.5 -115q0 -65 -14.5 -124 t-31.5 -115t-31.5 -111t-14.5 -112z" />
<glyph unicode="~" d="M685 648q56 0 87 36t31 101h199q0 -77 -20.5 -139.5t-59 -107t-94.5 -68.5t-128 -24q-53 0 -101.5 14t-92 30.5t-81.5 30.5t-70 14q-56 0 -87 -36t-31 -101h-199q0 77 20.5 139.5t59 107t94.5 68.5t128 24q53 0 101.5 -14t92 -30.5t81.5 -30.5t70 -14z" />
<glyph unicode="&#xa1;" horiz-adv-x="668" d="M128 -337l66 535q11 91 30 178t44 186h156q0 -17 0.5 -34t0.5 -34q0 -78 -4 -149.5t-13 -146.5l-65 -535h-215zM232 891q0 31 11.5 59t32 48t48 32t59.5 12t59.5 -12t48 -32t32.5 -48t12 -59q0 -32 -12 -59.5t-32.5 -47.5t-48 -31.5t-59.5 -11.5t-59.5 11.5t-48 31.5 t-32 47.5t-11.5 59.5z" />
<glyph unicode="&#xa2;" d="M481 -9q-79 12 -145 48t-113 93.5t-73.5 134.5t-26.5 172q0 124 39 231.5t112.5 187.5t180.5 127.5t242 52.5l33 160q5 23 25 42t47 19h88l-48 -230q78 -14 138.5 -47t108.5 -83l-72 -83q-12 -14 -22.5 -21t-29.5 -7q-14 0 -28 7t-32.5 16.5t-42.5 20t-56 18.5l-141 -684 q55 5 93 19.5t65.5 29.5t48 27t40.5 12q30 0 42 -20l55 -84q-39 -40 -84 -69t-93.5 -48.5t-100 -30t-103.5 -14.5l-31 -151q-5 -23 -25 -41.5t-47 -18.5h-88zM358 451q0 -107 41.5 -176.5t119.5 -95.5l140 678q-76 -8 -132.5 -40.5t-94 -85t-56 -123.5t-18.5 -157z" />
<glyph unicode="&#xa3;" d="M910 662q-2 -23 -23 -41.5t-50 -18.5h-382l-24 -206q-8 -68 -31.5 -119t-65.5 -94q39 9 78 14t78 5h598l-13 -99q-2 -18 -11.5 -36.5t-24.5 -33t-35 -24t-43 -9.5h-960l19 150q69 16 108 57.5t50 124.5l33 270h-155l12 96q3 22 23.5 40.5t50.5 18.5h88l29 241 q11 94 52.5 178.5t109 147.5t160.5 100t208 37q86 0 150 -19.5t110.5 -54t77.5 -82t51 -103.5l-104 -62q-29 -15 -56 -15q-17 0 -33 7t-28 24q-18 24 -34.5 43.5t-37.5 33t-49.5 20.5t-69.5 7q-53 0 -98 -18t-79.5 -51.5t-56.5 -81.5t-29 -109l-29 -243h447l-11 -95v0z" />
<glyph unicode="&#xa4;" d="M249 673q0 53 13.5 100.5t38.5 89.5l-152 152l124 122l151 -150q42 26 91 40.5t103 14.5q52 0 100 -13.5t90 -38.5l152 152l124 -123l-152 -151q26 -42 41 -91.5t15 -103.5q0 -53 -13.5 -100t-38.5 -89l152 -152l-125 -123l-151 150q-42 -26 -91 -40t-103 -14 q-52 0 -99.5 13t-89.5 38l-152 -152l-124 124l151 150q-26 42 -40.5 91.5t-14.5 103.5zM432 673q0 -38 14.5 -72.5t40 -60t59.5 -40.5t72 -15q39 0 73.5 15t60 40.5t40.5 60t15 72.5q0 40 -15 74.5t-40.5 60t-60 40.5t-73.5 15q-38 0 -72 -15t-59.5 -40.5t-40 -60 t-14.5 -74.5z" />
<glyph unicode="&#xa5;" d="M152 631h280l-300 814h200q32 0 51.5 -16.5t27.5 -42.5l165 -499q14 -42 21 -79t12 -73q12 36 27.5 73t39.5 79l286 499q13 23 36.5 41t55.5 18h201l-501 -814h281l-16 -132h-322l-12 -96h321l-16 -133h-322l-33 -270h-238l33 270h-323l18 133h321l11 96h-321z" />
<glyph unicode="&#xa6;" horiz-adv-x="600" d="M144 1547h192v-809h-192v809zM144 473h192v-808h-192v808z" />
<glyph unicode="&#xa7;" horiz-adv-x="930" d="M855 1248q-11 -15 -22.5 -22t-27.5 -7q-18 0 -36 10.5t-41 22.5t-53.5 22.5t-72.5 10.5q-40 0 -71.5 -11t-53 -29.5t-33 -43.5t-11.5 -52q0 -29 19.5 -52t51 -43.5t71.5 -39.5t82.5 -40t82.5 -46.5t71.5 -57.5t51 -73.5t19.5 -94.5q0 -89 -43 -163t-138 -118 q33 -32 53.5 -74t20.5 -98q0 -78 -28.5 -145.5t-83 -117.5t-133.5 -78.5t-181 -28.5q-49 0 -95 9.5t-87 26t-75 39.5t-58 50l67 90q12 17 27 25.5t38 8.5q22 0 39.5 -13t40.5 -28t56.5 -28t87.5 -13q81 0 126 40.5t45 106.5q0 37 -19.5 63.5t-51.5 48t-73 39.5t-84 37.5 t-84 43t-73 55.5t-51.5 74t-19.5 99q0 91 47 162t142 111q-33 34 -53.5 79t-20.5 106q0 70 26.5 133t77.5 111t125.5 76t170.5 28q100 0 176.5 -34.5t121.5 -90.5zM322 713q0 -39 24 -67.5t62 -52t85 -45.5t94 -47q43 24 61.5 57.5t18.5 74.5q0 40 -23 69t-60 52t-83 44 t-92 46q-48 -27 -67.5 -58.5t-19.5 -72.5z" />
<glyph unicode="&#xa8;" horiz-adv-x="591" d="M349 1314q0 -28 -11 -52.5t-30.5 -42.5t-45 -28.5t-54.5 -10.5q-27 0 -51.5 10.5t-43 28.5t-29.5 42.5t-11 52.5q0 29 11 54.5t29.5 44.5t43 30t51.5 11q29 0 54.5 -11t45 -30t30.5 -44.5t11 -54.5zM722 1314q0 -28 -11 -52.5t-29.5 -42.5t-44 -28.5t-54.5 -10.5 q-28 0 -53 10.5t-43.5 28.5t-29.5 42.5t-11 52.5q0 29 11 54.5t29.5 44.5t43.5 30t53 11q29 0 54.5 -11t44 -30t29.5 -44.5t11 -54.5z" />
<glyph unicode="&#xa9;" horiz-adv-x="1583" d="M1045 512q11 0 20 -4.5t15 -12.5l82 -87q-56 -71 -141 -108.5t-200 -37.5q-100 0 -181 35.5t-138.5 98t-88.5 147t-31 183.5q0 102 35 187t97 146.5t145.5 95.5t181.5 34q111 0 191 -37.5t134 -95.5l-65 -89q-6 -8 -16.5 -16t-26.5 -8q-17 0 -32 10t-36 22t-53.5 22 t-83.5 10q-60 0 -106.5 -19.5t-79 -56t-49.5 -88.5t-17 -117q0 -68 17.5 -120t48 -87.5t73 -54t93.5 -18.5q49 0 80.5 8t53.5 19t39 22t39 17zM81 723q0 102 26.5 196.5t74.5 176.5t115.5 149.5t149 115.5t175.5 74.5t196 26.5t196.5 -26.5t176.5 -74.5t149.5 -115.5 t115.5 -149.5t74.5 -176.5t26.5 -196.5q0 -101 -26.5 -195.5t-74.5 -176t-115.5 -149t-149.5 -115.5t-176.5 -74.5t-196.5 -26.5q-101 0 -195.5 26.5t-176 74.5t-149 115.5t-115.5 149t-74.5 175.5t-26.5 196zM216 723q0 -130 46.5 -243t127.5 -196.5t191 -131.5t237 -48 q85 0 163 22t145.5 62t123 96t94.5 125t60.5 148t21.5 166t-21.5 167t-60.5 149.5t-94.5 126t-123 97t-145.5 62.5t-163 22q-84 0 -161.5 -22t-144.5 -62.5t-121.5 -97t-93.5 -126t-60 -149.5t-21 -167z" />
<glyph unicode="&#xaa;" horiz-adv-x="642" d="M539 841q-23 0 -34 7t-19 28l-7 36q-24 -20 -46 -35t-44.5 -24.5t-47 -14.5t-54.5 -5q-71 0 -112.5 37t-41.5 106q0 38 16.5 76.5t58 70t111.5 52t178 23.5l3 42q0 19 -3 35t-11 27.5t-21 18t-34 6.5q-30 0 -50.5 -7.5t-37 -16t-32 -16t-34.5 -7.5q-18 0 -28.5 9.5 t-16.5 21.5l-24 56q58 51 123.5 74t137.5 23q46 0 83 -16.5t63 -44.5t40 -65.5t14 -80.5v-7.5t-1.5 -20.5t-4.5 -42t-8.5 -72.5t-14.5 -112.5t-21 -161h-80zM356 950q34 0 61 13.5t57 41.5l10 88q-53 -2 -88.5 -9.5t-57 -20t-30.5 -29.5t-9 -37q0 -26 15 -36.5t42 -10.5z " />
<glyph unicode="&#xab;" horiz-adv-x="921" d="M121 522l5 30l285 395l73 -37q32 -13 32 -44q0 -11 -5.5 -23t-13.5 -26l-153 -239q-17 -25 -37 -42q8 -7 14 -17.5t12 -22.5l95 -239q8 -19 8 -35q0 -41 -43 -60l-83 -36zM430 522l5 30l285 395l73 -37q32 -13 32 -44q0 -11 -5.5 -23t-13.5 -26l-153 -239 q-17 -25 -37 -42q8 -7 14 -17.5t12 -22.5l95 -239q8 -19 8 -35q0 -41 -43 -60l-83 -36z" />
<glyph unicode="&#xac;" d="M171 760h883l-57 -460h-202l35 283h-680z" />
<glyph unicode="&#xad;" horiz-adv-x="664" d="M118 703h481l-25 -199h-480z" />
<glyph unicode="&#xae;" horiz-adv-x="1583" d="M79 723q0 153 58 287.5t158 235t234 158.5t287 58q102 0 196.5 -26.5t176.5 -74.5t149.5 -115.5t115.5 -149.5t74.5 -176.5t26.5 -196.5q0 -101 -26.5 -195.5t-74.5 -176t-115.5 -149t-149.5 -115.5t-176.5 -74.5t-196.5 -26.5t-196 26.5t-176 74.5t-149 115.5t-115 149 t-74.5 175.5t-26.5 196zM213 723q0 -130 46.5 -243t128 -196.5t191.5 -131.5t237 -48q85 0 163 22t145.5 62t123 96t94.5 125t60.5 148t21.5 166t-21.5 167t-60.5 149.5t-94.5 126t-123 97t-145.5 62.5t-163 22t-162.5 -22t-144.5 -62.5t-121.5 -97t-93.5 -126t-60 -149.5 t-21 -167zM704 602v-325h-214v897h321q187 0 274 -67t87 -192q0 -89 -46 -155.5t-143 -96.5q23 -13 38 -33t30 -46l181 -307h-206q-44 0 -62 33l-145 263q-8 15 -21 22t-39 7h-55zM704 755h89q52 0 84.5 8.5t51 25.5t25.5 42t7 57q0 31 -6 54.5t-22.5 39t-46 23t-75.5 7.5 h-107v-257z" />
<glyph unicode="&#xaf;" horiz-adv-x="591" d="M129 1369h553l-19 -153h-553z" />
<glyph unicode="&#xb0;" horiz-adv-x="784" d="M127 1123q0 71 26.5 133.5t73 108.5t109.5 72.5t136 26.5t136.5 -26.5t110 -72.5t73.5 -108.5t27 -133.5q0 -69 -27 -131t-73.5 -108.5t-110 -73.5t-136.5 -27t-136 27t-109.5 73.5t-73 108.5t-26.5 131zM298 1121q0 -37 13 -69t36.5 -55.5t55 -37t69.5 -13.5 q37 0 68.5 13.5t55 37t36.5 55.5t13 69q0 38 -13 70.5t-36.5 56.5t-55 38t-68.5 14q-38 0 -69.5 -14t-55 -38t-36.5 -56.5t-13 -70.5z" />
<glyph unicode="&#xb1;" d="M767 1236l-44 -357h391l-22 -177h-391l-42 -344h-193l42 344h-388l20 177h390l44 357h193zM64 257h973l-22 -177h-972z" />
<glyph unicode="&#xb2;" horiz-adv-x="666" d="M488 1647q53 0 93.5 -14.5t68 -40t41.5 -60.5t14 -76q0 -46 -15 -84t-40.5 -71.5t-58.5 -64.5t-69 -63l-151 -137q29 8 57 13t51 5h138q51 0 51 -44q0 -1 -1.5 -13.5t-3 -26.5t-2.5 -26.5t-1 -13.5l-4 -30h-539l8 56q2 16 10.5 34t25.5 33l236 208q28 24 52.5 50 t42.5 52.5t28.5 53t10.5 51.5q0 32 -18.5 52t-50.5 20q-34 0 -56.5 -18t-41.5 -49q-11 -19 -24.5 -27.5t-35.5 -8.5q-5 0 -11.5 0.5t-13.5 1.5l-92 15q15 57 43.5 98.5t67.5 69.5t87 41.5t103 13.5z" />
<glyph unicode="&#xb3;" horiz-adv-x="666" d="M508 1647q52 0 92.5 -14.5t68 -38.5t41.5 -56t14 -67q0 -68 -29.5 -112.5t-97.5 -68.5q51 -18 75.5 -50.5t24.5 -84.5q0 -67 -26 -116.5t-68 -82t-94 -48.5t-104 -16q-54 0 -95.5 10.5t-71.5 34t-50 61.5t-32 93l79 32q18 7 38 7q37 0 48 -27q4 -11 10.5 -23.5t17 -23 t26.5 -17t39 -6.5q51 0 80.5 31t29.5 76q0 43 -30.5 60.5t-107.5 17.5l15 119q85 1 119.5 24t34.5 77q0 32 -18.5 50.5t-54.5 18.5q-38 0 -61 -16.5t-37 -45.5q-13 -20 -25 -29t-32 -9q-5 0 -11 0.5t-13 1.5l-87 15q15 57 43.5 98.5t67 69.5t84.5 41.5t97 13.5z" />
<glyph unicode="&#xb4;" horiz-adv-x="591" d="M742 1461l-262 -261q-20 -20 -38 -27t-45 -7h-142l160 243q17 26 37.5 39t58.5 13h231z" />
<glyph unicode="&#xb5;" horiz-adv-x="1050" d="M405 1025q-21 -171 -36 -289t-24.5 -195t-14.5 -119.5t-7.5 -63t-3 -25.5t-0.5 -7q0 -74 33.5 -114.5t100.5 -40.5q56 0 108.5 27.5t103.5 76.5l94 750h237l-126 -1025h-146q-45 0 -54 44l-7 81q-32 -30 -61 -51.5t-58.5 -35t-60.5 -19.5t-65 -6q-51 0 -91.5 16.5 t-69.5 47.5q2 -14 2 -27v-27q0 -29 -2 -58t-5 -55l-30 -247h-118q-45 0 -69.5 21.5t-24.5 61.5v8t1 9l156 1262h238z" />
<glyph unicode="&#xb6;" horiz-adv-x="1401" d="M1486 1446l-25 -207h-215l-178 -1448h-215l177 1448h-235l-177 -1448h-216l103 839q-94 0 -170 26.5t-129 74.5t-82 114t-29 145q0 93 37 176t104 145.5t161 98.5t208 36h881z" />
<glyph unicode="&#xb7;" horiz-adv-x="559" d="M111 595q0 39 15 73.5t40.5 60t59.5 40t73 14.5q40 0 74.5 -14.5t60 -40t40.5 -60t15 -73.5t-15 -72.5t-40.5 -59t-60 -40t-74.5 -14.5q-39 0 -73 14.5t-59.5 40t-40.5 59t-15 72.5z" />
<glyph unicode="&#xb8;" horiz-adv-x="591" d="M83 -230q7 0 13.5 -2.5t14.5 -5.5t18 -5.5t24 -2.5q31 0 47 15.5t16 36.5q0 26 -30 38.5t-95 21.5l59 148h149l-28 -72q73 -19 103 -52.5t30 -76.5q0 -38 -18.5 -68t-51.5 -51t-78.5 -32t-99.5 -11q-38 0 -70 6t-64 18l33 74q8 21 28 21z" />
<glyph unicode="&#xb9;" horiz-adv-x="666" d="M233 1024h139l43 357l11 49l-88 -64q-10 -7 -19 -9.5t-17 -2.5q-14 0 -24 6t-15 13l-44 74l255 193h144l-76 -616h103l-15 -124h-413z" />
<glyph unicode="&#xba;" horiz-adv-x="717" d="M479 1463q61 0 110 -19t83.5 -54.5t53.5 -85.5t19 -111q0 -84 -26 -151t-71.5 -114.5t-108.5 -73t-137 -25.5q-62 0 -112 19t-85 54.5t-54 86t-19 113.5q0 83 26 149.5t72.5 113.5t110 72.5t138.5 25.5zM419 968q75 0 108 59.5t33 165.5q0 63 -24.5 97t-73.5 34 q-43 0 -71 -16.5t-44.5 -46t-23 -71t-6.5 -91.5q0 -64 25 -97.5t77 -33.5z" />
<glyph unicode="&#xbb;" horiz-adv-x="921" d="M504 552l-3 -30l-285 -396l-73 36q-31 15 -31 45q0 22 17 50l155 239q8 12 17 22.5t18 17.5q-17 16 -25 42l-97 239q-6 16 -6 32q0 41 44 61l82 37zM813 552l-3 -30l-285 -396l-73 36q-31 15 -31 45q0 22 17 50l155 239q8 12 17 22.5t18 17.5q-17 16 -25 42l-97 239 q-6 16 -6 32q0 41 44 61l82 37z" />
<glyph unicode="&#xbc;" horiz-adv-x="1475" d="M460 71q-29 -42 -60.5 -56.5t-69.5 -14.5h-98l938 1363q28 40 61 61t77 21h98zM1301 295h95l-11 -100q-2 -12 -11.5 -22t-25.5 -10h-63l-20 -163h-144l20 163h-290q-23 0 -35 10.5t-13 25.5l-7 85l395 455h165zM196 830h139l42 351q2 17 4.5 29t7.5 26l-88 -64 q-16 -12 -35 -12q-14 0 -25 7t-18 18l-41 68l255 193h144l-76 -616h103l-15 -124h-413zM1178 458q3 24 8 52.5t13 58.5l-232 -274h191z" />
<glyph unicode="&#xbd;" horiz-adv-x="1475" d="M427 71q-29 -42 -60.5 -56.5t-69.5 -14.5h-98l938 1363q28 40 61 61t77 21h98zM1170 747q53 0 93.5 -14.5t68 -40t41.5 -60.5t14 -76q0 -46 -15 -84t-40.5 -71.5t-58.5 -64.5t-69 -63l-151 -137q29 8 57 13t51 5h138q51 0 51 -44q0 -2 -3 -29l-9 -81h-539l8 56 q2 16 10.5 34t25.5 33l236 208q28 24 52.5 50t42.5 52.5t28.5 53t10.5 51.5q0 32 -18.5 52t-50.5 20q-34 0 -57.5 -18t-40.5 -49q-10 -19 -23.5 -27.5t-35.5 -8.5q-10 0 -31 3l-87 14q15 57 43.5 98.5t67.5 69.5t87 41.5t103 13.5zM203 830h139l42 351q2 17 4.5 29t7.5 26 l-88 -64q-16 -12 -35 -12q-14 0 -25 7t-18 18l-41 68l255 193h144l-76 -616h103l-15 -124h-413z" />
<glyph unicode="&#xbe;" horiz-adv-x="1475" d="M476 71q-29 -42 -60.5 -56.5t-69.5 -14.5h-98l938 1363q28 40 61 61t77 21h98zM1313 295h95l-11 -100q-2 -12 -11.5 -22t-25.5 -10h-63l-20 -163h-144l20 163h-290q-23 0 -35 10.5t-13 25.5l-7 85l395 455h165zM485 1453q52 0 92.5 -14.5t68 -38.5t41.5 -56t14 -67 q0 -68 -29.5 -112.5t-97.5 -68.5q51 -18 75.5 -50.5t24.5 -84.5q0 -67 -26 -116.5t-68 -82t-94 -48.5t-104 -16q-54 0 -95.5 10.5t-71.5 34t-50 61.5t-32 93l79 32q21 8 38 8q37 0 48 -28q11 -29 31.5 -49.5t61.5 -20.5q51 0 80.5 31t29.5 76q0 43 -30.5 60.5t-107.5 17.5 l15 119q85 1 119.5 24t34.5 77q0 32 -18.5 50.5t-54.5 18.5q-38 0 -61 -17t-37 -45q-10 -20 -23 -29t-33 -9q-5 0 -13 0.5t-24 3.5l-75 13q15 57 43.5 98.5t67 69.5t84.5 41.5t97 13.5zM1190 458q3 24 8 52.5t13 58.5l-232 -274h191z" />
<glyph unicode="&#xbf;" horiz-adv-x="780" d="M676 -205q-36 -29 -76.5 -55.5t-87 -46.5t-98.5 -32t-112 -12q-74 0 -133.5 20t-101.5 57.5t-64.5 91.5t-22.5 121q0 80 23 137t57.5 98t76.5 71t80.5 56t67.5 52.5t39 61.5l41 147h162v-164q0 -45 -23 -79t-57.5 -63.5t-74.5 -57t-74.5 -58.5t-57.5 -69t-23 -88 q0 -35 10.5 -61.5t28 -44.5t41 -27t50.5 -9q51 0 88.5 13t64.5 28.5t46 28.5t34 13q33 0 45 -28zM328 892q0 31 11.5 59t31.5 48t48 32t60 12t59.5 -12t48 -32t32.5 -48t12 -59q0 -32 -12 -59.5t-32.5 -47.5t-48 -31.5t-59.5 -11.5t-60 11.5t-48 31.5t-31.5 47.5t-11.5 59.5 z" />
<glyph unicode="&#xc0;" horiz-adv-x="1283" d="M1237 0h-201q-34 0 -54 16t-25 43l-60 302h-539l-134 -302q-11 -23 -36 -41t-56 -18h-204l699 1446h265zM439 544h421l-98 495q-8 36 -16 76t-15 90q-19 -50 -37.5 -92.5t-34.5 -74.5zM665 1789q19 0 32 -1.5t23 -6t18.5 -11.5t19.5 -19l153 -202h-202q-27 0 -41.5 8.5 t-33.5 25.5l-234 206h265z" />
<glyph unicode="&#xc1;" horiz-adv-x="1283" d="M1237 0h-201q-34 0 -54 16t-25 43l-60 302h-539l-134 -302q-11 -23 -36 -41t-56 -18h-204l699 1446h265zM439 544h421l-98 495q-8 36 -16 76t-15 90q-19 -50 -37.5 -92.5t-34.5 -74.5zM1202 1789l-284 -206q-23 -17 -45 -25.5t-48 -8.5h-193l204 202q12 12 22.5 19.5 t22 11.5t25 5.5t33.5 1.5h263z" />
<glyph unicode="&#xc2;" horiz-adv-x="1283" d="M1237 0h-201q-34 0 -54 16t-25 43l-60 302h-539l-134 -302q-11 -23 -36 -41t-56 -18h-204l699 1446h265zM439 544h421l-98 495q-8 36 -16 76t-15 90q-19 -50 -37.5 -92.5t-34.5 -74.5zM1109 1549h-181q-14 0 -29.5 5t-26.5 11l-79 70q-3 3 -7 6.5t-7 7.5l-16 -14l-97 -70 q-11 -8 -28.5 -12t-32.5 -4h-179l249 218h238z" />
<glyph unicode="&#xc3;" horiz-adv-x="1283" d="M1237 0h-201q-34 0 -54 16t-25 43l-60 302h-539l-134 -302q-11 -23 -36 -41t-56 -18h-204l699 1446h265zM439 544h421l-98 495q-8 36 -16 76t-15 90q-19 -50 -37.5 -92.5t-34.5 -74.5zM903 1695q24 0 41 16t21 48h130q-6 -48 -23 -88.5t-43.5 -70t-61.5 -45.5t-77 -16 q-33 0 -63 11.5t-56.5 25t-49 25t-41.5 11.5q-24 0 -40.5 -17.5t-20.5 -50.5h-132q6 49 23.5 90t44 70t61.5 45.5t76 16.5q34 0 64 -11t56.5 -24.5t49 -24.5t41.5 -11z" />
<glyph unicode="&#xc4;" horiz-adv-x="1283" d="M1237 0h-201q-34 0 -54 16t-25 43l-60 302h-539l-134 -302q-11 -23 -36 -41t-56 -18h-204l699 1446h265zM439 544h421l-98 495q-8 36 -16 76t-15 90q-19 -50 -37.5 -92.5t-34.5 -74.5zM706 1666q0 -24 -10 -45.5t-26.5 -37.5t-39 -25.5t-47.5 -9.5q-24 0 -45.5 9.5 t-38 25.5t-26 37.5t-9.5 45.5q0 25 9.5 47.5t26 39t38 26t45.5 9.5q25 0 47.5 -9.5t39 -26t26.5 -39t10 -47.5zM1057 1666q0 -24 -9.5 -45.5t-26 -37.5t-38.5 -25.5t-47 -9.5t-46.5 9.5t-38 25.5t-26 37.5t-9.5 45.5q0 25 9.5 47.5t26 39t38 26t46.5 9.5t47 -9.5t38.5 -26 t26 -39t9.5 -47.5z" />
<glyph unicode="&#xc5;" horiz-adv-x="1283" d="M1237 0h-201q-34 0 -54 16t-25 43l-60 302h-539l-134 -302q-11 -23 -36 -41t-56 -18h-204l699 1446h265zM439 544h421l-98 495q-8 36 -16 76t-15 90q-19 -50 -37.5 -92.5t-34.5 -74.5zM562 1683q0 43 17 78t45.5 60t65.5 39t78 14q42 0 80.5 -14t67 -39t45.5 -60t17 -78 q0 -42 -17 -76.5t-45.5 -59.5t-67 -38.5t-80.5 -13.5q-41 0 -78 13.5t-65.5 38.5t-45.5 59.5t-17 76.5zM681 1683q0 -39 23 -64t67 -25q40 0 64.5 25t24.5 64q0 42 -24.5 66t-64.5 24q-44 0 -67 -24t-23 -66z" />
<glyph unicode="&#xc6;" horiz-adv-x="1711" d="M743 1446h1007l-25 -207h-643v-412h467l-25 -199h-442v-421h516l-26 -207h-735v361h-467l-165 -302q-13 -23 -39.5 -41t-58.5 -18h-202zM470 544h367v690q-18 -45 -36 -83.5t-38 -72.5z" />
<glyph unicode="&#xc7;" horiz-adv-x="1207" d="M496 -230q7 0 13.5 -2.5t14.5 -5.5t18 -5.5t24 -2.5q31 0 47 15.5t16 36.5q0 26 -30 38.5t-95 21.5l49 123q-114 14 -203.5 66t-150.5 134.5t-93 190.5t-32 233t27 236.5t77 206t120 169.5t155 128t183.5 81t205.5 28q79 0 144 -14.5t118 -40.5t95 -62.5t76 -81.5 l-90 -108q-10 -12 -23.5 -21t-33.5 -9q-22 0 -42 18t-50.5 39.5t-79 39.5t-127.5 18q-104 0 -193 -42.5t-155 -121.5t-103.5 -190.5t-37.5 -250.5q0 -101 25.5 -181t70.5 -135.5t107 -85t135 -29.5q61 0 106.5 9.5t79 24.5t57.5 31.5t42 31.5t32 24.5t28 9.5q12 0 20 -5 t13 -10l91 -113q-85 -97 -195 -153t-251 -67l-17 -45q73 -19 103 -52.5t30 -76.5q0 -38 -18.5 -68t-51.5 -51t-78.5 -32t-99.5 -11q-38 0 -70 6t-64 18l33 74q8 21 28 21z" />
<glyph unicode="&#xc8;" horiz-adv-x="1051" d="M1091 1446l-26 -207h-582l-50 -411h457l-25 -199h-457l-52 -422h584l-26 -207h-844l178 1446h843zM581 1789q19 0 32 -1.5t23 -6t18.5 -11.5t19.5 -19l153 -202h-202q-27 0 -41.5 8.5t-33.5 25.5l-234 206h265z" />
<glyph unicode="&#xc9;" horiz-adv-x="1051" d="M1091 1446l-26 -207h-582l-50 -411h457l-25 -199h-457l-52 -422h584l-26 -207h-844l178 1446h843zM1095 1789l-284 -206q-23 -17 -45 -25.5t-48 -8.5h-193l204 202q12 12 22.5 19.5t22 11.5t25 5.5t33.5 1.5h263z" />
<glyph unicode="&#xca;" horiz-adv-x="1051" d="M1091 1446l-26 -207h-582l-50 -411h457l-25 -199h-457l-52 -422h584l-26 -207h-844l178 1446h843zM1025 1549h-181q-14 0 -29.5 5t-26.5 11l-79 70q-3 3 -7 6.5t-7 7.5l-16 -14l-97 -70q-11 -8 -28.5 -12t-32.5 -4h-179l249 218h238z" />
<glyph unicode="&#xcb;" horiz-adv-x="1051" d="M1091 1446l-26 -207h-582l-50 -411h457l-25 -199h-457l-52 -422h584l-26 -207h-844l178 1446h843zM622 1666q0 -24 -10 -45.5t-26.5 -37.5t-39 -25.5t-47.5 -9.5q-24 0 -45.5 9.5t-38 25.5t-26 37.5t-9.5 45.5q0 25 9.5 47.5t26 39t38 26t45.5 9.5q25 0 47.5 -9.5t39 -26 t26.5 -39t10 -47.5zM973 1666q0 -24 -9.5 -45.5t-26 -37.5t-38.5 -25.5t-47 -9.5t-46.5 9.5t-38 25.5t-26 37.5t-9.5 45.5q0 25 9.5 47.5t26 39t38 26t46.5 9.5t47 -9.5t38.5 -26t26 -39t9.5 -47.5z" />
<glyph unicode="&#xcc;" horiz-adv-x="580" d="M360 0h-261l177 1446h261zM317 1789q19 0 32 -1.5t23 -6t18.5 -11.5t19.5 -19l153 -202h-202q-27 0 -41.5 8.5t-33.5 25.5l-234 206h265z" />
<glyph unicode="&#xcd;" horiz-adv-x="580" d="M360 0h-261l177 1446h261zM831 1789l-284 -206q-23 -17 -45 -25.5t-48 -8.5h-193l204 202q12 12 22.5 19.5t22 11.5t25 5.5t33.5 1.5h263z" />
<glyph unicode="&#xce;" horiz-adv-x="580" d="M360 0h-261l177 1446h261zM761 1549h-181q-14 0 -29.5 5t-26.5 11l-79 70q-3 3 -7 6.5t-7 7.5l-16 -14l-97 -70q-11 -8 -28.5 -12t-32.5 -4h-179l249 218h238z" />
<glyph unicode="&#xcf;" horiz-adv-x="580" d="M360 0h-261l177 1446h261zM358 1666q0 -24 -10 -45.5t-26.5 -37.5t-39 -25.5t-47.5 -9.5q-24 0 -45.5 9.5t-38 25.5t-26 37.5t-9.5 45.5q0 25 9.5 47.5t26 39t38 26t45.5 9.5q25 0 47.5 -9.5t39 -26t26.5 -39t10 -47.5zM709 1666q0 -24 -9.5 -45.5t-26 -37.5t-38.5 -25.5 t-47 -9.5t-46.5 9.5t-38 25.5t-26 37.5t-9.5 45.5q0 25 9.5 47.5t26 39t38 26t46.5 9.5t47 -9.5t38.5 -26t26 -39t9.5 -47.5z" />
<glyph unicode="&#xd0;" horiz-adv-x="1455" d="M88 801h162l79 645h510q138 0 248.5 -47t188 -130t118.5 -198t41 -251q0 -180 -58 -331t-161 -259.5t-244.5 -169t-308.5 -60.5h-510l79 653h-164zM1169 814q0 97 -24 176t-69.5 134.5t-111.5 85.5t-150 30h-249l-54 -439h329l-17 -148h-330l-54 -446h249q109 0 198 42 t152 120.5t97 191t34 253.5z" />
<glyph unicode="&#xd1;" horiz-adv-x="1392" d="M384 1446q17 0 28.5 -1.5t20.5 -6t16 -12.5t15 -22l563 -987q2 29 4.5 56.5t5.5 51.5l113 921h229l-179 -1446h-133q-30 0 -51 9.5t-35 35.5l-560 987q-2 -24 -4 -46.5t-4 -42.5l-114 -943h-229l178 1446h136v0zM952 1695q24 0 41 16t21 48h130q-6 -48 -23 -88.5 t-43.5 -70t-61.5 -45.5t-77 -16q-33 0 -63 11.5t-56.5 25t-49 25t-41.5 11.5q-24 0 -40.5 -17.5t-20.5 -50.5h-132q6 49 23.5 90t44 70t61.5 45.5t76 16.5q34 0 64 -11t56.5 -24.5t49 -24.5t41.5 -11z" />
<glyph unicode="&#xd2;" horiz-adv-x="1464" d="M1446 820q0 -120 -26.5 -228.5t-76 -201.5t-119 -168t-156 -128t-187.5 -81.5t-212 -28.5q-138 0 -248 49t-187.5 135t-118.5 203t-41 254q0 120 26.5 228.5t76 201.5t119 168t156 128.5t187.5 82t213 28.5q138 0 248 -49t187 -135t118 -203.5t41 -254.5zM1180 814 q0 98 -24.5 178t-71 137t-113.5 88t-151 31q-108 0 -196.5 -44t-151.5 -125t-97.5 -195t-34.5 -253q0 -98 24 -178t70 -136.5t112.5 -87t151.5 -30.5q109 0 198 44t152 124t97.5 193.5t34.5 253.5zM753 1789q19 0 32 -1.5t23 -6t18.5 -11.5t19.5 -19l153 -202h-202 q-27 0 -41.5 8.5t-33.5 25.5l-234 206h265z" />
<glyph unicode="&#xd3;" horiz-adv-x="1464" d="M1446 820q0 -120 -26.5 -228.5t-76 -201.5t-119 -168t-156 -128t-187.5 -81.5t-212 -28.5q-138 0 -248 49t-187.5 135t-118.5 203t-41 254q0 120 26.5 228.5t76 201.5t119 168t156 128.5t187.5 82t213 28.5q138 0 248 -49t187 -135t118 -203.5t41 -254.5zM1180 814 q0 98 -24.5 178t-71 137t-113.5 88t-151 31q-108 0 -196.5 -44t-151.5 -125t-97.5 -195t-34.5 -253q0 -98 24 -178t70 -136.5t112.5 -87t151.5 -30.5q109 0 198 44t152 124t97.5 193.5t34.5 253.5zM1267 1789l-284 -206q-23 -17 -45 -25.5t-48 -8.5h-193l204 202 q12 12 22.5 19.5t22 11.5t25 5.5t33.5 1.5h263z" />
<glyph unicode="&#xd4;" horiz-adv-x="1464" d="M1446 820q0 -120 -26.5 -228.5t-76 -201.5t-119 -168t-156 -128t-187.5 -81.5t-212 -28.5q-138 0 -248 49t-187.5 135t-118.5 203t-41 254q0 120 26.5 228.5t76 201.5t119 168t156 128.5t187.5 82t213 28.5q138 0 248 -49t187 -135t118 -203.5t41 -254.5zM1180 814 q0 98 -24.5 178t-71 137t-113.5 88t-151 31q-108 0 -196.5 -44t-151.5 -125t-97.5 -195t-34.5 -253q0 -98 24 -178t70 -136.5t112.5 -87t151.5 -30.5q109 0 198 44t152 124t97.5 193.5t34.5 253.5zM1197 1549h-181q-14 0 -29.5 5t-26.5 11l-79 70q-3 3 -7 6.5t-7 7.5 l-16 -14l-97 -70q-11 -8 -28.5 -12t-32.5 -4h-179l249 218h238z" />
<glyph unicode="&#xd5;" horiz-adv-x="1464" d="M1446 820q0 -120 -26.5 -228.5t-76 -201.5t-119 -168t-156 -128t-187.5 -81.5t-212 -28.5q-138 0 -248 49t-187.5 135t-118.5 203t-41 254q0 120 26.5 228.5t76 201.5t119 168t156 128.5t187.5 82t213 28.5q138 0 248 -49t187 -135t118 -203.5t41 -254.5zM1180 814 q0 98 -24.5 178t-71 137t-113.5 88t-151 31q-108 0 -196.5 -44t-151.5 -125t-97.5 -195t-34.5 -253q0 -98 24 -178t70 -136.5t112.5 -87t151.5 -30.5q109 0 198 44t152 124t97.5 193.5t34.5 253.5zM991 1695q24 0 41 16t21 48h130q-6 -48 -23 -88.5t-43.5 -70t-61.5 -45.5 t-77 -16q-33 0 -63 11.5t-56.5 25t-49 25t-41.5 11.5q-24 0 -40.5 -17.5t-20.5 -50.5h-132q6 49 23.5 90t44 70t61.5 45.5t76 16.5q34 0 64 -11t56.5 -24.5t49 -24.5t41.5 -11z" />
<glyph unicode="&#xd6;" horiz-adv-x="1464" d="M1446 820q0 -120 -26.5 -228.5t-76 -201.5t-119 -168t-156 -128t-187.5 -81.5t-212 -28.5q-138 0 -248 49t-187.5 135t-118.5 203t-41 254q0 120 26.5 228.5t76 201.5t119 168t156 128.5t187.5 82t213 28.5q138 0 248 -49t187 -135t118 -203.5t41 -254.5zM1180 814 q0 98 -24.5 178t-71 137t-113.5 88t-151 31q-108 0 -196.5 -44t-151.5 -125t-97.5 -195t-34.5 -253q0 -98 24 -178t70 -136.5t112.5 -87t151.5 -30.5q109 0 198 44t152 124t97.5 193.5t34.5 253.5zM794 1666q0 -24 -10 -45.5t-26.5 -37.5t-39 -25.5t-47.5 -9.5 q-24 0 -45.5 9.5t-38 25.5t-26 37.5t-9.5 45.5q0 25 9.5 47.5t26 39t38 26t45.5 9.5q25 0 47.5 -9.5t39 -26t26.5 -39t10 -47.5zM1145 1666q0 -24 -9.5 -45.5t-26 -37.5t-38.5 -25.5t-47 -9.5t-46.5 9.5t-38 25.5t-26 37.5t-9.5 45.5q0 25 9.5 47.5t26 39t38 26t46.5 9.5 t47 -9.5t38.5 -26t26 -39t9.5 -47.5z" />
<glyph unicode="&#xd7;" d="M1094 999l-368 -327l300 -342l-140 -125l-301 342l-386 -344l-110 125l386 344l-288 329l141 125l288 -329l367 327z" />
<glyph unicode="&#xd8;" horiz-adv-x="1464" d="M1446 820q0 -120 -26.5 -228.5t-76 -201.5t-119 -168t-156 -128t-187.5 -81.5t-212 -28.5q-91 0 -168 21t-143 59l-83 -105q-32 -40 -73 -55t-78 -15h-102l216 273q-80 87 -122 205t-42 258q0 120 26.5 228.5t76 201.5t119 168t156 128.5t187.5 82t213 28.5 q99 0 183 -25.5t153 -72.5l65 82q14 18 26 30t24.5 19.5t28 11t36.5 3.5h133l-199 -251q70 -86 107 -197.5t37 -241.5zM340 631q0 -79 15.5 -145t44.5 -119l639 808q-44 35 -98.5 54t-120.5 19q-108 0 -196.5 -44t-151.5 -125t-97.5 -195t-34.5 -253zM1180 814 q0 67 -11.5 125.5t-33.5 107.5l-629 -796q81 -52 192 -52q109 0 198 44t152 124t97.5 193.5t34.5 253.5z" />
<glyph unicode="&#xd9;" horiz-adv-x="1338" d="M635 208q70 0 128.5 26.5t102.5 75t72.5 116.5t38.5 151l107 869h259l-106 -869q-16 -128 -68 -237t-133.5 -188t-190 -123.5t-237.5 -44.5q-117 0 -208 36.5t-153.5 102.5t-95 157.5t-32.5 201.5q0 45 6 95l105 869h260l-107 -868q-2 -19 -3 -37t-1 -35q0 -68 16.5 -123 t49 -94t80.5 -60t110 -21zM694 1788q19 0 32 -1.5t23 -6t18.5 -11.5t19.5 -19l153 -202h-202q-27 0 -41.5 8.5t-33.5 25.5l-234 206h265z" />
<glyph unicode="&#xda;" horiz-adv-x="1338" d="M635 208q70 0 128.5 26.5t102.5 75t72.5 116.5t38.5 151l107 869h259l-106 -869q-16 -128 -68 -237t-133.5 -188t-190 -123.5t-237.5 -44.5q-117 0 -208 36.5t-153.5 102.5t-95 157.5t-32.5 201.5q0 45 6 95l105 869h260l-107 -868q-2 -19 -3 -37t-1 -35q0 -68 16.5 -123 t49 -94t80.5 -60t110 -21zM1208 1788l-284 -206q-23 -17 -45 -25.5t-48 -8.5h-193l204 202q12 12 22.5 19.5t22 11.5t25 5.5t33.5 1.5h263z" />
<glyph unicode="&#xdb;" horiz-adv-x="1338" d="M635 208q70 0 128.5 26.5t102.5 75t72.5 116.5t38.5 151l107 869h259l-106 -869q-16 -128 -68 -237t-133.5 -188t-190 -123.5t-237.5 -44.5q-117 0 -208 36.5t-153.5 102.5t-95 157.5t-32.5 201.5q0 45 6 95l105 869h260l-107 -868q-2 -19 -3 -37t-1 -35q0 -68 16.5 -123 t49 -94t80.5 -60t110 -21zM1138 1548h-181q-14 0 -29.5 5t-26.5 11l-79 70q-3 3 -7 6.5t-7 7.5l-16 -14l-97 -70q-11 -8 -28.5 -12t-32.5 -4h-179l249 218h238z" />
<glyph unicode="&#xdc;" horiz-adv-x="1338" d="M635 208q70 0 128.5 26.5t102.5 75t72.5 116.5t38.5 151l107 869h259l-106 -869q-16 -128 -68 -237t-133.5 -188t-190 -123.5t-237.5 -44.5q-117 0 -208 36.5t-153.5 102.5t-95 157.5t-32.5 201.5q0 45 6 95l105 869h260l-107 -868q-2 -19 -3 -37t-1 -35q0 -68 16.5 -123 t49 -94t80.5 -60t110 -21zM735 1665q0 -24 -10 -45.5t-26.5 -37.5t-39 -25.5t-47.5 -9.5q-24 0 -45.5 9.5t-38 25.5t-26 37.5t-9.5 45.5q0 25 9.5 47.5t26 39t38 26t45.5 9.5q25 0 47.5 -9.5t39 -26t26.5 -39t10 -47.5zM1086 1665q0 -24 -9.5 -45.5t-26 -37.5t-38.5 -25.5 t-47 -9.5t-46.5 9.5t-38 25.5t-26 37.5t-9.5 45.5q0 25 9.5 47.5t26 39t38 26t46.5 9.5t47 -9.5t38.5 -26t26 -39t9.5 -47.5z" />
<glyph unicode="&#xdd;" horiz-adv-x="1212" d="M745 563l-70 -563h-260l70 564l-376 882h231q34 0 52 -16.5t28 -42.5l187 -500q14 -36 22.5 -70.5t14.5 -67.5q16 33 34.5 67t41.5 71l311 500q14 23 36.5 41t55.5 18h215zM1166 1787l-284 -206q-23 -17 -45 -25.5t-48 -8.5h-193l204 202q12 12 22.5 19.5t22 11.5t25 5.5 t33.5 1.5h263z" />
<glyph unicode="&#xde;" horiz-adv-x="1155" d="M543 1194h182q121 0 209.5 -29.5t146 -82t85 -125t27.5 -158.5q0 -117 -36.5 -215t-110 -169.5t-183 -111.5t-254.5 -40h-182l-32 -263h-258l177 1446h260zM518 993l-66 -529h183q77 0 133 23t92.5 64.5t54 99t17.5 126.5q0 49 -14 89t-43 68t-72.5 43.5t-103.5 15.5 h-181z" />
<glyph unicode="&#xdf;" horiz-adv-x="1158" d="M758 1470q102 0 171.5 -30.5t113 -76t62.5 -100t19 -102.5q0 -66 -21.5 -112.5t-53 -80.5t-69 -58.5t-69 -47.5t-53 -47.5t-21.5 -57.5q0 -30 20 -52.5t50 -43.5t65.5 -44.5t65.5 -56.5t50 -78.5t20 -109.5q0 -95 -34.5 -167t-91.5 -121.5t-131 -74.5t-153 -25 q-42 0 -82.5 9.5t-77 26.5t-68 40t-56.5 50l67 91q11 15 27 24t38 9q21 0 39 -13t39 -29t48 -29t67 -13q29 0 55 12t45 33.5t30 50.5t11 62q0 41 -22 69.5t-55.5 51.5t-72 44.5t-72 50t-55.5 67t-22 96.5q0 67 23 113.5t58 81t75 62.5t75 57.5t58 65t23 86.5q0 28 -9.5 54.5 t-29.5 46t-51.5 31.5t-76.5 12q-60 0 -109 -34t-85.5 -90.5t-60.5 -129.5t-33 -151l-103 -850l-51 -188q-14 -49 -43.5 -75t-83.5 -26h-99l132 1088l-91 16q-26 5 -40 17t-14 34l11 106h166q27 90 77.5 172.5t119.5 145.5t154.5 100.5t184.5 37.5z" />
<glyph unicode="&#xe0;" horiz-adv-x="1035" d="M858 0h-130q-45 0 -63 21t-18 53l8 140q-68 -106 -153 -167.5t-187 -61.5q-58 0 -108.5 23t-88 68.5t-59 114t-21.5 160.5t23 179t65.5 163.5t102.5 140.5t134.5 110t161 71.5t182.5 25.5q69 0 138.5 -10t136.5 -36zM412 187q41 0 80.5 28t74.5 77.5t65 116.5t52 144 l39 310q-27 3 -50 3q-83 0 -154 -38t-123 -102.5t-81.5 -150t-29.5 -180.5q0 -108 34 -158t93 -50zM639 1461q38 0 55 -13t28 -39l100 -243h-136q-26 0 -42.5 7t-30.5 27l-198 261h224z" />
<glyph unicode="&#xe1;" horiz-adv-x="1035" d="M858 0h-130q-45 0 -63 21t-18 53l8 140q-68 -106 -153 -167.5t-187 -61.5q-58 0 -108.5 23t-88 68.5t-59 114t-21.5 160.5t23 179t65.5 163.5t102.5 140.5t134.5 110t161 71.5t182.5 25.5q69 0 138.5 -10t136.5 -36zM412 187q41 0 80.5 28t74.5 77.5t65 116.5t52 144 l39 310q-27 3 -50 3q-83 0 -154 -38t-123 -102.5t-81.5 -150t-29.5 -180.5q0 -108 34 -158t93 -50zM1040 1461l-262 -261q-20 -20 -38 -27t-45 -7h-142l160 243q17 26 37.5 39t58.5 13h231z" />
<glyph unicode="&#xe2;" horiz-adv-x="1035" d="M858 0h-130q-45 0 -63 21t-18 53l8 140q-68 -106 -153 -167.5t-187 -61.5q-58 0 -108.5 23t-88 68.5t-59 114t-21.5 160.5t23 179t65.5 163.5t102.5 140.5t134.5 110t161 71.5t182.5 25.5q69 0 138.5 -10t136.5 -36zM412 187q41 0 80.5 28t74.5 77.5t65 116.5t52 144 l39 310q-27 3 -50 3q-83 0 -154 -38t-123 -102.5t-81.5 -150t-29.5 -180.5q0 -108 34 -158t93 -50zM996 1168h-158q-14 0 -27 5.5t-19 12.5l-81 99q-8 8 -17 20q-6 -6 -11.5 -11t-10.5 -9l-108 -99q-8 -7 -21.5 -12.5t-28.5 -5.5h-165l246 277h224z" />
<glyph unicode="&#xe3;" horiz-adv-x="1035" d="M858 0h-130q-45 0 -63 21t-18 53l8 140q-68 -106 -153 -167.5t-187 -61.5q-58 0 -108.5 23t-88 68.5t-59 114t-21.5 160.5t23 179t65.5 163.5t102.5 140.5t134.5 110t161 71.5t182.5 25.5q69 0 138.5 -10t136.5 -36zM412 187q41 0 80.5 28t74.5 77.5t65 116.5t52 144 l39 310q-27 3 -50 3q-83 0 -154 -38t-123 -102.5t-81.5 -150t-29.5 -180.5q0 -108 34 -158t93 -50zM796 1355q26 0 43 17t24 60h144q-7 -55 -27 -99.5t-49.5 -76t-67 -49t-79.5 -17.5q-33 0 -60.5 13t-50.5 28.5t-43 28.5t-38 13q-26 0 -43 -18t-22 -60h-146q7 55 27 99.5 t50 76.5t67.5 49.5t78.5 17.5q33 0 60.5 -13t51 -28.5t43 -28.5t37.5 -13z" />
<glyph unicode="&#xe4;" horiz-adv-x="1035" d="M858 0h-130q-45 0 -63 21t-18 53l8 140q-68 -106 -153 -167.5t-187 -61.5q-58 0 -108.5 23t-88 68.5t-59 114t-21.5 160.5t23 179t65.5 163.5t102.5 140.5t134.5 110t161 71.5t182.5 25.5q69 0 138.5 -10t136.5 -36zM412 187q41 0 80.5 28t74.5 77.5t65 116.5t52 144 l39 310q-27 3 -50 3q-83 0 -154 -38t-123 -102.5t-81.5 -150t-29.5 -180.5q0 -108 34 -158t93 -50zM643 1314q0 -28 -11 -52.5t-30.5 -42.5t-45 -28.5t-54.5 -10.5q-27 0 -51.5 10.5t-43 28.5t-29.5 42.5t-11 52.5q0 29 11 54.5t29.5 44.5t43 30t51.5 11q29 0 54.5 -11 t45 -30t30.5 -44.5t11 -54.5zM1016 1314q0 -28 -11 -52.5t-29.5 -42.5t-44 -28.5t-54.5 -10.5q-28 0 -53 10.5t-43.5 28.5t-29.5 42.5t-11 52.5q0 29 11 54.5t29.5 44.5t43.5 30t53 11q29 0 54.5 -11t44 -30t29.5 -44.5t11 -54.5z" />
<glyph unicode="&#xe5;" horiz-adv-x="1035" d="M858 0h-130q-45 0 -63 21t-18 53l8 140q-68 -106 -153 -167.5t-187 -61.5q-58 0 -108.5 23t-88 68.5t-59 114t-21.5 160.5t23 179t65.5 163.5t102.5 140.5t134.5 110t161 71.5t182.5 25.5q69 0 138.5 -10t136.5 -36zM412 187q41 0 80.5 28t74.5 77.5t65 116.5t52 144 l39 310q-27 3 -50 3q-83 0 -154 -38t-123 -102.5t-81.5 -150t-29.5 -180.5q0 -108 34 -158t93 -50zM488 1325q0 46 18 84t48.5 65t70.5 42t84 15q45 0 86 -15t72 -42t49.5 -65t18.5 -84q0 -45 -18.5 -82t-49.5 -63.5t-72 -41t-86 -14.5q-44 0 -84 14.5t-70.5 41t-48.5 63.5 t-18 82zM622 1325q0 -38 23.5 -63.5t67.5 -25.5q40 0 64 25.5t24 63.5q0 42 -24 66.5t-64 24.5q-44 0 -67.5 -24.5t-23.5 -66.5z" />
<glyph unicode="&#xe6;" horiz-adv-x="1460" d="M1119 1041q64 0 119 -20.5t95.5 -56.5t63.5 -84t23 -102q0 -37 -10.5 -74.5t-36 -72t-68.5 -65t-108.5 -54t-156.5 -38.5t-211 -18q0 -146 54 -213t151 -67q67 0 110 17.5t74 38.5t55.5 38.5t53.5 17.5q12 0 24 -5.5t20 -16.5l63 -76q-53 -53 -103.5 -92t-104 -64 t-112.5 -37t-129 -12q-97 0 -177 49t-126 151q-34 -53 -77.5 -91t-92 -62.5t-100 -36t-100.5 -11.5q-148 0 -222.5 63.5t-74.5 183.5q0 67 29 132t99 117.5t187 87t292 39.5q5 45 6.5 63.5t1.5 30.5q0 78 -33 115.5t-97 37.5q-54 0 -91.5 -14.5t-67 -31.5t-54 -31.5 t-53.5 -14.5q-24 0 -40 12t-24 31l-33 77q91 81 186 121.5t204 40.5q105 0 167.5 -41.5t90.5 -114.5q62 72 145.5 112.5t188.5 40.5zM603 461q-105 -5 -174 -21.5t-110 -43t-57.5 -61t-16.5 -74.5q0 -57 29.5 -85.5t83.5 -28.5q44 0 84 15.5t71.5 48.5t53.5 83.5t31 120.5z M1088 869q-52 0 -93 -19.5t-72 -55t-51.5 -85.5t-31.5 -112q112 9 183 25.5t111.5 38.5t55.5 49t15 56q0 45 -28.5 74t-88.5 29z" />
<glyph unicode="&#xe7;" horiz-adv-x="871" d="M287 -230q7 0 13.5 -2.5t14.5 -5.5t18 -5.5t24 -2.5q31 0 47 15.5t16 36.5q0 26 -30 38.5t-95 21.5l50 127q-70 13 -125 48.5t-92.5 89.5t-57.5 125.5t-20 156.5q0 125 40 238.5t112 200t171 138t216 51.5q102 0 173.5 -36t127.5 -108l-79 -94q-8 -10 -20 -17t-26 -7 q-17 0 -31 10.5t-32.5 22.5t-46 22.5t-71.5 10.5q-57 0 -109 -31t-91.5 -88t-63 -137t-23.5 -177q0 -113 50 -174.5t135 -61.5q57 0 94.5 16.5t63.5 36t46.5 36t44.5 16.5q26 0 44 -23l63 -76q-44 -49 -84.5 -83.5t-82 -57.5t-85 -36t-93.5 -17l-18 -46q73 -19 103 -52.5 t30 -76.5q0 -38 -18.5 -68t-51.5 -51t-78.5 -32t-99.5 -11q-38 0 -70 6t-64 18l33 74q8 21 28 21z" />
<glyph unicode="&#xe8;" horiz-adv-x="946" d="M918 788q0 -69 -27.5 -126t-98.5 -102t-192.5 -77.5t-309.5 -51.5v-13q0 -242 205 -242q44 0 78 8.5t59.5 20.5t46 27t38 27t34.5 20.5t37 8.5q12 0 24 -5.5t20 -16.5l63 -76q-53 -53 -104 -92t-104 -64t-112 -37t-129 -12q-90 0 -163 30.5t-125 86t-80.5 134 t-28.5 175.5q0 81 17.5 159t50.5 148t81 129t108.5 102t133 67t155.5 24q81 0 141.5 -23t101 -59.5t60.5 -81.5t20 -88zM581 868q-50 0 -93 -20.5t-77.5 -57.5t-60 -88.5t-40.5 -112.5q124 17 199.5 37t117 44t55 51t13.5 58q0 15 -6.5 31t-20 28.5t-35 21t-52.5 8.5z M524 1461q38 0 55 -13t28 -39l100 -243h-136q-26 0 -42.5 7t-30.5 27l-198 261h224z" />
<glyph unicode="&#xe9;" horiz-adv-x="946" d="M918 788q0 -69 -27.5 -126t-98.5 -102t-192.5 -77.5t-309.5 -51.5v-13q0 -242 205 -242q44 0 78 8.5t59.5 20.5t46 27t38 27t34.5 20.5t37 8.5q12 0 24 -5.5t20 -16.5l63 -76q-53 -53 -104 -92t-104 -64t-112 -37t-129 -12q-90 0 -163 30.5t-125 86t-80.5 134 t-28.5 175.5q0 81 17.5 159t50.5 148t81 129t108.5 102t133 67t155.5 24q81 0 141.5 -23t101 -59.5t60.5 -81.5t20 -88zM581 868q-50 0 -93 -20.5t-77.5 -57.5t-60 -88.5t-40.5 -112.5q124 17 199.5 37t117 44t55 51t13.5 58q0 15 -6.5 31t-20 28.5t-35 21t-52.5 8.5z M961 1461l-262 -261q-20 -20 -38 -27t-45 -7h-142l160 243q17 26 37.5 39t58.5 13h231z" />
<glyph unicode="&#xea;" horiz-adv-x="946" d="M918 788q0 -69 -27.5 -126t-98.5 -102t-192.5 -77.5t-309.5 -51.5v-13q0 -242 205 -242q44 0 78 8.5t59.5 20.5t46 27t38 27t34.5 20.5t37 8.5q12 0 24 -5.5t20 -16.5l63 -76q-53 -53 -104 -92t-104 -64t-112 -37t-129 -12q-90 0 -163 30.5t-125 86t-80.5 134 t-28.5 175.5q0 81 17.5 159t50.5 148t81 129t108.5 102t133 67t155.5 24q81 0 141.5 -23t101 -59.5t60.5 -81.5t20 -88zM581 868q-50 0 -93 -20.5t-77.5 -57.5t-60 -88.5t-40.5 -112.5q124 17 199.5 37t117 44t55 51t13.5 58q0 15 -6.5 31t-20 28.5t-35 21t-52.5 8.5z M921 1168h-158q-14 0 -27 5.5t-19 12.5l-81 99q-8 8 -17 20q-6 -6 -11.5 -11t-10.5 -9l-108 -99q-8 -7 -21.5 -12.5t-28.5 -5.5h-165l246 277h224z" />
<glyph unicode="&#xeb;" horiz-adv-x="946" d="M918 788q0 -69 -27.5 -126t-98.5 -102t-192.5 -77.5t-309.5 -51.5v-13q0 -242 205 -242q44 0 78 8.5t59.5 20.5t46 27t38 27t34.5 20.5t37 8.5q12 0 24 -5.5t20 -16.5l63 -76q-53 -53 -104 -92t-104 -64t-112 -37t-129 -12q-90 0 -163 30.5t-125 86t-80.5 134 t-28.5 175.5q0 81 17.5 159t50.5 148t81 129t108.5 102t133 67t155.5 24q81 0 141.5 -23t101 -59.5t60.5 -81.5t20 -88zM581 868q-50 0 -93 -20.5t-77.5 -57.5t-60 -88.5t-40.5 -112.5q124 17 199.5 37t117 44t55 51t13.5 58q0 15 -6.5 31t-20 28.5t-35 21t-52.5 8.5z M568 1314q0 -28 -11 -52.5t-30.5 -42.5t-45 -28.5t-54.5 -10.5q-27 0 -51.5 10.5t-43 28.5t-29.5 42.5t-11 52.5q0 29 11 54.5t29.5 44.5t43 30t51.5 11q29 0 54.5 -11t45 -30t30.5 -44.5t11 -54.5zM941 1314q0 -28 -11 -52.5t-29.5 -42.5t-44 -28.5t-54.5 -10.5 q-28 0 -53 10.5t-43.5 28.5t-29.5 42.5t-11 52.5q0 29 11 54.5t29.5 44.5t43.5 30t53 11q29 0 54.5 -11t44 -30t29.5 -44.5t11 -54.5z" />
<glyph unicode="&#xec;" horiz-adv-x="515" d="M441 1026l-123 -1026h-244l123 1026h244zM257 1461q38 0 55 -13t28 -39l100 -243h-136q-26 0 -42.5 7t-30.5 27l-198 261h224z" />
<glyph unicode="&#xed;" horiz-adv-x="515" d="M441 1026l-123 -1026h-244l123 1026h244zM693 1461l-262 -261q-20 -20 -38 -27t-45 -7h-142l160 243q17 26 37.5 39t58.5 13h231z" />
<glyph unicode="&#xee;" horiz-adv-x="515" d="M441 1026l-123 -1026h-244l123 1026h244zM653 1168h-158q-14 0 -27 5.5t-19 12.5l-81 99q-8 8 -17 20q-6 -6 -11.5 -11t-10.5 -9l-108 -99q-8 -7 -21.5 -12.5t-28.5 -5.5h-165l246 277h224z" />
<glyph unicode="&#xef;" horiz-adv-x="515" d="M441 1026l-123 -1026h-244l123 1026h244zM300 1314q0 -28 -11 -52.5t-30.5 -42.5t-45 -28.5t-54.5 -10.5q-27 0 -51.5 10.5t-43 28.5t-29.5 42.5t-11 52.5q0 29 11 54.5t29.5 44.5t43 30t51.5 11q29 0 54.5 -11t45 -30t30.5 -44.5t11 -54.5zM673 1314q0 -28 -11 -52.5 t-29.5 -42.5t-44 -28.5t-54.5 -10.5q-28 0 -53 10.5t-43.5 28.5t-29.5 42.5t-11 52.5q0 29 11 54.5t29.5 44.5t43.5 30t53 11q29 0 54.5 -11t44 -30t29.5 -44.5t11 -54.5z" />
<glyph unicode="&#xf0;" horiz-adv-x="1045" d="M430 1060q-7 11 -7 24q0 24 21 37l116 75q-67 35 -151 60q-49 16 -49 53q0 20 12 44l36 76q94 -17 179 -50t157 -85l184 114l40 -78q7 -14 7 -26q0 -24 -25 -41l-102 -65q75 -85 117 -202t42 -270q0 -170 -37.5 -307t-109 -233.5t-176 -148.5t-237.5 -52q-87 0 -160 29 t-125.5 83.5t-82 132.5t-29.5 175q0 107 36.5 202.5t101 167.5t152.5 114t192 42q94 0 165.5 -38t119.5 -113q-5 109 -37 190.5t-98 143.5l-207 -133zM476 167q51 0 97.5 20.5t85 67.5t67.5 123t45 187q-10 37 -27 71t-42.5 59t-61 40t-82.5 15q-63 0 -113.5 -26t-85.5 -71 t-53.5 -106t-18.5 -131q0 -59 14 -105.5t39 -78.5t60 -48.5t76 -16.5z" />
<glyph unicode="&#xf1;" horiz-adv-x="1077" d="M52 0l123 1027h126q39 0 60.5 -19t21.5 -61l-7 -133q78 115 173 171.5t196 56.5q57 0 103.5 -20.5t79.5 -60t51 -97t18 -132.5q0 -19 -1.5 -38.5t-3.5 -40.5l-77 -653h-247q20 169 34 286.5t23 195.5t14 122.5t7.5 67.5t3 30.5t0.5 12.5q0 66 -24 95.5t-75 29.5 q-41 0 -85 -24t-84 -68t-73 -106t-54 -138l-56 -504h-247zM759 1357q26 0 43 17t24 60h144q-7 -55 -27 -99.5t-49.5 -76t-67 -49t-79.5 -17.5q-33 0 -60.5 13t-50.5 28.5t-43 28.5t-38 13q-26 0 -43 -18t-22 -60h-146q7 55 27 99.5t50 76.5t67.5 49.5t78.5 17.5 q33 0 60.5 -13t51 -28.5t43 -28.5t37.5 -13z" />
<glyph unicode="&#xf2;" horiz-adv-x="1020" d="M460 175q62 0 112 35.5t85.5 95t54.5 138.5t19 166q0 125 -42.5 184t-128.5 59q-62 0 -112 -35t-85 -95t-54 -139t-19 -167q0 -125 42 -183.5t128 -58.5zM438 -15q-85 0 -157.5 28.5t-125 83.5t-82.5 135t-30 183q0 133 42.5 248t116 199t171.5 132t209 48 q85 0 157.5 -28.5t125.5 -83.5t83 -135t30 -183q0 -132 -43 -246.5t-116.5 -199t-171.5 -133t-209 -48.5zM513 1463q38 0 55 -13t28 -39l100 -243h-136q-26 0 -42.5 7t-30.5 27l-198 261h224z" />
<glyph unicode="&#xf3;" horiz-adv-x="1020" d="M460 175q62 0 112 35.5t85.5 95t54.5 138.5t19 166q0 125 -42.5 184t-128.5 59q-62 0 -112 -35t-85 -95t-54 -139t-19 -167q0 -125 42 -183.5t128 -58.5zM438 -15q-85 0 -157.5 28.5t-125 83.5t-82.5 135t-30 183q0 133 42.5 248t116 199t171.5 132t209 48 q85 0 157.5 -28.5t125.5 -83.5t83 -135t30 -183q0 -132 -43 -246.5t-116.5 -199t-171.5 -133t-209 -48.5zM950 1463l-262 -261q-20 -20 -38 -27t-45 -7h-142l160 243q17 26 37.5 39t58.5 13h231z" />
<glyph unicode="&#xf4;" horiz-adv-x="1020" d="M460 175q62 0 112 35.5t85.5 95t54.5 138.5t19 166q0 125 -42.5 184t-128.5 59q-62 0 -112 -35t-85 -95t-54 -139t-19 -167q0 -125 42 -183.5t128 -58.5zM438 -15q-85 0 -157.5 28.5t-125 83.5t-82.5 135t-30 183q0 133 42.5 248t116 199t171.5 132t209 48 q85 0 157.5 -28.5t125.5 -83.5t83 -135t30 -183q0 -132 -43 -246.5t-116.5 -199t-171.5 -133t-209 -48.5zM910 1170h-158q-14 0 -27 5.5t-19 12.5l-81 99q-8 8 -17 20q-6 -6 -11.5 -11t-10.5 -9l-108 -99q-8 -7 -21.5 -12.5t-28.5 -5.5h-165l246 277h224z" />
<glyph unicode="&#xf5;" horiz-adv-x="1020" d="M460 175q62 0 112 35.5t85.5 95t54.5 138.5t19 166q0 125 -42.5 184t-128.5 59q-62 0 -112 -35t-85 -95t-54 -139t-19 -167q0 -125 42 -183.5t128 -58.5zM438 -15q-85 0 -157.5 28.5t-125 83.5t-82.5 135t-30 183q0 133 42.5 248t116 199t171.5 132t209 48 q85 0 157.5 -28.5t125.5 -83.5t83 -135t30 -183q0 -132 -43 -246.5t-116.5 -199t-171.5 -133t-209 -48.5zM710 1357q26 0 43 17t24 60h144q-7 -55 -27 -99.5t-49.5 -76t-67 -49t-79.5 -17.5q-33 0 -60.5 13t-50.5 28.5t-43 28.5t-38 13q-26 0 -43 -18t-22 -60h-146 q7 55 27 99.5t50 76.5t67.5 49.5t78.5 17.5q33 0 60.5 -13t51 -28.5t43 -28.5t37.5 -13z" />
<glyph unicode="&#xf6;" horiz-adv-x="1020" d="M460 175q62 0 112 35.5t85.5 95t54.5 138.5t19 166q0 125 -42.5 184t-128.5 59q-62 0 -112 -35t-85 -95t-54 -139t-19 -167q0 -125 42 -183.5t128 -58.5zM438 -15q-85 0 -157.5 28.5t-125 83.5t-82.5 135t-30 183q0 133 42.5 248t116 199t171.5 132t209 48 q85 0 157.5 -28.5t125.5 -83.5t83 -135t30 -183q0 -132 -43 -246.5t-116.5 -199t-171.5 -133t-209 -48.5zM557 1316q0 -28 -11 -52.5t-30.5 -42.5t-45 -28.5t-54.5 -10.5q-27 0 -51.5 10.5t-43 28.5t-29.5 42.5t-11 52.5q0 29 11 54.5t29.5 44.5t43 30t51.5 11 q29 0 54.5 -11t45 -30t30.5 -44.5t11 -54.5zM930 1316q0 -28 -11 -52.5t-29.5 -42.5t-44 -28.5t-54.5 -10.5q-28 0 -53 10.5t-43.5 28.5t-29.5 42.5t-11 52.5q0 29 11 54.5t29.5 44.5t43.5 30t53 11q29 0 54.5 -11t44 -30t29.5 -44.5t11 -54.5z" />
<glyph unicode="&#xf7;" d="M126 760h974l-22 -177h-974zM496 1010q0 34 13.5 64t36 52.5t53 35.5t64.5 13q28 0 52.5 -10.5t41.5 -28.5t27 -42t10 -52q0 -35 -13.5 -64.5t-37 -51t-53.5 -34t-63 -12.5q-29 0 -53.5 10t-41.5 27.5t-26.5 41.5t-9.5 51zM408 298q0 34 13.5 64t36 52.5t53 35.5t64.5 13 q28 0 52.5 -10.5t41.5 -28.5t27 -42t10 -52q0 -35 -13.5 -64.5t-37 -51t-53.5 -34t-63 -12.5q-29 0 -53.5 10t-41.5 27.5t-26.5 41.5t-9.5 51z" />
<glyph unicode="&#xf8;" horiz-adv-x="1020" d="M438 -15q-117 0 -205 51l-10 -13q-29 -40 -69 -56t-79 -16h-91l137 187q-38 53 -58 122t-20 155q0 133 42.5 248t116 199t171.5 132t209 48q116 0 206 -52l13 18q13 18 24.5 30.5t23.5 20.5t27 11.5t37 3.5h122l-136 -186q38 -53 58.5 -122t20.5 -154q0 -132 -43 -246.5 t-116.5 -199t-171.5 -133t-209 -48.5zM274 417q0 -48 8 -91l373 514q-42 28 -95 28q-62 0 -114.5 -33t-90.5 -92.5t-59.5 -142.5t-21.5 -183zM460 159q62 0 114.5 33.5t90.5 93.5t59.5 142.5t21.5 181.5q0 24 -2 46t-6 42l-373 -512q40 -27 95 -27z" />
<glyph unicode="&#xf9;" horiz-adv-x="1075" d="M409 1026q-20 -169 -34 -286t-23 -195t-14 -123t-7.5 -68t-3 -31t-0.5 -13q0 -66 24.5 -94.5t74.5 -28.5q39 0 80.5 21.5t80 61.5t71.5 97t56 127l64 532h247l-124 -1026h-125q-17 0 -32.5 4.5t-28 13.5t-20 23t-7.5 33v4l6 125q-78 -110 -170.5 -164t-191.5 -54 q-57 0 -103.5 20.5t-79.5 59.5t-51 96.5t-18 131.5q0 20 1 40t4 42l77 651h247zM530 1463q38 0 55 -13t28 -39l100 -243h-136q-26 0 -42.5 7t-30.5 27l-198 261h224z" />
<glyph unicode="&#xfa;" horiz-adv-x="1075" d="M409 1026q-20 -169 -34 -286t-23 -195t-14 -123t-7.5 -68t-3 -31t-0.5 -13q0 -66 24.5 -94.5t74.5 -28.5q39 0 80.5 21.5t80 61.5t71.5 97t56 127l64 532h247l-124 -1026h-125q-17 0 -32.5 4.5t-28 13.5t-20 23t-7.5 33v4l6 125q-78 -110 -170.5 -164t-191.5 -54 q-57 0 -103.5 20.5t-79.5 59.5t-51 96.5t-18 131.5q0 20 1 40t4 42l77 651h247zM967 1463l-262 -261q-20 -20 -38 -27t-45 -7h-142l160 243q17 26 37.5 39t58.5 13h231z" />
<glyph unicode="&#xfb;" horiz-adv-x="1075" d="M409 1026q-20 -169 -34 -286t-23 -195t-14 -123t-7.5 -68t-3 -31t-0.5 -13q0 -66 24.5 -94.5t74.5 -28.5q39 0 80.5 21.5t80 61.5t71.5 97t56 127l64 532h247l-124 -1026h-125q-17 0 -32.5 4.5t-28 13.5t-20 23t-7.5 33v4l6 125q-78 -110 -170.5 -164t-191.5 -54 q-57 0 -103.5 20.5t-79.5 59.5t-51 96.5t-18 131.5q0 20 1 40t4 42l77 651h247zM927 1170h-158q-14 0 -27 5.5t-19 12.5l-81 99q-8 8 -17 20q-6 -6 -11.5 -11t-10.5 -9l-108 -99q-8 -7 -21.5 -12.5t-28.5 -5.5h-165l246 277h224z" />
<glyph unicode="&#xfc;" horiz-adv-x="1075" d="M409 1026q-20 -169 -34 -286t-23 -195t-14 -123t-7.5 -68t-3 -31t-0.5 -13q0 -66 24.5 -94.5t74.5 -28.5q39 0 80.5 21.5t80 61.5t71.5 97t56 127l64 532h247l-124 -1026h-125q-17 0 -32.5 4.5t-28 13.5t-20 23t-7.5 33v4l6 125q-78 -110 -170.5 -164t-191.5 -54 q-57 0 -103.5 20.5t-79.5 59.5t-51 96.5t-18 131.5q0 20 1 40t4 42l77 651h247zM574 1316q0 -28 -11 -52.5t-30.5 -42.5t-45 -28.5t-54.5 -10.5q-27 0 -51.5 10.5t-43 28.5t-29.5 42.5t-11 52.5q0 29 11 54.5t29.5 44.5t43 30t51.5 11q29 0 54.5 -11t45 -30t30.5 -44.5 t11 -54.5zM947 1316q0 -28 -11 -52.5t-29.5 -42.5t-44 -28.5t-54.5 -10.5q-28 0 -53 10.5t-43.5 28.5t-29.5 42.5t-11 52.5q0 29 11 54.5t29.5 44.5t43.5 30t53 11q29 0 54.5 -11t44 -30t29.5 -44.5t11 -54.5z" />
<glyph unicode="&#xfd;" horiz-adv-x="994" d="M371 -284q-26 -51 -80 -51h-183l228 413l-259 948h207q27 0 40.5 -13.5t18.5 -32.5l126 -532q6 -26 9.5 -51t5.5 -51q11 26 22.5 51.5t23.5 51.5l253 532q10 20 29 32.5t39 12.5h198zM937 1463l-262 -261q-20 -20 -38 -27t-45 -7h-142l160 243q17 26 37.5 39t58.5 13h231 z" />
<glyph unicode="&#xfe;" horiz-adv-x="1069" d="M19 -335l222 1821h243l-82 -662q72 101 160.5 159.5t188.5 58.5q64 0 116 -23.5t89 -70.5t57 -119t20 -169q0 -87 -18 -171t-51 -159t-78.5 -138t-101.5 -109t-119.5 -72t-131.5 -26q-69 0 -125 24.5t-98 68.5l-40 -331q-4 -32 -30 -57t-68 -25h-153zM654 848 q-40 0 -81.5 -27.5t-80.5 -75.5t-73 -113.5t-58 -140.5l-31 -252q34 -36 78 -51t87 -15q66 0 120 41t92.5 107t59.5 148.5t21 165.5q0 108 -35.5 160.5t-98.5 52.5z" />
<glyph unicode="&#xff;" horiz-adv-x="994" d="M371 -284q-26 -51 -80 -51h-183l228 413l-259 948h207q27 0 40.5 -13.5t18.5 -32.5l126 -532q6 -26 9.5 -51t5.5 -51q11 26 22.5 51.5t23.5 51.5l253 532q10 20 29 32.5t39 12.5h198zM544 1316q0 -28 -11 -52.5t-30.5 -42.5t-45 -28.5t-54.5 -10.5q-27 0 -51.5 10.5 t-43 28.5t-29.5 42.5t-11 52.5q0 29 11 54.5t29.5 44.5t43 30t51.5 11q29 0 54.5 -11t45 -30t30.5 -44.5t11 -54.5zM917 1316q0 -28 -11 -52.5t-29.5 -42.5t-44 -28.5t-54.5 -10.5q-28 0 -53 10.5t-43.5 28.5t-29.5 42.5t-11 52.5q0 29 11 54.5t29.5 44.5t43.5 30t53 11 q29 0 54.5 -11t44 -30t29.5 -44.5t11 -54.5z" />
<glyph unicode="&#x104;" horiz-adv-x="1283" d="M1214 -190q18 0 21 -16l24 -88q-32 -22 -80 -36.5t-99 -14.5q-85 0 -129 37t-44 94q0 60 40 114.5t115 99.5h-26q-34 0 -54 16t-25 43l-60 302h-539l-134 -302q-11 -23 -36 -41t-56 -18h-204l699 1446h265l345 -1446h-33q-21 -11 -41.5 -26.5t-36 -34.5t-25.5 -41 t-10 -46q0 -26 14.5 -42t40.5 -16q17 0 28 2.5t18.5 5.5t12 5.5t9.5 2.5zM439 544h421l-98 495q-6 32 -15 74t-16 92q-19 -50 -37.5 -92.5t-34.5 -74.5z" />
<glyph unicode="&#x105;" horiz-adv-x="1043" d="M845 -190q18 0 21 -16l24 -88q-32 -22 -80 -36.5t-99 -14.5q-85 0 -129 37t-44 94q0 60 41 116t119 101q-29 8 -40 29t-11 50l8 132q-68 -106 -153 -167.5t-187 -61.5q-58 0 -108.5 23t-88 68.5t-59 114t-21.5 160.5t23 179t65.5 163.5t102.5 140.5t134.5 110t161 71.5 t182.5 25.5q69 0 138.5 -10t136.5 -36l-124 -995h-23q-21 -11 -41.5 -26.5t-36 -34.5t-25.5 -41t-10 -46q0 -26 14.5 -42t40.5 -16q17 0 28 2.5t18.5 5.5t12 5.5t9.5 2.5zM412 187q41 0 80.5 28t74.5 77.5t65 116.5t52 144l39 310q-27 3 -50 3q-83 0 -154 -38t-123 -102.5 t-81.5 -150t-29.5 -180.5q0 -108 34 -158t93 -50z" />
<glyph unicode="&#x106;" horiz-adv-x="1230" d="M678 204q61 0 106.5 9.5t79 24.5t57.5 31.5t42 31.5t32 24.5t28 9.5q12 0 20 -5t13 -10l91 -113q-94 -108 -221 -165.5t-292 -57.5q-133 0 -237 47.5t-176 131.5t-109.5 199t-37.5 251q0 125 27 236.5t77 206t120 169.5t155 128t183.5 81t205.5 28q79 0 144 -14.5 t118 -40.5t95 -62.5t76 -81.5l-90 -108q-10 -12 -23.5 -21t-33.5 -9q-22 0 -42 18t-50.5 39.5t-79 39.5t-127.5 18q-104 0 -193 -42.5t-155 -121.5t-103.5 -190.5t-37.5 -250.5q0 -101 25.5 -181t70.5 -135.5t107 -85t135 -29.5zM1255 1789l-284 -206q-23 -17 -45 -25.5 t-48 -8.5h-193l204 202q12 12 22.5 19.5t22 11.5t25 5.5t33.5 1.5h263z" />
<glyph unicode="&#x107;" horiz-adv-x="871" d="M838 182q-51 -56 -97.5 -94t-94.5 -61t-101 -32.5t-116 -9.5q-89 0 -159.5 30.5t-119.5 86.5t-74.5 135t-25.5 176q0 125 40 238.5t112 200t171 138t216 51.5q102 0 173.5 -36t127.5 -108l-79 -94q-9 -9 -20.5 -16.5t-25.5 -7.5q-17 0 -31 10.5t-32.5 22.5t-46 22.5 t-71.5 10.5q-57 0 -109 -31t-91.5 -88t-63 -137t-23.5 -177q0 -113 50 -174.5t135 -61.5q57 0 94.5 16.5t63.5 36t46.5 36t44.5 16.5q12 0 23.5 -6.5t20.5 -16.5l63 -76v0zM934 1463l-262 -261q-20 -20 -38 -27t-45 -7h-142l160 243q17 26 37.5 39t58.5 13h231z" />
<glyph unicode="&#x118;" horiz-adv-x="1051" d="M823 -190q18 0 21 -16l24 -88q-32 -22 -80 -36.5t-99 -14.5q-85 0 -129 37t-44 94q0 60 40 114.5t115 99.5h-601l178 1446h843l-26 -207h-582l-50 -411h457l-25 -199h-457l-52 -422h584l-26 -207h-101q-21 -11 -41.5 -26.5t-36 -34.5t-25.5 -41t-10 -46q0 -26 14.5 -42 t40.5 -16q17 0 28 2.5t18.5 5.5t12 5.5t9.5 2.5z" />
<glyph unicode="&#x119;" horiz-adv-x="946" d="M590 -190q18 0 21 -16l24 -88q-32 -22 -80 -36.5t-99 -14.5q-85 0 -129 37t-44 94q0 55 34 106t99 94q-83 5 -151 37.5t-116 87.5t-74 131t-26 169q0 81 17.5 159t50.5 148t81 129t108.5 102t133 67t155.5 24q81 0 141.5 -23t101 -59.5t60.5 -81.5t20 -88 q0 -69 -27.5 -126t-98.5 -102t-192.5 -77.5t-309.5 -51.5v-13q0 -242 205 -242q44 0 78 8.5t59.5 20.5t46 27t38 27t34.5 20.5t37 8.5q12 0 23.5 -6t20.5 -16l63 -76q-80 -80 -156 -127.5t-165 -65.5q-20 -11 -39.5 -26.5t-34.5 -34t-24 -39.5t-9 -45q0 -26 14.5 -42 t40.5 -16q17 0 28 2.5t18.5 5.5t12 5.5t9.5 2.5zM581 868q-50 0 -93 -20.5t-77.5 -57.5t-60 -88.5t-40.5 -112.5q124 17 199.5 37t117 44t55 51t13.5 58q0 15 -6.5 31t-20 28.5t-35 21t-52.5 8.5z" />
<glyph unicode="&#x131;" horiz-adv-x="515" d="M441 1026l-123 -1026h-244l123 1026h244z" />
<glyph unicode="&#x141;" horiz-adv-x="1016" d="M500 872l335 171l-22 -174q-2 -19 -12 -31.5t-26 -20.5l-302 -161l-54 -441h526l-25 -215h-786l65 533l-188 -92l23 177q4 33 34 48l157 80l87 700h259z" />
<glyph unicode="&#x142;" horiz-adv-x="634" d="M72 737q0 35 30 48l133 56l78 645h243l-68 -555l157 64v-142q0 -39 -34 -54l-146 -63l-89 -736h-243l78 647l-139 -56v146z" />
<glyph unicode="&#x143;" horiz-adv-x="1392" d="M384 1446q17 0 28.5 -1.5t20.5 -6t16 -12.5t15 -22l563 -987q2 29 4.5 56.5t5.5 51.5l113 921h229l-179 -1446h-133q-30 0 -51 9.5t-35 35.5l-560 987q-2 -24 -4 -46.5t-4 -42.5l-114 -943h-229l178 1446h136v0zM1228 1789l-284 -206q-23 -17 -45 -25.5t-48 -8.5h-193 l204 202q12 12 22.5 19.5t22 11.5t25 5.5t33.5 1.5h263z" />
<glyph unicode="&#x144;" horiz-adv-x="1077" d="M52 0l123 1027h126q39 0 60.5 -19t21.5 -61l-7 -133q78 115 173 171.5t196 56.5q57 0 103.5 -20.5t79.5 -60t51 -97t18 -132.5q0 -19 -1.5 -38.5t-3.5 -40.5l-77 -653h-247q20 169 34 286.5t23 195.5t14 122.5t7.5 67.5t3 30.5t0.5 12.5q0 66 -24 95.5t-75 29.5 q-41 0 -85 -24t-84 -68t-73 -106t-54 -138l-56 -504h-247zM999 1463l-262 -261q-20 -20 -38 -27t-45 -7h-142l160 243q17 26 37.5 39t58.5 13h231z" />
<glyph unicode="&#x152;" horiz-adv-x="1980" d="M2020 1446l-26 -207h-581l-51 -412h456l-24 -199h-456l-51 -421h580l-25 -207h-812l21 173q-88 -90 -201.5 -139t-247.5 -49q-123 0 -221 48t-166 132t-104.5 199.5t-36.5 250.5q0 121 24.5 231t69 204t108.5 170t142.5 130t170.5 83t193 29q135 0 235.5 -57.5 t165.5 -157.5l25 199h812zM1095 824q0 96 -20.5 175.5t-60 136.5t-97.5 88.5t-133 31.5q-101 0 -182.5 -46.5t-140 -130t-90 -200.5t-31.5 -258q0 -96 20.5 -175t60 -136t98 -88t134.5 -31q100 0 181.5 46t139.5 129.5t89.5 200t31.5 257.5z" />
<glyph unicode="&#x153;" horiz-adv-x="1557" d="M1230 1041q68 0 123.5 -18.5t94.5 -52.5t60.5 -81.5t21.5 -104.5q0 -66 -27.5 -122.5t-96.5 -101.5t-187.5 -77.5t-300.5 -50.5q3 -132 57 -194t148 -62q67 0 110 17.5t73.5 38.5t55 38.5t53.5 17.5q28 0 45 -22l63 -76q-53 -53 -103.5 -92t-104.5 -64t-113 -37t-128 -12 q-95 0 -174.5 48t-124.5 146q-73 -93 -173.5 -143.5t-221.5 -50.5q-83 0 -146.5 30.5t-106.5 81.5t-65 119t-22 143q0 167 45.5 294.5t122 213.5t176.5 130t208 44q99 0 169.5 -42t111.5 -117q65 75 154 117t203 42zM439 168q57 0 100.5 22.5t75.5 60t53 86.5t34 102 t18.5 106t5.5 100q0 101 -38.5 156.5t-117.5 55.5q-68 0 -121.5 -35t-91 -98.5t-57.5 -153t-20 -198.5q0 -40 8 -77t27 -65t49.5 -45t74.5 -17zM1191 870q-98 0 -168.5 -74t-94.5 -214q121 16 198 38t121 47t60.5 52.5t16.5 55.5q0 38 -32 66.5t-101 28.5z" />
<glyph unicode="&#x15a;" horiz-adv-x="989" d="M935 1186q-14 -20 -28 -29.5t-34 -9.5t-41 16t-50 35.5t-68.5 35.5t-95.5 16q-55 0 -97 -16t-70.5 -44t-43 -66t-14.5 -82q0 -46 23.5 -76.5t61.5 -53.5t87 -41t99.5 -38t99.5 -46t87 -64t61.5 -91.5t23.5 -129.5q0 -106 -36.5 -200t-105 -164.5t-166 -112t-219.5 -41.5 q-63 0 -124 13.5t-115 38.5t-100 60t-80 78l92 124q11 14 28 23t34 9q16 0 31.5 -10t34 -24.5t40 -32t49.5 -32t63 -24.5t81 -10q113 0 177 64t64 177q0 50 -23 82t-61 54t-86 38.5t-98.5 35t-98.5 43t-86 63t-61 94.5t-23 138q0 93 34.5 179t98.5 151.5t155.5 105 t206.5 39.5q59 0 113.5 -12t101.5 -34t86.5 -52.5t68.5 -67.5zM1077 1789l-284 -206q-23 -17 -45 -25.5t-48 -8.5h-193l204 202q12 12 22.5 19.5t22 11.5t25 5.5t33.5 1.5h263z" />
<glyph unicode="&#x15b;" horiz-adv-x="785" d="M733 833q-11 -16 -21 -22.5t-26 -6.5q-17 0 -35 10t-41.5 22.5t-54 22.5t-73.5 10q-79 0 -121 -35.5t-42 -88.5q0 -31 17.5 -52.5t45.5 -37.5t64 -29.5t74 -29t74 -35t64 -47.5t45.5 -67.5t17.5 -94.5q0 -74 -29.5 -141t-84.5 -117.5t-133 -80t-174 -29.5 q-49 0 -94.5 9.5t-85.5 26.5t-72.5 40t-55.5 50l60 94q11 17 26.5 26t36.5 9t38 -13t40 -28.5t55.5 -28.5t83.5 -13q41 0 72.5 11t53 30t32.5 44t11 53q0 34 -17 56.5t-45.5 39t-64.5 29t-73.5 26.5t-73 32t-64 45.5t-45.5 67t-17 96.5q0 68 26 132.5t76.5 114t124 79.5 t168.5 30q98 0 173.5 -33.5t127.5 -85.5zM864 1463l-262 -261q-20 -20 -38 -27t-45 -7h-142l160 243q17 26 37.5 39t58.5 13h231z" />
<glyph unicode="&#x160;" horiz-adv-x="989" d="M935 1186q-14 -20 -28 -29.5t-34 -9.5t-41 16t-50 35.5t-68.5 35.5t-95.5 16q-55 0 -97 -16t-70.5 -44t-43 -66t-14.5 -82q0 -46 23.5 -76.5t61.5 -53.5t87 -41t99.5 -38t99.5 -46t87 -64t61.5 -91.5t23.5 -129.5q0 -106 -36.5 -200t-105 -164.5t-166 -112t-219.5 -41.5 q-63 0 -124 13.5t-115 38.5t-100 60t-80 78l92 124q11 14 28 23t34 9q16 0 31.5 -10t34 -24.5t40 -32t49.5 -32t63 -24.5t81 -10q113 0 177 64t64 177q0 50 -23 82t-61 54t-86 38.5t-98.5 35t-98.5 43t-86 63t-61 94.5t-23 138q0 93 34.5 179t98.5 151.5t155.5 105 t206.5 39.5q59 0 113.5 -12t101.5 -34t86.5 -52.5t68.5 -67.5zM343 1767h217l113 -98l137 98h217l-250 -218h-238z" />
<glyph unicode="&#x161;" horiz-adv-x="785" d="M733 833q-11 -16 -21 -22.5t-26 -6.5q-17 0 -35 10t-41.5 22.5t-54 22.5t-73.5 10q-79 0 -121 -35.5t-42 -88.5q0 -31 17.5 -52.5t45.5 -37.5t64 -29.5t74 -29t74 -35t64 -47.5t45.5 -67.5t17.5 -94.5q0 -74 -29.5 -141t-84.5 -117.5t-133 -80t-174 -29.5 q-49 0 -94.5 9.5t-85.5 26.5t-72.5 40t-55.5 50l60 94q11 17 26.5 26t36.5 9t38 -13t40 -28.5t55.5 -28.5t83.5 -13q41 0 72.5 11t53 30t32.5 44t11 53q0 34 -17 56.5t-45.5 39t-64.5 29t-73.5 26.5t-73 32t-64 45.5t-45.5 67t-17 96.5q0 68 26 132.5t76.5 114t124 79.5 t168.5 30q98 0 173.5 -33.5t127.5 -85.5zM612 1170h-223l-177 277h164q14 0 26.5 -5.5t18.5 -12.5l82 -100q8 -10 17 -23q6 7 12.5 12.5t11.5 10.5l106 100q7 8 21 13t29 5h158z" />
<glyph unicode="&#x178;" horiz-adv-x="1212" d="M745 563l-70 -563h-260l70 564l-376 882h231q34 0 52 -16.5t28 -42.5l187 -500q14 -36 22.5 -70.5t14.5 -67.5q16 33 34.5 67t41.5 71l311 500q14 23 36.5 41t55.5 18h215zM693 1664q0 -24 -10 -45.5t-26.5 -37.5t-39 -25.5t-47.5 -9.5q-24 0 -45.5 9.5t-38 25.5 t-26 37.5t-9.5 45.5q0 25 9.5 47.5t26 39t38 26t45.5 9.5q25 0 47.5 -9.5t39 -26t26.5 -39t10 -47.5zM1044 1664q0 -24 -9.5 -45.5t-26 -37.5t-38.5 -25.5t-47 -9.5t-46.5 9.5t-38 25.5t-26 37.5t-9.5 45.5q0 25 9.5 47.5t26 39t38 26t46.5 9.5t47 -9.5t38.5 -26t26 -39 t9.5 -47.5z" />
<glyph unicode="&#x179;" horiz-adv-x="1133" d="M1204 1446l-11 -81q-2 -17 -10 -32t-19 -30l-799 -1096h670l-26 -207h-1016l10 79q2 17 9.5 32.5t18.5 29.5l801 1098h-642l25 207h989zM1133 1788l-284 -206q-23 -17 -45 -25.5t-48 -8.5h-193l204 202q12 12 22.5 19.5t22 11.5t25 5.5t33.5 1.5h263z" />
<glyph unicode="&#x17a;" horiz-adv-x="876" d="M869 924q-3 -26 -13.5 -51t-26.5 -41l-513 -642h451l-22 -190h-746l13 103q2 17 12.5 41t27.5 44l517 649h-441l23 189h731zM890 1463l-262 -261q-20 -20 -38 -27t-45 -7h-142l160 243q17 26 37.5 39t58.5 13h231z" />
<glyph unicode="&#x17b;" horiz-adv-x="1133" d="M1204 1446l-11 -81q-2 -17 -10 -32t-19 -30l-799 -1096h670l-26 -207h-1016l10 79q2 17 9.5 32.5t18.5 29.5l801 1098h-642l25 207h989zM882 1695q0 -30 -12.5 -56.5t-33.5 -47t-49 -32.5t-59 -12q-29 0 -56 12t-47.5 32.5t-32.5 47t-12 56.5q0 31 12 58.5t32.5 48 t47.5 32.5t56 12q31 0 59 -12t49 -32.5t33.5 -48t12.5 -58.5z" />
<glyph unicode="&#x17c;" horiz-adv-x="876" d="M869 924q-3 -26 -13.5 -51t-26.5 -41l-513 -642h451l-22 -190h-746l13 103q2 17 12.5 41t27.5 44l517 649h-441l23 189h731zM713 1331q0 -32 -13 -60.5t-35 -49.5t-51 -33.5t-62 -12.5q-32 0 -60.5 12.5t-49.5 33.5t-33.5 49.5t-12.5 60.5q0 33 12.5 61.5t33.5 50 t49.5 34t60.5 12.5q33 0 62 -12.5t51 -34t35 -50t13 -61.5z" />
<glyph unicode="&#x17d;" horiz-adv-x="1133" d="M1204 1446l-11 -81q-2 -17 -10 -32t-19 -30l-799 -1096h670l-26 -207h-1016l10 79q2 17 9.5 32.5t18.5 29.5l801 1098h-642l25 207h989zM410 1766h217l113 -98l137 98h217l-250 -218h-238z" />
<glyph unicode="&#x17e;" horiz-adv-x="876" d="M869 924q-3 -26 -13.5 -51t-26.5 -41l-513 -642h451l-22 -190h-746l13 103q2 17 12.5 41t27.5 44l517 649h-441l23 189h731zM638 1170h-223l-177 277h164q14 0 26.5 -5.5t18.5 -12.5l82 -100q8 -10 17 -23q6 7 12.5 12.5t11.5 10.5l106 100q7 8 21 13t29 5h158z" />
<glyph unicode="&#x192;" d="M734 748l-169 -694q-26 -105 -72.5 -181t-117 -124.5t-164.5 -71.5t-214 -23l16 124q9 74 85 74q41 0 77 11t66 36t52.5 64.5t36.5 97.5l168 682l-126 18q-47 11 -47 49q0 2 0.5 5t0.5 5l11 98h204l37 151q48 199 186 300t381 101l-16 -131q-5 -38 -25.5 -53t-59.5 -15 q-41 0 -78 -11t-67.5 -36t-54 -65t-38.5 -97l-37 -144h299l-21 -170h-313z" />
<glyph unicode="&#x2c6;" horiz-adv-x="591" d="M702 1168h-158q-14 0 -27 5.5t-19 12.5l-81 99q-8 8 -17 20q-6 -6 -11.5 -11t-10.5 -9l-108 -99q-8 -7 -21.5 -12.5t-28.5 -5.5h-165l246 277h224z" />
<glyph unicode="&#x2c7;" horiz-adv-x="591" d="M490 1168h-223l-177 277h164q14 0 26.5 -5.5t18.5 -12.5l82 -100q8 -10 17 -23q6 7 12.5 12.5t11.5 10.5l106 100q7 8 21 13t29 5h158z" />
<glyph unicode="&#x2c9;" horiz-adv-x="591" d="M129 1369h553l-19 -153h-553z" />
<glyph unicode="&#x2d8;" horiz-adv-x="591" d="M380 1161q-70 0 -118 17.5t-77.5 48.5t-42.5 73t-13 90q0 14 1 27.5t3 27.5h167q-3 -21 -3 -39q0 -45 22 -69.5t80 -24.5q35 0 58.5 9t39 26.5t23.5 42t11 55.5h166q-7 -58 -27.5 -109.5t-58 -90.5t-94.5 -61.5t-137 -22.5z" />
<glyph unicode="&#x2d9;" horiz-adv-x="591" d="M565 1329q0 -32 -13 -60.5t-35 -49.5t-51 -33.5t-62 -12.5q-32 0 -60.5 12.5t-49.5 33.5t-33.5 49.5t-12.5 60.5q0 33 12.5 61.5t33.5 50t49.5 34t60.5 12.5q33 0 62 -12.5t51 -34t35 -50t13 -61.5z" />
<glyph unicode="&#x2da;" horiz-adv-x="591" d="M174 1325q0 46 18 84t48.5 65t70.5 42t84 15q45 0 86 -15t72 -42t49.5 -65t18.5 -84q0 -45 -18.5 -82t-49.5 -63.5t-72 -41t-86 -14.5q-44 0 -84 14.5t-70.5 41t-48.5 63.5t-18 82zM308 1325q0 -38 23.5 -63.5t67.5 -25.5q40 0 64 25.5t24 63.5q0 42 -24 66.5t-64 24.5 q-44 0 -67.5 -24.5t-23.5 -66.5z" />
<glyph unicode="&#x2db;" horiz-adv-x="591" d="M347 -190q18 0 21 -16l24 -88q-32 -22 -80 -36.5t-99 -14.5q-85 0 -129 37t-44 94q0 63 45.5 121.5t130.5 104.5l121 -12q-21 -11 -41.5 -26.5t-36 -34.5t-25.5 -41t-10 -46q0 -26 14.5 -42t40.5 -16q17 0 28 2.5t18.5 5.5t12 5.5t9.5 2.5z" />
<glyph unicode="&#x2dc;" horiz-adv-x="591" d="M502 1355q26 0 43 17t24 60h144q-7 -55 -27 -99.5t-49.5 -76t-67 -49t-79.5 -17.5q-33 0 -60.5 13t-50.5 28.5t-43 28.5t-38 13q-26 0 -43 -18t-22 -60h-146q7 55 27 99.5t50 76.5t67.5 49.5t78.5 17.5q33 0 60.5 -13t51 -28.5t43 -28.5t37.5 -13z" />
<glyph unicode="&#x2dd;" horiz-adv-x="591" d="M540 1461l-215 -261q-17 -21 -37 -27.5t-46 -6.5h-98l145 243q16 26 37 39t59 13h155zM866 1461l-266 -261q-20 -19 -37.5 -26.5t-44.5 -7.5h-113l193 243q19 24 39 38t58 14h171z" />
<glyph unicode="&#x3c0;" horiz-adv-x="1194" d="M1225 1025l-12 -96q-4 -30 -25.5 -52t-56.5 -22h-94l-106 -855h-237l103 855h-301l-74 -592q-8 -63 -28.5 -114t-56 -87t-87.5 -56t-123 -20q-33 0 -69 7t-68 26l19 99q4 20 17 29.5t50 9.5q28 0 47 6t31.5 19.5t19.5 34t11 49.5l72 589h-163l11 85q2 14 9.5 29 t20.5 27.5t30.5 20.5t38.5 8h1021z" />
<glyph unicode="&#x2013;" horiz-adv-x="1050" d="M176 683h747l-21 -170h-747z" />
<glyph unicode="&#x2014;" horiz-adv-x="1555" d="M176 683h1252l-21 -170h-1252z" />
<glyph unicode="&#x2018;" horiz-adv-x="417" d="M212 982q-40 86 -40 174q0 111 60 213.5t171 187.5l67 -44q15 -9 15 -28q0 -11 -5.5 -20.5t-18.5 -23.5q-12 -14 -27.5 -35.5t-28.5 -49t-22 -60.5t-9 -70q0 -29 6.5 -60t21.5 -64q3 -8 3 -16q0 -15 -11 -27.5t-31 -20.5z" />
<glyph unicode="&#x2019;" horiz-adv-x="417" d="M404 1526q40 -86 40 -174q0 -111 -60 -213.5t-172 -187.5l-67 44q-15 10 -15 28q0 11 6 20t19 23q12 14 27.5 35.5t28.5 49.5t22 61t9 70q0 29 -6.5 60t-21.5 63q-3 9 -3 16q0 16 11 28.5t31 20.5z" />
<glyph unicode="&#x201a;" horiz-adv-x="459" d="M265 285q40 -86 40 -174q0 -111 -60 -213.5t-172 -187.5l-67 44q-15 10 -15 28q0 11 6 20t19 23q12 14 27.5 35.5t28.5 49.5t22 61t9 70q0 29 -6.5 60t-21.5 63q-3 9 -3 16q0 16 11 28.5t31 20.5z" />
<glyph unicode="&#x201c;" horiz-adv-x="727" d="M212 982q-40 86 -40 174q0 111 60 213.5t171 187.5l67 -44q15 -9 15 -28q0 -11 -5.5 -20.5t-18.5 -23.5q-12 -14 -27.5 -35.5t-28.5 -49t-22 -60.5t-9 -70q0 -29 6.5 -60t21.5 -64q3 -8 3 -16q0 -15 -11 -27.5t-31 -20.5zM523 982q-40 86 -40 174q0 111 60 213.5 t171 187.5l67 -44q15 -9 15 -28q0 -11 -5.5 -20.5t-18.5 -23.5q-12 -14 -27.5 -35.5t-28.5 -49t-22 -60.5t-9 -70q0 -29 6.5 -60t21.5 -64q3 -8 3 -16q0 -15 -11 -27.5t-31 -20.5z" />
<glyph unicode="&#x201d;" horiz-adv-x="727" d="M408 1526q40 -86 40 -174q0 -111 -60 -213.5t-172 -187.5l-67 44q-15 10 -15 28q0 11 6 20t19 23q12 14 27.5 35.5t28.5 49.5t22 61t9 70q0 29 -6.5 60t-21.5 63q-3 9 -3 16q0 16 11 28.5t31 20.5zM718 1526q40 -86 40 -174q0 -111 -60 -213.5t-172 -187.5l-67 44 q-15 10 -15 28q0 11 6 20t19 23q12 14 27.5 35.5t28.5 49.5t22 61t9 70q0 29 -6.5 60t-21.5 63q-3 9 -3 16q0 16 11 28.5t31 20.5z" />
<glyph unicode="&#x201e;" horiz-adv-x="727" d="M247 285q40 -86 40 -174q0 -111 -60 -213.5t-172 -187.5l-67 44q-15 10 -15 28q0 11 6 20t19 23q12 14 27.5 35.5t28.5 49.5t22 61t9 70q0 29 -6.5 60t-21.5 63q-3 9 -3 16q0 16 11 28.5t31 20.5zM558 285q40 -86 40 -174q0 -111 -60 -213.5t-172 -187.5l-67 44 q-15 10 -15 28q0 11 6 20t19 23q12 14 27.5 35.5t28.5 49.5t22 61t9 70q0 29 -6.5 60t-21.5 63q-3 9 -3 16q0 16 11 28.5t31 20.5z" />
<glyph unicode="&#x2020;" horiz-adv-x="1068" d="M128 944q2 19 11 37.5t24.5 33t37.5 23t51 8.5q28 0 58.5 -4.5t63 -11t66.5 -14t67 -12.5l26 460q26 14 59 22t68 8q71 0 118 -30l-86 -460q34 5 69.5 12.5t69.5 14t66 11t61 4.5q53 0 76 -26.5t23 -61.5v-5t-1 -12t-3.5 -27t-6.5 -49h-371l-48 -393l-67 -797 q-28 -15 -60.5 -22.5t-67.5 -7.5t-65 7.5t-53 22.5l128 797l47 393h-371z" />
<glyph unicode="&#x2021;" horiz-adv-x="1068" d="M417 274l73 591h-372l10 79q2 19 11 37.5t24.5 33t37.5 23t51 8.5q28 0 58.5 -4.5t63 -11t66.5 -14t67 -12.5l26 460q26 14 59 22t68 8q71 0 118 -30l-86 -460q34 5 69.5 12.5t69.5 14t66 11t61 4.5q53 0 76 -26.5t23 -61.5q0 -9 -1 -14l-10 -79h-372l-74 -591h373 l-9 -79q-3 -20 -11.5 -39t-24 -33.5t-37.5 -23t-51 -8.5q-28 0 -59 4.5t-64 11t-67 14t-67 12.5l-23 -458q-28 -15 -60.5 -22.5t-67.5 -7.5t-65 7.5t-53 22.5l85 458q-35 -5 -70 -12.5t-69 -14t-66 -11t-60 -4.5q-52 0 -75.5 26t-23.5 62v5t1 12.5t3.5 27.5t6.5 50h371z" />
<glyph unicode="&#x2022;" d="M162 593q0 90 34.5 169t93.5 138.5t138 93.5t169 34q91 0 170.5 -34t138.5 -93.5t93.5 -138.5t34.5 -169q0 -89 -34.5 -167.5t-93.5 -137.5t-138.5 -93t-170.5 -34q-90 0 -169 34t-138 93t-93.5 137.5t-34.5 167.5z" />
<glyph unicode="&#x2026;" horiz-adv-x="1517" d="M34 136q0 31 11.5 59t32 48t48 32t59.5 12t59.5 -12t48 -32t32.5 -48t12 -59q0 -32 -12 -59.5t-32.5 -47.5t-48 -31.5t-59.5 -11.5t-59.5 11.5t-48 31.5t-32 47.5t-11.5 59.5zM568 136q0 31 11.5 59t32 48t48 32t59.5 12t59.5 -12t48 -32t32.5 -48t12 -59 q0 -32 -12 -59.5t-32.5 -47.5t-48 -31.5t-59.5 -11.5t-59.5 11.5t-48 31.5t-32 47.5t-11.5 59.5zM1102 136q0 31 11.5 59t31.5 48t48 32t60 12t59.5 -12t48 -32t32.5 -48t12 -59q0 -32 -12 -59.5t-32.5 -47.5t-48 -31.5t-59.5 -11.5t-60 11.5t-48 31.5t-31.5 47.5 t-11.5 59.5z" />
<glyph unicode="&#x2030;" horiz-adv-x="2166" d="M753 1150q0 -96 -31 -172.5t-81.5 -130t-115 -82t-131.5 -28.5q-60 0 -110 21.5t-85 61.5t-54.5 96.5t-19.5 126.5q0 95 28 172t76.5 131t114 83.5t139.5 29.5q60 0 110 -21.5t85.5 -62t55 -97.5t19.5 -128zM568 1149q0 84 -29.5 120t-74.5 36q-33 0 -61.5 -14.5 t-49.5 -46t-32.5 -81t-11.5 -120.5q0 -41 7.5 -70t21.5 -47t33 -26t42 -8q32 0 60.5 13.5t49.5 44t33 79.5t12 120zM1225 1407q14 14 32.5 26t49.5 12h173l-1166 -1409q-13 -16 -32 -26t-45 -10h-176zM1415 395q0 -96 -31 -172.5t-81 -130t-115 -82t-132 -28.5 q-60 0 -110 22t-85 61.5t-54.5 96t-19.5 125.5q0 96 28 173.5t76.5 131.5t114 83.5t139.5 29.5q60 0 110 -22t85.5 -62.5t55 -97.5t19.5 -128zM1231 394q0 84 -30 119.5t-75 35.5q-33 0 -61.5 -14.5t-49.5 -46t-32.5 -81t-11.5 -120.5q0 -81 29 -116t75 -35q33 0 61.5 13.5 t49.5 44t33 80t12 120.5zM2098 395q0 -96 -31 -172.5t-81 -130t-115 -82t-132 -28.5q-60 0 -110 22t-85 61.5t-54.5 96t-19.5 125.5q0 96 28 173.5t76.5 131.5t114 83.5t139.5 29.5q60 0 109.5 -22t85.5 -62.5t55.5 -97.5t19.5 -128zM1914 394q0 84 -30 119.5t-75 35.5 q-33 0 -61.5 -14.5t-49 -46t-32 -81t-11.5 -120.5q0 -81 28.5 -116t74.5 -35q32 0 60.5 13.5t49.5 44t33.5 80t12.5 120.5z" />
<glyph unicode="&#x2039;" horiz-adv-x="613" d="M121 522l5 30l285 395l73 -37q32 -13 32 -44q0 -11 -5.5 -23t-13.5 -26l-153 -239q-17 -25 -37 -42q8 -7 14 -17.5t12 -22.5l95 -239q8 -19 8 -35q0 -41 -43 -60l-83 -36z" />
<glyph unicode="&#x203a;" horiz-adv-x="613" d="M504 552l-3 -30l-285 -396l-73 36q-31 15 -31 45q0 22 17 50l155 239q8 12 17 22.5t18 17.5q-17 16 -25 42l-97 239q-6 16 -6 32q0 41 44 61l82 37z" />
<glyph unicode="&#x2044;" horiz-adv-x="670" d="M9 71q-29 -42 -60.5 -56.5t-69.5 -14.5h-98l938 1363q28 40 61 61t77 21h98z" />
<glyph unicode="&#x20ac;" d="M90 925h129q36 124 97.5 223t142.5 168t179 106t208 37q138 0 230 -53.5t148 -142.5l-95 -91q-11 -11 -22 -19t-31 -8t-35.5 17t-40 37.5t-64 37.5t-106.5 17q-127 0 -223 -84t-145 -245h516l-8 -75q-2 -21 -22.5 -39.5t-52.5 -18.5h-463q-9 -57 -12 -119h434l-9 -72 q-3 -23 -24 -41.5t-50 -18.5h-352q11 -172 81.5 -261t188.5 -89q49 0 86 9.5t64.5 23.5t48 30.5t36.5 30.5t30 23.5t28 9.5q11 0 17.5 -3.5t15.5 -12.5l91 -95q-83 -106 -197.5 -163.5t-256.5 -57.5q-114 0 -201.5 40.5t-147 114t-92 175.5t-37.5 225h-131l16 132h117 q2 31 5 60.5t8 58.5h-115z" />
<glyph unicode="&#x2122;" horiz-adv-x="1338" d="M965 1157q11 -35 17 -67q8 17 16 33t19 34l149 262q11 19 23.5 22.5t33.5 3.5h140l-73 -602h-144l38 310q2 20 7.5 41.5t14.5 51.5l-173 -304q-10 -17 -26 -26t-35 -9h-23q-18 0 -32.5 9t-19.5 26l-96 298q0 -35 -0.5 -56t-1.5 -31l-37 -310h-144l73 602h142 q21 0 32.5 -3.5t17.5 -22.5zM629 1445l-17 -136h-149l-57 -466h-163l56 466h-148l18 136h460z" />
<glyph unicode="&#x2126;" horiz-adv-x="1360" d="M682 0l61 489q70 13 132 45t108 85t72.5 130.5t26.5 182.5q0 76 -21 136t-61 101.5t-97 63t-130 21.5q-93 0 -167.5 -30t-127 -88t-81 -141.5t-28.5 -189.5q0 -71 18.5 -125t51.5 -93t78.5 -63t99.5 -35l-60 -489h-467q-37 0 -56.5 19.5t-19.5 50.5q0 1 0.5 4.5t2 17.5 t4.5 42.5t9 79.5h354l18 145q-73 23 -128.5 65.5t-93 100.5t-56.5 129t-19 150q0 139 52 259t144.5 208.5t219.5 139t277 50.5q128 0 230 -40.5t173.5 -110.5t110 -164.5t38.5 -202.5q0 -105 -29 -200t-84 -171.5t-133.5 -132t-178.5 -82.5l-17 -143h354l-16 -133 q-5 -35 -31 -57.5t-65 -23.5h-468z" />
<glyph unicode="&#x2202;" horiz-adv-x="1067" d="M378 1335q41 30 81.5 53t84 39t91.5 24.5t105 8.5q76 0 138.5 -29.5t106.5 -86t68 -137.5t24 -184q0 -28 -1.5 -57t-5.5 -60q-26 -207 -81.5 -377t-140.5 -291t-199.5 -187t-257.5 -66q-77 0 -140.5 25t-109 71t-70.5 112t-25 149t20.5 161.5t57.5 147.5t88.5 126 t113 98.5t131 64t142.5 22.5q88 0 147 -31.5t94 -90.5q2 17 4 33.5t4 31.5q3 28 5 53t2 48q0 131 -46.5 195t-126.5 64q-34 0 -65.5 -10t-59 -22t-50 -22t-37.5 -10q-14 0 -26.5 8t-23.5 32zM443 177q46 0 92 21.5t89 69t81.5 123t68.5 183.5q-4 39 -14.5 74.5t-30.5 63 t-51 43.5t-76 16q-65 0 -115.5 -26.5t-88 -74t-61 -112.5t-32.5 -143q0 -2 -0.5 -2.5t-0.5 -2.5q-3 -27 -3 -51q0 -88 37 -135t105 -47z" />
<glyph unicode="&#x2206;" horiz-adv-x="1361" d="M1290 0h-1340l730 1445h236zM314 205h663l-184 834q-8 27 -14.5 62.5t-13.5 77.5q-16 -42 -31.5 -78t-29.5 -63z" />
<glyph unicode="&#x220f;" horiz-adv-x="1372" d="M1437 1445l-24 -200h-171l-194 -1582h-245l192 1582h-435l-194 -1582h-245l194 1582h-170l24 200h1268z" />
<glyph unicode="&#x2211;" horiz-adv-x="1264" d="M1316 1446l-26 -207h-740l384 -648l-10 -71l-542 -648h740l-25 -207h-1114l10 86q2 18 12 37t24 36l629 735l-451 726q-9 14 -13 29.5t-4 30.5v5t1.5 13t3.5 29.5t7 53.5h1114z" />
<glyph unicode="&#x2212;" d="M171 760h883l-22 -177h-882z" />
<glyph unicode="&#x221a;" horiz-adv-x="1162" d="M289 645h-127q-33 0 -56.5 17.5t-23.5 59.5v5.5t1 13t3 27.5t6 49h351q26 0 42.5 -13.5t20.5 -31.5l68 -325q8 -41 11.5 -82.5t3.5 -83.5q10 33 21 67t27 70l543 1243q9 20 28.5 33t44.5 13h156l-760 -1707h-200z" />
<glyph unicode="&#x221e;" horiz-adv-x="1263" d="M886 232q-51 0 -90.5 14.5t-71 39t-56.5 57t-45 69.5q-30 -37 -63 -69.5t-70.5 -57t-81 -39t-94.5 -14.5q-56 0 -104.5 22t-84 62t-56 96.5t-20.5 124.5q0 74 25 148t71 133t111.5 96t146.5 37q51 0 91 -14.5t71.5 -39t56.5 -57.5t45 -70q29 37 62 70t70.5 57.5t81 39 t94.5 14.5q57 0 106 -22t85 -62.5t56.5 -97t20.5 -124.5q0 -74 -25 -147.5t-71.5 -132.5t-112.5 -96t-148 -37zM350 431q27 0 52 12.5t48.5 34t46 50.5t45.5 63q-15 34 -30.5 63t-33.5 51t-40 34.5t-49 12.5q-38 0 -65.5 -17.5t-45.5 -45.5t-27 -62t-9 -68q0 -68 31.5 -98 t76.5 -30zM901 431q36 0 63.5 17t46 44.5t28 62.5t9.5 71q0 33 -8.5 57t-23.5 39t-34.5 22.5t-41.5 7.5q-27 0 -52 -12.5t-48.5 -34t-46 -51t-45.5 -62.5q15 -34 30.5 -63.5t33.5 -51t40 -34t49 -12.5z" />
<glyph unicode="&#x222b;" horiz-adv-x="768" d="M459 1094q20 87 54 155t82 115.5t110 72.5t137 25q35 0 72.5 -7.5t69.5 -26.5l-27 -120q-2 -10 -6 -19.5t-12 -17.5t-20.5 -13t-31.5 -5q-44 0 -75.5 -12t-54.5 -35.5t-38.5 -59.5t-27.5 -84l-242 -1005q-25 -104 -66 -179.5t-95.5 -124t-120.5 -72t-141 -23.5 q-34 0 -71.5 7.5t-69.5 26.5l26 103q3 13 8 22.5t13.5 15.5t22.5 8.5t36 2.5q53 0 89.5 11.5t62 36t42 63.5t29.5 94z" />
<glyph unicode="&#x2248;" d="M841 891q31 0 61 7t55.5 17.5t44.5 22t28 20.5l10 -150q-45 -51 -108 -74t-129 -23q-53 0 -103.5 16t-98.5 34.5t-94 34.5t-89 16q-32 0 -63 -7.5t-56.5 -18t-44.5 -23.5t-28 -23l-18 146q45 54 111 79.5t137 25.5q52 0 102.5 -15.5t99 -34.5t94 -34.5t89.5 -15.5z M797 537q31 0 61.5 7t56 17.5t44.5 22t27 20.5l10 -151q-44 -50 -107.5 -72.5t-128.5 -22.5q-53 0 -103.5 15.5t-98.5 34t-94 34t-90 15.5q-32 0 -63 -7t-56.5 -17.5t-44.5 -23t-27 -22.5l-18 145q45 55 110.5 80.5t136.5 25.5q53 0 104 -16t99 -34.5t93.5 -34.5t88.5 -16z " />
<glyph unicode="&#x2260;" d="M192 936h500l139 223h170l-139 -223h211l-20 -178h-301l-107 -172h386l-22 -177h-473l-147 -237h-170l147 237h-240l22 177h327l107 172h-412z" />
<glyph unicode="&#x2264;" horiz-adv-x="1067" d="M173 839l839 379l-21 -168q-2 -20 -15.5 -37.5t-46.5 -31.5l-372 -158q-26 -11 -55.5 -18.5t-61.5 -14.5q31 -7 58.5 -15t50.5 -19l332 -161q26 -13 36.5 -28t10.5 -32q0 -7 -2.5 -28t-5.5 -44t-5.5 -41.5t-2.5 -19.5l-6 -44l-746 382zM102 263h793l-23 -183h-793z" />
<glyph unicode="&#x2265;" horiz-adv-x="1067" d="M887 80h-792l23 183h793zM968 738l-839 -379l21 168q2 20 15.5 37.5t46.5 31.5l372 158q26 11 55.5 18.5t61.5 14.5q-31 7 -58.5 15t-50.5 19l-332 161q-26 13 -36.5 28t-10.5 32q0 7 2.5 28t5.5 44t5.5 41.5t2.5 19.5l6 44l746 -382z" />
<glyph unicode="&#x25ca;" d="M131 720l381 811h172l381 -811l-381 -811h-172zM333 720l231 -501q12 -26 20 -49.5t14 -45.5q6 22 14 45.5t20 49.5l235 501l-235 501q-12 26 -19.5 49.5t-14.5 45.5q-7 -22 -14.5 -45.5t-19.5 -49.5z" />
<glyph unicode="&#x2669;" horiz-adv-x="0" d="M-118 -500l242 2000h2l-242 -2000h-2z" />
<glyph unicode="&#xe000;" horiz-adv-x="1025" d="M0 1025h1025v-1025h-1025v1025z" />
<glyph horiz-adv-x="591" d="M351 -74l-140 -283h-150l82 283h208z" />
<glyph horiz-adv-x="591" d="M318 1789q19 0 32 -1.5t23 -6t18.5 -11.5t19.5 -19l153 -202h-202q-27 0 -41.5 8.5t-33.5 25.5l-234 206h265z" />
<glyph horiz-adv-x="591" d="M359 1666q0 -24 -10 -45.5t-26.5 -37.5t-39 -25.5t-47.5 -9.5q-24 0 -45.5 9.5t-38 25.5t-26 37.5t-9.5 45.5q0 25 9.5 47.5t26 39t38 26t45.5 9.5q25 0 47.5 -9.5t39 -26t26.5 -39t10 -47.5zM710 1666q0 -24 -9.5 -45.5t-26 -37.5t-38.5 -25.5t-47 -9.5t-46.5 9.5 t-38 25.5t-26 37.5t-9.5 45.5q0 25 9.5 47.5t26 39t38 26t46.5 9.5t47 -9.5t38.5 -26t26 -39t9.5 -47.5z" />
<glyph horiz-adv-x="591" d="M146 1702h596l-18 -137h-595z" />
<glyph horiz-adv-x="591" d="M832 1789l-284 -206q-23 -17 -45 -25.5t-48 -8.5h-193l204 202q12 12 22.5 19.5t22 11.5t25 5.5t33.5 1.5h263z" />
<glyph horiz-adv-x="591" d="M762 1549h-181q-14 0 -29.5 5t-26.5 11l-79 70q-3 3 -7 6.5t-7 7.5l-16 -14l-97 -70q-11 -8 -28.5 -12t-32.5 -4h-179l249 218h238z" />
<glyph horiz-adv-x="591" d="M109 1767h217l113 -98l137 98h217l-250 -218h-238z" />
<glyph horiz-adv-x="591" d="M423 1528q-126 0 -194.5 49.5t-68.5 149.5q0 20 3 41h151q-1 -5 -1 -9v-9q0 -80 128 -80q69 0 106 23.5t43 74.5h152q-7 -54 -32 -98.5t-66 -76t-96.5 -48.5t-124.5 -17z" />
<glyph horiz-adv-x="591" d="M581 1696q0 -30 -12.5 -56.5t-33.5 -47t-49 -32.5t-59 -12q-29 0 -56 12t-47.5 32.5t-32.5 47t-12 56.5q0 31 12 58.5t32.5 48t47.5 32.5t56 12q31 0 59 -12t49 -32.5t33.5 -48t12.5 -58.5z" />
<glyph horiz-adv-x="591" d="M212 1683q0 43 17 78t45.5 60t65.5 39t78 14q42 0 80.5 -14t67 -39t45.5 -60t17 -78q0 -42 -17 -76.5t-45.5 -59.5t-67 -38.5t-80.5 -13.5q-41 0 -78 13.5t-65.5 38.5t-45.5 59.5t-17 76.5zM331 1683q0 -39 23 -64t67 -25q40 0 64.5 25t24.5 64q0 42 -24.5 66t-64.5 24 q-44 0 -67 -24t-23 -66z" />
<glyph horiz-adv-x="591" d="M556 1695q24 0 41 16t21 48h130q-6 -48 -23 -88.5t-43.5 -70t-61.5 -45.5t-77 -16q-33 0 -63 11.5t-56.5 25t-49 25t-41.5 11.5q-24 0 -40.5 -17.5t-20.5 -50.5h-132q6 49 23.5 90t44 70t61.5 45.5t76 16.5q34 0 64 -11t56.5 -24.5t49 -24.5t41.5 -11z" />
<glyph horiz-adv-x="591" d="M582 1775l-209 -192q-20 -18 -37.5 -26t-43.5 -8h-113l142 174q20 23 44.5 37.5t62.5 14.5h154zM923 1775l-259 -192q-22 -17 -42 -25.5t-47 -8.5h-128l184 174q23 22 49 37t64 15h179z" />
<glyph horiz-adv-x="591" d="M511 1487q22 0 28.5 -10t6.5 -20q0 -9 -3.5 -22.5t-16 -42t-37 -77.5t-66.5 -128q-16 -29 -36.5 -36.5t-51.5 -7.5h-84l100 344h160z" />
</font>
</defs>
</svg>
