<svg xmlns="http://www.w3.org/2000/svg" xmlns:xlink="http://www.w3.org/1999/xlink" viewBox="0 0 82 60">
  <defs>
    <linearGradient id="linear-gradient" x1="40.96" y1="28.66" x2="60.84" y2="28.66" gradientUnits="userSpaceOnUse">
      <stop offset="0" stop-color="#00a09d"/>
      <stop offset="1" stop-color="#00e2ff"/>
    </linearGradient>
  </defs>
  <g id="s_appointment">
    <g>
      <rect x="40.96" y="25.16" width="19.88" height="7" stroke="#fff" stroke-miterlimit="10" opacity="0.7" fill="url(#linear-gradient)"/>
      <g>
        <path id="path-6" d="M61.56,36.23a.4.4,0,0,1,.1.5.43.43,0,0,1-.42.29H58.47l1.45,3.45a.47.47,0,0,1-.24.61l-1.29.55a.48.48,0,0,1-.61-.25L56.4,38.1l-2.27,2.26a.44.44,0,0,1-.5.11.45.45,0,0,1-.29-.43V29.13a.43.43,0,0,1,.29-.43.46.46,0,0,1,.5.1Z"/>
        <path id="path-6-2" data-name="path-6" d="M61.56,36.23a.4.4,0,0,1,.1.5.43.43,0,0,1-.42.29H58.47l1.45,3.45a.47.47,0,0,1-.24.61l-1.29.55a.48.48,0,0,1-.61-.25L56.4,38.1l-2.27,2.26a.44.44,0,0,1-.5.11.45.45,0,0,1-.29-.43V29.13a.43.43,0,0,1,.29-.43.46.46,0,0,1,.5.1Z" fill="#fff"/>
      </g>
      <g>
        <path d="M32.51,35.34h1v.83H31.68V33.49h.83Z" fill="#fff" style="isolation: isolate"/>
        <path d="M21.12,35.8V22.32H23.2v1.17h7V22.32h2.09v7.55a5.56,5.56,0,0,1,.82.09V21.5H30.23V20.34h-7V21.5H20.29V36.63H27a5.77,5.77,0,0,1-.15-.83ZM24,22.32V21.16h5.38v1.51H24Z" fill="#fff" style="isolation: isolate"/>
        <rect x="22.42" y="28.29" width="8.57" height="0.82" fill="#fff" style="isolation: isolate"/>
        <path d="M29.36,30.67H22.42v.82h5.9A5.53,5.53,0,0,1,29.36,30.67Z" fill="#fff" style="isolation: isolate"/>
        <path d="M22.42,33v.83H27a5.82,5.82,0,0,1,.29-.83Z" fill="#fff" style="isolation: isolate"/>
        <path d="M32.17,39.72a4.46,4.46,0,1,1,4.46-4.46A4.46,4.46,0,0,1,32.17,39.72Zm0-8.09a3.64,3.64,0,1,0,3.64,3.63A3.64,3.64,0,0,0,32.17,31.63Z" fill="#fff" style="isolation: isolate"/>
      </g>
    </g>
  </g>
</svg>
