<svg version="1.1" id="Waves" xmlns="http://www.w3.org/2000/svg" xmlns:xlink="http://www.w3.org/1999/xlink" x="0px" y="0px"
	 viewBox="0 0 1400 1400" xml:space="preserve">
<style type="text/css">
	.st0{opacity:0.2;fill:#3AADAA;enable-background:new;}
	.st1{opacity:0.25;fill:#3AADAA;enable-background:new;}
	.st2{opacity:0.31;fill:#3AADAA;enable-background:new;}
	.st3{fill:url(#SVGID_1_);}
</style>
<path class="st0" d="M1400,250.4c-264-76.2-491.7-117-794.2,34.6C292.3,442.3,77.5,327.5,0,250.4V-20.3l1400,0.1V250.4z"/>
<path class="st1" d="M1400,250.4c-187-86.6-313.7-107-620.1,24.5C548.2,374.4,290.1,385.4,0,250.4V-20.3l1400,0.1V250.4z"/>
<path class="st2" d="M1400,250.4c-299.1-83.6-453.1-70.7-701.1,34.6C383.7,419.1,94.2,320.6,0,250.4V-20.3l0,0l1400,0.1V250.4z"/>
<linearGradient id="SVGID_1_" gradientUnits="userSpaceOnUse" x1="715.5229" y1="1143.2604" x2="690.4067" y2="16.379" gradientTransform="matrix(1 0 0 -1 0 572)">
	<stop  offset="0" style="stop-color:#3AADAA"/>
	<stop  offset="0.6" style="stop-color:#3AADAA"/>
	<stop  offset="1" style="stop-color:#383E45"/>
</linearGradient>
<path class="st3" d="M1400,250.4c-208.8-131.2-520.5-98.8-829.9,28C339.4,372.8,69.2,312.7,0,250.4V-20.3l1400,0.1V250.4z"/>
</svg>
