<svg xmlns="http://www.w3.org/2000/svg" viewBox="0 -830 1400 1400">
<path d="M1360.1,531.5L1360.1,531.5c-3.9-3.9-10.2-3.9-14.1,0l0,0l-9.2,9.2c-6.2,6.2-16.3,6.2-22.5,0l0,0l0,0
	c-6.7-6.7-17.6-6.7-24.4,0l0,0l0,0c-3.9,3.9-10.2,3.9-14.1,0l-12.2-12.2c-6.9-6.9-18.1-6.9-25.1,0l0,0l0,0c-2.8,2.8-7.3,2.8-10.1,0
	l0,0c-3.9-3.9-10.2-3.9-14.1,0l-12.2,12.2c-3.9,3.9-10.2,3.9-14.1,0l-16-16c-7.7-7.7-20.1-7.8-27.8-0.2l0,0
	c-7.5,7.3-19.6,7.3-27-0.2l0,0c-7.4-7.4-19.5-7.5-27-0.1l-27.6,27.1c-7.3,7.3-19.2,7.3-26.5,0l0,0c-7.3-7.3-19.1-7.3-26.5,0l0,0
	l-4.8,4.8c-7.3,7.3-19.2,7.3-26.5,0l-0.9-0.9c-4.7-4.7-12.2-4.7-16.9,0l0,0c-7.8,7.8-20.5,7.8-28.3,0l0,0l-11.6-11.6
	c-6.9-6.9-18.2-7-25.1,0l0,0l-0.2,0.2c-2.2,2.2-5.8,2.2-8.1,0l-0.2-0.2c-7.8-7.8-20.5-7.8-28.3,0l0,0l-11.8,11.8
	c-1.9,1.9-4.9,1.9-6.8,0l0,0l-0.3-0.3c-2.6-2.6-6.8-2.7-9.4-0.1c0,0,0,0-0.1,0l-0.2,0.2c-7.8,7.8-20.5,7.8-28.3,0l0,0l-9.4-9.4
	c-7.8-7.8-20.5-7.8-28.3,0l0,0l-17.8,17.8c-3.1,3.2-8.3,3.2-11.4,0l0,0l-0.1-0.1c-2.5-2.5-6-3.5-9.4-2.7c-4.7,1.1-11.5,1.9-14.9-1.5
	l-24-24c-11.7-11.7-30.7-11.7-42.4,0l-9.2,9.4c-13.6,13.6-35.7,13.7-49.4,0l0,0l-0.5-0.5c-7.8-7.9-20.5-8-28.4-0.2c0,0,0,0-0.1,0.1
	l-18.1,18.1c-3.9,3.9-10.2,3.9-14.1,0l-0.5-0.5c-3.9-3.9-10.2-3.9-14.1,0l-0.5,0.5c-3.9,3.9-10.2,3.9-14.1,0l0,0l-6.7-6.7
	c-7.8-7.8-20.5-7.8-28.3,0l0,0l0,0c-4.3,4.3-10.3,6.4-16.3,5.7c-3.4-0.4-6.8-0.2-8.4,1.4l-0.3,0.3c-7.8,7.8-20.5,7.8-28.3,0
	L388,544.2c-4.5-4.5-11.8-4.5-16.2,0l0,0l-0.3,0.3c-7.8,7.8-20.5,7.8-28.3,0l0,0l-0.9-0.9c-3.3-3.3-8.6-3.3-11.9,0l0,0
	c-2.4,2.4-5.7,3.4-9,2.7c-3.5-0.7-8.1-1-10.4,1.4l-0.3,0.3c-11.7,11.7-30.7,11.7-42.4,0l-11.8-11.3c-2.4-2.4-6.4-2.5-8.9,0l0,0
	l-0.6,0.6c-5.9,5.9-15.4,5.9-21.2,0l0,0l-0.4-0.4c-7.8-7.8-20.5-7.8-28.3,0l-7.2,7.2c-2.1,2.1-5.5,2.1-7.6,0l0,0l0,0
	c-3.9-3.9-10.2-3.9-14.1,0l-7.6,7.6c-3.9,3.9-10.2,3.9-14.1,0l-14.7-14.8c-3.9-3.9-10.2-3.9-14.1,0l-7.7,7.7
	c-7.8,7.8-20.5,7.8-28.3,0l0,0l-11.3-11.3c-9.6-9.6-25.2-9.6-34.9,0l0,0c-3.9,3.9-10.2,3.9-14.1,0l0,0l-4.4-4.4
	c-3.9-3.9-10.2-3.9-14.1,0C1,530.8,0,533.3,0,536v34h1400v-36.1c0-5.5-4.5-10-10-10c-2.5,0-4.9,1-6.8,2.7l-5.4,5
	C1372.9,536.4,1364.9,536.4,1360.1,531.5L1360.1,531.5z" style="fill:#FFFFFF"/>
</svg>
