<?xml version="1.0" encoding="UTF-8"?>
<svg xmlns="http://www.w3.org/2000/svg" xmlns:xlink="http://www.w3.org/1999/xlink" version="1.2" >
<font id="Almarai-Extrabold">
<font-face  font-family="Almarai" units-per-em="1000" ascent="728" descent="-210" font-style="normal" font-weight="800" font-stretch="normal" cap-height="716" x-height="519" underline-position="-94" underline-thickness="63" />
<missing-glyph  horiz-adv-x="184" d="M18 0 L18 716 L166 716 L166 0 L18 0 Z M148 18 L148 698 L36 698 L36 18 L148 18 Z " />
<glyph glyph-name="space" unicode="&#x20;" horiz-adv-x="184" d="" />
<glyph glyph-name="exclam" unicode="&#x21;" horiz-adv-x="257" d="M189 716 L189 225 L124 172 L61 172 L61 716 L189 716 Z M129 151 Q162 151 184.5 128.5 Q207 106 207 74 Q207 41 184.5 18 Q162 -5 129 -5 Q97 -5 74 18 Q51 41 51 74 Q51 106 74 128.5 Q97 151 129 151 Z " />
<glyph glyph-name="quotedbl" unicode="&#x22;" horiz-adv-x="455" d="M198 716 L198 542 L131 488 L69 488 L69 716 L198 716 Z M386 716 L386 542 L319 488 L257 488 L257 716 L386 716 Z " />
<glyph glyph-name="numbersign" unicode="&#x23;" horiz-adv-x="609" d="M517 672 L482 489 L589 489 L589 385 L462 385 L442 286 L557 286 L557 183 L423 183 L388 0 L281 0 L316 183 L233 183 L198 0 L94 0 L127 183 L21 183 L21 286 L147 286 L166 385 L54 385 L54 489 L185 489 L220 672 L326 672 L292 489 L377 489 L412 672 L517 672 Z M357 385 L272 385 L252 286 L337 286 L357 385 Z " />
<glyph glyph-name="dollar" unicode="&#x24;" horiz-adv-x="646" d="M356 716 L356 648 Q382 646 423 632.5 Q464 619 480 608 L480 490 Q408 519 356 523 L356 403 Q471 361 511 322 Q554 279 554 212 Q554 139 505 93 Q452 45 356 37 L356 -55 L293 -55 L293 35 Q217 39 155 60 L92 138 L92 188 Q139 173 191 163 Q240 155 293 153 L293 286 Q292 287 278 292 Q179 330 140 372 Q98 416 98 480 Q98 551 150 595 Q201 638 293 647 L293 716 L356 716 Z M293 431 L293 523 Q271 521 262 513 Q250 504 250 484 Q250 470 256 459 Q266 442 293 431 Z M356 261 L356 159 Q372 161 381 165 Q401 178 401 208 Q401 227 390 238 Q382 248 356 261 Z " />
<glyph glyph-name="percent" unicode="&#x25;" horiz-adv-x="854" d="M190 695 Q272 695 318 634 Q362 576 362 484 Q362 392 317 337 Q273 282 191 282 Q105 282 60 340 Q18 394 18 483 Q18 573 60 633 Q105 695 190 695 Z M679 673 L283 0 L163 0 L559 673 L679 673 Z M190 621 Q151 621 134 573 Q122 529 122 483 Q122 430 137 394 Q154 356 190 356 Q227 356 244 396 Q257 434 257 483 Q257 522 246 570 Q228 621 190 621 Z M663 387 Q744 387 790 326 Q835 269 835 176 Q835 83 790 29 Q746 -26 663 -26 Q578 -26 533 32 Q491 85 491 175 Q491 266 533 325 Q579 387 663 387 Z M663 313 Q625 313 608 265 Q596 224 596 175 Q596 122 610 86 Q626 48 663 48 Q699 48 716 88 Q731 127 731 175 Q731 216 719 262 Q701 313 663 313 Z " />
<glyph glyph-name="ampersand" unicode="&#x26;" horiz-adv-x="738" d="M683 330 Q675 242 589 174 L739 0 L531 0 L481 61 Q384 -15 283 -15 Q179 -15 116 46 Q51 110 51 202 Q51 269 89.5 324 Q128 379 197 412 Q135 484 135 551 Q135 632 202 683 Q260 727 342 727 Q435 727 493 669 Q543 619 543 546 Q543 430 420 369 L495 279 Q524 298 537 330 L683 330 Z M337 467 Q402 507 402 554 Q402 579 385.5 595 Q369 611 343 611 Q318 611 301.5 595.5 Q285 580 285 557 Q285 520 337 467 Z M286 300 Q216 260 216 206 Q216 173 237 149.5 Q258 126 288 126 Q342 126 390 175 L286 300 Z " />
<glyph glyph-name="quotesingle" unicode="&#x27;" horiz-adv-x="267" d="M198 716 L198 542 L131 488 L69 488 L69 716 L198 716 Z " />
<glyph glyph-name="parenleft" unicode="&#x28;" horiz-adv-x="355" d="M254 716 L310 671 Q258 590 233 493 Q208 401 208 302 Q208 191 241 87 Q264 16 310 -62 L254 -106 L213 -106 Q143 -26 108 82 Q74 185 74 301 Q74 418 108 523 Q143 633 213 716 L254 716 Z " />
<glyph glyph-name="parenright" unicode="&#x29;" horiz-adv-x="355" d="M101 716 L143 716 Q213 633 248 523 Q282 419 282 301 Q282 185 248 82 Q213 -26 143 -106 L101 -106 L46 -62 Q92 15 115 87 Q148 191 148 302 Q148 401 123 493 Q97 590 46 671 L101 716 Z " />
<glyph glyph-name="asterisk" unicode="&#x2a;" horiz-adv-x="644" d="M526 534 L399 493 L479 388 L398 328 L320 438 L243 328 L162 388 L244 493 L118 534 L150 629 L273 582 L270 716 L373 716 L369 582 L492 629 L526 534 Z " />
<glyph glyph-name="plus" unicode="&#x2b;" horiz-adv-x="534" d="M213 26 L213 191 L46 191 L46 300 L213 300 L213 468 L321 468 L321 300 L487 300 L487 191 L321 191 L321 26 L213 26 Z " />
<glyph glyph-name="comma" unicode="&#x2c;" horiz-adv-x="265" d="M112 -2 Q51 10 51 73 Q51 106 73.5 128.5 Q96 151 128 151 Q163 151 185.5 126 Q208 101 208 63 Q208 -20 133 -104 L91 -104 L67 -84 Q87 -55 97 -35 Q108 -13 112 -2 Z " />
<glyph glyph-name="hyphen" unicode="&#x2d;" horiz-adv-x="321" d="M284 320 L284 191 L37 191 L37 320 L284 320 Z " />
<glyph glyph-name="period" unicode="&#x2e;" horiz-adv-x="257" d="M129 151 Q162 151 184.5 128.5 Q207 106 207 74 Q207 41 184.5 18 Q162 -5 129 -5 Q97 -5 74 18 Q51 41 51 74 Q51 106 74 128.5 Q97 151 129 151 Z " />
<glyph glyph-name="slash" unicode="&#x2f;" horiz-adv-x="409" d="M399 673 L148 0 L9 0 L260 673 L399 673 Z " />
<glyph glyph-name="zero" unicode="0" horiz-adv-x="574" d="M538 348 Q538 191 478 94 Q412 -13 288 -13 Q163 -13 98 91 Q37 189 37 348 Q37 509 98 615 Q163 729 286 729 Q426 729 493 582 Q538 482 538 348 Z M285 114 Q341 114 363 188 Q385 260 385 347 Q385 429 368 506 Q347 602 286 602 Q229 602 209 512 Q191 436 191 347 Q191 254 213 183 Q235 114 285 114 Z " />
<glyph glyph-name="one" unicode="1" horiz-adv-x="434" d="M365 716 L365 67 L287 0 L211 0 L211 538 L102 448 L32 536 L240 716 L365 716 Z " />
<glyph glyph-name="two" unicode="2" horiz-adv-x="503" d="M58 661 Q153 724 252 724 Q355 724 409 661 Q455 608 455 520 Q455 463 428 407.5 Q401 352 329 263 Q287 209 282 205 L209 129 L470 129 L470 79 L408 0 L32 0 L32 129 L103 197 L168 267 Q257 361 288.5 412 Q320 463 320 512 Q320 588 226 588 Q181 588 132 555 L58 661 Z " />
<glyph glyph-name="three" unicode="3" horiz-adv-x="520" d="M84 696 Q168 725 223 725 Q329 725 396 668 Q460 613 460 525 Q460 403 336 364 Q408 348 448 304 Q488 260 488 197 Q488 95 402 37 Q335 -9 244 -10 Q240 -10 232 -10 Q166 -10 99 4 L55 59 L55 120 Q133 106 181 106 Q334 106 333 197 Q333 244 295 273 Q269 293 234.5 300.5 Q200 308 127 309 L127 426 L242 426 Q274 426 292.5 447 Q311 468 311 502 Q311 591 200 591 Q155 591 84 569 L84 696 Z " />
<glyph glyph-name="four" unicode="4" horiz-adv-x="541" d="M443 716 L443 290 L518 290 L518 162 L443 162 L443 70 L365 0 L295 0 L295 162 L23 162 L23 262 L302 716 L443 716 Z M295 514 L162 290 L295 290 L295 514 Z " />
<glyph glyph-name="five" unicode="5" horiz-adv-x="517" d="M426 716 L426 587 L216 587 L209 450 Q226 451 239 451 Q360 451 424 378 Q480 315 480 208 Q480 98 394 40 Q326 -6 225 -6 Q159 -6 92 8 L48 63 L48 124 Q126 110 174 110 Q259 110 293 134 Q327 158 327 219 Q327 282 296 308.5 Q265 335 192 335 Q153 335 72 325 Q61 323 54 323 L76 716 L426 716 Z " />
<glyph glyph-name="six" unicode="6" horiz-adv-x="557" d="M177 364 Q242 432 322 432 Q420 432 475 366 Q523 310 523 224 Q523 108 458 47 Q400 -8 300 -8 Q172 -8 105 81 Q51 153 51 265 L51 285 Q51 474 118 589 Q194 718 342 718 Q376 718 420 704 L469 614 L469 592 Q464 592 442 596 Q393 603 365 603 Q271 603 226.5 546.5 Q182 490 177 364 Z M281 314 Q244 314 222.5 290.5 Q201 267 201 227 Q201 115 290 115 Q326 115 349 143.5 Q372 172 372 218 Q372 262 347.5 288 Q323 314 281 314 Z " />
<glyph glyph-name="seven" unicode="7" horiz-adv-x="531" d="M501 716 L501 620 L285 60 L210 0 L96 0 L330 587 L30 587 L30 716 L501 716 Z " />
<glyph glyph-name="eight" unicode="8" horiz-adv-x="561" d="M186 370 Q66 439 66 549 Q66 645 140 692 Q196 728 284 728 Q379 728 439 678 Q497 630 497 550 Q497 441 372 369 Q441 335 472 304 Q519 255 519 183 Q519 82 436 29 Q371 -13 280 -13 Q174 -13 107 42 Q41 95 41 184 Q41 288 186 370 Z M285 431 Q343 473 343 549 Q343 616 282 616 Q256 616 241 604 Q220 587 220 548 Q220 515 236 485 Q251 456 285 431 Z M282 314 Q193 267 193 193 Q193 111 282 112 Q372 112 372 192 Q372 264 282 314 Z " />
<glyph glyph-name="nine" unicode="9" horiz-adv-x="537" d="M370 346 Q344 314 316 298 Q276 275 229 275 Q134 275 81 345 Q37 402 37 486 Q37 603 101 665 Q158 722 259 722 Q370 722 434 640 Q496 562 496 395 Q496 221 450 127 Q394 14 267 -6 Q249 -8 232 -8 Q190 -8 139 4 L95 59 L95 124 Q136 109 184 109 Q295 109 340 184 Q355 209 360.5 239 Q366 269 370 346 Z M348 485 Q348 597 271 597 Q187 597 187 494 Q187 449 209.5 422 Q232 395 269 395 Q302 395 325 421.5 Q348 448 348 485 Z " />
<glyph glyph-name="colon" unicode="&#x3a;" horiz-adv-x="257" d="M129 381 Q162 381 184.5 358 Q207 335 207 303 Q207 270 184.5 247.5 Q162 225 129 225 Q97 225 74 247.5 Q51 270 51 303 Q51 335 74 358 Q97 381 129 381 Z M129 151 Q161 151 184 128.5 Q207 106 207 74 Q207 41 184 18 Q161 -5 129 -5 Q97 -5 74 18 Q51 41 51 74 Q51 106 73.5 128.5 Q96 151 129 151 Z " />
<glyph glyph-name="semicolon" unicode="&#x3b;" horiz-adv-x="265" d="M112 -2 Q51 10 51 73 Q51 106 73 128.5 Q95 151 128 151 Q163 151 185.5 126 Q208 101 208 63 Q208 -20 133 -104 L91 -104 L67 -84 Q87 -55 97 -35 Q108 -13 112 -2 Z M128 224 Q95 224 72.5 247 Q50 270 50 303 Q50 335 72.5 358 Q95 381 128 381 Q160 381 183 358 Q206 335 206 303 Q206 270 183 247 Q160 224 128 224 Z " />
<glyph glyph-name="less" unicode="&#x3c;" horiz-adv-x="524" d="M482 593 L482 474 L196 333 L482 208 L482 89 L41 293 L41 363 L482 593 Z " />
<glyph glyph-name="equal" unicode="&#x3d;" horiz-adv-x="534" d="M487 274 L46 274 L46 382 L487 382 L487 274 Z M487 97 L46 97 L46 206 L487 206 L487 97 Z " />
<glyph glyph-name="greater" unicode="&#x3e;" horiz-adv-x="524" d="M41 593 L482 363 L482 293 L41 89 L41 208 L327 333 L41 474 L41 593 Z " />
<glyph glyph-name="question" unicode="&#x3f;" horiz-adv-x="601" d="M46 483 Q52 611 131 677 Q200 734 313 734 Q433 734 504 668 Q564 610 564 522 Q564 462 536.5 425 Q509 388 426 339 Q390 317 380 282 Q377 271 376 238 L217 238 L218 290 Q219 347 250 386 Q266 406 315 438 Q355 465 367.5 481.5 Q380 498 380 525 Q380 553 360.5 570.5 Q341 588 310 588 Q227 588 223 483 L46 483 Z M301 157 Q333 157 356 134.5 Q379 112 379 80 Q379 47 356 24 Q333 1 301 1 Q268 1 245.5 24 Q223 47 223 80 Q223 112 245.5 134.5 Q268 157 301 157 Z " />
<glyph glyph-name="at" unicode="&#x40;" horiz-adv-x="821" d="M489 -44 Q434 -59 379 -59 Q213 -59 122 64 Q48 164 48 315 Q48 482 166 590 Q269 684 413 684 Q582 684 682 584 Q773 493 773 348 Q773 249 724 176 Q675 103 594 103 Q536 103 488 150 Q452 104 390 104 Q306 104 260 173 Q224 228 224 303 Q224 395 283 450 Q335 499 413 499 Q455 499 490 487 L521 511 L585 511 L585 241 Q585 211 610 211 Q638 211 654.5 243.5 Q671 276 671 330 Q671 460 593 529 Q526 588 412 588 Q315 588 244 519 Q160 439 160 311 Q160 156 275 70 Q323 41 405 41 L409 41 Q416 40 419 40 Q491 40 540 60 L540 19 L489 -44 Z M461 392 Q439 397 422 397 Q386 397 365 371.5 Q344 346 344 302 Q344 257 365 229.5 Q386 202 422 202 Q439 202 461 211 L461 392 Z " />
<glyph glyph-name="A" unicode="A" horiz-adv-x="718" d="M454 716 L722 0 L528 0 L482 131 L234 131 L188 0 L-4 0 L264 716 L454 716 Z M439 265 L405 362 Q375 450 359 523 Q339 445 310 360 L277 265 L439 265 Z " />
<glyph glyph-name="B" unicode="B" horiz-adv-x="730" d="M66 716 L410 716 Q515 716 569 689 Q661 643 661 536 Q661 439 567 391 Q609 376 629 360 Q695 310 695 214 Q695 95 599 37 Q538 0 432 0 L66 0 L66 716 Z M253 573 L253 434 L386 434 Q479 434 479 503 Q479 573 381 573 L253 573 Z M253 312 L253 147 L400 147 Q506 147 506 229 Q506 312 396 312 L253 312 Z " />
<glyph glyph-name="C" unicode="C" horiz-adv-x="746" d="M722 279 Q715 167 645 86 Q556 -18 391 -18 Q215 -18 118 104 Q35 207 35 359 Q35 516 130 623 Q229 734 397 734 Q537 734 630 647 Q710 572 717 463 L535 463 Q524 512 501 537 Q462 580 394 580 Q310 580 264 513 Q225 454 225 358 Q225 247 275 188 Q319 136 392 136 Q467 136 506 191 Q527 221 535 279 L722 279 Z " />
<glyph glyph-name="D" unicode="D" horiz-adv-x="760" d="M66 716 L372 716 Q529 716 617 636 Q726 538 726 363 Q726 182 624 83 Q539 0 371 0 L66 0 L66 716 Z M253 562 L253 154 L356 154 Q444 154 486 199 Q536 254 536 357 Q536 474 467 527 Q420 562 343 562 L253 562 Z " />
<glyph glyph-name="E" unicode="E" horiz-adv-x="688" d="M639 716 L639 562 L253 562 L253 443 L606 443 L606 296 L253 296 L253 154 L648 154 L648 0 L66 0 L66 716 L639 716 Z " />
<glyph glyph-name="F" unicode="F" horiz-adv-x="613" d="M595 716 L595 562 L253 562 L253 422 L549 422 L549 276 L253 276 L253 0 L66 0 L66 716 L595 716 Z " />
<glyph glyph-name="G" unicode="G" horiz-adv-x="779" d="M724 389 L724 0 L604 0 Q594 46 594 66 Q594 68 594 71 Q594 75 594 78 Q518 -18 379 -18 Q214 -18 118 99 Q35 201 35 356 Q35 536 149 642 Q248 734 398 734 Q534 734 624 652 Q702 581 713 473 L532 473 Q508 580 395 580 Q313 580 269 521.5 Q225 463 225 354 Q225 136 403 136 Q534 136 553 256 L423 256 L423 389 L724 389 Z " />
<glyph glyph-name="H" unicode="H" horiz-adv-x="748" d="M683 716 L683 0 L496 0 L496 296 L253 296 L253 0 L66 0 L66 716 L253 716 L253 457 L496 457 L496 716 L683 716 Z " />
<glyph glyph-name="I" unicode="I" horiz-adv-x="318" d="M253 716 L253 0 L66 0 L66 716 L253 716 Z " />
<glyph glyph-name="J" unicode="J" horiz-adv-x="562" d="M507 716 L507 237 Q507 121 456 60 Q389 -18 258 -18 Q101 -18 39 88 Q6 145 6 253 Q6 266 6 284 L177 284 L177 265 Q177 190 189 168 Q206 136 252 136 Q289 136 304.5 157 Q320 178 320 229 L320 716 L507 716 Z " />
<glyph glyph-name="K" unicode="K" horiz-adv-x="736" d="M722 716 L456 435 L755 0 L523 0 L330 300 L253 221 L253 0 L66 0 L66 716 L253 716 L253 537 L253 484 L253 435 Q292 489 319 520 L491 716 L722 716 Z " />
<glyph glyph-name="L" unicode="L" horiz-adv-x="617" d="M589 161 L589 0 L66 0 L66 716 L253 716 L253 161 L589 161 Z " />
<glyph glyph-name="M" unicode="M" horiz-adv-x="932" d="M867 716 L867 0 L690 0 L690 161 Q690 316 699 545 Q661 384 622 261 L539 0 L396 0 L312 254 Q275 365 234 545 Q243 341 243 185 L243 0 L66 0 L66 716 L334 716 L411 467 Q445 358 469 218 Q502 378 530 471 L603 716 L867 716 Z " />
<glyph glyph-name="N" unicode="N" horiz-adv-x="751" d="M687 716 L687 0 L505 0 L312 325 L271 398 Q260 416 241 459 Q248 380 248 277 L248 0 L66 0 L66 716 L255 716 L433 413 Q485 323 513 263 Q505 368 505 448 L505 716 L687 716 Z " />
<glyph glyph-name="O" unicode="O" horiz-adv-x="777" d="M391 734 Q558 734 657 616 Q742 513 742 358 Q742 179 632 74 Q536 -18 391 -18 Q221 -18 121 100 Q35 202 35 358 Q35 537 141 638 Q243 734 391 734 Z M390 580 Q309 580 264 512 Q225 454 225 359 Q225 248 275 188 Q319 136 391 136 Q467 136 510 195.5 Q553 255 553 362 Q553 471 503 529 Q460 580 390 580 Z " />
<glyph glyph-name="P" unicode="P" horiz-adv-x="690" d="M66 716 L361 716 Q503 716 566 673 Q664 607 664 473 Q664 364 590 297 Q526 239 401 239 L253 239 L253 0 L66 0 L66 716 Z M253 562 L253 386 L376 386 Q482 386 482 474 Q482 560 369 561 L253 562 Z " />
<glyph glyph-name="Q" unicode="Q" horiz-adv-x="774" d="M650 105 L744 2 L653 -81 L556 25 L553 28 L550 26 Q482 -18 381 -18 Q217 -18 119 100 Q35 202 35 357 Q35 533 149 640 Q247 734 391 734 Q553 734 653 615 Q739 512 739 363 Q738 196 650 105 Z M527 239 Q549 281 550 359 Q550 470 501 529 Q459 580 388 580 Q312 580 268.5 521 Q225 462 225 359 Q225 251 274 189 Q318 136 386 136 Q413 136 436 144 L451 149 L450 150 L366 237 L455 319 L527 239 Z " />
<glyph glyph-name="R" unicode="R" horiz-adv-x="749" d="M64 716 L417 716 Q526 716 583 682 Q680 625 680 509 Q680 449 650 402 Q620 355 569 334 Q614 322 641 280 Q659 252 665.5 222.5 Q672 193 681 89 Q688 23 699 7 L705 0 L514 0 Q505 21 493 150 Q485 215 457 240.5 Q429 266 366 266 L251 266 L251 0 L64 0 L64 716 Z M251 569 L251 400 L383 400 Q496 400 496 486 Q496 569 381 569 L251 569 Z " />
<glyph glyph-name="S" unicode="S" horiz-adv-x="674" d="M614 501 L436 501 Q432 589 321 589 Q224 589 224 526 Q224 497 250 484 Q272 473 391 443 Q504 414 555 382 Q643 328 643 220 Q643 102 550 38 Q469 -18 337 -18 Q177 -18 93 59 Q19 126 17 241 L205 241 Q211 127 344 127 Q453 127 453 200 Q453 234 424.5 250.5 Q396 267 283 299 Q146 338 99 378 Q44 425 44 514 Q44 620 132 681 Q209 734 329 734 Q472 734 547 665 Q612 605 614 501 Z " />
<glyph glyph-name="T" unicode="T" horiz-adv-x="648" d="M630 716 L630 555 L416 555 L416 0 L230 0 L230 555 L17 555 L17 716 L630 716 Z " />
<glyph glyph-name="U" unicode="U" horiz-adv-x="733" d="M678 716 L678 290 Q678 147 619 76 Q541 -18 367 -18 Q182 -18 104 88 Q55 155 55 292 L55 716 L242 716 L242 278 Q242 203 272.5 169.5 Q303 136 371 136 Q434 136 463 169.5 Q492 203 492 278 L492 716 L678 716 Z " />
<glyph glyph-name="V" unicode="V" horiz-adv-x="667" d="M671 716 L438 0 L223 0 L-4 716 L192 716 L257 508 Q312 333 333 184 Q356 334 410 507 L475 716 L671 716 Z " />
<glyph glyph-name="W" unicode="W" horiz-adv-x="964" d="M967 716 L770 0 L583 0 L527 241 Q512 302 497 399 Q487 460 480 496 Q475 465 465 401 Q454 325 436 244 L382 0 L192 0 L-3 716 L185 716 L239 485 Q271 344 289 193 Q309 348 339 482 L393 716 L571 716 L621 496 Q656 340 674 193 Q695 362 730 507 L779 716 L967 716 Z " />
<glyph glyph-name="X" unicode="X" horiz-adv-x="700" d="M687 716 L458 377 L712 0 L485 0 L397 143 Q368 190 346 240 Q326 195 292 141 L203 0 L-13 0 L243 377 L9 716 L229 716 L300 598 Q332 545 354 495 Q376 545 404 590 L479 716 L687 716 Z " />
<glyph glyph-name="Y" unicode="Y" horiz-adv-x="665" d="M690 716 L426 269 L426 0 L239 0 L239 269 L-24 716 L188 716 L271 564 Q305 502 334 426 Q369 515 402 575 L481 716 L690 716 Z " />
<glyph glyph-name="Z" unicode="Z" horiz-adv-x="669" d="M633 716 L633 572 L357 258 Q334 232 260 156 Q360 161 409 161 L647 161 L647 0 L24 0 L24 151 L314 482 Q335 507 392 557 L371 557 Q340 556 329 556 Q270 555 260 555 L46 555 L46 716 L633 716 Z " />
<glyph glyph-name="bracketleft" unicode="&#x5b;" horiz-adv-x="372" d="M303 716 L303 605 L202 605 L202 9 L303 9 L303 -102 L69 -102 L69 716 L303 716 Z " />
<glyph glyph-name="backslash" unicode="&#x5c;" horiz-adv-x="409" d="M148 673 L399 0 L260 0 L9 673 L148 673 Z " />
<glyph glyph-name="bracketright" unicode="&#x5d;" horiz-adv-x="372" d="M303 716 L303 -102 L69 -102 L69 9 L170 9 L170 605 L69 605 L69 716 L303 716 Z " />
<glyph glyph-name="asciicircum" unicode="&#x5e;" horiz-adv-x="537" d="M174 368 L11 368 L166 721 L372 721 L527 368 L364 368 L269 596 L174 368 Z " />
<glyph glyph-name="underscore" unicode="&#x5f;" horiz-adv-x="384" d="M387 -85 L387 -149 L-4 -149 L-4 -85 L387 -85 Z " />
<glyph glyph-name="grave" unicode="&#x60;" horiz-adv-x="537" d="M93 735 L271 735 L358 591 L251 591 L93 735 Z " />
<glyph glyph-name="a" unicode="a" horiz-adv-x="587" d="M559 0 L386 0 Q378 25 377 49 Q329 -14 207 -14 Q116 -14 67 34 Q24 76 24 145 Q24 240 108 279 Q144 295 256 316 L374 338 L374 369 Q372 426 295 426 Q253 426 233.5 411.5 Q214 397 208 360 L47 360 Q56 533 297 533 Q425 533 489 487 Q519 464 530 435.5 Q541 407 541 349 Q541 339 540 287 L540 276 L539 190 Q539 155 539 143 Q539 131 538 105 Q538 91 538 83 Q538 27 559 0 Z M376 237 L298 220 Q237 206 217 192 Q197 178 197 150 Q197 89 266 89 Q324 89 356 130 Q374 152 375 200 L376 237 Z " />
<glyph glyph-name="b" unicode="b" horiz-adv-x="632" d="M229 716 L229 459 Q290 535 381 535 Q488 535 549 451 Q602 379 602 266 Q602 130 530 53 Q467 -14 369 -14 Q279 -14 223 61 L223 0 L59 0 L59 716 L229 716 Z M327 401 Q280 401 252 364 Q224 327 224 265 Q224 200 251.5 162.5 Q279 125 328 125 Q375 125 402.5 162.5 Q430 200 430 265 Q430 327 402 364 Q374 401 327 401 Z " />
<glyph glyph-name="c" unicode="c" horiz-adv-x="588" d="M563 204 Q548 93 471 36 Q404 -14 303 -14 Q171 -14 95 70 Q29 143 29 255 Q29 390 114 466 Q189 533 304 533 Q421 533 491 471 Q553 416 559 331 L394 331 Q381 409 307 409 Q202 409 202 256 Q202 113 304 113 Q385 113 399 204 L563 204 Z " />
<glyph glyph-name="d" unicode="d" horiz-adv-x="632" d="M574 716 L574 0 L403 0 L403 61 Q358 -14 262 -14 Q150 -14 86 71 Q31 146 31 263 Q31 394 100 468 Q160 534 253 534 Q350 534 403 459 L403 716 L574 716 Z M306 401 Q257 401 230.5 364.5 Q204 328 204 262 Q204 125 306 125 Q355 125 382.5 161.5 Q410 198 410 262 Q410 327 382 364 Q354 401 306 401 Z " />
<glyph glyph-name="e" unicode="e" horiz-adv-x="610" d="M572 159 Q560 113 526 74 Q449 -14 313 -14 Q190 -14 114 54 Q29 130 29 255 Q29 386 117 465 Q193 533 306 533 Q443 533 517 443 Q582 364 582 236 Q582 227 582 220 L196 220 Q198 164 229 132.5 Q260 101 313 101 Q378 101 412 159 L572 159 Z M415 317 Q402 418 308 418 Q213 418 198 317 L415 317 Z " />
<glyph glyph-name="f" unicode="f" horiz-adv-x="367" d="M360 714 L360 594 Q335 596 316 596 Q276 596 264 587 Q252 578 252 550 L252 519 L353 519 L353 407 L252 407 L252 0 L81 0 L81 407 L-1 407 L-1 519 L81 519 L81 543 Q81 636 127.5 676.5 Q174 717 280 717 Q308 717 360 714 Z " />
<glyph glyph-name="g" unicode="g" horiz-adv-x="622" d="M564 519 L564 69 Q564 -36 529 -89 Q465 -184 302 -184 Q69 -184 48 -17 L218 -17 Q234 -74 304 -74 Q357 -74 378.5 -48 Q400 -22 400 42 L400 99 Q346 26 250 26 Q142 26 83 103 Q31 170 31 277 Q31 401 100 472 Q160 533 254 533 Q347 533 400 453 L400 519 L564 519 Z M300 404 Q253 404 225.5 370.5 Q198 337 198 279 Q198 220 225.5 185.5 Q253 151 301 151 Q348 151 375.5 185 Q403 219 403 278 Q403 337 375.5 370.5 Q348 404 300 404 Z " />
<glyph glyph-name="h" unicode="h" horiz-adv-x="632" d="M229 716 L229 451 Q290 533 393 533 Q498 533 547 463 Q578 417 578 327 L578 0 L408 0 L408 296 Q408 347 392 367 Q370 394 326 394 Q269 394 243 348 Q229 324 229 260 L229 0 L59 0 L59 716 L229 716 Z " />
<glyph glyph-name="i" unicode="i" horiz-adv-x="287" d="M229 519 L229 0 L59 0 L59 519 L229 519 Z M144 735 Q176 735 199 712.5 Q222 690 222 657 Q222 625 199 602 Q176 579 144 579 Q111 579 88.5 602 Q66 625 66 657 Q66 690 88.5 712.5 Q111 735 144 735 Z " />
<glyph glyph-name="j" unicode="j" horiz-adv-x="287" d="M229 519 L229 6 Q229 -66 214 -102 Q180 -178 42 -178 Q17 -178 -29 -176 L-29 -40 Q-20 -39 8 -39 Q48 -38 55 -11 Q59 2 59 72 L59 519 L229 519 Z M143 735 Q176 735 199 712.5 Q222 690 222 657 Q222 625 199 602 Q176 579 143 579 Q111 579 88.5 602 Q66 625 66 657 Q66 690 88.5 712.5 Q111 735 143 735 Z " />
<glyph glyph-name="k" unicode="k" horiz-adv-x="600" d="M584 519 L393 325 L610 0 L406 0 L277 210 L229 166 L229 0 L59 0 L59 716 L229 716 L229 342 Q249 372 266 390 L387 519 L584 519 Z " />
<glyph glyph-name="l" unicode="l" horiz-adv-x="287" d="M229 716 L229 0 L59 0 L59 716 L229 716 Z " />
<glyph glyph-name="m" unicode="m" horiz-adv-x="929" d="M223 519 L223 450 Q281 533 383 533 Q486 533 529 450 Q592 533 694 533 Q784 533 833 477 Q875 427 875 345 L875 0 L705 0 L705 301 Q705 394 633 394 Q584 394 563 354 Q552 333 552 285 L552 0 L382 0 L382 308 Q382 394 313 394 Q229 394 229 285 L229 0 L59 0 L59 519 L223 519 Z " />
<glyph glyph-name="n" unicode="n" horiz-adv-x="630" d="M223 519 L223 450 Q285 533 393 533 Q497 533 545 464 Q576 418 576 322 L576 0 L405 0 L405 294 Q405 335 397 355 Q381 394 326 394 Q266 394 242 348 Q229 324 229 277 L229 0 L59 0 L59 519 L223 519 Z " />
<glyph glyph-name="o" unicode="o" horiz-adv-x="607" d="M304 -14 Q173 -14 96 72 Q29 147 29 260 Q29 390 115 467 Q190 533 303 533 Q435 533 512 448 Q578 375 578 261 Q578 130 492 53 Q417 -14 304 -14 Z M302 409 Q254 409 228 370 Q202 331 202 260 Q202 110 304 110 Q406 110 406 261 Q406 409 302 409 Z " />
<glyph glyph-name="p" unicode="p" horiz-adv-x="632" d="M223 519 L223 458 Q278 533 375 533 Q484 533 547 447 Q602 372 602 256 Q602 125 533 50 Q474 -14 381 -14 Q286 -14 229 60 L229 -175 L59 -175 L59 519 L223 519 Z M327 394 Q278 394 251 357.5 Q224 321 224 255 Q224 190 251 154 Q278 118 327 118 Q429 118 429 255 Q429 394 327 394 Z " />
<glyph glyph-name="q" unicode="q" horiz-adv-x="632" d="M574 519 L574 -175 L404 -175 L404 61 Q347 -15 254 -15 Q145 -15 84 69 Q31 141 31 255 Q31 390 102 466 Q163 533 259 533 Q360 533 410 459 L410 519 L574 519 Z M304 394 Q256 394 230 356.5 Q204 319 204 252 Q204 118 305 118 Q409 118 409 256 Q409 394 304 394 Z " />
<glyph glyph-name="r" unicode="r" horiz-adv-x="439" d="M430 522 L429 382 Q392 393 359 393 Q229 393 229 226 L229 0 L59 0 L59 519 L223 519 L223 430 Q253 533 390 533 Q406 533 430 522 Z " />
<glyph glyph-name="s" unicode="s" horiz-adv-x="545" d="M504 373 L347 373 Q343 403 323.5 415.5 Q304 428 260 428 Q192 428 192 386 Q192 364 213.5 354 Q235 344 313 329 Q426 307 471.5 270.5 Q517 234 517 165 Q517 75 442 27 Q376 -14 267 -14 Q129 -14 63 51 Q31 83 21.5 101.5 Q12 120 9 162 L176 162 Q180 126 200.5 111.5 Q221 97 269 97 Q349 97 349 150 Q349 173 330 183.5 Q311 194 240 210 Q129 234 89 256 Q25 292 25 372 Q25 450 87 491.5 Q149 533 263 533 Q404 533 464 466 Q500 427 504 373 Z " />
<glyph glyph-name="t" unicode="t" horiz-adv-x="376" d="M372 519 L372 407 L249 407 L249 193 Q249 121 314 121 Q352 121 374 136 L404 14 Q355 -7 261 -7 Q145 -7 106 43 Q89 65 84 91 Q79 117 79 177 L79 407 L-8 407 L-8 519 L79 519 L79 629 L249 718 L249 519 L372 519 Z " />
<glyph glyph-name="u" unicode="u" horiz-adv-x="630" d="M572 519 L572 0 L401 0 L401 70 Q352 -14 239 -14 Q140 -14 90 51 Q55 96 55 194 L55 519 L225 519 L225 242 Q225 175 238 156 Q258 125 306 125 Q365 125 390 174 Q401 197 401 258 L401 519 L572 519 Z " />
<glyph glyph-name="v" unicode="v" horiz-adv-x="530" d="M538 519 L366 0 L168 0 L-8 519 L172 519 L225 339 Q255 241 268 152 Q279 223 310 331 L366 519 L538 519 Z " />
<glyph glyph-name="w" unicode="w" horiz-adv-x="824" d="M830 519 L668 0 L495 0 L444 198 Q426 267 411 370 Q394 262 378 198 L329 0 L156 0 L-7 519 L169 519 L215 347 Q236 269 255 150 Q275 275 294 354 L333 519 L491 519 L535 336 Q557 247 571 150 Q588 262 607 333 L656 519 L830 519 Z " />
<glyph glyph-name="x" unicode="x" horiz-adv-x="521" d="M516 519 L352 275 L537 0 L350 0 L294 87 Q284 104 261 157 Q241 114 223 86 L170 0 L-17 0 L165 275 L0 519 L188 519 L228 454 Q237 441 261 391 Q288 442 298 459 L334 519 L516 519 Z " />
<glyph glyph-name="y" unicode="y" horiz-adv-x="539" d="M546 519 L358 -5 Q319 -113 274 -147 Q229 -181 126 -181 Q71 -181 1 -169 L28 -34 Q50 -42 85 -42 Q140 -42 155 -19 Q171 4 171 32 Q171 38 168 45 L-9 519 L172 519 L244 289 Q257 246 272 168 Q292 257 304 295 L372 519 L546 519 Z " />
<glyph glyph-name="z" unicode="z" horiz-adv-x="533" d="M502 519 L502 390 L322 201 Q311 190 282 166 Q264 151 236 129 Q259 127 269 127 L319 129 L522 129 L522 0 L25 0 L25 129 L201 310 Q221 331 294 390 Q282 390 270 390 L233 390 L46 390 L46 519 L502 519 Z " />
<glyph glyph-name="braceleft" unicode="&#x7b;" horiz-adv-x="382" d="M277 718 L335 645 L335 603 Q316 602 305 600 Q297 597 289 591 Q267 576 267 539 L267 413 Q263 327 159 311 L159 305 Q267 289 267 208 Q267 205 267 203 L267 77 Q267 14 331 14 Q332 14 335 14 L335 -29 L277 -102 Q274 -101 268 -101 Q253 -99 246 -98 Q201 -91 174 -73 Q134 -46 134 25 L134 167 Q134 249 16 249 L16 366 Q134 366 134 443 Q134 445 134 448 L134 591 Q134 661 174 689 Q201 707 245 713 Q252 715 270 717 Q275 717 277 718 Z " />
<glyph glyph-name="bar" unicode="&#x7c;" horiz-adv-x="223" d="M69 688 L154 688 L154 28 L69 28 L69 688 Z " />
<glyph glyph-name="braceright" unicode="&#x7d;" horiz-adv-x="382" d="M46 645 L104 718 Q107 717 115 716 Q129 715 135 713 Q181 707 207 689 Q248 661 248 591 L248 448 Q247 445 247 443 Q247 366 365 366 L365 249 Q248 249 248 167 L248 25 Q248 -46 207 -73 Q180 -91 131 -99 Q122 -100 105 -102 L46 -29 L46 14 Q50 14 51 14 Q115 14 115 77 L115 203 Q115 205 115 208 Q115 289 222 305 L222 311 Q118 327 115 413 L115 539 Q115 576 93 591 Q83 598 69 601 Q58 603 46 603 L46 645 Z " />
<glyph glyph-name="asciitilde" unicode="&#x7e;" horiz-adv-x="716" d="M188 230 L99 305 Q160 460 264 460 Q297 460 383 425 Q444 401 460 401 Q498 401 530 463 L620 388 Q585 304 547 269 Q509 234 451 234 Q416 234 331 270 Q278 292 256 292 Q221 292 188 230 Z " />
<glyph glyph-name="Adieresis" unicode="&#xc4;" horiz-adv-x="718" d="M454 716 L722 0 L528 0 L482 131 L234 131 L188 0 L-4 0 L264 716 L454 716 Z M439 265 L405 362 Q375 450 359 523 Q339 445 310 360 L277 265 L439 265 Z M252 929 Q285 929 307.5 906.5 Q330 884 330 851 Q330 819 307 796 Q284 773 252 773 Q220 773 197 796 Q174 819 174 851 Q174 884 196.5 906.5 Q219 929 252 929 Z M466 929 Q499 929 521.5 906.5 Q544 884 544 851 Q544 819 521.5 796 Q499 773 466 773 Q434 773 411 796 Q388 819 388 851 Q388 884 411 906.5 Q434 929 466 929 Z " />
<glyph glyph-name="Aring" unicode="&#xc5;" horiz-adv-x="718" d="M454 716 L722 0 L528 0 L482 131 L234 131 L188 0 L-4 0 L264 716 L454 716 Z M439 265 L405 362 Q375 450 359 523 Q339 445 310 360 L277 265 L439 265 Z M359 976 Q416 976 456 944.5 Q496 913 496 868 Q496 823 456 791.5 Q416 760 359 760 Q302 760 262 791.5 Q222 823 222 868 Q222 913 262 944.5 Q302 976 359 976 Z M359 921 Q335 921 318 905.5 Q301 890 301 868 Q301 846 318 830.5 Q335 815 359 815 Q383 815 400 830.5 Q417 846 417 868 Q417 890 400 905.5 Q383 921 359 921 Z " />
<glyph glyph-name="Ccedilla" unicode="&#xc7;" horiz-adv-x="746" d="M386 -18 L358 -63 Q385 -57 400 -57 Q439 -57 464 -78 Q489 -99 489 -132 Q489 -172 454 -198 Q419 -224 365 -224 Q306 -224 242 -199 L262 -154 Q314 -173 347 -173 Q395 -173 395 -137 Q395 -100 351 -100 Q336 -100 312 -108 L290 -87 L339 -15 Q196 6 118 104 Q35 207 35 359 Q35 516 130 623 Q229 734 397 734 Q537 734 630 647 Q710 572 717 463 L535 463 Q524 512 501 537 Q462 580 394 580 Q310 580 264 513 Q225 454 225 358 Q225 247 275 188 Q319 136 392 136 Q467 136 506 191 Q527 221 535 279 L722 279 Q712 131 608 50 Q520 -18 389 -18 L386 -18 Z " />
<glyph glyph-name="Eacute" unicode="&#xc9;" horiz-adv-x="688" d="M639 716 L639 562 L253 562 L253 443 L606 443 L606 296 L253 296 L253 154 L648 154 L648 0 L66 0 L66 716 L639 716 Z M548 918 L377 780 L254 780 L356 918 L548 918 Z " />
<glyph glyph-name="Ntilde" unicode="&#xd1;" horiz-adv-x="751" d="M687 716 L687 0 L505 0 L312 325 L271 398 Q260 416 241 459 Q248 380 248 277 L248 0 L66 0 L66 716 L255 716 L433 413 Q485 323 513 263 Q505 368 505 448 L505 716 L687 716 Z M577 916 Q564 849 545 825 Q514 784 469 784 Q429 784 366 808 Q323 825 308 825 Q277 825 267 782 L190 782 Q206 913 303 913 Q335 913 421 880 Q442 872 457 872 Q492 872 499 916 L577 916 Z " />
<glyph glyph-name="Odieresis" unicode="&#xd6;" horiz-adv-x="777" d="M391 734 Q558 734 657 616 Q742 513 742 358 Q742 179 632 74 Q536 -18 391 -18 Q221 -18 121 100 Q35 202 35 358 Q35 537 141 638 Q243 734 391 734 Z M390 580 Q309 580 264 512 Q225 454 225 359 Q225 248 275 188 Q319 136 391 136 Q467 136 510 195.5 Q553 255 553 362 Q553 471 503 529 Q460 580 390 580 Z M284 929 Q316 929 339 906.5 Q362 884 362 851 Q362 819 339 796 Q316 773 284 773 Q251 773 228.5 796 Q206 819 206 851 Q206 884 228.5 906.5 Q251 929 284 929 Z M498 929 Q530 929 553 906.5 Q576 884 576 851 Q576 819 553 796 Q530 773 498 773 Q465 773 442.5 796 Q420 819 420 851 Q420 884 442.5 906.5 Q465 929 498 929 Z " />
<glyph glyph-name="Udieresis" unicode="&#xdc;" horiz-adv-x="733" d="M678 716 L678 290 Q678 147 619 76 Q541 -18 367 -18 Q182 -18 104 88 Q55 155 55 292 L55 716 L242 716 L242 278 Q242 203 272.5 169.5 Q303 136 371 136 Q434 136 463 169.5 Q492 203 492 278 L492 716 L678 716 Z M261 929 Q294 929 316.5 906.5 Q339 884 339 851 Q339 819 316 796 Q293 773 261 773 Q229 773 206 796 Q183 819 183 851 Q183 884 205.5 906.5 Q228 929 261 929 Z M475 929 Q508 929 530.5 906.5 Q553 884 553 851 Q553 819 530.5 796 Q508 773 475 773 Q443 773 420 796 Q397 819 397 851 Q397 884 420 906.5 Q443 929 475 929 Z " />
<glyph glyph-name="aacute" unicode="&#xe1;" horiz-adv-x="587" d="M488 735 L330 591 L222 591 L310 735 L488 735 Z M559 0 L386 0 Q378 25 377 49 Q329 -14 207 -14 Q116 -14 67 34 Q24 76 24 145 Q24 240 108 279 Q144 295 256 316 L374 338 L374 369 Q372 426 295 426 Q253 426 233.5 411.5 Q214 397 208 360 L47 360 Q56 533 297 533 Q425 533 489 487 Q519 464 530 435.5 Q541 407 541 349 Q541 339 540 287 L540 276 L539 190 Q539 155 539 143 Q539 131 538 105 Q538 91 538 83 Q538 27 559 0 Z M376 237 L298 220 Q237 206 217 192 Q197 178 197 150 Q197 89 266 89 Q324 89 356 130 Q374 152 375 200 L376 237 Z " />
<glyph glyph-name="agrave" unicode="&#xe0;" horiz-adv-x="587" d="M122 735 L300 735 L387 591 L280 591 L122 735 Z M559 0 L386 0 Q378 25 377 49 Q329 -14 207 -14 Q116 -14 67 34 Q24 76 24 145 Q24 240 108 279 Q144 295 256 316 L374 338 L374 369 Q372 426 295 426 Q253 426 233.5 411.5 Q214 397 208 360 L47 360 Q56 533 297 533 Q425 533 489 487 Q519 464 530 435.5 Q541 407 541 349 Q541 339 540 287 L540 276 L539 190 Q539 155 539 143 Q539 131 538 105 Q538 91 538 83 Q538 27 559 0 Z M376 237 L298 220 Q237 206 217 192 Q197 178 197 150 Q197 89 266 89 Q324 89 356 130 Q374 152 375 200 L376 237 Z " />
<glyph glyph-name="acircumflex" unicode="&#xe2;" horiz-adv-x="587" d="M494 591 L365 591 L303 672 L241 591 L116 591 L231 735 L380 735 L494 591 Z M559 0 L386 0 Q378 25 377 49 Q329 -14 207 -14 Q116 -14 67 34 Q24 76 24 145 Q24 240 108 279 Q144 295 256 316 L374 338 L374 369 Q372 426 295 426 Q253 426 233.5 411.5 Q214 397 208 360 L47 360 Q56 533 297 533 Q425 533 489 487 Q519 464 530 435.5 Q541 407 541 349 Q541 339 540 287 L540 276 L539 190 Q539 155 539 143 Q539 131 538 105 Q538 91 538 83 Q538 27 559 0 Z M376 237 L298 220 Q237 206 217 192 Q197 178 197 150 Q197 89 266 89 Q324 89 356 130 Q374 152 375 200 L376 237 Z " />
<glyph glyph-name="adieresis" unicode="&#xe4;" horiz-adv-x="587" d="M192 748 Q224 748 247 725.5 Q270 703 270 670 Q270 638 247 615 Q224 592 192 592 Q159 592 136.5 615 Q114 638 114 670 Q114 703 136.5 725.5 Q159 748 192 748 Z M406 748 Q438 748 461 725.5 Q484 703 484 670 Q484 638 461 615 Q438 592 406 592 Q373 592 350.5 615 Q328 638 328 670 Q328 703 350.5 725.5 Q373 748 406 748 Z M559 0 L386 0 Q378 25 377 49 Q329 -14 207 -14 Q116 -14 67 34 Q24 76 24 145 Q24 240 108 279 Q144 295 256 316 L374 338 L374 369 Q372 426 295 426 Q253 426 233.5 411.5 Q214 397 208 360 L47 360 Q56 533 297 533 Q425 533 489 487 Q519 464 530 435.5 Q541 407 541 349 Q541 339 540 287 L540 276 L539 190 Q539 155 539 143 Q539 131 538 105 Q538 91 538 83 Q538 27 559 0 Z M376 237 L298 220 Q237 206 217 192 Q197 178 197 150 Q197 89 266 89 Q324 89 356 130 Q374 152 375 200 L376 237 Z " />
<glyph glyph-name="atilde" unicode="&#xe3;" horiz-adv-x="587" d="M480 729 Q468 658 445 630.5 Q422 603 375 603 Q337 603 288 623 Q251 639 236 639 Q209 639 201 598 L128 598 Q139 660 153 683 Q182 728 232 728 Q265 728 338 695 Q356 688 371 688 Q399 688 406 729 L480 729 Z M559 0 L386 0 Q378 25 377 49 Q329 -14 207 -14 Q116 -14 67 34 Q24 76 24 145 Q24 240 108 279 Q144 295 256 316 L374 338 L374 369 Q372 426 295 426 Q253 426 233.5 411.5 Q214 397 208 360 L47 360 Q56 533 297 533 Q425 533 489 487 Q519 464 530 435.5 Q541 407 541 349 Q541 339 540 287 L540 276 L539 190 Q539 155 539 143 Q539 131 538 105 Q538 91 538 83 Q538 27 559 0 Z M376 237 L298 220 Q237 206 217 192 Q197 178 197 150 Q197 89 266 89 Q324 89 356 130 Q374 152 375 200 L376 237 Z " />
<glyph glyph-name="aring" unicode="&#xe5;" horiz-adv-x="587" d="M306 783 Q363 783 403 751.5 Q443 720 443 675 Q443 630 403 598.5 Q363 567 306 567 Q249 567 209 598.5 Q169 630 169 675 Q169 720 209 751.5 Q249 783 306 783 Z M306 728 Q282 728 265 712.5 Q248 697 248 675 Q248 653 265 637.5 Q282 622 306 622 Q330 622 347 637.5 Q364 653 364 675 Q364 697 347 712.5 Q330 728 306 728 Z M559 0 L386 0 Q378 25 377 49 Q329 -14 207 -14 Q116 -14 67 34 Q24 76 24 145 Q24 240 108 279 Q144 295 256 316 L374 338 L374 369 Q372 426 295 426 Q253 426 233.5 411.5 Q214 397 208 360 L47 360 Q56 533 297 533 Q425 533 489 487 Q519 464 530 435.5 Q541 407 541 349 Q541 339 540 287 L540 276 L539 190 Q539 155 539 143 Q539 131 538 105 Q538 91 538 83 Q538 27 559 0 Z M376 237 L298 220 Q237 206 217 192 Q197 178 197 150 Q197 89 266 89 Q324 89 356 130 Q374 152 375 200 L376 237 Z " />
<glyph glyph-name="ccedilla" unicode="&#xe7;" horiz-adv-x="588" d="M563 204 Q554 108 482 46 Q419 -8 310 -13 L279 -63 Q304 -58 321 -58 Q360 -58 385.5 -78.5 Q411 -99 411 -131 Q411 -173 377 -199 Q343 -225 287 -225 Q227 -225 163 -200 L183 -156 Q233 -174 266 -174 Q318 -174 318 -137 Q318 -100 271 -100 Q256 -100 235 -109 L211 -88 L259 -13 Q187 -1 143 27 Q29 103 29 257 Q29 389 117 466 Q193 533 308 533 Q422 533 494 469 Q556 414 560 331 L395 331 Q385 409 308 409 Q202 409 202 257 Q202 113 308 113 Q388 113 399 204 L563 204 Z " />
<glyph glyph-name="eacute" unicode="&#xe9;" horiz-adv-x="610" d="M572 159 Q560 113 526 74 Q449 -14 313 -14 Q190 -14 114 54 Q29 130 29 255 Q29 386 117 465 Q193 533 306 533 Q443 533 517 443 Q582 364 582 236 Q582 227 582 220 L196 220 Q198 164 229 132.5 Q260 101 313 101 Q378 101 412 159 L572 159 Z M415 317 Q402 418 308 418 Q213 418 198 317 L415 317 Z M499 735 L341 591 L233 591 L321 735 L499 735 Z " />
<glyph glyph-name="egrave" unicode="&#xe8;" horiz-adv-x="610" d="M572 159 Q560 113 526 74 Q449 -14 313 -14 Q190 -14 114 54 Q29 130 29 255 Q29 386 117 465 Q193 533 306 533 Q443 533 517 443 Q582 364 582 236 Q582 227 582 220 L196 220 Q198 164 229 132.5 Q260 101 313 101 Q378 101 412 159 L572 159 Z M415 317 Q402 418 308 418 Q213 418 198 317 L415 317 Z M133 735 L311 735 L398 591 L291 591 L133 735 Z " />
<glyph glyph-name="ecircumflex" unicode="&#xea;" horiz-adv-x="610" d="M572 159 Q560 113 526 74 Q449 -14 313 -14 Q190 -14 114 54 Q29 130 29 255 Q29 386 117 465 Q193 533 306 533 Q443 533 517 443 Q582 364 582 236 Q582 227 582 220 L196 220 Q198 164 229 132.5 Q260 101 313 101 Q378 101 412 159 L572 159 Z M415 317 Q402 418 308 418 Q213 418 198 317 L415 317 Z M509 591 L379 591 L318 672 L256 591 L130 591 L246 735 L395 735 L509 591 Z " />
<glyph glyph-name="edieresis" unicode="&#xeb;" horiz-adv-x="610" d="M572 159 Q560 113 526 74 Q449 -14 313 -14 Q190 -14 114 54 Q29 130 29 255 Q29 386 117 465 Q193 533 306 533 Q443 533 517 443 Q582 364 582 236 Q582 227 582 220 L196 220 Q198 164 229 132.5 Q260 101 313 101 Q378 101 412 159 L572 159 Z M415 317 Q402 418 308 418 Q213 418 198 317 L415 317 Z M212 743 Q244 743 267 720 Q290 697 290 665 Q290 632 267 609.5 Q244 587 212 587 Q179 587 156.5 609.5 Q134 632 134 665 Q134 697 156.5 720 Q179 743 212 743 Z M426 743 Q459 743 481.5 720 Q504 697 504 665 Q504 632 481.5 609.5 Q459 587 426 587 Q394 587 371 609.5 Q348 632 348 665 Q348 697 371 720 Q394 743 426 743 Z " />
<glyph glyph-name="iacute" unicode="&#xed;" horiz-adv-x="287" d="M229 519 L229 0 L59 0 L59 519 L229 519 Z M316 735 L165 591 L61 591 L141 735 L316 735 Z " />
<glyph glyph-name="igrave" unicode="&#xec;" horiz-adv-x="288" d="M228 519 L228 0 L57 0 L57 519 L228 519 Z M-29 735 L145 735 L226 591 L122 591 L-29 735 Z " />
<glyph glyph-name="icircumflex" unicode="&#xee;" horiz-adv-x="287" d="M229 519 L229 0 L59 0 L59 519 L229 519 Z M322 591 L196 591 L142 672 L87 591 L-35 591 L70 735 L219 735 L322 591 Z " />
<glyph glyph-name="idieresis" unicode="&#xef;" horiz-adv-x="287" d="M229 519 L229 0 L59 0 L59 519 L229 519 Z M53 743 Q85 743 108 720 Q131 697 131 665 Q131 632 108 609.5 Q85 587 53 587 Q20 587 -2.5 609.5 Q-25 632 -25 665 Q-25 697 -2.5 720 Q20 743 53 743 Z M241 743 Q274 743 296.5 720 Q319 697 319 665 Q319 632 296.5 609.5 Q274 587 241 587 Q209 587 186 609.5 Q163 632 163 665 Q163 697 186 720 Q209 743 241 743 Z " />
<glyph glyph-name="ntilde" unicode="&#xf1;" horiz-adv-x="630" d="M223 519 L223 450 Q285 533 393 533 Q497 533 545 464 Q576 418 576 322 L576 0 L405 0 L405 294 Q405 335 397 355 Q381 394 326 394 Q266 394 242 348 Q229 324 229 277 L229 0 L59 0 L59 519 L223 519 Z M486 729 Q474 658 451 630.5 Q428 603 381 603 Q343 603 295 623 Q257 639 242 639 Q215 639 208 598 L134 598 Q145 660 159 683 Q188 728 239 728 Q271 728 345 695 Q362 688 377 688 Q405 688 413 729 L486 729 Z " />
<glyph glyph-name="oacute" unicode="&#xf3;" horiz-adv-x="607" d="M304 -14 Q173 -14 96 72 Q29 147 29 260 Q29 390 115 467 Q190 533 303 533 Q435 533 512 448 Q578 375 578 261 Q578 130 492 53 Q417 -14 304 -14 Z M302 409 Q254 409 228 370 Q202 331 202 260 Q202 110 304 110 Q406 110 406 261 Q406 409 302 409 Z M490 735 L332 591 L224 591 L312 735 L490 735 Z " />
<glyph glyph-name="ograve" unicode="&#xf2;" horiz-adv-x="607" d="M304 -14 Q173 -14 96 72 Q29 147 29 260 Q29 390 115 467 Q190 533 303 533 Q435 533 512 448 Q578 375 578 261 Q578 130 492 53 Q417 -14 304 -14 Z M302 409 Q254 409 228 370 Q202 331 202 260 Q202 110 304 110 Q406 110 406 261 Q406 409 302 409 Z M121 735 L298 735 L386 591 L279 591 L121 735 Z " />
<glyph glyph-name="ocircumflex" unicode="&#xf4;" horiz-adv-x="607" d="M304 -14 Q173 -14 96 72 Q29 147 29 260 Q29 390 115 467 Q190 533 303 533 Q435 533 512 448 Q578 375 578 261 Q578 130 492 53 Q417 -14 304 -14 Z M302 409 Q254 409 228 370 Q202 331 202 260 Q202 110 304 110 Q406 110 406 261 Q406 409 302 409 Z M496 591 L367 591 L305 672 L244 591 L118 591 L234 735 L382 735 L496 591 Z " />
<glyph glyph-name="odieresis" unicode="&#xf6;" horiz-adv-x="607" d="M304 -14 Q173 -14 96 72 Q29 147 29 260 Q29 390 115 467 Q190 533 303 533 Q435 533 512 448 Q578 375 578 261 Q578 130 492 53 Q417 -14 304 -14 Z M302 409 Q254 409 228 370 Q202 331 202 260 Q202 110 304 110 Q406 110 406 261 Q406 409 302 409 Z M197 743 Q230 743 252.5 720 Q275 697 275 665 Q275 632 252 609.5 Q229 587 197 587 Q165 587 142 609.5 Q119 632 119 665 Q119 697 141.5 720 Q164 743 197 743 Z M411 743 Q444 743 466.5 720 Q489 697 489 665 Q489 632 466.5 609.5 Q444 587 411 587 Q379 587 356 609.5 Q333 632 333 665 Q333 697 356 720 Q379 743 411 743 Z " />
<glyph glyph-name="otilde" unicode="&#xf5;" horiz-adv-x="607" d="M304 -14 Q173 -14 96 72 Q29 147 29 260 Q29 390 115 467 Q190 533 303 533 Q435 533 512 448 Q578 375 578 261 Q578 130 492 53 Q417 -14 304 -14 Z M302 409 Q254 409 228 370 Q202 331 202 260 Q202 110 304 110 Q406 110 406 261 Q406 409 302 409 Z M490 729 Q478 658 455 630.5 Q432 603 385 603 Q347 603 299 623 Q261 639 246 639 Q219 639 212 598 L138 598 Q149 660 163 683 Q192 728 243 728 Q275 728 349 695 Q366 688 381 688 Q409 688 417 729 L490 729 Z " />
<glyph glyph-name="uacute" unicode="&#xfa;" horiz-adv-x="630" d="M494 735 L336 591 L228 591 L316 735 L494 735 Z M572 519 L572 0 L401 0 L401 70 Q352 -14 239 -14 Q140 -14 90 51 Q55 96 55 194 L55 519 L225 519 L225 242 Q225 175 238 156 Q258 125 306 125 Q365 125 390 174 Q401 197 401 258 L401 519 L572 519 Z " />
<glyph glyph-name="ugrave" unicode="&#xf9;" horiz-adv-x="630" d="M132 735 L309 735 L397 591 L289 591 L132 735 Z M572 519 L572 0 L401 0 L401 70 Q352 -14 239 -14 Q140 -14 90 51 Q55 96 55 194 L55 519 L225 519 L225 242 Q225 175 238 156 Q258 125 306 125 Q365 125 390 174 Q401 197 401 258 L401 519 L572 519 Z " />
<glyph glyph-name="ucircumflex" unicode="&#xfb;" horiz-adv-x="630" d="M504 591 L374 591 L313 672 L251 591 L125 591 L241 735 L390 735 L504 591 Z M572 519 L572 0 L401 0 L401 70 Q352 -14 239 -14 Q140 -14 90 51 Q55 96 55 194 L55 519 L225 519 L225 242 Q225 175 238 156 Q258 125 306 125 Q365 125 390 174 Q401 197 401 258 L401 519 L572 519 Z " />
<glyph glyph-name="udieresis" unicode="&#xfc;" horiz-adv-x="630" d="M572 519 L572 0 L401 0 L401 70 Q352 -14 239 -14 Q140 -14 90 51 Q55 96 55 194 L55 519 L225 519 L225 242 Q225 175 238 156 Q258 125 306 125 Q365 125 390 174 Q401 197 401 258 L401 519 L572 519 Z M211 743 Q244 743 266.5 720 Q289 697 289 665 Q289 632 266.5 609.5 Q244 587 211 587 Q179 587 156 609.5 Q133 632 133 665 Q133 697 156 720 Q179 743 211 743 Z M425 743 Q458 743 481 720 Q504 697 504 665 Q504 632 481 609.5 Q458 587 425 587 Q393 587 370.5 609.5 Q348 632 348 665 Q348 697 370.5 720 Q393 743 425 743 Z " />
<glyph glyph-name="degree" unicode="&#xb0;" horiz-adv-x="408" d="M41 520 Q41 587 88 635 Q137 683 204 683 Q272 683 320 635 Q366 587 366 520 Q366 452 320 405 Q272 358 204 358 Q137 358 88 405 Q41 452 41 520 Z M137 520 Q137 489 156 466 Q177 443 204 443 Q231 443 251 466 Q272 490 272 520 Q272 551 251 575 Q232 598 204 598 Q176 598 156 575 Q137 552 137 520 Z " />
<glyph glyph-name="cent" unicode="&#xa2;" horiz-adv-x="582" d="M366 683 L366 607 Q395 607 435 598 Q474 589 493 580 L450 468 Q429 478 404 485 Q376 492 355 492 Q296 492 272 454 Q250 421 250 346 Q250 202 360 202 Q385 202 417 209 Q434 212 469 222 Q476 224 481 225 L481 165 L418 87 Q415 87 405 86 Q379 84 366 84 L366 -9 L279 -9 L279 86 Q189 98 143 157 Q92 221 92 342 Q92 466 143 532 Q189 591 279 603 L279 683 L366 683 Z " />
<glyph glyph-name="sterling" unicode="&#xa3;" horiz-adv-x="661" d="M173 489 Q173 593 228 644 Q277 688 367 688 Q416 688 442.5 680.5 Q469 673 510 648 L510 534 Q436 563 381 563 Q356 563 341 550 Q325 533 325 492 L325 393 L474 393 L474 283 L325 283 L325 242 Q325 178 311 149 Q344 157 389 157 Q491 157 568 124 L568 67 L515 0 Q433 26 326 26 Q220 26 92 0 L92 123 Q132 143 152 166 Q173 192 173 241 L173 283 L93 283 L93 393 L173 393 L173 489 Z " />
<glyph glyph-name="section" unicode="&#xa7;" horiz-adv-x="644" d="M542 525 L401 525 Q398 594 332 594 Q271 594 271 543 Q271 522 287 508.5 Q303 495 359 469 Q485 409 519 387 Q592 339 592 260 Q592 210 566 172 Q540 134 494 117 Q544 71 544 7 Q544 -81 475 -131 Q416 -175 324 -175 Q215 -175 154 -117 Q102 -66 102 16 Q102 18 102 22 Q102 24 102 26 L243 26 Q250 -49 323 -49 Q389 -49 389 7 Q389 35 366 52.5 Q343 70 252 110 Q127 165 96 199 Q54 245 54 306 Q54 413 157 448 Q117 491 117 546 Q117 625 185 674 Q245 716 331 716 Q431 716 489 657 Q540 605 542 525 Z M412 187 Q453 198 453 238 Q453 256 441.5 267.5 Q430 279 393 297 Q383 302 363 312 Q271 361 235 372 Q193 365 193 322 Q193 300 216.5 284 Q240 268 340 219 L352 213 Q369 205 372 203 Q395 192 412 187 Z " />
<glyph glyph-name="bullet" unicode="&#x2022;" horiz-adv-x="436" d="M219 334 Q274 334 312.5 295.5 Q351 257 351 202 Q351 146 312.5 107.5 Q274 69 219 69 Q164 69 125 108 Q86 147 86 202 Q86 257 125 295.5 Q164 334 219 334 Z " />
<glyph glyph-name="paragraph" unicode="&#xb6;" horiz-adv-x="644" d="M257 -175 L257 346 Q247 346 243 346 Q152 346 99 403 Q52 453 52 529 Q52 641 141 688 Q193 716 298 716 L571 716 L571 644 L522 644 L522 -175 L430 -175 L430 644 L348 644 L348 -175 L257 -175 Z " />
<glyph glyph-name="germandbls" unicode="&#xdf;" horiz-adv-x="622" d="M280 129 Q303 125 319 125 Q366 125 394 154.5 Q422 184 422 233 Q422 340 296 340 Q294 340 284 340 L280 340 L280 441 Q293 440 300 440 Q393 440 393 519 Q393 552 370.5 572.5 Q348 593 311 593 Q262 593 242 559 Q229 537 229 484 L229 0 L59 0 L59 451 Q59 570 97 626 Q163 726 317 726 Q432 726 498 666 Q556 615 556 535 Q556 437 468 396 Q527 382 561 335 Q595 288 595 219 Q595 117 524 48 Q464 -10 364 -10 Q325 -10 280 0 L280 129 Z " />
<glyph glyph-name="registered" unicode="&#xae;" horiz-adv-x="784" d="M392 683 Q485 683 567 636 Q645 590 691 511 Q738 429 738 336 Q738 244 691 162 Q646 84 567 38 Q486 -9 392 -9 Q298 -9 218 38 Q138 84 93 162 Q46 243 46 336 Q46 430 93 511 Q139 590 218 636 Q299 683 392 683 Z M392 614 Q277 614 197 533 Q115 451 115 336 Q115 222 197 141 Q278 59 392 59 Q507 59 588 141 Q669 221 669 336 Q669 452 588 533 Q508 614 392 614 Z M240 539 L410 539 Q470 539 511 499 Q552 459 552 401 Q552 331 488 299 L556 170 L512 133 L466 133 L391 280 L349 280 L349 133 L240 133 L240 539 Z M394 463 L349 463 L349 355 L393 355 Q421 355 438 373 Q449 386 449 404 Q449 431 437 447 Q423 463 394 463 Z " />
<glyph glyph-name="copyright" unicode="&#xa9;" horiz-adv-x="784" d="M392 683 Q485 683 567 636 Q645 590 691 511 Q738 429 738 336 Q738 244 691 162 Q646 84 567 38 Q486 -9 392 -9 Q298 -9 218 38 Q138 84 93 162 Q46 243 46 336 Q46 430 93 511 Q139 590 218 636 Q299 683 392 683 Z M392 614 Q277 614 197 533 Q115 451 115 336 Q115 222 197 141 Q278 59 392 59 Q507 59 588 141 Q669 221 669 336 Q669 452 588 533 Q508 614 392 614 Z M480 128 Q454 120 410 120 Q312 120 261 180 Q210 237 210 337 Q210 437 258 493 Q309 553 405 553 Q473 553 551 515 L515 433 Q463 460 412 460 Q378 460 356 438 Q324 405 324 336 Q324 252 365 224 Q385 213 412 213 Q437 213 463 218 Q499 225 529 241 L529 190 L480 128 Z " />
<glyph glyph-name="trademark" unicode="&#x2122;" horiz-adv-x="728" d="M279 673 L279 600 L187 600 L187 374 L146 341 L105 341 L105 600 L14 600 L14 673 L279 673 Z M682 673 L682 374 L641 341 L600 341 L600 582 L522 341 L451 341 L378 582 L376 582 L376 341 L297 341 L297 673 L418 673 L489 443 L565 673 L682 673 Z " />
<glyph glyph-name="acute" unicode="&#xb4;" horiz-adv-x="537" d="M444 735 L287 591 L179 591 L267 735 L444 735 Z " />
<glyph glyph-name="dieresis" unicode="&#xa8;" horiz-adv-x="537" d="M143 735 Q175 735 198 712.5 Q221 690 221 657 Q221 625 198 602 Q175 579 143 579 Q110 579 87.5 602 Q65 625 65 657 Q65 690 87.5 712.5 Q110 735 143 735 Z M335 735 Q368 735 391 712.5 Q414 690 414 657 Q414 625 391 602 Q368 579 335 579 Q303 579 280.5 602 Q258 625 258 657 Q258 690 280.5 712.5 Q303 735 335 735 Z " />
<glyph glyph-name="AE" unicode="&#xc6;" horiz-adv-x="1020" d="M971 716 L971 562 L637 562 L637 443 L949 443 L949 296 L637 296 L637 154 L980 154 L980 0 L460 0 L460 127 L240 127 L183 0 L-17 0 L319 716 L971 716 Z M460 261 L460 568 L429 568 L296 261 L460 261 Z " />
<glyph glyph-name="Oslash" unicode="&#xd8;" horiz-adv-x="777" d="M671 598 Q743 501 743 356 Q743 179 632 74 Q537 -18 393 -18 Q263 -18 174 51 L92 -39 L24 21 L110 115 Q36 216 36 358 Q36 537 147 642 Q243 734 390 734 Q517 734 608 663 L688 751 L754 691 L671 598 Z M538 462 L292 171 Q329 136 395 136 Q470 136 511.5 198 Q553 260 553 372 Q553 424 538 462 Z M242 251 L488 544 Q448 580 390 580 Q308 580 264 512 Q225 453 225 356 Q225 301 242 251 Z " />
<glyph glyph-name="plusminus" unicode="&#xb1;" horiz-adv-x="644" d="M61 319 L61 437 L264 437 L264 639 L381 639 L381 437 L584 437 L584 319 L381 319 L381 145 L264 145 L264 319 L61 319 Z M61 0 L61 117 L584 117 L584 0 L61 0 Z " />
<glyph glyph-name="lessequal" unicode="&#x2264;" horiz-adv-x="525" d="M484 628 L484 510 L197 368 L484 244 L484 125 L42 328 L42 399 L484 628 Z M482 108 L482 0 L41 0 L41 108 L482 108 Z " />
<glyph glyph-name="greaterequal" unicode="&#x2265;" horiz-adv-x="524" d="M41 628 L482 399 L482 328 L41 125 L41 244 L327 368 L41 510 L41 628 Z M482 108 L482 0 L41 0 L41 108 L482 108 Z " />
<glyph glyph-name="yen" unicode="&#xa5;" horiz-adv-x="534" d="M507 673 L362 331 L446 331 L446 245 L340 245 L340 184 L446 184 L446 97 L340 97 L340 59 L266 0 L196 0 L196 97 L87 97 L87 184 L196 184 L196 245 L87 245 L87 331 L170 331 L28 673 L165 673 L267 412 L371 673 L507 673 Z " />
<glyph glyph-name="mu" unicode="&#xb5;" horiz-adv-x="537" d="M27 -184 L27 515 L184 515 L184 252 Q184 192 197 167 Q223 121 270 121 Q354 121 354 255 L354 515 L511 515 L511 0 L354 0 L354 64 Q327 -10 267 -10 Q215 -10 184 51 L184 -184 L27 -184 Z " />
<glyph glyph-name="ordfeminine" unicode="&#xaa;" horiz-adv-x="429" d="M366 429 L261 429 Q258 441 256 453 Q218 422 163 422 Q113 422 84.5 445.5 Q56 469 56 511 Q56 564 106 586 Q118 591 152 597 Q168 600 180 602 L255 617 Q255 642 246 651 Q237 660 213 660 Q171 660 165 624 L69 624 Q73 724 213 724 Q287 724 323 698 Q354 676 354 623 Q354 615 353 582 L353 535 Q353 522 353 510 Q353 459 366 429 Z M255 560 L210 550 Q180 543 169.5 535.5 Q159 528 159 513 Q159 483 196 483 Q251 483 254 541 L255 560 Z M385 301 L44 301 L44 365 L385 365 L385 301 Z " />
<glyph glyph-name="ordmasculine" unicode="&#xba;" horiz-adv-x="429" d="M385 301 L44 301 L44 365 L385 365 L385 301 Z M215 422 Q139 422 95 469 Q56 511 56 573 Q56 640 100 682 Q144 724 214 724 Q285 724 329 682.5 Q373 641 373 574 Q373 506 329 464 Q285 422 215 422 Z M214 651 Q160 651 160 573 Q160 495 215 495 Q269 495 269 573 Q269 651 214 651 Z " />
<glyph glyph-name="ae" unicode="&#xe6;" horiz-adv-x="933" d="M897 161 Q874 75 799 27 Q733 -14 645 -14 Q512 -14 449 64 Q368 -14 221 -14 Q24 -14 24 144 Q24 206 60.5 241 Q97 276 184 297 L383 345 L383 368 Q382 426 299 426 Q219 426 210 358 L46 358 Q54 533 297 533 Q425 533 477 471 Q538 533 638 533 Q768 533 842 443 Q906 365 906 242 Q906 233 906 221 L531 221 Q534 100 636 100 Q706 100 737 161 L897 161 Z M739 312 Q730 418 636 418 Q542 418 531 312 L739 312 Z M383 254 L277 223 Q197 200 197 151 Q197 87 273 87 Q325 87 354 116 Q383 145 383 196 L383 254 Z " />
<glyph glyph-name="oslash" unicode="&#xf8;" horiz-adv-x="607" d="M95 73 Q29 153 29 260 Q29 390 115 467 Q189 533 302 533 Q391 533 457 494 L512 556 L570 506 L516 443 Q578 366 578 261 Q578 131 492 53 Q418 -14 306 -14 Q221 -14 155 24 L95 -45 L37 5 L95 73 Z M204 193 L364 395 Q363 396 360 397 Q356 400 355 401 Q330 416 304 416 Q234 416 207 341 Q196 310 196 246 Q196 212 204 193 Z M407 325 L246 121 Q268 103 306 103 Q354 103 383 144 Q411 185 411 271 Q411 298 407 325 Z " />
<glyph glyph-name="questiondown" unicode="&#xbf;" horiz-adv-x="599" d="M383 280 Q383 270 383 264 Q383 193 361 152 Q344 119 284 80 Q246 55 232.5 37.5 Q219 20 219 -5 Q219 -33 239 -51.5 Q259 -70 291 -70 Q377 -70 377 34 L377 36 L553 36 Q548 -90 469 -157 Q399 -215 287 -215 Q168 -215 97 -148 Q36 -90 36 -3 Q36 71 84 116 Q112 141 176 181 Q222 209 225 280 L383 280 Z M298 525 Q331 525 353.5 502.5 Q376 480 376 447 Q376 415 353.5 392 Q331 369 298 369 Q266 369 243 392 Q220 415 220 447 Q220 480 243 502.5 Q266 525 298 525 Z " />
<glyph glyph-name="exclamdown" unicode="&#xa1;" horiz-adv-x="360" d="M211 281 L258 -17 L258 -197 L80 -197 L80 -20 L127 281 L211 281 Z M162 516 Q194 516 217 493.5 Q240 471 240 438 Q240 406 217 383 Q194 360 162 360 Q129 360 106.5 383 Q84 406 84 438 Q84 471 106.5 493.5 Q129 516 162 516 Z " />
<glyph glyph-name="logicalnot" unicode="&#xac;" horiz-adv-x="537" d="M320 0 L320 154 L36 154 L36 316 L501 316 L501 0 L320 0 Z " />
<glyph glyph-name="florin" unicode="&#x192;" horiz-adv-x="644" d="M542 493 L524 389 L426 389 L363 24 Q345 -80 308 -121 Q259 -175 129 -175 Q99 -175 58 -173 L77 -50 Q94 -51 105 -51 Q153 -51 165.5 -35.5 Q178 -20 192 58 L250 389 L172 389 L190 493 L269 493 L286 591 Q303 687 343 728 Q394 780 510 780 Q548 780 592 778 L570 655 Q562 654 529 654 Q495 654 482 639.5 Q469 625 461 577 L446 493 L542 493 Z " />
<glyph glyph-name="guillemotleft" unicode="&#xab;" horiz-adv-x="582" d="M232 475 L295 423 L192 267 L295 110 L232 58 L174 58 L37 260 L37 273 L174 475 L232 475 Z M483 475 L546 423 L443 267 L546 110 L483 58 L425 58 L288 260 L288 273 L425 475 L483 475 Z " />
<glyph glyph-name="guillemotright" unicode="&#xbb;" horiz-adv-x="579" d="M100 475 L158 475 L295 273 L295 260 L158 58 L100 58 L37 110 L140 267 L37 423 L100 475 Z M347 475 L406 475 L542 273 L542 260 L406 58 L347 58 L285 110 L387 267 L284 423 L347 475 Z " />
<glyph glyph-name="ellipsis" unicode="&#x2026;" horiz-adv-x="703" d="M103 151 Q136 151 159 128.5 Q182 106 182 74 Q182 41 159 18 Q136 -5 103 -5 Q71 -5 48 18 Q25 41 25 74 Q25 106 48 128.5 Q71 151 103 151 Z M333 151 Q365 151 387.5 128.5 Q410 106 410 74 Q410 41 387.5 18 Q365 -5 333 -5 Q300 -5 277 18 Q254 41 254 74 Q254 106 277 128.5 Q300 151 333 151 Z M600 151 Q633 151 655.5 128.5 Q678 106 678 74 Q678 41 655 18 Q632 -5 600 -5 Q568 -5 545 18 Q522 41 522 74 Q522 106 545 128.5 Q568 151 600 151 Z " />
<glyph glyph-name="Agrave" unicode="&#xc0;" horiz-adv-x="718" d="M454 716 L722 0 L528 0 L482 131 L234 131 L188 0 L-4 0 L264 716 L454 716 Z M439 265 L405 362 Q375 450 359 523 Q339 445 310 360 L277 265 L439 265 Z M147 918 L340 918 L441 780 L319 780 L147 918 Z " />
<glyph glyph-name="Atilde" unicode="&#xc3;" horiz-adv-x="718" d="M454 716 L722 0 L528 0 L482 131 L234 131 L188 0 L-4 0 L264 716 L454 716 Z M439 265 L405 362 Q375 450 359 523 Q339 445 310 360 L277 265 L439 265 Z M556 916 Q542 849 524 825 Q493 784 448 784 Q408 784 345 808 Q302 825 287 825 Q255 825 246 782 L169 782 Q185 913 282 913 Q313 913 400 880 Q421 872 436 872 Q471 872 478 916 L556 916 Z " />
<glyph glyph-name="Otilde" unicode="&#xd5;" horiz-adv-x="777" d="M391 734 Q558 734 657 616 Q742 513 742 358 Q742 179 632 74 Q536 -18 391 -18 Q221 -18 121 100 Q35 202 35 358 Q35 537 141 638 Q243 734 391 734 Z M390 580 Q309 580 264 512 Q225 454 225 359 Q225 248 275 188 Q319 136 391 136 Q467 136 510 195.5 Q553 255 553 362 Q553 471 503 529 Q460 580 390 580 Z M589 916 Q576 849 557 825 Q526 784 481 784 Q441 784 379 808 Q335 825 320 825 Q289 825 280 782 L202 782 Q219 913 315 913 Q347 913 434 880 Q454 872 470 872 Q505 872 511 916 L589 916 Z " />
<glyph glyph-name="endash" unicode="&#x2013;" horiz-adv-x="470" d="M433 320 L433 191 L37 191 L37 320 L433 320 Z " />
<glyph glyph-name="emdash" unicode="&#x2014;" horiz-adv-x="941" d="M904 320 L904 191 L37 191 L37 320 L904 320 Z " />
<glyph glyph-name="quotedblleft" unicode="&#x201c;" horiz-adv-x="465" d="M171 716 L195 696 Q175 667 165 647 Q154 624 149 614 Q163 611 173 605 Q189 597 199 581 Q211 564 211 536 Q211 512 196 492 Q173 460 134 460 Q99 460 76.5 485 Q54 510 54 549 Q54 632 129 716 L171 716 Z M378 716 L403 696 Q382 667 372 647 Q362 624 357 614 Q418 601 418 539 Q418 506 396 483 Q374 460 341 460 Q307 460 284.5 485 Q262 510 262 549 Q262 632 336 716 L378 716 Z " />
<glyph glyph-name="quotedblright" unicode="&#x201d;" horiz-adv-x="465" d="M111 562 Q77 570 61 596 Q50 614 50 640 Q50 664 65 684 Q88 716 127 716 Q162 716 184.5 691 Q207 666 207 627 Q207 545 132 460 L91 460 L66 481 Q85 507 96 530 L100 537 Q108 553 111 562 Z M319 562 Q285 570 270 595 Q258 613 258 640 Q258 664 272 684 Q295 716 335 716 Q370 716 392.5 691 Q415 666 415 627 Q415 545 340 460 L298 460 L274 481 Q292 507 304 530 L307 537 Q315 553 319 562 Z " />
<glyph glyph-name="quoteleft" unicode="&#x2018;" horiz-adv-x="257" d="M171 716 L195 696 Q175 667 165 647 Q154 624 149 614 Q183 606 199 581 Q211 564 211 536 Q211 512 196 492 Q173 460 134 460 Q99 460 76.5 485 Q54 510 54 549 Q54 632 129 716 L171 716 Z " />
<glyph glyph-name="quoteright" unicode="&#x2019;" horiz-adv-x="257" d="M111 562 Q77 570 61 596 Q50 614 50 640 Q50 664 65 684 Q88 716 127 716 Q162 716 184.5 691 Q207 666 207 627 Q207 545 132 460 L91 460 L66 481 Q85 507 96 530 L100 537 Q108 553 111 562 Z " />
<glyph glyph-name="divide" unicode="&#xf7;" horiz-adv-x="524" d="M262 510 Q294 510 317 487 Q340 464 340 431 Q340 399 317 376.5 Q294 354 262 354 Q229 354 206.5 376.5 Q184 399 184 431 Q184 464 206.5 487 Q229 510 262 510 Z M482 300 L482 191 L41 191 L41 300 L482 300 Z M262 139 Q294 139 317 116 Q340 93 340 60 Q340 28 317 5 Q294 -18 262 -18 Q229 -18 206.5 5 Q184 28 184 60 Q184 93 206.5 116 Q229 139 262 139 Z " />
<glyph glyph-name="ydieresis" unicode="&#xff;" horiz-adv-x="539" d="M546 519 L358 -5 Q319 -113 274 -147 Q229 -181 126 -181 Q71 -181 1 -169 L28 -34 Q50 -42 85 -42 Q140 -42 155 -19 Q171 4 171 32 Q171 38 168 45 L-9 519 L172 519 L244 289 Q257 246 272 168 Q292 257 304 295 L372 519 L546 519 Z M167 743 Q200 743 222.5 720 Q245 697 245 665 Q245 632 222 609.5 Q199 587 167 587 Q135 587 112 609.5 Q89 632 89 665 Q89 697 111.5 720 Q134 743 167 743 Z M381 743 Q414 743 436.5 720 Q459 697 459 665 Q459 632 436.5 609.5 Q414 587 381 587 Q349 587 326 609.5 Q303 632 303 665 Q303 697 326 720 Q349 743 381 743 Z " />
<glyph glyph-name="fraction" unicode="&#x2044;" horiz-adv-x="571" d="M539 673 L143 0 L23 0 L419 673 L539 673 Z " />
<glyph glyph-name="currency" unicode="&#xa4;" horiz-adv-x="552" d="M114 422 L55 480 L129 553 L188 495 Q228 518 275 518 Q321 518 364 494 L422 553 L497 482 L438 423 Q461 381 461 333 Q461 286 438 243 L495 186 L422 113 L364 171 Q320 149 275 149 Q222 149 186 170 L129 114 L56 187 L114 244 Q91 287 91 333 Q91 378 114 422 Z M195 333 Q195 300 219 276 Q243 252 275 252 Q309 252 334 276 Q358 299 358 333 Q358 368 334 391 Q309 414 275 414 Q243 414 219 391 Q195 366 195 333 Z " />
<glyph glyph-name="guilsinglleft" unicode="&#x2039;" horiz-adv-x="331" d="M232 475 L295 423 L192 267 L295 110 L232 58 L174 58 L37 260 L37 273 L174 475 L232 475 Z " />
<glyph glyph-name="guilsinglright" unicode="&#x203a;" horiz-adv-x="331" d="M100 475 L158 475 L295 273 L295 260 L158 58 L100 58 L37 110 L140 267 L37 423 L100 475 Z " />
<glyph glyph-name="periodcentered" unicode="&#xb7;" horiz-adv-x="314" d="M249 439 L249 256 L64 256 L64 439 L249 439 Z " />
<glyph glyph-name="quotesinglbase" unicode="&#x201a;" horiz-adv-x="257" d="M111 -4 Q77 4 61 30 Q50 48 50 74 Q50 98 65 118 Q88 150 127 150 Q162 150 184.5 125 Q207 100 207 61 Q207 -22 132 -106 L91 -106 L66 -86 Q86 -57 96 -37 Q107 -15 111 -4 Z " />
<glyph glyph-name="quotedblbase" unicode="&#x201e;" horiz-adv-x="465" d="M111 -4 Q77 4 61 30 Q50 48 50 74 Q50 98 65 118 Q88 150 127 150 Q162 150 184.5 125 Q207 100 207 61 Q207 -22 132 -106 L91 -106 L66 -86 Q86 -57 96 -37 Q107 -15 111 -4 Z M319 -4 Q285 4 270 29 Q258 47 258 74 Q258 98 272 118 Q295 150 335 150 Q370 150 392.5 125 Q415 100 415 61 Q415 -22 340 -106 L298 -106 L274 -86 Q294 -57 304 -37 Q314 -15 319 -4 Z " />
<glyph glyph-name="Acircumflex" unicode="&#xc2;" horiz-adv-x="718" d="M454 716 L722 0 L528 0 L482 131 L234 131 L188 0 L-4 0 L264 716 L454 716 Z M439 265 L405 362 Q375 450 359 523 Q339 445 310 360 L277 265 L439 265 Z M552 780 L422 780 L357 854 L292 780 L166 780 L285 918 L434 918 L552 780 Z " />
<glyph glyph-name="Ecircumflex" unicode="&#xca;" horiz-adv-x="688" d="M639 716 L639 562 L253 562 L253 443 L606 443 L606 296 L253 296 L253 154 L648 154 L648 0 L66 0 L66 716 L639 716 Z M546 780 L416 780 L351 854 L286 780 L160 780 L279 918 L428 918 L546 780 Z " />
<glyph glyph-name="Aacute" unicode="&#xc1;" horiz-adv-x="718" d="M454 716 L722 0 L528 0 L482 131 L234 131 L188 0 L-4 0 L264 716 L454 716 Z M439 265 L405 362 Q375 450 359 523 Q339 445 310 360 L277 265 L439 265 Z M567 918 L395 780 L273 780 L375 918 L567 918 Z " />
<glyph glyph-name="Edieresis" unicode="&#xcb;" horiz-adv-x="688" d="M639 716 L639 562 L253 562 L253 443 L606 443 L606 296 L253 296 L253 154 L648 154 L648 0 L66 0 L66 716 L639 716 Z M243 929 Q275 929 298 906.5 Q321 884 321 851 Q321 819 298 796 Q275 773 243 773 Q210 773 187.5 796 Q165 819 165 851 Q165 884 187.5 906.5 Q210 929 243 929 Z M457 929 Q490 929 512.5 906.5 Q535 884 535 851 Q535 819 512.5 796 Q490 773 457 773 Q425 773 402 796 Q379 819 379 851 Q379 884 402 906.5 Q425 929 457 929 Z " />
<glyph glyph-name="Egrave" unicode="&#xc8;" horiz-adv-x="688" d="M639 716 L639 562 L253 562 L253 443 L606 443 L606 296 L253 296 L253 154 L648 154 L648 0 L66 0 L66 716 L639 716 Z M154 918 L346 918 L448 780 L325 780 L154 918 Z " />
<glyph glyph-name="Iacute" unicode="&#xcd;" horiz-adv-x="318" d="M253 716 L253 0 L66 0 L66 716 L253 716 Z M349 918 L192 780 L73 780 L160 918 L349 918 Z " />
<glyph glyph-name="Icircumflex" unicode="&#xce;" horiz-adv-x="318" d="M252 716 L252 0 L65 0 L65 716 L252 716 Z M337 780 L211 780 L157 854 L102 780 L-20 780 L85 918 L234 918 L337 780 Z " />
<glyph glyph-name="Idieresis" unicode="&#xcf;" horiz-adv-x="318" d="M253 716 L253 0 L66 0 L66 716 L253 716 Z M66 929 Q98 929 121 906.5 Q144 884 144 851 Q144 819 121 796 Q98 773 66 773 Q33 773 10.5 796 Q-12 819 -12 851 Q-12 884 10.5 906.5 Q33 929 66 929 Z M256 929 Q289 929 311.5 906.5 Q334 884 334 851 Q334 819 311 796 Q288 773 256 773 Q224 773 201 796 Q178 819 178 851 Q178 884 200.5 906.5 Q223 929 256 929 Z " />
<glyph glyph-name="Igrave" unicode="&#xcc;" horiz-adv-x="318" d="M252 716 L252 0 L65 0 L65 716 L252 716 Z M-31 918 L158 918 L245 780 L126 780 L-31 918 Z " />
<glyph glyph-name="Oacute" unicode="&#xd3;" horiz-adv-x="777" d="M391 734 Q558 734 657 616 Q742 513 742 358 Q742 179 632 74 Q536 -18 391 -18 Q221 -18 121 100 Q35 202 35 358 Q35 537 141 638 Q243 734 391 734 Z M390 580 Q309 580 264 512 Q225 454 225 359 Q225 248 275 188 Q319 136 391 136 Q467 136 510 195.5 Q553 255 553 362 Q553 471 503 529 Q460 580 390 580 Z M586 918 L414 780 L292 780 L394 918 L586 918 Z " />
<glyph glyph-name="Ocircumflex" unicode="&#xd4;" horiz-adv-x="777" d="M391 734 Q558 734 657 616 Q742 513 742 358 Q742 179 632 74 Q536 -18 391 -18 Q221 -18 121 100 Q35 202 35 358 Q35 537 141 638 Q243 734 391 734 Z M390 580 Q309 580 264 512 Q225 454 225 359 Q225 248 275 188 Q319 136 391 136 Q467 136 510 195.5 Q553 255 553 362 Q553 471 503 529 Q460 580 390 580 Z M582 780 L452 780 L387 854 L322 780 L196 780 L315 918 L464 918 L582 780 Z " />
<glyph glyph-name="Ograve" unicode="&#xd2;" horiz-adv-x="777" d="M391 734 Q558 734 657 616 Q742 513 742 358 Q742 179 632 74 Q536 -18 391 -18 Q221 -18 121 100 Q35 202 35 358 Q35 537 141 638 Q243 734 391 734 Z M390 580 Q309 580 264 512 Q225 454 225 359 Q225 248 275 188 Q319 136 391 136 Q467 136 510 195.5 Q553 255 553 362 Q553 471 503 529 Q460 580 390 580 Z M195 918 L387 918 L489 780 L366 780 L195 918 Z " />
<glyph glyph-name="Uacute" unicode="&#xda;" horiz-adv-x="733" d="M678 716 L678 290 Q678 147 619 76 Q541 -18 367 -18 Q182 -18 104 88 Q55 155 55 292 L55 716 L242 716 L242 278 Q242 203 272.5 169.5 Q303 136 371 136 Q434 136 463 169.5 Q492 203 492 278 L492 716 L678 716 Z M563 918 L392 780 L269 780 L371 918 L563 918 Z " />
<glyph glyph-name="Ucircumflex" unicode="&#xdb;" horiz-adv-x="733" d="M678 716 L678 290 Q678 147 619 76 Q541 -18 367 -18 Q182 -18 104 88 Q55 155 55 292 L55 716 L242 716 L242 278 Q242 203 272.5 169.5 Q303 136 371 136 Q434 136 463 169.5 Q492 203 492 278 L492 716 L678 716 Z M559 780 L429 780 L364 854 L299 780 L173 780 L292 918 L441 918 L559 780 Z " />
<glyph glyph-name="Ugrave" unicode="&#xd9;" horiz-adv-x="733" d="M678 716 L678 290 Q678 147 619 76 Q541 -18 367 -18 Q182 -18 104 88 Q55 155 55 292 L55 716 L242 716 L242 278 Q242 203 272.5 169.5 Q303 136 371 136 Q434 136 463 169.5 Q492 203 492 278 L492 716 L678 716 Z M169 918 L361 918 L463 780 L340 780 L169 918 Z " />
<glyph glyph-name="overscore" unicode="&#xaf;" horiz-adv-x="537" d="M433 829 L433 746 L104 746 L104 829 L433 829 Z " />
<glyph glyph-name="cedilla" unicode="&#xb8;" horiz-adv-x="537" d="M302 0 L263 -64 Q289 -59 304 -59 Q344 -59 368.5 -79.5 Q393 -100 393 -133 Q393 -174 358.5 -199.5 Q324 -225 269 -225 Q210 -225 146 -200 L166 -156 Q218 -174 252 -174 Q299 -174 299 -138 Q299 -102 255 -102 Q240 -102 217 -110 L194 -88 L251 0 L302 0 Z " />
<glyph glyph-name="brokenbar" unicode="&#xa6;" horiz-adv-x="223" d="M69 412 L69 688 L154 688 L154 412 L69 412 Z M154 304 L154 28 L69 28 L69 304 L154 304 Z " />
<glyph glyph-name="Eth" unicode="&#xd0;" horiz-adv-x="760" d="M66 716 L371 716 Q528 716 617 636 Q726 538 726 363 Q726 182 624 83 Q538 0 371 0 L66 0 L66 319 L5 319 L5 426 L66 426 L66 716 Z M253 562 L253 426 L410 426 L410 319 L253 319 L253 154 L356 154 Q444 154 485 199 Q536 254 536 357 Q536 474 467 527 Q420 562 342 562 L253 562 Z " />
<glyph glyph-name="eth" unicode="&#xf0;" horiz-adv-x="607" d="M186 622 L264 656 L223 709 L312 761 L367 699 L449 732 L487 679 L409 647 Q442 603 496 513 Q542 436 560 382 Q578 328 578 266 Q578 130 494 53 Q420 -15 306 -15 Q173 -15 96 70 Q29 144 29 259 Q29 379 104 458 Q168 525 258 525 Q308 525 353 493 Q331 551 299 601 L217 567 L186 622 Z M303 409 Q255 409 228.5 370 Q202 331 202 260 Q202 110 304 110 Q406 110 406 261 Q406 409 303 409 Z " />
<glyph glyph-name="Yacute" unicode="&#xdd;" horiz-adv-x="665" d="M690 716 L426 269 L426 0 L239 0 L239 269 L-24 716 L188 716 L271 564 Q305 502 334 426 Q369 515 402 575 L481 716 L690 716 Z M530 918 L359 780 L236 780 L338 918 L530 918 Z " />
<glyph glyph-name="yacute" unicode="&#xfd;" horiz-adv-x="539" d="M452 735 L294 591 L187 591 L274 735 L452 735 Z M546 519 L358 -5 Q319 -113 274 -147 Q229 -181 126 -181 Q71 -181 1 -169 L28 -34 Q50 -42 85 -42 Q140 -42 155 -19 Q171 4 171 32 Q171 38 168 45 L-9 519 L172 519 L244 289 Q257 246 272 168 Q292 257 304 295 L372 519 L546 519 Z " />
<glyph glyph-name="Thorn" unicode="&#xde;" horiz-adv-x="695" d="M65 716 L253 716 L253 617 L361 617 Q503 617 566 575 Q664 509 664 376 Q664 266 591 199 Q526 141 402 141 L252 141 L252 0 L65 0 L65 716 Z M252 465 L252 288 L375 288 Q482 288 482 376 Q482 465 368 465 L252 465 Z " />
<glyph glyph-name="thorn" unicode="&#xfe;" horiz-adv-x="632" d="M229 716 L229 458 Q283 533 376 533 Q484 533 547 447 Q602 372 602 256 Q602 125 533 50 Q474 -14 381 -14 Q286 -14 229 60 L229 -175 L59 -175 L59 716 L229 716 Z M327 396 Q278 396 251 359 Q224 322 224 256 Q224 191 251 154.5 Q278 118 327 118 Q429 118 429 256 Q429 396 327 396 Z " />
<glyph glyph-name="minus" unicode="&#x2212;" horiz-adv-x="534" d="M487 191 L46 191 L46 300 L487 300 L487 191 Z " />
<glyph glyph-name="multiply" unicode="&#xd7;" horiz-adv-x="451" d="M340 431 L418 354 L303 238 L420 122 L342 43 L225 160 L108 43 L30 122 L146 238 L32 354 L110 431 L225 317 L340 431 Z " />
<glyph glyph-name="onesuperior" unicode="&#xb9;" horiz-adv-x="437" d="M317 705 L317 286 L192 286 L192 539 L134 539 L84 539 L84 620 Q151 622 184 644 Q211 662 218 705 L317 705 Z " />
<glyph glyph-name="twosuperior" unicode="&#xb2;" horiz-adv-x="437" d="M402 379 L402 286 L30 286 Q30 290 30 294 Q30 363 80 410 Q113 441 219 502 Q253 522 265 536 Q277 550 277 569 Q277 616 219 616 Q155 616 152 533 L40 533 Q40 537 40 543 Q40 623 88 667.5 Q136 712 223 712 Q306 712 354 670 Q396 634 396 579 Q396 517 340 475 Q322 461 257 426 Q192 391 175 376 Q223 379 259 379 L402 379 Z " />
<glyph glyph-name="threesuperior" unicode="&#xb3;" horiz-adv-x="436" d="M39 563 Q41 634 87.5 673 Q134 712 217 712 Q301 712 348 674 Q389 642 389 591 Q389 536 336 512 Q405 488 405 419 Q405 356 353.5 318 Q302 280 217 280 Q118 280 68 328 Q27 369 27 429 Q27 433 28 442 L141 442 L141 440 Q141 437 141 436 Q141 371 213 371 Q283 371 283 420 Q283 470 207 470 Q195 470 176 469 L176 545 Q187 543 197 543 Q277 543 277 583 Q277 624 217 624 Q153 624 152 563 L39 563 Z " />
<glyph glyph-name="onehalf" unicode="&#xbd;" horiz-adv-x="874" d="M267 673 L267 313 L207 263 L147 263 L147 540 L71 485 L16 554 L170 673 L267 673 Z M675 673 L278 0 L159 0 L555 673 L675 673 Z M551 366 Q623 416 702 416 Q759 416 797 382.5 Q835 349 835 299 Q835 244 776 189 Q770 184 747 163 Q724 143 701 123 L676 101 L851 101 L851 58 L801 0 L534 0 L535 92 L591 139 Q619 163 653 192 Q667 203 672 208 Q723 257 723 286 Q723 291 722 296 Q721 301 715 309 Q713 311 712 313 Q697 327 674 327 Q655 327 615 302 Q610 299 607 297 L551 366 Z " />
<glyph glyph-name="onequarter" unicode="&#xbc;" horiz-adv-x="840" d="M267 673 L267 313 L207 263 L147 263 L147 540 L71 485 L16 554 L170 673 L267 673 Z M673 673 L277 0 L158 0 L554 673 L673 673 Z M775 406 L775 146 L823 146 L823 68 L775 68 L775 40 L720 0 L654 0 L654 68 L464 68 L464 130 L664 406 L775 406 Z M654 273 L561 146 L654 146 L654 273 Z " />
<glyph glyph-name="threequarters" unicode="&#xbe;" horiz-adv-x="865" d="M39 670 Q91 686 125 686 Q193 686 236 654.5 Q279 623 282 571 Q280 544 270 526 Q249 492 198 480 Q240 475 270 448 Q301 420 301 384 Q301 331 255 296.5 Q209 262 138 262 Q81 262 52 271 L16 311 L16 354 Q69 337 95 337 Q147 337 168 357 Q181 369 181 389 Q181 414 152 430 Q123 446 76 446 Q71 446 69 446 L69 519 L120 519 Q166 519 166 557 Q166 578 147 590.5 Q128 603 97 603 Q82 603 39 592 L39 670 Z M697 673 L301 0 L181 0 L578 673 L697 673 Z M801 406 L801 146 L849 146 L849 68 L801 68 L801 40 L746 0 L680 0 L680 68 L490 68 L490 130 L689 406 L801 406 Z M680 273 L588 146 L680 146 L680 273 Z " />
<glyph glyph-name="nbspace" unicode="&#xa0;" horiz-adv-x="268" d="" />
<glyph glyph-name="uni00AD" unicode="&#xad;" horiz-adv-x="272" d="M272 339 L272 190 L0 190 L0 339 L272 339 Z " />
<glyph glyph-name="uni02C9" unicode="&#x2c9;" horiz-adv-x="537" d="M433 704 L433 621 L104 621 L104 704 L433 704 Z " />
<glyph glyph-name="anoteleia" unicode="&#x387;" horiz-adv-x="314" d="M249 442 L249 258 L64 258 L64 442 L249 442 Z " />
<glyph glyph-name="uni060C" unicode="&#x60c;" horiz-adv-x="258" d="M150 149 Q184 141 200 115 Q211 97 211 71 Q211 47 196 27 Q173 -5 134 -5 Q99 -5 76.5 20 Q54 45 54 84 Q54 167 129 251 L171 251 L195 231 Q176 203 165 181 Q155 162 150 149 Z " />
<glyph glyph-name="uni0615" unicode="&#x615;" d="M108 833 L108 719 Q150 778 223 778 Q268 778 295 752 Q322 726 322 682 L322 636 Q322 613 305 597 Q289 581 267 581 L0 581 L0 645 L28 645 L28 833 L108 833 Z M252 686 Q252 703 241 712 Q233 721 217 721 Q190 721 162 701 Q132 680 110 645 L245 645 Q252 645 252 652 L252 686 Z " />
<glyph glyph-name="uni061B" unicode="&#x61b;" horiz-adv-x="258" d="M149 344 Q211 331 211 269 Q211 236 188.5 213 Q166 190 134 190 Q99 190 76.5 215 Q54 240 54 279 Q54 362 129 446 L171 446 L195 426 Q175 397 165 377 Q154 354 149 344 Z M134 146 Q166 146 189 123 Q212 100 212 68 Q212 35 189 12 Q166 -11 134 -11 Q101 -11 78.5 12 Q56 35 56 68 Q56 100 78.5 123 Q101 146 134 146 Z " />
<glyph glyph-name="uni061F" unicode="&#x61f;" horiz-adv-x="423" d="M211 184 L212 192 Q213 224 213 238 Q213 289 195.5 323.5 Q178 358 129 402 Q79 446 59.5 480.5 Q40 515 40 561 Q40 639 103 685 Q153 721 223 721 Q286 721 331.5 678.5 Q377 636 389 564 L284 526 Q270 596 230 596 Q192 596 192 556 Q192 528 227 490 Q283 432 303.5 391.5 Q324 351 324 297 Q324 279 322 236 L259 184 L211 184 Z M271 151 Q304 151 327 128.5 Q350 106 350 74 Q350 41 327 18 Q304 -5 271 -5 Q239 -5 216 18 Q193 41 193 74 Q193 106 216 128.5 Q239 151 271 151 Z " />
<glyph glyph-name="uni0621" unicode="&#x621;" horiz-adv-x="538" d="M166 81 Q138 99 117 138 Q91 194 91 246 Q91 358 163 416 Q224 465 320 465 Q356 465 412 453 L412 332 Q369 340 346 340 Q292 340 268.5 316 Q245 292 245 236 Q245 189 270 162.5 Q295 136 339 136 Q345 136 351 137 Q427 148 486 148 Q495 148 513 147 L517 147 L517 94 L455 17 Q389 13 321 -6 Q227 -30 130 -96 L55 22 Q112 57 166 81 Z " />
<glyph glyph-name="uni0622" unicode="&#x622;" horiz-adv-x="292" d="M-23 826 Q14 901 72 901 Q102 901 149 878 Q155 875 159 873 Q184 861 200 861 Q224 861 250 896 L294 863 Q249 795 190 795 Q153 795 111 818 Q85 831 74 831 Q53 831 17 795 L-23 826 Z M224 716 L224 38 L146 -25 L70 -25 L70 716 L224 716 Z " />
<glyph glyph-name="uni0623" unicode="&#x623;" horiz-adv-x="292" d="M84 856 Q71 885 71 907 Q71 952 97.5 980 Q124 1008 167 1008 Q195 1008 226 998 L226 935 Q202 942 189 942 Q151 942 151 899 Q151 881 158 870 Q169 856 189 856 L259 856 L259 825 L232 792 L48 792 L48 856 L84 856 Z M223 716 L223 38 L145 -25 L69 -25 L69 716 L223 716 Z " />
<glyph glyph-name="uni0624" unicode="&#x624;" horiz-adv-x="556" d="M212 595 Q200 623 200 646 Q200 690 225.5 718.5 Q251 747 293 747 Q321 747 355 737 L355 674 Q329 681 316 681 Q279 681 279 638 Q279 620 287 609 Q297 595 317 595 L387 595 L387 564 L361 531 L177 531 L177 595 L212 595 Z M341 -1 Q308 -9 279 -9 Q178 -9 111 76 Q55 146 55 235 Q55 337 117 403 Q183 472 290 472 Q371 472 426 432 Q500 380 500 285 L500 38 L500 36 Q500 -99 408 -174 Q331 -238 214 -238 L188 -236 L125 -157 L125 -104 Q128 -105 136 -106 Q162 -111 182 -111 Q267 -109 307 -67 Q331 -42 341 -1 Z M346 284 Q346 310 329 327 Q313 343 289 343 Q251 343 229 315.5 Q207 288 207 239 Q207 185 233 151.5 Q259 118 301 118 Q322 118 346 125 L346 284 Z " />
<glyph glyph-name="uni0625" unicode="&#x625;" horiz-adv-x="265" d="M224 716 L224 38 L146 -25 L69 -25 L69 716 L224 716 Z M63 -237 Q50 -207 50 -185 Q50 -141 76 -113 Q102 -85 143 -85 Q173 -85 205 -94 L205 -157 Q180 -150 168 -150 Q130 -150 130 -193 Q130 -212 137 -222 Q147 -237 168 -237 L238 -237 L238 -267 L211 -301 L27 -301 L27 -237 L63 -237 Z " />
<glyph glyph-name="uni0626" unicode="&#x626;" horiz-adv-x="822" d="M250 57 Q250 -38 296 -75 Q342 -112 462 -112 Q511 -112 539 -105 Q541 -105 546 -104 Q579 -94 595 -83 Q623 -62 623 -29 Q623 -3 605 10 Q587 23 527 42 Q433 72 390.5 123.5 Q348 175 348 258 Q348 370 422 426 Q483 472 582 472 Q646 472 699 455 L699 340 Q650 352 612 352 Q560 352 529 327 Q498 302 498 261 Q498 221 518 202 Q538 183 613 152 Q698 117 732 85 Q776 42 776 -24 Q776 -141 670 -198 Q593 -239 484 -239 L396 -239 Q286 -239 209 -191 Q96 -118 96 38 L96 112 L173 174 L250 174 L250 57 Z M105 319 Q92 348 92 370 Q92 415 118 443 Q144 471 185 471 Q214 471 247 462 L247 399 Q221 405 209 405 Q172 405 172 362 Q172 344 179 334 Q190 319 210 319 L280 319 L280 288 L253 255 L69 255 L69 319 L105 319 Z " />
<glyph glyph-name="uni0627" unicode="&#x627;" horiz-adv-x="292" d="M223 716 L223 38 L145 -25 L69 -25 L69 716 L223 716 Z " />
<glyph glyph-name="uni0628" unicode="&#x628;" horiz-adv-x="1003" d="M934 460 L934 124 Q934 78 904 44 Q867 0 810 0 L260 0 Q190 0 137 45 Q69 103 69 194 L69 325 L147 388 L223 388 L223 194 Q223 164 244 145 Q263 129 284 129 L765 129 Q780 129 780 143 L780 460 L934 460 Z M502 -46 Q534 -46 557 -69 Q580 -92 580 -125 Q580 -157 557 -180 Q534 -203 502 -203 Q469 -203 446.5 -180 Q424 -157 424 -125 Q424 -92 446.5 -69 Q469 -46 502 -46 Z " />
<glyph glyph-name="uni0629" unicode="&#x629;" horiz-adv-x="556" d="M243 680 Q275 680 298 657 Q321 634 321 602 Q321 570 298 547 Q275 524 243 524 Q210 524 187.5 547 Q165 570 165 602 Q165 635 187.5 657.5 Q210 680 243 680 Z M422 680 Q454 680 477 657 Q500 634 500 602 Q500 570 477 547 Q454 524 422 524 Q389 524 366.5 547 Q344 570 344 602 Q344 635 366.5 657.5 Q389 680 422 680 Z M500 487 L500 178 Q500 86 430 34 Q373 -9 282 -9 Q162 -9 97 78 Q55 141 55 224 Q55 336 130 410 Q197 476 292 476 Q341 476 382 454 L424 487 L500 487 Z M346 336 Q318 344 300 344 Q258 344 232 312 Q206 280 206 226 Q206 177 227 148.5 Q248 120 282 120 Q311 120 330 139 Q346 156 346 179 L346 336 Z " />
<glyph glyph-name="uni062A" unicode="&#x62a;" horiz-adv-x="1003" d="M412 487 Q445 487 467.5 464 Q490 441 490 409 Q490 376 467.5 353.5 Q445 331 412 331 Q380 331 357 353.5 Q334 376 334 409 Q334 441 357 464 Q380 487 412 487 Z M591 487 Q624 487 646.5 464 Q669 441 669 409 Q669 376 646.5 353.5 Q624 331 591 331 Q559 331 536 353.5 Q513 376 513 409 Q513 441 536 464 Q559 487 591 487 Z M934 460 L934 124 Q934 78 904 44 Q867 0 810 0 L260 0 Q190 0 137 45 Q69 103 69 194 L69 325 L147 388 L223 388 L223 194 Q223 164 244 145 Q263 129 284 129 L765 129 Q780 129 780 143 L780 460 L934 460 Z " />
<glyph glyph-name="uni062B" unicode="&#x62b;" horiz-adv-x="1003" d="M502 628 Q531 628 551.5 607 Q572 586 572 557 Q572 528 551.5 507.5 Q531 487 502 487 Q473 487 452 507.5 Q431 528 431 557 Q431 586 451.5 607 Q472 628 502 628 Z M413 487 Q445 487 468 464 Q491 441 491 409 Q491 376 468 353.5 Q445 331 413 331 Q380 331 357.5 353.5 Q335 376 335 409 Q335 441 357.5 464 Q380 487 413 487 Z M591 487 Q623 487 646 464 Q669 441 669 409 Q669 376 646 353.5 Q623 331 591 331 Q558 331 535.5 353.5 Q513 376 513 409 Q513 441 535.5 464 Q558 487 591 487 Z M934 460 L934 124 Q934 78 904 44 Q867 0 810 0 L260 0 Q190 0 137 45 Q69 103 69 194 L69 325 L147 388 L223 388 L223 194 Q223 164 244 145 Q263 129 284 129 L765 129 Q780 129 780 143 L780 460 L934 460 Z " />
<glyph glyph-name="uni062C" unicode="&#x62c;" horiz-adv-x="684" d="M192 443 Q297 473 352 473 Q469 473 551 400 Q630 325 630 226 L630 124 Q630 73 593 35 Q557 0 505 0 L335 0 Q210 0 210 -122 Q210 -249 391 -249 Q450 -249 504 -232 L504 -286 L437 -369 Q405 -378 362 -378 Q217 -378 134 -303 Q56 -232 56 -109 Q56 18 155 81 Q231 129 347 129 L461 129 Q475 129 475 143 L475 209 Q475 263 430 302 Q385 341 322 341 Q273 341 192 320 L192 443 Z M392 -46 Q424 -46 447 -69 Q470 -92 470 -125 Q470 -157 447 -180 Q424 -203 392 -203 Q359 -203 336.5 -180 Q314 -157 314 -125 Q314 -92 337 -69 Q360 -46 392 -46 Z " />
<glyph glyph-name="uni062D" unicode="&#x62d;" horiz-adv-x="715" d="M210 443 Q304 472 384 472 Q503 472 585 397 Q661 327 661 226 L661 124 Q661 73 624 35 Q587 0 537 0 L335 0 Q210 0 210 -122 Q210 -249 391 -249 Q450 -249 504 -232 L504 -285 L438 -366 Q401 -378 359 -378 Q216 -378 133 -302 Q56 -231 56 -109 Q56 18 155 81 Q231 129 347 129 L492 129 Q507 129 507 143 L507 209 Q507 265 460.5 303 Q414 341 347 341 Q292 341 210 320 L210 443 Z " />
<glyph glyph-name="uni062E" unicode="&#x62e;" horiz-adv-x="715" d="M382 680 Q414 680 437 657.5 Q460 635 460 602 Q460 569 437 546.5 Q414 524 382 524 Q349 524 326.5 547 Q304 570 304 602 Q304 634 326.5 657 Q349 680 382 680 Z M210 443 Q304 472 383 472 Q503 472 585 397 Q661 327 661 226 L661 124 Q661 73 624 35 Q587 0 537 0 L335 0 Q210 0 210 -122 Q210 -249 391 -249 Q450 -249 504 -232 L504 -285 L438 -366 Q401 -378 360 -378 Q216 -378 134 -302 Q56 -231 56 -109 Q56 18 155 80 Q231 129 347 129 L492 129 Q507 129 507 143 L507 209 Q507 265 460.5 303 Q414 341 348 341 Q291 341 210 320 L210 443 Z " />
<glyph glyph-name="uni062F" unicode="&#x62f;" horiz-adv-x="537" d="M140 466 Q166 472 212 472 Q335 472 410 395 Q477 326 477 220 L477 124 Q477 69 437 33 Q401 0 353 0 L39 0 L39 129 L309 129 Q323 129 323 143 L323 208 Q323 269 285.5 308 Q248 347 188 347 Q157 347 140 343 L140 466 Z " />
<glyph glyph-name="uni0630" unicode="&#x630;" horiz-adv-x="537" d="M220 680 Q253 680 275.5 657.5 Q298 635 298 602 Q298 569 275.5 546.5 Q253 524 220 524 Q188 524 165 547 Q142 570 142 602 Q142 634 165 657 Q188 680 220 680 Z M140 466 Q166 472 212 472 Q335 472 410 395 Q477 326 477 220 L477 124 Q477 69 437 33 Q401 0 353 0 L39 0 L39 129 L309 129 Q323 129 323 143 L323 208 Q323 269 285.5 308 Q248 347 188 347 Q157 347 140 343 L140 466 Z " />
<glyph glyph-name="uni0631" unicode="&#x631;" horiz-adv-x="433" d="M364 460 L364 38 Q364 -98 276 -170 Q225 -213 155 -230 Q120 -238 77 -238 L51 -236 L-12 -157 L-12 -104 Q-9 -105 -1 -106 Q25 -111 45 -111 Q128 -109 168 -70 Q209 -29 209 56 L209 460 L364 460 Z " />
<glyph glyph-name="uni0632" unicode="&#x632;" horiz-adv-x="434" d="M287 680 Q319 680 342 657.5 Q365 635 365 602 Q365 570 342 547 Q319 524 287 524 Q254 524 231 547 Q208 570 208 602 Q208 634 231 657 Q254 680 287 680 Z M364 460 L364 38 Q364 -95 279 -168 Q229 -211 160 -229 Q124 -238 77 -238 L51 -236 L-12 -157 L-12 -104 Q-9 -105 -1 -106 Q25 -111 45 -111 Q128 -109 168 -69 Q209 -28 209 56 L209 460 L364 460 Z " />
<glyph glyph-name="uni0633" unicode="&#x633;" horiz-adv-x="1560" d="M1491 460 L1491 124 Q1491 73 1454.5 36.5 Q1418 0 1367 0 L1142 0 L1100 47 L1097 47 Q1060 0 1000 0 L755 0 Q742 -126 646 -189 Q567 -239 457 -239 L369 -239 Q231 -239 149 -164 Q69 -91 69 38 L69 191 L147 253 L223 253 L223 57 Q223 -35 266 -72.5 Q309 -110 413 -110 Q517 -110 559 -74 Q603 -35 603 57 L603 345 L757 345 L757 129 L956 129 Q970 129 970 143 L970 403 L1124 403 L1124 171 Q1124 158 1125 129 L1322 129 Q1337 129 1337 143 L1337 460 L1491 460 Z " />
<glyph glyph-name="uni0634" unicode="&#x634;" horiz-adv-x="1560" d="M1048 821 Q1077 821 1098 800.5 Q1119 780 1119 750 Q1119 721 1098 700.5 Q1077 680 1048 680 Q1019 680 998.5 700.5 Q978 721 978 750 Q978 780 998.5 800.5 Q1019 821 1048 821 Z M959 680 Q992 680 1014.5 657.5 Q1037 635 1037 602 Q1037 570 1014.5 547 Q992 524 959 524 Q927 524 904 547 Q881 570 881 602 Q881 634 904 657 Q927 680 959 680 Z M1137 680 Q1170 680 1192.5 657 Q1215 634 1215 602 Q1215 570 1192 547 Q1169 524 1137 524 Q1105 524 1082 546.5 Q1059 569 1059 602 Q1059 635 1081.5 657.5 Q1104 680 1137 680 Z M1491 460 L1491 124 Q1491 73 1454.5 36.5 Q1418 0 1367 0 L1142 0 L1100 47 L1097 47 Q1060 0 1000 0 L755 0 Q742 -126 646 -189 Q567 -239 457 -239 L369 -239 Q231 -239 149 -164 Q69 -91 69 38 L69 191 L147 253 L223 253 L223 57 Q223 -35 266 -72.5 Q309 -110 413 -110 Q517 -110 559 -74 Q603 -35 603 57 L603 345 L757 345 L757 129 L956 129 Q970 129 970 143 L970 403 L1124 403 L1124 171 Q1124 158 1125 129 L1322 129 Q1337 129 1337 143 L1337 460 L1491 460 Z " />
<glyph glyph-name="uni0635" unicode="&#x635;" horiz-adv-x="1397" d="M757 338 Q891 473 1062 473 Q1184 473 1266 397 Q1341 328 1341 224 L1341 124 Q1341 70 1300 32 Q1264 0 1217 0 L755 0 Q742 -131 638 -194 Q562 -239 457 -239 L369 -239 Q208 -239 125 -139 Q69 -70 69 38 L69 191 L147 253 L223 253 L223 57 Q223 -35 266 -72.5 Q309 -110 413 -110 Q517 -110 559 -74 Q603 -35 603 57 L603 460 L758 460 L757 338 Z M1187 207 Q1187 263 1146 301 Q1102 341 1038 341 Q970 341 901 295 Q818 238 756 129 L1173 129 Q1187 129 1187 143 L1187 207 Z " />
<glyph glyph-name="uni0636" unicode="&#x636;" horiz-adv-x="1397" d="M992 680 Q1025 680 1047.5 657.5 Q1070 635 1070 602 Q1070 570 1047.5 547 Q1025 524 992 524 Q960 524 937 547 Q914 570 914 602 Q914 634 937 657 Q960 680 992 680 Z M757 338 Q891 473 1062 473 Q1184 473 1266 397 Q1341 328 1341 224 L1341 124 Q1341 70 1300 32 Q1264 0 1217 0 L755 0 Q742 -131 638 -194 Q562 -239 457 -239 L369 -239 Q208 -239 125 -139 Q69 -70 69 38 L69 191 L147 253 L223 253 L223 57 Q223 -35 266 -72.5 Q309 -110 413 -110 Q517 -110 559 -74 Q603 -35 603 57 L603 460 L758 460 L757 338 Z M1187 207 Q1187 263 1146 301 Q1102 341 1038 341 Q970 341 901 295 Q818 238 756 129 L1173 129 Q1187 129 1187 143 L1187 207 Z " />
<glyph glyph-name="uni0637" unicode="&#x637;" horiz-adv-x="964" d="M324 716 L324 337 Q450 473 623 473 Q749 473 831 400 Q908 331 908 224 L908 124 Q908 75 875 40 Q837 0 784 0 L118 0 L55 78 L55 129 L170 129 L170 716 L324 716 Z M754 207 Q754 270 705 307 Q663 341 605 341 Q545 341 485 307 Q388 251 323 129 L740 129 Q754 129 754 143 L754 207 Z " />
<glyph glyph-name="uni0638" unicode="&#x638;" horiz-adv-x="964" d="M324 716 L324 337 Q450 473 623 473 Q749 473 831 400 Q908 331 908 224 L908 124 Q908 75 875 40 Q837 0 784 0 L118 0 L55 78 L55 129 L170 129 L170 716 L324 716 Z M560 680 Q592 680 614.5 657.5 Q637 635 637 602 Q637 570 614.5 547 Q592 524 560 524 Q527 524 504 547 Q481 570 481 602 Q481 634 504 657 Q527 680 560 680 Z M754 207 Q754 270 705 307 Q663 341 605 341 Q545 341 485 307 Q388 251 323 129 L740 129 Q754 129 754 143 L754 207 Z " />
<glyph glyph-name="uni0639" unicode="&#x639;" horiz-adv-x="601" d="M169 90 Q136 134 124 168 Q110 207 110 252 Q111 360 192 421 Q259 472 353 472 Q425 472 479 455 L479 333 Q421 344 379 344 Q317 344 290.5 319 Q264 294 264 236 Q264 129 374 129 L561 129 L561 78 L498 0 L335 0 Q266 -5 238 -32.5 Q210 -60 210 -122 Q210 -249 391 -249 Q450 -249 504 -232 L504 -286 L439 -366 Q402 -378 359 -378 Q216 -378 133 -302 Q56 -231 56 -109 Q56 27 169 90 Z " />
<glyph glyph-name="uni063A" unicode="&#x63a;" horiz-adv-x="601" d="M334 680 Q366 680 388.5 657.5 Q411 635 411 602 Q411 569 388.5 546.5 Q366 524 334 524 Q301 524 278 547 Q255 570 255 602 Q255 635 278 657.5 Q301 680 334 680 Z M169 90 Q136 134 124 168 Q110 207 110 252 Q111 360 192 422 Q259 472 354 472 Q425 472 479 455 L479 333 Q420 344 379 344 Q317 344 290.5 319 Q264 294 264 236 Q264 129 374 129 L561 129 L561 78 L498 0 L335 0 Q266 -5 238 -32.5 Q210 -60 210 -122 Q210 -249 391 -249 Q450 -249 504 -232 L504 -286 L439 -366 Q402 -378 360 -378 Q216 -378 134 -302 Q56 -231 56 -109 Q56 27 169 90 Z " />
<glyph glyph-name="uni0640" unicode="&#x640;" horiz-adv-x="178" d="M181 129 L181 0 L-4 0 L-4 129 L181 129 Z " />
<glyph glyph-name="uni0641" unicode="&#x641;" horiz-adv-x="1035" d="M769 680 Q802 680 824.5 657.5 Q847 635 847 602 Q847 569 824.5 546.5 Q802 524 769 524 Q737 524 714 547 Q691 570 691 602 Q691 634 714 657 Q737 680 769 680 Z M563 129 Q536 188 536 252 Q536 354 612 417 Q677 472 769 472 Q864 472 924 418 Q980 368 980 286 L980 285 L980 124 Q980 71 942 35 Q906 0 856 0 L260 0 Q178 0 122 58 Q69 115 69 194 L69 325 L147 388 L223 388 L223 194 Q223 172 236 153 Q255 129 284 129 L563 129 Z M826 284 Q826 309 809 326 Q792 343 768 343 Q732 343 709.5 314 Q687 285 687 238 Q687 129 790 129 L812 129 Q826 129 826 143 L826 284 Z " />
<glyph glyph-name="uni0642" unicode="&#x642;" horiz-adv-x="812" d="M456 680 Q489 680 511.5 657.5 Q534 635 534 602 Q534 570 511.5 547 Q489 524 456 524 Q424 524 401 547 Q378 570 378 602 Q378 634 401 657 Q424 680 456 680 Z M635 680 Q668 680 690.5 657.5 Q713 635 713 602 Q713 570 690.5 547 Q668 524 635 524 Q603 524 580 547 Q557 570 557 602 Q557 634 580 657 Q603 680 635 680 Z M598 -1 Q563 -9 531 -9 Q449 -9 388 53 Q312 130 312 235 Q312 362 401 428 Q463 472 547 472 Q623 472 678 436 Q757 383 757 285 L757 38 Q757 -117 646 -191 Q567 -239 457 -239 L369 -239 Q228 -239 144 -160 Q69 -88 69 38 L69 122 L147 185 L223 185 L223 57 Q223 -34 266 -72 Q309 -110 413 -110 Q501 -110 542 -85.5 Q583 -61 598 -1 Z M603 284 Q603 308 589 324 Q572 343 546 343 Q509 343 487 316 Q464 287 464 239 Q464 186 490.5 152 Q517 118 559 118 Q578 118 603 125 L603 284 Z " />
<glyph glyph-name="uni0643" unicode="&#x643;" horiz-adv-x="1003" d="M934 716 L934 124 Q934 69 892 31 Q857 0 810 0 L260 0 Q180 0 126 56 Q69 112 69 194 L69 325 L147 388 L223 388 L223 194 Q223 167 241 147 Q259 129 284 129 L765 129 Q773 129 777 134 Q780 138 780 143 L780 716 L934 716 Z M423 388 Q413 406 408 427 Q405 438 404 454 Q404 455 404 456 Q404 513 439.5 545.5 Q475 578 536 578 Q568 578 596 571 L596 503 Q574 509 555 509 Q496 509 496 453 L496 450 Q496 429 505 414 Q521 388 561 388 L650 388 L650 359 L614 314 L353 314 L353 388 L423 388 Z " />
<glyph glyph-name="uni0644" unicode="&#x644;" horiz-adv-x="826" d="M757 716 L757 38 Q757 -82 688 -155 Q604 -239 457 -239 L369 -239 Q230 -239 148 -163 Q69 -89 69 38 L69 191 L147 253 L223 253 L223 57 Q223 -35 266 -72.5 Q309 -110 413 -110 Q517 -110 559 -74 Q603 -36 603 57 L603 716 L757 716 Z " />
<glyph glyph-name="uni0645" unicode="&#x645;" horiz-adv-x="632" d="M163 129 Q132 190 132 255 Q132 357 208 419 Q273 472 367 472 Q487 472 544 392 Q577 345 577 285 L577 124 Q577 65 531 27 Q497 0 453 0 L223 0 Q209 0 209 -14 L209 -311 L131 -373 L55 -373 L55 6 Q55 56 88.5 92.5 Q122 129 168 129 L163 129 Z M423 284 Q423 319 396 336 Q383 343 367 343 Q284 343 284 238 Q284 129 396 129 L409 129 Q423 129 423 143 L423 284 Z " />
<glyph glyph-name="uni0646" unicode="&#x646;" horiz-adv-x="826" d="M410 472 Q443 472 465.5 449.5 Q488 427 488 394 Q488 361 465 338.5 Q442 316 410 316 Q378 316 355 339 Q332 362 332 394 Q332 426 354.5 449 Q377 472 410 472 Z M757 460 L757 38 Q757 -90 678 -164 Q595 -239 457 -239 L369 -239 Q215 -239 133 -148 Q69 -76 69 38 L69 191 L147 253 L223 253 L223 57 Q223 -46 279 -83 Q321 -110 413 -110 Q518 -110 560 -73 Q603 -35 603 57 L603 460 L757 460 Z " />
<glyph glyph-name="uni0647" unicode="&#x647;" horiz-adv-x="556" d="M500 487 L500 178 Q500 86 430 34 Q373 -9 282 -9 Q162 -9 97 78 Q55 141 55 224 Q55 336 130 410 Q197 476 292 476 Q341 476 382 454 L424 487 L500 487 Z M346 336 Q318 344 300 344 Q258 344 232 312 Q206 280 206 226 Q206 177 227 148.5 Q248 120 282 120 Q311 120 330 139 Q346 156 346 179 L346 336 Z " />
<glyph glyph-name="uni0648" unicode="&#x648;" horiz-adv-x="556" d="M341 -1 Q308 -9 279 -9 Q178 -9 111 76 Q55 146 55 235 Q55 337 117 403 Q183 472 290 472 Q371 472 426 432 Q500 380 500 285 L500 38 L500 36 Q500 -99 408 -174 Q331 -238 214 -238 L188 -236 L125 -157 L125 -104 Q128 -105 136 -106 Q162 -111 182 -111 Q267 -109 307 -67 Q331 -42 341 -1 Z M346 284 Q346 310 329 327 Q313 343 289 343 Q251 343 229 315.5 Q207 288 207 239 Q207 185 233 151.5 Q259 118 301 118 Q322 118 346 125 L346 284 Z " />
<glyph glyph-name="uni0649" unicode="&#x649;" horiz-adv-x="795" d="M223 57 Q223 -38 269.5 -75 Q316 -112 435 -112 Q596 -112 596 -28 Q596 -3 578.5 10 Q561 23 501 42 Q407 72 364.5 123 Q322 174 322 258 Q322 369 396 426 Q456 472 555 472 Q619 472 673 455 L673 340 Q623 352 586 352 Q534 352 502.5 327 Q471 302 471 261 Q471 222 491.5 202.5 Q512 183 586 153 Q671 117 705 85 Q750 42 750 -24 Q750 -142 643 -199 Q567 -239 457 -239 L369 -239 Q260 -239 182 -191 Q69 -118 69 38 L69 112 L147 174 L223 174 L223 57 Z " />
<glyph glyph-name="uni064A" unicode="&#x64a;" horiz-adv-x="795" d="M223 57 Q223 -38 269.5 -75 Q316 -112 435 -112 Q596 -112 596 -28 Q596 -3 577.5 10.5 Q559 24 498 43 Q406 72 364 123.5 Q322 175 322 258 Q322 369 396 426 Q456 472 555 472 Q619 472 673 455 L673 340 Q623 352 586 352 Q534 352 502.5 327 Q471 302 471 261 Q471 221 491.5 202 Q512 183 586 152 Q671 117 705 85 Q750 42 750 -24 Q750 -142 643 -199 Q567 -239 457 -239 L369 -239 Q260 -239 182 -191 Q69 -118 69 38 L69 112 L147 174 L223 174 L223 57 Z M318 -297 Q350 -297 373 -320 Q396 -343 396 -376 Q396 -408 373 -430.5 Q350 -453 318 -453 Q285 -453 262.5 -430.5 Q240 -408 240 -376 Q240 -343 262.5 -320 Q285 -297 318 -297 Z M497 -297 Q529 -297 552 -320 Q575 -343 575 -376 Q575 -408 552 -430.5 Q529 -453 497 -453 Q464 -453 441.5 -430.5 Q419 -408 419 -376 Q419 -343 441.5 -320 Q464 -297 497 -297 Z " />
<glyph glyph-name="uni064B" unicode="&#x64b;" d="M233 691 L20 632 L0 657 L0 688 L233 752 L233 691 Z M233 582 L20 523 L0 547 L0 578 L233 643 L233 582 Z " />
<glyph glyph-name="uni064C" unicode="&#x64c;" d="M215 609 Q184 632 184 674 Q184 709 208.5 732.5 Q233 756 268 756 Q303 756 325.5 732 Q348 708 348 673 Q348 624 307 588.5 Q266 553 210 553 Q144 553 97 599 L49 555 L26 555 L0 578 L110 674 Q152 608 208 608 Q212 608 215 609 Z M267 632 Q295 648 295 673 Q295 708 267 708 Q238 708 238 677 Q238 643 267 632 Z " />
<glyph glyph-name="uni064D" unicode="&#x64d;" d="M233 -149 L20 -208 L0 -183 L0 -153 L233 -88 L233 -149 Z M233 -259 L20 -317 L0 -293 L0 -262 L233 -198 L233 -259 Z " />
<glyph glyph-name="uni064E" unicode="&#x64e;" d="M233 612 L20 554 L0 578 L0 609 L233 673 L233 612 Z " />
<glyph glyph-name="uni064F" unicode="&#x64f;" d="M106 616 Q84 641 84 672 Q84 707 108 731 Q132 755 167 755 Q202 755 224.5 731 Q247 707 247 670 Q247 592 133 562 L20 532 L0 556 L0 587 L106 616 Z M166 632 Q194 647 194 673 Q194 707 166 707 Q137 707 137 676 Q137 642 166 632 Z " />
<glyph glyph-name="uni0650" unicode="&#x650;" d="M233 -185 L20 -243 L0 -219 L0 -188 L233 -123 L233 -185 Z " />
<glyph glyph-name="uni0651" unicode="&#x651;" d="M299 718 L299 593 Q299 577 287 560 Q271 542 248 542 L190 542 L171 562 L170 562 Q164 555 155 549 Q143 542 128 542 L51 542 Q27 542 12 561 Q0 577 0 593 L0 668 L32 694 L64 694 L64 601 Q64 598 66 596 Q68 594 71 594 L109 594 Q114 594 115 596 Q118 597 118 603 L118 694 L181 694 L181 594 L228 594 Q231 594 233 596 Q235 597 235 601 L235 718 L299 718 Z " />
<glyph glyph-name="uni0652" unicode="&#x652;" d="M82 695 Q116 695 139.5 670.5 Q163 646 163 612 Q163 577 141 556 Q119 535 82 535 Q45 535 22.5 556 Q0 577 0 612 Q0 646 24 670.5 Q48 695 82 695 Z M82 582 Q112 582 112 615 Q112 647 82 647 Q51 647 51 615 Q51 582 82 582 Z " />
<glyph glyph-name="uni0653" unicode="&#x653;" d="M23 611 Q60 687 118 687 Q146 687 195 664 Q201 661 205 659 Q231 647 245 647 Q269 647 296 682 L340 648 Q294 581 236 581 Q199 581 156 604 Q131 617 119 617 Q99 617 62 581 L23 611 Z " />
<glyph glyph-name="uni0654" unicode="&#x654;" d="M36 652 Q24 680 24 703 Q24 748 50 776 Q76 804 117 804 Q146 804 179 795 L179 732 Q154 738 140 738 Q104 738 104 695 Q104 677 111 667 Q122 652 142 652 L212 652 L212 621 L185 588 L1 588 L1 652 L36 652 Z " />
<glyph glyph-name="uni0655" unicode="&#x655;" d="M36 -228 Q23 -201 23 -176 Q23 -131 49.5 -103.5 Q76 -76 118 -76 Q147 -76 179 -85 L179 -148 Q154 -141 140 -141 Q103 -141 103 -184 Q103 -202 111 -213 Q121 -228 141 -228 L211 -228 L211 -259 L184 -292 L0 -292 L0 -228 L36 -228 Z " />
<glyph glyph-name="uni0656" unicode="&#x656;" d="M0 -82 L64 -82 L64 -266 L32 -291 L0 -291 L0 -82 Z " />
<glyph glyph-name="uni0657" unicode="&#x657;" d="M98 633 Q160 620 160 558 Q160 525 137.5 502 Q115 479 83 479 Q48 479 25.5 504 Q3 529 3 568 Q3 651 78 735 L120 735 L144 715 Q124 686 114 666 Q103 643 98 633 Z " />
<glyph glyph-name="uni0658" unicode="&#x658;" d="M64 694 L64 591 Q64 551 123 551 Q181 551 181 591 L181 751 L245 751 L245 590 Q245 497 123 497 Q58 497 29 520.5 Q0 544 0 597 L0 669 L31 694 L64 694 Z " />
<glyph glyph-name="uni0660" unicode="&#x660;" horiz-adv-x="351" d="M183 396 L307 274 L307 217 L185 94 L32 244 L183 396 Z " />
<glyph glyph-name="uni0661" unicode="&#x661;" horiz-adv-x="338" d="M246 674 L246 63 L168 0 L92 0 L92 674 L246 674 Z " />
<glyph glyph-name="uni0662" unicode="&#x662;" horiz-adv-x="561" d="M92 460 Q92 577 159 636 Q217 686 317 686 Q416 686 492 649 L492 525 Q419 552 362 552 Q246 552 246 447 L246 63 L168 0 L92 0 L92 460 Z " />
<glyph glyph-name="uni0663" unicode="&#x663;" horiz-adv-x="773" d="M246 674 L246 434 Q277 426 301 426 Q334 426 345 437 Q355 448 355 480 L355 674 L483 674 L483 472 Q483 458 481 442 Q480 439 480 437 Q520 427 537 427 Q568 427 580 438 Q591 449 591 482 L591 674 L718 674 L718 476 Q718 426 705 390 Q693 359 666 336 Q621 298 544 298 Q457 298 409 325 Q363 298 310 298 Q295 298 259 302 Q251 303 246 304 L246 63 L168 0 L92 0 L92 674 L246 674 Z " />
<glyph glyph-name="uni0664" unicode="&#x664;" horiz-adv-x="550" d="M164 349 Q87 400 87 488 Q87 590 158 643 Q216 686 309 686 Q374 686 442 660 L442 534 Q382 552 335 552 Q290 552 262.5 532.5 Q235 513 235 481 Q235 458 253 442.5 Q271 427 297 427 L431 427 L431 377 L369 298 Q287 298 249 270 Q218 248 218 204 Q218 175 235 157 Q262 129 324 129 L485 129 L485 79 L423 0 L285 0 Q183 0 122 57 Q64 111 64 196 Q64 248 93 289 Q119 327 164 349 Z " />
<glyph glyph-name="uni0665" unicode="&#x665;" horiz-adv-x="581" d="M329 587 Q436 555 495 436 Q542 344 542 240 Q542 114 469 48 Q405 -9 295 -9 Q169 -9 104 65 Q48 129 48 238 Q48 362 106 460 Q162 557 256 587 L329 587 Z M295 465 Q254 446 225 371 Q201 307 200 250 Q200 189 219 158 Q242 120 295 120 Q389 120 389 254 Q389 317 359.5 383 Q330 449 295 465 Z " />
<glyph glyph-name="uni0666" unicode="&#x666;" horiz-adv-x="561" d="M69 649 Q145 686 244 686 Q359 686 417 621 Q469 563 469 460 L469 63 L391 0 L315 0 L315 447 Q315 552 199 552 Q142 552 69 525 L69 649 Z " />
<glyph glyph-name="uni0667" unicode="&#x667;" horiz-adv-x="592" d="M562 673 L429 124 Q420 84 405 58 Q382 15 345 -1 Q338 -5 333 -5 L256 -5 Q251 -5 245 -1 Q211 13 189 52 Q173 81 163 124 L30 673 L183 673 L296 167 L409 673 L562 673 Z " />
<glyph glyph-name="uni0668" unicode="&#x668;" horiz-adv-x="592" d="M256 679 L333 679 Q335 678 339 677 Q343 676 345 675 Q369 666 386 646 Q414 614 429 550 L562 0 L409 0 L296 507 L183 0 L30 0 L163 550 Q174 596 192 626 Q212 661 245 675 Q247 676 252 678 Q255 678 256 679 Z " />
<glyph glyph-name="uni0669" unicode="&#x669;" horiz-adv-x="542" d="M266 264 Q160 264 99 324 Q46 378 46 469 Q46 563 102 623 Q161 686 258 686 Q332 686 385 654 Q469 602 469 502 L469 63 L391 0 L314 0 L314 264 L266 264 Z M314 500 Q314 525 297 542 Q282 559 258 559 Q227 559 207.5 536.5 Q188 514 188 479 Q188 431 212.5 411 Q237 391 295 391 L314 391 L314 500 Z " />
<glyph glyph-name="uni066A" unicode="&#x66a;" horiz-adv-x="603" d="M131 688 L228 592 L228 547 L133 451 L13 568 L131 688 Z M567 673 L170 0 L51 0 L447 673 L567 673 Z M479 238 L576 142 L576 97 L481 0 L361 118 L479 238 Z " />
<glyph glyph-name="uni066B" unicode="&#x66b;" horiz-adv-x="257" d="M111 -4 Q77 4 61 30 Q50 48 50 74 Q50 98 65 118 Q88 150 127 150 Q162 150 184.5 125 Q207 100 207 61 Q207 -22 132 -106 L91 -106 L66 -86 Q86 -57 96 -37 Q107 -15 111 -4 Z " />
<glyph glyph-name="uni066C" unicode="&#x66c;" horiz-adv-x="257" d="M171 251 L195 231 Q174 200 165 181 Q155 163 149 149 Q184 141 199 116 Q211 98 211 71 Q211 46 196 27 Q173 -5 134 -5 Q99 -5 76.5 20 Q54 45 54 84 Q54 167 129 251 L171 251 Z " />
<glyph glyph-name="uni066D" unicode="&#x66d;" horiz-adv-x="517" d="M324 682 L324 551 L436 599 L475 475 L351 446 L430 341 L325 265 L258 368 L192 265 L85 341 L165 446 L41 475 L80 599 L192 551 L192 628 L259 682 L324 682 Z " />
<glyph glyph-name="uni066E" unicode="&#x66e;" horiz-adv-x="1003" d="M934 460 L934 124 Q934 78 904 44 Q867 0 810 0 L260 0 Q190 0 137 45 Q69 103 69 194 L69 325 L147 388 L223 388 L223 194 Q223 164 244 145 Q263 129 284 129 L765 129 Q780 129 780 143 L780 460 L934 460 Z " />
<glyph glyph-name="uni066F" unicode="&#x66f;" horiz-adv-x="812" d="M598 -1 Q563 -9 531 -9 Q449 -9 388 53 Q312 130 312 235 Q312 362 401 428 Q463 472 547 472 Q623 472 678 436 Q757 383 757 285 L757 38 Q757 -117 646 -191 Q567 -239 457 -239 L369 -239 Q228 -239 144 -160 Q69 -88 69 38 L69 122 L147 185 L223 185 L223 57 Q223 -34 266 -72 Q309 -110 413 -110 Q501 -110 542 -85.5 Q583 -61 598 -1 Z M603 284 Q603 308 589 324 Q572 343 546 343 Q509 343 487 316 Q464 287 464 239 Q464 186 490.5 152 Q517 118 559 118 Q578 118 603 125 L603 284 Z " />
<glyph glyph-name="uni0670" unicode="&#x670;" d="M0 742 L64 742 L64 559 L32 533 L0 533 L0 742 Z " />
<glyph glyph-name="uni0671" unicode="&#x671;" horiz-adv-x="292" d="M104 886 Q160 961 225 961 Q262 961 288 939 Q314 917 314 885 Q314 846 281 820.5 Q248 795 198 795 Q161 795 107 813 Q70 826 60 826 Q41 826 3 790 L-36 820 Q1 895 60 895 Q82 895 104 886 Z M164 866 Q194 856 215 856 Q256 856 256 882 Q256 907 228 907 Q197 907 164 866 Z M223 716 L223 38 L145 -25 L69 -25 L69 716 L223 716 Z " />
<glyph glyph-name="uni0674" unicode="&#x674;" d="M36 652 Q24 680 24 703 Q24 748 50 776 Q76 804 117 804 Q146 804 179 795 L179 732 Q154 738 140 738 Q104 738 104 695 Q104 677 111 667 Q122 652 142 652 L212 652 L212 621 L185 588 L1 588 L1 652 L36 652 Z " />
<glyph glyph-name="uni0679" unicode="&#x679;" horiz-adv-x="1049" d="M460 640 L459 526 Q501 585 573 585 Q619 585 646 559 Q673 533 673 489 L673 443 Q673 420 656 404 Q639 388 618 388 L351 388 L351 452 L379 452 L379 640 L460 640 Z M603 493 Q603 510 592 519 Q583 528 568 528 Q541 528 513 508 Q483 488 461 452 L596 452 Q603 452 603 459 L603 493 Z M934 460 L934 124 Q934 78 905 44 Q867 0 810 0 L260 0 Q190 0 137 45 Q69 103 69 194 L69 325 L147 388 L223 388 L223 194 Q223 165 244 145 Q263 129 284 129 L765 129 Q780 129 780 143 L780 460 L934 460 Z " />
<glyph glyph-name="uni067E" unicode="&#x67e;" horiz-adv-x="1003" d="M934 460 L934 124 Q934 78 904 44 Q867 0 810 0 L260 0 Q190 0 137 45 Q69 103 69 194 L69 325 L147 388 L223 388 L223 194 Q223 164 244 145 Q263 129 284 129 L765 129 Q780 129 780 143 L780 460 L934 460 Z M413 -46 Q445 -46 468 -69 Q491 -92 491 -124 Q491 -157 468 -180 Q445 -203 413 -203 Q380 -203 357.5 -180 Q335 -157 335 -124 Q335 -92 357.5 -69 Q380 -46 413 -46 Z M591 -46 Q623 -46 646 -69 Q669 -92 669 -124 Q669 -157 646 -180 Q623 -203 591 -203 Q559 -203 536 -180 Q513 -157 513 -124 Q513 -92 535.5 -69 Q558 -46 591 -46 Z M502 -203 Q531 -203 552 -223.5 Q573 -244 573 -273 Q573 -302 552 -322.5 Q531 -343 502 -343 Q473 -343 452 -322.5 Q431 -302 431 -273 Q431 -244 452 -223.5 Q473 -203 502 -203 Z " />
<glyph glyph-name="uni0686" unicode="&#x686;" horiz-adv-x="715" d="M209 443 Q303 472 383 472 Q502 472 584 397 Q660 327 660 226 L660 124 Q660 75 626 39 Q589 0 536 0 L334 0 Q272 -4 245 -27 Q209 -57 209 -121 Q209 -180 245 -218 Q281 -256 336 -256 Q349 -256 362 -253 L362 -296 L295 -378 Q183 -378 118 -300 Q55 -225 55 -123 Q55 2 131 64 Q210 129 346 129 L491 129 Q506 129 506 143 L506 209 Q506 265 459.5 303 Q413 341 346 341 Q290 341 209 320 L209 443 Z M393 -46 Q426 -46 449 -69 Q472 -92 472 -124 Q472 -157 449 -179.5 Q426 -202 393 -202 Q361 -202 338.5 -179.5 Q316 -157 316 -124 Q316 -92 338.5 -69 Q361 -46 393 -46 Z M571 -46 Q604 -46 626.5 -69 Q649 -92 649 -124 Q649 -157 626.5 -179.5 Q604 -202 571 -202 Q539 -202 516 -179.5 Q493 -157 493 -124 Q493 -92 516 -69 Q539 -46 571 -46 Z M483 -202 Q512 -202 532.5 -223 Q553 -244 553 -273 Q553 -302 532.5 -322.5 Q512 -343 483 -343 Q453 -343 432.5 -322.5 Q412 -302 412 -273 Q412 -244 432.5 -223 Q453 -202 483 -202 Z " />
<glyph glyph-name="uni0688" unicode="&#x688;" horiz-adv-x="537" d="M221 777 L221 663 Q262 721 336 721 Q381 721 407.5 695 Q434 669 434 625 L434 580 Q434 557 417 540 Q401 524 380 524 L113 524 L113 588 L140 588 L140 777 L221 777 Z M364 630 Q364 664 328 664 Q270 664 224 588 L358 588 Q364 588 364 595 L364 630 Z M140 466 Q166 472 212 472 Q335 472 410 395 Q477 326 477 220 L477 124 Q477 69 437 33 Q401 0 353 0 L39 0 L39 129 L309 129 Q323 129 323 143 L323 208 Q323 269 285.5 308 Q248 347 188 347 Q157 347 140 343 L140 466 Z " />
<glyph glyph-name="uni0691" unicode="&#x691;" horiz-adv-x="433" d="M151 776 L150 662 Q190 721 264 721 Q310 721 336.5 695 Q363 669 363 625 L363 579 Q363 556 346 539 Q330 524 308 524 L41 524 L41 588 L69 588 L69 776 L151 776 Z M293 629 Q293 664 260 664 Q202 664 152 588 L286 588 Q293 588 293 595 L293 629 Z M365 460 L365 38 Q365 -94 282 -166 Q231 -212 158 -229 Q123 -238 78 -238 L52 -236 L-11 -157 L-11 -104 Q-8 -105 0 -106 Q26 -111 46 -111 Q129 -109 169 -69 Q210 -29 210 56 L210 460 L365 460 Z " />
<glyph glyph-name="uni0698" unicode="&#x698;" horiz-adv-x="433" d="M218 821 Q248 821 268.5 800.5 Q289 780 289 750 Q289 721 268 700.5 Q247 680 218 680 Q189 680 168.5 700.5 Q148 721 148 750 Q148 780 168.5 800.5 Q189 821 218 821 Z M129 680 Q162 680 184.5 657.5 Q207 635 207 602 Q207 570 184.5 547 Q162 524 129 524 Q97 524 74 547 Q51 570 51 602 Q51 635 74 657.5 Q97 680 129 680 Z M307 680 Q340 680 362.5 657.5 Q385 635 385 602 Q385 570 362.5 547 Q340 524 307 524 Q275 524 252 547 Q229 570 229 602 Q229 635 252 657.5 Q275 680 307 680 Z M365 460 L365 38 Q365 -94 281 -167 Q231 -212 157 -230 Q121 -238 78 -238 L52 -236 L-11 -157 L-11 -104 Q-8 -105 0 -106 Q26 -111 46 -111 Q132 -109 172 -66 Q210 -26 210 56 L210 460 L365 460 Z " />
<glyph glyph-name="uni06A1" unicode="&#x6a1;" horiz-adv-x="1035" d="M563 129 Q536 188 536 252 Q536 354 612 417 Q677 472 769 472 Q864 472 924 418 Q980 368 980 286 L980 285 L980 124 Q980 71 942 35 Q906 0 856 0 L260 0 Q178 0 122 58 Q69 115 69 194 L69 325 L147 388 L223 388 L223 194 Q223 172 236 153 Q255 129 284 129 L563 129 Z M826 284 Q826 309 809 326 Q792 343 768 343 Q732 343 709.5 314 Q687 285 687 238 Q687 129 790 129 L812 129 Q826 129 826 143 L826 284 Z " />
<glyph glyph-name="uni06A4" unicode="&#x6a4;" horiz-adv-x="1035" d="M769 821 Q798 821 818.5 800.5 Q839 780 839 750 Q839 721 818.5 700.5 Q798 680 769 680 Q739 680 718.5 700.5 Q698 721 698 750 Q698 780 718.5 800.5 Q739 821 769 821 Z M680 680 Q712 680 735 657.5 Q758 635 758 602 Q758 570 735 547 Q712 524 680 524 Q647 524 624.5 547 Q602 570 602 602 Q602 634 624.5 657 Q647 680 680 680 Z M858 680 Q890 680 913 657 Q936 634 936 602 Q936 570 913 547 Q890 524 858 524 Q825 524 802.5 547 Q780 570 780 602 Q780 635 802.5 657.5 Q825 680 858 680 Z M563 129 Q536 188 536 252 Q536 354 612 417 Q677 472 769 472 Q864 472 924 418 Q980 368 980 286 L980 285 L980 124 Q980 71 942 35 Q906 0 856 0 L260 0 Q178 0 122 58 Q69 115 69 194 L69 325 L147 388 L223 388 L223 194 Q223 172 236 153 Q255 129 284 129 L563 129 Z M826 284 Q826 309 809 326 Q792 343 768 343 Q732 343 709.5 314 Q687 285 687 238 Q687 129 790 129 L812 129 Q826 129 826 143 L826 284 Z " />
<glyph glyph-name="uni06A9" unicode="&#x6a9;" horiz-adv-x="989" d="M874 731 L874 586 L701 478 Q806 428 867 342 Q928 249 934 124 Q934 77 903 42 Q865 0 809 0 L260 0 Q196 0 145 38 Q69 96 69 194 L69 332 L144 393 L223 393 L223 194 Q223 163 244 145 Q261 129 284 129 L764 129 Q778 129 778 142 Q778 199 730 260 Q643 367 506 378 Q498 379 498 388 L498 513 L874 731 Z " />
<glyph glyph-name="uni06AF" unicode="&#x6af;" horiz-adv-x="989" d="M498 656 L874 874 L874 779 L498 562 L498 656 Z M874 731 L874 586 L701 478 Q806 428 867 342 Q928 249 934 124 Q934 77 903 42 Q865 0 809 0 L260 0 Q196 0 145 38 Q69 96 69 194 L69 332 L144 393 L223 393 L223 194 Q223 163 244 145 Q261 129 284 129 L764 129 Q778 129 778 142 Q778 199 730 260 Q643 367 506 378 Q498 379 498 388 L498 513 L874 731 Z " />
<glyph glyph-name="uni06BA" unicode="&#x6ba;" horiz-adv-x="826" d="M757 460 L757 38 Q757 -90 678 -164 Q595 -239 457 -239 L369 -239 Q215 -239 133 -148 Q69 -76 69 38 L69 191 L147 253 L223 253 L223 57 Q223 -46 279 -83 Q321 -110 413 -110 Q518 -110 560 -73 Q603 -35 603 57 L603 460 L757 460 Z " />
<glyph glyph-name="uni06BE" unicode="&#x6be;" horiz-adv-x="824" d="M259 449 Q378 500 487 500 Q618 500 698 412 Q769 335 769 220 L769 124 Q769 66 726 30 Q691 0 645 0 L403 0 Q357 0 334 14 L330 14 Q306 0 260 0 L118 0 L55 78 L55 129 L183 129 Q171 152 167 171 Q161 193 161 220 Q161 274 191 315 Q217 350 259 369 L259 449 Z M615 203 Q615 383 438 383 Q412 383 380 380 Q435 364 468 321 Q503 277 503 220 Q503 194 496 169 Q488 141 481 129 L601 129 Q608 129 612 134 Q615 137 615 143 L615 203 Z M331 147 Q359 153 369 174 Q378 189 378 215 Q378 242 364 263 Q350 281 331 281 Q310 281 296.5 261.5 Q283 242 283 211 Q283 158 331 147 Z " />
<glyph glyph-name="uni06C0" unicode="&#x6c0;" horiz-adv-x="556" d="M232 595 Q220 623 220 646 Q220 692 246.5 719.5 Q273 747 316 747 Q343 747 375 738 L375 675 Q350 682 337 682 Q299 682 299 638 Q299 621 307 610 Q318 595 338 595 L408 595 L408 564 L381 531 L197 531 L197 595 L232 595 Z M500 487 L500 178 Q500 86 430 34 Q373 -9 282 -9 Q162 -9 97 78 Q55 141 55 224 Q55 336 130 410 Q197 476 292 476 Q341 476 382 454 L424 487 L500 487 Z M346 336 Q318 344 300 344 Q258 344 232 312 Q206 280 206 226 Q206 177 227 148.5 Q248 120 282 120 Q311 120 330 139 Q346 156 346 179 L346 336 Z " />
<glyph glyph-name="uni06C1" unicode="&#x6c1;" horiz-adv-x="556" d="M500 487 L500 178 Q500 86 430 34 Q373 -9 282 -9 Q162 -9 97 78 Q55 141 55 224 Q55 336 130 410 Q197 476 292 476 Q341 476 382 454 L424 487 L500 487 Z M346 336 Q318 344 300 344 Q258 344 232 312 Q206 280 206 226 Q206 177 227 148.5 Q248 120 282 120 Q311 120 330 139 Q346 156 346 179 L346 336 Z " />
<glyph glyph-name="uni06C2" unicode="&#x6c2;" horiz-adv-x="556" d="M228 595 Q215 623 215 646 Q215 691 242 719 Q269 747 312 747 Q344 747 382 734 L382 667 Q352 681 333 681 Q295 681 295 638 Q295 623 301 612 Q310 595 333 595 L415 595 L415 564 L388 531 L192 531 L192 595 L228 595 Z M500 487 L500 178 Q500 86 430 34 Q373 -9 282 -9 Q162 -9 97 78 Q55 141 55 224 Q55 336 130 410 Q197 476 292 476 Q341 476 382 454 L424 487 L500 487 Z M346 336 Q318 344 300 344 Q258 344 232 312 Q206 280 206 226 Q206 177 227 148.5 Q248 120 282 120 Q311 120 330 139 Q346 156 346 179 L346 336 Z " />
<glyph glyph-name="uni06C3" unicode="&#x6c3;" horiz-adv-x="556" d="M243 680 Q275 680 298 657 Q321 634 321 602 Q321 570 298 547 Q275 524 243 524 Q210 524 187.5 547 Q165 570 165 602 Q165 635 187.5 657.5 Q210 680 243 680 Z M422 680 Q454 680 477 657 Q500 634 500 602 Q500 570 477 547 Q454 524 422 524 Q389 524 366.5 547 Q344 570 344 602 Q344 635 366.5 657.5 Q389 680 422 680 Z M500 487 L500 178 Q500 86 430 34 Q373 -9 282 -9 Q162 -9 97 78 Q55 141 55 224 Q55 336 130 410 Q197 476 292 476 Q341 476 382 454 L424 487 L500 487 Z M346 336 Q318 344 300 344 Q258 344 232 312 Q206 280 206 226 Q206 177 227 148.5 Q248 120 282 120 Q311 120 330 139 Q346 156 346 179 L346 336 Z " />
<glyph glyph-name="uni06CC" unicode="&#x6cc;" horiz-adv-x="795" d="M223 57 Q223 -38 269.5 -75 Q316 -112 435 -112 Q596 -112 596 -28 Q596 -3 578.5 10 Q561 23 501 42 Q407 72 364.5 123 Q322 174 322 258 Q322 369 396 426 Q456 472 555 472 Q619 472 673 455 L673 340 Q623 352 586 352 Q534 352 502.5 327 Q471 302 471 261 Q471 222 491.5 202.5 Q512 183 586 153 Q671 117 705 85 Q750 42 750 -24 Q750 -142 643 -199 Q567 -239 457 -239 L369 -239 Q260 -239 182 -191 Q69 -118 69 38 L69 112 L147 174 L223 174 L223 57 Z " />
<glyph glyph-name="uni06D2" unicode="&#x6d2;" horiz-adv-x="738" d="M527 516 L527 481 Q527 366 453 309 Q419 283 329 245 Q322 242 299 233 Q241 210 218 193 Q192 171 192 151 Q192 129 216 129 L727 129 L727 78 L665 0 L206 0 Q133 0 85 44 Q41 85 41 148 Q41 236 129 293 Q160 312 236 345 Q245 349 252 352 Q260 356 280 364 Q315 377 330 387 Q373 413 373 481 L373 516 L527 516 Z " />
<glyph glyph-name="uni06D3" unicode="&#x6d3;" horiz-adv-x="739" d="M147 580 Q134 609 134 630 Q134 675 160 703.5 Q186 732 228 732 Q257 732 289 722 L289 659 Q264 666 252 666 Q214 666 214 623 Q214 604 222 594 Q231 580 252 580 L322 580 L322 549 L295 516 L111 516 L111 580 L147 580 Z M528 516 L528 481 Q528 366 454 309 Q420 283 330 245 Q323 242 300 233 Q242 210 219 193 Q193 171 193 151 Q193 129 217 129 L728 129 L728 78 L666 0 L207 0 Q134 0 86 44 Q42 85 42 148 Q42 236 130 293 Q161 312 237 345 Q246 349 253 352 Q261 356 281 364 Q316 377 331 387 Q374 413 374 481 L374 516 L528 516 Z " />
<glyph glyph-name="uni06D4" unicode="&#x6d4;" horiz-adv-x="161" d="M164 129 L164 0 L-4 0 L-4 129 L164 129 Z " />
<glyph glyph-name="uni06F0" unicode="&#x6f0;" horiz-adv-x="351" d="M183 396 L307 274 L307 217 L185 94 L32 244 L183 396 Z " />
<glyph glyph-name="uni06F1" unicode="&#x6f1;" horiz-adv-x="338" d="M246 674 L246 63 L168 0 L92 0 L92 674 L246 674 Z " />
<glyph glyph-name="uni06F2" unicode="&#x6f2;" horiz-adv-x="561" d="M92 460 Q92 577 159 636 Q217 686 317 686 Q416 686 492 649 L492 525 Q419 552 362 552 Q246 552 246 447 L246 63 L168 0 L92 0 L92 460 Z " />
<glyph glyph-name="uni06F3" unicode="&#x6f3;" horiz-adv-x="773" d="M246 674 L246 434 Q277 426 301 426 Q334 426 345 437 Q355 448 355 480 L355 674 L483 674 L483 472 Q483 458 481 442 Q480 439 480 437 Q520 427 537 427 Q568 427 580 438 Q591 449 591 482 L591 674 L718 674 L718 476 Q718 426 705 390 Q693 359 666 336 Q621 298 544 298 Q457 298 409 325 Q363 298 310 298 Q295 298 259 302 Q251 303 246 304 L246 63 L168 0 L92 0 L92 674 L246 674 Z " />
<glyph glyph-name="uni06F4" unicode="&#x6f4;" horiz-adv-x="598" d="M246 603 Q308 658 392 658 Q447 658 492 648 L492 528 Q452 537 420 537 Q300 537 246 410 Q318 389 387 389 Q479 389 543 408 L543 354 L487 276 Q426 263 374 263 Q311 263 246 282 L246 61 L171 0 L92 0 L92 674 L246 674 L246 603 Z " />
<glyph glyph-name="uni06F5" unicode="&#x6f5;" horiz-adv-x="603" d="M306 51 L301 51 Q264 -13 200 -13 Q129 -13 87.5 42.5 Q46 98 46 195 Q46 425 214 553 L196 569 L215 642 L261 687 Q305 668 396 582 Q474 509 518 407.5 Q562 306 562 199 Q562 82 502 25 Q461 -13 413 -13 Q346 -13 306 51 Z M299 197 L309 197 Q343 122 368 122 Q415 122 415 213 Q415 288 382 363.5 Q349 439 304 467 Q259 441 225.5 364.5 Q192 288 192 212 Q192 122 239 122 Q266 122 299 197 Z " />
<glyph glyph-name="uni06F6" unicode="&#x6f6;" horiz-adv-x="545" d="M198 316 Q117 369 117 484 Q117 588 187 642 Q245 686 338 686 Q382 686 433 673 L432 543 Q400 552 365 552 Q264 552 264 473 Q264 403 325 403 Q420 428 504 428 L508 428 L508 368 L449 294 Q403 292 361 271 Q312 248 273 202 Q221 142 199 63 L122 0 L30 0 Q47 109 89 189 Q134 270 198 316 Z " />
<glyph glyph-name="uni06F7" unicode="&#x6f7;" horiz-adv-x="592" d="M562 673 L429 124 Q420 84 405 58 Q382 15 345 -1 Q338 -5 333 -5 L256 -5 Q251 -5 245 -1 Q211 13 189 52 Q173 81 163 124 L30 673 L183 673 L296 167 L409 673 L562 673 Z " />
<glyph glyph-name="uni06F8" unicode="&#x6f8;" horiz-adv-x="592" d="M256 679 L333 679 Q335 678 339 677 Q343 676 345 675 Q369 666 386 646 Q414 614 429 550 L562 0 L409 0 L296 507 L183 0 L30 0 L163 550 Q174 596 192 626 Q212 661 245 675 Q247 676 252 678 Q255 678 256 679 Z " />
<glyph glyph-name="uni06F9" unicode="&#x6f9;" horiz-adv-x="542" d="M266 264 Q160 264 99 324 Q46 378 46 469 Q46 563 102 623 Q161 686 258 686 Q332 686 385 654 Q469 602 469 502 L469 63 L391 0 L314 0 L314 264 L266 264 Z M314 500 Q314 525 297 542 Q282 559 258 559 Q227 559 207.5 536.5 Q188 514 188 479 Q188 431 212.5 411 Q237 391 295 391 L314 391 L314 500 Z " />
<glyph glyph-name="Euro" unicode="&#x20ac;" horiz-adv-x="641" d="M150 439 Q167 563 234 625 Q301 687 412 687 Q480 687 529 660 L529 534 Q459 563 411 563 Q376 563 353 547 Q312 520 302 439 L460 439 L460 354 L295 354 Q294 349 294 334 Q294 317 295 306 L460 306 L460 219 L302 219 Q314 164 348 140.5 Q382 117 449 117 Q498 117 549 131 L549 75 L486 -3 Q448 -9 412 -9 Q308 -9 243 43 Q174 101 152 219 L92 219 L92 306 L143 306 Q141 313 141 339 Q141 352 142 354 L92 354 L92 439 L150 439 Z " />
<glyph glyph-name="uni2153" unicode="&#x2153;" horiz-adv-x="847" d="M267 673 L267 313 L207 263 L147 263 L147 540 L71 485 L16 554 L170 673 L267 673 Z M673 673 L277 0 L158 0 L554 673 L673 673 Z M567 405 Q617 420 655 420 Q721 420 763.5 388.5 Q806 357 810 305 Q808 278 797 260 Q776 225 725 214 Q767 208 798 183 Q828 154 828 118 Q828 65 781.5 30.5 Q735 -4 663 -4 Q609 -4 579 5 L544 46 L544 87 Q598 71 623 71 Q674 71 695 92 Q708 103 708 123 Q708 149 678.5 164.5 Q649 180 600 180 L598 180 Q597 180 596 180 L596 253 L647 253 Q694 253 694 291 Q694 312 675 325 Q656 338 625 338 Q609 338 567 327 L567 405 Z " />
<glyph glyph-name="uni2154" unicode="&#x2154;" horiz-adv-x="871" d="M31 632 Q102 681 182 681 Q239 681 277 648 Q315 615 315 564 Q315 527 291.5 494 Q268 461 203 407 Q189 395 182 389 L156 366 L331 366 L331 324 L281 265 L14 265 L15 357 L71 405 Q96 426 129 453 Q146 468 153 474 Q203 524 203 552 Q203 556 202 562 Q200 567 193 576 Q193 577 192 578 Q176 592 154 592 L153 592 Q136 591 91 565 Q89 564 86 563 L31 632 Z M706 673 L310 0 L190 0 L587 673 L706 673 Z M591 405 Q641 420 679 420 Q745 420 788 388 Q831 356 834 305 Q832 276 821 260 Q801 225 750 214 Q791 209 822 183 Q853 154 853 118 Q853 65 806.5 30.5 Q760 -4 687 -4 Q633 -4 604 5 L568 46 L568 87 Q623 71 647 71 Q699 71 720 92 Q733 104 733 123 Q733 149 703.5 164.5 Q674 180 625 180 Q624 180 623 180 Q622 180 621 180 L621 253 L671 253 Q718 253 718 292 Q718 312 699 325 Q680 338 650 338 Q634 338 591 327 L591 405 Z " />
<glyph glyph-name="oneeighth" unicode="&#x215b;" horiz-adv-x="888" d="M267 673 L267 313 L207 263 L147 263 L147 540 L71 485 L16 554 L170 673 L267 673 Z M673 673 L277 0 L158 0 L554 673 L673 673 Z M644 209 Q602 227 580 261 Q562 285 562 312 Q562 364 602 393 Q643 418 712 418 Q773 418 812 390 Q851 361 851 312 Q851 286 830 256 Q807 228 768 209 Q816 190 835 171 Q867 144 867 102 Q867 51 825 22 Q781 -12 706 -12 Q636 -12 593 17 Q545 47 545 104 Q545 139 577 168 Q608 193 644 209 Z M709 260 Q725 267 733 283 Q742 297 742 315 Q742 329 735 336 Q725 345 707 345 Q693 345 685 339 Q672 332 672 314 Q672 300 682 284 Q693 268 709 260 Z M707 164 Q654 140 654 105 Q654 65 707 65 Q762 65 762 104 Q762 140 707 164 Z " />
<glyph glyph-name="threeeighths" unicode="&#x215c;" horiz-adv-x="907" d="M39 670 Q91 686 125 686 Q193 686 236 654.5 Q279 623 282 571 Q280 544 270 526 Q249 492 198 480 Q240 475 270 448 Q301 420 301 384 Q301 331 255 296.5 Q209 262 138 262 Q81 262 52 271 L16 311 L16 354 Q69 337 95 337 Q147 337 168 357 Q181 369 181 389 Q181 414 152 430 Q123 446 76 446 Q71 446 69 446 L69 519 L120 519 Q166 519 166 557 Q166 578 147 590.5 Q128 603 97 603 Q82 603 39 592 L39 670 Z M693 673 L296 0 L177 0 L573 673 L693 673 Z M663 209 Q621 227 599 261 Q581 285 581 312 Q581 364 621 393 Q661 418 730 418 Q792 418 831 390 Q870 361 870 312 Q870 286 849 256 Q826 228 787 209 Q834 190 854 171 Q886 144 886 102 Q886 51 844 22 Q800 -12 725 -12 Q655 -12 612 17 Q564 47 564 104 Q564 139 596 168 Q626 193 663 209 Z M728 260 Q744 267 752 283 Q761 297 761 315 Q761 329 753 336 Q744 345 726 345 Q712 345 704 339 Q691 332 691 314 Q691 300 700 284 Q712 268 728 260 Z M726 164 Q673 140 673 105 Q673 65 726 65 Q781 65 781 104 Q781 140 726 164 Z " />
<glyph glyph-name="fiveeighths" unicode="&#x215d;" horiz-adv-x="932" d="M718 673 L322 0 L202 0 L599 673 L718 673 Z M288 673 L288 589 L133 589 L129 536 Q139 536 150 536 Q228 536 271.5 500 Q315 464 315 398 Q315 248 151 248 Q106 248 52 261 L16 303 L16 343 Q78 324 118 324 Q209 324 209 391 Q209 460 108 460 Q95 460 80 459 Q67 459 44 455 Q31 453 22 452 L37 673 L288 673 Z M688 209 Q647 227 624 261 Q607 285 607 312 Q607 365 647 393 Q686 418 756 418 Q818 418 857 390 Q896 361 896 312 Q896 286 874 256 Q852 228 812 209 Q911 169 911 100 Q911 51 866 19.5 Q821 -12 750 -12 Q680 -12 638 17 Q590 47 590 104 Q590 139 622 168 Q650 193 688 209 Z M754 260 Q770 268 777 283 Q786 296 786 315 Q786 328 779 336 Q769 345 752 345 Q738 345 729 339 Q717 332 717 314 Q717 301 726 284 Q738 268 754 260 Z M752 164 Q699 141 699 105 Q699 65 752 65 Q806 65 806 104 Q806 140 752 164 Z " />
<glyph glyph-name="seveneighths" unicode="&#x215e;" horiz-adv-x="858" d="M646 673 L250 0 L131 0 L527 673 L646 673 Z M316 672 L316 604 L188 302 L135 259 L54 259 L194 580 L12 580 L12 672 L316 672 Z M615 209 Q573 227 551 261 Q533 286 533 312 Q533 364 574 393 Q613 418 683 418 Q744 418 783 390 Q823 361 823 312 Q823 286 801 256 Q778 228 738 209 Q786 190 806 171 Q838 144 838 102 Q838 51 796 22 Q752 -12 677 -12 Q606 -12 564 17 Q517 47 517 104 Q517 139 548 168 Q577 192 615 209 Z M680 260 Q696 268 704 283 Q713 296 713 315 Q713 329 705 336 Q696 345 678 345 Q665 345 656 339 Q643 332 643 314 Q643 299 652 284 Q665 268 680 260 Z M678 164 Q625 141 625 106 Q625 65 678 65 Q733 65 733 104 Q733 139 678 164 Z " />
<glyph glyph-name="uni25CC" unicode="&#x25cc;" horiz-adv-x="545" d="M271 511 Q296 511 296 486 Q296 461 271 461 Q246 461 246 486 Q246 511 271 511 Z M191 495 Q216 495 216 470 Q216 445 191 445 Q166 445 166 470 Q166 495 191 495 Z M352 495 Q377 495 377 470 Q377 445 352 445 Q327 445 327 470 Q327 495 352 495 Z M123 449 Q148 449 148 424 Q148 400 123 400 Q98 400 98 424 Q98 449 123 449 Z M420 449 Q445 449 445 424 Q445 400 420 400 Q395 400 395 424 Q395 449 420 449 Z M78 381 Q102 381 102 356 Q102 331 78 331 Q53 331 53 356 Q53 381 78 381 Z M464 381 Q489 381 489 356 Q489 331 464 331 Q439 331 439 356 Q439 381 464 381 Z M62 301 Q87 301 87 276 Q87 251 62 251 Q37 251 37 276 Q37 301 62 301 Z M483 299 Q508 299 508 274 Q508 249 483 249 Q458 249 458 274 Q458 299 483 299 Z M78 221 Q102 221 102 197 Q102 172 78 172 Q53 172 53 197 Q53 221 78 221 Z M464 218 Q489 218 489 193 Q489 168 464 168 Q439 168 439 193 Q439 218 464 218 Z M123 152 Q148 152 148 128 Q148 103 123 103 Q98 103 98 128 Q98 152 123 152 Z M420 149 Q445 149 445 124 Q445 99 420 99 Q395 99 395 124 Q395 149 420 149 Z M191 104 Q216 104 216 79 Q216 54 191 54 Q166 54 166 79 Q166 104 191 104 Z M352 104 Q377 104 377 79 Q377 54 352 54 Q327 54 327 79 Q327 104 352 104 Z M271 87 Q296 87 296 63 Q296 38 271 38 Q246 38 246 63 Q246 87 271 87 Z " />
<glyph glyph-name="uniE002" unicode="&#xe002;" horiz-adv-x="666" d="M174 746 Q230 821 295 821 Q332 821 358 799 Q384 777 384 745 Q384 707 351 681 Q318 655 269 655 Q232 655 176 674 Q140 686 130 686 Q110 686 73 650 L34 680 Q71 755 129 755 Q152 755 174 746 Z M234 726 Q265 717 285 717 Q326 717 326 742 Q326 767 298 767 Q267 767 234 726 Z M597 716 L597 124 Q597 75 563 39 Q527 0 473 0 L104 0 L41 78 L41 129 L261 129 L103 593 L243 593 L402 129 L428 129 Q435 129 440 134 Q443 137 443 143 L443 716 L597 716 Z " />
<glyph glyph-name="uniE003" unicode="&#xe003;" horiz-adv-x="644" d="M174 746 Q230 821 295 821 Q332 821 358 799 Q384 777 384 745 Q384 707 351 681 Q318 655 269 655 Q232 655 176 674 Q140 686 130 686 Q110 686 73 650 L34 680 Q71 755 129 755 Q152 755 174 746 Z M234 726 Q265 717 285 717 Q326 717 326 742 Q326 767 298 767 Q267 767 234 726 Z M597 716 L597 157 Q597 139 598 129 L648 129 L648 0 L610 0 L573 46 L570 46 Q551 23 523 11 Q499 0 475 0 L104 0 L41 78 L41 129 L261 129 L103 593 L243 593 L402 129 L428 129 Q436 129 440 133 Q443 139 443 143 L443 716 L597 716 Z " />
<glyph glyph-name="uniE004" unicode="&#xe004;" d="M150 695 Q206 769 271 769 Q308 769 334 747 Q360 725 360 694 Q360 655 327 629 Q294 603 245 603 Q207 603 151 622 Q116 634 106 634 Q86 634 49 599 L10 629 Q47 704 105 704 Q128 704 150 695 Z M210 675 Q241 665 261 665 Q302 665 302 691 Q302 715 274 715 Q240 715 210 675 Z " />
<glyph glyph-name="uniE005" unicode="&#xe005;" d="M180 947 L180 764 L148 738 L116 738 L116 947 L180 947 Z M299 700 L299 574 Q299 558 287 541 Q271 523 248 523 L190 523 L171 544 L170 544 Q164 537 155 530 Q143 523 128 523 L51 523 Q27 523 12 542 Q0 558 0 574 L0 650 L32 675 L64 675 L64 582 Q64 579 66 577 Q68 575 71 575 L109 575 Q114 575 115 577 Q118 579 118 584 L118 675 L181 675 L181 575 L228 575 Q231 575 233 577 Q235 579 235 582 L235 700 L299 700 Z " />
<glyph glyph-name="uniE006" unicode="&#xe006;" d="M136 848 Q114 873 114 904 Q114 939 138 963 Q162 987 198 987 Q232 987 254.5 963 Q277 939 277 902 Q277 824 163 794 L51 763 L30 788 L30 818 L136 848 Z M197 864 Q224 878 224 904 Q224 939 197 939 Q167 939 167 908 Q167 874 197 864 Z M299 701 L299 576 Q299 559 287 543 Q271 525 248 525 L190 525 L171 545 L170 545 Q164 538 155 532 Q143 525 128 525 L51 525 Q27 525 12 543 Q0 560 0 576 L0 651 L32 677 L64 677 L64 583 Q64 580 66 579 Q67 576 71 576 L109 576 Q113 576 115 579 Q118 581 118 586 L118 677 L181 677 L181 576 L228 576 Q230 576 232 578 L233 578 Q235 580 235 583 L235 701 L299 701 Z " />
<glyph glyph-name="uniE007" unicode="&#xe007;" d="M217 837 Q187 860 187 902 Q187 936 211.5 959.5 Q236 983 271 983 Q305 983 328 959 Q351 935 351 899 Q351 850 309.5 815.5 Q268 781 209 780 Q144 781 99 827 L49 781 L22 783 L0 805 L112 902 Q154 836 210 836 Q213 836 217 837 Z M269 860 Q297 875 297 901 Q297 935 270 935 Q240 935 240 904 Q240 870 269 860 Z M336 720 L336 595 Q336 578 324 562 Q308 544 284 544 L226 544 L208 564 L206 564 Q200 557 191 550 Q179 544 164 544 L87 544 Q64 544 48 562 Q36 580 36 595 L36 670 L69 695 L100 695 L100 602 Q100 599 103 597 Q104 595 107 595 L145 595 Q150 595 151 597 Q154 600 154 604 L154 695 L218 695 L218 595 L265 595 Q266 595 269 597 L270 597 Q272 599 272 602 L272 720 L336 720 Z " />
<glyph glyph-name="uniE008" unicode="&#xe008;" d="M262 888 L262 827 L50 768 L29 792 L29 823 L262 888 Z M299 706 L299 581 Q299 564 287 548 Q271 529 248 529 L190 529 L171 550 L170 550 Q164 543 155 536 Q143 529 128 529 L51 529 Q27 529 12 548 Q0 565 0 581 L0 656 L32 681 L64 681 L64 588 Q64 585 66 583 Q67 581 71 581 L109 581 Q113 581 115 583 Q118 585 118 590 L118 681 L181 681 L181 581 L228 581 Q230 581 232 582 L233 583 Q235 585 235 588 L235 706 L299 706 Z " />
<glyph glyph-name="uniE009" unicode="&#xe009;" d="M262 992 L262 931 L52 873 L32 898 L32 929 L262 992 Z M262 883 L262 822 L50 763 L29 788 L29 818 L262 883 Z M299 701 L299 576 Q299 559 287 543 Q271 525 248 525 L190 525 L171 545 L170 545 Q164 538 155 532 Q143 525 128 525 L51 525 Q27 525 12 543 Q0 560 0 576 L0 651 L32 677 L64 677 L64 583 Q64 580 66 579 Q67 576 71 576 L109 576 Q113 576 115 579 Q118 581 118 586 L118 677 L181 677 L181 576 L228 576 Q230 576 232 578 L233 578 Q235 580 235 583 L235 701 L299 701 Z " />
<glyph glyph-name="uniE00A" unicode="&#xe00a;" d="M299 861 L299 736 Q299 719 287 703 Q271 684 248 684 L190 684 L171 705 L170 705 Q164 698 155 691 Q143 684 128 684 L51 684 Q27 684 12 703 Q0 720 0 736 L0 811 L32 836 L64 836 L64 743 Q64 740 66 738 Q67 736 71 736 L109 736 Q113 736 115 738 Q118 740 118 745 L118 836 L181 836 L181 736 L228 736 Q230 736 232 737 L233 738 Q235 740 235 743 L235 861 L299 861 Z M262 569 L49 510 L29 534 L29 565 L262 630 L262 569 Z " />
<glyph glyph-name="uniE00B" unicode="&#xe00b;" d="M299 970 L299 845 Q299 828 287 812 Q271 794 248 794 L190 794 L171 814 L170 814 Q164 807 155 801 Q143 794 128 794 L51 794 Q27 794 12 812 Q0 829 0 845 L0 920 L32 946 L64 946 L64 853 Q64 849 66 848 Q67 846 71 846 L109 846 Q114 846 115 848 Q118 850 118 855 L118 946 L181 946 L181 846 L228 846 Q230 846 233 847 Q235 849 235 853 L235 970 L299 970 Z M261 673 L48 614 L28 638 L28 669 L261 734 L261 673 Z M261 563 L48 505 L28 529 L28 560 L261 625 L261 563 Z " />
<glyph glyph-name="uniE00C" unicode="&#xe00c;" d="M78 156 Q111 156 133.5 133.5 Q156 111 156 78 Q156 46 133.5 23 Q111 0 78 0 Q46 0 23 23 Q0 46 0 78 Q0 111 23 133.5 Q46 156 78 156 Z " />
<glyph glyph-name="uniE00F" unicode="&#xe00f;" horiz-adv-x="1886" d="M757 716 L757 38 Q757 -82 688 -155 Q604 -239 457 -239 L369 -239 Q230 -239 148 -163 Q69 -88 69 38 L69 191 L147 253 L223 253 L223 57 Q223 -35 265.5 -72.5 Q308 -110 413 -110 Q517 -110 559 -74 Q603 -36 603 57 L603 716 L757 716 Z M1044 716 L1044 143 Q1044 139 1045 136 Q1049 129 1058 129 L1253 129 Q1257 129 1262 132 Q1266 136 1266 143 L1266 460 L1420 460 L1420 124 Q1420 79 1392 45 Q1354 0 1297 0 L1014 0 Q964 0 927 35 Q890 72 890 124 L890 716 L1044 716 Z M1817 460 L1817 38 Q1817 -98 1730 -170 Q1679 -213 1608 -230 Q1573 -238 1531 -238 L1505 -236 L1441 -157 L1441 -104 Q1444 -105 1452 -106 Q1478 -111 1498 -111 Q1581 -109 1621 -69 Q1663 -30 1663 56 L1663 460 L1817 460 Z M1065 -46 Q1097 -46 1119.5 -69 Q1142 -92 1142 -125 Q1142 -157 1119.5 -180 Q1097 -203 1065 -203 Q1032 -203 1009 -180 Q986 -157 986 -125 Q986 -92 1009 -69 Q1032 -46 1065 -46 Z M1244 -46 Q1276 -46 1299 -69 Q1322 -92 1322 -125 Q1322 -157 1299 -180 Q1276 -203 1244 -203 Q1211 -203 1188 -180 Q1165 -157 1165 -125 Q1165 -92 1188 -69 Q1211 -46 1244 -46 Z " />
<glyph glyph-name="uniE010" unicode="&#xe010;" horiz-adv-x="618" d="M324 690 Q322 685 316 685 Q310 685 310 697 Q310 705 313 709 L315 709 Q313 705 313 702 Q313 693 320 693 Q324 693 324 700 Q324 703 323 709 L327 713 Q329 706 329 696 Q331 694 333 694 Q337 694 337 698 Q337 700 336 704 Q334 709 334 711 Q334 715 336 716 L337 716 Q337 714 339 709 Q342 704 342 697 Q342 687 332 687 Q327 687 324 690 Z M218 659 L214 661 Q248 676 255 688 Q242 695 242 701 Q242 715 259 715 Q267 715 267 705 Q267 698 264 691 L270 689 L268 683 Q265 684 261 685 Q260 686 259 686 Q248 671 218 659 Z M501 243 Q524 247 568 270 Q569 270 570 271 L573 268 L565 234 Q520 205 464 205 Q411 205 396 236 Q387 207 361 207 Q334 207 327 234 Q282 187 249 187 Q239 187 228 190 L228 146 Q228 111 268 111 Q305 111 404 148 Q408 150 412 151 Q462 170 473 170 Q492 170 492 147 Q492 120 454 92 L450 98 Q474 118 474 133 Q474 140 467 140 Q462 140 454 138 Q438 133 394 117 Q302 82 266 82 Q241 82 229 96 Q231 68 240 58 Q277 41 277 37 Q277 30 271.5 22 Q266 14 262 14 Q257 14 246 20 Q226 30 210 30 Q192 30 155 9 Q116 -12 98 -12 Q78 -12 65.5 7.5 Q53 27 53 58 Q53 89 70.5 114.5 Q88 140 115 149 L117 149 L119 145 Q98 137 82.5 111.5 Q67 86 67 59 Q67 16 96 16 Q120 16 161 39 Q195 58 212 61 Q208 78 208 109 L208 197 Q186 212 171 245 Q168 243 156 224 Q119 162 94 162 Q74 162 61.5 182 Q49 202 49 233 Q49 263 66.5 289 Q84 315 111 324 L113 324 L114 319 Q94 312 78.5 286 Q63 260 63 233 Q63 191 92 191 Q114 191 135 222 Q137 226 145 240 Q166 272 176 272 Q184 272 191 256 L192 255 Q200 237 208 231 L208 346 L152 345 Q53 345 53 385 Q53 421 90 439 Q98 443 116 451 Q162 470 162 497 L161 684 Q161 697 179 713 L181 713 L182 494 Q182 461 208 445 L208 483 Q208 499 227 511 L229 511 Q229 510 229 436 Q230 436 234 436 Q242 435 246 435 Q317 435 386 466 L386 490 Q386 504 406 518 L407 518 L408 476 Q428 487 435 487 Q441 487 441 481 Q441 478 438 470 Q437 466 437 461 Q437 447 450 440 Q482 515 524 515 Q543 515 557 502.5 Q571 490 571 473 Q571 446 542 425.5 Q513 405 474 405 Q459 405 448 410 Q445 406 440 399 Q438 396 436 393 L433 393 Q434 404 438 416 Q422 429 418 455 L408 449 L408 379 L531 382 Q575 382 575 355 Q575 343 565 330 L561 331 Q561 353 531 353 L408 350 L408 282 Q408 238 468 238 Q454 259 454 279 Q454 302 469.5 319 Q485 336 505 336 Q532 336 560 313 L558 304 Q539 309 523 309 Q488 309 473 284 Q475 260 501 243 Z M452 515 L448 515 L443 684 Q441 687 441 690 Q441 703 451 713 L454 713 Q474 684 474 655 Q474 654 473 653 L472 653 L462 663 L466 551 Q466 526 452 515 Z M247 702 Q250 699 258 695 Q259 699 259 702 Q259 707 255 707 Q252 707 247 702 Z M267 618 Q264 612 259 589 Q247 530 230 530 Q205 530 205 592 Q205 611 208 626 L209 626 L211 623 Q210 614 210 608 Q210 556 230 556 Q241 556 253 606 Q264 652 277 652 Q282 652 282 641 Q282 633 280 617 Q277 605 277 593 Q277 557 295 557 Q330 557 330 613 Q330 637 326 657 Q328 670 340 680 L342 680 Q349 662 348 605 Q348 598 348 593 Q348 556 373 556 Q397 556 407 577 Q406 590 395 623 Q382 660 382 663 Q382 667 388 678 Q390 681 391 682 L393 682 L395 680 Q396 678 397 678 Q415 655 416 649 L415 648 L407 651 Q409 640 415 622 Q422 598 422 585 Q422 563 409 546.5 Q396 530 377 530 Q343 530 334 563 Q323 530 297 530 Q264 530 264 588 Q264 602 267 618 Z M251 460 L258 472 Q263 474 278 480 Q335 501 374 509 L368 497 Q334 492 266 465 Q257 462 251 460 Z M547 461 Q541 485 524 485 Q494 485 466 436 Q472 436 478 436 Q523 436 547 461 Z M208 375 L208 411 Q173 421 164 456 Q152 437 109 422 Q75 410 70 398 Q79 374 169 374 L208 375 Z M229 406 L229 375 Q261 375 331 378 Q364 379 386 379 L386 437 Q320 406 244 406 Q234 406 229 406 Z M346 250 Q354 239 366 239 Q393 239 390 297 Q390 304 390 307 Q390 328 389 350 L228 346 L228 219 Q238 214 249 214 Q283 214 326 262 Q332 268 336 268 Q340 268 344 256 Q346 252 346 250 Z M252 269 L258 280 Q264 283 279 288 Q336 310 375 318 L368 306 Q336 301 274 277 Q260 272 252 269 Z M126 309 L129 309 Q123 292 123 280 Q123 269 128 269 Q133 269 135 276 L136 276 Q136 254 122 254 Q113 254 113 271 Q113 294 126 309 Z M340 175 L354 189 L375 170 L354 148 L340 163 L325 148 L306 170 L325 189 L340 175 Z M552 85 Q547 88 531 90 Q498 95 498 116 Q498 135 510 150 Q522 165 537 165 Q572 165 572 111 Q572 65 538 26.5 Q504 -12 464 -12 Q444 -12 430 2 Q416 16 416 37 Q416 69 442 91 L445 85 Q431 73 431 54 Q431 17 465 17 Q488 17 512.5 36 Q537 55 552 85 Z M554 116 Q553 116 551 121 Q542 138 532 138 Q517 138 517 127 Q517 122 535 119 Q548 117 554 116 Z M124 96 Q120 93 117 93 Q112 93 112 102 Q112 112 121 112 Q127 112 134 101 Q137 117 147 117 Q155 117 155 110 Q155 107 153 102 L153 98 L152 98 Q151 103 148 104 Q140 104 138 77 L136 75 Q136 96 124 96 Z M335 51 L335 53 Q340 51 346 51 Q356 51 366 58 Q354 64 346 64 Q343 64 341 63 L339 64 Q339 75 354 75 Q357 75 364 73 Q372 70 377 69 Q383 69 383 67 Q383 60 373 52.5 Q363 45 352 45 Q343 45 335 51 Z M386 22 L394 29 Q399 23 399 10 Q399 -1 387 -1 Q380 -1 376 5 Q372 -1 365 -1 Q358 -1 355 5 Q343 -2 319 -2 Q307 -2 292 0 L292 2 Q298 2 303 2 Q347 2 358 19 L360 19 Q360 10 367 10 Q375 10 375 21 L377 21 Q377 10 390 10 Q388 21 386 22 Z " />
<glyph glyph-name="uniE015" unicode="&#xe015;" horiz-adv-x="706" d="M223 174 L223 57 Q223 -35 266 -72.5 Q309 -110 413 -110 Q502 -110 543.5 -85.5 Q585 -61 598 0 L548 0 L482 82 L482 129 L804 129 L804 0 L755 0 Q742 -128 642 -191 Q565 -239 457 -239 L369 -239 Q244 -239 164 -177 Q69 -103 69 38 L69 112 L147 174 L223 174 Z " />
<glyph glyph-name="uniE016" unicode="&#xe016;" horiz-adv-x="706" d="M223 174 L223 57 Q223 -35 266 -72.5 Q309 -110 413 -110 Q502 -110 543.5 -85.5 Q585 -61 598 0 L548 0 L482 82 L482 129 L804 129 L804 0 L755 0 Q742 -128 642 -191 Q565 -239 457 -239 L369 -239 Q244 -239 164 -177 Q69 -103 69 38 L69 112 L147 174 L223 174 Z M318 -297 Q350 -297 373 -320 Q396 -343 396 -376 Q396 -408 373 -430.5 Q350 -453 318 -453 Q285 -453 262.5 -430.5 Q240 -408 240 -376 Q240 -343 262.5 -320 Q285 -297 318 -297 Z M497 -297 Q529 -297 552 -320 Q575 -343 575 -376 Q575 -408 552 -430.5 Q529 -453 497 -453 Q464 -453 441.5 -430.5 Q419 -408 419 -376 Q419 -343 441.5 -320 Q464 -297 497 -297 Z " />
<glyph glyph-name="uniE017" unicode="&#xe017;" horiz-adv-x="637" d="M105 319 Q92 348 92 370 Q92 415 118 443 Q144 471 185 471 Q214 471 247 462 L247 399 Q221 405 209 405 Q172 405 172 362 Q172 344 179 334 Q190 319 210 319 L280 319 L280 288 L253 255 L69 255 L69 319 L105 319 Z M246 174 L246 57 Q246 -35 289.5 -72.5 Q333 -110 436 -110 Q525 -110 566.5 -85.5 Q608 -61 621 0 L571 0 L505 82 L505 129 L828 129 L828 0 L778 0 Q765 -128 665 -191 Q588 -239 480 -239 L392 -239 Q267 -239 187 -177 Q92 -103 92 38 L92 112 L170 174 L246 174 Z " />
<glyph glyph-name="uniE018" unicode="&#xe018;" horiz-adv-x="981" d="M934 460 L934 138 Q934 134 935 129 L985 129 L985 0 L952 0 L910 46 L907 46 Q869 0 810 0 L260 0 Q191 0 139 44 Q69 102 69 194 L69 325 L147 388 L223 388 L223 194 Q223 163 245 144 Q262 129 284 129 L760 129 Q770 129 776 136 Q780 142 780 149 L780 460 L934 460 Z " />
<glyph glyph-name="uniE019" unicode="&#xe019;" horiz-adv-x="377" d="M330 460 L330 138 Q330 134 331 129 L380 129 L380 0 L349 0 L305 46 L303 46 Q265 0 205 0 L-4 0 L-4 129 L156 129 Q165 129 170 135 Q176 140 176 149 L176 460 L330 460 Z " />
<glyph glyph-name="uniE01F" unicode="&#xe01f;" horiz-adv-x="889" d="M165 673 L213 673 Q273 673 319 579 Q354 509 354 451 Q354 379 310.5 338 Q267 297 190 297 Q112 297 69 338 Q26 379 26 452 Q26 557 89 626 Q105 644 128.5 658.5 Q152 673 165 673 Z M703 673 L307 0 L187 0 L584 673 L703 673 Z M194 592 L186 592 Q164 584 144.5 542.5 Q125 501 125 460 Q125 379 190 379 Q215 379 231 392 Q254 411 255 462 Q255 495 240 531 Q222 579 194 592 Z M661 403 L721 403 Q751 398 775 355 Q784 337 792 305 L865 0 L753 0 L691 277 L630 0 L517 0 L591 305 Q599 338 611 359 Q631 399 661 403 Z " />
<glyph glyph-name="uniE020" unicode="&#xe020;" horiz-adv-x="725" d="M539 673 L143 0 L23 0 L419 673 L539 673 Z M139 673 L139 315 L82 270 L24 270 L24 673 L139 673 Z M494 403 L554 403 Q584 398 607 355 Q616 338 625 305 L698 0 L586 0 L524 277 L462 0 L350 0 L424 305 Q432 339 443 359 Q463 399 494 403 Z " />
<glyph glyph-name="uniE021" unicode="&#xe021;" horiz-adv-x="687" d="M133 673 L133 315 L76 270 L18 270 L18 673 L133 673 Z M539 673 L143 0 L23 0 L419 673 L539 673 Z M388 232 Q388 413 571 413 Q604 413 660 397 L660 315 Q633 321 609 321 Q559 321 530.5 291.5 Q502 262 502 210 L502 46 L446 0 L388 0 L388 232 Z " />
<glyph glyph-name="uniE022" unicode="&#xe022;" horiz-adv-x="675" d="M127 673 L127 315 L70 270 L12 270 L12 673 L127 673 Z M539 673 L142 0 L23 0 L419 673 L539 673 Z M451 218 Q411 250 411 303 Q411 355 447.5 387 Q484 419 544 419 Q588 419 633 405 L633 333 Q611 340 588 340 Q518 340 518 294 Q518 254 563 254 L626 254 L626 229 L591 194 L582 194 Q551 194 523 174 Q503 157 503 128 Q503 103 517 88 Q536 70 580 70 L654 70 L654 45 L619 0 L536 0 Q467 0 429 38 Q394 73 394 124 Q394 156 411 182 Q423 201 451 218 Z " />
<glyph glyph-name="uniE023" unicode="&#xe023;" horiz-adv-x="885" d="M539 673 L143 0 L23 0 L419 673 L539 673 Z M139 673 L139 315 L82 270 L24 270 L24 673 L139 673 Z M543 403 L543 282 Q549 281 561 281 Q579 281 592 286 Q610 294 610 326 L610 407 L700 407 L700 323 Q700 320 700 318 Q700 300 697 285 Q716 281 728 281 Q757 281 767 290 Q777 299 777 324 L777 407 L864 407 L864 308 Q864 274 856 254 Q849 236 832 222 Q805 200 754 200 Q685 200 660 220 Q632 200 591 200 Q576 200 558 203 Q549 204 543 205 L543 46 L487 0 L429 0 L429 403 L543 403 Z " />
<glyph glyph-name="uniE024" unicode="&#xe024;" horiz-adv-x="880" d="M698 673 L301 0 L182 0 L578 673 L698 673 Z M373 673 L299 367 Q292 336 282 318 Q259 274 228 269 L169 269 Q139 273 118 314 Q107 335 99 367 L25 673 L137 673 L199 396 L261 673 L373 673 Z M648 403 L708 403 Q739 398 762 355 Q771 337 779 305 L852 0 L740 0 L678 277 L617 0 L505 0 L578 305 Q587 340 598 359 Q618 399 648 403 Z " />
<glyph glyph-name="uniE025" unicode="&#xe025;" horiz-adv-x="941" d="M161 673 L161 551 Q166 551 179 551 Q198 551 209 555 Q228 564 228 596 L228 677 L318 677 L318 593 Q318 568 315 555 Q333 551 345 551 Q374 551 384 559.5 Q394 568 394 594 L394 677 L482 677 L482 577 Q482 544 474 524 Q466 505 450 492 Q423 470 372 470 Q301 470 278 490 Q251 470 209 470 Q194 470 175 472 Q167 473 161 474 L161 315 L104 270 L46 270 L46 673 L161 673 Z M759 673 L363 0 L243 0 L640 673 L759 673 Z M716 403 L776 403 Q806 398 829 355 Q839 337 846 305 L920 0 L808 0 L746 277 L684 0 L572 0 L646 305 Q653 337 665 359 Q686 399 716 403 Z " />
<glyph glyph-name="uniE026" unicode="&#xe026;" horiz-adv-x="900" d="M161 673 L161 551 Q166 551 179 551 Q198 551 209 555 Q228 564 228 596 L228 677 L318 677 L318 593 Q318 568 315 555 Q333 551 345 551 Q374 551 384 559.5 Q394 568 394 594 L394 677 L482 677 L482 577 Q482 544 474 524 Q466 505 450 492 Q423 470 372 470 Q301 470 278 490 Q251 470 209 470 Q194 470 175 472 Q167 473 161 474 L161 315 L104 270 L46 270 L46 673 L161 673 Z M765 673 L369 0 L249 0 L645 673 L765 673 Z M677 218 Q637 250 637 303 Q637 355 673.5 387 Q710 419 770 419 Q813 419 859 405 L859 333 Q837 340 814 340 Q744 340 744 294 Q744 254 789 254 L852 254 L852 229 L817 194 L808 194 Q777 194 749 174 Q729 157 729 128 Q729 103 743 88 Q762 70 806 70 L879 70 L879 45 L845 0 L762 0 Q693 0 655 38 Q620 73 620 124 Q620 156 637 182 Q649 201 677 218 Z " />
<glyph glyph-name="uniE027" unicode="&#xe027;" horiz-adv-x="911" d="M45 502 Q45 683 231 683 Q264 683 318 667 L318 585 Q291 591 266 591 Q216 591 188 561.5 Q160 532 160 480 L160 316 L103 270 L45 270 L45 502 Z M575 673 L178 0 L59 0 L456 673 L575 673 Z M572 403 L572 282 Q578 281 590 281 Q608 281 621 286 Q640 294 640 326 L640 407 L729 407 L729 323 Q730 320 730 318 Q730 299 726 285 Q745 281 757 281 Q786 281 795.5 290 Q805 299 805 324 L805 407 L893 407 L893 308 Q893 275 886 254 Q877 235 861 222 Q834 200 784 200 Q713 200 689 220 Q662 200 620 200 Q605 200 587 203 Q578 204 572 205 L572 46 L516 0 L457 0 L457 403 L572 403 Z " />
<glyph glyph-name="uniE028" unicode="&#xe028;" d="M78 156 Q111 156 133.5 133.5 Q156 111 156 78 Q156 46 133.5 23 Q111 0 78 0 Q46 0 23 23 Q0 46 0 78 Q0 111 23 133.5 Q46 156 78 156 Z " />
<glyph glyph-name="uniE030" unicode="&#xe030;" horiz-adv-x="981" d="M934 460 L934 138 Q934 134 935 129 L985 129 L985 0 L952 0 L910 46 L907 46 Q869 0 810 0 L260 0 Q191 0 139 44 Q69 102 69 194 L69 325 L147 388 L223 388 L223 194 Q223 163 245 144 Q262 129 284 129 L760 129 Q770 129 776 136 Q780 142 780 149 L780 460 L934 460 Z " />
<glyph glyph-name="uniE031" unicode="&#xe031;" horiz-adv-x="377" d="M330 460 L330 138 Q330 134 331 129 L380 129 L380 0 L349 0 L305 46 L303 46 Q265 0 205 0 L-4 0 L-4 129 L156 129 Q165 129 170 135 Q176 140 176 149 L176 460 L330 460 Z " />
<glyph glyph-name="uniE032" unicode="&#xe032;" horiz-adv-x="399" d="M330 460 L330 124 Q330 80 301 45 Q263 0 205 0 L-4 0 L-4 129 L161 129 Q167 129 171 132 Q176 136 176 143 L176 460 L330 460 Z " />
<glyph glyph-name="uniE033" unicode="&#xe033;" horiz-adv-x="1035" d="M602 129 Q573 189 573 252 Q573 349 640 412 Q705 472 800 472 Q899 472 964 406 Q1026 344 1026 252 Q1026 186 997 129 L1039 129 L1039 0 L895 0 Q833 0 802 18 L796 18 Q765 0 702 0 L297 0 Q216 0 159 59 Q106 115 106 194 L106 325 L184 388 L260 388 L260 194 Q260 169 275 151 Q293 129 321 129 L602 129 Z M799 131 Q873 147 873 238 Q873 278 857 308 Q834 343 799 343 Q767 343 746 314 Q724 284 724 238 Q724 146 799 131 Z " />
<glyph glyph-name="uniE034" unicode="&#xe034;" horiz-adv-x="624" d="M179 129 Q150 187 150 252 Q150 312 177 362 Q207 413 260 442.5 Q313 472 377 472 Q473 472 539 408 Q604 345 604 252 Q604 186 575 129 L628 129 L628 0 L472 0 Q410 0 379 18 L373 18 Q342 0 279 0 L-4 0 L-4 129 L179 129 Z M376 131 Q451 146 451 238 Q450 284 429.5 313.5 Q409 343 376 343 Q344 343 323 313 Q302 283 302 238 Q302 147 376 131 Z " />
<glyph glyph-name="uniE035" unicode="&#xe035;" horiz-adv-x="650" d="M177 129 Q165 158 159 182 Q150 215 150 252 Q150 325 189 379 Q257 472 383 472 Q473 472 531 423 Q594 370 594 285 L594 124 Q594 80 566 45 Q528 0 470 0 L-4 0 L-4 129 L177 129 Z M440 284 Q440 315 416 332 Q400 343 383 343 Q334 343 313 298 Q302 273 302 238 Q302 171 343 143 Q367 129 405 129 L426 129 Q440 129 440 143 L440 284 Z " />
<glyph glyph-name="uniE036" unicode="&#xe036;" horiz-adv-x="785" d="M539 0 Q423 0 359 85 Q312 150 312 253 Q312 332 360 392 Q429 472 546 472 Q622 472 678 436 Q757 384 757 285 L757 129 L789 129 L789 0 L755 0 Q744 -103 676 -166 Q593 -239 457 -239 L369 -239 Q219 -239 137 -152 Q69 -80 69 38 L69 122 L147 185 L223 185 L223 57 Q223 -34 266 -72 Q309 -110 413 -110 Q502 -110 543.5 -85.5 Q585 -61 598 0 L539 0 Z M603 284 Q603 312 583 329 Q567 343 546 343 Q518 343 497 326 Q463 298 463 239 Q463 196 484 167 Q512 129 572 129 L603 129 L603 284 Z " />
<glyph glyph-name="uniE041" unicode="&#xe041;" horiz-adv-x="1195" d="M1125 460 L1125 124 Q1125 81 1097 45 Q1059 0 1001 0 L755 0 Q742 -129 639 -193 Q563 -239 457 -239 L369 -239 Q243 -239 162 -175 Q69 -102 69 38 L69 112 L147 174 L223 174 L223 57 Q223 -35 266 -72.5 Q309 -110 413 -110 Q502 -110 543.5 -85.5 Q585 -61 598 0 L548 0 L482 82 L482 129 L957 129 Q971 129 971 143 L971 460 L1125 460 Z M858 -46 Q891 -46 913.5 -69 Q936 -92 936 -125 Q936 -157 913.5 -180 Q891 -203 858 -203 Q826 -203 803 -180 Q780 -157 780 -125 Q780 -92 803 -69 Q826 -46 858 -46 Z M1036 -46 Q1069 -46 1091.5 -69 Q1114 -92 1114 -125 Q1114 -157 1091.5 -180 Q1069 -203 1036 -203 Q1004 -203 981 -180 Q958 -157 958 -125 Q958 -92 981 -69 Q1004 -46 1036 -46 Z M947 -203 Q977 -203 997.5 -223.5 Q1018 -244 1018 -273 Q1018 -302 997.5 -323 Q977 -344 947 -344 Q918 -344 897.5 -323 Q877 -302 877 -273 Q877 -244 897.5 -223.5 Q918 -203 947 -203 Z " />
<glyph glyph-name="uniE042" unicode="&#xe042;" horiz-adv-x="1172" d="M1125 460 L1125 138 Q1125 132 1126 129 L1176 129 L1176 0 L1138 0 L1101 47 L1098 47 Q1060 0 1001 0 L755 0 Q742 -132 637 -196 Q560 -239 457 -239 L369 -239 Q245 -239 164 -177 Q69 -103 69 38 L69 112 L147 174 L223 174 L223 57 Q223 -35 266.5 -72.5 Q310 -110 413 -110 Q502 -110 543.5 -85.5 Q585 -61 598 0 L548 0 L482 82 L482 129 L951 129 Q971 129 971 149 L971 460 L1125 460 Z M868 -46 Q901 -46 923.5 -69 Q946 -92 946 -125 Q946 -157 923.5 -180 Q901 -203 868 -203 Q836 -203 813 -180 Q790 -157 790 -125 Q790 -92 813 -69 Q836 -46 868 -46 Z M1047 -46 Q1080 -46 1102.5 -69 Q1125 -92 1125 -125 Q1125 -157 1102.5 -180 Q1080 -203 1047 -203 Q1015 -203 992 -180 Q969 -157 969 -125 Q969 -92 992 -69 Q1015 -46 1047 -46 Z M959 -203 Q988 -203 1009 -223.5 Q1030 -244 1030 -273 Q1030 -302 1009 -323 Q988 -344 959 -344 Q930 -344 909 -323 Q888 -302 888 -273 Q888 -244 909 -223.5 Q930 -203 959 -203 Z " />
<glyph glyph-name="uniE043" unicode="&#xe043;" horiz-adv-x="1195" d="M1125 460 L1125 124 Q1125 81 1097 45 Q1059 0 1001 0 L755 0 Q742 -129 639 -193 Q563 -239 457 -239 L369 -239 Q243 -239 162 -175 Q69 -102 69 38 L69 112 L147 174 L223 174 L223 57 Q223 -35 266 -72.5 Q309 -110 413 -110 Q502 -110 543.5 -85.5 Q585 -61 598 0 L548 0 L482 82 L482 129 L957 129 Q971 129 971 143 L971 460 L1125 460 Z M858 -46 Q890 -46 913 -69 Q936 -92 936 -125 Q936 -157 913 -180 Q890 -203 858 -203 Q825 -203 802.5 -180 Q780 -157 780 -125 Q780 -92 803 -69 Q826 -46 858 -46 Z M1036 -46 Q1068 -46 1091 -69 Q1114 -92 1114 -125 Q1114 -157 1091 -180 Q1068 -203 1036 -203 Q1003 -203 980.5 -180 Q958 -157 958 -125 Q958 -92 980.5 -69 Q1003 -46 1036 -46 Z M947 -203 Q977 -203 997.5 -223.5 Q1018 -244 1018 -273 Q1018 -302 997.5 -323 Q977 -344 947 -344 Q918 -344 897.5 -323 Q877 -302 877 -273 Q877 -244 897.5 -223.5 Q918 -203 947 -203 Z M318 -297 Q350 -297 373 -320 Q396 -343 396 -376 Q396 -408 373 -430.5 Q350 -453 318 -453 Q285 -453 262.5 -430.5 Q240 -408 240 -376 Q240 -343 262.5 -320 Q285 -297 318 -297 Z M497 -297 Q529 -297 552 -320 Q575 -343 575 -376 Q575 -408 552 -430.5 Q529 -453 497 -453 Q464 -453 441.5 -430.5 Q419 -408 419 -376 Q419 -343 441.5 -320 Q464 -297 497 -297 Z " />
<glyph glyph-name="uniE044" unicode="&#xe044;" horiz-adv-x="1172" d="M1125 460 L1125 138 Q1125 132 1126 129 L1176 129 L1176 0 L1138 0 L1101 47 L1098 47 Q1060 0 1001 0 L755 0 Q742 -132 637 -196 Q560 -239 457 -239 L369 -239 Q245 -239 164 -177 Q69 -103 69 38 L69 112 L147 174 L223 174 L223 57 Q223 -35 266.5 -72.5 Q310 -110 413 -110 Q502 -110 543.5 -85.5 Q585 -61 598 0 L548 0 L482 82 L482 129 L951 129 Q971 129 971 149 L971 460 L1125 460 Z M868 -46 Q901 -46 923.5 -69 Q946 -92 946 -125 Q946 -157 923.5 -180 Q901 -203 868 -203 Q836 -203 813 -180 Q790 -157 790 -125 Q790 -92 813 -69 Q836 -46 868 -46 Z M1047 -46 Q1080 -46 1102.5 -69 Q1125 -92 1125 -125 Q1125 -157 1102.5 -180 Q1080 -203 1047 -203 Q1015 -203 992 -180 Q969 -157 969 -125 Q969 -92 992 -69 Q1015 -46 1047 -46 Z M963 -203 Q992 -203 1012.5 -223.5 Q1033 -244 1033 -273 Q1033 -302 1012.5 -323 Q992 -344 963 -344 Q934 -344 913.5 -323 Q893 -302 893 -273 Q893 -244 913.5 -223.5 Q934 -203 963 -203 Z M318 -297 Q350 -297 373 -320 Q396 -343 396 -376 Q396 -408 373 -430.5 Q350 -453 318 -453 Q285 -453 262.5 -430.5 Q240 -408 240 -376 Q240 -343 262.5 -320 Q285 -297 318 -297 Z M497 -297 Q529 -297 552 -320 Q575 -343 575 -376 Q575 -408 552 -430.5 Q529 -453 497 -453 Q464 -453 441.5 -430.5 Q419 -408 419 -376 Q419 -343 441.5 -320 Q464 -297 497 -297 Z " />
<glyph glyph-name="uniE045" unicode="&#xe045;" horiz-adv-x="1218" d="M105 319 Q92 348 92 370 Q92 415 118 443 Q144 471 186 471 Q215 471 247 462 L247 399 Q221 405 209 405 Q172 405 172 362 Q172 345 179 334 Q190 319 210 319 L280 319 L280 288 L253 255 L69 255 L69 319 L105 319 Z M1148 460 L1148 124 Q1148 81 1120 45 Q1082 0 1024 0 L778 0 Q766 -129 662 -193 Q586 -239 480 -239 L392 -239 Q266 -239 185 -175 Q92 -102 92 38 L92 112 L170 174 L246 174 L246 57 Q246 -35 289 -72.5 Q332 -110 436 -110 Q525 -110 566.5 -85.5 Q608 -61 621 0 L571 0 L505 82 L505 129 L980 129 Q994 129 994 143 L994 460 L1148 460 Z M880 -46 Q913 -46 935.5 -69 Q958 -92 958 -125 Q958 -157 935.5 -180 Q913 -203 880 -203 Q848 -203 825 -180 Q802 -157 802 -125 Q802 -92 825 -69 Q848 -46 880 -46 Z M1059 -46 Q1092 -46 1114.5 -69 Q1137 -92 1137 -125 Q1137 -157 1114.5 -180 Q1092 -203 1059 -203 Q1027 -203 1004 -180 Q981 -157 981 -125 Q981 -92 1004 -69 Q1027 -46 1059 -46 Z M970 -203 Q999 -203 1020 -223.5 Q1041 -244 1041 -273 Q1041 -302 1020 -323 Q999 -344 970 -344 Q941 -344 920 -323 Q899 -302 899 -273 Q899 -244 920 -223.5 Q941 -203 970 -203 Z " />
<glyph glyph-name="uniE046" unicode="&#xe046;" horiz-adv-x="1195" d="M105 319 Q92 348 92 370 Q92 415 118 443 Q144 471 186 471 Q215 471 247 462 L247 399 Q221 405 209 405 Q172 405 172 362 Q172 345 179 334 Q190 319 210 319 L280 319 L280 288 L253 255 L69 255 L69 319 L105 319 Z M1148 460 L1148 138 Q1148 132 1149 129 L1199 129 L1199 0 L1161 0 L1124 47 L1121 47 Q1083 0 1024 0 L778 0 Q765 -132 660 -196 Q583 -239 480 -239 L392 -239 Q268 -239 187 -177 Q92 -103 92 38 L92 112 L170 174 L246 174 L246 57 Q246 -35 289.5 -72.5 Q333 -110 436 -110 Q525 -110 566.5 -85.5 Q608 -61 621 0 L571 0 L505 82 L505 129 L974 129 Q994 129 994 149 L994 460 L1148 460 Z M891 -46 Q924 -46 946.5 -69 Q969 -92 969 -125 Q969 -157 946.5 -180 Q924 -203 891 -203 Q859 -203 836 -180 Q813 -157 813 -125 Q813 -92 836 -69 Q859 -46 891 -46 Z M1070 -46 Q1103 -46 1125.5 -69 Q1148 -92 1148 -125 Q1148 -157 1125.5 -180 Q1103 -203 1070 -203 Q1038 -203 1015 -180 Q992 -157 992 -125 Q992 -92 1015 -69 Q1038 -46 1070 -46 Z M981 -203 Q1010 -203 1030.5 -223.5 Q1051 -244 1051 -273 Q1051 -302 1030.5 -323 Q1010 -344 981 -344 Q952 -344 931 -323 Q910 -302 910 -273 Q910 -243 930.5 -223 Q951 -203 981 -203 Z " />
<glyph glyph-name="uniE047" unicode="&#xe047;" horiz-adv-x="1050" d="M935 731 L935 586 L763 478 Q848 438 906 367 Q989 268 995 124 Q995 71 956 34 Q920 0 871 0 L773 0 Q760 -122 668 -186 Q588 -239 475 -239 L387 -239 Q236 -239 154 -152 Q86 -79 86 38 L86 112 L164 174 L241 174 L241 57 Q241 -36 283.5 -73 Q326 -110 430 -110 Q519 -110 560.5 -85.5 Q602 -61 616 0 L565 0 L499 82 L499 129 L826 129 Q829 129 835 133 Q840 137 840 144 Q835 208 779 276 Q697 367 568 378 Q559 379 559 388 L559 513 L935 731 Z M105 319 Q92 348 92 370 Q92 415 118 443 Q144 471 186 471 Q215 471 247 462 L247 399 Q221 405 209 405 Q172 405 172 362 Q172 345 179 334 Q190 319 210 319 L280 319 L280 288 L253 255 L69 255 L69 319 L105 319 Z " />
<glyph glyph-name="uniE048" unicode="&#xe048;" horiz-adv-x="1030" d="M941 730 L941 586 L769 477 Q864 432 926 348 Q998 250 1001 138 Q1001 137 1001 133 Q1002 131 1002 129 L1033 129 L1033 0 L1014 0 L977 47 L974 47 Q936 0 877 0 L778 0 Q767 -119 679 -181 Q599 -239 480 -239 L392 -239 Q276 -239 197 -185 Q92 -111 92 38 L92 112 L170 174 L246 174 L246 57 Q246 -35 289 -72.5 Q332 -110 436 -110 Q525 -110 566.5 -85.5 Q608 -61 621 0 L571 0 L505 82 L505 129 L831 129 Q846 129 846 142 Q846 207 785 275 Q699 368 574 378 Q565 379 565 387 L565 512 L941 730 Z M105 319 Q92 348 92 370 Q92 415 118 443 Q144 471 186 471 Q215 471 247 462 L247 399 Q221 405 209 405 Q172 405 172 362 Q172 345 179 334 Q190 319 210 319 L280 319 L280 288 L253 255 L69 255 L69 319 L105 319 Z " />
<glyph glyph-name="uniE049" unicode="&#xe049;" horiz-adv-x="1033" d="M542 656 L918 874 L918 779 L542 562 L542 656 Z M918 731 L918 586 L746 478 Q815 443 874 383 Q972 279 978 124 Q978 71 939 34 Q902 0 853 0 L755 0 Q744 -121 650 -186 Q571 -239 457 -239 L369 -239 Q219 -239 137 -152 Q69 -80 69 38 L69 112 L147 174 L223 174 L223 57 Q223 -36 265.5 -73 Q308 -110 413 -110 Q502 -110 543 -85.5 Q584 -61 598 0 L548 0 L482 82 L482 129 L808 129 Q823 129 823 144 Q823 209 757 280 Q675 367 550 378 Q542 379 542 388 L542 513 L918 731 Z " />
<glyph glyph-name="uniE04A" unicode="&#xe04a;" horiz-adv-x="1007" d="M542 656 L918 874 L918 779 L542 562 L542 656 Z M918 730 L918 586 L746 477 Q842 431 903 348 Q968 261 978 137 Q978 136 978 133 Q979 131 979 129 L1010 129 L1010 0 L991 0 L954 47 L951 47 Q913 0 854 0 L755 0 Q744 -119 656 -181 Q576 -239 457 -239 L369 -239 Q253 -239 174 -185 Q69 -111 69 38 L69 112 L147 174 L223 174 L223 57 Q223 -35 266 -72.5 Q309 -110 413 -110 Q502 -110 543.5 -85.5 Q585 -61 598 0 L548 0 L482 82 L482 129 L808 129 Q823 129 823 144 Q823 207 762 275 Q676 368 550 378 Q542 379 542 387 L542 512 L918 730 Z " />
<glyph glyph-name="uniE04B" unicode="&#xe04b;" horiz-adv-x="1033" d="M542 656 L918 874 L918 779 L542 562 L542 656 Z M918 731 L918 586 L746 478 Q815 443 874 383 Q972 279 978 124 Q978 71 939 34 Q902 0 853 0 L755 0 Q744 -121 650 -186 Q571 -239 457 -239 L369 -239 Q219 -239 137 -152 Q69 -80 69 38 L69 112 L147 174 L223 174 L223 57 Q223 -36 265.5 -73 Q308 -110 413 -110 Q502 -110 543 -85.5 Q584 -61 598 0 L548 0 L482 82 L482 129 L808 129 Q823 129 823 144 Q823 209 757 280 Q675 367 550 378 Q542 379 542 388 L542 513 L918 731 Z M318 -297 Q350 -297 373 -320 Q396 -343 396 -376 Q396 -408 373 -430.5 Q350 -453 318 -453 Q285 -453 262.5 -430.5 Q240 -408 240 -376 Q240 -343 262.5 -320 Q285 -297 318 -297 Z M497 -297 Q529 -297 552 -320 Q575 -343 575 -376 Q575 -408 552 -430.5 Q529 -453 497 -453 Q464 -453 441.5 -430.5 Q419 -408 419 -376 Q419 -343 441.5 -320 Q464 -297 497 -297 Z " />
<glyph glyph-name="uniE04C" unicode="&#xe04c;" horiz-adv-x="1007" d="M542 656 L918 874 L918 779 L542 562 L542 656 Z M918 730 L918 586 L746 477 Q842 431 903 348 Q968 261 978 137 Q978 136 978 133 Q979 131 979 129 L1010 129 L1010 0 L991 0 L954 47 L951 47 Q913 0 854 0 L755 0 Q744 -119 656 -181 Q576 -239 457 -239 L369 -239 Q253 -239 174 -185 Q69 -111 69 38 L69 112 L147 174 L223 174 L223 57 Q223 -35 266 -72.5 Q309 -110 413 -110 Q502 -110 543.5 -85.5 Q585 -61 598 0 L548 0 L482 82 L482 129 L808 129 Q823 129 823 144 Q823 207 762 275 Q676 368 550 378 Q542 379 542 387 L542 512 L918 730 Z M318 -297 Q350 -297 373 -320 Q396 -343 396 -376 Q396 -408 373 -430.5 Q350 -453 318 -453 Q285 -453 262.5 -430.5 Q240 -408 240 -376 Q240 -343 262.5 -320 Q285 -297 318 -297 Z M497 -297 Q529 -297 552 -320 Q575 -343 575 -376 Q575 -408 552 -430.5 Q529 -453 497 -453 Q464 -453 441.5 -430.5 Q419 -408 419 -376 Q419 -343 441.5 -320 Q464 -297 497 -297 Z " />
<glyph glyph-name="uniE04D" unicode="&#xe04d;" horiz-adv-x="1056" d="M565 656 L941 874 L941 779 L565 562 L565 656 Z M941 731 L941 586 L769 478 Q838 443 897 383 Q995 279 1001 124 Q1001 71 963 34 Q925 0 876 0 L778 0 Q767 -121 673 -186 Q594 -239 480 -239 L392 -239 Q242 -239 160 -152 Q92 -80 92 38 L92 112 L170 174 L246 174 L246 57 Q246 -36 288.5 -73 Q331 -110 436 -110 Q525 -110 566 -85.5 Q607 -61 621 0 L571 0 L505 82 L505 129 L831 129 Q846 129 846 144 Q846 209 780 280 Q698 367 574 378 Q565 379 565 388 L565 513 L941 731 Z M105 319 Q92 348 92 370 Q92 415 118 443 Q144 471 186 471 Q215 471 247 462 L247 399 Q221 405 209 405 Q172 405 172 362 Q172 345 179 334 Q190 319 210 319 L280 319 L280 288 L253 255 L69 255 L69 319 L105 319 Z " />
<glyph glyph-name="uniE04E" unicode="&#xe04e;" horiz-adv-x="1030" d="M565 656 L941 874 L941 779 L565 562 L565 656 Z M941 730 L941 586 L769 477 Q865 431 926 348 Q991 261 1001 137 Q1001 136 1001 133 Q1002 131 1002 129 L1033 129 L1033 0 L1014 0 L977 47 L974 47 Q936 0 877 0 L778 0 Q767 -119 679 -181 Q599 -239 480 -239 L392 -239 Q276 -239 197 -185 Q92 -111 92 38 L92 112 L170 174 L246 174 L246 57 Q246 -35 289 -72.5 Q332 -110 436 -110 Q525 -110 566.5 -85.5 Q608 -61 621 0 L571 0 L505 82 L505 129 L831 129 Q846 129 846 144 Q846 207 785 275 Q699 368 574 378 Q565 379 565 387 L565 512 L941 730 Z M105 319 Q92 348 92 370 Q92 415 118 443 Q144 471 186 471 Q215 471 247 462 L247 399 Q221 405 209 405 Q172 405 172 362 Q172 345 179 334 Q190 319 210 319 L280 319 L280 288 L253 255 L69 255 L69 319 L105 319 Z " />
<glyph glyph-name="uniE051" unicode="&#xe051;" horiz-adv-x="1218" d="M105 319 Q92 348 92 370 Q92 415 118 443 Q144 471 186 471 Q215 471 247 462 L247 399 Q221 405 209 405 Q172 405 172 362 Q172 345 179 334 Q190 319 210 319 L280 319 L280 288 L253 255 L69 255 L69 319 L105 319 Z M1148 460 L1148 124 Q1148 81 1120 45 Q1082 0 1024 0 L778 0 Q766 -129 662 -193 Q586 -239 480 -239 L392 -239 Q266 -239 185 -175 Q92 -102 92 38 L92 112 L170 174 L246 174 L246 57 Q246 -35 289 -72.5 Q332 -110 436 -110 Q525 -110 566.5 -85.5 Q608 -61 621 0 L571 0 L505 82 L505 129 L980 129 Q994 129 994 143 L994 460 L1148 460 Z M880 -46 Q912 -46 935 -69 Q958 -92 958 -125 Q958 -157 935 -180 Q912 -203 880 -203 Q847 -203 824.5 -180 Q802 -157 802 -125 Q802 -92 824.5 -69 Q847 -46 880 -46 Z M1059 -46 Q1091 -46 1114 -69 Q1137 -92 1137 -125 Q1137 -157 1114 -180 Q1091 -203 1059 -203 Q1026 -203 1003.5 -180 Q981 -157 981 -125 Q981 -92 1003.5 -69 Q1026 -46 1059 -46 Z " />
<glyph glyph-name="uniE052" unicode="&#xe052;" horiz-adv-x="1195" d="M105 319 Q92 348 92 370 Q92 415 118 443 Q144 471 186 471 Q215 471 247 462 L247 399 Q221 405 209 405 Q172 405 172 362 Q172 345 179 334 Q190 319 210 319 L280 319 L280 288 L253 255 L69 255 L69 319 L105 319 Z M1148 460 L1148 138 Q1148 132 1149 129 L1199 129 L1199 0 L1161 0 L1124 47 L1121 47 Q1083 0 1024 0 L778 0 Q765 -132 660 -196 Q583 -239 480 -239 L392 -239 Q268 -239 187 -177 Q92 -103 92 38 L92 112 L170 174 L246 174 L246 57 Q246 -35 289.5 -72.5 Q333 -110 436 -110 Q525 -110 566.5 -85.5 Q608 -61 621 0 L571 0 L505 82 L505 129 L974 129 Q994 129 994 149 L994 460 L1148 460 Z M891 -46 Q924 -46 946.5 -69 Q969 -92 969 -125 Q969 -157 946.5 -180 Q924 -203 891 -203 Q859 -203 836 -180 Q813 -157 813 -125 Q813 -92 836 -69 Q859 -46 891 -46 Z M1070 -46 Q1103 -46 1125.5 -69 Q1148 -92 1148 -125 Q1148 -157 1125.5 -180 Q1103 -203 1070 -203 Q1038 -203 1015 -180 Q992 -157 992 -125 Q992 -92 1015 -69 Q1038 -46 1070 -46 Z " />
<glyph glyph-name="uniE053" unicode="&#xe053;" horiz-adv-x="709" d="M695 674 L695 547 Q626 547 568 505 Q519 468 459 376 Q442 350 435 340 Q428 352 413 380 Q374 451 347 481 Q303 529 246 538 L246 63 L168 0 L92 0 L92 674 L223 674 Q293 674 349 644 Q394 617 435 568 Q483 626 536 652 Q567 667 591.5 670.5 Q616 674 695 674 Z " />
<glyph glyph-name="uniE054" unicode="&#xe054;" horiz-adv-x="647" d="M465 651 L465 463 L168 129 L614 129 L614 79 L551 0 L130 0 Q76 0 44 30.5 Q12 61 12 111 Q12 168 73 233 L465 651 Z " />
<glyph glyph-name="uniE060" unicode="&#xe060;" horiz-adv-x="1286" d="M790 1108 L790 926 L758 899 L726 899 L726 1108 L790 1108 Z M909 861 L909 736 Q909 719 897 703 Q882 685 858 685 L800 685 L781 705 L780 705 Q774 698 765 692 Q753 685 738 685 L661 685 Q637 685 622 703 Q610 721 610 736 L610 811 L642 837 L674 837 L674 743 Q674 740 676 739 Q678 737 681 737 L719 737 Q724 737 725 739 Q728 741 728 746 L728 837 L792 837 L792 737 L838 737 Q840 737 843 738 L844 738 Q845 740 845 743 L845 861 L909 861 Z M1212 613 L1212 124 Q1212 77 1181 42 Q1143 0 1088 0 L874 0 L832 47 L829 47 Q810 22 782 11 Q759 0 732 0 L472 0 Q421 0 379 40 Q331 -9 255 -9 Q157 -9 100 74 Q55 140 55 229 Q55 345 127 412 Q190 471 290 471 Q339 471 383 455 L424 488 L501 488 L501 143 Q501 136 505 133 Q509 129 517 129 L688 129 Q693 129 696 131 Q702 135 702 143 L702 613 L856 613 L856 174 Q856 144 857 129 L1044 129 Q1053 129 1056 136 Q1058 140 1058 143 L1058 613 L1212 613 Z M346 336 Q320 342 301 342 Q258 342 232.5 311.5 Q207 281 207 229 Q207 178 234 146.5 Q261 115 306 115 Q324 115 346 120 L346 336 Z " />
<glyph glyph-name="uniEA26" unicode="&#xea26;" horiz-adv-x="754" d="M297 544 Q240 602 240 660 Q240 716 282 754.5 Q324 793 386 793 Q447 793 486 755 Q525 717 525 657 Q525 629 513 604 Q500 577 464 546 Q595 473 653 389 Q712 302 712 182 Q712 36 601 -59 Q507 -140 381 -140 Q366 -140 350 -139 L313 -93 L313 -63 Q443 -63 518 4 Q589 68 589 179 Q589 270 539.5 338 Q490 406 378 470 Q370 465 352 453 Q285 408 253 382 Q166 302 166 206 Q166 155 185 115 Q203 77 235 63 L235 32 L201 -13 Q133 13 91.5 77 Q50 141 50 219 Q50 413 297 544 Z M384 603 Q419 626 419 656 Q419 696 384 696 Q349 696 349 657 Q349 626 384 603 Z M405 104 Q384 100 366 100 Q312 100 272 144 Q232 188 232 247 Q232 309 269 349 Q309 391 374 391 Q424 391 457 366 Q502 335 502 278 L502 128 Q502 57 442 12 Q394 -25 331 -25 Q321 -25 312 -24 L274 22 L274 52 Q276 52 283 51 Q297 50 309 49 Q363 49 388 76 Q399 88 405 104 Z M406 272 Q406 286 397 296 Q387 306 374 306 Q356 306 343 295 Q327 279 327 248 Q327 218 342 198.5 Q357 179 380 179 Q391 179 406 184 L406 272 Z " />
<glyph glyph-name="uniFB51" unicode="&#xfb51;" horiz-adv-x="270" d="M104 886 Q160 961 225 961 Q262 961 288 939 Q314 917 314 885 Q314 846 281 820.5 Q248 795 198 795 Q161 795 107 813 Q70 826 60 826 Q41 826 3 790 L-36 820 Q1 895 60 895 Q82 895 104 886 Z M164 866 Q194 856 215 856 Q256 856 256 882 Q256 907 228 907 Q197 907 164 866 Z M223 716 L223 143 Q223 141 224 137 Q224 136 225 136 Q228 129 237 129 L274 129 L274 0 L193 0 Q144 0 107 35 Q69 72 69 124 L69 716 L223 716 Z " />
<glyph glyph-name="uniFB57" unicode="&#xfb57;" horiz-adv-x="981" d="M934 460 L934 138 Q934 134 935 129 L985 129 L985 0 L952 0 L910 46 L907 46 Q869 0 810 0 L260 0 Q191 0 139 44 Q69 102 69 194 L69 325 L147 388 L223 388 L223 194 Q223 163 245 144 Q262 129 284 129 L760 129 Q770 129 776 136 Q780 142 780 149 L780 460 L934 460 Z M413 -46 Q445 -46 468 -69 Q491 -92 491 -124 Q491 -157 468 -180 Q445 -203 413 -203 Q380 -203 357.5 -180 Q335 -157 335 -124 Q335 -92 357.5 -69 Q380 -46 413 -46 Z M591 -46 Q623 -46 646 -69 Q669 -92 669 -124 Q669 -157 646 -180 Q623 -203 591 -203 Q559 -203 536 -180 Q513 -157 513 -124 Q513 -92 535.5 -69 Q558 -46 591 -46 Z M502 -203 Q531 -203 552 -223.5 Q573 -244 573 -273 Q573 -302 552 -322.5 Q531 -343 502 -343 Q473 -343 452 -322.5 Q431 -302 431 -273 Q431 -244 452 -223.5 Q473 -203 502 -203 Z " />
<glyph glyph-name="uniFB58" unicode="&#xfb58;" horiz-adv-x="399" d="M330 460 L330 124 Q330 80 302 45 Q263 0 206 0 L-3 0 L-3 129 L162 129 Q168 129 172 132 Q176 136 176 143 L176 460 L330 460 Z M65 -46 Q98 -46 121 -69 Q144 -92 144 -125 Q144 -157 121 -180 Q98 -203 65 -203 Q33 -203 10 -180 Q-13 -157 -13 -125 Q-13 -92 10 -69 Q33 -46 65 -46 Z M243 -46 Q276 -46 298.5 -69 Q321 -92 321 -125 Q321 -157 298.5 -180 Q276 -203 243 -203 Q211 -203 188 -180 Q165 -157 165 -125 Q165 -92 188 -69 Q211 -46 243 -46 Z M154 -203 Q183 -203 204 -223.5 Q225 -244 225 -273 Q225 -302 204 -323 Q183 -344 154 -344 Q125 -344 104.5 -323 Q84 -302 84 -273 Q84 -244 104.5 -223.5 Q125 -203 154 -203 Z " />
<glyph glyph-name="uniFB59" unicode="&#xfb59;" horiz-adv-x="377" d="M330 460 L330 138 Q330 134 331 129 L381 129 L381 0 L350 0 L306 46 L303 46 Q266 0 206 0 L-4 0 L-4 129 L156 129 Q166 129 171 135 Q176 140 176 149 L176 460 L330 460 Z M74 -46 Q107 -46 130 -69 Q153 -92 153 -125 Q153 -157 130 -180 Q107 -203 74 -203 Q42 -203 19 -180 Q-4 -157 -4 -125 Q-4 -92 19 -69 Q42 -46 74 -46 Z M252 -46 Q285 -46 307.5 -69 Q330 -92 330 -125 Q330 -157 307.5 -180 Q285 -203 252 -203 Q220 -203 197 -180 Q174 -157 174 -125 Q174 -92 197 -69 Q220 -46 252 -46 Z M163 -203 Q192 -203 213 -223.5 Q234 -244 234 -273 Q234 -302 213 -323 Q192 -344 163 -344 Q134 -344 113.5 -323 Q93 -302 93 -273 Q93 -244 113.5 -223.5 Q134 -203 163 -203 Z " />
<glyph glyph-name="uniFB67" unicode="&#xfb67;" horiz-adv-x="981" d="M460 640 L459 526 Q501 585 573 585 Q619 585 646 559 Q673 533 673 489 L673 443 Q673 420 656 404 Q640 388 618 388 L351 388 L351 452 L379 452 L379 640 L460 640 Z M603 493 Q603 510 592 519 Q583 528 568 528 Q541 528 513 508 Q483 487 461 452 L596 452 Q603 452 603 459 L603 493 Z M934 460 L934 138 Q934 134 935 129 L985 129 L985 0 L952 0 L910 46 L907 46 Q869 0 810 0 L260 0 Q191 0 139 44 Q69 102 69 194 L69 325 L147 388 L223 388 L223 194 Q223 163 245 144 Q262 129 284 129 L760 129 Q770 129 776 136 Q780 142 780 149 L780 460 L934 460 Z " />
<glyph glyph-name="uniFB68" unicode="&#xfb68;" horiz-adv-x="399" d="M114 777 L114 663 Q155 721 229 721 Q274 721 300.5 695 Q327 669 327 625 L327 580 Q327 557 310 540 Q294 524 273 524 L6 524 L6 588 L33 588 L33 777 L114 777 Z M257 630 Q257 664 221 664 Q165 664 116 588 L250 588 Q257 588 257 595 L257 630 Z M330 460 L330 124 Q330 80 301 45 Q263 0 205 0 L-4 0 L-4 129 L161 129 Q167 129 171 132 Q176 136 176 143 L176 460 L330 460 Z " />
<glyph glyph-name="uniFB69" unicode="&#xfb69;" horiz-adv-x="377" d="M114 777 L114 663 Q155 721 229 721 Q274 721 300.5 695 Q327 669 327 625 L327 580 Q327 557 310 540 Q294 524 273 524 L6 524 L6 588 L33 588 L33 777 L114 777 Z M257 630 Q257 664 221 664 Q165 664 116 588 L250 588 Q257 588 257 595 L257 630 Z M330 460 L330 138 Q330 134 331 129 L380 129 L380 0 L349 0 L305 46 L303 46 Q265 0 205 0 L-4 0 L-4 129 L156 129 Q165 129 170 135 Q176 140 176 149 L176 460 L330 460 Z " />
<glyph glyph-name="uniFB6B" unicode="&#xfb6b;" horiz-adv-x="1035" d="M799 821 Q829 821 849.5 800.5 Q870 780 870 750 Q870 721 849 700.5 Q828 680 799 680 Q770 680 749.5 700.5 Q729 721 729 750 Q729 780 749.5 800.5 Q770 821 799 821 Z M710 680 Q743 680 765.5 657.5 Q788 635 788 602 Q788 569 765.5 546.5 Q743 524 710 524 Q678 524 655 547 Q632 570 632 602 Q632 635 655 657.5 Q678 680 710 680 Z M888 680 Q921 680 943.5 657 Q966 634 966 602 Q966 570 943.5 547 Q921 524 888 524 Q856 524 833 547 Q810 570 810 602 Q810 635 833 657.5 Q856 680 888 680 Z M602 129 Q573 189 573 252 Q573 349 640 412 Q705 472 800 472 Q899 472 964 406 Q1026 344 1026 252 Q1026 186 997 129 L1039 129 L1039 0 L895 0 Q833 0 802 18 L796 18 Q765 0 702 0 L297 0 Q216 0 159 59 Q106 115 106 194 L106 325 L184 388 L260 388 L260 194 Q260 169 275 151 Q293 129 321 129 L602 129 Z M799 131 Q873 147 873 238 Q873 278 857 308 Q834 343 799 343 Q767 343 746 314 Q724 284 724 238 Q724 146 799 131 Z " />
<glyph glyph-name="uniFB6C" unicode="&#xfb6c;" horiz-adv-x="650" d="M383 821 Q412 821 433 800.5 Q454 780 454 750 Q454 721 433 700.5 Q412 680 383 680 Q354 680 333.5 700.5 Q313 721 313 750 Q313 780 333.5 800.5 Q354 821 383 821 Z M294 680 Q327 680 349.5 657.5 Q372 635 372 602 Q372 570 349.5 547 Q327 524 294 524 Q262 524 239 547 Q216 570 216 602 Q216 634 239 657 Q262 680 294 680 Z M472 680 Q505 680 527.5 657 Q550 634 550 602 Q550 570 527 547 Q504 524 472 524 Q440 524 417 547 Q394 570 394 602 Q394 635 416.5 657.5 Q439 680 472 680 Z M177 129 Q165 158 159 182 Q150 215 150 252 Q150 325 189 379 Q257 472 383 472 Q473 472 531 423 Q594 370 594 285 L594 124 Q594 80 566 45 Q528 0 470 0 L-4 0 L-4 129 L177 129 Z M440 284 Q440 315 416 332 Q400 343 383 343 Q334 343 313 298 Q302 273 302 238 Q302 171 343 143 Q367 129 405 129 L426 129 Q440 129 440 143 L440 284 Z " />
<glyph glyph-name="uniFB6D" unicode="&#xfb6d;" horiz-adv-x="624" d="M375 821 Q405 821 425.5 800.5 Q446 780 446 750 Q446 721 425 700.5 Q404 680 375 680 Q346 680 325.5 700.5 Q305 721 305 750 Q305 780 325.5 800.5 Q346 821 375 821 Z M286 680 Q319 680 341.5 657.5 Q364 635 364 602 Q364 570 341.5 547 Q319 524 286 524 Q254 524 231 547 Q208 570 208 602 Q208 634 231 657 Q254 680 286 680 Z M464 680 Q497 680 519.5 657 Q542 634 542 602 Q542 570 519.5 547 Q497 524 464 524 Q432 524 409 547 Q386 570 386 602 Q386 635 409 657.5 Q432 680 464 680 Z M179 129 Q150 187 150 252 Q150 312 177 362 Q207 413 260 442.5 Q313 472 377 472 Q473 472 539 408 Q604 345 604 252 Q604 186 575 129 L628 129 L628 0 L472 0 Q410 0 379 18 L373 18 Q342 0 279 0 L-4 0 L-4 129 L179 129 Z M376 131 Q451 146 451 238 Q450 284 429.5 313.5 Q409 343 376 343 Q344 343 323 313 Q302 283 302 238 Q302 147 376 131 Z " />
<glyph glyph-name="uniFB7B" unicode="&#xfb7b;" horiz-adv-x="689" d="M209 443 Q309 472 383 472 Q502 472 584 397 Q660 327 660 226 L660 187 Q660 148 660 129 L692 129 L692 0 L655 0 L635 46 L633 46 Q617 27 592 14 Q565 0 519 0 L334 0 Q272 -4 245 -27 Q209 -57 209 -121 Q209 -180 244.5 -218 Q280 -256 336 -256 Q349 -256 362 -253 L362 -296 L295 -378 Q195 -378 134 -316 Q55 -239 55 -123 Q55 8 138 71 Q216 129 346 129 L491 129 Q506 129 506 143 L506 209 Q506 265 459.5 303 Q413 341 346 341 Q296 341 209 320 L209 443 Z M393 -46 Q426 -46 449 -69 Q472 -92 472 -124 Q472 -157 449 -179.5 Q426 -202 393 -202 Q361 -202 338.5 -179.5 Q316 -157 316 -124 Q316 -92 338.5 -69 Q361 -46 393 -46 Z M571 -46 Q604 -46 626.5 -69 Q649 -92 649 -124 Q649 -157 626.5 -179.5 Q604 -202 571 -202 Q539 -202 516 -179.5 Q493 -157 493 -124 Q493 -92 516 -69 Q539 -46 571 -46 Z M483 -202 Q512 -202 532.5 -223 Q553 -244 553 -273 Q553 -302 532.5 -322.5 Q512 -343 483 -343 Q453 -343 432.5 -322.5 Q412 -302 412 -273 Q412 -244 432.5 -223 Q453 -202 483 -202 Z " />
<glyph glyph-name="uniFB7C" unicode="&#xfb7c;" horiz-adv-x="636" d="M129 443 Q229 472 302 472 Q422 472 505 397 Q581 327 581 226 L581 124 Q581 73 545 37 Q508 0 456 0 L-4 0 L-4 129 L412 129 Q426 129 426 143 L426 209 Q426 275 369 312 Q324 341 265 341 Q210 341 129 320 L129 443 Z M199 -46 Q232 -46 255 -69 Q278 -92 278 -124 Q278 -157 255 -180 Q232 -203 199 -203 Q167 -203 144.5 -180 Q122 -157 122 -124 Q122 -92 144.5 -69 Q167 -46 199 -46 Z M378 -46 Q410 -46 432.5 -69 Q455 -92 455 -124 Q455 -157 432.5 -180 Q410 -203 378 -203 Q345 -203 322 -180 Q299 -157 299 -124 Q299 -92 322 -69 Q345 -46 378 -46 Z M289 -203 Q318 -203 338.5 -223.5 Q359 -244 359 -273 Q359 -302 338.5 -322.5 Q318 -343 289 -343 Q259 -343 238.5 -322.5 Q218 -302 218 -273 Q218 -244 238.5 -223.5 Q259 -203 289 -203 Z " />
<glyph glyph-name="uniFB7D" unicode="&#xfb7d;" horiz-adv-x="609" d="M129 443 Q224 472 304 472 Q423 472 505 397 Q581 327 581 226 L581 138 Q581 134 582 129 L613 129 L613 0 L593 0 L556 46 L553 46 Q516 0 456 0 L-4 0 L-4 129 L412 129 Q426 129 426 143 L426 209 Q426 266 380.5 303.5 Q335 341 267 341 Q211 341 129 320 L129 443 Z M199 -46 Q232 -46 255 -69 Q278 -92 278 -124 Q278 -157 255 -180 Q232 -203 199 -203 Q167 -203 144.5 -180 Q122 -157 122 -124 Q122 -92 144.5 -69 Q167 -46 199 -46 Z M378 -46 Q410 -46 432.5 -69 Q455 -92 455 -124 Q455 -157 432.5 -180 Q410 -203 378 -203 Q345 -203 322 -180 Q299 -157 299 -124 Q299 -92 322 -69 Q345 -46 378 -46 Z M289 -203 Q318 -203 338.5 -223.5 Q359 -244 359 -273 Q359 -302 338.5 -322.5 Q318 -343 289 -343 Q259 -343 238.5 -322.5 Q218 -302 218 -273 Q218 -244 238.5 -223.5 Q259 -203 289 -203 Z " />
<glyph glyph-name="uniFB89" unicode="&#xfb89;" horiz-adv-x="499" d="M221 777 L221 663 Q262 721 336 721 Q381 721 407.5 695 Q434 669 434 625 L434 580 Q434 557 417 540 Q401 524 380 524 L113 524 L113 588 L140 588 L140 777 L221 777 Z M364 630 Q364 664 328 664 Q270 664 224 588 L358 588 Q364 588 364 595 L364 630 Z M140 466 Q166 472 212 472 Q335 472 410 395 Q477 326 477 220 L477 171 Q477 143 478 129 L503 129 L503 0 L490 0 L453 46 L450 46 Q441 36 434 29 Q399 1 355 0 L39 0 L39 129 L309 129 Q323 129 323 143 L323 208 Q323 269 285.5 308 Q248 347 188 347 Q157 347 140 343 L140 466 Z " />
<glyph glyph-name="uniFB8B" unicode="&#xfb8b;" horiz-adv-x="411" d="M217 821 Q247 821 267.5 800.5 Q288 780 288 750 Q288 721 267 700.5 Q246 680 217 680 Q188 680 167.5 700.5 Q147 721 147 750 Q147 780 167.5 800.5 Q188 821 217 821 Z M128 680 Q161 680 183.5 657.5 Q206 635 206 602 Q206 570 183.5 547 Q161 524 128 524 Q96 524 73 547 Q50 570 50 602 Q50 635 73 657.5 Q96 680 128 680 Z M306 680 Q339 680 361.5 657.5 Q384 635 384 602 Q384 570 361.5 547 Q339 524 306 524 Q274 524 251 547 Q228 570 228 602 Q228 635 251 657.5 Q274 680 306 680 Z M364 460 L364 129 L414 129 L414 0 L362 0 Q350 -116 261 -182 Q186 -237 84 -237 Q75 -237 60 -236 Q54 -236 51 -236 L-12 -157 L-12 -104 Q-9 -105 -1 -106 Q25 -111 45 -111 Q128 -109 168 -69 Q209 -29 209 56 L209 460 L364 460 Z " />
<glyph glyph-name="uniFB8D" unicode="&#xfb8d;" horiz-adv-x="411" d="M150 776 L149 662 Q189 721 263 721 Q309 721 335.5 695 Q362 669 362 625 L362 579 Q362 556 345 539 Q329 524 307 524 L40 524 L40 588 L68 588 L68 776 L150 776 Z M292 629 Q292 664 259 664 Q201 664 151 588 L285 588 Q292 588 292 595 L292 629 Z M364 460 L364 129 L414 129 L414 0 L362 0 Q350 -117 261 -183 Q186 -237 84 -237 Q75 -237 60 -236 Q54 -236 51 -236 L-12 -157 L-12 -104 Q-9 -105 -1 -106 Q25 -111 45 -111 Q128 -109 168 -69 Q209 -29 209 56 L209 460 L364 460 Z " />
<glyph glyph-name="uniFB8F" unicode="&#xfb8f;" horiz-adv-x="963" d="M874 730 L874 586 L702 477 Q796 432 857 351 Q931 253 934 135 Q934 134 935 131 Q935 130 935 129 L967 129 L967 0 L947 0 L910 46 L907 46 Q869 0 811 0 L260 0 Q183 0 127 54 Q69 111 69 194 L69 332 L144 393 L223 393 L223 194 Q223 167 241 148 Q258 129 284 129 L765 129 Q771 129 775 134 Q779 138 779 144 Q773 209 723 269 Q636 368 507 378 Q498 379 498 387 L499 513 L874 730 Z " />
<glyph glyph-name="uniFB90" unicode="&#xfb90;" horiz-adv-x="611" d="M494 731 L494 586 L322 478 Q428 426 494 326 Q555 234 555 136 Q555 77 520 38.5 Q485 0 430 0 L-4 0 L-4 129 L385 129 Q399 129 399 144 Q399 222 324 291 Q236 369 127 378 Q118 379 118 388 L118 513 L494 731 Z " />
<glyph glyph-name="uniFB91" unicode="&#xfb91;" horiz-adv-x="584" d="M494 730 L494 586 L323 477 Q420 430 479 348 Q544 259 554 148 L555 129 L587 129 L587 0 L567 0 L530 46 L527 46 Q489 0 430 0 L-4 0 L-4 129 L385 129 Q399 129 399 144 Q399 206 338 275 Q252 369 127 378 Q118 379 118 387 L118 512 L494 730 Z " />
<glyph glyph-name="uniFB93" unicode="&#xfb93;" horiz-adv-x="963" d="M498 656 L874 874 L874 779 L498 562 L498 656 Z M874 730 L874 586 L702 477 Q796 432 857 351 Q931 253 934 135 Q934 134 935 131 Q935 130 935 129 L967 129 L967 0 L947 0 L910 46 L907 46 Q869 0 811 0 L260 0 Q183 0 127 54 Q69 111 69 194 L69 332 L144 393 L223 393 L223 194 Q223 167 241 148 Q258 129 284 129 L765 129 Q771 129 775 134 Q779 138 779 144 Q773 209 723 269 Q636 368 507 378 Q498 379 498 387 L499 513 L874 730 Z " />
<glyph glyph-name="uniFB94" unicode="&#xfb94;" horiz-adv-x="634" d="M118 656 L494 874 L494 779 L118 562 L118 656 Z M494 731 L494 586 L322 478 Q428 426 494 326 Q555 234 555 136 Q555 77 520 38.5 Q485 0 430 0 L-4 0 L-4 129 L385 129 Q399 129 399 144 Q399 222 324 291 Q236 369 127 378 Q118 379 118 388 L118 513 L494 731 Z " />
<glyph glyph-name="uniFB95" unicode="&#xfb95;" horiz-adv-x="602" d="M118 656 L494 874 L494 779 L118 562 L118 656 Z M494 730 L494 586 L323 477 Q420 430 479 348 Q544 259 554 148 L555 129 L587 129 L587 0 L567 0 L530 46 L527 46 Q489 0 430 0 L-4 0 L-4 129 L385 129 Q399 129 399 144 Q399 206 338 275 Q252 369 127 378 Q118 379 118 387 L118 512 L494 730 Z " />
<glyph glyph-name="uniFB9F" unicode="&#xfb9f;" horiz-adv-x="804" d="M757 460 L757 129 L808 129 L808 0 L755 0 Q744 -116 659 -180 Q579 -239 457 -239 L369 -239 Q227 -239 145 -161 Q69 -88 69 38 L69 191 L147 253 L223 253 L223 57 Q223 -35 266 -72.5 Q309 -110 413 -110 Q517 -110 559 -74 Q603 -35 603 57 L603 460 L757 460 Z " />
<glyph glyph-name="uniFBA5" unicode="&#xfba5;" horiz-adv-x="548" d="M238 595 Q225 625 225 646 Q225 692 251.5 719.5 Q278 747 321 747 Q349 747 380 738 L380 675 Q356 682 343 682 Q305 682 305 638 Q305 621 313 610 Q323 595 344 595 L413 595 L413 564 L386 531 L202 531 L202 595 L238 595 Z M501 487 L501 143 Q501 137 505 133 Q509 129 517 129 L551 129 L551 0 L472 0 Q421 0 379 40 Q330 -9 261 -9 L260 -9 L258 -9 Q158 -9 101 74 Q55 139 55 229 Q55 339 125 411 Q188 476 282 476 Q333 476 383 455 L424 487 L501 487 Z M346 336 Q322 342 301 342 Q257 342 232 312 Q207 282 207 229 Q207 179 234.5 147 Q262 115 306 115 Q323 115 346 120 L346 336 Z " />
<glyph glyph-name="uniFBA7" unicode="&#xfba7;" horiz-adv-x="800" d="M758 460 L758 143 Q758 137 762 133 Q766 129 774 129 L808 129 L808 0 L728 0 Q662 0 625 54 Q603 86 603 124 L603 300 Q471 283 471 108 Q471 94 473 60 Q474 41 474 32 L474 0 L423 0 Q286 0 192 48 Q104 94 69 177 Q50 228 50 311 Q50 341 53 372 L195 372 Q194 346 194 330 Q194 163 337 158 Q347 317 473 402 Q562 460 680 460 L758 460 Z " />
<glyph glyph-name="uniFBA8" unicode="&#xfba8;" horiz-adv-x="468" d="M399 460 L399 124 Q399 66 355 29 Q320 0 274 0 L235 0 Q202 -48 202 -74 Q202 -105 235 -105 L303 -105 L303 -196 L197 -196 Q150 -196 122 -169.5 Q94 -143 94 -98 Q94 -52 132 0 L-4 0 L-4 129 L230 129 Q238 129 241 133 Q245 138 245 143 L245 460 L399 460 Z " />
<glyph glyph-name="uniFBA9" unicode="&#xfba9;" horiz-adv-x="569" d="M573 129 L573 0 L538 0 Q531 0 526 -4 Q522 -7 522 -14 L522 -348 L444 -347 Q332 -347 244 -298 Q171 -251 138 -182.5 Q105 -114 100 0 L-4 0 L-4 129 L238 129 L238 66 Q238 56 238 35 Q238 17 238 8 Q238 -45 243 -75 Q266 -174 368 -187 L368 6 Q368 44 390 75 Q426 129 492 129 L573 129 Z " />
<glyph glyph-name="uniFBAB" unicode="&#xfbab;" horiz-adv-x="800" d="M259 449 Q372 499 471 499 Q652 499 731 369 Q755 327 762 297.5 Q769 268 769 204 L769 167 Q769 155 770 129 L803 129 L803 0 L782 0 L745 46 L742 46 Q724 25 701 13 Q676 0 647 0 L386 0 Q356 0 334 14 L330 14 Q306 0 260 0 L118 0 L55 78 L55 129 L183 129 Q171 154 167 171 Q161 195 161 220 Q161 278 196 321 Q221 352 259 369 L259 449 Z M615 203 Q615 383 438 383 Q412 383 380 380 Q435 364 468 321 Q503 277 503 220 Q503 194 496 169 Q488 141 481 129 L601 129 Q608 129 612 134 Q615 137 615 143 L615 203 Z M331 147 Q356 152 368 170 Q378 187 378 215 Q378 229 374 247 Q360 281 331 281 Q309 281 295 260 Q283 241 283 215 Q283 191 291 176 Q303 153 331 147 Z " />
<glyph glyph-name="uniFBAC" unicode="&#xfbac;" horiz-adv-x="808" d="M239 449 Q353 499 461 499 Q598 499 680 414 Q752 339 752 220 L752 124 Q752 66 709 30 Q674 0 628 0 L383 0 Q337 0 314 14 L309 14 Q286 0 240 0 L-4 0 L-4 129 L163 129 Q151 152 147 171 Q141 193 141 220 Q141 274 171 315 Q197 350 239 369 L239 449 Z M598 203 Q598 296 546 343 Q501 384 422 384 Q396 384 360 380 Q414 364 448 321 Q483 277 483 220 Q483 194 476 169 Q467 141 461 129 L584 129 Q590 129 595 134 Q598 137 598 143 L598 203 Z M311 147 Q338 153 349 174 Q358 189 358 215 Q358 242 344 263 Q330 281 310 281 Q289 281 276 261.5 Q263 242 263 211 Q263 158 311 147 Z " />
<glyph glyph-name="uniFBAD" unicode="&#xfbad;" horiz-adv-x="775" d="M239 449 Q349 498 458 498 Q594 498 674 414 Q746 339 746 220 L746 161 Q746 151 747 129 L779 129 L779 0 L759 0 L722 46 L719 46 Q705 30 689 20 Q659 0 624 0 L366 0 Q336 0 314 14 L309 14 Q286 0 240 0 L-4 0 L-4 129 L163 129 Q151 152 147 171 Q141 193 141 220 Q141 276 174 319 Q198 351 239 369 L239 449 Z M592 203 Q592 383 417 383 Q392 383 360 380 Q412 364 447 321 Q483 278 483 220 Q483 193 476 169 Q468 143 461 129 L578 129 Q584 129 588 132 Q592 136 592 143 L592 203 Z M311 147 Q358 156 358 215 Q358 244 344 263 Q330 281 310 281 Q290 281 276.5 261.5 Q263 242 263 213 Q263 157 311 147 Z " />
<glyph glyph-name="uniFBAF" unicode="&#xfbaf;" horiz-adv-x="790" d="M928 129 L928 0 L302 0 Q271 0 249 -12 Q224 -27 224 -55 Q224 -79 242 -93 Q258 -106 285 -106 L697 -106 L697 -157 L634 -235 L243 -235 Q145 -235 97 -162 Q69 -119 69 -61 Q69 18 116 69 Q172 129 266 129 L928 129 Z " />
<glyph glyph-name="uniFBB1" unicode="&#xfbb1;" horiz-adv-x="786" d="M132 316 Q119 345 119 366 Q119 411 145 439.5 Q171 468 212 468 Q242 468 274 458 L274 395 Q249 402 236 402 Q198 402 198 359 Q198 340 206 331 Q216 316 237 316 L306 316 L306 285 L280 252 L96 252 L96 316 L132 316 Z M950 129 L950 0 L324 0 Q293 0 271 -12 Q246 -27 246 -55 Q246 -79 264 -93 Q280 -106 307 -106 L719 -106 L719 -157 L656 -235 L265 -235 Q167 -235 119 -162 Q91 -119 91 -61 Q91 18 138 69 Q194 129 288 129 L950 129 Z " />
<glyph glyph-name="uniFBB2" unicode="&#xfbb2;" d="M78 718 Q111 718 133.5 695.5 Q156 673 156 640 Q156 608 133.5 585 Q111 562 78 562 Q46 562 23 585 Q0 608 0 640 Q0 673 23 695.5 Q46 718 78 718 Z " />
<glyph glyph-name="uniFBB3" unicode="&#xfbb3;" d="M78 -107 Q111 -107 133.5 -130 Q156 -153 156 -185 Q156 -218 133.5 -240.5 Q111 -263 78 -263 Q46 -263 23 -240.5 Q0 -218 0 -185 Q0 -153 23 -130 Q46 -107 78 -107 Z " />
<glyph glyph-name="uniFBB4" unicode="&#xfbb4;" d="M78 732 Q111 732 133.5 709.5 Q156 687 156 654 Q156 622 133.5 599 Q111 576 78 576 Q46 576 23 599 Q0 622 0 654 Q0 687 23 709.5 Q46 732 78 732 Z M257 732 Q290 732 312.5 709.5 Q335 687 335 654 Q335 622 312.5 599 Q290 576 257 576 Q225 576 202 599 Q179 622 179 654 Q179 687 202 709.5 Q225 732 257 732 Z " />
<glyph glyph-name="uniFBB5" unicode="&#xfbb5;" d="M78 -119 Q111 -119 133.5 -141.5 Q156 -164 156 -197 Q156 -230 133.5 -252.5 Q111 -275 78 -275 Q46 -275 23 -252 Q0 -229 0 -197 Q0 -165 23 -142 Q46 -119 78 -119 Z M257 -119 Q290 -119 312.5 -141.5 Q335 -164 335 -197 Q335 -230 312.5 -252.5 Q290 -275 257 -275 Q225 -275 202 -252 Q179 -229 179 -197 Q179 -165 202 -142 Q225 -119 257 -119 Z " />
<glyph glyph-name="uniFBB6" unicode="&#xfbb6;" d="M167 867 Q196 867 217 846 Q238 825 238 796 Q238 766 217 745.5 Q196 725 167 725 Q138 725 117.5 745.5 Q97 766 97 796 Q97 825 117.5 846 Q138 867 167 867 Z M78 725 Q111 725 133.5 702.5 Q156 680 156 647 Q156 615 133.5 592 Q111 569 78 569 Q46 569 23 592 Q0 615 0 647 Q0 680 23 702.5 Q46 725 78 725 Z M256 725 Q289 725 311.5 702.5 Q334 680 334 647 Q334 615 311 592 Q288 569 256 569 Q224 569 201 592 Q178 615 178 647 Q178 680 200.5 702.5 Q223 725 256 725 Z " />
<glyph glyph-name="uniFBB7" unicode="&#xfbb7;" d="M168 -94 Q197 -94 217.5 -114.5 Q238 -135 238 -164 Q238 -194 217.5 -214.5 Q197 -235 168 -235 Q138 -235 117.5 -214.5 Q97 -194 97 -164 Q97 -135 117.5 -114.5 Q138 -94 168 -94 Z M78 -234 Q111 -234 133.5 -257 Q156 -280 156 -312 Q156 -345 133.5 -367.5 Q111 -390 78 -390 Q46 -390 23 -367.5 Q0 -345 0 -312 Q0 -280 23 -257 Q46 -234 78 -234 Z M257 -234 Q290 -234 312.5 -257 Q335 -280 335 -312 Q335 -345 312.5 -367.5 Q290 -390 257 -390 Q225 -390 202 -367.5 Q179 -345 179 -312 Q179 -280 202 -257 Q225 -234 257 -234 Z " />
<glyph glyph-name="uniFBB9" unicode="&#xfbb9;" d="M80 -119 Q112 -119 135 -141.5 Q158 -164 158 -196 Q158 -229 135 -252 Q112 -275 80 -275 Q47 -275 24.5 -252 Q2 -229 2 -196 Q2 -164 24.5 -141.5 Q47 -119 80 -119 Z M258 -119 Q290 -119 313 -141.5 Q336 -164 336 -196 Q336 -229 313 -252 Q290 -275 258 -275 Q225 -275 202.5 -252 Q180 -229 180 -196 Q180 -164 202.5 -141.5 Q225 -119 258 -119 Z M169 -275 Q198 -275 219 -295.5 Q240 -316 240 -345 Q240 -374 219 -395 Q198 -416 169 -416 Q140 -416 119 -395 Q98 -374 98 -345 Q98 -316 119 -295.5 Q140 -275 169 -275 Z " />
<glyph glyph-name="uniFBE8" unicode="&#xfbe8;" horiz-adv-x="399" d="M330 460 L330 124 Q330 80 301 45 Q263 0 205 0 L-4 0 L-4 129 L161 129 Q167 129 171 132 Q176 136 176 143 L176 460 L330 460 Z " />
<glyph glyph-name="uniFBE9" unicode="&#xfbe9;" horiz-adv-x="377" d="M330 460 L330 138 Q330 134 331 129 L380 129 L380 0 L349 0 L305 46 L303 46 Q265 0 205 0 L-4 0 L-4 129 L156 129 Q165 129 170 135 Q176 140 176 149 L176 460 L330 460 Z " />
<glyph glyph-name="uniFBFC" unicode="&#xfbfc;" horiz-adv-x="795" d="M223 57 Q223 -38 269.5 -75 Q316 -112 435 -112 Q596 -112 596 -28 Q596 -3 578.5 10 Q561 23 501 42 Q407 72 364.5 123 Q322 174 322 258 Q322 369 396 426 Q456 472 555 472 Q619 472 673 455 L673 340 Q623 352 586 352 Q534 352 502.5 327 Q471 302 471 261 Q471 222 491.5 202.5 Q512 183 586 153 Q671 117 705 85 Q750 42 750 -24 Q750 -142 643 -199 Q567 -239 457 -239 L369 -239 Q260 -239 182 -191 Q69 -118 69 38 L69 112 L147 174 L223 174 L223 57 Z " />
<glyph glyph-name="uniFBFD" unicode="&#xfbfd;" horiz-adv-x="706" d="M223 174 L223 57 Q223 -35 266 -72.5 Q309 -110 413 -110 Q502 -110 543.5 -85.5 Q585 -61 598 0 L548 0 L482 82 L482 129 L804 129 L804 0 L755 0 Q742 -128 642 -191 Q565 -239 457 -239 L369 -239 Q244 -239 164 -177 Q69 -103 69 38 L69 112 L147 174 L223 174 Z " />
<glyph glyph-name="uniFBFE" unicode="&#xfbfe;" horiz-adv-x="401" d="M330 460 L330 124 Q330 80 301 45 Q263 0 205 0 L-4 0 L-4 129 L161 129 Q167 129 171 132 Q176 136 176 143 L176 460 L330 460 Z M77 -46 Q109 -46 132 -69 Q155 -92 155 -125 Q155 -157 132 -180 Q109 -203 77 -203 Q44 -203 21.5 -180 Q-1 -157 -1 -125 Q-1 -92 21.5 -69 Q44 -46 77 -46 Z M256 -46 Q288 -46 311 -69 Q334 -92 334 -125 Q334 -157 311 -180 Q288 -203 256 -203 Q223 -203 200.5 -180 Q178 -157 178 -125 Q178 -92 200.5 -69 Q223 -46 256 -46 Z " />
<glyph glyph-name="uniFBFF" unicode="&#xfbff;" horiz-adv-x="377" d="M330 460 L330 138 Q330 134 331 129 L381 129 L381 0 L350 0 L306 46 L303 46 Q266 0 206 0 L-3 0 L-3 129 L156 129 Q166 129 171 135 Q176 140 176 149 L176 460 L330 460 Z M72 -46 Q105 -46 128 -69 Q151 -92 151 -125 Q151 -157 128 -180 Q105 -203 72 -203 Q40 -203 17 -180 Q-6 -157 -6 -125 Q-6 -92 17 -69 Q40 -46 72 -46 Z M251 -46 Q284 -46 307 -69 Q330 -92 330 -125 Q330 -157 307 -180 Q284 -203 251 -203 Q219 -203 196.5 -180 Q174 -157 174 -125 Q174 -92 196.5 -69 Q219 -46 251 -46 Z " />
<glyph glyph-name="uniFC3D" unicode="&#xfc3d;" horiz-adv-x="1037" d="M918 731 L918 586 L746 478 Q825 439 880 381 Q975 279 981 124 Q981 72 944 35 Q908 0 857 0 L755 0 Q744 -121 650 -186 Q571 -239 457 -239 L369 -239 Q219 -239 137 -152 Q69 -80 69 38 L69 112 L147 174 L223 174 L223 57 Q223 -36 265.5 -73 Q308 -110 413 -110 Q502 -110 543 -85.5 Q584 -61 598 0 L548 0 L482 82 L482 129 L812 129 Q826 129 826 144 Q826 222 752 293 Q669 369 550 378 Q542 379 542 388 L542 513 L918 731 Z " />
<glyph glyph-name="uniFC3E" unicode="&#xfc3e;" horiz-adv-x="1037" d="M918 731 L918 586 L746 478 Q825 439 880 381 Q975 279 981 124 Q981 72 944 35 Q908 0 857 0 L755 0 Q744 -121 650 -186 Q571 -239 457 -239 L369 -239 Q219 -239 137 -152 Q69 -80 69 38 L69 112 L147 174 L223 174 L223 57 Q223 -36 265.5 -73 Q308 -110 413 -110 Q502 -110 543 -85.5 Q584 -61 598 0 L548 0 L482 82 L482 129 L812 129 Q826 129 826 144 Q826 222 752 293 Q669 369 550 378 Q542 379 542 388 L542 513 L918 731 Z M318 -297 Q350 -297 373 -320 Q396 -343 396 -376 Q396 -408 373 -430.5 Q350 -453 318 -453 Q285 -453 262.5 -430.5 Q240 -408 240 -376 Q240 -343 262.5 -320 Q285 -297 318 -297 Z M497 -297 Q529 -297 552 -320 Q575 -343 575 -376 Q575 -408 552 -430.5 Q529 -453 497 -453 Q464 -453 441.5 -430.5 Q419 -408 419 -376 Q419 -343 441.5 -320 Q464 -297 497 -297 Z " />
<glyph glyph-name="uniFC59" unicode="&#xfc59;" horiz-adv-x="1195" d="M1125 460 L1125 124 Q1125 81 1097 45 Q1059 0 1001 0 L755 0 Q742 -129 639 -193 Q563 -239 457 -239 L369 -239 Q243 -239 162 -175 Q69 -102 69 38 L69 112 L147 174 L223 174 L223 57 Q223 -35 266 -72.5 Q309 -110 413 -110 Q502 -110 543.5 -85.5 Q585 -61 598 0 L548 0 L482 82 L482 129 L957 129 Q971 129 971 143 L971 460 L1125 460 Z M858 -46 Q890 -46 913 -69 Q936 -92 936 -125 Q936 -157 913 -180 Q890 -203 858 -203 Q825 -203 802.5 -180 Q780 -157 780 -125 Q780 -92 803 -69 Q826 -46 858 -46 Z M1036 -46 Q1068 -46 1091 -69 Q1114 -92 1114 -125 Q1114 -157 1091 -180 Q1068 -203 1036 -203 Q1003 -203 980.5 -180 Q958 -157 958 -125 Q958 -92 980.5 -69 Q1003 -46 1036 -46 Z " />
<glyph glyph-name="uniFC5A" unicode="&#xfc5a;" horiz-adv-x="1200" d="M1125 460 L1125 124 Q1125 81 1097 45 Q1059 0 1001 0 L755 0 Q742 -129 639 -193 Q563 -239 457 -239 L369 -239 Q243 -239 162 -175 Q69 -102 69 38 L69 112 L147 174 L223 174 L223 57 Q223 -35 266 -72.5 Q309 -110 413 -110 Q502 -110 543.5 -85.5 Q585 -61 598 0 L548 0 L482 82 L482 129 L957 129 Q971 129 971 143 L971 460 L1125 460 Z M858 -46 Q890 -46 913 -69 Q936 -92 936 -125 Q936 -157 913 -180 Q890 -203 858 -203 Q825 -203 802.5 -180 Q780 -157 780 -125 Q780 -92 803 -69 Q826 -46 858 -46 Z M1036 -46 Q1068 -46 1091 -69 Q1114 -92 1114 -125 Q1114 -157 1091 -180 Q1068 -203 1036 -203 Q1003 -203 980.5 -180 Q958 -157 958 -125 Q958 -92 980.5 -69 Q1003 -46 1036 -46 Z M318 -297 Q350 -297 373 -320 Q396 -343 396 -376 Q396 -408 373 -430.5 Q350 -453 318 -453 Q285 -453 262.5 -430.5 Q240 -408 240 -376 Q240 -343 262.5 -320 Q285 -297 318 -297 Z M497 -297 Q529 -297 552 -320 Q575 -343 575 -376 Q575 -408 552 -430.5 Q529 -453 497 -453 Q464 -453 441.5 -430.5 Q419 -408 419 -376 Q419 -343 441.5 -320 Q464 -297 497 -297 Z " />
<glyph glyph-name="uniFC83" unicode="&#xfc83;" horiz-adv-x="1010" d="M918 730 L918 586 L746 477 Q850 428 910 344 Q967 266 979 167 Q981 157 982 129 L1014 129 L1014 0 L994 0 L957 47 L954 47 Q916 0 857 0 L755 0 Q744 -119 656 -181 Q576 -239 457 -239 L369 -239 Q253 -239 174 -185 Q69 -111 69 38 L69 112 L147 174 L223 174 L223 57 Q223 -35 266 -72.5 Q309 -110 413 -110 Q502 -110 543.5 -85.5 Q585 -61 598 0 L548 0 L482 82 L482 129 L812 129 Q826 129 826 144 Q826 205 771 270 Q687 368 550 378 Q542 379 542 387 L542 512 L918 730 Z " />
<glyph glyph-name="uniFC84" unicode="&#xfc84;" horiz-adv-x="1010" d="M918 730 L918 586 L746 477 Q850 428 910 344 Q967 266 979 167 Q980 163 981 140 Q982 131 982 129 L1014 129 L1014 0 L994 0 L957 47 L954 47 Q916 0 857 0 L755 0 Q744 -119 656 -181 Q576 -239 457 -239 L369 -239 Q253 -239 174 -185 Q69 -111 69 38 L69 112 L147 174 L223 174 L223 57 Q223 -35 266 -72.5 Q309 -110 413 -110 Q502 -110 543.5 -85.5 Q585 -61 598 0 L548 0 L482 82 L482 129 L812 129 Q826 129 826 144 Q826 207 769 273 Q687 367 550 378 Q542 379 542 387 L542 512 L918 730 Z M318 -297 Q350 -297 373 -320 Q396 -343 396 -376 Q396 -408 373 -430.5 Q350 -453 318 -453 Q285 -453 262.5 -430.5 Q240 -408 240 -376 Q240 -343 262.5 -320 Q285 -297 318 -297 Z M497 -297 Q529 -297 552 -320 Q575 -343 575 -376 Q575 -408 552 -430.5 Q529 -453 497 -453 Q464 -453 441.5 -430.5 Q419 -408 419 -376 Q419 -343 441.5 -320 Q464 -297 497 -297 Z " />
<glyph glyph-name="uniFC95" unicode="&#xfc95;" horiz-adv-x="1172" d="M1125 460 L1125 138 Q1125 132 1126 129 L1176 129 L1176 0 L1138 0 L1101 47 L1098 47 Q1060 0 1001 0 L755 0 Q742 -132 637 -196 Q560 -239 457 -239 L369 -239 Q245 -239 164 -177 Q69 -103 69 38 L69 112 L147 174 L223 174 L223 57 Q223 -35 266.5 -72.5 Q310 -110 413 -110 Q502 -110 543.5 -85.5 Q585 -61 598 0 L548 0 L482 82 L482 129 L951 129 Q971 129 971 149 L971 460 L1125 460 Z M868 -46 Q901 -46 923.5 -69 Q946 -92 946 -125 Q946 -157 923.5 -180 Q901 -203 868 -203 Q836 -203 813 -180 Q790 -157 790 -125 Q790 -92 813 -69 Q836 -46 868 -46 Z M1047 -46 Q1080 -46 1102.5 -69 Q1125 -92 1125 -125 Q1125 -157 1102.5 -180 Q1080 -203 1047 -203 Q1015 -203 992 -180 Q969 -157 969 -125 Q969 -92 992 -69 Q1015 -46 1047 -46 Z " />
<glyph glyph-name="uniFC96" unicode="&#xfc96;" horiz-adv-x="1172" d="M1125 460 L1125 138 Q1125 132 1126 129 L1176 129 L1176 0 L1138 0 L1101 47 L1098 47 Q1060 0 1001 0 L755 0 Q742 -132 637 -196 Q560 -239 457 -239 L369 -239 Q245 -239 164 -177 Q69 -103 69 38 L69 112 L147 174 L223 174 L223 57 Q223 -35 266.5 -72.5 Q310 -110 413 -110 Q502 -110 543.5 -85.5 Q585 -61 598 0 L548 0 L482 82 L482 129 L951 129 Q971 129 971 149 L971 460 L1125 460 Z M868 -46 Q901 -46 923.5 -69 Q946 -92 946 -125 Q946 -157 923.5 -180 Q901 -203 868 -203 Q836 -203 813 -180 Q790 -157 790 -125 Q790 -92 813 -69 Q836 -46 868 -46 Z M1047 -46 Q1080 -46 1102.5 -69 Q1125 -92 1125 -125 Q1125 -157 1102.5 -180 Q1080 -203 1047 -203 Q1015 -203 992 -180 Q969 -157 969 -125 Q969 -92 992 -69 Q1015 -46 1047 -46 Z M318 -297 Q350 -297 373 -320 Q396 -343 396 -376 Q396 -408 373 -430.5 Q350 -453 318 -453 Q285 -453 262.5 -430.5 Q240 -408 240 -376 Q240 -343 262.5 -320 Q285 -297 318 -297 Z M497 -297 Q529 -297 552 -320 Q575 -343 575 -376 Q575 -408 552 -430.5 Q529 -453 497 -453 Q464 -453 441.5 -430.5 Q419 -408 419 -376 Q419 -343 441.5 -320 Q464 -297 497 -297 Z " />
<glyph glyph-name="uniFD3E" unicode="&#xfd3e;" horiz-adv-x="580" d="M403 716 L449 679 Q386 578 358 452 L420 452 L334 366 L290 410 L246 366 L162 452 L224 452 Q256 607 348 716 L403 716 Z M120 411 L206 324 L162 281 L206 237 L120 151 L120 226 L37 262 L37 292 L120 323 L120 411 Z M460 411 L460 323 L543 292 L543 262 L460 226 L460 151 L374 237 L419 281 L374 324 L460 411 Z M290 335 L345 280 L290 226 L236 280 L290 335 Z M334 194 L420 110 L357 110 Q385 13 437 -69 L391 -106 L335 -106 Q258 -17 222 110 L162 110 L246 194 L290 151 L334 194 Z " />
<glyph glyph-name="uniFD3F" unicode="&#xfd3f;" horiz-adv-x="580" d="M177 716 L233 716 Q325 606 357 452 L418 452 L334 366 L291 410 L246 366 L161 452 L222 452 Q196 575 131 679 L177 716 Z M120 411 L206 324 L162 281 L206 237 L120 151 L120 226 L37 262 L37 292 L120 323 L120 411 Z M461 411 L461 323 L543 292 L543 262 L461 226 L461 151 L374 237 L419 281 L374 324 L461 411 Z M291 335 L344 280 L291 226 L236 280 L291 335 Z M334 194 L418 110 L359 110 Q324 -16 245 -106 L189 -106 L143 -69 Q197 16 223 110 L161 110 L246 194 L291 151 L334 194 Z " />
<glyph glyph-name="uniFDF2" unicode="&#xfdf2;" horiz-adv-x="1572" d="M790 1108 L790 926 L758 899 L726 899 L726 1108 L790 1108 Z M909 861 L909 736 Q909 719 897 703 Q882 685 858 685 L800 685 L781 705 L780 705 Q774 698 765 692 Q753 685 738 685 L661 685 Q637 685 622 703 Q610 721 610 736 L610 811 L642 837 L674 837 L674 743 Q674 740 676 739 Q678 737 681 737 L719 737 Q724 737 725 739 Q728 741 728 746 L728 837 L792 837 L792 737 L838 737 Q840 737 843 738 L844 738 Q845 740 845 743 L845 861 L909 861 Z M1503 762 L1503 38 L1425 -25 L1348 -25 L1348 762 L1503 762 Z M1212 613 L1212 124 Q1212 77 1181 42 Q1143 0 1088 0 L874 0 L832 47 L829 47 Q810 22 782 11 Q759 0 732 0 L472 0 Q421 0 379 40 Q331 -9 255 -9 Q157 -9 100 74 Q55 140 55 229 Q55 345 127 412 Q190 471 290 471 Q340 471 383 455 L424 488 L501 488 L501 143 Q501 136 505 133 Q509 129 517 129 L688 129 Q693 129 696 131 Q702 135 702 143 L702 613 L856 613 L856 174 Q856 144 857 129 L1044 129 Q1053 129 1056 136 Q1058 140 1058 143 L1058 613 L1212 613 Z M346 336 Q320 342 301 342 Q258 342 232.5 311.5 Q207 281 207 229 Q207 178 234 146.5 Q261 115 306 115 Q324 115 346 120 L346 336 Z " />
<glyph glyph-name="uniFDFA" unicode="&#xfdfa;" horiz-adv-x="618" d="M324 690 Q322 685 316 685 Q310 685 310 697 Q310 705 313 709 L315 709 Q313 705 313 702 Q313 693 320 693 Q324 693 324 700 Q324 703 323 709 L327 713 Q329 706 329 696 Q331 694 333 694 Q337 694 337 698 Q337 700 336 704 Q334 709 334 711 Q334 715 336 716 L337 716 Q337 714 339 709 Q342 704 342 697 Q342 687 332 687 Q327 687 324 690 Z M218 659 L214 661 Q248 676 255 688 Q242 695 242 701 Q242 715 259 715 Q267 715 267 705 Q267 698 264 691 L270 689 L268 683 Q265 684 261 685 Q260 686 259 686 Q248 671 218 659 Z M501 243 Q524 247 568 270 Q569 270 570 271 L573 268 L565 234 Q520 205 464 205 Q411 205 396 236 Q387 207 361 207 Q334 207 327 234 Q282 187 249 187 Q239 187 228 190 L228 146 Q228 111 268 111 Q305 111 404 148 Q408 150 412 151 Q462 170 473 170 Q492 170 492 147 Q492 120 454 92 L450 98 Q474 118 474 133 Q474 140 467 140 Q462 140 454 138 Q438 133 394 117 Q302 82 266 82 Q241 82 229 96 Q231 68 240 58 Q277 41 277 37 Q277 30 271.5 22 Q266 14 262 14 Q257 14 246 20 Q226 30 210 30 Q192 30 155 9 Q116 -12 98 -12 Q78 -12 65.5 7.5 Q53 27 53 58 Q53 89 70.5 114.5 Q88 140 115 149 L117 149 L119 145 Q98 137 82.5 111.5 Q67 86 67 59 Q67 16 96 16 Q120 16 161 39 Q195 58 212 61 Q208 78 208 109 L208 197 Q186 212 171 245 Q168 243 156 224 Q119 162 94 162 Q74 162 61.5 182 Q49 202 49 233 Q49 263 66.5 289 Q84 315 111 324 L113 324 L114 319 Q94 312 78.5 286 Q63 260 63 233 Q63 191 92 191 Q114 191 135 222 Q137 226 145 240 Q166 272 176 272 Q184 272 191 256 L192 255 Q200 237 208 231 L208 346 L152 345 Q53 345 53 385 Q53 421 90 439 Q98 443 116 451 Q162 470 162 497 L161 684 Q161 697 179 713 L181 713 L182 494 Q182 461 208 445 L208 483 Q208 499 227 511 L229 511 Q229 510 229 436 Q230 436 234 436 Q242 435 246 435 Q317 435 386 466 L386 490 Q386 504 406 518 L407 518 L408 476 Q428 487 435 487 Q441 487 441 481 Q441 478 438 470 Q437 466 437 461 Q437 447 450 440 Q482 515 524 515 Q543 515 557 502.5 Q571 490 571 473 Q571 446 542 425.5 Q513 405 474 405 Q459 405 448 410 Q445 406 440 399 Q438 396 436 393 L433 393 Q434 404 438 416 Q422 429 418 455 L408 449 L408 379 L531 382 Q575 382 575 355 Q575 343 565 330 L561 331 Q561 353 531 353 L408 350 L408 282 Q408 238 468 238 Q454 259 454 279 Q454 302 469.5 319 Q485 336 505 336 Q532 336 560 313 L558 304 Q539 309 523 309 Q488 309 473 284 Q475 260 501 243 Z M452 515 L448 515 L443 684 Q441 687 441 690 Q441 703 451 713 L454 713 Q474 684 474 655 Q474 654 473 653 L472 653 L462 663 L466 551 Q466 526 452 515 Z M247 702 Q250 699 258 695 Q259 699 259 702 Q259 707 255 707 Q252 707 247 702 Z M267 618 Q264 612 259 589 Q247 530 230 530 Q205 530 205 592 Q205 611 208 626 L209 626 L211 623 Q210 614 210 608 Q210 556 230 556 Q241 556 253 606 Q264 652 277 652 Q282 652 282 641 Q282 633 280 617 Q277 605 277 593 Q277 557 295 557 Q330 557 330 613 Q330 637 326 657 Q328 670 340 680 L342 680 Q349 662 348 605 Q348 598 348 593 Q348 556 373 556 Q397 556 407 577 Q406 590 395 623 Q382 660 382 663 Q382 667 388 678 Q390 681 391 682 L393 682 L395 680 Q396 678 397 678 Q415 655 416 649 L415 648 L407 651 Q409 640 415 622 Q422 598 422 585 Q422 563 409 546.5 Q396 530 377 530 Q343 530 334 563 Q323 530 297 530 Q264 530 264 588 Q264 602 267 618 Z M251 460 L258 472 Q263 474 278 480 Q335 501 374 509 L368 497 Q334 492 266 465 Q257 462 251 460 Z M547 461 Q541 485 524 485 Q494 485 466 436 Q472 436 478 436 Q523 436 547 461 Z M208 375 L208 411 Q173 421 164 456 Q152 437 109 422 Q75 410 70 398 Q79 374 169 374 L208 375 Z M229 406 L229 375 Q261 375 331 378 Q364 379 386 379 L386 437 Q320 406 244 406 Q234 406 229 406 Z M346 250 Q354 239 366 239 Q393 239 390 297 Q390 304 390 307 Q390 328 389 350 L228 346 L228 219 Q238 214 249 214 Q283 214 326 262 Q332 268 336 268 Q340 268 344 256 Q346 252 346 250 Z M252 269 L258 280 Q264 283 279 288 Q336 310 375 318 L368 306 Q336 301 274 277 Q260 272 252 269 Z M126 309 L129 309 Q123 292 123 280 Q123 269 128 269 Q133 269 135 276 L136 276 Q136 254 122 254 Q113 254 113 271 Q113 294 126 309 Z M340 175 L354 189 L375 170 L354 148 L340 163 L325 148 L306 170 L325 189 L340 175 Z M552 85 Q547 88 531 90 Q498 95 498 116 Q498 135 510 150 Q522 165 537 165 Q572 165 572 111 Q572 65 538 26.5 Q504 -12 464 -12 Q444 -12 430 2 Q416 16 416 37 Q416 69 442 91 L445 85 Q431 73 431 54 Q431 17 465 17 Q488 17 512.5 36 Q537 55 552 85 Z M554 116 Q553 116 551 121 Q542 138 532 138 Q517 138 517 127 Q517 122 535 119 Q548 117 554 116 Z M124 96 Q120 93 117 93 Q112 93 112 102 Q112 112 121 112 Q127 112 134 101 Q137 117 147 117 Q155 117 155 110 Q155 107 153 102 L153 98 L152 98 Q151 103 148 104 Q140 104 138 77 L136 75 Q136 96 124 96 Z M335 51 L335 53 Q340 51 346 51 Q356 51 366 58 Q354 64 346 64 Q343 64 341 63 L339 64 Q339 75 354 75 Q357 75 364 73 Q372 70 377 69 Q383 69 383 67 Q383 60 373 52.5 Q363 45 352 45 Q343 45 335 51 Z M386 22 L394 29 Q399 23 399 10 Q399 -1 387 -1 Q380 -1 376 5 Q372 -1 365 -1 Q358 -1 355 5 Q343 -2 319 -2 Q307 -2 292 0 L292 2 Q298 2 303 2 Q347 2 358 19 L360 19 Q360 10 367 10 Q375 10 375 21 L377 21 Q377 10 390 10 Q388 21 386 22 Z " />
<glyph glyph-name="uniFDFC" unicode="&#xfdfc;" horiz-adv-x="1886" d="M757 716 L757 38 Q757 -82 688 -155 Q604 -239 457 -239 L369 -239 Q230 -239 148 -163 Q69 -88 69 38 L69 191 L147 253 L223 253 L223 57 Q223 -35 265.5 -72.5 Q308 -110 413 -110 Q517 -110 559 -74 Q603 -36 603 57 L603 716 L757 716 Z M1044 716 L1044 143 Q1044 139 1045 136 Q1049 129 1058 129 L1253 129 Q1257 129 1262 132 Q1266 136 1266 143 L1266 460 L1420 460 L1420 124 Q1420 79 1392 45 Q1354 0 1297 0 L1014 0 Q964 0 927 35 Q890 72 890 124 L890 716 L1044 716 Z M1817 460 L1817 38 Q1817 -98 1730 -170 Q1679 -213 1608 -230 Q1573 -238 1531 -238 L1505 -236 L1441 -157 L1441 -104 Q1444 -105 1452 -106 Q1478 -111 1498 -111 Q1581 -109 1621 -69 Q1663 -30 1663 56 L1663 460 L1817 460 Z M1065 -46 Q1097 -46 1119.5 -69 Q1142 -92 1142 -125 Q1142 -157 1119.5 -180 Q1097 -203 1065 -203 Q1032 -203 1009 -180 Q986 -157 986 -125 Q986 -92 1009 -69 Q1032 -46 1065 -46 Z M1244 -46 Q1276 -46 1299 -69 Q1322 -92 1322 -125 Q1322 -157 1299 -180 Q1276 -203 1244 -203 Q1211 -203 1188 -180 Q1165 -157 1165 -125 Q1165 -92 1188 -69 Q1211 -46 1244 -46 Z " />
</font>
</svg>
