<?xml version="1.0" encoding="UTF-8"?>
<svg xmlns="http://www.w3.org/2000/svg" xmlns:xlink="http://www.w3.org/1999/xlink" version="1.2" >
<font id="Almarai-Regular">
<font-face  font-family="Almarai" units-per-em="1000" ascent="728" descent="-210" font-style="normal" font-weight="400" font-stretch="normal" cap-height="716" x-height="514" underline-position="-94" underline-thickness="63" />
<missing-glyph  horiz-adv-x="184" d="M18 0 L18 716 L166 716 L166 0 L18 0 Z M148 18 L148 698 L36 698 L36 18 L148 18 Z " />
<glyph glyph-name="space" unicode="&#x20;" horiz-adv-x="184" d="" />
<glyph glyph-name="exclam" unicode="&#x21;" horiz-adv-x="199" d="M141 716 L141 207 L98 172 L56 172 L56 716 L141 716 Z M100 93 Q121 93 135 79 Q149 65 149 44 Q149 24 135 9.5 Q121 -5 100 -5 Q80 -5 65.5 9.5 Q51 24 51 44 Q51 65 65.5 79 Q80 93 100 93 Z " />
<glyph glyph-name="quotedbl" unicode="&#x22;" horiz-adv-x="340" d="M140 716 L140 517 L105 488 L69 488 L69 716 L140 716 Z M271 716 L271 517 L235 488 L199 488 L199 716 L271 716 Z " />
<glyph glyph-name="numbersign" unicode="&#x23;" horiz-adv-x="609" d="M502 672 L464 466 L589 466 L589 403 L452 403 L423 264 L557 264 L557 201 L412 201 L374 0 L295 0 L334 201 L222 201 L184 0 L108 0 L145 201 L21 201 L21 264 L156 264 L185 403 L54 403 L54 466 L196 466 L234 672 L312 672 L274 466 L388 466 L427 672 L502 672 Z M375 403 L262 403 L233 264 L346 264 L375 403 Z " />
<glyph glyph-name="dollar" unicode="&#x24;" horiz-adv-x="580" d="M322 716 L322 634 Q386 626 446 599 L446 532 Q382 560 322 565 L322 371 Q409 340 446 307 Q487 268 487 205 Q487 141 443 101 Q400 62 322 51 L322 -55 L258 -55 L258 47 Q188 47 127 64 L92 108 L92 140 Q157 115 241 115 Q251 115 258 116 L258 316 Q172 345 137 380 Q98 418 98 484 Q98 545 142 585 Q184 624 258 632 L258 716 L322 716 Z M258 393 L258 563 Q217 556 197 534 Q179 514 179 483 Q179 449 196 429 Q213 409 258 393 Z M322 292 L322 121 Q369 128 390 155 Q406 175 406 205 Q406 236 388 256 Q369 276 322 292 Z " />
<glyph glyph-name="percent" unicode="&#x25;" horiz-adv-x="741" d="M167 684 Q237 684 277 625 Q317 564 317 467 Q317 368 278 313 Q238 260 168 260 Q94 260 55 316 Q18 370 18 466 Q18 564 56 621 Q94 684 167 684 Z M609 673 L212 0 L140 0 L536 673 L609 673 Z M167 631 Q125 631 104 596 Q79 555 79 466 Q79 401 93 365 Q114 313 167 313 Q217 313 240 362 Q257 401 257 466 Q257 557 228 599 Q206 631 167 631 Z M572 415 Q642 415 682 356 Q722 295 722 198 Q722 100 683 44 Q643 -9 573 -9 Q499 -9 460 47 Q423 101 423 197 Q423 296 461 353 Q499 415 572 415 Z M572 362 Q530 362 509 327 Q484 286 484 197 Q484 132 499 96 Q519 44 572 44 Q622 44 645 93 Q662 132 662 197 Q662 288 633 330 Q611 362 572 362 Z " />
<glyph glyph-name="ampersand" unicode="&#x26;" horiz-adv-x="655" d="M492 330 L570 330 Q569 259 506 159 L634 0 L528 0 L457 88 Q409 41 382 24 Q327 -11 253 -11 Q156 -11 105 49 Q62 101 62 184 Q62 312 210 393 Q164 451 147.5 484.5 Q131 518 131 553 Q131 623 186 668 Q233 708 299 708 Q373 708 419 659 Q458 616 458 554 Q458 501 428.5 463.5 Q399 426 323 383 L454 223 Q456 226 462 238 Q492 295 492 330 Z M280 435 L293 443 Q381 498 381 555 Q381 591 356.5 615 Q332 639 296 639 Q257 639 234 616 Q211 593 211 554 Q211 527 222 508 Q233 489 280 435 Z M253 342 Q214 328 179 279.5 Q144 231 144 191 Q144 137 177.5 101.5 Q211 66 262 66 Q333 66 411 146 L253 342 Z " />
<glyph glyph-name="quotesingle" unicode="&#x27;" horiz-adv-x="209" d="M140 716 L140 517 L105 488 L69 488 L69 716 L140 716 Z " />
<glyph glyph-name="parenleft" unicode="&#x28;" horiz-adv-x="313" d="M241 716 L268 695 Q207 610 176 498 Q150 405 150 302 Q150 191 184 87 Q211 -1 268 -85 L241 -106 L213 -106 Q143 -26 108 82 Q74 185 74 301 Q74 418 108 523 Q143 633 213 716 L241 716 Z " />
<glyph glyph-name="parenright" unicode="&#x29;" horiz-adv-x="313" d="M73 716 L101 716 Q171 633 206 523 Q240 418 240 301 Q240 185 206 82 Q171 -26 101 -106 L73 -106 L46 -85 Q102 -1 130 87 Q163 191 163 302 Q163 405 138 498 Q107 610 46 695 L73 716 Z " />
<glyph glyph-name="asterisk" unicode="&#x2a;" horiz-adv-x="382" d="M157 716 L218 716 L214 605 L318 643 L336 585 L230 555 L299 469 L249 433 L188 525 L126 433 L77 469 L145 555 L39 585 L58 643 L162 605 L157 716 Z " />
<glyph glyph-name="plus" unicode="&#x2b;" horiz-adv-x="517" d="M224 14 L224 191 L46 191 L46 261 L224 261 L224 440 L293 440 L293 261 L471 261 L471 191 L293 191 L293 14 L224 14 Z " />
<glyph glyph-name="comma" unicode="&#x2c;" horiz-adv-x="210" d="M103 -4 Q103 -4 102 -5 L101 -5 Q81 -5 67.5 8.5 Q54 22 53 42 Q53 57 60 70 Q73 94 102 94 Q127 94 143 74 Q159 54 159 22 Q159 -51 93 -127 L74 -127 L50 -108 Q71 -81 87 -47 Q98 -26 103 -4 Z " />
<glyph glyph-name="hyphen" unicode="&#x2d;" horiz-adv-x="321" d="M284 263 L284 191 L37 191 L37 263 L284 263 Z " />
<glyph glyph-name="period" unicode="&#x2e;" horiz-adv-x="199" d="M100 93 Q121 93 135 79 Q149 65 149 44 Q149 24 135 9.5 Q121 -5 100 -5 Q80 -5 65.5 9.5 Q51 24 51 44 Q51 65 65.5 79 Q80 93 100 93 Z " />
<glyph glyph-name="slash" unicode="&#x2f;" horiz-adv-x="350" d="M340 673 L90 0 L9 0 L260 673 L340 673 Z " />
<glyph glyph-name="zero" unicode="0" horiz-adv-x="528" d="M264 -13 Q131 -13 74 126 Q37 215 37 347 Q37 513 95 621 Q152 729 264 729 Q373 729 431 624 Q492 517 492 350 Q492 193 442 98 Q383 -13 264 -13 Z M405 348 Q405 653 264 653 Q124 653 124 350 Q124 223 147 159 Q180 64 264 64 Q405 64 405 348 Z " />
<glyph glyph-name="one" unicode="1" horiz-adv-x="355" d="M286 716 L286 38 L243 0 L201 0 L201 614 L77 510 L32 566 L210 716 L286 716 Z " />
<glyph glyph-name="two" unicode="2" horiz-adv-x="482" d="M66 664 Q160 725 256 725 Q350 725 397 670 Q438 622 438 542 Q438 479 406 419 Q377 368 304 281 L163 121 L122 71 L450 71 L450 43 L415 0 L32 0 L32 72 L108 163 L262 342 Q308 397 327 434 Q353 484 353 531 Q353 583 322 615 Q291 647 239 647 Q178 647 112 600 L66 664 Z " />
<glyph glyph-name="three" unicode="3" horiz-adv-x="475" d="M90 705 Q155 725 196 725 Q296 725 356 673 Q413 623 413 539 Q413 398 288 370 Q360 358 401.5 309 Q443 260 443 188 Q443 84 362 30 Q300 -11 207 -11 Q147 -11 87 6 L55 46 L55 77 Q124 62 176 62 Q357 62 357 184 Q357 250 302 295 Q271 320 236.5 329.5 Q202 339 135 340 L135 405 L220 405 Q268 405 298.5 436.5 Q329 468 329 518 Q329 577 290 611.5 Q251 646 184 646 Q151 646 90 633 L90 705 Z " />
<glyph glyph-name="four" unicode="4" horiz-adv-x="530" d="M401 716 L401 251 L507 251 L507 174 L401 174 L401 38 L358 0 L316 0 L316 174 L23 174 L23 249 L309 716 L401 716 Z M316 604 L107 251 L316 251 L316 604 Z " />
<glyph glyph-name="five" unicode="5" horiz-adv-x="474" d="M386 716 L386 644 L153 644 L141 423 Q187 430 214 430 Q325 430 385 362 Q437 303 437 205 Q437 95 360 39 Q299 -6 200 -6 Q140 -6 80 12 L48 51 L48 82 Q117 68 169 68 Q262 68 305 98 Q353 131 353 207 Q353 359 174 359 Q132 359 52 350 L72 716 L386 716 Z " />
<glyph glyph-name="six" unicode="6" horiz-adv-x="513" d="M132 358 Q196 441 283 441 Q384 441 437 368 Q479 309 479 219 Q479 109 416 45 Q358 -12 264 -12 Q51 -12 51 268 L51 306 Q51 488 123 602 Q200 725 345 725 Q363 725 389 723 L423 681 L423 650 Q383 656 357 656 Q164 656 132 358 Z M393 223 Q393 286 359.5 327.5 Q326 369 274 369 Q218 369 171 322 Q130 281 130 233 Q130 159 168 111 Q205 65 266 65 Q322 65 357.5 108.5 Q393 152 393 223 Z " />
<glyph glyph-name="seven" unicode="7" horiz-adv-x="495" d="M465 716 L465 653 L227 47 L169 0 L117 0 L377 644 L30 644 L30 716 L465 716 Z " />
<glyph glyph-name="eight" unicode="8" horiz-adv-x="531" d="M205 365 Q76 451 76 564 Q76 650 138 693 Q187 728 264 728 Q355 728 406 681 Q455 637 455 560 Q455 501 428.5 461 Q402 421 328 368 Q489 292 489 166 Q489 74 409 25 Q348 -13 264 -13 Q164 -13 102 36 Q41 84 41 168 Q41 293 205 365 Z M268 399 Q370 463 370 564 Q370 612 342 640.5 Q314 669 266 669 Q213 669 186 637 Q161 609 161 563 Q161 516 185 477 Q211 433 268 399 Z M267 340 Q192 304 161.5 267.5 Q131 231 131 176 Q131 120 167 88.5 Q203 57 266 57 Q329 57 365.5 89 Q402 121 402 175 Q402 227 371 265 Q340 303 267 340 Z " />
<glyph glyph-name="nine" unicode="9" horiz-adv-x="512" d="M385 355 Q327 273 234 273 Q133 273 80 346 Q37 405 37 496 Q37 606 101 669 Q158 727 252 727 Q391 727 440 601 Q471 525 471 384 Q471 -9 192 -9 Q167 -9 127 -5 L95 36 L95 66 Q135 60 163 60 Q283 60 332 125.5 Q381 191 385 355 Z M251 650 Q186 650 150 595 Q123 552 123 492 Q123 428 157 386.5 Q191 345 243 345 Q303 345 340 384 Q377 423 377 485 Q377 650 251 650 Z " />
<glyph glyph-name="colon" unicode="&#x3a;" horiz-adv-x="200" d="M100 280 Q121 280 135 266 Q149 252 149 231 Q149 211 135 196.5 Q121 182 100 182 Q80 182 65.5 196.5 Q51 211 51 231 Q51 252 65.5 266 Q80 280 100 280 Z M101 93 Q121 93 135.5 79 Q150 65 150 44 Q150 24 135.5 9.5 Q121 -5 101 -5 Q80 -5 65.5 9.5 Q51 24 51 44 Q51 65 65.5 79 Q80 93 101 93 Z " />
<glyph glyph-name="semicolon" unicode="&#x3b;" horiz-adv-x="210" d="M103 -4 Q103 -4 102 -5 L101 -5 Q81 -5 67.5 8.5 Q54 22 53 42 Q53 57 60 70 Q73 94 102 94 Q127 94 143 74 Q159 54 159 22 Q159 -51 93 -127 L74 -127 L50 -108 Q71 -81 87 -47 Q98 -26 103 -4 Z M101 182 Q81 182 66.5 196.5 Q52 211 52 232 Q52 252 66.5 266.5 Q81 281 102 281 Q122 281 136 266.5 Q150 252 150 232 Q150 211 136 196.5 Q122 182 101 182 Z " />
<glyph glyph-name="less" unicode="&#x3c;" horiz-adv-x="508" d="M466 573 L466 498 L132 332 L466 186 L466 110 L41 305 L41 352 L466 573 Z " />
<glyph glyph-name="equal" unicode="&#x3d;" horiz-adv-x="517" d="M471 286 L46 286 L46 354 L471 354 L471 286 Z M471 97 L46 97 L46 166 L471 166 L471 97 Z " />
<glyph glyph-name="greater" unicode="&#x3e;" horiz-adv-x="508" d="M41 573 L466 352 L466 305 L41 110 L41 186 L375 332 L41 498 L41 573 Z " />
<glyph glyph-name="question" unicode="&#x3f;" horiz-adv-x="546" d="M324 195 L236 195 L236 249 Q236 298 264 334 Q281 357 338 409 Q412 475 412 539 Q412 589 377.5 619.5 Q343 650 287 650 Q220 650 189.5 613.5 Q159 577 159 498 L76 498 Q76 727 291 727 Q394 727 451 669 Q500 619 500 538 Q500 489 479 451 Q458 413 402 363 Q352 318 338 296 Q324 274 324 241 L324 195 Z M282 110 Q302 110 316.5 96 Q331 82 331 61 Q331 41 316.5 26.5 Q302 12 282 12 Q261 12 247 26.5 Q233 41 233 61 Q233 82 247 96 Q261 110 282 110 Z " />
<glyph glyph-name="at" unicode="&#x40;" horiz-adv-x="803" d="M465 -48 Q421 -56 379 -56 Q211 -56 121 62 Q46 159 46 309 Q46 486 170 596 Q268 683 403 683 Q573 683 672 579 Q760 486 760 339 Q760 238 716 171 Q670 101 589 101 Q533 101 504 135 Q461 102 401 102 Q310 102 262 163 Q222 214 222 295 Q222 396 281 452 Q329 496 404 499 Q450 499 493 475 L539 512 L564 512 L564 195 Q564 173 602 173 Q641 173 665 215 Q689 257 689 326 Q689 468 602 546 Q527 614 403 614 Q288 614 206 533 Q117 445 117 311 Q117 159 205 77 Q283 4 414 4 Q451 4 491 10 L491 -16 L465 -48 Z M492 422 Q454 436 421 436 Q364 436 329 398 Q294 360 294 298 Q294 235 326 199 Q358 163 414 163 Q459 163 492 189 L492 422 Z " />
<glyph glyph-name="A" unicode="A" horiz-adv-x="655" d="M466 215 L190 215 L114 0 L17 0 L272 716 L390 716 L641 0 L540 0 L466 215 Z M440 292 L330 617 L213 292 L440 292 Z " />
<glyph glyph-name="B" unicode="B" horiz-adv-x="655" d="M78 0 L78 716 L369 716 Q469 716 524 666 Q581 614 581 534 Q581 424 481 378 Q612 328 612 204 Q612 118 557 60 Q500 0 400 0 L78 0 Z M169 408 L346 408 Q416 408 450 433 Q489 462 489 521 Q489 580 450 610 Q416 635 346 635 L169 635 L169 408 Z M169 81 L392 81 Q453 81 487 113.5 Q521 146 521 204 Q521 262 487 294.5 Q453 327 392 327 L169 327 L169 81 Z " />
<glyph glyph-name="C" unicode="C" horiz-adv-x="709" d="M650 497 L556 497 Q541 569 504 602 Q456 646 364 646 Q252 646 191 558 Q138 481 138 356 Q138 215 209 137 Q272 70 371 70 Q492 70 538 159 Q559 200 571 268 L665 268 Q632 -11 372 -11 Q232 -11 151 71 Q47 176 47 353 Q47 525 147 636 Q229 727 373 727 Q607 727 650 497 Z " />
<glyph glyph-name="D" unicode="D" horiz-adv-x="709" d="M87 0 L87 716 L363 716 Q508 716 586 608 Q654 513 654 358 Q654 180 566 84 Q489 0 363 0 L87 0 Z M178 81 L347 81 Q563 81 563 358 Q563 635 347 635 L178 635 L178 81 Z " />
<glyph glyph-name="E" unicode="E" horiz-adv-x="655" d="M179 326 L179 81 L601 81 L601 0 L88 0 L88 716 L584 716 L584 635 L179 635 L179 407 L569 407 L569 326 L179 326 Z " />
<glyph glyph-name="F" unicode="F" horiz-adv-x="600" d="M179 326 L179 0 L88 0 L88 716 L568 716 L568 635 L179 635 L179 407 L521 407 L521 326 L179 326 Z " />
<glyph glyph-name="G" unicode="G" horiz-adv-x="764" d="M696 377 L696 0 L638 0 L615 101 Q513 -11 371 -11 Q215 -11 123 104 Q43 205 43 356 Q43 553 172 659 Q256 727 387 727 Q542 727 625 633 Q670 582 686 501 L593 501 Q578 569 523 607.5 Q468 646 385 646 Q264 646 194 558 Q134 481 134 361 Q134 221 210 140 Q276 70 391 70 Q495 70 559 138 Q615 198 615 284 L615 296 L397 296 L397 377 L696 377 Z " />
<glyph glyph-name="H" unicode="H" horiz-adv-x="709" d="M541 326 L172 326 L172 0 L81 0 L81 716 L172 716 L172 407 L541 407 L541 716 L632 716 L632 0 L541 0 L541 326 Z " />
<glyph glyph-name="I" unicode="I" horiz-adv-x="273" d="M191 716 L191 0 L98 0 L98 716 L191 716 Z " />
<glyph glyph-name="J" unicode="J" horiz-adv-x="491" d="M327 716 L418 716 L418 190 Q418 99 365 45 Q309 -11 214 -11 Q118 -11 64 47 Q17 97 17 178 L17 230 L110 230 L110 195 Q110 66 217 66 Q276 66 305 110 Q327 144 327 223 L327 716 Z " />
<glyph glyph-name="K" unicode="K" horiz-adv-x="655" d="M169 251 L169 0 L78 0 L78 716 L169 716 L169 354 L526 716 L644 716 L351 424 L646 0 L538 0 L286 367 L169 251 Z " />
<glyph glyph-name="L" unicode="L" horiz-adv-x="546" d="M170 716 L170 81 L523 81 L523 0 L79 0 L79 716 L170 716 Z " />
<glyph glyph-name="M" unicode="M" horiz-adv-x="818" d="M460 0 L364 0 L160 600 L160 0 L74 0 L74 716 L200 716 L413 93 L621 716 L748 716 L748 0 L661 0 L661 600 L460 0 Z " />
<glyph glyph-name="N" unicode="N" horiz-adv-x="709" d="M634 716 L634 0 L532 0 L161 581 L161 0 L75 0 L75 716 L174 716 L548 131 L548 716 L634 716 Z " />
<glyph glyph-name="O" unicode="O" horiz-adv-x="764" d="M383 727 Q549 727 645 612 Q728 512 728 358 Q728 181 621 78 Q527 -11 383 -11 Q216 -11 120 104 Q37 204 37 358 Q37 535 145 638 Q238 727 383 727 Z M382 646 Q260 646 189 557 Q128 479 128 358 Q128 219 207 139 Q276 70 382 70 Q505 70 576 159 Q637 237 637 358 Q637 497 558 577 Q489 646 382 646 Z " />
<glyph glyph-name="P" unicode="P" horiz-adv-x="655" d="M180 303 L180 0 L89 0 L89 716 L385 716 Q498 716 555 654 Q605 600 605 506 Q605 411 544 355 Q488 303 405 303 L180 303 Z M180 384 L371 384 Q436 384 473 417 Q510 450 510 510 Q510 569 473 602 Q436 635 371 635 L180 635 L180 384 Z " />
<glyph glyph-name="Q" unicode="Q" horiz-adv-x="764" d="M563 35 Q488 -10 382 -11 Q216 -11 120 104 Q37 204 37 358 Q37 535 145 638 Q238 727 383 727 Q549 727 645 612 Q728 512 728 358 Q728 191 627 84 L618 75 L707 -13 L660 -57 L563 35 Z M556 136 L559 139 Q637 217 637 358 Q637 497 558 577 Q489 646 382 646 Q260 646 189 557 Q128 479 128 358 Q128 219 207 139 Q276 70 382 70 Q445 70 498 96 L499 96 L408 182 L460 231 L556 136 Z " />
<glyph glyph-name="R" unicode="R" horiz-adv-x="709" d="M182 308 L182 0 L91 0 L91 716 L420 716 Q534 716 590 660 Q639 611 639 524 Q639 463 612.5 423 Q586 383 525 353 Q574 334 597 302 Q620 269 623 167 Q625 92 632.5 66.5 Q640 41 666 23 L666 0 L556 0 Q534 46 534 97 L535 209 Q535 220 526 243 Q517 266 509 276 Q482 308 417 308 L182 308 Z M182 389 L403 389 Q544 389 544 512 Q544 635 403 635 L182 635 L182 389 Z " />
<glyph glyph-name="S" unicode="S" horiz-adv-x="655" d="M585 510 L499 510 Q496 650 320 650 Q248 650 204 617.5 Q160 585 160 532 Q160 492 186.5 468.5 Q213 445 278 428 L448 384 Q610 341 610 204 Q610 105 531 43 Q461 -11 330 -11 Q164 -11 89 89 Q49 143 47 234 L133 234 L133 232 Q133 154 186.5 111.5 Q240 69 336 69 Q424 69 467 98 Q518 133 518 196 Q518 276 387 309 L209 355 Q69 391 69 520 Q69 622 146 678 Q213 727 323 727 Q479 727 546 636 Q585 583 585 521 Q585 518 585 510 Z " />
<glyph glyph-name="T" unicode="T" horiz-adv-x="600" d="M348 635 L348 0 L257 0 L257 635 L21 635 L21 716 L582 716 L582 635 L348 635 Z " />
<glyph glyph-name="U" unicode="U" horiz-adv-x="709" d="M542 716 L633 716 L633 225 Q633 109 548 45 Q475 -11 357 -11 Q221 -11 147 60 Q83 123 83 225 L83 716 L174 716 L174 225 Q174 151 222 110.5 Q270 70 357 70 Q449 70 499 116 Q542 157 542 225 L542 716 Z " />
<glyph glyph-name="V" unicode="V" horiz-adv-x="655" d="M385 0 L286 0 L29 716 L127 716 L338 110 L536 716 L633 716 L385 0 Z " />
<glyph glyph-name="W" unicode="W" horiz-adv-x="927" d="M731 0 L631 0 L466 588 L305 0 L205 0 L22 716 L124 716 L259 135 L418 716 L516 716 L679 135 L811 716 L912 716 L731 0 Z " />
<glyph glyph-name="X" unicode="X" horiz-adv-x="655" d="M384 367 L638 0 L524 0 L330 299 L133 0 L22 0 L276 367 L38 716 L149 716 L332 435 L517 716 L626 716 L384 367 Z " />
<glyph glyph-name="Y" unicode="Y" horiz-adv-x="655" d="M380 281 L380 0 L289 0 L289 281 L13 716 L125 716 L336 367 L540 716 L649 716 L380 281 Z " />
<glyph glyph-name="Z" unicode="Z" horiz-adv-x="600" d="M571 716 L571 633 L143 81 L573 81 L573 0 L28 0 L28 81 L458 635 L55 635 L55 716 L571 716 Z " />
<glyph glyph-name="bracketleft" unicode="&#x5b;" horiz-adv-x="372" d="M303 716 L303 649 L145 649 L145 -35 L303 -35 L303 -102 L69 -102 L69 716 L303 716 Z " />
<glyph glyph-name="backslash" unicode="&#x5c;" horiz-adv-x="350" d="M90 673 L340 0 L260 0 L9 673 L90 673 Z " />
<glyph glyph-name="bracketright" unicode="&#x5d;" horiz-adv-x="372" d="M303 716 L303 -102 L69 -102 L69 -35 L227 -35 L227 649 L69 649 L69 716 L303 716 Z " />
<glyph glyph-name="asciicircum" unicode="&#x5e;" horiz-adv-x="460" d="M193 696 L265 696 L417 323 L349 323 L229 618 L111 323 L43 323 L193 696 Z " />
<glyph glyph-name="underscore" unicode="&#x5f;" horiz-adv-x="384" d="M387 -85 L387 -149 L-4 -149 L-4 -85 L387 -85 Z " />
<glyph glyph-name="grave" unicode="&#x60;" horiz-adv-x="491" d="M238 727 L332 581 L273 581 L127 727 L238 727 Z " />
<glyph glyph-name="a" unicode="a" horiz-adv-x="546" d="M525 69 L525 3 Q491 -9 472 -9 Q392 -9 385 64 Q330 -11 210 -11 Q127 -11 81 35 Q41 75 41 138 Q41 210 92 249 Q121 271 213 292 L381 330 L382 373 Q382 450 266 450 Q155 450 147 360 L64 360 Q67 428 98 464 Q151 525 270 525 Q463 525 463 385 L463 98 Q463 60 496 60 Q500 60 517 66 Q523 68 525 69 Z M382 263 L250 229 Q179 211 152.5 192 Q126 173 126 139 Q126 60 228 60 Q300 60 350 107 Q382 136 382 173 L382 263 Z " />
<glyph glyph-name="b" unicode="b" horiz-adv-x="546" d="M53 716 L134 716 L134 445 Q191 525 294 525 Q403 525 462 445 Q514 375 514 260 Q514 127 445 53 Q385 -11 290 -11 Q183 -11 127 70 L127 0 L53 0 L53 716 Z M279 449 Q213 449 173.5 395.5 Q134 342 134 254 Q134 162 179 110 Q218 66 279 66 Q347 66 387.5 117 Q428 168 428 254 Q428 348 382 402 Q342 449 279 449 Z " />
<glyph glyph-name="c" unicode="c" horiz-adv-x="491" d="M462 342 L380 342 Q365 450 258 450 Q191 450 153 397 Q115 344 115 250 Q115 157 160 108 Q198 65 262 65 Q365 65 385 177 L468 177 Q460 81 399 32 Q346 -11 260 -11 Q147 -11 84 69 Q30 138 30 250 Q30 384 101 460 Q162 525 259 525 Q371 525 427 450 Q456 411 462 342 Z " />
<glyph glyph-name="d" unicode="d" horiz-adv-x="546" d="M487 716 L487 0 L405 0 L405 71 Q356 -12 253 -12 Q140 -12 79 70 Q26 142 26 260 Q26 389 95 462 Q154 525 248 525 Q352 525 405 447 L405 716 L487 716 Z M262 449 Q194 449 152.5 395.5 Q111 342 111 254 Q111 163 159 111 Q200 65 263 65 Q328 65 366.5 116 Q405 167 405 254 Q405 349 361 402 Q322 449 262 449 Z " />
<glyph glyph-name="e" unicode="e" horiz-adv-x="546" d="M503 233 L124 233 Q125 167 152 128 Q195 65 276 65 Q376 65 411 160 L493 160 Q477 79 419 34 Q361 -11 273 -11 Q156 -11 94 69 Q39 139 39 254 Q39 387 111 461 Q174 525 274 525 Q347 525 402.5 490 Q458 455 482 394 Q503 342 503 236 L503 233 Z M415 300 Q415 367 375.5 408.5 Q336 450 274 450 Q211 450 171.5 409.5 Q132 369 127 300 L415 300 Z " />
<glyph glyph-name="f" unicode="f" horiz-adv-x="273" d="M253 514 L253 448 L168 448 L168 0 L87 0 L87 448 L18 448 L18 514 L87 514 L87 602 Q87 657 118.5 688 Q150 719 207 719 Q229 719 253 714 L253 646 L244 646 Q233 647 225 647 Q168 647 168 595 L168 514 L253 514 Z " />
<glyph glyph-name="g" unicode="g" horiz-adv-x="546" d="M404 514 L480 514 L480 84 Q480 -83 426 -148 Q372 -214 249 -214 Q153 -214 99 -168 Q51 -127 45 -59 L129 -59 Q135 -99 159 -118 Q194 -145 253 -145 Q333 -145 367 -97 Q396 -56 396 43 L396 76 Q332 -11 242 -11 Q154 -11 93 55 Q28 126 28 249 Q28 381 96 459 Q156 525 247 525 Q345 525 404 437 L404 514 Z M256 450 Q190 450 151.5 397.5 Q113 345 113 254 Q113 159 157 109 Q194 65 257 65 Q323 65 359.5 115 Q396 165 396 254 Q396 352 354 404 Q317 450 256 450 Z " />
<glyph glyph-name="h" unicode="h" horiz-adv-x="546" d="M69 716 L150 716 L150 442 Q187 488 224 506.5 Q261 525 316 525 Q391 525 434 487.5 Q477 450 477 385 L477 0 L396 0 L396 352 Q396 406 363 431 Q332 454 290 454 Q227 454 188.5 407 Q150 360 150 282 L150 0 L69 0 L69 716 Z " />
<glyph glyph-name="i" unicode="i" horiz-adv-x="218" d="M146 514 L146 0 L65 0 L65 514 L146 514 Z M107 715 Q128 715 142.5 700.5 Q157 686 157 666 Q157 645 142.5 630.5 Q128 616 107 616 Q87 616 72.5 630.5 Q58 645 58 666 Q58 686 72.5 700.5 Q87 715 107 715 Z " />
<glyph glyph-name="j" unicode="j" horiz-adv-x="218" d="M68 514 L150 514 L150 -107 Q150 -214 8 -214 Q-7 -214 -18 -211 L-18 -142 Q-10 -142 -3 -142 L1 -142 Q40 -142 54 -128 Q68 -114 68 -75 L68 514 Z M107 711 Q128 711 142 696.5 Q156 682 156 662 Q156 642 142 627.5 Q128 613 107 613 Q87 613 72.5 627.5 Q58 642 58 662 Q58 682 72.5 696.5 Q87 711 107 711 Z " />
<glyph glyph-name="k" unicode="k" horiz-adv-x="491" d="M138 716 L138 296 L356 514 L462 514 L283 337 L493 0 L392 0 L218 279 L138 201 L138 0 L57 0 L57 716 L138 716 Z " />
<glyph glyph-name="l" unicode="l" horiz-adv-x="218" d="M149 716 L149 0 L67 0 L67 716 L149 716 Z " />
<glyph glyph-name="m" unicode="m" horiz-adv-x="818" d="M69 514 L145 514 L145 440 Q205 525 303 525 Q398 525 441 449 Q478 492 512.5 508.5 Q547 525 598 525 Q748 525 748 384 L748 0 L666 0 L666 352 Q666 454 570 454 Q520 454 485 415 Q450 376 450 322 L450 0 L368 0 L368 352 Q368 454 273 454 Q222 454 186.5 415.5 Q151 377 151 322 L151 0 L69 0 L69 514 Z " />
<glyph glyph-name="n" unicode="n" horiz-adv-x="546" d="M69 514 L145 514 L145 427 Q207 525 315 525 Q390 525 434 487.5 Q478 450 478 387 L478 0 L397 0 L397 354 Q397 400 368.5 427 Q340 454 291 454 Q227 454 189 407 Q151 360 151 282 L151 0 L69 0 L69 514 Z " />
<glyph glyph-name="o" unicode="o" horiz-adv-x="546" d="M270 525 Q386 525 447 444 Q501 374 501 254 Q501 120 431 50 Q371 -11 269 -11 Q151 -11 89 68 Q35 137 35 254 Q35 390 106 463 Q167 525 270 525 Z M270 450 Q200 450 160 397.5 Q120 345 120 254 Q120 159 165 109 Q204 65 269 65 Q338 65 376.5 115 Q415 165 415 254 Q415 352 371 404 Q333 450 270 450 Z " />
<glyph glyph-name="p" unicode="p" horiz-adv-x="546" d="M53 -214 L53 514 L129 514 L129 435 Q186 525 293 525 Q402 525 461 441 Q513 368 513 249 Q513 122 445 51 Q386 -11 292 -11 Q197 -11 135 58 L135 -214 L53 -214 Z M279 449 Q214 449 174.5 396 Q135 343 135 254 Q135 162 180 110 Q218 66 279 66 Q347 66 387.5 117.5 Q428 169 428 254 Q428 348 382 402 Q341 449 279 449 Z " />
<glyph glyph-name="q" unicode="q" horiz-adv-x="546" d="M487 -214 L405 -214 L405 67 Q350 -11 247 -11 Q137 -11 77 67 Q26 136 26 248 Q26 383 95 460 Q155 526 250 526 Q355 526 414 443 L414 514 L487 514 L487 -214 Z M261 449 Q194 449 152.5 395.5 Q111 342 111 254 Q111 163 158 111 Q198 66 262 66 Q327 66 366 117 Q405 168 405 254 Q405 349 361 403 Q322 449 261 449 Z " />
<glyph glyph-name="r" unicode="r" horiz-adv-x="327" d="M68 514 L144 514 L144 420 Q189 526 286 526 Q298 526 315 523 L315 439 Q235 438 205 416 Q150 376 150 267 L150 0 L68 0 L68 514 Z " />
<glyph glyph-name="s" unicode="s" horiz-adv-x="491" d="M434 373 L344 373 Q340 450 241 450 Q190 450 160.5 430.5 Q131 411 131 378 Q131 328 226 306 L305 288 Q382 270 416 237 Q450 204 450 147 Q450 74 393 31.5 Q336 -11 239 -11 Q133 -11 78 39 Q32 80 29 148 L122 148 Q130 113 144 97 Q171 65 245 65 Q300 65 332.5 85.5 Q365 106 365 140 Q365 191 286 210 L209 228 Q121 249 86 278 Q46 311 46 373 Q46 443 99.5 484 Q153 525 243 525 Q337 525 389 478 Q434 437 434 373 Z " />
<glyph glyph-name="t" unicode="t" horiz-adv-x="297" d="M270 514 L270 448 L165 448 L165 106 Q165 88 177.5 75.5 Q190 63 210 63 Q229 63 268 72 L277 0 Q215 -11 183 -11 Q84 -11 84 70 L84 448 L14 448 L14 514 L84 514 L84 619 L165 656 L165 514 L270 514 Z " />
<glyph glyph-name="u" unicode="u" horiz-adv-x="546" d="M473 0 L392 0 L392 81 Q337 -11 228 -11 Q153 -11 108.5 26.5 Q64 64 64 127 L64 514 L145 514 L145 160 Q145 115 174 88 Q203 61 252 61 Q316 61 354 107.5 Q392 154 392 233 L392 514 L473 514 L473 0 Z " />
<glyph glyph-name="v" unicode="v" horiz-adv-x="491" d="M280 0 L191 0 L10 514 L103 514 L239 98 L385 514 L477 514 L280 0 Z " />
<glyph glyph-name="w" unicode="w" horiz-adv-x="709" d="M544 0 L451 0 L346 404 L247 0 L155 0 L6 514 L96 514 L202 114 L300 514 L400 514 L501 114 L603 514 L695 514 L544 0 Z " />
<glyph glyph-name="x" unicode="x" horiz-adv-x="491" d="M287 266 L465 0 L370 0 L241 198 L110 0 L17 0 L199 262 L26 514 L120 514 L244 328 L368 514 L460 514 L287 266 Z " />
<glyph glyph-name="y" unicode="y" horiz-adv-x="491" d="M382 514 L470 514 L241 -108 Q201 -214 108 -214 Q64 -214 31 -194 L47 -123 Q72 -133 96 -133 Q144 -133 163 -83 L194 -1 L20 514 L108 514 L239 114 L382 514 Z " />
<glyph glyph-name="z" unicode="z" horiz-adv-x="491" d="M435 514 L435 441 L129 72 L448 72 L448 0 L30 0 L30 74 L337 442 L51 442 L51 514 L435 514 Z " />
<glyph glyph-name="braceleft" unicode="&#x7b;" horiz-adv-x="382" d="M313 719 L335 690 L335 666 Q319 666 289 663 Q246 659 231 649 Q209 633 209 597 L209 413 Q209 327 102 311 L102 305 Q209 289 209 203 L209 20 Q209 -17 231 -32 Q247 -43 289 -47 Q312 -49 335 -50 L335 -74 L313 -103 Q296 -103 284 -102 Q210 -96 174 -73 Q134 -46 134 25 L134 184 Q134 267 16 267 L16 349 Q134 349 134 426 Q134 428 134 431 L134 591 Q134 661 174 689 Q208 711 284 718 Q296 719 313 719 Z " />
<glyph glyph-name="bar" unicode="&#x7c;" horiz-adv-x="200" d="M69 688 L131 688 L131 28 L69 28 L69 688 Z " />
<glyph glyph-name="braceright" unicode="&#x7d;" horiz-adv-x="382" d="M46 690 L69 719 Q86 719 97 718 Q174 711 207 689 Q248 661 248 591 L248 431 Q247 428 247 426 Q247 349 365 349 L365 267 Q248 267 248 184 L248 25 Q248 -46 207 -73 Q172 -96 97 -102 Q86 -103 69 -103 L46 -74 L46 -50 Q70 -49 92 -47 Q134 -43 150 -32 Q172 -17 172 20 L172 203 Q172 289 280 305 L280 311 Q172 327 172 413 L172 597 Q172 633 150 649 Q135 659 92 663 Q62 666 46 666 L46 690 Z " />
<glyph glyph-name="asciitilde" unicode="&#x7e;" horiz-adv-x="491" d="M405 404 L457 404 Q457 391 457 385 Q457 330 429 296.5 Q401 263 354 263 Q315 263 274 289 L179 350 Q157 364 136 364 Q107 364 92 330 Q87 317 84 288 L32 288 Q40 430 138 430 Q165 430 191 415 L306 347 Q334 330 355 330 Q405 330 405 392 Q405 396 405 404 Z " />
<glyph glyph-name="Adieresis" unicode="&#xc4;" horiz-adv-x="655" d="M466 215 L190 215 L114 0 L17 0 L272 716 L390 716 L641 0 L540 0 L466 215 Z M440 292 L330 617 L213 292 L440 292 Z M248 892 Q269 892 283 877.5 Q297 863 297 843 Q297 823 283 808.5 Q269 794 248 794 Q228 794 213.5 808.5 Q199 823 199 843 Q199 863 213.5 877.5 Q228 892 248 892 Z M411 892 Q431 892 445.5 877.5 Q460 863 460 843 Q460 823 445.5 808.5 Q431 794 411 794 Q390 794 375.5 808.5 Q361 823 361 843 Q361 863 375.5 877.5 Q390 892 411 892 Z " />
<glyph glyph-name="Aring" unicode="&#xc5;" horiz-adv-x="655" d="M466 215 L190 215 L114 0 L17 0 L272 716 L390 716 L641 0 L540 0 L466 215 Z M440 292 L330 617 L213 292 L440 292 Z M329 936 Q365 936 390 911 Q415 886 415 850 Q415 814 390 789 Q365 764 329 764 Q293 764 268 789.5 Q243 815 243 850 Q243 886 268 911 Q293 936 329 936 Z M329 893 Q311 893 298 880.5 Q285 868 285 850 Q285 832 298 819.5 Q311 807 329 807 Q347 807 360 819.5 Q373 832 373 850 Q373 868 360.5 880.5 Q348 893 329 893 Z " />
<glyph glyph-name="Ccedilla" unicode="&#xc7;" horiz-adv-x="709" d="M378 -11 L360 -55 Q376 -53 387 -53 Q465 -53 465 -118 Q465 -161 432.5 -185.5 Q400 -210 344 -210 Q296 -210 221 -177 L242 -137 Q247 -140 250 -142 Q306 -170 338 -170 Q361 -170 376 -157.5 Q391 -145 391 -126 Q391 -89 346 -89 Q331 -89 315 -97 L304 -90 L340 -10 Q249 -3 189 39 Q122 86 84.5 169 Q47 252 47 355 Q47 531 147 639 Q228 727 374 727 Q607 727 650 497 L556 497 Q541 569 504 602 Q456 646 364 646 Q252 646 191 558 Q138 481 138 356 Q138 215 209 137 Q272 70 371 70 Q492 70 538 159 Q559 200 571 268 L665 268 Q632 -6 378 -11 Z " />
<glyph glyph-name="Eacute" unicode="&#xc9;" horiz-adv-x="655" d="M179 326 L179 81 L601 81 L601 0 L88 0 L88 716 L584 716 L584 635 L179 635 L179 407 L569 407 L569 326 L179 326 Z M360 922 L470 922 L324 777 L265 777 L360 922 Z " />
<glyph glyph-name="Ntilde" unicode="&#xd1;" horiz-adv-x="709" d="M634 716 L634 0 L531 0 L161 581 L161 0 L75 0 L75 716 L174 716 L548 131 L548 716 L634 716 Z M459 900 L516 900 Q501 798 428 798 Q411 798 371 812 L324 829 Q309 835 296 835 Q274 835 264 799 L207 799 Q224 900 291 900 Q314 900 337 891 L378 875 Q405 864 423 864 Q448 864 459 900 Z " />
<glyph glyph-name="Odieresis" unicode="&#xd6;" horiz-adv-x="764" d="M383 727 Q549 727 645 612 Q728 512 728 358 Q728 181 621 78 Q527 -11 383 -11 Q216 -11 120 104 Q37 204 37 358 Q37 535 145 638 Q238 727 383 727 Z M382 646 Q260 646 189 557 Q128 479 128 358 Q128 219 207 139 Q276 70 382 70 Q505 70 576 159 Q637 237 637 358 Q637 497 558 577 Q489 646 382 646 Z M301 894 Q321 894 335.5 879.5 Q350 865 350 845 Q350 824 335.5 810 Q321 796 301 796 Q281 796 266.5 810 Q252 824 252 845 Q252 865 266.5 879.5 Q281 894 301 894 Z M464 894 Q484 894 498.5 879.5 Q513 865 513 845 Q513 824 498.5 810 Q484 796 464 796 Q443 796 428.5 810 Q414 824 414 845 Q414 865 428.5 879.5 Q443 894 464 894 Z " />
<glyph glyph-name="Udieresis" unicode="&#xdc;" horiz-adv-x="709" d="M542 716 L633 716 L633 225 Q633 109 548 45 Q475 -11 357 -11 Q221 -11 147 60 Q83 123 83 225 L83 716 L174 716 L174 225 Q174 151 222 110.5 Q270 70 357 70 Q449 70 499 116 Q542 157 542 225 L542 716 Z M277 892 Q297 892 311.5 877.5 Q326 863 326 843 Q326 823 311.5 808.5 Q297 794 277 794 Q257 794 242.5 808.5 Q228 823 228 843 Q228 863 242.5 877.5 Q257 892 277 892 Z M440 892 Q460 892 474.5 877.5 Q489 863 489 843 Q489 823 474.5 808.5 Q460 794 440 794 Q419 794 404.5 808.5 Q390 823 390 843 Q390 863 404.5 877.5 Q419 892 440 892 Z " />
<glyph glyph-name="aacute" unicode="&#xe1;" horiz-adv-x="546" d="M325 727 L436 727 L290 581 L230 581 L325 727 Z M525 69 L525 3 Q491 -9 472 -9 Q392 -9 385 64 Q330 -11 210 -11 Q127 -11 81 35 Q41 75 41 138 Q41 210 92 249 Q121 271 213 292 L381 330 L382 373 Q382 450 266 450 Q155 450 147 360 L64 360 Q67 428 98 464 Q151 525 270 525 Q463 525 463 385 L463 98 Q463 60 496 60 Q500 60 517 66 Q523 68 525 69 Z M382 263 L250 229 Q179 211 152.5 192 Q126 173 126 139 Q126 60 228 60 Q300 60 350 107 Q382 136 382 173 L382 263 Z " />
<glyph glyph-name="agrave" unicode="&#xe0;" horiz-adv-x="546" d="M245 727 L340 581 L281 581 L135 727 L245 727 Z M525 69 L525 3 Q491 -9 472 -9 Q392 -9 385 64 Q330 -11 210 -11 Q127 -11 81 35 Q41 75 41 138 Q41 210 92 249 Q121 271 213 292 L381 330 L382 373 Q382 450 266 450 Q155 450 147 360 L64 360 Q67 428 98 464 Q151 525 270 525 Q463 525 463 385 L463 98 Q463 60 496 60 Q500 60 517 66 Q523 68 525 69 Z M382 263 L250 229 Q179 211 152.5 192 Q126 173 126 139 Q126 60 228 60 Q300 60 350 107 Q382 136 382 173 L382 263 Z " />
<glyph glyph-name="acircumflex" unicode="&#xe2;" horiz-adv-x="546" d="M237 728 L330 728 L424 580 L362 580 L283 674 L206 580 L143 580 L237 728 Z M525 69 L525 3 Q491 -9 472 -9 Q392 -9 385 64 Q330 -11 210 -11 Q127 -11 81 35 Q41 75 41 138 Q41 210 92 249 Q121 271 213 292 L381 330 L382 373 Q382 450 266 450 Q155 450 147 360 L64 360 Q67 428 98 464 Q151 525 270 525 Q463 525 463 385 L463 98 Q463 60 496 60 Q500 60 517 66 Q523 68 525 69 Z M382 263 L250 229 Q179 211 152.5 192 Q126 173 126 139 Q126 60 228 60 Q300 60 350 107 Q382 136 382 173 L382 263 Z " />
<glyph glyph-name="adieresis" unicode="&#xe4;" horiz-adv-x="546" d="M200 700 Q220 700 234.5 685.5 Q249 671 249 651 Q249 631 234.5 616.5 Q220 602 200 602 Q179 602 164.5 616.5 Q150 631 150 651 Q150 671 164.5 685.5 Q179 700 200 700 Z M362 700 Q383 700 397 685.5 Q411 671 411 651 Q411 631 397 616.5 Q383 602 362 602 Q342 602 327.5 616.5 Q313 631 313 651 Q313 671 327.5 685.5 Q342 700 362 700 Z M525 69 L525 3 Q491 -9 472 -9 Q392 -9 385 64 Q330 -11 210 -11 Q127 -11 81 35 Q41 75 41 138 Q41 210 92 249 Q121 271 213 292 L381 330 L382 373 Q382 450 266 450 Q155 450 147 360 L64 360 Q67 428 98 464 Q151 525 270 525 Q463 525 463 385 L463 98 Q463 60 496 60 Q500 60 517 66 Q523 68 525 69 Z M382 263 L250 229 Q179 211 152.5 192 Q126 173 126 139 Q126 60 228 60 Q300 60 350 107 Q382 136 382 173 L382 263 Z " />
<glyph glyph-name="atilde" unicode="&#xe3;" horiz-adv-x="546" d="M379 704 L436 704 Q421 602 350 602 Q330 602 305 611 L250 632 Q231 640 217 640 Q194 640 184 603 L128 603 Q145 705 212 705 Q234 705 257 695 L298 679 Q326 668 344 668 Q368 668 379 704 Z M525 69 L525 3 Q491 -9 472 -9 Q392 -9 385 64 Q330 -11 210 -11 Q127 -11 81 35 Q41 75 41 138 Q41 210 92 249 Q121 271 213 292 L381 330 L382 373 Q382 450 266 450 Q155 450 147 360 L64 360 Q67 428 98 464 Q151 525 270 525 Q463 525 463 385 L463 98 Q463 60 496 60 Q500 60 517 66 Q523 68 525 69 Z M382 263 L250 229 Q179 211 152.5 192 Q126 173 126 139 Q126 60 228 60 Q300 60 350 107 Q382 136 382 173 L382 263 Z " />
<glyph glyph-name="aring" unicode="&#xe5;" horiz-adv-x="546" d="M287 741 Q323 741 348 716 Q373 691 373 655 Q373 619 348 594 Q323 569 287 569 Q251 569 226 594 Q201 619 201 655 Q201 690 226 715.5 Q251 741 287 741 Z M287 698 Q269 698 256 685.5 Q243 673 243 655 Q243 637 256 624 Q269 611 287 611 Q305 611 318 624 Q331 637 331 654 Q331 673 318.5 685.5 Q306 698 287 698 Z M525 69 L525 3 Q491 -9 472 -9 Q392 -9 385 64 Q330 -11 210 -11 Q127 -11 81 35 Q41 75 41 138 Q41 210 92 249 Q121 271 213 292 L381 330 L382 373 Q382 450 266 450 Q155 450 147 360 L64 360 Q67 428 98 464 Q151 525 270 525 Q463 525 463 385 L463 98 Q463 60 496 60 Q500 60 517 66 Q523 68 525 69 Z M382 263 L250 229 Q179 211 152.5 192 Q126 173 126 139 Q126 60 228 60 Q300 60 350 107 Q382 136 382 173 L382 263 Z " />
<glyph glyph-name="ccedilla" unicode="&#xe7;" horiz-adv-x="491" d="M264 -11 L246 -54 Q262 -53 273 -53 Q351 -53 351 -118 Q351 -161 319 -185.5 Q287 -210 230 -210 Q183 -210 108 -177 L128 -137 Q193 -170 224 -170 Q247 -170 262 -157 Q277 -144 277 -125 Q277 -89 233 -89 Q218 -89 202 -96 L190 -90 L226 -9 Q128 4 75 81 Q30 148 30 250 Q30 384 101 460 Q162 525 259 525 Q371 525 427 450 Q456 411 462 342 L380 342 Q365 450 258 450 Q191 450 153 397 Q115 344 115 250 Q115 157 160 108 Q198 65 262 65 Q365 65 385 177 L468 177 Q460 83 401 33 Q348 -9 264 -11 Z " />
<glyph glyph-name="eacute" unicode="&#xe9;" horiz-adv-x="546" d="M330 727 L440 727 L294 581 L235 581 L330 727 Z M503 233 L124 233 Q125 167 152 128 Q195 65 276 65 Q376 65 411 160 L493 160 Q477 79 419 34 Q361 -11 273 -11 Q156 -11 94 69 Q39 139 39 254 Q39 387 111 461 Q174 525 274 525 Q347 525 402.5 490 Q458 455 482 394 Q503 342 503 236 L503 233 Z M415 300 Q415 367 375.5 408.5 Q336 450 274 450 Q211 450 171.5 409.5 Q132 369 127 300 L415 300 Z " />
<glyph glyph-name="egrave" unicode="&#xe8;" horiz-adv-x="546" d="M263 727 L358 581 L299 581 L153 727 L263 727 Z M503 233 L124 233 Q125 167 152 128 Q195 65 276 65 Q376 65 411 160 L493 160 Q477 79 419 34 Q361 -11 273 -11 Q156 -11 94 69 Q39 139 39 254 Q39 387 111 461 Q174 525 274 525 Q347 525 402.5 490 Q458 455 482 394 Q503 342 503 236 L503 233 Z M415 300 Q415 367 375.5 408.5 Q336 450 274 450 Q211 450 171.5 409.5 Q132 369 127 300 L415 300 Z " />
<glyph glyph-name="ecircumflex" unicode="&#xea;" horiz-adv-x="546" d="M234 728 L327 728 L422 580 L360 580 L281 674 L203 580 L140 580 L234 728 Z M503 233 L124 233 Q125 167 152 128 Q195 65 276 65 Q376 65 411 160 L493 160 Q477 79 419 34 Q361 -11 273 -11 Q156 -11 94 69 Q39 139 39 254 Q39 387 111 461 Q174 525 274 525 Q347 525 402.5 490 Q458 455 482 394 Q503 342 503 236 L503 233 Z M415 300 Q415 367 375.5 408.5 Q336 450 274 450 Q211 450 171.5 409.5 Q132 369 127 300 L415 300 Z " />
<glyph glyph-name="edieresis" unicode="&#xeb;" horiz-adv-x="546" d="M503 233 L124 233 Q125 167 152 128 Q195 65 276 65 Q376 65 411 160 L493 160 Q477 79 419 34 Q361 -11 273 -11 Q156 -11 94 69 Q39 139 39 254 Q39 387 111 461 Q174 525 274 525 Q347 525 402.5 490 Q458 455 482 394 Q503 342 503 236 L503 233 Z M415 300 Q415 367 375.5 408.5 Q336 450 274 450 Q211 450 171.5 409.5 Q132 369 127 300 L415 300 Z M200 702 Q220 702 234.5 687.5 Q249 673 249 653 Q249 632 234.5 618 Q220 604 200 604 Q179 604 164.5 618 Q150 632 150 653 Q150 673 164.5 687.5 Q179 702 200 702 Z M362 702 Q383 702 397 687.5 Q411 673 411 653 Q411 632 397 618 Q383 604 362 604 Q342 604 327.5 618 Q313 632 313 653 Q313 673 327.5 687.5 Q342 702 362 702 Z " />
<glyph glyph-name="iacute" unicode="&#xed;" horiz-adv-x="273" d="M173 514 L173 0 L92 0 L92 514 L173 514 Z M197 727 L308 727 L162 581 L103 581 L197 727 Z " />
<glyph glyph-name="igrave" unicode="&#xec;" horiz-adv-x="273" d="M174 514 L174 0 L92 0 L92 514 L174 514 Z M106 727 L200 581 L141 581 L-5 727 L106 727 Z " />
<glyph glyph-name="icircumflex" unicode="&#xee;" horiz-adv-x="273" d="M174 514 L174 0 L92 0 L92 514 L174 514 Z M87 728 L180 728 L275 580 L213 580 L134 674 L56 580 L-7 580 L87 728 Z " />
<glyph glyph-name="idieresis" unicode="&#xef;" horiz-adv-x="273" d="M174 514 L174 0 L92 0 L92 514 L174 514 Z M50 693 Q71 693 85.5 678.5 Q100 664 100 644 Q100 623 85.5 608.5 Q71 594 50 594 Q30 594 15.5 608.5 Q1 623 1 644 Q1 664 15.5 678.5 Q30 693 50 693 Z M213 693 Q233 693 247.5 678.5 Q262 664 262 644 Q262 623 247.5 608.5 Q233 594 213 594 Q192 594 178 608.5 Q164 623 164 644 Q164 664 178 678.5 Q192 693 213 693 Z " />
<glyph glyph-name="ntilde" unicode="&#xf1;" horiz-adv-x="546" d="M69 514 L145 514 L145 427 Q207 525 315 525 Q390 525 434 487.5 Q478 450 478 387 L478 0 L397 0 L397 354 Q397 400 368.5 427 Q340 454 291 454 Q227 454 189 407 Q151 360 151 282 L151 0 L69 0 L69 514 Z M372 704 L428 704 Q414 602 342 602 Q322 602 297 611 L257 627 Q224 640 210 640 Q187 640 177 603 L120 603 Q137 705 204 705 Q226 705 250 695 L291 679 Q318 668 336 668 Q360 668 372 704 Z " />
<glyph glyph-name="oacute" unicode="&#xf3;" horiz-adv-x="546" d="M325 727 L435 727 L289 581 L230 581 L325 727 Z M270 525 Q386 525 447 444 Q501 374 501 254 Q501 120 431 50 Q371 -11 269 -11 Q151 -11 89 68 Q35 137 35 254 Q35 390 106 463 Q167 525 270 525 Z M270 450 Q200 450 160 397.5 Q120 345 120 254 Q120 159 165 109 Q204 65 269 65 Q338 65 376.5 115 Q415 165 415 254 Q415 352 371 404 Q333 450 270 450 Z " />
<glyph glyph-name="ograve" unicode="&#xf2;" horiz-adv-x="546" d="M250 727 L344 581 L285 581 L139 727 L250 727 Z M270 525 Q386 525 447 444 Q501 374 501 254 Q501 120 431 50 Q371 -11 269 -11 Q151 -11 89 68 Q35 137 35 254 Q35 390 106 463 Q167 525 270 525 Z M270 450 Q200 450 160 397.5 Q120 345 120 254 Q120 159 165 109 Q204 65 269 65 Q338 65 376.5 115 Q415 165 415 254 Q415 352 371 404 Q333 450 270 450 Z " />
<glyph glyph-name="ocircumflex" unicode="&#xf4;" horiz-adv-x="546" d="M221 728 L314 728 L409 580 L346 580 L267 674 L190 580 L127 580 L221 728 Z M270 525 Q386 525 447 444 Q501 374 501 254 Q501 120 431 50 Q371 -11 269 -11 Q151 -11 89 68 Q35 137 35 254 Q35 390 106 463 Q167 525 270 525 Z M270 450 Q200 450 160 397.5 Q120 345 120 254 Q120 159 165 109 Q204 65 269 65 Q338 65 376.5 115 Q415 165 415 254 Q415 352 371 404 Q333 450 270 450 Z " />
<glyph glyph-name="odieresis" unicode="&#xf6;" horiz-adv-x="546" d="M270 525 Q386 525 447 444 Q501 374 501 254 Q501 120 431 50 Q371 -11 269 -11 Q151 -11 89 68 Q35 137 35 254 Q35 390 106 463 Q167 525 270 525 Z M270 450 Q200 450 160 397.5 Q120 345 120 254 Q120 159 165 109 Q204 65 269 65 Q338 65 376.5 115 Q415 165 415 254 Q415 352 371 404 Q333 450 270 450 Z M185 698 Q205 698 219.5 684 Q234 670 234 649 Q234 629 219.5 614.5 Q205 600 185 600 Q164 600 149.5 614.5 Q135 629 135 649 Q135 669 149.5 683.5 Q164 698 185 698 Z M347 698 Q368 698 382.5 684 Q397 670 397 649 Q397 629 382.5 614.5 Q368 600 347 600 Q327 600 312.5 614.5 Q298 629 298 649 Q298 669 312.5 683.5 Q327 698 347 698 Z " />
<glyph glyph-name="otilde" unicode="&#xf5;" horiz-adv-x="546" d="M270 525 Q386 525 447 444 Q501 374 501 254 Q501 120 431 50 Q371 -11 269 -11 Q151 -11 89 68 Q35 137 35 254 Q35 390 106 463 Q167 525 270 525 Z M270 450 Q200 450 160 397.5 Q120 345 120 254 Q120 159 165 109 Q204 65 269 65 Q338 65 376.5 115 Q415 165 415 254 Q415 352 371 404 Q333 450 270 450 Z M368 704 L425 704 Q410 602 339 602 Q318 602 294 611 L253 627 Q220 640 206 640 Q184 640 173 603 L116 603 Q133 705 200 705 Q222 705 246 695 L287 679 Q314 668 333 668 Q356 668 368 704 Z " />
<glyph glyph-name="uacute" unicode="&#xfa;" horiz-adv-x="546" d="M318 727 L429 727 L283 581 L224 581 L318 727 Z M473 0 L400 0 L400 81 Q334 -11 228 -11 Q153 -11 108.5 26.5 Q64 64 64 127 L64 514 L145 514 L145 160 Q145 115 174 88 Q203 61 252 61 Q316 61 354 107.5 Q392 154 392 233 L392 514 L473 514 L473 0 Z " />
<glyph glyph-name="ugrave" unicode="&#xf9;" horiz-adv-x="546" d="M238 727 L333 581 L274 581 L128 727 L238 727 Z M473 0 L400 0 L400 81 Q334 -11 228 -11 Q153 -11 108.5 26.5 Q64 64 64 127 L64 514 L145 514 L145 160 Q145 115 174 88 Q203 61 252 61 Q316 61 354 107.5 Q392 154 392 233 L392 514 L473 514 L473 0 Z " />
<glyph glyph-name="ucircumflex" unicode="&#xfb;" horiz-adv-x="546" d="M223 728 L316 728 L411 580 L348 580 L269 674 L192 580 L129 580 L223 728 Z M473 0 L400 0 L400 81 Q334 -11 228 -11 Q153 -11 108.5 26.5 Q64 64 64 127 L64 514 L145 514 L145 160 Q145 115 174 88 Q203 61 252 61 Q316 61 354 107.5 Q392 154 392 233 L392 514 L473 514 L473 0 Z " />
<glyph glyph-name="udieresis" unicode="&#xfc;" horiz-adv-x="546" d="M473 0 L400 0 L400 81 Q334 -11 228 -11 Q153 -11 108.5 26.5 Q64 64 64 127 L64 514 L145 514 L145 160 Q145 115 174 88 Q203 61 252 61 Q316 61 354 107.5 Q392 154 392 233 L392 514 L473 514 L473 0 Z M187 700 Q208 700 222 685.5 Q236 671 236 651 Q236 631 222 616.5 Q208 602 187 602 Q167 602 152.5 616.5 Q138 631 138 651 Q138 671 152.5 685.5 Q167 700 187 700 Z M350 700 Q370 700 384.5 685.5 Q399 671 399 651 Q399 631 384.5 616.5 Q370 602 350 602 Q329 602 314.5 616.5 Q300 631 300 651 Q300 671 314.5 685.5 Q329 700 350 700 Z " />
<glyph glyph-name="degree" unicode="&#xb0;" horiz-adv-x="373" d="M41 537 Q41 597 84 640 Q126 683 186 683 Q246 683 289 640 Q331 597 331 537 Q331 478 289 435 Q246 393 186 393 Q125 393 84 435 Q41 478 41 537 Z M98 537 Q98 498 123 470 Q149 442 186 442 Q222 442 249 470 Q275 498 275 537 Q275 577 249 606 Q222 634 186 634 Q150 634 123 606 Q98 577 98 537 Z " />
<glyph glyph-name="cent" unicode="&#xa2;" horiz-adv-x="550" d="M328 683 L328 607 Q362 606 396 597 Q425 590 445 580 L420 509 Q393 520 370 526 Q340 534 318 534 Q254 534 221 498 Q179 453 179 343 Q179 235 221 191 Q254 157 314 157 Q347 157 384 165 Q427 174 458 186 L458 149 L423 105 Q386 88 328 83 L328 -9 L265 -9 L265 86 Q182 98 138 157 Q92 220 92 342 Q92 466 139 532 Q181 591 265 603 L265 683 L328 683 Z " />
<glyph glyph-name="sterling" unicode="&#xa3;" horiz-adv-x="645" d="M184 512 Q184 590 236 637 Q285 682 367 682 Q437 682 496 650 L496 579 Q433 612 371 612 Q324 612 297 586 Q268 557 268 499 L268 363 L441 363 L441 300 L268 300 L268 203 Q268 136 244 93 Q297 99 346 99 Q461 99 553 64 L553 36 L523 0 Q420 30 323 30 Q225 30 92 0 L92 70 Q134 80 158 110 Q184 144 184 202 L184 300 L93 300 L93 363 L184 363 L184 512 Z " />
<glyph glyph-name="section" unicode="&#xa7;" horiz-adv-x="546" d="M456 514 L374 514 Q373 577 358 600 Q331 640 279 640 Q241 640 216 616.5 Q191 593 191 557 Q191 518 247 481 L390 389 Q449 351 473 314.5 Q497 278 497 225 Q497 112 391 72 Q442 12 442 -45 Q442 -121 383 -168 Q332 -209 259 -209 Q197 -209 151.5 -179.5 Q106 -150 87 -98 Q76 -67 76 -13 L160 -13 L160 -16 Q160 -133 260 -133 Q302 -133 328 -109.5 Q354 -86 354 -49 Q354 0 300 37 L133 153 Q43 215 43 307 Q43 399 146 454 Q103 502 103 553 Q103 627 162 674 Q213 716 284 716 Q366 716 414 661 Q456 614 456 542 L456 514 Z M348 104 Q419 142 419 205 Q419 265 348 314 L190 421 Q121 376 121 322 Q121 292 133.5 272.5 Q146 253 185 225 L348 104 Z " />
<glyph glyph-name="bullet" unicode="&#x2022;" horiz-adv-x="366" d="M183 271 Q223 271 252 242 Q281 213 281 173 Q281 132 252 103 Q223 74 183 74 Q142 74 113 103 Q84 132 84 173 Q84 213 113 242 Q142 271 183 271 Z " />
<glyph glyph-name="paragraph" unicode="&#xb6;" horiz-adv-x="527" d="M513 716 L513 653 L456 653 L456 -174 L394 -174 L394 653 L313 653 L313 -174 L250 -174 L250 254 Q175 258 127 298 Q47 364 47 480 Q47 587 118 656 Q180 716 267 716 L513 716 Z " />
<glyph glyph-name="germandbls" unicode="&#xdf;" horiz-adv-x="600" d="M297 346 L297 427 Q364 428 402 456.5 Q440 485 440 534 Q440 580 407.5 609.5 Q375 639 325 639 Q270 639 237.5 609 Q205 579 205 529 L205 0 L124 0 L124 529 Q124 617 175 662 Q238 716 331 716 Q424 716 478 660 Q526 611 526 537 Q526 437 418 396 Q556 350 556 220 Q556 106 488 44 Q429 -11 334 -11 Q313 -11 293 -7 L293 70 L309 70 Q395 70 435 115 Q471 156 471 215 Q471 282 427 318 Q392 346 320 346 Q310 346 297 346 Z " />
<glyph glyph-name="registered" unicode="&#xae;" horiz-adv-x="784" d="M392 683 Q485 683 567 636 Q645 590 691 511 Q738 429 738 336 Q738 244 691 162 Q646 84 567 38 Q486 -9 392 -9 Q298 -9 218 38 Q138 84 93 162 Q46 243 46 336 Q46 430 93 511 Q139 590 218 636 Q299 683 392 683 Z M392 632 Q270 632 183 546 Q96 459 96 336 Q96 214 183 128 Q269 41 392 41 Q515 41 602 128 Q688 214 688 336 Q688 459 602 546 Q514 632 392 632 Z M242 539 L394 539 Q459 539 497.5 501.5 Q536 464 536 401 Q536 331 472 299 L547 158 L515 133 L478 133 L403 280 L316 280 L316 133 L242 133 L242 539 Z M388 473 L316 473 L316 347 L393 347 Q425 347 445 365 Q463 383 463 412 Q463 435 452 450 Q436 473 388 473 Z " />
<glyph glyph-name="copyright" unicode="&#xa9;" horiz-adv-x="784" d="M392 683 Q485 683 567 636 Q645 590 691 511 Q738 429 738 336 Q738 244 691 162 Q646 84 567 38 Q486 -9 392 -9 Q298 -9 218 38 Q138 84 93 162 Q46 243 46 336 Q46 430 93 511 Q139 590 218 636 Q299 683 392 683 Z M392 632 Q270 632 183 546 Q96 459 96 336 Q96 214 183 128 Q269 41 392 41 Q515 41 602 128 Q688 214 688 336 Q688 459 602 546 Q514 632 392 632 Z M471 133 Q451 125 407 125 Q316 125 267 184 Q220 240 220 337 Q220 432 270 488 Q321 547 410 547 Q469 547 527 518 L498 460 Q450 485 410 485 Q355 485 324 446 Q294 407 294 336 Q294 264 322 226 Q350 188 410 188 Q430 188 459 194 Q482 199 509 209 L509 180 L471 133 Z " />
<glyph glyph-name="trademark" unicode="&#x2122;" horiz-adv-x="669" d="M254 673 L254 623 L163 623 L163 366 L131 341 L104 341 L104 623 L14 623 L14 673 L254 673 Z M623 673 L623 366 L592 341 L565 341 L565 594 L564 594 L474 341 L428 341 L342 594 L341 594 L341 341 L285 341 L285 673 L370 673 L453 419 L541 673 L623 673 Z " />
<glyph glyph-name="acute" unicode="&#xb4;" horiz-adv-x="491" d="M267 727 L377 727 L231 581 L172 581 L267 727 Z " />
<glyph glyph-name="dieresis" unicode="&#xa8;" horiz-adv-x="491" d="M155 715 Q176 715 190.5 700.5 Q205 686 205 666 Q205 645 190.5 630.5 Q176 616 155 616 Q135 616 120.5 630.5 Q106 645 106 666 Q106 686 120.5 700.5 Q135 715 155 715 Z M326 715 Q347 715 361.5 700.5 Q376 686 376 666 Q376 645 361.5 630.5 Q347 616 326 616 Q306 616 291.5 630.5 Q277 645 277 666 Q277 686 291.5 700.5 Q306 715 326 715 Z " />
<glyph glyph-name="AE" unicode="&#xc6;" horiz-adv-x="982" d="M460 210 L195 210 L112 0 L11 0 L305 716 L915 716 L915 635 L551 635 L551 407 L896 407 L896 326 L551 326 L551 81 L933 81 L933 0 L460 0 L460 210 Z M460 290 L460 635 L362 635 L226 290 L460 290 Z " />
<glyph glyph-name="Oslash" unicode="&#xd8;" horiz-adv-x="764" d="M645 612 Q729 510 729 357 Q729 181 621 78 Q527 -11 383 -11 Q241 -11 150 73 L72 -12 L34 23 L115 112 Q38 211 38 359 Q38 536 146 638 Q239 727 384 727 Q516 727 608 650 L688 737 L727 702 L645 612 Z M585 547 L209 137 Q278 70 383 70 Q506 70 576 159 Q638 237 638 358 Q638 467 585 547 Z M176 178 L550 586 Q483 646 383 646 Q260 646 190 557 Q129 479 129 358 Q129 255 176 178 Z " />
<glyph glyph-name="plusminus" unicode="&#xb1;" horiz-adv-x="573" d="M524 419 L524 351 L321 351 L321 147 L252 147 L252 351 L49 351 L49 419 L252 419 L252 622 L321 622 L321 419 L524 419 Z M524 68 L524 0 L49 0 L49 68 L524 68 Z " />
<glyph glyph-name="lessequal" unicode="&#x2264;" horiz-adv-x="509" d="M466 573 L466 498 L132 332 L466 186 L466 110 L41 305 L41 352 L466 573 Z M467 71 L467 0 L42 0 L42 71 L467 71 Z " />
<glyph glyph-name="greaterequal" unicode="&#x2265;" horiz-adv-x="509" d="M41 573 L466 352 L466 305 L41 110 L41 186 L375 332 L41 498 L41 573 Z M467 71 L467 0 L42 0 L42 71 L467 71 Z " />
<glyph glyph-name="yen" unicode="&#xa5;" horiz-adv-x="521" d="M493 673 L330 319 L440 319 L440 256 L301 256 L301 184 L440 184 L440 121 L301 121 L301 34 L260 0 L219 0 L219 121 L81 121 L81 184 L219 184 L219 256 L81 256 L81 319 L189 319 L28 673 L116 673 L260 333 L405 673 L493 673 Z " />
<glyph glyph-name="mu" unicode="&#xb5;" horiz-adv-x="570" d="M469 514 L550 514 L441 0 L367 0 L385 82 Q298 -12 199 -12 Q148 -12 117 13 L68 -214 L-13 -214 L142 514 L223 514 L148 161 Q145 146 145 133 Q145 100 169 80 Q193 60 232 60 Q296 60 344 107.5 Q392 155 409 234 L469 514 Z " />
<glyph glyph-name="ordfeminine" unicode="&#xaa;" horiz-adv-x="401" d="M348 348 L348 298 L75 298 L75 348 L348 348 Z M365 436 L365 393 Q343 385 331 385 Q280 385 275 433 Q240 384 163 384 Q114 384 84.5 410 Q55 436 55 480 Q55 526 88 551 Q112 569 165 578 L273 602 L273 630 Q273 679 199 679 Q128 679 123 622 L70 622 Q72 666 91 689 Q125 728 202 728 Q326 728 326 638 L326 454 Q326 429 347 429 Q349 429 360 434 Q364 435 365 436 Z M273 560 L189 538 Q109 524 109 480 Q109 430 175 430 Q221 430 253 460 Q273 479 273 502 L273 560 Z " />
<glyph glyph-name="ordmasculine" unicode="&#xba;" horiz-adv-x="358" d="M308 348 L308 298 L50 298 L50 348 L308 348 Z M179 727 Q245 727 281.5 683 Q318 639 318 558 Q318 478 281.5 434 Q245 390 179 390 Q112 390 75.5 434 Q39 478 39 558 Q39 639 75.5 683 Q112 727 179 727 Z M178 676 Q140 676 118 644.5 Q96 613 96 558 Q96 503 118 472 Q140 441 179 441 Q217 441 239 472 Q261 503 261 558 Q261 613 239 644.5 Q217 676 178 676 Z " />
<glyph glyph-name="ae" unicode="&#xe6;" horiz-adv-x="881" d="M239 295 L386 314 L382 373 Q378 450 266 450 Q155 450 147 360 L64 360 Q67 428 98 464 Q151 525 269 525 Q397 525 438 452 Q504 525 610 525 Q682 525 737.5 490.5 Q793 456 818 394 Q839 343 839 236 L839 233 L460 233 Q461 167 487 128 Q530 65 611 65 Q711 65 746 160 L828 160 Q813 79 754.5 34 Q696 -11 607 -11 Q479 -11 416 87 Q330 -11 211 -11 Q128 -11 81 35 Q41 74 41 138 Q41 210 92 248 Q136 282 239 295 Z M382 247 L250 227 Q126 208 126 138 Q126 60 228 60 Q300 60 350 107 Q382 136 382 173 L382 247 Z M751 300 Q750 368 711 409 Q672 450 609 450 Q546 450 506.5 409.5 Q467 369 462 300 L751 300 Z " />
<glyph glyph-name="oslash" unicode="&#xf8;" horiz-adv-x="600" d="M431 464 L486 527 L518 500 L457 431 Q501 363 501 254 Q501 120 432 50 Q372 -11 270 -11 Q176 -11 114 43 L52 -26 L21 1 L86 74 Q35 145 35 254 Q35 390 106 462 Q168 525 270 525 Q369 525 431 464 Z M144 140 L375 401 Q334 450 270 450 Q201 450 161 397.5 Q121 345 121 254 Q121 185 144 140 Z M397 363 L169 105 Q210 65 270 65 Q338 65 377 115 Q416 165 416 254 Q416 318 397 363 Z " />
<glyph glyph-name="questiondown" unicode="&#xbf;" horiz-adv-x="600" d="M270 319 L358 319 L358 266 Q358 198 294 140 L255 106 Q181 39 181 -24 Q181 -75 216 -105.5 Q251 -136 308 -136 Q388 -136 418 -79 Q435 -47 435 17 L518 17 Q517 -73 486 -125 Q434 -213 303 -213 Q200 -213 143 -155 Q93 -105 93 -24 Q93 25 114.5 63.5 Q136 102 192 152 Q243 198 256.5 219 Q270 240 270 273 L270 319 Z M306 510 Q326 510 340.5 495.5 Q355 481 355 460 Q355 440 340.5 425.5 Q326 411 306 411 Q285 411 271 425.5 Q257 440 257 460 Q257 481 271 495.5 Q285 510 306 510 Z " />
<glyph glyph-name="exclamdown" unicode="&#xa1;" horiz-adv-x="327" d="M119 -201 L119 130 L140 349 L179 349 L200 130 L200 -201 L119 -201 Z M155 520 Q176 520 190.5 505.5 Q205 491 205 470 Q205 450 190.5 435.5 Q176 421 155 421 Q135 421 120.5 435.5 Q106 450 106 470 Q106 491 120.5 505.5 Q135 520 155 520 Z " />
<glyph glyph-name="logicalnot" unicode="&#xac;" horiz-adv-x="573" d="M39 285 L534 285 L534 2 L465 2 L465 217 L39 217 L39 285 Z " />
<glyph glyph-name="florin" unicode="&#x192;" horiz-adv-x="255" d="M150 448 L150 -107 Q150 -214 8 -214 Q-7 -214 -18 -211 L-18 -142 Q-10 -142 -3 -142 L2 -142 Q40 -142 54 -128 Q68 -114 68 -75 L68 448 L0 448 L0 514 L68 514 L68 602 Q68 657 100 688 Q132 719 189 719 Q211 719 235 714 L235 646 Q218 647 205 647 Q150 647 150 595 L150 514 L235 514 L235 448 L150 448 Z " />
<glyph glyph-name="guillemotleft" unicode="&#xab;" horiz-adv-x="426" d="M202 475 L229 452 L109 267 L230 81 L202 58 L176 58 L37 262 L37 270 L176 475 L202 475 Z M361 475 L389 452 L268 267 L389 81 L362 58 L335 58 L196 262 L196 270 L335 475 L361 475 Z " />
<glyph glyph-name="guillemotright" unicode="&#xbb;" horiz-adv-x="439" d="M65 475 L91 475 L230 270 L230 262 L91 58 L65 58 L37 81 L158 267 L37 452 L65 475 Z M238 475 L264 475 L402 270 L402 262 L264 58 L237 58 L210 81 L331 267 L210 452 L238 475 Z " />
<glyph glyph-name="ellipsis" unicode="&#x2026;" horiz-adv-x="499" d="M100 93 Q121 93 135 79 Q149 65 149 44 Q149 24 135 9.5 Q121 -5 100 -5 Q80 -5 65.5 9.5 Q51 24 51 44 Q51 65 65.5 79 Q80 93 100 93 Z M248 93 Q268 93 282.5 79 Q297 65 297 44 Q297 24 282.5 9.5 Q268 -5 248 -5 Q227 -5 213 9.5 Q199 24 199 44 Q199 65 213 79 Q227 93 248 93 Z M399 93 Q420 93 434 79 Q448 65 448 44 Q448 24 434 9.5 Q420 -5 399 -5 Q379 -5 364.5 9.5 Q350 24 350 44 Q350 65 364.5 79 Q379 93 399 93 Z " />
<glyph glyph-name="Agrave" unicode="&#xc0;" horiz-adv-x="655" d="M466 215 L190 215 L114 0 L17 0 L272 716 L390 716 L641 0 L540 0 L466 215 Z M440 292 L330 617 L213 292 L440 292 Z M298 922 L393 777 L334 777 L187 922 L298 922 Z " />
<glyph glyph-name="Atilde" unicode="&#xc3;" horiz-adv-x="655" d="M466 215 L190 215 L114 0 L17 0 L272 716 L390 716 L641 0 L540 0 L466 215 Z M440 292 L330 617 L213 292 L440 292 Z M427 900 L483 900 Q469 798 396 798 Q375 798 332 815 Q280 835 264 835 Q242 835 232 799 L175 799 Q192 900 259 900 Q282 900 305 891 L346 875 Q373 864 391 864 Q415 864 427 900 Z " />
<glyph glyph-name="Otilde" unicode="&#xd5;" horiz-adv-x="764" d="M483 900 L540 900 Q526 798 453 798 Q433 798 369 822 Q336 835 321 835 Q298 835 288 799 L232 799 Q249 900 315 900 Q338 900 361 891 L402 875 Q430 864 448 864 Q472 864 483 900 Z M383 727 Q549 727 645 612 Q728 512 728 358 Q728 181 621 78 Q527 -11 383 -11 Q216 -11 120 104 Q37 204 37 358 Q37 535 145 638 Q238 727 383 727 Z M382 646 Q260 646 189 557 Q128 479 128 358 Q128 219 207 139 Q276 70 382 70 Q505 70 576 159 Q637 237 637 358 Q637 497 558 577 Q489 646 382 646 Z " />
<glyph glyph-name="endash" unicode="&#x2013;" horiz-adv-x="470" d="M433 263 L433 191 L37 191 L37 263 L433 263 Z " />
<glyph glyph-name="emdash" unicode="&#x2014;" horiz-adv-x="941" d="M904 263 L904 191 L37 191 L37 263 L904 263 Z " />
<glyph glyph-name="quotedblleft" unicode="&#x201c;" horiz-adv-x="360" d="M136 716 L160 696 Q138 670 122 636 Q112 615 107 593 Q108 593 110 593 Q129 593 143 579 Q157 565 157 545 Q157 533 150 519 Q137 494 108 494 Q83 494 67 514.5 Q51 535 51 567 Q51 640 116 716 L136 716 Z M286 716 L310 696 Q289 670 273 636 Q262 615 257 593 Q268 593 274 591 Q284 588 290 582 Q306 569 307 546 Q307 532 300 519 Q287 494 258 494 Q233 494 217 514.5 Q201 535 201 567 Q201 639 267 716 L286 716 Z " />
<glyph glyph-name="quotedblright" unicode="&#x201d;" horiz-adv-x="360" d="M104 617 L102 617 Q82 617 68.5 630 Q55 643 54 664 Q54 678 61 691 Q74 716 103 716 Q128 716 144 695.5 Q160 675 160 643 Q160 571 94 494 L75 494 L51 514 Q72 541 88 574 Q99 595 104 617 Z M254 617 Q253 617 251 617 Q232 617 218 631 Q204 645 204 665 Q204 677 211 691 Q224 716 253 716 Q278 716 294 695.5 Q310 675 310 643 Q310 571 244 494 L225 494 L201 514 Q222 541 238 574 Q249 595 254 617 Z " />
<glyph glyph-name="quoteleft" unicode="&#x2018;" horiz-adv-x="210" d="M136 716 L160 696 Q138 670 122 636 Q112 615 107 593 Q108 593 110 593 Q129 593 143 579 Q157 565 157 545 Q157 533 150 519 Q137 494 108 494 Q83 494 67 514.5 Q51 535 51 567 Q51 640 116 716 L136 716 Z " />
<glyph glyph-name="quoteright" unicode="&#x2019;" horiz-adv-x="210" d="M104 617 L102 617 Q82 617 68.5 630 Q55 643 54 664 Q54 678 61 691 Q74 716 103 716 Q128 716 144 695.5 Q160 675 160 643 Q160 571 94 494 L75 494 L51 514 Q72 541 88 574 Q99 595 104 617 Z " />
<glyph glyph-name="divide" unicode="&#xf7;" horiz-adv-x="508" d="M253 432 Q274 432 288 417.5 Q302 403 302 383 Q302 363 288 348.5 Q274 334 253 334 Q233 334 218.5 348.5 Q204 363 204 383 Q204 403 218.5 417.5 Q233 432 253 432 Z M466 261 L466 191 L41 191 L41 261 L466 261 Z M253 119 Q274 119 288 104.5 Q302 90 302 70 Q302 49 288 34.5 Q274 20 253 20 Q233 20 218.5 34.5 Q204 49 204 70 Q204 90 218.5 104.5 Q233 119 253 119 Z " />
<glyph glyph-name="ydieresis" unicode="&#xff;" horiz-adv-x="491" d="M158 702 Q178 702 192.5 687.5 Q207 673 207 653 Q207 632 192.5 618 Q178 604 158 604 Q137 604 123 618 Q109 632 109 653 Q109 673 123 687.5 Q137 702 158 702 Z M320 702 Q341 702 355.5 687.5 Q370 673 370 653 Q370 632 355.5 618 Q341 604 320 604 Q300 604 285.5 618 Q271 632 271 653 Q271 673 285.5 687.5 Q300 702 320 702 Z M382 514 L470 514 L241 -108 Q201 -214 108 -214 Q64 -214 31 -194 L47 -123 Q72 -133 96 -133 Q144 -133 163 -83 L194 -1 L20 514 L108 514 L239 114 L382 514 Z " />
<glyph glyph-name="fraction" unicode="&#x2044;" horiz-adv-x="524" d="M492 673 L95 0 L23 0 L419 673 L492 673 Z " />
<glyph glyph-name="currency" unicode="&#xa4;" horiz-adv-x="516" d="M114 431 L55 490 L100 535 L159 476 Q205 507 258 507 Q311 507 356 476 L415 535 L461 491 L401 432 Q432 385 432 333 Q432 277 401 234 L459 175 L415 131 L356 190 Q310 159 258 159 Q202 159 159 191 L100 132 L56 176 L114 235 Q84 279 84 333 Q84 384 114 431 Z M148 333 Q148 286 180 255 Q212 222 258 222 Q305 222 337 255 Q370 287 370 333 Q370 380 337 412 Q305 445 258 445 Q212 445 180 412 Q148 380 148 333 Z " />
<glyph glyph-name="guilsinglleft" unicode="&#x2039;" horiz-adv-x="267" d="M202 475 L229 452 L109 267 L230 81 L202 58 L176 58 L37 262 L37 270 L176 475 L202 475 Z " />
<glyph glyph-name="guilsinglright" unicode="&#x203a;" horiz-adv-x="267" d="M65 475 L91 475 L230 270 L230 262 L91 58 L65 58 L37 81 L158 267 L37 452 L65 475 Z " />
<glyph glyph-name="periodcentered" unicode="&#xb7;" horiz-adv-x="273" d="M207 419 L207 296 L85 296 L85 419 L207 419 Z " />
<glyph glyph-name="quotesinglbase" unicode="&#x201a;" horiz-adv-x="210" d="M104 17 Q104 17 103 17 L102 17 Q82 17 68.5 30 Q55 43 54 64 Q54 78 61 91 Q74 116 103 116 Q128 116 144 95.5 Q160 75 160 43 Q160 -29 94 -106 L75 -106 L51 -87 Q72 -60 88 -26 Q99 -5 104 17 Z " />
<glyph glyph-name="quotedblbase" unicode="&#x201e;" horiz-adv-x="360" d="M104 17 Q104 17 103 17 L102 17 Q82 17 68.5 30 Q55 43 54 64 Q54 78 61 91 Q74 116 103 116 Q128 116 144 95.5 Q160 75 160 43 Q160 -29 94 -106 L75 -106 L51 -87 Q72 -60 88 -26 Q99 -5 104 17 Z M254 17 Q253 17 251 17 Q232 17 218 31 Q204 45 204 64 Q204 77 211 91 Q224 116 253 116 Q278 116 294 95.5 Q310 75 310 43 Q310 -29 244 -106 L225 -106 L201 -87 Q222 -60 238 -26 Q249 -5 254 17 Z " />
<glyph glyph-name="Acircumflex" unicode="&#xc2;" horiz-adv-x="655" d="M466 215 L190 215 L114 0 L17 0 L272 716 L390 716 L641 0 L540 0 L466 215 Z M440 292 L330 617 L213 292 L440 292 Z M283 923 L375 923 L470 776 L408 776 L329 870 L251 776 L188 776 L283 923 Z " />
<glyph glyph-name="Ecircumflex" unicode="&#xca;" horiz-adv-x="655" d="M179 326 L179 81 L601 81 L601 0 L88 0 L88 716 L584 716 L584 635 L179 635 L179 407 L569 407 L569 326 L179 326 Z M292 923 L384 923 L479 776 L417 776 L338 870 L260 776 L197 776 L292 923 Z " />
<glyph glyph-name="Aacute" unicode="&#xc1;" horiz-adv-x="655" d="M466 215 L190 215 L114 0 L17 0 L272 716 L390 716 L641 0 L540 0 L466 215 Z M440 292 L330 617 L213 292 L440 292 Z M396 922 L507 922 L360 777 L301 777 L396 922 Z " />
<glyph glyph-name="Edieresis" unicode="&#xcb;" horiz-adv-x="655" d="M179 326 L179 81 L601 81 L601 0 L88 0 L88 716 L584 716 L584 635 L179 635 L179 407 L569 407 L569 326 L179 326 Z M260 892 Q281 892 295.5 877.5 Q310 863 310 843 Q310 823 295.5 808.5 Q281 794 260 794 Q240 794 225.5 808.5 Q211 823 211 843 Q211 863 225.5 877.5 Q240 892 260 892 Z M423 892 Q443 892 457.5 877.5 Q472 863 472 843 Q472 823 457.5 808.5 Q443 794 423 794 Q403 794 388.5 808.5 Q374 823 374 843 Q374 863 388.5 877.5 Q403 892 423 892 Z " />
<glyph glyph-name="Egrave" unicode="&#xc8;" horiz-adv-x="655" d="M179 326 L179 81 L601 81 L601 0 L88 0 L88 716 L584 716 L584 635 L179 635 L179 407 L569 407 L569 326 L179 326 Z M313 922 L408 777 L349 777 L203 922 L313 922 Z " />
<glyph glyph-name="Iacute" unicode="&#xcd;" horiz-adv-x="273" d="M189 716 L189 0 L98 0 L98 716 L189 716 Z M196 922 L307 922 L161 777 L102 777 L196 922 Z " />
<glyph glyph-name="Icircumflex" unicode="&#xce;" horiz-adv-x="273" d="M189 716 L189 0 L98 0 L98 716 L189 716 Z M93 923 L186 923 L281 776 L219 776 L140 870 L62 776 L-1 776 L93 923 Z " />
<glyph glyph-name="Idieresis" unicode="&#xcf;" horiz-adv-x="273" d="M189 716 L189 0 L98 0 L98 716 L189 716 Z M59 892 Q80 892 94.5 877.5 Q109 863 109 843 Q109 823 94.5 808.5 Q80 794 59 794 Q39 794 24.5 808.5 Q10 823 10 843 Q10 863 24.5 877.5 Q39 892 59 892 Z M222 892 Q242 892 256.5 877.5 Q271 863 271 843 Q271 823 256.5 808.5 Q242 794 222 794 Q201 794 187 808.5 Q173 823 173 843 Q173 863 187 877.5 Q201 892 222 892 Z " />
<glyph glyph-name="Igrave" unicode="&#xcc;" horiz-adv-x="273" d="M189 716 L189 0 L98 0 L98 716 L189 716 Z M112 922 L206 777 L147 777 L1 922 L112 922 Z " />
<glyph glyph-name="Oacute" unicode="&#xd3;" horiz-adv-x="764" d="M411 922 L521 922 L375 777 L316 777 L411 922 Z M383 727 Q549 727 645 612 Q728 512 728 358 Q728 181 621 78 Q527 -11 383 -11 Q216 -11 120 104 Q37 204 37 358 Q37 535 145 638 Q238 727 383 727 Z M382 646 Q260 646 189 557 Q128 479 128 358 Q128 219 207 139 Q276 70 382 70 Q505 70 576 159 Q637 237 637 358 Q637 497 558 577 Q489 646 382 646 Z " />
<glyph glyph-name="Ocircumflex" unicode="&#xd4;" horiz-adv-x="764" d="M336 923 L429 923 L524 776 L461 776 L382 870 L305 776 L242 776 L336 923 Z M383 727 Q549 727 645 612 Q728 512 728 358 Q728 181 621 78 Q527 -11 383 -11 Q216 -11 120 104 Q37 204 37 358 Q37 535 145 638 Q238 727 383 727 Z M382 646 Q260 646 189 557 Q128 479 128 358 Q128 219 207 139 Q276 70 382 70 Q505 70 576 159 Q637 237 637 358 Q637 497 558 577 Q489 646 382 646 Z " />
<glyph glyph-name="Ograve" unicode="&#xd2;" horiz-adv-x="764" d="M351 922 L446 777 L387 777 L241 922 L351 922 Z M383 727 Q549 727 645 612 Q728 512 728 358 Q728 181 621 78 Q527 -11 383 -11 Q216 -11 120 104 Q37 204 37 358 Q37 535 145 638 Q238 727 383 727 Z M382 646 Q260 646 189 557 Q128 479 128 358 Q128 219 207 139 Q276 70 382 70 Q505 70 576 159 Q637 237 637 358 Q637 497 558 577 Q489 646 382 646 Z " />
<glyph glyph-name="Uacute" unicode="&#xda;" horiz-adv-x="709" d="M379 922 L490 922 L344 777 L285 777 L379 922 Z M542 716 L633 716 L633 225 Q633 109 548 45 Q475 -11 357 -11 Q221 -11 147 60 Q83 123 83 225 L83 716 L174 716 L174 225 Q174 151 222 110.5 Q270 70 357 70 Q449 70 499 116 Q542 157 542 225 L542 716 Z " />
<glyph glyph-name="Ucircumflex" unicode="&#xdb;" horiz-adv-x="709" d="M311 923 L404 923 L499 776 L437 776 L358 870 L280 776 L217 776 L311 923 Z M542 716 L633 716 L633 225 Q633 109 548 45 Q475 -11 357 -11 Q221 -11 147 60 Q83 123 83 225 L83 716 L174 716 L174 225 Q174 151 222 110.5 Q270 70 357 70 Q449 70 499 116 Q542 157 542 225 L542 716 Z " />
<glyph glyph-name="Ugrave" unicode="&#xd9;" horiz-adv-x="709" d="M327 922 L421 777 L362 777 L216 922 L327 922 Z M542 716 L633 716 L633 225 Q633 109 548 45 Q475 -11 357 -11 Q221 -11 147 60 Q83 123 83 225 L83 716 L174 716 L174 225 Q174 151 222 110.5 Q270 70 357 70 Q449 70 499 116 Q542 157 542 225 L542 716 Z " />
<glyph glyph-name="overscore" unicode="&#xaf;" horiz-adv-x="479" d="M479 824 L479 761 L0 761 L0 824 L479 824 Z " />
<glyph glyph-name="cedilla" unicode="&#xb8;" horiz-adv-x="491" d="M243 0 L281 0 L259 -55 Q274 -53 285 -53 Q364 -53 364 -118 Q364 -161 331.5 -185.5 Q299 -210 243 -210 Q196 -210 120 -177 L141 -137 L143 -138 Q148 -141 149 -141 Q205 -170 237 -170 Q260 -170 275 -157.5 Q290 -145 290 -126 Q290 -89 245 -89 Q230 -89 214 -97 L203 -90 L243 0 Z " />
<glyph glyph-name="brokenbar" unicode="&#xa6;" horiz-adv-x="200" d="M69 412 L69 688 L131 688 L131 412 L69 412 Z M131 304 L131 28 L69 28 L69 304 L131 304 Z " />
<glyph glyph-name="Eth" unicode="&#xd0;" horiz-adv-x="709" d="M88 333 L20 333 L20 398 L88 398 L88 716 L364 716 Q509 716 587 608 Q655 513 655 358 Q655 180 567 84 Q490 0 364 0 L88 0 L88 333 Z M179 333 L179 81 L348 81 Q454 81 509 153 Q564 223 564 358 Q564 493 509 563 Q454 635 348 635 L179 635 L179 398 L346 398 L346 333 L179 333 Z " />
<glyph glyph-name="eth" unicode="&#xf0;" horiz-adv-x="546" d="M214 602 L119 558 L84 596 L169 635 Q132 661 87 686 L130 729 Q186 702 240 668 L334 712 L373 675 L287 635 Q380 563 430 488 Q501 381 501 255 Q501 120 432 50 Q371 -11 269 -11 Q151 -11 89 68 Q35 137 35 254 Q35 421 139 489 Q192 524 257 524 Q282 524 310 515 Q260 564 214 602 Z M270 450 Q200 450 160 397.5 Q120 345 120 254 Q120 159 165 109 Q204 65 269 65 Q338 65 376.5 115 Q415 165 415 254 Q415 352 371 404 Q333 450 270 450 Z " />
<glyph glyph-name="Yacute" unicode="&#xdd;" horiz-adv-x="654" d="M379 281 L379 0 L288 0 L288 281 L13 716 L125 716 L335 367 L539 716 L648 716 L379 281 Z M383 922 L493 922 L347 777 L288 777 L383 922 Z " />
<glyph glyph-name="yacute" unicode="&#xfd;" horiz-adv-x="491" d="M303 727 L413 727 L267 581 L208 581 L303 727 Z M382 514 L470 514 L241 -108 Q201 -214 108 -214 Q64 -214 31 -194 L47 -123 Q72 -133 96 -133 Q144 -133 163 -83 L194 -1 L20 514 L108 514 L239 114 L382 514 Z " />
<glyph glyph-name="Thorn" unicode="&#xde;" horiz-adv-x="654" d="M180 185 L180 0 L89 0 L89 716 L180 716 L180 598 L385 598 Q494 598 553 535 Q604 480 604 390 Q604 293 541 236 Q486 185 405 185 L180 185 Z M180 266 L371 266 Q435 266 470.5 299 Q506 332 506 392 Q506 451 470.5 484 Q435 517 371 517 L180 517 L180 266 Z " />
<glyph glyph-name="thorn" unicode="&#xfe;" horiz-adv-x="545" d="M134 444 Q190 525 293 525 Q402 525 461 441 Q513 368 513 249 Q513 122 445 51 Q386 -11 292 -11 Q193 -11 134 60 L134 -214 L53 -214 L53 701 L134 701 L134 444 Z M279 449 Q214 449 174.5 396 Q135 343 135 254 Q135 162 180 110 Q218 66 279 66 Q347 66 387.5 117.5 Q428 169 428 254 Q428 348 382 402 Q341 449 279 449 Z " />
<glyph glyph-name="minus" unicode="&#x2212;" horiz-adv-x="517" d="M471 191 L46 191 L46 261 L471 261 L471 191 Z " />
<glyph glyph-name="multiply" unicode="&#xd7;" horiz-adv-x="426" d="M350 408 L394 364 L257 226 L386 97 L342 53 L213 182 L84 53 L40 97 L169 226 L32 364 L76 408 L213 271 L350 408 Z " />
<glyph glyph-name="onesuperior" unicode="&#xb9;" horiz-adv-x="345" d="M157 570 L60 570 L60 614 L75 616 Q129 621 145.5 634.5 Q162 648 176 696 L218 696 L218 279 L157 279 L157 570 Z " />
<glyph glyph-name="twosuperior" unicode="&#xb2;" horiz-adv-x="345" d="M317 336 L317 279 L19 279 Q23 351 47.5 388 Q72 425 143 462 L201 493 Q259 524 259 571 Q259 602 235 623 Q211 644 175 644 Q124 644 102 606 Q92 588 89 547 L28 547 Q33 696 177 696 Q240 696 280.5 661.5 Q321 627 321 573 Q321 493 226 445 L164 414 Q110 386 92 336 L317 336 Z " />
<glyph glyph-name="threesuperior" unicode="&#xb3;" horiz-adv-x="345" d="M133 473 L133 522 Q196 523 218.5 535 Q241 547 241 581 Q241 646 167 646 Q115 646 96 612 Q87 595 87 559 L26 559 Q28 698 166 698 Q229 698 266 667 Q303 636 303 582 Q303 525 248 500 Q317 477 317 403 Q317 345 275.5 309.5 Q234 274 165 274 Q22 274 16 413 L77 413 Q81 325 167 325 Q208 325 231.5 346 Q255 367 255 403 Q255 450 211 467 Q196 473 133 473 Z " />
<glyph glyph-name="onehalf" unicode="&#xbd;" horiz-adv-x="723" d="M196 673 L196 290 L162 263 L129 263 L129 593 L51 535 L16 579 L136 673 L196 673 Z M574 673 L178 0 L106 0 L502 673 L574 673 Z M461 372 Q522 413 579 413 Q633 413 663 383 Q693 353 693 301 Q693 263 667 222 Q641 181 573 112 Q558 97 551 90 L521 58 L700 58 L700 26 L677 0 L436 0 L436 56 L481 99 Q541 153 580 198 Q610 233 619 252 Q629 272 629 294 Q629 356 571 356 Q532 356 495 328 L461 372 Z " />
<glyph glyph-name="onequarter" unicode="&#xbc;" horiz-adv-x="674" d="M196 673 L196 290 L162 263 L129 263 L129 593 L51 535 L16 579 L136 673 L196 673 Z M556 673 L160 0 L87 0 L484 673 L556 673 Z M610 410 L610 147 L658 147 L658 89 L610 89 L610 22 L581 0 L544 0 L544 89 L355 89 L354 141 L549 410 L610 410 Z M544 326 L416 147 L544 147 L544 326 Z " />
<glyph glyph-name="threequarters" unicode="&#xbe;" horiz-adv-x="727" d="M42 667 Q85 684 125 684 Q178 684 211 654 Q244 624 244 576 Q244 540 221 512.5 Q198 485 165 482 Q213 478 241 441 Q263 413 263 378 Q263 266 115 266 Q69 266 38 277 L16 304 L16 327 Q62 313 103 313 Q144 313 169.5 330.5 Q195 348 195 377 Q195 414 160 438 Q122 464 66 464 L66 503 L109 503 Q139 503 156 518 Q181 541 181 574 Q181 634 111 634 Q80 634 42 624 L42 667 Z M618 673 L221 0 L149 0 L545 673 L618 673 Z M662 410 L662 147 L711 147 L711 89 L662 89 L662 22 L633 0 L597 0 L597 89 L407 89 L407 141 L602 410 L662 410 Z M597 326 L469 147 L597 147 L597 326 Z " />
<glyph glyph-name="nbspace" unicode="&#xa0;" horiz-adv-x="273" d="" />
<glyph glyph-name="uni00AD" unicode="&#xad;" horiz-adv-x="327" d="M278 306 L278 236 L45 236 L45 306 L278 306 Z " />
<glyph glyph-name="uni02C9" unicode="&#x2c9;" horiz-adv-x="491" d="M380 688 L380 619 L111 619 L111 688 L380 688 Z " />
<glyph glyph-name="anoteleia" unicode="&#x387;" horiz-adv-x="273" d="M207 419 L207 296 L85 296 L85 419 L207 419 Z " />
<glyph glyph-name="uni060C" unicode="&#x60c;" horiz-adv-x="210" d="M107 94 Q107 94 108 94 L109 94 Q129 94 142.5 81 Q156 68 157 47 Q157 33 150 20 Q137 -5 108 -5 Q83 -5 67 15.5 Q51 36 51 68 Q51 141 116 217 L136 217 L160 197 Q138 171 122 137 Q112 116 107 94 Z " />
<glyph glyph-name="uni0615" unicode="&#x615;" d="M69 792 L69 696 Q123 762 188 762 Q226 762 248 738.5 Q270 715 270 675 L270 642 Q270 621 258 605 Q242 586 214 586 L0 586 L0 627 L26 627 L26 792 L69 792 Z M225 674 Q225 700 211 712 Q200 721 183 721 Q154 720 122 695 Q89 668 70 627 L206 627 Q225 627 225 645 L225 674 Z " />
<glyph glyph-name="uni061B" unicode="&#x61b;" horiz-adv-x="210" d="M107 289 Q107 289 108 289 L109 289 Q129 289 142.5 275.5 Q156 262 157 242 Q157 227 150 215 Q137 190 108 190 Q83 190 67 210.5 Q51 231 51 262 Q51 335 116 411 L136 411 L160 392 Q138 365 122 331 Q112 311 107 289 Z M109 93 Q129 93 143 79 Q157 65 157 44 Q157 24 143 9.5 Q129 -5 108 -5 Q88 -5 73.5 9.5 Q59 24 59 44 Q59 65 73.5 79 Q88 93 109 93 Z " />
<glyph glyph-name="uni061F" unicode="&#x61f;" horiz-adv-x="405" d="M235 184 Q237 215 237 238 Q237 300 218.5 332 Q200 364 129 423 Q79 465 59.5 498 Q40 531 40 573 Q40 648 100 688 Q148 721 214 721 Q342 721 372 571 L313 551 Q296 643 221 643 Q181 643 152 622 Q123 601 123 572 Q123 543 138.5 520.5 Q154 498 203 456 Q207 452 211 449 Q270 397 290 359 Q310 321 310 259 Q310 239 308 215 L269 184 L235 184 Z M271 93 Q292 93 306 79 Q320 65 320 44 Q320 24 306 9.5 Q292 -5 271 -5 Q251 -5 236.5 9.5 Q222 24 222 44 Q222 65 236.5 79 Q251 93 271 93 Z " />
<glyph glyph-name="uni0621" unicode="&#x621;" horiz-adv-x="496" d="M158 31 Q131 50 112 76 Q68 138 68 233 Q68 343 132 404 Q189 458 285 458 Q325 458 370 448 L370 378 Q327 388 294 388 Q154 388 154 228 Q154 158 189.5 119 Q225 80 289 80 Q296 80 304 80 Q406 94 465 94 Q469 94 475 94 L475 64 L440 21 Q355 21 262 -7 Q166 -36 92 -86 L55 -27 Q89 -2 158 31 Z " />
<glyph glyph-name="uni0622" unicode="&#x622;" horiz-adv-x="223" d="M-27 817 Q9 877 57 877 Q83 877 124 857 Q138 851 147 847 Q167 839 183 839 Q210 839 234 866 L257 849 Q215 792 172 792 Q152 792 127 801 Q118 804 96 816 Q69 829 53 829 Q29 829 -4 800 L-27 817 Z M154 716 L154 10 L111 -25 L69 -25 L69 716 L154 716 Z " />
<glyph glyph-name="uni0623" unicode="&#x623;" horiz-adv-x="223" d="M51 832 Q30 859 30 898 Q30 937 53 960.5 Q76 984 114 984 Q138 984 162 976 L162 935 Q144 940 127 940 Q75 940 75 887 Q75 868 88 852 Q104 832 131 832 L195 832 L195 815 L175 791 L7 791 L7 832 L51 832 Z M154 716 L154 10 L111 -25 L69 -25 L69 716 L154 716 Z " />
<glyph glyph-name="uni0624" unicode="&#x624;" horiz-adv-x="532" d="M237 595 Q216 622 216 660 Q216 699 239 723 Q262 747 300 747 Q324 747 348 738 L348 697 Q330 702 313 702 Q261 702 261 650 Q261 630 274 614 Q290 595 317 595 L381 595 L381 578 L362 554 L193 554 L193 595 L237 595 Z M391 10 Q339 -9 282 -9 Q174 -9 111 67 Q55 134 55 238 Q55 343 114 406 Q177 472 284 472 Q365 472 416 431 Q477 382 477 290 L477 9 Q476 -119 393 -184 Q351 -217 292 -230 Q253 -238 211 -238 Q187 -238 165 -237 L132 -196 L132 -164 Q162 -168 195 -168 Q390 -168 391 10 Z M391 290 Q391 352 347 383 Q322 400 284 400 Q217 400 178.5 355 Q140 310 140 230 Q140 154 184 110 Q223 69 288 69 Q345 69 391 87 L391 290 Z " />
<glyph glyph-name="uni0625" unicode="&#x625;" horiz-adv-x="196" d="M154 716 L154 10 L111 -25 L69 -25 L69 716 L154 716 Z M38 -260 Q17 -233 17 -194 Q17 -155 40 -131.5 Q63 -108 101 -108 Q124 -108 149 -116 L149 -157 Q131 -152 114 -152 Q62 -152 62 -205 Q62 -224 75 -240 Q91 -260 118 -260 L182 -260 L182 -277 L162 -301 L-6 -301 L-6 -260 L38 -260 Z " />
<glyph glyph-name="uni0626" unicode="&#x626;" horiz-adv-x="782" d="M113 321 Q92 348 92 387 Q92 426 115 449.5 Q138 473 176 473 Q199 473 224 465 L224 424 Q206 429 189 429 Q137 429 137 376 Q137 357 150 341 Q166 321 193 321 L257 321 L257 304 L237 280 L69 280 L69 321 L113 321 Z M182 11 Q182 -88 234.5 -127.5 Q287 -167 418 -167 Q529 -167 581 -146 Q654 -115 654 -37 Q654 15 627 40.5 Q600 66 520 88 Q419 116 381 153 Q334 197 334 280 Q334 380 395 430 Q446 472 534 472 Q591 472 653 453 L653 387 Q585 403 544 403 Q416 403 416 279 Q416 231 444 205.5 Q472 180 551 156 Q651 126 690 87 Q736 41 736 -39 Q736 -149 643 -201 Q575 -239 473 -239 L362 -239 Q237 -239 166 -172 Q97 -108 97 9 L97 139 L140 174 L182 174 L182 11 Z " />
<glyph glyph-name="uni0627" unicode="&#x627;" horiz-adv-x="223" d="M154 716 L154 10 L111 -25 L69 -25 L69 716 L154 716 Z " />
<glyph glyph-name="uni0628" unicode="&#x628;" horiz-adv-x="957" d="M888 460 L888 95 Q888 59 866 33 Q838 0 798 0 L226 0 Q168 0 126 38 Q69 87 69 165 L69 353 L112 388 L154 388 L154 165 Q154 126 182 99 Q209 71 250 71 L765 71 Q803 71 803 109 L803 460 L888 460 Z M479 -104 Q499 -104 513.5 -118.5 Q528 -133 528 -153 Q528 -174 513.5 -188.5 Q499 -203 479 -203 Q458 -203 443.5 -188.5 Q429 -174 429 -153 Q429 -133 443.5 -118.5 Q458 -104 479 -104 Z " />
<glyph glyph-name="uni0629" unicode="&#x629;" horiz-adv-x="531" d="M305 680 Q325 680 339.5 665.5 Q354 651 354 631 Q354 610 339.5 595.5 Q325 581 305 581 Q285 581 270.5 595.5 Q256 610 256 631 Q256 651 270.5 665.5 Q285 680 305 680 Z M426 680 Q447 680 461.5 665.5 Q476 651 476 631 Q476 610 461.5 595.5 Q447 581 426 581 Q406 581 391.5 595.5 Q377 610 377 631 Q377 651 391.5 665.5 Q406 680 426 680 Z M476 487 L476 172 Q476 91 430 44 Q379 -9 276 -9 Q186 -9 130 37 Q55 99 55 224 Q55 337 124 410 Q188 477 284 477 Q337 477 391 453 L434 487 L476 487 Z M391 383 Q347 405 302 405 Q223 405 178 343 Q140 293 140 223 Q140 146 176 104 Q212 62 276 62 Q336 62 364 93 Q391 123 391 173 L391 383 Z " />
<glyph glyph-name="uni062A" unicode="&#x62a;" horiz-adv-x="957" d="M419 487 Q439 487 453.5 472.5 Q468 458 468 437 Q468 417 453.5 402.5 Q439 388 419 388 Q398 388 384 402.5 Q370 417 370 437 Q370 458 384 472.5 Q398 487 419 487 Z M540 487 Q561 487 575.5 472.5 Q590 458 590 437 Q590 417 575.5 402.5 Q561 388 540 388 Q520 388 505.5 402.5 Q491 417 491 437 Q491 458 505.5 472.5 Q520 487 540 487 Z M888 460 L888 95 Q888 59 866 33 Q838 0 798 0 L226 0 Q168 0 126 38 Q69 87 69 165 L69 353 L112 388 L154 388 L154 165 Q154 126 182 99 Q209 71 250 71 L765 71 Q803 71 803 109 L803 460 L888 460 Z " />
<glyph glyph-name="uni062B" unicode="&#x62b;" horiz-adv-x="957" d="M479 583 Q499 583 512.5 569 Q526 555 526 536 Q526 516 512 502.5 Q498 489 479 489 Q460 489 446 502.5 Q432 516 432 536 Q432 555 446 569 Q460 583 479 583 Z M418 487 Q439 487 453.5 472.5 Q468 458 468 437 Q468 417 453.5 402.5 Q439 388 418 388 Q398 388 383.5 402.5 Q369 417 369 437 Q369 458 383.5 472.5 Q398 487 418 487 Z M540 487 Q560 487 574.5 472.5 Q589 458 589 437 Q589 417 574.5 402.5 Q560 388 540 388 Q520 388 505.5 402.5 Q491 417 491 437 Q491 458 505.5 472.5 Q520 487 540 487 Z M888 460 L888 95 Q888 59 866 33 Q838 0 798 0 L226 0 Q168 0 126 38 Q69 87 69 165 L69 353 L112 388 L154 388 L154 165 Q154 126 182 99 Q209 71 250 71 L765 71 Q803 71 803 109 L803 460 L888 460 Z " />
<glyph glyph-name="uni062C" unicode="&#x62c;" horiz-adv-x="638" d="M180 443 Q252 472 338 472 Q462 472 527 395 Q583 329 583 222 L583 95 Q583 56 556 28 Q530 0 493 0 L299 0 Q215 0 172 -48 Q141 -82 140 -142 Q143 -306 337 -306 Q399 -306 468 -290 L468 -318 L436 -358 Q379 -377 321 -378 Q231 -378 166 -342 Q56 -282 55 -143 Q57 -51 104 0 Q170 71 311 71 L460 71 Q497 71 497 109 L497 225 Q497 305 461 348 Q418 398 326 398 Q268 398 180 376 L180 443 Z M325 -104 Q345 -104 359.5 -118.5 Q374 -133 374 -153 Q374 -174 359.5 -188.5 Q345 -203 325 -203 Q304 -203 289.5 -188.5 Q275 -174 275 -153 Q275 -133 289.5 -118.5 Q304 -104 325 -104 Z " />
<glyph glyph-name="uni062D" unicode="&#x62d;" horiz-adv-x="652" d="M180 443 Q272 472 352 472 Q475 472 541 395 Q596 329 596 222 L596 95 Q596 56 570 28 Q544 0 507 0 L299 0 Q215 0 172 -48 Q141 -82 140 -142 Q143 -306 337 -306 Q399 -306 468 -290 L468 -322 L433 -366 Q392 -377 325 -377 Q198 -377 126 -313 Q56 -252 55 -143 Q57 -51 104 0 Q170 71 311 71 L473 71 Q511 71 511 109 L511 225 Q511 303 471 348 Q425 398 339 398 Q287 398 180 376 L180 443 Z " />
<glyph glyph-name="uni062E" unicode="&#x62e;" horiz-adv-x="652" d="M335 680 Q356 680 370.5 665.5 Q385 651 385 631 Q385 610 370.5 595.5 Q356 581 335 581 Q315 581 300.5 595.5 Q286 610 286 631 Q286 651 300.5 665.5 Q315 680 335 680 Z M180 443 Q272 472 351 472 Q475 472 541 395 Q596 330 596 222 L596 95 Q596 56 570 28 Q544 0 507 0 L299 0 Q215 0 172 -48 Q141 -82 140 -142 Q143 -306 338 -306 Q399 -306 468 -290 L468 -322 L433 -366 Q392 -377 326 -377 Q198 -377 126 -314 Q56 -252 55 -143 Q57 -51 104 0 Q171 71 311 71 L473 71 Q511 71 511 109 L511 225 Q511 303 471 348 Q425 398 339 398 Q287 398 180 376 L180 443 Z " />
<glyph glyph-name="uni062F" unicode="&#x62f;" horiz-adv-x="517" d="M140 466 Q176 472 217 472 Q328 472 396 405 Q457 343 457 248 L457 95 Q457 56 432 29 Q406 0 368 0 L39 0 L39 71 L335 71 Q372 71 372 109 L372 236 Q372 307 329 354 Q283 402 187 403 Q159 403 140 399 L140 466 Z " />
<glyph glyph-name="uni0630" unicode="&#x630;" horiz-adv-x="517" d="M191 680 Q211 680 225.5 665.5 Q240 651 240 631 Q240 610 225.5 595.5 Q211 581 191 581 Q171 581 156.5 595.5 Q142 610 142 631 Q142 651 156.5 665.5 Q171 680 191 680 Z M140 466 Q176 472 217 472 Q328 472 396 405 Q457 343 457 248 L457 95 Q457 56 432 29 Q406 0 368 0 L39 0 L39 71 L335 71 Q372 71 372 109 L372 236 Q372 307 329 354 Q283 402 187 403 Q159 403 140 399 L140 466 Z " />
<glyph glyph-name="uni0631" unicode="&#x631;" horiz-adv-x="402" d="M332 460 L332 9 Q332 -102 269 -166 Q220 -216 137 -232 Q105 -238 67 -238 Q43 -238 21 -237 L-12 -196 L-12 -164 Q17 -168 51 -168 Q247 -168 247 12 L247 460 L332 460 Z " />
<glyph glyph-name="uni0632" unicode="&#x632;" horiz-adv-x="409" d="M290 680 Q310 680 324.5 665.5 Q339 651 339 631 Q339 610 324.5 595.5 Q310 581 290 581 Q270 581 255.5 595.5 Q241 610 241 631 Q241 651 255.5 665.5 Q270 680 290 680 Z M332 460 L332 9 Q332 -111 259 -175 Q205 -224 118 -235 Q94 -238 67 -238 Q43 -238 21 -237 L-12 -196 L-12 -164 Q17 -168 51 -168 Q247 -168 247 12 L247 460 L332 460 Z " />
<glyph glyph-name="uni0633" unicode="&#x633;" horiz-adv-x="1376" d="M1307 460 L1307 95 Q1307 56 1280.5 28 Q1254 0 1217 0 L1024 0 L991 35 L989 35 Q961 0 919 0 L711 0 Q709 -110 641 -173 Q570 -239 446 -239 L335 -239 Q201 -239 130 -164 Q69 -99 69 9 L69 218 L112 253 L154 253 L154 11 Q154 -89 206.5 -128.5 Q259 -168 390 -168 Q515 -168 565 -134 Q626 -93 626 11 L626 345 L711 345 L711 71 L886 71 Q924 71 924 109 L924 403 L1009 403 L1009 95 Q1009 82 1006 71 L1184 71 Q1222 71 1222 109 L1222 460 L1307 460 Z " />
<glyph glyph-name="uni0634" unicode="&#x634;" horiz-adv-x="1376" d="M968 776 Q987 776 1001 762 Q1015 748 1015 729 Q1015 710 1001 696 Q987 682 968 682 Q949 682 935 696 Q921 710 921 729 Q921 748 935 762 Q949 776 968 776 Z M907 680 Q928 680 942 665.5 Q956 651 956 631 Q956 610 942 595.5 Q928 581 907 581 Q887 581 872.5 595.5 Q858 610 858 631 Q858 651 872.5 665.5 Q887 680 907 680 Z M1029 680 Q1049 680 1063.5 665.5 Q1078 651 1078 631 Q1078 610 1063.5 595.5 Q1049 581 1029 581 Q1008 581 994 595.5 Q980 610 980 631 Q980 651 994 665.5 Q1008 680 1029 680 Z M1307 460 L1307 95 Q1307 56 1280.5 28 Q1254 0 1217 0 L1024 0 L991 35 L989 35 Q961 0 919 0 L711 0 Q709 -110 641 -173 Q570 -239 446 -239 L335 -239 Q201 -239 130 -164 Q69 -99 69 9 L69 218 L112 253 L154 253 L154 11 Q154 -89 206.5 -128.5 Q259 -168 390 -168 Q515 -168 565 -134 Q626 -93 626 11 L626 345 L711 345 L711 71 L886 71 Q924 71 924 109 L924 403 L1009 403 L1009 95 Q1009 82 1006 71 L1184 71 Q1222 71 1222 109 L1222 460 L1307 460 Z " />
<glyph glyph-name="uni0635" unicode="&#x635;" horiz-adv-x="1383" d="M710 240 Q847 472 1071 472 Q1190 472 1262 398 Q1328 331 1328 228 L1328 95 Q1328 56 1302 29 Q1276 0 1238 0 L711 0 Q708 -113 638 -176 Q567 -239 446 -239 L335 -239 Q216 -239 145 -178 Q69 -113 69 9 L69 218 L112 253 L154 253 L154 11 Q154 -89 206.5 -128.5 Q259 -168 391 -168 Q515 -168 566 -134 Q626 -93 626 11 L625 460 L710 460 L710 240 Z M1242 237 Q1242 301 1202 344 Q1151 399 1057 399 Q971 399 896 346 Q780 264 710 71 L1205 71 Q1242 71 1242 109 L1242 237 Z " />
<glyph glyph-name="uni0636" unicode="&#x636;" horiz-adv-x="1383" d="M1011 680 Q1032 680 1046.5 665.5 Q1061 651 1061 631 Q1061 610 1046.5 595.5 Q1032 581 1011 581 Q991 581 976.5 595.5 Q962 610 962 631 Q962 651 976.5 665.5 Q991 680 1011 680 Z M710 240 Q847 472 1071 472 Q1190 472 1262 398 Q1328 331 1328 228 L1328 95 Q1328 56 1302 29 Q1276 0 1238 0 L711 0 Q708 -113 638 -176 Q567 -239 446 -239 L335 -239 Q216 -239 145 -178 Q69 -113 69 9 L69 218 L112 253 L154 253 L154 11 Q154 -89 206.5 -128.5 Q259 -168 391 -168 Q515 -168 566 -134 Q626 -93 626 11 L625 460 L710 460 L710 240 Z M1242 237 Q1242 301 1202 344 Q1151 399 1057 399 Q971 399 896 346 Q780 264 710 71 L1205 71 Q1242 71 1242 109 L1242 237 Z " />
<glyph glyph-name="uni0637" unicode="&#x637;" horiz-adv-x="979" d="M306 716 L306 241 Q444 472 667 472 Q785 472 858 398 Q923 331 923 228 L923 95 Q923 51 891 22 Q866 0 833 0 L90 0 L55 43 L55 71 L222 71 L222 716 L306 716 Z M838 237 Q837 320 774 365 Q727 399 653 399 Q559 399 480 337 Q374 255 306 71 L800 71 Q838 71 838 109 L838 237 Z " />
<glyph glyph-name="uni0638" unicode="&#x638;" horiz-adv-x="979" d="M306 716 L306 241 Q444 472 667 472 Q785 472 858 398 Q923 331 923 228 L923 95 Q923 51 891 22 Q866 0 833 0 L90 0 L55 43 L55 71 L222 71 L222 716 L306 716 Z M607 680 Q627 680 641.5 665.5 Q656 651 656 631 Q656 610 641.5 595.5 Q627 581 607 581 Q587 581 572.5 595.5 Q558 610 558 631 Q558 651 572.5 665.5 Q587 680 607 680 Z M838 237 Q837 320 774 365 Q727 399 653 399 Q559 399 480 337 Q374 255 306 71 L800 71 Q838 71 838 109 L838 237 Z " />
<glyph glyph-name="uni0639" unicode="&#x639;" horiz-adv-x="556" d="M178 49 Q88 123 88 243 Q88 354 161 418 Q224 472 321 472 Q374 472 432 455 L432 388 Q376 403 329 403 Q258 403 215.5 359 Q173 315 173 241 Q173 172 214 121 Q253 71 310 71 L514 71 L514 43 L479 0 L299 0 Q215 0 172 -48 Q141 -82 140 -142 Q143 -306 337 -306 Q399 -306 468 -290 L468 -318 L429 -366 Q391 -377 329 -377 Q230 -377 166 -342 Q56 -282 55 -143 Q57 -51 104 0 Q133 31 178 49 Z " />
<glyph glyph-name="uni063A" unicode="&#x63a;" horiz-adv-x="556" d="M322 680 Q342 680 356.5 665.5 Q371 651 371 631 Q371 610 356.5 595.5 Q342 581 322 581 Q302 581 287.5 595.5 Q273 610 273 631 Q273 651 287.5 665.5 Q302 680 322 680 Z M178 49 Q88 123 88 243 Q88 354 161 418 Q224 472 321 472 Q374 472 432 455 L432 388 Q376 403 329 403 Q258 403 215.5 359 Q173 315 173 241 Q173 172 214 121 Q253 71 310 71 L514 71 L514 43 L479 0 L299 0 Q215 0 172 -48 Q141 -82 140 -142 Q143 -306 338 -306 Q399 -306 468 -290 L468 -318 L429 -366 Q391 -377 329 -377 Q230 -377 166 -342 Q56 -282 55 -143 Q57 -51 104 0 Q133 31 178 49 Z " />
<glyph glyph-name="uni0640" unicode="&#x640;" horiz-adv-x="178" d="M181 71 L181 0 L-4 0 L-4 71 L181 71 Z " />
<glyph glyph-name="uni0641" unicode="&#x641;" horiz-adv-x="989" d="M745 680 Q765 680 779.5 665.5 Q794 651 794 631 Q794 610 779.5 595.5 Q765 581 745 581 Q724 581 709.5 595.5 Q695 610 695 631 Q695 651 709.5 665.5 Q724 680 745 680 Z M579 71 Q509 137 509 241 Q509 359 584 421 Q647 472 745 472 Q831 472 881 424 Q933 376 934 290 L934 92 Q934 52 904 24 Q878 0 844 0 L226 0 Q176 0 135 30 Q69 79 69 165 L69 353 L112 388 L154 388 L154 165 Q154 123 186 95 Q212 71 250 71 L579 71 Z M849 290 Q849 342 821 371 Q793 400 745 400 Q673 400 634 357.5 Q595 315 595 238 Q595 161 646 114 Q690 71 758 71 L811 71 Q849 71 849 109 L849 290 Z " />
<glyph glyph-name="uni0642" unicode="&#x642;" horiz-adv-x="766" d="M462 680 Q483 680 497 665.5 Q511 651 511 631 Q511 610 497 595.5 Q483 581 462 581 Q442 581 427.5 595.5 Q413 610 413 631 Q413 651 427.5 665.5 Q442 680 462 680 Z M584 680 Q604 680 618.5 665.5 Q633 651 633 631 Q633 610 618.5 595.5 Q604 581 584 581 Q563 581 548.5 595.5 Q534 610 534 631 Q534 651 548.5 665.5 Q563 680 584 680 Z M626 10 Q574 -9 514 -9 Q405 -9 341 73 Q289 141 289 238 Q289 336 342 397 Q404 472 519 472 Q595 472 645 435 Q711 386 711 290 L711 9 Q711 -84 667 -144 Q597 -239 446 -239 L335 -239 Q220 -239 149 -182 Q69 -117 69 9 L69 150 L112 185 L154 185 L154 11 Q154 -88 206.5 -127.5 Q259 -167 390 -167 Q515 -167 565 -134 Q626 -93 626 10 Z M626 290 Q626 343 592 375 Q563 400 519 400 Q454 400 415 358 Q375 313 375 230 Q375 157 415 113 Q455 69 522 69 Q580 69 626 87 L626 290 Z " />
<glyph glyph-name="uni0643" unicode="&#x643;" horiz-adv-x="957" d="M888 716 L888 95 Q888 55 860 27 Q833 0 798 0 L226 0 Q161 0 115 47 Q69 96 69 165 L69 353 L112 388 L154 388 L154 165 Q154 124 184 97 Q212 71 250 71 L765 71 Q782 71 793 82 Q803 93 803 109 L803 716 L888 716 Z M411 388 Q383 429 383 478 Q383 536 419.5 569 Q456 602 519 602 Q544 602 568 597 L568 551 Q547 558 525 558 Q441 558 441 478 Q441 438 460.5 413 Q480 388 511 388 L623 388 L623 366 L602 340 L332 340 L332 388 L411 388 Z " />
<glyph glyph-name="uni0644" unicode="&#x644;" horiz-adv-x="780" d="M711 716 L711 9 Q711 -111 638 -176 Q567 -239 446 -239 L335 -239 Q216 -239 145 -178 Q69 -113 69 9 L69 218 L112 253 L154 253 L154 11 Q154 -89 206.5 -128.5 Q259 -168 390 -168 Q515 -168 566 -134 Q626 -93 626 11 L626 716 L711 716 Z " />
<glyph glyph-name="uni0645" unicode="&#x645;" horiz-adv-x="609" d="M187 71 Q133 127 133 226 Q133 342 201 409 Q262 469 362 471 Q446 471 496 429 Q554 381 554 290 L554 95 Q554 55 526 27 Q500 0 464 0 L178 0 Q140 0 140 -38 L140 -338 L97 -373 L55 -373 L55 -23 Q55 15 82 43 Q109 71 146 71 L187 71 Z M468 290 Q468 335 443 366 Q413 400 360 400 Q297 400 257.5 354.5 Q218 309 218 236 Q218 158 257 112 Q292 71 343 71 L431 71 Q468 71 468 109 L468 290 Z " />
<glyph glyph-name="uni0646" unicode="&#x646;" horiz-adv-x="780" d="M381 472 Q401 472 415.5 457.5 Q430 443 430 423 Q430 402 415.5 387.5 Q401 373 381 373 Q361 373 346.5 387.5 Q332 402 332 423 Q332 443 346.5 457.5 Q361 472 381 472 Z M711 460 L711 9 Q711 -111 638 -176 Q567 -239 446 -239 L335 -239 Q216 -239 145 -178 Q69 -113 69 9 L69 218 L112 253 L154 253 L154 11 Q154 -89 206.5 -128.5 Q259 -168 390 -168 Q515 -168 566 -134 Q626 -93 626 11 L626 460 L711 460 Z " />
<glyph glyph-name="uni0647" unicode="&#x647;" horiz-adv-x="531" d="M476 487 L476 172 Q476 91 430 44 Q379 -9 276 -9 Q186 -9 130 37 Q55 99 55 224 Q55 337 124 410 Q188 477 284 477 Q337 477 391 453 L434 487 L476 487 Z M391 383 Q347 405 302 405 Q223 405 178 343 Q140 293 140 223 Q140 146 176 104 Q212 62 276 62 Q336 62 364 93 Q391 123 391 173 L391 383 Z " />
<glyph glyph-name="uni0648" unicode="&#x648;" horiz-adv-x="532" d="M391 10 Q339 -9 282 -9 Q174 -9 111 67 Q55 134 55 238 Q55 343 114 406 Q177 472 284 472 Q365 472 416 431 Q477 382 477 290 L477 9 Q476 -119 393 -184 Q351 -217 292 -230 Q253 -238 211 -238 Q187 -238 165 -237 L132 -196 L132 -164 Q162 -168 195 -168 Q390 -168 391 10 Z M391 290 Q391 352 347 383 Q322 400 284 400 Q217 400 178.5 355 Q140 310 140 230 Q140 154 184 110 Q223 69 288 69 Q345 69 391 87 L391 290 Z " />
<glyph glyph-name="uni0649" unicode="&#x649;" horiz-adv-x="754" d="M154 11 Q154 -88 206.5 -127.5 Q259 -167 390 -167 Q502 -167 553 -146 Q627 -115 627 -37 Q627 15 600 40 Q573 65 493 88 Q392 117 353 153 Q306 197 306 279 Q306 380 367 430 Q418 472 506 472 Q563 472 625 453 L625 387 Q558 403 517 403 Q389 403 389 279 Q389 230 417 205 Q445 180 524 156 Q623 126 663 87 Q708 41 708 -39 Q708 -149 615 -201 Q547 -239 446 -239 L335 -239 Q210 -239 138 -172 Q69 -108 69 9 L69 139 L112 174 L154 174 L154 11 Z " />
<glyph glyph-name="uni064A" unicode="&#x64a;" horiz-adv-x="754" d="M154 11 Q154 -88 206.5 -127.5 Q259 -167 390 -167 Q502 -167 553 -146 Q627 -115 627 -37 Q627 15 600 40 Q573 65 492 88 Q392 117 353 153 Q306 198 306 279 Q306 380 367 430 Q418 472 506 472 Q563 472 625 453 L625 387 Q558 403 517 403 Q389 403 389 279 Q389 231 416.5 205.5 Q444 180 523 156 Q623 126 662 87 Q708 41 708 -39 Q708 -149 615 -201 Q547 -239 446 -239 L335 -239 Q210 -239 138 -172 Q69 -108 69 9 L69 139 L112 174 L154 174 L154 11 Z M329 -297 Q349 -297 363.5 -311.5 Q378 -326 378 -347 Q378 -367 363.5 -381.5 Q349 -396 329 -396 Q309 -396 294.5 -381.5 Q280 -367 280 -347 Q280 -326 294.5 -311.5 Q309 -297 329 -297 Z M451 -297 Q471 -297 485.5 -311.5 Q500 -326 500 -347 Q500 -367 485.5 -381.5 Q471 -396 451 -396 Q430 -396 415.5 -381.5 Q401 -367 401 -347 Q401 -326 415.5 -311.5 Q430 -297 451 -297 Z " />
<glyph glyph-name="uni064B" unicode="&#x64b;" d="M216 693 L17 638 L0 660 L0 677 L216 737 L216 693 Z M216 601 L17 546 L0 568 L0 585 L216 644 L216 601 Z " />
<glyph glyph-name="uni064C" unicode="&#x64c;" d="M219 584 Q184 611 184 650 Q184 683 206.5 705.5 Q229 728 263 728 Q295 728 316.5 706 Q338 684 338 650 Q338 605 296.5 571.5 Q255 538 200 538 Q134 538 92 584 L43 540 L17 540 L0 555 L101 644 Q133 581 196 581 Q208 581 219 584 Z M262 602 Q294 619 294 650 Q294 690 262 690 Q228 690 228 650 Q228 613 262 602 Z " />
<glyph glyph-name="uni064D" unicode="&#x64d;" d="M216 -134 L17 -189 L0 -167 L0 -150 L216 -91 L216 -134 Z M216 -226 L17 -281 L0 -259 L0 -242 L216 -183 L216 -226 Z " />
<glyph glyph-name="uni064E" unicode="&#x64e;" d="M216 622 L17 567 L0 589 L0 606 L216 666 L216 622 Z " />
<glyph glyph-name="uni064F" unicode="&#x64f;" d="M98 591 Q67 615 67 655 Q67 687 90 709.5 Q113 732 146 732 Q178 732 199.5 710 Q221 688 221 654 Q221 585 140 559 L17 525 L0 547 L0 564 L98 591 Z M145 606 Q177 622 177 654 Q177 693 145 693 Q111 693 111 654 Q111 616 145 606 Z " />
<glyph glyph-name="uni0650" unicode="&#x650;" d="M216 -160 L17 -215 L0 -193 L0 -176 L216 -116 L216 -160 Z " />
<glyph glyph-name="uni0651" unicode="&#x651;" d="M244 709 L244 599 Q244 580 232 567 Q219 552 197 552 L150 552 L137 566 L136 566 Q133 562 128 558 Q119 552 108 552 L47 552 Q26 552 13 566 Q0 579 0 599 L0 667 L22 685 L43 685 L43 602 Q43 596 46 593 Q51 587 58 587 L86 587 Q93 587 97 592 Q100 596 100 602 L100 685 L144 685 L144 587 L187 587 Q194 587 197 592 Q201 596 201 602 L201 709 L244 709 Z " />
<glyph glyph-name="uni0652" unicode="&#x652;" d="M77 701 Q110 701 132 678 Q154 655 154 622 Q154 589 133.5 569 Q113 549 77 549 Q42 549 21 569 Q0 589 0 622 Q0 655 22.5 678 Q45 701 77 701 Z M77 586 Q112 586 112 625 Q112 641 102 652 Q92 663 77 663 Q63 663 52.5 652 Q42 641 42 625 Q42 586 77 586 Z " />
<glyph glyph-name="uni0653" unicode="&#x653;" d="M20 602 Q56 662 104 662 Q130 662 171 642 Q185 635 194 632 Q214 624 230 624 Q258 624 281 651 L304 634 Q262 576 219 576 Q199 576 174 586 Q165 589 143 600 Q116 614 100 614 Q76 614 43 584 L20 602 Z " />
<glyph glyph-name="uni0654" unicode="&#x654;" d="M41 619 Q20 646 20 685 Q20 724 43 747.5 Q66 771 104 771 Q127 771 152 763 L152 722 Q134 727 117 727 Q65 727 65 674 Q65 655 78 639 Q94 619 121 619 L185 619 L185 602 L165 578 L-3 578 L-3 619 L41 619 Z " />
<glyph glyph-name="uni0655" unicode="&#x655;" d="M43 -227 Q22 -201 22 -164 Q22 -76 108 -76 Q131 -76 154 -83 L154 -124 Q134 -119 118 -119 Q67 -119 67 -172 Q67 -192 80 -208 Q96 -227 123 -227 L187 -227 L187 -244 L168 -268 L0 -268 L0 -227 L43 -227 Z " />
<glyph glyph-name="uni0656" unicode="&#x656;" d="M0 -75 L44 -75 L44 -266 L22 -284 L0 -284 L0 -75 Z " />
<glyph glyph-name="uni0657" unicode="&#x657;" d="M57 593 Q57 593 58 593 L59 593 Q79 593 92.5 580 Q106 567 107 546 Q107 532 100 519 Q87 494 58 494 Q33 494 17 514.5 Q1 535 1 567 Q1 640 66 716 L86 716 L110 696 Q88 670 72 636 Q62 615 57 593 Z " />
<glyph glyph-name="uni0658" unicode="&#x658;" d="M44 680 L44 594 Q44 551 102 551 Q161 551 161 593 L161 737 L205 737 L205 590 Q205 556 176.5 534.5 Q148 513 103 513 Q0 513 0 588 L0 662 L22 680 L44 680 Z " />
<glyph glyph-name="uni0660" unicode="&#x660;" horiz-adv-x="252" d="M129 325 L208 245 L208 209 L130 129 L32 226 L129 325 Z " />
<glyph glyph-name="uni0661" unicode="&#x661;" horiz-adv-x="269" d="M177 674 L177 35 L134 0 L92 0 L92 674 L177 674 Z " />
<glyph glyph-name="uni0662" unicode="&#x662;" horiz-adv-x="532" d="M92 460 Q92 578 159 636 Q217 686 318 686 Q396 686 463 661 L463 585 Q396 608 339 608 Q262 608 219.5 568 Q177 528 177 456 L177 35 L134 0 L92 0 L92 460 Z " />
<glyph glyph-name="uni0663" unicode="&#x663;" horiz-adv-x="748" d="M177 674 L177 413 Q213 400 263 400 Q359 400 359 482 L359 674 L435 674 L435 483 Q435 443 428 423 Q471 402 524 401 Q580 401 600 423 Q617 442 617 482 L617 674 L693 674 L693 488 Q693 438 681 406 Q670 378 648 359 Q608 325 540 325 Q443 325 394 363 Q345 325 278 325 Q231 325 177 341 L177 35 L134 0 L92 0 L92 674 L177 674 Z " />
<glyph glyph-name="uni0664" unicode="&#x664;" horiz-adv-x="506" d="M182 363 Q141 380 117 420.5 Q93 461 93 511 Q93 600 157 647 Q209 687 289 687 Q341 687 410 663 L410 592 Q352 609 310 609 Q249 609 213.5 579 Q178 549 178 498 Q178 454 208.5 426 Q239 398 286 398 L398 398 L398 370 L363 326 Q252 326 198 290 Q149 254 149 193 Q149 143 177 111 Q214 71 304 71 L441 71 L441 43 L406 0 L272 0 Q178 0 122 50 Q64 100 64 183 Q64 250 102 302 Q134 344 182 363 Z " />
<glyph glyph-name="uni0665" unicode="&#x665;" horiz-adv-x="532" d="M235 587 L300 587 Q398 553 452 428 Q493 335 493 235 Q493 114 431 51 Q374 -9 270 -9 Q152 -9 95 67 Q48 128 48 233 Q48 352 99 454 Q150 558 235 587 Z M278 516 L262 516 Q200 493 162 391 Q133 317 133 251 Q133 63 270 63 Q407 63 407 236 Q407 321 371 407 Q334 495 278 516 Z " />
<glyph glyph-name="uni0666" unicode="&#x666;" horiz-adv-x="532" d="M69 661 Q136 686 213 686 Q329 686 388 621 Q440 563 440 460 L440 35 L396 0 L354 0 L354 456 Q354 528 311.5 568 Q269 608 193 608 Q136 608 69 585 L69 661 Z " />
<glyph glyph-name="uni0667" unicode="&#x667;" horiz-adv-x="506" d="M477 679 L342 121 Q331 76 318 48 Q303 18 284 6 Q283 5 281 4 Q277 1 274 0 L231 0 Q226 2 220 6 Q203 19 188 50 Q176 77 164 121 L30 679 L121 679 L253 84 L385 679 L477 679 Z " />
<glyph glyph-name="uni0668" unicode="&#x668;" horiz-adv-x="506" d="M231 679 L274 679 Q277 678 281 675 Q283 674 284 673 Q303 660 318 631 Q331 603 342 557 L477 0 L385 0 L253 594 L121 0 L30 0 L164 557 Q175 602 190 632 Q204 661 220 673 Q226 677 231 679 Z " />
<glyph glyph-name="uni0669" unicode="&#x669;" horiz-adv-x="517" d="M261 288 Q178 288 123 324 Q46 375 46 481 Q46 573 100 627 Q158 686 252 686 Q334 686 387 639 Q444 588 444 496 L444 35 L400 0 L359 0 L359 288 L261 288 Z M359 499 Q359 549 329 580 Q299 610 252 610 Q198 610 164.5 576.5 Q131 543 131 490 Q131 430 168 397 Q205 364 273 364 L359 364 L359 499 Z " />
<glyph glyph-name="uni066A" unicode="&#x66a;" horiz-adv-x="519" d="M121 690 L187 623 L187 593 L121 526 L39 607 L121 690 Z M487 673 L90 0 L18 0 L414 673 L487 673 Z M396 162 L463 95 L463 64 L397 -2 L314 79 L396 162 Z " />
<glyph glyph-name="uni066B" unicode="&#x66b;" horiz-adv-x="209" d="M104 17 Q104 17 103 17 L102 17 Q82 17 68.5 30 Q55 43 54 64 Q54 78 61 91 Q74 116 103 116 Q128 116 144 95.5 Q160 75 160 43 Q160 -29 94 -106 L75 -106 L51 -87 Q72 -60 88 -26 Q99 -5 104 17 Z " />
<glyph glyph-name="uni066C" unicode="&#x66c;" horiz-adv-x="209" d="M136 217 L159 198 Q140 173 122 137 Q112 116 107 94 Q109 94 110 94 Q129 94 143 80 Q157 66 157 46 Q157 34 150 20 Q137 -5 108 -5 Q83 -5 67 15.5 Q51 36 51 68 Q51 141 116 217 L136 217 Z " />
<glyph glyph-name="uni066D" unicode="&#x66d;" horiz-adv-x="433" d="M247 682 L247 533 L372 586 L391 524 L255 492 L343 375 L292 339 L216 458 L140 338 L88 376 L177 492 L41 524 L60 586 L185 533 L185 656 L216 682 L247 682 Z " />
<glyph glyph-name="uni066E" unicode="&#x66e;" horiz-adv-x="957" d="M888 460 L888 95 Q888 59 866 33 Q838 0 798 0 L226 0 Q168 0 126 38 Q69 87 69 165 L69 353 L112 388 L154 388 L154 165 Q154 126 182 99 Q209 71 250 71 L765 71 Q803 71 803 109 L803 460 L888 460 Z " />
<glyph glyph-name="uni066F" unicode="&#x66f;" horiz-adv-x="766" d="M626 10 Q574 -9 514 -9 Q405 -9 341 73 Q289 141 289 238 Q289 336 342 397 Q404 472 519 472 Q595 472 645 435 Q711 386 711 290 L711 9 Q711 -84 667 -144 Q597 -239 446 -239 L335 -239 Q220 -239 149 -182 Q69 -117 69 9 L69 150 L112 185 L154 185 L154 11 Q154 -88 206.5 -127.5 Q259 -167 390 -167 Q515 -167 565 -134 Q626 -93 626 10 Z M626 290 Q626 343 592 375 Q563 400 519 400 Q454 400 415 358 Q375 313 375 230 Q375 157 415 113 Q455 69 522 69 Q580 69 626 87 L626 290 Z " />
<glyph glyph-name="uni0670" unicode="&#x670;" d="M0 760 L44 760 L44 569 L22 551 L0 551 L0 760 Z " />
<glyph glyph-name="uni0671" unicode="&#x671;" horiz-adv-x="223" d="M64 861 Q118 942 183 942 Q215 942 237.5 922 Q260 902 260 874 Q260 839 229.5 816 Q199 793 154 793 Q115 793 55 813 Q22 824 12 824 Q-13 824 -46 795 L-69 812 Q-33 872 15 872 Q38 872 64 861 Z M104 849 Q143 836 168 836 Q222 836 222 872 Q222 903 184 903 Q142 903 104 849 Z M154 716 L154 10 L111 -25 L69 -25 L69 716 L154 716 Z " />
<glyph glyph-name="uni0674" unicode="&#x674;" d="M41 619 Q20 646 20 685 Q20 724 43 747.5 Q66 771 104 771 Q127 771 152 763 L152 722 Q134 727 117 727 Q65 727 65 674 Q65 655 78 639 Q94 619 121 619 L185 619 L185 602 L165 578 L-3 578 L-3 619 L41 619 Z " />
<glyph glyph-name="uni0679" unicode="&#x679;" horiz-adv-x="1003" d="M433 594 L431 498 Q486 565 550 565 Q588 565 610 541 Q632 517 632 477 L632 444 Q632 423 620 408 Q604 388 576 388 L362 388 L362 429 L388 429 L388 594 L433 594 Z M587 476 Q587 502 573 514 Q562 523 545 523 Q516 523 484 497 Q451 470 432 429 L568 429 Q587 429 587 448 L587 476 Z M888 460 L888 95 Q888 59 866 33 Q838 0 798 0 L226 0 Q168 0 126 38 Q69 87 69 165 L69 353 L112 388 L154 388 L154 165 Q154 126 182 99 Q209 71 250 71 L765 71 Q803 71 803 109 L803 460 L888 460 Z " />
<glyph glyph-name="uni067E" unicode="&#x67e;" horiz-adv-x="957" d="M888 460 L888 95 Q888 59 866 33 Q838 0 798 0 L226 0 Q168 0 126 38 Q69 87 69 165 L69 353 L112 388 L154 388 L154 165 Q154 126 182 99 Q209 71 250 71 L765 71 Q803 71 803 109 L803 460 L888 460 Z M418 -104 Q438 -104 452.5 -118.5 Q467 -133 467 -153 Q467 -174 452.5 -188.5 Q438 -203 418 -203 Q398 -203 383.5 -188.5 Q369 -174 369 -153 Q369 -133 383.5 -118.5 Q398 -104 418 -104 Z M539 -104 Q560 -104 574.5 -118.5 Q589 -133 589 -153 Q589 -174 574.5 -188.5 Q560 -203 539 -203 Q519 -203 504.5 -188.5 Q490 -174 490 -153 Q490 -133 504.5 -118.5 Q519 -104 539 -104 Z M479 -205 Q498 -205 512 -218.5 Q526 -232 526 -252 Q526 -271 512 -285 Q498 -299 479 -299 Q459 -299 445.5 -285 Q432 -271 432 -252 Q432 -232 445.5 -218.5 Q459 -205 479 -205 Z " />
<glyph glyph-name="uni0686" unicode="&#x686;" horiz-adv-x="651" d="M180 443 Q272 472 352 472 Q476 472 541 395 Q597 329 597 222 L597 95 Q597 56 570 28 Q544 0 507 0 L299 0 Q215 0 173 -48 Q141 -83 141 -151 Q141 -224 183.5 -266 Q226 -308 301 -308 Q316 -308 334 -306 L334 -334 L298 -378 L294 -378 Q193 -378 133 -328 Q56 -264 56 -150 Q56 71 312 71 L474 71 Q512 71 512 109 L512 225 Q512 303 471 348 Q426 398 340 398 Q288 398 180 376 L180 443 Z M329 -105 Q350 -105 364.5 -119.5 Q379 -134 379 -155 Q379 -175 364.5 -189.5 Q350 -204 329 -204 Q309 -204 294.5 -189.5 Q280 -175 280 -155 Q280 -134 294.5 -119.5 Q309 -105 329 -105 Z M451 -105 Q471 -105 485.5 -119.5 Q500 -134 500 -155 Q500 -175 485.5 -189.5 Q471 -204 451 -204 Q431 -204 416.5 -189.5 Q402 -175 402 -155 Q402 -134 416.5 -119.5 Q431 -105 451 -105 Z M390 -206 Q410 -206 423.5 -220 Q437 -234 437 -253 Q437 -273 423.5 -286.5 Q410 -300 390 -300 Q371 -300 357 -286.5 Q343 -273 343 -253 Q343 -234 357 -220 Q371 -206 390 -206 Z " />
<glyph glyph-name="uni0688" unicode="&#x688;" horiz-adv-x="517" d="M183 785 L183 689 Q237 756 302 756 Q339 756 361.5 732 Q384 708 384 668 L384 635 Q384 614 371 599 Q355 579 328 579 L114 579 L114 620 L140 620 L140 785 L183 785 Z M339 667 Q339 693 324 705 Q314 714 296 714 Q268 714 235 688 Q202 661 183 620 L320 620 Q339 620 339 639 L339 667 Z M140 466 Q176 472 217 472 Q328 472 396 405 Q457 343 457 248 L457 95 Q457 56 432 29 Q406 0 368 0 L39 0 L39 71 L335 71 Q372 71 372 109 L372 236 Q372 307 329 354 Q283 402 187 403 Q159 403 140 399 L140 466 Z " />
<glyph glyph-name="uni0691" unicode="&#x691;" horiz-adv-x="402" d="M137 788 L136 691 Q190 758 255 758 Q292 758 314.5 734.5 Q337 711 337 671 L337 638 Q337 617 325 601 Q308 581 281 581 L67 581 L67 622 L93 622 L93 788 L137 788 Z M292 669 Q292 716 247 716 Q218 716 186.5 689.5 Q155 663 136 622 L273 622 Q292 622 292 641 L292 669 Z M332 460 L332 9 Q332 -118 250 -183 Q200 -222 128 -233 Q100 -238 67 -238 Q42 -238 21 -237 L-12 -196 L-12 -164 Q17 -168 51 -168 Q247 -168 247 12 L247 460 L332 460 Z " />
<glyph glyph-name="uni0698" unicode="&#x698;" horiz-adv-x="402" d="M234 776 Q253 776 267 762.5 Q281 749 281 729 Q281 710 267 696 Q253 682 234 682 Q214 682 200.5 696 Q187 710 187 729 Q187 749 200.5 762.5 Q214 776 234 776 Z M173 680 Q193 680 207.5 665.5 Q222 651 222 631 Q222 610 207.5 595.5 Q193 581 173 581 Q153 581 138.5 595.5 Q124 610 124 631 Q124 651 138.5 665.5 Q153 680 173 680 Z M295 680 Q315 680 329.5 665.5 Q344 651 344 631 Q344 610 329.5 595.5 Q315 581 295 581 Q274 581 259.5 595.5 Q245 610 245 631 Q245 651 259.5 665.5 Q274 680 295 680 Z M332 460 L332 9 Q332 -116 252 -181 Q205 -220 135 -232 Q103 -238 67 -238 Q42 -238 21 -237 L-12 -196 L-12 -164 Q17 -168 51 -168 Q247 -168 247 12 L247 460 L332 460 Z " />
<glyph glyph-name="uni06A1" unicode="&#x6a1;" horiz-adv-x="989" d="M579 71 Q509 137 509 241 Q509 359 584 421 Q647 472 745 472 Q831 472 881 424 Q933 376 934 290 L934 92 Q934 52 904 24 Q878 0 844 0 L226 0 Q176 0 135 30 Q69 79 69 165 L69 353 L112 388 L154 388 L154 165 Q154 123 186 95 Q212 71 250 71 L579 71 Z M849 290 Q849 342 821 371 Q793 400 745 400 Q673 400 634 357.5 Q595 315 595 238 Q595 161 646 114 Q690 71 758 71 L811 71 Q849 71 849 109 L849 290 Z " />
<glyph glyph-name="uni06A4" unicode="&#x6a4;" horiz-adv-x="989" d="M745 776 Q765 776 778.5 762.5 Q792 749 792 729 Q792 710 778.5 696 Q765 682 745 682 Q726 682 712 696 Q698 710 698 729 Q698 749 712 762.5 Q726 776 745 776 Z M684 680 Q705 680 719.5 665.5 Q734 651 734 631 Q734 610 719.5 595.5 Q705 581 684 581 Q664 581 649.5 595.5 Q635 610 635 631 Q635 651 649.5 665.5 Q664 680 684 680 Z M806 680 Q826 680 840.5 665.5 Q855 651 855 631 Q855 610 840.5 595.5 Q826 581 806 581 Q786 581 771.5 595.5 Q757 610 757 631 Q757 651 771.5 665.5 Q786 680 806 680 Z M579 71 Q509 137 509 241 Q509 359 584 421 Q647 472 745 472 Q831 472 881 424 Q933 376 934 290 L934 92 Q934 52 904 24 Q878 0 844 0 L226 0 Q176 0 135 30 Q69 79 69 165 L69 353 L112 388 L154 388 L154 165 Q154 123 186 95 Q212 71 250 71 L579 71 Z M849 290 Q849 342 821 371 Q793 400 745 400 Q673 400 634 357.5 Q595 315 595 238 Q595 161 646 114 Q690 71 758 71 L811 71 Q849 71 849 109 L849 290 Z " />
<glyph glyph-name="uni06A9" unicode="&#x6a9;" horiz-adv-x="944" d="M812 731 L812 653 L561 504 Q664 477 742 414 Q889 298 889 95 Q889 58 866 32 Q839 0 800 0 L226 0 Q167 0 122 41 Q69 89 69 165 L69 349 L123 393 L154 393 L154 165 Q154 124 185 96 Q212 71 250 71 L766 71 Q804 71 804 105 Q804 149 787 203.5 Q770 258 744 294 Q664 411 488 434 Q482 434 482 441 L482 540 L812 731 Z " />
<glyph glyph-name="uni06AF" unicode="&#x6af;" horiz-adv-x="944" d="M482 664 L812 855 L812 780 L482 589 L482 664 Z M812 731 L812 653 L561 504 Q664 477 742 414 Q889 298 889 95 Q889 58 866 32 Q839 0 800 0 L226 0 Q167 0 122 41 Q69 89 69 165 L69 349 L123 393 L154 393 L154 165 Q154 124 185 96 Q212 71 250 71 L766 71 Q804 71 804 105 Q804 149 787 203.5 Q770 258 744 294 Q664 411 488 434 Q482 434 482 441 L482 540 L812 731 Z " />
<glyph glyph-name="uni06BA" unicode="&#x6ba;" horiz-adv-x="780" d="M711 460 L711 9 Q711 -111 638 -176 Q567 -239 446 -239 L335 -239 Q216 -239 145 -178 Q69 -113 69 9 L69 218 L112 253 L154 253 L154 11 Q154 -89 206.5 -128.5 Q259 -168 390 -168 Q515 -168 566 -134 Q626 -93 626 11 L626 460 L711 460 Z " />
<glyph glyph-name="uni06BE" unicode="&#x6be;" horiz-adv-x="794" d="M263 449 Q371 499 478 499 Q739 499 739 199 L739 95 Q739 60 716 33 Q689 0 649 0 L417 0 Q360 0 339 7 L335 7 Q315 0 256 0 L90 0 L55 43 L55 71 L211 71 Q188 97 175 133 Q161 172 161 215 Q161 286 192 334 Q218 375 263 393 L263 449 Z M653 185 Q653 331 595 384 Q550 424 461 424 Q396 423 339 406 Q417 405 462 359 Q513 308 513 215 Q513 176 502 140 Q488 98 463 71 L616 71 Q629 71 639 79 Q653 90 653 109 L653 185 Z M438 216 Q438 275 410.5 310 Q383 345 336 345 Q283 345 256 306 Q234 272 234 213 Q234 160 258 123 Q286 79 336 77 Q380 79 409 118.5 Q438 158 438 216 Z " />
<glyph glyph-name="uni06C0" unicode="&#x6c0;" horiz-adv-x="531" d="M250 595 Q229 622 229 660 Q229 699 252 723 Q275 747 314 747 Q337 747 362 738 L362 697 Q343 702 326 702 Q275 702 275 650 Q275 630 287 614 Q303 595 330 595 L394 595 L394 578 L375 554 L206 554 L206 595 L250 595 Z M476 487 L476 172 Q476 91 430 44 Q379 -9 276 -9 Q186 -9 130 37 Q55 99 55 224 Q55 337 124 410 Q188 477 284 477 Q337 477 391 453 L434 487 L476 487 Z M391 383 Q347 405 302 405 Q223 405 178 343 Q140 293 140 223 Q140 146 176 104 Q212 62 276 62 Q336 62 364 93 Q391 123 391 173 L391 383 Z " />
<glyph glyph-name="uni06C1" unicode="&#x6c1;" horiz-adv-x="531" d="M476 487 L476 172 Q476 91 430 44 Q379 -9 276 -9 Q186 -9 130 37 Q55 99 55 224 Q55 337 124 410 Q188 477 284 477 Q337 477 391 453 L434 487 L476 487 Z M391 383 Q347 405 302 405 Q223 405 178 343 Q140 293 140 223 Q140 146 176 104 Q212 62 276 62 Q336 62 364 93 Q391 123 391 173 L391 383 Z " />
<glyph glyph-name="uni06C2" unicode="&#x6c2;" horiz-adv-x="531" d="M250 595 Q229 621 229 658 Q229 699 252 723 Q275 747 314 747 Q337 747 362 738 L362 697 Q343 702 326 702 Q275 702 275 650 Q275 630 287 614 Q303 595 330 595 L394 595 L394 578 L375 554 L206 554 L206 595 L250 595 Z M476 487 L476 172 Q476 91 430 44 Q379 -9 276 -9 Q186 -9 130 37 Q55 99 55 224 Q55 337 124 410 Q188 477 284 477 Q337 477 391 453 L434 487 L476 487 Z M391 383 Q347 405 302 405 Q223 405 178 343 Q140 293 140 223 Q140 146 176 104 Q212 62 276 62 Q336 62 364 93 Q391 123 391 173 L391 383 Z " />
<glyph glyph-name="uni06C3" unicode="&#x6c3;" horiz-adv-x="531" d="M305 680 Q325 680 339.5 665.5 Q354 651 354 631 Q354 610 339.5 595.5 Q325 581 305 581 Q285 581 270.5 595.5 Q256 610 256 631 Q256 651 270.5 665.5 Q285 680 305 680 Z M426 680 Q447 680 461.5 665.5 Q476 651 476 631 Q476 610 461.5 595.5 Q447 581 426 581 Q406 581 391.5 595.5 Q377 610 377 631 Q377 651 391.5 665.5 Q406 680 426 680 Z M476 487 L476 172 Q476 91 430 44 Q379 -9 276 -9 Q186 -9 130 37 Q55 99 55 224 Q55 337 124 410 Q188 477 284 477 Q337 477 391 453 L434 487 L476 487 Z M391 383 Q347 405 302 405 Q223 405 178 343 Q140 293 140 223 Q140 146 176 104 Q212 62 276 62 Q336 62 364 93 Q391 123 391 173 L391 383 Z " />
<glyph glyph-name="uni06CC" unicode="&#x6cc;" horiz-adv-x="754" d="M154 11 Q154 -88 206.5 -127.5 Q259 -167 390 -167 Q502 -167 553 -146 Q627 -115 627 -37 Q627 15 600 40 Q573 65 492 88 Q392 117 353 153 Q306 198 306 279 Q306 380 367 430 Q418 472 506 472 Q563 472 625 453 L625 387 Q558 403 517 403 Q389 403 389 279 Q389 231 416.5 205 Q444 179 523 156 Q623 126 662 87 Q708 41 708 -39 Q708 -149 615 -201 Q547 -239 446 -239 L335 -239 Q210 -239 138 -172 Q69 -108 69 9 L69 139 L112 174 L154 174 L154 11 Z " />
<glyph glyph-name="uni06D2" unicode="&#x6d2;" horiz-adv-x="656" d="M459 487 L459 452 Q459 351 396 303 Q361 276 281 243 Q196 208 170 191 Q123 161 123 125 Q124 71 183 71 L647 71 L647 43 L612 0 L173 0 Q116 0 79 33.5 Q42 67 42 119 Q42 177 82 214.5 Q122 252 232 297 Q301 326 328 345 Q354 363 364 386 Q374 409 374 452 L374 487 L459 487 Z " />
<glyph glyph-name="uni06D3" unicode="&#x6d3;" horiz-adv-x="656" d="M154 528 Q134 554 134 593 Q134 632 157 655.5 Q180 679 218 679 Q242 679 266 671 L266 630 Q247 635 230 635 Q179 635 179 582 Q179 563 191 547 Q207 528 234 528 L298 528 L298 510 L279 487 L111 487 L111 528 L154 528 Z M459 487 L459 452 Q459 351 396 303 Q361 276 281 243 Q196 208 170 191 Q123 161 123 125 Q124 71 183 71 L647 71 L647 43 L612 0 L173 0 Q116 0 79 33.5 Q42 67 42 119 Q42 177 82 214.5 Q122 252 232 297 Q301 326 328 345 Q354 363 364 386 Q374 409 374 452 L374 487 L459 487 Z " />
<glyph glyph-name="uni06D4" unicode="&#x6d4;" horiz-adv-x="161" d="M164 71 L164 0 L-4 0 L-4 71 L164 71 Z " />
<glyph glyph-name="uni06F0" unicode="&#x6f0;" horiz-adv-x="252" d="M129 325 L208 245 L208 209 L130 129 L32 226 L129 325 Z " />
<glyph glyph-name="uni06F1" unicode="&#x6f1;" horiz-adv-x="269" d="M177 674 L177 35 L134 0 L92 0 L92 674 L177 674 Z " />
<glyph glyph-name="uni06F2" unicode="&#x6f2;" horiz-adv-x="532" d="M92 460 Q92 578 159 636 Q217 686 318 686 Q396 686 463 661 L463 585 Q396 608 339 608 Q262 608 219.5 568 Q177 528 177 456 L177 35 L134 0 L92 0 L92 460 Z " />
<glyph glyph-name="uni06F3" unicode="&#x6f3;" horiz-adv-x="748" d="M177 674 L177 413 Q213 400 263 400 Q359 400 359 482 L359 674 L435 674 L435 483 Q435 443 428 423 Q471 402 524 401 Q580 401 600 423 Q617 442 617 482 L617 674 L693 674 L693 488 Q693 438 681 406 Q670 378 648 359 Q608 325 540 325 Q443 325 394 363 Q345 325 278 325 Q231 325 177 341 L177 35 L134 0 L92 0 L92 674 L177 674 Z " />
<glyph glyph-name="uni06F4" unicode="&#x6f4;" horiz-adv-x="568" d="M177 532 Q241 673 393 673 Q428 673 462 664 L462 593 Q439 597 414 597 Q332 597 269 546 Q206 495 179 407 Q259 373 364 373 Q433 373 513 387 L513 359 L479 313 Q431 300 369 300 Q248 300 177 340 L177 40 L123 0 L92 0 L92 674 L177 674 L177 532 Z " />
<glyph glyph-name="uni06F5" unicode="&#x6f5;" horiz-adv-x="576" d="M292 47 L287 47 Q259 17 244 6 Q217 -12 181 -12 Q117 -12 81.5 42 Q46 96 46 192 Q46 408 231 592 L214 608 L229 665 L244 680 Q387 588 463 455 Q534 331 534 191 Q534 102 501 47 Q464 -13 394 -13 Q336 -13 292 47 Z M286 116 L295 116 Q328 72 360 72 Q402 72 425.5 108 Q449 144 449 208 Q449 305 407 393.5 Q365 482 290 540 Q231 510 174 394 Q131 301 131 206 Q131 72 219 72 Q252 72 286 116 Z " />
<glyph glyph-name="uni06F6" unicode="&#x6f6;" horiz-adv-x="502" d="M209 325 Q160 339 130 387 Q100 435 100 497 Q100 591 162 643 Q215 686 298 686 Q342 686 380 674 L380 603 Q350 608 320 609 Q259 609 223.5 577 Q188 545 188 489 Q188 437 217.5 406.5 Q247 376 298 376 Q299 376 303 377 Q392 399 465 402 L465 379 L415 318 Q354 312 303 287 Q247 259 206 209 Q150 141 123 35 L80 0 L30 0 Q46 128 103 219 Q148 290 209 325 Z " />
<glyph glyph-name="uni06F7" unicode="&#x6f7;" horiz-adv-x="506" d="M477 679 L342 121 Q331 76 318 48 Q303 18 284 6 Q283 5 281 4 Q277 1 274 0 L231 0 Q226 2 220 6 Q203 19 188 50 Q176 77 164 121 L30 679 L121 679 L253 84 L385 679 L477 679 Z " />
<glyph glyph-name="uni06F8" unicode="&#x6f8;" horiz-adv-x="506" d="M231 679 L274 679 Q277 678 281 675 Q283 674 284 673 Q303 660 318 631 Q331 603 342 557 L477 0 L385 0 L253 594 L121 0 L30 0 L164 557 Q175 602 190 632 Q204 661 220 673 Q226 677 231 679 Z " />
<glyph glyph-name="uni06F9" unicode="&#x6f9;" horiz-adv-x="517" d="M261 288 Q178 288 123 324 Q46 375 46 481 Q46 573 100 627 Q158 686 252 686 Q334 686 387 639 Q444 588 444 496 L444 35 L400 0 L359 0 L359 288 L261 288 Z M359 499 Q359 549 329 580 Q299 610 252 610 Q198 610 164.5 576.5 Q131 543 131 490 Q131 430 168 397 Q205 364 273 364 L359 364 L359 499 Z " />
<glyph glyph-name="Euro" unicode="&#x20ac;" horiz-adv-x="639" d="M166 430 Q182 546 246 614 Q311 683 414 683 Q481 683 532 647 L532 573 Q475 607 420 607 Q357 607 312 561 Q269 515 252 430 L451 430 L451 367 L245 367 Q243 358 243 335 Q243 310 245 294 L451 294 L451 231 L254 231 Q270 144 315 106 Q360 68 446 68 Q509 68 547 85 L547 47 L512 4 Q467 -9 417 -9 Q314 -9 249 56 Q187 117 167 231 L92 231 L92 294 L160 294 Q158 324 158 337 Q158 355 160 367 L92 367 L92 430 L166 430 Z " />
<glyph glyph-name="uni2153" unicode="&#x2153;" horiz-adv-x="694" d="M196 673 L196 290 L162 263 L129 263 L129 593 L51 535 L16 579 L136 673 L196 673 Z M556 673 L160 0 L87 0 L484 673 L556 673 Z M454 398 Q497 415 538 415 Q590 415 623.5 385 Q657 355 657 307 Q657 271 634 243.5 Q611 216 578 213 Q626 208 654 172 Q675 143 675 109 Q675 -4 527 -4 Q481 -4 451 7 L428 35 L428 58 Q475 44 515 44 Q556 44 581.5 61.5 Q607 79 607 107 Q607 144 572 169 Q535 194 479 194 L479 234 L521 234 Q552 234 569 249 Q593 272 593 305 Q593 364 523 364 Q493 364 454 355 L454 398 Z " />
<glyph glyph-name="uni2154" unicode="&#x2154;" horiz-adv-x="765" d="M38 637 Q99 678 157 678 Q211 678 241 648 Q271 618 271 565 Q271 528 245 487 Q219 446 151 377 Q136 362 129 354 L98 322 L278 322 L278 290 L255 265 L14 265 L14 321 L59 363 Q119 419 158 463 Q188 498 197 516 Q207 537 207 559 Q207 621 148 621 Q110 621 72 593 L38 637 Z M641 673 L245 0 L173 0 L569 673 L641 673 Z M526 398 Q569 415 610 415 Q662 415 695 385 Q728 355 728 307 Q728 271 705 243.5 Q682 216 649 213 Q697 208 725 172 Q747 143 747 109 Q747 -4 599 -4 Q553 -4 522 7 L500 35 L500 58 Q547 44 587 44 Q628 44 653.5 61.5 Q679 79 679 107 Q679 144 644 169 Q606 194 550 194 L550 234 L593 234 Q623 234 640 249 Q665 272 665 305 Q665 364 595 364 Q565 364 526 355 L526 398 Z " />
<glyph glyph-name="oneeighth" unicode="&#x215b;" horiz-adv-x="712" d="M196 673 L196 290 L162 263 L129 263 L129 593 L51 535 L16 579 L136 673 L196 673 Z M556 673 L160 0 L87 0 L484 673 L556 673 Z M511 208 Q482 223 461 246 Q429 282 429 317 Q429 366 462 389 Q495 412 548 412 Q603 412 637 387 Q669 364 669 318 Q669 284 648 256 Q636 240 593 213 Q591 211 589 209 Q636 190 662 162 Q691 132 691 93 Q690 55 659 27 Q621 -7 548 -7 Q486 -7 446 20 Q407 46 407 97 Q407 131 434 160 Q461 189 511 208 Z M551 232 Q580 247 596 272 Q609 291 609 316 Q609 339 595 352 Q579 367 550 367 Q519 367 503 351 Q490 337 490 314 Q490 290 503 271 Q522 245 551 232 Z M550 188 Q509 171 493 155 Q472 133 472 103 Q472 45 550 45 Q627 45 627 104 Q627 154 550 188 Z " />
<glyph glyph-name="threeeighths" unicode="&#x215c;" horiz-adv-x="770" d="M42 667 Q85 684 125 684 Q178 684 211 654 Q244 624 244 576 Q244 540 221 512.5 Q198 485 165 482 Q213 478 241 441 Q263 413 263 378 Q263 266 115 266 Q69 266 38 277 L16 304 L16 327 Q62 313 103 313 Q144 313 169.5 330.5 Q195 348 195 377 Q195 414 160 438 Q122 464 66 464 L66 503 L109 503 Q139 503 156 518 Q181 541 181 574 Q181 634 111 634 Q80 634 42 624 L42 667 Z M613 673 L216 0 L144 0 L540 673 L613 673 Z M569 208 Q540 223 519 246 Q487 282 487 317 Q487 366 520 389 Q553 412 606 412 Q661 412 695 387 Q727 364 727 318 Q727 284 706 256 Q694 240 651 213 Q649 211 647 209 Q694 190 720 162 Q749 132 749 93 Q748 55 717 27 Q679 -7 606 -7 Q544 -7 504 20 Q465 46 465 97 Q465 131 492 160 Q519 189 569 208 Z M609 232 Q638 247 654 272 Q667 291 667 316 Q667 339 653 352 Q637 367 608 367 Q577 367 561 351 Q548 337 548 314 Q548 290 561 271 Q580 245 609 232 Z M608 188 Q567 171 551 155 Q530 133 530 103 Q530 45 608 45 Q685 45 685 104 Q685 154 608 188 Z " />
<glyph glyph-name="fiveeighths" unicode="&#x215d;" horiz-adv-x="782" d="M242 673 L242 622 L88 622 L81 510 Q108 515 131 515 Q195 515 233 477.5 Q271 440 271 378 Q270 319 231 284.5 Q192 250 127 250 Q88 250 43 261 L16 294 L16 313 Q63 301 104 301 Q209 301 209 380 Q209 467 107 467 Q72 467 22 458 L35 673 L242 673 Z M625 673 L229 0 L156 0 L553 673 L625 673 Z M582 208 Q552 223 532 246 Q500 282 500 317 Q500 366 532 389 Q566 412 619 412 Q673 412 708 387 Q740 364 740 318 Q740 284 718 256 Q707 240 664 213 Q661 211 659 209 Q707 190 733 162 Q761 132 761 93 Q761 55 729 27 Q691 -7 619 -7 Q556 -7 516 20 Q477 46 477 97 Q477 131 504 160 Q531 189 582 208 Z M621 232 Q651 247 667 272 Q680 291 680 316 Q680 339 665 352 Q650 367 620 367 Q589 367 574 351 Q560 337 560 314 Q560 290 573 271 Q593 245 621 232 Z M620 188 Q579 171 564 155 Q543 133 543 103 Q543 45 620 45 Q698 45 698 104 Q698 154 620 188 Z " />
<glyph glyph-name="seveneighths" unicode="&#x215e;" horiz-adv-x="722" d="M559 673 L163 0 L90 0 L487 673 L559 673 Z M282 672 L282 623 L142 293 L99 259 L59 259 L214 615 L12 615 L12 672 L282 672 Z M522 208 Q493 223 472 246 Q441 282 441 317 Q441 366 473 389 Q507 412 559 412 Q614 412 649 387 Q680 364 680 318 Q680 284 659 256 Q648 240 605 213 Q602 211 600 209 Q648 190 673 162 Q702 132 702 93 Q701 55 670 27 Q632 -7 559 -7 Q497 -7 457 20 Q418 46 418 97 Q418 131 445 160 Q472 189 522 208 Z M562 232 Q592 247 608 272 Q621 291 621 316 Q621 339 606 352 Q591 367 561 367 Q530 367 515 351 Q501 337 501 314 Q501 290 514 271 Q533 245 562 232 Z M561 188 Q520 171 505 155 Q483 133 483 103 Q483 45 561 45 Q638 45 638 104 Q638 155 561 188 Z " />
<glyph glyph-name="uni25CC" unicode="&#x25cc;" horiz-adv-x="545" d="M271 511 Q296 511 296 486 Q296 461 271 461 Q246 461 246 486 Q246 511 271 511 Z M191 495 Q216 495 216 470 Q216 445 191 445 Q166 445 166 470 Q166 495 191 495 Z M352 495 Q377 495 377 470 Q377 445 352 445 Q327 445 327 470 Q327 495 352 495 Z M123 449 Q148 449 148 424 Q148 400 123 400 Q98 400 98 424 Q98 449 123 449 Z M420 449 Q445 449 445 424 Q445 400 420 400 Q395 400 395 424 Q395 449 420 449 Z M78 381 Q102 381 102 356 Q102 331 78 331 Q53 331 53 356 Q53 381 78 381 Z M464 381 Q489 381 489 356 Q489 331 464 331 Q439 331 439 356 Q439 381 464 381 Z M62 301 Q87 301 87 276 Q87 251 62 251 Q37 251 37 276 Q37 301 62 301 Z M483 299 Q508 299 508 274 Q508 249 483 249 Q458 249 458 274 Q458 299 483 299 Z M78 221 Q102 221 102 197 Q102 172 78 172 Q53 172 53 197 Q53 221 78 221 Z M464 218 Q489 218 489 193 Q489 168 464 168 Q439 168 439 193 Q439 218 464 218 Z M123 152 Q148 152 148 128 Q148 103 123 103 Q98 103 98 128 Q98 152 123 152 Z M420 149 Q445 149 445 124 Q445 99 420 99 Q395 99 395 124 Q395 149 420 149 Z M191 104 Q216 104 216 79 Q216 54 191 54 Q166 54 166 79 Q166 104 191 104 Z M352 104 Q377 104 377 79 Q377 54 352 54 Q327 54 327 79 Q327 104 352 104 Z M271 87 Q296 87 296 63 Q296 38 271 38 Q246 38 246 63 Q246 87 271 87 Z " />
<glyph glyph-name="uniE002" unicode="&#xe002;" horiz-adv-x="666" d="M171 723 Q224 804 289 804 Q321 804 343.5 784 Q366 764 366 736 Q366 701 336 678 Q306 655 261 655 Q221 655 161 675 Q128 686 119 686 Q93 686 60 656 L37 674 Q73 734 122 734 Q144 734 171 723 Z M210 711 Q249 698 275 698 Q328 698 328 734 Q328 765 290 765 Q248 765 210 711 Z M597 716 L597 95 Q597 61 576 35 Q548 0 506 0 L69 0 L34 43 L34 71 L302 71 L130 593 L215 593 L388 71 L474 71 Q492 71 503 84 Q511 95 511 109 L511 716 L597 716 Z " />
<glyph glyph-name="uniE003" unicode="&#xe003;" horiz-adv-x="644" d="M172 723 Q225 804 290 804 Q322 804 344.5 784 Q367 764 367 736 Q367 701 337 678 Q307 655 262 655 Q222 655 162 675 Q129 686 120 686 Q94 686 61 656 L38 674 Q74 734 123 734 Q145 734 172 723 Z M211 711 Q250 698 276 698 Q329 698 329 734 Q329 765 291 765 Q249 765 211 711 Z M598 716 L598 95 Q598 81 594 71 L648 71 L648 0 L609 0 L580 35 L577 35 Q563 18 545 9 Q527 0 507 0 L70 0 L35 43 L35 71 L303 71 L131 593 L216 593 L389 71 L475 71 Q492 71 503 83 Q512 93 512 109 L512 716 L598 716 Z " />
<glyph glyph-name="uniE004" unicode="&#xe004;" d="M139 692 Q193 773 258 773 Q290 773 312.5 753.5 Q335 734 335 705 Q335 671 305 648 Q275 625 229 625 Q190 625 130 645 Q97 656 87 656 Q62 656 29 626 L6 644 Q42 704 91 704 Q113 704 139 692 Z M179 680 Q218 667 243 667 Q297 667 297 704 Q297 735 259 735 Q217 735 179 680 Z " />
<glyph glyph-name="uniE005" unicode="&#xe005;" d="M144 935 L144 744 L122 726 L100 726 L100 935 L144 935 Z M244 688 L244 578 Q244 559 232 545 Q219 531 197 531 L150 531 L137 545 L136 545 Q133 541 128 537 Q119 531 108 531 L47 531 Q26 531 13 545 Q0 558 0 578 L0 646 L22 664 L43 664 L43 580 Q43 575 46 572 Q51 566 58 566 L86 566 Q93 566 97 570 Q100 575 100 580 L100 664 L144 664 L144 566 L187 566 Q194 566 197 571 Q201 574 201 580 L201 688 L244 688 Z " />
<glyph glyph-name="uniE006" unicode="&#xe006;" d="M110 810 Q79 834 79 874 Q79 907 102 929.5 Q125 952 159 952 Q191 952 212 929.5 Q233 907 233 874 Q233 804 152 779 L30 745 L12 766 L12 783 L110 810 Z M157 825 Q190 842 190 874 Q190 913 157 913 Q123 913 123 873 Q123 836 157 825 Z M244 682 L244 572 Q244 553 232 539 Q219 525 197 525 L150 525 L137 539 L136 539 Q133 535 128 531 Q119 525 108 525 L47 525 Q26 525 13 539 Q0 551 0 572 L0 640 L22 658 L43 658 L43 574 Q43 569 46 566 Q51 560 58 560 L86 560 Q93 560 97 564 Q100 569 100 574 L100 658 L144 658 L144 560 L187 560 Q194 560 197 565 Q201 568 201 574 L201 682 L244 682 Z " />
<glyph glyph-name="uniE007" unicode="&#xe007;" d="M211 796 Q173 819 173 864 Q173 897 196 919 Q219 941 252 941 Q284 941 305.5 919.5 Q327 898 327 865 Q327 818 286.5 783.5 Q246 749 189 749 Q125 749 83 795 L43 759 L12 762 L0 774 L92 856 Q124 792 188 792 Q200 792 211 796 Z M253 814 Q284 832 284 864 Q284 903 251 903 Q217 903 217 863 Q217 848 228 833 Q239 818 253 814 Z M294 682 L294 572 Q294 553 282 539 Q269 525 247 525 L200 525 L187 539 L186 539 Q183 535 178 531 Q168 525 157 525 L97 525 Q76 525 63 539 Q50 551 50 572 L50 640 L71 658 L93 658 L93 574 Q93 569 96 566 Q101 560 107 560 L136 560 Q142 560 146 564 Q150 569 150 574 L150 658 L194 658 L194 560 L237 560 Q243 560 247 565 Q251 569 251 574 L251 682 L294 682 Z " />
<glyph glyph-name="uniE008" unicode="&#xe008;" d="M230 843 L230 800 L31 745 L14 766 L14 783 L230 843 Z M244 682 L244 572 Q244 553 232 539 Q219 525 197 525 L150 525 L137 539 L136 539 Q133 535 128 531 Q119 525 108 525 L47 525 Q26 525 13 539 Q0 551 0 572 L0 640 L22 658 L43 658 L43 574 Q43 569 46 566 Q51 560 58 560 L86 560 Q93 560 97 564 Q100 569 100 574 L100 658 L144 658 L144 560 L187 560 Q194 560 197 565 Q201 568 201 574 L201 682 L244 682 Z " />
<glyph glyph-name="uniE009" unicode="&#xe009;" d="M232 935 L232 892 L22 834 L5 855 L5 872 L232 935 Z M230 843 L230 800 L31 745 L14 766 L14 783 L230 843 Z M244 682 L244 572 Q244 553 232 539 Q219 525 197 525 L150 525 L137 539 L136 539 Q133 535 128 531 Q119 525 108 525 L47 525 Q26 525 13 539 Q0 551 0 572 L0 640 L22 658 L43 658 L43 574 Q43 569 46 566 Q51 560 58 560 L86 560 Q93 560 97 564 Q100 569 100 574 L100 658 L144 658 L144 560 L187 560 Q194 560 197 565 Q201 568 201 574 L201 682 L244 682 Z " />
<glyph glyph-name="uniE00A" unicode="&#xe00a;" d="M244 842 L244 731 Q244 713 232 699 Q219 684 197 684 L150 684 L137 698 L136 698 Q133 695 128 691 Q119 684 108 684 L47 684 Q26 684 13 698 Q0 711 0 731 L0 800 L22 818 L43 818 L43 734 Q43 729 46 725 Q51 720 58 720 L86 720 Q93 720 97 724 Q100 728 100 734 L100 818 L144 818 L144 720 L187 720 Q194 720 197 725 Q201 728 201 734 L201 842 L244 842 Z M230 576 L31 522 L14 543 L14 560 L230 620 L230 576 Z " />
<glyph glyph-name="uniE00B" unicode="&#xe00b;" d="M244 951 L244 841 Q244 822 232 809 Q219 794 197 794 L150 794 L137 808 L136 808 Q133 804 128 800 Q119 794 108 794 L47 794 Q26 794 13 808 Q0 821 0 841 L0 909 L22 927 L43 927 L43 844 Q43 839 46 835 Q51 829 58 829 L86 829 Q93 829 97 834 Q100 838 100 844 L100 927 L144 927 L144 829 L187 829 Q194 829 197 834 Q201 838 201 844 L201 951 L244 951 Z M231 688 L32 633 L14 655 L14 672 L231 731 L231 688 Z M231 596 L32 541 L14 563 L14 580 L231 639 L231 596 Z " />
<glyph glyph-name="uniE00C" unicode="&#xe00c;" d="M49 99 Q70 99 84.5 84.5 Q99 70 99 49 Q99 29 84.5 14.5 Q70 0 49 0 Q29 0 14.5 14.5 Q0 29 0 49 Q0 70 14.5 84.5 Q29 99 49 99 Z " />
<glyph glyph-name="uniE00F" unicode="&#xe00f;" horiz-adv-x="1656" d="M711 716 L711 9 Q711 -111 638 -176 Q567 -239 446 -239 L335 -239 Q216 -239 145 -178 Q69 -113 69 9 L69 218 L112 253 L154 253 L154 11 Q154 -89 206.5 -128.5 Q259 -168 391 -168 Q515 -168 566 -134 Q626 -93 626 11 L626 716 L711 716 Z M957 716 L957 109 Q957 93 968 82 Q979 71 995 71 L1143 71 Q1160 71 1171 83 Q1181 93 1181 109 L1181 460 L1266 460 L1266 95 Q1266 58 1242 31 Q1215 0 1176 0 L963 0 Q931 0 906 21 Q872 50 872 95 L872 716 L957 716 Z M1587 460 L1587 9 Q1587 -102 1524 -166 Q1475 -216 1392 -232 Q1361 -238 1322 -238 Q1297 -238 1276 -237 L1243 -196 L1243 -164 Q1272 -168 1306 -168 Q1502 -168 1502 12 L1502 460 L1587 460 Z M1010 -104 Q1030 -104 1044.5 -118.5 Q1059 -133 1059 -153 Q1059 -174 1044.5 -188.5 Q1030 -203 1010 -203 Q989 -203 975 -188.5 Q961 -174 961 -153 Q961 -133 975.5 -118.5 Q990 -104 1010 -104 Z M1131 -104 Q1152 -104 1166.5 -118.5 Q1181 -133 1181 -153 Q1181 -174 1166.5 -188.5 Q1152 -203 1131 -203 Q1111 -203 1096.5 -188.5 Q1082 -174 1082 -153 Q1082 -133 1096.5 -118.5 Q1111 -104 1131 -104 Z " />
<glyph glyph-name="uniE010" unicode="&#xe010;" horiz-adv-x="618" d="M324 690 Q322 685 316 685 Q310 685 310 697 Q310 705 313 709 L315 709 Q313 705 313 702 Q313 693 320 693 Q324 693 324 700 Q324 703 323 709 L327 713 Q329 706 329 696 Q331 694 333 694 Q337 694 337 698 Q337 700 336 704 Q334 709 334 711 Q334 715 336 716 L337 716 Q337 714 339 709 Q342 704 342 697 Q342 687 332 687 Q327 687 324 690 Z M218 659 L214 661 Q248 676 255 688 Q242 695 242 701 Q242 715 259 715 Q267 715 267 705 Q267 698 264 691 L270 689 L268 683 Q265 684 261 685 Q260 686 259 686 Q248 671 218 659 Z M501 243 Q524 247 568 270 Q569 270 570 271 L573 268 L565 234 Q520 205 464 205 Q411 205 396 236 Q387 207 361 207 Q334 207 327 234 Q282 187 249 187 Q239 187 228 190 L228 146 Q228 111 268 111 Q305 111 404 148 Q408 150 412 151 Q462 170 473 170 Q492 170 492 147 Q492 120 454 92 L450 98 Q474 118 474 133 Q474 140 467 140 Q462 140 454 138 Q438 133 394 117 Q302 82 266 82 Q241 82 229 96 Q231 68 240 58 Q277 41 277 37 Q277 30 271.5 22 Q266 14 262 14 Q257 14 246 20 Q226 30 210 30 Q192 30 155 9 Q116 -12 98 -12 Q78 -12 65.5 7.5 Q53 27 53 58 Q53 89 70.5 114.5 Q88 140 115 149 L117 149 L119 145 Q98 137 82.5 111.5 Q67 86 67 59 Q67 16 96 16 Q120 16 161 39 Q195 58 212 61 Q208 78 208 109 L208 197 Q186 212 171 245 Q168 243 156 224 Q119 162 94 162 Q74 162 61.5 182 Q49 202 49 233 Q49 263 66.5 289 Q84 315 111 324 L113 324 L114 319 Q94 312 78.5 286 Q63 260 63 233 Q63 191 92 191 Q114 191 135 222 Q137 226 145 240 Q166 272 176 272 Q184 272 191 256 L192 255 Q200 237 208 231 L208 346 L152 345 Q53 345 53 385 Q53 421 90 439 Q98 443 116 451 Q162 470 162 497 L161 684 Q161 697 179 713 L181 713 L182 494 Q182 461 208 445 L208 483 Q208 499 227 511 L229 511 Q229 510 229 436 Q230 436 234 436 Q242 435 246 435 Q317 435 386 466 L386 490 Q386 504 406 518 L407 518 L408 476 Q428 487 435 487 Q441 487 441 481 Q441 478 438 470 Q437 466 437 461 Q437 447 450 440 Q482 515 524 515 Q543 515 557 502.5 Q571 490 571 473 Q571 446 542 425.5 Q513 405 474 405 Q459 405 448 410 Q445 406 440 399 Q438 396 436 393 L433 393 Q434 404 438 416 Q422 429 418 455 L408 449 L408 379 L531 382 Q575 382 575 355 Q575 343 565 330 L561 331 Q561 353 531 353 L408 350 L408 282 Q408 238 468 238 Q454 259 454 279 Q454 302 469.5 319 Q485 336 505 336 Q532 336 560 313 L558 304 Q539 309 523 309 Q488 309 473 284 Q475 260 501 243 Z M452 515 L448 515 L443 684 Q441 687 441 690 Q441 703 451 713 L454 713 Q474 684 474 655 Q474 654 473 653 L472 653 L462 663 L466 551 Q466 526 452 515 Z M247 702 Q250 699 258 695 Q259 699 259 702 Q259 707 255 707 Q252 707 247 702 Z M267 618 Q264 612 259 589 Q247 530 230 530 Q205 530 205 592 Q205 611 208 626 L209 626 L211 623 Q210 614 210 608 Q210 556 230 556 Q241 556 253 606 Q264 652 277 652 Q282 652 282 641 Q282 633 280 617 Q277 605 277 593 Q277 557 295 557 Q330 557 330 613 Q330 637 326 657 Q328 670 340 680 L342 680 Q349 662 348 605 Q348 598 348 593 Q348 556 373 556 Q397 556 407 577 Q406 590 395 623 Q382 660 382 663 Q382 667 388 678 Q390 681 391 682 L393 682 L395 680 Q396 678 397 678 Q415 655 416 649 L415 648 L407 651 Q409 640 415 622 Q422 598 422 585 Q422 563 409 546.5 Q396 530 377 530 Q343 530 334 563 Q323 530 297 530 Q264 530 264 588 Q264 602 267 618 Z M251 460 L258 472 Q263 474 278 480 Q335 501 374 509 L368 497 Q334 492 266 465 Q257 462 251 460 Z M547 461 Q541 485 524 485 Q494 485 466 436 Q472 436 478 436 Q523 436 547 461 Z M208 375 L208 411 Q173 421 164 456 Q152 437 109 422 Q75 410 70 398 Q79 374 169 374 L208 375 Z M229 406 L229 375 Q261 375 331 378 Q364 379 386 379 L386 437 Q320 406 244 406 Q234 406 229 406 Z M346 250 Q354 239 366 239 Q393 239 390 297 Q390 304 390 307 Q390 328 389 350 L228 346 L228 219 Q238 214 249 214 Q283 214 326 262 Q332 268 336 268 Q340 268 344 256 Q346 252 346 250 Z M252 269 L258 280 Q264 283 279 288 Q336 310 375 318 L368 306 Q336 301 274 277 Q260 272 252 269 Z M126 309 L129 309 Q123 292 123 280 Q123 269 128 269 Q133 269 135 276 L136 276 Q136 254 122 254 Q113 254 113 271 Q113 294 126 309 Z M340 175 L354 189 L375 170 L354 148 L340 163 L325 148 L306 170 L325 189 L340 175 Z M552 85 Q547 88 531 90 Q498 95 498 116 Q498 135 510 150 Q522 165 537 165 Q572 165 572 111 Q572 65 538 26.5 Q504 -12 464 -12 Q444 -12 430 2 Q416 16 416 37 Q416 69 442 91 L445 85 Q431 73 431 54 Q431 17 465 17 Q488 17 512.5 36 Q537 55 552 85 Z M554 116 Q553 116 551 121 Q542 138 532 138 Q517 138 517 127 Q517 122 535 119 Q548 117 554 116 Z M124 96 Q120 93 117 93 Q112 93 112 102 Q112 112 121 112 Q127 112 134 101 Q137 117 147 117 Q155 117 155 110 Q155 107 153 102 L153 98 L152 98 Q151 103 148 104 Q140 104 138 77 L136 75 Q136 96 124 96 Z M335 51 L335 53 Q340 51 346 51 Q356 51 366 58 Q354 64 346 64 Q343 64 341 63 L339 64 Q339 75 354 75 Q357 75 364 73 Q372 70 377 69 Q383 69 383 67 Q383 60 373 52.5 Q363 45 352 45 Q343 45 335 51 Z M386 22 L394 29 Q399 23 399 10 Q399 -1 387 -1 Q380 -1 376 5 Q372 -1 365 -1 Q358 -1 355 5 Q343 -2 319 -2 Q307 -2 292 0 L292 2 Q298 2 303 2 Q347 2 358 19 L360 19 Q360 10 367 10 Q375 10 375 21 L377 21 Q377 10 390 10 Q388 21 386 22 Z " />
<glyph glyph-name="uniE015" unicode="&#xe015;" horiz-adv-x="669" d="M154 174 L154 11 Q154 -88 206 -128 Q258 -168 387 -168 Q511 -168 560 -137 Q623 -99 626 0 L550 0 L515 43 L515 71 L738 71 L738 0 L711 0 Q708 -121 628 -184 Q558 -239 446 -239 L335 -239 Q210 -239 138 -172 Q69 -107 69 9 L69 139 L112 174 L154 174 Z " />
<glyph glyph-name="uniE016" unicode="&#xe016;" horiz-adv-x="669" d="M154 174 L154 11 Q154 -88 206 -128 Q258 -168 387 -168 Q511 -168 560 -137 Q623 -99 626 0 L550 0 L515 43 L515 71 L738 71 L738 0 L711 0 Q708 -121 628 -184 Q558 -239 446 -239 L335 -239 Q210 -239 138 -172 Q69 -107 69 9 L69 139 L112 174 L154 174 Z M329 -297 Q349 -297 363.5 -311.5 Q378 -326 378 -347 Q378 -367 363.5 -381.5 Q349 -396 329 -396 Q309 -396 294.5 -381.5 Q280 -367 280 -347 Q280 -326 294.5 -311.5 Q309 -297 329 -297 Z M451 -297 Q471 -297 485.5 -311.5 Q500 -326 500 -347 Q500 -367 485.5 -381.5 Q471 -396 451 -396 Q430 -396 415.5 -381.5 Q401 -367 401 -347 Q401 -326 415.5 -311.5 Q430 -297 451 -297 Z " />
<glyph glyph-name="uniE017" unicode="&#xe017;" horiz-adv-x="687" d="M113 321 Q92 348 92 387 Q92 426 115 449.5 Q138 473 176 473 Q199 473 224 465 L224 424 Q206 429 189 429 Q137 429 137 376 Q137 357 150 341 Q166 321 193 321 L257 321 L257 304 L237 280 L69 280 L69 321 L113 321 Z M177 174 L177 11 Q177 -88 229.5 -128 Q282 -168 410 -168 Q534 -168 583 -138 Q646 -99 649 0 L573 0 L538 43 L538 71 L756 71 L756 0 L734 0 Q731 -121 651 -184 Q581 -239 469 -239 L358 -239 Q233 -239 161 -172 Q92 -107 92 9 L92 139 L135 174 L177 174 Z " />
<glyph glyph-name="uniE018" unicode="&#xe018;" horiz-adv-x="935" d="M888 460 L888 95 Q888 82 885 71 L939 71 L939 0 L903 0 L870 35 L868 35 Q840 0 798 0 L226 0 Q170 0 127 37 Q69 85 69 165 L69 353 L112 388 L154 388 L154 165 Q154 126 181 99 Q210 71 250 71 L765 71 Q782 71 794 83 Q803 93 803 109 L803 460 L888 460 Z " />
<glyph glyph-name="uniE019" unicode="&#xe019;" horiz-adv-x="308" d="M261 460 L261 95 Q261 83 258 71 L311 71 L311 0 L272 0 L243 35 L240 35 Q213 0 170 0 L-4 0 L-4 71 L138 71 Q154 71 164 81 Q176 92 176 109 L176 460 L261 460 Z " />
<glyph glyph-name="uniE01F" unicode="&#xe01f;" horiz-adv-x="715" d="M148 673 L191 673 Q245 673 286 576 Q316 506 316 451 Q316 379 277.5 338 Q239 297 171 297 Q102 297 64 337.5 Q26 378 26 451 Q26 557 82 626 Q96 644 117 658.5 Q138 673 148 673 Z M609 673 L213 0 L141 0 L537 673 L609 673 Z M176 624 L166 624 Q131 610 109.5 563.5 Q88 517 88 455 Q88 349 171 349 Q204 349 224 366 Q253 390 254 456 Q254 515 230 565 Q209 611 176 624 Z M539 403 L562 403 Q578 400 593 373 Q607 349 614 319 L691 0 L626 0 L551 334 L476 0 L411 0 L487 319 Q496 351 508 373 Q523 400 539 403 Z " />
<glyph glyph-name="uniE020" unicode="&#xe020;" horiz-adv-x="589" d="M492 673 L95 0 L23 0 L419 673 L492 673 Z M133 673 L133 294 L103 270 L66 270 L66 673 L133 673 Z M421 403 L444 403 Q461 400 475 373 Q490 349 497 319 L573 0 L508 0 L433 334 L358 0 L293 0 L370 319 Q378 351 390 373 Q405 400 421 403 Z " />
<glyph glyph-name="uniE021" unicode="&#xe021;" horiz-adv-x="641" d="M492 673 L95 0 L23 0 L419 673 L492 673 Z M133 673 L133 294 L103 270 L66 270 L66 673 L133 673 Z M354 256 Q354 413 510 413 Q567 413 614 395 L614 338 Q568 354 530 354 Q479 354 449.5 326 Q420 298 420 249 L420 24 L390 0 L354 0 L354 256 Z " />
<glyph glyph-name="uniE022" unicode="&#xe022;" horiz-adv-x="611" d="M492 673 L95 0 L23 0 L419 673 L492 673 Z M133 673 L133 294 L103 270 L66 270 L66 673 L133 673 Z M417 211 Q367 247 367 307 Q367 357 402 388 Q437 419 495 419 Q534 419 568 404 L568 358 Q543 368 514 368 Q478 368 456 351 Q434 334 434 306 Q434 245 513 245 L560 245 L560 220 L533 192 L516 192 Q480 192 454 174 Q420 151 420 118 Q420 90 438 75 Q457 58 495 58 L591 58 L591 35 L563 0 L483 0 Q425 0 389 26 Q348 56 348 109 Q348 148 374 178 Q392 200 417 211 Z " />
<glyph glyph-name="uniE023" unicode="&#xe023;" horiz-adv-x="827" d="M492 673 L95 0 L23 0 L419 673 L492 673 Z M133 673 L133 294 L103 270 L66 270 L66 673 L133 673 Z M464 405 L464 258 Q485 254 502 254 Q543 254 558 271 Q571 285 571 316 L571 404 L629 404 L629 312 Q628 291 624 274 L623 270 Q654 255 685 255 Q721 255 736 271 Q750 286 750 317 L750 404 L806 404 L806 313 Q806 278 798 257 Q791 237 776 224 Q748 201 701 201 Q637 201 600 227 Q566 201 521 201 Q496 201 464 208 L464 24 L434 0 L397 0 L397 405 L464 405 Z " />
<glyph glyph-name="uniE024" unicode="&#xe024;" horiz-adv-x="668" d="M305 675 L228 356 Q221 326 207 302 Q192 275 176 272 L153 272 Q137 275 122 302 Q110 324 101 356 L25 675 L90 675 L165 341 L240 675 L305 675 Z M570 673 L174 0 L102 0 L498 673 L570 673 Z M500 403 L523 403 Q539 400 554 373 Q568 349 576 319 L652 0 L587 0 L512 334 L437 0 L372 0 L448 319 Q457 351 469 373 Q484 400 500 403 Z " />
<glyph glyph-name="uniE025" unicode="&#xe025;" horiz-adv-x="765" d="M112 675 L112 528 Q134 524 150 524 Q192 524 207 541 Q220 555 220 586 L220 674 L278 674 L278 582 Q276 562 273 545 L272 540 Q303 525 334 525 Q370 525 385 541 Q399 556 399 587 L399 674 L455 674 L455 584 Q455 548 447 527 Q440 507 424 494 Q397 471 350 471 Q286 471 249 497 Q215 471 169 471 Q145 471 112 478 L112 295 L82 270 L46 270 L46 675 L112 675 Z M662 673 L266 0 L194 0 L590 673 L662 673 Z M592 403 L615 403 Q631 400 646 373 Q660 349 667 319 L744 0 L679 0 L604 334 L529 0 L464 0 L540 319 Q549 351 561 373 Q576 400 592 403 Z " />
<glyph glyph-name="uniE026" unicode="&#xe026;" horiz-adv-x="768" d="M112 675 L112 528 Q134 524 150 524 Q192 524 207 541 Q220 555 220 586 L220 674 L278 674 L278 582 Q276 562 273 545 L272 540 Q303 525 334 525 Q370 525 385 541 Q399 556 399 587 L399 674 L455 674 L455 584 Q455 548 447 527 Q440 507 424 494 Q397 471 350 471 Q286 471 249 497 Q215 471 169 471 Q145 471 112 478 L112 295 L82 270 L46 270 L46 675 L112 675 Z M649 673 L252 0 L180 0 L576 673 L649 673 Z M574 211 Q524 247 524 307 Q524 357 559 388 Q594 419 652 419 Q691 419 725 404 L725 358 Q700 368 671 368 Q634 368 612.5 351 Q591 334 591 306 Q591 245 670 245 L717 245 L717 220 L690 192 L673 192 Q637 192 611 174 Q577 151 577 118 Q577 90 595 75 Q614 58 652 58 L748 58 L748 35 L720 0 L640 0 Q582 0 546 26 Q505 56 505 109 Q505 148 531 178 Q549 200 574 211 Z " />
<glyph glyph-name="uniE027" unicode="&#xe027;" horiz-adv-x="847" d="M51 525 Q51 682 208 682 Q264 682 311 665 L311 608 Q265 623 227 623 Q176 623 146.5 595 Q117 567 117 518 L117 294 L87 269 L51 269 L51 525 Z M515 673 L118 0 L46 0 L442 673 L515 673 Z M486 405 L486 258 Q508 254 524 254 Q566 254 580 271 Q594 285 594 316 L594 404 L651 404 L651 312 Q650 291 647 274 L646 270 Q677 255 708 255 Q744 255 759 271 Q772 286 772 317 L772 404 L829 404 L829 313 Q829 278 821 257 Q813 237 798 224 Q771 201 724 201 Q660 201 622 227 Q588 201 544 201 Q518 201 486 208 L486 24 L456 0 L420 0 L420 405 L486 405 Z " />
<glyph glyph-name="uniE028" unicode="&#xe028;" d="M49 99 Q70 99 84.5 84.5 Q99 70 99 49 Q99 29 84.5 14.5 Q70 0 49 0 Q29 0 14.5 14.5 Q0 29 0 49 Q0 70 14.5 84.5 Q29 99 49 99 Z " />
<glyph glyph-name="uniE030" unicode="&#xe030;" horiz-adv-x="935" d="M888 460 L888 95 Q888 82 885 71 L939 71 L939 0 L903 0 L870 35 L868 35 Q840 0 798 0 L226 0 Q170 0 127 37 Q69 85 69 165 L69 353 L112 388 L154 388 L154 165 Q154 126 181 99 Q210 71 250 71 L765 71 Q782 71 794 83 Q803 93 803 109 L803 460 L888 460 Z " />
<glyph glyph-name="uniE031" unicode="&#xe031;" horiz-adv-x="308" d="M261 460 L261 95 Q261 83 258 71 L311 71 L311 0 L272 0 L243 35 L240 35 Q213 0 170 0 L-4 0 L-4 71 L138 71 Q154 71 164 81 Q176 92 176 109 L176 460 L261 460 Z " />
<glyph glyph-name="uniE032" unicode="&#xe032;" horiz-adv-x="330" d="M261 460 L261 95 Q261 58 237 31 Q210 0 170 0 L-4 0 L-4 71 L138 71 Q155 71 166 83 Q176 93 176 109 L176 460 L261 460 Z " />
<glyph glyph-name="uniE033" unicode="&#xe033;" horiz-adv-x="961" d="M572 71 Q509 139 509 241 Q509 338 562 400 Q623 472 724 472 Q814 472 874 413 Q940 348 940 241 Q940 141 877 71 L964 71 L964 0 L821 0 L809 0 Q750 0 726 8 L723 8 Q699 0 639 0 L627 0 L226 0 Q166 0 122 41 Q69 90 69 165 L69 353 L112 388 L154 388 L154 165 Q154 127 180 100 Q208 71 250 71 L572 71 Z M855 240 Q855 314 819.5 357 Q784 400 724 400 Q661 400 627 355 Q595 313 595 238 Q595 168 632 121 Q669 74 724 71 Q789 74 826 135 Q855 182 855 240 Z " />
<glyph glyph-name="uniE034" unicode="&#xe034;" horiz-adv-x="602" d="M213 71 Q150 140 150 241 Q150 338 203 400 Q264 472 365 472 Q446 472 503 424 Q581 359 581 241 Q581 141 518 71 L605 71 L605 0 L461 0 L450 0 Q391 0 367 8 L363 8 Q339 0 280 0 L268 0 L-4 0 L-4 71 L213 71 Z M365 400 Q304 400 269.5 357 Q235 314 235 238 Q235 169 272.5 121 Q310 73 365 71 Q420 73 457.5 121 Q495 169 495 238 Q495 314 460.5 357 Q426 400 365 400 Z " />
<glyph glyph-name="uniE035" unicode="&#xe035;" horiz-adv-x="630" d="M220 71 Q182 106 164 158 Q150 200 150 241 Q150 348 214 411 Q277 472 385 472 Q467 472 516 430 Q573 382 575 290 L575 95 Q575 56 548 28 Q522 0 485 0 L-4 0 L-4 71 L220 71 Z M489 290 Q489 346 456 376 Q430 400 385 400 Q302 400 263 342 Q235 302 235 238 Q236 170 279 122 Q324 71 398 71 L452 71 Q489 71 489 109 L489 290 Z " />
<glyph glyph-name="uniE036" unicode="&#xe036;" horiz-adv-x="740" d="M515 0 Q409 0 347 69 Q289 133 289 238 Q289 355 363 419 Q423 472 519 472 Q598 472 648 433 Q711 384 711 290 L711 71 L743 71 L743 0 L711 0 Q708 -123 626 -186 Q556 -239 446 -239 L335 -239 Q211 -239 140 -174 Q69 -109 69 9 L69 150 L112 185 L154 185 L154 11 Q154 -88 206.5 -127.5 Q259 -167 390 -167 Q511 -167 561 -136 Q623 -98 626 0 L515 0 Z M626 290 Q626 343 592 375 Q563 400 519 400 Q449 400 410 352 Q375 307 375 230 Q375 160 412 116 Q450 71 515 71 L626 71 L626 290 Z " />
<glyph glyph-name="uniE041" unicode="&#xe041;" horiz-adv-x="1044" d="M974 460 L974 95 Q974 56 948 29 Q921 0 884 0 L711 0 Q709 -114 637 -177 Q566 -239 446 -239 L335 -239 Q217 -239 146 -180 Q69 -114 69 9 L69 140 L112 174 L154 174 L154 11 Q154 -88 206 -128 Q258 -168 387 -168 Q510 -168 560 -137 Q623 -99 626 0 L550 0 L515 43 L515 71 L852 71 Q889 71 889 109 L889 460 L974 460 Z M794 -104 Q815 -104 829.5 -118.5 Q844 -133 844 -153 Q844 -174 829.5 -188.5 Q815 -203 794 -203 Q774 -203 759.5 -188.5 Q745 -174 745 -153 Q745 -133 759.5 -118.5 Q774 -104 794 -104 Z M916 -104 Q936 -104 950.5 -118.5 Q965 -133 965 -153 Q965 -174 950.5 -188.5 Q936 -203 916 -203 Q896 -203 881.5 -188.5 Q867 -174 867 -153 Q867 -133 881.5 -118.5 Q896 -104 916 -104 Z M855 -205 Q875 -205 888.5 -218.5 Q902 -232 902 -252 Q902 -271 888.5 -285 Q875 -299 855 -299 Q836 -299 822 -285 Q808 -271 808 -252 Q808 -232 822 -218.5 Q836 -205 855 -205 Z " />
<glyph glyph-name="uniE042" unicode="&#xe042;" horiz-adv-x="1021" d="M974 460 L974 95 Q974 83 972 71 L1025 71 L1025 0 L986 0 L957 35 L954 35 Q926 0 884 0 L711 0 Q709 -105 648 -167 Q576 -239 446 -239 L335 -239 Q210 -239 139 -173 Q69 -108 69 9 L69 140 L112 174 L154 174 L154 11 Q154 -88 206 -128 Q258 -168 387 -168 Q510 -168 560 -137 Q623 -99 626 0 L550 0 L515 43 L515 71 L852 71 Q889 71 889 109 L889 460 L974 460 Z M804 -104 Q824 -104 838.5 -118.5 Q853 -133 853 -153 Q853 -174 838.5 -188.5 Q824 -203 804 -203 Q783 -203 768.5 -188.5 Q754 -174 754 -153 Q754 -133 768.5 -118.5 Q783 -104 804 -104 Z M925 -104 Q946 -104 960 -118.5 Q974 -133 974 -153 Q974 -174 960 -188.5 Q946 -203 925 -203 Q905 -203 890.5 -188.5 Q876 -174 876 -153 Q876 -133 890.5 -118.5 Q905 -104 925 -104 Z M864 -205 Q883 -205 896.5 -218.5 Q910 -232 910 -252 Q910 -271 896.5 -285 Q883 -299 864 -299 Q844 -299 830.5 -285 Q817 -271 817 -252 Q817 -232 830.5 -218.5 Q844 -205 864 -205 Z " />
<glyph glyph-name="uniE043" unicode="&#xe043;" horiz-adv-x="1044" d="M974 460 L974 95 Q974 56 948 29 Q921 0 884 0 L711 0 Q709 -114 637 -177 Q566 -239 446 -239 L335 -239 Q217 -239 146 -180 Q69 -114 69 9 L69 140 L112 174 L154 174 L154 11 Q154 -88 206 -128 Q258 -168 387 -168 Q510 -168 560 -137 Q623 -99 626 0 L550 0 L515 43 L515 71 L852 71 Q889 71 889 109 L889 460 L974 460 Z M794 -104 Q815 -104 829.5 -118.5 Q844 -133 844 -153 Q844 -174 829.5 -188.5 Q815 -203 794 -203 Q774 -203 759.5 -188.5 Q745 -174 745 -153 Q745 -133 759.5 -118.5 Q774 -104 794 -104 Z M916 -104 Q936 -104 950.5 -118.5 Q965 -133 965 -153 Q965 -174 950.5 -188.5 Q936 -203 916 -203 Q896 -203 881.5 -188.5 Q867 -174 867 -153 Q867 -133 881.5 -118.5 Q896 -104 916 -104 Z M855 -205 Q875 -205 888.5 -218.5 Q902 -232 902 -252 Q902 -271 888.5 -285 Q875 -299 855 -299 Q836 -299 822 -285 Q808 -271 808 -252 Q808 -232 822 -218.5 Q836 -205 855 -205 Z M329 -297 Q350 -297 364 -311.5 Q378 -326 378 -347 Q378 -367 364 -381.5 Q350 -396 329 -396 Q309 -396 294.5 -381.5 Q280 -367 280 -347 Q280 -326 294.5 -311.5 Q309 -297 329 -297 Z M451 -297 Q471 -297 485.5 -311.5 Q500 -326 500 -347 Q500 -367 485.5 -381.5 Q471 -396 451 -396 Q430 -396 415.5 -381.5 Q401 -367 401 -347 Q401 -326 415.5 -311.5 Q430 -297 451 -297 Z " />
<glyph glyph-name="uniE044" unicode="&#xe044;" horiz-adv-x="1021" d="M974 460 L974 95 Q974 83 972 71 L1025 71 L1025 0 L986 0 L957 35 L954 35 Q926 0 884 0 L711 0 Q709 -105 648 -167 Q576 -239 446 -239 L335 -239 Q210 -239 139 -173 Q69 -108 69 9 L69 140 L112 174 L154 174 L154 11 Q154 -88 206 -128 Q258 -168 387 -168 Q510 -168 560 -137 Q623 -99 626 0 L550 0 L515 43 L515 71 L852 71 Q889 71 889 109 L889 460 L974 460 Z M804 -104 Q824 -104 838.5 -118.5 Q853 -133 853 -153 Q853 -174 838.5 -188.5 Q824 -203 804 -203 Q783 -203 768.5 -188.5 Q754 -174 754 -153 Q754 -133 768.5 -118.5 Q783 -104 804 -104 Z M925 -104 Q946 -104 960 -118.5 Q974 -133 974 -153 Q974 -174 960 -188.5 Q946 -203 925 -203 Q905 -203 890.5 -188.5 Q876 -174 876 -153 Q876 -133 890.5 -118.5 Q905 -104 925 -104 Z M869 -205 Q888 -205 902 -218.5 Q916 -232 916 -252 Q916 -271 902 -285 Q888 -299 869 -299 Q850 -299 836 -285 Q822 -271 822 -252 Q822 -232 836 -218.5 Q850 -205 869 -205 Z M329 -297 Q350 -297 364 -311.5 Q378 -326 378 -347 Q378 -367 364 -381.5 Q350 -396 329 -396 Q309 -396 294.5 -381.5 Q280 -367 280 -347 Q280 -326 294.5 -311.5 Q309 -297 329 -297 Z M451 -297 Q471 -297 485.5 -311.5 Q500 -326 500 -347 Q500 -367 485.5 -381.5 Q471 -396 451 -396 Q430 -396 415.5 -381.5 Q401 -367 401 -347 Q401 -326 415.5 -311.5 Q430 -297 451 -297 Z " />
<glyph glyph-name="uniE045" unicode="&#xe045;" horiz-adv-x="1067" d="M113 321 Q92 348 92 387 Q92 426 115 449.5 Q138 473 176 473 Q199 473 224 465 L224 424 Q206 429 189 429 Q137 429 137 376 Q137 357 150 341 Q166 321 193 321 L257 321 L257 304 L237 280 L69 280 L69 321 L113 321 Z M997 460 L997 95 Q997 56 971 29 Q944 0 907 0 L734 0 Q732 -114 660 -177 Q589 -239 469 -239 L358 -239 Q240 -239 169 -180 Q92 -114 92 9 L92 140 L135 174 L177 174 L177 11 Q177 -88 229 -128 Q281 -168 410 -168 Q533 -168 583 -137 Q646 -99 649 0 L573 0 L538 43 L538 71 L875 71 Q912 71 912 109 L912 460 L997 460 Z M817 -104 Q838 -104 852.5 -118.5 Q867 -133 867 -153 Q867 -174 852.5 -188.5 Q838 -203 817 -203 Q797 -203 782.5 -188.5 Q768 -174 768 -153 Q768 -133 782.5 -118.5 Q797 -104 817 -104 Z M939 -104 Q959 -104 973.5 -118.5 Q988 -133 988 -153 Q988 -174 973.5 -188.5 Q959 -203 939 -203 Q919 -203 904.5 -188.5 Q890 -174 890 -153 Q890 -133 904.5 -118.5 Q919 -104 939 -104 Z M877 -205 Q897 -205 910.5 -218.5 Q924 -232 924 -252 Q924 -271 910.5 -285 Q897 -299 877 -299 Q858 -299 844 -285 Q830 -271 830 -252 Q830 -232 844 -218.5 Q858 -205 877 -205 Z " />
<glyph glyph-name="uniE046" unicode="&#xe046;" horiz-adv-x="1044" d="M113 321 Q92 348 92 387 Q92 426 115 449.5 Q138 473 176 473 Q199 473 224 465 L224 424 Q206 429 189 429 Q137 429 137 376 Q137 357 150 341 Q166 321 193 321 L257 321 L257 304 L237 280 L69 280 L69 321 L113 321 Z M997 460 L997 95 Q997 82 995 71 L1048 71 L1048 0 L1009 0 L980 35 L977 35 Q949 0 907 0 L734 0 Q732 -105 671 -167 Q599 -239 469 -239 L358 -239 Q233 -239 162 -173 Q92 -108 92 9 L92 140 L135 174 L177 174 L177 11 Q177 -88 229 -128 Q281 -168 410 -168 Q533 -168 583 -137 Q646 -99 649 0 L573 0 L538 43 L538 71 L875 71 Q912 71 912 109 L912 460 L997 460 Z M827 -104 Q847 -104 861.5 -118.5 Q876 -133 876 -153 Q876 -174 861.5 -188.5 Q847 -203 827 -203 Q806 -203 791.5 -188.5 Q777 -174 777 -153 Q777 -133 791.5 -118.5 Q806 -104 827 -104 Z M948 -104 Q969 -104 983 -118.5 Q997 -133 997 -153 Q997 -174 983 -188.5 Q969 -203 948 -203 Q928 -203 913.5 -188.5 Q899 -174 899 -153 Q899 -133 913.5 -118.5 Q928 -104 948 -104 Z M887 -205 Q906 -205 919.5 -218.5 Q933 -232 933 -252 Q933 -271 919.5 -285 Q906 -299 887 -299 Q867 -299 853.5 -285 Q840 -271 840 -252 Q840 -232 853.5 -218.5 Q867 -205 887 -205 Z " />
<glyph glyph-name="uniE047" unicode="&#xe047;" horiz-adv-x="1060" d="M928 731 L928 653 L677 504 Q786 475 864 408 Q1004 292 1004 95 Q1004 58 981 32 Q955 0 915 0 L734 0 Q731 -115 660 -177 Q589 -239 469 -239 L358 -239 Q240 -239 169 -180 Q92 -114 92 9 L92 140 L135 174 L177 174 L177 11 Q177 -88 229 -128 Q281 -168 410 -168 Q533 -168 583 -138 Q646 -99 649 0 L573 0 L538 43 L538 71 L881 71 Q920 71 920 105 Q920 176 888 244 Q856 312 803 355 Q723 418 603 434 Q597 434 597 441 L597 540 L928 731 Z M113 321 Q92 348 92 387 Q92 426 115 449.5 Q138 473 176 473 Q199 473 224 465 L224 424 Q206 429 189 429 Q137 429 137 376 Q137 357 150 341 Q166 321 193 321 L257 321 L257 304 L237 280 L69 280 L69 321 L113 321 Z " />
<glyph glyph-name="uniE048" unicode="&#xe048;" horiz-adv-x="1032" d="M928 731 L928 653 L677 504 Q831 463 922 348 Q1005 243 1005 109 Q1005 85 1002 71 L1035 71 L1035 0 L1015 0 L987 35 L984 35 Q956 0 914 0 L734 0 Q731 -116 658 -179 Q587 -239 469 -239 L358 -239 Q232 -239 160 -171 Q92 -107 92 9 L92 140 L135 174 L177 174 L177 11 Q177 -88 229 -128 Q281 -168 410 -168 Q533 -168 583 -138 Q646 -99 649 0 L573 0 L538 43 L538 71 L881 71 Q920 71 920 105 Q920 150 902.5 204 Q885 258 860 294 Q780 410 603 434 Q597 434 597 441 L597 540 L928 731 Z M113 321 Q92 348 92 387 Q92 426 115 449.5 Q138 473 176 473 Q199 473 224 465 L224 424 Q206 429 189 429 Q137 429 137 376 Q137 357 150 341 Q166 321 193 321 L257 321 L257 304 L237 280 L69 280 L69 321 L113 321 Z " />
<glyph glyph-name="uniE049" unicode="&#xe049;" horiz-adv-x="1037" d="M574 664 L905 855 L905 780 L574 589 L574 664 Z M905 731 L905 653 L654 504 Q814 461 901 346 Q981 243 981 95 Q981 58 958 32 Q932 0 892 0 L711 0 Q708 -115 637 -177 Q566 -239 446 -239 L335 -239 Q217 -239 146 -180 Q69 -114 69 9 L69 140 L112 174 L154 174 L154 11 Q154 -88 206 -128 Q258 -168 387 -168 Q510 -168 560 -138 Q623 -99 626 0 L550 0 L515 43 L515 71 L858 71 Q897 71 897 104 Q897 168 870 233 Q843 298 799 338 Q717 416 580 434 Q574 434 574 441 L574 540 L905 731 Z " />
<glyph glyph-name="uniE04A" unicode="&#xe04a;" horiz-adv-x="1009" d="M574 664 L905 855 L905 780 L574 589 L574 664 Z M905 731 L905 653 L654 504 Q808 463 899 348 Q982 243 982 109 Q982 85 979 71 L1012 71 L1012 0 L992 0 L964 35 L961 35 Q933 0 891 0 L711 0 Q708 -116 635 -179 Q564 -239 446 -239 L335 -239 Q209 -239 137 -171 Q69 -107 69 9 L69 140 L112 174 L154 174 L154 11 Q154 -88 206 -128 Q258 -168 387 -168 Q510 -168 560 -138 Q623 -99 626 0 L550 0 L515 43 L515 71 L858 71 Q896 71 896 105 Q896 150 879.5 204 Q863 258 837 294 Q757 410 580 434 Q574 434 574 441 L574 540 L905 731 Z " />
<glyph glyph-name="uniE04B" unicode="&#xe04b;" horiz-adv-x="1037" d="M574 664 L905 855 L905 780 L574 589 L574 664 Z M905 731 L905 653 L654 504 Q814 461 901 346 Q981 243 981 95 Q981 58 958 32 Q932 0 892 0 L711 0 Q708 -115 637 -177 Q566 -239 446 -239 L335 -239 Q217 -239 146 -180 Q69 -114 69 9 L69 140 L112 174 L154 174 L154 11 Q154 -88 206 -128 Q258 -168 387 -168 Q510 -168 560 -138 Q623 -99 626 0 L550 0 L515 43 L515 71 L858 71 Q897 71 897 104 Q897 168 870 233 Q843 298 799 338 Q717 416 580 434 Q574 434 574 441 L574 540 L905 731 Z M329 -297 Q350 -297 364 -311.5 Q378 -326 378 -347 Q378 -367 364 -381.5 Q350 -396 329 -396 Q309 -396 294.5 -381.5 Q280 -367 280 -347 Q280 -326 294.5 -311.5 Q309 -297 329 -297 Z M451 -297 Q471 -297 485.5 -311.5 Q500 -326 500 -347 Q500 -367 485.5 -381.5 Q471 -396 451 -396 Q430 -396 415.5 -381.5 Q401 -367 401 -347 Q401 -326 415.5 -311.5 Q430 -297 451 -297 Z " />
<glyph glyph-name="uniE04C" unicode="&#xe04c;" horiz-adv-x="1009" d="M574 664 L905 855 L905 780 L574 589 L574 664 Z M905 731 L905 653 L654 504 Q808 463 899 348 Q982 243 982 109 Q982 85 979 71 L1012 71 L1012 0 L992 0 L964 35 L961 35 Q933 0 891 0 L711 0 Q708 -116 635 -179 Q564 -239 446 -239 L335 -239 Q209 -239 137 -171 Q69 -107 69 9 L69 140 L112 174 L154 174 L154 11 Q154 -88 206 -128 Q258 -168 387 -168 Q510 -168 560 -138 Q623 -99 626 0 L550 0 L515 43 L515 71 L858 71 Q896 71 896 105 Q896 150 879.5 204 Q863 258 837 294 Q757 410 580 434 Q574 434 574 441 L574 540 L905 731 Z M329 -297 Q350 -297 364 -311.5 Q378 -326 378 -347 Q378 -367 364 -381.5 Q350 -396 329 -396 Q309 -396 294.5 -381.5 Q280 -367 280 -347 Q280 -326 294.5 -311.5 Q309 -297 329 -297 Z M451 -297 Q471 -297 485.5 -311.5 Q500 -326 500 -347 Q500 -367 485.5 -381.5 Q471 -396 451 -396 Q430 -396 415.5 -381.5 Q401 -367 401 -347 Q401 -326 415.5 -311.5 Q430 -297 451 -297 Z " />
<glyph glyph-name="uniE04D" unicode="&#xe04d;" horiz-adv-x="1060" d="M597 664 L928 855 L928 780 L597 589 L597 664 Z M928 731 L928 653 L677 504 Q837 461 924 346 Q1004 243 1004 95 Q1004 58 981 32 Q955 0 915 0 L734 0 Q731 -115 660 -177 Q589 -239 469 -239 L358 -239 Q240 -239 169 -180 Q92 -114 92 9 L92 140 L135 174 L177 174 L177 11 Q177 -88 229 -128 Q281 -168 410 -168 Q533 -168 583 -138 Q646 -99 649 0 L573 0 L538 43 L538 71 L881 71 Q920 71 920 104 Q920 168 893 233 Q866 298 822 338 Q740 416 603 434 Q597 434 597 441 L597 540 L928 731 Z M113 321 Q92 348 92 387 Q92 426 115 449.5 Q138 473 176 473 Q199 473 224 465 L224 424 Q206 429 189 429 Q137 429 137 376 Q137 357 150 341 Q166 321 193 321 L257 321 L257 304 L237 280 L69 280 L69 321 L113 321 Z " />
<glyph glyph-name="uniE04E" unicode="&#xe04e;" horiz-adv-x="1032" d="M597 664 L928 855 L928 780 L597 589 L597 664 Z M928 731 L928 653 L677 504 Q831 463 922 348 Q1005 243 1005 109 Q1005 85 1002 71 L1035 71 L1035 0 L1015 0 L987 35 L984 35 Q956 0 914 0 L734 0 Q731 -116 658 -179 Q587 -239 469 -239 L358 -239 Q232 -239 160 -171 Q92 -107 92 9 L92 140 L135 174 L177 174 L177 11 Q177 -88 229 -128 Q281 -168 410 -168 Q533 -168 583 -138 Q646 -99 649 0 L573 0 L538 43 L538 71 L881 71 Q920 71 920 105 Q920 150 903 204 Q886 258 860 294 Q780 410 603 434 Q597 434 597 441 L597 540 L928 731 Z M113 321 Q92 348 92 387 Q92 426 115 449.5 Q138 473 176 473 Q199 473 224 465 L224 424 Q206 429 189 429 Q137 429 137 376 Q137 357 150 341 Q166 321 193 321 L257 321 L257 304 L237 280 L69 280 L69 321 L113 321 Z " />
<glyph glyph-name="uniE051" unicode="&#xe051;" horiz-adv-x="1067" d="M113 321 Q92 348 92 387 Q92 426 115 449.5 Q138 473 176 473 Q199 473 224 465 L224 424 Q206 429 189 429 Q137 429 137 376 Q137 357 150 341 Q166 321 193 321 L257 321 L257 304 L237 280 L69 280 L69 321 L113 321 Z M997 460 L997 95 Q997 56 971 29 Q944 0 907 0 L734 0 Q732 -114 660 -177 Q589 -239 469 -239 L358 -239 Q240 -239 169 -180 Q92 -114 92 9 L92 140 L135 174 L177 174 L177 11 Q177 -88 229 -128 Q281 -168 410 -168 Q533 -168 583 -137 Q646 -99 649 0 L573 0 L538 43 L538 71 L875 71 Q912 71 912 109 L912 460 L997 460 Z M817 -104 Q838 -104 852.5 -118.5 Q867 -133 867 -153 Q867 -174 852.5 -188.5 Q838 -203 817 -203 Q797 -203 782.5 -188.5 Q768 -174 768 -153 Q768 -133 782.5 -118.5 Q797 -104 817 -104 Z M939 -104 Q959 -104 973.5 -118.5 Q988 -133 988 -153 Q988 -174 973.5 -188.5 Q959 -203 939 -203 Q919 -203 904.5 -188.5 Q890 -174 890 -153 Q890 -133 904.5 -118.5 Q919 -104 939 -104 Z " />
<glyph glyph-name="uniE052" unicode="&#xe052;" horiz-adv-x="1044" d="M113 321 Q92 348 92 387 Q92 426 115 449.5 Q138 473 176 473 Q199 473 224 465 L224 424 Q206 429 189 429 Q137 429 137 376 Q137 357 150 341 Q166 321 193 321 L257 321 L257 304 L237 280 L69 280 L69 321 L113 321 Z M997 460 L997 95 Q997 82 995 71 L1048 71 L1048 0 L1009 0 L980 35 L977 35 Q949 0 907 0 L734 0 Q732 -105 671 -167 Q599 -239 469 -239 L358 -239 Q233 -239 162 -173 Q92 -108 92 9 L92 140 L135 174 L177 174 L177 11 Q177 -88 229 -128 Q281 -168 410 -168 Q533 -168 583 -137 Q646 -99 649 0 L573 0 L538 43 L538 71 L875 71 Q912 71 912 109 L912 460 L997 460 Z M827 -104 Q847 -104 861.5 -118.5 Q876 -133 876 -153 Q876 -174 861.5 -188.5 Q847 -203 827 -203 Q806 -203 791.5 -188.5 Q777 -174 777 -153 Q777 -133 791.5 -118.5 Q806 -104 827 -104 Z M948 -104 Q969 -104 983 -118.5 Q997 -133 997 -153 Q997 -174 983 -188.5 Q969 -203 948 -203 Q928 -203 913.5 -188.5 Q899 -174 899 -153 Q899 -133 913.5 -118.5 Q928 -104 948 -104 Z " />
<glyph glyph-name="uniE053" unicode="&#xe053;" horiz-adv-x="682" d="M669 674 L669 596 Q596 596 540 552 Q479 505 426 406 Q324 596 186 596 Q181 596 177 596 L177 35 L134 0 L92 0 L92 674 L181 674 Q260 674 314 644 Q356 620 425 533 Q495 620 537 644 Q590 674 669 674 Z " />
<glyph glyph-name="uniE054" unicode="&#xe054;" horiz-adv-x="633" d="M470 604 L470 500 L88 71 L601 71 L601 43 L566 0 L100 0 Q60 0 36.5 21 Q13 42 13 79 Q13 116 48 154 L470 604 Z " />
<glyph glyph-name="uniE060" unicode="&#xe060;" horiz-adv-x="1123" d="M740 1090 L740 899 L718 881 L696 881 L696 1090 L740 1090 Z M840 842 L840 732 Q840 713 828 700 Q815 685 793 685 L746 685 L733 699 L732 699 Q729 695 724 691 Q714 685 704 685 L643 685 Q622 685 609 699 Q596 712 596 732 L596 800 L618 818 L639 818 L639 735 Q639 729 642 726 Q647 720 653 720 L682 720 Q688 720 693 725 Q696 729 696 735 L696 818 L740 818 L740 720 L783 720 Q790 720 793 725 Q797 729 797 735 L797 842 L840 842 Z M1049 613 L1049 95 Q1049 54 1022 27 Q995 0 959 0 L778 0 L745 35 L742 35 Q731 21 713 10 Q693 0 672 0 L484 0 Q438 0 411 35 Q345 -11 276 -11 Q191 -11 130 43 Q55 109 55 231 Q55 340 127 412 Q191 477 284 477 Q337 477 391 453 L434 488 L476 488 L476 109 Q476 91 486 81 Q495 71 506 71 L640 71 Q656 71 666 82 Q677 92 677 109 L677 613 L763 613 L763 95 Q763 83 760 71 L926 71 Q944 71 955 83 Q964 93 964 109 L964 613 L1049 613 Z M391 383 Q347 405 302 405 Q226 405 179 345 Q140 296 140 229 Q140 151 181 105 Q219 61 278 61 Q332 61 391 90 L391 383 Z " />
<glyph glyph-name="uniEA26" unicode="&#xea26;" horiz-adv-x="719" d="M290 539 Q222 584 222 665 Q222 720 258 756.5 Q294 793 348 793 Q405 793 440.5 756 Q476 719 476 660 Q476 629 462 600 Q445 565 410 542 Q519 488 588 401 Q671 296 671 163 Q671 36 585 -53 Q498 -142 333 -142 L307 -110 L307 -84 Q440 -84 519 -19 Q600 47 600 163 Q600 260 550 337 Q518 386 479 418.5 Q440 451 350 502 Q110 373 110 209 Q110 149 140.5 103 Q171 57 221 42 L221 17 L201 -7 Q125 20 90 68 Q45 130 44 215 Q44 304 93 377 Q130 429 162.5 456 Q195 483 290 539 Z M350 578 Q411 606 411 661 Q411 691 393.5 711 Q376 731 350 731 Q323 731 306 711 Q289 691 289 661 Q289 606 350 578 Z M424 111 Q395 100 357 99 Q305 99 268 130 Q220 172 220 249 Q220 313 256 351 Q294 391 359 391 Q407 391 438 366 Q475 336 475 281 L475 110 Q475 41 418 4 Q374 -25 313 -25 Q303 -25 289 -24 L267 4 L267 29 Q285 27 306 27 Q358 27 390.5 50 Q423 73 424 111 Z M410 274 Q410 306 388 321 Q376 330 357 330 Q322 330 303 307 Q284 284 284 242 Q284 156 360 156 Q386 156 410 166 L410 274 Z " />
<glyph glyph-name="uniFB51" unicode="&#xfb51;" horiz-adv-x="202" d="M64 861 Q118 942 183 942 Q215 942 237.5 922 Q260 902 260 874 Q260 839 229.5 816 Q199 793 154 793 Q115 793 55 813 Q22 824 12 824 Q-13 824 -46 795 L-69 812 Q-33 872 15 872 Q38 872 64 861 Z M104 849 Q143 836 168 836 Q222 836 222 872 Q222 903 184 903 Q142 903 104 849 Z M154 716 L154 109 Q154 93 164 82 Q175 71 192 71 L205 71 L205 0 L159 0 Q127 0 102 21 Q69 50 69 95 L69 716 L154 716 Z " />
<glyph glyph-name="uniFB57" unicode="&#xfb57;" horiz-adv-x="935" d="M888 460 L888 95 Q888 82 885 71 L939 71 L939 0 L903 0 L870 35 L868 35 Q840 0 798 0 L226 0 Q170 0 127 37 Q69 85 69 165 L69 353 L112 388 L154 388 L154 165 Q154 126 181 99 Q210 71 250 71 L765 71 Q782 71 794 83 Q803 93 803 109 L803 460 L888 460 Z M418 -104 Q438 -104 452.5 -118.5 Q467 -133 467 -153 Q467 -174 452.5 -188.5 Q438 -203 418 -203 Q398 -203 383.5 -188.5 Q369 -174 369 -153 Q369 -133 383.5 -118.5 Q398 -104 418 -104 Z M539 -104 Q560 -104 574.5 -118.5 Q589 -133 589 -153 Q589 -174 574.5 -188.5 Q560 -203 539 -203 Q519 -203 504.5 -188.5 Q490 -174 490 -153 Q490 -133 504.5 -118.5 Q519 -104 539 -104 Z M479 -205 Q498 -205 512 -218.5 Q526 -232 526 -252 Q526 -271 512 -285 Q498 -299 479 -299 Q459 -299 445.5 -285 Q432 -271 432 -252 Q432 -232 445.5 -218.5 Q459 -205 479 -205 Z " />
<glyph glyph-name="uniFB58" unicode="&#xfb58;" horiz-adv-x="330" d="M261 460 L261 95 Q261 58 237 31 Q210 0 170 0 L-4 0 L-4 71 L138 71 Q155 71 166 83 Q176 93 176 109 L176 460 L261 460 Z M81 -104 Q101 -104 115.5 -118.5 Q130 -133 130 -153 Q130 -174 115.5 -188.5 Q101 -203 81 -203 Q60 -203 45.5 -188.5 Q31 -174 31 -153 Q31 -133 45.5 -118.5 Q60 -104 81 -104 Z M202 -104 Q223 -104 237 -118.5 Q251 -133 251 -153 Q251 -174 237 -188.5 Q223 -203 202 -203 Q182 -203 167.5 -188.5 Q153 -174 153 -153 Q153 -133 167.5 -118.5 Q182 -104 202 -104 Z M141 -205 Q161 -205 174.5 -218.5 Q188 -232 188 -252 Q188 -271 174.5 -285 Q161 -299 141 -299 Q122 -299 108.5 -285 Q95 -271 95 -252 Q95 -232 108.5 -218.5 Q122 -205 141 -205 Z " />
<glyph glyph-name="uniFB59" unicode="&#xfb59;" horiz-adv-x="308" d="M261 460 L261 95 Q261 83 258 71 L311 71 L311 0 L272 0 L243 35 L240 35 Q213 0 170 0 L-4 0 L-4 71 L138 71 Q154 71 164 81 Q176 92 176 109 L176 460 L261 460 Z M90 -104 Q110 -104 124.5 -118.5 Q139 -133 139 -153 Q139 -174 124.5 -188.5 Q110 -203 90 -203 Q70 -203 55.5 -188.5 Q41 -174 41 -153 Q41 -133 55.5 -118.5 Q70 -104 90 -104 Z M211 -104 Q232 -104 246.5 -118.5 Q261 -133 261 -153 Q261 -174 246.5 -188.5 Q232 -203 211 -203 Q191 -203 176.5 -188.5 Q162 -174 162 -153 Q162 -133 176.5 -118.5 Q191 -104 211 -104 Z M151 -205 Q170 -205 184 -218.5 Q198 -232 198 -252 Q198 -271 184 -285 Q170 -299 151 -299 Q131 -299 117.5 -285 Q104 -271 104 -252 Q104 -232 117.5 -218.5 Q131 -205 151 -205 Z " />
<glyph glyph-name="uniFB67" unicode="&#xfb67;" horiz-adv-x="935" d="M433 594 L431 498 Q486 565 550 565 Q588 565 610 541 Q632 517 632 477 L632 444 Q632 423 620 408 Q604 388 576 388 L362 388 L362 429 L388 429 L388 594 L433 594 Z M587 476 Q587 502 573 514 Q562 523 545 523 Q516 523 484 497 Q451 470 432 429 L568 429 Q587 429 587 448 L587 476 Z M888 460 L888 95 Q888 82 885 71 L939 71 L939 0 L903 0 L870 35 L868 35 Q840 0 798 0 L226 0 Q170 0 127 37 Q69 85 69 165 L69 353 L112 388 L154 388 L154 165 Q154 126 181 99 Q210 71 250 71 L765 71 Q782 71 794 83 Q803 93 803 109 L803 460 L888 460 Z " />
<glyph glyph-name="uniFB68" unicode="&#xfb68;" horiz-adv-x="330" d="M69 785 L69 689 Q123 756 188 756 Q225 756 247.5 732 Q270 708 270 668 L270 635 Q270 614 257 599 Q241 579 214 579 L0 579 L0 620 L26 620 L26 785 L69 785 Z M225 667 Q225 693 211 705 Q200 714 182 714 Q154 714 121 688 Q88 661 69 620 L206 620 Q225 620 225 639 L225 667 Z M261 460 L261 95 Q261 58 237 31 Q210 0 170 0 L-4 0 L-4 71 L138 71 Q155 71 166 83 Q176 93 176 109 L176 460 L261 460 Z " />
<glyph glyph-name="uniFB69" unicode="&#xfb69;" horiz-adv-x="308" d="M69 785 L69 689 Q123 756 188 756 Q225 756 247.5 732 Q270 708 270 668 L270 635 Q270 614 257 599 Q241 579 214 579 L0 579 L0 620 L26 620 L26 785 L69 785 Z M225 667 Q225 693 211 705 Q200 714 182 714 Q154 714 121 688 Q88 661 69 620 L206 620 Q225 620 225 639 L225 667 Z M261 460 L261 95 Q261 83 258 71 L311 71 L311 0 L272 0 L243 35 L240 35 Q213 0 170 0 L-4 0 L-4 71 L138 71 Q154 71 164 81 Q176 92 176 109 L176 460 L261 460 Z " />
<glyph glyph-name="uniFB6B" unicode="&#xfb6b;" horiz-adv-x="961" d="M725 776 Q744 776 758 762 Q772 748 772 729 Q772 710 758 696 Q744 682 725 682 Q706 682 692 696 Q678 710 678 729 Q678 748 692 762 Q706 776 725 776 Z M664 680 Q685 680 699 665.5 Q713 651 713 631 Q713 610 699 595.5 Q685 581 664 581 Q644 581 629.5 595.5 Q615 610 615 631 Q615 651 629.5 665.5 Q644 680 664 680 Z M786 680 Q806 680 820.5 665.5 Q835 651 835 631 Q835 610 820.5 595.5 Q806 581 786 581 Q765 581 750.5 595.5 Q736 610 736 631 Q736 651 750.5 665.5 Q765 680 786 680 Z M572 71 Q509 139 509 241 Q509 338 562 400 Q623 472 724 472 Q814 472 874 413 Q940 348 940 241 Q940 141 877 71 L964 71 L964 0 L821 0 L809 0 Q750 0 726 8 L723 8 Q699 0 639 0 L627 0 L226 0 Q166 0 122 41 Q69 90 69 165 L69 353 L112 388 L154 388 L154 165 Q154 127 180 100 Q208 71 250 71 L572 71 Z M855 240 Q855 314 819.5 357 Q784 400 724 400 Q661 400 627 355 Q595 313 595 238 Q595 168 632 121 Q669 74 724 71 Q789 74 826 135 Q855 182 855 240 Z " />
<glyph glyph-name="uniFB6C" unicode="&#xfb6c;" horiz-adv-x="630" d="M386 776 Q405 776 419 762 Q433 748 433 729 Q433 710 419 696 Q405 682 386 682 Q367 682 353 696 Q339 710 339 729 Q339 748 353 762 Q367 776 386 776 Z M325 680 Q346 680 360 665.5 Q374 651 374 631 Q374 610 360 595.5 Q346 581 325 581 Q305 581 290.5 595.5 Q276 610 276 631 Q276 651 290.5 665.5 Q305 680 325 680 Z M447 680 Q467 680 481.5 665.5 Q496 651 496 631 Q496 610 481.5 595.5 Q467 581 447 581 Q426 581 411.5 595.5 Q397 610 397 631 Q397 651 411.5 665.5 Q426 680 447 680 Z M220 71 Q182 106 164 158 Q150 200 150 241 Q150 348 214 411 Q277 472 385 472 Q467 472 516 430 Q573 382 575 290 L575 95 Q575 56 548 28 Q522 0 485 0 L-4 0 L-4 71 L220 71 Z M489 290 Q489 346 456 376 Q430 400 385 400 Q302 400 263 342 Q235 302 235 238 Q236 170 279 122 Q324 71 398 71 L452 71 Q489 71 489 109 L489 290 Z " />
<glyph glyph-name="uniFB6D" unicode="&#xfb6d;" horiz-adv-x="602" d="M370 776 Q390 776 403.5 762 Q417 748 417 729 Q417 710 403.5 696 Q390 682 370 682 Q351 682 337 696 Q323 710 323 729 Q323 748 337 762 Q351 776 370 776 Z M309 680 Q330 680 344.5 665.5 Q359 651 359 631 Q359 610 344.5 595.5 Q330 581 309 581 Q289 581 274.5 595.5 Q260 610 260 631 Q260 651 274.5 665.5 Q289 680 309 680 Z M431 680 Q451 680 465.5 665.5 Q480 651 480 631 Q480 610 465.5 595.5 Q451 581 431 581 Q411 581 396.5 595.5 Q382 610 382 631 Q382 651 396.5 665.5 Q411 680 431 680 Z M213 71 Q150 140 150 241 Q150 338 203 400 Q264 472 365 472 Q446 472 503 424 Q581 359 581 241 Q581 141 518 71 L605 71 L605 0 L461 0 L450 0 Q391 0 367 8 L363 8 Q339 0 280 0 L268 0 L-4 0 L-4 71 L213 71 Z M365 400 Q304 400 269.5 357 Q235 314 235 238 Q235 169 272.5 121 Q310 73 365 71 Q420 73 457.5 121 Q495 169 495 238 Q495 314 460.5 357 Q426 400 365 400 Z " />
<glyph glyph-name="uniFB7B" unicode="&#xfb7b;" horiz-adv-x="625" d="M180 443 Q252 472 352 472 Q476 472 541 395 Q597 329 597 222 L597 95 Q597 83 594 71 L629 71 L629 0 L608 0 L579 35 L577 35 Q561 16 541 7 Q524 0 507 0 L299 0 Q215 0 173 -48 Q141 -83 141 -151 Q141 -224 183.5 -266 Q226 -308 301 -308 Q316 -308 334 -306 L334 -334 L298 -378 L294 -378 Q193 -378 133 -328 Q56 -264 56 -149 Q56 71 312 71 L474 71 Q512 71 512 109 L512 225 Q512 303 471 348 Q426 398 340 398 Q269 398 180 376 L180 443 Z M329 -105 Q350 -105 364.5 -119.5 Q379 -134 379 -155 Q379 -175 364.5 -189.5 Q350 -204 329 -204 Q309 -204 294.5 -189.5 Q280 -175 280 -155 Q280 -134 294.5 -119.5 Q309 -105 329 -105 Z M451 -105 Q471 -105 485.5 -119.5 Q500 -134 500 -155 Q500 -175 485.5 -189.5 Q471 -204 451 -204 Q431 -204 416.5 -189.5 Q402 -175 402 -155 Q402 -134 416.5 -119.5 Q431 -105 451 -105 Z M390 -206 Q410 -206 423.5 -220 Q437 -234 437 -253 Q437 -273 423.5 -286.5 Q410 -300 390 -300 Q371 -300 357 -286.5 Q343 -273 343 -253 Q343 -234 357 -220 Q371 -206 390 -206 Z " />
<glyph glyph-name="uniFB7C" unicode="&#xfb7c;" horiz-adv-x="602" d="M129 443 Q221 472 301 472 Q425 472 490 395 Q546 329 546 222 L546 95 Q546 61 525 35 Q499 0 456 0 L-4 0 L-4 71 L423 71 Q461 71 461 109 L461 225 Q461 303 420 348 Q375 398 289 398 Q237 398 129 376 L129 443 Z M187 -104 Q208 -104 222.5 -118.5 Q237 -133 237 -153 Q237 -174 222.5 -188.5 Q208 -203 187 -203 Q167 -203 152.5 -188.5 Q138 -174 138 -153 Q138 -133 152.5 -118.5 Q167 -104 187 -104 Z M309 -104 Q329 -104 343.5 -118.5 Q358 -133 358 -153 Q358 -174 343.5 -188.5 Q329 -203 309 -203 Q289 -203 274.5 -188.5 Q260 -174 260 -153 Q260 -133 274.5 -118.5 Q289 -104 309 -104 Z M248 -205 Q268 -205 281.5 -218.5 Q295 -232 295 -252 Q295 -271 281.5 -285 Q268 -299 248 -299 Q229 -299 215 -285 Q201 -271 201 -252 Q201 -232 215 -218.5 Q229 -205 248 -205 Z " />
<glyph glyph-name="uniFB7D" unicode="&#xfb7d;" horiz-adv-x="575" d="M129 443 Q221 472 301 472 Q425 472 490 395 Q546 329 546 222 L546 95 Q546 83 543 71 L578 71 L578 0 L557 0 L529 35 L526 35 Q498 0 456 0 L-4 0 L-4 71 L423 71 Q461 71 461 109 L461 225 Q461 303 420 348 Q375 398 289 398 Q237 398 129 376 L129 443 Z M187 -104 Q208 -104 222.5 -118.5 Q237 -133 237 -153 Q237 -174 222.5 -188.5 Q208 -203 187 -203 Q167 -203 152.5 -188.5 Q138 -174 138 -153 Q138 -133 152.5 -118.5 Q167 -104 187 -104 Z M309 -104 Q329 -104 343.5 -118.5 Q358 -133 358 -153 Q358 -174 343.5 -188.5 Q329 -203 309 -203 Q289 -203 274.5 -188.5 Q260 -174 260 -153 Q260 -133 274.5 -118.5 Q289 -104 309 -104 Z M248 -205 Q268 -205 281.5 -218.5 Q295 -232 295 -252 Q295 -271 281.5 -285 Q268 -299 248 -299 Q229 -299 215 -285 Q201 -271 201 -252 Q201 -232 215 -218.5 Q229 -205 248 -205 Z " />
<glyph glyph-name="uniFB89" unicode="&#xfb89;" horiz-adv-x="479" d="M183 785 L183 689 Q237 756 302 756 Q339 756 361.5 732 Q384 708 384 668 L384 635 Q384 614 371 599 Q355 579 328 579 L114 579 L114 620 L140 620 L140 785 L183 785 Z M339 667 Q339 693 324 705 Q314 714 296 714 Q268 714 235 688 Q202 661 183 620 L320 620 Q339 620 339 639 L339 667 Z M140 466 Q176 472 217 472 Q328 472 396 405 Q457 343 457 248 L457 95 Q457 82 455 71 L483 71 L483 0 L468 0 L440 35 L437 35 Q429 25 419 17 Q395 0 367 0 L39 0 L39 71 L335 71 Q372 71 372 109 L372 236 Q372 307 329 354 Q283 402 187 403 Q159 403 140 399 L140 466 Z " />
<glyph glyph-name="uniFB8B" unicode="&#xfb8b;" horiz-adv-x="380" d="M235 776 Q254 776 268 762.5 Q282 749 282 729 Q282 710 268 696 Q254 682 235 682 Q215 682 201.5 696 Q188 710 188 729 Q188 749 201.5 762.5 Q215 776 235 776 Z M174 680 Q194 680 208.5 665.5 Q223 651 223 631 Q223 610 208.5 595.5 Q194 581 174 581 Q154 581 139.5 595.5 Q125 610 125 631 Q125 651 139.5 665.5 Q154 680 174 680 Z M296 680 Q316 680 330.5 665.5 Q345 651 345 631 Q345 610 330.5 595.5 Q316 581 296 581 Q275 581 260.5 595.5 Q246 610 246 631 Q246 651 260.5 665.5 Q275 680 296 680 Z M333 460 L333 71 L384 71 L384 0 L333 0 Q330 -109 265 -171 Q222 -211 154 -228 Q113 -238 68 -238 Q43 -238 22 -237 L-11 -196 L-11 -164 Q18 -168 52 -168 Q248 -168 248 12 L248 460 L333 460 Z " />
<glyph glyph-name="uniFB8D" unicode="&#xfb8d;" horiz-adv-x="380" d="M138 788 L137 691 Q191 758 256 758 Q293 758 315.5 734.5 Q338 711 338 671 L338 638 Q338 617 326 601 Q309 581 282 581 L68 581 L68 622 L94 622 L94 788 L138 788 Z M293 669 Q293 716 248 716 Q219 716 187.5 689.5 Q156 663 137 622 L274 622 Q293 622 293 641 L293 669 Z M333 460 L333 71 L384 71 L384 0 L333 0 Q330 -111 263 -172 Q213 -218 134 -232 Q102 -238 68 -238 Q43 -238 22 -237 L-11 -196 L-11 -164 Q18 -168 52 -168 Q248 -168 248 12 L248 460 L333 460 Z " />
<glyph glyph-name="uniFB8F" unicode="&#xfb8f;" horiz-adv-x="915" d="M811 731 L811 653 L560 504 Q719 461 808 346 Q888 242 888 100 Q888 82 885 71 L919 71 L919 0 L899 0 L870 35 L868 35 Q840 0 798 0 L226 0 Q173 0 131 33 Q69 82 69 165 L69 349 L123 393 L154 393 L154 165 Q154 128 179 101 Q207 71 250 71 L765 71 Q803 71 803 105 Q803 150 786 204 Q769 258 743 294 Q663 410 487 434 Q481 434 481 441 L481 540 L811 731 Z " />
<glyph glyph-name="uniFB90" unicode="&#xfb90;" horiz-adv-x="580" d="M448 731 L448 653 L197 504 Q353 462 443 348 Q525 244 525 108 Q525 60 500 30 Q475 0 435 0 L-4 0 L-4 71 L402 71 Q441 71 441 111 Q436 215 380 294 Q300 410 124 434 Q118 434 118 441 L118 540 L448 731 Z " />
<glyph glyph-name="uniFB91" unicode="&#xfb91;" horiz-adv-x="552" d="M448 731 L448 653 L197 504 Q353 462 443 348 Q525 244 525 108 Q525 85 522 71 L556 71 L556 0 L536 0 L507 35 L505 35 Q475 0 435 0 L-4 0 L-4 71 L402 71 Q441 71 441 111 Q436 215 380 294 Q300 410 124 434 Q118 434 118 441 L118 540 L448 731 Z " />
<glyph glyph-name="uniFB93" unicode="&#xfb93;" horiz-adv-x="915" d="M482 664 L812 855 L812 780 L482 589 L482 664 Z M811 731 L811 653 L560 504 Q719 461 808 346 Q888 242 888 100 Q888 82 885 71 L919 71 L919 0 L899 0 L870 35 L868 35 Q840 0 798 0 L226 0 Q173 0 131 33 Q69 82 69 165 L69 349 L123 393 L154 393 L154 165 Q154 128 179 101 Q207 71 250 71 L765 71 Q803 71 803 105 Q803 150 786 204 Q769 258 743 294 Q663 410 487 434 Q481 434 481 441 L481 540 L811 731 Z " />
<glyph glyph-name="uniFB94" unicode="&#xfb94;" horiz-adv-x="580" d="M118 664 L448 855 L448 780 L118 589 L118 664 Z M448 731 L448 653 L197 504 Q353 462 443 348 Q525 244 525 108 Q525 60 500 30 Q475 0 435 0 L-4 0 L-4 71 L402 71 Q441 71 441 111 Q436 215 380 294 Q300 410 124 434 Q118 434 118 441 L118 540 L448 731 Z " />
<glyph glyph-name="uniFB95" unicode="&#xfb95;" horiz-adv-x="571" d="M118 664 L448 855 L448 780 L118 589 L118 664 Z M448 731 L448 653 L197 504 Q353 462 443 348 Q525 244 525 108 Q525 85 522 71 L556 71 L556 0 L536 0 L507 35 L505 35 Q475 0 435 0 L-4 0 L-4 71 L402 71 Q441 71 441 111 Q436 215 380 294 Q300 410 124 434 Q118 434 118 441 L118 540 L448 731 Z " />
<glyph glyph-name="uniFB9F" unicode="&#xfb9f;" horiz-adv-x="758" d="M711 460 L711 71 L762 71 L762 0 L711 0 Q708 -119 631 -182 Q560 -239 446 -239 L335 -239 Q224 -239 154 -186 Q69 -121 69 9 L69 218 L112 253 L154 253 L154 11 Q154 -89 206.5 -128.5 Q259 -168 390 -168 Q515 -168 566 -134 Q626 -93 626 11 L626 460 L711 460 Z " />
<glyph glyph-name="uniFBA5" unicode="&#xfba5;" horiz-adv-x="523" d="M250 595 Q229 622 229 660 Q229 699 252 723 Q275 747 314 747 Q337 747 362 738 L362 697 Q343 702 326 702 Q275 702 275 650 Q275 630 287 614 Q303 595 330 595 L394 595 L394 578 L375 554 L206 554 L206 595 L250 595 Z M476 487 L476 109 Q476 91 486 81 Q495 71 506 71 L526 71 L526 0 L484 0 Q438 0 411 35 Q346 -11 271 -11 Q166 -11 105 71 Q55 138 55 231 Q55 340 127 412 Q191 477 284 477 Q337 477 391 453 L434 487 L476 487 Z M391 383 Q347 405 302 405 Q226 405 179 345 Q140 296 140 229 Q140 149 178 103 Q215 61 278 61 Q332 61 391 90 L391 383 Z " />
<glyph glyph-name="uniFBA7" unicode="&#xfba7;" horiz-adv-x="750" d="M703 460 L703 109 Q703 91 713 81 Q721 72 733 71 L753 71 L753 0 L708 0 Q668 0 641 31 Q617 59 617 95 L617 379 Q504 350 455 234 Q420 154 420 39 L420 0 L352 0 Q208 0 122 93 Q46 174 46 296 Q46 332 53 372 L130 372 Q128 344 128 318 Q128 209 186 140 Q242 75 335 71 Q337 251 434 356 Q532 460 689 460 L703 460 Z " />
<glyph glyph-name="uniFBA8" unicode="&#xfba8;" horiz-adv-x="399" d="M330 460 L330 95 Q330 56 304 29 Q278 0 240 0 L200 0 Q154 -57 154 -103 Q154 -134 187 -134 L255 -134 L255 -196 L183 -196 Q144 -196 119 -173 Q94 -150 94 -113 Q94 -56 138 0 L-4 0 L-4 71 L207 71 Q228 71 239 88 Q245 97 245 109 L245 460 L330 460 Z " />
<glyph glyph-name="uniFBA9" unicode="&#xfba9;" horiz-adv-x="478" d="M482 71 L482 0 L461 0 Q449 -1 442 -9 Q431 -20 431 -38 L431 -348 L417 -348 Q231 -348 137 -208 Q71 -109 68 0 L-4 0 L-4 71 L149 71 L149 18 Q149 -89 204 -168 Q257 -243 346 -266 L346 -23 Q346 12 369 40 Q396 71 436 71 L482 71 Z " />
<glyph glyph-name="uniFBAB" unicode="&#xfbab;" horiz-adv-x="766" d="M263 449 Q370 499 479 499 Q739 499 739 199 L739 94 Q739 82 736 71 L769 71 L769 0 L750 0 L721 35 L718 35 Q709 24 698 16 Q675 0 649 0 L417 0 Q360 0 339 7 L335 7 Q315 0 256 0 L90 0 L55 43 L55 71 L211 71 Q188 97 176 132 Q161 171 161 215 Q161 286 192 335 Q218 375 263 393 L263 449 Z M653 185 Q653 331 595 384 Q550 424 461 424 Q396 423 339 406 Q417 405 462 359 Q513 308 513 215 Q513 176 502 140 Q488 98 463 71 L616 71 Q629 71 639 79 Q653 90 653 109 L653 185 Z M438 216 Q438 275 410.5 310 Q383 345 336 345 Q288 345 261 311 Q234 277 234 216 Q234 157 262.5 118 Q291 79 336 77 Q380 79 409 118.5 Q438 158 438 216 Z " />
<glyph glyph-name="uniFBAC" unicode="&#xfbac;" horiz-adv-x="783" d="M243 449 Q351 499 464 499 Q581 499 646 441 Q727 367 727 199 L727 95 Q727 60 705 33 Q678 0 638 0 L397 0 Q340 0 319 7 L315 7 Q295 0 236 0 L-4 0 L-4 71 L190 71 Q167 97 155 133 Q141 172 141 215 Q141 286 171 334 Q198 375 243 393 L243 449 Z M642 185 Q642 314 598 368 Q553 424 447 424 Q377 424 319 406 Q397 405 442 359 Q493 308 493 215 Q493 176 481 140 Q468 98 443 71 L605 71 Q618 71 628 79 Q642 90 642 109 L642 185 Z M418 216 Q418 275 390.5 310 Q363 345 315 345 Q263 345 236 306 Q213 272 213 213 Q214 160 238 123 Q266 79 315 77 Q360 79 389 118.5 Q418 158 418 216 Z " />
<glyph glyph-name="uniFBAD" unicode="&#xfbad;" horiz-adv-x="756" d="M243 449 Q350 498 465 498 Q727 498 727 199 L727 94 Q727 82 725 71 L760 71 L760 0 L738 0 L710 35 L707 35 Q699 25 689 17 Q665 0 638 0 L397 0 Q340 0 319 7 L315 7 Q295 0 236 0 L-4 0 L-4 71 L190 71 Q167 97 154 134 Q141 172 141 215 Q141 290 174 338 Q199 375 243 393 L243 449 Z M642 185 Q642 314 597 368 Q550 424 445 424 Q379 424 319 406 Q415 405 460 336 Q493 288 493 215 Q493 177 482 142 Q469 100 443 71 L605 71 Q623 71 634 85 Q642 95 642 109 L642 185 Z M418 216 Q418 275 390.5 310 Q363 345 315 345 Q267 345 240 311 Q213 277 213 216 Q213 157 242 118 Q271 79 315 77 Q360 79 389 118 Q418 157 418 216 Z " />
<glyph glyph-name="uniFBAF" unicode="&#xfbaf;" horiz-adv-x="684" d="M822 71 L822 0 L236 0 Q193 0 170 -21 Q151 -40 151 -70 Q151 -90 162 -102 Q178 -120 209 -120 L674 -120 L674 -148 L639 -191 L211 -191 Q145 -191 109 -162 Q69 -130 69 -70 Q69 -6 116 32 Q163 71 240 71 L822 71 Z " />
<glyph glyph-name="uniFBB1" unicode="&#xfbb1;" horiz-adv-x="679" d="M139 312 Q119 339 119 377 Q119 417 142 440.5 Q165 464 203 464 Q226 464 251 456 L251 415 Q232 420 215 420 Q164 420 164 367 Q164 347 176 331 Q192 312 219 312 L283 312 L283 295 L264 271 L96 271 L96 312 L139 312 Z M844 71 L844 0 L258 0 Q215 0 192 -21 Q173 -40 173 -70 Q173 -90 184 -102 Q200 -120 231 -120 L696 -120 L696 -148 L661 -191 L233 -191 Q167 -191 131 -162 Q91 -130 91 -70 Q91 -6 138 32 Q185 71 262 71 L844 71 Z " />
<glyph glyph-name="uniFBB2" unicode="&#xfbb2;" d="M49 654 Q70 654 84.5 639.5 Q99 625 99 604 Q99 584 84.5 569.5 Q70 555 49 555 Q29 555 14.5 569.5 Q0 584 0 604 Q0 625 14.5 639.5 Q29 654 49 654 Z " />
<glyph glyph-name="uniFBB3" unicode="&#xfbb3;" d="M49 -90 Q70 -90 84.5 -104 Q99 -118 99 -139 Q99 -159 84.5 -173.5 Q70 -188 49 -188 Q29 -188 14.5 -173.5 Q0 -159 0 -139 Q0 -118 14.5 -104 Q29 -90 49 -90 Z " />
<glyph glyph-name="uniFBB4" unicode="&#xfbb4;" d="M49 668 Q70 668 84.5 653.5 Q99 639 99 618 Q99 598 84.5 583.5 Q70 569 49 569 Q29 569 14.5 583.5 Q0 598 0 618 Q0 639 14.5 653.5 Q29 668 49 668 Z M171 668 Q191 668 205.5 653.5 Q220 639 220 618 Q220 598 205.5 583.5 Q191 569 171 569 Q150 569 136 583.5 Q122 598 122 618 Q122 639 136 653.5 Q150 668 171 668 Z " />
<glyph glyph-name="uniFBB5" unicode="&#xfbb5;" d="M49 -101 Q70 -101 84.5 -115.5 Q99 -130 99 -151 Q99 -171 84.5 -185.5 Q70 -200 49 -200 Q29 -200 14.5 -185.5 Q0 -171 0 -151 Q0 -130 14.5 -115.5 Q29 -101 49 -101 Z M171 -101 Q191 -101 205.5 -115.5 Q220 -130 220 -151 Q220 -171 205.5 -185.5 Q191 -200 171 -200 Q150 -200 136 -185.5 Q122 -171 122 -151 Q122 -130 136 -115.5 Q150 -101 171 -101 Z " />
<glyph glyph-name="uniFBB6" unicode="&#xfbb6;" d="M110 769 Q129 769 143 755 Q157 741 157 722 Q157 702 143 688.5 Q129 675 110 675 Q91 675 77 688.5 Q63 702 63 722 Q63 741 77 755 Q91 769 110 769 Z M49 672 Q70 672 84.5 658 Q99 644 99 623 Q99 603 84.5 588.5 Q70 574 49 574 Q29 574 14.5 588.5 Q0 603 0 623 Q0 644 14.5 658 Q29 672 49 672 Z M171 672 Q191 672 205.5 658 Q220 644 220 623 Q220 603 205.5 588.5 Q191 574 171 574 Q150 574 136 588.5 Q122 603 122 623 Q122 644 136 658 Q150 672 171 672 Z " />
<glyph glyph-name="uniFBB7" unicode="&#xfbb7;" d="M110 -90 Q129 -90 143 -103.5 Q157 -117 157 -137 Q157 -156 143 -170 Q129 -184 110 -184 Q91 -184 77 -170 Q63 -156 63 -137 Q63 -118 77 -104 Q91 -90 110 -90 Z M49 -186 Q70 -186 84.5 -200.5 Q99 -215 99 -235 Q99 -256 84.5 -270.5 Q70 -285 49 -285 Q29 -285 14.5 -270.5 Q0 -256 0 -235 Q0 -215 14.5 -200.5 Q29 -186 49 -186 Z M171 -186 Q191 -186 205.5 -200.5 Q220 -215 220 -235 Q220 -256 205.5 -270.5 Q191 -285 171 -285 Q150 -285 136 -270.5 Q122 -256 122 -235 Q122 -215 136 -200.5 Q150 -186 171 -186 Z " />
<glyph glyph-name="uniFBB9" unicode="&#xfbb9;" d="M49 -108 Q70 -108 84.5 -122.5 Q99 -137 99 -158 Q99 -178 84.5 -192.5 Q70 -207 49 -207 Q29 -207 14.5 -192.5 Q0 -178 0 -158 Q0 -137 14.5 -122.5 Q29 -108 49 -108 Z M171 -108 Q191 -108 205.5 -122.5 Q220 -137 220 -158 Q220 -178 205.5 -192.5 Q191 -207 171 -207 Q150 -207 136 -192.5 Q122 -178 122 -158 Q122 -137 136 -122.5 Q150 -108 171 -108 Z M110 -209 Q129 -209 143 -223 Q157 -237 157 -256 Q157 -276 143 -289.5 Q129 -303 110 -303 Q91 -303 77 -289.5 Q63 -276 63 -256 Q63 -237 77 -223 Q91 -209 110 -209 Z " />
<glyph glyph-name="uniFBE8" unicode="&#xfbe8;" horiz-adv-x="330" d="M261 460 L261 95 Q261 58 237 31 Q210 0 170 0 L-4 0 L-4 71 L138 71 Q155 71 166 83 Q176 93 176 109 L176 460 L261 460 Z " />
<glyph glyph-name="uniFBE9" unicode="&#xfbe9;" horiz-adv-x="308" d="M261 460 L261 95 Q261 83 258 71 L311 71 L311 0 L272 0 L243 35 L240 35 Q213 0 170 0 L-4 0 L-4 71 L138 71 Q154 71 164 81 Q176 92 176 109 L176 460 L261 460 Z " />
<glyph glyph-name="uniFBFC" unicode="&#xfbfc;" horiz-adv-x="754" d="M154 11 Q154 -88 206.5 -127.5 Q259 -167 390 -167 Q502 -167 553 -146 Q627 -115 627 -37 Q627 15 600 40 Q573 65 492 88 Q392 117 353 153 Q306 198 306 279 Q306 380 367 430 Q418 472 506 472 Q563 472 625 453 L625 387 Q558 403 517 403 Q389 403 389 279 Q389 231 416.5 205 Q444 179 523 156 Q623 126 662 87 Q708 41 708 -39 Q708 -149 615 -201 Q547 -239 446 -239 L335 -239 Q210 -239 138 -172 Q69 -108 69 9 L69 139 L112 174 L154 174 L154 11 Z " />
<glyph glyph-name="uniFBFD" unicode="&#xfbfd;" horiz-adv-x="669" d="M154 174 L154 11 Q154 -88 206 -128 Q258 -168 387 -168 Q511 -168 560 -137 Q623 -99 626 0 L550 0 L515 43 L515 71 L738 71 L738 0 L711 0 Q708 -121 628 -184 Q558 -239 446 -239 L335 -239 Q210 -239 138 -172 Q69 -107 69 9 L69 139 L112 174 L154 174 Z " />
<glyph glyph-name="uniFBFE" unicode="&#xfbfe;" horiz-adv-x="330" d="M261 460 L261 95 Q261 58 237 31 Q210 0 170 0 L-4 0 L-4 71 L138 71 Q155 71 166 83 Q176 93 176 109 L176 460 L261 460 Z M81 -104 Q101 -104 115.5 -118.5 Q130 -133 130 -153 Q130 -174 115.5 -188.5 Q101 -203 81 -203 Q60 -203 45.5 -188.5 Q31 -174 31 -153 Q31 -133 45.5 -118.5 Q60 -104 81 -104 Z M202 -104 Q223 -104 237 -118.5 Q251 -133 251 -153 Q251 -174 237 -188.5 Q223 -203 202 -203 Q182 -203 167.5 -188.5 Q153 -174 153 -153 Q153 -133 167.5 -118.5 Q182 -104 202 -104 Z " />
<glyph glyph-name="uniFBFF" unicode="&#xfbff;" horiz-adv-x="308" d="M261 460 L261 95 Q261 83 258 71 L311 71 L311 0 L272 0 L243 35 L240 35 Q213 0 170 0 L-4 0 L-4 71 L138 71 Q154 71 164 81 Q176 92 176 109 L176 460 L261 460 Z M90 -104 Q110 -104 124.5 -118.5 Q139 -133 139 -153 Q139 -174 124.5 -188.5 Q110 -203 90 -203 Q70 -203 55.5 -188.5 Q41 -174 41 -153 Q41 -133 55.5 -118.5 Q70 -104 90 -104 Z M211 -104 Q232 -104 246.5 -118.5 Q261 -133 261 -153 Q261 -174 246.5 -188.5 Q232 -203 211 -203 Q191 -203 176.5 -188.5 Q162 -174 162 -153 Q162 -133 176.5 -118.5 Q191 -104 211 -104 Z " />
<glyph glyph-name="uniFC3D" unicode="&#xfc3d;" horiz-adv-x="1023" d="M905 731 L905 653 L654 504 Q789 466 877 355 Q968 242 968 95 Q968 55 940 27 Q914 0 878 0 L711 0 Q708 -115 637 -177 Q566 -239 446 -239 L335 -239 Q217 -239 146 -180 Q69 -114 69 9 L69 140 L112 174 L154 174 L154 11 Q154 -88 206 -128 Q258 -168 387 -168 Q510 -168 560 -138 Q623 -99 626 0 L550 0 L515 43 L515 71 L843 71 Q881 71 881 105 Q881 236 780 334 Q694 417 580 434 Q574 434 574 441 L574 540 L905 731 Z " />
<glyph glyph-name="uniFC3E" unicode="&#xfc3e;" horiz-adv-x="1023" d="M905 731 L905 653 L654 504 Q789 466 877 355 Q968 242 968 95 Q968 55 940 27 Q914 0 878 0 L711 0 Q708 -115 637 -177 Q566 -239 446 -239 L335 -239 Q217 -239 146 -180 Q69 -114 69 9 L69 140 L112 174 L154 174 L154 11 Q154 -88 206 -128 Q258 -168 387 -168 Q510 -168 560 -138 Q623 -99 626 0 L550 0 L515 43 L515 71 L843 71 Q881 71 881 105 Q881 236 780 334 Q694 417 580 434 Q574 434 574 441 L574 540 L905 731 Z M329 -297 Q350 -297 364 -311.5 Q378 -326 378 -347 Q378 -367 364 -381.5 Q350 -396 329 -396 Q309 -396 294.5 -381.5 Q280 -367 280 -347 Q280 -326 294.5 -311.5 Q309 -297 329 -297 Z M451 -297 Q471 -297 485.5 -311.5 Q500 -326 500 -347 Q500 -367 485.5 -381.5 Q471 -396 451 -396 Q430 -396 415.5 -381.5 Q401 -367 401 -347 Q401 -326 415.5 -311.5 Q430 -297 451 -297 Z " />
<glyph glyph-name="uniFC59" unicode="&#xfc59;" horiz-adv-x="1044" d="M974 460 L974 95 Q974 56 948 29 Q921 0 884 0 L711 0 Q709 -114 637 -177 Q566 -239 446 -239 L335 -239 Q217 -239 146 -180 Q69 -114 69 9 L69 140 L112 174 L154 174 L154 11 Q154 -88 206 -128 Q258 -168 387 -168 Q510 -168 560 -137 Q623 -99 626 0 L550 0 L515 43 L515 71 L852 71 Q889 71 889 109 L889 460 L974 460 Z M794 -104 Q815 -104 829.5 -118.5 Q844 -133 844 -153 Q844 -174 829.5 -188.5 Q815 -203 794 -203 Q774 -203 759.5 -188.5 Q745 -174 745 -153 Q745 -133 759.5 -118.5 Q774 -104 794 -104 Z M916 -104 Q936 -104 950.5 -118.5 Q965 -133 965 -153 Q965 -174 950.5 -188.5 Q936 -203 916 -203 Q896 -203 881.5 -188.5 Q867 -174 867 -153 Q867 -133 881.5 -118.5 Q896 -104 916 -104 Z " />
<glyph glyph-name="uniFC5A" unicode="&#xfc5a;" horiz-adv-x="1021" d="M974 460 L974 95 Q974 56 948 29 Q921 0 884 0 L711 0 Q709 -114 637 -177 Q566 -239 446 -239 L335 -239 Q217 -239 146 -180 Q69 -114 69 9 L69 140 L112 174 L154 174 L154 11 Q154 -88 206 -128 Q258 -168 387 -168 Q510 -168 560 -137 Q623 -99 626 0 L550 0 L515 43 L515 71 L852 71 Q889 71 889 109 L889 460 L974 460 Z M794 -104 Q815 -104 829.5 -118.5 Q844 -133 844 -153 Q844 -174 829.5 -188.5 Q815 -203 794 -203 Q774 -203 759.5 -188.5 Q745 -174 745 -153 Q745 -133 759.5 -118.5 Q774 -104 794 -104 Z M916 -104 Q936 -104 950.5 -118.5 Q965 -133 965 -153 Q965 -174 950.5 -188.5 Q936 -203 916 -203 Q896 -203 881.5 -188.5 Q867 -174 867 -153 Q867 -133 881.5 -118.5 Q896 -104 916 -104 Z M329 -297 Q350 -297 364 -311.5 Q378 -326 378 -347 Q378 -367 364 -381.5 Q350 -396 329 -396 Q309 -396 294.5 -381.5 Q280 -367 280 -347 Q280 -326 294.5 -311.5 Q309 -297 329 -297 Z M451 -297 Q471 -297 485.5 -311.5 Q500 -326 500 -347 Q500 -367 485.5 -381.5 Q471 -396 451 -396 Q430 -396 415.5 -381.5 Q401 -367 401 -347 Q401 -326 415.5 -311.5 Q430 -297 451 -297 Z " />
<glyph glyph-name="uniFC83" unicode="&#xfc83;" horiz-adv-x="995" d="M905 731 L905 653 L654 504 Q786 467 876 358 Q968 244 968 100 Q968 85 965 71 L999 71 L999 0 L979 0 L951 35 L948 35 Q920 0 878 0 L711 0 Q708 -116 635 -179 Q564 -239 446 -239 L335 -239 Q209 -239 137 -171 Q69 -107 69 9 L69 139 L112 174 L154 174 L154 11 Q154 -88 206 -128 Q258 -168 387 -168 Q510 -168 560 -138 Q623 -99 626 0 L550 0 L515 43 L515 71 L844 71 Q882 71 882 105 Q882 235 780 334 Q694 418 580 434 Q574 434 574 441 L574 540 L905 731 Z " />
<glyph glyph-name="uniFC84" unicode="&#xfc84;" horiz-adv-x="995" d="M905 731 L905 653 L654 504 Q786 467 876 358 Q968 243 968 100 Q968 85 965 71 L999 71 L999 0 L979 0 L951 35 L948 35 Q920 0 878 0 L711 0 Q708 -116 635 -179 Q564 -239 446 -239 L335 -239 Q209 -239 137 -171 Q69 -107 69 9 L69 140 L112 174 L154 174 L154 11 Q154 -88 206 -128 Q258 -168 387 -168 Q510 -168 560 -138 Q623 -99 626 0 L550 0 L515 43 L515 71 L844 71 Q882 71 882 105 Q882 236 780 335 Q694 418 580 434 Q574 434 574 441 L574 540 L905 731 Z M329 -297 Q350 -297 364 -311.5 Q378 -326 378 -347 Q378 -367 364 -381.5 Q350 -396 329 -396 Q309 -396 294.5 -381.5 Q280 -367 280 -347 Q280 -326 294.5 -311.5 Q309 -297 329 -297 Z M451 -297 Q471 -297 485.5 -311.5 Q500 -326 500 -347 Q500 -367 485.5 -381.5 Q471 -396 451 -396 Q430 -396 415.5 -381.5 Q401 -367 401 -347 Q401 -326 415.5 -311.5 Q430 -297 451 -297 Z " />
<glyph glyph-name="uniFC95" unicode="&#xfc95;" horiz-adv-x="1021" d="M974 460 L974 95 Q974 83 972 71 L1025 71 L1025 0 L986 0 L957 35 L954 35 Q926 0 884 0 L711 0 Q709 -105 648 -167 Q576 -239 446 -239 L335 -239 Q210 -239 139 -173 Q69 -108 69 9 L69 140 L112 174 L154 174 L154 11 Q154 -88 206 -128 Q258 -168 387 -168 Q510 -168 560 -137 Q623 -99 626 0 L550 0 L515 43 L515 71 L852 71 Q889 71 889 109 L889 460 L974 460 Z M804 -104 Q824 -104 838.5 -118.5 Q853 -133 853 -153 Q853 -174 838.5 -188.5 Q824 -203 804 -203 Q783 -203 768.5 -188.5 Q754 -174 754 -153 Q754 -133 768.5 -118.5 Q783 -104 804 -104 Z M925 -104 Q946 -104 960 -118.5 Q974 -133 974 -153 Q974 -174 960 -188.5 Q946 -203 925 -203 Q905 -203 890.5 -188.5 Q876 -174 876 -153 Q876 -133 890.5 -118.5 Q905 -104 925 -104 Z " />
<glyph glyph-name="uniFC96" unicode="&#xfc96;" horiz-adv-x="1021" d="M974 460 L974 95 Q974 83 972 71 L1025 71 L1025 0 L986 0 L957 35 L954 35 Q926 0 884 0 L711 0 Q709 -105 648 -167 Q576 -239 446 -239 L335 -239 Q210 -239 139 -173 Q69 -108 69 9 L69 140 L112 174 L154 174 L154 11 Q154 -88 206 -128 Q258 -168 387 -168 Q510 -168 560 -137 Q623 -99 626 0 L550 0 L515 43 L515 71 L852 71 Q889 71 889 109 L889 460 L974 460 Z M804 -104 Q824 -104 838.5 -118.5 Q853 -133 853 -153 Q853 -174 838.5 -188.5 Q824 -203 804 -203 Q783 -203 768.5 -188.5 Q754 -174 754 -153 Q754 -133 768.5 -118.5 Q783 -104 804 -104 Z M925 -104 Q946 -104 960 -118.5 Q974 -133 974 -153 Q974 -174 960 -188.5 Q946 -203 925 -203 Q905 -203 890.5 -188.5 Q876 -174 876 -153 Q876 -133 890.5 -118.5 Q905 -104 925 -104 Z M329 -297 Q350 -297 364 -311.5 Q378 -326 378 -347 Q378 -367 364 -381.5 Q350 -396 329 -396 Q309 -396 294.5 -381.5 Q280 -367 280 -347 Q280 -326 294.5 -311.5 Q309 -297 329 -297 Z M451 -297 Q471 -297 485.5 -311.5 Q500 -326 500 -347 Q500 -367 485.5 -381.5 Q471 -396 451 -396 Q430 -396 415.5 -381.5 Q401 -367 401 -347 Q401 -326 415.5 -311.5 Q430 -297 451 -297 Z " />
<glyph glyph-name="uniFD3E" unicode="&#xfd3e;" horiz-adv-x="550" d="M391 716 L418 695 Q339 584 312 438 L377 438 L321 383 L275 429 L228 383 L171 438 L236 438 Q264 598 362 716 L391 716 Z M113 380 L169 324 L125 278 L169 234 L113 177 L113 241 L37 270 L37 288 L113 316 L113 380 Z M438 380 L438 316 L513 288 L513 270 L438 241 L438 177 L381 232 L426 278 L381 324 L438 380 Z M275 335 L329 280 L275 226 L221 280 L275 335 Z M321 175 L377 120 L315 120 Q337 28 408 -85 L381 -106 L353 -106 Q269 -9 237 120 L171 120 L228 175 L275 129 L321 175 Z " />
<glyph glyph-name="uniFD3F" unicode="&#xfd3f;" horiz-adv-x="550" d="M159 716 L188 716 Q286 598 314 438 L379 438 L321 383 L275 429 L228 383 L173 438 L238 438 Q211 583 132 695 L159 716 Z M112 380 L169 324 L124 278 L169 232 L112 177 L112 241 L37 270 L37 288 L112 316 L112 380 Z M437 380 L437 316 L513 288 L513 270 L437 241 L437 177 L381 234 L425 278 L381 324 L437 380 Z M275 335 L329 280 L275 226 L221 280 L275 335 Z M321 175 L379 120 L313 120 Q280 -10 197 -106 L169 -106 L141 -85 Q213 26 235 120 L173 120 L228 175 L275 129 L321 175 Z " />
<glyph glyph-name="uniFDF2" unicode="&#xfdf2;" horiz-adv-x="1340" d="M740 1090 L740 899 L718 881 L696 881 L696 1090 L740 1090 Z M840 842 L840 732 Q840 713 828 700 Q815 685 793 685 L746 685 L733 699 L732 699 Q729 695 724 691 Q714 685 704 685 L643 685 Q622 685 609 699 Q596 712 596 732 L596 800 L618 818 L639 818 L639 735 Q639 729 642 726 Q647 720 653 720 L682 720 Q688 720 693 725 Q696 729 696 735 L696 818 L740 818 L740 720 L783 720 Q790 720 793 725 Q797 729 797 735 L797 842 L840 842 Z M1271 762 L1271 10 L1227 -25 L1186 -25 L1186 762 L1271 762 Z M1049 613 L1049 95 Q1049 54 1022 27 Q995 0 959 0 L778 0 L745 35 L742 35 Q731 21 713 10 Q693 0 672 0 L484 0 Q438 0 411 35 Q345 -11 276 -11 Q191 -11 130 43 Q55 109 55 231 Q55 340 127 412 Q191 477 284 477 Q337 477 391 453 L434 488 L476 488 L476 109 Q476 91 486 81 Q495 71 506 71 L640 71 Q656 71 666 82 Q677 92 677 109 L677 613 L763 613 L763 95 Q763 83 760 71 L926 71 Q944 71 955 83 Q964 93 964 109 L964 613 L1049 613 Z M391 383 Q347 405 302 405 Q226 405 179 345 Q140 296 140 229 Q140 151 181 105 Q219 61 278 61 Q332 61 391 90 L391 383 Z " />
<glyph glyph-name="uniFDFA" unicode="&#xfdfa;" horiz-adv-x="618" d="M324 690 Q322 685 316 685 Q310 685 310 697 Q310 705 313 709 L315 709 Q313 705 313 702 Q313 693 320 693 Q324 693 324 700 Q324 703 323 709 L327 713 Q329 706 329 696 Q331 694 333 694 Q337 694 337 698 Q337 700 336 704 Q334 709 334 711 Q334 715 336 716 L337 716 Q337 714 339 709 Q342 704 342 697 Q342 687 332 687 Q327 687 324 690 Z M218 659 L214 661 Q248 676 255 688 Q242 695 242 701 Q242 715 259 715 Q267 715 267 705 Q267 698 264 691 L270 689 L268 683 Q265 684 261 685 Q260 686 259 686 Q248 671 218 659 Z M501 243 Q524 247 568 270 Q569 270 570 271 L573 268 L565 234 Q520 205 464 205 Q411 205 396 236 Q387 207 361 207 Q334 207 327 234 Q282 187 249 187 Q239 187 228 190 L228 146 Q228 111 268 111 Q305 111 404 148 Q408 150 412 151 Q462 170 473 170 Q492 170 492 147 Q492 120 454 92 L450 98 Q474 118 474 133 Q474 140 467 140 Q462 140 454 138 Q438 133 394 117 Q302 82 266 82 Q241 82 229 96 Q231 68 240 58 Q277 41 277 37 Q277 30 271.5 22 Q266 14 262 14 Q257 14 246 20 Q226 30 210 30 Q192 30 155 9 Q116 -12 98 -12 Q78 -12 65.5 7.5 Q53 27 53 58 Q53 89 70.5 114.5 Q88 140 115 149 L117 149 L119 145 Q98 137 82.5 111.5 Q67 86 67 59 Q67 16 96 16 Q120 16 161 39 Q195 58 212 61 Q208 78 208 109 L208 197 Q186 212 171 245 Q168 243 156 224 Q119 162 94 162 Q74 162 61.5 182 Q49 202 49 233 Q49 263 66.5 289 Q84 315 111 324 L113 324 L114 319 Q94 312 78.5 286 Q63 260 63 233 Q63 191 92 191 Q114 191 135 222 Q137 226 145 240 Q166 272 176 272 Q184 272 191 256 L192 255 Q200 237 208 231 L208 346 L152 345 Q53 345 53 385 Q53 421 90 439 Q98 443 116 451 Q162 470 162 497 L161 684 Q161 697 179 713 L181 713 L182 494 Q182 461 208 445 L208 483 Q208 499 227 511 L229 511 Q229 510 229 436 Q230 436 234 436 Q242 435 246 435 Q317 435 386 466 L386 490 Q386 504 406 518 L407 518 L408 476 Q428 487 435 487 Q441 487 441 481 Q441 478 438 470 Q437 466 437 461 Q437 447 450 440 Q482 515 524 515 Q543 515 557 502.5 Q571 490 571 473 Q571 446 542 425.5 Q513 405 474 405 Q459 405 448 410 Q445 406 440 399 Q438 396 436 393 L433 393 Q434 404 438 416 Q422 429 418 455 L408 449 L408 379 L531 382 Q575 382 575 355 Q575 343 565 330 L561 331 Q561 353 531 353 L408 350 L408 282 Q408 238 468 238 Q454 259 454 279 Q454 302 469.5 319 Q485 336 505 336 Q532 336 560 313 L558 304 Q539 309 523 309 Q488 309 473 284 Q475 260 501 243 Z M452 515 L448 515 L443 684 Q441 687 441 690 Q441 703 451 713 L454 713 Q474 684 474 655 Q474 654 473 653 L472 653 L462 663 L466 551 Q466 526 452 515 Z M247 702 Q250 699 258 695 Q259 699 259 702 Q259 707 255 707 Q252 707 247 702 Z M267 618 Q264 612 259 589 Q247 530 230 530 Q205 530 205 592 Q205 611 208 626 L209 626 L211 623 Q210 614 210 608 Q210 556 230 556 Q241 556 253 606 Q264 652 277 652 Q282 652 282 641 Q282 633 280 617 Q277 605 277 593 Q277 557 295 557 Q330 557 330 613 Q330 637 326 657 Q328 670 340 680 L342 680 Q349 662 348 605 Q348 598 348 593 Q348 556 373 556 Q397 556 407 577 Q406 590 395 623 Q382 660 382 663 Q382 667 388 678 Q390 681 391 682 L393 682 L395 680 Q396 678 397 678 Q415 655 416 649 L415 648 L407 651 Q409 640 415 622 Q422 598 422 585 Q422 563 409 546.5 Q396 530 377 530 Q343 530 334 563 Q323 530 297 530 Q264 530 264 588 Q264 602 267 618 Z M251 460 L258 472 Q263 474 278 480 Q335 501 374 509 L368 497 Q334 492 266 465 Q257 462 251 460 Z M547 461 Q541 485 524 485 Q494 485 466 436 Q472 436 478 436 Q523 436 547 461 Z M208 375 L208 411 Q173 421 164 456 Q152 437 109 422 Q75 410 70 398 Q79 374 169 374 L208 375 Z M229 406 L229 375 Q261 375 331 378 Q364 379 386 379 L386 437 Q320 406 244 406 Q234 406 229 406 Z M346 250 Q354 239 366 239 Q393 239 390 297 Q390 304 390 307 Q390 328 389 350 L228 346 L228 219 Q238 214 249 214 Q283 214 326 262 Q332 268 336 268 Q340 268 344 256 Q346 252 346 250 Z M252 269 L258 280 Q264 283 279 288 Q336 310 375 318 L368 306 Q336 301 274 277 Q260 272 252 269 Z M126 309 L129 309 Q123 292 123 280 Q123 269 128 269 Q133 269 135 276 L136 276 Q136 254 122 254 Q113 254 113 271 Q113 294 126 309 Z M340 175 L354 189 L375 170 L354 148 L340 163 L325 148 L306 170 L325 189 L340 175 Z M552 85 Q547 88 531 90 Q498 95 498 116 Q498 135 510 150 Q522 165 537 165 Q572 165 572 111 Q572 65 538 26.5 Q504 -12 464 -12 Q444 -12 430 2 Q416 16 416 37 Q416 69 442 91 L445 85 Q431 73 431 54 Q431 17 465 17 Q488 17 512.5 36 Q537 55 552 85 Z M554 116 Q553 116 551 121 Q542 138 532 138 Q517 138 517 127 Q517 122 535 119 Q548 117 554 116 Z M124 96 Q120 93 117 93 Q112 93 112 102 Q112 112 121 112 Q127 112 134 101 Q137 117 147 117 Q155 117 155 110 Q155 107 153 102 L153 98 L152 98 Q151 103 148 104 Q140 104 138 77 L136 75 Q136 96 124 96 Z M335 51 L335 53 Q340 51 346 51 Q356 51 366 58 Q354 64 346 64 Q343 64 341 63 L339 64 Q339 75 354 75 Q357 75 364 73 Q372 70 377 69 Q383 69 383 67 Q383 60 373 52.5 Q363 45 352 45 Q343 45 335 51 Z M386 22 L394 29 Q399 23 399 10 Q399 -1 387 -1 Q380 -1 376 5 Q372 -1 365 -1 Q358 -1 355 5 Q343 -2 319 -2 Q307 -2 292 0 L292 2 Q298 2 303 2 Q347 2 358 19 L360 19 Q360 10 367 10 Q375 10 375 21 L377 21 Q377 10 390 10 Q388 21 386 22 Z " />
<glyph glyph-name="uniFDFC" unicode="&#xfdfc;" horiz-adv-x="1656" d="M711 716 L711 9 Q711 -111 638 -176 Q567 -239 446 -239 L335 -239 Q216 -239 145 -178 Q69 -113 69 9 L69 218 L112 253 L154 253 L154 11 Q154 -89 206.5 -128.5 Q259 -168 391 -168 Q515 -168 566 -134 Q626 -93 626 11 L626 716 L711 716 Z M957 716 L957 109 Q957 93 968 82 Q979 71 995 71 L1143 71 Q1160 71 1171 83 Q1181 93 1181 109 L1181 460 L1266 460 L1266 95 Q1266 58 1242 31 Q1215 0 1176 0 L963 0 Q931 0 906 21 Q872 50 872 95 L872 716 L957 716 Z M1587 460 L1587 9 Q1587 -102 1524 -166 Q1475 -216 1392 -232 Q1361 -238 1322 -238 Q1297 -238 1276 -237 L1243 -196 L1243 -164 Q1272 -168 1306 -168 Q1502 -168 1502 12 L1502 460 L1587 460 Z M1010 -104 Q1030 -104 1044.5 -118.5 Q1059 -133 1059 -153 Q1059 -174 1044.5 -188.5 Q1030 -203 1010 -203 Q989 -203 975 -188.5 Q961 -174 961 -153 Q961 -133 975.5 -118.5 Q990 -104 1010 -104 Z M1131 -104 Q1152 -104 1166.5 -118.5 Q1181 -133 1181 -153 Q1181 -174 1166.5 -188.5 Q1152 -203 1131 -203 Q1111 -203 1096.5 -188.5 Q1082 -174 1082 -153 Q1082 -133 1096.5 -118.5 Q1111 -104 1131 -104 Z " />
</font>
</svg>
