<?xml version="1.0" encoding="UTF-8" standalone="no"?>
<svg width="1254px" height="200px" viewBox="0 0 1254 200" version="1.1" xmlns="http://www.w3.org/2000/svg" xmlns:xlink="http://www.w3.org/1999/xlink" xmlns:sketch="http://www.bohemiancoding.com/sketch/ns">
    <!-- Generator: Sketch 3.3.3 (12081) - http://www.bohemiancoding.com/sketch -->
    <title>odoo_logo</title>
    <desc>Created with Sketch.</desc>
    <defs></defs>
    <g id="Page-1" stroke="none" stroke-width="1" fill="none" fill-rule="evenodd" sketch:type="MSPage">
        <g id="odoo_logo" sketch:type="MSArtboardGroup">
            <g id="odoo_logo_rgb" sketch:type="MSLayerGroup" transform="translate(0.000000, 1.000000)">
                <path d="M550.5,198.865327 C592.197499,198.865327 626,165.062825 626,123.365327 C626,81.667828 592.197499,47.8653266 550.5,47.8653266 C508.802501,47.8653266 475,81.667828 475,123.365327 C475,165.062825 508.802501,198.865327 550.5,198.865327 Z M550.5,167.865327 C575.076671,167.865327 595,147.941998 595,123.365327 C595,98.7886553 575.076671,78.8653266 550.5,78.8653266 C525.923329,78.8653266 506,98.7886553 506,123.365327 C506,147.941998 525.923329,167.865327 550.5,167.865327 Z" id="Oval-3" fill="#888888" sketch:type="MSShapeGroup"></path>
                <path d="M390.5,198.865327 C432.197499,198.865327 466,165.062825 466,123.365327 C466,81.667828 432.197499,47.8653266 390.5,47.8653266 C348.802501,47.8653266 315,81.667828 315,123.365327 C315,165.062825 348.802501,198.865327 390.5,198.865327 Z M390.5,167.865327 C415.076671,167.865327 435,147.941998 435,123.365327 C435,98.7886553 415.076671,78.8653266 390.5,78.8653266 C365.923329,78.8653266 346,98.7886553 346,123.365327 C346,147.941998 365.923329,167.865327 390.5,167.865327 Z" id="Oval-2" fill="#888888" sketch:type="MSShapeGroup"></path>
                <g id="D" transform="translate(157.000000, 0.000000)" fill="#888888" sketch:type="MSShapeGroup">
                    <g id="d-+-Rectangle-1">
                        <path d="M151.130367,122.770274 C151.131897,122.968444 151.132663,123.166796 151.132663,123.365327 C151.132663,165.062825 117.330162,198.865327 75.6326633,198.865327 C33.9351647,198.865327 0.132663317,165.062825 0.132663317,123.365327 C0.132663317,81.667828 33.9351647,47.8653266 75.6326633,47.8653266 C92.7270283,47.8653266 108.494494,53.5464573 121.149994,63.1236518 L121.149994,15.0040777 C121.149994,6.71755439 127.863901,0 136.149994,0 C144.434265,0 151.149994,6.72381102 151.149994,15.0040777 L151.149994,121.995922 C151.149994,122.255634 151.143399,122.513804 151.130367,122.770274 L151.130367,122.770274 Z M75.6326633,167.865327 C100.209335,167.865327 120.132663,147.941998 120.132663,123.365327 C120.132663,98.7886553 100.209335,78.8653266 75.6326633,78.8653266 C51.055992,78.8653266 31.1326633,98.7886553 31.1326633,123.365327 C31.1326633,147.941998 51.055992,167.865327 75.6326633,167.865327 Z" id="d"></path>
                    </g>
                </g>
                <path d="M76.1924623,198.697487 C117.889961,198.697487 151.692462,164.894986 151.692462,123.197487 C151.692462,81.4999888 117.889961,47.6974874 76.1924623,47.6974874 C34.4949637,47.6974874 0.692462312,81.4999888 0.692462312,123.197487 C0.692462312,164.894986 34.4949637,198.697487 76.1924623,198.697487 Z M75.5,168 C100.076671,168 120,148.076671 120,123.5 C120,98.9233286 100.076671,79 75.5,79 C50.9233286,79 31,98.9233286 31,123.5 C31,148.076671 50.9233286,168 75.5,168 Z" id="Oval-1" fill="#9C5789" sketch:type="MSShapeGroup"></path>
            </g>
            <g id="odoo_logo_white" sketch:type="MSLayerGroup" transform="translate(627.000000, 1.000000)" fill="#FFFFFF">
                <path d="M550.5,198.865327 C592.197499,198.865327 626,165.062825 626,123.365327 C626,81.667828 592.197499,47.8653266 550.5,47.8653266 C508.802501,47.8653266 475,81.667828 475,123.365327 C475,165.062825 508.802501,198.865327 550.5,198.865327 Z M550.5,167.865327 C575.076671,167.865327 595,147.941998 595,123.365327 C595,98.7886553 575.076671,78.8653266 550.5,78.8653266 C525.923329,78.8653266 506,98.7886553 506,123.365327 C506,147.941998 525.923329,167.865327 550.5,167.865327 Z" id="Oval-3" sketch:type="MSShapeGroup"></path>
                <path d="M390.5,198.865327 C432.197499,198.865327 466,165.062825 466,123.365327 C466,81.667828 432.197499,47.8653266 390.5,47.8653266 C348.802501,47.8653266 315,81.667828 315,123.365327 C315,165.062825 348.802501,198.865327 390.5,198.865327 Z M390.5,167.865327 C415.076671,167.865327 435,147.941998 435,123.365327 C435,98.7886553 415.076671,78.8653266 390.5,78.8653266 C365.923329,78.8653266 346,98.7886553 346,123.365327 C346,147.941998 365.923329,167.865327 390.5,167.865327 Z" id="Oval-2" sketch:type="MSShapeGroup"></path>
                <g id="D" transform="translate(157.000000, 0.000000)" sketch:type="MSShapeGroup">
                    <g id="d-+-Rectangle-1">
                        <path d="M151.130367,122.770274 C151.131897,122.968444 151.132663,123.166796 151.132663,123.365327 C151.132663,165.062825 117.330162,198.865327 75.6326633,198.865327 C33.9351647,198.865327 0.132663317,165.062825 0.132663317,123.365327 C0.132663317,81.667828 33.9351647,47.8653266 75.6326633,47.8653266 C92.7270283,47.8653266 108.494494,53.5464573 121.149994,63.1236518 L121.149994,15.0040777 C121.149994,6.71755439 127.863901,0 136.149994,0 C144.434265,0 151.149994,6.72381102 151.149994,15.0040777 L151.149994,121.995922 C151.149994,122.255634 151.143399,122.513804 151.130367,122.770274 L151.130367,122.770274 Z M75.6326633,167.865327 C100.209335,167.865327 120.132663,147.941998 120.132663,123.365327 C120.132663,98.7886553 100.209335,78.8653266 75.6326633,78.8653266 C51.055992,78.8653266 31.1326633,98.7886553 31.1326633,123.365327 C31.1326633,147.941998 51.055992,167.865327 75.6326633,167.865327 Z" id="d"></path>
                    </g>
                </g>
                <path d="M76.1924623,198.697487 C117.889961,198.697487 151.692462,164.894986 151.692462,123.197487 C151.692462,81.4999888 117.889961,47.6974874 76.1924623,47.6974874 C34.4949637,47.6974874 0.692462312,81.4999888 0.692462312,123.197487 C0.692462312,164.894986 34.4949637,198.697487 76.1924623,198.697487 Z M75.5,168 C100.076671,168 120,148.076671 120,123.5 C120,98.9233286 100.076671,79 75.5,79 C50.9233286,79 31,98.9233286 31,123.5 C31,148.076671 50.9233286,168 75.5,168 Z" id="Oval-1" sketch:type="MSShapeGroup"></path>
            </g>
        </g>
    </g>
</svg>