<svg width="50" height="50" viewBox="0 0 50 50" xmlns="http://www.w3.org/2000/svg"><path d="M0 42V8l25 17L0 42Z" fill="var(--o-icons-cyan-cyan, #0382F3)"/><path d="M0 42V8l25 17L0 42Z" fill="url(#o_icon_website_mass_mailing__a)" fill-opacity=".2"/><path d="M25 25 0 8h50L25 25Z" fill="var(--o-icons-cyan-pure, #1BB6F9)"/><path d="M25 25 0 8h50L25 25Z" fill="url(#o_icon_website_mass_mailing__b)" fill-opacity=".2"/><path d="M50 8 0 42h46a4 4 0 0 0 4-4V8Z" fill="var(--o-icons-purple-cyan, #102E7A)"/><path d="M50 8 0 42h46a4 4 0 0 0 4-4V8Z" fill="url(#o_icon_website_mass_mailing__c)" fill-opacity=".3"/><defs><linearGradient id="o_icon_website_mass_mailing__a" x1="0" y1="8" x2="30.229" y2="13.557" gradientUnits="userSpaceOnUse"><stop stop-color="#fff"/><stop offset="1" stop-color="#fff" stop-opacity="0"/></linearGradient><linearGradient id="o_icon_website_mass_mailing__b" x1="0" y1="8" x2="40.567" y2="37.829" gradientUnits="userSpaceOnUse"><stop stop-color="#fff"/><stop offset="1" stop-color="#fff" stop-opacity="0"/></linearGradient><linearGradient id="o_icon_website_mass_mailing__c" x1="0" y1="8" x2="55.058" y2="28.242" gradientUnits="userSpaceOnUse"><stop stop-color="#fff"/><stop offset="1" stop-color="#fff" stop-opacity="0"/></linearGradient></defs></svg>
