<svg width="50" height="50" viewBox="0 0 50 50" xmlns="http://www.w3.org/2000/svg"><path d="M16 38c3 0 6-1 6-5s-2.306-6-6-6a3 3 0 0 1 3-3h4c3.593 1.3 6 4 6 9 0 8-6 11-13 11S4 41 4 33h7c0 3 2 5 5 5Z" fill="#985184"/><path d="M23 24h-5a2 2 0 0 1-2-2c4 0 5-3 5-5 0-3-1.964-5-5-5-3 0-5 2-5 4H4C4 9.616 10 6 16 6s12 4 12 10-5 8-5 8Z" fill="#FBB945"/><path d="m23 24-7 3h-4v-2c0-2 1-3 4-3l7 2Z" fill="#FC868B"/><path d="M46 11v33h-3c-2 0-4-2-4-4V14l7-3Z" fill="#FBB945"/><path d="m39 7.334-7 4.667-1 6 8-4V7.334Z" fill="#985184"/><path d="M39 7.333 41 6h1c2 0 4 2 4 4v1l-7 3V7.333Z" fill="#FC868B"/></svg>
