<svg width="70" height="70" viewBox="0 0 70 70" fill="none" xmlns="http://www.w3.org/2000/svg">
<path d="M26 48C29 48 32 47 32 43C32 39 29.6943 37 26 37C26 35.3431 27.3431 34 29 34H33C36.5931 35.2996 39 38 39 43C39 51 33 54 26 54C19 54 14 51 14 43H21C21 46 23 48 26 48Z" fill="#985184"/>
<path d="M33 34H28C26.8954 34 26 33.1046 26 32C30 32 31 29 31 27C31 24 29.0364 22 26 22C23 22 21 24 21 26H14C14 19.6163 20 16 26 16C32 16 38 20 38 26C38 32 33 34 33 34Z" fill="#FBB945"/>
<path d="M33 34L26 37H22V35C22 33 23 32 26 32L33 34Z" fill="#FC868B"/>
<path d="M56 21V54H53C51 54 49 52 49 50V24L56 21Z" fill="#FBB945"/>
<path d="M49 17.333L42 21.9999L41 27.9999L49 23.9999V17.333Z" fill="#985184"/>
<path d="M49 17.3333L51 16H52C54 16 56 18 56 20V21L49 24V17.3333Z" fill="#FC868B"/>
</svg>
