<svg xmlns="http://www.w3.org/2000/svg" xmlns:xlink="http://www.w3.org/1999/xlink" width="70" height="70" viewBox="0 0 70 70">
    <defs>
        <path id="icon-a" d="M4,5.35309892e-14 C36.4160122,9.87060235e-15 58.0836068,-3.97961823e-14 65,5.07020818e-14 C69,6.733808e-14 70,1 70,5 C70,43.0488877 70,62.4235458 70,65 C70,69 69,70 65,70 C61,70 9,70 4,70 C1,70 7.10542736e-15,69 7.10542736e-15,65 C7.25721566e-15,62.4676575 3.83358709e-14,41.8005206 3.60818146e-14,5 C-1.13686838e-13,1 1,5.75716207e-14 4,5.35309892e-14 Z"/>
        <linearGradient id="icon-c" x1="100%" x2="0%" y1="0%" y2="100%">
            <stop offset="0%" stop-color="#CDC484"/>
            <stop offset="100%" stop-color="#B5AA59"/>
        </linearGradient>
        <path id="icon-d" d="M28.3839286,37.7083333 L24.9017857,37.7083333 C24.3272321,37.7083333 23.8571429,37.2513021 23.8571429,36.6927083 L23.8571429,33.3072917 C23.8571429,32.7486979 24.3272321,32.2916667 24.9017857,32.2916667 L28.3839286,32.2916667 C28.9584821,32.2916667 29.4285714,32.7486979 29.4285714,33.3072917 L29.4285714,36.6927083 C29.4285714,37.2513021 28.9584821,37.7083333 28.3839286,37.7083333 Z M37.7857143,36.6927083 L37.7857143,33.3072917 C37.7857143,32.7486979 37.315625,32.2916667 36.7410714,32.2916667 L33.2589286,32.2916667 C32.684375,32.2916667 32.2142857,32.7486979 32.2142857,33.3072917 L32.2142857,36.6927083 C32.2142857,37.2513021 32.684375,37.7083333 33.2589286,37.7083333 L36.7410714,37.7083333 C37.315625,37.7083333 37.7857143,37.2513021 37.7857143,36.6927083 Z M46.1428571,36.6927083 L46.1428571,33.3072917 C46.1428571,32.7486979 45.6727679,32.2916667 45.0982143,32.2916667 L41.6160714,32.2916667 C41.0415179,32.2916667 40.5714286,32.7486979 40.5714286,33.3072917 L40.5714286,36.6927083 C40.5714286,37.2513021 41.0415179,37.7083333 41.6160714,37.7083333 L45.0982143,37.7083333 C45.6727679,37.7083333 46.1428571,37.2513021 46.1428571,36.6927083 Z M37.7857143,44.8177083 L37.7857143,41.4322917 C37.7857143,40.8736979 37.315625,40.4166667 36.7410714,40.4166667 L33.2589286,40.4166667 C32.684375,40.4166667 32.2142857,40.8736979 32.2142857,41.4322917 L32.2142857,44.8177083 C32.2142857,45.3763021 32.684375,45.8333333 33.2589286,45.8333333 L36.7410714,45.8333333 C37.315625,45.8333333 37.7857143,45.3763021 37.7857143,44.8177083 Z M29.4285714,44.8177083 L29.4285714,41.4322917 C29.4285714,40.8736979 28.9584821,40.4166667 28.3839286,40.4166667 L24.9017857,40.4166667 C24.3272321,40.4166667 23.8571429,40.8736979 23.8571429,41.4322917 L23.8571429,44.8177083 C23.8571429,45.3763021 24.3272321,45.8333333 24.9017857,45.8333333 L28.3839286,45.8333333 C28.9584821,45.8333333 29.4285714,45.3763021 29.4285714,44.8177083 Z M46.1428571,44.8177083 L46.1428571,41.4322917 C46.1428571,40.8736979 45.6727679,40.4166667 45.0982143,40.4166667 L41.6160714,40.4166667 C41.0415179,40.4166667 40.5714286,40.8736979 40.5714286,41.4322917 L40.5714286,44.8177083 C40.5714286,45.3763021 41.0415179,45.8333333 41.6160714,45.8333333 L45.0982143,45.8333333 C45.6727679,45.8333333 46.1428571,45.3763021 46.1428571,44.8177083 Z M54.5,22.8125 L54.5,52.6041667 C54.5,54.8470052 52.6283482,56.6666667 50.3214286,56.6666667 L19.6785714,56.6666667 C17.3716518,56.6666667 15.5,54.8470052 15.5,52.6041667 L15.5,22.8125 C15.5,20.5696615 17.3716518,18.75 19.6785714,18.75 L23.8571429,18.75 L23.8571429,14.3489583 C23.8571429,13.7903646 24.3272321,13.3333333 24.9017857,13.3333333 L28.3839286,13.3333333 C28.9584821,13.3333333 29.4285714,13.7903646 29.4285714,14.3489583 L29.4285714,18.75 L40.5714286,18.75 L40.5714286,14.3489583 C40.5714286,13.7903646 41.0415179,13.3333333 41.6160714,13.3333333 L45.0982143,13.3333333 C45.6727679,13.3333333 46.1428571,13.7903646 46.1428571,14.3489583 L46.1428571,18.75 L50.3214286,18.75 C52.6283482,18.75 54.5,20.5696615 54.5,22.8125 Z M50.3214286,52.0963542 L50.3214286,26.875 L19.6785714,26.875 L19.6785714,52.0963542 C19.6785714,52.375651 19.9136161,52.6041667 20.2008929,52.6041667 L49.7991071,52.6041667 C50.0863839,52.6041667 50.3214286,52.375651 50.3214286,52.0963542 Z"/>
    </defs>
    <g fill="none" fill-rule="evenodd">
        <mask id="icon-b" fill="#fff">
            <use xlink:href="#icon-a"/>
        </mask>
        <g mask="url(#icon-b)">
            <rect width="70" height="70" fill="url(#icon-c)"/>
            <path fill="#FFF" fill-opacity=".383" d="M4,1.8 L65,1.8 C67.6666667,1.8 69.3333333,1.13333333 70,-0.2 C70,2.46666667 70,3.46666667 70,2.8 L1.10547097e-14,2.8 C-1.65952376e-14,3.46666667 -2.9161925e-14,2.46666667 -2.66453526e-14,-0.2 C0.666666667,1.13333333 2,1.8 4,1.8 Z" transform="matrix(1 0 0 -1 0 2.8)"/>
            <path fill="#393939" d="M43.4796282,58 L3.97692274,58 C1.98846137,58 -7.06443391e-15,57.8520408 0,53.8571429 L2.26109583e-16,28.7421381 L18.1939643,6.70980496 L20,6 L24,0 L29.235775,0.958543565 L30.1559259,9.58543565 L42.1178875,8.51357709e-15 L45.7984911,0 L45.7984911,8 L54,8 L53.7495748,40.7451155 L43.4796282,58 Z" opacity=".324" transform="translate(0 12)"/>
            <path fill="#000" fill-opacity=".383" d="M4,4 L65,4 C67.6666667,4 69.3333333,3 70,1 C70,3.66666667 70,5 70,5 L1.77635684e-15,5 C1.77635684e-15,5 1.77635684e-15,3.66666667 1.77635684e-15,1 C0.666666667,3 2,4 4,4 Z" transform="translate(0 65)"/>
            <use fill="#000" fill-rule="nonzero" opacity=".35" xlink:href="#icon-d"/>
            <path fill="#FFF" fill-rule="nonzero" d="M28.3839286,35.7083333 L24.9017857,35.7083333 C24.3272321,35.7083333 23.8571429,35.2513021 23.8571429,34.6927083 L23.8571429,31.3072917 C23.8571429,30.7486979 24.3272321,30.2916667 24.9017857,30.2916667 L28.3839286,30.2916667 C28.9584821,30.2916667 29.4285714,30.7486979 29.4285714,31.3072917 L29.4285714,34.6927083 C29.4285714,35.2513021 28.9584821,35.7083333 28.3839286,35.7083333 Z M37.7857143,34.6927083 L37.7857143,31.3072917 C37.7857143,30.7486979 37.315625,30.2916667 36.7410714,30.2916667 L33.2589286,30.2916667 C32.684375,30.2916667 32.2142857,30.7486979 32.2142857,31.3072917 L32.2142857,34.6927083 C32.2142857,35.2513021 32.684375,35.7083333 33.2589286,35.7083333 L36.7410714,35.7083333 C37.315625,35.7083333 37.7857143,35.2513021 37.7857143,34.6927083 Z M46.1428571,34.6927083 L46.1428571,31.3072917 C46.1428571,30.7486979 45.6727679,30.2916667 45.0982143,30.2916667 L41.6160714,30.2916667 C41.0415179,30.2916667 40.5714286,30.7486979 40.5714286,31.3072917 L40.5714286,34.6927083 C40.5714286,35.2513021 41.0415179,35.7083333 41.6160714,35.7083333 L45.0982143,35.7083333 C45.6727679,35.7083333 46.1428571,35.2513021 46.1428571,34.6927083 Z M37.7857143,42.8177083 L37.7857143,39.4322917 C37.7857143,38.8736979 37.315625,38.4166667 36.7410714,38.4166667 L33.2589286,38.4166667 C32.684375,38.4166667 32.2142857,38.8736979 32.2142857,39.4322917 L32.2142857,42.8177083 C32.2142857,43.3763021 32.684375,43.8333333 33.2589286,43.8333333 L36.7410714,43.8333333 C37.315625,43.8333333 37.7857143,43.3763021 37.7857143,42.8177083 Z M29.4285714,42.8177083 L29.4285714,39.4322917 C29.4285714,38.8736979 28.9584821,38.4166667 28.3839286,38.4166667 L24.9017857,38.4166667 C24.3272321,38.4166667 23.8571429,38.8736979 23.8571429,39.4322917 L23.8571429,42.8177083 C23.8571429,43.3763021 24.3272321,43.8333333 24.9017857,43.8333333 L28.3839286,43.8333333 C28.9584821,43.8333333 29.4285714,43.3763021 29.4285714,42.8177083 Z M46.1428571,42.8177083 L46.1428571,39.4322917 C46.1428571,38.8736979 45.6727679,38.4166667 45.0982143,38.4166667 L41.6160714,38.4166667 C41.0415179,38.4166667 40.5714286,38.8736979 40.5714286,39.4322917 L40.5714286,42.8177083 C40.5714286,43.3763021 41.0415179,43.8333333 41.6160714,43.8333333 L45.0982143,43.8333333 C45.6727679,43.8333333 46.1428571,43.3763021 46.1428571,42.8177083 Z M54.5,20.8125 L54.5,50.6041667 C54.5,52.8470052 52.6283482,54.6666667 50.3214286,54.6666667 L19.6785714,54.6666667 C17.3716518,54.6666667 15.5,52.8470052 15.5,50.6041667 L15.5,20.8125 C15.5,18.5696615 17.3716518,16.75 19.6785714,16.75 L23.8571429,16.75 L23.8571429,12.3489583 C23.8571429,11.7903646 24.3272321,11.3333333 24.9017857,11.3333333 L28.3839286,11.3333333 C28.9584821,11.3333333 29.4285714,11.7903646 29.4285714,12.3489583 L29.4285714,16.75 L40.5714286,16.75 L40.5714286,12.3489583 C40.5714286,11.7903646 41.0415179,11.3333333 41.6160714,11.3333333 L45.0982143,11.3333333 C45.6727679,11.3333333 46.1428571,11.7903646 46.1428571,12.3489583 L46.1428571,16.75 L50.3214286,16.75 C52.6283482,16.75 54.5,18.5696615 54.5,20.8125 Z M50.3214286,50.0963542 L50.3214286,24.875 L19.6785714,24.875 L19.6785714,50.0963542 C19.6785714,50.375651 19.9136161,50.6041667 20.2008929,50.6041667 L49.7991071,50.6041667 C50.0863839,50.6041667 50.3214286,50.375651 50.3214286,50.0963542 Z"/>
        </g>
    </g>
</svg>
