<?xml version="1.0" encoding="UTF-8"?> <svg xmlns="http://www.w3.org/2000/svg" viewBox="0 0 500 388.25"><defs><style>.cls-1{fill:#d6d8e5;opacity:0.4;}.cls-2{fill:#2b303f;}.cls-3{fill:#333a47;}.cls-4{fill:#ebeefc;}.cls-5{fill:#414854;}.cls-6{fill:#cfd3e2;}.cls-7{fill:#38226d;}.cls-8{fill:#9c73ff;}.cls-14,.cls-9{fill:#3AADAA;}.cls-10{fill:#ffcea9;}.cls-11{fill:#f4f4f4;}.cls-12{fill:#3a2c6d;}.cls-13{fill:#ededed;}.cls-14{opacity:0.2;}.cls-15{opacity:0.7;}</style></defs><title>Virtual_reality_SVG</title><g id="Слой_2" data-name="Слой 2"><g id="Слой_1-2" data-name="Слой 1"><path class="cls-1" d="M291.13,274.08,137.22,188c-6.06-3.5-5.3-9.62,1.7-13.66l62.21-35.92c7-4,17.6-4.48,23.66-1L378.7,223.53c6.07,3.5,5.31,9.61-1.7,13.66L314.79,273.1C307.79,277.15,297.2,277.59,291.13,274.08Z"></path><path class="cls-1" d="M343.72,213.61c-36.84,0-73.67-8.09-101.72-24.28-27.59-15.93-42.79-37.25-42.79-60s15.2-44.08,42.79-60c56.08-32.39,147.34-32.38,203.43,0,27.59,15.93,42.79,37.24,42.79,60s-15.2,44.09-42.79,60C417.4,205.52,380.55,213.61,343.72,213.61Zm0-164.2c-36,0-72,7.91-99.48,23.75-26.15,15.1-40.56,35-40.56,56.15s14.41,41.05,40.56,56.15c54.86,31.67,144.12,31.68,199,0,26.16-15.09,40.56-35,40.56-56.15s-14.41-41-40.56-56.15C415.77,57.32,379.74,49.41,343.71,49.41Z"></path><path class="cls-2" d="M233.2,63.43c61-35.24,160-35.24,221,0,22.32,12.89,36.46,28.7,42.46,45.31,10.4-28.8-3.75-60-42.46-82.31-61-35.24-160-35.24-221,0-38.71,22.35-52.86,53.51-42.46,82.3C196.74,92.13,210.88,76.31,233.2,63.43Z"></path><path class="cls-3" d="M500,64.47v-.13h0Z"></path><path class="cls-3" d="M498.46,77.56a61,61,0,0,1-8,18.51c-7.55,11.93-19.62,23.09-36.18,32.66-61,35.24-160,35.24-221,0C216.65,119.16,204.58,108,197,96.09a64.77,64.77,0,0,1-6.25-12.6,55.93,55.93,0,0,0-3,12.64c-2.84,25,12.29,50.6,45.43,69.74,61,35.24,160,35.24,221,0,30.72-17.73,46-41,45.77-64.26V90.23Z"></path><path class="cls-2" d="M427.29,95.78l-2-1.16C387.06,79.91,351.7,82.76,322.63,66S287.29,15.88,275,7.87L267.62,3.6c-6.33-3.66-11.47.22-11.47,8.67V88.76c0,8.45,5.14,18.26,11.47,21.92l159.67,92.18c6.33,3.66,11.47-.22,11.47-8.67V117.7C438.76,109.25,433.62,99.44,427.29,95.78Z"></path><polygon class="cls-2" points="387.04 231.53 435.62 202.87 370.64 155.81 387.04 231.53"></polygon><polygon class="cls-2" points="208.44 33.46 260.64 2.74 271.76 82.25 208.44 33.46"></polygon><path class="cls-4" d="M382.85,228.94,223.19,136.76c-6.34-3.66-11.48-13.47-11.48-21.92V38.35c0-8.45,5.14-12.33,11.48-8.67l159.66,92.18c6.34,3.66,11.47,13.47,11.47,21.92v76.49C394.32,228.72,389.19,232.6,382.85,228.94Z"></path><path class="cls-4" d="M154.82,64.19c1-.3,61.4-35.23,61.4-35.23l55.54,140.37Z"></path><polygon class="cls-4" points="321.51 269.08 390.88 229.32 320.41 113.58 294.74 142.35 271.76 199.07 321.51 269.08"></polygon><path class="cls-2" d="M322.13,263.72,162.47,171.54c-6.34-3.66-11.48-13.47-11.48-21.92V73.13c0-8.45,5.14-12.33,11.48-8.68l159.66,92.19c6.34,3.66,11.48,13.47,11.48,21.92v76.49C333.61,263.5,328.47,267.38,322.13,263.72Z"></path><polygon class="cls-2" points="141.57 71.94 155.31 63.67 155.31 94.33 141.57 71.94"></polygon><polygon class="cls-2" points="315.49 272.78 329.76 264.24 316.06 247.3 315.49 272.78"></polygon><path class="cls-3" d="M308.06,272.14,148.39,180c-6.33-3.66-11.47-13.48-11.47-21.93V81.55c0-8.45,5.14-12.34,11.47-8.68l159.67,92.18c6.33,3.66,11.47,13.48,11.47,21.93v76.48C319.53,271.91,314.39,275.8,308.06,272.14Z"></path><path class="cls-5" d="M303.89,264.07,149.25,174.78c-4.76-2.74-8.61-10.1-8.61-16.44V87.45c0-6.34,3.85-9.25,8.61-6.51l154.64,89.29c4.75,2.74,8.61,10.1,8.61,16.44v70.89C312.5,263.9,308.64,266.81,303.89,264.07Z"></path><path class="cls-6" d="M375.62,219.66l-24.73,14.28c-4,2.29-7.17-.14-7.17-5.42v-26c0-5.28,3.21-11.41,7.17-13.7l24.73-14.28c4-2.29,7.18.14,7.18,5.42v26C382.8,211.24,379.59,217.37,375.62,219.66Z"></path><g id="Men_12"><path class="cls-7" d="M232.41,161.55c-2.17,1.76-5.37.15-5.53.31a96.28,96.28,0,0,1-8,6.67c-1.35,1.06-3.46,2.48-3.07,4.53.68,3.65,6.53,2.53,8.74,1.41s4-3,6.09-4.27c1.49-.92,3-1.4,3.19-3.28C234,165.78,232.79,161.5,232.41,161.55Z"></path><path class="cls-8" d="M233.79,166.16c-.28,1.8-1.73,2.29-3.21,3.21-2.12,1.32-4,3.22-6.2,4.34-2,1-7.12,2.06-8.55-.55.77,3.52,6.52,2.42,8.71,1.31s4-3,6.09-4.27c1.49-.92,3-1.4,3.19-3.28A3.45,3.45,0,0,0,233.79,166.16Z"></path><path class="cls-7" d="M210.41,148.88c-2.17,1.76-6-.16-6.12,0a83.91,83.91,0,0,1-7.15,6.45c-1.36,1.07-3.46,2.49-3.08,4.53.68,3.66,6.53,2.53,8.74,1.42s4-3,6.1-4.27c1.49-.93,2.95-1.41,3.18-3.29C212.22,152.59,210.8,148.83,210.41,148.88Z"></path><path class="cls-8" d="M212,153.22c-.29,1.8-1.74,2.3-3.21,3.22-2.13,1.32-4,3.22-6.2,4.34-2,1-7.13,2.05-8.56-.56.78,3.53,6.53,2.42,8.71,1.31s4-3,6.1-4.26c1.49-.93,2.95-1.41,3.19-3.29A3.47,3.47,0,0,0,212,153.22Z"></path><path id="_Контур_" data-name="&lt;Контур&gt;" class="cls-9" d="M261.4,92c2.41,15-4.27,20.62-12.94,23.81-6.22,2.29-15.14,5.82-15.14,5.82s.12,3.3.19,10.7c.06,6.51-.8,30.29-.8,30.29s-3.59,1.86-6.63-.08c0,0-3.5-18.21-4.24-26.43-1-11.14-2.72-18.43-2.15-20.83.5-2.11,12.68-8.1,16.55-11.3l-25.52,8.54a44.74,44.74,0,0,1,.74,8.39c-.23,8.84-.72,28-.72,28s-3.5,2.53-6.48,0c0,0-6.42-37.89-5.65-42.9.74-4.76,23.23-14.49,27.19-17.84a6.34,6.34,0,0,1,5-1.35Z"></path><path id="_Контур_2" data-name="&lt;Контур&gt;" class="cls-10" d="M252.52,35.51s-.36,7.15-.21,7.79,3.29,2.72,4.2,3.48-4.95,6.52-7.79,7.83-11.87-2.14-12-6.57,1.55-8.15,2.93-8.34S252.52,35.51,252.52,35.51Z"></path><path class="cls-10" d="M235.86,40.42c-2.14.5-4.3,1.85-5.35,5.46s-3.41,11.06-3.73,16.45c-.21,3.56.06,5.84-1.95,10.55a122.46,122.46,0,0,1-18.36,3.69,6.76,6.76,0,0,1-3-1,29.77,29.77,0,0,0-3.56-1.22c-1.06-.44-1-.54-1.36,0s.22,1.62,1.16,2.19,1.76.6,1.92.8-.78.33-2.1.24a16.12,16.12,0,0,1-3.79-1c-1-.23-1.13.59-.85,1A4.66,4.66,0,0,0,197,79a20.38,20.38,0,0,0,3.11.88,10.83,10.83,0,0,1-2.56-.06c-1.6-.23-2.22-.51-3.05-.58s-.6,1.29.25,1.69a11,11,0,0,0,2.78.81c1.08.17,2.89.28,2.89.28a11,11,0,0,1-3.92,0c-.82-.1-1.23.14-1.14.63s.64.82,2.4,1.23a13.27,13.27,0,0,0,6.33-.47c1.75-.55,2.59-.84,3.46-1.12,5-.14,18-.64,20.82-2,6.17-10.5,10.35-31.26,11.15-36.62C240,40.53,238.38,39.84,235.86,40.42Z"></path><path id="_Контур_3" data-name="&lt;Контур&gt;" class="cls-11" d="M253.32,44.53s-5.19,7.73-12.43,8.46c-2.28-2.25-2.49-10.26.67-12.82,0,0-2.9-2.34-4.89-1.89A10.3,10.3,0,0,0,232.2,44a46.65,46.65,0,0,0-2.55,16.55c.12,7.59,0,26.77,0,26.77s1.08,7.33,7.63,11a23.52,23.52,0,0,0,17.18,2.37c3.67-.86,5-2.91,6.3-5.57-.33-5.31-2.44-16.26-1.55-23s2.3-11.68,2.67-17.09-.72-5.29-3.43-7.22A42.19,42.19,0,0,0,253.32,44.53Z"></path><path id="_Контур_4" data-name="&lt;Контур&gt;" class="cls-10" d="M245,106.16a36.57,36.57,0,0,1,4.06-2.33,8.45,8.45,0,0,0,3.48-2.11c1.28-1.25,3.36-6,4.85-10.55a47.47,47.47,0,0,0,1.75-16c-.63-6.45-2.95-15.47-3.54-19.18s.61-5.18,2.33-6.55c2-1.61,4.82-.9,6.32,4.3a100.71,100.71,0,0,1,3.33,22,50.12,50.12,0,0,1-2.52,16.27c-1.56,4.88-3.6,8.39-6.21,12.79-.71,1.2-.94,2.26-2,4.71a16.63,16.63,0,0,1-4.75,6.32c-1.82,1.3-2.68,1.49-3.11,1.23s-.43-.89.34-1.58a13.55,13.55,0,0,0,3.24-3.64s-1.59,1.6-2.63,2.47a13.23,13.23,0,0,1-3,1.93c-1.06.47-2.54-.43-1.79-1.14s1.53-1.07,3-2.38a13.5,13.5,0,0,0,2.15-2.34,26,26,0,0,1-3.37,2.18,5.74,5.74,0,0,1-3.07.83c-.57,0-1.25-.81-.19-1.57a20.73,20.73,0,0,0,4-2.74c1.16-1.16,1.82-2.14,1.49-2.16s-1,.71-2.32,1.14-2.82,0-3-.71S243.73,106.79,245,106.16Z"></path><path id="_Контур_5" data-name="&lt;Контур&gt;" class="cls-10" d="M236.34,24.85h0c.85-5.55,4.85-9.76,10.58-9.44a11,11,0,0,1,5.6,20.1,11.36,11.36,0,0,1-.88,2.43c-2,2.36-8.15,3.83-9.91,3.57-2.26-.32-3.48-1.26-4.56-3.73C235.27,33.42,235.87,27.59,236.34,24.85Z"></path><polygon class="cls-3" points="254.66 25.06 254.66 25.05 254.66 25.05 254.66 25.06"></polygon><path class="cls-3" d="M254.55,26A4.48,4.48,0,0,1,254,27.3a7.24,7.24,0,0,1-2.57,2.31,17.31,17.31,0,0,1-15.67,0,7.24,7.24,0,0,1-2.57-2.31,4.33,4.33,0,0,1-.44-.89,4,4,0,0,0-.22.89c-.2,1.78.88,3.59,3.23,4.95a17.31,17.31,0,0,0,15.67,0c2.18-1.26,3.26-2.91,3.25-4.56v-.81Z"></path><path class="cls-2" d="M249.5,27.28l-.14-.09c-2.71-1-5.22-.84-7.28-2s-2.51-3.55-3.38-4.12l-.52-.3c-.45-.26-.82,0-.82.61v5.43a1.94,1.94,0,0,0,.82,1.55l11.32,6.54c.45.26.82,0,.82-.61V28.83A1.94,1.94,0,0,0,249.5,27.28Z"></path><polygon class="cls-2" points="246.65 36.9 250.09 34.87 245.48 31.53 246.65 36.9"></polygon><polygon class="cls-2" points="233.98 22.86 237.68 20.68 238.47 26.32 233.98 22.86"></polygon><path class="cls-4" d="M246.35,36.72,235,30.18a1.94,1.94,0,0,1-.82-1.55V23.2c0-.6.37-.87.82-.61l11.32,6.54a1.93,1.93,0,0,1,.81,1.55v5.43C247.16,36.71,246.8,37,246.35,36.72Z"></path><path class="cls-4" d="M230.18,25c.07,0,4.35-2.5,4.35-2.5l3.94,10Z"></path><polygon class="cls-4" points="242 39.57 246.92 36.75 241.92 28.54 240.1 30.58 238.47 34.6 242 39.57"></polygon><path class="cls-2" d="M242,39.19l-11.32-6.54a2,2,0,0,1-.81-1.55V25.67c0-.6.36-.87.81-.61L242,31.59a2,2,0,0,1,.82,1.56v5.42C242.86,39.17,242.49,39.45,242,39.19Z"></path><polygon class="cls-2" points="229.24 25.59 230.21 25 230.21 27.17 229.24 25.59"></polygon><polygon class="cls-2" points="241.57 39.83 242.59 39.22 241.61 38.02 241.57 39.83"></polygon><path class="cls-3" d="M241.05,39.78l-11.33-6.53a2,2,0,0,1-.81-1.56V26.27c0-.6.36-.88.81-.62l11.33,6.54a2,2,0,0,1,.81,1.55v5.43C241.86,39.77,241.5,40,241.05,39.78Z"></path><path class="cls-5" d="M240.75,39.21l-11-6.33a1.48,1.48,0,0,1-.61-1.17v-5c0-.45.28-.66.61-.47l11,6.34a1.43,1.43,0,0,1,.61,1.16v5C241.36,39.2,241.09,39.41,240.75,39.21Z"></path><path class="cls-6" d="M245.84,36.06l-1.76,1c-.28.16-.51,0-.51-.39V34.85a1.21,1.21,0,0,1,.51-1l1.76-1c.28-.16.51,0,.51.39v1.84A1.21,1.21,0,0,1,245.84,36.06Z"></path><path class="cls-12" d="M252.52,35.51h0L252,30.67s4-10.25-5.39-8.28c-6.17,1.3-7.72,1.86-9.6-2.28s4.74-7.87,12.61-6.83a10.88,10.88,0,0,1,9.73,11C259.14,27.35,258.33,33.52,252.52,35.51Z"></path><path class="cls-13" d="M268.53,63.31s-5.11,5.07-11.14,3.61c-.86-.58-2.94-12.45-2.94-12.45s0-6.57,5-6.4S268.53,63.31,268.53,63.31Z"></path><path class="cls-13" d="M230,53.47s-2.67-.14-3.77-1.69c.2-2.66,3.6-12.74,10.44-13.5a12.61,12.61,0,0,0-4.27,5.16C231.15,46.48,230,53.47,230,53.47Z"></path></g><path class="cls-1" d="M241.55,387.14,1.93,248.79c-2.86-1.65-2.5-4.54.81-6.45l6-3.47c3.31-1.91,8.31-2.11,11.18-.46L259.53,376.75c2.87,1.66,2.51,4.55-.8,6.46l-6,3.46C249.42,388.58,244.41,388.79,241.55,387.14Z"></path><path class="cls-2" d="M266.26,375.87v-7.13L260,370.67,24.71,234.82c-2.86-1.66-7.87-1.45-11.18.46l-2.7,1.56-6-1.68v7.36h0a3.39,3.39,0,0,0,1.93,2.67L246.34,383.54c2.87,1.65,7.87,1.45,11.18-.46l6-3.47c1.83-1.05,2.75-2.4,2.74-3.68h0Z"></path><path class="cls-5" d="M246.34,376.35,6.73,238c-2.87-1.65-2.51-4.54.8-6.45l6-3.47c3.31-1.91,8.32-2.12,11.18-.46L264.33,366c2.86,1.65,2.5,4.54-.81,6.45l-6,3.47C254.21,377.8,249.21,378,246.34,376.35Z"></path><polygon class="cls-14" points="241.85 365.3 29.21 242.53 29.21 23.71 241.85 146.48 241.85 365.3"></polygon><path class="cls-5" d="M244.24,365.3h-4.79V151.62A7.55,7.55,0,0,0,236.2,146L32.47,28.36a2,2,0,0,0-.74-.29,1.92,1.92,0,0,0-.13.79V242.53H26.81V28.86a5.47,5.47,0,0,1,2.51-5,5.45,5.45,0,0,1,5.54.31L238.59,141.83a12.15,12.15,0,0,1,5.65,9.79Z"></path><g class="cls-15"><path class="cls-14" d="M153.19,137.15,64.73,86.08c-2.32-1.34-4.2-4.92-4.2-8h0c0-3.09,1.88-4.51,4.2-3.17L153.19,126c2.32,1.34,4.19,4.93,4.19,8h0C157.38,137.07,155.51,138.49,153.19,137.15Z"></path><path class="cls-14" d="M153.19,158.46,64.73,107.38c-2.32-1.34-4.2-4.92-4.2-8h0c0-3.09,1.88-4.51,4.2-3.17l88.46,51.07c2.32,1.34,4.19,4.93,4.19,8h0C157.38,158.37,155.51,159.79,153.19,158.46Z"></path><path class="cls-14" d="M153.19,179.76,64.73,128.68c-2.32-1.33-4.2-4.92-4.2-8h0c0-3.09,1.88-4.51,4.2-3.17l88.46,51.07c2.32,1.34,4.19,4.93,4.19,8h0C157.38,179.67,155.51,181.09,153.19,179.76Z"></path><path class="cls-14" d="M153.19,201.06,64.73,150c-2.32-1.33-4.2-4.92-4.2-8h0c0-3.09,1.88-4.51,4.2-3.17l88.46,51.07c2.32,1.34,4.19,4.93,4.19,8h0C157.38,201,155.51,202.39,153.19,201.06Z"></path><path class="cls-14" d="M206.33,167.83l-29.79-17.19c-2.31-1.34-4.19-4.93-4.19-8h0c0-3.08,1.88-4.5,4.19-3.17l29.79,17.2c2.31,1.34,4.19,4.92,4.19,8h0C210.52,167.75,208.64,169.17,206.33,167.83Z"></path><path class="cls-14" d="M206.33,189.13l-29.79-17.19c-2.31-1.34-4.19-4.93-4.19-8h0c0-3.09,1.88-4.51,4.19-3.18L206.33,178c2.31,1.34,4.19,4.93,4.19,8h0C210.52,189.05,208.64,190.47,206.33,189.13Z"></path><path class="cls-14" d="M206.33,210.43l-29.79-17.19c-2.31-1.34-4.19-4.93-4.19-8h0c0-3.09,1.88-4.51,4.19-3.17l29.79,17.19c2.31,1.34,4.19,4.93,4.19,8h0C210.52,210.35,208.64,211.77,206.33,210.43Z"></path><path class="cls-14" d="M206.33,231.74l-29.79-17.2c-2.31-1.34-4.19-4.92-4.19-8h0c0-3.09,1.88-4.51,4.19-3.17l29.79,17.19c2.31,1.34,4.19,4.93,4.19,8h0C210.52,231.65,208.64,233.07,206.33,231.74Z"></path><ellipse class="cls-14" cx="80.91" cy="203.37" rx="16.48" ry="28.54" transform="matrix(0.87, -0.5, 0.5, 0.87, -90.85, 67.71)"></ellipse><ellipse class="cls-14" cx="135.53" cy="234.9" rx="16.48" ry="28.54" transform="translate(-99.3 99.24) rotate(-30)"></ellipse><ellipse class="cls-14" cx="190.14" cy="266.43" rx="16.48" ry="28.54" transform="matrix(0.87, -0.5, 0.5, 0.87, -107.75, 130.77)"></ellipse></g></g></g></svg> 