<svg width="50" height="50" viewBox="0 0 50 50" xmlns="http://www.w3.org/2000/svg"><path d="M4 17a4 4 0 0 1 4-4h38v20a4 4 0 0 1-4 4H4V17Z" fill="var(--o-icons-red-pure, #FC787D)"/><path d="M4 17a4 4 0 0 1 4-4h38v20a4 4 0 0 1-4 4H4V17Z" fill="url(#o_icon_account_check_printing__a)" fill-opacity=".2"/><path d="M8 8a4 4 0 0 1 4-4h26a4 4 0 0 1 4 4v5H8V8Z" fill="var(--o-icons-purple-pure, #93407D)"/><path d="M8 8a4 4 0 0 1 4-4h26a4 4 0 0 1 4 4v5H8V8Z" fill="url(#o_icon_account_check_printing__b)" fill-opacity=".2"/><path d="M13 37h24v5a4 4 0 0 1-4 4H13v-9Z" fill="var(--o-icons-yellow-pure, #FBB130)"/><path d="M13 37h24v5a4 4 0 0 1-4 4H13v-9Z" fill="url(#o_icon_account_check_printing__c)" fill-opacity=".2"/><path d="M37 37H13v-8h24v8Z" fill="var(--o-icons-purple-yellow, #912C18)"/><path d="M37 37H13v-8h24v8Z" fill="url(#o_icon_account_check_printing__d)" fill-opacity=".2"/><defs><linearGradient id="o_icon_account_check_printing__a" x1="4" y1="13" x2="48.066" y2="32.279" gradientUnits="userSpaceOnUse"><stop stop-color="#fff"/><stop offset="1" stop-color="#fff" stop-opacity="0"/></linearGradient><linearGradient id="o_icon_account_check_printing__b" x1="8" y1="4" x2="30.463" y2="25.215" gradientUnits="userSpaceOnUse"><stop stop-color="#fff"/><stop offset="1" stop-color="#fff" stop-opacity="0"/></linearGradient><linearGradient id="o_icon_account_check_printing__c" x1="13" y1="37" x2="33.769" y2="50.846" gradientUnits="userSpaceOnUse"><stop stop-color="#fff"/><stop offset="1" stop-color="#fff" stop-opacity="0"/></linearGradient><linearGradient id="o_icon_account_check_printing__d" x1="13" y1="29" x2="32.2" y2="43.4" gradientUnits="userSpaceOnUse"><stop stop-color="#fff"/><stop offset="1" stop-color="#fff" stop-opacity="0"/></linearGradient></defs></svg>
