<svg xmlns="http://www.w3.org/2000/svg" viewBox="0 0 100 100"><path d="M81.57,24.08l-2.84,2.85a36.84,36.84,0,0,1-51.8,51.8l-2.85,2.84A40.84,40.84,0,0,0,81.57,24.08Z" style="fill:#7c6576"/><path d="M13.13,50A36.84,36.84,0,0,1,73.07,21.27l2.85-2.84A40.84,40.84,0,0,0,18.43,75.92l2.84-2.85A36.71,36.71,0,0,1,13.13,50Z" style="fill:#7c6576"/><path d="M84.18,15.82a2,2,0,0,0-2.83,0L58.12,39.05l0,.05L15.82,81.35a2,2,0,0,0,1.42,3.41,2,2,0,0,0,1.41-.58L60.87,42l0-.05L84.18,18.65A2,2,0,0,0,84.18,15.82Z" style="fill:#7c6576"/><path d="M62.33,43.32,42.81,62.85h0l-2.53,2.52,26.2,0h0a12.63,12.63,0,0,0,11.16-6.63A12.93,12.93,0,0,0,79.35,53a12.86,12.86,0,0,0-7.28-11.64,13.59,13.59,0,0,0,.14-5.43,13.22,13.22,0,0,0-.5-2l-1.93,1.92h0L62.4,43.25Z" style="fill:#7c6576"/><path d="M56.58,37.76,67,27.37a13.64,13.64,0,0,0-20.25,4.39,14.17,14.17,0,0,0-18.9,9.65A12.86,12.86,0,0,0,20.65,53c0,.28,0,.57,0,.85a12.39,12.39,0,0,0,8.86,11c22.38-22.36,26.31-26.3,27-27Z" style="fill:#7c6576"/></svg>