<svg xmlns="http://www.w3.org/2000/svg" viewBox="0 0 100 100"><path d="M67.47,61.32a1.5,1.5,0,0,0,0,3,3.12,3.12,0,1,1,0,6.23h-.3a6.11,6.11,0,0,0-.24,12.22H67a1.5,1.5,0,0,0,.06-3,3.11,3.11,0,0,1,.12-6.22h.3a6.12,6.12,0,1,0,0-12.23Z" style="fill:#7c6576"/><path d="M51.1,61.32a1.5,1.5,0,0,0,0,3,3.12,3.12,0,0,1,0,6.23h-.31a6.11,6.11,0,0,0-.24,12.22h.06a1.5,1.5,0,0,0,.06-3,3.11,3.11,0,0,1,.12-6.22h.31a6.12,6.12,0,0,0,0-12.23Z" style="fill:#7c6576"/><rect x="49.49" y="40.5" width="3" height="11.51" style="fill:#7c6576"/><path d="M64,62.82a3.5,3.5,0,0,1,3.5-3.5,8.12,8.12,0,0,1,7.72,5.62,12.87,12.87,0,0,0,8.58-11.89v-.13h0A13.5,13.5,0,0,0,74.21,40,14.29,14.29,0,0,0,75,32.28,14.41,14.41,0,0,0,47.18,30,15,15,0,0,0,24.76,40.37a13.52,13.52,0,0,0-8.53,12.55h0a13.41,13.41,0,0,0,.69,4.27,12.83,12.83,0,0,0,12.26,8.55h3.41a3.5,3.5,0,0,1,1.92-6.42,8.13,8.13,0,0,1,7.94,6.42h6.72a3.5,3.5,0,0,1,1.93-6.42A8.12,8.12,0,0,1,59,65.74h6.52A3.5,3.5,0,0,1,64,62.82ZM42,52a1.5,1.5,0,0,1,0,3H39a1.5,1.5,0,0,1-1.5-1.5V39A1.5,1.5,0,0,1,39,37.5h3a1.5,1.5,0,0,1,0,3h-1.5V52Zm13.52,1.5A1.5,1.5,0,0,1,54,55H48a1.5,1.5,0,0,1-1.5-1.5V39A1.5,1.5,0,0,1,48,37.5h6a1.5,1.5,0,0,1,1.5,1.5ZM60,55a1.5,1.5,0,0,1-1.5-1.5h0v-5A1.5,1.5,0,0,1,60,47h1.48V45H60a1.5,1.5,0,0,1,0-3h3a1.5,1.5,0,0,1,1.5,1.5v5A1.5,1.5,0,0,1,63,50H61.51v2H63a1.5,1.5,0,1,1,0,3Z" style="fill:#7c6576"/><path d="M34.51,61.32a1.5,1.5,0,0,0,0,3,3.12,3.12,0,1,1,0,6.23h-.3A6.11,6.11,0,0,0,34,82.77H34a1.5,1.5,0,0,0,.06-3,3.11,3.11,0,0,1,.12-6.22h0a6.11,6.11,0,1,0,.25-12.22Z" style="fill:#7c6576"/></svg>