<svg xmlns="http://www.w3.org/2000/svg" viewBox="0 0 100 100"><path d="M78.44,63.67a13.48,13.48,0,0,0,5.33-10.75h0A13.5,13.5,0,0,0,74.21,40a14.41,14.41,0,1,0-27-10A15,15,0,0,0,24.76,40.37a13.52,13.52,0,0,0-8.53,12.55h0a13.51,13.51,0,0,0,9.24,12.82" style="fill:none;stroke:#7c6576;stroke-linecap:round;stroke-linejoin:round;stroke-width:3px"/><line x1="32.88" y1="59.51" x2="32.88" y2="79.65" style="fill:none;stroke:#7c6576;stroke-linecap:round;stroke-linejoin:round;stroke-width:3px"/><line x1="39.09" y1="75.03" x2="32.88" y2="79.65" style="fill:none;stroke:#7c6576;stroke-linecap:round;stroke-linejoin:round;stroke-width:3px"/><line x1="26.67" y1="75.03" x2="32.88" y2="79.65" style="fill:none;stroke:#7c6576;stroke-linecap:round;stroke-linejoin:round;stroke-width:3px"/><line x1="51.89" y1="59.51" x2="51.89" y2="79.65" style="fill:none;stroke:#7c6576;stroke-linecap:round;stroke-linejoin:round;stroke-width:3px"/><line x1="58.1" y1="75.03" x2="51.89" y2="79.65" style="fill:none;stroke:#7c6576;stroke-linecap:round;stroke-linejoin:round;stroke-width:3px"/><line x1="45.68" y1="75.03" x2="51.89" y2="79.65" style="fill:none;stroke:#7c6576;stroke-linecap:round;stroke-linejoin:round;stroke-width:3px"/><line x1="70.91" y1="59.51" x2="70.91" y2="79.65" style="fill:none;stroke:#7c6576;stroke-linecap:round;stroke-linejoin:round;stroke-width:3px"/><line x1="77.11" y1="75.03" x2="70.91" y2="79.65" style="fill:none;stroke:#7c6576;stroke-linecap:round;stroke-linejoin:round;stroke-width:3px"/><line x1="64.7" y1="75.03" x2="70.91" y2="79.65" style="fill:none;stroke:#7c6576;stroke-linecap:round;stroke-linejoin:round;stroke-width:3px"/><line x1="37.97" y1="38.7" x2="37.97" y2="53.21" style="fill:none;stroke:#7c6576;stroke-linecap:round;stroke-linejoin:round;stroke-width:3px"/><line x1="40.97" y1="38.7" x2="38.01" y2="38.7" style="fill:none;stroke:#7c6576;stroke-linecap:round;stroke-linejoin:round;stroke-width:3px"/><line x1="40.97" y1="53.21" x2="38.01" y2="53.21" style="fill:none;stroke:#7c6576;stroke-linecap:round;stroke-linejoin:round;stroke-width:3px"/><line x1="46.99" y1="38.7" x2="46.99" y2="53.21" style="fill:none;stroke:#7c6576;stroke-linecap:round;stroke-linejoin:round;stroke-width:3px"/><line x1="52.99" y1="38.7" x2="52.99" y2="53.21" style="fill:none;stroke:#7c6576;stroke-linecap:round;stroke-linejoin:round;stroke-width:3px"/><line x1="52.93" y1="38.7" x2="47.03" y2="38.7" style="fill:none;stroke:#7c6576;stroke-linecap:round;stroke-linejoin:round;stroke-width:3px"/><line x1="52.83" y1="53.21" x2="47.03" y2="53.21" style="fill:none;stroke:#7c6576;stroke-linecap:round;stroke-linejoin:round;stroke-width:3px"/><line x1="61.99" y1="43.19" x2="61.99" y2="48.18" style="fill:none;stroke:#7c6576;stroke-linecap:round;stroke-linejoin:round;stroke-width:3px"/><line x1="59.01" y1="48.24" x2="59.01" y2="53.2" style="fill:none;stroke:#7c6576;stroke-linecap:round;stroke-linejoin:round;stroke-width:3px"/><line x1="61.99" y1="43.19" x2="59.01" y2="43.19" style="fill:none;stroke:#7c6576;stroke-linecap:round;stroke-linejoin:round;stroke-width:3px"/><line x1="61.97" y1="48.18" x2="59.01" y2="48.18" style="fill:none;stroke:#7c6576;stroke-linecap:round;stroke-linejoin:round;stroke-width:3px"/><line x1="62.03" y1="53.21" x2="59.01" y2="53.21" style="fill:none;stroke:#7c6576;stroke-linecap:round;stroke-linejoin:round;stroke-width:3px"/></svg>