<svg xmlns="http://www.w3.org/2000/svg" viewBox="0 0 100 100"><path d="M61.32,85.17A36.61,36.61,0,0,1,22.07,74.1a35.76,35.76,0,0,1-5.51-39.41A38.76,38.76,0,0,1,29,19.79L27.51,27a2,2,0,0,0,1.55,2.37l.16,0a2,2,0,0,0,2.21-1.57L33.8,16.48a2,2,0,0,0-1.34-2.82l-.1,0-.27,0-11.5-2.42a2,2,0,0,0-.83,3.92l6.92,1.45A42.9,42.9,0,0,0,13,33a39.7,39.7,0,0,0,6.1,43.77A40.63,40.63,0,0,0,49.85,91a41.5,41.5,0,0,0,12.69-2,2,2,0,1,0-1.22-3.81Z" style="fill:#7c6576"/><path d="M79.85,21.77A40,40,0,0,0,43.33,9.7a2,2,0,0,0,.73,3.93A36,36,0,0,1,76.94,24.51a36.94,36.94,0,0,1,9,34.37,37.53,37.53,0,0,1-10.1,17.56l.61-7.61a2,2,0,0,0-1.83-2.15,2,2,0,0,0-2.16,1.83l-.94,11.72a1.17,1.17,0,0,0-.05.27,2,2,0,0,0,1.85,2.18h.28l11.71.95h.17a2,2,0,0,0,.16-4l-6.78-.55a41.45,41.45,0,0,0,11-19.25A40.88,40.88,0,0,0,79.85,21.77Z" style="fill:#7c6576"/><path d="M50,24.37A17.62,17.62,0,0,0,39.26,56a2.46,2.46,0,0,0,0,.28v9.18a2.3,2.3,0,0,0,0,.26V68.1A8.92,8.92,0,0,0,48.12,77h3.67a8.92,8.92,0,0,0,8.91-8.9V66.19a2.63,2.63,0,0,0,.06-.49V56.24a1.27,1.27,0,0,0,0-.28A17.62,17.62,0,0,0,50,24.37Zm5.58,30.05a2,2,0,0,0,.83,3.82h.35v5.44H43.24V58.24h.35a2,2,0,0,0,.83-3.82,13.63,13.63,0,1,1,11.16,0Z" style="fill:#7c6576"/><path d="M53.38,42H49.65l3.07-8A2,2,0,0,0,49,32.57l-4.1,10.75a2,2,0,0,0,.22,1.85,2,2,0,0,0,1.64.86h3.85l-2.66,7.89a2,2,0,0,0,1.25,2.54,2.05,2.05,0,0,0,.64.11,2,2,0,0,0,1.9-1.37l3.55-10.53a2,2,0,0,0-.27-1.8A2,2,0,0,0,53.38,42Z" style="fill:#7c6576"/></svg>