<svg xmlns="http://www.w3.org/2000/svg" viewBox="0 0 100 100"><path d="M61.32,85.17A36.61,36.61,0,0,1,22.07,74.1a35.74,35.74,0,0,1-5.51-39.41A38.76,38.76,0,0,1,29,19.79L27.51,27a2,2,0,0,0,1.55,2.37l.16,0a2,2,0,0,0,2.21-1.57L33.8,16.48a2,2,0,0,0-1.34-2.82l-.1,0-.27,0-11.5-2.42a2,2,0,0,0-.83,3.92l6.92,1.45A42.9,42.9,0,0,0,13,33a39.7,39.7,0,0,0,6.1,43.77A40.63,40.63,0,0,0,49.85,91a41.8,41.8,0,0,0,12.69-2,2,2,0,0,0-1.22-3.81Z" style="fill:#7c6576"/><path d="M89.81,59.84a40.88,40.88,0,0,0-10-38.07A40,40,0,0,0,43.33,9.7a2,2,0,0,0,.73,3.93A36,36,0,0,1,76.94,24.51a36.94,36.94,0,0,1,9,34.37,37.43,37.43,0,0,1-10.1,17.56l.61-7.61a2,2,0,0,0-1.83-2.15,2,2,0,0,0-2.16,1.83l-.94,11.72a1.17,1.17,0,0,0-.05.27,2,2,0,0,0,1.85,2.18h.28l11.71.95h.17a2,2,0,0,0,.16-4l-6.78-.55A41.45,41.45,0,0,0,89.81,59.84Z" style="fill:#7c6576"/><path d="M39.26,56a1.27,1.27,0,0,0,0,.28v3.39H60.76V56.24a2.46,2.46,0,0,0,0-.28,17.63,17.63,0,1,0-21.48,0ZM42.4,34.81c2-2.12,5-3.2,8.85-3.22h0a2,2,0,0,1,0,4c-2.78,0-4.73.65-6,2s-1.94,3.92-1.74,7.33A2,2,0,0,1,41.71,47h-.12a2,2,0,0,1-2-1.88C39.31,40.51,40.23,37.13,42.4,34.81Z" style="fill:#7c6576"/><path d="M39.24,63.63v1.79a2.3,2.3,0,0,0,0,.26V68.1A8.92,8.92,0,0,0,48.12,77h3.67a8.92,8.92,0,0,0,8.91-8.9V66.19a2.63,2.63,0,0,0,.06-.49V63.63ZM56.7,68.1A4.92,4.92,0,0,1,51.79,73H48.12a4.91,4.91,0,0,1-4.91-4.9v-.4H56.7Z" style="fill:#7c6576"/></svg>