<svg xmlns="http://www.w3.org/2000/svg" viewBox="0 0 100 100"><path d="M61.44,13.77v1.12h0c0,3.51,0,7,0,10.52A1.8,1.8,0,0,0,62.21,27a4.32,4.32,0,0,0,2.65.36c3,0,15.6,0,15.6,0A8.88,8.88,0,0,0,79,25.37L63.53,10.22a8.84,8.84,0,0,0-2.09-1.53v5.08Z" style="fill:#7c6576"/><path d="M77.19,31.31H63.66a6,6,0,0,1-6.21-5.83c0-1.44,0-2.89,0-4.33V7.66H27.29a9,9,0,0,0-9,9V83.38a9,9,0,0,0,9,9H72.71a9,9,0,0,0,9-9V31.77c0-.16,0-.31,0-.47H77.19ZM55.9,72.8l-4.4,4.4a2.07,2.07,0,0,1-1.41.59,2,2,0,0,1-2-2,2.06,2.06,0,0,1,.58-1.41l.4-.39a16.76,16.76,0,0,1-13.63-8.4A17.09,17.09,0,0,1,38,44.3a2,2,0,0,1,2.81,2.85c-5.45,5.39-4.43,12.19-1.89,16.37A13,13,0,0,0,50.39,70l-1.83-1.83A2.06,2.06,0,0,1,48,66.76a2,2,0,0,1,.58-1.41A2,2,0,0,1,50,64.76a2.05,2.05,0,0,1,1.41.59l4.08,4.08a2,2,0,0,1,1.1,1.21A2,2,0,0,1,55.9,72.8Zm7.54-5.24a2,2,0,0,1-1.56.74,2,2,0,0,1-1.25-.44,2,2,0,0,1-.3-2.81,13,13,0,0,0,.91-14.94,13.42,13.42,0,0,0-8.89-6.52l1.07,1.08A2.07,2.07,0,0,1,54,46.08a2,2,0,0,1-.59,1.41,2,2,0,0,1-1.41.58,2.06,2.06,0,0,1-1.41-.58l-4.13-4.14A2.41,2.41,0,0,1,46,43a2,2,0,0,1,0-2.82l4.53-4.54a2.06,2.06,0,0,1,1.41-.58,2,2,0,0,1,1.41,3.4l-1.09,1.1A17.28,17.28,0,0,1,64.7,48.09,17,17,0,0,1,63.44,67.56Z" style="fill:#7c6576"/></svg>