<svg width="64" height="64" viewBox="0 0 64 64" fill="none" xmlns="http://www.w3.org/2000/svg">
<path d="M3.30499 14.5467C3.30499 14.5467 1.7651 15.5784 2.47088 18.0929L2.79537 18.9714L7.77148 15.8521L5.97141 13.0286L3.30499 14.5467Z" fill="#FBDBD0"/>
<path d="M48.0851 45.0822C45.8221 44.1028 44.0533 42.2471 43.1837 39.9396L29.8622 4.59326C28.5456 1.09996 25.9439 2.16503 25.9439 2.16503L3.24475 15.0261C3.74071 14.7608 6.13399 13.7032 7.45627 17.1662L20.7281 51.9251C21.4947 53.9328 22.9471 55.6045 24.8282 56.644L34.4979 61.9878L57.235 49.0418L48.0851 45.0822Z" fill="white"/>
<path d="M60.1047 24.502C60.1047 24.502 60.7808 24.3089 61.2498 24.6538C61.8146 25.069 61.7189 25.5368 61.7189 25.5368L60.3531 27.3994L58.9458 26.3646L60.1047 24.502Z" fill="white"/>
<path d="M42.8863 47.8876L57.9524 25.7852C57.9524 25.7852 58.4337 25.7919 58.9657 25.9458C59.2413 26.0256 59.5306 26.1449 59.7736 26.3232C60.6966 27.0008 60.6842 27.6063 60.6842 27.6063L45.5353 49.5432L42.8863 51.0332L42.431 50.6883L42.8863 47.8876Z" fill="#C1DBF6"/>
<path d="M55.3172 32L59.8564 25.7851C59.8564 25.7851 59.815 25.1919 59.07 25.2885C58.3249 25.385 58.187 25.7989 58.187 25.7989L54.1307 31.5246C54.1307 31.5246 53.5926 32.2961 55.3172 32Z" fill="white"/>
<path fill-rule="evenodd" clip-rule="evenodd" d="M34.5885 51.0485C33.7658 50.9287 32.935 50.8436 32.1408 50.8805L32.1408 50.8805C31.3417 50.9176 30.5984 51.0874 30.1327 51.4008C29.7444 51.6622 29.5945 51.9984 29.611 52.3461C29.6279 52.7043 29.8235 53.103 30.185 53.4648C30.9182 54.1986 32.1624 54.7579 33.4817 55.1848C33.5745 55.2148 33.6257 55.3154 33.5961 55.4094C33.5665 55.5035 33.4673 55.5554 33.3746 55.5254C32.0478 55.0962 30.7339 54.5165 29.9374 53.7193L30.0612 53.5921L29.9374 53.7193C29.5341 53.3157 29.2813 52.8373 29.2588 52.3632C29.2359 51.8787 29.4554 51.4276 29.9377 51.1029C30.4825 50.7362 31.3022 50.5615 32.1247 50.5233C32.9521 50.4849 33.8087 50.5738 34.6386 50.6946L34.6386 50.6946C35.593 50.8335 36.5588 51.0245 37.476 51.2832C37.9003 51.1594 38.3728 51.0883 38.8695 51.083C39.591 51.0752 40.3205 51.1979 41.0266 51.3412C41.0323 51.3043 41.0443 51.2677 41.0632 51.2328C41.1104 51.1458 41.1912 51.0865 41.2859 51.0547C41.446 51.001 41.6266 51.0043 41.7915 51.0313C41.9588 51.0588 42.125 51.1133 42.2649 51.1767C42.4127 51.2438 42.5494 51.3223 42.6696 51.4101C42.7486 51.4678 42.7666 51.5795 42.7097 51.6596C42.6528 51.7397 42.5427 51.7579 42.4636 51.7003C42.365 51.6282 42.2495 51.5615 42.1209 51.5031C42.0053 51.4506 41.8685 51.4062 41.7352 51.3843C41.5995 51.362 41.4821 51.3655 41.3966 51.3942C41.3904 51.3963 41.3855 51.3983 41.3817 51.4002C41.3868 51.406 41.3951 51.4135 41.4081 51.4206C41.446 51.4286 41.4838 51.4366 41.5215 51.4446C41.6115 51.4636 41.6719 51.5495 41.6604 51.642C41.6488 51.7344 41.5693 51.8024 41.4775 51.7981C41.4168 51.7953 41.3589 51.7837 41.3059 51.7642C40.4905 51.5922 39.6732 51.4319 38.8733 51.4405C38.6312 51.4431 38.3963 51.4623 38.1716 51.4962C39.0182 51.7769 39.8067 52.123 40.4853 52.5479C41.275 53.0423 41.8901 53.6653 42.2014 54.3175C42.516 54.9766 42.5223 55.6764 42.0671 56.273C41.8624 56.5414 41.5447 56.7953 41.0621 56.8818C40.5095 56.9807 39.8778 56.8372 39.3552 56.6735L39.4073 56.5027L39.3552 56.6735C38.0855 56.2756 36.9328 55.6588 36.2297 54.8929C35.5246 54.1248 35.2801 53.17 35.7984 52.3772C36.0331 52.0181 36.4208 51.7181 36.8968 51.4984C36.1463 51.3092 35.3664 51.1617 34.5885 51.0485ZM37.4792 51.6556C37.3639 51.6922 37.2532 51.733 37.1477 51.7775C36.6603 51.9833 36.295 52.2644 36.0922 52.5747L35.9453 52.4759L36.0922 52.5747C35.6981 53.1776 35.8453 53.9495 36.4878 54.6493C37.1323 55.3514 38.2199 55.9435 39.4593 56.3319C39.9745 56.4933 40.5367 56.6128 41.0007 56.5297C41.3838 56.4611 41.6283 56.264 41.7883 56.0542L41.9277 56.1636L41.7883 56.0542C42.144 55.588 42.1541 55.0389 41.8841 54.4733C41.6108 53.9009 41.053 53.3235 40.3001 52.8521C39.4973 52.3494 38.5266 51.9579 37.4792 51.6556ZM41.3703 51.4079C41.3703 51.4079 41.3704 51.4077 41.3707 51.4074C41.3704 51.4077 41.3703 51.4079 41.3703 51.4079Z" fill="#374874"/>
<path d="M42.4725 50.4606L42.2933 51.2586C42.2758 51.3368 42.3625 51.3965 42.4293 51.3522L43.0864 50.9159C43.0864 50.9159 42.9447 50.6754 42.8726 50.6192C42.7877 50.5531 42.4725 50.4606 42.4725 50.4606Z" fill="#ECECEC"/>
<path fill-rule="evenodd" clip-rule="evenodd" d="M30.4401 15.3294C30.5009 15.44 30.4606 15.579 30.3501 15.6399L15.4496 23.8421C15.339 23.903 15.2 23.8627 15.1391 23.7521C15.0782 23.6415 15.1185 23.5025 15.2291 23.4416L30.1296 15.2394C30.2402 15.1786 30.3792 15.2189 30.4401 15.3294Z" fill="#374874"/>
<path fill-rule="evenodd" clip-rule="evenodd" d="M32.6941 20.1052C32.755 20.2158 32.7147 20.3548 32.6041 20.4157L17.7036 28.6178C17.593 28.6787 17.454 28.6384 17.3931 28.5278C17.3322 28.4172 17.3725 28.2782 17.4831 28.2174L32.3836 20.0152C32.4942 19.9543 32.6332 19.9946 32.6941 20.1052Z" fill="#374874"/>
<path fill-rule="evenodd" clip-rule="evenodd" d="M35.0534 25.2427C35.1142 25.3532 35.0739 25.4922 34.9633 25.5531L20.0628 33.7553C19.9522 33.8161 19.8132 33.7758 19.7524 33.6653C19.6915 33.5547 19.7318 33.4157 19.8424 33.3548L34.7429 25.1526C34.8535 25.0918 34.9925 25.1321 35.0534 25.2427Z" fill="#374874"/>
<path fill-rule="evenodd" clip-rule="evenodd" d="M36.9245 30.9189C36.9854 31.0295 36.9451 31.1685 36.8345 31.2294L21.9341 39.4316C21.8235 39.4924 21.6845 39.4521 21.6236 39.3415C21.5627 39.231 21.603 39.092 21.7136 39.0311L36.6141 30.8289C36.7247 30.768 36.8637 30.8083 36.9245 30.9189Z" fill="#374874"/>
<path fill-rule="evenodd" clip-rule="evenodd" d="M38.7958 36.5952C38.8567 36.7058 38.8164 36.8448 38.7058 36.9057L23.8053 45.1078C23.6947 45.1687 23.5557 45.1284 23.4948 45.0178C23.4339 44.9072 23.4742 44.7682 23.5848 44.7074L38.4853 36.5052C38.5959 36.4443 38.7349 36.4846 38.7958 36.5952Z" fill="#374874"/>
<path d="M26.8526 2.01224C27.7305 2.01235 29.0444 2.42346 29.8622 4.59331L43.1837 39.9397C43.7289 41.3864 44.6278 42.6553 45.7802 43.6422L57.9524 25.7852C57.9524 25.7852 58.0436 25.7871 58.1858 25.8005L58.1869 25.799C58.1869 25.799 58.3249 25.3851 59.0699 25.2885C59.1236 25.2815 59.1732 25.2783 59.2193 25.2783C59.3697 25.2783 59.4822 25.3124 59.5704 25.3608L60.1047 24.5021C60.1047 24.5021 60.2934 24.4482 60.5405 24.4482C60.7612 24.4482 61.0285 24.4912 61.2498 24.6539C61.8145 25.0691 61.7189 25.5368 61.7189 25.5368L60.5379 27.1473C60.6869 27.4236 60.6841 27.6063 60.6841 27.6063L48.4938 45.2591L57.2349 49.0419L34.4979 61.9879L24.8281 56.6441C22.9471 55.6045 21.4947 53.9329 20.7281 51.9251L7.45625 17.1663C7.3131 16.7914 7.15689 16.4724 6.99244 16.1967L2.71333 18.8661L2.43422 18.1142C1.82716 15.9619 3.15168 15.0789 3.15168 15.0789L5.4451 13.7795L25.9439 2.16509C25.9439 2.16509 26.3171 2.01224 26.8526 2.01224ZM6.9741 16.1661C6.93273 16.0979 6.89081 16.0325 6.84839 15.9699L6.9741 16.1661ZM26.8526 1.09802C26.1717 1.09798 25.6875 1.28211 25.5974 1.31905C25.5616 1.33368 25.5268 1.35057 25.4932 1.36961L4.99436 12.984L2.70096 14.2834C2.68172 14.2943 2.66288 14.3059 2.64448 14.3182C2.56782 14.3693 0.775613 15.6018 1.55424 18.3624C1.56092 18.386 1.56853 18.4094 1.57708 18.4324L1.85618 19.1843C1.95177 19.4418 2.1581 19.6427 2.41808 19.7314C2.51424 19.7642 2.61397 19.7804 2.71326 19.7804C2.88245 19.7804 3.05036 19.7335 3.19724 19.6419L6.60994 17.5129L19.8739 52.2513C20.7164 54.4577 22.3187 56.302 24.3859 57.4443L34.0556 62.7881C34.1933 62.8642 34.3456 62.9022 34.4979 62.9022C34.654 62.9022 34.8101 62.8622 34.9503 62.7824L57.6873 49.8364C57.9884 49.665 58.1668 49.338 58.1479 48.992C58.1289 48.646 57.9161 48.3405 57.598 48.2029L49.8789 44.8623L61.4365 28.1259C61.5393 27.977 61.5956 27.801 61.5983 27.6201C61.5992 27.5585 61.5947 27.446 61.5626 27.2962L62.4562 26.0775C62.5342 25.9711 62.5883 25.8491 62.6147 25.7199C62.7128 25.2398 62.556 24.4796 61.7914 23.9173C61.4504 23.6665 61.0178 23.534 60.5405 23.534C60.1834 23.534 59.9055 23.6082 59.8534 23.6231C59.6354 23.6854 59.4482 23.8265 59.3284 24.0191L59.1119 24.3671C59.0594 24.37 59.0061 24.3749 58.9524 24.3819C58.3713 24.4572 57.9891 24.6717 57.7412 24.8957C57.5221 24.9477 57.3268 25.0797 57.1969 25.2703L45.6365 42.2297C44.9469 41.4688 44.4022 40.5805 44.0392 39.6174L30.7177 4.27089C29.6774 1.5105 27.8496 1.09811 26.8526 1.09802Z" fill="#374874"/>
</svg>
