<svg xmlns="http://www.w3.org/2000/svg" viewBox="0 0 100 100"><path d="M46.35,64.94a2,2,0,0,0,2-2V58.08a2,2,0,0,0-4,0v4.86A2,2,0,0,0,46.35,64.94Z" style="fill:#7c6576"/><path d="M53.65,64.94a2,2,0,0,0,2-2V58.08a2,2,0,0,0-4,0v4.86A2,2,0,0,0,53.65,64.94Z" style="fill:#7c6576"/><path d="M71.69,48l0,0,.25-.21a1,1,0,0,0,.12-.16.93.93,0,0,0,.13-.15l.09-.17.09-.17.06-.19c0-.06,0-.12,0-.18a1.64,1.64,0,0,0,0-.38h0q0-.5,0-1a12.72,12.72,0,0,0-6.92-10.44,13.3,13.3,0,0,0-13.07.41l-1.19.73c-.77-6.44,1.94-10.49,8.44-12.66a2,2,0,1,0-1.26-3.79A17.23,17.23,0,0,0,50,25.33a18,18,0,0,0-4.45-8.22c-4.51-4.51-11.16-5-11.44-5a1.93,1.93,0,0,0-1.55.58,2,2,0,0,0-.58,1.54c0,.29.51,6.94,5,11.45,3.65,3.64,8.68,4.66,10.63,4.93a17.71,17.71,0,0,0-.31,4.67,13.26,13.26,0,0,0-12.89-.33,12.68,12.68,0,0,0-6.92,10.45c0,.32,0,.64,0,1a2,2,0,0,0,1.05,1.75l0,0c6.26,4.23,9.47,8.3,9.54,12.1.08,4-3.13,8.26-9.79,13.13l-.1.09-.17.15-.12.15a.91.91,0,0,0-.11.16,1,1,0,0,0-.1.17.89.89,0,0,0-.08.17l-.06.19c0,.06,0,.12,0,.18a1.92,1.92,0,0,0,0,.22s0,.09,0,.14v.09c0,.29,0,.59,0,.88a12.66,12.66,0,0,0,6.92,10.44,13.25,13.25,0,0,0,13.11-.44L50,84.43,52.55,86a13.25,13.25,0,0,0,6.88,1.94,13.4,13.4,0,0,0,6.19-1.53A12.69,12.69,0,0,0,72.54,76c0-.32,0-.66,0-1a2,2,0,0,0-.18-.82,2,2,0,0,0-.74-1.1c-6.56-4.79-9.71-9-9.64-12.89S65.25,52.36,71.69,48ZM58,60.09c-.08,4.29,2.22,8.45,7.16,12.88H35c4.77-4.39,7.08-8.61,7-12.83-.07-4-2.27-7.91-6.67-11.79H64.68C60.28,52.24,58.09,56.11,58,60.09Z" style="fill:#7c6576"/></svg>