<svg xmlns="http://www.w3.org/2000/svg" viewBox="0 0 100 100"><path d="M70.57,46.35H29.43q0-.42,0-.84c.55-8.23,9.95-12.73,17-8.43L50,39.23,53.59,37c7-4.26,16.38.25,17,8.46,0,.28,0,.57,0,.86Z" style="fill:none;stroke:#7c6576;stroke-linecap:round;stroke-linejoin:round;stroke-width:4px"/><path d="M70.57,75H29.43c0,.28,0,.56,0,.83.55,8.23,9.95,12.74,17,8.43L50,82.09l3.63,2.19c7,4.26,16.38-.24,17-8.45,0-.29,0-.57,0-.86Z" style="fill:none;stroke:#7c6576;stroke-linecap:round;stroke-linejoin:round;stroke-width:4px"/><line x1="46.35" y1="58.08" x2="46.35" y2="62.94" style="fill:none;stroke:#7c6576;stroke-linecap:round;stroke-linejoin:round;stroke-width:4px"/><line x1="53.65" y1="58.08" x2="53.65" y2="62.94" style="fill:none;stroke:#7c6576;stroke-linecap:round;stroke-linejoin:round;stroke-width:4px"/><path d="M29.62,46.46c14.85,10,13,18.88-.19,28.51" style="fill:none;stroke:#7c6576;stroke-linecap:round;stroke-linejoin:round;stroke-width:4px"/><path d="M70.57,46.35c-14.85,10-13.26,18.69-.1,28.32" style="fill:none;stroke:#7c6576;stroke-linecap:round;stroke-linejoin:round;stroke-width:4px"/><path d="M59.17,21.5C51,24.22,48,29.88,49.68,38.24" style="fill:none;stroke:#7c6576;stroke-linecap:round;stroke-linejoin:round;stroke-width:4px"/><path d="M48.53,28.68s-6.13-.4-10.16-4.44-4.44-10.16-4.44-10.16,6.13.41,10.16,4.44S48.53,28.68,48.53,28.68Z" style="fill:none;stroke:#7c6576;stroke-linecap:round;stroke-linejoin:round;stroke-width:4px"/></svg>