<svg xmlns="http://www.w3.org/2000/svg" viewBox="0 0 100 100"><path d="M49.85,91a40.63,40.63,0,0,1-30.8-14.25A39.7,39.7,0,0,1,13,33,42.31,42.31,0,0,1,31.08,13.83,2,2,0,0,1,33,17.37,38.25,38.25,0,0,0,16.56,34.69,35.74,35.74,0,0,0,22.07,74.1,36.61,36.61,0,0,0,61.32,85.17,2,2,0,0,1,62.54,89,41.79,41.79,0,0,1,49.85,91Z" style="fill:#7c6576"/><path d="M75.57,81.42a2,2,0,0,1-1.31-3.52,37.37,37.37,0,0,0,11.67-19,36.94,36.94,0,0,0-9-34.37A36,36,0,0,0,44.06,13.63a2,2,0,0,1-.73-3.93A40,40,0,0,1,79.85,21.77a40.88,40.88,0,0,1,10,38.07A41.43,41.43,0,0,1,76.88,80.93,2,2,0,0,1,75.57,81.42Z" style="fill:#7c6576"/><path d="M85.63,79.64l-10-.81.81-10a2,2,0,0,0-1.83-2.15,2,2,0,0,0-2.16,1.83l-.94,11.72a1.17,1.17,0,0,0-.05.27,2,2,0,0,0,1.85,2.18h.28l11.71.95h.17a2,2,0,0,0,.16-4Z" style="fill:#7c6576"/><path d="M33.4,14.21a2,2,0,0,0-1-.59l-.27,0-11.5-2.42a2,2,0,0,0-.83,3.92l9.82,2.06L27.51,27a2,2,0,0,0,1.55,2.37l.16,0a2,2,0,0,0,2.21-1.57l2.41-11.5a1.07,1.07,0,0,0,.09-.27,1.75,1.75,0,0,0,0-.4A5,5,0,0,1,33.4,14.21Z" style="fill:#7c6576"/><path d="M65.6,39.72q-1.47-2.41-2.72-4.51c-5.33-8.9-8-13.37-12-13.51-3.71-.14-6.92,3.53-13.14,12.37l-1,1.47c-6.06,8.56-11.79,16.64-7.31,28.05a19.83,19.83,0,0,0,13,11.54,21.9,21.9,0,0,0,6.32.94A19.73,19.73,0,0,0,60,72.62C70.76,65.1,73,51.88,65.6,39.72ZM58,63.93a14,14,0,0,1-10.22,4.52H47.5a2,2,0,0,1-2-2,2,2,0,0,1,2.05-2,10.09,10.09,0,0,0,7.53-3.27,12.31,12.31,0,0,0,3.33-9.42,2,2,0,0,1,4-.3A16.35,16.35,0,0,1,58,63.93Z" style="fill:#7c6576"/></svg>