<svg xmlns="http://www.w3.org/2000/svg" viewBox="0 0 100 100"><path d="M61.93,87.08C29.63,97.36.24,64.14,14.75,33.83A40.15,40.15,0,0,1,32,15.6" style="fill:none;stroke:#7c6576;stroke-linecap:round;stroke-linejoin:round;stroke-width:4px"/><path d="M43.69,11.67C71.05,6.58,94.69,32,87.87,59.36a39.29,39.29,0,0,1-12.3,20.06" style="fill:none;stroke:#7c6576;stroke-linecap:round;stroke-linejoin:round;stroke-width:4px"/><path d="M85.63,79.64l-10-.81.81-10a2,2,0,0,0-1.83-2.15,2,2,0,0,0-2.16,1.83l-.94,11.72a1.17,1.17,0,0,0-.05.27,2,2,0,0,0,1.85,2.18h.28l11.71.95h.17a2,2,0,0,0,.16-4Z" style="fill:#7c6576"/><path d="M33.4,14.21a2,2,0,0,0-1-.59l-.27,0-11.5-2.42a2,2,0,0,0-.83,3.92l9.82,2.06L27.51,27a2,2,0,0,0,1.55,2.37l.16,0a2,2,0,0,0,2.21-1.57l2.41-11.5a1.07,1.07,0,0,0,.09-.27,1.75,1.75,0,0,0,0-.4A5,5,0,0,1,33.4,14.21Z" style="fill:#7c6576"/><path d="M50.24,27.44a.93.93,0,0,1,.85.54l8.28,17.67a.58.58,0,0,1-.52.82h0a.58.58,0,0,0-.51.86l2.34,4.28a.87.87,0,0,1-.76,1.29.87.87,0,0,0-.72,1.35l3.7,5.56a.93.93,0,0,1-.77,1.45H37.87a.93.93,0,0,1-.76-1.47l3.83-5.42a.93.93,0,0,0-.76-1.47h0a.94.94,0,0,1-.81-1.41l2.41-4.14a.58.58,0,0,0-.5-.88h-.16a.57.57,0,0,1-.52-.83L49.4,28a.93.93,0,0,1,.84-.52m0-4a4.92,4.92,0,0,0-4.42,2.73L37,43.85a4.5,4.5,0,0,0-.09,3.89l-1,1.75a5,5,0,0,0,0,4.93l.05.08-2.11,3a4.93,4.93,0,0,0,4,7.78H62.13a4.92,4.92,0,0,0,4.1-7.66l-2.09-3.15a4.87,4.87,0,0,0,0-4.75l-1.11-2A4.57,4.57,0,0,0,63,44L54.71,26.28a5,5,0,0,0-4.47-2.84Z" style="fill:#7c6576"/><line x1="50" y1="75.14" x2="50" y2="64.17" style="fill:none;stroke:#7c6576;stroke-linecap:round;stroke-miterlimit:10;stroke-width:4px"/></svg>