<svg xmlns="http://www.w3.org/2000/svg" viewBox="0 0 1400 495">
	<style>
		@media only screen and (max-width: 300px) {
			path {stroke-width: 8px;}
		}
	</style>
	<path d="M1400,255.3h-161.4c-60.4,0-74.8,164-74.8,0s-43.1-71.6-46.5,0c-3.4,71.6-32.9,126.5-46.5,0-13.6-126.5-9.8-367.8-46.5,0-36.7,367.8-39.3,182.7-46.5,0-7.2-182.7-29.5-151.3-46.5,0-17,151.3-36,97.4-46.5,0-10.5-97.4-36-109.6-46.5,0-10.5,109.6-45.3,243.1-46.5,0-1.1-243.1-34.6-130.8-46.5,0-11.8,130.8-46.5,451.6-46.5,0s-46.5-185.8-46.5,0-46.5,284.3-46.5,0-32.1-250.9-46.5,0c-14.4,250.9-42.9,103.4-46.5,0-3.6-103.4-38.4-125.8-46.5,0-8.1,125.8-46.5,192.3-46.5,0s-29.1-258.5-46.5,0c-17.4,258.5-47.9,237.2-46.5,0,1.4-237.2-46.5-122.9-46.5,0s-46.5,124.7-46.5,0-19.8,0-78.9,0H0" fill="none" stroke="#3aadaa" stroke-width="3px" />
</svg>
