<svg viewBox="0 0 1400 209" xmlns="http://www.w3.org/2000/svg">
	<style>
        @media only screen and (max-width: 300px) {
            line {stroke-width: 8px;}
        }
    </style>
	<line x1="23" y1="209" x2="23" y2="175" fill="none" stroke="#3aadaa" stroke-linecap="round" stroke-miterlimit="10" stroke-width="6" />
	<line x1="46" y1="209" x2="46" y2="128" fill="none" stroke="#3aadaa" stroke-linecap="round" stroke-miterlimit="10" stroke-width="6" />
	<line x1="69" y1="209" x2="69" y2="145" fill="none" stroke="#3aadaa" stroke-linecap="round" stroke-miterlimit="10" stroke-width="6" />
	<line x1="91" y1="209" x2="91" y2="173" fill="none" stroke="#3aadaa" stroke-linecap="round" stroke-miterlimit="10" stroke-width="6" />
	<line x1="115" y1="209" x2="115" y2="148" fill="none" stroke="#3aadaa" stroke-linecap="round" stroke-miterlimit="10" stroke-width="6" />
	<line x1="138" y1="209" x2="138" y2="65" fill="none" stroke="#3aadaa" stroke-linecap="round" stroke-miterlimit="10" stroke-width="6" />
	<line x1="161" y1="209" x2="161" y2="92" fill="none" stroke="#3aadaa" stroke-linecap="round" stroke-miterlimit="10" stroke-width="6" />
	<line x1="184" y1="209" x2="184" y2="140" fill="none" stroke="#3aadaa" stroke-linecap="round" stroke-miterlimit="10" stroke-width="6" />
	<line x1="207" y1="209" x2="207" y2="102" fill="none" stroke="#3aadaa" stroke-linecap="round" stroke-miterlimit="10" stroke-width="6" />
	<line x1="229" y1="209" x2="229" y2="141" fill="none" stroke="#3aadaa" stroke-linecap="round" stroke-miterlimit="10" stroke-width="6" />
	<line x1="252" y1="209" x2="252" y2="153" fill="none" stroke="#3aadaa" stroke-linecap="round" stroke-miterlimit="10" stroke-width="6" />
	<line x1="275" y1="209" x2="275" y2="166" fill="none" stroke="#3aadaa" stroke-linecap="round" stroke-miterlimit="10" stroke-width="6" />
	<line x1="298" y1="209" x2="298" y2="105" fill="none" stroke="#3aadaa" stroke-linecap="round" stroke-miterlimit="10" stroke-width="6" />
	<line x1="322" y1="209" x2="322" y2="145" fill="none" stroke="#3aadaa" stroke-linecap="round" stroke-miterlimit="10" stroke-width="6" />
	<line x1="345" y1="209" x2="345" y2="126" fill="none" stroke="#3aadaa" stroke-linecap="round" stroke-miterlimit="10" stroke-width="6" />
	<line x1="367" y1="209" x2="367" y2="144" fill="none" stroke="#3aadaa" stroke-linecap="round" stroke-miterlimit="10" stroke-width="6" />
	<line x1="390" y1="209" x2="390" y2="107" fill="none" stroke="#3aadaa" stroke-linecap="round" stroke-miterlimit="10" stroke-width="6" />
	<line x1="413" y1="209" x2="413" y2="161" fill="none" stroke="#3aadaa" stroke-linecap="round" stroke-miterlimit="10" stroke-width="6" />
	<line x1="436" y1="209" x2="436" y2="152" fill="none" stroke="#3aadaa" stroke-linecap="round" stroke-miterlimit="10" stroke-width="6" />
	<line x1="459" y1="209" x2="459" y2="84" fill="none" stroke="#3aadaa" stroke-linecap="round" stroke-miterlimit="10" stroke-width="6" />
	<line x1="482" y1="209" x2="482" y2="72" fill="none" stroke="#3aadaa" stroke-linecap="round" stroke-miterlimit="10" stroke-width="6" />
	<line x1="506" y1="209" x2="506" y2="176" fill="none" stroke="#3aadaa" stroke-linecap="round" stroke-miterlimit="10" stroke-width="6" />
	<line x1="528" y1="209" x2="528" y2="93" fill="none" stroke="#3aadaa" stroke-linecap="round" stroke-miterlimit="10" stroke-width="6" />
	<line x1="551" y1="209" x2="551" y2="14" fill="none" stroke="#3aadaa" stroke-linecap="round" stroke-miterlimit="10" stroke-width="6" />
	<line x1="574" y1="209" x2="574" y2="49" fill="none" stroke="#3aadaa" stroke-linecap="round" stroke-miterlimit="10" stroke-width="6" />
	<line x1="597" y1="209" x2="597" y2="32" fill="none" stroke="#3aadaa" stroke-linecap="round" stroke-miterlimit="10" stroke-width="6" />
	<line x1="620" y1="209" x2="620" y2="133" fill="none" stroke="#3aadaa" stroke-linecap="round" stroke-miterlimit="10" stroke-width="6" />
	<line x1="643" y1="209" x2="643" y2="146" fill="none" stroke="#3aadaa" stroke-linecap="round" stroke-miterlimit="10" stroke-width="6" />
	<line x1="665" y1="209" x2="665" y2="129" fill="none" stroke="#3aadaa" stroke-linecap="round" stroke-miterlimit="10" stroke-width="6" />
	<line x1="688" y1="209" x2="688" y2="163" fill="none" stroke="#3aadaa" stroke-linecap="round" stroke-miterlimit="10" stroke-width="6" />
	<line x1="712" y1="209" x2="712" y2="64" fill="none" stroke="#3aadaa" stroke-linecap="round" stroke-miterlimit="10" stroke-width="6" />
	<line x1="735" y1="209" x2="735" y2="167" fill="none" stroke="#3aadaa" stroke-linecap="round" stroke-miterlimit="10" stroke-width="6" />
	<line x1="758" y1="209" x2="758" y2="22" fill="none" stroke="#3aadaa" stroke-linecap="round" stroke-miterlimit="10" stroke-width="6" />
	<line x1="781" y1="209" x2="781" y2="3" fill="none" stroke="#3aadaa" stroke-linecap="round" stroke-miterlimit="10" stroke-width="6" />
	<line x1="803" y1="209" x2="803" y2="77" fill="none" stroke="#3aadaa" stroke-linecap="round" stroke-miterlimit="10" stroke-width="6" />
	<line x1="826" y1="209" x2="826" y2="44" fill="none" stroke="#3aadaa" stroke-linecap="round" stroke-miterlimit="10" stroke-width="6" />
	<line x1="849" y1="209" x2="849" y2="159" fill="none" stroke="#3aadaa" stroke-linecap="round" stroke-miterlimit="10" stroke-width="6" />
	<line x1="872" y1="209" x2="872" y2="167" fill="none" stroke="#3aadaa" stroke-linecap="round" stroke-miterlimit="10" stroke-width="6" />
	<line x1="895" y1="209" x2="895" y2="147" fill="none" stroke="#3aadaa" stroke-linecap="round" stroke-miterlimit="10" stroke-width="6" />
	<line x1="919" y1="209" x2="919" y2="142" fill="none" stroke="#3aadaa" stroke-linecap="round" stroke-miterlimit="10" stroke-width="6" />
	<line x1="942" y1="209" x2="942" y2="13" fill="none" stroke="#3aadaa" stroke-linecap="round" stroke-miterlimit="10" stroke-width="6" />
	<line x1="964" y1="209" x2="964" y2="114" fill="none" stroke="#3aadaa" stroke-linecap="round" stroke-miterlimit="10" stroke-width="6" />
	<line x1="987" y1="209" x2="987" y2="164" fill="none" stroke="#3aadaa" stroke-linecap="round" stroke-miterlimit="10" stroke-width="6" />
	<line x1="1010" y1="209" x2="1010" y2="162" fill="none" stroke="#3aadaa" stroke-linecap="round" stroke-miterlimit="10" stroke-width="6" />
	<line x1="1033" y1="209" x2="1033" y2="102" fill="none" stroke="#3aadaa" stroke-linecap="round" stroke-miterlimit="10" stroke-width="6" />
	<line x1="1056" y1="209" x2="1056" y2="147" fill="none" stroke="#3aadaa" stroke-linecap="round" stroke-miterlimit="10" stroke-width="6" />
	<line x1="1079" y1="209" x2="1079" y2="66" fill="none" stroke="#3aadaa" stroke-linecap="round" stroke-miterlimit="10" stroke-width="6" />
	<line x1="1102" y1="209" x2="1102" y2="107" fill="none" stroke="#3aadaa" stroke-linecap="round" stroke-miterlimit="10" stroke-width="6" />
	<line x1="1125" y1="209" x2="1125" y2="122" fill="none" stroke="#3aadaa" stroke-linecap="round" stroke-miterlimit="10" stroke-width="6" />
	<line x1="1148" y1="209" x2="1148" y2="93" fill="none" stroke="#3aadaa" stroke-linecap="round" stroke-miterlimit="10" stroke-width="6" />
	<line x1="1171" y1="209" x2="1171" y2="72" fill="none" stroke="#3aadaa" stroke-linecap="round" stroke-miterlimit="10" stroke-width="6" />
	<line x1="1194" y1="209" x2="1194" y2="82" fill="none" stroke="#3aadaa" stroke-linecap="round" stroke-miterlimit="10" stroke-width="6" />
	<line x1="1217" y1="209" x2="1217" y2="146" fill="none" stroke="#3aadaa" stroke-linecap="round" stroke-miterlimit="10" stroke-width="6" />
	<line x1="1239" y1="209" x2="1239" y2="123" fill="none" stroke="#3aadaa" stroke-linecap="round" stroke-miterlimit="10" stroke-width="6" />
	<line x1="1262" y1="209" x2="1262" y2="111" fill="none" stroke="#3aadaa" stroke-linecap="round" stroke-miterlimit="10" stroke-width="6" />
	<line x1="1285" y1="209" x2="1285" y2="83" fill="none" stroke="#3aadaa" stroke-linecap="round" stroke-miterlimit="10" stroke-width="6" />
	<line x1="1309" y1="209" x2="1309" y2="143" fill="none" stroke="#3aadaa" stroke-linecap="round" stroke-miterlimit="10" stroke-width="6" />
	<line x1="1332" y1="209" x2="1332" y2="136" fill="none" stroke="#3aadaa" stroke-linecap="round" stroke-miterlimit="10" stroke-width="6" />
	<line x1="1355" y1="209" x2="1355" y2="116" fill="none" stroke="#3aadaa" stroke-linecap="round" stroke-miterlimit="10" stroke-width="6" />
	<line x1="1377" y1="209" x2="1377" y2="157" fill="none" stroke="#3aadaa" stroke-linecap="round" stroke-miterlimit="10" stroke-width="6" />
	<line x1="1400" y1="209" x2="1400" y2="135" fill="none" stroke="#3aadaa" stroke-linecap="round" stroke-miterlimit="10" stroke-width="6" />
	<line y1="209" y2="135" fill="none" stroke="#3aadaa" stroke-linecap="round" stroke-miterlimit="10" stroke-width="6" />
</svg>
