<svg viewBox="0 0 1400 1400" xmlns="http://www.w3.org/2000/svg">
<path d="M0 1220.9V1400H1400V1229.4C1400 1229.4 1373.1 1209 1287.9 1208.7C1222.9 1208.5 1095.7 1244.3 1030.8 1248.5C914.1 1256 564.4 1212.2 564.4 1212.2C564.4 1212.2 458.3 1234.4 397.1 1244.7C374.4 1235.8 174.6 1170.5 138.3 1206C112.5 1192.7 34.5 1204.3 0 1220.9Z" fill="#FFFFFF"/>
<path d="M790.4 1181.8C791 1181.3 791.7 1180.8 792.4 1181.1C792.6 1181.1 792.7 1181.1 792.9 1181.3C793.6 1181.5 794.1 1181.7 794 1182.8C795.4 1182.8 796.1 1183.5 796.9 1184.4C797.3 1184.9 797.7 1185.3 798.2 1185.7C802.8 1188.9 806.1 1189.9 808.6 1190.5C811.2 1191.2 812.8 1191.7 813.7 1194.3H814C815.1 1194.3 816.6 1194.5 817 1195.6V1196.3H819.8C821.4 1195.2 822.6 1195.5 824.4 1196H824.9C825.6 1196.2 826.4 1196 827.3 1195.6C828.3 1195.2 829.3 1194.9 830.2 1195.2H830.5C832.1 1195.8 833.7 1196.5 835.5 1196.1C836.5 1195.9 836.9 1196.5 837.3 1197C837.5 1197.3 837.7 1197.6 837.9 1197.6C838.9 1197.6 839.4 1198.1 840.2 1198.6C841.3 1199.4 842.9 1200.4 846.9 1201.6L854 1203.7C854.7 1203.9 855.4 1204 856 1204.1C857.1 1204.1 858.1 1204.3 859.3 1205.3C859.9 1205.8 861.8 1206.6 863.6 1207.4C866 1208.4 866.2 1208.8 867.6 1209.7L869.8 1210H870.8C872.2 1209.8 874.2 1209.6 873.5 1211.7H873.1C874.1 1211.7 875.1 1211.9 875.6 1212.5C876.2 1213.3 877 1214.2 878.1 1214C879.1 1214 879.5 1214.5 879.8 1214.9C880.3 1215.5 880.8 1215.9 883.1 1215.4H884.6C887.9 1215.6 894.3 1215.9 895.2 1219.7C896 1219.7 897.8 1219.5 897.2 1221H898.2C898.6 1221 899 1221.2 899.3 1221C900.1 1220.6 900.9 1221 901.7 1221.3C902.4 1221.6 903.1 1221.9 903.7 1221.8C904.2 1221.8 904.6 1221.6 905.1 1221.5C906.9 1221.2 908.4 1220.8 910.4 1221.2C911.7 1221.4 913.1 1221.4 914.5 1221.4C916.9 1221.4 919.3 1221.2 921.2 1222.7C921.8 1222.7 922.5 1222 922.9 1221.5C925.1 1218.3 933.4 1218.7 935.4 1220.2C932.5 1221.3 936.3 1219.9 937.4 1220C936.6 1219.3 937 1218.7 937.4 1218.2C937.4 1218.2 937.4 1218 937.6 1217.9C938.5 1216.3 939.8 1216.6 941.5 1217C942.9 1217.3 944.5 1217.7 946.5 1217.3C947.9 1217 952.7 1219.2 955 1220.2C955.5 1220.4 955.9 1220.6 956.1 1220.7C957.9 1221.4 960.3 1221.2 962.9 1220.9C966.2 1220.6 969.7 1220.3 972.4 1221.8C973.9 1222.7 975.3 1222.9 976.8 1223.1C977.6 1223.1 978.4 1223.3 979.3 1223.5C979.8 1223.5 980.4 1223.8 981 1224C983.2 1224.6 985.7 1225.4 987.9 1224.6C987.9 1224.8 988.1 1225 988.3 1225.3C988.6 1226 989 1226.7 989.4 1226.6C990.4 1226.3 990.2 1225.2 990.1 1224.3V1223.9C991.1 1223 992.2 1223.1 993.4 1223.2H995.7C996.2 1220.9 998.1 1219.4 1000.2 1220.1C1002.9 1221.1 1005.7 1221.2 1008.6 1221.3H1010.9C1012.1 1221.3 1013.1 1222.1 1014.1 1222.9C1014.8 1223.5 1015.5 1224 1016.3 1224.3H1016.5C1018.1 1224.8 1019.7 1225.3 1020.7 1226.6C1020.7 1226.6 1020.9 1226.4 1021 1226.3C1022.1 1225.1 1022.5 1224.7 1023.8 1226.3C1026.7 1228.1 1029.1 1227.4 1031.1 1226.8C1034.5 1225.8 1033.8 1225.1 1035.3 1227.4C1035.9 1227 1036.7 1226.9 1037.5 1226.9C1038.3 1226.9 1039 1226.9 1039.7 1226.5L1046 1223.8C1046.7 1223.8 1047.2 1224.1 1047.6 1224.3C1048.8 1224.8 1049.2 1225 1050.9 1222.7C1050.7 1220.1 1051.1 1219.9 1052.2 1219.5C1053.2 1219.1 1054.9 1218.5 1057.1 1215.4C1060.1 1217.5 1062 1216 1063.8 1214.7C1065.5 1213.5 1067 1212.4 1069 1214.7C1069.6 1213.4 1070.1 1212.7 1070.6 1211.8C1070.8 1211.5 1071.2 1211.8 1071.6 1211.8C1072 1211.8 1072.5 1212.1 1072.7 1211.8C1076.8 1207.5 1083.9 1207.8 1084.7 1207.8C1085.5 1207.8 1085.4 1209 1086.8 1208.9C1086.8 1207.1 1089.3 1207.2 1091.8 1207.4C1093.6 1207.4 1095.3 1207.6 1096.2 1207C1099.1 1205.2 1102.1 1204.3 1104.7 1207.6L1108.8 1205.6C1112.3 1207.7 1116.1 1206.6 1119.6 1205C1119.9 1205 1120.4 1205 1120.9 1205.2C1121.7 1205.5 1122.6 1205.8 1123.1 1205C1125.6 1201.3 1127.3 1201.4 1130 1201.5H1134.6C1135.8 1199.9 1137.6 1199.3 1139.8 1199.7C1140.1 1199.5 1140.3 1199 1140.6 1198.6C1140.9 1198.1 1141.1 1197.6 1141.6 1197.6C1145 1197.6 1145.4 1197 1145.9 1196C1146.4 1195.2 1147 1194.1 1149.9 1193.2C1150.4 1193 1150.9 1192.8 1151.4 1192.6C1152.6 1192.1 1153.7 1191.5 1155 1192C1157.5 1190.5 1160.6 1188.8 1163.4 1189.3C1164.9 1189.6 1166.4 1189.8 1167.8 1190.3C1168.3 1190.5 1168.8 1190.8 1169.3 1191.1C1170.4 1191.8 1171.6 1192.6 1173.2 1191.8C1174.7 1191.1 1175.9 1191.8 1176.9 1192.7C1177.5 1193.1 1178 1193.5 1178.5 1193.5C1182.7 1193.9 1185.6 1194.6 1188.7 1197.4C1189.9 1197.4 1191.5 1197.4 1193.3 1197.7C1197.6 1198.2 1202.7 1198.8 1204.5 1196.2C1205.1 1195.5 1206.3 1195.7 1207.5 1195.8C1208.4 1195.8 1209.3 1196.1 1209.9 1195.8C1213.3 1193.9 1219 1193.8 1220.5 1195.8C1222.2 1195.8 1223.9 1195.8 1225.7 1196C1226.6 1193.9 1227.5 1193.9 1228.8 1193.9C1230.1 1193.9 1231.8 1193.9 1234.4 1192.1C1237.4 1194.3 1241.9 1194.3 1246 1194.3C1250.1 1194.3 1249.7 1194.3 1251.3 1194.5C1250 1195.4 1250.2 1195.9 1251.6 1196H1253.4C1255 1195.5 1256.3 1196 1255.9 1197.9C1255.9 1197.9 1255.7 1198.1 1255.5 1198.1H1255.7C1256.1 1198.1 1256.7 1197.9 1257.2 1197.9C1256.7 1193.7 1265.8 1196 1266.6 1196.6C1267.3 1197.1 1267.5 1198 1267.8 1199.1V1199.3C1267.8 1199.3 1267.8 1199.5 1268 1199.7C1268 1199.7 1268.2 1199.5 1268.2 1199.4C1268.4 1199 1268.6 1198.7 1269 1199C1270.5 1200.2 1271.2 1199.7 1271.9 1199C1272.5 1198.4 1273.2 1197.8 1274.8 1198.6V1199C1274.8 1199.2 1274.6 1199.5 1274.8 1199.8C1281.3 1199.1 1283.5 1200.3 1285 1201.2C1286.3 1201.9 1286.9 1202.3 1289.4 1200.5C1291.5 1202.1 1293.3 1201.9 1294.9 1201.7C1296.7 1201.5 1298.1 1201.3 1299.1 1204.1C1300.4 1200.6 1308.6 1201.5 1310.1 1202.6C1310.7 1202.4 1311.9 1201.9 1312.3 1201.8C1312.7 1199 1316.4 1200.4 1318.2 1201.4C1320.7 1202.7 1323.5 1201.1 1326 1199.8C1326.9 1199.3 1327.8 1198.8 1328.6 1198.5C1329.7 1198.5 1330.6 1199.3 1331.5 1200C1332.3 1200.7 1333.1 1201.4 1334.1 1201.5C1335 1201.5 1345.5 1204.4 1345.6 1205.6C1350 1204 1350.3 1204.3 1351.8 1205.6C1352.4 1206.1 1353.1 1206.8 1354.3 1207.5C1355.1 1207.8 1355.8 1208.1 1356.3 1208.8C1357.3 1209.5 1357.8 1209.5 1358.3 1209.5C1358.8 1209.5 1359.7 1209.5 1361.4 1211.6C1362.9 1210.6 1364.3 1211 1365.6 1211.3C1366.2 1211.5 1366.8 1211.6 1367.3 1211.6C1368.5 1211.6 1369.6 1211.6 1370.8 1211.4C1373.9 1211.1 1377 1210.8 1380.7 1213.3C1382.3 1211.6 1383.9 1212 1385.7 1212.7C1386.9 1213.2 1387.3 1217.7 1388.7 1218.2C1396.3 1220.1 1398.5 1215 1400 1215V1230.1C1399.4 1230.1 1398.8 1228.8 1398.2 1228.6C1397.8 1228.6 1396.6 1229.9 1396.1 1229.7C1396.1 1227.9 1394.6 1228 1393.3 1228H1392.3C1392 1225.7 1390 1225.7 1388.3 1225.7C1388.3 1225.4 1388.3 1224 1387.6 1224L1372.1 1223.7H1371.6C1370.3 1223.7 1368.7 1223.9 1368.7 1225.8C1365.5 1227.5 1361.8 1229.3 1358.7 1226.3C1359.3 1225.9 1349.3 1224.7 1351.1 1227.7H1349.8C1349.3 1229.7 1348.6 1229.6 1347.4 1229.6C1346.2 1229.6 1344.9 1229.4 1343 1231C1341.7 1232.1 1339.2 1231.6 1337.8 1231L1332.1 1231.8L1329.3 1233.7C1329.5 1235.1 1326.9 1235.4 1325.8 1235.4C1326.6 1234.2 1325.3 1233.7 1323.8 1233.2C1322.1 1232.6 1320 1231.8 1320.1 1229.7C1318.7 1229.4 1318.7 1229.7 1318.6 1230C1318.6 1230.6 1318.4 1231.6 1311.6 1231.9C1307.8 1234.5 1306.1 1231.7 1304.8 1229.5C1304.3 1228.6 1303.8 1227.8 1303.2 1227.6C1301.6 1227.4 1300.9 1228.6 1300.4 1229.3C1299.9 1230 1299.7 1230.4 1299.2 1229.1C1298.9 1228.6 1298.8 1228.2 1298.8 1227.8C1292.9 1227.8 1283.9 1227.1 1278.1 1228C1277.7 1228 1277.4 1228.5 1277.1 1228.9C1276.7 1229.4 1276.4 1229.9 1275.7 1229.8C1274.2 1229.6 1273.4 1229.4 1273.5 1227.7C1272.2 1227.3 1271.4 1228.5 1271.4 1229.7C1272.4 1232.8 1271.7 1232.9 1270.4 1233.3C1269.8 1233.5 1269 1233.7 1268.2 1234.3C1266.8 1236.2 1264.9 1235.9 1263.6 1234.3C1261.4 1232.4 1259.9 1234 1258.5 1235.6C1257.5 1236.7 1256.6 1237.7 1255.5 1237.7C1254.4 1237.7 1254.8 1237.3 1254.5 1236.9C1254.2 1236.5 1253.9 1236.1 1253.5 1236L1248.8 1235.4C1248.5 1235.4 1248.1 1235 1247.7 1234.6C1247 1233.9 1246.1 1233.1 1245.4 1233.8C1244.9 1234.3 1244.5 1234.8 1244 1235.3C1242.9 1236.5 1241.8 1237.8 1240.1 1238.8C1241 1239.6 1242.3 1239.6 1243.5 1239.6C1244.7 1239.6 1246.3 1239.6 1246.8 1241C1247.5 1242.3 1246.6 1242.6 1245.8 1242.9C1245.1 1243.2 1244.5 1243.4 1244.5 1244.1C1244.2 1244.1 1243.6 1243.9 1243.3 1244.1C1243.3 1242.3 1236.3 1240.3 1236.7 1242.9C1233.2 1242.7 1229.1 1243.6 1225.1 1244.5C1223.2 1244.9 1221.3 1245.3 1219.6 1245.6C1218.3 1246.8 1217.1 1247.5 1215.7 1247.5C1215.9 1247.5 1216.1 1247.5 1216.2 1247.7C1215.6 1248.2 1214.9 1248.6 1214.3 1249.1C1214 1248.5 1213.7 1247.9 1213.7 1247.2C1212 1247.5 1210.2 1247.4 1208.4 1247.2C1205.6 1247.2 1202.8 1246.9 1200.4 1248C1198.4 1249.8 1197.3 1249.2 1195.3 1248C1195.1 1248 1194.8 1248.2 1194.4 1248.5C1193.9 1248.9 1193.3 1249.4 1192.8 1249.1C1192 1248.6 1192.1 1247.5 1192.2 1246.6V1245.6L1190.2 1245.2L1175.2 1245.9C1174.9 1245.9 1174.6 1246.3 1174.4 1246.6C1174.2 1246.8 1174.1 1247.1 1173.9 1247.1C1171.8 1247.8 1172.6 1244.8 1172.5 1245.2C1171.6 1245.2 1171.3 1245.8 1171.1 1246.4C1170.9 1246.8 1170.8 1247.1 1170.5 1247.3C1170.1 1249.8 1176.6 1249.9 1178.2 1248.3C1178.7 1247.8 1179.4 1247.1 1180 1247.3C1180.4 1247.5 1181.2 1248.4 1180.8 1248.9C1179.4 1250.3 1175.1 1254.4 1173.5 1252.8C1173.2 1252.5 1173 1252.3 1172.9 1252C1172.4 1251.3 1172 1250.8 1170.9 1251C1170 1251.2 1169.5 1251.6 1168.8 1252.6C1165.2 1257 1163.8 1257 1163 1257C1162.2 1257 1162.3 1257 1161.9 1257.5V1257.7C1161.1 1258.6 1160.6 1259.2 1159.8 1259.1C1157.6 1258.9 1157.5 1258.5 1157.3 1258.1C1157.1 1257.7 1157 1257.3 1155.2 1257C1154.5 1257 1154.2 1257.3 1153.8 1257.7C1153.6 1258 1153.3 1258.3 1153 1258.5C1151.6 1258.9 1150.3 1259.7 1148.9 1260.5C1146.8 1261.8 1144.6 1263 1142.3 1262.7C1137.1 1263 1131.9 1263.1 1126.7 1263H1125.7C1123.5 1263 1121.7 1262.8 1120.8 1263.8C1119.2 1262.3 1118.3 1262.3 1117.5 1262.2C1116.3 1262.2 1115.2 1262.2 1112.4 1258.2C1111.5 1257.6 1110.8 1257.5 1110.3 1257.5C1109.4 1257.5 1109 1257.5 1109 1254.9C1108.8 1255.1 1108.6 1255.1 1108.3 1255.1C1107.5 1255.4 1106.1 1255.3 1105 1255.3C1101.3 1254.8 1093.9 1258.2 1092 1260.9C1091.3 1260.9 1087.4 1261.3 1089.2 1261.2C1089.4 1263.3 1087.5 1263.2 1085.6 1263.1C1081.5 1262.8 1088.8 1265.5 1082.6 1265H1079.1C1075.7 1265 1072.1 1265.2 1068.8 1264.8C1068.6 1264.8 1068.3 1264.4 1068.1 1264C1067.6 1263.3 1067.1 1262.6 1066.3 1263.1C1067.1 1267.3 1064.7 1267.3 1062.1 1267.3C1059.5 1267.3 1060.2 1267.3 1059.4 1267.5C1058.6 1267.9 1057.9 1268.5 1057.1 1269.2C1055.5 1270.6 1053.9 1272.1 1051.4 1270.6C1051.1 1270.4 1050.9 1270.2 1050.7 1269.9C1050.3 1269.3 1049.8 1268.8 1048.9 1268.9C1047.7 1269.1 1047 1269.3 1046.2 1270.6C1045.7 1271.3 1043.7 1270.6 1043.7 1270C1043.7 1269.4 1044 1269.4 1044.2 1269.2C1044.6 1268.6 1045 1268 1044.8 1267.2C1043 1267.2 1039.3 1267 1038.6 1267H1035.6C1035.3 1264.7 1035.2 1263.8 1034.8 1263.5C1034.1 1263 1031.3 1263.1 1033.5 1263.5C1034.3 1265.6 1031 1265.5 1027.9 1265.4H1023.6C1023 1265.4 1022.3 1265.4 1021.7 1265.2C1019.8 1264.9 1018.3 1265.7 1016.9 1267.2C1015 1269.4 1013 1269.3 1011.7 1269.3C1010.4 1269.3 1009.6 1269.3 1009.8 1271.2C1009.2 1271 1008 1271.2 1008 1271.2C1008.7 1273.5 1005.8 1273.2 1004.6 1273C1000.2 1273.6 999.3 1273 998.5 1272.2C997.9 1271.7 997.2 1271.1 994.9 1271.3C995.9 1273.7 992.1 1273.4 988.2 1273.1C985.8 1272.9 983.3 1272.7 981.8 1273.1C980.8 1275.7 978.5 1275.3 976.2 1275C975.2 1274.8 974.2 1274.7 973.3 1274.8C970.7 1275 968.1 1275 965.5 1274.8C961.9 1276.3 961.4 1276.1 959.6 1275.5C958.9 1275.2 957.9 1274.9 956.4 1274.6C956 1274.6 955.7 1274.1 955.4 1273.7C954.9 1273.1 954.5 1272.5 953.7 1272.8H953C952.7 1272.8 952.4 1272.8 952.2 1273C952 1274.1 951.3 1275.2 950.1 1274.8H947.8L948.2 1271.1C947.2 1271.1 946.8 1271.5 946.1 1272.1C946.1 1272.1 945.9 1272.3 945.7 1272.4C945 1272.9 944.1 1272.9 943.2 1272.9H942.2C941.4 1274.3 940.8 1274.5 940.2 1274.5H939.6C938.7 1274.5 937.6 1274.7 935.6 1276.6C935.3 1276.6 934.9 1276.8 934.5 1276.8C933.4 1276.8 932.2 1277 932.5 1278.5H931.8C930.8 1278.5 929.7 1278.5 928.7 1278.2C926.1 1277.3 923.6 1276.6 920.8 1276.5L917.5 1276.3C915.8 1276.9 914.2 1276.7 912.4 1276.6H911.4C910.7 1276.6 910.1 1276.6 909.4 1276.8C908.8 1276.8 908.3 1277 907.7 1277C907.9 1279.2 904.6 1279.2 904.3 1277H903.5C902.8 1279.3 898.6 1278.9 895.3 1278.5C893.9 1278.5 892.7 1278.2 892 1278.5C890.7 1278.5 889.1 1278.5 887.9 1278.8C888.1 1276.7 886.1 1276.8 884.7 1276.9H884.2C883 1277.1 882.1 1276.4 882.2 1275.1C883.6 1274.7 879.6 1274.9 879 1274.9H876.2C875.5 1274.9 874.8 1274.9 874.1 1275.1C873.2 1277 872.7 1276.9 871.9 1276.8C870.8 1276.8 869.3 1276.4 865.7 1280.3C864.5 1279.2 863.1 1278.6 861.3 1278.8C860.1 1276.8 858.2 1276.8 856.7 1276.9C855.7 1276.9 854.9 1276.9 854.8 1276.2C854.8 1275.5 855.1 1275.3 855.4 1275C855.8 1274.7 856.3 1274.4 856.5 1273.1C855.4 1272.9 854.3 1272.9 853.2 1273.1C853.2 1276.2 853.2 1280.9 848.9 1277.7C848 1277 847 1277 846 1277.1C844.9 1277.1 844.2 1277.1 843.5 1276.3C843.2 1275.9 842.9 1275.5 842.5 1275.4C839.6 1275 836.8 1275.1 833.9 1275.2C833.2 1275.2 829.7 1275.2 830.2 1275.2C830 1277.6 826.4 1277.3 823 1277C821.2 1277 819.5 1276.7 818.4 1277V1275.1C818.4 1275.1 797 1274.7 797.2 1274.9C796.6 1273.9 796.5 1273 796.4 1272.4C796.4 1271.3 796.4 1270.8 792.9 1271.2V1270.7C792.9 1270.9 792.9 1271.2 792.7 1271.4C792.4 1273 791.9 1275.3 785.7 1276.8C783.9 1274.7 783.1 1274.7 781.8 1274.8C780.3 1274.8 778 1275 772.2 1271.6C771 1270.9 769.5 1271 768 1271.2C767.2 1271.2 766.4 1271.4 765.7 1271.2C765.7 1268.6 765.5 1266 766.3 1263.5H764.6C763.1 1263.5 761.6 1263.5 761.9 1261.6H761.5C759.6 1261.6 757.7 1261.4 755.8 1261.6C754.8 1261.9 754 1261.3 753.2 1260.7C752.6 1260.3 752 1259.8 751.3 1259.8H750.7C748.2 1259.6 746.1 1259.4 744.3 1257.7H736.8C736.8 1257.4 736.8 1257.2 736.6 1256.9V1256.4C736.3 1255.9 736.2 1255.4 736.6 1255C736.9 1254.1 736.6 1253.1 736.6 1252.2V1251.8C735.9 1251.8 734.4 1251 735 1250.1C734.5 1250.1 734 1250.1 733.7 1249.9C733.4 1249 733.2 1248.4 733.2 1247.9H731.3C731 1254.1 721.2 1251.6 727.4 1249.4C726.6 1247.3 724.7 1248.3 723 1249.2C722.1 1249.6 721.3 1250.1 720.7 1250.1H721.6C721 1252.1 720.6 1251.8 719.7 1251.2C719.1 1250.8 718.2 1250.1 716.9 1250C716.6 1250 716.3 1250.4 716 1250.9C715.8 1251.3 715.5 1251.7 715.2 1251.8C713.3 1251.3 711.9 1250.3 710.6 1249.5C708.9 1248.4 707.5 1247.5 705.9 1248H705.2C705.2 1248.4 705.4 1248.9 705.6 1249.3C705.9 1249.8 706.2 1250.4 706.1 1250.9C705.3 1252.4 702.7 1251.4 702.6 1249.8C702.6 1249.8 700.8 1250 700.1 1250C699.4 1250 699 1250.4 698.4 1250.8C697.1 1251.7 695.5 1252.8 692.7 1250.8C693.1 1250.6 693.5 1250.5 693.9 1250.4C695.2 1250 696 1249.7 696.1 1248.5C691.9 1247.7 691.1 1248.8 690.4 1249.6C689.9 1250.2 689.5 1250.7 687.9 1250.4C685.1 1250.1 684.5 1249.4 684.7 1247.6C684.7 1247.9 684.5 1248.3 684.5 1248.6C683.6 1248.8 683.3 1248.1 682.9 1247.3C682.6 1246.8 682.4 1246.3 682 1246.2C677.3 1246.9 675.7 1245.7 674.6 1244.8C673.7 1244.1 673 1243.6 671.1 1244.5C671.3 1245.1 671.1 1245.8 670.3 1245.7C669.9 1245.7 669.5 1245.7 669.2 1245.9C669.5 1247.1 668.3 1248.8 667.4 1247.4V1246H667.8C667.2 1246 666.7 1245.5 666.1 1245.2C665.2 1244.6 664.2 1244.1 663.1 1244.5V1245.8C663.7 1246 666.1 1247.1 664.9 1247.8C663 1249.1 660.1 1250.9 657.8 1250.9C655.5 1250.9 656.7 1250.9 656.2 1250.6C655.9 1250.6 655.6 1250.4 655.3 1250.3C654.7 1250.3 654.1 1250.3 653.5 1250.1C652.1 1250.1 650.7 1249.8 649.3 1249.5C648.8 1249.5 648.3 1249.3 647.7 1249.2C647.1 1249.2 646.4 1249 645.8 1248.8V1248.1C645.8 1247.2 645.8 1246.1 644.8 1246.1H642.8C641.1 1246.1 639.5 1246.1 638 1245.4C637.4 1246.5 636 1246.3 634.2 1246.2C632.3 1246 629.9 1245.8 627.4 1246.9H626.6C625.4 1247.1 624 1246.7 622.4 1246.2C620 1245.5 617.1 1244.7 613.1 1245.2V1244.4C612.4 1244.4 611.5 1243.4 610.9 1242.8C610.7 1242.6 610.6 1242.5 610.5 1242.4C607.1 1244.6 602.9 1244.7 599.5 1242.4C597.1 1243.7 596 1244.3 595 1244.2C594.1 1244.2 593.1 1243.5 591.2 1242.3H589.5C587.4 1242.3 585.7 1242.1 583.7 1240.6C583.5 1240.6 583.2 1240.3 582.9 1240.2C582.1 1239.9 581.2 1239.5 581.4 1238.8H579.7C579.7 1239.9 578.9 1240 578.1 1240H576.9C575.4 1240.2 573.6 1240.4 573.7 1241.9C568 1242.6 566.7 1241.7 565.7 1241C564.9 1240.5 564.3 1240 562.1 1240.4C562.1 1241.5 561.5 1242.7 560.1 1242.3V1243.8C556.8 1245.6 556.1 1241.9 556.1 1241.9H554.2C551.8 1243 552.4 1240.3 552.7 1238.9V1238.7L549.8 1236.4C549.3 1236 548.7 1236.2 548.1 1236.4C547.7 1236.4 547.2 1236.6 546.9 1236.6C546.6 1237.5 545.8 1238.1 544.8 1238.1C543.5 1241 530 1241 531.3 1238.7C530.7 1238.5 530.2 1238.3 529.7 1238C528.7 1238.3 527.5 1237.4 527.2 1236.5H525.6C524.7 1236.5 523.9 1236.7 523.2 1236.5C523.2 1237.1 522.8 1237.5 522.4 1237.8C522.2 1238 521.9 1238.2 521.8 1238.4C516.7 1238.1 511.3 1238.2 506.1 1238.4C505.9 1240 504.4 1240.1 502.2 1240.3C499.4 1240.6 495.7 1240.9 492.3 1244.3C491.8 1244.1 491.3 1244.3 490.8 1244.8C490.4 1245.1 490 1245.4 489.5 1245.3C488.5 1245.3 487.6 1244.9 486.7 1244.5C485.4 1244 484.1 1243.5 482.6 1243.7C481.4 1244 480.5 1244.8 480.4 1246H479.7C478.9 1246 478.6 1246.2 478.6 1246.2C478.8 1247.4 478.3 1249.2 477.1 1247.5L469.3 1247.8C469.6 1249.6 468.5 1249.6 467.4 1249.5H466.9C466.3 1249.7 465.5 1249.5 464.7 1249.5C463.9 1249.5 462.6 1249.5 461.9 1249.8C460.7 1251.2 459.4 1251.3 458 1251.5C457.5 1251.5 456.9 1251.5 456.4 1251.7C456 1251.7 455.7 1252.2 455.4 1252.6C454.9 1253.2 454.4 1253.9 453.6 1253.5H449.9C444.5 1253.3 435.7 1252.9 436.6 1255.3C433.8 1255.6 429.1 1255.5 426.3 1255.3H425.3C424.4 1255.3 423.4 1255.3 422.3 1255.1C422 1254.4 422.1 1253.9 422.3 1253.4C422.9 1253.4 421.1 1253.4 420.9 1253.4C421.1 1255.7 418.5 1255.5 416.5 1255.3H407.2C407.7 1257.5 405.5 1257.3 404 1257.2H397.9C394 1257.4 388.5 1257.7 387.6 1253.4L382.3 1253.2C380.2 1253.5 377.4 1252.8 378.2 1250C377 1249.6 376.3 1249.1 375.7 1248.6C374.8 1247.9 374.1 1247.3 372.4 1247.4C369.8 1247.6 367.2 1247.7 364.7 1247.1C364.1 1247.3 363.5 1247.5 362.9 1247.5C360.6 1246.9 360.3 1245.5 361.1 1243.4L360.7 1242.1C359.8 1241.6 358.6 1241.6 357.4 1241.6C356.2 1241.6 355.6 1241.6 354.8 1241.4C353 1241 351.5 1240.2 349.9 1239.3C348.6 1238.6 347.3 1237.9 345.9 1237.5C345.2 1237.3 344.7 1236.7 344.2 1236C343.5 1235.2 342.8 1234.3 341.6 1234.1C340.5 1233.9 339.3 1234.1 338.1 1234.1C336.9 1234.1 335.3 1234.3 333.9 1233.9C333.5 1233.9 333.2 1233.4 332.9 1233.1C332.4 1232.6 332 1232.1 331.3 1232.3H329.9C330 1230.3 327.5 1230.4 325.6 1230.6H324C324 1229.9 323.8 1229 323.2 1228.7C322.9 1228.5 322.2 1228.5 321.9 1228.5C320.4 1228.5 318.5 1228.5 318.2 1226.7C318.2 1226.7 318.2 1225.9 318.2 1226.2C317.4 1226.5 316.6 1225.6 316.8 1224.8C316.8 1224.8 316.4 1224.8 316.2 1224.6C315.1 1224.6 314 1224.4 313.6 1223.3C312.4 1223.1 312.4 1222.6 312.3 1222V1222.2C311.5 1222.4 309.7 1222 310.2 1220.9H308.4C307.8 1220.6 307.3 1220.7 306.8 1220.9H306.3C302.5 1221.6 300.9 1220.9 299.2 1220.1C297.4 1219.3 295.6 1218.5 291.2 1219.1V1219.4C291.2 1219.9 291 1220.6 290.4 1220.7C289.2 1221 282.2 1221.7 283.5 1219.2C283.5 1219.2 278.9 1220.2 273.9 1216.6C273.5 1216.4 273.4 1215.8 273.3 1215.2C273.1 1214.2 272.8 1213.2 271.6 1213.6C271.6 1213.6 271.6 1213.2 271.5 1213C270.8 1213 270.2 1213.2 269.5 1213.4C268.9 1213.4 268.3 1213.7 267.7 1213.7C268.1 1215.1 266.6 1215.2 265.7 1215.1H263.8C261.6 1214.4 257 1213.2 256.7 1213.1H255.5C254 1213.1 252 1213.3 252.1 1211.4C251.7 1211.4 251.3 1211.4 250.6 1211.1H248.7C248.1 1211.1 247.5 1211.1 246.9 1211.3C242.5 1211.6 238 1211.9 234.2 1209.1H232.9C230.9 1209.3 228.9 1209.5 227 1209.1V1207.2C227.2 1205.8 226 1205.3 224.8 1205.2V1205.7H222.3C222 1205.5 221.6 1205.4 221.2 1205.3C220.7 1205.3 220.2 1205.1 219.7 1204.6C220.2 1204 221.3 1202.9 220.9 1202.2C219.2 1201.5 217.5 1201.7 215.8 1201.9C214.9 1201.9 214.1 1202.1 213.3 1201.9C212.7 1201.9 212.1 1201.9 211.5 1201.7C210.1 1201.5 208.7 1201.4 207.2 1201.7C205.2 1201.9 203 1201.7 200.9 1201.7C199.1 1201.5 197.2 1201.4 195.4 1201.5C192.6 1201.5 191.2 1200.2 190.1 1199.1C189.4 1198.4 188.7 1197.8 187.8 1197.7C186.5 1199.2 177 1201.4 173 1197.9C172.5 1199.8 171 1199.9 168.9 1200C166.2 1200.2 162.4 1200.4 157.9 1204.3V1205.5C157.9 1206.3 158 1207.1 157.5 1207.9C156.5 1207.5 156.5 1206.9 156.5 1206.3V1205.8C155.9 1206 154.9 1205.8 154.4 1205.8C153.9 1205.8 154.1 1205.8 154.2 1205.8C154.6 1207.8 141.7 1207.3 147.1 1207.8H148.7C148.7 1210.2 146.3 1210 144 1209.7C142.8 1209.7 141.7 1209.4 140.9 1209.7C141.1 1211.1 140.3 1211.6 138.9 1211.6L133.8 1211.8C133 1211.8 133 1210.5 132.9 1209.9V1209.7C134.6 1209.7 129.8 1209.7 129.1 1209.5H127.2C125.9 1209.5 124.5 1209.8 123.2 1209.2C122.8 1209 122.4 1208.8 122.1 1208.6C121.4 1208.2 120.8 1207.8 119.9 1207.9C118.7 1207.7 117.4 1207.6 116.2 1207.6H112.5C111.5 1207.6 110.5 1207.8 109.5 1207C109.7 1206.2 110.2 1205.7 110.6 1205.3C111 1204.9 111.4 1204.5 111.4 1203.9C111.4 1203.9 111 1203.9 110.6 1203.7C110.3 1203.7 110 1203.7 109.8 1203.5C109.2 1203.5 108.7 1203.7 108.2 1204H108C108.4 1205.5 106.9 1205.5 105.9 1205.4C104.1 1205.9 104 1204.6 103.9 1203.3V1202.2C103.7 1201.1 102.6 1201.3 101.5 1201.5C100.7 1201.5 100 1201.8 99.5 1201.5H92.4C92.2 1203.8 89.9 1203.8 87.8 1203.7C86.8 1203.7 85.8 1203.7 85.1 1203.9C84.7 1204.1 84.3 1204.4 84 1204.7C83.2 1205.3 82.4 1205.9 81.2 1205.5C80.6 1206.6 79.5 1207.7 77.9 1207.6C77.4 1207.6 77.1 1208 76.8 1208.3C76.6 1208.6 76.4 1208.8 76.1 1208.9C72.5 1210.1 70.2 1209.9 68.3 1209.6C66.2 1209.3 64.6 1209.1 62.2 1211C61.9 1211 61.5 1210.7 61.1 1210.4C60.7 1210 60.2 1209.6 59.8 1209.7H59.2C58.3 1209.7 57.4 1209.7 57.5 1211C56 1210.8 54.4 1211 52.9 1211C51.4 1211 49.4 1211.3 47.6 1211C46.4 1210.8 45.1 1211 43.9 1211C42.7 1211.2 41.4 1211.3 40.3 1211C40.3 1211.5 40 1212.3 39.6 1212.3C37.8 1211.3 36.2 1211 34.4 1211.2C33 1215.1 28.4 1214.8 24.6 1214.4C21.5 1214.1 18.9 1213.9 19.2 1216.2C18.3 1216.4 16.8 1216.4 15.2 1216.4C15.2 1216.9 15.2 1217.4 15 1218C13.1 1218.6 11.4 1218.4 9.6 1218H9.3C9.3 1217.8 8.8 1218 8.2 1218C7.6 1218 7.5 1218.2 7.2 1218.2C5.6 1220 2.4 1221.7 0 1221.8V1215C2 1215 5.6 1211.2 8 1211.3C7.1 1207.2 11.4 1211.5 15.7 1211C16.6 1211 22.8 1205.2 23.1 1205.1C23.7 1205.1 24.6 1204.7 25.7 1204.5C29 1203.6 33.8 1202.3 35.7 1203.5H41.2V1201.9H49V1202.8C49.5 1199.5 58.1 1199.2 65.7 1198.9C70.9 1198.7 75.6 1198.6 76.9 1197.4C79.1 1196 81.3 1195.4 83.8 1195.9C85.4 1195.7 85.5 1195.4 85.8 1195C86.1 1194.5 86.4 1193.9 88.6 1193.2C88.9 1193.2 89.2 1193.4 89.6 1193.6C90 1193.9 90.4 1194.2 90.7 1194C91.1 1193.7 91.8 1193.4 92.4 1193.1C92.9 1192.9 93.3 1192.7 93.6 1192.5C94.8 1191.7 96.1 1191.7 97.6 1191.8H103.7C106.6 1191.8 109.5 1191.8 112.5 1192C113.8 1192.2 115.1 1193 116.4 1193.7C117.8 1194.6 119.2 1195.4 120.5 1195.3C128.4 1197.8 135.8 1198.1 144.1 1197.3C148.9 1197.5 152.9 1195.2 156.9 1192.9C161.8 1190.1 166.6 1187.4 172.6 1189.3H173.4C173.8 1189.3 173.8 1189.1 174 1189.1C175.5 1189.4 176.7 1189.1 178.3 1188.8C181.7 1188 187.2 1186.7 202.4 1189.7C204.2 1190 206 1189.9 207.8 1189.7C209.7 1189.7 211.6 1189.5 213.4 1189.9C215.6 1190.2 219.1 1191.1 222.3 1191.9C224.6 1192.5 226.8 1193 228.3 1193.3C229.4 1193.3 230.2 1194 231.1 1194.7C232 1195.4 232.9 1196.1 234.1 1196.1C235.3 1196.1 234.6 1196.1 235 1195.9C236.2 1195.6 237.7 1195.2 237.7 1197C239.7 1197 240.6 1197.6 241.5 1198.1C242.5 1198.6 243.4 1199.1 245.6 1199L253.9 1198.6C254.8 1198.8 256.2 1198.9 257.9 1199.1C262.8 1199.5 269.8 1200.1 270.5 1203.1C270.9 1203.1 271.2 1203.1 271.6 1203.3C271.5 1203.3 271.3 1203.3 271.2 1203.1H273.1C274.2 1202.9 275.4 1202.8 276.4 1203.3C279.4 1206.4 281.8 1206.6 284.7 1206.7C286.7 1206.7 289 1207 291.8 1208.2C291.9 1208.2 292.1 1208 292.3 1207.8C292.6 1207.5 292.9 1207.2 293.2 1207.2C294.6 1207.5 296 1207.4 297.5 1207.4C299.7 1207.4 301.9 1207.4 303.7 1208.2C304.8 1208.7 305.9 1209 307.1 1209.3C308 1209.5 308.8 1209.8 309.7 1210.1C310.3 1210.3 310.9 1210.7 311.5 1211C312.8 1211.7 314.1 1212.4 315.7 1212.1C318.6 1211.8 320.4 1213.2 322.2 1214.5C323.5 1215.5 324.7 1216.4 326.4 1216.8C326.8 1216.8 326.9 1217.6 326.9 1217.9V1218.1C327.4 1218.6 328.1 1218.6 328.9 1218.6C329.7 1218.6 330.2 1218.6 330.7 1219C334.3 1221 338 1222 341.8 1223C344.2 1223.6 346.8 1224.3 349.4 1225.3C362.3 1230.7 369 1226.7 376.1 1222.3C382.9 1218.2 390.2 1213.8 403.6 1217.1H404.4C407.7 1216.8 413.1 1216.4 415.6 1217.8C417.4 1218.2 418 1218.7 418.5 1219.2C419.3 1220 420 1220.7 424.7 1220.4C432.4 1219.2 435.9 1220.6 441 1222.7C442.7 1223.4 444.6 1224.2 446.8 1224.9C448 1224.9 449.6 1224.9 451.3 1224.7C454.9 1224.4 459.2 1224 462.4 1225.7C463.5 1224.8 464.3 1224.9 465.4 1225C466.9 1225.2 469 1225.4 472.9 1223.1C474.1 1222.4 475.7 1222.4 477.2 1222.4C478.7 1222.4 480.2 1222.4 481.4 1221.8C489.1 1217.5 493 1216.2 500.2 1216.4L510 1211.4C510.3 1211.2 513.7 1210.4 517.1 1209.6C520.4 1208.8 523.7 1208 524.4 1207.8C530.9 1204.4 533.4 1204.3 536.4 1204.3C539.4 1204.3 540.3 1204.3 543.7 1203.4C544.8 1202.8 546.2 1203 547.6 1203.2C548.7 1203.2 549.8 1203.5 550.7 1203.2H552.7C553.3 1203.2 553.7 1203.4 554.1 1203.8C554.1 1203.8 554.3 1204 554.4 1204.1C555.5 1204.6 556.6 1204.1 557.8 1203.7C558.3 1203.5 558.7 1203.4 559.2 1203.2C559.6 1203.5 559.8 1203.8 560.1 1204.2C560.3 1204.6 560.6 1205 561.1 1205.5C561.6 1202.1 573.3 1200.5 580.6 1199.5C582.8 1199.2 584.6 1198.9 585.6 1198.7C587.9 1197.8 590.1 1198.3 592.2 1198.7C594.4 1199.2 596.6 1199.7 598.8 1198.7C601.4 1197.4 603.5 1196.6 606.3 1197.2C606.5 1193.7 616.3 1194.2 620.4 1196.1C620.6 1196.1 620.9 1196.4 621.1 1196.6C621.7 1197 622.2 1197.5 623 1197.2C625 1195.4 625.6 1195.9 626.2 1196.5C626.9 1197.1 627.7 1197.8 630.3 1196.1C635.7 1195.2 637.3 1195.7 639.5 1196.5C640.6 1196.9 641.9 1197.3 643.9 1197.6C644.2 1197.6 644.5 1198 644.9 1198.3C645.4 1198.8 645.9 1199.3 646.5 1199.2C651.3 1197 652.9 1197.7 654.5 1198.4C655.8 1199 657 1199.5 659.9 1198.4C661.1 1198.1 662.1 1199 662.9 1199.7C663.4 1200.1 663.8 1200.5 664.1 1200.6C667.2 1201.4 667.9 1201.3 668.6 1201.2C669.4 1201.2 670.2 1200.9 673.8 1201.7C674.1 1202.3 674.7 1202.1 675.3 1201.9C675.7 1201.9 676.1 1201.6 676.4 1201.7H677.2C677.5 1201.4 677.9 1201.7 678.3 1201.7C678.7 1201.9 679.1 1202.1 679.4 1201.9C680.9 1201.1 682 1201.9 683.1 1202.8C685.1 1200.9 687.9 1200.3 690.9 1201L693.1 1197.5C694.4 1199.2 696.6 1199.4 698.2 1198.3C699.2 1196.2 701.3 1196.3 703.5 1196.7H704.6C705.4 1196.5 706.1 1196.3 706 1197.3L705.3 1197.8C705.9 1197.4 706.4 1197.2 706.6 1197.2C706.9 1196.5 707.3 1195.8 707.9 1195.5C711.3 1195.8 721.5 1195.3 725.4 1195C725.6 1195 725.8 1194.7 726 1194.6C727.1 1193.8 728.2 1193 729.2 1195.1C729.8 1195.1 730 1194.4 730.2 1193.7C730.4 1193.2 730.5 1192.8 730.8 1192.5C732.8 1191.2 734.6 1191.8 736.3 1192.5C738.7 1193.4 740.8 1194.2 743 1189.8C743.4 1190 743.7 1190.4 744 1190.6C744.3 1190.9 744.5 1191.2 744.9 1191.2C745.4 1190.9 746.3 1190.6 747.2 1189.9C748.8 1189.2 750.7 1188.3 751.1 1187.8C751.3 1187.5 751.5 1187.2 751.7 1186.9C752 1186.3 752.3 1185.8 752.9 1185.8C754.4 1185.8 755.4 1186.3 756.3 1186.8C757.5 1187.4 758.4 1187.9 759.7 1186.5C760.3 1185.8 761.1 1185.8 761.9 1185.7C762.4 1185.7 762.9 1185.7 763.3 1185.4C765.3 1183.4 765.6 1183.6 766.7 1184.3C767.1 1184.5 767.6 1184.8 768.3 1185.1C769.6 1184.9 770.6 1184.2 771.5 1183.5C773.3 1182.2 775.4 1180.7 780.8 1181.5C782.3 1179.2 787.2 1180.5 789.1 1181H789.7C790 1181 790.5 1180.7 790.9 1180.4L790.6 1180.8H790.4V1181.8Z" fill="#F6F6F6"/>
</svg>
