<svg width="512" height="512" viewBox="0 0 512 512" fill="none" xmlns="http://www.w3.org/2000/svg">
<g clip-path="url(#clip0_1413_85)">
<path d="M512 256.002C512 219.82 493.653 187.927 465.749 169.111C472.171 136.087 462.592 100.567 437.013 74.9671C411.435 49.3885 375.915 39.8098 342.869 46.2311C324.053 18.3271 292.16 -0.0195312 255.979 -0.0195312C219.797 -0.0195312 187.904 18.3271 169.088 46.2311C136.064 39.8098 100.523 49.3885 74.944 74.9671C49.3653 100.546 39.7866 136.066 46.2079 169.111C18.3039 187.927 -0.0427246 219.82 -0.0427246 256.002C-0.0427246 292.183 18.3039 324.076 46.2079 342.892C39.7866 375.916 49.3653 411.458 74.944 437.036C100.523 462.615 136.043 472.194 169.088 465.772C187.904 493.676 219.797 512.023 255.979 512.023C292.16 512.023 324.053 493.676 342.869 465.772C375.893 472.194 411.435 462.615 437.013 437.036C462.592 411.458 472.171 375.938 465.749 342.892C493.653 324.076 512 292.183 512 256.002ZM254.059 328.94C245.803 337.196 234.944 341.314 224.043 341.314C213.141 341.314 202.176 337.154 193.835 328.834L134.485 271.319L164.203 240.663L223.787 298.412L347.712 176.791L377.664 207.191L254.059 328.94Z" fill="#4AB58E"/>
</g>
<defs>
<clipPath id="clip0_1413_85">
<rect width="512" height="512" fill="white"/>
</clipPath>
</defs>
</svg>
