<svg xmlns="http://www.w3.org/2000/svg" viewBox="0 0 1600 700">
  <defs>
    <linearGradient id="sky" x1="0" x2="0" y1="0" y2="1">
      <stop offset="0%" stop-color="#1d4b8f"/>
      <stop offset="45%" stop-color="#357fc9"/>
      <stop offset="100%" stop-color="#95d2f3"/>
    </linearGradient>
    <linearGradient id="water" x1="0" x2="0" y1="0" y2="1">
      <stop offset="0%" stop-color="#2b73be"/>
      <stop offset="100%" stop-color="#114d8d"/>
    </linearGradient>
    <linearGradient id="sun" x1="0" x2="1">
      <stop offset="0%" stop-color="#ffd84d"/>
      <stop offset="100%" stop-color="#f5971d"/>
    </linearGradient>
    <filter id="soft" x="-10%" y="-10%" width="120%" height="120%">
      <feGaussianBlur stdDeviation="3"/>
    </filter>
  </defs>
  <rect width="1600" height="700" fill="url(#sky)"/>
  <g fill="none" stroke-linecap="round" stroke-linejoin="round" opacity=".88">
    <path d="M80 80c90-70 250-30 290 80s-25 170-110 180-170-20-220-100 10-120 40-160z" stroke="#b4e6ff" stroke-width="18"/>
    <path d="M60 105c90-60 215-25 250 55s-10 130-70 135-135-20-170-85 5-80-10-105z" stroke="#204b93" stroke-width="10"/>
    <path d="M360 30c120-80 250-20 300 60s30 170-90 220-230 10-290-75 15-155 80-205z" stroke="#f5ca2d" stroke-width="20"/>
    <path d="M390 70c105-65 200-22 238 44s20 132-72 168-182 7-230-56 12-105 64-156z" stroke="#dbefff" stroke-width="11"/>
    <path d="M1180 50c95-48 180-20 220 38s15 122-62 152-168 6-213-52 8-93 55-138z" stroke="#dce9ff" stroke-width="12"/>
    <path d="M1360 40c70-44 140-18 177 28s14 100-48 125-130 8-168-38 4-77 39-115z" stroke="#f2c928" stroke-width="11"/>
  </g>
  <g opacity=".7" filter="url(#soft)">
    <circle cx="530" cy="120" r="46" fill="url(#sun)"/>
    <circle cx="1185" cy="82" r="16" fill="#f7f2bc"/>
    <circle cx="1405" cy="70" r="14" fill="#f7f2bc"/>
    <circle cx="126" cy="65" r="13" fill="#f7f2bc"/>
  </g>
  <g fill="#1c4a6f">
    <path d="M0 510c78-20 167-15 249 12 69 22 142 30 226 18 67-10 135-35 206-41 120-10 179 52 300 45 118-7 170-58 282-54 91 3 168 35 337 27v183H0z" opacity=".55"/>
    <path d="M0 445c77 5 132 48 228 55 105 8 145-23 267-19 118 4 170 36 279 22 98-13 157-56 273-54 126 3 173 44 283 47 95 2 169-33 270-38v242H0z" fill="#2767ab"/>
  </g>
  <g fill="none" stroke-linecap="round" opacity=".78">
    <path d="M0 480c100 20 135 55 218 64 121 12 181-34 314-29 132 6 170 59 305 57 126-3 163-42 290-50 160-10 232 55 473 34" stroke="#f8d24a" stroke-width="10"/>
    <path d="M0 520c110 25 162 57 258 66 135 13 204-34 348-31 135 3 188 49 325 50 144 1 197-50 343-54 137-4 205 38 326 27" stroke="#f4861f" stroke-width="8"/>
    <path d="M0 556c97 22 173 55 270 60 142 8 199-42 349-41 143 1 213 44 355 43 155-1 216-54 374-58 109-3 157 16 252 20" stroke="#dceeff" stroke-width="7"/>
  </g>
  <g transform="translate(935 215)">
    <rect x="0" y="96" width="230" height="170" fill="#f6fbff"/>
    <rect x="28" y="70" width="78" height="126" fill="#f6fbff"/>
    <rect x="127" y="18" width="60" height="178" fill="#f6fbff"/>
    <rect x="208" y="55" width="35" height="141" fill="#f6fbff"/>
    <polygon points="14,96 115,96 65,38" fill="#dceeff"/>
    <polygon points="18,70 114,70 66,13" fill="#dceeff"/>
    <polygon points="121,18 193,18 157,-34" fill="#dceeff"/>
    <polygon points="204,55 246,55 226,15" fill="#dceeff"/>
    <rect x="73" y="130" width="30" height="136" fill="#c77335"/>
    <rect x="74" y="131" width="28" height="16" fill="#8d4f1b"/>
    <rect x="45" y="163" width="24" height="103" fill="#f6fbff"/>
    <rect x="133" y="104" width="16" height="92" rx="8" fill="#18355e"/>
  </g>
  <g transform="translate(680 180)">
    <rect x="84" y="130" width="24" height="170" fill="#4e270e"/>
    <circle cx="96" cy="88" r="23" fill="#e4ad73"/>
    <path d="M42 126c22-38 108-38 122 0l13 155H31z" fill="#7a3f1f"/>
    <path d="M16 177c29-8 54-22 72-44" stroke="#f2ede8" stroke-width="14"/>
    <path d="M176 181c-21-8-39-23-53-42" stroke="#f2ede8" stroke-width="14"/>
    <path d="M89 83c11-9 22-10 33-6" stroke="#3c2617" stroke-width="7"/>
    <circle cx="135" cy="78" r="12" fill="#f7dd7e"/>
  </g>
  <g transform="translate(1285 235)">
    <path d="M36 192c20-78 19-134 1-191 54 58 88 123 99 191" fill="#183e1f"/>
    <path d="M62 196c15-75 13-129-1-186 46 53 75 115 83 186" fill="#2d6f39"/>
    <path d="M80 198c9-68 9-118-2-171 38 45 60 102 67 171" fill="#245733"/>
    <path d="M0 202c25-18 55-17 88 0" stroke="#183e1f" stroke-width="14"/>
  </g>
  <g transform="translate(220 410)">
    <path d="M0 80h560l-60 24H12z" fill="#0f2d53"/>
    <path d="M14 104h492l-28 14H26z" fill="#e8f4ff"/>
    <path d="M90 60l288-3 92 23H40z" fill="#e9f7ff"/>
    <path d="M25 80l459 0" stroke="#f7fcff" stroke-width="6"/>
    <path d="M78 52l289 0" stroke="#c77335" stroke-width="11"/>
    <path d="M470 80l90-6" stroke="#18355e" stroke-width="8"/>
    <path d="M505 78l10-54" stroke="#18355e" stroke-width="4"/>
  </g>
</svg>
