<svg width="70" height="70" viewBox="0 0 70 70" fill="none" xmlns="http://www.w3.org/2000/svg">
<path d="M55.4447 33.2223C55.4447 29.3215 54.4179 25.4894 52.4675 22.1112C50.517 18.7329 47.7117 15.9276 44.3335 13.9772C40.9553 12.0268 37.1232 11 33.2223 11C29.3215 11 25.4894 12.0268 22.1112 13.9772C18.7329 15.9276 15.9276 18.7329 13.9772 22.1112C12.0268 25.4894 11 29.3215 11 33.2223C11 37.1232 12.0268 40.9553 13.9772 44.3335C15.9276 47.7117 18.733 50.517 22.1112 52.4675L33.2223 33.2223H55.4447Z" fill="#FC868B"/>
<path d="M15.3125 42.5299C16.2584 46.0598 18.0602 49.3021 20.5583 51.9693C23.0565 54.6366 26.174 56.6466 29.6345 57.8213C33.095 58.996 36.7919 59.2991 40.3976 58.7038C44.0032 58.1085 47.4064 56.6332 50.3057 54.4085C53.205 52.1838 55.5109 49.2784 57.0192 45.9496C58.5274 42.6209 59.1914 38.9716 58.9524 35.3249C58.7134 31.6782 57.5787 28.1468 55.6489 25.0434C53.7191 21.94 51.0537 19.3604 47.8888 17.5332L36.7776 36.7783L15.3125 42.5299Z" fill="#2EBCFA"/>
<path d="M33.2224 55.4448C45.4955 55.4448 55.4448 45.4955 55.4448 33.2224C55.4448 27.9917 53.6376 23.1831 50.6135 19.3869C46.8173 16.3629 42.0087 14.5557 36.778 14.5557C24.5049 14.5557 14.5557 24.5049 14.5557 36.778C14.5557 42.0087 16.3629 46.8173 19.3869 50.6135C23.1831 53.6376 27.9917 55.4448 33.2224 55.4448Z" fill="#2D6388"/>
<path d="M17.7178 17.3023C18.3642 16.6726 19.0489 16.082 19.768 15.5342C19.995 15.5902 20.2133 15.6951 20.4065 15.8498L36.5792 28.7946C38.3988 30.251 38.5247 32.9876 36.8761 34.6347C35.2274 36.2819 32.4885 36.1561 31.0307 34.3381L18.0745 18.1797C17.8658 17.9195 17.7476 17.6138 17.7178 17.3023Z" fill="white"/>
</svg>
