<svg width="70" height="70" viewBox="0 0 70 70" fill="none" xmlns="http://www.w3.org/2000/svg">
<path d="M23 18C23 15.7909 24.7909 14 27 14H43C45.2091 14 47 15.7909 47 18V52C47 54.2091 45.2091 56 43 56H27C24.7909 56 23 54.2091 23 52V18Z" fill="#1AD3BB"/>
<path d="M47 29V47C42.0294 47 38 42.9706 38 38C38 33.0294 42.0294 29 47 29Z" fill="#1A6F66"/>
<path d="M23 41V23C27.9706 23 32 27.0294 32 32C32 36.9706 27.9706 41 23 41Z" fill="#005E7A"/>
<path d="M23 23H14V32C14 36.9706 18.0294 41 23 41L23 23Z" fill="#985184"/>
<path d="M47 47H56V38C56 33.0294 51.9706 29 47 29V47Z" fill="#FC868B"/>
</svg>
