<svg id="Layer_1" data-name="Layer 1" xmlns="http://www.w3.org/2000/svg" xmlns:xlink="http://www.w3.org/1999/xlink" viewBox="0 0 70 70">
  <defs>
    <mask id="mask" x="0" y="0" width="70" height="70" maskUnits="userSpaceOnUse">
      <g id="b">
        <path id="a" d="M4,0H65c4,0,5,1,5,5V65c0,4-1,5-5,5H4c-3,0-4-1-4-5V5C0,1,1,0,4,0Z" fill="#fff" fill-rule="evenodd"/>
      </g>
    </mask>
    <linearGradient id="linear-gradient" x1="-1172.36" y1="477.94" x2="-1173.36" y2="476.94" gradientTransform="matrix(70, 0, 0, -70, 82134.99, 33455.73)" gradientUnits="userSpaceOnUse">
      <stop offset="0" stop-color="#7cc098"/>
      <stop offset="1" stop-color="#5f8a71"/>
    </linearGradient>
  </defs>
  <g mask="url(#mask)">
    <g>
      <path d="M0,0H70V70H0Z" fill-rule="evenodd" fill="url(#linear-gradient)"/>
      <path d="M4,1H65c2.67,0,4.33.67,5,2V0H0V3C.67,1.67,2,1,4,1Z" fill="#fff" fill-opacity="0.38" fill-rule="evenodd"/>
      <path d="M4,69H65c2.67,0,4.33-1,5-3v4H0V66A3.92,3.92,0,0,0,4,69Z" fill-opacity="0.38" fill-rule="evenodd"/>
      <path d="M4,69a3.66,3.66,0,0,1-4-4v-35L22.13,12.86h23.3l2,3.78v17l6.23-4.15,5.89,6.25-12.12,9v10L32.2,69Z" fill-opacity="0.15" fill-rule="evenodd"/>
      <g>
        <g opacity="0.4" style="isolation: isolate">
          <path d="M21.61,38.9,23,38.79a2.3,2.3,0,0,0,.5,1,1.48,1.48,0,0,0,1,.33,1.77,1.77,0,0,0,1-.28.83.83,0,0,0,.33-.65.62.62,0,0,0-.17-.44,1.88,1.88,0,0,0-.49-.33c-.16-.06-.55-.17-1.15-.33a5,5,0,0,1-1.59-.71A1.86,1.86,0,0,1,21.83,36a1.51,1.51,0,0,1,.33-1,2,2,0,0,1,.88-.72,3.48,3.48,0,0,1,1.37-.22,3.17,3.17,0,0,1,2,.61,2.06,2.06,0,0,1,.71,1.53l-1.43.06a1.24,1.24,0,0,0-.38-.77,1.42,1.42,0,0,0-.88-.22,1.78,1.78,0,0,0-1,.27.49.49,0,0,0-.22.44.48.48,0,0,0,.22.44,3,3,0,0,0,1.31.49,7.26,7.26,0,0,1,1.54.5,1.87,1.87,0,0,1,.76.71,2.33,2.33,0,0,1,.28,1.15A2.29,2.29,0,0,1,27,40.43a2.2,2.2,0,0,1-.93.77,4.37,4.37,0,0,1-1.54.27,3.38,3.38,0,0,1-2.08-.6A3.17,3.17,0,0,1,21.61,38.9Z"/>
          <path d="M28.41,41.2V34.13h2.14L31.81,39l1.26-4.82H35.2V41.2H33.89V35.66L32.52,41.2H31.15l-1.37-5.54V41.2Z"/>
          <path d="M36.19,38.9l1.37-.11a2.4,2.4,0,0,0,.49,1,1.57,1.57,0,0,0,1.05.27,1.87,1.87,0,0,0,1-.27.87.87,0,0,0,.33-.66.64.64,0,0,0-.17-.44,1.88,1.88,0,0,0-.49-.33l-1.15-.32a3.27,3.27,0,0,1-1.59-.72,1.82,1.82,0,0,1-.66-1.42,1.54,1.54,0,0,1,.33-1,1.83,1.83,0,0,1,.88-.71A3.31,3.31,0,0,1,39,34a3.2,3.2,0,0,1,2,.6,2.05,2.05,0,0,1,.72,1.54l-1.43.05a1.3,1.3,0,0,0-.38-.77,1.44,1.44,0,0,0-.88-.21,1.81,1.81,0,0,0-1,.27.5.5,0,0,0-.21.44.51.51,0,0,0,.21.44,3.3,3.3,0,0,0,1.32.49,7,7,0,0,1,1.53.49,1.92,1.92,0,0,1,.77.72A2.27,2.27,0,0,1,42,39.23a2.32,2.32,0,0,1-.33,1.15,1.82,1.82,0,0,1-.93.76,4.19,4.19,0,0,1-1.54.28,3.36,3.36,0,0,1-2.08-.6A3,3,0,0,1,36.19,38.9Z"/>
          <path d="M57.16,37,52.62,32.1a1.37,1.37,0,0,0-2.36,1.06V35.9H45.32v4h4.94v3A1.37,1.37,0,0,0,52.62,44l4.54-4.92A1.55,1.55,0,0,0,57.16,37Z"/>
          <path d="M18.11,35.9H10a1.79,1.79,0,0,0-1.7,1.35A2,2,0,0,0,9.94,39.9h8.17Z"/>
          <path d="M43.43,14.72H20.13a2,2,0,0,0-2,2V27.93h2.3V21.12a.27.27,0,0,1,.3-.3h22.1a.27.27,0,0,1,.3.3v6.81h2.3V16.72A2,2,0,0,0,43.43,14.72Zm-8.5,4.7h-6.1a.47.47,0,0,1-.5-.5c0-.3.1-.5.4-.5h6.1a.47.47,0,0,1,.5.5A.46.46,0,0,1,34.93,19.42Z"/>
          <path d="M43.13,47.21v6.91a.27.27,0,0,1-.3.3H20.73a.27.27,0,0,1-.3-.3V47.21h-2.3V57.42a2,2,0,0,0,2,2h23.3a2,2,0,0,0,2-2V47.21ZM31.83,58.32a1.5,1.5,0,1,1,1.5-1.5A1.47,1.47,0,0,1,31.83,58.32Z"/>
        </g>
        <g style="isolation: isolate">
          <path d="M23.61,37,25,36.93a2.3,2.3,0,0,0,.5,1,1.48,1.48,0,0,0,1,.33,1.85,1.85,0,0,0,1-.27.87.87,0,0,0,.33-.66.62.62,0,0,0-.17-.44,1.88,1.88,0,0,0-.49-.33l-1.15-.33a5,5,0,0,1-1.59-.71,1.84,1.84,0,0,1-.66-1.43,1.51,1.51,0,0,1,.33-1,1.87,1.87,0,0,1,.88-.71,3.31,3.31,0,0,1,1.37-.22,3.23,3.23,0,0,1,2,.6,2.06,2.06,0,0,1,.71,1.53l-1.43.06a1.27,1.27,0,0,0-.38-.77,1.42,1.42,0,0,0-.88-.22,1.7,1.7,0,0,0-1,.28.48.48,0,0,0-.22.43.48.48,0,0,0,.22.44,3.13,3.13,0,0,0,1.31.5,6.81,6.81,0,0,1,1.54.49,1.87,1.87,0,0,1,.76.71,2.33,2.33,0,0,1,.28,1.15A2.27,2.27,0,0,1,29,38.57a2.13,2.13,0,0,1-.93.77,4.37,4.37,0,0,1-1.54.27,3.32,3.32,0,0,1-2.08-.6A3.15,3.15,0,0,1,23.61,37Z" fill="#fff"/>
          <path d="M30.41,39.34V32.27h2.14l1.26,4.82,1.26-4.82H37.2v7.07H35.89V33.81l-1.37,5.53H33.15l-1.37-5.53v5.53Z" fill="#fff"/>
          <path d="M38.19,37l1.37-.11a2.4,2.4,0,0,0,.49,1,1.57,1.57,0,0,0,1.05.27,1.87,1.87,0,0,0,1-.27.85.85,0,0,0,.33-.66.64.64,0,0,0-.17-.44,1.66,1.66,0,0,0-.49-.32c-.17-.06-.55-.17-1.15-.33a3.27,3.27,0,0,1-1.59-.72,1.82,1.82,0,0,1-.66-1.42,1.55,1.55,0,0,1,.33-1,1.83,1.83,0,0,1,.88-.71A3.48,3.48,0,0,1,41,32.16a3.2,3.2,0,0,1,2,.6,2.07,2.07,0,0,1,.72,1.54l-1.43.05a1.24,1.24,0,0,0-.38-.76,1.37,1.37,0,0,0-.88-.22,1.81,1.81,0,0,0-1,.27.5.5,0,0,0-.21.44.51.51,0,0,0,.21.44,3.3,3.3,0,0,0,1.32.49,7.64,7.64,0,0,1,1.53.49,1.92,1.92,0,0,1,.77.72,2.32,2.32,0,0,1-.05,2.3,1.89,1.89,0,0,1-.93.77,4.42,4.42,0,0,1-1.54.27,3.36,3.36,0,0,1-2.08-.6A3,3,0,0,1,38.19,37Z" fill="#fff"/>
          <path d="M59.16,35.18l-4.54-4.93a1.37,1.37,0,0,0-2.36,1.06V34H47.32v4h4.94v3a1.37,1.37,0,0,0,2.36,1.06l4.54-4.93A1.54,1.54,0,0,0,59.16,35.18Z" fill="#fff"/>
          <path d="M20.11,34H12a1.79,1.79,0,0,0-1.7,1.35A2,2,0,0,0,11.94,38h8.17Z" fill="#fff"/>
          <path d="M45.43,12.86H22.13a2,2,0,0,0-2,2V26.07h2.3V19.26a.27.27,0,0,1,.3-.3h22.1a.27.27,0,0,1,.3.3v6.81h2.3V14.86A2,2,0,0,0,45.43,12.86Zm-8.5,4.7h-6.1a.47.47,0,0,1-.5-.5c0-.3.1-.5.4-.5h6.1a.47.47,0,0,1,.5.5A.46.46,0,0,1,36.93,17.56Z" fill="#fff"/>
          <path d="M45.13,45.35v6.91a.27.27,0,0,1-.3.3H22.73a.27.27,0,0,1-.3-.3V45.35h-2.3V55.56a2,2,0,0,0,2,2h23.3a2,2,0,0,0,2-2V45.35ZM33.83,56.46a1.5,1.5,0,1,1,1.5-1.5A1.47,1.47,0,0,1,33.83,56.46Z" fill="#fff"/>
        </g>
      </g>
    </g>
  </g>
</svg>
