<?xml version="1.0" encoding="UTF-8"?>
<svg xmlns="http://www.w3.org/2000/svg" xmlns:xlink="http://www.w3.org/1999/xlink" version="1.2" >
<font id="Lato Light Italic">
<font-face  font-family="Lato" units-per-em="2000" ascent="1610" descent="-390" font-style="italic" font-weight="300" font-stretch="normal" slope="-7" cap-height="1415" x-height="995" underline-position="-481" underline-thickness="59" />
<missing-glyph  horiz-adv-x="1025" d="M262 1134 Q283 1154 308.5 1172 Q334 1190 364 1204 Q394 1218 429.5 1226.5 Q465 1235 507 1235 Q561 1235 607.5 1219.5 Q654 1204 688.5 1174.5 Q723 1145 742.5 1103.5 Q762 1062 762 1010 Q762 955 745.5 915.5 Q729 876 704.5 846.5 Q680 817 651 794.5 Q622 772 596.5 752 Q571 732 552.5 712.5 Q534 693 532 668 L522 554 L457 554 L451 676 Q449 707 465 730.5 Q481 754 505.5 775 Q530 796 559.5 817 Q589 838 614 864.5 Q639 891 656 924.5 Q673 958 673 1005 Q673 1041 659 1069 Q645 1097 621.5 1116.5 Q598 1136 566.5 1146.5 Q535 1157 500 1157 Q454 1157 421 1145.5 Q388 1134 365 1119.5 Q342 1105 328.5 1093.5 Q315 1082 308 1082 Q294 1082 287 1093 L262 1134 Z M410 265 Q410 297 432 320 Q454 343 487 343 Q519 343 541 320 Q563 297 563 265 Q563 233 541 210 Q519 187 487 187 Q454 187 432 210 Q410 233 410 265 Z M47 1415 L978 1415 L978 0 L47 0 L47 1415 Z M82 36 L941 36 L941 1379 L82 1379 L82 36 Z " />
<glyph glyph-name="uni0000" d="" />
<glyph glyph-name="&amp;#x20;" unicode="&#x20;" horiz-adv-x="504" d="" />
<glyph glyph-name="&amp;#xa0;" unicode="&#xa0;" horiz-adv-x="504" d="" />
<glyph glyph-name="A" unicode="A" horiz-adv-x="1217" d="M888 513 L713 1233 Q709 1251 705 1272.5 Q701 1294 697 1319 Q687 1294 677.5 1272.5 Q668 1251 660 1232 L308 513 L888 513 Z M1117 0 L1040 0 Q1026 0 1018 7.5 Q1010 15 1007 26 L906 440 L272 440 L69 26 Q64 15 53 7.5 Q42 0 29 0 L-47 0 L659 1415 L758 1415 L1117 0 Z " />
<glyph glyph-name="Aogonek" unicode="&#x104;" horiz-adv-x="1217" d="M888 513 L713 1233 Q709 1251 705 1272.5 Q701 1294 697 1319 Q687 1294 677.5 1272.5 Q668 1251 660 1232 L308 513 L888 513 Z M1183 -285 Q1154 -309 1113 -323.5 Q1072 -338 1029 -338 Q963 -338 925 -305 Q887 -272 887 -214 Q887 -180 900 -149 Q913 -118 934 -91 Q955 -64 982 -41 Q1009 -18 1038 0 Q1014 1 1007 26 L906 440 L272 440 L69 26 Q64 15 53 7.5 Q42 0 29 0 L-47 0 L659 1415 L758 1415 L1117 0 L1107 0 Q1086 -12 1060.5 -30 Q1035 -48 1013.5 -72.5 Q992 -97 977.5 -126.5 Q963 -156 963 -190 Q963 -231 988.5 -254 Q1014 -277 1054 -277 Q1079 -277 1097 -271.5 Q1115 -266 1127.5 -260 Q1140 -254 1147.5 -248.5 Q1155 -243 1160 -243 Q1169 -243 1172 -251 L1183 -285 Z " />
<glyph glyph-name="AE" unicode="&#xc6;" horiz-adv-x="1725" d="M871 513 L871 1334 Q861 1310 850.5 1288 Q840 1266 827 1245 L371 513 L871 513 Z M964 1333 L964 756 L1530 756 L1519 676 L964 676 L964 82 L1563 82 L1551 0 L871 0 L871 440 L326 440 L68 26 Q61 15 50 7.5 Q39 0 25 0 L-52 0 L835 1415 L1725 1415 L1715 1333 L964 1333 Z " />
<glyph glyph-name="B" unicode="B" horiz-adv-x="1176" d="M557 79 Q743 79 842 169.5 Q941 260 941 426 Q941 484 920.5 530.5 Q900 577 860.5 610 Q821 643 763.5 661 Q706 679 632 679 L307 679 L233 79 L557 79 Z M388 1336 L316 751 L595 751 Q692 751 763 780 Q834 809 880 856.5 Q926 904 948 965 Q970 1026 970 1091 Q970 1210 895.5 1273 Q821 1336 666 1336 L388 1336 Z M675 1415 Q777 1415 851 1394 Q925 1373 974 1333.5 Q1023 1294 1046.5 1237 Q1070 1180 1070 1108 Q1070 1040 1048.5 978.5 Q1027 917 986.5 866.5 Q946 816 887.5 779 Q829 742 756 724 Q895 701 967.5 625.5 Q1040 550 1040 429 Q1040 331 1006.5 251.5 Q973 172 909.5 116 Q846 60 755 30 Q664 0 549 0 L124 0 L298 1415 L675 1415 Z " />
<glyph glyph-name="C" unicode="C" horiz-adv-x="1258" d="M667 69 Q740 69 798 81.5 Q856 94 901 112.5 Q946 131 978.5 152.5 Q1011 174 1034 192.5 Q1057 211 1071 223.5 Q1085 236 1093 236 Q1102 236 1106 230 L1142 188 Q1050 95 930.5 39.5 Q811 -16 651 -16 Q529 -16 430.5 28 Q332 72 262.5 153 Q193 234 155.5 347 Q118 460 118 598 Q118 783 174.5 936.5 Q231 1090 329.5 1200 Q428 1310 561.5 1370.5 Q695 1431 850 1431 Q923 1431 981 1419.5 Q1039 1408 1087.5 1386 Q1136 1364 1176.5 1331 Q1217 1298 1255 1256 L1223 1216 Q1212 1204 1197 1204 Q1188 1204 1176.5 1214.5 Q1165 1225 1147.5 1240.5 Q1130 1256 1104.5 1274.5 Q1079 1293 1042.5 1308.5 Q1006 1324 957 1334.5 Q908 1345 844 1345 Q712 1345 598 1293 Q484 1241 400 1145 Q316 1049 268 912 Q220 775 220 605 Q220 481 253 381.5 Q286 282 345 212.5 Q404 143 486 106 Q568 69 667 69 Z " />
<glyph glyph-name="Ccedilla" unicode="&#xc7;" horiz-adv-x="1258" d="M617 -15 Q502 -9 410 37.5 Q318 84 253 164.5 Q188 245 153 355 Q118 465 118 598 Q118 783 174.5 936.5 Q231 1090 329.5 1200 Q428 1310 561.5 1370.5 Q695 1431 850 1431 Q923 1431 981 1419.5 Q1039 1408 1087.5 1386 Q1136 1364 1176.5 1331 Q1217 1298 1255 1256 L1223 1216 Q1212 1204 1197 1204 Q1188 1204 1176.5 1214.5 Q1165 1225 1147.5 1240.5 Q1130 1256 1104.5 1274.5 Q1079 1293 1042.5 1308.5 Q1006 1324 957 1334.5 Q908 1345 844 1345 Q712 1345 598 1293 Q484 1241 400 1145 Q316 1049 268 912 Q220 775 220 605 Q220 481 253 381.5 Q286 282 345 212.5 Q404 143 486 106 Q568 69 667 69 Q740 69 798 81.5 Q856 94 901 112.5 Q946 131 978.5 152.5 Q1011 174 1034 192.5 Q1057 211 1071 223.5 Q1085 236 1093 236 Q1102 236 1106 230 L1142 188 Q1052 97 939 43 Q826 -11 674 -16 L643 -94 Q718 -109 756.5 -136 Q795 -163 795 -214 Q795 -248 780.5 -274.5 Q766 -301 741 -319.5 Q716 -338 681 -347.5 Q646 -357 606 -357 Q569 -357 535 -345.5 Q501 -334 478 -315 L492 -287 Q498 -276 509 -276 Q514 -276 521 -281.5 Q528 -287 539.5 -293 Q551 -299 568 -304.5 Q585 -310 611 -310 Q662 -310 690 -285.5 Q718 -261 718 -219 Q718 -197 707 -182 Q696 -167 676 -157 Q656 -147 628.5 -141.5 Q601 -136 568 -131 L617 -15 Z " />
<glyph glyph-name="D" unicode="D" horiz-adv-x="1413" d="M1318 815 Q1318 690 1293.5 581 Q1269 472 1223.5 381.5 Q1178 291 1113.5 220 Q1049 149 969 100 Q889 51 796 25.5 Q703 0 600 0 L124 0 L298 1415 L774 1415 Q899 1415 1000 1372.5 Q1101 1330 1171.5 1252 Q1242 1174 1280 1063 Q1318 952 1318 815 Z M1215 813 Q1215 934 1183.5 1031 Q1152 1128 1093.5 1195 Q1035 1262 951.5 1298 Q868 1334 764 1334 L388 1334 L233 81 L609 81 Q741 81 852 130.5 Q963 180 1044 274 Q1125 368 1170 504 Q1215 640 1215 813 Z " />
<glyph glyph-name="Eth" unicode="&#xd0;" horiz-adv-x="1420" d="M620 81 Q752 81 862.5 130.5 Q973 180 1053.5 274 Q1134 368 1179 504 Q1224 640 1224 813 Q1224 934 1192.5 1031 Q1161 1128 1102.5 1195 Q1044 1262 960.5 1298 Q877 1334 774 1334 L397 1334 L325 748 L696 748 L689 686 L318 686 L244 81 L620 81 Z M784 1415 Q909 1415 1009.5 1372.5 Q1110 1330 1180.5 1252 Q1251 1174 1289 1063 Q1327 952 1327 815 Q1327 628 1273 477 Q1219 326 1123 220 Q1027 114 895.5 57 Q764 0 610 0 L134 0 L218 686 L20 686 L28 748 L226 748 L308 1415 L784 1415 Z " />
<glyph glyph-name="E" unicode="E" horiz-adv-x="1078" d="M388 1333 L317 757 L884 757 L873 677 L307 677 L234 82 L918 82 L907 0 L124 0 L298 1415 L1080 1415 L1069 1333 L388 1333 Z " />
<glyph glyph-name="Eogonek" unicode="&#x118;" horiz-adv-x="1078" d="M388 1333 L317 757 L884 757 L873 677 L307 677 L234 82 L918 82 L907 0 L820 0 Q799 -12 773.5 -30 Q748 -48 726.5 -72.5 Q705 -97 690.5 -126.5 Q676 -156 676 -190 Q676 -231 701.5 -254 Q727 -277 767 -277 Q792 -277 810 -271.5 Q828 -266 840.5 -260 Q853 -254 860.5 -248.5 Q868 -243 873 -243 Q882 -243 885 -251 L896 -285 Q867 -309 826 -323.5 Q785 -338 742 -338 Q676 -338 638 -305 Q600 -272 600 -214 Q600 -180 613 -149 Q626 -118 647 -91 Q668 -64 695 -41 Q722 -18 751 0 L124 0 L298 1415 L1080 1415 L1069 1333 L388 1333 Z " />
<glyph glyph-name="F" unicode="F" horiz-adv-x="1058" d="M388 1333 L314 734 L905 734 L893 651 L304 651 L224 0 L124 0 L298 1415 L1080 1415 L1069 1333 L388 1333 Z " />
<glyph glyph-name="G" unicode="G" horiz-adv-x="1367" d="M1183 139 Q1130 102 1074.5 73 Q1019 44 956.5 24.5 Q894 5 824 -5.5 Q754 -16 672 -16 Q545 -16 442.5 28.5 Q340 73 268 154 Q196 235 157.5 348.5 Q119 462 119 600 Q119 787 174 940.5 Q229 1094 328 1203 Q427 1312 564 1371.5 Q701 1431 865 1431 Q942 1431 1005 1419.5 Q1068 1408 1120 1386 Q1172 1364 1215 1332 Q1258 1300 1296 1259 L1265 1220 Q1249 1195 1223 1209 Q1209 1215 1185.5 1237 Q1162 1259 1120.5 1283 Q1079 1307 1015 1326 Q951 1345 857 1345 Q716 1345 599 1293 Q482 1241 397.5 1145 Q313 1049 266.5 911.5 Q220 774 220 603 Q220 479 253 379.5 Q286 280 347 210 Q408 140 494 102.5 Q580 65 687 65 Q754 65 810 72.5 Q866 80 915 95 Q964 110 1009 131.5 Q1054 153 1099 180 L1146 564 L899 564 Q888 564 881.5 570.5 Q875 577 877 586 L883 641 L1246 641 L1183 139 Z " />
<glyph glyph-name="H" unicode="H" horiz-adv-x="1403" d="M1306 1415 L1132 0 L1032 0 L1115 679 L307 679 L224 0 L124 0 L298 1415 L398 1415 L317 754 L1125 754 L1206 1415 L1306 1415 Z " />
<glyph glyph-name="Hbar" unicode="&#x126;" horiz-adv-x="1422" d="M1175 1040 L367 1040 L332 754 L1140 754 L1175 1040 Z M1443 1040 L1275 1040 L1147 0 L1047 0 L1130 679 L322 679 L239 0 L139 0 L267 1040 L110 1040 L117 1102 L275 1102 L313 1415 L413 1415 L375 1102 L1183 1102 L1221 1415 L1321 1415 L1283 1102 L1450 1102 L1443 1040 Z " />
<glyph glyph-name="I" unicode="I" horiz-adv-x="495" d="M224 0 L124 0 L297 1415 L397 1415 L224 0 Z " />
<glyph glyph-name="Iogonek" unicode="&#x12e;" horiz-adv-x="495" d="M211 0 Q190 -12 164.5 -30 Q139 -48 117.5 -72.5 Q96 -97 81.5 -126.5 Q67 -156 67 -190 Q67 -231 92.5 -254 Q118 -277 158 -277 Q183 -277 201 -271.5 Q219 -266 231.5 -260 Q244 -254 251.5 -248.5 Q259 -243 264 -243 Q273 -243 276 -251 L287 -285 Q258 -309 217 -323.5 Q176 -338 133 -338 Q67 -338 29 -305 Q-9 -272 -9 -214 Q-9 -180 4 -149 Q17 -118 38 -91 Q59 -64 86 -41 Q113 -18 142 0 L125 0 L298 1415 L398 1415 L225 0 L211 0 Z " />
<glyph glyph-name="J" unicode="J" horiz-adv-x="781" d="M577 441 Q563 324 526.5 238 Q490 152 435 95.5 Q380 39 307.5 11.5 Q235 -16 148 -16 Q94 -16 50 -9 Q6 -2 -37 13 L-30 67 Q-28 75 -22.5 82 Q-17 89 -3 89 Q7 89 19 85.5 Q31 82 48.5 78 Q66 74 90.5 70.5 Q115 67 150 67 Q209 67 263 85.5 Q317 104 360.5 147.5 Q404 191 434.5 262.5 Q465 334 478 439 L598 1415 L697 1415 L577 441 Z " />
<glyph glyph-name="K" unicode="K" horiz-adv-x="1180" d="M316 760 L393 760 Q410 760 423 761.5 Q436 763 447.5 767.5 Q459 772 469 779 Q479 786 490 798 L1082 1386 Q1098 1404 1112.5 1409.5 Q1127 1415 1146 1415 L1227 1415 L585 778 Q567 759 552 747.5 Q537 736 520 730 Q555 718 578 680 L1089 0 L1009 0 Q983 0 973 6.5 Q963 13 955 26 L485 640 Q477 651 469.5 659 Q462 667 451.5 672.5 Q441 678 427 680.5 Q413 683 391 683 L307 683 L223 0 L124 0 L297 1417 L397 1417 L316 760 Z " />
<glyph glyph-name="L" unicode="L" horiz-adv-x="933" d="M849 85 L838 0 L124 0 L298 1415 L397 1415 L233 85 L849 85 Z " />
<glyph glyph-name="Lslash" unicode="&#x141;" horiz-adv-x="958" d="M874 85 L863 0 L149 0 L221 588 L26 487 L35 551 Q35 562 40 568.5 Q45 575 55 580 L232 673 L323 1415 L422 1415 L337 722 L741 937 L734 876 Q732 866 728 858.5 Q724 851 713 846 L326 638 L258 85 L874 85 Z " />
<glyph glyph-name="Lcaron" unicode="&#x13d;" horiz-adv-x="933" d="M793 1457 Q813 1457 813 1436 Q813 1426 808.5 1409.5 Q804 1393 793.5 1363.5 Q783 1334 765 1290 Q747 1246 720 1180 Q713 1166 704.5 1161 Q696 1156 681 1156 L650 1156 L735 1457 L793 1457 Z M849 85 L838 0 L124 0 L298 1415 L397 1415 L233 85 L849 85 Z " />
<glyph glyph-name="M" unicode="M" horiz-adv-x="1686" d="M1589 1415 L1415 0 L1328 0 L1477 1209 Q1480 1234 1486 1262 L856 272 Q840 247 815 247 L799 247 Q772 247 764 272 L362 1265 Q362 1235 359 1210 L211 0 L124 0 L298 1415 L366 1415 Q380 1415 387 1411.5 Q394 1408 402 1396 L806 400 Q810 389 813 377.5 Q816 366 819 354 Q829 376 843 400 L1481 1396 Q1491 1408 1498.5 1411.5 Q1506 1415 1520 1415 L1589 1415 Z " />
<glyph glyph-name="N" unicode="N" horiz-adv-x="1403" d="M1306 1415 L1132 0 L1086 0 Q1073 0 1065 5.5 Q1057 11 1049 22 L363 1254 Q362 1242 361.5 1231 Q361 1220 359 1209 L211 0 L124 0 L298 1415 L347 1415 Q361 1415 367 1411.5 Q373 1408 381 1396 L1067 164 Q1068 178 1068.5 190.5 Q1069 203 1071 214 L1219 1415 L1306 1415 Z " />
<glyph glyph-name="Eng" unicode="&#x14a;" horiz-adv-x="1403" d="M1142 77 L1135 21 L1134 21 L1127 -36 Q1118 -111 1095.5 -171 Q1073 -231 1035.5 -272.5 Q998 -314 946.5 -336.5 Q895 -359 829 -359 Q791 -359 759.5 -351.5 Q728 -344 695 -329 L709 -290 Q714 -277 721 -273.5 Q728 -270 734 -270 Q744 -270 766 -279 Q788 -288 829 -288 Q917 -288 970.5 -227.5 Q1024 -167 1039 -45 L1048 23 L362 1250 Q361 1236 360.5 1222.5 Q360 1209 358 1197 L210 0 L124 0 L297 1415 L346 1415 Q360 1415 367 1411 Q374 1407 381 1396 L1069 167 Q1069 181 1070 195 Q1071 209 1073 221 L1219 1415 L1306 1415 L1147 116 L1142 77 Z " />
<glyph glyph-name="O" unicode="O" horiz-adv-x="1473" d="M1381 816 Q1381 629 1326.5 476 Q1272 323 1175 214 Q1078 105 946 45 Q814 -15 660 -15 Q536 -15 436 29.5 Q336 74 265.5 155 Q195 236 157 349 Q119 462 119 599 Q119 785 174 938.5 Q229 1092 325.5 1201.5 Q422 1311 553.5 1371 Q685 1431 838 1431 Q963 1431 1063.5 1386.5 Q1164 1342 1234.5 1261 Q1305 1180 1343 1066.5 Q1381 953 1381 816 Z M1278 814 Q1278 937 1246.5 1035.5 Q1215 1134 1156 1203.5 Q1097 1273 1013.5 1310.5 Q930 1348 827 1348 Q697 1348 586 1296 Q475 1244 393.5 1147 Q312 1050 266 912 Q220 774 220 602 Q220 479 252 380.5 Q284 282 343 213 Q402 144 485 106.5 Q568 69 671 69 Q803 69 914 120.5 Q1025 172 1106 269 Q1187 366 1232.5 503.5 Q1278 641 1278 814 Z " />
<glyph glyph-name="Oslash" unicode="&#xd8;" horiz-adv-x="1473" d="M375 179 Q432 125 506.5 97 Q581 69 671 69 Q803 69 914 120.5 Q1025 172 1106 269 Q1187 366 1232.5 503.5 Q1278 641 1278 814 Q1278 925 1252 1015.5 Q1226 1106 1178 1175 L375 179 Z M1137 1224 Q1079 1284 1001 1316 Q923 1348 827 1348 Q697 1348 586 1296 Q475 1244 393.5 1147 Q312 1050 266 912 Q220 774 220 602 Q220 484 249.5 389 Q279 294 333 225 L1137 1224 Z M1241 1253 Q1309 1172 1345 1061.5 Q1381 951 1381 816 Q1381 629 1326.5 476 Q1272 323 1175 214 Q1078 105 946 45 Q814 -15 660 -15 Q556 -15 469.5 16 Q383 47 316 105 L172 -74 Q158 -91 141 -98 Q124 -105 108 -105 L67 -105 L271 148 Q198 229 158.5 343.5 Q119 458 119 599 Q119 785 174 938.5 Q229 1092 325.5 1201.5 Q422 1311 553.5 1371 Q685 1431 838 1431 Q948 1431 1038 1396.5 Q1128 1362 1197 1299 L1319 1450 Q1333 1466 1342.5 1472.5 Q1352 1479 1371 1479 L1423 1479 L1241 1253 Z " />
<glyph glyph-name="OE" unicode="&#x152;" horiz-adv-x="2037" d="M622 68 Q742 68 844 121 Q946 174 1020 272 Q1094 370 1136 510 Q1178 650 1178 824 Q1178 944 1150.5 1041 Q1123 1138 1071.5 1206.5 Q1020 1275 946 1312.5 Q872 1350 779 1350 Q660 1350 558 1296.5 Q456 1243 381.5 1144 Q307 1045 264.5 905 Q222 765 222 592 Q222 472 250 375 Q278 278 330 209.5 Q382 141 456 104.5 Q530 68 622 68 Z M1351 1333 L1280 756 L1842 756 L1833 676 L1271 676 L1198 82 L1875 82 L1864 0 L1097 0 L1136 318 Q1093 240 1036.5 178.5 Q980 117 912 74.5 Q844 32 766 9.5 Q688 -13 601 -13 Q490 -13 401.5 30.5 Q313 74 250.5 153 Q188 232 154.5 343 Q121 454 121 589 Q121 778 171.5 933 Q222 1088 310.5 1198.5 Q399 1309 518.5 1370 Q638 1431 777 1431 Q864 1431 936.5 1404.5 Q1009 1378 1066 1329.5 Q1123 1281 1163.5 1211.5 Q1204 1142 1227 1056 L1271 1415 L2038 1415 L2029 1333 L1351 1333 Z " />
<glyph glyph-name="P" unicode="P" horiz-adv-x="1078" d="M543 651 Q637 651 712.5 681 Q788 711 841.5 764 Q895 817 924 890 Q953 963 953 1049 Q953 1185 871.5 1260.5 Q790 1336 627 1336 L387 1336 L303 651 L543 651 Z M637 1415 Q845 1415 949 1321.5 Q1053 1228 1053 1059 Q1053 951 1016 861.5 Q979 772 911 707.5 Q843 643 747 607 Q651 571 533 571 L293 571 L223 0 L124 0 L297 1415 L637 1415 Z " />
<glyph glyph-name="Thorn" unicode="&#xde;" horiz-adv-x="1077" d="M509 366 Q603 366 678.5 396 Q754 426 807.5 479 Q861 532 890 605 Q919 678 919 764 Q919 901 838 975.5 Q757 1050 592 1050 L352 1050 L268 366 L509 366 Z M603 1129 Q810 1129 914.5 1036 Q1019 943 1019 774 Q1019 666 982 576.5 Q945 487 876.5 422.5 Q808 358 712 322 Q616 286 499 286 L258 286 L223 0 L124 0 L297 1415 L397 1415 L362 1129 L603 1129 Z " />
<glyph glyph-name="Q" unicode="Q" horiz-adv-x="1473" d="M220 602 Q220 479 252 380.5 Q284 282 343 213 Q402 144 485 106.5 Q568 69 671 69 Q803 69 914 120.5 Q1025 172 1106 269 Q1187 366 1232.5 503.5 Q1278 641 1278 814 Q1278 937 1246.5 1035.5 Q1215 1134 1156 1203.5 Q1097 1273 1013.5 1310.5 Q930 1348 827 1348 Q697 1348 586 1296 Q475 1244 393.5 1147 Q312 1050 266 912 Q220 774 220 602 Z M925 36 Q864 11 798 -2 Q732 -15 660 -15 Q536 -15 436 29.5 Q336 74 265.5 155 Q195 236 157 349 Q119 462 119 599 Q119 785 174 938.5 Q229 1092 325.5 1201.5 Q422 1311 553.5 1371 Q685 1431 838 1431 Q963 1431 1063.5 1386.5 Q1164 1342 1234.5 1261 Q1305 1180 1343 1066.5 Q1381 953 1381 816 Q1381 688 1354.5 575 Q1328 462 1279.5 368 Q1231 274 1162.5 200 Q1094 126 1010 77 L1300 -312 L1222 -312 Q1183 -312 1163 -288 L925 36 Z " />
<glyph glyph-name="R" unicode="R" horiz-adv-x="1128" d="M534 715 Q629 715 704.5 741 Q780 767 833 815 Q886 863 914 931 Q942 999 942 1082 Q942 1210 861 1273 Q780 1336 624 1336 L388 1336 L311 715 L534 715 Z M633 1415 Q838 1415 939.5 1333.5 Q1041 1252 1041 1097 Q1041 1005 1011 928.5 Q981 852 926 795 Q871 738 793.5 701.5 Q716 665 622 653 Q641 641 657 614 L1026 0 L941 0 Q925 0 914.5 5.5 Q904 11 896 25 L555 601 Q541 623 524.5 632 Q508 641 471 641 L302 641 L223 0 L124 0 L297 1415 L633 1415 Z " />
<glyph glyph-name="S" unicode="S" horiz-adv-x="996" d="M910 1244 Q899 1227 884 1227 Q872 1227 855 1246 Q838 1265 808.5 1287.5 Q779 1310 732.5 1329 Q686 1348 616 1348 Q540 1348 480.5 1323.5 Q421 1299 379.5 1256.5 Q338 1214 316 1157.5 Q294 1101 294 1037 Q294 976 319 934.5 Q344 893 384.5 863.5 Q425 834 476.5 812.5 Q528 791 582.5 770.5 Q637 750 688.5 725.5 Q740 701 780.5 666 Q821 631 846 581 Q871 531 871 458 Q871 362 838 275.5 Q805 189 743.5 124.5 Q682 60 594 22 Q506 -16 397 -16 Q269 -16 181 33.5 Q93 83 33 169 L66 212 Q80 226 94 226 Q103 226 114.5 214 Q126 202 142.5 184.5 Q159 167 181.5 146.5 Q204 126 236 108.5 Q268 91 310.5 79 Q353 67 409 67 Q493 67 561 95.5 Q629 124 677 174 Q725 224 750.5 291.5 Q776 359 776 437 Q776 499 751 540.5 Q726 582 685.5 611 Q645 640 593.5 660 Q542 680 488 700 Q434 720 382 744 Q330 768 289.5 803.5 Q249 839 224.5 890.5 Q200 942 200 1017 Q200 1098 229 1173 Q258 1248 312.5 1305.5 Q367 1363 446 1397 Q525 1431 626 1431 Q728 1431 805 1393.5 Q882 1356 938 1284 L910 1244 Z " />
<glyph glyph-name="Scedilla" unicode="&#x15e;" horiz-adv-x="996" d="M910 1244 Q899 1227 884 1227 Q872 1227 855 1246 Q838 1265 808.5 1287.5 Q779 1310 732.5 1329 Q686 1348 616 1348 Q540 1348 480.5 1323.5 Q421 1299 379.5 1256.5 Q338 1214 316 1157.5 Q294 1101 294 1037 Q294 976 319 934.5 Q344 893 384.5 863.5 Q425 834 476.5 812.5 Q528 791 582.5 770.5 Q637 750 688.5 725.5 Q740 701 780.5 666 Q821 631 846 581 Q871 531 871 458 Q871 365 840.5 282 Q810 199 752.5 135 Q695 71 613.5 31 Q532 -9 430 -15 L399 -94 Q474 -109 512.5 -136 Q551 -163 551 -214 Q551 -248 536.5 -274.5 Q522 -301 497 -319.5 Q472 -338 437 -347.5 Q402 -357 362 -357 Q325 -357 291 -345.5 Q257 -334 234 -315 L248 -287 Q254 -276 265 -276 Q270 -276 277 -281.5 Q284 -287 295.5 -293 Q307 -299 324 -304.5 Q341 -310 367 -310 Q418 -310 446 -285.5 Q474 -261 474 -219 Q474 -197 463 -182 Q452 -167 432 -157 Q412 -147 384.5 -141.5 Q357 -136 324 -131 L373 -15 Q254 -10 172 38.5 Q90 87 33 169 L66 212 Q80 226 94 226 Q103 226 114.5 214 Q126 202 142.5 184.5 Q159 167 181.5 146.5 Q204 126 236 108.5 Q268 91 310.5 79 Q353 67 409 67 Q493 67 561 95.5 Q629 124 677 174 Q725 224 750.5 291.5 Q776 359 776 437 Q776 499 751 540.5 Q726 582 685.5 611 Q645 640 593.5 660 Q542 680 488 700 Q434 720 382 744 Q330 768 289.5 803.5 Q249 839 224.5 890.5 Q200 942 200 1017 Q200 1098 229 1173 Q258 1248 312.5 1305.5 Q367 1363 446 1397 Q525 1431 626 1431 Q728 1431 805 1393.5 Q882 1356 938 1284 L910 1244 Z " />
<glyph glyph-name="T" unicode="T" horiz-adv-x="1065" d="M1127 1331 L672 1331 L508 0 L409 0 L573 1331 L114 1331 L124 1415 L1137 1415 L1127 1331 Z " />
<glyph glyph-name="Tbar" unicode="&#x166;" horiz-adv-x="1107" d="M693 1331 L634 850 L946 850 L939 788 L626 788 L529 0 L430 0 L527 788 L210 788 L217 850 L535 850 L594 1331 L135 1331 L145 1415 L1158 1415 L1148 1331 L693 1331 Z " />
<glyph glyph-name="U" unicode="U" horiz-adv-x="1353" d="M612 70 Q705 70 782.5 106 Q860 142 918.5 205 Q977 268 1015 354 Q1053 440 1065 539 L1173 1415 L1272 1415 L1165 539 Q1150 422 1103 320.5 Q1056 219 982.5 144 Q909 69 812 26 Q715 -17 600 -17 Q486 -17 400 26 Q314 69 259 144 Q204 219 182 320.5 Q160 422 174 539 L281 1415 L380 1415 L273 540 Q261 441 277.5 355 Q294 269 337 205.5 Q380 142 449.5 106 Q519 70 612 70 Z " />
<glyph glyph-name="Uogonek" unicode="&#x172;" horiz-adv-x="1351" d="M1272 1415 L1165 539 Q1152 435 1113.5 343.5 Q1075 252 1015 180 Q955 108 875.5 59 Q796 10 701 -8 L702 -8 Q681 -20 655.5 -38 Q630 -56 608.5 -80.5 Q587 -105 572.5 -134.5 Q558 -164 558 -198 Q558 -239 583.5 -262 Q609 -285 649 -285 Q674 -285 692 -279.5 Q710 -274 722.5 -268 Q735 -262 742.5 -256.5 Q750 -251 755 -251 Q764 -251 767 -259 L778 -293 Q749 -317 708 -331.5 Q667 -346 624 -346 Q558 -346 520 -313 Q482 -280 482 -222 Q482 -190 493.5 -161 Q505 -132 524 -106 Q543 -80 568 -57.5 Q593 -35 620 -17 L600 -17 Q486 -17 400 26 Q314 69 259 144 Q204 219 182 320.5 Q160 422 174 539 L281 1415 L380 1415 L273 540 Q261 441 277.5 355 Q294 269 337 205.5 Q380 142 449.5 106 Q519 70 612 70 Q705 70 782.5 106 Q860 142 918.5 205 Q977 268 1015 354 Q1053 440 1065 539 L1173 1415 L1272 1415 Z " />
<glyph glyph-name="V" unicode="V" horiz-adv-x="1212" d="M1287 1415 L577 0 L488 0 L124 1415 L203 1415 Q217 1415 225 1407.5 Q233 1400 235 1389 L529 208 Q534 187 539 163 Q544 139 547 113 Q556 139 565.5 163 Q575 187 586 208 L1169 1389 Q1174 1400 1184.5 1407.5 Q1195 1415 1209 1415 L1287 1415 Z " />
<glyph glyph-name="W" unicode="W" horiz-adv-x="1876" d="M1930 1415 L1347 0 L1258 0 L1026 1233 Q1023 1254 1020 1286 Q1015 1271 1010.5 1257.5 Q1006 1244 1001 1233 L466 0 L378 0 L142 1415 L219 1415 Q249 1415 251 1389 L439 213 Q441 194 442.5 173.5 Q444 153 446 131 Q453 153 460 174 Q467 195 475 213 L986 1389 Q991 1400 1001 1407.5 Q1011 1415 1025 1415 L1047 1415 Q1073 1415 1080 1389 L1301 213 Q1304 195 1306.5 174.5 Q1309 154 1311 132 Q1317 154 1324 174 Q1331 194 1337 213 L1813 1389 Q1816 1400 1828 1407.5 Q1840 1415 1854 1415 L1930 1415 Z " />
<glyph glyph-name="X" unicode="X" horiz-adv-x="1166" d="M673 761 L1069 0 L980 0 Q966 0 960 8 Q954 16 949 24 L604 704 Q598 690 589 680 L89 24 Q72 0 49 0 L-49 0 L535 756 L185 1415 L274 1415 Q288 1415 294 1410 Q300 1405 306 1394 L607 807 Q614 821 622 833 L1054 1397 Q1066 1415 1086 1415 L1185 1415 L673 761 Z " />
<glyph glyph-name="Y" unicode="Y" horiz-adv-x="1103" d="M600 583 L527 0 L428 0 L501 584 L120 1415 L208 1415 Q234 1415 242 1390 L541 722 Q547 705 552 688.5 Q557 672 560 655 Q568 672 577 688.5 Q586 705 597 722 L1061 1390 Q1068 1401 1077 1408 Q1086 1415 1100 1415 L1183 1415 L600 583 Z " />
<glyph glyph-name="Z" unicode="Z" horiz-adv-x="1097" d="M1123 1382 Q1121 1373 1117.5 1366.5 Q1114 1360 1107 1351 L133 82 L957 82 L946 0 L-13 0 L-8 33 Q-6 41 -2.5 47.5 Q1 54 6 62 L982 1333 L175 1333 L186 1415 L1128 1415 L1123 1382 Z " />
<glyph glyph-name="a" unicode="a" horiz-adv-x="997" d="M792 917 Q762 928 730 932.5 Q698 937 665 937 Q565 937 474 888 Q383 839 314 757 Q245 675 204 569 Q163 463 163 349 Q163 215 208.5 140.5 Q254 66 350 66 Q407 66 462 98 Q517 130 567.5 188 Q618 246 662 327.5 Q706 409 741 508 L792 917 Z M727 346 Q689 266 643.5 199.5 Q598 133 546 86 Q494 39 437 13 Q380 -13 319 -13 Q257 -13 209.5 11.5 Q162 36 130.5 81 Q99 126 83 190 Q67 254 67 334 Q67 421 89.5 504.5 Q112 588 152 663 Q192 738 248 801 Q304 864 372 910 Q440 956 517 982 Q594 1008 676 1008 Q735 1008 787.5 997.5 Q840 987 890 961 L773 0 L727 0 Q707 0 700 11 Q693 22 693 36 L727 346 Z " />
<glyph glyph-name="aogonek" unicode="&#x105;" horiz-adv-x="997" d="M792 917 Q762 928 730 932.5 Q698 937 665 937 Q565 937 474 888 Q383 839 314 757 Q245 675 204 569 Q163 463 163 349 Q163 215 208.5 140.5 Q254 66 350 66 Q407 66 462 98 Q517 130 567.5 188 Q618 246 662 327.5 Q706 409 741 508 L792 917 Z M764 0 Q743 -12 717.5 -30 Q692 -48 670.5 -72.5 Q649 -97 634.5 -126.5 Q620 -156 620 -190 Q620 -231 645.5 -254 Q671 -277 711 -277 Q736 -277 754 -271.5 Q772 -266 784.5 -260 Q797 -254 804.5 -248.5 Q812 -243 817 -243 Q826 -243 829 -251 L840 -285 Q811 -309 770 -323.5 Q729 -338 686 -338 Q620 -338 582 -305 Q544 -272 544 -214 Q544 -179 558 -147 Q572 -115 594.5 -87 Q617 -59 646 -35.5 Q675 -12 705 6 Q698 11 695.5 19 Q693 27 693 36 L727 346 Q689 266 643.5 199.5 Q598 133 546 86 Q494 39 437 13 Q380 -13 319 -13 Q257 -13 209.5 11.5 Q162 36 130.5 81 Q99 126 83 190 Q67 254 67 334 Q67 421 89.5 504.5 Q112 588 152 663 Q192 738 248 801 Q304 864 372 910 Q440 956 517 982 Q594 1008 676 1008 Q735 1008 787.5 997.5 Q840 987 890 961 L773 0 L764 0 Z " />
<glyph glyph-name="ae" unicode="&#xe6;" horiz-adv-x="1474" d="M651 502 Q513 497 413.5 477 Q314 457 250.5 422.5 Q187 388 156.5 339 Q126 290 126 227 Q126 181 139 148 Q152 115 176 93.5 Q200 72 233 61.5 Q266 51 305 51 Q366 51 421.5 73.5 Q477 96 521.5 138.5 Q566 181 596 243 Q626 305 636 385 L651 502 Z M1090 940 Q1019 940 961 913 Q903 886 858.5 836.5 Q814 787 784.5 717 Q755 647 742 560 Q893 565 994 584.5 Q1095 604 1156.5 634 Q1218 664 1244 703 Q1270 742 1270 787 Q1270 859 1221 899.5 Q1172 940 1090 940 Z M1372 185 Q1324 134 1278 96.5 Q1232 59 1184 34.5 Q1136 10 1084.5 -1.5 Q1033 -13 975 -13 Q859 -13 780.5 57.5 Q702 128 673 261 Q645 184 599.5 131 Q554 78 501.5 45.5 Q449 13 393.5 -1.5 Q338 -16 289 -16 Q233 -16 186.5 -2.5 Q140 11 106.5 39 Q73 67 54.5 110.5 Q36 154 36 214 Q36 289 71 351.5 Q106 414 181 459.5 Q256 505 374 532 Q492 559 658 563 L669 648 Q686 787 641.5 861 Q597 935 491 935 Q425 935 376.5 915 Q328 895 293 871.5 Q258 848 235 828 Q212 808 198 808 Q181 808 170 826 L158 854 Q239 932 320.5 972 Q402 1012 501 1012 Q615 1012 673 952 Q731 892 742 786 Q799 892 890 951.5 Q981 1011 1100 1011 Q1155 1011 1201.5 995 Q1248 979 1282 949.5 Q1316 920 1335 879.5 Q1354 839 1354 791 Q1354 733 1323 681.5 Q1292 630 1220 590.5 Q1148 551 1029 527 Q910 503 735 502 Q732 463 732 420 Q732 248 801.5 155.5 Q871 63 992 63 Q1045 63 1087.5 74.5 Q1130 86 1164 104 Q1198 122 1223.5 142 Q1249 162 1269 180 Q1289 198 1303.5 209.5 Q1318 221 1329 221 Q1341 221 1350 211 L1372 185 Z " />
<glyph glyph-name="b" unicode="b" horiz-adv-x="1031" d="M197 206 Q219 166 246.5 138.5 Q274 111 305 94 Q336 77 369.5 69.5 Q403 62 438 62 Q501 62 555.5 87.5 Q610 113 654.5 157 Q699 201 733.5 259.5 Q768 318 791.5 383 Q815 448 827.5 516.5 Q840 585 840 650 Q840 784 789 858.5 Q738 933 640 933 Q583 933 525.5 901 Q468 869 415 811 Q362 753 315 671 Q268 589 232 489 L197 206 Z M253 659 Q292 738 339.5 802.5 Q387 867 440.5 913 Q494 959 552.5 984.5 Q611 1010 671 1010 Q736 1010 785 985 Q834 960 867 914.5 Q900 869 917 804 Q934 739 934 659 Q934 582 918 502.5 Q902 423 872.5 348.5 Q843 274 800.5 208 Q758 142 704 93 Q650 44 585.5 15.5 Q521 -13 449 -13 Q365 -13 294.5 25.5 Q224 64 182 140 L163 32 Q158 16 152 8 Q146 0 128 0 L81 0 L257 1455 L350 1455 L253 659 Z " />
<glyph glyph-name="c" unicode="c" horiz-adv-x="911" d="M801 182 Q748 123 700.5 85 Q653 47 607.5 25 Q562 3 515 -5 Q468 -13 415 -13 Q329 -13 265.5 16.5 Q202 46 160 99 Q118 152 97 225 Q76 298 76 384 Q76 463 92.5 540.5 Q109 618 140 688 Q171 758 215 817 Q259 876 314 919 Q369 962 433.5 986.5 Q498 1011 571 1011 Q620 1011 659.5 1001.5 Q699 992 732 974.5 Q765 957 792 932 Q819 907 842 876 L814 843 Q805 832 793 832 Q783 832 768.5 848 Q754 864 729.5 882.5 Q705 901 666 917 Q627 933 568 933 Q484 933 411.5 888 Q339 843 285.5 767 Q232 691 201.5 591.5 Q171 492 171 384 Q171 315 186.5 256 Q202 197 234.5 154 Q267 111 316 87 Q365 63 432 63 Q485 63 527 74.5 Q569 86 601.5 103 Q634 120 658.5 140.5 Q683 161 702 178 Q721 195 734.5 206.5 Q748 218 759 218 Q770 218 780 208 L801 182 Z " />
<glyph glyph-name="ccedilla" unicode="&#xe7;" horiz-adv-x="911" d="M385 -12 Q307 -7 248.5 24.5 Q190 56 152 108.5 Q114 161 95 231 Q76 301 76 384 Q76 463 92.5 540.5 Q109 618 140 688 Q171 758 215 817 Q259 876 314 919 Q369 962 433.5 986.5 Q498 1011 571 1011 Q620 1011 659.5 1001.5 Q699 992 732 974.5 Q765 957 792 932 Q819 907 842 876 L814 843 Q805 832 793 832 Q783 832 768.5 848 Q754 864 729.5 882.5 Q705 901 666 917 Q627 933 568 933 Q484 933 411.5 888 Q339 843 285.5 767 Q232 691 201.5 591.5 Q171 492 171 384 Q171 315 186.5 256 Q202 197 234.5 154 Q267 111 316 87 Q365 63 432 63 Q485 63 527 74.5 Q569 86 601.5 103 Q634 120 658.5 140.5 Q683 161 702 178 Q721 195 734.5 206.5 Q748 218 759 218 Q770 218 780 208 L801 182 Q751 126 706.5 89.5 Q662 53 619 31 Q576 9 532.5 -1 Q489 -11 441 -13 L409 -94 Q484 -109 522.5 -136 Q561 -163 561 -214 Q561 -248 546.5 -274.5 Q532 -301 507 -319.5 Q482 -338 447 -347.5 Q412 -357 372 -357 Q335 -357 301 -345.5 Q267 -334 244 -315 L258 -287 Q264 -276 275 -276 Q280 -276 287 -281.5 Q294 -287 305.5 -293 Q317 -299 334 -304.5 Q351 -310 377 -310 Q428 -310 456 -285.5 Q484 -261 484 -219 Q484 -197 473 -182 Q462 -167 442 -157 Q422 -147 394.5 -141.5 Q367 -136 334 -131 L385 -12 Z " />
<glyph glyph-name="d" unicode="d" horiz-adv-x="1032" d="M809 793 Q787 832 759.5 859.5 Q732 887 701 903.5 Q670 920 636 927.5 Q602 935 568 935 Q505 935 450.5 909.5 Q396 884 351.5 840 Q307 796 272.5 738 Q238 680 214.5 615 Q191 550 178.5 481 Q166 412 166 348 Q166 214 217 139 Q268 64 366 64 Q423 64 480 96 Q537 128 590.5 186 Q644 244 690.5 325.5 Q737 407 773 506 L809 793 Z M983 1455 L805 0 L759 0 Q739 0 732 11 Q725 22 725 36 L758 349 Q719 268 670.5 201.5 Q622 135 568 87 Q514 39 455 13 Q396 -13 335 -13 Q270 -13 221 12 Q172 37 139 83 Q106 129 89 194 Q72 259 72 340 Q72 416 88 495.5 Q104 575 133.5 649.5 Q163 724 205.5 789.5 Q248 855 302 904 Q356 953 420 981.5 Q484 1010 557 1010 Q638 1010 706.5 974.5 Q775 939 818 869 L891 1455 L983 1455 Z " />
<glyph glyph-name="dcaron" unicode="&#x10f;" horiz-adv-x="1032" d="M1205 1457 Q1216 1457 1220 1451.5 Q1224 1446 1224 1436 Q1224 1426 1220 1409.5 Q1216 1393 1205.5 1363.5 Q1195 1334 1177 1290 Q1159 1246 1132 1180 Q1124 1166 1116 1161 Q1108 1156 1093 1156 L1069 1156 L1154 1457 L1205 1457 Z M809 793 Q787 832 759.5 859.5 Q732 887 701 903.5 Q670 920 636 927.5 Q602 935 568 935 Q505 935 450.5 909.5 Q396 884 351.5 840 Q307 796 272.5 738 Q238 680 214.5 615 Q191 550 178.5 481 Q166 412 166 348 Q166 214 217 139 Q268 64 366 64 Q423 64 480 96 Q537 128 590.5 186 Q644 244 690.5 325.5 Q737 407 773 506 L809 793 Z M983 1455 L805 0 L759 0 Q739 0 732 11 Q725 22 725 36 L758 349 Q719 268 670.5 201.5 Q622 135 568 87 Q514 39 455 13 Q396 -13 335 -13 Q270 -13 221 12 Q172 37 139 83 Q106 129 89 194 Q72 259 72 340 Q72 416 88 495.5 Q104 575 133.5 649.5 Q163 724 205.5 789.5 Q248 855 302 904 Q356 953 420 981.5 Q484 1010 557 1010 Q638 1010 706.5 974.5 Q775 939 818 869 L891 1455 L983 1455 Z " />
<glyph glyph-name="dcroat" unicode="&#x111;" horiz-adv-x="1032" d="M808 785 Q786 824 758.5 850.5 Q731 877 700 893.5 Q669 910 635.5 917.5 Q602 925 568 925 Q505 925 450.5 900 Q396 875 351.5 832.5 Q307 790 272.5 733 Q238 676 214.5 612 Q191 548 178.5 480 Q166 412 166 348 Q166 214 217 139 Q268 64 366 64 Q423 64 480 96 Q537 128 590.5 186 Q644 244 690.5 325.5 Q737 407 773 506 L808 785 Z M1087 1158 L947 1158 L805 0 L759 0 Q739 0 732 11 Q725 22 725 36 L758 349 Q719 268 670.5 201.5 Q622 135 568 87 Q514 39 455 13 Q396 -13 335 -13 Q270 -13 221 12 Q172 37 139 83 Q106 129 89 194 Q72 259 72 340 Q72 416 88 495 Q104 574 133.5 647 Q163 720 205.5 784.5 Q248 849 302 897 Q356 945 420 972.5 Q484 1000 557 1000 Q638 1000 706 965 Q774 930 817 861 L854 1158 L661 1158 Q639 1158 632.5 1168 Q626 1178 629 1195 L634 1220 L862 1220 L891 1455 L983 1455 L954 1220 L1094 1220 L1087 1158 Z " />
<glyph glyph-name="eth" unicode="&#xf0;" horiz-adv-x="1042" d="M438 61 Q601 61 702.5 187.5 Q804 314 837 569 Q828 620 807 670 Q786 720 750.5 759.5 Q715 799 664 823.5 Q613 848 545 848 Q455 848 384.5 812 Q314 776 266 714 Q218 652 193 569.5 Q168 487 168 393 Q168 316 189 254.5 Q210 193 246 150 Q282 107 331.5 84 Q381 61 438 61 Z M740 1230 Q784 1189 820 1138 Q856 1087 881.5 1024 Q907 961 921 886 Q935 811 935 722 Q935 563 903 428.5 Q871 294 807 196 Q743 98 648.5 43 Q554 -12 428 -12 Q352 -12 287.5 16.5 Q223 45 176 97 Q129 149 102.5 223 Q76 297 76 388 Q76 497 108.5 593.5 Q141 690 201.5 763 Q262 836 347.5 878.5 Q433 921 538 921 Q587 921 635 907.5 Q683 894 725 865.5 Q767 837 801.5 793 Q836 749 858 689 Q864 863 817.5 985.5 Q771 1108 682 1187 L511 1041 L494 1070 Q489 1077 490 1085.5 Q491 1094 498 1100 L639 1221 Q588 1257 529 1281.5 Q470 1306 401 1321 Q369 1330 382 1361 L395 1391 Q476 1377 553.5 1346.5 Q631 1316 698 1265 L859 1401 L875 1372 Q879 1365 878.5 1356 Q878 1347 868 1340 L740 1230 Z " />
<glyph glyph-name="e" unicode="e" horiz-adv-x="937" d="M573 939 Q493 939 428.5 905.5 Q364 872 314.5 815 Q265 758 231.5 683.5 Q198 609 182 528 Q309 542 401 560.5 Q493 579 557 599.5 Q621 620 661 644 Q701 668 722.5 693.5 Q744 719 751.5 746 Q759 773 759 802 Q759 823 749.5 847.5 Q740 872 718 892 Q696 912 660.5 925.5 Q625 939 573 939 Z M818 185 Q769 133 722.5 95.5 Q676 58 628.5 34 Q581 10 530 -1.5 Q479 -13 421 -13 Q338 -13 273.5 14.5 Q209 42 165 92.5 Q121 143 98 215.5 Q75 288 75 378 Q75 453 90 529 Q105 605 134.5 675 Q164 745 207.5 806 Q251 867 307 912 Q363 957 431 983 Q499 1009 578 1009 Q651 1009 701.5 988.5 Q752 968 783.5 937.5 Q815 907 829 871.5 Q843 836 843 805 Q843 764 832 727 Q821 690 793 657 Q765 624 717 595 Q669 566 594.5 541.5 Q520 517 416 497 Q312 477 172 462 Q170 442 168.5 421 Q167 400 167 380 Q167 231 234.5 147 Q302 63 438 63 Q491 63 533.5 74.5 Q576 86 609.5 104 Q643 122 668.5 142 Q694 162 714 180 Q734 198 748.5 209.5 Q763 221 775 221 Q787 221 796 211 L818 185 Z " />
<glyph glyph-name="eogonek" unicode="&#x119;" horiz-adv-x="937" d="M573 939 Q493 939 428.5 905.5 Q364 872 314.5 815 Q265 758 231.5 683.5 Q198 609 182 528 Q309 542 401 560.5 Q493 579 557 599.5 Q621 620 661 644 Q701 668 722.5 693.5 Q744 719 751.5 746 Q759 773 759 802 Q759 823 749.5 847.5 Q740 872 718 892 Q696 912 660.5 925.5 Q625 939 573 939 Z M613 -285 Q584 -309 543 -323.5 Q502 -338 459 -338 Q393 -338 355 -305 Q317 -272 317 -214 Q317 -183 328 -154.5 Q339 -126 357.5 -100.5 Q376 -75 400 -52.5 Q424 -30 450 -12 Q442 -13 435.5 -13 Q429 -13 421 -13 Q338 -13 273.5 14.5 Q209 42 165 92.5 Q121 143 98 215.5 Q75 288 75 378 Q75 453 90 529 Q105 605 134.5 675 Q164 745 207.5 806 Q251 867 307 912 Q363 957 431 983 Q499 1009 578 1009 Q651 1009 701.5 988.5 Q752 968 783.5 937.5 Q815 907 829 871.5 Q843 836 843 805 Q843 764 832 727 Q821 690 793 657 Q765 624 717 595 Q669 566 594.5 541.5 Q520 517 416 497 Q312 477 172 462 Q170 442 168.5 421 Q167 400 167 380 Q167 231 234.5 147 Q302 63 438 63 Q491 63 533.5 74.5 Q576 86 609.5 104 Q643 122 668.5 142 Q694 162 714 180 Q734 198 748.5 209.5 Q763 221 775 221 Q787 221 796 211 L818 185 Q746 109 679 63.5 Q612 18 537 0 Q516 -12 490.5 -30 Q465 -48 443.5 -72.5 Q422 -97 407.5 -126.5 Q393 -156 393 -190 Q393 -231 418.5 -254 Q444 -277 484 -277 Q509 -277 527 -271.5 Q545 -266 557.5 -260 Q570 -254 577.5 -248.5 Q585 -243 590 -243 Q599 -243 602 -251 L613 -285 Z " />
<glyph glyph-name="f" unicode="f" horiz-adv-x="616" d="M331 894 L225 21 L183 -209 Q171 -250 134 -250 L100 -250 L239 893 L114 901 Q102 903 96 909 Q90 915 91 927 L95 964 L247 964 L263 1090 Q274 1175 303 1239.5 Q332 1304 375.5 1347 Q419 1390 474 1411.5 Q529 1433 592 1433 Q620 1433 647.5 1427.5 Q675 1422 698 1412 L688 1364 Q686 1356 679 1354.5 Q672 1353 660.5 1354.5 Q649 1356 633 1358.5 Q617 1361 596 1361 Q550 1361 510 1346 Q470 1331 438 1298.5 Q406 1266 384 1214 Q362 1162 353 1087 L337 964 L618 964 L608 894 L331 894 Z " />
<glyph glyph-name="f_f" unicode="&#xfb00;" horiz-adv-x="1194" d="M901 964 L1197 964 L1188 895 L895 895 L789 21 L747 -209 Q735 -250 698 -250 L664 -250 L803 895 L333 895 L227 21 L185 -209 Q173 -250 136 -250 L102 -250 L241 893 L116 902 Q90 905 91 927 L96 964 L250 964 L264 1077 Q275 1162 304 1226.5 Q333 1291 375.5 1334 Q418 1377 473 1398.5 Q528 1420 590 1420 Q618 1420 646 1415 Q674 1410 696 1399 L686 1352 Q683 1344 676.5 1342.5 Q670 1341 658.5 1342 Q647 1343 631 1345.5 Q615 1348 594 1348 Q549 1348 509.5 1334 Q470 1320 438.5 1288.5 Q407 1257 385 1206 Q363 1155 354 1080 L338 964 L811 964 L827 1095 Q838 1180 867 1244.5 Q896 1309 939.5 1352 Q983 1395 1038 1416.5 Q1093 1438 1156 1438 Q1184 1438 1211.5 1432.5 Q1239 1427 1262 1417 L1252 1369 Q1249 1361 1242 1360 Q1235 1359 1223.5 1360 Q1212 1361 1196.5 1363.5 Q1181 1366 1160 1366 Q1114 1366 1074 1351 Q1034 1336 1002 1303.5 Q970 1271 948 1219 Q926 1167 917 1092 L901 964 Z " />
<glyph glyph-name="fi" unicode="&#xfb01;" horiz-adv-x="999" d="M339 964 L879 964 L760 0 L666 0 L776 893 L334 893 L226 20 L184 -210 Q172 -251 135 -251 L101 -251 L241 891 L115 900 Q89 903 91 924 L95 964 L250 964 L261 1049 Q272 1141 306 1214 Q340 1287 394 1337.5 Q448 1388 520.5 1415 Q593 1442 681 1442 Q696 1442 714.5 1440.5 Q733 1439 751 1436.5 Q769 1434 785 1430 Q801 1426 812 1421 L803 1375 Q801 1367 793.5 1365.5 Q786 1364 773 1365.5 Q760 1367 741 1369.5 Q722 1372 695 1372 Q549 1372 460 1292.5 Q371 1213 351 1047 L339 964 Z " />
<glyph glyph-name="f_f_i" unicode="&#xfb03;" horiz-adv-x="1558" d="M1430 895 L1321 0 L1229 0 L1338 895 L894 895 L786 20 L744 -210 Q732 -251 695 -251 L661 -251 L802 895 L333 895 L227 21 L185 -209 Q173 -250 136 -250 L102 -250 L241 893 L116 902 Q90 905 91 927 L96 964 L250 964 L264 1077 Q275 1162 304 1226.5 Q333 1291 375.5 1334 Q418 1377 473 1398.5 Q528 1420 590 1420 Q618 1420 646 1415 Q674 1410 696 1399 L686 1352 Q683 1344 676.5 1342.5 Q670 1341 658.5 1342 Q647 1343 631 1345.5 Q615 1348 594 1348 Q549 1348 509.5 1334 Q470 1320 438.5 1288.5 Q407 1257 385 1206 Q363 1155 354 1080 L338 964 L810 964 L821 1049 Q832 1141 866 1214 Q900 1287 954 1337.5 Q1008 1388 1080.5 1415 Q1153 1442 1241 1442 Q1256 1442 1274.5 1440.5 Q1293 1439 1311 1436.5 Q1329 1434 1345 1430 Q1361 1426 1372 1421 L1363 1375 Q1361 1367 1353.5 1365.5 Q1346 1364 1333 1365.5 Q1320 1367 1301 1369.5 Q1282 1372 1255 1372 Q1109 1372 1020 1292.5 Q931 1213 911 1047 L899 964 L1439 964 L1431 895 L1430 895 Z " />
<glyph glyph-name="fl" unicode="&#xfb02;" horiz-adv-x="1042" d="M334 894 L226 20 L184 -210 Q172 -251 135 -251 L101 -251 L241 891 L115 900 Q89 903 91 924 L95 964 L250 964 L258 1030 Q269 1118 302 1193 Q335 1268 388 1322.5 Q441 1377 513.5 1408 Q586 1439 675 1439 Q744 1439 808 1432.5 Q872 1426 929 1426 L981 1426 L806 0 L713 0 L878 1356 Q831 1358 779 1363.5 Q727 1369 679 1369 Q610 1369 553.5 1345.5 Q497 1322 454.5 1278 Q412 1234 384.5 1171 Q357 1108 348 1030 L340 964 L603 964 L595 894 L334 894 Z " />
<glyph glyph-name="f_f_l" unicode="&#xfb04;" horiz-adv-x="1603" d="M337 963 L811 963 L819 1030 Q830 1118 863 1193 Q896 1268 949 1322.5 Q1002 1377 1074.5 1408 Q1147 1439 1236 1439 Q1305 1439 1369 1432.5 Q1433 1426 1490 1426 L1542 1426 L1367 0 L1274 0 L1439 1356 Q1392 1358 1340 1363.5 Q1288 1369 1240 1369 Q1171 1369 1114.5 1345.5 Q1058 1322 1015.5 1278 Q973 1234 945.5 1171 Q918 1108 909 1030 L901 963 L1197 963 L1188 894 L895 894 L787 20 L745 -210 Q733 -251 696 -251 L662 -251 L802 894 L332 894 L226 21 L184 -209 Q172 -250 135 -250 L101 -250 L240 893 L116 901 Q89 904 91 926 L96 963 L249 963 L263 1077 Q274 1162 302.5 1226.5 Q331 1291 374 1334 Q417 1377 471.5 1398.5 Q526 1420 589 1420 Q617 1420 645 1415 Q673 1410 695 1399 L685 1352 Q682 1344 675.5 1342.5 Q669 1341 657.5 1342 Q646 1343 630 1345.5 Q614 1348 593 1348 Q548 1348 508.5 1334 Q469 1320 437.5 1288.5 Q406 1257 384 1206 Q362 1155 353 1080 L337 963 Z " />
<glyph glyph-name="g" unicode="g" horiz-adv-x="924" d="M418 425 Q482 425 532.5 452 Q583 479 617.5 522.5 Q652 566 670.5 621.5 Q689 677 689 733 Q689 837 633.5 889.5 Q578 942 486 942 Q421 942 371 916.5 Q321 891 287 849 Q253 807 235 752.5 Q217 698 217 641 Q217 535 271 480 Q325 425 418 425 Z M613 93 Q469 114 362 104 Q255 94 184.5 62 Q114 30 79 -19 Q44 -68 43 -123 Q43 -166 62.5 -199.5 Q82 -233 118 -255.5 Q154 -278 205 -290 Q256 -302 318 -302 Q397 -302 461 -281 Q525 -260 570.5 -225 Q616 -190 641 -145 Q666 -100 666 -52 Q667 -3 651 32 Q635 67 612 96 L613 93 Z M930 960 L927 928 Q925 918 919 910.5 Q913 903 899 901 L737 888 Q755 857 765 819.5 Q775 782 775 736 Q774 681 760.5 636 Q747 591 727 553.5 Q707 516 683.5 483.5 Q660 451 640 420 Q620 389 607 357 Q594 325 594 289 Q593 261 605 237 Q617 213 635 189 Q653 165 673.5 141 Q694 117 712 89 Q730 61 741.5 28 Q753 -5 753 -46 Q752 -109 720.5 -167.5 Q689 -226 631 -271 Q573 -316 491.5 -343 Q410 -370 310 -370 Q231 -370 165.5 -354 Q100 -338 52.5 -307.5 Q5 -277 -21 -233 Q-47 -189 -47 -133 Q-46 -49 4.5 13 Q55 75 139.5 112.5 Q224 150 334 161 Q444 172 564 156 Q547 179 535 205 Q523 231 523 263 Q523 298 535 334 Q547 370 581 421 Q541 393 495 378 Q449 363 395 363 Q338 363 289 381 Q240 399 205 434.5 Q170 470 150 521.5 Q130 573 130 641 Q130 710 154.5 776.5 Q179 843 225.5 895 Q272 947 340 978.5 Q408 1010 495 1010 Q598 1010 671 960 L930 960 Z " />
<glyph glyph-name="h" unicode="h" horiz-adv-x="1031" d="M259 696 Q299 770 347.5 828.5 Q396 887 449.5 927.5 Q503 968 559.5 989 Q616 1010 672 1010 Q737 1010 783 985 Q829 960 856 912 Q883 864 891.5 794.5 Q900 725 889 636 L814 0 L720 0 L795 636 Q812 778 776 854.5 Q740 931 641 931 Q587 931 531 903.5 Q475 876 422.5 825 Q370 774 323 701.5 Q276 629 240 539 L175 0 L81 0 L257 1455 L351 1455 L259 696 Z " />
<glyph glyph-name="hcircumflex" unicode="&#x125;" horiz-adv-x="1031" d="M155 1552 Q148 1547 139 1544.5 Q130 1542 122 1542 L51 1542 L293 1741 L380 1741 L572 1542 L500 1542 Q494 1542 485.5 1544.5 Q477 1547 471 1552 L337 1683 Q335 1685 333.5 1686 Q332 1687 330 1689 Q328 1687 322 1683 L155 1552 Z M259 696 Q299 770 347.5 828.5 Q396 887 449.5 927.5 Q503 968 559.5 989 Q616 1010 672 1010 Q737 1010 783 985 Q829 960 856 912 Q883 864 891.5 794.5 Q900 725 889 636 L814 0 L720 0 L795 636 Q812 778 776 854.5 Q740 931 641 931 Q587 931 531 903.5 Q475 876 422.5 825 Q370 774 323 701.5 Q276 629 240 539 L175 0 L81 0 L257 1455 L351 1455 L259 696 Z " />
<glyph glyph-name="hbar" unicode="&#x127;" horiz-adv-x="1031" d="M258 685 Q298 760 346.5 818.5 Q395 877 448.5 917.5 Q502 958 558 979 Q614 1000 671 1000 Q736 1000 782 975 Q828 950 855 902 Q882 854 890.5 784.5 Q899 715 888 626 L814 0 L720 0 L794 626 Q811 768 775 844.5 Q739 921 640 921 Q586 921 530 893.5 Q474 866 421.5 815 Q369 764 322 691 Q275 618 239 528 L175 0 L81 0 L221 1157 L55 1157 L63 1221 L229 1221 L257 1455 L351 1455 L323 1221 L566 1221 L561 1187 Q555 1157 522 1157 L315 1157 L258 685 Z " />
<glyph glyph-name="i" unicode="i" horiz-adv-x="423" d="M306 995 L185 0 L92 0 L213 995 L306 995 Z M379 1338 Q379 1320 371.5 1304.5 Q364 1289 352 1277 Q340 1265 324.5 1258 Q309 1251 293 1251 Q276 1251 261 1258 Q246 1265 235 1277 Q224 1289 217 1304.5 Q210 1320 210 1338 Q210 1356 217 1372 Q224 1388 235.5 1400.5 Q247 1413 262 1420 Q277 1427 294 1427 Q310 1427 325.5 1420 Q341 1413 353 1401 Q365 1389 372 1372.5 Q379 1356 379 1338 Z " />
<glyph glyph-name="iogonek" unicode="&#x12f;" horiz-adv-x="423" d="M172 0 Q151 -12 125.5 -30 Q100 -48 78.5 -72.5 Q57 -97 42.5 -126.5 Q28 -156 28 -190 Q28 -231 53.5 -254 Q79 -277 119 -277 Q144 -277 162 -271.5 Q180 -266 192.5 -260 Q205 -254 212.5 -248.5 Q220 -243 225 -243 Q234 -243 237 -251 L248 -285 Q219 -309 178 -323.5 Q137 -338 94 -338 Q28 -338 -10 -305 Q-48 -272 -48 -214 Q-48 -180 -35 -149 Q-22 -118 -1 -91 Q20 -64 47 -41 Q74 -18 103 0 L92 0 L213 995 L306 995 L185 0 L172 0 Z M294 1427 Q310 1427 325.5 1420 Q341 1413 353 1401 Q365 1389 372 1372.5 Q379 1356 379 1338 Q379 1320 371.5 1304.5 Q364 1289 352 1277 Q340 1265 324.5 1258 Q309 1251 293 1251 Q276 1251 261 1258 Q246 1265 235 1277 Q224 1289 217 1304.5 Q210 1320 210 1338 Q210 1356 217 1372 Q224 1388 235.5 1400.5 Q247 1413 262 1420 Q277 1427 294 1427 Z " />
<glyph glyph-name="dotlessi" unicode="&#x131;" horiz-adv-x="423" d="M306 995 L185 0 L92 0 L213 995 L306 995 Z " />
<glyph glyph-name="j" unicode="j" horiz-adv-x="422" d="M306 995 L168 -127 Q162 -179 142 -223 Q122 -267 90.5 -299.5 Q59 -332 15.5 -350.5 Q-28 -369 -81 -369 Q-110 -369 -131 -364 Q-152 -359 -171 -348 L-161 -300 Q-157 -291 -152 -289.5 Q-147 -288 -139.5 -289.5 Q-132 -291 -120.5 -293.5 Q-109 -296 -91 -296 Q-17 -296 23.5 -252 Q64 -208 75 -127 L213 995 L306 995 Z M380 1338 Q380 1320 373 1304.5 Q366 1289 354 1277 Q342 1265 326.5 1258 Q311 1251 295 1251 Q278 1251 263 1258 Q248 1265 236.5 1277 Q225 1289 218 1304.5 Q211 1320 211 1338 Q211 1356 218 1372 Q225 1388 236.5 1400.5 Q248 1413 263 1420 Q278 1427 295 1427 Q311 1427 326.5 1420 Q342 1413 354 1401 Q366 1389 373 1372.5 Q380 1356 380 1338 Z " />
<glyph glyph-name="uni0237" unicode="&#x237;" horiz-adv-x="422" d="M306 995 L168 -127 Q162 -179 142 -223 Q122 -267 90.5 -299.5 Q59 -332 15.5 -350.5 Q-28 -369 -81 -369 Q-110 -369 -131 -364 Q-152 -359 -171 -348 L-161 -300 Q-157 -291 -152 -289.5 Q-147 -288 -139.5 -289.5 Q-132 -291 -120.5 -293.5 Q-109 -296 -91 -296 Q-17 -296 23.5 -252 Q64 -208 75 -127 L213 995 L306 995 Z " />
<glyph glyph-name="k" unicode="k" horiz-adv-x="885" d="M351 1455 L242 568 L280 568 Q297 568 308.5 572.5 Q320 577 334 591 L746 970 Q757 982 769 988.5 Q781 995 798 995 L879 995 L424 578 Q413 567 404 559 Q395 551 384 545 Q397 537 406.5 526.5 Q416 516 424 502 L788 0 L709 0 Q695 0 685 4.5 Q675 9 667 23 L337 471 Q324 490 311 496 Q298 502 270 502 L234 502 L173 0 L80 0 L258 1455 L351 1455 Z " />
<glyph glyph-name="kgreenlandic" unicode="&#x138;" horiz-adv-x="883" d="M296 995 L243 568 L279 568 Q291 568 304 571 Q317 574 334 591 L746 970 Q757 982 768.5 988.5 Q780 995 797 995 L878 995 L425 578 Q403 556 384 545 Q398 537 407 526.5 Q416 516 424 502 L788 0 L709 0 Q695 0 685 4.5 Q675 9 667 23 L337 471 Q324 490 310.5 496 Q297 502 270 502 L235 502 L173 0 L80 0 L203 995 L296 995 Z " />
<glyph glyph-name="lslash" unicode="&#x142;" horiz-adv-x="538" d="M543 951 L543 901 Q543 890 539 882.5 Q535 875 524 870 L348 787 L252 0 L160 0 L251 749 L57 660 L57 712 Q57 731 75 741 L260 829 L336 1455 L429 1455 L357 867 L543 951 Z " />
<glyph glyph-name="lcaron" unicode="&#x13e;" horiz-adv-x="418" d="M604 1457 Q624 1457 624 1436 Q624 1426 619.5 1409.5 Q615 1393 604.5 1363.5 Q594 1334 576 1290 Q558 1246 531 1180 Q524 1166 515.5 1161 Q507 1156 492 1156 L469 1156 L554 1457 L604 1457 Z M90 0 L266 1455 L359 1455 L182 0 L90 0 Z " />
<glyph glyph-name="m" unicode="m" horiz-adv-x="1560" d="M81 0 L201 998 L244 998 Q279 998 279 962 L251 684 Q329 839 431 924.5 Q533 1010 646 1010 Q704 1010 742 989 Q780 968 801 927.5 Q822 887 828 828 Q834 769 828 693 Q867 773 913.5 832.5 Q960 892 1011.5 931.5 Q1063 971 1117 990.5 Q1171 1010 1224 1010 Q1289 1010 1331.5 985 Q1374 960 1397 912 Q1420 864 1424.5 794.5 Q1429 725 1418 636 L1343 0 L1250 0 L1325 636 Q1334 707 1332.5 762 Q1331 817 1316.5 854.5 Q1302 892 1272.5 911 Q1243 930 1194 930 Q1145 930 1094.5 907.5 Q1044 885 995.5 840 Q947 795 903.5 727 Q860 659 825 567 L758 0 L665 0 L740 636 Q749 707 749 762 Q749 817 736 854.5 Q723 892 694.5 911 Q666 930 617 930 Q503 930 406.5 826 Q310 722 237 532 L174 0 L81 0 Z " />
<glyph glyph-name="n" unicode="n" horiz-adv-x="1032" d="M251 675 Q291 754 340.5 816.5 Q390 879 445 922 Q500 965 558 987.5 Q616 1010 675 1010 Q739 1010 784.5 985 Q830 960 857.5 912 Q885 864 893.5 794.5 Q902 725 891 636 L816 0 L722 0 L797 636 Q814 778 778 854 Q742 930 643 930 Q587 930 530.5 901.5 Q474 873 420.5 820.5 Q367 768 320 693.5 Q273 619 237 526 L176 0 L82 0 L201 998 L244 998 Q279 998 279 962 L251 675 Z " />
<glyph glyph-name="eng" unicode="&#x14b;" horiz-adv-x="1033" d="M251 675 Q291 754 340.5 816.5 Q390 879 445 922 Q500 965 558 987.5 Q616 1010 675 1010 Q739 1010 784.5 985 Q830 960 857.5 912 Q885 864 893.5 794.5 Q902 725 891 636 L821 35 L811 -48 Q802 -123 778 -183 Q754 -243 716 -285 Q678 -327 626 -349 Q574 -371 507 -371 Q469 -371 440 -365.5 Q411 -360 378 -347 L387 -304 Q390 -291 395.5 -286.5 Q401 -282 412 -282 Q421 -282 443 -290 Q465 -298 507 -298 Q593 -298 647.5 -238.5 Q702 -179 716 -57 L725 27 L797 636 Q814 778 778 854 Q742 930 643 930 Q587 930 530.5 901.5 Q474 873 420.5 820.5 Q367 768 320 693.5 Q273 619 237 526 L176 0 L82 0 L201 998 L244 998 Q279 998 279 962 L251 675 Z " />
<glyph glyph-name="o" unicode="o" horiz-adv-x="1026" d="M441 62 Q528 62 599.5 107.5 Q671 153 722 228.5 Q773 304 800.5 401.5 Q828 499 828 602 Q828 762 757 848 Q686 934 560 934 Q473 934 401.5 889 Q330 844 279.5 769.5 Q229 695 201 598 Q173 501 173 396 Q173 237 243.5 149.5 Q314 62 441 62 Z M433 -13 Q353 -13 287.5 15 Q222 43 175.5 96 Q129 149 103.5 224.5 Q78 300 78 396 Q78 517 114 628 Q150 739 215.5 824 Q281 909 371 959.5 Q461 1010 569 1010 Q649 1010 714.5 982 Q780 954 826.5 901 Q873 848 898.5 772.5 Q924 697 924 603 Q924 482 887.5 371 Q851 260 786 174.5 Q721 89 631 38 Q541 -13 433 -13 Z " />
<glyph glyph-name="oslash" unicode="&#xf8;" horiz-adv-x="1026" d="M263 124 Q333 57 441 57 Q528 57 600.5 102 Q673 147 724.5 222.5 Q776 298 804.5 396.5 Q833 495 833 602 Q833 734 781 820 L263 124 Z M741 871 Q706 905 661 923 Q616 941 560 941 Q473 941 401 896.5 Q329 852 277 777 Q225 702 196.5 603 Q168 504 168 396 Q168 327 182.5 271 Q197 215 223 173 L741 871 Z M839 887 Q880 834 902 763 Q924 692 924 603 Q924 482 887.5 371 Q851 260 786 174.5 Q721 89 631 38 Q541 -13 433 -13 Q300 -13 210 62 L140 -34 Q127 -51 110.5 -58.5 Q94 -66 77 -66 L39 -66 L166 107 Q124 159 101 232 Q78 305 78 396 Q78 517 114 628.5 Q150 740 215.5 825 Q281 910 371 960.5 Q461 1011 569 1011 Q637 1011 693.5 991 Q750 971 795 933 L856 1016 Q868 1032 877 1039 Q886 1046 906 1046 L956 1046 L839 887 Z " />
<glyph glyph-name="oe" unicode="&#x153;" horiz-adv-x="1614" d="M406 60 Q495 60 564.5 99.5 Q634 139 683.5 210 Q733 281 761.5 378.5 Q790 476 797 593 Q802 669 790.5 732.5 Q779 796 750.5 842 Q722 888 676 913 Q630 938 566 938 Q476 938 403 896 Q330 854 278 776.5 Q226 699 198 589.5 Q170 480 170 344 Q170 290 182.5 239 Q195 188 223 148 Q251 108 296 84 Q341 60 406 60 Z M1234 942 Q1162 942 1101 913 Q1040 884 992.5 830 Q945 776 913.5 699.5 Q882 623 870 528 Q1044 548 1153.5 577 Q1263 606 1324.5 640.5 Q1386 675 1408 714 Q1430 753 1430 792 Q1430 822 1418.5 849 Q1407 876 1383 896.5 Q1359 917 1322 929.5 Q1285 942 1234 942 Z M1504 185 Q1456 134 1410 96.5 Q1364 59 1316 34.5 Q1268 10 1216.5 -1.5 Q1165 -13 1107 -13 Q986 -13 906.5 63.5 Q827 140 801 283 Q771 214 728.5 159 Q686 104 633 66 Q580 28 517.5 7.5 Q455 -13 383 -13 Q304 -13 246 16 Q188 45 150.5 93.5 Q113 142 94.5 205.5 Q76 269 76 338 Q76 499 115 624 Q154 749 221.5 835 Q289 921 380 966 Q471 1011 576 1011 Q697 1011 769 942.5 Q841 874 864 757 Q922 875 1020 943 Q1118 1011 1248 1011 Q1309 1011 1357.5 995 Q1406 979 1440 950.5 Q1474 922 1491.5 882.5 Q1509 843 1509 795 Q1509 739 1482 688.5 Q1455 638 1383.5 596 Q1312 554 1187 521 Q1062 488 865 467 Q864 456 864 444 Q864 432 864 420 Q864 248 933.5 155.5 Q1003 63 1124 63 Q1177 63 1219.5 74.5 Q1262 86 1295.5 104 Q1329 122 1355 142 Q1381 162 1401 180 Q1421 198 1435.5 209.5 Q1450 221 1461 221 Q1473 221 1482 211 L1504 185 Z " />
<glyph glyph-name="p" unicode="p" horiz-adv-x="1032" d="M198 205 Q242 126 306 94 Q370 62 439 62 Q502 62 556.5 87.5 Q611 113 655.5 157 Q700 201 734.5 259.5 Q769 318 792.5 383 Q816 448 828.5 516.5 Q841 585 841 650 Q841 784 790 858.5 Q739 933 641 933 Q584 933 526.5 901 Q469 869 416 811 Q363 753 316 671.5 Q269 590 233 490 L198 205 Z M249 649 Q288 730 336.5 796.5 Q385 863 439 910.5 Q493 958 552 984 Q611 1010 672 1010 Q737 1010 786 985 Q835 960 868 914.5 Q901 869 918 804 Q935 739 935 659 Q935 582 919 502.5 Q903 423 873.5 348.5 Q844 274 801.5 208 Q759 142 705 93 Q651 44 586.5 15.5 Q522 -13 450 -13 Q369 -13 300.5 23 Q232 59 189 129 L130 -352 L38 -352 L202 998 L245 998 Q280 998 280 962 L249 649 Z " />
<glyph glyph-name="thorn" unicode="&#xfe;" horiz-adv-x="1032" d="M198 206 Q219 166 246.5 138.5 Q274 111 305.5 94 Q337 77 370.5 69.5 Q404 62 439 62 Q502 62 556.5 87.5 Q611 113 655.5 157 Q700 201 734.5 259.5 Q769 318 792.5 383 Q816 448 828.5 516.5 Q841 585 841 650 Q841 784 790 858.5 Q739 933 641 933 Q584 933 526 901 Q468 869 415 810.5 Q362 752 315 670 Q268 588 232 488 L198 206 Z M253 658 Q292 737 340 802 Q388 867 441.5 913 Q495 959 553.5 984.5 Q612 1010 672 1010 Q737 1010 786 985 Q835 960 868 914.5 Q901 869 918 804 Q935 739 935 659 Q935 582 919 502.5 Q903 423 873.5 348.5 Q844 274 801.5 208 Q759 142 705 93 Q651 44 586.5 15.5 Q522 -13 450 -13 Q369 -13 300.5 23 Q232 59 188 130 L134 -313 Q132 -330 120.5 -341 Q109 -352 92 -352 L38 -352 L258 1455 L351 1455 L253 658 Z " />
<glyph glyph-name="q" unicode="q" horiz-adv-x="998" d="M793 917 Q763 928 731 932.5 Q699 937 665 937 Q598 937 535 914.5 Q472 892 416.5 852 Q361 812 314.5 757 Q268 702 234 636.5 Q200 571 181.5 498 Q163 425 163 349 Q163 215 208.5 140.5 Q254 66 351 66 Q408 66 463 98 Q518 130 568 188 Q618 246 662.5 327.5 Q707 409 742 508 L793 917 Z M719 328 Q681 251 636.5 188.5 Q592 126 541.5 81 Q491 36 435.5 11.5 Q380 -13 320 -13 Q257 -13 210 11.5 Q163 36 131.5 81 Q100 126 84 190 Q68 254 68 334 Q68 421 90 504.5 Q112 588 152.5 663 Q193 738 249 801 Q305 864 372.5 910 Q440 956 517 982 Q594 1008 676 1008 Q736 1008 788 997.5 Q840 987 891 961 L730 -352 L676 -352 Q653 -352 645 -337.5 Q637 -323 640 -299 L719 328 Z " />
<glyph glyph-name="r" unicode="r" horiz-adv-x="657" d="M250 667 Q291 765 339.5 837 Q388 909 442.5 951 Q497 993 556 1003 Q615 1013 676 989 L659 900 Q591 926 530 912.5 Q469 899 415.5 848.5 Q362 798 316.5 712 Q271 626 235 508 L174 0 L81 0 L201 998 L244 998 Q279 998 279 962 L250 667 Z " />
<glyph glyph-name="s" unicode="s" horiz-adv-x="786" d="M697 873 Q689 859 675 859 Q665 859 650.5 871.5 Q636 884 611.5 899.5 Q587 915 550 927.5 Q513 940 458 940 Q407 940 361.5 923 Q316 906 282.5 877.5 Q249 849 229.5 811.5 Q210 774 210 732 Q210 691 229 663 Q248 635 279.5 614.5 Q311 594 350.5 579 Q390 564 432 549 Q474 534 513.5 515.5 Q553 497 584.5 471 Q616 445 635 407.5 Q654 370 654 317 Q654 253 628.5 193 Q603 133 555.5 86.5 Q508 40 441.5 12 Q375 -16 293 -16 Q197 -16 131.5 17.5 Q66 51 19 105 L43 139 Q54 155 70 155 Q80 155 95 139 Q110 123 136 103.5 Q162 84 203 68 Q244 52 306 52 Q366 52 414.5 71.5 Q463 91 497.5 125 Q532 159 551 203.5 Q570 248 570 298 Q570 342 551 372 Q532 402 500.5 423.5 Q469 445 429.5 460 Q390 475 348 489.5 Q306 504 266.5 521.5 Q227 539 195.5 564 Q164 589 145 625 Q126 661 126 713 Q126 771 151 824.5 Q176 878 221 919.5 Q266 961 328.5 985.5 Q391 1010 465 1010 Q549 1010 610.5 984 Q672 958 720 906 L697 873 Z " />
<glyph glyph-name="scedilla" unicode="&#x15f;" horiz-adv-x="786" d="M43 139 Q54 155 70 155 Q80 155 95 139 Q110 123 136 103.5 Q162 84 203 68 Q244 52 306 52 Q366 52 414.5 71.5 Q463 91 497.5 125 Q532 159 551 203.5 Q570 248 570 298 Q570 342 551 372 Q532 402 500.5 423.5 Q469 445 429.5 460 Q390 475 348 489.5 Q306 504 266.5 521.5 Q227 539 195.5 564 Q164 589 145 625 Q126 661 126 713 Q126 771 151 824.5 Q176 878 221 919.5 Q266 961 328.5 985.5 Q391 1010 465 1010 Q549 1010 610.5 984 Q672 958 720 906 L697 873 Q689 859 675 859 Q665 859 650.5 871.5 Q636 884 611.5 899.5 Q587 915 550 927.5 Q513 940 458 940 Q407 940 361.5 923 Q316 906 282.5 877.5 Q249 849 229.5 811.5 Q210 774 210 732 Q210 691 229 663 Q248 635 279.5 614.5 Q311 594 350.5 579 Q390 564 432 549 Q474 534 513.5 515.5 Q553 497 584.5 471 Q616 445 635 407.5 Q654 370 654 317 Q654 255 630.5 197.5 Q607 140 563 94 Q519 48 457 18.5 Q395 -11 318 -15 L287 -94 Q362 -109 400.5 -136 Q439 -163 439 -214 Q439 -248 424.5 -274.5 Q410 -301 385 -319.5 Q360 -338 325 -347.5 Q290 -357 250 -357 Q213 -357 179 -345.5 Q145 -334 122 -315 L136 -287 Q142 -276 153 -276 Q158 -276 165 -281.5 Q172 -287 183.5 -293 Q195 -299 212 -304.5 Q229 -310 255 -310 Q306 -310 334 -285.5 Q362 -261 362 -219 Q362 -197 351 -182 Q340 -167 320 -157 Q300 -147 272.5 -141.5 Q245 -136 212 -131 L261 -15 Q178 -10 120.5 22.5 Q63 55 19 105 L43 139 Z " />
<glyph glyph-name="germandbls" unicode="&#xdf;" horiz-adv-x="1089" d="M254 963 Q272 1058 315 1143.5 Q358 1229 420 1293 Q482 1357 559 1394.5 Q636 1432 722 1432 Q795 1432 850.5 1409.5 Q906 1387 942.5 1350.5 Q979 1314 997.5 1268 Q1016 1222 1016 1176 Q1016 1106 990.5 1056 Q965 1006 926 968 Q887 930 842.5 900 Q798 870 759 841 Q720 812 694.5 779.5 Q669 747 669 704 Q669 663 692 637.5 Q715 612 749.5 592.5 Q784 573 824.5 554 Q865 535 899.5 507.5 Q934 480 957 438 Q980 396 980 330 Q980 254 953 190.5 Q926 127 878.5 81 Q831 35 765.5 9.5 Q700 -16 623 -16 Q576 -16 537.5 -7 Q499 2 466.5 17.5 Q434 33 406.5 55.5 Q379 78 355 105 L381 138 Q391 153 410 153 Q422 153 437.5 137 Q453 121 478 102.5 Q503 84 541.5 68 Q580 52 637 52 Q695 52 742.5 72 Q790 92 823 126.5 Q856 161 874 207.5 Q892 254 892 307 Q892 363 868.5 398 Q845 433 809 457 Q773 481 732 498.5 Q691 516 655 538.5 Q619 561 595.5 594 Q572 627 572 680 Q572 736 598.5 777 Q625 818 664.5 851.5 Q704 885 750.5 915.5 Q797 946 836.5 981.5 Q876 1017 902.5 1062 Q929 1107 929 1170 Q929 1199 918 1233 Q907 1267 881 1295.5 Q855 1324 813 1343 Q771 1362 709 1362 Q644 1362 583 1329 Q522 1296 472 1237 Q422 1178 387.5 1097.5 Q353 1017 341 923 L229 21 L187 -209 Q175 -250 138 -250 L104 -250 L244 892 L113 901 Q85 904 89 925 L92 963 L254 963 Z " />
<glyph glyph-name="longs" unicode="&#x17f;" horiz-adv-x="492" d="M267 1090 Q278 1175 306.5 1239 Q335 1303 377.5 1346 Q420 1389 475 1410.5 Q530 1432 593 1432 Q622 1432 650 1426.5 Q678 1421 699 1411 L691 1365 Q689 1357 682 1355.5 Q675 1354 663 1355.5 Q651 1357 635 1359.5 Q619 1362 598 1362 Q553 1362 514 1347 Q475 1332 444 1299.5 Q413 1267 391.5 1214.5 Q370 1162 361 1087 L229 21 L187 -209 Q175 -250 138 -250 L104 -250 L243 892 L113 901 Q85 904 89 925 L92 963 L252 963 L267 1090 Z " />
<glyph glyph-name="t" unicode="t" horiz-adv-x="682" d="M153 167 Q153 173 153.5 182 Q154 191 155.5 209 Q157 227 160 255.5 Q163 284 169 328 L237 893 L106 893 Q96 893 90 899 Q84 905 86 916 L91 953 L248 965 L314 1321 Q316 1330 323 1337 Q330 1344 340 1344 L386 1344 L339 964 L627 964 L619 893 L331 893 L262 331 Q257 290 253.5 264 Q250 238 248.5 221.5 Q247 205 246.5 197 Q246 189 246 185 Q246 120 276.5 91 Q307 62 355 62 Q388 62 413.5 72.5 Q439 83 458 95.5 Q477 108 489 118.5 Q501 129 507 129 Q517 129 522 119 L540 77 Q500 35 443 9.5 Q386 -16 329 -16 Q247 -16 200.5 29 Q154 74 153 167 Z " />
<glyph glyph-name="tcaron" unicode="&#x165;" horiz-adv-x="682" d="M664 1457 Q684 1457 684 1436 Q684 1426 679.5 1409.5 Q675 1393 664.5 1363.5 Q654 1334 636 1290 Q618 1246 591 1180 Q584 1166 575.5 1161 Q567 1156 552 1156 L529 1156 L614 1457 L664 1457 Z M153 167 Q153 173 153.5 182 Q154 191 155.5 209 Q157 227 160 255.5 Q163 284 169 328 L237 893 L106 893 Q96 893 90 899 Q84 905 86 916 L91 953 L248 965 L314 1321 Q316 1330 323 1337 Q330 1344 340 1344 L386 1344 L339 964 L627 964 L619 893 L331 893 L262 331 Q257 290 253.5 264 Q250 238 248.5 221.5 Q247 205 246.5 197 Q246 189 246 185 Q246 120 276.5 91 Q307 62 355 62 Q388 62 413.5 72.5 Q439 83 458 95.5 Q477 108 489 118.5 Q501 129 507 129 Q517 129 522 119 L540 77 Q500 35 443 9.5 Q386 -16 329 -16 Q247 -16 200.5 29 Q154 74 153 167 Z " />
<glyph glyph-name="tbar" unicode="&#x167;" horiz-adv-x="694" d="M163 167 Q163 173 163.5 182 Q164 191 165.5 209 Q167 227 170 255.5 Q173 284 179 328 L215 627 L74 627 Q63 627 56 633 Q49 639 51 652 L56 690 L222 690 L247 893 L116 893 Q106 893 100 899 Q94 905 96 916 L101 953 L258 965 L324 1321 Q326 1330 333 1337 Q340 1344 350 1344 L396 1344 L349 964 L637 964 L629 893 L341 893 L316 690 L586 690 L577 627 L308 627 L272 331 Q267 290 263.5 264 Q260 238 258.5 221.5 Q257 205 256.5 197 Q256 189 256 185 Q256 120 286.5 91 Q317 62 365 62 Q398 62 423.5 72.5 Q449 83 468 95.5 Q487 108 499 118.5 Q511 129 517 129 Q527 129 532 119 L550 77 Q510 35 453 9.5 Q396 -16 339 -16 Q257 -16 210.5 29 Q164 74 163 167 Z " />
<glyph glyph-name="u" unicode="u" horiz-adv-x="1032" d="M925 995 L805 0 L761 0 Q742 0 733.5 10 Q725 20 725 37 L755 320 Q714 241 665 179 Q616 117 561.5 74.5 Q507 32 448.5 9.5 Q390 -13 332 -13 Q204 -13 149 85.5 Q94 184 116 362 L191 995 L285 995 L210 362 Q193 219 229 142.5 Q265 66 364 66 Q419 66 475.5 94 Q532 122 585 174.5 Q638 227 685 300.5 Q732 374 768 466 L831 995 L925 995 Z " />
<glyph glyph-name="uogonek" unicode="&#x173;" horiz-adv-x="1032" d="M794 0 Q773 -12 747.5 -30 Q722 -48 700.5 -72.5 Q679 -97 664.5 -126.5 Q650 -156 650 -190 Q650 -231 675.5 -254 Q701 -277 741 -277 Q766 -277 784 -271.5 Q802 -266 814.5 -260 Q827 -254 834.5 -248.5 Q842 -243 847 -243 Q856 -243 859 -251 L870 -285 Q841 -309 800 -323.5 Q759 -338 716 -338 Q650 -338 612 -305 Q574 -272 574 -214 Q574 -178 588 -146 Q602 -114 625 -86 Q648 -58 677.5 -34.5 Q707 -11 737 7 Q725 17 725 37 L755 320 Q714 241 665 179 Q616 117 561.5 74.5 Q507 32 448.5 9.5 Q390 -13 332 -13 Q204 -13 149 85.5 Q94 184 116 362 L191 995 L285 995 L210 362 Q193 219 229 142.5 Q265 66 364 66 Q419 66 475.5 94 Q532 122 585 174.5 Q638 227 685 300.5 Q732 374 768 466 L831 995 L925 995 L805 0 L794 0 Z " />
<glyph glyph-name="v" unicode="v" horiz-adv-x="927" d="M940 995 L430 0 L352 0 L85 995 L158 995 Q172 995 179.5 987.5 Q187 980 189 971 L392 186 Q396 163 398.5 140.5 Q401 118 403 95 Q410 118 418 140 Q426 162 437 186 L834 971 Q839 982 848 988.5 Q857 995 869 995 L940 995 Z " />
<glyph glyph-name="w" unicode="w" horiz-adv-x="1410" d="M1410 995 L983 0 L915 0 Q899 0 896 21 L744 829 Q739 853 738 876 Q734 864 730 852.5 Q726 841 721 829 L368 21 Q360 0 344 0 L279 0 L95 995 L162 995 Q188 995 193 971 L326 186 Q331 142 332 101 Q340 122 348 143 Q356 164 365 186 L707 978 Q714 1000 736 1000 L773 1000 Q795 1000 797 978 L944 186 Q948 164 950.5 143 Q953 122 955 101 Q962 121 969 142 Q976 163 984 186 L1310 971 Q1315 982 1324 988.5 Q1333 995 1344 995 L1410 995 Z " />
<glyph glyph-name="x" unicode="x" horiz-adv-x="872" d="M489 531 L768 0 L688 0 Q664 0 655 22 L421 479 Q413 463 405 451 L71 20 Q64 12 56.5 6 Q49 0 37 0 L-43 0 L371 533 L120 995 L200 995 Q213 995 219 991.5 Q225 988 230 980 L439 582 Q446 597 455 609 L743 978 Q753 995 770 995 L854 995 L489 531 Z " />
<glyph glyph-name="y" unicode="y" horiz-adv-x="929" d="M944 995 L253 -324 Q239 -352 212 -352 L145 -352 L355 38 L88 995 L162 995 Q176 995 183 988.5 Q190 982 192 971 L402 197 Q406 182 407.5 167 Q409 152 411 137 Q417 152 424 167 Q431 182 438 197 L839 974 Q844 985 853 990 Q862 995 871 995 L944 995 Z " />
<glyph glyph-name="z" unicode="z" horiz-adv-x="827" d="M808 995 L803 955 Q802 936 784 917 L113 75 L672 75 L664 0 L-10 0 L-6 38 Q-6 46 -1 56 Q4 66 12 75 L685 920 L132 920 L142 995 L808 995 Z " />
<glyph glyph-name="ordfeminine" unicode="&#xaa;" horiz-adv-x="683" d="M532 1115 Q371 1109 298.5 1072 Q226 1035 226 968 Q226 922 254 901.5 Q282 881 320 881 Q382 881 427.5 908 Q473 935 516 975 L532 1115 Z M233 1337 Q283 1384 335.5 1406.5 Q388 1429 450 1429 Q498 1429 531.5 1411.5 Q565 1394 585 1364 Q605 1334 612 1295.5 Q619 1257 613 1215 L566 839 L535 839 Q524 839 520.5 842.5 Q517 846 513 857 L513 926 Q461 879 411.5 854.5 Q362 830 295 830 Q267 830 242 838 Q217 846 198.5 861.5 Q180 877 169 901.5 Q158 926 158 959 Q158 1001 178.5 1037 Q199 1073 244.5 1100.5 Q290 1128 362.5 1144.5 Q435 1161 538 1163 L544 1215 Q553 1292 526.5 1331.5 Q500 1371 435 1371 Q396 1371 368.5 1360 Q341 1349 320.5 1336 Q300 1323 286 1312 Q272 1301 262 1301 Q254 1301 249.5 1305 Q245 1309 242 1314 L233 1337 Z " />
<glyph glyph-name="ordmasculine" unicode="&#xba;" horiz-adv-x="752" d="M477 1429 Q532 1429 574.5 1411 Q617 1393 646.5 1359.5 Q676 1326 691.5 1279.5 Q707 1233 707 1176 Q707 1097 685.5 1032.5 Q664 968 624.5 922.5 Q585 877 529 852 Q473 827 404 827 Q348 827 305 845 Q262 863 232.5 896 Q203 929 187.5 975.5 Q172 1022 172 1079 Q172 1158 193.5 1222.5 Q215 1287 254.5 1333 Q294 1379 350.5 1404 Q407 1429 477 1429 Z M411 883 Q466 883 508 904 Q550 925 578 963.5 Q606 1002 620.5 1056 Q635 1110 635 1176 Q635 1265 594 1318.5 Q553 1372 471 1372 Q413 1372 370.5 1350.5 Q328 1329 300 1290 Q272 1251 258.5 1197 Q245 1143 245 1078 Q245 989 286 936 Q327 883 411 883 Z " />
<glyph glyph-name="uni207F" unicode="&#x207f;" horiz-adv-x="580" d="M239 1330 Q279 1372 326 1397.5 Q373 1423 430 1423 Q472 1423 501.5 1409.5 Q531 1396 548.5 1371 Q566 1346 572 1310.5 Q578 1275 573 1232 L534 911 L466 911 L505 1232 Q513 1297 489 1332.5 Q465 1368 404 1368 Q359 1368 318 1345.5 Q277 1323 241 1284 L195 911 L127 911 L189 1415 L224 1415 Q239 1415 242 1397 L239 1330 Z " />
<glyph glyph-name="grave" unicode="&#x60;" horiz-adv-x="736" d="M424 1431 Q446 1431 456.5 1424 Q467 1417 475 1399 L592 1161 L542 1161 Q531 1161 523.5 1164.5 Q516 1168 511 1178 L339 1431 L424 1431 Z " />
<glyph glyph-name="acute" unicode="&#xb4;" horiz-adv-x="736" d="M736 1431 L508 1178 Q500 1168 492 1164.5 Q484 1161 473 1161 L420 1161 L591 1399 Q603 1417 615 1424 Q627 1431 649 1431 L736 1431 Z " />
<glyph glyph-name="circumflex" unicode="&#x2c6;" horiz-adv-x="736" d="M739 1169 L679 1169 Q673 1169 666 1172 Q659 1175 654 1183 L531 1349 L522 1361 Q519 1357 511 1349 L350 1183 Q338 1169 322 1169 L260 1169 L488 1415 L566 1415 L739 1169 Z " />
<glyph glyph-name="caron" unicode="&#x2c7;" horiz-adv-x="736" d="M766 1415 L539 1169 L460 1169 L288 1415 L349 1415 Q366 1415 373 1404 L498 1236 Q500 1233 502.5 1230 Q505 1227 507 1223 Q509 1227 512 1230 Q515 1233 518 1236 L681 1404 Q692 1415 706 1415 L766 1415 Z " />
<glyph glyph-name="uni0315" unicode="&#x315;" d="M595 1457 Q606 1457 610.5 1451 Q615 1445 615 1437 Q615 1427 610.5 1410.5 Q606 1394 595.5 1365 Q585 1336 567 1291.5 Q549 1247 521 1180 Q514 1166 505.5 1160.5 Q497 1155 482 1155 L449 1155 L534 1457 L595 1457 Z " />
<glyph glyph-name="tilde" unicode="&#x2dc;" horiz-adv-x="736" d="M617 1280 Q657 1280 680.5 1307.5 Q704 1335 710 1382 L765 1382 Q761 1346 748.5 1314.5 Q736 1283 716.5 1260 Q697 1237 671 1224 Q645 1211 613 1211 Q582 1211 557 1227.5 Q532 1244 509.5 1263.5 Q487 1283 465 1299.5 Q443 1316 419 1316 Q381 1316 357 1287.5 Q333 1259 327 1214 L271 1214 Q275 1250 288 1281.5 Q301 1313 320.5 1336 Q340 1359 366.5 1372 Q393 1385 424 1385 Q455 1385 480.5 1368.5 Q506 1352 528 1332.5 Q550 1313 571.5 1296.5 Q593 1280 617 1280 Z " />
<glyph glyph-name="&amp;#xaf;" unicode="&#xaf;" horiz-adv-x="736" d="M265 1317 L767 1317 L759 1252 L258 1252 L265 1317 Z " />
<glyph glyph-name="&amp;#x2c9;" unicode="&#x2c9;" horiz-adv-x="736" d="M265 1317 L767 1317 L759 1252 L258 1252 L265 1317 Z " />
<glyph glyph-name="breve" unicode="&#x2d8;" horiz-adv-x="736" d="M500 1168 Q440 1168 400 1187.5 Q360 1207 337.5 1241 Q315 1275 308 1320 Q301 1365 307 1415 L371 1415 Q366 1378 370.5 1345 Q375 1312 390.5 1287 Q406 1262 434.5 1247.5 Q463 1233 507 1233 Q551 1233 582.5 1247.5 Q614 1262 635 1287 Q656 1312 668 1345 Q680 1378 684 1415 L748 1415 Q742 1365 725.5 1320 Q709 1275 679 1241 Q649 1207 604.5 1187.5 Q560 1168 500 1168 Z " />
<glyph glyph-name="ring" unicode="&#x2da;" horiz-adv-x="736" d="M356 1302 Q360 1338 376 1368 Q392 1398 416 1419.5 Q440 1441 470 1453.5 Q500 1466 533 1466 Q565 1466 592.5 1453.5 Q620 1441 639.5 1419.5 Q659 1398 668.5 1368 Q678 1338 674 1302 Q669 1266 653 1236.5 Q637 1207 613 1185 Q589 1163 558.5 1151 Q528 1139 496 1139 Q463 1139 436 1151 Q409 1163 390 1185 Q371 1207 361.5 1236.5 Q352 1266 356 1302 Z M409 1302 Q404 1252 429 1220 Q454 1188 502 1188 Q548 1188 581 1220 Q614 1252 620 1302 Q626 1352 599.5 1384 Q573 1416 527 1416 Q480 1416 448 1384 Q416 1352 409 1302 Z " />
<glyph glyph-name="hungarumlaut" unicode="&#x2dd;" horiz-adv-x="736" d="M629 1431 L419 1178 Q411 1168 402 1164.5 Q393 1161 382 1161 L344 1161 L511 1399 Q522 1417 534 1424 Q546 1431 568 1431 L629 1431 Z M879 1431 L638 1178 Q630 1168 621.5 1164.5 Q613 1161 602 1161 L559 1161 L753 1399 Q760 1408 766 1414 Q772 1420 778 1423.5 Q784 1427 792 1429 Q800 1431 811 1431 L879 1431 Z " />
<glyph glyph-name="dotaccent" unicode="&#x2d9;" horiz-adv-x="736" d="M605 1338 Q605 1320 597.5 1304.5 Q590 1289 578 1277 Q566 1265 550.5 1258 Q535 1251 519 1251 Q502 1251 487 1258 Q472 1265 461 1277 Q450 1289 443 1304.5 Q436 1320 436 1338 Q436 1356 443 1372 Q450 1388 461.5 1400.5 Q473 1413 488 1420 Q503 1427 520 1427 Q536 1427 551.5 1420 Q567 1413 579 1401 Q591 1389 598 1372.5 Q605 1356 605 1338 Z " />
<glyph glyph-name="cedilla" unicode="&#xb8;" horiz-adv-x="736" d="M362 -94 Q437 -109 475.5 -136 Q514 -163 514 -214 Q514 -248 499.5 -274.5 Q485 -301 460 -319.5 Q435 -338 400 -347.5 Q365 -357 325 -357 Q288 -357 254 -345.5 Q220 -334 197 -315 L211 -287 Q217 -276 228 -276 Q233 -276 240 -281.5 Q247 -287 258.5 -293 Q270 -299 287 -304.5 Q304 -310 330 -310 Q381 -310 409 -285.5 Q437 -261 437 -219 Q437 -197 426 -182 Q415 -167 395 -157 Q375 -147 347.5 -141.5 Q320 -136 287 -131 L348 12 L404 12 L362 -94 Z " />
<glyph glyph-name="ogonek" unicode="&#x2db;" horiz-adv-x="736" d="M472 -243 Q481 -243 484 -251 L495 -285 Q466 -309 425 -323.5 Q384 -338 341 -338 Q275 -338 237 -305 Q199 -272 199 -214 Q199 -177 214 -143.5 Q229 -110 254 -81.5 Q279 -53 309.5 -29 Q340 -5 372 13 L419 0 Q398 -12 372.5 -30 Q347 -48 325.5 -72.5 Q304 -97 289.5 -126.5 Q275 -156 275 -190 Q275 -231 300.5 -254 Q326 -277 366 -277 Q391 -277 409 -271.5 Q427 -266 439.5 -260 Q452 -254 459.5 -248.5 Q467 -243 472 -243 Z " />
<glyph glyph-name="Gamma" unicode="&#x393;" horiz-adv-x="1016" d="M1070 1335 L387 1335 L223 0 L123 0 L297 1415 L1079 1415 L1070 1335 Z " />
<glyph glyph-name="uni0394" unicode="&#x394;" horiz-adv-x="1225" d="M715 1233 Q710 1249 706.5 1268 Q703 1287 699 1308 Q691 1286 682.5 1267.5 Q674 1249 666 1232 L95 80 L1002 80 L715 1233 Z M1125 0 L-49 0 L668 1415 L757 1415 L1125 0 Z " />
<glyph glyph-name="Theta" unicode="&#x398;" horiz-adv-x="1473" d="M477 763 L1024 763 L1013 681 L468 681 L477 763 Z M1381 816 Q1381 629 1326.5 476 Q1272 323 1175 214 Q1078 105 946 45 Q814 -15 660 -15 Q536 -15 436 29.5 Q336 74 265.5 155 Q195 236 157 349 Q119 462 119 599 Q119 785 174 938.5 Q229 1092 325.5 1201.5 Q422 1311 553.5 1371 Q685 1431 838 1431 Q963 1431 1063.5 1386.5 Q1164 1342 1234.5 1261 Q1305 1180 1343 1066.5 Q1381 953 1381 816 Z M1278 814 Q1278 937 1246.5 1035.5 Q1215 1134 1156 1203.5 Q1097 1273 1013.5 1310.5 Q930 1348 827 1348 Q697 1348 586 1296 Q475 1244 393.5 1147 Q312 1050 266 912 Q220 774 220 602 Q220 479 252 380.5 Q284 282 343 213 Q402 144 485 106.5 Q568 69 671 69 Q803 69 914 120.5 Q1025 172 1106 269 Q1187 366 1232.5 503.5 Q1278 641 1278 814 Z " />
<glyph glyph-name="Lambda" unicode="&#x39b;" horiz-adv-x="1215" d="M1116 0 L1037 0 Q1023 0 1015 7.5 Q1007 15 1004 26 L710 1207 Q705 1227 700.5 1250.5 Q696 1274 692 1300 Q684 1274 674 1250.5 Q664 1227 653 1207 L70 26 Q65 15 54.5 7.5 Q44 0 31 0 L-48 0 L663 1415 L752 1415 L1116 0 Z " />
<glyph glyph-name="Xi" unicode="&#x39e;" horiz-adv-x="1135" d="M1152 1415 L1142 1330 L180 1330 L190 1415 L1152 1415 Z M988 85 L978 0 L17 0 L27 85 L988 85 Z M337 766 L840 766 L829 679 L326 679 L337 766 Z " />
<glyph glyph-name="Pi" unicode="&#x3a0;" horiz-adv-x="1403" d="M1132 0 L1032 0 L1196 1335 L387 1335 L223 0 L123 0 L297 1415 L1306 1415 L1132 0 Z " />
<glyph glyph-name="Sigma" unicode="&#x3a3;" horiz-adv-x="1115" d="M374 1335 Q341 1335 314 1337.5 Q287 1340 260 1346 Q286 1326 306.5 1304 Q327 1282 344 1252 L628 764 Q639 745 644 735 Q649 725 647 715 Q645 704 638.5 692 Q632 680 615 661 L192 152 Q168 124 147.5 105 Q127 86 106 72 Q135 76 160 78 Q185 80 209 80 L966 80 L957 0 L-4 0 L0 37 Q2 48 9 60 Q16 72 24 81 L564 705 L173 1341 Q162 1356 164 1373 L169 1415 L1131 1415 L1121 1335 L374 1335 Z " />
<glyph glyph-name="Phi" unicode="&#x3a6;" horiz-adv-x="1501" d="M743 155 Q874 156 983.5 206 Q1093 256 1172 341.5 Q1251 427 1295 540 Q1339 653 1339 780 Q1339 879 1308.5 968 Q1278 1057 1219 1124.5 Q1160 1192 1074.5 1231.5 Q989 1271 880 1272 L743 155 Z M785 1272 Q654 1271 544.5 1220.5 Q435 1170 356 1084.5 Q277 999 233 886 Q189 773 189 647 Q189 547 220 458 Q251 369 309.5 302 Q368 235 453.5 195.5 Q539 156 648 155 L785 1272 Z M889 1349 Q1021 1348 1123 1302 Q1225 1256 1294.5 1178.5 Q1364 1101 1400 999.5 Q1436 898 1436 785 Q1436 641 1386 512.5 Q1336 384 1244 287.5 Q1152 191 1022.5 134.5 Q893 78 734 77 L710 -117 L615 -117 L639 77 Q506 78 404 123.5 Q302 169 232.5 246.5 Q163 324 127.5 426 Q92 528 92 641 Q92 737 115 827 Q138 917 181.5 995.5 Q225 1074 287.5 1139 Q350 1204 428 1250.5 Q506 1297 598 1322.5 Q690 1348 794 1349 L817 1533 L912 1533 L889 1349 Z " />
<glyph glyph-name="Psi" unicode="&#x3a8;" horiz-adv-x="1470" d="M1462 1415 L1400 915 Q1384 787 1334 685 Q1284 583 1202 510 Q1120 437 1007.5 397 Q895 357 754 354 L711 0 L610 0 L654 354 Q514 357 411.5 397.5 Q309 438 245 510.5 Q181 583 156 685.5 Q131 788 146 915 L208 1415 L273 1415 Q290 1415 297.5 1404 Q305 1393 303 1378 L246 915 Q232 803 251 715 Q270 627 322 565.5 Q374 504 459 470.5 Q544 437 663 434 L784 1415 L884 1415 L764 434 Q884 437 977.5 470.5 Q1071 504 1138 565.5 Q1205 627 1245.5 715 Q1286 803 1300 915 L1357 1378 Q1359 1393 1369 1404 Q1379 1415 1396 1415 L1462 1415 Z " />
<glyph glyph-name="uni03A9" unicode="&#x3a9;" horiz-adv-x="1424" d="M835 86 L1252 86 L1247 35 Q1245 19 1233 9.5 Q1221 0 1206 0 L745 0 L789 360 Q889 383 973 427.5 Q1057 472 1117.5 540.5 Q1178 609 1212 702.5 Q1246 796 1246 917 Q1246 1023 1212.5 1104 Q1179 1185 1120 1240 Q1061 1295 981 1322.5 Q901 1350 808 1350 Q696 1350 594.5 1313.5 Q493 1277 415.5 1205 Q338 1133 292.5 1025.5 Q247 918 247 776 Q247 690 271 621.5 Q295 553 339.5 501 Q384 449 446 414 Q508 379 584 360 L541 0 L80 0 Q63 0 55 9.5 Q47 19 49 35 L54 86 L472 86 L499 310 Q421 330 356 371 Q291 412 244.5 471.5 Q198 531 172 608 Q146 685 146 777 Q146 931 200 1052.5 Q254 1174 346.5 1258 Q439 1342 561 1386.5 Q683 1431 818 1431 Q932 1431 1029.5 1396 Q1127 1361 1197.5 1295 Q1268 1229 1308 1134.5 Q1348 1040 1348 922 Q1348 797 1310.5 695 Q1273 593 1207.5 515 Q1142 437 1053.5 385 Q965 333 862 309 L835 86 Z " />
<glyph glyph-name="alpha" unicode="&#x3b1;" horiz-adv-x="1087" d="M359 64 Q419 64 474 95 Q529 126 579 180.5 Q629 235 674 310 Q719 385 759 473 Q761 531 762.5 588 Q764 645 760 696.5 Q756 748 745 792 Q734 836 713 868 Q692 900 657.5 918 Q623 936 573 936 Q490 936 416.5 887.5 Q343 839 287.5 758.5 Q232 678 199.5 574 Q167 470 167 359 Q167 213 217.5 138.5 Q268 64 359 64 Z M1024 995 Q982 846 932.5 710.5 Q883 575 825 457 Q824 382 823.5 314 Q823 246 832.5 194 Q842 142 865 111 Q888 80 933 80 L976 80 L967 29 Q965 17 949.5 6 Q934 -5 899 -5 Q854 -5 827.5 20.5 Q801 46 786.5 92 Q772 138 767 201 Q762 264 761 339 Q714 258 662.5 193 Q611 128 556 82.5 Q501 37 442 12 Q383 -13 322 -13 Q206 -13 139.5 77 Q73 167 73 346 Q73 431 90.5 513.5 Q108 596 140 670 Q172 744 217 806.5 Q262 869 316.5 914.5 Q371 960 433.5 985.5 Q496 1011 564 1011 Q641 1011 689.5 979 Q738 947 765.5 893 Q793 839 804.5 768.5 Q816 698 819 620 Q841 680 860.5 741.5 Q880 803 897 866 Q909 909 917 935 Q925 961 932.5 974 Q940 987 946.5 991 Q953 995 962 995 L1024 995 Z " />
<glyph glyph-name="beta" unicode="&#x3b2;" horiz-adv-x="1016" d="M198 206 Q237 137 304 99.5 Q371 62 452 62 Q536 62 602 93 Q668 124 714 177 Q760 230 784.5 302 Q809 374 809 455 Q809 524 786 578.5 Q763 633 721 670.5 Q679 708 620 727.5 Q561 747 488 747 L433 747 L441 820 L487 820 Q549 820 607 838.5 Q665 857 710 896 Q755 935 782.5 995 Q810 1055 810 1138 Q810 1187 795.5 1228 Q781 1269 753.5 1298 Q726 1327 686 1343 Q646 1359 595 1359 Q530 1359 479 1333.5 Q428 1308 389.5 1252 Q351 1196 324.5 1107.5 Q298 1019 282 894 L208 289 L198 206 Z M190 896 Q223 1166 321 1297.5 Q419 1429 600 1429 Q673 1429 728.5 1407 Q784 1385 821.5 1347 Q859 1309 878.5 1257 Q898 1205 898 1144 Q898 1070 877 1011 Q856 952 819 907 Q782 862 731 832 Q680 802 621 787 Q755 761 827.5 674 Q900 587 900 456 Q900 357 869.5 271.5 Q839 186 783 122.5 Q727 59 647 23 Q567 -13 467 -13 Q426 -13 386.5 -4 Q347 5 310.5 23.5 Q274 42 243 69.5 Q212 97 190 135 L164 -81 L120 -311 Q108 -352 71 -352 L38 -352 L115 292 L190 896 Z " />
<glyph glyph-name="gamma" unicode="&#x3b3;" horiz-adv-x="971" d="M970 995 Q921 847 868 721.5 Q815 596 755 484.5 Q695 373 627.5 270 Q560 167 482 64 L431 -352 L338 -352 L389 67 Q369 286 346 448 Q323 610 292 717 Q261 824 219 876.5 Q177 929 120 929 L88 929 L92 963 Q94 980 105.5 989.5 Q117 999 155 999 Q224 999 275 950 Q326 901 361.5 796.5 Q397 692 419.5 528 Q442 364 455 134 Q584 306 681 509 Q778 712 855 954 Q863 978 873 986.5 Q883 995 898 995 L970 995 Z " />
<glyph glyph-name="delta" unicode="&#x3b4;" horiz-adv-x="1008" d="M440 59 Q514 59 580 89 Q646 119 695.5 174.5 Q745 230 774 310 Q803 390 803 489 Q803 566 782.5 626.5 Q762 687 728.5 736 Q695 785 651.5 824.5 Q608 864 563 899 Q482 873 410 831 Q338 789 284 727.5 Q230 666 198 582 Q166 498 166 389 Q166 324 182.5 264 Q199 204 233 158.5 Q267 113 318.5 86 Q370 59 440 59 Z M881 1341 Q878 1327 871.5 1322.5 Q865 1318 851 1318 Q843 1318 818.5 1324 Q794 1330 760.5 1336.5 Q727 1343 686 1349 Q645 1355 604 1355 Q546 1355 505.5 1343 Q465 1331 439.5 1311 Q414 1291 402 1265 Q390 1239 390 1210 Q390 1171 411.5 1137.5 Q433 1104 468.5 1072.5 Q504 1041 549.5 1009 Q595 977 642.5 940.5 Q690 904 735.5 861 Q781 818 816.5 764 Q852 710 873.5 643.5 Q895 577 895 493 Q895 378 860 284.5 Q825 191 763 125 Q701 59 616.5 23.5 Q532 -12 433 -12 Q344 -12 276.5 19.5 Q209 51 163.5 105.5 Q118 160 95 232 Q72 304 72 385 Q72 593 188 730.5 Q304 868 522 930 Q479 961 439.5 991.5 Q400 1022 369.5 1055 Q339 1088 321 1125.5 Q303 1163 303 1208 Q303 1251 320.5 1291 Q338 1331 375.5 1362 Q413 1393 472 1411 Q531 1429 614 1429 Q643 1429 678.5 1426 Q714 1423 750.5 1418.5 Q787 1414 824 1407 Q861 1400 893 1393 L881 1341 Z " />
<glyph glyph-name="epsilon" unicode="&#x3b5;" horiz-adv-x="835" d="M705 128 Q679 98 643 72 Q607 46 564 27.5 Q521 9 473.5 -1.5 Q426 -12 376 -12 Q306 -12 247.5 7.5 Q189 27 146.5 61.5 Q104 96 80.5 144 Q57 192 57 250 Q57 299 74 344 Q91 389 125 425.5 Q159 462 210 489 Q261 516 330 528 Q277 540 240.5 563 Q204 586 182 614.5 Q160 643 150.5 675 Q141 707 141 738 Q141 789 164 838 Q187 887 232.5 925.5 Q278 964 345 987.5 Q412 1011 501 1011 Q598 1011 667.5 980.5 Q737 950 781 901 L757 868 Q750 860 745 857.5 Q740 855 732 855 Q723 855 708 868 Q693 881 666 897 Q639 913 598.5 926 Q558 939 499 939 Q431 939 380.5 921.5 Q330 904 296 875.5 Q262 847 245.5 809.5 Q229 772 229 733 Q229 697 245 665 Q261 633 291.5 609.5 Q322 586 365.5 572.5 Q409 559 464 559 L613 559 L606 495 L456 495 Q382 495 325.5 477.5 Q269 460 230.5 429 Q192 398 172 355 Q152 312 152 260 Q152 216 168.5 179 Q185 142 216 115.5 Q247 89 291 74 Q335 59 390 59 Q458 59 505.5 76 Q553 93 585 113.5 Q617 134 636 151 Q655 168 666 168 Q677 168 684 159 L705 128 Z " />
<glyph glyph-name="zeta" unicode="&#x3b6;" horiz-adv-x="695" d="M817 1382 Q817 1374 814.5 1366.5 Q812 1359 802.5 1347 Q793 1335 773.5 1315.5 Q754 1296 721 1266 Q658 1209 592.5 1147.5 Q527 1086 465.5 1019 Q404 952 349.5 880.5 Q295 809 254.5 732 Q214 655 190.5 573.5 Q167 492 167 406 Q167 341 184.5 295.5 Q202 250 233.5 217 Q265 184 309.5 162 Q354 140 407 123 Q482 99 529.5 73 Q577 47 603.5 20 Q630 -7 639.5 -34.5 Q649 -62 649 -88 Q649 -159 621 -218.5 Q593 -278 551 -340 L483 -309 Q497 -288 510.5 -265.5 Q524 -243 535 -218.5 Q546 -194 553 -168 Q560 -142 560 -114 Q560 -95 552.5 -74.5 Q545 -54 523.5 -34 Q502 -14 463 6 Q424 26 361 45 Q295 66 242.5 93.5 Q190 121 152.5 161 Q115 201 95 255.5 Q75 310 75 384 Q75 519 124.5 640 Q174 761 260.5 877.5 Q347 994 465 1110.5 Q583 1227 720 1352 Q644 1346 553.5 1342.5 Q463 1339 365 1339 L279 1339 Q259 1339 251.5 1348.5 Q244 1358 246 1369 L252 1415 L814 1415 L817 1382 Z " />
<glyph glyph-name="eta" unicode="&#x3b7;" horiz-adv-x="1057" d="M287 695 Q327 770 375.5 828.5 Q424 887 477.5 927.5 Q531 968 587 989 Q643 1010 700 1010 Q764 1010 810 985 Q856 960 883.5 912 Q911 864 919.5 794.5 Q928 725 917 636 L796 -352 L703 -352 L824 636 L826 636 Q843 779 806.5 854.5 Q770 930 669 930 Q616 930 561.5 904 Q507 878 455.5 829.5 Q404 781 357.5 712 Q311 643 275 557 L207 0 L116 0 L209 758 Q220 849 191 891 Q162 933 90 933 L57 933 L61 967 Q63 984 76.5 993.5 Q90 1003 122 1003 Q167 1003 202 990 Q237 977 259.5 949 Q282 921 290.5 876.5 Q299 832 292 769 L287 695 Z " />
<glyph glyph-name="theta" unicode="&#x3b8;" horiz-adv-x="1106" d="M225 682 Q223 644 221.5 603.5 Q220 563 220 521 Q220 413 236.5 328 Q253 243 287 183.5 Q321 124 371.5 92.5 Q422 61 490 61 Q577 61 647 103.5 Q717 146 769 226.5 Q821 307 853.5 422 Q886 537 900 682 L225 682 Z M905 748 Q907 783 908 819 Q909 855 909 893 Q909 1002 892.5 1088 Q876 1174 843 1234 Q810 1294 760.5 1325.5 Q711 1357 645 1357 Q556 1357 486 1315 Q416 1273 364 1194 Q312 1115 278.5 1002 Q245 889 231 748 L905 748 Z M650 1430 Q733 1430 797.5 1392.5 Q862 1355 906.5 1284.5 Q951 1214 974 1113 Q997 1012 997 884 Q997 673 961 506.5 Q925 340 858.5 224.5 Q792 109 697.5 48 Q603 -13 485 -13 Q399 -13 333 24 Q267 61 222 131 Q177 201 153.5 302 Q130 403 130 531 Q130 741 166 908 Q202 1075 269.5 1191 Q337 1307 433.5 1368.5 Q530 1430 650 1430 Z " />
<glyph glyph-name="iota" unicode="&#x3b9;" horiz-adv-x="456" d="M195 995 L287 995 L195 241 Q184 151 214.5 104.5 Q245 58 323 58 L387 58 L384 28 Q379 -12 283 -12 Q178 -12 133 53.5 Q88 119 102 236 L195 995 Z " />
<glyph glyph-name="lambda" unicode="&#x3bb;" horiz-adv-x="975" d="M911 62 L906 26 Q904 6 889.5 -1.5 Q875 -9 841 -9 Q803 -9 772.5 -1.5 Q742 6 718 27 Q694 48 675.5 86.5 Q657 125 645 187 L511 754 Q506 781 503.5 801.5 Q501 822 501 840 Q495 823 487.5 804 Q480 785 470 764 L104 24 Q99 13 90 6.5 Q81 0 62 0 L-10 0 L466 933 L396 1246 Q390 1275 380.5 1296.5 Q371 1318 355 1331.5 Q339 1345 315.5 1351.5 Q292 1358 256 1358 L202 1358 L206 1393 Q207 1407 222 1418 Q237 1429 283 1429 Q365 1429 412.5 1396.5 Q460 1364 479 1284 L733 188 Q749 119 778.5 90.5 Q808 62 860 62 L911 62 Z " />
<glyph glyph-name="uni03BC" unicode="&#x3bc;" horiz-adv-x="1088" d="M1013 64 L1009 25 Q1007 12 986.5 1.5 Q966 -9 928 -9 Q889 -9 855.5 3 Q822 15 797 40 Q772 65 758.5 104 Q745 143 746 197 Q674 102 587.5 48 Q501 -6 404 -6 Q316 -6 261 29.5 Q206 65 180 133 Q178 93 175 52 Q172 11 167 -24 L127 -352 L80 -352 Q59 -352 49 -341 Q39 -330 41 -310 L202 995 L298 995 L219 358 Q213 291 221.5 238 Q230 185 255 148.5 Q280 112 320.5 92.5 Q361 73 419 73 Q513 73 596 128 Q679 183 745 283 L833 995 L928 995 L835 238 Q824 147 863 105.5 Q902 64 973 64 L1013 64 Z " />
<glyph glyph-name="nu" unicode="&#x3bd;" horiz-adv-x="932" d="M931 995 Q879 839 822.5 705 Q766 571 702 450.5 Q638 330 564.5 219.5 Q491 109 406 0 L350 0 L86 995 L158 995 Q171 995 178.5 988 Q186 981 188 971 L389 182 Q394 162 397 142 Q400 122 402 102 Q469 190 527 286.5 Q585 383 636 488.5 Q687 594 732 711 Q777 828 819 959 Q824 979 834.5 987 Q845 995 856 995 L931 995 Z " />
<glyph glyph-name="xi" unicode="&#x3be;" horiz-adv-x="707" d="M768 1376 Q766 1359 753 1349 Q740 1339 725 1339 L650 1339 Q572 1339 506 1312.5 Q440 1286 391 1241 Q342 1196 314.5 1136.5 Q287 1077 287 1012 Q287 965 304.5 926 Q322 887 356.5 858.5 Q391 830 442 814 Q493 798 561 798 L631 798 L622 723 L524 723 Q433 723 365 698 Q297 673 252 628 Q207 583 184.5 522 Q162 461 162 389 Q162 330 182.5 286.5 Q203 243 240 210 Q277 177 328 152 Q379 127 440 104 Q495 83 530 61.5 Q565 40 585.5 17.5 Q606 -5 614 -29 Q622 -53 622 -80 Q622 -154 594 -215.5 Q566 -277 523 -339 L455 -307 Q469 -286 483 -263 Q497 -240 508 -215 Q519 -190 526 -163 Q533 -136 533 -106 Q533 -87 527 -69 Q521 -51 504.5 -34.5 Q488 -18 459 -2 Q430 14 384 29 Q319 51 261.5 80 Q204 109 161 150 Q118 191 93.5 246 Q69 301 69 375 Q69 441 88 503.5 Q107 566 146 618.5 Q185 671 246 710 Q307 749 391 767 Q291 796 245 859.5 Q199 923 199 1003 Q199 1065 223 1119.5 Q247 1174 288.5 1218.5 Q330 1263 386 1296 Q442 1329 506 1348 Q468 1346 427 1344.5 Q386 1343 333 1343 L226 1343 Q188 1343 193 1378 L198 1415 L773 1415 L768 1376 Z " />
<glyph glyph-name="pi" unicode="&#x3c0;" horiz-adv-x="1106" d="M1076 934 Q1073 903 1038 903 L882 903 Q871 819 861 755.5 Q851 692 842.5 642 Q834 592 827.5 551 Q821 510 816.5 469.5 Q812 429 809.5 385 Q807 341 807 285 Q807 217 814.5 174.5 Q822 132 836.5 108 Q851 84 872 75.5 Q893 67 921 67 L949 67 L944 29 Q942 13 921.5 4 Q901 -5 866 -5 Q827 -5 797.5 7 Q768 19 748 46.5 Q728 74 717.5 119 Q707 164 707 229 Q707 290 716.5 360.5 Q726 431 740.5 513.5 Q755 596 772 692.5 Q789 789 805 903 L410 903 Q375 646 332 471.5 Q289 297 242.5 191 Q196 85 148.5 39.5 Q101 -6 58 -6 Q42 -6 28.5 -1.5 Q15 3 16 14 L24 80 L42 80 Q67 80 103 124.5 Q139 169 178.5 267 Q218 365 257 521.5 Q296 678 327 903 L113 903 L118 942 Q120 955 131.5 967.5 Q143 980 163 980 L1081 980 L1076 934 Z " />
<glyph glyph-name="rho" unicode="&#x3c1;" horiz-adv-x="1029" d="M189 236 Q211 191 241 158 Q271 125 304.5 103 Q338 81 374 70 Q410 59 445 59 Q534 59 605 100.5 Q676 142 725.5 214.5 Q775 287 801.5 385 Q828 483 828 596 Q828 681 809.5 745 Q791 809 757 852 Q723 895 675 916 Q627 937 568 937 Q506 937 450 913 Q394 889 348 840.5 Q302 792 270.5 719 Q239 646 227 548 L189 236 Z M134 545 Q148 662 186.5 749 Q225 836 283 894.5 Q341 953 415.5 982 Q490 1011 577 1011 Q653 1011 717 984 Q781 957 827 904 Q873 851 898.5 773 Q924 695 924 594 Q924 469 890.5 359 Q857 249 796 166 Q735 83 648 35 Q561 -13 455 -13 Q414 -13 374.5 -2 Q335 9 299 30 Q263 51 232 81 Q201 111 178 149 L117 -352 L24 -352 L134 545 Z " />
<glyph glyph-name="sigma" unicode="&#x3c3;" horiz-adv-x="1074" d="M616 915 Q501 915 417.5 877.5 Q334 840 280 772 Q226 704 200.5 610 Q175 516 175 404 Q175 323 193.5 259 Q212 195 247.5 150.5 Q283 106 335 83 Q387 60 454 60 Q547 60 618 98.5 Q689 137 738 207 Q787 277 812 375.5 Q837 474 837 594 Q837 655 825 708.5 Q813 762 789.5 804.5 Q766 847 730.5 875.5 Q695 904 648 915 L616 915 Z M1090 988 L1085 951 Q1083 936 1073 925.5 Q1063 915 1040 915 L764 915 Q844 867 887 779 Q930 691 930 576 Q930 449 896 341 Q862 233 799 154.5 Q736 76 646.5 31.5 Q557 -13 446 -13 Q361 -13 293.5 16 Q226 45 178.5 99 Q131 153 105.5 231 Q80 309 80 407 Q80 534 116 641 Q152 748 222 825 Q292 902 393.5 945 Q495 988 626 988 L1090 988 Z " />
<glyph glyph-name="sigma1" unicode="&#x3c2;" horiz-adv-x="845" d="M804 864 Q799 858 794 854.5 Q789 851 781 851 Q772 851 757 864.5 Q742 878 717 894.5 Q692 911 654.5 924.5 Q617 938 562 938 Q475 938 404.5 902 Q334 866 284.5 803 Q235 740 208 654 Q181 568 181 468 Q181 381 206 322.5 Q231 264 273.5 223.5 Q316 183 373.5 156 Q431 129 496 105 Q553 84 590 63.5 Q627 43 648.5 20.5 Q670 -2 678 -27 Q686 -52 686 -81 Q686 -155 657.5 -216.5 Q629 -278 587 -340 L518 -309 Q532 -287 546 -264 Q560 -241 571 -216 Q582 -191 589 -163.5 Q596 -136 596 -106 Q596 -87 590 -69 Q584 -51 567 -34.5 Q550 -18 520.5 -2 Q491 14 443 30 Q366 56 300.5 89 Q235 122 187 171 Q139 220 112 289.5 Q85 359 85 459 Q85 577 118 678 Q151 779 213 853 Q275 927 363.5 969 Q452 1011 563 1011 Q654 1011 720.5 980 Q787 949 832 896 L804 864 Z " />
<glyph glyph-name="tau" unicode="&#x3c4;" horiz-adv-x="837" d="M834 942 Q832 926 822 916.5 Q812 907 795 907 L464 907 L384 248 Q373 158 403.5 111.5 Q434 65 512 65 L577 65 L573 35 Q568 -5 471 -5 Q367 -5 322 61 Q277 127 291 244 L371 907 L70 907 L76 948 Q78 962 87 971 Q96 980 113 980 L839 980 L834 942 Z " />
<glyph glyph-name="upsilon" unicode="&#x3c5;" horiz-adv-x="1010" d="M882 995 Q884 963 885.5 927.5 Q887 892 888.5 857 Q890 822 891 789.5 Q892 757 892 731 Q892 528 851.5 385.5 Q811 243 745 154 Q679 65 594.5 24.5 Q510 -16 422 -16 Q340 -16 278 9.5 Q216 35 176 83.5 Q136 132 119.5 201.5 Q103 271 114 359 L192 995 L285 995 L207 359 Q198 288 210.5 232 Q223 176 253 137.5 Q283 99 329 78.5 Q375 58 435 58 Q497 58 561.5 90 Q626 122 678.5 196 Q731 270 764.5 391.5 Q798 513 798 692 Q798 719 797 753 Q796 787 794.5 823 Q793 859 791.5 894.5 Q790 930 788 960 Q788 979 798.5 987 Q809 995 819 995 L882 995 Z " />
<glyph glyph-name="phi" unicode="&#x3c6;" horiz-adv-x="1292" d="M619 58 Q737 59 826.5 103.5 Q916 148 976 223 Q1036 298 1066.5 396.5 Q1097 495 1097 605 Q1097 675 1082.5 736 Q1068 797 1041 842.5 Q1014 888 974 914 Q934 940 883 940 Q808 940 761.5 888.5 Q715 837 702 731 L619 58 Z M614 731 Q631 870 700 940.5 Q769 1011 888 1011 Q959 1011 1015 979.5 Q1071 948 1110 893.5 Q1149 839 1169.5 765 Q1190 691 1190 607 Q1190 476 1150.5 363.5 Q1111 251 1036 167.5 Q961 84 853.5 36 Q746 -12 611 -13 L569 -352 L481 -352 L523 -13 Q413 -12 330.5 24 Q248 60 192 120.5 Q136 181 108 261.5 Q80 342 80 432 Q80 533 106.5 622 Q133 711 181.5 784.5 Q230 858 298 914 Q366 970 450 1005 L470 967 Q475 956 469.5 943.5 Q464 931 453 926 Q384 892 331.5 840.5 Q279 789 243.5 725 Q208 661 190.5 587.5 Q173 514 173 436 Q173 361 194.5 292.5 Q216 224 260 172.5 Q304 121 371.5 90 Q439 59 531 58 L614 731 Z " />
<glyph glyph-name="chi" unicode="&#x3c7;" horiz-adv-x="850" d="M606 -165 Q625 -233 653.5 -262 Q682 -291 733 -291 L762 -291 L758 -328 Q756 -347 746 -354 Q736 -361 707 -361 Q677 -361 649.5 -354.5 Q622 -348 598 -330 Q574 -312 554.5 -280 Q535 -248 520 -196 L380 286 Q372 262 362 238.5 Q352 215 342 196 L37 -325 Q32 -334 23 -341.5 Q14 -349 0 -349 L-64 -349 L348 357 L215 820 Q206 849 195 870 Q184 891 167 905 Q150 919 126 925.5 Q102 932 67 932 L38 932 L43 967 Q44 974 45.5 980.5 Q47 987 52 991.5 Q57 996 67 999 Q77 1002 95 1002 Q180 1002 227 968.5 Q274 935 297 858 L426 411 Q443 462 465 503 L736 971 Q741 979 749.5 987 Q758 995 772 995 L837 995 L457 342 L606 -165 Z " />
<glyph glyph-name="psi" unicode="&#x3c8;" horiz-adv-x="1357" d="M1231 995 Q1233 963 1235 927.5 Q1237 892 1238.5 857 Q1240 822 1241 789.5 Q1242 757 1242 731 Q1242 590 1218 481 Q1194 372 1152.5 291 Q1111 210 1054.5 154 Q998 98 932.5 62.5 Q867 27 795 10 Q723 -7 652 -11 L610 -352 L517 -352 L559 -12 Q448 -7 360.5 25 Q273 57 216 114.5 Q159 172 134 255.5 Q109 339 122 446 L189 995 L252 995 Q265 995 272 983 Q279 971 277 957 L214 446 Q204 362 224.5 293.5 Q245 225 291.5 175.5 Q338 126 408 97 Q478 68 568 62 L734 1415 L827 1415 L661 63 Q719 67 777.5 81.5 Q836 96 890 125.5 Q944 155 991 202 Q1038 249 1072.5 317 Q1107 385 1126.5 477 Q1146 569 1146 689 Q1146 721 1144.5 756 Q1143 791 1141.5 826.5 Q1140 862 1138 896 Q1136 930 1135 960 Q1136 979 1145.5 987 Q1155 995 1166 995 L1231 995 Z " />
<glyph glyph-name="omega" unicode="&#x3c9;" horiz-adv-x="1357" d="M1163 995 Q1197 901 1220 789.5 Q1243 678 1243 567 Q1243 418 1209.5 308.5 Q1176 199 1121 127 Q1066 55 995 19.5 Q924 -16 850 -16 Q759 -16 701.5 37.5 Q644 91 628 194 Q586 91 515.5 37.5 Q445 -16 356 -16 Q299 -16 248.5 9.5 Q198 35 161 84.5 Q124 134 102.5 207.5 Q81 281 81 378 Q81 472 97.5 553 Q114 634 142 708.5 Q170 783 208 853 Q246 923 289 995 L347 995 Q354 995 361 992.5 Q368 990 371.5 984 Q375 978 374 969.5 Q373 961 365 949 Q321 881 285.5 814.5 Q250 748 225 680 Q200 612 186.5 539 Q173 466 173 385 Q173 292 192.5 229 Q212 166 241.5 128 Q271 90 306 74 Q341 58 373 58 Q418 58 456 78.5 Q494 99 523 137 Q552 175 571.5 228.5 Q591 282 600 348 L639 660 L731 660 L694 354 Q686 286 691.5 231.5 Q697 177 716.5 138.5 Q736 100 769 79 Q802 58 848 58 Q890 58 942.5 81 Q995 104 1041 160.5 Q1087 217 1118.5 312.5 Q1150 408 1150 552 Q1150 601 1144 653.5 Q1138 706 1127.5 758 Q1117 810 1102.5 859.5 Q1088 909 1071 952 Q1067 963 1069 971 Q1071 979 1076 984.5 Q1081 990 1087.5 992.5 Q1094 995 1100 995 L1163 995 Z " />
<glyph glyph-name="tonos" unicode="&#x384;" horiz-adv-x="736" d="M469 1154 L579 1471 L635 1471 Q651 1471 655.5 1458.5 Q660 1446 652 1427 L526 1154 L469 1154 Z " />
<glyph glyph-name="dieresistonos" unicode="&#x385;" horiz-adv-x="736" d="M469 1156 L578 1473 L634 1473 Q650 1473 655 1461 Q660 1449 651 1429 L525 1156 L469 1156 Z M826 1265 Q824 1250 817 1237 Q810 1224 799 1214.5 Q788 1205 775 1199 Q762 1193 749 1193 Q721 1193 703.5 1214.5 Q686 1236 689 1265 Q693 1295 715.5 1317.5 Q738 1340 765 1340 Q792 1340 810.5 1317.5 Q829 1295 826 1265 Z M410 1265 Q408 1250 401 1237 Q394 1224 383.5 1214.5 Q373 1205 359.5 1199 Q346 1193 333 1193 Q306 1193 288 1214.5 Q270 1236 273 1265 Q277 1295 299.5 1317.5 Q322 1340 349 1340 Q362 1340 374 1334 Q386 1328 394.5 1317.5 Q403 1307 407.5 1293.5 Q412 1280 410 1265 Z " />
<glyph glyph-name="uni0374" unicode="&#x374;" horiz-adv-x="365" d="M388 1501 Q388 1444 379.5 1385.5 Q371 1327 351.5 1270 Q332 1213 300.5 1159.5 Q269 1106 224 1059 L199 1077 Q185 1088 197 1105 Q222 1137 243 1171 Q264 1205 277 1240.5 Q290 1276 294 1313.5 Q298 1351 289 1389 L299 1470 Q301 1483 308 1492 Q315 1501 331 1501 L388 1501 Z " />
<glyph glyph-name="uni0375" unicode="&#x375;" horiz-adv-x="367" d="M250 271 Q250 214 241.5 155.5 Q233 97 213.5 40 Q194 -17 162.5 -70.5 Q131 -124 86 -171 L61 -153 Q47 -142 59 -125 Q84 -93 105 -59 Q126 -25 139 10.5 Q152 46 156 83.5 Q160 121 151 159 L161 240 Q163 253 170 262 Q177 271 193 271 L250 271 Z " />
<glyph glyph-name="uni0411" unicode="&#x411;" horiz-adv-x="1137" d="M308 695 L233 79 L533 79 Q626 79 696.5 103.5 Q767 128 815 174.5 Q863 221 887.5 288.5 Q912 356 912 442 Q912 566 837 630.5 Q762 695 609 695 L308 695 Z M387 1336 L318 774 L620 774 Q719 774 792.5 751.5 Q866 729 915 687.5 Q964 646 988 587 Q1012 528 1012 454 Q1012 349 979 265 Q946 181 883 122 Q820 63 729 31.5 Q638 0 523 0 L123 0 L297 1415 L1091 1415 L1082 1336 L387 1336 Z " />
<glyph glyph-name="uni0413" unicode="&#x413;" horiz-adv-x="998" d="M1051 1335 L387 1335 L223 0 L123 0 L297 1415 L1061 1415 L1051 1335 Z " />
<glyph glyph-name="uni0490" unicode="&#x490;" horiz-adv-x="998" d="M1051 1335 L387 1335 L223 0 L123 0 L297 1415 L982 1415 L1022 1741 L1101 1741 L1051 1335 Z " />
<glyph glyph-name="uni0414" unicode="&#x414;" horiz-adv-x="1403" d="M969 80 L1123 1335 L606 1335 Q573 1138 540.5 978 Q508 818 474.5 689.5 Q441 561 407.5 462.5 Q374 364 340 290 Q306 216 271.5 165 Q237 114 202 80 L969 80 Z M1245 -323 Q1243 -337 1233 -346 Q1223 -355 1208 -355 L1150 -355 L1194 0 L35 0 L-5 -323 Q-6 -337 -16.5 -346 Q-27 -355 -42 -355 L-100 -355 L-46 80 L75 80 Q110 95 146 130.5 Q182 166 218.5 232 Q255 298 292.5 398.5 Q330 499 367.5 642.5 Q405 786 443.5 977 Q482 1168 521 1415 L1233 1415 L1069 80 L1295 80 L1245 -323 Z " />
<glyph glyph-name="uni0416" unicode="&#x416;" horiz-adv-x="1856" d="M1396 823 Q1367 787 1337 764.5 Q1307 742 1266 731 Q1307 720 1335.5 695.5 Q1364 671 1385 631 L1748 0 L1683 0 Q1660 0 1644.5 10 Q1629 20 1621 37 L1286 606 Q1265 644 1235 663.5 Q1205 683 1152 683 L986 683 L902 0 L808 0 L892 683 L727 683 Q673 683 638 663.5 Q603 644 573 606 L100 37 Q87 20 69 10 Q51 0 29 0 L-38 0 L480 631 Q512 671 546 695.5 Q580 720 624 731 Q586 742 561.5 764.5 Q537 787 516 823 L159 1415 L235 1415 Q252 1415 265.5 1406 Q279 1397 286 1382 L616 834 Q643 788 676 774 Q709 760 754 760 L901 760 L981 1415 L1076 1415 L995 760 L1143 760 Q1166 760 1186 763 Q1206 766 1224.5 774 Q1243 782 1261.5 796.5 Q1280 811 1299 834 L1764 1382 Q1775 1397 1790 1406 Q1805 1415 1822 1415 L1899 1415 L1396 823 Z " />
<glyph glyph-name="uni0417" unicode="&#x417;" horiz-adv-x="1055" d="M201 1286 Q285 1356 381.5 1392 Q478 1428 597 1428 Q684 1428 751.5 1404.5 Q819 1381 865 1339 Q911 1297 935 1240 Q959 1183 959 1116 Q959 1047 937.5 989 Q916 931 878.5 886 Q841 841 790.5 809.5 Q740 778 682 761 Q739 744 783.5 713.5 Q828 683 858 642.5 Q888 602 903.5 552.5 Q919 503 919 448 Q919 353 885 269 Q851 185 787 122 Q723 59 630 22.5 Q537 -14 420 -14 Q276 -14 176.5 35.5 Q77 85 9 171 L41 213 Q47 220 53.5 224 Q60 228 69 228 Q79 228 91.5 216 Q104 204 123 186.5 Q142 169 168.5 148.5 Q195 128 231 110.5 Q267 93 315 81 Q363 69 425 69 Q519 69 593 98 Q667 127 718.5 177 Q770 227 797 295.5 Q824 364 824 444 Q824 502 805.5 552 Q787 602 750 639 Q713 676 658 697 Q603 718 531 718 L361 718 L372 802 L545 802 Q606 802 663.5 822 Q721 842 765 881 Q809 920 836 976 Q863 1032 863 1104 Q863 1156 845 1200.5 Q827 1245 792 1277.5 Q757 1310 705.5 1328 Q654 1346 587 1346 Q503 1346 443.5 1327 Q384 1308 343.5 1285.5 Q303 1263 279 1244 Q255 1225 242 1225 Q227 1225 219 1242 L201 1286 Z " />
<glyph glyph-name="uni0418" unicode="&#x418;" horiz-adv-x="1403" d="M1306 1415 L1132 0 L1032 0 L1174 1154 Q1177 1186 1182.5 1219 Q1188 1252 1196 1287 Q1180 1257 1164 1231.5 Q1148 1206 1132 1184 L246 31 Q237 18 223.5 9 Q210 0 193 0 L123 0 L297 1415 L397 1415 L255 261 Q252 229 246.5 196 Q241 163 233 128 Q249 158 265 183.5 Q281 209 297 231 L1183 1384 Q1193 1398 1206 1406.5 Q1219 1415 1233 1415 L1306 1415 Z " />
<glyph glyph-name="uni041A" unicode="&#x41a;" horiz-adv-x="1190" d="M712 815 Q684 782 654.5 761.5 Q625 741 587 730 Q629 721 654.5 698 Q680 675 703 634 L1089 0 L1002 0 Q983 0 972 9 Q961 18 950 37 L598 613 Q587 631 576.5 644.5 Q566 658 552 666.5 Q538 675 519.5 679 Q501 683 475 683 L307 683 L223 0 L123 0 L297 1415 L396 1415 L316 760 L466 760 Q489 760 508 763 Q527 766 544.5 774 Q562 782 579.5 796 Q597 810 616 832 L1088 1383 Q1099 1397 1113.5 1406 Q1128 1415 1145 1415 L1227 1415 L712 815 Z " />
<glyph glyph-name="uni041B" unicode="&#x41b;" horiz-adv-x="1310" d="M1040 0 L939 0 L1103 1335 L586 1335 Q540 1054 494 844.5 Q448 635 401.5 485.5 Q355 336 307 239.5 Q259 143 209 87 Q159 31 106.5 9.5 Q54 -12 -2 -12 Q-32 -12 -54 -6 Q-76 0 -74 11 L-66 73 L-10 73 Q32 73 74 93.5 Q116 114 157.5 168.5 Q199 223 241 318.5 Q283 414 326 563 Q369 712 412.5 921.5 Q456 1131 501 1415 L1214 1415 L1040 0 Z " />
<glyph glyph-name="uni0409" unicode="&#x409;" horiz-adv-x="1928" d="M1354 79 Q1447 79 1518 103.5 Q1589 128 1637 174.5 Q1685 221 1709.5 288.5 Q1734 356 1734 442 Q1734 566 1659 630.5 Q1584 695 1431 695 L1125 695 L1050 79 L1354 79 Z M1441 774 Q1540 774 1613.5 751.5 Q1687 729 1736 687.5 Q1785 646 1809 587 Q1833 528 1833 454 Q1833 349 1800 265 Q1767 181 1704 122 Q1641 63 1550 31.5 Q1459 0 1344 0 L939 0 L1103 1335 L586 1335 Q540 1054 494 844.5 Q448 635 401.5 485.5 Q355 336 307 239.5 Q259 143 209 87 Q159 31 106.5 9.5 Q54 -12 -2 -12 Q-32 -12 -54 -6 Q-76 0 -74 11 L-66 73 L-10 73 Q32 73 74 93.5 Q116 114 157.5 168.5 Q199 223 241 318.5 Q283 414 326 563 Q369 712 412.5 921.5 Q456 1131 501 1415 L1214 1415 L1135 774 L1441 774 Z " />
<glyph glyph-name="uni040A" unicode="&#x40a;" horiz-adv-x="2011" d="M1436 79 Q1529 79 1600 103.5 Q1671 128 1719 174.5 Q1767 221 1791.5 288.5 Q1816 356 1816 442 Q1816 566 1741 630.5 Q1666 695 1513 695 L1217 695 L1142 79 L1436 79 Z M1523 774 Q1622 774 1695.5 751.5 Q1769 729 1818 687.5 Q1867 646 1891 587 Q1915 528 1915 454 Q1915 349 1882 265 Q1849 181 1786 122 Q1723 63 1632 31.5 Q1541 0 1426 0 L1032 0 L1115 679 L307 679 L224 0 L124 0 L298 1415 L398 1415 L317 754 L1125 754 L1206 1415 L1306 1415 L1227 774 L1523 774 Z " />
<glyph glyph-name="uni0472" unicode="&#x472;" horiz-adv-x="1473" d="M223 686 Q220 645 220 602 Q220 479 252 380.5 Q284 282 343 213 Q402 144 485 106.5 Q568 69 671 69 Q790 69 892.5 111.5 Q995 154 1073.5 233.5 Q1152 313 1203.5 427.5 Q1255 542 1271 686 L223 686 Z M1277 763 Q1278 776 1278 788.5 Q1278 801 1278 814 Q1278 937 1246.5 1035.5 Q1215 1134 1156 1203.5 Q1097 1273 1013.5 1310.5 Q930 1348 827 1348 Q713 1348 613.5 1307.5 Q514 1267 436 1191.5 Q358 1116 305 1007.5 Q252 899 232 763 L1277 763 Z M838 1431 Q963 1431 1063.5 1386.5 Q1164 1342 1234.5 1261 Q1305 1180 1343 1066.5 Q1381 953 1381 816 Q1381 629 1326.5 476 Q1272 323 1175 214 Q1078 105 946 45 Q814 -15 660 -15 Q536 -15 436 29.5 Q336 74 265.5 155 Q195 236 157 349 Q119 462 119 599 Q119 785 174 938.5 Q229 1092 325.5 1201.5 Q422 1311 553.5 1371 Q685 1431 838 1431 Z " />
<glyph glyph-name="uni041F" unicode="&#x41f;" horiz-adv-x="1345" d="M1074 0 L974 0 L1138 1335 L387 1335 L223 0 L123 0 L297 1415 L1248 1415 L1074 0 Z " />
<glyph glyph-name="uni0423" unicode="&#x423;" horiz-adv-x="1122" d="M1190 1415 L503 168 Q475 118 446.5 83.5 Q418 49 387 28 Q356 7 322.5 -2.5 Q289 -12 252 -12 Q214 -12 193 -4.5 Q172 3 174 20 L180 73 L237 73 Q296 73 341 104.5 Q386 136 426 209 L529 396 L127 1415 L217 1415 Q231 1415 238.5 1408.5 Q246 1402 251 1390 L552 582 Q561 556 568 529 Q575 502 580 475 Q602 529 631 582 L1065 1390 Q1072 1401 1081.5 1408 Q1091 1415 1105 1415 L1190 1415 Z " />
<glyph glyph-name="uni0474" unicode="&#x474;" horiz-adv-x="1261" d="M1047 1262 Q1082 1341 1137 1379.5 Q1192 1418 1261 1418 Q1306 1418 1317.5 1411.5 Q1329 1405 1327 1388 L1321 1336 L1271 1336 Q1232 1336 1195.5 1307 Q1159 1278 1135 1227 L577 0 L488 0 L124 1415 L200 1415 Q214 1415 222.5 1407.5 Q231 1400 233 1389 L527 208 Q532 187 537 163 Q542 139 545 113 Q554 139 563.5 163 Q573 187 584 208 L1047 1262 Z " />
<glyph glyph-name="uni0424" unicode="&#x424;" horiz-adv-x="1408" d="M708 253 Q823 254 920 299 Q1017 344 1087 419.5 Q1157 495 1196 595.5 Q1235 696 1235 808 Q1235 895 1207.5 973.5 Q1180 1052 1128.5 1111.5 Q1077 1171 1001.5 1206.5 Q926 1242 830 1243 L708 253 Z M734 1243 Q618 1242 521.5 1197 Q425 1152 355.5 1076.5 Q286 1001 247 901 Q208 801 208 689 Q208 601 235.5 522.5 Q263 444 314.5 384.5 Q366 325 441.5 289.5 Q517 254 613 253 L734 1243 Z M840 1321 Q958 1319 1050 1277.5 Q1142 1236 1205.5 1166 Q1269 1096 1302 1004.5 Q1335 913 1335 812 Q1335 683 1288.5 568 Q1242 453 1158 366.5 Q1074 280 957 228.5 Q840 177 699 175 L677 0 L582 0 L603 175 Q485 176 393 217.5 Q301 259 237.5 329 Q174 399 140.5 491 Q107 583 107 685 Q107 814 154.5 928.5 Q202 1043 287 1129.5 Q372 1216 489 1267.5 Q606 1319 744 1321 L764 1486 L860 1486 L840 1321 Z " />
<glyph glyph-name="uni0426" unicode="&#x426;" horiz-adv-x="1409" d="M1297 80 L1248 -323 Q1246 -337 1236 -346 Q1226 -355 1211 -355 L1153 -355 L1197 0 L123 0 L297 1415 L397 1415 L233 80 L984 80 L1148 1415 L1248 1415 L1084 80 L1297 80 Z " />
<glyph glyph-name="uni040F" unicode="&#x40f;" horiz-adv-x="1345" d="M1248 1415 L1074 0 L644 0 L605 -323 Q603 -337 592.5 -346 Q582 -355 567 -355 L509 -355 L553 0 L123 0 L297 1415 L397 1415 L233 80 L984 80 L1148 1415 L1248 1415 Z " />
<glyph glyph-name="uni0427" unicode="&#x427;" horiz-adv-x="1194" d="M1097 1415 L923 0 L823 0 L906 673 Q799 640 697.5 619 Q596 598 506.5 594 Q417 590 344.5 606.5 Q272 623 223 665.5 Q174 708 152.5 780 Q131 852 145 959 L200 1415 L301 1415 L244 959 Q229 838 270 771.5 Q311 705 398.5 683 Q486 661 617 679.5 Q748 698 915 748 L997 1415 L1097 1415 Z " />
<glyph glyph-name="uni0428" unicode="&#x428;" horiz-adv-x="1975" d="M1878 1415 L1704 0 L123 0 L297 1415 L397 1415 L233 80 L870 80 L1034 1415 L1134 1415 L970 80 L1614 80 L1777 1415 L1878 1415 Z " />
<glyph glyph-name="uni0429" unicode="&#x429;" horiz-adv-x="2040" d="M1927 80 L1878 -323 Q1876 -337 1866 -346 Q1856 -355 1841 -355 L1783 -355 L1827 0 L123 0 L297 1415 L397 1415 L233 80 L870 80 L1034 1415 L1134 1415 L970 80 L1614 80 L1777 1415 L1878 1415 L1714 80 L1927 80 Z " />
<glyph glyph-name="uni042A" unicode="&#x42a;" horiz-adv-x="1318" d="M744 79 Q837 79 907.5 103.5 Q978 128 1026 174.5 Q1074 221 1098.5 288.5 Q1123 356 1123 442 Q1123 566 1048 630.5 Q973 695 820 695 L519 695 L444 79 L744 79 Z M831 774 Q930 774 1003.5 751.5 Q1077 729 1126 687.5 Q1175 646 1199 587 Q1223 528 1223 454 Q1223 349 1190 265 Q1157 181 1094 122 Q1031 63 940 31.5 Q849 0 734 0 L334 0 L498 1333 L108 1333 L118 1415 L607 1415 L529 774 L831 774 Z " />
<glyph glyph-name="uni042B" unicode="&#x42b;" horiz-adv-x="1594" d="M533 79 Q626 79 696.5 103.5 Q767 128 815 174.5 Q863 221 887.5 288.5 Q912 356 912 442 Q912 566 837 630.5 Q762 695 609 695 L308 695 L233 79 L533 79 Z M620 774 Q719 774 792.5 751.5 Q866 729 915 687.5 Q964 646 988 587 Q1012 528 1012 454 Q1012 349 979 265 Q946 181 883 122 Q820 63 729 31.5 Q638 0 523 0 L123 0 L297 1415 L396 1415 L318 774 L620 774 Z M1324 0 L1224 0 L1397 1415 L1497 1415 L1324 0 Z " />
<glyph glyph-name="uni042C" unicode="&#x42c;" horiz-adv-x="1108" d="M533 79 Q626 79 696.5 103.5 Q767 128 815 174.5 Q863 221 887.5 288.5 Q912 356 912 442 Q912 566 837 630.5 Q762 695 609 695 L308 695 L233 79 L533 79 Z M620 774 Q719 774 792.5 751.5 Q866 729 915 687.5 Q964 646 988 587 Q1012 528 1012 454 Q1012 349 979 265 Q946 181 883 122 Q820 63 729 31.5 Q638 0 523 0 L123 0 L297 1415 L396 1415 L318 774 L620 774 Z " />
<glyph glyph-name="uni042D" unicode="&#x42d;" horiz-adv-x="1269" d="M181 1260 Q277 1342 386 1386.5 Q495 1431 631 1431 Q758 1431 859 1385.5 Q960 1340 1030.5 1258 Q1101 1176 1138.5 1062.5 Q1176 949 1176 813 Q1176 627 1122.5 474 Q1069 321 974.5 212.5 Q880 104 750.5 44 Q621 -16 469 -16 Q388 -16 322.5 -1.5 Q257 13 203 39.5 Q149 66 105 103.5 Q61 141 25 187 L69 229 Q77 236 87 236 Q97 236 104 226 Q138 187 175.5 158 Q213 129 256.5 109 Q300 89 353 79 Q406 69 472 69 Q583 69 683.5 111 Q784 153 863.5 232.5 Q943 312 996.5 426.5 Q1050 541 1067 686 L345 686 L354 763 L1073 763 Q1074 774 1074 786 Q1074 798 1074 810 Q1074 932 1042 1031 Q1010 1130 951 1200 Q892 1270 808.5 1308 Q725 1346 621 1346 Q529 1346 460.5 1324 Q392 1302 344 1276 Q296 1250 267 1228 Q238 1206 227 1206 Q211 1206 205 1218 L181 1260 Z " />
<glyph glyph-name="uni0404" unicode="&#x404;" horiz-adv-x="1271" d="M1142 188 Q1096 141 1044 103.5 Q992 66 931.5 39.5 Q871 13 802 -1.5 Q733 -16 652 -16 Q530 -16 431.5 28.5 Q333 73 263.5 153.5 Q194 234 156.5 347 Q119 460 119 597 Q119 721 144 831 Q169 941 214.5 1033.5 Q260 1126 325 1199.5 Q390 1273 470.5 1324.5 Q551 1376 644 1403.5 Q737 1431 840 1431 Q974 1431 1074.5 1386 Q1175 1341 1250 1259 L1214 1216 Q1205 1204 1189 1204 Q1178 1204 1155 1226 Q1132 1248 1090.5 1274.5 Q1049 1301 985.5 1323 Q922 1345 830 1345 Q719 1345 619.5 1305 Q520 1265 441 1189.5 Q362 1114 308 1006 Q254 898 233 763 L955 763 L946 686 L224 686 Q221 647 221 606 Q221 481 254 382 Q287 283 346 213 Q405 143 487 106 Q569 69 667 69 Q732 69 786.5 79 Q841 89 890 108.5 Q939 128 983.5 157.5 Q1028 187 1072 227 Q1082 235 1091 236.5 Q1100 238 1108 229 L1142 188 Z " />
<glyph glyph-name="uni042E" unicode="&#x42e;" horiz-adv-x="1919" d="M1168 70 Q1287 70 1388.5 122.5 Q1490 175 1564.5 272.5 Q1639 370 1681 510 Q1723 650 1723 824 Q1723 944 1695.5 1040.5 Q1668 1137 1616 1205.5 Q1564 1274 1490.5 1311 Q1417 1348 1325 1348 Q1206 1348 1104 1295 Q1002 1242 927.5 1143.5 Q853 1045 811 905 Q769 765 769 591 Q769 471 796.5 374.5 Q824 278 876 210.5 Q928 143 1002 106.5 Q1076 70 1168 70 Z M678 750 Q699 904 756.5 1030 Q814 1156 900.5 1245 Q987 1334 1097.5 1382.5 Q1208 1431 1335 1431 Q1448 1431 1538.5 1387 Q1629 1343 1692.5 1263 Q1756 1183 1790 1071.5 Q1824 960 1824 825 Q1824 699 1801 588 Q1778 477 1735.5 384 Q1693 291 1633 217.5 Q1573 144 1499 92.5 Q1425 41 1339 14 Q1253 -13 1158 -13 Q1045 -13 954 30.5 Q863 74 799.5 153 Q736 232 702 343 Q668 454 668 589 Q668 631 671 670 L306 670 L224 0 L124 0 L297 1415 L397 1415 L316 750 L678 750 Z " />
<glyph glyph-name="uni042F" unicode="&#x42f;" horiz-adv-x="1206" d="M999 1335 L696 1335 Q510 1335 414 1244 Q318 1153 318 980 Q318 855 392.5 787.5 Q467 720 619 720 L924 720 L999 1335 Z M935 0 L835 0 L914 641 L685 641 Q659 641 635.5 636.5 Q612 632 589 620 Q566 608 541.5 586.5 Q517 565 489 531 L83 37 Q71 20 53 10 Q35 0 13 0 L-62 0 L385 542 Q420 586 454.5 613 Q489 640 526 655 Q372 674 295.5 759 Q219 844 219 976 Q219 1078 252 1159.5 Q285 1241 347.5 1297.5 Q410 1354 500.5 1384.5 Q591 1415 706 1415 L1108 1415 L935 0 Z " />
<glyph glyph-name="uni0402" unicode="&#x402;" horiz-adv-x="1343" d="M859 774 Q958 774 1032 751.5 Q1106 729 1155 687.5 Q1204 646 1228 587 Q1252 528 1252 454 Q1252 349 1219 265 Q1186 181 1123 122 Q1060 63 969 31.5 Q878 0 763 0 L665 0 L674 79 L773 79 Q865 79 936 103.5 Q1007 128 1055 174.5 Q1103 221 1127.5 288.5 Q1152 356 1152 442 Q1152 566 1077 630.5 Q1002 695 850 695 L525 695 L439 0 L340 0 L503 1333 L116 1333 L126 1415 L1067 1415 L1057 1333 L603 1333 L534 774 L859 774 Z " />
<glyph glyph-name="uni040B" unicode="&#x40b;" horiz-adv-x="1357" d="M535 768 Q641 800 738.5 821 Q836 842 919 846 Q1002 850 1068 833.5 Q1134 817 1177 774.5 Q1220 732 1237.5 660 Q1255 588 1242 481 L1183 0 L1083 0 L1142 481 Q1157 602 1122 669 Q1087 736 1007 758 Q927 780 805.5 761.5 Q684 743 525 694 L440 0 L341 0 L504 1333 L116 1333 L126 1415 L1068 1415 L1058 1333 L604 1333 L535 768 Z " />
<glyph glyph-name="uni0462" unicode="&#x462;" horiz-adv-x="1318" d="M742 79 Q835 79 905.5 103.5 Q976 128 1024 174.5 Q1072 221 1096.5 288.5 Q1121 356 1121 442 Q1121 566 1046 630.5 Q971 695 818 695 L517 695 L442 79 L742 79 Z M829 774 Q928 774 1001.5 751.5 Q1075 729 1124 687.5 Q1173 646 1197 587 Q1221 528 1221 454 Q1221 349 1188 265 Q1155 181 1092 122 Q1029 63 938 31.5 Q847 0 732 0 L332 0 L466 1091 L118 1091 L128 1168 L476 1168 L506 1415 L605 1415 L575 1168 L1003 1168 L994 1091 L566 1091 L527 774 L829 774 Z " />
<glyph glyph-name="uni0431" unicode="&#x431;" horiz-adv-x="1061" d="M637 921 Q548 921 471.5 878 Q395 835 339 764.5 Q283 694 251 602 Q219 510 219 413 Q219 237 285 148 Q351 59 468 59 Q527 59 579.5 81.5 Q632 104 676.5 144 Q721 184 756 238 Q791 292 816 354 Q841 416 854 483.5 Q867 551 867 619 Q867 692 850.5 748.5 Q834 805 804 843 Q774 881 731.5 901 Q689 921 637 921 Z M1028 1474 L1028 1428 Q1028 1393 994 1385 L733 1343 Q630 1327 553 1288.5 Q476 1250 420 1196.5 Q364 1143 326 1077 Q288 1011 264 938.5 Q240 866 227 790.5 Q214 715 208 642 Q238 723 285.5 787.5 Q333 852 393 897 Q453 942 522.5 966 Q592 990 666 990 Q728 990 782 967.5 Q836 945 875.5 900 Q915 855 938 786.5 Q961 718 961 626 Q961 549 945 471.5 Q929 394 898.5 323 Q868 252 824 190.5 Q780 129 725 84 Q670 39 604 13 Q538 -13 463 -13 Q395 -13 334 11 Q273 35 226.5 90.5 Q180 146 153 237.5 Q126 329 126 463 Q126 548 133.5 646.5 Q141 745 163.5 844 Q186 943 226 1037.5 Q266 1132 331 1210 Q396 1288 489.5 1343 Q583 1398 712 1420 L1028 1474 Z " />
<glyph glyph-name="uni0432" unicode="&#x432;" horiz-adv-x="936" d="M172 455 Q166 410 166 366 Q165 300 181 243.5 Q197 187 228.5 146 Q260 105 307 82 Q354 59 417 59 Q478 60 533 82 Q588 104 629.5 141.5 Q671 179 695.5 228.5 Q720 278 720 333 Q720 377 704 415 Q688 453 652 477.5 Q616 502 556.5 509.5 Q497 517 410 501 L172 455 Z M387 558 Q502 579 571.5 607.5 Q641 636 678.5 668.5 Q716 701 728.5 735 Q741 769 741 802 Q741 825 733 849.5 Q725 874 705.5 894.5 Q686 915 654 928 Q622 941 574 941 Q498 941 434 906.5 Q370 872 319.5 813.5 Q269 755 234 678.5 Q199 602 182 517 L387 558 Z M548 551 Q673 553 740.5 496 Q808 439 808 334 Q808 265 776.5 202 Q745 139 691 91 Q637 43 564 14.5 Q491 -14 407 -14 Q325 -14 262.5 14 Q200 42 157.5 91.5 Q115 141 93.5 208.5 Q72 276 72 355 Q72 435 88.5 514.5 Q105 594 136.5 666.5 Q168 739 213.5 801.5 Q259 864 316 910 Q373 956 440.5 982 Q508 1008 585 1008 Q648 1008 693 991 Q738 974 766.5 946.5 Q795 919 808 885 Q821 851 821 817 Q821 778 807.5 740 Q794 702 762 667.5 Q730 633 677.5 603 Q625 573 548 551 Z " />
<glyph glyph-name="uni0433" unicode="&#x433;" horiz-adv-x="807" d="M459 1010 Q511 1010 557.5 997.5 Q604 985 639 960.5 Q674 936 694.5 900 Q715 864 715 816 Q715 766 690 722.5 Q665 679 624 640 Q583 601 530.5 566 Q478 531 423 497 Q368 463 315.5 430 Q263 397 222 362 Q181 327 156 289.5 Q131 252 131 210 Q131 178 146.5 150.5 Q162 123 190 103.5 Q218 84 257 73 Q296 62 342 62 Q399 62 448 77 Q497 92 535 110.5 Q573 129 598.5 144 Q624 159 635 159 Q653 159 662 142 L681 114 Q607 54 515 20.5 Q423 -13 329 -13 Q261 -13 207 4 Q153 21 115.5 50.5 Q78 80 58 119 Q38 158 38 203 Q38 254 63 299 Q88 344 129.5 384 Q171 424 223.5 460 Q276 496 331 530 Q386 564 438.5 597 Q491 630 532.5 664 Q574 698 599 734 Q624 770 624 810 Q624 864 577 899.5 Q530 935 447 935 Q394 935 349.5 921 Q305 907 270.5 890.5 Q236 874 213 859.5 Q190 845 179 844 Q174 844 168.5 846.5 Q163 849 158 857 L139 894 Q170 921 208.5 942.5 Q247 964 289 979 Q331 994 374 1002 Q417 1010 459 1010 Z " />
<glyph glyph-name="uni0491" unicode="&#x491;" horiz-adv-x="732" d="M738 928 L739 926 L557 926 Q465 926 410 858 Q355 790 330 643 L261 248 Q216 -7 19 -7 Q-11 -7 -23.5 -1.5 Q-36 4 -35 16 L-28 68 L0 68 Q66 68 110 112.5 Q154 157 171 251 L239 640 Q255 731 281.5 798 Q308 865 346 909 Q384 953 435 974 Q486 995 551 995 L671 995 L717 1200 Q723 1227 735 1239 Q747 1251 768 1251 L803 1251 L738 928 Z " />
<glyph glyph-name="uni0434" unicode="&#x434;" horiz-adv-x="1029" d="M417 64 Q494 64 567 107 Q640 150 697 238.5 Q754 327 788.5 463.5 Q823 600 824 787 Q789 853 725 894 Q661 935 573 935 Q510 935 455.5 913.5 Q401 892 356.5 854 Q312 816 277.5 764 Q243 712 219.5 652 Q196 592 184 525.5 Q172 459 172 392 Q172 310 190.5 248.5 Q209 187 241.5 146 Q274 105 318.5 84.5 Q363 64 417 64 Z M277 1424 Q433 1437 552.5 1404.5 Q672 1372 753 1294 Q834 1216 875.5 1090.5 Q917 965 917 792 Q917 591 874 440 Q831 289 760 188.5 Q689 88 596.5 38 Q504 -12 404 -12 Q331 -12 271 15.5 Q211 43 168 95.5 Q125 148 101.5 223.5 Q78 299 78 395 Q78 469 93 543.5 Q108 618 136.5 685.5 Q165 753 206.5 811.5 Q248 870 301 913.5 Q354 957 418.5 981.5 Q483 1006 557 1006 Q648 1006 717.5 968 Q787 930 831 857 Q817 1124 685.5 1247 Q554 1370 292 1357 Q267 1357 272 1381 L277 1424 Z " />
<glyph glyph-name="uni0436" unicode="&#x436;" horiz-adv-x="1729" d="M872 294 Q907 363 957 443 Q1007 523 1065 602.5 Q1123 682 1186 755.5 Q1249 829 1311.5 885.5 Q1374 942 1432.5 975.5 Q1491 1009 1539 1009 Q1581 1009 1617.5 997 Q1654 985 1695 956 L1673 919 Q1668 911 1662 907.5 Q1656 904 1650 903 Q1644 902 1634 906.5 Q1624 911 1610.5 917 Q1597 923 1579 928 Q1561 933 1537 933 Q1478 933 1424.5 886 Q1371 839 1330 757.5 Q1289 676 1265 567 Q1241 458 1241 334 Q1241 261 1250 209.5 Q1259 158 1276.5 125.5 Q1294 93 1320.5 78 Q1347 63 1382 63 Q1418 63 1445 74 Q1472 85 1491.5 98.5 Q1511 112 1523.5 123 Q1536 134 1543 135 Q1557 137 1565 126 L1585 90 Q1559 61 1530.5 41.5 Q1502 22 1473.5 10 Q1445 -2 1417.5 -7 Q1390 -12 1366 -12 Q1269 -12 1214 63.5 Q1159 139 1159 300 Q1159 434 1188 554 Q1217 674 1269 768 Q1215 711 1157.5 637 Q1100 563 1044.5 478.5 Q989 394 939.5 301.5 Q890 209 854 116 L842 -1 L760 -1 L832 707 Q797 637 747.5 557 Q698 477 640 397 Q582 317 518.5 243 Q455 169 392 112.5 Q329 56 270.5 22 Q212 -12 164 -12 Q122 -12 85.5 0 Q49 12 8 41 L30 78 Q40 94 52 94 Q59 95 68.5 90.5 Q78 86 92 80.5 Q106 75 124 70 Q142 65 166 65 Q225 65 278.5 112 Q332 159 373 240.5 Q414 322 438 431 Q462 540 462 664 Q462 737 453 788.5 Q444 840 426.5 872.5 Q409 905 382.5 920 Q356 935 321 935 Q285 935 257.5 924 Q230 913 210.5 899.5 Q191 886 178.5 875 Q166 864 160 863 Q144 861 137 871 L118 907 Q144 937 172.5 956.5 Q201 976 229.5 987.5 Q258 999 285.5 1004 Q313 1009 337 1009 Q434 1009 489 934 Q544 859 544 697 Q544 563 515 444 Q486 325 434 231 Q488 288 546.5 362 Q605 436 660.5 521.5 Q716 607 765.5 700 Q815 793 851 887 L862 996 L944 996 L872 294 Z " />
<glyph glyph-name="uni0437" unicode="&#x437;" horiz-adv-x="847" d="M136 874 Q161 903 196 928 Q231 953 274.5 971.5 Q318 990 368 1000.5 Q418 1011 472 1011 Q544 1011 595 992.5 Q646 974 678.5 943.5 Q711 913 726 874.5 Q741 836 741 796 Q741 759 728.5 720 Q716 681 688.5 646 Q661 611 616 583.5 Q571 556 506 543 Q558 535 597 515.5 Q636 496 662 466.5 Q688 437 701 400.5 Q714 364 714 322 Q714 257 686 197 Q658 137 606 90 Q554 43 479.5 15 Q405 -13 312 -13 Q261 -13 215.5 -3.5 Q170 6 130.5 22 Q91 38 59 59.5 Q27 81 3 105 L25 141 Q29 146 34.5 150.5 Q40 155 47 155 Q60 155 79.5 140 Q99 125 129.5 107 Q160 89 205 74 Q250 59 314 59 Q386 59 443.5 80 Q501 101 541.5 137.5 Q582 174 604 222.5 Q626 271 626 326 Q626 413 564 460.5 Q502 508 381 508 Q351 508 320.5 505.5 Q290 503 255 499 Q255 518 256.5 536 Q258 554 265 573 Q293 571 320 569.5 Q347 568 376 568 Q443 566 495 582.5 Q547 599 582.5 628 Q618 657 636.5 696.5 Q655 736 655 780 Q655 810 645 838.5 Q635 867 611.5 889 Q588 911 550 924.5 Q512 938 457 938 Q386 938 337 921.5 Q288 905 255.5 885.5 Q223 866 204.5 849.5 Q186 833 176 832 Q170 831 166 833 Q162 835 156 843 L136 874 Z " />
<glyph glyph-name="uni0438" unicode="&#x438;" horiz-adv-x="1032" d="M925 995 L805 0 L761 0 Q742 0 733.5 10 Q725 20 725 37 L755 320 Q714 241 665 179 Q616 117 561.5 74.5 Q507 32 448.5 9.5 Q390 -13 332 -13 Q204 -13 149 85.5 Q94 184 116 362 L191 995 L285 995 L210 362 Q193 219 229 142.5 Q265 66 364 66 Q419 66 475.5 94 Q532 122 585 174.5 Q638 227 685 300.5 Q732 374 768 466 L831 995 L925 995 Z " />
<glyph glyph-name="uni043A" unicode="&#x43a;" horiz-adv-x="904" d="M672 877 Q714 935 755 966.5 Q796 998 855 998 L897 998 L888 950 Q885 936 872 931.5 Q859 927 841 921.5 Q823 916 801.5 904.5 Q780 893 759 864 L565 615 Q551 596 538 581.5 Q525 567 510 556 Q495 545 477.5 537 Q460 529 438 524 Q488 514 521.5 485 Q555 456 578 408 L796 0 L742 0 Q717 0 703.5 8.5 Q690 17 682 33 L489 387 Q468 429 433.5 456.5 Q399 484 352 484 L228 463 L172 0 L81 0 L201 995 L292 995 L236 528 L355 550 Q397 558 424 575 Q451 592 476 624 L672 877 Z " />
<glyph glyph-name="uni043B" unicode="&#x43b;" horiz-adv-x="1058" d="M299 523 Q333 651 376.5 741 Q420 831 482 887.5 Q544 944 629 969.5 Q714 995 832 995 L953 995 L831 0 L740 0 L852 922 L814 922 Q722 922 655.5 900.5 Q589 879 540 831 Q491 783 455.5 706.5 Q420 630 390 519 Q352 369 314.5 267.5 Q277 166 235 103.5 Q193 41 144.5 14.5 Q96 -12 36 -12 Q6 -12 -6.5 -6.5 Q-19 -1 -18 11 L-11 63 L22 63 Q71 63 108 88.5 Q145 114 176.5 169.5 Q208 225 237 312 Q266 399 299 523 Z " />
<glyph glyph-name="uni0459" unicode="&#x459;" horiz-adv-x="1570" d="M879 202 Q875 171 885 144.5 Q895 118 917 98.5 Q939 79 973 67.5 Q1007 56 1052 56 Q1116 56 1177 86 Q1238 116 1284.5 165.5 Q1331 215 1359.5 278.5 Q1388 342 1388 409 Q1388 445 1379.5 478 Q1371 511 1352 536.5 Q1333 562 1302 577 Q1271 592 1227 592 Q1171 592 1113.5 563 Q1056 534 1008 487 Q960 440 926 381 Q892 322 885 261 L879 202 Z M906 434 Q935 481 974.5 522.5 Q1014 564 1059.5 594.5 Q1105 625 1154.5 643 Q1204 661 1253 661 Q1308 661 1349.5 643 Q1391 625 1419.5 592.5 Q1448 560 1462.5 516 Q1477 472 1477 421 Q1477 336 1439.5 257.5 Q1402 179 1340 119 Q1278 59 1196.5 23 Q1115 -13 1027 -13 Q962 -13 914.5 4 Q867 21 836.5 50.5 Q806 80 793.5 120.5 Q781 161 787 208 L874 922 L834 922 Q742 922 672.5 900.5 Q603 879 550 831 Q497 783 458.5 706.5 Q420 630 390 519 Q352 369 314.5 267.5 Q277 166 235 103.5 Q193 41 144.5 14.5 Q96 -12 36 -12 Q6 -12 -6.5 -6.5 Q-19 -1 -18 11 L-11 63 L22 63 Q71 63 108 88.5 Q145 114 176.5 169.5 Q208 225 237 312 Q266 399 299 523 Q333 651 379.5 741 Q426 831 492 887.5 Q558 944 646 969.5 Q734 995 852 995 L975 995 L906 434 Z " />
<glyph glyph-name="uni043C" unicode="&#x43c;" horiz-adv-x="1354" d="M1249 1000 L1126 0 L1041 0 L1142 816 Q1145 842 1153 872 L652 59 Q646 50 638.5 44 Q631 38 621 38 L607 38 Q598 38 592 44 Q586 50 582 59 L316 875 Q314 859 312 842 Q310 825 307 812 Q270 604 225.5 411.5 Q181 219 120 32 Q115 18 104 9 Q93 0 76 0 L23 0 Q63 125 97.5 243 Q132 361 161.5 482 Q191 603 217 730 Q243 857 268 1000 L337 1000 Q347 1000 356 996.5 Q365 993 370 979 L627 213 Q635 187 640 163 Q647 180 660 202 L1139 979 Q1147 992 1156.5 996 Q1166 1000 1176 1000 L1249 1000 Z " />
<glyph glyph-name="uni043D" unicode="&#x43d;" horiz-adv-x="1026" d="M920 995 L800 0 L706 0 L765 490 L234 490 L175 0 L81 0 L201 995 L295 995 L243 561 L774 561 L826 995 L920 995 Z " />
<glyph glyph-name="uni045A" unicode="&#x45a;" horiz-adv-x="1512" d="M821 202 Q817 171 827 144.5 Q837 118 859 98.5 Q881 79 915 67.5 Q949 56 994 56 Q1058 56 1119 86 Q1180 116 1226.5 165.5 Q1273 215 1301.5 278.5 Q1330 342 1330 409 Q1330 445 1321.5 478 Q1313 511 1294 536.5 Q1275 562 1244 577 Q1213 592 1169 592 Q1113 592 1055.5 563 Q998 534 950 487 Q902 440 868 381 Q834 322 827 261 L821 202 Z M848 434 Q877 481 916.5 522.5 Q956 564 1001.5 594.5 Q1047 625 1096.5 643 Q1146 661 1195 661 Q1250 661 1291.5 643 Q1333 625 1361.5 592.5 Q1390 560 1404.5 516 Q1419 472 1419 421 Q1419 336 1381.5 257.5 Q1344 179 1282 119 Q1220 59 1138.5 23 Q1057 -13 969 -13 Q904 -13 856.5 4 Q809 21 778.5 50.5 Q748 80 735.5 120.5 Q723 161 729 208 L764 497 L235 497 L175 0 L81 0 L201 995 L295 995 L244 569 L773 569 L825 995 L917 995 L848 434 Z " />
<glyph glyph-name="uni0473" unicode="&#x473;" horiz-adv-x="1026" d="M173 467 Q170 431 170 395 Q170 234 241.5 145.5 Q313 57 441 57 Q514 57 576.5 89.5 Q639 122 687.5 178 Q736 234 769.5 308.5 Q803 383 818 467 L173 467 Z M827 531 Q829 549 830 567.5 Q831 586 831 604 Q831 764 760 851.5 Q689 939 561 939 Q487 939 424.5 906.5 Q362 874 313.5 818.5 Q265 763 231.5 689 Q198 615 182 531 L827 531 Z M569 1010 Q649 1010 714.5 981.5 Q780 953 826.5 900.5 Q873 848 898.5 772.5 Q924 697 924 603 Q924 482 887.5 371 Q851 260 786 174.5 Q721 89 631 38 Q541 -13 433 -13 Q353 -13 287.5 15 Q222 43 175.5 96 Q129 149 103.5 224.5 Q78 300 78 396 Q78 517 114 628 Q150 739 215.5 824 Q281 909 371 959.5 Q461 1010 569 1010 Z " />
<glyph glyph-name="uni043F" unicode="&#x43f;" horiz-adv-x="1032" d="M251 675 Q291 754 340.5 816.5 Q390 879 445 922 Q500 965 558 987.5 Q616 1010 675 1010 Q739 1010 784.5 985 Q830 960 857.5 912 Q885 864 893.5 794.5 Q902 725 891 636 L816 0 L722 0 L797 636 Q814 778 778 854 Q742 930 643 930 Q587 930 530.5 901.5 Q474 873 420.5 820.5 Q367 768 320 693.5 Q273 619 237 526 L176 0 L82 0 L201 998 L244 998 Q279 998 279 962 L251 675 Z " />
<glyph glyph-name="uni0442" unicode="&#x442;" horiz-adv-x="1560" d="M81 0 L201 998 L244 998 Q279 998 279 962 L251 684 Q329 839 431 924.5 Q533 1010 646 1010 Q704 1010 742 989 Q780 968 801 927.5 Q822 887 828 828 Q834 769 828 693 Q867 773 913.5 832.5 Q960 892 1011.5 931.5 Q1063 971 1117 990.5 Q1171 1010 1224 1010 Q1289 1010 1331.5 985 Q1374 960 1397 912 Q1420 864 1424.5 794.5 Q1429 725 1418 636 L1343 0 L1250 0 L1325 636 Q1334 707 1332.5 762 Q1331 817 1316.5 854.5 Q1302 892 1272.5 911 Q1243 930 1194 930 Q1145 930 1094.5 907.5 Q1044 885 995.5 840 Q947 795 903.5 727 Q860 659 825 567 L758 0 L665 0 L740 636 Q749 707 749 762 Q749 817 736 854.5 Q723 892 694.5 911 Q666 930 617 930 Q503 930 406.5 826 Q310 722 237 532 L174 0 L81 0 Z " />
<glyph glyph-name="uni0475" unicode="&#x475;" horiz-adv-x="971" d="M739 861 Q759 907 781 935 Q803 963 827 978.5 Q851 994 876 999 Q901 1004 926 1004 Q957 1004 968.5 998.5 Q980 993 979 988 L972 936 L947 936 Q904 936 874.5 915 Q845 894 822 846 L422 0 L340 0 L84 995 L157 995 Q171 995 178.5 987.5 Q186 980 188 971 L383 182 Q392 143 395 106 Q402 125 409 143.5 Q416 162 424 182 L739 861 Z " />
<glyph glyph-name="uni0444" unicode="&#x444;" horiz-adv-x="1415" d="M696 118 Q728 87 768 73.5 Q808 60 851 60 Q911 60 961.5 84 Q1012 108 1053.5 150 Q1095 192 1126 248.5 Q1157 305 1178.5 370 Q1200 435 1210.5 505 Q1221 575 1221 644 Q1221 724 1206 779.5 Q1191 835 1164 869 Q1137 903 1099.5 918 Q1062 933 1018 933 Q983 933 947 924 Q911 915 878.5 898.5 Q846 882 820 858 Q794 834 778 804 L696 118 Z M695 877 Q663 909 622.5 922.5 Q582 936 539 936 Q479 936 428.5 912 Q378 888 336.5 846 Q295 804 264 747.5 Q233 691 211.5 626 Q190 561 179.5 491 Q169 421 169 352 Q169 272 184 217 Q199 162 226 128 Q253 94 290.5 79 Q328 64 372 64 Q407 64 443.5 73 Q480 82 512 98.5 Q544 115 570.5 139 Q597 163 612 193 L695 877 Z M789 894 Q834 948 902 979 Q970 1010 1049 1010 Q1108 1010 1157 989.5 Q1206 969 1241 925.5 Q1276 882 1295.5 814 Q1315 746 1315 652 Q1315 571 1301 490.5 Q1287 410 1260.5 336 Q1234 262 1195 198.5 Q1156 135 1106 88 Q1056 41 995.5 14 Q935 -13 865 -13 Q807 -13 762.5 8 Q718 29 689 60 L644 -309 Q641 -329 626.5 -342 Q612 -355 589 -355 L546 -355 L601 103 Q556 49 488 18 Q420 -13 341 -13 Q282 -13 233.5 7.5 Q185 28 150 71.5 Q115 115 95.5 183 Q76 251 76 345 Q76 426 90 506.5 Q104 587 130.5 660.5 Q157 734 196 798 Q235 862 284.5 909 Q334 956 394.5 983 Q455 1010 525 1010 Q583 1010 628 989 Q673 968 702 936 L759 1409 Q762 1429 776.5 1442 Q791 1455 814 1455 L857 1455 L789 894 Z " />
<glyph glyph-name="uni0446" unicode="&#x446;" horiz-adv-x="1081" d="M980 71 L887 -324 Q885 -339 876.5 -347 Q868 -355 854 -355 L801 -355 L889 0 L761 0 Q742 0 733.5 10 Q725 20 725 37 L755 320 Q714 241 665 179 Q616 117 561.5 74.5 Q507 32 448.5 9.5 Q390 -13 332 -13 Q204 -13 149 85.5 Q94 184 116 362 L191 995 L285 995 L210 362 Q193 219 229 142.5 Q265 66 364 66 Q419 66 475.5 94 Q532 122 585 174.5 Q638 227 685 300.5 Q732 374 768 466 L831 995 L925 995 L814 71 L980 71 Z " />
<glyph glyph-name="uni045F" unicode="&#x45f;" horiz-adv-x="1032" d="M925 995 L805 0 L761 0 Q742 0 733.5 10 Q725 20 725 37 L755 320 Q690 195 606 114 Q522 33 430 3 L390 -324 Q388 -339 379.5 -347 Q371 -355 357 -355 L303 -355 L345 -13 L332 -13 Q204 -13 149 85.5 Q94 184 116 362 L191 995 L285 995 L210 362 Q193 219 229 142.5 Q265 66 364 66 Q419 66 475.5 94 Q532 122 585 174.5 Q638 227 685 300.5 Q732 374 768 466 L831 995 L925 995 Z " />
<glyph glyph-name="uni0447" unicode="&#x447;" horiz-adv-x="921" d="M814 995 L694 0 L600 0 L665 539 Q635 494 597 455 Q559 416 513.5 386.5 Q468 357 416.5 340.5 Q365 324 309 324 Q244 324 199.5 347.5 Q155 371 129.5 413 Q104 455 96.5 512.5 Q89 570 97 638 L138 995 L232 995 L191 638 Q185 588 190 545.5 Q195 503 213 471.5 Q231 440 263 422 Q295 404 344 404 Q399 404 449.5 423.5 Q500 443 543.5 477.5 Q587 512 621.5 559 Q656 606 680 660 L720 995 L814 995 Z " />
<glyph glyph-name="uni0448" unicode="&#x448;" horiz-adv-x="1560" d="M1453 995 L1333 0 L1290 0 Q1272 0 1263.5 9.5 Q1255 19 1255 36 L1282 314 Q1243 237 1198 176 Q1153 115 1102.5 73 Q1052 31 998 9 Q944 -13 888 -13 Q830 -13 792 8.5 Q754 30 733 70.5 Q712 111 706 170 Q700 229 706 304 Q667 224 620.5 164.5 Q574 105 522.5 65.5 Q471 26 417 6.5 Q363 -13 310 -13 Q245 -13 202.5 12.5 Q160 38 137 86 Q114 134 109.5 203.5 Q105 273 116 362 L191 995 L284 995 L209 362 Q200 291 201.5 235.5 Q203 180 217.5 142.5 Q232 105 261.5 85.5 Q291 66 340 66 Q389 66 439.5 88.5 Q490 111 538.5 156.5 Q587 202 630.5 270.5 Q674 339 709 431 L776 995 L869 995 L794 362 Q785 291 785 235.5 Q785 180 798 142.5 Q811 105 839.5 85.5 Q868 66 917 66 Q974 66 1026.5 93 Q1079 120 1127 171 Q1175 222 1218 296.5 Q1261 371 1297 466 L1360 995 L1453 995 Z " />
<glyph glyph-name="uni0449" unicode="&#x449;" horiz-adv-x="1603" d="M1496 71 L1403 -324 Q1401 -339 1392.5 -347 Q1384 -355 1370 -355 L1316 -355 L1404 0 L1290 0 Q1272 0 1263.5 9.5 Q1255 19 1255 36 L1282 314 Q1243 237 1198 176 Q1153 115 1102.5 73 Q1052 31 998 9 Q944 -13 888 -13 Q830 -13 792 8.5 Q754 30 733 70.5 Q712 111 706 170 Q700 229 706 304 Q667 224 620.5 164.5 Q574 105 522.5 65.5 Q471 26 417 6.5 Q363 -13 310 -13 Q245 -13 202.5 12.5 Q160 38 137 86 Q114 134 109.5 203.5 Q105 273 116 362 L191 995 L284 995 L209 362 Q200 291 201.5 235.5 Q203 180 217.5 142.5 Q232 105 261.5 85.5 Q291 66 340 66 Q389 66 439.5 88.5 Q490 111 538.5 156.5 Q587 202 630.5 270.5 Q674 339 709 431 L776 995 L869 995 L794 362 Q785 291 785 235.5 Q785 180 798 142.5 Q811 105 839.5 85.5 Q868 66 917 66 Q974 66 1026.5 93 Q1079 120 1127 171 Q1175 222 1218 296.5 Q1261 371 1297 466 L1360 995 L1453 995 L1342 71 L1496 71 Z " />
<glyph glyph-name="uni044A" unicode="&#x44a;" horiz-adv-x="997" d="M491 56 Q553 56 611 84.5 Q669 113 714 161 Q759 209 786.5 272 Q814 335 814 405 Q814 442 805.5 476 Q797 510 778 536 Q759 562 728 577 Q697 592 653 592 Q594 592 532 564.5 Q470 537 419.5 491.5 Q369 446 336.5 386 Q304 326 304 261 Q304 211 318 172.5 Q332 134 356.5 108 Q381 82 415.5 69 Q450 56 491 56 Z M526 946 Q476 884 439 819 Q402 754 377 689 Q352 624 337 559.5 Q322 495 315 434 Q345 485 386.5 526.5 Q428 568 476.5 598 Q525 628 577.5 644.5 Q630 661 681 661 Q735 661 776.5 642.5 Q818 624 846 591.5 Q874 559 888.5 514.5 Q903 470 903 417 Q903 337 870.5 259.5 Q838 182 781 121.5 Q724 61 646.5 24 Q569 -13 479 -13 Q420 -13 371 5 Q322 23 286.5 63 Q251 103 231 165.5 Q211 228 211 317 Q211 386 223.5 460.5 Q236 535 262.5 612 Q289 689 330.5 767.5 Q372 846 430 923 L68 923 L73 956 Q75 973 86.5 984 Q98 995 120 995 L533 995 L526 946 Z " />
<glyph glyph-name="uni044B" unicode="&#x44b;" horiz-adv-x="1230" d="M1123 995 L1003 0 L909 0 L1029 995 L1123 995 Z M191 202 Q187 171 197 144.5 Q207 118 229 98.5 Q251 79 285 67.5 Q319 56 364 56 Q428 56 489 86 Q550 116 596.5 165.5 Q643 215 671.5 278.5 Q700 342 700 409 Q700 445 691.5 478 Q683 511 664 536.5 Q645 562 614 577 Q583 592 539 592 Q483 592 425.5 563 Q368 534 320 487 Q272 440 238 381 Q204 322 197 261 L191 202 Z M218 434 Q247 481 286.5 522.5 Q326 564 371.5 594.5 Q417 625 466.5 643 Q516 661 565 661 Q620 661 661.5 643 Q703 625 731.5 592.5 Q760 560 774.5 516 Q789 472 789 421 Q789 336 751.5 257.5 Q714 179 652 119 Q590 59 508.5 23 Q427 -13 339 -13 Q274 -13 226.5 4 Q179 21 148.5 50.5 Q118 80 105.5 120.5 Q93 161 99 208 L195 995 L287 995 L218 434 Z " />
<glyph glyph-name="uni044C" unicode="&#x44c;" horiz-adv-x="882" d="M191 202 Q187 171 197 144.5 Q207 118 229 98.5 Q251 79 285 67.5 Q319 56 364 56 Q428 56 489 86 Q550 116 596.5 165.5 Q643 215 671.5 278.5 Q700 342 700 409 Q700 445 691.5 478 Q683 511 664 536.5 Q645 562 614 577 Q583 592 539 592 Q483 592 425.5 563 Q368 534 320 487 Q272 440 238 381 Q204 322 197 261 L191 202 Z M218 434 Q247 481 286.5 522.5 Q326 564 371.5 594.5 Q417 625 466.5 643 Q516 661 565 661 Q620 661 661.5 643 Q703 625 731.5 592.5 Q760 560 774.5 516 Q789 472 789 421 Q789 336 751.5 257.5 Q714 179 652 119 Q590 59 508.5 23 Q427 -13 339 -13 Q274 -13 226.5 4 Q179 21 148.5 50.5 Q118 80 105.5 120.5 Q93 161 99 208 L195 995 L287 995 L218 434 Z " />
<glyph glyph-name="uni044D" unicode="&#x44d;" horiz-adv-x="912" d="M106 892 Q146 923 184 945.5 Q222 968 260 982.5 Q298 997 338 1004 Q378 1011 424 1011 Q520 1011 592 977.5 Q664 944 711.5 884.5 Q759 825 782.5 744.5 Q806 664 806 570 Q806 493 790.5 420 Q775 347 746 282 Q717 217 675 163 Q633 109 579.5 70 Q526 31 462 9 Q398 -13 325 -13 Q228 -13 154.5 23 Q81 59 35 122 L60 152 Q69 163 82 163 Q90 163 106.5 147 Q123 131 152 112 Q181 93 223.5 77 Q266 61 326 61 Q405 61 470.5 93.5 Q536 126 585 182.5 Q634 239 665 314 Q696 389 707 475 L209 475 L217 542 L713 542 L713 566 Q713 645 695 713 Q677 781 639.5 831 Q602 881 545.5 909 Q489 937 412 937 Q349 937 304 922 Q259 907 227.5 889.5 Q196 872 176.5 857.5 Q157 843 144 844 Q133 845 128.5 849 Q124 853 120 859 L106 892 Z " />
<glyph glyph-name="uni0454" unicode="&#x454;" horiz-adv-x="916" d="M801 182 Q748 123 700.5 85 Q653 47 607.5 25 Q562 3 515 -5 Q468 -13 415 -13 Q329 -13 265.5 16.5 Q202 46 160 99 Q118 152 97 225 Q76 298 76 384 Q76 463 92.5 540.5 Q109 618 140 688 Q171 758 215 817 Q259 876 314 919 Q369 962 433.5 986.5 Q498 1011 571 1011 Q620 1011 659.5 1001.5 Q699 992 732 974.5 Q765 957 792 932 Q819 907 842 876 L817 845 Q813 841 807.5 838 Q802 835 795 835 Q785 835 771 851 Q757 867 732.5 885.5 Q708 904 669 920 Q630 936 570 936 Q499 936 437 905.5 Q375 875 325.5 821.5 Q276 768 240 696 Q204 624 186 542 L669 542 L662 475 L174 475 Q172 453 170.5 431 Q169 409 169 386 Q169 317 184.5 257 Q200 197 232.5 153.5 Q265 110 315 85 Q365 60 434 60 Q487 60 529.5 71.5 Q572 83 604.5 100.5 Q637 118 661.5 138 Q686 158 704.5 175.5 Q723 193 736.5 204.5 Q750 216 761 216 Q773 216 782 206 L801 182 Z " />
<glyph glyph-name="uni044E" unicode="&#x44e;" horiz-adv-x="1358" d="M805 62 Q885 62 950.5 108.5 Q1016 155 1062.5 231.5 Q1109 308 1134.5 406.5 Q1160 505 1160 609 Q1160 765 1097 849.5 Q1034 934 921 934 Q841 934 776 888.5 Q711 843 664 767 Q617 691 591.5 593 Q566 495 566 389 Q567 234 629 148 Q691 62 805 62 Z M488 533 Q505 632 544 719 Q583 806 641 870.5 Q699 935 772.5 972.5 Q846 1010 932 1010 Q1005 1010 1064.5 982 Q1124 954 1166.5 902.5 Q1209 851 1232 776.5 Q1255 702 1255 609 Q1255 487 1221 375 Q1187 263 1125.5 176.5 Q1064 90 979.5 38.5 Q895 -13 794 -13 Q722 -13 663 14.5 Q604 42 562.5 94 Q521 146 498.5 221 Q476 296 476 390 Q476 428 479 464 L229 464 L172 0 L80 0 L202 995 L295 995 L238 533 L488 533 Z " />
<glyph glyph-name="uni044F" unicode="&#x44f;" horiz-adv-x="968" d="M767 931 L516 931 Q444 931 394 909.5 Q344 888 313.5 854.5 Q283 821 269.5 780.5 Q256 740 256 702 Q256 659 272 623.5 Q288 588 318 562.5 Q348 537 392 523 Q436 509 492 509 L715 509 L767 931 Z M862 995 L740 0 L653 0 L708 448 L537 448 Q507 448 483.5 442.5 Q460 437 442 425.5 Q424 414 409.5 398 Q395 382 382 361 L211 96 Q175 37 130.5 14 Q86 -9 28 -9 Q-6 -9 -19 -3.5 Q-32 2 -30 14 L-24 63 L10 63 Q50 63 82.5 80.5 Q115 98 142 139 L301 378 Q321 409 348.5 431 Q376 453 416 465 Q348 472 300.5 493.5 Q253 515 223 547.5 Q193 580 179.5 620 Q166 660 166 704 Q166 755 185.5 807 Q205 859 247 900.5 Q289 942 355.5 968.5 Q422 995 516 995 L862 995 Z " />
<glyph glyph-name="uni0452" unicode="&#x452;" horiz-adv-x="1008" d="M254 670 Q293 727 338 775 Q383 823 432 858.5 Q481 894 533.5 914 Q586 934 640 934 Q704 934 750.5 909 Q797 884 827 839.5 Q857 795 871.5 732.5 Q886 670 886 595 Q886 474 861.5 358.5 Q837 243 789.5 128.5 Q742 14 672 -102 Q602 -218 511 -340 L440 -307 Q525 -188 591 -76 Q657 36 702 145 Q747 254 770 362 Q793 470 793 581 Q793 643 781.5 694.5 Q770 746 747 782.5 Q724 819 689 839.5 Q654 860 606 860 Q559 860 510 836 Q461 812 413.5 771.5 Q366 731 322 676 Q278 621 241 560 L172 0 L80 0 L218 1125 L32 1125 L40 1199 L227 1199 L258 1455 L351 1455 L320 1199 L679 1199 L671 1125 L310 1125 L254 670 Z " />
<glyph glyph-name="uni0463" unicode="&#x463;" horiz-adv-x="1030" d="M334 202 Q330 171 340 144.5 Q350 118 372 98.5 Q394 79 428 67.5 Q462 56 507 56 Q571 56 632 86 Q693 116 739.5 165.5 Q786 215 814.5 278.5 Q843 342 843 409 Q843 445 834.5 478 Q826 511 807 536.5 Q788 562 757 577 Q726 592 682 592 Q626 592 568.5 563 Q511 534 463 487 Q415 440 381 381 Q347 322 340 261 L334 202 Z M361 434 Q390 481 429.5 522.5 Q469 564 514.5 594.5 Q560 625 609.5 643 Q659 661 708 661 Q763 661 804.5 643 Q846 625 874.5 592.5 Q903 560 917.5 516 Q932 472 932 421 Q932 336 894.5 257.5 Q857 179 795 119 Q733 59 651.5 23 Q570 -13 482 -13 Q417 -13 369.5 4 Q322 21 291.5 50.5 Q261 80 248.5 120.5 Q236 161 242 208 L329 923 L66 923 L75 995 L339 995 L376 1300 L468 1300 L431 995 L737 995 L728 923 L422 923 L396 712 L395 712 L361 434 Z " />
<glyph glyph-name="exclam" unicode="&#x21;" horiz-adv-x="474" d="M378 1415 L308 843 Q302 798 296 758 Q290 718 283 676.5 Q276 635 267.5 589 Q259 543 249 487 L187 487 Q191 543 194 589 Q197 635 200.5 676.5 Q204 718 208 758 Q212 798 217 843 L287 1415 L378 1415 Z M89 77 Q89 96 96 113 Q103 130 115.5 142.5 Q128 155 144.5 162.5 Q161 170 181 170 Q200 170 217 162.5 Q234 155 246.5 142.5 Q259 130 266.5 113 Q274 96 274 77 Q274 57 266.5 40.5 Q259 24 246.5 11.5 Q234 -1 217 -8 Q200 -15 181 -15 Q142 -15 115.5 11.5 Q89 38 89 77 Z " />
<glyph glyph-name="question" unicode="&#x3f;" horiz-adv-x="808" d="M167 1290 Q196 1317 230.5 1342.5 Q265 1368 305.5 1387.5 Q346 1407 392 1419 Q438 1431 490 1431 Q551 1431 602.5 1412 Q654 1393 691.5 1358 Q729 1323 750 1274.5 Q771 1226 771 1167 Q771 1084 746.5 1025 Q722 966 684.5 922 Q647 878 602 845.5 Q557 813 516.5 783 Q476 753 446 722 Q416 691 408 651 L376 487 L312 487 L329 657 Q333 701 360.5 735.5 Q388 770 427.5 801 Q467 832 512 863.5 Q557 895 595 935 Q633 975 658.5 1027 Q684 1079 684 1151 Q684 1198 668 1235.5 Q652 1273 623.5 1299.5 Q595 1326 556.5 1340 Q518 1354 474 1354 Q412 1354 366 1336.5 Q320 1319 288 1298 Q256 1277 236 1259.5 Q216 1242 206 1242 Q200 1242 196 1244 Q192 1246 187 1254 L167 1290 Z M228 77 Q228 96 235 113 Q242 130 254.5 142.5 Q267 155 283.5 162.5 Q300 170 320 170 Q339 170 356.5 162.5 Q374 155 386.5 142.5 Q399 130 406.5 113 Q414 96 414 77 Q414 38 386.5 11.5 Q359 -15 320 -15 Q281 -15 254.5 11.5 Q228 38 228 77 Z " />
<glyph glyph-name="uni203D" unicode="&#x203d;" horiz-adv-x="856" d="M298 170 Q317 170 334 162.5 Q351 155 363.5 142.5 Q376 130 383.5 113 Q391 96 391 77 Q391 57 383.5 40.5 Q376 24 363.5 11.5 Q351 -1 334 -8 Q317 -15 298 -15 Q259 -15 232.5 11.5 Q206 38 206 77 Q206 96 213 113 Q220 130 232.5 142.5 Q245 155 261.5 162.5 Q278 170 298 170 Z M424 1379 Q452 1389 485 1394 Q518 1399 552 1399 Q614 1399 665 1381.5 Q716 1364 752 1331 Q788 1298 808 1251.5 Q828 1205 828 1147 Q828 1084 811.5 1034.5 Q795 985 768 945.5 Q741 906 705.5 874 Q670 842 632 813 Q594 784 556.5 755.5 Q519 727 487 695 Q455 663 432 625 Q409 587 400 539 L381 455 L323 455 Q313 524 304 608.5 Q295 693 284 773 L204 1403 L293 1424 L355 869 Q356 858 358.5 832.5 Q361 807 363.5 774 Q366 741 368 704.5 Q370 668 372 635 Q395 689 431.5 730 Q468 771 509 805.5 Q550 840 591.5 873 Q633 906 666.5 943.5 Q700 981 721 1027 Q742 1073 742 1135 Q742 1221 686.5 1272 Q631 1323 536 1323 Q501 1323 480.5 1318 Q460 1313 452 1313 Q431 1313 430 1330 L424 1379 Z " />
<glyph glyph-name="comma" unicode="&#x2c;" horiz-adv-x="424" d="M69 -238 Q64 -234 63 -229.5 Q62 -225 62 -220 Q62 -212 77.5 -193.5 Q93 -175 113 -146.5 Q133 -118 151 -81 Q169 -44 174 1 Q159 -4 143 -4 Q106 -4 82.5 21 Q59 46 59 85 Q59 120 83 145 Q107 170 146 170 Q189 170 212.5 140.5 Q236 111 236 63 Q236 22 225.5 -20.5 Q215 -63 195 -104 Q175 -145 147 -183 Q119 -221 85 -253 L69 -238 Z " />
<glyph glyph-name="semicolon" unicode="&#x3b;" horiz-adv-x="493" d="M108 -238 Q103 -234 102 -229.5 Q101 -225 101 -220 Q101 -212 116.5 -193.5 Q132 -175 152 -146.5 Q172 -118 190 -81 Q208 -44 213 1 Q198 -4 182 -4 Q145 -4 121.5 21 Q98 46 98 85 Q98 120 122 145 Q146 170 185 170 Q228 170 251.5 140.5 Q275 111 275 63 Q275 22 264.5 -20.5 Q254 -63 234 -104 Q214 -145 186 -183 Q158 -221 124 -253 L108 -238 Z M182 874 Q182 893 189 910 Q196 927 208.5 939.5 Q221 952 237.5 959.5 Q254 967 274 967 Q293 967 310 959.5 Q327 952 339.5 939.5 Q352 927 359.5 910 Q367 893 367 874 Q367 854 359.5 837.5 Q352 821 339.5 808.5 Q327 796 310 789 Q293 782 274 782 Q235 782 208.5 808.5 Q182 835 182 874 Z " />
<glyph glyph-name="period" unicode="&#x2e;" horiz-adv-x="459" d="M76 77 Q76 96 83 113 Q90 130 102.5 142.5 Q115 155 131.5 162.5 Q148 170 168 170 Q187 170 204 162.5 Q221 155 233.5 142.5 Q246 130 253.5 113 Q261 96 261 77 Q261 57 253.5 40.5 Q246 24 233.5 11.5 Q221 -1 204 -8 Q187 -15 168 -15 Q129 -15 102.5 11.5 Q76 38 76 77 Z " />
<glyph glyph-name="ellipsis" unicode="&#x2026;" horiz-adv-x="1440" d="M76 77 Q76 96 83 113 Q90 130 102.5 142.5 Q115 155 131.5 162.5 Q148 170 168 170 Q187 170 204 162.5 Q221 155 233.5 142.5 Q246 130 253.5 113 Q261 96 261 77 Q261 57 253.5 40.5 Q246 24 233.5 11.5 Q221 -1 204 -8 Q187 -15 168 -15 Q129 -15 102.5 11.5 Q76 38 76 77 Z M566 77 Q566 96 573 113 Q580 130 592.5 142.5 Q605 155 621.5 162.5 Q638 170 658 170 Q677 170 694.5 162.5 Q712 155 724.5 142.5 Q737 130 744.5 113 Q752 96 752 77 Q752 38 724.5 11.5 Q697 -15 658 -15 Q619 -15 592.5 11.5 Q566 38 566 77 Z M1057 77 Q1057 96 1064 113 Q1071 130 1083.5 142.5 Q1096 155 1112.5 162.5 Q1129 170 1149 170 Q1168 170 1185 162.5 Q1202 155 1214.5 142.5 Q1227 130 1234.5 113 Q1242 96 1242 77 Q1242 57 1234.5 40.5 Q1227 24 1214.5 11.5 Q1202 -1 1185 -8 Q1168 -15 1149 -15 Q1110 -15 1083.5 11.5 Q1057 38 1057 77 Z " />
<glyph glyph-name="quoteleft" unicode="&#x2018;" horiz-adv-x="391" d="M218 1059 Q194 1117 195 1175 Q196 1233 216.5 1288 Q237 1343 274 1393.5 Q311 1444 359 1487 L382 1471 Q388 1466 388 1459 Q388 1454 385.5 1449 Q383 1444 375 1436 Q347 1403 324.5 1364.5 Q302 1326 289 1285 Q276 1244 276.5 1201.5 Q277 1159 295 1117 Q300 1107 296 1098 Q292 1089 280 1084 L218 1059 Z " />
<glyph glyph-name="quoteright" unicode="&#x2019;" horiz-adv-x="399" d="M349 1475 Q373 1417 372 1359 Q371 1301 350.5 1246 Q330 1191 293 1140.5 Q256 1090 208 1047 L185 1063 Q178 1068 178 1075 Q178 1080 181 1084.5 Q184 1089 192 1098 Q220 1131 242.5 1169.5 Q265 1208 277.5 1249 Q290 1290 290 1332.5 Q290 1375 272 1417 Q262 1439 287 1450 L349 1475 Z " />
<glyph glyph-name="quotedblleft" unicode="&#x201c;" horiz-adv-x="639" d="M218 1059 Q194 1117 195 1175 Q196 1233 216.5 1288 Q237 1343 274 1393.5 Q311 1444 359 1487 L382 1471 Q388 1466 388 1459 Q388 1454 385.5 1449 Q383 1444 375 1436 Q347 1403 324.5 1364.5 Q302 1326 289 1285 Q276 1244 276.5 1201.5 Q277 1159 295 1117 Q300 1107 296 1098 Q292 1089 280 1084 L218 1059 Z M466 1059 Q442 1117 443 1175 Q444 1233 464.5 1288 Q485 1343 522 1393.5 Q559 1444 607 1487 L630 1471 Q636 1466 636 1459 Q636 1454 633.5 1449 Q631 1444 623 1436 Q595 1403 572.5 1364.5 Q550 1326 537 1285 Q524 1244 524.5 1201.5 Q525 1159 543 1117 Q548 1107 544 1098 Q540 1089 528 1084 L466 1059 Z " />
<glyph glyph-name="quotedblright" unicode="&#x201d;" horiz-adv-x="645" d="M349 1475 Q373 1417 372 1359 Q371 1301 350.5 1246 Q330 1191 293 1140.5 Q256 1090 208 1047 L185 1063 Q178 1068 178 1075 Q178 1080 181 1084.5 Q184 1089 192 1098 Q220 1131 242.5 1169.5 Q265 1208 277.5 1249 Q290 1290 290 1332.5 Q290 1375 272 1417 Q262 1439 287 1450 L349 1475 Z M597 1475 Q621 1417 620 1359 Q619 1301 598.5 1246 Q578 1191 541 1140.5 Q504 1090 456 1047 L433 1063 Q426 1068 426 1075 Q426 1080 429 1084.5 Q432 1089 440 1098 Q468 1131 490.5 1169.5 Q513 1208 525.5 1249 Q538 1290 538 1332.5 Q538 1375 520 1417 Q510 1439 535 1450 L597 1475 Z " />
<glyph glyph-name="quotesinglbase" unicode="&#x201a;" horiz-adv-x="384" d="M170 174 Q194 116 193 58 Q192 0 171.5 -55 Q151 -110 114 -160.5 Q77 -211 29 -254 L6 -238 Q-1 -233 -1 -226 Q-1 -221 2 -216.5 Q5 -212 13 -203 Q41 -170 63.5 -131.5 Q86 -93 98.5 -52 Q111 -11 111 31.5 Q111 74 93 116 Q83 138 108 149 L170 174 Z " />
<glyph glyph-name="quotedblbase" unicode="&#x201e;" horiz-adv-x="632" d="M170 174 Q194 116 193 58 Q192 0 171.5 -55 Q151 -110 114 -160.5 Q77 -211 29 -254 L6 -238 Q-1 -233 -1 -226 Q-1 -221 2 -216.5 Q5 -212 13 -203 Q41 -170 63.5 -131.5 Q86 -93 98.5 -52 Q111 -11 111 31.5 Q111 74 93 116 Q83 138 108 149 L170 174 Z M418 174 Q442 116 441 58 Q440 0 419.5 -55 Q399 -110 362 -160.5 Q325 -211 277 -254 L254 -238 Q247 -233 247 -226 Q247 -221 250 -216.5 Q253 -212 261 -203 Q289 -170 311.5 -131.5 Q334 -93 346.5 -52 Q359 -11 359 31.5 Q359 74 341 116 Q331 138 356 149 L418 174 Z " />
<glyph glyph-name="guilsinglleft" unicode="&#x2039;" horiz-adv-x="500" d="M190 547 Q175 526 165 519 Q174 511 183 491 L314 196 Q321 180 317 168 Q313 156 300 149 L268 134 L92 513 L93 525 L363 903 L390 889 Q401 882 402.5 869.5 Q404 857 393 842 L190 547 Z " />
<glyph glyph-name="guilsinglright" unicode="&#x203a;" horiz-adv-x="498" d="M386 525 L385 513 L117 134 L89 149 Q63 163 85 196 L289 491 Q302 511 313 519 Q304 527 295 547 L164 842 Q157 857 161.5 869.5 Q166 882 180 889 L210 903 L386 525 Z " />
<glyph glyph-name="guillemotleft" unicode="&#xab;" horiz-adv-x="733" d="M189 547 Q174 526 164 519 Q173 511 182 491 L313 196 Q320 180 316 168 Q312 156 299 149 L267 134 L91 513 L92 525 L362 903 L389 889 Q400 882 401.5 869.5 Q403 857 392 842 L189 547 Z M423 547 Q408 526 398 519 Q407 511 416 491 L547 196 Q554 180 550 168 Q546 156 533 149 L501 134 L325 513 L326 525 L596 903 L623 889 Q634 882 635.5 869.5 Q637 857 626 842 L423 547 Z " />
<glyph glyph-name="guillemotright" unicode="&#xbb;" horiz-adv-x="733" d="M387 525 L386 513 L118 134 L90 149 Q64 163 86 196 L290 491 Q303 511 314 519 Q305 527 296 547 L165 842 Q158 857 162.5 869.5 Q167 882 181 889 L211 903 L387 525 Z M621 525 L620 513 L352 134 L324 149 Q298 163 320 196 L524 491 Q537 511 548 519 Q539 527 530 547 L399 842 Q392 857 396.5 869.5 Q401 882 415 889 L445 903 L621 525 Z " />
<glyph glyph-name="slash" unicode="&#x2f;" horiz-adv-x="809" d="M87 -47 Q78 -66 61.5 -75 Q45 -84 29 -84 L-9 -84 L742 1409 Q759 1445 798 1445 L837 1445 L87 -47 Z " />
<glyph glyph-name="bar" unicode="&#x7c;" horiz-adv-x="490" d="M205 1517 L280 1517 L280 -352 L205 -352 L205 1517 Z " />
<glyph glyph-name="brokenbar" unicode="&#xa6;" horiz-adv-x="490" d="M205 1517 L280 1517 L280 739 L205 739 L205 1517 Z M205 425 L280 425 L280 -352 L205 -352 L205 425 Z " />
<glyph glyph-name="backslash" unicode="&#x5c;" horiz-adv-x="800" d="M175 1445 L214 1445 Q253 1445 262 1409 L646 -84 L608 -84 Q592 -84 577.5 -75 Q563 -66 558 -47 L175 1445 Z " />
<glyph glyph-name="&amp;#x2d;" unicode="&#x2d;" horiz-adv-x="712" d="M145 632 L573 632 L564 554 L134 554 L145 632 Z " />
<glyph glyph-name="&amp;#xad;" unicode="&#xad;" horiz-adv-x="712" d="M145 632 L573 632 L564 554 L134 554 L145 632 Z " />
<glyph glyph-name="&amp;#x2010;" unicode="&#x2010;" horiz-adv-x="712" d="M145 632 L573 632 L564 554 L134 554 L145 632 Z " />
<glyph glyph-name="endash" unicode="&#x2013;" horiz-adv-x="1160" d="M217 612 L942 612 L934 543 L209 543 L217 612 Z " />
<glyph glyph-name="emdash" unicode="&#x2014;" horiz-adv-x="1472" d="M139 612 L1334 612 L1324 543 L131 543 L139 612 Z " />
<glyph glyph-name="underscore" unicode="&#x5f;" horiz-adv-x="887" d="M707 -207 L698 -272 L-26 -272 L-19 -207 L707 -207 Z " />
<glyph glyph-name="bullet" unicode="&#x2022;" horiz-adv-x="1160" d="M284 596 Q284 657 307 711 Q330 765 370 805.5 Q410 846 463 869 Q516 892 576 892 Q637 892 691 869 Q745 846 785 805.5 Q825 765 848 711 Q871 657 871 596 Q871 536 848 483.5 Q825 431 785 391 Q745 351 691 328 Q637 305 576 305 Q516 305 463 328 Q410 351 370 391 Q330 431 307 483.5 Q284 536 284 596 Z " />
<glyph glyph-name="&amp;#xb7;" unicode="&#xb7;" horiz-adv-x="471" d="M132 592 Q132 613 140 632 Q148 651 161.5 665 Q175 679 193.5 687 Q212 695 232 695 Q253 695 272 687 Q291 679 305 665 Q319 651 327 632 Q335 613 335 592 Q335 572 327 553.5 Q319 535 305 521.5 Q291 508 272 500 Q253 492 232 492 Q212 492 193.5 500 Q175 508 161.5 521.5 Q148 535 140 553.5 Q132 572 132 592 Z " />
<glyph glyph-name="&amp;#x2219;" unicode="&#x2219;" horiz-adv-x="471" d="M132 592 Q132 613 140 632 Q148 651 161.5 665 Q175 679 193.5 687 Q212 695 232 695 Q253 695 272 687 Q291 679 305 665 Q319 651 327 632 Q335 613 335 592 Q335 572 327 553.5 Q319 535 305 521.5 Q291 508 272 500 Q253 492 232 492 Q212 492 193.5 500 Q175 508 161.5 521.5 Q148 535 140 553.5 Q132 572 132 592 Z " />
<glyph glyph-name="parenleft" unicode="&#x28;" horiz-adv-x="497" d="M189 450 Q189 371 197 287 Q205 203 221.5 119.5 Q238 36 262.5 -44.5 Q287 -125 320 -197 Q328 -214 322.5 -224 Q317 -234 308 -239 L265 -264 Q223 -176 192.5 -85 Q162 6 143 95.5 Q124 185 115 271.5 Q106 358 106 438 Q106 524 111 606.5 Q116 689 131 772 Q146 855 172 940.5 Q198 1026 240 1118 Q282 1210 342 1310.5 Q402 1411 484 1525 L523 1500 Q530 1495 532.5 1485 Q535 1475 524 1458 Q441 1339 378.5 1225 Q316 1111 274 991 Q232 871 210.5 738.5 Q189 606 189 450 Z " />
<glyph glyph-name="parenright" unicode="&#x29;" horiz-adv-x="497" d="M316 811 Q316 890 307.5 974 Q299 1058 282 1141.5 Q265 1225 240.5 1305.5 Q216 1386 183 1458 Q176 1475 181 1485 Q186 1495 195 1500 L240 1525 Q282 1436 312 1345.5 Q342 1255 361 1166 Q380 1077 389 990.5 Q398 904 398 823 Q398 737 393 654.5 Q388 572 373.5 489 Q359 406 332.5 320.5 Q306 235 264 143 Q222 51 162 -49.5 Q102 -150 20 -264 L-18 -239 Q-26 -234 -28 -224 Q-30 -214 -19 -197 Q63 -78 126 41 Q189 160 231 283.5 Q273 407 294.5 537.5 Q316 668 316 811 Z " />
<glyph glyph-name="bracketleft" unicode="&#x5b;" horiz-adv-x="559" d="M599 1481 Q597 1469 588.5 1461.5 Q580 1454 567 1454 L379 1454 L175 -200 L364 -200 Q377 -200 384 -208 Q391 -216 389 -228 L384 -263 L90 -263 L308 1516 L602 1516 L599 1481 Z " />
<glyph glyph-name="bracketright" unicode="&#x5d;" horiz-adv-x="562" d="M259 -263 L-36 -263 L-32 -228 Q-30 -216 -21.5 -208 Q-13 -200 1 -200 L189 -200 L391 1454 L204 1454 Q190 1454 183 1461.5 Q176 1469 178 1481 L182 1516 L478 1516 L259 -263 Z " />
<glyph glyph-name="braceleft" unicode="&#x7b;" horiz-adv-x="554" d="M594 1516 L590 1476 Q588 1465 579 1459.5 Q570 1454 562 1454 L533 1454 Q490 1454 453 1436.5 Q416 1419 388 1385 Q360 1351 343.5 1300.5 Q327 1250 326 1185 Q324 1144 325.5 1102 Q327 1060 329 1018.5 Q331 977 333 936.5 Q335 896 334 859 Q333 807 318.5 766.5 Q304 726 280.5 697.5 Q257 669 228.5 651 Q200 633 170 626 Q194 620 215 606.5 Q236 593 251.5 572.5 Q267 552 276.5 525.5 Q286 499 286 467 Q286 406 269 347 Q252 288 231.5 228.5 Q211 169 194 107.5 Q177 46 177 -19 Q177 -60 188 -93 Q199 -126 218.5 -150 Q238 -174 266 -187 Q294 -200 329 -200 L360 -200 Q368 -200 375.5 -206 Q383 -212 381 -223 L376 -263 L325 -263 Q269 -263 226.5 -244.5 Q184 -226 155 -193 Q126 -160 111 -115.5 Q96 -71 96 -19 Q96 49 113.5 110.5 Q131 172 152 230.5 Q173 289 190.5 347 Q208 405 208 467 Q208 524 174 560.5 Q140 597 83 597 L90 656 Q164 656 210 714 Q256 772 256 891 Q256 951 249 1020.5 Q242 1090 242 1150 Q242 1235 263.5 1302.5 Q285 1370 324 1417.5 Q363 1465 418.5 1490.5 Q474 1516 543 1516 L594 1516 Z " />
<glyph glyph-name="braceright" unicode="&#x7d;" horiz-adv-x="555" d="M237 1516 Q292 1516 334.5 1497.5 Q377 1479 406 1446 Q435 1413 450 1368.5 Q465 1324 465 1272 Q465 1204 448 1142.5 Q431 1081 410 1022.5 Q389 964 372 906 Q355 848 355 786 Q355 729 388 692.5 Q421 656 480 656 L472 597 Q399 597 352.5 539 Q306 481 306 362 Q306 333 308 300 Q310 267 312.5 233 Q315 199 317 166 Q319 133 319 103 Q319 18 297.5 -49.5 Q276 -117 237 -164.5 Q198 -212 142.5 -237.5 Q87 -263 18 -263 L-33 -263 L-27 -223 Q-26 -212 -17.5 -206 Q-9 -200 -1 -200 L29 -200 Q71 -200 108.5 -182.5 Q146 -165 174 -131 Q202 -97 218.5 -47 Q235 3 236 68 Q237 109 236 151 Q235 193 233 234.5 Q231 276 229.5 316 Q228 356 229 393 Q230 445 244.5 486 Q259 527 282 556 Q305 585 333.5 602.5 Q362 620 392 627 Q344 639 309.5 680 Q275 721 275 786 Q275 847 292 906 Q309 965 329.5 1024.5 Q350 1084 367 1145.5 Q384 1207 384 1272 Q384 1354 343 1404 Q302 1454 232 1454 L203 1454 Q194 1454 187 1459.5 Q180 1465 182 1476 L186 1516 L237 1516 Z " />
<glyph glyph-name="asterisk" unicode="&#x2a;" horiz-adv-x="787" d="M545 1215 Q529 1207 516 1201.5 Q503 1196 485 1194 Q503 1192 515 1188 Q527 1184 540 1175 L701 1065 L671 1022 L512 1132 Q498 1140 489.5 1147.5 Q481 1155 472 1170 Q476 1153 477 1141 Q478 1129 476 1112 L450 898 L400 898 L426 1112 Q428 1129 432.5 1142 Q437 1155 447 1172 Q433 1157 422.5 1148.5 Q412 1140 397 1132 L211 1022 L192 1065 L377 1175 Q393 1184 406 1188 Q419 1192 438 1194 L438 1195 Q419 1198 407.5 1202 Q396 1206 382 1215 L223 1325 L253 1369 L412 1259 Q426 1250 434 1240 Q442 1230 453 1213 Q448 1233 446 1247 Q444 1261 446 1278 L473 1493 L523 1493 L496 1279 Q494 1261 489.5 1247.5 Q485 1234 475 1215 Q488 1232 499.5 1241 Q511 1250 527 1259 L713 1369 L731 1325 L545 1215 Z " />
<glyph glyph-name="dagger" unicode="&#x2020;" horiz-adv-x="1160" d="M660 958 Q697 959 737 962.5 Q777 966 816.5 969 Q856 972 894.5 974.5 Q933 977 968 977 Q991 977 1000.5 964 Q1010 951 1007 935 L1004 903 L654 903 L591 395 L513 -350 Q490 -362 462 -362 Q433 -362 415 -350 L518 395 L581 903 L230 903 L234 935 Q236 951 249 964 Q262 977 285 977 Q355 976 433.5 968.5 Q512 961 587 958 L633 1432 Q644 1437 656.5 1440.5 Q669 1444 683 1444 Q697 1444 709 1440.5 Q721 1437 731 1432 L660 958 Z " />
<glyph glyph-name="daggerdbl" unicode="&#x2021;" horiz-adv-x="1160" d="M666 958 Q741 961 822 968.5 Q903 976 973 977 Q996 977 1005.5 964 Q1015 951 1013 935 L1010 903 L659 903 L616 549 L569 178 L920 178 L917 147 Q914 131 901.5 117.5 Q889 104 866 104 Q796 106 717 113.5 Q638 121 563 123 L518 -350 Q507 -356 494 -359 Q481 -362 468 -362 Q439 -362 420 -350 L491 123 Q453 122 413.5 119 Q374 116 334.5 113 Q295 110 256.5 107.5 Q218 105 182 104 Q159 104 149.5 117.5 Q140 131 142 147 L147 178 L498 178 L543 549 L586 903 L235 903 L240 935 Q242 951 254.5 964 Q267 977 290 977 Q360 976 438.5 968.5 Q517 961 592 958 L639 1432 Q650 1437 662.5 1440.5 Q675 1444 689 1444 Q703 1444 715 1440.5 Q727 1437 736 1432 L666 958 Z " />
<glyph glyph-name="section" unicode="&#xa7;" horiz-adv-x="904" d="M711 626 Q711 666 696 697.5 Q681 729 656 754.5 Q631 780 597.5 801 Q564 822 527 841 Q490 860 452 879 Q414 898 380 920 Q284 877 245.5 825.5 Q207 774 207 710 Q207 653 242.5 613 Q278 573 332 541 Q386 509 449 479 Q512 449 567 413 Q645 451 678 504 Q711 557 711 626 Z M84 23 Q90 31 96 34.5 Q102 38 113 38 Q126 38 141.5 22 Q157 6 182.5 -12.5 Q208 -31 248.5 -47 Q289 -63 351 -63 Q413 -63 462 -43.5 Q511 -24 545 9.5 Q579 43 597 87.5 Q615 132 615 182 Q615 243 578.5 284.5 Q542 326 487 358 Q432 390 368.5 419 Q305 448 250 483.5 Q195 519 158.5 567.5 Q122 616 122 687 Q122 772 172 841 Q222 910 335 951 Q293 984 267.5 1027 Q242 1070 242 1132 Q242 1191 266.5 1245 Q291 1299 336 1340 Q381 1381 443.5 1405.5 Q506 1430 582 1430 Q665 1430 727 1404 Q789 1378 837 1325 L814 1292 Q805 1279 791 1279 Q780 1279 765.5 1291.5 Q751 1304 726.5 1319.5 Q702 1335 665.5 1347.5 Q629 1360 574 1360 Q520 1360 474 1342.5 Q428 1325 395 1296 Q362 1267 343.5 1228 Q325 1189 325 1147 Q325 1106 345 1075 Q365 1044 398 1018.5 Q431 993 473.5 971 Q516 949 560 926.5 Q604 904 646.5 878.5 Q689 853 722 820.5 Q755 788 775 747 Q795 706 795 651 Q795 558 748.5 488.5 Q702 419 609 381 Q649 347 673.5 304.5 Q698 262 698 203 Q698 135 673 74.5 Q648 14 601.5 -32 Q555 -78 488 -104.5 Q421 -131 336 -131 Q240 -131 173.5 -98 Q107 -65 59 -11 L84 23 Z " />
<glyph glyph-name="paragraph" unicode="&#xb6;" horiz-adv-x="1301" d="M1333 1415 L1323 1333 L1098 1333 L911 -190 L825 -190 L1012 1333 L684 1333 L497 -190 L412 -190 L521 699 Q430 699 356 721.5 Q282 744 230 785.5 Q178 827 150 886.5 Q122 946 122 1021 Q122 1107 156.5 1179 Q191 1251 255 1303.5 Q319 1356 408.5 1385.5 Q498 1415 609 1415 L1333 1415 Z " />
<glyph glyph-name="asciicircum" unicode="&#x5e;" horiz-adv-x="1160" d="M1004 800 L937 800 Q926 800 917 806.5 Q908 813 903 823 L662 1259 Q643 1293 635 1321 Q630 1306 623.5 1290.5 Q617 1275 608 1259 L368 823 Q363 815 355 807.5 Q347 800 333 800 L263 800 L604 1415 L663 1415 L1004 800 Z " />
<glyph glyph-name="asciitilde" unicode="&#x7e;" horiz-adv-x="1160" d="M780 567 Q817 567 847 580.5 Q877 594 898 618 Q919 642 930.5 675 Q942 708 943 747 L1020 747 Q1020 692 1004 645 Q988 598 958 563 Q928 528 884.5 508 Q841 488 785 488 Q733 488 679.5 507.5 Q626 527 574 551 Q522 575 473 594.5 Q424 614 381 614 Q343 614 313 600.5 Q283 587 262 563 Q241 539 229.5 506 Q218 473 218 434 L140 434 Q140 489 156 536 Q172 583 202 618 Q232 653 276 673 Q320 693 376 693 Q427 693 480.5 673.5 Q534 654 586.5 630 Q639 606 688 586.5 Q737 567 780 567 Z " />
<glyph glyph-name="quotesingle" unicode="&#x27;" horiz-adv-x="369" d="M323 1415 L287 1123 L261 969 Q257 953 249.5 944 Q242 935 225 935 Q211 935 205 944 Q199 953 197 969 L207 1123 L245 1415 L323 1415 Z " />
<glyph glyph-name="quotedbl" unicode="&#x22;" horiz-adv-x="637" d="M323 1415 L287 1123 L261 969 Q257 953 249.5 944 Q242 935 225 935 Q211 935 205 944 Q199 953 197 969 L207 1123 L245 1415 L323 1415 Z M590 1415 L554 1123 L528 969 Q524 953 516.5 944 Q509 935 492 935 Q478 935 472 944 Q466 953 464 969 L474 1123 L512 1415 L590 1415 Z " />
<glyph glyph-name="ampersand" unicode="&#x26;" horiz-adv-x="1287" d="M476 737 Q405 707 348 664 Q291 621 250.5 568.5 Q210 516 188 455 Q166 394 166 328 Q166 262 189 211.5 Q212 161 249 127 Q286 93 333.5 76 Q381 59 431 59 Q493 59 551 75.5 Q609 92 661.5 121.5 Q714 151 761 191 Q808 231 848 278 L483 728 L476 737 Z M1191 0 L1114 0 Q1089 0 1076 6 Q1063 12 1049 29 L895 219 Q848 168 794 124.5 Q740 81 679 50 Q618 19 551 1.5 Q484 -16 412 -16 Q342 -16 280 6.5 Q218 29 171.5 71.5 Q125 114 98 176 Q71 238 71 316 Q71 398 100 470.5 Q129 543 179 603.5 Q229 664 296 710 Q363 756 439 786 Q391 856 367 922.5 Q343 989 343 1059 Q343 1139 370 1207 Q397 1275 446 1325 Q495 1375 563 1403 Q631 1431 713 1431 Q776 1431 827.5 1410 Q879 1389 916 1351.5 Q953 1314 973 1262 Q993 1210 993 1148 L942 1139 Q916 1134 911 1162 Q909 1191 897 1225.5 Q885 1260 860.5 1289.5 Q836 1319 798 1338.5 Q760 1358 706 1358 Q644 1358 593.5 1336 Q543 1314 506.5 1275.5 Q470 1237 450 1184.5 Q430 1132 430 1070 Q430 1001 461 930 Q492 859 552 786 L905 352 Q954 425 986.5 501.5 Q1019 578 1033 649 Q1038 674 1060 674 L1121 674 Q1107 580 1064.5 480.5 Q1022 381 955 290 L1191 0 Z " />
<glyph glyph-name="at" unicode="&#x40;" horiz-adv-x="1528" d="M1031 847 Q1010 853 986.5 856.5 Q963 860 933 860 Q874 860 820 841.5 Q766 823 720 790.5 Q674 758 636.5 714 Q599 670 572.5 620.5 Q546 571 531.5 517.5 Q517 464 517 412 Q517 379 524.5 350.5 Q532 322 547.5 301 Q563 280 586.5 268 Q610 256 642 256 Q675 256 711 268 Q747 280 783 311.5 Q819 343 854 397 Q889 451 919 535 L1031 847 Z M1253 -84 Q1142 -158 1013.5 -198 Q885 -238 733 -238 Q595 -238 479 -192.5 Q363 -147 279.5 -60.5 Q196 26 149 150.5 Q102 275 102 434 Q102 563 132 679.5 Q162 796 215 895.5 Q268 995 341.5 1075.5 Q415 1156 503 1212.5 Q591 1269 689.5 1299.5 Q788 1330 892 1330 Q1004 1330 1104.5 1293.5 Q1205 1257 1281 1185.5 Q1357 1114 1401 1009 Q1445 904 1445 767 Q1445 638 1411 531.5 Q1377 425 1320.5 348.5 Q1264 272 1190.5 230 Q1117 188 1037 188 Q957 188 921.5 234.5 Q886 281 894 368 Q831 275 761 233.5 Q691 192 615 192 Q570 192 537 208 Q504 224 483 252.5 Q462 281 451.5 319 Q441 357 441 401 Q441 460 457.5 522 Q474 584 505 642 Q536 700 581 751 Q626 802 682.5 840 Q739 878 807 900 Q875 922 953 922 Q1002 922 1044 913.5 Q1086 905 1119 888 L992 541 Q959 448 953 391 Q947 334 960 302.5 Q973 271 999 260.5 Q1025 250 1057 250 Q1116 250 1173.5 286.5 Q1231 323 1276 390.5 Q1321 458 1348.5 553.5 Q1376 649 1376 767 Q1376 891 1338 985 Q1300 1079 1234 1141 Q1168 1203 1078 1234.5 Q988 1266 885 1266 Q793 1266 704.5 1238.5 Q616 1211 536.5 1160 Q457 1109 390.5 1036 Q324 963 275.5 871 Q227 779 199.5 670.5 Q172 562 172 440 Q172 292 215 178 Q258 64 334.5 -14 Q411 -92 514.5 -132 Q618 -172 740 -172 Q877 -172 993.5 -138 Q1110 -104 1205 -42 Q1223 -31 1233 -36.5 Q1243 -42 1246 -53 L1253 -84 Z " />
<glyph glyph-name="copyright" unicode="&#xa9;" horiz-adv-x="1677" d="M1143 426 Q1152 427 1159 422 L1194 387 Q1135 328 1055 293 Q975 258 859 258 Q763 258 682.5 290.5 Q602 323 544.5 382 Q487 441 455 524 Q423 607 423 709 Q423 809 456.5 892 Q490 975 550 1034.5 Q610 1094 693 1127 Q776 1160 875 1160 Q927 1160 970.5 1152.5 Q1014 1145 1051 1130.5 Q1088 1116 1120 1095.5 Q1152 1075 1183 1048 L1159 1015 Q1152 1004 1139 1004 Q1129 1004 1112.5 1017 Q1096 1030 1067 1045.5 Q1038 1061 992.5 1074 Q947 1087 879 1087 Q796 1087 728 1060.5 Q660 1034 611.5 985 Q563 936 536.5 866 Q510 796 510 709 Q510 619 536.5 549 Q563 479 610 430.5 Q657 382 721.5 356.5 Q786 331 863 331 Q917 331 957 338.5 Q997 346 1029 358.5 Q1061 371 1088 388.5 Q1115 406 1143 426 Z M130 708 Q130 807 156 899.5 Q182 992 228.5 1072 Q275 1152 341 1218 Q407 1284 487 1331 Q567 1378 659 1404 Q751 1430 851 1430 Q951 1430 1043 1404 Q1135 1378 1215.5 1331 Q1296 1284 1362 1218 Q1428 1152 1474.5 1072 Q1521 992 1547 899.5 Q1573 807 1573 708 Q1573 608 1547 516 Q1521 424 1474.5 344 Q1428 264 1362 198 Q1296 132 1215.5 85 Q1135 38 1043 12 Q951 -14 851 -14 Q752 -14 659.5 12 Q567 38 487 85 Q407 132 341 198 Q275 264 228.5 344 Q182 424 156 516 Q130 608 130 708 Z M189 708 Q189 569 240.5 447.5 Q292 326 382 235.5 Q472 145 592.5 93 Q713 41 851 41 Q989 41 1110.5 93 Q1232 145 1322 235.5 Q1412 326 1464 447.5 Q1516 569 1516 708 Q1516 847 1464 968.5 Q1412 1090 1322 1181 Q1232 1272 1110.5 1324.5 Q989 1377 851 1377 Q713 1377 592.5 1324.5 Q472 1272 382 1181 Q292 1090 240.5 968.5 Q189 847 189 708 Z " />
<glyph glyph-name="uni2117" unicode="&#x2117;" horiz-adv-x="1677" d="M847 683 Q917 683 965.5 698.5 Q1014 714 1044.5 741.5 Q1075 769 1088.5 807.5 Q1102 846 1102 891 Q1102 982 1046 1033.5 Q990 1085 861 1085 L699 1085 L699 683 L847 683 Z M861 1151 Q943 1151 1004 1132 Q1065 1113 1105.5 1079 Q1146 1045 1166 997 Q1186 949 1186 891 Q1186 835 1165.5 785.5 Q1145 736 1104 699 Q1063 662 1000 641 Q937 620 852 620 L699 620 L699 266 L614 266 L614 1151 L861 1151 Z M851 41 Q989 41 1110.5 93 Q1232 145 1322 235.5 Q1412 326 1464 447.5 Q1516 569 1516 708 Q1516 847 1464 968.5 Q1412 1090 1322 1181 Q1232 1272 1110.5 1324.5 Q989 1377 851 1377 Q713 1377 592.5 1324.5 Q472 1272 382 1181 Q292 1090 240.5 968.5 Q189 847 189 708 Q189 569 240.5 447.5 Q292 326 382 235.5 Q472 145 592.5 93 Q713 41 851 41 Z M851 1430 Q951 1430 1043 1404 Q1135 1378 1215.5 1331 Q1296 1284 1362 1218 Q1428 1152 1474.5 1072 Q1521 992 1547 899.5 Q1573 807 1573 708 Q1573 608 1547 516 Q1521 424 1474.5 344 Q1428 264 1362 198 Q1296 132 1215.5 85 Q1135 38 1043 12 Q951 -14 851 -14 Q752 -14 659.5 12 Q567 38 487 85 Q407 132 341 198 Q275 264 228.5 344 Q182 424 156 516 Q130 608 130 708 Q130 807 156 899.5 Q182 992 228.5 1072 Q275 1152 341 1218 Q407 1284 487 1331 Q567 1378 659 1404 Q751 1430 851 1430 Z " />
<glyph glyph-name="registered" unicode="&#xae;" horiz-adv-x="1678" d="M817 721 Q938 721 997.5 769.5 Q1057 818 1057 909 Q1057 1001 1003 1043 Q949 1085 831 1085 L669 1085 L669 721 L817 721 Z M831 1151 Q984 1151 1062.5 1093.5 Q1141 1036 1141 918 Q1141 819 1076.5 754.5 Q1012 690 896 674 Q917 662 935 634 L1220 266 L1140 266 Q1130 266 1122.5 269 Q1115 272 1109 282 L839 633 Q831 644 818.5 650.5 Q806 657 779 657 L669 657 L669 266 L584 266 L584 1151 L831 1151 Z M851 41 Q989 41 1110.5 93 Q1232 145 1322 235.5 Q1412 326 1464 447.5 Q1516 569 1516 708 Q1516 847 1464 968.5 Q1412 1090 1322 1181 Q1232 1272 1110.5 1324.5 Q989 1377 851 1377 Q713 1377 592.5 1324.5 Q472 1272 382 1181 Q292 1090 240.5 968.5 Q189 847 189 708 Q189 569 240.5 447.5 Q292 326 382 235.5 Q472 145 592.5 93 Q713 41 851 41 Z M851 1430 Q951 1430 1043 1404 Q1135 1378 1215.5 1331 Q1296 1284 1362 1218 Q1428 1152 1474.5 1072 Q1521 992 1547 899.5 Q1573 807 1573 708 Q1573 608 1547 516 Q1521 424 1474.5 344 Q1428 264 1362 198 Q1296 132 1215.5 85 Q1135 38 1043 12 Q951 -14 851 -14 Q752 -14 659.5 12 Q567 38 487 85 Q407 132 341 198 Q275 264 228.5 344 Q182 424 156 516 Q130 608 130 708 Q130 807 156 899.5 Q182 992 228.5 1072 Q275 1152 341 1218 Q407 1284 487 1331 Q567 1378 659 1404 Q751 1430 851 1430 Z " />
<glyph glyph-name="trademark" unicode="&#x2122;" horiz-adv-x="1367" d="M182 1415 L615 1415 L608 1357 L426 1357 L362 840 L294 840 L357 1357 L173 1357 L182 1415 Z M1300 1415 L1230 840 L1170 840 L1225 1286 L1234 1328 L989 947 Q980 932 962 932 L952 932 Q944 932 938 935.5 Q932 939 930 947 L775 1325 L774 1286 L718 840 L659 840 L728 1415 L783 1415 Q793 1415 797 1412.5 Q801 1410 806 1402 L959 1036 Q964 1020 967 1008 Q974 1024 982 1036 L1220 1402 Q1226 1410 1230.5 1412.5 Q1235 1415 1245 1415 L1300 1415 Z " />
<glyph glyph-name="uni2120" unicode="&#x2120;" horiz-adv-x="1350" d="M201 944 Q208 954 218 954 Q224 954 232.5 944.5 Q241 935 254.5 923.5 Q268 912 289.5 902.5 Q311 893 343 893 Q373 893 397.5 903.5 Q422 914 438.5 931.5 Q455 949 464 972.5 Q473 996 473 1022 Q473 1053 456 1070 Q439 1087 414 1099 Q389 1111 359.5 1120.5 Q330 1130 305 1145 Q280 1160 263 1185 Q246 1210 246 1252 Q246 1286 258.5 1317.5 Q271 1349 295 1373 Q319 1397 352.5 1411.5 Q386 1426 428 1426 Q515 1426 563 1368 L547 1338 Q540 1328 530 1328 Q524 1328 516.5 1335 Q509 1342 497 1350.5 Q485 1359 467 1366 Q449 1373 422 1373 Q369 1373 338 1341.5 Q307 1310 307 1266 Q307 1237 324 1220 Q341 1203 366 1191 Q391 1179 420.5 1168.5 Q450 1158 475 1142.5 Q500 1127 517 1102.5 Q534 1078 534 1038 Q534 997 520 961 Q506 925 480 898 Q454 871 417.5 855.5 Q381 840 335 840 Q284 840 245 860 Q206 880 181 915 L201 944 Z M1284 1415 L1214 840 L1155 840 L1209 1286 L1218 1326 L973 948 Q964 932 947 932 L936 932 Q920 932 914 948 L759 1325 L758 1286 L703 840 L642 840 L713 1415 L768 1415 Q778 1415 782 1412.5 Q786 1410 791 1403 L943 1036 Q945 1028 947 1021.5 Q949 1015 950 1007 Q954 1015 958 1022 Q962 1029 967 1036 L1205 1403 Q1210 1410 1215 1412.5 Q1220 1415 1229 1415 L1284 1415 Z " />
<glyph glyph-name="degree" unicode="&#xb0;" horiz-adv-x="814" d="M169 1134 Q169 1196 192.5 1250.5 Q216 1305 257 1345.5 Q298 1386 352 1409 Q406 1432 468 1432 Q531 1432 586.5 1409 Q642 1386 682.5 1345.5 Q723 1305 746.5 1250.5 Q770 1196 770 1134 Q770 1072 746.5 1018 Q723 964 682.5 923.5 Q642 883 586.5 859.5 Q531 836 468 836 Q406 836 352 859.5 Q298 883 257 923.5 Q216 964 192.5 1018 Q169 1072 169 1134 Z M237 1134 Q237 1086 255 1044 Q273 1002 304.5 971 Q336 940 378 922 Q420 904 468 904 Q516 904 558 922 Q600 940 631 971 Q662 1002 680 1044 Q698 1086 698 1134 Q698 1182 680 1224 Q662 1266 631 1297.5 Q600 1329 558 1347 Q516 1365 468 1365 Q420 1365 378 1347 Q336 1329 304.5 1297.5 Q273 1266 255 1224 Q237 1182 237 1134 Z " />
<glyph glyph-name="currency" unicode="&#xa4;" horiz-adv-x="1160" d="M311 671 Q311 615 332.5 566 Q354 517 390.5 480.5 Q427 444 476 422.5 Q525 401 581 401 Q638 401 687.5 422.5 Q737 444 774 480.5 Q811 517 832.5 566 Q854 615 854 671 Q854 727 832.5 776.5 Q811 826 774 863 Q737 900 687.5 921.5 Q638 943 581 943 Q525 943 476 921.5 Q427 900 390.5 863 Q354 826 332.5 776.5 Q311 727 311 671 Z M953 251 L799 405 Q754 369 699 348.5 Q644 328 581 328 Q519 328 465 348 Q411 368 366 404 L211 250 L162 300 L316 454 Q280 499 259.5 554 Q239 609 239 671 Q239 733 259 787.5 Q279 842 315 887 L160 1041 L210 1091 L363 937 Q408 974 463 994.5 Q518 1015 581 1015 Q643 1015 698 994.5 Q753 974 798 939 L952 1092 L1001 1042 L848 889 Q884 844 904.5 789 Q925 734 925 671 Q925 609 905 554.5 Q885 500 849 455 L1002 301 L953 251 Z " />
<glyph glyph-name="Euro" unicode="&#x20ac;" horiz-adv-x="1160" d="M52 862 L210 862 Q240 995 296.5 1100 Q353 1205 432 1278.5 Q511 1352 610 1391 Q709 1430 823 1430 Q887 1430 940 1418.5 Q993 1407 1036.5 1385 Q1080 1363 1116.5 1330.5 Q1153 1298 1185 1256 L1150 1222 Q1145 1216 1140.5 1213 Q1136 1210 1128 1210 Q1120 1210 1110 1220.5 Q1100 1231 1085 1246.5 Q1070 1262 1048 1280 Q1026 1298 994 1313.5 Q962 1329 918.5 1339.5 Q875 1350 817 1350 Q722 1350 640 1318 Q558 1286 492 1223.5 Q426 1161 378 1070 Q330 979 303 862 L916 862 L913 833 Q911 822 903 813.5 Q895 805 878 805 L292 805 Q285 763 281 719 Q277 675 275 627 L796 627 L793 598 Q791 586 782 578 Q773 570 758 570 L274 570 Q274 448 300 354 Q326 260 374.5 196 Q423 132 493 98.5 Q563 65 652 65 Q714 65 763.5 77 Q813 89 851.5 107.5 Q890 126 919 147.5 Q948 169 968.5 187.5 Q989 206 1003 218 Q1017 230 1026 230 Q1034 230 1042 221 L1074 188 Q1033 142 986 104.5 Q939 67 885 40.5 Q831 14 769 -0.5 Q707 -15 637 -15 Q527 -15 441.5 25.5 Q356 66 297.5 141.5 Q239 217 209 325 Q179 433 179 567 L179 570 L17 570 L23 627 L180 627 Q182 674 186 718.5 Q190 763 198 805 L46 805 L52 862 Z " />
<glyph glyph-name="dollar" unicode="&#x24;" horiz-adv-x="1160" d="M682 1351 Q599 1347 535 1320 Q471 1293 428 1251 Q385 1209 363 1155 Q341 1101 341 1043 Q341 989 360.5 950.5 Q380 912 414 883.5 Q448 855 492 834 Q536 813 586 795 L682 1351 Z M522 63 Q611 68 681.5 99 Q752 130 801 179.5 Q850 229 876 293.5 Q902 358 902 430 Q902 488 879.5 528 Q857 568 819.5 597 Q782 626 732.5 646.5 Q683 667 629 685 L522 63 Z M758 1429 Q858 1421 929 1384.5 Q1000 1348 1055 1283 L1030 1250 Q1018 1234 1003 1234 Q991 1234 973.5 1250.5 Q956 1267 927 1288 Q898 1309 853.5 1327.5 Q809 1346 744 1351 L645 775 Q709 753 771 729 Q833 705 882.5 669.5 Q932 634 962.5 582 Q993 530 993 452 Q993 360 959 277.5 Q925 195 862 131.5 Q799 68 709.5 29 Q620 -10 509 -15 L472 -228 Q470 -240 461 -249 Q452 -258 439 -258 L404 -258 L446 -15 Q318 -9 229.5 40 Q141 89 79 169 L110 207 Q124 221 140 221 Q149 221 160.5 210 Q172 199 189 182.5 Q206 166 229.5 146 Q253 126 285.5 108.5 Q318 91 360.5 78.5 Q403 66 459 63 L570 704 Q510 724 453 748 Q396 772 351.5 808 Q307 844 280 895.5 Q253 947 253 1023 Q253 1101 283.5 1173.5 Q314 1246 371 1302 Q428 1358 510 1392.5 Q592 1427 695 1430 L724 1596 Q726 1610 735 1618.5 Q744 1627 757 1627 L792 1627 L758 1429 Z " />
<glyph glyph-name="cent" unicode="&#xa2;" horiz-adv-x="1160" d="M684 938 Q579 935 496.5 897.5 Q414 860 357 793.5 Q300 727 269.5 633.5 Q239 540 239 425 Q239 344 259.5 279.5 Q280 215 318 168.5 Q356 122 411 94.5 Q466 67 535 61 L684 938 Z M759 1008 Q845 1000 910 970.5 Q975 941 1021 896 L994 864 Q989 859 984 856 Q979 853 971 853 Q962 853 947 864.5 Q932 876 906 890 Q880 904 841.5 917.5 Q803 931 747 936 L596 59 Q671 61 725 78 Q779 95 815.5 114.5 Q852 134 873 150 Q894 166 905 166 Q916 166 922 157 L943 127 Q917 99 880 74.5 Q843 50 796.5 31.5 Q750 13 696 1.5 Q642 -10 584 -12 L548 -223 Q546 -236 537.5 -244.5 Q529 -253 516 -253 L481 -253 L522 -12 Q436 -6 367 26 Q298 58 249 113.5 Q200 169 174 246.5 Q148 324 148 420 Q148 549 186 656.5 Q224 764 295 842 Q366 920 467.5 964 Q569 1008 697 1010 L732 1217 Q735 1229 743.5 1238.5 Q752 1248 765 1248 L800 1248 L759 1008 Z " />
<glyph glyph-name="sterling" unicode="&#xa3;" horiz-adv-x="1160" d="M851 661 Q849 649 840 641 Q831 633 816 633 L342 633 L303 311 Q297 267 286 232 Q275 197 258 168.5 Q241 140 217.5 116.5 Q194 93 163 73 Q184 77 205 79 Q226 81 248 81 L1039 81 L1035 42 Q1033 27 1020 13.5 Q1007 0 988 0 L17 0 L24 64 Q61 77 91 94.5 Q121 112 144.5 138 Q168 164 183 200.5 Q198 237 205 290 L247 633 L71 633 L76 670 Q78 681 86.5 689 Q95 697 110 697 L255 697 L291 994 Q303 1087 340.5 1167 Q378 1247 439 1305.5 Q500 1364 583 1397.5 Q666 1431 768 1431 Q849 1431 907 1412.5 Q965 1394 1006 1362.5 Q1047 1331 1073 1288 Q1099 1245 1114 1197 L1074 1175 Q1043 1161 1026 1187 Q1010 1219 991 1249 Q972 1279 942 1302 Q912 1325 868 1338.5 Q824 1352 759 1352 Q681 1352 616.5 1326 Q552 1300 504 1252.5 Q456 1205 426 1139.5 Q396 1074 386 995 L350 697 L854 697 L851 661 Z " />
<glyph glyph-name="yen" unicode="&#xa5;" horiz-adv-x="1160" d="M643 616 L990 616 L984 559 L617 559 L602 441 L969 441 L962 385 L595 385 L548 0 L456 0 L503 385 L136 385 L143 441 L510 441 L524 559 L157 559 L164 616 L511 616 L187 1415 L265 1415 Q292 1415 298 1390 L565 722 Q571 702 575.5 685 Q580 668 582 651 Q589 668 597 685 Q605 702 616 722 L1046 1390 Q1053 1401 1062.5 1408 Q1072 1415 1086 1415 L1164 1415 L643 616 Z " />
<glyph glyph-name="uni2105" unicode="&#x2105;" horiz-adv-x="1495" d="M1242 1397 Q1249 1405 1257 1410 Q1265 1415 1279 1415 L1344 1415 L236 17 Q224 0 201 0 L134 0 L1242 1397 Z M616 847 Q621 847 626 842 L651 810 Q604 761 543.5 733 Q483 705 402 705 Q339 705 288.5 727.5 Q238 750 203 791 Q168 832 149 889 Q130 946 130 1015 Q130 1108 158.5 1185.5 Q187 1263 236.5 1318.5 Q286 1374 353.5 1405 Q421 1436 500 1436 Q569 1436 620 1412.5 Q671 1389 706 1347 L678 1313 Q673 1304 661 1304 Q654 1304 643 1314.5 Q632 1325 613 1337.5 Q594 1350 565 1360.5 Q536 1371 492 1371 Q432 1371 379.5 1346.5 Q327 1322 288.5 1277 Q250 1232 228 1167.5 Q206 1103 206 1022 Q206 963 221.5 916 Q237 869 264.5 836.5 Q292 804 330 786.5 Q368 769 414 769 Q445 769 471 773.5 Q497 778 519.5 787 Q542 796 562 809.5 Q582 823 602 841 Q610 847 616 847 Z M1396 401 Q1396 309 1368 232 Q1340 155 1290.5 100 Q1241 45 1173 14.5 Q1105 -16 1025 -16 Q961 -16 909.5 7 Q858 30 821.5 71 Q785 112 765.5 169 Q746 226 746 295 Q746 388 774 465 Q802 542 851.5 597.5 Q901 653 968.5 683.5 Q1036 714 1115 714 Q1180 714 1232 691 Q1284 668 1320.5 626.5 Q1357 585 1376.5 527.5 Q1396 470 1396 401 Z M1319 399 Q1319 456 1304.5 502.5 Q1290 549 1262.5 581.5 Q1235 614 1195.5 631.5 Q1156 649 1107 649 Q1045 649 992.5 624.5 Q940 600 902 554.5 Q864 509 842.5 444 Q821 379 821 298 Q821 181 878 114.5 Q935 48 1034 48 Q1097 48 1149 72.5 Q1201 97 1239 142.5 Q1277 188 1298 253 Q1319 318 1319 399 Z " />
<glyph glyph-name="uni2116" unicode="&#x2116;" horiz-adv-x="2102" d="M1796 1368 Q1744 1368 1700 1347.5 Q1656 1327 1623.5 1288.5 Q1591 1250 1573 1195 Q1555 1140 1555 1071 Q1555 972 1603 915.5 Q1651 859 1734 859 Q1787 859 1831 879.5 Q1875 900 1907 938.5 Q1939 977 1957 1032 Q1975 1087 1975 1156 Q1975 1254 1928 1311 Q1881 1368 1796 1368 Z M1726 795 Q1670 795 1625 815 Q1580 835 1548.5 871 Q1517 907 1500 957 Q1483 1007 1483 1067 Q1483 1147 1507.5 1213.5 Q1532 1280 1575 1328 Q1618 1376 1676.5 1403 Q1735 1430 1804 1430 Q1861 1430 1906.5 1410 Q1952 1390 1984 1354 Q2016 1318 2033 1268 Q2050 1218 2050 1158 Q2050 1077 2025.5 1010.5 Q2001 944 1957.5 896 Q1914 848 1855 821.5 Q1796 795 1726 795 Z M1235 1415 L1322 1415 L1148 0 L1100 0 Q1088 0 1080.5 4.5 Q1073 9 1066 19 L378 1250 Q377 1236 376.5 1222.5 Q376 1209 374 1197 L226 0 L140 0 L313 1415 L362 1415 Q376 1415 383 1411 Q390 1407 397 1396 L1085 167 Q1085 181 1086 195 Q1087 209 1089 221 L1235 1415 Z M1426 630 L1986 630 L1978 563 L1418 563 L1426 630 Z " />
<glyph glyph-name="numbersign" unicode="&#x23;" horiz-adv-x="1160" d="M804 903 L505 903 L373 512 L673 512 L804 903 Z M1125 971 L1114 935 Q1107 903 1068 903 L882 903 L750 512 L977 512 Q993 512 1000 503 Q1007 494 1002 472 L994 443 L731 443 L584 0 L544 0 Q528 0 520 11.5 Q512 23 520 43 L654 443 L354 443 L219 39 Q213 18 199.5 9 Q186 0 169 0 L128 0 L276 443 L93 443 Q59 443 69 483 L76 512 L295 512 L427 903 L173 903 L182 940 Q189 971 230 971 L445 971 L582 1377 Q594 1415 631 1415 L672 1415 L522 971 L822 971 L971 1415 L1012 1415 Q1028 1415 1036 1404 Q1044 1393 1037 1374 L900 971 L1125 971 Z " />
<glyph glyph-name="zero" unicode="0" horiz-adv-x="1160" d="M1072 862 Q1072 639 1025.5 474 Q979 309 900.5 200.5 Q822 92 719 38.5 Q616 -15 504 -15 Q420 -15 348 20.5 Q276 56 224 127 Q172 198 142.5 304.5 Q113 411 113 553 Q113 775 159.5 940 Q206 1105 284.5 1214 Q363 1323 465.5 1377 Q568 1431 681 1431 Q765 1431 836.5 1395.5 Q908 1360 960.5 1289 Q1013 1218 1042.5 1111 Q1072 1004 1072 862 Z M976 867 Q976 993 952.5 1084.5 Q929 1176 887.5 1235.5 Q846 1295 790.5 1324 Q735 1353 671 1353 Q582 1353 498.5 1307 Q415 1261 350.5 1163 Q286 1065 247 913 Q208 761 208 549 Q208 423 231.5 331 Q255 239 296.5 179.5 Q338 120 393.5 91.5 Q449 63 513 63 Q602 63 685.5 109 Q769 155 833.5 252.5 Q898 350 937 502 Q976 654 976 867 Z " />
<glyph glyph-name="one" unicode="1" horiz-adv-x="1160" d="M906 71 L897 0 L223 0 L233 71 L531 71 L672 1226 Q674 1243 677 1260.5 Q680 1278 684 1296 L366 1018 Q350 1007 337 1010 Q324 1013 318 1021 L295 1060 L716 1421 L789 1421 L624 71 L906 71 Z " />
<glyph glyph-name="two" unicode="2" horiz-adv-x="1160" d="M901 87 Q917 87 925 78 Q933 69 931 54 L924 0 L81 0 L86 33 Q87 44 93.5 55 Q100 66 109 74 L612 564 Q681 632 739.5 693.5 Q798 755 840.5 818 Q883 881 907 948 Q931 1015 931 1094 Q931 1160 911 1208.5 Q891 1257 856.5 1289 Q822 1321 776.5 1336.5 Q731 1352 680 1352 Q619 1352 565 1331.5 Q511 1311 467 1274.5 Q423 1238 391 1187 Q359 1136 341 1075 Q333 1054 320.5 1047 Q308 1040 289 1042 L242 1049 Q265 1139 308 1210 Q351 1281 410 1330 Q469 1379 541 1405 Q613 1431 694 1431 Q763 1431 823.5 1410 Q884 1389 929 1348 Q974 1307 1000 1245.5 Q1026 1184 1026 1103 Q1026 1011 998 935 Q970 859 922 791 Q874 723 811 658.5 Q748 594 678 526 L212 71 Q244 79 278.5 83 Q313 87 347 87 L901 87 Z " />
<glyph glyph-name="three" unicode="3" horiz-adv-x="1160" d="M243 1049 Q266 1139 309 1210 Q352 1281 411 1330 Q470 1379 542 1405 Q614 1431 694 1431 Q763 1431 822.5 1411 Q882 1391 926 1352 Q970 1313 995 1255 Q1020 1197 1020 1121 Q1020 1040 996.5 976.5 Q973 913 932 865 Q891 817 835.5 785 Q780 753 716 737 Q779 724 826.5 697 Q874 670 905.5 631 Q937 592 953 542.5 Q969 493 969 435 Q969 338 931 255.5 Q893 173 828.5 112.5 Q764 52 678.5 18 Q593 -16 497 -16 Q386 -16 315.5 16.5 Q245 49 203.5 101 Q162 153 143 217.5 Q124 282 115 346 L153 361 Q170 368 186.5 365 Q203 362 208 342 Q212 330 217 305 Q222 280 232.5 249 Q243 218 262 185 Q281 152 313 125 Q345 98 391.5 80.5 Q438 63 505 63 Q593 63 662 96.5 Q731 130 779 183.5 Q827 237 852 303 Q877 369 877 434 Q877 489 859 536 Q841 583 800.5 618 Q760 653 695 673 Q630 693 537 693 L545 760 Q636 762 707 787 Q778 812 827 857 Q876 902 902 964.5 Q928 1027 928 1105 Q928 1168 908.5 1214.5 Q889 1261 855.5 1291.5 Q822 1322 777 1337 Q732 1352 681 1352 Q620 1352 566 1331.5 Q512 1311 467.5 1274.5 Q423 1238 390.5 1187 Q358 1136 340 1075 Q331 1054 320 1047 Q309 1040 289 1042 L243 1049 Z " />
<glyph glyph-name="four" unicode="4" horiz-adv-x="1160" d="M725 481 L816 1227 Q819 1259 828 1293 L169 481 L725 481 Z M1042 481 L1036 431 Q1034 420 1027.5 413.5 Q1021 407 1008 407 L797 407 L747 0 L666 0 L716 407 L102 407 Q88 407 81 413.5 Q74 420 73 431 L69 476 L839 1416 L921 1416 L806 481 L1042 481 Z " />
<glyph glyph-name="five" unicode="5" horiz-adv-x="1160" d="M1030 1415 L1025 1375 Q1023 1355 1008.5 1342.5 Q994 1330 965 1330 L499 1330 L363 855 Q487 886 587 886 Q678 886 747 858.5 Q816 831 861.5 782.5 Q907 734 930 667.5 Q953 601 953 523 Q953 398 910.5 298 Q868 198 796.5 128 Q725 58 632 21 Q539 -16 438 -16 Q384 -16 336 -5.5 Q288 5 247 22.5 Q206 40 172.5 62.5 Q139 85 114 109 L146 147 Q158 162 176 162 Q188 162 208.5 147 Q229 132 262 113.5 Q295 95 341.5 80 Q388 65 452 65 Q536 65 610 96 Q684 127 739 185.5 Q794 244 826 327 Q858 410 858 515 Q858 579 840 633 Q822 687 785.5 726 Q749 765 692.5 787 Q636 809 560 809 Q508 809 448 799.5 Q388 790 320 770 L264 789 L442 1415 L1030 1415 Z " />
<glyph glyph-name="seven" unicode="7" horiz-adv-x="1160" d="M1121 1415 L1116 1373 Q1114 1356 1108.5 1344 Q1103 1332 1098 1324 L346 35 Q337 20 322.5 10 Q308 0 287 0 L224 0 L979 1283 Q988 1297 996.5 1308.5 Q1005 1320 1015 1330 L269 1330 Q258 1330 251.5 1337.5 Q245 1345 246 1356 L253 1415 L1121 1415 Z " />
<glyph glyph-name="nine" unicode="9" horiz-adv-x="1160" d="M569 675 Q653 675 721.5 708 Q790 741 838 794 Q886 847 912.5 915 Q939 983 939 1053 Q939 1119 920 1174.5 Q901 1230 865.5 1269.5 Q830 1309 781 1331.5 Q732 1354 672 1354 Q593 1354 526 1325.5 Q459 1297 409.5 1245 Q360 1193 332 1120.5 Q304 1048 304 960 Q304 894 322.5 841.5 Q341 789 375.5 752 Q410 715 459 695 Q508 675 569 675 Z M729 585 Q761 627 789 663.5 Q817 700 840 735 Q779 672 699 637.5 Q619 603 534 603 Q462 603 402.5 628 Q343 653 300 698.5 Q257 744 233.5 808.5 Q210 873 210 951 Q210 1054 247 1141.5 Q284 1229 348 1293.5 Q412 1358 498 1394.5 Q584 1431 682 1431 Q761 1431 824.5 1403 Q888 1375 933 1325 Q978 1275 1002.5 1205 Q1027 1135 1027 1050 Q1027 982 1013 924 Q999 866 971.5 810 Q944 754 904 695.5 Q864 637 812 568 L405 22 Q397 11 383.5 5.5 Q370 0 355 0 L271 0 L729 585 Z " />
<glyph glyph-name="uni2080" unicode="&#x2080;" horiz-adv-x="668" d="M541 202 Q541 91 515.5 9 Q490 -73 447 -127 Q404 -181 348 -207.5 Q292 -234 231 -234 Q183 -234 142.5 -216 Q102 -198 72.5 -161.5 Q43 -125 26.5 -70.5 Q10 -16 10 58 Q10 169 35 251.5 Q60 334 103 388.5 Q146 443 202 469.5 Q258 496 321 496 Q368 496 408 478 Q448 460 477.5 423 Q507 386 524 331 Q541 276 541 202 Z M470 209 Q470 269 458 312.5 Q446 356 425 384 Q404 412 375 425 Q346 438 312 438 Q268 438 226 418 Q184 398 151.5 352.5 Q119 307 99.5 234 Q80 161 80 55 Q80 -6 92 -49.5 Q104 -93 125.5 -121 Q147 -149 176 -162.5 Q205 -176 238 -176 Q284 -176 326 -155 Q368 -134 400 -88 Q432 -42 451 31 Q470 104 470 209 Z " />
<glyph glyph-name="uni2081" unicode="&#x2081;" horiz-adv-x="668" d="M454 -173 L448 -226 L75 -226 L82 -173 L241 -173 L307 365 L316 402 L155 275 Q144 267 135 269.5 Q126 272 121 277 L103 308 L336 491 L393 491 L312 -173 L454 -173 Z " />
<glyph glyph-name="uni2082" unicode="&#x2082;" horiz-adv-x="668" d="M449 -162 Q473 -162 471 -185 L466 -226 L-7 -226 L-5 -202 Q-3 -195 0.5 -187 Q4 -179 12 -172 L278 65 Q312 96 342.5 125.5 Q373 155 395 186 Q417 217 430 249 Q443 281 443 317 Q443 348 433 370.5 Q423 393 405.5 408 Q388 423 364.5 430.5 Q341 438 315 438 Q253 438 209.5 403 Q166 368 145 311 Q138 300 130 295.5 Q122 291 107 293 L71 299 Q96 395 164.5 445.5 Q233 496 326 496 Q366 496 400.5 485 Q435 474 460.5 452 Q486 430 500 398.5 Q514 367 514 325 Q514 280 498.5 242 Q483 204 457.5 170 Q432 136 398.5 104.5 Q365 73 328 40 L94 -172 Q112 -167 132 -164.5 Q152 -162 171 -162 L449 -162 Z " />
<glyph glyph-name="uni2083" unicode="&#x2083;" horiz-adv-x="668" d="M74 299 Q86 347 110.5 383.5 Q135 420 168 445 Q201 470 241 483 Q281 496 326 496 Q366 496 400 485 Q434 474 459 453.5 Q484 433 498 403 Q512 373 512 335 Q512 260 469.5 213 Q427 166 358 146 Q422 131 454.5 93.5 Q487 56 487 -1 Q487 -54 465.5 -96.5 Q444 -139 408 -170 Q372 -201 325 -217.5 Q278 -234 227 -234 Q167 -234 128 -219 Q89 -204 64.5 -178.5 Q40 -153 27.5 -119.5 Q15 -86 8 -50 L40 -37 Q52 -32 63.5 -34 Q75 -36 79 -49 Q81 -57 86 -78 Q91 -99 106.5 -120.5 Q122 -142 151 -159 Q180 -176 231 -176 Q275 -176 309.5 -161 Q344 -146 367.5 -122 Q391 -98 403.5 -68.5 Q416 -39 416 -9 Q416 19 406.5 41.5 Q397 64 375.5 80.5 Q354 97 320 106 Q286 115 238 115 L244 165 Q341 167 391.5 208 Q442 249 442 321 Q442 351 432 372.5 Q422 394 405 408.5 Q388 423 365 430 Q342 437 315 437 Q252 437 208.5 402.5 Q165 368 145 312 Q138 299 131 295 Q124 291 110 293 L74 299 Z " />
<glyph glyph-name="uni2084" unicode="&#x2084;" horiz-adv-x="668" d="M343 25 L384 359 Q386 371 388 385 Q390 399 394 413 L58 25 L343 25 Z M530 25 L527 -14 Q525 -22 520.5 -26 Q516 -30 507 -30 L397 -30 L373 -226 L312 -226 L336 -30 L10 -30 Q-13 -30 -13 -14 L-15 20 L395 488 L460 488 L404 25 L530 25 Z " />
<glyph glyph-name="uni2085" unicode="&#x2085;" horiz-adv-x="668" d="M513 488 L509 458 Q507 444 496.5 434 Q486 424 465 424 L224 424 L160 210 Q239 228 298.5 222.5 Q358 217 397.5 193 Q437 169 457 129.5 Q477 90 477 40 Q477 -23 454 -73.5 Q431 -124 392 -160 Q353 -196 301.5 -215 Q250 -234 194 -234 Q133 -234 85.5 -213.5 Q38 -193 10 -165 L33 -136 Q44 -125 54 -125 Q62 -125 73.5 -133 Q85 -141 102.5 -150 Q120 -159 144.5 -167 Q169 -175 204 -175 Q244 -175 280.5 -161.5 Q317 -148 345 -122 Q373 -96 389 -58 Q405 -20 405 30 Q405 70 388.5 100.5 Q372 131 338 147.5 Q304 164 251.5 165 Q199 166 127 147 L86 160 L183 488 L513 488 Z " />
<glyph glyph-name="uni2086" unicode="&#x2086;" horiz-adv-x="668" d="M239 -180 Q282 -180 318 -165.5 Q354 -151 379.5 -125.5 Q405 -100 419 -65.5 Q433 -31 433 10 Q433 75 395 112.5 Q357 150 291 150 Q246 150 210 134.5 Q174 119 148.5 93.5 Q123 68 109.5 35 Q96 2 96 -33 Q96 -65 106 -91.5 Q116 -118 134.5 -138 Q153 -158 179.5 -169 Q206 -180 239 -180 Z M231 228 Q211 205 191.5 184.5 Q172 164 155 144 Q188 172 229.5 188 Q271 204 316 204 Q356 204 390.5 191.5 Q425 179 450 155.5 Q475 132 489 97.5 Q503 63 503 20 Q503 -35 482 -81.5 Q461 -128 424.5 -162 Q388 -196 338.5 -215 Q289 -234 231 -234 Q184 -234 146 -219.5 Q108 -205 81.5 -178 Q55 -151 41 -113.5 Q27 -76 27 -29 Q27 32 55 90 Q83 148 145 218 L365 472 Q370 479 380 483.5 Q390 488 403 488 L463 488 L231 228 Z " />
<glyph glyph-name="uni2087" unicode="&#x2087;" horiz-adv-x="668" d="M562 488 L556 439 L142 -226 L65 -226 L457 390 Q469 409 481 423 L91 423 Q85 423 79.5 428.5 Q74 434 75 442 L81 488 L562 488 Z " />
<glyph glyph-name="uni2088" unicode="&#x2088;" horiz-adv-x="668" d="M239 -180 Q279 -180 313 -168 Q347 -156 371.5 -134 Q396 -112 410 -80.5 Q424 -49 424 -10 Q424 27 410 51.5 Q396 76 374.5 90.5 Q353 105 326.5 111 Q300 117 275 117 Q245 117 212 109 Q179 101 152 82 Q125 63 107 30.5 Q89 -2 89 -51 Q89 -108 129 -144 Q169 -180 239 -180 Z M151 292 Q151 268 159 246 Q167 224 183 207.5 Q199 191 223.5 181.5 Q248 172 282 172 Q322 172 353 184.5 Q384 197 404 218 Q424 239 434.5 267 Q445 295 445 325 Q445 375 411.5 409 Q378 443 314 443 Q276 443 246 431 Q216 419 195 399 Q174 379 162.5 351 Q151 323 151 292 Z M370 146 Q427 129 460.5 91 Q494 53 494 -10 Q494 -62 474 -103.5 Q454 -145 419 -174 Q384 -203 336.5 -218.5 Q289 -234 233 -234 Q183 -234 143.5 -221.5 Q104 -209 75.5 -186 Q47 -163 32 -130.5 Q17 -98 17 -58 Q17 27 63 78 Q109 129 187 147 Q136 166 110.5 203 Q85 240 85 290 Q85 333 102.5 371 Q120 409 151 436.5 Q182 464 225.5 480 Q269 496 322 496 Q366 496 401 483 Q436 470 460 448 Q484 426 497 396 Q510 366 510 332 Q510 265 474.5 216 Q439 167 370 146 Z " />
<glyph glyph-name="uni2089" unicode="&#x2089;" horiz-adv-x="668" d="M129 261 Q129 199 165.5 163 Q202 127 266 127 Q308 127 342.5 142 Q377 157 401.5 181 Q426 205 439.5 236.5 Q453 268 453 301 Q453 331 443 357 Q433 383 414.5 401.5 Q396 420 370.5 430.5 Q345 441 314 441 Q273 441 239.5 428 Q206 415 181 391.5 Q156 368 142.5 334.5 Q129 301 129 261 Z M327 52 Q346 74 363 93 Q380 112 395 131 Q363 104 323.5 90 Q284 76 242 76 Q202 76 168.5 89 Q135 102 111 125.5 Q87 149 73.5 182 Q60 215 60 256 Q60 305 80 349 Q100 393 135.5 425.5 Q171 458 218.5 477 Q266 496 320 496 Q365 496 401 481.5 Q437 467 462.5 441 Q488 415 502 378.5 Q516 342 516 299 Q516 263 508.5 233 Q501 203 486.5 174 Q472 145 451 115.5 Q430 86 403 53 L188 -211 Q176 -226 152 -226 L89 -226 L327 52 Z " />
<glyph glyph-name="uni208A" unicode="&#x208a;" horiz-adv-x="668" d="M508 89 L298 89 L271 -133 L216 -133 L243 89 L33 89 L39 142 L249 142 L276 362 L331 362 L304 142 L514 142 L508 89 Z " />
<glyph glyph-name="uni208B" unicode="&#x208b;" horiz-adv-x="668" d="M63 142 L487 142 L481 89 L56 89 L63 142 Z " />
<glyph glyph-name="uni208C" unicode="&#x208c;" horiz-adv-x="668" d="M54 62 L478 62 L471 10 L48 10 L54 62 Z M74 225 L497 225 L491 172 L68 172 L74 225 Z " />
<glyph glyph-name="uni208D" unicode="&#x208d;" horiz-adv-x="334" d="M81 44 Q81 -36 98 -121 Q115 -206 151 -278 Q156 -290 152 -297 Q148 -304 141 -308 L108 -327 Q61 -236 40 -142 Q19 -48 19 37 Q19 109 28.5 174.5 Q38 240 61 305.5 Q84 371 122.5 439.5 Q161 508 220 585 L248 567 Q254 564 256.5 557 Q259 550 251 537 Q168 422 124.5 302.5 Q81 183 81 44 Z " />
<glyph glyph-name="uni208E" unicode="&#x208e;" horiz-adv-x="334" d="M135 199 Q135 279 117 364.5 Q99 450 64 522 Q59 536 63 542.5 Q67 549 73 551 L107 570 Q154 479 175 386 Q196 293 196 208 Q196 139 188 75 Q180 11 158 -54.5 Q136 -120 96.5 -190.5 Q57 -261 -5 -342 L-34 -322 Q-39 -318 -41 -311.5 Q-43 -305 -35 -294 Q47 -179 91 -59.5 Q135 60 135 199 Z " />
<glyph glyph-name="fraction" unicode="&#x2044;" horiz-adv-x="280" d="M-255 31 Q-268 13 -281.5 6.5 Q-295 0 -312 0 L-350 0 L557 1380 Q568 1397 582 1406 Q596 1415 615 1415 L655 1415 L-255 31 Z " />
<glyph glyph-name="twothirds" unicode="&#x2154;" horiz-adv-x="1386" d="M313 31 Q300 13 286.5 6.5 Q273 0 256 0 L218 0 L1125 1380 Q1136 1397 1150 1406 Q1164 1415 1183 1415 L1223 1415 L313 31 Z M570 765 Q594 765 592 742 L587 701 L114 701 L116 725 Q118 732 121.5 740 Q125 748 133 755 L399 992 Q433 1023 463.5 1052.5 Q494 1082 516 1113 Q538 1144 551 1176 Q564 1208 564 1244 Q564 1275 554 1297.5 Q544 1320 526.5 1335 Q509 1350 485.5 1357.5 Q462 1365 436 1365 Q374 1365 330.5 1330 Q287 1295 266 1238 Q259 1227 251 1222.5 Q243 1218 228 1220 L192 1226 Q217 1322 285.5 1372.5 Q354 1423 447 1423 Q487 1423 521.5 1412 Q556 1401 581.5 1379 Q607 1357 621 1325.5 Q635 1294 635 1252 Q635 1207 619.5 1169 Q604 1131 578.5 1097 Q553 1063 519.5 1031.5 Q486 1000 449 967 L215 755 Q233 760 253 762.5 Q273 765 292 765 L570 765 Z M830 525 Q842 573 866.5 609.5 Q891 646 924 671 Q957 696 997 709 Q1037 722 1082 722 Q1122 722 1156 711 Q1190 700 1215 679.5 Q1240 659 1254 629 Q1268 599 1268 561 Q1268 486 1225.5 439 Q1183 392 1114 372 Q1178 357 1210.5 319.5 Q1243 282 1243 225 Q1243 172 1221.5 129.5 Q1200 87 1164 56 Q1128 25 1081 8.5 Q1034 -8 983 -8 Q923 -8 884 7 Q845 22 820.5 47.5 Q796 73 783.5 106.5 Q771 140 764 176 L796 189 Q808 194 819.5 192 Q831 190 835 177 Q837 169 842 148 Q847 127 862.5 105.5 Q878 84 907 67 Q936 50 987 50 Q1031 50 1065.5 65 Q1100 80 1123.5 104 Q1147 128 1159.5 157.5 Q1172 187 1172 217 Q1172 245 1162.5 267.5 Q1153 290 1131.5 306.5 Q1110 323 1076 332 Q1042 341 994 341 L1000 391 Q1097 393 1147.5 434 Q1198 475 1198 547 Q1198 577 1188 598.5 Q1178 620 1161 634.5 Q1144 649 1121 656 Q1098 663 1071 663 Q1008 663 964.5 628.5 Q921 594 901 538 Q894 525 887 521 Q880 517 866 519 L830 525 Z " />
<glyph glyph-name="uni2156" unicode="&#x2156;" horiz-adv-x="1372" d="M313 31 Q300 13 286.5 6.5 Q273 0 256 0 L218 0 L1125 1380 Q1136 1397 1150 1406 Q1164 1415 1183 1415 L1223 1415 L313 31 Z M569 765 Q593 765 591 742 L586 701 L113 701 L115 725 Q117 732 120.5 740 Q124 748 132 755 L398 992 Q432 1023 462.5 1052.5 Q493 1082 515 1113 Q537 1144 550 1176 Q563 1208 563 1244 Q563 1275 553 1297.5 Q543 1320 525.5 1335 Q508 1350 484.5 1357.5 Q461 1365 435 1365 Q373 1365 329.5 1330 Q286 1295 265 1238 Q258 1227 250 1222.5 Q242 1218 227 1220 L191 1226 Q216 1322 284.5 1372.5 Q353 1423 446 1423 Q486 1423 520.5 1412 Q555 1401 580.5 1379 Q606 1357 620 1325.5 Q634 1294 634 1252 Q634 1207 618.5 1169 Q603 1131 577.5 1097 Q552 1063 518.5 1031.5 Q485 1000 448 967 L214 755 Q232 760 252 762.5 Q272 765 291 765 L569 765 Z M1259 714 L1255 684 Q1253 670 1242.5 660 Q1232 650 1211 650 L970 650 L906 436 Q985 454 1044.5 448.5 Q1104 443 1143.5 419 Q1183 395 1203 355.5 Q1223 316 1223 266 Q1223 203 1200 152.5 Q1177 102 1138 66 Q1099 30 1047.5 11 Q996 -8 940 -8 Q879 -8 831.5 12.5 Q784 33 756 61 L779 90 Q790 101 800 101 Q808 101 819.5 93 Q831 85 848.5 76 Q866 67 890.5 59 Q915 51 950 51 Q990 51 1026.5 64.5 Q1063 78 1091 104 Q1119 130 1135 168 Q1151 206 1151 256 Q1151 296 1134.5 326.5 Q1118 357 1084 373.5 Q1050 390 997.5 391 Q945 392 873 373 L832 386 L929 714 L1259 714 Z " />
<glyph glyph-name="plus" unicode="&#x2b;" horiz-adv-x="1160" d="M1054 635 L622 635 L566 182 L490 182 L546 635 L116 635 L124 706 L554 706 L610 1157 L686 1157 L630 706 L1063 706 L1054 635 Z " />
<glyph glyph-name="minus" unicode="&#x2212;" horiz-adv-x="1160" d="M176 706 L1004 706 L995 635 L168 635 L176 706 Z " />
<glyph glyph-name="multiply" unicode="&#xd7;" horiz-adv-x="1160" d="M640 670 L966 298 L911 247 L583 620 L161 245 L118 296 L538 670 L214 1039 L272 1091 L595 721 L1008 1089 L1053 1037 L640 670 Z " />
<glyph glyph-name="divide" unicode="&#xf7;" horiz-adv-x="1160" d="M122 706 L1061 706 L1052 635 L114 635 L122 706 Z M538 1014 Q538 1035 546.5 1054 Q555 1073 569 1087.5 Q583 1102 601.5 1110 Q620 1118 641 1118 Q676 1118 699 1093.5 Q722 1069 722 1034 Q722 1013 713.5 994.5 Q705 976 690.5 962.5 Q676 949 657 941.5 Q638 934 618 934 Q582 934 560 957.5 Q538 981 538 1014 Z M450 302 Q450 323 458.5 342 Q467 361 481 375.5 Q495 390 513.5 398 Q532 406 553 406 Q588 406 611 381.5 Q634 357 634 322 Q634 301 625.5 282.5 Q617 264 603 250.5 Q589 237 570 229.5 Q551 222 530 222 Q495 222 472.5 245.5 Q450 269 450 302 Z " />
<glyph glyph-name="equal" unicode="&#x3d;" horiz-adv-x="1160" d="M157 555 L983 555 L975 484 L148 484 L157 555 Z M195 867 L1021 867 L1013 796 L187 796 L195 867 Z " />
<glyph glyph-name="notequal" unicode="&#x2260;" horiz-adv-x="1160" d="M811 1136 L881 1136 L365 212 L296 212 L811 1136 Z " />
<glyph glyph-name="approxequal" unicode="&#x2248;" horiz-adv-x="1160" d="M804 808 Q830 808 855 814 Q880 820 902.5 830.5 Q925 841 943.5 854 Q962 867 975 881 L986 825 Q951 782 899 759 Q847 736 791 736 Q739 736 691 754 Q643 772 596.5 794 Q550 816 504 834 Q458 852 412 852 Q357 852 311 829.5 Q265 807 240 778 L226 832 Q261 877 313 900.5 Q365 924 425 924 Q477 924 525.5 906 Q574 888 620.5 866 Q667 844 712.5 826 Q758 808 804 808 Z M766 493 Q791 493 816.5 499 Q842 505 864.5 515.5 Q887 526 905.5 539 Q924 552 936 566 L948 510 Q913 468 860.5 444.5 Q808 421 752 421 Q701 421 652.5 439 Q604 457 557 479 Q510 501 464 519 Q418 537 372 537 Q345 537 319.5 531 Q294 525 271.5 514.5 Q249 504 231.5 491 Q214 478 202 463 L187 517 Q222 562 274.5 586 Q327 610 387 610 Q439 610 487.5 591.5 Q536 573 582.5 551.5 Q629 530 674.5 511.5 Q720 493 766 493 Z " />
<glyph glyph-name="less" unicode="&#x3c;" horiz-adv-x="1160" d="M983 1077 L975 1012 Q974 991 944 977 L356 697 Q325 682 282 672 Q319 663 350 646 L869 365 Q894 353 892 330 L883 265 L181 651 L184 682 L185 682 L186 692 L983 1077 Z " />
<glyph glyph-name="greater" unicode="&#x3e;" horiz-adv-x="1160" d="M990 660 L989 651 L191 265 L199 330 Q201 341 207.5 349.5 Q214 358 230 365 L818 646 Q851 662 893 671 Q856 680 824 697 L305 977 Q280 991 283 1012 L291 1077 L994 692 L990 660 Z " />
<glyph glyph-name="plusminus" unicode="&#xb1;" horiz-adv-x="1160" d="M59 151 L998 151 L989 80 L51 80 L59 151 Z M1071 745 L1063 674 L630 674 L580 270 L505 270 L555 674 L125 674 L133 745 L563 745 L613 1151 L688 1151 L638 745 L1071 745 Z " />
<glyph glyph-name="lessequal" unicode="&#x2264;" horiz-adv-x="1160" d="M1015 1103 L1008 1041 Q1006 1030 999 1021 Q992 1012 973 1004 L390 733 Q372 726 352 720 Q332 714 311 709 Q352 700 384 684 L900 412 Q917 404 922.5 395.5 Q928 387 926 376 L918 313 L214 689 L215 698 L216 703 L218 720 L219 720 L220 729 L1015 1103 Z M149 153 L899 153 L889 80 L139 80 L149 153 Z " />
<glyph glyph-name="greaterequal" unicode="&#x2265;" horiz-adv-x="1160" d="M975 698 L974 689 L177 313 L185 376 Q187 387 194 395.5 Q201 404 220 412 L803 684 Q839 700 883 709 Q862 714 844 720 Q826 726 809 733 L293 1004 Q276 1012 270.5 1021 Q265 1030 267 1041 L274 1103 L979 729 L975 698 Z M158 153 L908 153 L899 80 L149 80 L158 153 Z " />
<glyph glyph-name="logicalnot" unicode="&#xac;" horiz-adv-x="1160" d="M999 635 L998 635 L962 340 L882 340 L919 635 L171 635 L179 706 L1007 706 L999 635 Z " />
<glyph glyph-name="estimated" unicode="&#x212e;" horiz-adv-x="1656" d="M1450 816 Q1450 930 1408 1030.5 Q1366 1131 1289 1206 Q1212 1281 1104 1324.5 Q996 1368 864 1368 Q734 1368 625 1323.5 Q516 1279 436.5 1202 Q357 1125 312 1021 Q267 917 266 797 L1450 797 L1450 816 Z M266 638 Q266 567 285.5 496 Q305 425 342.5 359.5 Q380 294 435 238 Q490 182 560.5 140.5 Q631 99 716.5 75.5 Q802 52 902 52 Q1077 52 1210 119 Q1343 186 1439 310 L1492 271 Q1394 138 1242.5 62 Q1091 -14 883 -14 Q768 -14 667.5 12.5 Q567 39 483.5 87 Q400 135 334.5 201.5 Q269 268 224 348 Q179 428 155.5 519 Q132 610 132 706 Q132 860 185.5 992 Q239 1124 335.5 1221.5 Q432 1319 566 1374.5 Q700 1430 860 1430 Q1022 1430 1153 1376.5 Q1284 1323 1377 1229 Q1470 1135 1520.5 1008.5 Q1571 882 1573 736 L266 736 L266 638 Z " />
<glyph glyph-name="uni2113" unicode="&#x2113;" horiz-adv-x="937" d="M717 1356 Q647 1356 580 1302.5 Q513 1249 457 1155.5 Q401 1062 360.5 935.5 Q320 809 304 664 Q424 706 523 762.5 Q622 819 693 886 Q764 953 803 1029.5 Q842 1106 842 1189 Q842 1273 808 1314.5 Q774 1356 717 1356 Z M49 594 Q133 611 210 633 Q226 799 273.5 944.5 Q321 1090 390.5 1198.5 Q460 1307 546.5 1369.5 Q633 1432 728 1432 Q780 1432 817 1412.5 Q854 1393 878 1360 Q902 1327 913 1284.5 Q924 1242 924 1196 Q924 1096 880 1006.5 Q836 917 754.5 840 Q673 763 557 700 Q441 637 297 590 Q294 540 294 490 Q294 370 304.5 288.5 Q315 207 336 156.5 Q357 106 388 84 Q419 62 460 62 Q538 62 612 130 Q686 198 743 341 L821 321 Q800 256 764 195 Q728 134 679.5 87 Q631 40 571.5 11 Q512 -18 445 -18 Q386 -18 340.5 7.5 Q295 33 264.5 91.5 Q234 150 218 244.5 Q202 339 202 477 Q202 498 202.5 519.5 Q203 541 204 562 Q169 552 133.5 543.5 Q98 535 61 527 L49 594 Z " />
<glyph glyph-name="infinity" unicode="&#x221e;" horiz-adv-x="1374" d="M1167 591 Q1174 646 1164 689 Q1154 732 1132 761 Q1110 790 1077 805.5 Q1044 821 1004 821 Q964 821 927.5 802 Q891 783 857.5 751 Q824 719 791.5 677.5 Q759 636 727 591 Q748 546 770.5 504 Q793 462 819 430 Q845 398 876.5 379 Q908 360 948 360 Q988 360 1025 375.5 Q1062 391 1091 420 Q1120 449 1140 492 Q1160 535 1167 591 Z M363 360 Q403 360 439.5 379 Q476 398 510 430 Q544 462 576.5 503.5 Q609 545 641 590 Q620 635 597.5 677 Q575 719 549 751 Q523 783 491 802 Q459 821 419 821 Q380 821 343 805.5 Q306 790 276.5 761 Q247 732 227 689 Q207 646 200 591 Q193 535 203 492 Q213 449 235.5 420 Q258 391 291 375.5 Q324 360 363 360 Z M1017 899 Q1071 899 1116.5 877.5 Q1162 856 1193.5 816 Q1225 776 1240 719 Q1255 662 1246 591 Q1237 520 1208.5 462.5 Q1180 405 1138.5 365 Q1097 325 1046 303.5 Q995 282 941 282 Q890 282 850.5 301.5 Q811 321 779.5 354 Q748 387 722.5 430 Q697 473 675 519 Q641 473 605 430 Q569 387 529 354 Q489 321 445 301.5 Q401 282 350 282 Q297 282 251.5 303.5 Q206 325 174.5 365 Q143 405 128.5 462.5 Q114 520 123 591 Q132 662 160.5 719 Q189 776 230.5 816 Q272 856 322.5 877.5 Q373 899 426 899 Q477 899 516.5 879.5 Q556 860 587.5 827 Q619 794 644.5 751 Q670 708 693 662 Q727 708 762.5 751 Q798 794 838 827 Q878 860 922 879.5 Q966 899 1017 899 Z " />
<glyph glyph-name="partialdiff" unicode="&#x2202;" horiz-adv-x="1056" d="M381 64 Q455 64 523.5 99 Q592 134 650.5 200.5 Q709 267 757 362 Q805 457 838 577 Q835 629 822 679 Q809 729 781 768 Q753 807 710 831 Q667 855 604 855 Q515 855 440.5 818.5 Q366 782 310 718.5 Q254 655 217.5 568.5 Q181 482 169 382 Q160 307 170.5 248 Q181 189 209 148 Q237 107 281 85.5 Q325 64 381 64 Z M443 1341 Q479 1365 512.5 1382.5 Q546 1400 578.5 1411 Q611 1422 645 1427.5 Q679 1433 717 1433 Q797 1433 856 1397 Q915 1361 951 1293 Q987 1225 998 1126.5 Q1009 1028 993 902 Q969 707 915.5 540 Q862 373 782 250 Q702 127 595.5 57.5 Q489 -12 359 -12 Q284 -12 225.5 15 Q167 42 129 93 Q91 144 75.5 216.5 Q60 289 71 380 Q85 494 131 594.5 Q177 695 247 770 Q317 845 407.5 888 Q498 931 602 931 Q651 931 694.5 917.5 Q738 904 773.5 876.5 Q809 849 835 807 Q861 765 875 708 Q887 765 894.5 818 Q902 871 906 903 Q933 1123 879 1239 Q825 1355 696 1355 Q651 1355 615.5 1344.5 Q580 1334 553 1322 Q526 1310 507.5 1299.5 Q489 1289 479 1289 Q466 1289 458 1306 L443 1341 Z " />
<glyph glyph-name="integral" unicode="&#x222b;" horiz-adv-x="816" d="M432 1253 Q444 1352 475 1422.5 Q506 1493 552.5 1538 Q599 1583 659 1604 Q719 1625 789 1625 Q822 1625 854.5 1620.5 Q887 1616 910 1602 L903 1563 Q900 1554 894.5 1551 Q889 1548 878.5 1548 Q868 1548 850.5 1550 Q833 1552 807 1552 Q747 1552 699 1536 Q651 1520 615.5 1484.5 Q580 1449 557 1392.5 Q534 1336 524 1255 L391 13 Q379 -86 348 -156.5 Q317 -227 270.5 -272 Q224 -317 164 -338 Q104 -359 35 -359 Q2 -359 -30.5 -354.5 Q-63 -350 -87 -336 L-80 -297 Q-77 -288 -71 -285 Q-65 -282 -54.5 -282 Q-44 -282 -27 -284 Q-10 -286 16 -286 Q76 -286 124 -270 Q172 -254 207.5 -218.5 Q243 -183 266.5 -126.5 Q290 -70 300 11 L432 1253 Z " />
<glyph glyph-name="radical" unicode="&#x221a;" horiz-adv-x="1257" d="M1366 1720 L596 0 L520 0 L337 691 L106 691 Q90 691 79.5 700 Q69 709 72 731 L75 760 L389 760 Q403 760 411 752.5 Q419 745 421 736 L563 191 Q568 170 570 149.5 Q572 129 573 108 Q584 145 598 182 L1273 1695 Q1279 1706 1288.5 1713 Q1298 1720 1310 1720 L1366 1720 Z " />
<glyph glyph-name="product" unicode="&#x220f;" horiz-adv-x="1343" d="M1362 1335 L1151 1335 L944 -352 L849 -352 L1055 1335 L459 1335 L252 -352 L157 -352 L364 1335 L154 1335 L163 1415 L1371 1415 L1362 1335 Z " />
<glyph glyph-name="summation" unicode="&#x2211;" horiz-adv-x="1260" d="M1257 1333 L308 1333 L800 545 L797 519 L110 -270 L1060 -270 L1050 -352 L-45 -352 L-41 -316 Q-39 -297 -26 -285 L690 533 L174 1346 Q164 1360 168 1379 L172 1415 L1267 1415 L1257 1333 Z " />
<glyph glyph-name="lozenge" unicode="&#x25ca;" horiz-adv-x="1160" d="M944 678 L610 1363 Q603 1379 598.5 1393 Q594 1407 590 1421 Q585 1407 580.5 1393 Q576 1379 569 1363 L237 678 L569 -7 Q576 -23 580.5 -37 Q585 -51 590 -65 Q594 -51 598.5 -37 Q603 -23 610 -7 L944 678 Z M1025 678 L623 -154 L557 -154 L155 678 L557 1510 L623 1510 L1025 678 Z " />
<glyph glyph-name="arrowleft" unicode="&#x2190;" horiz-adv-x="2000" d="M122 636 L674 1188 L705 1156 Q716 1143 713 1131.5 Q710 1120 699 1109 L318 728 Q282 692 252 670 Q282 674 318 676.5 Q354 679 396 679 L1870 679 L1870 592 L396 592 Q354 592 318.5 594.5 Q283 597 252 601 Q267 590 283 576 Q299 562 318 544 L703 159 Q714 148 717 136.5 Q720 125 708 112 L677 79 L122 636 Z " />
<glyph glyph-name="arrowright" unicode="&#x2192;" horiz-adv-x="2000" d="M1878 635 L1326 83 L1295 115 Q1283 128 1286 140 Q1289 152 1300 163 L1682 543 Q1700 562 1716.5 576 Q1733 590 1747 601 Q1717 597 1681.5 594.5 Q1646 592 1604 592 L130 592 L130 679 L1604 679 Q1646 679 1682 676.5 Q1718 674 1748 670 Q1718 692 1682 728 L1297 1112 Q1286 1123 1283 1134.5 Q1280 1146 1291 1159 L1322 1192 L1878 635 Z " />
<glyph glyph-name="arrowup" unicode="&#x2191;" horiz-adv-x="1500" d="M1303 970 L1271 939 Q1258 927 1246 930 Q1234 933 1223 944 L842 1325 Q807 1360 785 1390 Q794 1330 794 1248 L794 -226 L707 -226 L707 1248 Q707 1290 709.5 1325.5 Q712 1361 716 1392 Q695 1362 658 1325 L274 941 Q263 930 252 927 Q241 924 227 936 L195 967 L751 1522 L1303 970 Z " />
<glyph glyph-name="arrowdown" unicode="&#x2193;" horiz-adv-x="1500" d="M1306 223 L749 -333 L198 219 L229 250 Q243 262 254.5 259 Q266 256 277 245 L658 -136 Q676 -155 690 -171 Q704 -187 715 -201 Q706 -141 706 -59 L706 1415 L794 1415 L794 -59 Q794 -101 791.5 -136 Q789 -171 785 -202 Q796 -187 810 -171 Q824 -155 842 -136 L1227 248 Q1238 259 1249 262 Q1260 265 1274 254 L1306 223 Z " />
<glyph glyph-name="uni2197" unicode="&#x2197;" horiz-adv-x="1500" d="M1327 1257 L1327 476 L1283 477 Q1265 478 1259 488 Q1253 498 1253 514 L1253 1052 Q1253 1104 1259 1139 Q1240 1115 1216.5 1088 Q1193 1061 1164 1032 L121 -10 L61 51 L1103 1094 Q1132 1123 1159 1146.5 Q1186 1170 1210 1189 Q1174 1183 1123 1183 L579 1183 Q562 1183 552.5 1189 Q543 1195 542 1212 L541 1257 L1327 1257 Z " />
<glyph glyph-name="uni2196" unicode="&#x2196;" horiz-adv-x="1500" d="M1439 51 L1378 -10 L336 1032 Q307 1061 283.5 1087.5 Q260 1114 241 1138 Q247 1102 247 1052 L247 514 Q247 498 241 488 Q235 478 217 477 L172 476 L172 1257 L959 1257 L958 1212 Q957 1195 947 1189 Q937 1183 921 1183 L377 1183 Q326 1183 290 1189 Q314 1170 341 1146.5 Q368 1123 397 1094 L1439 51 Z " />
<glyph glyph-name="uni2198" unicode="&#x2198;" horiz-adv-x="1500" d="M1327 782 L1327 0 L541 0 L542 45 Q543 62 552.5 68 Q562 74 579 74 L1123 74 Q1174 74 1210 68 Q1186 87 1159 110.5 Q1132 134 1103 164 L61 1206 L121 1267 L1164 225 Q1193 196 1216.5 169 Q1240 142 1259 118 Q1253 154 1253 205 L1253 744 Q1253 759 1259 769.5 Q1265 780 1283 780 L1327 782 Z " />
<glyph glyph-name="uni2199" unicode="&#x2199;" horiz-adv-x="1500" d="M172 0 L172 781 L217 780 Q235 779 241 769 Q247 759 247 743 L247 204 Q247 153 241 119 Q260 143 283.5 169.5 Q307 196 336 225 L1378 1267 L1439 1206 L397 163 Q338 104 289 67 Q307 70 329 71.5 Q351 73 377 74 L921 74 Q937 74 947 68 Q957 62 958 44 L959 0 L172 0 Z " />
<glyph glyph-name="arrowboth" unicode="&#x2194;" horiz-adv-x="2000" d="M1878 635 L1326 83 L1295 115 Q1283 128 1286 140 Q1289 152 1300 163 L1682 543 Q1700 562 1716.5 576 Q1733 590 1747 601 Q1717 597 1681.5 594.5 Q1646 592 1604 592 L264 592 Q289 572 318 544 L703 159 Q714 148 717 136.5 Q720 125 708 112 L677 79 L122 636 L674 1188 L705 1156 Q716 1143 713 1131.5 Q710 1120 699 1109 L318 728 Q288 698 263 679 L1604 679 Q1646 679 1682 676.5 Q1718 674 1748 670 Q1718 692 1682 728 L1297 1112 Q1286 1123 1283 1134.5 Q1280 1146 1291 1159 L1322 1192 L1878 635 Z " />
<glyph glyph-name="arrowupdn" unicode="&#x2195;" horiz-adv-x="1500" d="M750 -333 L199 219 L230 250 Q244 262 255.5 259 Q267 256 278 245 L659 -136 Q673 -151 685 -164 Q697 -177 707 -189 L707 1248 Q707 1290 709 1325.5 Q711 1361 715 1391 Q694 1362 658 1325 L273 941 Q262 930 251 927 Q240 924 227 935 L194 967 L751 1522 L1303 970 L1271 939 Q1258 927 1246 930 Q1234 933 1223 944 L842 1325 Q805 1362 785 1389 Q789 1359 791.5 1324.5 Q794 1290 794 1248 L794 -190 Q804 -178 816 -164.5 Q828 -151 843 -136 L1228 248 Q1239 259 1250 262 Q1261 265 1275 254 L1307 223 L750 -333 Z " />
<glyph glyph-name="Ohorn" unicode="&#x1a0;" horiz-adv-x="1547" d="M671 69 Q803 69 914 120.5 Q1025 172 1106 269 Q1187 366 1232.5 503.5 Q1278 641 1278 814 Q1278 937 1246.5 1035.5 Q1215 1134 1156 1203.5 Q1097 1273 1013.5 1310.5 Q930 1348 827 1348 Q697 1348 586 1296 Q475 1244 393.5 1147 Q312 1050 266 912 Q220 774 220 602 Q220 479 252 380.5 Q284 282 343 213 Q402 144 485 106.5 Q568 69 671 69 Z M1593 1550 Q1596 1537 1597 1519 Q1598 1501 1598 1489 Q1598 1415 1575.5 1358 Q1553 1301 1513 1260.5 Q1473 1220 1418.5 1196 Q1364 1172 1301 1165 Q1340 1092 1360.5 1004.5 Q1381 917 1381 816 Q1381 629 1326.5 476 Q1272 323 1175 214 Q1078 105 946 45 Q814 -15 660 -15 Q536 -15 436 29.5 Q336 74 265.5 155 Q195 236 157 349 Q119 462 119 599 Q119 785 174 938.5 Q229 1092 325.5 1201.5 Q422 1311 553.5 1371 Q685 1431 838 1431 Q981 1431 1091 1373.5 Q1201 1316 1271 1213 Q1315 1216 1354.5 1229.5 Q1394 1243 1424 1265 Q1454 1287 1472 1316 Q1490 1345 1490 1379 Q1490 1397 1484.5 1409 Q1479 1421 1473 1430.5 Q1467 1440 1461.5 1450.5 Q1456 1461 1456 1477 Q1456 1513 1476 1531.5 Q1496 1550 1534 1550 L1593 1550 Z " />
<glyph glyph-name="Uhorn" unicode="&#x1af;" horiz-adv-x="1501" d="M1592 1550 Q1594 1537 1595.5 1519 Q1597 1501 1597 1489 Q1597 1406 1569 1345 Q1541 1284 1493 1243 Q1445 1202 1380 1181.5 Q1315 1161 1241 1161 L1165 539 Q1150 422 1103 320.5 Q1056 219 982.5 144 Q909 69 812 26 Q715 -17 600 -17 Q486 -17 400 26 Q314 69 259 144 Q204 219 182 320.5 Q160 422 174 539 L281 1415 L380 1415 L273 540 Q261 441 277.5 355 Q294 269 337 205.5 Q380 142 449.5 106 Q519 70 612 70 Q705 70 782.5 106 Q860 142 918.5 205 Q977 268 1015 354 Q1053 440 1065 539 L1173 1415 L1272 1415 L1247 1212 Q1295 1212 1338.5 1224.5 Q1382 1237 1415.5 1259.5 Q1449 1282 1469 1312.5 Q1489 1343 1489 1379 Q1489 1397 1483.5 1409 Q1478 1421 1472 1430.5 Q1466 1440 1460.5 1450.5 Q1455 1461 1455 1477 Q1455 1513 1475 1531.5 Q1495 1550 1532 1550 L1592 1550 Z " />
</font>
</svg>
