<svg xmlns="http://www.w3.org/2000/svg" xmlns:xlink="http://www.w3.org/1999/xlink" width="82" height="60" viewBox="0 0 82 60">
  <defs>
    <rect id="path-1" width="12" height="2" x="11" y="0"/>
    <filter id="filter-2" width="108.3%" height="200%" x="-4.2%" y="-25%" filterUnits="objectBoundingBox">
      <feOffset dy="1" in="SourceAlpha" result="shadowOffsetOuter1"/>
      <feComposite in="shadowOffsetOuter1" in2="SourceAlpha" operator="out" result="shadowOffsetOuter1"/>
      <feColorMatrix in="shadowOffsetOuter1" values="0 0 0 0 1   0 0 0 0 1   0 0 0 0 1  0 0 0 0.292012675 0"/>
    </filter>
    <linearGradient id="linearGradient-3" x1="50%" x2="50%" y1="0%" y2="100%">
      <stop offset="0%" stop-color="#00A09D"/>
      <stop offset="100%" stop-color="#00E2FF"/>
    </linearGradient>
    <path id="path-4" d="M32 8v1H11V8h21zm-5-3v1H11V5h16z"/>
    <filter id="filter-5" width="104.8%" height="150%" x="-2.4%" y="-12.5%" filterUnits="objectBoundingBox">
      <feOffset dy="1" in="SourceAlpha" result="shadowOffsetOuter1"/>
      <feComposite in="shadowOffsetOuter1" in2="SourceAlpha" operator="out" result="shadowOffsetOuter1"/>
      <feColorMatrix in="shadowOffsetOuter1" values="0 0 0 0 1   0 0 0 0 1   0 0 0 0 1  0 0 0 0.0995137675 0"/>
    </filter>
  </defs>
  <g fill="none" fill-rule="evenodd" class="snippets_thumbs">
    <g class="s_blockquote">
      <rect width="82" height="60" class="bg"/>
      <g class="group_2" transform="translate(20 24)">
        <g class="rectangle">
          <use fill="#000" filter="url(#filter-2)" xlink:href="#path-1"/>
          <use fill="#FFF" fill-opacity=".78" xlink:href="#path-1"/>
        </g>
        <path fill="url(#linearGradient-3)" d="M1.706 5c.349 0 .652-.114.909-.342C2.872 4.43 3 4.164 3 3.86c0-.147-.024-.29-.071-.427a.98.98 0 0 0-.243-.377 1.215 1.215 0 0 0-.472-.278 2.383 2.383 0 0 0-.755-.1h-.42c.05-.494.235-.914.555-1.26.319-.347.76-.651 1.324-.912L2.588 0A4.93 4.93 0 0 0 .76 1.318C.253 1.897 0 2.472 0 3.04c0 .613.147 1.092.441 1.44.295.346.716.519 1.265.519zm4 0c.349 0 .652-.114.909-.342C6.872 4.43 7 4.164 7 3.86c0-.147-.024-.29-.071-.427a.98.98 0 0 0-.243-.377 1.215 1.215 0 0 0-.472-.278 2.383 2.383 0 0 0-.755-.1h-.42c.05-.494.235-.914.555-1.26.319-.347.76-.651 1.324-.912L6.588 0A4.93 4.93 0 0 0 4.76 1.318C4.253 1.897 4 2.472 4 3.04c0 .613.147 1.092.441 1.44.295.346.716.519 1.265.519z"/>
        <g class="combined_shape">
          <use fill="#000" filter="url(#filter-5)" xlink:href="#path-4"/>
          <use fill="#FFF" fill-opacity=".348" xlink:href="#path-4"/>
        </g>
        <path fill="url(#linearGradient-3)" d="M36.411 12a4.93 4.93 0 0 0 1.83-1.318c.506-.579.759-1.154.759-1.723 0-.613-.147-1.092-.441-1.44-.295-.346-.716-.519-1.265-.519-.349 0-.652.114-.909.342-.257.228-.385.494-.385.798 0 .147.024.29.071.427a.98.98 0 0 0 .243.377c.12.12.277.212.472.278.194.067.446.1.755.1h.42c-.05.494-.235.914-.555 1.26-.319.347-.76.651-1.324.912l.33.506zm4 0a4.93 4.93 0 0 0 1.83-1.318c.506-.579.759-1.154.759-1.723 0-.613-.147-1.092-.441-1.44-.295-.346-.716-.519-1.265-.519-.349 0-.652.114-.909.342-.257.228-.385.494-.385.798 0 .147.024.29.071.427a.98.98 0 0 0 .243.377c.12.12.277.212.472.278.194.067.446.1.755.1h.42c-.05.494-.235.914-.555 1.26-.319.347-.76.651-1.324.912l.33.506z"/>
      </g>
    </g>
  </g>
</svg>
