<svg width="50" height="50" viewBox="0 0 50 50" xmlns="http://www.w3.org/2000/svg"><path d="M6 42.009h7V24.494L3 16.767v22.151c0 1.71 1.345 3.091 3 3.091Z" fill="#4285F4"/><path d="M37 42.009h7c1.66 0 3-1.386 3-3.09V16.766l-10 7.727" fill="#34A853"/><path d="M37 11.1v13.394l10-7.728v-4.12c0-3.823-4.235-6.002-7.2-3.71" fill="#FBBC04"/><path d="M13 24.494V11.1l12 9.272L37 11.1v13.394l-12 9.272" fill="#EA4335"/><path d="M3 12.645v4.121l10 7.728V11.1l-2.8-2.164C7.23 6.644 3 8.823 3 12.646Z" fill="#C5221F"/></svg>
