<svg xmlns="http://www.w3.org/2000/svg" xmlns:xlink="http://www.w3.org/1999/xlink" width="82" height="60" viewBox="0 0 82 60">
  <defs>
    <linearGradient id="linearGradient-1" x1="0%" x2="100%" y1="44.009%" y2="55.991%">
      <stop offset="0%" stop-color="#00A09D"/>
      <stop offset="100%" stop-color="#00E2FF"/>
    </linearGradient>
    <rect id="path-2" width="22" height="2" x="4" y="10"/>
    <filter id="filter-3" width="104.5%" height="200%" x="-2.3%" y="-25%" filterUnits="objectBoundingBox">
      <feOffset dy="1" in="SourceAlpha" result="shadowOffsetOuter1"/>
      <feComposite in="shadowOffsetOuter1" in2="SourceAlpha" operator="out" result="shadowOffsetOuter1"/>
      <feColorMatrix in="shadowOffsetOuter1" values="0 0 0 0 1   0 0 0 0 1   0 0 0 0 1  0 0 0 0.4 0"/>
    </filter>
    <path id="path-4" d="M20 18v1H4v-1h16zm4-3v1H4v-1h20z"/>
    <filter id="filter-5" width="105%" height="150%" x="-2.5%" y="-12.5%" filterUnits="objectBoundingBox">
      <feOffset dy="1" in="SourceAlpha" result="shadowOffsetOuter1"/>
      <feComposite in="shadowOffsetOuter1" in2="SourceAlpha" operator="out" result="shadowOffsetOuter1"/>
      <feColorMatrix in="shadowOffsetOuter1" values="0 0 0 0 1   0 0 0 0 1   0 0 0 0 1  0 0 0 0.2 0"/>
    </filter>
  </defs>
  <g fill="none" fill-rule="evenodd" class="snippets_thumbs">
    <g class="s_popup">
      <rect width="82" height="60" class="bg"/>
      <g class="group" transform="translate(15 18)">
        <g fill="url(#linearGradient-1)" class="image_1" opacity=".4" transform="translate(0 6)">
          <rect width="52" height="18" class="rectangle"/>
        </g>
        <g class="rectangle">
          <use fill="#000" filter="url(#filter-3)" xlink:href="#path-2"/>
          <use fill="#FFF" fill-opacity=".95" xlink:href="#path-2"/>
        </g>
        <path fill="#FFF" fill-opacity=".78" d="M52 0v6H0V0h52zm-1.538 1L49 2.461 47.538 1l-.53.537 1.459 1.46L47 4.464l.529.537L49 3.53 50.471 5 51 4.463l-1.467-1.465 1.458-1.461L50.462 1z" class="combined_shape"/>
        <g class="combined_shape">
          <use fill="#000" filter="url(#filter-5)" xlink:href="#path-4"/>
          <use fill="#FFF" fill-opacity=".8" xlink:href="#path-4"/>
        </g>
      </g>
    </g>
  </g>
</svg>
