<svg width="700" height="3163" viewBox="0 0 700 3163" fill="none" xmlns="http://www.w3.org/2000/svg" data-vsvg="002" class="theme_orchid_svg_preview">
    <defs>
        <style type="text/css">
            @import url('https://fonts.googleapis.com/css2?family=Elsie:wght@400;900&amp;display=swap');
        </style>
        <pattern id="theme_orchid_s_key_images_s_text_image_default_image_id" width="1" height="1" viewbox="0 0 125 116" patternunits="objectBoundingBox">
            <image href="#s_text_image_default_image_url" width="125" height="116" preserveAspectRatio="xMidYMid slice"/>
        </pattern>
        <pattern id="theme_orchid_s_key_images_s_media_list_default_image_2_id" width="1" height="1" viewbox="0 0 125 116" patternunits="objectBoundingBox">
            <image href="#s_media_list_default_image_2_url" width="125" height="116" preserveAspectRatio="xMidYMid slice"/>
        </pattern>
        <pattern id="theme_orchid_s_key_images_s_image_text_default_image_id" width="1" height="1" viewbox="0 0 125 116" patternunits="objectBoundingBox">
            <image href="#s_image_text_default_image_url" width="125" height="116" preserveAspectRatio="xMidYMid slice"/>
        </pattern>
        <pattern id="theme_orchid_s_key_images_s_media_list_default_image_1_id" width="1" height="1" viewbox="0 0 125 116" patternunits="objectBoundingBox">
            <image href="#s_media_list_default_image_1_url" width="125" height="116" preserveAspectRatio="xMidYMid slice"/>
        </pattern>
        <pattern id="theme_orchid_s_references_s_reference_demo_image_6_id" width="1" height="1" viewbox="0 0 64 36" patternunits="objectBoundingBox">
            <image href="/web/image/website.s_reference_demo_image_1" width="64" height="36" preserveAspectRatio="xMidYMid slice"/>
        </pattern>
        <pattern id="theme_orchid_s_references_s_reference_demo_image_5_id" width="1" height="1" viewbox="0 0 64 36" patternunits="objectBoundingBox">
            <image href="/web/image/website.s_reference_demo_image_5" width="64" height="36" preserveAspectRatio="xMidYMid slice"/>
        </pattern>
        <pattern id="theme_orchid_s_references_s_reference_demo_image_4_id" width="1" height="1" viewbox="0 0 64 36" patternunits="objectBoundingBox">
            <image href="/web/image/website.s_reference_demo_image_4" width="64" height="36" preserveAspectRatio="xMidYMid slice"/>
        </pattern>
        <pattern id="theme_orchid_s_references_s_reference_demo_image_3_id" width="1" height="1" viewbox="0 0 64 36" patternunits="objectBoundingBox">
            <image href="/web/image/website.s_reference_demo_image_3" width="64" height="36" preserveAspectRatio="xMidYMid slice"/>
        </pattern>
        <pattern id="theme_orchid_s_references_s_reference_demo_image_2_id" width="1" height="1" viewbox="0 0 64 36" patternunits="objectBoundingBox">
            <image href="/web/image/website.s_reference_demo_image_2" width="64" height="36" preserveAspectRatio="xMidYMid slice"/>
        </pattern>
        <pattern id="theme_orchid_s_references_s_reference_demo_image_1_id" width="1" height="1" viewbox="0 0 64 36" patternunits="objectBoundingBox">
            <image href="/web/image/website.s_reference_demo_image_1" width="64" height="36" preserveAspectRatio="xMidYMid slice"/>
        </pattern>
        <pattern id="theme_orchid_s_company_team_basic_s_company_team_image_1_id" width="1" height="1" viewbox="0 0 123 123" patternunits="objectBoundingBox">
            <image href="/web/image/website.s_company_team_image_1" width="123" height="123" preserveAspectRatio="xMidYMid slice"/>
        </pattern>
        <pattern id="theme_orchid_s_company_team_basic_s_company_team_image_2_id" width="1" height="1" viewbox="0 0 123 123" patternunits="objectBoundingBox">
            <image href="/web/image/website.s_company_team_image_2" width="123" height="123" preserveAspectRatio="xMidYMid slice"/>
        </pattern>
        <pattern id="theme_orchid_s_company_team_basic_s_company_team_image_3_id" width="1" height="1" viewbox="0 0 123 123" patternunits="objectBoundingBox">
            <image href="/web/image/website.s_company_team_image_3" width="123" height="123" preserveAspectRatio="xMidYMid slice"/>
        </pattern>
        <pattern id="theme_orchid_s_company_team_basic_s_company_team_image_4_id" width="1" height="1" viewbox="0 0 123 123" patternunits="objectBoundingBox">
            <image href="/web/image/website.s_company_team_image_4" width="123" height="123" preserveAspectRatio="xMidYMid slice"/>
        </pattern>
        <pattern id="theme_orchid_s_kickoff_s_kickoff_default_image_id" width="1" height="1" viewbox="0 0 700 285" patternunits="objectBoundingBox">
            <image href="#s_cover_default_image_url" width="700" height="285" preserveAspectRatio="xMidYMid slice"/>
        </pattern>
        <pattern id="theme_orchid_s_image_wall_library_image_03_id" width="1" height="1" viewbox="0 0 190 129" patternunits="objectBoundingBox">
            <image href="#library_image_03_url" width="190" height="129" preserveAspectRatio="xMidYMid slice"/>
        </pattern>
        <pattern id="theme_orchid_s_image_wall_library_image_13_id" width="1" height="1" viewbox="0 0 190 290" patternunits="objectBoundingBox">
            <image href="#library_image_13_url" width="190" height="290" preserveAspectRatio="xMidYMid slice"/>
        </pattern>
        <pattern id="theme_orchid_s_image_wall_library_image_14_id" width="1" height="1" viewbox="0 0 190 129" patternunits="objectBoundingBox">
            <image href="#library_image_14_url" width="190" height="129" preserveAspectRatio="xMidYMid slice"/>
        </pattern>
        <pattern id="theme_orchid_s_image_wall_library_image_16_id" width="1" height="1" viewbox="0 0 190 286" patternunits="objectBoundingBox">
            <image href="#library_image_16_url" width="190" height="286" preserveAspectRatio="xMidYMid slice"/>
        </pattern>
        <pattern id="theme_orchid_s_image_wall_library_image_05_id" width="1" height="1" viewbox="0 0 190 124" patternunits="objectBoundingBox">
            <image href="#library_image_05_url" width="190" height="124" preserveAspectRatio="xMidYMid slice"/>
        </pattern>
        <pattern id="theme_orchid_s_image_wall_library_image_10_id" width="1" height="1" viewbox="0 0 190 286" patternunits="objectBoundingBox">
            <image href="#library_image_10_url" width="190" height="286" preserveAspectRatio="xMidYMid slice"/>
        </pattern>
        <pattern id="theme_orchid_s_freegrid_library_image_03_id" width="1" height="1" viewbox="0 0 59 223" patternunits="objectBoundingBox">
            <image href="#library_image_03_url" width="59" height="223" preserveAspectRatio="xMidYMid slice"/>
        </pattern>
        <pattern id="theme_orchid_s_freegrid_library_image_13_id" width="1" height="1" viewbox="0 0 159 130" patternunits="objectBoundingBox">
            <image href="#library_image_13_url" width="159" height="130" preserveAspectRatio="xMidYMid slice"/>
        </pattern>
        <pattern id="theme_orchid_s_freegrid_library_image_10_id" width="1" height="1" viewbox="0 0 159 130" patternunits="objectBoundingBox">
            <image href="#library_image_10_url" width="159" height="130" preserveAspectRatio="xMidYMid slice"/>
        </pattern>
        <pattern id="theme_orchid_s_freegrid_library_image_05_id" width="1" height="1" viewbox="0 0 175 223" patternunits="objectBoundingBox">
            <image href="#library_image_05_url" width="175" height="223" preserveAspectRatio="xMidYMid slice"/>
        </pattern>
        <pattern id="theme_orchid_s_freegrid_library_image_14_id" width="1" height="1" viewbox="0 0 154 267" patternunits="objectBoundingBox">
            <image href="#library_image_14_url" width="154" height="267" preserveAspectRatio="xMidYMid slice"/>
        </pattern>
        <pattern id="theme_orchid_s_freegrid_library_image_16_id" width="1" height="1" viewbox="0 0 59 223" patternunits="objectBoundingBox">
            <image href="#library_image_16_url" width="159" height="240" preserveAspectRatio="xMidYMid slice"/>
        </pattern>
        <pattern id="theme_orchid_s_image_text_overlap_s_kickoff_default_image_id" width="1" height="1" viewbox="0 0 332 239" patternunits="objectBoundingBox">
            <image href="/theme_orchid/static/src/img/snippets/configurator_s_image_text_overlap.webp" width="332" height="239" preserveAspectRatio="xMidYMid slice"/>
        </pattern>
        <filter id="filter_readability_theme_orchid">
            <feColorMatrix in="SourceGraphic" type="saturate" values="0"></feColorMatrix>
            <feComponentTransfer>
                <feFuncR type="table" tableValues="1 0"></feFuncR>
                <feFuncG type="table" tableValues="1 0"></feFuncG>
                <feFuncB type="table" tableValues="1 0"></feFuncB>
            </feComponentTransfer>
            <feComponentTransfer>
                <feFuncR type="linear" slope="10000" intercept="-4999.5"></feFuncR>
                <feFuncG type="linear" slope="10000" intercept="-4999.5"></feFuncG>
                <feFuncB type="linear" slope="10000" intercept="-4999.5"></feFuncB>
            </feComponentTransfer>
        </filter>
        <clipPath id="clip0_462_2">
            <rect width="700" height="3163" fill="#FFFFFF"/>
        </clipPath>
    </defs>
    <rect width="700" height="3163" fill="#ACACAC"/>
    <g clip-path="url(#clip0_462_2)" class="theme_orchid">
        <rect width="700" height="3163" fill="#FFFFFF"/>
        <g class="s_key_images">
            <rect y="302" width="700" height="431" fill="#F6F6F6"/>
            <path d="M265 400H71V402H265V400Z" fill="#F6F6F6" fill-opacity="0.4" class="svgc_invert" filter="url(#filter_readability_theme_orchid)"/>
            <path d="M251 405H71V407H251V405Z" fill="#F6F6F6" fill-opacity="0.4" class="svgc_invert" filter="url(#filter_readability_theme_orchid)"/>
            <text fill="#383E45" xml:space="preserve" style="white-space: pre" font-family="Elsie" font-size="20" letter-spacing="0em">
                <tspan x="71" y="386.02">Entry Title</tspan>
            </text>
            <text fill="#383E45" xml:space="preserve" style="white-space: pre" font-family="Elsie" font-size="20" letter-spacing="0em">
                <tspan x="70" y="450.02">01</tspan>
            </text>
            <text fill="#383E45" xml:space="preserve" style="white-space: pre" font-family="Elsie" font-size="20" letter-spacing="0em">
                <tspan x="215" y="450.02">02</tspan>
            </text>
            <text fill="#383E45" xml:space="preserve" style="white-space: pre" font-family="Elsie" font-size="20" letter-spacing="0em">
                <tspan x="360" y="450.02">03</tspan>
            </text>
            <text fill="#383E45" xml:space="preserve" style="white-space: pre" font-family="Elsie" font-size="20" letter-spacing="0em">
                <tspan x="505" y="450.02">04</tspan>
            </text>
            <path d="M176 598H70V600H176V598Z" fill="#F6F6F6" fill-opacity="0.4" class="svgc_invert" filter="url(#filter_readability_theme_orchid)"/>
            <path d="M195 603H70V605H195V603Z" fill="#F6F6F6" fill-opacity="0.4" class="svgc_invert" filter="url(#filter_readability_theme_orchid)"/>
            <path d="M321 598H215V600H321V598Z" fill="#F6F6F6" fill-opacity="0.4" class="svgc_invert" filter="url(#filter_readability_theme_orchid)"/>
            <path d="M340 603H215V605H340V603Z" fill="#F6F6F6" fill-opacity="0.4" class="svgc_invert" filter="url(#filter_readability_theme_orchid)"/>
            <path d="M466 598H360V600H466V598Z" fill="#F6F6F6" fill-opacity="0.4" class="svgc_invert" filter="url(#filter_readability_theme_orchid)"/>
            <path d="M485 603H360V605H485V603Z" fill="#F6F6F6" fill-opacity="0.4" class="svgc_invert" filter="url(#filter_readability_theme_orchid)"/>
            <path d="M611 598H505V600H611V598Z" fill="#F6F6F6" fill-opacity="0.4" class="svgc_invert" filter="url(#filter_readability_theme_orchid)"/>
            <path d="M630 603H505V605H630V603Z" fill="#F6F6F6" fill-opacity="0.4" class="svgc_invert" filter="url(#filter_readability_theme_orchid)"/>
            <path d="M176 612H70V614H176V612Z" fill="#F6F6F6" fill-opacity="0.4" class="svgc_invert" filter="url(#filter_readability_theme_orchid)"/>
            <path d="M195 617H70V619H195V617Z" fill="#F6F6F6" fill-opacity="0.4" class="svgc_invert" filter="url(#filter_readability_theme_orchid)"/>
            <path d="M321 612H215V614H321V612Z" fill="#F6F6F6" fill-opacity="0.4" class="svgc_invert" filter="url(#filter_readability_theme_orchid)"/>
            <path d="M340 617H215V619H340V617Z" fill="#F6F6F6" fill-opacity="0.4" class="svgc_invert" filter="url(#filter_readability_theme_orchid)"/>
            <path d="M466 612H360V614H466V612Z" fill="#F6F6F6" fill-opacity="0.4" class="svgc_invert" filter="url(#filter_readability_theme_orchid)"/>
            <path d="M485 617H360V619H485V617Z" fill="#F6F6F6" fill-opacity="0.4" class="svgc_invert" filter="url(#filter_readability_theme_orchid)"/>
            <path d="M611 612H505V614H611V612Z" fill="#F6F6F6" fill-opacity="0.4" class="svgc_invert" filter="url(#filter_readability_theme_orchid)"/>
            <path d="M630 617H505V619H630V617Z" fill="#F6F6F6" fill-opacity="0.4" class="svgc_invert" filter="url(#filter_readability_theme_orchid)"/>
            <path d="M176 638H70V640H176V638Z" fill="#F6F6F6" fill-opacity="0.4" class="svgc_invert" filter="url(#filter_readability_theme_orchid)"/>
            <path d="M195 643H70V645H195V643Z" fill="#F6F6F6" fill-opacity="0.4" class="svgc_invert" filter="url(#filter_readability_theme_orchid)"/>
            <path d="M321 638H215V640H321V638Z" fill="#F6F6F6" fill-opacity="0.4" class="svgc_invert" filter="url(#filter_readability_theme_orchid)"/>
            <path d="M340 643H215V645H340V643Z" fill="#F6F6F6" fill-opacity="0.4" class="svgc_invert" filter="url(#filter_readability_theme_orchid)"/>
            <path d="M466 638H360V640H466V638Z" fill="#F6F6F6" fill-opacity="0.4" class="svgc_invert" filter="url(#filter_readability_theme_orchid)"/>
            <path d="M485 643H360V645H485V643Z" fill="#F6F6F6" fill-opacity="0.4" class="svgc_invert" filter="url(#filter_readability_theme_orchid)"/>
            <path d="M611 638H505V640H611V638Z" fill="#F6F6F6" fill-opacity="0.4" class="svgc_invert" filter="url(#filter_readability_theme_orchid)"/>
            <path d="M630 643H505V645H630V643Z" fill="#F6F6F6" fill-opacity="0.4" class="svgc_invert" filter="url(#filter_readability_theme_orchid)"/>
            <rect x="505" y="465" width="125" height="116" rx="10" fill="url(#theme_orchid_s_key_images_s_text_image_default_image_id)" class="img_reference_s_key_images_s_text_image_default_image"/>
            <rect x="360" y="465" width="125" height="116" rx="10" fill="url(#theme_orchid_s_key_images_s_media_list_default_image_2_id)" class="img_reference_s_key_images_s_media_list_default_image_2"/>
            <rect x="215" y="465" width="125" height="116" rx="10" fill="url(#theme_orchid_s_key_images_s_image_text_default_image_id)" class="img_reference_s_key_images_s_image_text_default_image"/>
            <rect x="70" y="465" width="125" height="116" rx="10" fill="url(#theme_orchid_s_key_images_s_media_list_default_image_1_id)" class="img_reference_s_key_images_s_media_list_default_image_1"/>
        </g>
        <g class="s_references">
            <path d="M0 2783L700 2736V2992.5H0V2783Z" fill="#F6F6F6"/>
            <rect x="518" y="2889" width="64" height="36" fill="url(#theme_orchid_s_references_s_reference_demo_image_6_id)" class="img_reference_s_references_s_reference_demo_image_6"/>
            <rect x="438" y="2889" width="64" height="36" fill="url(#theme_orchid_s_references_s_reference_demo_image_5_id)" class="img_reference_s_references_s_reference_demo_image_5"/>
            <rect x="358" y="2889" width="64" height="36" fill="url(#theme_orchid_s_references_s_reference_demo_image_4_id)" class="img_reference_s_references_s_reference_demo_image_4"/>
            <rect x="278" y="2889" width="64" height="36" fill="url(#theme_orchid_s_references_s_reference_demo_image_3_id)" class="img_reference_s_references_s_reference_demo_image_3"/>
            <rect x="198" y="2889" width="64" height="36" fill="url(#theme_orchid_s_references_s_reference_demo_image_2_id)" class="img_reference_s_references_s_reference_demo_image_2"/>
            <rect x="118" y="2889" width="64" height="36" fill="url(#theme_orchid_s_references_s_reference_demo_image_1_id)" class="img_reference_s_references_s_reference_demo_image_1"/>
            <path d="M434 2842H265V2847H434V2842Z" fill="#FFFFFF" fill-opacity="0.4" class="svgc_invert" filter="url(#filter_readability_theme_orchid)"/>
            <text xmlns="http://www.w3.org/2000/svg" fill="#383E45" xml:space="preserve" style="white-space: pre" font-family="Elsie" font-size="24" letter-spacing="0em" y="2825.82" x="50%" text-anchor="middle">Section Title</text>
        </g>
        <g class="s_company_team_basic">
            <path d="M0 1777H700V2154L0 2114V1777Z" fill="#F6F6F6"/>
            <text xmlns="http://www.w3.org/2000/svg" fill="#383E45" xml:space="preserve" style="white-space: pre" font-family="Elsie" font-size="24" letter-spacing="0em" y="1878.78" x="50%" text-anchor="middle">Section Title</text>
            <rect x="80" y="1912" width="123" height="123" fill="url(#theme_orchid_s_company_team_basic_s_company_team_image_1_id)" class="img_reference_s_company_team_basic_s_company_team_image_1"/>
            <rect x="219" y="1912" width="123" height="123" fill="url(#theme_orchid_s_company_team_basic_s_company_team_image_2_id)" class="img_reference_s_company_team_basic_s_company_team_image_2"/>
            <rect x="358" y="1912" width="123" height="123" fill="url(#theme_orchid_s_company_team_basic_s_company_team_image_3_id)" class="img_reference_s_company_team_basic_s_company_team_image_3"/>
            <rect x="497" y="1912" width="123" height="123" fill="url(#theme_orchid_s_company_team_basic_s_company_team_image_4_id)" class="img_reference_s_company_team_basic_s_company_team_image_4"/>
            <path fill-rule="evenodd" clip-rule="evenodd" d="M211 1907H72V2040H211V1907ZM202 1973C202 2006.69 174.689 2034 141 2034C107.311 2034 80 2006.69 80 1973C80 1939.31 107.311 1912 141 1912C174.689 1912 202 1939.31 202 1973Z" fill="#F6F6F6"/>
            <path fill-rule="evenodd" clip-rule="evenodd" d="M350 1907H211V2040H350V1907ZM341 1973C341 2006.69 313.689 2034 280 2034C246.311 2034 219 2006.69 219 1973C219 1939.31 246.311 1912 280 1912C313.689 1912 341 1939.31 341 1973Z" fill="#F6F6F6"/>
            <path fill-rule="evenodd" clip-rule="evenodd" d="M489 1907H350V2040H489V1907ZM480 1973C480 2006.69 452.689 2034 419 2034C385.311 2034 358 2006.69 358 1973C358 1939.31 385.311 1912 419 1912C452.689 1912 480 1939.31 480 1973Z" fill="#F6F6F6"/>
            <path fill-rule="evenodd" clip-rule="evenodd" d="M628 1907H489V2040H628V1907ZM619 1973C619 2006.69 591.689 2034 558 2034C524.311 2034 497 2006.69 497 1973C497 1939.31 524.311 1912 558 1912C591.689 1912 619 1939.31 619 1973Z" fill="#F6F6F6"/>
        </g>
        <g class="s_kickoff">
            <rect y="37" width="700" height="285" fill="url(#theme_orchid_s_kickoff_s_kickoff_default_image_id)" class="img_reference_s_kickoff_s_kickoff_default_image"/>
            <rect y="37" width="700" height="285" fill="#000" fill-opacity="0.4"/>
            <text fill="white" xml:space="preserve" style="white-space: pre" font-family="Elsie" font-size="55" letter-spacing="0em">
                <tspan x="69" y="254.93">Welcome Message</tspan>
            </text>
            <path d="M2.1513 296.667H0V299.2V322H700V303.048C671.723 313.808 526.902 322 352.5 322C157.82 322 0 311.792 0 299.2C0 298.344 0.729778 297.498 2.1513 296.667Z" fill="#F6F6F6"/>
        </g>
        <g class="svgc_menu">
            <path d="M700 -1H0V36H700V-1Z" fill="#MENU_COLOR" class="svgc_menu_bg"/>
            <path d="M626 10H588C585.791 10 584 11.7909 584 14V21C584 23.2091 585.791 25 588 25H626C628.209 25 630 23.2091 630 21V14C630 11.7909 628.209 10 626 10Z" fill="#3AADAA"/>
            <path d="M356 14H319V21H356V14Z" fill="#MENU_COLOR" fill-opacity="0.3" class="svgc_invert" filter="url(#filter_readability_theme_orchid)"/>
            <path d="M298 14H261V21H298V14Z" fill="#MENU_COLOR" fill-opacity="0.3" class="svgc_invert" filter="url(#filter_readability_theme_orchid)"/>
            <path d="M240 14H203V21H240V14Z" fill="#MENU_COLOR" fill-opacity="0.3" class="svgc_invert" filter="url(#filter_readability_theme_orchid)"/>
            <path d="M182 14H145V21H182V14Z" fill="#MENU_COLOR" class="svgc_invert" filter="url(#filter_readability_theme_orchid)"/>
            <path d="M76.345 22V20.479H72.604V13.273H70.759V22H76.345ZM81.025 22.12C81.795 22.12 82.488 21.944 83.105 21.593C83.724 21.243 84.212 20.733 84.572 20.065C84.932 19.398 85.111 18.588 85.111 17.636C85.111 16.685 84.931 15.875 84.571 15.207C84.212 14.54 83.724 14.031 83.106 13.68C82.488 13.329 81.794 13.153 81.024 13.153C80.249 13.153 79.553 13.329 78.936 13.68C78.32 14.03 77.832 14.54 77.475 15.207C77.117 15.875 76.938 16.685 76.938 17.637C76.938 18.585 77.117 19.393 77.475 20.061C77.8052 20.7006 78.3124 21.2317 78.936 21.591C79.553 21.943 80.249 22.119 81.024 22.119L81.025 22.12ZM81.025 20.487C80.6118 20.4962 80.2051 20.382 79.857 20.159C79.524 19.94 79.267 19.619 79.083 19.196C78.9 18.773 78.808 18.253 78.808 17.636C78.808 17.02 78.9 16.5 79.083 16.076C79.266 15.653 79.524 15.332 79.857 15.114C80.2047 14.891 80.6111 14.7767 81.024 14.786C81.47 14.786 81.859 14.895 82.192 15.114C82.524 15.332 82.782 15.654 82.965 16.077C83.149 16.5 83.24 17.02 83.24 17.637C83.24 18.253 83.149 18.773 82.965 19.196C82.782 19.619 82.525 19.94 82.192 20.159C81.8441 20.3823 81.4383 20.4965 81.025 20.487ZM90.302 22.119C91.035 22.119 91.686 21.971 92.254 21.674C92.812 21.3868 93.2762 20.9462 93.592 20.404C93.916 19.854 94.078 19.196 94.078 18.429V17.329H90.426V18.719H92.298L92.294 18.845C92.277 19.082 92.224 19.297 92.137 19.49L92.064 19.63C91.9049 19.9043 91.6674 20.1247 91.382 20.263C91.086 20.413 90.728 20.487 90.311 20.487C89.851 20.487 89.451 20.376 89.113 20.153C88.775 19.93 88.513 19.605 88.329 19.179C88.145 18.753 88.052 18.236 88.052 17.628C88.052 17.02 88.146 16.505 88.333 16.083C88.521 15.661 88.783 15.339 89.12 15.118C89.4695 14.8928 89.8784 14.7772 90.294 14.786C90.532 14.786 90.75 14.816 90.948 14.875C91.145 14.935 91.321 15.021 91.476 15.133C91.631 15.245 91.762 15.381 91.87 15.542C91.978 15.702 92.062 15.886 92.122 16.094H93.997C93.9419 15.6754 93.8043 15.272 93.592 14.907C93.383 14.5479 93.1074 14.2319 92.78 13.976C92.4396 13.7096 92.0556 13.5042 91.645 13.369C91.1996 13.2222 90.7331 13.1492 90.264 13.153C89.7137 13.148 89.1677 13.2509 88.657 13.456C88.1664 13.6551 87.7234 13.9557 87.357 14.338C86.973 14.7437 86.6777 15.2249 86.49 15.751C86.284 16.306 86.181 16.937 86.181 17.645C86.181 18.565 86.354 19.36 86.699 20.029C87.0215 20.6738 87.5242 21.2112 88.146 21.576C88.766 21.938 89.484 22.119 90.302 22.119ZM99.26 22.119C100.03 22.119 100.723 21.944 101.341 21.593C101.959 21.243 102.448 20.733 102.807 20.065C103.167 19.398 103.347 18.588 103.347 17.636C103.347 16.685 103.167 15.875 102.807 15.207C102.447 14.54 101.959 14.031 101.341 13.68C100.723 13.329 100.03 13.153 99.26 13.153C98.484 13.153 97.788 13.329 97.172 13.68C96.555 14.03 96.068 14.54 95.71 15.207C95.352 15.875 95.173 16.685 95.173 17.637C95.173 18.585 95.352 19.393 95.71 20.061C96.068 20.729 96.555 21.239 97.172 21.591C97.788 21.943 98.484 22.119 99.26 22.119ZM99.26 20.487C98.814 20.487 98.424 20.377 98.092 20.159C97.76 19.94 97.502 19.619 97.319 19.196C97.135 18.773 97.044 18.253 97.044 17.636C97.044 17.02 97.135 16.5 97.319 16.076C97.502 15.653 97.759 15.332 98.092 15.114C98.44 14.8908 98.8467 14.7765 99.26 14.786C99.706 14.786 100.095 14.895 100.427 15.114C100.76 15.332 101.017 15.654 101.201 16.077C101.384 16.5 101.476 17.02 101.476 17.637C101.476 18.253 101.384 18.773 101.201 19.196C101.017 19.619 100.76 19.94 100.427 20.159C100.079 20.3821 99.673 20.4963 99.26 20.487Z" fill="#MENU_COLOR" class="svgc_invert" filter="url(#filter_readability_theme_orchid)"/>
        </g>
        <g class="s_process_steps">
            <rect y="733" width="700" height="236" fill="#383E45"/>
            <circle cx="145.5" cy="851.5" r="25.5" fill="#FFFFFF"></circle>
            <circle cx="281.5" cy="851.5" r="25.5" fill="#FFFFFF"></circle>
            <circle cx="417.5" cy="851.5" r="25.5" fill="#FFFFFF"></circle>
            <circle cx="553.5" cy="851.5" r="25.5" fill="#FFFFFF"></circle>
            <rect x="146" y="850" width="396" height="2" fill="#FFFFFF"/>
            <text xmlns="http://www.w3.org/2000/svg" fill="#383E45" xml:space="preserve" style="white-space: pre" font-family="Elsie" font-size="20" letter-spacing="0em" class="svgc_invert" filter="url(#filter_readability_theme_orchid)" y="796.02" x="50%" text-anchor="middle">Entry Title</text>

            <text fill="#383E45" xml:space="preserve" style="white-space: pre" font-family="Elsie" font-size="20" letter-spacing="0em">
                <tspan x="142.113" y="858.02">1</tspan>
            </text>
            <text fill="#383E45" xml:space="preserve" style="white-space: pre" font-family="Elsie" font-size="20" letter-spacing="0em">
                <tspan x="276.412" y="857.02">2</tspan>
            </text>
            <text fill="#383E45" xml:space="preserve" style="white-space: pre" font-family="Elsie" font-size="20" letter-spacing="0em">
                <tspan x="412.117" y="857.02">3</tspan>
            </text>
            <text fill="#383E45" xml:space="preserve" style="white-space: pre" font-family="Elsie" font-size="20" letter-spacing="0em">
                <tspan x="548.139" y="857.02">4</tspan>
            </text>
            <g>
                <path opacity="0.5" d="M169 891H124V894H169V891Z" fill="#383E45" class="svgc_invert" filter="url(#filter_readability_theme_orchid)"/>
                <path opacity="0.5" d="M173 897H120V900H173V897Z" fill="#383E45" class="svgc_invert" filter="url(#filter_readability_theme_orchid)"/>
            </g>
            <g>
                <path opacity="0.5" d="M305 891H260V894H305V891Z" fill="#383E45" class="svgc_invert" filter="url(#filter_readability_theme_orchid)"/>
                <path opacity="0.5" d="M309 897H256V900H309V897Z" fill="#383E45" class="svgc_invert" filter="url(#filter_readability_theme_orchid)"/>
            </g>
            <g>
                <path opacity="0.5" d="M439 891H394V894H439V891Z" fill="#383E45" class="svgc_invert" filter="url(#filter_readability_theme_orchid)"/>
                <path opacity="0.5" d="M443 897H390V900H443V897Z" fill="#383E45" class="svgc_invert" filter="url(#filter_readability_theme_orchid)"/>
            </g>
            <g>
                <path opacity="0.5" d="M577 891H532V894H577V891Z" fill="#383E45" class="svgc_invert" filter="url(#filter_readability_theme_orchid)"/>
                <path opacity="0.5" d="M581 897H528V900H581V897Z" fill="#383E45" class="svgc_invert" filter="url(#filter_readability_theme_orchid)"/>
            </g>
        </g>
        <g class="s_image_wall">
            <path d="M0 2114L700 2154V2737L0 2783V2114Z" fill="#383E45"/>
            <text xmlns="http://www.w3.org/2000/svg" fill="#383E45" xml:space="preserve" style="white-space: pre" font-family="Elsie" font-size="22" letter-spacing="0em" class="svgc_invert" filter="url(#filter_readability_theme_orchid)" y="2208.17" x="50%" text-anchor="middle">Section Title</text>
            <rect x="127" y="2232" width="446" height="6" fill="#383E45" fill-opacity="0.4" class="svgc_invert" filter="url(#filter_readability_theme_orchid)"/>
            <rect x="47" y="2276" width="190" height="129" rx="5" fill="url(#theme_orchid_s_image_wall_library_image_03_id)" class="img_reference_s_image_wall_library_image_03"/>
            <rect x="247" y="2276" width="190" height="290" rx="5" fill="url(#theme_orchid_s_image_wall_library_image_13_id)" class="img_reference_s_image_wall_library_image_13"/>
            <rect x="447" y="2276" width="190" height="129" rx="5" fill="url(#theme_orchid_s_image_wall_library_image_14_id)" class="img_reference_s_image_wall_library_image_14"/>
            <rect x="447" y="2415" width="190" height="286" rx="5" fill="url(#theme_orchid_s_image_wall_library_image_16_id)" class="img_reference_s_image_wall_library_image_16"/>
            <rect x="247" y="2576" width="190" height="124" rx="5" fill="url(#theme_orchid_s_image_wall_library_image_05_id)" class="img_reference_s_image_wall_library_image_05"/>
            <rect x="47" y="2415" width="190" height="286" rx="5" fill="url(#theme_orchid_s_image_wall_library_image_10_id)" class="img_reference_s_image_wall_library_image_10"/>
        </g>
        <g class="svgc_footer">
            <path d="M700 2993H0V3163H700V2993Z" fill="#FOOTER_COLOR" class="svgc_footer_bg"/>
            <path d="M630 3068H558V3071H630V3068Z" fill="#FOOTER_COLOR" class="svgc_invert" filter="url(#filter_readability_theme_orchid)"/>
            <path d="M609 3060H558V3063H609V3060Z" fill="#FOOTER_COLOR" class="svgc_invert" filter="url(#filter_readability_theme_orchid)"/>
            <path d="M248 3064H70V3067H248V3064Z" fill="#FOOTER_COLOR" fill-opacity="0.4" class="svgc_invert" filter="url(#filter_readability_theme_orchid)"/>
            <path d="M248 3072H70V3075H248V3072Z" fill="#FOOTER_COLOR" fill-opacity="0.4" class="svgc_invert" filter="url(#filter_readability_theme_orchid)"/>
            <path d="M248 3081H70V3083H248V3081Z" fill="#FOOTER_COLOR" fill-opacity="0.4" class="svgc_invert" filter="url(#filter_readability_theme_orchid)"/>
            <path d="M248 3089H70V3092H248V3089Z" fill="#FOOTER_COLOR" fill-opacity="0.4" class="svgc_invert" filter="url(#filter_readability_theme_orchid)"/>
            <path d="M248 3097H70V3100H248V3097Z" fill="#FOOTER_COLOR" fill-opacity="0.4" class="svgc_invert" filter="url(#filter_readability_theme_orchid)"/>
            <path d="M349 3064H298V3067H349V3064Z" fill="#FOOTER_COLOR" fill-opacity="0.4" class="svgc_invert" filter="url(#filter_readability_theme_orchid)"/>
            <path d="M402 3072H298V3075H402V3072Z" fill="#FOOTER_COLOR" fill-opacity="0.4" class="svgc_invert" filter="url(#filter_readability_theme_orchid)"/>
            <path d="M416 3081H298V3083H416V3081Z" fill="#FOOTER_COLOR" fill-opacity="0.4" class="svgc_invert" filter="url(#filter_readability_theme_orchid)"/>
            <path d="M445 3089H298V3092H445V3089Z" fill="#FOOTER_COLOR" fill-opacity="0.4" class="svgc_invert" filter="url(#filter_readability_theme_orchid)"/>
            <path d="M416 3097H298V3100H416V3097Z" fill="#FOOTER_COLOR" fill-opacity="0.4" class="svgc_invert" filter="url(#filter_readability_theme_orchid)"/>
            <path d="M620.5 3100C625.747 3100 630 3095.75 630 3090.5C630 3085.25 625.747 3081 620.5 3081C615.253 3081 611 3085.25 611 3090.5C611 3095.75 615.253 3100 620.5 3100Z" fill="#FOOTER_COLOR" class="svgc_invert" filter="url(#filter_readability_theme_orchid)"/>
            <path d="M594 3100C599.523 3100 604 3095.75 604 3090.5C604 3085.25 599.523 3081 594 3081C588.477 3081 584 3085.25 584 3090.5C584 3095.75 588.477 3100 594 3100Z" fill="#FOOTER_COLOR" class="svgc_invert" filter="url(#filter_readability_theme_orchid)"/>
            <path d="M568 3100C573.523 3100 578 3095.75 578 3090.5C578 3085.25 573.523 3081 568 3081C562.477 3081 558 3085.25 558 3090.5C558 3095.75 562.477 3100 568 3100Z" fill="#FOOTER_COLOR" class="svgc_invert" filter="url(#filter_readability_theme_orchid)"/>
            <path d="M139 3041H70V3051H139V3041Z" fill="#FOOTER_COLOR" class="svgc_invert" filter="url(#filter_readability_theme_orchid)"/>
        </g>
        <g class="s_freegrid">
            <rect y="969" width="700" height="485" fill="#F6F6F6"/>
            <path fill-rule="evenodd" clip-rule="evenodd" d="M410.755 969C357.865 1143.21 195.989 1270 4.5 1270C2.99817 1270 1.49815 1269.99 0 1269.98L0 969H410.755Z" fill="#7C6576"/>
            <rect y="1040" width="59" height="223" fill="url(#theme_orchid_s_freegrid_library_image_03_id)" class="img_reference_s_freegrid_library_image_03"/>
            <rect x="66" y="1017" width="159" height="130" rx="10" fill="url(#theme_orchid_s_freegrid_library_image_13_id)" class="img_reference_s_freegrid_library_image_13"/>
            <rect x="66" y="1156" width="159" height="130" rx="10" fill="url(#theme_orchid_s_freegrid_library_image_10_id)" class="img_reference_s_freegrid_library_image_10"/>
            <rect x="233" y="1040" width="175" height="223" rx="10" fill="url(#theme_orchid_s_freegrid_library_image_05_id)" class="img_reference_s_freegrid_library_image_05"/>
            <rect x="416" y="1017" width="154" height="267" rx="10" fill="url(#theme_orchid_s_freegrid_library_image_14_id)" class="img_reference_s_freegrid_library_image_14"/>
            <path d="M579 1040H700V1263H579V1040Z" fill="url(#theme_orchid_s_freegrid_library_image_16_id)" class="img_reference_s_freegrid_library_image_16"/>
            <text fill="#383E45" xml:space="preserve" style="white-space: pre" font-family="Elsie" font-size="24" letter-spacing="0em">
                <tspan x="70" y="1341.78">Section Title</tspan>
            </text>
            <path opacity="0.4" d="M398 1356H70V1359H398V1356Z" fill="#FFFFFF" class="svgc_invert" filter="url(#filter_readability_theme_orchid)"/>
            <path opacity="0.4" d="M374 1364H70V1367H374V1364Z" fill="#FFFFFF" class="svgc_invert" filter="url(#filter_readability_theme_orchid)"/>
            <path opacity="0.4" d="M290 1372H70V1375H290V1372Z" fill="#FFFFFF" class="svgc_invert" filter="url(#filter_readability_theme_orchid)"/>
            <rect x="536" y="1322" width="94" height="28" fill="#3AADAA"/>
            <text fill="#3AADAA" xml:space="preserve" style="white-space: pre" font-family="Arial" font-size="10" font-weight="bold" letter-spacing="0em" class="svgc_invert" filter="url(#filter_readability_theme_orchid)">
                <tspan x="557" y="1338.97">DISCOVER</tspan>
            </text>
        </g>
        <g class="s_image_text_overlap">
            <rect y="1454" width="700" height="325" fill="#383E45"/>
            <rect x="350" y="1454" width="350" height="325" fill="#7C6576"/>
            <rect x="66" y="1497" width="332" height="239" rx="4" fill="url(#theme_orchid_s_image_text_overlap_s_kickoff_default_image_id)" class="img_reference_s_image_text_overlap_s_kickoff_default_image"/>
            <g>
                <rect x="330" y="1520" width="300" height="193.617" fill="#FFFFFF"/>
                <path d="M597 1590H351V1596H597V1590Z" fill="#FFFFFF" class="svgc_invert" filter="url(#filter_readability_theme_orchid)"/>
                <path d="M562 1608.74H351V1614.5H562V1608.74Z" fill="#FFFFFF" class="svgc_invert" filter="url(#filter_readability_theme_orchid)"/>
                <path d="M573 1627H351V1633H573V1627Z" fill="#FFFFFF" class="svgc_invert" filter="url(#filter_readability_theme_orchid)"/>
                <path d="M584 1645H351V1651H584V1645Z" fill="#FFFFFF" class="svgc_invert" filter="url(#filter_readability_theme_orchid)"/>
                <path d="M562 1663.26H351V1669.02H562V1663.26Z" fill="#FFFFFF" class="svgc_invert" filter="url(#filter_readability_theme_orchid)"/>
                <path d="M396 1561.49H351V1563.79H396V1561.49Z" fill="#FFFFFF" fill-opacity="0.4" class="svgc_invert" filter="url(#filter_readability_theme_orchid)"/>
            </g>
        </g>
    </g>
</svg>
