<svg xmlns="http://www.w3.org/2000/svg" xmlns:xlink="http://www.w3.org/1999/xlink" width="70" height="70" viewBox="0 0 70 70"><defs><path id="a" d="M4 0h61c4 0 5 1 5 5v60c0 4-1 5-5 5H4c-3 0-4-1-4-5V5c0-4 1-5 4-5z"/><linearGradient id="c" x1="98.162%" x2="0%" y1="1.838%" y2="100%"><stop offset="0%" stop-color="#797DA5"/><stop offset="50.799%" stop-color="#6D7194"/><stop offset="100%" stop-color="#626584"/></linearGradient><path id="d" d="M55.253 36.993c-3.23 0-4.629 2.41-6.384 2.41-4.666 0-.419-13.45-.419-13.45s-15.27 6.106-15.27-.251c0-2.735 2.822-3.53 2.822-6.563 0-2.709-2.187-4.176-4.781-4.176-2.696 0-5.163 1.442-5.163 4.3 0 3.158 2.467 4.525 2.467 6.24 0 5.313-13.684 2.187-13.684 2.187v25.432s13.898 3.133 13.898-2.187c0-1.715-3.112-3.061-3.112-6.218 0-2.859 2.275-4.3 4.946-4.3 2.62 0 4.807 1.466 4.807 4.176 0 3.032-2.823 3.828-2.823 6.562 0 4.64 10.088 1.963 14.1 1.963 0 0-2.702-9.165 2.009-9.165 2.797 0 3.611 2.759 6.714 2.759 2.773 0 4.273-2.138 4.273-4.698 0-2.61-1.475-5.021-4.4-5.021z"/><path id="e" d="M55.253 34.993c-3.23 0-4.629 2.41-6.384 2.41-4.666 0 1.522-11.755-.419-13.45-1.94-1.695-15.27 6.106-15.27-.251 0-2.735 2.822-3.53 2.822-6.563 0-2.709-2.187-4.176-4.781-4.176-2.696 0-5.163 1.442-5.163 4.3 0 3.158 2.467 4.525 2.467 6.24 0 5.313-13.684 2.187-13.684 2.187v25.432s13.898 3.133 13.898-2.187c0-1.715-3.112-3.061-3.112-6.218 0-2.859 2.275-4.3 4.946-4.3 2.62 0 4.807 1.466 4.807 4.176 0 3.032-2.823 3.828-2.823 6.562 0 4.64 12.677 2.6 14.1 1.963 1.422-.636-2.702-9.165 2.009-9.165 2.797 0 3.611 2.759 6.714 2.759 2.773 0 4.273-2.138 4.273-4.698 0-2.61-1.475-5.021-4.4-5.021z"/></defs><g fill="none" fill-rule="evenodd"><mask id="b" fill="#fff"><use xlink:href="#a"/></mask><g mask="url(#b)"><path fill="url(#c)" d="M0 0H70V70H0z"/><path fill="#FFF" fill-opacity=".383" d="M4 1h61c2.667 0 4.333.667 5 2V0H0v3c.667-1.333 2-2 4-2z"/><path fill="#393939" d="M4 70c-2 0-4-.148-4-4.15V39.197L27 15l11 24.84 6 .066 11.113-.066 4.21 2.112L42.511 70H4z" opacity=".324"/><path fill="#000" fill-opacity=".383" d="M4 69h61c2.667 0 4.333-1 5-3v4H0v-4c.667 2 2 3 4 3z"/><use fill="#000" fill-rule="nonzero" opacity=".3" xlink:href="#d"/><use fill="#FFF" fill-rule="nonzero" xlink:href="#e"/></g></g></svg>