<svg width="50" height="50" viewBox="0 0 50 50" xmlns="http://www.w3.org/2000/svg"><path d="M18.012 25.826h-.69a6.387 6.387 0 0 0-2.83.95c-1.323.693-1.323 2.407-1.323 3.043v12.223c0 .127 0 .313.126.313.184-.058.127 0 .311-.058l1.127-.313c.127 0 .184-.127.184-.255v-4.815c.564.382 1.254.764 2.393.822h.437c2.704 0 3.9-2.848 3.9-6.204.011-2.916-1.127-5.706-3.635-5.706Zm-.449 10.324h-.253c-1-.057-1.702-.382-2.393-.764v-6.4c0-.695.943-1.551 2.462-1.62.138-.024.195-.024.31-.024 1.887 0 2.014 2.28 2.014 4.248 0 2.28-.184 4.56-2.14 4.56Z" fill="#3C4187"/><path d="M29.343 11.254h-.38c-1.45.058-3.279.694-3.279 1.076 0 .127 0 .185.057.313l.311.764c.058.127.058.127.127.127.253 0 1.277-.764 2.795-.764h.104c1.633 0 2.082.764 2.082 2.153v.822c-.506 0-1.323.057-2.21.185-1.829.312-3.9 1.273-3.9 3.935 0 2.083 1.14 3.299 3.026 3.299h.886c1.45-.128 2.393-.44 2.646-.637 1.196-.764 1.323-2.222 1.323-3.414v-4.56c0-2.026-.943-3.3-3.588-3.3Zm1.817 9.445c0 .382-1.138.822-2.209.891h-.38c-1.196 0-1.829-.949-1.829-1.898 0-1.389 1.07-1.967 2.21-2.222.885-.255 1.76-.255 2.208-.255v3.484Z" fill="#F89C33"/><path d="M40.674 26.335c0-.184.069-.44-.127-.44l-1.254-.069c-.184 0-.31 0-.31.127l-.07 9.502c-.632.568-1.38.765-2.519.765-1.45.058-2.324-1.459-2.393-3.3-.126-2.349 0-4.432 0-6.782 0-.058-.253-.255-.437-.255h-1.139s-.253.313-.253.382c.057 1.262.506 9.121.817 9.688.126.185.38.567.632.891.254.255.564.44.944.695.817.509 3.393.312 4.406-.567l.057 1.076-.057 1.203c-.07 1.204-.07 3.171-1.887 3.23-1.196 0-1.76-.764-1.956-.127 0 .057-.184.949-.126 1.076.184.255.76.51 1.76.567 1.324.058 2.83-.636 3.28-1.586.759-1.516.689-5.069.689-6.4l-.057-9.676Z" fill="#3C4187"/><path d="M19.829 12.458c0-.127.057-.185.057-.255 0-.127-.057-.255-.253-.313-.633-.312-1.956-.694-2.773-.694-2.082 0-3.531 1.332-3.531 3.3 0 3.552 5.165 2.974 5.165 5.45 0 1.135-.817 1.713-1.83 1.713-1.633 0-2.83-.822-3.025-.822-.057 0-.195 0-.253.197l-.311.764c-.057.058-.057.127-.057.255 0 .44 2.392 1.145 3.52 1.145 2.013 0 3.773-1.145 3.773-3.356 0-3.669-5.223-2.917-5.223-5.51 0-1.133.817-1.585 1.76-1.585 1.197 0 2.21.636 2.324.636.127 0 .184-.069.311-.255l.346-.67Zm3.463-.567c0-.185-.058-.313-.311-.313h-1.196c-.184 0-.31.07-.31.256v10.764c0 .184.125.255.31.255h1.196c.184 0 .31-.07.31-.255V11.89Zm.379-4.502c0-.764-.633-1.389-1.38-1.389-.818 0-1.45.636-1.45 1.39 0 .821.62 1.457 1.45 1.457.747 0 1.38-.637 1.38-1.458Z" fill="#F89C33"/><path d="M26.996 25.919h-.38c-1.45.07-3.279.694-3.279 1.076 0 .127 0 .185.058.313l.31.764c.058.127.058.127.127.127.253 0 1.277-.764 2.796-.764h.103c1.633 0 2.082.764 2.082 2.153v.822c-.506 0-1.323.057-2.21.184-1.828.313-3.899 1.274-3.899 3.936 0 2.083 1.139 3.299 3.025 3.299h.886c1.45-.127 2.393-.452 2.646-.637 1.196-.764 1.323-2.222 1.323-3.426v-4.56c.012-2.014-.942-3.287-3.588-3.287Zm1.83 9.445c0 .382-1.14.822-2.21.892h-.38c-1.196 0-1.829-.95-1.829-1.899 0-1.389 1.07-1.967 2.21-2.222.885-.255 1.76-.255 2.208-.255v3.484Z" fill="#3C4187"/><path d="M8.291 11.254h-.38c-1.45.058-3.279.694-3.279 1.076 0 .127 0 .185.058.313l.31.764c.058.127.058.127.127.127.254 0 1.277-.764 2.796-.764h.103c1.633 0 2.07.764 2.07 2.153v.822c-.506 0-1.323.057-2.196.185-1.83.312-3.9 1.273-3.9 3.935 0 2.083 1.139 3.299 3.025 3.299h.886c1.45-.128 2.393-.44 2.646-.637 1.196-.764 1.323-2.222 1.323-3.414v-4.56c0-2.026-.943-3.3-3.589-3.3Zm1.83 9.445c0 .382-1.14.822-2.197.891h-.38c-1.196 0-1.83-.949-1.83-1.898 0-1.389 1.07-1.967 2.21-2.222.885-.255 1.76-.255 2.196-.255v3.484Z" fill="#F89C33"/><path d="M46 27.423c0 .51-.184.95-.54 1.309a1.776 1.776 0 0 1-1.3.543c-.507 0-.944-.184-1.301-.543a1.798 1.798 0 0 1-.54-1.309c0-.509.183-.949.54-1.308a1.776 1.776 0 0 1 1.3-.544c.506 0 .944.185 1.3.544.357.36.54.788.54 1.308Zm-.241 0c0-.451-.161-.822-.472-1.145a1.541 1.541 0 0 0-1.127-.475 1.54 1.54 0 0 0-1.127.475 1.567 1.567 0 0 0-.472 1.145c0 .452.161.822.472 1.146.31.313.69.475 1.127.475.437 0 .817-.15 1.127-.475a1.61 1.61 0 0 0 .472-1.146Zm-.542.938h-.483l-.598-.764h-.265v.764h-.357v-1.956h.598c.138 0 .242 0 .323.011a.55.55 0 0 1 .23.081c.08.047.149.104.183.174a.595.595 0 0 1 .058.266.508.508 0 0 1-.115.348.883.883 0 0 1-.311.22l.737.856Zm-.701-1.4c0-.058-.011-.093-.023-.14a.252.252 0 0 0-.092-.103c-.034-.023-.08-.035-.115-.046-.046-.012-.103-.012-.172-.012h-.241v.66h.207c.069 0 .126-.012.195-.024a.355.355 0 0 0 .15-.07c.034-.034.068-.068.08-.115.011-.023.011-.08.011-.15Z" fill="#3C4187"/></svg>
