<svg width="70" height="70" viewBox="0 0 70 70" fill="none" xmlns="http://www.w3.org/2000/svg">
<mask id="mask0_3_167" style="mask-type:alpha" maskUnits="userSpaceOnUse" x="0" y="0" width="70" height="70">
<path d="M4 0H65C69 0 70 1 70 5V65C70 69 69 70 65 70H4C1 70 0 69 0 65V5C0 1 1 0 4 0Z" fill="white"/>
</mask>
<g mask="url(#mask0_3_167)">
<path fill-rule="evenodd" clip-rule="evenodd" d="M0 0H70V70H0V0Z" fill="url(#paint0_linear_3_167)"/>
<path fill-rule="evenodd" clip-rule="evenodd" d="M4 1H65C67.667 1 69.333 1.667 70 3V0H0V3C0.667 1.667 2 1 4 1Z" fill="white" fill-opacity="0.383"/>
<path fill-rule="evenodd" clip-rule="evenodd" d="M4 69H65C67.667 69 69.333 68 70 66V70H0V66C0.667 68 2 69 4 69Z" fill="black" fill-opacity="0.383"/>
</g>
<path opacity="0.324" fill-rule="evenodd" clip-rule="evenodd" d="M4 69C2 69 0 68 0 65V33.916C0 33.916 17 21.5 18.5 21C20 20.5 23 20.5 23 20.5L28.7087 22.703H37.25L48 23L51.576 24.968L51.34 46.978L39.224 69H4Z" fill="#393939"/>
<path d="M26.3156 37.6268C26.2605 38.8771 23.8758 39.3985 21.8287 39.3985C19.8212 39.3985 18.954 37.7879 18.954 36.2127C18.954 32.0789 24.5867 32.0789 26.3156 32.0415V37.6268ZM29.3105 27.5129C29.3105 24.2042 27.7743 22 23.2458 22C20.7247 22 17.1041 23.1389 17.1041 23.8109C17.1041 24.0066 17.1438 24.1234 17.2242 24.3204L17.7343 25.6986C17.7755 25.8197 17.8913 25.8962 18.0119 25.8962C18.3631 25.8962 20.1774 24.6392 22.8117 24.6392C25.6093 24.6392 26.3157 25.8962 26.3157 28.1833V29.5979C23.8759 29.6769 16 29.7955 16 36.4483C16 39.9537 18.0119 42 21.118 42C25.7194 42 29.3105 41.2544 29.3105 35.901V27.5129Z" fill="#465C68"/>
<path d="M26.3156 35.6268C26.2605 36.8771 23.8758 37.3985 21.8287 37.3985C19.8212 37.3985 18.954 35.7879 18.954 34.2127C18.954 30.0789 24.5867 30.0789 26.3156 30.0415V35.6268ZM29.3105 25.5129C29.3105 22.2042 27.7743 20 23.2458 20C20.7247 20 17.1041 21.1389 17.1041 21.8109C17.1041 22.0066 17.1438 22.1234 17.2242 22.3204L17.7343 23.6986C17.7755 23.8197 17.8913 23.8962 18.0119 23.8962C18.3631 23.8962 20.1774 22.6392 22.8117 22.6392C25.6093 22.6392 26.3157 23.8962 26.3157 26.1833V27.5979C23.8759 27.6769 16 27.7955 16 34.4483C16 37.9537 18.0119 40 21.118 40C25.7194 40 29.3105 39.2544 29.3105 33.901V25.5129Z" fill="white"/>
<path d="M19.2568 45L19.25 47.555C19.25 49.069 20.464 50.297 21.964 50.297H49.036C50.537 50.297 51.75 49.069 51.75 47.555V27.445C51.75 25.931 50.536 24.703 49.036 24.703H32V27.445H48.697C48.7874 27.4458 48.8737 27.4823 48.9372 27.5466C49.0008 27.6108 49.0363 27.6976 49.036 27.788V31H32V37.5H49.036V47.212C49.0363 47.3024 49.0008 47.3892 48.9372 47.4534C48.8737 47.5177 48.7874 47.5542 48.697 47.555H22.303C22.116 47.555 21.964 47.4 21.964 47.212V45H19.2568Z" fill="#465C68"/>
<path d="M14.423 55.642H15.459V58.474H16.219V55.642H17.256V55H14.423V55.642Z" fill="#465C68"/>
<path d="M18.492 55H17.422V58.474H18.133V56.036H18.143L18.991 58.474H19.577L20.424 56.012H20.434V58.474H21.145V55H20.075L19.311 57.389H19.301L18.492 55Z" fill="#465C68"/>
<path d="M19.2568 43L19.25 45.555C19.25 47.069 20.464 48.297 21.964 48.297H49.036C50.537 48.297 51.75 47.069 51.75 45.555V25.445C51.75 23.931 50.536 22.703 49.036 22.703H32V25.445H48.697C48.7874 25.4458 48.8737 25.4823 48.9372 25.5466C49.0008 25.6108 49.0363 25.6976 49.036 25.788V29H32V35.5H49.036V45.212C49.0363 45.3024 49.0008 45.3892 48.9372 45.4534C48.8737 45.5177 48.7874 45.5542 48.697 45.555H22.303C22.116 45.555 21.964 45.4 21.964 45.212V43H19.2568Z" fill="white"/>
<path d="M14.423 53.642H15.459V56.474H16.219V53.642H17.256V53H14.423V53.642Z" fill="white"/>
<path d="M18.492 53H17.422V56.474H18.133V54.036H18.143L18.991 56.474H19.577L20.424 54.012H20.434V56.474H21.145V53H20.075L19.311 55.389H19.301L18.492 53Z" fill="white"/>
<defs>
<linearGradient id="paint0_linear_3_167" x1="70" y1="0" x2="0" y2="70" gradientUnits="userSpaceOnUse">
<stop stop-color="#CDC484"/>
<stop offset="1" stop-color="#B5AA59"/>
</linearGradient>
</defs>
</svg>
