<svg width="240" height="72" viewBox="0 0 240 72" fill="none" xmlns="http://www.w3.org/2000/svg">
<path d="M54.3867 46.674V47.674H8V46.674H54.3867ZM55.3867 45.674V27C55.3867 26.4477 54.939 26 54.3867 26H8C7.48233 26 7.05622 26.3933 7.00488 26.8975L7 27V45.674C7 46.2263 7.44772 46.674 8 46.674V47.674C6.89543 47.674 6 46.7786 6 45.674V27C6 25.8954 6.89543 25 8 25H54.3867C55.4913 25 56.3867 25.8954 56.3867 27V45.674C56.3867 46.7786 55.4913 47.674 54.3867 47.674V46.674C54.939 46.674 55.3867 46.2263 55.3867 45.674Z" fill="white"/>
<rect x="9.14917" y="28.2393" width="15.7459" height="16.1957" rx="1" fill="#9CCDE4"/>
<path d="M17.0221 32.2474H14.1943L12.2983 34.7849L13.3791 36.2164H14.0216V40.9931H20.0151V36.2164H20.6673L21.7459 34.7849L19.8499 32.2474H17.0221Z" fill="#E89849"/>
<path d="M19.8501 31.9974L19.9077 32.0043C19.9641 32.0177 20.0148 32.0506 20.0503 32.098L21.9458 34.6351C22.0123 34.7242 22.0128 34.8471 21.9458 34.9359L20.8647 36.3676C20.8176 36.43 20.7437 36.467 20.6655 36.4672H20.0132C19.8752 36.4672 19.7633 36.3551 19.7632 36.2172C19.7632 36.0791 19.8751 35.9672 20.0132 35.9672H20.5395L21.4321 34.7836L19.7251 32.4974H14.3198L12.6108 34.7845L13.5014 35.9672H14.019L14.0698 35.972C14.1836 35.9954 14.269 36.0964 14.269 36.2172C14.2689 36.3377 14.1835 36.4379 14.0698 36.4613L14.019 36.4672H13.3764C13.2982 36.467 13.2244 36.43 13.1772 36.3676L12.0991 34.9349C12.0322 34.8462 12.0316 34.7242 12.0981 34.6351L13.9936 32.098C14.0407 32.035 14.1151 31.9976 14.1938 31.9974H19.8501Z" fill="#89440B"/>
<path d="M13.7693 34.2058C13.7693 34.0677 13.8812 33.9558 14.0193 33.9558C14.1574 33.9558 14.2693 34.0677 14.2693 34.2058V40.7439H19.7625V35.407C19.7625 35.269 19.8745 35.1572 20.0125 35.157C20.1505 35.157 20.2625 35.2689 20.2625 35.407V40.9939C20.2623 41.1318 20.1504 41.2439 20.0125 41.2439H14.0193C13.8813 41.2439 13.7694 41.1318 13.7693 40.9939V34.2058Z" fill="#89440B"/>
<path d="M18.2262 32.6578C18.2679 32.5262 18.4091 32.4531 18.5407 32.4947C18.672 32.5366 18.7443 32.6768 18.7028 32.8082C18.5983 33.138 18.4039 33.4311 18.1413 33.652C17.8785 33.8729 17.5583 34.0122 17.2194 34.0524C16.8807 34.0924 16.5385 34.0316 16.2331 33.8776C15.9656 33.7427 15.7363 33.5421 15.5661 33.2945L15.4967 33.1862L15.4762 33.1403C15.4383 33.0302 15.4814 32.9047 15.5856 32.8434C15.6897 32.7821 15.8202 32.805 15.8981 32.8912L15.9284 32.9322L16.0338 33.0856C16.1495 33.2306 16.2938 33.3486 16.4577 33.4313C16.676 33.5414 16.92 33.5848 17.1608 33.5563C17.4017 33.5277 17.631 33.4281 17.82 33.2692C18.0087 33.1103 18.15 32.8983 18.2262 32.6578Z" fill="#89440B"/>
<path d="M20.0129 38.8828L20.0627 38.8876C20.1769 38.9108 20.2629 39.0118 20.2629 39.1328C20.2629 39.2537 20.1769 39.3547 20.0627 39.3779L20.0129 39.3828H19.0813C18.9432 39.3828 18.8313 39.2708 18.8313 39.1328C18.8313 38.9947 18.9432 38.8828 19.0813 38.8828H20.0129Z" fill="#89440B"/>
<path d="M20.0129 39.515C20.151 39.515 20.2629 39.6269 20.2629 39.765C20.2629 39.9031 20.151 40.015 20.0129 40.015H17.72C17.5819 40.015 17.47 39.9031 17.47 39.765C17.47 39.6269 17.5819 39.515 17.72 39.515H20.0129Z" fill="#89440B"/>
<rect x="31.1934" y="34.7175" width="18.895" height="3.23915" fill="#D6D6D6"/>
<path d="M113.591 46.674V47.674H67.2046V46.674H113.591ZM114.591 45.674V27C114.591 26.4477 114.144 26 113.591 26H67.2046C66.6869 26 66.2608 26.3933 66.2095 26.8975L66.2046 27V45.674C66.2046 46.2263 66.6523 46.674 67.2046 46.674V47.674C66.1 47.674 65.2046 46.7786 65.2046 45.674V27C65.2046 25.8954 66.1 25 67.2046 25H113.591C114.696 25 115.591 25.8954 115.591 27V45.674C115.591 46.7786 114.696 47.674 113.591 47.674V46.674C114.144 46.674 114.591 46.2263 114.591 45.674Z" fill="white"/>
<rect x="68.3538" y="28.2393" width="15.7459" height="16.1957" rx="1" fill="#9CCDE4"/>
<path d="M77.8704 38.1379H75.8792V41.1279H77.8704V38.1379Z" fill="#E89849"/>
<path d="M77.8704 37.8879C78.0084 37.8879 78.1204 37.9998 78.1204 38.1379V41.1281C78.1202 41.2661 78.0084 41.3781 77.8704 41.3781H75.8792C75.7412 41.3781 75.6293 41.2661 75.6292 41.1281V38.1379C75.6292 37.9998 75.7411 37.8879 75.8792 37.8879H77.8704ZM76.1292 40.8781H77.6204V38.3879H76.1292V40.8781Z" fill="#89440B"/>
<path d="M77.8704 31.5463H75.8792V34.5363H77.8704V31.5463Z" fill="#E89849"/>
<path d="M77.8704 31.2963C78.0084 31.2963 78.1204 31.4082 78.1204 31.5463V34.5365C78.1202 34.6745 78.0084 34.7865 77.8704 34.7865H75.8792C75.7412 34.7865 75.6293 34.6745 75.6292 34.5365V31.5463C75.6292 31.4082 75.7411 31.2963 75.8792 31.2963H77.8704ZM76.1292 34.2865H77.6204V31.7963H76.1292V34.2865Z" fill="#89440B"/>
<path d="M79.122 36.4347C79.1219 36.8798 78.9899 37.3149 78.7425 37.685C78.4952 38.055 78.1437 38.3435 77.7324 38.5138C77.3212 38.6841 76.8687 38.7286 76.4321 38.6417C75.9956 38.5549 75.5946 38.3405 75.2798 38.0258C74.9651 37.711 74.7507 37.31 74.6639 36.8735C74.577 36.4369 74.6216 35.9844 74.7919 35.5732C74.9621 35.1619 75.2506 34.8104 75.6206 34.5631C75.9907 34.3157 76.4258 34.1837 76.8709 34.1836C77.4679 34.1836 78.0405 34.4208 78.4627 34.8429C78.8848 35.2651 79.122 35.8377 79.122 36.4347Z" fill="#E89849"/>
<path d="M78.8716 36.4346C78.8716 35.9039 78.661 35.3948 78.2857 35.0195C77.9104 34.6444 77.4013 34.4336 76.8707 34.4336C76.4751 34.4337 76.0882 34.5507 75.7593 34.7705C75.4304 34.9904 75.1744 35.3034 75.023 35.6689C74.8717 36.0343 74.8317 36.4363 74.9088 36.8242C74.9859 37.2122 75.1769 37.5689 75.4566 37.8486C75.7364 38.1284 76.093 38.3193 76.481 38.3965C76.8691 38.4737 77.2717 38.4346 77.6373 38.2832C78.0027 38.1318 78.3149 37.8748 78.5347 37.5459C78.7546 37.217 78.8716 36.8302 78.8716 36.4346ZM79.3716 36.4346C79.3715 36.9291 79.2256 37.4131 78.9507 37.8242C78.6759 38.2353 78.2846 38.5559 77.8277 38.7451C77.3709 38.9342 76.8682 38.9832 76.3834 38.8867C75.8983 38.7902 75.4528 38.5518 75.1031 38.2021C74.7535 37.8525 74.515 37.4068 74.4185 36.9219C74.3221 36.437 74.3719 35.9343 74.5611 35.4775C74.7503 35.0206 75.0708 34.6303 75.482 34.3555C75.8931 34.0807 76.3762 33.9337 76.8707 33.9336C77.5339 33.9336 78.1702 34.1971 78.6392 34.666C79.1082 35.135 79.3716 35.7713 79.3716 36.4346Z" fill="#89440B"/>
<path d="M76.6208 36.4351V35.0991C76.6208 34.961 76.7328 34.8491 76.8708 34.8491C77.0089 34.8491 77.1208 34.961 77.1208 35.0991V36.4351C77.1208 36.5731 77.0089 36.6851 76.8708 36.6851C76.7328 36.6851 76.6208 36.5731 76.6208 36.4351Z" fill="#89440B"/>
<path d="M77.5555 35.6744C77.6702 35.5979 77.8254 35.6291 77.9022 35.7437C77.9786 35.8584 77.9474 36.0137 77.8328 36.0904L77.0096 36.6412C76.8949 36.7178 76.7397 36.6875 76.6629 36.5728C76.5861 36.4581 76.6175 36.303 76.7322 36.2262L77.5555 35.6744Z" fill="#89440B"/>
<rect x="90.3979" y="34.7175" width="18.895" height="3.23915" fill="#D6D6D6"/>
<path d="M172.795 46.674V47.674H126.409V46.674H172.795ZM173.795 45.674V27C173.795 26.4477 173.348 26 172.795 26H126.409C125.891 26 125.465 26.3933 125.414 26.8975L125.409 27V45.674C125.409 46.2263 125.856 46.674 126.409 46.674V47.674C125.304 47.674 124.409 46.7786 124.409 45.674V27C124.409 25.8954 125.304 25 126.409 25H172.795C173.9 25 174.795 25.8954 174.795 27V45.674C174.795 46.7786 173.9 47.674 172.795 47.674V46.674C173.348 46.674 173.795 46.2263 173.795 45.674Z" fill="white"/>
<rect x="149.602" y="34.7175" width="18.895" height="3.23915" fill="#D6D6D6"/>
<rect x="127.558" y="28.2393" width="15.7459" height="16.1957" rx="1" fill="#9CCDE4"/>
<path d="M139.108 41.1957H136.589L135.695 34.3693L134.8 41.1957H132.282V31.4783H139.108V41.1957Z" fill="#E89849"/>
<path d="M139.109 31.2283C139.247 31.2285 139.359 31.3403 139.359 31.4783V41.196C139.359 41.3338 139.247 41.4458 139.109 41.446H136.588C136.463 41.446 136.357 41.3526 136.34 41.2283L135.694 36.2957L135.048 41.2283C135.032 41.3527 134.926 41.446 134.8 41.446H132.282C132.144 41.446 132.032 41.334 132.032 41.196V31.4783C132.032 31.3402 132.144 31.2283 132.282 31.2283H139.109ZM132.532 40.946H134.581L135.447 34.3367L135.457 34.2917C135.489 34.1905 135.585 34.1189 135.695 34.1189C135.82 34.119 135.927 34.2124 135.943 34.3367L136.808 40.946H138.859V31.7283H132.532V40.946Z" fill="#89440B"/>
<path d="M134.46 33.0626C134.598 33.0629 134.71 33.1747 134.71 33.3126V34.8282C134.71 34.9286 134.649 35.0196 134.557 35.0587L133.479 35.5148C133.415 35.5418 133.342 35.5411 133.279 35.5128L132.18 35.0216C132.054 34.9653 131.997 34.8176 132.053 34.6915C132.102 34.5813 132.222 34.5239 132.335 34.549L132.383 34.5656L133.383 35.0118L134.21 34.6622V33.5626H133.211C133.073 33.5626 132.961 33.4507 132.961 33.3126C132.961 33.1746 133.073 33.0626 133.211 33.0626H134.46Z" fill="#89440B"/>
<path d="M139.089 33.0626C139.227 33.0626 139.339 33.1746 139.339 33.3126C139.339 33.4507 139.227 33.5626 139.089 33.5626H137.161V34.6622L138.087 35.0548C138.214 35.1087 138.274 35.2558 138.22 35.3829C138.173 35.494 138.055 35.5535 137.941 35.5304L137.893 35.5148L136.814 35.0587C136.721 35.0196 136.661 34.9286 136.661 34.8282V33.3126L136.666 33.2618C136.69 33.1481 136.791 33.0626 136.911 33.0626H139.089Z" fill="#89440B"/>
<path d="M232 46.674V47.674H185.613V46.674H232ZM233 45.674V27C233 26.4477 232.552 26 232 26H185.613C185.096 26 184.669 26.3933 184.618 26.8975L184.613 27V45.674C184.613 46.2263 185.061 46.674 185.613 46.674V47.674C184.509 47.674 183.613 46.7786 183.613 45.674V27C183.613 25.8954 184.509 25 185.613 25H232C233.105 25 234 25.8954 234 27V45.674C234 46.7786 233.105 47.674 232 47.674V46.674C232.552 46.674 233 46.2263 233 45.674Z" fill="white"/>
<rect x="186.762" y="28.2393" width="15.7459" height="16.1957" rx="1" fill="#9CCDE4"/>
<rect x="208.806" y="34.7175" width="18.895" height="3.23915" fill="#D6D6D6"/>
<path d="M194.636 31.4783H191.808L189.912 34.2976L190.993 35.8882H191.635V41.1955H197.629V35.8882H198.281L199.359 34.2976L197.463 31.4783H194.636Z" fill="#E89849"/>
<path d="M197.464 31.2283L197.524 31.2361C197.583 31.2509 197.636 31.2869 197.671 31.3386L199.567 34.158C199.624 34.2427 199.624 34.3538 199.566 34.4382L198.485 36.0291C198.439 36.0974 198.362 36.1383 198.279 36.1384H197.627C197.489 36.1384 197.377 36.0265 197.377 35.8884C197.377 35.7504 197.489 35.6384 197.627 35.6384H198.146L199.057 34.2957L197.33 31.7283H191.941L190.213 34.2966L191.122 35.6384H191.633C191.771 35.6384 191.883 35.7504 191.883 35.8884C191.883 36.0265 191.771 36.1384 191.633 36.1384H190.99C190.907 36.1383 190.83 36.0974 190.784 36.0291L189.705 34.4382C189.648 34.3538 189.648 34.2426 189.705 34.158L191.6 31.3386L191.64 31.2927C191.686 31.2518 191.745 31.2284 191.807 31.2283H197.464Z" fill="#89440B"/>
<path d="M191.383 33.6538C191.383 33.5157 191.495 33.4038 191.633 33.4038C191.771 33.4038 191.883 33.5157 191.883 33.6538V40.9458H197.376V34.9878C197.376 34.8499 197.488 34.738 197.626 34.7378C197.764 34.7378 197.876 34.8498 197.876 34.9878V41.1958C197.876 41.3338 197.764 41.4458 197.626 41.4458H191.633C191.495 41.4458 191.383 41.3338 191.383 41.1958V33.6538Z" fill="#89440B"/>
<path d="M196.146 31.7776C196.279 31.8155 196.356 31.9534 196.318 32.0862C196.216 32.4439 196.026 32.7649 195.764 33.0091C195.503 33.2535 195.181 33.4109 194.837 33.4563C194.492 33.5017 194.144 33.4323 193.837 33.26C193.568 33.1095 193.341 32.8869 193.174 32.6165L193.105 32.4973L193.086 32.4505C193.053 32.3389 193.102 32.2161 193.209 32.1594C193.331 32.0949 193.482 32.1411 193.547 32.263C193.677 32.509 193.864 32.702 194.081 32.8235C194.297 32.9447 194.536 32.9911 194.771 32.9602C195.006 32.9293 195.233 32.8213 195.423 32.6438C195.613 32.4659 195.759 32.2258 195.838 31.9495C195.875 31.8168 196.014 31.74 196.146 31.7776Z" fill="#89440B"/>
<path d="M197.626 38.8797L197.676 38.8846C197.79 38.9077 197.876 39.0087 197.876 39.1297C197.876 39.2507 197.79 39.3517 197.676 39.3748L197.626 39.3797H196.695C196.557 39.3797 196.445 39.2678 196.445 39.1297C196.445 38.9916 196.557 38.8797 196.695 38.8797H197.626Z" fill="#89440B"/>
<path d="M197.626 39.5809C197.764 39.5809 197.876 39.6929 197.876 39.8309C197.876 39.969 197.764 40.0809 197.626 40.0809H195.333C195.195 40.0809 195.083 39.969 195.083 39.8309C195.083 39.6929 195.195 39.5809 195.333 39.5809H197.626Z" fill="#89440B"/>
</svg>
