<svg width="240" height="54" viewBox="0 0 240 54" fill="none" xmlns="http://www.w3.org/2000/svg">
<rect x="6" y="8" width="228" height="1" fill="#ADB5BD"/>
<rect x="6" y="46" width="228" height="1" fill="#ADB5BD"/>
<rect x="44" y="9" width="1" height="38" fill="#ADB5BD"/>
<rect x="82" y="8" width="1" height="38" fill="#ADB5BD"/>
<rect x="120" y="9" width="1" height="38" fill="#ADB5BD"/>
<rect x="158" y="9" width="1" height="38" fill="#ADB5BD"/>
<rect x="196" y="9" width="1" height="38" fill="#ADB5BD"/>
<rect x="15.5" y="16.3375" width="19" height="15.2" rx="1" fill="#9CCDE4"/>
<rect x="15.5" y="36.4062" width="19" height="2.375" fill="#D6D6D6"/>
<rect x="53.5" y="16.3375" width="19" height="15.2" rx="1" fill="#9CCDE4"/>
<rect x="53.5" y="36.4062" width="19" height="2.375" fill="#D6D6D6"/>
<rect x="91.5" y="16.3375" width="19" height="15.2" rx="1" fill="#9CCDE4"/>
<rect x="91.5" y="36.4062" width="19" height="2.375" fill="#D6D6D6"/>
<rect x="129.5" y="16.3375" width="19" height="15.2" rx="1" fill="#9CCDE4"/>
<rect x="129.5" y="36.4062" width="19" height="2.375" fill="#D6D6D6"/>
<rect x="167.5" y="16.3375" width="19" height="15.2" rx="1" fill="#9CCDE4"/>
<rect x="167.5" y="36.4062" width="19" height="2.375" fill="#D6D6D6"/>
<rect x="205.5" y="16.3375" width="19" height="15.2" rx="1" fill="#9CCDE4"/>
<rect x="205.5" y="36.4062" width="19" height="2.375" fill="#D6D6D6"/>
<path d="M24.6372 18.8906H21.5764L19.5244 21.5607L20.6942 23.0672H21.3895V28.0937H27.8767V23.0672H28.5827L29.75 21.5607L27.6979 18.8906H24.6372Z" fill="#E89849"/>
<path d="M21.3871 23.0676H20.6917L19.5244 21.5607L21.5764 18.8906H27.6979L29.75 21.5607L28.5802 23.0676H27.8742" stroke="#89440B" stroke-width="0.5" stroke-linecap="round" stroke-linejoin="round"/>
<path d="M27.8741 22.2145V28.0938H21.387V20.951" stroke="#89440B" stroke-width="0.5" stroke-linecap="round" stroke-linejoin="round"/>
<path d="M26.1987 19.4011C26.1009 19.7014 25.9189 19.9673 25.6744 20.1671C25.4299 20.367 25.1331 20.4925 24.8194 20.5286C24.5056 20.5648 24.1881 20.5101 23.9046 20.371C23.621 20.232 23.3833 20.0144 23.2198 19.7443" stroke="#89440B" stroke-width="0.5" stroke-linecap="round" stroke-linejoin="round"/>
<path d="M27.874 26.1359H26.8658" stroke="#89440B" stroke-width="0.5" stroke-linecap="round" stroke-linejoin="round"/>
<path d="M27.8741 26.8015H25.3921" stroke="#89440B" stroke-width="0.5" stroke-linecap="round" stroke-linejoin="round"/>
<path d="M139.363 18.8906H136.302L134.25 21.5607L135.42 23.0672H136.115V28.0937H142.602V23.0672H143.308L144.476 21.5607L142.424 18.8906H139.363Z" fill="#E89849"/>
<path d="M136.113 23.0676H135.417L134.25 21.5607L136.302 18.8906H142.424L144.476 21.5607L143.306 23.0676H142.6" stroke="#89440B" stroke-width="0.5" stroke-linecap="round" stroke-linejoin="round"/>
<path d="M142.6 22.2145V28.0938H136.113V20.951" stroke="#89440B" stroke-width="0.5" stroke-linecap="round" stroke-linejoin="round"/>
<path d="M140.924 19.4011C140.827 19.7014 140.645 19.9673 140.4 20.1671C140.156 20.367 139.859 20.4925 139.545 20.5286C139.231 20.5648 138.914 20.5101 138.63 20.371C138.347 20.232 138.109 20.0144 137.945 19.7443" stroke="#89440B" stroke-width="0.5" stroke-linecap="round" stroke-linejoin="round"/>
<path d="M142.6 26.1359H141.591" stroke="#89440B" stroke-width="0.5" stroke-linecap="round" stroke-linejoin="round"/>
<path d="M142.6 26.8015H140.118" stroke="#89440B" stroke-width="0.5" stroke-linecap="round" stroke-linejoin="round"/>
<path d="M64.0848 25.611H61.965V28.7942H64.0848V25.611Z" fill="#E89849" stroke="#89440B" stroke-width="0.5" stroke-linecap="round" stroke-linejoin="round"/>
<path d="M64.0848 18.5943H61.965V21.7775H64.0848V18.5943Z" fill="#E89849" stroke="#89440B" stroke-width="0.5" stroke-linecap="round" stroke-linejoin="round"/>
<path d="M65.4172 23.7973C65.4171 24.2712 65.2765 24.7344 65.0132 25.1283C64.7499 25.5223 64.3756 25.8294 63.9378 26.0107C63.5 26.192 63.0183 26.2394 62.5535 26.1469C62.0888 26.0544 61.6619 25.8262 61.3268 25.4912C60.9917 25.1561 60.7635 24.7292 60.6711 24.2644C60.5786 23.7997 60.626 23.3179 60.8073 22.8801C60.9886 22.4423 61.2956 22.0681 61.6896 21.8048C62.0836 21.5415 62.5468 21.4009 63.0206 21.4008C63.6562 21.4008 64.2658 21.6533 64.7152 22.1027C65.1647 22.5522 65.4172 23.1617 65.4172 23.7973Z" fill="#E89849" stroke="#89440B" stroke-width="0.5" stroke-linecap="round" stroke-linejoin="round"/>
<path d="M63.0208 23.7977V22.375" stroke="#89440B" stroke-width="0.5" stroke-linecap="round" stroke-linejoin="round"/>
<path d="M63.0208 23.7973L63.8972 23.2104" stroke="#89440B" stroke-width="0.5" stroke-linecap="round" stroke-linejoin="round"/>
<path d="M178.085 25.611H175.965V28.7942H178.085V25.611Z" fill="#E89849" stroke="#89440B" stroke-width="0.5" stroke-linecap="round" stroke-linejoin="round"/>
<path d="M178.085 18.5943H175.965V21.7775H178.085V18.5943Z" fill="#E89849" stroke="#89440B" stroke-width="0.5" stroke-linecap="round" stroke-linejoin="round"/>
<path d="M179.417 23.7973C179.417 24.2712 179.276 24.7344 179.013 25.1283C178.75 25.5223 178.376 25.8294 177.938 26.0107C177.5 26.192 177.018 26.2394 176.554 26.1469C176.089 26.0544 175.662 25.8262 175.327 25.4912C174.992 25.1561 174.764 24.7292 174.671 24.2644C174.579 23.7997 174.626 23.3179 174.807 22.8801C174.989 22.4423 175.296 22.0681 175.69 21.8048C176.084 21.5415 176.547 21.4009 177.021 21.4008C177.656 21.4008 178.266 21.6533 178.715 22.1027C179.165 22.5522 179.417 23.1617 179.417 23.7973Z" fill="#E89849" stroke="#89440B" stroke-width="0.5" stroke-linecap="round" stroke-linejoin="round"/>
<path d="M177.021 23.7977V22.375" stroke="#89440B" stroke-width="0.5" stroke-linecap="round" stroke-linejoin="round"/>
<path d="M177.021 23.7973L177.897 23.2104" stroke="#89440B" stroke-width="0.5" stroke-linecap="round" stroke-linejoin="round"/>
<path d="M103.648 28.9844H101.356L100.542 21.6851L99.7286 28.9844H97.4376V18.5938H103.648V28.9844Z" fill="#E89849" stroke="#89440B" stroke-width="0.5" stroke-linecap="round" stroke-linejoin="round"/>
<path d="M98.2831 20.5555H99.4192V22.176L98.4378 22.6646L97.4376 22.139" stroke="#89440B" stroke-width="0.5" stroke-linecap="round" stroke-linejoin="round"/>
<path d="M103.63 20.5555H101.649V22.176L102.631 22.6646" stroke="#89440B" stroke-width="0.5" stroke-linecap="round" stroke-linejoin="round"/>
<path d="M217.648 28.9844H215.355L214.542 21.6851L213.729 28.9844H211.438V18.5938H217.648V28.9844Z" fill="#E89849" stroke="#89440B" stroke-width="0.5" stroke-linecap="round" stroke-linejoin="round"/>
<path d="M212.283 20.5555H213.419V22.176L212.438 22.6646L211.438 22.139" stroke="#89440B" stroke-width="0.5" stroke-linecap="round" stroke-linejoin="round"/>
<path d="M217.63 20.5555H215.649V22.176L216.631 22.6646" stroke="#89440B" stroke-width="0.5" stroke-linecap="round" stroke-linejoin="round"/>
</svg>
