<svg width="240" height="54" viewBox="0 0 240 54" fill="none" xmlns="http://www.w3.org/2000/svg">
<rect x="6" y="15.308" width="20.7273" height="16.5819" rx="1" fill="#9CCDE4"/>
<rect x="6" y="37.2012" width="20.7273" height="2.59092" fill="#D6D6D6"/>
<rect x="47.4546" y="15.308" width="20.7273" height="16.5819" rx="1" fill="#9CCDE4"/>
<rect x="47.4546" y="37.2012" width="20.7273" height="2.59092" fill="#D6D6D6"/>
<rect x="88.9091" y="15.308" width="20.7273" height="16.5819" rx="1" fill="#9CCDE4"/>
<rect x="88.9091" y="37.2012" width="20.7273" height="2.59092" fill="#D6D6D6"/>
<rect x="130.364" y="15.308" width="20.7273" height="16.5819" rx="1" fill="#9CCDE4"/>
<rect x="130.364" y="37.2012" width="20.7273" height="2.59092" fill="#D6D6D6"/>
<rect x="171.818" y="15.308" width="20.7273" height="16.5819" rx="1" fill="#9CCDE4"/>
<rect x="171.818" y="37.2012" width="20.7273" height="2.59092" fill="#D6D6D6"/>
<rect x="213.273" y="15.308" width="20.7273" height="16.5819" rx="1" fill="#9CCDE4"/>
<rect x="213.273" y="37.2012" width="20.7273" height="2.59092" fill="#D6D6D6"/>
<path d="M15.9678 18.0932H12.6288L10.3902 21.0061L11.6664 22.6495H12.4249V28.1329H19.5018V22.6495H20.272L21.5454 21.0061L19.3068 18.0932H15.9678Z" fill="#E89849"/>
<path d="M12.4222 22.6499H11.6637L10.3902 21.0061L12.6288 18.0932H19.3068L21.5454 21.0061L20.2693 22.6499H19.4991" stroke="#89440B" stroke-width="0.5" stroke-linecap="round" stroke-linejoin="round"/>
<path d="M19.499 21.7192V28.133H12.4221V20.3409" stroke="#89440B" stroke-width="0.5" stroke-linecap="round" stroke-linejoin="round"/>
<path d="M17.6713 18.6501C17.5646 18.9777 17.3661 19.2677 17.0993 19.4858C16.8326 19.7038 16.5088 19.8407 16.1666 19.8801C15.8243 19.9195 15.4779 19.8599 15.1686 19.7082C14.8593 19.5565 14.6 19.3192 14.4216 19.0245" stroke="#89440B" stroke-width="0.5" stroke-linecap="round" stroke-linejoin="round"/>
<path d="M19.4989 25.9971H18.399" stroke="#89440B" stroke-width="0.5" stroke-linecap="round" stroke-linejoin="round"/>
<path d="M19.499 26.7232H16.7914" stroke="#89440B" stroke-width="0.5" stroke-linecap="round" stroke-linejoin="round"/>
<path d="M141.123 18.0932H137.784L135.546 21.0061L136.822 22.6495H137.58V28.1329H144.657V22.6495H145.427L146.701 21.0061L144.462 18.0932H141.123Z" fill="#E89849"/>
<path d="M137.578 22.6499H136.819L135.546 21.0061L137.784 18.0932H144.462L146.701 21.0061L145.425 22.6499H144.654" stroke="#89440B" stroke-width="0.5" stroke-linecap="round" stroke-linejoin="round"/>
<path d="M144.654 21.7192V28.133H137.578V20.3409" stroke="#89440B" stroke-width="0.5" stroke-linecap="round" stroke-linejoin="round"/>
<path d="M142.826 18.6501C142.72 18.9777 142.521 19.2677 142.254 19.4858C141.988 19.7038 141.664 19.8407 141.322 19.8801C140.979 19.9195 140.633 19.8599 140.324 19.7082C140.014 19.5565 139.755 19.3192 139.577 19.0245" stroke="#89440B" stroke-width="0.5" stroke-linecap="round" stroke-linejoin="round"/>
<path d="M144.654 25.9971H143.554" stroke="#89440B" stroke-width="0.5" stroke-linecap="round" stroke-linejoin="round"/>
<path d="M144.654 26.7232H141.947" stroke="#89440B" stroke-width="0.5" stroke-linecap="round" stroke-linejoin="round"/>
<path d="M59.0016 25.4246H56.689V28.8972H59.0016V25.4246Z" fill="#E89849" stroke="#89440B" stroke-width="0.5" stroke-linecap="round" stroke-linejoin="round"/>
<path d="M59.0016 17.7699H56.689V21.2424H59.0016V17.7699Z" fill="#E89849" stroke="#89440B" stroke-width="0.5" stroke-linecap="round" stroke-linejoin="round"/>
<path d="M60.4551 23.4459C60.455 23.9628 60.3016 24.4681 60.0144 24.8979C59.7271 25.3277 59.3188 25.6627 58.8412 25.8604C58.3636 26.0582 57.8381 26.11 57.3311 26.0091C56.8241 25.9082 56.3584 25.6593 55.9928 25.2937C55.6273 24.9282 55.3784 24.4625 55.2775 23.9555C55.1766 23.4485 55.2283 22.9229 55.4261 22.4453C55.6239 21.9677 55.9589 21.5595 56.3886 21.2722C56.8184 20.985 57.3237 20.8316 57.8407 20.8315C58.5341 20.8315 59.199 21.1069 59.6893 21.5972C60.1796 22.0875 60.4551 22.7525 60.4551 23.4459Z" fill="#E89849" stroke="#89440B" stroke-width="0.5" stroke-linecap="round" stroke-linejoin="round"/>
<path d="M57.8408 23.4463V21.8944" stroke="#89440B" stroke-width="0.5" stroke-linecap="round" stroke-linejoin="round"/>
<path d="M57.8408 23.4459L58.797 22.8057" stroke="#89440B" stroke-width="0.5" stroke-linecap="round" stroke-linejoin="round"/>
<path d="M183.366 25.4246H181.053V28.8972H183.366V25.4246Z" fill="#E89849" stroke="#89440B" stroke-width="0.5" stroke-linecap="round" stroke-linejoin="round"/>
<path d="M183.366 17.7699H181.053V21.2424H183.366V17.7699Z" fill="#E89849" stroke="#89440B" stroke-width="0.5" stroke-linecap="round" stroke-linejoin="round"/>
<path d="M184.819 23.4459C184.819 23.9628 184.665 24.4681 184.378 24.8979C184.091 25.3277 183.683 25.6627 183.205 25.8604C182.727 26.0582 182.202 26.11 181.695 26.0091C181.188 25.9082 180.722 25.6593 180.357 25.2937C179.991 24.9282 179.742 24.4625 179.641 23.9555C179.54 23.4485 179.592 22.9229 179.79 22.4453C179.988 21.9677 180.323 21.5595 180.752 21.2722C181.182 20.985 181.687 20.8316 182.204 20.8315C182.898 20.8315 183.563 21.1069 184.053 21.5972C184.543 22.0875 184.819 22.7525 184.819 23.4459Z" fill="#E89849" stroke="#89440B" stroke-width="0.5" stroke-linecap="round" stroke-linejoin="round"/>
<path d="M182.205 23.4463V21.8944" stroke="#89440B" stroke-width="0.5" stroke-linecap="round" stroke-linejoin="round"/>
<path d="M182.205 23.4459L183.161 22.8057" stroke="#89440B" stroke-width="0.5" stroke-linecap="round" stroke-linejoin="round"/>
<path d="M102.161 29.1045H99.6606L98.7734 21.1417L97.8858 29.1045H95.3865V17.7693H102.161V29.1045Z" fill="#E89849" stroke="#89440B" stroke-width="0.5" stroke-linecap="round" stroke-linejoin="round"/>
<path d="M96.3089 19.9095H97.5482V21.6772L96.4777 22.2103L95.3865 21.6369" stroke="#89440B" stroke-width="0.5" stroke-linecap="round" stroke-linejoin="round"/>
<path d="M102.142 19.9095H99.981V21.6772L101.052 22.2103" stroke="#89440B" stroke-width="0.5" stroke-linecap="round" stroke-linejoin="round"/>
<path d="M226.525 29.1045H224.024L223.137 21.1417L222.249 29.1045H219.75V17.7693H226.525V29.1045Z" fill="#E89849" stroke="#89440B" stroke-width="0.5" stroke-linecap="round" stroke-linejoin="round"/>
<path d="M220.672 19.9095H221.912V21.6772L220.841 22.2103L219.75 21.6369" stroke="#89440B" stroke-width="0.5" stroke-linecap="round" stroke-linejoin="round"/>
<path d="M226.506 19.9095H224.345V21.6772L225.415 22.2103" stroke="#89440B" stroke-width="0.5" stroke-linecap="round" stroke-linejoin="round"/>
</svg>
