<svg width="240" height="54" viewBox="0 0 240 54" fill="none" xmlns="http://www.w3.org/2000/svg">
<rect x="6" y="8.19586" width="28.2062" height="37.6083" rx="1" fill="#9CCDE4"/>
<rect x="9.52582" y="39.9278" width="16.4536" height="2.35052" fill="white"/>
<path d="M20.3326 15.2474H14.5668L10.701 20.2774L12.9048 23.1153H14.2147V32.5843H26.4352V23.1153H27.7652L29.9642 20.2774L26.0985 15.2474H20.3326Z" fill="#E89849"/>
<path d="M14.21 23.116H12.9001L10.701 20.2774L14.5668 15.2474H26.0985L29.9642 20.2774L27.7605 23.116H26.4306" stroke="#89440B" stroke-width="0.5" stroke-linecap="round" stroke-linejoin="round"/>
<path d="M26.4307 21.508V32.5836H14.2101V19.1278" stroke="#89440B" stroke-width="0.5" stroke-linecap="round" stroke-linejoin="round"/>
<path d="M23.2742 16.2069C23.0899 16.7726 22.7471 17.2735 22.2865 17.65C21.8259 18.0265 21.2668 18.2629 20.6758 18.3309C20.0848 18.399 19.4866 18.296 18.9525 18.0341C18.4183 17.7721 17.9706 17.3623 17.6625 16.8534" stroke="#89440B" stroke-width="0.5" stroke-linecap="round" stroke-linejoin="round"/>
<path d="M26.4302 28.896H24.5308" stroke="#89440B" stroke-width="0.5" stroke-linecap="round" stroke-linejoin="round"/>
<path d="M26.4304 30.1482H21.7548" stroke="#89440B" stroke-width="0.5" stroke-linecap="round" stroke-linejoin="round"/>
<rect x="45.9588" y="8.19586" width="28.2062" height="37.6083" rx="1" fill="#9CCDE4"/>
<path d="M61.9279 27.4178H58.2512V32.9387H61.9279V27.4178Z" fill="#E89849" stroke="#89440B" stroke-width="0.5" stroke-linecap="round" stroke-linejoin="round"/>
<path d="M61.9279 15.2474H58.2511V20.7684H61.9279V15.2474Z" fill="#E89849" stroke="#89440B" stroke-width="0.5" stroke-linecap="round" stroke-linejoin="round"/>
<path d="M64.2386 24.2737C64.2384 25.0956 63.9946 25.899 63.5379 26.5823C63.0812 27.2656 62.4321 27.7981 61.6728 28.1126C60.9134 28.427 60.0779 28.5092 59.2718 28.3489C58.4657 28.1885 57.7253 27.7927 57.1442 27.2115C56.563 26.6304 56.1672 25.89 56.0068 25.0839C55.8465 24.2778 55.9287 23.4423 56.2431 22.6829C56.5576 21.9236 57.0901 21.2745 57.7734 20.8178C58.4567 20.3611 59.2601 20.1172 60.082 20.1171C61.1844 20.1171 62.2416 20.555 63.0212 21.3345C63.8007 22.1141 64.2386 23.1713 64.2386 24.2737Z" fill="#E89849" stroke="#89440B" stroke-width="0.5" stroke-linecap="round" stroke-linejoin="round"/>
<path d="M60.0823 24.2741V21.8066" stroke="#89440B" stroke-width="0.5" stroke-linecap="round" stroke-linejoin="round"/>
<path d="M60.0823 24.2728L61.6024 23.255" stroke="#89440B" stroke-width="0.5" stroke-linecap="round" stroke-linejoin="round"/>
<rect x="49.4845" y="39.9278" width="16.4536" height="2.35052" fill="white"/>
<rect x="85.9175" y="8.19586" width="28.2062" height="37.6083" rx="1" fill="#9CCDE4"/>
<rect x="89.4433" y="39.9278" width="16.4536" height="2.35052" fill="white"/>
<path d="M106.086 34.0513H101.942L100.472 20.8579L99.0016 34.0513H94.8607V15.2704H106.086V34.0513Z" fill="#E89849" stroke="#89440B" stroke-width="0.5" stroke-linecap="round" stroke-linejoin="round"/>
<path d="M96.389 18.8167H98.4424V21.7457L96.6686 22.6288L94.8607 21.6789" stroke="#89440B" stroke-width="0.5" stroke-linecap="round" stroke-linejoin="round"/>
<path d="M106.054 18.8167H102.473V21.7457L104.247 22.6288" stroke="#89440B" stroke-width="0.5" stroke-linecap="round" stroke-linejoin="round"/>
<rect x="125.876" y="8.19586" width="28.2062" height="37.6083" rx="1" fill="#9CCDE4"/>
<rect x="129.402" y="39.9278" width="16.4536" height="2.35052" fill="white"/>
<path d="M140.209 15.2474H134.443L130.577 20.2774L132.781 23.1153H134.091V32.5843H146.311V23.1153H147.641L149.84 20.2774L145.975 15.2474H140.209Z" fill="#E89849"/>
<path d="M134.086 23.116H132.776L130.577 20.2774L134.443 15.2474H145.975L149.84 20.2774L147.637 23.116H146.307" stroke="#89440B" stroke-width="0.5" stroke-linecap="round" stroke-linejoin="round"/>
<path d="M146.307 21.508V32.5836H134.086V19.1278" stroke="#89440B" stroke-width="0.5" stroke-linecap="round" stroke-linejoin="round"/>
<path d="M143.151 16.2069C142.966 16.7726 142.623 17.2735 142.163 17.65C141.702 18.0265 141.143 18.2629 140.552 18.3309C139.961 18.399 139.363 18.296 138.829 18.0341C138.295 17.7721 137.847 17.3623 137.539 16.8534" stroke="#89440B" stroke-width="0.5" stroke-linecap="round" stroke-linejoin="round"/>
<path d="M146.306 28.896H144.407" stroke="#89440B" stroke-width="0.5" stroke-linecap="round" stroke-linejoin="round"/>
<path d="M146.307 30.1482H141.631" stroke="#89440B" stroke-width="0.5" stroke-linecap="round" stroke-linejoin="round"/>
<rect x="165.835" y="8.19586" width="28.2062" height="37.6083" rx="1" fill="#9CCDE4"/>
<path d="M181.804 27.4178H178.128V32.9387H181.804V27.4178Z" fill="#E89849" stroke="#89440B" stroke-width="0.5" stroke-linecap="round" stroke-linejoin="round"/>
<path d="M181.804 15.2474H178.128V20.7684H181.804V15.2474Z" fill="#E89849" stroke="#89440B" stroke-width="0.5" stroke-linecap="round" stroke-linejoin="round"/>
<path d="M184.115 24.2737C184.115 25.0956 183.871 25.899 183.414 26.5823C182.957 27.2656 182.308 27.7981 181.549 28.1126C180.79 28.427 179.954 28.5092 179.148 28.3489C178.342 28.1885 177.602 27.7927 177.02 27.2115C176.439 26.6304 176.043 25.89 175.883 25.0839C175.723 24.2778 175.805 23.4423 176.119 22.6829C176.434 21.9236 176.966 21.2745 177.65 20.8178C178.333 20.3611 179.136 20.1172 179.958 20.1171C181.061 20.1171 182.118 20.555 182.897 21.3345C183.677 22.1141 184.115 23.1713 184.115 24.2737Z" fill="#E89849" stroke="#89440B" stroke-width="0.5" stroke-linecap="round" stroke-linejoin="round"/>
<path d="M179.958 24.2741V21.8066" stroke="#89440B" stroke-width="0.5" stroke-linecap="round" stroke-linejoin="round"/>
<path d="M179.958 24.2728L181.479 23.255" stroke="#89440B" stroke-width="0.5" stroke-linecap="round" stroke-linejoin="round"/>
<rect x="169.361" y="39.9278" width="16.4536" height="2.35052" fill="white"/>
<rect x="205.794" y="8.19586" width="28.2062" height="37.6083" rx="1" fill="#9CCDE4"/>
<rect x="209.32" y="39.9278" width="16.4536" height="2.35052" fill="white"/>
<path d="M225.962 34.0513H221.819L220.349 20.8579L218.878 34.0513H214.737V15.2704H225.962V34.0513Z" fill="#E89849" stroke="#89440B" stroke-width="0.5" stroke-linecap="round" stroke-linejoin="round"/>
<path d="M216.265 18.8167H218.319V21.7457L216.545 22.6288L214.737 21.6789" stroke="#89440B" stroke-width="0.5" stroke-linecap="round" stroke-linejoin="round"/>
<path d="M225.931 18.8167H222.35V21.7457L224.123 22.6288" stroke="#89440B" stroke-width="0.5" stroke-linecap="round" stroke-linejoin="round"/>
</svg>
