<svg width="64" height="64" viewBox="0 0 64 64" fill="none" xmlns="http://www.w3.org/2000/svg">
<path d="M48.0478 12.9588C40.1693 8.21713 27.1254 8.08518 18.9135 12.664C12.0258 16.5048 10.725 22.4396 15.1335 27.0518C20.5263 32.6935 25.9189 38.3351 31.3117 43.9769C30.8403 43.4837 30.9793 42.849 31.716 42.4383C32.5941 41.9485 33.9891 41.9627 34.8317 42.4698C35.5147 42.8809 35.625 43.4897 35.1745 43.9664C40.5342 38.2952 45.8938 32.6245 51.2535 26.9534C55.4662 22.4958 54.4345 16.8027 48.0478 12.9588Z" fill="#FBDBD0"/>
<path d="M47.4442 29.8355C39.2324 34.4144 26.1885 34.2825 18.31 29.5406C17.0396 28.7761 15.9811 27.9384 15.1335 27.0517C20.4397 32.6029 25.7457 38.1539 31.0518 43.7051C31.1612 46.2939 31.2705 48.8825 31.3799 51.4714C31.391 51.7342 31.5651 51.9952 31.9041 52.1994C32.625 52.6332 33.8183 52.6452 34.5696 52.2263C34.945 52.017 35.1391 51.7396 35.1492 51.4604C35.2439 48.871 35.3386 46.2821 35.4332 43.6927C40.7067 38.1127 45.9801 32.5333 51.2535 26.9533C50.2694 27.9946 48.9992 28.9683 47.4442 29.8355Z" fill="#C1DBF6"/>
<path d="M48.0478 12.9588C55.9263 17.7005 55.6561 25.2564 47.4442 29.8354C39.2323 34.4144 26.1885 34.2824 18.3099 29.5407C10.4314 24.7989 10.7016 17.243 18.9135 12.6641C27.1254 8.0851 40.1692 8.21705 48.0478 12.9588ZM46.5026 13.8204C39.4428 9.5714 27.7544 9.45319 20.3959 13.5563C13.0375 17.6594 12.7953 24.4301 19.8551 28.6791C26.9149 32.9281 38.6033 33.0463 45.9618 28.9432C53.3202 24.8401 53.5624 18.0694 46.5026 13.8204Z" fill="white"/>
<path d="M26.413 17.2737C23.5893 17.2737 21.2922 14.9763 21.2922 12.1527C21.2922 9.32902 23.5893 7.03192 26.413 7.03192C29.2366 7.03192 31.5337 9.32902 31.5337 12.1527C31.5337 14.9763 29.2366 17.2737 26.413 17.2737Z" fill="white"/>
<path d="M26.413 7.26049C29.115 7.26049 31.3053 9.45089 31.3053 12.1528C31.3053 14.8547 29.115 17.0451 26.413 17.0451C23.7111 17.0451 21.5207 14.8547 21.5207 12.1528C21.5207 9.45089 23.7111 7.26049 26.413 7.26049ZM26.413 6.80334C23.4633 6.80334 21.0636 9.20312 21.0636 12.1528C21.0636 15.1025 23.4633 17.5022 26.413 17.5022C29.3627 17.5022 31.7624 15.1025 31.7624 12.1528C31.7624 9.20312 29.3627 6.80334 26.413 6.80334Z" fill="#374874"/>
<path d="M39.6005 28.0411C36.7768 28.0411 34.4795 25.744 34.4795 22.9204C34.4795 20.0967 36.7768 17.7994 39.6005 17.7994C42.4241 17.7994 44.7212 20.0967 44.7212 22.9204C44.7212 25.744 42.4241 28.0411 39.6005 28.0411Z" fill="white"/>
<path d="M39.6004 18.028C42.3023 18.028 44.4927 20.2183 44.4927 22.9203C44.4927 25.6223 42.3023 27.8125 39.6004 27.8125C36.8985 27.8125 34.7081 25.6222 34.7081 22.9203C34.7081 20.2184 36.8985 18.028 39.6004 18.028ZM39.6004 17.5709C36.6507 17.5709 34.251 19.9706 34.251 22.9203C34.251 25.87 36.6507 28.2696 39.6004 28.2696C42.5501 28.2696 44.9498 25.87 44.9498 22.9203C44.9498 19.9706 42.5501 17.5709 39.6004 17.5709Z" fill="#374874"/>
<path d="M26.413 7.26052C28.1044 7.26052 29.5951 8.1191 30.4737 9.42401C31.3942 9.35213 32.3206 9.3162 33.2471 9.3162C38.64 9.3162 44.0193 10.5342 48.0478 12.9588C48.0496 12.9598 48.0512 12.9609 48.053 12.9621C48.277 13.097 48.4928 13.2347 48.7036 13.3741C48.7715 13.4189 48.8366 13.4647 48.9031 13.51C49.0469 13.6079 49.1883 13.7067 49.3257 13.8066C49.3976 13.8588 49.4682 13.9114 49.5383 13.9641C49.6693 14.0627 49.7967 14.1623 49.9216 14.2626C49.9844 14.3131 50.0481 14.3633 50.1094 14.4143C50.2584 14.538 50.4021 14.6631 50.542 14.7893C50.5719 14.8162 50.6038 14.8427 50.6333 14.8698C50.8002 15.0231 50.9597 15.1783 51.1133 15.3349C51.1573 15.3799 51.1984 15.4254 51.2413 15.4706C51.3495 15.5843 51.4552 15.6986 51.5564 15.8139C51.6064 15.8707 51.6547 15.9281 51.7031 15.9855C51.7939 16.0932 51.8817 16.2015 51.9665 16.3103C52.011 16.3675 52.0558 16.4245 52.0987 16.482C52.1899 16.6042 52.2763 16.7273 52.3601 16.8509C52.389 16.8935 52.42 16.9357 52.4481 16.9785C52.5566 17.1442 52.6587 17.3108 52.7539 17.4785C52.7756 17.5167 52.7944 17.5554 52.8154 17.5937C52.8872 17.7245 52.9559 17.8559 53.0197 17.9879C53.048 18.0465 53.0742 18.1055 53.101 18.1643C53.1532 18.2791 53.2027 18.3943 53.2489 18.5098C53.2733 18.5707 53.2974 18.6319 53.3201 18.6931C53.3654 18.8152 53.4065 18.9375 53.4451 19.0601C53.4614 19.1117 53.4794 19.1632 53.4944 19.2147C53.5449 19.3879 53.5899 19.5614 53.6271 19.7354C53.6314 19.7557 53.634 19.776 53.6381 19.7963C53.6698 19.9504 53.6962 20.105 53.7174 20.2597C53.7252 20.3169 53.7305 20.3741 53.7369 20.4313C53.7504 20.5512 53.7613 20.6712 53.7685 20.7913C53.7723 20.8538 53.7752 20.9163 53.7773 20.979C53.7813 21.0993 53.7815 21.2196 53.7793 21.3401C53.7782 21.3969 53.7783 21.4538 53.7759 21.5106C53.769 21.6694 53.757 21.828 53.7392 21.9866C53.7374 22.0032 53.7369 22.0197 53.735 22.0363C53.7141 22.2111 53.6854 22.3856 53.6513 22.56C53.6411 22.6124 53.628 22.6646 53.6166 22.717C53.5896 22.8402 53.5603 22.9631 53.5268 23.0859C53.51 23.1474 53.4919 23.2087 53.4734 23.2701C53.4381 23.3874 53.3996 23.5044 53.3582 23.6211C53.3376 23.6796 53.3175 23.738 53.2953 23.7962C53.2434 23.9326 53.1865 24.0684 53.1262 24.2038C53.1103 24.2396 53.0964 24.2758 53.0799 24.3116C53.0011 24.482 52.9155 24.6516 52.8236 24.8202C52.8 24.8633 52.7736 24.906 52.7493 24.9491C52.6779 25.0749 52.6038 25.2003 52.5251 25.3251C52.4887 25.3827 52.4506 25.4399 52.4126 25.4973C52.3384 25.6095 52.2613 25.721 52.181 25.8321C52.1397 25.8894 52.0984 25.9465 52.0554 26.0036C51.9649 26.1235 51.8699 26.2426 51.7723 26.3612C51.7363 26.4049 51.7022 26.4491 51.6652 26.4926C51.5336 26.6475 51.3973 26.8013 51.2535 26.9535C45.9801 32.5332 40.7067 38.1127 35.4333 43.6927C35.3386 46.2821 35.2439 48.8711 35.1493 51.4605C35.1391 51.7396 34.9451 52.0171 34.5696 52.2263C34.2025 52.431 33.73 52.5328 33.2584 52.5328C32.765 52.5328 32.2728 52.4213 31.9042 52.1994C31.5651 51.9953 31.391 51.7343 31.3799 51.4714C31.2706 48.8825 31.1612 46.294 31.0519 43.7051C25.7458 38.1539 20.4397 32.6029 15.1336 27.0519C14.843 26.7479 14.5789 26.4378 14.3379 26.1233C14.2978 26.0709 14.2608 26.018 14.222 25.9652C14.1381 25.8514 14.0561 25.7371 13.9786 25.6219C13.9368 25.5597 13.897 25.4974 13.8571 25.435C13.7876 25.3264 13.7208 25.2172 13.657 25.1077C13.62 25.0443 13.5833 24.981 13.5483 24.9173C13.4853 24.8029 13.4265 24.6878 13.3696 24.5725C13.3413 24.5149 13.3113 24.4576 13.2845 24.3999C13.2147 24.2499 13.1506 24.0993 13.0911 23.9482C13.0823 23.9257 13.0716 23.9033 13.063 23.8809C12.9964 23.707 12.9376 23.5322 12.8846 23.357C12.8689 23.3051 12.8565 23.2528 12.842 23.2008C12.8074 23.0769 12.7749 22.9529 12.7471 22.8286C12.7327 22.7639 12.7205 22.6993 12.7079 22.6346C12.6857 22.5208 12.666 22.4067 12.6495 22.2925C12.6398 22.2259 12.6308 22.1594 12.6231 22.0927C12.6096 21.9762 12.5999 21.8597 12.5923 21.7431C12.5883 21.681 12.5831 21.6191 12.5807 21.5571C12.5753 21.4178 12.5754 21.2783 12.5784 21.1391C12.5793 21.101 12.5777 21.0631 12.5792 21.025C12.5859 20.848 12.5998 20.671 12.62 20.4942C12.6254 20.4473 12.6341 20.4008 12.6404 20.354C12.658 20.2236 12.6778 20.0934 12.7027 19.9635C12.7149 19.8998 12.7297 19.8365 12.7437 19.7729C12.7688 19.6587 12.7961 19.5446 12.8269 19.4308C12.8449 19.3643 12.8639 19.2978 12.8839 19.2312C12.918 19.1176 12.9557 19.0042 12.9955 18.8911C13.0176 18.8283 13.0389 18.7656 13.0627 18.703C13.1117 18.5745 13.1657 18.4466 13.222 18.3189C13.2421 18.2734 13.2598 18.2278 13.2808 18.1824C13.3605 18.0103 13.4466 17.8389 13.5397 17.6687C13.5599 17.6318 13.5831 17.5953 13.6039 17.5585C13.6792 17.4251 13.7576 17.2923 13.8413 17.1601C13.8787 17.1011 13.9189 17.0426 13.958 16.9838C14.0312 16.8737 14.1064 16.7639 14.1855 16.6548C14.2309 16.5922 14.2776 16.53 14.3249 16.4676C14.4059 16.3611 14.49 16.2552 14.5765 16.1497C14.6257 16.0899 14.6744 16.03 14.7254 15.9705C14.8235 15.856 14.9264 15.7426 15.0312 15.6295C15.0754 15.5818 15.1175 15.5338 15.1629 15.4862C15.3153 15.3272 15.4735 15.1696 15.6393 15.0138C15.6618 14.9927 15.6864 14.9721 15.7092 14.9509C15.8542 14.8167 16.0037 14.6836 16.1587 14.5521C16.2187 14.5012 16.2816 14.4512 16.3431 14.4007C16.4665 14.2995 16.5917 14.1988 16.7211 14.0993C16.7932 14.0438 16.867 13.989 16.941 13.9341C17.0687 13.8394 17.1993 13.7456 17.3326 13.6526C17.4088 13.5996 17.4848 13.5465 17.5628 13.4939C17.7088 13.3956 17.8593 13.2988 18.0117 13.2028C18.081 13.1589 18.1485 13.1146 18.2191 13.0713C18.4444 12.9333 18.6749 12.7972 18.9136 12.664C19.7556 12.1945 20.6507 11.7774 21.5835 11.4068C21.9436 9.0599 23.9654 7.26052 26.413 7.26052ZM26.413 6.3463C23.7077 6.3463 21.4189 8.16682 20.7839 10.7457C19.9606 11.091 19.1836 11.4667 18.4683 11.8655C18.236 11.9951 17.9984 12.1345 17.7417 12.2916C17.6901 12.3232 17.6403 12.355 17.5904 12.3871L17.5229 12.4301C17.3396 12.5457 17.1897 12.643 17.0521 12.7356C16.9778 12.7857 16.9055 12.8361 16.8333 12.8863L16.8103 12.9022C16.6691 13.0008 16.5313 13.0998 16.3966 13.1996C16.318 13.2579 16.24 13.3159 16.1638 13.3744C16.0392 13.4704 15.9119 13.5719 15.7631 13.6941L15.7056 13.7408C15.6589 13.7788 15.6123 13.8166 15.5672 13.855C15.4078 13.9903 15.2466 14.1332 15.088 14.2802L15.0703 14.296C15.0512 14.3128 15.0323 14.3297 15.0142 14.3466C14.8416 14.5088 14.6746 14.6743 14.5028 14.8537C14.4681 14.89 14.436 14.9251 14.404 14.9605L14.36 15.0087C14.2295 15.1494 14.1247 15.2663 14.031 15.3757C13.9846 15.4298 13.9397 15.4845 13.8948 15.5392L13.8701 15.5693C13.7713 15.6897 13.6821 15.8024 13.597 15.9144C13.5452 15.9827 13.4946 16.0502 13.4453 16.1182C13.3671 16.226 13.2859 16.3435 13.1968 16.4773L13.1634 16.5272C13.1314 16.575 13.0995 16.6227 13.0691 16.6706C12.9836 16.8055 12.8982 16.9488 12.8078 17.1089L12.7905 17.1383C12.7723 17.1689 12.7542 17.1994 12.7374 17.2302C12.637 17.4137 12.5406 17.605 12.4511 17.7983C12.4341 17.8351 12.4183 17.8722 12.4028 17.9093L12.3854 17.9503C12.314 18.1122 12.2576 18.248 12.2083 18.3775C12.1869 18.4338 12.1673 18.4895 12.1478 18.5455L12.1331 18.5876C12.0852 18.7235 12.0444 18.8479 12.0083 18.9679C11.9858 19.0429 11.9646 19.1173 11.9444 19.1917C11.9117 19.3127 11.8811 19.4384 11.8507 19.5766L11.841 19.6204C11.8283 19.6774 11.8158 19.7343 11.8048 19.7914C11.7793 19.9241 11.7569 20.0641 11.7343 20.2317L11.7283 20.2713C11.7221 20.311 11.7162 20.3507 11.7117 20.3904C11.6886 20.592 11.6731 20.7939 11.6656 20.9901C11.6643 21.025 11.6642 21.0595 11.6644 21.0941V21.1194C11.6606 21.2922 11.6615 21.4469 11.6671 21.5922C11.6692 21.6459 11.6728 21.6995 11.6766 21.7532L11.68 21.8026C11.6894 21.9469 11.7008 22.0763 11.7149 22.1978C11.7236 22.2731 11.7338 22.3482 11.7446 22.4235C11.7625 22.5467 11.7847 22.6766 11.8106 22.8096L11.816 22.8377C11.8283 22.901 11.8407 22.9644 11.8548 23.0278C11.8829 23.1535 11.9167 23.2864 11.9613 23.4465L11.9742 23.4945C11.9854 23.5372 11.9968 23.5798 12.0097 23.6223C12.072 23.8283 12.1373 24.02 12.2091 24.2077C12.2187 24.2325 12.2286 24.2562 12.2388 24.2797C12.3078 24.4545 12.3802 24.6236 12.4555 24.7854C12.4773 24.8323 12.5005 24.8788 12.5239 24.9252L12.5497 24.9769C12.6218 25.123 12.6846 25.2442 12.7476 25.3585C12.7858 25.428 12.8262 25.4979 12.8669 25.5679C12.9373 25.6885 13.0113 25.8095 13.0872 25.9282C13.132 25.9982 13.1749 26.0651 13.2197 26.1318C13.2963 26.2457 13.3809 26.365 13.4862 26.5078L13.5216 26.5565C13.5512 26.5975 13.5808 26.6384 13.612 26.6791C13.8787 27.0271 14.1681 27.365 14.4727 27.6836L30.153 44.0879L30.2323 45.965L30.4665 51.5101C30.4911 52.0911 30.8432 52.6279 31.4327 52.9827C31.9303 53.2823 32.5787 53.4471 33.2585 53.4471C33.9028 53.4471 34.5266 53.2972 35.0149 53.0249C35.6585 52.6662 36.0406 52.1082 36.063 51.494L36.2379 46.7103L36.3344 44.0704L46.566 33.2444L51.9181 27.5815C52.0642 27.4269 52.2095 27.2643 52.3622 27.0844C52.3897 27.0521 52.4164 27.0191 52.4429 26.9859L52.4782 26.9423C52.5933 26.8025 52.6938 26.6756 52.7853 26.5542C52.8321 26.4922 52.8766 26.4307 52.9211 26.3691C53.01 26.246 53.095 26.1231 53.1752 26.0018L53.1902 25.9792C53.2268 25.9239 53.2633 25.8686 53.2983 25.8132C53.3785 25.6861 53.459 25.551 53.5446 25.4001L53.5689 25.3584C53.5885 25.3251 53.6079 25.2917 53.6261 25.2583C53.7289 25.0696 53.8243 24.8804 53.9099 24.695C53.924 24.6647 53.9369 24.6341 53.9497 24.6036L53.9615 24.5758C54.0331 24.4147 54.0947 24.2663 54.1498 24.1216C54.1699 24.069 54.1888 24.0154 54.2077 23.9617L54.2204 23.9257C54.2674 23.7928 54.3108 23.6606 54.3491 23.5334C54.3698 23.4643 54.3901 23.3956 54.4089 23.3267C54.4439 23.1983 54.477 23.0626 54.5099 22.9119L54.5205 22.8648C54.5305 22.8217 54.5402 22.7786 54.5487 22.7355C54.5898 22.525 54.6206 22.3317 54.6429 22.1444C54.6455 22.1222 54.6475 22.1001 54.6491 22.0779C54.6681 21.906 54.6817 21.7281 54.6894 21.5501C54.6915 21.5017 54.6922 21.4532 54.6928 21.4049L54.6935 21.3571C54.6962 21.2115 54.6954 21.0779 54.6912 20.9487C54.6888 20.8778 54.6855 20.807 54.6812 20.7364C54.6735 20.6071 54.6618 20.474 54.6456 20.3293L54.6405 20.2823C54.6353 20.2333 54.63 20.1846 54.6233 20.1356C54.5994 19.9613 54.5693 19.7853 54.5339 19.6126C54.5308 19.5927 54.5265 19.5688 54.5214 19.5448C54.4814 19.3575 54.4326 19.1661 54.3723 18.959C54.3599 18.9166 54.3463 18.8746 54.3326 18.8328L54.3172 18.7852C54.2704 18.6364 54.2246 18.5022 54.1774 18.375C54.1519 18.3063 54.1249 18.2379 54.0976 18.1697C54.0479 18.0453 53.9925 17.9158 53.9334 17.7858L53.9166 17.7489C53.8925 17.6956 53.8683 17.6426 53.8427 17.5896C53.7765 17.4524 53.7025 17.3097 53.617 17.1538L53.5997 17.1211C53.5832 17.0895 53.5665 17.0579 53.5487 17.0265C53.4458 16.8453 53.3327 16.6603 53.2129 16.4775C53.1915 16.4447 53.1683 16.4113 53.1449 16.378L53.1168 16.3376C53.0166 16.1898 52.9232 16.0581 52.8315 15.9352C52.7911 15.881 52.7491 15.827 52.707 15.7729L52.688 15.7486C52.5942 15.6284 52.4982 15.5099 52.402 15.3959C52.3497 15.3339 52.297 15.2715 52.2425 15.2095C52.1431 15.0963 52.032 14.9752 51.904 14.8406L51.8612 14.7949C51.8301 14.7615 51.799 14.7283 51.7665 14.6951C51.5963 14.5215 51.4233 14.354 51.252 14.1966C51.2291 14.1755 51.2053 14.1547 51.1813 14.134L51.1534 14.1095C50.9978 13.969 50.847 13.8383 50.6936 13.7109C50.6437 13.6695 50.5917 13.6277 50.5396 13.5862L50.494 13.5497C50.355 13.438 50.2222 13.3345 50.0885 13.2339C50.0138 13.1777 49.9393 13.1223 49.8635 13.0671C49.7264 12.9675 49.5806 12.8651 49.4176 12.7543L49.3546 12.711C49.3058 12.6774 49.257 12.6438 49.2068 12.6108C48.9692 12.4536 48.748 12.3135 48.5319 12.1832C48.5278 12.1806 48.5235 12.178 48.5193 12.1755C44.4762 9.74212 39.0524 8.40193 33.2471 8.40193C32.4684 8.40193 31.6837 8.42705 30.9076 8.47661C29.8092 7.13364 28.166 6.3463 26.413 6.3463Z" fill="#374874"/>
</svg>
