<svg xmlns="http://www.w3.org/2000/svg" xmlns:xlink="http://www.w3.org/1999/xlink" width="70" height="70" viewBox="0 0 70 70">
    <defs>
        <path id="board-a" d="M4 0h61c4 0 5 1 5 5v60c0 4-1 5-5 5H4c-3 0-4-1-4-5V5c0-4 1-5 4-5z"/>
        <linearGradient id="board-c" x1="100%" x2="0%" y1="0%" y2="100%">
            <stop offset="0%" stop-color="#CD7690"/>
            <stop offset="100%" stop-color="#CA5377"/>
        </linearGradient>
        <path id="board-d" d="M18.045 57.225a3.829 3.829 0 0 1-3.39-2.068A23.413 23.413 0 0 1 12 44.287C12 31.428 22.297 21 35 21s23 10.426 23 23.288c0 3.926-.96 7.625-2.655 10.87a3.829 3.829 0 0 1-3.39 2.067h-33.91zM52.889 41.7c-1.411 0-2.556 1.158-2.556 2.587 0 1.43 1.145 2.588 2.556 2.588s2.555-1.158 2.555-2.587c0-1.43-1.144-2.588-2.555-2.588zM35 28.762c1.411 0 2.556-1.158 2.556-2.587 0-1.429-1.145-2.588-2.556-2.588s-2.556 1.159-2.556 2.588S33.59 28.762 35 28.762zM17.111 41.7c-1.411 0-2.555 1.158-2.555 2.587 0 1.43 1.144 2.588 2.555 2.588 1.411 0 2.556-1.158 2.556-2.587 0-1.43-1.145-2.588-2.556-2.588zm5.24-12.807c-1.412 0-2.556 1.158-2.556 2.587 0 1.429 1.144 2.588 2.556 2.588 1.411 0 2.555-1.159 2.555-2.588s-1.144-2.587-2.555-2.587zm25.298 0c-1.411 0-2.555 1.158-2.555 2.587 0 1.429 1.144 2.588 2.555 2.588 1.412 0 2.556-1.159 2.556-2.588s-1.144-2.587-2.556-2.587zm-6.954 2.55a1.912 1.912 0 0 0-2.41 1.256l-3.667 11.604c-2.644.198-4.73 2.432-4.73 5.16 0 2.858 2.29 5.175 5.112 5.175 2.823 0 5.111-2.317 5.111-5.175a5.19 5.19 0 0 0-1.842-3.978l3.668-11.603a1.946 1.946 0 0 0-1.242-2.44z"/>
    </defs>
    <g fill="none" fill-rule="evenodd">
        <mask id="board-b" fill="#fff">
            <use xlink:href="#board-a"/>
        </mask>
        <g mask="url(#board-b)">
            <path fill="url(#board-c)" d="M0 0H70V70H0z"/>
            <path fill="#FFF" fill-opacity=".383" d="M4 1h61c2.667 0 4.333.667 5 2V0H0v3c.667-1.333 2-2 4-2z"/>
            <path fill="#393939" d="M4 70c-2 0-4-.149-4-4.163V46.394l16.354-17.532C29.45 19.512 39.667 17.612 47 23.163c7.333 5.551 11 11.796 11 18.735-2.132 7.885-3.228 11.878-3.288 11.978-.06.101-4.726 5.476-14 16.124H4z" opacity=".324"/>
            <path fill="#000" fill-opacity=".383" d="M4 69h61c2.667 0 4.333-1 5-3v4H0v-4c.667 2 2 3 4 3z"/>
            <use fill="#000" fill-rule="nonzero" opacity=".3" xlink:href="#board-d"/>
            <path fill="#FFF" fill-rule="nonzero" d="M18.045 55.225a3.829 3.829 0 0 1-3.39-2.068A23.413 23.413 0 0 1 12 42.287C12 29.428 22.297 19 35 19s23 10.426 23 23.288c0 3.926-.96 7.625-2.655 10.87a3.829 3.829 0 0 1-3.39 2.067h-33.91zM52.889 39.7c-1.411 0-2.556 1.158-2.556 2.587 0 1.43 1.145 2.588 2.556 2.588s2.555-1.158 2.555-2.587c0-1.43-1.144-2.588-2.555-2.588zM35 26.762c1.411 0 2.556-1.158 2.556-2.587 0-1.429-1.145-2.588-2.556-2.588s-2.556 1.159-2.556 2.588S33.59 26.762 35 26.762zM17.111 39.7c-1.411 0-2.555 1.158-2.555 2.587 0 1.43 1.144 2.588 2.555 2.588 1.411 0 2.556-1.158 2.556-2.587 0-1.43-1.145-2.588-2.556-2.588zm5.24-12.807c-1.412 0-2.556 1.158-2.556 2.587 0 1.429 1.144 2.588 2.556 2.588 1.411 0 2.555-1.159 2.555-2.588s-1.144-2.587-2.555-2.587zm25.298 0c-1.411 0-2.555 1.158-2.555 2.587 0 1.429 1.144 2.588 2.555 2.588 1.412 0 2.556-1.159 2.556-2.588s-1.144-2.587-2.556-2.587zm-6.954 2.55a1.912 1.912 0 0 0-2.41 1.256l-3.667 11.604c-2.644.198-4.73 2.432-4.73 5.16 0 2.858 2.29 5.175 5.112 5.175 2.823 0 5.111-2.317 5.111-5.175a5.19 5.19 0 0 0-1.842-3.978l3.668-11.603a1.946 1.946 0 0 0-1.242-2.44z"/>
        </g>
    </g>
</svg>
