<svg width="50" height="50" viewBox="0 0 50 50" xmlns="http://www.w3.org/2000/svg"><path fill-rule="evenodd" clip-rule="evenodd" d="M4 13v25l21 12 21-12V13L25 0 4 13Zm2 2.295v21.544l18 10.286V25.58L6 15.295ZM26 25.58v21.545L44 36.84V15.295L26 25.58Zm-1-1.732L6.943 13.53 25 2.352 43.057 13.53 25 23.848Z" fill="var(--o-icons-teal-pure, #00CEB3)"/><path fill-rule="evenodd" clip-rule="evenodd" d="M4 13v25l21 12 21-12V13L25 0 4 13Zm2 2.295v21.544l18 10.286V25.58L6 15.295ZM26 25.58v21.545L44 36.84V15.295L26 25.58Zm-1-1.732L6.943 13.53 25 2.352 43.057 13.53 25 23.848Z" fill="url(#o_icon_base_icon__a)" fill-opacity=".2"/><defs><linearGradient id="o_icon_base_icon__a" x1="4" y1="0" x2="54.282" y2="10.559" gradientUnits="userSpaceOnUse"><stop stop-color="#fff"/><stop offset="1" stop-color="#fff" stop-opacity="0"/></linearGradient></defs></svg>
