<svg xmlns="http://www.w3.org/2000/svg" xmlns:xlink="http://www.w3.org/1999/xlink" width="70" height="70" viewBox="0 0 70 70">
    <defs>
        <path id="icon-a" d="M4,5.35309892e-14 C36.4160122,9.87060235e-15 58.0836068,-3.97961823e-14 65,5.07020818e-14 C69,6.733808e-14 70,1 70,5 C70,43.0488877 70,62.4235458 70,65 C70,69 69,70 65,70 C61,70 9,70 4,70 C1,70 7.10542736e-15,69 7.10542736e-15,65 C7.25721566e-15,62.4676575 3.83358709e-14,41.8005206 3.60818146e-14,5 C-1.13686838e-13,1 1,5.75716207e-14 4,5.35309892e-14 Z"/>
        <linearGradient id="icon-c" x1="73.828%" x2="11.498%" y1="13.431%" y2="62.895%">
            <stop offset="0%" stop-color="#81D9DD"/>
            <stop offset="100%" stop-color="#419CA1"/>
        </linearGradient>
    </defs>
    <g fill="none" fill-rule="evenodd">
        <mask id="icon-b" fill="#fff">
            <use xlink:href="#icon-a"/>
        </mask>
        <g fill-rule="nonzero" mask="url(#icon-b)">
            <g transform="translate(13 10)">
                <path fill="url(#icon-c)" d="M44.2198125,12.454875 L22.7750625,0.0736875 C22.604625,-0.02475 22.395375,-0.02475 22.224375,0.0736875 L0.7801875,12.454875 C0.60975,12.5533125 0.505125,12.735 0.505125,12.9313125 L0.505125,37.693125 C0.505125,37.891125 0.60975,38.07225 0.7801875,38.170125 L22.2249375,50.551875 C22.3104375,50.6008125 22.4049375,50.625 22.5,50.625 C22.5950625,50.625 22.690125,50.6008125 22.7750625,50.5513125 L44.2186875,38.1695625 C44.3896875,38.0716875 44.4943125,37.8894375 44.4943125,37.6925625 L44.4943125,12.9313125 C44.494875,12.735 44.39025,12.5533125 44.2198125,12.454875 Z M1.6059375,37.2841875 L1.6059375,13.88475 L21.87,25.5841875 L21.949875,25.7236875 L21.949875,49.123125 L1.68525,37.4214375 L1.6059375,37.2841875 Z M22.5804375,1.231875 L42.8439375,12.9313125 L22.5793125,24.6313125 L22.420125,24.6313125 L2.1555,12.9313125 L22.420125,1.231875 L22.5804375,1.231875 Z M23.0506875,25.7225625 L23.131125,25.58475 L43.3940625,13.8853125 L43.3940625,37.28475 L43.3141875,37.4225625 L23.0506875,49.1214375 L23.0506875,25.7225625 Z"/>
                <rect width="1" height="1.376" x="22" y="21.878" fill="#5BB4B9" opacity=".288"/>
                <rect width="1" height="1.376" x="22" y="10.867" fill="#5BB4B9" opacity=".288"/>
                <rect width="1" height="1.376" x="22" y="19.126" fill="#5BB4B9" opacity=".288"/>
                <rect width="1" height="1.376" x="22" y="13.62" fill="#5BB4B9" opacity=".288"/>
                <rect width="1" height="1.376" x="22" y="2.608" fill="#5BB4B9" opacity=".288"/>
                <rect width="1" height="1.376" x="22" y="5.361" fill="#5BB4B9" opacity=".288"/>
                <rect width="1" height="1.376" x="22" y="8.114" fill="#5BB4B9" opacity=".288"/>
                <rect width="1" height="1.376" x="22" y="16.373" fill="#5BB4B9" opacity=".288"/>
                <rect width="1" height="1.376" x="14.94" y="28.749" fill="#5BB4B9" opacity=".288" transform="rotate(-119.993 15.19 29.437)"/>
                <rect width="1" height="1.376" x="12.56" y="30.125" fill="#5BB4B9" opacity=".288" transform="rotate(-119.993 12.81 30.814)"/>
                <rect width="1" height="1.377" x="10.173" y="31.501" fill="#5BB4B9" opacity=".288" transform="rotate(-120.014 10.423 32.19)"/>
                <rect width="1" height="1.376" x="19.707" y="25.998" fill="#5BB4B9" opacity=".288" transform="rotate(-119.975 19.957 26.686)"/>
                <rect width="1" height="1.377" x="17.325" y="27.372" fill="#5BB4B9" opacity=".288" transform="rotate(-120.014 17.575 28.06)"/>
                <rect width="1" height="1.376" x="3.021" y="35.631" fill="#5BB4B9" opacity=".288" transform="rotate(-120.014 3.271 36.32)"/>
                <rect width="1" height="1.376" x="7.787" y="32.876" fill="#5BB4B9" opacity=".288" transform="rotate(-120.001 8.037 33.564)"/>
                <rect width="1" height="1.376" x="5.408" y="34.256" fill="#5BB4B9" opacity=".288" transform="rotate(-119.993 5.658 34.944)"/>
                <rect width="1.376" height="1" x="31.344" y="30.403" fill="#5BB4B9" opacity=".288" transform="rotate(-149.999 32.032 30.653)"/>
                <rect width="1.375" height="1" x="26.576" y="27.648" fill="#5BB4B9" opacity=".288" transform="rotate(-149.994 27.263 27.898)"/>
                <rect width="1.376" height="1" x="28.957" y="29.022" fill="#5BB4B9" opacity=".288" transform="rotate(-150.028 29.646 29.272)"/>
                <rect width="1" height="1" x="41.159" y="35.631" fill="#5BB4B9" opacity=".288" transform="rotate(-59.974 41.41 36.046)"/>
                <rect width="1.377" height="1" x="24.192" y="26.274" fill="#5BB4B9" opacity=".288" transform="rotate(-149.979 24.88 26.524)"/>
                <rect width="1.377" height="1" x="36.108" y="33.155" fill="#5BB4B9" opacity=".288" transform="rotate(-149.979 36.796 33.405)"/>
                <rect width="1.376" height="1" x="38.497" y="34.532" fill="#5BB4B9" opacity=".288" transform="rotate(-149.999 39.185 34.782)"/>
                <rect width="1.376" height="1" x="33.728" y="31.779" fill="#5BB4B9" opacity=".288" transform="rotate(-150.02 34.416 32.029)"/>
            </g>
        </g>
    </g>
</svg>
