<svg width="50" height="50" xmlns="http://www.w3.org/2000/svg"><path d="M23 .079V19a4 4 0 0 1-4 4H.08C1.045 10.788 10.787 1.046 23 .079Z" fill="var(--o-icons-teal-pure, #00CEB3)"/><path d="M23 .079V19a4 4 0 0 1-4 4H.08C1.045 10.788 10.787 1.046 23 .079Z" fill="url(#o_icon_apps__a)" fill-opacity=".2"/><path d="M49.921 23H31a4 4 0 0 1-4-4V.079C39.212 1.046 48.955 10.788 49.921 23Z" fill="var(--o-icons-purple-pure, #93407D)"/><path d="M49.921 23H31a4 4 0 0 1-4-4V.079C39.212 1.046 48.955 10.788 49.921 23Z" fill="url(#o_icon_apps__b)" fill-opacity=".2"/><path d="M49.921 27C48.955 39.212 39.212 48.955 27 49.921V31a4 4 0 0 1 4-4h18.921Z" fill="var(--o-icons-cyan-pure, #1BB6F9)"/><path d="M49.921 27C48.955 39.212 39.212 48.955 27 49.921V31a4 4 0 0 1 4-4h18.921Z" fill="url(#o_icon_apps__c)" fill-opacity=".2"/><path d="M23 49.921C10.788 48.955 1.046 39.212.08 27H19a4 4 0 0 1 4 4v18.921Z" fill="var(--o-icons-red-red, #F9383D)"/><path d="M23 49.921C10.788 48.955 1.046 39.212.08 27H19a4 4 0 0 1 4 4v18.921Z" fill="url(#o_icon_apps__d)" fill-opacity=".2"/><defs><linearGradient id="o_icon_apps__a" x1=".079" y1=".079" x2="27.045" y2="6.82" gradientUnits="userSpaceOnUse"><stop stop-color="#fff"/><stop offset="1" stop-color="#fff" stop-opacity="0"/></linearGradient><linearGradient id="o_icon_apps__b" x1="27" y1=".079" x2="53.966" y2="6.82" gradientUnits="userSpaceOnUse"><stop stop-color="#fff"/><stop offset="1" stop-color="#fff" stop-opacity="0"/></linearGradient><linearGradient id="o_icon_apps__c" x1="27" y1="27" x2="53.966" y2="33.742" gradientUnits="userSpaceOnUse"><stop stop-color="#fff"/><stop offset="1" stop-color="#fff" stop-opacity="0"/></linearGradient><linearGradient id="o_icon_apps__d" x1=".079" y1="27" x2="27.045" y2="33.742" gradientUnits="userSpaceOnUse"><stop stop-color="#fff"/><stop offset="1" stop-color="#fff" stop-opacity="0"/></linearGradient></defs></svg>
