<svg xmlns="http://www.w3.org/2000/svg" xmlns:xlink="http://www.w3.org/1999/xlink" width="70" height="70" viewBox="0 0 70 70">
    <defs>
        <path id="settings-a" d="M4,1.10374408e-13 C36.4160122,6.67140212e-14 58.0836068,1.70472366e-14 65,1.07545501e-13 C69,1.24181499e-13 70,1 70,5 C70,43.0488877 70,62.4235458 70,65 C70,69 69,70 65,70 C61,70 9,70 4,70 C1,70 7.10542736e-15,69 7.10542736e-15,65 C7.25721566e-15,62.4676575 3.83358709e-14,41.8005206 3.60818146e-14,5 C-1.13686838e-13,1 1,1.1441504e-13 4,1.10374408e-13 Z"/>
        <linearGradient id="settings-c" x1="100%" x2="0%" y1="0%" y2="100%">
            <stop offset="0%" stop-color="#CDC484"/>
            <stop offset="100%" stop-color="#B5AA59"/>
        </linearGradient>
        <path id="settings-d" d="M50.3636068,39.8564453 L53.8317057,41.8583171 C54.2277832,42.0869141 54.4116211,42.5596517 54.2759603,42.9964193 C53.3750814,45.8969727 51.8369954,48.5174154 49.8253581,50.6938477 C49.5152922,51.0295003 49.014109,51.1056645 48.6183268,50.8772786 L45.152832,48.8757324 C43.6947482,50.1250461 42.0184303,51.0942695 40.208252,51.7346191 L40.208252,55.7370605 C40.2082586,56.194297 39.8912627,56.5904321 39.4451497,56.6906738 C36.6004232,57.3295085 33.545166,57.3625488 30.5568848,56.6912435 C30.1101074,56.5909017 29.7916667,56.1951497 29.7916667,55.7372233 L29.7916667,51.7346191 C27.9814711,51.094307 26.3051466,50.1250797 24.8470866,48.8757324 L21.3815918,50.8772786 C20.9858097,51.1056645 20.4846265,51.0295003 20.1745605,50.6938477 C18.1630046,48.5174154 16.6248372,45.8969727 15.7239583,42.9964193 C15.5882975,42.5597331 15.7721354,42.0869954 16.1682129,41.8583171 L19.6363932,39.8564453 C19.2880468,37.9681062 19.2880468,36.0319751 19.6363932,34.1436361 L16.1682943,32.1417643 C15.7722168,31.9131673 15.5883789,31.4404297 15.7240397,31.0036621 C16.6249186,28.1031087 18.1630046,25.482666 20.1746419,23.3062337 C20.4847078,22.970581 20.985891,22.8944169 21.3816732,23.1228027 L24.847168,25.124349 C26.3052518,23.8750353 27.9815697,22.9058119 29.791748,22.2654622 L29.791748,18.2629395 C29.7917414,17.805703 30.1087373,17.4095679 30.5548503,17.3093262 C33.3995768,16.6704915 36.454834,16.6374512 39.4431152,17.3087565 C39.8898926,17.4090983 40.2083333,17.8048503 40.2083333,18.2627767 L40.2083333,22.2653809 C42.0185289,22.905693 43.6948534,23.8749203 45.1529134,25.1242676 L48.6184082,23.1227214 C49.0141903,22.8943355 49.5153735,22.9704997 49.8254395,23.3061523 C51.8369954,25.4825846 53.3751628,28.1030273 54.2760417,31.0035807 C54.4117025,31.4402669 54.2278646,31.9130046 53.8317871,32.1416829 L50.3636068,34.1435547 C50.7119541,36.031921 50.7119541,37.968079 50.3636068,39.8564453 Z M41.5104167,37 C41.5104167,33.4101562 38.5898437,30.4895833 35,30.4895833 C31.4101562,30.4895833 28.4895833,33.4101562 28.4895833,37 C28.4895833,40.5898437 31.4101562,43.5104167 35,43.5104167 C38.5898437,43.5104167 41.5104167,40.5898437 41.5104167,37 Z"/>
        <path id="settings-e" d="M50.3636068,37.8564453 L53.8317057,39.8583171 C54.2277832,40.0869141 54.4116211,40.5596517 54.2759603,40.9964193 C53.3750814,43.8969727 51.8369954,46.5174154 49.8253581,48.6938477 C49.5152922,49.0295003 49.014109,49.1056645 48.6183268,48.8772786 L45.152832,46.8757324 C43.6947482,48.1250461 42.0184303,49.0942695 40.208252,49.7346191 L40.208252,53.7370605 C40.2082586,54.194297 39.8912627,54.5904321 39.4451497,54.6906738 C36.6004232,55.3295085 33.545166,55.3625488 30.5568848,54.6912435 C30.1101074,54.5909017 29.7916667,54.1951497 29.7916667,53.7372233 L29.7916667,49.7346191 C27.9814711,49.094307 26.3051466,48.1250797 24.8470866,46.8757324 L21.3815918,48.8772786 C20.9858097,49.1056645 20.4846265,49.0295003 20.1745605,48.6938477 C18.1630046,46.5174154 16.6248372,43.8969727 15.7239583,40.9964193 C15.5882975,40.5597331 15.7721354,40.0869954 16.1682129,39.8583171 L19.6363932,37.8564453 C19.2880468,35.9681062 19.2880468,34.0319751 19.6363932,32.1436361 L16.1682943,30.1417643 C15.7722168,29.9131673 15.5883789,29.4404297 15.7240397,29.0036621 C16.6249186,26.1031087 18.1630046,23.482666 20.1746419,21.3062337 C20.4847078,20.970581 20.985891,20.8944169 21.3816732,21.1228027 L24.847168,23.124349 C26.3052518,21.8750353 27.9815697,20.9058119 29.791748,20.2654622 L29.791748,16.2629395 C29.7917414,15.805703 30.1087373,15.4095679 30.5548503,15.3093262 C33.3995768,14.6704915 36.454834,14.6374512 39.4431152,15.3087565 C39.8898926,15.4090983 40.2083333,15.8048503 40.2083333,16.2627767 L40.2083333,20.2653809 C42.0185289,20.905693 43.6948534,21.8749203 45.1529134,23.1242676 L48.6184082,21.1227214 C49.0141903,20.8943355 49.5153735,20.9704997 49.8254395,21.3061523 C51.8369954,23.4825846 53.3751628,26.1030273 54.2760417,29.0035807 C54.4117025,29.4402669 54.2278646,29.9130046 53.8317871,30.1416829 L50.3636068,32.1435547 C50.7119541,34.031921 50.7119541,35.968079 50.3636068,37.8564453 Z M41.5104167,35 C41.5104167,31.4101562 38.5898437,28.4895833 35,28.4895833 C31.4101562,28.4895833 28.4895833,31.4101562 28.4895833,35 C28.4895833,38.5898437 31.4101562,41.5104167 35,41.5104167 C38.5898437,41.5104167 41.5104167,38.5898437 41.5104167,35 Z"/>
    </defs>
    <g fill="none" fill-rule="evenodd">
        <mask id="settings-b" fill="#fff">
            <use xlink:href="#settings-a"/>
        </mask>
        <g mask="url(#settings-b)">
            <rect width="70" height="70" fill="url(#settings-c)"/>
            <path fill="#FFF" fill-opacity=".383" d="M4,1.8 L65,1.8 C67.6666667,1.8 69.3333333,1.13333333 70,-0.2 C70,2.46666667 70,3.46666667 70,2.8 L1.10547097e-14,2.8 C-1.65952376e-14,3.46666667 -2.9161925e-14,2.46666667 -2.66453526e-14,-0.2 C0.666666667,1.13333333 2,1.8 4,1.8 Z" transform="matrix(1 0 0 -1 0 2.8)"/>
            <path fill="#393939" d="M4,54 C2,54 0,53 0,50 L0,30.8423884 L20.2271695,6.22078126 L23.2683066,7.93454203 L30.0225921,0.697744573 L41,16 L54.1620484,14.788871 L48.5214124,19.6980082 L47.9771258,26 L54,26 L49.772392,33.6945643 L31.4403528,54 L4,54 Z" opacity=".324" transform="translate(0 15)"/>
            <path fill="#000" fill-opacity=".383" d="M4,4 L65,4 C67.6666667,4 69.3333333,3 70,1 C70,3.66666667 70,5 70,5 L1.77635684e-15,5 C1.77635684e-15,5 1.77635684e-15,3.66666667 1.77635684e-15,1 C0.666666667,3 2,4 4,4 Z" transform="translate(0 65)"/>
            <use fill="#000" fill-rule="nonzero" opacity=".3" xlink:href="#settings-d"/>
            <use fill="#FFF" fill-rule="nonzero" xlink:href="#settings-e"/>
        </g>
    </g>
</svg>
