<svg width="50" height="50" viewBox="0 0 50 50" xmlns="http://www.w3.org/2000/svg"><path d="M25 17V4c.795 0 1.59.204 2.303.61l14.394 8.222A4.548 4.548 0 0 1 44 16.778v16.444c0 .752-.188 1.478-.53 2.121L31.981 28.91A8 8 0 0 0 25 17Z" fill="var(--o-icons-yellow-pure, #FBB130)"/><path d="M25 17V4c.795 0 1.59.204 2.303.61l14.394 8.222A4.548 4.548 0 0 1 44 16.778v16.444c0 .752-.188 1.478-.53 2.121L31.981 28.91A8 8 0 0 0 25 17Z" fill="url(#o_icon_settings__a)" fill-opacity=".2"/><path d="M25 17V4c-.795 0-1.59.204-2.303.61L8.303 12.832A4.548 4.548 0 0 0 6 16.778v16.444c0 .752.187 1.478.53 2.121l11.489-6.434A8 8 0 0 1 25 17Z" fill="var(--o-icons-purple-pure, #93407D)"/><path d="M25 17V4c-.795 0-1.59.204-2.303.61L8.303 12.832A4.548 4.548 0 0 0 6 16.778v16.444c0 .752.187 1.478.53 2.121l11.489-6.434A8 8 0 0 1 25 17Z" fill="url(#o_icon_settings__b)" fill-opacity=".2"/><path d="M6.53 35.343a4.577 4.577 0 0 0 1.773 1.825l14.393 8.221a4.65 4.65 0 0 0 4.607 0l14.393-8.221a4.577 4.577 0 0 0 1.774-1.825L31.98 28.91A7.998 7.998 0 0 1 25 33a7.998 7.998 0 0 1-6.981-4.09l-11.49 6.433Z" fill="var(--o-icons-red-yellow, #F85318)"/><path d="M6.53 35.343a4.577 4.577 0 0 0 1.773 1.825l14.393 8.221a4.65 4.65 0 0 0 4.607 0l14.393-8.221a4.577 4.577 0 0 0 1.774-1.825L31.98 28.91A7.998 7.998 0 0 1 25 33a7.998 7.998 0 0 1-6.981-4.09l-11.49 6.433Z" fill="url(#o_icon_settings__c)" fill-opacity=".2"/><defs><linearGradient id="o_icon_settings__a" x1="25" y1="4" x2="48.217" y2="7.518" gradientUnits="userSpaceOnUse"><stop stop-color="#fff"/><stop offset="1" stop-color="#fff" stop-opacity="0"/></linearGradient><linearGradient id="o_icon_settings__b" x1="6" y1="4" x2="29.217" y2="7.518" gradientUnits="userSpaceOnUse"><stop stop-color="#fff"/><stop offset="1" stop-color="#fff" stop-opacity="0"/></linearGradient><linearGradient id="o_icon_settings__c" x1="6.529" y1="28.91" x2="42.269" y2="48.222" gradientUnits="userSpaceOnUse"><stop stop-color="#fff"/><stop offset="1" stop-color="#fff" stop-opacity="0"/></linearGradient></defs></svg>
