<svg width="64" height="64" viewBox="0 0 64 64" fill="none" xmlns="http://www.w3.org/2000/svg">
<path d="M48.2304 3.28046C49.0383 2.81404 49.6978 3.18771 49.7004 4.11811L49.8128 43.786C49.8155 44.7164 49.1603 45.8512 48.3525 46.3176L21.368 61.8971C20.5583 62.3646 19.8988 61.9888 19.8962 61.0584L19.7837 21.3905C19.7811 20.4601 20.4362 19.3275 21.2459 18.86L48.2304 3.28046Z" fill="white"/>
<path d="M47.7615 6.3496L47.8677 43.7991L21.831 58.7543L21.7331 21.3906L47.7615 6.3496ZM47.7615 5.89246C47.6825 5.89246 47.6036 5.91289 47.5328 5.95385L21.5044 20.9948C21.3627 21.0766 21.2756 21.2281 21.276 21.3918L21.3739 58.7555C21.3743 58.9185 21.4614 59.0688 21.6025 59.1503C21.6732 59.191 21.7521 59.2114 21.831 59.2114C21.9096 59.2114 21.9882 59.1912 22.0587 59.1507L48.0954 44.1956C48.2377 44.1138 48.3253 43.962 48.3249 43.7978L48.2187 6.3483C48.2182 6.18523 48.1309 6.03467 47.9895 5.95332C47.9189 5.91282 47.8402 5.89246 47.7615 5.89246Z" fill="#374874"/>
<path d="M20.3243 61.999L18.2975 60.8211C18.0342 60.668 17.8707 60.3427 17.8694 59.8805L19.8962 61.0584C19.8975 61.5206 20.0609 61.8459 20.3243 61.999Z" fill="#FBDBD0"/>
<path d="M47.2462 2.00083L49.2731 3.17868C49.0065 3.02373 48.6373 3.0456 48.2305 3.28046L46.2037 2.10261C46.6105 1.86775 46.9796 1.8459 47.2462 2.00083Z" fill="#FBDBD0"/>
<path d="M19.8962 61.0584L17.8694 59.8805L17.757 20.2127L19.7838 21.3905L19.8962 61.0584Z" fill="#FBDBD0"/>
<path d="M21.246 18.86L19.2192 17.6821L46.2037 2.10261L48.2305 3.28046L21.246 18.86Z" fill="#FBDBD0"/>
<path d="M19.7838 21.3905L17.757 20.2127C17.7543 19.2823 18.4095 18.1496 19.2192 17.6821L21.246 18.86C20.4363 19.3274 19.7811 20.4601 19.7838 21.3905Z" fill="#FBDBD0"/>
<path d="M37.2801 6.11085L35.2533 4.933C35.6885 4.68176 36.0829 4.65849 36.3677 4.824L38.3945 6.00185C38.1097 5.83634 37.7153 5.85961 37.2801 6.11085Z" fill="#C1DBF6"/>
<path d="M30.604 13.7733L28.5772 12.5955L28.5715 10.5933L30.5983 11.7712L30.604 13.7733Z" fill="#C1DBF6"/>
<path d="M32.1594 9.06731L30.1326 7.88946L35.2533 4.933L37.2801 6.11085L32.1594 9.06731Z" fill="#C1DBF6"/>
<path d="M30.5983 11.7712L28.5715 10.5933C28.5687 9.59961 29.2678 8.38873 30.1326 7.88946L32.1594 9.06731C31.2946 9.5666 30.5955 10.7775 30.5983 11.7712Z" fill="#C1DBF6"/>
<path d="M37.2802 6.11087C38.145 5.61158 38.8486 6.01258 38.8515 7.00627L38.8571 9.00844L39.8945 8.40952C40.7556 7.91235 41.4574 8.31228 41.4602 9.30182L41.4646 10.8263C41.465 10.9925 41.3765 11.1464 41.2325 11.2295L28.71 18.4593C28.4012 18.6377 28.0149 18.4154 28.0139 18.0588L28.0111 17.0667C28.0083 16.0771 28.7056 14.8695 29.5667 14.3723L30.6041 13.7734L30.5984 11.7712C30.5956 10.7775 31.2947 9.56662 32.1594 9.06735L37.2802 6.11087Z" fill="#C1DBF6"/>
<path d="M46.8679 1.899C47.0022 1.899 47.121 1.92947 47.2182 1.98684C47.2182 1.98684 49.27 3.17736 49.2701 3.17736C49.5346 3.32947 49.6991 3.65459 49.7004 4.11809L49.8129 43.786C49.8156 44.7164 49.1604 45.8511 48.3525 46.3177L21.368 61.8971C21.1321 62.0333 20.9091 62.0977 20.7113 62.0977C20.5657 62.0977 20.4337 62.0628 20.3203 61.9958L18.2975 60.8212C18.0341 60.6681 17.8707 60.3428 17.8694 59.8806L17.7569 20.2126C17.7543 19.2823 18.4095 18.1497 19.2192 17.6822L28.5764 12.2797L28.5716 10.5935C28.5688 9.59969 29.2679 8.38876 30.1327 7.88954L35.2534 4.93306C35.5058 4.7873 35.7444 4.71832 35.956 4.71832C36.1092 4.71832 36.2481 4.75459 36.3678 4.82401L38.3943 6.00179C38.3936 6.00134 38.3928 6.00113 38.3921 6.00079C38.542 6.08705 38.6605 6.2268 38.7401 6.41174L46.2037 2.10259C46.4448 1.96342 46.6726 1.899 46.8679 1.899ZM38.3943 6.00179L38.3946 6.00193L38.3943 6.00179ZM46.868 0.984741C46.5039 0.984741 46.1161 1.09747 45.7466 1.31075L38.9199 5.25217C38.907 5.2438 38.8939 5.23564 38.8807 5.22762C38.8718 5.22204 38.8628 5.21658 38.8537 5.21132L36.8272 4.03354C36.5687 3.88344 36.2675 3.80408 35.9561 3.80408C35.5741 3.80408 35.1839 3.91747 34.7963 4.14124L29.6755 7.09784C28.5212 7.76412 27.6536 9.26803 27.6573 10.5961L27.6606 11.7527L18.762 16.8905C17.6642 17.5243 16.8391 18.9536 16.8427 20.2152L16.9551 59.8832C16.9573 60.6568 17.2791 61.2868 17.838 61.6117C17.8384 61.6119 19.7688 62.7328 19.8572 62.7841C20.1103 62.9332 20.4057 63.012 20.7113 63.012C21.0791 63.012 21.4537 62.9033 21.8251 62.689L48.8096 47.1095C49.9064 46.4762 50.7308 45.0462 50.7272 43.7834L50.6147 4.11555C50.6125 3.34033 50.2895 2.7102 49.7283 2.3862C49.7052 2.37281 47.677 1.19603 47.677 1.19603C47.4452 1.0591 47.1634 0.984741 46.868 0.984741Z" fill="#374874"/>
<path fill-rule="evenodd" clip-rule="evenodd" d="M39.9177 24.3392C39.9178 24.3392 39.9179 24.3393 39.8187 24.5437L39.9179 24.3393C40.0315 24.3944 40.0788 24.5312 40.0237 24.6447C39.9686 24.7581 39.8322 24.8055 39.7187 24.7507C39.7186 24.7506 39.7184 24.7506 39.7182 24.7505L39.8181 24.5449C39.7182 24.7505 39.7181 24.7504 39.7182 24.7505L39.7165 24.7497C39.7142 24.7486 39.7102 24.7468 39.7045 24.7442C39.693 24.7392 39.6749 24.7314 39.6503 24.7216C39.6011 24.7021 39.5263 24.6746 39.4282 24.6451C39.2319 24.5859 38.9429 24.5185 38.5798 24.4893C37.8552 24.4309 36.8305 24.5237 35.6499 25.1434C34.4535 25.7715 32.9548 26.9463 31.9507 28.3042C30.9413 29.6695 30.4785 31.1486 31.1882 32.4419C31.6049 33.2012 32.2139 33.49 32.9519 33.5488C33.7115 33.6093 34.5889 33.4243 35.5125 33.229L35.5183 33.2277C36.4214 33.0367 37.3696 32.8362 38.2121 32.9079C39.0777 32.9815 39.8464 33.3438 40.3598 34.2709C40.9369 35.3131 40.9157 36.4169 40.4902 37.4453C40.0672 38.4676 39.2457 39.4166 38.2138 40.1836C36.1556 41.7135 33.1879 42.5703 30.6747 41.7892C30.5541 41.7518 30.4868 41.6237 30.5242 41.5031C30.5617 41.3826 30.6898 41.3152 30.8104 41.3527C33.1467 42.0788 35.9645 41.2859 37.9411 39.8168C38.9265 39.0843 39.6847 38.1964 40.0678 37.2706C40.4483 36.3508 40.4597 35.3951 39.9599 34.4924C39.5333 33.7221 38.9159 33.4265 38.1734 33.3634C37.4096 33.2984 36.53 33.481 35.607 33.6762L35.5703 33.684C34.6772 33.8729 33.7435 34.0704 32.9156 34.0045C32.055 33.9359 31.2919 33.5811 30.7874 32.6619C29.9465 31.1294 30.5386 29.4452 31.5832 28.0324C32.6331 26.6124 34.1877 25.3947 35.4374 24.7387C36.7027 24.0744 37.8153 23.9691 38.6165 24.0336C39.0162 24.0658 39.3372 24.1402 39.5601 24.2074C39.6716 24.241 39.7588 24.2728 39.8192 24.2968C39.8494 24.3088 39.8729 24.3189 39.8894 24.3262C39.8977 24.3299 39.9042 24.3328 39.909 24.3351L39.9148 24.3378L39.9167 24.3387L39.9174 24.339L39.9177 24.3392Z" fill="#374874"/>
<path fill-rule="evenodd" clip-rule="evenodd" d="M35.5181 22.5457C35.6443 22.5457 35.7466 22.648 35.7466 22.7742V43.5597C35.7466 43.6859 35.6443 43.7883 35.5181 43.7883C35.3918 43.7883 35.2895 43.6859 35.2895 43.5597V22.7742C35.2895 22.648 35.3918 22.5457 35.5181 22.5457Z" fill="#374874"/>
<path d="M49.5169 33.14C53.8497 30.6384 57.3723 32.6475 57.3864 37.6246C57.4005 42.6017 53.9008 48.6651 49.568 51.1667C45.2366 53.6674 41.714 51.6599 41.6999 46.6812C41.6857 41.7025 45.1855 35.6407 49.5169 33.14Z" fill="#374874"/>
<path d="M54.0353 35.226L54.7045 35.6559L47.1187 48.2591L44.3662 46.6905L45.0513 45.5022L47.1348 46.6911L54.0353 35.226Z" fill="white"/>
</svg>
