<?xml version="1.0" encoding="UTF-8" standalone="no"?>
<svg
   version="1.1"
   width="70"
   height="70"
   viewBox="0,0,70,70"
   id="svg17"
   sodipodi:docname="icon.svg"
   inkscape:export-filename="icon.png"
   inkscape:export-xdpi="192"
   inkscape:export-ydpi="192"
   inkscape:version="1.1.2 (0a00cf5339, 2022-02-04)"
   xmlns:inkscape="http://www.inkscape.org/namespaces/inkscape"
   xmlns:sodipodi="http://sodipodi.sourceforge.net/DTD/sodipodi-0.dtd"
   xmlns="http://www.w3.org/2000/svg"
   xmlns:svg="http://www.w3.org/2000/svg">
  <sodipodi:namedview
     id="namedview19"
     pagecolor="#ffffff"
     bordercolor="#666666"
     borderopacity="1.0"
     inkscape:pageshadow="2"
     inkscape:pageopacity="0.0"
     inkscape:pagecheckerboard="0"
     showgrid="false"
     inkscape:zoom="12.057143"
     inkscape:cx="35"
     inkscape:cy="35.041469"
     inkscape:window-width="2486"
     inkscape:window-height="1016"
     inkscape:window-x="74"
     inkscape:window-y="27"
     inkscape:window-maximized="1"
     inkscape:current-layer="svg17" />
  <!-- Generated with https://ivantodorovich.github.io/odoo-icon -->
  <defs
     id="defs7">
    <linearGradient
       x1="70"
       y1="0"
       x2="0"
       y2="70"
       gradientUnits="userSpaceOnUse"
       id="color-1">
      <stop
         offset="0"
         stop-color="#d85060"
         id="stop2" />
      <stop
         offset="1"
         stop-color="#a51d2d"
         id="stop4" />
    </linearGradient>
  </defs>
  <g
     fill="none"
     fill-rule="nonzero"
     stroke="none"
     stroke-width="1"
     stroke-linecap="butt"
     stroke-linejoin="miter"
     stroke-miterlimit="10"
     stroke-dasharray=""
     stroke-dashoffset="0"
     font-family="none"
     font-weight="none"
     font-size="none"
     text-anchor="none"
     style="mix-blend-mode: normal"
     id="g15">
    <path
       d="M3.5,70c-1.933,0 -3.5,-1.567 -3.5,-3.5v-63c0,-1.933 1.567,-3.5 3.5,-3.5h63c1.933,0 3.5,1.567 3.5,3.5v63c0,1.933 -1.567,3.5 -3.5,3.5z"
       id="box"
       fill="url(#color-1)" />
    <path
       d="M65,1h-61c-1.95033,0 -3.2667,0.63396 -3.9491,1.90189c0.28378,-1.64806 1.72001,-2.90189 3.4491,-2.90189h63c1.72965,0 3.16627,1.25466 3.44938,2.90352c-0.69803,-1.26902 -2.34782,-1.90352 -4.94938,-1.90352z"
       id="topBoxShadow"
       fill="#ffffff"
       opacity="0.383" />
    <path
       d="M4,69h61c2.66667,0 4.33333,-1 5,-3v0.5c0,1.933 -1.567,3.5 -3.5,3.5h-63c-1.933,0 -3.5,-1.567 -3.5,-3.5c0,-0.1611 0,-0.32777 0,-0.5c0.66667,2 2,3 4,3z"
       id="bottomBoxShadow"
       fill="#000000"
       opacity="0.383" />
    <path
       d="M20.88691,48.64852v-15.32237h6.89337c2.92132,0.52278 5.84304,2.10865 8.76436,3.94693h5.35376c2.42367,0.14475 3.69332,2.60231 1.33665,4.21609c-1.87617,1.37812 -4.35367,1.29916 -6.89337,1.07107c-1.75136,-0.08733 -1.82592,2.26616 0,2.27413c0.63562,0.04985 1.32388,-0.09929 1.92522,-0.09929c3.16656,-0.00479 5.77724,-0.6101 7.37468,-3.11312l0.80151,-1.87138l7.96365,-3.94653c3.98442,-1.31152 6.8188,2.85513 3.88074,5.75611c-5.76887,4.19576 -11.68328,7.64863 -17.73328,10.43756c-4.39474,2.67289 -8.79028,2.58118 -13.18103,0zM47.33231,24.48243c0.82105,0 1.47821,0.23527 1.97905,0.70142c0.49845,0.46854 0.75007,1.09021 0.75007,1.8674c0,0.77439 -0.25162,1.39845 -0.75007,1.865c-0.50084,0.46814 -1.158,0.70142 -1.97905,0.70142c-0.82105,0 -1.4814,-0.23327 -1.98144,-0.70142c-0.49845,-0.46894 -0.74768,-1.09061 -0.74768,-1.865c0,-0.77718 0.24923,-1.39885 0.74768,-1.8674c0.50005,-0.46615 1.16079,-0.70142 1.98144,-0.70142zM45.65712,20.39793h2.2211l-6.50458,8.8469h-2.2211zM47.33231,26.25931c-0.24005,0 -0.42428,0.07098 -0.55149,0.20616c-0.12601,0.14156 -0.19101,0.33257 -0.19101,0.58857c0,0.25242 0.0646,0.44621 0.19101,0.58498c0.12681,0.13877 0.31143,0.20656 0.55149,0.20656c0.23766,0 0.42229,-0.07058 0.54909,-0.20656c0.12601,-0.13877 0.19101,-0.33257 0.19101,-0.58498c0,-0.256 -0.0654,-0.4498 -0.19101,-0.58857c-0.12362,-0.13837 -0.30824,-0.20616 -0.54909,-0.20616zM39.66933,21.80914c-0.24085,0 -0.42308,0.07058 -0.54909,0.20656c-0.12601,0.13837 -0.19101,0.33257 -0.19101,0.58498c0,0.25281 0.0646,0.4498 0.19101,0.58817c0.12601,0.13558 0.30824,0.20656 0.54909,0.20656c0.24005,0 0.42428,-0.07098 0.55069,-0.20656c0.12601,-0.14156 0.18782,-0.33536 0.18782,-0.58817c0,-0.25242 -0.06141,-0.44661 -0.18782,-0.58498c-0.12282,-0.13598 -0.30744,-0.20656 -0.55069,-0.20656zM39.66853,20.03187c0.82105,0 1.4814,0.23288 1.98224,0.70182c0.49765,0.46854 0.74688,1.09021 0.74688,1.865c0,0.77718 -0.24923,1.39885 -0.74688,1.8674c-0.50084,0.46854 -1.16119,0.70142 -1.98224,0.70142c-0.82025,0 -1.47821,-0.23527 -1.97905,-0.70142c-0.49845,-0.46854 -0.75007,-1.09021 -0.75007,-1.8674c0,-0.77439 0.25162,-1.39845 0.75007,-1.865c0.50084,-0.46854 1.1592,-0.70182 1.97905,-0.70182zM10.5,31.85312h8.31176v18.33501h-8.31176z"
       id="shadow"
       fill="#000000"
       opacity="0.3" />
    <path
       d="M20.88691,31.32614l4.20823,0l12.5365,-12.5365c0.0189,-0.0189 0.03818,-0.03755 0.05784,-0.05595c0.50084,-0.46854 1.1592,-0.70182 1.97905,-0.70182c0.82105,0 1.4814,0.23288 1.98224,0.70182c0.49765,0.46854 0.74688,1.09021 0.74688,1.865c0,0.57082 -0.13444,1.05774 -0.40301,1.46172l3.66248,-3.66248h2.2211l-6.26741,8.52432l3.68553,-3.68553c0.01783,-0.01783 0.03601,-0.03546 0.05454,-0.05287c0.50005,-0.46615 1.16079,-0.70142 1.98144,-0.70142c0.82105,0 1.47821,0.23527 1.97905,0.70142c0.49845,0.46854 0.75007,1.09021 0.75007,1.8674c0,0.74384 -0.23216,1.34898 -0.69223,1.80905l-8.41278,8.41278h0.94198c2.21046,0.13202 3.46101,2.18784 1.87608,3.77277l-3.59528,3.59528c0.58779,-0.06319 1.14906,-0.16188 1.68005,-0.30672l4.58383,-4.58383l7.96365,-3.94653c3.9739,-1.30806 6.80383,2.83316 3.90389,5.7331l-30.46285,30.46285h-24.34776c-1.933,0 -3.5,-1.567 -3.5,-3.5l0,-26.14688l10.5,-10.5h8.31176l0,3.54817z"
       id="flatShadow"
       fill="#000000"
       opacity="0.324" />
    <path
       d="M20.88691,46.64852v-15.32237h6.89337c2.92132,0.52278 5.84304,2.10865 8.76436,3.94693h5.35376c2.42367,0.14475 3.69332,2.60231 1.33665,4.21609c-1.87617,1.37812 -4.35367,1.29916 -6.89337,1.07107c-1.75136,-0.08733 -1.82592,2.26616 0,2.27413c0.63562,0.04985 1.32388,-0.09929 1.92522,-0.09929c3.16656,-0.00479 5.77724,-0.6101 7.37468,-3.11312l0.80151,-1.87138l7.96365,-3.94653c3.98442,-1.31152 6.8188,2.85513 3.88074,5.75611c-5.76887,4.19576 -11.68328,7.64863 -17.73328,10.43756c-4.39474,2.67289 -8.79028,2.58118 -13.18103,0zM47.33231,22.48243c0.82105,0 1.47821,0.23527 1.97905,0.70142c0.49845,0.46854 0.75007,1.09021 0.75007,1.8674c0,0.77439 -0.25162,1.39845 -0.75007,1.865c-0.50084,0.46814 -1.158,0.70142 -1.97905,0.70142c-0.82105,0 -1.4814,-0.23327 -1.98144,-0.70142c-0.49845,-0.46894 -0.74768,-1.09061 -0.74768,-1.865c0,-0.77718 0.24923,-1.39885 0.74768,-1.8674c0.50005,-0.46615 1.16079,-0.70142 1.98144,-0.70142zM45.65712,18.39793h2.2211l-6.50458,8.8469h-2.2211zM47.33231,24.25931c-0.24005,0 -0.42428,0.07098 -0.55149,0.20616c-0.12601,0.14156 -0.19101,0.33257 -0.19101,0.58857c0,0.25242 0.0646,0.44621 0.19101,0.58498c0.12681,0.13877 0.31143,0.20656 0.55149,0.20656c0.23766,0 0.42229,-0.07058 0.54909,-0.20656c0.12601,-0.13877 0.19101,-0.33257 0.19101,-0.58498c0,-0.256 -0.0654,-0.4498 -0.19101,-0.58857c-0.12362,-0.13837 -0.30824,-0.20616 -0.54909,-0.20616zM39.66933,19.80914c-0.24085,0 -0.42308,0.07058 -0.54909,0.20656c-0.12601,0.13837 -0.19101,0.33257 -0.19101,0.58498c0,0.25281 0.0646,0.4498 0.19101,0.58817c0.12601,0.13558 0.30824,0.20656 0.54909,0.20656c0.24005,0 0.42428,-0.07098 0.55069,-0.20656c0.12601,-0.14156 0.18782,-0.33536 0.18782,-0.58817c0,-0.25242 -0.06141,-0.44661 -0.18782,-0.58498c-0.12282,-0.13598 -0.30744,-0.20656 -0.55069,-0.20656zM39.66853,18.03187c0.82105,0 1.4814,0.23288 1.98224,0.70182c0.49765,0.46854 0.74688,1.09021 0.74688,1.865c0,0.77718 -0.24923,1.39885 -0.74688,1.8674c-0.50084,0.46854 -1.16119,0.70142 -1.98224,0.70142c-0.82025,0 -1.47821,-0.23527 -1.97905,-0.70142c-0.49845,-0.46854 -0.75007,-1.09021 -0.75007,-1.8674c0,-0.77439 0.25162,-1.39845 0.75007,-1.865c0.50084,-0.46854 1.1592,-0.70182 1.97905,-0.70182zM10.5,29.85312h8.31176v18.33501h-8.31176z"
       id="icon"
       fill="#ffffff" />
  </g>
</svg>
