<svg width="50" height="50" viewBox="0 0 50 50" xmlns="http://www.w3.org/2000/svg"><path d="M32 25a7 7 0 1 1-14 0 7 7 0 0 1 14 0Z" fill="var(--o-icons-purple-pure, #93407D)"/><path d="M32 25a7 7 0 1 1-14 0 7 7 0 0 1 14 0Z" fill="url(#o_icon_hr_recruitment__a)" fill-opacity=".2"/><path d="M25 46C13.402 46 4 36.598 4 25S13.402 4 25 4s21 9.402 21 21c0 5.799-2.35 11.049-6.15 14.85l-6.365-6.365A11.964 11.964 0 0 0 37 25c0-6.627-5.373-12-12-12s-12 5.373-12 12 5.373 12 12 12v9Z" fill="var(--o-icons-teal-pure, #00CEB3)"/><path d="M25 46C13.402 46 4 36.598 4 25S13.402 4 25 4s21 9.402 21 21c0 5.799-2.35 11.049-6.15 14.85l-6.365-6.365A11.964 11.964 0 0 0 37 25c0-6.627-5.373-12-12-12s-12 5.373-12 12 5.373 12 12 12v9Z" fill="url(#o_icon_hr_recruitment__b)" fill-opacity=".2"/><path fill-rule="evenodd" clip-rule="evenodd" d="M25 37a11.958 11.958 0 0 1-8.345-3.377A9 9 0 0 0 25 46h13a9 9 0 0 0-9-9h-4Z" fill="var(--o-icons-purple-pure, #93407D)"/><path fill-rule="evenodd" clip-rule="evenodd" d="M25 37a11.958 11.958 0 0 1-8.345-3.377A9 9 0 0 0 25 46h13a9 9 0 0 0-9-9h-4Z" fill="url(#o_icon_hr_recruitment__c)" fill-opacity=".2"/><defs><linearGradient id="o_icon_hr_recruitment__a" x1="18" y1="18" x2="34.471" y2="22.118" gradientUnits="userSpaceOnUse"><stop stop-color="#fff"/><stop offset="1" stop-color="#fff" stop-opacity="0"/></linearGradient><linearGradient id="o_icon_hr_recruitment__b" x1="4" y1="4" x2="53.412" y2="16.353" gradientUnits="userSpaceOnUse"><stop stop-color="#fff"/><stop offset="1" stop-color="#fff" stop-opacity="0"/></linearGradient><linearGradient id="o_icon_hr_recruitment__c" x1="16" y1="33.623" x2="38.965" y2="43.828" gradientUnits="userSpaceOnUse"><stop stop-color="#fff"/><stop offset="1" stop-color="#fff" stop-opacity="0"/></linearGradient></defs></svg>
