<svg xmlns="http://www.w3.org/2000/svg" xmlns:xlink="http://www.w3.org/1999/xlink" width="70" height="70" viewBox="0 0 70 70"><defs><path id="a" d="M4 0h61c4 0 5 1 5 5v60c0 4-1 5-5 5H4c-3 0-4-1-4-5V5c0-4 1-5 4-5z"/><linearGradient id="c" x1="100%" x2="0%" y1="0%" y2="100%"><stop offset="0%" stop-color="#B06161"/><stop offset="45.785%" stop-color="#984E4E"/><stop offset="100%" stop-color="#7C3838"/></linearGradient></defs><g fill="none" fill-rule="evenodd"><mask id="b" fill="#fff"><use xlink:href="#a"/></mask><g mask="url(#b)"><path fill="url(#c)" d="M0 0H70V70H0z"/><path fill="#FFF" fill-opacity=".383" d="M4 1h61c2.667 0 4.333.667 5 2V0H0v3c.667-1.333 2-2 4-2z"/><path fill="#393939" d="M4 69c-2 0-4-1-4-4V41.016L12 28l4 4 6-4 5 5 6-6h20l6 16-16.49 26H4z" opacity=".324"/><path fill="#000" fill-opacity=".383" d="M4 69h61c2.667 0 4.333-1 5-3v4H0v-4c.667 2 2 3 4 3z"/><path fill="#000" d="M33 29h26v16H29c4.667-7.333 6-12.667 4-16zm11 4l-4 4 4 4 1-1-3-3 3-3-1-1zm4 0l-1 1 3 3-3 3 1 1 4-4-4-4zm-19.056-.074c.013.178.013.356.013.533 0 5.42-4.124 11.663-11.663 11.663-2.322 0-4.48-.673-6.294-1.84.33.038.647.05.99.05 1.916 0 3.68-.647 5.089-1.75a4.106 4.106 0 0 1-3.833-2.843c.254.038.508.063.774.063.368 0 .736-.05 1.079-.14a4.1 4.1 0 0 1-3.287-4.022v-.051c.546.304 1.18.495 1.853.52a4.096 4.096 0 0 1-1.827-3.414c0-.761.203-1.459.558-2.068a11.651 11.651 0 0 0 8.452 4.29 4.627 4.627 0 0 1-.102-.94 4.097 4.097 0 0 1 4.1-4.099 4.09 4.09 0 0 1 2.994 1.295 8.07 8.07 0 0 0 2.602-.99 4.088 4.088 0 0 1-1.802 2.259 8.217 8.217 0 0 0 2.36-.635 8.811 8.811 0 0 1-2.056 2.12z" opacity=".3"/><path fill="#FFF" d="M33 27h26v16H29c4.667-7.333 6-12.667 4-16zm11 4l-4 4 4 4 1-1-3-3 3-3-1-1zm4 0l-1 1 3 3-3 3 1 1 4-4-4-4zm-19.056-.074c.013.178.013.356.013.533 0 5.42-4.124 11.663-11.663 11.663-2.322 0-4.48-.673-6.294-1.84.33.038.647.05.99.05 1.916 0 3.68-.647 5.089-1.75a4.106 4.106 0 0 1-3.833-2.843c.254.038.508.063.774.063.368 0 .736-.05 1.079-.14a4.1 4.1 0 0 1-3.287-4.022v-.051c.546.304 1.18.495 1.853.52a4.096 4.096 0 0 1-1.827-3.414c0-.761.203-1.459.558-2.068a11.651 11.651 0 0 0 8.452 4.29 4.627 4.627 0 0 1-.102-.94 4.097 4.097 0 0 1 4.1-4.099 4.09 4.09 0 0 1 2.994 1.295 8.07 8.07 0 0 0 2.602-.99 4.088 4.088 0 0 1-1.802 2.259 8.217 8.217 0 0 0 2.36-.635 8.811 8.811 0 0 1-2.056 2.12z"/></g></g></svg>