<svg width="38" height="38" viewBox="0 0 38 38" fill="none" xmlns="http://www.w3.org/2000/svg">
<path d="M34 0H4C1.79086 0 0 1.79086 0 4V34C0 36.2091 1.79086 38 4 38H34C36.2091 38 38 36.2091 38 34V4C38 1.79086 36.2091 0 34 0Z" fill="#F0851D" fill-opacity="0.3"/>
<path d="M16.2621 22.5001C15.4122 22.5001 14.5619 22.4843 13.7125 22.5047C12.9903 22.5717 12.3019 22.185 11.9835 21.5333C10.7114 19.3545 10.0278 16.8823 10 14.3594C10.0543 12.2629 10.9143 10.2679 12.4012 8.78894C13.3671 7.75774 14.5688 6.97627 15.9032 6.51158C17.4231 5.9622 19.0672 5.8527 20.6466 6.19565C24.29 6.96909 27.0638 9.93382 27.5933 13.6206C27.6739 13.959 27.4778 14.3018 27.1453 14.4039C26.4949 14.6769 25.8041 14.8411 25.1004 14.8899C23.7421 15.0549 22.3701 15.0749 21.0076 14.9494C20.4617 14.8817 20.3626 14.7732 20.3584 14.2097C20.3526 13.4395 20.3564 12.6692 20.3556 11.899C20.3555 11.7795 20.3536 11.66 20.351 11.5405C20.366 11.4259 20.3289 11.3106 20.2499 11.2263C20.1709 11.142 20.0583 11.0974 19.943 11.105C19.6382 11.0946 19.5028 11.267 19.5018 11.5476C19.497 12.8622 19.4988 14.1769 19.4995 15.4915C19.4997 15.865 19.7364 15.9564 20.0546 15.9561C21.2365 15.9551 22.4184 15.9508 23.6003 15.9596C24.33 15.9416 25.0593 16.0122 25.772 16.1698C26.2613 16.2145 26.7012 16.4866 26.9597 16.9044C27.2183 17.3222 27.2656 17.8372 27.0873 18.2951C26.6902 20.0591 26.0355 21.7551 25.1443 23.3285C23.81 25.7474 22.2534 28.0367 20.4946 30.167C20.046 30.7251 19.5699 31.261 19.1165 31.8154C18.9112 32.0665 18.7562 32.061 18.5562 31.8017C16.9253 29.7587 15.4368 27.6059 14.1013 25.3587C13.9371 25.0719 13.8073 24.765 13.6681 24.4644C13.5343 24.1755 13.6438 23.9866 13.9192 23.8569C14.2505 23.7176 14.6018 23.6321 14.96 23.6036C15.9729 23.4562 17.0024 23.4649 18.0127 23.6295C18.5975 23.7365 18.6936 23.8739 18.6929 24.4603C18.6924 24.9118 18.6855 25.3634 18.6922 25.8148C18.6964 26.1015 18.7777 26.3758 19.1208 26.3731C19.4626 26.3704 19.5431 26.0949 19.5448 25.8088C19.55 24.8659 19.5432 23.9231 19.5491 22.9803C19.5517 22.5744 19.2952 22.4969 18.9711 22.4963C18.0681 22.4945 17.1651 22.4942 16.2621 22.4956V22.5001Z" fill="#F0851D"/>
</svg>
