<svg xmlns="http://www.w3.org/2000/svg" xmlns:xlink="http://www.w3.org/1999/xlink" width="70" height="70" viewBox="0 0 70 70"><defs><path id="a" d="M4 0h61c4 0 5 1 5 5v60c0 4-1 5-5 5H4c-3 0-4-1-4-5V5c0-4 1-5 4-5z"/><linearGradient id="c" x1="100%" x2="0%" y1="0%" y2="100%"><stop offset="0%" stop-color="#94B6C8"/><stop offset="100%" stop-color="#6A9EBA"/></linearGradient><path id="d" d="M25.032 41.074a19.727 19.727 0 0 1-5.488-1.294c-2.237 1.814-4.98 2.92-7.896 3.237a.592.592 0 0 1-.635-.445c-.07-.292.15-.473.366-.687 1.07-1.068 2.368-1.907 2.875-5.493C12.213 34.363 11 31.83 11 29.081 11 22.408 18.15 17 26.968 17c7.685 0 14.103 4.108 15.625 9.58a19.384 19.384 0 0 0-1.407-.05C32.246 26.53 25 32.654 25 40.209c0 .29.01.579.032.865zm.989-16.996c6.788-4.37-5.117-.712 1.12.722.313.072 1.874.619 2.097.773 1.235.855-1.19.232-4.763 2.67-2.547 1.74 4.968.546 9.525-4.877l-7.98.712zm-4.815 7.276c-1.047.45-1.449-.334-1.206-2.354.364-3.03-1.553-4.378 2-2.496 3.553 1.882-3.438-4.606-5.26-2.026-1.821 2.58 2.588.043 2.223.28-.366.238-2.239 3.277-.963 5.242 1.276 1.965 1.566 2.419 3.024 2.869.971.3 1.032-.205.182-1.515zm20.02 22.48C32.819 53.833 26 47.873 26 40.51c0-7.359 6.818-13.323 15.227-13.323 8.408 0 15.226 5.965 15.226 13.323 0 3.032-1.157 5.826-3.103 8.063.484 3.955 1.721 4.88 2.742 6.057.206.237.415.436.348.759-.061.29-.29.494-.545.494a.49.49 0 0 1-.06-.004c-2.78-.35-5.397-1.569-7.53-3.57a16.928 16.928 0 0 1-7.078 1.524zm-1.613-21.258L33.83 47.64h2.722l1.414-3.988h6.014l1.413 3.988h2.828l-5.803-15.065h-2.806zm-.929 9.073l2.28-6.478h.063l2.257 6.478h-4.6z"/><path id="e" d="M25.032 39.074a19.727 19.727 0 0 1-5.488-1.294c-2.237 1.814-4.98 2.92-7.896 3.237a.592.592 0 0 1-.635-.445c-.07-.292.15-.473.366-.687 1.07-1.068 2.368-1.907 2.875-5.493C12.213 32.363 11 29.83 11 27.081 11 20.408 18.15 15 26.968 15c7.685 0 14.103 4.108 15.625 9.58a19.384 19.384 0 0 0-1.407-.05C32.246 24.53 25 30.654 25 38.209c0 .29.01.579.032.865zm.989-16.996c6.788-4.37-5.117-.712 1.12.722.313.072 1.874.619 2.097.773 1.235.855-1.19.232-4.763 2.67-2.547 1.74 4.968.546 9.525-4.877l-7.98.712zm-4.815 7.276c-1.047.45-1.449-.334-1.206-2.354.364-3.03-1.553-4.378 2-2.496 3.553 1.882-3.438-4.606-5.26-2.026-1.821 2.58 2.588.043 2.223.28-.366.238-2.239 3.277-.963 5.242 1.276 1.965 1.566 2.419 3.024 2.869.971.3 1.032-.205.182-1.515zm20.02 22.48C32.819 51.833 26 45.873 26 38.51c0-7.359 6.818-13.323 15.227-13.323 8.408 0 15.226 5.965 15.226 13.323 0 3.032-1.157 5.826-3.103 8.063.484 3.955 1.721 4.88 2.742 6.057.206.237.415.436.348.759-.061.29-.29.494-.545.494a.49.49 0 0 1-.06-.004c-2.78-.35-5.397-1.569-7.53-3.57a16.928 16.928 0 0 1-7.078 1.524zm-1.613-21.258L33.83 45.64h2.722l1.414-3.988h6.014l1.413 3.988h2.828l-5.803-15.065h-2.806zm-.929 9.073l2.28-6.478h.063l2.257 6.478h-4.6z"/></defs><g fill="none" fill-rule="evenodd"><mask id="b" fill="#fff"><use xlink:href="#a"/></mask><g mask="url(#b)"><path fill="url(#c)" d="M0 0H70V70H0z"/><path fill="#FFF" fill-opacity=".383" d="M4 1h61c2.667 0 4.333.667 5 2V0H0v3c.667-1.333 2-2 4-2z"/><path fill="#393939" d="M45.111 69H4c-2 0-4-1-4-4V37.883L14 20l11-5 17 9 10 24 4.36 5.623L45.11 69z" opacity=".324"/><path fill="#000" fill-opacity=".383" d="M4 69h61c2.667 0 4.333-1 5-3v4H0v-4c.667 2 2 3 4 3z"/><use fill="#000" fill-rule="nonzero" opacity=".3" xlink:href="#d"/><use fill="#FFF" fill-rule="nonzero" xlink:href="#e"/></g></g></svg>