<svg xmlns="http://www.w3.org/2000/svg" xmlns:xlink="http://www.w3.org/1999/xlink" width="600" height="600">
    <defs>
        <clipPath id="clip-path" clipPathUnits="objectBoundingBox">
            <use xlink:href="#filterPath" fill="none"/>
        </clipPath>
        <path id="filterPath" d="M0.9312,0.5C0.9742,0.4472,1,0.3799,1,0.3065C1,0.1372,0.8628,0,0.6935,0C0.6201,0,0.5528,0.0258,0.5,0.0688C0.4472,0.0258,0.3799,0,0.3065,0C0.1372,0,0,0.1372,0,0.3065C0,0.3799,0.0258,0.4472,0.0688,0.5C0.0258,0.5528,0,0.6201,0,0.6935C0,0.8628,0.1372,1,0.3065,1C0.3799,1,0.4472,0.9742,0.5,0.9312C0.5528,0.9742,0.6201,1,0.6935,1C0.8628,1,1,0.8628,1,0.6935C1,0.6201,0.9742,0.5528,0.9312,0.5Z">
        </path>
    </defs>
    <svg viewBox="0 0 1 1" id="preview" preserveAspectRatio="none">
        <use xlink:href="#filterPath" fill="darkgrey"/>
    </svg>
    <image xlink:href="" clip-path="url(#clip-path)"/>
</svg>
