<svg xmlns="http://www.w3.org/2000/svg" xmlns:xlink="http://www.w3.org/1999/xlink" width="800" height="600">
    <defs>
        <clipPath id="clip-path" clipPathUnits="objectBoundingBox">
            <use xlink:href="#filterPath" fill="none"/>
        </clipPath>
        <path id="filterPath" d="M.7458.2839c.1146.1335.226.2876.2005.4073c-.0255.1198-.191.202-.3343.2362c-.1433.0376-.261.0274-.3629-.0239c-.1019-.0513-.1847-.1437-.1974-.2464c-.0127-.0993.0446-.2054.1146-.3286c.07-.1232.1528-.2635.2547-.2773C.5166.0374.6311.1504.7458.2839z">
            <animate dur="18s" repeatCount="indefinite" attributeName="d" attributeType="XML"
            values="
            M.7458.2839c.1146.1335.226.2876.2005.4073c-.0255.1198-.191.202-.3343.2362c-.1433.0376-.261.0274-.3629-.0239c-.1019-.0513-.1847-.1437-.1974-.2464c-.0127-.0993.0446-.2054.1146-.3286c.07-.1232.1528-.2635.2547-.2773C.5166.0374.6311.1504.7458.2839z;
            M.8735.2091c.0705.0795.0822.1843.0743.3115c-.0117.1272-.047.2765-.1723.3591c-.1253.0826-.3406.0953-.4737.0222c-.1331-.0731-.184-.232-.2192-.3877C.0474.3585.0241.2124.1024.1296C.1845.0503.3725.0375.5251.0598C.6817.0788.807.1296.8735.2091z;
            M.9181.3348c.0597.1296.0238.2466-.012.3542c-.0358.1075-.0796.2087-.1672.2435c-.0876.038-.2149.0095-.3424-.038c-.1234-.0443-.2468-.1043-.3065-.2087c-.0597-.1012-.0557-.2435.0319-.3794C.2175.1704.3887.0439.5518.0503C.7111.0597.8623.202.9181.3348z;
            M.8913.1702c.0792.1064.0729.2944.0127.4149c-.0602.1241-.1712.1844-.2884.2518c-.1172.0674-.2314.1347-.3423.1064c-.1077-.0284-.2092-.1561-.2218-.2873C.0388.5248.1085.3901.1972.2801c.0856-.11.1902-.195.3233-.2199C.6505.0319.8153.0603.8913.1702z;
            M.7458.2839c.1146.1335.226.2876.2005.4073c-.0255.1198-.191.202-.3343.2362c-.1433.0376-.261.0274-.3629-.0239c-.1019-.0513-.1847-.1437-.1974-.2464c-.0127-.0993.0446-.2054.1146-.3286c.07-.1232.1528-.2635.2547-.2773C.5166.0374.6311.1504.7458.2839z"
            calcMode="spline"
            keySplines=".45 .05 .55 .95;.45 .05 .55 .95;.45 .05 .55 .95;.45 .05 .55 .95"/>
        </path>
    </defs>
    <svg viewBox="0 0 28.3 28.3" preserveAspectRatio="none">
        <g id="backgrounds" transform-origin="center" transform="scale(.99)">
            <path id="background_1" d="M22,7.9c3.6,3.9,7.1,8.4,6.3,11.9c-0.8,3.5-6,5.9-10.5,6.9c-4.5,1.1-8.2,0.8-11.4-0.7c-3.2-1.5-5.8-4.2-6.2-7.2 c-0.4-2.9,1.4-6,3.6-9.6c2.2-3.6,4.8-7.7,8-8.1C14.8,0.7,18.4,4,22,7.9z" fill="#7C6576" opacity=".33">
                <animate dur="18s" begin="1.5s" repeatCount="indefinite" attributeName="d" attributeType="XML"
                values="
                M22,7.9c3.6,3.9,7.1,8.4,6.3,11.9c-0.8,3.5-6,5.9-10.5,6.9c-4.5,1.1-8.2,0.8-11.4-0.7c-3.2-1.5-5.8-4.2-6.2-7.2 c-0.4-2.9,1.4-6,3.6-9.6c2.2-3.6,4.8-7.7,8-8.1C14.8,0.7,18.4,4,22,7.9z;
                M23.7 5c1.8 2.5 2.1 5.8 1.9 9.8c-.3 4-1.2 8.7-4.4 11.3c-3.2 2.6-8.7 3-12.1.7c-3.4-2.3-4.7-7.3-5.6-12.2C2.6 9.7 2 5.1 4 2.5C6.1 0 10.9-.4 14.8.3C18.8.9 22 2.5 23.7 5z;
                M24.6,9c1.5,4.1,0.6,7.8-0.3,11.2c-0.9,3.4-2,6.6-4.2,7.7c-2.2,1.2-5.4,0.3-8.6-1.2c-3.1-1.4-6.2-3.3-7.7-6.6	c-1.5-3.2-1.4-7.7,0.8-12C7,3.8,11.3-0.2,15.4,0C19.4,0.3,23.2,4.8,24.6,9z;
                M26.5 4.9c2.5 3 2.3 8.3.4 11.7c-1.9 3.5-5.4 5.2-9.1 7.1c-3.7 1.9-7.3 3.8-10.8 3c-3.4-.8-6.6-4.4-7-8.1C-.4 14.9 1.8 11.1 4.6 8c2.7-3.1 6-5.5 10.2-6.2C18.9 1 24.1 1.8 26.5 4.9z;
                M22,7.9c3.6,3.9,7.1,8.4,6.3,11.9c-0.8,3.5-6,5.9-10.5,6.9c-4.5,1.1-8.2,0.8-11.4-0.7c-3.2-1.5-5.8-4.2-6.2-7.2 c-0.4-2.9,1.4-6,3.6-9.6c2.2-3.6,4.8-7.7,8-8.1C14.8,0.7,18.4,4,22,7.9z"
                calcMode="spline"
                keySplines=".45 .05 .55 .95;.45 .05 .55 .95;.45 .05 .55 .95;.45 .05 .55 .95"/>
            </path>
            <path id="background_2" d="M22,7.9c3.6,3.9,7.1,8.4,6.3,11.9c-0.8,3.5-6,5.9-10.5,6.9c-4.5,1.1-8.2,0.8-11.4-0.7c-3.2-1.5-5.8-4.2-6.2-7.2 c-0.4-2.9,1.4-6,3.6-9.6c2.2-3.6,4.8-7.7,8-8.1C14.8,0.7,18.4,4,22,7.9z" fill="#7C6576" opacity=".33">
                <animate xlink:href="#background_2" dur="18s" begin="2s" repeatCount="indefinite" attributeName="d" attributeType="XML"
                values="
                M22,7.9c3.6,3.9,7.1,8.4,6.3,11.9c-0.8,3.5-6,5.9-10.5,6.9c-4.5,1.1-8.2,0.8-11.4-0.7c-3.2-1.5-5.8-4.2-6.2-7.2 c-0.4-2.9,1.4-6,3.6-9.6c2.2-3.6,4.8-7.7,8-8.1C14.8,0.7,18.4,4,22,7.9z;
                M23.7 5c1.8 2.5 2.1 5.8 1.9 9.8c-.3 4-1.2 8.7-4.4 11.3c-3.2 2.6-8.7 3-12.1.7c-3.4-2.3-4.7-7.3-5.6-12.2C2.6 9.7 2 5.1 4 2.5C6.1 0 10.9-.4 14.8.3C18.8.9 22 2.5 23.7 5z;
                M24.6,9c1.5,4.1,0.6,7.8-0.3,11.2c-0.9,3.4-2,6.6-4.2,7.7c-2.2,1.2-5.4,0.3-8.6-1.2c-3.1-1.4-6.2-3.3-7.7-6.6	c-1.5-3.2-1.4-7.7,0.8-12C7,3.8,11.3-0.2,15.4,0C19.4,0.3,23.2,4.8,24.6,9z;
                M26.5 4.9c2.5 3 2.3 8.3.4 11.7c-1.9 3.5-5.4 5.2-9.1 7.1c-3.7 1.9-7.3 3.8-10.8 3c-3.4-.8-6.6-4.4-7-8.1C-.4 14.9 1.8 11.1 4.6 8c2.7-3.1 6-5.5 10.2-6.2C18.9 1 24.1 1.8 26.5 4.9z;
                M22,7.9c3.6,3.9,7.1,8.4,6.3,11.9c-0.8,3.5-6,5.9-10.5,6.9c-4.5,1.1-8.2,0.8-11.4-0.7c-3.2-1.5-5.8-4.2-6.2-7.2 c-0.4-2.9,1.4-6,3.6-9.6c2.2-3.6,4.8-7.7,8-8.1C14.8,0.7,18.4,4,22,7.9z"
                calcMode="spline"
                keySplines=".45 .05 .55 .95;.45 .05 .55 .95;.45 .05 .55 .95;.45 .05 .55 .95"/>
            </path>
            <path id="background_3" d="M22,7.9c3.6,3.9,7.1,8.4,6.3,11.9c-0.8,3.5-6,5.9-10.5,6.9c-4.5,1.1-8.2,0.8-11.4-0.7c-3.2-1.5-5.8-4.2-6.2-7.2 c-0.4-2.9,1.4-6,3.6-9.6c2.2-3.6,4.8-7.7,8-8.1C14.8,0.7,18.4,4,22,7.9z" fill="#7C6576" opacity=".33">
                <animate dur="18s" begin="2.5s" repeatCount="indefinite" attributeName="d" attributeType="XML"
                values="
                M22,7.9c3.6,3.9,7.1,8.4,6.3,11.9c-0.8,3.5-6,5.9-10.5,6.9c-4.5,1.1-8.2,0.8-11.4-0.7c-3.2-1.5-5.8-4.2-6.2-7.2 c-0.4-2.9,1.4-6,3.6-9.6c2.2-3.6,4.8-7.7,8-8.1C14.8,0.7,18.4,4,22,7.9z;
                M23.7 5c1.8 2.5 2.1 5.8 1.9 9.8c-.3 4-1.2 8.7-4.4 11.3c-3.2 2.6-8.7 3-12.1.7c-3.4-2.3-4.7-7.3-5.6-12.2C2.6 9.7 2 5.1 4 2.5C6.1 0 10.9-.4 14.8.3C18.8.9 22 2.5 23.7 5z;
                M24.6,9c1.5,4.1,0.6,7.8-0.3,11.2c-0.9,3.4-2,6.6-4.2,7.7c-2.2,1.2-5.4,0.3-8.6-1.2c-3.1-1.4-6.2-3.3-7.7-6.6	c-1.5-3.2-1.4-7.7,0.8-12C7,3.8,11.3-0.2,15.4,0C19.4,0.3,23.2,4.8,24.6,9z;
                M26.5 4.9c2.5 3 2.3 8.3.4 11.7c-1.9 3.5-5.4 5.2-9.1 7.1c-3.7 1.9-7.3 3.8-10.8 3c-3.4-.8-6.6-4.4-7-8.1C-.4 14.9 1.8 11.1 4.6 8c2.7-3.1 6-5.5 10.2-6.2C18.9 1 24.1 1.8 26.5 4.9z;
                M22,7.9c3.6,3.9,7.1,8.4,6.3,11.9c-0.8,3.5-6,5.9-10.5,6.9c-4.5,1.1-8.2,0.8-11.4-0.7c-3.2-1.5-5.8-4.2-6.2-7.2 c-0.4-2.9,1.4-6,3.6-9.6c2.2-3.6,4.8-7.7,8-8.1C14.8,0.7,18.4,4,22,7.9z"
                calcMode="spline"
                keySplines=".45 .05 .55 .95;.45 .05 .55 .95;.45 .05 .55 .95;.45 .05 .55 .95"/>
            </path>
        </g>
    </svg>
    <svg viewBox="0 0 1 1" id="preview" preserveAspectRatio="none">
        <use xlink:href="#filterPath" fill="darkgrey"/>
    </svg>
    <image xlink:href="" clip-path="url(#clip-path)"/>
</svg>
