<svg xmlns="http://www.w3.org/2000/svg" xmlns:xlink="http://www.w3.org/1999/xlink" data-bg-color="#7ac943" data-bg-attr="stroke" width="800" height="600">
  <defs>
    <pattern id="Crosses_5" data-name="Crosses 5" width="57.6" height="57.6" stroke="#7C6576" patternTransform="translate(0 691.2)" patternUnits="userSpaceOnUse" viewBox="0 0 57.6 57.6">
      <line x1="52.5" y1="3.6" x2="55.5" y2="3.6" fill="none" stroke-width="0.3"></line>
      <line x1="38.1" y1="3.6" x2="41.1" y2="3.6" fill="none" stroke-width="0.3"></line>
      <line x1="23.7" y1="3.6" x2="26.7" y2="3.6" fill="none" stroke-width="0.3"></line>
      <line x1="9.3" y1="3.6" x2="12.3" y2="3.6" fill="none" stroke-width="0.3"></line>
      <line x1="45.3" y1="10.8" x2="48.3" y2="10.8" fill="none" stroke-width="0.3"></line>
      <line x1="30.9" y1="10.8" x2="33.9" y2="10.8" fill="none" stroke-width="0.3"></line>
      <line x1="16.5" y1="10.8" x2="19.5" y2="10.8" fill="none" stroke-width="0.3"></line>
      <line x1="2.1" y1="10.8" x2="5.1" y2="10.8" fill="none" stroke-width="0.3"></line>
      <line x1="52.5" y1="18" x2="55.5" y2="18" fill="none" stroke-width="0.3"></line>
      <line x1="38.1" y1="18" x2="41.1" y2="18" fill="none" stroke-width="0.3"></line>
      <line x1="23.7" y1="18" x2="26.7" y2="18" fill="none" stroke-width="0.3"></line>
      <line x1="9.3" y1="18" x2="12.3" y2="18" fill="none" stroke-width="0.3"></line>
      <line x1="45.3" y1="25.2" x2="48.3" y2="25.2" fill="none" stroke-width="0.3"></line>
      <line x1="30.9" y1="25.2" x2="33.9" y2="25.2" fill="none" stroke-width="0.3"></line>
      <line x1="16.5" y1="25.2" x2="19.5" y2="25.2" fill="none" stroke-width="0.3"></line>
      <line x1="2.1" y1="25.2" x2="5.1" y2="25.2" fill="none" stroke-width="0.3"></line>
      <line x1="52.5" y1="32.4" x2="55.5" y2="32.4" fill="none" stroke-width="0.3"></line>
      <line x1="38.1" y1="32.4" x2="41.1" y2="32.4" fill="none" stroke-width="0.3"></line>
      <line x1="23.7" y1="32.4" x2="26.7" y2="32.4" fill="none" stroke-width="0.3"></line>
      <line x1="9.3" y1="32.4" x2="12.3" y2="32.4" fill="none" stroke-width="0.3"></line>
      <line x1="45.3" y1="39.6" x2="48.3" y2="39.6" fill="none" stroke-width="0.3"></line>
      <line x1="30.9" y1="39.6" x2="33.9" y2="39.6" fill="none" stroke-width="0.3"></line>
      <line x1="16.5" y1="39.6" x2="19.5" y2="39.6" fill="none" stroke-width="0.3"></line>
      <line x1="2.1" y1="39.6" x2="5.1" y2="39.6" fill="none" stroke-width="0.3"></line>
      <line x1="52.5" y1="46.8" x2="55.5" y2="46.8" fill="none" stroke-width="0.3"></line>
      <line x1="38.1" y1="46.8" x2="41.1" y2="46.8" fill="none" stroke-width="0.3"></line>
      <line x1="23.7" y1="46.8" x2="26.7" y2="46.8" fill="none" stroke-width="0.3"></line>
      <line x1="9.3" y1="46.8" x2="12.3" y2="46.8" fill="none" stroke-width="0.3"></line>
      <line x1="45.3" y1="54" x2="48.3" y2="54" fill="none" stroke-width="0.3"></line>
      <line x1="30.9" y1="54" x2="33.9" y2="54" fill="none" stroke-width="0.3"></line>
      <line x1="16.5" y1="54" x2="19.5" y2="54" fill="none" stroke-width="0.3"></line>
      <line x1="2.1" y1="54" x2="5.1" y2="54" fill="none" stroke-width="0.3"></line>
      <line x1="54" y1="2.1" x2="54" y2="5.1" fill="none" stroke-width="0.3"></line>
      <line x1="39.6" y1="2.1" x2="39.6" y2="5.1" fill="none" stroke-width="0.3"></line>
      <line x1="25.2" y1="2.1" x2="25.2" y2="5.1" fill="none" stroke-width="0.3"></line>
      <line x1="10.8" y1="2.1" x2="10.8" y2="5.1" fill="none" stroke-width="0.3"></line>
      <line x1="46.8" y1="9.3" x2="46.8" y2="12.3" fill="none" stroke-width="0.3"></line>
      <line x1="32.4" y1="9.3" x2="32.4" y2="12.3" fill="none" stroke-width="0.3"></line>
      <line x1="18" y1="9.3" x2="18" y2="12.3" fill="none" stroke-width="0.3"></line>
      <line x1="3.6" y1="9.3" x2="3.6" y2="12.3" fill="none" stroke-width="0.3"></line>
      <line x1="54" y1="16.5" x2="54" y2="19.5" fill="none" stroke-width="0.3"></line>
      <line x1="39.6" y1="16.5" x2="39.6" y2="19.5" fill="none" stroke-width="0.3"></line>
      <line x1="25.2" y1="16.5" x2="25.2" y2="19.5" fill="none" stroke-width="0.3"></line>
      <line x1="10.8" y1="16.5" x2="10.8" y2="19.5" fill="none" stroke-width="0.3"></line>
      <line x1="46.8" y1="23.7" x2="46.8" y2="26.7" fill="none" stroke-width="0.3"></line>
      <line x1="32.4" y1="23.7" x2="32.4" y2="26.7" fill="none" stroke-width="0.3"></line>
      <line x1="18" y1="23.7" x2="18" y2="26.7" fill="none" stroke-width="0.3"></line>
      <line x1="3.6" y1="23.7" x2="3.6" y2="26.7" fill="none" stroke-width="0.3"></line>
      <line x1="54" y1="30.9" x2="54" y2="33.9" fill="none" stroke-width="0.3"></line>
      <line x1="39.6" y1="30.9" x2="39.6" y2="33.9" fill="none" stroke-width="0.3"></line>
      <line x1="25.2" y1="30.9" x2="25.2" y2="33.9" fill="none" stroke-width="0.3"></line>
      <line x1="10.8" y1="30.9" x2="10.8" y2="33.9" fill="none" stroke-width="0.3"></line>
      <line x1="46.8" y1="38.1" x2="46.8" y2="41.1" fill="none" stroke-width="0.3"></line>
      <line x1="32.4" y1="38.1" x2="32.4" y2="41.1" fill="none" stroke-width="0.3"></line>
      <line x1="18" y1="38.1" x2="18" y2="41.1" fill="none" stroke-width="0.3"></line>
      <line x1="3.6" y1="38.1" x2="3.6" y2="41.1" fill="none" stroke-width="0.3"></line>
      <line x1="54" y1="45.3" x2="54" y2="48.3" fill="none" stroke-width="0.3"></line>
      <line x1="39.6" y1="45.3" x2="39.6" y2="48.3" fill="none" stroke-width="0.3"></line>
      <line x1="25.2" y1="45.3" x2="25.2" y2="48.3" fill="none" stroke-width="0.3"></line>
      <line x1="10.8" y1="45.3" x2="10.8" y2="48.3" fill="none" stroke-width="0.3"></line>
      <line x1="46.8" y1="52.5" x2="46.8" y2="55.5" fill="none" stroke-width="0.3"></line>
      <line x1="32.4" y1="52.5" x2="32.4" y2="55.5" fill="none" stroke-width="0.3"></line>
      <line x1="18" y1="52.5" x2="18" y2="55.5" fill="none" stroke-width="0.3"></line>
      <line x1="3.6" y1="52.5" x2="3.6" y2="55.5" fill="none" stroke-width="0.3"></line>
    </pattern>
    <clipPath id="clip-path" clipPathUnits="objectBoundingBox"><path id="filterPath" d="M0.5215,0.0129,0.6868,0.1038a0.0516,0.0762,0,0,1,0.0189,0.1247l-0.0307,0.0465a0.0515,0.0761,0,0,0-0.0084,0.0897l0.1024,0.2769a0.0515,0.0761,0,0,1-0.0211,0.1038L0.708,0.7767a0.0516,0.0762,0,0,0-0.0197,0.107h0c0.024,0.0582-0.0111,0.1264-0.0527,0.1151a0.436,0.644,0,0,0-0.0453-0.0076c-0.1379-0.0158-0.258-0.1001-0.3641-0.2359-0.0086-0.0111-0.0179-0.021-0.0271-0.0309a0.0516,0.0762,0,0,1-0.0183-0.0868l0.0021-0.0087a0.1341,0.198,0,0,1,0.0782-0.1194h0a0.0515,0.0761,0,0,0,0.0229-0.1164L0.2449,0.3166a0.0516,0.0762,0,0,1,0.0217-0.1158l0.0479-0.0291a0.0517,0.0763,0,0,0,0.0261-0.0353l0.009-0.0256A0.1389,0.2051,0,0,1,0.5215,0.0129Z" fill="none"></path></clipPath>
  </defs>
  <g id="_05" data-name="05">
    
    
  </g>
<svg viewBox="53.297725677490234 112.70590209960938 202.97454833984375 94.00445556640625" preserveAspectRatio="none"><path id="background" d="M231.6,190.43c78.8-50.94-47.83-112.69-145.82-53.58-70.92,42.77-4.06,57.14-1,58.6C119.23,212,200.87,210.29,231.6,190.43Z" fill="url(#Crosses_5)"></path></svg><image xlink:href="./filter-test.jpeg" clip-path="url(#clip-path)"></image></svg>