<svg xmlns="http://www.w3.org/2000/svg" xmlns:xlink="http://www.w3.org/1999/xlink" width="38" height="38" viewBox="0 0 38 38">
    <defs>
        <rect id="pdf-a" width="32" height="35" x="3" y="1" rx="3"/>
        <path id="pdf-b" d="M16.5580408,9.73125638 C15.6316195,8.82062898 12.9890407,9.07105151 11.6677514,9.23799987 C10.3616492,8.4412009 9.48838322,7.34085945 8.87330023,5.72449582 C9.1694513,4.50273739 9.64025557,2.64353978 9.28335556,1.47490129 C8.96442364,-0.513301867 6.41296827,-0.315999264 6.04847464,1.02717615 C5.71435549,2.24893458 6.01810018,3.94877239 6.58002785,6.11910103 C5.82066613,7.93276726 4.68921717,10.3686956 3.89188737,11.7649909 C2.37316393,12.5466128 0.322887299,13.7531941 0.019142612,15.2709064 C-0.231446755,16.4698991 1.99348308,19.4597924 5.79788528,12.9032752 C7.49885552,12.3417216 9.35169811,11.6511625 10.9919194,11.3779743 C12.4271131,12.1520075 14.1053025,12.6680297 15.2291578,12.6680297 C17.1655302,12.6680297 17.3553706,10.5280554 16.5580408,9.73125638 Z M1.51508519,15.6351574 C1.90235967,14.5955244 3.3755214,13.3965317 3.82354481,12.9791608 C2.38075755,15.278495 1.51508519,15.6882773 1.51508519,15.6351574 Z M7.7114768,1.17135882 C8.27340448,1.17135882 8.22024916,3.60728712 7.84816191,4.26749198 C7.51404276,3.21268191 7.52163638,1.17135882 7.7114768,1.17135882 Z M5.85863422,11.5373341 C6.59521508,10.2548671 7.22548531,8.72956624 7.73425766,7.38639082 C8.36452788,8.53226364 9.1694513,9.4504796 10.0199364,10.0803302 C8.44046405,10.4066384 7.06601935,11.0744318 5.85863422,11.5373341 Z M15.8518344,11.157906 C15.8518344,11.157906 15.4721536,11.6132197 13.0194152,10.5659982 C15.6847748,10.3686956 16.1252046,10.9757805 15.8518344,11.157906 Z"/>
    </defs>
    <g fill="none" fill-rule="evenodd">
        <polygon fill="#980101" points="34 2 34 34 4 34"/>
        <use fill="#FFF" fill-opacity=".93" xlink:href="#pdf-a"/>
        <rect width="30" height="33" x="4" y="2" stroke="#B14435" stroke-width="2" rx="3"/>
        <g transform="translate(11 10)">
            <use fill="#B14435" fill-rule="nonzero" xlink:href="#pdf-b"/>
        </g>
    </g>
</svg>
