<svg xmlns="http://www.w3.org/2000/svg" xmlns:xlink="http://www.w3.org/1999/xlink" width="38" height="38" viewBox="0 0 38 38">
    <defs>
        <rect id="video-a" width="32" height="35" x="3" y="1" rx="3"/>
    </defs>
    <g fill="none" fill-rule="evenodd">
        <polygon fill="#B14435" points="34 2 34 34 4 34"/>
        <use fill="#FFF" fill-opacity=".93" xlink:href="#video-a"/>
        <rect width="30" height="33" x="4" y="2" stroke="#B14435" stroke-width="2" rx="3"/>
        <polygon fill="#B14435" points="24 18.5 15 24 15 13"/>
        <g stroke="#B14435" stroke-linecap="square" transform="translate(28 3)">
            <path d="M1.5.5L1.5 30.5M2.5 27.5L4.5 27.5M2.5 23.5L4.5 23.5M2.5 19.5L4.5 19.5M2.5 15.5L4.5 15.5M2.5 11.5L4.5 11.5M2.5 7.5L4.5 7.5M2.5 3.5L4.5 3.5"/>
        </g>
        <g stroke="#B14435" stroke-linecap="square" transform="translate(5 3)">
            <path d="M3.5.5L3.5 30.5M.5 27.5L2.5 27.5M.5 23.5L2.5 23.5M.5 19.5L2.5 19.5M.5 15.5L2.5 15.5M.5 11.5L2.5 11.5M.5 7.5L2.5 7.5M.5 3.5L2.5 3.5"/>
        </g>
    </g>
</svg>
