<svg xmlns="http://www.w3.org/2000/svg" xmlns:xlink="http://www.w3.org/1999/xlink" width="70" height="70" viewBox="0 0 70 70"><defs><path id="a" d="M4 0h61c4 0 5 1 5 5v60c0 4-1 5-5 5H4c-3 0-4-1-4-5V5c0-4 1-5 4-5z"/><linearGradient id="c" x1="100%" x2="0%" y1="0%" y2="100%"><stop offset="0%" stop-color="#94B6C8"/><stop offset="100%" stop-color="#6A9EBA"/></linearGradient></defs><g fill="none" fill-rule="evenodd"><mask id="b" fill="#fff"><use xlink:href="#a"/></mask><g mask="url(#b)"><path fill="url(#c)" d="M0 0H70V70H0z"/><path fill="#FFF" fill-opacity=".383" d="M4 1h61c2.667 0 4.333.667 5 2V0H0v3c.667-1.333 2-2 4-2z"/><path fill="#393939" d="M30.093 69H4c-2 0-4-.146-4-4.078V40.91l22.395-18.848 4.727-2.094 2.97-1.317.686.32 6.112-7.503 2.724-.795v7.978l7.8 8.27 9.65 2.772-8.332 11.066-2.992 5.28L30.093 69z" opacity=".324"/><path fill="#000" fill-opacity=".383" d="M4 69h61c2.667 0 4.333-1 5-3v4H0v-4c.667 2 2 3 4 3z"/><path fill="#000" d="M49.315 41.024a16.27 16.27 0 0 1-1.84 4.61 16.757 16.757 0 0 1-6.138 6.113C38.752 53.25 35.93 54 32.869 54c-3.06 0-5.883-.75-8.467-2.253a16.757 16.757 0 0 1-6.14-6.112C16.754 43.06 16 40.25 16 37.203c0-3.047.754-5.857 2.262-8.43a16.757 16.757 0 0 1 6.14-6.113 16.484 16.484 0 0 1 3.925-1.655c-.625.62-1.127 1.525-1.504 2.717v1.618a3.369 3.369 0 0 1-.237-.204 2.141 2.141 0 0 0-.22-.186c-.673.219-1.362.518-2.064.897a.543.543 0 0 0 .263-.022c.073-.03.169-.077.286-.142.117-.066.19-.106.22-.12.497-.205.805-.256.922-.154l.11-.11c.205.234.351.416.439.548-.103-.059-.322-.066-.659-.022-.293.087-.454.175-.483.262.102.175.139.306.11.394a3.426 3.426 0 0 1-.253-.219 1.741 1.741 0 0 0-.318-.24.88.88 0 0 0-.33-.11c-.234 0-.395.007-.483.022a13.836 13.836 0 0 0-5.162 4.855c.103.102.19.16.264.175.058.015.095.08.11.197a.835.835 0 0 0 .054.24c.022.044.107.023.253-.065.132.117.154.255.066.416.015-.015.337.182.966.59.279.248.432.401.462.46.044.16-.03.291-.22.393a1.12 1.12 0 0 0-.198-.197c-.117-.102-.183-.131-.197-.087-.044.073-.04.208.01.404.052.197.129.288.231.274-.102 0-.172.116-.208.35a5.03 5.03 0 0 0-.055.776c0 .284-.008.456-.022.514l.044.022c-.044.175-.004.426.12.754.125.329.282.47.473.427-.19.044-.044.357.439.94.088.117.146.183.176.197.044.03.131.084.263.164s.242.153.33.219a.934.934 0 0 1 .22.23c.058.072.131.236.219.492.088.255.19.426.308.514-.03.087.04.233.208.437.169.204.245.372.23.503a.107.107 0 0 0-.054.022.107.107 0 0 1-.055.022c.044.102.157.204.34.306.184.102.297.197.34.284.016.044.03.117.045.219a.802.802 0 0 0 .066.24c.029.059.088.073.175.044.03-.291-.146-.743-.527-1.356a17.95 17.95 0 0 1-.373-.634 1.254 1.254 0 0 1-.12-.339 1.662 1.662 0 0 0-.1-.317c.03 0 .073.01.132.033.059.022.12.047.187.076.066.03.12.059.164.088.044.029.06.05.044.065-.044.102-.029.23.044.383.074.153.161.288.264.405a30.038 30.038 0 0 0 .637.7c.088.087.19.23.307.426.118.197.118.295 0 .295.132 0 .279.073.44.22.16.145.285.29.373.436.073.117.132.307.176.57.044.262.08.437.11.524.029.102.091.2.186.295.096.095.187.164.275.208l.351.175.286.153c.073.03.209.106.406.23.198.124.355.207.473.251.146.059.263.088.35.088.089 0 .195-.019.32-.055a3.67 3.67 0 0 1 .296-.077c.22-.029.432.08.637.329.205.247.359.4.461.459.527.277.93.357 1.208.24-.029.015-.025.07.011.164.037.095.095.208.176.34a21.426 21.426 0 0 0 .318.502c.074.088.205.197.396.328.19.132.322.241.395.329.088-.059.14-.124.154-.197-.044.116.007.262.154.437.146.175.278.248.395.219.205-.044.308-.277.308-.7-.454.219-.813.087-1.077-.394a.425.425 0 0 0-.055-.12 1.39 1.39 0 0 1-.142-.372.309.309 0 0 1 0-.164c.014-.044.05-.065.11-.065.131 0 .204-.026.22-.077.014-.051 0-.142-.045-.273a4.395 4.395 0 0 1-.088-.285c-.014-.116-.095-.262-.241-.437a5.832 5.832 0 0 1-.264-.328c-.073.131-.19.19-.351.175-.161-.015-.279-.08-.352-.197a.601.601 0 0 1-.033.12.518.518 0 0 0-.033.142c-.19 0-.3-.007-.33-.021.016-.044.034-.172.056-.383.022-.212.047-.376.077-.492.014-.059.055-.146.12-.263.066-.116.121-.222.165-.317.044-.095.073-.186.088-.273.015-.088-.018-.157-.099-.208-.08-.051-.208-.07-.384-.055-.278.015-.469.16-.571.438a4.52 4.52 0 0 0-.066.23.74.74 0 0 1-.11.25.546.546 0 0 1-.198.154c-.102.044-.278.058-.527.044-.249-.015-.424-.051-.527-.11-.19-.116-.355-.328-.494-.634-.14-.306-.209-.576-.209-.81 0-.145.018-.338.055-.579.037-.24.059-.422.066-.546a1.084 1.084 0 0 0-.048-.283c4.096 1.7 14.522 1.865 20.921.599zM26.823 25.34v.573a.444.444 0 0 1-.083-.09c-.059-.116-.059-.262 0-.437.014-.056.042-.072.083-.046zm6.484 25.64c1.95-.339 3.714-1.035 5.291-2.087l-3.676-3.675c-.105.08-.168.135-.187.164a1.084 1.084 0 0 0-.132.262 1.32 1.32 0 0 1-.11.241c-.029-.058-.113-.106-.252-.142-.14-.037-.209-.077-.209-.12.03.145.059.4.088.765.03.365.066.642.11.831.102.452.014.802-.264 1.05-.395.364-.608.656-.637.875-.058.32.03.51.264.568 0 .102-.059.252-.176.449-.117.197-.168.353-.154.47 0 .087.015.204.044.35zm24.094-20.786c0 .889-.245 1.63-.733 2.223-.489.593-1.166.889-2.034.889-.45 0-.875-.096-1.276-.288-.4-.192-.724-.4-.971-.626a4.29 4.29 0 0 0-.93-.626 2.522 2.522 0 0 0-1.17-.288c-1.208 0-1.811.68-1.811 2.042 0 .428.088 1.06.263 1.894.176.834.258 1.465.247 1.893v.083c-.241 0-.422.005-.543.016-.373.033-.909.096-1.606.19-.697.093-1.33.167-1.902.222-.57.055-1.108.082-1.613.082-.67 0-1.235-.145-1.696-.436-.462-.291-.692-.75-.692-1.375 0-.406.096-.796.288-1.17.192-.373.4-.683.626-.93.225-.247.433-.57.626-.971.192-.4.288-.826.288-1.276 0-.868-.297-1.545-.89-2.034-.592-.489-1.333-.733-2.222-.733-.923 0-1.708.25-2.355.75-.648.499-.972 1.199-.972 2.099 0 .472.083.928.247 1.367.165.439.349.793.552 1.062.203.269.387.56.552.873.164.312.247.59.247.831 0 .494-.253.983-.758 1.466-.406.384-1.048.576-1.927.576-1.042 0-2.387-.132-4.034-.395a4.52 4.52 0 0 0-.453-.066 4.52 4.52 0 0 1-.453-.066l-.214-.033a.126.126 0 0 1-.05-.016c-.021 0-.032-.006-.032-.017V20.545c.022.011.118.03.288.058.17.027.357.055.56.082.203.028.321.047.354.058 1.647.263 2.992.395 4.034.395.879 0 1.52-.192 1.927-.576.505-.483.758-.972.758-1.466 0-.241-.083-.519-.247-.831a6.361 6.361 0 0 0-.552-.873c-.203-.27-.387-.623-.552-1.062a3.861 3.861 0 0 1-.247-1.367c0-.9.324-1.6.972-2.1.647-.499 1.438-.749 2.371-.749.878 0 1.614.245 2.207.733.592.489.889 1.166.889 2.034 0 .45-.096.875-.288 1.276-.193.4-.401.724-.626.971a4.29 4.29 0 0 0-.626.93 2.522 2.522 0 0 0-.288 1.17c0 .626.23 1.084.692 1.375.46.29 1.026.436 1.696.436.702 0 1.69-.082 2.964-.247 1.273-.164 2.168-.258 2.684-.28v.033c-.011.022-.03.118-.058.288-.027.17-.055.357-.082.56a3.379 3.379 0 0 1-.058.354c-.263 1.647-.395 2.992-.395 4.035 0 .878.192 1.52.576 1.926.483.505.972.758 1.466.758.241 0 .518-.083.831-.247.313-.165.604-.349.873-.552.269-.203.623-.387 1.062-.552.44-.164.895-.247 1.367-.247.9 0 1.6.324 2.1.972.499.648.749 1.433.749 2.355z" opacity=".3"/><path fill="#FFF" d="M49.315 39.024a16.27 16.27 0 0 1-1.84 4.61 16.757 16.757 0 0 1-6.138 6.113C38.752 51.25 35.93 52 32.869 52c-3.06 0-5.883-.75-8.467-2.253a16.757 16.757 0 0 1-6.14-6.112C16.754 41.06 16 38.25 16 35.203c0-3.047.754-5.857 2.262-8.43a16.757 16.757 0 0 1 6.14-6.113 16.484 16.484 0 0 1 3.925-1.655c-.625.62-1.127 1.525-1.504 2.717v1.618a3.369 3.369 0 0 1-.237-.204 2.141 2.141 0 0 0-.22-.186c-.673.219-1.362.518-2.064.897a.543.543 0 0 0 .263-.022c.073-.03.169-.077.286-.142.117-.066.19-.106.22-.12.497-.205.805-.256.922-.154l.11-.11c.205.234.351.416.439.548-.103-.059-.322-.066-.659-.022-.293.087-.454.175-.483.262.102.175.139.306.11.394a3.426 3.426 0 0 1-.253-.219 1.741 1.741 0 0 0-.318-.24.88.88 0 0 0-.33-.11c-.234 0-.395.007-.483.022a13.836 13.836 0 0 0-5.162 4.855c.103.102.19.16.264.175.058.015.095.08.11.197a.835.835 0 0 0 .054.24c.022.044.107.023.253-.065.132.117.154.255.066.416.015-.015.337.182.966.59.279.248.432.401.462.46.044.16-.03.291-.22.393a1.12 1.12 0 0 0-.198-.197c-.117-.102-.183-.131-.197-.087-.044.073-.04.208.01.404.052.197.129.288.231.274-.102 0-.172.116-.208.35a5.03 5.03 0 0 0-.055.776c0 .284-.008.456-.022.514l.044.022c-.044.175-.004.426.12.754.125.329.282.47.473.427-.19.044-.044.357.439.94.088.117.146.183.176.197.044.03.131.084.263.164s.242.153.33.219a.934.934 0 0 1 .22.23c.058.072.131.236.219.492.088.255.19.426.308.514-.03.087.04.233.208.437.169.204.245.372.23.503a.107.107 0 0 0-.054.022.107.107 0 0 1-.055.022c.044.102.157.204.34.306.184.102.297.197.34.284.016.044.03.117.045.219a.802.802 0 0 0 .066.24c.029.059.088.073.175.044.03-.291-.146-.743-.527-1.356a17.95 17.95 0 0 1-.373-.634 1.254 1.254 0 0 1-.12-.339 1.662 1.662 0 0 0-.1-.317c.03 0 .073.01.132.033.059.022.12.047.187.076.066.03.12.059.164.088.044.029.06.05.044.065-.044.102-.029.23.044.383.074.153.161.288.264.405a30.038 30.038 0 0 0 .637.7c.088.087.19.23.307.426.118.197.118.295 0 .295.132 0 .279.073.44.22.16.145.285.29.373.436.073.117.132.307.176.57.044.262.08.437.11.524.029.102.091.2.186.295.096.095.187.164.275.208l.351.175.286.153c.073.03.209.106.406.23.198.124.355.207.473.251.146.059.263.088.35.088.089 0 .195-.019.32-.055a3.67 3.67 0 0 1 .296-.077c.22-.029.432.08.637.329.205.247.359.4.461.459.527.277.93.357 1.208.24-.029.015-.025.07.011.164.037.095.095.208.176.34a21.426 21.426 0 0 0 .318.502c.074.088.205.197.396.328.19.132.322.241.395.329.088-.059.14-.124.154-.197-.044.116.007.262.154.437.146.175.278.248.395.219.205-.044.308-.277.308-.7-.454.219-.813.087-1.077-.394a.425.425 0 0 0-.055-.12 1.39 1.39 0 0 1-.142-.372.309.309 0 0 1 0-.164c.014-.044.05-.065.11-.065.131 0 .204-.026.22-.077.014-.051 0-.142-.045-.273a4.395 4.395 0 0 1-.088-.285c-.014-.116-.095-.262-.241-.437a5.832 5.832 0 0 1-.264-.328c-.073.131-.19.19-.351.175-.161-.015-.279-.08-.352-.197a.601.601 0 0 1-.033.12.518.518 0 0 0-.033.142c-.19 0-.3-.007-.33-.021.016-.044.034-.172.056-.383.022-.212.047-.376.077-.492.014-.059.055-.146.12-.263.066-.116.121-.222.165-.317.044-.095.073-.186.088-.273.015-.088-.018-.157-.099-.208-.08-.051-.208-.07-.384-.055-.278.015-.469.16-.571.438a4.52 4.52 0 0 0-.066.23.74.74 0 0 1-.11.25.546.546 0 0 1-.198.154c-.102.044-.278.058-.527.044-.249-.015-.424-.051-.527-.11-.19-.116-.355-.328-.494-.634-.14-.306-.209-.576-.209-.81 0-.145.018-.338.055-.579.037-.24.059-.422.066-.546a1.084 1.084 0 0 0-.048-.283c4.096 1.7 14.522 1.865 20.921.599zM26.823 23.34v.573a.444.444 0 0 1-.083-.09c-.059-.116-.059-.262 0-.437.014-.056.042-.072.083-.046zm6.484 25.64c1.95-.339 3.714-1.035 5.291-2.087l-3.676-3.675c-.105.08-.168.135-.187.164a1.084 1.084 0 0 0-.132.262 1.32 1.32 0 0 1-.11.241c-.029-.058-.113-.106-.252-.142-.14-.037-.209-.077-.209-.12.03.145.059.4.088.765.03.365.066.642.11.831.102.452.014.802-.264 1.05-.395.364-.608.656-.637.875-.058.32.03.51.264.568 0 .102-.059.252-.176.449-.117.197-.168.353-.154.47 0 .087.015.204.044.35zm24.094-20.786c0 .889-.245 1.63-.733 2.223-.489.593-1.166.889-2.034.889-.45 0-.875-.096-1.276-.288-.4-.192-.724-.4-.971-.626a4.29 4.29 0 0 0-.93-.626 2.522 2.522 0 0 0-1.17-.288c-1.208 0-1.811.68-1.811 2.042 0 .428.088 1.06.263 1.894.176.834.258 1.465.247 1.893v.083c-.241 0-.422.005-.543.016-.373.033-.909.096-1.606.19-.697.093-1.33.167-1.902.222-.57.055-1.108.082-1.613.082-.67 0-1.235-.145-1.696-.436-.462-.291-.692-.75-.692-1.375 0-.406.096-.796.288-1.17.192-.373.4-.683.626-.93.225-.247.433-.57.626-.971.192-.4.288-.826.288-1.276 0-.868-.297-1.545-.89-2.034-.592-.489-1.333-.733-2.222-.733-.923 0-1.708.25-2.355.75-.648.499-.972 1.199-.972 2.099 0 .472.083.928.247 1.367.165.439.349.793.552 1.062.203.269.387.56.552.873.164.312.247.59.247.831 0 .494-.253.983-.758 1.466-.406.384-1.048.576-1.927.576-1.042 0-2.387-.132-4.034-.395a4.52 4.52 0 0 0-.453-.066 4.52 4.52 0 0 1-.453-.066l-.214-.033a.126.126 0 0 1-.05-.016c-.021 0-.032-.006-.032-.017V18.545c.022.011.118.03.288.058.17.027.357.055.56.082.203.028.321.047.354.058 1.647.263 2.992.395 4.034.395.879 0 1.52-.192 1.927-.576.505-.483.758-.972.758-1.466 0-.241-.083-.519-.247-.831a6.361 6.361 0 0 0-.552-.873c-.203-.27-.387-.623-.552-1.062a3.861 3.861 0 0 1-.247-1.367c0-.9.324-1.6.972-2.1.647-.499 1.438-.749 2.371-.749.878 0 1.614.245 2.207.733.592.489.889 1.166.889 2.034 0 .45-.096.875-.288 1.276-.193.4-.401.724-.626.971a4.29 4.29 0 0 0-.626.93 2.522 2.522 0 0 0-.288 1.17c0 .626.23 1.084.692 1.375.46.29 1.026.436 1.696.436.702 0 1.69-.082 2.964-.247 1.273-.164 2.168-.258 2.684-.28v.033c-.011.022-.03.118-.058.288-.027.17-.055.357-.082.56a3.379 3.379 0 0 1-.058.354c-.263 1.647-.395 2.992-.395 4.035 0 .878.192 1.52.576 1.926.483.505.972.758 1.466.758.241 0 .518-.083.831-.247.313-.165.604-.349.873-.552.269-.203.623-.387 1.062-.552.44-.164.895-.247 1.367-.247.9 0 1.6.324 2.1.972.499.648.749 1.433.749 2.355z"/></g></g></svg>