<svg xmlns="http://www.w3.org/2000/svg" viewBox="0 0 283.46 283.46"><path d="M209.92,65.34a4.2,4.2,0,0,0-4.31.2c-9.33,6.18-18.66,3.09-29.46-.49-9.33-3.09-19.69-6.52-30.22-2.79v-5a4.2,4.2,0,0,0-8.4,0V69h0V107.5h0V152.3a4.2,4.2,0,1,0,8.4,0V109.92c8.71-4.65,17.51-1.74,27.58,1.6,6.43,2.13,13.35,4.42,20.47,4.42A28.61,28.61,0,0,0,210.25,111a4.17,4.17,0,0,0,1.88-3.49V69A4.2,4.2,0,0,0,209.92,65.34Zm-6.19,39.82c-8.71,4.65-17.5,1.73-27.58-1.61-9.33-3.1-19.69-6.52-30.22-2.79V71.42c8.71-4.65,17.5-1.74,27.58,1.6,9.33,3.1,19.69,6.53,30.22,2.8Z" style="fill:#3aadaa"/><path d="M189.94,230.39a4.2,4.2,0,0,1-4.2-4.2V156.5h-9.28v7.56a4.2,4.2,0,0,1-4.2,4.19H153.75a4.2,4.2,0,0,1-4.2-4.19V156.5H133.91v7.56a4.2,4.2,0,0,1-4.2,4.19H111.2a4.2,4.2,0,0,1-4.19-4.19V156.5H97.72v69.69a4.2,4.2,0,0,1-8.4,0V152.3a4.2,4.2,0,0,1,4.2-4.2H111.2a4.2,4.2,0,0,1,4.2,4.2v7.56h10.11V152.3a4.2,4.2,0,0,1,4.2-4.2h24a4.2,4.2,0,0,1,4.2,4.2v7.56h10.11V152.3a4.2,4.2,0,0,1,4.2-4.2h17.68a4.2,4.2,0,0,1,4.2,4.2v73.89A4.2,4.2,0,0,1,189.94,230.39Z" style="fill:#7c6576"/><path d="M222.43,230.39H61A4.2,4.2,0,1,1,61,222h161.4a4.2,4.2,0,1,1,0,8.39Z" style="fill:#3aadaa"/></svg>