<svg xmlns="http://www.w3.org/2000/svg" viewBox="0 0 283.46 283.46"><path d="M206.64,171.38c-21.5-3.11-26.82-17.75-32.45-33.24-1.41-3.88-2.74-7.53-4.34-11C156.63,98.3,145.47,90.84,121.58,88V69.64h1.12a4.2,4.2,0,1,0,0-8.39c-1.28,0-2.64,0-4-.07H118a3.68,3.68,0,0,0-.58-.06,2.21,2.21,0,0,0-.37,0C106.49,61,91.81,61.3,85.83,75,81,86,32.1,184.35,31.61,185.35a4.2,4.2,0,0,0,7.52,3.73c.63-1.26,5.7-11.46,12.52-25.22l14.13,17.08a4.2,4.2,0,1,0,6.47-5.36l-16.52-20,7.42-15,14,17a4.2,4.2,0,0,0,6.47-5.35L67.22,132.39c2.22-4.5,4.43-9,6.57-13.35l13.89,16.78a4.2,4.2,0,0,0,3.24,1.52,4.19,4.19,0,0,0,3.23-6.87L77.86,110.78c3.71-7.57,7.09-14.49,9.78-20l15.58,18.82a4.2,4.2,0,1,0,6.47-5.35l-18-21.78,0,0c.86-1.82,1.5-3.2,1.88-4.08,3.19-7.28,10.14-8.7,19.67-8.79V87.63a4.19,4.19,0,0,0,1.08,8.12c24.08,1.94,34.45,5.45,48,34.86,1.46,3.18,2.73,6.69,4.08,10.39,5.64,15.54,12.67,34.87,39.14,38.69,22.28,3.22,38.46,19.39,38.46,38.46a4.2,4.2,0,1,0,8.39,0C252.29,194.87,233.09,175.2,206.64,171.38Z" style="fill:#3aadaa"/><path d="M195.7,183.13c-21.54-3.11-26.85-17.66-32.48-33.07-1.34-3.66-2.72-7.45-4.31-10.92-7.25-15.8-14.45-25.17-23.34-30.37-7.76-4.54-16.58-5.82-27.87-6a2.58,2.58,0,0,0-.4,0l-.28,0c-1.1,0-2.21,0-3.36,0a4.19,4.19,0,0,0-3.77,2.36l-54,111.26a4.2,4.2,0,0,0,1.94,5.61A4.17,4.17,0,0,0,53.42,220L103.1,117.65v100.5a4.2,4.2,0,0,0,8.4,0V111.24c18.31.88,28.16,6.09,39.78,31.41,1.45,3.16,2.71,6.62,4.05,10.29,5.64,15.45,12.66,34.68,39.17,38.5,21.46,3.1,34.28,13.08,34.28,26.71a4.2,4.2,0,1,0,8.4,0C237.18,200,221.67,186.88,195.7,183.13Z" style="fill:#7c6576"/></svg>