<svg xmlns="http://www.w3.org/2000/svg" viewBox="0 0 283.46 283.46"><path d="M139.86,137.13a2.84,2.84,0,1,0-5.67,0c0,8.78,1,11.58,6.38,17.57,4.1,4.59,5.55,12.23.16,17.34-10.06,9.54-9.31,21.78-8.77,30.72.11,1.85.22,3.59.22,5.13a2.84,2.84,0,1,0,5.68,0c0-1.71-.12-3.54-.23-5.48-.53-8.68-1.13-18.53,7-26.25s6-18.66.16-25.24C140.55,146.17,139.86,144.84,139.86,137.13Z" style="fill:#7c6576"/><path d="M181.55,195.27c2.73-5.34,1.83-15,1.72-16.11a2.84,2.84,0,1,0-5.65.58c.24,2.32.55,9.68-1.12,12.94-4.84,9.46-2.95,15.59-1.43,20.51a18.36,18.36,0,0,1,1.11,5.2,2.84,2.84,0,1,0,5.68,0,22.92,22.92,0,0,0-1.37-6.88C179.15,207.17,177.76,202.67,181.55,195.27Z" style="fill:#7c6576"/><path d="M105.84,191.33a2.84,2.84,0,0,0-5.65.58c.24,2.32.55,9.68-1.12,13-4.84,9.45-2.95,15.58-1.43,20.5a18.35,18.35,0,0,1,1.11,5.21,2.84,2.84,0,1,0,5.68,0,23.23,23.23,0,0,0-1.36-6.88c-1.35-4.35-2.73-8.85,1.05-16.24C106.85,202.1,106,192.42,105.84,191.33Z" style="fill:#7c6576"/><path d="M173.87,95c0-24.78-16.53-44.95-36.84-44.95s-36.85,20.17-36.85,45,16.53,45,36.85,45S173.87,119.8,173.87,95ZM137,134.29c-17.19,0-31.17-17.62-31.17-39.28s14-39.27,31.17-39.27S168.19,73.36,168.19,95,154.21,134.29,137,134.29Z" style="fill:#3aadaa"/><path d="M119.16,95c0-7.6,2.54-14.67,7-19.37A2.84,2.84,0,0,0,122,71.75C116.58,77.5,113.48,86,113.48,95a37.61,37.61,0,0,0,1.84,11.74,2.84,2.84,0,0,0,2.69,2,2.76,2.76,0,0,0,.89-.14,2.83,2.83,0,0,0,1.81-3.58A32,32,0,0,1,119.16,95Z" style="fill:#3aadaa"/><path d="M130.35,117.74a17.46,17.46,0,0,1-3.59-2.71,2.84,2.84,0,0,0-4,4.08,23,23,0,0,0,4.78,3.58,2.84,2.84,0,0,0,3.86-1.09A2.83,2.83,0,0,0,130.35,117.74Z" style="fill:#3aadaa"/><path d="M180.45,127.55c-12.49,0-22.65,12.28-22.65,27.37s10.16,27.37,22.65,27.37,22.64-12.28,22.64-27.37S192.93,127.55,180.45,127.55Zm0,49.06c-9.36,0-17-9.73-17-21.69s7.61-21.69,17-21.69,17,9.73,17,21.69S189.8,176.61,180.45,176.61Z" style="fill:#3aadaa"/><path d="M103,139.73c-12.49,0-22.64,12.28-22.64,27.37S90.53,194.46,103,194.46s22.64-12.27,22.64-27.36S115.5,139.73,103,139.73Zm0,49.05c-9.36,0-17-9.73-17-21.68s7.61-21.69,17-21.69,17,9.73,17,21.69S112.37,188.78,103,188.78Z" style="fill:#3aadaa"/></svg>