<svg xmlns="http://www.w3.org/2000/svg" viewBox="0 0 283.46 283.46"><path d="M30.62,88a15,15,0,0,0,13.74,13c4.6.43,10.24.65,16.79.65,3.69,0,6.93-.07,9.18-.14,2.77,8.57,11.1,32.54,21.48,46,11.76,15.21,28.65,23.82,50.28,25.67v49.77a4.2,4.2,0,1,0,8.39,0v-49.4l.75,0c1,0,1.9,0,2.84-.06v49.44a4.2,4.2,0,1,0,8.4,0V172.69c12.92-2,24.1-7.55,32.71-16.34C207.32,144,213.5,125.86,213.06,104a4.21,4.21,0,0,0-4.2-4.11H121.68L90.11,57a4.19,4.19,0,0,0-4.78-1.47c-1.64.58-40.26,14.25-47.54,17.28C32.54,75,29.59,81.22,30.62,88ZM41,80.51C47,78,75.83,67.76,85.2,64.44l31,42.14a4.22,4.22,0,0,0,3.38,1.71h85.11c-.39,17.68-5.7,32.21-15.48,42.19-9.41,9.6-22.53,14.67-38,14.67-23.32,0-41.08-7.67-52.78-22.79s-21-46-21-46.34a4.2,4.2,0,0,0-4.22-3c-.05,0-5.35.24-12,.24-6.29,0-11.67-.21-16-.61a6.53,6.53,0,0,1-6.22-5.92C38.5,84,39.44,81.17,41,80.51Z" style="fill:#7c6576"/><path d="M113.4,238c0-11,16.71-19.25,38.88-19.25S191.16,227,191.16,238a4.2,4.2,0,0,1-4.2,4.2H117.59A4.2,4.2,0,0,1,113.4,238Zm38.88-10.85c-13.15,0-22.94,3.21-27.55,6.65h55.09C175.21,230.34,165.42,227.13,152.28,227.13Z" style="fill:#3aadaa"/><path d="M51.37,48.79c15.56-8.12,29.54-9.63,42.72-4.62,15.36,5.85,29.22,20.4,42.38,44.48a4.2,4.2,0,0,1-.69,5l-12,12.13c1.11,15,17.15,26.44,31,26.44,18.35,0,32.18-12.05,32.18-28.05,0-17.92,12.88-31.44,30-31.44a28.18,28.18,0,0,1,20.53,8.4c7.27,7.34,11,18.88,10.86,33.35-.35,31.75,3.18,42.92,4.27,45.58a5,5,0,0,1-1,5.59,5.89,5.89,0,0,1-4.37,1.62,19,19,0,0,1-7-1.73C227,160,204.68,140.9,204.66,104.09a4.2,4.2,0,0,1,4.2-4.2h0a4.2,4.2,0,0,1,4.2,4.2c0,23.27,9.65,37.34,17.73,45a43.11,43.11,0,0,0,12.34,8.47c-2.23-9.47-3.37-24.7-3.17-43.25.14-12.18-2.78-21.65-8.43-27.36A20,20,0,0,0,217,81.09c-12.29,0-21.56,9.9-21.56,23,0,20.44-17.82,36.45-40.58,36.45-18.62,0-39.45-15.58-39.47-36.45v0a1.79,1.79,0,0,1,0-.23,3.68,3.68,0,0,1,.06-.58c0-.13.07-.24.1-.37s.08-.28.13-.41a3.39,3.39,0,0,1,.2-.38,2.37,2.37,0,0,1,.19-.35,3.47,3.47,0,0,1,.35-.43,1.49,1.49,0,0,1,.15-.2l11-11.18c-26.11-46-50.26-44.14-69-35.37l4.9,13.1a4.2,4.2,0,1,1-7.86,2.94L49.38,54A4.2,4.2,0,0,1,51.37,48.79Z" style="fill:#3aadaa"/></svg>