<svg xmlns="http://www.w3.org/2000/svg" viewBox="0 0 283.46 283.46"><path d="M221.08,94.38H62.38a15.85,15.85,0,1,1,0-31.69h158.7a15.85,15.85,0,1,1,0,31.69ZM62.38,71.09a7.45,7.45,0,0,0,0,14.9h158.7a7.45,7.45,0,0,0,0-14.9Z" style="fill:#7c6576"/><path d="M43.55,223.6a4,4,0,0,1-.68,0,4.21,4.21,0,0,1-3.47-4.82l21-129.22a4.2,4.2,0,0,1,8.29,1.35l-21,129.22A4.19,4.19,0,0,1,43.55,223.6Z" style="fill:#7c6576"/><path d="M239.91,223.6a4.2,4.2,0,0,1-4.14-3.52l-21-129.22A4.2,4.2,0,0,1,223,89.51l21,129.22a4.2,4.2,0,0,1-3.47,4.82A3.89,3.89,0,0,1,239.91,223.6Z" style="fill:#7c6576"/><path d="M141.73,209.06A34.75,34.75,0,0,1,107,174.36v-8.07a4.2,4.2,0,0,1,4.2-4.2H126.3a4.21,4.21,0,0,1,4.2,4.2v8.07a11.24,11.24,0,0,0,22.47,0v-8.07a4.2,4.2,0,0,1,4.2-4.2h15.08a4.2,4.2,0,0,1,4.19,4.2v8.07A34.75,34.75,0,0,1,141.73,209.06Zm-26.31-38.57v3.87a26.32,26.32,0,0,0,52.63,0v-3.87h-6.68v3.87a19.64,19.64,0,0,1-39.27,0v-3.87Z" style="fill:#3aadaa"/><path d="M118.36,170.49a4.2,4.2,0,0,1-4.2-4.2V63.22a4.2,4.2,0,0,1,8.4,0V166.29A4.2,4.2,0,0,1,118.36,170.49Z" style="fill:#3aadaa"/><path d="M165.11,170.49a4.2,4.2,0,0,1-4.2-4.2V63.22a4.2,4.2,0,1,1,8.39,0V166.29A4.2,4.2,0,0,1,165.11,170.49Z" style="fill:#3aadaa"/><path d="M62.72,224.44H24.38a4.2,4.2,0,1,1,0-8.39H62.72a4.2,4.2,0,1,1,0,8.39Z" style="fill:#3aadaa"/><path d="M259.09,224.44H220.74a4.2,4.2,0,1,1,0-8.39h38.35a4.2,4.2,0,1,1,0,8.39Z" style="fill:#3aadaa"/></svg>