<svg width="50" height="50" viewBox="0 0 50 50" xmlns="http://www.w3.org/2000/svg"><path d="m37.944 36.027.006-.01-33.213-19.83c-1.327 2.377-.85 5.7 1.327 9.24 2.176 3.54 5.873 7.006 10.277 9.635 4.405 2.63 9.155 4.208 13.208 4.387 1.992.088 3.735-.166 5.15-.728l8.392 5.01c.928.553 2.114.225 2.649-.734.535-.959.218-2.185-.71-2.739l-7.086-4.23Z" fill="#712258"/><path d="M37.95 36.017c-.69 1.237-8.685-2.199-17.857-7.675-9.171-5.475-16.046-10.917-15.356-12.154.69-1.237 8.686 2.199 17.857 7.675 9.172 5.475 16.047 10.917 15.356 12.154Z" fill="#985184"/><path d="M17.492 6.118C12.3 7.528 7.634 11 4.737 16.188c-.589 1.055 4.329 5.17 11.48 9.757.186-5.884 2.416-10.506 4.047-13.428.075-.135.151-.268.228-.401 1.669-2.89.148-6.853-3-5.998Z" fill="#FBB945"/><path d="M16.218 25.945c-7.152-4.586-12.07-8.702-11.48-9.757.543-.974 5.607.946 12.208 4.475a25.6 25.6 0 0 0-.728 5.282Z" fill="#953B24"/><path d="M30.597 19.823c-.937 1.678-3.012 2.253-4.635 1.285-1.622-.97-2.178-3.115-1.241-4.793.936-1.678 3.011-2.253 4.634-1.284 1.622.969 2.178 3.114 1.242 4.792Zm-3.682-9.273c-.536.96-1.721 1.288-2.648.734-.928-.554-1.245-1.78-.71-2.738.535-.96 1.72-1.288 2.648-.734.927.553 1.245 1.78.71 2.738Z" fill="#FBB945"/></svg>
