<svg xmlns="http://www.w3.org/2000/svg" viewBox="0 0 100 100">
  <g id="Annual_Time_Off" data-name="Annual Time Off">
    <g>
      <rect x="13.34" y="24.39" width="73.32" height="59.4" rx="6.37" stroke-width="5" stroke="#875b7b" stroke-linecap="round" stroke-linejoin="round" fill="none"/>
      <g>
        <path d="M30.5,32.12V16.21a2.5,2.5,0,0,0-5,0V32.12a2.5,2.5,0,0,0,5,0Z" fill="#875b7b"/>
        <path d="M52.5,32.12V16.21a2.5,2.5,0,0,0-5,0V32.12a2.5,2.5,0,1,0,5,0Z" fill="#875b7b"/>
        <path d="M74.5,32.12V16.21a2.5,2.5,0,0,0-5,0V32.12a2.5,2.5,0,1,0,5,0Z" fill="#875b7b"/>
      </g>
      <g>
        <path d="M86.65,40.82H13.35v36.6l3.32,6.21,63.63.16,7.62-3.5ZM38,70a2,2,0,0,1-2,2H28.56a2,2,0,0,1,0-4H34V64.47H28.56a2,2,0,0,1,0-4H34V57.08H28.57a2,2,0,0,1,0-4H36a2,2,0,0,1,2,2Zm15.72-9.49a2,2,0,0,1,2,2V70a2,2,0,0,1-2,2H46.29a2,2,0,0,1-2-2V55.08a2,2,0,0,1,2-2h7.45a2,2,0,0,1,0,4H48.29v3.39Zm17.71,0a2,2,0,0,1,2,2V70a2,2,0,0,1-2,2H64a2,2,0,1,1,0-4h5.44V64.47H64a2,2,0,0,1-2-2V55.08a2,2,0,0,1,2-2h7.44a2,2,0,0,1,0,4H66v3.39Z" fill="#875b7b"/>
        <rect x="48.29" y="64.47" width="3.44" height="3.49" fill="#875b7b"/>
      </g>
    </g>
  </g>
</svg>
