<svg xmlns="http://www.w3.org/2000/svg" viewBox="0 0 100 100">
  <g id="Compensatory_Time_Off" data-name="Compensatory Time Off">
    <g>
      <line x1="23.12" y1="26.88" x2="76.88" y2="26.88" fill="none" stroke="#875b7b" stroke-linecap="round" stroke-linejoin="round" stroke-width="5"/>
      <line x1="23.12" y1="84.74" x2="76.88" y2="84.74" fill="none" stroke="#875b7b" stroke-linecap="round" stroke-linejoin="round" stroke-width="5"/>
      <line x1="50" y1="15.26" x2="50" y2="84.66" fill="none" stroke="#875b7b" stroke-linecap="round" stroke-linejoin="round" stroke-width="5"/>
      <line x1="23.45" y1="27.4" x2="11.73" y2="58.24" fill="none" stroke="#875b7b" stroke-linecap="round" stroke-linejoin="round" stroke-width="5"/>
      <line x1="35.24" y1="57.87" x2="23.52" y2="27.03" fill="none" stroke="#875b7b" stroke-linecap="round" stroke-linejoin="round" stroke-width="5"/>
      <path d="M23.92,75.75a16.87,16.87,0,0,0,16.55-13.6,2.67,2.67,0,0,0-2.6-3.2H10a2.67,2.67,0,0,0-2.6,3.2A16.87,16.87,0,0,0,23.92,75.75Z" fill="none" stroke="#875b7b" stroke-miterlimit="10" stroke-width="5"/>
      <line x1="75.62" y1="27.4" x2="63.9" y2="58.24" fill="none" stroke="#875b7b" stroke-linecap="round" stroke-linejoin="round" stroke-width="5"/>
      <line x1="87.41" y1="57.87" x2="75.69" y2="27.03" fill="none" stroke="#875b7b" stroke-linecap="round" stroke-linejoin="round" stroke-width="5"/>
      <path d="M76.08,75.75a16.87,16.87,0,0,0,16.56-13.6A2.67,2.67,0,0,0,90,59H62.13a2.67,2.67,0,0,0-2.6,3.2A16.87,16.87,0,0,0,76.08,75.75Z" fill="none" stroke="#875b7b" stroke-miterlimit="10" stroke-width="5"/>
    </g>
  </g>
</svg>
