<svg xmlns="http://www.w3.org/2000/svg" viewBox="0 0 100 100">
  <g id="Paid_Time_Off" data-name="Paid Time Off">
    <g>
      <path d="M21.46,61.83a3,3,0,0,1,4.24-.27L39.5,73.7H78.9a3,3,0,0,1,0,6H74.37v4.81a3,3,0,0,1-6,0V79.7H45.48v4.81a3,3,0,0,1-6,0V79.7H38.37a3,3,0,0,1-2-.75L21.73,66.07A3,3,0,0,1,21.46,61.83Z" fill="#875b7b"/>
      <g>
        <rect x="46.5" y="67.63" width="6" height="0.07" fill="#875b7b"/>
        <path d="M78.87,41.86c0-.18-.09-.36-.09-.54,0-32.94-58-32.94-58,0a5.58,5.58,0,0,1-.1.59c-.2,2.4,2.94,3.29,4.29,1.3,2.45-3.62,10.12-3.71,12.86-.29.57.71,1.84.95,2.26.14,1.88-3.62,17.81-3.54,18.69,0,.21.88,1.66.59,2.23-.11,2.83-3.48,10.92-3.39,13.51.24C76,45.18,79.12,44.25,78.87,41.86Z" fill="none" stroke="#875b7b" stroke-miterlimit="10" stroke-width="5"/>
        <path d="M46.5,40.62v27h6v-27A23.17,23.17,0,0,0,46.5,40.62Z" fill="#875b7b"/>
        <path d="M52.5,11.6a3.08,3.08,0,0,0-2.41-3.06,3,3,0,0,0-3.59,3v3h6Z" fill="#875b7b"/>
      </g>
    </g>
    <path d="M40.13,43.06c-4.26-10.68,0-19.27,9.55-26.59" fill="none" stroke="#875b7b" stroke-miterlimit="10" stroke-width="5"/>
    <path d="M59.57,43.33c4.26-10.67,0-19.26-9.55-26.58" fill="none" stroke="#875b7b" stroke-miterlimit="10" stroke-width="5"/>
  </g>
</svg>
