<svg xmlns="http://www.w3.org/2000/svg" viewBox="0 0 100 100">
  <g id="Small_Unemployement" data-name="Small Unemployement">
    <g>
      <g>
        <path d="M76.31,41.83a8.05,8.05,0,0,0-8-8H61.05v-6.1a3,3,0,0,0-3-3H42a3,3,0,0,0-3,3v6.1h-.74l38.1,25ZM55,33.6H45V30.72H55Z" fill="#875b7b"/>
        <path d="M23.69,62.69a8,8,0,0,0,8,8H65.67l-42-27.59Z" fill="#875b7b"/>
      </g>
      <path d="M82.64,75.33a2.89,2.89,0,0,1-1.59-.47L15.77,31.94A2.89,2.89,0,1,1,19,27.11L84.23,70a2.89,2.89,0,0,1-1.59,5.3Z" fill="#875b7b"/>
    </g>
  </g>
</svg>
