<svg xmlns="http://www.w3.org/2000/svg" viewBox="0 0 100 100">
  <g id="Small_Unemployement" data-name="Small Unemployement">
    <path d="M50,86.88A36.88,36.88,0,1,1,86.88,50,36.93,36.93,0,0,1,50,86.88Zm0-68.76A31.88,31.88,0,1,0,81.88,50,31.91,31.91,0,0,0,50,18.12Z" fill="#875b7b"/>
    <g>
      <path d="M34.9,64.53a2.14,2.14,0,0,1-2.14-2.14V54a49.9,49.9,0,0,0,13.75,3l-7.53-5a45.14,45.14,0,0,1-6.22-2V48l-4-2.63v17a6.14,6.14,0,0,0,6.14,6.14H64l-6.08-4Z" fill="#875b7b"/>
      <path d="M45.37,35.47h9.26v3.38H46.16L52.49,43H65.1a2.14,2.14,0,0,1,2.14,2.14V50c-.89.33-1.8.63-2.71.91l6.71,4.41V45.15A6.14,6.14,0,0,0,65.1,39H58.63V33.47a2,2,0,0,0-2-2H43.37a2,2,0,0,0-2,2V35.7l4,2.63Z" fill="#875b7b"/>
    </g>
    <path d="M78.42,71.53a2.46,2.46,0,0,1-1.37-.41L20.59,34a2.5,2.5,0,0,1,2.74-4.18L79.8,66.94a2.5,2.5,0,0,1-1.38,4.59Z" fill="#875b7b"/>
  </g>
</svg>
