<svg xmlns="http://www.w3.org/2000/svg" viewBox="0 0 100 100">
  <g id="Small_Unemployement" data-name="Small Unemployement">
    <path d="M50,86.88A36.88,36.88,0,1,1,86.88,50,36.92,36.92,0,0,1,50,86.88Zm0-68.76A31.88,31.88,0,1,0,81.88,50,31.91,31.91,0,0,0,50,18.12Z" fill="#875b7b"/>
    <g>
      <path d="M71.74,45.15a6.65,6.65,0,0,0-6.64-6.64h-6v-5a2.5,2.5,0,0,0-2.5-2.5H43.37a2.5,2.5,0,0,0-2.5,2.5v1.9L71.74,55.66Zm-17.61-6.8H45.87V36h8.26Z" fill="#875b7b"/>
      <path d="M28.26,45.15V62.39A6.65,6.65,0,0,0,34.9,69H64.77L28.26,45Z" fill="#875b7b"/>
    </g>
    <path d="M78.42,71.53a2.46,2.46,0,0,1-1.37-.41L20.59,34a2.5,2.5,0,0,1,2.74-4.18L79.8,66.94a2.5,2.5,0,0,1-1.38,4.59Z" fill="#875b7b"/>
  </g>
</svg>
