<svg xmlns="http://www.w3.org/2000/svg" viewBox="0 0 100 100">
  <g id="Training_Time_Off" data-name="Training Time Off">
    <g>
      <g>
        <path d="M21.73,41.93v3c0,2.84,1.25,6.66,6.66,9.72V44.09Z" fill="#875b7b"/>
        <path d="M49.7,50.18a16.43,16.43,0,0,1-5-.79L43.39,49v9.88a64.34,64.34,0,0,0,6.61.35c14.07,0,28.27-4.41,28.27-14.27V41.53L54.81,49.35A16.23,16.23,0,0,1,49.7,50.18Z" fill="#875b7b"/>
      </g>
      <path d="M92.65,26.69l-39-12.14a11.12,11.12,0,0,0-6.73,0L7.33,27.23a2.5,2.5,0,0,0,0,4.76l26.07,8.47V70a8.16,8.16,0,1,0,5,0V42.08l7.86,2.55a11.06,11.06,0,0,0,7,0L92.7,31.45a2.5,2.5,0,0,0,0-4.76Z" fill="#875b7b"/>
    </g>
  </g>
</svg>
