<svg xmlns="http://www.w3.org/2000/svg" viewBox="0 0 100 100">
  <g id="Unpaid_Time_Off" data-name="Unpaid Time Off">
    <path d="M50,86.55A36.55,36.55,0,1,1,86.55,50,36.6,36.6,0,0,1,50,86.55Zm0-68.1A31.55,31.55,0,1,0,81.55,50,31.59,31.59,0,0,0,50,18.45Z" fill="#875b7b"/>
    <path d="M60.78,34.26a13.53,13.53,0,0,0-8.6-3.93V27.58c0-3.22-5-3.22-5,0v3.09A11.57,11.57,0,0,0,38.43,41a11.4,11.4,0,0,0,3.08,8.61,11.55,11.55,0,0,0,5.67,3.29V66.13a8.48,8.48,0,0,1-4.42-2.36,2.2,2.2,0,0,1-.64-1.55v-3a2.5,2.5,0,0,0-2.49-2.51h0a2.51,2.51,0,0,0-2.5,2.49V62.2a7.25,7.25,0,0,0,2.1,5.11,13.55,13.55,0,0,0,8,3.87v1.24c0,3.22,5,3.22,5,0V71.05a11.6,11.6,0,0,0,9.39-10.49,11.46,11.46,0,0,0-9.39-12V35.35a8.5,8.5,0,0,1,5.06,2.45,2.15,2.15,0,0,1,.64,1.55v3a2.49,2.49,0,0,0,2.49,2.51h0a2.51,2.51,0,0,0,2.5-2.49V39.37A7.25,7.25,0,0,0,60.78,34.26ZM45.16,46.2a6.4,6.4,0,0,1,2-10.24v11.7A6.68,6.68,0,0,1,45.16,46.2Zm11.42,14a6.5,6.5,0,0,1-4.4,5.63V53.66a6.38,6.38,0,0,1,2.66,1.71A6.46,6.46,0,0,1,56.58,60.24Z" fill="#875b7b"/>
    <g>
      <path d="M33.44,40.68a16.67,16.67,0,0,1,.74-3.87L23,29.43a2.49,2.49,0,1,0-2.75,4.15l13.13,8.69C33.4,41.74,33.41,41.21,33.44,40.68Z" fill="#875b7b"/>
      <path d="M78.88,66.42,66.5,58.22a16.83,16.83,0,0,1,.06,2.66,15.9,15.9,0,0,1-.5,3l10.08,6.67a2.48,2.48,0,1,0,2.74-4.14Z" fill="#875b7b"/>
    </g>
  </g>
</svg>
