<svg xmlns="http://www.w3.org/2000/svg" viewBox="0 0 100 100">
  <g id="Unpaid_Time_Off" data-name="Unpaid Time Off">
    <g>
      <path d="M61.24,34.26a13.53,13.53,0,0,0-8.6-3.93V27.58c0-3.22-5-3.22-5,0v3.09A11.57,11.57,0,0,0,38.89,41a11.44,11.44,0,0,0,8.75,11.9V66.13a8.5,8.5,0,0,1-4.43-2.36,2.19,2.19,0,0,1-.63-1.55v-3a2.5,2.5,0,0,0-2.49-2.51h0a2.5,2.5,0,0,0-2.5,2.49V62.2a7.21,7.21,0,0,0,2.1,5.11,13.52,13.52,0,0,0,8,3.87v1.24c0,3.22,5,3.22,5,0V71.05A11.58,11.58,0,0,0,62,60.56a11.46,11.46,0,0,0-9.38-12V35.35A8.5,8.5,0,0,1,57.7,37.8a2.2,2.2,0,0,1,.64,1.55v3a2.49,2.49,0,0,0,2.48,2.51h0a2.51,2.51,0,0,0,2.5-2.49V39.37A7.25,7.25,0,0,0,61.24,34.26Zm-13.6,13.4a6.56,6.56,0,0,1-2-1.46,6.4,6.4,0,0,1,2-10.24Zm7.66,7.71a6.42,6.42,0,0,1-2.66,10.5V53.66A6.38,6.38,0,0,1,55.3,55.37Z" fill="#875b7b"/>
      <g>
        <path d="M80.8,64,66.12,54.35A16.47,16.47,0,0,1,67,60.88a15.83,15.83,0,0,1-1.24,5.22l9.53,6.27a4.93,4.93,0,0,0,2.74.82A5,5,0,0,0,80.8,64Z" fill="#875b7b"/>
        <path d="M33.9,40.68a16.07,16.07,0,0,1,1.78-6.37L24.42,26.9a5,5,0,0,0-5.5,8.35L34.25,45.34A16.79,16.79,0,0,1,33.9,40.68Z" fill="#875b7b"/>
      </g>
      <g>
        <line x1="78.33" y1="31.08" x2="21.67" y2="68.47" fill="#875b7b"/>
        <path d="M21.68,73.47a5,5,0,0,1-2.76-9.17L75.57,26.9a5,5,0,0,1,5.51,8.35L24.43,72.64A5,5,0,0,1,21.68,73.47Z" fill="#875b7b"/>
      </g>
    </g>
  </g>
</svg>
