<svg xmlns="http://www.w3.org/2000/svg" viewBox="0 0 100 100">
  <g id="Credit_Time" data-name="Credit Time">
    <path d="M90.13,38.78a5.33,5.33,0,0,0-.28-1.44,1,1,0,0,0,0-.16c-.06-.18-.13-.35-.2-.51a6,6,0,0,0-.3-.56L89.21,36a4.82,4.82,0,0,0-4.15-2.26l-.43.06a4.3,4.3,0,0,0-.62,0H71a5,5,0,0,0,0,10H72.3L61.63,54.44,51.26,44.21s-.08-.06-.12-.1l-9-8.88a4.84,4.84,0,0,0-1.78-1.1,4.94,4.94,0,0,0-5.63.93L19.94,49.85v-2.7a5,5,0,0,0-10,0v13.1a3.93,3.93,0,0,0-.07,1,5.33,5.33,0,0,0,.28,1.44,1.09,1.09,0,0,0,0,.17c.06.17.13.34.2.5a6,6,0,0,0,.3.56l.09.14a4.82,4.82,0,0,0,4.15,2.26l.43-.06a4.3,4.3,0,0,0,.62,0H29a5,5,0,0,0,0-10H27.7L38.37,45.56,48.74,55.79s.08.06.12.1l9,8.88a4.84,4.84,0,0,0,1.78,1.1,4.94,4.94,0,0,0,5.63-.93L80.06,50.15v2.7a5,5,0,0,0,10,0V39.75A3.93,3.93,0,0,0,90.13,38.78Z" fill="#875b7b"/>
  </g>
</svg>
