<svg width="50" height="50" viewBox="0 0 50 50" xmlns="http://www.w3.org/2000/svg"><path d="M25 9.996v30.009A16.925 16.925 0 0 1 17 42C7.611 42 0 34.389 0 25 0 15.61 7.611 8 17 8c2.892 0 5.616.722 8 1.996Z" fill="#FC868B"/><path d="M33 42.001c9.388 0 17-7.611 17-17C50 15.61 42.387 8 33 8a16.93 16.93 0 0 0-8.008 2H25v30.005A16.925 16.925 0 0 0 33 42Z" fill="#2EBCFA"/><path d="M25 40.005c5.356-2.862 9-8.508 9-15.005 0-6.497-3.644-12.142-9-15.004-5.356 2.862-9 8.507-9 15.004s3.644 12.143 9 15.005Z" fill="#2D6388"/></svg>
