<svg width="60" height="64" viewBox="0 0 60 64" fill="none" xmlns="http://www.w3.org/2000/svg">
<g clip-path="url(#clip0_405_16859)">
<mask id="mask0_405_16859" style="mask-type:luminance" maskUnits="userSpaceOnUse" x="47" y="56" width="1" height="1">
<path d="M47.885 56.2874C47.6629 56.4354 47.5889 56.5835 47.5889 56.7315V56.1393" fill="white"/>
</mask>
<g mask="url(#mask0_405_16859)">
<path d="M47.8109 56.3614C47.6629 56.5094 47.5889 56.5835 47.5889 56.7315L47.8109 56.3614Z" fill="white"/>
<path d="M47.8109 56.3614C47.6629 56.5094 47.5889 56.5835 47.5889 56.7315" stroke="#374975" stroke-miterlimit="10"/>
<path d="M47.5889 56.7315V56.1393V56.7315Z" fill="white"/>
<path d="M47.5889 56.7315V56.1393" stroke="#374975" stroke-miterlimit="10"/>
</g>
<path d="M48.9211 31.3411C61.6534 38.7436 61.7274 50.6616 49.0692 57.99C48.625 58.2121 47.9588 58.2121 47.5147 57.99C47.0705 57.7679 45.8205 55.987 46.2646 55.765C52.1866 52.3598 56.3236 49.1811 56.3236 44.6655C56.3236 40.15 53.2886 35.6345 47.3666 32.2294C46.9225 32.0073 46.9225 31.5632 47.3666 31.3411C47.8108 31.119 48.477 31.045 48.9211 31.3411Z" fill="#C1DBF6"/>
<path d="M43.2213 23.4945C47.2927 25.8633 50.6238 31.5632 50.6238 36.3007C50.6238 41.0383 47.2927 42.8889 43.2213 40.5201C39.15 38.1514 35.8188 32.4514 35.8188 27.7139C35.8188 22.9763 39.0759 21.1257 43.2213 23.4945Z" fill="white"/>
<path d="M47.4026 39.9839C48.5132 39.2897 49.2073 37.9015 49.2767 35.8191C49.3462 33.7367 48.5826 31.5154 47.472 29.5025C46.3614 27.4895 44.8343 25.6847 43.099 24.7129C41.3637 23.7412 39.8366 23.6023 38.7259 24.2271C37.6153 24.9212 36.9212 26.3095 36.8518 28.3919C36.7824 30.4743 37.5459 32.6955 38.6565 34.7085C39.7671 36.7214 41.2942 38.5262 43.0296 39.498C44.7649 40.4698 46.292 40.6086 47.4026 39.9839Z" fill="#FBDBD0"/>
<path d="M48.0745 20.5639C46.0018 19.3795 44.2068 19.3894 42.8446 20.1009L38.6697 22.6387C39.918 22.2547 41.4917 22.5061 43.2213 23.4945C47.2926 25.8632 50.6238 31.5631 50.6238 36.3007C50.6238 37.9954 50.1846 39.6569 48.9769 40.6975L53.3624 38.1489C54.6949 37.4087 55.5541 35.5658 55.5541 33.271C55.5541 28.5334 52.2199 22.9327 48.0745 20.5639Z" fill="#C1DBF6"/>
<path d="M53.7604 50.0228C53.1682 49.6527 52.576 49.6527 52.2059 49.8748L44.4255 54.5015C44.8251 54.252 45.3904 54.28 46.0343 54.6588C47.2187 55.3251 48.181 57.0276 48.181 58.4341C48.181 59.1762 47.9114 59.6679 47.4735 59.8719L55.4354 55.295C55.8056 55.0729 56.1017 54.5547 56.1017 53.8885C56.1017 52.482 54.9448 50.6891 53.7604 50.0228Z" fill="#C1DBF6"/>
<path d="M46.0376 54.6601C47.222 55.3263 48.1844 57.0289 48.1844 58.4354C48.1844 59.8419 47.222 60.36 45.9636 59.6938C44.7052 59.0275 43.8169 57.325 43.8169 55.9185C43.8169 54.512 44.7792 53.9198 46.0376 54.6601Z" fill="#C1DBF6"/>
<path d="M47.5923 58.0653C47.5923 59.1016 46.852 59.5457 45.9638 59.0276C45.0755 58.5094 44.3352 57.251 44.3352 56.1406C44.3352 55.1043 45.0755 54.6601 45.9638 55.1783C46.852 55.6965 47.5923 56.9549 47.5923 58.0653Z" fill="#374874"/>
<path d="M42.5108 8.01011C42.4899 7.96104 42.4694 7.91172 42.4468 7.86401C42.4694 7.91393 42.4906 7.96246 42.5108 8.01011Z" fill="#858585"/>
<path d="M48.4097 13.6835C48.3977 10.8637 47.1191 8.49276 44.6215 7.26236C43.6023 6.67869 42.4336 6.37063 41.1604 6.30865C41.8583 6.8033 42.0975 7.20219 42.21 7.39704C42.3003 7.55395 42.3785 7.71286 42.4468 7.86398C42.5924 8.19012 42.7015 8.48634 42.7781 8.74359C42.8718 9.07774 42.9322 9.48297 42.9814 9.82851C43.0122 10.14 43.0291 10.462 43.046 10.8044C43.051 12.5636 43.056 14.3466 43.061 16.1047C43.0638 17.0787 43.0666 18.0527 43.0693 19.0267C43.0717 19.8509 43.074 20.6751 43.0763 21.4994C43.0591 22.2637 44.0249 23.2356 44.8143 23.6643C46.3439 24.5894 48.3897 24.2302 48.4393 24.1437L48.4097 13.6835Z" fill="#C1DBF6"/>
<path d="M44.624 3.43916C44.5396 3.38842 44.4372 3.32694 44.3425 3.27001C44.3448 3.27137 44.347 3.27264 44.3493 3.27403C44.2683 3.22387 43.7355 2.91558 43.6445 2.86286C43.6464 2.86398 43.6485 2.86495 43.6504 2.86607C43.6274 2.85328 43.6048 2.8398 43.5819 2.82699C43.5818 2.82699 43.5819 2.82699 43.5819 2.82699C43.4795 2.76936 43.3722 2.71002 43.2692 2.65267C43.0052 2.51219 42.735 2.37493 42.466 2.24935C42.0785 2.07089 41.7161 1.92005 41.332 1.78104C41.335 1.78211 41.3386 1.78338 41.3415 1.7844C41.3035 1.77074 41.2649 1.75677 41.228 1.74378C41.2268 1.74338 41.2253 1.74281 41.2241 1.74241C41.2238 1.74232 41.2236 1.74224 41.2233 1.74214C40.2545 1.41652 39.6293 1.25025 38.6791 1.12445C38.51 1.1014 38.315 1.07906 38.1536 1.05867L38.0178 1.04919C35.8006 0.826715 33.1629 1.3047 30.8881 2.15717C30.0553 2.43161 28.9735 2.93829 28.2188 3.31266C27.6966 3.54954 27.1007 3.90299 26.5977 4.17904C26.5976 4.17909 26.5975 4.17916 26.5974 4.17921C26.5817 4.18829 26.5668 4.19725 26.5512 4.2063C26.5468 4.20811 26.5424 4.21165 26.5381 4.21401C25.9955 4.5297 25.501 4.83824 25.078 5.11282C25.0757 5.11421 25.073 5.11598 25.0707 5.11737L25.0643 5.12175C22.9704 6.521 22.4862 6.94626 20.8209 8.34703C18.1132 10.7542 16.0246 13.025 13.733 16.3498L13.7327 16.3503C13.43 16.7997 13.1126 17.2843 12.8364 17.73C12.8213 17.7535 12.8055 17.7781 12.7908 17.8007L12.7481 17.8733C12.459 18.3435 12.1906 18.8 11.9469 19.236C10.8605 21.1706 9.92221 23.3043 9.3618 25.1897C9.22449 25.6521 9.08322 26.1586 8.98258 26.5869C8.98064 26.5941 8.97856 26.6019 8.97664 26.6091L8.97047 26.6398C8.8639 27.0923 8.7803 27.5132 8.71623 27.9055C8.46108 29.1861 8.45531 30.5883 8.46816 31.8958C8.472 33.4175 8.47727 34.9903 8.48125 36.5152C8.48575 38.1555 8.49072 39.8236 8.4953 41.4648C8.49719 42.1342 9.1535 43.0619 10.2333 43.6297C11.8738 44.4924 13.4329 44.308 13.8583 44.109C13.8513 41.643 13.844 39.0877 13.8371 36.6082C13.8348 35.8327 13.8325 34.9836 13.8302 34.2074C13.8292 33.7386 13.8223 33.2972 13.8486 32.8283C13.8986 31.4795 14.2159 30.0417 14.6311 28.747C15.0808 27.2955 15.6538 25.8914 16.231 24.4865C16.8739 23.0718 17.5913 21.7466 18.3586 20.5084C19.3562 19.1286 20.3255 17.7264 21.356 16.3719C26.6925 10.0937 33.6799 4.87833 41.1176 4.36152C43.8549 4.27758 46.8219 5.25382 48.3897 7.61826C48.5548 7.86424 48.6979 8.13045 48.8312 8.40443C48.4873 7.22492 47.8154 6.23752 47.0263 5.33758C46.312 4.61258 45.4979 3.98335 44.624 3.43916Z" fill="white"/>
<path d="M31.7586 7.41155C41.7337 1.66018 49.7655 4.22255 49.7787 12.8931L49.8065 22.7021C49.8076 23.1049 49.5932 23.4775 49.2444 23.6788L48.4393 24.1436L48.4097 13.6835C48.3635 6.19099 39.8625 4.15349 31.7627 8.83134C23.676 13.499 14.6742 25.6248 14.6671 33.1648L14.6954 43.1458C14.6963 43.4422 14.5385 43.7163 14.2819 43.8645L13.8581 44.1091C13.8498 41.163 13.8391 37.406 13.8285 33.6489C13.7926 24.9915 21.782 13.1793 31.7586 7.41155Z" fill="#FBDBD0"/>
<mask id="mask1_405_16859" style="mask-type:luminance" maskUnits="userSpaceOnUse" x="47" y="56" width="1" height="1">
<path d="M47.885 56.2874C47.6629 56.4354 47.5889 56.5835 47.5889 56.7315V56.1393" fill="white"/>
</mask>
<g mask="url(#mask1_405_16859)">
<path d="M47.8109 56.3614C47.6629 56.5094 47.5889 56.5835 47.5889 56.7315L47.8109 56.3614Z" fill="white"/>
<path d="M47.8109 56.3614C47.6629 56.5094 47.5889 56.5835 47.5889 56.7315" stroke="#374975" stroke-miterlimit="10"/>
<path d="M47.5889 56.7315V56.1393V56.7315Z" fill="white"/>
<path d="M47.5889 56.7315V56.1393" stroke="#374975" stroke-miterlimit="10"/>
</g>
<path d="M56.3216 44.5676C56.3219 44.6002 56.3236 44.6329 56.3236 44.6655C56.3236 49.181 52.1866 52.3598 46.2646 55.765C45.8205 55.987 47.0705 57.7679 47.5147 57.99C47.9588 58.2121 48.625 58.2121 49.0692 57.99C56.4171 53.7359 59.4736 47.9354 58.2553 42.3693L56.3216 44.5676Z" fill="#FBDBD0"/>
<path d="M48.9213 31.3411C48.4772 31.045 47.8109 31.119 47.3668 31.3411C46.9227 31.5631 46.9227 32.0073 47.3668 32.2294C53.2459 35.6099 56.2782 40.0848 56.3217 44.5676L58.2554 42.3692C57.375 38.3467 54.2626 34.4465 48.9213 31.3411Z" fill="#FBDBD0"/>
<path d="M43.2213 23.4945C47.2927 25.8633 50.6238 31.5632 50.6238 36.3007C50.6238 41.0383 47.2927 42.8889 43.2213 40.5201C39.15 38.1514 35.8188 32.4514 35.8188 27.7139C35.8188 22.9763 39.0759 21.1257 43.2213 23.4945Z" fill="#C1DBF6"/>
<path d="M45.8842 37.2265C46.6061 36.7753 47.0573 35.8729 47.1024 34.5193C47.1475 33.1657 46.6512 31.7219 45.9293 30.4135C45.2074 29.105 44.2148 27.9319 43.0868 27.3002C41.9588 26.6686 40.9662 26.5783 40.2443 26.9844C39.5224 27.4356 39.0712 28.338 39.026 29.6916C38.9809 31.0452 39.4772 32.489 40.1991 33.7974C40.921 35.1059 41.9137 36.279 43.0417 36.9107C44.1696 37.5423 45.1623 37.6326 45.8842 37.2265Z" fill="#374874"/>
<path d="M48.0745 20.5639C46.0018 19.3795 44.2068 19.3894 42.8446 20.1009L38.6697 22.6387C39.918 22.2547 41.4917 22.5061 43.2213 23.4945C46.448 25.3718 49.2079 29.3414 50.2149 33.2661L55.1414 30.2365C54.1287 26.3414 51.3568 22.4395 48.0745 20.5639Z" fill="white"/>
<path d="M50.2148 33.2661C50.4784 34.2935 50.6237 35.3179 50.6237 36.3007C50.6237 37.9954 50.1845 39.6569 48.9768 40.6975L53.3623 38.1489C54.6948 37.4087 55.5541 35.5658 55.5541 33.271C55.5541 32.2846 55.4077 31.2608 55.1414 30.2366L50.2148 33.2661Z" fill="#FBDBD0"/>
<path d="M53.7604 50.0228C53.1682 49.6527 52.576 49.6527 52.2059 49.8748L44.4255 54.5015C44.8251 54.252 45.3904 54.28 46.0343 54.6588C46.9114 55.1522 47.6656 56.2141 47.9985 57.303L55.7782 52.46C55.3524 51.4441 54.5633 50.4745 53.7604 50.0228Z" fill="white"/>
<path d="M47.9984 57.3031C48.115 57.6845 48.1809 58.0693 48.1809 58.4341C48.1809 59.1762 47.9113 59.6679 47.4734 59.872L55.4353 55.295C55.8055 55.0729 56.1015 54.5547 56.1015 53.8886C56.1015 53.4356 55.9804 52.9426 55.7781 52.4601L47.9984 57.3031Z" fill="#FBDBD0"/>
<path d="M46.0376 54.6601C47.222 55.3263 48.1844 57.0289 48.1844 58.4354C48.1844 59.8419 47.222 60.36 45.9636 59.6938C44.7052 59.0275 43.8169 57.325 43.8169 55.9185C43.8169 54.512 44.7792 53.9198 46.0376 54.6601Z" fill="#C1DBF6"/>
<path d="M47.5923 58.0653C47.5923 59.1016 46.852 59.5457 45.9638 59.0276C45.0755 58.5094 44.3352 57.251 44.3352 56.1406C44.3352 55.1043 45.0755 54.6601 45.9638 55.1783C46.852 55.6965 47.5923 56.9549 47.5923 58.0653Z" fill="#374874"/>
<path d="M16.3077 53.1078C16.7715 54.5618 17.0322 56.0284 17.0322 57.4175C17.0322 60.0084 15.9959 61.785 14.5154 62.5993L19.8451 59.6382C21.3256 58.7499 22.2139 56.9733 22.2139 54.3825C22.2342 52.9424 21.9695 51.4246 21.4838 49.9248L16.3077 53.1078Z" fill="#FBDBD0"/>
<path d="M14.0711 40.1697C11.7764 38.8373 9.70369 38.7633 8.2232 39.5776L3.26355 42.8346C4.74406 41.9463 6.52064 41.8723 8.8154 43.2047C12.1375 45.1108 15.0166 49.0604 16.3077 53.1078L21.4838 49.9248C20.1969 45.951 17.3494 42.1044 14.0711 40.1697Z" fill="white"/>
<path d="M9.01162 43.3C13.4172 45.9209 17.0284 52.1089 17.0284 57.2777C17.0284 62.4465 13.4172 64.4849 9.01162 61.8641C4.60601 59.2433 0.994873 53.0553 0.994873 47.9592C0.994873 42.8632 4.60601 40.752 9.01162 43.3Z" fill="#C1DBF6"/>
<path d="M42.5108 8.01011C42.4899 7.96104 42.4694 7.91172 42.4468 7.86401C42.4694 7.91393 42.4906 7.96246 42.5108 8.01011Z" fill="#858585"/>
<path d="M48.4097 13.6835C48.3977 10.8637 47.1191 8.49276 44.6215 7.26236C43.6023 6.67869 42.4336 6.37063 41.1604 6.30865C41.8583 6.8033 42.0975 7.20219 42.21 7.39704C42.3003 7.55395 42.3785 7.71286 42.4468 7.86398C42.5924 8.19012 42.7015 8.48634 42.7781 8.74359C42.8718 9.07774 42.9322 9.48297 42.9814 9.82851C43.0122 10.14 43.0291 10.462 43.046 10.8044C43.051 12.5636 43.056 14.3466 43.061 16.1047C43.0638 17.0787 43.0666 18.0527 43.0693 19.0267C43.0717 19.8509 43.074 20.6751 43.0763 21.4994C43.0591 22.2637 44.0249 23.2356 44.8143 23.6643C46.3439 24.5894 48.3897 24.2302 48.4393 24.1437L48.4097 13.6835Z" fill="#C1DBF6"/>
<path d="M47.0261 5.33766C46.3118 4.61265 45.4978 3.98335 44.6239 3.43916C44.5394 3.38842 44.4371 3.32694 44.3423 3.27001C44.3446 3.27137 44.3468 3.27264 44.3491 3.27404C44.2681 3.22387 43.7354 2.91559 43.6444 2.86286C43.6463 2.86398 43.6483 2.86495 43.6502 2.86607C43.6273 2.85328 43.6047 2.8398 43.5817 2.82699C43.5817 2.82699 43.5818 2.82699 43.5817 2.82699C43.4793 2.76936 43.3721 2.71002 43.2691 2.65267C43.0051 2.51219 42.7349 2.37493 42.4659 2.24935C42.0784 2.07089 41.716 1.92005 41.3319 1.78104C41.3348 1.78211 41.3385 1.78338 41.3414 1.7844C41.3033 1.77074 41.2648 1.75677 41.2279 1.74378C41.2267 1.74338 41.2252 1.74281 41.224 1.74241C41.2237 1.74232 41.2234 1.74224 41.2232 1.74214C40.2544 1.41652 39.6291 1.25025 38.679 1.12445C38.5098 1.1014 38.3148 1.07906 38.1535 1.05867L38.0177 1.04919C35.8005 0.826715 33.1628 1.3047 30.888 2.15717C30.0552 2.43161 28.9733 2.93829 28.2187 3.31266C27.6965 3.54954 27.1005 3.90299 26.5976 4.17904C26.5975 4.17909 26.5974 4.17916 26.5972 4.17921C26.5816 4.18829 26.5667 4.19725 26.5511 4.2063C26.5467 4.20811 26.5423 4.21165 26.538 4.21401C25.9954 4.52971 25.5008 4.83824 25.0779 5.11282C25.0756 5.11421 25.0729 5.11598 25.0706 5.11737L25.0642 5.12175C22.9702 6.521 22.4861 6.94626 20.8208 8.34703C18.1131 10.7542 16.0245 13.025 13.7329 16.3498L13.7326 16.3503C13.4299 16.7997 13.1125 17.2843 12.8363 17.73C12.8212 17.7535 12.8054 17.7781 12.7906 17.8007L12.748 17.8733C12.4589 18.3435 12.1904 18.8 11.9468 19.236C10.8604 21.1706 9.92208 23.3043 9.36167 25.1897C9.22436 25.6521 9.08309 26.1586 8.98246 26.5869C8.98052 26.5941 8.97843 26.6019 8.97651 26.6091L8.97034 26.6398C8.86377 27.0923 8.78017 27.5132 8.7161 27.9055C8.70825 27.9449 8.70272 27.9854 8.69531 28.025L13.9951 31.378C14.1359 30.483 14.3621 29.5851 14.6309 28.747C15.0807 27.2955 15.6537 25.8914 16.2308 24.4865C16.8738 23.0719 17.5911 21.7467 18.3584 20.5085C19.356 19.1287 20.3253 17.7264 21.3558 16.3719C26.6923 10.0938 33.6798 4.87838 41.1175 4.36157C43.8547 4.27763 46.8217 5.25387 48.3895 7.61831C48.5547 7.8643 48.6977 8.1305 48.8311 8.40448C48.4871 7.22497 47.8153 6.23759 47.0261 5.33766Z" fill="white"/>
<path d="M8.46797 31.8958C8.4718 33.4175 8.47707 34.9903 8.48105 36.5152C8.48555 38.1555 8.49053 39.8236 8.4951 41.4648C8.49699 42.1342 9.15331 43.0619 10.2331 43.6297C11.8736 44.4924 13.4327 44.308 13.8581 44.1091C13.8511 41.643 13.8438 39.0877 13.8369 36.6082C13.8346 35.8328 13.8323 34.9836 13.83 34.2074C13.829 33.7386 13.8221 33.2973 13.8484 32.8284C13.8661 32.3526 13.9184 31.8657 13.9951 31.378L8.6953 28.025C8.46265 29.2733 8.45553 30.6286 8.46797 31.8958Z" fill="#C1DBF6"/>
<path d="M31.7586 7.41155C41.7337 1.66018 49.7655 4.22255 49.7787 12.8931L49.8065 22.7021C49.8076 23.1049 49.5932 23.4775 49.2444 23.6788L48.4393 24.1436L48.4097 13.6835C48.3635 6.19099 39.8625 4.15349 31.7627 8.83134C23.676 13.499 14.6742 25.6248 14.6671 33.1648L14.6954 43.1458C14.6963 43.4422 14.5385 43.7163 14.2819 43.8645L13.8581 44.1091C13.8498 41.163 13.8391 37.406 13.8285 33.6489C13.7926 24.9915 21.782 13.1793 31.7586 7.41155Z" fill="#FBDBD0"/>
<path d="M36.8884 0.994866C37.2739 0.994866 37.6518 1.0125 38.0178 1.04923L38.1536 1.05871C38.3149 1.07911 38.51 1.10147 38.6791 1.1245C39.6293 1.25032 40.2545 1.41656 41.2233 1.74218C41.2236 1.74228 41.2239 1.74236 41.2242 1.74246C41.2253 1.74286 41.2268 1.74343 41.228 1.74383C41.2644 1.75663 41.3024 1.77041 41.34 1.78389C41.3374 1.78297 41.3345 1.78195 41.332 1.78106C41.7161 1.92009 42.0785 2.07091 42.466 2.24937C42.735 2.37494 43.0052 2.51221 43.2692 2.65268C43.3722 2.71004 43.4793 2.76933 43.5817 2.82696C43.5816 2.82696 43.5818 2.82696 43.5817 2.82696C43.6041 2.83947 43.6264 2.8527 43.6488 2.86521C43.6473 2.86442 43.6459 2.8637 43.6445 2.86287C43.7355 2.9156 44.2682 3.22389 44.3492 3.27405C44.3469 3.27266 44.3447 3.27139 44.3424 3.27002C44.4372 3.32695 44.5395 3.38844 44.624 3.43918C45.4978 3.98337 46.3119 4.61264 47.0262 5.33768C47.8143 6.23639 48.4852 7.2224 48.8295 8.39977C49.4396 9.63637 49.7761 11.137 49.7788 12.8931L49.804 21.7757C49.8321 21.7991 49.8604 21.8219 49.8884 21.8456C50.0564 21.9877 50.2218 22.135 50.385 22.2868C50.415 22.3147 50.4446 22.3432 50.4745 22.3715C50.6348 22.523 50.793 22.678 50.9481 22.8382C50.955 22.8452 50.962 22.852 50.9688 22.859C51.1313 23.0274 51.29 23.2014 51.4464 23.3785C51.4722 23.4077 51.4979 23.437 51.5235 23.4665C51.8402 23.8305 52.1433 24.2114 52.4313 24.6063C52.4461 24.6267 52.4612 24.6468 52.4759 24.6672C52.621 24.8681 52.7622 25.0721 52.8991 25.2794C52.9062 25.2903 52.9131 25.3012 52.9202 25.312C53.2008 25.7392 53.4631 26.1792 53.7056 26.6286C53.7121 26.6407 53.7185 26.6528 53.725 26.6649C53.9681 27.1182 54.1905 27.5804 54.3902 28.0486C54.3927 28.0544 54.3951 28.0601 54.3976 28.0658C54.7016 28.7809 54.9522 29.5086 55.1415 30.2364C55.1414 30.2364 55.1415 30.2365 55.1415 30.2364C55.1415 30.2365 55.1415 30.2367 55.1415 30.2367C55.2712 30.7356 55.3717 31.2341 55.441 31.7285C55.4441 31.7506 55.4475 31.7726 55.4505 31.7947C55.4815 32.0249 55.5057 32.2539 55.5226 32.4818C55.5253 32.5176 55.5271 32.5532 55.5295 32.5889C55.5443 32.8178 55.5542 33.0456 55.5542 33.271C55.5542 34.275 55.3897 35.1924 55.0931 35.9689C55.0626 36.0488 55.0291 36.1255 54.9958 36.2023C55.0733 36.2911 55.1495 36.3801 55.2244 36.4695C55.2503 36.5003 55.2758 36.5312 55.3014 36.5621C55.4798 36.7777 55.6522 36.9944 55.8158 37.2129C55.819 37.2172 55.822 37.2215 55.8252 37.2258C55.9913 37.4481 56.1488 37.6721 56.2996 37.8972C56.3109 37.9141 56.3229 37.931 56.3341 37.948C56.4814 38.1699 56.6205 38.3931 56.7529 38.6173C56.7684 38.6435 56.7836 38.6697 56.7989 38.6959C56.9317 38.9242 57.0581 39.1533 57.1755 39.3837C57.1767 39.3862 57.1779 39.3886 57.1791 39.3911C57.3005 39.6295 57.4131 39.869 57.5179 40.1093C57.521 40.1165 57.5244 40.1234 57.5274 40.1305C57.6289 40.3643 57.7216 40.5991 57.8074 40.8346C57.8156 40.857 57.8236 40.8794 57.8317 40.9019C57.9164 41.1387 57.9943 41.376 58.0633 41.6141C58.0641 41.6169 58.0648 41.6197 58.0656 41.6225C58.2372 42.2161 58.3598 42.8131 58.4332 43.4117C58.4338 43.4171 58.4343 43.4226 58.435 43.4279C58.4545 43.5888 58.4701 43.7497 58.4825 43.9108C58.4845 43.9378 58.4861 43.9649 58.4879 43.9919C58.4978 44.1331 58.505 44.2743 58.5093 44.4155C58.5104 44.4484 58.5112 44.4813 58.5119 44.5142C58.515 44.6536 58.5153 44.7931 58.5131 44.9325C58.5126 44.9622 58.5125 44.9919 58.5118 45.0216C58.5081 45.1757 58.5012 45.3296 58.491 45.4836C58.4902 45.4964 58.4898 45.5092 58.4889 45.5221C58.4647 45.8676 58.4245 46.2126 58.3677 46.5569C58.3668 46.5624 58.3657 46.5678 58.3648 46.5733C58.3383 46.7325 58.308 46.8915 58.2745 47.0504C58.2677 47.0825 58.2601 47.1147 58.253 47.1468C58.2237 47.2801 58.1921 47.4133 58.1579 47.5463C58.1476 47.5863 58.1369 47.6262 58.1261 47.6661C58.0918 47.7938 58.0551 47.9213 58.0162 48.0486C58.0042 48.0881 57.9923 48.1276 57.9798 48.1672C57.9371 48.3018 57.8916 48.4362 57.8438 48.5704C57.8333 48.5999 57.8235 48.6296 57.8127 48.6591C57.691 48.9927 57.5541 49.3248 57.4007 49.6548C57.3953 49.6664 57.3894 49.6779 57.384 49.6895C57.3147 49.8376 57.2421 49.9852 57.1664 50.1324C57.1459 50.1723 57.1242 50.2119 57.1033 50.2517C57.0404 50.3712 56.9757 50.4904 56.9086 50.6093C56.8816 50.657 56.854 50.7045 56.8264 50.7521C56.7612 50.8645 56.6942 50.9765 56.6252 51.0881C56.5953 51.1366 56.5653 51.1852 56.5346 51.2337C56.4622 51.348 56.3872 51.4619 56.3108 51.5755C56.2819 51.6185 56.2537 51.6617 56.2243 51.7046C56.1324 51.8383 56.0374 51.9714 55.94 52.104C55.9242 52.1255 55.9094 52.1472 55.8935 52.1687C55.8432 52.2365 55.7905 52.3038 55.7388 52.3712C55.8046 52.5205 55.8638 52.6706 55.9132 52.8209C55.9144 52.8245 55.9152 52.828 55.9164 52.8315C55.9509 52.9375 55.9801 53.0432 56.0054 53.1485C56.0121 53.1765 56.018 53.2041 56.024 53.2319C56.0423 53.316 56.0571 53.3994 56.0688 53.4823C56.0731 53.512 56.078 53.5418 56.0814 53.5713C56.0935 53.6786 56.1016 53.7848 56.1016 53.8886C56.1016 54.5547 55.8055 55.0729 55.4354 55.295L47.6643 59.7622C47.4742 59.9062 47.2393 59.981 46.9708 59.981C46.6713 59.981 46.3301 59.8878 45.9637 59.6938C44.7053 59.0276 43.817 57.3251 43.817 55.9186C43.817 55.2218 44.0537 54.7258 44.445 54.4917C44.4394 54.495 44.4331 54.4973 44.4274 54.5005L52.2059 49.8749C52.3674 49.7779 52.5713 49.7233 52.799 49.7233C53.0929 49.7233 53.4267 49.8143 53.7603 50.0229C53.8297 50.062 53.899 50.1056 53.968 50.1521C55.4629 48.502 56.3237 46.7227 56.3237 44.6656C56.3237 44.6327 56.3219 44.5998 56.3216 44.5669C56.3079 43.1664 56.0025 41.7667 55.4097 40.4008C55.4093 40.4001 55.4089 40.3993 55.4086 40.3985C55.3498 40.2629 55.288 40.1276 55.2235 39.9928C55.2223 39.9903 55.221 39.9878 55.2198 39.9852C55.156 39.8521 55.0895 39.7194 55.0202 39.5871C55.0178 39.5824 55.0151 39.5778 55.0127 39.5731C54.9443 39.4429 54.8734 39.3129 54.7996 39.1835C54.7961 39.1771 54.7922 39.1709 54.7886 39.1646C54.7156 39.0369 54.6403 38.9097 54.5622 38.7829C54.5565 38.7737 54.5504 38.7646 54.5448 38.7554C54.4681 38.6316 54.3893 38.5081 54.3077 38.3851C54.2995 38.3729 54.2908 38.3607 54.2826 38.3485C54.2025 38.2285 54.1206 38.109 54.0358 37.99C54.0254 37.9753 54.0142 37.9607 54.0036 37.946C53.9642 37.891 53.9228 37.8364 53.8823 37.7816C53.7183 37.9231 53.5453 38.0473 53.3624 38.1489L51.1696 39.4232L49.007 40.68C48.3446 41.2488 47.5085 41.5479 46.5549 41.5479C45.5518 41.5479 44.4187 41.2168 43.2213 40.5202C39.15 38.1514 35.8188 32.4514 35.8188 27.7139C35.8188 24.953 36.9263 23.175 38.6697 22.6387L42.8446 20.1009C42.9189 20.0621 42.9952 20.0262 43.0721 19.9917C43.0712 19.67 43.0703 19.3484 43.0694 19.0268C43.0666 18.0527 43.0638 17.0787 43.0611 16.1047C43.0561 14.3466 43.051 12.5636 43.046 10.8045C43.0291 10.4621 43.0122 10.14 42.9814 9.82855C42.9322 9.48301 42.8718 9.07778 42.7781 8.74362C42.7016 8.48638 42.5924 8.19016 42.4468 7.86401C42.3785 7.71287 42.3003 7.55396 42.2101 7.39707C42.1024 7.21066 41.8741 6.83634 41.2436 6.37117C40.9234 6.3448 40.5966 6.33157 40.2637 6.33157C37.6545 6.33157 34.6824 7.14517 31.7627 8.83142C23.676 13.4991 14.6742 25.6249 14.6671 33.1648L14.688 40.5599C17.7035 42.5922 20.2783 46.2026 21.4837 49.9248C21.9693 51.4246 22.2341 52.9424 22.2138 54.3825C22.2138 56.9733 21.3255 58.7499 19.845 59.6382L14.5411 62.585C14.7436 62.4713 14.9366 62.3378 15.1209 62.1884C14.4328 62.724 13.5878 63.0052 12.6338 63.0052C11.5442 63.0052 10.3126 62.6382 9.01152 61.8642C4.60593 59.2433 0.994766 53.0553 0.994766 47.9593C0.994766 45.349 1.94372 43.5245 3.46009 42.7055L8.22311 39.5776C8.30971 39.5299 8.39876 39.486 8.48934 39.4445C8.48653 38.4656 8.48372 37.4861 8.48106 36.5153C8.47708 34.9904 8.47183 33.4176 8.46797 31.8959C8.45514 30.5884 8.46088 29.1862 8.71604 27.9056C8.78011 27.5133 8.86371 27.0924 8.97028 26.6399L8.97645 26.6091C8.97839 26.602 8.98045 26.5941 8.98239 26.587C9.08302 26.1587 9.22432 25.6522 9.36161 25.1898C9.92204 23.3044 10.8603 21.1707 11.9467 19.2361C12.1904 18.8 12.4588 18.3436 12.7479 17.8734L12.7906 17.8008C12.8053 17.7781 12.8211 17.7535 12.8362 17.7301C13.1125 17.2844 13.4298 16.7997 13.7325 16.3503L13.7328 16.3498C16.0244 13.0251 18.113 10.7543 20.8207 8.34712C22.486 6.94635 22.9701 6.5211 25.0641 5.12184L25.0705 5.11746C25.0728 5.11607 25.0755 5.11431 25.0778 5.11291C25.5007 4.83833 25.9953 4.5298 26.5379 4.2141C26.5421 4.21174 26.5466 4.20821 26.551 4.20639C26.5666 4.19734 26.5815 4.18838 26.5972 4.17931C26.5973 4.17926 26.5974 4.17918 26.5975 4.17913C27.1005 3.90308 27.6964 3.54963 28.2186 3.31275C28.9733 2.93841 30.0551 2.4317 30.8879 2.15727C32.7871 1.44554 34.9391 0.994816 36.8884 0.994866ZM44.4274 54.5005L44.4253 54.5016C44.426 54.5012 44.4268 54.5008 44.4274 54.5005ZM14.5411 62.585C14.5324 62.5898 14.5238 62.5946 14.5151 62.5993L14.5411 62.585ZM36.8884 4.28798e-09C34.909 -4.9739e-05 32.6613 0.432692 30.5574 1.21874C29.6736 1.51215 28.5698 2.02841 27.7915 2.41412C27.3662 2.60824 26.9089 2.86504 26.5047 3.09194C26.3742 3.16521 26.2468 3.23677 26.1249 3.3037L26.1209 3.30586L26.1096 3.31208L26.1072 3.31347L26.0863 3.32213L26.0216 3.36357C25.5323 3.64859 25.0358 3.95429 24.5455 4.27245L24.5225 4.28633L24.5071 4.2975C22.4693 5.65927 21.9073 6.13228 20.4054 7.3964L20.1805 7.5857L20.1701 7.59446L20.1599 7.60351C17.2157 10.2209 15.1176 12.5893 12.9203 15.7759L12.9172 15.7802L12.9075 15.7945C12.5652 16.3027 12.2501 16.7878 11.9956 17.1982L11.9851 17.2145L11.9564 17.2589L11.9443 17.2775L11.9331 17.2965L11.8954 17.3607C11.6012 17.8393 11.3264 18.3069 11.0784 18.7508C9.92712 20.8008 8.97844 22.9875 8.40808 24.9063C8.29417 25.2899 8.13457 25.8489 8.01762 26.344L8.01046 26.3708L8.00111 26.4133L7.99815 26.4282C7.89311 26.8756 7.80532 27.3129 7.73707 27.7283C7.46918 29.0845 7.4598 30.5354 7.47326 31.9056L7.48007 34.3279L7.48629 36.5179L7.49293 38.867L2.94766 41.8519C1.07373 42.8869 0 45.1097 0 47.9593C0 53.3994 3.73495 59.8827 8.50299 62.7191C9.93174 63.569 11.3216 64 12.6339 64C13.4811 64 14.2791 63.812 14.9834 63.4508L14.9946 63.471L15.0243 63.4546L20.3282 60.5079L20.3427 60.4998L20.357 60.4913C22.1945 59.3887 23.2072 57.2217 23.2087 54.3891C23.229 52.8813 22.9671 51.2762 22.4302 49.6182C21.2024 45.8268 18.6426 42.2079 15.6815 40.0422L15.662 33.162C15.6652 29.8461 17.6086 25.2297 20.9941 20.5C24.2815 15.9073 28.4931 11.8673 32.2601 9.69298C34.9026 8.16683 37.745 7.32636 40.2638 7.32636C40.4673 7.32636 40.67 7.33184 40.8695 7.34268C41.1847 7.61085 41.296 7.80355 41.3486 7.89456C41.4123 8.00531 41.4752 8.12979 41.5402 8.27358C41.6579 8.53731 41.7534 8.78969 41.8223 9.01982C41.8948 9.28093 41.9467 9.6199 41.9934 9.94729C42.0196 10.218 42.0353 10.5082 42.0513 10.8305L42.0583 13.3157L42.0662 16.1075L42.069 17.0806L42.0745 19.0295L42.0756 19.4041L38.2526 21.728C36.0716 22.4642 34.824 24.637 34.824 27.7138C34.824 32.8007 38.2927 38.8036 42.721 41.3801C44.0471 42.1516 45.337 42.5428 46.5549 42.5428C47.7044 42.5428 48.7484 42.1816 49.5809 41.4971L51.6695 40.2834L53.6185 39.1507C53.6457 39.1936 53.6725 39.2365 53.699 39.2793L53.7166 39.3071C53.7875 39.4221 53.8573 39.5399 53.9248 39.6582L53.9291 39.6657L53.939 39.6824C54.0033 39.7953 54.0687 39.9153 54.1319 40.0357L54.1358 40.0431L54.1436 40.0573C54.2027 40.1704 54.2639 40.2926 54.3227 40.4152L54.3268 40.4238L54.3293 40.4288C54.3874 40.5504 54.443 40.6724 54.4961 40.7946L54.4988 40.8009L54.5016 40.8072C55.0352 42.0367 55.3144 43.3084 55.3268 44.5765L55.3282 44.6402L55.3288 44.6656C55.3288 46.1397 54.8029 47.5312 53.7247 48.9006C53.4199 48.787 53.107 48.7283 52.799 48.7283C52.3959 48.7283 52.0138 48.8297 51.6939 49.0218L43.929 53.6393L43.9184 53.6452L43.8957 53.6594L43.8966 53.6609C43.213 54.0904 42.8221 54.9102 42.8221 55.9185C42.8221 57.7643 43.9726 59.7653 45.4982 60.573C46.003 60.8402 46.4985 60.9757 46.9708 60.9757C47.4282 60.9757 47.8534 60.8456 48.2055 60.5985L55.9312 56.1574L55.9392 56.1528L55.9472 56.148C56.6561 55.7227 57.0965 54.8569 57.0965 53.8885C57.0965 53.758 57.0878 53.6177 57.0699 53.4596C57.0661 53.4264 57.0615 53.3941 57.0567 53.3618L57.0536 53.3412C57.0386 53.235 57.0192 53.1268 56.9963 53.0211L56.993 53.0056C56.9864 52.9754 56.9798 52.9453 56.9724 52.9149C56.941 52.7843 56.9067 52.6612 56.8678 52.5403L56.8666 52.536L56.8633 52.5256C56.9246 52.44 56.985 52.3542 57.0441 52.2681C57.0658 52.2365 57.0867 52.2052 57.1075 52.1739L57.1364 52.1307C57.2179 52.0094 57.2978 51.888 57.375 51.7661C57.4078 51.7143 57.4396 51.6627 57.4714 51.6112C57.5454 51.4914 57.6172 51.3715 57.687 51.2513C57.7178 51.1982 57.7467 51.1483 57.775 51.0983C57.8468 50.9711 57.9161 50.8433 57.9836 50.7152L58.005 50.6748C58.0206 50.6456 58.0361 50.6165 58.0511 50.5873C58.1325 50.429 58.2112 50.2688 58.285 50.1112L58.3029 50.074C58.4654 49.7243 58.6149 49.363 58.7473 49C58.7554 48.9778 58.7633 48.9553 58.771 48.9327L58.7809 48.9043C58.8327 48.7589 58.8819 48.6135 58.9281 48.4678L58.9594 48.3665L58.9678 48.339C59.0099 48.2013 59.0497 48.0629 59.0869 47.9245C59.0986 47.8809 59.1102 47.8375 59.1214 47.794C59.1585 47.65 59.1928 47.5053 59.2247 47.3604L59.2319 47.3284L59.2479 47.256C59.2851 47.0796 59.318 46.9058 59.3458 46.739L59.3496 46.7171C59.4106 46.3473 59.455 45.968 59.4814 45.5913L59.4837 45.5517C59.4947 45.3843 59.5023 45.2148 59.5064 45.0456L59.5075 44.978L59.5079 44.9487C59.5103 44.7958 59.5099 44.6424 59.5066 44.4923L59.5038 44.3847C59.499 44.2325 59.4912 44.0771 59.4804 43.9226L59.4786 43.8958L59.4744 43.8342C59.4606 43.6547 59.4431 43.4776 59.4226 43.3082L59.4208 43.2922C59.3414 42.6444 59.2078 41.9929 59.0236 41.3539L59.0226 41.3502L59.0181 41.3346C58.9475 41.0907 58.8632 40.8314 58.7683 40.5665L58.7421 40.4938C58.6463 40.231 58.5446 39.9755 58.44 39.7344L58.4362 39.7256L58.4275 39.7063C58.3169 39.4526 58.1956 39.1953 58.0692 38.9467L58.0645 38.9372C57.9414 38.6956 57.8096 38.4547 57.6588 38.1955L57.652 38.1839L57.6097 38.1116C57.4639 37.8648 57.3137 37.6247 57.1629 37.3976L57.1353 37.3569L57.1257 37.3428C56.9603 37.0959 56.7907 36.8558 56.6221 36.6303L56.6083 36.6115C56.4662 36.4217 56.3098 36.2226 56.1345 36.0088C56.4097 35.1754 56.549 34.2562 56.549 33.2709C56.549 33.0472 56.5402 32.803 56.5221 32.5245L56.5199 32.4886L56.5146 32.4074C56.4965 32.1637 56.4701 31.9127 56.4364 31.662L56.4294 31.6123L56.4261 31.5898C56.3523 31.0633 56.244 30.5236 56.1043 29.9862C55.9049 29.2194 55.6387 28.4424 55.313 27.6765L55.3122 27.6746L55.3075 27.6636C55.0952 27.1658 54.8585 26.6734 54.6016 26.1947L54.5941 26.1805L54.5807 26.1557C54.3253 25.6821 54.0462 25.2142 53.7516 24.7657L53.7298 24.7322C53.5871 24.5159 53.4367 24.2983 53.2823 24.0846L53.2515 24.0424L53.2352 24.0203C52.93 23.6017 52.6066 23.1957 52.2739 22.8134L52.1925 22.7204C52.0118 22.5157 51.8459 22.3353 51.6848 22.1682L51.6603 22.1435C51.5075 21.9857 51.3424 21.823 51.1581 21.6486L51.1288 21.6208L51.0624 21.5582C50.9742 21.4761 50.8857 21.3957 50.7975 21.3173L50.7736 12.8902C50.7708 11.062 50.4296 9.42934 49.7593 8.03687C49.4105 6.89497 48.7779 5.82633 47.7741 4.68169L47.7551 4.65995L47.7348 4.63936C46.999 3.89249 46.1292 3.20454 45.1498 2.59458L45.143 2.59041L45.1362 2.5863L45.0129 2.51228L44.8702 2.42653C44.8248 2.3985 44.7015 2.32542 44.169 2.01702L44.1493 2.0056L44.1393 1.99958L44.1328 1.99602L44.1125 1.98438L44.0667 1.95827C43.9922 1.91641 43.9125 1.87211 43.8339 1.82836L43.753 1.7834L43.7448 1.77882L43.7365 1.77442C43.429 1.61076 43.1511 1.47123 42.8867 1.34784C42.461 1.15178 42.0804 0.994418 41.6862 0.851232C41.6829 0.850013 41.6795 0.848794 41.6762 0.847601L41.651 0.838498L41.5626 0.806886L41.5549 0.804125L41.5437 0.80027L41.5253 0.794052L41.5233 0.793455C40.5601 0.470024 39.8713 0.278786 38.8096 0.138212C38.7004 0.123314 38.5764 0.108192 38.4577 0.0937661L38.2783 0.0716552L38.2506 0.0681234L38.2227 0.0662083L38.1016 0.0577271C37.714 0.0194496 37.3059 4.28798e-09 36.8884 4.28798e-09Z" fill="#374874"/>
</g>
<defs>
<clipPath id="clip0_405_16859">
<rect width="59.5094" height="64" fill="white"/>
</clipPath>
</defs>
</svg>
