<svg width="50" height="50" viewBox="0 0 50 50" xmlns="http://www.w3.org/2000/svg"><path d="M7.054 20.637c.977 0 1.77.783 1.77 1.75v6.977H1.77A1.76 1.76 0 0 1 0 27.614V25.66c0-.967.792-1.75 1.77-1.75h1.907v2.772c0 .276.226.5.505.5h.965V23.32c0-.277-.226-.5-.506-.5H.126v-2.182h6.928Zm8.387 6.545V17h3.677v12.364h-7.054a1.76 1.76 0 0 1-1.77-1.75v-5.227c0-.967.792-1.75 1.77-1.75h1.906v6.045c0 .276.227.5.506.5h.965Zm10.294 0v-6.545h3.677V31.25a1.76 1.76 0 0 1-1.77 1.75h-6.927v-2.545h5.02v-1.091h-3.377a1.76 1.76 0 0 1-1.77-1.75v-6.977h3.677v6.045c0 .276.226.5.505.5h.965Zm12.201-6.545c.977 0 1.77.783 1.77 1.75v1.954a1.76 1.76 0 0 1-1.77 1.75h-1.907V23.32c0-.277-.226-.5-.505-.5h-.965v3.863c0 .276.226.5.505.5h4.515v2.182h-6.927a1.76 1.76 0 0 1-1.77-1.75v-6.977h7.054Zm10.294 0c.978 0 1.77.783 1.77 1.75v6.977h-3.676v-6.046c0-.275-.228-.5-.506-.5h-.965v6.546h-3.677v-8.727h7.054Z" fill="#32AA52"/><path d="M43.105 4h.972V.818h1.108V0H42v.818h1.105V4Zm2.775 0h.858V1.453h.053L47.663 4h.555l.871-2.547h.056V4H50V0h-1.108l-.924 2.714h-.05L46.99 0h-1.11v4Z" fill="#D1D5DB"/></svg>
