<svg xmlns="http://www.w3.org/2000/svg" xmlns:xlink="http://www.w3.org/1999/xlink" width="70" height="70"><defs><path id="a" d="M4 0h61c4 0 5 1 5 5v60c0 4-1 5-5 5H4c-3 0-4-1-4-5V5c0-4 1-5 4-5z"/><linearGradient id="c" x1="100%" x2="0%" y1="0%" y2="100%"><stop offset="0%" stop-color="#7CC098"/><stop offset="100%" stop-color="#5F8A71"/></linearGradient><path id="d" d="M19.25 45h2.714v2.212c0 .188.152.343.339.343h26.394a.342.342 0 0 0 .339-.343V37.5H38.5V31h10.536v-3.212a.342.342 0 0 0-.339-.343H38.5v-2.742h10.536c1.5 0 2.714 1.228 2.714 2.742v20.11c0 1.514-1.213 2.742-2.714 2.742H21.964c-1.5 0-2.714-1.228-2.714-2.742V45zm-3.79 10.642h-1.037V55h2.833v.642h-1.037v2.832h-.76v-2.832zM17.422 55h1.07l.809 2.389h.01L20.075 55h1.07v3.474h-.711v-2.462h-.01l-.847 2.462h-.586l-.848-2.438h-.01v2.438h-.711V55zm13.58-34.853a4.263 4.263 0 0 1 4.281 4.28v17.004H18.281A4.263 4.263 0 0 1 14 37.151v-4.757a4.263 4.263 0 0 1 4.28-4.28h4.638v6.777c0 .595.476 1.19 1.19 1.19h2.377v-9.394c0-.595-.475-1.19-1.189-1.19h-10.94v-5.35h16.648z"/><path id="e" d="M19.25 43h2.714v2.212c0 .188.152.343.339.343h26.394a.342.342 0 0 0 .339-.343V35.5H38.5V29h10.536v-3.212a.342.342 0 0 0-.339-.343H38.5v-2.742h10.536c1.5 0 2.714 1.228 2.714 2.742v20.11c0 1.514-1.213 2.742-2.714 2.742H21.964c-1.5 0-2.714-1.228-2.714-2.742V43zm-3.79 10.642h-1.037V53h2.833v.642h-1.037v2.832h-.76v-2.832zM17.422 53h1.07l.809 2.389h.01L20.075 53h1.07v3.474h-.711v-2.462h-.01l-.847 2.462h-.586l-.848-2.438h-.01v2.438h-.711V53zm13.58-34.853a4.263 4.263 0 0 1 4.281 4.28v17.004H18.281A4.263 4.263 0 0 1 14 35.151v-4.757a4.263 4.263 0 0 1 4.28-4.28h4.638v6.777c0 .595.476 1.19 1.19 1.19h2.377v-9.394c0-.595-.475-1.19-1.189-1.19h-10.94v-5.35h16.648z"/></defs><g fill="none" fill-rule="evenodd"><mask id="b" fill="#fff"><use xlink:href="#a"/></mask><g mask="url(#b)"><path fill="url(#c)" d="M0 0H70V70H0z"/><path fill="#FFF" fill-opacity=".383" d="M4 1h61c2.667 0 4.333.667 5 2V0H0v3c.667-1.333 2-2 4-2z"/><path fill="#393939" d="M4 69c-2 0-4-1-4-4V33.916L14.423 18.5 35 25.5l3.5-2.797L48 23l3.576 1.968-.236 22.01L39.224 69H4z" opacity=".324"/><path fill="#000" fill-opacity=".383" d="M4 69h61c2.667 0 4.333-1 5-3v4H0v-4c.667 2 2 3 4 3z"/><use fill="#000" fill-rule="nonzero" opacity=".3" xlink:href="#d"/><use fill="#FFF" fill-rule="nonzero" xlink:href="#e"/></g></g></svg>