<svg xmlns="http://www.w3.org/2000/svg" viewBox="0 0 1400 570">
<style type="text/css">
	.st0{fill:none;stroke:#3AADAA;stroke-width:3;stroke-miterlimit:10;}
	.st1{fill:none;stroke:#3AADAA;stroke-miterlimit:10;}
</style>
<g>
	<polyline class="st0" points="0,570 700,285 1400.7,570 	"/>
	<polyline class="st1" points="1400,547.2 699.9,262.2 0,547.2 	"/>
	<polyline class="st1" points="1400,524.4 699.8,239.4 0,524.4 	"/>
	<polyline class="st1" points="1400,501.6 699.7,216.6 0,501.6 	"/>
	<polyline class="st1" points="1400,478.8 699.6,193.8 0,478.8 	"/>
	<polyline class="st1" points="1400,455.9 699.5,171 0,456 	"/>
	<polyline class="st1" points="1400,433.1 699.4,148.2 0,433.2 	"/>
	<polyline class="st1" points="1400,410.3 699.3,125.4 0,410.4 	"/>
	<polyline class="st1" points="1400,387.5 699.2,102.6 0,387.6 	"/>
	<polyline class="st1" points="1400,364.7 699.1,79.8 0,364.8 	"/>
	<polyline class="st1" points="1400,341.9 699,57 0,342 	"/>
	<polyline class="st1" points="1400,319.1 698.9,34.2 0,319.2 	"/>
	<polyline class="st1" points="1400,296.3 698.8,11.4 0,296.4 	"/>
	<line class="st1" x1="672.7" y1="0" x2="1.9" y2="273.6"/>
	<line class="st1" x1="1401.9" y1="273.5" x2="728.7" y2="0"/>
	<line class="st1" x1="616.7" y1="0" x2="1.9" y2="250.8"/>
	<line class="st1" x1="1401.9" y1="250.6" x2="784.8" y2="0"/>
	<line class="st1" x1="560.7" y1="0" x2="1.9" y2="228"/>
	<line class="st1" x1="1401.9" y1="227.8" x2="841.4" y2="0.2"/>
	<line class="st1" x1="504.8" y1="0" x2="1.9" y2="205.2"/>
	<line class="st1" x1="1401.9" y1="205" x2="896.9" y2="0"/>
	<line class="st1" x1="448.9" y1="0" x2="1.9" y2="182.4"/>
	<line class="st1" x1="1401.9" y1="182.2" x2="953.6" y2="0.2"/>
	<line class="st1" x1="392.9" y1="0" x2="1.9" y2="159.6"/>
	<line class="st1" x1="1401.9" y1="159.4" x2="1009.1" y2="0"/>
	<line class="st1" x1="337" y1="0" x2="1.9" y2="136.8"/>
	<line class="st1" x1="1401.9" y1="136.6" x2="1065.3" y2="0"/>
	<line class="st1" x1="281.1" y1="0" x2="1.9" y2="114"/>
	<line class="st1" x1="1401.9" y1="113.8" x2="1121.5" y2="0"/>
	<line class="st1" x1="225.2" y1="0" x2="1.9" y2="91.2"/>
	<line class="st1" x1="1401.9" y1="91" x2="1177" y2="-0.3"/>
	<line class="st1" x1="169.4" y1="0" x2="1.9" y2="68.4"/>
	<line class="st1" x1="1401.9" y1="68.2" x2="1233.2" y2="-0.3"/>
	<line class="st1" x1="113.5" y1="0" x2="1.9" y2="45.6"/>
	<line class="st1" x1="1401.9" y1="45.3" x2="1289.4" y2="-0.3"/>
	<line class="st1" x1="57.7" y1="0" x2="1.9" y2="22.8"/>
	<line class="st1" x1="1401.9" y1="22.5" x2="1346.9" y2="0.2"/>
</g>
</svg>
