<svg xmlns="http://www.w3.org/2000/svg" viewBox="0 0 1400 570">
<style type="text/css">
	.st0{opacity:0.14;}
	.st1{fill:#7C6576;}
	@media only screen and (max-width: 300px) {
		.st0{opacity:.7;}
	}
</style>
<g class="st0">
		<path class="st1" d="M1025.2,425.8c-12.3-40.9-35.6-78.6-69.2-112.2c-44.6-44.7-107.5-82.5-187.1-112.5
			c-73.3-27.6-158.4-47.9-253-60.3C343.4,118.2,150.6,124.1,0,156.5v2c150.4-32.4,343.3-38.2,515.6-15.7
			c94.5,12.4,179.4,32.6,252.6,60.1c79.3,29.9,142,67.6,186.3,112.1c33.4,33.4,56.5,70.8,68.8,111.4c11.3,37.4,12.6,102,3,143.6
			c0,0,1.3,0,2,0C1038.1,527.3,1036.7,464.1,1025.2,425.8z"/>
		<path class="st1" d="M1013.3,567.7c2.6-10.7,5.8-24.1,6.7-37.2c2.7-37-0.6-76.4-8.5-102.8c-1.8-6.1-3.9-12-6.3-18.2
			c-13.2-33.4-34.1-64.6-62-92.5c-44-44.1-106.1-81.5-184.5-111c-72.1-27.3-156.1-47.3-249.6-59.5C339.1,124.3,148.8,130.1,0,162v2
			c148.6-31.9,339-37.7,508.8-15.5c93.3,12.2,177.2,32.1,249.2,59.3c78.1,29.5,140,66.7,183.8,110.6c27.8,27.8,48.5,58.7,61.6,91.9
			c2.5,6.1,4.5,12,6.3,18c7.9,26.1,11.1,65.2,8.5,102c-0.9,13-4.1,26.3-6.7,36.9l-0.7,2.7c0.7,0,1.4,0,2,0L1013.3,567.7z"/>
		<path class="st1" d="M1000.2,564.5c2.4-10.2,5.2-21.7,6.1-33.4c2.7-36.5-0.6-75.4-8.4-101.5c-1.7-5.8-3.8-11.8-6.2-18
			c-13-32.9-33.6-63.7-61.2-91.3c-43.6-43.6-104.8-80.4-182-109.5c-71.1-26.8-154-46.5-246.3-58.7c-167.7-21.9-355.3-16.2-502,15.3
			v1.9c146.5-31.5,334.2-37.2,501.8-15.3c92.2,12.1,174.9,31.8,245.9,58.5c77,29,138,65.7,181.4,109.1c27.5,27.5,47.9,58,60.8,90.7
			c2.4,6.1,4.5,12.1,6.2,17.8c7.8,25.8,11,64.4,8.4,100.7c-0.8,11.5-3.6,23-6,33.1c-0.5,2-0.9,4.1-1.4,6c0,0,1.3,0,1.9,0
			C999.3,568.2,999.8,566.4,1000.2,564.5z"/>
		<path class="st1" d="M986.3,563.2c2.4-9.7,5.1-20.6,5.9-31.7c2.7-36-0.5-74.4-8.2-100c-1.9-6.4-3.9-12.2-6.1-17.8
			c-12.7-32.4-33-62.7-60.3-90.1c-42.8-42.9-103.2-79.3-179.4-108c-70.4-26.5-152.1-46-242.9-57.9c-165.5-21.7-350.6-16-495.2,15.1
			v1.9c144.5-31.1,329.6-36.7,495-15.1c90.6,11.9,172.2,31.3,242.5,57.7c76,28.7,136.1,64.9,178.8,107.6
			c27.1,27.2,47.3,57.3,59.9,89.5c2.2,5.5,4.2,11.2,6.1,17.6c7.7,25.5,10.8,63.5,8.2,99.4c-0.8,10.9-3.5,21.7-5.9,31.3
			c-0.6,2.4-1.2,5-1.7,7.2c0,0,1.3,0,1.9,0C985.2,567.8,985.8,565.6,986.3,563.2z"/>
		<path class="st1" d="M972.6,561.8c2.3-9.1,4.9-19.5,5.7-29.8c2.7-35.5-0.5-73.4-8.1-98.7c-1.8-6.2-3.8-12-6-17.5
			c-12.5-32-32.6-61.9-59.5-88.8c-42.2-42.3-101.7-78.1-176.9-106.5c-68.9-26-149.4-45.2-239.5-57.1
			C325.3,142.1,142.8,147.7,0,178.3v1.9c142.6-30.6,325.2-36.2,487.9-14.9c89.9,11.8,170.4,31,239.1,56.9
			c74.9,28.3,134.3,64,176.3,106.1c26.8,26.8,46.7,56.4,59.1,88.2c2.2,5.4,4.2,11.2,6,17.3c7.6,25.2,10.7,62.7,8.1,98.1
			c-0.8,10.1-3.3,20.4-5.6,29.5c-0.7,3-1.4,6-2.1,8.6c0,0,1.2,0,1.9,0C971.2,567.4,971.8,564.7,972.6,561.8z"/>
		<path class="st1" d="M958,569.2c2.5-10.5,5.7-23.7,6.7-36.6c2.7-35-0.4-72.3-7.9-97.3c-1.8-5.7-3.7-11.3-6-17.3
			c-12.5-31.6-32.2-61.1-58.7-87.6c-41.8-41.8-100.5-77.1-174.5-105c-68.1-25.7-147.6-44.6-236.1-56.3
			C320.6,148,140.7,153.5,0,183.7v1.9c140.6-30.2,320.5-35.7,481.1-14.7c88.4,11.6,167.7,30.5,235.7,56.1
			c73.8,27.8,132.3,63,173.9,104.6c26.3,26.3,45.9,55.6,58.3,87c2.3,5.9,4.2,11.5,6,17.1c7.5,24.8,10.5,61.8,7.9,96.7
			c-1,12.8-4.1,25.9-6.6,36.3l-0.3,1.2c0.6,0,1.3,0,1.9,0L958,569.2z"/>
		<path class="st1" d="M950.6,533.2c2.6-34.8-0.4-71.6-7.8-96c-2-6.5-3.9-11.9-5.9-17.1c-12.1-31-31.5-60-57.8-86.4
			c-41.2-41.2-99.1-76-172-103.5c-67.4-25.4-145.7-44.1-232.7-55.5C315.9,153.9,138.6,159.4,0,189.2v1.8
			c138.5-29.8,315.8-35.2,474.1-14.5c86.8,11.4,165,30,232.3,55.3c72.7,27.4,130.4,62.1,171.4,103.1c26.1,26.2,45.4,55.1,57.4,85.8
			c2,5.1,3.9,10.5,5.9,16.9c7.3,24.2,10.3,60.8,7.8,95.4c-1.1,12.5-3.1,25-6,37c0,0,1.2,0,1.8,0C947.5,558,949.5,545.7,950.6,533.2z
			"/>
		<path class="st1" d="M930.8,565c2.4-9.6,5.1-20.5,5.9-31.4c2.6-34.2-0.4-70.5-7.7-94.6c-1.9-6.2-3.8-11.6-5.8-16.8
			c-12.1-30.8-31.3-59.5-57-85.2c-40.6-40.6-97.6-74.9-169.5-102c-66.3-25.1-143.4-43.5-229.3-54.7c-156.1-20.4-330.8-15-467.3,14.3
			v1.8c136.4-29.3,311.1-34.6,467.1-14.3c85.7,11.2,162.8,29.5,228.9,54.5c71.7,27,128.5,61.2,168.9,101.6
			c25.6,25.6,44.6,54,56.6,84.6c2,5.1,3.9,10.5,5.8,16.6c7.3,24,10.2,60,7.7,94c-0.8,10.7-3.5,21.6-5.9,31.1
			c-0.5,1.8-0.9,3.8-1.3,5.5c0,0,1.2,0,1.8,0C929.9,568.4,930.3,566.7,930.8,565z"/>
		<path class="st1" d="M923,534.2c2.5-33.5-0.3-69.2-7.5-93.2c-1.7-5.6-3.6-11.2-5.7-16.6c-11.8-30.3-30.7-58.5-56.2-84
			c-40-40-96.2-73.8-167-100.5c-65.2-24.6-141.3-42.7-226-53.9C306.6,166,134.5,171.2,0,200.1v1.8c134.3-28.9,306.5-34.1,460.3-14.1
			c84.6,11.1,160.5,29.2,225.6,53.8c70.6,26.6,126.6,60.3,166.4,100.1c25.3,25.3,44.1,53.3,55.8,83.4c2.1,5.4,4,10.9,5.7,16.4
			c7.1,23.8,10,59.3,7.5,92.6c-1,12.3-3.7,25.1-6.3,36c0,0,1.2,0,1.8,0C919.3,559.1,922,546.5,923,534.2z"/>
		<path class="st1" d="M903.3,567.6c2.3-9.5,5.1-21.4,5.9-32.9c2.5-33-0.3-68.2-7.4-91.9c-1.5-5.3-3.4-10.6-5.6-16.3
			c-11.7-29.7-30.3-57.6-55.4-82.7c-39.3-39.3-94.7-72.7-164.5-99c-64.1-24.3-139-42.1-222.6-53C302,171.9,132.4,177,0,205.5v1.8
			c132.3-28.5,301.9-33.6,453.4-13.8c83.4,10.9,158.2,28.7,222.2,53c69.6,26.3,124.7,59.4,163.9,98.6c24.9,25,43.4,52.6,55,82.1
			c2.2,5.6,4.1,10.9,5.6,16.1c7.1,23.5,9.9,58.5,7.4,91.3c-0.8,11.4-3.6,23.2-5.9,32.6l-0.7,2.8c0.6,0,1.2,0,1.8,0L903.3,567.6z"/>
		<path class="st1" d="M889.8,565c2.2-9.2,4.6-19.5,5.4-29.9c2.4-32.7-0.4-67.3-7.3-90.5c-1.7-5.7-3.5-10.9-5.5-16.1
			c-11.5-29.4-29.8-56.8-54.5-81.5c-38.8-38.8-93.3-71.6-162-97.5c-63-23.8-136.7-41.4-219.2-52.2c-149-19.5-316-14.5-446.6,13.6
			v1.7c130.5-28,297.5-33.1,446.4-13.6c82.3,10.8,155.9,28.4,218.8,52.2c68.5,25.8,122.8,58.5,161.4,97.1
			c24.5,24.5,42.7,51.7,54.1,80.9c2,5.1,3.8,10.3,5.5,15.9c6.9,23,9.7,57.4,7.3,89.9c-0.7,10.2-3.2,20.5-5.4,29.6
			c-0.4,1.8-0.8,3.7-1.2,5.4c0,0,1.1,0,1.7,0C889,568.4,889.4,566.7,889.8,565z"/>
		<path class="st1" d="M882.5,536.2c2.5-32-0.2-66.1-7.1-89.2c-1.5-5.2-3.3-10.4-5.4-15.9c-11.4-29-29.5-56.1-53.7-80.3
			c-38-38.1-91.7-70.4-159.5-96c-62.3-23.5-134.9-40.8-215.8-51.4C293.7,184,128.8,189,0,216.7v1.7
			c128.7-27.7,293.5-32.7,440.7-13.4c80.8,10.6,153.3,27.9,215.4,51.4c67.6,25.5,121.1,57.7,158.9,95.6c24.1,24.1,42,50.9,53.3,79.7
			c2.1,5.5,3.9,10.6,5.4,15.7c6.9,22.9,9.6,56.8,7.1,88.6c-0.8,11.7-2.5,23.2-4.9,34c0,0,1.1,0,1.7,0
			C880,559.2,881.6,547.8,882.5,536.2z"/>
		<path class="st1" d="M868.6,536.7c2.4-31.7-0.3-65.3-7-87.8c-1.4-5-3.2-10.2-5.3-15.6c-11.2-28.5-28.9-55.1-52.9-79.1
			c-37.6-37.6-90.4-69.4-157-94.5c-61.2-23.2-132.6-40.2-212.4-50.6c-144.7-19-307-14.1-434,13.2v1.7
			c126.9-27.2,289.2-32.2,433.8-13.2c79.6,10.4,151,27.4,212,50.6c66.3,25,119,56.7,156.4,94.1c23.8,23.8,41.4,50.2,52.5,78.5
			c2.1,5.3,3.8,10.5,5.3,15.4c6.7,22.3,9.4,55.7,7,87.2c-0.8,11.4-2.4,22.7-4.8,33.5c0,0,1.1,0,1.7,0
			C866.2,559.2,867.8,548,868.6,536.7z"/>
		<path class="st1" d="M853.5,536.8c2.4-31.6-0.2-63.9-6.9-86.5c-1.4-5-3.2-10-5.3-15.4c-10.9-28-28.4-54.2-52-77.9
			c-37-37-89-68.3-154.5-93c-60.6-22.8-130.9-39.6-209-49.7c-142-18.6-301.2-13.8-425.8,13v1.7c124.4-26.7,283.7-31.6,425.6-13
			c78,10.2,148.2,26.9,208.6,49.7c65.3,24.6,117.1,55.8,153.9,92.6c23.4,23.5,40.8,49.6,51.6,77.3c2.1,5.3,3.9,10.3,5.3,15.2
			c6.5,22.1,9.2,55,6.9,85.9c-0.8,11.3-2.4,22.6-4.8,33.4c0,0,1.1,0,1.7,0C851.1,559.3,852.7,548.1,853.5,536.8z"/>
		<path class="st1" d="M839.8,537.2c2.4-30.4-0.2-63-6.7-85.1c-1.3-4.3-2.9-9-5.2-15.1c-10.7-27.6-27.9-53.4-51.2-76.7
			c-36.2-36.3-87.4-67.1-152-91.5C565.2,246.5,496,230,419,219.9c-139.8-18.3-296.5-13.6-419,12.8v1.6
			c122.4-26.3,279.1-31.1,418.8-12.8c76.8,10.1,145.9,26.5,205.3,48.9c64.4,24.3,115.4,55,151.4,91.1c23.1,23.1,40.2,48.7,50.8,76.1
			c2.3,6,3.9,10.6,5.2,14.9c6.5,21.9,9.1,54.3,6.7,84.5c-0.8,11.7-2.4,22.9-4.7,33h0c0.6,0,1.1,0,1.7,0
			C837.4,559.9,839,548.9,839.8,537.2z"/>
		<path class="st1" d="M825.8,538.1c2.4-30.5-0.1-61.9-6.6-83.8c-1.5-4.9-3.2-9.8-5.1-14.9c-10.7-27.3-27.7-52.7-50.4-75.4
			c-35.7-35.8-86-66-149.5-90c-58.4-22-126.5-38.2-202.3-48.1C274.4,208,120.4,212.7,0,238.5v1.6c120.3-25.8,274.3-30.5,411.7-12.6
			c75.7,9.9,143.6,26.1,201.9,48.1c63.3,23.9,113.4,54,148.9,89.6c22.6,22.6,39.4,47.7,50,74.8c2,5,3.6,9.9,5.1,14.7
			c6.5,21.7,8.9,52.9,6.6,83.2c-0.8,11.2-2.4,22.1-4.6,32.1h0c0.5,0,1.1,0,1.6,0C823.4,560,825,549.3,825.8,538.1z"/>
		<path class="st1" d="M812.1,538.8c2.3-29.5-0.2-61.1-6.5-82.4c-1.7-5.6-3.3-10.2-5-14.7c-10.4-26.6-27.1-51.6-49.6-74.2
			c-35-35.1-84.5-64.9-147-88.5c-57.3-21.7-124.2-37.6-198.9-47.4C269.8,214,118.4,218.6,0,244v1.6c118.2-25.4,269.7-30,404.9-12.4
			c74.6,9.8,141.3,25.7,198.5,47.4c62.3,23.5,111.5,53.1,146.4,88.1c22.3,22.4,38.9,47.2,49.2,73.6c1.7,4.4,3.3,9,5,14.5
			c6.3,21.1,8.8,52.5,6.5,81.8c-0.7,10.2-2.2,20.9-4.6,31.4h0c0.5,0,1.1,0,1.6,0C809.9,559.5,811.4,549,812.1,538.8z"/>
		<path class="st1" d="M798.1,539.2c2.3-29.1-0.1-60.1-6.3-81c-1.2-4.3-2.9-9-4.9-14.4c-10.3-26.4-26.7-50.9-48.7-73
			c-34.4-34.5-83-63.8-144.5-87c-56.3-21.3-122-36.9-195.5-46.5c-133-17.4-281.8-12.9-398.2,12.1v1.5c116.2-25,265.1-29.5,398-12.1
			c73.3,9.6,139,25.2,195.1,46.5c61.2,23.1,109.7,52.3,143.9,86.6c21.9,21.9,38.1,46.2,48.3,72.4c2,5.3,3.6,10,4.9,14.2
			c6.2,20.7,8.6,51.5,6.3,80.4c-0.7,10.5-2.2,21-4.5,31h0c0.5,0,1.1,0,1.6,0C795.9,560,797.4,549.7,798.1,539.2z"/>
		<path class="st1" d="M784.3,539.8c2.3-29.2-0.1-59-6.2-79.7c-1.4-4.8-3-9.6-4.8-14.2c-10-25.9-26.1-50-47.9-71.8
			c-33.9-34-81.6-62.7-142-85.5c-55.6-21-120.2-36.4-192.1-45.7C260.8,225.8,114.6,230.3,0,254.8v1.5
			c114.4-24.5,260.8-29,391.1-11.9c71.7,9.4,136.3,24.7,191.7,45.7c60.1,22.7,107.7,51.3,141.4,85.1c21.6,21.6,37.6,45.5,47.5,71.2
			c1.8,4.6,3.4,9.3,4.8,14c6.1,20.5,8.4,50.1,6.2,79.1c-0.7,10.3-2.2,20.6-4.5,30.4c0,0,1,0,1.5,0
			C782,560.2,783.5,550.1,784.3,539.8z"/>
		<path class="st1" d="M770.3,540.3c2.3-28.6,0-57.9-6.1-78.3c-1.7-5.6-3.2-9.9-4.7-13.9c-9.9-25.4-25.7-49.1-47.1-70.6
			c-33.2-33.3-80.2-61.6-139.5-84c-54.4-20.5-117.9-35.6-188.7-44.9C256.1,231.8,112.4,236.2,0,260.3v1.5
			c112.3-24.1,256-28.5,384.1-11.7c70.6,9.3,134,24.4,188.3,44.9c59.1,22.3,105.8,50.4,138.9,83.6c21.2,21.3,36.9,44.9,46.7,70
			c1.5,4,3,8.2,4.7,13.7c6,20.2,8.3,49.3,6.1,77.7c-0.7,9.9-2.2,20.1-4.4,29.9c0,0,1,0,1.5,0C768.2,560.2,769.7,550.2,770.3,540.3z"
			/>
		<path class="st1" d="M756.7,541c2.2-28,0-56.8-5.9-77c-1.2-4.1-2.7-8.4-4.7-13.7c-9.8-25.1-25.3-48.4-46.3-69.4
			c-32.8-32.8-78.9-60.6-137-82.5c-53.4-20.2-115.8-35-185.4-44.1C251.8,237.9,110.6,242.2,0,265.9v1.5
			c110.5-23.7,251.7-28,377.3-11.5c69.5,9.1,131.7,23.9,185,44.1c57.8,21.8,103.7,49.4,136.4,82.1c20.8,20.8,36.2,43.9,45.9,68.8
			c2,5.2,3.5,9.5,4.7,13.5c5.8,19.7,8.1,49,5.9,76.4c-0.7,9.3-2.1,19.2-4.3,29.2c0,0,1,0,1.5,0C754.6,560,756.1,550.2,756.7,541z"/>
		<path class="st1" d="M742.6,541.4c2.2-27.4,0.1-55.6-5.8-75.6c-1.6-5.2-3.1-9.5-4.6-13.4c-9.4-24.5-24.7-47.4-45.4-68
			c-32.1-32.2-77.3-59.4-134.5-81c-52.7-19.9-113.9-34.4-182-43.3C246.7,243.7,108.3,248,0,271.3v1.4
			c108.1-23.3,246.6-27.5,370.2-11.3c68,8.9,129.1,23.4,181.6,43.3c57,21.5,102,48.6,133.9,80.6c20.5,20.5,35.7,43.2,45,67.5
			c1.5,3.9,3,8.1,4.6,13.3c5.7,19.5,8,48.3,5.8,75c-0.7,9.7-2.1,19.5-4.2,28.8c0,0,1,0,1.4,0C740.5,560.7,741.9,551.1,742.6,541.4z"
			/>
		<path class="st1" d="M728.8,541.8c2.1-27,0-54.8-5.7-74.2c-1.3-4.5-2.9-9-4.5-13.2c-9.4-24.1-24.3-46.6-44.6-66.8
			c-31.6-31.6-76-58.3-132-79.5c-51.6-19.4-111.6-33.7-178.6-42.5c-121.1-15.9-257-11.8-363.5,11.1v1.4
			c106.3-22.8,242.3-27,363.3-11.1c66.8,8.8,126.8,23.1,178.2,42.5c55.8,21,100,47.7,131.4,79.1c20.1,20.1,35,42.4,44.2,66.4
			c1.6,4.2,3.2,8.5,4.5,13c5.7,19.2,7.8,46.8,5.7,73.6c-0.7,9.3-2.1,19-4.1,28.4c0,0,0.9,0,1.4,0
			C726.7,560.6,728.1,551.1,728.8,541.8z"/>
		<path class="st1" d="M714.9,542.4c2.2-26.3,0.2-53.6-5.5-72.9c-1.2-4.1-2.6-8.3-4.4-13c-9-23.5-23.8-45.6-43.8-65.6
			c-30.9-31-74.4-57.2-129.4-78c-50.4-19.1-109.3-33.1-175.2-41.7C237.3,255.6,104,259.7,0,282.1v1.4
			c103.9-22.4,237.3-26.4,356.4-10.9c65.7,8.6,124.5,22.6,174.8,41.7c54.8,20.7,98.2,46.8,129,77.6c19.8,19.9,34.5,41.9,43.4,65.2
			c1.8,4.6,3.2,8.8,4.4,12.8c5.6,19.1,7.7,46.2,5.5,72.4c-0.7,9.8-2.1,19.2-4.1,27.8c0,0,0.9,0,1.4,0
			C712.8,561.4,714.2,552.1,714.9,542.4z"/>
		<path class="st1" d="M701.2,542.9c2.1-26,0.1-52.7-5.4-71.5c-1.5-4.7-2.9-8.9-4.3-12.6c-9-23.3-23.5-45-43-64.4
			c-30.3-30.4-73-56.1-126.9-76.5c-49.7-18.8-107.5-32.5-171.8-40.9C233,261.7,102.3,265.7,0,287.6v1.4
			C102.2,267,232.9,263,349.6,278.3c64.2,8.4,121.9,22.1,171.4,40.9c53.8,20.3,96.3,45.9,126.5,76.1c19.3,19.3,33.7,40.9,42.6,64
			c1.4,3.7,2.8,7.9,4.3,12.5c5.5,18.6,7.5,45.1,5.4,71c-0.7,9.5-2.1,18.7-4,27.3c0,0,0.9,0,1.4,0
			C699.1,561.4,700.5,552.3,701.2,542.9z"/>
		<path class="st1" d="M687.1,543.5c2.1-25.7,0.2-51.9-5.2-70.1c-1.2-4.1-2.6-8.2-4.2-12.5c-8.7-22.8-22.9-44.1-42.1-63.2
			c-29.9-29.9-71.7-55.1-124.4-75c-48.2-18.3-104.8-31.8-168.4-40.1C228.3,267.6,100.2,271.5,0,293v1.3
			c100-21.5,228.2-25.4,342.6-10.5c63.4,8.3,120,21.8,168.1,40.1c52.5,19.8,94.2,44.9,124,74.6c19,19,33.1,40.2,41.7,62.8
			c1.6,4.2,3,8.2,4.2,12.3c5.4,18.1,7.3,44.1,5.2,69.7c-0.7,9.2-2.1,18.3-4,26.7c0,0,0.9,0,1.3,0C685,561.6,686.3,552.7,687.1,543.5
			z"/>
		<path class="st1" d="M673.4,544c2.1-24.7,0.2-50.4-5.1-68.7c-1.1-3.8-2.5-8-4.1-12.3c-8.6-22.3-22.5-43.2-41.2-62
			c-29.1-29.2-70.1-53.9-121.9-73.5c-47.5-18-103.1-31.2-165-39.3C223.6,273.5,98.1,277.3,0,298.4v1.3
			c98-21.1,223.6-24.9,335.7-10.3c61.9,8.1,117.3,21.3,164.8,39.3c51.6,19.5,92.5,44.1,121.5,73.1c18.6,18.7,32.4,39.5,41,61.6
			c1.6,4.3,3,8.3,4.1,12.2c5.3,18.1,7.2,43.7,5.1,68.3c-0.7,8.8-2,17.7-3.9,26.2c0,0,0.9,0,1.3,0C671.3,561.5,672.6,552.7,673.4,544
			z"/>
		<path class="st1" d="M659.4,544.5c2-24.5,0.1-49.7-5-67.4c-1.4-4.7-2.7-8.5-4-11.9c-8.4-21.9-22-42.3-40.4-60.7
			c-28.3-28.5-68.5-52.7-119.4-71.9c-46.8-17.7-101.2-30.6-161.6-38.5C219.3,279.5,96.4,283.2,0,303.8v1.3
			c96.3-20.7,219.3-24.4,328.7-10c60.4,7.9,114.6,20.8,161.4,38.5c50.8,19.2,90.8,43.3,119,71.7c18.3,18.3,31.8,38.6,40.2,60.3
			c1.3,3.5,2.6,7.2,4,11.8c5.1,17.6,7,42.6,5,67c-0.7,9.1-2,17.8-3.8,25.7c0,0,0.8,0,1.3,0C657.4,562.1,658.7,553.5,659.4,544.5z"/>
		<path class="st1" d="M645.6,545c2.1-23.4,0.2-48.7-4.8-66c-1.2-4-2.5-7.8-4-11.7c-8.4-21.5-21.7-41.6-39.6-59.5
			c-28.1-28.1-67.4-51.8-116.9-70.4c-45.6-17.2-98.8-29.8-158.2-37.6c-107.4-14.1-227.7-10.5-322,9.8v1.3
			c94.2-20.2,214.5-23.9,321.8-9.8c59.3,7.8,112.5,20.4,158,37.6c49.3,18.6,88.5,42.2,116.5,70.2c17.8,17.8,31.1,37.7,39.4,59.1
			c1.5,3.9,2.8,7.7,4,11.7c5,17.2,6.9,42.3,4.8,65.6c-0.7,9-2,17.5-3.8,25.2c0,0,0.8,0,1.3,0C643.6,562.4,644.9,553.9,645.6,545z"/>
		<path class="st1" d="M631.7,545.6c2-23.4,0.3-47.6-4.7-64.6c-1.2-3.9-2.4-7.7-3.9-11.5c-8-21-21-40.6-38.7-58.3
			c-27.1-27.3-65.6-50.5-114.4-68.9c-44.7-16.9-96.8-29.3-154.8-36.9C210,291.4,92.2,294.9,0,314.8v1.2
			c92.1-19.8,209.9-23.4,314.9-9.6c57.9,7.6,109.9,20,154.6,36.9c48.6,18.3,87,41.4,114,68.7c17.6,17.6,30.5,37.1,38.5,57.9
			c1.5,3.8,2.7,7.6,3.9,11.4c4.9,16.9,6.7,40.9,4.7,64.2c-0.7,8.6-2,16.9-3.7,24.6c0,0,0.8,0,1.2,0
			C629.7,562.4,631,554.1,631.7,545.6z"/>
		<path class="st1" d="M617.9,546c1.9-23.2,0.2-46.9-4.6-63.3c-1-3.4-2.2-6.9-3.8-11.2c-7.9-20.5-20.7-39.7-37.9-57.1
			c-26.8-26.8-64.4-49.5-111.9-67.3c-44-16.6-94.9-28.8-151.4-36.1c-102.6-13.5-217.8-10-308.2,9.4v1.2
			c90.3-19.4,205.5-22.9,308-9.4c56.4,7.4,107.3,19.5,151.2,36.1c47.3,17.8,84.8,40.4,111.5,67.1c17.1,17.2,29.8,36.3,37.7,56.7
			c1.6,4.3,2.8,7.8,3.8,11.2c4.8,16.3,6.5,39.8,4.6,62.9c-0.6,8.2-1.8,16.4-3.6,24.1c0,0,0.8,0,1.2,0
			C616.1,562.2,617.3,554.1,617.9,546z"/>
		<path class="st1" d="M604,546.4c2-22.4,0.4-45.6-4.4-61.9c-1.3-4.3-2.5-7.8-3.7-11c-7.7-20.2-20.2-39-37.1-55.9
			c-26.2-26.2-63-48.3-109.4-65.8c-42.6-16.1-92.4-27.9-148-35.2C200.6,303.3,88,306.7,0,325.6v1.2c87.9-18.9,200.5-22.3,301.1-9.2
			c55.5,7.3,105.3,19.1,147.8,35.2c46.3,17.4,82.9,39.5,109,65.6c16.8,16.8,29.2,35.5,36.9,55.5c1.2,3.2,2.4,6.7,3.7,11
			c4.7,16.2,6.4,39.2,4.4,61.5c-0.6,8.1-1.8,16.2-3.6,23.7c0,0,0.8,0,1.2,0C602.2,562.4,603.4,554.5,604,546.4z"/>
		<path class="st1" d="M590.3,546.8c1.9-21.9,0.3-44.6-4.3-60.6c-1.2-3.8-2.4-7.4-3.6-10.7c-7.7-19.8-19.9-38.2-36.3-54.7
			c-25.6-25.6-61.5-47.2-106.9-64.3c-42-15.8-90.7-27.3-144.7-34.4c-98.5-12.9-208.5-9.5-294.4,9v1.2c85.7-18.5,195.8-21.8,294.2-9
			c54,7.1,102.6,18.6,144.5,34.4c45.2,17.1,81.1,38.6,106.5,64.1c16.3,16.3,28.5,34.6,36.1,54.3c1.2,3.3,2.4,6.9,3.6,10.7
			c4.6,15.9,6.2,38.4,4.3,60.2c-0.6,7.7-1.8,15.8-3.5,23.2c0,0,0.8,0,1.2,0C588.5,562.6,589.7,554.6,590.3,546.8z"/>
		<path class="st1" d="M576.3,547.4c1.8-21.6,0.2-43.7-4.2-59.2c-0.9-3.3-2.1-6.8-3.5-10.5c-7.3-19.2-19.2-37.2-35.4-53.4
			c-25-25-60.1-46.1-104.4-62.8c-40.8-15.4-88.4-26.7-141.3-33.6c-95.9-12.5-203.3-9.2-287.4,8.8v1.1c84-18,191.4-21.3,287.2-8.8
			c52.9,6.9,100.3,18.2,141.1,33.6c44.1,16.6,79.1,37.7,104,62.6c16.1,16.1,27.9,33.9,35.2,53c1.4,3.7,2.6,7.2,3.5,10.5
			c4.4,15.3,6,37.3,4.2,58.8c-0.6,7.2-1.7,14.9-3.4,22.6c0,0,0.7,0,1.1,0C574.5,562.3,575.7,554.7,576.3,547.4z"/>
		<path class="st1" d="M562.3,548c1.9-20.9,0.4-42.5-4-57.9c-1.1-3.8-2.2-7.2-3.4-10.2c-7.2-18.9-18.9-36.5-34.6-52.2
			c-24.4-24.4-58.7-45-101.9-61.3c-39.7-15-86.1-26-137.9-32.8C186.8,321.2,82,324.4,0,342v1.1c81.9-17.6,186.8-20.8,280.3-8.6
			c51.7,6.8,98,17.8,137.7,32.8c43.1,16.3,77.2,36.8,101.5,61.1c15.6,15.6,27.2,33.1,34.4,51.8c1.2,3,2.3,6.4,3.4,10.2
			c4.4,15.3,5.9,36.8,4,57.5c-0.6,7.8-1.8,15.3-3.4,22.1c0,0,0.7,0,1.1,0C560.6,563.1,561.7,555.7,562.3,548z"/>
		<path class="st1" d="M548.5,548.4c1.8-20.6,0.3-41.7-3.9-56.5c-0.9-3.3-2-6.6-3.3-10.1c-7-18.4-18.4-35.5-33.8-51
			c-23.8-23.8-57.2-43.9-99.4-59.8c-39-14.7-84.2-25.4-134.5-32c-91.4-11.9-193.7-8.8-273.6,8.4v1.1c79.8-17.2,182.1-20.3,273.4-8.4
			c50.2,6.6,95.4,17.3,134.3,32c42,15.9,75.4,35.9,99,59.6c15.3,15.3,26.6,32.4,33.6,50.6c1.3,3.4,2.4,6.6,3.3,10
			c4.2,14.7,5.7,35.6,3.9,56.1c-0.6,7.3-1.7,14.9-3.3,21.6c0,0,0.7,0,1.1,0C546.8,563.2,547.9,555.8,548.5,548.4z"/>
		<path class="st1" d="M534.7,549.2c1.8-20.1,0.4-40.7-3.8-55.2c-1.1-3.5-2.2-6.8-3.3-9.8c-6.9-18-17.9-34.8-32.9-49.8
			c-23.2-23.2-55.8-42.8-96.9-58.3c-37.8-14.3-82-24.8-131.1-31.2C177.9,333.2,78.2,336.2,0,353v1c78.1-16.8,177.8-19.8,266.5-8.1
			c49.1,6.4,93.1,16.9,130.9,31.2c40.9,15.4,73.4,35,96.5,58.1c14.9,14.9,25.9,31.5,32.7,49.4c1.1,3,2.2,6.3,3.3,9.8
			c4.2,14.4,5.6,34.9,3.8,54.8c-0.6,7-1.7,14.1-3.3,20.8c0,0,0.7,0,1,0C533,563.3,534.1,556.3,534.7,549.2z"/>
		<path class="st1" d="M520.8,549.5c1.8-19.6,0.5-39.7-3.6-53.8c-1-3.2-2-6.4-3.2-9.5c-6.6-17.4-17.4-33.7-32.1-48.6
			c-22.6-22.6-54.3-41.7-94.4-56.8c-36.7-13.9-79.7-24.1-127.7-30.4C173.2,339,76.1,341.9,0,358.3v1c76-16.4,173.1-19.3,259.6-7.9
			c47.9,6.3,90.8,16.5,127.5,30.4c39.9,15.1,71.5,34.1,94,56.6c14.7,14.8,25.4,31,31.9,48.2c1.2,3.1,2.2,6.3,3.2,9.5
			c4,14,5.4,34,3.6,53.4c-0.6,6.7-1.7,13.9-3.2,20.5c0,0,0.7,0,1,0C519.1,563.3,520.2,556.2,520.8,549.5z"/>
		<path class="st1" d="M507,550c1.7-19,0.4-38.6-3.5-52.4c-0.9-3.1-2-6.3-3.1-9.3c-6.4-17-16.9-32.9-31.3-47.3
			c-22-22-52.9-40.6-91.9-55.3c-36-13.6-77.8-23.5-124.3-29.6C168.2,345,73.7,347.9,0,363.8v1c73.6-15.9,168.2-18.8,252.7-7.7
			c46.4,6.1,88.2,16,124.1,29.6c38.8,14.6,69.6,33.2,91.5,55.1c14.3,14.3,24.7,30.1,31.1,46.9c1.1,3,2.2,6.2,3.1,9.3
			c3.9,13.7,5.2,33.2,3.5,52c-0.6,6.6-1.7,13.4-3.2,20c0,0,0.7,0,1,0C505.3,563.4,506.4,556.7,507,550z"/>
		<path class="st1" d="M493.2,550.5c1.7-18.4,0.4-37.5-3.4-51.1c-0.9-3-1.9-6-3-9c-6.4-16.7-16.6-32.2-30.5-46.1
			c-21.4-21.4-51.5-39.5-89.4-53.8c-35-13.2-75.7-22.9-121-28.8c-82-10.7-173.9-7.9-245.9,7.5v1c71.8-15.4,163.8-18.2,245.7-7.5
			c45.3,5.9,85.9,15.6,120.8,28.8c37.8,14.2,67.7,32.3,89,53.6c13.8,13.8,24,29.2,30.3,45.7c1.1,3,2.1,6,3,9
			c3.8,13.5,5.1,32.5,3.4,50.7c-0.6,6.8-1.7,13.5-3.1,19.5c0,0,0.6,0,1,0C491.5,563.9,492.5,557.4,493.2,550.5z"/>
		<path class="st1" d="M479.3,551c1.7-18,0.5-36.6-3.2-49.7c-0.7-2.7-1.6-5.5-2.9-8.8c-6.3-16.4-16.3-31.5-29.7-44.9
			c-20.8-20.8-50.1-38.4-86.9-52.3c-33.8-12.8-73.4-22.2-117.6-28c-79.8-10.4-169.1-7.7-239,7.3v0.9c69.8-15,159.1-17.7,238.8-7.3
			c44.1,5.8,83.6,15.2,117.4,28c36.7,13.8,65.8,31.3,86.5,52.1c13.3,13.3,23.2,28.3,29.5,44.5c1.3,3.3,2.2,6.1,2.9,8.8
			c3.7,13,4.9,31.5,3.2,49.3c-0.6,6.5-1.6,13-3,19c0,0,0.6,0,0.9,0C477.6,564,478.6,557.6,479.3,551z"/>
		<path class="st1" d="M465.4,551.7c1.7-17.4,0.5-35.5-3.1-48.4c-0.9-3.4-1.8-6.1-2.8-8.6c-5.9-15.8-15.6-30.5-28.8-43.7
			c-20.2-20.2-48.6-37.3-84.4-50.8c-33.1-12.5-71.5-21.6-114.2-27.2c-77.6-10.2-164.3-7.5-232.1,7.1v0.9
			c67.7-14.6,154.5-17.2,231.9-7.1c42.6,5.6,80.9,14.7,114,27.2c35.6,13.4,63.9,30.5,84,50.6c13.1,13.1,22.7,27.7,28.6,43.3
			c1,2.5,1.9,5.2,2.8,8.6c3.6,12.7,4.8,30.7,3.1,48c-0.6,6-1.6,12.2-2.9,18.3c0,0,0.6,0,0.9,0C463.8,563.8,464.8,557.7,465.4,551.7z
			"/>
		<path class="st1" d="M451.5,552.1c1.7-17,0.6-34.5-2.9-47c-0.8-2.9-1.8-5.7-2.7-8.3c-5.9-15.4-15.3-29.7-28-42.5
			c-19.7-19.6-47.3-36.2-82-49.3c-32-12.1-69.3-21-110.8-26.4c-75.1-9.8-159.3-7.3-225.2,6.9v0.9c65.8-14.1,150-16.7,225-6.9
			c41.5,5.4,78.7,14.3,110.6,26.4c34.5,13,62,29.6,81.6,49.1c12.6,12.6,22,26.8,27.8,42.1c0.9,2.6,1.9,5.3,2.7,8.3
			c3.5,12.3,4.6,29.8,2.9,46.6c-0.7,6.7-1.6,12.7-2.9,17.9c0,0,0.6,0,0.9,0C449.9,564.7,450.9,558.9,451.5,552.1z"/>
		<path class="st1" d="M437.7,552.6c1.7-16.4,0.6-33.4-2.8-45.6c-0.6-2.4-1.5-5.1-2.6-8.1c-5.6-14.8-14.7-28.7-27.2-41.3
			c-19.1-19.1-45.8-35.1-79.4-47.8c-30.9-11.7-67.1-20.3-107.5-25.6c-72.8-9.5-154.4-7-218.3,6.7v0.9
			c63.7-13.7,145.4-16.2,218.1-6.7c40.3,5.3,76.4,13.9,107.3,25.6c33.5,12.6,60.1,28.6,79,47.6c12.4,12.5,21.5,26.3,27,40.9
			c1.1,3,2,5.6,2.6,8.1c3.4,12.1,4.5,29,2.8,45.2c-0.6,6.2-1.6,12.1-2.8,17.4c0,0,0.6,0,0.9,0C436.1,564.7,437.1,558.8,437.7,552.6z
			"/>
		<path class="st1" d="M423.9,553.1c1.6-16,0.6-32.6-2.7-44.3c-0.7-2.5-1.6-5.2-2.6-7.9c-5.3-14.2-14.1-27.7-26.3-40
			c-18.6-18.5-44.4-34-76.9-46.3c-30-11.4-65-19.7-104.1-24.8c-70.6-9.2-149.5-6.8-211.3,6.5v0.8c61.6-13.3,140.6-15.7,211.1-6.5
			c39,5.1,74,13.4,103.9,24.8c32.4,12.2,58.2,27.7,76.7,46.1c12.1,12.2,20.9,25.5,26.1,39.7c1,2.7,1.8,5.4,2.6,7.9
			c3.3,11.6,4.3,28,2.7,43.9c-0.7,6.1-1.6,11.9-2.8,16.9c0,0,0.5,0,0.8,0C422.3,564.9,423.3,559.3,423.9,553.1z"/>
		<path class="st1" d="M409.9,553.6c1.6-15.4,0.6-31.4-2.5-42.8c-0.7-2.6-1.6-5.2-2.5-7.6c-5.3-14-13.8-27.1-25.5-38.7
			c-17.8-17.8-42.8-32.9-74.3-44.8c-29.3-11.1-63.1-19.1-100.7-24C136.4,386.7,60,389,0,401.9v0.8c59.9-12.9,136.3-15.2,204.2-6.3
			c37.5,4.9,71.3,12.9,100.5,24c31.4,11.9,56.3,26.9,74.1,44.6c11.6,11.6,20.1,24.5,25.3,38.5c0.9,2.5,1.8,5,2.5,7.6
			c3.1,11.4,4.1,27.3,2.5,42.6c-0.5,5.6-1.5,11.4-2.7,16.4c0,0,0.5,0,0.8,0C408.4,564.9,409.4,559.3,409.9,553.6z"/>
		<path class="st1" d="M396.1,554.2c1.6-14.9,0.7-30.4-2.4-41.5c-0.7-2.6-1.5-5.1-2.4-7.4c-5-13.5-13.3-26.2-24.7-37.5
			c-17.2-17.2-41.4-31.8-71.9-43.3c-28.2-10.6-61-18.3-97.3-23.1c-66-8.6-139.8-6.4-197.4,6v0.8c57.5-12.4,131.3-14.6,197.2-6
			c36.3,4.8,68.9,12.5,97.1,23.1c30.4,11.5,54.5,26,71.7,43.1c11.3,11.3,19.5,23.8,24.5,37.3c0.9,2.3,1.7,4.8,2.4,7.4
			c3.1,11.1,3.9,26.5,2.4,41.3c-0.5,5.2-1.4,10.7-2.6,15.8c0,0,0.5,0,0.8,0C394.7,564.9,395.6,559.4,396.1,554.2z"/>
		<path class="st1" d="M382.3,554.6c1.5-14.7,0.7-29.3-2.3-40.1c-0.8-2.6-1.5-4.8-2.3-7.1c-5.2-13.7-13.5-26.2-23.9-36.3
			c-16.5-16.5-39.9-30.6-69.3-41.8c-27.1-10.2-58.7-17.7-93.9-22.3C127,398.6,55.8,400.8,0,412.7v0.8c55.7-11.9,127-14.1,190.5-5.8
			c35.1,4.6,66.6,12.1,93.7,22.3c29.4,11.1,52.6,25.2,69.1,41.6c10.3,10,18.5,22.5,23.7,36.1c0.9,2.3,1.5,4.5,2.3,7.1
			c2.9,10.6,3.8,25.5,2.3,39.9c-0.5,4.8-1.3,10.1-2.5,15.4c0,0,0.5,0,0.8,0C380.9,564.7,381.8,559.4,382.3,554.6z"/>
		<path class="st1" d="M368.3,555.2c1.6-14.1,0.8-28.2-2.1-38.8c-0.6-2.3-1.4-4.6-2.2-6.9c-4.6-12.6-12.3-24.5-23-35.1
			c-16-16-38.6-29.6-66.9-40.3c-26.4-9.9-56.8-17.2-90.5-21.5c-62.1-8.1-129-6.1-183.5,5.6v0.7c54.4-11.7,121.4-13.7,183.5-5.6
			c33.6,4.4,64,11.6,90.3,21.5c28.3,10.7,50.7,24.1,66.7,40.1c10.6,10.6,18.3,22.3,22.8,34.9c0.8,2.2,1.6,4.6,2.2,6.8
			c2.9,10.5,3.7,24.6,2.1,38.6c-0.5,5.4-1.4,10.4-2.5,14.8c0,0,0.5,0,0.7,0C366.9,565.6,367.7,560.6,368.3,555.2z"/>
		<path class="st1" d="M354.6,555.9c1.5-13.7,0.8-27.3-2-37.4c-0.6-2.2-1.3-4.4-2.1-6.7c-4.8-12.7-12.5-24.4-22.2-33.9
			c-15.4-15.4-37.1-28.5-64.4-38.8c-25-9.4-54.3-16.4-87.2-20.7c-59.9-7.9-124.3-5.9-176.7,5.4v0.7c52.4-11.3,116.8-13.2,176.7-5.4
			c32.8,4.3,62.1,11.3,87,20.7c27.2,10.3,48.8,23.3,64.2,38.6c9.6,9.5,17.3,21.1,22,33.7c0.8,2.3,1.5,4.5,2.1,6.7
			c2.7,10,3.5,23.6,2,37.2c-0.5,4.8-1.3,9.7-2.4,14.1c0,0,0.5,0,0.7,0C353.3,565.5,354.1,560.8,354.6,555.9z"/>
		<path class="st1" d="M340.6,556.3c1.5-13.1,0.8-26.3-1.9-36.1c-0.6-2.1-1.2-4.2-2-6.4c-4.6-12.2-11.8-23.2-21.4-32.6
			c-14.8-14.8-35.6-27.3-61.9-37.3c-24.3-9.1-52.5-15.8-83.8-19.9c-57.2-7.5-119.1-5.6-169.6,5.2v0.7
			c50.5-10.8,112.4-12.7,169.6-5.2c31.3,4.1,59.4,10.8,83.6,19.9c26.2,9.9,46.9,22.4,61.7,37.1c9.5,9.3,16.7,20.2,21.2,32.4
			c0.8,2.2,1.4,4.3,2,6.4c2.7,9.7,3.4,22.8,1.9,35.9c-0.6,5.4-1.4,10-2.3,13.7c0,0,0.4,0,0.7,0C339.3,566.2,340,561.8,340.6,556.3z"
			/>
		<path class="st1" d="M326.6,556.8c1.4-12.3,0.8-25.2-1.7-34.7c-0.5-1.8-1.2-3.8-2-6.2c-4.4-11.7-11.5-22.6-20.5-31.4
			c-14.2-14.2-34.2-26.3-59.4-35.8c-23.5-8.8-50.6-15.3-80.4-19.1c-54.9-7.2-114.2-5.4-162.6,5v0.6c48.4-10.4,107.7-12.2,162.6-5
			c29.7,3.9,56.7,10.3,80.2,19.1c25.1,9.5,45,21.4,59.2,35.6c9,8.8,16,19.5,20.3,31.2c0.8,2.4,1.5,4.4,2,6.2
			c2.5,9.4,3.1,22.3,1.7,34.5c-0.5,4.3-1.3,8.8-2.3,13.2c0,0,0.4,0,0.6,0C325.4,565.6,326.1,561.1,326.6,556.8z"/>
		<path class="st1" d="M312.9,557.2c1.4-12.1,0.8-24.2-1.6-33.3c-0.7-2.3-1.3-4.1-1.9-5.9c-4.2-11.4-11-21.8-19.7-30.2
			c-13.6-13.6-32.8-25.2-56.9-34.3c-22-8.3-47.9-14.5-77-18.3C103.1,428.3,46.3,430,0,440v0.6c46.2-10,103.1-11.7,155.8-4.8
			c29,3.8,54.9,10,76.8,18.3c24.1,9.1,43.1,20.6,56.7,34.1c8.6,8.3,15.4,18.7,19.5,30c0.6,1.8,1.2,3.6,1.9,5.9
			c2.4,9,3,21.1,1.6,33.1c-0.6,4.9-1.3,9.3-2.2,12.8c0,0,0.4,0,0.6,0C311.6,566.4,312.3,562.1,312.9,557.2z"/>
		<path class="st1" d="M299,557.9c1.4-11.5,0.8-23.2-1.5-32c-0.5-1.9-1.1-3.8-1.8-5.7c-4-10.8-10.5-20.8-18.9-29
			c-13.1-13.1-31.4-24.1-54.4-32.8c-21.3-8-46-13.9-73.6-17.5C98.4,434.4,44.2,436,0,445.5v0.6c44.1-9.4,98.4-11.1,148.8-4.6
			c27.5,3.6,52.2,9.5,73.4,17.5c23,8.6,41.2,19.6,54.2,32.6c8.3,8.1,14.8,18.1,18.7,28.8c0.7,1.9,1.3,3.8,1.8,5.7
			c2.3,8.7,2.8,20.3,1.5,31.8c-0.5,4.4-1.3,8.5-2.2,12.1c0,0,0.4,0,0.6,0C297.7,566.4,298.5,562.3,299,557.9z"/>
		<path class="st1" d="M285.2,558.4c1.4-11,0.9-22.2-1.3-30.6c-0.5-1.9-1.1-3.7-1.7-5.5c-3.9-10.6-10-20-18.1-27.8
			c-12.4-12.5-29.9-23-51.9-31.3c-20.5-7.7-44.1-13.4-70.2-16.7c-48.2-6.2-100-4.6-142,4.4v0.6c42-9,93.8-10.6,142-4.4
			c26,3.4,49.5,9,70,16.7c21.9,8.3,39.3,18.7,51.7,31.1c8,7.8,14,17.1,17.9,27.6c0.6,1.8,1.2,3.6,1.7,5.5c2.2,8.3,2.7,19.4,1.3,30.4
			c-0.5,3.9-1.2,7.9-2.1,11.6c0,0,0.4,0,0.6,0C284,566.3,284.7,562.4,285.2,558.4z"/>
		<path class="st1" d="M271.4,559c1.4-10.5,0.9-21.2-1.2-29.3l-0.3-0.9c-0.4-1.4-0.8-2.9-1.3-4.3c-3.7-10-9.7-19.2-17.3-26.6
			c-11.8-11.8-28.5-21.8-49.4-29.8c-19.1-7.2-41.6-12.6-66.9-15.9c-45.8-6-95-4.5-135,4.1v0.5c40-8.6,89.2-10.1,135-4.1
			c25.2,3.3,47.7,8.7,66.7,15.9c20.9,7.9,37.4,17.9,49.2,29.6c7.5,7.3,13.5,16.5,17.1,26.4c0.5,1.4,0.9,2.8,1.3,4.2l0.3,0.9
			c2.1,8,2.5,18.6,1.2,29.1c-0.4,3-1,7.1-2,11c0,0,0.4,0,0.5,0C270.4,566,271,562.1,271.4,559z"/>
		<path class="st1" d="M257.5,559.4c1.3-9.8,1-20-1-27.9c-0.4-1.8-0.9-3.5-1.5-5c-3.6-9.7-9.1-18.2-16.4-25.3
			c-11.3-11.3-27-20.8-46.9-28.3c-18.4-6.9-39.8-12-63.5-15.1c-43.3-5.7-90-4.3-128.2,3.9v0.5c38.1-8.2,84.9-9.6,128.2-3.9
			c23.7,3.1,45,8.2,63.3,15.1c19.8,7.5,35.5,16.9,46.7,28.1c7.2,7,12.7,15.5,16.2,25.1c0.6,1.5,1.1,3.2,1.5,5c2,7.8,2.3,17.9,1,27.7
			c-0.5,3.3-1.1,7.1-2,10.6c0,0,0.3,0,0.5,0C256.4,566.5,257,562.7,257.5,559.4z"/>
		<path class="st1" d="M243.4,559.9c1.3-9.7,0.9-19.1-0.9-26.6c-0.4-1.6-0.8-3.2-1.4-4.7c-3.3-9.1-8.7-17.4-15.6-24.1
			c-10.7-10.6-25.6-19.6-44.4-26.7c-17.7-6.6-37.9-11.5-60.1-14.3c-40.9-5.4-85.1-4.1-121.1,3.7v0.5c36-7.7,80.2-9.1,121.1-3.7
			c22.1,2.9,42.3,7.7,59.9,14.3c18.7,7.1,33.6,16,44.2,26.5c6.8,6.6,12.2,14.9,15.4,23.9c0.6,1.5,1,3.1,1.4,4.7
			c1.8,7.4,2.1,16.8,0.9,26.4c-0.4,2.9-1.1,6.8-1.9,10.1c0,0,0.3,0,0.5,0C242.4,566.7,243,562.9,243.4,559.9z"/>
		<path class="st1" d="M229.6,560.4c1.2-8.9,0.9-18.1-0.8-25.2c-0.3-1.5-0.8-3-1.3-4.5c-3.1-8.6-8.2-16.5-14.7-22.9
			c-10.2-10.1-24.2-18.5-41.9-25.2c-16.1-6.1-35.2-10.7-56.7-13.5C75.6,464.1,34,465.3,0,472.7v0.5c33.9-7.3,75.6-8.6,114.3-3.5
			c21.4,2.8,40.5,7.4,56.5,13.5c17.6,6.6,31.6,15,41.7,25c6.4,6.3,11.5,14.2,14.5,22.7c0.5,1.5,1,3,1.3,4.5c1.7,7,2,16.1,0.8,25
			c-0.4,3.2-1.1,6.5-1.8,9.6c0,0,0.3,0,0.5,0C228.5,566.9,229.2,563.6,229.6,560.4z"/>
		<path class="st1" d="M215.8,560.4c1.3-7.9,1.1-15.9-0.6-23.8c-0.4-1.4-0.8-2.8-1.3-4.2c-2.9-8.1-7.7-15.6-14-21.7
			c-9.5-9.4-22.8-17.4-39.4-23.6c-15.5-5.8-33.4-10.1-53.2-12.7c-36.1-4.8-75.2-3.6-107.3,3.3v0.4c32.1-6.9,71.2-8.1,107.3-3.3
			c19.8,2.6,37.7,6.9,53.2,12.7c16.5,6.2,29.7,14.2,39.2,23.6c6.2,6,11,13.4,13.8,21.5c0.5,1.4,0.9,2.8,1.3,4.2
			c1.7,7.8,1.9,15.7,0.6,23.6c-0.3,2.4-0.9,6-1.8,9.6c0,0,0.3,0,0.4,0C214.9,566.4,215.5,562.8,215.8,560.4z"/>
		<path class="st1" d="M202,561c1.2-7.5,1-15-0.6-22.5c-0.1-0.5-0.3-0.9-0.4-1.4c-0.2-0.9-0.5-1.7-0.8-2.6
			c-2.7-7.6-7.2-14.7-13-20.5c-8.9-8.8-21.3-16.3-36.9-22.1c-14-5.4-30.8-9.4-49.8-11.9C66.6,475.5,30,476.7,0,483.1v0.4
			c29.9-6.4,66.6-7.6,100.4-3.1c19,2.5,35.8,6.5,49.8,11.9c15.5,5.9,27.9,13.3,36.7,22.1c5.8,5.7,10.3,12.7,13,20.3
			c0.3,0.8,0.6,1.7,0.8,2.5c0.1,0.5,0.3,1,0.4,1.4c1.6,7.4,1.8,14.9,0.6,22.3c-0.4,2.9-1.1,6.9-1.7,9c0,0,0.3,0,0.4,0
			C200.9,567.8,201.6,563.9,202,561z"/>
		<path class="st1" d="M188.1,561.6c1.2-7.1,1.1-14.2-0.4-21.1c-0.3-1.1-0.6-2.3-1.1-3.8c-2.5-7.2-6.6-13.7-12.2-19.3
			c-8.2-8.2-19.8-15.1-34.4-20.6c-13.3-5.1-28.9-8.8-46.4-11.1c-31.9-4.1-66-3.1-93.5,2.9v0.4c27.5-6,61.6-7,93.5-2.9
			c17.5,2.3,33.1,6,46.4,11.1c14.6,5.5,26.1,12.4,34.2,20.6c5.6,5.5,9.7,11.9,12.2,19.1c0.5,1.5,0.8,2.7,1.1,3.8
			c1.5,6.8,1.6,13.8,0.4,20.9c-0.3,2.1-1.1,6.2-1.6,8.4c0,0,0.3,0,0.4,0C187,567.8,187.7,563.7,188.1,561.6z"/>
		<path class="st1" d="M173.9,563.5c0.1-0.5,0.2-1,0.3-1.5c1.2-6.5,1.1-13.1-0.2-19.8c-0.2-1-0.6-2.2-1-3.5c-2.4-6.8-6.3-13-11.4-18
			c-7.6-7.6-18.3-14-31.9-19.1c-13.6-5-28.2-8.5-43.1-10.3c-29.3-3.8-60.8-2.8-86.5,2.7v0.4c25.7-5.5,57.2-6.5,86.5-2.7
			c15,1.8,29.4,5.3,43.1,10.3c13.5,5.1,24.2,11.5,31.7,19.1c5.1,5,9,11.1,11.4,17.8c0.4,1.3,0.8,2.5,1,3.5
			c1.3,6.6,1.4,13.2,0.2,19.6c-0.1,0.4-0.2,1-0.3,1.5c-0.4,2.2-0.9,5-1.3,6.5c0,0,0.2,0,0.4,0C173.1,568.4,173.5,565.7,173.9,563.5z
			"/>
		<path class="st1" d="M160.3,562.5c1.2-5.8,1.1-12.2-0.1-18.4c-0.2-1.1-0.5-2.2-0.9-3.3c-2.1-6.3-5.7-12.1-10.5-16.8
			c-7-7-16.8-12.9-29.4-17.6c-12.9-4.7-26.2-7.9-39.7-9.5c-27-3.5-56-2.6-79.6,2.5v0.3c23.6-5.1,52.6-6,79.6-2.5
			c13.5,1.6,26.8,4.8,39.7,9.5c12.5,4.7,22.3,10.6,29.2,17.6c4.8,4.7,8.4,10.4,10.5,16.6c0.4,1.1,0.7,2.2,0.9,3.3
			c1.2,6.1,1.3,12.4,0.1,18.2c-0.5,3-1,5.5-1.5,7.5c0,0,0.2,0,0.3,0C159.3,568,159.8,565.5,160.3,562.5z"/>
		<path class="st1" d="M146.4,563c1.1-5.6,1.1-11.5,0-17.1c-0.2-0.9-0.4-1.9-0.8-3.1c-1.9-5.8-5.2-11.2-9.7-15.6
			c-6.4-6.4-15.4-11.8-26.9-16.1c-11.7-4.2-24-7.1-36.3-8.6c-24.7-3.2-51.2-2.4-72.7,2.3v0.3c21.5-4.6,48-5.5,72.7-2.3
			c12.3,1.5,24.5,4.4,36.3,8.6c11.4,4.3,20.4,9.7,26.7,16.1c4.5,4.4,7.8,9.7,9.7,15.4c0.4,1.2,0.6,2.2,0.8,3.1
			c1.1,5.5,1.1,11.4,0,16.9c-0.3,1.9-1,5.5-1.4,7c0,0,0.2,0,0.3,0C145.4,568.4,146.1,564.9,146.4,563z"/>
		<path class="st1" d="M132.4,563.5c1.1-5.2,1.2-10.5,0.2-15.7l-0.1-0.4c-0.2-0.8-0.4-1.6-0.6-2.4c-1.8-5.5-4.9-10.4-8.9-14.4
			c-5.8-5.8-14-10.7-24.4-14.6c-10.5-3.8-21.6-6.4-32.9-7.8c-22.3-3-45.7-2.3-65.7,2v0.3c20-4.3,43.4-5,65.7-2
			c11.3,1.4,22.4,4,32.9,7.8c10.3,3.9,18.5,8.8,24.3,14.6c4,4,7,8.7,8.9,14.2c0.3,0.8,0.4,1.6,0.6,2.4l0.1,0.4
			c1,5.1,0.9,10.4-0.2,15.5c-0.3,1.8-0.9,4.4-1.5,6.5c0,0,0.2,0,0.3,0C131.6,567.9,132.1,565.3,132.4,563.5z"/>
		<path class="st1" d="M118.4,547.3c-1.6-5-4.4-9.5-8.1-13.2c-5.2-5.2-12.6-9.6-21.8-13.1c-9.3-3.4-19.2-5.8-29.5-7
			c-20.1-2.7-41.1-2.1-58.9,1.8v0.2c17.8-3.8,38.8-4.5,58.9-1.8c10.3,1.2,20.2,3.6,29.5,7c9.2,3.5,16.6,7.9,21.8,13.1
			c3.7,3.6,6.5,8.1,8.1,13c1.5,5,1.6,16.6,0.3,22.7c0,0,0.2,0,0.2,0C120,563.9,119.9,552.2,118.4,547.3z"/>
</g>
</svg>
