<svg xmlns="http://www.w3.org/2000/svg" viewBox="0 0 1400 570">
<style type="text/css">
	.st0{opacity:0.14;}
	.st1{fill:none;stroke:#7C6576;stroke-width:2;stroke-miterlimit:10;}
	.st2{fill:none;stroke:#7C6576;stroke-width:1.9735;stroke-miterlimit:10;}
	.st3{fill:none;stroke:#7C6576;stroke-width:1.947;stroke-miterlimit:10;}
	.st4{fill:none;stroke:#7C6576;stroke-width:1.9205;stroke-miterlimit:10;}
	.st5{fill:none;stroke:#7C6576;stroke-width:1.8939;stroke-miterlimit:10;}
	.st6{fill:none;stroke:#7C6576;stroke-width:1.8674;stroke-miterlimit:10;}
	.st7{fill:none;stroke:#7C6576;stroke-width:1.8409;stroke-miterlimit:10;}
	.st8{fill:none;stroke:#7C6576;stroke-width:1.8144;stroke-miterlimit:10;}
	.st9{fill:none;stroke:#7C6576;stroke-width:1.7879;stroke-miterlimit:10;}
	.st10{fill:none;stroke:#7C6576;stroke-width:1.7614;stroke-miterlimit:10;}
	.st11{fill:none;stroke:#7C6576;stroke-width:1.7348;stroke-miterlimit:10;}
	.st12{fill:none;stroke:#7C6576;stroke-width:1.7083;stroke-miterlimit:10;}
	.st13{fill:none;stroke:#7C6576;stroke-width:1.6818;stroke-miterlimit:10;}
	.st14{fill:none;stroke:#7C6576;stroke-width:1.6553;stroke-miterlimit:10;}
	.st15{fill:none;stroke:#7C6576;stroke-width:1.6288;stroke-miterlimit:10;}
	.st16{fill:none;stroke:#7C6576;stroke-width:1.6023;stroke-miterlimit:10;}
	.st17{fill:none;stroke:#7C6576;stroke-width:1.5758;stroke-miterlimit:10;}
	.st18{fill:none;stroke:#7C6576;stroke-width:1.5492;stroke-miterlimit:10;}
	.st19{fill:none;stroke:#7C6576;stroke-width:1.5227;stroke-miterlimit:10;}
	.st20{fill:none;stroke:#7C6576;stroke-width:1.4962;stroke-miterlimit:10;}
	.st21{fill:none;stroke:#7C6576;stroke-width:1.4697;stroke-miterlimit:10;}
	.st22{fill:none;stroke:#7C6576;stroke-width:1.4432;stroke-miterlimit:10;}
	.st23{fill:none;stroke:#7C6576;stroke-width:1.4167;stroke-miterlimit:10;}
	.st24{fill:none;stroke:#7C6576;stroke-width:1.3902;stroke-miterlimit:10;}
	.st25{fill:none;stroke:#7C6576;stroke-width:1.3636;stroke-miterlimit:10;}
	.st26{fill:none;stroke:#7C6576;stroke-width:1.3371;stroke-miterlimit:10;}
	.st27{fill:none;stroke:#7C6576;stroke-width:1.3106;stroke-miterlimit:10;}
	.st28{fill:none;stroke:#7C6576;stroke-width:1.2841;stroke-miterlimit:10;}
	.st29{fill:none;stroke:#7C6576;stroke-width:1.2576;stroke-miterlimit:10;}
	.st30{fill:none;stroke:#7C6576;stroke-width:1.2311;stroke-miterlimit:10;}
	.st31{fill:none;stroke:#7C6576;stroke-width:1.2045;stroke-miterlimit:10;}
	.st32{fill:none;stroke:#7C6576;stroke-width:1.178;stroke-miterlimit:10;}
	.st33{fill:none;stroke:#7C6576;stroke-width:1.1515;stroke-miterlimit:10;}
	.st34{fill:none;stroke:#7C6576;stroke-width:1.125;stroke-miterlimit:10;}
	.st35{fill:none;stroke:#7C6576;stroke-width:1.0985;stroke-miterlimit:10;}
	.st36{fill:none;stroke:#7C6576;stroke-width:1.072;stroke-miterlimit:10;}
	.st37{fill:none;stroke:#7C6576;stroke-width:1.0455;stroke-miterlimit:10;}
	.st38{fill:none;stroke:#7C6576;stroke-width:1.0189;stroke-miterlimit:10;}
	.st39{fill:none;stroke:#7C6576;stroke-width:0.9924;stroke-miterlimit:10;}
	.st40{fill:none;stroke:#7C6576;stroke-width:0.9659;stroke-miterlimit:10;}
	.st41{fill:none;stroke:#7C6576;stroke-width:0.9394;stroke-miterlimit:10;}
	.st42{fill:none;stroke:#7C6576;stroke-width:0.9129;stroke-miterlimit:10;}
	.st43{fill:none;stroke:#7C6576;stroke-width:0.8864;stroke-miterlimit:10;}
	.st44{fill:none;stroke:#7C6576;stroke-width:0.8598;stroke-miterlimit:10;}
	.st45{fill:none;stroke:#7C6576;stroke-width:0.8333;stroke-miterlimit:10;}
	.st46{fill:none;stroke:#7C6576;stroke-width:0.8068;stroke-miterlimit:10;}
	.st47{fill:none;stroke:#7C6576;stroke-width:0.7803;stroke-miterlimit:10;}
	.st48{fill:none;stroke:#7C6576;stroke-width:0.7538;stroke-miterlimit:10;}
	.st49{fill:none;stroke:#7C6576;stroke-width:0.7273;stroke-miterlimit:10;}
	.st50{fill:none;stroke:#7C6576;stroke-width:0.7008;stroke-miterlimit:10;}
	.st51{fill:none;stroke:#7C6576;stroke-width:0.6742;stroke-miterlimit:10;}
	.st52{fill:none;stroke:#7C6576;stroke-width:0.6477;stroke-miterlimit:10;}
	.st53{fill:none;stroke:#7C6576;stroke-width:0.6212;stroke-miterlimit:10;}
	.st54{fill:none;stroke:#7C6576;stroke-width:0.5947;stroke-miterlimit:10;}
	.st55{fill:none;stroke:#7C6576;stroke-width:0.5682;stroke-miterlimit:10;}
	.st56{fill:none;stroke:#7C6576;stroke-width:0.5417;stroke-miterlimit:10;}
	.st57{fill:none;stroke:#7C6576;stroke-width:0.5152;stroke-miterlimit:10;}
	.st58{fill:none;stroke:#7C6576;stroke-width:0.4886;stroke-miterlimit:10;}
	.st59{fill:none;stroke:#7C6576;stroke-width:0.4621;stroke-miterlimit:10;}
	.st60{fill:none;stroke:#7C6576;stroke-width:0.4356;stroke-miterlimit:10;}
	.st61{fill:none;stroke:#7C6576;stroke-width:0.4091;stroke-miterlimit:10;}
	.st62{fill:none;stroke:#7C6576;stroke-width:0.3826;stroke-miterlimit:10;}
	.st63{fill:none;stroke:#7C6576;stroke-width:0.3561;stroke-miterlimit:10;}
	.st64{fill:none;stroke:#7C6576;stroke-width:0.3295;stroke-miterlimit:10;}
	.st65{fill:none;stroke:#7C6576;stroke-width:0.303;stroke-miterlimit:10;}
	.st66{fill:none;stroke:#7C6576;stroke-width:0.2765;stroke-miterlimit:10;}
	.st67{fill:none;stroke:#7C6576;stroke-width:0.25;stroke-miterlimit:10;}
	@media only screen and (max-width: 300px) {
		.st0{opacity:.7;}
	}
</style>
	<g class="st0">
		<path class="st1" d="M-3.8,158.1c1.3,0,2.6-0.2,3.9-0.4c151-32.5,344.3-38.3,516.9-15.7c94.8,12.4,179.8,32.7,252.8,60.2
			c79.3,29.9,142.2,67.7,186.7,112.3c33.5,33.5,56.7,71.1,69,111.8c12,39.7,12.3,103.6,3,143.7"/>
		<path class="st2" d="M-3.7,163.6c1.3,0,2.6-0.2,3.9-0.4c149-32,339.6-37.8,510-15.5c93.5,12.2,177.4,32.2,249.4,59.4
			c78.2,29.5,140.2,66.8,184.1,110.8c28,28,48.7,59,61.8,92.2c2.4,6,4.5,12,6.3,18.1c8.4,27.9,11,67.6,8.5,102.4
			c-1,14.1-4.6,28-7.3,39.3"/>
		<path class="st3" d="M-3.7,169c1.3,0,2.5-0.2,3.8-0.4c147-31.6,335-37.3,503.1-15.3c92.2,12.1,175,31.8,246.1,58.6
			C826.5,241,887.6,277.8,931,321.2c27.6,27.6,48.1,58.2,61,91c2.3,5.9,4.4,11.9,6.2,17.9c8.3,27.5,10.9,66.7,8.4,101.1
			c-1,13.9-4.8,27.6-7.4,38.8"/>
		<path class="st4" d="M-3.6,174.4c1.3,0,2.5-0.2,3.8-0.4c145-31.2,330.4-36.8,496.2-15.1c91,11.9,172.6,31.4,242.7,57.8
			c76.1,28.7,136.4,65,179.1,107.8c27.2,27.3,47.4,57.4,60.1,89.8c2.3,5.8,4.3,11.7,6.1,17.7c8.2,27.2,10.7,65.8,8.2,99.7
			c-1,13.7-5,27.2-7.6,38.3"/>
		<path class="st5" d="M-3.6,179.9c1.2,0,2.5-0.2,3.7-0.4C143,148.8,326,143.2,489.3,164.6c89.7,11.8,170.2,30.9,239.3,57
			c75,28.3,134.5,64.1,176.6,106.3c26.9,26.9,46.8,56.6,59.3,88.5c2.3,5.7,4.3,11.6,6,17.4c8.1,26.8,10.6,64.9,8.1,98.4
			c-1,13.5-5.2,26.9-7.7,37.8"/>
		<path class="st6" d="M-3.5,185.3c1.2,0,2.5-0.2,3.7-0.4c140.9-30.3,321.2-35.8,482.3-14.7c88.4,11.6,167.8,30.5,235.9,56.2
			c74,27.9,132.6,63.2,174.2,104.8c26.5,26.5,46.1,55.8,58.5,87.3c2.2,5.7,4.2,11.4,6,17.2c8,26.5,10.4,64,7.9,97
			c-1,13.3-4.3,26.5-6.9,37.3"/>
		<path class="st7" d="M-3.5,190.7c1.2,0,2.4-0.2,3.6-0.4C139,160.4,316.7,155,475.5,175.8c87.2,11.4,165.4,30.1,232.5,55.4
			c73,27.5,130.7,62.3,171.7,103.3c26.1,26.2,45.5,55.1,57.6,86.1c2.2,5.6,4.1,11.2,5.9,17c7.9,26.1,10.2,63.1,7.8,95.7
			c-1.1,12.4-3.1,24.6-6,36.7"/>
		<path class="st8" d="M-3.5,196.1c1.2,0,2.3-0.2,3.5-0.4c136.9-29.4,312-34.7,468.5-14.3c85.9,11.2,163,29.6,229.1,54.6
			c71.9,27.1,128.8,61.4,169.2,101.8c25.8,25.8,44.8,54.3,56.8,84.9c2.2,5.5,4.1,11.1,5.8,16.7c7.8,25.7,10.1,62.2,7.7,94.3
			c-1,12.9-4.7,25.8-7.2,36.2"/>
		<path class="st9" d="M-3.4,201.6c1.2,0,2.3-0.2,3.5-0.4c134.9-29,307.4-34.2,461.6-14.1c84.6,11.1,160.6,29.2,225.8,53.8
			c70.8,26.7,126.9,60.5,166.7,100.3c25.4,25.4,44.2,53.5,56,83.7c2.1,5.4,4,10.9,5.7,16.5c7.6,25.4,9.9,61.3,7.5,92.9
			c-1,12.7-3.9,25.4-6.3,35.7"/>
		<path class="st10" d="M-3.3,207c1.1,0,2.3-0.2,3.4-0.4c132.8-28.6,302.8-33.7,454.7-13.8c83.4,10.9,158.2,28.7,222.4,53
			c69.7,26.3,125,59.6,164.2,98.8c25,25.1,43.5,52.7,55.2,82.4c2.1,5.3,4,10.7,5.6,16.2c7.5,25,9.8,60.4,7.4,91.6
			c-0.9,12.5-4.1,25-6.5,35.2"/>
		<path class="st11" d="M-3.3,212.4c1.1,0,2.3-0.2,3.4-0.4c130.8-28.1,298.2-33.2,447.7-13.6c82.1,10.8,155.8,28.3,219,52.2
			c68.7,25.9,123.1,58.7,161.7,97.3c24.7,24.7,42.9,52,54.3,81.2c2.1,5.3,3.9,10.6,5.5,16c7.4,24.6,9.6,59.5,7.3,90.2
			c-0.9,12.3-4.3,24.7-6.6,34.7"/>
		<path class="st12" d="M-2,218.2c1.1,0,2.2-0.2,3.3-0.4c128.8-27.7,293.6-32.7,440.8-13.4c80.8,10.6,153.4,27.9,215.6,51.4
			c67.6,25.5,121.2,57.7,159.2,95.8c24.3,24.3,42.2,51.2,53.5,80c2,5.2,3.8,10.4,5.4,15.8c7.3,24.3,9.5,58.6,7.1,88.9
			c-0.8,11.4-2.4,22.7-4.9,33.8"/>
		<path class="st13" d="M-2,223.7c1.1,0,2.2-0.1,3.3-0.4c126.8-27.2,289-32.2,433.9-13.2c79.6,10.4,151,27.4,212.2,50.6
			c66.6,25.1,119.3,56.9,156.7,94.3c23.9,23.9,41.6,50.4,52.7,78.8c2,5.1,3.8,10.3,5.3,15.5c7.2,23.9,9.3,57.7,7,87.5
			c-0.8,11.2-2.4,22.3-4.8,33.2"/>
		<path class="st14" d="M-3.2,228.7c1.1,0,2.2-0.1,3.2-0.4c124.7-26.8,284.4-31.7,427-13c78.3,10.2,148.6,27,208.8,49.7
			c65.5,24.7,117.4,56,154.2,92.8c23.5,23.6,40.9,49.6,51.8,77.6c2,5,3.8,10.1,5.3,15.3c7,23.6,9.1,56.8,6.9,86.2
			c-0.8,11.1-2.4,22.2-4.8,33.1"/>
		<path class="st15" d="M-3.1,234.1c1.1,0,2.2-0.1,3.2-0.4c122.7-26.4,279.8-31.2,420.1-12.8c77,10.1,146.2,26.6,205.5,48.9
			c64.4,24.3,115.5,55,151.7,91.3c23.2,23.2,40.3,48.8,51,76.4c1.9,5,3.7,10,5.2,15c6.9,23.2,9,55.9,6.7,84.8
			c-0.8,11-2.3,21.9-4.7,32.6"/>
		<path class="st16" d="M-3.1,239.9c1,0,2.1-0.1,3.1-0.4c120.7-25.9,275.1-30.6,413.1-12.6c75.8,9.9,143.8,26.1,202.1,48.1
			c63.4,23.9,113.6,54.1,149.2,89.8c22.8,22.8,39.6,48.1,50.2,75.1c1.9,4.9,3.6,9.8,5.1,14.8c6.8,22.9,8.8,55,6.6,83.5
			c-0.8,10.7-2.3,21.3-4.6,31.7"/>
		<path class="st17" d="M-3,245.4c1,0,2.1-0.1,3.1-0.4c118.7-25.5,270.5-30.1,406.2-12.4c74.5,9.8,141.3,25.7,198.7,47.4
			c62.3,23.5,111.7,53.2,146.7,88.3c22.4,22.5,39,47.3,49.4,73.9c1.9,4.8,3.5,9.6,5,14.6c6.7,22.5,8.7,54.1,6.5,82.1
			c-0.7,10.5-2.3,20.9-4.6,31.1"/>
		<path class="st18" d="M-3,250.8c1,0,2-0.1,3-0.4c116.7-25.1,266-29.6,399.4-12.1c73.2,9.6,138.9,25.2,195.3,46.5
			c61.2,23.1,109.8,52.3,144.2,86.8c22.1,22.1,38.3,46.5,48.5,72.7c1.8,4.7,3.5,9.5,4.9,14.3c6.6,22.1,8.5,53.2,6.3,80.7
			c-0.7,10.3-2.2,20.5-4.5,30.6"/>
		<path class="st19" d="M-2.9,256.2c1,0,2-0.1,3-0.4c114.7-24.6,261.3-29.1,392.4-11.9c72,9.4,136.5,24.8,191.9,45.7
			c60.2,22.7,107.9,51.4,141.7,85.3c21.7,21.7,37.7,45.7,47.7,71.5c1.8,4.6,3.4,9.3,4.8,14.1c6.5,21.8,8.3,52.3,6.2,79.4
			c-0.7,10.1-2.2,20.2-4.5,30.1"/>
		<path class="st20" d="M-2.9,261.6c1,0,1.9-0.1,2.9-0.3c112.6-24.2,256.7-28.6,385.5-11.7c70.7,9.3,134.1,24.4,188.5,44.9
			c59.1,22.3,106,50.5,139.2,83.8c21.3,21.4,37,44.9,46.9,70.3c1.8,4.6,3.3,9.2,4.7,13.8c6.4,21.4,8.2,51.4,6.1,78
			c-0.7,10-2.2,19.9-4.4,29.6"/>
		<path class="st21" d="M-2.8,267.1c1,0,1.9-0.1,2.9-0.3c110.6-23.7,252.1-28.1,378.6-11.5c69.4,9.1,131.7,23.9,185.2,44.1
			c58.1,21.9,104,49.6,136.7,82.3c21,21,36.4,44.2,46.1,69.1c1.7,4.5,3.3,9,4.7,13.6c6.2,21,8,50.5,5.9,76.7
			c-0.7,9.8-2.2,19.5-4.3,29.1"/>
		<path class="st22" d="M-2.8,272.5c0.9,0,1.9-0.1,2.8-0.3c108.6-23.4,247.5-27.6,371.6-11.3c68.1,8.9,129.3,23.5,181.8,43.3
			c57,21.5,102.2,48.7,134.2,80.8c20.6,20.6,35.8,43.4,45.2,67.8c1.7,4.4,3.2,8.9,4.6,13.4c6.1,20.7,7.9,49.6,5.8,75.3
			c-0.7,9.6-2.1,19.2-4.2,28.6"/>
		<path class="st23" d="M-2.7,277.9c0.9,0,1.8-0.1,2.7-0.3c106.6-22.9,242.9-27.1,364.7-11.1c66.9,8.8,126.9,23.1,178.4,42.5
			c55.9,21.1,100.2,47.8,131.7,79.3c20.2,20.2,35.1,42.6,44.4,66.6c1.7,4.3,3.2,8.7,4.5,13.1c6,20.3,7.7,48.7,5.7,73.9
			c-0.7,9.4-2.1,18.8-4.1,28.1"/>
		<path class="st24" d="M-2.7,283.3c0.9,0,1.8-0.1,2.7-0.3c104.5-22.5,238.3-26.5,357.8-10.9c65.6,8.6,124.5,22.6,175,41.7
			c54.9,20.7,98.4,46.9,129.2,77.8c19.8,19.9,34.5,41.8,43.6,65.4c1.6,4.2,3.1,8.5,4.4,12.9c5.9,20,7.6,47.8,5.5,72.6
			c-0.7,9.3-2,18.5-4.1,27.6"/>
		<path class="st25" d="M-2.6,288.8c0.9,0,1.8-0.1,2.7-0.3c102.5-22,233.7-26,350.9-10.7c64.3,8.4,122.1,22.2,171.6,40.9
			c53.8,20.3,96.5,46,126.7,76.3c19.5,19.5,33.8,41,42.8,64.2c1.6,4.2,3,8.4,4.3,12.6c5.8,19.6,7.4,46.9,5.4,71.2
			c-0.7,9.1-2,18.1-4,27"/>
		<path class="st26" d="M-2.6,294.2c0.9,0,1.7-0.1,2.6-0.3c100.5-21.6,229.1-25.5,344-10.5c63.1,8.3,119.7,21.7,168.2,40.1
			c52.8,19.9,94.5,45.1,124.2,74.8c19.1,19.1,33.2,40.3,41.9,63c1.6,4.1,3,8.2,4.2,12.4c5.7,19.2,7.2,46,5.2,69.9
			c-0.7,8.9-2,17.8-4,26.5"/>
		<path class="st27" d="M-2.5,299.6c0.8,0,1.7-0.1,2.5-0.3c98.5-21.2,224.5-25,337.1-10.3c61.8,8.1,117.3,21.3,164.9,39.3
			c51.7,19.5,92.7,44.2,121.7,73.3c18.7,18.8,32.5,39.5,41.1,61.8c1.5,4,2.9,8.1,4.1,12.2c5.5,18.9,7.1,45.1,5.1,68.5
			c-0.7,8.7-2,17.4-3.9,26"/>
		<path class="st28" d="M-2.5,305c0.8,0,1.7-0.1,2.5-0.3c96.5-20.7,219.9-24.5,330.1-10c60.5,7.9,114.9,20.9,161.5,38.5
			c50.6,19.1,90.8,43.2,119.2,71.8c18.4,18.4,31.9,38.7,40.3,60.5c1.5,3.9,2.8,7.9,4,11.9c5.4,18.5,6.9,44.2,5,67.2
			c-0.7,8.6-1.9,17.1-3.8,25.5"/>
		<path class="st29" d="M-2.4,310.5c0.8,0,1.6-0.1,2.4-0.3c94.4-20.3,215.3-24,323.2-9.8c59.3,7.8,112.4,20.4,158.1,37.6
			c49.6,18.7,88.8,42.4,116.7,70.3c18,18,31.2,37.9,39.5,59.3c1.5,3.9,2.8,7.7,4,11.7c5.3,18.1,6.8,43.4,4.8,65.8
			c-0.7,8.4-1.9,16.8-3.8,25"/>
		<path class="st30" d="M-2.4,315.9c0.8,0,1.6-0.1,2.4-0.3c92.4-19.9,210.7-23.5,316.3-9.6c58,7.6,110,20,154.7,36.9
			c48.5,18.3,87,41.4,114.2,68.8c17.6,17.6,30.6,37.1,38.6,58.1c1.5,3.8,2.7,7.6,3.9,11.5c5.2,17.8,6.6,42.4,4.7,64.4
			c-0.7,8.2-1.9,16.4-3.7,24.4"/>
		<path class="st31" d="M-2.3,321.3c0.8,0,1.6-0.1,2.3-0.3c90.4-19.4,206.1-23,309.4-9.4c56.7,7.4,107.6,19.6,151.3,36.1
			c47.5,17.9,85,40.5,111.7,67.2c17.2,17.3,29.9,36.4,37.8,56.9c1.4,3.7,2.7,7.4,3.8,11.2c5.1,17.4,6.4,41.5,4.6,63.1
			c-0.6,8-1.8,16-3.6,23.9"/>
		<path class="st32" d="M-2.3,326.7c0.8,0,1.5-0.1,2.3-0.3c88.4-19,201.4-22.4,302.5-9.2c55.5,7.3,105.2,19.1,147.9,35.2
			c46.4,17.5,83.1,39.6,109.2,65.7c16.9,16.9,29.3,35.6,37,55.7c1.4,3.6,2.6,7.3,3.7,11c5,17.1,6.3,40.6,4.4,61.7
			c-0.6,7.9-1.8,15.7-3.6,23.4"/>
		<path class="st33" d="M-2.2,332.1c0.7,0,1.5-0.1,2.2-0.3c86.3-18.6,196.8-21.9,295.6-9c54.2,7.1,102.8,18.7,144.6,34.4
			c45.3,17.1,81.2,38.7,106.7,64.2c16.5,16.5,28.6,34.8,36.2,54.5c1.3,3.5,2.5,7.1,3.6,10.7c4.8,16.7,6.1,39.7,4.3,60.4
			c-0.6,7.7-1.8,15.4-3.5,22.9"/>
		<path class="st34" d="M-2.2,337.6c0.7,0,1.5-0.1,2.2-0.2c84.3-18.1,192.2-21.4,288.6-8.8c52.9,6.9,100.4,18.2,141.2,33.6
			c44.3,16.7,79.3,37.8,104.2,62.7c16.1,16.1,28,34,35.3,53.2c1.3,3.4,2.5,6.9,3.5,10.5c4.7,16.3,5.9,38.8,4.2,59
			c-0.6,7.5-1.8,15-3.4,22.4"/>
		<path class="st35" d="M-2.2,343c0.7,0,1.5-0.1,2.2-0.2c82.3-17.7,187.6-20.9,281.7-8.6c51.7,6.8,98,17.8,137.8,32.8
			c43.2,16.3,77.4,36.9,101.7,61.2c15.8,15.8,27.3,33.2,34.5,52c1.3,3.4,2.4,6.8,3.4,10.2c4.6,16,5.8,38,4,57.7
			c-0.6,7.4-1.7,14.7-3.4,21.9"/>
		<path class="st36" d="M-2.1,348.4c0.7,0,1.4-0.1,2.1-0.2c80.3-17.3,183-20.4,274.8-8.4c50.4,6.6,95.6,17.4,134.4,32
			c42.1,15.9,75.5,36,99.2,59.7c15.4,15.4,26.7,32.4,33.7,50.8c1.3,3.3,2.4,6.6,3.3,10c4.5,15.6,5.6,37,3.9,56.3
			c-0.6,7.2-1.7,14.3-3.3,21.3"/>
		<path class="st37" d="M-2,353.9c0.7,0,1.3-0.1,2-0.2c78.3-16.8,178.4-19.9,267.9-8.1c49.1,6.4,93.2,16.9,131,31.2
			c41.1,15.5,73.6,35.1,96.7,58.2c15,15,26,31.7,32.8,49.6c1.2,3.2,2.3,6.5,3.3,9.8c4.4,15.2,5.5,36.1,3.8,55
			c-0.6,7-1.7,14-3.3,20.8"/>
		<path class="st38" d="M-2,359.3c0.7,0,1.4-0.1,2-0.3c76.2-16.4,173.8-19.4,261-7.9c47.9,6.3,90.8,16.5,127.6,30.4
			c40,15.1,71.7,34.2,94.2,56.7c14.6,14.7,25.4,30.9,32,48.4c1.2,3.1,2.2,6.3,3.2,9.5c4.3,14.9,5.3,35.2,3.6,53.6
			c-0.6,6.8-1.7,13.6-3.2,20.3"/>
		<path class="st39" d="M-2,364.7c0.7,0,1.3-0.1,2-0.2c74.2-16,169.2-18.8,254.1-7.7c46.6,6.1,88.4,16.1,124.2,29.6
			c39,14.7,69.8,33.3,91.7,55.2c14.3,14.3,24.8,30.1,31.2,47.1c1.1,3.1,2.2,6.2,3.1,9.3c4.1,14.5,5.1,34.4,3.5,52.2
			c-0.6,6.7-1.7,13.3-3.2,19.8"/>
		<path class="st40" d="M-1.9,370.1c0.6,0,1.3-0.1,1.9-0.2c72.2-15.5,164.6-18.3,247.1-7.5c45.3,5.9,86,15.6,120.9,28.8
			c37.9,14.3,67.9,32.4,89.2,53.7c13.9,13.9,24.1,29.4,30.4,45.9c1.1,3,2.1,6,3,9c4,14.2,5,33.5,3.4,50.9
			c-0.6,6.5-1.6,12.9-3.1,19.3"/>
		<path class="st41" d="M-1.9,375.5c0.6,0,1.3-0.1,1.9-0.2c70.2-15.1,160-17.8,240.2-7.3c44,5.8,83.6,15.2,117.5,28
			c36.9,13.9,66,31.5,86.7,52.2c13.6,13.6,23.4,28.6,29.6,44.7c1.1,2.9,2.1,5.8,2.9,8.8c3.9,13.8,4.8,32.5,3.2,49.5
			c-0.6,6.3-1.6,12.5-3,18.7"/>
		<path class="st42" d="M-1.8,381c0.6,0,1.2-0.1,1.8-0.2c68.2-14.7,155.4-17.3,233.3-7.1c42.8,5.6,81.2,14.8,114.1,27.2
			c35.8,13.5,64.1,30.6,84.2,50.7c13.2,13.2,22.8,27.8,28.7,43.5c1.1,2.8,2,5.7,2.8,8.6c3.8,13.4,4.7,31.7,3.1,48.2
			c-0.6,6.1-1.6,12.2-2.9,18.2"/>
		<path class="st43" d="M-1.8,386.4c0.6,0,1.2-0.1,1.8-0.2c66.1-14.2,150.8-16.8,226.4-6.9c41.5,5.4,78.8,14.3,110.7,26.4
			c34.7,13.1,62.2,29.7,81.8,49.2c12.8,12.8,22.1,27,27.9,42.3c1,2.7,1.9,5.5,2.7,8.3c3.7,13.1,4.5,30.7,2.9,46.8
			c-0.6,6-1.5,11.9-2.9,17.7"/>
		<path class="st44" d="M-1.7,391.8c0.6,0,1.1-0.1,1.7-0.2c64.1-13.8,146.2-16.3,219.5-6.7c40.2,5.3,76.4,13.9,107.4,25.6
			c33.7,12.7,60.3,28.8,79.2,47.7c12.4,12.5,21.5,26.2,27.1,41.1c1,2.7,1.9,5.4,2.6,8.1c3.6,12.7,4.4,29.9,2.8,45.4
			c-0.6,5.8-1.5,11.5-2.8,17.2"/>
		<path class="st45" d="M-1.7,397.2c0.5,0,1.1-0.1,1.6-0.2c62.1-13.4,141.6-15.8,212.6-6.5c39,5.1,73.9,13.4,104,24.8
			c32.6,12.3,58.4,27.9,76.8,46.2c12,12.1,20.9,25.5,26.2,39.8c1,2.6,1.8,5.2,2.6,7.9c3.5,12.4,4.2,29,2.7,44.1
			c-0.6,5.6-1.5,11.2-2.8,16.7"/>
		<path class="st46" d="M-1.6,402.7c0.5,0,1.1-0.1,1.6-0.2c60.1-12.9,137-15.3,205.6-6.3c37.7,4.9,71.5,13,100.6,24
			c31.5,11.9,56.5,27,74.2,44.7c11.7,11.7,20.2,24.7,25.4,38.6c0.9,2.5,1.8,5,2.5,7.6c3.3,12,4,28.1,2.5,42.7
			c-0.5,5.4-1.4,10.8-2.7,16.1"/>
		<path class="st47" d="M-1.6,408.1c0.5,0,1-0.1,1.5-0.2c58-12.5,132.3-14.7,198.7-6c36.4,4.8,69.1,12.6,97.2,23.1
			c30.5,11.5,54.6,26,71.8,43.2c11.3,11.3,19.6,23.9,24.6,37.4c0.9,2.4,1.7,4.9,2.4,7.4c3.2,11.6,3.9,27.2,2.4,41.4
			c-0.5,5.3-1.4,10.5-2.6,15.6"/>
		<path class="st48" d="M-1.5,413.5c0.5,0,1-0.1,1.5-0.2c56-12,127.7-14.2,191.8-5.8c35.2,4.6,66.7,12.1,93.8,22.3
			c29.5,11.2,52.7,25.2,69.2,41.7c10.5,10.2,18.6,22.6,23.8,36.2c0.9,2.4,1.6,4.7,2.3,7.1c3.1,11.3,3.7,26.3,2.3,40
			c-0.5,5.1-1.4,10.1-2.5,15.1"/>
		<path class="st49" d="M-1.5,418.9c0.5,0,0.9-0.1,1.4-0.2c54-11.6,123.1-13.7,184.9-5.6c33.9,4.4,64.3,11.7,90.4,21.5
			c28.4,10.7,50.8,24.2,66.8,40.2c10.6,10.6,18.3,22.3,22.9,35c0.8,2.3,1.6,4.6,2.2,6.9c3,10.9,3.6,25.3,2.1,38.7
			c-0.5,4.9-1.3,9.8-2.5,14.6"/>
		<path class="st50" d="M-1.4,424.4c0.5,0,0.9-0.1,1.4-0.1c52-11.2,118.5-13.2,178-5.4c32.6,4.3,61.9,11.2,87.1,20.7
			c27.3,10.3,48.9,23.3,64.3,38.7c9.7,9.5,17.3,21.1,22.1,33.8c0.8,2.2,1.5,4.4,2.1,6.7c2.9,10.6,3.4,24.5,2,37.3
			c-0.5,4.7-1.3,9.4-2.4,14"/>
		<path class="st51" d="M-1.4,429.8c0.4,0,0.9-0.1,1.3-0.1c50-10.7,113.9-12.7,171-5.2c31.4,4.1,59.5,10.8,83.7,19.9
			c26.2,9.9,47,22.4,61.8,37.2c9.4,9.2,16.7,20.2,21.3,32.5c0.8,2.1,1.4,4.2,2,6.4c2.8,10.2,3.3,23.6,1.9,36
			c-0.5,4.5-1.2,9.1-2.3,13.5"/>
		<path class="st52" d="M-1.4,435.2c0.4,0,0.8,0,1.2-0.1c48-10.3,109.3-12.2,164.1-5c30.1,3.9,57.1,10.4,80.3,19.1
			c25.2,9.5,45.1,21.5,59.3,35.7c9,8.8,16,19.5,20.4,31.3c0.7,2,1.4,4.1,2,6.2c2.6,9.8,3.1,22.7,1.7,34.6c-0.5,4.4-1.3,8.7-2.3,13"
			/>
		<path class="st53" d="M-1.3,440.6c0.4,0,0.8-0.1,1.2-0.1c45.9-9.9,104.7-11.7,157.2-4.8c28.8,3.8,54.7,9.9,76.9,18.3
			c24.1,9.1,43.2,20.6,56.8,34.2c8.7,8.4,15.4,18.7,19.6,30.1c0.7,2,1.3,3.9,1.9,5.9c2.5,9.5,2.9,21.8,1.6,33.2
			c-0.5,4.2-1.2,8.4-2.2,12.5"/>
		<path class="st54" d="M-1.3,446.1c0.4,0,0.7,0,1.1-0.1c43.9-9.4,100.1-11.1,150.3-4.6c27.6,3.6,52.3,9.5,73.5,17.5
			c23.1,8.7,41.3,19.7,54.3,32.7c8.3,8.1,14.8,18,18.8,28.9c0.7,1.9,1.3,3.8,1.8,5.7c2.4,9.1,2.8,20.9,1.5,31.9c-0.5,4-1.2,8-2.2,12
			"/>
		<path class="st55" d="M-1.2,451.5c0.4,0,0.7-0.1,1.1-0.1c41.9-9,95.5-10.6,143.4-4.4c26.3,3.4,49.9,9.1,70.1,16.7
			c22,8.3,39.4,18.8,51.8,31.2c8,7.8,14.1,17.2,18,27.7c0.6,1.8,1.2,3.6,1.7,5.5c2.3,8.8,2.6,20,1.3,30.5c-0.5,3.9-1.2,7.7-2.1,11.5
			"/>
		<path class="st56" d="M-1.2,456.9c0.3,0,0.7,0,1-0.1c39.9-8.6,90.9-10.1,136.5-4.1c25,3.3,47.5,8.6,66.8,15.9
			c20.9,7.9,37.5,17.9,49.3,29.7c7.6,7.4,13.5,16.5,17.2,26.5c0.6,1.7,1.1,3.5,1.6,5.2c2.2,8.4,2.5,19.1,1.2,29.2
			c-0.5,3.7-1.1,7.4-2,11"/>
		<path class="st57" d="M-1.1,462.3c0.3,0,0.7,0,1-0.1c37.8-8.1,86.3-9.6,129.6-3.9c23.8,3.1,45.1,8.2,63.4,15.1
			c19.9,7.5,35.6,17,46.8,28.2c7.3,7.1,12.8,15.7,16.3,25.2c0.6,1.6,1.1,3.3,1.5,5c2,8,2.3,18.2,1,27.8c-0.5,3.5-1.1,7-2,10.4"/>
		<path class="st58" d="M-1.1,467.8c0.3,0,0.6,0,0.9-0.1c35.8-7.7,81.7-9.1,122.6-3.7c22.5,2.9,42.7,7.8,60,14.3
			c18.8,7.1,33.7,16.1,44.3,26.6c6.9,6.7,12.2,14.9,15.5,24c0.6,1.5,1,3.1,1.4,4.7c1.9,7.7,2.1,17.3,0.9,26.5
			c-0.5,3.3-1.1,6.7-1.9,9.9"/>
		<path class="st59" d="M-1,473.2c0.3,0,0.6,0,0.9-0.1c33.8-7.3,77.1-8.6,115.7-3.5c21.2,2.8,40.3,7.3,56.6,13.5
			c17.8,6.7,31.8,15.2,41.8,25.1c6.5,6.4,11.5,14.2,14.6,22.8c0.5,1.5,1,3,1.3,4.5c1.8,7.3,2,16.4,0.8,25.1
			c-0.4,3.2-1.1,6.3-1.8,9.4"/>
		<path class="st60" d="M-1,478.2c0.3,0,0.5,0,0.8-0.1c31.8-6.8,72.5-8.1,108.8-3.3c19.9,2.6,37.8,6.9,53.2,12.7
			c16.7,6.3,29.9,14.3,39.3,23.6c6.2,6,11,13.4,13.9,21.6c0.5,1.4,0.9,2.8,1.3,4.2c1.7,7.8,1.9,15.8,0.6,23.7
			c-0.4,3.1-1,6.2-1.8,9.3"/>
		<path class="st61" d="M-1,483.6c0.3,0,0.5,0,0.8-0.1c29.8-6.4,67.8-7.6,101.9-3.1c18.7,2.5,35.4,6.4,49.8,11.9
			c15.6,5.9,28,13.4,36.8,22.1c5.8,5.7,10.3,12.7,13,20.4c0.5,1.3,0.8,2.7,1.2,4c1.6,7.4,1.8,15,0.6,22.4c-0.4,2.6-1.1,6.5-1.7,8.8"
			/>
		<path class="st62" d="M-0.9,489h0.7c27.7-6,63.2-7,95-2.9c17.4,2.3,33,6,46.4,11.1c14.6,5.5,26.1,12.4,34.3,20.6
			c5.5,5.4,9.7,11.9,12.2,19.2c0.4,1.2,0.8,2.5,1.1,3.8c1.5,6.9,1.6,14,0.4,21c-0.4,2.4-1.1,6.2-1.6,8.3"/>
		<path class="st63" d="M-0.9,494.5c0.2,0,0.5,0,0.7-0.1c25.7-5.5,58.6-6.5,88-2.7c14.7,1.8,29.2,5.2,43.1,10.3
			c13.5,5.1,24.2,11.5,31.8,19.1c5.1,5,9,11.1,11.4,17.9c0.4,1.2,0.7,2.3,1,3.5c1.3,6.5,1.4,13.2,0.2,19.7c-0.4,2.2-1,5.8-1.6,7.8"
			/>
		<path class="st64" d="M-0.8,499.9c0.2,0,0.4,0,0.6-0.1c23.7-5.1,54-6,81.1-2.5c13.6,1.6,26.9,4.8,39.7,9.5
			c12.4,4.7,22.3,10.6,29.3,17.6c4.8,4.7,8.4,10.4,10.5,16.7c0.4,1.1,0.7,2.2,0.9,3.3c1.2,6,1.3,12.3,0.1,18.3
			c-0.4,2.4-0.9,4.8-1.5,7.2"/>
		<path class="st65" d="M-0.8,505.3c0.2,0,0.4,0,0.6-0.1c21.7-4.7,49.4-5.5,74.2-2.3c12.4,1.5,24.6,4.4,36.3,8.6
			c11.4,4.3,20.4,9.7,26.8,16.1c4.4,4.3,7.8,9.6,9.7,15.5c0.3,1,0.6,2.1,0.8,3.1c1.1,5.6,1.1,11.4,0,17c-0.3,1.8-1,5.1-1.4,6.7"/>
		<path class="st66" d="M-0.8,510.7c0.2,0,0.3,0,0.5-0.1c19.7-4.2,44.8-5,67.3-2c11.2,1.4,22.3,4,32.9,7.8
			c10.3,3.9,18.5,8.8,24.3,14.6c4.1,4,7.1,8.9,8.9,14.3c0.3,0.9,0.5,1.9,0.7,2.8c1,5.2,0.9,10.5-0.2,15.6c-0.4,2.1-0.9,4.2-1.5,6.2"
			/>
		<path class="st67" d="M-0.7,516.2c0.2,0,0.3,0,0.5-0.1c17.6-3.8,40.2-4.5,60.4-1.8c10.1,1.2,20,3.5,29.5,7
			c9.3,3.5,16.6,7.9,21.8,13.1c3.7,3.6,6.5,8.1,8.1,13.1c1.5,5.1,1.6,16.5,0.3,22.5"/>
	</g>
</svg>
