<svg xmlns="http://www.w3.org/2000/svg" viewBox="0 0 1400 570">
<style type="text/css">
	.st0{opacity:0.21;}
	.st1{fill:none;stroke:#383E45;stroke-width:2;stroke-miterlimit:10;}
	@media only screen and (max-width: 300px) {
		.st0{opacity:.7;}
	}
</style>
	<g class="st0">
		<line class="st1" x1="0" y1="568.9" x2="1397.4" y2="0"/>
		<line class="st1" x1="0" y1="568.9" x2="1397.2" y2="21.2"/>
		<line class="st1" x1="0" y1="568.9" x2="1397.2" y2="43.1"/>
		<line class="st1" x1="0" y1="568.9" x2="1397.4" y2="65.7"/>
		<line class="st1" x1="0" y1="568.9" x2="1397.3" y2="89.1"/>
		<line class="st1" x1="1400.1" y1="6" x2="1383.4" y2="7.4"/>
		<line class="st1" x1="0" y1="568.9" x2="1397.2" y2="113.3"/>
		<line class="st1" x1="1400" y1="18.1" x2="1355" y2="19"/>
		<line class="st1" x1="0" y1="568.9" x2="1396.1" y2="138.7"/>
		<line class="st1" x1="1400" y1="34.1" x2="1326.6" y2="30.7"/>
		<line class="st1" x1="0" y1="568.9" x2="1397.1" y2="164.3"/>
		<line class="st1" x1="1399.8" y1="54" x2="1298.1" y2="42.3"/>
		<line class="st1" x1="0" y1="568.9" x2="1397.2" y2="191.2"/>
		<line class="st1" x1="1399.7" y1="78" x2="1269.7" y2="53.9"/>
		<line class="st1" x1="0" y1="568.9" x2="1397.3" y2="219.1"/>
		<line class="st1" x1="1400" y1="106.3" x2="1241.3" y2="65.5"/>
		<line class="st1" x1="0" y1="568.9" x2="1397.2" y2="248.1"/>
		<line class="st1" x1="1400.1" y1="138.8" x2="1212.8" y2="77.1"/>
		<line class="st1" x1="0" y1="568.9" x2="1397.1" y2="278.2"/>
		<line class="st1" x1="1400.1" y1="175.7" x2="1184.4" y2="88.7"/>
		<line class="st1" x1="0" y1="568.9" x2="1397.3" y2="309.5"/>
		<line class="st1" x1="1399.9" y1="217.1" x2="1156" y2="100.3"/>
		<line class="st1" x1="0" y1="568.9" x2="1397.2" y2="342"/>
		<line class="st1" x1="1399.9" y1="263.1" x2="1127.6" y2="111.9"/>
		<line class="st1" x1="0" y1="568.9" x2="1397.2" y2="375.9"/>
		<line class="st1" x1="1399.9" y1="313.9" x2="1099.1" y2="123.5"/>
		<line class="st1" x1="0" y1="568.9" x2="1397.2" y2="411.3"/>
		<line class="st1" x1="1400.1" y1="369.8" x2="1070.7" y2="135.1"/>
		<line class="st1" x1="0" y1="568.9" x2="1397.3" y2="448.1"/>
		<line class="st1" x1="1400" y1="430.4" x2="1042.3" y2="146.7"/>
		<line class="st1" x1="0" y1="568.9" x2="1397" y2="486.6"/>
		<line class="st1" x1="1399.8" y1="496.1" x2="1013.8" y2="158.3"/>
		<line class="st1" x1="0" y1="568.9" x2="1397.2" y2="526.8"/>
		<line class="st1" x1="1399.6" y1="567" x2="985.4" y2="169.9"/>
		<line class="st1" x1="0" y1="568.9" x2="1396.1" y2="568.9"/>
	</g>
	<g class="st0">
		<line class="st1" x1="1394.5" y1="570" x2="0" y2="570"/>
	</g>
</svg>
