<svg xmlns="http://www.w3.org/2000/svg" xmlns:xlink="http://www.w3.org/1999/xlink" viewBox="0 -1022.8 1400 1400">
<style type="text/css">
	.st0{fill-rule:evenodd;clip-rule:evenodd;fill:#FFFFFF;}
	.st1{opacity:0.23;fill:none;stroke:#3AADAA;stroke-width:0.75;enable-background:new    ;}
	.st2{fill:none;stroke:#3AADAA;stroke-width:0.8749;}
	.st3{opacity:0.23;fill:none;stroke:#3AADAA;stroke-width:0.75;stroke-dasharray:8.7492;enable-background:new    ;}
</style>
<g>
	<path class="st0" d="M0,339.9c28.6,19.4,62.4,34.8,115.8,34.8c145.8,0,145.8-51.2,291.6-51.2s145.8,52.4,291.6,52.4
		s145.8-92.3,291.6-92.3s145.8,89,291.6,89c54.9,0,88.4-4.6,117.5-10.3l0.4,15.6L0,377.8V339.9z"/>
	<path class="st1" d="M0,329c28.6,25.3,62.4,45.3,115.8,45.3c145.8,0,145.8-66.8,291.6-66.8s145.8,68.2,291.6,68.2
		s145.8-120.2,291.7-120.2s145.8,116,291.6,116c54.8,0,88.4-6,117.5-13.4"/>
	<path class="st2" d="M0,328.2c28.6,25.1,62.4,44.9,115.8,44.9c145.8,0,145.8-74.2,291.6-74.2S553.2,375,699.1,375
		s145.8-129.4,291.7-129.4s145.8,120.6,291.6,120.6c54.6,0,88.5-8.3,117.5-18.8"/>
	<path class="st1" d="M0,327.2c28.6,24.9,62.4,44.5,115.8,44.5c145.8,0,145.8-81.5,291.6-81.5s145.8,83.9,291.6,83.9
		s145.8-138.5,291.7-138.5s145.8,125,291.6,125c54.9,0,88.4-10.9,117.5-24.4"/>
	<path class="st3" d="M0,326.9c28.6,24.8,62.4,44.4,115.8,44.4c145.8,0,145.8-89.4,291.6-89.4s145.8,92.2,291.6,92.2
		s145.8-148.4,291.7-148.4s145.8,130.2,291.6,130.2c54.6,0,88.5-13.2,117.5-29.8"/>
	<path class="st1" d="M0,325.9c28.6,24.6,62.4,44,115.8,44c145.8,0,145.8-96.8,291.6-96.8s145.9,100,291.7,100
		s145.8-157.5,291.6-157.5s145.8,134.8,291.6,134.8c54.7,0,88.4-15.7,117.5-35.4"/>
	<path class="st1" d="M0,325.7c28.6,24.5,62.4,43.8,115.8,43.8c145.8,0,145.8-104.5,291.6-104.5s145.9,108.2,291.7,108.2
		s145.8-167.1,291.6-167.1s145.8,139.7,291.6,139.7c54.4,0,88.6-18,117.5-40.5"/>
	<path class="st1" d="M0,324.7c28.6,24.2,62.5,43.5,115.8,43.5c145.8,0,145.8-112,291.6-112s145.8,116.2,291.6,116.2
		s145.8-176.4,291.6-176.4s145.8,144.4,291.6,144.4c54.8,0,88.4-20.7,117.5-46.5"/>
	<path class="st1" d="M0,324.6c28.6,24.1,62.4,43.1,115.8,43.1c145.8,0,145.8-119.5,291.6-119.5s145.9,124.2,291.7,124.2
		s145.8-185.7,291.6-185.7s145.8,149.1,291.6,149.1c54.5,0,88.5-22.9,117.5-51.5"/>
	<path class="st1" d="M0,323.6c28.6,23.9,62.4,42.8,115.8,42.8c145.8,0,145.8-127,291.6-127s145.8,132,291.6,132
		s145.8-195,291.6-195s145.8,153.8,291.6,153.8c54.7,0,88.5-25.5,117.5-57.3"/>
	<path class="st1" d="M0,322.6c28.6,23.7,62.4,42.5,115.8,42.5c145.8,0,145.8-134.5,291.6-134.5s145.8,140,291.6,140
		s145.8-204.3,291.7-204.3s145.8,158.5,291.6,158.5c54.6,0,88.5-27.8,117.5-62.5"/>
	<path class="st1" d="M0,321.6c28.6,23.6,62.4,42.1,115.8,42.1c145.8,0,145.8-142,291.6-142s145.9,148,291.7,148
		s145.8-213.6,291.6-213.6s145.8,163.2,291.6,163.2c54.4,0,88.6-31.5,117.5-71"/>
	<path class="st1" d="M0,321.7c28.6,23.4,62.4,42,115.8,42c145.8,0,145.7-164.8,291.5-164.8s146,171.3,291.8,171.3
		s146-250.2,291.8-250.2S1136.6,315,1282.4,315c54.4,0,88.6-40,117.5-90.2"/>
	<path class="st1" d="M0,291.8c28.6,38.1,62.4,68.3,115.8,68.3c145.9,0,145.9-243.9,291.7-243.9s145.8,254.4,291.6,254.4
		S844.9,6.8,990.7,6.8s145.8,274,291.6,274c54.6,0,88.5-53.2,117.5-119.8"/>
</g>
</svg>
