<svg xmlns="http://www.w3.org/2000/svg" xmlns:xlink="http://www.w3.org/1999/xlink" viewBox="0 0 1400 1400">
<style type="text/css">
	.st0{fill:url(#SVGID_1_);}
	.st1{fill:url(#SVGID_2_);}
	.st2{fill:url(#SVGID_3_);}
	.st3{fill:url(#SVGID_4_);}
	.st4{opacity:0.15;}
	.st5{fill:url(#SVGID_5_);}
	.st6{fill:#3AADAA;}
</style>
<linearGradient id="SVGID_1_" gradientUnits="userSpaceOnUse" x1="1169.5483" y1="357.8093" x2="1238.7761" y2="517.4799">
	<stop  offset="0.3242" style="stop-color:#3AADAA;stop-opacity:0.1"/>
	<stop  offset="0.9693" style="stop-color:#FFFFFF;stop-opacity:0"/>
</linearGradient>
<linearGradient id="SVGID_2_" gradientUnits="userSpaceOnUse" x1="412.4055" y1="490.2253" x2="419.1031" y2="625.8529">
	<stop  offset="0" style="stop-color:#3AADAA;stop-opacity:0.1"/>
	<stop  offset="1" style="stop-color:#FFFFFF;stop-opacity:0"/>
</linearGradient>
<linearGradient id="SVGID_3_" gradientUnits="userSpaceOnUse" x1="1194.8689" y1="171.3124" x2="1138.776" y2="484.428">
	<stop  offset="0" style="stop-color:#3AADAA;stop-opacity:0.1"/>
	<stop  offset="1" style="stop-color:#FFFFFF;stop-opacity:0"/>
</linearGradient>
<linearGradient id="SVGID_4_" gradientUnits="userSpaceOnUse" x1="1195.4164" y1="270.6626" x2="1069.0134" y2="521.7943">
	<stop  offset="0" style="stop-color:#3AADAA;stop-opacity:0.1"/>
	<stop  offset="1" style="stop-color:#FFFFFF;stop-opacity:0"/>
</linearGradient>
<linearGradient id="SVGID_5_" gradientUnits="userSpaceOnUse" x1="804.8035" y1="458.3308" x2="798.1058" y2="556.5632">
	<stop  offset="0.3242" style="stop-color:#3AADAA;stop-opacity:0.1"/>
	<stop  offset="0.9693" style="stop-color:#FFFFFF;stop-opacity:0"/>
</linearGradient>
<g transform="translate(0 830)">
	<path class="st0" d="M1216,510.2c80.5-14.2,182-70.1,184-71.2V319c-59.6,55-214.8,138.3-300.1,173c-24.2,8.1-58.9,20.2-106.6,29.7
	C1055.2,526.8,1127.1,525.9,1216,510.2z"/>
	<path class="st1" d="M299.9,561.1c92.4,0,211.5-37.8,309.7-59.9c-47.9-10.4-91.6-17.2-135.3-9.8c-61.6,10.5-109.8,31.6-174.4,49.3
	c-24.6,6.8-52.2,12.8-80.8,17.6C245.7,560,273,561.1,299.9,561.1z"/>
	<path class="st2" d="M1216,510.2c78.7-13.9,177.7-67.8,184-71.2V242.6c-80.5-24-217.1-23.9-300.1,29.2
	c-99.1,63.5-144,152.1-218.1,234.2C967.4,521.6,1068.2,536.3,1216,510.2z"/>
	<path class="st3" d="M1216,510.2c80.8-14.3,182.7-70.5,184-71.2V383c-80.3-11.2-171.5-58-300.1-36c-110.7,19.8-203.6,81-304.7,143.9
	C902,506.2,1016,545.5,1216,510.2z"/>
	<path class="st4 st6" d="M1216,510.2c-88.9,15.7-160.8,16.6-222.7,11.5c-39.7,7.9-88.5,14-147.7,14.5c-94.6,0.7-169.7-20.5-236.6-34.9
		c-98.1,22.2-216.8,59.8-309.1,59.8C155.5,561.1,0,530.8,0,530.8V570h1400V439C1400,439,1297.3,495.9,1216,510.2z"/>
	<path class="st5" d="M845.6,536.2c59.3-0.5,108-6.6,147.7-14.5c-118.6-9.9-200.1-42.1-293.4-35.5c-26.7,1.9-57.6,7.6-90.9,15.1
		C675.9,515.7,751,536.9,845.6,536.2z"/>
	<path class="st6" d="M1250.9,228c-76.7,5.1-124.5,26.5-151.1,43.6c-67.6,43.3-109.4,97.6-153.7,155c-37.7,48.9-76,98.8-132,143.4
		h0.8c55.8-44.5,94.1-94.3,131.6-143.1c44.2-57.4,86-111.6,153.5-154.9c26.6-17,74.3-38.4,150.8-43.5c52.4-3.5,106.8,1.7,149.1,14.3
		v-0.5C1357.6,229.7,1303.3,224.5,1250.9,228z"/>
	<path class="st6" d="M1325.6,366.3c-63.3-16.4-135-35-225.7-19.5C996,365.4,907.5,420.6,813.8,479c-49.7,31-100.7,62.9-156.5,91h1.1
		c55.5-28,106.2-59.7,155.6-90.6C907.7,421,996.1,365.8,1100,347.2c90.6-15.5,162.3,3.1,225.5,19.5c26.1,6.8,50.9,13.2,74.5,16.5
		v-0.5C1376.4,379.4,1351.7,373,1325.6,366.3z"/>
	<path class="st6" d="M299.9,561.3C157.1,561.3,1.6,531.5,0,531.2v-0.5c1.6,0.3,157.2,30.1,299.9,30.1c69.3,0,152.3-20.9,232.7-41.2
		c62.2-15.7,121-30.5,167.3-33.8c54.5-3.8,103.8,5.4,161,16c91.4,17,195.1,36.3,355,8.1c80.4-14.2,183-70.6,184-71.2v0.6
		c-1,0.6-103.5,57-184,71.1c-71.3,12.6-138,16.8-203.8,12.8c-57.5-3.5-105.3-12.3-151.4-20.9c-57.1-10.6-106.5-19.8-160.9-16
		c-46.2,3.3-105,18.1-167.2,33.7C452.3,540.4,369.2,561.3,299.9,561.3z"/>
	<path class="st6" d="M1400,318.8c-27,24.9-76.9,58.4-140.5,94.1c-55.8,31.4-115.5,60.9-159.7,78.9c-1.7,0.6-3.5,1.2-5.3,1.8
		C1048.3,509,971,535,845.6,535.9c-1.5,0-3,0-4.5,0c-77.7,0-142.5-14.7-199.9-27.7c-61.7-14-114.9-26.1-168.3-16.9
		c-33.7,5.8-63.1,15.3-97.1,26.3c-27.9,9-59.6,19.3-99.4,29.2c-69.8,17.4-155.7,21.9-218.1,23.2h19.3c60.1-1.9,136-7,198.9-22.8
		c39.8-9.9,71.4-20.2,99.4-29.2c34-11,63.4-20.5,97-26.2c53.2-9.1,106.5,3,168.1,16.9c57.4,13,122.2,27.7,200,27.7c1.5,0,3,0,4.5,0
		c125.5-1,202.9-26.9,249.1-42.4c1.8-0.6,3.6-1.2,5.3-1.8c44.2-18,103.9-47.5,159.7-78.9c63.6-35.8,113.2-69,140.2-93.9V318.8z"/>
</g>
</svg>
