<svg xmlns="http://www.w3.org/2000/svg" xmlns:xlink="http://www.w3.org/1999/xlink" viewBox="0 0 1400 570">
  <defs>
    <clipPath id="clip-path">
      <rect y="101" width="1400" height="469" style="fill: none"/>
    </clipPath>
    <linearGradient id="linear-gradient" x1="684.72" y1="3446.51" x2="729.2" y2="3528.89" gradientTransform="translate(0 -2983.05)" gradientUnits="userSpaceOnUse">
      <stop offset="0" stop-color="#3aadaa" stop-opacity="0.1"/>
      <stop offset="1" stop-color="#ffffff" stop-opacity="0"/>
    </linearGradient>
    <linearGradient id="linear-gradient-2" x1="936.3" y1="3339.51" x2="1084.41" y2="3519.84" xlink:href="#linear-gradient"/>
    <linearGradient id="linear-gradient-3" x1="694.86" y1="3495.17" x2="771.11" y2="3667.55" xlink:href="#linear-gradient"/>
    <linearGradient id="linear-gradient-4" x1="676.87" y1="3472.46" x2="715.88" y2="3577.47" xlink:href="#linear-gradient"/>
    <linearGradient id="linear-gradient-5" x1="13005.7" y1="3525.8" x2="13006.04" y2="3525.81" gradientTransform="matrix(1600.09, 0, 0, -622.2, -20809744.31, 2194265.26)" gradientUnits="userSpaceOnUse">
      <stop offset="0" stop-color="#FFFFFF" stop-opacity="0"/>
      <stop offset="0.92" stop-color="#FFFFFF"/>
      <stop offset="1" stop-color="#FFFFFF" stop-opacity="0"/>
    </linearGradient>
  </defs>
    <g style="clip-path: url(#clip-path)">
        <path id="path-3" d="M299.92,540.73C364.5,523,417.53,501.94,479.1,491.42c104.38-17.85,203.58,45.95,366.5,44.75,130.5-1,210-29.37,254.33-44.15,85.26-34.72,240.57-118,300.17-173V664.89H.1v-91C52.5,573.92,173.34,575.46,299.92,540.73Z" style="fill: url(#linear-gradient)"/>
        <path id="path-9" d="M634,665c285.1-95.37,293.23-282.5,465.94-393.17C1182.93,218.67,1317.5,218,1398,242l2.1,422.89Z" style="fill: url(#linear-gradient-2)"/>
        <path id="path-3-2" d="M.1,571c52.4,0,180.4,0,276.4-24,87.77-21.94,134.88-44.93,196.45-55.46,104.38-17.85,209.74,45.83,372.64,44.63,130.5-1,210-29.37,254.33-44.16,85.27-34.71,240.58-118,300.18-173" style="fill: none;stroke: #3aadaa;stroke-width: 0.5px"/>
        <path id="path-13" d="M299.92,657.6c384.9,0,545-264.93,800-310.64,128.57-22,219.86,24.83,300.18,36V665H.1V594C60.56,620.42,159.57,657.6,299.92,657.6Z" style="fill: url(#linear-gradient-3)"/>
        <path id="path-6" d="M299.92,561.1c123.57,0,294.68-67.5,400-74.93C841.85,476.18,956.5,556,1216,510.23c81.35-14.34,184.1-71.23,184.1-71.23V664.89H.1V585S155.5,561.1,299.92,561.1Z" style="fill: url(#linear-gradient-4)"/>
        <path d="M1097.38,347.68l2.44-.94.14.5ZM301.26,657.35h-1.34l.09.5Z" style="fill: none;stroke-width: 0.5px;stroke: url(#linear-gradient-5)"/>
        <path id="path-9-2" d="M634,665c285.1-95.37,293.23-282.5,465.94-393.17C1182.93,218.67,1317.5,218,1398,242" style="fill: none;stroke: #3aadaa;stroke-width: 0.5px"/>
        <path id="path-13-2" d="M604.66,594.76C794.16,513.43,924.59,378.39,1099.92,347c128.57-22,219.86,24.83,300.18,36" style="fill: none;stroke: #3aadaa;stroke-width: 0.5px"/>
        <path id="path-6-2" d="M.1,531s155.4,30.1,299.82,30.1c123.57,0,294.68-67.5,400-74.93C841.85,476.18,956.5,556,1216,510.23c81.35-14.34,184.1-71.23,184.1-71.23" style="fill: none;stroke: #3aadaa;stroke-width: 0.5px"/>
    </g>
</svg>
