<svg viewBox="0 0 2000 2000" fill="none" xmlns="http://www.w3.org/2000/svg" stroke="#3AADAA" preserveAspectRatio="xMidYMid slice">
    <g opacity=".25">
        <path d="M1765.15 1220.22C1771.97 1258.95 1757.62 1298.38 1727.49 1323.66L1192.41 1772.65C1162.29 1797.93 1120.96 1805.21 1084 1791.76L427.629 1552.86C390.674 1539.41 363.698 1507.26 356.867 1468.53L235.575 780.645C228.749 741.915 243.101 702.483 273.23 677.204L808.311 228.216C838.435 202.936 879.762 195.65 916.717 209.1L1573.09 448.001C1610.05 461.451 1637.02 493.598 1643.85 532.329L1765.15 1220.22Z"/>
        <path opacity="0.98" d="M1758.31 1189.88C1766.34 1227.65 1753.61 1266.84 1724.91 1292.67L1215.26 1751.56C1186.57 1777.4 1146.27 1785.97 1109.55 1774.03L457.313 1562.11C420.591 1550.18 393.021 1519.56 384.991 1481.79L242.406 810.977C234.381 773.209 247.112 734.026 275.809 708.189L785.458 249.299C814.149 223.461 854.451 214.896 891.173 226.827L1543.41 438.751C1580.13 450.682 1607.7 481.301 1615.73 519.071L1758.31 1189.88Z"/>
        <path opacity="0.96" d="M1750.31 1160.3C1759.48 1197.07 1748.33 1235.94 1721.07 1262.27L1236.88 1729.84C1209.63 1756.17 1170.39 1765.95 1133.96 1755.51L486.935 1569.97C450.506 1559.53 422.414 1530.44 413.244 1493.67L250.407 840.561C241.242 803.79 252.388 764.92 279.651 738.594L763.838 271.019C791.096 244.692 830.334 234.91 866.763 245.356L1513.79 430.887C1550.22 441.333 1578.31 470.421 1587.48 507.194L1750.31 1160.3Z"/>
        <path opacity="0.95" d="M1741.19 1131.51C1751.44 1167.25 1741.84 1205.75 1716.01 1232.49L1257.25 1707.55C1231.43 1734.29 1193.29 1745.23 1157.21 1736.23L516.43 1576.47C480.353 1567.47 451.811 1539.91 441.56 1504.17L259.53 869.353C249.284 833.611 258.882 795.115 284.714 768.369L743.465 293.316C769.292 266.568 807.431 255.633 843.508 264.628L1484.29 424.393C1520.37 433.388 1548.91 460.949 1559.16 496.692L1741.19 1131.51Z"/>
        <path opacity="0.93" d="M1730.99 1103.55C1742.25 1138.23 1734.16 1176.3 1709.76 1203.4L1276.36 1684.73C1251.97 1711.83 1214.96 1723.86 1179.29 1716.27L545.743 1581.61C510.073 1574.03 481.154 1547.99 469.884 1513.31L269.734 897.309C258.468 862.627 266.558 824.566 290.961 797.465L724.357 316.13C748.755 289.029 785.764 277.005 821.434 284.587L1454.98 419.251C1490.65 426.833 1519.57 452.87 1530.84 487.553L1730.99 1103.55Z"/>
        <path opacity="0.91" d="M1719.75 1076.47C1731.98 1110.07 1725.35 1147.63 1702.37 1175.02L1294.2 1661.46C1271.22 1688.85 1235.37 1701.9 1200.17 1695.69L574.813 1585.42C539.605 1579.21 510.38 1554.69 498.15 1521.1L280.968 924.391C268.743 890.795 275.367 853.226 298.35 825.838L706.52 339.4C729.498 312.011 765.348 298.964 800.556 305.172L1425.91 415.439C1461.12 421.647 1490.34 446.169 1502.57 479.766L1719.75 1076.47Z"/>
        <path opacity="0.89" d="M1707.54 1050.3C1720.66 1082.79 1715.46 1119.81 1693.88 1147.42L1310.76 1637.8C1289.19 1665.41 1254.53 1679.41 1219.83 1674.54L603.587 1587.93C568.891 1583.05 539.429 1560.03 526.302 1527.55L293.185 950.562C280.063 918.076 285.266 881.054 306.839 853.444L689.965 363.065C711.533 335.455 746.198 321.45 780.893 326.326L1397.14 412.934C1431.83 417.81 1461.29 440.827 1474.42 473.313L1707.54 1050.3Z"/>
        <path opacity="0.88" d="M1694.39 1025.08C1708.35 1056.43 1704.52 1092.85 1684.34 1120.62L1326.03 1613.8C1305.86 1641.56 1272.4 1656.46 1238.27 1652.87L632.006 1589.15C597.872 1585.56 568.242 1564.04 554.28 1532.68L306.334 975.786C292.377 944.431 296.205 908.009 316.381 880.242L674.694 387.065C694.866 359.297 728.324 344.401 762.457 347.989L1368.72 411.709C1402.85 415.297 1432.48 436.823 1446.44 468.179L1694.39 1025.08Z"/>
        <path opacity="0.86" d="M1680.36 1000.83C1695.09 1031.04 1692.58 1066.81 1673.79 1094.67L1340.01 1589.52C1321.22 1617.39 1288.99 1633.11 1255.46 1630.76L660.016 1589.12C626.491 1586.78 596.761 1566.73 582.027 1536.52L320.363 1000.03C305.634 969.824 308.135 934.052 326.93 906.19L660.712 411.338C679.502 383.476 711.734 367.756 745.258 370.1L1340.7 411.738C1374.23 414.082 1403.96 434.134 1418.69 464.341L1680.36 1000.83Z"/>
        <path opacity="0.84" d="M1665.5 977.596C1680.94 1006.64 1679.71 1041.71 1662.28 1069.61L1352.7 1565.04C1335.27 1592.93 1304.28 1609.41 1271.41 1608.26L687.57 1587.87C654.699 1586.72 624.934 1568.13 609.49 1539.08L335.225 1023.27C319.786 994.223 321.011 959.148 338.443 931.254L648.021 435.824C665.448 407.93 696.439 391.453 729.31 392.601L1313.15 412.989C1346.02 414.137 1375.79 432.735 1391.23 461.778L1665.5 977.596Z"/>
        <path opacity="0.82" d="M1649.86 955.397C1665.95 983.264 1665.95 1017.6 1649.86 1045.46L1364.11 1540.4C1348.02 1568.26 1318.29 1585.43 1286.11 1585.43H714.611C682.435 1585.43 652.7 1568.26 636.609 1540.4L350.859 1045.46C334.774 1017.6 334.774 983.264 350.864 955.397L636.614 460.464C652.7 432.597 682.435 415.431 714.611 415.431L1286.11 415.431C1318.29 415.431 1348.02 432.597 1364.11 460.464L1649.86 955.397Z"/>
        <path opacity="0.81" d="M1633.5 934.262C1650.17 960.943 1651.35 994.493 1636.57 1022.27L1374.23 1515.66C1359.47 1543.44 1330.99 1561.23 1299.55 1562.33L741.093 1581.83C709.651 1582.93 680.008 1567.17 663.334 1540.49L367.216 1066.6C350.546 1039.92 349.375 1006.37 364.147 978.588L626.487 485.197C641.255 457.418 669.726 439.628 701.168 438.53L1259.63 419.028C1291.07 417.93 1320.71 433.691 1337.39 460.372L1633.5 934.262Z"/>
        <path opacity="0.79" d="M1616.48 914.211C1633.67 939.702 1635.96 972.429 1622.48 1000.06L1383.09 1490.9C1369.61 1518.53 1342.41 1536.88 1311.74 1539.02L766.969 1577.12C736.298 1579.26 706.809 1564.88 689.614 1539.39L384.239 1086.65C367.048 1061.16 364.76 1028.43 378.24 1000.8L617.634 509.965C631.11 482.33 658.31 463.984 688.982 461.839L1233.75 423.745C1264.42 421.601 1293.91 435.982 1311.11 461.473L1616.48 914.211Z"/>
        <path opacity="0.77" d="M1598.85 895.265C1616.5 919.562 1619.85 951.431 1607.63 978.867L1390.68 1466.15C1378.47 1493.59 1352.54 1512.42 1322.67 1515.56L792.196 1571.32C762.329 1574.46 733.053 1561.42 715.399 1537.13L401.875 1105.6C384.225 1081.3 380.875 1049.43 393.092 1021.99L610.045 534.71C622.257 507.274 648.184 488.439 678.05 485.299L1208.53 429.544C1238.39 426.405 1267.67 439.438 1285.32 463.735L1598.85 895.265Z"/>
        <path opacity="0.75" d="M1580.66 877.442C1598.71 900.544 1603.06 931.521 1592.08 958.704L1397.02 1441.49C1386.04 1468.67 1361.39 1487.93 1332.36 1492.01L816.724 1564.48C787.693 1568.56 758.687 1556.84 740.636 1533.74L420.062 1123.42C402.015 1100.32 397.661 1069.34 408.645 1042.16L603.703 559.373C614.682 532.191 639.334 512.932 668.365 508.852L1184 436.384C1213.03 432.304 1242.03 444.022 1260.08 467.124L1580.66 877.442Z"/>
        <path opacity="0.74" d="M1561.97 860.756C1580.36 882.667 1585.66 912.722 1575.87 939.6L1402.13 1416.96C1392.35 1443.84 1368.97 1463.46 1340.8 1468.42L840.517 1556.64C812.35 1561.6 783.671 1551.17 765.284 1529.26L438.748 1140.11C420.366 1118.19 415.066 1088.14 424.85 1061.26L598.596 583.898C608.376 557.021 631.756 537.404 659.923 532.437L1160.2 444.224C1188.37 439.258 1217.05 449.695 1235.44 471.606L1561.97 860.756Z"/>
        <path opacity="0.72" d="M1542.85 845.221C1561.5 865.946 1567.69 895.051 1559.07 921.574L1406.02 1392.63C1397.4 1419.15 1375.29 1439.06 1348.01 1444.86L863.535 1547.84C836.258 1553.64 807.957 1544.44 789.296 1523.72L457.876 1155.64C439.218 1134.92 433.031 1105.81 441.65 1079.29L594.706 608.229C603.321 581.708 625.436 561.797 652.712 555.999L1137.19 453.021C1164.46 447.223 1192.77 456.417 1211.43 477.141L1542.85 845.221Z"/>
        <path opacity="0.7" d="M1523.34 830.846C1542.21 850.392 1549.22 878.524 1541.73 904.644L1408.71 1368.55C1401.22 1394.67 1380.37 1414.81 1354 1421.38L885.739 1538.13C859.375 1544.71 831.504 1536.71 812.627 1517.17L477.385 1170.02C458.512 1150.47 451.498 1122.34 458.989 1096.22L592.011 632.313C599.499 606.194 620.356 586.054 646.72 579.48L1114.98 462.729C1141.35 456.156 1169.22 464.147 1188.1 483.692L1523.34 830.846Z"/>
        <path opacity="0.68" d="M1503.5 817.638C1522.53 836.017 1530.31 863.153 1523.91 888.825L1410.23 1344.77C1403.83 1370.44 1384.22 1390.74 1358.79 1398.04L907.094 1527.56C881.662 1534.85 854.27 1528.02 835.237 1509.64L497.219 1183.22C478.19 1164.84 470.409 1137.71 476.811 1112.04L590.49 656.095C596.888 630.424 616.499 610.117 641.93 602.825L1093.63 473.303C1119.06 466.011 1146.45 472.84 1165.48 491.218L1503.5 817.638Z"/>
        <path opacity="0.67" d="M1483.4 805.602C1502.53 822.827 1511.01 848.95 1505.66 874.13L1410.6 1321.34C1405.25 1346.52 1386.87 1366.93 1362.39 1374.88L927.57 1516.17C903.089 1524.12 876.221 1518.41 857.09 1501.19L517.324 1195.26C498.196 1178.03 489.709 1151.91 495.062 1126.73L590.119 679.523C595.469 654.344 613.849 633.932 638.33 625.977L1073.15 484.695C1097.63 476.741 1124.5 482.451 1143.63 499.675L1483.4 805.602Z"/>
        <path opacity="0.65" d="M1463.08 794.74C1482.25 810.828 1491.39 835.921 1487.04 860.568L1409.85 1298.31C1405.51 1322.96 1388.34 1343.42 1364.83 1351.98L947.134 1504C923.618 1512.56 897.318 1507.93 878.145 1491.84L537.639 1206.12C518.469 1190.03 509.336 1164.94 513.683 1140.29L590.869 702.547C595.213 677.901 612.379 657.444 635.896 648.884L1053.59 496.857C1077.11 488.297 1103.4 492.934 1122.58 509.02L1463.08 794.74Z"/>
        <path opacity="0.63" d="M1442.62 785.051C1461.77 800.02 1471.49 824.071 1468.1 848.147L1408.01 1275.74C1404.63 1299.82 1388.66 1320.26 1366.12 1329.37L965.758 1491.12C943.217 1500.23 917.527 1496.62 898.368 1481.65L558.106 1215.81C538.95 1200.84 529.232 1176.79 532.617 1152.71L592.711 725.117C596.093 701.042 612.065 680.6 634.606 671.493L1034.96 509.738C1057.5 500.631 1083.19 504.241 1102.35 519.208L1442.62 785.051Z"/>
        <path opacity="0.61" d="M1422.05 776.532C1441.14 790.403 1451.38 813.404 1448.91 836.872L1405.1 1253.68C1402.64 1277.14 1387.84 1297.51 1366.28 1307.11L983.417 1477.57C961.861 1487.17 936.82 1484.54 917.728 1470.67L578.67 1224.33C559.581 1210.46 549.34 1187.46 551.808 1163.99L595.616 747.185C598.08 723.718 612.881 703.349 634.437 693.751L1017.3 523.288C1038.86 513.691 1063.9 516.322 1082.99 530.192L1422.05 776.532Z"/>
        <path opacity="0.6" d="M1401.45 769.179C1420.41 781.975 1431.12 803.919 1429.52 826.745L1401.17 1232.16C1399.58 1254.98 1385.92 1275.22 1365.36 1285.25L1000.09 1463.41C979.523 1473.44 955.166 1471.73 936.195 1458.94L599.275 1231.68C580.307 1218.89 569.604 1196.94 571.201 1174.12L599.55 768.706C601.144 745.881 614.798 725.64 635.363 715.609L1000.63 537.456C1021.2 527.425 1045.55 529.128 1064.53 541.923L1401.45 769.179Z"/>
        <path opacity="0.58" d="M1380.86 762.982C1399.65 774.729 1410.76 795.612 1409.98 817.766L1396.24 1211.23C1395.47 1233.38 1382.94 1253.44 1363.37 1263.84L1015.75 1448.67C996.179 1459.08 972.54 1458.26 953.741 1446.51L619.864 1237.88C601.068 1226.13 589.964 1205.25 590.738 1183.1L604.478 789.635C605.25 767.483 617.784 747.424 637.356 737.018L984.972 552.188C1004.54 541.781 1028.18 542.606 1046.98 554.352L1380.86 762.982Z"/>
        <path opacity="0.56" d="M1360.34 757.93C1378.91 768.657 1390.36 788.48 1390.36 809.932L1390.36 1190.93C1390.36 1212.38 1378.91 1232.21 1360.34 1242.93L1030.38 1433.43C1011.81 1444.16 988.915 1444.16 970.337 1433.43L640.381 1242.93C621.805 1232.2 610.361 1212.38 610.362 1190.93L610.361 809.93C610.36 788.479 621.805 768.656 640.382 757.931L970.337 567.431C988.914 556.706 1011.8 556.705 1030.38 567.43L1360.34 757.93Z"/>
        <path opacity="0.54" d="M1339.95 754.012C1358.25 763.748 1369.98 782.512 1370.7 803.237L1383.56 1171.31C1384.28 1192.04 1373.89 1211.57 1356.31 1222.56L1043.97 1417.73C1026.39 1428.72 1004.27 1429.49 985.963 1419.76L660.774 1246.85C642.466 1237.11 630.741 1218.35 630.018 1197.62L617.164 829.549C616.439 808.826 626.827 789.289 644.412 778.301L956.748 583.132C974.333 572.144 996.447 571.371 1014.76 581.106L1339.95 754.012Z"/>
        <path opacity="0.53" d="M1319.73 751.212C1337.73 759.99 1349.67 777.7 1351.07 797.674L1375.88 1152.41C1377.27 1172.38 1367.91 1191.58 1351.31 1202.78L1056.5 1401.62C1039.91 1412.82 1018.59 1414.31 1000.6 1405.53L680.988 1249.65C662.994 1240.87 651.048 1223.16 649.652 1203.19L624.846 848.454C623.448 828.482 632.814 809.281 649.412 798.085L944.217 599.237C960.815 588.041 982.127 586.55 1000.12 595.327L1319.73 751.212Z"/>
        <path opacity="0.51" d="M1299.75 749.511C1317.39 757.365 1329.5 774.03 1331.51 793.232L1367.36 1134.25C1369.38 1153.45 1361 1172.27 1345.38 1183.62L1067.97 1385.17C1052.35 1396.52 1031.86 1398.67 1014.22 1390.82L700.967 1251.35C683.331 1243.5 671.223 1226.83 669.206 1207.63L633.363 866.609C631.343 847.409 639.723 828.589 655.342 817.241L932.753 615.69C948.372 604.343 968.86 602.189 986.498 610.041L1299.75 749.511Z"/>
        <path opacity="0.49" d="M1280.06 748.89C1297.29 755.855 1309.51 771.487 1312.09 789.898L1358.05 1116.88C1360.64 1135.29 1353.2 1153.69 1338.55 1165.13L1078.35 1368.42C1063.7 1379.87 1044.06 1382.63 1026.82 1375.67L720.665 1251.97C703.429 1245.01 691.216 1229.37 688.629 1210.96L642.674 883.977C640.085 865.568 647.517 847.174 662.167 835.729L922.368 632.438C937.017 620.992 956.662 618.23 973.901 625.194L1280.06 748.89Z"/>
        <path opacity="0.47" d="M1260.69 749.326C1277.49 755.441 1289.75 770.053 1292.86 787.658L1347.99 1100.33C1351.09 1117.94 1344.57 1135.86 1330.88 1147.35L1087.66 1351.44C1073.96 1362.93 1055.18 1366.24 1038.38 1360.13L740.028 1251.54C723.23 1245.42 710.97 1230.81 707.866 1213.2L652.733 900.527C649.627 882.923 656.152 864.999 669.846 853.509L913.064 649.424C926.758 637.934 945.543 634.621 962.342 640.734L1260.69 749.326Z"/>
        <path opacity="0.45" d="M1241.72 750.795C1258.04 756.099 1270.29 769.707 1273.86 786.494L1337.23 1084.63C1340.8 1101.42 1335.14 1118.83 1322.38 1130.32L1095.87 1334.27C1083.12 1345.75 1065.21 1349.56 1048.89 1344.26L759.006 1250.07C742.685 1244.76 730.433 1231.15 726.865 1214.37L663.494 916.229C659.924 899.443 665.584 882.028 678.337 870.545L904.847 666.594C917.6 655.111 935.511 651.304 951.833 656.606L1241.72 750.795Z"/>
        <path opacity="0.44" d="M1223.17 753.27C1238.98 757.804 1251.17 770.427 1255.15 786.386L1325.81 1069.81C1329.79 1085.77 1324.95 1102.63 1313.12 1114.06L1103 1316.97C1091.17 1328.39 1074.15 1332.64 1058.34 1328.11L777.552 1247.59C761.744 1243.06 749.554 1230.43 745.576 1214.48L674.911 931.053C670.931 915.096 675.769 898.227 687.599 886.803L897.717 683.893C909.547 672.469 926.575 668.223 942.385 672.756L1223.17 753.27Z"/>
        <path opacity="0.42" d="M1205.1 756.722C1220.36 760.529 1232.44 772.189 1236.77 787.311L1313.79 1055.89C1318.12 1071.01 1314.06 1087.3 1303.14 1098.61L1109.05 1299.59C1098.12 1310.91 1081.99 1315.54 1066.72 1311.73L795.621 1244.14C780.358 1240.33 768.284 1228.67 763.948 1213.55L686.935 944.974C682.598 929.853 686.659 913.566 697.586 902.25L891.674 701.267C902.601 689.951 918.737 685.324 934.001 689.129L1205.1 756.722Z"/>
        <path opacity="0.4" d="M1187.56 761.121C1202.24 764.244 1214.15 774.965 1218.79 789.247L1301.21 1042.89C1305.85 1057.17 1302.51 1072.85 1292.47 1084.01L1114.01 1282.2C1103.96 1293.36 1088.72 1298.31 1074.04 1295.19L813.164 1239.74C798.477 1236.62 786.57 1225.9 781.93 1211.61L699.515 957.968C694.874 943.688 698.206 928.015 708.253 916.856L886.71 718.66C896.757 707.501 911.996 702.549 926.685 705.671L1187.56 761.121Z"/>
        <path opacity="0.38" d="M1170.58 766.434C1184.66 768.918 1196.35 778.726 1201.24 792.166L1288.12 1030.85C1293.01 1044.29 1290.36 1059.31 1281.17 1070.27L1117.9 1264.84C1108.71 1275.8 1094.37 1281.02 1080.28 1278.53L830.141 1234.43C816.058 1231.94 804.369 1222.14 799.478 1208.7L712.605 970.014C707.713 956.576 710.363 941.548 719.555 930.593L882.823 736.018C892.015 725.064 906.355 719.844 920.439 722.327L1170.58 766.434Z"/>
        <path opacity="0.37" d="M1154.21 772.625C1167.67 774.517 1179.09 783.442 1184.18 796.039L1274.57 1019.77C1279.66 1032.36 1277.64 1046.72 1269.28 1057.43L1120.72 1247.57C1112.36 1258.28 1098.91 1263.71 1085.46 1261.82L846.509 1228.24C833.056 1226.34 821.633 1217.42 816.544 1204.82L726.151 981.093C721.061 968.497 723.079 954.141 731.443 943.436L880.002 753.289C888.366 742.583 901.807 737.152 915.261 739.043L1154.21 772.625Z"/>
        <path opacity="0.35" d="M1138.49 779.66C1151.29 781.006 1162.4 789.078 1167.64 800.837L1260.62 1009.67C1265.86 1021.43 1264.42 1035.09 1256.85 1045.5L1122.49 1230.44C1114.92 1240.86 1102.38 1246.44 1089.57 1245.1L862.227 1221.2C849.427 1219.86 838.316 1211.78 833.082 1200.02L740.101 991.188C734.866 979.431 736.302 965.772 743.867 955.359L878.234 770.418C885.799 760.006 898.346 754.42 911.147 755.764L1138.49 779.66Z"/>
        <path opacity="0.33" d="M1123.46 787.499C1135.59 788.348 1146.34 795.601 1151.67 806.527L1246.31 1000.58C1251.64 1011.5 1250.74 1024.44 1243.94 1034.52L1123.21 1213.51C1116.41 1223.58 1104.76 1229.27 1092.63 1228.42L877.256 1213.36C865.13 1212.51 854.378 1205.26 849.049 1194.33L754.405 1000.29C749.075 989.36 749.98 976.421 756.778 966.344L877.507 787.355C884.304 777.277 895.963 771.591 908.089 772.438L1123.46 787.499Z"/>
        <path opacity="0.31" d="M1109.16 796.103C1120.59 796.503 1130.94 802.972 1136.31 813.074L1231.71 992.489C1237.08 1002.59 1236.66 1014.79 1230.59 1024.49L1122.91 1196.82C1116.85 1206.52 1106.07 1212.25 1094.64 1211.85L891.563 1204.76C880.129 1204.36 869.777 1197.89 864.406 1187.79L769.009 1008.37C763.637 998.272 764.064 986.071 770.126 976.369L877.806 804.046C883.868 794.344 894.647 788.612 906.081 789.011L1109.16 796.103Z"/>
        <path opacity="0.3" d="M1095.61 805.43C1106.34 805.431 1116.25 811.153 1121.61 820.443L1216.86 985.42C1222.22 994.708 1222.22 1006.15 1216.86 1015.44L1121.61 1180.42C1116.25 1189.71 1106.34 1195.43 1095.61 1195.43L905.11 1195.43C894.385 1195.43 884.473 1189.71 879.111 1180.42L783.861 1015.44C778.497 1006.15 778.498 994.708 783.86 985.42L879.11 820.442C884.473 811.153 894.384 805.431 905.111 805.43L1095.61 805.43Z"/>
        <path opacity="0.28" d="M1082.86 815.439C1092.86 815.09 1102.29 820.105 1107.6 828.595L1201.81 979.378C1207.12 987.866 1207.49 998.542 1202.79 1007.38L1119.32 1164.37C1114.62 1173.21 1105.56 1178.87 1095.56 1179.22L917.866 1185.42C907.862 1185.77 898.431 1180.76 893.126 1172.27L798.907 1021.48C793.601 1012.99 793.229 1002.32 797.928 993.481L881.4 836.493C886.1 827.654 895.159 821.993 905.163 821.644L1082.86 815.439Z"/>
        <path opacity="0.26" d="M1070.92 826.084C1080.19 825.436 1089.11 829.784 1094.31 837.491L1186.63 974.365C1191.83 982.071 1192.52 991.966 1188.44 1000.32L1116.07 1148.71C1112 1157.07 1103.77 1162.61 1094.5 1163.26L929.801 1174.78C920.528 1175.43 911.614 1171.08 906.416 1163.37L814.093 1026.5C808.894 1018.79 808.203 1008.9 812.278 1000.54L884.653 852.151C888.727 843.796 896.951 838.249 906.224 837.6L1070.92 826.084Z"/>
        <path opacity="0.24" d="M1059.84 837.32C1068.37 836.424 1076.73 840.148 1081.78 847.09L1171.36 970.384C1176.4 977.325 1177.36 986.431 1173.87 994.27L1111.88 1133.49C1108.39 1141.33 1100.98 1146.71 1092.45 1147.61L940.885 1163.54C932.352 1164.44 923.988 1160.71 918.944 1153.77L829.366 1030.48C824.322 1023.54 823.365 1014.43 826.855 1006.59L888.841 867.368C892.331 859.529 899.739 854.147 908.272 853.25L1059.84 837.32Z"/>
        <path opacity="0.23" d="M1049.63 849.101C1057.42 848.007 1065.2 851.151 1070.04 857.349L1156.05 967.434C1160.89 973.632 1162.06 981.943 1159.11 989.236L1106.78 1118.76C1103.84 1126.06 1097.22 1131.22 1089.43 1132.32L951.092 1151.76C943.304 1152.85 935.522 1149.71 930.68 1143.51L844.672 1033.43C839.829 1027.23 838.661 1018.92 841.607 1011.63L893.94 882.098C896.886 874.806 903.5 869.638 911.289 868.543L1049.63 849.101Z"/>
        <path opacity="0.21" d="M1040.32 861.379C1047.36 860.138 1054.53 862.747 1059.13 868.225L1140.76 965.513C1145.36 970.99 1146.68 978.504 1144.24 985.223L1100.8 1104.56C1098.36 1111.28 1092.51 1116.19 1085.47 1117.43L960.399 1139.48C953.358 1140.72 946.188 1138.11 941.592 1132.64L859.958 1035.35C855.361 1029.87 854.037 1022.36 856.482 1015.64L899.919 896.298C902.364 889.579 908.209 884.674 915.251 883.432L1040.32 861.379Z"/>
        <path opacity="0.19" d="M1031.94 874.105C1038.23 872.768 1044.76 874.89 1049.07 879.672L1125.55 964.614C1129.86 969.396 1131.28 976.113 1129.3 982.233L1093.97 1090.94C1091.99 1097.06 1086.88 1101.65 1080.59 1102.99L968.786 1126.76C962.491 1128.09 955.96 1125.97 951.654 1121.19L875.173 1036.25C870.866 1031.47 869.439 1024.75 871.427 1018.63L906.748 909.923C908.737 903.803 913.84 899.208 920.135 897.869L1031.94 874.105Z"/>
        <path opacity="0.17" d="M1024.49 887.23C1030.04 885.847 1035.91 887.529 1039.88 891.644L1110.46 964.729C1114.43 968.844 1115.91 974.766 1114.33 980.265L1086.33 1077.93C1084.75 1083.43 1080.36 1087.67 1074.81 1089.05L976.229 1113.63C970.678 1115.01 964.811 1113.33 960.837 1109.22L890.26 1036.13C886.286 1032.02 884.809 1026.1 886.386 1020.6L914.391 922.932C915.968 917.434 920.358 913.194 925.909 911.809L1024.49 887.23Z"/>
        <path opacity="0.16" d="M1018 900.704C1022.82 899.325 1028 900.617 1031.6 904.094L1095.55 965.849C1099.15 969.326 1100.62 974.46 1099.41 979.316L1077.9 1065.58C1076.69 1070.43 1072.98 1074.27 1068.17 1075.65L982.715 1100.16C977.903 1101.54 972.721 1100.25 969.121 1096.77L905.171 1035.01C901.571 1031.54 900.098 1026.4 901.309 1021.55L922.816 935.286C924.027 930.43 927.737 926.588 932.549 925.208L1018 900.704Z"/>
        <path opacity="0.14" d="M1012.49 914.475C1016.57 913.149 1021.05 914.101 1024.24 916.972L1080.87 967.96C1084.05 970.83 1085.47 975.184 1084.58 979.381L1068.73 1053.92C1067.84 1058.11 1064.78 1061.51 1060.7 1062.84L988.228 1086.39C984.148 1087.71 979.67 1086.76 976.482 1083.89L919.854 1032.9C916.666 1030.03 915.251 1025.68 916.143 1021.48L931.986 946.946C932.878 942.75 935.941 939.348 940.022 938.022L1012.49 914.475Z"/>
        <path opacity="0.12" d="M1007.97 928.491C1011.32 927.269 1015.08 927.931 1017.82 930.23L1066.46 971.047C1069.2 973.345 1070.51 976.93 1069.89 980.45L1058.86 1042.99C1058.24 1046.51 1055.79 1049.43 1052.43 1050.65L992.757 1072.37C989.398 1073.59 985.641 1072.93 982.902 1070.63L934.258 1029.81C931.519 1027.52 930.215 1023.93 930.836 1020.41L941.862 957.876C942.483 954.355 944.935 951.433 948.295 950.21L1007.97 928.491Z"/>
        <path opacity="0.1" d="M1004.43 942.702C1007.08 941.631 1010.11 942.056 1012.36 943.817L1052.39 975.092C1054.64 976.853 1055.79 979.683 1055.39 982.515L1048.32 1032.82C1047.92 1035.65 1046.04 1038.06 1043.39 1039.13L996.29 1058.16C993.638 1059.23 990.616 1058.81 988.362 1057.04L948.331 1025.77C946.077 1024.01 944.934 1021.18 945.332 1018.35L952.402 968.041C952.8 965.209 954.679 962.804 957.331 961.732L1004.43 942.702Z"/>
        <path opacity="0.09" d="M1001.9 957.054C1003.86 956.182 1006.14 956.421 1007.87 957.682L1038.7 980.077C1040.43 981.337 1041.36 983.428 1041.14 985.562L1037.15 1023.45C1036.93 1025.59 1035.59 1027.44 1033.63 1028.31L998.819 1043.81C996.86 1044.68 994.583 1044.44 992.848 1043.18L962.024 1020.78C960.289 1019.52 959.358 1017.43 959.582 1015.3L963.565 977.409C963.789 975.275 965.134 973.423 967.094 972.551L1001.9 957.054Z"/>
        <path opacity="0.07" d="M1000.38 971.495C1001.66 970.868 1003.18 970.974 1004.37 971.774L1025.43 985.978C1026.61 986.777 1027.28 988.149 1027.18 989.575L1025.41 1014.91C1025.31 1016.34 1024.46 1017.61 1023.17 1018.23L1000.34 1029.37C999.058 1029.99 997.536 1029.89 996.35 1029.09L975.292 1014.88C974.107 1014.08 973.438 1012.71 973.538 1011.29L975.309 985.948C975.409 984.522 976.263 983.256 977.548 982.629L1000.38 971.495Z"/>
        <path opacity="0.05" d="M999.863 985.971C1000.49 985.636 1001.26 985.662 1001.86 986.041L1012.63 992.771C1013.24 993.15 1013.6 993.824 1013.57 994.538L1013.13 1007.23C1013.11 1007.95 1012.7 1008.59 1012.07 1008.93L1000.86 1014.89C1000.22 1015.23 999.462 1015.2 998.856 1014.82L988.086 1008.09C987.479 1007.71 987.121 1007.04 987.146 1006.32L987.589 993.631C987.614 992.916 988.019 992.269 988.65 991.934L999.863 985.971Z"/>
    </g>
</svg>
