<svg viewBox="0 0 1400 700" fill="none" xmlns="http://www.w3.org/2000/svg" stroke="url(#gradient)" stroke-linecap="round">
    <style>
        @media only screen and (max-width: 130px) {
            path {
                stroke-width: 10px;
            }

            g {
                opacity: .75;
            }
        }
    </style>
    <defs>
        <linearGradient id="gradient" gradientUnits="userSpaceOnUse">
            <stop stop-color="#3AADAA"/>
            <stop offset="49%" stop-color="#3AADAA"/>
            <stop offset="51%" stop-color="#7C6576"/>
            <stop offset="100%" stop-color="#7C6576"/>
        </linearGradient>
    </defs>
    <g opacity=".25">
        <path d="M1.01172 569.123C240.675 95.1906 480.338 26.7636 720 363.842C959.663 700.921 1199.33 769.348 1438.99 569.123"/>
        <path d="M1.01172 501.371C240.675 72.607 480.338 26.7643 720 363.843C959.663 700.921 1199.33 746.765 1438.99 501.371"/>
        <path d="M1.01172 433.618C240.675 50.0225 480.338 26.764 720 363.843C959.663 700.921 1199.33 724.179 1438.99 433.618"/>
        <path d="M1.01172 365.864C240.675 27.437 480.338 26.7628 720 363.841C959.663 700.92 1199.33 701.594 1438.99 365.864"/>
        <path d="M1.01172 298.114C240.675 4.8551 480.338 26.7652 720 363.844C959.663 700.922 1199.33 679.012 1438.99 298.114"/>
        <path d="M1.01172 230.358C240.675 -17.7315 480.338 26.7628 720 363.842C959.663 700.92 1199.33 656.426 1438.99 230.358"/>
        <path d="M1.01172 162.607C240.675 -40.3139 480.338 26.7648 720 363.843C959.663 700.922 1199.33 633.843 1438.99 162.607"/>
        <path d="M1.01172 94.8537C240.675 -62.8992 480.338 26.7638 720 363.843C959.663 700.921 1199.33 611.259 1438.99 94.8537"/>
    </g>
</svg>
