<svg id="Layer_1" data-name="Layer 1" xmlns="http://www.w3.org/2000/svg" xmlns:xlink="http://www.w3.org/1999/xlink" viewBox="0 0 70 70">
  <defs>
    <mask id="mask" x="0" y="0" width="70" height="70" maskUnits="userSpaceOnUse">
      <g id="b">
        <path id="a" d="M4,0H65c4,0,5,1,5,5V65c0,4-1,5-5,5H4c-3,0-4-1-4-5V5C0,1,1,0,4,0Z" fill="#fff" fill-rule="evenodd"/>
      </g>
    </mask>
    <linearGradient id="linear-gradient" x1="-1438.5" y1="477.94" x2="-1439.5" y2="476.94" gradientTransform="matrix(70, 0, 0, -70, 100764.99, 33455.73)" gradientUnits="userSpaceOnUse">
      <stop offset="0" stop-color="#cd7690"/>
      <stop offset="1" stop-color="#ca5377"/>
    </linearGradient>
  </defs>
  <g mask="url(#mask)">
    <g>
      <path d="M0,0H70V70H0Z" fill-rule="evenodd" fill="url(#linear-gradient)"/>
      <path d="M4,1H65c2.67,0,4.33.67,5,2V0H0V3C.67,1.67,2,1,4,1Z" fill="#fff" fill-opacity="0.38" fill-rule="evenodd"/>
      <path d="M48.83,69H4c-2,0-4-.15-4-4.08V41.29L19.58,23l4.76-1.14L39.27,7.26l0,1.84,11.87-.16L46,21.89c3.89-.06,3.94,2,6.49,4.77L54.79,48.3Z" fill="#393939" fill-rule="evenodd" opacity="0.32" style="isolation: isolate"/>
      <path d="M4,69H65c2.67,0,4.33-1,5-3v4H0V66A3.92,3.92,0,0,0,4,69Z" fill-opacity="0.38" fill-rule="evenodd"/>
      <g>
        <g opacity="0.4">
          <path d="M36.08,36.84a1.5,1.5,0,0,1-1.5-1.5V10.74a1.5,1.5,0,0,1,3,0v24.6A1.5,1.5,0,0,1,36.08,36.84Z"/>
          <path d="M44,19H36.08V10.74H47.72a1,1,0,0,1,.89,1.56l-3.72,6.19A1,1,0,0,1,44,19Z" fill-rule="evenodd"/>
          <line x1="32.51" y1="50.29" x2="32.51" y2="62.76" fill="none" stroke="#000" stroke-linecap="round" stroke-linejoin="round" stroke-width="3"/>
          <path d="M45.13,24.28H40.58V35.34a4.5,4.5,0,0,1-9,0V24.28H19.67a7.31,7.31,0,0,0-7.2,7.4v19a1,1,0,0,0,1,1H51.33a1,1,0,0,0,1-1v-19A7.31,7.31,0,0,0,45.13,24.28ZM26.21,49.7H14.47v-18a5.33,5.33,0,0,1,4.93-5.39,6.68,6.68,0,0,1,6.81,6.4Z" fill-rule="evenodd"/>
        </g>
        <g>
          <path d="M38.54,34.45A1.5,1.5,0,0,1,37,33V8.34a1.5,1.5,0,1,1,3,0V33A1.5,1.5,0,0,1,38.54,34.45Z" fill="#fff"/>
          <path d="M46.47,16.59H38.54V8.34H50.19a1,1,0,0,1,.88,1.57l-3.72,6.18A1,1,0,0,1,46.47,16.59Z" fill="#fff" fill-rule="evenodd"/>
          <line x1="34.98" y1="47.89" x2="34.98" y2="60.36" fill="none" stroke="#fff" stroke-linecap="round" stroke-linejoin="round" stroke-width="3"/>
          <path d="M47.59,21.89H43V33a4.5,4.5,0,0,1-9,0V21.89H22.14a7.31,7.31,0,0,0-7.2,7.4v19a1,1,0,0,0,1,1H53.8a1,1,0,0,0,1-1v-19A7.31,7.31,0,0,0,47.59,21.89ZM28.67,47.3H16.94v-18a5.31,5.31,0,0,1,4.92-5.39,6.66,6.66,0,0,1,6.81,6.39Z" fill="#fff" fill-rule="evenodd"/>
        </g>
      </g>
    </g>
  </g>
</svg>
