<svg id="Layer_1" data-name="Layer 1" xmlns="http://www.w3.org/2000/svg" xmlns:xlink="http://www.w3.org/1999/xlink" viewBox="0 0 70 70">
  <defs>
    <mask id="mask" x="0" y="0" width="70" height="70" maskUnits="userSpaceOnUse">
      <g id="b">
        <path id="a" d="M4,0H65c4,0,5,1,5,5V65c0,4-1,5-5,5H4c-3,0-4-1-4-5V5C0,1,1,0,4,0Z" fill="#fff" fill-rule="evenodd"/>
      </g>
    </mask>
    <linearGradient id="linear-gradient" x1="-1438.5" y1="477.94" x2="-1439.5" y2="476.94" gradientTransform="matrix(70, 0, 0, -70, 100764.99, 33455.73)" gradientUnits="userSpaceOnUse">
      <stop offset="0" stop-color="#cd7690"/>
      <stop offset="1" stop-color="#ca5377"/>
    </linearGradient>
  </defs>
  <g mask="url(#mask)">
    <g>
      <path d="M0,0H70V70H0Z" fill-rule="evenodd" fill="url(#linear-gradient)"/>
      <path d="M4,1H65c2.67,0,4.33.67,5,2V0H0V3C.67,1.67,2,1,4,1Z" fill="#fff" fill-opacity="0.38" fill-rule="evenodd"/>
      <path d="M34.48,69H4c-2,0-4-.15-4-4.08V41.77L16.94,24.83l6.56-2.94,15-15,.71,2.26,11.87-.16-3.77,7.15L40,23.42v1.49l3-3h3c3.89-.06,8.64,27,8.64,27Z" fill="#393939" fill-rule="evenodd" opacity="0.32" style="isolation: isolate"/>
      <path d="M4,69H65c2.67,0,4.33-1,5-3v4H0V66A3.92,3.92,0,0,0,4,69Z" fill-opacity="0.38" fill-rule="evenodd"/>
      <g>
        <g opacity="0.4">
          <path d="M36.52,36.47A1.5,1.5,0,0,1,35,35V10.37a1.5,1.5,0,1,1,3,0V35A1.5,1.5,0,0,1,36.52,36.47Z"/>
          <path d="M44.45,18.62H36.52V10.37H48.17a1,1,0,0,1,.88,1.56l-3.72,6.19A1,1,0,0,1,44.45,18.62Z" fill-rule="evenodd"/>
          <path d="M33,63.89a1.51,1.51,0,0,1-1.5-1.5V49.92a1.5,1.5,0,0,1,3,0V62.39A1.5,1.5,0,0,1,33,63.89Z"/>
          <path d="M45.57,23.91H41V35a4.5,4.5,0,0,1-9,0V23.91H20.11a7.3,7.3,0,0,0-7.19,7.4v19a1,1,0,0,0,1,1H51.78a1,1,0,0,0,1-1v-19A7.31,7.31,0,0,0,45.57,23.91ZM26.65,49.32H14.92v-18a5.32,5.32,0,0,1,4.92-5.39,6.68,6.68,0,0,1,6.81,6.39Z" fill-rule="evenodd"/>
        </g>
        <g>
          <path d="M38.54,34.45A1.5,1.5,0,0,1,37,33V8.34a1.5,1.5,0,1,1,3,0V33A1.5,1.5,0,0,1,38.54,34.45Z" fill="#fff"/>
          <path d="M46.47,16.59H38.54V8.34H50.19a1,1,0,0,1,.88,1.57l-3.72,6.18A1,1,0,0,1,46.47,16.59Z" fill="#fff" fill-rule="evenodd"/>
          <path d="M35,61.86a1.5,1.5,0,0,1-1.5-1.5V47.89a1.5,1.5,0,0,1,3,0V60.36A1.5,1.5,0,0,1,35,61.86Z" fill="#fff"/>
          <path d="M47.59,21.89H43V33a4.5,4.5,0,0,1-9,0V21.89H22.14a7.31,7.31,0,0,0-7.2,7.4v19a1,1,0,0,0,1,1H53.8a1,1,0,0,0,1-1v-19A7.31,7.31,0,0,0,47.59,21.89ZM28.67,47.3H16.94v-18a5.31,5.31,0,0,1,4.92-5.39,6.66,6.66,0,0,1,6.81,6.39Z" fill="#fff" fill-rule="evenodd"/>
        </g>
      </g>
    </g>
  </g>
</svg>
