<svg width="50" height="50" xmlns="http://www.w3.org/2000/svg"><path d="M0 42V8l25 17L0 42Z" fill="var(--o-icons-red-red, #F9383D)"/><path d="M0 42V8l25 17L0 42Z" fill="url(#o_icon_snailmail__a)" fill-opacity=".2"/><path d="M25 25 0 8h50L25 25Z" fill="var(--o-icons-red-pure, #FC787D)"/><path d="M25 25 0 8h50L25 25Z" fill="url(#o_icon_snailmail__b)" fill-opacity=".2"/><path d="M50 8 0 42h46a4 4 0 0 0 4-4V8Z" fill="var(--o-icons-purple-red, #911E3D)"/><path d="M50 8 0 42h46a4 4 0 0 0 4-4V8Z" fill="url(#o_icon_snailmail__c)" fill-opacity=".2"/><defs><linearGradient id="o_icon_snailmail__a" x1="0" y1="8" x2="30.229" y2="13.557" gradientUnits="userSpaceOnUse"><stop stop-color="#fff"/><stop offset="1" stop-color="#fff" stop-opacity="0"/></linearGradient><linearGradient id="o_icon_snailmail__b" x1="0" y1="8" x2="40.567" y2="37.829" gradientUnits="userSpaceOnUse"><stop stop-color="#fff"/><stop offset="1" stop-color="#fff" stop-opacity="0"/></linearGradient><linearGradient id="o_icon_snailmail__c" x1="0" y1="8" x2="55.058" y2="28.242" gradientUnits="userSpaceOnUse"><stop stop-color="#fff"/><stop offset="1" stop-color="#fff" stop-opacity="0"/></linearGradient></defs></svg>
