<svg id="Layer_1" data-name="Layer 1" xmlns="http://www.w3.org/2000/svg" viewBox="0 0 38 38"><defs><style>.cls-1{fill:#429646;}.cls-1,.cls-2{fill-rule:evenodd;}.cls-2{fill:#fff;fill-opacity:0.93;}.cls-3,.cls-4{fill:none;stroke:#429646;}.cls-3{stroke-width:2px;}.cls-4{stroke-miterlimit:10;stroke-width:3px;}</style></defs><title>E1</title><polygon class="cls-1" points="34 2 34 34 4 34 34 2"/><path id="pdf-a" class="cls-2" d="M6,1H32a3,3,0,0,1,3,3V33a3,3,0,0,1-3,3H6a3,3,0,0,1-3-3V4A3,3,0,0,1,6,1Z"/><path class="cls-3" d="M7,2H31a3,3,0,0,1,3,3V32a3,3,0,0,1-3,3H7a3,3,0,0,1-3-3V5A3,3,0,0,1,7,2Z"/><line class="cls-4" x1="9.26" y1="26.6" x2="14.22" y2="26.6"/><line class="cls-4" x1="9.26" y1="21.28" x2="14.22" y2="21.28"/><line class="cls-4" x1="9.26" y1="15.95" x2="14.22" y2="15.95"/><line class="cls-4" x1="9.26" y1="10.62" x2="14.22" y2="10.62"/><line class="cls-4" x1="16.52" y1="26.6" x2="21.48" y2="26.6"/><line class="cls-4" x1="16.52" y1="21.28" x2="21.48" y2="21.28"/><line class="cls-4" x1="16.52" y1="15.95" x2="21.48" y2="15.95"/><line class="cls-4" x1="16.52" y1="10.62" x2="21.48" y2="10.62"/><line class="cls-4" x1="23.77" y1="26.6" x2="28.73" y2="26.6"/><line class="cls-4" x1="23.77" y1="21.28" x2="28.73" y2="21.28"/><line class="cls-4" x1="23.77" y1="15.95" x2="28.73" y2="15.95"/><line class="cls-4" x1="23.77" y1="10.62" x2="28.73" y2="10.62"/></svg>