<svg xmlns="http://www.w3.org/2000/svg" xmlns:xlink="http://www.w3.org/1999/xlink" viewBox="0 0 106 106"><defs><mask id="a" x="0" y="0" width="106" height="106" maskUnits="userSpaceOnUse"><path d="M6.06,0H98.43C104.49,0,106,1.51,106,7.57V98.43c0,6.06-1.51,7.57-7.57,7.57H6.06C1.51,106,0,104.49,0,98.43V7.57C0,1.51,1.51,0,6.06,0Z" style="fill:#fff;fill-rule:evenodd"/></mask><mask id="b" x="6.15" y="8.99" width="48.56" height="32.36" maskUnits="userSpaceOnUse"><rect x="6.15" y="10.78" width="48.45" height="28.75" rx="1" style="fill:#fff"/></mask><symbol id="c" viewBox="0 0 106 106"><g style="mask:url(#a)"><path d="M0,0H106V106H0Z" style="fill:#5a5a64;fill-rule:evenodd"/><path d="M6.06,1.51H98.43q6.06,0,7.57,3V0H0V4.54Q1.52,1.51,6.06,1.51Z" style="fill:#fff;fill-opacity:0.382999986410141;fill-rule:evenodd"/><path d="M6.06,104.49H98.43q6.06,0,7.57-4.55V106H0V99.94Q1.52,104.49,6.06,104.49Z" style="fill-opacity:0.382999986410141;fill-rule:evenodd"/><path d="M70.38,104.49H6.06C3,104.49,0,103,0,98.43V61.28L28.77,19.69H59.06a77.33,77.33,0,0,0,21.2,13.87c.07,11.31.07,4.86,0,16.17h3.12l.21,36.82Z" style="fill:#393939;fill-rule:evenodd;opacity:0.324000000953674;isolation:isolate"/><g style="opacity:0.30000000000000004"><path d="M68.77,58.54H76c.76,0,1,.12,1,.46v2.45c0,.31-.24.43-.93.43H61.44c-.66,0-.92-.12-.92-.42,0-.83,0-1.67,0-2.51,0-.29.26-.4.92-.41Z"/><path d="M64.33,77.42c.42.39.76.66,1,1a.89.89,0,0,1,0,1.31.92.92,0,0,1-1.32,0,4.25,4.25,0,0,1-.48-.47c-.14-.15-.26-.31-.49-.6-.32.37-.54.66-.79.91-.53.53-1.08.58-1.5.15s-.36-.94.15-1.45c.26-.26.54-.5.91-.83-.38-.34-.72-.61-1-.91a.9.9,0,0,1,0-1.36.91.91,0,0,1,1.36,0c.29.28.54.6.93,1A12.1,12.1,0,0,1,64,75.18a.91.91,0,0,1,1.36,0,.87.87,0,0,1,0,1.31C65.07,76.79,64.73,77.06,64.33,77.42Z"/><path d="M62.13,66.9c0-.47,0-.88,0-1.28a.92.92,0,0,1,.92-1,.91.91,0,0,1,1,1c0,.41,0,.81,0,1.3h1.14a1.16,1.16,0,0,1,1.22,1c0,.55-.42.85-1.18.86H64.12c0,.49,0,.91,0,1.34a.94.94,0,1,1-1.88,0c0-.41,0-.81,0-1.3H60.92a.94.94,0,1,1,0-1.88C61.3,66.89,61.68,66.9,62.13,66.9Z"/><path d="M74.31,76H72.23c-.67,0-1-.34-1-.93a.89.89,0,0,1,1-1q2.18,0,4.35,0a1,1,0,1,1,0,1.91c-.74,0-1.47,0-2.21,0Z"/><path d="M74.28,68.61c-.71,0-1.43,0-2.14,0a.86.86,0,0,1-1-.9.85.85,0,0,1,.92-1c1.5,0,3,0,4.48,0a.93.93,0,0,1,1,1,.91.91,0,0,1-1,.91c-.75,0-1.51,0-2.27,0Z"/><path d="M74.36,78.09c.72,0,1.44,0,2.15,0a1,1,0,0,1,1,1c0,.57-.38.93-1,.94H72.28c-.75,0-1.09-.32-1.09-.94s.37-1,1.09-1,1.39,0,2.08,0Z"/><path d="M81.29,90.55H56.14a4,4,0,0,1-4-4V53.73a4,4,0,0,1,4-4H81.29a4,4,0,0,1,4,4V86.55A4,4,0,0,1,81.29,90.55ZM56.14,53.73V86.55H81.29V53.73Z"/><path d="M43.49,83.26H31.8V25.71H56v10.6q0,4.55,4.54,4.55H75.71v5.78h4.55V34.8c-4.55-3-16.66-12.11-19.69-13.63H30.29a2.68,2.68,0,0,0-3,3V84.77a2.68,2.68,0,0,0,3,3H48.45V83.26ZM60.57,25.71l15.14,10.6H60.57Z"/></g><path d="M60.57,18.68H30.29a2.68,2.68,0,0,0-3,3V82.28a2.68,2.68,0,0,0,3,3H48.45V80.77H31.8V23.22H56v10.6q0,4.55,4.54,4.55H75.71v5.78h4.55V32.31C75.71,29.28,63.6,20.2,60.57,18.68Zm0,15.14V23.22l15.14,10.6Z" style="fill:#a8a9ab"/><path d="M68.77,55.78H76c.76,0,1,.13,1,.53v2.85c0,.37-.24.5-.93.5q-7.3,0-14.61,0c-.66,0-.92-.14-.92-.48,0-1,0-2,0-2.93,0-.34.26-.47.92-.47Z" style="fill:#a8a9ab"/><path d="M64.33,76.53c.42.38.76.65,1,1a.89.89,0,0,1,0,1.31.92.92,0,0,1-1.32,0,5.44,5.44,0,0,1-.48-.48c-.14-.14-.26-.31-.49-.59-.32.36-.54.65-.79.91-.53.53-1.08.57-1.5.14s-.36-.94.15-1.45c.26-.26.54-.49.91-.82-.38-.35-.72-.61-1-.92a.9.9,0,0,1,0-1.36.92.92,0,0,1,1.36,0c.29.28.54.61.93,1A13.78,13.78,0,0,1,64,74.28a.91.91,0,0,1,1.36,0,.88.88,0,0,1,0,1.32C65.07,75.89,64.73,76.16,64.33,76.53Z" style="fill:#a8a9ab"/><path d="M62.13,65.88c0-.48,0-.88,0-1.29a1,1,0,1,1,1.91,0c0,.4,0,.81,0,1.3h1.14a1.15,1.15,0,0,1,1.22,1c0,.54-.42.85-1.18.85H64.12c0,.49,0,.92,0,1.34a.94.94,0,1,1-1.88,0c0-.4,0-.81,0-1.3H60.92a.94.94,0,1,1,0-1.88Z" style="fill:#a8a9ab"/><path d="M74.31,75.11c-.69,0-1.38,0-2.08,0s-1-.35-1-.94a.89.89,0,0,1,1-1q2.18,0,4.35,0a.91.91,0,0,1,1,1,.93.93,0,0,1-1,1c-.74,0-1.47,0-2.21,0Z" style="fill:#a8a9ab"/><path d="M74.28,67.76H72.14a.87.87,0,0,1-1-.9.84.84,0,0,1,.92-1c1.5,0,3,0,4.48,0a.94.94,0,0,1,1,1,.91.91,0,0,1-1,.91H74.28Z" style="fill:#a8a9ab"/><path d="M74.36,77.2c.72,0,1.44,0,2.15,0a1,1,0,0,1,1,1c0,.56-.38.93-1,.93q-2.12,0-4.23,0c-.75,0-1.09-.32-1.09-.94s.37-.94,1.09-1,1.39,0,2.08,0Z" style="fill:#a8a9ab"/><path d="M81.29,88.06H56.14a4,4,0,0,1-4-4V51.24a4,4,0,0,1,4-4H81.29a4,4,0,0,1,4,4V84.06A4,4,0,0,1,81.29,88.06ZM56.14,51.24V84.06H81.29V51.24Z" style="fill:#a8a9ab"/></g></symbol></defs><use width="106" height="106" xlink:href="#c"/><rect x="6.27" y="10.57" width="48.45" height="31.57" rx="1" style="fill:#393939;opacity:0.44;isolation:isolate"/><g style="mask:url(#b)"><rect x="6.17" y="8.99" width="48.54" height="32.36" style="fill:red"/><rect x="6.17" y="8.99" width="19.42" height="32.36" style="fill:#060"/><path d="M31.92,30.19c-2.45-.07-13.66-7.06-13.73-8.18l.62-1c1.11,1.61,12.57,8.42,13.69,8.18l-.58,1" style="fill:#ff0;stroke:#000;stroke-linecap:round;stroke-linejoin:round;stroke-width:0.05px;fill-rule:evenodd"/><path d="M18.68,20.84c-.22.59,2.92,2.53,6.7,4.83s7.05,3.73,7.29,3.52a2.19,2.19,0,0,0,.11-.2c-.05.07-.16.09-.33,0a38.55,38.55,0,0,1-7-3.52c-3.3-2-6.17-3.85-6.62-4.63a.45.45,0,0,1,0-.23h0l-.09.16v0ZM32,30.23c0,.07-.11.07-.26.06-.92-.1-3.69-1.45-7-3.42-3.82-2.28-7-4.37-6.63-4.91l.09-.17h0c-.31.92,6.22,4.66,6.61,4.9,3.78,2.34,7,3.71,7.25,3.35l-.11.18Z" style="fill:#ff0;stroke:#000;stroke-linecap:round;stroke-linejoin:round;stroke-width:0.05px;fill-rule:evenodd"/><path d="M25.6,22.69a23.1,23.1,0,0,0,7.2-1l-.37-.61c-1,.57-4.06.94-6.85,1-3.3,0-5.62-.34-6.79-1.12l-.35.65a17.92,17.92,0,0,0,7.16,1.11" style="fill:#ff0;stroke:#000;stroke-linecap:round;stroke-linejoin:round;stroke-width:0.05px;fill-rule:evenodd"/><path d="M32.9,21.67a10.25,10.25,0,0,1-2.86.78,29.72,29.72,0,0,1-4.45.32,31.23,31.23,0,0,1-4.26-.27,12.44,12.44,0,0,1-3-.79l.08-.17a13.38,13.38,0,0,0,2.94.78,32.42,32.42,0,0,0,4.23.27A29.19,29.19,0,0,0,30,22.26a7.06,7.06,0,0,0,2.77-.8l.12.21Zm-.32-.61a8.77,8.77,0,0,1-2.74.73,28.61,28.61,0,0,1-4.23.3,29,29,0,0,1-4.08-.26,11.56,11.56,0,0,1-2.85-.72.86.86,0,0,1,.1-.16,10,10,0,0,0,2.76.7,27.53,27.53,0,0,0,4.07.25,29.68,29.68,0,0,0,4.2-.29,7.64,7.64,0,0,0,2.65-.75l.12.2Z" style="fill:#ff0;stroke:#000;stroke-linecap:round;stroke-linejoin:round;stroke-width:0.05px;fill-rule:evenodd"/><path d="M17.57,25.63c1.5.81,4.84,1.22,8,1.25,2.88,0,6.63-.45,8-1.19l0-.81c-.44.69-4.46,1.34-8,1.32s-6.88-.58-8-1.29v.72" style="fill:#ff0;stroke:#000;stroke-linecap:round;stroke-linejoin:round;stroke-width:0.05px;fill-rule:evenodd"/><path d="M33.69,25.52v.19a9,9,0,0,1-3.19.9,33.51,33.51,0,0,1-5,.34,31.69,31.69,0,0,1-4.7-.32,11.9,11.9,0,0,1-3.37-.91v-.23a11.9,11.9,0,0,0,3.39,1,31.5,31.5,0,0,0,4.68.32,31.67,31.67,0,0,0,4.93-.34,10.5,10.5,0,0,0,3.22-.91Zm0-.69V25a8.74,8.74,0,0,1-3.19.9,32.1,32.1,0,0,1-5,.34,31.69,31.69,0,0,1-4.7-.32A11.54,11.54,0,0,1,17.47,25v-.22a12,12,0,0,0,3.39,1,30.19,30.19,0,0,0,4.68.32,33.16,33.16,0,0,0,4.93-.33,10.45,10.45,0,0,0,3.22-.92Z" style="fill:#ff0;stroke:#000;stroke-linecap:round;stroke-linejoin:round;stroke-width:0.05px;fill-rule:evenodd"/><path d="M25.57,30.06a27.53,27.53,0,0,1-7-1.1l.45.71a19,19,0,0,0,6.63,1.09,17,17,0,0,0,6.55-1.07l.47-.74a25.13,25.13,0,0,1-7,1.11" style="fill:#ff0;stroke:#000;stroke-linecap:round;stroke-linejoin:round;stroke-width:0.05px;fill-rule:evenodd"/><path d="M32.33,29.52l-.21.31a19.87,19.87,0,0,1-2.48.64,22.72,22.72,0,0,1-4.07.37,19.65,19.65,0,0,1-6.75-1.16l-.1-.16,0,0,.16.07a21.66,21.66,0,0,0,6.69,1.1,21.94,21.94,0,0,0,4-.37,11.55,11.55,0,0,0,2.69-.74l.06,0Zm.4-.67h0l-.16.26a17,17,0,0,1-3.13.7,25.31,25.31,0,0,1-3.84.32,26.43,26.43,0,0,1-7.14-1.06l-.09-.18A29.88,29.88,0,0,0,25.61,30a27.19,27.19,0,0,0,3.81-.32,19.81,19.81,0,0,0,3.12-.7h0l.2-.08Z" style="fill:#ff0;stroke:#000;stroke-linecap:round;stroke-linejoin:round;stroke-width:0.05px;fill-rule:evenodd"/><path d="M32.77,25a7.71,7.71,0,0,1-2.09,5.22,7.53,7.53,0,0,1-5.14,2.14,7.66,7.66,0,0,1-5-2.11,7.67,7.67,0,0,1-2.09-5.12,7.23,7.23,0,0,1,2.53-5.4A7.55,7.55,0,0,1,25.8,18a7.21,7.21,0,0,1,7,7ZM25.56,17.2a8,8,0,1,1-8,8,8,8,0,0,1,8-8" style="fill:#ff0;stroke:#000;stroke-linecap:round;stroke-linejoin:round;stroke-width:0.05px;fill-rule:evenodd"/><path d="M25.58,17.17a8,8,0,1,1-8,8,8,8,0,0,1,8-8Zm-7.83,8a7.83,7.83,0,1,0,7.83-7.83,7.86,7.86,0,0,0-7.83,7.83Z" style="fill:#ff0;stroke:#000;stroke-linecap:round;stroke-linejoin:round;stroke-width:0.05px;fill-rule:evenodd"/><path d="M25.59,17.84a7.34,7.34,0,1,1-7.34,7.34,7.36,7.36,0,0,1,7.34-7.34Zm-7.17,7.34A7.17,7.17,0,1,0,25.59,18a7.19,7.19,0,0,0-7.17,7.17Z" style="fill:#ff0;stroke:#000;stroke-linecap:round;stroke-linejoin:round;stroke-width:0.05px;fill-rule:evenodd"/><path d="M25.91,17.14h-.69v16.1h.69Z" style="fill:#ff0;stroke:#000;stroke-linecap:round;stroke-linejoin:round;stroke-width:0.05px;fill-rule:evenodd"/><path d="M25.84,17.05H26V33.33h-.18V17.05Zm-.68,0h.17V33.33h-.17V17.05Z" style="fill:#ff0;stroke:#000;stroke-linecap:round;stroke-linejoin:round;stroke-width:0.05px;fill-rule:evenodd"/><path d="M33.6,25.49V24.9l-.49-.45-2.75-.73-4-.41-4.78.25-3.4.81-.68.5v.6l1.74-.78L23.4,24h4l2.91.33,2,.48Z" style="fill:#ff0;stroke:#000;stroke-linecap:round;stroke-linejoin:round;stroke-width:0.05px;fill-rule:evenodd"/><path d="M25.58,23.94a27.6,27.6,0,0,1,5.19.47,6.06,6.06,0,0,1,2.92,1.09v.21a6.49,6.49,0,0,0-3-1.13,28,28,0,0,0-5.15-.46,29.87,29.87,0,0,0-5.25.47c-1.15.23-2.67.68-2.86,1.12V25.5c.1-.31,1.24-.77,2.83-1.09a29.29,29.29,0,0,1,5.28-.47Zm0-.68a27.58,27.58,0,0,1,5.19.46,5.94,5.94,0,0,1,2.92,1.1V25a6.38,6.38,0,0,0-3-1.13,26.34,26.34,0,0,0-5.15-.46,28.15,28.15,0,0,0-5.25.47c-1.1.21-2.68.67-2.86,1.12v-.22c.1-.3,1.26-.78,2.83-1.09a28.49,28.49,0,0,1,5.28-.46Z" style="fill:#ff0;stroke:#000;stroke-linecap:round;stroke-linejoin:round;stroke-width:0.05px;fill-rule:evenodd"/><path d="M25.54,19.75a17.32,17.32,0,0,1,6.78,1l.43.75a17.29,17.29,0,0,0-7.2-1.05c-2.74,0-5.67.3-7.14,1.08l.52-.86c1.21-.63,4.05-.95,6.61-.95" style="fill:#ff0;stroke:#000;stroke-linecap:round;stroke-linejoin:round;stroke-width:0.05px;fill-rule:evenodd"/><path d="M25.58,20.37a27,27,0,0,1,4.65.33,8.14,8.14,0,0,1,2.55.75l.13.22a9.73,9.73,0,0,0-2.7-.8,26.91,26.91,0,0,0-4.63-.32,27.78,27.78,0,0,0-4.69.32,8.48,8.48,0,0,0-2.52.79l.12-.24a8.27,8.27,0,0,1,2.37-.72,26.58,26.58,0,0,1,4.72-.33Zm0-.69a26.29,26.29,0,0,1,4.49.32,7.13,7.13,0,0,1,2.32.76l.19.29A6.22,6.22,0,0,0,30,20.17a28.64,28.64,0,0,0-4.41-.31,27.85,27.85,0,0,0-4.51.33,7.74,7.74,0,0,0-2.24.69l.17-.25A8,8,0,0,1,21,20a27,27,0,0,1,4.54-.34Z" style="fill:#ff0;stroke:#000;stroke-linecap:round;stroke-linejoin:round;stroke-width:0.05px;fill-rule:evenodd"/><path d="M29.56,28.51a21.46,21.46,0,0,0-4-.3c-5,.06-6.57,1-6.77,1.31l-.37-.6c1.27-.92,4-1.43,7.17-1.38a26,26,0,0,1,4.3.37l-.35.6" style="fill:#ff0;stroke:#000;stroke-linecap:round;stroke-linejoin:round;stroke-width:0.05px;fill-rule:evenodd"/><path d="M25.55,28.13a23.47,23.47,0,0,1,4.05.32l-.09.16a21.35,21.35,0,0,0-4-.3,19.43,19.43,0,0,0-5.31.62c-.5.14-1.35.47-1.43.74l-.1-.15c0-.16.54-.5,1.49-.76a19.14,19.14,0,0,1,5.34-.63Zm.07-.7a24.47,24.47,0,0,1,4.34.38l-.1.17a22.67,22.67,0,0,0-4.24-.37,20.79,20.79,0,0,0-5.56.65c-.57.17-1.56.53-1.59.82l-.1-.17c0-.26.88-.6,1.65-.82a20.3,20.3,0,0,1,5.6-.66Z" style="fill:#ff0;stroke:#000;stroke-linecap:round;stroke-linejoin:round;stroke-width:0.05px;fill-rule:evenodd"/><path d="M32.67,29l-.59.93-1.72-1.53-4.45-3-5-2.75-2.6-.89.55-1,.19-.11,1.62.41L26,23.8l3.08,1.94,2.58,1.86,1.06,1.22Z" style="fill:#ff0;stroke:#000;stroke-linecap:round;stroke-linejoin:round;stroke-width:0.05px;fill-rule:evenodd"/><path d="M18.2,21.8c.45-.31,3.81,1.19,7.32,3.3s6.85,4.53,6.55,5l-.1.15,0,0s.06-.07,0-.23c-.15-.5-2.52-2.39-6.46-4.77s-7-3.67-7.36-3.28l.1-.19ZM32.79,29c.29-.58-2.82-2.92-6.68-5.2s-6.8-3.56-7.32-3.17l-.11.21s0,0,0,0a.51.51,0,0,1,.32-.08c.89,0,3.45,1.19,7,3.25,1.57.91,6.64,4.16,6.62,5.08,0,.08,0,.09,0,.13l.12-.19Z" style="fill:#ff0;stroke:#000;stroke-linecap:round;stroke-linejoin:round;stroke-width:0.05px;fill-rule:evenodd"/><path d="M20.78,26.07a4.85,4.85,0,0,0,4.8,4.8,4.81,4.81,0,0,0,4.81-4.8h0V19.66H20.78v6.42Z" style="fill:#fff;stroke:#000;stroke-width:0.05px"/><path d="M21,26.08h0a4.57,4.57,0,0,0,1.36,3.24,4.6,4.6,0,0,0,6.51,0,4.56,4.56,0,0,0,1.35-3.24h0V19.87H21v6.21m7.36-4.35V26.1h0c0,.11,0,.24,0,.34a2.66,2.66,0,0,1-.79,1.6,2.74,2.74,0,0,1-1.94.8A2.71,2.71,0,0,1,23.64,28a2.75,2.75,0,0,1-.81-1.93V21.72Z" style="fill:red;stroke:#000;stroke-width:0.05px"/><path d="M21.56,21.49a.57.57,0,0,1,.33-.56.57.57,0,0,1,.34.56h-.67" style="fill:#ff0"/><path d="M21.28,20.94l-.05.52h.33a.47.47,0,0,1,.33-.5.49.49,0,0,1,.33.5h.34l-.06-.52Z" style="fill:#ff0;stroke:#000;stroke-width:0.05px"/><path d="M21.21,21.46h1.37a.06.06,0,0,1,.05.06s0,.07-.05.07H21.21a.07.07,0,0,1-.06-.07A.06.06,0,0,1,21.21,21.46Z" style="fill:#ff0;stroke:#000;stroke-width:0.05px"/><path d="M21.7,21.46a.38.38,0,0,1,.19-.35.36.36,0,0,1,.19.35H21.7" style="fill:#ff0;stroke:#000;stroke-width:0.05px"/><path d="M21.23,20.73h1.32a.06.06,0,0,1,.05.06,0,0,0,0,1-.05.05H21.23a.05.05,0,0,1-.05-.05A.06.06,0,0,1,21.23,20.73Z" style="fill:#ff0;stroke:#000;stroke-width:0.05px"/><path d="M21.26,20.84h1.26a.06.06,0,0,1,0,.12H21.26a.06.06,0,0,1,0-.12Z" style="fill:#ff0;stroke:#000;stroke-width:0.05px"/><path d="M21.67,20h.1v.07h.07V20h.1v.07H22V20h.11v.16a0,0,0,0,1-.05,0h-.36a0,0,0,0,1,0,0V20Z" style="fill:#ff0;stroke:#000;stroke-width:0.05px"/><path d="M22,20.21l0,.52h-.34l0-.53H22" style="fill:#ff0;stroke:#000;stroke-width:0.05px"/><path d="M21.62,20.45v.28h-.34v-.28Z" style="fill:#ff0;stroke:#000;stroke-width:0.05px"/><path d="M22.48,20.45v.28h-.34v-.28Z" style="fill:#ff0;stroke:#000;stroke-width:0.05px"/><path d="M21.24,20.24h.1v.07h.07v-.07h.1v.07h.07v-.07h.1v.16a0,0,0,0,1,0,.05h-.35a0,0,0,0,1-.05-.05v-.16Z" style="fill:#ff0;stroke:#000;stroke-width:0.05px"/><path d="M22.1,20.24h.1v.07h.07v-.07h.1v.07h.07v-.07h.1v.16a0,0,0,0,1-.05.05h-.34a0,0,0,0,1,0-.05v-.16Z" style="fill:#ff0;stroke:#000;stroke-width:0.05px"/><path d="M21.86,20.37c0-.05.07-.05.07,0v.12h-.07v-.12"/><path d="M21.43,20.55c0-.05.06-.05.06,0v.1h-.06v-.1"/><path d="M22.29,20.55c0-.05.06-.05.06,0v.1h-.06v-.1"/><path d="M21.56,25.24a.56.56,0,0,1,.33-.56.57.57,0,0,1,.34.56h-.67" style="fill:#ff0"/><path d="M21.28,24.69l-.05.51h.33a.46.46,0,0,1,.33-.49.48.48,0,0,1,.33.49h.34l-.06-.51Z" style="fill:#ff0;stroke:#000;stroke-width:0.05px"/><path d="M21.21,25.21h1.37s.05,0,.05.06a.06.06,0,0,1-.05.06H21.21a.06.06,0,0,1-.06-.06A.06.06,0,0,1,21.21,25.21Z" style="fill:#ff0;stroke:#000;stroke-width:0.05px"/><path d="M21.7,25.2a.38.38,0,0,1,.19-.34.36.36,0,0,1,.19.34H21.7" style="fill:#ff0;stroke:#000;stroke-width:0.05px"/><path d="M21.23,24.48h1.32a0,0,0,0,1,.05.05s0,.06-.05.06H21.23a.06.06,0,0,1-.05-.06A.05.05,0,0,1,21.23,24.48Z" style="fill:#ff0;stroke:#000;stroke-width:0.05px"/><path d="M21.26,24.59h1.26a.06.06,0,0,1,0,.12H21.26a.06.06,0,0,1,0-.12Z" style="fill:#ff0;stroke:#000;stroke-width:0.05px"/><path d="M21.67,23.74h.1v.07h.07v-.08h.1v.08H22v-.08h.11v.17a0,0,0,0,1-.05,0h-.36a0,0,0,0,1,0,0v-.16Z" style="fill:#ff0;stroke:#000;stroke-width:0.05px"/><path d="M22,24l0,.52h-.34l0-.52H22" style="fill:#ff0;stroke:#000;stroke-width:0.05px"/><path d="M21.62,24.19v.29h-.34v-.29Z" style="fill:#ff0;stroke:#000;stroke-width:0.05px"/><path d="M22.48,24.19v.29h-.34v-.29Z" style="fill:#ff0;stroke:#000;stroke-width:0.05px"/><path d="M21.24,24h.1v.07h.07V24h.1v.07h.07V24h.1v.16a0,0,0,0,1,0,0h-.35s-.05,0-.05,0V24Z" style="fill:#ff0;stroke:#000;stroke-width:0.05px"/><path d="M22.1,24h.1v.07h.07V24h.1v.07h.07V24h.1v.16s0,0-.05,0h-.34s0,0,0,0V24Z" style="fill:#ff0;stroke:#000;stroke-width:0.05px"/><path d="M21.86,24.12c0-.05.07-.05.07,0v.12h-.07v-.12"/><path d="M21.43,24.3c0-.05.06-.05.06,0v.09h-.06V24.3"/><path d="M22.29,24.3c0-.05.06-.05.06,0v.09h-.06V24.3"/><path d="M23,29.14a.57.57,0,0,1-.16-.63.56.56,0,0,1,.63.15l-.47.48" style="fill:#ff0"/><path d="M22.44,29l.32.4.24-.24a.46.46,0,0,1-.12-.58.5.5,0,0,1,.59.11l.23-.24-.41-.32-.85.87Z" style="fill:#ff0;stroke:#000;stroke-width:0.05px"/><path d="M22.75,29.36l1-1s.05,0,.08,0a.06.06,0,0,1,0,.08l-1,1a.06.06,0,0,1-.08,0A.06.06,0,0,1,22.75,29.36Z" style="fill:#ff0;stroke:#000;stroke-width:0.05px"/><path d="M23.1,29a.36.36,0,0,1-.12-.37.36.36,0,0,1,.38.1L23.1,29" style="fill:#ff0;stroke:#000;stroke-width:0.05px"/><path d="M22.25,28.83l.93-.93a0,0,0,0,1,.07,0,.05.05,0,0,1,0,.08l-.93.93a0,0,0,0,1-.07,0S22.23,28.85,22.25,28.83Z" style="fill:#ff0;stroke:#000;stroke-width:0.05px"/><path d="M22.35,28.89l.89-.89a.06.06,0,0,1,.08.08l-.89.89s-.05,0-.07,0S22.33,28.91,22.35,28.89Z" style="fill:#ff0;stroke:#000;stroke-width:0.05px"/><path d="M22,28l.07-.07,0,.05.05-.05-.05-.05.07-.07.05.05.06-.06-.06-.05.08-.07.11.12s0,0,0,.06l-.25.25s-.05,0-.06,0L22,28Z" style="fill:#ff0;stroke:#000;stroke-width:0.05px"/><path d="M22.45,27.89l.39.35-.25.25-.35-.39.21-.21" style="fill:#ff0;stroke:#000;stroke-width:0.05px"/><path d="M22.32,28.36l.21.19-.24.24-.19-.21.22-.22Z" style="fill:#ff0;stroke:#000;stroke-width:0.05px"/><path d="M22.93,27.75l.2.19-.23.24L22.71,28l.22-.22Z" style="fill:#ff0;stroke:#000;stroke-width:0.05px"/><path d="M21.91,28.48l.07-.07.05.05,0-.05,0-.05.07-.07,0,.05.05-.05-.05-.05.07-.07.12.12a.06.06,0,0,1,0,.06l-.25.24a0,0,0,0,1-.06,0l-.12-.12Z" style="fill:#ff0;stroke:#000;stroke-width:0.05px"/><path d="M22.52,27.87l.07-.06.05,0,.05-.05-.06-.05.08-.07.05.05,0-.05,0-.05.07-.07.11.12s0,0,0,.06l-.25.24s0,0-.06,0l-.11-.12Z" style="fill:#ff0;stroke:#000;stroke-width:0.05px"/><path d="M22.44,28.14s0-.09,0-.05l.08.08-.05,0-.08-.08"/><path d="M22.26,28.57s0-.08,0-.05l.07.07-.05.05-.07-.07"/><path d="M22.87,28s0-.09,0-.05L23,28l0,.05L22.87,28"/><path d="M25.26,21.49a.57.57,0,0,1,.33-.56.57.57,0,0,1,.34.56h-.67" style="fill:#ff0"/><path d="M25,20.94l-.05.52h.33a.46.46,0,0,1,.33-.5.51.51,0,0,1,.33.5h.34l-.06-.52Z" style="fill:#ff0;stroke:#000;stroke-width:0.05px"/><path d="M24.9,21.46h1.38a.06.06,0,0,1,0,.06.07.07,0,0,1,0,.07H24.9a.07.07,0,0,1,0-.07A.06.06,0,0,1,24.9,21.46Z" style="fill:#ff0;stroke:#000;stroke-width:0.05px"/><path d="M25.4,21.46a.36.36,0,0,1,.19-.35.36.36,0,0,1,.19.35H25.4" style="fill:#ff0;stroke:#000;stroke-width:0.05px"/><path d="M24.93,20.73h1.32a.06.06,0,0,1,.05.06,0,0,0,0,1-.05.05H24.93a.05.05,0,0,1-.05-.05A.06.06,0,0,1,24.93,20.73Z" style="fill:#ff0;stroke:#000;stroke-width:0.05px"/><path d="M25,20.84h1.26a.06.06,0,0,1,0,.12H25a.06.06,0,0,1,0-.12Z" style="fill:#ff0;stroke:#000;stroke-width:0.05px"/><path d="M25.37,20h.1v.07h.07V20h.1v.07h.07V20h.1v.16a0,0,0,0,1,0,0h-.36a0,0,0,0,1,0,0V20Z" style="fill:#ff0;stroke:#000;stroke-width:0.05px"/><path d="M25.74,20.21l0,.52h-.35l0-.53h.3" style="fill:#ff0;stroke:#000;stroke-width:0.05px"/><path d="M25.32,20.45v.28H25v-.28Z" style="fill:#ff0;stroke:#000;stroke-width:0.05px"/><path d="M26.17,20.45v.28h-.33v-.28Z" style="fill:#ff0;stroke:#000;stroke-width:0.05px"/><path d="M24.94,20.24H25v.07h.07v-.07h.1v.07h.07v-.07h.1v.16a0,0,0,0,1,0,.05H25a0,0,0,0,1,0-.05v-.16Z" style="fill:#ff0;stroke:#000;stroke-width:0.05px"/><path d="M25.8,20.24h.1v.07H26v-.07h.1v.07h.07v-.07h.1v.16a0,0,0,0,1,0,.05h-.35a0,0,0,0,1,0-.05v-.16Z" style="fill:#ff0;stroke:#000;stroke-width:0.05px"/><path d="M25.56,20.37c0-.05.07-.05.07,0v.12h-.07v-.12"/><path d="M25.12,20.55a0,0,0,1,1,.07,0v.1h-.07v-.1"/><path d="M26,20.55c0-.05.06-.05.06,0v.1H26v-.1"/><path d="M29.6,21.49a.59.59,0,0,0-.33-.56.57.57,0,0,0-.34.56h.67" style="fill:#ff0"/><path d="M29.87,20.94l.06.52h-.34a.46.46,0,0,0-.33-.5.52.52,0,0,0-.33.5H28.6l.06-.52Z" style="fill:#ff0;stroke:#000;stroke-width:0.05px"/><path d="M30,21.46H28.58a.06.06,0,0,0,0,.06s0,.07,0,.07H30s.05,0,.05-.07A.06.06,0,0,0,30,21.46Z" style="fill:#ff0;stroke:#000;stroke-width:0.05px"/><path d="M29.45,21.46a.37.37,0,0,0-.18-.35.36.36,0,0,0-.19.35h.37" style="fill:#ff0;stroke:#000;stroke-width:0.05px"/><path d="M29.92,20.73H28.61a.06.06,0,0,0-.05.06,0,0,0,0,0,.05.05h1.31a0,0,0,0,0,0-.05A.06.06,0,0,0,29.92,20.73Z" style="fill:#ff0;stroke:#000;stroke-width:0.05px"/><path d="M29.89,20.84H28.64a.06.06,0,0,0,0,.12h1.25a.06.06,0,0,0,0-.12Z" style="fill:#ff0;stroke:#000;stroke-width:0.05px"/><path d="M29.49,20h-.1v.07h-.07V20h-.11v.07h-.07V20H29v.16a0,0,0,0,0,0,0h.36a0,0,0,0,0,0,0V20Z" style="fill:#ff0;stroke:#000;stroke-width:0.05px"/><path d="M29.11,20.21l0,.52h.35l0-.53h-.31" style="fill:#ff0;stroke:#000;stroke-width:0.05px"/><path d="M29.54,20.45v.28h.33v-.28Z" style="fill:#ff0;stroke:#000;stroke-width:0.05px"/><path d="M28.68,20.45v.28H29v-.28Z" style="fill:#ff0;stroke:#000;stroke-width:0.05px"/><path d="M29.91,20.24h-.09v.07h-.07v-.07h-.1v.07h-.07v-.07h-.1v.16a0,0,0,0,0,0,.05h.35a0,0,0,0,0,0-.05v-.16Z" style="fill:#ff0;stroke:#000;stroke-width:0.05px"/><path d="M29.06,20.24H29v.07h-.07v-.07h-.1v.07h-.07v-.07h-.1v.16a0,0,0,0,0,0,.05H29a.05.05,0,0,0,0-.05v-.16Z" style="fill:#ff0;stroke:#000;stroke-width:0.05px"/><path d="M29.3,20.37a0,0,0,1,0-.07,0v.12h.07v-.12"/><path d="M29.73,20.55a0,0,0,1,0-.07,0v.1h.07v-.1"/><path d="M28.87,20.55a0,0,0,1,0-.07,0v.1h.07v-.1"/><path d="M29.6,25.24a.57.57,0,0,0-.33-.56.57.57,0,0,0-.34.56h.67" style="fill:#ff0"/><path d="M29.87,24.69l.06.51h-.34a.45.45,0,0,0-.33-.49.5.5,0,0,0-.33.49H28.6l.06-.51Z" style="fill:#ff0;stroke:#000;stroke-width:0.05px"/><path d="M30,25.21H28.58s0,0,0,.06a.06.06,0,0,0,0,.06H30a.06.06,0,0,0,.05-.06S30,25.21,30,25.21Z" style="fill:#ff0;stroke:#000;stroke-width:0.05px"/><path d="M29.45,25.2a.36.36,0,0,0-.18-.34.36.36,0,0,0-.19.34h.37" style="fill:#ff0;stroke:#000;stroke-width:0.05px"/><path d="M29.92,24.48H28.61a0,0,0,0,0-.05.05s0,.06.05.06h1.31s0,0,0-.06A0,0,0,0,0,29.92,24.48Z" style="fill:#ff0;stroke:#000;stroke-width:0.05px"/><path d="M29.89,24.59H28.64a.06.06,0,0,0,0,.12h1.25a.06.06,0,0,0,0-.12Z" style="fill:#ff0;stroke:#000;stroke-width:0.05px"/><path d="M29.49,23.74h-.1v.07h-.07v-.08h-.11v.08h-.07v-.08H29v.17a0,0,0,0,0,0,0h.36a0,0,0,0,0,0,0v-.16Z" style="fill:#ff0;stroke:#000;stroke-width:0.05px"/><path d="M29.11,24l0,.52h.35l0-.52h-.31" style="fill:#ff0;stroke:#000;stroke-width:0.05px"/><path d="M29.54,24.19v.29h.33v-.29Z" style="fill:#ff0;stroke:#000;stroke-width:0.05px"/><path d="M28.68,24.19v.29H29v-.29Z" style="fill:#ff0;stroke:#000;stroke-width:0.05px"/><path d="M29.91,24h-.09v.07h-.07V24h-.1v.07h-.07V24h-.1v.16a0,0,0,0,0,0,0h.35a0,0,0,0,0,0,0V24Z" style="fill:#ff0;stroke:#000;stroke-width:0.05px"/><path d="M29.06,24H29v.07h-.07V24h-.1v.07h-.07V24h-.1v.16a0,0,0,0,0,0,0H29s0,0,0,0V24Z" style="fill:#ff0;stroke:#000;stroke-width:0.05px"/><path d="M29.3,24.12a0,0,0,1,0-.07,0v.12h.07v-.12"/><path d="M29.73,24.3a0,0,0,1,0-.07,0v.09h.07V24.3"/><path d="M28.87,24.3a0,0,0,1,0-.07,0v.09h.07V24.3"/><path d="M28.14,29.14a.57.57,0,0,0,.16-.63.57.57,0,0,0-.64.15l.48.48" style="fill:#ff0"/><path d="M28.72,29l-.33.4-.23-.24a.44.44,0,0,0,.11-.58.49.49,0,0,0-.58.11l-.24-.24.41-.32.86.87Z" style="fill:#ff0;stroke:#000;stroke-width:0.05px"/><path d="M28.41,29.36l-1-1a.07.07,0,0,0-.09.09l1,1a.06.06,0,0,0,.08,0A.08.08,0,0,0,28.41,29.36Z" style="fill:#ff0;stroke:#000;stroke-width:0.05px"/><path d="M28.06,29a.34.34,0,0,0,.11-.37.36.36,0,0,0-.38.1l.27.27" style="fill:#ff0;stroke:#000;stroke-width:0.05px"/><path d="M28.9,28.83,28,27.9a.06.06,0,1,0-.08.08l.92.93a.06.06,0,0,0,.08-.08Z" style="fill:#ff0;stroke:#000;stroke-width:0.05px"/><path d="M28.8,28.89,27.92,28s-.05,0-.08,0a0,0,0,0,0,0,.07l.88.89a.06.06,0,0,0,.08-.08Z" style="fill:#ff0;stroke:#000;stroke-width:0.05px"/><path d="M29.12,28l-.07-.07L29,28,29,27.93l.05-.05-.07-.07-.05.05-.05-.06.05-.05-.07-.07-.12.12a0,0,0,0,0,0,.06l.25.25s0,0,.06,0l.11-.11Z" style="fill:#ff0;stroke:#000;stroke-width:0.05px"/><path d="M28.71,27.89l-.39.35.25.25.35-.39-.21-.21" style="fill:#ff0;stroke:#000;stroke-width:0.05px"/><path d="M28.83,28.36l-.2.19.23.24.2-.21-.23-.22Z" style="fill:#ff0;stroke:#000;stroke-width:0.05px"/><path d="M28.23,27.75l-.21.19.24.24.19-.21-.22-.22Z" style="fill:#ff0;stroke:#000;stroke-width:0.05px"/><path d="M29.24,28.48l-.06-.07-.05.05-.05-.05.05-.05-.07-.07,0,.05L29,28.29l.06-.05-.07-.07-.12.12s0,0,0,.06l.25.24s0,0,.06,0l.11-.12Z" style="fill:#ff0;stroke:#000;stroke-width:0.05px"/><path d="M28.64,27.87l-.07-.06-.05,0-.05-.05.05-.05-.07-.07-.05.05,0-.05,0-.05-.07-.07-.11.12s0,0,0,.06l.24.24a0,0,0,0,0,.06,0l.12-.12Z" style="fill:#ff0;stroke:#000;stroke-width:0.05px"/><path d="M28.72,28.14s0-.09,0-.05l-.09.08.05,0,.09-.08"/><path d="M28.9,28.57a0,0,0,0,0,0-.05l-.07.07,0,.05.07-.07"/><path d="M28.29,28s0-.09-.05-.05l-.07.07,0,.05.07-.07"/><path d="M25,25.37h0a.68.68,0,0,0,.18.46.58.58,0,0,0,.86,0,.68.68,0,0,0,.18-.46V24.5H25v.87" style="fill:#039"/><circle cx="25.27" cy="24.83" r="0.12" style="fill:#fff"/><circle cx="25.94" cy="24.83" r="0.12" style="fill:#fff"/><circle cx="25.6" cy="25.15" r="0.12" style="fill:#fff"/><circle cx="25.27" cy="25.49" r="0.12" style="fill:#fff"/><circle cx="25.94" cy="25.49" r="0.12" style="fill:#fff"/><path d="M25,23.27h0a.7.7,0,0,0,.18.46.61.61,0,0,0,.43.19.57.57,0,0,0,.43-.19.68.68,0,0,0,.18-.46V22.4H25v.88" style="fill:#039"/><circle cx="25.27" cy="22.73" r="0.12" style="fill:#fff"/><circle cx="25.94" cy="22.73" r="0.12" style="fill:#fff"/><circle cx="25.6" cy="23.05" r="0.12" style="fill:#fff"/><circle cx="25.27" cy="23.39" r="0.12" style="fill:#fff"/><circle cx="25.94" cy="23.39" r="0.12" style="fill:#fff"/><path d="M23.31,25.37h0a.68.68,0,0,0,.18.46.57.57,0,0,0,.43.19.59.59,0,0,0,.43-.19.72.72,0,0,0,.17-.46V24.5H23.31v.87" style="fill:#039"/><circle cx="23.59" cy="24.83" r="0.12" style="fill:#fff"/><circle cx="24.26" cy="24.83" r="0.12" style="fill:#fff"/><circle cx="23.92" cy="25.15" r="0.12" style="fill:#fff"/><circle cx="23.59" cy="25.49" r="0.12" style="fill:#fff"/><circle cx="24.26" cy="25.49" r="0.12" style="fill:#fff"/><path d="M26.67,25.37h0a.68.68,0,0,0,.18.46.57.57,0,0,0,.43.19.59.59,0,0,0,.43-.19.67.67,0,0,0,.17-.46V24.5H26.67v.87" style="fill:#039"/><circle cx="26.95" cy="24.83" r="0.12" style="fill:#fff"/><circle cx="27.62" cy="24.83" r="0.12" style="fill:#fff"/><circle cx="27.28" cy="25.15" r="0.12" style="fill:#fff"/><circle cx="26.95" cy="25.49" r="0.12" style="fill:#fff"/><circle cx="27.62" cy="25.49" r="0.12" style="fill:#fff"/><path d="M25,27.46h0a.68.68,0,0,0,.18.46.58.58,0,0,0,.86,0,.68.68,0,0,0,.18-.46v-.87H25v.87" style="fill:#039"/><circle cx="25.27" cy="26.92" r="0.12" style="fill:#fff"/><circle cx="25.94" cy="26.92" r="0.12" style="fill:#fff"/><circle cx="25.6" cy="27.24" r="0.12" style="fill:#fff"/><circle cx="25.27" cy="27.58" r="0.12" style="fill:#fff"/><circle cx="25.94" cy="27.58" r="0.12" style="fill:#fff"/></g></svg>