<svg xmlns="http://www.w3.org/2000/svg" viewBox="0 0 100 100">
  <g id="Maternity_Time_Off" data-name="Maternity Time Off">
    <g>
      <g>
        <path d="M63,11.81H53.58V38.42H20.75v2.35a24,24,0,0,0,24,24H63a24,24,0,0,0,24-24v-5A24,24,0,0,0,63,11.81Z" fill="none" stroke="#875b7b" stroke-linecap="round" stroke-linejoin="round" stroke-width="5"/>
        <path d="M46.1,40.92H86.75c3.21,0,3.22-5,0-5H46.1c-3.22,0-3.23,5,0,5Z" fill="#875b7b"/>
        <path d="M23.25,38.52V23.4a2.53,2.53,0,0,0-2.5-2.5H13a2.5,2.5,0,0,0,0,5h7.71l-2.5-2.5V38.52a2.5,2.5,0,0,0,5,0Z" fill="#875b7b"/>
        <circle cx="28.65" cy="79.82" r="8.37" fill="none" stroke="#875b7b" stroke-linecap="round" stroke-linejoin="round" stroke-width="5"/>
        <circle cx="78.1" cy="79.82" r="8.37" fill="none" stroke="#875b7b" stroke-linecap="round" stroke-linejoin="round" stroke-width="5"/>
        <path d="M80.64,71.45V59.26a2.5,2.5,0,0,0-5,0V71.45a2.5,2.5,0,0,0,5,0Z" fill="#875b7b"/>
        <path d="M31.25,71.45V59.68a2.5,2.5,0,0,0-5,0V71.45a2.5,2.5,0,0,0,5,0Z" fill="#875b7b"/>
      </g>
      <path d="M28.66,82.27c3.22,0,3.22-5,0-5s-3.22,5,0,5Z" fill="#875b7b"/>
      <path d="M78.08,82.27c3.21,0,3.22-5,0-5s-3.23,5,0,5Z" fill="#875b7b"/>
    </g>
  </g>
</svg>
