<svg width="512" height="512" viewBox="0 0 512 512" fill="none" xmlns="http://www.w3.org/2000/svg">
<path d="M256 512C397.39 512 512 397.39 512 256C512 114.61 397.39 0 256 0C114.61 0 0 114.61 0 256C0 397.39 114.61 512 256 512Z" fill="#FDA20C"/>
<path d="M386 170H334C330.13 170 327 173.13 327 177C327 180.87 330.13 184 334 184H386C389.87 184 393 180.87 393 177C393 173.13 389.87 170 386 170Z" fill="white"/>
<path d="M286 227H215V243H286V227Z" fill="white"/>
<path d="M360 114C337.57 114 317.85 125.8 306.68 143.5H291.28L254.84 115.33C252.11 113.22 248.31 113.25 245.6 115.39L210.13 143.5H152C147.86 143.5 144.5 146.86 144.5 151V191.71L119.66 209.33C117.68 210.73 116.5 213.02 116.5 215.45V374C116.5 378.14 119.86 381.5 124 381.5H376C380.14 381.5 383.5 378.14 383.5 374V235.44C406.63 226.1 423 203.44 423 177C423 142.26 394.74 114 360 114ZM250.3 128.25L270.02 143.5H231.06L250.3 128.25ZM157.5 156.5H214.46L214.53 156.59L214.65 156.5H286.83L287.01 156.64L287.12 156.5H300.43C299.05 160.5 298.05 164.68 297.5 169H199.99V185H297.51C298.08 189.5 299.14 193.85 300.61 198H186.99V214H309.05C315.67 223.1 324.67 230.36 335.12 234.87L249.56 288.29L157.49 228.52V156.5H157.5ZM144.5 207.65V220.09L135.34 214.15L144.5 207.65ZM370.5 362.25L296.88 313.17C293.66 311.03 289.32 311.89 287.17 315.11C285.02 318.33 285.89 322.67 289.11 324.82L354.62 368.5H146.36L211.87 324.82C215.09 322.68 215.96 318.33 213.81 315.11C211.67 311.89 207.32 311.02 204.1 313.17L129.48 362.91V225.84L144.48 235.58V236H145.12L245.4 301.1C246.64 301.9 248.06 302.31 249.49 302.31C250.92 302.31 252.25 301.93 253.46 301.18L352.23 239.51C354.77 239.82 357.35 240 359.98 240C363.56 240 367.06 239.68 370.48 239.11V362.26L370.5 362.25ZM360 226C332.98 226 311 204.02 311 177C311 149.98 332.98 128 360 128C387.02 128 409 149.98 409 177C409 204.02 387.02 226 360 226Z" fill="white"/>
</svg>
