<?xml version="1.0" encoding="UTF-8"?>
<svg version="1.1" xmlns="http://www.w3.org/2000/svg" width="512" height="512">
<path d="M0 0 C26.38163408 10.491301 47.52665633 61.69789048 58 86 C61.50087932 94.60198757 64.77935653 103.28976455 68 112 C68.55945313 111.23558594 69.11890625 110.47117187 69.6953125 109.68359375 C89.48336453 83.0807789 114.4719335 62.62400482 144.375 48.375 C145.09486084 48.03178711 145.81472168 47.68857422 146.55639648 47.33496094 C149.53895825 45.95866996 151.67637383 45 155 45 C155.80300572 48.20559884 156.59011778 51.41491991 157.375 54.625 C157.59671875 55.50929687 157.8184375 56.39359375 158.046875 57.3046875 C161.43302284 71.24764918 162.37668833 84.78317028 162.3125 99.0625 C162.31034485 99.92472168 162.3081897 100.78694336 162.30596924 101.67529297 C162.22271892 122.43686456 159.16765407 141.01102685 153.50317383 160.99487305 C152.91886769 162.97875938 152.91886769 162.97875938 153 165 C153.74870361 164.56768066 154.49740723 164.13536133 155.26879883 163.68994141 C180.50719966 149.13713045 180.50719966 149.13713045 192.0625 143 C192.83376221 142.58572754 193.60502441 142.17145508 194.3996582 141.74462891 C199.63456205 139 199.63456205 139 203 139 C203.63575566 192.3317488 203.63575566 192.3317488 200 213 C199.82307617 214.03479492 199.64615234 215.06958984 199.46386719 216.13574219 C192.53351998 255.74285599 179.41891006 291.59301654 145.31323242 315.54077148 C139.46517573 319.50592805 133.3115194 322.83375605 127 326 C127.97839844 326.03738281 128.95679688 326.07476562 129.96484375 326.11328125 C149.46459659 327.09114496 149.46459659 327.09114496 156 334 C159.8391417 339.96043016 161.8058411 345.97249317 160.3125 353.0625 C158.54381354 359.15857268 155.22773647 363.42983851 150 367 C145.74906436 369.15605009 141.85589609 369.24115148 137.1875 369.125 C136.49462891 369.11597656 135.80175781 369.10695313 135.08789062 369.09765625 C133.39177605 369.07426157 131.69584129 369.03839641 130 369 C129.8594519 370.87582764 129.8594519 370.87582764 129.71606445 372.78955078 C128.84985683 381.39327113 127.11991286 389.87173264 125.54296875 398.3671875 C125.19514473 400.25226819 124.84743454 402.13736989 124.49983215 404.02249146 C123.77230197 407.96167615 123.04135357 411.9002093 122.30834961 415.83837891 C121.37516547 420.85517037 120.45365944 425.87402882 119.53513622 430.89352226 C118.82120074 434.7845282 118.09940502 438.6740467 117.37548256 442.56320572 C117.03268146 444.41163361 116.69261895 446.26057179 116.35548973 448.11004257 C112.67333818 468.2720705 107.63465496 488.30851729 90.34082031 501.24072266 C78.59830703 509.17312943 66.09735437 512.61875549 51.98046875 512.51757812 C50.75099518 512.5245874 49.52152161 512.53159668 48.25479126 512.53881836 C44.923859 512.55327388 41.59393807 512.55007499 38.26306534 512.53730202 C34.75112967 512.52706177 31.23923257 512.53659788 27.72729492 512.54284668 C21.83341868 512.55009143 15.93974397 512.54061947 10.04589844 512.52148438 C3.26506108 512.49972157 -3.51529492 512.50677522 -10.29612064 512.52879 C-16.15390374 512.54703522 -22.01154329 512.54945813 -27.86934566 512.53903532 C-31.35223701 512.5328501 -34.83490332 512.53182541 -38.31777954 512.54518127 C-42.20552785 512.55905266 -46.09275183 512.53974215 -49.98046875 512.51757812 C-51.11020111 512.52567505 -52.23993347 512.53377197 -53.40390015 512.54211426 C-69.24799671 512.37604135 -83.26201103 506.26793567 -94.71484375 495.4140625 C-103.31853399 486.32503589 -108.3111879 475.98707361 -110.91503906 463.81762695 C-111.17144606 462.64019535 -111.17144606 462.64019535 -111.43303299 461.43897724 C-113.3305848 452.62771816 -115.01346412 443.77676172 -116.671875 434.91796875 C-117.00233277 433.16202915 -117.33292226 431.40611433 -117.66363525 429.65022278 C-118.34794182 426.01288067 -119.02997603 422.37512167 -119.71044922 418.73706055 C-120.58173729 414.08043111 -121.45997292 409.42514113 -122.33997726 404.77015209 C-123.02084526 401.16338096 -123.69754061 397.55583644 -124.37302399 393.94805336 C-124.69535361 392.22981528 -125.01910284 390.51184286 -125.3443222 388.7941494 C-125.79605526 386.40546454 -126.24201655 384.01577101 -126.68652344 381.62573242 C-126.82050034 380.92392853 -126.95447723 380.22212463 -127.09251404 379.49905396 C-127.74545018 375.95334616 -128.14631552 372.6063513 -128 369 C-128.99 369.04640625 -129.98 369.0928125 -131 369.140625 C-145.28155786 369.61438648 -145.28155786 369.61438648 -151 365 C-155.72772007 360.44286777 -158.34350449 355.85558212 -159.03125 349.28515625 C-158.95608559 343.78875876 -157.08065222 338.77535722 -154.25 334.125 C-147.72113 327.958845 -140.87606167 326.9446792 -132.1875 326.4375 C-131.49462891 326.39431641 -130.80175781 326.35113281 -130.08789062 326.30664062 C-128.39211314 326.20138547 -126.69607948 326.10027137 -125 326 C-126.38058594 325.32517578 -126.38058594 325.32517578 -127.7890625 324.63671875 C-155.41214894 310.75893311 -177.56433737 286.81101574 -187.6484375 257.35546875 C-193.97018375 237.7276889 -197.64034915 217.44844016 -200 197 C-200.08968552 196.25076767 -200.17937103 195.50153534 -200.27177429 194.729599 C-200.98533396 188.30950137 -201.13103094 181.97898186 -201.09765625 175.5234375 C-201.0962413 174.47217682 -201.09482635 173.42091614 -201.09336853 172.33779907 C-201.08782087 169.01683572 -201.07527842 165.69594259 -201.0625 162.375 C-201.05747823 160.1080739 -201.05291651 157.84114673 -201.04882812 155.57421875 C-201.03786865 150.04945566 -201.02118357 144.52473285 -201 139 C-196.82468611 139.61093961 -193.68891693 141.03168414 -189.984375 143.02734375 C-188.82260742 143.6505249 -187.66083984 144.27370605 -186.46386719 144.91577148 C-185.22571289 145.58931609 -183.98776061 146.26323219 -182.75 146.9375 C-181.48871137 147.61876466 -180.22731769 148.29983485 -178.96582031 148.98071289 C-169.51284586 154.10050272 -160.18947437 159.42067627 -151 165 C-151.24234375 164.08863281 -151.4846875 163.17726562 -151.734375 162.23828125 C-153.82231876 154.22801688 -155.63182495 146.19358186 -157.1875 138.0625 C-157.35411133 137.19987549 -157.52072266 136.33725098 -157.69238281 135.44848633 C-159.25258783 127.12125246 -160.15055712 118.90668186 -160.23828125 110.43359375 C-160.2527681 109.25075554 -160.2527681 109.25075554 -160.26754761 108.04402161 C-160.29222644 105.50846585 -160.30492451 102.97316268 -160.3125 100.4375 C-160.31692612 99.13866882 -160.31692612 99.13866882 -160.32144165 97.81359863 C-160.33562028 79.5015835 -157.99639224 62.64423387 -153 45 C-132.26981792 48.62750005 -112.49756039 64.61255241 -97 78 C-96.1644458 78.72171387 -96.1644458 78.72171387 -95.31201172 79.45800781 C-84.06954475 89.26724069 -74.6527696 99.8656107 -66 112 C-65.60228394 110.93978638 -65.60228394 110.93978638 -65.1965332 109.8581543 C-55.88415121 85.19909377 -45.62795428 61.04915793 -31 39 C-30.59265625 38.38463379 -30.1853125 37.76926758 -29.765625 37.13525391 C-23.47769911 27.71102083 -16.6021556 18.84924095 -9.3125 10.1875 C-8.84859863 9.63578125 -8.38469727 9.0840625 -7.90673828 8.515625 C-5.38641753 5.54605731 -2.79981014 2.70801308 0 0 Z " fill="#7FC46D" transform="translate(255,0)"/>
<path d="M0 0 C4.75641406 4.07692634 8.89302016 7.84336469 12.875 12.5625 C13.3911084 13.17109863 13.9072168 13.77969727 14.43896484 14.40673828 C19.3870528 20.32636162 23.80873458 26.52010703 28 33 C28.59893066 33.92401611 28.59893066 33.92401611 29.20996094 34.86669922 C44.96037326 59.31610976 56.91310236 84.71996911 67 112 C67.55945313 111.23558594 68.11890625 110.47117187 68.6953125 109.68359375 C88.48336453 83.0807789 113.4719335 62.62400482 143.375 48.375 C144.09486084 48.03178711 144.81472168 47.68857422 145.55639648 47.33496094 C148.53895825 45.95866996 150.67637383 45 154 45 C154.80300572 48.20559884 155.59011778 51.41491991 156.375 54.625 C156.59671875 55.50929687 156.8184375 56.39359375 157.046875 57.3046875 C160.43302284 71.24764918 161.37668833 84.78317028 161.3125 99.0625 C161.30926727 100.35583252 161.30926727 100.35583252 161.30596924 101.67529297 C161.22271892 122.43686456 158.16765407 141.01102685 152.50317383 160.99487305 C151.91886769 162.97875938 151.91886769 162.97875938 152 165 C152.74870361 164.56768066 153.49740723 164.13536133 154.26879883 163.68994141 C179.50719966 149.13713045 179.50719966 149.13713045 191.0625 143 C191.83376221 142.58572754 192.60502441 142.17145508 193.3996582 141.74462891 C198.63456205 139 198.63456205 139 202 139 C202.63575566 192.3317488 202.63575566 192.3317488 199 213 C198.82307617 214.03479492 198.64615234 215.06958984 198.46386719 216.13574219 C191.55187137 255.63797737 178.4750334 291.56538057 144.44726562 315.47265625 C100.03087388 345.50893443 69.50404945 328 0 328 C0 219.76 0 111.52 0 0 Z " fill="#66AD66" transform="translate(256,0)"/>
<path d="M0 0 C0.98672251 -0.00384115 1.97344501 -0.00768229 2.9900682 -0.01163983 C4.06661233 -0.01077335 5.14315647 -0.00990687 6.25232315 -0.00901413 C7.97654885 -0.01347081 7.97654885 -0.01347081 9.73560739 -0.01801753 C12.92218758 -0.02518833 16.1087349 -0.02787611 19.29532194 -0.028615 C22.73375392 -0.03046864 26.17217428 -0.03801751 29.61059952 -0.04475021 C37.12719532 -0.0583212 44.64378579 -0.06435626 52.16039181 -0.06876087 C56.85528488 -0.07152524 61.55017591 -0.07576294 66.2450676 -0.08026505 C79.24832785 -0.09245583 92.25158645 -0.1027557 105.25485229 -0.10614014 C106.086779 -0.1063597 106.91870571 -0.10657927 107.77584232 -0.10680549 C109.02668587 -0.10713291 109.02668587 -0.10713291 110.30279899 -0.10746694 C111.99253702 -0.1079104 113.68227506 -0.10835696 115.37201309 -0.10880661 C116.21017816 -0.10902804 117.04834322 -0.10924947 117.91190723 -0.10947761 C131.49170615 -0.11342523 145.0714514 -0.130879 158.65122959 -0.15416613 C172.59917654 -0.17789123 186.54709657 -0.19034251 200.49506402 -0.19150805 C208.32400833 -0.19242414 216.15288269 -0.19815962 223.98180771 -0.21632767 C230.64847647 -0.23174425 237.31505366 -0.23683992 243.98173687 -0.22858956 C247.38135294 -0.22468862 250.78078469 -0.22558524 254.18037796 -0.23964691 C257.87085932 -0.25234053 261.56086852 -0.24650303 265.25134659 -0.23606491 C266.31896784 -0.24412132 267.38658908 -0.25217772 268.48656249 -0.26047826 C276.00443184 -0.21079525 282.31826983 0.91890837 288.81830215 4.81892776 C293.42886495 9.6929513 295.76576891 15.41049698 296.00580215 22.13142776 C295.16035325 28.80397069 292.55637664 33.77705132 287.56830215 38.38142776 C282.49891255 41.84344993 278.24509715 42.40699874 272.19330215 42.25642776 C271.15399551 42.24289261 271.15399551 42.24289261 270.09369278 42.22908401 C268.3975782 42.20568933 266.70164345 42.16982417 265.00580215 42.13142776 C264.86525406 44.0072554 264.86525406 44.0072554 264.72186661 45.92097855 C263.85565899 54.5246989 262.12571502 63.0031604 260.5487709 71.49861526 C260.20094689 73.38369596 259.8532367 75.26879765 259.50563431 77.15391922 C258.77810412 81.09310391 258.04715572 85.03163707 257.31415176 88.96980667 C256.38096762 93.98659813 255.45946159 99.00545658 254.54093838 104.02495003 C253.82700289 107.91595597 253.10520717 111.80547446 252.38128471 115.69463348 C252.03848362 117.54306138 251.6984211 119.39199956 251.36129189 121.24147034 C247.67914034 141.40349827 242.64045711 161.43994506 225.34662247 174.37215042 C213.60410918 182.30455719 201.10315652 185.75018326 186.9862709 185.64900589 C185.14206055 185.65951981 185.14206055 185.65951981 183.26059341 185.67024612 C179.92966115 185.68470165 176.59974022 185.68150275 173.26886749 185.66872978 C169.75693183 185.65848954 166.24503472 185.66802564 162.73309708 185.67427444 C156.83922083 185.6815192 150.94554612 185.67204723 145.05170059 185.65291214 C138.27086323 185.63114933 131.49050723 185.63820298 124.70968151 185.66021776 C118.85189841 185.67846299 112.99425887 185.6808859 107.13645649 185.67046309 C103.65356514 185.66427786 100.17089884 185.66325318 96.68802261 185.67660904 C92.80027431 185.69048043 88.91305032 185.67116992 85.0253334 185.64900589 C83.89560104 185.65710281 82.76586868 185.66519974 81.60190201 185.67354202 C65.75780544 185.50746912 51.74379113 179.39936343 40.2909584 168.54549026 C31.68726816 159.45646365 26.69461426 149.11850138 24.09076309 136.94905472 C23.9198251 136.16410031 23.7488871 135.37914591 23.57276917 134.57040501 C21.67521736 125.75914593 19.99233804 116.90818948 18.33392715 108.04939651 C18.00346939 106.29345691 17.67287989 104.53754209 17.3421669 102.78165054 C16.65786033 99.14430843 15.97582613 95.50654943 15.29535294 91.86848831 C14.42406487 87.21185888 13.54582923 82.55656889 12.66582489 77.90157986 C11.9849569 74.29480872 11.30826155 70.6872642 10.63277817 67.07948112 C10.31044854 65.36124305 9.98669931 63.64327063 9.66147995 61.92557716 C9.2097469 59.5368923 8.7637856 57.14719877 8.31927872 54.75716019 C8.18530182 54.05535629 8.05132492 53.3535524 7.91328812 52.63048172 C7.26035197 49.08477393 6.85948663 45.73777907 7.00580215 42.13142776 C6.01580215 42.17783401 5.02580215 42.22424026 4.00580215 42.27205276 C-10.27575571 42.74581424 -10.27575571 42.74581424 -15.99419785 38.13142776 C-20.72191791 33.57429553 -23.33770233 28.98700988 -24.02544785 22.41658401 C-23.95028344 16.92018653 -22.07485007 11.90678498 -19.24419785 7.25642776 C-13.61025171 1.93547863 -7.66987045 0.01124931 0 0 Z " fill="#FDC27C" transform="translate(119.99419784545898,326.8685722351074)"/>
<path d="M0 0 C0.63575566 53.3317488 0.63575566 53.3317488 -3 74 C-3.17692383 75.03479492 -3.35384766 76.06958984 -3.53613281 77.13574219 C-10.44812863 116.63797737 -23.5249666 152.56538057 -57.55273438 176.47265625 C-76.27051264 189.13042453 -76.27051264 189.13042453 -85.84049988 189.12025452 C-86.83749405 189.12162918 -87.83448822 189.12300385 -88.86169434 189.12442017 C-89.95429565 189.12082489 -91.04689697 189.11722961 -92.17260742 189.11352539 C-93.32396683 189.11367142 -94.47532623 189.11381744 -95.66157532 189.1139679 C-99.47622547 189.11326991 -103.2908271 189.10548279 -107.10546875 189.09765625 C-109.74676995 189.09579167 -112.3880715 189.09436795 -115.02937317 189.09336853 C-121.27665829 189.09025948 -127.52392592 189.08205182 -133.77120334 189.07201904 C-140.88358981 189.0608447 -147.99597712 189.05534412 -155.10837018 189.05032361 C-169.73892248 189.03986886 -184.36946099 189.02227764 -199 189 C-198.68875171 187.56141829 -198.37518888 186.12333721 -198.06065369 184.68547058 C-197.88628753 183.88458606 -197.71192137 183.08370153 -197.53227139 182.25854778 C-196.89395883 179.55004337 -196.02243768 177.0144173 -195.00390625 174.42578125 C-194.6162207 173.4399707 -194.22853516 172.45416016 -193.82910156 171.43847656 C-193.41112305 170.4069043 -192.99314453 169.37533203 -192.5625 168.3125 C-191.89879395 166.6742627 -191.89879395 166.6742627 -191.22167969 165.00292969 C-181.68133579 141.83926969 -169.77476671 119.78655531 -153 101 C-152.34088623 100.26064209 -152.34088623 100.26064209 -151.66845703 99.50634766 C-144.15213887 91.10789343 -136.61383843 82.90903541 -127.625 76.0625 C-126.54847168 75.24168945 -126.54847168 75.24168945 -125.45019531 74.40429688 C-115.06089874 66.63733008 -104.00099694 59.85531807 -93 53 C-92.03352539 52.39559082 -91.06705078 51.79118164 -90.07128906 51.16845703 C-80.25422856 45.03322015 -70.39084724 38.98309409 -60.421875 33.09765625 C-57.8385626 31.54645278 -55.34424089 29.89194483 -52.8515625 28.19921875 C-47.26404986 24.44849489 -41.45950153 21.09898058 -35.625 17.75 C-34.49118896 17.09829834 -33.35737793 16.44659668 -32.18920898 15.77514648 C-25.19692138 11.77695062 -18.17365685 7.84559624 -11.0625 4.0625 C-10.28277832 3.64387695 -9.50305664 3.22525391 -8.69970703 2.79394531 C-3.36570205 0 -3.36570205 0 0 0 Z " fill="#7FC46D" transform="translate(458,139)"/>
<path d="M0 0 C4.14908373 0.61013138 7.26406375 2.00730813 10.9453125 3.9921875 C12.67249512 4.91898315 12.67249512 4.91898315 14.43457031 5.86450195 C15.66498428 6.53417076 16.89512252 7.20434641 18.125 7.875 C19.38110724 8.55507509 20.63729264 9.23500585 21.89355469 9.91479492 C29.38346595 13.97889 36.84701299 18.09194316 44.25 22.3125 C45.04680176 22.76157715 45.84360352 23.2106543 46.66455078 23.67333984 C48.47841972 24.72334522 50.24590445 25.8529252 52 27 C52 27.66 52 28.32 52 29 C52.63679688 29.21914062 53.27359375 29.43828125 53.9296875 29.6640625 C58.22475277 31.53290769 62.12580386 33.9462855 66.125 36.375 C67.00881348 36.90883301 67.89262695 37.44266602 68.80322266 37.99267578 C77.0966064 43.02124998 85.30030938 48.1854528 93.47705078 53.40087891 C96.17214149 55.10910846 98.87991224 56.79589159 101.58984375 58.48046875 C112.20876481 65.10778412 122.49231271 71.83802545 132 80 C132.51175781 80.43876465 133.02351562 80.8775293 133.55078125 81.32958984 C163.93665102 107.68644714 187.19765613 144.9528954 197.61499023 183.83105469 C197.87682602 184.80419617 198.1386618 185.77733765 198.40843201 186.77996826 C198.70125816 187.87888397 198.70125816 187.87888397 199 189 C183.8913268 189.18776223 168.78270767 189.32838244 153.67312622 189.41449738 C146.65570833 189.45556426 139.63901971 189.51144279 132.62207031 189.60351562 C125.83981511 189.69246569 119.05831494 189.73838448 112.2755127 189.75901794 C109.69848775 189.77370641 107.12150026 189.80238835 104.5447998 189.84584045 C89.31270137 190.09229906 77.88518424 189.49807853 65 181 C63.10637978 179.91280286 61.21097587 178.82869574 59.3125 177.75 C53.05969928 173.63805262 47.73548157 168.52106587 42.38183594 163.32617188 C41.28123332 162.26990449 40.149436 161.24616681 39.0078125 160.234375 C11.59009244 135.30917495 5.00812636 92.73392336 1 58 C0.91031448 57.25076767 0.82062897 56.50153534 0.72822571 55.729599 C0.01466604 49.30950137 -0.13103094 42.97898186 -0.09765625 36.5234375 C-0.0962413 35.47217682 -0.09482635 34.42091614 -0.09336853 33.33779907 C-0.08782087 30.01683572 -0.07527842 26.69594259 -0.0625 23.375 C-0.05747823 21.1080739 -0.05291651 18.84114673 -0.04882812 16.57421875 C-0.03786865 11.04945566 -0.02118357 5.52473285 0 0 Z " fill="#66AD66" transform="translate(54,139)"/>
<path d="M0 0 C0.98672251 -0.00384115 1.97344501 -0.00768229 2.9900682 -0.01163983 C4.06661233 -0.01077335 5.14315647 -0.00990687 6.25232315 -0.00901413 C7.97654885 -0.01347081 7.97654885 -0.01347081 9.73560739 -0.01801753 C12.92218758 -0.02518833 16.1087349 -0.02787611 19.29532194 -0.028615 C22.73375392 -0.03046864 26.17217428 -0.03801751 29.61059952 -0.04475021 C37.12719532 -0.0583212 44.64378579 -0.06435626 52.16039181 -0.06876087 C56.85528488 -0.07152524 61.55017591 -0.07576294 66.2450676 -0.08026505 C79.24832785 -0.09245583 92.25158645 -0.1027557 105.25485229 -0.10614014 C106.086779 -0.1063597 106.91870571 -0.10657927 107.77584232 -0.10680549 C109.02668587 -0.10713291 109.02668587 -0.10713291 110.30279899 -0.10746694 C111.99253702 -0.1079104 113.68227506 -0.10835696 115.37201309 -0.10880661 C116.21017816 -0.10902804 117.04834322 -0.10924947 117.91190723 -0.10947761 C131.49170615 -0.11342523 145.0714514 -0.130879 158.65122959 -0.15416613 C172.59917654 -0.17789123 186.54709657 -0.19034251 200.49506402 -0.19150805 C208.32400833 -0.19242414 216.15288269 -0.19815962 223.98180771 -0.21632767 C230.64847647 -0.23174425 237.31505366 -0.23683992 243.98173687 -0.22858956 C247.38135294 -0.22468862 250.78078469 -0.22558524 254.18037796 -0.23964691 C257.87085932 -0.25234053 261.56086852 -0.24650303 265.25134659 -0.23606491 C266.31896784 -0.24412132 267.38658908 -0.25217772 268.48656249 -0.26047826 C276.00443184 -0.21079525 282.31826983 0.91890837 288.81830215 4.81892776 C293.42886495 9.6929513 295.76576891 15.41049698 296.00580215 22.13142776 C295.16035325 28.80397069 292.55637664 33.77705132 287.56830215 38.38142776 C282.49891255 41.84344993 278.24509715 42.40699874 272.19330215 42.25642776 C271.15399551 42.24289261 271.15399551 42.24289261 270.09369278 42.22908401 C268.3975782 42.20568933 266.70164345 42.16982417 265.00580215 42.13142776 C264.86525406 44.0072554 264.86525406 44.0072554 264.72186661 45.92097855 C263.85565899 54.5246989 262.12571502 63.0031604 260.5487709 71.49861526 C260.20094689 73.38369596 259.8532367 75.26879765 259.50563431 77.15391922 C258.77810412 81.09310391 258.04715572 85.03163707 257.31415176 88.96980667 C256.38096762 93.98659813 255.45946159 99.00545658 254.54093838 104.02495003 C253.82700289 107.91595597 253.10520717 111.80547446 252.38128471 115.69463348 C252.03848362 117.54306138 251.6984211 119.39199956 251.36129189 121.24147034 C247.67914034 141.40349827 242.64045711 161.43994506 225.34662247 174.37215042 C213.39938281 182.44285577 200.84367062 185.77805692 186.4862709 185.52205276 C184.64939461 185.51356308 184.64939461 185.51356308 182.7754097 185.50490189 C178.91428718 185.48274531 175.05413796 185.43258704 171.19330215 185.38142776 C168.5546438 185.36133605 165.91597072 185.34309 163.27728653 185.32674026 C156.85313367 185.28294865 150.42953747 185.21624732 144.00580215 185.13142776 C144.00580215 184.80142776 144.00580215 184.47142776 144.00580215 184.13142776 C144.86560684 183.9960762 145.72541153 183.86072464 146.6112709 183.72127151 C162.84745653 180.76440892 175.15746681 172.92369402 185.31830215 159.88142776 C192.96777856 148.5853826 195.3370385 136.0413721 197.75580215 122.88142776 C198.08964454 121.11627277 198.42446753 119.351303 198.76019669 117.58650589 C199.86112878 111.77163376 200.93486869 105.951888 202.00580215 100.13142776 C202.40844425 97.94848004 202.81111416 95.76553745 203.21380997 93.58259964 C204.82997844 84.8123774 206.44495872 76.04197693 208.03607559 67.26716995 C208.31123505 65.75392136 208.31123505 65.75392136 208.59195328 64.21010208 C208.93324015 62.33191612 209.27313974 60.45347726 209.61130142 58.5747261 C209.76581772 57.72525406 209.92033401 56.87578201 210.07953262 56.00056839 C210.27650238 54.91032364 210.27650238 54.91032364 210.47745132 53.79805374 C210.96362816 51.34428306 211.49404867 48.90607531 212.03882408 46.46476364 C212.21968154 45.65351327 212.400539 44.84226291 212.58687699 44.0064292 C212.72512229 43.38767872 212.8633676 42.76892825 213.00580215 42.13142776 C211.30840141 42.13695852 211.30840141 42.13695852 209.57670975 42.14260101 C182.04311592 42.23139697 154.50954066 42.29712973 126.97583389 42.33867645 C113.66072546 42.35930215 100.34575232 42.387423 87.0307045 42.43318558 C75.42540009 42.47305291 63.82016419 42.49886053 52.21479321 42.50778174 C46.0697564 42.51299661 39.92491556 42.52525397 33.77994156 42.55434799 C27.99501564 42.5815152 22.21036627 42.58986998 16.42538261 42.58385849 C14.30337712 42.58495813 12.18136229 42.59290403 10.059412 42.60824966 C7.1585541 42.62819768 4.25873569 42.6233491 1.35785294 42.61244583 C0.52125609 42.6240972 -0.31534075 42.63574856 -1.17728901 42.647753 C-7.45126097 42.58416208 -12.86714401 41.09072506 -17.52358437 36.68408799 C-21.89774426 31.63688521 -24.08657851 26.88676385 -23.99419785 20.13142776 C-22.81345089 13.66683816 -20.93388339 7.89578946 -15.3574791 3.98299026 C-10.27986412 0.87694379 -5.85535837 0.00858799 0 0 Z " fill="#F4A85A" transform="translate(119.99419784545898,326.8685722351074)"/>
<path d="M0 0 C0.99 0.33 1.98 0.66 3 1 C3.67740432 2.9963887 4.34049669 4.99762645 5 7 C6.85809559 10.64442918 8.92847807 14.16097368 11 17.6875 C11.61085449 18.73043213 12.22170898 19.77336426 12.85107422 20.84790039 C28.85652804 47.82435073 46.92249661 74.03436722 67.33203125 97.859375 C69.86208756 100.81916681 72.30893935 103.84128796 74.75 106.875 C77.7681798 110.58596484 80.89363446 114.01556348 84.33203125 117.3359375 C86.09054949 119.09033743 87.69890935 120.92433565 89.3125 122.8125 C96.02625393 130.55798894 103.30235649 137.41882309 111.3125 143.8046875 C113.81119786 145.845775 116.15127078 147.97741105 118.5 150.1875 C135.78822553 165.86179308 156.00426142 178.01701258 177 188 C177 188.33 177 188.66 177 189 C164.75974975 189.18630325 152.51984309 189.32798201 140.27845764 189.41449738 C134.59267689 189.45604513 128.90787424 189.51229574 123.22265625 189.60351562 C117.72417757 189.69117557 112.22663269 189.73842714 106.72750854 189.75901794 C104.64168621 189.77366944 102.55590834 189.80227716 100.4704895 189.84584045 C86.52449458 190.12527315 76.8783512 188.4277476 65 181 C63.97173096 180.41319458 62.94346191 179.82638916 61.8840332 179.22180176 C54.47649694 174.98214237 48.46869932 169.23254152 42.38183594 163.32617188 C41.28123332 162.26990449 40.149436 161.24616681 39.0078125 160.234375 C11.59009244 135.30917495 5.00812636 92.73392336 1 58 C0.91031448 57.25076767 0.82062897 56.50153534 0.72822571 55.729599 C0.01466604 49.30950137 -0.13103094 42.97898186 -0.09765625 36.5234375 C-0.0962413 35.47217682 -0.09482635 34.42091614 -0.09336853 33.33779907 C-0.08782087 30.01683572 -0.07527842 26.69594259 -0.0625 23.375 C-0.05747823 21.1080739 -0.05291651 18.84114673 -0.04882812 16.57421875 C-0.03786865 11.04945566 -0.02118357 5.52473285 0 0 Z " fill="#80C46D" transform="translate(54,139)"/>
<path d="M0 0 C0.33 0 0.66 0 1 0 C1.63575566 53.3317488 1.63575566 53.3317488 -2 74 C-2.17692383 75.03479492 -2.35384766 76.06958984 -2.53613281 77.13574219 C-9.44812863 116.63797737 -22.5249666 152.56538057 -56.55273438 176.47265625 C-75.27235457 189.13167012 -75.27235457 189.13167012 -84.0052948 189.12025452 C-85.22311897 189.12231651 -85.22311897 189.12231651 -86.46554565 189.12442017 C-87.35243073 189.12082489 -88.2393158 189.11722961 -89.15307617 189.11352539 C-90.55824745 189.11374443 -90.55824745 189.11374443 -91.99180603 189.1139679 C-95.09221705 189.1132705 -98.19256821 189.10548617 -101.29296875 189.09765625 C-103.44102445 189.09579146 -105.58908057 189.09436784 -107.73713684 189.09336853 C-113.39408541 189.0895482 -119.05100835 189.07972201 -124.70794678 189.06866455 C-130.47912245 189.05844005 -136.25030226 189.05386868 -142.02148438 189.04882812 C-153.34766752 189.03809934 -164.67383163 189.02102869 -176 189 C-173.13421258 186.76984695 -170.32769502 185.13582648 -167.02783203 183.60498047 C-144.79251868 173.22481804 -124.47712122 157.45490389 -106.75390625 140.60546875 C-104.48623861 138.46003001 -102.18664504 136.39986724 -99.8125 134.375 C-92.96722843 128.43954301 -86.65723808 121.931263 -80.76953125 115.05078125 C-78.76213977 112.72433417 -76.69533362 110.45807314 -74.625 108.1875 C-69.89766687 102.93579043 -65.4000529 97.52732593 -61 92 C-60.49339844 91.36594238 -59.98679687 90.73188477 -59.46484375 90.07861328 C-38.39810801 63.6269111 -20.09355832 35.24559056 -3.43945312 5.84033203 C-2.78493164 4.69346924 -2.78493164 4.69346924 -2.1171875 3.5234375 C-1.53880127 2.5012915 -1.53880127 2.5012915 -0.94873047 1.45849609 C-0.47910889 0.73654053 -0.47910889 0.73654053 0 0 Z " fill="#66AD66" transform="translate(457,139)"/>
<path d="M0 0 C0.99 0.495 0.99 0.495 2 1 C-4.62898944 14.8517622 -11.29390002 28.68544203 -18 42.5 C-22.68765697 52.15670032 -27.36318774 61.81874364 -32 71.5 C-37.31198526 82.59095822 -42.67437145 93.65710271 -48.04956055 104.7175293 C-51.25047647 111.30721475 -54.43860252 117.90220193 -57.58203125 124.51953125 C-58.13052734 125.67195313 -58.67902344 126.824375 -59.24414062 128.01171875 C-60.26100672 130.15182299 -61.27425452 132.2936517 -62.28320312 134.4375 C-62.95706055 135.85482422 -62.95706055 135.85482422 -63.64453125 137.30078125 C-64.02971924 138.11716064 -64.41490723 138.93354004 -64.81176758 139.7746582 C-66.02151779 142.04029888 -67.40646418 143.99003395 -69 146 C-69.12004395 145.17725586 -69.24008789 144.35451172 -69.36376953 143.50683594 C-74.42309335 107.69000916 -74.42309335 107.69000916 -84.3125 73.00390625 C-85.14359037 69.37260801 -84.85582937 68.19586965 -83 65 C-81.40083195 62.89880036 -79.79705547 60.91860499 -78.0625 58.9375 C-77.33160156 58.09094849 -77.33160156 58.09094849 -76.5859375 57.22729492 C-75.06644085 55.47660236 -73.53521366 53.73691697 -72 52 C-71.29979736 51.20287598 -71.29979736 51.20287598 -70.58544922 50.38964844 C-52.77184156 30.19623925 -31.77827508 14.92700304 -7.5625 3.3125 C-6.83426025 2.9609082 -6.10602051 2.60931641 -5.35571289 2.24707031 C-3.59956546 1.43217418 -1.80232491 0.70691896 0 0 Z " fill="#7FC46D" transform="translate(407,45)"/>
<path d="M0 0 C4.15291752 0.54522177 7.40488041 1.45664 11.125 3.37109375 C12.07213867 3.85795654 13.01927734 4.34481934 13.99511719 4.84643555 C14.98672852 5.37148682 15.97833984 5.89653809 17 6.4375 C18.02512695 6.97737549 19.05025391 7.51725098 20.10644531 8.07348633 C28.26845635 12.45114015 35.73582127 17.27210972 43 23 C43.94617188 23.73734375 44.89234375 24.4746875 45.8671875 25.234375 C57.16111364 34.25671826 67.57911289 44.04247429 77 55 C78.2375 56.42892578 78.2375 56.42892578 79.5 57.88671875 C80.2425 58.81097656 80.985 59.73523438 81.75 60.6875 C82.73226562 61.89986328 82.73226562 61.89986328 83.734375 63.13671875 C86.73265359 69.91986135 83.34026236 77.75664576 81.3125 84.5 C78.49484431 94.31813379 76.49404541 104.20789314 74.6875 114.25 C74.55880524 114.95842041 74.43011047 115.66684082 74.29751587 116.39672852 C72.88140113 124.23632882 71.60468478 132.04999891 71 140 C70.34 140 69.68 140 69 140 C68.69203491 139.37154175 68.38406982 138.7430835 68.06677246 138.09558105 C65.1266714 132.09606499 62.1859447 126.09685602 59.24456024 120.09796906 C57.73334773 117.01583261 56.22235545 113.93358865 54.71191406 110.85107422 C48.54301441 98.26197248 42.36808295 85.67717012 36.07678223 73.14874268 C34.3237773 69.65058269 32.58000347 66.1478276 30.83514404 62.64559937 C28.78901787 58.53920824 26.74047558 54.4340243 24.69189453 50.32885742 C23.65015683 48.24035025 22.6091371 46.15148479 21.56884766 44.06225586 C15.85711515 32.59288818 10.12494685 21.14604274 4.02639771 9.87602234 C3.64111908 9.15679092 3.25584045 8.43755951 2.85888672 7.6965332 C2.52235077 7.07543167 2.18581482 6.45433014 1.83908081 5.81440735 C0.95346487 3.89937361 0.44653533 2.05801411 0 0 Z " fill="#66AD66" transform="translate(104,46)"/>
<path d="M0 0 C0.81082031 -0.020625 1.62164062 -0.04125 2.45703125 -0.0625 C9.42180711 -0.10707457 15.43820888 1.33792533 21.4375 4.9375 C26.0480628 9.81152353 28.38496676 15.52906921 28.625 22.25 C27.77955109 28.92254292 25.17557449 33.89562355 20.1875 38.5 C14.72338578 42.2315902 10.2507662 42.52803398 3.82421875 42.4453125 C3.08224243 42.44329834 2.34026611 42.44128418 1.57580566 42.43920898 C-1.17869303 42.42879606 -3.93310315 42.40087363 -6.6875 42.375 C-12.854375 42.33375 -19.02125 42.2925 -25.375 42.25 C-25.375 28.72 -25.375 15.19 -25.375 1.25 C-7.34641561 0.04809437 -7.34641561 0.04809437 0 0 Z " fill="#EA8F3D" transform="translate(387.375,326.75)"/>
</svg>
