<svg id="Layer_5" enable-background="new 0 0 64 64" height="512" viewBox="0 0 64 64" width="512" xmlns="http://www.w3.org/2000/svg"><g><g><g><path d="m56 4v15c-.01.01-.03.03-.04.04l-6.96 6.96h-5c-1.63 0-3.09.79-4 2h-14v6 6 6 6h12 6 4v4h-26v-30c0-5.52-4.48-10-10-10v-3.17c0-.29.06-.57.18-.83h7.82c1.1 0 2-.9 2-2v-7.82c.26-.12.54-.18.83-.18h31.17c1.1 0 2 .9 2 2z" fill="#e6e9ed"/></g><g><path d="m45.25 44.8c-.48-.38-.89-.83-1.21-1.33-.36-.52-.63-1.09-.8-1.7h-.01l-4.23 4.23-1 .4-3.7 1.48c-.2.08-.41.12-.62.12-.93 0-1.68-.75-1.68-1.68 0-.11.01-.22.03-.32s.05-.2.09-.3l1.88-4.7 1-1 6-6c-1.1 0-2-.9-2-2v-1c0-1.13.37-2.17 1-3h-14v24h12 6 4v-5z" fill="#ffeaa7"/></g><g><path d="m26 6h26v4h-26z" fill="#ff826e"/></g><g><path d="m22 2.18v7.82c0 1.1-.9 2-2 2h-7.82c.1-.22.24-.42.41-.59l8.82-8.82c.17-.17.37-.31.59-.41z" fill="#b4dd7f"/></g><g><path d="m43 32v8.12c0 .57.08 1.12.24 1.65h-.01l-4.23 4.23-5-5 1-1 6-6c.55 0 1.05-.22 1.41-.59.37-.36.59-.86.59-1.41z" fill="#ff826e"/></g><g><path d="m56 19c.66-.64 1.55-1 2.46-1 .98 0 1.86.4 2.5 1.04s1.04 1.52 1.04 2.5c0 .93-.37 1.83-1.04 2.5l-5.84 5.84-8.12 8.12v-5c0-.83-.34-1.58-.88-2.12-.34-.34-.77-.6-1.25-.75l4.13-4.13 6.96-6.96c.01-.01.03-.03.04-.04z" fill="#ff826e"/></g><g><path d="m39 46-1 .4-3.7 1.48c-.2.08-.41.12-.62.12-.93 0-1.68-.75-1.68-1.68 0-.11.01-.22.03-.32s.05-.2.09-.3l1.88-4.7z" fill="#aab2bd"/></g><g><path d="m59 44 2 12h-13v-4-5z" fill="#b4dd7f"/></g><g><path d="m42.41 33.41c-.36.37-.86.59-1.41.59-1.1 0-2-.9-2-2v-1c0-1.13.37-2.17 1-3 .91-1.21 2.37-2 4-2h5l-4.13 4.13c-.27-.08-.57-.13-.87-.13-.55 0-1 .45-1 1v1c0 .55-.22 1.05-.59 1.41z" fill="#f0d0b4"/></g><g><path d="m55.65 30.85c2.2 4.04 3.35 8.56 3.35 13.15l-11 3-2.75-2.2c-.48-.38-.89-.83-1.21-1.33-.36-.52-.63-1.09-.8-1.7-.16-.53-.24-1.08-.24-1.65v-8.12-1c0-.55.45-1 1-1 .3 0 .6.05.87.13.48.15.91.41 1.25.75.54.54.88 1.29.88 2.12v5l8.12-8.12z" fill="#f0d0b4"/></g><g><path d="m22 26v30 2c0 2.21-1.79 4-4 4h-12c-2.21 0-4-1.79-4-4v-32c0 3.27 1.57 6.17 4 8v7c0 .55.45 1 1 1h10c.55 0 1-.45 1-1v-7c2.43-1.83 4-4.73 4-8z" fill="#969faa"/></g><g><path d="m17.078 57.966h-10.053c-.552 0-1-.448-1-1v-9.96c0-.552.448-1 1-1h10.052c.552 0 1 .448 1 1v9.96c.001.553-.447 1-.999 1z" fill="#ff826e"/></g><g><path d="m18 34v7c0 .55-.45 1-1 1h-10c-.55 0-1-.45-1-1v-7c1.67 1.25 3.75 2 6 2s4.33-.75 6-2z" fill="#69d6f4"/></g><g><path d="m22 26c0 3.27-1.57 6.17-4 8-1.67 1.25-3.75 2-6 2s-4.33-.75-6-2c-2.43-1.83-4-4.73-4-8 0-5.52 4.48-10 10-10s10 4.48 10 10z" fill="#fcd770"/></g></g><g><path d="m56.526 30.376-.172-.316 5.318-5.318c.856-.856 1.328-1.995 1.328-3.206 0-2.501-2.035-4.536-4.536-4.536-.508 0-.997.101-1.464.26v-13.26c0-1.654-1.346-3-3-3h-31.171c-.801 0-1.555.312-2.122.879l-8.828 8.828c-.567.566-.879 1.32-.879 2.122v2.222c-5.598.507-10 5.221-10 10.949v32c0 2.757 2.243 5 5 5h12c2.757 0 5-2.243 5-5v-1h24 1 14.181l-2.184-13.104c-.018-4.711-1.215-9.384-3.471-13.52zm1.45 12.867-9.749 2.659-2.351-1.881c-1.192-.955-1.876-2.378-1.876-3.905v-8.116-1c1.103 0 2 .897 2 2v7h2v-1.586l6.874-6.874c1.923 3.6 2.984 7.624 3.102 11.703zm-13.976-14.243c-1.103 0-2 .897-2 2v1c0 .551-.449 1-1 1s-1-.449-1-1v-1c0-2.206 1.794-4 4-4h2.586l-2.054 2.054c-.176-.024-.35-.054-.532-.054zm-10.951 17.072 1.316-3.292 2.855 2.855-3.293 1.317c-.423.172-.927-.169-.927-.629 0-.087.016-.171.049-.251zm5.951-1.486-3.586-3.586 6.047-6.047c.187-.029.366-.076.539-.138v5.3c0 .454.052.898.136 1.334zm-.816-11.586h-11.184v-4h11.35c-.222.627-.35 1.298-.35 2v1c0 .352.072.686.184 1zm-11.184 2h11.586l-4 4h-7.586zm0 6h5.923l-1.6 4h-4.323zm0 6h4.098c.302 1.147 1.339 2 2.58 2 .343 0 .678-.064.994-.191l2.328-.932v3.123h-10zm12 .077.562-.225 3.33-3.33c.036.065.069.131.108.195v7.283h-4zm6-1.197 2 1.6v3.52h-2zm16-24.344c0 .677-.264 1.314-.743 1.793l-12.257 12.257v-2.586c0-1.252-.59-2.358-1.494-3.092l10.165-10.165c.479-.479 1.116-.743 1.793-.743 1.398 0 2.536 1.138 2.536 2.536zm-40-17.122v5.586c0 .551-.449 1-1 1h-5.586zm-9 12.586c4.962 0 9 4.038 9 9s-4.038 9-9 9-9-4.038-9-9 4.038-9 9-9zm-5 18.786c1.502.77 3.199 1.214 5 1.214s3.498-.444 5-1.214v5.214h-10zm11 25.214h-12c-1.654 0-3-1.346-3-3v-25.695c.569.81 1.239 1.544 2 2.174v6.521c0 1.103.897 2 2 2h10c1.103 0 2-.897 2-2v-6.521c.761-.63 1.431-1.364 2-2.174v25.695c0 1.654-1.346 3-3 3zm5-6v-29c0-5.728-4.402-10.442-10-10.949v-2.051h7c1.654 0 3-1.346 3-3v-7h31c.551 0 1 .449 1 1v14.586l-6.414 6.414h-4.586c-1.771 0-3.36.776-4.46 2h-14.54v26h22v2zm26 0v-7.236l9.195-2.508 1.624 9.744z"/><path d="m11 30.855v2.145h2v-2.145c1.155-.366 2-1.435 2-2.709 0-1.087-.604-2.066-1.578-2.553l-1.95-.974c-.291-.146-.472-.439-.472-.765 0-.471.383-.854.854-.854h.292c.471 0 .854.383.854.854v1.146h2v-1.146c0-1.274-.845-2.343-2-2.709v-2.145h-2v2.145c-1.155.366-2 1.435-2 2.709 0 1.087.604 2.066 1.578 2.553l1.95.974c.291.146.472.439.472.765 0 .471-.383.854-.854.854h-.292c-.471 0-.854-.383-.854-.854v-1.146h-2v1.146c0 1.274.845 2.343 2 2.709z"/><path d="m17 45h-10c-1.103 0-2 .897-2 2v10c0 1.103.897 2 2 2h10c1.103 0 2-.897 2-2v-10c0-1.103-.897-2-2-2zm0 4h-2v-2h2zm-4 8h-2v-2h2zm0-4h-2v-2h2zm-4 0h-2v-2h2zm2-4v-2h2v2zm-2-2v2h-2v-2zm-2 8h2v2h-2zm8 2v-6h2.001l.001 6z"/><path d="m53 5h-28v6h28zm-2 4h-24v-2h24z"/><path d="m25 13h28v2h-28z"/><path d="m25 17h28v2h-28z"/><path d="m25 21h16v2h-16z"/></g></g></svg>