<svg xmlns="http://www.w3.org/2000/svg" xmlns:xlink="http://www.w3.org/1999/xlink" width="240" height="70" viewBox="0 0 240 70">
    <defs>
        <linearGradient id="s_masonry_gradient_1" gradientUnits="userSpaceOnUse" x1="82" y1="52" x2="75" y2="45">
            <stop offset="0%" stop-color="#008374"/>
            <stop offset="100%" stop-color="#006a59"/>
        </linearGradient>
        <linearGradient id="s_masonry_gradient_2" gradientUnits="userSpaceOnUse" x1="42" y1="42" x2="22" y2="55">
            <stop offset="0%" stop-color="#00aa89"/>
            <stop offset="100%" stop-color="#009989"/>
        </linearGradient>
    </defs>
    <!-- Background -->
    <rect x="0" y="5" width="240" height="60" fill="#9ccde4"/>
    <!-- Text -->
    <rect x="0" y="5" width="60" height="60" fill="#ffffff"/>
    <rect x="15" y="30" width="30" height="2" fill="#333333"/>
    <rect x="15" y="35" width="30" height="1" fill="#777777"/>
    <rect x="15" y="38" width="30" height="1" fill="#777777"/>
    <rect x="15" y="41" width="20" height="1" fill="#777777"/>
    <!-- Image -->
    <circle cx="105" cy="20" r="6" fill="#f3ed63"/>
    <mask id="o_masonry_mask_1">
        <rect x="50" y="5" width="60" height="60" fill="#ffffff"/>
    </mask>
    <g transform="translate(10, 0)">
        <path fill="url(#s_masonry_gradient_1)" d="M75.2,50.2c-4.9,0-9.5,1-13.5,2.8c5.1,3.4,9.1,7.5,11.5,12.1h27.6C97.9,56.5,87.5,50.2,75.2,50.2z"/>
        <path mask="url(#o_masonry_mask_1)" fill="url(#s_masonry_gradient_2)" d="M0,65.1h73.2c-6.7-12.9-25.8-22.2-48.5-22.2c-9,0-17.4,1.5-24.7,4C0,46.9,0,65.1,0,65.1z"/>
    </g>
    <!-- Text -->
    <rect x="120" y="5" width="60" height="60" fill="#ffffff"/>
    <rect x="135" y="30" width="30" height="2" fill="#333333"/>
    <rect x="135" y="35" width="30" height="1" fill="#777777"/>
    <rect x="135" y="38" width="30" height="1" fill="#777777"/>
    <rect x="135" y="41" width="20" height="1" fill="#777777"/>
    <!-- Image -->
    <circle cx="225" cy="20" r="6" fill="#f3ed63"/>
    <mask id="o_masonry_mask_2">
        <rect x="50" y="5" width="60" height="60" fill="#ffffff"/>
    </mask>
    <g transform="translate(130, 0)">
        <path fill="url(#s_masonry_gradient_1)" d="M75.2,50.2c-4.9,0-9.5,1-13.5,2.8c5.1,3.4,9.1,7.5,11.5,12.1h27.6C97.9,56.5,87.5,50.2,75.2,50.2z"/>
        <path mask="url(#o_masonry_mask_2)" fill="url(#s_masonry_gradient_2)" d="M0,65.1h73.2c-6.7-12.9-25.8-22.2-48.5-22.2c-9,0-17.4,1.5-24.7,4C0,46.9,0,65.1,0,65.1z"/>
    </g>
</svg>
