<?xml version="1.0" encoding="UTF-8" standalone="no"?>
<!DOCTYPE svg PUBLIC "-//W3C//DTD SVG 1.1//EN"
 "http://www.w3.org/Graphics/SVG/1.1/DTD/svg11.dtd">
<!-- Generated by graphviz version 2.38.0 (20140413.2041)
 -->
<!-- Title: join Pages: 1 -->
<svg width="206pt" height="93pt"
 viewBox="0.00 0.00 206.00 92.73" xmlns="http://www.w3.org/2000/svg" xmlns:xlink="http://www.w3.org/1999/xlink">
<g id="graph0" class="graph" transform="scale(1 1) rotate(0) translate(4 88.7279)">
<title>join</title>
<polygon fill="white" stroke="none" points="-4,4 -4,-88.7279 202,-88.7279 202,4 -4,4"/>
<!-- a -->
<!-- Activity -->
<g id="node4" class="node"><title>Activity</title>
<ellipse fill="none" stroke="black" cx="99" cy="-18" rx="40.0939" ry="18"/>
<text text-anchor="middle" x="99" y="-14.3" font-family="Times,serif" font-size="14.00">Activity</text>
</g>
<!-- a&#45;&gt;Activity -->
<g id="edge1" class="edge"><title>a&#45;&gt;Activity</title>
<path fill="none" stroke="black" d="M33.6445,-71.9778C42.4332,-64.8537 58.4442,-51.875 72.4186,-40.5472"/>
<polygon fill="black" stroke="black" points="74.7768,-43.1411 80.3411,-34.1251 70.3688,-37.7033 74.7768,-43.1411"/>
</g>
<!-- b -->
<!-- b&#45;&gt;Activity -->
<g id="edge2" class="edge"><title>b&#45;&gt;Activity</title>
<path fill="none" stroke="black" d="M99,-71.9778C99,-66.0508 99,-56.0715 99,-46.3619"/>
<polygon fill="black" stroke="black" points="102.5,-46.1364 99,-36.1364 95.5001,-46.1365 102.5,-46.1364"/>
</g>
<!-- c -->
<!-- c&#45;&gt;Activity -->
<g id="edge3" class="edge"><title>c&#45;&gt;Activity</title>
<path fill="none" stroke="black" d="M164.355,-71.9778C155.567,-64.8537 139.556,-51.875 125.581,-40.5472"/>
<polygon fill="black" stroke="black" points="127.631,-37.7033 117.659,-34.1251 123.223,-43.1411 127.631,-37.7033"/>
</g>
</g>
</svg>
