<?xml version="1.0" encoding="UTF-8" standalone="no"?>
<!DOCTYPE svg PUBLIC "-//W3C//DTD SVG 1.1//EN"
 "http://www.w3.org/Graphics/SVG/1.1/DTD/svg11.dtd">
<!-- Generated by graphviz version 2.38.0 (20140413.2041)
 -->
<!-- Title: order Pages: 1 -->
<svg width="260pt" height="291pt"
 viewBox="0.00 0.00 259.79 291.00" xmlns="http://www.w3.org/2000/svg" xmlns:xlink="http://www.w3.org/1999/xlink">
<g id="graph0" class="graph" transform="scale(1 1) rotate(0) translate(4 287)">
<title>order</title>
<polygon fill="white" stroke="none" points="-4,4 -4,-287 255.792,-287 255.792,4 -4,4"/>
<!-- Draft -->
<g id="node1" class="node"><title>Draft</title>
<ellipse fill="#73fa79" stroke="black" cx="85.3968" cy="-265" rx="30.5947" ry="18"/>
<text text-anchor="middle" x="85.3968" y="-261.3" font-family="Times,serif" font-size="14.00">Draft</text>
</g>
<!-- Confirmed -->
<g id="node4" class="node"><title>Confirmed</title>
<ellipse fill="none" stroke="black" cx="85.3968" cy="-91" rx="51.9908" ry="18"/>
<text text-anchor="middle" x="85.3968" y="-87.3" font-family="Times,serif" font-size="14.00">Confirmed</text>
</g>
<!-- Draft&#45;&gt;Confirmed -->
<g id="edge1" class="edge"><title>Draft&#45;&gt;Confirmed</title>
<path fill="none" stroke="black" d="M72.5816,-248.399C62.7132,-235.312 49.8641,-215.656 44.3968,-196 40.1092,-180.585 40.1092,-175.415 44.3968,-160 48.7071,-144.503 57.6054,-129.007 66.0142,-116.73"/>
<polygon fill="black" stroke="black" points="68.9995,-118.572 71.9779,-108.405 63.3089,-114.496 68.9995,-118.572"/>
<text text-anchor="middle" x="94.3968" y="-174.3" font-family="Times,serif" font-size="14.00">discount &lt;= 15%</text>
</g>
<!-- Validation -->
<g id="node5" class="node"><title>Validation</title>
<ellipse fill="none" stroke="black" cx="202.397" cy="-178" rx="49.2915" ry="18"/>
<text text-anchor="middle" x="202.397" y="-174.3" font-family="Times,serif" font-size="14.00">Validation</text>
</g>
<!-- Draft&#45;&gt;Validation -->
<g id="edge2" class="edge"><title>Draft&#45;&gt;Validation</title>
<path fill="none" stroke="black" d="M103.936,-250.531C122.48,-237.059 151.286,-216.131 172.959,-200.386"/>
<polygon fill="black" stroke="black" points="175.139,-203.129 181.172,-194.42 171.024,-197.466 175.139,-203.129"/>
<text text-anchor="middle" x="195.897" y="-217.8" font-family="Times,serif" font-size="14.00">discount &gt; 15%</text>
</g>
<!-- Closed -->
<g id="node2" class="node"><title>Closed</title>
<ellipse fill="#98c7df" stroke="black" cx="36.3968" cy="-18" rx="36.2938" ry="18"/>
<text text-anchor="middle" x="36.3968" y="-14.3" font-family="Times,serif" font-size="14.00">Closed</text>
</g>
<!-- Canceled -->
<g id="node3" class="node"><title>Canceled</title>
<ellipse fill="#98c7df" stroke="black" cx="135.397" cy="-18" rx="44.6926" ry="18"/>
<text text-anchor="middle" x="135.397" y="-14.3" font-family="Times,serif" font-size="14.00">Canceled</text>
</g>
<!-- Confirmed&#45;&gt;Closed -->
<g id="edge4" class="edge"><title>Confirmed&#45;&gt;Closed</title>
<path fill="none" stroke="black" d="M73.7845,-73.174C67.7175,-64.3831 60.1766,-53.4564 53.4596,-43.7236"/>
<polygon fill="black" stroke="black" points="56.1491,-41.4588 47.5884,-35.2165 50.3879,-45.4348 56.1491,-41.4588"/>
</g>
<!-- Confirmed&#45;&gt;Canceled -->
<g id="edge5" class="edge"><title>Confirmed&#45;&gt;Canceled</title>
<path fill="none" stroke="black" d="M97.2461,-73.174C103.348,-64.5087 110.912,-53.7682 117.692,-44.1415"/>
<polygon fill="black" stroke="black" points="120.736,-45.8965 123.633,-35.7052 115.013,-41.8661 120.736,-45.8965"/>
</g>
<!-- Validation&#45;&gt;Confirmed -->
<g id="edge3" class="edge"><title>Validation&#45;&gt;Confirmed</title>
<path fill="none" stroke="black" d="M181.209,-161.607C162.688,-148.152 135.604,-128.475 114.953,-113.472"/>
<polygon fill="black" stroke="black" points="116.97,-110.612 106.822,-107.566 112.856,-116.275 116.97,-110.612"/>
<text text-anchor="middle" x="170.397" y="-130.8" font-family="Times,serif" font-size="14.00">Accept</text>
</g>
</g>
</svg>
