<svg width="50" height="50" viewBox="0 0 50 50" xmlns="http://www.w3.org/2000/svg"><path d="M46 26.475a.936.936 0 0 0-.448-.804h-.005l-.017-.01-14.554-8.6a1.956 1.956 0 0 0-2.182 0l-14.553 8.6-.018.01a.946.946 0 0 0 .023 1.621l14.553 8.6a1.956 1.956 0 0 0 2.182 0l14.554-8.6a.935.935 0 0 0 .465-.817Z" fill="#0A2767"/><path d="M15.938 20.733h9.55v8.74h-9.55v-8.74Zm28.109-8.883V7.852A1.813 1.813 0 0 0 42.276 6H17.492a1.813 1.813 0 0 0-1.77 1.852v3.998l14.65 3.9 13.675-3.9Z" fill="#0364B8"/><path d="M15.72 11.85h9.768v8.775h-9.767V11.85Z" fill="#0078D4"/><path d="M35.256 11.85h-9.768v8.775l9.768 8.775h8.79v-8.775l-8.79-8.775Z" fill="#28A8EA"/><path d="M25.488 20.625h9.768V29.4h-9.768v-8.775Z" fill="#0078D4"/><path d="M25.488 29.4h9.768v8.775h-9.768V29.4Z" fill="#0364B8"/><path d="M15.938 29.472h9.55v7.944h-9.55v-7.944Z" fill="#14447D"/><path d="M35.256 29.4h8.79v8.775h-8.79V29.4Z" fill="#0078D4"/><path d="m45.553 27.238-.019.01-14.553 8.17a2.032 2.032 0 0 1-.984.304l-.796-.463a1.99 1.99 0 0 1-.195-.112l-14.75-8.403h-.006l-.482-.269v16.54A2 2 0 0 0 15.783 45h28.233c.017 0 .032-.008.05-.008.233-.015.463-.063.683-.142.095-.04.187-.088.274-.142.066-.038.178-.118.178-.118.5-.37.797-.954.8-1.575v-16.54a.877.877 0 0 1-.448.763Z" fill="url(#o_icon_microsoft_outlook__a)"/><path opacity=".5" d="M45.219 26.41v1.014L30 37.882 14.246 26.751a.01.01 0 0 0-.01-.01l-1.445-.868v-.73l.596-.01 1.26.72.03.01.107.069s14.807 8.434 14.846 8.453l.567.332c.048-.02.097-.04.156-.059.03-.02 14.7-8.258 14.7-8.258l.166.01Z" fill="#0A2767"/><path d="m45.553 27.238-.019.011-14.553 8.17a2.044 2.044 0 0 1-2.182 0l-14.554-8.17-.017-.01a.877.877 0 0 1-.46-.764v16.54A2 2 0 0 0 15.78 45h28.205A2 2 0 0 0 46 43.015v-16.54a.877.877 0 0 1-.447.763Z" fill="#1490DF"/><path opacity=".1" d="m31.193 35.299-.218.122a2.025 2.025 0 0 1-.963.313l5.537 6.536 9.659 2.323c.265-.2.475-.462.612-.763L31.193 35.3Z"/><path opacity=".05" d="m32.18 34.745-1.205.676a2.027 2.027 0 0 1-.963.313l2.594 7.14L45.21 44.59a1.97 1.97 0 0 0 .79-1.575v-.214l-13.82-8.056Z"/><path d="M15.809 45h28.174c.434.002.857-.134 1.206-.39L29.2 35.26a1.977 1.977 0 0 1-.195-.111l-14.75-8.403h-.006l-.481-.27v16.482A2.042 2.042 0 0 0 15.809 45Z" fill="#28A8EA"/><path opacity=".1" d="M27.442 15.587v20.797a1.792 1.792 0 0 1-1.123 1.657c-.21.09-.436.137-.665.137H13.768V14.775h1.953V13.8h9.934a1.793 1.793 0 0 1 1.787 1.787Z"/><path opacity=".2" d="M26.465 16.562V37.36c.003.235-.047.468-.146.682a1.78 1.78 0 0 1-1.641 1.109h-10.91V14.775h10.91c.283-.003.563.068.81.205.6.3.977.913.977 1.582Z"/><path opacity=".2" d="M26.465 16.562V35.41a1.801 1.801 0 0 1-1.787 1.79h-10.91V14.776h10.91c.283-.003.563.068.81.205.6.3.977.913.977 1.582Z"/><path opacity=".2" d="M25.488 16.562V35.41a1.795 1.795 0 0 1-1.787 1.79h-9.933V14.776H23.7c.988 0 1.788.8 1.787 1.786v.001Z"/><path d="M5.79 14.775h17.908c.989 0 1.79.8 1.79 1.787v17.876c0 .987-.801 1.787-1.79 1.787H5.79c-.988 0-1.79-.8-1.79-1.787V16.562c0-.987.802-1.787 1.79-1.787Z" fill="url(#o_icon_microsoft_outlook__b)"/><path d="M9.596 22.27a5.202 5.202 0 0 1 2.045-2.255 6.191 6.191 0 0 1 3.25-.813 5.762 5.762 0 0 1 3.007.771 5.16 5.16 0 0 1 1.99 2.155 6.94 6.94 0 0 1 .697 3.169 7.33 7.33 0 0 1-.718 3.315 5.28 5.28 0 0 1-2.05 2.23 5.992 5.992 0 0 1-3.12.792 5.89 5.89 0 0 1-3.074-.78 5.236 5.236 0 0 1-2.016-2.16 6.779 6.779 0 0 1-.705-3.13 7.528 7.528 0 0 1 .694-3.293Zm2.18 5.295a3.375 3.375 0 0 0 1.15 1.484 3.01 3.01 0 0 0 1.798.54 3.152 3.152 0 0 0 1.918-.558c.51-.375.899-.89 1.118-1.484a5.75 5.75 0 0 0 .356-2.07 6.289 6.289 0 0 0-.336-2.096 3.314 3.314 0 0 0-1.082-1.546 2.975 2.975 0 0 0-1.902-.585 3.104 3.104 0 0 0-1.839.545 3.404 3.404 0 0 0-1.172 1.496 5.937 5.937 0 0 0-.008 4.276v-.002Z" fill="#fff"/><path d="M35.256 11.85h8.79v8.775h-8.79V11.85Z" fill="#50D9FF"/><defs><linearGradient id="o_icon_microsoft_outlook__a" x1="29.884" y1="26.475" x2="29.884" y2="45" gradientUnits="userSpaceOnUse"><stop stop-color="#35B8F1"/><stop offset="1" stop-color="#28A8EA"/></linearGradient><linearGradient id="o_icon_microsoft_outlook__b" x1="7.733" y1="13.378" x2="21.718" y2="37.643" gradientUnits="userSpaceOnUse"><stop stop-color="#1784D9"/><stop offset=".5" stop-color="#107AD5"/><stop offset="1" stop-color="#0A63C9"/></linearGradient></defs></svg>
