<svg width="64" height="64" viewBox="0 0 64 64" fill="none" xmlns="http://www.w3.org/2000/svg">
<path d="M10.667 59.9181L10.3402 59.7307C9.78157 59.364 9.42968 58.7544 9.3916 58.0873V24.3135C9.42897 23.6462 9.78102 23.0363 10.3402 22.6701L39.5973 5.78326C40.1937 5.48143 40.8981 5.48143 41.4945 5.78326L41.8213 5.97068C42.3773 6.33887 42.7265 6.94826 42.763 7.61411V41.3878C42.7271 42.0556 42.3747 42.6661 41.8145 43.0313L12.5573 59.9181C11.9634 60.2199 11.261 60.2199 10.667 59.9181Z" fill="white"/>
<path d="M10.667 59.9181L10.3402 59.7307C9.78157 59.364 9.42968 58.7544 9.3916 58.0873V24.3135C9.42897 23.6462 9.78102 23.0363 10.3402 22.6701L39.5973 5.78326C40.1937 5.48143 40.8981 5.48143 41.4945 5.78326L41.8213 5.97068C42.3773 6.33887 42.7265 6.94826 42.763 7.61411V41.3878C42.7271 42.0556 42.3747 42.6661 41.8145 43.0313L12.5573 59.9181C11.9634 60.2199 11.261 60.2199 10.667 59.9181Z" fill="white"/>
<path d="M9.3916 41.2004V24.3113C9.40214 23.9817 9.49569 23.6602 9.6636 23.3764L13.7345 25.781V59.1867L12.5299 59.8998C11.9239 60.2153 11.2021 60.2153 10.5962 59.8998L10.3219 59.7375C9.77334 59.3692 9.42904 58.7652 9.3916 58.1055V41.2004Z" fill="#C1DBF6"/>
<path d="M9.3916 41.2004V24.3113C9.40214 23.9817 9.49569 23.6602 9.6636 23.3764L13.7345 25.781V59.1867L12.5299 59.8998C11.9239 60.2153 11.2021 60.2153 10.5962 59.8998L10.3219 59.7375C9.77334 59.3692 9.42904 58.7652 9.3916 58.1055V41.2004Z" fill="#FBDBD0"/>
<path d="M42.763 7.66669C42.763 7.06555 42.3355 6.81869 41.8144 7.1204L12.6235 23.973C12.0646 24.3369 11.713 24.9458 11.6772 25.6118V59.3215C11.6772 59.925 12.1001 60.1695 12.6235 59.8678L41.8167 43.013C42.3756 42.649 42.7272 42.0401 42.763 41.3741V7.66669Z" fill="white"/>
<path d="M42.763 7.66669C42.763 7.06555 42.3355 6.81869 41.8144 7.1204L12.6235 23.973C12.0646 24.3369 11.713 24.9458 11.6772 25.6118V59.3215C11.6772 59.925 12.1001 60.1695 12.6235 59.8678L41.8167 43.013C42.3756 42.649 42.7272 42.0401 42.763 41.3741V7.66669Z" fill="white"/>
<path d="M11.6772 29.4933V59.3216C11.6772 59.925 12.1001 60.1696 12.6235 59.8678L41.8167 43.013C42.3756 42.6491 42.7272 42.0401 42.763 41.3741V11.6838L11.6772 29.4933Z" fill="white"/>
<path d="M42.763 7.66668C42.763 7.06556 42.3355 6.81868 41.8144 7.12041L12.6235 23.973C12.0646 24.3369 11.713 24.9458 11.6772 25.6118V29.4933L42.763 11.6839V7.66668Z" fill="#C1DBF6"/>
<path d="M17.5703 22.9107C17.0939 23.2197 16.794 23.738 16.7634 24.305C16.7634 24.817 17.1246 25.025 17.5703 24.7621C18.0453 24.452 18.3441 23.9342 18.3749 23.3678C18.3749 22.8627 18.0137 22.6547 17.5703 22.9107Z" fill="#374874"/>
<path d="M15.4421 24.2088C14.9657 24.5178 14.6658 25.0361 14.6353 25.6031C14.6353 26.1151 14.9964 26.3231 15.4421 26.0602C15.9171 25.7501 16.2159 25.2323 16.2467 24.6659C16.2467 24.1608 15.8855 23.9528 15.4421 24.2088Z" fill="#374874"/>
<path d="M13.3142 25.491C12.8378 25.8001 12.5379 26.3183 12.5073 26.8853C12.5073 27.3973 12.8685 27.6053 13.3142 27.3424C13.7892 27.0324 14.088 26.5145 14.1188 25.9482C14.1188 25.443 13.7576 25.235 13.3142 25.491Z" fill="#374874"/>
<path d="M38.2826 11.9935C38.2535 12.398 38.0337 12.7646 37.6906 12.9809L19.5908 23.3884C19.2639 23.5781 18.9988 23.4433 18.9988 23.089C19.0286 22.6852 19.2483 22.3196 19.5908 22.1038L37.6906 11.6964C38.0174 11.5044 38.2826 11.6392 38.2826 11.9935Z" fill="white"/>
<path d="M56.0964 12.8482C56.0964 12.8482 56.7725 12.6551 57.2415 13C57.8063 13.4152 57.7106 13.883 57.7106 13.883L56.3448 15.7456L54.9375 14.7108L56.0964 12.8482Z" fill="white"/>
<path d="M38.8779 36.2337L53.944 14.1313C53.944 14.1313 54.4253 14.138 54.9572 14.292C55.2329 14.3718 55.5222 14.4911 55.7651 14.6694C56.6882 15.347 56.6757 15.9525 56.6757 15.9525L41.5269 37.8894L38.8779 39.3794L38.4226 39.0345L38.8779 36.2337Z" fill="#C1DBF6"/>
<path d="M51.3089 20.3462L55.8481 14.1313C55.8481 14.1313 55.8067 13.5381 55.0617 13.6347C54.3166 13.7312 54.1787 14.1451 54.1787 14.1451L50.1224 19.8707C50.1224 19.8707 49.5843 20.6423 51.3089 20.3462Z" fill="white"/>
<path d="M38.4642 38.8068L38.285 39.6049C38.2675 39.6831 38.3542 39.7428 38.421 39.6984L39.0781 39.2621C39.0781 39.2621 38.9364 39.0217 38.8643 38.9655C38.7794 38.8993 38.4642 38.8068 38.4642 38.8068Z" fill="#ECECEC"/>
<path d="M10.667 59.9181L10.3402 59.7307C9.78157 59.364 9.42968 58.7544 9.3916 58.0873V24.3135C9.42897 23.6462 9.78102 23.0363 10.3402 22.6701L39.5973 5.78326C40.1937 5.48143 40.8981 5.48143 41.4945 5.78326L41.8213 5.97068C42.3773 6.33887 42.7265 6.94826 42.763 7.61411V41.3878C42.7271 42.0556 42.3747 42.6661 41.8145 43.0313L12.5573 59.9181C11.9634 60.2199 11.261 60.2199 10.667 59.9181Z" fill="white"/>
<path d="M10.667 59.9181L10.3402 59.7307C9.78157 59.364 9.42968 58.7544 9.3916 58.0873V24.3135C9.42897 23.6462 9.78102 23.0363 10.3402 22.6701L39.5973 5.78326C40.1937 5.48143 40.8981 5.48143 41.4945 5.78326L41.8213 5.97068C42.3773 6.33887 42.7265 6.94826 42.763 7.61411V41.3878C42.7271 42.0556 42.3747 42.6661 41.8145 43.0313L12.5573 59.9181C11.9634 60.2199 11.261 60.2199 10.667 59.9181Z" fill="white"/>
<path d="M9.3916 41.2004V24.3113C9.40214 23.9817 9.49569 23.6602 9.6636 23.3764L13.7345 25.781V59.1867L12.5299 59.8998C11.9239 60.2153 11.2021 60.2153 10.5962 59.8998L10.3219 59.7375C9.77334 59.3692 9.42904 58.7652 9.3916 58.1055V41.2004Z" fill="#C1DBF6"/>
<path d="M9.3916 41.2004V24.3113C9.40214 23.9817 9.49569 23.6602 9.6636 23.3764L13.7345 25.781V59.1867L12.5299 59.8998C11.9239 60.2153 11.2021 60.2153 10.5962 59.8998L10.3219 59.7375C9.77334 59.3692 9.42904 58.7652 9.3916 58.1055V41.2004Z" fill="#FBDBD0"/>
<path d="M42.763 7.66669C42.763 7.06555 42.3355 6.81869 41.8144 7.1204L12.6235 23.973C12.0646 24.3369 11.713 24.9458 11.6772 25.6118V59.3215C11.6772 59.925 12.1001 60.1695 12.6235 59.8678L41.8167 43.013C42.3756 42.649 42.7272 42.0401 42.763 41.3741V7.66669Z" fill="white"/>
<path d="M42.763 7.66669C42.763 7.06555 42.3355 6.81869 41.8144 7.1204L12.6235 23.973C12.0646 24.3369 11.713 24.9458 11.6772 25.6118V59.3215C11.6772 59.925 12.1001 60.1695 12.6235 59.8678L41.8167 43.013C42.3756 42.649 42.7272 42.0401 42.763 41.3741V7.66669Z" fill="white"/>
<path d="M11.6772 29.4933V59.3216C11.6772 59.925 12.1001 60.1696 12.6235 59.8678L41.8167 43.013C42.3756 42.6491 42.7272 42.0401 42.763 41.3741V11.6838L11.6772 29.4933Z" fill="white"/>
<path d="M42.763 7.66668C42.763 7.06556 42.3355 6.81868 41.8144 7.12041L12.6235 23.973C12.0646 24.3369 11.713 24.9458 11.6772 25.6118V29.4933L42.763 11.6839V7.66668Z" fill="#C1DBF6"/>
<path d="M17.5703 22.9107C17.0939 23.2197 16.794 23.738 16.7634 24.305C16.7634 24.817 17.1246 25.025 17.5703 24.7621C18.0453 24.452 18.3441 23.9342 18.3749 23.3678C18.3749 22.8627 18.0137 22.6547 17.5703 22.9107Z" fill="#374874"/>
<path d="M15.4421 24.2088C14.9657 24.5178 14.6658 25.0361 14.6353 25.6031C14.6353 26.1151 14.9964 26.3231 15.4421 26.0602C15.9171 25.7501 16.2159 25.2323 16.2467 24.6659C16.2467 24.1608 15.8855 23.9528 15.4421 24.2088Z" fill="#374874"/>
<path d="M13.3142 25.491C12.8378 25.8001 12.5379 26.3183 12.5073 26.8853C12.5073 27.3973 12.8685 27.6053 13.3142 27.3424C13.7892 27.0324 14.088 26.5145 14.1188 25.9482C14.1188 25.443 13.7576 25.235 13.3142 25.491Z" fill="#374874"/>
<path d="M38.2826 11.9935C38.2535 12.398 38.0337 12.7646 37.6906 12.9809L19.5908 23.3884C19.2639 23.5781 18.9988 23.4433 18.9988 23.089C19.0286 22.6852 19.2483 22.3196 19.5908 22.1038L37.6906 11.6964C38.0174 11.5044 38.2826 11.6392 38.2826 11.9935Z" fill="white"/>
<path d="M37.0713 34.3484L15.0001 47.0912C14.9111 47.1426 14.8383 47.2686 14.8386 47.3709C14.8389 47.4748 14.9121 47.5149 15.0011 47.4635L37.0724 34.7207C37.1614 34.6692 37.2341 34.5449 37.2338 34.441C37.2335 34.3387 37.1603 34.297 37.0713 34.3484Z" fill="#374874"/>
<path d="M37.2195 37.6758L15.1497 50.4178C15.0593 50.47 14.9865 50.596 14.9868 50.6983C14.9871 50.8005 15.0603 50.8423 15.1508 50.79L37.2206 38.048C37.311 37.9958 37.3838 37.8698 37.3835 37.7675C37.3832 37.6652 37.31 37.6235 37.2195 37.6758Z" fill="#374874"/>
<path d="M28.1609 46.3189L15.2982 53.7452C15.2092 53.7966 15.1364 53.9225 15.1367 54.0248C15.137 54.1271 15.2102 54.1689 15.2992 54.1175L28.162 46.6912C28.251 46.6398 28.3237 46.5138 28.3234 46.4115C28.3231 46.3092 28.2499 46.2675 28.1609 46.3189Z" fill="#374874"/>
<path d="M41.3436 15.6815L38.0251 17.5974C33.961 22.077 30.2239 27.4461 26.2737 32.3924C26.1912 32.4944 26.1081 32.5956 26.0249 32.6956C26.011 32.7122 25.9972 32.7288 25.9833 32.7454C23.1959 36.0783 20.0672 38.2245 16.8583 40.0799C16.8453 40.0874 16.8323 40.095 16.8192 40.1025C16.8106 40.1074 16.8018 40.1125 16.7932 40.1174C16.4657 40.3063 16.1376 40.4922 15.8087 40.6761C15.4494 40.8771 15.0894 41.0757 14.7292 41.2731L14.737 43.9879L38.3303 30.3663C40.0158 29.3932 41.3766 27.2941 41.372 25.6775L41.3436 15.6815Z" fill="#FBDBD0"/>
<path d="M19.4767 36.5903C17.6686 37.6343 16.1986 36.7948 16.1927 34.7172C16.1868 32.6395 17.6473 30.1083 19.4554 29.0643C21.2635 28.0204 22.735 28.8589 22.7408 30.9366C22.7467 33.0143 21.2849 35.5464 19.4767 36.5903ZM38.025 17.5974L17.4044 29.5027C15.91 30.3655 14.7035 32.2261 14.7075 33.6599L14.7291 41.273C15.0893 41.0756 15.4493 40.877 15.8085 40.6761C16.1374 40.4922 16.4655 40.3063 16.7931 40.1174C16.8017 40.1124 16.8105 40.1074 16.8191 40.1025C16.8321 40.0949 16.8451 40.0874 16.8582 40.0799C20.0671 38.2244 23.1957 36.0783 25.9832 32.7454C25.9971 32.7287 26.0109 32.7122 26.0247 32.6955C26.1079 32.5956 26.191 32.4944 26.2736 32.3923C30.2238 27.4461 33.9609 22.077 38.025 17.5974Z" fill="#C1DBF6"/>
<path d="M19.4555 29.0643C17.6474 30.1083 16.187 32.6395 16.1929 34.7172C16.1988 36.7949 17.6688 37.6343 19.4769 36.5903C21.285 35.5464 22.7469 33.0143 22.741 30.9366C22.7351 28.8589 21.2637 28.0204 19.4555 29.0643Z" fill="white"/>
<path d="M56.0964 12.8482C56.0964 12.8482 56.7725 12.6551 57.2415 13C57.8063 13.4152 57.7106 13.883 57.7106 13.883L56.3448 15.7456L54.9375 14.7108L56.0964 12.8482Z" fill="white"/>
<path d="M38.8779 36.2337L53.944 14.1313C53.944 14.1313 54.4253 14.138 54.9572 14.292C55.2329 14.3718 55.5222 14.4911 55.7651 14.6694C56.6882 15.347 56.6757 15.9525 56.6757 15.9525L41.5269 37.8894L38.8779 39.3794L38.4226 39.0345L38.8779 36.2337Z" fill="#C1DBF6"/>
<path d="M51.3089 20.3462L55.8481 14.1313C55.8481 14.1313 55.8067 13.5381 55.0617 13.6347C54.3166 13.7312 54.1787 14.1451 54.1787 14.1451L50.1224 19.8707C50.1224 19.8707 49.5843 20.6423 51.3089 20.3462Z" fill="white"/>
<path d="M38.4642 38.8068L38.285 39.6049C38.2675 39.6831 38.3542 39.7428 38.421 39.6984L39.0781 39.2621C39.0781 39.2621 38.9364 39.0217 38.8643 38.9655C38.7794 38.8993 38.4642 38.8068 38.4642 38.8068Z" fill="#ECECEC"/>
<path d="M40.5459 5.55692C40.8711 5.55692 41.1963 5.63238 41.4944 5.78332L41.8213 5.97071C42.3773 6.33889 42.7265 6.94828 42.763 7.61411V30.5343L53.944 14.1314C53.944 14.1314 54.0353 14.1334 54.1774 14.1468L54.1786 14.1452C54.1786 14.1452 54.3165 13.7313 55.0615 13.6347C55.1173 13.6275 55.169 13.6241 55.2171 13.6241C55.3648 13.6241 55.4778 13.6556 55.5647 13.7026L56.0963 12.8483C56.0963 12.8483 56.285 12.7944 56.5322 12.7944C56.7529 12.7944 57.0202 12.8374 57.2414 13C57.8061 13.4153 57.7105 13.883 57.7105 13.883L56.5296 15.4935C56.6785 15.7697 56.6758 15.9525 56.6758 15.9525L42.763 36.0995V41.3878C42.7271 42.0556 42.3747 42.6661 41.8144 43.0313L12.5573 59.9182C12.2615 60.0684 11.939 60.1425 11.6163 60.1425C11.5186 60.1425 11.4209 60.1358 11.3239 60.1222C11.0731 60.0934 10.8263 60.0197 10.5962 59.8999L10.3219 59.7376C9.77334 59.3693 9.42904 58.7652 9.3916 58.1056V24.3113C9.40214 23.9817 9.4957 23.6602 9.6636 23.3764L9.66966 23.38C9.83229 23.0979 10.0602 22.8535 10.3402 22.6702L39.5973 5.78332C39.8955 5.63238 40.2207 5.55692 40.5459 5.55692ZM40.5458 4.64264C40.0751 4.64264 39.6043 4.75498 39.1843 4.96758L39.1619 4.97891L39.1402 4.99146L9.8831 21.8783L9.86079 21.8912L9.83924 21.9053C9.70758 21.9915 9.58278 22.0882 9.46619 22.194L9.34998 22.1247L8.87668 22.9109C8.63112 23.326 8.49318 23.8001 8.47775 24.2821L8.47729 24.2967V58.1315L8.47876 58.1574C8.53208 59.0974 9.03058 59.9719 9.81222 60.4966L9.83387 60.5112L9.85631 60.5245L10.1306 60.6868L10.1519 60.6994L10.1739 60.7108C10.4971 60.8791 10.8451 60.9862 11.2086 61.0293C11.3434 61.0476 11.4805 61.0568 11.6163 61.0568C12.0861 61.0568 12.5547 60.945 12.9714 60.7333L12.9932 60.7223L13.0143 60.71L42.2715 43.8232L42.2929 43.8108L42.3137 43.7973C43.1153 43.2748 43.6246 42.3924 43.676 41.437L43.6773 41.4124V36.3845L57.4281 16.4721L57.5858 16.2437L57.59 15.9663C57.5909 15.9047 57.5864 15.7921 57.5542 15.6423L58.4478 14.4237L58.5662 14.2623L58.6063 14.0661C58.7044 13.586 58.5478 12.8257 57.7831 12.2634C57.442 12.0126 57.0095 11.8801 56.5322 11.8801C56.175 11.8801 55.8972 11.9543 55.8451 11.9692L55.5062 12.066L55.3201 12.3653L55.1036 12.7131C55.0511 12.716 54.9978 12.721 54.9442 12.728C54.388 12.8001 54.0141 12.9996 53.7656 13.213L53.4681 13.2064L53.1886 13.6164L43.6773 27.5698V7.58906L43.6759 7.56401C43.6238 6.61423 43.1192 5.73366 42.3261 5.20842L42.3016 5.19219L42.276 5.17752L41.9492 4.99014L41.9286 4.97836L41.9074 4.9676C41.4874 4.75498 41.0166 4.64264 40.5458 4.64264Z" fill="#374874"/>
</svg>
