<svg width="64" height="64" viewBox="0 0 64 64" fill="none" xmlns="http://www.w3.org/2000/svg">
<path d="M24.7404 42.9836L26.6965 49.9577H20.7005L18.4467 53.1843L17.3411 52.4667L19.2547 45.0993L24.7404 42.9836Z" fill="#FBDBD0"/>
<path d="M40.0268 51.8041C39.1324 52.3342 36.478 53.7424 33.5218 53.7424C30.5655 53.7424 28.2474 52.3342 27.4796 51.8041L25.9949 55.4647C25.9949 55.4647 29.0853 59.4832 33.4245 59.4832C37.7637 59.4832 40.6341 55.4965 40.6341 55.4965L40.0268 51.8041Z" fill="#C1DBF6"/>
<path d="M44.4931 48.5755L46.2154 51.9563L47.4911 51.4141V43.7596L42.5795 41.4633L40.7935 48.5118L44.4931 48.5755Z" fill="#FBDBD0"/>
<path d="M33.5217 53.971C29.8425 53.971 27.1757 51.8732 27.0641 51.7839C27.0398 51.7645 27.0197 51.7401 27.005 51.7127C26.9456 51.6011 21.0619 40.3761 21.0619 25.0381C21.0619 12.5319 32.5719 2.135 32.6882 2.03144C32.7313 1.99327 32.7855 1.97363 32.8402 1.97363C32.8844 1.97363 32.9286 1.98636 32.9672 2.01203C32.998 2.03279 36.0914 4.1214 39.1362 8.15624C41.9463 11.8797 45.2958 18.0745 45.2958 26.4413C45.2958 33.9386 40.615 51.4882 40.5677 51.6645C40.5534 51.7179 40.5202 51.7643 40.4744 51.7951C40.342 51.8839 37.1907 53.971 33.5217 53.971Z" fill="white"/>
<path d="M32.8404 2.20224C32.8404 2.20224 45.0673 10.367 45.0673 26.4414C45.0673 33.9953 40.3471 51.6055 40.3471 51.6055C40.3471 51.6055 37.1634 53.7423 33.5218 53.7423C29.8803 53.7423 27.2069 51.6055 27.2069 51.6055C27.2069 51.6055 21.2906 40.4963 21.2906 25.0381C21.2906 12.4896 32.8404 2.20224 32.8404 2.20224ZM32.8405 1.74512C32.7311 1.74512 32.6224 1.78418 32.5363 1.86084C32.4168 1.96731 29.5756 4.51609 26.6905 8.65303C24.0186 12.4844 20.8335 18.4372 20.8335 25.0381C20.8335 33.0813 22.4536 39.9281 23.8126 44.2556C25.2875 48.9517 26.7422 51.7055 26.8034 51.8203C26.8327 51.8754 26.8729 51.9237 26.9215 51.9627C27.0358 52.0539 29.7633 54.1995 33.5219 54.1995C37.2596 54.1995 40.4671 52.0755 40.6019 51.9851C40.6937 51.9235 40.76 51.8306 40.7886 51.7238C40.8005 51.6797 41.9849 47.2502 43.1536 41.9547C44.7268 34.8267 45.5245 29.6073 45.5245 26.4414C45.5245 18.0113 42.1498 11.7699 39.3188 8.01856C36.2507 3.95305 33.2217 1.90717 33.0943 1.82212C33.017 1.77056 32.9285 1.74512 32.8405 1.74512Z" fill="#374874"/>
<path d="M33.1789 16.3364C28.3655 16.3364 25.6287 13.1471 25.1193 11.6922C25.097 11.629 25.1037 11.5591 25.1376 11.5013C28.4474 5.84172 32.6461 2.06895 32.6883 2.03144C32.7314 1.99327 32.7856 1.97363 32.8403 1.97363C32.8845 1.97363 32.9287 1.98636 32.9673 2.01203C33.0151 2.04394 37.7872 5.27631 41.3492 11.512C41.393 11.5886 41.3888 11.6832 41.3387 11.7556L41.226 11.9189C40.2403 13.3529 38.1892 16.3364 33.1789 16.3364Z" fill="#FBDBD0"/>
<path d="M32.8403 2.20224C32.8403 2.20224 37.5741 5.36441 41.1508 11.6255C40.2025 12.9931 38.2633 16.1078 33.1789 16.1078C28.4826 16.1078 25.8153 12.9883 25.3349 11.6168C28.6648 5.92281 32.8403 2.20224 32.8403 2.20224ZM32.8404 1.74512C32.7311 1.74512 32.6223 1.78418 32.5362 1.86096C32.4939 1.89867 28.2682 5.69545 24.9403 11.386C24.8726 11.5017 24.8592 11.6413 24.9035 11.7679C25.4299 13.2707 28.2445 16.565 33.1789 16.565C38.3094 16.565 40.4065 13.5146 41.4143 12.0487L41.5265 11.886C41.6269 11.7412 41.6351 11.5517 41.5478 11.3987C37.9589 5.11632 33.2912 1.95371 33.0943 1.82212C33.017 1.77056 32.9285 1.74512 32.8404 1.74512Z" fill="#374874"/>
<path d="M39.9325 45.0992L39.0394 51.159C39.0394 51.159 42.2288 54.9863 42.3245 54.9863C42.4202 54.9863 43.8873 60.3444 43.8873 60.3444L45.0673 61.2693V53.5192L39.9325 45.0992Z" fill="#FBDBD0"/>
<path d="M40.7935 44.3976L39.9324 45.0993L45.0672 53.5192V61.2693L46.0241 60.6952V53.1843L40.7935 44.3976Z" fill="white"/>
<path d="M19.4674 53.1842L21.6787 49.9576H20.7006L18.4468 53.1842H19.4674Z" fill="#C1DBF6"/>
<path d="M27.4553 23.4326C28.6206 24.1054 29.6176 25.7738 29.6139 27.1129C29.6101 28.4519 28.6069 28.9624 27.4415 28.2895C26.2761 27.6167 25.3312 25.98 25.335 24.6409C25.3388 23.3018 26.2899 22.7598 27.4553 23.4326Z" fill="#374874"/>
<path d="M26.3693 24.0043C26.3693 24.0043 26.4521 23.946 26.6191 23.9146C26.4065 24.0936 26.2782 24.403 26.277 24.8204C26.2743 25.79 26.9562 26.9708 27.8 27.458C28.0989 27.6305 28.3779 27.6927 28.6138 27.658C28.7075 27.5838 28.5272 27.7174 28.5272 27.7174C28.5245 27.719 28.5217 27.7206 28.5189 27.7222C28.5157 27.7239 28.5122 27.7252 28.509 27.727C28.4907 27.737 28.4718 27.7461 28.4526 27.7546C28.449 27.7561 28.4457 27.7581 28.4421 27.7596C28.4392 27.7609 28.4361 27.7616 28.4332 27.7628C28.4105 27.772 28.3874 27.7804 28.3635 27.7874C28.3628 27.7876 28.3622 27.7879 28.3614 27.7881C28.3612 27.7882 28.361 27.7882 28.3609 27.7883C28.3601 27.7885 28.3592 27.7887 28.3584 27.7889C28.3416 27.7937 28.3245 27.7978 28.3072 27.8015C28.3021 27.8026 28.297 27.8036 28.2919 27.8046C28.2865 27.8057 28.2812 27.8069 28.2757 27.8079C28.2663 27.8095 28.2567 27.8107 28.2472 27.812C28.2431 27.8126 28.239 27.8133 28.2348 27.8138C28.2179 27.8159 28.2008 27.8176 28.1835 27.8187C28.1816 27.8188 28.1797 27.8188 28.1779 27.8188C28.1729 27.8191 28.1678 27.8192 28.1628 27.8194C28.1479 27.82 28.1328 27.8202 28.1176 27.8201C28.1111 27.8201 28.1046 27.8199 28.0981 27.8198C28.0929 27.8196 28.0878 27.8197 28.0825 27.8195C28.0734 27.8191 28.064 27.8181 28.0547 27.8175C28.0478 27.817 28.0409 27.8166 28.0339 27.8159C28.0146 27.8141 27.9951 27.8118 27.9754 27.8089C27.9735 27.8086 27.9716 27.8085 27.9697 27.8082C27.9694 27.8082 27.9692 27.8081 27.9689 27.8081C27.9464 27.8046 27.9237 27.8004 27.9007 27.7954C27.8941 27.794 27.8873 27.7921 27.8806 27.7906C27.8654 27.787 27.8503 27.7836 27.835 27.7795C27.8337 27.7791 27.8324 27.7786 27.8311 27.7783C27.804 27.7708 27.7766 27.7625 27.749 27.753C27.743 27.751 27.737 27.7485 27.7311 27.7464C27.7092 27.7386 27.6872 27.7303 27.6651 27.7212C27.662 27.72 27.659 27.719 27.6559 27.7178C27.6378 27.7103 27.6197 27.7023 27.6014 27.6939C27.5991 27.6928 27.5968 27.6917 27.5946 27.6906C27.5738 27.681 27.5528 27.6707 27.5318 27.6599C27.5257 27.6568 27.5196 27.6537 27.5135 27.6505C27.4903 27.6383 27.4669 27.6256 27.4434 27.6121C27.4189 27.5979 27.3946 27.5831 27.3704 27.5678C27.3626 27.5629 27.3549 27.5577 27.3472 27.5527C27.3308 27.542 27.3143 27.5311 27.2981 27.52C27.2891 27.5138 27.2801 27.5074 27.2711 27.5011C27.2561 27.4904 27.2411 27.4796 27.2262 27.4685C27.2171 27.4618 27.208 27.455 27.199 27.4481C27.1839 27.4366 27.1689 27.4247 27.1539 27.4128C27.1456 27.4061 27.1372 27.3995 27.1289 27.3927C27.1118 27.3787 27.095 27.3643 27.0782 27.3499C27.0722 27.3447 27.0661 27.3397 27.0602 27.3346C27.0376 27.3147 27.0152 27.2945 26.993 27.2737C26.988 27.269 26.9831 27.2642 26.9781 27.2594C26.9638 27.2459 26.9495 27.2324 26.9354 27.2185C26.9332 27.2163 26.931 27.2139 26.9288 27.2117C26.9026 27.1856 26.8766 27.1591 26.851 27.1319C26.8508 27.1317 26.8506 27.1314 26.8503 27.1312C26.825 27.1042 26.8001 27.0764 26.7755 27.0483C26.7733 27.0459 26.7711 27.0436 26.769 27.0411C26.7596 27.0303 26.7504 27.0192 26.7412 27.0083C26.7315 26.9969 26.7218 26.9856 26.7123 26.9741C26.7005 26.9599 26.689 26.9453 26.6774 26.9308C26.6682 26.9193 26.6589 26.9079 26.6499 26.8963C26.6483 26.8943 26.6467 26.8923 26.6451 26.8903C26.6424 26.8868 26.6399 26.8831 26.6372 26.8796C26.6081 26.8418 26.5797 26.8032 26.552 26.764C26.5492 26.7601 26.5462 26.7564 26.5434 26.7524C26.5421 26.7506 26.5409 26.7486 26.5396 26.7467C26.5132 26.7089 26.4875 26.6704 26.4624 26.6314C26.46 26.6277 26.4574 26.6241 26.455 26.6204C26.4514 26.6148 26.4481 26.6089 26.4445 26.6033C26.4243 26.5713 26.4045 26.539 26.3853 26.5063C26.3823 26.5012 26.379 26.4963 26.376 26.4911C26.3749 26.4892 26.3739 26.4872 26.3728 26.4853C26.351 26.4478 26.3299 26.4099 26.3095 26.3717C26.3078 26.3686 26.306 26.3656 26.3043 26.3625C26.301 26.3562 26.298 26.3498 26.2948 26.3436C26.2788 26.3131 26.2632 26.2824 26.2481 26.2515C26.245 26.2451 26.2415 26.2389 26.2385 26.2325C26.2367 26.2288 26.2351 26.225 26.2333 26.2213C26.2147 26.1824 26.1967 26.1433 26.1796 26.104C26.1791 26.1026 26.1784 26.1013 26.1778 26.1C26.1759 26.0956 26.1743 26.0911 26.1724 26.0867C26.1572 26.0514 26.1428 26.016 26.1289 25.9805C26.1266 25.9746 26.124 25.9689 26.1218 25.963C26.12 25.9583 26.1185 25.9535 26.1167 25.9488C26.1007 25.9066 26.0853 25.8643 26.0711 25.8219C26.0708 25.821 26.0704 25.82 26.0701 25.819C26.0691 25.8162 26.0684 25.8133 26.0675 25.8104C26.0531 25.767 26.04 25.7235 26.0277 25.68C26.0261 25.6746 26.0242 25.6691 26.0227 25.6637C26.0213 25.6588 26.0202 25.6539 26.0188 25.649C26.0153 25.636 26.012 25.6229 26.0086 25.6099C26.0041 25.5924 25.9997 25.5749 25.9955 25.5574C25.9923 25.5441 25.9894 25.5308 25.9864 25.5175C25.9843 25.508 25.9819 25.4985 25.9799 25.489C25.9785 25.4825 25.9775 25.4761 25.9762 25.4697C25.9721 25.4498 25.9683 25.4299 25.9647 25.41C25.9622 25.3962 25.9596 25.3825 25.9573 25.3688C25.9539 25.3483 25.951 25.3278 25.9481 25.3074C25.9467 25.2976 25.9449 25.2879 25.9437 25.2782C25.9431 25.2743 25.9428 25.2703 25.9423 25.2664C25.9412 25.2572 25.9402 25.248 25.9391 25.2388C25.9369 25.2191 25.9349 25.1995 25.9332 25.18C25.9323 25.1699 25.9315 25.1599 25.9307 25.1499C25.9292 25.1302 25.9281 25.1106 25.9271 25.091C25.9267 25.0822 25.9261 25.0734 25.9258 25.0646C25.9248 25.0366 25.9241 25.0087 25.9242 24.981C25.9255 24.5012 26.0955 24.1634 26.3693 24.0043Z" fill="white"/>
<path d="M27.4553 33.3265C28.6206 33.9994 29.6176 35.6677 29.6139 37.0068C29.6101 38.3458 28.6069 38.8563 27.4415 38.1835C26.2761 37.5106 25.3312 35.8739 25.335 34.5348C25.3388 33.1957 26.2899 32.6537 27.4553 33.3265Z" fill="#374874"/>
<path d="M26.3693 33.8982C26.3693 33.8982 26.4521 33.8399 26.6191 33.8085C26.4065 33.9875 26.2782 34.2969 26.277 34.7143C26.2743 35.6839 26.9562 36.8647 27.8 37.3519C28.0989 37.5245 28.3779 37.5866 28.6138 37.5519C28.7075 37.4777 28.5272 37.6113 28.5272 37.6113C28.5245 37.6129 28.5217 37.6145 28.5189 37.6161C28.5157 37.6179 28.5122 37.6191 28.509 37.6209C28.4907 37.6309 28.4718 37.6401 28.4526 37.6485C28.449 37.65 28.4457 37.6521 28.4421 37.6536C28.4392 37.6548 28.4361 37.6555 28.4332 37.6567C28.4105 37.6659 28.3874 37.6743 28.3635 37.6813C28.3628 37.6815 28.3622 37.6818 28.3614 37.682C28.3612 37.6821 28.361 37.6821 28.3609 37.6822C28.3601 37.6824 28.3592 37.6826 28.3584 37.6828C28.3416 37.6876 28.3245 37.6917 28.3072 37.6954C28.3021 37.6965 28.297 37.6975 28.2919 37.6985C28.2865 37.6996 28.2812 37.7009 28.2757 37.7018C28.2663 37.7034 28.2567 37.7046 28.2472 37.7059C28.2431 37.7065 28.239 37.7072 28.2348 37.7077C28.2179 37.7098 28.2008 37.7115 28.1835 37.7126C28.1816 37.7127 28.1797 37.7127 28.1779 37.7128C28.1729 37.7131 28.1678 37.7131 28.1628 37.7133C28.1479 37.7139 28.1328 37.7142 28.1176 37.7141C28.1111 37.714 28.1046 37.7139 28.0981 37.7137C28.0929 37.7135 28.0878 37.7136 28.0825 37.7134C28.0734 37.713 28.064 37.7121 28.0547 37.7114C28.0478 37.7109 28.0409 37.7105 28.0339 37.7099C28.0146 37.7081 27.9951 37.7058 27.9754 37.7028C27.9735 37.7026 27.9716 37.7024 27.9697 37.7021C27.9694 37.7021 27.9692 37.702 27.9689 37.702C27.9464 37.6986 27.9237 37.6943 27.9007 37.6894C27.8941 37.6879 27.8873 37.686 27.8806 37.6845C27.8654 37.681 27.8503 37.6776 27.835 37.6734C27.8337 37.6731 27.8324 37.6726 27.8311 37.6722C27.804 37.6648 27.7766 37.6564 27.749 37.6469C27.743 37.6449 27.737 37.6424 27.7311 37.6403C27.7092 37.6325 27.6872 37.6242 27.6651 37.6152C27.662 37.6139 27.659 37.613 27.6559 37.6117C27.6378 37.6042 27.6197 37.5962 27.6014 37.5878C27.5991 37.5868 27.5968 37.5856 27.5946 37.5845C27.5738 37.5749 27.5528 37.5646 27.5318 37.5538C27.5257 37.5507 27.5196 37.5476 27.5135 37.5444C27.4903 37.5322 27.4669 37.5196 27.4434 37.506C27.4189 37.4919 27.3946 37.477 27.3704 37.4617C27.3626 37.4568 27.3549 37.4516 27.3472 37.4466C27.3308 37.4359 27.3143 37.4251 27.2981 37.4139C27.2891 37.4077 27.2801 37.4013 27.2711 37.395C27.2561 37.3844 27.2411 37.3735 27.2262 37.3624C27.2171 37.3557 27.208 37.3489 27.199 37.3421C27.1839 37.3305 27.1689 37.3187 27.1539 37.3067C27.1456 37.3 27.1372 37.2934 27.1289 37.2866C27.1118 37.2726 27.095 37.2583 27.0782 37.2438C27.0722 37.2386 27.0661 37.2337 27.0602 37.2285C27.0376 37.2087 27.0152 37.1884 26.993 37.1677C26.988 37.163 26.9831 37.1581 26.9781 37.1533C26.9638 37.1398 26.9495 37.1263 26.9354 37.1124C26.9332 37.1102 26.931 37.1078 26.9288 37.1056C26.9026 37.0796 26.8766 37.0531 26.851 37.0258C26.8508 37.0256 26.8506 37.0253 26.8503 37.0251C26.825 36.9981 26.8001 36.9704 26.7755 36.9423C26.7733 36.9398 26.7711 36.9375 26.769 36.9351C26.7596 36.9243 26.7504 36.9131 26.7412 36.9022C26.7315 36.8908 26.7218 36.8796 26.7123 36.8681C26.7005 36.8538 26.689 36.8392 26.6774 36.8247C26.6682 36.8132 26.6589 36.8019 26.6499 36.7902C26.6483 36.7882 26.6467 36.7863 26.6451 36.7842C26.6424 36.7807 26.6399 36.777 26.6372 36.7735C26.6081 36.7357 26.5797 36.6972 26.552 36.658C26.5492 36.654 26.5462 36.6503 26.5434 36.6463C26.5421 36.6445 26.5409 36.6425 26.5396 36.6406C26.5132 36.6028 26.4875 36.5643 26.4624 36.5254C26.46 36.5216 26.4574 36.518 26.455 36.5143C26.4514 36.5087 26.4481 36.5029 26.4445 36.4972C26.4243 36.4652 26.4045 36.4329 26.3853 36.4002C26.3823 36.3951 26.379 36.3902 26.376 36.3851C26.3749 36.3831 26.3739 36.3811 26.3728 36.3792C26.351 36.3417 26.3299 36.3038 26.3095 36.2656C26.3078 36.2625 26.306 36.2595 26.3043 36.2564C26.301 36.2501 26.298 36.2438 26.2948 36.2375C26.2788 36.207 26.2632 36.1763 26.2481 36.1454C26.245 36.1391 26.2415 36.1328 26.2385 36.1265C26.2367 36.1227 26.2351 36.119 26.2333 36.1152C26.2147 36.0763 26.1967 36.0372 26.1796 35.9979C26.1791 35.9966 26.1784 35.9953 26.1778 35.9939C26.1759 35.9895 26.1743 35.985 26.1724 35.9806C26.1572 35.9454 26.1428 35.9099 26.1289 35.8744C26.1266 35.8685 26.124 35.8628 26.1218 35.8569C26.12 35.8522 26.1185 35.8474 26.1167 35.8427C26.1007 35.8005 26.0853 35.7583 26.0711 35.7158C26.0708 35.7149 26.0704 35.7139 26.0701 35.7129C26.0691 35.7101 26.0684 35.7072 26.0675 35.7043C26.0531 35.6609 26.04 35.6174 26.0277 35.5739C26.0261 35.5685 26.0242 35.563 26.0227 35.5576C26.0213 35.5527 26.0202 35.5478 26.0188 35.5429C26.0153 35.5299 26.012 35.5168 26.0086 35.5038C26.0041 35.4863 25.9997 35.4688 25.9955 35.4513C25.9923 35.438 25.9894 35.4247 25.9864 35.4115C25.9843 35.4019 25.9819 35.3924 25.9799 35.3829C25.9785 35.3765 25.9775 35.3701 25.9762 35.3636C25.9721 35.3437 25.9683 35.3238 25.9647 35.3039C25.9622 35.2902 25.9596 35.2764 25.9573 35.2627C25.9539 35.2422 25.951 35.2217 25.9481 35.2013C25.9467 35.1916 25.9449 35.1818 25.9437 35.1721C25.9431 35.1682 25.9428 35.1643 25.9423 35.1603C25.9412 35.1511 25.9402 35.1419 25.9391 35.1327C25.9369 35.1131 25.9349 35.0935 25.9332 35.0739C25.9323 35.0639 25.9315 35.0538 25.9307 35.0438C25.9292 35.0241 25.9281 35.0045 25.9271 34.9849C25.9267 34.9761 25.9261 34.9673 25.9258 34.9585C25.9248 34.9305 25.9241 34.9026 25.9242 34.875C25.9255 34.3952 26.0955 34.0573 26.3693 33.8982Z" fill="white"/>
<path d="M32.8403 2.20227C32.8403 2.20227 32.8442 2.20483 32.8508 2.2094C32.8533 2.21107 32.8553 2.21241 32.8589 2.21497C32.8662 2.21989 32.8755 2.22624 32.8873 2.2344C32.8916 2.23742 32.8955 2.24009 32.9005 2.24355C32.9148 2.25358 32.9317 2.26542 32.9511 2.27916C32.9556 2.28229 32.9592 2.28485 32.9639 2.28821C33.0149 2.32437 33.0809 2.37191 33.1612 2.43118C33.1649 2.43385 33.169 2.43699 33.1728 2.43977C33.2088 2.46645 33.2477 2.49548 33.2892 2.52672C33.2969 2.53253 33.3045 2.53833 33.3124 2.54425C33.3549 2.57639 33.4 2.61077 33.4476 2.6475C33.4528 2.65152 33.4577 2.6552 33.4629 2.65923C33.6272 2.78601 33.8203 2.93936 34.0377 3.11881C34.0445 3.12451 34.0514 3.1302 34.0583 3.13589C34.1277 3.19326 34.1993 3.25319 34.2734 3.31591C34.2763 3.31827 34.2791 3.3206 34.282 3.32304C34.5193 3.52405 34.7798 3.75216 35.059 4.00709C35.0636 4.01134 35.0682 4.01557 35.0729 4.01982C35.1641 4.10318 35.2572 4.18935 35.3522 4.27852C35.3531 4.27941 35.354 4.28019 35.355 4.28108C35.6481 4.55619 35.9582 4.85865 36.2808 5.18812C36.2843 5.19157 36.2877 5.19516 36.2912 5.19872C36.3961 5.30597 36.5022 5.41603 36.6096 5.52896C36.6118 5.53141 36.6141 5.53365 36.6163 5.53609C36.9461 5.88341 37.2864 6.25785 37.6329 6.6592C37.6373 6.66435 37.6418 6.66958 37.6463 6.67472C37.7576 6.80396 37.8695 6.93589 37.9819 7.07059C37.986 7.0755 37.9901 7.08041 37.9942 7.08533C38.3427 7.50352 38.6951 7.94839 39.0474 8.41994C39.0544 8.42931 39.0614 8.43891 39.0684 8.44828C39.1776 8.5947 39.2866 8.74382 39.3955 8.89539C39.4047 8.90823 39.414 8.92094 39.4232 8.9339C39.7712 9.41973 40.1169 9.93145 40.4562 10.4695C40.4667 10.4862 40.4771 10.5029 40.4875 10.5195C40.588 10.6796 40.6879 10.8421 40.7871 11.0067C40.8017 11.0309 40.8163 11.055 40.8308 11.0793C40.9376 11.2575 41.0435 11.4379 41.1484 11.6214C41.1492 11.6229 41.15 11.6242 41.1508 11.6256C43.3222 15.4267 45.0673 20.3693 45.0673 26.4415C45.0673 30.1477 43.931 36.2739 42.7735 41.554L47.4912 43.7597V51.4142L46.2154 51.9564L44.4932 48.5757L43.2681 48.5546L46.0241 53.1843V60.6952L45.0673 61.2693L43.8872 60.3444C43.8872 60.3444 42.4201 54.9863 42.3244 54.9863C42.2663 54.9863 41.0686 53.5765 40.136 52.468L40.6341 55.4966C40.6341 55.4966 37.7636 59.4833 33.4245 59.4833C29.0853 59.4833 25.9949 55.4647 25.9949 55.4647L27.4796 51.8041C27.3016 51.6814 27.2068 51.6056 27.2068 51.6056C27.2068 51.6056 26.8999 51.0286 26.4266 49.9577H21.6786L19.4673 53.1843H18.4467L17.3411 52.4666L19.2547 45.0992L23.9898 43.2731C22.6019 38.6288 21.2906 32.3157 21.2906 25.0382C21.2906 20.035 23.127 15.3924 25.3349 11.6168C25.3352 11.6165 25.3354 11.6161 25.3356 11.6157C27.9373 7.16718 31.0533 3.92478 32.2924 2.71918C32.2931 2.71852 32.2937 2.71783 32.2944 2.71728C32.4907 2.52622 32.6394 2.3867 32.7315 2.30165C32.7344 2.29897 32.7368 2.29673 32.7396 2.29417C32.7577 2.27744 32.7734 2.26304 32.7867 2.25097C32.7909 2.24707 32.7944 2.24384 32.7982 2.24048C32.808 2.23143 32.8156 2.22464 32.8219 2.21884C32.8259 2.21527 32.8287 2.2128 32.8313 2.21047C32.8371 2.20524 32.8403 2.20227 32.8403 2.20227ZM32.8401 1.28894C32.6177 1.28894 32.3966 1.36942 32.2238 1.52723L32.2786 1.58716L32.8285 2.21305L32.2146 1.53539C32.2112 1.53852 32.2078 1.54153 32.2045 1.54464L32.181 1.56608L32.1695 1.57657L32.1194 1.62245C32.0168 1.71721 31.8615 1.86286 31.6568 2.06206C31.6554 2.06341 31.6541 2.06462 31.6528 2.06597C30.4014 3.28371 27.2094 6.60179 24.5484 11.1508C24.5475 11.1523 24.5466 11.1538 24.5457 11.1554C21.7791 15.8862 20.3763 20.557 20.3763 25.0382C20.3763 30.9577 21.2172 36.9026 22.8766 42.7225L18.9258 44.2462C18.6509 44.3522 18.4439 44.5841 18.3698 44.8694L16.4562 52.2368C16.3572 52.6177 16.5132 53.0192 16.8433 53.2335L17.949 53.9511C18.0972 54.0473 18.2701 54.0985 18.4467 54.0985H19.4673C19.7689 54.0985 20.051 53.9499 20.2215 53.7011L22.1604 50.872H25.8357C26.1747 51.61 26.387 52.011 26.3995 52.0347L25.1477 55.1211C25.0256 55.4219 25.0723 55.7648 25.2701 56.0221C25.4075 56.2008 28.6895 60.3975 33.4245 60.3975C38.1773 60.3975 41.2477 56.209 41.376 56.0308C41.4863 55.8777 41.5457 55.6954 41.5483 55.5093C41.5511 55.5122 41.5539 55.5151 41.5566 55.5179C41.7657 56.1411 42.428 58.4771 43.0054 60.5858C43.0573 60.7752 43.1687 60.9429 43.3232 61.0641L44.5033 61.989C44.668 62.118 44.8673 62.1836 45.0674 62.1836C45.2296 62.1836 45.3923 62.1405 45.5377 62.0534L46.4945 61.4792C46.7699 61.314 46.9384 61.0163 46.9384 60.6952V53.1843C46.9384 53.0197 46.8939 52.8581 46.8097 52.7166L46.8006 52.7011L47.8488 52.2556C48.1864 52.1122 48.4055 51.7809 48.4055 51.4142V43.7597C48.4055 43.4047 48.2 43.0818 47.8785 42.9315L43.8221 41.0349C45.2553 34.3914 45.9816 29.4841 45.9816 26.4415C45.9816 20.9987 44.6234 15.8613 41.9447 11.1721C41.9436 11.1701 41.9423 11.1678 41.941 11.1656C41.8334 10.9774 41.7247 10.7922 41.6152 10.6095L41.5822 10.5546L41.5703 10.535C41.468 10.3652 41.3652 10.198 41.2617 10.0333L41.249 10.0128L41.2307 9.98352C40.8932 9.44848 40.5356 8.91678 40.1666 8.4016L40.1455 8.37237L40.1375 8.36121C40.0259 8.20597 39.9138 8.05262 39.8015 7.90195L39.7932 7.89079L39.7792 7.87194C39.4315 7.40654 39.0671 6.94471 38.6967 6.50016C38.6962 6.49961 38.6896 6.4918 38.6892 6.49123C38.5684 6.34647 38.4533 6.21086 38.3389 6.07806L38.3226 6.0592C37.9845 5.66745 37.6331 5.27918 37.2804 4.90775C37.2792 4.90652 37.278 4.90531 37.2769 4.90419C37.2754 4.90252 37.2738 4.90085 37.2722 4.89916C37.1618 4.78297 37.0526 4.66981 36.9447 4.55943L36.9282 4.54259C36.6192 4.22695 36.2984 3.91278 35.9807 3.61456C35.9778 3.61177 35.9743 3.60853 35.9709 3.60551C35.8712 3.51187 35.7795 3.42716 35.6896 3.34492L35.6785 3.33488C35.4064 3.08645 35.1364 2.84871 34.8729 2.62551C34.8704 2.62339 34.8661 2.61971 34.8616 2.61603C34.7856 2.55175 34.7121 2.49024 34.6409 2.43132L34.6248 2.41804C34.4146 2.2446 34.2134 2.08366 34.0216 1.93557L34.0061 1.92373C33.9556 1.88478 33.9083 1.84873 33.8637 1.81491L33.8489 1.80387C33.8486 1.80364 33.8394 1.79662 33.8391 1.79639C33.7959 1.7638 33.7546 1.7331 33.7164 1.70476L33.7041 1.69571C33.618 1.63209 33.5473 1.58119 33.4927 1.54247L33.4744 1.52953L33.4251 1.49481C33.424 1.49415 33.4063 1.48176 33.4052 1.48108L33.3772 1.46188C33.3717 1.45808 33.3656 1.45383 33.3621 1.4515L33.3484 1.44224C33.1938 1.33957 33.0165 1.28894 32.8401 1.28894Z" fill="#374874"/>
</svg>
