<svg width="64" height="64" viewBox="0 0 64 64" fill="none" xmlns="http://www.w3.org/2000/svg" version="1.1" xmlns:xlink="http://www.w3.org/1999/xlink" transform="matrix(1,0,0,-1,0,0)">
<path fill-rule="evenodd" clip-rule="evenodd" d="M11.2327 23.0634C11.5288 23.0634 11.7688 23.3034 11.7688 23.5995V62.7246C11.7688 63.0207 11.5288 63.2607 11.2327 63.2607C10.9366 63.2607 10.6966 63.0207 10.6966 62.7246V23.5995C10.6966 23.3034 10.9366 23.0634 11.2327 23.0634Z" fill="#ECECEC"></path>
<path fill-rule="evenodd" clip-rule="evenodd" d="M17.7089 19.3922C18.005 19.3922 18.245 19.6322 18.245 19.9283V59.0362C18.245 59.3323 18.005 59.5723 17.7089 59.5723C17.4128 59.5723 17.1728 59.3323 17.1728 59.0362V19.9283C17.1728 19.6322 17.4128 19.3922 17.7089 19.3922Z" fill="#ECECEC"></path>
<path fill-rule="evenodd" clip-rule="evenodd" d="M23.7733 15.9868C24.0694 15.9868 24.3094 16.2268 24.3094 16.5229V55.5837C24.3094 55.8797 24.0694 56.1198 23.7733 56.1198C23.4773 56.1198 23.2372 55.8797 23.2372 55.5837V16.5229C23.2372 16.2268 23.4773 15.9868 23.7733 15.9868Z" fill="#ECECEC"></path>
<path fill-rule="evenodd" clip-rule="evenodd" d="M29.8356 12.5643C30.1317 12.5643 30.3717 12.8043 30.3717 13.1004V52.0175C30.3717 52.3135 30.1317 52.5536 29.8356 52.5536C29.5395 52.5536 29.2995 52.3135 29.2995 52.0175V13.1004C29.2995 12.8043 29.5395 12.5643 29.8356 12.5643Z" fill="#ECECEC"></path>
<path fill-rule="evenodd" clip-rule="evenodd" d="M35.7886 9.20612C36.0846 9.20612 36.3247 9.44614 36.3247 9.74222V48.7386C36.3247 49.0347 36.0846 49.2747 35.7886 49.2747C35.4925 49.2747 35.2525 49.0347 35.2525 48.7386V9.74222C35.2525 9.44614 35.4925 9.20612 35.7886 9.20612Z" fill="#ECECEC"></path>
<path fill-rule="evenodd" clip-rule="evenodd" d="M41.9624 5.72141C42.2585 5.72141 42.4985 5.96143 42.4985 6.25751V45.2239C42.4985 45.52 42.2585 45.76 41.9624 45.76C41.6663 45.76 41.4263 45.52 41.4263 45.2239V6.25751C41.4263 5.96143 41.6663 5.72141 41.9624 5.72141Z" fill="#ECECEC"></path>
<path fill-rule="evenodd" clip-rule="evenodd" d="M48.0268 2.51764C48.3229 2.51764 48.5629 2.75766 48.5629 3.05374V41.8014C48.5629 42.0975 48.3229 42.3375 48.0268 42.3375C47.7308 42.3375 47.4907 42.0975 47.4907 41.8014V3.05374C47.4907 2.75766 47.7308 2.51764 48.0268 2.51764Z" fill="#ECECEC"></path>
<path fill-rule="evenodd" clip-rule="evenodd" d="M50.8987 5.5633C51.0452 5.82058 50.9555 6.14793 50.6982 6.29447L11.7253 28.4914C11.4681 28.638 11.1407 28.5482 10.9942 28.2909C10.8476 28.0336 10.9374 27.7063 11.1947 27.5598L50.1675 5.36278C50.4248 5.21624 50.7522 5.30602 50.8987 5.5633Z" fill="#ECECEC"></path>
<path fill-rule="evenodd" clip-rule="evenodd" d="M50.8987 12.4791C51.0452 12.7364 50.9554 13.0638 50.6982 13.2103L11.498 35.5338C11.2407 35.6803 10.9134 35.5905 10.7669 35.3332C10.6204 35.0759 10.7101 34.7486 10.9674 34.6021L50.1676 12.2786C50.4249 12.132 50.7522 12.2218 50.8987 12.4791Z" fill="#ECECEC"></path>
<path fill-rule="evenodd" clip-rule="evenodd" d="M50.8987 19.3927C51.0452 19.65 50.9554 19.9774 50.6982 20.1239L11.498 42.4474C11.2407 42.5939 10.9134 42.5041 10.7669 42.2469C10.6204 41.9896 10.7101 41.6622 10.9674 41.5157L50.1676 19.1922C50.4249 19.0457 50.7522 19.1355 50.8987 19.3927Z" fill="#ECECEC"></path>
<path fill-rule="evenodd" clip-rule="evenodd" d="M50.8987 26.3064C51.0452 26.5637 50.9555 26.891 50.6982 27.0375L11.5495 49.3332C11.2922 49.4797 10.9649 49.3899 10.8183 49.1326C10.6718 48.8753 10.7616 48.548 11.0189 48.4015L50.1676 26.1058C50.4248 25.9593 50.7522 26.0491 50.8987 26.3064Z" fill="#ECECEC"></path>
<path fill-rule="evenodd" clip-rule="evenodd" d="M50.8987 33.22C51.0452 33.4773 50.9555 33.8046 50.6982 33.9512L11.498 56.2768C11.2408 56.4234 10.9134 56.3336 10.7669 56.0763C10.6204 55.819 10.7101 55.4917 10.9674 55.3451L50.1676 33.0195C50.4248 32.873 50.7522 32.9627 50.8987 33.22Z" fill="#ECECEC"></path>
<path fill-rule="evenodd" clip-rule="evenodd" d="M50.8987 40.1336C51.0452 40.3909 50.9555 40.7183 50.6982 40.8648L11.498 63.1904C11.2408 63.337 10.9134 63.2472 10.7669 62.9899C10.6204 62.7326 10.7101 62.4053 10.9674 62.2588L50.1676 39.9331C50.4248 39.7866 50.7522 39.8764 50.8987 40.1336Z" fill="#ECECEC"></path>
<path d="M20.3596 51.6604C20.1991 51.6604 20.0375 51.6479 19.879 51.6235C19.3886 51.5523 18.9293 51.3708 18.5179 51.0847L14.6183 48.4572C13.9715 48.0111 13.9241 47.0068 14.4958 45.9557C14.9041 45.2046 15.7125 44.6595 16.4181 44.6595C16.6277 44.6595 16.8161 44.7066 16.9782 44.7999C17.019 44.8231 17.0592 44.8521 17.0969 44.8854L20.0036 47.0992C20.0083 47.1028 20.0128 47.1057 20.0177 47.1079C20.0244 47.1095 20.0308 47.111 20.0373 47.1126C20.0485 47.1137 20.0565 47.1142 20.0628 47.1142C20.0715 47.1142 20.0764 47.1133 20.0815 47.1119L20.1047 47.1025C20.1096 47.0983 20.1192 47.0905 20.1244 47.0865C20.125 47.0849 20.1366 47.0641 20.1373 47.0626L28.2431 30.4798C28.7632 29.3773 29.8931 28.6612 31.1188 28.6612C31.5895 28.6612 32.0456 28.7637 32.4741 28.9659C32.6583 29.0528 32.8348 29.1579 32.9989 29.2782L40.3844 34.3217C40.3993 34.3324 40.4087 34.3376 40.4174 34.3407L40.431 34.3429C40.4395 34.3429 40.4482 34.3438 40.4572 34.3449C40.4748 34.3427 40.4996 34.3351 40.5179 34.3099L42.9139 30.5184L51.0511 17.6255C49.6701 16.3146 49.1558 14.8976 49.7418 13.9488C49.8161 13.8284 49.9103 13.718 50.029 13.6126C50.0438 13.5972 50.0596 13.5827 50.0768 13.5693C50.0844 13.5633 50.0935 13.5566 50.1027 13.5503C50.1804 13.4878 50.2636 13.4318 50.3505 13.3838L58.1679 8.12979C58.2447 8.07823 58.3337 8.05212 58.4228 8.05212C58.5009 8.05212 58.5793 8.07222 58.6496 8.1124C58.8005 8.19857 58.8895 8.36307 58.879 8.53651C58.879 8.53651 58.2911 18.4091 58.2907 18.4142C58.2878 18.4459 58.2817 18.4767 58.2728 18.5061C58.2389 18.7207 58.1686 18.9151 58.0632 19.086C57.721 19.6401 57.0429 19.9454 56.1538 19.9454C55.6353 19.9454 55.0496 19.8432 54.442 19.6483L43.3351 37.5796C42.825 38.4041 41.9784 38.9445 41.0125 39.062C41.0063 39.0626 40.996 39.0637 40.9895 39.0644C40.8938 39.0756 40.813 39.0816 40.7317 39.0845C40.7266 39.0847 40.5748 39.0847 40.5748 39.0847C40.5297 39.0847 40.4846 39.0838 40.4396 39.0809C40.3429 39.0756 40.2433 39.0649 40.1442 39.0499C40.1402 39.0494 40.136 39.0488 40.132 39.0479C39.6567 38.9742 39.215 38.7988 38.8188 38.526L31.5266 33.4729C31.517 33.4667 31.5005 33.462 31.4817 33.462C31.4811 33.462 31.4746 33.4622 31.4686 33.4626C31.4599 33.4646 31.4496 33.4671 31.4496 33.4671C31.4378 33.4722 31.4251 33.4823 31.415 33.497L23.2279 49.8566C22.707 50.9492 21.5797 51.6604 20.3596 51.6604Z" fill="white"></path>
<path d="M58.4228 8.5092H58.424H58.4228ZM58.4228 8.5092L57.8358 18.364C57.8366 18.3445 57.8348 18.3247 57.8356 18.3053C57.8225 18.5022 57.7731 18.6854 57.6741 18.8459C57.407 19.2785 56.8574 19.4882 56.154 19.4882C55.5938 19.4882 54.9362 19.3552 54.2462 19.0961L42.9465 37.3389C42.4937 38.0708 41.7501 38.5118 40.9574 38.6082C40.9546 38.6085 40.9519 38.6086 40.9492 38.6089C40.8718 38.6181 40.7941 38.6249 40.716 38.6274C40.7117 38.6276 40.7074 38.6276 40.7032 38.6276C40.6878 38.6276 40.6723 38.6269 40.6569 38.6269C40.6552 38.6269 40.6536 38.6269 40.6519 38.6269C40.6263 38.6271 40.6007 38.6274 40.5751 38.6274C40.5393 38.6274 40.5035 38.6268 40.4676 38.6247C40.3822 38.62 40.2968 38.6106 40.2118 38.5977C40.2116 38.5977 40.2114 38.5977 40.2112 38.5976C39.8152 38.5376 39.4274 38.39 39.078 38.1495L31.7869 33.0972C31.6937 33.0342 31.5872 33.0046 31.4813 33.0046C31.4679 33.0046 31.4544 33.0051 31.441 33.006C31.4282 33.0071 31.4154 33.0074 31.4028 33.0094C31.3902 33.0112 31.3778 33.0145 31.3653 33.0171C31.34 33.023 31.3146 33.0292 31.2903 33.0387C31.2882 33.0394 31.2862 33.0403 31.2841 33.0411C31.1878 33.0798 31.1013 33.146 31.0382 33.238C31.0221 33.2614 31.0079 33.286 30.9956 33.3117L22.8189 49.6522C22.352 50.6315 21.3764 51.2031 20.3593 51.2031C20.2227 51.2031 20.0853 51.1928 19.9484 51.1718C19.5393 51.1124 19.1386 50.9598 18.7788 50.7094L14.8738 48.0782C14.4449 47.7823 14.4449 47.006 14.8974 46.174C15.2577 45.5113 15.9282 45.1166 16.4181 45.1166C16.5433 45.1166 16.6568 45.1424 16.7502 45.1961C16.7691 45.2069 16.7868 45.2208 16.8036 45.2368L19.7267 47.4628C19.7881 47.5099 19.8564 47.5413 19.927 47.5587C19.9255 47.5576 19.9233 47.556 19.9218 47.555C19.9669 47.5668 20.0123 47.5723 20.0571 47.5723C20.1025 47.5723 20.1473 47.5666 20.1906 47.5559C20.196 47.5545 20.2015 47.5537 20.2068 47.5522C20.227 47.5465 20.2465 47.5386 20.2659 47.5307C20.2789 47.5252 20.292 47.5199 20.3046 47.5134C20.3179 47.5067 20.3307 47.4991 20.3435 47.4913C20.3633 47.4789 20.3827 47.4657 20.401 47.4507C20.4065 47.4463 20.4119 47.4419 20.4172 47.4373C20.4423 47.4149 20.4661 47.3905 20.4874 47.3628C20.5111 47.3319 20.5314 47.2986 20.548 47.2633L28.6539 30.6805C29.1185 29.6955 30.0975 29.1183 31.1188 29.1184C31.5081 29.1184 31.9036 29.2023 32.279 29.3794C32.437 29.4539 32.5875 29.5435 32.7283 29.6469L40.1266 34.6991C40.186 34.7423 40.2512 34.7713 40.3184 34.7876C40.3281 34.79 40.3378 34.7905 40.3475 34.7924C40.3735 34.7972 40.3997 34.8018 40.426 34.8028C40.4263 34.8028 40.4267 34.8028 40.4271 34.8028C40.4285 34.8028 40.4298 34.8027 40.4313 34.8027C40.4316 34.8027 40.4319 34.8027 40.4322 34.8027C40.437 34.8028 40.4417 34.8029 40.4465 34.8029C40.6149 34.8029 40.7809 34.7255 40.8875 34.579C40.8936 34.5706 40.8994 34.562 40.905 34.5533L43.3003 30.7627L51.6429 17.5445C50.2863 16.3724 49.6255 15.0073 50.1308 14.1889C50.1947 14.0853 50.2788 13.9978 50.3734 13.9195C50.3704 13.9217 50.3671 13.9234 50.364 13.9254L50.3755 13.9177C50.4401 13.8644 50.5105 13.8165 50.588 13.7748L58.4228 8.5092ZM50.364 13.9254L50.3598 13.9282C50.3612 13.9272 50.3626 13.9263 50.364 13.9254ZM57.8358 18.364C57.8357 18.3672 57.8356 18.3704 57.8353 18.3736L57.8358 18.364ZM58.424 7.59491H58.4229C58.2296 7.59491 58.0504 7.65484 57.9027 7.7572L50.1104 12.9942C50.0127 13.0497 49.9187 13.113 49.8298 13.1832C49.824 13.1873 49.8183 13.1915 49.8129 13.1955C49.7766 13.2226 49.7429 13.2519 49.7118 13.283C49.5658 13.4147 49.4478 13.5547 49.3528 13.7086C48.6904 14.7816 49.1316 16.2937 50.4695 17.6908L42.5272 30.2747L40.3393 33.7371L33.2559 28.8999C33.0719 28.7662 32.8747 28.6494 32.6691 28.5524C32.1792 28.3213 31.6577 28.2041 31.1189 28.2041C29.7194 28.204 28.4292 29.0203 27.83 30.2842L19.9219 46.4622L17.3851 44.5303C17.3279 44.4814 17.2671 44.4384 17.2037 44.4022C16.9737 44.27 16.7087 44.2023 16.4182 44.2023C15.5414 44.2023 14.5857 44.8334 14.0942 45.7372C13.405 47.0045 13.5097 48.2477 14.3546 48.8307L18.2625 51.4639C18.7247 51.7842 19.262 51.996 19.817 52.0766C19.9909 52.1033 20.1758 52.1174 20.3594 52.1174C21.7516 52.1174 23.0384 51.3079 23.6402 50.0542L31.6249 34.0972L38.5573 38.901C39.0146 39.2158 39.5222 39.417 40.0683 39.5007C40.0705 39.5011 40.0727 39.5014 40.0749 39.5017C40.1916 39.5194 40.3067 39.5315 40.4169 39.5376C40.4676 39.5406 40.5214 39.5417 40.5751 39.5417L40.6455 39.5413L40.6599 39.5412L40.7032 39.542C40.7183 39.542 40.7334 39.5417 40.7485 39.5412C40.8391 39.5382 40.9367 39.5308 41.0437 39.5184C41.0525 39.5175 41.0613 39.5166 41.069 39.5156C42.1722 39.3815 43.1404 38.7634 43.7241 37.8199L54.647 20.1852C55.1774 20.3282 55.6888 20.4025 56.154 20.4025C57.2074 20.4025 58.0236 20.0202 58.4521 19.3262C58.5852 19.1105 58.6749 18.869 58.7198 18.6056C58.7327 18.556 58.7417 18.5046 58.7462 18.4519C58.747 18.4434 58.7478 18.4316 58.7484 18.4203C58.7485 18.4197 58.7485 18.419 58.7485 18.4184L59.3335 8.5974C59.3363 8.56837 59.3377 8.53896 59.3377 8.5092C59.3377 8.00426 58.9289 7.59491 58.424 7.59491Z" fill="#374874"></path>
<path d="M57.6741 18.8459C58.3037 17.826 57.1255 15.9568 55.0425 14.6708C52.9594 13.3848 50.7604 13.169 50.1308 14.1889C49.5011 15.2087 50.6793 17.078 52.7624 18.364C54.8454 19.65 57.0444 19.8657 57.6741 18.8459Z" fill="#C1DBF6"></path>
<path d="M18.8367 50.7372L14.8738 48.0782L16.7501 45.1961L19.7266 47.4627C19.9643 47.6452 20.3049 47.6004 20.4873 47.3627C20.511 47.3319 20.5314 47.2985 20.5479 47.2633L28.6539 30.6804C29.2956 29.3201 30.9186 28.7376 32.2789 29.3793C32.437 29.4539 32.5874 29.5434 32.7283 29.6468L40.1266 34.6991C40.3698 34.876 40.7105 34.8222 40.8874 34.5789C40.8935 34.5706 40.8994 34.562 40.905 34.5533L52.3498 16.4415C52.3498 16.4415 52.888 15.8625 54.0997 16.4801C55.3113 17.0977 55.0496 17.7989 55.0496 17.7989L42.9465 37.3389C42.1551 38.618 40.4767 39.0134 39.1976 38.222C39.16 38.1988 39.1229 38.1746 39.0865 38.1495L31.7954 33.0972C31.5474 32.927 31.2084 32.99 31.0381 33.238C31.0221 33.2614 31.0078 33.286 30.9956 33.3117L22.8189 49.6522C22.1716 51.0099 20.5462 51.5858 19.1885 50.9384C19.0664 50.8802 18.9488 50.813 18.8367 50.7372Z" fill="white"></path>
<path d="M54.7066 14.475C56.2313 15.292 57.9554 16.9711 57.8354 18.3735L58.4229 8.50916L50.3599 13.9281C51.4171 13.1368 53.2377 13.6987 54.7066 14.475Z" fill="white"></path>
<path d="M16.7502 45.1961C17.0354 45.359 17.0933 46.1374 16.6344 46.9673C16.1755 47.7972 15.2663 48.3419 14.8739 48.0782C14.445 47.7822 14.445 47.006 14.8974 46.1739C15.3499 45.3419 16.2913 44.9323 16.7502 45.1961Z" fill="#C1DBF6"></path>
<path fill-rule="evenodd" clip-rule="evenodd" d="M15.8723 45.3764C15.5431 45.5399 15.2124 45.834 14.9978 46.2285C14.7781 46.6327 14.6722 47.0164 14.6694 47.3281C14.6667 47.6403 14.7662 47.8646 14.9382 47.9837C15.003 48.027 15.0995 48.0439 15.2295 48.0201C15.359 47.9965 15.5104 47.9341 15.669 47.8357C15.9862 47.6391 16.3145 47.3098 16.5344 46.912C16.756 46.5114 16.8503 46.1273 16.8571 45.829C16.8605 45.6796 16.8419 45.5555 16.8092 45.4629C16.776 45.3687 16.7324 45.3175 16.6935 45.2953L16.6933 45.2951C16.5128 45.1914 16.2079 45.2098 15.8723 45.3764ZM16.8072 45.097C16.5287 44.9369 16.1335 44.9915 15.7706 45.1717C15.4012 45.3551 15.035 45.6817 14.797 46.1193C14.5644 46.5472 14.444 46.9676 14.4409 47.3261C14.4377 47.6836 14.5524 47.9952 14.809 48.1722L14.8101 48.173C14.9415 48.2613 15.1056 48.2751 15.2705 48.245C15.4361 48.2148 15.6144 48.1386 15.7894 48.03C16.1397 47.8128 16.4955 47.4548 16.7344 47.0226C16.9718 46.5934 17.0779 46.1734 17.0856 45.8342C17.0895 45.6648 17.0689 45.5119 17.0248 45.3869C16.9813 45.2634 16.9108 45.1563 16.8072 45.097Z" fill="#C1DBF6"></path>
<path d="M40.7099 37.7163C39.5219 37.3732 33.2537 32.8206 32.0271 31.9263C31.9256 31.8525 31.7834 31.8748 31.7096 31.9764C31.7033 31.985 31.6976 31.9941 31.6926 32.0035C31.4395 32.4667 31.1736 32.9835 31.075 33.1808C31.2588 32.9805 31.5616 32.9449 31.7869 33.0972L39.078 38.1495C40.2141 38.9314 41.7556 38.7398 42.6656 37.7034C42.6132 37.7062 42.5609 37.7119 42.5091 37.7206C42.1188 37.7871 41.5891 37.9736 40.7099 37.7163Z" fill="#C1DBF6"></path>
<path fill-rule="evenodd" clip-rule="evenodd" d="M31.6172 31.9091C31.7282 31.7566 31.9418 31.7229 32.0944 31.8339C32.7075 32.2809 34.5803 33.642 36.448 34.934C37.3819 35.5801 38.3137 36.2082 39.0856 36.696C39.4716 36.9399 39.8166 37.1481 40.1014 37.3057C40.3888 37.4647 40.6067 37.5675 40.7416 37.6065L40.742 37.6066C41.4602 37.8168 41.9282 37.7209 42.2979 37.6452C42.3648 37.6315 42.4285 37.6184 42.4899 37.6079C42.5461 37.5985 42.6029 37.5923 42.6597 37.5893L42.9303 37.5753L42.7515 37.7789C41.8032 38.8587 40.197 39.0584 39.0132 38.2436L39.0129 38.2434L31.7229 33.1919C31.7227 33.1918 31.7226 33.1917 31.7224 33.1915C31.5441 33.0713 31.3046 33.0996 31.1592 33.2581L30.6085 33.8582L30.9728 33.1297C31.0719 32.9314 31.3383 32.4138 31.5919 31.9493C31.5995 31.9352 31.6079 31.9218 31.6172 31.9091ZM31.802 32.0436C31.7988 32.048 31.796 32.0525 31.7936 32.057L31.7929 32.0583C31.6338 32.3495 31.4696 32.662 31.3453 32.9024C31.5154 32.8674 31.6979 32.8991 31.8509 33.0025L31.852 33.0033L39.1428 38.0553C39.1427 38.0553 39.1428 38.0554 39.1428 38.0553C40.1356 38.7385 41.4516 38.6459 42.3368 37.8708C41.965 37.9474 41.4463 38.0509 40.678 37.826C40.5159 37.7792 40.2781 37.6647 39.9907 37.5057C39.7005 37.3451 39.3513 37.1343 38.9635 36.8892C38.1876 36.3989 37.2529 35.7687 36.318 35.122C34.4479 33.8283 32.5733 32.4659 31.9598 32.0187C31.9093 31.9819 31.8387 31.9931 31.802 32.0436Z" fill="#C1DBF6"></path>
<path d="M20.443 50.272C19.8211 50.0918 17.4922 48.535 15.4829 47.1411C15.2684 47.4478 15.0411 47.8209 14.8739 48.0782L18.7789 50.7094C19.9263 51.5077 21.4906 51.3146 22.4094 50.2613C22.3665 50.2613 21.3393 50.5293 20.443 50.272Z" fill="#C1DBF6"></path>
<path fill-rule="evenodd" clip-rule="evenodd" d="M15.4545 46.9823L15.548 47.0472C16.5523 47.7439 17.6356 48.4807 18.545 49.0656C18.9998 49.3581 19.4102 49.6119 19.7449 49.8036C20.0833 49.9974 20.3341 50.1214 20.4746 50.1621C20.9033 50.2852 21.3681 50.2835 21.7356 50.2493C21.9186 50.2323 22.0756 50.2074 22.1897 50.1867C22.2467 50.1763 22.293 50.167 22.3268 50.1602L22.329 50.1598C22.3447 50.1566 22.3585 50.1539 22.369 50.1519C22.3744 50.1509 22.38 50.1499 22.3851 50.1491L22.3854 50.149C22.3885 50.1485 22.3986 50.147 22.4094 50.147H22.6607L22.4955 50.3364C21.5386 51.4335 19.9095 51.6348 18.7143 50.8038L14.7168 48.1102L14.7781 48.0159C14.829 47.9375 14.8864 47.847 14.9477 47.7502C15.0842 47.5348 15.2404 47.2884 15.3892 47.0756L15.4545 46.9823ZM15.512 47.3003C15.3867 47.4846 15.2601 47.6844 15.1448 47.8663C15.1052 47.9288 15.067 47.9891 15.0306 48.046L18.8442 50.6156C19.8449 51.3119 21.1767 51.2212 22.0718 50.4381C21.9797 50.4522 21.8733 50.466 21.7568 50.4769C21.376 50.5124 20.879 50.516 20.4114 50.3818L20.4112 50.3817C20.2406 50.3323 19.9672 50.1942 19.6314 50.002C19.2917 49.8075 18.8777 49.5513 18.4214 49.2578C17.5371 48.6891 16.4903 47.9781 15.512 47.3003Z" fill="#C1DBF6"></path>
<path d="M30.2966 30.2236C29.4388 31.1071 21.9505 46.8129 21.3222 48.1961C21.2704 48.3104 21.1357 48.3612 21.0213 48.3094C21.0119 48.3051 21.0028 48.3002 20.9941 48.2947C20.5459 48.016 20.0999 47.6771 19.9219 47.5549C20.1747 47.6208 20.4389 47.4986 20.5523 47.2633L28.669 30.6525C29.2748 29.4142 30.71 28.8232 32.0122 29.2758C31.9658 29.2999 31.9178 29.3207 31.8685 29.338C31.4889 29.4731 30.9378 29.5674 30.2966 30.2236Z" fill="#FBDBD0"></path>
<path d="M53.7244 16.3213C53.7244 16.3213 42.3589 34.0429 41.7156 35.426C41.6746 35.5371 41.5513 35.594 41.4402 35.553C41.4214 35.5461 41.4037 35.5365 41.3875 35.5247C40.9393 35.2459 40.4933 34.9071 40.3153 34.787C40.5687 34.8525 40.833 34.7294 40.9458 34.4932L52.3391 16.4414C52.9181 15.9696 53.7244 16.3213 53.7244 16.3213Z" fill="#FBDBD0"></path>
</svg>