<svg width="64" height="64" viewBox="0 0 64 64" fill="none" xmlns="http://www.w3.org/2000/svg">
<g clip-path="url(#clip0_105_53)">
<path d="M30.7336 60.8689L19.5223 54.3537L25.7175 33.5282L36.9287 40.0434L30.7336 60.8689Z" fill="#FBDBD0"/>
<path d="M37.4412 32.0817L26.23 25.5665L35.611 22.5911L46.8222 29.1063L37.4412 32.0817Z" fill="#FBDBD0"/>
<path d="M28.3889 42.1514C28.349 42.1514 28.3092 42.1409 28.274 42.1204L17.0628 35.6052C16.9599 35.5454 16.9202 35.4164 16.9717 35.3088L32.4485 3.0322C32.4759 2.97482 32.5264 2.9313 32.5873 2.91256C32.6092 2.90586 32.632 2.90253 32.6545 2.90253C32.6945 2.90253 32.7342 2.91302 32.7695 2.93354L43.9806 9.44872C44.0835 9.50854 44.1232 9.63757 44.0717 9.74516L28.5949 42.0217C28.5674 42.0791 28.517 42.1226 28.4561 42.1414C28.4342 42.1481 28.4114 42.1514 28.3889 42.1514Z" fill="#FBDBD0"/>
<path d="M30.7336 61.051C30.711 61.051 30.6883 61.0467 30.6662 61.038C30.5787 61.0032 30.5323 60.9072 30.559 60.8168L36.6659 40.2876L28.428 42.1008C28.4151 42.1037 28.4019 42.105 28.3889 42.105C28.334 42.105 28.2811 42.08 28.2463 42.036C28.203 41.9813 28.1945 41.907 28.2247 41.8441L43.7014 9.56751C43.7327 9.50278 43.7976 9.46417 43.8657 9.46417C43.8874 9.46417 43.9093 9.46797 43.9305 9.47601C44.0189 9.50973 44.0669 9.60548 44.0407 9.69654L37.7097 31.8057L46.7671 28.9327C46.7852 28.9271 46.8039 28.9242 46.8222 28.9242C46.8747 28.9242 46.9258 28.947 46.9611 28.9885C47.0084 29.0443 47.0177 29.1233 46.9847 29.1887L30.8961 60.9512C30.8642 61.0139 30.8003 61.051 30.7336 61.051Z" fill="white"/>
<path d="M43.8658 9.6463H43.867H43.8658ZM43.8658 9.6463L37.4413 32.0817L46.8223 29.1063L30.7336 60.8689L36.9288 40.0434L28.389 41.9229L43.8658 9.6463ZM43.8659 9.28201C43.8494 9.28201 43.8329 9.28313 43.8167 9.28534C43.7599 9.29305 43.7073 9.31375 43.662 9.34438C43.6238 9.37017 43.5902 9.40331 43.5636 9.44303C43.5523 9.45972 43.5424 9.47746 43.534 9.49599L28.0606 41.7654C28.0004 41.891 28.017 42.04 28.1036 42.1491C28.1735 42.2373 28.2792 42.2871 28.389 42.2871C28.415 42.2871 28.4412 42.2843 28.4673 42.2786L36.4034 40.5319L30.3845 60.765C30.3308 60.9456 30.4237 61.1374 30.5989 61.2071C30.6429 61.2247 30.6885 61.2331 30.7335 61.2331C30.8671 61.2331 30.9948 61.1592 31.0585 61.0334L47.1472 29.2708C47.2135 29.1399 47.1948 28.9821 47.0998 28.8703C47.0294 28.7875 46.9273 28.742 46.8222 28.742C46.7855 28.742 46.7484 28.7476 46.7122 28.7591L37.9783 31.5292L44.2103 9.76623C44.2235 9.72868 44.2306 9.68827 44.2306 9.64626C44.2306 9.45149 44.0783 9.29245 43.8861 9.28253C43.8793 9.28219 43.8726 9.28201 43.8659 9.28201Z" fill="#374874"/>
<path d="M32.6546 3.13111L43.8658 9.64628L39.5101 24.8569L46.8222 29.1063L30.7335 60.8688L19.5223 54.3536L23.982 39.362L17.1777 35.4077L32.6546 3.13111ZM32.6545 2.21682C32.5642 2.21682 32.4736 2.23021 32.3856 2.25728C32.1418 2.33234 31.9405 2.50583 31.8301 2.73579L16.3533 35.0124C16.1472 35.4424 16.3061 35.9586 16.7184 36.1982L22.9006 39.7909L18.646 54.0929C18.5256 54.4976 18.698 54.932 19.063 55.1442L30.2742 61.6593C30.415 61.7411 30.5737 61.7831 30.7336 61.7831C30.8206 61.7831 30.908 61.7707 30.993 61.7455C31.2343 61.6741 31.4355 61.5064 31.5492 61.2819L47.6378 29.5194C47.8568 29.0872 47.7005 28.5593 47.2816 28.3158L40.5851 24.4242L44.7448 9.89794C44.86 9.49549 44.6872 9.06612 44.3252 8.85575L33.114 2.34057C32.9731 2.25869 32.8143 2.21682 32.6545 2.21682Z" fill="#374874"/>
</g>
<defs>
<clipPath id="clip0_105_53">
<rect width="64" height="64" fill="white"/>
</clipPath>
</defs>
</svg>
