<svg width="50" height="50" xmlns="http://www.w3.org/2000/svg"><path d="M45.445 23.222A22.222 22.222 0 1 0 12.11 42.467l11.111-19.245h22.223Z" fill="var(--o-icons-yellow-pure, #FBB130)"/><path d="M45.445 23.222A22.222 22.222 0 1 0 12.11 42.467l11.111-19.245h22.223Z" fill="url(#o_icon_sale_timesheet__a)" fill-opacity=".2"/><path d="M5.313 32.53A22.223 22.223 0 1 0 37.889 7.532L26.778 26.778 5.313 32.53Z" fill="var(--o-icons-red-pure, #FC787D)"/><path d="M5.313 32.53A22.223 22.223 0 1 0 37.889 7.532L26.778 26.778 5.313 32.53Z" fill="url(#o_icon_sale_timesheet__b)" fill-opacity=".2"/><path d="M23.222 45.445c12.273 0 22.223-9.95 22.223-22.223 0-5.23-1.807-10.039-4.831-13.835a22.128 22.128 0 0 0-13.836-4.831c-12.273 0-22.222 9.949-22.222 22.222 0 5.23 1.807 10.04 4.83 13.836a22.128 22.128 0 0 0 13.836 4.83Z" fill="var(--o-icons-purple-pure, #93407D)"/><path d="M23.222 45.445c12.273 0 22.223-9.95 22.223-22.223 0-5.23-1.807-10.039-4.831-13.835a22.128 22.128 0 0 0-13.836-4.831c-12.273 0-22.222 9.949-22.222 22.222 0 5.23 1.807 10.04 4.83 13.836a22.128 22.128 0 0 0 13.836 4.83Z" fill="url(#o_icon_sale_timesheet__c)" fill-opacity=".2"/><path d="M7.718 7.302c.646-.63 1.33-1.22 2.05-1.768.227.056.445.161.638.316L26.58 18.795c1.82 1.456 1.946 4.193.297 5.84-1.649 1.647-4.388 1.521-5.845-.297L8.074 8.18a1.651 1.651 0 0 1-.356-.878Z" fill="var(--o-icons-white, #FFFFFF)"/><defs><linearGradient id="o_icon_sale_timesheet__a" x1="1" y1="1" x2="52.834" y2="14.889" gradientUnits="userSpaceOnUse"><stop stop-color="#fff"/><stop offset="1" stop-color="#fff" stop-opacity="0"/></linearGradient><linearGradient id="o_icon_sale_timesheet__b" x1="5.313" y1="7.533" x2="56.379" y2="20.983" gradientUnits="userSpaceOnUse"><stop stop-color="#fff"/><stop offset="1" stop-color="#fff" stop-opacity="0"/></linearGradient><linearGradient id="o_icon_sale_timesheet__c" x1="4.556" y1="4.556" x2="52.66" y2="16.582" gradientUnits="userSpaceOnUse"><stop stop-color="#fff"/><stop offset="1" stop-color="#fff" stop-opacity="0"/></linearGradient></defs></svg>
