<svg id="Layer_1" data-name="Layer 1" xmlns="http://www.w3.org/2000/svg" xmlns:xlink="http://www.w3.org/1999/xlink" viewBox="0 0 70 70">
  <defs>
    <mask id="mask" x="0" y="0" width="70" height="70" maskUnits="userSpaceOnUse">
      <g id="b">
        <path id="a" d="M4,0H65c4,0,5,1,5,5V65c0,4-1,5-5,5H4c-3,0-4-1-4-5V5C0,1,1,0,4,0Z" fill="#fff" fill-rule="evenodd"/>
      </g>
    </mask>
    <linearGradient id="linear-gradient" x1="-1349.79" y1="477.94" x2="-1350.79" y2="476.94" gradientTransform="matrix(70, 0, 0, -70, 94554.99, 33455.73)" gradientUnits="userSpaceOnUse">
      <stop offset="0" stop-color="#da956b"/>
      <stop offset="1" stop-color="#cc7039"/>
    </linearGradient>
  </defs>
  <g mask="url(#mask)">
    <g>
      <path d="M0,0H70V70H0Z" fill-rule="evenodd" fill="url(#linear-gradient)"/>
      <path d="M4,1H65c2.67,0,4.33.67,5,2V0H0V3C.67,1.67,2,1,4,1Z" fill="#fff" fill-opacity="0.38" fill-rule="evenodd"/>
      <path d="M45.24,69H4c-2,0-4-.15-4-4.08V35.31L13,16h3V42.5L31,28.23l1,0,8-7.15L53,35.37,41.43,47.16l6.5-5.82,4.47.4-1.85,3.08c2.55.46,3.25.81,4.78,2.79a14.92,14.92,0,0,0,3-.14L56.7,50.23l1.06,4.21Z" fill="#393939" fill-rule="evenodd" opacity="0.32" style="isolation: isolate"/>
      <path d="M4,69H65c2.67,0,4.33-1,5-3v4H0V66A3.92,3.92,0,0,0,4,69Z" fill-opacity="0.38" fill-rule="evenodd"/>
      <g>
        <g opacity="0.4">
          <path d="M21.21,46.89a1,1,0,0,0,1.49,0l7.19-8.17,4.86,5.52a1,1,0,0,0,1.36.13.74.74,0,0,0,.12-.13l9.56-10.86,5,5.13,2-17.66-16,3,5,5-6.3,7.25-4.87-5.53a1,1,0,0,0-1.48,0L18.73,42.28a1.31,1.31,0,0,0,0,1.68Z"/>
          <path d="M34.05,55.77a12.79,12.79,0,0,1,.17-2.63H13.89V19.51a1.12,1.12,0,0,0-1.05-1.19h-1.5a1.12,1.12,0,0,0-1.05,1.19v35.8a1.12,1.12,0,0,0,1.05,1.19H34.12C34.09,56.26,34.06,56,34.05,55.77Z"/>
          <path d="M49,51.15V56a.34.34,0,0,1-.1.25.33.33,0,0,1-.25.1H45.14a.33.33,0,0,1-.25-.1.34.34,0,0,1-.1-.25v-.69a.34.34,0,0,1,.35-.35h2.43V51.15a.34.34,0,0,1,.35-.35h.69a.33.33,0,0,1,.25.1A.34.34,0,0,1,49,51.15ZM53.47,55a5.85,5.85,0,0,0-2.94-5.1,5.88,5.88,0,0,0-5.92,0A5.85,5.85,0,0,0,41.67,55a5.73,5.73,0,0,0,.79,3,5.84,5.84,0,0,0,2.15,2.15,5.94,5.94,0,0,0,5.92,0,5.91,5.91,0,0,0,2.15-2.15A5.83,5.83,0,0,0,53.47,55Zm.41-5.44L55,48.7a.42.42,0,0,1,.57.08l.73,1a.4.4,0,0,1-.08.57L55,51.21a8.35,8.35,0,0,1-.23,7.93,8.26,8.26,0,0,1-7.21,4.15,8.17,8.17,0,0,1-4.18-1.11,8.26,8.26,0,0,1-3-3,8.36,8.36,0,0,1,0-8.36,8.31,8.31,0,0,1,3-3,8.11,8.11,0,0,1,3.16-1.06v-.87h-.81a.41.41,0,0,1-.41-.4V44.6a.41.41,0,0,1,.41-.4H49.8a.4.4,0,0,1,.41.4v.82a.4.4,0,0,1-.41.4H49v.93a8.19,8.19,0,0,1,2.76,1A8.31,8.31,0,0,1,53.88,49.52Z" fill-rule="evenodd"/>
        </g>
        <g>
          <path d="M23.4,44a1,1,0,0,0,1.49,0l7.19-8.17,4.86,5.52a1,1,0,0,0,1.35.13.53.53,0,0,0,.13-.13L48,30.53l5,5.13L55,18,39,21l5,5-6.3,7.25-4.87-5.53a1,1,0,0,0-1.48,0L20.92,39.42a1.31,1.31,0,0,0,0,1.68Z" fill="#fff"/>
          <path d="M36.24,52.91a12.79,12.79,0,0,1,.17-2.63H16.08V16.65a1.12,1.12,0,0,0-1-1.19h-1.5a1.12,1.12,0,0,0-1,1.19v35.8a1.12,1.12,0,0,0,1,1.19H36.31C36.28,53.4,36.25,53.16,36.24,52.91Z" fill="#fff"/>
          <path d="M51.15,48.29v4.85a.34.34,0,0,1-.1.25.33.33,0,0,1-.25.1H47.33a.32.32,0,0,1-.25-.1.3.3,0,0,1-.1-.25v-.69a.33.33,0,0,1,.1-.25.36.36,0,0,1,.25-.1h2.43V48.29a.34.34,0,0,1,.35-.35h.69a.33.33,0,0,1,.25.1A.34.34,0,0,1,51.15,48.29Zm4.51,3.81a5.86,5.86,0,0,0-.79-3A6,6,0,0,0,52.72,47a5.94,5.94,0,0,0-5.92,0,5.91,5.91,0,0,0-2.15,2.15,5.94,5.94,0,0,0,0,5.92,5.84,5.84,0,0,0,2.15,2.15,5.94,5.94,0,0,0,5.92,0,5.91,5.91,0,0,0,2.15-2.15A5.83,5.83,0,0,0,55.66,52.1Zm.41-5.44,1.08-.82a.42.42,0,0,1,.57.08l.73,1a.4.4,0,0,1-.08.57l-1.17.88A8.35,8.35,0,0,1,57,56.28a8.26,8.26,0,0,1-7.21,4.15,8.17,8.17,0,0,1-4.18-1.11,8.26,8.26,0,0,1-3-3,8.36,8.36,0,0,1,0-8.36,8.31,8.31,0,0,1,3-3,8.11,8.11,0,0,1,3.16-1.06V43h-.81a.41.41,0,0,1-.41-.41v-.81a.41.41,0,0,1,.41-.4H52a.4.4,0,0,1,.41.4v.81A.41.41,0,0,1,52,43h-.81v.93a8.19,8.19,0,0,1,2.76,1A8.31,8.31,0,0,1,56.07,46.66Z" fill="#fff" fill-rule="evenodd"/>
        </g>
      </g>
    </g>
  </g>
</svg>
