<svg width="70" height="70" viewBox="0 0 70 70" fill="none" xmlns="http://www.w3.org/2000/svg">
<g clip-path="url(#clip0_42_450)">
<path d="M8.46992 15.2L8.41992 18.65L22.9499 26.39L30.5799 34.02L42.3699 22.05L8.46992 15.2Z" fill="#C0A5BD" stroke="#875B7B" stroke-width="2" stroke-miterlimit="10"/>
<path d="M47.95 27.63L35.98 39.42L43.61 47.05L51.35 61.58L54.8 61.52L47.95 27.63Z" fill="#C0A5BD" stroke="#875B7B" stroke-width="2" stroke-miterlimit="10"/>
<path d="M27.0899 49.7L28.6599 61.79L25.3899 63.28L19.6599 53.73" fill="white"/>
<path d="M27.0899 49.7L28.6599 61.79L25.3899 63.28L19.6599 53.73" stroke="#875B7B" stroke-width="2" stroke-miterlimit="10"/>
<path d="M20.3 42.91L8.20997 41.34L6.71997 44.61L16.27 50.34" fill="white"/>
<path d="M20.3 42.91L8.20997 41.34L6.71997 44.61L16.27 50.34" stroke="#875B7B" stroke-width="2" stroke-miterlimit="10"/>
<path d="M62.7301 7.27001C60.8701 5.40001 54.4201 8.79001 52.5501 10.66L22.3301 40.88C20.3301 42.88 11.5001 54.47 13.5101 56.49C15.5201 58.51 27.1001 49.69 29.1201 47.67L59.3401 17.45C61.2101 15.58 64.6001 9.13001 62.7301 7.27001Z" fill="white" stroke="#875B7B" stroke-width="2" stroke-miterlimit="10"/>
</g>
<defs>
<clipPath id="clip0_42_450">
<rect width="70" height="70" fill="white"/>
</clipPath>
</defs>
</svg>
