<svg width="232" height="137" viewBox="0 0 232 137" fill="none" xmlns="http://www.w3.org/2000/svg">
<path d="M10 2.5H222C226.142 2.5 229.5 5.85786 229.5 10V127C229.5 131.142 226.142 134.5 222 134.5H10C5.85787 134.5 2.5 131.142 2.5 127V10C2.5 5.85786 5.85786 2.5 10 2.5Z" fill="#714B67" fill-opacity="0.75" stroke="#714B67" stroke-width="5"/>
<mask id="path-3-inside-1_11_84" fill="white">
<rect x="129" width="17.7895" height="26" rx="4" transform="rotate(90 129 0)"/>
</mask>
<rect x="129" width="17.7895" height="26" rx="4" transform="rotate(90 129 0)" fill="#303030" stroke="#373737" stroke-width="12" mask="url(#path-3-inside-1_11_84)"/>
<circle cx="118.053" cy="9.12278" r="2.10526" transform="rotate(90 118.053 9.12278)" fill="#F58787" stroke="#232323" stroke-width="4"/>
<circle cx="118.053" cy="9.12282" r="1.36842" transform="rotate(90 118.053 9.12282)" fill="#454545"/>
<rect x="110.754" y="7.29822" width="3.64912" height="0.912281" rx="0.45614" transform="rotate(90 110.754 7.29822)" fill="#57E888"/>
<rect x="50" y="31" width="132" height="75" rx="7" fill="white"/>
<path d="M96.9254 83H96V99H96.9254V83Z" fill="black"/>
<path d="M97.8507 83H97.3881V99H97.8507V83Z" fill="black"/>
<path d="M100.164 83H98.7761V99H100.164V83Z" fill="black"/>
<path d="M102.015 83H101.09V99H102.015V83Z" fill="black"/>
<path d="M103.866 83H103.403V99H103.866V83Z" fill="black"/>
<path d="M105.254 83H104.791V99H105.254V83Z" fill="black"/>
<path d="M107.104 83H106.179V99H107.104V83Z" fill="black"/>
<path d="M108.955 83H108.493V99H108.955V83Z" fill="black"/>
<path d="M110.343 83H109.881V99H110.343V83Z" fill="black"/>
<path d="M112.194 83H111.269V99H112.194V83Z" fill="black"/>
<path d="M114.045 83H113.582V99H114.045V83Z" fill="black"/>
<path d="M115.433 83H114.97V99H115.433V83Z" fill="black"/>
<path d="M117.284 83H116.358V99H117.284V83Z" fill="black"/>
<path d="M119.134 83H118.672V99H119.134V83Z" fill="black"/>
<path d="M120.522 83H120.06V99H120.522V83Z" fill="black"/>
<path d="M122.373 83H121.448V99H122.373V83Z" fill="black"/>
<path d="M124.687 83H123.299V99H124.687V83Z" fill="black"/>
<path d="M125.612 83H125.149V99H125.612V83Z" fill="black"/>
<path d="M127.463 83H126.537V99H127.463V83Z" fill="black"/>
<path d="M129.313 83H127.925V99H129.313V83Z" fill="black"/>
<path d="M130.701 83H130.239V99H130.701V83Z" fill="black"/>
<path d="M132.552 83H131.627V99H132.552V83Z" fill="black"/>
<path d="M134.403 83H133.94V99H134.403V83Z" fill="black"/>
<path d="M135.791 83H135.328V99H135.791V83Z" fill="black"/>
<path d="M137.642 83H136.716V99H137.642V83Z" fill="black"/>
<path d="M139.493 83H139.03V99H139.493V83Z" fill="black"/>
<path d="M140.881 83H140.418V99H140.881V83Z" fill="black"/>
<path d="M142.731 83H141.806V99H142.731V83Z" fill="black"/>
<path d="M144.582 83H144.119V99H144.582V83Z" fill="black"/>
<path d="M145.97 83H145.507V99H145.97V83Z" fill="black"/>
<path d="M148.746 83H146.896V99H148.746V83Z" fill="black"/>
<path d="M149.672 83H149.209V99H149.672V83Z" fill="black"/>
<path d="M150.597 83H150.134V99H150.597V83Z" fill="black"/>
<path d="M152.91 83H151.985V99H152.91V83Z" fill="black"/>
<path d="M155.687 83H154.299V99H155.687V83Z" fill="black"/>
<path d="M156.612 83H156.149V99H156.612V83Z" fill="black"/>
<path d="M158 83H157.075V99H158V83Z" fill="black"/>
<path d="M50 38C50 34.134 53.134 31 57 31H88V106H57C53.134 106 50 102.866 50 99V38Z" fill="#714B67"/>
<rect x="96" y="41" width="41" height="10" rx="5" fill="#714B67" fill-opacity="0.6"/>
<rect x="96" y="60" width="20" height="5" rx="2.5" fill="#714B67" fill-opacity="0.2"/>
<rect x="118" y="60" width="32" height="5" rx="2.5" fill="#714B67" fill-opacity="0.2"/>
<rect x="96" y="69" width="25" height="5" rx="2.5" fill="#714B67" fill-opacity="0.2"/>
<rect x="126" y="69" width="16" height="5" rx="2.5" fill="#714B67" fill-opacity="0.2"/>
<rect x="147" y="69" width="25" height="5" rx="2.5" fill="#714B67" fill-opacity="0.2"/>
<path d="M69 40C70.4896 40 71.9137 40.2906 73.2723 40.8717C74.631 41.4528 75.8013 42.2344 76.7835 43.2165C77.7656 44.1987 78.5472 45.369 79.1283 46.7277C79.7094 48.0863 80 49.5104 80 51C80 52.4814 79.7115 53.9014 79.1345 55.26C78.5575 56.6187 77.7779 57.7891 76.7958 58.7712C75.8136 59.7533 74.6432 60.537 73.2846 61.1222C71.926 61.7074 70.4978 62 69 62C67.5022 62 66.074 61.7094 64.7154 61.1283C63.3568 60.5472 62.1884 59.7636 61.2104 58.7773C60.2323 57.7911 59.4528 56.6207 58.8717 55.2662C58.2906 53.9116 58 52.4896 58 51C58 49.5104 58.2906 48.0863 58.8717 46.7277C59.4528 45.369 60.2344 44.1987 61.2165 43.2165C62.1987 42.2344 63.369 41.4528 64.7277 40.8717C66.0863 40.2906 67.5104 40 69 40ZM76.5993 56.5859C77.8188 54.9081 78.4286 53.0461 78.4286 51C78.4286 49.7232 78.1789 48.5037 77.6797 47.3415C77.1804 46.1793 76.5093 45.1767 75.6663 44.3337C74.8233 43.4907 73.8207 42.8196 72.6585 42.3203C71.4963 41.8211 70.2768 41.5714 69 41.5714C67.7232 41.5714 66.5037 41.8211 65.3415 42.3203C64.1793 42.8196 63.1767 43.4907 62.3337 44.3337C61.4907 45.1767 60.8196 46.1793 60.3203 47.3415C59.8211 48.5037 59.5714 49.7232 59.5714 51C59.5714 53.0461 60.1812 54.9081 61.4007 56.5859C61.9408 53.9096 63.1931 52.5714 65.1574 52.5714C66.2295 53.619 67.5104 54.1429 69 54.1429C70.4896 54.1429 71.7705 53.619 72.8426 52.5714C74.8069 52.5714 76.0592 53.9096 76.5993 56.5859ZM73.7143 48.6429C73.7143 47.3415 73.2539 46.2305 72.3331 45.3097C71.4124 44.389 70.3013 43.9286 69 43.9286C67.6987 43.9286 66.5876 44.389 65.6669 45.3097C64.7461 46.2305 64.2857 47.3415 64.2857 48.6429C64.2857 49.9442 64.7461 51.0552 65.6669 51.976C66.5876 52.8968 67.6987 53.3571 69 53.3571C70.3013 53.3571 71.4124 52.8968 72.3331 51.976C73.2539 51.0552 73.7143 49.9442 73.7143 48.6429Z" fill="white"/>
</svg>
