<svg width="232" height="137" viewBox="0 0 232 137" fill="none" xmlns="http://www.w3.org/2000/svg">
<path d="M10 2.5H222C226.142 2.5 229.5 5.85786 229.5 10V127C229.5 131.142 226.142 134.5 222 134.5H10C5.85787 134.5 2.5 131.142 2.5 127V10C2.5 5.85786 5.85786 2.5 10 2.5Z" fill="#714B67" fill-opacity="0.75" stroke="#714B67" stroke-width="5"/>
<g clip-path="url(#clip0_11_116)">
<rect x="14" y="51" width="204" height="35" rx="4" fill="white"/>
<rect x="24" y="55.5" width="26" height="26" rx="4" fill="#D9CFD7"/>
<rect x="60" y="58.5" width="43" height="7" rx="3.5" fill="#714B67" fill-opacity="0.2"/>
<rect x="107" y="58.5" width="88" height="7" rx="3.5" fill="#714B67" fill-opacity="0.2"/>
<rect x="60" y="71.5" width="52" height="7" rx="3.5" fill="#714B67" fill-opacity="0.2"/>
<rect x="122" y="71.5" width="35" height="7" rx="3.5" fill="#714B67" fill-opacity="0.2"/>
</g>
<g clip-path="url(#clip1_11_116)">
<rect x="14" y="90" width="204" height="35" rx="4" fill="white"/>
<rect x="24" y="94.5" width="26" height="26" rx="4" fill="#714B67" fill-opacity="0.75"/>
<rect x="60" y="97.5" width="43" height="7" rx="3.5" fill="#714B67" fill-opacity="0.2"/>
<rect x="107" y="97.5" width="88" height="7" rx="3.5" fill="#714B67" fill-opacity="0.2"/>
<rect x="60" y="110.5" width="52" height="7" rx="3.5" fill="#714B67" fill-opacity="0.2"/>
<rect x="122" y="110.5" width="35" height="7" rx="3.5" fill="#714B67" fill-opacity="0.2"/>
</g>
<g clip-path="url(#clip2_11_116)">
<rect x="14" y="12" width="204" height="35" rx="4" fill="white"/>
<rect x="24" y="16.5" width="26" height="26" rx="4" fill="#714B67" fill-opacity="0.6"/>
<rect x="60" y="19.5" width="43" height="7" rx="3.5" fill="#714B67" fill-opacity="0.2"/>
<rect x="107" y="19.5" width="88" height="7" rx="3.5" fill="#714B67" fill-opacity="0.2"/>
<rect x="60" y="32.5" width="52" height="7" rx="3.5" fill="#714B67" fill-opacity="0.2"/>
<rect x="122" y="32.5" width="35" height="7" rx="3.5" fill="#714B67" fill-opacity="0.2"/>
</g>
<defs>
<clipPath id="clip0_11_116">
<rect x="14" y="51" width="204" height="35" rx="4" fill="white"/>
</clipPath>
<clipPath id="clip1_11_116">
<rect x="14" y="90" width="204" height="35" rx="4" fill="white"/>
</clipPath>
<clipPath id="clip2_11_116">
<rect x="14" y="12" width="204" height="35" rx="4" fill="white"/>
</clipPath>
</defs>
</svg>
