<?xml version="1.0" encoding="UTF-8"?>
<svg id="Layer_1" data-name="Layer 1" xmlns="http://www.w3.org/2000/svg" version="1.1" viewBox="0 0 1920 1080">
  <defs>
    <style>
      .cls-1 {
        fill: #004eff;
        stroke-width: 0px;
      }
    </style>
  </defs>
  <path class="cls-1" d="M366.9,589.4c8.2-39.9,43.9-65.1,90.8-70l61.9-6.1.5-2.4c3.8-18.7-6.7-24.8-24.6-24.8s-32.2,8.1-36,20.8h-70.8c11.4-47.6,56.1-79.4,122.1-79.4s96.3,28.5,83.9,89.1l-27.2,133.1h-65.1l2.3-29.3c-15.5,19.9-46.7,33.4-78.5,33.4s-67.2-25.6-59.3-64.3M509.5,562.6l.8-4.1-42.3,4.1c-15,1.6-22.6,9-24.3,17.5-2.2,10.6,2.8,17.9,17.5,17.9,22.8,0,43.4-15.1,48.4-35.4"/>
  <path class="cls-1" d="M869.3,431.5l-42.9,209.6c-12.2,59.8-60.8,94-134,94s-100.2-31.3-92-81.4h74.5c-.8,15.9,10.2,23.6,29.8,23.6s41.4-11.4,45.4-30.9l6.3-30.9c-17.8,13.4-39.1,19.9-63.1,19.9-59.8,0-77.1-37-65.8-92.4l22.8-111.5h75.3l-21.6,105.4c-5.2,25.2,5.9,36.6,26.3,36.6s37.6-14.7,42.2-37l21.5-105h75.3Z"/>
  <path class="cls-1" d="M1233,508l-22.2,108.3c-4,19.4-21,33.3-40.8,33.3h-41.7l26.9-131.5c4-19.5-5.1-28.9-21.4-28.9s-31.1,12.6-34.9,31.3l-26.4,129h-74.5l26.8-131.1c4.1-19.9-5-29.3-21.3-29.3s-30.7,12.6-34.5,31.3l-26.4,129h-75.7l44.6-218.2h66.3l-.2,22.8c16.5-17.1,38.9-26.9,63.7-26.9s47.8,13,54,32.6c19-21.2,46.1-32.6,76.3-32.6,50.5,0,71.1,32.6,61.3,80.6"/>
  <path class="cls-1" d="M1404.2,427.4c74.9,0,113.3,45.2,99.4,113.2-13.7,67.2-70.7,112.7-145.6,112.7s-113.6-45.6-99.9-112.7c13.9-68,71.2-113.2,146.1-113.2M1370.9,589.8c30.1,0,50.1-19.9,56.2-49.7,6.7-32.6-7.8-49.2-34.7-49.2s-51.6,19.5-57.9,50.1c-6.5,31.7,8.7,48.8,36.4,48.8"/>
  <polygon class="cls-1" points="1818 433 1818 430.1 1835.5 430.1 1835.5 433 1828.5 433 1828.5 452.7 1825.1 452.7 1825.1 433 1818 433"/>
  <polygon class="cls-1" points="1839.4 430.1 1843.5 430.1 1850.7 447.6 1851 447.6 1858.2 430.1 1862.4 430.1 1862.4 452.7 1859.1 452.7 1859.1 436.3 1858.9 436.3 1852.2 452.6 1849.5 452.6 1842.9 436.3 1842.7 436.3 1842.7 452.7 1839.4 452.7 1839.4 430.1"/>
  <path class="cls-1" d="M266.1,427.4c-33.4,0-64.1,11-84.6,29.3l.3-25.2h-62.9l-24.7,113.2c-5.9,31.5,15.5,35.3,26.4,36.3l-.4.7c-11,1.3-34.7,7.8-40.3,34.2l-12.5,63.7c-.8,4-9.7,51.4-9.7,51.4h37.9c20.4,0,38.1-14.4,42.2-34.4l13.2-64.5c13.8,14.2,36.7,21.6,62.3,21.6,69.6,0,124.6-46,138.5-114,13.8-67.6-20.2-112.3-85.7-112.3M275.3,541.4c-6.1,29.7-31.6,50.9-62.9,50.9s-49.2-19.9-42.9-50.9l.7-3.7c5.7-27.7,29.9-48.8,62.5-48.8s49,21.2,42.6,52.5"/>
  <path class="cls-1" d="M1709.4,427.9c-31.7,0-61.5,10.2-80,26.9l22.5-109.9h-75.7l-17.3,89.2c-7.2,37.1,17.7,41.5,30.3,42.7l-.4.8c-12.9,1.6-40.5,9.2-47.3,40.3l-27.7,132.3h65.5l10.5-25.2c10.9,18.3,35.9,29.3,68.9,29.3,68,0,121.2-45.2,135.2-113.6,13.8-67.6-19.7-112.7-84.4-112.7M1717.7,540.6c-6.2,30.1-32.2,52.1-63.6,52.1s-48.6-21.2-42.9-48.8l.8-3.7c6.1-29.7,30.3-50.9,63.7-50.9s48.3,20.4,42,51.3"/>
</svg>