<svg width="51" height="50" viewBox="0 0 51 50" fill="none" xmlns="http://www.w3.org/2000/svg">
<path d="M16.6557 14.9731C15.937 13.3667 14.6326 12.4819 12.9824 12.4819H12.683C11.0359 12.4819 9.68477 13.3898 8.9749 14.9759L0.862891 33.2947C0.680762 33.6959 0.495117 34.1777 0.495117 34.7126C0.495117 36.4938 1.87568 37.8889 3.63828 37.8889C5.00488 37.8889 6.15576 37.1161 6.71865 35.8173L8.1457 32.4687H17.3547L18.7171 35.6576C19.3463 37.0965 20.4745 37.8889 21.8943 37.8889C23.6942 37.8889 25.1041 36.4645 25.1041 34.6461C25.1041 34.2267 24.9974 33.7964 24.7709 33.2985L16.6557 14.9731ZM21.8942 36.3247C21.1013 36.3247 20.5309 35.9015 20.1527 35.0369L18.5899 31.3794C18.4669 31.0914 18.1839 30.9046 17.8709 30.9046H7.62871C7.31523 30.9046 7.03203 31.0917 6.90928 31.3801L5.28164 35.1997C4.96719 35.9253 4.38359 36.3247 3.63828 36.3247C2.75293 36.3247 2.05928 35.6166 2.05928 34.7126C2.05928 34.4735 2.18174 34.1735 2.28838 33.9388C2.28945 33.9365 2.29043 33.9342 2.29141 33.9319L10.4039 15.6122C10.7236 14.8979 11.3788 14.0462 12.6832 14.0462H12.9826C14.0077 14.0462 14.7632 14.5729 15.2268 15.6093L23.3438 33.9388C23.4776 34.2331 23.5399 34.4578 23.5399 34.6462C23.5399 35.5873 22.817 36.3247 21.8942 36.3247Z" fill="#0480E0"/>
<path d="M13.4705 19.18C13.3487 18.8895 13.0644 18.7007 12.7494 18.7007C12.4345 18.7007 12.1503 18.8895 12.0283 19.18L8.80276 26.8616C8.70129 27.103 8.72746 27.3792 8.87248 27.5974C9.01741 27.8154 9.26184 27.9465 9.52375 27.9465H15.975C16.2369 27.9465 16.4814 27.8154 16.6263 27.5973C16.7713 27.3792 16.7975 27.103 16.696 26.8616L13.4705 19.18ZM10.7005 26.3823L12.7494 21.5027L14.7986 26.3823H10.7005Z" fill="#0480E0"/>
<path d="M38.6809 29.0143C37.6511 28.539 36.3891 28.2773 35.1276 28.2773C33.8777 28.2773 32.8682 28.5363 32.1273 29.0475C31.2944 29.6219 30.854 30.477 30.854 31.5201V31.5866C30.854 33.3472 32.2774 34.5302 34.3961 34.5302C37.1864 34.5302 39.1352 32.9231 39.1352 30.6223V29.7244C39.1352 29.4193 38.9578 29.1421 38.6809 29.0143ZM37.571 30.6222C37.571 32.024 36.2951 32.9659 34.396 32.9659C32.5606 32.9659 32.418 31.9102 32.418 31.5864V31.5199C32.418 30.0595 34.1155 29.8413 35.1274 29.8413C35.9847 29.8413 36.8346 29.9845 37.5709 30.2489V30.6222H37.571Z" fill="#0480E0"/>
<path d="M50.4949 11.3591V9.79492H43.5625V11.3591H46.2467V38.6407H43.5625V40.2049H50.4949V38.6407H47.8107V11.3591H50.4949Z" fill="#0480E0"/>
<path d="M43.9241 26.5657H43.9239C43.9239 23.8573 43.1979 21.758 41.7663 20.3263C40.2905 18.8504 38.0793 18.1021 35.1944 18.1021C32.8808 18.1021 31.0424 18.4046 29.2332 19.083C28.1145 19.5026 27.3627 20.5854 27.3627 21.7772C27.3627 23.3718 28.6262 24.6208 30.2393 24.6208C30.5641 24.6208 30.8459 24.5714 31.2103 24.4505C32.2131 24.1399 33.2771 23.9891 34.4627 23.9891C35.5956 23.9891 37.0525 24.1823 37.4186 25.683C36.491 25.4398 35.3666 25.2515 33.9306 25.2515C31.571 25.2515 29.6737 25.7686 28.2914 26.7884C26.77 27.9106 25.9658 29.6159 25.9658 31.7197V31.7862C25.9658 33.6959 26.6857 35.3037 28.0478 36.4361C29.2774 37.4587 30.989 38.0218 32.8667 38.0218C34.8277 38.0218 36.5048 37.4794 37.8696 36.4066C38.3776 37.249 39.3526 37.8888 40.6812 37.8888C42.4996 37.8888 43.9241 36.4789 43.9241 34.6792V26.5657ZM40.6811 36.325C39.8898 36.325 39.0358 35.8231 39.0358 35.0122V34.979C39.0358 34.6555 38.8365 34.3651 38.5344 34.2491C38.2322 34.1328 37.8899 34.215 37.673 34.4552C36.4567 35.803 34.8845 36.4582 32.8666 36.4582C28.9275 36.4582 27.5298 33.9417 27.5298 31.7868V31.7203C27.5298 27.4532 31.54 26.8161 33.9304 26.8161C35.7655 26.8161 36.987 27.1475 38.0337 27.5056C38.2727 27.5873 38.5362 27.5486 38.7416 27.4019C38.947 27.2551 39.0689 27.0182 39.0689 26.7655V26.4662C39.0689 23.8982 37.3899 22.4253 34.4626 22.4253C33.1145 22.4253 31.8965 22.6 30.7392 22.9593C30.7339 22.9609 30.7286 22.9626 30.7235 22.9643C30.4901 23.0422 30.3733 23.0568 30.2392 23.0568C29.5032 23.0568 28.9268 22.4948 28.9268 21.7773C28.9268 21.2338 29.2707 20.7395 29.7822 20.5476C31.4077 19.9381 33.0768 19.6663 35.1942 19.6663C37.6493 19.6663 39.4883 20.2604 40.6602 21.4324C41.7879 22.5602 42.3598 24.2873 42.3598 26.5658V34.6795H42.3599C42.3598 35.6022 41.6225 36.325 40.6811 36.325Z" fill="#0480E0"/>
</svg>
