<?xml version="1.0" encoding="utf-8"?>
<!-- Generator: Adobe Illustrator 23.0.4, SVG Export Plug-In . SVG Version: 6.00 Build 0)  -->
<svg version="1.1" id="Layer_1" xmlns="http://www.w3.org/2000/svg" xmlns:xlink="http://www.w3.org/1999/xlink" x="0px" y="0px"
	 viewBox="0 0 1607.1 1034.4" style="enable-background:new 0 0 1607.1 1034.4;" xml:space="preserve">
<style type="text/css">
	.st0{fill:#437E97;}
	.st1{opacity:0.5;fill:#FFFFFF;enable-background:new    ;}
	.st2{opacity:0.6;}
	.st3{opacity:0.29;fill:#FFFFFF;enable-background:new    ;}
	.st4{fill:#FFFFFF;}
	.st5{fill:#084C64;}
	.st6{fill:#003A4B;}
	.st7{opacity:0.29;fill:#003A4B;enable-background:new    ;}
	.st8{opacity:0.52;}
	.st9{opacity:0.33;fill:#FFFFFF;enable-background:new    ;}
	.st10{opacity:0.4;fill:#FFFFFF;enable-background:new    ;}
</style>
<title>Asset 1city-cut</title>
<g>
	<rect x="604.6" y="395.2" class="st0" width="40" height="159.3"/>
	<rect x="611.2" y="383.8" class="st0" width="27" height="67"/>
	<rect x="617.2" y="376.5" class="st0" width="15" height="37.1"/>
	<polygon class="st0" points="629.7,395.6 619.6,395.6 619.6,370.3 623.2,370.3 626.9,370.3 629.7,370.3 	"/>
	<polygon class="st0" points="624,384.6 622.9,384.6 622.9,359.3 623.3,359.3 623.7,359.3 624,359.3 	"/>
	<polygon class="st0" points="626.4,375.9 625.3,375.9 625.3,350.5 625.7,350.5 626.1,350.5 626.4,350.5 	"/>
	<rect x="603.6" y="394.8" class="st0" width="42.2" height="1.7"/>
	<rect x="610.2" y="383" class="st0" width="28.9" height="1.6"/>
	<rect x="616.1" y="375.9" class="st0" width="16.7" height="1.2"/>
	<rect x="488.4" y="401.3" class="st0" width="64.4" height="134.2"/>
	<rect x="486.5" y="399" class="st0" width="68" height="3.8"/>
	<rect x="490.5" y="394.1" class="st0" width="60" height="18"/>
	<rect x="495.1" y="386.7" class="st0" width="23.8" height="19.7"/>
	<polygon class="st0" points="508.9,392.3 495.1,392.3 495.1,381.9 505,381.9 	"/>
	<rect x="500.7" y="373.3" class="st0" width="1.3" height="23.1"/>
	<path class="st0" d="M502.5,372.1c0,0.7-0.5,1.2-1.2,1.2s-1.2-0.5-1.2-1.2s0.5-1.2,1.2-1.2l0,0C502,370.9,502.5,371.4,502.5,372.1z
		"/>
	<polygon class="st0" points="989.2,545.7 941,545.7 941.1,421.4 989.2,421.8 	"/>
	<polygon class="st0" points="758.3,472.6 758.3,430.3 751.4,430.3 751.4,419 748.9,419 748.9,402.4 735.3,402.4 735.3,390.2 
		734,390.2 734,402.4 731.4,402.4 731.4,387.1 730.2,387.1 730.2,402.4 721.5,402.4 721.5,430.3 717.1,430.3 717.1,472.6 
		713.3,472.6 713.3,549.6 761,549.6 761,472.6 	"/>
	<rect x="724" y="405.5" class="st1" width="1.9" height="5.2"/>
	<rect x="728.7" y="405.5" class="st1" width="1.9" height="5.2"/>
	<rect x="733.3" y="405.5" class="st1" width="1.9" height="5.2"/>
	<rect x="738" y="405.5" class="st1" width="1.9" height="5.2"/>
	<rect x="724" y="414.1" class="st1" width="1.9" height="5.2"/>
	<rect x="728.7" y="414.1" class="st1" width="1.9" height="5.2"/>
	<rect x="733.3" y="414.1" class="st1" width="1.9" height="5.2"/>
	<rect x="738" y="414.1" class="st1" width="1.9" height="5.2"/>
	<rect x="724" y="422.7" class="st1" width="1.9" height="5.2"/>
	<rect x="728.7" y="422.7" class="st1" width="1.9" height="5.2"/>
	<rect x="743.3" y="405.5" class="st1" width="1.9" height="5.2"/>
	<rect x="398.4" y="543.3" class="st0" width="841.6" height="20"/>
	<rect x="980.1" y="427.2" class="st1" width="2.5" height="6.7"/>
	<rect x="973.8" y="427.2" class="st1" width="2.5" height="6.7"/>
	<rect x="967.6" y="427.2" class="st1" width="2.5" height="6.7"/>
	<rect x="961.4" y="427.2" class="st1" width="2.5" height="6.7"/>
	<rect x="980.1" y="438.4" class="st1" width="2.5" height="6.7"/>
	<rect x="973.8" y="438.4" class="st1" width="2.5" height="6.7"/>
	<rect x="967.6" y="438.4" class="st1" width="2.5" height="6.7"/>
	<rect x="961.4" y="438.4" class="st1" width="2.5" height="6.7"/>
	<rect x="980.1" y="449.6" class="st1" width="2.5" height="6.7"/>
	<rect x="973.8" y="449.6" class="st1" width="2.5" height="6.7"/>
	<rect x="954.3" y="427.2" class="st1" width="2.5" height="6.7"/>
	<g class="st2">
		<rect x="613.6" y="386.5" class="st3" width="1.2" height="7"/>
		<rect x="617.1" y="386.5" class="st3" width="1.2" height="7"/>
		<rect x="620.6" y="386.5" class="st3" width="1.2" height="7"/>
		<rect x="624" y="386.5" class="st3" width="1.2" height="7"/>
		<rect x="627.5" y="386.5" class="st3" width="1.2" height="7"/>
		<rect x="631" y="386.5" class="st3" width="1.2" height="7"/>
		<rect x="634.4" y="386.5" class="st3" width="1.2" height="7"/>
		<rect x="608.1" y="401.6" class="st4" width="3" height="8.3"/>
		<rect x="614.1" y="401.6" class="st3" width="3" height="8.3"/>
		<rect x="620.1" y="401.6" class="st4" width="3" height="8.3"/>
		<rect x="626.1" y="401.6" class="st4" width="3" height="8.3"/>
		<rect x="632.1" y="401.6" class="st4" width="3" height="8.3"/>
		<rect x="638.1" y="401.6" class="st4" width="3" height="8.3"/>
		<rect x="608.1" y="414.5" class="st4" width="3" height="8.3"/>
		<rect x="614.1" y="414.5" class="st4" width="3" height="8.3"/>
		<rect x="620.1" y="414.5" class="st4" width="3" height="8.3"/>
		<rect x="626.1" y="414.5" class="st3" width="3" height="8.3"/>
		<rect x="632.1" y="414.5" class="st4" width="3" height="8.3"/>
		<rect x="638.1" y="414.5" class="st4" width="3" height="8.3"/>
		<rect x="608.1" y="427.5" class="st4" width="3" height="8.3"/>
		<rect x="614.1" y="427.5" class="st4" width="3" height="8.3"/>
		<rect x="620.1" y="427.5" class="st4" width="3" height="8.3"/>
		<rect x="626.1" y="427.5" class="st4" width="3" height="8.3"/>
		<rect x="632.1" y="427.5" class="st3" width="3" height="8.3"/>
		<rect x="638.1" y="427.5" class="st3" width="3" height="8.3"/>
		<rect x="608.1" y="440.5" class="st3" width="3" height="8.3"/>
		<rect x="614.1" y="440.5" class="st4" width="3" height="8.3"/>
		<rect x="620.1" y="440.5" class="st4" width="3" height="8.3"/>
		<rect x="626.1" y="440.5" class="st4" width="3" height="8.3"/>
		<rect x="632.1" y="440.5" class="st4" width="3" height="8.3"/>
		<rect x="638.1" y="440.5" class="st4" width="3" height="8.3"/>
		<rect x="608.1" y="453.5" class="st4" width="3" height="8.3"/>
		<rect x="614.1" y="453.5" class="st3" width="3" height="8.3"/>
		<rect x="620.1" y="453.5" class="st4" width="3" height="8.3"/>
		<rect x="626.1" y="453.5" class="st3" width="3" height="8.3"/>
		<rect x="632.1" y="453.5" class="st4" width="3" height="8.3"/>
		<rect x="638.1" y="453.5" class="st4" width="3" height="8.3"/>
		<rect x="608.1" y="466.4" class="st4" width="3" height="8.3"/>
		<rect x="614.1" y="466.4" class="st4" width="3" height="8.3"/>
		<rect x="620.1" y="466.4" class="st4" width="3" height="8.3"/>
		<rect x="626.1" y="466.4" class="st4" width="3" height="8.3"/>
		<rect x="632.1" y="466.4" class="st4" width="3" height="8.3"/>
		<rect x="638.1" y="466.4" class="st3" width="3" height="8.3"/>
		<rect x="608.1" y="479.4" class="st4" width="3" height="8.3"/>
		<rect x="614.1" y="479.4" class="st3" width="3" height="8.3"/>
		<rect x="620.1" y="479.4" class="st3" width="3" height="8.3"/>
		<rect x="626.1" y="479.4" class="st4" width="3" height="8.3"/>
		<rect x="632.1" y="479.4" class="st4" width="3" height="8.3"/>
		<rect x="638.1" y="479.4" class="st4" width="3" height="8.3"/>
		<rect x="608.1" y="492.4" class="st4" width="3" height="8.3"/>
		<rect x="614.1" y="492.4" class="st4" width="3" height="8.3"/>
		<rect x="620.1" y="492.4" class="st4" width="3" height="8.3"/>
		<rect x="626.1" y="492.4" class="st4" width="3" height="8.3"/>
		<rect x="632.1" y="492.4" class="st3" width="3" height="8.3"/>
		<rect x="638.1" y="492.4" class="st4" width="3" height="8.3"/>
		<rect x="608.1" y="505.4" class="st4" width="3" height="8.3"/>
		<rect x="614.1" y="505.4" class="st3" width="3" height="8.3"/>
		<rect x="620.1" y="505.4" class="st4" width="3" height="8.3"/>
		<rect x="626.1" y="505.4" class="st4" width="3" height="8.3"/>
		<rect x="632.1" y="505.4" class="st4" width="3" height="8.3"/>
		<rect x="638.1" y="505.4" class="st4" width="3" height="8.3"/>
		<rect x="608.1" y="518.3" class="st4" width="3" height="8.3"/>
		<rect x="614.1" y="518.3" class="st4" width="3" height="8.3"/>
		<rect x="620.1" y="518.3" class="st4" width="3" height="8.3"/>
		<rect x="626.1" y="518.3" class="st3" width="3" height="8.3"/>
		<rect x="632.1" y="518.3" class="st4" width="3" height="8.3"/>
		<rect x="638.1" y="518.3" class="st3" width="3" height="8.3"/>
		<rect x="608.1" y="531.3" class="st3" width="3" height="8.3"/>
		<rect x="614.1" y="531.3" class="st4" width="3" height="8.3"/>
		<rect x="620.1" y="531.3" class="st3" width="3" height="8.3"/>
		<rect x="626.1" y="531.3" class="st4" width="3" height="8.3"/>
		<rect x="632.1" y="531.3" class="st4" width="3" height="8.3"/>
		<rect x="638.1" y="531.3" class="st4" width="3" height="8.3"/>
	</g>
	<rect x="368.3" y="561.3" class="st5" width="883.6" height="31.6"/>
	<polygon class="st5" points="863.3,420.3 863.3,387.2 851.3,387.2 851.3,374.6 844.9,374.6 844.9,364.1 842.7,364.1 842.7,345.9 
		842.1,345.9 842.1,364.1 839.8,364.1 839.8,374.6 833.4,374.6 833.4,387.2 821.6,387.2 821.6,420.3 819.1,420.3 819.1,480.3 
		800.7,480.3 800.7,548.8 819.1,548.8 837.5,548.8 865.7,548.8 865.7,420.3 	"/>
	<polygon class="st5" points="932,458.3 874.1,458.3 874.1,459.3 876.7,459.3 876.7,557.3 929.4,557.3 929.4,459.3 932,459.3 	"/>
	<rect x="616.6" y="482.7" class="st5" width="51.4" height="81.6"/>
	<rect x="520.6" y="524.5" class="st5" width="88.3" height="39.8"/>
	<rect x="567.9" y="435.6" class="st5" width="19.4" height="97.7"/>
	<rect x="572.2" y="409.5" class="st5" width="1" height="53.1"/>
	<rect x="575.4" y="413.5" class="st5" width="1" height="53.1"/>
	<rect x="569.4" y="429.5" class="st5" width="11.9" height="13.1"/>
	<rect x="605.4" y="497.3" class="st5" width="33.7" height="67"/>
	<rect x="676.3" y="426.4" class="st5" width="63.3" height="137.9"/>
	<rect x="682.5" y="421.7" class="st5" width="50.9" height="23"/>
	<rect x="671.4" y="429.3" class="st5" width="73.1" height="1.6"/>
	<rect x="664.8" y="494.6" class="st5" width="29.8" height="69.6"/>
	<rect x="451.1" y="492" class="st5" width="34.2" height="72.3"/>
	<rect x="462.1" y="472.3" class="st5" width="68.2" height="91.9"/>
	<rect x="458.2" y="468.8" class="st5" width="74" height="3.5"/>
	<rect x="465.2" y="459.2" class="st5" width="30" height="18.6"/>
	<rect x="504.9" y="459.2" class="st5" width="5" height="11.3"/>
	<rect x="515" y="459.2" class="st5" width="5.5" height="11.3"/>
	<rect x="432.4" y="536.3" class="st5" width="35.8" height="27.9"/>
	<rect x="418.9" y="524.5" class="st5" width="16.9" height="39.8"/>
	<rect x="398.4" y="550.3" class="st5" width="28.9" height="14"/>
	<rect x="733.4" y="533.3" class="st5" width="356.5" height="31"/>
	<rect x="1071.8" y="483.6" class="st5" width="55.1" height="80.7"/>
	<rect x="1118.8" y="514.9" class="st5" width="55.1" height="48.8"/>
	<rect x="905.3" y="507.8" class="st5" width="30.9" height="41"/>
	<rect x="1099.3" y="406.9" class="st5" width="38.9" height="157.4"/>
	<polygon class="st5" points="1202.4,564.2 1151,564.2 1151,472.3 1190,472.3 	"/>
	<rect x="1179.9" y="543.3" class="st5" width="45" height="21"/>
	<rect x="1128.2" y="374" class="st5" width="1.3" height="42.8"/>
	<rect x="1132.7" y="383.2" class="st5" width="1.3" height="42.8"/>
	<rect x="1124.1" y="389.1" class="st5" width="1.3" height="42.8"/>
	<rect x="1153" y="464.9" class="st5" width="18.4" height="14.5"/>
	<rect x="1155.1" y="459.8" class="st5" width="14.3" height="8.1"/>
	<rect x="1178.7" y="469.2" class="st5" width="3.5" height="5.8"/>
	<rect x="1183.5" y="463.8" class="st5" width="5" height="11.2"/>
	<polygon class="st5" points="893.8,558.4 856.6,558.4 871.1,483.8 893.8,483.8 	"/>
	<g>
		<rect x="905.1" y="442.4" class="st6" width="46.7" height="150.5"/>
		<rect x="901.6" y="443.3" class="st6" width="53.7" height="1.5"/>
		<rect x="903.1" y="464.4" class="st6" width="50.8" height="1.5"/>
		<rect x="903.1" y="484.9" class="st6" width="50.8" height="1.5"/>
		<rect x="903.1" y="505.3" class="st6" width="50.8" height="1.5"/>
		<rect x="903.1" y="525.8" class="st6" width="50.8" height="1.5"/>
		<rect x="903.1" y="546.3" class="st6" width="50.8" height="1.5"/>
		<rect x="903.1" y="566.7" class="st6" width="50.8" height="1.5"/>
		<rect x="899.9" y="439.1" class="st6" width="57.2" height="4.2"/>
		<rect x="909.3" y="449.7" class="st7" width="4.8" height="12"/>
		<rect x="920.2" y="449.7" class="st6" width="4.8" height="12"/>
		<rect x="931" y="449.7" class="st6" width="4.8" height="12"/>
		<rect x="941.9" y="449.7" class="st6" width="4.8" height="12"/>
		<rect x="909.3" y="469.4" class="st6" width="4.8" height="12"/>
		<rect x="920.2" y="469.4" class="st7" width="4.8" height="12"/>
		<rect x="931" y="469.4" class="st6" width="4.8" height="12"/>
		<rect x="941.9" y="469.4" class="st6" width="4.8" height="12"/>
		<rect x="909.3" y="489.8" class="st6" width="4.8" height="12"/>
		<rect x="920.2" y="489.8" class="st6" width="4.8" height="12"/>
		<rect x="931" y="489.8" class="st6" width="4.8" height="12"/>
		<rect x="941.9" y="489.8" class="st7" width="4.8" height="12"/>
		<rect x="909.3" y="510.3" class="st6" width="4.8" height="12"/>
		<rect x="920.2" y="510.3" class="st7" width="4.8" height="12"/>
		<rect x="931" y="510.3" class="st7" width="4.8" height="12"/>
		<rect x="941.9" y="510.3" class="st6" width="4.8" height="12"/>
		<rect x="909.3" y="530.8" class="st7" width="4.8" height="12"/>
		<rect x="920.2" y="530.8" class="st6" width="4.8" height="12"/>
		<rect x="931" y="530.8" class="st6" width="4.8" height="12"/>
		<rect x="941.9" y="530.8" class="st6" width="4.8" height="12"/>
		<rect x="909.3" y="551.3" class="st6" width="4.8" height="12"/>
		<rect x="920.2" y="551.3" class="st6" width="4.8" height="12"/>
		<rect x="931" y="551.3" class="st7" width="4.8" height="12"/>
		<rect x="941.9" y="551.3" class="st6" width="4.8" height="12"/>
		<rect x="909.3" y="571.7" class="st6" width="4.8" height="12"/>
		<rect x="920.2" y="571.7" class="st7" width="4.8" height="12"/>
		<rect x="931" y="571.7" class="st6" width="4.8" height="12"/>
		<rect x="941.9" y="571.7" class="st7" width="4.8" height="12"/>
		<rect x="908.1" y="433.4" class="st6" width="15.9" height="7.8"/>
		<rect x="907" y="433.1" class="st6" width="18" height="1.3"/>
		<polygon class="st6" points="838.2,592.8 776,592.8 776,449.9 838.2,434.7 		"/>
		<rect x="773.3" y="447.3" class="st6" width="5.5" height="145.5"/>
		<rect x="788.8" y="443.2" class="st6" width="5.5" height="149.6"/>
		<rect x="804.4" y="439" class="st6" width="5.5" height="153.9"/>
		<rect x="819.9" y="435.5" class="st6" width="5.5" height="157.3"/>
		<rect x="835.5" y="431.8" class="st6" width="5.5" height="161"/>
		<rect x="780.2" y="459.6" class="st7" width="7.2" height="11.1"/>
		<rect x="795.7" y="459.6" class="st7" width="7.2" height="11.1"/>
		<rect x="811.3" y="459.6" class="st6" width="7.2" height="11.1"/>
		<rect x="826.8" y="459.6" class="st7" width="7.2" height="11.1"/>
		<rect x="780.2" y="478.8" class="st6" width="7.2" height="11.1"/>
		<rect x="795.7" y="478.8" class="st6" width="7.2" height="11.1"/>
		<rect x="811.3" y="478.8" class="st7" width="7.2" height="11.1"/>
		<rect x="826.8" y="478.8" class="st7" width="7.2" height="11.1"/>
		<rect x="780.2" y="498" class="st7" width="7.2" height="11.1"/>
		<rect x="795.7" y="498" class="st7" width="7.2" height="11.1"/>
		<rect x="811.3" y="498" class="st7" width="7.2" height="11.1"/>
		<rect x="826.8" y="498" class="st6" width="7.2" height="11.1"/>
		<rect x="780.2" y="517.3" class="st7" width="7.2" height="11.1"/>
		<rect x="795.7" y="517.3" class="st6" width="7.2" height="11.1"/>
		<rect x="811.3" y="517.3" class="st7" width="7.2" height="11.1"/>
		<rect x="826.8" y="517.3" class="st7" width="7.2" height="11.1"/>
		<rect x="780.2" y="536.5" class="st7" width="7.2" height="11.1"/>
		<rect x="795.7" y="536.5" class="st7" width="7.2" height="11.1"/>
		<rect x="811.3" y="536.5" class="st6" width="7.2" height="11.1"/>
		<rect x="826.8" y="536.5" class="st7" width="7.2" height="11.1"/>
		<rect x="780.2" y="555.8" class="st6" width="7.2" height="11.1"/>
		<rect x="795.7" y="555.8" class="st6" width="7.2" height="11.1"/>
		<rect x="811.3" y="555.8" class="st7" width="7.2" height="11.1"/>
		<rect x="826.8" y="555.8" class="st7" width="7.2" height="11.1"/>
		<rect x="780.2" y="575" class="st7" width="7.2" height="11.1"/>
		<rect x="795.7" y="575" class="st6" width="7.2" height="11.1"/>
		<rect x="811.3" y="575" class="st7" width="7.2" height="11.1"/>
		<rect x="826.8" y="575" class="st6" width="7.2" height="11.1"/>
		<polygon class="st6" points="598.6,456.7 598.6,458.2 597.1,458.2 597.1,462.4 623.2,462.4 623.2,592.8 580.4,592.8 580.4,469.2 
			580.4,462.4 580.4,458.2 578.9,458.2 578.9,456.7 		"/>
		<rect x="671.4" y="516" class="st6" width="36.6" height="76.9"/>
		<rect x="511.9" y="498.3" class="st6" width="29.7" height="94.5"/>
		<rect x="535.8" y="518" class="st6" width="32.4" height="74.8"/>
		<rect x="522.6" y="494.5" class="st6" width="13.1" height="11.3"/>
		<rect x="538" y="516.8" class="st6" width="34.5" height="2.8"/>
		<rect x="564.7" y="550.1" class="st6" width="36.3" height="42.7"/>
		<rect x="447.3" y="515.4" class="st6" width="29.5" height="77.5"/>
		<rect x="421.6" y="554" class="st6" width="38.9" height="38.9"/>
		<rect x="378.8" y="547.6" class="st6" width="24.3" height="45.2"/>
		<rect x="398.4" y="578.7" class="st6" width="57.5" height="14.2"/>
		<rect x="356.8" y="574.1" class="st6" width="29.4" height="18.8"/>
		<rect x="476.8" y="564.2" class="st6" width="45.8" height="28.6"/>
		<rect x="611.2" y="580.5" class="st6" width="71.3" height="12.3"/>
		<rect x="737.6" y="580.5" class="st6" width="71.3" height="12.3"/>
		<polygon class="st6" points="679.7,544.4 652.6,544.4 641.1,586.7 679.7,586.7 		"/>
		<rect x="692.2" y="482.8" class="st6" width="0.8" height="47"/>
		<rect x="696" y="498.7" class="st6" width="1" height="27.7"/>
		<rect x="690.6" y="503.6" class="st6" width="13.7" height="13.7"/>
		<rect x="688.3" y="502.5" class="st6" width="18.2" height="1.2"/>
		<rect x="701.3" y="553.2" class="st6" width="44.3" height="39.7"/>
		<rect x="737.1" y="509.5" class="st6" width="28.5" height="76.5"/>
		<rect x="848.3" y="523.9" class="st6" width="45.5" height="68.9"/>
		<rect x="834.1" y="567.4" class="st6" width="51.9" height="25.4"/>
		<rect x="891.3" y="583.8" class="st6" width="33.7" height="9.1"/>
		<rect x="943.2" y="567.4" class="st6" width="54.8" height="25.4"/>
		<rect x="965.1" y="500.9" class="st6" width="68.2" height="91.9"/>
		<rect x="963.3" y="497.4" class="st6" width="74" height="3.5"/>
		<rect x="1000.3" y="487.9" class="st6" width="30" height="18.6"/>
		<rect x="985.5" y="487.9" class="st6" width="5" height="11.3"/>
		<rect x="974.9" y="487.9" class="st6" width="5.5" height="11.3"/>
		<rect x="1080.2" y="458.6" class="st6" width="54" height="134.2"/>
		<rect x="1078.7" y="456.3" class="st6" width="57.1" height="3.8"/>
		<rect x="1082" y="451.5" class="st6" width="50.4" height="18"/>
		<rect x="1108.6" y="444.1" class="st6" width="20" height="19.7"/>
		<polygon class="st6" points="1117,449.6 1128.6,449.6 1128.6,439.3 1120.3,439.3 		"/>
		<rect x="1122.8" y="430.7" class="st6" width="1.1" height="23.1"/>
		<path class="st6" d="M1122.4,429.5c0.1,0.5,0.6,0.9,1.2,0.8c0.5-0.1,0.9-0.6,0.8-1.2c-0.1-0.5-0.5-0.8-1-0.8
			C1122.8,428.3,1122.3,428.9,1122.4,429.5z"/>
		<rect x="1126.9" y="537.4" class="st6" width="24.2" height="55.4"/>
		<rect x="1058" y="510.4" class="st6" width="27.6" height="82.4"/>
		<polygon class="st6" points="1071.8,592.8 1033,592.8 1033,548.8 1065.7,563.3 		"/>
		<rect x="1143.1" y="568.9" class="st6" width="59.3" height="23.9"/>
		<rect x="1180.5" y="497.3" class="st6" width="34.5" height="95.6"/>
		<rect x="1206.9" y="575" class="st6" width="57.1" height="17.9"/>
		<rect x="1178.7" y="495.5" class="st6" width="37.8" height="3.1"/>
		<rect x="1209.6" y="482" class="st6" width="0.8" height="19.3"/>
		<rect x="1204.5" y="484.5" class="st6" width="0.8" height="15.4"/>
		<polygon class="st6" points="1227.7,533.3 1212.3,533.3 1212.3,577.1 1234.2,577.1 		"/>
		<rect y="586.4" class="st6" width="1607.1" height="102"/>
	</g>
	<g class="st8">
		<rect x="515" y="503.1" class="st4" width="2.2" height="2.2"/>
		<rect x="519.5" y="503.1" class="st4" width="2.2" height="2.2"/>
		<rect x="515" y="508.4" class="st4" width="2.2" height="2.2"/>
		<rect x="519.5" y="508.4" class="st4" width="2.2" height="2.2"/>
		<rect x="515" y="513.5" class="st4" width="2.2" height="2.2"/>
		<rect x="524.6" y="503.1" class="st4" width="2.2" height="2.2"/>
	</g>
	<rect x="679.7" y="435.5" class="st1" width="1.5" height="8.5"/>
	<rect x="685" y="435.5" class="st1" width="1.5" height="8.5"/>
	<rect x="690.3" y="435.5" class="st1" width="1.5" height="8.5"/>
	<rect x="695.6" y="435.5" class="st1" width="1.5" height="8.5"/>
	<rect x="700.9" y="435.5" class="st1" width="1.5" height="8.5"/>
	<rect x="706.2" y="435.5" class="st1" width="1.5" height="8.5"/>
	<rect x="711.4" y="435.5" class="st1" width="1.5" height="8.5"/>
	<rect x="716.7" y="435.5" class="st1" width="1.5" height="8.5"/>
	<rect x="722" y="435.5" class="st1" width="1.5" height="8.5"/>
	<rect x="727.3" y="435.5" class="st1" width="1.5" height="8.5"/>
	<rect x="732.6" y="435.5" class="st1" width="1.5" height="8.5"/>
	<rect x="679.7" y="447.3" class="st1" width="1.5" height="8.5"/>
	<rect x="685" y="447.3" class="st1" width="1.5" height="8.5"/>
	<rect x="690.3" y="447.3" class="st1" width="1.5" height="8.5"/>
	<rect x="695.6" y="447.3" class="st1" width="1.5" height="8.5"/>
	<rect x="700.9" y="447.3" class="st1" width="1.5" height="8.5"/>
	<rect x="706.2" y="447.3" class="st1" width="1.5" height="8.5"/>
	<rect x="711.4" y="447.3" class="st1" width="1.5" height="8.5"/>
	<rect x="716.7" y="447.3" class="st1" width="1.5" height="8.5"/>
	<rect x="722" y="447.3" class="st1" width="1.5" height="8.5"/>
	<rect x="727.3" y="447.3" class="st1" width="1.5" height="8.5"/>
	<rect x="732.6" y="447.3" class="st1" width="1.5" height="8.5"/>
	<rect x="679.7" y="459.2" class="st1" width="1.5" height="8.5"/>
	<rect x="685" y="459.2" class="st1" width="1.5" height="8.5"/>
	<rect x="690.3" y="459.2" class="st1" width="1.5" height="8.5"/>
	<rect x="695.6" y="459.2" class="st1" width="1.5" height="8.5"/>
	<rect x="700.9" y="459.2" class="st1" width="1.5" height="8.5"/>
	<rect x="706.2" y="459.2" class="st1" width="1.5" height="8.5"/>
	<rect x="711.4" y="459.2" class="st1" width="1.5" height="8.5"/>
	<rect x="716.7" y="459.2" class="st1" width="1.5" height="8.5"/>
	<rect x="722" y="459.2" class="st1" width="1.5" height="8.5"/>
	<rect x="727.3" y="459.2" class="st1" width="1.5" height="8.5"/>
	<rect x="732.6" y="459.2" class="st1" width="1.5" height="8.5"/>
	<rect x="695.6" y="471" class="st1" width="1.5" height="8.5"/>
	<rect x="700.9" y="471" class="st1" width="1.5" height="8.5"/>
	<rect x="706.2" y="471" class="st1" width="1.5" height="8.5"/>
	<rect x="711.4" y="471" class="st1" width="1.5" height="8.5"/>
	<rect x="716.7" y="471" class="st1" width="1.5" height="8.5"/>
	<rect x="722" y="471" class="st1" width="1.5" height="8.5"/>
	<rect x="727.3" y="471" class="st1" width="1.5" height="8.5"/>
	<rect x="732.6" y="471" class="st1" width="1.5" height="8.5"/>
	<rect x="700.9" y="483.5" class="st1" width="1.5" height="8.5"/>
	<rect x="706.2" y="483.5" class="st1" width="1.5" height="8.5"/>
	<rect x="711.4" y="483.5" class="st1" width="1.5" height="8.5"/>
	<rect x="716.7" y="483.5" class="st1" width="1.5" height="8.5"/>
	<rect x="722" y="483.5" class="st1" width="1.5" height="8.5"/>
	<rect x="727.3" y="483.5" class="st1" width="1.5" height="8.5"/>
	<rect x="732.6" y="483.5" class="st1" width="1.5" height="8.5"/>
	<rect x="782" y="456.6" class="st9" width="3.6" height="9.2"/>
	<rect x="782" y="474.2" class="st9" width="3.6" height="9.2"/>
	<rect x="782" y="491.8" class="st9" width="3.6" height="9.2"/>
	<rect x="782" y="509.4" class="st9" width="3.6" height="9.2"/>
	<rect x="782" y="526" class="st9" width="3.6" height="9.2"/>
	<rect x="782" y="543.6" class="st9" width="3.6" height="9.2"/>
	<rect x="797.5" y="456.6" class="st9" width="3.6" height="9.2"/>
	<rect x="797.5" y="474.2" class="st9" width="3.6" height="9.2"/>
	<rect x="797.5" y="491.8" class="st9" width="3.6" height="9.2"/>
	<rect x="797.5" y="509.4" class="st9" width="3.6" height="9.2"/>
	<rect x="797.5" y="526" class="st9" width="3.6" height="9.2"/>
	<rect x="797.5" y="543.6" class="st9" width="3.6" height="9.2"/>
	<rect x="813.1" y="456.6" class="st9" width="3.6" height="9.2"/>
	<rect x="813.1" y="474.2" class="st9" width="3.6" height="9.2"/>
	<rect x="813.1" y="491.8" class="st9" width="3.6" height="9.2"/>
	<rect x="813.1" y="509.4" class="st9" width="3.6" height="9.2"/>
	<rect x="813.1" y="526" class="st9" width="3.6" height="9.2"/>
	<rect x="813.1" y="543.6" class="st9" width="3.6" height="9.2"/>
	<rect x="828.6" y="456.6" class="st9" width="3.6" height="9.2"/>
	<rect x="828.6" y="474.2" class="st9" width="3.6" height="9.2"/>
	<rect x="828.6" y="491.8" class="st9" width="3.6" height="9.2"/>
	<rect x="828.6" y="509.4" class="st9" width="3.6" height="9.2"/>
	<rect x="828.6" y="526" class="st9" width="3.6" height="9.2"/>
	<rect x="828.6" y="543.6" class="st9" width="3.6" height="9.2"/>
	<rect x="522.6" y="409.9" class="st10" width="1.9" height="7.4"/>
	<rect x="529.4" y="409.9" class="st10" width="1.9" height="7.4"/>
	<rect x="537.3" y="409.9" class="st10" width="1.9" height="7.4"/>
	<rect x="544.1" y="409.9" class="st10" width="1.9" height="7.4"/>
	<rect x="507.6" y="409.9" class="st10" width="1.9" height="7.4"/>
	<rect x="514.4" y="409.9" class="st10" width="1.9" height="7.4"/>
	<rect x="522.6" y="422.7" class="st10" width="1.9" height="7.4"/>
	<rect x="529.4" y="422.7" class="st10" width="1.9" height="7.4"/>
	<rect x="537.3" y="422.7" class="st10" width="1.9" height="7.4"/>
	<rect x="544.1" y="422.7" class="st10" width="1.9" height="7.4"/>
	<rect x="507.6" y="422.7" class="st10" width="1.9" height="7.4"/>
	<rect x="514.4" y="422.7" class="st10" width="1.9" height="7.4"/>
	<rect x="522.6" y="435.5" class="st10" width="1.9" height="7.4"/>
	<rect x="529.4" y="435.5" class="st10" width="1.9" height="7.4"/>
	<rect x="537.3" y="435.5" class="st10" width="1.9" height="7.4"/>
	<rect x="544.1" y="435.5" class="st10" width="1.9" height="7.4"/>
	<rect x="507.6" y="435.5" class="st10" width="1.9" height="7.4"/>
	<rect x="514.4" y="435.5" class="st10" width="1.9" height="7.4"/>
	<rect x="880.7" y="466.4" class="st1" width="3" height="11.4"/>
	<rect x="889.8" y="466.4" class="st1" width="3" height="11.4"/>
	<rect x="898.4" y="466.4" class="st1" width="3" height="11.4"/>
	<rect x="1085.6" y="468.8" class="st9" width="2.3" height="6.4"/>
	<rect x="1092.7" y="468.8" class="st9" width="2.3" height="6.4"/>
	<rect x="1085.6" y="468.8" class="st9" width="2.3" height="6.4"/>
	<rect x="1092.7" y="468.8" class="st9" width="2.3" height="6.4"/>
	<rect x="1099.3" y="468.8" class="st9" width="2.3" height="6.4"/>
	<rect x="1106.4" y="468.8" class="st9" width="2.3" height="6.4"/>
	<rect x="1085.6" y="480.4" class="st9" width="2.3" height="6.4"/>
	<rect x="1092.7" y="480.4" class="st9" width="2.3" height="6.4"/>
	<rect x="1085.6" y="480.4" class="st9" width="2.3" height="6.4"/>
	<rect x="1092.7" y="480.4" class="st9" width="2.3" height="6.4"/>
	<rect x="1099.3" y="480.4" class="st9" width="2.3" height="6.4"/>
	<rect x="1106.4" y="480.4" class="st9" width="2.3" height="6.4"/>
	<rect x="1085.6" y="492.6" class="st9" width="2.3" height="6.4"/>
	<rect x="1092.7" y="492.6" class="st9" width="2.3" height="6.4"/>
	<rect x="1085.6" y="492.6" class="st9" width="2.3" height="6.4"/>
	<rect x="1092.7" y="492.6" class="st9" width="2.3" height="6.4"/>
	<rect x="1099.3" y="492.6" class="st9" width="2.3" height="6.4"/>
	<rect x="1106.4" y="492.6" class="st9" width="2.3" height="6.4"/>
	<rect x="1114.1" y="468.8" class="st9" width="2.3" height="6.4"/>
	<rect x="1114.1" y="480.4" class="st9" width="2.3" height="6.4"/>
	<rect x="1121.2" y="468.8" class="st9" width="2.3" height="6.4"/>
	<rect x="909.3" y="449.7" class="st9" width="2.4" height="10"/>
	<rect x="921.4" y="449.7" class="st9" width="2.4" height="10"/>
	<rect x="933.4" y="449.7" class="st9" width="2.4" height="10"/>
	<rect x="945.5" y="449.7" class="st9" width="2.4" height="10"/>
	<rect x="909.3" y="470.4" class="st9" width="2.4" height="10"/>
	<rect x="921.4" y="470.4" class="st9" width="2.4" height="10"/>
	<rect x="933.4" y="470.4" class="st9" width="2.4" height="10"/>
	<rect x="945.5" y="470.4" class="st9" width="2.4" height="10"/>
	<rect x="909.3" y="491.5" class="st9" width="2.4" height="10"/>
	<rect x="921.4" y="491.5" class="st9" width="2.4" height="10"/>
	<rect x="933.4" y="491.5" class="st9" width="2.4" height="10"/>
	<rect x="945.5" y="491.5" class="st9" width="2.4" height="10"/>
	<rect x="909.3" y="512.7" class="st9" width="2.4" height="10"/>
	<rect x="921.4" y="512.7" class="st9" width="2.4" height="10"/>
	<rect x="933.4" y="512.7" class="st9" width="2.4" height="10"/>
	<rect x="945.5" y="512.7" class="st9" width="2.4" height="10"/>
	<rect x="909.3" y="531.9" class="st9" width="2.4" height="10"/>
	<rect x="921.4" y="531.9" class="st9" width="2.4" height="10"/>
	<rect x="933.4" y="531.9" class="st9" width="2.4" height="10"/>
	<rect x="909.3" y="553.4" class="st9" width="2.4" height="10"/>
	<rect x="921.4" y="553.4" class="st9" width="2.4" height="10"/>
	<rect x="933.4" y="553.4" class="st9" width="2.4" height="10"/>
	<rect x="945.5" y="531.9" class="st9" width="2.4" height="10"/>
	<rect x="1183.5" y="502.8" class="st9" width="2.5" height="5.8"/>
	<rect x="1183.5" y="512.1" class="st9" width="2.5" height="5.8"/>
	<rect x="1189.9" y="502.8" class="st9" width="2.5" height="5.8"/>
</g>
</svg>
