<?xml version="1.0" encoding="UTF-8" standalone="no"?>
<svg xmlns="http://www.w3.org/2000/svg" xmlns:xlink="http://www.w3.org/1999/xlink" style="isolation:isolate" viewBox="0 0 100 100" width="100pt" height="100pt"><defs><clipPath id="_clipPath_yqfpccvsxizQzJZHXVv2OFvQkATKgzzC"><rect width="100" height="100"/></clipPath></defs><g clip-path="url(#_clipPath_yqfpccvsxizQzJZHXVv2OFvQkATKgzzC)"><rect width="100" height="100" style="fill:rgb(0,0,0)" fill-opacity="0"/><g><path d=" M 32.503 65.001 C 50.457 65.001 65.004 52.688 65.004 37.5 C 65.004 22.312 50.457 9.999 32.503 9.999 C 14.549 9.999 0.002 22.312 0.002 37.5 C 0.002 43.531 2.299 49.109 6.189 53.656 C 5.643 55.125 4.83 56.422 3.971 57.516 C 3.221 58.485 2.455 59.235 1.892 59.75 C 1.611 60 1.377 60.203 1.221 60.328 C 1.142 60.391 1.08 60.438 1.049 60.453 L 1.017 60.485 L 1.017 60.485 L 1.017 60.485 C 0.158 61.125 -0.217 62.25 0.127 63.266 C 0.47 64.282 1.424 65.001 2.502 65.001 C 5.908 65.001 9.346 64.125 12.205 63.047 C 13.643 62.5 14.987 61.891 16.159 61.266 C 20.956 63.641 26.534 65.001 32.503 65.001 Z " fill="rgb(252,134,139)"/><path d=" M 67.471 90.001 C 49.517 90.001 34.97 77.688 34.97 62.5 C 34.97 47.312 49.517 34.999 67.471 34.999 C 85.425 34.999 99.972 47.312 99.972 62.5 C 99.972 68.532 97.675 74.11 93.784 78.657 C 94.331 80.126 95.144 81.423 96.003 82.517 C 96.753 83.486 97.519 84.236 98.081 84.751 C 98.363 85.001 98.597 85.204 98.753 85.329 C 98.831 85.392 98.894 85.439 98.925 85.454 L 98.956 85.486 L 98.956 85.486 L 98.956 85.486 C 99.816 86.126 100.191 87.251 99.847 88.267 C 99.503 89.283 98.55 90.001 97.472 90.001 C 94.066 90.001 90.628 89.126 87.769 88.048 C 86.331 87.501 84.987 86.892 83.815 86.267 C 79.018 88.642 73.44 90.001 67.471 90.001 Z " fill="rgb(152,81,132)"/><path d=" M 35.116 64.896 C 51.85 63.784 65.004 51.942 65.004 37.5 C 65.004 36.69 64.963 35.889 64.858 35.104 C 48.124 36.216 34.97 48.058 34.97 62.5 C 34.97 63.31 35.011 64.111 35.116 64.896 Z " fill-rule="evenodd" fill="rgb(150,43,72)"/></g></g></svg>