<svg xmlns="http://www.w3.org/2000/svg" xmlns:xlink="http://www.w3.org/1999/xlink" width="38" height="38" viewBox="0 0 38 38">
    <defs>
        <rect id="archive-a" width="32" height="35" x="3" y="1" rx="3"/>
        <path id="archive-b" d="M6.45937433,7.33333333 L4.02057242,7.33333333 L4.02057242,5.11851852 L6.45937433,5.11851852 L6.45937433,7.33333333 Z M4.03880229,5.10481468 L1.60000038,5.10481468 L1.60000038,2.88999987 L4.03880229,2.88999987 L4.03880229,5.10481468 Z M6.43880191,3 L4,3 L4,0.785185185 L6.43880191,0.785185185 L6.43880191,3 Z M4.02057242,7.33333333 L4.02057242,9.54814815 L1.58177052,9.54814815 L1.58177052,7.33333333 L4.02057242,7.33333333 Z M4.02057242,11.762963 L4.02057242,13.9777778 L1.58177052,13.9777778 L1.58177052,11.762963 L4.02057242,11.762963 Z M6.45937433,11.762963 L4.02057242,11.762963 L4.02057242,9.54814815 L6.45937433,9.54814815 L6.45937433,11.762963 Z M6.60486411,18.595769 C6.52033162,18.2065294 6.14447404,17.9259326 5.70761364,17.9259259 L4.02057242,17.9259259 L4.02057242,15.7111111 L1.58177052,15.7111111 L1.58177052,17.9259259 L0.0811452158,24.6469199 C-0.421171765,26.8966873 1.47232928,29 3.99999503,29 C6.51897255,29 8.41049207,26.9103222 7.92311275,24.6658843 L6.60486411,18.595769 Z M4.02057242,27.686997 C2.65499578,27.686997 1.54793214,26.8491741 1.54793214,25.8157553 C1.54793214,24.7822674 2.65491957,23.9445137 4.02057242,23.9445137 C5.38622528,23.9445137 6.49321271,24.7823366 6.49321271,25.8157553 C6.49321271,26.8491741 5.38614907,27.686997 4.02057242,27.686997 Z M6.45937433,16.1925926 L4.02057242,16.1925926 L4.02057242,13.9777778 L6.45937433,13.9777778 L6.45937433,16.1925926 Z"/>
    </defs>
    <g fill="none" fill-rule="evenodd">
        <polygon fill="#A69200" points="34 2 34 34 4 34"/>
        <use fill="#FFF" fill-opacity=".93" xlink:href="#archive-a"/>
        <rect width="30" height="33" x="4" y="2" stroke="#A69200" stroke-width="2" rx="3"/>
        <g transform="translate(10 2)">
            <use fill="#A69200" fill-rule="nonzero" xlink:href="#archive-b"/>
        </g>
    </g>
</svg>
