<svg xmlns="http://www.w3.org/2000/svg" xmlns:xlink="http://www.w3.org/1999/xlink" width="38" height="38" viewBox="0 0 38 38">
    <defs>
        <rect id="audio-a" width="32" height="35" x="3" y="1" rx="3"/>
        <path id="audio-b" d="M7.37496638,15 L3.07290266,10.2560485 L0.921870797,10.2560485 C0.412767649,10.2560485 0,9.84328087 0,9.33417773 L0,5.03211401 C0,4.52301086 0.412767649,4.11024321 0.921870797,4.11024321 L3.07290266,4.11024321 L7.37496638,0 L7.37496638,15 Z M13.0000768,5.74217654 C11.2985338,3.39886742 11.4801339,0.949201637 13.1825219,3.29384968 C15.2719421,6.17148931 15.2730176,8.75511401 13.1825988,11.6345045 C11.5084046,13.940118 11.2676511,11.5721261 13,9.18617768 C13.695321,8.22864669 13.6960125,6.70063447 13.0000768,5.74217654 Z M10.1911475,6.40175485 C8.48960444,4.74557515 8.67120449,3.01422579 10.3735926,4.6713518 C12.4630127,6.70518008 12.4640882,8.53120754 10.3736694,10.5662733 C8.6994752,12.1958109 8.45872176,10.5221861 10.1910706,8.83587024 C10.8863917,8.15911643 10.8870831,7.0791638 10.1911475,6.40175485 Z"/>
    </defs>
    <g fill="none" fill-rule="evenodd">
        <polygon fill="#429646" points="34 2 34 34 4 34"/>
        <use fill="#FFF" fill-opacity=".93" xlink:href="#audio-a"/>
        <rect width="30" height="33" x="4" y="2" stroke="#429646" stroke-width="2" rx="3"/>
        <g transform="translate(11 12)">
            <use fill="#429646" fill-rule="nonzero" xlink:href="#audio-b"/>
        </g>
    </g>
</svg>
