<svg xmlns="http://www.w3.org/2000/svg" xmlns:xlink="http://www.w3.org/1999/xlink" width="38" height="38" viewBox="0 0 38 38">
    <defs>
        <rect id="certificate-a" width="32" height="35" x="3" y="1" rx="3"/>
        <path id="certificate-b" d="M8.95747892,4.99844085 L9.85562532,4.11943788 C10.1233602,3.86598112 9.99851624,3.41555191 9.64734364,3.33156763 L8.42370828,3.01926327 L8.7686504,1.80803409 C8.86613108,1.45963603 8.53761477,1.13102309 8.1893328,1.22852299 L6.97850997,1.57358122 L6.66632182,0.349539552 C6.58370446,0.00385632626 6.12823476,-0.12256932 5.87872253,0.141180399 L5.00000977,1.04629662 L4.12131653,0.14119993 C3.87463633,-0.119561511 3.4172721,-8.89820398e-05 3.33371724,0.349559083 L3.02152909,1.57360075 L1.81068674,1.22854252 C1.46230711,1.13100356 1.13390799,1.45973368 1.23136913,1.80805362 L1.57631125,3.0192828 L0.352675896,3.33158716 C0.00134704104,3.41559098 -0.123243061,3.86609831 0.144374682,4.11943788 L1.04252108,4.99844085 L0.144374682,5.87742429 C-0.123360249,6.13088105 0.00148376008,6.58131026 0.352656364,6.66529455 L1.57629172,6.9775989 L1.2313496,8.18882808 C1.13386892,8.53722615 1.46238523,8.86583908 1.8106672,8.76833918 L3.02149003,8.42328096 L3.33367818,9.64732262 C3.42037758,10.0101152 3.8746168,10.1164237 4.12127747,9.85568178 L5.00000977,8.9572257 L5.878703,9.85568178 C6.12284413,10.119119 6.58157555,10.0018926 6.66630229,9.64732262 L6.97849044,8.42328096 L8.18931326,8.76833918 C8.53767336,8.86587814 8.86609201,8.53714802 8.76863087,8.18882808 L8.42368875,6.9775989 L9.6473241,6.66529455 C9.99863343,6.5812712 10.1232235,6.1307834 9.85560579,5.87742429 L8.95747892,4.99844085 Z"/>
    </defs>
    <g fill="none" fill-rule="evenodd">
        <polygon fill="#A69200" points="34 2 34 34 4 34"/>
        <use fill="#FFF" fill-opacity=".93" xlink:href="#certificate-a"/>
        <rect width="30" height="33" x="4" y="2" stroke="#A69200" stroke-width="2" rx="3"/>
        <g transform="translate(19 6)">
            <use fill="#A69200" fill-rule="nonzero" xlink:href="#certificate-b"/>
        </g>
        <rect width="14" height="2" x="10" y="19" fill="#A69200"/>
        <rect width="14" height="2" x="10" y="22" fill="#A69200"/>
        <rect width="8" height="2" x="10" y="25" fill="#A69200"/>
    </g>
</svg>
