<svg xmlns="http://www.w3.org/2000/svg" xmlns:xlink="http://www.w3.org/1999/xlink" width="38" height="38" viewBox="0 0 38 38">
    <defs>
        <rect id="disk-a" width="32" height="35" x="3" y="1" rx="3"/>
    </defs>
    <g fill="none" fill-rule="evenodd">
        <polygon fill="#D37D3D" points="34 2 34 34 4 34"/>
        <use fill="#FFF" fill-opacity=".93" xlink:href="#disk-a"/>
        <rect width="30" height="33" x="4" y="2" stroke="#D37D3D" stroke-width="2" rx="3"/>
        <g fill="#D37D3D" fill-rule="nonzero" transform="translate(9 8)">
            <path d="M14.3409708,10.5080848 C14.3409708,10.3068935 14.3195522,10.1099828 14.2895663,9.9194931 L20.9507373,9.51497006 C20.9828652,9.8424411 21,10.1720525 21,10.5080848 C21,16.3019678 16.2986269,21 10.5027655,21 C8.01821292,21 5.73713665,20.1353052 3.94011976,18.6948607 L7.93253869,13.3483075 C8.61364879,13.9647236 9.51322816,14.3435626 10.5027655,14.3435626 C12.6189188,14.3435626 14.3409708,12.6227344 14.3409708,10.5080848 Z M14.1617623,9.43113772 C14.1275206,9.3137783 14.0868585,9.20068649 14.0419162,9.08759469 L20.1198286,6.37125749 C20.320999,6.83856137 20.4900677,7.32080191 20.6227545,7.82011291 L14.1617623,9.43113772 Z M10.5,13.4371257 C8.88028898,13.4371257 7.56287425,12.1182639 7.56287425,10.4990673 C7.56287425,8.87987062 8.88028898,7.56287425 10.5,7.56287425 C12.119711,7.56287425 13.4371257,8.87987062 13.4371257,10.4990673 C13.4371257,12.1201294 12.119711,13.4371257 10.5,13.4371257 Z M0.0838323353,11.9799695 L6.65795879,10.9820359 C6.74772254,11.7513209 7.06617015,12.4500881 7.54491018,13.0120935 L2.65705998,17.5209581 C1.29778026,16.0058941 0.376633156,14.0933662 0.0838323353,11.9799695 Z M10.4940442,6.65425606 C8.39437834,6.65425606 6.68465044,8.34670511 6.65679773,10.4371257 L0,10.2124644 C0.147833615,4.548858 4.78852363,0 10.4940442,0 C14.2005971,0 17.4550792,1.91925006 19.3233533,4.81417239 L13.8385119,8.6120195 C13.1807594,7.44591997 11.9273875,6.65425606 10.4940442,6.65425606 Z"/>
        </g>
    </g>
</svg>
