<svg xmlns="http://www.w3.org/2000/svg" xmlns:xlink="http://www.w3.org/1999/xlink" width="38" height="38" viewBox="0 0 38 38">
    <defs>
        <rect id="image-a" width="32" height="35" x="3" y="1" rx="3"/>
        <path id="image-b" d="M4,19.1032723 C10.2068966,11.6847994 21.5862069,29.7010908 34,22.2826178 C34,27.7196562 34,31.605523 34,33.9402182 C34,34.6467394 33.6428571,35 32.9285714,35 L5.07142857,35 C4.35714286,35 4,34.6467394 4,33.9402182 C4,30.6431191 4,25.6974705 4,19.1032723 Z"/>
    </defs>
    <g fill="none" fill-rule="evenodd">
        <polygon fill="#1C8B96" points="34 2 34 34 4 34"/>
        <use fill="#FFF" fill-opacity=".93" xlink:href="#image-a"/>
        <rect width="30" height="33" x="4" y="2" stroke="#1C8B96" stroke-width="2" rx="3"/>
        <use fill="#1C8B96" fill-opacity=".516" xlink:href="#image-b"/>
        <path stroke="#1C8B96" d="M4.5,19.288684 C4.5,28.1705666 4.5,28.2098953 4.5,33.9402182 C4.5,34.3693663 4.63206932,34.5 5.07142857,34.5 L32.9285714,34.5 C33.3679307,34.5 33.5,34.3693663 33.5,33.9402182 C33.5,29.8349108 33.5,29.6695315 33.5,23.1393414 C28.409924,25.8483285 23.7681405,24.8893521 16.4444643,21.1379608 C11.4216372,18.5651287 11.0931764,18.4094718 9.43982941,17.9988583 C7.34020973,17.4774116 5.78906845,17.8335647 4.5,19.2887422 Z"/>
        <circle cx="25.5" cy="11.5" r="4.5" fill="#1C8B96"/>
    </g>
</svg>
