<svg xmlns="http://www.w3.org/2000/svg" xmlns:xlink="http://www.w3.org/1999/xlink" width="38" height="38" viewBox="0 0 38 38">
    <defs>
        <rect id="unknown-a" width="32" height="35" x="3" y="1" rx="3"/>
        <path id="unknown-b" d="M7.97892253,0.81468884 L1.54663086,3.22679821 C0.968343099,3.44326957 0.584879557,3.99991019 0.584879557,4.61839978 L0.584879557,11.5795 C0.584879557,12.1423256 0.903401693,12.6556719 1.40437826,12.9061602 L7.83666992,16.122306 C8.25415039,16.3325925 8.74584961,16.3325925 9.16333008,16.122306 L15.5956217,12.9061602 C16.0996908,12.6556719 16.4151204,12.1392331 16.4151204,11.5795 L16.4151204,4.61839978 C16.4151204,3.99991019 16.0316569,3.44636202 15.4533691,3.22989066 L9.02107747,0.817781288 C8.6870931,0.687898475 8.31599935,0.687898475 7.97892253,0.81468884 Z M8.50154622,2.735099 L14.4390462,4.9616615 L14.4390462,4.99567842 L8.50154622,7.4077878 L2.56404622,4.99567842 L2.56404622,4.9616615 L8.50154622,2.735099 Z M9.49112956,13.7442136 L9.49112956,9.13955863 L14.4390462,7.12946749 L14.4390462,11.2702552 L9.49112956,13.7442136 Z"/>
    </defs>
    <g fill="none" fill-rule="evenodd">
        <polygon fill="#929292" points="34 2 34 34 4 34"/>
        <use fill="#FFF" fill-opacity=".93" xlink:href="#unknown-a"/>
        <rect width="30" height="33" x="4" y="2" stroke="#929292" stroke-width="2" rx="3"/>
        <g transform="translate(11 10)">
            <use fill="#929292" fill-rule="nonzero" xlink:href="#unknown-b"/>
        </g>
    </g>
</svg>
