<svg xmlns="http://www.w3.org/2000/svg" xmlns:xlink="http://www.w3.org/1999/xlink" width="38" height="38" viewBox="0 0 38 38">
    <defs>
        <rect id="vector-a" width="32" height="35" x="3" y="1" rx="3"/>
        <circle id="vector-b" cx="18" cy="2" r="2"/>
        <circle id="vector-c" cx="2" cy="2" r="2"/>
        <rect id="vector-d" width="4" height="4" x="8" y="1"/>
    </defs>
    <g fill="none" fill-rule="evenodd">
        <polygon fill="#980101" points="34 2 34 34 4 34"/>
        <use fill="#FFF" fill-opacity=".93" xlink:href="#vector-a"/>
        <rect width="30" height="33" x="4" y="2" stroke="#980101" stroke-width="2" rx="3"/>
        <g transform="translate(9 13)">
            <rect width="4" height="4" x="1" y="8" fill="#980101"/>
            <path stroke="#980101" stroke-linecap="square" d="M2.5,9.5 C3.55223513,5.16666667 5.88556846,3 9.5,3 C13.1144315,3 15.4477649,5.16666667 16.5,9.5"/>
            <rect width="4" height="4" x="14" y="8" fill="#980101"/>
            <path stroke="#980101" stroke-linecap="square" d="M1.5,2.5 L18.5,2.5"/>
            <use fill="#FFF" xlink:href="#vector-b"/>
            <circle cx="18" cy="2" r="1.5" stroke="#980101"/>
            <use fill="#FFF" xlink:href="#vector-c"/>
            <circle cx="2" cy="2" r="1.5" stroke="#980101"/>
            <g>
                <use fill="#FFF" xlink:href="#vector-d"/>
                <rect width="3" height="3" x="8.5" y="1.5" stroke="#980101"/>
            </g>
        </g>
    </g>
</svg>
