<svg xmlns="http://www.w3.org/2000/svg" xmlns:xlink="http://www.w3.org/1999/xlink" width="38" height="38" viewBox="0 0 38 38">
    <defs>
        <linearGradient id="web_style-b" x1="5.791%" y1="0%" y2="100%">
            <stop offset="0%" stop-color="#FF6868"/>
            <stop offset="100%" stop-color="#6F6DA6"/>
        </linearGradient>
        <rect id="web_style-a" width="32" height="35" x="3" y="1" rx="3"/>
        <linearGradient id="web_style-d" x1="26.262%" x2="79.447%" y1="-17.121%" y2="100%">
            <stop offset="0%" stop-color="#FB6769"/>
            <stop offset="100%" stop-color="#6F6DA6"/>
        </linearGradient>
        <path id="web_style-c" d="M6.16733725,9.30411741 L3.90994512,7.31756007 L6.16726847,5.33100273 C6.29033629,5.22284071 6.36424903,5.06937156 6.37209216,4.90571584 C6.37993529,4.74206012 6.32103748,4.58222608 6.20887717,4.46279085 L5.01199098,3.18605724 C4.77925738,2.93757423 4.39549453,2.93420427 4.15657121,3.15847858 L0.191021742,6.87602646 C-0.0636509891,7.11494979 -0.0637197638,7.52023912 0.191090517,7.75909367 L4.15657121,11.4767103 C4.26838501,11.5821592 4.41635121,11.6407599 4.57004473,11.6404629 C4.73760092,11.6410343 4.89780154,11.5716897 5.01205976,11.4491317 L6.20894594,10.1724668 C6.3211138,10.0530082 6.38001468,9.89315191 6.37217173,9.72947395 C6.36432877,9.56579598 6.29041317,9.41230384 6.16733725,9.30411741 Z M22.9650876,6.87602646 L18.9996757,3.15840981 C18.7571761,2.93097186 18.3738947,2.94073787 18.1441872,3.18598846 L16.947301,4.46265331 C16.835155,4.582109 16.7762679,4.74194998 16.7841107,4.9056108 C16.7919534,5.06927161 16.865855,5.22274925 16.9889097,5.33093395 L19.246233,7.31756007 L16.9889097,9.30411741 C16.8658418,9.41227942 16.7919291,9.56574857 16.784086,9.72940429 C16.7762428,9.89306001 16.8351407,10.0528941 16.947301,10.1723293 L18.1441872,11.4490629 C18.2539438,11.5662191 18.4057632,11.6349503 18.5662167,11.6401229 C18.7266702,11.6452955 18.8826012,11.5864853 18.9996757,11.4766416 L18.9996069,11.4766416 L22.9651564,7.7590249 C23.2198291,7.52017035 23.2198291,7.11488101 22.9650876,6.87602646 Z M12.4786879,10.3380946 C12.5521434,10.4801742 12.6103552,10.6313934 12.6526913,10.7893939 C13.1657799,12.7042664 12.1814514,14.1433178 10.2807282,14.652615 C8.02391419,15.2573265 6.5593364,13.7060886 6.00643927,11.6426484 C6.29655753,11.744366 7.3430803,12.2070448 7.62134994,12.1324827 C7.78642516,12.0882509 7.9026429,11.9560093 7.91989409,11.7845699 C8.08340251,10.1686345 9.00471857,9.56033181 10.0932445,9.2459144 C10.6747026,9.9444182 11.5569846,10.3601141 12.4786879,10.3380946 Z M13.8621185,0.64225275 C13.5339067,0.768241482 13.282203,1.03222786 13.1288081,1.33431497 C10.227495,7.00614417 9.80295846,7.27632757 10.2517933,8.44558236 C10.6787551,9.55785591 11.9675683,10.1562387 13.1003551,9.72140261 C14.4451121,9.20519878 14.8448992,7.91678143 15.5307203,2.38670781 C15.5704035,2.01320616 15.5822285,1.62163215 15.4474906,1.27062779 C15.2060122,0.64155504 14.470678,0.408648642 13.8621185,0.64225275 Z"/>
    </defs>
    <g fill="none" fill-rule="evenodd">
        <polygon fill="#766DA3" points="34 2 34 34 4 34"/>
        <use fill="#FFF" fill-opacity=".93" xlink:href="#web_style-a"/>
        <rect width="30" height="33" x="4" y="2" stroke="url(#web_style-b)" stroke-width="2" rx="3"/>
        <g transform="translate(8 11)">
            <use fill="url(#web_style-d)" fill-rule="nonzero" xlink:href="#web_style-c"/>
        </g>
    </g>
</svg>
