<svg viewBox="0 0 1400 1400" fill="none" stroke="#383E45" xmlns="http://www.w3.org/2000/svg" preserveAspectRatio="xMidYMax slice">
    <style>
        @media only screen and (max-width: 130px) and (max-height: 130px) {
            .not_in_preview {
                display: none;
            }
            path {
                stroke-width: .75px;
            }
        }
    </style>
    <path d="M-0.799805 1409L697.4 1124L1399.9 1409" vector-effect="non-scaling-stroke"/>
    <path class="not_in_preview" d="M-0.799805 1429L697.5 1144L1399.9 1429" vector-effect="non-scaling-stroke"/>
    <path d="M-0.799805 1449L697.6 1164L1399.9 1449" vector-effect="non-scaling-stroke"/>
    <path class="not_in_preview" d="M-0.799805 1469L697.7 1184L1399.9 1469" vector-effect="non-scaling-stroke"/>
    <path d="M-0.799805 1489L697.9 1204L1399.9 1489" vector-effect="non-scaling-stroke"/>
    <path class="not_in_preview" d="M-0.799805 1509L698 1224L1399.9 1509" vector-effect="non-scaling-stroke"/>
    <path d="M-0.799805 1529L698.1 1244L1399.9 1529" vector-effect="non-scaling-stroke"/>
    <path class="not_in_preview" d="M-0.799805 1549L698.2 1264L1399.9 1549" vector-effect="non-scaling-stroke"/>
    <path d="M-0.799805 1569L698.3 1284L1399.9 1569" vector-effect="non-scaling-stroke"/>
    <path class="not_in_preview" d="M-0.799805 1589L698.5 1304L1399.9 1589" vector-effect="non-scaling-stroke"/>
    <path d="M-0.799805 1609L698.6 1324L1399.9 1609" vector-effect="non-scaling-stroke"/>
    <path class="not_in_preview" d="M-0.799805 1629L698.7 1344L1399.9 1629" vector-effect="non-scaling-stroke"/>
    <path d="M-0.799805 1649L698.8 1364L1399.9 1649" vector-effect="non-scaling-stroke"/>
    <path class="not_in_preview" d="M-0.799805 1669L698.9 1384L1399.9 1669" vector-effect="non-scaling-stroke"/>
</svg>
