<svg viewBox="0 0 1400 1400" stroke="#383E45" fill="none" xmlns="http://www.w3.org/2000/svg" preserveAspectRatio="xMidYMax slice">
    <style>
        @media only screen and (max-width: 130px) and (max-height: 130px) {
            .not_in_preview {
                display: none;
            }
            path {
                stroke-width: .75px;
            }
        }
    </style>
	<path d="M1401.7 1016.1L456 1132.6L144 1400L285.3 1634.9L455.8 1919L-46 1975.9" vector-effect="non-scaling-stroke"/>
	<path d="M1401.7 1037.3L506.2 1148.3L214 1400L348.6 1628.5L504.5 1902.2L-43.9004 1948.6" vector-effect="non-scaling-stroke"/>
	<path d="M1401.7 1058.5L556.399 1164.1L284 1400L411.999 1622.1L553.199 1885.5L-41.8008 1921.3" vector-effect="non-scaling-stroke"/>
	<path d="M1401.7 1079.7L606.701 1179.9L353.5 1400L475.301 1615.7L601.901 1868.7L-39.6992 1894" vector-effect="non-scaling-stroke"/>
	<path d="M1401.7 1100.9L656.9 1195.7L423.5 1400L538.7 1609.3L650.6 1852L-37.5996 1866.7" vector-effect="non-scaling-stroke"/>
	<path d="M1401.7 1122.1L707.1 1211.5L493 1400L602 1602.9L699.3 1835.2L-35.4004 1839.4" vector-effect="non-scaling-stroke"/>
	<path d="M1401.7 1143.3L757.399 1227.2L563 1400L665.399 1596.5L747.999 1818.5L-33.3008 1812.1" vector-effect="non-scaling-stroke"/>
	<path d="M1401.7 1164.5L807.601 1243L633.5 1400L728.701 1590.1L796.701 1801.7L-31.1992 1784.8" vector-effect="non-scaling-stroke"/>
	<path d="M1401.7 1185.7L857.8 1258.8L703 1400L792.1 1583.7L845.4 1785L-29.0996 1757.5" vector-effect="non-scaling-stroke"/>
	<path d="M1401.7 1206.9L908.1 1274.6L773 1400L855.4 1577.3L894.1 1768.2L-27 1730.2" vector-effect="non-scaling-stroke"/>
	<path d="M1401.7 1228.1L958.3 1290.3L843 1400L918.8 1570.9L942.8 1751.4L-24.9004 1702.9" vector-effect="non-scaling-stroke"/>
	<path d="M1401.7 1249.3L1008.5 1306.1L913 1400L982.101 1564.5L991.501 1734.7L-22.6992 1675.5" vector-effect="non-scaling-stroke"/>
	<path d="M1401.7 1270.5L1058.7 1321.9L982.5 1400L1045.5 1558.1L1040.2 1717.9L-20.5996 1648.2" vector-effect="non-scaling-stroke"/>
	<path d="M1401.7 1291.7L1109 1337.7L1052.5 1400L1108.8 1551.7L1088.9 1701.2L-18.5 1620.9" vector-effect="non-scaling-stroke"/>
	<path d="M1401.7 1312.6L1159.2 1353.2L1122.6 1400L1172.2 1545L1137.6 1684.1L-16.4004 1593.3" vector-effect="non-scaling-stroke"/>
	<path d="M1401.7 1333.8L1209.4 1368.9L1192.5 1400L1235.5 1538.6L1186.3 1667.4L-14.3008 1566" vector-effect="non-scaling-stroke"/>
	<path d="M1401.7 1355.2L1259.7 1385L1262.4 1400.3L1298.9 1532.5L1235 1650.9L-12.1992 1539" vector-effect="non-scaling-stroke"/>
</svg>
