<svg xmlns="http://www.w3.org/2000/svg" viewBox="0 0 1400 570">
<style type="text/css">
	.st0{opacity:0.15;}
	.st1{fill:#3AADAA;}
	@media only screen and (max-width: 300px) {
		.st0{opacity:.7;}
	}
</style>
<g class="st0">
		<polygon class="st1" points="144.4,0 138.6,0 449.8,515.9 0,567.5 0,572.5 458.2,519.9"/>
		<polygon class="st1" points="363,250.8 214.3,0 208.5,0 358.8,253.3 498.6,499.1 0,540.6 0,545.6 506.8,503.3"/>
		<polygon class="st1" points="555.3,486.7 425.4,242.9 284.1,0 278.5,0 421.2,245.2 547.5,482.3 0,513.9 0,518.7 551.5,486.9"/>
		<polygon class="st1" points="603.9,470.2 487.8,235 354.1,0 348.6,0 483.6,237.2 596.3,465.6 0,487 0,487 0,491.8 600.2,470.3"/>
		<polygon class="st1" points="652.4,453.5 550.2,227 423.9,0 418.5,0 546,229.1 645.2,448.9 0,460.1 0,464.9 648.8,453.6"/>
		<polygon class="st1" points="612.6,219.1 493.8,0 488.5,0 608.4,221 694.1,432.2 0,433.4 0,438 700.9,436.8"/>
		<polygon class="st1" points="675.2,211.2 563.7,0 558.5,0 670.9,212.9 742.9,415.6 0,404.7 0,404.7 0,409.3 749.5,420.2"/>
		<polygon class="st1" points="797.9,403.5 737.6,203.3 633.5,0 628.5,0 733.3,204.7 791.9,398.9 0,379.8 0,379.7 0,384.2 794.8,403.4"/>
		<polygon class="st1" points="799.9,195.4 799.9,195.1 703.4,0 698.5,0 795.7,196.7 840.8,382.2 0,352.9 0,357.3 846.4,386.8"/>
		<polygon class="st1" points="894.9,370.1 862.3,187.5 862.3,187.2 773.3,0 768.5,0 858.1,188.6 889.7,365.5 0,326 0,326 0,330.4 892.2,370"/>
		<polygon class="st1" points="924.7,179.6 924.7,179.2 843.2,0 838.5,0 920.5,180.4 938.6,348.9 0,299.3 0,299.3 0,303.5 943.4,353.5"/>
		<polygon class="st1" points="987.1,171.3 913,0 908.4,0 982.9,172.3 987.5,332.3 0,272.4 0,276.6 989.6,336.6 991.9,336.7"/>
		<polygon class="st1" points="983,0 978.5,0 1045.3,164.1 1036.5,315.6 0,245.5 0,249.7 1038.3,319.9 1040.3,320 1049.5,163.5"/>
		<polygon class="st1" points="1052.8,0 1048.5,0 1107.7,156 1085.4,298.9 0,218.8 0,222.8 1087,303.1 1088.8,303.3 1111.9,155.6"/>
		<polygon class="st1" points="1122.7,0 1118.4,0 1170.1,147.8 1134.3,282.4 0,191.9 0,195.9 1135.6,286.5 1137.3,286.6 1174.1,148.2 1174.3,147.6"/>
		<polygon class="st1" points="1192.6,0 1188.5,0 1232.6,139.6 1183.2,265.7 0,165.1 0,169.1 1184.3,269.8 1185.8,269.9 1236.8,139.8"/>
		<polygon class="st1" points="1262.5,0 1258.5,0 1295,131.5 1232.1,249.1 0,138.3 0,142.1 1233,253 1234.3,253.1 1298.8,132.6 1299.2,131.9"/>
</g>
</svg>
