<svg viewBox="0 0 1400 1400" stroke="#383E45" fill="none" xmlns="http://www.w3.org/2000/svg" preserveAspectRatio="xMidYMin slice">
    <style>
        @media only screen and (max-width: 130px) and (max-height: 130px) {
            .not_in_preview {
                display: none;
            }
            path {
                stroke-width: .75px;
            }
        }
    </style>
	<path d="M1401.7 -383.9L456 -267.4L144 0L285.3 234.9L455.8 519L-46 575.9" vector-effect="non-scaling-stroke"/>
	<path d="M1401.7 -362.7L506.2 -251.7L214 0L348.6 228.5L504.5 502.2L-43.9004 548.6" vector-effect="non-scaling-stroke"/>
	<path d="M1401.7 -341.5L556.399 -235.9L284 0L411.999 222.1L553.199 485.5L-41.8008 521.3" vector-effect="non-scaling-stroke"/>
	<path d="M1401.7 -320.3L606.701 -220.1L353.5 0L475.301 215.7L601.901 468.7L-39.6992 494" vector-effect="non-scaling-stroke"/>
	<path d="M1401.7 -299.1L656.9 -204.3L423.5 0L538.7 209.3L650.6 452L-37.5996 466.7" vector-effect="non-scaling-stroke"/>
	<path d="M1401.7 -277.9L707.1 -188.5L493 0L602 202.9L699.3 435.2L-35.4004 439.4" vector-effect="non-scaling-stroke"/>
	<path d="M1401.7 -256.7L757.399 -172.8L563 0L665.399 196.5L747.999 418.5L-33.3008 412.1" vector-effect="non-scaling-stroke"/>
	<path d="M1401.7 -235.5L807.601 -157L633.5 0L728.701 190.1L796.701 401.7L-31.1992 384.8" vector-effect="non-scaling-stroke"/>
	<path d="M1401.7 -214.3L857.8 -141.2L703 0L792.1 183.7L845.4 385L-29.0996 357.5" vector-effect="non-scaling-stroke"/>
	<path d="M1401.7 -193.1L908.1 -125.4L773 0L855.4 177.3L894.1 368.2L-27 330.2" vector-effect="non-scaling-stroke"/>
	<path d="M1401.7 -171.9L958.3 -109.7L843 0L918.8 170.9L942.8 351.4L-24.9004 302.9" vector-effect="non-scaling-stroke"/>
	<path d="M1401.7 -150.7L1008.5 -93.9002L913 0L982.101 164.5L991.501 334.7L-22.6992 275.5" vector-effect="non-scaling-stroke"/>
	<path d="M1401.7 -129.5L1058.7 -78.1L982.5 0L1045.5 158.1L1040.2 317.9L-20.5996 248.2" vector-effect="non-scaling-stroke"/>
	<path d="M1401.7 -108.3L1109 -62.2998L1052.5 0L1108.8 151.7L1088.9 301.2L-18.5 220.9" vector-effect="non-scaling-stroke"/>
	<path d="M1401.7 -87.4L1159.2 -46.8L1122.6 0L1172.2 145L1137.6 284.1L-16.4004 193.3" vector-effect="non-scaling-stroke"/>
	<path d="M1401.7 -66.2L1209.4 -31.1L1192.5 0L1235.5 138.6L1186.3 267.4L-14.3008 166" vector-effect="non-scaling-stroke"/>
	<path d="M1401.7 -44.7998L1259.7 -14.9998L1262.4 0.300171L1298.9 132.5L1235 250.9L-12.1992 139" vector-effect="non-scaling-stroke"/>
</svg>
