<svg viewBox="0 0 1400 1400" stroke="#383E45" fill="none" xmlns="http://www.w3.org/2000/svg" preserveAspectRatio="xMidYMax slice">
    <style>
        @media only screen and (max-width: 130px) and (max-height: 130px) {
            .not_in_preview {
                display: none;
            }
            path {
                stroke-width: .75px;
            }
        }
    </style>
    <path d="M0 1400.3L1401.1 1399.9" vector-effect="non-scaling-stroke"/>
    <path d="M0 1400.3L1403.1 1357" vector-effect="non-scaling-stroke"/>
    <path d="M0 1400.3L1402.2 1316.5" vector-effect="non-scaling-stroke"/>
    <path d="M0 1400.3L1401.3 1278.2" vector-effect="non-scaling-stroke"/>
    <path d="M0 1400.3L1401.5 1241.1" vector-effect="non-scaling-stroke"/>
    <path d="M0 1400.3L1402.9 1205.5" vector-effect="non-scaling-stroke"/>
    <path d="M0 1400.3L1402 1171.5" vector-effect="non-scaling-stroke"/>
    <path d="M0 1400.3L1401.5 1138.8" vector-effect="non-scaling-stroke"/>
    <path d="M0 1400.3L1401.8 1107.5" vector-effect="non-scaling-stroke"/>
    <path d="M0 1400.3L1402.4 1077.3" vector-effect="non-scaling-stroke"/>
    <path d="M0 1400.3L1400.9 1048.5" vector-effect="non-scaling-stroke"/>
    <path d="M0 1400.3L1402.5 1020" vector-effect="non-scaling-stroke"/>
    <path d="M0 1400.3L1402 993.2" vector-effect="non-scaling-stroke"/>
    <path d="M0 1400.3L1401.5 968.6" vector-effect="non-scaling-stroke"/>
    <path d="M0 1400.3L1403 941.6" vector-effect="non-scaling-stroke"/>
    <path d="M0 1400.3L1402 917.7" vector-effect="non-scaling-stroke"/>
    <path d="M0 1400.3L1402.6 894.1" vector-effect="non-scaling-stroke"/>
    <path d="M0 1400.3L1402.5 871.4" vector-effect="non-scaling-stroke"/>
    <path d="M0 1400.3L1406.8 847.7" vector-effect="non-scaling-stroke"/>
    <path d="M0 1400.3L1402.5 828" vector-effect="non-scaling-stroke"/>
    <path d="M1125.9 940.9L1401.8 1094.4" vector-effect="non-scaling-stroke"/>
    <path d="M1153.5 929.6L1400.9 1047.7" vector-effect="non-scaling-stroke"/>
    <path d="M1181.7 918.1L1401.5 1006.5" vector-effect="non-scaling-stroke"/>
    <path d="M1210.3 906.5L1401.5 969.6" vector-effect="non-scaling-stroke"/>
    <path d="M1238.4 895L1403 937.3" vector-effect="non-scaling-stroke"/>
    <path d="M1266.5 883.5L1402 908.6" vector-effect="non-scaling-stroke"/>
    <path d="M1294 872.3L1402.6 884.7" vector-effect="non-scaling-stroke"/>
    <path d="M1321.7 861L1402.5 864.6" vector-effect="non-scaling-stroke"/>
    <path d="M1376.9 838.5L1402.5 836.2" vector-effect="non-scaling-stroke"/>
    <path d="M984.1 998.8L1401.1 1399.9" vector-effect="non-scaling-stroke"/>
    <path d="M1012.3 987.2L1400.8 1327.1" vector-effect="non-scaling-stroke"/>
    <path d="M1040.8 975.6L1401.2 1261.5" vector-effect="non-scaling-stroke"/>
    <path d="M1069 964.1L1402.6 1201.9" vector-effect="non-scaling-stroke"/>
    <path d="M1097.3 952.5L1401.5 1145.1" vector-effect="non-scaling-stroke"/>
</svg>
