<svg viewBox="0 0 1400 1400" stroke="#383E45" fill="none" xmlns="http://www.w3.org/2000/svg" preserveAspectRatio="xMidYMin slice">
    <style>
        @media only screen and (max-width: 130px) and (max-height: 130px) {
            .not_in_preview {
                display: none;
            }
            path {
                stroke-width: .75px;
            }
        }
    </style>
    <path d="M0 0.299866L1401.1 -0.100098" vector-effect="non-scaling-stroke"/>
    <path d="M0 0.299805L1401.5 63.3998" vector-effect="non-scaling-stroke"/>
    <path d="M0 0.299805L1401.9 126.8" vector-effect="non-scaling-stroke"/>
    <path d="M0 0.299805L1402.3 190.3" vector-effect="non-scaling-stroke"/>
    <path d="M0 0.299805L1402.7 253.8" vector-effect="non-scaling-stroke"/>
    <path d="M0 0.299805L1403.1 317.3" vector-effect="non-scaling-stroke"/>
    <path d="M0 0.299805L1403.5 380.8" vector-effect="non-scaling-stroke"/>
    <path d="M0 0.299805L1403.9 444.3" vector-effect="non-scaling-stroke"/>
    <path d="M0 0.299805L1404.3 507.8" vector-effect="non-scaling-stroke"/>
    <path d="M0 0.299805L1404.7 571.3" vector-effect="non-scaling-stroke"/>
    <path d="M0 0.299988L1403.1 -43" vector-effect="non-scaling-stroke"/>
    <path d="M0 570.3L1401.7 569.8" vector-effect="non-scaling-stroke"/>
    <path d="M0 570.3L1401.6 506.5" vector-effect="non-scaling-stroke"/>
    <path d="M0 570.3L1401.5 443.1" vector-effect="non-scaling-stroke"/>
    <path d="M0 570.3L1401.5 379.8" vector-effect="non-scaling-stroke"/>
    <path d="M0 570.3L1401.4 316.5" vector-effect="non-scaling-stroke"/>
    <path d="M0 570.3L1401.3 253.2" vector-effect="non-scaling-stroke"/>
    <path d="M0 570.3L1401.3 189.8" vector-effect="non-scaling-stroke"/>
    <path d="M0 570.3L1401.2 126.5" vector-effect="non-scaling-stroke"/>
    <path d="M0 570.3L1401.1 63.2002" vector-effect="non-scaling-stroke"/>
    <path d="M0 570.3L1401.1 -0.100098" vector-effect="non-scaling-stroke"/>
</svg>
