<svg viewBox="0 0 1400 350" fill="none" xmlns="http://www.w3.org/2000/svg" stroke="#383E45" preserveAspectRatio="xMinYMid slice">
    <style>
        @media only screen and (max-width: 130px) {
            .not_in_preview {
                display: none;
            }
            path {
                stroke-width: .75px;
            }
        }
    </style>
    <path d="M36.2,436.2l472-396c30.1-25.3,71.5-32.6,108.4-19.1L1272.9,260c37,13.4,63.9,45.6,70.8,84.3l16.2,91.9" vector-effect="non-scaling-stroke"/>
    <path class="not_in_preview" d="M68.9,436.2L485.3,61.3c28.7-25.8,69-34.4,105.7-22.5l652.2,211.9c36.7,11.9,64.3,42.6,72.3,80.3l22.4,105.2" vector-effect="non-scaling-stroke"/>
    <path d="M97.9,436.2L463.7,83c27.3-26.3,66.5-36.1,102.9-25.7l647,185.5c36.4,10.4,64.5,39.5,73.7,76.3l29.2,117" vector-effect="non-scaling-stroke"/>
    <path class="not_in_preview" d="M123.8,436.2l319.6-330.9c25.8-26.7,64-37.7,100-28.7l640.8,159.8c36.1,9,64.6,36.6,74.9,72.3l36.6,127.5" vector-effect="non-scaling-stroke"/>
    <path d="M146.8,436.2l277.4-308.1c24.4-27.1,61.4-39.1,97.1-31.5l633.5,134.7c35.7,7.6,64.6,33.6,75.9,68.3l44.4,136.7" vector-effect="non-scaling-stroke"/>
    <path class="not_in_preview" d="M167.4,436.2l239-284.8c23-27.4,58.8-40.4,94-34.2l625.4,110.3c35.2,6.2,64.4,30.7,76.7,64.3l52.6,144.5" vector-effect="non-scaling-stroke"/>
    <path d="M185.8,436.2l204.1-261.2c21.6-27.6,56.2-41.6,90.9-36.7l616.2,86.6c34.7,4.9,64.2,27.9,77.3,60.4l61,150.9" vector-effect="non-scaling-stroke"/>
    <path class="not_in_preview" d="M202.2,436.2l172.3-237.2c20.2-27.8,53.6-42.7,87.8-39.1l606.3,63.7c34.1,3.6,63.8,25.1,77.7,56.5l69.5,156.1" vector-effect="non-scaling-stroke"/>
    <path d="M217,436.2l143.6-212.9c18.8-27.9,51-43.6,84.5-41.2l595.4,41.6c33.5,2.3,63.3,22.4,78,52.6l78,159.9" vector-effect="non-scaling-stroke"/>
    <path class="not_in_preview" d="M230.1,436.2l117.7-188.4c17.4-27.9,48.4-44.4,81.3-43.2L1013,225c32.9,1.1,62.6,19.7,78.1,48.8l86.4,162.5" vector-effect="non-scaling-stroke"/>
    <path d="M241.9,436.2l94.6-163.8c16.1-27.9,45.8-45,78-45H986c32.2,0,61.9,17.2,78,45l94.6,163.8" vector-effect="non-scaling-stroke"/>
    <path class="not_in_preview" d="M252.4,436.2l73.9-139c14.8-27.8,43.2-45.6,74.7-46.7L959.5,231c31.4-1.1,61.1,14.7,77.8,41.3l102.4,163.9" vector-effect="non-scaling-stroke"/>
    <path d="M261.8,436.2L317.5,322c13.5-27.6,40.7-46,71.3-48.1l544.8-38.1c30.7-2.1,60.2,12.2,77.4,37.7l109.8,162.8" vector-effect="non-scaling-stroke"/>
    <path class="not_in_preview" d="M270,436.2l39.9-89.5c12.2-27.4,38.1-46.3,68-49.4l530.5-55.8c29.9-3.1,59.1,9.9,76.8,34.2l116.6,160.5" vector-effect="non-scaling-stroke"/>
    <path d="M277.4,436.2l26.2-64.9c11-27.2,35.6-46.4,64.7-50.5l515.6-72.5c29-4.1,58,7.6,76.1,30.7l122.8,157.1" vector-effect="non-scaling-stroke"/>
    <path class="not_in_preview" d="M283.8,436.2l14.7-40.3c9.8-26.9,33.2-46.5,61.3-51.5l500.3-88.2c28.2-5,56.8,5.5,75.2,27.4l128.1,152.6" vector-effect="non-scaling-stroke"/>
    <path d="M289.4,436.2l5.2-16c8.6-26.5,30.7-46.4,58-52.2L837,265c27.3-5.8,55.6,3.4,74.2,24.1l132.4,147.1" vector-effect="non-scaling-stroke"/>
    <path class="not_in_preview" d="M294.7,436.2c9.1-22.2,28.3-38.9,51.9-44.8l468.3-116.8c26.4-6.6,54.2,1.4,73.1,21l135.7,140.5" vector-effect="non-scaling-stroke"/>
    <path d="M307.4,436.2c9.1-10,20.9-17.6,34.4-21.4l451.7-129.5c25.4-7.3,52.8-0.5,71.9,17.9l137.7,133" vector-effect="non-scaling-stroke"/>
    <path class="not_in_preview" d="M343.5,436.2L773,296.7c24.5-8,51.3-2.2,70.5,15l138.3,124.6" vector-effect="non-scaling-stroke"/>
    <path d="M403.5,436.2l350-127.4c23.5-8.6,49.8-3.9,69,12.2l137.3,115.2" vector-effect="non-scaling-stroke"/>
    <path class="not_in_preview" d="M451.4,436.2l283.4-114.5c22.5-9.1,48.2-5.5,67.4,9.5l134.4,105" vector-effect="non-scaling-stroke"/>
    <path d="M490.4,436.2l226.7-101c21.6-9.6,46.6-7,65.7,6.9l129.4,94" vector-effect="non-scaling-stroke"/>
    <path class="not_in_preview" d="M522.6,436.2l177.9-86.8c20.6-10,44.9-8.3,63.9,4.5l122,82.3" vector-effect="non-scaling-stroke"/>
    <path d="M549.3,436.2l135.5-72.1c19.6-10.4,43.2-9.6,62,2.2l111.8,69.9" vector-effect="non-scaling-stroke"/>
    <path class="not_in_preview" d="M571.8,436.2l98.4-56.8c18.6-10.7,41.5-10.7,60,0l98.4,56.8" vector-effect="non-scaling-stroke"/>
    <path d="M590.8,436.2l65.8-41.1c17.6-11,39.7-11.8,58-2l81.1,43.1" vector-effect="non-scaling-stroke"/>
    <path class="not_in_preview" d="M607,436.2l37.1-25c16.6-11.2,37.9-12.7,55.9-3.9l59.3,28.9" vector-effect="non-scaling-stroke"/>
    <path d="M620.8,436.2l11.8-8.6c15.6-11.3,36.1-13.5,53.7-5.6l31.9,14.2" vector-effect="non-scaling-stroke"/>
    <path class="not_in_preview" d="M637.3,436.2c10.8-3.7,22.8-3.8,33.9,0" vector-effect="non-scaling-stroke"/>
</svg>
