<svg xmlns="http://www.w3.org/2000/svg" xmlns:xlink="http://www.w3.org/1999/xlink" width="2205" height="2205" xmlns:v="https://vecta.io/nano"><path fill="#fff" d="M0 0h2205v2205H0z"/><g transform="translate(90 90)"><g fill="#714b67"><path d="M360 0h45v45h-45z"/><path d="M405 0h45v45h-45z"/><path d="M450 0h45v45h-45zm135 0h45v45h-45z"/><path d="M630 0h45v45h-45z"/><path d="M675 0h45v45h-45z"/><path d="M720 0h45v45h-45zm90 0h45v45h-45z"/><path d="M855 0h45v45h-45z"/><path d="M900 0h45v45h-45zm180 0h45v45h-45zm135 0h45v45h-45z"/><path d="M1260 0h45v45h-45z"/><path d="M1305 0h45v45h-45z"/><path d="M1350 0h45v45h-45z"/><path d="M1395 0h45v45h-45z"/><path d="M1440 0h45v45h-45z"/><path d="M1485 0h45v45h-45zm135 0h45v45h-45zM360 45h45v45h-45zm180 0h45v45h-45zm180 0h45v45h-45zm90 0h45v45h-45zm135 0h45v45h-45zm225 0h45v45h-45z"/><path d="M1215 45h45v45h-45z"/><path d="M1260 45h45v45h-45zm90 0h45v45h-45zm135 0h45v45h-45zm90 0h45v45h-45zM405 90h45v45h-45zm315 0h45v45h-45zm225 0h45v45h-45zm135 0h45v45h-45z"/><path d="M1215 90h45v45h-45z"/><path d="M1260 90h45v45h-45zm315 0h45v45h-45zM360 135h45v45h-45z"/><path d="M405 135h45v45h-45z"/><path d="M450 135h45v45h-45zm270 0h45v45h-45zm135 0h45v45h-45zm90 0h45v45h-45zm90 0h45v45h-45z"/><path d="M1080 135h45v45h-45z"/><path d="M1125 135h45v45h-45zm90 0h45v45h-45zm135 0h45v45h-45zm90 0h45v45h-45zm135 0h45v45h-45z"/><path d="M1620 135h45v45h-45zM360 180h45v45h-45zm90 0h45v45h-45zm180 0h45v45h-45z"/><path d="M675 180h45v45h-45z"/><path d="M720 180h45v45h-45z"/><path d="M765 180h45v45h-45zm90 0h45v45h-45z"/><path d="M900 180h45v45h-45z"/><path d="M945 180h45v45h-45z"/><path d="M990 180h45v45h-45z"/><path d="M1035 180h45v45h-45z"/><path d="M1080 180h45v45h-45z"/><path d="M1125 180h45v45h-45zm135 0h45v45h-45z"/><path d="M1305 180h45v45h-45z"/><path d="M1350 180h45v45h-45z"/><path d="M1395 180h45v45h-45zm90 0h45v45h-45z"/><path d="M1530 180h45v45h-45z"/><path d="M1575 180h45v45h-45z"/><path d="M1620 180h45v45h-45zM360 225h45v45h-45z"/><path d="M405 225h45v45h-45z"/><path d="M450 225h45v45h-45zm225 0h45v45h-45zm90 0h45v45h-45zm90 0h45v45h-45z"/><path d="M900 225h45v45h-45zm180 0h45v45h-45z"/><path d="M1125 225h45v45h-45zm180 0h45v45h-45z"/><path d="M1350 225h45v45h-45zm135 0h45v45h-45zM360 270h45v45h-45zm90 0h45v45h-45zm90 0h45v45h-45zm90 0h45v45h-45zm90 0h45v45h-45zm90 0h45v45h-45zm90 0h45v45h-45zm90 0h45v45h-45zm90 0h45v45h-45zm90 0h45v45h-45zm90 0h45v45h-45z"/><path d="M1350 270h45v45h-45zm90 0h45v45h-45zm90 0h45v45h-45zm90 0h45v45h-45zM450 315h45v45h-45zm90 0h45v45h-45z"/><path d="M585 315h45v45h-45zm225 0h45v45h-45zm90 0h45v45h-45zm180 0h45v45h-45zm180 0h45v45h-45zm180 0h45v45h-45zm135 0h45v45h-45zM135 360h45v45h-45zm135 0h45v45h-45zm180 0h45v45h-45z"/><path d="M540 360h45v45h-45z"/><path d="M585 360h45v45h-45z"/><path d="M630 360h45v45h-45z"/><path d="M675 360h45v45h-45z"/><path d="M720 360h45v45h-45zm90 0h45v45h-45z"/><path d="M855 360h45v45h-45z"/><path d="M900 360h45v45h-45z"/><path d="M945 360h45v45h-45z"/><path d="M990 360h45v45h-45z"/><path d="M1035 360h45v45h-45z"/><path d="M1080 360h45v45h-45z"/><path d="M1125 360h45v45h-45zm90 0h45v45h-45zm135 0h45v45h-45zm135 0h45v45h-45zm270 0h45v45h-45z"/><path d="M1800 360h45v45h-45z"/><path d="M1845 360h45v45h-45zm90 0h45v45h-45z"/><path d="M1980 360h45v45h-45zM45 405h45v45H45zm135 0h45v45h-45z"/><path d="M225 405h45v45h-45zm90 0h45v45h-45z"/><path d="M360 405h45v45h-45zm315 0h45v45h-45zm90 0h45v45h-45z"/><path d="M810 405h45v45h-45zm90 0h45v45h-45zm90 0h45v45h-45z"/><path d="M1035 405h45v45h-45z"/><path d="M1080 405h45v45h-45z"/><path d="M1125 405h45v45h-45zm90 0h45v45h-45z"/><path d="M1260 405h45v45h-45zm225 0h45v45h-45zm90 0h45v45h-45zm180 0h45v45h-45z"/><path d="M1800 405h45v45h-45zm135 0h45v45h-45z"/><path d="M1980 405h45v45h-45zM90 450h45v45H90z"/><path d="M135 450h45v45h-45zm135 0h45v45h-45zm90 0h45v45h-45z"/><path d="M405 450h45v45h-45zm270 0h45v45h-45z"/><path d="M720 450h45v45h-45z"/><path d="M765 450h45v45h-45z"/><path d="M810 450h45v45h-45zm180 0h45v45h-45zm90 0h45v45h-45z"/><path d="M1125 450h45v45h-45zm135 0h45v45h-45z"/><path d="M1305 450h45v45h-45zm225 0h45v45h-45zm90 0h45v45h-45z"/><path d="M1665 450h45v45h-45zm90 0h45v45h-45z"/><path d="M1800 450h45v45h-45zm90 0h45v45h-45zm90 0h45v45h-45zM0 495h45v45H0z"/><path d="M45 495h45v45H45zm135 0h45v45h-45zm135 0h45v45h-45zm315 0h45v45h-45zm90 0h45v45h-45z"/><path d="M765 495h45v45h-45z"/><path d="M810 495h45v45h-45zm90 0h45v45h-45zm315 0h45v45h-45z"/><path d="M1260 495h45v45h-45z"/><path d="M1305 495h45v45h-45z"/><path d="M1350 495h45v45h-45z"/><path d="M1395 495h45v45h-45zm135 0h45v45h-45z"/><path d="M1575 495h45v45h-45zm90 0h45v45h-45z"/><path d="M1710 495h45v45h-45zm90 0h45v45h-45z"/><path d="M1845 495h45v45h-45zm135 0h45v45h-45zM0 540h45v45H0z"/><path d="M45 540h45v45H45z"/><path d="M90 540h45v45H90zm135 0h45v45h-45z"/><path d="M270 540h45v45h-45zm90 0h45v45h-45zm90 0h45v45h-45z"/><path d="M495 540h45v45h-45zm90 0h45v45h-45z"/><path d="M630 540h45v45h-45z"/><path d="M675 540h45v45h-45z"/><path d="M720 540h45v45h-45zm180 0h45v45h-45z"/><path d="M945 540h45v45h-45zm90 0h45v45h-45z"/><path d="M1080 540h45v45h-45zm90 0h45v45h-45z"/><path d="M1215 540h45v45h-45z"/><path d="M1260 540h45v45h-45zm135 0h45v45h-45z"/><path d="M1440 540h45v45h-45zm135 0h45v45h-45zm135 0h45v45h-45zm90 0h45v45h-45zm180 0h45v45h-45zM0 585h45v45H0z"/><path d="M45 585h45v45H45z"/><path d="M90 585h45v45H90z"/><path d="M135 585h45v45h-45zm90 0h45v45h-45zm90 0h45v45h-45zm90 0h45v45h-45z"/><path d="M450 585h45v45h-45zm90 0h45v45h-45z"/><path d="M585 585h45v45h-45zm540 0h45v45h-45z"/><path d="M1170 585h45v45h-45zm360 0h45v45h-45zm135 0h45v45h-45zm180 0h45v45h-45z"/><path d="M1890 585h45v45h-45zm90 0h45v45h-45zM135 630h45v45h-45zm90 0h45v45h-45z"/><path d="M270 630h45v45h-45zm135 0h45v45h-45zm180 0h45v45h-45z"/><path d="M630 630h45v45h-45zm135 0h45v45h-45zm90 0h45v45h-45zm90 0h45v45h-45zm90 0h45v45h-45zm90 0h45v45h-45zm90 0h45v45h-45zm90 0h45v45h-45zm90 0h45v45h-45zm180 0h45v45h-45z"/><path d="M1620 630h45v45h-45z"/><path d="M1665 630h45v45h-45z"/><path d="M1710 630h45v45h-45zm90 0h45v45h-45z"/><path d="M1845 630h45v45h-45z"/><path d="M1890 630h45v45h-45z"/><path d="M1935 630h45v45h-45zM90 675h45v45H90z"/><path d="M135 675h45v45h-45zm90 0h45v45h-45zm90 0h45v45h-45z"/><path d="M360 675h45v45h-45zm225 0h45v45h-45zm90 0h45v45h-45z"/><path d="M720 675h45v45h-45zm135 0h45v45h-45z"/><path d="M900 675h45v45h-45z"/><path d="M945 675h45v45h-45z"/><path d="M990 675h45v45h-45z"/><path d="M1035 675h45v45h-45z"/><path d="M1080 675h45v45h-45zm135 0h45v45h-45z"/><path d="M1260 675h45v45h-45z"/><path d="M1305 675h45v45h-45zm90 0h45v45h-45z"/><path d="M1440 675h45v45h-45z"/><path d="M1485 675h45v45h-45zm90 0h45v45h-45zm180 0h45v45h-45z"/><path d="M1800 675h45v45h-45zm135 0h45v45h-45zM45 720h45v45H45zm90 0h45v45h-45z"/><path d="M180 720h45v45h-45z"/><path d="M225 720h45v45h-45z"/><path d="M270 720h45v45h-45z"/><path d="M315 720h45v45h-45z"/><path d="M360 720h45v45h-45zm135 0h45v45h-45z"/><path d="M540 720h45v45h-45zm225 0h45v45h-45z"/><path d="M810 720h45v45h-45zm135 0h45v45h-45zm180 0h45v45h-45z"/><path d="M1170 720h45v45h-45zm135 0h45v45h-45z"/><path d="M1350 720h45v45h-45z"/><path d="M1395 720h45v45h-45z"/><path d="M1440 720h45v45h-45zm405 0h45v45h-45zm135 0h45v45h-45zM45 765h45v45H45zm90 0h45v45h-45zm180 0h45v45h-45z"/><path d="M360 765h45v45h-45zm90 0h45v45h-45zm180 0h45v45h-45z"/><path d="M675 765h45v45h-45z"/><path d="M720 765h45v45h-45z"/><path d="M765 765h45v45h-45zm90 0h45v45h-45z"/><path d="M900 765h45v45h-45zm90 0h45v45h-45z"/><path d="M1035 765h45v45h-45zm135 0h45v45h-45zm270 0h45v45h-45zm270 0h45v45h-45zm135 0h45v45h-45zm90 0h45v45h-45zM0 810h45v45H0z"/><path d="M45 810h45v45H45zm135 0h45v45h-45z"/><path d="M225 810h45v45h-45z"/><path d="M270 810h45v45h-45zm135 0h45v45h-45zm90 0h45v45h-45z"/><path d="M540 810h45v45h-45zm90 0h45v45h-45zm90 0h45v45h-45zm180 0h45v45h-45zm90 0h45v45h-45zm180 0h45v45h-45zm90 0h45v45h-45z"/><path d="M1305 810h45v45h-45z"/><path d="M1350 810h45v45h-45z"/><path d="M1395 810h45v45h-45zm90 0h45v45h-45zm90 0h45v45h-45z"/><path d="M1620 810h45v45h-45zm135 0h45v45h-45z"/><path d="M1800 810h45v45h-45z"/><path d="M1845 810h45v45h-45zm90 0h45v45h-45z"/><path d="M1980 810h45v45h-45zM90 855h45v45H90z"/><path d="M135 855h45v45h-45zm90 0h45v45h-45zm180 0h45v45h-45zm135 0h45v45h-45zm180 0h45v45h-45z"/><path d="M765 855h45v45h-45zm180 0h45v45h-45zm90 0h45v45h-45z"/><path d="M1080 855h45v45h-45zm270 0h45v45h-45zm90 0h45v45h-45zm225 0h45v45h-45z"/><path d="M1710 855h45v45h-45z"/><path d="M1755 855h45v45h-45zm225 0h45v45h-45zM0 900h45v45H0z"/><path d="M45 900h45v45H45zm135 0h45v45h-45z"/><path d="M225 900h45v45h-45z"/><path d="M270 900h45v45h-45z"/><path d="M315 900h45v45h-45z"/><path d="M360 900h45v45h-45zm225 0h45v45h-45zm90 0h45v45h-45z"/><path d="M720 900h45v45h-45z"/><path d="M765 900h45v45h-45z"/><path d="M810 900h45v45h-45zm90 0h45v45h-45z"/><path d="M945 900h45v45h-45z"/><path d="M990 900h45v45h-45z"/><path d="M1035 900h45v45h-45z"/><path d="M1080 900h45v45h-45z"/><path d="M1125 900h45v45h-45zm90 0h45v45h-45z"/><path d="M1260 900h45v45h-45z"/><path d="M1305 900h45v45h-45zm90 0h45v45h-45zm90 0h45v45h-45z"/><path d="M1530 900h45v45h-45z"/><path d="M1575 900h45v45h-45z"/><path d="M1620 900h45v45h-45z"/><path d="M1665 900h45v45h-45z"/><path d="M1710 900h45v45h-45z"/><path d="M1755 900h45v45h-45z"/><path d="M1800 900h45v45h-45z"/><path d="M1845 900h45v45h-45zm90 0h45v45h-45z"/><path d="M1980 900h45v45h-45zM180 945h45v45h-45zm180 0h45v45h-45z"/><path d="M405 945h45v45h-45z"/><path d="M450 945h45v45h-45zm135 0h45v45h-45zm135 0h45v45h-45zm90 0h45v45h-45z"/><path d="M855 945h45v45h-45z"/><path d="M900 945h45v45h-45zm180 0h45v45h-45z"/><path d="M1125 945h45v45h-45z"/><path d="M1170 945h45v45h-45z"/><path d="M1215 945h45v45h-45zm135 0h45v45h-45z"/><path d="M1395 945h45v45h-45zm225 0h45v45h-45zm180 0h45v45h-45zm90 0h45v45h-45z"/><path d="M1935 945h45v45h-45z"/><path d="M1980 945h45v45h-45zM0 990h45v45H0z"/><path d="M45 990h45v45H45zm90 0h45v45h-45z"/><path d="M180 990h45v45h-45zm90 0h45v45h-45zm90 0h45v45h-45z"/><path d="M405 990h45v45h-45zm135 0h45v45h-45zm135 0h45v45h-45z"/><path d="M720 990h45v45h-45zm180 0h45v45h-45zm90 0h45v45h-45zm90 0h45v45h-45zm135 0h45v45h-45zm135 0h45v45h-45zm180 0h45v45h-45zm90 0h45v45h-45zm90 0h45v45h-45zm90 0h45v45h-45z"/><path d="M1845 990h45v45h-45zm135 0h45v45h-45zM0 1035h45v45H0zm180 0h45v45h-45zm180 0h45v45h-45z"/><path d="M405 1035h45v45h-45zm90 0h45v45h-45z"/><path d="M540 1035h45v45h-45zm135 0h45v45h-45zm135 0h45v45h-45z"/><path d="M855 1035h45v45h-45z"/><path d="M900 1035h45v45h-45zm180 0h45v45h-45z"/><path d="M1125 1035h45v45h-45zm90 0h45v45h-45z"/><path d="M1260 1035h45v45h-45zm135 0h45v45h-45z"/><path d="M1440 1035h45v45h-45z"/><path d="M1485 1035h45v45h-45z"/><path d="M1530 1035h45v45h-45zm90 0h45v45h-45zm180 0h45v45h-45z"/><path d="M1845 1035h45v45h-45zm135 0h45v45h-45zM0 1080h45v45H0zm180 0h45v45h-45z"/><path d="M225 1080h45v45h-45z"/><path d="M270 1080h45v45h-45z"/><path d="M315 1080h45v45h-45z"/><path d="M360 1080h45v45h-45zm180 0h45v45h-45zm135 0h45v45h-45z"/><path d="M720 1080h45v45h-45z"/><path d="M765 1080h45v45h-45z"/><path d="M810 1080h45v45h-45z"/><path d="M855 1080h45v45h-45z"/><path d="M900 1080h45v45h-45z"/><path d="M945 1080h45v45h-45z"/><path d="M990 1080h45v45h-45z"/><path d="M1035 1080h45v45h-45z"/><path d="M1080 1080h45v45h-45zm90 0h45v45h-45zm90 0h45v45h-45zm180 0h45v45h-45z"/><path d="M1485 1080h45v45h-45z"/><path d="M1530 1080h45v45h-45zm90 0h45v45h-45z"/><path d="M1665 1080h45v45h-45z"/><path d="M1710 1080h45v45h-45z"/><path d="M1755 1080h45v45h-45z"/><path d="M1800 1080h45v45h-45z"/><path d="M1845 1080h45v45h-45zm90 0h45v45h-45zM0 1125h45v45H0zm90 0h45v45H90zm135 0h45v45h-45zm135 0h45v45h-45z"/><path d="M405 1125h45v45h-45z"/><path d="M450 1125h45v45h-45zm135 0h45v45h-45zm90 0h45v45h-45zm90 0h45v45h-45zm135 0h45v45h-45z"/><path d="M945 1125h45v45h-45z"/><path d="M990 1125h45v45h-45zm135 0h45v45h-45zm135 0h45v45h-45zm90 0h45v45h-45z"/><path d="M1395 1125h45v45h-45zm135 0h45v45h-45zm135 0h45v45h-45z"/><path d="M1710 1125h45v45h-45zm90 0h45v45h-45z"/><path d="M1845 1125h45v45h-45z"/><path d="M1890 1125h45v45h-45zm90 0h45v45h-45zm-1800 45h45v45h-45z"/><path d="M225 1170h45v45h-45z"/><path d="M270 1170h45v45h-45z"/><path d="M315 1170h45v45h-45zm90 0h45v45h-45zm180 0h45v45h-45z"/><path d="M630 1170h45v45h-45z"/><path d="M675 1170h45v45h-45zm270 0h45v45h-45zm90 0h45v45h-45zm135 0h45v45h-45z"/><path d="M1215 1170h45v45h-45zm90 0h45v45h-45zm90 0h45v45h-45zm225 0h45v45h-45z"/><path d="M1665 1170h45v45h-45zm90 0h45v45h-45zm135 0h45v45h-45z"/><path d="M1935 1170h45v45h-45zM0 1215h45v45H0zm90 0h45v45H90zm315 0h45v45h-45zm135 0h45v45h-45z"/><path d="M585 1215h45v45h-45zm135 0h45v45h-45zm180 0h45v45h-45z"/><path d="M945 1215h45v45h-45zm135 0h45v45h-45z"/><path d="M1125 1215h45v45h-45zm90 0h45v45h-45zm90 0h45v45h-45z"/><path d="M1350 1215h45v45h-45z"/><path d="M1395 1215h45v45h-45z"/><path d="M1440 1215h45v45h-45zm90 0h45v45h-45zm90 0h45v45h-45z"/><path d="M1665 1215h45v45h-45z"/><path d="M1710 1215h45v45h-45zm90 0h45v45h-45zm180 0h45v45h-45zM0 1260h45v45H0z"/><path d="M45 1260h45v45H45zm90 0h45v45h-45z"/><path d="M180 1260h45v45h-45zm90 0h45v45h-45zm135 0h45v45h-45zm90 0h45v45h-45zm90 0h45v45h-45zm90 0h45v45h-45zm90 0h45v45h-45zm90 0h45v45h-45zm180 0h45v45h-45z"/><path d="M1080 1260h45v45h-45zm135 0h45v45h-45zm135 0h45v45h-45zm90 0h45v45h-45z"/><path d="M1485 1260h45v45h-45z"/><path d="M1530 1260h45v45h-45zm225 0h45v45h-45z"/><path d="M1800 1260h45v45h-45zM90 1305h45v45H90zm135 0h45v45h-45zm90 0h45v45h-45zm180 0h45v45h-45zm180 0h45v45h-45z"/><path d="M720 1305h45v45h-45zm180 0h45v45h-45zm90 0h45v45h-45z"/><path d="M1035 1305h45v45h-45z"/><path d="M1080 1305h45v45h-45zm270 0h45v45h-45zm225 0h45v45h-45z"/><path d="M1620 1305h45v45h-45zm225 0h45v45h-45z"/><path d="M1890 1305h45v45h-45z"/><path d="M1935 1305h45v45h-45zM0 1350h45v45H0zm135 0h45v45h-45z"/><path d="M180 1350h45v45h-45z"/><path d="M225 1350h45v45h-45z"/><path d="M270 1350h45v45h-45zm90 0h45v45h-45zm225 0h45v45h-45z"/><path d="M630 1350h45v45h-45z"/><path d="M675 1350h45v45h-45zm90 0h45v45h-45zm90 0h45v45h-45z"/><path d="M900 1350h45v45h-45zm90 0h45v45h-45zm135 0h45v45h-45zm90 0h45v45h-45zm180 0h45v45h-45zm90 0h45v45h-45zm90 0h45v45h-45z"/><path d="M1620 1350h45v45h-45z"/><path d="M1665 1350h45v45h-45z"/><path d="M1710 1350h45v45h-45zm90 0h45v45h-45z"/><path d="M1845 1350h45v45h-45zm90 0h45v45h-45z"/><path d="M1980 1350h45v45h-45zm-1845 45h45v45h-45zm90 0h45v45h-45zm225 0h45v45h-45zm180 0h45v45h-45z"/><path d="M675 1395h45v45h-45zm135 0h45v45h-45z"/><path d="M855 1395h45v45h-45zm135 0h45v45h-45zm90 0h45v45h-45zm90 0h45v45h-45zm90 0h45v45h-45zm180 0h45v45h-45z"/><path d="M1485 1395h45v45h-45z"/><path d="M1530 1395h45v45h-45zm90 0h45v45h-45zm90 0h45v45h-45zm90 0h45v45h-45zM0 1440h45v45H0z"/><path d="M45 1440h45v45H45zm225 0h45v45h-45z"/><path d="M315 1440h45v45h-45zm135 0h45v45h-45zm90 0h45v45h-45zm90 0h45v45h-45z"/><path d="M675 1440h45v45h-45z"/><path d="M720 1440h45v45h-45z"/><path d="M765 1440h45v45h-45zm315 0h45v45h-45z"/><path d="M1125 1440h45v45h-45z"/><path d="M1170 1440h45v45h-45z"/><path d="M1215 1440h45v45h-45zm90 0h45v45h-45z"/><path d="M1350 1440h45v45h-45z"/><path d="M1395 1440h45v45h-45zm90 0h45v45h-45zm90 0h45v45h-45zm90 0h45v45h-45z"/><path d="M1710 1440h45v45h-45zm135 0h45v45h-45zm90 0h45v45h-45zM45 1485h45v45H45z"/><path d="M90 1485h45v45H90z"/><path d="M135 1485h45v45h-45zm90 0h45v45h-45zm180 0h45v45h-45zm90 0h45v45h-45z"/><path d="M540 1485h45v45h-45zm180 0h45v45h-45z"/><path d="M765 1485h45v45h-45z"/><path d="M810 1485h45v45h-45z"/><path d="M855 1485h45v45h-45zm135 0h45v45h-45zm135 0h45v45h-45zm135 0h45v45h-45zm180 0h45v45h-45zm135 0h45v45h-45zm180 0h45v45h-45zm225 0h45v45h-45zm-1800 45h45v45h-45zm90 0h45v45h-45z"/><path d="M315 1530h45v45h-45z"/><path d="M360 1530h45v45h-45zm90 0h45v45h-45z"/><path d="M495 1530h45v45h-45z"/><path d="M540 1530h45v45h-45z"/><path d="M585 1530h45v45h-45z"/><path d="M630 1530h45v45h-45zm270 0h45v45h-45zm90 0h45v45h-45zm135 0h45v45h-45zm90 0h45v45h-45z"/><path d="M1260 1530h45v45h-45z"/><path d="M1305 1530h45v45h-45zm225 0h45v45h-45z"/><path d="M1575 1530h45v45h-45zm135 0h45v45h-45z"/><path d="M1755 1530h45v45h-45z"/><path d="M1800 1530h45v45h-45zm90 0h45v45h-45zm90 0h45v45h-45zM45 1575h45v45H45z"/><path d="M90 1575h45v45H90z"/><path d="M135 1575h45v45h-45z"/><path d="M180 1575h45v45h-45zm180 0h45v45h-45z"/><path d="M405 1575h45v45h-45z"/><path d="M450 1575h45v45h-45z"/><path d="M495 1575h45v45h-45zm90 0h45v45h-45zm90 0h45v45h-45zm135 0h45v45h-45zm135 0h45v45h-45z"/><path d="M990 1575h45v45h-45zm90 0h45v45h-45z"/><path d="M1125 1575h45v45h-45z"/><path d="M1170 1575h45v45h-45zm135 0h45v45h-45z"/><path d="M1350 1575h45v45h-45z"/><path d="M1395 1575h45v45h-45zm90 0h45v45h-45zm90 0h45v45h-45z"/><path d="M1620 1575h45v45h-45z"/><path d="M1665 1575h45v45h-45zm135 0h45v45h-45z"/><path d="M1845 1575h45v45h-45zM0 1620h45v45H0zm135 0h45v45h-45z"/><path d="M180 1620h45v45h-45zm90 0h45v45h-45zm225 0h45v45h-45zm405 0h45v45h-45z"/><path d="M945 1620h45v45h-45z"/><path d="M990 1620h45v45h-45z"/><path d="M1035 1620h45v45h-45z"/><path d="M1080 1620h45v45h-45zm90 0h45v45h-45z"/><path d="M1215 1620h45v45h-45z"/><path d="M1260 1620h45v45h-45zm90 0h45v45h-45z"/><path d="M1395 1620h45v45h-45z"/><path d="M1440 1620h45v45h-45z"/><path d="M1485 1620h45v45h-45zm135 0h45v45h-45z"/><path d="M1665 1620h45v45h-45z"/><path d="M1710 1620h45v45h-45z"/><path d="M1755 1620h45v45h-45z"/><path d="M1800 1620h45v45h-45z"/><path d="M1845 1620h45v45h-45zm135 0h45v45h-45zm-1620 45h45v45h-45z"/><path d="M405 1665h45v45h-45zm90 0h45v45h-45zm90 0h45v45h-45z"/><path d="M630 1665h45v45h-45zm90 0h45v45h-45z"/><path d="M765 1665h45v45h-45zm90 0h45v45h-45z"/><path d="M900 1665h45v45h-45zm180 0h45v45h-45z"/><path d="M1125 1665h45v45h-45z"/><path d="M1170 1665h45v45h-45z"/><path d="M1215 1665h45v45h-45zm135 0h45v45h-45z"/><path d="M1395 1665h45v45h-45z"/><path d="M1440 1665h45v45h-45z"/><path d="M1485 1665h45v45h-45z"/><path d="M1530 1665h45v45h-45zm90 0h45v45h-45zm180 0h45v45h-45zm90 0h45v45h-45zm90 0h45v45h-45zm-1530 45h45v45h-45zm135 0h45v45h-45zm90 0h45v45h-45z"/><path d="M720 1710h45v45h-45zm135 0h45v45h-45z"/><path d="M900 1710h45v45h-45zm90 0h45v45h-45zm90 0h45v45h-45z"/><path d="M1125 1710h45v45h-45zm90 0h45v45h-45zm90 0h45v45h-45z"/><path d="M1350 1710h45v45h-45z"/><path d="M1395 1710h45v45h-45z"/><path d="M1440 1710h45v45h-45zm135 0h45v45h-45z"/><path d="M1620 1710h45v45h-45zm90 0h45v45h-45zm90 0h45v45h-45zm-1350 45h45v45h-45z"/><path d="M495 1755h45v45h-45z"/><path d="M540 1755h45v45h-45z"/><path d="M585 1755h45v45h-45zm90 0h45v45h-45zm90 0h45v45h-45z"/><path d="M810 1755h45v45h-45z"/><path d="M855 1755h45v45h-45z"/><path d="M900 1755h45v45h-45zm180 0h45v45h-45z"/><path d="M1125 1755h45v45h-45zm90 0h45v45h-45z"/><path d="M1260 1755h45v45h-45z"/><path d="M1305 1755h45v45h-45zm90 0h45v45h-45z"/><path d="M1440 1755h45v45h-45z"/><path d="M1485 1755h45v45h-45zm90 0h45v45h-45z"/><path d="M1620 1755h45v45h-45zm180 0h45v45h-45zm-1395 45h45v45h-45z"/><path d="M450 1800h45v45h-45zm90 0h45v45h-45z"/><path d="M585 1800h45v45h-45z"/><path d="M630 1800h45v45h-45zm90 0h45v45h-45zm90 0h45v45h-45zm90 0h45v45h-45z"/><path d="M945 1800h45v45h-45z"/><path d="M990 1800h45v45h-45z"/><path d="M1035 1800h45v45h-45z"/><path d="M1080 1800h45v45h-45z"/><path d="M1125 1800h45v45h-45zm90 0h45v45h-45z"/><path d="M1260 1800h45v45h-45zm180 0h45v45h-45z"/><path d="M1485 1800h45v45h-45z"/><path d="M1530 1800h45v45h-45zm90 0h45v45h-45z"/><path d="M1665 1800h45v45h-45z"/><path d="M1710 1800h45v45h-45z"/><path d="M1755 1800h45v45h-45z"/><path d="M1800 1800h45v45h-45zm135 0h45v45h-45zm-1575 45h45v45h-45zm90 0h45v45h-45zm90 0h45v45h-45z"/><path d="M585 1845h45v45h-45zm90 0h45v45h-45zm135 0h45v45h-45z"/><path d="M855 1845h45v45h-45z"/><path d="M900 1845h45v45h-45zm135 0h45v45h-45z"/><path d="M1080 1845h45v45h-45zm180 0h45v45h-45z"/><path d="M1305 1845h45v45h-45z"/><path d="M1350 1845h45v45h-45z"/><path d="M1395 1845h45v45h-45z"/><path d="M1440 1845h45v45h-45zm180 0h45v45h-45z"/><path d="M1665 1845h45v45h-45z"/><path d="M1710 1845h45v45h-45zm90 0h45v45h-45zm-1350 45h45v45h-45zm180 0h45v45h-45zm90 0h45v45h-45zm90 0h45v45h-45zm90 0h45v45h-45zm135 0h45v45h-45z"/><path d="M1080 1890h45v45h-45z"/><path d="M1125 1890h45v45h-45z"/><path d="M1170 1890h45v45h-45zm135 0h45v45h-45zm135 0h45v45h-45zm135 0h45v45h-45z"/><path d="M1620 1890h45v45h-45z"/><path d="M1665 1890h45v45h-45zm90 0h45v45h-45z"/><path d="M1800 1890h45v45h-45zm180 0h45v45h-45zm-1530 45h45v45h-45z"/><path d="M495 1935h45v45h-45zm90 0h45v45h-45zm90 0h45v45h-45zm90 0h45v45h-45zm90 0h45v45h-45zm135 0h45v45h-45zm135 0h45v45h-45z"/><path d="M1170 1935h45v45h-45z"/><path d="M1215 1935h45v45h-45z"/><path d="M1260 1935h45v45h-45z"/><path d="M1305 1935h45v45h-45zm135 0h45v45h-45zm135 0h45v45h-45zm180 0h45v45h-45z"/><path d="M1800 1935h45v45h-45zm-1395 45h45v45h-45z"/><path d="M450 1980h45v45h-45zm180 0h45v45h-45z"/><path d="M675 1980h45v45h-45zm135 0h45v45h-45zm90 0h45v45h-45z"/><path d="M945 1980h45v45h-45z"/><path d="M990 1980h45v45h-45zm90 0h45v45h-45z"/><path d="M1125 1980h45v45h-45z"/><path d="M1170 1980h45v45h-45z"/><path d="M1215 1980h45v45h-45z"/><path d="M1260 1980h45v45h-45z"/><path d="M1305 1980h45v45h-45zm90 0h45v45h-45zm135 0h45v45h-45zm135 0h45v45h-45z"/><path d="M1710 1980h45v45h-45z"/><path d="M1755 1980h45v45h-45zm90 0h45v45h-45zm90 0h45v45h-45zM157.5 3.088C72.225 3.088 3.088 72.225 3.088 157.5S72.225 311.912 157.5 311.912 311.912 242.775 311.912 157.5 242.775 3.088 157.5 3.088zm0 262.5c-59.6 0-108.088-48.488-108.088-108.088S97.9 49.412 157.5 49.412 265.588 97.9 265.588 157.5 217.1 265.588 157.5 265.588zm1710-262.5c-85.275 0-154.412 69.136-154.412 154.412s69.136 154.412 154.412 154.412 154.412-69.136 154.412-154.412S1952.775 3.088 1867.5 3.088zm0 262.5c-59.6 0-108.088-48.488-108.088-108.088S1807.9 49.412 1867.5 49.412 1975.588 97.9 1975.588 157.5 1927.1 265.588 1867.5 265.588zm-1710 1447.5c-85.275 0-154.412 69.136-154.412 154.412s69.136 154.412 154.412 154.412 154.412-69.136 154.412-154.412-69.136-154.412-154.412-154.412zm0 262.5c-59.6 0-108.088-48.488-108.088-108.088S97.9 1759.412 157.5 1759.412 265.588 1807.9 265.588 1867.5 217.1 1975.588 157.5 1975.588z"/><circle cx="50" cy="50" r="50" transform="matrix(1.323529 0 0 1.323529 90 90)"/><circle cx="50" cy="50" r="50" transform="matrix(1.323529 0 0 1.323529 1800 90)"/><circle cx="50" cy="50" r="50" transform="matrix(1.323529 0 0 1.323529 90 1800)"/></g><g transform="matrix(.585 0 0 .585 720 720)"><svg width="1000" height="1000"><g transform="matrix(31.265509 0 0 31.265509 41.468982 -.24486)"><defs><path d="M23.028 11.518l-6.69-3.862L3.43.203C2.715-.211 2 .039 2 .902v15.029 15.333c0 .649.512.93 1.133.569l13.205-7.625 6.69-3.862 6.433-3.714c.754-.435.683-1.032.045-1.376s-6.478-3.738-6.478-3.738z" id="A"/></defs><clipPath id="B"><use width="32" height="32" xlink:href="#A"/></clipPath><path clip-path="url(#B)" d="M2 32.367l16.577-16.435L2-.504v16.436z" fill="#2cafa2"/><path clip-path="url(#B)" d="M18.577 15.932l4.451-4.414-6.69-3.863L2-.624v.12z" fill="#77e888"/><path clip-path="url(#B)" d="M18.577 15.932L2 32.367v.12l14.338-8.278 6.69-3.862z" fill="#cc3a72"/><path clip-path="url(#B)" d="M23.028 20.347l7.648-4.415-7.648-4.414-4.451 4.414z" fill="#ea9053"/></g></svg></g></g></svg>