<svg xmlns="http://www.w3.org/2000/svg" xmlns:xlink="http://www.w3.org/1999/xlink" width="2205" height="2205" xmlns:v="https://vecta.io/nano"><path fill="#fff" d="M0 0h2205v2205H0z"/><g fill="#714b67"><path d="M490 98h49v49h-49z"/><path d="M539 98h49v49h-49z"/><path d="M588 98h49v49h-49z"/><path d="M637 98h49v49h-49zm147 0h49v49h-49z"/><path d="M833 98h49v49h-49zm98 0h49v49h-49z"/><path d="M980 98h49v49h-49zm196 0h49v49h-49z"/><path d="M1225 98h49v49h-49zm98 0h49v49h-49zm98 0h49v49h-49z"/><path d="M1470 98h49v49h-49zm98 0h49v49h-49z"/><path d="M1617 98h49v49h-49zM490 147h49v49h-49zm98 0h49v49h-49z"/><path d="M637 147h49v49h-49zm98 0h49v49h-49z"/><path d="M784 147h49v49h-49z"/><path d="M833 147h49v49h-49z"/><path d="M882 147h49v49h-49zm98 0h49v49h-49z"/><path d="M1029 147h49v49h-49zm196 0h49v49h-49zm98 0h49v49h-49z"/><path d="M1372 147h49v49h-49z"/><path d="M1421 147h49v49h-49z"/><path d="M1470 147h49v49h-49z"/><path d="M1519 147h49v49h-49zm147 0h49v49h-49zM539 196h49v49h-49z"/><path d="M588 196h49v49h-49zm196 0h49v49h-49z"/><path d="M833 196h49v49h-49z"/><path d="M882 196h49v49h-49zm147 0h49v49h-49zm147 0h49v49h-49zm98 0h49v49h-49z"/><path d="M1323 196h49v49h-49zm98 0h49v49h-49z"/><path d="M1470 196h49v49h-49z"/><path d="M1519 196h49v49h-49zM490 245h49v49h-49z"/><path d="M539 245h49v49h-49z"/><path d="M588 245h49v49h-49zm245 0h49v49h-49z"/><path d="M882 245h49v49h-49zm196 0h49v49h-49z"/><path d="M1127 245h49v49h-49zm147 0h49v49h-49z"/><path d="M1323 245h49v49h-49z"/><path d="M1372 245h49v49h-49z"/><path d="M1421 245h49v49h-49zm98 0h49v49h-49zM490 294h49v49h-49zm147 0h49v49h-49zm98 0h49v49h-49zm147 0h49v49h-49zm98 0h49v49h-49z"/><path d="M1029 294h49v49h-49zm147 0h49v49h-49z"/><path d="M1225 294h49v49h-49z"/><path d="M1274 294h49v49h-49zm98 0h49v49h-49z"/><path d="M1421 294h49v49h-49z"/><path d="M1470 294h49v49h-49z"/><path d="M1519 294h49v49h-49zM490 343h49v49h-49zm441 0h49v49h-49zm294 0h49v49h-49z"/><path d="M1274 343h49v49h-49zm98 0h49v49h-49z"/><path d="M1421 343h49v49h-49z"/><path d="M1470 343h49v49h-49zm147 0h49v49h-49zM490 392h49v49h-49zm98 0h49v49h-49zm98 0h49v49h-49zm98 0h49v49h-49zm98 0h49v49h-49zm98 0h49v49h-49zm98 0h49v49h-49zm98 0h49v49h-49zm98 0h49v49h-49zm98 0h49v49h-49z"/><path d="M1470 392h49v49h-49zm98 0h49v49h-49zm98 0h49v49h-49zM539 441h49v49h-49z"/><path d="M588 441h49v49h-49z"/><path d="M637 441h49v49h-49z"/><path d="M686 441h49v49h-49z"/><path d="M735 441h49v49h-49z"/><path d="M784 441h49v49h-49z"/><path d="M833 441h49v49h-49zm196 0h49v49h-49z"/><path d="M1078 441h49v49h-49zm245 0h49v49h-49zm196 0h49v49h-49z"/><path d="M1568 441h49v49h-49z"/><path d="M1617 441h49v49h-49z"/><path d="M1666 441h49v49h-49zM245 490h49v49h-49zm147 0h49v49h-49zm147 0h49v49h-49zm196 0h49v49h-49zm98 0h49v49h-49zm98 0h49v49h-49zm98 0h49v49h-49zm245 0h49v49h-49zm98 0h49v49h-49z"/><path d="M1421 490h49v49h-49zm196 0h49v49h-49zm196 0h49v49h-49z"/><path d="M1862 490h49v49h-49z"/><path d="M1911 490h49v49h-49zm98 0h49v49h-49z"/><path d="M2058 490h49v49h-49zM147 539h49v49h-49zm294 0h49v49h-49z"/><path d="M490 539h49v49h-49z"/><path d="M539 539h49v49h-49zm196 0h49v49h-49zm98 0h49v49h-49z"/><path d="M882 539h49v49h-49zm98 0h49v49h-49z"/><path d="M1029 539h49v49h-49zm98 0h49v49h-49zm343 0h49v49h-49zm98 0h49v49h-49zm98 0h49v49h-49z"/><path d="M1715 539h49v49h-49z"/><path d="M1764 539h49v49h-49zm147 0h49v49h-49z"/><path d="M1960 539h49v49h-49zm98 0h49v49h-49zM392 588h49v49h-49zm98 0h49v49h-49z"/><path d="M539 588h49v49h-49zm98 0h49v49h-49z"/><path d="M686 588h49v49h-49zm147 0h49v49h-49z"/><path d="M882 588h49v49h-49z"/><path d="M931 588h49v49h-49z"/><path d="M980 588h49v49h-49z"/><path d="M1029 588h49v49h-49zm98 0h49v49h-49z"/><path d="M1176 588h49v49h-49z"/><path d="M1225 588h49v49h-49z"/><path d="M1274 588h49v49h-49z"/><path d="M1323 588h49v49h-49z"/><path d="M1372 588h49v49h-49zm98 0h49v49h-49zm147 0h49v49h-49zm245 0h49v49h-49z"/><path d="M1911 588h49v49h-49z"/><path d="M1960 588h49v49h-49zM98 637h49v49H98zm98 0h49v49h-49z"/><path d="M245 637h49v49h-49z"/><path d="M294 637h49v49h-49zm245 0h49v49h-49zm245 0h49v49h-49z"/><path d="M833 637h49v49h-49zm98 0h49v49h-49z"/><path d="M980 637h49v49h-49z"/><path d="M1029 637h49v49h-49z"/><path d="M1078 637h49v49h-49z"/><path d="M1127 637h49v49h-49zm245 0h49v49h-49z"/><path d="M1421 637h49v49h-49z"/><path d="M1470 637h49v49h-49zm98 0h49v49h-49zm147 0h49v49h-49zm98 0h49v49h-49zm147 0h49v49h-49z"/><path d="M2009 637h49v49h-49zM98 686h49v49H98zm98 0h49v49h-49z"/><path d="M245 686h49v49h-49z"/><path d="M294 686h49v49h-49z"/><path d="M343 686h49v49h-49z"/><path d="M392 686h49v49h-49zm196 0h49v49h-49zm98 0h49v49h-49zm98 0h49v49h-49z"/><path d="M833 686h49v49h-49z"/><path d="M882 686h49v49h-49zm147 0h49v49h-49zm98 0h49v49h-49zm98 0h49v49h-49zm98 0h49v49h-49z"/><path d="M1372 686h49v49h-49zm147 0h49v49h-49z"/><path d="M1568 686h49v49h-49z"/><path d="M1617 686h49v49h-49z"/><path d="M1666 686h49v49h-49zm98 0h49v49h-49zm147 0h49v49h-49zm98 0h49v49h-49z"/><path d="M2058 686h49v49h-49zM98 735h49v49H98z"/><path d="M147 735h49v49h-49z"/><path d="M196 735h49v49h-49zm147 0h49v49h-49zm294 0h49v49h-49z"/><path d="M686 735h49v49h-49z"/><path d="M735 735h49v49h-49zm147 0h49v49h-49zm98 0h49v49h-49z"/><path d="M1029 735h49v49h-49z"/><path d="M1078 735h49v49h-49zm245 0h49v49h-49zm98 0h49v49h-49z"/><path d="M1470 735h49v49h-49z"/><path d="M1519 735h49v49h-49zm147 0h49v49h-49z"/><path d="M1715 735h49v49h-49z"/><path d="M1764 735h49v49h-49zM294 784h49v49h-49zm98 0h49v49h-49zm196 0h49v49h-49zm196 0h49v49h-49zm98 0h49v49h-49z"/><path d="M931 784h49v49h-49zm196 0h49v49h-49z"/><path d="M1176 784h49v49h-49zm343 0h49v49h-49zm98 0h49v49h-49zm147 0h49v49h-49z"/><path d="M1813 784h49v49h-49z"/><path d="M1862 784h49v49h-49z"/><path d="M1911 784h49v49h-49zm98 0h49v49h-49z"/><path d="M2058 784h49v49h-49zM147 833h49v49h-49z"/><path d="M196 833h49v49h-49z"/><path d="M245 833h49v49h-49z"/><path d="M294 833h49v49h-49z"/><path d="M343 833h49v49h-49zm98 0h49v49h-49z"/><path d="M490 833h49v49h-49zm98 0h49v49h-49zm98 0h49v49h-49z"/><path d="M735 833h49v49h-49z"/><path d="M784 833h49v49h-49zm196 0h49v49h-49z"/><path d="M1029 833h49v49h-49z"/><path d="M1078 833h49v49h-49z"/><path d="M1127 833h49v49h-49zm98 0h49v49h-49zm98 0h49v49h-49zm98 0h49v49h-49zm98 0h49v49h-49zm147 0h49v49h-49zm98 0h49v49h-49zm98 0h49v49h-49zm147 0h49v49h-49zM245 882h49v49h-49zm98 0h49v49h-49z"/><path d="M392 882h49v49h-49zm147 0h49v49h-49z"/><path d="M588 882h49v49h-49z"/><path d="M637 882h49v49h-49z"/><path d="M686 882h49v49h-49zm98 0h49v49h-49z"/><path d="M833 882h49v49h-49z"/><path d="M882 882h49v49h-49z"/><path d="M931 882h49v49h-49z"/><path d="M980 882h49v49h-49zm147 0h49v49h-49zm98 0h49v49h-49zm98 0h49v49h-49zm147 0h49v49h-49z"/><path d="M1519 882h49v49h-49z"/><path d="M1568 882h49v49h-49zm98 0h49v49h-49zm147 0h49v49h-49zM147 931h49v49h-49z"/><path d="M196 931h49v49h-49z"/><path d="M245 931h49v49h-49z"/><path d="M294 931h49v49h-49zm147 0h49v49h-49z"/><path d="M490 931h49v49h-49z"/><path d="M539 931h49v49h-49zm147 0h49v49h-49zm294 0h49v49h-49z"/><path d="M1029 931h49v49h-49z"/><path d="M1078 931h49v49h-49z"/><path d="M1127 931h49v49h-49z"/><path d="M1176 931h49v49h-49z"/><path d="M1225 931h49v49h-49zm294 0h49v49h-49z"/><path d="M1568 931h49v49h-49zm196 0h49v49h-49z"/><path d="M1813 931h49v49h-49zm98 0h49v49h-49z"/><path d="M1960 931h49v49h-49z"/><path d="M2009 931h49v49h-49z"/><path d="M2058 931h49v49h-49zM392 980h49v49h-49z"/><path d="M441 980h49v49h-49zm98 0h49v49h-49z"/><path d="M588 980h49v49h-49z"/><path d="M637 980h49v49h-49z"/><path d="M686 980h49v49h-49zm245 0h49v49h-49z"/><path d="M980 980h49v49h-49z"/><path d="M1029 980h49v49h-49z"/><path d="M1078 980h49v49h-49zm147 0h49v49h-49z"/><path d="M1274 980h49v49h-49z"/><path d="M1323 980h49v49h-49z"/><path d="M1372 980h49v49h-49zm147 0h49v49h-49zm196 0h49v49h-49z"/><path d="M1764 980h49v49h-49zm98 0h49v49h-49zm98 0h49v49h-49z"/><path d="M2009 980h49v49h-49z"/><path d="M2058 980h49v49h-49zm-1911 49h49v49h-49z"/><path d="M196 1029h49v49h-49z"/><path d="M245 1029h49v49h-49z"/><path d="M294 1029h49v49h-49z"/><path d="M343 1029h49v49h-49zm147 0h49v49h-49zm147 0h49v49h-49z"/><path d="M686 1029h49v49h-49z"/><path d="M735 1029h49v49h-49zm98 0h49v49h-49zm147 0h49v49h-49z"/><path d="M1029 1029h49v49h-49zm98 0h49v49h-49z"/><path d="M1176 1029h49v49h-49zm147 0h49v49h-49z"/><path d="M1372 1029h49v49h-49zm245 0h49v49h-49z"/><path d="M1666 1029h49v49h-49zm98 0h49v49h-49z"/><path d="M1813 1029h49v49h-49zm196 0h49v49h-49zM98 1078h49v49H98z"/><path d="M147 1078h49v49h-49zm98 0h49v49h-49z"/><path d="M294 1078h49v49h-49z"/><path d="M343 1078h49v49h-49z"/><path d="M392 1078h49v49h-49z"/><path d="M441 1078h49v49h-49zm147 0h49v49h-49z"/><path d="M637 1078h49v49h-49zm147 0h49v49h-49z"/><path d="M833 1078h49v49h-49z"/><path d="M882 1078h49v49h-49z"/><path d="M931 1078h49v49h-49z"/><path d="M980 1078h49v49h-49zm147 0h49v49h-49z"/><path d="M1176 1078h49v49h-49z"/><path d="M1225 1078h49v49h-49zm98 0h49v49h-49z"/><path d="M1372 1078h49v49h-49zm98 0h49v49h-49z"/><path d="M1519 1078h49v49h-49zm98 0h49v49h-49zm147 0h49v49h-49zm196 0h49v49h-49z"/><path d="M2009 1078h49v49h-49zm-1862 49h49v49h-49z"/><path d="M196 1127h49v49h-49zm245 0h49v49h-49zm98 0h49v49h-49z"/><path d="M588 1127h49v49h-49z"/><path d="M637 1127h49v49h-49z"/><path d="M686 1127h49v49h-49zm147 0h49v49h-49zm98 0h49v49h-49zm245 0h49v49h-49zm98 0h49v49h-49zm98 0h49v49h-49zm147 0h49v49h-49zm147 0h49v49h-49z"/><path d="M1715 1127h49v49h-49z"/><path d="M1764 1127h49v49h-49z"/><path d="M1813 1127h49v49h-49zm98 0h49v49h-49zm98 0h49v49h-49z"/><path d="M2058 1127h49v49h-49zm-1911 49h49v49h-49zm147 0h49v49h-49zm98 0h49v49h-49z"/><path d="M441 1176h49v49h-49zm98 0h49v49h-49zm196 0h49v49h-49z"/><path d="M784 1176h49v49h-49z"/><path d="M833 1176h49v49h-49z"/><path d="M882 1176h49v49h-49z"/><path d="M931 1176h49v49h-49z"/><path d="M980 1176h49v49h-49zm147 0h49v49h-49z"/><path d="M1176 1176h49v49h-49zm98 0h49v49h-49zm196 0h49v49h-49zm147 0h49v49h-49zm98 0h49v49h-49z"/><path d="M1764 1176h49v49h-49zm98 0h49v49h-49zm147 0h49v49h-49zm-1862 49h49v49h-49z"/><path d="M196 1225h49v49h-49zm245 0h49v49h-49zm98 0h49v49h-49zm147 0h49v49h-49z"/><path d="M735 1225h49v49h-49z"/><path d="M784 1225h49v49h-49zm98 0h49v49h-49z"/><path d="M931 1225h49v49h-49zm147 0h49v49h-49z"/><path d="M1127 1225h49v49h-49zm147 0h49v49h-49z"/><path d="M1323 1225h49v49h-49zm343 0h49v49h-49zm98 0h49v49h-49z"/><path d="M1813 1225h49v49h-49zm98 0h49v49h-49z"/><path d="M1960 1225h49v49h-49zm-1764 49h49v49h-49z"/><path d="M245 1274h49v49h-49z"/><path d="M294 1274h49v49h-49zm98 0h49v49h-49zm98 0h49v49h-49z"/><path d="M539 1274h49v49h-49zm98 0h49v49h-49zm147 0h49v49h-49zm147 0h49v49h-49zm196 0h49v49h-49zm98 0h49v49h-49z"/><path d="M1274 1274h49v49h-49z"/><path d="M1323 1274h49v49h-49z"/><path d="M1372 1274h49v49h-49zm98 0h49v49h-49z"/><path d="M1519 1274h49v49h-49zm147 0h49v49h-49z"/><path d="M1715 1274h49v49h-49z"/><path d="M1764 1274h49v49h-49zm147 0h49v49h-49zm147 0h49v49h-49zM98 1323h49v49H98zm147 0h49v49h-49z"/><path d="M294 1323h49v49h-49z"/><path d="M343 1323h49v49h-49zm98 0h49v49h-49zm98 0h49v49h-49zm147 0h49v49h-49zm147 0h49v49h-49zm98 0h49v49h-49z"/><path d="M980 1323h49v49h-49zm98 0h49v49h-49zm98 0h49v49h-49zm98 0h49v49h-49z"/><path d="M1323 1323h49v49h-49zm245 0h49v49h-49z"/><path d="M1617 1323h49v49h-49zm98 0h49v49h-49zm196 0h49v49h-49zm-1617 49h49v49h-49zm98 0h49v49h-49zm196 0h49v49h-49zm147 0h49v49h-49zm147 0h49v49h-49z"/><path d="M931 1372h49v49h-49z"/><path d="M980 1372h49v49h-49zm98 0h49v49h-49zm392 0h49v49h-49zm196 0h49v49h-49z"/><path d="M1715 1372h49v49h-49zm343 0h49v49h-49zm-1911 49h49v49h-49zm196 0h49v49h-49zm98 0h49v49h-49zm98 0h49v49h-49zm196 0h49v49h-49z"/><path d="M784 1421h49v49h-49zm98 0h49v49h-49zm147 0h49v49h-49zm98 0h49v49h-49z"/><path d="M1176 1421h49v49h-49z"/><path d="M1225 1421h49v49h-49zm98 0h49v49h-49z"/><path d="M1372 1421h49v49h-49zm98 0h49v49h-49z"/><path d="M1519 1421h49v49h-49z"/><path d="M1568 1421h49v49h-49zm98 0h49v49h-49z"/><path d="M1715 1421h49v49h-49z"/><path d="M1764 1421h49v49h-49zm98 0h49v49h-49zm-1666 49h49v49h-49zm98 0h49v49h-49zm98 0h49v49h-49zm147 0h49v49h-49z"/><path d="M588 1470h49v49h-49z"/><path d="M637 1470h49v49h-49z"/><path d="M686 1470h49v49h-49zm98 0h49v49h-49zm98 0h49v49h-49z"/><path d="M931 1470h49v49h-49zm147 0h49v49h-49z"/><path d="M1127 1470h49v49h-49z"/><path d="M1176 1470h49v49h-49z"/><path d="M1225 1470h49v49h-49z"/><path d="M1274 1470h49v49h-49z"/><path d="M1323 1470h49v49h-49z"/><path d="M1372 1470h49v49h-49z"/><path d="M1421 1470h49v49h-49zm98 0h49v49h-49zm196 0h49v49h-49z"/><path d="M1764 1470h49v49h-49zm245 0h49v49h-49zm-1715 49h49v49h-49zm245 0h49v49h-49zm147 0h49v49h-49zm98 0h49v49h-49z"/><path d="M833 1519h49v49h-49zm147 0h49v49h-49z"/><path d="M1029 1519h49v49h-49zm98 0h49v49h-49zm98 0h49v49h-49zm147 0h49v49h-49z"/><path d="M1421 1519h49v49h-49z"/><path d="M1470 1519h49v49h-49zm98 0h49v49h-49z"/><path d="M1617 1519h49v49h-49z"/><path d="M1666 1519h49v49h-49z"/><path d="M1715 1519h49v49h-49zm98 0h49v49h-49zm98 0h49v49h-49z"/><path d="M1960 1519h49v49h-49zm98 0h49v49h-49zM98 1568h49v49H98zm245 0h49v49h-49z"/><path d="M392 1568h49v49h-49zm147 0h49v49h-49zm147 0h49v49h-49z"/><path d="M735 1568h49v49h-49z"/><path d="M784 1568h49v49h-49zm98 0h49v49h-49zm98 0h49v49h-49zm196 0h49v49h-49z"/><path d="M1225 1568h49v49h-49z"/><path d="M1274 1568h49v49h-49z"/><path d="M1323 1568h49v49h-49z"/><path d="M1372 1568h49v49h-49z"/><path d="M1421 1568h49v49h-49z"/><path d="M1470 1568h49v49h-49zm98 0h49v49h-49zm294 0h49v49h-49zm98 0h49v49h-49z"/><path d="M2009 1568h49v49h-49z"/><path d="M2058 1568h49v49h-49zm-1862 49h49v49h-49z"/><path d="M245 1617h49v49h-49zm196 0h49v49h-49z"/><path d="M490 1617h49v49h-49z"/><path d="M539 1617h49v49h-49zm196 0h49v49h-49z"/><path d="M784 1617h49v49h-49zm196 0h49v49h-49zm147 0h49v49h-49z"/><path d="M1176 1617h49v49h-49zm196 0h49v49h-49zm147 0h49v49h-49z"/><path d="M1568 1617h49v49h-49zm147 0h49v49h-49zm98 0h49v49h-49zm98 0h49v49h-49zm147 0h49v49h-49zM98 1666h49v49H98zm98 0h49v49h-49zm98 0h49v49h-49zm98 0h49v49h-49zm98 0h49v49h-49zm147 0h49v49h-49zm98 0h49v49h-49z"/><path d="M784 1666h49v49h-49z"/><path d="M833 1666h49v49h-49z"/><path d="M882 1666h49v49h-49zm98 0h49v49h-49z"/><path d="M1029 1666h49v49h-49z"/><path d="M1078 1666h49v49h-49z"/><path d="M1127 1666h49v49h-49z"/><path d="M1176 1666h49v49h-49zm196 0h49v49h-49z"/><path d="M1421 1666h49v49h-49zm147 0h49v49h-49zm98 0h49v49h-49z"/><path d="M1715 1666h49v49h-49z"/><path d="M1764 1666h49v49h-49z"/><path d="M1813 1666h49v49h-49z"/><path d="M1862 1666h49v49h-49z"/><path d="M1911 1666h49v49h-49z"/><path d="M1960 1666h49v49h-49zm98 0h49v49h-49zm-1568 49h49v49h-49z"/><path d="M539 1715h49v49h-49z"/><path d="M588 1715h49v49h-49z"/><path d="M637 1715h49v49h-49zm98 0h49v49h-49zm98 0h49v49h-49z"/><path d="M882 1715h49v49h-49z"/><path d="M931 1715h49v49h-49z"/><path d="M980 1715h49v49h-49z"/><path d="M1029 1715h49v49h-49zm245 0h49v49h-49z"/><path d="M1323 1715h49v49h-49z"/><path d="M1372 1715h49v49h-49zm147 0h49v49h-49z"/><path d="M1568 1715h49v49h-49z"/><path d="M1617 1715h49v49h-49z"/><path d="M1666 1715h49v49h-49zm196 0h49v49h-49zm98 0h49v49h-49z"/><path d="M2009 1715h49v49h-49z"/><path d="M2058 1715h49v49h-49zm-1470 49h49v49h-49z"/><path d="M637 1764h49v49h-49zm147 0h49v49h-49z"/><path d="M833 1764h49v49h-49zm147 0h49v49h-49zm147 0h49v49h-49z"/><path d="M1176 1764h49v49h-49z"/><path d="M1225 1764h49v49h-49zm343 0h49v49h-49zm98 0h49v49h-49zm98 0h49v49h-49zm98 0h49v49h-49zm-1127 49h49v49h-49z"/><path d="M784 1813h49v49h-49z"/><path d="M833 1813h49v49h-49zm147 0h49v49h-49zm147 0h49v49h-49zm147 0h49v49h-49z"/><path d="M1323 1813h49v49h-49zm245 0h49v49h-49z"/><path d="M1617 1813h49v49h-49z"/><path d="M1666 1813h49v49h-49zm196 0h49v49h-49zm98 0h49v49h-49zm98 0h49v49h-49zm-1519 49h49v49h-49zm98 0h49v49h-49zm294 0h49v49h-49zm147 0h49v49h-49zm98 0h49v49h-49z"/><path d="M1225 1862h49v49h-49zm147 0h49v49h-49zm196 0h49v49h-49zm98 0h49v49h-49z"/><path d="M1715 1862h49v49h-49z"/><path d="M1764 1862h49v49h-49z"/><path d="M1813 1862h49v49h-49z"/><path d="M1862 1862h49v49h-49zm196 0h49v49h-49zm-1568 49h49v49h-49zm147 0h49v49h-49z"/><path d="M686 1911h49v49h-49z"/><path d="M735 1911h49v49h-49zm98 0h49v49h-49zm294 0h49v49h-49z"/><path d="M1176 1911h49v49h-49z"/><path d="M1225 1911h49v49h-49z"/><path d="M1274 1911h49v49h-49z"/><path d="M1323 1911h49v49h-49z"/><path d="M1372 1911h49v49h-49zm147 0h49v49h-49z"/><path d="M1568 1911h49v49h-49z"/><path d="M1617 1911h49v49h-49z"/><path d="M1666 1911h49v49h-49z"/><path d="M1715 1911h49v49h-49z"/><path d="M1764 1911h49v49h-49zm98 0h49v49h-49z"/><path d="M1911 1911h49v49h-49zm-1372 49h49v49h-49zm147 0h49v49h-49zm196 0h49v49h-49z"/><path d="M931 1960h49v49h-49z"/><path d="M980 1960h49v49h-49z"/><path d="M1029 1960h49v49h-49zm98 0h49v49h-49z"/><path d="M1176 1960h49v49h-49z"/><path d="M1225 1960h49v49h-49zm98 0h49v49h-49z"/><path d="M1372 1960h49v49h-49zm147 0h49v49h-49zm98 0h49v49h-49z"/><path d="M1666 1960h49v49h-49zm196 0h49v49h-49zm98 0h49v49h-49zm98 0h49v49h-49zm-1519 49h49v49h-49zm147 0h49v49h-49zm98 0h49v49h-49z"/><path d="M833 2009h49v49h-49z"/><path d="M882 2009h49v49h-49zm147 0h49v49h-49z"/><path d="M1078 2009h49v49h-49z"/><path d="M1127 2009h49v49h-49zm147 0h49v49h-49z"/><path d="M1323 2009h49v49h-49zm98 0h49v49h-49z"/><path d="M1470 2009h49v49h-49z"/><path d="M1519 2009h49v49h-49z"/><path d="M1568 2009h49v49h-49z"/><path d="M1617 2009h49v49h-49z"/><path d="M1666 2009h49v49h-49zm98 0h49v49h-49z"/><path d="M1813 2009h49v49h-49zm98 0h49v49h-49zm98 0h49v49h-49zm-1323 49h49v49h-49zm343 0h49v49h-49zm98 0h49v49h-49z"/><path d="M1176 2058h49v49h-49z"/><path d="M1225 2058h49v49h-49zm98 0h49v49h-49zm196 0h49v49h-49zm147 0h49v49h-49zm98 0h49v49h-49z"/><path d="M1813 2058h49v49h-49z"/><path d="M1862 2058h49v49h-49zm147 0h49v49h-49zM269.5 101.363c-92.855 0-168.137 75.282-168.137 168.137S176.645 437.637 269.5 437.637 437.637 362.355 437.637 269.5 362.355 101.363 269.5 101.363zm0 285.833c-64.898 0-117.696-52.798-117.696-117.696S204.602 151.804 269.5 151.804 387.196 204.602 387.196 269.5 334.398 387.196 269.5 387.196z"/><use xlink:href="#B"/><use xlink:href="#B" x="-1666" y="1666"/><circle cx="50" cy="50" r="50" transform="matrix(1.441176 0 0 1.441176 196 196)"/><circle cx="50" cy="50" r="50" transform="matrix(1.441176 0 0 1.441176 1862 196)"/><circle cx="50" cy="50" r="50" transform="matrix(1.441176 0 0 1.441176 196 1862)"/></g><g transform="matrix(.637 0 0 .637 784 784)"><svg width="1000" height="1000"><g transform="scale(1.953125)"><rect width="512" height="512" rx="64" fill="#4086cd"/><path d="M245 124.997c-.195 0-.365.049-.535.122-7.326 3.675 15.357 50.623 22.853 68.292 7.52 17.621 36.823 85.256 42.713 88.225 5.865 2.945 8.153 1.29 12.096-.341 3.918-1.606 10.976-7.058 7.35-13.605-.073-.146-.195-.316-.292-.535l-9.273-17.621c-.049-.122-.073-.219-.146-.365l-1.071-1.947a29.32 29.32 0 0 1-.779-1.509c-.243-.389-.438-.827-.657-1.266-.414-.754-.803-1.533-1.241-2.288-.097-.243-.243-.487-.365-.73l-1.387-2.629a27.4 27.4 0 0 0-.414-.779c-10.344-19.568-23.364-43.662-31.372-56.342-13.581-21.515-31.615-56.854-37.48-56.683zm-15.357 56.854c-1.825.146-3.529 1.144-4.503 2.823l-22.513 39.233-24.8 43.224-20.736 36.093c-1.558 2.677-.608 6.158 2.069 7.691l14.7 8.421c2.702 1.558 6.157.633 7.715-2.044l28.792-50.161 18.594-32.418 20.663-35.972a5.68 5.68 0 0 0-2.093-7.715l-14.676-8.421a5.65 5.65 0 0 0-3.213-.754zm-95.867 42.08c-2.823 0-5.111 2.288-5.111 5.087v33.002c0 2.823 2.263 5.111 5.111 5.111h32.272l24.8-43.2zm113.171 0l-24.825 43.2h67.343c-4.892-9.662-11.366-23.437-20.054-43.2zm70.945 0l15.041 28.475 5.476 10.368a17.78 17.78 0 0 1 1.704 4.357h27.38c2.848 0 5.111-2.288 5.111-5.111h-.024v-33.002c0-2.799-2.263-5.087-5.087-5.087h-49.601zm15.382 61.77c-.803.049-1.582.268-2.336.657l-8.421 4.332c-2.969 1.533-3.918 5.111-2.093 8.056l8.859 13.994c1.825 2.872 5.695 3.797 8.567 2.044l6.011-3.602c2.872-1.704 3.943-5.622 2.361-8.64l-6.985-13.435c-1.193-2.288-3.602-3.553-5.963-3.407zm-181.293 31.031c-1.631.073-2.896 1.339-3.14 3.456l-2.555 22.123c-.341 3.091 1.46 4.186 4.04 2.434l18.984-12.923c2.555-1.752 2.458-4.454-.243-5.987l-14.7-8.445c-.852-.487-1.655-.706-2.385-.657zm201.201 2.385c-2.507-.024-5.5.827-9.127 2.872-2.19 2.117-7.447 6.669-1.12 15.576 6.352 8.908 20.468 9.321 22.342 15.26 0 0 3.261-33.465-12.096-33.708zM254.677 56.004c-87.132.524-166.903 58.387-191.357 146.506l-.457 1.722C34.461 310.228 96.775 419.323 202.514 448.667c106.408 29.53 216.626-32.787 246.156-139.195S415.848 92.845 309.44 63.315c-18.289-5.075-36.68-7.42-54.764-7.311zm.07 11.881c17.009-.102 34.328 2.116 51.53 6.889 100.082 27.775 158.709 131.417 130.934 231.5S305.759 464.983 205.677 437.208c-99.453-27.6-158.069-130.188-131.356-229.883l.457-1.617c23.001-82.881 98.016-137.331 179.969-137.824z" fill="#fff"/></g></svg></g><defs ><path id="B" d="M1935.5 101.363c-92.855 0-168.137 75.282-168.137 168.137s75.282 168.137 168.137 168.137 168.137-75.282 168.137-168.137-75.282-168.137-168.137-168.137zm0 285.833c-64.898 0-117.696-52.798-117.696-117.696s52.798-117.696 117.696-117.696 117.696 52.798 117.696 117.696-52.798 117.696-117.696 117.696z"/></defs></svg>