<svg width="200" height="152" viewBox="0 0 200 152" fill="none" xmlns="http://www.w3.org/2000/svg">
<path fill-rule="evenodd" clip-rule="evenodd" d="M65.6131 9.28888C66.003 8.35621 67.0548 7.89267 68.0015 8.24041L68.0929 8.27631L68.1831 8.32074L68.2001 8.33047L68.217 8.33982C68.2264 8.345 68.2377 8.35122 68.2507 8.35846L68.4462 8.468L68.6974 8.60885C68.8357 8.68638 68.9998 8.77846 69.1875 8.88361C69.8259 9.24122 70.737 9.75157 71.8264 10.3617C73.7707 11.4506 76.2846 12.858 78.8352 14.2854L79.8178 11.8799L79.8202 11.8732C80.2101 10.9395 81.2636 10.4758 82.2105 10.8242L82.3019 10.8607L82.4097 10.9154C82.5029 10.9705 91.5793 16.3257 92.1926 16.633C92.5006 16.7874 92.7463 17.0089 92.9096 17.2878C93.0694 17.5609 93.1199 17.8374 93.1246 18.0618C93.1292 18.2822 93.0909 18.4697 93.0552 18.5961C93.0368 18.6612 93.0172 18.7161 93.001 18.7579C92.9983 18.7647 92.9949 18.7712 92.9924 18.7774L85.4512 40.8913C85.4188 40.9862 85.3717 41.0719 85.3147 41.1481C85.1482 41.6214 84.8031 42.0504 84.2859 42.2982C83.751 42.5544 83.2466 42.5145 82.9592 42.4582C82.6543 42.3985 82.3942 42.2832 82.1898 42.1655L59.0446 28.9274L59.0014 28.903L58.9606 28.8763L58.949 28.8688C58.7604 28.7477 58.2173 28.3987 57.9664 27.7018C57.914 27.5561 57.8869 27.4311 57.8726 27.3544C57.8638 27.3066 57.856 27.2558 57.8525 27.2321L57.8483 27.2156L57.8373 27.1663L54.5394 12.1617C54.4418 11.9079 54.3467 11.5488 54.3828 11.1333C54.4123 10.7942 54.5327 10.3882 54.8311 10.0234C55.1288 9.6596 55.5002 9.46282 55.8186 9.36677C56.3778 9.19809 56.8775 9.3024 57.1063 9.36068C57.3198 9.41507 57.5253 9.4916 57.7142 9.57488L57.8976 9.66007L57.925 9.67346L57.9518 9.68745C59.7132 10.6164 61.8633 11.8081 64.1225 13.086L65.6051 9.30835L65.6131 9.28888ZM91.2539 18.091L91.2649 18.0623L91.2606 18.0715C91.2588 18.0758 91.2568 18.081 91.2558 18.0836L91.2539 18.091ZM57.1904 11.4004C64.6598 15.3502 78.4879 23.6122 78.5729 23.663L79.2001 24.0581C79.3904 24.2671 79.4483 24.5062 79.5104 24.7627C79.5214 24.8082 79.5325 24.8542 79.5446 24.9007L83.4483 39.9798L83.5257 40.2767C83.6586 40.654 83.3976 40.7062 83.1194 40.5439L59.9742 27.3051C59.7318 27.149 59.724 27.0952 59.704 26.9581C59.7001 26.9313 59.6957 26.9014 59.6891 26.867L59.6653 26.7653L56.3297 11.5897C56.0805 11.0915 56.4096 11.0158 57.0777 11.3408L57.1904 11.4004ZM67.3455 9.99962C67.3455 9.99962 67.3426 10.0027 67.3406 10.0069L65.766 14.0201C67.8302 15.1979 69.9284 16.4113 71.8556 17.5354C74.1528 18.8754 76.2167 20.0918 77.7059 20.9735C78.4504 21.4143 79.0516 21.7718 79.4669 22.0189C79.5321 22.0577 79.5975 22.0963 79.6628 22.1349C79.8122 22.2231 79.9618 22.3115 80.1096 22.4023C80.2431 22.4821 80.4036 22.6189 80.4659 22.6767C80.5308 22.7403 80.667 22.8761 80.8284 23.1015C80.9347 23.25 81.2169 23.6614 81.3047 24.2339L84.6922 37.3181L91.2046 18.2237C89.9169 17.5136 82.4919 13.1343 81.5551 12.5815C81.5551 12.5815 81.55 12.5871 81.5478 12.5925L80.168 15.9709C80.0667 16.2189 79.8638 16.4119 79.6107 16.5003C79.3576 16.5887 79.0783 16.5642 78.8444 16.4334C75.9846 14.8332 73.0904 13.2129 70.9114 11.9925C69.8222 11.3824 68.911 10.8721 68.2726 10.5144L67.5307 10.0988C67.4869 10.0743 67.447 10.0534 67.4128 10.0355C67.3869 10.022 67.3643 10.0101 67.3455 9.99962Z" fill="black"/>
<path d="M63.6179 6.06156C64.13 6.26784 64.3785 6.8503 64.1724 7.36255C63.9662 7.87461 63.3836 8.12286 62.8714 7.91702L60.6408 7.01959C60.1286 6.81348 59.8804 6.2309 60.0864 5.7186C60.2925 5.20623 60.875 4.95799 61.3874 5.16413L63.6179 6.06156ZM64.4691 0.842944C64.9858 0.647875 65.5628 0.908971 65.7578 1.42566L66.6808 3.86967C66.8759 4.38634 66.6148 4.96333 66.0981 5.15839C65.5815 5.35331 65.0045 5.0923 64.8094 4.57568L63.8873 2.13203C63.6922 1.61535 63.9524 1.03802 64.4691 0.842944ZM69.3336 4.63067L70.2311 2.40014C70.4372 1.88784 71.0197 1.63968 71.5321 1.84568C72.0444 2.05182 72.2927 2.6343 72.0865 3.14666L71.1891 5.37719C70.9828 5.88928 70.4003 6.13775 69.8881 5.93166C69.376 5.7255 69.1278 5.14287 69.3336 4.63067Z" fill="black"/>
<path d="M110.018 27.6652C110.018 27.1232 110.398 26.9035 110.868 27.1745L117.667 31.0997C118.136 31.3707 118.516 32.0299 118.516 32.5718C118.516 33.1137 118.136 33.3335 117.667 33.0626L110.868 29.1374C110.398 28.8664 110.018 28.2072 110.018 27.6652Z" fill="black"/>
<path fill-rule="evenodd" clip-rule="evenodd" d="M124.831 7.25629C125.094 7.14927 125.395 7.16657 125.646 7.30817L146.086 18.8408C146.38 19.007 146.562 19.3193 146.562 19.6574V29.4719C146.562 29.8088 146.382 30.12 146.089 30.2867L125.402 42.0646C125.111 42.2303 124.754 42.2281 124.465 42.0591L103.902 30.0377C103.611 29.8673 103.433 29.553 103.437 29.2155L103.561 19.89C103.565 19.5576 103.745 19.2524 104.034 19.088L124.721 7.31L124.831 7.25629ZM125.876 32.0994V39.6367L144.687 28.9262V21.2779L125.876 32.0994ZM105.319 28.6937L124.001 39.6153V32.1025L105.414 21.5043L105.319 28.6937ZM114.463 24.5054L124.936 30.4771L135.345 24.489L125.055 18.4123L114.463 24.5054ZM106.392 19.9028L112.575 23.4288L124.131 16.7808L124.225 9.74958L106.392 19.9028ZM126.006 16.7961L137.212 23.4147L143.731 19.6647L126.101 9.71784L126.006 16.7961Z" fill="black"/>
<path fill-rule="evenodd" clip-rule="evenodd" d="M172.415 32.592C172.782 32.3029 173.257 32.141 173.806 32.1947C174.427 32.2553 174.875 32.5944 175.173 32.9869C175.453 33.3569 175.621 33.7985 175.732 34.1838C175.784 34.3605 175.826 34.5409 175.864 34.7167C176.126 34.6158 176.44 34.5504 176.787 34.594C177.36 34.666 177.829 35.0061 178.176 35.5077C178.626 36.1569 178.606 37.0081 178.518 37.6531C178.422 38.3558 178.199 39.1133 177.961 39.7856C177.721 40.465 177.452 41.095 177.244 41.5526C177.186 41.6818 177.129 41.7971 177.082 41.8974C177.407 42.5104 177.672 43.0598 177.868 43.4886C178 43.7768 178.101 44.0118 178.17 44.1759C178.205 44.258 178.231 44.3227 178.25 44.3675C178.259 44.3897 178.265 44.4072 178.27 44.4194C178.273 44.4255 178.275 44.4306 178.276 44.4341C178.277 44.4357 178.278 44.4383 178.278 44.4383L178.278 44.4396V44.4408C178.467 44.9228 178.23 45.4664 177.748 45.6554C177.266 45.8444 176.722 45.607 176.533 45.125L176.532 45.1232C176.531 45.1213 176.53 45.1181 176.528 45.114C176.525 45.1052 176.519 45.0915 176.512 45.0731C176.497 45.0355 176.473 44.9777 176.442 44.9034C176.379 44.7549 176.285 44.5378 176.162 44.2687C176.018 43.9537 175.833 43.5694 175.614 43.1413C175.323 43.2715 174.976 43.416 174.604 43.5472C174.092 43.7279 173.498 43.897 172.918 43.9598C172.363 44.0199 171.669 44.0002 171.083 43.6363C170.633 43.3562 170.301 43.0001 170.105 42.578C169.91 42.159 169.879 41.7411 169.918 41.3835C169.922 41.347 169.926 41.3106 169.932 41.2749C169.692 41.2555 169.43 41.2305 169.175 41.1864C168.444 41.0599 167.316 40.7073 167.006 39.4634C166.897 39.027 166.872 38.5684 167.045 38.1383C167.225 37.692 167.556 37.4306 167.839 37.2734C167.955 37.2094 168.079 37.155 168.196 37.108C168.074 36.9209 167.934 36.7025 167.815 36.4897C167.463 35.8589 167.086 34.8971 167.643 33.8524C167.972 33.2379 168.522 32.946 169.081 32.8679C169.589 32.7969 170.109 32.8965 170.536 33.0181C170.963 33.1398 171.388 33.3112 171.747 33.463C171.878 33.1842 172.086 32.8516 172.415 32.592ZM173.575 34.0648C173.551 34.0838 173.498 34.1428 173.439 34.2723C173.383 34.3961 173.344 34.5356 173.319 34.6532C173.307 34.7095 173.3 34.7556 173.296 34.785C173.294 34.7991 173.293 34.8093 173.293 34.8143V34.8131H173.292C173.266 35.1008 173.11 35.3608 172.867 35.5174C172.624 35.674 172.322 35.7099 172.049 35.6145C171.758 35.5125 171.375 35.3414 171.049 35.2031C170.694 35.0525 170.345 34.9135 170.023 34.8216C169.686 34.7258 169.464 34.7073 169.34 34.7246C169.32 34.7275 169.306 34.7312 169.297 34.7338L169.297 34.735C169.202 34.9122 169.194 35.1122 169.453 35.5766C169.587 35.8173 169.736 36.031 169.924 36.3243C170.089 36.5825 170.294 36.9178 170.414 37.2795C170.551 37.6945 170.382 38.1495 170.009 38.3757C169.717 38.5522 169.412 38.6617 169.199 38.737C168.996 38.8091 168.882 38.8498 168.801 38.8878C168.805 38.9186 168.812 38.9587 168.825 39.0093C168.843 39.0826 168.89 39.2341 169.495 39.3389C169.774 39.387 170.077 39.4078 170.422 39.4322C170.733 39.4543 171.122 39.4815 171.453 39.5586C171.746 39.6268 171.989 39.8313 172.105 40.1085C172.221 40.3858 172.197 40.7025 172.041 40.9593C171.935 41.133 171.806 41.3676 171.782 41.5892C171.772 41.681 171.784 41.741 171.805 41.787C171.825 41.8298 171.883 41.9265 172.073 42.0445C172.128 42.079 172.314 42.1395 172.717 42.0958C173.095 42.0548 173.536 41.9358 173.981 41.779C174.236 41.6889 174.481 41.5894 174.7 41.4946C173.812 40.0279 172.681 38.5142 171.409 37.5719C170.993 37.2637 170.906 36.6769 171.214 36.2609C171.522 35.845 172.108 35.7576 172.524 36.0655C173.87 37.0623 175.016 38.5104 175.912 39.8967C176.007 39.6626 176.104 39.4146 176.194 39.16C176.413 38.5401 176.589 37.92 176.66 37.3998C176.696 37.1407 176.701 36.9345 176.685 36.7815C176.669 36.6335 176.637 36.5797 176.635 36.5758C176.594 36.5167 176.561 36.4836 176.541 36.4647C176.52 36.4722 176.49 36.4856 176.448 36.5105C176.337 36.5774 176.219 36.6814 176.12 36.7864C176.074 36.8355 176.037 36.8782 176.013 36.9072C176.002 36.9212 175.994 36.9321 175.989 36.9377C175.776 37.2309 175.412 37.3748 175.056 37.307C174.699 37.2392 174.414 36.9719 174.323 36.621C174.249 36.3362 174.191 35.9652 174.136 35.6548C174.077 35.3165 174.016 34.9939 173.932 34.7069C173.847 34.4112 173.756 34.2228 173.678 34.1191C173.649 34.0805 173.629 34.0656 173.622 34.0611C173.597 34.0588 173.584 34.0604 173.58 34.0611C173.579 34.0619 173.578 34.0631 173.575 34.0648Z" fill="black"/>
<path fill-rule="evenodd" clip-rule="evenodd" d="M178.961 17.8533C180.616 17.1941 182.451 17.3289 184.076 17.9033C185.702 18.4781 187.205 19.521 188.232 20.811C189.258 22.0984 189.874 23.7249 189.498 25.4015C188.953 27.829 187.708 29.5497 185.963 30.5223C184.239 31.4826 182.15 31.6459 180.019 31.2187C179.288 31.0722 178.544 30.8531 177.797 30.5693C178.571 31.7392 179.65 32.7961 180.98 33.7407C184.727 36.4028 190.263 38.051 195.656 38.8701C196.167 38.9479 196.519 39.4259 196.442 39.9376C196.364 40.4494 195.886 40.8013 195.374 40.7237C189.866 39.887 183.991 38.179 179.894 35.2684C177.836 33.8061 176.18 32.008 175.279 29.8186C175.201 29.6293 175.13 29.4369 175.064 29.243C172.4 27.6622 169.842 25.2874 167.84 22.307C167.551 21.8772 167.666 21.2944 168.096 21.0057C168.526 20.7172 169.108 20.8317 169.397 21.2615C170.883 23.4747 172.681 25.2982 174.561 26.6673C174.479 25.2963 174.67 23.8319 175.168 22.2765C175.907 19.9697 177.273 18.5254 178.961 17.8533ZM183.451 19.6703C182.131 19.204 180.781 19.1471 179.654 19.5958C178.56 20.0317 177.548 20.9959 176.954 22.8484C176.333 24.7906 176.282 26.4895 176.649 27.9851C177.918 28.6672 179.186 29.1395 180.387 29.3804C182.216 29.747 183.821 29.5691 185.049 28.8848C186.256 28.2125 187.221 26.9846 187.668 24.9907C187.882 24.0374 187.561 22.9791 186.766 21.9798C185.972 20.9833 184.769 20.1362 183.451 19.6703Z" fill="black"/>
<path d="M191.371 34.7588C191.68 34.3434 192.268 34.2568 192.683 34.5659C193.405 35.1029 194.283 35.349 195.025 35.4521C195.389 35.5027 195.704 35.5168 195.925 35.5181C196.035 35.5187 196.121 35.5162 196.177 35.5138C196.204 35.5126 196.224 35.5115 196.236 35.5107C196.24 35.5105 196.243 35.5097 196.245 35.5095C196.761 35.4655 197.215 35.8484 197.259 36.364C197.303 36.8798 196.921 37.3341 196.405 37.3784L196.324 36.444C196.404 37.3709 196.405 37.3784 196.405 37.3784H196.403C196.403 37.3784 196.4 37.3789 196.399 37.379C196.396 37.3792 196.393 37.3793 196.389 37.3796C196.382 37.3802 196.371 37.3807 196.359 37.3815C196.335 37.3831 196.301 37.3851 196.259 37.387C196.176 37.3906 196.059 37.3945 195.915 37.3937C195.628 37.392 195.228 37.3736 194.766 37.3094C193.855 37.1828 192.633 36.8659 191.564 36.0704C191.148 35.7613 191.062 35.1741 191.371 34.7588Z" fill="black"/>
<path d="M164.83 21.1656C165.317 20.9909 165.854 21.2442 166.029 21.7314C166.213 22.2432 166.662 23.0056 167.304 23.8121C167.938 24.6084 168.709 25.3826 169.481 25.9398C169.901 26.2427 169.996 26.8285 169.693 27.2484C169.39 27.6682 168.804 27.763 168.384 27.4602C167.442 26.7806 166.551 25.8768 165.837 24.9803C165.132 24.0942 164.545 23.1483 164.264 22.365C164.089 21.8777 164.342 21.3405 164.83 21.1656Z" fill="black"/>
<path fill-rule="evenodd" clip-rule="evenodd" d="M151.928 3.45934C152.177 3.28398 152.496 3.2405 152.783 3.34276C154.244 3.86481 155.934 4.21901 157.688 4.6184C159.402 5.00864 161.182 5.44336 162.663 6.13268C164.154 6.82669 165.471 7.83723 166.088 9.44872C166.608 10.8085 166.568 12.4428 165.95 14.4109C166.773 15.4267 167.56 16.5016 168.285 17.6128C168.568 18.0464 168.446 18.6268 168.012 18.9098C167.578 19.1927 166.998 19.0705 166.715 18.637C166.151 17.7726 165.55 16.9344 164.925 16.1333C162.548 17.7446 159.248 17.8707 156.515 16.0893C153.629 14.2086 151.531 10.327 151.531 4.22533L151.537 4.11241C151.569 3.85111 151.71 3.61301 151.928 3.45934ZM153.441 5.51928C153.712 10.4035 155.519 13.2025 157.538 14.5189C159.587 15.854 161.989 15.7704 163.726 14.6764C162.127 12.8313 160.434 11.2591 158.838 10.1433C158.414 9.84663 158.31 9.26207 158.607 8.83776C158.903 8.41354 159.488 8.30991 159.912 8.60643C161.416 9.65764 162.971 11.0578 164.457 12.6787C164.661 11.5771 164.578 10.7511 164.337 10.1189C163.964 9.14438 163.137 8.42136 161.872 7.83251C160.597 7.23901 159.005 6.84088 157.272 6.4464C156.021 6.16146 154.693 5.87808 153.441 5.51928Z" fill="black"/>
<path d="M7.76316 76.2866C8.10622 76.238 8.41925 76.4749 8.46263 76.8158L8.68113 78.5364C9.47482 78.0784 10.3248 77.7186 11.2135 77.4707C11.7122 77.3316 12.2297 77.6233 12.3689 78.1219C12.4873 78.5473 12.2916 78.9852 11.9221 79.1913L12.5245 79.3518C12.8176 79.4299 12.946 79.7833 12.8114 80.141C12.6766 80.4985 12.33 80.7258 12.0368 80.6482L9.80723 80.0543C9.043 80.4714 8.33696 80.9973 7.71372 81.6193L9.51609 81.9781C9.82408 82.0395 10.0276 82.3886 9.97019 82.7576C9.91263 83.1264 9.61593 83.3767 9.30796 83.3154L6.7158 82.7985C6.17545 83.5555 5.75152 84.3879 5.45909 85.2667L6.80125 85.484C7.1357 85.5382 7.3716 85.8649 7.32737 86.2134C7.28293 86.5616 6.97563 86.8002 6.64134 86.7462L5.14048 86.5033C5.11507 86.6403 5.09197 86.7781 5.07273 86.9165C4.82524 88.6978 5.10546 90.501 5.87413 92.0978C6.21975 92.8157 6.65839 93.4769 7.17356 94.068C7.09288 93.0073 7.28328 91.8026 7.68382 90.5884C7.69628 90.5506 7.7094 90.5126 7.72227 90.4749L6.61082 88.4973C6.44286 88.1985 6.55032 87.8145 6.85069 87.6398C7.15104 87.4653 7.5305 87.5657 7.69847 87.8644L8.33018 88.9886C8.69917 88.2173 9.1423 87.467 9.64183 86.7719C9.94451 86.3506 10.2661 85.9522 10.6013 85.5835L9.92564 83.7354C9.80742 83.412 9.97491 83.0529 10.2998 82.934C10.6247 82.815 10.9842 82.9811 11.1024 83.3044L11.5846 84.6228C11.8789 84.3699 12.1797 84.1417 12.4836 83.9417C12.916 83.6572 13.4972 83.7767 13.7818 84.209C14.0663 84.6414 13.9468 85.2231 13.5145 85.5078C12.8607 85.9382 12.1834 86.5724 11.551 87.3602L13.2081 87.7881C13.5021 87.864 13.635 88.2168 13.5047 88.576C13.3743 88.935 13.0302 89.1652 12.7363 89.0894L10.6996 88.5632C10.1798 89.3989 9.75513 90.2938 9.46421 91.1755C9.37255 91.4534 9.29549 91.7242 9.2335 91.9855L11.2232 92.3755C11.5309 92.4359 11.7357 92.785 11.681 93.1549C11.6261 93.5247 11.3326 93.776 11.0249 93.7158L9.03636 93.3258C9.02332 93.6047 9.03101 93.864 9.05955 94.0997C9.15303 94.8711 9.43509 95.2307 9.68516 95.3754C9.93538 95.5198 10.3884 95.5845 11.1036 95.2795C11.8149 94.9762 12.6339 94.3627 13.4333 93.4668C13.4511 93.4468 13.4675 93.4253 13.4852 93.4052L12.1315 91.7773C11.9313 91.5364 12.0097 91.156 12.3066 90.9283C12.6035 90.7008 13.0071 90.7116 13.2075 90.9521L14.336 92.3096C14.7598 91.6938 15.1395 91.0276 15.4499 90.34C15.5743 90.0645 15.6849 89.7903 15.7832 89.5203L14.5399 87.7435C14.3622 87.4895 14.4392 87.0716 14.7114 86.8109C14.9837 86.5503 15.3491 86.5447 15.5268 86.7987L16.2385 87.8168C16.2775 87.578 16.3043 87.3469 16.3172 87.1259C16.3477 86.6091 16.7917 86.2148 17.3085 86.2451C17.825 86.2757 18.2187 86.7191 18.1886 87.2357C18.117 88.4556 17.7502 89.8025 17.1589 91.1121C17.1465 91.1394 17.133 91.1665 17.1205 91.1938L18.4553 90.9607C18.7944 90.9014 19.1178 91.1302 19.1773 91.4709C19.2367 91.8117 19.0098 92.1367 18.6708 92.196L16.4399 92.5861C16.421 92.5894 16.402 92.5912 16.3832 92.5928C15.9258 93.3573 15.4018 94.0772 14.8323 94.7156C14.7275 94.833 14.6206 94.9471 14.513 95.0586L16.2007 94.9945C16.5433 94.9815 16.8281 95.2528 16.836 95.6C16.8438 95.947 16.5724 96.2386 16.23 96.2518L12.9707 96.3763C12.6742 96.5779 12.3741 96.753 12.0729 96.8976C12.8428 97.0484 13.6351 97.097 14.43 97.0374C16.1971 96.9046 17.8989 96.2459 19.3177 95.141C19.4348 95.0498 19.5484 94.9543 19.6607 94.8578L18.534 93.476C18.3205 93.2139 18.3763 92.8297 18.6579 92.6184C18.9396 92.4076 19.3404 92.4488 19.5539 92.7106L20.572 93.9594C21.1859 93.2633 21.6928 92.4765 22.0759 91.6266L20.1753 89.4458C19.9692 89.2094 20.0398 88.8298 20.3327 88.5974C20.6258 88.3651 21.0305 88.3678 21.2367 88.6041L22.5947 90.1624C22.8195 89.3037 22.9193 88.4215 22.892 87.5439L21.1238 85.7434C20.9111 85.5267 20.9383 85.1137 21.1842 84.8212C21.4302 84.5289 21.8022 84.4678 22.0149 84.6844L22.5843 85.2649C22.613 84.8743 22.8867 84.5279 23.2868 84.425C23.7881 84.2965 24.2988 84.5988 24.4276 85.1001C24.7162 86.2233 24.8203 87.3818 24.7468 88.5321L26.9813 87.5848C27.2978 87.4507 27.6605 87.6015 27.7919 87.9218C27.923 88.2423 27.7727 88.612 27.4562 88.7463L24.8005 89.873C24.7255 89.9049 24.6476 89.9199 24.571 89.9213C24.4724 90.4337 24.3381 90.9413 24.167 91.4392C23.9775 91.9902 23.7441 92.5225 23.4736 93.0334L25.5909 93.0682C25.9351 93.0738 26.2104 93.3585 26.2055 93.7042C26.2004 94.05 25.9174 94.3267 25.5732 94.3213L22.7113 94.2749C22.1525 95.0624 21.4915 95.7764 20.7441 96.3977L22.6124 97.0728C22.9347 97.1893 23.1016 97.5497 22.9853 97.8772C22.869 98.2045 22.5135 98.3756 22.1913 98.2593L19.5082 97.2894C18.7632 97.7521 17.9683 98.1219 17.1412 98.3936L18.3082 98.8983C18.6219 99.034 18.7621 99.4026 18.6219 99.7217C18.4816 100.04 18.1139 100.189 17.8004 100.054L15.0617 98.869C15.0555 98.8663 15.0496 98.8628 15.0434 98.8599C14.8863 98.8787 14.7286 98.895 14.5704 98.9069C12.4303 99.0675 10.2992 98.5846 8.4492 97.5165C6.59928 96.4483 5.11559 94.8444 4.18467 92.9108C4.0735 92.6798 3.9712 92.445 3.87705 92.2076L2.25901 90.9955C1.98541 90.7905 1.93153 90.3965 2.13877 90.1166C2.34611 89.8369 2.73618 89.7762 3.00975 89.9811L3.29661 90.1959C3.13614 89.3362 3.07977 88.4565 3.12815 87.5757L1.61814 86.3049C1.35613 86.0842 1.32656 85.6912 1.55162 85.4266C1.77689 85.162 2.17189 85.126 2.43418 85.3467L3.31187 86.0852C3.51329 85.0404 3.86321 84.0322 4.34764 83.0908L3.33995 81.4062C3.16343 81.1109 3.26092 80.7277 3.55784 80.5505C3.85496 80.3735 4.23916 80.4695 4.416 80.7648L5.0764 81.8695C5.3156 81.5217 5.57518 81.1865 5.85398 80.8661C6.35571 80.2895 6.91323 79.7701 7.51475 79.3127L7.21995 76.9922C7.17674 76.6513 7.4201 76.3354 7.76316 76.2866Z" fill="black"/>
<path d="M30.5476 50.9375C34.9263 50.9375 38.5395 54.3598 38.5395 58.6578V75.7074C38.8938 75.6989 39.1188 75.4295 39.1188 75.1715C39.1188 72.5022 41.3584 70.4005 44.0431 70.4004C46.7278 70.4004 48.9679 72.5022 48.968 75.1715V78.4155C48.968 82.8763 45.2176 86.4305 40.6697 86.4307H38.5395V93.75C38.5395 94.2677 38.1198 94.6875 37.602 94.6875C37.0844 94.6874 36.6645 94.2677 36.6645 93.75V85.4932C36.6645 84.9755 37.0844 84.5558 37.602 84.5557H40.6697C44.2522 84.5555 47.093 81.772 47.093 78.4155V75.1715C47.0929 73.6065 45.7624 72.2754 44.0431 72.2754C42.3238 72.2755 40.9938 73.6065 40.9938 75.1715C40.9938 76.5379 39.8521 77.5835 38.5224 77.5836H37.602C37.0844 77.5835 36.6645 77.1638 36.6645 76.6461V58.6578C36.6645 55.4641 33.9609 52.8125 30.5476 52.8125C27.1344 52.8126 24.4313 55.4642 24.4313 58.6578V70.293C24.4313 70.5614 24.3161 70.8175 24.1151 70.9955C23.9141 71.1734 23.6461 71.2563 23.3796 71.2238C22.254 71.0861 21.3288 70.1515 21.3288 68.9539C21.3286 67.5714 20.142 66.3776 18.5859 66.3776C17.0299 66.3776 15.8432 67.5714 15.843 68.9539V71.9281C15.8432 74.9528 18.4243 77.478 21.7005 77.478H23.4938C24.0113 77.4782 24.4313 77.8979 24.4313 78.4155V82.5C24.4313 83.0176 24.0113 83.4373 23.4938 83.4375C22.976 83.4375 22.5563 83.0178 22.5563 82.5V79.353H21.7005C17.4715 79.353 13.9682 76.0692 13.968 71.9281V68.9539C13.9682 66.4551 16.077 64.5026 18.5859 64.5026C20.2537 64.5026 21.7439 65.366 22.5563 66.6785V58.6578C22.5563 54.3599 26.169 50.9376 30.5476 50.9375Z" fill="black"/>
<path d="M33.2746 90.8423C33.7736 90.8423 34.178 91.2327 34.178 91.7145C34.1779 92.1963 33.7736 92.5867 33.2746 92.5867C32.7758 92.5866 32.3713 92.1962 32.3713 91.7145C32.3713 91.2327 32.7757 90.8423 33.2746 90.8423Z" fill="black"/>
<path d="M27.8541 84.4446C28.353 84.4446 28.7574 84.835 28.7574 85.3168C28.7574 85.7986 28.353 86.189 27.8541 86.189C27.3552 86.1889 26.9508 85.7985 26.9508 85.3168C26.9508 84.835 27.3553 84.4447 27.8541 84.4446Z" fill="black"/>
<path d="M33.2746 78.6285C33.7736 78.6285 34.1779 79.019 34.178 79.5007C34.178 79.9825 33.7736 80.3729 33.2746 80.3729C32.7757 80.3729 32.3713 79.9825 32.3713 79.5007C32.3714 79.019 32.7758 78.6286 33.2746 78.6285Z" fill="black"/>
<path d="M27.8541 72.2308C28.353 72.2308 28.7574 72.6218 28.7574 73.1036C28.7573 73.5853 28.353 73.9758 27.8541 73.9758C27.3553 73.9757 26.9509 73.5853 26.9508 73.1036C26.9508 72.6219 27.3552 72.2309 27.8541 72.2308Z" fill="black"/>
<path d="M33.2746 65.2515C33.7736 65.2515 34.178 65.6425 34.178 66.1243C34.1779 66.606 33.7735 66.9965 33.2746 66.9965C32.7758 66.9964 32.3714 66.606 32.3713 66.1243C32.3713 65.6425 32.7757 65.2515 33.2746 65.2515Z" fill="black"/>
<path d="M27.8541 58.8544C28.353 58.8544 28.7574 59.2448 28.7574 59.7266C28.7574 60.2084 28.353 60.5988 27.8541 60.5988C27.3553 60.5987 26.9508 60.2083 26.9508 59.7266C26.9508 59.2448 27.3552 58.8545 27.8541 58.8544Z" fill="black"/>
<path fill-rule="evenodd" clip-rule="evenodd" d="M69.3152 76.4374C74.3641 76.4374 78.9815 77.5841 82.3694 79.4861C85.7276 81.3714 88.0652 84.1235 88.0652 87.3749C88.0652 90.6263 85.7276 93.3783 82.3694 95.2637C78.9815 97.1656 74.3641 98.3124 69.3152 98.3124C64.2663 98.3124 59.649 97.1656 56.261 95.2637C52.9028 93.3783 50.5652 90.6264 50.5652 87.3749C50.5653 84.1235 52.9029 81.3714 56.261 79.4861C59.649 77.5842 64.2664 76.4374 69.3152 76.4374ZM69.3152 78.3124C64.5269 78.3124 60.2379 79.4041 57.179 81.1212C54.0905 82.8551 52.4403 85.1036 52.4402 87.3749C52.4402 88.0244 52.5757 88.6718 52.8406 89.306C55.5975 85.2224 61.7964 82.3749 69.0027 82.3749C76.5357 82.3749 82.9678 85.4863 85.5182 89.8688C85.962 89.0573 86.1902 88.2178 86.1902 87.3749C86.1902 85.1036 84.54 82.8551 81.4515 81.1212C78.3927 79.404 74.1037 78.3124 69.3152 78.3124Z" fill="black"/>
<path fill-rule="evenodd" clip-rule="evenodd" d="M86.0169 51.3123C86.4974 51.3123 87.029 51.4155 87.4793 51.6754C87.8355 51.8811 88.1809 52.2156 88.3088 52.6868L90.0965 57.0013C90.1792 57.1163 90.237 57.2507 90.2607 57.3975L91.8702 61.2805C91.9634 61.4041 92.0264 61.5516 92.049 61.7126L93.5615 65.3619L98.1952 67.9761C98.8294 68.3338 99.3749 68.9396 99.3751 69.7498C99.375 70.56 98.8294 71.1657 98.1952 71.5234L88.407 77.0453C87.7643 77.4078 86.9816 77.5623 86.2501 77.5623C85.5185 77.5623 84.7358 77.4078 84.0931 77.0453L74.3049 71.5234C73.6707 71.1657 73.1251 70.56 73.1251 69.7498C73.1252 68.9396 73.6708 68.3338 74.3049 67.9761L74.311 67.973L74.3171 67.9694L78.3021 65.8014L78.3027 65.8026L80.0049 61.684C80.0268 61.5999 80.06 61.5205 80.1026 61.4478L81.7951 57.3547C81.8194 57.2388 81.8645 57.1309 81.9269 57.0355L83.7372 52.6575C83.9102 52.1227 84.3235 51.8062 84.5545 51.6766V51.6754C84.5625 51.6708 84.5715 51.6671 84.5795 51.6626C84.5841 51.6601 84.5886 51.6569 84.593 51.6547C85.0351 51.4104 85.5498 51.3123 86.0169 51.3123ZM94.1138 67.8265C93.8657 69.0609 92.9407 70.1378 91.598 70.9131C90.0122 71.8285 87.9928 72.2595 86.0242 72.2595C84.0556 72.2595 82.0357 71.8286 80.4499 70.9131C79.2071 70.1955 78.3212 69.2199 77.9993 68.1L75.221 69.6118C75.1254 69.6662 75.0667 69.7152 75.0324 69.7498C75.0672 69.7848 75.1274 69.8346 75.2259 69.8901L85.0141 75.412C85.3083 75.5779 85.7537 75.6873 86.2501 75.6873C86.7464 75.6873 87.1919 75.5779 87.486 75.412L97.2742 69.8901C97.3724 69.8347 97.4323 69.7848 97.4671 69.7498C97.4322 69.7147 97.3723 69.6647 97.2742 69.6094L94.1138 67.8265ZM91.0151 64.115C90.7348 64.3825 90.4087 64.6237 90.0477 64.8322C88.8658 65.5145 87.3838 65.8377 85.9553 65.8484C84.5283 65.8591 83.0524 65.5588 81.8879 64.8865C81.5515 64.6922 81.2485 64.4671 80.9864 64.2181L79.7437 67.2241C79.7754 67.8334 80.1977 68.602 81.3874 69.2889C82.6212 70.0012 84.2975 70.3845 86.0242 70.3845C87.7509 70.3845 89.4268 70.0012 90.6605 69.2889C91.8501 68.602 92.2718 67.8333 92.3035 67.2241L91.0151 64.115ZM81.8513 62.1259C81.8875 62.4273 82.1113 62.8506 82.8254 63.2629C83.6291 63.727 84.7544 63.9829 85.9412 63.974C87.1264 63.9651 88.2718 63.6926 89.1102 63.2086C89.8257 62.7954 90.0928 62.3707 90.163 62.0593L89.1327 59.574C89.0372 59.6418 88.938 59.7058 88.8355 59.765C88.0125 60.2402 86.9925 60.451 86.0236 60.451C85.0547 60.451 84.0347 60.2402 83.2117 59.765C83.1069 59.7045 83.0052 59.6392 82.9078 59.5697L81.8513 62.1259ZM83.678 57.7075C83.7249 57.8085 83.8446 57.9649 84.1492 58.1409C84.6201 58.4127 85.2966 58.576 86.0236 58.576C86.7506 58.576 87.4271 58.4128 87.898 58.1409C88.1927 57.9707 88.3136 57.8184 88.3637 57.7173L86.7554 53.8354C86.3033 53.9941 85.7305 53.9926 85.2814 53.83L83.678 57.7075Z" fill="black"/>
<path d="M134.292 89.0961C134.74 88.8355 135.311 88.9884 135.567 89.4379L137.636 93.0585C137.893 93.508 137.739 94.0843 137.292 94.3451C136.845 94.6059 136.274 94.4528 136.017 94.0033L133.948 90.3827C133.691 89.9332 133.845 89.3569 134.292 89.0961Z" fill="black"/>
<path fill-rule="evenodd" clip-rule="evenodd" d="M124.116 90.2283C125.157 90.2283 125.991 91.0797 125.991 92.1161C125.991 93.1525 125.157 94.0033 124.116 94.0033C123.075 94.0033 122.241 93.1526 122.241 92.1161C122.241 91.0796 123.075 90.2283 124.116 90.2283ZM124.116 91.4783C123.777 91.4783 123.491 91.7581 123.491 92.1161C123.491 92.4741 123.777 92.7533 124.116 92.7533C124.455 92.7533 124.741 92.4741 124.741 92.1161C124.741 91.7582 124.455 91.4783 124.116 91.4783Z" fill="black"/>
<path d="M117.401 89.1327C117.658 88.6832 118.229 88.5301 118.676 88.7909C119.123 89.0518 119.277 89.6274 119.02 90.0769L117.701 92.3859C117.444 92.8352 116.873 92.9885 116.426 92.7277C115.978 92.4668 115.824 91.8905 116.081 91.441L117.401 89.1327Z" fill="black"/>
<path fill-rule="evenodd" clip-rule="evenodd" d="M126.688 62.6434C129.74 62.6435 132.238 64.9849 132.525 67.9688C135.208 68.0051 137.361 70.2035 137.361 72.8979C137.361 73.5375 137.239 74.1499 137.018 74.7119C138.118 75.7839 138.803 77.2861 138.803 78.9484C138.803 81.9511 136.569 84.4356 133.672 84.7992C132.797 86.1363 131.29 87.0245 129.573 87.0245C128.494 87.0245 127.498 86.6729 126.689 86.0809C125.634 87.1121 124.193 87.7508 122.602 87.7509C119.357 87.7509 116.736 85.104 116.736 81.8524C116.736 81.5255 116.764 81.2043 116.815 80.8911C114.038 80.4221 111.929 77.9935 111.928 75.0763C111.928 72.1865 113.998 69.7762 116.736 69.2749C116.736 69.2727 116.736 69.2704 116.736 69.2682C116.736 66.5511 118.926 64.3373 121.64 64.3372C121.932 64.3372 122.22 64.3643 122.499 64.4141C123.562 63.3235 125.045 62.6435 126.688 62.6434ZM126.688 64.5184C125.425 64.5185 124.298 65.1093 123.564 66.0382C123.323 66.3438 122.918 66.4685 122.546 66.3513C122.261 66.2613 121.957 66.2122 121.64 66.2122C119.973 66.2123 118.611 67.5748 118.611 69.2682C118.611 69.4918 118.635 69.7097 118.68 69.9188C118.739 70.1946 118.671 70.4826 118.494 70.7025C118.317 70.9223 118.051 71.0511 117.769 71.0529C115.582 71.0663 113.803 72.8567 113.803 75.0763C113.804 77.3042 115.596 79.0997 117.794 79.0997C117.851 79.0997 117.91 79.0983 117.974 79.0955C118.291 79.0813 118.594 79.2281 118.778 79.4861C118.963 79.7442 119.005 80.0787 118.889 80.3741C118.71 80.8303 118.611 81.3286 118.611 81.8524C118.611 84.0804 120.404 85.8759 122.602 85.8759C123.839 85.8758 124.947 85.3081 125.681 84.411L125.736 84.3488C125.872 84.2103 126.048 84.1167 126.24 84.082C126.348 84.0626 126.455 84.0402 126.563 84.0149L126.682 83.9948C126.96 83.966 127.24 84.0636 127.441 84.2645C127.99 84.8134 128.742 85.1495 129.573 85.1495C130.746 85.1495 131.768 84.4761 132.271 83.4821C132.426 83.1772 132.734 82.9805 133.076 82.9688C135.21 82.8959 136.928 81.1293 136.928 78.9484C136.928 77.6171 136.288 76.4382 135.3 75.705C134.914 75.418 134.807 74.8848 135.054 74.4714C135.328 74.0126 135.486 73.4752 135.486 72.8979C135.486 71.2045 134.124 69.8426 132.457 69.8425C132.23 69.8426 132.01 69.8674 131.799 69.9146C131.507 69.9798 131.201 69.9015 130.976 69.704C130.751 69.5063 130.634 69.213 130.661 68.9148C130.673 68.7905 130.678 68.6661 130.678 68.5419C130.678 66.3139 128.886 64.5185 126.688 64.5184Z" fill="black"/>
<path d="M108.456 82.1106C108.903 81.8498 109.474 82.0029 109.731 82.4524C109.988 82.9019 109.834 83.4776 109.386 83.7384L105.81 85.824C105.363 86.0848 104.792 85.9317 104.535 85.4822C104.278 85.0327 104.432 84.457 104.88 84.1962L108.456 82.1106Z" fill="black"/>
<path d="M138.821 81.9586C139.078 81.5091 139.65 81.3566 140.097 81.6174L143.24 83.4503C143.687 83.7112 143.841 84.2869 143.584 84.7363C143.327 85.1858 142.757 85.339 142.309 85.0781L139.166 83.2452C138.719 82.9844 138.564 82.4081 138.821 81.9586Z" fill="black"/>
<path d="M107.148 65.6573C107.405 65.208 107.975 65.0554 108.423 65.3162L110.7 66.6437C111.147 66.9045 111.301 67.4808 111.044 67.9303C110.787 68.3796 110.216 68.5323 109.769 68.2715L107.492 66.944C107.045 66.6831 106.891 66.1068 107.148 65.6573Z" fill="black"/>
<path d="M142.887 62.9413C143.335 62.6804 143.905 62.8336 144.162 63.2831C144.419 63.7325 144.265 64.3082 143.818 64.5691L140.241 66.6547C139.794 66.9155 139.223 66.7624 138.966 66.3129C138.71 65.8634 138.864 65.2877 139.311 65.0269L142.887 62.9413Z" fill="black"/>
<path d="M134.651 58.9526C134.908 58.5032 135.478 58.3506 135.926 58.6115C136.373 58.8723 136.527 59.448 136.271 59.8975L134.951 62.2064C134.694 62.6557 134.123 62.8083 133.676 62.5476C133.229 62.2868 133.074 61.7111 133.331 61.2616L134.651 58.9526Z" fill="black"/>
<path d="M113.962 55.1056C114.409 54.8448 114.98 54.9974 115.237 55.4468L117.307 59.068C117.564 59.5175 117.409 60.0932 116.962 60.354C116.515 60.6147 115.944 60.4617 115.687 60.0122L113.617 56.3916C113.361 55.9422 113.515 55.3664 113.962 55.1056Z" fill="black"/>
<path fill-rule="evenodd" clip-rule="evenodd" d="M128.116 54.8749C129.157 54.8749 129.991 55.7262 129.991 56.7627C129.991 57.7992 129.157 58.6499 128.116 58.6499C127.074 58.6497 126.241 57.7991 126.241 56.7627C126.241 55.7263 127.074 54.875 128.116 54.8749ZM128.116 56.1249C127.776 56.125 127.491 56.4048 127.491 56.7627C127.491 57.1206 127.777 57.3997 128.116 57.3999C128.455 57.3999 128.741 57.1207 128.741 56.7627C128.741 56.4047 128.455 56.1249 128.116 56.1249Z" fill="black"/>
<path d="M32.0058 22.0243C32.5221 21.8283 33.0998 22.088 33.2958 22.6044C33.4916 23.1206 33.232 23.6975 32.7158 23.8934C29.9281 24.9516 27.7451 25.4974 25.665 25.4843C23.5682 25.4709 21.6705 24.8907 19.456 23.8661C18.9549 23.6341 18.7368 23.0401 18.9687 22.5389C19.2006 22.0378 19.7946 21.8197 20.2958 22.0516C22.3739 23.0131 23.9767 23.4735 25.6777 23.4843C27.3951 23.4951 29.3079 23.0484 32.0058 22.0243Z" fill="black"/>
<path d="M7.4043 6.86523C7.9564 6.86545 8.4043 7.31308 8.4043 7.86523C8.40414 8.41725 7.9563 8.86502 7.4043 8.86523H5C4.44781 8.86523 4.00016 8.41738 4 7.86523C4 7.31295 4.44772 6.86523 5 6.86523H7.4043ZM6.24609 1.70605C6.65263 1.33222 7.28535 1.35909 7.65918 1.76562L9.42773 3.68848C9.80152 4.09501 9.77468 4.72775 9.36816 5.10156C8.96162 5.47523 8.32886 5.44847 7.95508 5.04199L6.1875 3.11914C5.81367 2.71261 5.83957 2.07989 6.24609 1.70605ZM12.1729 3.4043V1C12.1729 0.44779 12.6207 0.000121648 13.1729 0C13.7251 0 14.1729 0.447715 14.1729 1V3.4043C14.1726 3.95637 13.725 4.4043 13.1729 4.4043C12.6208 4.40418 12.1731 3.9563 12.1729 3.4043Z" fill="black"/>
<path fill-rule="evenodd" clip-rule="evenodd" d="M36.5625 5.56543L36.4609 5.56055H13.6592C11.3946 5.56068 9.5587 7.39651 9.55859 9.66113V45C9.55863 45.5522 10.0064 46 10.5586 46C11 46 11.5586 45.7071 11.5586 45V9.66113C11.5587 8.50108 12.4991 7.56068 13.6592 7.56055H35.4609V10.2129L35.4648 10.3643C35.5437 11.9163 36.8268 13.1511 38.3984 13.1514H40.8643V45C40.8643 45.5698 41.312 46 41.8643 46C42.4165 46 42.8642 45.5523 42.8643 45V12.5234C42.8642 12.2754 42.772 12.0364 42.6055 11.8525L37.2012 5.88867C37.1981 5.88525 37.1947 5.88204 37.1914 5.87883C37.1888 5.87629 37.1861 5.87374 37.1836 5.87109C37.1812 5.8686 37.1789 5.8661 37.1765 5.8636C37.1692 5.85589 37.1619 5.84819 37.1543 5.84082C37.1391 5.82621 37.1234 5.81238 37.1074 5.79883C37.1049 5.79666 37.1024 5.79445 37.0998 5.79225C37.0956 5.78852 37.0913 5.7848 37.0869 5.78125C37.0702 5.7678 37.0527 5.75546 37.0352 5.74316C37.0317 5.74071 37.0282 5.73819 37.0248 5.73566C37.0192 5.73155 37.0136 5.72744 37.0078 5.72363C36.9979 5.71716 36.9876 5.7113 36.9774 5.70544C36.9732 5.70305 36.969 5.70067 36.9648 5.69824C36.8971 5.65851 36.8248 5.62554 36.748 5.60254C36.7389 5.59981 36.7297 5.59771 36.7204 5.59561C36.7149 5.59438 36.7095 5.59315 36.7041 5.5918C36.658 5.58024 36.6109 5.57033 36.5625 5.56543ZM37.4658 10.3086L37.4609 10.2129V9.15332L39.2715 11.1514H38.3984C37.913 11.1511 37.5138 10.7815 37.4658 10.3086Z" fill="black"/>
<path d="M20.1518 18.1933C20.1518 18.9899 19.506 19.6357 18.7095 19.6357C17.9129 19.6357 17.2672 18.9899 17.2672 18.1933C17.2672 17.3968 17.9129 16.751 18.7095 16.751C19.506 16.751 20.1518 17.3968 20.1518 18.1933Z" fill="black"/>
<path d="M35.0592 18.1933C35.0592 18.9899 34.4135 19.6357 33.6169 19.6357C32.8204 19.6357 32.1746 18.9899 32.1746 18.1933C32.1746 17.3968 32.8204 16.751 33.6169 16.751C34.4135 16.751 35.0592 17.3968 35.0592 18.1933Z" fill="black"/>
<path opacity="0.3" d="M29.9617 33.173C30.514 33.173 30.9617 33.6207 30.9617 34.173C30.9617 34.7253 30.514 35.173 29.9617 35.173H16.5769C16.0246 35.173 15.5769 34.7253 15.5769 34.173C15.5769 33.6207 16.0246 33.173 16.5769 33.173H29.9617Z" fill="black"/>
<path opacity="0.3" d="M35.7312 38.4615C36.2835 38.4615 36.7312 38.9092 36.7312 39.4615C36.7312 40.0138 36.2835 40.4615 35.7312 40.4615H16.5769C16.0246 40.4615 15.5769 40.0138 15.5769 39.4615C15.5769 38.9092 16.0246 38.4615 16.5769 38.4615H35.7312Z" fill="black"/>
<path d="M175.632 80.1487C175.929 80.3719 176.138 80.61 176.294 80.885C176.522 81.2872 176.663 81.8029 176.775 82.5412V86.8996C176.714 86.7554 176.653 86.6108 176.588 86.469C176.019 85.2345 175.223 84.0496 174.202 83.3342L175.632 80.1487Z" fill="black"/>
<path d="M172.965 76.5969C173.774 77.0942 174.648 77.9322 174.929 79.3928L173.818 81.8664C173.303 80.2229 172.064 78.7965 170.606 77.6858L172.965 76.5969Z" fill="black"/>
<path d="M176.775 79.9221C176.559 79.6685 176.302 79.4454 175.996 79.2424L176.775 76.9309V79.9221Z" fill="black"/>
<path d="M175.438 77.9192C175.052 77.127 174.507 76.5484 173.956 76.1272L176.441 74.9416L175.438 77.9192Z" fill="black"/>
<path d="M171.257 73.6243C171.778 74.0729 172.083 74.4563 172.262 74.8186C172.408 75.1136 172.48 75.4158 172.505 75.761L170.11 76.8664C169.959 75.4639 169.273 74.1371 168.378 73.0891L171.257 73.6243Z" fill="black"/>
<path d="M175.636 74.2717L173.411 75.3342C173.359 75.0186 173.268 74.7073 173.114 74.3967C173.023 74.2122 172.911 74.0319 172.779 73.8528L175.636 74.2717Z" fill="black"/>
<path d="M173.956 73.0891L172.013 72.7795C172.018 72.3406 171.447 71.8993 171.257 71.4893L173.956 73.0891Z" fill="black"/>
<path d="M169.909 70.9893C169.909 70.9893 170.589 71.3662 170.818 71.8528C170.959 72.1496 171.032 72.4078 171.055 72.6194L167.367 71.9348C167.266 70.7253 166.817 69.9819 165.934 68.7755L169.909 70.9893Z" fill="black"/>
<path fill-rule="evenodd" clip-rule="evenodd" d="M177.868 54.5754C178.151 54.4588 178.475 54.4773 178.745 54.6311L194.745 63.7561C195.057 63.9341 195.25 64.2664 195.25 64.6252V82.8752C195.25 83.2321 195.059 83.5629 194.75 83.7414L187.75 87.7825V92.0002C187.75 92.5519 187.302 92.9999 186.75 93.0002H178.799C178.768 93.0206 178.737 93.0408 178.703 93.0578L172.147 96.3918C171.846 96.5446 171.488 96.535 171.195 96.3674L155.252 87.2004C154.934 87.0176 154.741 86.6746 154.75 86.3078C154.76 85.9409 154.97 85.609 155.297 85.4426L160.814 82.6369L157.915 78.2336C157.808 78.0706 157.75 77.879 157.75 77.6838V59.5002C157.75 59.0585 158.04 58.669 158.463 58.5422C158.886 58.4157 159.342 58.5817 159.585 58.9504L162.056 62.7034L165.809 56.9534L165.866 56.8743C166.171 56.4937 166.714 56.3852 167.145 56.633L170.722 58.6907L177.75 54.634L177.868 54.5754ZM157.85 86.3869L171.722 94.3625L176.15 92.1125L162.277 84.1369L157.85 86.3869ZM179.25 91.0002H185.75V74.5002H179.25V91.0002ZM163.25 66.886C165.257 68.4968 166.435 70.6591 166.435 72.3342C166.435 72.4802 166.502 72.6183 166.617 72.7082C168.06 73.8337 169.252 75.7243 169.191 77.5803C169.185 77.7444 169.265 77.9011 169.401 77.9924C171.536 79.4205 173.125 81.3833 173.125 83.5159C173.125 83.6879 173.218 83.848 173.368 83.9319C174.31 84.4565 175.12 85.5571 175.724 86.8664C176.196 87.8905 176.518 88.9953 176.679 89.9465L177.75 90.8469V74.3967L163.25 66.2258V66.886ZM172.726 59.843L183.249 65.8967C183.487 66.0339 183.659 66.2636 183.723 66.5305C183.786 66.7974 183.738 67.0799 183.588 67.3098L180.201 72.5002H186.75C187.302 72.5006 187.75 72.9482 187.75 73.5002V85.4729L193.25 82.2971V65.2063L178.253 56.6526L172.726 59.843ZM159.75 77.384L161.25 79.6623V65.1155L159.75 62.8371V77.384ZM163.665 63.8977L178.032 72.1614L181.334 67.1018L166.967 58.8381L163.665 63.8977Z" fill="black"/>
<path fill-rule="evenodd" clip-rule="evenodd" d="M82.3694 130.486C78.9815 128.584 74.3641 127.437 69.3152 127.437C64.2664 127.437 59.649 128.584 56.261 130.486C52.9029 132.371 50.5653 135.123 50.5652 138.375C50.5652 141.626 52.9028 144.378 56.261 146.264C59.649 148.166 64.2663 149.312 69.3152 149.312C74.3641 149.312 78.9815 148.166 82.3694 146.264C85.7276 144.378 88.0652 141.626 88.0652 138.375C88.0652 135.123 85.7276 132.371 82.3694 130.486ZM57.179 132.121C60.2379 130.404 64.5269 129.312 69.3152 129.312C74.1037 129.312 78.3927 130.404 81.4515 132.121C84.54 133.855 86.1902 136.104 86.1902 138.375C86.1902 139.218 85.962 140.057 85.5182 140.869C81.8879 148.812 57.179 149.988 52.8406 140.306C52.5757 139.672 52.4402 139.024 52.4402 138.375C52.4403 136.104 54.0905 133.855 57.179 132.121Z" fill="black"/>
<path fill-rule="evenodd" clip-rule="evenodd" d="M86.0169 102.312C86.4974 102.312 87.029 102.415 87.4793 102.675C87.8355 102.881 88.1809 103.216 88.3088 103.687L90.0965 108.001C90.1792 108.116 90.237 108.251 90.2607 108.397L91.8702 112.281C91.9634 112.404 92.0264 112.552 92.049 112.713L93.5615 116.362L98.1952 118.976C98.8294 119.334 99.3749 119.94 99.3751 120.75C99.375 121.56 98.8294 122.166 98.1952 122.523L88.407 128.045C87.7643 128.408 86.9816 128.562 86.2501 128.562C85.5185 128.562 84.7358 128.408 84.0931 128.045L74.3049 122.523C73.6707 122.166 73.1251 121.56 73.1251 120.75C73.1252 119.94 73.6708 119.334 74.3049 118.976L74.3171 118.969L78.3021 116.801L80.0049 112.684C80.0268 112.6 80.06 112.521 80.1026 112.448L81.7951 108.355C81.8194 108.239 81.8645 108.131 81.9269 108.036L83.7372 103.657C83.9102 103.123 84.3235 102.806 84.5545 102.677C84.5625 102.672 84.5715 102.667 84.5795 102.663C84.5841 102.66 84.5886 102.657 84.593 102.655C85.0351 102.41 85.5498 102.312 86.0169 102.312ZM94.1138 118.827C93.8657 120.061 92.9407 121.138 91.598 121.913C90.0122 122.829 87.9928 123.259 86.0242 123.26C84.0556 123.26 82.0357 122.829 80.4499 121.913C79.2071 121.196 78.3212 120.22 77.9993 119.1L75.221 120.612C75.1254 120.666 75.0667 120.715 75.0324 120.75C75.0672 120.785 75.1274 120.835 75.2259 120.89L85.0141 126.412C85.3083 126.578 85.7537 126.687 86.2501 126.687C86.7464 126.687 87.1919 126.578 87.486 126.412L97.2742 120.89C97.3724 120.835 97.4323 120.785 97.4671 120.75C97.4322 120.715 97.3723 120.665 97.2742 120.609L94.1138 118.827ZM91.0151 115.115C90.7348 115.382 90.4087 115.624 90.0477 115.832C88.8658 116.515 87.3838 116.838 85.9553 116.848C84.5283 116.859 83.0524 116.559 81.8879 115.886C81.5515 115.692 81.2485 115.467 80.9864 115.218L79.7437 118.224C79.7754 118.833 80.1977 119.602 81.3874 120.289C82.6212 121.001 84.2975 121.385 86.0242 121.385C87.7509 121.384 89.4268 121.001 90.6605 120.289C91.8501 119.602 92.2718 118.833 92.3035 118.224L91.0151 115.115ZM81.8513 113.126C81.8875 113.427 82.1113 113.851 82.8254 114.263C83.6291 114.727 84.7544 114.983 85.9412 114.974C87.1264 114.965 88.2718 114.693 89.1102 114.209C89.8257 113.795 90.0928 113.371 90.163 113.059L89.1327 110.574C89.0372 110.642 88.938 110.706 88.8355 110.765C88.0125 111.24 86.9925 111.451 86.0236 111.451C85.0547 111.451 84.0347 111.24 83.2117 110.765C83.1069 110.704 83.0052 110.639 82.9078 110.57L81.8513 113.126ZM83.678 108.708C83.7249 108.808 83.8446 108.965 84.1492 109.141C84.6201 109.413 85.2966 109.576 86.0236 109.576C86.7506 109.576 87.4271 109.413 87.898 109.141C88.1927 108.971 88.3136 108.818 88.3637 108.717L86.7554 104.835C86.3033 104.994 85.7305 104.993 85.2814 104.83L83.678 108.708Z" fill="black"/>
<path fill-rule="evenodd" clip-rule="evenodd" d="M57.179 132.121C60.2379 130.404 64.5269 129.312 69.3152 129.312C74.1037 129.312 78.3927 130.404 81.4515 132.121C84.54 133.855 86.1902 136.104 86.1902 138.375C86.1902 139.218 85.962 140.057 85.5182 140.869C82.9678 136.486 76.5357 133.375 69.0027 133.375C61.7964 133.375 55.5975 136.222 52.8406 140.306C52.5757 139.672 52.4402 139.024 52.4402 138.375C52.4403 136.104 54.0905 133.855 57.179 132.121Z" fill="black"/>
<path fill-rule="evenodd" clip-rule="evenodd" d="M178.745 105.631C178.475 105.477 178.151 105.459 177.868 105.575L177.75 105.634L170.722 109.691L167.145 107.633C166.714 107.385 166.171 107.494 165.866 107.874L165.809 107.953L162.056 113.703L159.585 109.95C159.342 109.582 158.886 109.416 158.463 109.542C158.04 109.669 157.75 110.059 157.75 110.5V128.684C157.75 128.879 157.808 129.071 157.915 129.234L160.814 133.637L155.297 136.443C154.97 136.609 154.76 136.941 154.75 137.308C154.741 137.675 154.934 138.018 155.252 138.2L171.195 147.367C171.488 147.535 171.846 147.545 172.147 147.392L178.703 144.058C178.737 144.041 178.768 144.021 178.799 144H186.75C187.302 144 187.75 143.552 187.75 143V138.782L194.75 134.741C195.059 134.563 195.25 134.232 195.25 133.875V115.625C195.25 115.266 195.057 114.934 194.745 114.756L178.745 105.631ZM171.722 145.363L157.85 137.387L162.277 135.137L176.15 143.113L171.722 145.363ZM185.75 142H179.25V125.5H185.75V142ZM163.25 117.465V116.805L177.75 124.976V142L163.25 133.637V117.465ZM183.249 116.897L172.726 110.843L178.253 107.653L193.25 116.206V133.297L187.75 136.473V124.5C187.75 123.948 187.302 123.501 186.75 123.5H180.201L183.588 118.31C183.738 118.08 183.786 117.797 183.723 117.53C183.659 117.264 183.487 117.034 183.249 116.897ZM161.25 130.662L159.75 128.384V113.837L161.25 116.115V130.662ZM178.032 123.161L163.665 114.898L166.967 109.838L181.334 118.102L178.032 123.161Z" fill="black"/>
<path fill-rule="evenodd" clip-rule="evenodd" d="M163.25 117.465V116.805L177.75 124.976V142L177.617 140.177C177.456 139.226 177.134 138.121 176.662 137.097C176.058 135.787 175.248 134.687 174.307 134.162C174.156 134.078 174.064 133.918 174.063 133.746C174.063 131.614 172.474 129.651 170.34 128.223C170.203 128.131 170.124 127.975 170.129 127.811C170.19 125.955 168.998 124.064 167.556 122.939C167.441 122.849 167.373 122.711 167.373 122.564C167.373 120.889 165.257 119.076 163.25 117.465ZM176.57 130.379C176.868 130.602 177.076 130.84 177.232 131.115C177.461 131.517 177.639 132.062 177.75 132.8V137.208C177.69 137.064 177.592 136.841 177.526 136.699C176.957 135.465 176.161 134.28 175.141 133.564L176.57 130.379ZM173.903 126.827C174.712 127.324 175.586 128.163 175.867 129.623L174.757 132.097C174.241 130.453 173.002 129.027 171.544 127.916L173.903 126.827ZM177.75 130.201C177.535 129.948 177.241 129.676 176.934 129.473L177.75 127.113V130.201ZM176.376 128.149C175.991 127.357 175.445 126.779 174.894 126.357L177.379 125.172L176.376 128.149ZM172.195 123.855C172.716 124.303 173.021 124.687 173.2 125.049C173.346 125.344 173.418 125.646 173.443 125.991L171.049 127.097C170.897 125.694 170.211 124.367 169.316 123.319L172.195 123.855ZM176.574 124.502L174.35 125.564C174.298 125.249 174.206 124.938 174.053 124.627C173.961 124.442 173.849 124.262 173.718 124.083L176.574 124.502ZM174.828 123.329L172.951 123.01C172.954 122.739 172.738 122.467 172.527 122.202C172.396 122.038 172.351 122.05 172.279 121.893L174.828 123.329ZM170.795 121.057C170.795 121.057 171.527 121.597 171.757 122.083C171.897 122.38 171.97 122.638 171.993 122.85L168.306 122.165C168.205 120.956 166.105 118.582 164.897 117.723L170.795 121.057Z" fill="black"/>
<path d="M7.4043 107.865C7.9564 107.865 8.4043 108.313 8.4043 108.865C8.40414 109.417 7.9563 109.865 7.4043 109.865H5C4.44781 109.865 4.00016 109.417 4 108.865C4 108.313 4.44772 107.865 5 107.865H7.4043ZM6.24609 102.706C6.65263 102.332 7.28535 102.359 7.65918 102.766L9.42773 104.688C9.80152 105.095 9.77468 105.728 9.36816 106.102C8.96162 106.475 8.32886 106.448 7.95508 106.042L6.1875 104.119C5.81367 103.713 5.83957 103.08 6.24609 102.706ZM12.1729 104.404V102C12.1729 101.448 12.6207 101 13.1729 101C13.7251 101 14.1729 101.448 14.1729 102V104.404C14.1726 104.956 13.725 105.404 13.1729 105.404C12.6208 105.404 12.1731 104.956 12.1729 104.404Z" fill="black"/>
<path d="M36.5625 106.565C36.6109 106.57 36.658 106.58 36.7041 106.592L36.7207 106.596C36.7299 106.598 36.7391 106.6 36.748 106.603C36.8248 106.626 36.8971 106.659 36.9648 106.698L36.9775 106.705C36.9878 106.711 36.9979 106.717 37.0078 106.724C37.0135 106.727 37.019 106.731 37.0244 106.735L37.0352 106.743C37.0527 106.755 37.0702 106.768 37.0869 106.781C37.0912 106.785 37.0954 106.788 37.0996 106.792L37.1074 106.799C37.1234 106.812 37.1391 106.826 37.1543 106.841C37.1619 106.848 37.1695 106.856 37.1768 106.863L37.1836 106.871L37.2012 106.889L42.6055 112.853C42.772 113.036 42.8642 113.275 42.8643 113.523V146C42.8642 146.552 42.4165 147 41.8643 147H10.5586C10.0064 147 9.55863 146.552 9.55859 146V110.661C9.5587 108.397 11.3946 106.561 13.6592 106.561H36.4609L36.5625 106.565ZM16.5771 139.462C16.0249 139.462 15.5771 139.91 15.5771 140.462C15.5774 141.014 16.025 141.462 16.5771 141.462H35.7314C36.2835 141.462 36.7312 141.014 36.7314 140.462C36.7314 139.91 36.2836 139.462 35.7314 139.462H16.5771ZM16.5771 134.173C16.0249 134.173 15.5772 134.621 15.5771 135.173C15.5771 135.725 16.0249 136.173 16.5771 136.173H29.9619C30.5141 136.173 30.9619 135.725 30.9619 135.173C30.9618 134.621 30.514 134.173 29.9619 134.173H16.5771ZM33.2959 123.604C33.0999 123.088 32.5222 122.828 32.0059 123.024C29.308 124.048 27.3951 124.495 25.6777 124.484C23.9768 124.474 22.3739 124.013 20.2959 123.052C19.7947 122.82 19.2007 123.038 18.9688 123.539C18.7369 124.04 18.9549 124.634 19.4561 124.866C21.6705 125.891 23.5683 126.471 25.665 126.484C27.7451 126.497 29.9282 125.952 32.7158 124.894C33.232 124.698 33.4916 124.121 33.2959 123.604ZM18.709 117.751C17.9126 117.751 17.2676 118.397 17.2676 119.193C17.2676 119.99 17.9126 120.635 18.709 120.636C19.5055 120.636 20.1514 119.99 20.1514 119.193C20.1514 118.397 19.5055 117.751 18.709 117.751ZM33.6172 117.751C32.8206 117.751 32.1748 118.397 32.1748 119.193C32.1748 119.99 32.8206 120.636 33.6172 120.636C34.4136 120.636 35.0596 119.99 35.0596 119.193C35.0596 118.397 34.4136 117.751 33.6172 117.751ZM35.4609 111.213L35.4648 111.364C35.5437 112.916 36.8268 114.151 38.3984 114.151H40.8643V113.523L36.4609 108.561H35.4609V111.213Z" fill="black"/>
<path opacity="0.28" d="M29.9617 134.173C30.514 134.173 30.9617 134.621 30.9617 135.173C30.9617 135.725 30.514 136.173 29.9617 136.173H16.5769C16.0246 136.173 15.5769 135.725 15.5769 135.173C15.5769 134.621 16.0246 134.173 16.5769 134.173H29.9617Z" fill="black"/>
<path opacity="0.28" d="M35.7312 139.461C36.2835 139.461 36.7312 139.909 36.7312 140.461C36.7312 141.014 36.2835 141.461 35.7312 141.461H16.5769C16.0246 141.461 15.5769 141.014 15.5769 140.461C15.5769 139.909 16.0246 139.461 16.5769 139.461H35.7312Z" fill="black"/>
</svg>
