<svg xmlns="http://www.w3.org/2000/svg" xmlns:xlink="http://www.w3.org/1999/xlink" viewBox="0 0 900.84 584.93"><defs><style>.cls-1,.cls-16,.cls-17,.cls-19,.cls-2,.cls-3,.cls-5,.cls-6{fill:none;stroke-miterlimit:10;}.cls-1,.cls-2,.cls-3{stroke:#eaeaea;}.cls-2{stroke-width:1.03px;}.cls-3{stroke-width:1.02px;}.cls-4{fill:url(#linear-gradient);}.cls-5{stroke:#875a7b;stroke-width:3.54px;}.cls-6{stroke:#827882;stroke-width:2px;}.cls-21,.cls-7{fill:#827882;}.cls-10,.cls-8,.cls-9{fill:#282828;}.cls-10,.cls-15,.cls-21,.cls-9{font-size:20px;}.cls-20,.cls-21,.cls-9{font-family:GothamMedium, Gotham Medium;}.cls-10{font-family:Gotham-Book, Gotham Book;}.cls-11{letter-spacing:-0.01em;}.cls-12{letter-spacing:0em;}.cls-13{letter-spacing:-0.01em;}.cls-14{fill:#00a09d;}.cls-15,.cls-18{fill:#b79cb0;}.cls-15{font-family:GothamBold, Gotham Bold;}.cls-16,.cls-19{stroke:#00a09d;}.cls-16,.cls-17{stroke-width:4px;}.cls-17{stroke:#b79cb0;}.cls-19{stroke-width:2.26px;}.cls-20{font-size:18px;fill:#fff;}</style><linearGradient id="linear-gradient" x1="344.19" y1="510.33" x2="344.19" y2="98.95" gradientUnits="userSpaceOnUse"><stop offset="0" stop-color="#fff" stop-opacity="0"/><stop offset="0.48" stop-color="#875a7b" stop-opacity="0.27"/></linearGradient></defs><g id="Layer_3" data-name="Layer 3"><polyline class="cls-1" points="725.53 60.15 725.53 537.44 29.58 537.44 29.58 60.15"/><line class="cls-2" x1="29.58" y1="474.17" x2="766.26" y2="474.17"/><line class="cls-2" x1="29.58" y1="410.9" x2="766.26" y2="410.9"/><line class="cls-2" x1="29.58" y1="347.63" x2="766.26" y2="347.63"/><line class="cls-2" x1="29.58" y1="284.36" x2="766.26" y2="284.36"/><line class="cls-2" x1="29.58" y1="221.1" x2="766.26" y2="221.1"/><line class="cls-2" x1="29.58" y1="157.83" x2="766.26" y2="157.83"/><line class="cls-2" x1="29.58" y1="94.56" x2="766.26" y2="94.56"/><line class="cls-3" x1="662.26" y1="60.15" x2="662.26" y2="537.44"/><line class="cls-3" x1="598.99" y1="60.15" x2="598.99" y2="537.44"/><line class="cls-3" x1="535.72" y1="60.15" x2="535.72" y2="537.44"/><line class="cls-3" x1="472.45" y1="60.15" x2="472.45" y2="537.44"/><line class="cls-3" x1="409.19" y1="60.15" x2="409.19" y2="537.44"/><line class="cls-3" x1="345.92" y1="60.15" x2="345.92" y2="537.44"/><line class="cls-3" x1="282.65" y1="60.15" x2="282.65" y2="537.44"/><line class="cls-3" x1="219.38" y1="60.15" x2="219.38" y2="537.44"/><line class="cls-3" x1="156.11" y1="60.15" x2="156.11" y2="537.44"/><line class="cls-3" x1="92.85" y1="60.15" x2="92.85" y2="537.44"/><polyline class="cls-4" points="29.88 298 69.47 347.63 94.04 347.63 119.44 397.27 156.11 397.27 156.11 91.28 175.38 91.28 222.92 165.56 260.08 166.16 288.42 204.93 334.09 208.19 358.04 240.45 387.79 259.84 411.45 262.09 436.6 318.28 475.13 326.27 504.04 359.81 550 376.84 572.86 417.57 634.24 438.17 645.3 472.67 658.81 472.67 658.81 537.44 29.58 537.44 29.88 338.89"/><polyline class="cls-5" points="29.6 298.66 69.47 347.63 94.04 347.63 119.44 400.98 156.11 400.98 156.11 94.56 175.38 94.56 222.92 165.56 260.08 166.16 288.42 204.93 334.09 208.19 358.04 240.45 387.79 259.84 411.45 262.09 436.6 318.28 475.13 326.27 504.04 359.81 550 376.84 572.86 417.57 634.24 438.17 645.3 472.67 658.81 472.67"/><polyline class="cls-6" points="29.58 67.33 29.58 537.44 759.08 537.44"/><polygon class="cls-7" points="24.59 68.78 29.58 60.15 34.56 68.78 24.59 68.78"/><polygon class="cls-7" points="757.62 542.42 766.26 537.44 757.62 532.45 757.62 542.42"/><path class="cls-8" d="M36.24,94.11a1.67,1.67,0,1,1-1.66-1.67A1.66,1.66,0,0,1,36.24,94.11Z"/><ellipse class="cls-8" cx="41.24" cy="94.11" rx="1.67" ry="1.67"/><path class="cls-8" d="M49.58,94.11a1.67,1.67,0,1,1-1.67-1.67A1.67,1.67,0,0,1,49.58,94.11Z"/><path class="cls-8" d="M56.25,94.11a1.67,1.67,0,1,1-1.67-1.67A1.67,1.67,0,0,1,56.25,94.11Z"/><path class="cls-8" d="M62.91,94.11a1.67,1.67,0,1,1-1.66-1.67A1.66,1.66,0,0,1,62.91,94.11Z"/><path class="cls-8" d="M69.58,94.11a1.67,1.67,0,1,1-1.67-1.67A1.67,1.67,0,0,1,69.58,94.11Z"/><path class="cls-8" d="M76.25,94.11a1.67,1.67,0,1,1-1.67-1.67A1.67,1.67,0,0,1,76.25,94.11Z"/><path class="cls-8" d="M82.91,94.11a1.67,1.67,0,1,1-1.66-1.67A1.66,1.66,0,0,1,82.91,94.11Z"/><path class="cls-8" d="M89.58,94.11a1.67,1.67,0,1,1-1.67-1.67A1.67,1.67,0,0,1,89.58,94.11Z"/><path class="cls-8" d="M96.25,94.11a1.67,1.67,0,1,1-1.67-1.67A1.67,1.67,0,0,1,96.25,94.11Z"/><path class="cls-8" d="M102.91,94.11a1.67,1.67,0,1,1-1.66-1.67A1.66,1.66,0,0,1,102.91,94.11Z"/><path class="cls-8" d="M109.58,94.11a1.67,1.67,0,1,1-1.67-1.67A1.67,1.67,0,0,1,109.58,94.11Z"/><path class="cls-8" d="M116.25,94.11a1.67,1.67,0,1,1-1.67-1.67A1.67,1.67,0,0,1,116.25,94.11Z"/><path class="cls-8" d="M122.91,94.11a1.67,1.67,0,1,1-1.66-1.67A1.66,1.66,0,0,1,122.91,94.11Z"/><path class="cls-8" d="M129.58,94.11a1.67,1.67,0,1,1-1.67-1.67A1.67,1.67,0,0,1,129.58,94.11Z"/><ellipse class="cls-8" cx="134.58" cy="94.11" rx="1.67" ry="1.67"/><path class="cls-8" d="M142.91,94.11a1.67,1.67,0,1,1-1.66-1.67A1.66,1.66,0,0,1,142.91,94.11Z"/><path class="cls-8" d="M149.58,94.11a1.67,1.67,0,1,1-1.67-1.67A1.67,1.67,0,0,1,149.58,94.11Z"/><path class="cls-8" d="M156.25,94.11a1.67,1.67,0,1,1-1.67-1.67A1.67,1.67,0,0,1,156.25,94.11Z"/><path class="cls-8" d="M162.91,94.11a1.67,1.67,0,1,1-1.66-1.67A1.66,1.66,0,0,1,162.91,94.11Z"/><path class="cls-8" d="M169.58,94.11a1.67,1.67,0,1,1-1.67-1.67A1.67,1.67,0,0,1,169.58,94.11Z"/><ellipse class="cls-8" cx="174.58" cy="94.11" rx="1.67" ry="1.67"/><ellipse class="cls-8" cx="181.25" cy="94.11" rx="1.67" ry="1.67"/><ellipse class="cls-8" cx="187.91" cy="94.11" rx="1.67" ry="1.67"/><ellipse class="cls-8" cx="194.58" cy="94.11" rx="1.67" ry="1.67"/><ellipse class="cls-8" cx="201.25" cy="94.11" rx="1.67" ry="1.67"/><ellipse class="cls-8" cx="207.91" cy="94.11" rx="1.67" ry="1.67"/><ellipse class="cls-8" cx="214.58" cy="94.11" rx="1.67" ry="1.67"/><path class="cls-8" d="M222.91,94.11a1.67,1.67,0,1,1-1.66-1.67A1.66,1.66,0,0,1,222.91,94.11Z"/><path class="cls-8" d="M229.58,94.11a1.67,1.67,0,1,1-1.67-1.67A1.67,1.67,0,0,1,229.58,94.11Z"/><path class="cls-8" d="M236.25,94.11a1.67,1.67,0,1,1-1.67-1.67A1.67,1.67,0,0,1,236.25,94.11Z"/><path class="cls-8" d="M242.91,94.11a1.67,1.67,0,1,1-1.66-1.67A1.66,1.66,0,0,1,242.91,94.11Z"/><ellipse class="cls-8" cx="247.91" cy="94.11" rx="1.67" ry="1.67"/><ellipse class="cls-8" cx="254.58" cy="94.11" rx="1.67" ry="1.67"/><ellipse class="cls-8" cx="261.25" cy="94.11" rx="1.67" ry="1.67"/><ellipse class="cls-8" cx="267.92" cy="94.11" rx="1.67" ry="1.67"/><ellipse class="cls-8" cx="274.58" cy="94.11" rx="1.67" ry="1.67"/><path class="cls-8" d="M282.92,94.11a1.67,1.67,0,1,1-1.67-1.67A1.67,1.67,0,0,1,282.92,94.11Z"/><path class="cls-8" d="M289.58,94.11a1.67,1.67,0,1,1-1.66-1.67A1.66,1.66,0,0,1,289.58,94.11Z"/><path class="cls-8" d="M296.25,94.11a1.67,1.67,0,1,1-1.67-1.67A1.67,1.67,0,0,1,296.25,94.11Z"/><path class="cls-8" d="M302.92,94.11a1.67,1.67,0,1,1-1.67-1.67A1.67,1.67,0,0,1,302.92,94.11Z"/><ellipse class="cls-8" cx="307.92" cy="94.11" rx="1.67" ry="1.67"/><ellipse class="cls-8" cx="314.58" cy="94.11" rx="1.67" ry="1.67"/><ellipse class="cls-8" cx="321.25" cy="94.11" rx="1.67" ry="1.67"/><ellipse class="cls-8" cx="327.92" cy="94.11" rx="1.67" ry="1.67"/><ellipse class="cls-8" cx="334.58" cy="94.11" rx="1.67" ry="1.67"/><ellipse class="cls-8" cx="341.25" cy="94.11" rx="1.67" ry="1.67"/><path class="cls-8" d="M349.58,94.11a1.67,1.67,0,1,1-1.66-1.67A1.66,1.66,0,0,1,349.58,94.11Z"/><path class="cls-8" d="M356.25,94.11a1.67,1.67,0,1,1-1.67-1.67A1.67,1.67,0,0,1,356.25,94.11Z"/><path class="cls-8" d="M362.92,94.11a1.67,1.67,0,1,1-1.67-1.67A1.67,1.67,0,0,1,362.92,94.11Z"/><path class="cls-8" d="M369.58,94.11a1.67,1.67,0,1,1-1.66-1.67A1.66,1.66,0,0,1,369.58,94.11Z"/><ellipse class="cls-8" cx="374.58" cy="94.11" rx="1.67" ry="1.67"/><ellipse class="cls-8" cx="381.25" cy="94.11" rx="1.67" ry="1.67"/><ellipse class="cls-8" cx="387.92" cy="94.11" rx="1.67" ry="1.67"/><ellipse class="cls-8" cx="394.58" cy="94.11" rx="1.67" ry="1.67"/><ellipse class="cls-8" cx="401.25" cy="94.11" rx="1.67" ry="1.67"/><path class="cls-8" d="M409.58,94.11a1.67,1.67,0,1,1-1.66-1.67A1.66,1.66,0,0,1,409.58,94.11Z"/><path class="cls-8" d="M416.25,94.11a1.67,1.67,0,1,1-1.67-1.67A1.67,1.67,0,0,1,416.25,94.11Z"/><path class="cls-8" d="M422.92,94.11a1.67,1.67,0,1,1-1.67-1.67A1.67,1.67,0,0,1,422.92,94.11Z"/><path class="cls-8" d="M429.58,94.11a1.67,1.67,0,1,1-1.66-1.67A1.66,1.66,0,0,1,429.58,94.11Z"/><ellipse class="cls-8" cx="434.58" cy="94.11" rx="1.67" ry="1.67"/><ellipse class="cls-8" cx="441.25" cy="94.11" rx="1.67" ry="1.67"/><ellipse class="cls-8" cx="447.92" cy="94.11" rx="1.67" ry="1.67"/><ellipse class="cls-8" cx="454.58" cy="94.11" rx="1.67" ry="1.67"/><ellipse class="cls-8" cx="461.25" cy="94.11" rx="1.67" ry="1.67"/><path class="cls-8" d="M469.59,94.11a1.67,1.67,0,1,1-1.67-1.67A1.67,1.67,0,0,1,469.59,94.11Z"/><path class="cls-8" d="M476.25,94.11a1.67,1.67,0,1,1-1.66-1.67A1.66,1.66,0,0,1,476.25,94.11Z"/><path class="cls-8" d="M482.92,94.11a1.67,1.67,0,1,1-1.67-1.67A1.67,1.67,0,0,1,482.92,94.11Z"/><path class="cls-8" d="M489.59,94.11a1.67,1.67,0,1,1-1.67-1.67A1.67,1.67,0,0,1,489.59,94.11Z"/><path class="cls-8" d="M496.25,94.11a1.67,1.67,0,1,1-1.66-1.67A1.66,1.66,0,0,1,496.25,94.11Z"/><ellipse class="cls-8" cx="501.25" cy="94.11" rx="1.67" ry="1.67"/><ellipse class="cls-8" cx="507.92" cy="94.11" rx="1.67" ry="1.67"/><ellipse class="cls-8" cx="514.59" cy="94.11" rx="1.67" ry="1.67"/><ellipse class="cls-8" cx="521.25" cy="94.11" rx="1.67" ry="1.67"/><ellipse class="cls-8" cx="527.92" cy="94.11" rx="1.67" ry="1.67"/><path class="cls-8" d="M536.25,94.11a1.67,1.67,0,1,1-1.66-1.67A1.66,1.66,0,0,1,536.25,94.11Z"/><path class="cls-8" d="M542.92,94.11a1.67,1.67,0,1,1-1.67-1.67A1.67,1.67,0,0,1,542.92,94.11Z"/><path class="cls-8" d="M549.59,94.11a1.67,1.67,0,1,1-1.67-1.67A1.67,1.67,0,0,1,549.59,94.11Z"/><path class="cls-8" d="M556.25,94.11a1.67,1.67,0,1,1-1.66-1.67A1.66,1.66,0,0,1,556.25,94.11Z"/><ellipse class="cls-8" cx="561.25" cy="94.11" rx="1.67" ry="1.67"/><ellipse class="cls-8" cx="567.92" cy="94.11" rx="1.67" ry="1.67"/><ellipse class="cls-8" cx="574.59" cy="94.11" rx="1.67" ry="1.67"/><ellipse class="cls-8" cx="581.25" cy="94.11" rx="1.67" ry="1.67"/><ellipse class="cls-8" cx="587.92" cy="94.11" rx="1.67" ry="1.67"/><path class="cls-8" d="M596.25,94.11a1.67,1.67,0,1,1-1.66-1.67A1.66,1.66,0,0,1,596.25,94.11Z"/><path class="cls-8" d="M602.92,94.11a1.67,1.67,0,1,1-1.67-1.67A1.67,1.67,0,0,1,602.92,94.11Z"/><path class="cls-8" d="M609.59,94.11a1.67,1.67,0,1,1-1.67-1.67A1.67,1.67,0,0,1,609.59,94.11Z"/><path class="cls-8" d="M616.25,94.11a1.67,1.67,0,1,1-1.66-1.67A1.66,1.66,0,0,1,616.25,94.11Z"/><path class="cls-8" d="M622.92,94.11a1.67,1.67,0,1,1-1.67-1.67A1.67,1.67,0,0,1,622.92,94.11Z"/><ellipse class="cls-8" cx="627.92" cy="94.11" rx="1.67" ry="1.67"/><ellipse class="cls-8" cx="634.59" cy="94.11" rx="1.67" ry="1.67"/><ellipse class="cls-8" cx="641.25" cy="94.11" rx="1.67" ry="1.67"/><ellipse class="cls-8" cx="647.92" cy="94.11" rx="1.67" ry="1.67"/><ellipse class="cls-8" cx="654.59" cy="94.11" rx="1.67" ry="1.67"/><path class="cls-8" d="M662.92,94.11a1.67,1.67,0,1,1-1.67-1.67A1.67,1.67,0,0,1,662.92,94.11Z"/><path class="cls-8" d="M669.59,94.11a1.67,1.67,0,1,1-1.67-1.67A1.67,1.67,0,0,1,669.59,94.11Z"/><path class="cls-8" d="M676.25,94.11a1.67,1.67,0,1,1-1.66-1.67A1.66,1.66,0,0,1,676.25,94.11Z"/><path class="cls-8" d="M682.92,94.11a1.67,1.67,0,1,1-1.66-1.67A1.66,1.66,0,0,1,682.92,94.11Z"/><ellipse class="cls-8" cx="687.92" cy="94.11" rx="1.67" ry="1.67"/><ellipse class="cls-8" cx="694.59" cy="94.11" rx="1.67" ry="1.67"/><ellipse class="cls-8" cx="701.26" cy="94.11" rx="1.67" ry="1.67"/><ellipse class="cls-8" cx="707.92" cy="94.11" rx="1.67" ry="1.67"/><ellipse class="cls-8" cx="714.59" cy="94.11" rx="1.67" ry="1.67"/><path class="cls-8" d="M722.92,94.11a1.67,1.67,0,1,1-1.66-1.67A1.66,1.66,0,0,1,722.92,94.11Z"/><path class="cls-8" d="M729.59,94.11a1.67,1.67,0,1,1-1.67-1.67A1.67,1.67,0,0,1,729.59,94.11Z"/><path class="cls-8" d="M736.26,94.11a1.67,1.67,0,1,1-1.67-1.67A1.67,1.67,0,0,1,736.26,94.11Z"/><path class="cls-8" d="M742.92,94.11a1.67,1.67,0,1,1-1.66-1.67A1.66,1.66,0,0,1,742.92,94.11Z"/><path class="cls-8" d="M749.59,94.11a1.67,1.67,0,1,1-1.67-1.67A1.67,1.67,0,0,1,749.59,94.11Z"/><ellipse class="cls-8" cx="754.59" cy="94.11" rx="1.67" ry="1.67"/><ellipse class="cls-8" cx="761.26" cy="94.11" rx="1.67" ry="1.67"/><path class="cls-8" d="M36.24,410.9a1.67,1.67,0,1,1-1.66-1.67A1.66,1.66,0,0,1,36.24,410.9Z"/><path class="cls-8" d="M42.91,410.9a1.67,1.67,0,1,1-1.67-1.67A1.67,1.67,0,0,1,42.91,410.9Z"/><path class="cls-8" d="M49.58,410.9a1.67,1.67,0,1,1-1.67-1.67A1.67,1.67,0,0,1,49.58,410.9Z"/><path class="cls-8" d="M56.25,410.9a1.67,1.67,0,1,1-1.67-1.67A1.67,1.67,0,0,1,56.25,410.9Z"/><path class="cls-8" d="M62.91,410.9a1.67,1.67,0,1,1-1.66-1.67A1.66,1.66,0,0,1,62.91,410.9Z"/><path class="cls-8" d="M69.58,410.9a1.67,1.67,0,1,1-1.67-1.67A1.67,1.67,0,0,1,69.58,410.9Z"/><path class="cls-8" d="M76.25,410.9a1.67,1.67,0,1,1-1.67-1.67A1.67,1.67,0,0,1,76.25,410.9Z"/><path class="cls-8" d="M82.91,410.9a1.67,1.67,0,1,1-1.66-1.67A1.66,1.66,0,0,1,82.91,410.9Z"/><path class="cls-8" d="M89.58,410.9a1.67,1.67,0,1,1-1.67-1.67A1.67,1.67,0,0,1,89.58,410.9Z"/><path class="cls-8" d="M96.25,410.9a1.67,1.67,0,1,1-1.67-1.67A1.67,1.67,0,0,1,96.25,410.9Z"/><path class="cls-8" d="M102.91,410.9a1.67,1.67,0,1,1-1.66-1.67A1.66,1.66,0,0,1,102.91,410.9Z"/><path class="cls-8" d="M109.58,410.9a1.67,1.67,0,1,1-1.67-1.67A1.67,1.67,0,0,1,109.58,410.9Z"/><path class="cls-8" d="M116.25,410.9a1.67,1.67,0,1,1-1.67-1.67A1.67,1.67,0,0,1,116.25,410.9Z"/><path class="cls-8" d="M122.91,410.9a1.67,1.67,0,1,1-1.66-1.67A1.66,1.66,0,0,1,122.91,410.9Z"/><path class="cls-8" d="M129.58,410.9a1.67,1.67,0,1,1-1.67-1.67A1.67,1.67,0,0,1,129.58,410.9Z"/><path class="cls-8" d="M136.25,410.9a1.67,1.67,0,1,1-1.67-1.67A1.67,1.67,0,0,1,136.25,410.9Z"/><path class="cls-8" d="M142.91,410.9a1.67,1.67,0,1,1-1.66-1.67A1.66,1.66,0,0,1,142.91,410.9Z"/><path class="cls-8" d="M149.58,410.9a1.67,1.67,0,1,1-1.67-1.67A1.67,1.67,0,0,1,149.58,410.9Z"/><path class="cls-8" d="M156.25,410.9a1.67,1.67,0,1,1-1.67-1.67A1.67,1.67,0,0,1,156.25,410.9Z"/><path class="cls-8" d="M162.91,410.9a1.67,1.67,0,1,1-1.66-1.67A1.66,1.66,0,0,1,162.91,410.9Z"/><path class="cls-8" d="M169.58,410.9a1.67,1.67,0,1,1-1.67-1.67A1.67,1.67,0,0,1,169.58,410.9Z"/><path class="cls-8" d="M176.25,410.9a1.67,1.67,0,1,1-1.67-1.67A1.67,1.67,0,0,1,176.25,410.9Z"/><path class="cls-8" d="M182.91,410.9a1.67,1.67,0,1,1-1.66-1.67A1.66,1.66,0,0,1,182.91,410.9Z"/><path class="cls-8" d="M189.58,410.9a1.67,1.67,0,1,1-1.67-1.67A1.67,1.67,0,0,1,189.58,410.9Z"/><path class="cls-8" d="M196.25,410.9a1.67,1.67,0,1,1-1.67-1.67A1.67,1.67,0,0,1,196.25,410.9Z"/><path class="cls-8" d="M202.91,410.9a1.67,1.67,0,1,1-1.66-1.67A1.66,1.66,0,0,1,202.91,410.9Z"/><path class="cls-8" d="M209.58,410.9a1.67,1.67,0,1,1-1.67-1.67A1.67,1.67,0,0,1,209.58,410.9Z"/><path class="cls-8" d="M216.25,410.9a1.67,1.67,0,1,1-1.67-1.67A1.67,1.67,0,0,1,216.25,410.9Z"/><path class="cls-8" d="M222.91,410.9a1.67,1.67,0,1,1-1.66-1.67A1.66,1.66,0,0,1,222.91,410.9Z"/><path class="cls-8" d="M229.58,410.9a1.67,1.67,0,1,1-1.67-1.67A1.67,1.67,0,0,1,229.58,410.9Z"/><path class="cls-8" d="M236.25,410.9a1.67,1.67,0,1,1-1.67-1.67A1.67,1.67,0,0,1,236.25,410.9Z"/><path class="cls-8" d="M242.91,410.9a1.67,1.67,0,1,1-1.66-1.67A1.66,1.66,0,0,1,242.91,410.9Z"/><path class="cls-8" d="M249.58,410.9a1.67,1.67,0,1,1-1.67-1.67A1.67,1.67,0,0,1,249.58,410.9Z"/><path class="cls-8" d="M256.25,410.9a1.67,1.67,0,1,1-1.67-1.67A1.67,1.67,0,0,1,256.25,410.9Z"/><path class="cls-8" d="M262.92,410.9a1.67,1.67,0,1,1-1.67-1.67A1.67,1.67,0,0,1,262.92,410.9Z"/><path class="cls-8" d="M269.58,410.9a1.67,1.67,0,1,1-1.66-1.67A1.66,1.66,0,0,1,269.58,410.9Z"/><path class="cls-8" d="M276.25,410.9a1.67,1.67,0,1,1-1.67-1.67A1.67,1.67,0,0,1,276.25,410.9Z"/><path class="cls-8" d="M282.92,410.9a1.67,1.67,0,1,1-1.67-1.67A1.67,1.67,0,0,1,282.92,410.9Z"/><path class="cls-8" d="M289.58,410.9a1.67,1.67,0,1,1-1.66-1.67A1.66,1.66,0,0,1,289.58,410.9Z"/><path class="cls-8" d="M296.25,410.9a1.67,1.67,0,1,1-1.67-1.67A1.67,1.67,0,0,1,296.25,410.9Z"/><path class="cls-8" d="M302.92,410.9a1.67,1.67,0,1,1-1.67-1.67A1.67,1.67,0,0,1,302.92,410.9Z"/><path class="cls-8" d="M309.58,410.9a1.67,1.67,0,1,1-1.66-1.67A1.66,1.66,0,0,1,309.58,410.9Z"/><path class="cls-8" d="M316.25,410.9a1.67,1.67,0,1,1-1.67-1.67A1.67,1.67,0,0,1,316.25,410.9Z"/><path class="cls-8" d="M322.92,410.9a1.67,1.67,0,1,1-1.67-1.67A1.67,1.67,0,0,1,322.92,410.9Z"/><path class="cls-8" d="M329.58,410.9a1.67,1.67,0,1,1-1.66-1.67A1.66,1.66,0,0,1,329.58,410.9Z"/><path class="cls-8" d="M336.25,410.9a1.67,1.67,0,1,1-1.67-1.67A1.67,1.67,0,0,1,336.25,410.9Z"/><path class="cls-8" d="M342.92,410.9a1.67,1.67,0,1,1-1.67-1.67A1.67,1.67,0,0,1,342.92,410.9Z"/><path class="cls-8" d="M349.58,410.9a1.67,1.67,0,1,1-1.66-1.67A1.66,1.66,0,0,1,349.58,410.9Z"/><path class="cls-8" d="M356.25,410.9a1.67,1.67,0,1,1-1.67-1.67A1.67,1.67,0,0,1,356.25,410.9Z"/><path class="cls-8" d="M362.92,410.9a1.67,1.67,0,1,1-1.67-1.67A1.67,1.67,0,0,1,362.92,410.9Z"/><path class="cls-8" d="M369.58,410.9a1.67,1.67,0,1,1-1.66-1.67A1.66,1.66,0,0,1,369.58,410.9Z"/><path class="cls-8" d="M376.25,410.9a1.67,1.67,0,1,1-1.67-1.67A1.67,1.67,0,0,1,376.25,410.9Z"/><path class="cls-8" d="M382.92,410.9a1.67,1.67,0,1,1-1.67-1.67A1.67,1.67,0,0,1,382.92,410.9Z"/><path class="cls-8" d="M389.58,410.9a1.67,1.67,0,1,1-1.66-1.67A1.66,1.66,0,0,1,389.58,410.9Z"/><path class="cls-8" d="M396.25,410.9a1.67,1.67,0,1,1-1.67-1.67A1.67,1.67,0,0,1,396.25,410.9Z"/><path class="cls-8" d="M402.92,410.9a1.67,1.67,0,1,1-1.67-1.67A1.67,1.67,0,0,1,402.92,410.9Z"/><path class="cls-8" d="M409.58,410.9a1.67,1.67,0,1,1-1.66-1.67A1.66,1.66,0,0,1,409.58,410.9Z"/><path class="cls-8" d="M416.25,410.9a1.67,1.67,0,1,1-1.67-1.67A1.67,1.67,0,0,1,416.25,410.9Z"/><path class="cls-8" d="M422.92,410.9a1.67,1.67,0,1,1-1.67-1.67A1.67,1.67,0,0,1,422.92,410.9Z"/><path class="cls-8" d="M429.58,410.9a1.67,1.67,0,1,1-1.66-1.67A1.66,1.66,0,0,1,429.58,410.9Z"/><path class="cls-8" d="M436.25,410.9a1.67,1.67,0,1,1-1.67-1.67A1.67,1.67,0,0,1,436.25,410.9Z"/><path class="cls-8" d="M442.92,410.9a1.67,1.67,0,1,1-1.67-1.67A1.67,1.67,0,0,1,442.92,410.9Z"/><path class="cls-8" d="M449.58,410.9a1.67,1.67,0,1,1-1.66-1.67A1.66,1.66,0,0,1,449.58,410.9Z"/><path class="cls-8" d="M456.25,410.9a1.67,1.67,0,1,1-1.67-1.67A1.67,1.67,0,0,1,456.25,410.9Z"/><path class="cls-8" d="M462.92,410.9a1.67,1.67,0,1,1-1.67-1.67A1.67,1.67,0,0,1,462.92,410.9Z"/><path class="cls-8" d="M469.59,410.9a1.67,1.67,0,1,1-1.67-1.67A1.67,1.67,0,0,1,469.59,410.9Z"/><path class="cls-8" d="M476.25,410.9a1.67,1.67,0,1,1-1.66-1.67A1.66,1.66,0,0,1,476.25,410.9Z"/><path class="cls-8" d="M482.92,410.9a1.67,1.67,0,1,1-1.67-1.67A1.67,1.67,0,0,1,482.92,410.9Z"/><path class="cls-8" d="M489.59,410.9a1.67,1.67,0,1,1-1.67-1.67A1.67,1.67,0,0,1,489.59,410.9Z"/><path class="cls-8" d="M496.25,410.9a1.67,1.67,0,1,1-1.66-1.67A1.66,1.66,0,0,1,496.25,410.9Z"/><path class="cls-8" d="M502.92,410.9a1.67,1.67,0,1,1-1.67-1.67A1.67,1.67,0,0,1,502.92,410.9Z"/><path class="cls-8" d="M509.59,410.9a1.67,1.67,0,1,1-1.67-1.67A1.67,1.67,0,0,1,509.59,410.9Z"/><path class="cls-8" d="M516.25,410.9a1.67,1.67,0,1,1-1.66-1.67A1.66,1.66,0,0,1,516.25,410.9Z"/><path class="cls-8" d="M522.92,410.9a1.67,1.67,0,1,1-1.67-1.67A1.67,1.67,0,0,1,522.92,410.9Z"/><path class="cls-8" d="M529.59,410.9a1.67,1.67,0,1,1-1.67-1.67A1.67,1.67,0,0,1,529.59,410.9Z"/><path class="cls-8" d="M536.25,410.9a1.67,1.67,0,1,1-1.66-1.67A1.66,1.66,0,0,1,536.25,410.9Z"/><path class="cls-8" d="M542.92,410.9a1.67,1.67,0,1,1-1.67-1.67A1.67,1.67,0,0,1,542.92,410.9Z"/><path class="cls-8" d="M549.59,410.9a1.67,1.67,0,1,1-1.67-1.67A1.67,1.67,0,0,1,549.59,410.9Z"/><path class="cls-8" d="M556.25,410.9a1.67,1.67,0,1,1-1.66-1.67A1.66,1.66,0,0,1,556.25,410.9Z"/><path class="cls-8" d="M562.92,410.9a1.67,1.67,0,1,1-1.67-1.67A1.67,1.67,0,0,1,562.92,410.9Z"/><path class="cls-8" d="M569.59,410.9a1.67,1.67,0,1,1-1.67-1.67A1.67,1.67,0,0,1,569.59,410.9Z"/><path class="cls-8" d="M576.25,410.9a1.67,1.67,0,1,1-1.66-1.67A1.66,1.66,0,0,1,576.25,410.9Z"/><path class="cls-8" d="M582.92,410.9a1.67,1.67,0,1,1-1.67-1.67A1.67,1.67,0,0,1,582.92,410.9Z"/><path class="cls-8" d="M589.59,410.9a1.67,1.67,0,1,1-1.67-1.67A1.67,1.67,0,0,1,589.59,410.9Z"/><path class="cls-8" d="M596.25,410.9a1.67,1.67,0,1,1-1.66-1.67A1.66,1.66,0,0,1,596.25,410.9Z"/><path class="cls-8" d="M602.92,410.9a1.67,1.67,0,1,1-1.67-1.67A1.67,1.67,0,0,1,602.92,410.9Z"/><path class="cls-8" d="M609.59,410.9a1.67,1.67,0,1,1-1.67-1.67A1.67,1.67,0,0,1,609.59,410.9Z"/><path class="cls-8" d="M616.25,410.9a1.67,1.67,0,1,1-1.66-1.67A1.66,1.66,0,0,1,616.25,410.9Z"/><path class="cls-8" d="M622.92,410.9a1.67,1.67,0,1,1-1.67-1.67A1.67,1.67,0,0,1,622.92,410.9Z"/><path class="cls-8" d="M629.59,410.9a1.67,1.67,0,1,1-1.67-1.67A1.67,1.67,0,0,1,629.59,410.9Z"/><path class="cls-8" d="M636.25,410.9a1.67,1.67,0,1,1-1.66-1.67A1.66,1.66,0,0,1,636.25,410.9Z"/><path class="cls-8" d="M642.92,410.9a1.67,1.67,0,1,1-1.67-1.67A1.67,1.67,0,0,1,642.92,410.9Z"/><path class="cls-8" d="M649.59,410.9a1.67,1.67,0,1,1-1.67-1.67A1.67,1.67,0,0,1,649.59,410.9Z"/><path class="cls-8" d="M656.25,410.9a1.67,1.67,0,1,1-1.66-1.67A1.66,1.66,0,0,1,656.25,410.9Z"/><path class="cls-8" d="M662.92,410.9a1.67,1.67,0,1,1-1.67-1.67A1.67,1.67,0,0,1,662.92,410.9Z"/><path class="cls-8" d="M669.59,410.9a1.67,1.67,0,1,1-1.67-1.67A1.67,1.67,0,0,1,669.59,410.9Z"/><path class="cls-8" d="M676.25,410.9a1.67,1.67,0,1,1-1.66-1.67A1.66,1.66,0,0,1,676.25,410.9Z"/><path class="cls-8" d="M682.92,410.9a1.67,1.67,0,1,1-1.66-1.67A1.66,1.66,0,0,1,682.92,410.9Z"/><path class="cls-8" d="M689.59,410.9a1.67,1.67,0,1,1-1.67-1.67A1.67,1.67,0,0,1,689.59,410.9Z"/><path class="cls-8" d="M696.26,410.9a1.67,1.67,0,1,1-1.67-1.67A1.67,1.67,0,0,1,696.26,410.9Z"/><path class="cls-8" d="M702.92,410.9a1.67,1.67,0,1,1-1.66-1.67A1.66,1.66,0,0,1,702.92,410.9Z"/><path class="cls-8" d="M709.59,410.9a1.67,1.67,0,1,1-1.67-1.67A1.67,1.67,0,0,1,709.59,410.9Z"/><path class="cls-8" d="M716.26,410.9a1.67,1.67,0,1,1-1.67-1.67A1.67,1.67,0,0,1,716.26,410.9Z"/><path class="cls-8" d="M722.92,410.9a1.67,1.67,0,1,1-1.66-1.67A1.66,1.66,0,0,1,722.92,410.9Z"/><path class="cls-8" d="M729.59,410.9a1.67,1.67,0,1,1-1.67-1.67A1.67,1.67,0,0,1,729.59,410.9Z"/><path class="cls-8" d="M736.26,410.9a1.67,1.67,0,1,1-1.67-1.67A1.67,1.67,0,0,1,736.26,410.9Z"/><path class="cls-8" d="M742.92,410.9a1.67,1.67,0,1,1-1.66-1.67A1.66,1.66,0,0,1,742.92,410.9Z"/><path class="cls-8" d="M749.59,410.9a1.67,1.67,0,1,1-1.67-1.67A1.67,1.67,0,0,1,749.59,410.9Z"/><path class="cls-8" d="M756.26,410.9a1.67,1.67,0,1,1-1.67-1.67A1.67,1.67,0,0,1,756.26,410.9Z"/><path class="cls-8" d="M762.92,410.9a1.67,1.67,0,1,1-1.66-1.67A1.66,1.66,0,0,1,762.92,410.9Z"/><text class="cls-9" transform="translate(774.07 99.38)">Maximum</text><text class="cls-9" transform="translate(774.07 427.3)">Minimum</text><text class="cls-10" transform="translate(774.07 403.86)">Sa<tspan class="cls-11" x="24.38" y="0">f</tspan><tspan x="31.52" y="0">ety </tspan><tspan class="cls-12" x="69.26" y="0">S</tspan><tspan class="cls-13" x="81.96" y="0">t</tspan><tspan x="89.74" y="0">ock</tspan></text><path class="cls-14" d="M653.39,274.55a7.49,7.49,0,0,1,.88,1.93,8,8,0,0,1-.25,5.21,7.6,7.6,0,0,1-1.54,2.35,7.1,7.1,0,0,1-2.29,1.54,7.24,7.24,0,0,1-2.8.55h0a7.12,7.12,0,0,1-2.81-.56,7.08,7.08,0,0,1-3.86-3.91,7.73,7.73,0,0,1-.57-3,7.61,7.61,0,0,1,.57-3,7.32,7.32,0,0,1,1.54-2.35,6.66,6.66,0,0,1,2.28-1.54,7.11,7.11,0,0,1,2.81-.55h0a6.85,6.85,0,0,1,2.12.32,7.17,7.17,0,0,1,1.89.91l1.23-1.43,2.18,2Zm-1.64,4.12a4.37,4.37,0,0,0-.39-1.84l-1.93,2.28-2.2-2,2.08-2.3a4.51,4.51,0,0,0-1.92-.38h0a4.58,4.58,0,0,0-1.7.31A4.2,4.2,0,0,0,643.3,277a4,4,0,0,0-.36,1.7,4.18,4.18,0,0,0,.35,1.71,3.75,3.75,0,0,0,.94,1.31,4.49,4.49,0,0,0,1.38.87,4.79,4.79,0,0,0,1.7.31h0a4.88,4.88,0,0,0,1.7-.31,4.17,4.17,0,0,0,1.39-.88,4.27,4.27,0,0,0,1-1.34A4.18,4.18,0,0,0,651.75,278.67Z"/><path class="cls-14" d="M654.55,265.27a3.43,3.43,0,0,1-1.07,2.69,4.21,4.21,0,0,1-2.92,1h-6.93v-3h6a2.42,2.42,0,0,0,1.63-.48,1.74,1.74,0,0,0,.55-1.36,1.82,1.82,0,0,0-.55-1.39,2.32,2.32,0,0,0-1.63-.51h-6v-3h10.72v3h-1.54a7,7,0,0,1,.66.56,3.78,3.78,0,0,1,.55.7,3.22,3.22,0,0,1,.38.84A3.3,3.3,0,0,1,654.55,265.27Z"/><path class="cls-14" d="M654.55,253.33a4.8,4.8,0,0,1-.21,1.43,3.87,3.87,0,0,1-.63,1.17,3.22,3.22,0,0,1-1,.79,3.32,3.32,0,0,1-1.41.29h0a3.38,3.38,0,0,1-1.52-.32,3,3,0,0,1-1.06-.89,3.71,3.71,0,0,1-.63-1.36,6.83,6.83,0,0,1-.21-1.75,7.42,7.42,0,0,1,.12-1.43,7.71,7.71,0,0,1,.32-1.19h-.19a1.8,1.8,0,0,0-1.45.58,2.52,2.52,0,0,0-.5,1.72,6.63,6.63,0,0,0,.15,1.55,10.56,10.56,0,0,0,.43,1.41l-2.33.76a11.34,11.34,0,0,1-.61-1.84,9.73,9.73,0,0,1-.24-2.32,6.76,6.76,0,0,1,.3-2.15,3.73,3.73,0,0,1,.9-1.47,3.53,3.53,0,0,1,1.47-.88,6.2,6.2,0,0,1,2-.28h6.22v2.94h-1.16a4.29,4.29,0,0,1,1,1.34A4.5,4.5,0,0,1,654.55,253.33Zm-2.11-.92a2.72,2.72,0,0,0-.51-1.73,1.65,1.65,0,0,0-1.37-.65H650a4.53,4.53,0,0,0-.39,1.94,2.68,2.68,0,0,0,.38,1.54,1.25,1.25,0,0,0,1.1.56h0a1.15,1.15,0,0,0,1-.46A2,2,0,0,0,652.44,252.41Z"/><path class="cls-14" d="M643.63,244.53v-3h1.53q-.35-.27-.66-.57a4.07,4.07,0,0,1-.55-.69,3.54,3.54,0,0,1-.38-.84,3.4,3.4,0,0,1-.14-1,3.44,3.44,0,0,1,1.05-2.69,4.21,4.21,0,0,1,2.92-.95h7v3h-6a2.42,2.42,0,0,0-1.63.48,1.72,1.72,0,0,0-.54,1.36,1.83,1.83,0,0,0,.54,1.39,2.32,2.32,0,0,0,1.63.51h6v3Z"/><path class="cls-14" d="M654.52,228.45a5,5,0,0,1-.14,1.27,2.46,2.46,0,0,1-.53,1,2.78,2.78,0,0,1-1,.64,4.57,4.57,0,0,1-1.55.23h-5.08v1.28h-2.6v-1.28h-2.74v-3h2.74V226h2.6v2.52h4.59c.7,0,1-.33,1-1a3,3,0,0,0-.39-1.5h2.43a4.33,4.33,0,0,1,.62,2.4Z"/><path class="cls-14" d="M639.75,223.71v-3.2h2.69v3.2Zm3.88-.08v-3h10.72v3Z"/><path class="cls-14" d="M654.52,214.11a5,5,0,0,1-.14,1.27,2.46,2.46,0,0,1-.53,1,2.78,2.78,0,0,1-1,.64,4.57,4.57,0,0,1-1.55.23h-5.08v1.28h-2.6v-1.28h-2.74v-3h2.74v-2.52h2.6v2.52h4.59c.7,0,1-.33,1-1a3,3,0,0,0-.39-1.5h2.43a4.33,4.33,0,0,1,.62,2.4Z"/><path class="cls-14" d="M657.61,206.87a4.76,4.76,0,0,1-.21,1.48,5.75,5.75,0,0,1-.54,1.22l-2.19-1a3.5,3.5,0,0,0,.3-.65,2,2,0,0,0,.12-.65,1.13,1.13,0,0,0-.15-.63,1.34,1.34,0,0,0-.55-.43l-10.76,4.2v-3.22l7.3-2.44-7.3-2.34v-3.16l11,4.12A8.66,8.66,0,0,1,656,204a3.55,3.55,0,0,1,.93.75,2.36,2.36,0,0,1,.51.93A3.9,3.9,0,0,1,657.61,206.87Z"/><path class="cls-14" d="M654.52,187.81a5,5,0,0,1-.14,1.27,2.46,2.46,0,0,1-.53,1,2.78,2.78,0,0,1-1,.64,4.57,4.57,0,0,1-1.55.23h-5.08v1.28h-2.6v-1.28h-2.74v-3h2.74v-2.52h2.6v2.52h4.59c.7,0,1-.33,1-1a3,3,0,0,0-.39-1.5h2.43a4.33,4.33,0,0,1,.62,2.4Z"/><path class="cls-14" d="M654.59,177.87a6,6,0,0,1-.44,2.3A5.62,5.62,0,0,1,653,182a5.7,5.7,0,0,1-1.76,1.21,5.47,5.47,0,0,1-2.17.44h0a5.39,5.39,0,0,1-2.17-.44,5.64,5.64,0,0,1-1.78-1.22,5.81,5.81,0,0,1-1.63-4.16,6,6,0,0,1,.43-2.3A5.44,5.44,0,0,1,645,173.7a5.44,5.44,0,0,1,3.93-1.65h0a5.3,5.3,0,0,1,2.17.44,5.4,5.4,0,0,1,1.76,1.22,5.83,5.83,0,0,1,1.21,1.84A6,6,0,0,1,654.59,177.87Zm-2.62,0a2.72,2.72,0,0,0-.24-1.17,2.6,2.6,0,0,0-.62-.87,2.73,2.73,0,0,0-.93-.55,3.31,3.31,0,0,0-1.13-.19h0a3,3,0,0,0-1.13.2,2.61,2.61,0,0,0-.94.58,2.54,2.54,0,0,0-.65.9,2.64,2.64,0,0,0-.24,1.14,2.87,2.87,0,0,0,.22,1.17,2.78,2.78,0,0,0,.63.87,2.84,2.84,0,0,0,.94.55,3.43,3.43,0,0,0,1.13.19h0a3.32,3.32,0,0,0,1.13-.2,3.14,3.14,0,0,0,.94-.58,3.19,3.19,0,0,0,.65-.89A2.69,2.69,0,0,0,652,177.83Z"/><path class="cls-14" d="M654.59,158.59a6,6,0,0,1-.44,2.3,5.42,5.42,0,0,1-1.17,1.83,5.53,5.53,0,0,1-1.76,1.21,5.47,5.47,0,0,1-2.17.44h0a5.39,5.39,0,0,1-2.17-.44,5.48,5.48,0,0,1-1.78-1.22,5.81,5.81,0,0,1-1.63-4.16,6,6,0,0,1,.43-2.3,5.44,5.44,0,0,1,1.18-1.83,5.27,5.27,0,0,1,1.76-1.21,5.39,5.39,0,0,1,2.17-.44h0a5.47,5.47,0,0,1,2.17.44,5.4,5.4,0,0,1,1.76,1.22,5.83,5.83,0,0,1,1.21,1.84A6.07,6.07,0,0,1,654.59,158.59Zm-2.62,0a2.72,2.72,0,0,0-.24-1.17,2.6,2.6,0,0,0-.62-.87,2.9,2.9,0,0,0-.93-.55,3.31,3.31,0,0,0-1.13-.19h0a3.24,3.24,0,0,0-1.13.2,2.75,2.75,0,0,0-.94.58,2.54,2.54,0,0,0-.65.9,2.71,2.71,0,0,0-.24,1.14,2.87,2.87,0,0,0,.22,1.17,2.78,2.78,0,0,0,.63.87,2.84,2.84,0,0,0,.94.55,3.19,3.19,0,0,0,1.13.19h0a3.32,3.32,0,0,0,1.13-.2,3.14,3.14,0,0,0,.94-.58,3,3,0,0,0,.65-.89A2.66,2.66,0,0,0,652,158.55Z"/><path class="cls-14" d="M643.63,150.57v-3h2.16a4.59,4.59,0,0,1-1.77-1.26,3.12,3.12,0,0,1-.59-2.16h3.18v.16a3.14,3.14,0,0,0,.91,2.39,4.07,4.07,0,0,0,2.87.87h4v3Z"/><path class="cls-14" d="M654.55,137.81a4.76,4.76,0,0,1-.36,1.82,4.51,4.51,0,0,1-1.08,1.56,5.32,5.32,0,0,1-1.73,1.09,6.47,6.47,0,0,1-2.37.41h0a6.39,6.39,0,0,1-2.37-.41,5.24,5.24,0,0,1-1.74-1.08,4.2,4.2,0,0,1-1.07-1.55,4.83,4.83,0,0,1-.36-1.84,3.93,3.93,0,0,1,.47-2,5.68,5.68,0,0,1,1.12-1.33h-5.27v-3h14.6v3h-1.54a4.88,4.88,0,0,1,1.25,1.35A3.78,3.78,0,0,1,654.55,137.81ZM652,137a2.38,2.38,0,0,0-.82-1.83,3,3,0,0,0-.93-.56,3.42,3.42,0,0,0-1.21-.21h0a3.3,3.3,0,0,0-1.21.21,3.18,3.18,0,0,0-1,.56,2.53,2.53,0,0,0-.59.82,2.53,2.53,0,0,0,0,2,2.68,2.68,0,0,0,.59.83,3.07,3.07,0,0,0,.94.57,3.32,3.32,0,0,0,1.22.21h0a3.42,3.42,0,0,0,1.21-.21,2.8,2.8,0,0,0,.93-.57,2.59,2.59,0,0,0,.61-.83A2.44,2.44,0,0,0,652,137Z"/><path class="cls-14" d="M654.59,123.63a6.26,6.26,0,0,1-.4,2.23,5.23,5.23,0,0,1-1.14,1.78,5.38,5.38,0,0,1-1.75,1.17,5.85,5.85,0,0,1-2.25.42h0a6,6,0,0,1-2.16-.39,5.52,5.52,0,0,1-1.79-1.09,5.32,5.32,0,0,1-1.2-1.67,5.19,5.19,0,0,1-.43-2.15,5.36,5.36,0,0,1,.47-2.32,4.84,4.84,0,0,1,1.29-1.63,5.53,5.53,0,0,1,1.87-1,7.53,7.53,0,0,1,2.19-.31h.38l.42,0v7.46a2.55,2.55,0,0,0,1.56-.91,2.69,2.69,0,0,0,.54-1.71,3.44,3.44,0,0,0-.26-1.36,5,5,0,0,0-.84-1.24l1.54-1.74a5.59,5.59,0,0,1,1.47,1.84A5.76,5.76,0,0,1,654.59,123.63Zm-6.44-2a2.92,2.92,0,0,0-1.65.72,2,2,0,0,0-.64,1.54,2,2,0,0,0,.62,1.55,3.17,3.17,0,0,0,1.67.77Z"/><path class="cls-14" d="M643.63,116.45v-3h2.16a4.59,4.59,0,0,1-1.77-1.26,3.1,3.1,0,0,1-.59-2.16h3.18v.16a3.14,3.14,0,0,0,.91,2.39,4.07,4.07,0,0,0,2.87.87h4v3Z"/><text class="cls-15" transform="translate(407.96 485)">Lead time</text><line class="cls-16" x1="662.26" y1="472.67" x2="663.97" y2="90.95"/><path class="cls-14" d="M666.77,472.69a4.51,4.51,0,1,1-4.49-4.53A4.51,4.51,0,0,1,666.77,472.69Z"/><path class="cls-14" d="M668.48,91A4.51,4.51,0,1,0,664,95.46,4.51,4.51,0,0,0,668.48,91Z"/><line class="cls-17" x1="662.54" y1="495" x2="282.65" y2="495"/><circle class="cls-18" cx="662.54" cy="495" r="4.51"/><circle class="cls-18" cx="282.65" cy="495" r="4.51"/><line class="cls-19" x1="282.52" y1="523.22" x2="282.52" y2="551.66"/><rect class="cls-14" x="248.78" y="551.66" width="66.6" height="29.39"/><text class="cls-20" transform="translate(254.23 572.34)">Today</text><text class="cls-21" transform="translate(703.81 560.88)">Time</text><path class="cls-7" d="M17.17,150.07a7.35,7.35,0,0,1,1,2,7.7,7.7,0,0,1,.34,2.3,7.47,7.47,0,0,1-.57,3,7.12,7.12,0,0,1-1.55,2.3,7.22,7.22,0,0,1-2.29,1.5,7.3,7.3,0,0,1-2.79.54h0a7.22,7.22,0,0,1-2.79-.54,7,7,0,0,1-2.3-1.52,7.21,7.21,0,0,1-1.57-2.32,7.31,7.31,0,0,1-.58-3,7.47,7.47,0,0,1,.57-3,7,7,0,0,1,3.84-3.8,7.22,7.22,0,0,1,2.79-.54h0a7.27,7.27,0,0,1,2.29.36,6.93,6.93,0,0,1,2,1.06l1.36-1.6,1.76,1.58Zm-.94,4.21a4.47,4.47,0,0,0-.18-1.29,4.41,4.41,0,0,0-.5-1.1l-2,2.4-1.8-1.58,2.2-2.41a4.78,4.78,0,0,0-2.62-.71h0a5.37,5.37,0,0,0-1.93.35,4.77,4.77,0,0,0-1.58,1,4.55,4.55,0,0,0-1.07,1.51,4.48,4.48,0,0,0-.4,1.91,4.56,4.56,0,0,0,1.45,3.39,4.81,4.81,0,0,0,1.57,1,5.32,5.32,0,0,0,1.92.35h0a5.41,5.41,0,0,0,1.93-.35,4.84,4.84,0,0,0,1.58-1,4.93,4.93,0,0,0,1.07-1.5A4.68,4.68,0,0,0,16.23,154.28Z"/><path class="cls-7" d="M18.47,140.66a3.51,3.51,0,0,1-1.1,2.77,4.31,4.31,0,0,1-3,1H7.69V142h6a2.87,2.87,0,0,0,1.91-.58,2.13,2.13,0,0,0,.67-1.66,2.26,2.26,0,0,0-.69-1.71,2.71,2.71,0,0,0-1.93-.65H7.69v-2.44H18.25v2.44H16.59a5.26,5.26,0,0,1,1.32,1.3A3.32,3.32,0,0,1,18.47,140.66Z"/><path class="cls-7" d="M18.25,125.43H17A4.74,4.74,0,0,1,18,126.81a4.39,4.39,0,0,1,.44,2,4.82,4.82,0,0,1-.21,1.44,3.64,3.64,0,0,1-.62,1.19,3.27,3.27,0,0,1-1,.82,3,3,0,0,1-1.41.31h0a3.45,3.45,0,0,1-1.53-.32,2.85,2.85,0,0,1-1.08-.89,3.81,3.81,0,0,1-.64-1.36,6.68,6.68,0,0,1-.21-1.71,9.45,9.45,0,0,1,.12-1.63,8.69,8.69,0,0,1,.32-1.29H12a2.07,2.07,0,0,0-1.68.67A2.85,2.85,0,0,0,9.69,128a6.47,6.47,0,0,0,.18,1.6,10.33,10.33,0,0,0,.48,1.42l-1.94.66a11,11,0,0,1-.64-1.8,8.86,8.86,0,0,1-.24-2.22,4.7,4.7,0,0,1,1.17-3.5A4.51,4.51,0,0,1,12,123h6.26Zm-4.42-.06a6.28,6.28,0,0,0-.3,1.09,7.07,7.07,0,0,0-.12,1.33,3.07,3.07,0,0,0,.44,1.78,1.37,1.37,0,0,0,1.2.64h0a1.33,1.33,0,0,0,1.16-.59,2.58,2.58,0,0,0,.4-1.45,3.92,3.92,0,0,0-.16-1.11,3,3,0,0,0-.45-.89,2.19,2.19,0,0,0-.7-.59,2,2,0,0,0-.91-.21Z"/><path class="cls-7" d="M7.69,120.15v-2.44H9.34a5.54,5.54,0,0,1-.71-.57,3.89,3.89,0,0,1-.6-.72,3.54,3.54,0,0,1-.56-2,3.48,3.48,0,0,1,1.1-2.77,4.25,4.25,0,0,1,3-1h6.72v2.44h-6a2.79,2.79,0,0,0-1.9.58,2.08,2.08,0,0,0-.67,1.66,2.26,2.26,0,0,0,.69,1.71,2.69,2.69,0,0,0,1.92.65h5.95v2.44Z"/><path class="cls-7" d="M18.43,104.19a4.68,4.68,0,0,1-.16,1.22,2.5,2.5,0,0,1-.52,1,2.32,2.32,0,0,1-.95.64,4.46,4.46,0,0,1-1.47.22H9.77v1.34H7.69v-1.34H4.79v-2.44h2.9V102H9.77v2.84H15a1.31,1.31,0,0,0,1-.34,1.42,1.42,0,0,0,.31-1,3.31,3.31,0,0,0-.36-1.5h2a4.19,4.19,0,0,1,.54,2.18Z"/><path class="cls-7" d="M3.77,99.51V96.89h2.3v2.62Zm3.92-.1V97H18.25v2.44Z"/><path class="cls-7" d="M18.43,90.27a4.68,4.68,0,0,1-.16,1.22,2.5,2.5,0,0,1-.52,1,2.32,2.32,0,0,1-.95.64,4.46,4.46,0,0,1-1.47.22H9.77v1.34H7.69V93.33H4.79V90.89h2.9V88.05H9.77v2.84H15a1.31,1.31,0,0,0,1-.34,1.42,1.42,0,0,0,.31-1,3.31,3.31,0,0,0-.36-1.5h2a4.69,4.69,0,0,1,.4,1A4.76,4.76,0,0,1,18.43,90.27Z"/><path class="cls-7" d="M21.51,83.47a5,5,0,0,1-.17,1.35A6.32,6.32,0,0,1,20.87,86l-1.8-.82a5.07,5.07,0,0,0,.29-.69,2.53,2.53,0,0,0,.11-.73,1.4,1.4,0,0,0-.26-.86,2.45,2.45,0,0,0-1-.64L7.69,86.63V84.05l7.84-3L7.69,78.31V75.79L18.55,80a8.93,8.93,0,0,1,1.38.66,3.87,3.87,0,0,1,.91.76,2.78,2.78,0,0,1,.51.92A3.92,3.92,0,0,1,21.51,83.47Z"/></g></svg>