<svg width="50" height="50" xmlns="http://www.w3.org/2000/svg"><path d="M10 41h36a3 3 0 0 1-3 3H10v-3Z" fill="var(--o-icons-teal-pure, #00CEB3)"/><path d="M10 41h36a3 3 0 0 1-3 3H10v-3Z" fill="url(#o_icon_note__a)" fill-opacity=".2"/><path d="M9 41h19c0 1.657-1.418 3-3.167 3H9v-3Z" fill="var(--o-icons-teal-teal, #00A079)"/><path d="M9 41h19c0 1.657-1.418 3-3.167 3H9v-3Z" fill="url(#o_icon_note__b)" fill-opacity=".2"/><path d="M40.706 7.282a4.35 4.35 0 0 1 0 6.193L9.906 44H4v-6.192L34.457 7.282a4.447 4.447 0 0 1 6.249 0Z" fill="var(--o-icons-purple-teal, #003458)"/><path d="M40.706 7.282a4.35 4.35 0 0 1 0 6.193L9.906 44H4v-6.192L34.457 7.282a4.447 4.447 0 0 1 6.249 0Z" fill="url(#o_icon_note__c)" fill-opacity=".3"/><defs><linearGradient id="o_icon_note__a" x1="10" y1="41" x2="14.5" y2="54.5" gradientUnits="userSpaceOnUse"><stop stop-color="#fff"/><stop offset="1" stop-color="#fff" stop-opacity="0"/></linearGradient><linearGradient id="o_icon_note__b" x1="9" y1="41" x2="15.772" y2="51.723" gradientUnits="userSpaceOnUse"><stop stop-color="#fff"/><stop offset="1" stop-color="#fff" stop-opacity="0"/></linearGradient><linearGradient id="o_icon_note__c" x1="4" y1="6" x2="48.706" y2="17.177" gradientUnits="userSpaceOnUse"><stop stop-color="#fff"/><stop offset="1" stop-color="#fff" stop-opacity="0"/></linearGradient></defs></svg>
