<svg xmlns="http://www.w3.org/2000/svg" xmlns:xlink="http://www.w3.org/1999/xlink" width="400" height="400"><defs><path id="a" d="M0 0L400 0 400 400 0 400z"/><path id="c" d="M88.639 116.141v184.154H27.316V116.14H88.64zm3.902-56.863c.124 9.044-3.004 16.6-9.384 22.671-6.38 6.07-14.773 9.106-25.18 9.106h-.371c-10.158 0-18.335-3.035-24.529-9.106-6.194-6.07-9.291-13.627-9.291-22.67 0-9.168 3.19-16.756 9.57-22.764 6.38-6.009 14.711-9.013 24.993-9.013 10.283 0 18.521 3.004 24.715 9.013 6.194 6.008 9.353 13.596 9.477 22.763zm216.673 135.468v105.549h-61.136v-98.488c0-13.008-2.51-23.197-7.526-30.568-5.018-7.372-12.853-11.057-23.507-11.057-7.805 0-14.34 2.137-19.605 6.41-5.265 4.275-9.198 9.57-11.8 15.889-1.363 3.717-2.044 8.734-2.044 15.052v102.762h-61.137c.248-49.43.372-89.506.372-120.23 0-30.723-.062-49.058-.186-55.004l-.186-8.92h61.137v26.76h-.372c2.478-3.965 5.018-7.434 7.62-10.407 2.6-2.973 6.1-6.194 10.498-9.663 4.398-3.469 9.787-6.163 16.167-8.084 6.38-1.92 13.473-2.88 21.277-2.88 21.184 0 38.218 7.03 51.102 21.091 12.884 14.061 19.326 34.657 19.326 61.788z"/></defs><g fill="none" fill-rule="evenodd"><mask id="b" fill="#fff"><use xlink:href="#a"/></mask><rect width="400" height="400" fill="#2867B2" mask="url(#b)" rx="28"/><g transform="translate(43 34)"><mask id="d" fill="#fff"><use xlink:href="#c"/></mask><g fill="#FFF" mask="url(#d)"><path d="M0 0H333V333H0z"/></g></g></g></svg>