<svg xmlns="http://www.w3.org/2000/svg" xmlns:xlink="http://www.w3.org/1999/xlink" width="70" height="70" viewBox="0 0 70 70"><defs><path id="a" d="M4 0h61c4 0 5 1 5 5v60c0 4-1 5-5 5H4c-3 0-4-1-4-5V5c0-4 1-5 4-5z"/><linearGradient id="c" x1="100%" x2="0%" y1="0%" y2="100%"><stop offset="0%" stop-color="#DA956B"/><stop offset="100%" stop-color="#CC7039"/></linearGradient><path id="d" d="M23 27.281L27 43l1 4h19c1 0 1 2 0 2H26l-6-24h-2v1c0 .667-.333 1-1 1s-1-.333-1-1v-2c.066-.667.4-1 1-1h4c.517 0 .85.333 1 1l1 3.281zM45.5 55a2.5 2.5 0 1 1 0-5 2.5 2.5 0 0 1 0 5zm-19 0a2.5 2.5 0 1 1 0-5 2.5 2.5 0 0 1 0 5zM50 37.299v2.449c0 .11-.038.206-.115.287a.363.363 0 0 1-.272.121H32.977v2.45c0 .11-.038.206-.114.287a.363.363 0 0 1-.272.121.442.442 0 0 1-.29-.128l-3.857-4.082a.393.393 0 0 1-.11-.28.41.41 0 0 1 .11-.294l3.868-4.083a.366.366 0 0 1 .279-.114c.104 0 .195.04.272.12.076.082.114.177.114.288v2.45h16.636c.105 0 .196.04.272.12.077.081.115.177.115.288zm0-7.199a.41.41 0 0 1-.109.294l-3.869 4.082a.366.366 0 0 1-.278.115.363.363 0 0 1-.272-.121.403.403 0 0 1-.115-.287v-2.45H28.722a.363.363 0 0 1-.272-.12.403.403 0 0 1-.115-.288v-2.45c0-.11.038-.206.115-.286a.363.363 0 0 1 .272-.122h16.635v-2.449a.41.41 0 0 1 .11-.293.366.366 0 0 1 .277-.115c.097 0 .194.042.29.127l3.857 4.07A.41.41 0 0 1 50 30.1z"/><path id="e" d="M23 25.281L27 41l1 3h19c1 0 1 3 0 3H26l-6-24h-2v1c0 .667-.333 1-1 1s-1-.333-1-1v-2c.066-.667.4-1 1-1h4c.517 0 .85.333 1 1l1 3.281zM45.5 53a2.5 2.5 0 1 1 0-5 2.5 2.5 0 0 1 0 5zm-19 0a2.5 2.5 0 1 1 0-5 2.5 2.5 0 0 1 0 5zM50 34.689v2.45c0 .11-.038.205-.115.286a.363.363 0 0 1-.272.121H32.977v2.45c0 .11-.038.206-.114.287a.363.363 0 0 1-.272.121.442.442 0 0 1-.29-.127l-3.857-4.083a.393.393 0 0 1-.11-.28.41.41 0 0 1 .11-.294l3.868-4.082a.366.366 0 0 1 .279-.115c.104 0 .195.04.272.121.076.08.114.176.114.287v2.45h16.636c.105 0 .196.04.272.12.077.082.115.177.115.288zm0-7.198a.41.41 0 0 1-.109.293l-3.869 4.083a.366.366 0 0 1-.278.114.363.363 0 0 1-.272-.12.403.403 0 0 1-.115-.288v-2.45H28.722a.363.363 0 0 1-.272-.12.403.403 0 0 1-.115-.288v-2.449c0-.11.038-.206.115-.287a.363.363 0 0 1 .272-.121h16.635v-2.45a.41.41 0 0 1 .11-.293.366.366 0 0 1 .277-.115c.097 0 .194.043.29.128l3.857 4.07a.41.41 0 0 1 .109.293z"/></defs><g fill="none" fill-rule="evenodd"><mask id="b" fill="#fff"><use xlink:href="#a"/></mask><g mask="url(#b)"><path fill="url(#c)" d="M0 0H70V70H0z"/><path fill="#FFF" fill-opacity=".383" d="M4 1h61c2.667 0 4.333.667 5 2V0H0v3c.667-1.333 2-2 4-2z"/><path fill="#393939" d="M32.073 69H4c-2 0-4-1-4-4V38.16l16.339-16.914L21 21l3.218 10.05 4.433-4.928h14.216l2.738-2.955 4.233 4.435-5.877 6.823c3.956-.137 5.915-.137 5.877 0-.013.046-.013 1.01 0 2.894L43.961 45H47l.709.999-3.337 3.855 2.886 2.366L32.073 69z" opacity=".324"/><path fill="#000" fill-opacity=".383" d="M4 69h61c2.667 0 4.333-1 5-3v4H0v-4c.667 2 2 3 4 3z"/><use fill="#000" fill-rule="nonzero" opacity=".3" xlink:href="#d"/><use fill="#FFF" fill-rule="nonzero" xlink:href="#e"/></g></g></svg>