<svg width="50" height="50" viewBox="0 0 50 50" xmlns="http://www.w3.org/2000/svg"><path d="M 43.105 4 L 44.077 4 L 44.077 0.818 L 45.185 0.818 L 45.185 0 L 42 0 L 42 0.818 L 43.105 0.818 L 43.105 4 Z M 45.88 4 L 46.738 4 L 46.738 1.453 L 46.791 1.453 L 47.663 4 L 48.218 4 L 49.089 1.453 L 49.145 1.453 L 49.145 4 L 50 4 L 50 0 L 48.892 0 L 47.968 2.714 L 47.918 2.714 L 46.99 0 L 45.88 0 L 45.88 4 Z" fill="#D1D5DB" id="object-1"/><g clip-path="url(#clip0_4771_14794)" transform="matrix(0.192255, 0, 0, 0.192255, -29.263975, 1.410311)" style="" id="object-0"><path d="M194.3 131.3C194.3 124.6 190.8 122.2 185.3 122.2C180.1 122.2 176.6 125 174.6 127.6V163.2H157V108H174.6V112.8L172.4 116.8C175.7 112.9 184.4 106.6 193.6 106.6C206.1 106.6 211.8 113.9 211.8 124V163H194.3V131.3Z" fill="#081F2C"/><path d="M254.4 154.9C251 158.8 242.8 164.4 233.6 164.4C221.1 164.4 215.5 157.3 215.5 147.2V108H233V140C233 146.6 236.4 148.9 242.1 148.9C247.1 148.9 250.5 146.2 252.6 143.5V108H270.2V163.1H252.6V159L254.4 154.9Z" fill="#081F2C"/><path d="M356.997 106.6C373.297 106.6 385.197 118.6 385.197 137.3V141.1H347.297L345.797 139.1C345.797 139.8 345.897 140.7 346.097 141.5C347.397 146.4 351.997 150.9 359.997 150.9C364.897 150.9 370.397 149 373.497 146.2L380.897 157.1C375.397 162 366.297 164.4 357.897 164.4C340.897 164.4 327.797 153.3 327.797 135.4C327.697 119.5 339.797 106.6 356.997 106.6ZM345.697 129.7H368.397C367.897 125.8 365.097 120.2 356.997 120.2C349.397 120.2 346.397 125.7 345.697 129.7Z" fill="#081F2C"/><path d="M388.703 108H406.303V163.1H388.703V108Z" fill="#081F2C"/><path d="M313.603 108L301.803 140.8L302.203 145.9L288.703 108H273.703V116.9L291.903 163.1H310.603L332.203 108H313.603Z" fill="#081F2C"/><path d="M387.5 91C387.5 85.4 391.9 81 397.5 81C403.1 81 407.5 85.4 407.5 91C407.5 96.6 403.1 101 397.5 101C391.9 101.1 387.5 96.6 387.5 91Z" fill="#E40946"/></g></svg>
