<svg id="national-female" enable-background="new 0 0 300 300" height="512" viewBox="0 0 300 300" width="512" xmlns="http://www.w3.org/2000/svg"><g><circle cx="156" cy="152" fill="#edebdc" r="92"/><g fill="#4c241d"><path d="m236 152c-2.211 0-4-1.791-4-4v-8c0-2.209 1.789-4 4-4s4 1.791 4 4v8c0 2.209-1.789 4-4 4z"/><path d="m236 176c-2.211 0-4-1.791-4-4v-8c0-2.209 1.789-4 4-4s4 1.791 4 4v8c0 2.209-1.789 4-4 4z"/><path d="m228 160h-8c-2.211 0-4-1.791-4-4s1.789-4 4-4h8c2.211 0 4 1.791 4 4s-1.789 4-4 4z"/><path d="m252 160h-8c-2.211 0-4-1.791-4-4s1.789-4 4-4h8c2.211 0 4 1.791 4 4s-1.789 4-4 4z"/><circle cx="58" cy="182" r="6"/><circle cx="70" cy="38" r="4.529"/><path d="m57.656 81.656c-1.023 0-2.047-.391-2.828-1.172l-11.312-11.312c-1.562-1.562-1.562-4.094 0-5.656s4.094-1.562 5.656 0l11.312 11.312c1.562 1.562 1.562 4.094 0 5.656-.781.782-1.804 1.172-2.828 1.172z"/><path d="m46.344 81.656c-1.023 0-2.047-.391-2.828-1.172-1.562-1.562-1.562-4.094 0-5.656l11.312-11.312c1.562-1.562 4.094-1.562 5.656 0s1.562 4.094 0 5.656l-11.312 11.312c-.781.782-1.805 1.172-2.828 1.172z"/><path d="m253.656 213.656c-1.023 0-2.047-.391-2.828-1.172l-11.312-11.312c-1.562-1.562-1.562-4.094 0-5.656s4.094-1.562 5.656 0l11.312 11.312c1.562 1.562 1.562 4.094 0 5.656-.781.782-1.804 1.172-2.828 1.172z"/><path d="m242.344 213.656c-1.023 0-2.047-.391-2.828-1.172-1.562-1.562-1.562-4.094 0-5.656l11.312-11.312c1.562-1.562 4.094-1.562 5.656 0s1.562 4.094 0 5.656l-11.312 11.312c-.781.782-1.805 1.172-2.828 1.172z"/></g><g><path d="m220 272h-144v-32.902c0-14.82 8.534-28.25 21.776-34.269l50.224-22.829 50.224 22.829c13.242 6.019 21.776 19.449 21.776 34.269z" fill="#fff"/><path d="m220 276h-144c-2.211 0-4-1.791-4-4v-32.902c0-16.369 9.469-31.25 24.121-37.91l50.223-22.828c1.055-.48 2.258-.48 3.312 0l50.223 22.83c14.652 6.658 24.121 21.539 24.121 37.908v32.902c0 2.209-1.789 4-4 4zm-140-8h136v-28.902c0-13.24-7.629-25.262-19.434-30.625l-48.566-22.078-48.566 22.076c-11.805 5.365-19.434 17.386-19.434 30.627z" fill="#4c241d"/></g><g><path d="m112 244c-11.046 0-20-8.954-20-20v-100h20z" fill="#ffce56"/><path d="m112 248c-13.234 0-24-10.766-24-24v-100c0-2.209 1.789-4 4-4h20c2.211 0 4 1.791 4 4v120c0 2.209-1.789 4-4 4zm-16-120v96c0 7.441 5.105 13.713 12 15.494v-111.494z" fill="#4c241d"/></g><g><path d="m148 216c-11.046 0-20-8.954-20-20v-32h40v32c0 11.046-8.954 20-20 20z" fill="#e7d1c4"/><path d="m148 220c-13.234 0-24-10.766-24-24v-32c0-2.209 1.789-4 4-4h40c2.211 0 4 1.791 4 4v32c0 13.234-10.766 24-24 24zm-16-52v28c0 8.822 7.176 16 16 16s16-7.178 16-16v-28z" fill="#4c241d"/></g><g><path d="m150 188c-32.033 0-58-25.967-58-58v-44c0-32.032 25.967-58 58-58 32.032 0 58 25.967 58 58v44c0 32.033-25.967 58-58 58z" fill="#e66353"/><path d="m150 192c-34.188 0-62-27.812-62-62v-44c0-34.188 27.812-62 62-62s62 27.812 62 62v44c0 34.188-27.812 62-62 62zm0-160c-29.777 0-54 24.225-54 54v44c0 29.775 24.223 54 54 54s54-24.225 54-54v-44c0-29.775-24.223-54-54-54z" fill="#4c241d"/></g><g><path d="m132 80h36c22.091 0 40 17.909 40 40h-116c0-22.091 17.909-40 40-40z" fill="#ffce56"/><path d="m208 124h-116c-2.211 0-4-1.791-4-4 0-24.262 19.738-44 44-44h36c24.262 0 44 19.738 44 44 0 2.209-1.789 4-4 4zm-111.777-8h107.555c-1.997-17.975-17.278-32-35.778-32h-36c-18.5 0-33.781 14.025-35.777 32z" fill="#4c241d"/></g><g><path d="m117.545 85.261c-1.99 23.24-21.545 25.575-21.545 25.575-3.635 1.589-6.145 5.274-5.993 9.53.114 3.199 2.081 6.09 4.734 7.88 3.217 2.171 5.98 2.017 8.431 1.192 3.969 19.359 18.022 35.548 37.427 41.794 5.563 1.791 11.581 1.62 17.141-.182l1.775-.575c19.093-6.188 33.023-22.039 37.173-41.079 2.441.861 5.222 1.011 8.371-.95 2.549-1.588 4.495-4.194 4.862-7.175.564-4.583-1.976-8.646-5.799-10.379-21.81 11.852-72.769-7.691-83.958-26.271" fill="#e7d1c4"/><path d="m148.75 176.502c-3.195 0-6.348-.486-9.375-1.463-19.199-6.182-33.934-21.713-39.223-41.037-2.645.096-5.172-.768-7.648-2.439-3.914-2.641-6.344-6.773-6.492-11.057-.207-5.781 3.082-11.018 8.387-13.336.359-.156.738-.26 1.129-.307.645-.084 16.355-2.379 18.031-21.943.184-2.201 2.145-3.834 4.324-3.645.027.004.051.006.078.008.043-.029.09-.061.141-.088 1.887-1.139 4.348-.535 5.488 1.361 10.555 17.525 59.328 35.299 78.621 24.82 1.102-.602 2.414-.648 3.562-.129 5.609 2.543 8.871 8.375 8.117 14.51-.492 4.002-3.004 7.771-6.719 10.084-2.414 1.504-4.922 2.223-7.52 2.15-5.441 18.932-20.051 34.176-38.902 40.287l-1.777.574c-3.386 1.101-6.827 1.65-10.222 1.65zm-45.578-51.064c.691 0 1.383.18 1.996.533.992.572 1.691 1.541 1.922 2.664 3.738 18.23 17.047 33.096 34.738 38.791 4.641 1.494 9.719 1.428 14.68-.182l1.777-.574c17.379-5.635 30.598-20.244 34.492-38.127.246-1.121.961-2.084 1.961-2.643 1.004-.561 2.191-.66 3.281-.277 1.812.643 3.242.477 4.926-.572s2.805-2.645 3.008-4.27c.254-2.066-.547-4.053-2.059-5.342-22.07 9.484-66.688-5.619-83.34-23.742-3.809 15.781-16.191 21.875-23.387 23.014-2.016 1.078-3.246 3.191-3.164 5.512.062 1.707 1.199 3.512 2.973 4.707 1.953 1.314 3.332 1.244 4.922.717.414-.141.844-.209 1.274-.209z" fill="#4c241d"/></g><circle cx="170" cy="126" fill="#4c241d" r="4"/><circle cx="130" cy="126" fill="#4c241d" r="4"/><g><path d="m167.211 176.789c6.37 6.37 4.323 18.746 4.323 18.746s-12.375 2.047-18.746-4.323-4.323-18.746-4.323-18.746 12.376-2.047 18.746 4.323z" fill="#e66353"/><path d="m167.035 199.842c-4.898 0-12.207-.936-17.074-5.803-7.734-7.732-5.539-21.639-5.441-22.227.277-1.689 1.602-3.014 3.293-3.295.594-.09 14.492-2.289 22.227 5.443 7.734 7.732 5.539 21.639 5.441 22.227-.277 1.689-1.602 3.014-3.293 3.295-.219.036-2.266.36-5.153.36zm4.5-4.307h.039zm-19.379-19.379c-.102 3.762.461 9.229 3.461 12.227 3 3 8.523 3.576 12.227 3.461.102-3.762-.461-9.229-3.461-12.227-2.996-2.994-8.469-3.564-12.227-3.461z" fill="#4c241d"/></g><g><path d="m128.789 176.789c-6.37 6.37-4.323 18.746-4.323 18.746s12.375 2.047 18.746-4.323 4.323-18.746 4.323-18.746-12.376-2.047-18.746 4.323z" fill="#e66353"/><path d="m128.965 199.842c-2.887 0-4.934-.324-5.152-.359-1.691-.281-3.016-1.605-3.293-3.295-.098-.588-2.293-14.494 5.441-22.227 7.738-7.732 21.637-5.533 22.227-5.443 1.691.281 3.016 1.605 3.293 3.295.098.588 2.293 14.494-5.441 22.227-4.868 4.866-12.177 5.802-17.075 5.802zm-.809-7.996c3.75.092 9.227-.463 12.227-3.463 3-2.998 3.562-8.463 3.461-12.229-3.754-.084-9.227.465-12.227 3.463-3 2.998-3.562 8.463-3.461 12.229zm.633-15.057h.039z" fill="#4c241d"/></g><path d="m148 156c-2.914 0-5.73-1.061-7.922-2.984-1.66-1.457-1.824-3.984-.363-5.645 1.457-1.662 3.984-1.82 5.645-.367 1.59 1.396 4.188 1.252 5.609-.322 1.48-1.641 4.012-1.762 5.648-.283 1.637 1.482 1.766 4.012.281 5.65-2.269 2.512-5.515 3.951-8.898 3.951z" fill="#4c241d"/><path d="m192 276c-2.211 0-4-1.791-4-4v-20c0-2.209 1.789-4 4-4s4 1.791 4 4v20c0 2.209-1.789 4-4 4z" fill="#4c241d"/><path d="m104 276c-2.211 0-4-1.791-4-4v-20c0-2.209 1.789-4 4-4s4 1.791 4 4v20c0 2.209-1.789 4-4 4z" fill="#4c241d"/><path d="m148 276c-2.211 0-4-1.791-4-4v-8c0-2.209 1.789-4 4-4s4 1.791 4 4v8c0 2.209-1.789 4-4 4z" fill="#4c241d"/><circle cx="112" cy="68" fill="#ffce56" r="4"/><circle cx="188" cy="68" fill="#ffce56" r="4"/><circle cx="128" cy="60" fill="#ffce56" r="4"/><circle cx="168" cy="60" fill="#ffce56" r="4"/><circle cx="148" cy="56" fill="#ffce56" r="4"/></g></svg>