<svg height="512pt" viewBox="0 -46 512 512" width="512pt" xmlns="http://www.w3.org/2000/svg"><g fill-rule="evenodd"><path d="m144.257812 20.921875v170.195313l103.375 22.824218 107.667969-22.824218v-170.195313c0-11.511719-9.402343-20.921875-20.90625-20.921875-57.675781 0-112.957031 0-169.226562 0-11.507813 0-20.910157 9.410156-20.910157 20.921875zm0 0" fill="#ffcc73"/><path d="m144.257812 20.921875v170.195313h30.371094v-170.195313c0-11.511719 9.402344-20.921875 20.90625-20.921875h-30.367187c-11.507813 0-20.910157 9.410156-20.910157 20.921875zm0 0" fill="#f59556"/><path d="m218.167969 46.261719h60.652343c5.433594 0 9.902344-4.472657 9.902344-9.9375v-36.324219h-80.484375v36.324219c0 5.464843 4.46875 9.9375 9.929688 9.9375zm0 0" fill="#e8e8e8"/><path d="m45.410156 212.042969v170.195312l103.375 22.824219 107.667969-22.824219 18.542969-90.972656-18.542969-79.222656c-2.628906-11.222657-9.40625-20.925781-20.910156-20.925781-57.671875 0-112.953125 0-169.226563 0-11.503906 0-20.90625 9.410156-20.90625 20.925781zm0 0" fill="#f59556"/><path d="m45.410156 212.042969v170.195312c8.378906-.234375 18.601563-.117187 30.367188-.265625v-169.929687c0-11.515625 9.40625-20.925781 20.910156-20.925781h-30.371094c-11.503906 0-20.90625 9.410156-20.90625 20.925781zm0 0" fill="#d65036"/><path d="m119.320312 237.378906h60.652344c5.460938 0 9.898438-4.472656 9.898438-9.9375v-36.324218h-80.449219v36.324218c0 5.464844 4.4375 9.9375 9.898437 9.9375zm0 0" fill="#e8e8e8"/><path d="m256.453125 212.042969v170.195312c22.136719-.613281 61.46875 22.910157 103.375 22.824219 34.078125-.0625 68.507813-23.46875 107.667969-23.351562v-169.667969c0-11.515625-9.402344-20.925781-20.90625-20.925781-57.675782 0-112.957032 0-169.230469 0-11.503906 0-20.90625 9.410156-20.90625 20.925781zm0 0" fill="#55b8e6"/><path d="m256.453125 212.042969v170.195312l30.371094-.265625v-169.929687c0-11.515625 9.402343-20.925781 20.90625-20.925781h-30.371094c-11.503906 0-20.90625 9.410156-20.90625 20.925781zm0 0" fill="#507fcf"/><path d="m330.363281 237.378906h60.625c5.457031 0 9.925781-4.472656 9.925781-9.9375v-36.324218h-80.480468v36.324218c0 5.464844 4.46875 9.9375 9.929687 9.9375zm0 0" fill="#e8e8e8"/><path d="m18.484375 381.972656c-10.164063 0-18.484375 8.328125-18.484375 18.53125 0 10.167969 8.320312 18.496094 18.484375 18.496094h475c4.0625 0 7.855469-1.316406 10.894531-3.566406 4.613282-3.386719 7.621094-8.824219 7.621094-14.929688 0-6.140625-3.007812-11.574218-7.621094-14.964844-3.039062-2.222656-6.832031-3.566406-10.894531-3.566406zm0 0" fill="#808080"/><path d="m18.484375 381.972656c-10.164063 0-18.484375 8.328125-18.484375 18.53125 0 10.167969 8.320312 18.496094 18.484375 18.496094h34.28125c-10.160156 0-18.484375-8.328125-18.484375-18.496094 0-8.300781 5.523438-15.371094 13.054688-17.710937.058593 0 .117187-.03125.203124-.058594 1.664063-.496094 3.417969-.761719 5.230469-.761719zm0 0" fill="#525252"/></g></svg>