<?xml version="1.0" encoding="utf-8"?>
<!-- Generator: Adobe Illustrator 17.1.0, SVG Export Plug-In . SVG Version: 6.00 Build 0)  -->
<!DOCTYPE svg PUBLIC "-//W3C//DTD SVG 1.1//EN" "http://www.w3.org/Graphics/SVG/1.1/DTD/svg11.dtd">
<svg version="1.1" id="Capa_1" xmlns="http://www.w3.org/2000/svg" xmlns:xlink="http://www.w3.org/1999/xlink" x="0px" y="0px"
	 viewBox="0 0 595.3 841.9" enable-background="new 0 0 595.3 841.9" xml:space="preserve">
<g>
	<g>
		<path fill="#EF1D1D" d="M297.6,123.3C133.1,123.3,0,256.4,0,420.9c0,164.5,133.1,297.6,297.6,297.6
			c164.5,0,297.6-133.1,297.6-297.6C595.3,256.4,462.2,123.3,297.6,123.3z M297.6,672.1c-138.8,0-251.1-112.3-251.1-251.1
			c0-138.8,112.3-251.1,251.1-251.1c138.8,0,251.1,112.3,251.1,251.1C548.8,559.7,436.5,672.1,297.6,672.1z"/>
	</g>
</g>
<g>
	<g>
		<path fill="#EF1D1D" d="M399.5,489.9l-68.9-68.9l68.9-68.9c9.1-9.1,9.1-23.8,0-32.9c-9.1-9.1-23.8-9.1-32.9,0l-68.9,68.9
			l-68.9-68.9c-9.1-9.1-23.8-9.1-32.9,0c-9.1,9.1-9.1,23.8,0,32.9l68.9,68.9l-68.9,68.9c-9.1,9.1-9.1,23.8,0,32.9
			c9.1,9.1,23.8,9.1,32.9,0l68.9-68.9l68.9,68.9c9.1,9.1,23.8,9.1,32.9,0C408.6,513.7,408.6,499,399.5,489.9z"/>
	</g>
</g>
</svg>
