<?xml version="1.0" encoding="utf-8"?>
<!-- Generator: Adobe Illustrator 23.0.3, SVG Export Plug-In . SVG Version: 6.00 Build 0)  -->
<svg version="1.1" id="Capa_1" xmlns="http://www.w3.org/2000/svg" xmlns:xlink="http://www.w3.org/1999/xlink" x="0px" y="0px"
	 viewBox="0 0 512 512" style="enable-background:new 0 0 512 512;" xml:space="preserve">
<style type="text/css">
	.st0{fill:#656D78;}
	.st1{fill:#DA4453;}
	.st2{fill:#F6BB42;}
	.st3{fill:#DCA746;}
	.st4{fill:#FFCE54;}
	.st5{fill:#ED5564;}
</style>
<g>
	<g>
		<polygon class="st0" points="267.5,280.1 267.5,183.9 244.5,183.9 244.5,280.1 106.2,280.1 106.2,410.9 129.2,410.9 129.2,303.1 
			382.8,303.1 382.8,410.9 405.8,410.9 405.8,280.1 		"/>
		<polygon class="st0" points="267.5,280.1 267.5,183.9 256,183.9 256,303.1 382.8,303.1 382.8,410.9 405.8,410.9 405.8,280.1 		"/>
		<rect x="64.5" y="361.7" class="st1" width="106.3" height="106.3"/>
		<rect x="341.2" y="361.7" class="st1" width="106.3" height="106.3"/>
	</g>
	<g>
		<g>
			<path class="st2" d="M370.9,81.6c0,0.1,0.1,0.1,0.1,0.2C371,81.8,371,81.7,370.9,81.6z"/>
			<path class="st2" d="M371.2,82.2c0,0.1,0.1,0.2,0.1,0.2C371.3,82.4,371.3,82.3,371.2,82.2z"/>
			<path class="st2" d="M371.1,81.9c0,0.1,0.1,0.1,0.1,0.2C371.2,82,371.1,82,371.1,81.9z"/>
			<path class="st2" d="M371.5,83.4c0-0.1,0-0.2,0-0.3C371.5,83.2,371.5,83.3,371.5,83.4z"/>
			<path class="st2" d="M370.7,81.3C370.7,81.3,370.6,81.2,370.7,81.3L339,45.1c0,0,0,0-0.1-0.1c0,0-0.1-0.1-0.1-0.1
				c0,0-0.1-0.1-0.1-0.1c0,0-0.1-0.1-0.1-0.1c0,0-0.1-0.1-0.1-0.1c0,0-0.1-0.1-0.1-0.1c0,0-0.1-0.1-0.2-0.1c0,0-0.1-0.1-0.1-0.1
				c-0.1,0-0.1-0.1-0.2-0.1c-0.1,0-0.1,0-0.2-0.1c0,0-0.1,0-0.1-0.1c-0.1,0-0.1,0-0.2-0.1c-0.1,0-0.1,0-0.2,0c-0.1,0-0.1,0-0.2,0
				c-0.1,0-0.1,0-0.2,0c-0.1,0-0.1,0-0.2,0c-0.1,0-0.1,0-0.2,0c0,0-0.1,0-0.1,0H175.5c0,0-0.1,0-0.1,0c-0.1,0-0.1,0-0.2,0
				c-0.1,0-0.1,0-0.2,0c-0.1,0-0.1,0-0.2,0c-0.1,0-0.1,0-0.2,0c-0.1,0-0.1,0-0.2,0c-0.1,0-0.1,0-0.2,0.1c-0.1,0-0.1,0-0.2,0.1
				c-0.1,0-0.1,0-0.2,0.1c-0.1,0-0.1,0-0.2,0.1c0,0-0.1,0-0.1,0.1c-0.1,0-0.1,0.1-0.2,0.1c0,0-0.1,0.1-0.1,0.1c0,0-0.1,0.1-0.1,0.1
				c0,0-0.1,0.1-0.1,0.1c0,0-0.1,0.1-0.1,0.1c0,0-0.1,0.1-0.1,0.1c0,0,0,0-0.1,0.1l-31.6,36.1c0,0,0,0,0,0
				C142,80.5,370.1,80.5,370.7,81.3z"/>
			<path class="st2" d="M371.4,82.8c0,0.1,0,0.2,0,0.3C371.4,83,371.4,82.9,371.4,82.8z"/>
			<path class="st2" d="M371.3,82.5c0,0.1,0,0.2,0.1,0.3C371.4,82.7,371.4,82.6,371.3,82.5z"/>
			<path class="st2" d="M141.1,81.5c0,0,0.1-0.1,0.1-0.1C141.2,81.4,141.2,81.5,141.1,81.5z"/>
			<path class="st2" d="M140.6,82.7c0-0.1,0-0.1,0-0.2C140.6,82.6,140.6,82.7,140.6,82.7z"/>
			<path class="st2" d="M140.6,83.1c0-0.1,0-0.1,0-0.2C140.6,82.9,140.6,83,140.6,83.1z"/>
			<path class="st2" d="M370.8,81.4c0,0.1,0.1,0.1,0.1,0.2C370.8,81.5,370.8,81.4,370.8,81.4z"/>
			<path class="st2" d="M140.7,82.4c0-0.1,0-0.1,0.1-0.2C140.7,82.3,140.7,82.4,140.7,82.4z"/>
			<path class="st2" d="M140.5,83.2c0,0.1,0,0.1,0,0.2C140.5,83.3,140.5,83.3,140.5,83.2z"/>
			<path class="st2" d="M140.8,82.1c0,0,0-0.1,0.1-0.1C140.9,82,140.8,82.1,140.8,82.1z"/>
			<path class="st2" d="M141,81.8c0,0,0.1-0.1,0.1-0.1C141,81.7,141,81.8,141,81.8z"/>
		</g>
		<path class="st3" d="M370.6,81.2L339,45.1c0,0,0,0-0.1-0.1c0,0-0.1-0.1-0.1-0.1c0,0-0.1-0.1-0.1-0.1c0,0-0.1-0.1-0.1-0.1
			c0,0-0.1-0.1-0.1-0.1c0,0-0.1-0.1-0.1-0.1c0,0-0.1-0.1-0.2-0.1c0,0-0.1-0.1-0.1-0.1c-0.1,0-0.1-0.1-0.2-0.1c-0.1,0-0.1,0-0.2-0.1
			c0,0-0.1,0-0.1-0.1c-0.1,0-0.1,0-0.2-0.1c-0.1,0-0.1,0-0.2,0c-0.1,0-0.1,0-0.2,0c-0.1,0-0.1,0-0.2,0c-0.1,0-0.1,0-0.2,0
			c-0.1,0-0.1,0-0.2,0c0,0-0.1,0-0.1,0h-13.6c0,0,0.1,0,0.1,0c0.1,0,0.1,0,0.2,0c0.1,0,0.1,0,0.2,0c0.1,0,0.1,0,0.2,0
			c0.1,0,0.1,0,0.2,0c0.1,0,0.1,0,0.2,0c0.1,0,0.1,0,0.2,0.1c0.1,0,0.1,0,0.1,0.1c0.1,0,0.1,0,0.2,0.1c0.1,0,0.1,0,0.2,0.1
			c0,0,0.1,0,0.1,0.1c0.1,0,0.1,0.1,0.2,0.1c0,0,0.1,0.1,0.1,0.1c0,0,0.1,0.1,0.1,0.1c0,0,0.1,0.1,0.1,0.1c0,0,0.1,0.1,0.1,0.1
			c0,0,0.1,0.1,0.1,0.1c0,0,0,0,0.1,0.1l30.6,35h12C369.1,80.1,370.1,80.5,370.6,81.2C370.7,81.3,370.6,81.2,370.6,81.2z"/>
		<path class="st4" d="M368.1,235.9H152.3c-1.9,0-11.7-1.5-11.7-3.4v-149c0-1.9,1.5-3.4,3.4-3.4h224.2c1.9,0,3.4,1.5,3.4,3.4v149
			C371.5,234.4,370,235.9,368.1,235.9z"/>
		<path class="st2" d="M368.1,80.1h-13.6c1.9,0,3.4,1.5,3.4,3.4v149c0,1.9-1.5,3.4-3.4,3.4h13.6c1.9,0,3.4-1.5,3.4-3.4v-149
			C371.5,81.6,370,80.1,368.1,80.1z"/>
		<g>
			<path class="st0" d="M193.6,204.3H162c-1.9,0-3.4-1.5-3.4-3.4s1.5-3.4,3.4-3.4h31.6c1.9,0,3.4,1.5,3.4,3.4
				S195.5,204.3,193.6,204.3z"/>
			<path class="st0" d="M180,217.8H162c-1.9,0-3.4-1.5-3.4-3.4s1.5-3.4,3.4-3.4H180c1.9,0,3.4,1.5,3.4,3.4S181.9,217.8,180,217.8z"
				/>
			<path class="st0" d="M350,217.8h-13.5c-1.9,0-3.4-1.5-3.4-3.4v-13.5c0-1.9,1.5-3.4,3.4-3.4H350c1.9,0,3.4,1.5,3.4,3.4v13.5
				C353.4,216.3,351.9,217.8,350,217.8z"/>
			<path class="st0" d="M322.9,217.8h-13.5c-1.9,0-3.4-1.5-3.4-3.4v-13.5c0-1.9,1.5-3.4,3.4-3.4h13.5c1.9,0,3.4,1.5,3.4,3.4v13.5
				C326.3,216.3,324.8,217.8,322.9,217.8z"/>
		</g>
		<polygon class="st1" points="273.1,43.9 239.2,43.9 225.7,80.1 256,82.8 286.6,80.1 		"/>
		<path class="st5" d="M225.7,80.1v3.4v34.8v1.4c0,0,0,0,0,0c0,0.1,0,0.1,0,0.2c0,0,0,0.1,0,0.1c0,0.1,0,0.1,0,0.2
			c0,0.1,0,0.1,0,0.2c0,0,0,0.1,0,0.1c0,0.1,0,0.1,0.1,0.2c0,0,0,0.1,0,0.1c0,0.1,0,0.1,0.1,0.2c0,0,0,0.1,0.1,0.1
			c0,0.1,0.1,0.1,0.1,0.2c0,0,0.1,0.1,0.1,0.1c0,0,0.1,0.1,0.1,0.1c0,0.1,0.1,0.1,0.1,0.2c0,0,0,0.1,0.1,0.1c0,0.1,0.1,0.1,0.1,0.2
			c0,0,0.1,0.1,0.1,0.1c0,0,0.1,0.1,0.1,0.1c0,0,0.1,0.1,0.1,0.1c0,0,0.1,0.1,0.1,0.1c0,0,0.1,0.1,0.1,0.1c0,0,0.1,0,0.1,0.1
			c0.1,0,0.1,0.1,0.2,0.1c0,0,0,0,0,0l9,4.5c0,0,0.1,0,0.1,0c0.1,0,0.1,0,0.2,0.1c0.1,0,0.2,0.1,0.3,0.1c0,0,0.1,0,0.1,0
			c0.1,0,0.2,0,0.3,0.1c0,0,0.1,0,0.1,0c0.1,0,0.3,0,0.4,0c0,0,0,0,0,0c0,0,0,0,0,0c0.1,0,0.3,0,0.4,0c0,0,0.1,0,0.1,0
			c0.1,0,0.2,0,0.3-0.1c0,0,0.1,0,0.1,0c0.1,0,0.2-0.1,0.3-0.1c0.1,0,0.1,0,0.2-0.1c0,0,0.1,0,0.1,0l7.5-3.8l7.5,3.8
			c0,0,0.1,0,0.1,0c0.1,0,0.1,0,0.2,0.1c0.1,0,0.2,0.1,0.3,0.1c0,0,0.1,0,0.1,0c0.1,0,0.2,0,0.3,0.1c0,0,0.1,0,0.1,0
			c0.1,0,0.3,0,0.4,0c0,0,0,0,0,0s0,0,0,0c0.1,0,0.3,0,0.4,0c0,0,0.1,0,0.1,0c0.1,0,0.2,0,0.3-0.1c0,0,0.1,0,0.1,0
			c0.1,0,0.2-0.1,0.3-0.1c0.1,0,0.1,0,0.2-0.1c0,0,0.1,0,0.1,0l7.5-3.8l7.5,3.8c0,0,0.1,0,0.1,0c0,0,0.1,0,0.1,0.1
			c0.1,0,0.2,0.1,0.3,0.1c0,0,0.1,0,0.1,0c0.1,0,0.2,0,0.3,0.1c0,0,0.1,0,0.1,0c0.1,0,0.3,0,0.4,0c0,0,0,0,0,0s0,0,0,0
			c0.1,0,0.3,0,0.4,0c0,0,0.1,0,0.1,0c0.1,0,0.2,0,0.3-0.1c0,0,0.1,0,0.1,0c0.1,0,0.2-0.1,0.3-0.1c0,0,0.1,0,0.1-0.1
			c0,0,0.1,0,0.1,0l9-4.5c0,0,0,0,0,0c0.1,0,0.1-0.1,0.2-0.1c0,0,0.1,0,0.1-0.1c0.1,0,0.1-0.1,0.1-0.1c0,0,0.1-0.1,0.1-0.1
			c0,0,0.1-0.1,0.1-0.1c0,0,0.1-0.1,0.1-0.1c0,0,0.1-0.1,0.1-0.1c0,0,0.1-0.1,0.1-0.1c0,0,0.1-0.1,0.1-0.1c0,0,0.1-0.1,0.1-0.1
			c0-0.1,0.1-0.1,0.1-0.2c0,0,0-0.1,0.1-0.1c0-0.1,0.1-0.1,0.1-0.2c0,0,0-0.1,0-0.1c0-0.1,0.1-0.1,0.1-0.2c0,0,0-0.1,0-0.1
			c0-0.1,0-0.1,0.1-0.2c0,0,0-0.1,0-0.1c0-0.1,0-0.1,0-0.2c0,0,0-0.1,0-0.1c0-0.1,0-0.1,0-0.2c0-0.1,0-0.1,0-0.2c0,0,0,0,0-0.1v-1.4
			V83.5v-3.4L225.7,80.1L225.7,80.1z"/>
	</g>
</g>
</svg>
