<?xml version="1.0" encoding="iso-8859-1"?>
<!-- Generator: Adobe Illustrator 19.0.0, SVG Export Plug-In . SVG Version: 6.00 Build 0)  -->
<svg version="1.1" id="Capa_1" xmlns="http://www.w3.org/2000/svg" xmlns:xlink="http://www.w3.org/1999/xlink" x="0px" y="0px"
	 viewBox="0 0 512 512" style="enable-background:new 0 0 512 512;" xml:space="preserve">
<g>
	<path style="fill:#F6BB42;" d="M510.822,126.816c0.087,0.137,0.174,0.273,0.253,0.417
		C510.996,127.09,510.909,126.953,510.822,126.816z"/>
	<path style="fill:#F6BB42;" d="M511.458,128.053c0.07,0.174,0.137,0.35,0.194,0.531
		C511.595,128.404,511.528,128.228,511.458,128.053z"/>
	<path style="fill:#F6BB42;" d="M511.165,127.412c0.081,0.158,0.162,0.317,0.232,0.483
		C511.328,127.731,511.247,127.572,511.165,127.412z"/>
	<path style="fill:#F6BB42;" d="M511.997,130.783c-0.001-0.193-0.013-0.386-0.029-0.58
		C511.984,130.394,511.996,130.588,511.997,130.783z"/>
	<path style="fill:#F6BB42;" d="M510.228,126.005c-0.029-0.035-0.053-0.071-0.083-0.105L440.05,45.798
		c-0.05-0.057-0.105-0.107-0.157-0.162c-0.093-0.1-0.186-0.199-0.284-0.293c-0.087-0.085-0.178-0.165-0.269-0.245
		c-0.091-0.079-0.182-0.158-0.276-0.232c-0.102-0.081-0.206-0.158-0.311-0.232c-0.092-0.066-0.185-0.13-0.28-0.192
		c-0.109-0.071-0.22-0.138-0.333-0.202c-0.1-0.058-0.201-0.113-0.303-0.166c-0.111-0.057-0.223-0.111-0.336-0.162
		c-0.111-0.05-0.223-0.098-0.337-0.144c-0.109-0.043-0.22-0.083-0.33-0.121c-0.121-0.042-0.243-0.081-0.366-0.116
		c-0.111-0.032-0.223-0.06-0.334-0.086c-0.124-0.029-0.248-0.057-0.374-0.08c-0.121-0.022-0.242-0.04-0.363-0.056
		c-0.118-0.016-0.236-0.031-0.355-0.041c-0.138-0.012-0.276-0.017-0.415-0.021c-0.074-0.002-0.146-0.011-0.221-0.011H77.604
		c-0.074,0-0.146,0.009-0.22,0.011c-0.139,0.004-0.277,0.009-0.416,0.021c-0.119,0.01-0.237,0.025-0.354,0.041
		c-0.123,0.016-0.244,0.034-0.365,0.056c-0.125,0.023-0.248,0.05-0.371,0.079c-0.113,0.027-0.225,0.055-0.337,0.087
		c-0.123,0.035-0.243,0.074-0.363,0.115c-0.112,0.038-0.223,0.078-0.333,0.122c-0.113,0.045-0.224,0.093-0.334,0.143
		c-0.114,0.052-0.227,0.105-0.338,0.163c-0.102,0.053-0.202,0.108-0.301,0.165c-0.113,0.065-0.225,0.132-0.335,0.203
		c-0.095,0.062-0.187,0.125-0.278,0.191c-0.105,0.075-0.21,0.152-0.312,0.233c-0.094,0.075-0.185,0.153-0.275,0.232
		c-0.091,0.08-0.182,0.16-0.269,0.245c-0.098,0.094-0.191,0.193-0.284,0.293c-0.052,0.055-0.107,0.105-0.157,0.162L1.858,125.899
		c-0.023,0.026-0.041,0.054-0.064,0.081C3.172,124.363,508.851,124.373,510.228,126.005z"/>
	<path style="fill:#F6BB42;" d="M511.868,129.459c0.035,0.189,0.066,0.378,0.087,0.573
		C511.934,129.84,511.903,129.65,511.868,129.459z"/>
	<path style="fill:#F6BB42;" d="M511.696,128.74c0.053,0.183,0.104,0.367,0.143,0.557C511.8,129.11,511.75,128.925,511.696,128.74z"
		/>
	<path style="fill:#F6BB42;" d="M1.337,126.574c0.061-0.088,0.127-0.171,0.192-0.257C1.464,126.401,1.397,126.486,1.337,126.574z"/>
	<path style="fill:#F6BB42;" d="M0.17,129.261c0.027-0.126,0.062-0.248,0.095-0.371C0.232,129.014,0.197,129.136,0.17,129.261z"/>
	<path style="fill:#F6BB42;" d="M0.051,129.994c0.016-0.135,0.039-0.268,0.061-0.4C0.09,129.727,0.066,129.859,0.051,129.994z"/>
	<path style="fill:#F6BB42;" d="M510.419,126.246c0.09,0.116,0.181,0.232,0.264,0.353C510.6,126.48,510.51,126.363,510.419,126.246z
		"/>
	<path style="fill:#F6BB42;" d="M0.359,128.55c0.038-0.118,0.084-0.232,0.127-0.348C0.444,128.318,0.397,128.432,0.359,128.55z"/>
	<path style="fill:#F6BB42;" d="M0.027,130.314c-0.01,0.142-0.02,0.284-0.022,0.427C0.007,130.598,0.017,130.456,0.027,130.314z"/>
	<path style="fill:#F6BB42;" d="M0.618,127.864c0.048-0.11,0.103-0.216,0.156-0.323C0.721,127.648,0.665,127.754,0.618,127.864z"/>
	<path style="fill:#F6BB42;" d="M0.943,127.203c0.055-0.099,0.117-0.193,0.176-0.29C1.06,127.01,0.998,127.105,0.943,127.203z"/>
</g>
<path style="fill:#DCA746;" d="M510.145,125.899L440.05,45.798c-0.05-0.057-0.105-0.107-0.157-0.162
	c-0.093-0.1-0.186-0.199-0.284-0.293c-0.087-0.085-0.178-0.165-0.269-0.245c-0.091-0.079-0.182-0.158-0.276-0.232
	c-0.102-0.081-0.206-0.158-0.311-0.232c-0.092-0.066-0.185-0.13-0.28-0.192c-0.109-0.071-0.22-0.138-0.333-0.202
	c-0.1-0.058-0.201-0.113-0.303-0.166c-0.111-0.057-0.223-0.111-0.336-0.162c-0.111-0.05-0.223-0.098-0.337-0.144
	c-0.109-0.043-0.22-0.083-0.33-0.121c-0.121-0.042-0.243-0.081-0.366-0.116c-0.111-0.032-0.223-0.06-0.334-0.086
	c-0.124-0.029-0.248-0.057-0.374-0.08c-0.121-0.022-0.242-0.04-0.363-0.056c-0.118-0.016-0.236-0.031-0.355-0.041
	c-0.138-0.012-0.276-0.017-0.415-0.021c-0.074-0.002-0.146-0.011-0.221-0.011h-30.041c0.075,0,0.147,0.009,0.221,0.011
	c0.138,0.004,0.276,0.009,0.415,0.021c0.12,0.01,0.238,0.025,0.355,0.041c0.121,0.016,0.243,0.034,0.363,0.056
	c0.126,0.023,0.25,0.05,0.374,0.08c0.112,0.026,0.223,0.054,0.334,0.086c0.123,0.035,0.245,0.074,0.366,0.116
	c0.111,0.038,0.221,0.078,0.33,0.121c0.114,0.045,0.226,0.093,0.336,0.144c0.113,0.051,0.225,0.105,0.336,0.162
	c0.103,0.053,0.203,0.108,0.303,0.166c0.112,0.064,0.223,0.131,0.333,0.202c0.095,0.062,0.188,0.126,0.28,0.192
	c0.105,0.075,0.209,0.151,0.31,0.232c0.095,0.075,0.186,0.153,0.276,0.232c0.091,0.08,0.182,0.16,0.269,0.245
	c0.098,0.094,0.191,0.193,0.284,0.293c0.052,0.055,0.107,0.105,0.157,0.162l67.851,77.537h26.63c2.302,0,4.359,1.038,5.737,2.669
	C510.199,125.97,510.175,125.933,510.145,125.899z"/>
<path style="fill:#FFCE54;" d="M504.491,468.767H26.034c-4.147,0-26.034-3.362-26.034-7.509V130.844
	c0-4.147,3.362-7.509,7.509-7.509h496.981c4.147,0,7.509,3.362,7.509,7.509v330.414C512,465.405,508.638,468.767,504.491,468.767z"
	/>
<path style="fill:#F6BB42;" d="M504.491,123.335H474.45c4.147,0,7.509,3.362,7.509,7.509v330.414c0,4.147-3.362,7.509-7.509,7.509
	h30.041c4.147,0,7.509-3.362,7.509-7.509V130.844C512,126.697,508.638,123.335,504.491,123.335z"/>
<g>
	<path style="fill:#656D78;" d="M117.647,398.679H47.559c-4.147,0-7.509-3.362-7.509-7.509c0-4.147,3.362-7.509,7.509-7.509h70.088
		c4.147,0,7.509,3.362,7.509,7.509C125.156,395.317,121.794,398.679,117.647,398.679z"/>
	<path style="fill:#656D78;" d="M87.61,428.716h-40.05c-4.147,0-7.509-3.361-7.509-7.509s3.362-7.509,7.509-7.509h40.05
		c4.147,0,7.509,3.361,7.509,7.509S91.757,428.716,87.61,428.716z"/>
	<path style="fill:#656D78;" d="M464.442,428.716h-30.038c-4.147,0-7.509-3.361-7.509-7.509v-30.038
		c0-4.147,3.362-7.509,7.509-7.509h30.038c4.147,0,7.509,3.362,7.509,7.509v30.038C471.951,425.355,468.589,428.716,464.442,428.716
		z"/>
	<path style="fill:#656D78;" d="M404.366,428.716h-30.038c-4.147,0-7.509-3.361-7.509-7.509v-30.038
		c0-4.147,3.362-7.509,7.509-7.509h30.038c4.147,0,7.509,3.362,7.509,7.509v30.038C411.876,425.355,408.514,428.716,404.366,428.716
		z"/>
</g>
<polygon style="fill:#DA4453;" points="293.865,43.234 218.774,43.234 188.734,123.335 256,129.343 323.906,123.335 "/>
<path style="fill:#ED5564;" d="M188.734,123.335v7.509v77.096v3.005c0,0.033,0.004,0.064,0.005,0.097
	c0.002,0.154,0.012,0.306,0.023,0.459c0.008,0.103,0.014,0.206,0.025,0.308c0.015,0.126,0.037,0.251,0.058,0.376
	c0.02,0.124,0.04,0.249,0.067,0.371c0.021,0.098,0.049,0.193,0.075,0.29c0.037,0.143,0.074,0.285,0.119,0.425
	c0.026,0.081,0.059,0.16,0.087,0.239c0.054,0.147,0.107,0.294,0.169,0.438c0.036,0.083,0.079,0.164,0.119,0.247
	c0.063,0.131,0.126,0.263,0.196,0.391c0.057,0.103,0.122,0.202,0.184,0.302s0.122,0.203,0.189,0.3
	c0.081,0.12,0.172,0.234,0.261,0.349c0.056,0.072,0.109,0.147,0.168,0.217c0.101,0.12,0.209,0.234,0.317,0.349
	c0.057,0.061,0.112,0.124,0.172,0.182c0.105,0.104,0.218,0.202,0.33,0.3c0.073,0.064,0.145,0.131,0.222,0.192
	c0.099,0.08,0.203,0.154,0.307,0.23c0.1,0.073,0.201,0.147,0.305,0.215c0.088,0.057,0.179,0.11,0.27,0.164
	c0.129,0.077,0.258,0.152,0.392,0.222c0.03,0.016,0.058,0.034,0.088,0.049l20.025,10.012c0.07,0.035,0.143,0.059,0.213,0.091
	c0.115,0.053,0.23,0.102,0.347,0.149c0.194,0.078,0.389,0.146,0.587,0.208c0.105,0.032,0.208,0.065,0.314,0.093
	c0.228,0.06,0.458,0.105,0.689,0.143c0.083,0.014,0.165,0.032,0.249,0.043c0.317,0.041,0.635,0.066,0.952,0.066
	c0.002,0,0.004-0.001,0.006-0.001s0.004,0.001,0.006,0.001c0.316,0,0.635-0.025,0.952-0.066c0.083-0.011,0.165-0.029,0.248-0.043
	c0.231-0.038,0.462-0.083,0.691-0.144c0.105-0.028,0.208-0.061,0.311-0.092c0.198-0.061,0.395-0.13,0.59-0.208
	c0.116-0.047,0.23-0.095,0.344-0.147c0.071-0.033,0.144-0.057,0.215-0.092l16.667-8.332l16.667,8.332
	c0.07,0.035,0.143,0.059,0.213,0.091c0.115,0.053,0.23,0.102,0.347,0.149c0.194,0.078,0.389,0.146,0.587,0.208
	c0.105,0.032,0.208,0.065,0.314,0.093c0.228,0.06,0.458,0.105,0.689,0.143c0.083,0.014,0.165,0.032,0.249,0.043
	c0.317,0.041,0.635,0.066,0.952,0.066c0.002,0,0.004-0.001,0.006-0.001c0.002,0,0.004,0.001,0.006,0.001
	c0.316,0,0.635-0.025,0.952-0.066c0.083-0.011,0.165-0.029,0.248-0.043c0.231-0.038,0.462-0.083,0.691-0.144
	c0.105-0.028,0.207-0.061,0.311-0.092c0.198-0.061,0.396-0.13,0.59-0.208c0.116-0.047,0.23-0.095,0.344-0.147
	c0.071-0.033,0.144-0.057,0.215-0.092l16.667-8.332l16.667,8.332c0.074,0.037,0.15,0.062,0.225,0.096
	c0.108,0.05,0.216,0.096,0.326,0.14c0.201,0.082,0.404,0.152,0.608,0.215c0.099,0.03,0.197,0.061,0.298,0.088
	c0.233,0.062,0.469,0.108,0.705,0.146c0.079,0.013,0.156,0.031,0.236,0.041c0.318,0.041,0.636,0.066,0.953,0.066
	c0.002,0,0.004-0.001,0.007-0.001c0.003,0,0.004,0.001,0.007,0.001c0.317,0,0.636-0.025,0.953-0.066
	c0.079-0.01,0.156-0.028,0.235-0.041c0.236-0.038,0.473-0.085,0.708-0.147c0.099-0.026,0.196-0.057,0.294-0.087
	c0.205-0.063,0.409-0.134,0.611-0.216c0.109-0.044,0.217-0.089,0.323-0.138c0.075-0.035,0.152-0.06,0.227-0.097l20.025-10.012
	c0.028-0.014,0.054-0.032,0.082-0.046c0.141-0.073,0.276-0.151,0.413-0.232c0.084-0.05,0.169-0.099,0.25-0.152
	c0.112-0.074,0.22-0.153,0.328-0.232c0.096-0.07,0.192-0.138,0.283-0.211c0.086-0.069,0.167-0.144,0.25-0.217
	c0.102-0.09,0.205-0.179,0.302-0.274c0.071-0.07,0.137-0.144,0.205-0.217c0.097-0.103,0.195-0.206,0.285-0.314
	c0.071-0.085,0.136-0.175,0.204-0.263c0.076-0.1,0.155-0.199,0.226-0.303c0.079-0.115,0.15-0.234,0.223-0.354
	c0.05-0.082,0.103-0.162,0.149-0.246c0.082-0.146,0.153-0.297,0.225-0.45c0.03-0.063,0.063-0.124,0.09-0.188
	c0.071-0.161,0.132-0.327,0.191-0.494c0.022-0.061,0.046-0.121,0.067-0.182c0.051-0.156,0.093-0.316,0.134-0.477
	c0.02-0.079,0.043-0.157,0.06-0.237c0.031-0.138,0.053-0.278,0.076-0.42c0.018-0.108,0.037-0.217,0.05-0.327
	c0.014-0.116,0.021-0.234,0.029-0.352c0.01-0.138,0.019-0.275,0.02-0.414c0.001-0.038,0.006-0.074,0.006-0.112v-3.005v-77.096
	v-7.509H188.734V123.335z"/>
<g>
</g>
<g>
</g>
<g>
</g>
<g>
</g>
<g>
</g>
<g>
</g>
<g>
</g>
<g>
</g>
<g>
</g>
<g>
</g>
<g>
</g>
<g>
</g>
<g>
</g>
<g>
</g>
<g>
</g>
</svg>
