<svg height="512" viewBox="0 0 512 512" width="512" xmlns="http://www.w3.org/2000/svg"><g id="Flat"><path d="m224 64h256v120h-256z" fill="#f8bc1e"/><path d="m480 72h-256v16h232v8.31a63.69 63.69 0 0 1 -63.69 63.69h-148.31a12 12 0 0 0 -12 12v12h248z" fill="#f5a922"/><path d="m440 144h16v16h-16z" fill="#f79726"/><path d="m216 40h272v32h-272z" fill="#f8bc1e"/><path d="m304 40h96v88h-96z" fill="#f9da62"/><path d="m304 72h96v16h-96z" fill="#f8bc1e"/><path d="m224 208h256v120h-256z" fill="#f8bc1e"/><path d="m480 216h-256v16h232v8.31a63.69 63.69 0 0 1 -63.69 63.69h-148.31a12 12 0 0 0 -12 12v12h248z" fill="#f5a922"/><path d="m440 288h16v16h-16z" fill="#f79726"/><path d="m216 184h272v32h-272z" fill="#f8bc1e"/><path d="m304 184h96v88h-96z" fill="#f9da62"/><path d="m304 216h96v16h-96z" fill="#f8bc1e"/><path d="m224 352h256v120h-256z" fill="#f8bc1e"/><path d="m480 360h-256v16h232v8.31a63.69 63.69 0 0 1 -63.69 63.69h-148.31a12 12 0 0 0 -12 12v12h248z" fill="#f5a922"/><path d="m440 432h16v16h-16z" fill="#f79726"/><path d="m216 328h272v32h-272z" fill="#f8bc1e"/><path d="m304 328h96v88h-96z" fill="#f9da62"/><path d="m304 360h96v16h-96z" fill="#f8bc1e"/><path d="m88 184h224v304h-224z" fill="#0093b9"/><g fill="#57c3c1"><path d="m192 302.955v9.045h16v-9.045a22.834 22.834 0 0 0 3.378-42.21l-15.6-7.8a6.833 6.833 0 0 1 3.055-12.945h2.334a6.84 6.84 0 0 1 6.833 6.833v1.167h16v-1.167a22.874 22.874 0 0 0 -16-21.788v-9.045h-16v9.045a22.834 22.834 0 0 0 -3.378 42.21l15.6 7.8a6.833 6.833 0 0 1 -3.055 12.945h-2.334a6.84 6.84 0 0 1 -6.833-6.833v-1.167h-16v1.167a22.874 22.874 0 0 0 16 21.788z"/><path d="m144 256h16v16h-16z"/><path d="m240 256h16v16h-16z"/><path d="m160 336h16v16h-16z"/><path d="m192 336h88v16h-88z"/><path d="m136 368h144v16h-144z"/><path d="m136 400h144v16h-144z"/><path d="m136 432h120v16h-120z"/></g><path d="m112 144h144v16h-144z" fill="#0093b9"/><path d="m272 144h16v16h-16z" fill="#0093b9"/><path d="m16 416 16-16v-72a24 24 0 0 1 24-24h32v32l20-20a16.971 16.971 0 0 1 24 0 16.971 16.971 0 0 1 0 24l-36 36a45.255 45.255 0 0 1 0 64l-40 40z" fill="#f7c9a8"/><rect fill="#e5b18c" height="16" rx="8" transform="matrix(.707 -.707 .707 .707 -219.805 157.311)" width="22.627" x="68.686" y="336"/></g></svg>