<?xml version="1.0" encoding="utf-8"?>
<!-- Generator: Adobe Illustrator 17.1.0, SVG Export Plug-In . SVG Version: 6.00 Build 0)  -->
<!DOCTYPE svg PUBLIC "-//W3C//DTD SVG 1.1//EN" "http://www.w3.org/Graphics/SVG/1.1/DTD/svg11.dtd">
<svg version="1.1" id="Layer_1" xmlns="http://www.w3.org/2000/svg" xmlns:xlink="http://www.w3.org/1999/xlink" x="0px" y="0px"
	 viewBox="0 0 512 512" enable-background="new 0 0 512 512" xml:space="preserve">
<path fill="#3CB54A" d="M256,512C114.8,512,0,397.2,0,256S114.8,0,256,0s256,114.8,256,256S397.2,512,256,512z M256,32
	C132.5,32,32,132.5,32,256s100.5,224,224,224s224-100.5,224-224S379.5,32,256,32z"/>
<path fill="#3CB54A" d="M232,341.3c-4.1,0-8.2-1.6-11.3-4.7l-69.3-69.3c-6.3-6.3-6.3-16.4,0-22.6s16.4-6.3,22.6,0l58,58l127.4-127.4
	c6.3-6.3,16.4-6.3,22.6,0s6.3,16.4,0,22.6L243.3,336.6C240.2,339.8,236.1,341.3,232,341.3z"/>
</svg>
