<svg xmlns="http://www.w3.org/2000/svg" xmlns:xlink="http://www.w3.org/1999/xlink" width="70" height="70"><defs><path id="a" d="M4 0h61c4 0 5 1 5 5v60c0 4-1 5-5 5H4c-3 0-4-1-4-5V5c0-4 1-5 4-5z"/><linearGradient id="c" x1="100%" x2="0%" y1="0%" y2="100%"><stop offset="0%" stop-color="#7CC098"/><stop offset="100%" stop-color="#5F8A71"/></linearGradient><path id="d" d="M32.423 21.58v-3a1 1 0 0 1 1-1h4a1 1 0 0 1 1 1v4a1 1 0 0 1-1 1H34.25V34.9c0 2.9-.81 5.055-2.43 6.465-1.62 1.41-3.86 2.115-6.72 2.115-2.9 0-5.145-.7-6.735-2.1-1.59-1.4-2.385-3.56-2.385-6.48V21.58h4.71V34.9c0 .58.05 1.15.15 1.71.1.56.31 1.055.63 1.485.32.43.765.78 1.335 1.05s1.335.405 2.295.405c1.68 0 2.84-.375 3.48-1.125.64-.75.96-1.925.96-3.525V21.58h2.883zM19.25 46h2.714v1.212c0 .188.152.343.339.343h26.394a.342.342 0 0 0 .339-.343V37.5H38.5V31h10.536v-3.212a.342.342 0 0 0-.339-.343H39.5v-2.742h9.536c1.5 0 2.714 1.228 2.714 2.742v20.11c0 1.514-1.213 2.742-2.714 2.742H21.964c-1.5 0-2.714-1.228-2.714-2.742V46zm-3.79 9.642h-1.037V55h2.833v.642h-1.037v2.832h-.76v-2.832zM17.422 55h1.07l.809 2.389h.01L20.075 55h1.07v3.474h-.711v-2.462h-.01l-.847 2.462h-.586l-.848-2.438h-.01v2.438h-.711V55zm23-41.42h3a1 1 0 0 1 1 1v3a1 1 0 0 1-1 1h-3a1 1 0 0 1-1-1v-3a1 1 0 0 1 1-1zm-5-3h2a1 1 0 0 1 1 1v2a1 1 0 0 1-1 1h-2a1 1 0 0 1-1-1v-2a1 1 0 0 1 1-1z"/><path id="e" d="M32.423 19.58v-3a1 1 0 0 1 1-1h4a1 1 0 0 1 1 1v4a1 1 0 0 1-1 1H34.25V32.9c0 2.9-.81 5.055-2.43 6.465-1.62 1.41-3.86 2.115-6.72 2.115-2.9 0-5.145-.7-6.735-2.1-1.59-1.4-2.385-3.56-2.385-6.48V19.58h4.71V32.9c0 .58.05 1.15.15 1.71.1.56.31 1.055.63 1.485.32.43.765.78 1.335 1.05s1.335.405 2.295.405c1.68 0 2.84-.375 3.48-1.125.64-.75.96-1.925.96-3.525V19.58h2.883zM19.25 44h2.714v1.212c0 .188.152.343.339.343h26.394a.342.342 0 0 0 .339-.343V35.5H38.5V29h10.536v-3.212a.342.342 0 0 0-.339-.343H39.5v-2.742h9.536c1.5 0 2.714 1.228 2.714 2.742v20.11c0 1.514-1.213 2.742-2.714 2.742H21.964c-1.5 0-2.714-1.228-2.714-2.742V44zm-3.79 9.642h-1.037V53h2.833v.642h-1.037v2.832h-.76v-2.832zM17.422 53h1.07l.809 2.389h.01L20.075 53h1.07v3.474h-.711v-2.462h-.01l-.847 2.462h-.586l-.848-2.438h-.01v2.438h-.711V53zm23-41.42h3a1 1 0 0 1 1 1v3a1 1 0 0 1-1 1h-3a1 1 0 0 1-1-1v-3a1 1 0 0 1 1-1zm-5-3h2a1 1 0 0 1 1 1v2a1 1 0 0 1-1 1h-2a1 1 0 0 1-1-1v-2a1 1 0 0 1 1-1z"/></defs><g fill="none" fill-rule="evenodd"><mask id="b" fill="#fff"><use xlink:href="#a"/></mask><g mask="url(#b)"><path fill="url(#c)" d="M0 0H70V70H0z"/><path fill="#FFF" fill-opacity=".383" d="M4 1h61c2.667 0 4.333.667 5 2V0H0v3c.667-1.333 2-2 4-2z"/><path fill="#393939" d="M4 69c-2 0-4-1-4-4V33.916L16 19.58l3.25.42L35 8.58 38 12l-.89 2 2.584-2 4.729 4-5.923 6.703L48 23l3.576 1.968-.236 22.01L39.224 69H4z" opacity=".324"/><path fill="#000" fill-opacity=".383" d="M4 69h61c2.667 0 4.333-1 5-3v4H0v-4c.667 2 2 3 4 3z"/><use fill="#000" fill-rule="nonzero" opacity=".3" xlink:href="#d"/><use fill="#FFF" fill-rule="nonzero" xlink:href="#e"/></g></g></svg>