<svg width="24" height="24" viewBox="0 0 24 24" fill="none" xmlns="http://www.w3.org/2000/svg">
<g clip-path="url(#clip0_15_1650)">
<path d="M13.31 20.4002C11.9877 20.6067 10.6353 20.4981 9.36293 20.0832C8.09054 19.6683 6.9341 18.9588 5.98776 18.0124C5.04141 17.0661 4.3319 15.9096 3.91698 14.6372C3.50206 13.3648 3.39345 12.0125 3.6 10.6902C3.07874 9.69867 2.88826 8.56644 3.05641 7.45897C3.22457 6.3515 3.74254 5.32684 4.53461 4.53477C5.32669 3.74269 6.35135 3.22472 7.45882 3.05657C8.56629 2.88841 9.69851 3.07889 10.69 3.60016C12.0123 3.39361 13.3647 3.50221 14.6371 3.91713C15.9095 4.33205 17.0659 5.04156 18.0123 5.98791C18.9586 6.93425 19.6681 8.09069 20.083 9.36308C20.498 10.6355 20.6066 11.9879 20.4 13.3102C20.9213 14.3016 21.1117 15.4339 20.9436 16.5413C20.7754 17.6488 20.2575 18.6735 19.4654 19.4655C18.6733 20.2576 17.6487 20.7756 16.5412 20.9437C15.4337 21.1119 14.3015 20.9214 13.31 20.4002ZM12.052 17.1562H12.012C14.884 17.1562 16.315 15.7702 16.315 13.9132C16.315 12.7152 15.764 11.4422 13.589 10.9552L11.606 10.5152C10.851 10.3432 9.984 10.1152 9.984 9.40016C9.984 8.68516 10.604 8.18716 11.708 8.18716C13.938 8.18716 13.735 9.71516 14.839 9.71516C15.415 9.71516 15.932 9.37316 15.932 8.78516C15.932 7.41516 13.735 6.38516 11.876 6.38516C9.85501 6.38516 7.703 7.24416 7.703 9.52916C7.703 10.6272 8.097 11.7992 10.263 12.3422L12.952 13.0132C13.768 13.2152 13.97 13.6722 13.97 14.0852C13.97 14.7722 13.286 15.4432 12.052 15.4432C9.635 15.4432 9.97401 13.5862 8.67801 13.5862C8.09801 13.5862 7.675 13.9842 7.675 14.5572C7.675 15.6712 9.027 17.1552 12.052 17.1552V17.1562Z" fill="white"/>
</g>
<defs>
<clipPath id="clip0_15_1650">
<rect width="24" height="24" fill="white"/>
</clipPath>
</defs>
</svg>
