<svg width="50" height="50" viewBox="0 0 50 50" xmlns="http://www.w3.org/2000/svg"><path d="M45.445 23.222A22.222 22.222 0 1 0 12.11 42.467l11.111-19.245h22.223Z" fill="#985184"/><path d="M5.313 32.53A22.222 22.222 0 1 0 37.889 7.533L26.778 26.778 5.313 32.53Z" fill="#1AD3BB"/><path d="M23.221 45.444c12.274 0 22.223-9.95 22.223-22.223 0-5.23-1.807-10.039-4.832-13.835a22.128 22.128 0 0 0-13.835-4.831c-12.273 0-22.222 9.949-22.222 22.222 0 5.23 1.807 10.04 4.831 13.835a22.128 22.128 0 0 0 13.835 4.832Z" fill="#005E7A"/><path d="M7.719 7.303c.646-.63 1.33-1.22 2.05-1.768.227.056.445.161.639.316L26.58 18.796c1.82 1.456 1.946 4.192.297 5.84-1.649 1.647-4.387 1.521-5.845-.297L8.075 8.181a1.651 1.651 0 0 1-.356-.878Z" fill="#fff"/></svg>
