<?xml version="1.0" encoding="utf-8"?>
<!-- Generator: Adobe Illustrator 25.3.1, SVG Export Plug-In . SVG Version: 6.00 Build 0)  -->
<svg version="1.1" id="Layer_1" xmlns="http://www.w3.org/2000/svg" xmlns:xlink="http://www.w3.org/1999/xlink" x="0px" y="0px"
	 viewBox="0 0 585 555" style="enable-background:new 0 0 585 555;" xml:space="preserve">
<style type="text/css">
	.st0{opacity:0.15;}
	.st1{fill:#2D3142;}
	.st2{fill:#FCB7A0;}
	.st3{fill:#DC8173;}
	.st4{fill:#1A4E66;}
	.st5{fill:#FFFFFF;}
	.st6{fill:#0D323F;}
	.st7{fill:#714B67;}
	.st8{fill:#3B3B3B;}
	.st9{fill:#EAF3F3;}
	.st10{fill:#CCC9C6;}
</style>
<g id="Master_x2F_Spot_Illustrations_x2F_Phone">
	<g id="Background" transform="scale(1 1)">
		<g id="Background_x2F_Boom" class="st0">
			<g id="Group" transform="translate(13.000000, 46.000000)">
				<path id="Shape" class="st1" d="M488.1,338.7c-5.5-13.7-10.4-27.5-15.1-40.7c-4.8-13.5-9.7-27.5-15.3-41.4L440.6,214
					c4.5-1.4,15.3-4.9,22.6-7.7c4.9-1.9,10.1-3.8,15.1-5.6c10.5-3.7,21.3-7.5,31.2-12.7c0.7-0.4,1.1-1.1,1.1-1.9
					c-0.1-0.8-0.6-1.5-1.3-1.7c-13.7-4.8-27-9.8-39.9-14.6c-13.6-5-27.5-10.3-41.8-15.2c18.1-19.2,38.4-36.9,58.1-54.1
					c16.7-14.6,33.9-29.6,49.8-45.6c0.6-0.6,0.8-1.5,0.4-2.3s-1.2-1.2-2.1-1.1c-0.9,0.2-93,14.3-115.1,18.5
					c-9.1,1.7-17.8,3.3-26.2,4.8c-23.8,4.3-46.3,8.3-75.7,15.4c3.7-22.7,4.6-49.2,5-72.3c0-0.8-0.5-1.5-1.2-1.9
					c-0.7-0.3-1.6-0.2-2.2,0.4C304.7,29.7,268.9,63.5,262,70c-6.7-4.8-22-21.8-34.5-35.6c-8-8.8-14.8-16.4-19-20.4
					c-12.1-11.8-22.2-23.3-33.8-36.7c-5.2-5.9-10.5-12.1-16.4-18.7c-0.6-0.6-1.5-0.8-2.3-0.5c-0.8,0.4-1.3,1.2-1.2,2
					c1.4,12.1,2.8,24.4,4.3,36.9c3.8,31.6,7.6,64.3,11,97c-7.9-5.5-17.4-13.5-17.5-13.6c-0.7-0.5-1.6-0.6-2.3-0.2
					c-0.7,0.5-1.1,1.3-0.9,2.2c0.3,1.3,7.7,28.6,12.7,43.2c-5.2-1.4-10.5-3-16-4.6c-15.7-4.7-31.9-9.5-47.5-11.4
					c-0.6-0.1-1.2,0.1-1.6,0.5c-0.4,0.4-0.7,1-0.6,1.6c0.7,11.3,3.4,23,6.1,34.3c0.8,3.2,1.6,6.5,2.3,9.8c1.9,8.6,3.7,17.7,5.6,27.3
					c2,10.3,4.1,21,6.6,32c-7,0.5-15.7,0.7-24.2,0.9c-4.9,0.1-9.5,0.2-13.5,0.4c-13.8,0.6-30,1.7-46.7,5.9c-0.7,0.2-1.3,0.7-1.4,1.4
					c-0.2,0.7,0,1.4,0.5,1.9c7.5,7.4,17.5,14.9,27.1,22c7.9,5.9,16,11.9,22.7,17.9c8.3,7.5,35,35.1,40.6,41
					c-9.6,16-21.8,30.9-33.6,45.4c-6.2,7.6-12.5,15.4-18.5,23.2l-1.1,1.5c-12.4,16.6-25.2,33.6-37.1,50.9
					c-5.4,7.8-16.4,25.3-16.5,25.4c-0.5,0.7-0.4,1.7,0.2,2.4c0.6,0.7,1.5,0.9,2.3,0.6c11.1-4.6,22.3-9.9,33.1-15.1
					c5.6-2.6,11.3-5.4,16.9-7.9c13.5-6.2,70.1-28.5,86.5-35l-19.9,45.5c-0.3,0.8-0.2,1.7,0.5,2.3c0.6,0.6,1.5,0.7,2.3,0.3
					c19.3-9.7,36.9-22.2,54-34.2c5.8-4.1,11.2-7.9,16.6-11.6c19.8-13.4,55-46.4,62.9-53.9c15.8,20.4,28.9,35.5,41.1,47.3
					c4.6,4.4,9.3,9.7,14.3,15.2c9.2,10.2,19.7,21.8,31.9,31.1c0.5,0.4,1.3,0.5,1.9,0.3c0.6-0.2,1.1-0.8,1.3-1.4
					c1.1-4.8,2.2-9.6,3.2-14.2c6.9-30.2,12.9-56.5,13-85.3c15.5,9,45.3,30.6,67.4,46.7c13.1,9.5,23.4,17,28,19.9
					c11.3,7.2,36.5,21.2,36.8,21.3c0.7,0.4,1.5,0.3,2.1-0.1c0.6-0.5,0.9-1.2,0.8-2C507,395.3,497.9,363,488.1,338.7z M398.4,305
					c-0.7,0.7-1.7,0.8-2.5,0.3c-12.5-8-26.1-14.9-39.3-21.7c-10.9-5.6-22.1-11.3-32.6-17.6c-1.4,23.7-3,50.4-6,73.4
					c-0.1,0.8-0.7,1.4-1.4,1.7c-0.2,0.1-0.4,0.1-0.6,0.1c-0.6,0-1.2-0.3-1.5-0.7c-6.1-7.3-11.1-15.2-16-22.7c-1.5-2.3-3-4.6-4.5-6.9
					c-3.4-5.1-14.8-25.1-18.2-31c-9.1,4.5-52.7,25.6-65,31.2c-5.9,2.7-12.4,5.3-18.7,7.8c-9.1,3.7-18.6,7.5-26.7,11.7
					c-0.8,0.4-1.8,0.2-2.4-0.5c-0.6-0.7-0.6-1.7-0.1-2.5c0.2-0.2,17.8-21.6,26.8-31.1c6.2-6.5,22.4-26,26.2-30.6
					c-2.5-5.1-12.4-25.2-16.2-34.9c-1.2-3.1-2.5-6.2-3.8-9.4c-3.3-8.1-6.7-16.4-9.5-24.6c-0.2-0.7-0.1-1.5,0.4-2
					c0.5-0.6,1.3-0.8,2-0.6c12.6,3.1,33.7,11.4,42,14.7c-0.8-4.1-1.6-8.2-2.4-12.3c-3.7-19.3-7.2-37.5-11.3-54.3
					c-2.3-9.4-4.9-20.7-7.3-31.5c-1.9-8.3-3.7-16.2-5.3-23.1c-0.2-0.9,0.1-1.7,0.9-2.2c0.7-0.5,1.7-0.4,2.4,0.2
					c23,20,44.6,43,59.7,63.7c3.9-6.7,7.8-12.2,11.5-17.7c4.1-5.8,7.9-11.8,11.4-18c0.4-0.7,1.2-1.1,2-1c0.8,0.1,1.5,0.7,1.7,1.5
					c1,4.4,1.9,9.2,2.8,13.9c1.2,7.3,2.8,14.5,4.8,21.7c24.7-11.3,52.4-16.7,79.2-21.9c4.6-0.9,9.2-1.8,13.7-2.7
					c0.8-0.2,1.6,0.2,2.1,0.9c0.4,0.7,0.4,1.6-0.1,2.3c-9.7,13-20.7,25.3-31.3,37.2c-10.2,11.4-20.7,23.2-29.8,35.3
					c14.6,17,27.9,36.2,36.6,52.9c1.4,2.6,2.8,5.3,4.2,8c7.2,13.9,14.7,28.3,22.5,40.8C399.2,303.3,399.1,304.3,398.4,305z"/>
				<path id="Path" class="st1" d="M562.8,316.7c-0.4-0.2-10.3-5-18.5-6.6c-2.3-0.5-4.6,0.3-6.2,2c-1.5,1.7-2,4.2-1.3,6.4
					c0.7,2.2,2.6,3.9,4.9,4.3c6.6,1.4,15.4,5.6,15.5,5.6c2.1,1.1,4.6,0.9,6.6-0.4c2-1.3,3.1-3.6,2.9-5.9
					C566.4,319.7,564.9,317.7,562.8,316.7L562.8,316.7z"/>
				<path id="Path_1_" class="st1" d="M526.6,126.1c0.5,3.2,3.2,5.5,6.4,5.5c0.3,0,0.7,0,1-0.1l18.5-2.9c3.5-0.6,6-3.9,5.4-7.4
					c-0.6-3.5-3.9-6-7.4-5.4l-18.6,2.9C528.4,119.2,526,122.5,526.6,126.1z"/>
				<path id="Path_2_" class="st1" d="M352-16.9c0.3,0.1,0.7,0.1,1,0.1c3.2,0,6-2.4,6.4-5.6l2.1-14.8c0.4-2.3-0.5-4.7-2.4-6.1
					c-1.8-1.5-4.3-1.8-6.5-1c-2.2,0.9-3.7,2.9-4,5.2l-2.1,14.8c-0.3,1.7,0.2,3.4,1.2,4.8C348.8-18.1,350.3-17.2,352-16.9z"/>
				<path id="Path_3_" class="st1" d="M387.8,14.4c3.1,1.9,7.1,0.9,8.9-2.2l7.6-12.4c1.9-3.1,0.9-7.1-2.1-9
					c-3.1-1.9-7.1-0.9-8.9,2.1l-7.6,12.4c-0.9,1.5-1.2,3.3-0.8,4.9S386.3,13.5,387.8,14.4L387.8,14.4z"/>
				<path id="Path_4_" class="st1" d="M118.1,30.7c1.6,3.2,5.5,4.5,8.7,2.8c3.2-1.6,4.5-5.5,2.9-8.7l-5.5-10.9
					c-1.6-3.2-5.5-4.5-8.8-2.9c-3.2,1.6-4.5,5.5-2.9,8.8L118.1,30.7z"/>
				<path id="Path_5_" class="st1" d="M19.3,364c-0.6-1.6-1.9-2.9-3.5-3.6c-1.6-0.7-3.4-0.7-5-0.1L-3.4,366c-2.9,1.2-4.5,4.2-4,7.3
					s3.3,5.3,6.4,5.3c0.8,0,1.6-0.2,2.4-0.5l14.3-5.7C19,371,20.6,367.3,19.3,364L19.3,364z"/>
				<path id="Path_6_" class="st1" d="M9,288.6h11.5c3.6,0,6.5-2.9,6.5-6.5s-2.9-6.5-6.5-6.5H9c-3.6,0-6.5,2.9-6.5,6.5
					S5.4,288.6,9,288.6L9,288.6z"/>
				<path id="Path_7_" class="st1" d="M39.8,136.4l8.6,2.9c2.2,0.7,4.6,0.2,6.4-1.3c1.7-1.5,2.5-3.9,2.1-6.2
					c-0.5-2.3-2.1-4.1-4.3-4.9l-8.6-2.9c-2.2-0.8-4.7-0.3-6.5,1.2c-1.8,1.6-2.6,3.9-2.1,6.2S37.6,135.7,39.8,136.4L39.8,136.4z"/>
				<path id="Path_8_" class="st1" d="M16.1,164.6h0.4l8.7-0.6c3.6-0.2,6.3-3.3,6.1-6.9c-0.2-3.6-3.3-6.3-6.9-6.1l-8.7,0.6
					c-2.3,0.1-4.4,1.4-5.5,3.4c-1.1,2-1,4.5,0.2,6.5C11.6,163.5,13.8,164.7,16.1,164.6L16.1,164.6z"/>
				<path id="Path_9_" class="st1" d="M269.6,430.1c-0.3-3.6-3.4-6.3-7-6c-3.6,0.3-6.3,3.4-6,7l1.4,20c0.3,3.4,3.1,6,6.5,6h0.5
					c1.7-0.1,3.3-0.9,4.5-2.3c1.1-1.3,1.7-3,1.5-4.7L269.6,430.1z"/>
				<path id="Path_10_" class="st1" d="M223.1,428.5c-1.7-0.4-3.5,0-4.9,0.9s-2.5,2.4-2.8,4.1l-2.5,11.4c-0.4,1.7-0.1,3.5,0.9,4.9
					s2.4,2.5,4.1,2.8c0.5,0.1,0.9,0.1,1.4,0.1c3.1,0,5.7-2.1,6.3-5.1l2.5-11.4c0.4-1.7,0.1-3.5-0.9-4.9
					C226.3,429.9,224.8,428.9,223.1,428.5L223.1,428.5z"/>
				<path id="Path_11_" class="st1" d="M544.7,374c-3.3-3.6-6.7-7.4-9.9-10.7c-2.5-2.6-6.6-2.6-9.2-0.1c-2.6,2.5-2.6,6.6-0.1,9.2
					c3.1,3.2,6.4,6.9,9.6,10.4c2.4,2.7,5,5.5,7.4,8.1c1.6,1.8,4,2.5,6.3,2c2.3-0.5,4.1-2.2,4.8-4.5c0.7-2.3,0-4.7-1.6-6.4
					C549.6,379.4,547.1,376.6,544.7,374z"/>
			</g>
		</g>
	</g>
	<g id="Master_x2F_Hands_x2F_Phone_1_" transform="scale(1 1)">
		<g id="Master_x2F_Hands_x2F_Phone">
			<g id="base" transform="translate(170.000000, 85.000000)">
				<path id="Path_12_" class="st2" d="M190.8,77.3c0.1-0.7,0.6-1.3,1.3-1.5c5-1.8,10.1-3.3,15.2-4.4c0.2-0.1,0.5-0.1,0.8-0.2
					c4.2-1,5.7-1.3,7.9-1.1c3,0.2,5.6,1.5,7.8,4.2c3.1,3.8,5.1,8.9,6.2,14.6c0.6,3.4,0,8.2-1.7,10.9c-1.9,3.1-5,5.8-9.5,8.8
					c-0.8,0.5-1.6,1.1-2.6,1.7c-0.4,0.2-0.8,0.5-1.2,0.8c-0.2,0.1-1,0.6-1.2,0.7c-1.8,1.1-3.3,2.1-6.2,4.1c-0.3,0.2-0.3,0.2-0.6,0.4
					c-4.5,3.1-6.9,4.6-9.8,6.2c-4.7,2.4-9.1,5.3-13.3,8.6c-1.5,1.2-3.6-0.1-3.2-2L190.8,77.3z"/>
				<path id="Path_13_" class="st2" d="M203.7,195.8c13.1-2.3,37.7-9.8,42.4-14.7c4.6-4.7,6.3-11.2,6.2-19.9c0-2.5-0.2-4.8-0.5-8.7
					l-0.1-1.3c-0.8-8.3-2.3-16.5-4.7-24.4c-2.7-9.6-7-11.8-18.8-11.2c-12.2,0.8-24.3,2.5-36.2,5c-1,0.2-1.7,1.2-1.6,2.3l10.9,71.2
					C201.5,195.2,202.6,195.9,203.7,195.8z"/>
				<path id="Path_14_" class="st3" d="M247.1,148.2c-3,0.4-6.5,0.8-10.7,1.3c-3.1,0.4-6.3,0.7-11.1,1.2
					c-13.5,1.4-16.2,1.7-21.2,2.4c-1.1,0.1-1.9,1.1-1.7,2.2c0.1,1.1,1.1,1.9,2.2,1.7c5-0.6,7.7-0.9,21.2-2.4c4.8-0.5,8-0.9,11.1-1.2
					c4.2-0.5,7.7-0.9,10.8-1.3c1.1-0.1,1.9-1.1,1.7-2.2C249.2,148.8,248.2,148.1,247.1,148.2z"/>
				<path id="Path_15_" class="st2" d="M176.1,171.3c-7.4-9.2-14.8-15.9-22.5-19.9c-10.8-5.6-23.2-9.2-34.7-9.6
					c-13.6-0.5-25.3,3.5-33.6,12.5c-1.8,2-3.3,4.4-4.6,7.8L75,143.1c-0.4-1.4-2.1-1.9-3.2-0.9c-3.8,3.2-9.4,11-16.2,22.2
					c-4.6,7.6-9,15.3-13.5,23.4c-1.1,2.1-2.3,4.4-3.5,7c-3,6.3-6.1,14-9.5,23.2c-1.6,4.4-3.3,8.9-5.2,14.4
					c-0.8,2.3-3.8,10.8-4.5,12.8c-9.6,27.2-15.4,57-21.8,104.3c-1.3,9.3-2.3,23.1-3.1,40.2c-0.5,11.5-1,48.9-1.3,61.3
					c-0.1,4.3-0.2,8.3-0.3,12c0,1.3,0,2.4-0.1,3.4c0,0.3,0,0.5,0,0.9c0,0.3,0,0.3,0,0.3c0,1.1,0.9,2,2,2l158.9,0.2c1.1,0,2-0.9,2-2
					c0-42.6,2.3-123,6.3-141.8c3.2-15,9.1-33.5,15.7-50c3.1-7.8,6.8-16.2,11.8-27c1.5-0.2,3-0.5,4.5-0.9c7.1-1.8,9.2-2.3,12.9-3.5
					c14.2-4.6,22.7-11.1,24.2-21.7c1.2-8.6-2.7-20.2-8.8-26.1c-4.4-4.2-10.5-5.3-18.6-4.3c-2.4,0.3-4.8,0.7-8.2,1.4
					c-0.5,0.1-2.2,0.5-2.5,0.5c-0.3,0.1-0.7,0.1-0.9,0.2C185.9,184.5,181.4,177.8,176.1,171.3z"/>
				<path id="Path_16_" class="st3" d="M178.6,211.9c-12.2,1.3-19.3,11.3-15.7,22.6c0,0.1,1.3,4.5,1.8,6c1.3,4,2.7,6.7,4.6,8.4
					c5.3,4.5,10.5,5.4,17.8,3.6c1.1-0.3,1.7-1.3,1.5-2.4c-0.3-1.1-1.3-1.7-2.4-1.5c-6.1,1.5-10,0.9-14.2-2.7c-1.2-1-2.3-3.2-3.4-6.6
					c-0.5-1.4-1.7-5.7-1.8-5.9c-2.8-8.9,2.5-16.4,12.3-17.4c1.1-0.1,1.9-1.1,1.8-2.2C180.7,212.6,179.7,211.8,178.6,211.9z"/>
				<path id="Path_17_" class="st4" d="M168.7,217.8L168.7,217.8c-10.3,1.8-40.5,3.3-53.9,3c-1.4,0-2.8,0-4.7-0.1
					c-0.3,0-0.6,0-1.2,0c-13.1-0.1-18.7-0.5-24.8-2.8c-8.3-3.1-13.6-9.3-15.9-19.5c-2.5-10.9-4.2-22.7-5.8-37.6
					c-0.6-5.6-0.9-8.8-2-20.4c-0.2-2.4-0.4-4-0.5-5.7c-1.4-14.8-2.7-31.2-4.5-56.9c0.2,2.4-1.7-24.5-2.2-31.5
					c-0.7-9.7-1.3-17.7-1.9-24.9c-1.5-18.1-1.7-36.2,0.8-43.4c2.9-9.1,10.9-15.6,20.3-16.8c23.9-3.6,53.9-6.3,69.8-6
					c1.4,0,2.7,0,5.4,0.1c8.1,0.1,11.8,0.1,16.6,0.5c15,1.2,25.5,5.1,31.6,13.4c3.3,4.5,5.2,11.1,6.5,19.9c0.3,2.2,0.6,4.5,0.8,7.2
					c0.1,1,0.2,2.1,0.3,3.4c0-0.2,0.2,2.5,0.3,3.2c0.1,0.9,0.1,1.6,0.2,2.3c0,0.5,0,0.5,0.1,1.1c2,22,2.1,22.6,2.9,30.8
					c0.6,5.6,1.1,10.8,1.7,15.7c5.2,44.2,8.4,81.5,9.5,117.7c0.5,16.3-1.9,27.4-10.4,34.7c-4,3.4-10.6,6.2-19.1,8.5
					c-3.5,1-7.3,1.8-11.3,2.6c-1.5,0.3-3,0.6-4.7,0.9C171.6,217.3,169.2,217.7,168.7,217.8z"/>
				<path id="Path_18_" class="st5" d="M164.3,209.4c-11.9,1.3-23.8,1.9-35.7,1.7c-17.4-0.4-32.1,1.9-36.8-19
					c-4.2-18.6-5.8-42.7-7.6-61.8c-2.9-31-5.3-74-7.8-105.2C75.7,16.9,73.7-12,77-19.5s11.2-9.9,17-11c13.8-2.7,30.6-4.7,46.3-4.4
					c14.3,0.3,37.8-1.2,47.3,12c5.6,7.7,6.1,26.6,7,35.8c1.4,14.2,2.6,28.9,4.3,43.3c4.2,35.5,7.5,76,8.7,112
					c0.3,10-0.3,22.9-8.8,30.2C190.8,205.2,171.2,208.6,164.3,209.4z"/>
				<path id="Path_19_" class="st6" d="M69.3-32.7C64.4-29.4,62.8-21,63-7.9c0.1,3.3,0.2,6.6,0.5,11.2c0,0.7,0.2,3.4,0.3,4
					c0.1,1.4,0.2,2.5,0.2,3.4c0.4,8.5,1,18.5,1.9,32.1c0.1,1.9,0.3,3.9,0.4,6.2c0.1,1.5,0.7,10.5,0.9,13c0.3,4.9,0.6,8.7,0.8,12.1
					c2.1,32.7,5.2,67.6,9.3,106.3c1.1,10.7,3.5,20.7,7.1,27.7c0.5,1,1.7,1.4,2.7,0.9s1.4-1.7,0.9-2.7c-3.3-6.5-5.6-16.1-6.7-26.3
					C77.2,141.6,74,106.8,72,74.1c-0.2-3.5-0.5-7.3-0.8-12.2c-0.2-2.5-0.8-11.5-0.9-13c-0.2-2.3-0.3-4.3-0.4-6.2
					c-0.9-13.6-1.5-23.5-1.9-32c0-1-0.1-2-0.2-3.5c0-0.7-0.2-3.4-0.3-4C67.3-1.4,67.1-4.7,67-7.9c-0.2-11.7,1.2-19.2,4.5-21.4
					c0.9-0.6,1.2-1.9,0.6-2.8C71.4-33,70.2-33.3,69.3-32.7z"/>
				<path id="Path_20_" class="st2" d="M43.7,251.4c-1.5,0-2.4-1.7-1.7-3c2.6-4.5,5.5-9.3,9.2-15c1.5-2.3,3.1-4.7,5.1-7.9
					c0.7-1,3.1-4.7,2.9-4.4c1.2-1.8,2-3.1,2.9-4.4c2.1-3.3,3.9-6,5.5-8.6c12.5-20,25.6-35.9,39.7-46.9c8.1-6.3,17.6-4.7,23.7,3.9
					c3.2,4.5,3.3,9.5,1.2,15.6c-0.8,2.4-1.8,4.6-3.6,8.1c-2.3,4.6-2.3,4.6-3,6.1c-2.4,5.5-4,14.9-4.3,23.7
					c-0.1,3.8,0.3,8.1,1.3,12.9c0.7,3.8,1.7,7.7,3.1,12.6c0.3,1,0.6,2.1,1,3.4c0.1,0.3,0.8,2.6,0.9,3.2c0.4,1.3-0.6,2.6-2,2.6
					L43.7,251.4z"/>
				<path id="Path_21_" class="st6" d="M60.7,36.4c-0.4-5.6-0.7-11.2-0.9-16.6c0-1.1-1-2-2.1-1.9c-1.1,0-2,1-1.9,2.1
					c0.2,5.5,0.5,11.1,0.9,16.7c0.1,1.1,1,1.9,2.1,1.9C59.9,38.5,60.8,37.5,60.7,36.4z"/>
				<path id="Path_22_" class="st6" d="M62.7,63.9c-0.5-5.4-0.9-11-1.2-17.1c-0.1-1.1-1-2-2.1-1.9c-1.1,0.1-2,1-1.9,2.1
					c0.3,6.1,0.7,11.9,1.2,17.3c0.1,1.1,1.1,1.9,2.2,1.8C62,66,62.8,65,62.7,63.9z"/>
				<path id="Path_23_" class="st3" d="M120.8,222.8c0.7,6.9,2.3,12.2,5.5,20c0.2,0.4,0.4,0.9,0.6,1.4c0.1,0.4,0.1,0.4,0.3,0.7
					c0.1,0.4,0.2,0.5,0.3,0.7c0.5,1.1,0.8,1.9,1.1,2.8c0.4,1,1.6,1.5,2.6,1.1c1-0.4,1.5-1.6,1.1-2.6c-0.3-0.8-0.7-1.7-1.2-2.8
					c-0.1-0.2-0.1-0.4-0.3-0.7c-0.1-0.4-0.1-0.4-0.3-0.7c-0.2-0.6-0.4-1-0.6-1.4c-3.1-7.4-4.6-12.5-5.2-18.9
					c-0.1-1.1-1.1-1.9-2.2-1.8C121.5,220.7,120.7,221.7,120.8,222.8z"/>
				<path id="Path_24_" class="st3" d="M43.8,245.4c2.5-4.4,5.4-9.2,9-14.8c1.5-2.3,3.1-4.7,5.1-7.9c0.7-1,3.1-4.7,2.9-4.4
					c1.2-1.8,2-3.1,2.9-4.4c2.2-3.3,3.9-6.1,5.6-8.7c0.6-0.9,0.3-2.2-0.6-2.8c-0.9-0.6-2.2-0.3-2.8,0.6c-1.6,2.6-3.4,5.3-5.5,8.6
					c-0.8,1.3-1.7,2.6-2.9,4.4c0.2-0.3-2.2,3.4-2.9,4.4c-2.1,3.2-3.6,5.6-5.2,7.9c-3.6,5.7-6.6,10.4-9.1,14.9
					c-0.5,1-0.2,2.2,0.7,2.7C42,246.7,43.3,246.4,43.8,245.4z"/>
				<path id="Path_25_" class="st3" d="M126.9,303.9c2,0.5,4.1,1.1,6,1.9c1,0.4,2.2-0.1,2.6-1.1c0.4-1-0.1-2.2-1.1-2.6
					c-2.1-0.9-4.4-1.6-6.6-2.1c-1.1-0.2-2.1,0.4-2.4,1.5C125.1,302.5,125.8,303.6,126.9,303.9z"/>
			</g>
			<g id="Phone_x2F_Wear" transform="scale(1 1)">
				<g id="Phone_x2F_Wear_x2F_Hoodie_1">
					<g id="clothing" transform="translate(95.000000, 448.000000)">
						<path id="Path_26_" class="st7" d="M309.7,68.9c-3.8-7.6-11.3-12.7-19.7-13.5c-4.2-0.4-8.3,0.6-11.9,2.8
							c1.9-10.7-2-23-9.6-27.6c-7.9-4.7-16.8-8.4-28.6-4.1c0-5.1-0.1-15.6,0-20.7c0.1-5.1,0.1-10,0.1-14.9c0-5.9,0-12,0.2-18.1
							c0-0.7-0.3-1.4-0.9-1.7c-0.6-0.4-1.4-0.5-2-0.1c-20.8,9.8-50.6,13.1-79.6,8.8c-11.1-1.7-22.2-4.7-33.1-7.6
							c-5.8-1.5-11.7-3.2-17.7-4.6c-9.1-2.2-19-5.8-31.2-11.5c-0.5-0.3-1.2-0.3-1.7,0c-0.5,0.3-0.9,0.7-1.1,1.3
							c-1.6,6.5-6,25.8-6.9,32.7c-0.1,1-0.3,2.7-0.6,4.7C64.1,4.9,62.8,14.9,62.2,23c-9.1-1.2-18.4,2.1-26.3,9.5
							c-6,5.7-10.4,13.1-11.6,19.3c-2.5-2.3-5.6-3.8-9-4.1c-4.2-0.3-8.4,1.5-12.4,5.4c-8.8,8.6-12.2,26.6-7.3,38.4
							c3,7.3,8.8,15.4,16.2,15.4h273c13.9,0,20.6-10.1,23.8-15.2C312.8,84.9,313.2,76.3,309.7,68.9z"/>
						<path id="Combined-Shape" d="M137.3-2.6c0.2-1.1,1.3-1.8,2.4-1.5c1.1,0.2,1.8,1.3,1.5,2.4c-1.6,7.5-2.9,16.7-3.9,28.2
							c-0.4,4.3-0.7,8.9-1.1,14.2c-0.2,2.5-0.7,10-0.8,12.5c15.7,1.8,30.6,2,44.6,0.3c0-6.4,0.4-11.7,1.5-23.7
							c0.2-1.6,0.2-2.4,0.3-3.3c0.6-6.7,1-11.2,1.1-15.7c0-1.1,1-2,2.1-1.9s2,1,1.9,2.1c-0.1,4.6-0.5,9.2-1.1,16
							c-0.1,0.9-0.2,1.7-0.3,3.3C184.4,41.7,184,46.9,184,53c2.9-0.4,5.8-0.9,8.7-1.5c2.1-8.4,2.9-17,2.4-25.6
							c-0.1-1.1,0.8-2,1.9-2.1c1.1-0.1,2,0.8,2.1,1.9c0.5,8.4-0.2,16.7-2.1,24.9c4.4-1,8.6-2.3,12.8-3.7c9.3-3.1,18.3-7.1,26.8-12.1
							c0.1-2.6,0.3-5.2,0.7-7.8c0.2-1.1,1.2-1.8,2.3-1.7c1.1,0.2,1.8,1.2,1.7,2.3c-0.4,2.8-0.7,5.6-0.7,8.4c0,0.7-0.4,1.3-1,1.7
							c-9,5.4-18.6,9.7-28.5,13c-5.1,1.8-10.3,3.2-15.7,4.4c-0.4,0.3-0.9,0.4-1.5,0.3c-21.5,4.5-45,4.4-70.5,0.3
							c-13.6-2.2-26.5-6.2-45.7-13.5c-0.6-0.2-1.2-0.5-2-0.7c-0.2-0.1-1.6-0.6-2-0.7c-4.7-1.7-7.2-2.9-9.3-4.9
							c-2.7-2.6-3.9-6.1-3.3-10.7c0.1-1.1,1.1-1.9,2.2-1.7s1.9,1.1,1.7,2.2c-0.8,6.1,1.5,8.3,9.9,11.3c0.4,0.1,1.7,0.6,2,0.7
							c0.8,0.3,1.4,0.5,2.1,0.8c5.2,2,10,3.7,14.4,5.3c0.8-11.5,3.2-26.7,6.9-46.1c0.2-1.1,1.3-1.8,2.3-1.6c1.1,0.2,1.8,1.3,1.6,2.3
							c-3.8,19.8-6.3,35.2-6.9,46.7c9.2,3,17,5.1,25,6.5c0.4-12.4,2-27.3,4.1-35.2c0.3-1.1,1.4-1.7,2.4-1.4c1.1,0.3,1.7,1.4,1.4,2.4
							c-2.1,7.7-3.6,22.7-4,34.9l0-0.1c1.7,0.3,3.3,0.5,5,0.7c0.2-2.6,0.6-9.8,0.8-12.3c0.4-5.4,0.7-10,1.1-14.3
							C134.4,14.5,135.6,5.1,137.3-2.6z M221.2-22.9c1.1,0,2,1,1.9,2.1c-0.1,3.7-0.1,6.6,0.1,13.2c0.1,4.6,0.1,6.6,0.1,9.2
							c0,4.2-0.2,7.9-0.5,11.4c-0.8,8-1.2,14.8-1.2,19.3c0,1.1-0.9,2-2,2c-1.1,0-2-0.9-2-2c-0.1-4.7,0.4-11.6,1.2-19.7
							c0.3-3.4,0.5-6.9,0.5-11c0-2.5,0-4.5-0.1-9.1c-0.1-6.7-0.2-9.7-0.1-13.4C219.2-22.1,220.1-23,221.2-22.9z M82.5-38.3
							c0.2-1.1,1.3-1.8,2.4-1.6c1.1,0.2,1.8,1.3,1.6,2.4c-5.2,25.6-8.7,47-9,60.5c0,1.1-0.9,2-2,2c-1.1,0-2-0.9-2-2
							C73.8,9.1,77.3-12.5,82.5-38.3z M159.3-17.1c0.2-1.1,1.2-1.8,2.3-1.6c1.1,0.2,1.8,1.2,1.6,2.3c-1,5.3-1.7,10.8-2.4,18.2
							c-0.2,2-0.3,3.3-0.6,7.3c-0.6,6.5-0.9,9.6-1.3,13.3c-0.1,1.1-1.1,1.9-2.2,1.8c-1.1-0.1-1.9-1.1-1.8-2.2
							c0.4-3.6,0.7-6.7,1.3-13.2c0.3-4,0.5-5.3,0.6-7.3C157.6-6,158.3-11.7,159.3-17.1z M91.9-34.9c0.2-1.1,1.3-1.8,2.4-1.5
							c1.1,0.2,1.8,1.3,1.5,2.4c-3.2,14.8-6.1,32.8-8.5,50.9c-0.1,1.1-1.1,1.9-2.2,1.7c-1.1-0.1-1.9-1.1-1.7-2.2
							C85.7-1.9,88.7-20,91.9-34.9z M229.2-24.2c1.1-0.1,2.1,0.7,2.2,1.8c0.5,5.6,0.5,11.5,0.3,20.3c0,1.3-0.1,2.3-0.1,4.5
							c-0.2,6.3-0.2,8.9-0.2,12.2c0,1.1-0.9,2-2,2s-2-0.9-2-2c0-3.3,0.1-5.9,0.2-12.3c0.1-2.2,0.1-3.2,0.1-4.5
							c0.2-8.6,0.1-14.4-0.3-19.8C227.3-23.2,228.1-24.1,229.2-24.2z"/>
					</g>
				</g>
			</g>
			<g id="Phone_x2F_Item" transform="scale(1 1)">
				<g id="Phone_x2F_Item_x2F_Alarm">
					<g id="items" transform="translate(264.000000, 162.000000)">
						<path id="Path_27_" class="st8" d="M31.2,41.4c0,0.1-0.1,0.3-0.3,0.6c-0.2,0.5-0.4,1-0.7,1.5c-0.7,1.6-1.4,3.1-2.1,4.5
							L28,48.3c-1.5,3.1-2.5,5.3-2.9,6c-0.6,1-0.2,2.2,0.7,2.7c1,0.6,2.2,0.2,2.7-0.7c0.5-0.8,1.5-3,3.1-6.3l0.1-0.3
							c0.7-1.5,1.4-3,2.1-4.6c0.3-0.5,0.5-1.1,0.7-1.5c0.1-0.3,0.2-0.5,0.3-0.6c0.5-1,0-2.2-1-2.7C32.9,40,31.7,40.4,31.2,41.4z"/>
						<path id="Path_28_" class="st8" d="M67.9,40.9c2.7,3.5,5.1,7.1,7.4,10.9c0.6,1,1.8,1.3,2.7,0.7c1-0.6,1.3-1.8,0.7-2.7
							c-2.3-3.9-4.9-7.7-7.6-11.3c-0.7-0.9-1.9-1-2.8-0.4S67.2,40.1,67.9,40.9z"/>
						<path id="Path_29_" class="st8" d="M12-14.9c1.6,1.3,3.2,2.8,5.6,5.1c0.3,0.3,0.6,0.6,1.2,1.1c3.4,3.3,4.9,4.7,6.7,6.3
							c0.8,0.7,2.1,0.6,2.8-0.2s0.6-2.1-0.2-2.8c-1.8-1.5-3.2-2.8-6.5-6.1c-0.5-0.5-0.8-0.8-1.2-1.1c-2.4-2.4-4.1-3.9-5.8-5.3
							c-0.8-0.7-2.1-0.6-2.8,0.3C11-16.9,11.1-15.6,12-14.9z"/>
						<path id="Path_30_" class="st8" d="M67.1-6.5c0,0,0,0,0.1-0.3c0.1-0.2,0.2-0.5,0.3-0.7c0.4-0.8,0.7-1.7,1.2-2.6
							c1.2-2.7,2.5-5.4,3.7-8c0.3-0.7,0.7-1.4,1-2c1.9-3.9,3.5-6.8,4.6-8.2c0.7-0.9,0.5-2.1-0.4-2.8c-0.9-0.7-2.1-0.5-2.8,0.4
							c-1.2,1.6-2.9,4.7-4.9,8.8c-0.3,0.7-0.7,1.4-1,2.1c-1.2,2.6-2.5,5.3-3.8,8.1c-0.4,1-0.8,1.9-1.2,2.7c-0.1,0.3-0.2,0.5-0.3,0.7
							c-0.1,0.2-0.1,0.2-0.1,0.3c-0.4,1,0,2.2,1,2.6S66.7-5.5,67.1-6.5z"/>
						<path id="Path_31_" class="st5" d="M40-17.1C32.1-15,25.5-9.6,21.6-2.4c-3.8,6.9-4.9,12.6-4.3,20.3c0.6,7.4,3.3,14.6,9.4,19.5
							c12.7,10.2,31.7,10.2,45.1,0.1C84,28.3,85.6,8.9,78.9-3.9C74.2-13,65.1-18.2,55-18.6c-4.6-0.4-9.3,0-13.8,1.1
							C40.8-17.3,40.4-17.2,40-17.1z"/>
						<path id="Path_32_" class="st8" d="M19.9-3.3c-3.9,7-5.1,13.1-4.5,21.4C16,26.7,19.3,34,25.5,39C38.8,49.8,58.9,49.8,73,39.1
							c12.4-9.4,15.2-29.4,7.7-44c-5-9.5-14.5-15.3-25.6-15.7c-4.8-0.4-9.6,0-14.4,1.2c-0.5,0.1-0.9,0.2-1.3,0.4
							C31.1-16.7,24-11,19.9-3.3z M40.6-15.2c0.3-0.1,0.7-0.2,1.1-0.3c4.3-1,8.7-1.4,13.2-1.1c9.7,0.4,18,5.4,22.3,13.6
							c6.7,12.9,4.1,30.8-6.6,38.9c-12.7,9.6-30.7,9.6-42.6,0c-5.2-4.2-8-10.5-8.6-18.1c-0.6-7.6,0.5-12.9,4-19.2
							C27-8.2,33.2-13.2,40.6-15.2L40.6-15.2z"/>
						<path id="Path_33_" class="st8" d="M41.9,6.1c-0.5-1-1.8-1.3-2.7-0.8c-1,0.5-1.3,1.8-0.8,2.7c2.5,4.4,5.3,8.6,8.5,12.5
							c1,1.2,2.8,0.9,3.4-0.5c2.4-5.8,4.4-11.8,6.1-17.9c0.2-0.7,0.4-1.5,0.7-2.4c0.1-0.2,0.1-0.2,0.1-0.4c0.4-1.6,0.9-3.2,1.4-4.8
							C58.8-6,58.9-6.6,59.1-7c0.1-0.3,0.1-0.5,0.2-0.6c0.3-1.1-0.3-2.2-1.4-2.5c-1.1-0.3-2.2,0.3-2.5,1.4c0,0.1-0.1,0.3-0.2,0.6
							c-0.1,0.5-0.3,1-0.5,1.6c-0.5,1.6-1,3.3-1.4,4.9c-0.1,0.2-0.1,0.2-0.1,0.4c-0.3,0.9-0.5,1.7-0.7,2.5
							c-1.3,4.8-2.9,9.6-4.6,14.2C45.7,12.4,43.7,9.3,41.9,6.1z"/>
						<path id="Path_34_" class="st9" d="M3.4,12.8c-1.9,4.8-2,11.2-0.3,17.7c1.3,5.1,4.2,9.6,8.4,13c0.9,0.7,2.1,0.6,2.8-0.3
							s0.6-2.1-0.3-2.8c-3.4-2.8-5.9-6.6-7-10.8c-1.6-5.8-1.5-11.3,0.1-15.2c0.4-1-0.1-2.2-1.1-2.6S3.8,11.8,3.4,12.8z"/>
						<path id="Path_35_" class="st9" d="M-7.3,25.7c0.1,7.7,2.5,14.6,7.2,19.4c0.8,0.8,2,0.8,2.8,0c0.8-0.8,0.8-2,0-2.8
							c-3.9-4-6-9.9-6.1-16.6c0-1.1-0.9-2-2-2C-6.4,23.6-7.3,24.6-7.3,25.7z"/>
						<path id="Path_36_" class="st9" d="M90.5,4.2c2,3.6,2.5,9.7,1.8,16.3c-0.5,5-3.2,12-6,15.3c-0.7,0.9-0.6,2.1,0.3,2.8
							s2.1,0.6,2.8-0.3c3.3-4,6.3-11.7,6.9-17.5c0.8-7.4,0.2-14.2-2.3-18.7c-0.5-1-1.8-1.3-2.7-0.8S89.9,3.2,90.5,4.2z"/>
						<path id="Path_37_" class="st9" d="M100.8,15.2c1,4.8,0.1,10.6-2.1,15.4c-0.5,1,0,2.2,1,2.7c1,0.5,2.2,0,2.7-1
							c2.6-5.5,3.7-12.1,2.4-17.9c-0.2-1.1-1.3-1.8-2.4-1.5S100.6,14.2,100.8,15.2z"/>
						<path id="Path_38_" class="st9" d="M31.6-26.5c0.5,0.8,0.5,1.8-0.2,2.5c-2,2.2-4.3,4.7-5.7,6.1c-0.2,0.2-0.4,0.4-0.8,0.8
							c-2.6,2.7-3.8,3.9-5.3,5.4C15-7.2,10.8-2.2,7.2,3.2C6.4,4.3,4.8,4.4,4,3.3C3.8,3.1,3.7,3,3.6,2.8c-0.7-0.9-3.4-4.2-4.1-5
							c-3.6-4.6-5.1-8.5-4.6-14c0.6-4.9,2.9-9.5,6.4-13.1c3.5-3.4,9.1-5.9,13.5-5.7c3.3,0.2,6.5,0.9,9.5,2.2l0.1,0
							C27.3-31.3,29.8-29.2,31.6-26.5z"/>
						<path id="Path_39_" class="st9" d="M55.1-27.1c0.1,0.1,0.4,0.2,0.8,0.4c0.6,0.3,1.3,0.6,2.1,0.9c2.1,1,4.3,1.9,6.3,2.8
							l0.2,0.1c2.6,1.2,4.7,2.2,6.3,2.9c0.5,0.2,2.1,1,2,0.9c0.8,0.4,1.3,0.6,1.9,0.9c1.4,0.6,2.5,1.2,3.6,1.7
							c0.6,0.3,1.2,0.6,1.8,0.9c2.5,1.2,4.9,2.4,7.4,3.8c0.9,0.5,2,0.2,2.6-0.6c5.9-8.3,7.3-18.7,1.7-25.3
							c-3.5-3.8-8.1-6.2-13.1-6.9c-7.2-1-12.3,0.2-17.5,4.3c-2,1.5-3.6,3.8-5.3,7.1c-0.3,0.5-0.6,1.1-0.9,1.8
							c-0.1,0.2-0.7,1.4-0.8,1.7C53.6-28.7,54.1-27.5,55.1-27.1z"/>
					</g>
				</g>
			</g>
			<g id="Phone_x2F_Effect" transform="scale(1 1)">
				<g id="Phone_x2F_Effect_x2F_Pop">
					<g id="addons" transform="translate(371.000000, 45.000000)">
						<path id="Path_40_" class="st10" d="M-2.1-18.7l10.3-22c0.6-1.3,0-2.7-1.2-3.3c-1.3-0.6-2.7,0-3.3,1.2l-10.3,22
							c-0.6,1.3,0,2.7,1.2,3.3S-2.7-17.4-2.1-18.7z"/>
						<path id="Path_41_" class="st10" d="M38.6-29.2l-22,15.7c-1.1,0.8-1.4,2.4-0.6,3.5s2.4,1.4,3.5,0.6l22-15.8
							c1.1-0.8,1.4-2.4,0.6-3.5C41.2-29.8,39.7-30,38.6-29.2z"/>
						<path id="Path_42_" class="st10" d="M26.2,16.7l20-0.4c1.4,0,2.5-1.2,2.5-2.5s-1.2-2.5-2.5-2.5l-20,0.4
							c-1.4,0-2.5,1.2-2.5,2.5S24.8,16.7,26.2,16.7z"/>
					</g>
				</g>
			</g>
		</g>
	</g>
</g>
</svg>
