<svg width="23" height="26" viewBox="0 0 23 26" fill="none" xmlns="http://www.w3.org/2000/svg">
<path d="M20.5357 11.375H19.3036V7.71875C19.3036 3.46328 15.8022 0 11.5 0C7.19777 0 3.69643 3.46328 3.69643 7.71875V11.375H2.46429C1.10379 11.375 0 12.4668 0 13.8125V23.5625C0 24.9082 1.10379 26 2.46429 26H20.5357C21.8962 26 23 24.9082 23 23.5625V13.8125C23 12.4668 21.8962 11.375 20.5357 11.375ZM15.1964 11.375H7.80357V7.71875C7.80357 5.70273 9.46183 4.0625 11.5 4.0625C13.5382 4.0625 15.1964 5.70273 15.1964 7.71875V11.375Z" fill="black"/>
</svg>
