<svg width="51" height="50" viewBox="0 0 51 50" fill="none" xmlns="http://www.w3.org/2000/svg">
<path d="M48.9326 38.2152H47.2514V14.0689C47.2514 12.5393 46.0068 11.2947 44.4771 11.2947H39.5622C39.1308 11.2947 38.781 11.6445 38.781 12.076C38.781 12.5074 39.1308 12.8572 39.5622 12.8572H44.4771C45.1453 12.8572 45.6889 13.4008 45.6889 14.0689V38.2152H5.30137V14.0689C5.30137 13.4008 5.84482 12.8572 6.51299 12.8572H19.3638C19.7952 12.8572 20.145 12.5074 20.145 12.076C20.145 11.6445 19.7952 11.2947 19.3638 11.2947H6.51299C4.9833 11.2947 3.73887 12.5393 3.73887 14.0689V38.2152H2.05762C1.62617 38.2152 1.27637 38.565 1.27637 38.9965V43.3724C1.27637 43.7521 1.54951 44.0769 1.92363 44.142L12.3271 45.953C12.3714 45.9607 12.4162 45.9646 12.4611 45.9646H38.529C38.5739 45.9646 38.6187 45.9607 38.663 45.953L49.0666 44.142C49.4407 44.0769 49.7139 43.7521 49.7139 43.3724V38.9965C49.7139 38.565 49.3641 38.2152 48.9326 38.2152ZM19.2847 39.7777H31.7055V41.1734H19.2847V39.7777ZM48.1514 42.7153L38.4614 44.4021H12.5287L2.83887 42.7153V39.7777H17.7222V41.9547C17.7222 42.3861 18.072 42.7359 18.5034 42.7359H32.4867C32.9182 42.7359 33.268 42.3861 33.268 41.9547V39.7777H48.1514V42.7153ZM25.1501 21.3479L27.3494 29.5558C27.4611 29.9726 27.2137 30.4009 26.797 30.5126C26.7293 30.5308 26.6612 30.5394 26.5943 30.5394C26.2494 30.5394 25.9337 30.3092 25.8401 29.9601L23.6408 21.7522C23.5291 21.3354 23.7766 20.9071 24.1933 20.7954C24.6101 20.6839 25.0384 20.9311 25.1501 21.3479ZM28.244 28.0764L31.1187 25.654L28.244 23.2316C27.9141 22.9536 27.872 22.4607 28.1501 22.1308C28.4281 21.8009 28.9211 21.7587 29.2509 22.0368L32.8344 25.0565C33.0105 25.205 33.1122 25.4236 33.1122 25.654C33.1122 25.8844 33.0105 26.103 32.8344 26.2515L29.2509 29.2712C29.1043 29.3947 28.9256 29.455 28.7479 29.455C28.5255 29.455 28.3046 29.3605 28.1501 29.1771C27.8721 28.8473 27.9142 28.3544 28.244 28.0764ZM22.7462 23.2317L19.8716 25.6541L22.7462 28.0765C23.0762 28.3545 23.1183 28.8474 22.8401 29.1773C22.6856 29.3606 22.4647 29.4552 22.2424 29.4552C22.0646 29.4552 21.8859 29.3948 21.7394 29.2714L18.1559 26.2517C17.9797 26.1032 17.878 25.8846 17.878 25.6542C17.878 25.4238 17.9797 25.2052 18.1559 25.0567L21.7394 22.037C22.0692 21.7589 22.5621 21.8011 22.8401 22.131C23.1182 22.4608 23.0761 22.9537 22.7462 23.2317ZM34.6363 12.6648C34.6363 12.2334 34.9861 11.8836 35.4176 11.8836H37.2184C37.6498 11.8836 37.9996 12.2334 37.9996 12.6648C37.9996 13.0963 37.6498 13.4461 37.2184 13.4461H35.4176C34.9861 13.4461 34.6363 13.0963 34.6363 12.6648ZM32.7751 10.8035V9.00264C32.7751 8.57119 33.1249 8.22139 33.5563 8.22139C33.9878 8.22139 34.3376 8.57119 34.3376 9.00264V10.8035C34.3376 11.235 33.9878 11.5848 33.5563 11.5848C33.1249 11.5848 32.7751 11.2351 32.7751 10.8035ZM32.7751 16.3269V14.526C32.7751 14.0945 33.1249 13.7447 33.5563 13.7447C33.9878 13.7447 34.3376 14.0945 34.3376 14.526V16.3269C34.3376 16.7583 33.9878 17.1081 33.5563 17.1081C33.1249 17.1081 32.7751 16.7584 32.7751 16.3269ZM29.113 12.6648C29.113 12.2334 29.4628 11.8836 29.8942 11.8836H31.695C32.1265 11.8836 32.4763 12.2334 32.4763 12.6648C32.4763 13.0963 32.1265 13.4461 31.695 13.4461H29.8942C29.4628 13.4461 29.113 13.0963 29.113 12.6648ZM12.345 17.6758H14.1459C14.5773 17.6758 14.9271 18.0256 14.9271 18.457C14.9271 18.8885 14.5773 19.2383 14.1459 19.2383H12.345C11.9136 19.2383 11.5638 18.8885 11.5638 18.457C11.5638 18.0256 11.9136 17.6758 12.345 17.6758ZM15.2259 16.5958V14.8791C15.2259 14.4477 15.5757 14.0979 16.0071 14.0979C16.4386 14.0979 16.7884 14.4477 16.7884 14.8791V16.5958C16.7884 17.0272 16.4386 17.3771 16.0071 17.3771C15.5757 17.3771 15.2259 17.0272 15.2259 16.5958ZM15.2259 20.3183C15.2259 19.8868 15.5757 19.537 16.0071 19.537C16.4386 19.537 16.7884 19.8868 16.7884 20.3183V22.1191C16.7884 22.5506 16.4386 22.9004 16.0071 22.9004C15.5757 22.9004 15.2259 22.5506 15.2259 22.1191V20.3183ZM17.8684 17.6758H19.6691C20.1006 17.6758 20.4504 18.0256 20.4504 18.457C20.4504 18.8885 20.1006 19.2383 19.6691 19.2383H17.8684C17.4369 19.2383 17.0871 18.8885 17.0871 18.457C17.0871 18.0256 17.4369 17.6758 17.8684 17.6758ZM21.4824 12.076V10.3397C21.4824 9.9083 21.8322 9.5585 22.2637 9.5585C22.6951 9.5585 23.0449 9.9083 23.0449 10.3397V12.076C23.0449 12.5074 22.6951 12.8572 22.2637 12.8572C21.8322 12.8572 21.4824 12.5075 21.4824 12.076ZM21.4824 6.61729V4.81641C21.4824 4.38496 21.8322 4.03516 22.2637 4.03516C22.6951 4.03516 23.0449 4.38496 23.0449 4.81641V6.61729C23.0449 7.04873 22.6951 7.39854 22.2637 7.39854C21.8322 7.39854 21.4824 7.04873 21.4824 6.61729ZM17.8203 8.47861C17.8203 8.04717 18.1701 7.69736 18.6016 7.69736H20.4023C20.8338 7.69736 21.1836 8.04717 21.1836 8.47861C21.1836 8.91006 20.8338 9.25986 20.4023 9.25986H18.6016C18.1701 9.25986 17.8203 8.91006 17.8203 8.47861ZM23.3438 8.47861C23.3438 8.04717 23.6936 7.69736 24.125 7.69736H25.9258C26.3572 7.69736 26.707 8.04717 26.707 8.47861C26.707 8.91006 26.3572 9.25986 25.9258 9.25986H24.125C23.6936 9.25986 23.3438 8.91006 23.3438 8.47861ZM14.0336 14.8791C14.0336 15.3105 13.6838 15.6604 13.2523 15.6604H8.89814C8.37705 15.6604 7.93682 15.9939 7.93682 16.3888V35.5116H43.0533V16.3888C43.0533 15.9939 42.6131 15.6604 42.0921 15.6604H36.1761C35.7446 15.6604 35.3948 15.3105 35.3948 14.8791C35.3948 14.4477 35.7446 14.0979 36.1761 14.0979H42.0921C43.4837 14.0979 44.6158 15.1256 44.6158 16.3888V36.2929C44.6158 36.7243 44.266 37.0741 43.8346 37.0741H7.15557C6.72412 37.0741 6.37432 36.7243 6.37432 36.2929V16.3888C6.37432 15.1255 7.50654 14.0979 8.89814 14.0979H13.2523C13.6838 14.0979 14.0336 14.4476 14.0336 14.8791ZM31.4943 14.8791C31.4943 15.3105 31.1445 15.6604 30.7131 15.6604H18.9677C18.5362 15.6604 18.1864 15.3105 18.1864 14.8791C18.1864 14.4477 18.5362 14.0979 18.9677 14.0979H30.713C31.1445 14.0979 31.4943 14.4476 31.4943 14.8791Z" fill="#0480E0"/>
</svg>
