<svg width="51" height="50" viewBox="0 0 51 50" fill="none" xmlns="http://www.w3.org/2000/svg">
<path d="M39.3251 6.11426C39.3251 5.5749 38.8879 5.1377 38.3485 5.1377H38.343C37.8036 5.1377 37.3691 5.5749 37.3691 6.11426C37.3691 6.65361 37.8091 7.09082 38.3484 7.09082C38.8878 7.09082 39.3251 6.65361 39.3251 6.11426Z" fill="#0480E0"/>
<path d="M44.5932 6.11426C44.5932 5.5749 44.156 5.1377 43.6166 5.1377H43.611C43.0717 5.1377 42.6372 5.5749 42.6372 6.11426C42.6372 6.65361 43.0771 7.09082 43.6165 7.09082C44.1559 7.09082 44.5932 6.65361 44.5932 6.11426Z" fill="#0480E0"/>
<path d="M34.0605 6.11426C34.0605 5.5749 33.6232 5.1377 33.0839 5.1377H33.0783C32.539 5.1377 32.1045 5.5749 32.1045 6.11426C32.1045 6.65361 32.5444 7.09082 33.0838 7.09082C33.6231 7.09082 34.0605 6.65361 34.0605 6.11426Z" fill="#0480E0"/>
<path d="M6.39746 6.11426C6.39746 6.65361 6.83467 7.09082 7.37402 7.09082H22.0338C22.5731 7.09082 23.0104 6.65361 23.0104 6.11426C23.0104 5.5749 22.5731 5.1377 22.0338 5.1377H7.37402C6.83477 5.1377 6.39746 5.5749 6.39746 6.11426Z" fill="#0480E0"/>
<path d="M47.3422 0H16.8103C16.2709 0 15.8337 0.437207 15.8337 0.976562C15.8337 1.51592 16.2709 1.95312 16.8103 1.95312H47.3422C47.9928 1.95312 48.522 2.48115 48.522 3.13018V10.2754H2.46826V3.13018C2.46826 2.48115 2.99629 1.95312 3.64531 1.95312H8.04102C8.58037 1.95312 9.01758 1.51592 9.01758 0.976562C9.01758 0.437207 8.58037 0 8.04102 0H3.64531C1.91934 0 0.515137 1.4042 0.515137 3.13018V46.867C0.515137 48.5945 1.91934 50 3.64531 50H47.3422C49.0696 50 50.4751 48.5945 50.4751 46.867V3.13018C50.4751 1.4042 49.0696 0 47.3422 0ZM47.3422 48.0469H3.64531C2.99629 48.0469 2.46826 47.5176 2.46826 46.867V12.2285H48.522V46.867C48.522 47.5176 47.9927 48.0469 47.3422 48.0469Z" fill="#0480E0"/>
<path d="M9.64082 37.3647C7.39746 37.3647 5.57227 39.1898 5.57227 41.4333C5.57227 43.6752 7.39736 45.4991 9.64082 45.4991C11.8827 45.4991 13.7065 43.6752 13.7065 41.4333C13.7065 39.1899 11.8827 37.3647 9.64082 37.3647ZM9.64082 43.5461C8.47441 43.5461 7.52539 42.5983 7.52539 41.4334C7.52539 40.267 8.47432 39.318 9.64082 39.318C10.8057 39.318 11.7534 40.267 11.7534 41.4334C11.7534 42.5983 10.8058 43.5461 9.64082 43.5461Z" fill="#0480E0"/>
<path d="M20.2093 37.3647C17.9674 37.3647 16.1436 39.1898 16.1436 41.4333C16.1436 43.6752 17.9675 45.4991 20.2093 45.4991C22.4511 45.4991 24.275 43.6752 24.275 41.4333C24.275 39.1899 22.4512 37.3647 20.2093 37.3647ZM20.2093 43.5461C19.0443 43.5461 18.0967 42.5983 18.0967 41.4334C18.0967 40.267 19.0444 39.318 20.2093 39.318C21.3741 39.318 22.3219 40.267 22.3219 41.4334C22.3219 42.5983 21.3742 43.5461 20.2093 43.5461Z" fill="#0480E0"/>
<path d="M30.7781 37.3647C28.5362 37.3647 26.7124 39.1898 26.7124 41.4333C26.7124 43.6752 28.5363 45.4991 30.7781 45.4991C33.0215 45.4991 34.8467 43.6752 34.8467 41.4333C34.8466 39.1899 33.0215 37.3647 30.7781 37.3647ZM30.7781 43.5461C29.6132 43.5461 28.6655 42.5983 28.6655 41.4334C28.6655 40.267 29.6133 39.318 30.7781 39.318C31.9445 39.318 32.8936 40.267 32.8936 41.4334C32.8935 42.5983 31.9445 43.5461 30.7781 43.5461Z" fill="#0480E0"/>
<path d="M41.3493 37.3647C39.106 37.3647 37.2808 39.1898 37.2808 41.4333C37.2808 43.6752 39.1059 45.4991 41.3493 45.4991C43.5912 45.4991 45.415 43.6752 45.415 41.4333C45.415 39.1899 43.5911 37.3647 41.3493 37.3647ZM41.3493 43.5461C40.1829 43.5461 39.2339 42.5983 39.2339 41.4334C39.2339 40.267 40.1828 39.318 41.3493 39.318C42.5143 39.318 43.4619 40.267 43.4619 41.4334C43.4619 42.5983 42.5142 43.5461 41.3493 43.5461Z" fill="#0480E0"/>
<path d="M5.57568 32.6051C5.61084 33.11 6.04229 33.5131 6.5502 33.5131H28.4069C28.9398 33.5131 29.3849 33.0685 29.3849 32.5365V16.0078C29.3849 15.4685 28.9477 15.0312 28.4083 15.0312H6.54883C6.00947 15.0312 5.57227 15.4685 5.57227 16.0078V32.5364C5.57344 32.5594 5.57451 32.5822 5.57568 32.6051ZM21.7648 31.56L19.9454 28.6924L22.3793 24.8585L26.632 31.56H21.7648ZM19.4518 31.56H8.32529L13.8895 22.7937L19.4518 31.56ZM27.4317 16.9844V29.1751L23.204 22.513C23.0249 22.2307 22.7138 22.0597 22.3796 22.0597C22.0453 22.0597 21.7343 22.2307 21.5551 22.5129L18.7891 26.8699L14.7144 20.448C14.5353 20.1657 14.2241 19.9947 13.8898 19.9946C13.8898 19.9946 13.8898 19.9946 13.8897 19.9946C13.5555 19.9946 13.2444 20.1656 13.0652 20.4479L7.52529 29.1757V16.9844H27.4317Z" fill="#0480E0"/>
<path d="M33.5073 16.9844H44.3997C44.9391 16.9844 45.3763 16.5472 45.3763 16.0078C45.3763 15.4685 44.9391 15.0312 44.3997 15.0312H33.5073C32.968 15.0312 32.5308 15.4685 32.5308 16.0078C32.5308 16.5472 32.968 16.9844 33.5073 16.9844Z" fill="#0480E0"/>
<path d="M33.5073 22.396H44.3997C44.9391 22.396 45.3763 21.9588 45.3763 21.4194C45.3763 20.8801 44.9391 20.4429 44.3997 20.4429H33.5073C32.968 20.4429 32.5308 20.8801 32.5308 21.4194C32.5308 21.9588 32.968 22.396 33.5073 22.396Z" fill="#0480E0"/>
<path d="M33.5073 27.8052H44.3997C44.9391 27.8052 45.3763 27.368 45.3763 26.8286C45.3763 26.2893 44.9391 25.8521 44.3997 25.8521H33.5073C32.968 25.8521 32.5308 26.2893 32.5308 26.8286C32.5308 27.368 32.968 27.8052 33.5073 27.8052Z" fill="#0480E0"/>
<path d="M33.5073 33.2139H44.3997C44.9391 33.2139 45.3763 32.7767 45.3763 32.2373C45.3763 31.6979 44.9391 31.2607 44.3997 31.2607H33.5073C32.968 31.2607 32.5308 31.6979 32.5308 32.2373C32.5308 32.7767 32.968 33.2139 33.5073 33.2139Z" fill="#0480E0"/>
<path d="M12.4257 1.95312H12.4312C12.9706 1.95312 13.4051 1.51592 13.4051 0.976562C13.4051 0.437207 12.9651 0 12.4258 0C11.8864 0 11.4492 0.437207 11.4492 0.976562C11.4492 1.51592 11.8864 1.95312 12.4257 1.95312Z" fill="#0480E0"/>
</svg>
