<svg width="50" height="50" viewBox="0 0 50 50" fill="none" xmlns="http://www.w3.org/2000/svg">
<path d="M47.4951 25.0002H46.6618V7.50016C46.6591 5.20016 44.7951 3.3362 42.4951 3.3335H7.49512C5.19512 3.3362 3.33116 5.20016 3.32845 7.50016V20.0002H2.49512C1.11439 20.0002 -0.00488281 21.1194 -0.00488281 22.5002V44.1668C-0.00488281 45.5476 1.11439 46.6668 2.49512 46.6668H34.1618C34.622 46.6668 34.9951 46.2937 34.9951 45.8335C34.9924 43.5335 33.1284 41.6695 30.8284 41.6668H28.3284V36.6668H38.3284V44.1668C38.3284 45.5476 39.4477 46.6668 40.8284 46.6668H47.4951C48.8758 46.6668 49.9951 45.5476 49.9951 44.1668V27.5002C49.9951 26.1194 48.8758 25.0002 47.4951 25.0002ZM18.3285 44.1668C18.3285 44.627 17.9553 45.0002 17.4951 45.0002H2.49512C2.03491 45.0002 1.66178 44.627 1.66178 44.1668V43.3335H18.3285V44.1668ZM18.3285 41.6668H1.66178V22.5002C1.66178 22.04 2.03491 21.6668 2.49512 21.6668H17.4951C17.9553 21.6668 18.3285 22.04 18.3285 22.5002V41.6668ZM30.8284 43.3335C31.8876 43.3347 32.8315 44.002 33.1859 45.0002H19.8418C19.9405 44.7333 19.9923 44.4514 19.9951 44.1668V43.3335H30.8284ZM19.9951 41.6668V36.6668H21.6618V41.6668H19.9951ZM23.3284 41.6668V36.6668H26.6618V41.6668H23.3284ZM38.3284 35.0002H19.9951V30.0002H38.3284V35.0002ZM38.3284 27.5002V28.3335H19.9951V22.5002C19.9923 22.1047 19.8945 21.7158 19.7101 21.366C19.7226 21.3543 19.7393 21.351 19.751 21.3385L28.0009 13.0885C28.3207 12.7575 28.3116 12.2298 27.9805 11.9102C27.6576 11.5983 27.1456 11.5983 26.8226 11.9102L18.5726 20.1602C18.5526 20.181 18.5443 20.2077 18.5268 20.2293C18.2035 20.0793 17.8515 20.0012 17.4951 20.0002H4.99512V7.50016C4.99512 6.11943 6.11439 5.00016 7.49512 5.00016H42.4951C43.8758 5.00016 44.9951 6.11943 44.9951 7.50016V25.0002H40.8284C39.4477 25.0002 38.3284 26.1194 38.3284 27.5002ZM48.3284 44.1668C48.3284 44.627 47.9553 45.0002 47.4951 45.0002H40.8284C40.3682 45.0002 39.9951 44.627 39.9951 44.1668V43.3335H48.3284V44.1668ZM48.3284 41.6668H39.9951V27.5002C39.9951 27.04 40.3682 26.6668 40.8284 26.6668H47.4951C47.9553 26.6668 48.3284 27.04 48.3284 27.5002V41.6668Z" fill="#0480E0"/>
<path d="M9.95259 30.1434C9.62718 29.8181 9.09968 29.8181 8.77426 30.1434L5.23926 33.6784C4.90822 33.9982 4.89905 34.5257 5.21884 34.8567C5.53863 35.1878 6.06613 35.1969 6.39718 34.8771C6.40416 34.8705 6.41093 34.8636 6.41759 34.8567L9.95259 31.3217C10.1013 31.0639 9.80238 30.5738 9.95259 30.1434Z" fill="#0480E0"/>
<path d="M14.9322 30.1436C14.6093 29.8317 14.0973 29.8317 13.7743 30.1436L10.2393 33.6786C9.90822 33.9983 9.89905 34.5259 10.2188 34.8569C10.5385 35.1879 11.0661 35.1971 11.3972 34.8773C11.4042 34.8707 11.4109 34.8638 11.4176 34.8569L14.9526 31.3219C15.2723 30.9909 15.2632 30.4633 14.9322 30.1436Z" fill="#0480E0"/>
<path d="M33.0637 11.9107C32.7408 11.5988 32.2288 11.5988 31.9058 11.9107L23.6558 20.1607C23.3247 20.4804 23.3156 21.008 23.6353 21.339C23.9549 21.67 24.4825 21.6792 24.8136 21.3595C24.8206 21.3529 24.8273 21.346 24.8341 21.339L33.0841 13.089C33.4039 12.758 33.3947 12.2304 33.0637 11.9107Z" fill="#0480E0"/>
<path d="M45.9086 32.399C45.5857 32.087 45.0736 32.087 44.7507 32.399L42.394 34.7557C42.063 35.0755 42.0538 35.603 42.3736 35.934C42.6934 36.2651 43.2209 36.2742 43.552 35.9544C43.5588 35.9478 43.5657 35.9409 43.5724 35.934L45.929 33.5774C46.2488 33.2463 46.2397 32.7188 45.9086 32.399Z" fill="#0480E0"/>
<path d="M25.0118 31.6665H25.0035C24.5433 31.6688 24.172 32.0438 24.1743 32.504C24.1766 32.9642 24.5516 33.3355 25.0118 33.3332C25.472 33.3332 25.8452 32.96 25.8452 32.4998C25.8452 32.0396 25.472 31.6665 25.0118 31.6665Z" fill="#0480E0"/>
<path d="M26.6618 6.6665H23.3285C22.8682 6.6665 22.4951 7.03963 22.4951 7.49984C22.4951 7.96005 22.8682 8.33317 23.3285 8.33317H26.6618C27.122 8.33317 27.4951 7.96005 27.4951 7.49984C27.4951 7.03963 27.122 6.6665 26.6618 6.6665Z" fill="#0480E0"/>
</svg>
