<svg width="50" height="50" viewBox="0 0 50 50" fill="none" xmlns="http://www.w3.org/2000/svg">
<path d="M45.9835 3.63818H39.5928C39.1883 3.63818 38.8604 3.96611 38.8604 4.37061C38.8604 4.7751 39.1883 5.10303 39.5928 5.10303H45.9835C46.388 5.10303 46.7159 4.7751 46.7159 4.37061C46.7159 3.96611 46.3881 3.63818 45.9835 3.63818Z" fill="#0480E0"/>
<path d="M35.9634 5.10303H36.7424C37.1469 5.10303 37.4748 4.7751 37.4748 4.37061C37.4748 3.96611 37.1469 3.63818 36.7424 3.63818H35.9634C35.5589 3.63818 35.231 3.96611 35.231 4.37061C35.231 4.7751 35.5589 5.10303 35.9634 5.10303Z" fill="#0480E0"/>
<path d="M35.9634 8.54346H45.9833C46.3878 8.54346 46.7157 8.21553 46.7157 7.81104C46.7157 7.40654 46.3878 7.07861 45.9833 7.07861H35.9634C35.5589 7.07861 35.231 7.40654 35.231 7.81104C35.231 8.21553 35.5589 8.54346 35.9634 8.54346Z" fill="#0480E0"/>
<path d="M38.6126 43.3695C38.6126 40.4438 37.6358 37.5736 35.8567 35.2546L35.9925 32.7541C36.0849 31.052 34.7341 29.6119 33.0161 29.6119H24.9987C24.6299 29.3513 24.4061 28.9279 24.4061 28.4707V26.4257C25.6492 25.6218 26.522 24.705 27.1631 23.614H28.5805C30.2202 23.614 31.5542 22.28 31.5542 20.6402V15.1703C31.5542 14.2478 31.0205 13.4322 30.2224 13.0464V9.20752C30.2224 7.45986 28.8006 6.03799 27.0529 6.03799H26.9708C26.9208 6.03799 26.8802 5.99727 26.8802 5.94736C26.8802 4.19971 25.4583 2.77783 23.7106 2.77783H15.9539C12.1036 2.77783 8.97109 5.91035 8.97109 9.76064V13.0463C8.17305 13.4321 7.63926 14.2477 7.63926 15.1702V17.9521C7.63926 19.2536 8.69814 20.3125 9.99971 20.3125H10.9452C11.1899 22.3824 12.1609 24.2729 13.6818 25.5871C14.0387 25.8955 14.4077 26.171 14.7873 26.4171V28.4706C14.7873 28.9265 14.5627 29.3499 14.1922 29.6118H6.17764C4.47295 29.6118 3.1082 31.0386 3.20137 32.754L3.33711 35.2545C1.55791 37.5736 0.581152 40.4438 0.581152 43.3695V46.1282C0.216992 46.5363 -0.00488281 47.0739 -0.00488281 47.6626C-0.00488281 48.9349 1.03018 49.9698 2.30244 49.9698H36.8913C38.1636 49.9698 39.1986 48.9348 39.1986 47.6626C39.1986 47.0739 38.9768 46.5363 38.6126 46.1283V43.3695ZM37.1478 43.3695V45.3698C37.0635 45.3604 36.978 45.3553 36.8913 45.3553H35.3085L35.7219 37.7391C36.6489 39.4608 37.1478 41.4006 37.1478 43.3695ZM30.0143 14.8127C30.0624 14.9229 30.0895 15.0438 30.0895 15.1704V17.9522C30.0895 18.4461 29.6878 18.8479 29.1939 18.8479H28.3229V16.0868L28.7743 15.9296C29.3327 15.7351 29.7719 15.3249 30.0143 14.8127ZM25.1243 23.2988H23.2862C22.9899 23.2988 22.7488 23.0578 22.7488 22.7615C22.7488 22.4652 22.9899 22.2242 23.2862 22.2242H25.1243C25.4206 22.2242 25.6616 22.4652 25.6616 22.7615C25.6616 23.0578 25.4206 23.2988 25.1243 23.2988ZM28.5807 22.1492H27.8403C28.0466 21.5611 28.189 20.9451 28.2641 20.3127H29.1939C29.5108 20.3127 29.8132 20.2495 30.0895 20.1357V20.6404C30.0895 21.4724 29.4126 22.1492 28.5807 22.1492ZM10.4361 9.76084C10.4361 6.71826 12.9115 4.24287 15.9541 4.24287H23.7108C24.6508 4.24287 25.4155 5.00762 25.4155 5.94756C25.4155 6.80527 26.1134 7.50303 26.971 7.50303H27.0531C27.9931 7.50303 28.7577 8.26777 28.7577 9.20771V13.8916C28.7577 14.1863 28.5707 14.4494 28.2924 14.5464L26.7532 15.0824C26.6912 15.1039 26.6272 15.0592 26.6272 14.9925L26.6301 12.0819C26.639 9.95781 24.65 8.10527 21.8633 9.00039C20.4617 9.45078 18.7272 9.44922 17.3304 9.00039C14.5726 8.11406 12.5547 9.93369 12.5636 12.0797L12.567 14.9927C12.567 15.0599 12.5016 15.1041 12.441 15.0824L10.9014 14.5463C10.623 14.4494 10.436 14.1862 10.436 13.8915L10.4361 9.76084ZM9.1043 17.9522V15.1703C9.1043 15.0437 9.13144 14.9228 9.17959 14.8126C9.42207 15.3249 9.86123 15.7351 10.4198 15.9296L10.8711 16.0867V18.8478H10C9.50605 18.8479 9.1043 18.446 9.1043 17.9522ZM12.3493 19.4667C12.325 18.5038 12.3399 17.4817 12.3358 16.546C12.381 16.5499 12.4262 16.5521 12.4714 16.5521C13.3422 16.5521 14.0333 15.8443 14.0318 14.9905L14.0284 12.0757C14.0234 10.8864 15.0902 9.81895 16.8822 10.3949C18.5807 10.9406 20.6186 10.939 22.3114 10.3949C24.0187 9.84639 25.1705 10.8121 25.1652 12.0781L25.1624 14.9907C25.1612 15.8985 25.9372 16.6259 26.8579 16.546V19.526C26.8366 20.159 26.7324 20.7768 26.5557 21.3643C26.1919 20.9916 25.685 20.7593 25.1243 20.7593H23.2862C22.1822 20.7593 21.284 21.6574 21.284 22.7614C21.284 23.8654 22.1822 24.7636 23.2862 24.7636H24.2168C22.864 25.8195 21.3256 26.3701 19.6353 26.3981C15.9376 26.3686 12.4551 23.6368 12.3493 19.4667ZM16.2524 28.4708V27.1893C17.3111 27.6276 18.4405 27.8548 19.6333 27.8632H19.6385C19.6423 27.8632 19.6461 27.8632 19.6499 27.8631C20.8111 27.845 21.9105 27.62 22.9416 27.1952V28.4707C22.9416 28.8706 23.0253 29.2577 23.1794 29.6119H16.0138C16.1684 29.2576 16.2524 28.8704 16.2524 28.4708ZM3.47187 37.7391L3.5875 39.87C3.60947 40.274 3.95547 40.5847 4.3585 40.5617C4.7624 40.5398 5.07207 40.1946 5.05019 39.7907L4.66396 32.6748C4.61699 31.8092 5.30391 31.0769 6.17764 31.0769H33.0162C33.8835 31.0769 34.5771 31.8026 34.5299 32.6748L33.8416 45.3554H22.3564C22.4964 44.5187 22.8731 43.7318 23.4535 43.0871L23.4745 43.0637C25.6915 40.5834 25.0279 36.7049 22.1623 35.0766C21.427 34.6588 20.4931 35.1798 20.4931 36.0459V39.3691C20.4931 39.5215 20.3691 39.6453 20.2168 39.6453H18.977C18.8246 39.6453 18.7007 39.5214 18.7007 39.3691V36.0459C18.7007 35.1814 17.7683 34.6579 17.0314 35.0766C14.1576 36.7094 13.5075 40.5894 15.7215 43.0661L15.7402 43.0871C16.3206 43.7317 16.6974 44.5187 16.8373 45.3553H5.35225L5.23477 43.1899C5.21289 42.786 4.86768 42.476 4.46377 42.4982C4.05986 42.5201 3.75019 42.8653 3.77207 43.2692L3.88525 45.3553H2.30244C2.21572 45.3553 2.13027 45.3605 2.046 45.3698V43.3695C2.046 41.4007 2.54492 39.4608 3.47187 37.7391ZM18.3173 45.3553C18.1674 44.1552 17.6529 43.0223 16.8291 42.1071L16.8114 42.0873C15.3963 40.5043 15.5858 38.0563 17.2359 36.7063V39.369C17.2359 40.3291 18.017 41.1101 18.977 41.1101H20.2169C21.177 41.1101 21.958 40.329 21.958 39.369V36.7063C23.5972 38.0474 23.8071 40.4936 22.3807 42.0894L22.3648 42.107C21.5409 43.0223 21.0265 44.1552 20.8766 45.3553H18.3173ZM36.8913 48.5051H2.30244C1.83789 48.5051 1.45996 48.1271 1.45996 47.6627C1.45996 47.1982 1.83789 46.8202 2.30244 46.8202H36.8913C37.3559 46.8202 37.7338 47.1981 37.7338 47.6627C37.7338 48.1272 37.3559 48.5051 36.8913 48.5051Z" fill="#0480E0"/>
<path d="M49.2627 5.04316C49.6672 5.04316 49.9951 4.71523 49.9951 4.31074V2.89316C49.9951 1.31484 48.711 0.0307617 47.1326 0.0307617H34.8142C33.2357 0.0307617 31.9517 1.31484 31.9517 2.89316V9.0541C31.9517 10.6325 33.2357 11.9166 34.8142 11.9166C35.0962 11.9166 35.3257 12.1461 35.3257 12.4281V16.2382C35.3257 16.7885 35.6819 17.2568 36.2123 17.4036C36.7458 17.5513 37.2907 17.3292 37.5721 16.8601L40.3875 12.165C40.4794 12.0118 40.6476 11.9166 40.8263 11.9166H47.1327C48.7111 11.9166 49.9952 10.6325 49.9952 9.0541V7.73496C49.9952 7.33047 49.6673 7.00254 49.2628 7.00254C48.8583 7.00254 48.5304 7.33047 48.5304 7.73496V9.0541C48.5304 9.8248 47.9034 10.4518 47.1327 10.4518H40.8262C40.1357 10.4518 39.4862 10.8196 39.1312 11.4117L36.7904 15.315V12.4281C36.7904 11.3384 35.9038 10.4518 34.8141 10.4518C34.0434 10.4518 33.4164 9.8248 33.4164 9.0541V2.89316C33.4164 2.12256 34.0434 1.49561 34.8141 1.49561H47.1326C47.9033 1.49561 48.5303 2.12256 48.5303 2.89316V4.31074C48.5303 4.71523 48.8582 5.04316 49.2627 5.04316Z" fill="#0480E0"/>
</svg>
