<svg width="64" height="17" viewBox="0 0 64 17" fill="none" xmlns="http://www.w3.org/2000/svg">
<g clip-path="url(#clip0_11588_439)">
<path fill-rule="evenodd" clip-rule="evenodd" d="M2.76881 0.916992H13.552C14.9561 0.916992 16.0924 2.06401 16.0924 3.48036V11.7771C16.0752 11.7755 15.5367 11.7227 13.2899 10.964C12.877 10.8245 12.3724 10.637 11.8091 10.4278C11.5062 10.3152 11.1862 10.1964 10.8544 10.0753C11.4237 9.07609 11.8791 7.93842 12.1782 6.70219H9.05106V5.56622H12.8821V4.93154H9.05106V3.03854H7.48772C7.21329 3.03854 7.21329 3.31128 7.21329 3.31128V4.93197H3.33893V5.56622H7.21329V6.70219H4.01439V7.33602H10.2185C9.9996 8.09985 9.70011 8.83823 9.32507 9.53872C7.31142 8.86878 5.16353 8.32586 3.81388 8.65976C2.95107 8.8743 2.39498 9.25706 2.06872 9.65809C0.569528 11.4976 1.64475 14.2908 4.81008 14.2908C6.68142 14.2908 8.48478 13.2385 9.88201 11.5039C11.9538 12.509 16.0441 14.229 16.0924 14.2494V14.3541C16.0924 15.7691 14.9561 16.917 13.552 16.917H2.76881C1.36478 16.917 0.227539 15.7691 0.227539 14.3541V3.48036C0.227539 2.06401 1.36478 0.916992 2.76881 0.916992ZM2.53644 10.1883C1.31636 11.2605 2.0462 13.2215 4.51441 13.2215C5.94903 13.2215 7.38279 12.2962 8.50857 10.8153C6.907 10.0268 5.54969 9.46267 4.08364 9.60881C3.68728 9.64875 2.94342 9.82547 2.53644 10.1883Z" fill="white"/>
<path d="M34.677 3.25943C34.677 4.08697 35.2815 4.64434 36.1256 4.64434C36.9698 4.64434 37.5743 4.08697 37.5743 3.25943C37.5743 2.44759 36.9693 1.87451 36.1256 1.87451C35.2819 1.87451 34.677 2.44759 34.677 3.25943Z" fill="white"/>
<path d="M30.6336 13.8456H33.1485V2.22461H30.6336V13.8456ZM22.5624 9.81784L24.0586 4.64438H24.1224L25.5391 9.81784H22.5624ZM26.224 2.62267H22.8488L19.0759 13.8456H21.4001L22.0369 11.6488H26.0328L26.6373 13.8456H29.6144L26.224 2.62267ZM34.8678 13.8456H37.3827V5.31305H34.8678V13.8456ZM63.6668 5.32877L63.6825 5.31305H61.3107L59.8145 10.5027H59.7346L58.0154 5.31305H55.1975L58.5885 13.8774L57.1717 16.4884V16.5521H59.3846L63.6668 5.32877ZM42.0477 12.3812C41.7562 12.3846 41.4661 12.3416 41.1882 12.2538V7.63724C41.7137 7.27105 42.1437 7.09602 42.6845 7.09602C43.6242 7.09602 44.3723 7.84413 44.3723 9.43593C44.3723 11.4738 43.2737 12.3812 42.0477 12.3812ZM43.6399 5.13803C42.7167 5.13803 42.0001 5.48808 41.1887 6.15674V5.31305H38.6729V16.5517H41.1882V13.7661C41.6657 13.8936 42.1114 13.9573 42.653 13.9573C44.8973 13.9573 46.9195 12.3013 46.9195 9.35649C46.9195 6.71411 45.4543 5.13803 43.6399 5.13803ZM52.189 11.7763C51.5203 12.142 51.138 12.2856 50.6927 12.2856C50.0878 12.2856 49.7055 11.8876 49.7055 11.2508C49.7055 11.012 49.7535 10.7733 49.9442 10.5821C50.2467 10.2796 50.8359 10.057 52.189 9.7384V11.7763ZM54.7039 11.7125V8.1466C54.7039 6.20432 53.5582 5.13803 51.5364 5.13803C50.2467 5.13803 49.3554 5.36063 47.7317 5.85427L48.177 7.81227C49.6575 7.1436 50.3104 6.85685 50.9952 6.85685C51.8228 6.85685 52.189 7.44607 52.189 8.35349V8.41721C49.3074 8.95843 48.4161 9.26091 47.8588 9.81827C47.445 10.232 47.27 10.8208 47.27 11.5052C47.27 13.145 48.5436 14.021 49.7377 14.021C50.629 14.021 51.3453 13.6863 52.3164 12.9539L52.4914 13.846H55.0064L54.7039 11.7125Z" fill="white"/>
</g>
<defs>
<clipPath id="clip0_11588_439">
<rect width="63.4921" height="16" fill="white" transform="translate(0.208984 0.916992)"/>
</clipPath>
</defs>
</svg>
