<svg width="48" height="11" viewBox="0 0 48 11" fill="none" xmlns="http://www.w3.org/2000/svg">
<path d="M31.4887 4.10271V7.59477H27.9503C27.5961 7.59477 27.3309 7.33286 27.3309 6.98364V4.10271C27.3309 3.75349 27.5961 3.49159 27.9503 3.49159H30.7814C31.2236 3.40432 31.4887 3.75349 31.4887 4.10271Z" fill="white"/>
<path d="M47.9443 5.49996H46.1748C46.1748 3.40474 44.4938 1.746 42.3706 1.746C40.6897 1.746 39.2744 2.79362 38.7431 4.36503C38.6551 4.71426 38.5665 5.15074 38.5665 5.49996V10.9999H38.4779C37.5049 10.9999 36.797 10.2142 36.797 9.34119V5.49996C36.797 4.01586 37.4163 2.53171 38.5665 1.4841C39.6281 0.523806 40.9553 0 42.3706 0C45.4669 0 47.9443 2.44445 47.9443 5.49996Z" fill="white"/>
<path d="M47.9447 11H45.4673L44.848 10.3889L43.5213 9.07942L41.6632 7.24609H44.1406L47.9447 11Z" fill="white"/>
<path d="M32.1078 9.25392H26.7998C26.1805 9.25392 25.6497 8.73012 25.6497 8.11899V2.88093C25.6497 2.26981 26.1805 1.746 26.7998 1.746H32.1078C32.7272 1.746 33.258 2.26981 33.258 2.88093V8.11899L35.0275 9.865V1.65874C35.0275 0.698391 34.231 0 33.3465 0H25.6497C24.6761 0 23.9688 0.785709 23.9688 1.65874V9.25392C23.9688 10.2142 24.7647 10.9126 25.6497 10.9126H33.8773L32.1078 9.25392Z" fill="white"/>
<path d="M10.6095 10.9999H8.13209L3.0007 5.84918V10.9999H0.966064V0H3.0007V4.88884L7.95552 0H10.3438L5.03587 5.23806L10.6095 10.9999Z" fill="white"/>
<path d="M19.8982 0H21.8449V10.9999H19.8982V6.19836H14.236V10.9999H12.2014V0H14.236V4.62694H19.8982V0Z" fill="white"/>
</svg>
