<svg width="50" height="50" viewBox="0 0 50 50" xmlns="http://www.w3.org/2000/svg"><path d="M43.105 4h.972V.818h1.108V0H42v.818h1.105V4Zm2.775 0h.858V1.453h.053L47.663 4h.555l.871-2.547h.056V4H50V0h-1.108l-.924 2.714h-.05L46.99 0h-1.11v4Z" fill="#D1D5DB"/><mask id="o_icon_delivery_bpost__a" style="mask-type:luminance" maskUnits="userSpaceOnUse" x="2" y="10" width="43" height="30"><path d="M34.699 12.979c-3.78 8.397-12.602 16.96-19.675 19.153-7.114 2.192-9.797-2.855-5.976-11.252l-3.78 1.158c-1.749 3.889-2.643 7.322-2.643 10.135v.248c.04 6.205 4.309 9.101 11.748 6.785C25.227 35.895 38.683 22.783 44.414 10L34.7 12.979Z" fill="#fff"/></mask><g mask="url(#o_icon_delivery_bpost__a)"><path d="M-11.928 20.383 30.674-9.98l28.294 41.16-42.603 30.323-28.293-41.12Z" fill="url(#o_icon_delivery_bpost__b)"/></g><mask id="o_icon_delivery_bpost__c" style="mask-type:luminance" maskUnits="userSpaceOnUse" x="9" y="16" width="15" height="11"><path d="M10.755 20.342c-1.952 4.302-.57 6.867 3.048 5.75s8.13-5.502 10.041-9.763l-13.09 4.013Z" fill="#fff"/></mask><g mask="url(#o_icon_delivery_bpost__c)"><path d="M3.763 19.887 18.885 9.13l9.96 14.479-15.082 10.797-10-14.52Z" fill="url(#o_icon_delivery_bpost__d)"/></g><defs><linearGradient id="o_icon_delivery_bpost__b" x1="5.046" y1="38.923" x2="45.27" y2="11.246" gradientUnits="userSpaceOnUse"><stop stop-color="#A21007"/><stop offset=".244" stop-color="#B90D11"/><stop offset=".555" stop-color="#D0091B"/><stop offset=".75" stop-color="#D9081F"/><stop offset="1" stop-color="#D9081F"/></linearGradient><linearGradient id="o_icon_delivery_bpost__d" x1="10.573" y1="25.857" x2="24.027" y2="16.6" gradientUnits="userSpaceOnUse"><stop stop-color="#A21007"/><stop offset=".244" stop-color="#B90D11"/><stop offset=".555" stop-color="#D0091B"/><stop offset=".75" stop-color="#D9081F"/><stop offset="1" stop-color="#D9081F"/></linearGradient></defs></svg>
