<svg width="19" height="19" viewBox="0 0 19 19" fill="none" xmlns="http://www.w3.org/2000/svg">
<path d="M5.54151 4.7487V2.3737C5.54151 1.93648 5.89595 1.58203 6.33317 1.58203H15.8332C16.2704 1.58203 16.6248 1.93648 16.6248 2.3737V13.457C16.6248 13.8943 16.2704 14.2487 15.8332 14.2487H13.4582V16.623C13.4582 17.0606 13.102 17.4154 12.6611 17.4154H3.17194C2.73172 17.4154 2.375 17.0634 2.375 16.623L2.37706 5.54105C2.37714 5.10345 2.73334 4.7487 3.17412 4.7487H5.54151ZM3.96025 6.33203L3.95848 15.832H11.8748V6.33203H3.96025ZM7.12484 4.7487H13.4582V12.6654H15.0415V3.16536H7.12484V4.7487Z" fill="#B4B4B4"/>
</svg>
