<svg width="70" height="70" viewBox="0 0 70 70" fill="none" xmlns="http://www.w3.org/2000/svg">
<path fill-rule="evenodd" clip-rule="evenodd" d="M25.7242 16.3967C26.3772 14.9408 27.8517 14 29.4807 14H40.5185C42.1475 14 43.622 14.9408 44.275 16.3967L47.2363 23H51.899C54.3592 23 56.2655 25.0988 55.9695 27.4813L52.8632 52.4813C52.6137 54.4896 50.8664 56 48.7927 56H21.2071C19.1334 56 17.3862 54.4896 17.1366 52.4813L14.0304 27.4813C13.7343 25.0988 15.6407 23 18.1008 23H22.7629L25.7242 16.3967ZM42.9172 23H27.082C27.082 22.4402 27.205 21.8658 27.4716 21.3085L28.4283 19.3085C29.102 17.9002 30.5508 17 32.1439 17H37.8553C39.4484 17 40.8972 17.9002 41.5709 19.3085L42.5276 21.3085C42.7942 21.8658 42.9172 22.4402 42.9172 23Z" fill="#F9464C"/>
<path fill-rule="evenodd" clip-rule="evenodd" d="M18.5135 55.0158C17.7724 54.3858 17.2629 53.4973 17.1366 52.4813L14.0304 27.4813C13.7343 25.0988 15.6407 23 18.1008 23H22.7629L25.7242 16.3967C26.3772 14.9408 27.8517 14 29.4807 14H40.5185C42.1475 14 43.622 14.9408 44.275 16.3967L46.8658 22.1738C45.4995 38.2558 33.8468 51.4051 18.5135 55.0158ZM27.082 23H42.9172C42.9172 22.4402 42.7942 21.8658 42.5276 21.3085L41.5709 19.3085C40.8972 17.9002 39.4484 17 37.8553 17H32.1439C30.5508 17 29.102 17.9002 28.4283 19.3085L27.4716 21.3085C27.205 21.8658 27.082 22.4402 27.082 23Z" fill="#FC868B"/>
<path d="M27.1418 30.8642C27.7136 28.7303 29.9069 27.464 32.0408 28.0357L43.6319 31.1416C45.7658 31.7133 47.0321 33.9067 46.4603 36.0405L43.3545 47.6316C42.7827 49.7655 40.5894 51.0318 38.4555 50.4601L26.8644 47.3542C24.7305 46.7825 23.4642 44.5891 24.036 42.4553L27.1418 30.8642Z" fill="white"/>
<path d="M33.1353 38.6147C32.421 38.4897 31.7546 38.0918 31.3058 37.4509C30.4098 36.1713 30.7208 34.4077 32.0003 33.5117C33.2799 32.6158 35.0435 32.9268 35.9395 34.2063C36.4899 34.9925 36.5848 35.9614 36.2794 36.7995L39.5794 34.8942C40.0713 34.6102 40.6346 34.6648 40.8375 35.0162L41.7558 36.6067L36.5682 39.6018C37.393 39.6571 38.1864 40.0719 38.6975 40.8018C39.5935 42.0813 39.2825 43.8449 38.0029 44.7409C36.7234 45.6369 34.9597 45.3259 34.0638 44.0463C33.4514 43.1717 33.4028 42.071 33.8421 41.1757L30.1764 43.2921C29.6844 43.5761 29.1212 43.5215 28.9183 43.1701L28 41.5796L33.1353 38.6147Z" fill="#F9464C"/>
</svg>
