<svg width="30" height="30" viewBox="0 0 30 30" xmlns="http://www.w3.org/2000/svg">
    <path fill-rule="evenodd" clip-rule="evenodd" d="M14.9658 0C15.1932 0 15.4095 0.0569691 15.6142 0.170898C15.819 0.284934 15.9789 0.433755 16.0927 0.616211L22.0986 10H28.6513C29.1063 10 29.4648 10.1829 29.7265 10.5479C29.9879 10.9127 30.0619 11.3119 29.9482 11.7451L26.4677 23.9814C26.2857 24.5744 25.9553 25.0592 25.4775 25.4355C24.9998 25.8117 24.4539 25.9999 23.8398 26H21.9999V25C21.9999 24.7436 21.9511 24.4987 21.8632 24.2734C23.7316 23.2568 24.9999 21.2767 24.9999 19C24.9999 15.6863 22.3136 13 18.9999 13H10.9999C7.68622 13 4.99993 15.6863 4.99993 19C4.99993 21.1819 6.16469 23.0915 7.90618 24.1416L7.59173 24.4551C7.21002 24.8337 6.99658 25.3501 6.99993 25.8877C7.00017 25.9253 7.00443 25.9626 7.00677 26H6.16107C5.54675 26 5.00019 25.8119 4.52239 25.4355C4.0447 25.0593 3.71513 24.5744 3.53314 23.9814L0.051691 11.7451C-0.0620357 11.3119 0.0119147 10.9127 0.273371 10.5479C0.535022 10.1829 0.893519 10 1.34857 10H7.83294L13.8398 0.616211C13.9535 0.433799 14.1126 0.284923 14.3173 0.170898C14.522 0.0569106 14.7383 4.7201e-05 14.9658 0ZM11.1435 10H18.8222L14.9658 3.83203L11.1435 10Z" fill="white" fill-opacity="0.2"/>
    <path d="M14.1607 30C13.875 30 13.6012 29.9484 13.3393 29.8453C13.0774 29.7422 12.8452 29.5932 12.6429 29.3984L9 25.875L9.58929 25.2906C9.75595 25.1302 9.95833 25.0214 10.1964 24.9641C10.4345 24.9068 10.6726 24.9068 10.9107 24.9641L12.1429 25.3078V19.6875C12.1429 19.4927 12.2113 19.3294 12.3482 19.1977C12.4851 19.0659 12.6548 19 12.8571 19C13.0595 19 13.2292 19.0659 13.3661 19.1977C13.503 19.3294 13.5714 19.4927 13.5714 19.6875V24.5H14.2857V22.4375C14.2857 22.2427 14.3542 22.0794 14.4911 21.9477C14.628 21.8159 14.7976 21.75 15 21.75C15.2024 21.75 15.372 21.8159 15.5089 21.9477C15.6458 22.0794 15.7143 22.2427 15.7143 22.4375V24.5H16.4286V23.125C16.4286 22.9302 16.497 22.7669 16.6339 22.6352C16.7708 22.5034 16.9405 22.4375 17.1429 22.4375C17.3452 22.4375 17.5149 22.5034 17.6518 22.6352C17.7887 22.7669 17.8571 22.9302 17.8571 23.125V24.5H18.5714C18.5714 24.3052 18.6399 24.1419 18.7768 24.0102C18.9137 23.8784 19.0833 23.8125 19.2857 23.8125C19.4881 23.8125 19.6577 23.8784 19.7946 24.0102C19.9315 24.1419 20 24.3052 20 24.5V27.25C20 28.0062 19.7202 28.6536 19.1607 29.1922C18.6012 29.7307 17.9286 30 17.1429 30H14.1607Z" fill="white"/>
    <path d="M19 15C21.2091 15 23 16.7909 23 19C23 20.914 21.6554 22.5129 19.8594 22.9062C19.7271 22.8614 19.5902 22.8317 19.4502 22.8193L19.2861 22.8125C19.133 22.8125 18.9818 22.8316 18.8359 22.8691C18.7911 22.5646 18.6685 22.2808 18.4648 22.041L18.3457 21.915L18.2148 21.8008C17.9026 21.5549 17.5295 21.4375 17.1426 21.4375C16.9107 21.4375 16.6843 21.4806 16.4727 21.5674C16.4277 21.4934 16.3787 21.4211 16.3213 21.3535L16.2021 21.2275L16.0723 21.1133C15.8046 20.9025 15.4924 20.7858 15.165 20.7568L15 20.75C14.8542 20.75 14.7106 20.7678 14.5713 20.8018V19.6875C14.5713 19.2859 14.4386 18.9094 14.1787 18.6035L14.0596 18.4775L13.9297 18.3633C13.6621 18.1524 13.3498 18.0359 13.0225 18.0068L12.8574 18C12.415 18 11.9905 18.154 11.6543 18.4775C11.3163 18.803 11.1426 19.2288 11.1426 19.6875V23H11C8.79086 23 7 21.2091 7 19C7 16.7909 8.79086 15 11 15H19Z" fill="white"/>
</svg>
