<svg width="82px" height="60px" viewBox="0 0 82 60" fill="none" enable-background="new 0 0 82 60"
    xmlns="http://www.w3.org/2000/svg">
    <g>
        <rect fill="none" width="82" height="60"/>
        <g>
            <g transform="translate(1)">
                <rect x="19" y="23" width="44.6" height="13.118" fill="#00C0D9"/>
                <rect x="19" y="23" width="44.6" height="13.118" fill="url(#paint0_linear_8_6)"/>
                <rect x="34.2941" y="28.7353" width="24.0882" height="1.52941" fill="white"/>
                <path d="M29.1892 30.5037H25.4919L25.5745 30.9099H28.9599C29.1541 30.9099 29.2981 31.0915 29.255 31.2821L29.1854 31.5903C29.4212 31.7055 29.5837 31.9487 29.5837 32.2302C29.5837 32.6263 29.2619 32.9468 28.867 32.9411C28.4909 32.9356 28.1816 32.6284 28.1714 32.2499C28.1659 32.0431 28.2482 31.8557 28.3833 31.7224H25.7392C25.8701 31.8515 25.9514 32.0312 25.9514 32.2302C25.9514 32.6341 25.6168 32.9593 25.2114 32.9404C24.8515 32.9236 24.5587 32.6308 24.5398 32.2686C24.5252 31.9888 24.6714 31.7423 24.8936 31.6137L24.0076 27.2537H23.1262C22.959 27.2537 22.8235 27.1173 22.8235 26.949V26.7458C22.8235 26.5776 22.959 26.4412 23.1262 26.4412H24.4193C24.5631 26.4412 24.6871 26.543 24.7159 26.6848L24.8315 27.2537H29.7854C29.9796 27.2537 30.1236 27.4352 30.0806 27.6259L29.4843 30.2665C29.453 30.4052 29.3305 30.5037 29.1892 30.5037ZM27.9694 28.574H27.364V28.0662C27.364 27.954 27.2736 27.863 27.1622 27.863H26.9604C26.8489 27.863 26.7586 27.954 26.7586 28.0662V28.574H26.1532C26.0417 28.574 25.9514 28.6649 25.9514 28.7771V28.9802C25.9514 29.0924 26.0417 29.1833 26.1532 29.1833H26.7586V29.6912C26.7586 29.8033 26.8489 29.8943 26.9604 29.8943H27.1622C27.2736 29.8943 27.364 29.8033 27.364 29.6912V29.1833H27.9694C28.0808 29.1833 28.1711 29.0924 28.1711 28.9802V28.7771C28.1711 28.6649 28.0808 28.574 27.9694 28.574Z" fill="white"/>
                <defs>
                    <linearGradient id="paint0_linear_8_6" x1="-341.4267" y1="261.9717" x2="-338.8032" y2="261.7448" gradientUnits="userSpaceOnUse" gradientTransform="matrix(17 0 0 -5 5817.1001 1322.4)">
                        <stop offset="0" style="stop-color:#00A09D"/>
                        <stop offset="1" style="stop-color:#00C0D9"/>
                    </linearGradient>
                </defs>
            </g>
        </g>
    </g>
</svg>
