<svg width="30" height="30" viewBox="0 0 30 30" xmlns="http://www.w3.org/2000/svg">
    <path fill-rule="evenodd" clip-rule="evenodd" d="M15 4.99902C20.5228 4.99902 25 9.47618 25 14.999C25 20.5219 20.5228 24.999 15 24.999C9.47715 24.999 5 20.5219 5 14.999C5 9.47618 9.47715 4.99902 15 4.99902ZM14 14C13.4477 14 13 14.4477 13 15V21C13 21.5523 13.4477 22 14 22H16C16.5523 22 17 21.5523 17 21V15C17 14.4477 16.5523 14 16 14H14ZM15 8C13.8954 8 13 8.89543 13 10C13 11.1046 13.8954 12 15 12C16.1046 12 17 11.1046 17 10C17 8.89543 16.1046 8 15 8Z" fill="white"/>
    <path fill-rule="evenodd" clip-rule="evenodd" d="M15 -0.000976562C23.2843 -0.000976562 30 6.71475 30 14.999C30 23.2833 23.2843 29.999 15 29.999C6.71573 29.999 0 23.2833 0 14.999C0 6.71475 6.71573 -0.000976562 15 -0.000976562ZM15 2.99902C8.37258 2.99902 3 8.37161 3 14.999C3 21.6264 8.37258 26.999 15 26.999C21.6274 26.999 27 21.6264 27 14.999C27 8.37161 21.6274 2.99902 15 2.99902Z" fill="white" fill-opacity="0.2"/>
</svg>
