<svg width="30" height="30" viewBox="0 0 30 30" xmlns="http://www.w3.org/2000/svg">
    <defs>
        <clipPath id="s_animated_number_digit_clip">
            <rect x="20" y="7" width="7" height="19"/>
        </clipPath>
    </defs>
    <g fill="white">
        <rect x="2" y="9" width="7" height="2"/>
        <rect x="2" y="11" width="2" height="5"/>
        <rect x="7" y="11" width="2" height="5"/>
        <rect x="2" y="15" width="7" height="2"/>
        <rect x="7" y="17" width="2" height="4"/>
        <rect x="2" y="20" width="7" height="2"/>
        <rect x="11" y="9" width="7" height="2"/>
        <rect x="11" y="11" width="2" height="5"/>
        <rect x="16" y="11" width="2" height="5"/>
        <rect x="11" y="15" width="7" height="2"/>
        <rect x="16" y="17" width="2" height="4"/>
        <rect x="11" y="20" width="7" height="2"/>
    </g>
    <g clip-path="url(#s_animated_number_digit_clip)" fill="white">
        <g transform="translate(0 -7)">
            <rect x="20" y="9" width="7" height="2"/>
            <rect x="20" y="11" width="2" height="5"/>
            <rect x="25" y="11" width="2" height="5"/>
            <rect x="20" y="15" width="7" height="2"/>
            <rect x="25" y="17" width="2" height="4"/>
            <rect x="20" y="20" width="7" height="2"/>
        </g>
    </g>
    <g clip-path="url(#s_animated_number_digit_clip)" fill="white" opacity="0.3">
        <g transform="translate(0 7)">
            <rect x="20" y="9" width="7" height="2"/>
            <rect x="20" y="11" width="2" height="5"/>
            <rect x="25" y="11" width="2" height="5"/>
            <rect x="20" y="15" width="7" height="2"/>
            <rect x="20" y="17" width="2" height="4"/>
            <rect x="25" y="17" width="2" height="4"/>
            <rect x="20" y="20" width="7" height="2"/>
        </g>
    </g>
</svg>
