<svg width="30" height="30" viewBox="0 0 30 30" xmlns="http://www.w3.org/2000/svg">
    <path d="M20 5C25.5228 5 30 9.47715 30 15C30 20.5228 25.5228 25 20 25C19.4711 25 18.952 24.958 18.4453 24.8789C21.2317 22.4946 23 18.9548 23 15C23 11.0449 21.232 7.50445 18.4453 5.12012C18.9519 5.04103 19.4712 5 20 5Z" fill="white" fill-opacity="0.2"/>
    <path fill-rule="evenodd" clip-rule="evenodd" d="M10 5C15.5228 5 20 9.47715 20 15C20 20.5228 15.5228 25 10 25C4.47715 25 0 20.5228 0 15C0 9.47715 4.47715 5 10 5ZM10 15.5C9.27778 15.5 8.60731 15.5806 7.98926 15.7422C7.37131 15.9038 6.83989 16.1466 6.39551 16.4697C5.95123 16.7928 5.60725 17.1686 5.36426 17.5967C5.12134 18.0247 5.00002 18.4978 5 19.0146V20.5C5 20.7761 5.22386 21 5.5 21H14.5C14.7761 21 15 20.7761 15 20.5V19.0146C15 18.4977 14.8816 18.0248 14.6455 17.5967C14.4094 17.1686 14.0694 16.7928 13.625 16.4697C13.1806 16.1466 12.6493 15.9038 12.0312 15.7422C11.4132 15.5806 10.7361 15.5 10 15.5ZM10 9C9.30567 9 8.71556 9.23975 8.22949 9.71875C7.74344 10.1979 7.5 10.7917 7.5 11.5C7.5 12.1944 7.74338 12.7854 8.22949 13.2715C8.71551 13.7573 9.30579 14 10 14C10.7082 14 11.3021 13.7574 11.7812 13.2715C12.2604 12.7854 12.5 12.1944 12.5 11.5C12.5 10.7917 12.2604 10.1979 11.7812 9.71875C11.3021 9.23958 10.7083 9 10 9Z" fill="white"/>
</svg>
