<svg width="30" height="30" viewBox="0 0 30 30" xmlns="http://www.w3.org/2000/svg">
    <path d="M2.7 22L6.35294 16.3333C4.60588 16.3333 3.11029 15.7785 1.86618 14.6687C0.622059 13.559 0 12.225 0 10.6667C0 9.10833 0.622059 7.77431 1.86618 6.66458C3.11029 5.55486 4.60588 5 6.35294 5C8.1 5 9.59559 5.55486 10.8397 6.66458C12.0838 7.77431 12.7059 9.10833 12.7059 10.6667C12.7059 11.2097 12.6331 11.7115 12.4875 12.1719C12.3419 12.6323 12.1235 13.075 11.8324 13.5L6.35294 22H2.7ZM16.9941 22L20.6471 16.3333C18.9 16.3333 17.4044 15.7785 16.1603 14.6687C14.9162 13.559 14.2941 12.225 14.2941 10.6667C14.2941 9.10833 14.9162 7.77431 16.1603 6.66458C17.4044 5.55486 18.9 5 20.6471 5C22.3941 5 23.8897 5.55486 25.1338 6.66458C26.3779 7.77431 27 9.10833 27 10.6667C27 11.2097 26.9272 11.7115 26.7816 12.1719C26.636 12.6323 26.4176 13.075 26.1265 13.5L20.6471 22H16.9941Z" fill="white"/>
    <path d="M13.5742 16.333C13.7606 16.5301 13.956 16.7225 14.1631 16.9072C14.2491 16.984 14.337 17.0578 14.4248 17.1309L9.35254 25H7.98828L13.5742 16.333Z" fill="white" fill-opacity="0.2"/>
    <path d="M29.833 12.334C29.9434 12.7584 30 13.2027 30 13.667C30 14.2099 29.9268 14.7116 29.7812 15.1719C29.6357 15.6322 29.418 16.0751 29.127 16.5L23.6475 25H22.2822L28.6484 15.125L28.6475 15.124C29.0717 14.4916 29.41 13.8087 29.6416 13.0762C29.7191 12.8309 29.7816 12.5831 29.833 12.334Z" fill="white" fill-opacity="0.2"/>
</svg>
