<svg version="1.1" id="Calque_1" xmlns="http://www.w3.org/2000/svg" xmlns:xlink="http://www.w3.org/1999/xlink" x="0px" y="0px" width="82px" height="60px" viewBox="0 0 82 60" enable-background="new 0 0 82 60" xml:space="preserve">
  <g>
    <rect fill="none" width="82" height="60"/>
    <g>
      <g transform="translate(6 17)">
        <polygon fill="#C7C7C7" points="27.15,-0.5 27.15,1.5 4.15,1.5 4.15,-0.5"/>
        <path fill="#595959" d="M27.15,5.5v1h-23v-1H27.15z M32.15,3.5v1h-28v-1H32.15z"/>
          <linearGradient id="SVGID_1_" gradientUnits="userSpaceOnUse" x1="-348.9588" y1="237.3286" x2="-348.9588" y2="236.3286" gradientTransform="matrix(25.5 0 0 -3.5 8915.5996 843.4)">
          <stop  offset="0" style="stop-color:#00CECC"/>
          <stop  offset="1" style="stop-color:#00A09D"/>
        </linearGradient>
        <path fill="none" stroke="url(#SVGID_1_)" stroke-width="0.5" d="M11.9,12.75v3.5H4.4v-3.5H11.9z M20.9,12.75v3.5h-7.5v-3.5H20.9
          z M29.9,12.75v3.5h-7.5v-3.5H29.9z"/>
          <linearGradient id="SVGID_2_" gradientUnits="userSpaceOnUse" x1="-341.9382" y1="259.7233" x2="-340.9382" y2="259.6367" gradientTransform="matrix(17 0 0 -5 5817.1001 1322.4)">
          <stop  offset="0" style="stop-color:#00A09D"/>
          <stop  offset="1" style="stop-color:#00E2FF"/>
        </linearGradient>
        <rect x="4.15" y="21.5" fill="url(#SVGID_2_)" width="17" height="5"/>
      </g>
      <g transform="translate(50 16)">
        <polyline fill="none" stroke="#C7C7C7" stroke-width="1.5" stroke-linecap="round" stroke-linejoin="round" points="
          19.51,13.722 19.51,25.581 0.79,25.581 0.79,13.722"/>
          <rect x="-1.55" y="7.792" fill="none" stroke="#C7C7C7" stroke-width="1.5" stroke-linecap="round" stroke-linejoin="round" width="23.4" height="5.929"/>
          <linearGradient id="SVGID_3_" gradientUnits="userSpaceOnUse" x1="-31.95" y1="301.7421" x2="-31.95" y2="300.7921" gradientTransform="matrix(1 0 0 -20.912 42.1 6316.312)">
          <stop  offset="0" style="stop-color:#00CECC"/>
          <stop  offset="1" style="stop-color:#00A09D"/>
        </linearGradient>
          <line fill="none" stroke="url(#SVGID_3_)" stroke-linecap="square" stroke-linejoin="round" x1="10.15" y1="25.625" x2="10.15" y2="6.804"/>
          <linearGradient id="SVGID_4_" gradientUnits="userSpaceOnUse" x1="-387.3105" y1="273.8488" x2="-387.3105" y2="272.8988" gradientTransform="matrix(18.2 0 0 -6.588 7059.2002 1804.8259)">
          <stop  offset="0" style="stop-color:#00CECC"/>
          <stop  offset="1" style="stop-color:#00A09D"/>
        </linearGradient>
        <path fill="none" stroke="url(#SVGID_4_)" stroke-linecap="round" stroke-linejoin="round" d="M4.885,0.875
          c4.095,0,5.265,5.929,5.265,5.929H4.885C3.27,6.804,1.96,5.477,1.96,3.84C1.96,2.202,3.27,0.875,4.885,0.875z M15.415,0.875
          c1.616,0,2.925,1.328,2.925,2.965c0,1.638-1.309,2.965-2.925,2.965l0,0H10.15C10.15,6.804,11.32,0.875,15.415,0.875z"/>
      </g>
    </g>
  </g>
</svg>