<svg width="30" height="30" viewBox="0 0 30 30" xmlns="http://www.w3.org/2000/svg">
    <path d="M21.75 0C24.1 0 26.0627 0.715007 27.6377 2.14551C29.2127 3.57602 30 5.35875 30 7.49316C30 8.53765 29.8064 9.55952 29.4189 10.5586C29.0314 11.5577 28.35 12.6536 27.375 13.8457C26.6382 14.7466 25.7073 15.7336 24.585 16.8096C23.7097 14.5797 21.5404 13 19 13H11C8.4595 13 6.28923 14.5795 5.41406 16.8096C4.29198 15.7338 3.36172 14.7464 2.625 13.8457C1.65 12.6536 0.968555 11.5577 0.581055 10.5586C0.193569 9.55952 0 8.53765 0 7.49316C5.88997e-06 5.35875 0.78731 3.57602 2.3623 2.14551C3.9373 0.715006 5.90001 6.65198e-08 8.25 0C9.55 0 10.7879 0.249478 11.9629 0.749023C13.1378 1.24856 14.1501 1.95312 15 2.86133C15.8499 1.95312 16.8622 1.24856 18.0371 0.749023C19.2121 0.249478 20.45 1.10704e-07 21.75 0Z" fill="white" fill-opacity="0.2"/>
    <path d="M14.1607 30C13.875 30 13.6012 29.9484 13.3393 29.8453C13.0774 29.7422 12.8452 29.5932 12.6429 29.3984L9 25.875L9.58929 25.2906C9.75595 25.1302 9.95833 25.0214 10.1964 24.9641C10.4345 24.9068 10.6726 24.9068 10.9107 24.9641L12.1429 25.3078V19.6875C12.1429 19.4927 12.2113 19.3294 12.3482 19.1977C12.4851 19.0659 12.6548 19 12.8571 19C13.0595 19 13.2292 19.0659 13.3661 19.1977C13.503 19.3294 13.5714 19.4927 13.5714 19.6875V24.5H14.2857V22.4375C14.2857 22.2427 14.3542 22.0794 14.4911 21.9477C14.628 21.8159 14.7976 21.75 15 21.75C15.2024 21.75 15.372 21.8159 15.5089 21.9477C15.6458 22.0794 15.7143 22.2427 15.7143 22.4375V24.5H16.4286V23.125C16.4286 22.9302 16.497 22.7669 16.6339 22.6352C16.7708 22.5034 16.9405 22.4375 17.1429 22.4375C17.3452 22.4375 17.5149 22.5034 17.6518 22.6352C17.7887 22.7669 17.8571 22.9302 17.8571 23.125V24.5H18.5714C18.5714 24.3052 18.6399 24.1419 18.7768 24.0102C18.9137 23.8784 19.0833 23.8125 19.2857 23.8125C19.4881 23.8125 19.6577 23.8784 19.7946 24.0102C19.9315 24.1419 20 24.3052 20 24.5V27.25C20 28.0062 19.7202 28.6536 19.1607 29.1922C18.6012 29.7307 17.9286 30 17.1429 30H14.1607Z" fill="white"/>
    <path d="M19 15C21.2091 15 23 16.7909 23 19C23 20.914 21.6554 22.5129 19.8594 22.9062C19.7271 22.8614 19.5902 22.8317 19.4502 22.8193L19.2861 22.8125C19.133 22.8125 18.9818 22.8316 18.8359 22.8691C18.7911 22.5646 18.6685 22.2808 18.4648 22.041L18.3457 21.915L18.2148 21.8008C17.9026 21.5549 17.5295 21.4375 17.1426 21.4375C16.9107 21.4375 16.6843 21.4806 16.4727 21.5674C16.4277 21.4934 16.3787 21.4211 16.3213 21.3535L16.2021 21.2275L16.0723 21.1133C15.8046 20.9025 15.4924 20.7858 15.165 20.7568L15 20.75C14.8542 20.75 14.7106 20.7678 14.5713 20.8018V19.6875C14.5713 19.2859 14.4386 18.9094 14.1787 18.6035L14.0596 18.4775L13.9297 18.3633C13.6621 18.1524 13.3498 18.0359 13.0225 18.0068L12.8574 18C12.415 18 11.9905 18.154 11.6543 18.4775C11.3163 18.803 11.1426 19.2288 11.1426 19.6875V23H11C8.79086 23 7 21.2091 7 19C7 16.7909 8.79086 15 11 15H19Z" fill="white"/>
</svg>
