<svg xmlns="http://www.w3.org/2000/svg" xmlns:xlink="http://www.w3.org/1999/xlink" width="82" height="60" viewBox="0 0 82 60">
  <defs>
    <linearGradient id="linearGradient" x1="50%" x2="50%" y1="0%" y2="100%">
      <stop offset="0%" stop-color="#00A09D"/>
      <stop offset="100%" stop-color="#00E2FF"/>
    </linearGradient>
  </defs>
  <g fill="none" fill-rule="evenodd" class="snippets_thumbs">
    <g class="s_embed_code">
      <rect width="82" height="60" class="bg"/>
      <g class="group_2" transform="translate(20 11)">
        <path fill="url(#linearGradient)" d="M2 5l-10 10l10 10l-7 -10z"/>
        <path fill="url(#linearGradient)" d="M40 5l10 10l-10 10l7 -10z"/>
        <rect fill="#000" width="12" height="2" x="9" y="0"/>
        <rect fill="#FFF" fill-opacity=".78" width="12" height="2" x="9" y="0"/>
        <rect fill="#000" width="20" height="2" x="13" y="5"/>
        <rect fill="#FFF" fill-opacity=".348" width="20" height="2" x="13" y="5"/>
        <rect fill="#000" width="16" height="2" x="13" y="10"/>
        <rect fill="#FFF" fill-opacity=".348" width="16" height="2" x="13" y="10"/>
        <rect fill="#000" width="22" height="2" x="13" y="15"/>
        <rect fill="#FFF" fill-opacity=".348" width="22" height="2" x="13" y="15"/>
        <rect fill="#000" width="14" height="2" x="13" y="20"/>
        <rect fill="#FFF" fill-opacity=".348" width="14" height="2" x="13" y="20"/>
        <rect fill="#000" width="8" height="2" x="9" y="25"/>
        <rect fill="#FFF" fill-opacity=".78" width="8" height="2" x="9" y="25"/>
      </g>
    </g>
  </g>
</svg>
