<svg width="30" height="30" viewBox="0 0 30 30" xmlns="http://www.w3.org/2000/svg">
    <path d="M28 28.999C28 29.5513 27.5523 29.999 27 29.999H26C25.4477 29.999 25 29.5513 25 28.999V26.999H21.583C20.8114 28.7647 19.0502 29.999 17 29.999C14.2386 29.999 12 27.7604 12 24.999C12 22.2376 14.2386 19.999 17 19.999C19.0502 19.999 20.8114 21.2333 21.583 22.999H30V25.999C30 26.5513 29.5523 26.999 29 26.999H28V28.999Z" fill="white"/>
    <path d="M20 4L28.6289 0.548828C29.2856 0.286286 29.9997 0.769412 30 1.47656V19.999H27V4.43066L20 7.23145L10 3.23047L3 6.03125V25.5684L9.23438 23.0742C9.08205 23.6908 9 24.3353 9 24.999C9 25.4608 9.04013 25.9132 9.11523 26.3535L1.37109 29.4512C0.755458 29.6973 0.0889396 29.2882 0.0078125 28.6533L0 28.5234V4.67676C0.000111451 4.26796 0.249333 3.90085 0.628906 3.74902L10 0L20 4Z" fill="white" fill-opacity="0.2"/>
    <path d="M10 20.6143L5 22.6133V7.38477L10 5.38379V20.6143Z" fill="white"/>
    <path d="M25 19.999H23.2422C22.3932 18.94 21.2789 18.1026 20 17.584V9.38574L25 7.38379V19.999Z" fill="white"/>
    <path d="M18 8.58496V17.0615C17.6725 17.0206 17.3388 16.999 17 16.999C15.1076 16.999 13.3698 17.6574 12 18.7559V6.18359L18 8.58496Z" fill="white"/>
</svg>
