<svg width="30" height="30" viewBox="0 0 30 30" xmlns="http://www.w3.org/2000/svg">
    <path d="M7.5 0L15 13H0L7.5 0Z" fill="white"/>
    <path d="M22.5 13L21.4125 12.079C20.15 11.0045 19.1063 10.0777 18.2813 9.29837C17.4563 8.51907 16.8 7.81948 16.3125 7.19959C15.825 6.5797 15.4844 6.00999 15.2906 5.49046C15.0969 4.97094 15 4.4396 15 3.89646C15 2.78656 15.3938 1.85967 16.1813 1.1158C16.9688 0.371935 17.95 0 19.125 0C19.775 0 20.3938 0.129882 20.9813 0.389646C21.5688 0.64941 22.075 1.01544 22.5 1.48774C22.925 1.01544 23.4313 0.64941 24.0188 0.389646C24.6063 0.129882 25.225 0 25.875 0C27.05 0 28.0313 0.371935 28.8188 1.1158C29.6063 1.85967 30 2.78656 30 3.89646C30 4.4396 29.9031 4.97094 29.7094 5.49046C29.5156 6.00999 29.175 6.5797 28.6875 7.19959C28.2 7.81948 27.5438 8.51907 26.7188 9.29837C25.8938 10.0777 24.85 11.0045 23.5875 12.079L22.5 13Z" fill="white"/>
    <circle cx="6.5" cy="23.5" r="6.5" fill="white" fill-opacity="0.2"/>
    <rect x="17" y="17" width="13" height="13" rx="1" fill="white"/>
</svg>
