<svg width="82" height="60" viewBox="0 0 82 60" fill="none" xmlns="http://www.w3.org/2000/svg">
    <circle cx="18" cy="21" r="3" fill="#D9D9D9"/>
    <circle cx="18" cy="21" r="3" fill="url(#paint0_linear_2_164)"/>
    <circle cx="18" cy="30" r="3" fill="url(#paint1_linear_2_164)"/>
    <circle cx="18" cy="39" r="3" fill="url(#paint2_linear_2_164)"/>
    <g filter="url(#filter0_i_2_164)">
        <path d="M24 20H59V22H24V20Z" fill="black"/>
        <path d="M24 29H67V31H24V29Z" fill="black"/>
        <path d="M24 38H52V40H24V38Z" fill="black"/>
    </g>
    <path d="M24 20H59V22H24V20Z" fill="white" fill-opacity="0.66"/>
    <path d="M24 29H67V31H24V29Z" fill="white" fill-opacity="0.66"/>
    <path d="M24 38H52V40H24V38Z" fill="white" fill-opacity="0.66"/>
    <defs>
        <filter id="filter0_i_2_164" x="24" y="20" width="43" height="21" filterUnits="userSpaceOnUse" color-interpolation-filters="sRGB">
            <feFlood flood-opacity="0" result="BackgroundImageFix"/>
            <feBlend mode="normal" in="SourceGraphic" in2="BackgroundImageFix" result="shape"/>
            <feColorMatrix in="SourceAlpha" type="matrix" values="0 0 0 0 0 0 0 0 0 0 0 0 0 0 0 0 0 0 127 0" result="hardAlpha"/>
            <feOffset dy="1"/>
            <feGaussianBlur stdDeviation="2"/>
            <feComposite in2="hardAlpha" operator="arithmetic" k2="-1" k3="1"/>
            <feColorMatrix type="matrix" values="0 0 0 0 1 0 0 0 0 1 0 0 0 0 1 0 0 0 0.0995138 0"/>
            <feBlend mode="normal" in2="shape" result="effect1_innerShadow_2_164"/>
        </filter>
        <linearGradient id="paint0_linear_2_164" x1="9" y1="12" x2="26.5" y2="47.5" gradientUnits="userSpaceOnUse">
            <stop stop-color="#00A09D"/>
            <stop offset="1" stop-color="#00E2FF"/>
        </linearGradient>
        <linearGradient id="paint1_linear_2_164" x1="9" y1="21" x2="26.5" y2="56.5" gradientUnits="userSpaceOnUse">
            <stop stop-color="#00A09D"/>
            <stop offset="1" stop-color="#00E2FF"/>
        </linearGradient>
        <linearGradient id="paint2_linear_2_164" x1="9" y1="30" x2="26.5" y2="65.5" gradientUnits="userSpaceOnUse">
            <stop stop-color="#00A09D"/>
            <stop offset="1" stop-color="#00E2FF"/>
        </linearGradient>
    </defs>
</svg>