<svg width="30" height="30" viewBox="0 0 30 30" xmlns="http://www.w3.org/2000/svg">
    <path d="M3 6.03125V25.5684L10 22.7686L19.999 26.7686L27 23.9678V4.43066L20 7.23145L10 3.23047L3 6.03125ZM29.9883 25.4736C29.9355 25.8202 29.7034 26.1181 29.3711 26.251L20 30L10 26L1.37109 29.4512C0.755458 29.6973 0.0889396 29.2882 0.0078125 28.6533L0 28.5234V4.67676C0.000111451 4.26796 0.249333 3.90085 0.628906 3.74902L10 0L20 4L28.6289 0.548828C29.2856 0.286286 29.9997 0.769412 30 1.47656V25.3232L29.9883 25.4736Z" fill="white" fill-opacity="0.2"/>
    <path d="M25 22.6133L20 24.6133V9.38574L25 7.38379V22.6133Z" fill="white"/>
    <path d="M18 8.58496V23.8145L12 21.4141V6.18359L18 8.58496Z" fill="white"/>
    <path d="M10 20.6143L5 22.6133V7.38477L10 5.38379V20.6143Z" fill="white"/>
</svg>
