<svg width="82" height="60" viewBox="0 0 82 60" fill="none" xmlns="http://www.w3.org/2000/svg">
  <circle cx="14" cy="22" r="2" fill="#01A19E"/>
  <rect x="17" y="21" width="6" height="2" fill="#C6C5C5"/>
  <circle cx="27" cy="22" r="2" fill="#01A19E"/>
  <rect x="30" y="21" width="6" height="2" fill="#C6C5C5"/>
  <circle cx="40" cy="22" r="2" fill="#01A19E"/>
  <rect x="43" y="21" width="6" height="2" fill="#C6C5C5"/>
  <circle cx="14" cy="30" r="2" fill="#01A19E"/>
  <rect x="17" y="29" width="6" height="2" fill="#C6C5C5"/>
  <circle cx="27" cy="30" r="2" fill="#01A19E"/>
  <rect x="30" y="29" width="6" height="2" fill="#C6C5C5"/>
  <circle cx="40" cy="30" r="2" fill="#01A19E"/>
  <rect x="43" y="29" width="6" height="2" fill="#C6C5C5"/>
  <circle cx="14" cy="38" r="2" fill="#01A19E"/>
  <rect x="17" y="37" width="6" height="2" fill="#C6C5C5"/>
  <circle cx="27" cy="38" r="2" fill="#01A19E"/>
  <rect x="30" y="37" width="6" height="2" fill="#C6C5C5"/>
  <circle cx="40" cy="38" r="2" fill="#01A19E"/>
  <rect x="43" y="37" width="6" height="2" fill="#C6C5C5"/>
  <path d="M68 23H54V25H68V23Z" fill="#C6C5C5"/>
  <path d="M66 27H54V28H66V27Z" fill="#858585"/>
  <path d="M66 31H54V32H66V31Z" fill="#858585"/>
  <path d="M65 29H54V30H65V29Z" fill="#858585"/>
  <path d="M61 34H55C54.4477 34 54 34.4477 54 35C54 35.5523 54.4477 36 55 36H61C61.5523 36 62 35.5523 62 35C62 34.4477 61.5523 34 61 34Z" fill="#01A19E"/>
</svg>
