<svg width="82" height="60" viewBox="0 0 82 60" fill="none" xmlns="http://www.w3.org/2000/svg">
  <g clip-path="url(#clip0_18_2501)">
    <rect x="17" y="10" width="14" height="7" fill="#79D1F2"/>
    <circle cx="27" cy="13" r="2" fill="#F3EC60"/>
    <ellipse cx="34.5" cy="20" rx="12.5" ry="7" fill="#016B5A"/>
    <ellipse cx="12.5" cy="19.5" rx="15.5" ry="7.5" fill="#019A8A"/>
  </g>
  <rect x="17.5" y="10.5" width="13" height="6" stroke="white"/>
  <path d="M31 20H17V22H31V20Z" fill="#C6C5C5"/>
  <path d="M30 24H18V25H30V24Z" fill="#858585"/>
  <path d="M29.5 27H18.5V28H29.5V27Z" fill="#858585"/>
  <g clip-path="url(#clip1_18_2501)">
    <rect x="34" y="10" width="14" height="7" fill="#79D1F2"/>
    <circle cx="44" cy="13" r="2" fill="#F3EC60"/>
    <ellipse cx="51.5" cy="20" rx="12.5" ry="7" fill="#016B5A"/>
    <ellipse cx="29.5" cy="19.5" rx="15.5" ry="7.5" fill="#019A8A"/>
  </g>
  <rect x="34.5" y="10.5" width="13" height="6" stroke="white"/>
  <path d="M48 20H34V22H48V20Z" fill="#C6C5C5"/>
  <path d="M47 24H35V25H47V24Z" fill="#858585"/>
  <path d="M46.5 27H35.5V28H46.5V27Z" fill="#858585"/>
  <g clip-path="url(#clip2_18_2501)">
    <rect x="51" y="10" width="14" height="7" fill="#79D1F2"/>
    <circle cx="61" cy="13" r="2" fill="#F3EC60"/>
    <ellipse cx="68.5" cy="20" rx="12.5" ry="7" fill="#016B5A"/>
    <ellipse cx="46.5" cy="19.5" rx="15.5" ry="7.5" fill="#019A8A"/>
  </g>
  <rect x="51.5" y="10.5" width="13" height="6" stroke="white"/>
  <path d="M65 20H51V22H65V20Z" fill="#C6C5C5"/>
  <path d="M64 24H52V25H64V24Z" fill="#858585"/>
  <path d="M63.5 27H52.5V28H63.5V27Z" fill="#858585"/>
  <g clip-path="url(#clip3_18_2501)">
    <rect x="17" y="32" width="14" height="7" fill="#79D1F2"/>
    <circle cx="27" cy="35" r="2" fill="#F3EC60"/>
    <ellipse cx="34.5" cy="42" rx="12.5" ry="7" fill="#016B5A"/>
    <ellipse cx="12.5" cy="41.5" rx="15.5" ry="7.5" fill="#019A8A"/>
  </g>
  <rect x="17.5" y="32.5" width="13" height="6" stroke="white"/>
  <path d="M31 42H17V44H31V42Z" fill="#C6C5C5"/>
  <path d="M30 46H18V47H30V46Z" fill="#858585"/>
  <path d="M29.5 49H18.5V50H29.5V49Z" fill="#858585"/>
  <g clip-path="url(#clip4_18_2501)">
    <rect x="34" y="32" width="14" height="7" fill="#79D1F2"/>
    <circle cx="44" cy="35" r="2" fill="#F3EC60"/>
    <ellipse cx="51.5" cy="42" rx="12.5" ry="7" fill="#016B5A"/>
    <ellipse cx="29.5" cy="41.5" rx="15.5" ry="7.5" fill="#019A8A"/>
  </g>
  <rect x="34.5" y="32.5" width="13" height="6" stroke="white"/>
  <path d="M48 42H34V44H48V42Z" fill="#C6C5C5"/>
  <path d="M47 46H35V47H47V46Z" fill="#858585"/>
  <path d="M46.5 49H35.5V50H46.5V49Z" fill="#858585"/>
  <g clip-path="url(#clip5_18_2501)">
    <rect x="51" y="32" width="14" height="7" fill="#79D1F2"/>
    <circle cx="61" cy="35" r="2" fill="#F3EC60"/>
    <ellipse cx="68.5" cy="42" rx="12.5" ry="7" fill="#016B5A"/>
    <ellipse cx="46.5" cy="41.5" rx="15.5" ry="7.5" fill="#019A8A"/>
  </g>
  <rect x="51.5" y="32.5" width="13" height="6" stroke="white"/>
  <path d="M65 42H51V44H65V42Z" fill="#C6C5C5"/>
  <path d="M64 46H52V47H64V46Z" fill="#858585"/>
  <path d="M63.5 49H52.5V50H63.5V49Z" fill="#858585"/>
  <defs>
    <clipPath id="clip0_18_2501">
      <rect x="17" y="10" width="14" height="7" fill="white"/>
    </clipPath>
    <clipPath id="clip1_18_2501">
      <rect x="34" y="10" width="14" height="7" fill="white"/>
    </clipPath>
    <clipPath id="clip2_18_2501">
      <rect x="51" y="10" width="14" height="7" fill="white"/>
    </clipPath>
    <clipPath id="clip3_18_2501">
      <rect x="17" y="32" width="14" height="7" fill="white"/>
    </clipPath>
    <clipPath id="clip4_18_2501">
      <rect x="34" y="32" width="14" height="7" fill="white"/>
    </clipPath>
    <clipPath id="clip5_18_2501">
      <rect x="51" y="32" width="14" height="7" fill="white"/>
    </clipPath>
  </defs>
</svg>
