<svg width="220" height="80" viewBox="0 0 220 80" fill="none" xmlns="http://www.w3.org/2000/svg">
<path d="M10 11C10 10.4477 10.4477 10 11 10H209C209.552 10 210 10.4477 210 11V50C210 50.5523 209.552 51 209 51H11C10.4477 51 10 50.5523 10 50V11Z" fill="white"/>
<rect x="32" y="16" width="18" height="3" rx="1" fill="#2B2B33"/>
<rect x="94" y="16" width="18" height="3" rx="1" fill="#2B2B33"/>
<rect x="158" y="16" width="18" height="3" rx="1" fill="#2B2B33"/>
<rect x="94" y="27" width="18" height="3" rx="1" fill="#2B2B33"/>
<rect x="32" y="27" width="18" height="3" rx="1" fill="#2B2B33"/>
<rect x="94" y="38" width="18" height="3" rx="1" fill="#2B2B33"/>
<rect x="158" y="27" width="18" height="3" rx="1" fill="#2B2B33"/>
<rect x="94" y="21" width="42" height="2" rx="1" fill="#2B2B33"/>
<rect x="32" y="38" width="18" height="3" rx="1" fill="#2B2B33"/>
<rect x="94" y="32" width="42" height="2" rx="1" fill="#2B2B33"/>
<rect x="158" y="38" width="18" height="3" rx="1" fill="#2B2B33"/>
<rect x="94" y="43" width="42" height="2" rx="1" fill="#2B2B33"/>
<rect x="32" y="21" width="40" height="2" rx="1" fill="#2B2B33"/>
<circle cx="87.5" cy="19.5" r="3.5" fill="#2B2B33"/>
<rect x="158" y="21" width="40" height="2" rx="1" fill="#2B2B33"/>
<circle cx="87.5" cy="30.5" r="3.5" fill="#2B2B33"/>
<rect x="32" y="32" width="40" height="2" rx="1" fill="#2B2B33"/>
<circle cx="87.5" cy="41.5" r="3.5" fill="#2B2B33"/>
<rect x="158" y="32" width="40" height="2" rx="1" fill="#2B2B33"/>
<rect x="32" y="43" width="40" height="2" rx="1" fill="#2B2B33"/>
<rect x="158" y="43" width="40" height="2" rx="1" fill="#2B2B33"/>
<circle cx="25.5" cy="19.5" r="3.5" fill="#2B2B33"/>
<circle cx="151.5" cy="19.5" r="3.5" fill="#2B2B33"/>
<circle cx="25.5" cy="30.5" r="3.5" fill="#2B2B33"/>
<circle cx="151.5" cy="30.5" r="3.5" fill="#2B2B33"/>
<circle cx="25.5" cy="41.5" r="3.5" fill="#2B2B33"/>
<circle cx="151.5" cy="41.5" r="3.5" fill="#2B2B33"/>
<rect x="10" y="54" width="200" height="16" rx="1" fill="white" fill-opacity="0.2"/>
</svg>
