<svg width="82" height="60" viewBox="0 0 82 60" fill="none" xmlns="http://www.w3.org/2000/svg">
  <path d="M24 13H12V15H24V13Z" fill="#C6C5C5"/>
  <path d="M22.2857 17H12V18H22.2857V17Z" fill="#858585"/>
  <path d="M22.2857 19H12V20H22.2857V19Z" fill="#858585"/>
  <path d="M22.2857 21H12V22H22.2857V21Z" fill="#858585"/>
  <path d="M38 13H26V15H38V13Z" fill="#C6C5C5"/>
  <path d="M36.2857 17H26V18H36.2857V17Z" fill="#858585"/>
  <path d="M36.2857 19H26V20H36.2857V19Z" fill="#858585"/>
  <path d="M36.2857 21H26V22H36.2857V21Z" fill="#858585"/>
  <path d="M52 13H40V15H52V13Z" fill="#C6C5C5"/>
  <path d="M50.2857 17H40V18H50.2857V17Z" fill="#858585"/>
  <path d="M50.2857 19H40V20H50.2857V19Z" fill="#858585"/>
  <path d="M50.2857 21H40V22H50.2857V21Z" fill="#858585"/>
  <path d="M24 26H12V28H24V26Z" fill="#C6C5C5"/>
  <path d="M22.2857 30H12V31H22.2857V30Z" fill="#858585"/>
  <path d="M22.2857 32H12V33H22.2857V32Z" fill="#858585"/>
  <path d="M22.2857 34H12V35H22.2857V34Z" fill="#858585"/>
  <path d="M38 26H26V28H38V26Z" fill="#C6C5C5"/>
  <path d="M36.2857 30H26V31H36.2857V30Z" fill="#858585"/>
  <path d="M36.2857 32H26V33H36.2857V32Z" fill="#858585"/>
  <path d="M36.2857 34H26V35H36.2857V34Z" fill="#858585"/>
  <path d="M52 26H40V28H52V26Z" fill="#C6C5C5"/>
  <path d="M50.2857 30H40V31H50.2857V30Z" fill="#858585"/>
  <path d="M50.2857 32H40V33H50.2857V32Z" fill="#858585"/>
  <path d="M50.2857 34H40V35H50.2857V34Z" fill="#858585"/>
  <g clip-path="url(#clip0_18_3550)">
    <rect x="57.5" y="17" width="11" height="10" fill="#79D1F2"/>
    <ellipse cx="68" cy="27.5" rx="5.5" ry="3.5" fill="#016B5A"/>
    <ellipse cx="57.5" cy="27.5" rx="8" ry="4.5" fill="#019A8A"/>
    <circle cx="67.5" cy="20" r="2" fill="#F3EC60"/>
  </g>
  <rect x="58" y="17.5" width="10" height="9" stroke="white"/>
  <rect x="56" y="29" width="14" height="2" fill="#C6C5C5"/>
  <rect width="58" height="8" transform="translate(12 39)" fill="#DFDFDF"/>
  <rect x="17" y="42" width="6" height="2" fill="#858585"/>
  <rect x="31" y="42" width="6" height="2" fill="#858585"/>
  <rect x="45" y="42" width="6" height="2" fill="#858585"/>
  <rect x="59" y="42" width="6" height="2" fill="#858585"/>
  <defs>
    <clipPath id="clip0_18_3550">
      <rect x="57.5" y="17" width="11" height="10" fill="white"/>
    </clipPath>
  </defs>
</svg>
