<svg width="82" height="60" viewBox="0 0 82 60" fill="none" xmlns="http://www.w3.org/2000/svg">
  <path d="M24 26H12V27H24V26Z" fill="#858585"/>
  <path d="M24 32H12V33H24V32Z" fill="#858585"/>
  <path d="M23 29H12V30H23V29Z" fill="#858585"/>
  <path d="M26 17H12V19H26V17Z" fill="#C6C5C5"/>
  <path d="M26 21H12V22H26V21Z" fill="#01A19E"/>
  <path d="M46 26H34V27H46V26Z" fill="#858585"/>
  <path d="M46 32H34V33H46V32Z" fill="#858585"/>
  <path d="M45 29H34V30H45V29Z" fill="#858585"/>
  <path d="M48 17H34V19H48V17Z" fill="#C6C5C5"/>
  <path d="M48 21H34V22H48V21Z" fill="#01A19E"/>
  <path d="M68 26H56V27H68V26Z" fill="#858585"/>
  <path d="M68 32H56V33H68V32Z" fill="#858585"/>
  <path d="M67 29H56V30H67V29Z" fill="#858585"/>
  <path d="M70 17H56V19H70V17Z" fill="#C6C5C5"/>
  <path d="M70 21H56V22H70V21Z" fill="#01A19E"/>
  <rect width="58" height="6" transform="translate(12 37)" fill="#DFDFDF"/>
  <circle cx="29" cy="40" r="2" fill="#01A19E"/>
  <circle cx="35" cy="40" r="2" fill="#01A19E"/>
  <circle cx="41" cy="40" r="2" fill="#01A19E"/>
  <circle cx="47" cy="40" r="2" fill="#01A19E"/>
  <circle cx="53" cy="40" r="2" fill="#01A19E"/>
</svg>
