<svg width="82" height="60" viewBox="0 0 82 60" fill="none" xmlns="http://www.w3.org/2000/svg">
  <path d="M26 23.5H12V25.5H26V23.5Z" fill="#C6C5C5"/>
  <path d="M25 29.5H13V30.5H25V29.5Z" fill="#858585"/>
  <path d="M24.5 32.5H13.5V33.5H24.5V32.5Z" fill="#858585"/>
  <path d="M25 35.5H13V36.5H25V35.5Z" fill="#858585"/>
  <path d="M48 23.5H34V25.5H48V23.5Z" fill="#C6C5C5"/>
  <path d="M47 29.5H35V30.5H47V29.5Z" fill="#858585"/>
  <path d="M46.5 32.5H35.5V33.5H46.5V32.5Z" fill="#858585"/>
  <path d="M47 35.5H35V36.5H47V35.5Z" fill="#858585"/>
  <path d="M70 23.5H56V25.5H70V23.5Z" fill="#C6C5C5"/>
  <path d="M69 29.5H57V30.5H69V29.5Z" fill="#858585"/>
  <path d="M68.5 32.5H57.5V33.5H68.5V32.5Z" fill="#858585"/>
  <path d="M69 35.5H57V36.5H69V35.5Z" fill="#858585"/>
</svg>
