<svg width="220" height="80" viewBox="0 0 220 80" fill="none" xmlns="http://www.w3.org/2000/svg">
<path d="M10 11C10 10.4477 10.4477 10 11 10H209C209.552 10 210 10.4477 210 11V63C210 63.5523 209.552 64 209 64H11C10.4477 64 10 63.5523 10 63V11Z" fill="white"/>
<path d="M175 52H161C159.343 52 158 53.3431 158 55C158 56.6569 159.343 58 161 58H175C176.657 58 178 56.6569 178 55C178 53.3431 176.657 52 175 52Z" fill="#2B2B33"/>
<rect x="32" y="16" width="18" height="3" rx="1" fill="#2B2B33"/>
<rect x="94" y="16" width="18" height="3" rx="1" fill="#2B2B33"/>
<rect x="158" y="37" width="18" height="3" rx="1" fill="#2B2B33"/>
<rect x="94" y="27" width="18" height="3" rx="1" fill="#2B2B33"/>
<rect x="32" y="27" width="18" height="3" rx="1" fill="#2B2B33"/>
<rect x="94" y="38" width="18" height="3" rx="1" fill="#2B2B33"/>
<rect x="94" y="21" width="42" height="2" rx="1" fill="#2B2B33"/>
<rect x="32" y="38" width="18" height="3" rx="1" fill="#2B2B33"/>
<rect x="94" y="32" width="42" height="2" rx="1" fill="#2B2B33"/>
<rect x="94" y="43" width="42" height="2" rx="1" fill="#2B2B33"/>
<rect x="32" y="21" width="40" height="2" rx="1" fill="#2B2B33"/>
<rect x="158" y="43" width="40" height="2" rx="1" fill="#2B2B33"/>
<rect x="158" y="47" width="40" height="2" rx="1" fill="#2B2B33"/>
<rect x="32" y="32" width="40" height="2" rx="1" fill="#2B2B33"/>
<rect x="32" y="43" width="40" height="2" rx="1" fill="#2B2B33"/>
<rect x="22" y="38" width="7" height="7" rx="1" fill="#2B2B33"/>
<rect x="84" y="38" width="7" height="7" rx="1" fill="#2B2B33"/>
<rect x="158" y="16" width="40" height="18" rx="1" fill="#D9D9D9"/>
<path d="M174.78 30.8086L178.753 26.9785L185.999 34H158.999C158.557 34 158.183 33.7135 158.051 33.3164L167.719 24L174.78 30.8086Z" fill="#2B2B33"/>
<rect x="22" y="16" width="7" height="7" rx="1" fill="#2B2B33"/>
<rect x="84" y="16" width="7" height="7" rx="1" fill="#2B2B33"/>
<rect x="22" y="27" width="7" height="7" rx="1" fill="#2B2B33"/>
<rect x="84" y="27" width="7" height="7" rx="1" fill="#2B2B33"/>
<rect x="10" y="67" width="200" height="3" rx="1" fill="white" fill-opacity="0.3"/>
</svg>
