<svg width="82" height="60" viewBox="0 0 82 60" fill="none" xmlns="http://www.w3.org/2000/svg">
  <g clip-path="url(#clip0_18_2442)">
    <rect x="14" y="11" width="10" height="10" fill="#79D1F2"/>
    <ellipse cx="23.5" cy="21.5" rx="5.5" ry="3.5" fill="#016B5A"/>
    <ellipse cx="13" cy="21.5" rx="8" ry="4.5" fill="#019A8A"/>
    <circle cx="23" cy="14" r="2" fill="#F3EC60"/>
  </g>
  <rect x="14.5" y="11.5" width="9" height="9" stroke="white"/>
  <g clip-path="url(#clip1_18_2442)">
    <rect x="26" y="11" width="10" height="10" fill="#79D1F2"/>
    <ellipse cx="35.5" cy="21.5" rx="5.5" ry="3.5" fill="#016B5A"/>
    <ellipse cx="25" cy="21.5" rx="8" ry="4.5" fill="#019A8A"/>
    <circle cx="35" cy="14" r="2" fill="#F3EC60"/>
  </g>
  <rect x="26.5" y="11.5" width="9" height="9" stroke="white"/>
  <g clip-path="url(#clip2_18_2442)">
    <rect x="38" y="11" width="10" height="10" fill="#79D1F2"/>
    <ellipse cx="47.5" cy="21.5" rx="5.5" ry="3.5" fill="#016B5A"/>
    <ellipse cx="37" cy="21.5" rx="8" ry="4.5" fill="#019A8A"/>
    <circle cx="47" cy="14" r="2" fill="#F3EC60"/>
  </g>
  <rect x="38.5" y="11.5" width="9" height="9" stroke="white"/>
  <g clip-path="url(#clip3_18_2442)">
    <rect x="14" y="23" width="10" height="10" fill="#79D1F2"/>
    <ellipse cx="23.5" cy="33.5" rx="5.5" ry="3.5" fill="#016B5A"/>
    <ellipse cx="13" cy="33.5" rx="8" ry="4.5" fill="#019A8A"/>
    <circle cx="23" cy="26" r="2" fill="#F3EC60"/>
  </g>
  <rect x="14.5" y="23.5" width="9" height="9" stroke="white"/>
  <g clip-path="url(#clip4_18_2442)">
    <rect x="26" y="23" width="10" height="10" fill="#79D1F2"/>
    <ellipse cx="35.5" cy="33.5" rx="5.5" ry="3.5" fill="#016B5A"/>
    <ellipse cx="25" cy="33.5" rx="8" ry="4.5" fill="#019A8A"/>
    <circle cx="35" cy="26" r="2" fill="#F3EC60"/>
  </g>
  <rect x="26.5" y="23.5" width="9" height="9" stroke="white"/>
  <g clip-path="url(#clip5_18_2442)">
    <rect x="38" y="23" width="10" height="10" fill="#79D1F2"/>
    <ellipse cx="47.5" cy="33.5" rx="5.5" ry="3.5" fill="#016B5A"/>
    <ellipse cx="37" cy="33.5" rx="8" ry="4.5" fill="#019A8A"/>
    <circle cx="47" cy="26" r="2" fill="#F3EC60"/>
  </g>
  <rect x="38.5" y="23.5" width="9" height="9" stroke="white"/>
  <g clip-path="url(#clip6_18_2442)">
    <rect x="52" y="11" width="16" height="20" fill="#79D1F2"/>
    <circle cx="62.5" cy="16.5" r="3.5" fill="#F3EC60"/>
    <ellipse cx="69.5" cy="33" rx="12.5" ry="8" fill="#016B5A"/>
    <ellipse cx="46.5" cy="31.5" rx="15.5" ry="9.5" fill="#019A8A"/>
  </g>
  <rect x="52.5" y="11.5" width="15" height="19" stroke="white"/>
  <rect x="53" y="33" width="14" height="2" fill="#C6C5C5"/>
  <rect width="54" height="8" transform="translate(14 41)" fill="#DFDFDF"/>
  <rect x="17" y="44" width="6" height="2" fill="#858585"/>
  <rect x="31" y="44" width="6" height="2" fill="#858585"/>
  <rect x="45" y="44" width="6" height="2" fill="#858585"/>
  <rect x="59" y="44" width="6" height="2" fill="#858585"/>
  <defs>
    <clipPath id="clip0_18_2442">
      <rect x="14" y="11" width="10" height="10" fill="white"/>
    </clipPath>
    <clipPath id="clip1_18_2442">
      <rect x="26" y="11" width="10" height="10" fill="white"/>
    </clipPath>
    <clipPath id="clip2_18_2442">
      <rect x="38" y="11" width="10" height="10" fill="white"/>
    </clipPath>
    <clipPath id="clip3_18_2442">
      <rect x="14" y="23" width="10" height="10" fill="white"/>
    </clipPath>
    <clipPath id="clip4_18_2442">
      <rect x="26" y="23" width="10" height="10" fill="white"/>
    </clipPath>
    <clipPath id="clip5_18_2442">
      <rect x="38" y="23" width="10" height="10" fill="white"/>
    </clipPath>
    <clipPath id="clip6_18_2442">
      <rect x="52" y="11" width="16" height="20" fill="white"/>
    </clipPath>
  </defs>
</svg>
