<svg width="220" height="80" viewBox="0 0 220 80" fill="none" xmlns="http://www.w3.org/2000/svg">
<path d="M10 11C10 10.4477 10.4477 10 11 10H209C209.552 10 210 10.4477 210 11V46H10V11Z" fill="white"/>
<rect x="22" y="16" width="12" height="3" rx="1" fill="#2B2B33"/>
<rect x="22" y="26" width="24" height="2" rx="1" fill="#2B2B33"/>
<rect x="22" y="30" width="24" height="2" rx="1" fill="#2B2B33"/>
<rect x="22" y="34" width="24" height="2" rx="1" fill="#2B2B33"/>
<rect x="22" y="38" width="24" height="2" rx="1" fill="#2B2B33"/>
<rect x="22" y="22" width="40" height="1" fill="#D9D9D9"/>
<rect x="68" y="16" width="12" height="3" rx="1" fill="#2B2B33"/>
<rect x="68" y="26" width="24" height="2" rx="1" fill="#2B2B33"/>
<rect x="68" y="30" width="24" height="2" rx="1" fill="#2B2B33"/>
<rect x="68" y="34" width="24" height="2" rx="1" fill="#2B2B33"/>
<rect x="68" y="38" width="24" height="2" rx="1" fill="#2B2B33"/>
<rect x="68" y="22" width="39" height="1" fill="#D9D9D9"/>
<rect x="113" y="16" width="12" height="3" rx="1" fill="#2B2B33"/>
<rect x="113" y="26" width="24" height="2" rx="1" fill="#2B2B33"/>
<rect x="113" y="30" width="24" height="2" rx="1" fill="#2B2B33"/>
<rect x="113" y="34" width="24" height="2" rx="1" fill="#2B2B33"/>
<rect x="113" y="38" width="24" height="2" rx="1" fill="#2B2B33"/>
<rect x="113" y="22" width="39" height="1" fill="#D9D9D9"/>
<rect x="158" y="16" width="12" height="3" rx="1" fill="#2B2B33"/>
<rect x="158" y="26" width="24" height="2" rx="1" fill="#2B2B33"/>
<rect x="158" y="30" width="24" height="2" rx="1" fill="#2B2B33"/>
<rect x="158" y="34" width="24" height="2" rx="1" fill="#2B2B33"/>
<rect x="158" y="38" width="24" height="2" rx="1" fill="#2B2B33"/>
<rect x="158" y="22" width="40" height="1" fill="#D9D9D9"/>
<path d="M10 46H210V55C210 55.5523 209.552 56 209 56H11C10.4477 56 10 55.5523 10 55V46Z" fill="#D9D9D9"/>
<circle cx="95" cy="51" r="2" fill="#2B2B33"/>
<circle cx="113" cy="51" r="2" fill="#2B2B33"/>
<circle cx="101" cy="51" r="2" fill="#2B2B33"/>
<circle cx="119" cy="51" r="2" fill="#2B2B33"/>
<circle cx="107" cy="51" r="2" fill="#2B2B33"/>
<circle cx="125" cy="51" r="2" fill="#2B2B33"/>
<rect x="10" y="59" width="200" height="11" rx="1" fill="white" fill-opacity="0.2"/>
</svg>
