<svg width="220" height="80" viewBox="0 0 220 80" fill="none" xmlns="http://www.w3.org/2000/svg">
<path d="M10 11C10 10.4477 10.4477 10 11 10H209C209.552 10 210 10.4477 210 11V41C210 41.5523 209.552 42 209 42H11C10.4477 42 10 41.5523 10 41V11Z" fill="white"/>
<rect x="170" y="16" width="12" height="3" rx="1" fill="#2B2B33"/>
<rect x="126" y="16" width="12" height="3" rx="1" fill="#2B2B33"/>
<rect x="82" y="16" width="12" height="3" rx="1" fill="#2B2B33"/>
<rect x="38" y="16" width="12" height="3" rx="1" fill="#2B2B33"/>
<rect x="164" y="22" width="24" height="2" rx="1" fill="#2B2B33"/>
<rect x="120" y="22" width="24" height="2" rx="1" fill="#2B2B33"/>
<rect x="76" y="22" width="24" height="2" rx="1" fill="#2B2B33"/>
<rect x="32" y="22" width="24" height="2" rx="1" fill="#2B2B33"/>
<rect x="164" y="26" width="24" height="2" rx="1" fill="#2B2B33"/>
<rect x="120" y="26" width="24" height="2" rx="1" fill="#2B2B33"/>
<rect x="76" y="26" width="24" height="2" rx="1" fill="#2B2B33"/>
<rect x="32" y="26" width="24" height="2" rx="1" fill="#2B2B33"/>
<rect x="164" y="30" width="24" height="2" rx="1" fill="#2B2B33"/>
<rect x="120" y="30" width="24" height="2" rx="1" fill="#2B2B33"/>
<rect x="76" y="30" width="24" height="2" rx="1" fill="#2B2B33"/>
<rect x="32" y="30" width="24" height="2" rx="1" fill="#2B2B33"/>
<rect x="164" y="34" width="24" height="2" rx="1" fill="#2B2B33"/>
<rect x="120" y="34" width="24" height="2" rx="1" fill="#2B2B33"/>
<rect x="76" y="34" width="24" height="2" rx="1" fill="#2B2B33"/>
<rect x="32" y="34" width="24" height="2" rx="1" fill="#2B2B33"/>
<rect x="10" y="45" width="200" height="25" rx="1" fill="white" fill-opacity="0.2"/>
</svg>
