<svg xmlns="http://www.w3.org/2000/svg" xmlns:xlink="http://www.w3.org/1999/xlink" width="82" height="60" viewBox="0 0 82 60">
  <defs>
    <path id="path-1" d="M12 0a1 1 0 0 1 1 1v7a1 1 0 0 1-1 1H1a1 1 0 0 1-1-1V1a1 1 0 0 1 1-1zm0 1.292L7.844 4.11a2 2 0 0 1-2.168.05L1 1.29V8h11V1.292zM11.426 1h-9.67L5.64 3.534a2 2 0 0 0 2.245-.04L11.425 1z"/>
    <filter id="filter-2" width="107.7%" height="122.2%" x="-3.8%" y="-5.6%" filterUnits="objectBoundingBox">
      <feOffset dy="1" in="SourceAlpha" result="shadowOffsetOuter1"/>
      <feComposite in="shadowOffsetOuter1" in2="SourceAlpha" operator="out" result="shadowOffsetOuter1"/>
      <feColorMatrix in="shadowOffsetOuter1" values="0 0 0 0 1   0 0 0 0 1   0 0 0 0 1  0 0 0 0.292012675 0"/>
    </filter>
    <path id="path-3" d="M37 0v9H16V0h21zm-.677 1H16.677v7h19.646V1z"/>
    <filter id="filter-4" width="104.8%" height="122.2%" x="-2.4%" y="-5.6%" filterUnits="objectBoundingBox">
      <feOffset dy="1" in="SourceAlpha" result="shadowOffsetOuter1"/>
      <feComposite in="shadowOffsetOuter1" in2="SourceAlpha" operator="out" result="shadowOffsetOuter1"/>
      <feColorMatrix in="shadowOffsetOuter1" values="0 0 0 0 1   0 0 0 0 1   0 0 0 0 1  0 0 0 0.292012675 0"/>
    </filter>
    <linearGradient id="linearGradient-5" x1="50%" x2="50%" y1="0%" y2="100%">
      <stop offset="0%" stop-color="#00A09D"/>
      <stop offset="100%" stop-color="#00E2FF"/>
    </linearGradient>
    <path id="path-6" d="M45.5 9a.377.377 0 0 1-.27-.105L41.4 5.367a1.991 1.991 0 0 1-.17-.152 6.108 6.108 0 0 1-.34-.384 5.188 5.188 0 0 1-.417-.571 3.47 3.47 0 0 1-.329-.71A2.461 2.461 0 0 1 40 2.743c0-.86.26-1.531.78-2.015C41.3.242 42.017 0 42.934 0c.254 0 .513.042.777.126.264.084.51.197.736.34.227.142.423.276.586.401.164.125.32.258.467.399.147-.141.303-.274.467-.399.163-.125.359-.259.586-.401.227-.143.472-.256.736-.34.264-.084.523-.126.777-.126.917 0 1.635.242 2.154.727.52.484.78 1.156.78 2.015 0 .863-.469 1.742-1.406 2.637L45.77 8.895A.377.377 0 0 1 45.5 9z"/>
  </defs>
  <g fill="none" fill-rule="evenodd" class="snippets_thumbs">
    <g class="s_newsletter_subscribe_form">
      <rect width="82" height="60" class="bg"/>
      <g class="group" transform="translate(16 26)">
        <g class="shape">
          <use fill="#000" filter="url(#filter-2)" xlink:href="#path-1"/>
          <use fill="#FFF" fill-opacity=".78" xlink:href="#path-1"/>
        </g>
        <g class="combined_shape">
          <use fill="#000" filter="url(#filter-4)" xlink:href="#path-3"/>
          <use fill="#FFF" fill-opacity=".78" xlink:href="#path-3"/>
        </g>
        <mask id="mask-7" fill="#fff">
          <use xlink:href="#path-6"/>
        </mask>
        <use fill="url(#linearGradient-5)" class="heart" xlink:href="#path-6"/>
      </g>
    </g>
  </g>
</svg>
