<svg width="30" height="30" viewBox="0 0 30 30" xmlns="http://www.w3.org/2000/svg">
    <path fill-rule="evenodd" clip-rule="evenodd" d="M29 0C29.5523 4.50978e-07 30 0.447716 30 1V18C30 18.5523 29.5523 19 29 19H18L15 22L12 19H1C0.447716 19 0 18.5523 0 18V1C2.89917e-07 0.447716 0.447715 2.81862e-08 1 0H29ZM13.1826 7.00391L9 7.58398L12.0596 10.6377L11.292 15L15 12.8838L18.708 15L17.9404 10.6377L21 7.58398L16.8174 7.00391L15 3L13.1826 7.00391Z" fill="white"/>
    <path d="M30 23.999C30 24.5513 29.5523 24.999 29 24.999H20L15 29.999L10 24.999H1C0.447716 24.999 0 24.5513 0 23.999V21.874C0.319617 21.9563 0.654704 22 1 22H10.7578L15 26.2422L19.2422 22H29L29.2061 21.9951C29.4789 21.9813 29.7443 21.9389 30 21.873V23.999Z" fill="white" fill-opacity="0.2"/>
</svg>
