<svg xmlns="http://www.w3.org/2000/svg" xmlns:xlink="http://www.w3.org/1999/xlink" width="82" height="60" viewBox="0 0 82 60">
  <defs>
    <rect id="path-1" width="22" height="2" x="0" y="0"/>
    <filter id="filter-2" width="104.5%" height="200%" x="-2.3%" y="-25%" filterUnits="objectBoundingBox">
      <feOffset dy="1" in="SourceAlpha" result="shadowOffsetOuter1"/>
      <feComposite in="shadowOffsetOuter1" in2="SourceAlpha" operator="out" result="shadowOffsetOuter1"/>
      <feColorMatrix in="shadowOffsetOuter1" values="0 0 0 0 1   0 0 0 0 1   0 0 0 0 1  0 0 0 0.4 0"/>
    </filter>
    <path id="path-3" d="M43 8.1c0 .074-.047.155-.14.242l-1.964 1.785.465 2.52a.71.71 0 0 1 .006.101c0 .07-.02.13-.057.179-.038.049-.093.073-.165.073a.461.461 0 0 1-.217-.06L38.5 11.75l-2.428 1.19a.485.485 0 0 1-.217.06c-.076 0-.132-.024-.17-.073a.283.283 0 0 1-.057-.179c0-.02.004-.054.01-.1l.466-2.521-1.969-1.785c-.09-.09-.135-.171-.135-.242 0-.124.101-.201.303-.232l2.715-.368 1.217-2.293c.068-.138.157-.207.265-.207.108 0 .197.069.265.207L39.982 7.5l2.715.368c.202.03.303.108.303.232z"/>
    <filter id="filter-4" width="111.1%" height="125%" x="-5.6%" y="-6.2%" filterUnits="objectBoundingBox">
      <feOffset dy="1" in="SourceAlpha" result="shadowOffsetOuter1"/>
      <feComposite in="shadowOffsetOuter1" in2="SourceAlpha" operator="out" result="shadowOffsetOuter1"/>
      <feColorMatrix in="shadowOffsetOuter1" values="0 0 0 0 1   0 0 0 0 1   0 0 0 0 1  0 0 0 0.0995137675 0"/>
    </filter>
    <path id="path-5" d="M31 8.1c0 .074-.047.155-.14.242l-1.964 1.785.465 2.52a.71.71 0 0 1 .006.101c0 .07-.02.13-.057.179-.038.049-.093.073-.165.073a.461.461 0 0 1-.217-.06L26.5 11.75l-2.428 1.19a.485.485 0 0 1-.217.06c-.076 0-.132-.024-.17-.073a.283.283 0 0 1-.057-.179c0-.02.004-.054.01-.1l.466-2.521-1.969-1.785c-.09-.09-.135-.171-.135-.242 0-.124.101-.201.303-.232l2.715-.368 1.217-2.293c.068-.138.157-.207.265-.207.108 0 .197.069.265.207L27.982 7.5l2.715.368c.202.03.303.108.303.232z"/>
    <filter id="filter-6" width="111.1%" height="125%" x="-5.6%" y="-6.2%" filterUnits="objectBoundingBox">
      <feOffset dy="1" in="SourceAlpha" result="shadowOffsetOuter1"/>
      <feComposite in="shadowOffsetOuter1" in2="SourceAlpha" operator="out" result="shadowOffsetOuter1"/>
      <feColorMatrix in="shadowOffsetOuter1" values="0 0 0 0 1   0 0 0 0 1   0 0 0 0 1  0 0 0 0.0995137675 0"/>
    </filter>
    <linearGradient id="linearGradient-7" x1="50%" x2="50%" y1="0%" y2="100%">
      <stop offset="0%" stop-color="#00A09D"/>
      <stop offset="100%" stop-color="#00E2FF"/>
    </linearGradient>
  </defs>
  <g fill="none" fill-rule="evenodd" class="snippets_thumbs">
    <g class="s_rating">
      <rect width="82" height="60" class="bg"/>
      <g class="group" transform="translate(20 24)">
        <g class="rectangle">
          <use fill="#000" filter="url(#filter-2)" xlink:href="#path-1"/>
          <use fill="#FFF" fill-opacity=".95" xlink:href="#path-1"/>
        </g>
        <g class="mask">
          <use fill="#000" filter="url(#filter-4)" xlink:href="#path-3"/>
          <use fill="#FFF" fill-opacity=".348" xlink:href="#path-3"/>
        </g>
        <g class="mask">
          <use fill="#000" filter="url(#filter-6)" xlink:href="#path-5"/>
          <use fill="#FFF" fill-opacity=".348" xlink:href="#path-5"/>
        </g>
        <path fill="url(#linearGradient-7)" d="M19 8.1c0 .074-.042.155-.125.242l-1.745 1.785.413 2.52a.799.799 0 0 1 .005.101c0 .07-.017.13-.05.179a.167.167 0 0 1-.147.073.376.376 0 0 1-.192-.06L15 11.75l-2.159 1.19a.395.395 0 0 1-.192.06c-.067 0-.118-.024-.151-.073a.307.307 0 0 1-.05-.179c0-.02.002-.054.009-.1l.413-2.521-1.75-1.785c-.08-.09-.12-.171-.12-.242 0-.124.09-.201.27-.232l2.413-.368 1.081-2.293c.061-.138.14-.207.236-.207.096 0 .175.069.236.207L16.317 7.5l2.414.368c.18.03.269.108.269.232z" class="star_copy"/>
        <path fill="url(#linearGradient-7)" d="M8 8.1c0 .074-.042.155-.125.242L6.13 10.127l.413 2.52a.799.799 0 0 1 .005.101c0 .07-.017.13-.05.179A.167.167 0 0 1 6.35 13a.376.376 0 0 1-.192-.06L4 11.75l-2.159 1.19a.395.395 0 0 1-.192.06c-.067 0-.118-.024-.151-.073a.307.307 0 0 1-.05-.179c0-.02.002-.054.009-.1l.413-2.521L.12 8.342C.04 8.252 0 8.171 0 8.1c0-.124.09-.201.27-.232L2.682 7.5l1.081-2.293C3.825 5.069 3.904 5 4 5s.175.069.236.207L5.317 7.5l2.414.368c.18.03.269.108.269.232z" class="star"/>
      </g>
    </g>
  </g>
</svg>
