<svg width="30" height="30" viewBox="0 0 30 30" xmlns="http://www.w3.org/2000/svg">
    <path fill-rule="evenodd" clip-rule="evenodd" d="M11 0C17.0751 0 22 4.92487 22 11C22 13.5074 21.1586 15.8169 19.7461 17.667L29.7109 27.6318C30.0967 28.0176 30.0967 28.6435 29.7109 29.0293L29.0293 29.7109C28.6435 30.0967 28.0176 30.0967 27.6318 29.7109L17.667 19.7461C15.8169 21.1586 13.5074 22 11 22C4.92487 22 0 17.0751 0 11C0 4.92487 4.92487 0 11 0ZM11 3C6.58172 3 3 6.58172 3 11C3 15.4183 6.58172 19 11 19C15.4183 19 19 15.4183 19 11C19 6.58172 15.4183 3 11 3Z" fill="white" fill-opacity="0.2"/>
    <circle cx="11" cy="11" r="6" fill="white"/>
</svg>
