<svg width="30" height="30" viewBox="0 0 30 30" xmlns="http://www.w3.org/2000/svg">
    <path d="M13.0634 9.72217L20.439 17.2222L13.6098 24.1666C13.0634 24.7222 12.426 24.9999 11.6976 24.9999C10.9691 24.9999 10.3317 24.7222 9.78537 24.1666L9.71707 24.0972L8.82927 24.9999H2L6.30244 20.6249L6.23415 20.5555C5.68781 19.9999 5.41463 19.3518 5.41463 18.6111C5.41463 17.8703 5.68781 17.2222 6.23415 16.6666L13.0634 9.72217Z" fill="white"/>
    <path d="M15.0098 7.74306L21.8049 0.833333C22.3512 0.277778 22.9886 0 23.7171 0C24.4455 0 25.0829 0.277778 25.6293 0.833333L29.1805 4.44444C29.7268 5 30 5.64815 30 6.38889C30 7.12963 29.7268 7.77778 29.1805 8.33333L22.3854 15.2431L15.0098 7.74306Z" fill="white" fill-opacity="0.2"/>
    <rect y="28" width="30" height="2" rx="1" fill="white"/>
</svg>
