<svg xmlns="http://www.w3.org/2000/svg" fill="none" viewBox="0 0 82 60">
    <g clip-path="url(#a)">
        <g opacity=".5">
            <path fill="#79D1F2" d="M82 0H0v60h82V0Z"/>
            <mask id="b" width="82" height="60" x="0" y="0" maskUnits="userSpaceOnUse" style="mask-type:luminance">
                <path fill="#F3EC60" d="M82 0H0v60h82V0Z"/>
            </mask>
            <g mask="url(#b)">
                <path fill="#F3EC60" d="M65.5 19a7.5 7.5 0 1 0 0-15 7.5 7.5 0 0 0 0 15Z"/>
            </g>
            <mask id="d" width="82" height="60" x="0" y="0" maskUnits="userSpaceOnUse" style="mask-type:luminance">
                <path fill="url(#c)" d="M82 0H0v60h82V0Z"/>
            </mask>
            <g mask="url(#d)">
                <path fill="url(#e)" d="M68.5 82C83.14 82 95 73.05 95 62S83.14 42 68.5 42 42 50.95 42 62s11.86 20 26.5 20Z"/>
            </g>
            <mask id="g" width="82" height="60" x="0" y="0" maskUnits="userSpaceOnUse" style="mask-type:luminance">
                <path fill="url(#f)" d="M82 0H0v60h82V0Z"/>
            </mask>
            <g mask="url(#g)">
                <path fill="url(#h)" d="M18 99c28.17 0 51-14.33 51-32S46.17 35 18 35s-51 14.33-51 32 22.83 32 51 32Z"/>
            </g>
        </g>
        <path fill="#fff" d="M39 34.5v-9l6 4.5m-4-10a10 10 0 1 0 0 20 10 10 0 0 0 0-20Z"/>
    </g>
    <defs>
        <linearGradient id="c" x1="5975.75" x2="3780.14" y1="2680.44" y2="956.27" gradientUnits="userSpaceOnUse">
            <stop stop-color="#008374"/>
            <stop offset="1" stop-color="#006A59"/>
        </linearGradient>
        <linearGradient id="e" x1="3904.37" x2="2451.99" y1="1828.96" y2="723.21" gradientUnits="userSpaceOnUse">
            <stop stop-color="#008374"/>
            <stop offset="1" stop-color="#006A59"/>
        </linearGradient>
        <linearGradient id="f" x1="7258.39" x2="4310.04" y1="2308.86" y2="3513.91" gradientUnits="userSpaceOnUse">
            <stop stop-color="#00AA89"/>
            <stop offset="1" stop-color="#009989"/>
        </linearGradient>
        <linearGradient id="h" x1="8995.73" x2="5507.96" y1="2497.78" y2="4160.17" gradientUnits="userSpaceOnUse">
            <stop stop-color="#00AA89"/>
            <stop offset="1" stop-color="#009989"/>
        </linearGradient>
        <clipPath id="a">
            <path fill="#fff" d="M0 0h82v60H0z"/>
        </clipPath>
    </defs>
</svg>