<svg width="30" height="30" viewBox="0 0 30 30" xmlns="http://www.w3.org/2000/svg">
    <rect x="5" y="8.99951" width="14" height="2" rx="1" fill="white"/>
    <rect x="5" y="4.99951" width="14" height="2" rx="1" fill="white"/>
    <path d="M17 19.9465V24H21.0535L29.1605 15.893C30.2798 14.7737 30.2798 12.9589 29.1605 11.8395C28.0412 10.7202 26.2263 10.7202 25.107 11.8395L17 19.9465Z" fill="white"/>
    <path d="M14 18.7041V19H6C5.44788 19 5.00026 18.5521 5 18C5 17.4477 5.44772 16.999 6 16.999H15.7051L14 18.7041Z" fill="white"/>
    <path d="M18 12.999C18.4618 12.999 18.8489 13.3129 18.9639 13.7383L17.7041 15H6C5.44788 15 5.00026 14.5521 5 14C5 13.4477 5.44772 12.999 6 12.999H18Z" fill="white"/>
    <path d="M23.1025 0.00488281C23.6067 0.0562147 24 0.482323 24 1V8.90527C23.7221 9.08116 23.4555 9.28263 23.2041 9.50977L22.9854 9.71777L21 11.7031V3H3V27H22.2959L24 25.2959V29L23.9951 29.1025C23.9472 29.573 23.573 29.9472 23.1025 29.9951L23 30H1C0.482324 30 0.0562145 29.6067 0.00488281 29.1025L0 29V1C4.50982e-07 0.447716 0.447716 1.61064e-08 1 0H23L23.1025 0.00488281Z" fill="white" fill-opacity="0.2"/>
</svg>
