<svg width="30" height="30" viewBox="0 0 30 30" xmlns="http://www.w3.org/2000/svg">
    <path fill-rule="evenodd" clip-rule="evenodd" d="M25.3766 0C26.0483 0 26.6329 0.206743 27.1305 0.619141C27.6281 1.03162 27.9895 1.57504 28.2135 2.25L29.7809 7.34961C30.0795 8.32461 30.0734 9.2127 29.7623 10.0127C29.4512 10.8125 28.5729 11.4251 28.0006 12V29L27.9957 29.1025C27.9478 29.5728 27.5734 29.9471 27.1031 29.9951L27.0006 30H3.0006C2.48293 30 2.05683 29.6067 2.00548 29.1025L2.0006 29V12C1.00075 11.5 0.548918 10.8747 0.2379 10.0498C-0.0729829 9.22494 -0.079181 8.32442 0.219346 7.34961L1.7877 2.25C1.98675 1.60013 2.3412 1.06265 2.85118 0.637695C3.36113 0.212825 3.95205 0.000130005 4.62364 0H25.3766ZM21.7936 12.0752C21.3457 12.5251 20.8355 12.875 20.2633 13.125C19.691 13.3749 19.0811 13.5 18.4342 13.5C17.7625 13.5 17.1341 13.3749 16.5494 13.125C15.9649 12.8751 15.4484 12.525 15.0006 12.0752C14.5776 12.5251 14.0858 12.875 13.526 13.125C12.9662 13.3749 12.3623 13.5 11.7154 13.5C10.9941 13.4999 10.341 13.3749 9.75645 13.125C9.17194 12.8751 8.65539 12.525 8.20763 12.0752C7.68512 12.6001 7.16788 12.9692 6.65782 13.1816C6.16844 13.3854 5.61593 13.4898 5.0006 13.498V27H25.0006V13.498C24.3608 13.4896 23.7956 13.3784 23.3053 13.1621C22.7953 12.9371 22.2911 12.575 21.7936 12.0752ZM3.13145 8.02539C2.98229 8.52527 3.06272 9.06286 3.37364 9.6377C3.68464 10.2125 4.20113 10.4999 4.92247 10.5C5.37025 10.5 5.76239 10.3375 6.09825 10.0127C6.43409 9.68778 6.63977 9.27522 6.71446 8.77539L7.53575 3H4.62364L3.13145 8.02539ZM9.77501 8.25C9.6755 8.84992 9.80589 9.37524 10.1666 9.8252C10.5273 10.275 10.994 10.4998 11.566 10.5C12.1383 10.5 12.6056 10.3064 12.9664 9.91895C13.3272 9.53146 13.5074 9.07478 13.5074 8.5498V3H10.5963L9.77501 8.25ZM16.4938 8.5498C16.4938 9.07474 16.6679 9.53147 17.0162 9.91895C17.3644 10.3061 17.7874 10.4999 18.2848 10.5C18.9564 10.5 19.4667 10.2688 19.815 9.80664C20.1634 9.34416 20.3008 8.82498 20.2262 8.25L19.4049 3H16.4938V8.5498ZM23.2867 8.77539C23.3614 9.2751 23.5662 9.68782 23.902 10.0127C24.2378 10.3376 24.6301 10.4999 25.0777 10.5C25.7993 10.5 26.3226 10.2126 26.6461 9.6377C26.9695 9.06287 27.0437 8.52526 26.8697 8.02539L25.3024 3H22.4654L23.2867 8.77539Z" fill="white" fill-opacity="0.2"/>
    <path d="M15.0264 14.5938C15.2632 14.7302 15.5093 14.8551 15.7637 14.9639C16.6104 15.3258 17.5084 15.4999 18.4346 15.5C19.3465 15.4999 20.23 15.3219 21.0635 14.958C21.305 14.8525 21.5381 14.7313 21.7637 14.6006C22.0003 14.7471 22.2443 14.8802 22.498 14.9922L22.7939 15.1123C22.8622 15.1378 22.932 15.1599 23.001 15.1826V25H7.00098V15.1826C7.14391 15.136 7.28688 15.0865 7.42676 15.0283L7.73047 14.8906C7.90677 14.804 8.07739 14.705 8.24512 14.6006C8.47837 14.7343 8.72051 14.8569 8.9707 14.9639C9.83452 15.3331 10.7609 15.4998 11.7158 15.5C12.6276 15.5 13.5116 15.3218 14.3418 14.9512C14.5785 14.8455 14.8062 14.7247 15.0264 14.5938Z" fill="#00FDA3"/>
</svg>
