<svg width="30" height="30" viewBox="0 0 30 30" xmlns="http://www.w3.org/2000/svg">
    <rect x="5" y="8" width="20" height="1" rx="0.5" fill="#00FDA3"/>
    <rect x="18" y="15" width="7" height="2" rx="1" fill="#00FDA3"/>
    <rect x="18" y="19" width="7" height="2" rx="1" fill="#00FDA3"/>
    <rect x="18" y="23" width="7" height="2" rx="1" fill="#00FDA3"/>
    <path fill-rule="evenodd" clip-rule="evenodd" d="M30 29C30 29.5523 29.5523 30 29 30H1C0.447716 30 8.05327e-09 29.5523 0 29V0L2.5127 3L4.98828 0L7.5 3L10.0127 0L12.75 3L15 0L17.25 3L19.9883 0L22.5 3L25.0127 0L27.4883 3L30 0V29ZM3 13V27H14V13H3ZM16 27H27V13H16V27ZM3 11H27V6H3V11Z" fill="white" fill-opacity="0.2"/>
    <rect x="5" y="15" width="7" height="10" rx="1" fill="#00FDA3"/>
</svg>
