<svg width="30" height="30" viewBox="0 0 30 30" xmlns="http://www.w3.org/2000/svg">
    <path d="M4.99951 21C4.99951 23.209 6.79057 24.9998 8.99951 25H24.8491L6.31494 29.9668C5.79152 30.1069 5.25304 29.7959 5.11279 29.2725L0.0336867 10.3154C-0.106543 9.79208 0.203821 9.25373 0.727046 9.11328L4.99951 7.96777V21Z" fill="white" fill-opacity="0.2"/>
    <path d="M7.99951 21C7.99951 21.0648 8.00629 21.1281 8.01806 21.1895C8.01258 21.1609 8.00738 21.1319 8.00439 21.1025L7.99951 21Z" fill="white" fill-opacity="0.2"/>
    <path d="M21.2002 15.8516L24.9717 12.2969L30 17.0352V21C30 21.5523 29.5523 22 29 22H9C8.44772 22 8 21.5523 8 21V15.6533L14.4951 9.5332L21.2002 15.8516Z" fill="#00FDA3"/>
    <path d="M29 0C29.5523 1.93276e-07 30 0.447715 30 1V12.9131L24.9717 8.1748L21.2002 11.7285L14.4951 5.41113L8 11.5312V1C8 0.447715 8.44772 1.61064e-08 9 0H29Z" fill="white" fill-opacity="0.2"/>
</svg>
