<svg width="30" height="30" viewBox="0 0 30 30" xmlns="http://www.w3.org/2000/svg">
    <path d="M3 27H8V30H1C0.482324 30 0.0562145 29.6067 0.00488281 29.1025L0 29V22H3V27Z" fill="white" fill-opacity="0.2"/>
    <path d="M8 0V3H3V8H0V1C4.50982e-07 0.447716 0.447716 2.81862e-08 1 0H8Z" fill="white" fill-opacity="0.2"/>
    <path d="M27 22H30V29L29.9951 29.1025C29.9472 29.573 29.573 29.9472 29.1025 29.9951L29 30H22V27H27V22Z" fill="white" fill-opacity="0.2"/>
    <path d="M29.1025 0.00488281C29.6067 0.0562148 30 0.482324 30 1V8H27V3H22V0H29L29.1025 0.00488281Z" fill="white" fill-opacity="0.2"/>
    <path fill-rule="evenodd" clip-rule="evenodd" d="M19.0859 5.49989C19.4764 5.10941 20.1095 5.10941 20.5 5.49989C20.8903 5.89039 20.8904 6.52353 20.5 6.91396L18.9375 8.47548C19.436 8.9097 19.8622 9.42417 20.1953 9.99989H23C23.5523 9.99989 24 10.4476 24 10.9999C23.9998 11.552 23.5522 11.9999 23 11.9999H20.915C20.9696 12.3251 21 12.6592 21 12.9999V14.9999H23C23.5523 14.9999 24 15.4476 24 15.9999C23.9998 16.552 23.5522 16.9999 23 16.9999H21V18.9999C21 19.3406 20.9696 19.6747 20.915 19.9999H23C23.5523 19.9999 24 20.4476 24 20.9999C23.9998 21.552 23.5522 21.9999 23 21.9999H20.1953C19.1577 23.7927 17.2204 24.9999 15 24.9999C12.7796 24.9999 10.8423 23.7927 9.80469 21.9999H7C6.44782 21.9999 6.00017 21.552 6 20.9999C6 20.4476 6.44772 19.9999 7 19.9999H9.08496C9.03037 19.6747 9.00002 19.3406 9 18.9999V16.9999H7C6.44782 16.9999 6.00017 16.552 6 15.9999C6 15.4476 6.44772 14.9999 7 14.9999H9V12.9999C9 12.6592 9.0304 12.3251 9.08496 11.9999H7C6.44782 11.9999 6.00017 11.552 6 10.9999C6 10.4476 6.44772 9.99989 7 9.99989H9.80469C10.1377 9.42438 10.5633 8.9096 11.0615 8.47548L9.5 6.91396C9.10957 6.52353 9.10968 5.89039 9.5 5.49989C9.89048 5.10941 10.5236 5.10941 10.9141 5.49989L12.8223 7.4081C13.4974 7.14495 14.2317 6.99989 15 6.99989C15.768 6.99989 16.5018 7.14516 17.1768 7.4081L19.0859 5.49989ZM13 16.9999C12.4477 16.9999 12 17.4476 12 17.9999V18.9999C12.0001 19.5521 12.4478 19.9999 13 19.9999H17C17.5522 19.9999 17.9999 19.5521 18 18.9999V17.9999C18 17.4476 17.5523 16.9999 17 16.9999H13ZM13 11.9999C12.4477 11.9999 12 12.4476 12 12.9999V13.9999C12.0001 14.5521 12.4478 14.9999 13 14.9999H17C17.5522 14.9999 17.9999 14.5521 18 13.9999V12.9999C18 12.4476 17.5523 11.9999 17 11.9999H13Z" fill="#00FDA3"/>
</svg>
