<svg width="30" height="30" viewBox="0 0 30 30" xmlns="http://www.w3.org/2000/svg">
    <rect x="11" y="8.99951" width="14" height="2" rx="1" fill="#00FDA3"/>
    <rect x="11" y="12.9995" width="14" height="2" rx="1" fill="#00FDA3"/>
    <rect x="11" y="16.9995" width="14" height="2" rx="1" fill="#00FDA3"/>
    <rect x="11" y="4.99951" width="14" height="2" rx="1" fill="#00FDA3"/>
    <path d="M16.95 29.9995C14.8667 29.9995 12.8083 29.5453 10.775 28.637C8.74167 27.7287 6.89167 26.4412 5.225 24.7745C3.55833 23.1078 2.27083 21.2578 1.3625 19.2245C0.454167 17.1912 0 15.1328 0 13.0495C0 12.7495 0.1 12.4995 0.3 12.2995C0.5 12.0995 0.75 11.9995 1.05 11.9995H5.1C5.33333 11.9995 5.54167 12.0787 5.725 12.237C5.90833 12.3953 6.01667 12.5828 6.05 12.7995L6.7 16.2995C6.73333 16.5662 6.725 16.7912 6.675 16.9745C6.625 17.1578 6.53333 17.3162 6.4 17.4495L3.975 19.8995C4.30833 20.5162 4.70417 21.112 5.1625 21.687C5.62083 22.262 6.125 22.8162 6.675 23.3495C7.19167 23.8662 7.73333 24.3453 8.3 24.787C8.86667 25.2287 9.46667 25.6328 10.1 25.9995L12.45 23.6495C12.6 23.4995 12.7958 23.387 13.0375 23.312C13.2792 23.237 13.5167 23.2162 13.75 23.2495L17.2 23.9495C17.4333 24.0162 17.625 24.137 17.775 24.312C17.925 24.487 18 24.6828 18 24.8995V28.9495C18 29.2495 17.9 29.4995 17.7 29.6995C17.5 29.8995 17.25 29.9995 16.95 29.9995Z" fill="#00FDA3"/>
    <path d="M29.1025 0.00488281C29.6066 0.0562374 30 0.48234 30 1V29L29.9951 29.1025C29.947 29.5727 29.5728 29.9472 29.1025 29.9951L29 30H20.8662C20.9555 29.6571 20.9999 29.3044 21 28.9502V27H27V3H9V12.252H8.99805C8.84992 11.4205 8.45152 10.7243 7.92676 10.1924L7.68555 9.9668L7.41211 9.75098C6.99123 9.44604 6.51415 9.22427 6 9.10352V1C6 0.447716 6.44772 1.61141e-08 7 0H29L29.1025 0.00488281Z" fill="white" fill-opacity="0.2"/>
</svg>
