<svg width="50" height="50" xmlns="http://www.w3.org/2000/svg"><path d="M0 12.5h50V38a4 4 0 0 1-4 4H0V12.5Z" fill="var(--o-icons-purple-pure, #93407D)"/><path d="M0 12.5h50V38a4 4 0 0 1-4 4H0V12.5Z" fill="url(#o_icon_hr_work_entry_contract__a)" fill-opacity=".2"/><path d="M4 20.5a4 4 0 0 1-4-4V12a4 4 0 0 1 4-4h46v8.5a4 4 0 0 1-4 4H4Z" fill="var(--o-icons-cyan-pure, #1BB6F9)"/><path d="M4 20.5a4 4 0 0 1-4-4V12a4 4 0 0 1 4-4h46v8.5a4 4 0 0 1-4 4H4Z" fill="url(#o_icon_hr_work_entry_contract__b)" fill-opacity=".2"/><path d="M0 16.25h50v4a4 4 0 0 1-4 4H4a4 4 0 0 1-4-4v-4Z" fill="var(--o-icons-purple-cyan, #102E7A)"/><path d="M0 16.25h50v4a4 4 0 0 1-4 4H4a4 4 0 0 1-4-4v-4Z" fill="url(#o_icon_hr_work_entry_contract__c)" fill-opacity=".3"/><path d="M29.72 22.91a5.148 5.148 0 1 1-10.297 0 5.148 5.148 0 0 1 10.297 0Zm3.431 7.723h-8.58a7.723 7.723 0 0 0-7.723 7.722h8.58a7.723 7.723 0 0 0 7.723-7.722Z" fill="var(--o-icons-white, #FFFFFF)"/><defs><linearGradient id="o_icon_hr_work_entry_contract__a" x1="0" y1="12.5" x2="52.986" y2="34.952" gradientUnits="userSpaceOnUse"><stop stop-color="#fff"/><stop offset="1" stop-color="#fff" stop-opacity="0"/></linearGradient><linearGradient id="o_icon_hr_work_entry_contract__b" x1="0" y1="8" x2="31.25" y2="39.25" gradientUnits="userSpaceOnUse"><stop stop-color="#fff"/><stop offset="1" stop-color="#fff" stop-opacity="0"/></linearGradient><linearGradient id="o_icon_hr_work_entry_contract__c" x1="0" y1="16.25" x2="18.161" y2="44.627" gradientUnits="userSpaceOnUse"><stop stop-color="#fff"/><stop offset="1" stop-color="#fff" stop-opacity="0"/></linearGradient></defs></svg>
