<svg id="Layer_1" data-name="Layer 1" xmlns="http://www.w3.org/2000/svg" xmlns:xlink="http://www.w3.org/1999/xlink" viewBox="0 0 70 70">
  <defs>
    <mask id="mask" x="0" y="0" width="70" height="70" maskUnits="userSpaceOnUse">
      <g id="b">
        <path id="a" d="M4,0H65c4,0,5,1,5,5V65c0,4-1,5-5,5H4c-3,0-4-1-4-5V5C0,1,1,0,4,0Z" fill="#fff" fill-rule="evenodd"/>
      </g>
    </mask>
    <linearGradient id="linear-gradient" x1="-1615.93" y1="477.94" x2="-1616.93" y2="476.94" gradientTransform="matrix(70, 0, 0, -70, 113184.99, 33455.73)" gradientUnits="userSpaceOnUse">
      <stop offset="0" stop-color="#b06161"/>
      <stop offset="0.46" stop-color="#984e4e"/>
      <stop offset="1" stop-color="#7c3838"/>
    </linearGradient>
  </defs>
  <g mask="url(#mask)">
    <g>
      <path d="M0,0H70V70H0Z" fill-rule="evenodd" fill="url(#linear-gradient)"/>
      <path d="M4,1H65c2.67,0,4.33.67,5,2V0H0V3C.67,1.67,2,1,4,1Z" fill="#fff" fill-opacity="0.38" fill-rule="evenodd"/>
      <path d="M4,69a3.66,3.66,0,0,1-4-4V33.92L17.86,17.25l6.57-2.59,6.65,3.1.31,4.94h5.86L48,23l3.58,2-.24,22L39.22,69Z" fill="#393939" fill-rule="evenodd" opacity="0.32" style="isolation: isolate"/>
      <path d="M4,69H65c2.67,0,4.33-1,5-3v4H0V66A3.92,3.92,0,0,0,4,69Z" fill-opacity="0.38" fill-rule="evenodd"/>
      <g opacity="0.4">
        <path d="M47.79,24H33.44v.88l3.93,1.82h.05l.09,0h9.94c.19,0,.34.2.34.45v3.11H40.05v6.5h7.74V46.5a.34.34,0,0,1-.34.34H21a.34.34,0,0,1-.34-.34V43.35l-2.65,1.22-.07,0v2.25a2.73,2.73,0,0,0,2.72,2.74H47.79a2.73,2.73,0,0,0,2.72-2.74V26.73A2.73,2.73,0,0,0,47.79,24Z"/>
        <path d="M37,30a.61.61,0,0,0-.05-.12v0a.52.52,0,0,0-.1-.11l0,0a.41.41,0,0,0-.11-.07h0l-6.27-2.9V19.25a.78.78,0,0,0,0-.16v0l-.06-.12v0l-.1-.12,0,0-.12-.08h0l-6.68-3.07a.57.57,0,0,0-.51,0l-6.67,3.07h0l-.11.08,0,0-.1.12v0a.61.61,0,0,0-.05.12v0a.77.77,0,0,0,0,.15v7.55L9.61,29.68h0a.41.41,0,0,0-.11.07l0,0a.52.52,0,0,0-.1.11v0a.5.5,0,0,0,0,.13v0a.44.44,0,0,0,0,.16v8a.61.61,0,0,0,.33.56l6.67,3.08a.65.65,0,0,0,.51,0l6.36-2.94,6.36,2.93a.59.59,0,0,0,.52,0l6.66-3.07a.62.62,0,0,0,.36-.56v-8a.88.88,0,0,0,0-.16Zm-20.49,2.6-5.2-2.4,5.11-2.36,5.21,2.39Zm6,5.2-5.4,2.48V33.71l5.4-2.49Zm.61-16.19L18,19.24l5.2-2.39,5.2,2.39Zm.62,1.07,5.44-2.51v6.62l-5.44,2.51Zm6,9.92-5.12-2.37,5.2-2.4L35,30.23l-5.2,2.41Zm6.06,5.18-5.44,2.5V33.71l5.44-2.52Z"/>
      </g>
      <g>
        <path d="M49.06,22.7H34.7v.88l3.94,1.82h0l.09.05h9.94a.4.4,0,0,1,.34.44V29H41.31v6.5h7.74v9.71a.34.34,0,0,1-.34.34H22.3a.33.33,0,0,1-.33-.34V42.06l-2.65,1.22-.07,0v2.24A2.73,2.73,0,0,0,22,48.3H49.06a2.73,2.73,0,0,0,2.71-2.75V25.45A2.73,2.73,0,0,0,49.06,22.7Z" fill="#fff"/>
        <path d="M38.29,28.76a.5.5,0,0,0,0-.13h0a.63.63,0,0,0-.1-.12l0,0L38,28.4h0L31.7,25.5V18a.44.44,0,0,0,0-.16v0a.61.61,0,0,0-.05-.12v0a.52.52,0,0,0-.1-.11l0,0a.41.41,0,0,0-.11-.07h0L24.7,14.33a.65.65,0,0,0-.51,0l-6.67,3.08h0a.41.41,0,0,0-.11.07l0,0a.52.52,0,0,0-.1.11v0a.61.61,0,0,0-.05.12v0a.41.41,0,0,0,0,.16V25.5l-6.3,2.89h0l-.11.08,0,0a.4.4,0,0,0-.1.12v0l-.06.12v0a.77.77,0,0,0,0,.15v8a.63.63,0,0,0,.34.56l6.66,3.08a.59.59,0,0,0,.52,0l6.36-2.94,6.36,2.94a.67.67,0,0,0,.52,0L38,37.48a.62.62,0,0,0,.36-.56V29a1.1,1.1,0,0,0,0-.16Zm-20.5,2.59L12.59,29l5.12-2.36L22.91,29Zm6,5.2L18.41,39V32.42l5.39-2.48Zm.62-16.19L19.22,18l5.2-2.4,5.2,2.4ZM25,21.43l5.44-2.51v6.62L25,28.06Zm6,9.92L25.92,29l5.2-2.4,5.12,2.36L31,31.35Zm6.05,5.18L31.66,39V32.42l5.43-2.52Z" fill="#fff"/>
      </g>
    </g>
  </g>
</svg>
