<svg width="50" height="50" viewBox="0 0 50 50" xmlns="http://www.w3.org/2000/svg"><path d="M7.402 10.346c4.535-4.461 11.89-4.461 16.425 0l17.598 17.308-15.019 14.771a2.007 2.007 0 0 1-2.812 0L7.402 26.5a11.29 11.29 0 0 1 0-16.154Z" fill="#FC868B"/><path d="M42.597 10.346a11.29 11.29 0 0 1 0 16.154L26.405 42.425a2.007 2.007 0 0 1-2.812 0L8.574 27.654l17.598-17.308c4.536-4.461 11.89-4.461 16.425 0Z" fill="#FBB945"/><path d="m25 11.5 16.424 16.154-15.019 14.771a2.008 2.008 0 0 1-2.812 0L8.574 27.655 25 11.5Z" fill="#F86126"/></svg>
