<svg viewBox="0 0 800 800" fill="none" xmlns="http://www.w3.org/2000/svg" stroke="#383E45" stroke-linejoin="bevel" stroke-linecap="square" preserveAspectRatio="xMidYMin slice">
    <path d="M53.3333 0L0 53.3333" vector-effect="non-scaling-stroke"/>
    <path d="M53.333 0L106.666 53.3333" vector-effect="non-scaling-stroke"/>
    <path d="M106.667 0L160 53.3333" vector-effect="non-scaling-stroke"/>
    <path d="M213.333 0L160 53.3333" vector-effect="non-scaling-stroke"/>
    <path d="M266.666 0L213.333 53.3333" vector-effect="non-scaling-stroke"/>
    <path d="M320 0L266.667 53.3333" vector-effect="non-scaling-stroke"/>
    <path d="M373.333 0L320 53.3333" vector-effect="non-scaling-stroke"/>
    <path d="M373.333 0L426.666 53.3333" vector-effect="non-scaling-stroke"/>
    <path d="M426.667 0L480 53.3333" vector-effect="non-scaling-stroke"/>
    <path d="M533.333 0L480 53.3333" vector-effect="non-scaling-stroke"/>
    <path d="M533.333 0L586.666 53.3333" vector-effect="non-scaling-stroke"/>
    <path d="M586.667 0L640 53.3333" vector-effect="non-scaling-stroke"/>
    <path d="M640 0L693.333 53.3333" vector-effect="non-scaling-stroke"/>
    <path d="M746.666 0L693.333 53.3333" vector-effect="non-scaling-stroke"/>
    <path d="M800 0L746.667 53.3333" vector-effect="non-scaling-stroke"/>
    <path d="M53.3333 53.333L0 106.666" vector-effect="non-scaling-stroke"/>
    <path d="M53.333 53.333L106.666 106.666" vector-effect="non-scaling-stroke"/>
    <path d="M160 53.333L106.667 106.666" vector-effect="non-scaling-stroke"/>
    <path d="M160 53.333L213.333 106.666" vector-effect="non-scaling-stroke"/>
    <path d="M213.333 53.333L266.666 106.666" vector-effect="non-scaling-stroke"/>
    <path d="M320 53.333L266.667 106.666" vector-effect="non-scaling-stroke"/>
    <path d="M373.333 53.333L320 106.666" vector-effect="non-scaling-stroke"/>
    <path d="M373.333 53.333L426.666 106.666" vector-effect="non-scaling-stroke"/>
    <path d="M426.667 53.333L480 106.666" vector-effect="non-scaling-stroke"/>
    <path d="M480 53.333L533.333 106.666" vector-effect="non-scaling-stroke"/>
    <path d="M586.666 53.333L533.333 106.666" vector-effect="non-scaling-stroke"/>
    <path d="M586.667 53.333L640 106.666" vector-effect="non-scaling-stroke"/>
    <path d="M693.333 53.333L640 106.666" vector-effect="non-scaling-stroke"/>
    <path d="M746.666 53.333L693.333 106.666" vector-effect="non-scaling-stroke"/>
    <path d="M800 53.333L746.667 106.666" vector-effect="non-scaling-stroke"/>
    <path d="M0 106.667L53.3333 160" vector-effect="non-scaling-stroke"/>
    <path d="M53.333 106.667L106.666 160" vector-effect="non-scaling-stroke"/>
    <path d="M160 106.667L106.667 160" vector-effect="non-scaling-stroke"/>
    <path d="M160 106.667L213.333 160" vector-effect="non-scaling-stroke"/>
    <path d="M266.666 106.667L213.333 160" vector-effect="non-scaling-stroke"/>
    <path d="M320 106.667L266.667 160" vector-effect="non-scaling-stroke"/>
    <path d="M320 106.667L373.333 160" vector-effect="non-scaling-stroke"/>
    <path d="M426.666 106.667L373.333 160" vector-effect="non-scaling-stroke"/>
    <path d="M426.667 106.667L480 160" vector-effect="non-scaling-stroke"/>
    <path d="M533.333 106.667L480 160" vector-effect="non-scaling-stroke"/>
    <path d="M533.333 106.667L586.666 160" vector-effect="non-scaling-stroke"/>
    <path d="M586.667 106.667L640 160" vector-effect="non-scaling-stroke"/>
    <path d="M640 106.667L693.333 160" vector-effect="non-scaling-stroke"/>
    <path d="M693.333 106.667L746.666 160" vector-effect="non-scaling-stroke"/>
    <path d="M746.667 106.667L800 160" vector-effect="non-scaling-stroke"/>
    <path d="M0 160L53.3333 213.333" vector-effect="non-scaling-stroke"/>
    <path d="M106.666 160L53.333 213.333" vector-effect="non-scaling-stroke"/>
    <path d="M160 160L106.667 213.333" vector-effect="non-scaling-stroke"/>
    <path d="M213.333 160L160 213.333" vector-effect="non-scaling-stroke"/>
    <path d="M266.666 160L213.333 213.333" vector-effect="non-scaling-stroke"/>
    <path d="M320 160L266.667 213.333" vector-effect="non-scaling-stroke"/>
    <path d="M320 160L373.333 213.333" vector-effect="non-scaling-stroke"/>
    <path d="M373.333 160L426.666 213.333" vector-effect="non-scaling-stroke"/>
    <path d="M480 160L426.667 213.333" vector-effect="non-scaling-stroke"/>
    <path d="M480 160L533.333 213.333" vector-effect="non-scaling-stroke"/>
    <path d="M586.666 160L533.333 213.333" vector-effect="non-scaling-stroke"/>
    <path d="M586.667 160L640 213.333" vector-effect="non-scaling-stroke"/>
    <path d="M640 160L693.333 213.333" vector-effect="non-scaling-stroke"/>
    <path d="M693.333 160L746.666 213.333" vector-effect="non-scaling-stroke"/>
    <path d="M800 160L746.667 213.333" vector-effect="non-scaling-stroke"/>
    <path d="M0 213.333L53.3333 266.666" vector-effect="non-scaling-stroke"/>
    <path d="M53.333 213.333L106.666 266.666" vector-effect="non-scaling-stroke"/>
    <path d="M106.667 213.333L160 266.666" vector-effect="non-scaling-stroke"/>
    <path d="M213.333 213.333L160 266.666" vector-effect="non-scaling-stroke"/>
    <path d="M266.666 213.333L213.333 266.666" vector-effect="non-scaling-stroke"/>
    <path d="M266.667 213.333L320 266.666" vector-effect="non-scaling-stroke"/>
    <path d="M320 213.333L373.333 266.666" vector-effect="non-scaling-stroke"/>
    <path d="M426.666 213.333L373.333 266.666" vector-effect="non-scaling-stroke"/>
    <path d="M426.667 213.333L480 266.666" vector-effect="non-scaling-stroke"/>
    <path d="M480 213.333L533.333 266.666" vector-effect="non-scaling-stroke"/>
    <path d="M586.666 213.333L533.333 266.666" vector-effect="non-scaling-stroke"/>
    <path d="M586.667 213.333L640 266.666" vector-effect="non-scaling-stroke"/>
    <path d="M640 213.333L693.333 266.666" vector-effect="non-scaling-stroke"/>
    <path d="M693.333 213.333L746.666 266.666" vector-effect="non-scaling-stroke"/>
    <path d="M800 213.333L746.667 266.666" vector-effect="non-scaling-stroke"/>
    <path d="M0 266.667L53.3333 320" vector-effect="non-scaling-stroke"/>
    <path d="M106.666 266.667L53.333 320" vector-effect="non-scaling-stroke"/>
    <path d="M160 266.667L106.667 320" vector-effect="non-scaling-stroke"/>
    <path d="M160 266.667L213.333 320" vector-effect="non-scaling-stroke"/>
    <path d="M266.666 266.667L213.333 320" vector-effect="non-scaling-stroke"/>
    <path d="M320 266.667L266.667 320" vector-effect="non-scaling-stroke"/>
    <path d="M320 266.667L373.333 320" vector-effect="non-scaling-stroke"/>
    <path d="M373.333 266.667L426.666 320" vector-effect="non-scaling-stroke"/>
    <path d="M426.667 266.667L480 320" vector-effect="non-scaling-stroke"/>
    <path d="M480 266.667L533.333 320" vector-effect="non-scaling-stroke"/>
    <path d="M586.666 266.667L533.333 320" vector-effect="non-scaling-stroke"/>
    <path d="M640 266.667L586.667 320" vector-effect="non-scaling-stroke"/>
    <path d="M640 266.667L693.333 320" vector-effect="non-scaling-stroke"/>
    <path d="M746.666 266.667L693.333 320" vector-effect="non-scaling-stroke"/>
    <path d="M746.667 266.667L800 320" vector-effect="non-scaling-stroke"/>
    <path d="M0 320L53.3333 373.333" vector-effect="non-scaling-stroke"/>
    <path d="M53.333 320L106.666 373.333" vector-effect="non-scaling-stroke"/>
    <path d="M160 320L106.667 373.333" vector-effect="non-scaling-stroke"/>
    <path d="M160 320L213.333 373.333" vector-effect="non-scaling-stroke"/>
    <path d="M213.333 320L266.666 373.333" vector-effect="non-scaling-stroke"/>
    <path d="M320 320L266.667 373.333" vector-effect="non-scaling-stroke"/>
    <path d="M373.333 320L320 373.333" vector-effect="non-scaling-stroke"/>
    <path d="M373.333 320L426.666 373.333" vector-effect="non-scaling-stroke"/>
    <path d="M426.667 320L480 373.333" vector-effect="non-scaling-stroke"/>
    <path d="M480 320L533.333 373.333" vector-effect="non-scaling-stroke"/>
    <path d="M586.666 320L533.333 373.333" vector-effect="non-scaling-stroke"/>
    <path d="M640 320L586.667 373.333" vector-effect="non-scaling-stroke"/>
    <path d="M693.333 320L640 373.333" vector-effect="non-scaling-stroke"/>
    <path d="M693.333 320L746.666 373.333" vector-effect="non-scaling-stroke"/>
    <path d="M746.667 320L800 373.333" vector-effect="non-scaling-stroke"/>
    <path d="M0 373.333L53.3333 426.666" vector-effect="non-scaling-stroke"/>
    <path d="M106.666 373.333L53.333 426.666" vector-effect="non-scaling-stroke"/>
    <path d="M160 373.333L106.667 426.666" vector-effect="non-scaling-stroke"/>
    <path d="M213.333 373.333L160 426.666" vector-effect="non-scaling-stroke"/>
    <path d="M213.333 373.333L266.666 426.666" vector-effect="non-scaling-stroke"/>
    <path d="M320 373.333L266.667 426.666" vector-effect="non-scaling-stroke"/>
    <path d="M320 373.333L373.333 426.666" vector-effect="non-scaling-stroke"/>
    <path d="M426.666 373.333L373.333 426.666" vector-effect="non-scaling-stroke"/>
    <path d="M426.667 373.333L480 426.666" vector-effect="non-scaling-stroke"/>
    <path d="M480 373.333L533.333 426.666" vector-effect="non-scaling-stroke"/>
    <path d="M533.333 373.333L586.666 426.666" vector-effect="non-scaling-stroke"/>
    <path d="M640 373.333L586.667 426.666" vector-effect="non-scaling-stroke"/>
    <path d="M640 373.333L693.333 426.666" vector-effect="non-scaling-stroke"/>
    <path d="M746.666 373.333L693.333 426.666" vector-effect="non-scaling-stroke"/>
    <path d="M800 373.333L746.667 426.666" vector-effect="non-scaling-stroke"/>
    <path d="M0 426.667L53.3333 480" vector-effect="non-scaling-stroke"/>
    <path d="M53.333 426.667L106.666 480" vector-effect="non-scaling-stroke"/>
    <path d="M106.667 426.667L160 480" vector-effect="non-scaling-stroke"/>
    <path d="M213.333 426.667L160 480" vector-effect="non-scaling-stroke"/>
    <path d="M266.666 426.667L213.333 480" vector-effect="non-scaling-stroke"/>
    <path d="M266.667 426.667L320 480" vector-effect="non-scaling-stroke"/>
    <path d="M320 426.667L373.333 480" vector-effect="non-scaling-stroke"/>
    <path d="M373.333 426.667L426.666 480" vector-effect="non-scaling-stroke"/>
    <path d="M426.667 426.667L480 480" vector-effect="non-scaling-stroke"/>
    <path d="M480 426.667L533.333 480" vector-effect="non-scaling-stroke"/>
    <path d="M533.333 426.667L586.666 480" vector-effect="non-scaling-stroke"/>
    <path d="M640 426.667L586.667 480" vector-effect="non-scaling-stroke"/>
    <path d="M693.333 426.667L640 480" vector-effect="non-scaling-stroke"/>
    <path d="M693.333 426.667L746.666 480" vector-effect="non-scaling-stroke"/>
    <path d="M746.667 426.667L800 480" vector-effect="non-scaling-stroke"/>
    <path d="M0 480L53.3333 533.333" vector-effect="non-scaling-stroke"/>
    <path d="M106.666 480L53.333 533.333" vector-effect="non-scaling-stroke"/>
    <path d="M106.667 480L160 533.333" vector-effect="non-scaling-stroke"/>
    <path d="M213.333 480L160 533.333" vector-effect="non-scaling-stroke"/>
    <path d="M266.666 480L213.333 533.333" vector-effect="non-scaling-stroke"/>
    <path d="M320 480L266.667 533.333" vector-effect="non-scaling-stroke"/>
    <path d="M320 480L373.333 533.333" vector-effect="non-scaling-stroke"/>
    <path d="M426.666 480L373.333 533.333" vector-effect="non-scaling-stroke"/>
    <path d="M426.667 480L480 533.333" vector-effect="non-scaling-stroke"/>
    <path d="M533.333 480L480 533.333" vector-effect="non-scaling-stroke"/>
    <path d="M533.333 480L586.666 533.333" vector-effect="non-scaling-stroke"/>
    <path d="M586.667 480L640 533.333" vector-effect="non-scaling-stroke"/>
    <path d="M640 480L693.333 533.333" vector-effect="non-scaling-stroke"/>
    <path d="M693.333 480L746.666 533.333" vector-effect="non-scaling-stroke"/>
    <path d="M746.667 480L800 533.333" vector-effect="non-scaling-stroke"/>
    <path d="M53.3333 533.333L0 586.666" vector-effect="non-scaling-stroke"/>
    <path d="M106.666 533.333L53.333 586.666" vector-effect="non-scaling-stroke"/>
    <path d="M106.667 533.333L160 586.666" vector-effect="non-scaling-stroke"/>
    <path d="M160 533.333L213.333 586.666" vector-effect="non-scaling-stroke"/>
    <path d="M213.333 533.333L266.666 586.666" vector-effect="non-scaling-stroke"/>
    <path d="M266.667 533.333L320 586.666" vector-effect="non-scaling-stroke"/>
    <path d="M320 533.333L373.333 586.666" vector-effect="non-scaling-stroke"/>
    <path d="M426.666 533.333L373.333 586.666" vector-effect="non-scaling-stroke"/>
    <path d="M480 533.333L426.667 586.666" vector-effect="non-scaling-stroke"/>
    <path d="M533.333 533.333L480 586.666" vector-effect="non-scaling-stroke"/>
    <path d="M533.333 533.333L586.666 586.666" vector-effect="non-scaling-stroke"/>
    <path d="M640 533.333L586.667 586.666" vector-effect="non-scaling-stroke"/>
    <path d="M693.333 533.333L640 586.666" vector-effect="non-scaling-stroke"/>
    <path d="M746.666 533.333L693.333 586.666" vector-effect="non-scaling-stroke"/>
    <path d="M746.667 533.333L800 586.666" vector-effect="non-scaling-stroke"/>
    <path d="M53.3333 586.667L0 640" vector-effect="non-scaling-stroke"/>
    <path d="M53.333 586.667L106.666 640" vector-effect="non-scaling-stroke"/>
    <path d="M106.667 586.667L160 640" vector-effect="non-scaling-stroke"/>
    <path d="M160 586.667L213.333 640" vector-effect="non-scaling-stroke"/>
    <path d="M213.333 586.667L266.666 640" vector-effect="non-scaling-stroke"/>
    <path d="M266.667 586.667L320 640" vector-effect="non-scaling-stroke"/>
    <path d="M320 586.667L373.333 640" vector-effect="non-scaling-stroke"/>
    <path d="M426.666 586.667L373.333 640" vector-effect="non-scaling-stroke"/>
    <path d="M480 586.667L426.667 640" vector-effect="non-scaling-stroke"/>
    <path d="M533.333 586.667L480 640" vector-effect="non-scaling-stroke"/>
    <path d="M586.666 586.667L533.333 640" vector-effect="non-scaling-stroke"/>
    <path d="M586.667 586.667L640 640" vector-effect="non-scaling-stroke"/>
    <path d="M640 586.667L693.333 640" vector-effect="non-scaling-stroke"/>
    <path d="M746.666 586.667L693.333 640" vector-effect="non-scaling-stroke"/>
    <path d="M800 586.667L746.667 640" vector-effect="non-scaling-stroke"/>
    <path d="M0 640L53.3333 693.333" vector-effect="non-scaling-stroke"/>
    <path d="M106.666 640L53.333 693.333" vector-effect="non-scaling-stroke"/>
    <path d="M106.667 640L160 693.333" vector-effect="non-scaling-stroke"/>
    <path d="M160 640L213.333 693.333" vector-effect="non-scaling-stroke"/>
    <path d="M266.666 640L213.333 693.333" vector-effect="non-scaling-stroke"/>
    <path d="M266.667 640L320 693.333" vector-effect="non-scaling-stroke"/>
    <path d="M373.333 640L320 693.333" vector-effect="non-scaling-stroke"/>
    <path d="M373.333 640L426.666 693.333" vector-effect="non-scaling-stroke"/>
    <path d="M426.667 640L480 693.333" vector-effect="non-scaling-stroke"/>
    <path d="M533.333 640L480 693.333" vector-effect="non-scaling-stroke"/>
    <path d="M533.333 640L586.666 693.333" vector-effect="non-scaling-stroke"/>
    <path d="M586.667 640L640 693.333" vector-effect="non-scaling-stroke"/>
    <path d="M640 640L693.333 693.333" vector-effect="non-scaling-stroke"/>
    <path d="M746.666 640L693.333 693.333" vector-effect="non-scaling-stroke"/>
    <path d="M800 640L746.667 693.333" vector-effect="non-scaling-stroke"/>
    <path d="M0 693.333L53.3333 746.666" vector-effect="non-scaling-stroke"/>
    <path d="M106.666 693.333L53.333 746.666" vector-effect="non-scaling-stroke"/>
    <path d="M160 693.333L106.667 746.666" vector-effect="non-scaling-stroke"/>
    <path d="M213.333 693.333L160 746.666" vector-effect="non-scaling-stroke"/>
    <path d="M213.333 693.333L266.666 746.666" vector-effect="non-scaling-stroke"/>
    <path d="M266.667 693.333L320 746.666" vector-effect="non-scaling-stroke"/>
    <path d="M373.333 693.333L320 746.666" vector-effect="non-scaling-stroke"/>
    <path d="M373.333 693.333L426.666 746.666" vector-effect="non-scaling-stroke"/>
    <path d="M426.667 693.333L480 746.666" vector-effect="non-scaling-stroke"/>
    <path d="M480 693.333L533.333 746.666" vector-effect="non-scaling-stroke"/>
    <path d="M533.333 693.333L586.666 746.666" vector-effect="non-scaling-stroke"/>
    <path d="M586.667 693.333L640 746.666" vector-effect="non-scaling-stroke"/>
    <path d="M693.333 693.333L640 746.666" vector-effect="non-scaling-stroke"/>
    <path d="M746.666 693.333L693.333 746.666" vector-effect="non-scaling-stroke"/>
    <path d="M746.667 693.333L800 746.666" vector-effect="non-scaling-stroke"/>
    <path d="M0 746.667L53.3333 800" vector-effect="non-scaling-stroke"/>
    <path d="M106.666 746.667L53.333 800" vector-effect="non-scaling-stroke"/>
    <path d="M160 746.667L106.667 800" vector-effect="non-scaling-stroke"/>
    <path d="M213.333 746.667L160 800" vector-effect="non-scaling-stroke"/>
    <path d="M213.333 746.667L266.666 800" vector-effect="non-scaling-stroke"/>
    <path d="M320 746.667L266.667 800" vector-effect="non-scaling-stroke"/>
    <path d="M373.333 746.667L320 800" vector-effect="non-scaling-stroke"/>
    <path d="M426.666 746.667L373.333 800" vector-effect="non-scaling-stroke"/>
    <path d="M480 746.667L426.667 800" vector-effect="non-scaling-stroke"/>
    <path d="M480 746.667L533.333 800" vector-effect="non-scaling-stroke"/>
    <path d="M533.333 746.667L586.666 800" vector-effect="non-scaling-stroke"/>
    <path d="M586.667 746.667L640 800" vector-effect="non-scaling-stroke"/>
    <path d="M640 746.667L693.333 800" vector-effect="non-scaling-stroke"/>
    <path d="M693.333 746.667L746.666 800" vector-effect="non-scaling-stroke"/>
    <path d="M800 746.667L746.667 800" vector-effect="non-scaling-stroke"/>
</svg>
