<svg xmlns="http://www.w3.org/2000/svg" height="800" width="1200" class="main-header__logo-image" fill="#A1A1A1" viewBox="-65.39955 -43.28375 566.7961 259.7025"><path fill="#5f6368" d="M206.197 84.585v50.75h-16.1V10.005h42.7a38.61 38.61 0 0127.65 10.85 34.88 34.88 0 0111.55 26.45 34.72 34.72 0 01-11.55 26.6q-11.2 10.68-27.65 10.67h-26.6zm0-59.15v43.75h27a21.28 21.28 0 0015.93-6.48 21.36 21.36 0 000-30.63 21 21 0 00-15.93-6.65h-27zm102.9 21.35q17.85 0 28.18 9.54 10.33 9.54 10.32 26.16v52.85h-15.4v-11.9h-.7q-10 14.7-26.6 14.7-14.17 0-23.71-8.4a26.82 26.82 0 01-9.54-21q0-13.31 10.06-21.17 10.06-7.86 26.86-7.88 14.34 0 23.62 5.25v-3.68a18.33 18.33 0 00-6.65-14.25 22.8 22.8 0 00-15.54-5.87q-13.49 0-21.35 11.38l-14.18-8.93q11.7-16.8 34.63-16.8zm-20.83 62.3a12.86 12.86 0 005.34 10.5 19.64 19.64 0 0012.51 4.2 25.67 25.67 0 0018.11-7.52q8-7.53 8-17.67-7.53-6-21-6-9.81 0-16.36 4.73c-4.41 3.2-6.6 7.09-6.6 11.76zm147.73-59.5l-53.76 123.55h-16.62l19.95-43.23-35.35-80.32h17.5l25.55 61.6h.35l24.85-61.6z"/><path fill="#4285f4" d="M141.137 73.645a85.79 85.79 0 00-1.24-14.64h-67.9v27.73h38.89a33.33 33.33 0 01-14.38 21.88v18h23.21c13.59-12.53 21.42-31.06 21.42-52.97z"/><path fill="#34a853" d="M71.997 144.005c19.43 0 35.79-6.38 47.72-17.38l-23.21-18c-6.46 4.38-14.78 6.88-24.51 6.88-18.78 0-34.72-12.66-40.42-29.72H7.667v18.55a72 72 0 0064.33 39.67z"/><path fill="#fbbc04" d="M31.577 85.785a43.14 43.14 0 010-27.56v-18.55H7.667a72 72 0 000 64.66z"/><path fill="#ea4335" d="M71.997 28.505a39.09 39.09 0 0127.62 10.8l20.55-20.55A69.18 69.18 0 0071.997.005a72 72 0 00-64.33 39.67l23.91 18.55c5.7-17.06 21.64-29.72 40.42-29.72z"/></svg>