<svg width="80" height="81" viewBox="0 0 80 81" fill="none" xmlns="http://www.w3.org/2000/svg">
<g id="3116889_design_email_material_communication_mail_icon 1" clip-path="url(#clip0_81_366)">
<g id="layer1">
<path id="rect3851" d="M74.6067 0.730957H5.5424C2.75742 0.730957 0.499756 3.01685 0.499756 5.83664V75.7642C0.499756 78.584 2.75742 80.8699 5.5424 80.8699H74.6067C77.3916 80.8699 79.6493 78.584 79.6493 75.7642V5.83664C79.6493 3.01685 77.3916 0.730957 74.6067 0.730957Z" fill="#DB534B"/>
<g id="Clip path group">
<mask id="mask0_81_366" style="mask-type:luminance" maskUnits="userSpaceOnUse" x="1" y="5" width="78" height="76">
<g id="clipPath4206">
<path id="rect4208" d="M73.6244 5.2915H6.62595C3.92428 5.2915 1.73413 7.4473 1.73413 10.1066V76.0546C1.73413 78.7139 3.92428 80.8697 6.62595 80.8697H73.6244C76.3261 80.8697 78.5162 78.7139 78.5162 76.0546V10.1066C78.5162 7.4473 76.3261 5.2915 73.6244 5.2915Z" fill="white"/>
</g>
</mask>
<g mask="url(#mask0_81_366)">
<g id="g4145" opacity="0.489612">
<g id="g4147">
<path id="path4149" d="M65.8115 41.5171C65.8115 54.9863 54.4292 65.9053 40.3884 65.9053L198.828 221.861C212.869 221.861 224.251 210.942 224.251 197.472L65.8115 41.5171Z" fill="black" fill-opacity="0.0588235"/>
<path id="path4151" d="M40.3884 65.9051C33.2495 65.9051 26.7979 63.0825 22.1802 58.5371L180.62 214.492C185.237 219.038 191.689 221.86 198.828 221.86L40.3884 65.9051Z" fill="black" fill-opacity="0.0588235"/>
<path id="path4153" d="M22.1802 58.5373C17.7157 54.1428 14.9653 48.1381 14.9653 41.5171L173.405 197.472C173.405 204.093 176.155 210.098 180.62 214.493L22.1802 58.5373Z" fill="black" fill-opacity="0.0588235"/>
<path id="path4155" d="M14.9653 41.5171C14.9653 28.0479 26.3476 17.1289 40.3884 17.1289L198.828 173.084C184.787 173.084 173.405 184.003 173.405 197.472L14.9653 41.5171Z" fill="black" fill-opacity="0.0588235"/>
<path id="path4157" d="M40.3884 17.1289C47.5273 17.1289 53.9789 19.9516 58.5966 24.4969L217.036 180.452C212.418 175.907 205.967 173.084 198.828 173.084L40.3884 17.1289Z" fill="black" fill-opacity="0.0588235"/>
<path id="path4159" d="M58.5964 24.4971C63.0609 28.8916 65.8113 34.8963 65.8113 41.5173L224.251 197.473C224.251 190.852 221.5 184.847 217.036 180.452L58.5964 24.4971Z" fill="black" fill-opacity="0.0588235"/>
</g>
<path id="path4111" d="M65.8114 41.5171C65.8114 54.9863 54.4291 65.9053 40.3884 65.9053C26.3476 65.9053 14.9653 54.9863 14.9653 41.5171C14.9653 28.0479 26.3476 17.1289 40.3884 17.1289C54.4291 17.1289 65.8114 28.0479 65.8114 41.5171Z" fill="black" fill-opacity="0.0588235"/>
</g>
</g>
</g>
<path id="path3864" d="M17.506 17.5386H62.9018C64.4068 17.5386 65.8501 18.1439 66.9143 19.2214C67.9784 20.2988 68.5763 21.7602 68.5763 23.284V57.7564C68.5763 58.5109 68.4295 59.258 68.1443 59.9551C67.8592 60.6521 67.4412 61.2855 66.9143 61.819C66.3873 62.3525 65.7618 62.7757 65.0733 63.0645C64.3849 63.3532 63.647 63.5018 62.9018 63.5018H17.506C14.3567 63.5018 11.8315 60.9164 11.8315 57.7564V23.284C11.8315 20.0953 14.3567 17.5386 17.506 17.5386ZM40.2039 37.6475L62.9018 23.284H17.506L40.2039 37.6475ZM17.506 57.7564H62.9018V30.0923L40.2039 44.4271L17.506 30.0923V57.7564Z" fill="white"/>
</g>
</g>
<defs>
<clipPath id="clip0_81_366">
<rect width="80" height="81" fill="white"/>
</clipPath>
</defs>
</svg>
