<svg width="49" height="37" viewBox="0 0 49 37" fill="none" xmlns="http://www.w3.org/2000/svg">
<g id="Group">
<path id="Vector" d="M2.23798 3.59132C3.53363 4.39742 21.5313 15.9748 22.2027 16.3917C22.8741 16.8087 23.5573 17.0032 24.6173 17.0032C25.6774 17.0032 26.3606 16.8087 27.0319 16.3917C27.7033 15.9748 45.701 4.39742 46.9967 3.59132C47.4796 3.29945 48.2923 2.77131 48.469 2.17368C48.7753 1.11741 48.4455 0.714355 47.138 0.714355H24.6173H2.09664C0.789214 0.714355 0.459412 1.13131 0.765656 2.17368C0.942335 2.78521 1.75506 3.29945 2.23798 3.59132Z" fill="white"/>
<path id="Vector_2" d="M48.0214 4.21664C47.0555 4.80037 38.3865 12.0831 32.6503 16.4611L42.3323 29.3171C42.5679 29.5951 42.6739 29.9286 42.5443 30.0954C42.403 30.2483 42.0967 30.1649 41.8494 29.9008L30.2357 18.3374C28.4807 19.6716 27.2439 20.5889 27.0319 20.7279C26.1249 21.2699 25.4889 21.3394 24.6173 21.3394C23.7457 21.3394 23.1096 21.2699 22.2027 20.7279C21.9789 20.5889 20.7539 19.6716 18.9989 18.3374L7.38519 29.9008C7.14961 30.1788 6.83159 30.2622 6.69025 30.0954C6.54891 29.9425 6.65491 29.5951 6.89048 29.3171L16.5607 16.4611C10.8245 12.0831 2.06126 4.80037 1.09541 4.21664C0.0588929 3.59121 0 4.32783 0 4.89766C0 5.46749 0 33.3893 0 33.3893C0 34.6819 1.61367 36.2941 2.76797 36.2941H24.6173H46.4666C47.6209 36.2941 48.999 34.668 48.999 33.3893C48.999 33.3893 48.999 5.4536 48.999 4.89766C48.999 4.31393 49.0697 3.59121 48.0214 4.21664Z" fill="white"/>
</g>
</svg>
