<svg viewBox="0 0 1400 558" fill="none" xmlns="http://www.w3.org/2000/svg" preserveAspectRatio="none">
    <defs>
        <linearGradient id="gradient" gradientTransform="rotate(90)">
        <stop offset="0" stop-color="#383E45" stop-opacity="0"/>
        <stop offset="1" stop-color="#383E45"/>
        </linearGradient>
    </defs>
    <path d="M627.461 1.09546L347.345 560.912M410.221 1.09546L-4.99848 208.821M337.805 1.09546L-4.99848 138.307M265.397 1.09546L-4.99978 91.291M482.637 1.09546L-4.99957 326.321M192.982 1.09546L-4.99978 57.7029M48.1511 1.09546L-5 12.9172M120.566 1.09546L-5 32.5096M1206.77 1.09546L1405 57.8055M699.876 1.09546L699.391 560.912M1279.19 1.09546L1405 32.5838M1351.59 1.09546L1405 12.9762M1134.36 1.09546L1405 91.4285M1061.94 1.09546L1405 138.497M917.116 1.09546L1405 326.862M989.532 1.09546L1405 209.127M772.292 1.09546L1051.44 560.912M555.045 1.09546L-4.69913 560.912M844.701 1.09546L1403.49 560.912M1403.49 560.913H-4.69801M1405 77.4953H-4.99848M1405 26.2614H-4.99848M1405 36.7073H-4.99848M1405 48.5217H-4.99848M1405 8.61602H-4.99848M1405 16.957H-4.99848M1405 412.715H-4.99848M1405 95.5167H-4.99848M1405 61.9965H-4.99848M1405 1.09579H-4.99848M1405 116.73H-4.99848M1405 142.074H-4.99848M1405 324.127H-4.99848M1405 172.88H-4.99848M1405 211.124H-4.99848M1405 259.869H-4.99848" stroke="url(#gradient)" vector-effect="non-scaling-stroke"/>
</svg>
