<svg viewBox="0 0 1400 1400" fill="none" xmlns="http://www.w3.org/2000/svg" preserveAspectRatio="none">
    <defs>
        <linearGradient id="gradient" gradientTransform="rotate(90)">
            <stop offset="0" stop-color="#383E45"/>
            <stop offset=".3" stop-color="#383E45" stop-opacity="0"/>
            <stop offset=".7" stop-color="#383E45" stop-opacity="0"/>
            <stop offset="1" stop-color="#383E45"/>
        </linearGradient>
    </defs>
    <path d="M769.432 562.369L1052.5 -3.90933M907.28 562.369L1404.75 231.033M700.509 562.369L699.997 -3.90933M1182.97 562.369L1404.75 499.084M1251.89 562.369L1404.76 524.207M1045.12 562.369L1404.75 418.691M976.203 562.369L1404.75 348.333M1114.04 562.369L1404.75 465.586M218.053 562.369L-3.48291 499.189M1320.81 562.369L1404.75 543.742M1389.73 562.37L1404.76 559.371M286.976 562.369L-3.48425 465.73M424.823 562.369L-3.48328 348.647M631.586 562.369L347.499 -3.90933M149.129 562.369L-3.48401 524.281M355.899 562.369L-3.48425 418.896M493.746 562.369L-3.48328 231.598M11.2904 562.37L-3.48376 559.419M80.2129 562.369L-3.48401 543.804M562.663 562.369L-5 -3.90933M838.356 562.369L1405 -3.90933L-4.99892 -3.90967M10.969 837.987L-3.78333 840.944M79.8923 837.987L-3.78491 856.6M769.138 837.987L1051.33 1403.91M975.909 837.987L1404.45 1052.56M906.985 837.987L1404.45 1170.15M1044.84 837.987L1404.45 982.027M1113.76 837.987L1404.45 935.008M1320.53 837.987L1404.45 856.655M1251.61 837.987L1404.45 876.245M700.215 837.987L699.722 1403.91M1182.68 837.987L1404.45 901.426M1389.46 837.987L1404.45 840.992M148.815 837.987L-3.78271 876.171M217.739 837.987L-3.78406 901.333M493.439 837.987L-3.78333 1169.61M286.663 837.987L-3.78296 934.87M355.593 837.987L-3.78418 981.835M424.515 837.987L-3.78442 1052.26M631.286 837.987L348.119 1403.91M562.362 837.987L-3.48267 1403.91M838.062 837.987L1402.94 1403.91L-3.48401 1403.91M1404.45 837.988H-3.78406M1404.45 921.092H-3.78406M1404.45 869.923H-3.78406M1404.45 880.362H-3.78406M1404.45 892.162H-3.78406M1404.45 852.299H-3.78406M1404.45 860.629H-3.78406M1404.45 1255.9H-3.78406M1404.45 939.091H-3.78406M1404.45 905.613H-3.78406M1404.45 844.795H-3.78406M1404.45 960.286H-3.78406M1404.45 985.598H-3.78406M1404.45 1167.42H-3.78406M1404.45 1016.37H-3.78406M1404.45 1054.56H-3.78406M1404.45 1103.24H-3.78406M1404.75 233.826H-3.48401M1404.75 461.531H-3.48401M1404.75 384.468H-3.48401M1404.75 297.827H-3.48401M1404.75 145.592H-3.48401M1404.75 346.382H-3.48401M1404.75 415.154H-3.48401M1404.75 539.788H-3.48401M1404.75 520.11H-3.48401M1404.75 508.338H-3.48401M1404.75 530.522H-3.48401M1404.75 555.588H-3.48401M1404.75 548.098H-3.48401M1404.75 562.369H-3.48401M1404.75 479.482H-3.48401M1404.75 440.398H-3.48401M1404.75 494.921H-3.48401" vector-effect="non-scaling-stroke" stroke="url(#gradient)"/>
</svg>
