<svg viewBox="0 250 1400 900" fill="none" xmlns="http://www.w3.org/2000/svg" stroke="#383E45" preserveAspectRatio="none">
    <style>
		@media only screen and (max-width: 130px) {
            path {
                stroke-width: 10px;
                opacity: .75;
            }
        }
    </style>
    <path d="M1410.24 235.384L894.493 578.967V831.601L1410.24 1175.72M1410.24 1057.52L957.778 831.601M957.778 831.601V578.967M957.778 831.601L452.476 831.6V578.966L957.778 578.967M957.778 578.967L1410.24 352.658M0.244385 1.42418L579.077 578.966V831.6L0.366657 1410.18M351.858 0.180176L642.164 578.966V831.6L352.618 1410.06M1057.59 0.180176L768.326 578.966V831.6L1056.87 1410.06M704.724 0.180176L704.744 1410.06M1410.24 0.384804L831.412 578.965V831.602L1409.01 1410.06M0.244385 352.638L452.478 578.966V831.6L0.244385 1057.54M0.244385 235.795L515.996 578.967V831.601L0.244385 1175.33M1410.24 881.874L957.777 768.198H452.476L0.245239 881.73M1410.24 529.245L957.777 642.042H452.476L0.245239 529.418M1410.24 705.56L0.245239 705.573M1410.24 350.982H0.245239M1410.24 302.356H0.245239M1410.24 1108.95H0.245239M1410.24 1173.22H0.245239M1410.24 1261.83H0.245239M1410.24 1391.81H0.245239M1410.24 238.263H0.245239M1410.24 149.9H0.245239M1410.24 20.2845H0.245239M1410.24 1060.19H0.245239M441.474 837.104H968.824V573.46H441.474V837.104ZM429.081 843.307H981.243V567.253H429.081V843.307ZM415.465 850.119H994.887V560.442H415.465V850.119ZM400.441 857.598H1009.87V552.918H400.441V857.598ZM383.768 865.927H1026.55V544.576H383.768V865.927ZM365.165 875.221H1045.16V535.271H365.165V875.221ZM344.281 885.655H1066.06V524.814H344.281V885.655ZM320.661 897.457H1089.69V512.998H320.661V897.457ZM293.737 910.908H1116.63V499.519H293.737V910.908ZM262.756 926.383H1147.63V484.018H262.756V926.383ZM226.73 944.381H1183.68V465.987H226.73V944.381ZM184.308 965.581H1226.12V444.755H184.308V965.581ZM133.661 991.126H1277.28V419.406H133.661V991.126ZM72.3573 1021.51H1338.13V388.729H72.3573V1021.51Z" opacity=".25"/>
</svg>
