<svg xmlns="http://www.w3.org/2000/svg" xmlns:xlink="http://www.w3.org/1999/xlink" width="70" height="70"><defs><path id="a" d="M4 0h61c4 0 5 1 5 5v60c0 4-1 5-5 5H4c-3 0-4-1-4-5V5c0-4 1-5 4-5z"/><linearGradient id="c" x1="100%" x2="0%" y1="0%" y2="100%"><stop offset="0%" stop-color="#94B6C8"/><stop offset="100%" stop-color="#6A9EBA"/></linearGradient><path id="d" d="M19.25 42h2.714v5.212c0 .188.152.343.339.343h26.394a.342.342 0 0 0 .339-.343V37.5H30.732c.389-3.667-.582-5.833-2.914-6.5h21.218v-3.212a.342.342 0 0 0-.339-.343H29.765c.361-1.01.57-1.924.627-2.742h18.644c1.5 0 2.714 1.228 2.714 2.742v20.11c0 1.514-1.213 2.742-2.714 2.742H21.964c-1.5 0-2.714-1.228-2.714-2.742V42zm-3.79 13.642h-1.037V55h2.833v.642h-1.037v2.832h-.76v-2.832zM17.422 55h1.07l.809 2.389h.01L20.075 55h1.07v3.474h-.711v-2.462h-.01l-.847 2.462h-.586l-.848-2.438h-.01v2.438h-.711V55zm17.403-34.99c.985.007-2.543 2.376-2.271 2.073h-5.692c.113.126.201.23.298.334 1.214 1.315 1.076 3.081.239 4.432-.597.965-1.488 1.586-2.49 2.049-1.103.518-2.277.747-3.475.909a85.771 85.771 0 0 0-3.555.56c-.274.046-.546.186-.782.34-.383.25-.375.645.047.811.595.23 1.216.411 1.843.532 1.768.343 3.567.532 5.295 1.073.842.265 1.651.598 2.341 1.182 1.138.972 1.222 2.65.013 3.726-.948.85-2.094 1.272-3.295 1.557-1.024.243-2.063.36-3.117.396-2.206.076-4.376-.11-6.481-.823-.77-.265-1.497-.614-2.09-1.2-.333-.322-.582-.69-.64-1.174-.08-.656.198-1.127.696-1.496.701-.517 1.51-.775 2.335-.97.797-.192 1.606-.33 2.345-.482-.471-.161-1.025-.314-1.546-.545-.407-.185-.812-.406-1.146-.7-.655-.571-.655-1.42-.049-2.06.442-.468.997-.76 1.586-.974.513-.192 1.041-.34 1.567-.51-.328-.148-.676-.29-1.004-.459-.748-.39-1.42-.886-1.821-1.658-.777-1.496-.475-2.903.467-4.197.908-1.243 2.204-1.916 3.634-2.345a9.62 9.62 0 0 1 2.742-.387c4.671 0 9.339-.013 14.006.007zM18.778 34.016c-1.03.185-2.057.453-3.064.787-.495.16-.972.475-1.405.82-.421.333-.405.865.006 1.224.269.235.58.424.893.553 1.223.505 2.505.489 4.007.601.526-.08 1.283-.165 2.03-.322.546-.114 1.073-.34 1.483-.845.381-.462.363-.962-.063-1.357a2.674 2.674 0 0 0-.689-.487 25.158 25.158 0 0 0-1.952-.725c-.408-.133-.846-.318-1.246-.249zm4.666-7.55c.368-.527.59-1.137.552-1.813-.061-1.064-.609-1.772-1.446-2.208a3.71 3.71 0 0 0-2.357-.396c-1.155.18-2.127.73-2.802 1.824-.64 1.036-.479 2.313.366 3.145.737.729 1.629.933 2.647.983.182-.02.438-.041.69-.08.94-.162 1.748-.606 2.35-1.455z"/><path id="e" d="M19.25 40h2.714v5.212c0 .188.152.343.339.343h26.394a.342.342 0 0 0 .339-.343V35.5H30.732c.389-3.667-.582-5.833-2.914-6.5h21.218v-3.212a.342.342 0 0 0-.339-.343H29.765c.361-1.01.57-1.924.627-2.742h18.644c1.5 0 2.714 1.228 2.714 2.742v20.11c0 1.514-1.213 2.742-2.714 2.742H21.964c-1.5 0-2.714-1.228-2.714-2.742V40zm-3.79 13.642h-1.037V53h2.833v.642h-1.037v2.832h-.76v-2.832zM17.422 53h1.07l.809 2.389h.01L20.075 53h1.07v3.474h-.711v-2.462h-.01l-.847 2.462h-.586l-.848-2.438h-.01v2.438h-.711V53zm17.403-34.99c.985.007-2.543 2.376-2.271 2.073h-5.692c.113.126.201.23.298.334 1.214 1.315 1.076 3.081.239 4.432-.597.965-1.488 1.586-2.49 2.049-1.103.518-2.277.747-3.475.909a85.771 85.771 0 0 0-3.555.56c-.274.046-.546.186-.782.34-.383.25-.375.645.047.811.595.23 1.216.411 1.843.532 1.768.343 3.567.532 5.295 1.073.842.265 1.651.598 2.341 1.182 1.138.972 1.222 2.65.013 3.726-.948.85-2.094 1.272-3.295 1.557-1.024.243-2.063.36-3.117.396-2.206.076-4.376-.11-6.481-.823-.77-.265-1.497-.614-2.09-1.2-.333-.322-.582-.69-.64-1.174-.08-.656.198-1.127.696-1.496.701-.517 1.51-.775 2.335-.97.797-.192 1.606-.33 2.345-.482-.471-.161-1.025-.314-1.546-.545-.407-.185-.812-.406-1.146-.7-.655-.571-.655-1.42-.049-2.06.442-.468.997-.76 1.586-.974.513-.192 1.041-.34 1.567-.51-.328-.148-.676-.29-1.004-.459-.748-.39-1.42-.886-1.821-1.658-.777-1.496-.475-2.903.467-4.197.908-1.243 2.204-1.916 3.634-2.345a9.62 9.62 0 0 1 2.742-.387c4.671 0 9.339-.013 14.006.007zM18.778 32.016c-1.03.185-2.057.453-3.064.787-.495.16-.972.475-1.405.82-.421.333-.405.865.006 1.224.269.235.58.424.893.553 1.223.505 2.505.489 4.007.601.526-.08 1.283-.165 2.03-.322.546-.114 1.073-.34 1.483-.845.381-.462.363-.962-.063-1.357a2.674 2.674 0 0 0-.689-.487 25.158 25.158 0 0 0-1.952-.725c-.408-.133-.846-.318-1.246-.249zm4.666-7.55c.368-.527.59-1.137.552-1.813-.061-1.064-.609-1.772-1.446-2.208a3.71 3.71 0 0 0-2.357-.396c-1.155.18-2.127.73-2.802 1.824-.64 1.036-.479 2.313.366 3.145.737.729 1.629.933 2.647.983.182-.02.438-.041.69-.08.94-.162 1.748-.606 2.35-1.455z"/></defs><g fill="none" fill-rule="evenodd"><mask id="b" fill="#fff"><use xlink:href="#a"/></mask><g mask="url(#b)"><path fill="url(#c)" d="M0 0H70V70H0z"/><path fill="#FFF" fill-opacity=".383" d="M4 1h61c2.667 0 4.333.667 5 2V0H0v3c.667-1.333 2-2 4-2z"/><path fill="#393939" d="M4 69c-2 0-4-1-4-4V33.916L15.591 19.5 34.912 18l-3.89 4.703h6.228L48 23l3.576 1.968-.236 22.01L39.224 69H4z" opacity=".324"/><path fill="#000" fill-opacity=".383" d="M4 69h61c2.667 0 4.333-1 5-3v4H0v-4c.667 2 2 3 4 3z"/><use fill="#000" fill-rule="nonzero" opacity=".3" xlink:href="#d"/><use fill="#FFF" fill-rule="nonzero" xlink:href="#e"/></g></g></svg>