<svg xmlns="http://www.w3.org/2000/svg" xmlns:xlink="http://www.w3.org/1999/xlink" width="70" height="70"><defs><path id="a" d="M4 0h61c4 0 5 1 5 5v60c0 4-1 5-5 5H4c-3 0-4-1-4-5V5c0-4 1-5 4-5z"/><linearGradient id="c" x1="100%" x2="0%" y1="0%" y2="100%"><stop offset="0%" stop-color="#94B6C8"/><stop offset="100%" stop-color="#6A9EBA"/></linearGradient><path id="d" d="M19.25 46h2.714v1.212c0 .188.152.343.339.343h26.394a.342.342 0 0 0 .339-.343V37.5H32.5c.333-3.333-.165-5.5-1.494-6.5h18.03v-3.212a.342.342 0 0 0-.339-.343H29.765c.361-1.01.57-1.924.627-2.742h18.644c1.5 0 2.714 1.228 2.714 2.742v20.11c0 1.514-1.213 2.742-2.714 2.742H21.964c-1.5 0-2.714-1.228-2.714-2.742V46zm-3.79 9.642h-1.037V55h2.833v.642h-1.037v2.832h-.76v-2.832zM17.422 55h1.07l.809 2.389h.01L20.075 55h1.07v3.474h-.711v-2.462h-.01l-.847 2.462h-.586l-.848-2.438h-.01v2.438h-.711V55zm5.66-27.992c4.256 1.523 6.896 3.327 6.896 7.649 0 2.612-.901 4.633-2.64 6.001-1.553 1.244-3.852 1.897-6.616 1.897-3.48 0-6.834-1.057-8.635-2.084l.932-5.814c2.112 1.244 5.342 2.207 7.299 2.207 1.584 0 2.454-.59 2.454-1.616 0-1.058-.901-1.742-3.603-2.706-4.193-1.523-6.771-3.327-6.771-7.556 0-2.332.838-4.26 2.453-5.597 1.553-1.275 3.728-1.959 6.337-1.959 3.696 0 6.367 1.027 7.671 1.649l-.931 5.752c-1.647-.808-4.038-1.71-6.368-1.71-1.273 0-1.988.497-1.988 1.368 0 1.026 1.243 1.68 3.51 2.519z"/><path id="e" d="M19.25 44h2.714v1.212c0 .188.152.343.339.343h26.394a.342.342 0 0 0 .339-.343V35.5H32.5c.333-3.333-.165-5.5-1.494-6.5h18.03v-3.212a.342.342 0 0 0-.339-.343H29.765c.361-1.01.57-1.924.627-2.742h18.644c1.5 0 2.714 1.228 2.714 2.742v20.11c0 1.514-1.213 2.742-2.714 2.742H21.964c-1.5 0-2.714-1.228-2.714-2.742V44zm-3.79 9.642h-1.037V53h2.833v.642h-1.037v2.832h-.76v-2.832zM17.422 53h1.07l.809 2.389h.01L20.075 53h1.07v3.474h-.711v-2.462h-.01l-.847 2.462h-.586l-.848-2.438h-.01v2.438h-.711V53zm5.66-27.992c4.256 1.523 6.896 3.327 6.896 7.649 0 2.612-.901 4.633-2.64 6.001-1.553 1.244-3.852 1.897-6.616 1.897-3.48 0-6.834-1.057-8.635-2.084l.932-5.814c2.112 1.244 5.342 2.207 7.299 2.207 1.584 0 2.454-.59 2.454-1.616 0-1.058-.901-1.742-3.603-2.706-4.193-1.523-6.771-3.327-6.771-7.556 0-2.332.838-4.26 2.453-5.597 1.553-1.275 3.728-1.959 6.337-1.959 3.696 0 6.367 1.027 7.671 1.649l-.931 5.752c-1.647-.808-4.038-1.71-6.368-1.71-1.273 0-1.988.497-1.988 1.368 0 1.026 1.243 1.68 3.51 2.519z"/></defs><g fill="none" fill-rule="evenodd"><mask id="b" fill="#fff"><use xlink:href="#a"/></mask><g mask="url(#b)"><path fill="url(#c)" d="M0 0H70V70H0z"/><path fill="#FFF" fill-opacity=".383" d="M4 1h61c2.667 0 4.333.667 5 2V0H0v3c.667-1.333 2-2 4-2z"/><path fill="#393939" d="M4 69c-2 0-4-1-4-4V33.916L14 17.5l13.818 5.203h9.432L48 23l3.576 1.968-.236 22.01L39.224 69H4z" opacity=".324"/><path fill="#000" fill-opacity=".383" d="M4 69h61c2.667 0 4.333-1 5-3v4H0v-4c.667 2 2 3 4 3z"/><use fill="#000" fill-rule="nonzero" opacity=".3" xlink:href="#d"/><use fill="#FFF" fill-rule="nonzero" xlink:href="#e"/></g></g></svg>