<svg width="50" height="50" viewBox="0 0 50 50" xmlns="http://www.w3.org/2000/svg"><path d="M43.105 50h.972v-3.182h1.108V46H42v.818h1.105V50Zm2.775 0h.858v-2.547h.053L47.663 50h.555l.871-2.547h.056V50H50v-4h-1.108l-.924 2.714h-.05L46.99 46h-1.11v4Z" fill="#D1D5DB"/><path d="M4 15.425c0-2.209.644-4.089 2.027-5.428l2.385 2.35c-2.647 2.608-.334 10.715 7.227 18.164 7.56 7.448 15.79 9.728 18.436 7.12l2.386 2.35c-4.484 4.417-14.668 1.268-23.207-7.12C7.339 27.01 4 20.406 4 15.424Z" fill="#009A46"/><path d="M19.05 42c-2.242 0-4.15-.634-5.51-1.997l2.385-2.35c2.648 2.608 10.876.329 18.436-7.12 7.561-7.449 9.875-15.555 7.227-18.164l2.385-2.35c4.484 4.418 1.288 14.452-7.226 22.864C30.807 38.71 24.082 42 19.049 42Z" fill="#FF5805"/><path d="M37.51 29.522c-1.455-4.112-4.412-8.506-8.323-12.36C20.648 8.75 10.463 5.625 5.98 10.019c-.31.329-.024 1.104.62 1.739.644.634 1.455.916 1.765.61 2.647-2.608 10.876-.329 18.437 7.12 3.577 3.525 6.248 7.473 7.536 11.115 1.121 3.195 1.026 5.78-.286 7.073-.31.305-.048 1.08.62 1.738.668.658 1.455.917 1.765.611 2.29-2.279 2.671-6.015 1.073-10.503Z" fill="#F5AFCB"/><path d="M43.95 10.02c-2.29-2.256-6.083-2.632-10.638-1.08-4.174 1.433-8.634 4.346-12.545 8.2-8.539 8.412-11.71 18.446-7.227 22.863.31.306 1.121.047 1.765-.61.644-.659.93-1.434.62-1.74-2.647-2.608-.334-10.714 7.227-18.163 3.577-3.525 7.584-6.157 11.257-7.425 3.244-1.105 5.867-1.01 7.18.282.31.305 1.096.046 1.764-.611.668-.658.93-1.387.596-1.716Z" fill="#FF9B00"/></svg>
