<svg id="Waves" xmlns="http://www.w3.org/2000/svg" xmlns:xlink="http://www.w3.org/1999/xlink" viewBox="0 0 1400 1400">
  <defs>
    <linearGradient id="linear-gradient" x1="605.42" y1="13882.68" x2="737.52" y2="13018.52" gradientTransform="matrix(1, 0, 0, -1, 0, 13548.95)" gradientUnits="userSpaceOnUse">
      <stop offset="0" stop-color="#ffffff"/>
      <stop offset="0.1" stop-color="#ffffff" stop-opacity="0.82"/>
      <stop offset="0.23" stop-color="#ffffff" stop-opacity="0.61"/>
      <stop offset="0.37" stop-color="#ffffff" stop-opacity="0.42"/>
      <stop offset="0.5" stop-color="#ffffff" stop-opacity="0.27"/>
      <stop offset="0.63" stop-color="#ffffff" stop-opacity="0.15"/>
      <stop offset="0.76" stop-color="#ffffff" stop-opacity="0.07"/>
      <stop offset="0.88" stop-color="#ffffff" stop-opacity="0.02"/>
      <stop offset="1" stop-color="#ffffff" stop-opacity="0"/>
    </linearGradient>
  </defs>
    <rect width="1400" height="570" style="fill: url(#linear-gradient)"/>
    <path d="M1400,0V14.6q-230.7,148.8-669.7,81C496,59.3,251.5,76.2,0,146.2V0Z" style="fill: #ffffff"/>
    <path d="M1400,0h0C1216.5,125.2,995.5,171.7,738,132.6,264.4,60.8,0,146.2,0,146.2V0Z" style="fill: #ffffff;fill-opacity: 0.349999994039536"/>
    <path d="M1400,0V22.1Q1148,202.25,746,146.3c-330.4-46-601.2-36.5-746,50.1V0Z" style="fill: #ffffff;fill-opacity: 0.170000001788139"/>
    <path d="M1400,0V22.1q-244.65,159-661.7,94.1C460.5,73,213.3,90,0,167.2V0Z" style="fill: #ffffff;fill-opacity: 0.449999988079071"/>
</svg>
