<?xml version="1.0" encoding="utf-8"?>
<!-- Generator: Adobe Illustrator 24.1.3, SVG Export Plug-In . SVG Version: 6.00 Build 0)  -->
<svg version="1.1" id="Waves" xmlns="http://www.w3.org/2000/svg" xmlns:xlink="http://www.w3.org/1999/xlink" x="0px" y="0px"
	 viewBox="0 0 1400 1400" xml:space="preserve">
<style type="text/css">
	.st0{fill:url(#SVGID_1_);}
	.st1{opacity:0.22;fill:url(#SVGID_2_);enable-background:new    ;}
	.st2{fill:url(#SVGID_3_);}
</style>
<radialGradient id="SVGID_1_" cx="700.05" cy="6519.4429" r="734.1025" fx="-9.7756" fy="6332.231" gradientTransform="matrix(1 0 0 -1 0 6708.9502)" gradientUnits="userSpaceOnUse">
	<stop  offset="0" style="stop-color:#7C6576"/>
	<stop  offset="0.98" style="stop-color:#7C6576;stop-opacity:0.3"/>
</radialGradient>
<path class="st0" d="M0,245c0,0,84.1,25.3,239.7-51.1c112-55,271.8-35.4,314.3-2c142.4,111.8,138.5,138.7,249,148
	s155.6-59.1,286.3-39.4c65.4,9.9,172.7,129.3,310.8,53.4V0H0V245z"/>
<linearGradient id="SVGID_2_" gradientUnits="userSpaceOnUse" x1="303.6805" y1="6686.5811" x2="1025.8474" y2="6284.4497" gradientTransform="matrix(1 0 0 -1 0 6708.9502)">
	<stop  offset="0" style="stop-color:#7C6576"/>
	<stop  offset="1" style="stop-color:#7C6576"/>
</linearGradient>
<path class="st1" d="M0,486c57.8-4.9,277-192.5,390.6-225s211.9-37.5,420.2,59.2c104.2,48.4,195.2,29.7,240.9,12.9
	c61.5-22.5,156.9-161,348.3-106.7V0H0l-0.2,486"/>
<linearGradient id="SVGID_3_" gradientUnits="userSpaceOnUse" x1="699.95" y1="580.0013" x2="699.95" y2="-31.0112" gradientTransform="matrix(1 0 0 -1 0 572)">
	<stop  offset="9.365156e-02" style="stop-color:#7C6576"/>
	<stop  offset="0.3846" style="stop-color:#7C6576;stop-opacity:0.5412"/>
	<stop  offset="0.7278" style="stop-color:#7C6576;stop-opacity:0"/>
</linearGradient>
<path class="st2" d="M0,273.3c62.5,34.5,113.6,11.9,138.5,0s148.2-130.8,263-134.2c107.8-3.2,135.4,37.5,222.5,117.4
	s158.7,63.3,196,39.5s113.2-98.8,234.7-40.5s110.2,49.3,137.1,48.4c28.5-1,84.1-46.9,129.1-64.1s79-6.9,79-6.9V0H0V273.3z"/>
</svg>
