<svg xmlns="http://www.w3.org/2000/svg" xmlns:xlink="http://www.w3.org/1999/xlink" viewBox="0 0 1400 570">
<style type="text/css">
	.st1{clip-path:url(#SVGID_2_);}
	.st2{fill:url(#path-6_1_);}
	.st3{fill:url(#path-3_1_);}
	.st4{fill:url(#path-9_1_);}
	.st5{fill:url(#path-13_1_);}
	.st6{fill:none;stroke:url(#SVGID_3_);stroke-width:0.5509;}
</style>
		<defs>
			<rect id="SVGID_1_" x="1.5" y="0.1" width="1400" height="570"/>
		</defs>
		<clipPath id="SVGID_2_">
			<use xlink:href="#SVGID_1_"  style="overflow:visible;"/>
		</clipPath>
		<g class="st1">
				<linearGradient id="path-6_1_" gradientUnits="userSpaceOnUse" x1="1341.896" y1="-1642.226" x2="1343.566" y2="-1640.556" gradientTransform="matrix(1 0 0 1 0 2716.95)">
					<stop  offset="0" style="stop-color:#3AADAA;stop-opacity:0.1"/>
					<stop  offset="1" style="stop-color:#FFFFFF;stop-opacity:0"/>
				</linearGradient>
				<path id="path-6" class="st2" d="M299.8,444c123.6,0,294.7-82,400-91c141.9-12.1,256.6,84.8,516.1,29.2
					c81.3-17.4,184.1-86.5,184.1-86.5V570H0v-97C0,473,155.4,444,299.8,444z"/>
				<linearGradient id="path-3_1_" gradientUnits="userSpaceOnUse" x1="699.341" y1="2899.8706" x2="741.6609" y2="2821.4805" gradientTransform="matrix(1 0 0 -1 0 3288.95)">
					<stop  offset="0" style="stop-color:#3AADAA;stop-opacity:0.1"/>
					<stop  offset="1" style="stop-color:#FFFFFF;stop-opacity:0"/>
				</linearGradient>
				<path id="path-3" class="st3" d="M299.8,479.7c64.6-21.5,117.6-47.1,179.2-59.9c104.4-21.7,203.6,55.8,366.5,54.3
					c130.5-1.2,210-35.7,254.3-53.6c85.3-42.1,240.6-143.3,300.2-210V570H0v-50C52.4,520,173.2,521.9,299.8,479.7z"/>
				<linearGradient id="path-9_1_" gradientUnits="userSpaceOnUse" x1="916.0543" y1="3097.3337" x2="1082.7242" y2="2894.4036" gradientTransform="matrix(1 0 0 -1 0 3288.95)">
					<stop  offset="0" style="stop-color:#3AADAA;stop-opacity:0.1"/>
					<stop  offset="1" style="stop-color:#FFFFFF;stop-opacity:0"/>
				</linearGradient>
				<path id="path-9" class="st4" d="M634,570c285.1-115.8,293.2-343,465.9-477.3c83-64.5,217.5-65.3,298-36.2l2.1,513.4L634,570z"
					/>
				<linearGradient id="path-13_1_" gradientUnits="userSpaceOnUse" x1="702.1584" y1="2885.2192" x2="780.0685" y2="2709.0493" gradientTransform="matrix(1 0 0 -1 0 3288.95)">
					<stop  offset="0" style="stop-color:#3AADAA;stop-opacity:0.1"/>
					<stop  offset="1" style="stop-color:#FFFFFF;stop-opacity:0"/>
				</linearGradient>
				<path id="path-13" class="st5" d="M299.8,561.1c384.9,0,545-321.6,800-377.1c128.6-26.7,219.9,30.1,300.2,43.7V570H0v-86
					C60.5,516,159.5,561.1,299.8,561.1z"/>
				<linearGradient id="SVGID_3_" gradientUnits="userSpaceOnUse" x1="11588.583" y1="-1594.7891" x2="11588.9326" y2="-1594.7991" gradientTransform="matrix(1600.09 0 0 622.2 -18542236 992775.625)">
					<stop  offset="0" style="stop-color:#FFFFFF;stop-opacity:0"/>
					<stop  offset="0.92" style="stop-color:#FFFFFF"/>
					<stop  offset="1" style="stop-color:#FFFFFF;stop-opacity:0"/>
				</linearGradient>
				<path class="st6" d="M1098.8,299.5l2.4-1.2l0.1,0.6L1098.8,299.5z M302.8,675.5h-1.3l0.1,0.6L302.8,675.5z"/>
		</g>
</svg>
