<svg xmlns="http://www.w3.org/2000/svg" xmlns:xlink="http://www.w3.org/1999/xlink" viewBox="0 0 1400 2800">
	<path style="opacity:.08;fill:#3AADAA;" d="M664.2,2751.6c-75.6,4-193.4,14.8-304.9,24.3,18.5,2.4,36,4.8,52,7.1,217.7,30.7,328.6,12.5,498.9-16.7C826.5,2757.4,760.3,2746.5,664.2,2751.6Z"/>
	<path style="opacity:.08;fill:#3AADAA;" d="M1400,2800.4v-39s-52.1,7.2-124.7,13.6C1347.3,2779.1,1400,2800.4,1400,2800.4Z"/>
	<path style="opacity:.08;fill:#3AADAA;" d="M989,2752.9c-27.9,4.6-54,9.1-78.8,13.4,38.8,4.1,81.3,7.9,132.4,9.4,78.1,2.4,164.5-2.8,232.7-8.7C1188.2,2752.2,1072.9,2739,989,2752.9Z"/>
	<path style="opacity:.08;fill:#3AADAA;" d="M0,2752.4v41s-3.8.8,116.7-1.2c55.7-.9,146.8-8.1,242.6-16.3C223.4,2758.1,35.4,2738,0,2752.4Z"/>
	<path style="opacity:.15;fill:#3AADAA;" d="M0,0V2752.4c35.4-14.4,223.4,5.7,359.3,23.5,111.5-9.5,229.3-20.4,304.9-24.3,96.1-5.1,162.3,5.8,246,14.7,24.8-4.3,50.9-8.8,78.8-13.4,83.9-13.9,199.2-.7,286.3,14.1,72.6-6.3,124.7-13.6,124.7-13.6V0Z"/>
</svg>
