<svg xmlns="http://www.w3.org/2000/svg" xmlns:xlink="http://www.w3.org/1999/xlink" preserveAspectRatio="none" width="1680" height="916">
    <g transform="translate(1304.611147276906,97.61065245204992) scale(100)" opacity=".4">
        <path d="M5.7036 0 C5.7036 1.3523999999999998 5.9211962554800746 1.8569872439219248 5.244996255480075 3.0281999999999996 S4.023012756078074 4.263262493024924 2.8518000000000003 4.939462493024924 S1.3524000000000003 6.0564 3.708475437178015e-16 6.0564 S-1.6805872439219238 5.615662493024924 -2.8517999999999986 4.939462493024925 S-4.5687962554800725 4.199412756078077 -5.244996255480073 3.0282000000000022 S-5.7036 1.3524000000000005 -5.7036 6.984895483616843e-16 S-5.9211962554800746 -1.8569872439219233 -5.244996255480075 -3.0281999999999982 S-4.023012756078077 -4.263262493024922 -2.8518000000000026 -4.939462493024923 S-1.352400000000001 -6.0564 -1.1125426311534044e-15 -6.0564 S1.6805872439219207 -5.615662493024925 2.851799999999996 -4.9394624930249265 S4.568796255480072 -4.199412756078077 5.244996255480072 -3.0282000000000027 S5.7036 -1.3524000000000012 5.7036 -1.3969790967233686e-15"
        fill="#3aadaa" stroke-width="0" transform="rotate(20.6883)">
            <animateTransform attributeName="transform" type="rotate" dur="20s" repeatCount="indefinite" values="0;60"/>
        </path>
    </g>
    <g transform="translate(1397.5333767322873,25.532782942459846) scale(100)" opacity=".4">
        <path d="M6.84432 0 C6.84432 1.6228799999999999 7.10543550657609 2.2283846927063102 6.29399550657609 3.6338399999999997 S4.827615307293691 5.115914991629908 3.4221600000000008 5.927354991629908 S1.6228800000000003 7.26768 4.450170524613618e-16 7.26768 S-2.016704692706309 6.738794991629908 -3.4221599999999985 5.927354991629909 S-5.482555506576088 5.039295307293692 -6.293995506576088 3.6338400000000024 S-6.84432 1.6228800000000008 -6.84432 8.381874580340212e-16 S-7.1054355065760895 -2.228384692706308 -6.29399550657609 -3.633839999999998 S-4.8276153072936925 -5.115914991629907 -3.422160000000003 -5.927354991629908 S-1.6228800000000012 -7.26768 -1.3350511573840854e-15 -7.26768 S2.016704692706305 -6.738794991629911 3.4221599999999954 -5.927354991629912 S5.482555506576087 -5.039295307293693 6.2939955065760875 -3.6338400000000033 S6.84432 -1.6228800000000017 6.84432 -1.6763749160680425e-15"
        fill="#7c6576" stroke-width="0" transform="rotate(41.3766)">
            <animateTransform attributeName="transform" type="rotate" dur="15s" repeatCount="indefinite" values="0;60"/>
        </path>
    </g>
    <g transform="translate(1620.5467274252019,-147.4541038805561) scale(100)" opacity=".4">
        <path d="M9.582047999999999 0 C9.582047999999999 2.272032 9.947609709206525 3.1197385697888333 8.811593709206525 5.087375999999999 S6.758661430211165 7.162280988281871 4.791024 8.298296988281871 S2.2720320000000003 10.174752 6.230238734459066e-16 10.174752 S-2.823386569788832 9.434312988281873 -4.7910239999999975 8.298296988281873 S-7.6755777092065225 7.055013430211169 -8.811593709206523 5.0873760000000035 S-9.582047999999999 2.272032000000001 -9.582047999999999 1.1734624412476296e-15 S-9.947609709206526 -3.119738569788831 -8.811593709206527 -5.087375999999997 S-6.758661430211169 -7.162280988281868 -4.791024000000004 -8.29829698828187 S-2.2720320000000016 -10.174752 -1.8690716203377196e-15 -10.174752 S2.8233865697888265 -9.434312988281873 4.791023999999993 -8.298296988281875 S7.67557770920652 -7.05501343021117 8.811593709206521 -5.087376000000004 S9.582047999999999 -2.272032000000002 9.582047999999999 -2.346924882495259e-15"
        fill="#3aadaa" stroke-width="0" transform="rotate(2.06543)">
            <animateTransform attributeName="transform" type="rotate" dur="10s"
            repeatCount="indefinite" values="0;60"/>
        </path>
    </g>
</svg>
