<svg viewBox="0 0 240 240" fill="none" xmlns="http://www.w3.org/2000/svg" preserveAspectRatio="none">
    <path d="M5.73333 22.3073L0 30.0569V240H240V87.8264L234.267 103.326L234.267 103.326C228.533 118.825 217.067 149.823 205.653 162.786C194.213 175.608 182.853 170.535 171.413 145.878C160 121.22 148.533 76.977 137.12 66.2685C125.68 55.4191 114.32 77.9633 102.88 78.386C91.4667 78.9496 80 57.2508 68.5867 37.8064C57.1467 18.3621 45.7867 0.890336 34.3467 0.0449287C22.9333 -0.94138 11.4667 14.5577 5.73333 22.3073Z" fill="#F6F6F6"/>
    <path d="M5.73333 170.535L0 190.684V240H240V87.8262L234.267 91.7714C228.533 95.8575 217.067 103.748 205.653 121.642C194.213 139.537 182.853 167.154 171.413 163.208C160 159.263 148.533 123.474 137.12 123.051C125.68 122.629 114.32 157.29 102.88 176.594C91.4667 195.897 80 199.561 68.5867 179.13C57.1467 158.699 45.7867 114.175 34.3467 112.061C22.9333 109.948 11.4667 150.245 5.73333 170.535Z" fill="#383E45"/>
</svg>
