<svg width="50" height="50" viewBox="0 0 50 50" xmlns="http://www.w3.org/2000/svg"><path d="M32 16h10v22a4 4 0 0 1-4 4h-2a4 4 0 0 1-4-4V16ZM8 16h10v22a4 4 0 0 1-4 4h-2a4 4 0 0 1-4-4V16Zm12 0h10v22a4 4 0 0 1-4 4h-2a4 4 0 0 1-4-4V16Z" fill="#2EBCFA"/><path d="M46 16a4 4 0 0 0-4-4H8a4 4 0 0 0 0 8h34a4 4 0 0 0 4-4Z" fill="#2EBCFA"/><path d="M42 12H8a4 4 0 0 1 4-4h26a4 4 0 0 1 4 4Z" fill="#088BF5"/><path d="M37 8H13a4 4 0 0 1 4-4h16a4 4 0 0 1 4 4ZM8 38a4 4 0 0 0 0 8h34a4 4 0 0 0 0-8H8Z" fill="#2EBCFA"/><path d="M12 42h2a4 4 0 0 0 4-4H8a4 4 0 0 0 4 4Zm26-26h-2a4 4 0 0 0-4 4h10a4 4 0 0 0-4-4ZM24 42h2a4 4 0 0 0 4-4H20a4 4 0 0 0 4 4Zm2-26h-2a4 4 0 0 0-4 4h10a4 4 0 0 0-4-4Zm10 26h2a4 4 0 0 0 4-4H32a4 4 0 0 0 4 4ZM14 16h-2a4 4 0 0 0-4 4h10a4 4 0 0 0-4-4Z" fill="#088BF5"/></svg>
