<?xml version="1.0" standalone="no"?>
<!DOCTYPE svg PUBLIC "-//W3C//DTD SVG 1.1//EN" "http://www.w3.org/Graphics/SVG/1.1/DTD/svg11.dtd" >
<svg xmlns="http://www.w3.org/2000/svg">
<metadata>Generated by IcoMoon</metadata>
<defs>
<font id="icons" horiz-adv-x="1024">
<font-face units-per-em="1024" ascent="826.88" descent="-197.12" />
<missing-glyph horiz-adv-x="1024" />
<glyph unicode="&#x20;" horiz-adv-x="512" d="" />
<glyph unicode="&#x21;" glyph-name="alert" d="M807.253 615.253c-163.271 163.271-427.804 163.271-591.076 0s-163.271-427.804 0-591.076c163.271-163.271 427.804-163.271 591.076 0 163.271 163.84 163.271 428.373 0 591.076zM569.458 16.782h-114.916v114.916h114.916v-114.916zM569.458 189.156h-114.916l-16.498 411.307h147.911l-16.498-411.307z" />
<glyph unicode="&#x24;" glyph-name="expences" d="M732 274.8c-14.4 29.8-36.2 54-65.4 72.6-29 18.6-71.8 35-128.2 49s-91.6 27.6-105.8 40.8c-14.4 13.2-21.4 29-21.4 47.2 0 23 8.6 42.4 26 58.6s40.4 24.2 69.4 24.2c23.4 0 44.8-6 64-18s38-31 56.2-57.2c12.2-29.8 46.4-44.2 76.2-32s44.2 46.4 32 76.2v0 0c0 0 0 0 0 0-2.6 6.2-6 11.8-10.4 16.6-10.4 15.8-20.6 28.8-30.8 38.8-21.2 20.4-47 37-77.6 50-17.4 7.4-36.2 12.8-56.4 16v63.6c0 27.8-22.4 50.2-50.2 50.2s-50.2-22.4-50.2-50.2v-63.6c-44-7.2-80.4-24-109-50.2-39.2-36.2-58.8-82-58.8-137.2 0-51.6 19.6-94.8 58.8-129.8 31.6-27.8 83.8-51.2 156.8-70.4 53.6-14.4 88-29.2 103.6-44.6 15.2-15.4 22.8-33.4 22.8-53.8 0-23.2-9.6-43.4-28.8-60.4s-46-25.6-80.4-25.6c-28.6 0-53.4 6.6-74.6 19.8-21 13.2-42.4 36.6-64.2 70v0c-12.6 31.8-48.4 47.4-80.2 34.8s-47.4-48.4-34.8-80.2c1.8-4.6 4.2-9 7-12.8 12.8-23.2 25.6-41.6 38.2-55.6 23-25.6 51-45.8 84-60.8 18.2-8.4 38.4-14.4 60.2-18v-54.4c-0.2-2-0.4-4.2-0.4-6.2 0-27.8 22.4-50.2 50.2-50.2 27.6 0 50.2 22.4 50.2 50.2h0.2v58.8c30.2 4 57.8 12 82.8 24.4 36.6 18 64.4 43.8 83 77.4s28 66.8 28 100.2c-0.4 31.4-7.6 62-22 91.8z" />
<glyph unicode="&#x26;" glyph-name="phone" d="M722 230c-60-60-60-120-120-120s-120 60-180 120-120 120-120 180 60 60 120 120-120 240-180 240-180-180-180-180c0-120 123.285-363.285 240-480s360-240 480-240c0 0 180 120 180 180s-180 240-240 180z" />
<glyph unicode="&#x27;" glyph-name="undo" d="M513.4 760.6c-139 0-265-56.4-356-147.4l-147.4 147.4v-377.6h377.6l-141.2 141c68.4 68.4 162.8 110.6 267 110.6 208.6 0 377.6-169 377.6-377.6 0-112.8-49.4-214-127.8-283.2l83.2-94.4c104.6 92.2 170.4 227.2 170.4 377.6 0.2 278.2-225.2 503.6-503.4 503.6z" />
<glyph unicode="&#x28;" glyph-name="zoom-in" d="M926.151-133.973c-10.809 0-19.342 3.413-26.738 11.378l-296.96 296.391-18.773-13.084c-56.889-39.822-119.467-59.164-190.009-59.164-88.747 0-175.218 35.84-237.796 98.418s-98.418 149.049-98.418 237.796c0 88.747 35.84 175.787 98.418 238.364 62.009 62.009 149.049 97.849 237.796 97.849 89.316 0 175.787-35.84 238.364-97.849s97.849-149.049 97.849-238.364c0-69.973-19.911-134.258-59.164-190.009l-13.084-18.773 296.391-296.391c7.396-7.396 10.809-15.929 10.809-26.738 0-21.618-18.204-39.822-38.684-39.822zM393.671 696.604c-142.791 0-258.844-116.053-258.844-258.844s116.053-258.844 258.844-258.844c71.111 0 132.551 25.6 183.182 76.231 50.062 50.062 75.662 111.502 75.662 182.613 0.569 142.222-116.053 258.844-258.844 258.844zM565.476 484.409h-131.413v131.982h-87.609v-131.982h-131.982v-87.609h131.982v-131.982h87.609v131.982h131.413z" />
<glyph unicode="&#x29;" glyph-name="zoom-out" d="M926.72-133.973c-10.809 0-19.342 3.413-26.738 11.378l-296.96 296.391-18.773-13.084c-56.889-39.822-119.467-59.164-190.009-59.164-88.747 0-175.218 35.84-237.796 98.418s-98.418 149.049-98.418 237.796c0 88.747 35.84 175.787 98.418 238.364 62.009 62.009 149.049 97.849 237.796 97.849 89.316 0 175.787-35.84 238.364-97.849s97.849-149.049 97.849-238.364c0-69.973-19.911-134.258-59.164-190.009l-13.084-18.773 296.391-296.391c7.396-7.396 10.809-15.929 10.809-26.738-0.569-22.187-18.204-39.822-38.684-39.822zM393.671 696.036c-142.791 0-258.844-116.053-258.844-258.844s116.053-258.844 258.844-258.844c71.111 0 132.551 25.6 183.182 76.231 50.062 50.062 75.662 111.502 75.662 182.613 0.569 142.791-115.484 258.844-258.844 258.844zM214.471 483.84h351.573v-87.609h-351.573v87.609z" />
<glyph unicode="&#x2a;" glyph-name="home" d="M1024 241.556l-512 397.426-512-397.428v162.038l512 397.426 512-397.428zM896 256v-384h-256v256h-256v-256h-256v384l384 288z" />
<glyph unicode="&#x2d;" glyph-name="structure" d="M887.467 155.591l-232.107-154.169v96.711h-380.587v424.96h-137.102v115.484h244.622l-0.569-424.96h273.636v96.711z" />
<glyph unicode="&#x2e;" glyph-name="un-indent" d="M522.766 236.606h432.463v166.071h-432.463v216.768l-449.124-299.714 449.124-299.177z" />
<glyph unicode="&#x2f;" glyph-name="un-indent2" d="M522.766 236.606h432.463v166.071h-432.463v216.768l-449.124-299.714 449.124-299.177z" />
<glyph unicode="&#x31;" glyph-name="rate" d="M512 733.6c-228.6 0-413.6-185.4-413.6-413.6 0-228.6 185.4-413.6 413.6-413.6 228.6 0 413.6 185.4 413.6 413.6 0.6 228.2-185 413.6-413.6 413.6v0zM512-30.8c-193.6 0-350.8 157.4-350.8 350.8s157.2 350.8 350.8 350.8 350.8-157.2 350.8-350.8-157.2-350.8-350.8-350.8zM657.2 86.8l-136.2 99.2c-4.6 3.4-10.8 3.4-15.4 0l-138-99.6c-10.2-7.4-23.8 2.4-20 14.4l51.4 164c1.6 5.4-0.2 11.2-4.8 14.4l-138.8 101.6c-10.2 7.4-4.8 23.6 7.8 23.6h168.2c5.6 0 10.4 3.6 12.4 8.8l57.2 164c4 11.8 20.8 11.6 24.6-0.2l55-163.6c1.8-5.4 6.8-8.8 12.4-8.8h169c12.6 0 17.8-16.2 7.8-23.6l-138.8-101.6c-4.4-3.2-6.4-9-4.8-14.4l51.2-163.8c3.8-12-10-21.8-20.2-14.4v0z" />
<glyph unicode="&#x34;" glyph-name="addCost3" d="M987.4 631.4h-135.4v135.2c0 18.6-15.2 33.8-33.8 33.8v0c-18.6 0-33.8-15.2-33.8-33.8v-135.4h-135.4c-18.6 0-33.8-15.2-33.8-33.8v0c0-18.6 15.2-33.8 33.8-33.8h135.4v-135.4c0-18.6 15.2-33.8 33.8-33.8v0c18.6 0 33.8 15.2 33.8 33.8v135.4h135.4c18.8 0 33.8 15.2 33.8 33.8v0c0 18.8-15.2 34-33.8 34zM593.2 274.8c-14.4 29.8-36.2 54-65.4 72.6-29 18.6-71.8 35-128.2 49s-91.6 27.6-105.8 40.8c-14.4 13.2-21.4 29-21.4 47.2 0 23 8.6 42.4 26 58.6s40.4 24.2 69.4 24.2c23.4 0 44.8-6 64-18s38-31 56.2-57.2c12.2-29.8 46.4-44.2 76.2-32s44.2 46.4 32 76.2v0 0 0c-2.6 6.2-6 11.8-10.4 16.6-10.4 15.8-20.6 28.8-30.8 38.8-21.2 20.4-47 37-77.6 50-17.4 7.4-36.2 12.8-56.4 16v63.6c0 27.8-22.4 50.2-50.2 50.2s-50.2-22.4-50.2-50.2v-63.6c-44-7.2-80.4-24-109-50.2-39.2-36.2-58.8-82-58.8-137.2 0-51.6 19.6-94.8 58.8-129.8 31.6-27.8 83.8-51.2 156.8-70.4 53.6-14.4 88-29.2 103.6-44.6 15.2-15.4 22.8-33.4 22.8-53.8 0-23.2-9.6-43.4-28.8-60.4s-46-25.6-80.4-25.6c-28.6 0-53.4 6.6-74.6 19.8-21 13.2-42.4 36.6-64.2 70v0c-12.6 31.8-48.4 47.4-80.2 34.8s-47.4-48.4-34.8-80.2c1.8-4.6 4.2-9 7-12.8 12.8-23.2 25.6-41.6 38.2-55.6 23-25.6 51-45.8 84-60.8 18.2-8.4 38.4-14.4 60.2-18v-54.4c-0.2-2-0.4-4.2-0.4-6.2 0-27.8 22.4-50.2 50.2-50.2 27.6 0 50.2 22.4 50.2 50.2h0.2v58.8c30.2 4 57.8 12 82.8 24.4 36.6 18 64.4 43.8 83 77.4s28 66.8 28 100.2c-0.4 31.4-7.6 62-22 91.8v0z" />
<glyph unicode="&#x35;" glyph-name="collapseAll" d="M896 197.547h-768v77.227h768zM678.827 746.667h-333.653l166.827-256zM896 365.227h-768v77.227h768zM512 149.333l-166.827-256h334.080z" />
<glyph unicode="&#x36;" glyph-name="expandAll" d="M128 741.12h768v-77.227h-768zM345.173 384h334.080l-167.253 257.28zM128-23.893h768v-77.227h-768zM512-1.28l166.827 256h-333.653z" />
<glyph unicode="&#x38;" glyph-name="view" d="M977.92 340.48c-1.707 2.276-48.924 61.44-129.138 120.036-107.52 79.076-224.142 120.604-337.92 120.604s-230.4-41.529-337.92-120.604c-80.213-59.164-126.862-117.76-129.138-120.036l-16.498-21.049 16.498-21.049c1.707-2.276 48.924-61.44 129.138-120.036 107.52-79.076 224.142-120.604 337.92-120.604s230.4 41.529 337.92 120.604c80.213 59.164 126.862 117.76 129.138 120.036l16.498 21.049-16.498 21.049zM807.253 231.822c-66.56-48.356-171.804-106.382-295.822-106.382-124.587 0-229.831 58.027-295.822 106.382-45.511 32.996-79.644 67.129-98.987 87.609 19.342 21.049 53.476 54.613 98.987 87.609 66.56 48.356 171.804 106.382 295.822 106.382 124.587 0 229.831-58.027 295.822-106.382 45.511-32.996 79.644-67.129 98.987-87.609-19.342-20.48-53.476-54.044-98.987-87.609zM510.862 462.791c-34.702 0-66.56-12.516-91.591-32.996 19.342-5.689 34.133-23.893 34.133-45.511 0-26.169-21.049-47.218-47.218-47.218-13.653 0-26.169 5.689-34.702 15.36-2.276-10.809-3.982-21.618-3.982-32.996 0-79.076 64.284-143.36 143.36-143.36s143.36 64.284 143.36 143.36c0 79.644-64.284 143.36-143.36 143.36z" />
<glyph unicode="&#x3a;" glyph-name="indent" d="M506.2 403.4h-432.6v-166h432.4v-216.8l449.2 299.8-449 299v-216z" />
<glyph unicode="&#x3b;" glyph-name="checked" d="M848.75 770h-674.438c-61.688 0-112.313-50.625-112.313-112.313v-674.25c0-61.875 50.625-112.313 112.313-112.313h674.25c61.875 0 112.312 50.625 112.312 112.313v674.25c0.188 61.688-50.437 112.313-112.125 112.313zM455.375 72.5l-208.312 208.313 79.5 79.5 128.812-128.813 269.25 269.25 79.5-79.5-348.75-348.75z" />
<glyph unicode="&#x3d;" glyph-name="hamburger" d="M890.88 566.329h-770.844v114.347h770.844v-114.347zM890.88 478.151h-770.844v-114.347h770.844v114.347zM890.88 276.196h-770.844v-114.347h770.844v114.347zM890.88 73.671h-770.844v-114.347h770.844v114.347z" />
<glyph unicode="&#x3f;" glyph-name="help" d="M443.164 58.311h131.982v-125.724h-131.982v125.724zM752.071 382.578c-17.636-30.151-55.751-71.111-113.778-122.88-30.151-26.738-48.924-48.356-55.751-64.853-5.12-11.378-7.964-29.013-9.102-52.338h-130.844c0 0.569 0 0.569 0 1.138 0 44.942 6.827 81.92 21.049 110.933 13.653 29.013 41.529 61.44 83.058 97.849s66.56 60.302 74.524 71.111c12.516 17.636 18.773 37.547 18.773 58.596 0 29.582-10.809 55.182-32.996 76.231s-51.769 31.858-89.316 31.858c-36.409 0-66.56-10.809-90.453-32.996-20.48-18.773-35.271-44.942-44.942-80.213-1.707-6.827-3.982-15.929-3.413-21.049l-131.982 0.569c-0.569 10.809 0 19.911 0.569 21.618 2.844 63.716 28.444 117.191 75.093 161.564 47.787 45.511 110.364 68.267 188.302 68.267 81.92 0 146.773-22.756 195.129-68.836s72.249-99.556 72.249-160.427c0.569-34.133-8.533-65.991-26.169-96.142z" />
<glyph unicode="&#x41;" glyph-name="assignment" d="M512 733.582c-228.693 0-413.582-185.458-413.582-413.582 0-228.693 185.458-413.582 413.582-413.582 228.693 0 413.582 185.458 413.582 413.582 0.569 228.124-184.889 413.582-413.582 413.582zM512 6.542c-172.942 0-313.458 140.516-313.458 313.458s140.516 313.458 313.458 313.458c172.942 0 313.458-140.516 313.458-313.458s-140.516-313.458-313.458-313.458zM651.947 198.827c-5.689 0-11.378 1.138-16.498 3.982l-143.929 68.267c-14.222 6.827-22.756 21.618-22.187 37.547v191.147c0 21.618 17.636 38.684 38.684 38.684h7.964c21.618 0 38.684-17.636 38.684-38.684v-164.409l117.191-55.182c19.342-9.102 27.307-32.427 18.204-51.769l-3.413-7.396c-5.689-13.653-19.911-22.187-34.702-22.187z" />
<glyph unicode="&#x42;" glyph-name="tag" d="M935.6 788.2h-357.2c-24.6 0-58.8-14.2-76.2-31.6l-443-442.8c-17.4-17.4-17.4-45.8 0-63.2l383.4-383.4c17.4-17.4 45.8-17.4 63.2 0l442.8 442.8c17.4 17.4 31.6 51.6 31.6 76.2v357.4c0 24.6-20 44.6-44.6 44.6zM712.4 431c-49.4 0-89.4 40-89.4 89.4s40 89.4 89.4 89.4 89.4-40 89.4-89.4-40.2-89.4-89.4-89.4z" />
<glyph unicode="&#x43;" glyph-name="calendar" d="M927.4 666.6v-58.6h-832.6v58.6c0 19.4 18.2 37.4 35 37.4h153v64h72v-64h311.4v64h73.4v-64h151.6c17.6 0.6 36.2-17.6 36.2-37.4v0zM96.2 544v-570.6c0-28 18-37 35-37h760.4c18 0 37 9 37 37v570.6c0 0-832.4 0-832.4 0v0zM863.6 1.4h-702.4v478h702.4v-478zM326.8 322.4l-56.2-10.8-18.2 71.8 97.6 30.4h67.8v-339.8h-91v248.4zM655 330.4h-158v79.2h260.6v-71.6l-150.4-264.4h-102.6l150.4 256.8z" />
<glyph unicode="&#x44;" glyph-name="clone" d="M128 576h640v-672h-640v672zM672 0v480h-448.2l0.2-480h448zM928 96h-96v544h-544v96h640v-640z" />
<glyph unicode="&#x46;" glyph-name="split-left" d="M38.934 789.333v-945.6h944v945.6h-944zM105.067 721.6h169.067v-810.667h-169.067v810.667zM916.267-89.067h-571.733v810.667h571.2v-810.667z" />
<glyph unicode="&#x48;" glyph-name="receipt" d="M746.601 117.399h-469.2v78.201h469.401v-78.201zM746.601 273.799h-469.2v78.199h469.401v-78.199zM746.601 430.199h-469.2v78.201h469.401v-78.201zM160-78.201l58.601 58.601 58.601-58.601 58.601 58.601 58.601-58.601 58.601 58.601 58.601-58.601 58.599 58.601 58.601-58.601 58.601 58.601 58.601-58.601 58.601 58.601 58.601-58.601v782.201l-58.601-58.601-58 58.601-58.601-58.601-58.601 58.601-58.601-58.601-58.8 58.601-58.601-58.601-58.8 58.601-58.601-58.601-58.601 58.601-58.599-58.601-58.8 58.601v-782.201z" />
<glyph unicode="&#x49;" glyph-name="import" d="M473.2 62.8h129.8v429h119.8v-429.2h129.8l-189.8-189.8-189.6 190zM550.8 577.2l-189.8 189.8-189.8-189.8h129.8v-429.2h119.8v429.2h130z" />
<glyph unicode="&#x4b;" glyph-name="scrum" d="M13.653 9.244v100.124h414.72c124.018 0 224.711 100.693 224.711 224.711s-100.693 224.711-224.711 224.711c-121.173 0-220.16-96.142-224.711-215.609h92.16l-141.653-194.56-142.222 193.991h92.16c4.551 174.649 148.48 315.733 324.836 315.733 179.2 0 324.836-145.636 324.836-324.836s-145.636-324.836-324.836-324.836h-415.289zM1012.053 58.738l-193.991 141.084v-91.591h-85.333c-29.582-40.391-67.129-73.956-110.364-100.124h195.698v-91.591l193.991 142.222z" />
<glyph unicode="&#x4c;" glyph-name="lens" d="M916.242-131.198c-10.234 0-18.662 3.612-25.886 10.836l-288.357 287.755-18.662-12.642c-55.384-38.528-115.584-57.19-184.814-57.19-86.086 0-170.366 34.916-231.168 95.718-60.2 60.2-95.116 144.48-95.116 230.566 0 86.688 34.916 170.968 95.718 231.168 60.2 60.2 144.48 95.116 231.168 95.116s170.968-34.916 231.168-95.116 95.116-144.48 95.116-231.168c0-68.026-19.264-130.032-57.19-184.814l-12.642-18.662 287.755-287.755c7.224-7.224 10.836-15.652 10.836-25.886-0.602-20.468-18.060-37.926-37.926-37.926zM399.125 675.48c-139.062 0-251.636-113.176-251.636-251.636s113.176-251.636 251.636-251.636c69.23 0 128.828 24.682 178.192 74.046 48.762 48.762 73.444 108.36 73.444 177.59 0 139.062-113.176 251.636-251.636 251.636z" />
<glyph unicode="&#x4d;" glyph-name="resources" d="M390 320.4c102.6 0 186.4 83.8 186.4 186.4 0 102.4-83.8 186.4-186.4 186.4-102.4 0-186.4-84-186.4-186.4 0-102.6 84-186.4 186.4-186.4v0zM17.2 40.8v-93.4h745.8v93.4c0 125.8-247 239.6-373 239.6s-372.8-113.8-372.8-239.6v0zM390 320.4c102.6 0 186.4 83.8 186.4 186.4 0 102.4-83.8 186.4-186.4 186.4-102.4 0-186.4-84-186.4-186.4 0-102.6 84-186.4 186.4-186.4v0zM17.2 40.8v-93.4h745.8v93.4c0 125.8-247 239.6-373 239.6s-372.8-113.8-372.8-239.6v0zM634.8 348.4c-19.4 0-41.8-2.8-65.8-7.8-10.2-11-21.4-21-33.4-30 39.8-13.4 80-31.4 117-52.4 108.6-62 168.6-139.2 168.6-217.4v-25.2h186.6v93.4c0 125.6-247.2 239.4-373 239.4zM634.4 506.8c0-41.8-10.6-81.2-29.2-115.8 9.6-1.6 19.6-2.4 29.6-2.4 102.6 0 186.4 83.8 186.4 186.4 0 102.4-83.8 186.4-186.4 186.4-45.8 0-87.8-16.8-120.4-44.4 71.8-42.6 120-120.8 120-210.2z" />
<glyph unicode="&#x4e;" glyph-name="reply" d="M508.018 567.467v141.653l-360.676-275.342 360.676-275.342v164.978c58.596-2.844 178.062-18.204 196.836-97.849 40.96-171.804-122.88-294.684-122.88-294.684 40.96 24.462 294.684 155.876 294.684 376.604 0 193.422-237.227 248.604-368.64 259.982z" />
<glyph unicode="&#x4f;" glyph-name="split-center" d="M40.533 789.333v-945.6h944v945.6h-944zM106.666 721.6h370.133v-810.667h-370.133v810.667zM917.866-89.067h-370.133v810.667h369.6v-810.667z" />
<glyph unicode="&#x50;" glyph-name="add" d="M589.602 384.057v344.832h-143.351v-344.832h-344.832v-143.351h344.832v-344.832h148.994v344.832h339.188v143.351z" />
<glyph unicode="&#x51;" glyph-name="comment" d="M512 601.25c-48.277 0-94.908-7.608-138.6-22.627-41.048-14.105-77.611-34.045-108.661-59.273-58.191-47.278-90.239-108.084-90.239-171.225 0-35.423 9.83-69.764 29.222-102.094 19.997-33.328 50.077-63.802 87.005-88.116 26.677-17.564 44.634-45.661 49.373-77.245 1.589-10.533 2.573-21.164 2.967-31.753 6.567 5.442 12.966 11.292 19.223 17.55 21.234 21.234 49.908 32.948 79.538 32.948 4.711 0 9.464-0.295 14.203-0.9 18.436-2.348 37.266-3.53 55.969-3.53 48.277 0 94.908 7.608 138.6 22.627 41.048 14.105 77.611 34.059 108.661 59.273 58.191 47.278 90.239 108.098 90.239 171.225s-32.048 123.933-90.239 171.225c-31.050 25.228-67.598 45.169-108.661 59.273-43.692 15.005-90.309 22.627-138.6 22.627zM512 713.75v0c248.527 0 450-163.702 450-365.625s-201.473-365.625-450-365.625c-23.864 0-47.292 1.519-70.158 4.43-96.666-96.666-212.034-113.991-323.592-116.536v23.653c60.244 29.517 112.5 83.264 112.5 144.703 0 8.578-0.661 16.988-1.898 25.228-101.77 67.036-166.852 169.411-166.852 284.147 0 201.923 201.473 365.625 450 365.625z" />
<glyph unicode="&#x52;" glyph-name="split-right" d="M38.934 789.333v-945.6h944v945.6h-944zM916.8-89.067h-169.067v810.667h169.067v-810.667zM106.134 721.6h571.2v-810.667h-571.2v810.667z" />
<glyph unicode="&#x53;" glyph-name="mail" d="M937.6 640h-852.2c-8.8 0-16.6-5.2-19-12.8v-628c2.6-7.2 10.4-12.8 19-12.8h852.8c10.8 0 20.2 8.2 20.2 18.6v616.4c-0.6 10.4-9.4 18.6-20.8 18.6 0 0 0 0 0 0zM889.6 50.6h-755.2v439.2l378.2-271 377.6 271v-439h-0.6v-0.2zM512.6 297.8l-392.2 277.6h783.6l-391.4-277.6z" />
<glyph unicode="&#x55;" glyph-name="mobile" d="M708.875 770h-393.75c-46.406 0-84.375-37.969-84.375-84.375v-731.25c0-46.406 37.969-84.375 84.375-84.375h393.75c46.406 0 84.375 37.969 84.375 84.375v731.25c0 46.406-37.969 84.375-84.375 84.375zM399.5 727.812h225v-28.125h-225v28.125zM512-73.75c-30.938 0-56.25 25.313-56.25 56.25s25.313 56.25 56.25 56.25 56.25-25.313 56.25-56.25-25.313-56.25-56.25-56.25zM737 95h-450v562.5h450v-562.5z" />
<glyph unicode="&#x57;" glyph-name="link" d="M403.88 82.28l-41.7-41.42c-16.845-16.623-39.999-26.89-65.55-26.89s-48.705 10.267-65.56 26.9c-16.604 16.436-26.892 39.247-26.892 64.46s10.288 48.024 26.895 64.463l153.528 152.327c31.82 31.54 91.68 78 135.3 34.74 9.232-9.172 21.954-14.842 36-14.842 28.212 0 51.082 22.87 51.082 51.082 0 14.165-5.766 26.984-15.079 36.237-74.163 73.583-183.763 60.003-279.203-34.717l-153.58-152.32c-35.301-34.951-57.16-83.423-57.16-137s21.858-102.049 57.144-136.984c35.352-34.89 83.924-56.429 137.526-56.429s102.174 21.539 137.531 56.434l41.719 41.419c8.999 9.201 14.552 21.805 14.552 35.706 0 28.211-22.869 51.080-51.080 51.080-13.787 0-26.297-5.462-35.487-14.34zM869.14 674c-79.64 79.020-191 83.32-264.74 10.16l-52-51.62c-9.316-9.256-15.082-22.075-15.082-36.24 0-28.212 22.87-51.082 51.082-51.082 14.046 0 26.768 5.669 36.003 14.844l51.997 51.577c38.2 38 88.2 22.2 120.82-10.16 16.63-16.443 26.93-39.259 26.93-64.48s-10.299-48.037-26.921-64.472l-163.808-162.528c-74.9-74.3-110-39.44-125.020-24.56-9.232 9.172-21.954 14.842-36 14.842-28.212 0-51.082-22.87-51.082-51.082 0-14.165 5.766-26.984 15.079-36.237 34.403-34.083 73.603-50.963 114.803-50.963 50.38 0 103.58 25.36 154.18 75.6l163.78 162.4c35.301 34.951 57.16 83.423 57.16 137s-21.858 102.049-57.144 136.984z" />
<glyph unicode="&#x58;" glyph-name="insertbelow" d="M785.8 130.8l-169-260.6h338.4l-169.4 260.6zM955.2 236.6h-887v166h887v-166z" />
<glyph unicode="&#x5a;" glyph-name="download" d="M282.2 382.8l229.2-231.6 231 230.4h-165.6l0.6 343.6-121.8 0.6-0.6-343.6-172.8 0.6zM839.2 384v-309.8h-654.4v309.8h-113.2v-423.6h881.2v423.6z" />
<glyph unicode="&#x5b;" glyph-name="arrowDown" d="M500.261 61.79l-429.827 429.225 95.718 95.718 334.109-334.109 357.587 357.587 95.116-95.116z" />
<glyph unicode="&#x5d;" glyph-name="arrowUp" d="M523.739 594.21l429.827-429.225-95.718-95.718-334.109 334.109-357.587-357.587-95.116 95.116z" />
<glyph unicode="&#x5e;" glyph-name="milestone" d="M26.738 316.587c0 8.533 3.413 16.498 10.809 23.324l455.111 455.68c6.827 6.258 14.791 9.102 23.893 9.102s16.498-2.844 22.756-9.102l455.68-455.68c6.827-6.827 10.24-14.791 10.24-23.324s-3.413-16.498-10.24-23.324l-455.68-457.387c-6.258-5.12-13.653-7.964-22.756-7.964s-17.067 2.844-23.893 7.964l-455.111 457.387c-6.827 6.827-10.809 14.791-10.809 23.324zM92.729 316.587l423.253-422.116 422.684 422.116-422.684 421.547-423.253-421.547zM258.276 316.587l257.707-256.569 256 256.569-256 256-257.707-256z" />
<glyph unicode="&#x61;" glyph-name="start" d="M512 733.6v0c-228.6 0-413.6-185.4-413.6-413.6 0-228.6 185.4-413.6 413.6-413.6 228.6 0 413.6 185.4 413.6 413.6 0.6 228.2-185 413.6-413.6 413.6zM512-18.4c-186.8 0-338.4 151.8-338.4 338.4s151.6 338.4 338.4 338.4 338.4-151.6 338.4-338.4-151.6-338.4-338.4-338.4zM413.2 107c-9-6.4-16.2-2.8-16.2 8.2v409.6c0 11 7.2 14.8 16.2 8.2l279-201.4c9-6.4 9-17 0-23.4l-279-201.2z" />
<glyph unicode="&#x62;" glyph-name="bell" d="M898.502 74.35c-115.23 114.273-174.848 278.228-174.848 449.828 0 117.139-72.425 187.462-191.664 201.794 2.676 6.305 4.203 12.801 4.203 19.682 0 28.854-24.078 52.359-53.315 51.020-26.179-1.147-47.964-23.122-48.918-49.3-0.381-7.644 1.339-14.523 4.203-21.403-119.051-14.332-191.474-84.654-191.474-201.794 0-171.6-59.619-335.558-174.848-449.828-33.441-33.058-12.801-91.342 34.014-94.59 1.53-0.192 3.057 0.381 4.587 0.381h238.482c0-72.615 61.149-136.247 136.247-136.247s136.247 63.632 136.247 136.247h238.673c1.53 0 3.057-0.381 4.587-0.381 46.817 3.248 67.265 61.532 33.823 94.59zM485.17-114.827c-51.594 0-93.635 42.041-93.635 93.635 0 5.923 2.676 8.598 8.598 8.598s8.598-2.676 8.598-8.598c0-42.041 34.589-76.627 76.627-76.627 5.923 0 8.598-2.676 8.598-8.598-0.192-5.732-2.866-8.41-8.79-8.41zM162.8 58.3c106.439 126.122 162.618 286.065 162.618 466.262 0 84.654 52.359 125.737 159.943 125.737s159.943-40.893 159.943-125.546c0-180.199 56.18-340.143 162.618-466.262h-645.124z" />
<glyph unicode="&#x63;" glyph-name="documents" d="M432.4 453.4h334.6v-59.2h-334.6v59.2zM766.8 315.8h-334.4v-59.2h334.4v59.2zM160 736h599.6v78.6h-678.6v-793.8h78.4v715.2zM256 640v-800.8h471.6l216.8 215.6v585.2h-688.4zM334.6 551.8h530.8v-430.2h-216.2v-213.4h-314.6v643.6zM718-62.2v115h115l-115-115z" />
<glyph unicode="&#x64;" glyph-name="delete" d="M223.4-107.2c0-11.6 9.4-21.2 21.2-21.2h534.4c11.6 0 21.2 9.4 21.2 21.2v555.2h-576.8v-555.2zM640 384h64v-448h-64v448zM480 384h64v-448h-64v448zM320 384h64v-448h-64v448zM690.6 639v76c0 11.6-9.4 21.2-21.2 21.2h-313.8c-11.6 0-21.2-9.4-21.2-21.2v-107h-137.4c-11.6 0-21.2-9.4-21.2-21.2v-21.6c0-11.6 9.4-21.2 21.2-21.2h630.8c11.6 0 21.2 9.4 21.2 21.2v21.6c0 11.6-9.4 21.2-21.2 21.2h-137.4v31h0.2zM608 608h-192v64h192v-64z" />
<glyph unicode="&#x65;" glyph-name="edit" d="M777.923 446.656l-399.043-399.043-139.182 139.182 399.043 399.043 139.182-139.182zM915.099 583.119l-91.3-91.326-139.202 139.163 91.3 91.326 139.202-139.163zM109.796-82.773l223.573 84.196-139.378 139.378z" />
<glyph unicode="&#x66;" glyph-name="filter" d="M781.2 772.8c-89.8 18.8-183.2 27.4-276.4 27.4s-186.6-8.6-276.4-27.4c-58-12-252-52.4-225.8-147.4-7.4-24.4 403.6-466 403.6-477.8 0-42 0-84.2 0-126.8 0-48.4 0-96.8 0-145 0-29 60-35.2 98-35.8 38.6 0.6 98 7.4 98 35.8 0 48.4 0 96.8 0 145 0 42 0 84.2 0 126.8 0 12 411 453.4 403.6 477.8 26.8 95-167.2 135.4-224.6 147.4v0zM501.8 511.8c-220.8 0-399.4 53.4-399.4 118.8 0 66 178.6 103.6 399.4 103.6s399.4-37.6 399.4-103.6c0-65.4-178.6-118.8-399.4-118.8zM893.2 96v134.6h-70.4v-134.6h-134.6v-70.4h134.6v-134.8h72.8v134.8h132.4v70.4z" />
<glyph unicode="&#x67;" glyph-name="settings" d="M589.673 738.135c0 25.244-20.713 46.604-46.604 46.604h-62.138c-25.244 0-46.604-20.713-46.604-46.604v-31.716c0-25.244-16.829-51.781-37.542-58.254s-85.439-18.124-102.915 0l-22.654 22.654c-18.124 18.124-47.899 18.124-66.021 0l-44.014-44.014c-18.124-18.124-18.124-47.899 0-66.021l22.654-22.654c18.124-18.124 24.596-48.545 14.886-67.315s-47.899-73.141-73.141-73.141h-32.363c-25.244 0-46.604-20.713-46.604-46.604v-62.138c0-25.244 20.713-46.604 46.604-46.604h32.363c25.244 0 51.781-16.829 58.254-37.542s18.124-84.791 0-102.915l-22.654-22.654c-18.124-18.124-18.124-47.899 0-66.021l44.014-44.014c18.124-18.124 47.899-18.124 66.021 0l22.654 22.654c18.124 18.124 48.545 24.596 67.315 14.886s73.141-47.899 73.141-73.141v-32.363c0-25.244 20.713-46.604 46.604-46.604h62.138c25.244 0 46.604 20.713 46.604 46.604v32.363c0 25.244 16.829 51.781 37.542 58.254s84.791 18.124 102.915 0l22.654-22.654c18.124-18.124 47.899-18.124 66.021 0l44.014 44.014c18.124 18.124 18.124 47.899 0 66.021l-22.654 22.654c-18.124 18.124-24.596 48.545-14.886 67.315s47.899 73.141 73.141 73.141h32.363c25.244 0 46.604 20.713 46.604 46.604v62.138c0 25.244-20.713 46.604-46.604 46.604h-32.363c-25.244 0-51.781 16.829-58.254 37.542s-18.124 85.439 0 103.563l22.654 22.654c18.124 18.124 18.124 47.899 0 66.021l-44.014 44.014c-18.124 18.124-47.899 18.124-66.021 0l-22.654-22.654c-18.124-18.124-48.545-24.596-67.315-14.886s-73.141 47.899-73.141 73.141v31.069zM713.948 320c0-111.33-89.971-201.3-201.3-201.3s-201.3 89.971-201.3 201.3c0 111.33 89.971 201.3 201.3 201.3 110.683 0 201.3-90.618 201.3-201.3z" />
<glyph unicode="&#x68;" glyph-name="change" d="M513.138 612.409c60.302 0 119.467-20.48 166.684-58.596l-144.498-144.498h382.293v381.724l-141.653-141.084c-73.387 62.009-166.684 96.142-262.827 96.142-213.902 0-391.396-166.684-402.773-381.156h134.827c11.378 138.809 128.569 247.467 267.947 247.467zM250.88-9.956c73.387-62.009 166.684-96.142 262.258-96.142 215.040 0 391.964 166.684 403.342 381.156h-134.827c-11.378-138.809-129.138-246.898-268.516-246.898-59.164 0-118.898 20.48-166.116 58.596l144.498 143.929h-381.724v-382.293l141.084 141.653z" />
<glyph unicode="&#x69;" glyph-name="issue" d="M802.8 240c-0.8-42-9-82-23.4-118.6h63.8c13.4 0 25.2-8.8 28.8-21.6l57.8-200.8c4.6-16-4.6-32.6-20.6-37.2-2.8-0.8-5.6-1.2-8.4-1.2-13 0-25 8.6-28.8 21.8l-51.6 179h-72.4c-47.4-71.4-121.4-120.4-206.2-129.8 0 0.8 0.2 1.6 0.2 2.4v277c0 16.6-13.4 30-30 30s-30-13.4-30-30v-276.8c0-0.8 0-1.6 0.2-2.4-84.8 9.4-159 58.4-206.2 129.8h-72.4l-51.6-179c-3.8-13.2-15.8-21.8-28.8-21.8-2.8 0-5.6 0.4-8.4 1.2-16 4.6-25.2 21.2-20.6 37.2l57.8 200.6c3.8 12.8 15.4 21.6 28.8 21.6h63.8c-14.4 36.6-22.6 76.6-23.4 118.6h-120.4c-16.6 0-30 13.4-30 30s13.4 30 30 30h124.6c10 63.2 37.4 120 76.6 164.4h-101c-13.4 0-25.2 8.8-28.8 21.6l-58 200.8c-4.6 16 4.6 32.6 20.6 37.2s32.6-4.6 37.2-20.6l51.6-179h151c-10.8 21.2-17 45-17 70.4 0 85.4 69.2 154.6 154.6 154.6s154.6-69.2 154.6-154.6c0-25.4-6.2-49.2-17-70.4h151l51.6 179c4.6 16 21.2 25.2 37.2 20.6s25.2-21.2 20.6-37.2l-58.2-200.8c-3.8-12.8-15.4-21.6-28.8-21.6h-101.2c39.2-44.4 66.6-101.2 76.6-164.4h124.6c16.6 0 30-13.4 30-30s-13.4-30-30-30h-120.4z" />
<glyph unicode="&#x6a;" glyph-name="move-down" d="M597.8 328.4v432.4h-166v-432.4h-216.8l299.6-449.2 299.2 449.2h-216z" />
<glyph unicode="&#x6b;" glyph-name="move-up" d="M431 311.6v-432.4h166v432.4h216.8l-299.6 449.2-299.2-449.2h216z" />
<glyph unicode="&#x6c;" glyph-name="insertabove" d="M955.2 236.6h-887v166h887v-166zM237.6 508.4l169 260.6h-338.4l169.4-260.6z" />
<glyph unicode="&#x6d;" glyph-name="calendarDetail" d="M927.4 666.6v-58.6h-832.6v58.6c0 19.4 18.2 37.4 35 37.4h153v64h72v-64h311.4v64h73.4v-64h151.6c17.6 0.6 36.2-17.6 36.2-37.4v0zM96.2 544v-570.6c0-28 18-37 35-37h760.4c18 0 37 9 37 37v570.6c0 0-832.4 0-832.4 0v0zM863.6 1.4h-702.4v478h702.4v-478zM326.8 322.4l-56.2-10.8-18.2 71.8 97.6 30.4h67.8v-339.8h-91v248.4zM655 330.4h-158v79.2h260.6v-71.6l-150.4-264.4h-102.6l150.4 256.8z" />
<glyph unicode="&#x6e;" glyph-name="attachment" d="M656.21 493.385l-60.885 60.87-304.515-304.44c-50.445-50.43-50.445-132.24 0-182.67s132.24-50.43 182.7 0l365.415 365.355c84.105 84.060 84.105 220.365 0 304.425-84.060 84.090-220.41 84.090-304.485 0l-383.655-383.61c-0.27-0.285-0.57-0.54-0.825-0.795-117.285-117.27-117.285-307.365 0-424.605 117.24-117.24 307.38-117.24 424.68 0 0.255 0.255 0.48 0.525 0.765 0.825l0.030-0.030 261.87 261.84-60.93 60.855-261.87-261.81c-0.285-0.255-0.525-0.54-0.795-0.795-83.505-83.49-219.36-83.49-302.88 0-83.49 83.475-83.49 219.3 0 302.79 0.285 0.285 0.57 0.54 0.84 0.795l-0.045 0.060 383.7 383.595c50.355 50.385 132.33 50.385 182.7 0 50.355-50.37 50.355-132.33 0-182.655l-365.415-365.34c-16.815-16.8-44.115-16.8-60.915 0-16.77 16.77-16.77 44.1 0 60.855l304.5 304.485z" />
<glyph unicode="&#x6f;" glyph-name="private" d="M775.8 352h-527.6c-15.6 0-29-5.4-39.8-16.4-11-11-16.4-24.2-16.4-39.8v-335.4c0-15.6 5.4-29 16.4-39.8 11-11 24.2-16.4 39.8-16.4h527.4c15.6 0 29 5.4 39.8 16.4 11 11 16.4 24.2 16.4 39.8v335.4c0 15.6-5.4 29-16.4 39.8-10.8 11-24 16.4-39.6 16.4zM371.2 521.4c0 38.8 13.8 72 41.2 99.6 27.6 27.6 60.8 41.4 99.6 41.4s72-13.8 99.6-41.2c27.6-27.6 41.2-60.8 41.2-99.6v-105.6h105.6v105.4c0 67.4-24.2 125.4-72.6 173.8-48.4 48.6-106.2 72.8-173.8 72.8s-125.4-24.2-173.8-72.6c-48.4-48.4-72.6-106.4-72.6-173.8v-105.6h105.6v105.4z" />
<glyph unicode="&#x70;" glyph-name="print" d="M0 570.311v-469.902h149.049v-270.791l732.16 0.569v270.222h141.653v469.902h-1022.862zM787.342-72.533h-544.427v401.067h544.427v-401.067zM902.827 396.8c-33.564 0-60.302 27.307-60.302 60.302s27.307 60.302 60.302 60.302c33.564 0 60.302-27.307 60.302-60.302s-26.738-60.302-60.302-60.302zM239.502 707.413h544.427v-71.68h93.867v168.96h-732.16v-168.96h93.867zM340.764 225.564h220.16v-62.578h-220.16v62.578zM340.764 79.929h353.28v-62.578h-353.28v62.578z" />
<glyph unicode="&#x71;" glyph-name="merge" d="M903.964 292.124l-203.093 203.093v-138.809h-222.436l-262.827 262.258-90.453-90.453 299.236-299.236v-0.569h276.48v-138.809zM213.241 17.011l-90.509 90.509 162.111 162.111 90.509-90.509-162.111-162.111z" />
<glyph unicode="&#x72;" glyph-name="resources-add" d="M373.6 318.8c98.8 0 179.6 80.6 179.6 179.6 0 98.6-80.6 179.6-179.6 179.6-98.6 0-179.6-81-179.6-179.6 0-98.8 81-179.6 179.6-179.6v0zM853.8 448.4v158.8h-106v-158.8h-158.6v-105.6h158.6v-158.8h106v158.8h158.6v105.6h-158.6zM373.8 280.2c-121.2 0-359.2-109.6-359.2-230.8v-90h718.4v90c0 121.2-238 230.8-359.2 230.8v0z" />
<glyph unicode="&#x73;" glyph-name="stop" d="M512 733.6v0c-228.6 0-413.6-185.4-413.6-413.6 0-228.6 185.4-413.6 413.6-413.6 228.6 0 413.6 185.4 413.6 413.6 0.6 228.2-185 413.6-413.6 413.6zM512-18.4c-186.8 0-338.4 151.8-338.4 338.4s151.6 338.4 338.4 338.4 338.4-151.6 338.4-338.4-151.6-338.4-338.4-338.4zM349.6 480h320v-320h-320v320z" />
<glyph unicode="&#x74;" glyph-name="task" d="M900 576h-196v104.4c0 33-27 60-60 60h-264c-33 0-60-27-60-60v-104.4h-196c-33 0-60-27-60-60v-520c0-33 27-60 60-60h776c33 0 60 27 60 60v520c0 33-26.8 60-60 60v0zM394 672c0 0 0.2 0 0 0h240v-96h-240c0 0 0 96 0 96zM896 384h-96v-66c0-16.4-13.4-30-30-30h-36c-16.4 0-30 13.4-30 30v66h-384v-66c0-16.4-13.4-30-30-30h-36c-16.4 0-30 13.4-30 30v66h-96v64h768v-64z" />
<glyph unicode="&#x75;" glyph-name="arrowUpSmall" d="M520.545 519.619l312.905-312.465-69.682-69.682-243.223 243.223-260.316-260.316-69.242 69.242z" />
<glyph unicode="&#x76;" glyph-name="back" d="M994.987 391.111h-723.058l252.018 251.449-90.453 90.453-405.618-406.187 428.373-427.804 89.884 89.884-277.049 277.618h725.902z" />
<glyph unicode="&#x77;" glyph-name="clock" d="M649.454 183.53c-5.196 0-10.548 1.103-15.115 3.463l-130.844 61.879c-13.069 6.141-20.941 19.682-19.997 34.169v0.63l-0.158 2.362v171.152c0 19.366 15.904 35.269 35.269 35.269h7.402c19.366 0 35.269-15.904 35.269-35.269v-149.266l106.597-50.542c17.635-8.345 25.035-29.443 16.691-47.237l-3.307-6.771c-5.668-12.123-18.265-19.839-31.806-19.839zM807.221 293.747c0-0.158 0-0.158 0-0.314 0-156.981-127.696-284.835-284.835-284.835s-284.835 127.696-284.835 284.835 127.852 284.676 284.835 284.676c0.158 0 0.158 0 0.314 0 1.731 31.964 8.975 62.51 20.784 90.694-6.929 0.314-14.014 0.63-21.099 0.63-207.682 0-376-168.318-376-376s168.318-376.159 376-376.159 376 168.318 376 376c0 7.243-0.158 14.171-0.63 21.099-28.027-11.809-58.416-19.052-90.535-20.626zM1021.045 631.329h-169.106v169.106h-67.549v-169.106h-169.106v-67.549h169.106v-169.106h67.549v169.106h169.106v67.549z" />
<glyph unicode="&#x78;" glyph-name="close" d="M865.28 69.12l-246.898 246.898 246.898 246.898-106.382 106.951-246.898-246.898-246.898 246.898-106.382-106.951 246.898-246.898-246.898-246.898 106.382-106.382 246.898 246.898 246.898-246.898z" />
<glyph unicode="&#x79;" glyph-name="move" d="M805.547 225.564v147.911h-488.676v136.533h488.676v147.911l216.178-216.178-216.178-216.178zM219.022 414.436l-216.178-216.178 216.178-216.178v147.911h488.676v136.533h-488.676v147.911z" />
<glyph unicode="&#x7a;" glyph-name="wizard" d="M769.138 243.769l47.787 48.356 96.142-96.142-47.787-47.787-96.142 95.573zM1012.622 436.053v67.698h-135.964v-67.698h135.964zM961.422 723.911l-47.787 47.787-96.142-96.142 47.787-48.356 96.142 96.711zM667.307 817.778h-67.698v-135.964h67.698v135.964zM385.138 723.911l-47.787-48.356 96.142-96.142 47.787 47.787-96.142 96.711zM813.511 480.427l-658.204-658.204-143.929 143.929 658.204 658.204 143.929-143.929zM573.44 336.498l143.929 143.929-47.787 47.787-143.929-143.929 47.787-47.787z" />
<glyph unicode="&#x7b;" glyph-name="arrowLeft" d="M253.79 331.739l429.225 429.827 95.718-95.718-334.109-334.109 357.587-357.587-95.116-95.116z" />
<glyph unicode="&#x7c;" glyph-name="info" d="M505.8 735.2c-229.6-3-413.4-191.8-410.4-421.4s191.8-413.4 421.4-410.4 413.4 191.8 410.4 421.6c-3 229.6-191.6 413.4-421.4 410.2v0 0zM562.6 643.4c52.6 0 68.6-30.8 68.6-65.8 0-43.8-35-84.4-95-84.4-50.2 0-74.2 25.2-72.4 66.8-0.4 35.2 29 83.4 98.8 83.4v0zM432-4.2c-36.2 0-62.4 22-37.2 118.4l41.4 171c7.2 27.6 8.4 38.2 0 38.2-7.6 0-40.6-27.2-59.8-44.6-13-11.8-33.4-9.6-43.6 4.6v0c-9.2 13-6.6 30.8 6.2 40.4 82 62.4 186.4 108 226.2 108 36.2 0 42.2-42.8 24-108.6l-47.6-180c-8.4-31.8-4.6-42.8 3.4-42.8s39.6 30.8 59.4 50.4c12.4 12.4 33 11.6 44.2-2v0c10.2-12.4 9-30.6-3-41.4-79.2-70.2-180.4-111.6-213.6-111.6v0 0z" />
<glyph unicode="&#x7d;" glyph-name="arrowRight" d="M770.21 308.261l-429.225-429.827-95.718 95.718 334.109 334.109-357.587 357.587 95.116 95.116z" />
<glyph unicode="&#xa1;" glyph-name="unchecked" d="M848.75 770h-674.438c-61.688 0-112.313-50.625-112.313-112.313v-674.25c0-61.875 50.625-112.313 112.313-112.313h674.25c61.875 0 112.312 50.625 112.312 112.313v674.25c0.188 61.688-50.437 112.313-112.125 112.313zM848.75-16.75h-674.438v674.438h674.25v-674.438z" />
<glyph unicode="&#xa2;" glyph-name="trash" d="M258.348-55.469c0-10.195 8.262-18.633 18.633-18.633h469.688c10.195 0 18.633 8.262 18.633 18.633v487.969h-506.953v-487.969zM624.5 376.25h56.25v-393.75h-56.25v393.75zM483.875 376.25h56.25v-393.75h-56.25v393.75zM343.25 376.25h56.25v-393.75h-56.25v393.75zM690.6 607v76c0 11.6-9.4 21.2-21.2 21.2h-313.8c-11.6 0-21.2-9.4-21.2-21.2v-107h-137.4c-11.6 0-21.2-9.4-21.2-21.2v-21.6c0-11.6 9.4-21.2 21.2-21.2h630.8c11.6 0 21.2 9.4 21.2 21.2v21.6c0 11.6-9.4 21.2-21.2 21.2h-137.4v31h0.2zM608 576h-192v64h192v-64z" />
<glyph unicode="&#xa3;" glyph-name="process" d="M961.8 102.4v0 0zM961.8 102.4l-203.2 203v-138.8h-222.4l-154 153.4 153.8 153.6h222.4v-138.8l203 203-202.8 202.4v-138.8h-276.4v-0.6l-216.4-216.2h-203.6v-128c0 0 141.2 0 202 0l27.2-27.2 0.4 0.2 190.4-190.4v-0.6h276.4v-138.8l203.2 202.6z" />
<glyph unicode="&#xa9;" glyph-name="dot" d="M517.719 780.83c-257.655 0-466.549-208.894-466.549-466.549s208.894-466.549 466.549-466.549c257.655 0 466.549 208.894 466.549 466.549s-208.894 466.549-466.549 466.549z" />
<glyph unicode="&#xb6;" glyph-name="arrowUpDown" d="M503.873-86.048l-294.377 294.377 65.618 65.016 228.76-228.76 245.014 245.014 65.016-65.016zM520.127 726.048l293.775-293.775-65.016-65.618-228.76 228.76-245.014-245.014-65.618 65.016z" />
<glyph unicode="&#xb7;" glyph-name="redo" d="M10 257c0-150.4 66-285.4 170.4-377.6l83.2 94.4c-78.4 69.2-127.8 170.4-127.8 283.2 0 208.6 169 377.6 377.6 377.6 104.2 0 198.6-42.2 267-110.6l-141.2-141.2h377.6v377.8l-147.4-147.4c-91.2 91.2-217 147.4-356 147.4-278 0-503.4-225.4-503.4-503.6z" />
<glyph unicode="&#xe0;" glyph-name="form" d="M960.16-190.58v765l-107.040 107.3-0.44-762.8h-679.060l-0.36 803.080h637.4l-127.5 107.42h-617.020v-1020zM432.42 119.66h315.64v-89.3h-315.64v89.3zM432.42 298.26h315.64v-89.3h-315.64v89.3zM432.42 476.88h315.64v-89.3h-315.64v89.3zM960.14 548.1v40.18l-241.14 241.14h-40.18v-281.32h281.32zM376.86 430.5c0-26.94-21.84-48.78-48.78-48.78s-48.78 21.84-48.78 48.78c0 26.94 21.84 48.78 48.78 48.78s48.78-21.84 48.78-48.78zM376.86 257.9c0-26.94-21.84-48.78-48.78-48.78s-48.78 21.84-48.78 48.78c0 26.94 21.84 48.78 48.78 48.78s48.78-21.84 48.78-48.78zM376.86 85.3c0-26.94-21.84-48.78-48.78-48.78s-48.78 21.84-48.78 48.78c0 26.94 21.84 48.78 48.78 48.78s48.78-21.84 48.78-48.78z" />
<glyph unicode="&#xe8;" glyph-name="iconize" d="M98.987 736.427h824.889v-826.596h-824.889v826.596zM865.28-31.573v708.836h-708.267v-708.836h708.267zM464.213 60.587v526.222h-159.858v-526.222h159.858z" />
<glyph unicode="&#xe9;" glyph-name="editDoc" d="M357.262 306.347l391.396 391.396 136.533-136.533-391.396-391.396-136.533 136.533zM929.564 606.151l89.316 89.316-136.533 136.533-89.316-89.316 136.533-136.533zM229.831 42.382l219.022 83.058-136.533 136.533-82.489-219.591zM667.876 250.596v-322.56h-542.151v723.058h361.244l53.476-47.787 87.609 87.609-80.782 80.782h-542.151v-963.698h782.791v563.769l-120.036-121.173z" />
<glyph unicode="&#xec;" glyph-name="message" d="M248.2 333.8c0-3.8 2.2-7.2 5.4-9 3.4-1.8 7.4-1.6 10.4 0.6l211.6 142.4c2.6 1.8 4.4 5 4.4 8.4s-1.6 6.4-4.4 8.4l-211.4 142.2c-3 2-7.2 2.4-10.4 0.6-3.4-1.8-5.4-5.2-5.4-9l-2.4-95.8c-31.4 0.2-57.6 1.2-79 3.4-104.2 10-141.8 93.4-143.2 96.2-1.6 3.8-5.4 6.2-9.4 6.2-0.8 0-1.4 0-2-0.2-4.8-1-8.2-5.2-8.2-10 0-166.6 198.2-189 241.6-193.6l2.4-90.8zM955 544v0c0 17.4-13.2 31.6-29.4 31.6h-477.8l76-51.2c5-3.4 9.2-7.4 12.8-12h346.8l-283.4-227.8-134.2 104.2-58.4-39.4 175.6-135c10-7.8 24-7.6 34 0l279.4 220.8-0.4-307.2h-600.6v143.2l-7.6-5.4c-9.8-6.6-21-10-32.8-10-6.2 0-12.2 1-18 2.8l-0.4-163.2c0-17.4 13.2-31.6 29.4-31.6h659.2c16.2 0 29.8 14.2 29.8 31.6 0 0 0 409 0 410.6v38z" />
<glyph unicode="&#xf9;" glyph-name="arrowDownSmall" d="M503.455 132.030l-312.905 312.465 69.682 69.682 243.223-243.223 260.316 260.316 69.241-69.242z" />
<glyph unicode="&#x2013;" glyph-name="arrowDoubleLeft" d="M843.4 732.67l80.668-80.668-324.477-325.079 347.353-347.955-80.668-80.668-428.623 428.623zM484.609 732.67l80.668-80.668-324.477-325.079 347.353-347.955-80.668-80.668-428.623 428.623z" />
<glyph unicode="&#x2022;" glyph-name="arrowDoubleRight" d="M180.6-92.67l-80.668 80.668 324.477 325.079-347.353 347.955 80.668 80.668 428.623-428.623zM539.391-92.67l-80.668 80.668 324.477 325.079-347.353 347.955 80.668 80.668 428.623-428.623z" />
<glyph unicode="&#x2026;" glyph-name="more" d="M207.076 218.169c-56.32 0-101.831 45.511-101.831 101.831s45.511 101.831 101.831 101.831c56.32 0 101.831-45.511 101.831-101.831s-45.511-101.831-101.831-101.831zM613.831 320c0 56.32-45.511 101.831-101.831 101.831s-101.831-45.511-101.831-101.831c0-56.32 45.511-101.831 101.831-101.831s101.831 45.511 101.831 101.831zM919.324 320c0 56.32-45.511 101.831-101.831 101.831s-101.831-45.511-101.831-101.831c0-56.32 45.511-101.831 101.831-101.831s101.831 45.511 101.831 101.831z" />
<glyph unicode="&#x2039;" glyph-name="selected" d="M412.444 214.756l-0.569 1.138-0.569-0.569-216.747 216.178-104.107-104.107 320.853-320.853 0.569 1.138 0.569-1.138 521.671 521.102-104.107 104.676z" />
</font>
</defs>
</svg>
