<svg width="36" height="36" viewBox="0 0 36 36" fill="none" xmlns="http://www.w3.org/2000/svg">
<g clip-path="url(#clip0_63_514)">
<path d="M35.5528 30.1866L35.4888 30.1001C34.1698 28.5729 32.5491 27.4542 30.9818 26.3735C30.342 25.932 29.205 25.2204 28.4006 24.648C30.2674 22.0121 31.2673 18.8605 31.2616 15.6305C31.2616 6.9982 24.2634 0 15.6305 0C6.9975 0 0 6.9982 0 15.6305C0 24.2627 6.9982 31.2616 15.6305 31.2616C18.8564 31.2665 22.0042 30.2687 24.6382 28.4062C25.2113 29.2099 25.9221 30.3448 26.3644 30.9846C27.4479 32.5547 28.568 34.1719 30.0938 35.4895L30.1802 35.5528C30.6668 35.8503 31.2271 36.0052 31.7974 36C32.6595 35.9973 33.49 35.6752 34.1283 35.0958L35.0719 34.1543L35.0944 34.1311C36.0991 33.0314 36.2918 31.3727 35.5528 30.1866ZM15.6305 27.1835C12.9572 27.1838 10.3666 26.2572 8.29999 24.5615C6.23339 22.8658 4.81869 20.5059 4.29696 17.8841C3.77523 15.2623 4.17875 12.5406 5.43876 10.183C6.69877 7.82531 8.7373 5.97748 11.207 4.95436C13.6767 3.93123 16.4248 3.79611 18.9829 4.57203C21.5411 5.34794 23.7511 6.98687 25.2363 9.20956C26.7215 11.4323 27.3901 14.1012 27.128 16.7615C26.866 19.4219 25.6897 21.9091 23.7994 23.7994C22.7292 24.8756 21.4561 25.7288 20.0539 26.3097C18.6517 26.8906 17.1482 27.1876 15.6305 27.1835Z" fill="white"/>
<path d="M15.6304 17.0723C18.1642 17.0723 20.2183 15.0182 20.2183 12.4844C20.2183 9.95055 18.1642 7.89648 15.6304 7.89648C13.0965 7.89648 11.0425 9.95055 11.0425 12.4844C11.0425 15.0182 13.0965 17.0723 15.6304 17.0723Z" fill="white"/>
<path d="M23.1884 20.8558C23.1196 20.2123 22.8316 19.6121 22.3728 19.1557C21.9122 18.694 21.3081 18.4029 20.66 18.3302C19.7115 18.2296 17.3553 18.1748 15.8879 18.1748C14.4205 18.1748 11.5327 18.2296 10.5835 18.3302C9.93556 18.4029 9.33159 18.6938 8.87069 19.155C8.4121 19.6114 8.12438 20.2117 8.05577 20.8551V20.8748C8.03327 21.0928 8.01991 21.2819 8.01147 21.4436C8.27125 21.7834 8.55311 22.1056 8.85522 22.4083C10.6527 24.2055 13.0905 25.2152 15.6323 25.2152C18.1741 25.2152 20.6119 24.2055 22.4094 22.4083C22.7068 22.1104 22.9846 21.7935 23.2412 21.4598C23.2306 21.2946 23.2151 21.1005 23.1919 20.8755L23.1884 20.8558Z" fill="white"/>
</g>
<defs>
<clipPath id="clip0_63_514">
<rect width="36" height="36" fill="white"/>
</clipPath>
</defs>
</svg>
