<svg viewBox="0 0 800 800" fill="none" xmlns="http://www.w3.org/2000/svg" stroke="#383E45" stroke-linejoin="bevel" stroke-linecap="square" preserveAspectRatio="xMidYMin slice">
    <path d="M200 400V300M200 400L0 300M200 400L400 300M200 400C262 400 388.8 400 400 400M200 400H0M200 400L0 500M200 100V0L400 100M200 100L0 0M200 100H0L200 200M200 100V200M200 200L0 300M200 200V300M200 200L400 100M200 200H400M0 300H200M200 300L400 200M800 100L600 0L400 100M800 100H700M800 100L700 150M400 300V200M400 300L600 200M400 0V150M400 200V150M400 200H500M400 200L500 150M600 200H500M600 200V150M600 200L700 150M600 200H700M600 200L800 300H600M600 200V300M500 100H600V150M500 100L400 150M500 100V150M500 100L600 150M400 150H500M500 150V200M500 200L600 150M600 150L700 100M600 150H700M700 100V150M700 150V200M700 150H800L700 200M600 300L800 400M600 300V400M600 300L400 400M800 400H600M800 400L600 500M600 400H400M600 400V500M600 400L400 500M400 400V500M600 500V600M600 500C665.833 500 798 500 800 500C802 500 667.5 566.667 600 600M600 600L800 700M600 600V700M600 600H400M600 600L400 500M800 700H600M800 700L600 799.5M600 700V799.5M600 700L400 600M600 700H400M600 799.5H800M600 799.5C589.6 799.5 462.333 733.333 400 700M600 799.5H200M400 500V550M0 500H100M0 500L100 550M100 500L200 550M100 500V550M200 550H100M200 550V600M200 550V500H300M200 550L300 500M200 550L300 600M100 550H0L100 600M100 550V600M100 550L200 600M100 600H200M200 600H300M200 600L400 700M200 600V700M200 600L0 700H200M300 500L400 550M300 500V550M300 600V550M300 600H400M400 550H300M400 550V600M300 550L400 600M400 600V700M200 700V799.5M200 700L0 799.5H200" vector-effect="non-scaling-stroke"/>
</svg>
