<svg viewBox="0 0 800 124" fill="none" xmlns="http://www.w3.org/2000/svg" stroke="#383E45" stroke-linecap="round" preserveAspectRatio="xMidYMin slice">
    <path d="M0 124.384C74.4304 124.384 86.4979 143.583 151.899 137.253C217.299 130.923 246.413 91.4735 313.924 94.128C381.435 96.7825 408.438 149.382 475.949 149.995C543.46 150.607 570.464 98.7019 637.975 97.0683C705.486 95.4348 721.013 124.384 800 124.384" vector-effect="non-scaling-stroke"/>
    <path d="M0 93.3836C74.4304 93.3836 86.4979 112.583 151.899 106.253C217.299 99.9232 246.413 60.4735 313.924 63.128C381.435 65.7825 408.438 118.382 475.949 118.995C543.46 119.607 570.464 67.7019 637.975 66.0683C705.486 64.4348 721.013 93.3836 800 93.3836" vector-effect="non-scaling-stroke"/>
    <path d="M0 62.3836C74.4304 62.3836 86.4979 81.583 151.899 75.2531C217.299 68.9232 246.413 29.4735 313.924 32.128C381.435 34.7825 408.438 87.382 475.949 87.9946C543.46 88.6072 570.464 36.7019 637.975 35.0683C705.486 33.4348 721.013 62.3836 800 62.3836" vector-effect="non-scaling-stroke"/>
    <path d="M0 31.3836C74.4304 31.3836 86.4979 50.583 151.899 44.2531C217.299 37.9232 246.413 -1.52651 313.924 1.12798C381.435 3.78246 408.438 56.382 475.949 56.9946C543.46 57.6072 570.464 5.70185 637.975 4.06833C705.486 2.4348 721.013 31.3836 800 31.3836" vector-effect="non-scaling-stroke"/>
    <path d="M0 0.383591C74.4304 0.383591 86.4979 19.583 151.899 13.2531C217.299 6.92317 246.413 -32.5265 313.924 -29.872C381.435 -27.2175 408.438 25.382 475.949 25.9946C543.46 26.6072 570.464 -25.2981 637.975 -26.9317C705.486 -28.5652 721.013 0.383591 800 0.383591" vector-effect="non-scaling-stroke"/>
</svg>
