<svg viewBox="0 0 200 200" width="200" height="200" fill="#383E45" xmlns="http://www.w3.org/2000/svg" preserveAspectRatio="xMidYMax slice">
    <style>
        @media only screen and (max-width: 130px) {
            circle {
                r: 5px;
            }
        }
    </style>
    <circle r="1"/>
    <circle cx="50" r="1"/>
    <circle cx="100" r="1"/>
    <circle cx="150" r="1"/>
    <circle cx="200" r="1"/>
    <circle cy="50" r="1"/>
    <circle cy="50" cx="50" r="1"/>
    <circle cy="50" cx="100" r="1"/>
    <circle cy="50" cx="150" r="1"/>
    <circle cy="50" cx="200" r="1"/>
    <circle cy="100" r="1"/>
    <circle cy="100" cx="50" r="1"/>
    <circle cy="100" cx="100" r="1"/>
    <circle cy="100" cx="150" r="1"/>
    <circle cy="100" r="1"/>
    <circle cy="100" cx="200" r="1"/>
    <circle cy="150" r="1"/>
    <circle cy="150" cx="50" r="1"/>
    <circle cy="150" cx="100" r="1"/>
    <circle cy="150" cx="150" r="1"/>
    <circle cy="150" cx="200" r="1"/>
    <circle cy="200" r="1"/>
    <circle cy="200" cx="50" r="1"/>
    <circle cy="200" cx="100" r="1"/>
    <circle cy="200" cx="150" r="1"/>
    <circle cy="200" cx="200" r="1"/>
</svg>
