<svg width="50" height="50" viewBox="0 0 50 50" xmlns="http://www.w3.org/2000/svg"><path d="M30.576 14.907a4.029 4.029 0 0 1 5.697 0l8.547 8.546a4.029 4.029 0 0 1 0 5.698l-15.669 15.67a4.029 4.029 0 0 1-5.698 0l-8.546-8.547a4.029 4.029 0 0 1 0-5.698l15.669-15.67Z" fill="#FBB945"/><path d="M18.721 9.047a4.029 4.029 0 0 1 5.264-2.18l11.167 4.625a4.029 4.029 0 0 1 2.18 5.264l-8.48 20.472a4.029 4.029 0 0 1-5.263 2.181l-11.167-4.626a4.029 4.029 0 0 1-2.18-5.264l8.48-20.472Z" fill="#FC868B"/><path d="M37.527 16.16c-.048.2-.113.4-.194.596l-8.48 20.472a4.029 4.029 0 0 1-5.265 2.18l-9.236-3.825a4.03 4.03 0 0 1 .555-5.007l15.669-15.67a4.029 4.029 0 0 1 5.697 0l1.254 1.254Z" fill="#F86126"/><path d="M4 8.029A4.029 4.029 0 0 1 8.029 4h12.087a4.029 4.029 0 0 1 4.029 4.029v22.16a4.029 4.029 0 0 1-4.03 4.028H8.03A4.029 4.029 0 0 1 4 30.188V8.03Z" fill="#2EBCFA"/><path d="M23.973 6.861c.112.37.172.762.172 1.168v22.16a4.029 4.029 0 0 1-4.029 4.029h-8.658a4.03 4.03 0 0 1-1.217-4.699l8.48-20.472a4.029 4.029 0 0 1 5.252-2.186Z" fill="#2D6388"/></svg>
