<svg width="50" height="50" viewBox="0 0 50 50" xmlns="http://www.w3.org/2000/svg"><path d="M30.439.813A18.546 18.546 0 0 0 25.001 0C19.47 0 14.52 2.423 11.22 6.23l8.504 6.934L30.439.813Z" fill="#1A73E8"/><path d="M11.217 6.23C8.587 9.262 7 13.175 7 17.443c0 3.282.675 5.94 1.783 8.321l10.938-12.6-8.504-6.934Z" fill="#EA4335"/><path d="M25.003 10.774c3.804 0 6.885 2.987 6.885 6.673 0 1.64-.612 3.145-1.626 4.306 0 0 5.437-6.268 10.715-12.347-2.18-4.064-5.96-7.19-10.532-8.593l-10.723 12.35a6.954 6.954 0 0 1 5.281-2.389Z" fill="#4285F4"/><path d="M25.003 24.115c-3.803 0-6.885-2.987-6.885-6.673a6.55 6.55 0 0 1 1.603-4.283L8.783 25.763c1.869 4.019 4.978 7.244 8.18 11.307l13.294-15.318a6.957 6.957 0 0 1-5.254 2.363Z" fill="#FBBC04"/><path d="M29.994 41.252C35.998 32.152 43 28.021 43 17.443c0-2.9-.733-5.633-2.025-8.037L16.965 37.07a62.11 62.11 0 0 1 3.047 4.185C23.663 46.722 22.65 50 25.005 50c2.349 0 1.338-3.281 4.99-8.748Z" fill="#34A853"/></svg>
