<svg xmlns="http://www.w3.org/2000/svg" width="14" height="11" viewBox="0 0 14 11">
  <g fill="none" fill-rule="evenodd" class="symbols">
    <g fill="#D9D9D9" class="shape" transform="translate(-176 -6)">
      <g class="group" transform="translate(167)">
        <g class="bg_shape" transform="translate(9 6)">
          <path d="M12 0a2 2 0 0 1 2 2v7a2 2 0 0 1-2 2H2a2 2 0 0 1-2-2V2a2 2 0 0 1 2-2h10zm0 2l-1.59 1.68a7 7 0 0 1-4.207 2.134l-.155.02A4.967 4.967 0 0 0 2.224 8.55L2 9h10V2z" class="o_graphic"/>
        </g>
      </g>
    </g>
  </g>
</svg>
