<svg width="50" height="50" viewBox="0 0 50 50" xmlns="http://www.w3.org/2000/svg"><path d="m31.134 28.846 7.142-27.613c.251-.934-.71-1.612-1.47-.998L8.352 23.231c-.632.51-.367 1.273.432 1.487l19.863 5.514c1.09.291 2.203-.33 2.487-1.386Z" fill="#1AD3BB"/><path d="m18.867 21.153-7.143 27.613c-.25.934.71 1.612 1.47.998l28.455-22.997c.631-.51.367-1.272-.433-1.486l-19.862-5.514c-1.09-.291-2.203.329-2.487 1.386Z" fill="#985184"/><path d="m32.67 22.908-1.535 5.937c-.284 1.057-1.398 1.677-2.487 1.386L17.332 27.09l1.536-5.937c.284-1.057 1.397-1.677 2.486-1.386l11.316 3.141Z" fill="#005E7A"/></svg>
