<svg width="50" height="50" viewBox="0 0 50 50" xmlns="http://www.w3.org/2000/svg"><path fill-rule="evenodd" clip-rule="evenodd" d="M29.2 4c.221 0 .368 0 .59.075 4.568 1.123 8.62 3.743 11.568 7.487 3.02 3.818 4.642 8.46 4.642 13.4 0 4.942-1.621 9.583-4.642 13.402A21.385 21.385 0 0 1 29.79 45.85c-.222.075-.443.075-.59.075-1.326 0-2.432-1.123-2.432-2.47 0-1.198.81-2.246 1.916-2.471 4.053-.973 7.663-3.594 9.874-7.262.295-.524.295-1.198 0-1.797s-.958-.973-1.547-.973c-.295 0-.516.075-.737.15a6.175 6.175 0 0 1-2.8.673c-3.537 0-6.484-2.845-6.632-6.438v-.749c.221-3.593 3.095-6.363 6.632-6.363.958 0 1.916.224 2.8.673.22.15.515.15.736.15.664 0 1.253-.374 1.548-.973.295-.524.295-1.198 0-1.797v-.075c-2.21-3.593-5.821-6.289-9.874-7.262-1.105-.3-1.916-1.273-1.916-2.47C26.768 5.123 27.874 4 29.2 4Zm-8.4 0c1.326 0 2.432 1.123 2.432 2.47 0 1.198-.737 2.247-1.916 2.471-4.053 1.048-7.663 3.669-9.874 7.262-.295.524-.368 1.198 0 1.797.295.599.958.973 1.547.973.295 0 .516-.075.737-.15a6.175 6.175 0 0 1 2.8-.673c3.537 0 6.485 2.845 6.632 6.438v.824c-.221 3.593-3.095 6.438-6.632 6.438a6.175 6.175 0 0 1-2.8-.674c-.22-.15-.516-.15-.737-.15-.663 0-1.252.375-1.547.974-.295.524-.295 1.198 0 1.797 2.21 3.593 5.821 6.289 9.874 7.262 1.105.3 1.916 1.273 1.916 2.47 0 1.348-1.106 2.471-2.432 2.471-.221 0-.368 0-.59-.075-4.568-1.123-8.62-3.743-11.568-7.486C5.622 34.544 4 29.903 4 24.962 4 20.02 5.621 15.38 8.642 11.56a21.386 21.386 0 0 1 11.569-7.486C20.357 4 20.578 4 20.8 4Z" fill="#171214"/></svg>
