<?xml version="1.0" encoding="UTF-8" standalone="no"?>
<svg
   xmlns:dc="http://purl.org/dc/elements/1.1/"
   xmlns:cc="http://creativecommons.org/ns#"
   xmlns:rdf="http://www.w3.org/1999/02/22-rdf-syntax-ns#"
   xmlns:svg="http://www.w3.org/2000/svg"
   xmlns="http://www.w3.org/2000/svg"
   xmlns:xlink="http://www.w3.org/1999/xlink"
   xmlns:sodipodi="http://sodipodi.sourceforge.net/DTD/sodipodi-0.dtd"
   xmlns:inkscape="http://www.inkscape.org/namespaces/inkscape"
   width="48"
   height="48"
   overflow="visible"
   enable-background="new 0 0 128 129.396"
   xml:space="preserve"
   id="svg2"
   sodipodi:version="0.32"
   inkscape:version="0.48.3.1 r9886"
   sodipodi:docname="scale.svg"
   version="1.0"
   inkscape:export-filename="/home/fva/Code/openerp/src/addons/trunk-pos-fva/point_of_sale/static/src/img/scale.png"
   inkscape:export-xdpi="600"
   inkscape:export-ydpi="600"
   inkscape:output_extension="org.inkscape.output.svg.inkscape"><metadata
   id="metadata367"><rdf:RDF><cc:Work
       rdf:about=""><dc:format>image/svg+xml</dc:format><dc:type
         rdf:resource="http://purl.org/dc/dcmitype/StillImage" /><cc:license
         rdf:resource="http://creativecommons.org/licenses/publicdomain/" /><dc:title></dc:title><dc:creator><cc:Agent><dc:title>Jakub Steiner</dc:title></cc:Agent></dc:creator><dc:source>http://jimmac.musichall.cz</dc:source><dc:subject><rdf:Bag><rdf:li>home</rdf:li><rdf:li>return</rdf:li><rdf:li>go</rdf:li><rdf:li>default</rdf:li><rdf:li>user</rdf:li><rdf:li>directory</rdf:li></rdf:Bag></dc:subject><dc:contributor><cc:Agent><dc:title>Tuomas Kuosmanen</dc:title></cc:Agent></dc:contributor></cc:Work><cc:License
       rdf:about="http://creativecommons.org/licenses/publicdomain/"><cc:permits
         rdf:resource="http://creativecommons.org/ns#Reproduction" /><cc:permits
         rdf:resource="http://creativecommons.org/ns#Distribution" /><cc:permits
         rdf:resource="http://creativecommons.org/ns#DerivativeWorks" /></cc:License></rdf:RDF></metadata><defs
   id="defs365"><linearGradient
     inkscape:collect="always"
     id="linearGradient4977"><stop
       style="stop-color:#ff0000;stop-opacity:1;"
       offset="0"
       id="stop4979" /><stop
       style="stop-color:#ff0000;stop-opacity:0"
       offset="1"
       id="stop4981" /></linearGradient><inkscape:perspective
     sodipodi:type="inkscape:persp3d"
     inkscape:vp_x="0 : 24 : 1"
     inkscape:vp_y="0 : 1000 : 0"
     inkscape:vp_z="48 : 24 : 1"
     inkscape:persp3d-origin="24 : 16 : 1"
     id="perspective92" /><radialGradient
     inkscape:collect="always"
     xlink:href="#linearGradient5060"
     id="radialGradient5031"
     gradientUnits="userSpaceOnUse"
     gradientTransform="matrix(-2.774389,0,0,1.969706,112.7623,-872.8854)"
     cx="605.71429"
     cy="486.64789"
     fx="605.71429"
     fy="486.64789"
     r="117.14286" /><linearGradient
     inkscape:collect="always"
     id="linearGradient5060"><stop
       style="stop-color:black;stop-opacity:1;"
       offset="0"
       id="stop5062" /><stop
       style="stop-color:black;stop-opacity:0;"
       offset="1"
       id="stop5064" /></linearGradient><radialGradient
     inkscape:collect="always"
     xlink:href="#linearGradient5060"
     id="radialGradient5029"
     gradientUnits="userSpaceOnUse"
     gradientTransform="matrix(2.774389,0,0,1.969706,-1891.633,-872.8854)"
     cx="605.71429"
     cy="486.64789"
     fx="605.71429"
     fy="486.64789"
     r="117.14286" /><linearGradient
     id="linearGradient5048"><stop
       style="stop-color:black;stop-opacity:0;"
       offset="0"
       id="stop5050" /><stop
       id="stop5056"
       offset="0.5"
       style="stop-color:black;stop-opacity:1;" /><stop
       style="stop-color:black;stop-opacity:0;"
       offset="1"
       id="stop5052" /></linearGradient><linearGradient
     inkscape:collect="always"
     xlink:href="#linearGradient5048"
     id="linearGradient5027"
     gradientUnits="userSpaceOnUse"
     gradientTransform="matrix(2.774389,0,0,1.969706,-1892.179,-872.8854)"
     x1="302.85715"
     y1="366.64789"
     x2="302.85715"
     y2="609.50507" /><linearGradient
     id="linearGradient2406"><stop
       style="stop-color:#7c7e79;stop-opacity:1;"
       offset="0"
       id="stop2408" /><stop
       id="stop2414"
       offset="0.1724138"
       style="stop-color:#848681;stop-opacity:1;" /><stop
       style="stop-color:#898c86;stop-opacity:1;"
       offset="1"
       id="stop2410" /></linearGradient><linearGradient
     inkscape:collect="always"
     id="linearGradient2390"><stop
       style="stop-color:#919191;stop-opacity:1;"
       offset="0"
       id="stop2392" /><stop
       style="stop-color:#919191;stop-opacity:0;"
       offset="1"
       id="stop2394" /></linearGradient><linearGradient
     inkscape:collect="always"
     id="linearGradient2378"><stop
       style="stop-color:#575757;stop-opacity:1;"
       offset="0"
       id="stop2380" /><stop
       style="stop-color:#575757;stop-opacity:0;"
       offset="1"
       id="stop2382" /></linearGradient><linearGradient
     inkscape:collect="always"
     id="linearGradient2368"><stop
       style="stop-color:#ffffff;stop-opacity:1;"
       offset="0"
       id="stop2370" /><stop
       style="stop-color:#ffffff;stop-opacity:0;"
       offset="1"
       id="stop2372" /></linearGradient><linearGradient
     inkscape:collect="always"
     id="linearGradient2349"><stop
       style="stop-color:#000000;stop-opacity:1;"
       offset="0"
       id="stop2351" /><stop
       style="stop-color:#000000;stop-opacity:0;"
       offset="1"
       id="stop2353" /></linearGradient><linearGradient
     id="linearGradient2341"><stop
       id="stop2343"
       offset="0"
       style="stop-color:#000000;stop-opacity:1;" /><stop
       id="stop2345"
       offset="1"
       style="stop-color:#000000;stop-opacity:0;" /></linearGradient><linearGradient
     id="linearGradient2329"><stop
       style="stop-color:#000000;stop-opacity:0.18556701;"
       offset="0"
       id="stop2331" /><stop
       style="stop-color:#ffffff;stop-opacity:1;"
       offset="1"
       id="stop2333" /></linearGradient><linearGradient
     inkscape:collect="always"
     id="linearGradient2319"><stop
       style="stop-color:#000000;stop-opacity:1;"
       offset="0"
       id="stop2321" /><stop
       style="stop-color:#000000;stop-opacity:0;"
       offset="1"
       id="stop2323" /></linearGradient><linearGradient
     id="linearGradient2307"><stop
       style="stop-color:#edd400;stop-opacity:1;"
       offset="0"
       id="stop2309" /><stop
       style="stop-color:#998800;stop-opacity:1;"
       offset="1"
       id="stop2311" /></linearGradient><linearGradient
     inkscape:collect="always"
     id="linearGradient2299"><stop
       style="stop-color:#ffffff;stop-opacity:1;"
       offset="0"
       id="stop2301" /><stop
       style="stop-color:#ffffff;stop-opacity:0;"
       offset="1"
       id="stop2303" /></linearGradient><linearGradient
     id="XMLID_2_"
     gradientUnits="userSpaceOnUse"
     x1="80.223602"
     y1="117.5205"
     x2="48.046001"
     y2="59.7995"
     gradientTransform="matrix(0.314683,0.000000,0.000000,0.314683,4.128264,3.742874)">
				<stop
   offset="0"
   style="stop-color:#CCCCCC"
   id="stop17" />
				<stop
   offset="0.9831"
   style="stop-color:#FFFFFF"
   id="stop19" />
				<midPointStop
   offset="0"
   style="stop-color:#CCCCCC"
   id="midPointStop48" />
				<midPointStop
   offset="0.5"
   style="stop-color:#CCCCCC"
   id="midPointStop50" />
				<midPointStop
   offset="0.9831"
   style="stop-color:#FFFFFF"
   id="midPointStop52" />
			</linearGradient><linearGradient
     inkscape:collect="always"
     xlink:href="#XMLID_2_"
     id="linearGradient1514"
     gradientUnits="userSpaceOnUse"
     gradientTransform="matrix(0.336922,0,0,0.166888,143.49433,15.46151)"
     x1="52.006104"
     y1="166.1331"
     x2="14.049017"
     y2="-42.218513" /><linearGradient
     id="XMLID_39_"
     gradientUnits="userSpaceOnUse"
     x1="64.387703"
     y1="65.124001"
     x2="64.387703"
     y2="35.569"
     gradientTransform="matrix(0.354101,0,0,0.354101,127.15013,-0.08364921)">
						<stop
   offset="0"
   style="stop-color:#FFFFFF"
   id="stop336" />
						<stop
   offset="0.8539"
   style="stop-color:#FF6200"
   id="stop338" />
						<stop
   offset="1"
   style="stop-color:#F25D00"
   id="stop340" />
						<midPointStop
   offset="0"
   style="stop-color:#FFFFFF"
   id="midPointStop335" />
						<midPointStop
   offset="0.5"
   style="stop-color:#FFFFFF"
   id="midPointStop337" />
						<midPointStop
   offset="0.8539"
   style="stop-color:#FF6200"
   id="midPointStop339" />
						<midPointStop
   offset="0.5"
   style="stop-color:#FF6200"
   id="midPointStop341" />
						<midPointStop
   offset="1"
   style="stop-color:#F25D00"
   id="midPointStop343" />
					</linearGradient><radialGradient
     inkscape:collect="always"
     xlink:href="#linearGradient2299"
     id="radialGradient2305"
     cx="7.5326638"
     cy="24.202574"
     fx="7.5326638"
     fy="24.202574"
     r="8.2452128"
     gradientTransform="matrix(4.100086,0,0,4.201322,100.09639,-78.53967)"
     gradientUnits="userSpaceOnUse" /><radialGradient
     inkscape:collect="always"
     xlink:href="#linearGradient2307"
     id="radialGradient2313"
     cx="19.985598"
     cy="36.77816"
     fx="19.985598"
     fy="36.77816"
     r="1.0821035"
     gradientTransform="matrix(1.125263,0,0,0.982744,122.08278,0.565787)"
     gradientUnits="userSpaceOnUse" /><radialGradient
     inkscape:collect="always"
     xlink:href="#linearGradient2319"
     id="radialGradient2325"
     cx="20.443665"
     cy="37.425829"
     fx="20.443665"
     fy="37.425829"
     r="1.0821035"
     gradientTransform="matrix(1.125263,0,0,0.982744,122.08278,0.731106)"
     gradientUnits="userSpaceOnUse" /><linearGradient
     inkscape:collect="always"
     xlink:href="#linearGradient2329"
     id="linearGradient2335"
     x1="17.602522"
     y1="26.057423"
     x2="17.682528"
     y2="32.654099"
     gradientUnits="userSpaceOnUse"
     gradientTransform="matrix(0.898789,0,0,1.071914,125.98948,-2.080838)" /><radialGradient
     inkscape:collect="always"
     xlink:href="#linearGradient2341"
     id="radialGradient2339"
     gradientUnits="userSpaceOnUse"
     gradientTransform="matrix(4.100086,0,0,-4.201322,120.31334,105.3535)"
     cx="11.68129"
     cy="19.554111"
     fx="11.68129"
     fy="19.554111"
     r="8.2452126" /><radialGradient
     inkscape:collect="always"
     xlink:href="#linearGradient2349"
     id="radialGradient2355"
     cx="24.023088"
     cy="40.56913"
     fx="24.023088"
     fy="40.56913"
     r="16.28684"
     gradientTransform="matrix(1.000000,0.000000,0.000000,0.431250,1.157278e-15,23.07369)"
     gradientUnits="userSpaceOnUse" /><radialGradient
     inkscape:collect="always"
     xlink:href="#linearGradient2368"
     id="radialGradient2374"
     cx="29.913452"
     cy="30.442923"
     fx="29.913452"
     fy="30.442923"
     r="4.0018832"
     gradientTransform="matrix(3.751495,0,0,3.147818,43.502383,-65.70704)"
     gradientUnits="userSpaceOnUse" /><radialGradient
     inkscape:collect="always"
     xlink:href="#linearGradient2378"
     id="radialGradient2384"
     cx="24.195112"
     cy="10.577631"
     fx="24.195112"
     fy="10.577631"
     r="15.242914"
     gradientTransform="matrix(1.125263,-3.585417e-8,4.269819e-8,1.340059,122.50475,1.355395)"
     gradientUnits="userSpaceOnUse" /><linearGradient
     inkscape:collect="always"
     xlink:href="#linearGradient2390"
     id="linearGradient2396"
     x1="30.603519"
     y1="37.337803"
     x2="30.603519"
     y2="36.112415"
     gradientUnits="userSpaceOnUse"
     gradientTransform="matrix(1.263867,0,0,0.859794,-6.499556,8.390924)" /><linearGradient
     inkscape:collect="always"
     xlink:href="#linearGradient2406"
     id="linearGradient2412"
     x1="17.850183"
     y1="28.939463"
     x2="19.040216"
     y2="41.03223"
     gradientUnits="userSpaceOnUse"
     gradientTransform="matrix(0.888785,0,0,1.08932,127.92244,-1.524336)" /><linearGradient
     inkscape:collect="always"
     xlink:href="#linearGradient5048"
     id="linearGradient4689"
     gradientUnits="userSpaceOnUse"
     gradientTransform="matrix(2.774389,0,0,1.969706,-1892.179,-872.8854)"
     x1="302.85715"
     y1="366.64789"
     x2="302.85715"
     y2="609.50507" /><radialGradient
     inkscape:collect="always"
     xlink:href="#linearGradient5060"
     id="radialGradient4691"
     gradientUnits="userSpaceOnUse"
     gradientTransform="matrix(2.774389,0,0,1.969706,-1891.633,-872.8854)"
     cx="605.71429"
     cy="486.64789"
     fx="605.71429"
     fy="486.64789"
     r="117.14286" /><radialGradient
     inkscape:collect="always"
     xlink:href="#linearGradient5060"
     id="radialGradient4693"
     gradientUnits="userSpaceOnUse"
     gradientTransform="matrix(-2.774389,0,0,1.969706,112.7623,-872.8854)"
     cx="605.71429"
     cy="486.64789"
     fx="605.71429"
     fy="486.64789"
     r="117.14286" /><linearGradient
     inkscape:collect="always"
     xlink:href="#linearGradient5048"
     id="linearGradient4894"
     gradientUnits="userSpaceOnUse"
     gradientTransform="matrix(2.774389,0,0,1.969706,-1892.179,-872.8854)"
     x1="302.85715"
     y1="366.64789"
     x2="302.85715"
     y2="609.50507" /><radialGradient
     inkscape:collect="always"
     xlink:href="#linearGradient5060"
     id="radialGradient4896"
     gradientUnits="userSpaceOnUse"
     gradientTransform="matrix(2.774389,0,0,1.969706,-1891.633,-872.8854)"
     cx="605.71429"
     cy="486.64789"
     fx="605.71429"
     fy="486.64789"
     r="117.14286" /><radialGradient
     inkscape:collect="always"
     xlink:href="#linearGradient5060"
     id="radialGradient4898"
     gradientUnits="userSpaceOnUse"
     gradientTransform="matrix(-2.774389,0,0,1.969706,112.7623,-872.8854)"
     cx="605.71429"
     cy="486.64789"
     fx="605.71429"
     fy="486.64789"
     r="117.14286" /><filter
     inkscape:collect="always"
     id="filter4971"
     x="-0.064853556"
     width="1.1297071"
     y="-1.9456067"
     height="4.8912134"><feGaussianBlur
       inkscape:collect="always"
       stdDeviation="0.81066946"
       id="feGaussianBlur4973" /></filter><linearGradient
     inkscape:collect="always"
     xlink:href="#linearGradient4977"
     id="linearGradient4983"
     x1="23.6875"
     y1="32"
     x2="23.75"
     y2="45.25"
     gradientUnits="userSpaceOnUse" /></defs><sodipodi:namedview
   inkscape:cy="-2.746436"
   inkscape:cx="31.130127"
   inkscape:zoom="8"
   inkscape:window-height="1176"
   inkscape:window-width="1855"
   inkscape:pageshadow="2"
   inkscape:pageopacity="0.0"
   borderopacity="0.21568627"
   bordercolor="#666666"
   pagecolor="#ffffff"
   id="base"
   inkscape:showpageshadow="false"
   inkscape:window-x="65"
   inkscape:window-y="24"
   inkscape:current-layer="svg2"
   fill="#555753"
   showgrid="true"
   stroke="#a40000"
   showguides="true"
   inkscape:guide-bbox="true"
   inkscape:snap-global="false"
   inkscape:window-maximized="1"><inkscape:grid
     type="xygrid"
     id="grid3818" /></sodipodi:namedview>
	<g
   style="display:inline"
   id="g5022"
   transform="matrix(0.02158196,0,0,0.01859457,168.63396,41.63767)"><rect
     y="-150.69685"
     x="-1559.2523"
     height="478.35718"
     width="1339.6335"
     id="rect4173"
     style="opacity:0.40206185;color:#000000;fill:url(#linearGradient5027);fill-opacity:1;fill-rule:nonzero;stroke:none;stroke-width:1;marker:none;visibility:visible;display:inline;overflow:visible" /><path
     sodipodi:nodetypes="cccc"
     id="path5058"
     d="m -219.61876,-150.68038 c 0,0 0,478.33079 0,478.33079 142.874166,0.90045 345.40022,-107.16966 345.40014,-239.196175 0,-132.026537 -159.436816,-239.134595 -345.40014,-239.134615 z"
     style="opacity:0.40206185;color:#000000;fill:url(#radialGradient5029);fill-opacity:1;fill-rule:nonzero;stroke:none;stroke-width:1;marker:none;visibility:visible;display:inline;overflow:visible"
     inkscape:connector-curvature="0" /><path
     style="opacity:0.40206185;color:#000000;fill:url(#radialGradient5031);fill-opacity:1;fill-rule:nonzero;stroke:none;stroke-width:1;marker:none;visibility:visible;display:inline;overflow:visible"
     d="m -1559.2523,-150.68038 c 0,0 0,478.33079 0,478.33079 -142.8742,0.90045 -345.4002,-107.16966 -345.4002,-239.196175 0,-132.026537 159.4368,-239.134595 345.4002,-239.134615 z"
     id="path5018"
     sodipodi:nodetypes="cccc"
     inkscape:connector-curvature="0" /></g><path
   style="color:#000000;fill:url(#linearGradient1514);fill-opacity:1;fill-rule:nonzero;stroke:#757575;stroke-width:1.0000006;stroke-linecap:butt;stroke-linejoin:miter;stroke-miterlimit:4;stroke-opacity:1;stroke-dashoffset:0;marker:none;visibility:visible;display:inline;overflow:visible"
   d="m 147.13103,8.1833733 5.95746,0 c 0.83973,0 13.88647,15.4353277 13.88647,16.3406587 l -0.44352,18.496745 c 0,0.905333 -0.67603,1.634177 -1.51576,1.634177 l -31.45728,0 c -0.83973,0 -1.51576,-0.728844 -1.51576,-1.634177 l 0.0565,-18.496745 c 0,-0.905331 14.19218,-16.3406587 15.03191,-16.3406587 z"
   id="rect1512"
   sodipodi:nodetypes="ccccccccc"
   inkscape:connector-curvature="0" /><path
   style="fill:none"
   id="path5"
   d="m 172.47503,45.735573 -45.3249,0 0,-45.32489746 45.3249,0 0,45.32489746 z"
   inkscape:connector-curvature="0" /><path
   style="fill:url(#linearGradient2335);fill-opacity:1;fill-rule:evenodd"
   id="path2327"
   d="m 148.51145,29 -0.0457,15.090942 -11.84279,0 L 136.51145,29 l 12,0 z"
   clip-rule="evenodd"
   sodipodi:nodetypes="ccccc"
   inkscape:connector-curvature="0" /><path
   sodipodi:nodetypes="ccccccccc"
   id="path2357"
   d="m 147.29191,9.405584 5.5591,0 c 0.78358,0 13.00087,14.399588 13.00087,15.244172 l -0.34716,18.212311 c 0,0.459259 -0.14374,0.653465 -0.51237,0.653465 l -31.38721,0.01428 c -0.36863,0 -0.58396,-0.07992 -0.58396,-0.45355 l 0.21534,-18.426506 c 0,-0.844584 13.27181,-15.244172 14.05539,-15.244172 z"
   style="opacity:0.3125;color:#000000;fill:none;stroke:#ffffff;stroke-width:1.00000012;stroke-linecap:butt;stroke-linejoin:miter;stroke-miterlimit:4;stroke-opacity:1;stroke-dashoffset:0;marker:none;visibility:visible;display:inline;overflow:visible"
   inkscape:connector-curvature="0" /><path
   clip-rule="evenodd"
   d="m 132.71898,27.943053 -0.0543,2.595194 18.36817,-13.179254 15.28639,11.154428 0.0713,-0.311714 -16.37045,-15.904131 -17.30116,15.645477 z"
   id="path23"
   style="opacity:0.2;fill:url(#radialGradient2384);fill-opacity:1;fill-rule:evenodd"
   sodipodi:nodetypes="ccccccc"
   inkscape:connector-curvature="0" /><path
   clip-rule="evenodd"
   d="m 147.51145,30 0,14.090942 -9.81103,0 L 137.51145,30 l 10,0 z"
   id="path188"
   style="fill:url(#linearGradient2412);fill-opacity:1;fill-rule:evenodd"
   sodipodi:nodetypes="ccccc"
   inkscape:connector-curvature="0" /><path
   style="opacity:0.40909089;fill:url(#radialGradient2325);fill-opacity:1;fill-rule:evenodd"
   id="path2315"
   d="m 145.08831,36.44767 c 0.67279,0 1.21662,0.474605 1.21662,1.058507 0,0.589811 -0.54383,1.068355 -1.21662,1.068355 -0.67227,0 -1.21869,-0.478544 -1.21869,-1.068355 5.2e-4,-0.583902 0.54642,-1.058507 1.21869,-1.058507 z"
   clip-rule="evenodd"
   inkscape:connector-curvature="0" /><path
   clip-rule="evenodd"
   d="m 144.97377,35.932229 c 0.67279,0 1.21661,0.474605 1.21661,1.058507 0,0.589809 -0.54382,1.068353 -1.21661,1.068353 -0.67228,0 -1.21869,-0.478544 -1.21869,-1.068353 5.2e-4,-0.583902 0.54641,-1.058507 1.21869,-1.058507 z"
   id="path217"
   style="fill:url(#radialGradient2313);fill-opacity:1;fill-rule:evenodd"
   inkscape:connector-curvature="0" /><path
   d="m 149.9592,11.559337 18.92706,17.169868 0.49468,0.391991 0.40368,-0.171385 -0.37287,-0.761673 -0.27762,-0.223436 -19.17493,-15.572306 -19.38951,15.743335 -0.23761,0.14412 -0.21671,0.706786 0.43342,0.129248 0.38456,-0.308423 19.02585,-17.248125 z"
   id="path342"
   style="fill:url(#XMLID_39_)"
   sodipodi:nodetypes="ccccccccccccc"
   inkscape:connector-curvature="0" /><path
   style="fill:#ef2929;stroke:#a40000"
   id="path362"
   d="m 149.84162,2.2713382 -21.88174,18.1013368 -0.62473,7.165928 1.99994,2.064323 c 0,0 20.40738,-17.157285 20.62409,-17.327963 l 19.63254,17.54326 1.89843,-2.323997 -1.61579,-7.111374 -19.91518,-18.2159732 -0.11756,0.1044594 z"
   sodipodi:nodetypes="cccccccccc"
   inkscape:connector-curvature="0" />
<path
   style="opacity:0.40909089;color:#000000;fill:url(#radialGradient2305);fill-opacity:1;fill-rule:nonzero;stroke:none;stroke-width:1;marker:none;visibility:visible;display:inline;overflow:visible"
   d="M 128.3528,20.613129 128.06124,27.236494 149.88067,8.980075 149.81034,3.0867443 128.3528,20.613129 z"
   id="path1536"
   sodipodi:nodetypes="ccccc"
   inkscape:connector-curvature="0" /><path
   sodipodi:nodetypes="ccccc"
   id="path2337"
   d="m 149.99522,8.7509884 0.0995,-5.8411017 19.32896,17.6519533 1.49181,6.500812 -20.92023,-18.3116636 z"
   style="opacity:0.13636367;color:#000000;fill:url(#radialGradient2339);fill-opacity:1;fill-rule:nonzero;stroke:none;stroke-width:1;marker:none;visibility:visible;display:inline;overflow:visible"
   inkscape:connector-curvature="0" /><path
   style="opacity:0.31818183;color:#000000;fill:none;stroke:#ffffff;stroke-width:0.99999934;stroke-linecap:butt;stroke-linejoin:miter;stroke-miterlimit:4;stroke-opacity:1;stroke-dashoffset:0;marker:none;visibility:visible;display:inline;overflow:visible"
   d="m 152.61368,27.719824 9.04,0 c 0.77059,0 1.39096,0.62037 1.39096,1.390967 l -0.008,9.079221 c 0,0.770596 -0.59632,1.265969 -1.36691,1.265969 l -9.05609,0 c -0.77059,0 -1.39096,-0.620373 -1.39096,-1.390969 l 0,-8.954221 c 0,-0.770597 0.62037,-1.390967 1.39096,-1.390967 z"
   id="rect2361"
   sodipodi:nodetypes="ccccccccc"
   inkscape:connector-curvature="0" /><rect
   style="color:#000000;fill:#3465a4;fill-opacity:1;fill-rule:nonzero;stroke:#757575;stroke-width:0.9999994;stroke-linecap:butt;stroke-linejoin:miter;stroke-miterlimit:4;stroke-opacity:1;stroke-dasharray:none;stroke-dashoffset:0;marker:none;visibility:visible;display:inline;overflow:visible"
   id="rect3263"
   width="10.001333"
   height="9.9624557"
   x="152.01923"
   y="28.514256"
   rx="0.38128215"
   ry="0.38128215" /><path
   style="opacity:0.39772728;color:#000000;fill:url(#radialGradient2374);fill-opacity:1;fill-rule:nonzero;stroke:none;stroke-width:0.99999958;marker:none;visibility:visible;display:inline;overflow:visible"
   d="m 152.61857,34.408261 c 3.61798,0.331177 5.52773,-1.445704 8.86815,-1.55274 l 0.0247,-3.849491 -8.91161,-0.006 0.0187,5.408261 z"
   id="rect2363"
   sodipodi:nodetypes="ccccc"
   inkscape:connector-curvature="0" /><g
   transform="translate(65.937707,2.0108349)"
   id="g4739"><path
     sodipodi:type="arc"
     style="fill:#6adb4d;fill-opacity:1;stroke:#34781d;stroke-width:1.05264175;stroke-miterlimit:4;stroke-opacity:1;stroke-dasharray:none"
     id="path4741"
     sodipodi:cx="25.367456"
     sodipodi:cy="8.2694378"
     sodipodi:rx="5.3033009"
     sodipodi:ry="5.3033009"
     d="m 30.670757,8.2694378 c 0,2.9289322 -2.374368,5.3033012 -5.303301,5.3033012 -2.928932,0 -5.3033,-2.374369 -5.3033,-5.3033012 0,-2.9289322 2.374368,-5.3033009 5.3033,-5.3033009 2.928933,0 5.303301,2.3743687 5.303301,5.3033009 z"
     transform="matrix(0.95416667,0,0,0.94583333,1.405743,0.73519001)" /><path
     transform="matrix(0.77083333,0,0,0.77916666,6.0564434,2.1576238)"
     d="m 30.670757,8.2694378 c 0,2.9289322 -2.374368,5.3033012 -5.303301,5.3033012 -2.928932,0 -5.3033,-2.374369 -5.3033,-5.3033012 0,-2.9289322 2.374368,-5.3033009 5.3033,-5.3033009 2.928933,0 5.303301,2.3743687 5.303301,5.3033009 z"
     sodipodi:ry="5.3033009"
     sodipodi:rx="5.3033009"
     sodipodi:cy="8.2694378"
     sodipodi:cx="25.367456"
     id="path4743"
     style="fill:none;stroke:#b3ff9a;stroke-width:1.29034114;stroke-miterlimit:4;stroke-opacity:1;stroke-dasharray:none"
     sodipodi:type="arc" /></g><g
   id="g4733"
   transform="translate(76.897863,5.0160386)"><path
     transform="matrix(0.95416667,0,0,0.94583333,1.405743,0.73519001)"
     d="m 30.670757,8.2694378 c 0,2.9289322 -2.374368,5.3033012 -5.303301,5.3033012 -2.928932,0 -5.3033,-2.374369 -5.3033,-5.3033012 0,-2.9289322 2.374368,-5.3033009 5.3033,-5.3033009 2.928933,0 5.303301,2.3743687 5.303301,5.3033009 z"
     sodipodi:ry="5.3033009"
     sodipodi:rx="5.3033009"
     sodipodi:cy="8.2694378"
     sodipodi:cx="25.367456"
     id="path4735"
     style="fill:#6adb4d;fill-opacity:1;stroke:#34781d;stroke-width:1.05264175;stroke-miterlimit:4;stroke-opacity:1;stroke-dasharray:none"
     sodipodi:type="arc" /><path
     sodipodi:type="arc"
     style="fill:none;stroke:#b3ff9a;stroke-width:1.29034114;stroke-miterlimit:4;stroke-opacity:1;stroke-dasharray:none"
     id="path4737"
     sodipodi:cx="25.367456"
     sodipodi:cy="8.2694378"
     sodipodi:rx="5.3033009"
     sodipodi:ry="5.3033009"
     d="m 30.670757,8.2694378 c 0,2.9289322 -2.374368,5.3033012 -5.303301,5.3033012 -2.928932,0 -5.3033,-2.374369 -5.3033,-5.3033012 0,-2.9289322 2.374368,-5.3033009 5.3033,-5.3033009 2.928933,0 5.303301,2.3743687 5.303301,5.3033009 z"
     transform="matrix(0.77083333,0,0,0.77916666,6.0564434,2.1576238)" /></g><g
   transform="translate(70.887455,7.0268736)"
   id="g4727"><path
     sodipodi:type="arc"
     style="fill:#6adb4d;fill-opacity:1;stroke:#34781d;stroke-width:1.05264175;stroke-miterlimit:4;stroke-opacity:1;stroke-dasharray:none"
     id="path4729"
     sodipodi:cx="25.367456"
     sodipodi:cy="8.2694378"
     sodipodi:rx="5.3033009"
     sodipodi:ry="5.3033009"
     d="m 30.670757,8.2694378 c 0,2.9289322 -2.374368,5.3033012 -5.303301,5.3033012 -2.928932,0 -5.3033,-2.374369 -5.3033,-5.3033012 0,-2.9289322 2.374368,-5.3033009 5.3033,-5.3033009 2.928933,0 5.303301,2.3743687 5.303301,5.3033009 z"
     transform="matrix(0.95416667,0,0,0.94583333,1.405743,0.73519001)" /><path
     transform="matrix(0.77083333,0,0,0.77916666,6.0564434,2.1576238)"
     d="m 30.670757,8.2694378 c 0,2.9289322 -2.374368,5.3033012 -5.303301,5.3033012 -2.928932,0 -5.3033,-2.374369 -5.3033,-5.3033012 0,-2.9289322 2.374368,-5.3033009 5.3033,-5.3033009 2.928933,0 5.303301,2.3743687 5.303301,5.3033009 z"
     sodipodi:ry="5.3033009"
     sodipodi:rx="5.3033009"
     sodipodi:cy="8.2694378"
     sodipodi:cx="25.367456"
     id="path4731"
     style="fill:none;stroke:#b3ff9a;stroke-width:1.29034114;stroke-miterlimit:4;stroke-opacity:1;stroke-dasharray:none"
     sodipodi:type="arc" /></g><g
   id="g4723"
   transform="translate(59.662134,5.9662134)"><path
     transform="matrix(0.95416667,0,0,0.94583333,1.405743,0.73519001)"
     d="m 30.670757,8.2694378 c 0,2.9289322 -2.374368,5.3033012 -5.303301,5.3033012 -2.928932,0 -5.3033,-2.374369 -5.3033,-5.3033012 0,-2.9289322 2.374368,-5.3033009 5.3033,-5.3033009 2.928933,0 5.303301,2.3743687 5.303301,5.3033009 z"
     sodipodi:ry="5.3033009"
     sodipodi:rx="5.3033009"
     sodipodi:cy="8.2694378"
     sodipodi:cx="25.367456"
     id="path4719"
     style="fill:#6adb4d;fill-opacity:1;stroke:#34781d;stroke-width:1.05264175;stroke-miterlimit:4;stroke-opacity:1;stroke-dasharray:none"
     sodipodi:type="arc" /><path
     sodipodi:type="arc"
     style="fill:none;stroke:#b3ff9a;stroke-width:1.29034114;stroke-miterlimit:4;stroke-opacity:1;stroke-dasharray:none"
     id="path4721"
     sodipodi:cx="25.367456"
     sodipodi:cy="8.2694378"
     sodipodi:rx="5.3033009"
     sodipodi:ry="5.3033009"
     d="m 30.670757,8.2694378 c 0,2.9289322 -2.374368,5.3033012 -5.303301,5.3033012 -2.928932,0 -5.3033,-2.374369 -5.3033,-5.3033012 0,-2.9289322 2.374368,-5.3033009 5.3033,-5.3033009 2.928933,0 5.303301,2.3743687 5.303301,5.3033009 z"
     transform="matrix(0.77083333,0,0,0.77916666,6.0564434,2.1576238)" /></g><g
   id="g4695"
   transform="matrix(1.1326331,0,0,0.44340824,65.580189,2.4215088)"><rect
     style="fill:#8a8a8a;fill-opacity:1;stroke:none"
     id="rect4697"
     width="29.256544"
     height="18.119614"
     x="10.297243"
     y="27.449707"
     rx="1.7190553"
     ry="4.3911204" /><g
     id="g4699"><g
       id="g4701"><rect
         rx="1.7051755"
         y="27.517153"
         x="10.510214"
         height="17.982044"
         width="29.020325"
         id="rect4703"
         style="fill:none;stroke:#646464;stroke-width:1.41005611;stroke-miterlimit:4;stroke-opacity:1;stroke-dasharray:none"
         ry="4.3556657" /></g><rect
       rx="0.88575488"
       y="29.624025"
       x="11.337327"
       height="13.83156"
       width="27.319036"
       id="rect4705"
       style="fill:none;stroke:#b3b3b3;stroke-width:1.40048993;stroke-miterlimit:4;stroke-opacity:1;stroke-dasharray:none"
       ry="2.2625546" /></g></g><g
   transform="matrix(0.01936185,0,0,0.01859457,111.41659,40.621203)"
   id="g4681"
   style="display:inline"><rect
     style="opacity:0.40206185;color:#000000;fill:url(#linearGradient4689);fill-opacity:1;fill-rule:nonzero;stroke:none;stroke-width:1;marker:none;visibility:visible;display:inline;overflow:visible"
     id="rect4683"
     width="1339.6335"
     height="478.35718"
     x="-1559.2523"
     y="-150.69685" /><path
     inkscape:connector-curvature="0"
     style="opacity:0.40206185;color:#000000;fill:url(#radialGradient4691);fill-opacity:1;fill-rule:nonzero;stroke:none;stroke-width:1;marker:none;visibility:visible;display:inline;overflow:visible"
     d="m -219.61876,-150.68038 c 0,0 0,478.33079 0,478.33079 142.874166,0.90045 345.40022,-107.16966 345.40014,-239.196175 0,-132.026537 -159.436816,-239.134595 -345.40014,-239.134615 z"
     id="path4685"
     sodipodi:nodetypes="cccc" /><path
     inkscape:connector-curvature="0"
     sodipodi:nodetypes="cccc"
     id="path4687"
     d="m -1559.2523,-150.68038 c 0,0 0,478.33079 0,478.33079 -142.8742,0.90045 -345.4002,-107.16966 -345.4002,-239.196175 0,-132.026537 159.4368,-239.134595 345.4002,-239.134615 z"
     style="opacity:0.40206185;color:#000000;fill:url(#radialGradient4693);fill-opacity:1;fill-rule:nonzero;stroke:none;stroke-width:1;marker:none;visibility:visible;display:inline;overflow:visible" /></g><g
   id="g4672"
   transform="translate(68.942911,-2.9168155)"><rect
     ry="1.9470588"
     rx="1.9470588"
     y="27.449707"
     x="10.297243"
     height="18.119614"
     width="29.256544"
     id="rect4658"
     style="fill:#dddddd;fill-opacity:1;stroke:none" /><g
     id="g4667"><g
       id="g4664"><rect
         ry="1.9313381"
         style="fill:none;stroke:#646464;stroke-width:0.99927008;stroke-miterlimit:4;stroke-opacity:1;stroke-dasharray:none"
         id="rect4660"
         width="29.020325"
         height="17.982044"
         x="10.510214"
         y="27.517153"
         rx="1.9313381" /></g><rect
       ry="1.0032353"
       style="fill:none;stroke:#f6f6f6;stroke-width:0.99249077;stroke-miterlimit:4;stroke-opacity:1;stroke-dasharray:none"
       id="rect4662"
       width="26.967867"
       height="16.005489"
       x="11.532422"
       y="28.489801"
       rx="1.0032353" /></g></g><path
   transform="matrix(1.0023678,0,0,0.95596394,68.883716,-0.0273148)"
   d="m 35,33 a 10,10 0 1 1 -20,0 10,10 0 1 1 20,0 z"
   sodipodi:ry="10"
   sodipodi:rx="10"
   sodipodi:cy="33"
   sodipodi:cx="25"
   id="path4679"
   style="fill:#b8b8b8;fill-opacity:1;fill-rule:evenodd;stroke:none"
   sodipodi:type="arc" /><path
   sodipodi:type="arc"
   style="fill:#b8b8b8;fill-opacity:1;fill-rule:evenodd;stroke:#646464;stroke-width:1px;stroke-linecap:butt;stroke-linejoin:miter;stroke-opacity:1"
   id="path3820"
   sodipodi:cx="25"
   sodipodi:cy="33"
   sodipodi:rx="10"
   sodipodi:ry="10"
   d="m 35,33 a 10,10 0 1 1 -20,0 10,10 0 1 1 20,0 z"
   transform="matrix(0.94933484,0,0,0.95596394,70.209541,-1.4857225)" /><path
   transform="matrix(0.6928006,0,0,0.69727163,76.6008,8.0344445)"
   d="m 35,33 a 10,10 0 1 1 -20,0 10,10 0 1 1 20,0 z"
   sodipodi:ry="10"
   sodipodi:rx="10"
   sodipodi:cy="33"
   sodipodi:cx="25"
   id="path4590"
   style="fill:#f4f4f4;fill-opacity:1;fill-rule:evenodd;stroke:none"
   sodipodi:type="arc" /><g
   id="g4644"
   transform="matrix(0.70710678,0.70710678,-0.70710678,0.70710678,99.594592,-10.924363)"><rect
     style="fill:#232323;fill-opacity:1;stroke:none"
     id="rect4646"
     width="0.68500972"
     height="1.1490486"
     x="24.638252"
     y="26.853086" /><rect
     y="37.990021"
     x="24.660349"
     height="1.1490486"
     width="0.68500972"
     id="rect4648"
     style="fill:#232323;fill-opacity:1;stroke:none" /></g><g
   id="g4600"
   style="fill:#a2a2a2;fill-opacity:1"
   transform="translate(69.009202,-2.3643883)"><rect
     style="fill:#a2a2a2;fill-opacity:1;stroke:none"
     id="rect4602"
     width="1"
     height="5.9375"
     x="40.742825"
     y="-1.6325631"
     transform="matrix(0.67898035,0.73415645,-0.73415645,0.67898035,0,0)" /><path
     sodipodi:type="arc"
     style="fill:#a2a2a2;fill-opacity:1;stroke:none"
     id="path4604"
     sodipodi:cx="25.03125"
     sodipodi:cy="33.03125"
     sodipodi:rx="1.03125"
     sodipodi:ry="0.96875"
     d="M 26.0625,33.03125 C 26.0625,33.566276 25.600794,34 25.03125,34 24.461706,34 24,33.566276 24,33.03125 c 0,-0.535026 0.461706,-0.96875 1.03125,-0.96875 0.569544,0 1.03125,0.433724 1.03125,0.96875 z"
     transform="matrix(0.95714504,0,0,1.0228099,1.028519,-0.77553647)" /></g><g
   id="g4596"
   transform="translate(68.942911,-2.9168155)"><rect
     transform="matrix(0.67898035,0.73415645,-0.73415645,0.67898035,0,0)"
     y="-1.6325631"
     x="40.742825"
     height="5.9375"
     width="1"
     id="rect4592"
     style="fill:#ff2121;fill-opacity:1;stroke:none" /><path
     transform="matrix(0.95714504,0,0,1.0228099,1.028519,-0.77553647)"
     d="M 26.0625,33.03125 C 26.0625,33.566276 25.600794,34 25.03125,34 24.461706,34 24,33.566276 24,33.03125 c 0,-0.535026 0.461706,-0.96875 1.03125,-0.96875 0.569544,0 1.03125,0.433724 1.03125,0.96875 z"
     sodipodi:ry="0.96875"
     sodipodi:rx="1.03125"
     sodipodi:cy="33.03125"
     sodipodi:cx="25.03125"
     id="path4594"
     style="fill:#ff2121;fill-opacity:1;stroke:none"
     sodipodi:type="arc" /></g><path
   sodipodi:type="arc"
   style="fill:none;stroke:#646464;stroke-width:1.37966764;stroke-linecap:butt;stroke-linejoin:miter;stroke-miterlimit:4;stroke-opacity:1;stroke-dasharray:none"
   id="path4608"
   sodipodi:cx="25"
   sodipodi:cy="33"
   sodipodi:rx="10"
   sodipodi:ry="10"
   d="m 35,33 a 10,10 0 1 1 -20,0 10,10 0 1 1 20,0 z"
   transform="matrix(0.74693846,0,0,0.74919978,75.258402,5.3595919)" /><g
   id="g4628"
   transform="translate(68.942911,-2.9168155)"><rect
     y="26.853086"
     x="24.638252"
     height="1.1490486"
     width="0.68500972"
     id="rect4624"
     style="fill:#232323;fill-opacity:1;stroke:none" /><rect
     style="fill:#232323;fill-opacity:1;stroke:none"
     id="rect4626"
     width="0.68500972"
     height="1.1490486"
     x="24.660349"
     y="37.990021" /></g><g
   id="g4632"
   transform="matrix(0,1,-1,0,126.93079,5.087457)"><rect
     style="fill:#232323;fill-opacity:1;stroke:none"
     id="rect4634"
     width="0.68500972"
     height="1.1490486"
     x="24.638252"
     y="26.853086" /><rect
     y="37.990021"
     x="24.660349"
     height="1.1490486"
     width="0.68500972"
     id="rect4636"
     style="fill:#232323;fill-opacity:1;stroke:none" /></g><rect
   style="fill:#232323;fill-opacity:1;stroke:none"
   id="rect4640"
   width="0.68500972"
   height="1.1490486"
   x="-45.50618"
   y="-93.834114"
   transform="matrix(-0.70710678,0.70710678,-0.70710678,-0.70710678,0,0)" /><rect
   y="-82.697182"
   x="-45.484081"
   height="1.1490486"
   width="0.68500972"
   id="rect4642"
   style="fill:#232323;fill-opacity:1;stroke:none"
   transform="matrix(-0.70710678,0.70710678,-0.70710678,-0.70710678,0,0)" /><g
   transform="matrix(1.2021267,0,0,0.11694557,63.863529,11.401153)"
   id="g4707"><rect
     ry="16.649275"
     rx="1.6196786"
     y="27.449707"
     x="10.297243"
     height="18.119614"
     width="29.256544"
     id="rect4709"
     style="fill:#d4d4d4;fill-opacity:1;stroke:none" /><g
     id="g4711"><g
       id="g4713"><rect
         ry="16.514845"
         style="fill:none;stroke:#646464;stroke-width:2.66511464;stroke-miterlimit:4;stroke-opacity:1;stroke-dasharray:none"
         id="rect4715"
         width="29.020325"
         height="17.982044"
         x="10.510214"
         y="27.517153"
         rx="1" /></g></g></g><g
   id="g4985"
   transform="translate(0,-11.125)"><g
     transform="matrix(0.01936185,0,0,0.01859457,41.505849,40.621203)"
     id="g4874"
     style="display:inline"><rect
       style="opacity:0.40206185;color:#000000;fill:url(#linearGradient4894);fill-opacity:1;fill-rule:nonzero;stroke:none;stroke-width:1;marker:none;visibility:visible;display:inline;overflow:visible"
       id="rect4876"
       width="1339.6335"
       height="478.35718"
       x="-1559.2523"
       y="-150.69685" /><path
       inkscape:connector-curvature="0"
       style="opacity:0.40206185;color:#000000;fill:url(#radialGradient4896);fill-opacity:1;fill-rule:nonzero;stroke:none;stroke-width:1;marker:none;visibility:visible;display:inline;overflow:visible"
       d="m -219.61876,-150.68038 c 0,0 0,478.33079 0,478.33079 142.874166,0.90045 345.40022,-107.16966 345.40014,-239.196175 0,-132.026537 -159.436816,-239.134595 -345.40014,-239.134615 z"
       id="path4878"
       sodipodi:nodetypes="cccc" /><path
       inkscape:connector-curvature="0"
       sodipodi:nodetypes="cccc"
       id="path4880"
       d="m -1559.2523,-150.68038 c 0,0 0,478.33079 0,478.33079 -142.8742,0.90045 -345.4002,-107.16966 -345.4002,-239.196175 0,-132.026537 159.4368,-239.134595 345.4002,-239.134615 z"
       style="opacity:0.40206185;color:#000000;fill:url(#radialGradient4898);fill-opacity:1;fill-rule:nonzero;stroke:none;stroke-width:1;marker:none;visibility:visible;display:inline;overflow:visible" /></g><g
     id="g4882"
     transform="translate(-0.96783034,-2.9168155)"><rect
       ry="1.9470588"
       rx="1.9470588"
       y="27.449707"
       x="10.297243"
       height="18.119614"
       width="29.256544"
       id="rect4884"
       style="fill:#eaeaea;fill-opacity:1;stroke:none" /><g
       id="g4886"><g
         id="g4888"><rect
           ry="1.9313381"
           style="fill:none;stroke:#646464;stroke-width:0.99927008;stroke-miterlimit:4;stroke-opacity:1;stroke-dasharray:none"
           id="rect4890"
           width="29.020325"
           height="17.982044"
           x="10.510214"
           y="27.517153"
           rx="1.9313381" /></g><rect
         ry="1.0032353"
         style="fill:none;stroke:#ffffff;stroke-width:0.99249077;stroke-miterlimit:4;stroke-opacity:1;stroke-dasharray:none"
         id="rect4892"
         width="26.967867"
         height="16.005489"
         x="11.532422"
         y="28.489801"
         rx="1.0032353" /></g></g><g
     transform="matrix(1,0,0,0.9039548,0,2.5932203)"
     id="g4922"><rect
       style="fill:#000000;fill-opacity:1;stroke:none"
       id="rect4900"
       width="1"
       height="11.0625"
       x="13.0625"
       y="27" /><rect
       y="27"
       x="15.0625"
       height="11.0625"
       width="1"
       id="rect4902"
       style="fill:#000000;fill-opacity:1;stroke:none" /><rect
       style="fill:#000000;fill-opacity:1;stroke:none"
       id="rect4904"
       width="1"
       height="11.0625"
       x="18"
       y="27" /><rect
       y="27"
       x="19.9375"
       height="11.0625"
       width="2"
       id="rect4906"
       style="fill:#000000;fill-opacity:1;stroke:none" /><rect
       y="27"
       x="22.9375"
       height="11.0625"
       width="1"
       id="rect4908"
       style="fill:#000000;fill-opacity:1;stroke:none" /><rect
       style="fill:#000000;fill-opacity:1;stroke:none"
       id="rect4910"
       width="2.0625"
       height="11.0625"
       x="25.9375"
       y="27" /><rect
       y="27"
       x="28.9375"
       height="11.0625"
       width="1.125"
       id="rect4912"
       style="fill:#000000;fill-opacity:1;stroke:none" /><rect
       style="fill:#000000;fill-opacity:1;stroke:none"
       id="rect4914"
       width="1.125"
       height="11.0625"
       x="30.9375"
       y="27" /><rect
       y="27"
       x="33.9375"
       height="11.0625"
       width="1.125"
       id="rect4916"
       style="fill:#000000;fill-opacity:1;stroke:none" /></g><text
     sodipodi:linespacing="125%"
     id="text4918"
     y="40.195068"
     x="12.981453"
     style="font-size:36.59571838px;font-style:normal;font-weight:normal;line-height:125%;letter-spacing:0px;word-spacing:0px;fill:#000000;fill-opacity:1;stroke:none;font-family:Sans"
     xml:space="preserve"><tspan
       style="font-size:3.65957189px;font-style:normal;font-variant:normal;font-weight:500;font-stretch:normal;font-family:Inconsolata;-inkscape-font-specification:Inconsolata Medium"
       y="40.195068"
       x="12.981453"
       id="tspan4920"
       sodipodi:role="line">5 92102431 8</tspan></text>
<rect
     y="31.0625"
     x="9.0625"
     height="1"
     width="30"
     id="rect4933"
     style="fill:#ff0000;fill-opacity:1;stroke:none" /><rect
     style="fill:#ff0000;fill-opacity:1;stroke:none;filter:url(#filter4971)"
     id="rect4957"
     width="30"
     height="1"
     x="9.0625"
     y="31.0625" /><path
     inkscape:connector-curvature="0"
     id="path4975"
     d="M 9.0625,32.0625 20,47.875 28.9375,47.9375 39,32.0625 z"
     style="opacity:0.29787233;fill:url(#linearGradient4983);fill-opacity:1;stroke:none" /></g></svg>