<svg width="70" height="70" viewBox="0 0 70 70" fill="none" xmlns="http://www.w3.org/2000/svg">
<path d="M39.3186 16.8621C43.1347 13.046 49.3218 13.046 53.1379 16.8621C56.954 20.6782 56.954 26.8653 53.1379 30.6814L30.6814 53.1379C26.8653 56.954 20.6782 56.954 16.8621 53.1379C13.046 49.3218 13.046 43.1347 16.8621 39.3186L39.3186 16.8621Z" fill="#FC868B"/>
<path d="M53.1379 39.3186C56.954 43.1347 56.954 49.3218 53.1379 53.1379C49.3218 56.954 43.1347 56.954 39.3185 53.1379L16.8621 30.6814C13.046 26.8653 13.046 20.6782 16.8621 16.8621C20.6782 13.046 26.8653 13.046 30.6815 16.8621L53.1379 39.3186Z" fill="#1AD3BB"/>
<path d="M35 21.1807L21.1807 35.0009L35 48.8203L48.8194 35L35 21.1807Z" fill="#1A6F66"/>
</svg>
