<svg width="50" height="50" viewBox="0 0 50 50" xmlns="http://www.w3.org/2000/svg"><path d="M29.319 6.862c3.816-3.816 10.003-3.816 13.819 0 3.816 3.816 3.816 10.003 0 13.82L20.68 43.137c-3.816 3.816-10.003 3.816-13.819 0-3.816-3.816-3.816-10.003 0-13.82L29.32 6.863Z" fill="var(--o-icons-red-pure, #FC787D)"/><path d="M29.319 6.862c3.816-3.816 10.003-3.816 13.819 0 3.816 3.816 3.816 10.003 0 13.82L20.68 43.137c-3.816 3.816-10.003 3.816-13.819 0-3.816-3.816-3.816-10.003 0-13.82L29.32 6.863Z" fill="url(#o_icon_repair__a)" fill-opacity=".2"/><path d="M43.138 29.319c3.816 3.816 3.816 10.003 0 13.819-3.816 3.816-10.003 3.816-13.82 0L6.863 20.68c-3.816-3.816-3.816-10.003 0-13.819 3.816-3.816 10.003-3.816 13.82 0L43.138 29.32Z" fill="var(--o-icons-teal-pure, #00CEB3)"/><path d="M43.138 29.319c3.816 3.816 3.816 10.003 0 13.819-3.816 3.816-10.003 3.816-13.82 0L6.863 20.68c-3.816-3.816-3.816-10.003 0-13.819 3.816-3.816 10.003-3.816 13.82 0L43.138 29.32Z" fill="url(#o_icon_repair__b)" fill-opacity=".2"/><path d="M25 11.18 11.18 25 25 38.82 38.82 25 25 11.18Z" fill="var(--o-icons-red-teal, #006158)"/><path d="M25 11.18 11.18 25 25 38.82 38.82 25 25 11.18Z" fill="url(#o_icon_repair__c)" fill-opacity=".2"/><defs><linearGradient id="o_icon_repair__a" x1="4" y1="4" x2="53.412" y2="16.353" gradientUnits="userSpaceOnUse"><stop stop-color="#fff"/><stop offset="1" stop-color="#fff" stop-opacity="0"/></linearGradient><linearGradient id="o_icon_repair__b" x1="4" y1="4" x2="53.412" y2="16.353" gradientUnits="userSpaceOnUse"><stop stop-color="#fff"/><stop offset="1" stop-color="#fff" stop-opacity="0"/></linearGradient><linearGradient id="o_icon_repair__c" x1="11.181" y1="11.181" x2="43.697" y2="19.309" gradientUnits="userSpaceOnUse"><stop stop-color="#fff"/><stop offset="1" stop-color="#fff" stop-opacity="0"/></linearGradient></defs></svg>
