<svg width="50" height="50" viewBox="0 0 50 50" xmlns="http://www.w3.org/2000/svg"><path fill-rule="evenodd" clip-rule="evenodd" d="M28.235 7.242a6.487 6.487 0 0 0-7.242 2.823l-3.884 6.252a2.418 2.418 0 0 0-.198 2.159l10.002 25.523 17.025-6.636a3.228 3.228 0 0 0 1.839-4.185l-8.823-22.515a2.427 2.427 0 0 0-1.613-1.452l-7.106-1.969Zm-1.092 7.865a1.787 1.787 0 0 0 1.017-2.317 1.795 1.795 0 0 0-2.323-1.015 1.787 1.787 0 0 0-1.017 2.317c.36.92 1.4 1.374 2.323 1.015Z" fill="#2EBCFA"/><path fill-rule="evenodd" clip-rule="evenodd" d="M32.423 10.924a6.482 6.482 0 0 0-6.734-3.877l-7.322.88a2.43 2.43 0 0 0-1.814 1.194L4.435 30.055a3.226 3.226 0 0 0 1.185 4.413l15.831 9.115L35.19 19.852c.382-.66.43-1.462.13-2.163l-2.897-6.764Zm-6.84 4.062c.857.493 1.954.2 2.45-.655a1.786 1.786 0 0 0-.657-2.443 1.796 1.796 0 0 0-2.45.655 1.786 1.786 0 0 0 .657 2.443Z" fill="#985184"/><path fill-rule="evenodd" clip-rule="evenodd" d="M27.78 7.134a6.476 6.476 0 0 1 4.643 3.789l2.897 6.764c.3.701.252 1.503-.13 2.163L24.61 38.124l-7.7-19.649a2.418 2.418 0 0 1 .198-2.158l3.885-6.252a6.487 6.487 0 0 1 6.788-2.931Zm-2.027 7.937a1.786 1.786 0 0 1-.827-2.53 1.796 1.796 0 0 1 2.322-.721 1.787 1.787 0 0 1-.105 3.287 1.792 1.792 0 0 1-1.39-.036Z" fill="#144496"/></svg>
