<svg width="50" height="50" xmlns="http://www.w3.org/2000/svg"><path fill-rule="evenodd" clip-rule="evenodd" d="M28.236 7.243a6.487 6.487 0 0 0-7.242 2.822l-3.885 6.253a2.418 2.418 0 0 0-.197 2.158L26.914 44l17.025-6.636a3.228 3.228 0 0 0 1.838-4.186l-8.822-22.514a2.427 2.427 0 0 0-1.613-1.453l-7.106-1.968Zm-1.092 7.864a1.787 1.787 0 0 0 1.017-2.316 1.795 1.795 0 0 0-2.323-1.015 1.787 1.787 0 0 0-1.017 2.317c.36.92 1.4 1.374 2.323 1.014Z" fill="var(--o-icons-cyan-pure, #1BB6F9)"/><path fill-rule="evenodd" clip-rule="evenodd" d="M28.236 7.243a6.487 6.487 0 0 0-7.242 2.822l-3.885 6.253a2.418 2.418 0 0 0-.197 2.158L26.914 44l17.025-6.636a3.228 3.228 0 0 0 1.838-4.186l-8.822-22.514a2.427 2.427 0 0 0-1.613-1.453l-7.106-1.968Zm-1.092 7.864a1.787 1.787 0 0 0 1.017-2.316 1.795 1.795 0 0 0-2.323-1.015 1.787 1.787 0 0 0-1.017 2.317c.36.92 1.4 1.374 2.323 1.014Z" fill="url(#o_icon_product__a)" fill-opacity=".2"/><path fill-rule="evenodd" clip-rule="evenodd" d="M32.423 10.924a6.482 6.482 0 0 0-6.734-3.878l-7.322.88a2.43 2.43 0 0 0-1.814 1.194L4.435 30.055a3.226 3.226 0 0 0 1.185 4.413l15.831 9.115L35.19 19.851c.382-.66.43-1.462.13-2.163l-2.897-6.764Zm-6.84 4.061a1.797 1.797 0 0 0 2.45-.654 1.786 1.786 0 0 0-.657-2.443 1.796 1.796 0 0 0-2.45.654 1.786 1.786 0 0 0 .657 2.443Z" fill="var(--o-icons-purple-pure, #93407D)"/><path fill-rule="evenodd" clip-rule="evenodd" d="M32.423 10.924a6.482 6.482 0 0 0-6.734-3.878l-7.322.88a2.43 2.43 0 0 0-1.814 1.194L4.435 30.055a3.226 3.226 0 0 0 1.185 4.413l15.831 9.115L35.19 19.851c.382-.66.43-1.462.13-2.163l-2.897-6.764Zm-6.84 4.061a1.797 1.797 0 0 0 2.45-.654 1.786 1.786 0 0 0-.657-2.443 1.796 1.796 0 0 0-2.45.654 1.786 1.786 0 0 0 .657 2.443Z" fill="url(#o_icon_product__b)" fill-opacity=".2"/><path fill-rule="evenodd" clip-rule="evenodd" d="M27.781 7.134a6.476 6.476 0 0 1 4.642 3.79l2.898 6.764c.3.701.252 1.503-.13 2.163L24.61 38.125l-7.7-19.649a2.418 2.418 0 0 1 .198-2.158l3.885-6.253a6.487 6.487 0 0 1 6.787-2.93Zm-2.028 7.938a1.791 1.791 0 0 1-.826-2.53 1.796 1.796 0 0 1 2.321-.721 1.787 1.787 0 0 1-.105 3.287 1.792 1.792 0 0 1-1.39-.036Z" fill="var(--o-icons-purple-cyan, #102E7A)"/><path fill-rule="evenodd" clip-rule="evenodd" d="M27.781 7.134a6.476 6.476 0 0 1 4.642 3.79l2.898 6.764c.3.701.252 1.503-.13 2.163L24.61 38.125l-7.7-19.649a2.418 2.418 0 0 1 .198-2.158l3.885-6.253a6.487 6.487 0 0 1 6.787-2.93Zm-2.028 7.938a1.791 1.791 0 0 1-.826-2.53 1.796 1.796 0 0 1 2.321-.721 1.787 1.787 0 0 1-.105 3.287 1.792 1.792 0 0 1-1.39-.036Z" fill="url(#o_icon_product__c)" fill-opacity=".3"/><defs><linearGradient id="o_icon_product__a" x1="16.745" y1="7.007" x2="51.939" y2="13.965" gradientUnits="userSpaceOnUse"><stop stop-color="#fff"/><stop offset="1" stop-color="#fff" stop-opacity="0"/></linearGradient><linearGradient id="o_icon_product__b" x1="4" y1="7" x2="41.648" y2="15.108" gradientUnits="userSpaceOnUse"><stop stop-color="#fff"/><stop offset="1" stop-color="#fff" stop-opacity="0"/></linearGradient><linearGradient id="o_icon_product__c" x1="16.745" y1="7.007" x2="39.687" y2="10.466" gradientUnits="userSpaceOnUse"><stop stop-color="#fff"/><stop offset="1" stop-color="#fff" stop-opacity="0"/></linearGradient></defs></svg>
