<svg width="36" height="36" viewBox="0 0 36 36" fill="none" xmlns="http://www.w3.org/2000/svg">
<g clip-path="url(#clip0_32_1689)">
<path d="M10.4999 17.9999C10.5002 16.5303 10.9349 15.0936 11.7494 13.8704L4.26741 6.38843C1.51255 9.63015 0 13.7458 0 17.9999C0 22.2541 1.51255 26.3697 4.26741 29.6114L11.7494 22.1294C10.9349 20.9062 10.5002 19.4695 10.4999 17.9999Z" fill="white"/>
<path d="M31.7325 6.38843L24.2505 13.8704C25.0652 15.0935 25.4999 16.5303 25.4999 17.9999C25.4999 19.4695 25.0652 20.9063 24.2505 22.1294L31.7325 29.6114C34.4873 26.3697 35.9999 22.2541 35.9999 17.9999C35.9999 13.7458 34.4873 9.63015 31.7325 6.38843Z" fill="white"/>
<path d="M17.9999 25.5C16.5303 25.4997 15.0936 25.065 13.8704 24.2505L6.38843 31.7325C9.63015 34.4873 13.7458 35.9999 17.9999 35.9999C22.2541 35.9999 26.3697 34.4873 29.6114 31.7325L22.1294 24.2505C20.9062 25.065 19.4695 25.4997 17.9999 25.5Z" fill="white"/>
<path d="M17.9999 10.4999C19.4695 10.5002 20.9062 10.9349 22.1294 11.7494L29.6114 4.26741C26.3697 1.51255 22.2541 0 17.9999 0C13.7458 0 9.63015 1.51255 6.38843 4.26741L13.8704 11.7494C15.0936 10.9349 16.5303 10.5002 17.9999 10.4999Z" fill="white"/>
</g>
<defs>
<clipPath id="clip0_32_1689">
<rect width="36" height="36" fill="white"/>
</clipPath>
</defs>
</svg>
