<svg xmlns="http://www.w3.org/2000/svg" viewBox="0 0 100 100"><path d="M46.72,31.76a14.17,14.17,0,0,0-18.9,9.65A12.86,12.86,0,0,0,20.65,53c0,.28,0,.57,0,.85a12.39,12.39,0,0,0,8.86,11c1.21-1.2,2.35-2.35,3.45-3.45a8.5,8.5,0,0,1-8.32-7.77,5.82,5.82,0,0,1,0-.59,8.9,8.9,0,0,1,5.65-8.31,2,2,0,0,0,1.23-1.5,10.18,10.18,0,0,1,15.17-7,2,2,0,0,0,1.71.15,2,2,0,0,0,1.19-1.22,9.66,9.66,0,0,1,10.27-6.44,9.38,9.38,0,0,1,4.24,1.56L67,27.37a13.64,13.64,0,0,0-20.25,4.39Z" style="fill:#7c6576"/><path d="M67.75,41.8a2,2,0,0,0,.06,1.6,2,2,0,0,0,1.22,1A8.88,8.88,0,0,1,75.35,53a9,9,0,0,1-1.23,3.88,8.64,8.64,0,0,1-7.64,4.52H44.28l-4,4,26.2,0h0a12.63,12.63,0,0,0,11.16-6.63A12.93,12.93,0,0,0,79.35,53a12.86,12.86,0,0,0-7.28-11.64,13.59,13.59,0,0,0,.14-5.43,13.22,13.22,0,0,0-.5-2L68.35,37.3A9.64,9.64,0,0,1,67.75,41.8Z" style="fill:#7c6576"/><path d="M81.57,24.08l-2.84,2.85a36.84,36.84,0,0,1-51.8,51.8l-2.85,2.84A40.84,40.84,0,0,0,81.57,24.08Z" style="fill:#7c6576"/><path d="M13.13,50A36.84,36.84,0,0,1,73.07,21.27l2.85-2.84A40.84,40.84,0,0,0,18.43,75.92l2.84-2.85A36.71,36.71,0,0,1,13.13,50Z" style="fill:#7c6576"/><path d="M84.18,15.82a2,2,0,0,0-2.83,0L58.12,39.05l0,.05L15.82,81.35a2,2,0,0,0,1.42,3.41,2,2,0,0,0,1.41-.58L60.87,42l0-.05L84.18,18.65A2,2,0,0,0,84.18,15.82Z" style="fill:#7c6576"/></svg>