<svg xmlns="http://www.w3.org/2000/svg" viewBox="0 0 100 100"><path d="M38.19,73.83l-3.81,2.84V59.51a1.5,1.5,0,0,0-3,0V76.67l-3.81-2.84a1.5,1.5,0,0,0-1.79,2.41L32,80.86h0l.14.09.11.05.12,0,.09,0h0l.09,0a1.66,1.66,0,0,0,.32,0h0a1.66,1.66,0,0,0,.32,0l.09,0h0l.08,0,.13,0,.1-.05.15-.09s0,0,0,0L40,76.24a1.5,1.5,0,0,0-1.8-2.41Z" style="fill:#7c6576"/><path d="M57.21,73.83l-3.82,2.84V59.51a1.5,1.5,0,0,0-3,0V76.67l-3.81-2.84a1.5,1.5,0,0,0-1.79,2.41L51,80.86h0l.14.09.11.05.12,0,.09,0h0l.09,0a1.66,1.66,0,0,0,.32,0h0a1.73,1.73,0,0,0,.32,0l.08,0h0l.08,0,.13,0,.1-.05.15-.09s0,0,0,0L59,76.24a1.5,1.5,0,1,0-1.79-2.41Z" style="fill:#7c6576"/><rect x="50.49" y="38.2" width="3" height="11.51" style="fill:#7c6576"/><path d="M74.21,40A14.29,14.29,0,0,0,75,32.28,14.41,14.41,0,0,0,47.18,30,15,15,0,0,0,24.76,40.37a13.52,13.52,0,0,0-8.53,12.55h0c0,.3,0,.59,0,.89A13,13,0,0,0,29.38,65.73V59.51a3.5,3.5,0,1,1,7,0v6.23h12V59.51a3.5,3.5,0,0,1,7,0v6.23h12V59.51a3.5,3.5,0,1,1,7,0v5.62a13.06,13.06,0,0,0,9.34-11.37q0-.43,0-.84h0A13.5,13.5,0,0,0,74.21,40ZM43,49.71a1.5,1.5,0,0,1,0,3H40a1.5,1.5,0,0,1-1.5-1.5V36.7A1.5,1.5,0,0,1,40,35.2h3a1.5,1.5,0,0,1,0,3h-1.5V49.71Zm13.52,1.5a1.5,1.5,0,0,1-1.5,1.5H49a1.5,1.5,0,0,1-1.5-1.5V36.7A1.5,1.5,0,0,1,49,35.2h6a1.5,1.5,0,0,1,1.5,1.5ZM64,52.71H61a1.5,1.5,0,0,1-1.5-1.5h0v-5s0,0,0,0v0a1.5,1.5,0,0,1,1.5-1.5h1.48v-2H61a1.5,1.5,0,1,1,0-3h3a1.5,1.5,0,0,1,1.5,1.5v5a1.5,1.5,0,0,1-1.5,1.5H62.51v2H64a1.5,1.5,0,0,1,0,3Z" style="fill:#7c6576"/><path d="M76.22,73.83,72.4,76.67V59.51a1.5,1.5,0,1,0-3,0V76.67l-3.81-2.84a1.5,1.5,0,1,0-1.79,2.41L70,80.86h0l.15.09a.31.31,0,0,0,.1.05l.12,0,.09,0h0l.08,0a1.73,1.73,0,0,0,.32,0h0a1.73,1.73,0,0,0,.32,0l.08,0h0l.09,0,.12,0,.1-.05.15-.09h0L78,76.24a1.5,1.5,0,0,0-1.79-2.41Z" style="fill:#7c6576"/></svg>