<svg xmlns="http://www.w3.org/2000/svg" viewBox="0 0 100 100"><path d="M61.32,85.17A36.61,36.61,0,0,1,22.07,74.1a35.76,35.76,0,0,1-5.51-39.41A38.76,38.76,0,0,1,29,19.79L27.51,27a2,2,0,0,0,1.55,2.37l.16,0a2,2,0,0,0,2.21-1.57L33.8,16.48a2,2,0,0,0-1.33-2.82l-.11,0-.27,0-11.5-2.42a2,2,0,0,0-.83,3.92l6.92,1.45A42.9,42.9,0,0,0,13,33a39.7,39.7,0,0,0,6.1,43.77A40.63,40.63,0,0,0,49.85,91a41.5,41.5,0,0,0,12.69-2,2,2,0,1,0-1.22-3.81Z" style="fill:#7c6576"/><path d="M79.85,21.77A40,40,0,0,0,43.33,9.7a2,2,0,0,0-1.61,1.75l0,.09L38.14,42s0,.07,0,.1a4.58,4.58,0,0,0,1.25,3.46A4.83,4.83,0,0,0,42.9,47H45a.82.82,0,0,1,.6.25.62.62,0,0,1,.18.47L44.27,74a2,2,0,0,0,1.45,2,2.09,2.09,0,0,0,.55.08A2,2,0,0,0,48,75.1L65.18,43.44a4.56,4.56,0,0,0-.1-4.55A4.74,4.74,0,0,0,61,36.56H59.18a.77.77,0,0,1-.67-.34.54.54,0,0,1-.08-.5L67,17A37,37,0,0,1,85.93,58.88a37.53,37.53,0,0,1-10.1,17.56l.61-7.61a2,2,0,0,0-1.83-2.15,2,2,0,0,0-2.16,1.83l-.94,11.72a1.17,1.17,0,0,0-.05.27,2,2,0,0,0,1.85,2.18h.28l11.71.95h.17a2,2,0,0,0,.16-4l-6.78-.55a41.45,41.45,0,0,0,11-19.25A40.88,40.88,0,0,0,79.85,21.77Z" style="fill:#7c6576"/></svg>