<svg xmlns="http://www.w3.org/2000/svg" viewBox="0 0 100 100"><path d="M72.71,90.34H27.29a7,7,0,0,1-7-7V16.62a7,7,0,0,1,7-7h30a6.94,6.94,0,0,1,4.87,2L77.59,26.8a7,7,0,0,1,2.08,5V83.38A7,7,0,0,1,72.71,90.34Z" style="fill:none;stroke:#7c6576;stroke-linecap:round;stroke-linejoin:round;stroke-width:4px"/><path d="M77.19,27.32c-4.11,0-8.22-.05-12.33,0A4.32,4.32,0,0,1,62.21,27a1.8,1.8,0,0,1-.77-1.55c0-3.59,0-7.18,0-10.76v-4c0-2.57-4-2.57-4,0V21.16c0,1.44,0,2.89,0,4.33a6,6,0,0,0,6.21,5.83H77.19c2.56,0,2.57-4,0-4Z" style="fill:#7c6576"/><path d="M47.48,41.59c13.5-2.26,23,14.08,14.4,24.71" style="fill:none;stroke:#7c6576;stroke-linecap:round;stroke-linejoin:round;stroke-width:4px"/><path d="M54.65,71.25c-15.14,4.83-26.54-14.4-15.29-25.52" style="fill:none;stroke:#7c6576;stroke-linecap:round;stroke-linejoin:round;stroke-width:4px"/><path d="M48.77,43l4.53-4.54a2,2,0,0,0-1.41-3.4,2.06,2.06,0,0,0-1.41.58L46,40.17a2,2,0,0,0,1.41,3.41A2.12,2.12,0,0,0,48.77,43Z" style="fill:#7c6576"/><path d="M46.07,43l4.53,4.54a2.06,2.06,0,0,0,1.41.58,2,2,0,0,0,1.41-.58A2,2,0,0,0,54,46.08a2.07,2.07,0,0,0-.59-1.41l-4.53-4.54a2.08,2.08,0,0,0-1.41-.58,2,2,0,0,0-1.41.58,2,2,0,0,0,0,2.82Z" style="fill:#7c6576"/><path d="M53.22,69.85l-4.54,4.53a2,2,0,0,0,0,2.82,2,2,0,0,0,1.41.59,2.07,2.07,0,0,0,1.41-.59L56,72.67a2.06,2.06,0,0,0,.58-1.41A2,2,0,0,0,56,69.85a2,2,0,0,0-1.41-.59,2.07,2.07,0,0,0-1.41.59Z" style="fill:#7c6576"/><path d="M55.92,69.89l-4.54-4.54A2.05,2.05,0,0,0,50,64.76a2,2,0,0,0-1.41.59A2,2,0,0,0,48,66.76a2.06,2.06,0,0,0,.58,1.41l4.54,4.54a2,2,0,0,0,2.82,0,2,2,0,0,0,.59-1.41,2.12,2.12,0,0,0-.59-1.41Z" style="fill:#7c6576"/></svg>