<svg xmlns="http://www.w3.org/2000/svg" viewBox="0 0 100 100"><path d="M55.13,37c10,7.15,5.69,23.6-6.57,24.89" style="fill:none;stroke:#7c6576;stroke-linecap:round;stroke-linejoin:round;stroke-width:4px"/><path d="M40.82,60.41c-12.71-6.57-7.73-26.06,6.51-26" style="fill:none;stroke:#7c6576;stroke-linecap:round;stroke-linejoin:round;stroke-width:4px"/><path d="M55.05,38.88h5.78a2,2,0,0,0,0-4H55.05a2,2,0,0,0-2,2,2,2,0,0,0,2,2Z" style="fill:#7c6576"/><path d="M53.16,36.93v5.78a2,2,0,0,0,4,0V36.93a2,2,0,0,0-4,0Z" style="fill:#7c6576"/><path d="M40.8,58.4H35a2,2,0,0,0,0,4H40.8a2,2,0,0,0,0-4Z" style="fill:#7c6576"/><path d="M42.69,60.34V54.57a2,2,0,0,0-4,0v5.77a2,2,0,1,0,4,0Z" style="fill:#7c6576"/><path d="M77,23.08V78.32c0,4.86-3.67,8.79-8.19,8.79H24.78" style="fill:none;stroke:#7c6576;stroke-linecap:round;stroke-linejoin:round;stroke-width:4px"/><path d="M77.07,23.08c0-5.5,2.17-10,4.84-10" style="fill:none;stroke:#7c6576;stroke-linecap:round;stroke-linejoin:round;stroke-width:4px"/><path d="M18.74,70.56V23.08c0-5.63,4.26-10.19,9.51-10.19H81.74" style="fill:none;stroke:#7c6576;stroke-linecap:round;stroke-linejoin:round;stroke-width:4px"/><path d="M68.1,87.2H17.19c-4.69,0-8.49-3.54-8.49-7.91V73.22H60.19v6C60.19,84.55,63,87.2,68.1,87.2Z" style="fill:none;stroke:#7c6576;stroke-linecap:round;stroke-linejoin:round;stroke-width:4px"/><path d="M83.37,12.94c3.9,0,7.06,4,7.06,8.91v6.84h-13" style="fill:none;stroke:#7c6576;stroke-linecap:round;stroke-linejoin:round;stroke-width:4px"/></svg>