<svg xmlns="http://www.w3.org/2000/svg" viewBox="0 0 100 100"><path d="M68.1,81.2a8.31,8.31,0,0,1-.91,0,2.21,2.21,0,0,1-.73-.2,3.35,3.35,0,0,1-.27-1.72v-6a6,6,0,0,0-6-6H20.74v4l10,0,.31,0H60.19a2,2,0,0,1,2,2v6c0,3.6,1.39,5.46,4.46,5.88h2.19a5.84,5.84,0,0,0,4-1.6A6,6,0,0,0,68.1,81.2Z" style="fill:none"/><path d="M79,23.48a1.75,1.75,0,0,0,0-.4c0-4.86,1.87-8,2.84-8a2,2,0,0,0,.91-.23l.05,0a2,2,0,0,0-.46-3.68,2,2,0,0,0-.5-.07c-2,0-3.82,1.43-5,3.77a17.63,17.63,0,0,0-1.78,7.76,2,2,0,0,0,0,.43v7.61h4V23.48Z" style="fill:none"/><path d="M84.42,11a1.91,1.91,0,0,0-.68-.13H28.25c-6.34,0-11.51,5.47-11.51,12.19V67.22H60.19a6,6,0,0,1,6,6v6A3.35,3.35,0,0,0,66.46,81a2.21,2.21,0,0,0,.73.2,8.31,8.31,0,0,0,.91,0,6,6,0,0,1,6,6c0,.12,0,.24,0,.36a10.9,10.9,0,0,0,5-9.24V30.69H75V23.08a2,2,0,0,1,0-.43,17.63,17.63,0,0,1,1.78-7.76c1.23-2.34,3-3.77,5-3.77a2,2,0,0,1,2,2,2,2,0,0,1-1,1.75l-.05,0a2,2,0,0,1-.91.23c-1,0-2.84,3.1-2.84,8a1.75,1.75,0,0,1,0,.4v7.21h11.4a2,2,0,0,0,2-2V21.85C92.43,16.26,88.92,11.65,84.42,11ZM44.6,57.32a2,2,0,0,1-1.78,1.08H37a2,2,0,0,1,0-4h.07A15.31,15.31,0,0,1,34,40.54,15.58,15.58,0,0,1,49.34,28.43a2,2,0,0,1,0,4h-.09a11.5,11.5,0,0,0-11.35,9.06A11.57,11.57,0,0,0,40.7,52.42V50.57a2,2,0,0,1,2-2,2,2,0,0,1,2,2v5.15A2,2,0,0,1,44.6,57.32Zm19.54-9.21A15.55,15.55,0,0,1,50.78,59.85h-.22a2,2,0,0,1-.2-4,11.47,11.47,0,0,0,9.91-8.78A12,12,0,0,0,59.15,38v.66a2,2,0,1,1-4,0V33.42a2.35,2.35,0,0,1-.1-.54,2,2,0,0,1,2-2h5.78a2,2,0,0,1,0,4h-1A15.77,15.77,0,0,1,64.14,48.11Z" style="fill:#7c6576"/><polygon points="31.01 71.22 30.7 71.19 20.74 71.21 20.74 71.22 31.01 71.22" style="fill:#7c6576"/><path d="M68.1,85.2a11,11,0,0,1-1.45-.09c-3.07-.42-4.46-2.28-4.46-5.88v-6a2,2,0,0,0-2-2H8.7a2,2,0,0,0-2,2v6.07c0,5.47,4.7,9.91,10.49,9.91L45,89.12H68.67a2,2,0,0,0-.57-3.91Z" style="fill:#7c6576"/></svg>