<svg xmlns="http://www.w3.org/2000/svg" viewBox="0 0 100 100"><path d="M62,87C29.67,97.3.27,64.08,14.79,33.77A40.09,40.09,0,0,1,32.05,15.54" style="fill:none;stroke:#7c6576;stroke-linecap:round;stroke-linejoin:round;stroke-width:4px"/><path d="M43.73,11.61C71.08,6.52,94.73,32,87.91,59.3a39.32,39.32,0,0,1-12.3,20.06" style="fill:none;stroke:#7c6576;stroke-linecap:round;stroke-linejoin:round;stroke-width:4px"/><path d="M85.66,79.58l-10-.81.81-10a2,2,0,1,0-4-.33l-.95,11.72a2.56,2.56,0,0,0-.05.27A2,2,0,0,0,72,81.91a1.94,1.94,0,0,0,1.37.71h.28l11.71.95h.16a2,2,0,0,0,.16-4Z" style="fill:#7c6576"/><path d="M33.44,14.15a2,2,0,0,0-1-.59,2.48,2.48,0,0,0-.27,0L20.62,11.11A2,2,0,0,0,19.8,15l9.81,2.06-2.06,9.82a2,2,0,0,0,1.54,2.36l.17,0a2,2,0,0,0,2.2-1.57l2.42-11.49A2.29,2.29,0,0,0,34,16a1.74,1.74,0,0,0,0-.39A5.15,5.15,0,0,1,33.44,14.15Z" style="fill:#7c6576"/><path d="M28.56,64.29c-3,3.4-5.88,6.91-8.61,10.58a2,2,0,0,0,.41,2.8,2,2,0,0,0,1.19.39,2,2,0,0,0,1.61-.8c2.55-3.43,5.24-6.72,8-9.92L31,67.18A22.39,22.39,0,0,1,28.56,64.29Z" style="fill:#7c6576"/><path d="M73.86,34.14c-2-3.45-7.26-3.66-17.62-4.08-1.63-.06-3.38-.13-5.26-.22-14.23-.66-24.75,7.64-26.21,20.65a20.15,20.15,0,0,0,3.79,13.8q3-3.39,6.14-6.64v0l.95-11.71a2,2,0,0,1,4,.32l-.58,7.11c2-1.86,3.94-3.69,6-5.48l1-7.56a2,2,0,1,1,4,.52l-.42,3.25c1.73-1.41,3.49-2.8,5.31-4.17a2,2,0,1,1,2.41,3.19c-1.8,1.36-3.56,2.75-5.28,4.15l3.24.42a2,2,0,0,1-.26,4h-.27l-6.88-.91c-2.16,1.87-4.23,3.79-6.27,5.73l7.23.59a2,2,0,0,1-.16,4H48.5l-10.67-.86c-2.29,2.33-4.49,4.72-6.63,7.17a20.07,20.07,0,0,0,13.91,5.87,17.19,17.19,0,0,0,2.27-.14C59.55,71.54,63.9,62.64,68.51,53.22l.79-1.62C74.08,41.91,75.76,37.34,73.86,34.14Z" style="fill:#7c6576"/></svg>