<svg xmlns="http://www.w3.org/2000/svg" viewBox="0 0 100 100"><path d="M34,22.54a40,40,0,0,0,9.25,1.18h.11c.5,0,1-.07,1.54-.06a47.33,47.33,0,0,0,5.9-.86,46.77,46.77,0,0,0,6.54-1.94c.4-1,1.58-2.91,4.62-6.47,1.94-2.26,2.92-3.4,1.85-4.87a2.21,2.21,0,0,0-2.88-.61l-.36.15C54.26,11.65,51.09,13,45.45,7.55,40.38,2.69,27.64,9,25.14,10.29a2,2,0,0,0,.93,3.78h.19c3.26,0,5.41,2.07,6.37,6.14a9.2,9.2,0,0,0,.87,2.29A2.21,2.21,0,0,1,34,22.54Z" style="fill:#7c6576"/><path d="M86.9,77.75c-4.06-3.94-5.17-9.75-6.33-15.89-.47-2.45-.95-5-1.63-7.41-3.12-11.06-9.63-20.87-19.87-30a47.76,47.76,0,0,1-13.62,3.14l-.11,0A8.4,8.4,0,0,0,47.83,34a2,2,0,0,1,0,2.83,2,2,0,0,1-1.39.56A2,2,0,0,1,45,36.78a12.25,12.25,0,0,1-3.62-9.11A45.74,45.74,0,0,1,34,26.62c-8.27,8.47-14.25,15.53-16.86,29-.07.35-.16.88-.28,1.54-.62,3.54-2.26,12.94-4.29,16.2-5.22,8.4-6.64,13.15-4.73,15.88s6,1.91,9,1.29a17.59,17.59,0,0,1,2.26-.38h0c2.94,1,21.32,4.16,36.38,4.16,5.67,0,10.88-.46,14.6-1.66C74.7,91.14,79.7,91.1,84,91.25c3.41.12,7.49-.1,8.7-2.94S91.27,82,86.9,77.75Zm-44.16-.84A2,2,0,0,1,41,78H35.17a2,2,0,0,1-2-2,2,2,0,0,1,2-2h.06a15.28,15.28,0,0,1-3.08-13.86A15.57,15.57,0,0,1,47.38,48h.11a2,2,0,0,1,0,4h-.1a11.91,11.91,0,0,0-8.53,20V70.16a2,2,0,1,1,4,0v5.15A2,2,0,0,1,42.74,76.91ZM62.28,67.7A15.52,15.52,0,0,1,48.92,79.44h-.21a2,2,0,0,1-.21-4,11.46,11.46,0,0,0,9.91-8.78,12,12,0,0,0-1.11-9.05v.66a2,2,0,0,1-2,2,2,2,0,0,1-2-2V53a1.92,1.92,0,0,1-.11-.54,2,2,0,0,1,2-2H61a2,2,0,0,1,2,2,2,2,0,0,1-2,2H60A15.77,15.77,0,0,1,62.28,67.7Z" style="fill:#7c6576"/><path d="M57.19,21.81a2,2,0,0,1,.59,1.62,1.66,1.66,0,0,1,.39.26l.9.8a27.46,27.46,0,0,0,7.25-4,2,2,0,0,0-2.55-3.08,23.38,23.38,0,0,1-6.42,3.43A1.53,1.53,0,0,0,57.19,21.81Z" style="fill:#7c6576"/></svg>