<svg xmlns="http://www.w3.org/2000/svg" viewBox="0 0 100 100"><path d="M61.93,87.08C29.63,97.36.24,64.14,14.75,33.83A40.15,40.15,0,0,1,32,15.6" style="fill:none;stroke:#7c6576;stroke-linecap:round;stroke-linejoin:round;stroke-width:4px"/><path d="M43.69,11.67C71.05,6.58,94.69,32,87.87,59.36a39.29,39.29,0,0,1-12.3,20.06" style="fill:none;stroke:#7c6576;stroke-linecap:round;stroke-linejoin:round;stroke-width:4px"/><path d="M85.63,79.64l-10-.81.81-10a2,2,0,0,0-1.83-2.15,2,2,0,0,0-2.16,1.83l-.94,11.72a1.17,1.17,0,0,0-.05.27,2,2,0,0,0,1.85,2.18h.28l11.71.95h.17a2,2,0,0,0,.16-4Z" style="fill:#7c6576"/><path d="M33.4,14.21a2,2,0,0,0-1-.59l-.27,0-11.5-2.42a2,2,0,0,0-.83,3.92l9.82,2.06L27.51,27a2,2,0,0,0,1.55,2.37l.16,0a2,2,0,0,0,2.21-1.57l2.41-11.5a1.07,1.07,0,0,0,.09-.27,1.75,1.75,0,0,0,0-.4A5,5,0,0,1,33.4,14.21Z" style="fill:#7c6576"/><polygon points="58.9 66.98 41.1 66.98 38.1 38.94 61.9 38.94 58.9 66.98" style="fill:none;stroke:#7c6576;stroke-linecap:round;stroke-linejoin:round;stroke-width:4px"/><line x1="32.88" y1="42.81" x2="67.12" y2="42.81" style="fill:none;stroke:#7c6576;stroke-linecap:round;stroke-linejoin:round;stroke-width:4px"/><line x1="46.09" y1="39.79" x2="47.09" y2="66.71" style="fill:none;stroke:#7c6576;stroke-linecap:round;stroke-linejoin:round;stroke-width:4px"/><line x1="54" y1="39.79" x2="53" y2="66.71" style="fill:none;stroke:#7c6576;stroke-linecap:round;stroke-linejoin:round;stroke-width:4px"/><line x1="44.52" y1="33.02" x2="55.45" y2="33.02" style="fill:none;stroke:#7c6576;stroke-linecap:round;stroke-linejoin:round;stroke-width:4px"/><line x1="44.51" y1="33.19" x2="44.51" y2="38.15" style="fill:none;stroke:#7c6576;stroke-linecap:round;stroke-linejoin:round;stroke-width:4px"/><line x1="55.49" y1="33.19" x2="55.49" y2="38.15" style="fill:none;stroke:#7c6576;stroke-linecap:round;stroke-linejoin:round;stroke-width:4px"/></svg>