<svg xmlns="http://www.w3.org/2000/svg" viewBox="0 0 100 100"><path d="M48,70.35a1.7,1.7,0,1,0,1.7-1.69A1.7,1.7,0,0,0,48,70.35Z" style="fill:none"/><path d="M26.41,62.68A7.68,7.68,0,1,0,31.2,76.34a2,2,0,0,1,.2-.22l.66-.6a7.66,7.66,0,0,0-5.65-12.84Zm0,13.37a5.7,5.7,0,1,1,5.69-5.7A5.7,5.7,0,0,1,26.41,76.05Z" style="fill:none"/><path d="M38,69.52a10.9,10.9,0,0,1,.41-2.36l-.66.59A13,13,0,0,1,38,69.52Z" style="fill:none"/><path d="M26.41,68.66a1.7,1.7,0,1,0,1.69,1.69A1.7,1.7,0,0,0,26.41,68.66Z" style="fill:none"/><path d="M51.44,50.12l-6.69,6A2,2,0,0,0,44.6,59l.13.11,9.65-8.63a1.67,1.67,0,0,0-.12-.16A2,2,0,0,0,51.44,50.12Z" style="fill:#7c6576"/><path d="M26.41,64.66a5.7,5.7,0,1,0,5.69,5.69A5.7,5.7,0,0,0,26.41,64.66Zm0,7.39a1.7,1.7,0,1,1,1.69-1.7A1.7,1.7,0,0,1,26.41,72.05Z" style="fill:#7c6576"/><path d="M74.69,50.12l-6.69,6a2,2,0,0,0,2.68,3l6.69-6a2,2,0,0,0-2.68-3Z" style="fill:#7c6576"/><path d="M73.44,37.55a11.82,11.82,0,0,0-6.69,2.06A2,2,0,0,0,66,40l-5,4.48-5.18,4.64-1.43,1.28-9.65,8.63-3.47,3.11s0,.06-.08.08a1.92,1.92,0,0,0-.38.53,11.71,11.71,0,0,0-2.36,4.38A10.9,10.9,0,0,0,38,69.52c0,.28,0,.55,0,.83a11.53,11.53,0,0,0,.88,4.44,11.65,11.65,0,0,0,19.22,3.62l24.63-22.1a2.06,2.06,0,0,0,.33-.4,2,2,0,0,0,.38-.43,11.55,11.55,0,0,0,1.84-6.25A11.77,11.77,0,0,0,73.44,37.55Zm-18.12,38-.67.6-.2.22a7.66,7.66,0,0,1-12.31-4.48A7.51,7.51,0,0,1,42,70.35a7.68,7.68,0,1,1,13.33,5.17Zm24.74-22.2h0L61.33,70.13a11.74,11.74,0,0,0-.3-2.38l3.15-2.82a2,2,0,1,0-2.68-3l-2.13,1.91a11.93,11.93,0,0,0-2-2.23L69,51.29a2,2,0,0,0-2.67-3l-.51.46h0L61.51,52.6l-7.37,6.59a1.75,1.75,0,0,0-.26.29,11.63,11.63,0,0,0-2.83-.71L62,49l6.34-5.68a1.72,1.72,0,0,0,.42-.23,7.91,7.91,0,0,1,4.68-1.52l.39,0-3.14,2.82a2,2,0,1,0,2.66,3L78,43.19s.06-.07.1-.1a7.77,7.77,0,0,1,2,2.16l-1.05.94A2,2,0,0,0,78.92,49a2,2,0,0,0,1.49.66,2.1,2.1,0,0,0,.84-.19A7.57,7.57,0,0,1,80.06,53.32Z" style="fill:#7c6576"/><path d="M44,70.21c0,.05,0,.1,0,.14a5.7,5.7,0,1,0,6.17-5.67l-.47,0A5.7,5.7,0,0,0,44,70.21Zm7.39.14a1.7,1.7,0,1,1-1.7-1.69A1.7,1.7,0,0,1,51.36,70.35Z" style="fill:#7c6576"/><path d="M36.11,63.87l1.63-1.46a11.52,11.52,0,0,1-3.53-.82l-.06,0A11.88,11.88,0,0,1,36.11,63.87Z" style="fill:none"/><path d="M30.62,59.48a.94.94,0,0,1,.1-.1,11.32,11.32,0,0,1-1.59-1.8L27.8,58.77A11.55,11.55,0,0,1,30.62,59.48Z" style="fill:none"/><path d="M40.29,50.77a1.69,1.69,0,0,0-1.66-1.69l-1.72,1.54c0,.05,0,.1,0,.15a1.68,1.68,0,0,0,1.52,1.68l1.87-1.67Z" style="fill:none"/><path d="M26.41,62.68A7.68,7.68,0,1,0,31.2,76.34a2,2,0,0,1,.2-.22l.66-.6a7.66,7.66,0,0,0-5.65-12.84Z" style="fill:none"/><path d="M37.74,62.41l-1.63,1.46a11.88,11.88,0,0,0-2-2.23l.06,0a11.63,11.63,0,0,1-3.49-2.21.94.94,0,0,0-.1.1,11.55,11.55,0,0,0-2.82-.71l1.33-1.19a11.72,11.72,0,0,1-1.33-2.37,11.31,11.31,0,0,1-.46-1.39L18,62.17a1.82,1.82,0,0,0-.46.61,11.66,11.66,0,0,0,17.3,15.63l4-3.62A11.53,11.53,0,0,1,38,70.35c0-.28,0-.55,0-.83a13,13,0,0,0-.25-1.77l.66-.59a11.71,11.71,0,0,1,2.36-4.38,1.92,1.92,0,0,1,.38-.53l-.07-.08a11.58,11.58,0,0,1-2.52.28A8.06,8.06,0,0,1,37.74,62.41ZM32.06,75.52l-.66.6a2,2,0,0,0-.2.22,7.86,7.86,0,1,1,.86-.82Z" style="fill:#7c6576"/><path d="M63.62,30.54l-6.69,6a2,2,0,0,0,2.68,3l6.69-6a2,2,0,1,0-2.68-3Z" style="fill:#7c6576"/><path d="M62.37,18A11.82,11.82,0,0,0,55.68,20a2,2,0,0,0-.75.42l-5,4.48-5.18,4.64-1.43,1.28-9.65,8.63-3.47,3.11a.6.6,0,0,0-.08.08,1.92,1.92,0,0,0-.38.53,11.71,11.71,0,0,0-2.36,4.38A10.9,10.9,0,0,0,27,49.94c0,.27,0,.55,0,.83a12.45,12.45,0,0,0,.88,4.44,11.72,11.72,0,0,0,1.33,2.37,11.32,11.32,0,0,0,1.59,1.8,11.59,11.59,0,0,0,7,3,8.06,8.06,0,0,0,.85,0A11.68,11.68,0,0,0,47,58.83l24.63-22.1a2.06,2.06,0,0,0,.33-.4,2.25,2.25,0,0,0,.38-.43,11.55,11.55,0,0,0,1.84-6.25A11.77,11.77,0,0,0,62.37,18Zm-18.12,38-.67.6-.2.22a7.65,7.65,0,0,1-4.79,1.69,7.37,7.37,0,0,1-.82-.05,7.65,7.65,0,0,1-4.07-1.72,7.89,7.89,0,0,1-1.57-1.79,7.65,7.65,0,0,1-1.06-2.62,7.34,7.34,0,0,1-.15-1.5c0-.05,0-.11,0-.17a7.67,7.67,0,0,1,7.66-7.5c.23,0,.45,0,.67,0a8.18,8.18,0,0,1,1.64.3,7.48,7.48,0,0,1,2.49,1.37,7.61,7.61,0,0,1,2.53,3.72,7.44,7.44,0,0,1,.32,2,2.48,2.48,0,0,1,0,.27A7.61,7.61,0,0,1,44.25,55.94ZM69,33.74h0l-9.39,8.43-3,2.68-6.34,5.69a11.66,11.66,0,0,0-.3-2.38l3.15-2.82a2,2,0,0,0-2.68-3L48.3,44.29c-.1-.14-.21-.26-.31-.4a12.72,12.72,0,0,0-1.33-1.51c-.11-.1-.21-.22-.33-.32l5-4.45,6.6-5.9a2,2,0,1,0-2.67-3l-.51.46h0L50.44,33l-7.37,6.59a1.8,1.8,0,0,0-.26.29A11.63,11.63,0,0,0,40,39.19l11-9.79,6.34-5.68a1.72,1.72,0,0,0,.42-.23A7.91,7.91,0,0,1,62.37,22l.39,0-3.14,2.82a2,2,0,1,0,2.66,3L67,23.61l.1-.1a7.63,7.63,0,0,1,2,2.16l-1,.94a2,2,0,0,0-.15,2.83,2,2,0,0,0,1.49.66,2,2,0,0,0,.84-.2A7.57,7.57,0,0,1,69,33.74Z" style="fill:#7c6576"/><path d="M43.54,48a5.66,5.66,0,0,0-4.48-2.9l-.47,0a5.85,5.85,0,0,0-1.83.3,5.7,5.7,0,0,0-3.31,3,5.59,5.59,0,0,0-.55,2.28v.14a5.63,5.63,0,0,0,.73,2.79,5.76,5.76,0,0,0,1.56,1.77,5.68,5.68,0,0,0,3.4,1.14,5.51,5.51,0,0,0,1.59-.23,5.7,5.7,0,0,0,4.11-5.47A5.55,5.55,0,0,0,43.54,48Zm-4.95,4.47-.17,0a1.68,1.68,0,0,1-1.52-1.68c0-.05,0-.1,0-.15a1.69,1.69,0,0,1,1.68-1.54h0a1.69,1.69,0,0,1,1.66,1.69h0A1.7,1.7,0,0,1,38.59,52.47Z" style="fill:#7c6576"/></svg>