<svg xmlns="http://www.w3.org/2000/svg" viewBox="0 0 100 100"><path d="M61.93,87.08C29.63,97.36.24,64.14,14.75,33.83A40.15,40.15,0,0,1,32,15.6" style="fill:none;stroke:#7c6576;stroke-linecap:round;stroke-linejoin:round;stroke-width:4px"/><path d="M43.69,11.67C71.05,6.58,94.69,32,87.87,59.36a39.29,39.29,0,0,1-12.3,20.06" style="fill:none;stroke:#7c6576;stroke-linecap:round;stroke-linejoin:round;stroke-width:4px"/><path d="M85.63,79.64l-10-.81.81-10a2,2,0,0,0-1.83-2.15,2,2,0,0,0-2.16,1.83l-.94,11.72a1.17,1.17,0,0,0-.05.27,2,2,0,0,0,1.85,2.18h.28l11.71.95h.17a2,2,0,0,0,.16-4Z" style="fill:#7c6576"/><path d="M33.4,14.21a2,2,0,0,0-1-.59l-.27,0-11.5-2.42a2,2,0,0,0-.83,3.92l9.82,2.06L27.51,27a2,2,0,0,0,1.55,2.37l.16,0a2,2,0,0,0,2.21-1.57l2.41-11.5a1.07,1.07,0,0,0,.09-.27,1.75,1.75,0,0,0,0-.4A5,5,0,0,1,33.4,14.21Z" style="fill:#7c6576"/><circle cx="38.03" cy="60.56" r="9.67" style="fill:none;stroke:#7c6576;stroke-miterlimit:10;stroke-width:4px"/><path d="M56,31.67a9.9,9.9,0,0,1,5.86-1.91,9.75,9.75,0,0,1,9.83,9.68,9.55,9.55,0,0,1-1.52,5.17" style="fill:none;stroke:#7c6576;stroke-linecap:round;stroke-miterlimit:10;stroke-width:4px"/><line x1="30.97" y1="53.87" x2="55.71" y2="31.73" style="fill:none;stroke:#7c6576;stroke-linecap:round;stroke-miterlimit:10;stroke-width:4px"/><line x1="43.85" y1="50.89" x2="56.01" y2="40.01" style="fill:none;stroke:#7c6576;stroke-linecap:round;stroke-miterlimit:10;stroke-width:4px"/><line x1="60.39" y1="36.09" x2="65.06" y2="31.91" style="fill:none;stroke:#7c6576;stroke-linecap:round;stroke-miterlimit:10;stroke-width:4px"/><line x1="43.85" y1="50.89" x2="55.49" y2="40.47" style="fill:none;stroke:#7c6576;stroke-linecap:round;stroke-miterlimit:10;stroke-width:4px"/><line x1="44.36" y1="67.82" x2="69.76" y2="45.03" style="fill:none;stroke:#7c6576;stroke-linecap:round;stroke-miterlimit:10;stroke-width:4px"/><line x1="68.78" y1="37.89" x2="70.8" y2="36.08" style="fill:none;stroke:#7c6576;stroke-linecap:round;stroke-miterlimit:10;stroke-width:4px"/><line x1="57.71" y1="47.82" x2="64.4" y2="41.82" style="fill:none;stroke:#7c6576;stroke-linecap:round;stroke-miterlimit:10;stroke-width:4px"/><line x1="47.24" y1="57.21" x2="51.21" y2="53.65" style="fill:none;stroke:#7c6576;stroke-linecap:round;stroke-miterlimit:10;stroke-width:4px"/><circle cx="38.03" cy="60.56" r="3.7" style="fill:none;stroke:#7c6576;stroke-linecap:round;stroke-miterlimit:10;stroke-width:4px"/></svg>