<svg xmlns="http://www.w3.org/2000/svg" viewBox="0 0 100 100"><path d="M61.93,87.08C29.63,97.36.24,64.14,14.75,33.83A40.15,40.15,0,0,1,32,15.6" style="fill:none;stroke:#7c6576;stroke-linecap:round;stroke-linejoin:round;stroke-width:4px"/><path d="M43.69,11.67C71.05,6.58,94.69,32,87.87,59.36a39.29,39.29,0,0,1-12.3,20.06" style="fill:none;stroke:#7c6576;stroke-linecap:round;stroke-linejoin:round;stroke-width:4px"/><path d="M85.63,79.64l-10-.81.81-10a2,2,0,0,0-1.83-2.15,2,2,0,0,0-2.16,1.83l-.94,11.72a1.17,1.17,0,0,0-.05.27,2,2,0,0,0,1.85,2.18h.28l11.71.95h.17a2,2,0,0,0,.16-4Z" style="fill:#7c6576"/><path d="M33.4,14.21a2,2,0,0,0-1-.59l-.27,0-11.5-2.42a2,2,0,0,0-.83,3.92l9.82,2.06L27.51,27a2,2,0,0,0,1.55,2.37l.16,0a2,2,0,0,0,2.21-1.57l2.41-11.5a1.07,1.07,0,0,0,.09-.27,1.75,1.75,0,0,0,0-.4A5,5,0,0,1,33.4,14.21Z" style="fill:#7c6576"/><path d="M62,56.75l-3.71-5.57A.87.87,0,0,1,59,49.83a.86.86,0,0,0,.76-1.28l-2.34-4.28a.58.58,0,0,1,.51-.86h0a.58.58,0,0,0,.52-.83L50.14,24.91a.94.94,0,0,0-1.69,0l-8.8,17.68a.58.58,0,0,0,.52.84h.16a.58.58,0,0,1,.5.87l-2.41,4.15a.93.93,0,0,0,.81,1.4h0A.94.94,0,0,1,40,51.31l-3.83,5.42a.93.93,0,0,0,.76,1.47h10.6a.43.43,0,0,0,0,.11v8.11a2,2,0,0,0,4,0V58.31a.41.41,0,0,0,0-.11h9.69A.94.94,0,0,0,62,56.75Z" style="fill:#7c6576"/><path d="M36.92,60.2a2.94,2.94,0,0,1-2.39-4.63l3-4.27a2.88,2.88,0,0,1-.86-.94,3,3,0,0,1,0-2.93l1.63-2.8a2.51,2.51,0,0,1-.35-.44,2.58,2.58,0,0,1-.11-2.51l2.25-4.52-2-4.77a.74.74,0,0,0-1.38,0L29.52,48.28a.51.51,0,0,0,.42.75h.14a.53.53,0,0,1,.41.79l-2,3.73a.84.84,0,0,0,.66,1.26.85.85,0,0,1,.62,1.33L26.68,61a.84.84,0,0,0,.62,1.32h7.21s0,.07,0,.11v7.29a2,2,0,0,0,4,0V62.45s0-.07,0-.11h7V60.2Z" style="fill:#7c6576"/><path d="M73.34,61.34l-3-5a.79.79,0,0,1,.59-1.21A.78.78,0,0,0,71.52,54l-1.91-3.85a.53.53,0,0,1,.42-.78.52.52,0,0,0,.43-.74L63.7,32.69a.74.74,0,0,0-1.38,0l-3.11,6.89,1,2.17a2.57,2.57,0,0,1-.15,2.48,2.78,2.78,0,0,1-.26.34l1.67,3a2.85,2.85,0,0,1-.05,2.84,3.06,3.06,0,0,1-.74.82l2.92,4.39a2.94,2.94,0,0,1-2.44,4.56H53.5v2.45h6.63s0,.06,0,.1V70a2,2,0,0,0,4,0V62.75s0-.07,0-.1H72.7A.85.85,0,0,0,73.34,61.34Z" style="fill:#7c6576"/></svg>