<svg width="50" height="50" viewBox="0 0 50 50" xmlns="http://www.w3.org/2000/svg"><path d="M43.105 4h.972V.818h1.108V0H42v.818h1.105V4Zm2.775 0h.858V1.453h.053L47.663 4h.555l.871-2.547h.056V4H50V0h-1.108l-.924 2.714h-.05L46.99 0h-1.11v4Z" fill="#D1D5DB"/><path d="M8.5 15.976a25.287 25.287 0 0 0-2.51 2.576c3.759 3.831 6.471 9.677 7.384 16.446h3.616c-.729-5.964-2.747-11.473-5.862-15.866A25.981 25.981 0 0 0 8.5 15.976ZM4.094 21.11a25.45 25.45 0 0 0-1.843 3.373C4.403 27.205 5.987 30.854 6.709 35h3.63c-.686-4.454-2.268-8.557-4.628-11.878a21.782 21.782 0 0 0-1.617-2.013ZM0 35h3.64c-.524-2.525-1.437-4.874-2.698-6.908A25.664 25.664 0 0 0 0 35Zm39.508-20.525a24.706 24.706 0 0 0-1.452-.986c-.226.24-.45.48-.67.728-2.898 3.264-6.18 8.26-7.92 15.29a51.47 51.47 0 0 0-2.233-8.181c1.886-4.284 4.23-7.595 6.39-10.042a25.325 25.325 0 0 0-1.775-.594 40.475 40.475 0 0 0-5.487 8.422c-1.214-2.861-2.686-5.532-4.4-7.955-.28-.396-.564-.78-.853-1.157a24.419 24.419 0 0 0-3.864.933c2.992 3.512 5.433 7.964 7.105 13.04a45.547 45.547 0 0 0-1.565 5.779c-1.178-5.448-3.296-10.449-6.24-14.607a31.325 31.325 0 0 0-2.376-2.967 24.84 24.84 0 0 0-3.191 1.858c4.729 4.857 8.08 12.34 9.027 20.964h3.745c.28-2.923.794-5.6 1.475-8.043A51.214 51.214 0 0 1 26.616 35h3.618c1.07-9.432 5.028-15.783 8.43-19.615.28-.315.561-.617.843-.91Zm4.697 4.472a25.448 25.448 0 0 0-1.15-1.322c-3.842 3.993-7.055 9.786-8.058 17.373h1.738c1.026-7.365 4.18-12.37 6.905-15.437.187-.21.376-.414.565-.614ZM41.523 35h1.746c.823-4.566 2.675-7.912 4.479-10.22a24.954 24.954 0 0 0-.833-1.728c-2.503 2.967-4.55 6.95-5.392 11.947Zm8.127-4.09A18.584 18.584 0 0 0 48.11 35H50c0-1.393-.122-2.758-.351-4.09Z" fill="#33B6B4"/></svg>
