<svg width="25" height="24" viewBox="0 0 25 24" fill="none" xmlns="http://www.w3.org/2000/svg">
<path d="M14.8931 6.5H22.1596C22.5646 6.5 22.8931 6.8285 22.8931 7.2335V16.7665C22.8931 17.1715 22.5646 17.5 22.1596 17.5H14.8931V6.5Z" fill="white"/>
<path d="M21.8931 8.979H14.8931V16.75H21.8931V8.979Z" fill="#1976D2"/>
<path d="M14.3931 22L2.89307 19.75V4.25L14.3931 2V22Z" fill="white"/>
<path d="M8.51807 8.25C6.93007 8.25 5.64307 9.929 5.64307 12C5.64307 14.071 6.93007 15.75 8.51807 15.75C10.1061 15.75 11.3931 14.071 11.3931 12C11.3931 9.929 10.1061 8.25 8.51807 8.25ZM8.39307 14.25C7.56457 14.25 6.89307 13.2425 6.89307 12C6.89307 10.7575 7.56457 9.75 8.39307 9.75C9.22157 9.75 9.89307 10.7575 9.89307 12C9.89307 13.2425 9.22157 14.25 8.39307 14.25Z" fill="#1976D2"/>
<path d="M16.2665 14.8685H14.9165V16.3185H16.2665V14.8685Z" fill="white"/>
<path d="M17.9672 14.8685H16.6172V16.3185H17.9672V14.8685Z" fill="white"/>
<path d="M19.6674 14.8685H18.3174V16.3185H19.6674V14.8685Z" fill="white"/>
<path d="M16.2665 13.0795H14.9165V14.5295H16.2665V13.0795Z" fill="white"/>
<path d="M17.9672 13.0795H16.6172V14.5295H17.9672V13.0795Z" fill="white"/>
<path d="M19.6674 13.0795H18.3174V14.5295H19.6674V13.0795Z" fill="white"/>
<path d="M21.3681 13.0795H20.0181V14.5295H21.3681V13.0795Z" fill="white"/>
<path d="M16.2665 11.353H14.9165V12.803H16.2665V11.353Z" fill="white"/>
<path d="M17.9672 11.353H16.6172V12.803H17.9672V11.353Z" fill="white"/>
<path d="M19.6674 11.353H18.3174V12.803H19.6674V11.353Z" fill="white"/>
<path d="M21.3681 11.353H20.0181V12.803H21.3681V11.353Z" fill="white"/>
<path d="M17.9672 9.556H16.6172V11.006H17.9672V9.556Z" fill="white"/>
<path d="M19.6674 9.556H18.3174V11.006H19.6674V9.556Z" fill="white"/>
<path d="M21.3681 9.556H20.0181V11.006H21.3681V9.556Z" fill="white"/>
</svg>
