<svg xmlns="http://www.w3.org/2000/svg" xmlns:xlink="http://www.w3.org/1999/xlink" width="70" height="70" viewBox="0 0 70 70"><defs><path id="a" d="M4 0h61c4 0 5 1 5 5v60c0 4-1 5-5 5H4c-3 0-4-1-4-5V5c0-4 1-5 4-5z"/><linearGradient id="c" x1="100%" x2="0%" y1="0%" y2="100%"><stop offset="0%" stop-color="#269396"/><stop offset="100%" stop-color="#218689"/></linearGradient></defs><g fill="none" fill-rule="evenodd"><mask id="b" fill="#fff"><use xlink:href="#a"/></mask><g mask="url(#b)"><path fill="url(#c)" d="M0 0H70V70H0z"/><path fill="#FFF" fill-opacity=".383" d="M4 1h61c2.667 0 4.333.667 5 2V0H0v3c.667-1.333 2-2 4-2z"/><path fill="#393939" d="M43.126 69H4c-2 0-4-.146-4-4.078v-23.83l15-16.955 8-4.078 8 2.039L39 17l26 23.451L43.126 69z" opacity=".324"/><path fill="#000" fill-opacity=".383" d="M4 69h61c2.667 0 4.333-1 5-3v4H0v-4c.667 2 2 3 4 3z"/><path fill="#000" d="M32.51 22.527l-6.99 7.529.047-.334c.058-.081.058-.189 0-.323-.1-.215-.238-.3-.411-.258.043-.086.072-.211.086-.376.015-.165.022-.262.022-.29.043-.187.13-.352.26-.495a4.13 4.13 0 0 0 .357-.474c.05-.086.054-.129.01-.129.506.058.867-.021 1.084-.236.072-.072.155-.194.248-.366.094-.172.17-.294.228-.366.13-.086.23-.125.303-.118a.974.974 0 0 1 .314.118c.137.072.242.108.314.108.202.014.314-.065.335-.237a.465.465 0 0 0-.162-.43c.173.014.195-.108.065-.366a.823.823 0 0 0-.173-.193c-.173-.058-.368-.022-.585.107-.115.058-.1.115.044.172-.015-.014-.083.061-.206.226-.123.165-.242.29-.357.377-.116.086-.231.05-.347-.108a1.73 1.73 0 0 1-.119-.29c-.065-.18-.133-.276-.206-.29-.115 0-.23.107-.346.322.043-.115-.036-.222-.238-.323a1.564 1.564 0 0 0-.52-.172c.274-.172.217-.366-.173-.58-.101-.058-.249-.094-.444-.108-.195-.015-.335.014-.422.086a.577.577 0 0 0-.12.247c-.006.065.03.122.11.172.078.05.154.09.226.119.073.028.156.057.25.086.093.028.155.05.183.064.203.144.26.244.174.301-.03.015-.09.04-.184.076-.094.035-.177.068-.25.096-.072.03-.115.058-.13.086-.043.058-.043.158 0 .302.044.143.03.243-.043.3-.072-.07-.137-.196-.194-.376a1.367 1.367 0 0 0-.152-.355c.101.13-.08.172-.541.13l-.217-.022c-.058 0-.173.014-.346.043a1.619 1.619 0 0 1-.444.021.403.403 0 0 1-.292-.172c-.058-.114-.058-.258 0-.43.014-.057.043-.072.086-.043a3.238 3.238 0 0 1-.238-.204 2.11 2.11 0 0 0-.216-.183 12.32 12.32 0 0 0-2.036.882.536.536 0 0 0 .26-.022c.072-.028.166-.075.282-.14.115-.064.187-.103.216-.118.49-.2.794-.25.91-.15l.108-.108c.202.23.346.409.433.538-.101-.057-.318-.065-.65-.022-.288.086-.447.172-.476.259.101.172.137.3.108.387a3.375 3.375 0 0 1-.249-.215c-.108-.1-.213-.18-.314-.237a.868.868 0 0 0-.324-.108c-.231 0-.39.008-.477.022a13.627 13.627 0 0 0-5.088 4.776c.101.1.188.157.26.172.058.014.094.079.108.193a.82.82 0 0 0 .054.237c.022.043.105.022.25-.064.13.114.15.25.064.408.015-.014.332.18.953.581.274.244.426.394.455.452.043.158-.03.287-.217.387a1.103 1.103 0 0 0-.195-.194c-.115-.1-.18-.129-.195-.086-.043.072-.04.205.011.398.05.194.127.284.228.27-.101 0-.17.114-.206.344-.036.229-.054.484-.054.763 0 .28-.007.448-.022.506l.043.021c-.043.172-.003.42.12.742.122.323.277.463.465.42-.188.043-.043.351.433.925.087.115.144.18.173.194.044.028.13.082.26.16.13.08.238.151.325.216a.92.92 0 0 1 .216.226c.058.072.13.233.217.484.086.25.187.42.303.505-.029.087.04.23.206.43.166.202.241.366.227.496a.106.106 0 0 0-.054.021.106.106 0 0 1-.054.022c.043.1.155.2.335.3.18.101.293.194.336.28.014.043.029.115.043.216.015.1.036.179.065.236.029.058.087.072.173.043.03-.287-.144-.731-.52-1.334-.216-.358-.338-.566-.367-.623a1.231 1.231 0 0 1-.12-.334 1.633 1.633 0 0 0-.097-.312c.029 0 .072.01.13.032.058.022.12.047.184.076.065.028.12.057.162.086.044.028.058.05.044.064-.044.1-.03.226.043.377.072.15.159.283.26.398a29.568 29.568 0 0 0 .628.688c.086.086.187.226.303.42.115.193.115.29 0 .29.13 0 .274.072.433.215.159.144.281.287.368.43.072.115.13.302.173.56.043.258.08.43.108.516.03.1.09.197.184.29.094.094.185.162.271.205l.347.172.281.15c.072.03.206.105.4.226a2.8 2.8 0 0 0 .466.248c.144.057.26.086.346.086.087 0 .192-.018.314-.054.123-.036.22-.06.293-.075.216-.029.425.079.628.322.202.244.353.395.454.452.52.273.917.352 1.191.237-.029.014-.025.068.01.161.037.093.095.205.174.334a21.069 21.069 0 0 0 .314.494c.072.086.202.194.39.323.187.13.317.237.39.323.086-.058.137-.122.151-.194-.043.115.007.258.152.43.144.173.274.244.39.216.201-.043.302-.273.302-.689-.447.215-.8.086-1.06-.387a.418.418 0 0 0-.055-.118 1.367 1.367 0 0 1-.14-.366.303.303 0 0 1 0-.161c.014-.043.05-.065.108-.065.13 0 .202-.025.216-.075.015-.05 0-.14-.043-.27a4.316 4.316 0 0 1-.086-.279c-.015-.115-.094-.258-.239-.43a5.739 5.739 0 0 1-.26-.323c-.072.13-.187.187-.346.172-.159-.014-.274-.079-.346-.193a.59.59 0 0 1-.033.118.509.509 0 0 0-.032.14c-.188 0-.296-.007-.325-.022.014-.043.032-.168.054-.376s.047-.37.076-.484c.014-.057.054-.144.119-.258l.069-.125 3.432 3.26a.426.426 0 0 0-.07.07 1.065 1.065 0 0 0-.13.258c-.043.115-.079.194-.107.237-.03-.058-.112-.104-.25-.14-.137-.036-.205-.075-.205-.118.029.143.058.394.086.753.03.358.065.63.109.817.1.445.014.789-.26 1.033-.39.358-.6.645-.628.86-.058.316.029.502.26.56 0 .1-.058.247-.173.44-.116.194-.166.348-.152.463 0 .086.014.2.043.344 1.916-.332 3.649-1.013 5.199-2.042l2.057 1.954c-.42.297-.858.578-1.312.841-2.548 1.477-5.33 2.216-8.347 2.216-3.017 0-5.799-.739-8.346-2.216a16.5 16.5 0 0 1-6.052-6.013c-1.487-2.53-2.23-5.295-2.23-8.293 0-2.997.743-5.761 2.23-8.293a16.5 16.5 0 0 1 6.052-6.012c2.547-1.478 5.33-2.216 8.346-2.216 2.071 0 4.032.348 5.882 1.044zm-8.39 17.386l2.321 2.205a.67.67 0 0 0-.224.318 4.44 4.44 0 0 0-.065.226.726.726 0 0 1-.108.247.538.538 0 0 1-.195.15c-.101.044-.275.058-.52.044-.245-.014-.419-.05-.52-.108-.187-.114-.35-.322-.487-.624-.137-.3-.205-.566-.205-.796 0-.143.018-.333.054-.57.036-.236.057-.415.065-.537.004-.082-.035-.257-.12-.527l.004-.028zm17.614-12.441l14.71 13.245-7.995 8.879-14.71-13.245 7.995-8.88zm14.245 20.962a2.978 2.978 0 0 0 .208 4.206l-3.997 4.44a2.978 2.978 0 0 1-4.205.233L25.92 37.445a2.978 2.978 0 0 1-.208-4.206l3.997-4.44a2.978 2.978 0 0 0 4.205-.233 2.978 2.978 0 0 0-.207-4.206l3.997-4.44a2.978 2.978 0 0 1 4.205-.233l22.065 19.868a2.978 2.978 0 0 1 .208 4.206l-3.997 4.44a2.978 2.978 0 0 0-4.206.233zm2.233-6.774a1.489 1.489 0 0 0-.104-2.103L42.662 25.65a1.489 1.489 0 0 0-2.102.116l-8.661 9.62a1.489 1.489 0 0 0 .104 2.102l15.445 13.908c.61.548 1.55.496 2.103-.117l8.66-9.619z" opacity=".3"/><path fill="#FFF" d="M32.51 20.527l-6.99 7.529.047-.334c.058-.081.058-.189 0-.323-.1-.215-.238-.3-.411-.258.043-.086.072-.211.086-.376.015-.165.022-.262.022-.29.043-.187.13-.352.26-.495a4.13 4.13 0 0 0 .357-.474c.05-.086.054-.129.01-.129.506.058.867-.021 1.084-.236.072-.072.155-.194.248-.366.094-.172.17-.294.228-.366.13-.086.23-.125.303-.118a.974.974 0 0 1 .314.118c.137.072.242.108.314.108.202.014.314-.065.335-.237a.465.465 0 0 0-.162-.43c.173.014.195-.108.065-.366a.823.823 0 0 0-.173-.193c-.173-.058-.368-.022-.585.107-.115.058-.1.115.044.172-.015-.014-.083.061-.206.226-.123.165-.242.29-.357.377-.116.086-.231.05-.347-.108a1.73 1.73 0 0 1-.119-.29c-.065-.18-.133-.276-.206-.29-.115 0-.23.107-.346.322.043-.115-.036-.222-.238-.323a1.564 1.564 0 0 0-.52-.172c.274-.172.217-.366-.173-.58-.101-.058-.249-.094-.444-.108-.195-.015-.335.014-.422.086a.577.577 0 0 0-.12.247c-.006.065.03.122.11.172.078.05.154.09.226.119.073.028.156.057.25.086.093.028.155.05.183.064.203.144.26.244.174.301-.03.015-.09.04-.184.076-.094.035-.177.068-.25.096-.072.03-.115.058-.13.086-.043.058-.043.158 0 .302.044.143.03.243-.043.3-.072-.07-.137-.196-.194-.376a1.367 1.367 0 0 0-.152-.355c.101.13-.08.172-.541.13l-.217-.022c-.058 0-.173.014-.346.043a1.619 1.619 0 0 1-.444.021.403.403 0 0 1-.292-.172c-.058-.114-.058-.258 0-.43.014-.057.043-.072.086-.043a3.238 3.238 0 0 1-.238-.204 2.11 2.11 0 0 0-.216-.183 12.32 12.32 0 0 0-2.036.882.536.536 0 0 0 .26-.022c.072-.028.166-.075.282-.14.115-.064.187-.103.216-.118.49-.2.794-.25.91-.15l.108-.108c.202.23.346.409.433.538-.101-.057-.318-.065-.65-.022-.288.086-.447.172-.476.259.101.172.137.3.108.387a3.375 3.375 0 0 1-.249-.215c-.108-.1-.213-.18-.314-.237a.868.868 0 0 0-.324-.108c-.231 0-.39.008-.477.022a13.627 13.627 0 0 0-5.088 4.776c.101.1.188.157.26.172.058.014.094.079.108.193a.82.82 0 0 0 .054.237c.022.043.105.022.25-.064.13.114.15.25.064.408.015-.014.332.18.953.581.274.244.426.394.455.452.043.158-.03.287-.217.387a1.103 1.103 0 0 0-.195-.194c-.115-.1-.18-.129-.195-.086-.043.072-.04.205.011.398.05.194.127.284.228.27-.101 0-.17.114-.206.344-.036.229-.054.484-.054.763 0 .28-.007.448-.022.506l.043.021c-.043.172-.003.42.12.742.122.323.277.463.465.42-.188.043-.043.351.433.925.087.115.144.18.173.194.044.028.13.082.26.16.13.08.238.151.325.216a.92.92 0 0 1 .216.226c.058.072.13.233.217.484.086.25.187.42.303.505-.029.087.04.23.206.43.166.202.241.366.227.496a.106.106 0 0 0-.054.021.106.106 0 0 1-.054.022c.043.1.155.2.335.3.18.101.293.194.336.28.014.043.029.115.043.216.015.1.036.179.065.236.029.058.087.072.173.043.03-.287-.144-.731-.52-1.334-.216-.358-.338-.566-.367-.623a1.231 1.231 0 0 1-.12-.334 1.633 1.633 0 0 0-.097-.312c.029 0 .072.01.13.032.058.022.12.047.184.076.065.028.12.057.162.086.044.028.058.05.044.064-.044.1-.03.226.043.377.072.15.159.283.26.398a29.568 29.568 0 0 0 .628.688c.086.086.187.226.303.42.115.193.115.29 0 .29.13 0 .274.072.433.215.159.144.281.287.368.43.072.115.13.302.173.56.043.258.08.43.108.516.03.1.09.197.184.29.094.094.185.162.271.205l.347.172.281.15c.072.03.206.105.4.226a2.8 2.8 0 0 0 .466.248c.144.057.26.086.346.086.087 0 .192-.018.314-.054.123-.036.22-.06.293-.075.216-.029.425.079.628.322.202.244.353.395.454.452.52.273.917.352 1.191.237-.029.014-.025.068.01.161.037.093.095.205.174.334a21.069 21.069 0 0 0 .314.494c.072.086.202.194.39.323.187.13.317.237.39.323.086-.058.137-.122.151-.194-.043.115.007.258.152.43.144.173.274.244.39.216.201-.043.302-.273.302-.689-.447.215-.8.086-1.06-.387a.418.418 0 0 0-.055-.118 1.367 1.367 0 0 1-.14-.366.303.303 0 0 1 0-.161c.014-.043.05-.065.108-.065.13 0 .202-.025.216-.075.015-.05 0-.14-.043-.27a4.316 4.316 0 0 1-.086-.279c-.015-.115-.094-.258-.239-.43a5.739 5.739 0 0 1-.26-.323c-.072.13-.187.187-.346.172-.159-.014-.274-.079-.346-.193a.59.59 0 0 1-.033.118.509.509 0 0 0-.032.14c-.188 0-.296-.007-.325-.022.014-.043.032-.168.054-.376s.047-.37.076-.484c.014-.057.054-.144.119-.258l.069-.125 3.432 3.26a.426.426 0 0 0-.07.07 1.065 1.065 0 0 0-.13.258c-.043.115-.079.194-.107.237-.03-.058-.112-.104-.25-.14-.137-.036-.205-.075-.205-.118.029.143.058.394.086.753.03.358.065.63.109.817.1.445.014.789-.26 1.033-.39.358-.6.645-.628.86-.058.316.029.502.26.56 0 .1-.058.247-.173.44-.116.194-.166.348-.152.463 0 .086.014.2.043.344 1.916-.332 3.649-1.013 5.199-2.042l2.057 1.954c-.42.297-.858.578-1.312.841-2.548 1.477-5.33 2.216-8.347 2.216-3.017 0-5.799-.739-8.346-2.216a16.5 16.5 0 0 1-6.052-6.013c-1.487-2.53-2.23-5.295-2.23-8.293 0-2.997.743-5.761 2.23-8.293a16.5 16.5 0 0 1 6.052-6.012c2.547-1.478 5.33-2.216 8.346-2.216 2.071 0 4.032.348 5.882 1.044zm-8.39 17.386l2.321 2.205a.67.67 0 0 0-.224.318 4.44 4.44 0 0 0-.065.226.726.726 0 0 1-.108.247.538.538 0 0 1-.195.15c-.101.044-.275.058-.52.044-.245-.014-.419-.05-.52-.108-.187-.114-.35-.322-.487-.624-.137-.3-.205-.566-.205-.796 0-.143.018-.333.054-.57.036-.236.057-.415.065-.537.004-.082-.035-.257-.12-.527l.004-.028zm17.614-12.441l14.71 13.245-7.995 8.879-14.71-13.245 7.995-8.88zm14.245 20.962a2.978 2.978 0 0 0 .208 4.206l-3.997 4.44a2.978 2.978 0 0 1-4.205.233L25.92 35.445a2.978 2.978 0 0 1-.208-4.206l3.997-4.44a2.978 2.978 0 0 0 4.205-.233 2.978 2.978 0 0 0-.207-4.206l3.997-4.44a2.978 2.978 0 0 1 4.205-.233l22.065 19.868a2.978 2.978 0 0 1 .208 4.206l-3.997 4.44a2.978 2.978 0 0 0-4.206.233zm2.233-6.774a1.489 1.489 0 0 0-.104-2.103L42.662 23.65a1.489 1.489 0 0 0-2.102.116l-8.661 9.62a1.489 1.489 0 0 0 .104 2.102l15.445 13.908c.61.548 1.55.496 2.103-.117l8.66-9.619z"/></g></g></svg>