<?xml version="1.0" encoding="utf-8"?>
<!-- Generator: Adobe Illustrator 26.0.3, SVG Export Plug-In . SVG Version: 6.00 Build 0)  -->
<svg version="1.1" id="Layer_1" xmlns="http://www.w3.org/2000/svg" xmlns:xlink="http://www.w3.org/1999/xlink" x="0px" y="0px"
	 viewBox="0 0 82 60" style="enable-background:new 0 0 82 60;" xml:space="preserve">
<style type="text/css">
	.st0{fill-rule:evenodd;clip-rule:evenodd;fill:url(#path-8_00000095300066650753250720000002666093597020083331_);}
	.st1{fill-rule:evenodd;clip-rule:evenodd;fill:url(#path-8_00000093149943742714831120000011055561218156940933_);}
	.st2{fill-rule:evenodd;clip-rule:evenodd;fill:url(#SVGID_1_);}
	.st3{fill-rule:evenodd;clip-rule:evenodd;}
	.st4{fill-rule:evenodd;clip-rule:evenodd;fill:#FFFFFF;fill-opacity:0.348;}
	.st5{fill-rule:evenodd;clip-rule:evenodd;fill:#FFFFFF;fill-opacity:0.78;}
	.st6{fill-rule:evenodd;clip-rule:evenodd;fill:url(#SVGID_00000153707667966277653250000009137429941846899595_);}
</style>
<g>
	<g>
		
			<linearGradient id="path-8_00000176010670027675938670000004938458339886343844_" gradientUnits="userSpaceOnUse" x1="-1176.5044" y1="56.8991" x2="-1176.5044" y2="57.9573" gradientTransform="matrix(12.2244 0 0 12.2244 14408.0605 -682.6234)">
			<stop  offset="0" style="stop-color:#00A09D"/>
			<stop  offset="1" style="stop-color:#00E2FF"/>
		</linearGradient>
		
			<path id="path-8_00000101807681392685050550000002881477577771196326_" style="fill-rule:evenodd;clip-rule:evenodd;fill:url(#path-8_00000176010670027675938670000004938458339886343844_);" d="
			M26.9,16.1l2.4,2.4L25,22.8l-2.4-2.4L26.9,16.1L26.9,16.1z M25.3,23.5l4.7-4.7c0.2-0.2,0.2-0.2,0.2-0.3c0-0.2,0-0.3-0.2-0.3
			l-2.7-2.7c-0.2-0.2-0.2-0.2-0.3-0.2c-0.2,0-0.3,0-0.3,0.2l-4.7,4.7c-0.2,0.2-0.2,0.2-0.2,0.3c0,0.2,0,0.3,0.2,0.3l2.7,2.7
			c0.2,0.2,0.2,0.2,0.3,0.2C25,23.6,25.1,23.6,25.3,23.5L25.3,23.5z M32,18.7l-6.9,6.9c-0.2,0.2-0.5,0.3-0.6,0.3
			c-0.3,0-0.5-0.2-0.6-0.3l-1-1c0.3-0.3,0.5-0.6,0.5-1c0-0.5-0.2-0.8-0.5-1c-0.3-0.3-0.6-0.5-1-0.5c-0.5,0-0.8,0.2-1,0.5l-1-1
			c-0.2-0.2-0.3-0.5-0.3-0.6c0-0.3,0.2-0.5,0.3-0.6l6.9-6.9c0.2-0.2,0.5-0.3,0.6-0.3c0.3,0,0.5,0.2,0.6,0.3l1,1
			c-0.3,0.3-0.5,0.6-0.5,1c0,0.5,0.2,0.8,0.5,1c0.3,0.3,0.6,0.5,1,0.5c0.5,0,0.8-0.2,1-0.5l1,1c0.2,0.2,0.3,0.5,0.3,0.6
			C32.4,18.2,32.2,18.5,32,18.7L32,18.7z"/>
	</g>
	<g>
		
			<linearGradient id="path-8_00000132811078807879644690000010232793767224656295_" gradientUnits="userSpaceOnUse" x1="-1174.0503" y1="56.8991" x2="-1174.0503" y2="57.9573" gradientTransform="matrix(12.2244 0 0 12.2244 14408.0605 -682.6234)">
			<stop  offset="0" style="stop-color:#00A09D"/>
			<stop  offset="1" style="stop-color:#00E2FF"/>
		</linearGradient>
		
			<path id="path-8_00000013173299018101056130000011854440310922134964_" style="fill-rule:evenodd;clip-rule:evenodd;fill:url(#path-8_00000132811078807879644690000010232793767224656295_);" d="
			M56.9,16.1l2.4,2.4L55,22.8l-2.4-2.4L56.9,16.1L56.9,16.1z M55.3,23.5l4.7-4.7c0.2-0.2,0.2-0.2,0.2-0.3c0-0.2,0-0.3-0.2-0.3
			l-2.7-2.7c-0.2-0.2-0.2-0.2-0.3-0.2c-0.2,0-0.3,0-0.3,0.2l-4.7,4.7c-0.2,0.2-0.2,0.2-0.2,0.3c0,0.2,0,0.3,0.2,0.3l2.7,2.7
			c0.2,0.2,0.2,0.2,0.3,0.2C55.1,23.6,55.3,23.6,55.3,23.5L55.3,23.5z M62,18.7l-6.9,6.9c-0.2,0.2-0.5,0.3-0.6,0.3
			c-0.3,0-0.5-0.2-0.6-0.3l-1-1c0.3-0.3,0.5-0.6,0.5-1c0-0.5-0.2-0.8-0.5-1c-0.3-0.3-0.6-0.5-1-0.5c-0.5,0-0.8,0.2-1,0.5l-1-1
			c-0.2-0.2-0.3-0.5-0.3-0.6c0-0.3,0.2-0.5,0.3-0.6l6.9-6.9c0.2-0.2,0.5-0.3,0.6-0.3c0.3,0,0.5,0.2,0.6,0.3l1,1
			c-0.3,0.3-0.5,0.6-0.5,1c0,0.5,0.2,0.8,0.5,1c0.3,0.3,0.6,0.5,1,0.5c0.5,0,0.8-0.2,1-0.5l1,1c0.2,0.2,0.3,0.5,0.3,0.6
			C62.4,18.2,62.4,18.5,62,18.7L62,18.7z"/>
	</g>
	<g>
		
			<linearGradient id="SVGID_1_" gradientUnits="userSpaceOnUse" x1="-1123.9047" y1="237.1782" x2="-1122.5414" y2="237.3699" gradientTransform="matrix(8 0 0 3 9011 -665)">
			<stop  offset="0" style="stop-color:#00A09D"/>
			<stop  offset="1" style="stop-color:#00E2FF"/>
		</linearGradient>
		<rect x="19.7" y="44.8" class="st2" width="11" height="4"/>
		<g>
			<g>
				<path id="path-7" class="st3" d="M29.3,40.8v1H16v-1H29.3z M34.3,36.8v1H16v-1H34.3z"/>
			</g>
			<g>
				<path id="path-7_00000049188432945054382670000012999828447748560522_" class="st4" d="M29.3,40.8v1H16v-1H29.3z M34.3,36.8v1
					H16v-1H34.3z"/>
			</g>
		</g>
		<g>
			<g>
				<rect id="path-11_00000042727771948489652620000007994651315568149948_" x="16" y="30.8" class="st3" width="20" height="3"/>
			</g>
			<g>
				<rect id="path-11_00000069378958481318337710000011278380222473405829_" x="16" y="30.8" class="st5" width="20" height="3"/>
			</g>
		</g>
	</g>
	<g>
		
			<linearGradient id="SVGID_00000046328548324713994340000006507111683487087778_" gradientUnits="userSpaceOnUse" x1="-1120.0671" y1="237.1759" x2="-1118.7037" y2="237.3676" gradientTransform="matrix(8 0 0 3 9011 -665)">
			<stop  offset="0" style="stop-color:#00A09D"/>
			<stop  offset="1" style="stop-color:#00E2FF"/>
		</linearGradient>
		
			<rect x="50.5" y="44.8" style="fill-rule:evenodd;clip-rule:evenodd;fill:url(#SVGID_00000046328548324713994340000006507111683487087778_);" width="11" height="4"/>
		<g>
			<g>
				<path id="path-7_00000073694205868785683900000016232603875333593771_" class="st3" d="M59.3,40.8v1H46v-1H59.3z M64.3,36.8v1
					H46v-1H64.3z"/>
			</g>
			<g>
				<path id="path-7_00000132075829523470887660000004823225826125989510_" class="st4" d="M59.3,40.8v1H46v-1H59.3z M64.3,36.8v1
					H46v-1H64.3z"/>
			</g>
		</g>
		<g>
			<g>
				<rect id="path-11_00000073705521831743585720000001575955891273760656_" x="46" y="30.8" class="st3" width="20" height="3"/>
			</g>
			<g>
				<rect id="path-11_00000027596513270444160320000018432938704865459642_" x="46" y="30.8" class="st5" width="20" height="3"/>
			</g>
		</g>
	</g>
</g>
</svg>
