<svg version="1.1" xmlns="http://www.w3.org/2000/svg" xmlns:xlink="http://www.w3.org/1999/xlink" width="70" height="70" viewBox="0,0,70,70"><!-- Generated with https://ivantodorovich.github.io/odoo-icon --><defs><linearGradient x1="70" y1="0" x2="0" y2="70" gradientUnits="userSpaceOnUse" id="color-1"><stop offset="0" stop-color="#ff6c68"/><stop offset="1" stop-color="#e53935"/></linearGradient></defs><g fill="none" fill-rule="nonzero" stroke="none" stroke-width="1" stroke-linecap="butt" stroke-linejoin="miter" stroke-miterlimit="10" stroke-dasharray="" stroke-dashoffset="0" font-family="none" font-weight="none" font-size="none" text-anchor="none" style="mix-blend-mode: normal"><path d="M3.5,70c-1.933,0 -3.5,-1.567 -3.5,-3.5v-63c0,-1.933 1.567,-3.5 3.5,-3.5h63c1.933,0 3.5,1.567 3.5,3.5v63c0,1.933 -1.567,3.5 -3.5,3.5z" id="box" fill="url(#color-1)"/><path d="M65,1h-61c-1.95033,0 -3.2667,0.63396 -3.9491,1.90189c0.28378,-1.64806 1.72001,-2.90189 3.4491,-2.90189h63c1.72965,0 3.16627,1.25466 3.44938,2.90352c-0.69803,-1.26902 -2.34782,-1.90352 -4.94938,-1.90352z" id="topBoxShadow" fill="#ffffff" opacity="0.383"/><path d="M4,69h61c2.66667,0 4.33333,-1 5,-3v0.5c0,1.933 -1.567,3.5 -3.5,3.5h-63c-1.933,0 -3.5,-1.567 -3.5,-3.5c0,-0.1611 0,-0.32777 0,-0.5c0.66667,2 2,3 4,3z" id="bottomBoxShadow" fill="#000000" opacity="0.383"/><path d="M12,16.55545h10.22243v10.22243h-10.22243v-10.22243M27.33333,19.1106v5.11091h30.66667v-5.11091h-30.66667M12,31.88879h10.22243v10.22243h-10.22243v-10.22243M27.33333,34.44393v5.11091h30.66667v-5.11091h-30.66667M12,47.22212h10.22243v10.22243h-10.22243v-10.22243M27.33333,49.77727v5.11091h30.66667v-5.11091z" id="shadow" fill="#000000" opacity="0.3"/><path d="M22.22243,14.55545l0,7.66605l5.11091,-5.11091h30.66667v5.11091l-10.22243,10.22243h10.22243v5.11091l-10.22243,10.22243h10.22243v5.11091l-17.11183,17.11183h-37.38817c-1.933,0 -3.5,-1.567 -3.5,-3.5l0,-39.94455l12,-12z" id="flatShadow" fill="#000000" opacity="0.324"/><path d="M12,14.55545h10.22243v10.22243h-10.22243v-10.22243M27.33333,17.1106v5.11091h30.66667v-5.11091h-30.66667M12,29.88879h10.22243v10.22243h-10.22243v-10.22243M27.33333,32.44393v5.11091h30.66667v-5.11091h-30.66667M12,45.22212h10.22243v10.22243h-10.22243v-10.22243M27.33333,47.77727v5.11091h30.66667v-5.11091z" id="icon" fill="#ffffff"/></g></svg>