<svg width="50" height="51" viewBox="0 0 50 51" fill="none" xmlns="http://www.w3.org/2000/svg">
<path d="M39.8764 12.1992L28.6231 8.94126L26.621 8.61435C25.3227 8.40192 24.0126 8.9204 23.2191 9.96059L20.4114 13.6415L10.0657 28.2655L10.9267 28.7614L10.9298 29.8238L21.322 31.5235L23.3241 31.8504C24.6224 32.0628 25.9326 31.5444 26.726 30.5042L29.5338 26.8233L39.8794 13.2616L39.8764 12.1992Z" fill="#FBDBD0"/>
<path d="M10.9847 49.0092L10.9298 29.8238H10.9298L10.9267 28.7614L10.0657 28.2656L10.0687 29.328H10.0687L10.1236 48.5133L10.9847 49.0092Z" fill="#FBDBD0"/>
<path d="M23.9015 32.0744C23.6991 32.0744 23.495 32.0578 23.295 32.0249L13.5314 30.4286C13.4452 30.4146 13.3819 30.3406 13.3819 30.2541V14.7796C13.3819 14.7182 13.414 14.6612 13.4666 14.6291L34.6427 1.6659C34.6713 1.64828 34.7039 1.63947 34.7365 1.63947C34.7665 1.63947 34.7965 1.6469 34.8235 1.66194C34.88 1.69322 34.9151 1.75231 34.9151 1.81641V19.7741C34.9151 19.8107 34.9036 19.8463 34.8823 19.8762L32.3462 23.4298L26.8686 30.6107C26.1696 31.5271 25.0602 32.0744 23.9015 32.0744Z" fill="white"/>
<path d="M34.7365 1.81648V19.7739L32.2005 23.3277L29.5338 26.8233L26.726 30.5041C26.0503 31.39 25.0002 31.8974 23.9015 31.8974C23.71 31.8974 23.5168 31.8819 23.3241 31.8504L21.322 31.5235L16.5205 30.7382L13.5604 30.2541V14.7797L34.7365 1.81648ZM34.7365 1.46259C34.6713 1.46259 34.6062 1.48021 34.5488 1.51537L13.3727 14.4785C13.2674 14.5431 13.2033 14.657 13.2033 14.7797V30.2541C13.2033 30.4273 13.3298 30.5751 13.5022 30.6032L16.4623 31.0873L21.2639 31.8727L23.266 32.1995C23.4756 32.2338 23.6894 32.2513 23.9015 32.2513C25.116 32.2513 26.2783 31.678 27.0109 30.7175L29.8187 27.0367L32.4853 23.5411C32.4876 23.5381 32.4899 23.535 32.492 23.532L35.0281 19.9783C35.0707 19.9185 35.0936 19.8471 35.0936 19.7739V1.81648C35.0936 1.68818 35.0235 1.56989 34.9104 1.50742C34.8563 1.47745 34.7964 1.46259 34.7365 1.46259Z" fill="#374874"/>
<path d="M27.5755 14.4339C27.5755 14.4339 26.3539 13.8461 24.7197 14.6962C23.0854 15.5463 20.6398 17.8641 21.6758 19.7349C22.9067 21.9575 26.548 18.6988 27.8039 20.9463C29.2429 23.5216 24.7521 26.7039 21.512 25.706" stroke="#374874" stroke-linecap="round" stroke-linejoin="round"/>
<path d="M24.7026 13.2617V27.0227" stroke="#374874" stroke-linecap="round" stroke-linejoin="round"/>
<path d="M39.934 32.565L39.8794 13.2617L29.545 26.8144L29.5338 26.8084L26.726 30.3863C25.9326 31.4265 24.6224 31.945 23.3241 31.7325L21.3221 31.4056V31.3491L10.9298 29.6493L10.9847 49.1836L39.934 32.565Z" fill="white"/>
<path d="M11.1607 48.8912L21.3221 31.4056" stroke="#374874" stroke-linecap="round" stroke-linejoin="round"/>
<path d="M29.5338 26.8084L39.9343 32.5036" stroke="#374874" stroke-linecap="round" stroke-linejoin="round"/>
<path d="M39.8794 12.955L29.5387 26.5161L26.726 30.1975C25.9326 31.2377 24.6224 31.7562 23.3241 31.5437L21.3221 31.2168L10.9298 29.5171" stroke="#374874" stroke-linecap="round" stroke-linejoin="round"/>
<path d="M34.7365 1.8165V10.7112L39.8764 12.1992L39.9343 32.447L10.9847 49.0092L10.1236 48.5133L10.0657 28.2656L13.5604 23.3256V14.7797L34.7365 1.8165ZM34.7365 1.1087C34.6061 1.1087 34.4759 1.14404 34.3611 1.21438L13.185 14.1776C12.9743 14.3065 12.8461 14.5343 12.8461 14.7797V23.1023L9.48078 27.8593C9.39615 27.9789 9.35095 28.1215 9.35138 28.2676L9.40933 48.5153C9.41004 48.7667 9.54533 48.999 9.76472 49.1253L10.6258 49.6212C10.7367 49.685 10.8607 49.717 10.9847 49.717C11.108 49.717 11.2313 49.6854 11.3418 49.6221L40.2915 33.0599C40.5131 32.9332 40.6493 32.6986 40.6486 32.445L40.5907 12.1972C40.5898 11.8835 40.3806 11.6077 40.0767 11.5198L35.4508 10.1806V1.8165C35.4508 1.55989 35.3106 1.32332 35.0844 1.19829C34.9761 1.1385 34.8562 1.1087 34.7365 1.1087Z" fill="#374874"/>
</svg>
