<svg width="120" height="140" viewBox="0 0 120 140" fill="none" xmlns="http://www.w3.org/2000/svg">
<g clip-path="url(#clip0_7_114)">
<g filter="url(#filter0_d_7_114)">
<path d="M60 134.614C90.9279 134.614 116 109.542 116 78.614C116 47.6861 90.9279 22.614 60 22.614C29.0721 22.614 4 47.6861 4 78.614C4 109.542 29.0721 134.614 60 134.614Z" fill="black"/>
</g>
<path d="M60 134.614C90.9279 134.614 116 109.542 116 78.614C116 47.6861 90.9279 22.614 60 22.614C29.0721 22.614 4 47.6861 4 78.614C4 109.542 29.0721 134.614 60 134.614Z" fill="url(#paint0_linear_7_114)"/>
<mask id="mask0_7_114" style="mask-type:luminance" maskUnits="userSpaceOnUse" x="4" y="12" width="112" height="123">
<path d="M60 134.807C90.9279 134.807 116 109.672 116 78.6667C116 71.6607 116 49.4384 116 12H4C4 35.7741 4 57.9964 4 78.6667C4 109.672 29.0721 134.807 60 134.807Z" fill="white"/>
</mask>
<g mask="url(#mask0_7_114)">
<path d="M26 18.015H88.3146L104.5 34.5564V126.83C104.5 136.218 96.8888 143.83 87.5 143.83H35C25.6112 143.83 18 136.218 18 126.83V26.015C18 21.5967 21.5817 18.015 26 18.015Z" fill="white"/>
<path fill-rule="evenodd" clip-rule="evenodd" d="M103.5 34.9642L87.894 19.015H26C22.134 19.015 19 22.149 19 26.015V126.83C19 135.666 26.1634 142.83 35 142.83H87.5C96.3366 142.83 103.5 135.666 103.5 126.83V34.9642Z" stroke="#A1ACBA" stroke-width="2"/>
</g>
<mask id="mask1_7_114" style="mask-type:luminance" maskUnits="userSpaceOnUse" x="4" y="12" width="112" height="123">
<path d="M60 134.807C90.9279 134.807 116 109.672 116 78.6667C116 71.6607 116 49.4384 116 12H4C4 35.7741 4 57.9964 4 78.6667C4 109.672 29.0721 134.807 60 134.807Z" fill="white"/>
</mask>
<g mask="url(#mask1_7_114)">
<path fill-rule="evenodd" clip-rule="evenodd" d="M88.5552 21.049C88.4678 24.6467 88.2888 30.1379 88.4773 30.8531C88.6313 31.4374 88.9326 31.8929 89.6509 32.6112C90.0983 33.0585 90.6276 33.3881 91.2853 33.6301C92.3847 34.0346 93.8352 34.2034 96.1221 34.2234C96.8736 34.23 99.5445 34.1861 101.662 34.156L88.5552 21.049Z" stroke="#A1ACBA" stroke-width="2"/>
</g>
<path d="M17 16L8 7M22 11V2M5 22H14" stroke="#A1ACBA" stroke-width="2" stroke-linecap="round"/>
<path d="M74.716 36H28V42.214H74.716V36Z" fill="black" fill-opacity="0.05"/>
<path d="M28 84H74.716V90.214H28V84Z" fill="black" fill-opacity="0.05"/>
<path d="M28 92.7H96.812V98.914H28V92.7Z" fill="black" fill-opacity="0.05"/>
<path d="M70.297 104.506H28V110.72H70.297V104.506Z" fill="black" fill-opacity="0.05"/>
<path d="M28 115.07H80.398V121.284H28V115.07Z" fill="black" fill-opacity="0.05"/>
<path d="M28 44.7H96.812V50.914H28V44.7Z" fill="black" fill-opacity="0.05"/>
<path d="M70.297 56.506H28V62.72H70.297V56.506Z" fill="black" fill-opacity="0.05"/>
<path d="M28 67.07H80.398V73.284H28V67.07Z" fill="black" fill-opacity="0.05"/>
<path d="M83.2182 59.6C83.2182 71.5294 73.5475 81.2 61.6182 81.2C49.6888 81.2 40.0182 71.5294 40.0182 59.6C40.0182 47.6707 49.6888 38 61.6182 38C73.5475 38 83.2182 47.6707 83.2182 59.6Z" fill="#714B67"/>
<path fill-rule="evenodd" clip-rule="evenodd" d="M61.7351 77.6695C71.65 77.6695 79.6877 69.6319 79.6877 59.7169C79.6877 49.8019 71.65 41.7643 61.7351 41.7643C51.8201 41.7643 43.7824 49.8019 43.7824 59.7169C43.7824 69.6319 51.8201 77.6695 61.7351 77.6695ZM61.7351 81.4338C73.729 81.4338 83.4519 71.7108 83.4519 59.7169C83.4519 47.723 73.729 38 61.7351 38C49.7411 38 40.0182 47.723 40.0182 59.7169C40.0182 71.7108 49.7411 81.4338 61.7351 81.4338Z" fill="#906083"/>
<path d="M71.988 58.7857C71.9562 58.4643 71.8194 58.2146 71.5776 58.0366C71.3359 57.8586 71.0079 57.7697 70.5935 57.7697C70.312 57.7697 70.0743 57.8095 69.8804 57.8892C69.6865 57.9662 69.5377 58.0738 69.4341 58.2119C69.3332 58.35 69.2827 58.5068 69.2827 58.6821C69.2774 58.8282 69.3079 58.9557 69.3743 59.0646C69.4434 59.1735 69.5377 59.2678 69.6572 59.3474C69.7768 59.4245 69.9149 59.4922 70.0716 59.5506C70.2283 59.6064 70.3956 59.6542 70.5736 59.6941L71.3067 59.8694C71.6626 59.9491 71.9894 60.0553 72.2868 60.1881C72.5843 60.3209 72.842 60.4843 73.0598 60.6782C73.2776 60.8721 73.4463 61.1005 73.5658 61.3635C73.688 61.6264 73.7504 61.9279 73.7531 62.2679C73.7504 62.7673 73.6229 63.2002 73.3706 63.5668C73.1209 63.9307 72.7597 64.2136 72.2868 64.4154C71.8167 64.6146 71.2496 64.7143 70.5856 64.7143C69.9268 64.7143 69.3531 64.6133 68.8644 64.4114C68.3783 64.2096 67.9984 63.9108 67.7249 63.515C67.4539 63.1166 67.3118 62.6238 67.2985 62.0368H68.968C68.9865 62.3104 69.0649 62.5388 69.203 62.7221C69.3438 62.9027 69.5311 63.0395 69.7648 63.1325C70.0012 63.2228 70.2682 63.268 70.5656 63.268C70.8578 63.268 71.1115 63.2255 71.3266 63.1405C71.5444 63.0555 71.7131 62.9373 71.8326 62.7859C71.9522 62.6345 72.0119 62.4605 72.0119 62.2639C72.0119 62.0806 71.9575 61.9266 71.8486 61.8017C71.7423 61.6769 71.5856 61.5707 71.3784 61.483C71.1739 61.3954 70.9229 61.3157 70.6254 61.2439L69.7369 61.0208C69.049 60.8535 68.5058 60.5919 68.1073 60.2359C67.7089 59.88 67.511 59.4006 67.5137 58.7976C67.511 58.3036 67.6425 57.8719 67.9081 57.5027C68.1764 57.1335 68.5443 56.8453 69.0118 56.6381C69.4793 56.4309 70.0105 56.3274 70.6055 56.3274C71.2111 56.3274 71.7397 56.4309 72.1912 56.6381C72.6454 56.8453 72.9987 57.1335 73.251 57.5027C73.5034 57.8719 73.6335 58.2996 73.6415 58.7857H71.988Z" fill="white"/>
<path d="M60.9984 64.5987V56.4389H66.4011V57.8613H62.7236V59.8056H66.0425V61.228H62.7236V64.5987H60.9984Z" fill="white"/>
<path d="M53.6355 64.5987V56.4389H56.8548C57.4711 56.4389 57.997 56.5491 58.4326 56.7696C58.8709 56.9874 59.2042 57.2968 59.4326 57.6979C59.6637 58.0963 59.7793 58.5651 59.7793 59.1044C59.7793 59.6462 59.6624 60.1124 59.4287 60.5028C59.1949 60.8906 58.8563 61.1881 58.4127 61.3953C57.9717 61.6025 57.4379 61.7061 56.811 61.7061H54.6555V60.3196H56.5321C56.8615 60.3196 57.135 60.2744 57.3529 60.1841C57.5707 60.0938 57.7327 59.9583 57.8389 59.7777C57.9478 59.5971 58.0023 59.3726 58.0023 59.1044C58.0023 58.8334 57.9478 58.605 57.8389 58.4191C57.7327 58.2331 57.5693 58.0923 57.3489 57.9967C57.1311 57.8984 56.8561 57.8493 56.5241 57.8493H55.3607V64.5987H53.6355ZM58.0421 60.8853L60.0701 64.5987H58.1656L56.1815 60.8853H58.0421Z" fill="white"/>
<path d="M52.2161 56.4389V64.5987H50.4909V56.4389H52.2161Z" fill="white"/>
<path d="M99.2 88.6C99.2 100.529 89.5294 110.2 77.6 110.2C65.6707 110.2 56 100.529 56 88.6C56 76.6707 65.6707 67 77.6 67C89.5294 67 99.2 76.6707 99.2 88.6Z" fill="#1BD3BA"/>
<path fill-rule="evenodd" clip-rule="evenodd" d="M77.6 106.456C87.4616 106.456 95.456 98.4616 95.456 88.6C95.456 78.7384 87.4616 70.744 77.6 70.744C67.7384 70.744 59.744 78.7384 59.744 88.6C59.744 98.4616 67.7384 106.456 77.6 106.456ZM77.6 110.2C89.5294 110.2 99.2 100.529 99.2 88.6C99.2 76.6707 89.5294 67 77.6 67C65.6707 67 56 76.6707 56 88.6C56 100.529 65.6707 110.2 77.6 110.2Z" fill="#3DE6CF"/>
<path d="M84.1695 95.8346V90.2778H86.3619C86.7833 90.2778 87.1424 90.3583 87.439 90.5193C87.7357 90.6785 87.9618 90.9 88.1173 91.184C88.2747 91.4662 88.3534 91.7918 88.3534 92.1608C88.3534 92.5298 88.2738 92.8554 88.1146 93.1376C87.9554 93.4198 87.7248 93.6395 87.4227 93.7969C87.1225 93.9543 86.7589 94.033 86.332 94.033H84.9347V93.0915H86.1421C86.3682 93.0915 86.5545 93.0526 86.701 92.9748C86.8493 92.8952 86.9597 92.7858 87.032 92.6465C87.1062 92.5054 87.1433 92.3435 87.1433 92.1608C87.1433 91.9763 87.1062 91.8153 87.032 91.6779C86.9597 91.5386 86.8493 91.4309 86.701 91.355C86.5527 91.2772 86.3646 91.2383 86.1367 91.2383H85.3444V95.8346H84.1695Z" fill="white"/>
<path d="M79.4118 95.8346H78.1529L80.0711 90.2778H81.5851L83.5007 95.8346H82.2418L80.8499 91.5476H80.8064L79.4118 95.8346ZM79.3331 93.6504H82.3069V94.5675H79.3331V93.6504Z" fill="white"/>
<path d="M73.6963 95.8346H72.4374L74.3557 90.2778H75.8697L77.7852 95.8346H76.5263L75.1344 91.5476H75.091L73.6963 95.8346ZM73.6177 93.6504H76.5914V94.5675H73.6177V93.6504Z" fill="white"/>
<path d="M70.7823 92.074C70.7443 91.9419 70.6909 91.8253 70.6222 91.724C70.5535 91.6209 70.4694 91.534 70.3699 91.4635C70.2722 91.3912 70.16 91.336 70.0334 91.298C69.9086 91.26 69.7702 91.241 69.6183 91.241C69.3343 91.241 69.0847 91.3116 68.8694 91.4527C68.656 91.5937 68.4896 91.799 68.3702 92.0686C68.2508 92.3363 68.1911 92.6637 68.1911 93.0508C68.1911 93.4379 68.2499 93.7671 68.3675 94.0384C68.4851 94.3097 68.6515 94.5168 68.8667 94.6597C69.082 94.8008 69.3361 94.8714 69.6292 94.8714C69.8951 94.8714 70.1221 94.8243 70.3102 94.7303C70.5001 94.6344 70.6448 94.4996 70.7443 94.326C70.8456 94.1524 70.8962 93.947 70.8962 93.7101L71.135 93.7454H69.7024V92.8608H72.0277V93.5609C72.0277 94.0492 71.9246 94.4689 71.7184 94.8198C71.5122 95.1689 71.2282 95.4384 70.8664 95.6284C70.5046 95.8165 70.0904 95.9105 69.6237 95.9105C69.1028 95.9105 68.6451 95.7957 68.2508 95.566C67.8565 95.3344 67.549 95.0061 67.3283 94.581C67.1094 94.1542 67 93.6477 67 93.0616C67 92.6112 67.0651 92.2097 67.1954 91.8569C67.3274 91.5024 67.5119 91.2021 67.7489 90.9561C67.9858 90.7101 68.2617 90.5229 68.5764 90.3945C68.8911 90.2661 69.2321 90.2018 69.5993 90.2018C69.914 90.2018 70.2071 90.248 70.4784 90.3402C70.7497 90.4307 70.9903 90.5591 71.2001 90.7255C71.4118 90.8919 71.5845 91.09 71.7184 91.3197C71.8522 91.5476 71.9381 91.799 71.9761 92.074H70.7823Z" fill="white"/>
<path d="M87.1691 81V86.5568H86.0132V81H87.1691Z" fill="white"/>
<path d="M82.7695 86.6354C82.5036 86.6354 82.2666 86.5893 82.0586 86.4971C81.8506 86.403 81.686 86.2646 81.5648 86.0819C81.4454 85.8974 81.3857 85.6677 81.3857 85.3928C81.3857 85.1612 81.4282 84.9668 81.5133 84.8094C81.5983 84.652 81.714 84.5254 81.8605 84.4296C82.0071 84.3337 82.1735 84.2613 82.3598 84.2125C82.5479 84.1637 82.7451 84.1293 82.9513 84.1094C83.1937 84.0841 83.389 84.0606 83.5373 84.0388C83.6857 84.0153 83.7933 83.981 83.8602 83.9357C83.9272 83.8905 83.9606 83.8236 83.9606 83.735V83.7187C83.9606 83.5468 83.9064 83.4139 83.7978 83.3198C83.6911 83.2258 83.5392 83.1787 83.342 83.1787C83.134 83.1787 82.9685 83.2249 82.8455 83.3171C82.7225 83.4076 82.6411 83.5215 82.6013 83.659L81.5322 83.5722C81.5865 83.3189 81.6932 83.1001 81.8524 82.9156C82.0116 82.7292 82.2169 82.5863 82.4683 82.4869C82.7216 82.3856 83.0146 82.3349 83.3474 82.3349C83.579 82.3349 83.8005 82.3621 84.0122 82.4163C84.2256 82.4706 84.4146 82.5547 84.5792 82.6687C84.7457 82.7826 84.8768 82.9291 84.9727 83.1082C85.0685 83.2855 85.1165 83.498 85.1165 83.7458V86.5568H84.0203V85.9788H83.9878C83.9208 86.1091 83.8313 86.2239 83.7191 86.3234C83.607 86.4211 83.4722 86.498 83.3149 86.554C83.1575 86.6083 82.9757 86.6354 82.7695 86.6354ZM83.1005 85.8377C83.2705 85.8377 83.4207 85.8043 83.5509 85.7374C83.6812 85.6686 83.7834 85.5764 83.8575 85.4606C83.9317 85.3448 83.9688 85.2137 83.9688 85.0672V84.6249C83.9326 84.6484 83.8828 84.6701 83.8195 84.69C83.758 84.7081 83.6884 84.7253 83.6106 84.7416C83.5328 84.7561 83.455 84.7696 83.3773 84.7823C83.2995 84.7931 83.2289 84.8031 83.1656 84.8121C83.03 84.832 82.9115 84.8637 82.8102 84.9071C82.7089 84.9505 82.6302 85.0093 82.5741 85.0835C82.5181 85.1558 82.49 85.2463 82.49 85.3548C82.49 85.5122 82.547 85.6324 82.661 85.7156C82.7767 85.797 82.9232 85.8377 83.1005 85.8377Z" fill="white"/>
<path d="M78.9797 86.6382C78.5528 86.6382 78.1857 86.5477 77.8782 86.3668C77.5725 86.1841 77.3373 85.9309 77.1727 85.6071C77.0099 85.2833 76.9285 84.9107 76.9285 84.4893C76.9285 84.0624 77.0108 83.6879 77.1754 83.366C77.3418 83.0422 77.5779 82.7898 77.8836 82.609C78.1893 82.4263 78.5529 82.3349 78.9743 82.3349C79.3379 82.3349 79.6562 82.4009 79.9294 82.533C80.2025 82.665 80.4187 82.8504 80.5779 83.0892C80.737 83.328 80.8248 83.6083 80.841 83.9303H79.7503C79.7196 83.7223 79.6382 83.555 79.5061 83.4284C79.3759 83.2999 79.2049 83.2357 78.9933 83.2357C78.8142 83.2357 78.6578 83.2846 78.5239 83.3822C78.3919 83.4781 78.2888 83.6183 78.2146 83.8028C78.1404 83.9873 78.1034 84.2107 78.1034 84.473C78.1034 84.7389 78.1395 84.965 78.2119 85.1513C78.286 85.3376 78.3901 85.4796 78.5239 85.5773C78.6578 85.6749 78.8142 85.7238 78.9933 85.7238C79.1254 85.7238 79.2438 85.6967 79.3487 85.6424C79.4555 85.5881 79.5432 85.5094 79.6119 85.4063C79.6825 85.3014 79.7286 85.1757 79.7503 85.0292H80.841C80.8229 85.3476 80.7361 85.6279 80.5806 85.8703C80.4268 86.1109 80.2143 86.299 79.9429 86.4347C79.6716 86.5703 79.3505 86.6382 78.9797 86.6382Z" fill="white"/>
<path d="M74.2939 86.6382C73.8725 86.6382 73.508 86.5486 73.2005 86.3695C72.8948 86.1887 72.6587 85.9372 72.4923 85.6153C72.3259 85.2915 72.2427 84.9161 72.2427 84.4893C72.2427 84.0587 72.3259 83.6825 72.4923 83.3605C72.6587 83.0368 72.8948 82.7853 73.2005 82.6062C73.508 82.4254 73.8725 82.3349 74.2939 82.3349C74.7154 82.3349 75.079 82.4254 75.3847 82.6062C75.6922 82.7853 75.9291 83.0368 76.0955 83.3605C76.262 83.6825 76.3452 84.0587 76.3452 84.4893C76.3452 84.9161 76.262 85.2915 76.0955 85.6153C75.9291 85.9372 75.6922 86.1887 75.3847 86.3695C75.079 86.5486 74.7154 86.6382 74.2939 86.6382ZM74.2994 85.7428C74.4911 85.7428 74.6512 85.6885 74.7796 85.58C74.908 85.4696 75.0048 85.3195 75.0699 85.1296C75.1369 84.9397 75.1703 84.7235 75.1703 84.4811C75.1703 84.2387 75.1369 84.0226 75.0699 83.8326C75.0048 83.6427 74.908 83.4926 74.7796 83.3822C74.6512 83.2719 74.4911 83.2167 74.2994 83.2167C74.1058 83.2167 73.943 83.2719 73.811 83.3822C73.6807 83.4926 73.5822 83.6427 73.5152 83.8326C73.4501 84.0226 73.4175 84.2387 73.4175 84.4811C73.4175 84.7235 73.4501 84.9397 73.5152 85.1296C73.5822 85.3195 73.6807 85.4696 73.811 85.58C73.943 85.6885 74.1058 85.7428 74.2994 85.7428Z" fill="white"/>
<path d="M68.0975 86.5568V81H69.2724V85.5881H71.6546V86.5568H68.0975Z" fill="white"/>
<path d="M66.2 88.4C66.2 100.329 56.5294 110 44.6 110C32.6707 110 23 100.329 23 88.4C23 76.4707 32.6707 66.8 44.6 66.8C56.5294 66.8 66.2 76.4707 66.2 88.4Z" fill="#FBB944"/>
<path fill-rule="evenodd" clip-rule="evenodd" d="M44.6 106.256C54.4616 106.256 62.456 98.2616 62.456 88.4C62.456 78.5384 54.4616 70.544 44.6 70.544C34.7384 70.544 26.744 78.5384 26.744 88.4C26.744 98.2616 34.7384 106.256 44.6 106.256ZM44.6 110C56.5294 110 66.2 100.329 66.2 88.4C66.2 76.4707 56.5294 66.8 44.6 66.8C32.6707 66.8 23 76.4707 23 88.4C23 100.329 32.6707 110 44.6 110Z" fill="#FCCD78"/>
<path d="M55.7932 91.5235V85.4915H57.0686V90.472H59.6546V91.5235H55.7932Z" fill="white"/>
<path d="M50.6287 91.5235H49.2621L51.3444 85.4915H52.9879L55.0673 91.5235H53.7007L52.1897 86.8699H52.1426L50.6287 91.5235ZM50.5433 89.1525H53.7713V90.148H50.5433V89.1525Z" fill="white"/>
<path d="M48.7878 87.6033H47.4978C47.4742 87.4364 47.4261 87.2882 47.3535 87.1586C47.2808 87.027 47.1875 86.9151 47.0737 86.8228C46.9598 86.7305 46.8282 86.6598 46.679 86.6107C46.5317 86.5617 46.3717 86.5371 46.1989 86.5371C45.8867 86.5371 45.6148 86.6147 45.3831 86.7698C45.1514 86.923 44.9717 87.1468 44.8441 87.4413C44.7164 87.7339 44.6526 88.0893 44.6526 88.5075C44.6526 88.9375 44.7164 89.2988 44.8441 89.5914C44.9737 89.884 45.1543 90.1049 45.386 90.2541C45.6177 90.4033 45.8857 90.4779 46.1901 90.4779C46.3609 90.4779 46.519 90.4554 46.6643 90.4102C46.8115 90.365 46.9421 90.2993 47.056 90.2129C47.1699 90.1245 47.2641 90.0175 47.3387 89.8918C47.4153 89.7662 47.4683 89.6228 47.4978 89.4618L48.7878 89.4677C48.7545 89.7446 48.671 90.0116 48.5375 90.2688C48.4059 90.5241 48.2282 90.7528 48.0044 90.9551C47.7825 91.1554 47.5174 91.3144 47.2091 91.4322C46.9028 91.5481 46.5563 91.606 46.1695 91.606C45.6314 91.606 45.1504 91.4843 44.7262 91.2408C44.3041 90.9973 43.9703 90.6448 43.7248 90.1834C43.4814 89.722 43.3596 89.1634 43.3596 88.5075C43.3596 87.8497 43.4833 87.2901 43.7307 86.8287C43.9781 86.3673 44.3139 86.0158 44.738 85.7743C45.1622 85.5308 45.6393 85.4091 46.1695 85.4091C46.519 85.4091 46.8429 85.4581 47.1414 85.5563C47.4418 85.6545 47.7079 85.7978 47.9396 85.9863C48.1713 86.1729 48.3598 86.4016 48.5051 86.6726C48.6524 86.9436 48.7466 87.2538 48.7878 87.6033Z" fill="white"/>
<path d="M41.3031 87.2263C41.2795 86.9887 41.1784 86.8042 40.9997 86.6726C40.821 86.541 40.5786 86.4753 40.2722 86.4753C40.0641 86.4753 39.8884 86.5047 39.745 86.5636C39.6017 86.6206 39.4917 86.7001 39.4152 86.8022C39.3405 86.9043 39.3032 87.0201 39.3032 87.1497C39.2993 87.2577 39.3219 87.352 39.371 87.4325C39.422 87.513 39.4917 87.5827 39.5801 87.6416C39.6684 87.6985 39.7706 87.7486 39.8864 87.7918C40.0023 87.8331 40.126 87.8684 40.2575 87.8979L40.7994 88.0274C41.0626 88.0863 41.3041 88.1649 41.524 88.2631C41.7439 88.3612 41.9344 88.482 42.0954 88.6253C42.2564 88.7687 42.3811 88.9375 42.4694 89.1319C42.5598 89.3263 42.6059 89.5492 42.6079 89.8005C42.6059 90.1697 42.5117 90.4897 42.3251 90.7607C42.1405 91.0297 41.8735 91.2388 41.524 91.388C41.1764 91.5353 40.7572 91.6089 40.2663 91.6089C39.7794 91.6089 39.3553 91.5343 38.994 91.3851C38.6346 91.2359 38.3539 91.015 38.1516 90.7224C37.9513 90.4279 37.8463 90.0636 37.8365 89.6297H39.0705C39.0843 89.8319 39.1422 90.0008 39.2443 90.1363C39.3484 90.2698 39.4868 90.3709 39.6596 90.4397C39.8344 90.5064 40.0317 90.5398 40.2516 90.5398C40.4676 90.5398 40.6551 90.5084 40.8142 90.4455C40.9752 90.3827 41.0999 90.2953 41.1882 90.1834C41.2766 90.0715 41.3208 89.9429 41.3208 89.7976C41.3208 89.6621 41.2805 89.5482 41.2 89.4559C41.1215 89.3636 41.0056 89.2851 40.8525 89.2203C40.7013 89.1555 40.5157 89.0966 40.2958 89.0436L39.639 88.8786C39.1304 88.7549 38.7289 88.5615 38.4344 88.2984C38.1398 88.0353 37.9935 87.6809 37.9955 87.2352C37.9935 86.8699 38.0907 86.5509 38.2871 86.2779C38.4854 86.005 38.7574 85.792 39.1029 85.6388C39.4485 85.4856 39.8412 85.4091 40.2811 85.4091C40.7288 85.4091 41.1195 85.4856 41.4533 85.6388C41.7891 85.792 42.0502 86.005 42.2368 86.2779C42.4233 86.5509 42.5195 86.867 42.5254 87.2263H41.3031Z" fill="white"/>
<path d="M36.9816 85.4915V91.5235H35.7063V85.4915H36.9816Z" fill="white"/>
<path d="M30.8546 91.5235V85.4915H34.8484V86.5429H32.1299V87.9803H34.5833V89.0317H32.1299V91.5235H30.8546Z" fill="white"/>
</g>
<defs>
<filter id="filter0_d_7_114" x="0" y="20.614" width="120" height="120" filterUnits="userSpaceOnUse" color-interpolation-filters="sRGB">
<feFlood flood-opacity="0" result="BackgroundImageFix"/>
<feColorMatrix in="SourceAlpha" type="matrix" values="0 0 0 0 0 0 0 0 0 0 0 0 0 0 0 0 0 0 127 0" result="hardAlpha"/>
<feOffset dy="2"/>
<feGaussianBlur stdDeviation="2"/>
<feColorMatrix type="matrix" values="0 0 0 0 0 0 0 0 0 0 0 0 0 0 0 0 0 0 0.106063 0"/>
<feBlend mode="normal" in2="BackgroundImageFix" result="effect1_dropShadow_7_114"/>
<feBlend mode="normal" in="SourceGraphic" in2="effect1_dropShadow_7_114" result="shape"/>
</filter>
<linearGradient id="paint0_linear_7_114" x1="10227.8" y1="11222.6" x2="2883.18" y2="22.6135" gradientUnits="userSpaceOnUse">
<stop stop-color="#875A7B"/>
<stop offset="1" stop-color="#6B4862"/>
</linearGradient>
<clipPath id="clip0_7_114">
<rect width="120" height="140" fill="white"/>
</clipPath>
</defs>
</svg>
