<svg width="24" height="25" viewBox="0 0 24 25" fill="none" xmlns="http://www.w3.org/2000/svg">
<g id="Group">
<path id="Vector" d="M21 16.46V19.996C21.0001 20.2492 20.9042 20.493 20.7316 20.6782C20.559 20.8635 20.3226 20.9763 20.07 20.994C19.633 21.024 19.276 21.04 19 21.04C10.163 21.04 3 13.877 3 5.04004C3 4.76404 3.015 4.40704 3.046 3.97004C3.06372 3.71748 3.17658 3.48105 3.3618 3.30845C3.54703 3.13585 3.79082 3.03992 4.044 3.04004H7.58C7.70404 3.03991 7.8237 3.0859 7.91573 3.16906C8.00776 3.25222 8.0656 3.36662 8.078 3.49004C8.101 3.72004 8.122 3.90304 8.142 4.04204C8.34073 5.42896 8.748 6.77787 9.35 8.04304C9.445 8.24304 9.383 8.48204 9.203 8.61004L7.045 10.152C8.36445 13.2265 10.8145 15.6766 13.889 16.996L15.429 14.842C15.4919 14.754 15.5838 14.6909 15.6885 14.6637C15.7932 14.6365 15.9042 14.6468 16.002 14.693C17.267 15.2939 18.6156 15.7002 20.002 15.898C20.141 15.918 20.324 15.94 20.552 15.962C20.6752 15.9747 20.7894 16.0326 20.8724 16.1246C20.9553 16.2166 21.0012 16.3362 21.001 16.46H21Z" fill="white"/>
</g>
</svg>
