<svg width="24" height="8" viewBox="0 0 24 8" fill="none" xmlns="http://www.w3.org/2000/svg">
<path d="M2 0V8H21V0H2ZM14.36 5.56C14.45 5.65 14.5 5.75 14.5 5.87C14.5 5.99 14.45 6.1 14.36 6.18L13.69 6.8C13.6 6.89 13.49 6.93 13.35 6.93C13.21 6.93 13.11 6.89 13.01 6.8L11.56 5.46L10.11 6.8C10.02 6.89 9.91 6.93 9.77 6.93C9.63 6.93 9.53 6.89 9.43 6.8L8.76 6.18C8.67 6.09 8.62 5.99 8.62 5.87C8.62 5.75 8.67 5.64 8.76 5.56L10.21 4.22L8.76 2.88C8.67 2.79 8.62 2.69 8.62 2.57C8.62 2.45 8.67 2.34 8.76 2.26L9.43 1.64C9.52 1.55 9.63 1.51 9.77 1.51C9.91 1.51 10.01 1.55 10.11 1.64L11.56 2.98L13.01 1.64C13.1 1.55 13.21 1.51 13.35 1.51C13.49 1.51 13.59 1.55 13.69 1.64L14.36 2.26C14.45 2.35 14.5 2.45 14.5 2.57C14.5 2.69 14.45 2.8 14.36 2.88L12.91 4.22L14.36 5.56Z" fill="white"/>
</svg>
