<svg xmlns="http://www.w3.org/2000/svg" viewBox="0 0 100 100">
  <g id="Annual_Time_Off" data-name="Annual Time Off">
    <g>
      <g>
        <path d="M30.5,32.12V16.21a2.5,2.5,0,0,0-5,0V32.12a2.5,2.5,0,0,0,5,0Z" fill="#875b7b"/>
        <path d="M52.5,32.12V16.21a2.5,2.5,0,0,0-5,0V32.12a2.5,2.5,0,1,0,5,0Z" fill="#875b7b"/>
        <path d="M74.5,32.12V16.21a2.5,2.5,0,0,0-5,0V32.12a2.5,2.5,0,1,0,5,0Z" fill="#875b7b"/>
      </g>
      <g>
        <path d="M36,72H28.56a2,2,0,0,1,0-4H34V57.08H28.57a2,2,0,0,1,0-4H36a2,2,0,0,1,2,2V70A2,2,0,0,1,36,72Z" fill="#875b7b"/>
        <g>
          <path d="M35.54,64.47h-7a2,2,0,0,1,0-4h7a2,2,0,0,1,0,4Z" fill="#875b7b"/>
          <path d="M53.73,72H46.29a2,2,0,0,1-2-2V55.08a2,2,0,0,1,2-2h7.45a2,2,0,0,1,0,4H48.29v3.39h5.44a2,2,0,0,1,2,2V70A2,2,0,0,1,53.73,72Zm-5.44-4h3.44V64.47H48.29Z" fill="#875b7b"/>
          <path d="M71.44,72H64a2,2,0,1,1,0-4h5.44V64.47H64a2,2,0,0,1-2-2V55.08a2,2,0,0,1,2-2h7.44a2,2,0,0,1,0,4H66v3.39h5.44a2,2,0,0,1,2,2V70A2,2,0,0,1,71.44,72Z" fill="#875b7b"/>
        </g>
      </g>
      <path d="M80.29,21.89H79.5V32.12a7.53,7.53,0,0,1-7.27,7.49h-.32a7.56,7.56,0,0,1-7.41-7.5V21.89h-7V32.12a7.53,7.53,0,0,1-7.27,7.49h-.32a7.56,7.56,0,0,1-7.41-7.5V21.89h-7V32.12a7.53,7.53,0,0,1-7.27,7.49h-.32a7.56,7.56,0,0,1-7.41-7.5V21.89h-.79a8.88,8.88,0,0,0-8.87,8.87V77.42a8.88,8.88,0,0,0,8.87,8.87H80.29a8.88,8.88,0,0,0,8.87-8.87V30.76A8.88,8.88,0,0,0,80.29,21.89Zm3.87,55.53a3.87,3.87,0,0,1-3.87,3.87H19.71a3.87,3.87,0,0,1-3.87-3.87V43.32H84.16Z" fill="#875b7b"/>
    </g>
  </g>
</svg>
