<svg version="1.1" xmlns="http://www.w3.org/2000/svg" xmlns:xlink="http://www.w3.org/1999/xlink" width="70" height="70" viewBox="0,0,70,70" xmlns:odoo-icon="https://ivantodorovich.github.io/odoo-icon" odoo-icon:version="1.0" odoo-icon:size="70" odoo-icon:icon-size="0.65" odoo-icon:icon-color="#FFFFFF" odoo-icon:icon-flat-shadow-angle="135" odoo-icon:background-color="#35979c" odoo-icon:background-gradient="0.2" odoo-icon:box-radius="3.5" odoo-icon:odoo-version="14.0"><defs><linearGradient x1="70" y1="0" x2="0" y2="70" gradientUnits="userSpaceOnUse" id="color-1"><stop offset="0" stop-color="#68cacf"/><stop offset="1" stop-color="#35979c"/></linearGradient></defs><g fill="none" fill-rule="nonzero" stroke="none" stroke-width="1" stroke-linecap="butt" stroke-linejoin="miter" stroke-miterlimit="10" stroke-dasharray="" stroke-dashoffset="0" font-family="none" font-weight="none" font-size="none" text-anchor="none" style="mix-blend-mode: normal"><path d="M3.5,70c-1.933,0 -3.5,-1.567 -3.5,-3.5v-63c0,-1.933 1.567,-3.5 3.5,-3.5h63c1.933,0 3.5,1.567 3.5,3.5v63c0,1.933 -1.567,3.5 -3.5,3.5z" id="box" fill="url(#color-1)"/><path d="M65,1h-61c-1.95033,0 -3.2667,0.63396 -3.9491,1.90189c0.28378,-1.64806 1.72001,-2.90189 3.4491,-2.90189h63c1.72965,0 3.16627,1.25466 3.44938,2.90352c-0.69803,-1.26902 -2.34782,-1.90352 -4.94938,-1.90352z" id="topBoxShadow" fill="#fefffe" opacity="0.383"/><path d="M4,69h61c2.66667,0 4.33333,-1 5,-3v0.5c0,1.933 -1.567,3.5 -3.5,3.5h-63c-1.933,0 -3.5,-1.567 -3.5,-3.5c0,-0.1611 0,-0.32777 0,-0.5c0.66667,2 2,3 4,3z" id="bottomBoxShadow" fill="#000000" opacity="0.383"/><path d="M55.62034,44.13211h-32.04599c0.43594,-0.87645 0.87442,-1.77218 1.3063,-2.68213c0.0477,-0.09693 0.09338,-0.19843 0.13855,-0.28927c2.68822,-0.31719 5.7053,-2.23198 9.02383,-5.72915c1.05661,2.39083 2.78921,4.93035 5.48149,5.43988c1.04088,0.19843 2.67452,0.15682 4.53957,-1.15202c0.65467,-0.46741 1.25809,-1.00282 1.8001,-1.59761c1.6514,1.51082 4.57561,2.83895 9.75564,2.83895c1.31391,0 2.37915,-1.06524 2.37915,-2.37865c0,-1.31391 -1.06524,-2.37865 -2.37865,-2.37865c-6.47467,0 -7.09889,-2.30151 -7.13644,-2.49791c-0.05735,-1.10939 -0.87442,-2.03152 -1.96909,-2.22132c-1.09467,-0.1898 -2.17463,0.40295 -2.60245,1.42861c-1.85744,2.7613 -3.0927,3.3703 -3.50072,3.29062c-0.97338,-0.18422 -2.46797,-3.11249 -3.07696,-6.02451c-0.19792,-0.96374 -0.96881,-1.7057 -1.93915,-1.86759c-0.97034,-0.16189 -1.94017,0.2908 -2.44005,1.13781c-1.98229,2.45426 -3.67936,4.14931 -5.09072,5.25362c4.22442,-10.5443 3.39973,-14.37642 2.27359,-16.36886c-0.99114,-1.75848 -2.77551,-2.73186 -5.02728,-2.74151h-0.06344c-3.56822,0.02588 -6.42899,3.3028 -7.67794,8.77617c-0.68411,2.99932 -0.79271,6.31988 -0.28927,9.10706c0.52323,2.91203 1.6514,5.08869 3.29265,6.38738c-0.70796,1.46312 -1.42759,2.90035 -2.13099,4.27009h-3.85597c-1.31391,0 -2.37865,1.06524 -2.37865,2.37915c0,1.31391 1.06524,2.37915 2.37915,2.37915h1.32406c-1.91885,3.50275 -3.33832,5.8677 -3.3703,5.90982c-0.32531,0.54049 -0.42224,1.18856 -0.26999,1.80111c0.15225,0.61255 0.54201,1.13883 1.08249,1.46413c0.37149,0.22533 0.7983,0.34358 1.23322,0.34104c0.83483,0.00051 1.60928,-0.43645 2.04014,-1.15202c0.12281,-0.20807 2.16702,-3.60578 4.70045,-8.36357h34.49416c1.31391,0 2.37915,-1.06524 2.37915,-2.37865c0,-1.31391 -1.06524,-2.37865 -2.37865,-2.37865zM48.4839,33.82329v-0.10708c0.00304,0.03552 0.00304,0.07156 0,0.10708zM22.00669,25.41963c0.66026,-2.89629 1.98229,-5.07701 3.08458,-5.07701c0.72775,0 0.84245,0.19843 0.91197,0.32531c0.28369,0.50344 1.29869,3.38806 -3.45353,14.43224c-0.38215,-0.77901 -0.64808,-1.60979 -0.78916,-2.46594c-0.38468,-2.39793 -0.30095,-4.84763 0.24563,-7.21409z" id="shadow" fill="#000000" opacity="0.3"/><path d="M20.73199,15.51697c1.23904,-1.23904 2.70529,-1.91286 4.31563,-1.92454h0.06344c2.25177,0.00964 4.03614,0.98302 5.02728,2.74151c1.11007,1.964 1.92722,5.71555 -2.09579,15.92146l5.27958,-5.27958c0.53474,-0.53474 1.3039,-0.79284 2.07338,-0.66446c0.97034,0.16189 1.74123,0.90385 1.93915,1.86759c0.60165,2.8769 2.06765,5.76964 3.04151,6.01665l4.04918,-4.04918c0.53455,-0.53455 1.30825,-0.79763 2.08945,-0.66218c1.09467,0.1898 1.91175,1.11193 1.96909,2.22132c0.03755,0.1964 0.66178,2.49791 7.13644,2.49791c1.31341,0 2.37865,1.06473 2.37865,2.37865c0,0.65664 -0.26626,1.25125 -0.69673,1.68173l-3.86828,3.86828h2.18637l0.00101,0.00254c1.31341,0 2.37865,1.06473 2.37865,2.37865c0,0.65664 -0.26626,1.25125 -0.69673,1.68173l-23.80498,23.80498h-29.99828c-1.933,0 -3.5,-1.567 -3.5,-3.5l0,-30.25104z" id="flatShadow" fill="#000000" opacity="0.324"/><path d="M55.62034,42.13211h-32.04599c0.43594,-0.87645 0.87442,-1.77218 1.3063,-2.68213c0.0477,-0.09693 0.09338,-0.19843 0.13855,-0.28927c2.68822,-0.31719 5.7053,-2.23198 9.02383,-5.72915c1.05661,2.39083 2.78921,4.93035 5.48149,5.43988c1.04088,0.19843 2.67452,0.15682 4.53957,-1.15202c0.65467,-0.46741 1.25809,-1.00282 1.8001,-1.59761c1.6514,1.51082 4.57561,2.83895 9.75564,2.83895c1.31391,0 2.37915,-1.06524 2.37915,-2.37865c0,-1.31391 -1.06524,-2.37865 -2.37865,-2.37865c-6.47467,0 -7.09889,-2.30151 -7.13644,-2.49791c-0.05735,-1.10939 -0.87442,-2.03152 -1.96909,-2.22132c-1.09467,-0.1898 -2.17463,0.40295 -2.60245,1.42861c-1.85744,2.7613 -3.0927,3.3703 -3.50072,3.29062c-0.97338,-0.18422 -2.46797,-3.11249 -3.07696,-6.02451c-0.19792,-0.96374 -0.96881,-1.7057 -1.93915,-1.86759c-0.97034,-0.16189 -1.94017,0.2908 -2.44005,1.13781c-1.98229,2.45426 -3.67936,4.14931 -5.09072,5.25362c4.22442,-10.5443 3.39973,-14.37642 2.27359,-16.36886c-0.99114,-1.75848 -2.77551,-2.73186 -5.02728,-2.74151h-0.06344c-3.56822,0.02588 -6.42899,3.3028 -7.67794,8.77617c-0.68411,2.99932 -0.79271,6.31988 -0.28927,9.10706c0.52323,2.91203 1.6514,5.08869 3.29265,6.38738c-0.70796,1.46312 -1.42759,2.90035 -2.13099,4.27009h-3.85597c-1.31391,0 -2.37865,1.06524 -2.37865,2.37915c0,1.31391 1.06524,2.37915 2.37915,2.37915h1.32406c-1.91885,3.50275 -3.33832,5.8677 -3.3703,5.90982c-0.32531,0.54049 -0.42224,1.18856 -0.26999,1.80111c0.15225,0.61255 0.54201,1.13883 1.08249,1.46413c0.37149,0.22533 0.7983,0.34358 1.23322,0.34104c0.83483,0.00051 1.60928,-0.43645 2.04014,-1.15202c0.12281,-0.20807 2.16702,-3.60578 4.70045,-8.36357h34.49416c1.31391,0 2.37915,-1.06524 2.37915,-2.37865c0,-1.31391 -1.06524,-2.37865 -2.37865,-2.37865zM48.4839,31.82329v-0.10708c0.00304,0.03552 0.00304,0.07156 0,0.10708zM22.00669,23.41963c0.66026,-2.89629 1.98229,-5.07701 3.08458,-5.07701c0.72775,0 0.84245,0.19843 0.91197,0.32531c0.28369,0.50344 1.29869,3.38806 -3.45353,14.43224c-0.38215,-0.77901 -0.64808,-1.60979 -0.78916,-2.46594c-0.38468,-2.39793 -0.30095,-4.84763 0.24563,-7.21409z" id="icon" fill="#ffffff"/></g></svg>