<svg width="64" height="64" viewBox="0 0 64 64" fill="none" xmlns="http://www.w3.org/2000/svg">
<path d="M51.8288 2.55638C52.0805 2.55638 52.3323 2.62152 52.5578 2.7518L54.158 3.67631C54.6084 3.93658 54.886 4.41727 54.8862 4.93752L54.897 36.072C54.8971 36.592 54.6203 37.0726 54.1704 37.3333L12.9021 61.2475C12.6762 61.3784 12.4238 61.4438 12.1715 61.4438C11.9198 61.4438 11.668 61.3787 11.4425 61.2484L9.84226 60.3238C9.39179 60.0635 9.11424 59.5828 9.11405 59.0626L9.10311 27.9344C9.10292 27.4145 9.37975 26.9339 9.82955 26.6732L51.0981 2.75283C51.3241 2.62186 51.5764 2.55638 51.8288 2.55638ZM51.8288 1.64209C51.4117 1.64209 51.0005 1.75263 50.6396 1.96179L9.37106 25.8822C8.64155 26.3051 8.18855 27.0916 8.18884 27.9348L8.19979 59.063C8.20009 59.9068 8.65419 60.6933 9.38489 61.1154L10.9851 62.04C11.3453 62.2481 11.7555 62.3581 12.1715 62.3581C12.5885 62.3581 12.9997 62.2476 13.3605 62.0385L54.6288 38.1244C55.3585 37.7016 55.8116 36.915 55.8113 36.0717L55.8005 4.93722C55.8002 4.09334 55.3461 3.30684 54.6154 2.88465L53.0152 1.96015C52.655 1.75206 52.2448 1.64209 51.8288 1.64209Z" fill="#374874"/>
<path d="M54.8858 4.09686L51.8276 2.32996L9.10278 27.0945L12.161 28.8614L54.8858 4.09686Z" fill="white"/>
<path d="M12.1725 61.6702L9.11433 59.9033L9.10278 27.0945L12.161 28.8614L12.1725 61.6702Z" fill="#FBDBD0"/>
<path d="M12.1726 61.6702L54.8972 36.9121L54.8857 4.10339L12.161 28.8614L12.1726 61.6702Z" fill="white"/>
<path d="M54.891 20.5496L12.1666 45.2097V34.0217L54.891 9.36157V20.5496Z" fill="#374874"/>
<path d="M49.0564 35.9273L31.7461 45.8722C31.213 46.1777 30.5331 45.9932 30.2276 45.4601C30.1309 45.2913 30.0801 45.1002 30.0803 44.9057V42.6122C30.0816 41.8655 30.4807 41.1762 31.1276 40.8034L49.1186 30.4856C49.5803 30.2213 50.169 30.3814 50.4333 30.8431C50.5167 30.9888 50.5605 31.1537 50.5606 31.3216V33.3323C50.5595 34.4041 49.9859 35.3936 49.0564 35.9273Z" fill="#C1DBF6"/>
<path d="M18.2645 50.7359C18.1862 49.5732 18.4754 48.4154 19.0912 47.4261C18.4364 47.0959 17.6638 47.0959 17.009 47.4261C15.309 48.1906 14.0815 50.478 14.2648 52.5322C14.4482 54.5864 15.9772 55.64 17.6834 54.8661C18.4872 54.4703 19.1548 53.8438 19.6009 53.0667C18.8768 52.6969 18.3671 51.8764 18.2645 50.7359Z" fill="#FBDBD0"/>
<path d="M24.4211 47.9699C24.2377 45.9157 22.7087 44.8621 21.0025 45.6391C20.1986 46.0345 19.5302 46.6597 19.0819 47.4354C19.7998 47.8207 20.325 48.6443 20.412 49.7755C20.4899 50.9372 20.2007 52.0939 19.5854 53.0822C20.24 53.4129 21.0129 53.4129 21.6676 53.0822C23.3769 52.3115 24.6044 50.0273 24.4211 47.9699Z" fill="#C1DBF6"/>
<path d="M20.4214 49.7756C20.3188 48.6444 19.7998 47.8208 19.0912 47.4354C18.4774 48.4221 18.1882 49.5764 18.2646 50.7359C18.3671 51.8671 18.8861 52.6876 19.5947 53.0729C20.2081 52.0872 20.4972 50.9341 20.4214 49.7756Z" fill="#374874"/>
</svg>
