<svg width="700" height="1461" viewBox="0 0 700 1461" fill="none" xmlns="http://www.w3.org/2000/svg" data-vsvg="002" class="theme_bistro_svg_preview">
    <defs>
        <pattern id="theme_bistro_s_cover_default_image_id" width="1" height="1" patternunits="objectBoundingBox">
            <image href="#s_cover_default_image_url" width="700" height="200" preserveAspectRatio="xMidYMid slice"></image>
        </pattern>
        <pattern id="theme_bistro_s_media_list_default_image_1_id" width="1" height="1" patternunits="objectBoundingBox">
            <image href="#s_media_list_default_image_1_url" width="125" height="116" preserveAspectRatio="xMidYMid slice"></image>
        </pattern>
        <pattern id="theme_bistro_s_image_text_default_image_id" width="1" height="1" patternunits="objectBoundingBox">
            <image href="#s_image_text_default_image_url" width="125" height="116" preserveAspectRatio="xMidYMid slice"></image>
        </pattern>
        <pattern id="theme_bistro_s_media_list_default_image_2_id" width="1" height="1" patternunits="objectBoundingBox">
            <image href="#s_media_list_default_image_2_url" width="125" height="116" preserveAspectRatio="xMidYMid slice"></image>
        </pattern>
        <pattern id="theme_bistro_s_text_image_default_image_id" width="1" height="1" patternunits="objectBoundingBox">
            <image href="#s_text_image_default_image_url" width="125" height="116" preserveAspectRatio="xMidYMid slice"></image>
        </pattern>
        <pattern id="theme_bistro_s_quotes_carousel_demo_image_1_id" width="1" height="1" patternunits="objectBoundingBox">
            <image href="#s_quotes_carousel_demo_image_1_url"  width="700" height="241" preserveAspectRatio="xMidYMid slice"></image>
        </pattern>
        <pattern id="theme_bistro_library_image_10_id" width="1" height="1" patternunits="objectBoundingBox">
            <image href="#library_image_10_url"  width="350" height="137" preserveAspectRatio="xMidYMid slice"></image>
        </pattern>
        <pattern id="theme_bistro_library_image_05_id" width="1" height="1" patternunits="objectBoundingBox">
            <image href="#library_image_05_url" width="350" height="136" preserveAspectRatio="xMidYMid slice"></image>
        </pattern>
        <pattern id="theme_bistro_s_pricelist_cafe_default_image_id" width="1" height="1" patternunits="objectBoundingBox">
            <image href="/website/static/src/img/snippets_demo/s_pricelist_cafe_default_image.png" width="110" height="110"></image>
        </pattern>
        <filter id="filter_readability_theme_bistro">
            <feColorMatrix in="SourceGraphic" type="saturate" values="0"></feColorMatrix>
            <feComponentTransfer>
                <feFuncR type="table" tableValues="1 0"></feFuncR>
                <feFuncG type="table" tableValues="1 0"></feFuncG>
                <feFuncB type="table" tableValues="1 0"></feFuncB>
            </feComponentTransfer>
            <feComponentTransfer>
                <feFuncR type="linear" slope="10000" intercept="-4999.5"></feFuncR>
                <feFuncG type="linear" slope="10000" intercept="-4999.5"></feFuncG>
                <feFuncB type="linear" slope="10000" intercept="-4999.5"></feFuncB>
            </feComponentTransfer>
        </filter>
    </defs>
    <rect width="700" height="1461" fill="#ACACAC"></rect>
    <g clip-path="url(#clip0_250_2)" class="theme_bistro">
        <rect width="700" height="1461" fill="#FFFFFF"></rect>
        <g class="svgc_menu">
            <path d="M700 0H0V65H700V0Z" fill="#MENU_COLOR" class="svgc_menu_bg"></path>
            <path d="M622.5 12H591.5C587.358 12 584 15.3579 584 19.5C584 23.6421 587.358 27 591.5 27H622.5C626.642 27 630 23.6421 630 19.5C630 15.3579 626.642 12 622.5 12Z" fill="#3AADAA"></path>
            <path d="M571.5 12H540.5C536.358 12 533 15.3579 533 19.5C533 23.6421 536.358 27 540.5 27H571.5C575.642 27 579 23.6421 579 19.5C579 15.3579 575.642 12 571.5 12Z" fill="#MENU_COLOR" fill-opacity="0.1" class="svgc_invert" filter="url(#filter_readability_theme_bistro)"></path>
            <path d="M108.5 12H77.5C73.3579 12 70 15.3579 70 19.5C70 23.6421 73.3579 27 77.5 27H108.5C112.642 27 116 23.6421 116 19.5C116 15.3579 112.642 12 108.5 12Z" fill="#MENU_COLOR" fill-opacity="0.1" class="svgc_invert" filter="url(#filter_readability_theme_bistro)"></path>
            <path d="M456 41H419V48H456V41Z" fill="#MENU_COLOR" fill-opacity="0.3" class="svgc_invert" filter="url(#filter_readability_theme_bistro)"></path>
            <path d="M398 41H361V48H398V41Z" fill="#MENU_COLOR" fill-opacity="0.3" class="svgc_invert" filter="url(#filter_readability_theme_bistro)"></path>
            <path d="M340 41H303V48H340V41Z" fill="#MENU_COLOR" fill-opacity="0.3" class="svgc_invert" filter="url(#filter_readability_theme_bistro)"></path>
            <path d="M282 41H245V48H282V41Z" fill="#MENU_COLOR" class="svgc_invert" filter="url(#filter_readability_theme_bistro)"></path>
            <path d="M339.586 24.8472V23.3262H335.845V16.1202H334V24.8472H339.586ZM344.266 24.9672C345.036 24.9672 345.729 24.7912 346.346 24.4402C346.965 24.0902 347.453 23.5802 347.813 22.9122C348.173 22.2452 348.352 21.4352 348.352 20.4832C348.352 19.5322 348.172 18.7222 347.812 18.0542C347.453 17.3872 346.965 16.8782 346.347 16.5272C345.729 16.1762 345.035 16.0002 344.265 16.0002C343.49 16.0002 342.794 16.1762 342.177 16.5272C341.561 16.8772 341.073 17.3872 340.716 18.0542C340.358 18.7222 340.179 19.5322 340.179 20.4842C340.179 21.4322 340.358 22.2402 340.716 22.9082C341.046 23.5477 341.553 24.0788 342.177 24.4382C342.794 24.7902 343.49 24.9662 344.265 24.9662L344.266 24.9672ZM344.266 23.3342C343.853 23.3433 343.446 23.2291 343.098 23.0062C342.765 22.7872 342.508 22.4662 342.324 22.0432C342.141 21.6202 342.049 21.1002 342.049 20.4832C342.049 19.8672 342.141 19.3472 342.324 18.9232C342.507 18.5002 342.765 18.1792 343.098 17.9612C343.446 17.7381 343.852 17.6239 344.265 17.6332C344.711 17.6332 345.1 17.7422 345.433 17.9612C345.765 18.1792 346.023 18.5012 346.206 18.9242C346.39 19.3472 346.481 19.8672 346.481 20.4842C346.481 21.1002 346.39 21.6202 346.206 22.0432C346.023 22.4662 345.766 22.7872 345.433 23.0062C345.085 23.2294 344.679 23.3436 344.266 23.3342ZM353.543 24.9662C354.276 24.9662 354.927 24.8182 355.495 24.5212C356.053 24.234 356.517 23.7934 356.833 23.2512C357.157 22.7012 357.319 22.0432 357.319 21.2762V20.1762H353.667V21.5662H355.539L355.535 21.6922C355.518 21.9292 355.465 22.1442 355.378 22.3372L355.305 22.4772C355.146 22.7514 354.908 22.9719 354.623 23.1102C354.327 23.2602 353.969 23.3342 353.552 23.3342C353.092 23.3342 352.692 23.2232 352.354 23.0002C352.016 22.7772 351.754 22.4522 351.57 22.0262C351.386 21.6002 351.293 21.0832 351.293 20.4752C351.293 19.8672 351.387 19.3522 351.574 18.9302C351.762 18.5082 352.024 18.1862 352.361 17.9652C352.711 17.74 353.119 17.6244 353.535 17.6332C353.773 17.6332 353.991 17.6632 354.189 17.7222C354.386 17.7822 354.562 17.8682 354.717 17.9802C354.872 18.0922 355.003 18.2282 355.111 18.3892C355.219 18.5492 355.303 18.7332 355.363 18.9412H357.238C357.183 18.5226 357.045 18.1191 356.833 17.7542C356.624 17.3951 356.348 17.0791 356.021 16.8232C355.681 16.5568 355.297 16.3514 354.886 16.2162C354.441 16.0693 353.974 15.9964 353.505 16.0002C352.955 15.9952 352.409 16.0981 351.898 16.3032C351.407 16.5023 350.964 16.8028 350.598 17.1852C350.214 17.5908 349.919 18.0721 349.731 18.5982C349.525 19.1532 349.422 19.7842 349.422 20.4922C349.422 21.4122 349.595 22.2072 349.94 22.8762C350.262 23.521 350.765 24.0584 351.387 24.4232C352.007 24.7852 352.725 24.9662 353.543 24.9662ZM362.501 24.9662C363.271 24.9662 363.964 24.7912 364.582 24.4402C365.2 24.0902 365.689 23.5802 366.048 22.9122C366.408 22.2452 366.588 21.4352 366.588 20.4832C366.588 19.5322 366.408 18.7222 366.048 18.0542C365.688 17.3872 365.2 16.8782 364.582 16.5272C363.964 16.1762 363.271 16.0002 362.501 16.0002C361.725 16.0002 361.029 16.1762 360.413 16.5272C359.796 16.8772 359.309 17.3872 358.951 18.0542C358.593 18.7222 358.414 19.5322 358.414 20.4842C358.414 21.4322 358.593 22.2402 358.951 22.9082C359.309 23.5762 359.796 24.0862 360.413 24.4382C361.029 24.7902 361.725 24.9662 362.501 24.9662ZM362.501 23.3342C362.055 23.3342 361.665 23.2242 361.333 23.0062C361.001 22.7872 360.743 22.4662 360.56 22.0432C360.376 21.6202 360.285 21.1002 360.285 20.4832C360.285 19.8672 360.376 19.3472 360.56 18.9232C360.743 18.5002 361 18.1792 361.333 17.9612C361.681 17.7379 362.088 17.6237 362.501 17.6332C362.947 17.6332 363.336 17.7422 363.668 17.9612C364.001 18.1792 364.258 18.5012 364.442 18.9242C364.625 19.3472 364.717 19.8672 364.717 20.4842C364.717 21.1002 364.625 21.6202 364.442 22.0432C364.258 22.4662 364.001 22.7872 363.668 23.0062C363.32 23.2292 362.914 23.3434 362.501 23.3342Z" fill="#MENU_COLOR" class="svgc_invert" filter="url(#filter_readability_theme_bistro)"></path>
        </g>
        <g class="s_image_title">
            <path d="M700 65H0V265H700V65Z" fill="url(#theme_bistro_s_cover_default_image_id)" class="img_reference_s_cover_default_image"></path>
            <path d="M700 65H0V265H700V65Z" fill="black" fill-opacity="0.5"></path>
            <path d="M75.2295 116L70.1025 94.5254H74.541L77.7783 109.276L81.7041 94.5254H86.8604L90.625 109.525L93.9209 94.5254H98.2861L93.0713 116H88.4717L84.1943 99.9453L79.9316 116H75.2295ZM108.936 111.049L113.037 111.737C112.51 113.241 111.675 114.389 110.532 115.18C109.399 115.961 107.979 116.352 106.27 116.352C103.564 116.352 101.562 115.468 100.264 113.7C99.2383 112.284 98.7256 110.497 98.7256 108.339C98.7256 105.761 99.3994 103.744 100.747 102.289C102.095 100.824 103.799 100.092 105.859 100.092C108.174 100.092 110 100.858 111.338 102.392C112.676 103.915 113.315 106.254 113.257 109.408H102.944C102.974 110.629 103.306 111.581 103.94 112.265C104.575 112.938 105.366 113.275 106.313 113.275C106.958 113.275 107.5 113.1 107.939 112.748C108.379 112.396 108.711 111.83 108.936 111.049ZM109.17 106.889C109.141 105.697 108.833 104.794 108.247 104.179C107.661 103.554 106.948 103.241 106.108 103.241C105.21 103.241 104.468 103.568 103.882 104.223C103.296 104.877 103.008 105.766 103.018 106.889H109.17ZM116.626 116V94.5254H120.742V116H116.626ZM138.54 105.043L134.482 105.775C134.346 104.965 134.033 104.354 133.545 103.944C133.066 103.534 132.441 103.329 131.67 103.329C130.645 103.329 129.824 103.686 129.209 104.398C128.604 105.102 128.301 106.283 128.301 107.943C128.301 109.789 128.608 111.093 129.224 111.854C129.849 112.616 130.684 112.997 131.729 112.997C132.51 112.997 133.149 112.777 133.647 112.338C134.146 111.889 134.497 111.122 134.702 110.038L138.745 110.727C138.325 112.582 137.52 113.983 136.328 114.931C135.137 115.878 133.54 116.352 131.538 116.352C129.263 116.352 127.446 115.634 126.089 114.198C124.741 112.763 124.067 110.775 124.067 108.236C124.067 105.668 124.746 103.671 126.104 102.245C127.461 100.81 129.297 100.092 131.611 100.092C133.506 100.092 135.01 100.502 136.123 101.322C137.246 102.133 138.052 103.373 138.54 105.043ZM140.723 108.002C140.723 106.635 141.06 105.312 141.733 104.032C142.407 102.753 143.359 101.776 144.59 101.103C145.83 100.429 147.212 100.092 148.735 100.092C151.089 100.092 153.018 100.858 154.521 102.392C156.025 103.915 156.777 105.844 156.777 108.178C156.777 110.531 156.016 112.484 154.492 114.037C152.979 115.58 151.069 116.352 148.765 116.352C147.339 116.352 145.977 116.029 144.678 115.385C143.389 114.74 142.407 113.798 141.733 112.558C141.06 111.308 140.723 109.789 140.723 108.002ZM144.941 108.222C144.941 109.765 145.308 110.946 146.04 111.767C146.772 112.587 147.676 112.997 148.75 112.997C149.824 112.997 150.723 112.587 151.445 111.767C152.178 110.946 152.544 109.755 152.544 108.192C152.544 106.669 152.178 105.497 151.445 104.677C150.723 103.856 149.824 103.446 148.75 103.446C147.676 103.446 146.772 103.856 146.04 104.677C145.308 105.497 144.941 106.679 144.941 108.222ZM159.707 100.443H163.501V102.567C164.858 100.917 166.475 100.092 168.35 100.092C169.346 100.092 170.21 100.297 170.942 100.707C171.675 101.117 172.275 101.737 172.744 102.567C173.428 101.737 174.165 101.117 174.956 100.707C175.747 100.297 176.592 100.092 177.49 100.092C178.633 100.092 179.6 100.326 180.391 100.795C181.182 101.254 181.772 101.933 182.163 102.831C182.446 103.495 182.588 104.569 182.588 106.054V116H178.472V107.108C178.472 105.565 178.33 104.569 178.047 104.12C177.666 103.534 177.08 103.241 176.289 103.241C175.713 103.241 175.171 103.417 174.663 103.769C174.155 104.12 173.789 104.638 173.564 105.321C173.34 105.995 173.228 107.064 173.228 108.529V116H169.111V107.475C169.111 105.961 169.038 104.984 168.892 104.545C168.745 104.105 168.516 103.778 168.203 103.563C167.9 103.349 167.485 103.241 166.958 103.241C166.323 103.241 165.752 103.412 165.244 103.754C164.736 104.096 164.37 104.589 164.146 105.233C163.931 105.878 163.823 106.947 163.823 108.441V116H159.707V100.443ZM195.713 111.049L199.814 111.737C199.287 113.241 198.452 114.389 197.31 115.18C196.177 115.961 194.756 116.352 193.047 116.352C190.342 116.352 188.34 115.468 187.041 113.7C186.016 112.284 185.503 110.497 185.503 108.339C185.503 105.761 186.177 103.744 187.524 102.289C188.872 100.824 190.576 100.092 192.637 100.092C194.951 100.092 196.777 100.858 198.115 102.392C199.453 103.915 200.093 106.254 200.034 109.408H189.722C189.751 110.629 190.083 111.581 190.718 112.265C191.353 112.938 192.144 113.275 193.091 113.275C193.735 113.275 194.277 113.1 194.717 112.748C195.156 112.396 195.488 111.83 195.713 111.049ZM195.947 106.889C195.918 105.697 195.61 104.794 195.024 104.179C194.438 103.554 193.726 103.241 192.886 103.241C191.987 103.241 191.245 103.568 190.659 104.223C190.073 104.877 189.785 105.766 189.795 106.889H195.947Z" fill="#383E45" class="svgc_invert" filter="url(#filter_readability_theme_bistro)"></path>
            <path d="M72.124 153V131.525H78.6133L82.5098 146.174L86.3623 131.525H92.8662V153H88.8379V136.096L84.5752 153H80.4004L76.1523 136.096V153H72.124ZM106.152 148.049L110.254 148.737C109.727 150.241 108.892 151.389 107.749 152.18C106.616 152.961 105.195 153.352 103.486 153.352C100.781 153.352 98.7793 152.468 97.4805 150.7C96.4551 149.284 95.9424 147.497 95.9424 145.339C95.9424 142.761 96.6162 140.744 97.9639 139.289C99.3115 137.824 101.016 137.092 103.076 137.092C105.391 137.092 107.217 137.858 108.555 139.392C109.893 140.915 110.532 143.254 110.474 146.408H100.161C100.19 147.629 100.522 148.581 101.157 149.265C101.792 149.938 102.583 150.275 103.53 150.275C104.175 150.275 104.717 150.1 105.156 149.748C105.596 149.396 105.928 148.83 106.152 148.049ZM106.387 143.889C106.357 142.697 106.05 141.794 105.464 141.179C104.878 140.554 104.165 140.241 103.325 140.241C102.427 140.241 101.685 140.568 101.099 141.223C100.513 141.877 100.225 142.766 100.234 143.889H106.387ZM112.393 148.562L116.523 147.932C116.699 148.732 117.056 149.343 117.593 149.763C118.13 150.173 118.882 150.378 119.849 150.378C120.913 150.378 121.714 150.183 122.251 149.792C122.612 149.519 122.793 149.152 122.793 148.693C122.793 148.381 122.695 148.122 122.5 147.917C122.295 147.722 121.836 147.541 121.123 147.375C117.803 146.643 115.698 145.974 114.81 145.368C113.579 144.528 112.964 143.361 112.964 141.867C112.964 140.52 113.496 139.387 114.561 138.469C115.625 137.551 117.275 137.092 119.512 137.092C121.641 137.092 123.223 137.438 124.258 138.132C125.293 138.825 126.006 139.851 126.396 141.208L122.515 141.926C122.349 141.32 122.031 140.856 121.562 140.534C121.104 140.212 120.444 140.051 119.585 140.051C118.501 140.051 117.725 140.202 117.256 140.505C116.943 140.72 116.787 140.998 116.787 141.34C116.787 141.633 116.924 141.882 117.197 142.087C117.568 142.36 118.848 142.746 121.035 143.244C123.232 143.742 124.766 144.353 125.635 145.075C126.494 145.808 126.924 146.828 126.924 148.137C126.924 149.562 126.328 150.788 125.137 151.813C123.945 152.839 122.183 153.352 119.849 153.352C117.729 153.352 116.05 152.922 114.81 152.062C113.579 151.203 112.773 150.036 112.393 148.562ZM129.092 148.562L133.223 147.932C133.398 148.732 133.755 149.343 134.292 149.763C134.829 150.173 135.581 150.378 136.548 150.378C137.612 150.378 138.413 150.183 138.95 149.792C139.312 149.519 139.492 149.152 139.492 148.693C139.492 148.381 139.395 148.122 139.199 147.917C138.994 147.722 138.535 147.541 137.822 147.375C134.502 146.643 132.397 145.974 131.509 145.368C130.278 144.528 129.663 143.361 129.663 141.867C129.663 140.52 130.195 139.387 131.26 138.469C132.324 137.551 133.975 137.092 136.211 137.092C138.34 137.092 139.922 137.438 140.957 138.132C141.992 138.825 142.705 139.851 143.096 141.208L139.214 141.926C139.048 141.32 138.73 140.856 138.262 140.534C137.803 140.212 137.144 140.051 136.284 140.051C135.2 140.051 134.424 140.202 133.955 140.505C133.643 140.72 133.486 140.998 133.486 141.34C133.486 141.633 133.623 141.882 133.896 142.087C134.268 142.36 135.547 142.746 137.734 143.244C139.932 143.742 141.465 144.353 142.334 145.075C143.193 145.808 143.623 146.828 143.623 148.137C143.623 149.562 143.027 150.788 141.836 151.813C140.645 152.839 138.882 153.352 136.548 153.352C134.429 153.352 132.749 152.922 131.509 152.062C130.278 151.203 129.473 150.036 129.092 148.562ZM150.317 142.189L146.582 141.516C147.002 140.012 147.725 138.898 148.75 138.176C149.775 137.453 151.299 137.092 153.32 137.092C155.156 137.092 156.523 137.312 157.422 137.751C158.32 138.181 158.95 138.732 159.312 139.406C159.683 140.07 159.868 141.296 159.868 143.083L159.824 147.888C159.824 149.255 159.888 150.266 160.015 150.92C160.151 151.564 160.4 152.258 160.762 153H156.689C156.582 152.727 156.45 152.321 156.294 151.784C156.226 151.54 156.177 151.379 156.147 151.301C155.444 151.984 154.692 152.497 153.892 152.839C153.091 153.181 152.236 153.352 151.328 153.352C149.727 153.352 148.462 152.917 147.534 152.048C146.616 151.179 146.157 150.08 146.157 148.752C146.157 147.873 146.367 147.092 146.787 146.408C147.207 145.715 147.793 145.188 148.545 144.826C149.307 144.455 150.4 144.133 151.826 143.859C153.75 143.498 155.083 143.161 155.825 142.849V142.438C155.825 141.647 155.63 141.086 155.239 140.754C154.849 140.412 154.111 140.241 153.027 140.241C152.295 140.241 151.724 140.388 151.313 140.681C150.903 140.964 150.571 141.467 150.317 142.189ZM155.825 145.529C155.298 145.705 154.463 145.915 153.32 146.159C152.178 146.403 151.431 146.643 151.079 146.877C150.542 147.258 150.273 147.741 150.273 148.327C150.273 148.903 150.488 149.401 150.918 149.821C151.348 150.241 151.895 150.451 152.559 150.451C153.301 150.451 154.009 150.207 154.683 149.719C155.181 149.348 155.508 148.894 155.664 148.356C155.771 148.005 155.825 147.336 155.825 146.35V145.529ZM163.56 154.025L168.262 154.597C168.34 155.144 168.521 155.52 168.804 155.725C169.194 156.018 169.81 156.164 170.649 156.164C171.724 156.164 172.529 156.003 173.066 155.681C173.428 155.466 173.701 155.119 173.887 154.641C174.014 154.299 174.077 153.669 174.077 152.751V150.48C172.847 152.16 171.294 153 169.419 153C167.329 153 165.674 152.116 164.453 150.349C163.496 148.952 163.018 147.214 163.018 145.134C163.018 142.526 163.643 140.534 164.893 139.157C166.152 137.78 167.715 137.092 169.58 137.092C171.504 137.092 173.091 137.937 174.341 139.626V137.443H178.193V151.403C178.193 153.239 178.042 154.611 177.739 155.52C177.437 156.428 177.012 157.141 176.465 157.658C175.918 158.176 175.186 158.581 174.268 158.874C173.359 159.167 172.207 159.313 170.811 159.313C168.174 159.313 166.304 158.859 165.2 157.951C164.097 157.053 163.545 155.91 163.545 154.523C163.545 154.387 163.55 154.221 163.56 154.025ZM167.236 144.899C167.236 146.55 167.554 147.761 168.188 148.532C168.833 149.294 169.624 149.675 170.562 149.675C171.567 149.675 172.417 149.284 173.11 148.503C173.804 147.712 174.15 146.545 174.15 145.002C174.15 143.391 173.818 142.194 173.154 141.413C172.49 140.632 171.65 140.241 170.635 140.241C169.648 140.241 168.833 140.627 168.188 141.398C167.554 142.16 167.236 143.327 167.236 144.899ZM191.289 148.049L195.391 148.737C194.863 150.241 194.028 151.389 192.886 152.18C191.753 152.961 190.332 153.352 188.623 153.352C185.918 153.352 183.916 152.468 182.617 150.7C181.592 149.284 181.079 147.497 181.079 145.339C181.079 142.761 181.753 140.744 183.101 139.289C184.448 137.824 186.152 137.092 188.213 137.092C190.527 137.092 192.354 137.858 193.691 139.392C195.029 140.915 195.669 143.254 195.61 146.408H185.298C185.327 147.629 185.659 148.581 186.294 149.265C186.929 149.938 187.72 150.275 188.667 150.275C189.312 150.275 189.854 150.1 190.293 149.748C190.732 149.396 191.064 148.83 191.289 148.049ZM191.523 143.889C191.494 142.697 191.187 141.794 190.601 141.179C190.015 140.554 189.302 140.241 188.462 140.241C187.563 140.241 186.821 140.568 186.235 141.223C185.649 141.877 185.361 142.766 185.371 143.889H191.523Z" fill="#383E45" class="svgc_invert" filter="url(#filter_readability_theme_bistro)"></path>
            <path d="M630 233H434V235H630V233Z" fill="#383E45" fill-opacity="0.4" class="svgc_invert" filter="url(#filter_readability_theme_bistro)"></path>
            <path d="M630 228H434V230H630V228Z" fill="#383E45" fill-opacity="0.4" class="svgc_invert" filter="url(#filter_readability_theme_bistro)"></path>
            <path d="M630 238H457V240H630V238Z" fill="#383E45" fill-opacity="0.4" class="svgc_invert" filter="url(#filter_readability_theme_bistro)"></path>
        </g>
        <g class="s_key_images">
            <rect y="265" width="700" height="285" fill="#3AADAA"></rect>
            <path d="M264 325H70V327H264V325Z" fill="#3AADAA" fill-opacity="0.4" class="svgc_invert" filter="url(#filter_readability_theme_bistro)"></path>
            <path d="M250 330H70V332H250V330Z" fill="#3AADAA" fill-opacity="0.4" class="svgc_invert" filter="url(#filter_readability_theme_bistro)"></path>
            <path d="M71.4551 314V299.684H82.0703V302.105H74.3457V305.279H81.5332V307.691H74.3457V311.588H82.3438V314H71.4551ZM94.209 314H91.4648V308.707C91.4648 307.587 91.4062 306.865 91.2891 306.539C91.1719 306.207 90.9798 305.95 90.7129 305.768C90.4525 305.585 90.1367 305.494 89.7656 305.494C89.2904 305.494 88.8639 305.624 88.4863 305.885C88.1087 306.145 87.8483 306.49 87.7051 306.92C87.5684 307.35 87.5 308.144 87.5 309.303V314H84.7559V303.629H87.3047V305.152C88.2096 303.98 89.349 303.395 90.7227 303.395C91.3281 303.395 91.8815 303.505 92.3828 303.727C92.8841 303.941 93.2617 304.218 93.5156 304.557C93.776 304.895 93.9551 305.279 94.0527 305.709C94.1569 306.139 94.209 306.754 94.209 307.555V314ZM101.758 303.629V305.816H99.8828V309.996C99.8828 310.842 99.8991 311.337 99.9316 311.48C99.9707 311.617 100.052 311.731 100.176 311.822C100.306 311.913 100.462 311.959 100.645 311.959C100.898 311.959 101.266 311.871 101.748 311.695L101.982 313.824C101.344 314.098 100.622 314.234 99.8145 314.234C99.3197 314.234 98.8737 314.153 98.4766 313.99C98.0794 313.821 97.7865 313.606 97.5977 313.346C97.4154 313.079 97.2884 312.721 97.2168 312.271C97.1582 311.952 97.1289 311.308 97.1289 310.338V305.816H95.8691V303.629H97.1289V301.568L99.8828 299.967V303.629H101.758ZM106.289 314H103.545V303.629H106.094V305.104C106.53 304.407 106.921 303.948 107.266 303.727C107.617 303.505 108.014 303.395 108.457 303.395C109.082 303.395 109.684 303.567 110.264 303.912L109.414 306.305C108.952 306.005 108.522 305.855 108.125 305.855C107.741 305.855 107.415 305.963 107.148 306.178C106.882 306.386 106.67 306.767 106.514 307.32C106.364 307.874 106.289 309.033 106.289 310.797V314ZM110.156 303.629H113.076L115.557 310.992L117.979 303.629H120.82L117.158 313.609L116.504 315.416C116.263 316.021 116.032 316.484 115.811 316.803C115.596 317.122 115.345 317.379 115.059 317.574C114.779 317.776 114.43 317.932 114.014 318.043C113.604 318.154 113.138 318.209 112.617 318.209C112.09 318.209 111.572 318.154 111.064 318.043L110.82 315.895C111.25 315.979 111.637 316.021 111.982 316.021C112.62 316.021 113.092 315.833 113.398 315.455C113.704 315.084 113.939 314.609 114.102 314.029L110.156 303.629ZM131.396 314V302.105H127.148V299.684H138.525V302.105H134.287V314H131.396ZM140.01 302.223V299.684H142.754V302.223H140.01ZM140.01 314V303.629H142.754V314H140.01ZM150.332 303.629V305.816H148.457V309.996C148.457 310.842 148.473 311.337 148.506 311.48C148.545 311.617 148.626 311.731 148.75 311.822C148.88 311.913 149.036 311.959 149.219 311.959C149.473 311.959 149.84 311.871 150.322 311.695L150.557 313.824C149.919 314.098 149.196 314.234 148.389 314.234C147.894 314.234 147.448 314.153 147.051 313.99C146.654 313.821 146.361 313.606 146.172 313.346C145.99 313.079 145.863 312.721 145.791 312.271C145.732 311.952 145.703 311.308 145.703 310.338V305.816H144.443V303.629H145.703V301.568L148.457 299.967V303.629H150.332ZM152.236 314V299.684H154.98V314H152.236ZM163.809 310.699L166.543 311.158C166.191 312.161 165.635 312.926 164.873 313.453C164.118 313.974 163.171 314.234 162.031 314.234C160.228 314.234 158.893 313.645 158.027 312.467C157.344 311.523 157.002 310.331 157.002 308.893C157.002 307.174 157.451 305.829 158.35 304.859C159.248 303.883 160.384 303.395 161.758 303.395C163.301 303.395 164.518 303.906 165.41 304.928C166.302 305.943 166.729 307.503 166.689 309.605H159.814C159.834 310.419 160.055 311.054 160.479 311.51C160.902 311.959 161.429 312.184 162.061 312.184C162.49 312.184 162.852 312.066 163.145 311.832C163.438 311.598 163.659 311.22 163.809 310.699ZM163.965 307.926C163.945 307.132 163.74 306.529 163.35 306.119C162.959 305.702 162.484 305.494 161.924 305.494C161.325 305.494 160.83 305.712 160.439 306.148C160.049 306.585 159.857 307.177 159.863 307.926H163.965Z" fill="#3AADAA" class="svgc_invert" filter="url(#filter_readability_theme_bistro)"></path>
            <path d="M75.4883 350.625C76.875 350.625 77.959 351.12 78.7402 352.109C79.6712 353.281 80.1367 355.225 80.1367 357.939C80.1367 360.648 79.668 362.594 78.7305 363.779C77.9557 364.756 76.875 365.244 75.4883 365.244C74.0951 365.244 72.972 364.71 72.1191 363.643C71.2663 362.568 70.8398 360.658 70.8398 357.91C70.8398 355.215 71.3086 353.275 72.2461 352.09C73.0208 351.113 74.1016 350.625 75.4883 350.625ZM75.4883 352.9C75.1562 352.9 74.86 353.008 74.5996 353.223C74.3392 353.431 74.1374 353.809 73.9941 354.355C73.8053 355.065 73.7109 356.26 73.7109 357.939C73.7109 359.619 73.7956 360.775 73.9648 361.406C74.1341 362.031 74.3457 362.448 74.5996 362.656C74.86 362.865 75.1562 362.969 75.4883 362.969C75.8203 362.969 76.1165 362.865 76.377 362.656C76.6374 362.441 76.8392 362.061 76.9824 361.514C77.1712 360.811 77.2656 359.619 77.2656 357.939C77.2656 356.26 77.181 355.107 77.0117 354.482C76.8424 353.851 76.6276 353.431 76.3672 353.223C76.1133 353.008 75.8203 352.9 75.4883 352.9ZM89.0039 365H86.2598V354.658C85.2572 355.596 84.0755 356.289 82.7148 356.738V354.248C83.431 354.014 84.209 353.571 85.0488 352.92C85.8887 352.262 86.4648 351.497 86.7773 350.625H89.0039V365Z" fill="#3AADAA" class="svgc_invert" filter="url(#filter_readability_theme_bistro)"></path>
            <path d="M220.488 350.625C221.875 350.625 222.959 351.12 223.74 352.109C224.671 353.281 225.137 355.225 225.137 357.939C225.137 360.648 224.668 362.594 223.73 363.779C222.956 364.756 221.875 365.244 220.488 365.244C219.095 365.244 217.972 364.71 217.119 363.643C216.266 362.568 215.84 360.658 215.84 357.91C215.84 355.215 216.309 353.275 217.246 352.09C218.021 351.113 219.102 350.625 220.488 350.625ZM220.488 352.9C220.156 352.9 219.86 353.008 219.6 353.223C219.339 353.431 219.137 353.809 218.994 354.355C218.805 355.065 218.711 356.26 218.711 357.939C218.711 359.619 218.796 360.775 218.965 361.406C219.134 362.031 219.346 362.448 219.6 362.656C219.86 362.865 220.156 362.969 220.488 362.969C220.82 362.969 221.117 362.865 221.377 362.656C221.637 362.441 221.839 362.061 221.982 361.514C222.171 360.811 222.266 359.619 222.266 357.939C222.266 356.26 222.181 355.107 222.012 354.482C221.842 353.851 221.628 353.431 221.367 353.223C221.113 353.008 220.82 352.9 220.488 352.9ZM236.25 362.451V365H226.631C226.735 364.036 227.048 363.125 227.568 362.266C228.089 361.4 229.118 360.254 230.654 358.828C231.891 357.676 232.65 356.895 232.93 356.484C233.307 355.918 233.496 355.358 233.496 354.805C233.496 354.193 233.33 353.724 232.998 353.398C232.673 353.066 232.22 352.9 231.641 352.9C231.068 352.9 230.612 353.073 230.273 353.418C229.935 353.763 229.74 354.336 229.688 355.137L226.953 354.863C227.116 353.353 227.627 352.269 228.486 351.611C229.346 350.954 230.42 350.625 231.709 350.625C233.122 350.625 234.232 351.006 235.039 351.768C235.846 352.529 236.25 353.477 236.25 354.609C236.25 355.254 236.133 355.869 235.898 356.455C235.671 357.035 235.306 357.643 234.805 358.281C234.473 358.704 233.874 359.313 233.008 360.107C232.142 360.902 231.592 361.429 231.357 361.689C231.13 361.95 230.944 362.204 230.801 362.451H236.25Z" fill="#3AADAA" class="svgc_invert" filter="url(#filter_readability_theme_bistro)"></path>
            <path d="M365.488 350.625C366.875 350.625 367.959 351.12 368.74 352.109C369.671 353.281 370.137 355.225 370.137 357.939C370.137 360.648 369.668 362.594 368.73 363.779C367.956 364.756 366.875 365.244 365.488 365.244C364.095 365.244 362.972 364.71 362.119 363.643C361.266 362.568 360.84 360.658 360.84 357.91C360.84 355.215 361.309 353.275 362.246 352.09C363.021 351.113 364.102 350.625 365.488 350.625ZM365.488 352.9C365.156 352.9 364.86 353.008 364.6 353.223C364.339 353.431 364.137 353.809 363.994 354.355C363.805 355.065 363.711 356.26 363.711 357.939C363.711 359.619 363.796 360.775 363.965 361.406C364.134 362.031 364.346 362.448 364.6 362.656C364.86 362.865 365.156 362.969 365.488 362.969C365.82 362.969 366.117 362.865 366.377 362.656C366.637 362.441 366.839 362.061 366.982 361.514C367.171 360.811 367.266 359.619 367.266 357.939C367.266 356.26 367.181 355.107 367.012 354.482C366.842 353.851 366.628 353.431 366.367 353.223C366.113 353.008 365.82 352.9 365.488 352.9ZM371.885 361.201L374.541 360.879C374.626 361.556 374.854 362.074 375.225 362.432C375.596 362.79 376.045 362.969 376.572 362.969C377.139 362.969 377.614 362.754 377.998 362.324C378.389 361.895 378.584 361.315 378.584 360.586C378.584 359.896 378.398 359.349 378.027 358.945C377.656 358.542 377.204 358.34 376.67 358.34C376.318 358.34 375.898 358.408 375.41 358.545L375.713 356.309C376.455 356.328 377.021 356.169 377.412 355.83C377.803 355.485 377.998 355.029 377.998 354.463C377.998 353.981 377.855 353.597 377.568 353.311C377.282 353.024 376.901 352.881 376.426 352.881C375.957 352.881 375.557 353.044 375.225 353.369C374.893 353.695 374.691 354.17 374.619 354.795L372.09 354.365C372.266 353.499 372.529 352.809 372.881 352.295C373.239 351.774 373.734 351.367 374.365 351.074C375.003 350.775 375.716 350.625 376.504 350.625C377.852 350.625 378.932 351.055 379.746 351.914C380.417 352.617 380.752 353.411 380.752 354.297C380.752 355.553 380.065 356.556 378.691 357.305C379.512 357.48 380.166 357.874 380.654 358.486C381.149 359.098 381.396 359.837 381.396 360.703C381.396 361.96 380.938 363.031 380.02 363.916C379.102 364.801 377.959 365.244 376.592 365.244C375.296 365.244 374.222 364.873 373.369 364.131C372.516 363.382 372.021 362.406 371.885 361.201Z" fill="#3AADAA" class="svgc_invert" filter="url(#filter_readability_theme_bistro)"></path>
            <path d="M510.488 350.625C511.875 350.625 512.959 351.12 513.74 352.109C514.671 353.281 515.137 355.225 515.137 357.939C515.137 360.648 514.668 362.594 513.73 363.779C512.956 364.756 511.875 365.244 510.488 365.244C509.095 365.244 507.972 364.71 507.119 363.643C506.266 362.568 505.84 360.658 505.84 357.91C505.84 355.215 506.309 353.275 507.246 352.09C508.021 351.113 509.102 350.625 510.488 350.625ZM510.488 352.9C510.156 352.9 509.86 353.008 509.6 353.223C509.339 353.431 509.137 353.809 508.994 354.355C508.805 355.065 508.711 356.26 508.711 357.939C508.711 359.619 508.796 360.775 508.965 361.406C509.134 362.031 509.346 362.448 509.6 362.656C509.86 362.865 510.156 362.969 510.488 362.969C510.82 362.969 511.117 362.865 511.377 362.656C511.637 362.441 511.839 362.061 511.982 361.514C512.171 360.811 512.266 359.619 512.266 357.939C512.266 356.26 512.181 355.107 512.012 354.482C511.842 353.851 511.628 353.431 511.367 353.223C511.113 353.008 510.82 352.9 510.488 352.9ZM522.363 365V362.119H516.504V359.717L522.715 350.625H525.02V359.707H526.797V362.119H525.02V365H522.363ZM522.363 359.707V354.814L519.072 359.707H522.363Z" fill="#3AADAA" class="svgc_invert" filter="url(#filter_readability_theme_bistro)"></path>
            <path d="M176 508H70V510H176V508Z" fill="#3AADAA" fill-opacity="0.4" class="svgc_invert" filter="url(#filter_readability_theme_bistro)"></path>
            <path d="M195 513H70V515H195V513Z" fill="#3AADAA" fill-opacity="0.4" class="svgc_invert" filter="url(#filter_readability_theme_bistro)"></path>
            <path d="M321 508H215V510H321V508Z" fill="#3AADAA" fill-opacity="0.4" class="svgc_invert" filter="url(#filter_readability_theme_bistro)"></path>
            <path d="M340 513H215V515H340V513Z" fill="#3AADAA" fill-opacity="0.4" class="svgc_invert" filter="url(#filter_readability_theme_bistro)"></path>
            <path d="M466 508H360V510H466V508Z" fill="#3AADAA" fill-opacity="0.4" class="svgc_invert" filter="url(#filter_readability_theme_bistro)"></path>
            <path d="M485 513H360V515H485V513Z" fill="#3AADAA" fill-opacity="0.4" class="svgc_invert" filter="url(#filter_readability_theme_bistro)"></path>
            <path d="M611 508H505V510H611V508Z" fill="#3AADAA" fill-opacity="0.4" class="svgc_invert" filter="url(#filter_readability_theme_bistro)"></path>
            <path d="M630 513H505V515H630V513Z" fill="#3AADAA" fill-opacity="0.4" class="svgc_invert" filter="url(#filter_readability_theme_bistro)"></path>
            <rect x="215" y="375" width="125" height="116" fill="url(#theme_bistro_s_media_list_default_image_1_id)" class="img_reference_s_media_list_default_image_1"></rect>
            <rect x="70" y="375" width="125" height="116" fill="url(#theme_bistro_s_image_text_default_image_id)" class="img_reference_s_image_text_default_image"></rect>
            <rect x="505" y="375" width="125" height="116" fill="url(#theme_bistro_s_text_image_default_image_id)" class="img_reference_s_text_image_default_image"></rect>
            <rect x="360" y="375" width="125" height="116" fill="url(#theme_bistro_s_media_list_default_image_2_id)" class="img_reference_s_media_list_default_image_2"></rect>
        </g>
        <g class="s_pricelist_cafe">
            <g>
                <rect y="550" width="350" height="297" fill="#383E45"></rect>
                <path d="M264 610H70V612H264V610Z" fill="#383E45" fill-opacity="0.4" class="svgc_invert" filter="url(#filter_readability_theme_bistro)"></path>
                <path d="M250 615H70V617H250V615Z" fill="#383E45" fill-opacity="0.4" class="svgc_invert" filter="url(#filter_readability_theme_bistro)"></path>
                <path d="M184 651H70V659H184V651Z" fill="#383E45" class="svgc_invert" filter="url(#filter_readability_theme_bistro)"></path>
                <path d="M264 696H70V698H264V696Z" fill="#383E45" fill-opacity="0.4" class="svgc_invert" filter="url(#filter_readability_theme_bistro)"></path>
                <path d="M250 701H70V703H250V701Z" fill="#383E45" fill-opacity="0.4" class="svgc_invert" filter="url(#filter_readability_theme_bistro)"></path>
                <path d="M237 706H70V708H237V706Z" fill="#383E45" fill-opacity="0.4" class="svgc_invert" filter="url(#filter_readability_theme_bistro)"></path>
                <path d="M248 683H160V684H248V683Z" fill="#383E45" fill-opacity="0.4" class="svgc_invert" filter="url(#filter_readability_theme_bistro)"></path>
                <path d="M152 681H70V686H152V681Z" fill="#383E45" class="svgc_invert" filter="url(#filter_readability_theme_bistro)"></path>
                <path d="M276 681H256V686H276V681Z" fill="#383E45" class="svgc_invert" filter="url(#filter_readability_theme_bistro)"></path>
                <path d="M264 747H70V749H264V747Z" fill="#383E45" fill-opacity="0.4" class="svgc_invert" filter="url(#filter_readability_theme_bistro)"></path>
                <path d="M250 752H70V754H250V752Z" fill="#383E45" fill-opacity="0.4" class="svgc_invert" filter="url(#filter_readability_theme_bistro)"></path>
                <path d="M237 757H70V759H237V757Z" fill="#383E45" fill-opacity="0.4" class="svgc_invert" filter="url(#filter_readability_theme_bistro)"></path>
                <path d="M248 734H160V735H248V734Z" fill="#383E45" fill-opacity="0.4" class="svgc_invert" filter="url(#filter_readability_theme_bistro)"></path>
                <path d="M152 732H70V737H152V732Z" fill="#383E45" class="svgc_invert" filter="url(#filter_readability_theme_bistro)"></path>
                <path d="M276 732H256V737H276V732Z" fill="#383E45" class="svgc_invert" filter="url(#filter_readability_theme_bistro)"></path>
                <path d="M264 798H70V800H264V798Z" fill="#383E45" fill-opacity="0.4" class="svgc_invert" filter="url(#filter_readability_theme_bistro)"></path>
                <path d="M250 803H70V805H250V803Z" fill="#383E45" fill-opacity="0.4" class="svgc_invert" filter="url(#filter_readability_theme_bistro)"></path>
                <path d="M237 808H70V810H237V808Z" fill="#383E45" fill-opacity="0.4" class="svgc_invert" filter="url(#filter_readability_theme_bistro)"></path>
                <path d="M248 785H160V786H248V785Z" fill="#383E45" fill-opacity="0.4" class="svgc_invert" filter="url(#filter_readability_theme_bistro)"></path>
                <path d="M152 783H70V788H152V783Z" fill="#383E45" class="svgc_invert" filter="url(#filter_readability_theme_bistro)"></path>
                <path d="M276 783H256V788H276V783Z" fill="#383E45" class="svgc_invert" filter="url(#filter_readability_theme_bistro)"></path>
                <path d="M71.4551 599V584.684H82.0703V587.105H74.3457V590.279H81.5332V592.691H74.3457V596.588H82.3438V599H71.4551ZM94.209 599H91.4648V593.707C91.4648 592.587 91.4062 591.865 91.2891 591.539C91.1719 591.207 90.9798 590.95 90.7129 590.768C90.4525 590.585 90.1367 590.494 89.7656 590.494C89.2904 590.494 88.8639 590.624 88.4863 590.885C88.1087 591.145 87.8483 591.49 87.7051 591.92C87.5684 592.35 87.5 593.144 87.5 594.303V599H84.7559V588.629H87.3047V590.152C88.2096 588.98 89.349 588.395 90.7227 588.395C91.3281 588.395 91.8815 588.505 92.3828 588.727C92.8841 588.941 93.2617 589.218 93.5156 589.557C93.776 589.895 93.9551 590.279 94.0527 590.709C94.1569 591.139 94.209 591.754 94.209 592.555V599ZM101.758 588.629V590.816H99.8828V594.996C99.8828 595.842 99.8991 596.337 99.9316 596.48C99.9707 596.617 100.052 596.731 100.176 596.822C100.306 596.913 100.462 596.959 100.645 596.959C100.898 596.959 101.266 596.871 101.748 596.695L101.982 598.824C101.344 599.098 100.622 599.234 99.8145 599.234C99.3197 599.234 98.8737 599.153 98.4766 598.99C98.0794 598.821 97.7865 598.606 97.5977 598.346C97.4154 598.079 97.2884 597.721 97.2168 597.271C97.1582 596.952 97.1289 596.308 97.1289 595.338V590.816H95.8691V588.629H97.1289V586.568L99.8828 584.967V588.629H101.758ZM106.289 599H103.545V588.629H106.094V590.104C106.53 589.407 106.921 588.948 107.266 588.727C107.617 588.505 108.014 588.395 108.457 588.395C109.082 588.395 109.684 588.567 110.264 588.912L109.414 591.305C108.952 591.005 108.522 590.855 108.125 590.855C107.741 590.855 107.415 590.963 107.148 591.178C106.882 591.386 106.67 591.767 106.514 592.32C106.364 592.874 106.289 594.033 106.289 595.797V599ZM110.156 588.629H113.076L115.557 595.992L117.979 588.629H120.82L117.158 598.609L116.504 600.416C116.263 601.021 116.032 601.484 115.811 601.803C115.596 602.122 115.345 602.379 115.059 602.574C114.779 602.776 114.43 602.932 114.014 603.043C113.604 603.154 113.138 603.209 112.617 603.209C112.09 603.209 111.572 603.154 111.064 603.043L110.82 600.895C111.25 600.979 111.637 601.021 111.982 601.021C112.62 601.021 113.092 600.833 113.398 600.455C113.704 600.084 113.939 599.609 114.102 599.029L110.156 588.629ZM131.396 599V587.105H127.148V584.684H138.525V587.105H134.287V599H131.396ZM140.01 587.223V584.684H142.754V587.223H140.01ZM140.01 599V588.629H142.754V599H140.01ZM150.332 588.629V590.816H148.457V594.996C148.457 595.842 148.473 596.337 148.506 596.48C148.545 596.617 148.626 596.731 148.75 596.822C148.88 596.913 149.036 596.959 149.219 596.959C149.473 596.959 149.84 596.871 150.322 596.695L150.557 598.824C149.919 599.098 149.196 599.234 148.389 599.234C147.894 599.234 147.448 599.153 147.051 598.99C146.654 598.821 146.361 598.606 146.172 598.346C145.99 598.079 145.863 597.721 145.791 597.271C145.732 596.952 145.703 596.308 145.703 595.338V590.816H144.443V588.629H145.703V586.568L148.457 584.967V588.629H150.332ZM152.236 599V584.684H154.98V599H152.236ZM163.809 595.699L166.543 596.158C166.191 597.161 165.635 597.926 164.873 598.453C164.118 598.974 163.171 599.234 162.031 599.234C160.228 599.234 158.893 598.645 158.027 597.467C157.344 596.523 157.002 595.331 157.002 593.893C157.002 592.174 157.451 590.829 158.35 589.859C159.248 588.883 160.384 588.395 161.758 588.395C163.301 588.395 164.518 588.906 165.41 589.928C166.302 590.943 166.729 592.503 166.689 594.605H159.814C159.834 595.419 160.055 596.054 160.479 596.51C160.902 596.959 161.429 597.184 162.061 597.184C162.49 597.184 162.852 597.066 163.145 596.832C163.438 596.598 163.659 596.22 163.809 595.699ZM163.965 592.926C163.945 592.132 163.74 591.529 163.35 591.119C162.959 590.702 162.484 590.494 161.924 590.494C161.325 590.494 160.83 590.712 160.439 591.148C160.049 591.585 159.857 592.177 159.863 592.926H163.965Z" fill="#383E45" class="svgc_invert" filter="url(#filter_readability_theme_bistro)"></path>
            </g>
            <g>
                <rect x="350" y="550" width="350" height="297" fill="#FFFFFF"></rect>
                <path d="M618 610H424V612H618V610Z" fill="#FFFFFF" fill-opacity="0.4" class="svgc_invert" filter="url(#filter_readability_theme_bistro)"></path>
                <path d="M604 615H424V617H604V615Z" fill="#FFFFFF" fill-opacity="0.4" class="svgc_invert" filter="url(#filter_readability_theme_bistro)"></path>
                <path d="M538 651H424V659H538V651Z" fill="#FFFFFF" class="svgc_invert" filter="url(#filter_readability_theme_bistro)"></path>
                <path d="M618 696H424V698H618V696Z" fill="#FFFFFF" fill-opacity="0.4" class="svgc_invert" filter="url(#filter_readability_theme_bistro)"></path>
                <path d="M604 701H424V703H604V701Z" fill="#FFFFFF" fill-opacity="0.4" class="svgc_invert" filter="url(#filter_readability_theme_bistro)"></path>
                <path d="M591 706H424V708H591V706Z" fill="#FFFFFF" fill-opacity="0.4" class="svgc_invert" filter="url(#filter_readability_theme_bistro)"></path>
                <path d="M602 683H514V684H602V683Z" fill="#FFFFFF" fill-opacity="0.4" class="svgc_invert" filter="url(#filter_readability_theme_bistro)"></path>
                <path d="M506 681H424V686H506V681Z" fill="#FFFFFF" class="svgc_invert" filter="url(#filter_readability_theme_bistro)"></path>
                <path d="M630 681H610V686H630V681Z" fill="#FFFFFF" class="svgc_invert" filter="url(#filter_readability_theme_bistro)"></path>
                <path d="M618 747H424V749H618V747Z" fill="#FFFFFF" fill-opacity="0.4" class="svgc_invert" filter="url(#filter_readability_theme_bistro)"></path>
                <path d="M604 752H424V754H604V752Z" fill="#FFFFFF" fill-opacity="0.4" class="svgc_invert" filter="url(#filter_readability_theme_bistro)"></path>
                <path d="M591 757H424V759H591V757Z" fill="#FFFFFF" fill-opacity="0.4" class="svgc_invert" filter="url(#filter_readability_theme_bistro)"></path>
                <path d="M602 734H514V735H602V734Z" fill="#FFFFFF" fill-opacity="0.4" class="svgc_invert" filter="url(#filter_readability_theme_bistro)"></path>
                <path d="M506 732H424V737H506V732Z" fill="#FFFFFF" class="svgc_invert" filter="url(#filter_readability_theme_bistro)"></path>
                <path d="M630 732H610V737H630V732Z" fill="#FFFFFF" class="svgc_invert" filter="url(#filter_readability_theme_bistro)"></path>
                <path d="M618 798H424V800H618V798Z" fill="#FFFFFF" fill-opacity="0.4" class="svgc_invert" filter="url(#filter_readability_theme_bistro)"></path>
                <path d="M604 803H424V805H604V803Z" fill="#FFFFFF" fill-opacity="0.4" class="svgc_invert" filter="url(#filter_readability_theme_bistro)"></path>
                <path d="M591 808H424V810H591V808Z" fill="#FFFFFF" fill-opacity="0.4" class="svgc_invert" filter="url(#filter_readability_theme_bistro)"></path>
                <path d="M602 785H514V786H602V785Z" fill="#FFFFFF" fill-opacity="0.4" class="svgc_invert" filter="url(#filter_readability_theme_bistro)"></path>
                <path d="M506 783H424V788H506V783Z" fill="#FFFFFF" class="svgc_invert" filter="url(#filter_readability_theme_bistro)"></path>
                <path d="M630 783H610V788H630V783Z" fill="#FFFFFF" class="svgc_invert" filter="url(#filter_readability_theme_bistro)"></path>
                <path d="M425.455 599V584.684H436.07V587.105H428.346V590.279H435.533V592.691H428.346V596.588H436.344V599H425.455ZM448.209 599H445.465V593.707C445.465 592.587 445.406 591.865 445.289 591.539C445.172 591.207 444.98 590.95 444.713 590.768C444.452 590.585 444.137 590.494 443.766 590.494C443.29 590.494 442.864 590.624 442.486 590.885C442.109 591.145 441.848 591.49 441.705 591.92C441.568 592.35 441.5 593.144 441.5 594.303V599H438.756V588.629H441.305V590.152C442.21 588.98 443.349 588.395 444.723 588.395C445.328 588.395 445.882 588.505 446.383 588.727C446.884 588.941 447.262 589.218 447.516 589.557C447.776 589.895 447.955 590.279 448.053 590.709C448.157 591.139 448.209 591.754 448.209 592.555V599ZM455.758 588.629V590.816H453.883V594.996C453.883 595.842 453.899 596.337 453.932 596.48C453.971 596.617 454.052 596.731 454.176 596.822C454.306 596.913 454.462 596.959 454.645 596.959C454.898 596.959 455.266 596.871 455.748 596.695L455.982 598.824C455.344 599.098 454.622 599.234 453.814 599.234C453.32 599.234 452.874 599.153 452.477 598.99C452.079 598.821 451.786 598.606 451.598 598.346C451.415 598.079 451.288 597.721 451.217 597.271C451.158 596.952 451.129 596.308 451.129 595.338V590.816H449.869V588.629H451.129V586.568L453.883 584.967V588.629H455.758ZM460.289 599H457.545V588.629H460.094V590.104C460.53 589.407 460.921 588.948 461.266 588.727C461.617 588.505 462.014 588.395 462.457 588.395C463.082 588.395 463.684 588.567 464.264 588.912L463.414 591.305C462.952 591.005 462.522 590.855 462.125 590.855C461.741 590.855 461.415 590.963 461.148 591.178C460.882 591.386 460.67 591.767 460.514 592.32C460.364 592.874 460.289 594.033 460.289 595.797V599ZM464.156 588.629H467.076L469.557 595.992L471.979 588.629H474.82L471.158 598.609L470.504 600.416C470.263 601.021 470.032 601.484 469.811 601.803C469.596 602.122 469.345 602.379 469.059 602.574C468.779 602.776 468.43 602.932 468.014 603.043C467.604 603.154 467.138 603.209 466.617 603.209C466.09 603.209 465.572 603.154 465.064 603.043L464.82 600.895C465.25 600.979 465.637 601.021 465.982 601.021C466.62 601.021 467.092 600.833 467.398 600.455C467.704 600.084 467.939 599.609 468.102 599.029L464.156 588.629ZM485.396 599V587.105H481.148V584.684H492.525V587.105H488.287V599H485.396ZM494.01 587.223V584.684H496.754V587.223H494.01ZM494.01 599V588.629H496.754V599H494.01ZM504.332 588.629V590.816H502.457V594.996C502.457 595.842 502.473 596.337 502.506 596.48C502.545 596.617 502.626 596.731 502.75 596.822C502.88 596.913 503.036 596.959 503.219 596.959C503.473 596.959 503.84 596.871 504.322 596.695L504.557 598.824C503.919 599.098 503.196 599.234 502.389 599.234C501.894 599.234 501.448 599.153 501.051 598.99C500.654 598.821 500.361 598.606 500.172 598.346C499.99 598.079 499.863 597.721 499.791 597.271C499.732 596.952 499.703 596.308 499.703 595.338V590.816H498.443V588.629H499.703V586.568L502.457 584.967V588.629H504.332ZM506.236 599V584.684H508.98V599H506.236ZM517.809 595.699L520.543 596.158C520.191 597.161 519.635 597.926 518.873 598.453C518.118 598.974 517.171 599.234 516.031 599.234C514.228 599.234 512.893 598.645 512.027 597.467C511.344 596.523 511.002 595.331 511.002 593.893C511.002 592.174 511.451 590.829 512.35 589.859C513.248 588.883 514.384 588.395 515.758 588.395C517.301 588.395 518.518 588.906 519.41 589.928C520.302 590.943 520.729 592.503 520.689 594.605H513.814C513.834 595.419 514.055 596.054 514.479 596.51C514.902 596.959 515.429 597.184 516.061 597.184C516.49 597.184 516.852 597.066 517.145 596.832C517.438 596.598 517.659 596.22 517.809 595.699ZM517.965 592.926C517.945 592.132 517.74 591.529 517.35 591.119C516.959 590.702 516.484 590.494 515.924 590.494C515.325 590.494 514.83 590.712 514.439 591.148C514.049 591.585 513.857 592.177 513.863 592.926H517.965Z" fill="#FFFFFF" class="svgc_invert" filter="url(#filter_readability_theme_bistro)"></path>
            </g>
            <circle cx="350" cy="748" r="55" fill="url(#theme_bistro_s_pricelist_cafe_default_image_id)"></circle>
        </g>
        <g class="s_quotes_carousel">
            <rect y="847" width="700" height="241" fill="url(#theme_bistro_s_quotes_carousel_demo_image_1_id)" class="img_reference_s_quotes_carousel_demo_image_1"></rect>
            <rect x="350" y="847" width="350" height="241" fill="#3AADAA"></rect>
            <path d="M659 975L667 967L659 959" stroke="white" stroke-opacity="0.4" stroke-width="3"></path>
            <path d="M41 959L33 967L41 975" stroke="white" stroke-opacity="0.4" stroke-width="3"></path>
            <rect x="224" y="890" width="252" height="155" rx="4" fill="#FFFFFF"></rect>
            <circle cx="351" cy="1003" r="8" fill="#FFFFFF" fill-opacity="0.6" class="svgc_invert" filter="url(#filter_readability_theme_bistro)"></circle>
            <rect x="324" y="1014" width="54" height="5" fill="#FFFFFF" fill-opacity="0.4" class="svgc_invert" filter="url(#filter_readability_theme_bistro)"></rect>
            <rect x="333" y="1022" width="34" height="5" fill="#FFFFFF" fill-opacity="0.4" class="svgc_invert" filter="url(#filter_readability_theme_bistro)"></rect>
            <rect x="259" y="918" width="183" height="5" fill="#FFFFFF" fill-opacity="0.4" class="svgc_invert" filter="url(#filter_readability_theme_bistro)"></rect>
            <rect x="281" y="928" width="139" height="5" fill="#FFFFFF" fill-opacity="0.4" class="svgc_invert" filter="url(#filter_readability_theme_bistro)"></rect>
            <rect x="268" y="938" width="166" height="5" fill="#FFFFFF" fill-opacity="0.4" class="svgc_invert" filter="url(#filter_readability_theme_bistro)"></rect>
            <rect x="294" y="948" width="114" height="5" fill="#FFFFFF" fill-opacity="0.4" class="svgc_invert" filter="url(#filter_readability_theme_bistro)"></rect>
        </g>
        <g class="s_quadrant">
            <rect y="1088" width="350" height="273" fill="#7C6576"></rect>
            <rect x="350" y="1088" width="350" height="137" fill="url(#theme_bistro_library_image_10_id)" class="img_reference_library_image_10"></rect>
            <rect x="350" y="1225" width="350" height="136" fill="url(#theme_bistro_library_image_05_id)" class="img_reference_library_image_05"></rect>
            <g>
                <rect x="173" y="1124" width="354" height="200" fill="#FFFFFF"></rect>
                <path d="M447 1207H253V1209H447V1207Z" fill="#FFFFFF" fill-opacity="0.4" class="svgc_invert" filter="url(#filter_readability_theme_bistro)"></path>
                <path d="M440 1212H260V1214H440V1212Z" fill="#FFFFFF" fill-opacity="0.4" class="svgc_invert" filter="url(#filter_readability_theme_bistro)"></path>
                <path d="M440 1227H260V1229H440V1227Z" fill="#FFFFFF" fill-opacity="0.4" class="svgc_invert" filter="url(#filter_readability_theme_bistro)"></path>
                <path d="M415 1217H285V1219H415V1217Z" fill="#FFFFFF" fill-opacity="0.4" class="svgc_invert" filter="url(#filter_readability_theme_bistro)"></path>
                <path d="M415 1232H285V1234H415V1232Z" fill="#FFFFFF" fill-opacity="0.4" class="svgc_invert" filter="url(#filter_readability_theme_bistro)"></path>
                <path d="M427 1222H274V1224H427V1222Z" fill="#FFFFFF" fill-opacity="0.4" class="svgc_invert" filter="url(#filter_readability_theme_bistro)"></path>
                <path d="M427 1237H274V1239H427V1237Z" fill="#FFFFFF" fill-opacity="0.4" class="svgc_invert" filter="url(#filter_readability_theme_bistro)"></path>
                <path d="M302.455 1185V1170.68H313.07V1173.11H305.346V1176.28H312.533V1178.69H305.346V1182.59H313.344V1185H302.455ZM325.209 1185H322.465V1179.71C322.465 1178.59 322.406 1177.86 322.289 1177.54C322.172 1177.21 321.98 1176.95 321.713 1176.77C321.452 1176.59 321.137 1176.49 320.766 1176.49C320.29 1176.49 319.864 1176.62 319.486 1176.88C319.109 1177.15 318.848 1177.49 318.705 1177.92C318.568 1178.35 318.5 1179.14 318.5 1180.3V1185H315.756V1174.63H318.305V1176.15C319.21 1174.98 320.349 1174.39 321.723 1174.39C322.328 1174.39 322.882 1174.51 323.383 1174.73C323.884 1174.94 324.262 1175.22 324.516 1175.56C324.776 1175.9 324.955 1176.28 325.053 1176.71C325.157 1177.14 325.209 1177.75 325.209 1178.55V1185ZM332.758 1174.63V1176.82H330.883V1181C330.883 1181.84 330.899 1182.34 330.932 1182.48C330.971 1182.62 331.052 1182.73 331.176 1182.82C331.306 1182.91 331.462 1182.96 331.645 1182.96C331.898 1182.96 332.266 1182.87 332.748 1182.7L332.982 1184.82C332.344 1185.1 331.622 1185.23 330.814 1185.23C330.32 1185.23 329.874 1185.15 329.477 1184.99C329.079 1184.82 328.786 1184.61 328.598 1184.35C328.415 1184.08 328.288 1183.72 328.217 1183.27C328.158 1182.95 328.129 1182.31 328.129 1181.34V1176.82H326.869V1174.63H328.129V1172.57L330.883 1170.97V1174.63H332.758ZM337.289 1185H334.545V1174.63H337.094V1176.1C337.53 1175.41 337.921 1174.95 338.266 1174.73C338.617 1174.51 339.014 1174.39 339.457 1174.39C340.082 1174.39 340.684 1174.57 341.264 1174.91L340.414 1177.3C339.952 1177.01 339.522 1176.86 339.125 1176.86C338.741 1176.86 338.415 1176.96 338.148 1177.18C337.882 1177.39 337.67 1177.77 337.514 1178.32C337.364 1178.87 337.289 1180.03 337.289 1181.8V1185ZM341.156 1174.63H344.076L346.557 1181.99L348.979 1174.63H351.82L348.158 1184.61L347.504 1186.42C347.263 1187.02 347.032 1187.48 346.811 1187.8C346.596 1188.12 346.345 1188.38 346.059 1188.57C345.779 1188.78 345.43 1188.93 345.014 1189.04C344.604 1189.15 344.138 1189.21 343.617 1189.21C343.09 1189.21 342.572 1189.15 342.064 1189.04L341.82 1186.89C342.25 1186.98 342.637 1187.02 342.982 1187.02C343.62 1187.02 344.092 1186.83 344.398 1186.46C344.704 1186.08 344.939 1185.61 345.102 1185.03L341.156 1174.63ZM362.396 1185V1173.11H358.148V1170.68H369.525V1173.11H365.287V1185H362.396ZM371.01 1173.22V1170.68H373.754V1173.22H371.01ZM371.01 1185V1174.63H373.754V1185H371.01ZM381.332 1174.63V1176.82H379.457V1181C379.457 1181.84 379.473 1182.34 379.506 1182.48C379.545 1182.62 379.626 1182.73 379.75 1182.82C379.88 1182.91 380.036 1182.96 380.219 1182.96C380.473 1182.96 380.84 1182.87 381.322 1182.7L381.557 1184.82C380.919 1185.1 380.196 1185.23 379.389 1185.23C378.894 1185.23 378.448 1185.15 378.051 1184.99C377.654 1184.82 377.361 1184.61 377.172 1184.35C376.99 1184.08 376.863 1183.72 376.791 1183.27C376.732 1182.95 376.703 1182.31 376.703 1181.34V1176.82H375.443V1174.63H376.703V1172.57L379.457 1170.97V1174.63H381.332ZM383.236 1185V1170.68H385.98V1185H383.236ZM394.809 1181.7L397.543 1182.16C397.191 1183.16 396.635 1183.93 395.873 1184.45C395.118 1184.97 394.171 1185.23 393.031 1185.23C391.228 1185.23 389.893 1184.65 389.027 1183.47C388.344 1182.52 388.002 1181.33 388.002 1179.89C388.002 1178.17 388.451 1176.83 389.35 1175.86C390.248 1174.88 391.384 1174.39 392.758 1174.39C394.301 1174.39 395.518 1174.91 396.41 1175.93C397.302 1176.94 397.729 1178.5 397.689 1180.61H390.814C390.834 1181.42 391.055 1182.05 391.479 1182.51C391.902 1182.96 392.429 1183.18 393.061 1183.18C393.49 1183.18 393.852 1183.07 394.145 1182.83C394.438 1182.6 394.659 1182.22 394.809 1181.7ZM394.965 1178.93C394.945 1178.13 394.74 1177.53 394.35 1177.12C393.959 1176.7 393.484 1176.49 392.924 1176.49C392.325 1176.49 391.83 1176.71 391.439 1177.15C391.049 1177.58 390.857 1178.18 390.863 1178.93H394.965Z" fill="#FFFFFF" class="svgc_invert" filter="url(#filter_readability_theme_bistro)"></path>
                <path d="M383 1252H317C309.268 1252 303 1258.27 303 1266C303 1273.73 309.268 1280 317 1280H383C390.732 1280 397 1273.73 397 1266C397 1258.27 390.732 1252 383 1252Z" fill="#3AADAA"></path>
                <path d="M327.795 1261.92H330.701C331.356 1261.92 331.855 1261.97 332.199 1262.07C332.661 1262.21 333.057 1262.45 333.386 1262.8C333.716 1263.14 333.966 1263.57 334.138 1264.07C334.31 1264.58 334.396 1265.2 334.396 1265.93C334.396 1266.58 334.315 1267.14 334.154 1267.61C333.957 1268.18 333.676 1268.65 333.311 1269C333.035 1269.27 332.663 1269.48 332.194 1269.63C331.843 1269.74 331.374 1269.8 330.787 1269.8H327.795V1261.92ZM329.385 1263.25V1268.47H330.572C331.016 1268.47 331.336 1268.44 331.533 1268.39C331.791 1268.33 332.004 1268.22 332.172 1268.07C332.344 1267.91 332.484 1267.66 332.591 1267.31C332.699 1266.95 332.752 1266.47 332.752 1265.86C332.752 1265.25 332.699 1264.79 332.591 1264.46C332.484 1264.14 332.333 1263.88 332.14 1263.7C331.947 1263.52 331.701 1263.39 331.404 1263.33C331.182 1263.28 330.747 1263.25 330.099 1263.25H329.385ZM335.739 1263.32V1261.92H337.248V1263.32H335.739ZM335.739 1269.8V1264.09H337.248V1269.8H335.739ZM338.269 1268.17L339.783 1267.94C339.848 1268.23 339.978 1268.45 340.175 1268.61C340.372 1268.76 340.648 1268.83 341.002 1268.83C341.393 1268.83 341.686 1268.76 341.883 1268.62C342.016 1268.52 342.082 1268.38 342.082 1268.22C342.082 1268.1 342.046 1268.01 341.975 1267.93C341.899 1267.86 341.731 1267.79 341.47 1267.73C340.252 1267.46 339.481 1267.22 339.155 1267C338.704 1266.69 338.478 1266.26 338.478 1265.71C338.478 1265.22 338.673 1264.8 339.063 1264.47C339.454 1264.13 340.059 1263.96 340.879 1263.96C341.66 1263.96 342.24 1264.09 342.619 1264.34C342.999 1264.6 343.26 1264.97 343.403 1265.47L341.98 1265.73C341.919 1265.51 341.803 1265.34 341.631 1265.22C341.463 1265.11 341.221 1265.05 340.906 1265.05C340.508 1265.05 340.224 1265.1 340.052 1265.21C339.937 1265.29 339.88 1265.39 339.88 1265.52C339.88 1265.63 339.93 1265.72 340.03 1265.79C340.166 1265.89 340.635 1266.04 341.438 1266.22C342.243 1266.4 342.805 1266.62 343.124 1266.89C343.439 1267.16 343.597 1267.53 343.597 1268.01C343.597 1268.53 343.378 1268.98 342.941 1269.36C342.505 1269.74 341.858 1269.92 341.002 1269.92C340.225 1269.92 339.61 1269.77 339.155 1269.45C338.704 1269.14 338.408 1268.71 338.269 1268.17ZM349.897 1265.78L348.409 1266.05C348.359 1265.75 348.244 1265.53 348.065 1265.37C347.89 1265.22 347.661 1265.15 347.378 1265.15C347.002 1265.15 346.701 1265.28 346.476 1265.54C346.254 1265.8 346.143 1266.23 346.143 1266.84C346.143 1267.52 346.255 1268 346.481 1268.28C346.71 1268.55 347.016 1268.69 347.399 1268.69C347.686 1268.69 347.92 1268.61 348.103 1268.45C348.286 1268.29 348.415 1268.01 348.49 1267.61L349.972 1267.86C349.818 1268.54 349.523 1269.06 349.086 1269.4C348.649 1269.75 348.064 1269.92 347.33 1269.92C346.495 1269.92 345.829 1269.66 345.332 1269.13C344.837 1268.61 344.59 1267.88 344.59 1266.95C344.59 1266.01 344.839 1265.27 345.337 1264.75C345.835 1264.23 346.508 1263.96 347.356 1263.96C348.051 1263.96 348.603 1264.11 349.011 1264.41C349.423 1264.71 349.718 1265.17 349.897 1265.78ZM350.697 1266.86C350.697 1266.36 350.821 1265.88 351.068 1265.41C351.315 1264.94 351.664 1264.58 352.115 1264.33C352.57 1264.09 353.077 1263.96 353.635 1263.96C354.498 1263.96 355.205 1264.24 355.757 1264.81C356.308 1265.36 356.584 1266.07 356.584 1266.93C356.584 1267.79 356.305 1268.51 355.746 1269.08C355.191 1269.64 354.491 1269.92 353.646 1269.92C353.123 1269.92 352.624 1269.81 352.147 1269.57C351.675 1269.33 351.315 1268.99 351.068 1268.53C350.821 1268.07 350.697 1267.52 350.697 1266.86ZM352.244 1266.94C352.244 1267.51 352.378 1267.94 352.647 1268.24C352.916 1268.54 353.247 1268.69 353.641 1268.69C354.035 1268.69 354.364 1268.54 354.629 1268.24C354.897 1267.94 355.032 1267.51 355.032 1266.93C355.032 1266.37 354.897 1265.94 354.629 1265.64C354.364 1265.34 354.035 1265.19 353.641 1265.19C353.247 1265.19 352.916 1265.34 352.647 1265.64C352.378 1265.94 352.244 1266.38 352.244 1266.94ZM359.339 1269.8L357.041 1264.09H358.625L359.699 1267L360.011 1267.97C360.093 1267.73 360.145 1267.56 360.167 1267.49C360.217 1267.32 360.27 1267.16 360.328 1267L361.413 1264.09H362.965L360.698 1269.8H359.339ZM367.197 1267.98L368.701 1268.23C368.508 1268.78 368.202 1269.2 367.783 1269.49C367.367 1269.78 366.846 1269.92 366.22 1269.92C365.228 1269.92 364.494 1269.6 364.018 1268.95C363.642 1268.43 363.454 1267.78 363.454 1266.99C363.454 1266.04 363.701 1265.3 364.195 1264.77C364.689 1264.23 365.314 1263.96 366.069 1263.96C366.918 1263.96 367.588 1264.24 368.078 1264.81C368.569 1265.36 368.803 1266.22 368.782 1267.38H365C365.011 1267.83 365.133 1268.17 365.366 1268.43C365.598 1268.67 365.889 1268.8 366.236 1268.8C366.472 1268.8 366.671 1268.73 366.832 1268.6C366.993 1268.47 367.115 1268.27 367.197 1267.98ZM367.283 1266.45C367.272 1266.02 367.16 1265.69 366.945 1265.46C366.73 1265.23 366.469 1265.12 366.161 1265.12C365.831 1265.12 365.559 1265.24 365.344 1265.48C365.129 1265.72 365.024 1266.04 365.027 1266.45H367.283ZM371.462 1269.8H369.953V1264.09H371.354V1264.9C371.594 1264.52 371.809 1264.27 371.999 1264.14C372.192 1264.02 372.411 1263.96 372.654 1263.96C372.998 1263.96 373.329 1264.06 373.648 1264.25L373.181 1265.56C372.926 1265.4 372.69 1265.32 372.472 1265.32C372.26 1265.32 372.081 1265.37 371.935 1265.49C371.788 1265.61 371.671 1265.82 371.585 1266.12C371.503 1266.43 371.462 1267.06 371.462 1268.03V1269.8Z" fill="#3AADAA" class="svgc_invert" filter="url(#filter_readability_theme_bistro)"></path>
            </g>
        </g>
        <g class="svgc_footer">
            <path d="M700 1361H0V1461H700V1361Z" fill="#FOOTER_COLOR" class="svgc_footer_bg"></path>
            <path d="M630 1409H578V1411H630V1409Z" fill="#FOOTER_COLOR" class="svgc_invert" filter="url(#filter_readability_theme_bistro)"></path>
            <path d="M615 1403H578V1405H615V1403Z" fill="#FOOTER_COLOR" class="svgc_invert" filter="url(#filter_readability_theme_bistro)"></path>
            <path d="M234 1407H70V1409H234V1407Z" fill="#FOOTER_COLOR" fill-opacity="0.4" class="svgc_invert" filter="url(#filter_readability_theme_bistro)"></path>
            <path d="M234 1413H70V1415H234V1413Z" fill="#FOOTER_COLOR" fill-opacity="0.4" class="svgc_invert" filter="url(#filter_readability_theme_bistro)"></path>
            <path d="M234 1419H70V1421H234V1419Z" fill="#FOOTER_COLOR" fill-opacity="0.4" class="svgc_invert" filter="url(#filter_readability_theme_bistro)"></path>
            <path d="M234 1425H70V1427H234V1425Z" fill="#FOOTER_COLOR" fill-opacity="0.4" class="svgc_invert" filter="url(#filter_readability_theme_bistro)"></path>
            <path d="M234 1431H70V1433H234V1431Z" fill="#FOOTER_COLOR" fill-opacity="0.4" class="svgc_invert" filter="url(#filter_readability_theme_bistro)"></path>
            <path d="M327 1407H280V1409H327V1407Z" fill="#FOOTER_COLOR" fill-opacity="0.4" class="svgc_invert" filter="url(#filter_readability_theme_bistro)"></path>
            <path d="M375 1413H280V1415H375V1413Z" fill="#FOOTER_COLOR" fill-opacity="0.4" class="svgc_invert" filter="url(#filter_readability_theme_bistro)"></path>
            <path d="M388 1419H280V1421H388V1419Z" fill="#FOOTER_COLOR" fill-opacity="0.4" class="svgc_invert" filter="url(#filter_readability_theme_bistro)"></path>
            <path d="M415 1425H280V1427H415V1425Z" fill="#FOOTER_COLOR" fill-opacity="0.4" class="svgc_invert" filter="url(#filter_readability_theme_bistro)"></path>
            <path d="M388 1431H280V1433H388V1431Z" fill="#FOOTER_COLOR" fill-opacity="0.4" class="svgc_invert" filter="url(#filter_readability_theme_bistro)"></path>
            <path d="M623 1432C626.866 1432 630 1428.87 630 1425C630 1421.13 626.866 1418 623 1418C619.134 1418 616 1421.13 616 1425C616 1428.87 619.134 1432 623 1432Z" fill="#FOOTER_COLOR" class="svgc_invert" filter="url(#filter_readability_theme_bistro)"></path>
            <path d="M604 1432C607.866 1432 611 1428.87 611 1425C611 1421.13 607.866 1418 604 1418C600.134 1418 597 1421.13 597 1425C597 1428.87 600.134 1432 604 1432Z" fill="#FOOTER_COLOR" class="svgc_invert" filter="url(#filter_readability_theme_bistro)"></path>
            <path d="M585 1432C588.866 1432 592 1428.87 592 1425C592 1421.13 588.866 1418 585 1418C581.134 1418 578 1421.13 578 1425C578 1428.87 581.134 1432 585 1432Z" fill="#FOOTER_COLOR" class="svgc_invert" filter="url(#filter_readability_theme_bistro)"></path>
            <path d="M139 1384H70V1394H139V1384Z" fill="#FOOTER_COLOR" class="svgc_invert" filter="url(#filter_readability_theme_bistro)"></path>
        </g>
    </g>
    <defs>
        <clipPath id="clip0_250_2">
            <rect width="700" height="1461" fill="#FFFFFF"></rect>
        </clipPath>
    </defs>
</svg>
