<svg width="50" height="50" viewBox="0 0 50 50" xmlns="http://www.w3.org/2000/svg"><g clip-path="url(#o_icon_l10n__a)"><path fill-rule="evenodd" clip-rule="evenodd" d="M25 0c13.807 0 25 11.193 25 25S38.807 50 25 50 0 38.807 0 25 11.193 0 25 0Zm0 48c2.105 0 4.598-1.844 6.682-6.188 1.047-2.181 1.902-4.832 2.481-7.812H15.837c.58 2.98 1.434 5.631 2.48 7.812C20.403 46.156 22.896 48 25 48Zm-9.503-16h19.006c.322-2.202.497-4.552.497-7 0-2.448-.175-4.798-.497-7H15.497A48.566 48.566 0 0 0 15 25c0 2.448.175 4.798.497 7Zm.34-16c.58-2.98 1.434-5.631 2.48-7.812C20.403 3.845 22.896 2 25 2c2.105 0 4.598 1.845 6.682 6.188 1.047 2.181 1.902 4.832 2.481 7.812H15.837Zm20.686 2c.31 2.221.477 4.57.477 7 0 2.43-.166 4.779-.477 7h10.392A22.987 22.987 0 0 0 48 25c0-2.44-.38-4.793-1.085-7H36.523Zm9.65-2h-9.974c-1.08-5.826-3.177-10.599-5.837-13.372C37.502 4.333 43.35 9.368 46.172 16ZM13.8 16H3.828c2.822-6.632 8.67-11.667 15.81-13.372-2.66 2.773-4.757 7.546-5.837 13.372ZM3.085 18h10.392A50.707 50.707 0 0 0 13 25c0 2.43.166 4.779.477 7H3.085A22.986 22.986 0 0 1 2 25c0-2.44.38-4.793 1.085-7Zm27.277 29.372c2.66-2.773 4.757-7.546 5.837-13.372h9.974c-2.823 6.632-8.67 11.667-15.811 13.372Zm-10.724 0C12.498 45.667 6.65 40.632 3.828 34H13.8c1.08 5.826 3.177 10.599 5.837 13.372Z" fill="#1AD3BB"/></g><defs><clipPath id="o_icon_l10n__a"><path fill="#fff" d="M0 0h50v50H0z"/></clipPath></defs></svg>
