<?xml version="1.0" encoding="UTF-8"?>
<svg version="1.1" xmlns="http://www.w3.org/2000/svg" width="736" height="776">
<path d="M0 0 C26.4 0 52.8 0 80 0 C81.65 6.93 83.3 13.86 85 21 C97.7142301 58.57761342 121.23871654 89.88440507 157.27514648 107.78808594 C175.2332128 116.34456567 194.98309671 122.37447177 215 123 C215.95326172 123.0306958 215.95326172 123.0306958 216.92578125 123.06201172 C251.87310097 124.02833386 286.22344749 115.27062092 313 92 C313.88042969 91.26394531 314.76085937 90.52789063 315.66796875 89.76953125 C335.0930599 72.9746358 347.10579164 49.7446284 356 26 C362.90242256 27.41231252 369.49102254 29.34085 376.17578125 31.5546875 C377.22219284 31.89750763 378.26860443 32.24032776 379.34672546 32.59353638 C382.66997889 33.68335957 385.99124484 34.77910413 389.3125 35.875 C391.53047222 36.60325069 393.74857013 37.3311187 395.96679688 38.05859375 C405.98622777 41.34747899 415.99753441 44.65985839 426 48 C420.47494859 79.09400644 402.72630626 107.68479242 382 131 C381.13117188 131.99128906 380.26234375 132.98257813 379.3671875 134.00390625 C348.83585518 168.31664212 304.76602586 187.97512344 260 195 C259.26620117 195.11859375 258.53240234 195.2371875 257.77636719 195.359375 C199.60500783 204.32935056 136.33622238 189.88701489 88.72607422 155.27392578 C81.08417096 149.63383367 73.91697401 143.50502127 67 137 C66.44151367 136.4755127 65.88302734 135.95102539 65.30761719 135.41064453 C27.66774479 99.7651387 6.37621921 51.00975366 0 0 Z " fill="#3CB34D" transform="translate(155,422)"/>
<path d="M0 0 C28.66665668 3.07721173 57.90246054 16.0165151 81 33 C82.56621094 34.12341797 82.56621094 34.12341797 84.1640625 35.26953125 C107.05120678 52.16250279 125.58028577 74.45168374 138 100 C127.29309111 108.05896368 116.28100475 115.57034153 105.09814453 122.95068359 C99.73427437 126.49869984 94.38667506 130.07112386 89.03723145 133.64083862 C86.08139834 135.61300332 83.12465877 137.58380785 80.16796875 139.5546875 C79.17047607 140.21968262 78.1729834 140.88467773 77.14526367 141.56982422 C76.43732666 142.04178223 75.72938965 142.51374023 75 143 C72.79585201 140.96020665 71.37445192 139.10179026 70.0546875 136.41015625 C69.70470703 135.71414307 69.35472656 135.01812988 68.99414062 134.30102539 C68.62482422 133.56231201 68.25550781 132.82359863 67.875 132.0625 C63.91400089 124.38034061 59.52607906 117.67774878 54 111 C53.31550781 110.15179688 52.63101563 109.30359375 51.92578125 108.4296875 C34.7350846 88.15674025 9.65286907 76.37634981 -16 71 C-15.35129842 63.23949157 -13.69973979 55.88233665 -11.875 48.3203125 C-11.56450861 47.01767104 -11.25445781 45.71492448 -10.94482422 44.41207886 C-10.29915248 41.70003592 -9.65003995 38.9888504 -8.99804688 36.27832031 C-8.16283055 32.80599336 -7.33353648 29.33228776 -6.50643921 25.85801888 C-5.71454117 22.5324921 -4.91995437 19.20760978 -4.125 15.8828125 C-3.82706543 14.63597687 -3.52913086 13.38914124 -3.22216797 12.10452271 C-2.94518066 10.95257416 -2.66819336 9.80062561 -2.3828125 8.61376953 C-2.13934082 7.59944855 -1.89586914 6.58512756 -1.64501953 5.54006958 C-1.1708872 3.67294919 -0.60917485 1.82752456 0 0 Z " fill="#3CB34D" transform="translate(426,158)"/>
<path d="M0 0 C9.03969478 7.42743215 16.4786468 18.61779084 17.66943359 30.47802734 C18.51667673 45.76110445 16.98791449 58.33155846 6.4375 70.16796875 C5.96054687 70.75964844 5.48359375 71.35132813 4.9921875 71.9609375 C-2.55944371 80.55613583 -14.90986965 85.64221552 -26.14453125 86.4140625 C-41.68408161 87.0602094 -53.66221819 82.62609484 -65.1875 72.16796875 C-75.97727585 61.05639256 -78.04645253 48.23337776 -77.83984375 33.39453125 C-77.62464743 27.35832811 -76.41305411 22.50384972 -73.5625 17.16796875 C-73.15 16.32363281 -72.7375 15.47929687 -72.3125 14.609375 C-66.03620149 2.89480648 -55.61749147 -4.35726792 -43.22265625 -8.640625 C-28.28937382 -12.55622347 -12.40222902 -8.86683752 0 0 Z " fill="#3CB34D" transform="translate(298.5625,186.83203125)"/>
</svg>
