<?xml version="1.0" encoding="UTF-8"?>
<svg version="1.1" xmlns="http://www.w3.org/2000/svg" width="512" height="512">
<path d="M0 0 C168.96 0 337.92 0 512 0 C512 168.96 512 337.92 512 512 C343.04 512 174.08 512 0 512 C0 343.04 0 174.08 0 0 Z " fill="#CC0172" transform="translate(0,0)"/>
<path d="M0 0 C8.82927343 -0.35226187 16.08285845 1.38987438 23.47265625 6.31640625 C25.28515625 8.19140625 25.28515625 8.19140625 25.28515625 10.19140625 C25.94515625 10.19140625 26.60515625 10.19140625 27.28515625 10.19140625 C27.28515625 7.55140625 27.28515625 4.91140625 27.28515625 2.19140625 C34.87515625 2.19140625 42.46515625 2.19140625 50.28515625 2.19140625 C50.34123047 7.53585938 50.34123047 7.53585938 50.3984375 12.98828125 C50.44464114 16.43691163 50.49587915 19.88543297 50.54760742 23.33398438 C50.58087302 25.7317035 50.6088998 28.12950124 50.6315918 30.52734375 C50.66510705 33.97299724 50.7174228 37.4179292 50.7734375 40.86328125 C50.77982742 41.93632507 50.78621735 43.0093689 50.7928009 44.1149292 C50.81259506 45.11566467 50.83238922 46.11640015 50.8527832 47.14746094 C50.86388626 48.02682312 50.87498932 48.9061853 50.88642883 49.81219482 C51.3683318 52.68771577 52.29214714 54.08783176 54.28515625 56.19140625 C56.68942136 56.7118002 56.68942136 56.7118002 59.28515625 56.50390625 C60.15140625 56.47941406 61.01765625 56.45492187 61.91015625 56.4296875 C64.43216407 56.2645943 64.43216407 56.2645943 67.28515625 55.19140625 C67.28515625 61.13140625 67.28515625 67.07140625 67.28515625 73.19140625 C57.52990538 76.84962533 49.00254231 79.32438367 39.06640625 75.10546875 C34.40716554 72.71454259 31.39077983 69.33223769 28.28515625 65.19140625 C27.74890625 65.93390625 27.21265625 66.67640625 26.66015625 67.44140625 C21.07251613 73.91130533 14.11516835 76.74745165 5.7578125 77.515625 C-6.2411822 77.86889489 -15.76721001 75.37209996 -24.71484375 67.19140625 C-32.37630263 59.79658747 -36.62915266 49.69301397 -37.08984375 39.06640625 C-36.83711031 27.58283046 -32.76039713 18.40311649 -24.8671875 10.29296875 C-17.48672809 3.3380229 -10.02665255 0.70691507 0 0 Z " fill="#FEFCFD" transform="translate(218.71484375,217.80859375)"/>
<path d="M0 0 C4.45574868 4.72579406 6.30810982 8.29375258 6.5625 14.75 C6.37538352 19.62171109 5.39464123 22.48512086 2.0625 26.1875 C-2.11991817 29.97781647 -6.16049213 30.60864777 -11.77734375 30.53515625 C-16.85838515 29.71741179 -20.74364212 26.64251429 -23.9375 22.75 C-25.11144956 19.74175426 -25.16090438 17.38962945 -24.9375 14.1875 C-31.50842342 15.81949405 -35.18625932 17.44341271 -38.9375 23.1875 C-40.73675148 28.91028052 -40.82190297 34.8913997 -38.4375 40.4375 C-35.71929614 45.30114334 -31.29735855 48.08394813 -26.0703125 49.80078125 C-15.16478458 51.77815719 -5.94646375 49.1910855 4.0625 45.1875 C4.0625 52.4475 4.0625 59.7075 4.0625 67.1875 C-9.46051458 72.25863047 -24.21947481 73.52900213 -38.07421875 68.51171875 C-48.66363899 63.61429247 -56.67567964 56.14930756 -61.2109375 45.36328125 C-64.356586 35.94324784 -64.0322312 25.2451033 -59.9375 16.1875 C-53.99341072 5.83526183 -45.7354483 -1.99401564 -34.03808594 -5.35888672 C-22.40595383 -7.87079995 -10.07271044 -6.21507665 0 0 Z " fill="#FEFBFD" transform="translate(168.9375,223.8125)"/>
<path d="M0 0 C3.26717888 2.86874243 5.25396703 4.93600269 5.84375 9.359375 C6.04616979 14.38613321 5.43884195 17.98507917 2.5625 22.25 C-2.63735651 27.05986728 -6.8329983 27.57808489 -13.6953125 27.55078125 C-17.62180191 27.12009794 -19.48708998 25.80170596 -22.4375 23.25 C-26.6111123 24.99535615 -27.80482275 26.95732281 -29.64758301 30.96240234 C-30.97777756 34.81464249 -31.04075311 38.51763806 -31.046875 42.5625 C-31.06341125 43.41682617 -31.07994751 44.27115234 -31.09698486 45.15136719 C-31.1451482 47.85098688 -31.1667645 50.55004466 -31.1875 53.25 C-31.21568628 55.09247571 -31.24561739 56.9349256 -31.27734375 58.77734375 C-31.35414986 63.26847974 -31.39496107 67.75788934 -31.4375 72.25 C-39.0275 72.25 -46.6175 72.25 -54.4375 72.25 C-54.4375 48.16 -54.4375 24.07 -54.4375 -0.75 C-46.8475 -0.75 -39.2575 -0.75 -31.4375 -0.75 C-31.1075 2.22 -30.7775 5.19 -30.4375 8.25 C-29.756875 7.3425 -29.07625 6.435 -28.375 5.5 C-24.9730295 1.42341778 -21.15925237 -0.79370863 -16.125 -2.5625 C-10.33225642 -2.9666449 -5.2189224 -2.65690595 0 0 Z " fill="#FEFDFE" transform="translate(348.4375,220.75)"/>
<path d="M0 0 C3.91613213 2.67841593 7.34109647 5.88279448 8.55517578 10.58959961 C8.78365362 13.03793868 8.79814982 15.39563936 8.72827148 17.85302734 C8.75147461 18.66900391 8.77467773 19.48498047 8.79858398 20.32568359 C8.74462326 25.92860508 7.41661265 28.91192182 3.56347656 32.96655273 C-1.89998443 37.74508268 -7.83036346 38.00312064 -14.85766602 37.83349609 C-21.26487529 36.8605495 -24.61280717 33.15933676 -28.45922852 28.22802734 C-31.20711759 23.17191144 -31.84515147 18.04213136 -31.02172852 12.35302734 C-28.34332399 5.88791298 -23.73581911 1.46102471 -17.70922852 -1.95947266 C-11.39548387 -3.57461664 -5.68677993 -3.36226227 0 0 Z " fill="#CC0272" transform="translate(237.021728515625,238.64697265625)"/>
<path d="M0 0 C0.86625 0.32484375 1.7325 0.6496875 2.625 0.984375 C5.95319791 1.98591604 8.54217213 2.26800952 12 2.25 C12.99 2.25515625 13.98 2.2603125 15 2.265625 C18.25314685 1.97758596 20.95084492 1.14343315 24 0 C24.01458252 0.59538574 24.02916504 1.19077148 24.04418945 1.80419922 C24.11854344 4.49513051 24.21524187 7.18480333 24.3125 9.875 C24.33505859 10.81214844 24.35761719 11.74929688 24.38085938 12.71484375 C24.4340332 14.05869141 24.4340332 14.05869141 24.48828125 15.4296875 C24.51446533 16.25710449 24.54064941 17.08452148 24.56762695 17.93701172 C24.83096637 20.39327932 24.83096637 20.39327932 28 22 C32.01499931 22.26874159 35.97137407 22.08663712 40 22 C40 27.61 40 33.22 40 39 C31.65774491 42.98436064 23.47824934 45.09817926 14.3828125 42.15234375 C7.15965371 38.56508476 2.58305148 32.556821 0 25 C-0.22705078 22.13745117 -0.22705078 22.13745117 -0.1953125 19.04296875 C-0.18886719 17.93115234 -0.18242187 16.81933594 -0.17578125 15.67382812 C-0.15902344 14.52333984 -0.14226562 13.37285156 -0.125 12.1875 C-0.11597656 11.01767578 -0.10695313 9.84785156 -0.09765625 8.64257812 C-0.07413732 5.76150947 -0.04126852 2.88086011 0 0 Z " fill="#FEFAFC" transform="translate(366,252)"/>
<path d="M0 0 C6.39733969 5.54436107 6.39733969 5.54436107 6.84375 9.61328125 C7.01145789 15.4389239 6.68383223 18.93374135 2.60546875 23.44140625 C-1.26433582 27.21198506 -4.59650446 27.80222829 -9.83203125 28.06640625 C-15.28517832 27.90455485 -18.27889304 27.00037519 -22.125 23.14453125 C-25.84781601 18.15023038 -26.1740258 13.53301184 -25.39453125 7.44140625 C-23.19508452 2.96105181 -20.89321307 0.57828011 -16.39453125 -1.55859375 C-10.85046903 -3.27073061 -4.94598233 -3.21932618 0 0 Z " fill="#FEFCFD" transform="translate(387.39453125,220.55859375)"/>
</svg>
