<?xml version="1.0" encoding="UTF-8"?>
<svg version="1.1" xmlns="http://www.w3.org/2000/svg" width="389" height="436">
<path d="M0 0 C52.96204865 -0.97125656 99.54752639 19.91608359 137.96484375 55.33984375 C143.31892848 60.52395753 147.97382157 66.25615791 152.55859375 72.12109375 C152.98011719 72.65025391 153.40164063 73.17941406 153.8359375 73.72460938 C183.51706936 111.20034115 196.63058915 160.59635078 192.04541016 207.96923828 C191.64790474 211.37139292 191.13661079 214.74521981 190.55859375 218.12109375 C190.43500488 218.85424805 190.31141602 219.58740234 190.18408203 220.34277344 C183.30885297 259.62741561 163.994301 295.72469407 138.55859375 326.12109375 C137.72972656 327.12269531 136.90085937 328.12429688 136.046875 329.15625 C123.04021683 344.77883816 109.12642656 360.0113398 93.55859375 373.12109375 C92.56988281 373.98734375 91.58117187 374.85359375 90.5625 375.74609375 C81.54240493 383.63392089 72.15423067 390.94957441 62.55859375 398.12109375 C61.77758301 398.70713379 60.99657227 399.29317383 60.19189453 399.89697266 C49.85642277 407.64072596 39.39801489 415.10030426 28.55859375 422.12109375 C27.25910857 422.96874079 25.95962949 423.81639716 24.66015625 424.6640625 C23.39757769 425.48375455 22.13457198 426.30278913 20.87109375 427.12109375 C20.29447998 427.49532471 19.71786621 427.86955566 19.1237793 428.25512695 C17.61221192 429.22644687 16.08600046 430.17487651 14.55859375 431.12109375 C13.93082031 431.52070313 13.30304688 431.9203125 12.65625 432.33203125 C5.9764886 434.84471617 -3.65492421 434.59684488 -10.1796875 431.68359375 C-13.7620881 429.67128265 -17.10155696 427.50546822 -20.44140625 425.12109375 C-21.60380804 424.31849077 -22.76657147 423.51641131 -23.9296875 422.71484375 C-26.88774545 420.65046014 -29.79992842 418.52875139 -32.70458984 416.39013672 C-34.40335251 415.14889855 -36.11565462 413.92994426 -37.8359375 412.71875 C-54.65260938 400.87693992 -70.72946243 388.24976065 -85.9296875 374.38671875 C-87.3288361 373.12465625 -88.73447288 371.8693597 -90.16381836 370.64160156 C-95.80913657 365.78599161 -101.11716408 360.6378158 -106.37890625 355.37109375 C-107.26626465 354.48292969 -108.15362305 353.59476562 -109.06787109 352.6796875 C-114.94626165 346.74591215 -120.32771763 340.72410513 -125.44140625 334.12109375 C-127.04218742 332.24320256 -128.6465691 330.36837658 -130.25390625 328.49609375 C-162.79111553 289.37097966 -184.64569555 240.73210098 -184.69140625 189.37109375 C-184.69208099 188.68679291 -184.69275574 188.00249207 -184.69345093 187.29745483 C-184.67485774 175.3653188 -183.84452881 163.82685514 -181.44140625 152.12109375 C-181.27511719 151.3017334 -181.10882813 150.48237305 -180.9375 149.63818359 C-171.43124292 104.47466038 -145.44633111 64.54643384 -108.44140625 37.12109375 C-107.40242188 36.34894531 -106.3634375 35.57679687 -105.29296875 34.78125 C-74.28939745 12.56332548 -37.96119386 1.33575143 0 0 Z M-79.44140625 87.12109375 C-79.95155273 87.54616211 -80.46169922 87.97123047 -80.98730469 88.40917969 C-106.00252604 109.49049178 -122.51916824 141.55985137 -125.44140625 174.12109375 C-127.5564577 211.52882574 -117.58299513 244.22058796 -93.44140625 273.12109375 C-92.92707031 273.75917969 -92.41273437 274.39726562 -91.8828125 275.0546875 C-71.73260023 299.57350948 -38.56091127 314.403029 -7.43383789 317.65649414 C25.14303137 320.59158855 59.8428502 311.31699835 85.49609375 290.55859375 C87.19287301 289.09008076 88.88095541 287.61143595 90.55859375 286.12109375 C91.33589844 285.47527344 92.11320313 284.82945312 92.9140625 284.1640625 C98.92524373 279.08404532 103.76197019 273.34211715 108.55859375 267.12109375 C109.22761719 266.27933594 109.89664063 265.43757812 110.5859375 264.5703125 C131.8065664 236.87844231 138.74688718 202.53734043 135.125 168.28125 C130.56556221 135.07129097 111.54986137 103.39322203 85.0690918 83.03369141 C73.47634265 74.46990771 61.14237032 67.89499306 47.55859375 63.12109375 C46.54023438 62.74339844 45.521875 62.36570312 44.47265625 61.9765625 C2.25325772 47.48738589 -45.81489892 58.78942694 -79.44140625 87.12109375 Z " fill="#DD5B53" transform="translate(191.44140625,2.87890625)"/>
<path d="M0 0 C3.68862016 1.60374789 6.11964038 3.42731672 8 7 C9.24839341 11.62534249 9.38258811 14.97976505 7.6875 19.5 C4.71797688 23.90412382 0.5671009 27.1722908 -3.42529297 30.61474609 C-6.47407973 33.29673308 -9.41601917 36.09482771 -12.375 38.875 C-30.63603484 55.96666566 -30.63603484 55.96666566 -39 63 C-37.66938508 65.87666273 -36.17712023 68.21136636 -34.125 70.625 C-33.63257813 71.21539062 -33.14015625 71.80578125 -32.6328125 72.4140625 C-28.42027208 76.50566875 -24.05992278 76.26085972 -18.4375 76.375 C-2.21303463 77.0185964 10.89919379 84.19356115 22 96 C28.35177796 103.62213355 33.44215559 111.70920979 37 121 C37.433125 122.11375 37.86625 123.2275 38.3125 124.375 C39.00866295 127.03307672 39.16088153 129.265014 39 132 C37.3515625 132.8046875 37.3515625 132.8046875 35 133 C32.91548642 131.44119952 31.20369521 129.94662551 29.375 128.125 C28.2999629 127.09584863 27.22443528 126.06720942 26.1484375 125.0390625 C25.61573242 124.5224707 25.08302734 124.00587891 24.53417969 123.47363281 C22.4042053 121.42771852 20.2060528 119.4633156 18 117.5 C15.26783581 115.05077838 12.54839272 112.58956376 9.8515625 110.1015625 C9.0471875 109.3600293 9.0471875 109.3600293 8.2265625 108.60351562 C7.18599978 107.64289858 6.14685417 106.68074338 5.109375 105.71679688 C0.27024903 100.73058766 0.27024903 100.73058766 -6 99 C-5.13864032 103.52975288 -2.48993314 106.02615638 0.625 109.25 C1.73245434 110.42253189 2.83922954 111.59570561 3.9453125 112.76953125 C4.47801758 113.3310791 5.01072266 113.89262695 5.55957031 114.47119141 C7.79761728 116.84655583 9.94496422 119.29294232 12.07421875 121.765625 C13.70974782 123.66323682 15.36144813 125.54403369 17.01953125 127.421875 C18.11747531 128.67683159 19.21512942 129.93204191 20.3125 131.1875 C20.84101563 131.78232178 21.36953125 132.37714355 21.9140625 132.98999023 C27.06212786 138.91708292 27.06212786 138.91708292 28 143 C27.34 143.99 26.68 144.98 26 146 C15.73233833 144.75543495 6.5570397 132.88772908 -0.76171875 126.02734375 C-9.28825117 116.84747347 -9.28825117 116.84747347 -20 112 C-18.57728212 116.46326925 -16.12575306 119.37330198 -12.9375 122.6875 C-11.93444882 123.7547884 -10.9318505 124.82250257 -9.9296875 125.890625 C-9.43178711 126.41720703 -8.93388672 126.94378906 -8.42089844 127.48632812 C-5.69514584 130.39005083 -3.06157693 133.37671902 -0.4140625 136.3515625 C1.437198 138.38255703 3.31231742 140.36575306 5.2265625 142.3359375 C5.77900635 142.912229 6.3314502 143.48852051 6.90063477 144.08227539 C7.98734045 145.21368176 9.08387451 146.33575024 10.19116211 147.44702148 C12.56034567 149.93032683 13.93150089 151.41815124 14.33984375 154.88671875 C14.22769531 155.58410156 14.11554688 156.28148437 14 157 C-2.79646674 155.91635698 -17.16671152 145.95278254 -28.5546875 134.00390625 C-37.28879147 123.27463156 -41.30517577 112.72424509 -41.390625 98.98828125 C-41.60264627 91.57931587 -44.38574734 87.37434878 -49.5 82.0625 C-50.0671875 81.45535156 -50.634375 80.84820312 -51.21875 80.22265625 C-52.90826601 78.76952422 -52.90826601 78.76952422 -54.91137695 79.26000977 C-57.19735575 80.0699223 -58.42660713 80.97791514 -60.19921875 82.6171875 C-60.76833984 83.14183594 -61.33746094 83.66648437 -61.92382812 84.20703125 C-62.50583984 84.75746094 -63.08785156 85.30789062 -63.6875 85.875 C-64.28111328 86.41769531 -64.87472656 86.96039063 -65.48632812 87.51953125 C-69.00040782 90.72704322 -69.00040782 90.72704322 -71 95 C-70.97720707 97.00163328 -70.94940237 99.00348712 -70.88305664 101.00415039 C-70.48456905 114.39416059 -72.6929083 124.91731732 -82 135 C-82.50015625 135.60199219 -83.0003125 136.20398438 -83.515625 136.82421875 C-92.80498598 147.26302086 -108.78286641 154.14677312 -122.55859375 155.03125 C-129.08115039 154.94776128 -135.35549965 153.85387381 -140.52734375 149.66015625 C-145.6087188 143.93181568 -146.67369146 136.62030115 -146.37890625 129.203125 C-144.34372007 111.99845831 -135.44140079 97.51776138 -122.125 86.625 C-113.31374316 80.57906938 -105.17182754 79.54323177 -94.7253418 80.05908203 C-88.75023952 80.2942205 -84.87960256 79.37462006 -80.12890625 75.45703125 C-77.25888281 72.4438645 -74.45134458 69.3949453 -71.73046875 66.24609375 C-68.16348089 62.15639427 -64.47772024 58.19294094 -60.75 54.25 C-55.34763096 48.51185663 -49.98740086 42.74064591 -44.671875 36.921875 C-41.81122242 33.79355902 -38.93875027 30.67646458 -36.0625 27.5625 C-35.56919189 27.02794189 -35.07588379 26.49338379 -34.56762695 25.94262695 C-31.95479938 23.1122408 -29.33758144 20.28605051 -26.71484375 17.46484375 C-26.17657959 16.88468506 -25.63831543 16.30452637 -25.08374023 15.70678711 C-24.05992307 14.60342565 -23.03478442 13.50128829 -22.00805664 12.40063477 C-19.84874766 10.07135429 -17.77638957 7.72019014 -15.79296875 5.23828125 C-11.43885272 -0.19724922 -6.62370354 -0.8911892 0 0 Z " fill="#DD5B53" transform="translate(250,108)"/>
<path d="M0 0 C4.35030785 2.92979916 7.50209447 6.59703555 10.890625 10.5703125 C13.49007661 13.56449565 16.1782084 16.46865041 18.875 19.375 C19.91025704 20.49600068 20.94541375 21.61709402 21.98046875 22.73828125 C23.89134595 24.80621685 25.81112724 26.86520748 27.73828125 28.91796875 C28.54652344 29.79066406 29.35476562 30.66335937 30.1875 31.5625 C30.90292969 32.32691406 31.61835938 33.09132812 32.35546875 33.87890625 C34.04784766 36.06171325 34.95046064 37.23130048 35 40 C33.5234375 41.9296875 33.5234375 41.9296875 31.375 43.875 C27.94788485 47.08566578 24.93124536 50.3359433 22 54 C18.60655558 52.51151188 16.21770033 50.5673138 13.5 48.0625 C12.18902344 46.86173828 12.18902344 46.86173828 10.8515625 45.63671875 C9.91054687 44.76660156 8.96953125 43.89648438 8 43 C6.47379116 41.59610576 4.94631044 40.19360807 3.41845703 38.79150391 C2.39019226 37.84781643 1.36252176 36.90348101 0.33544922 35.95849609 C-2.53226046 33.32488517 -5.42961515 30.73379644 -8.375 28.1875 C-18.69171724 19.20614074 -18.69171724 19.20614074 -19.3125 12.75 C-18.93925874 8.27110494 -17.961777 5.38988045 -15 2 C-9.95612496 -1.1039231 -5.5822688 -1.84169114 0 0 Z " fill="#DD5C53" transform="translate(150,108)"/>
</svg>
