<?xml version="1.0" encoding="UTF-8"?>
<svg version="1.1" xmlns="http://www.w3.org/2000/svg" width="397" height="397">
<path d="M0 0 C2.2790221 -0.00322779 4.55804175 -0.00905762 6.83705139 -0.01725769 C12.96275975 -0.03165731 19.08780079 -0.00902548 25.2134285 0.02160144 C31.65261183 0.04816908 38.09177888 0.04266637 44.53100586 0.04151917 C55.33052997 0.04431793 66.12976247 0.07006028 76.92919922 0.11132812 C88.01160287 0.15365446 99.09378395 0.1748364 110.17626953 0.17285156 C110.86020019 0.17273169 111.54413085 0.17261183 112.24878669 0.17248832 C112.93160909 0.17236726 113.61443149 0.1722462 114.31794548 0.17212147 C127.63328581 0.169942 140.94850924 0.19092159 154.26382446 0.21846128 C158.08360197 0.22483658 161.9033622 0.22698219 165.72314453 0.22817802 C171.73162853 0.2312027 177.73988151 0.2496091 183.74828911 0.27967644 C185.94600445 0.2883983 188.14374639 0.29213837 190.34147835 0.29039383 C211.58636105 0.27991554 211.58636105 0.27991554 221.53125 3.72875977 C223.21927734 4.29336914 223.21927734 4.29336914 224.94140625 4.86938477 C231.98099898 7.81377996 238.24058014 11.41994671 244.53125 15.72875977 C245.64113281 16.46545898 245.64113281 16.46545898 246.7734375 17.21704102 C248.4028871 18.32624466 249.9753171 19.51858973 251.53125 20.72875977 C251.53125 21.38875977 251.53125 22.04875977 251.53125 22.72875977 C252.52125 23.05875977 253.51125 23.38875977 254.53125 23.72875977 C254.53125 24.38875977 254.53125 25.04875977 254.53125 25.72875977 C255.52125 26.05875977 256.51125 26.38875977 257.53125 26.72875977 C257.53125 27.38875977 257.53125 28.04875977 257.53125 28.72875977 C258.19125 28.72875977 258.85125 28.72875977 259.53125 28.72875977 C262.53125 32.19029823 262.53125 32.19029823 262.53125 34.72875977 C263.19125 34.72875977 263.85125 34.72875977 264.53125 34.72875977 C269.78036283 43.41649737 274.47451534 51.98609311 277.53125 61.72875977 C277.77875031 62.45269771 278.02625063 63.17663565 278.28125095 63.9225111 C281.41813402 74.38655735 280.96042504 84.96929397 280.93530273 95.78271484 C280.94101259 98.00642743 280.94797922 100.23013708 280.95610046 102.45384216 C280.97398022 108.46638624 280.97287306 114.47878396 280.96715808 120.4913466 C280.96405831 125.52333513 280.97016754 130.55529588 280.97619683 135.58728045 C280.99102439 148.14352009 280.98744305 160.69968942 280.97533352 173.25592401 C280.96540742 184.12825719 280.9783363 195.00042004 281.00226771 205.87272695 C281.02672733 217.07048254 281.0358511 228.26817657 281.02961498 239.46596259 C281.02625493 245.73900244 281.02859697 252.01190165 281.04586601 258.28492165 C281.06140712 264.18743839 281.05730024 270.0896317 281.03856087 275.992136 C281.03489459 278.14828431 281.03792562 280.30445697 281.04844666 282.46058273 C281.13969927 302.72100809 276.89578833 318.6905097 267.53125 336.72875977 C266.87125 336.72875977 266.21125 336.72875977 265.53125 336.72875977 C265.20125 338.04875977 264.87125 339.36875977 264.53125 340.72875977 C263.87125 340.72875977 263.21125 340.72875977 262.53125 340.72875977 C262.20125 342.04875977 261.87125 343.36875977 261.53125 344.72875977 C260.87125 344.72875977 260.21125 344.72875977 259.53125 344.72875977 C259.1909375 345.59500977 259.1909375 345.59500977 258.84375 346.47875977 C257.18276778 349.32615786 255.21600439 350.84943169 252.53125 352.72875977 C251.87125 352.72875977 251.21125 352.72875977 250.53125 352.72875977 C250.28375 353.34235352 250.03625 353.95594727 249.78125 354.58813477 C248.30062747 357.12370085 247.16557463 357.75844762 244.53125 358.97875977 C243.479375 359.48149414 243.479375 359.48149414 242.40625 359.99438477 C240.53125 360.72875977 240.53125 360.72875977 238.53125 360.72875977 C238.53125 361.71875977 238.53125 362.70875977 238.53125 363.72875977 C236.22125 364.05875977 233.91125 364.38875977 231.53125 364.72875977 C231.53125 365.38875977 231.53125 366.04875977 231.53125 366.72875977 C230.21125 366.72875977 228.89125 366.72875977 227.53125 366.72875977 C227.53125 367.38875977 227.53125 368.04875977 227.53125 368.72875977 C224.89125 369.05875977 222.25125 369.38875977 219.53125 369.72875977 C219.53125 370.38875977 219.53125 371.04875977 219.53125 371.72875977 C213.92125 372.05875977 208.31125 372.38875977 202.53125 372.72875977 C202.20125 373.38875977 201.87125 374.04875977 201.53125 374.72875977 C200.54125 374.72875977 199.55125 374.72875977 198.53125 374.72875977 C196.71251578 374.97212303 196.71251578 374.97212303 194.85703945 375.22040272 C190.67501606 375.7602953 186.53162943 375.87153472 182.31861877 375.86247253 C181.53156884 375.86473809 180.7445189 375.86700365 179.93361896 375.86933786 C177.31714022 375.87562774 174.70071395 375.87485172 172.08422852 375.87402344 C170.19932489 375.87701819 168.31442187 375.88042145 166.42951965 375.88420105 C161.32157354 375.89301638 156.21364418 375.89537822 151.10569119 375.89601684 C147.90741824 375.89672913 144.70914951 375.89886691 141.51087761 375.90151405 C130.3325257 375.9107617 119.15418569 375.91484996 107.97583008 375.9140625 C97.59112296 375.91346296 87.206468 375.92399203 76.82177407 375.93980616 C67.88044193 375.95293215 58.93912672 375.95824423 49.99778503 375.95760709 C44.66922066 375.95735344 39.34070259 375.96013014 34.0121479 375.97078514 C28.99127434 375.98055074 23.97049052 375.98048803 18.94961357 375.97326851 C17.12004336 375.97223286 15.2904673 375.97452391 13.46090698 375.98062897 C3.77161508 376.01083278 -5.65517499 375.73400464 -15.24765915 374.25207156 C-16.97861937 374.00093296 -18.72423975 373.85516337 -20.46875 373.72875977 C-21.12875 374.38875977 -21.78875 375.04875977 -22.46875 375.72875977 C-22.46875 374.73875977 -22.46875 373.74875977 -22.46875 372.72875977 C-24.0775 372.79063477 -24.0775 372.79063477 -25.71875 372.85375977 C-29.35674222 372.73249336 -30.42413223 372.34621296 -33.46875 370.72875977 C-35.80032492 370.38334126 -38.13383361 370.0508172 -40.46875 369.72875977 C-42.48291562 369.10619948 -44.48890519 368.45309323 -46.46875 367.72875977 C-46.46875 366.73875977 -46.46875 365.74875977 -46.46875 364.72875977 C-48.44875 364.39875977 -50.42875 364.06875977 -52.46875 363.72875977 C-52.46875 363.06875977 -52.46875 362.40875977 -52.46875 361.72875977 C-53.45875 361.72875977 -54.44875 361.72875977 -55.46875 361.72875977 C-55.79875 361.06875977 -56.12875 360.40875977 -56.46875 359.72875977 C-57.12875 359.56375977 -57.78875 359.39875977 -58.46875 359.22875977 C-59.12875 359.06375977 -59.78875 358.89875977 -60.46875 358.72875977 C-60.79875 358.06875977 -61.12875 357.40875977 -61.46875 356.72875977 C-62.45875 356.39875977 -63.44875 356.06875977 -64.46875 355.72875977 C-64.46875 354.73875977 -64.46875 353.74875977 -64.46875 352.72875977 C-65.45875 352.39875977 -66.44875 352.06875977 -67.46875 351.72875977 C-68.82210895 350.75603302 -70.15537604 349.75483317 -71.46875 348.72875977 C-72.45875 348.06875977 -73.44875 347.40875977 -74.46875 346.72875977 C-74.83317233 345.06861361 -75.16847883 343.40169913 -75.46875 341.72875977 C-76.12875 341.39875977 -76.78875 341.06875977 -77.46875 340.72875977 C-82.00995278 336.88714769 -83.99163736 330.99496398 -86.46875 325.72875977 C-86.92894531 324.78516602 -87.38914062 323.84157227 -87.86328125 322.86938477 C-94.82455386 307.64291538 -94.91051476 291.48118914 -94.85693359 275.05688477 C-94.86100878 272.93420137 -94.86635593 270.8115201 -94.87286377 268.68884277 C-94.88643053 262.97396039 -94.88128306 257.2592422 -94.87172651 251.5443573 C-94.86407433 245.53322949 -94.87119084 239.52211475 -94.87588501 233.51098633 C-94.88132648 223.42079167 -94.87419331 213.33066311 -94.85986328 203.24047852 C-94.84353994 191.61325405 -94.84882958 179.98618747 -94.8653425 168.35896683 C-94.87900334 158.33464848 -94.88085462 148.31037736 -94.87302649 138.2860527 C-94.86837518 132.31709968 -94.86765456 126.34822059 -94.87763596 120.37927246 C-94.88637059 114.76481317 -94.88016628 109.15055533 -94.86295319 103.53611755 C-94.85902278 101.48884921 -94.86006238 99.44156359 -94.86674118 97.39430237 C-94.94083567 72.35266715 -90.81056383 48.08706357 -73.46875 28.72875977 C-72.80875 28.72875977 -72.14875 28.72875977 -71.46875 28.72875977 C-71.46875 28.06875977 -71.46875 27.40875977 -71.46875 26.72875977 C-70.80875 26.72875977 -70.14875 26.72875977 -69.46875 26.72875977 C-68.80875 25.40875977 -68.14875 24.08875977 -67.46875 22.72875977 C-66.80875 22.72875977 -66.14875 22.72875977 -65.46875 22.72875977 C-65.46875 22.06875977 -65.46875 21.40875977 -65.46875 20.72875977 C-63.52077392 19.19627163 -61.58305223 17.79706104 -59.53125 16.41625977 C-58.98662109 16.03791992 -58.44199219 15.65958008 -57.88085938 15.26977539 C-39.68964413 2.84086416 -21.6979663 -0.18104522 0 0 Z " fill="#36B7B1" transform="translate(107.46875,12.271240234375)"/>
<path d="M0 0 C10.80050676 0.57438784 21.51303136 1.65777934 32.26367188 2.83642578 C42.83363786 3.9936695 53.41247522 5.01921554 64 6 C62.89311906 19.20737309 61.552742 32.3827803 60.08984375 45.5546875 C60.00358356 46.33252846 59.91732338 47.11036942 59.82844925 47.91178131 C59.01827362 55.21255725 58.20269191 62.51272551 57.38354492 69.8125 C56.93057543 73.85108189 56.48143478 77.890076 56.03445625 81.9293251 C55.86649795 83.44019853 55.69712971 84.95091608 55.52616692 86.46145248 C54.508028 95.45853094 53.71643113 104.42861969 53.21958923 113.47039795 C52.8881968 118.79708638 52.27581614 124.07931801 51.625 129.375 C50.792747 136.16167667 49.98356386 142.93512372 49.41796875 149.75 C48.24031906 163.16359724 45.78687279 174.45432091 40.08496094 186.66943359 C38.99994252 189.00012347 37.9663404 191.34768197 36.9453125 193.70703125 C33.39855743 201.87213616 29.64477539 209.93759935 25.86328125 217.99609375 C23.6222919 222.79330741 21.43188707 227.61316922 19.25 232.4375 C18.87302979 233.26620605 18.49605957 234.09491211 18.10766602 234.94873047 C15.87300528 239.90565062 13.85451233 244.88835368 12 250 C9.87451055 249.88361873 7.74961554 249.75637282 5.625 249.625 C4.44164062 249.55539062 3.25828125 249.48578125 2.0390625 249.4140625 C-2.72455867 249.0038126 -7.32970694 247.99762545 -12 247 C-13.98518038 246.58676764 -15.97036788 246.17356929 -17.95565796 245.76086426 C-21.84659695 244.95025421 -25.73577639 244.13129408 -29.625 243.3125 C-30.45414917 243.13803345 -31.28329834 242.96356689 -32.13757324 242.78381348 C-43.85153902 240.31715443 -55.55671954 237.81295189 -67.25 235.25 C-67.91760345 235.10368134 -68.58520691 234.95736267 -69.27304077 234.80661011 C-75.22026105 233.50193474 -81.16616888 232.1918738 -87.10546875 230.8515625 C-94.39572337 229.20710213 -101.69312626 227.64781792 -109.02539062 226.19970703 C-113.28685171 225.35761032 -117.54527574 224.50078449 -121.80322266 223.64111328 C-123.94492853 223.21159445 -126.08786055 222.78814742 -128.23193359 222.37060547 C-131.30518781 221.76820054 -134.3713711 221.13754966 -137.4375 220.5 C-138.37303711 220.32283447 -139.30857422 220.14566895 -140.27246094 219.96313477 C-141.13000977 219.77936279 -141.98755859 219.59559082 -142.87109375 219.40625 C-143.99922485 219.17905273 -143.99922485 219.17905273 -145.15014648 218.94726562 C-147 218 -147 218 -148.18847656 215.71801758 C-148.94491256 213.18450314 -149.5892168 210.69649388 -150.11328125 208.10546875 C-150.30672119 207.16219727 -150.50016113 206.21892578 -150.69946289 205.24707031 C-150.90176514 204.23741211 -151.10406738 203.22775391 -151.3125 202.1875 C-151.75505356 200.01949965 -152.19776639 197.85153181 -152.640625 195.68359375 C-152.86556641 194.57483887 -153.09050781 193.46608398 -153.32226562 192.32373047 C-154.17754905 188.12926773 -155.05470108 183.93956813 -155.93359375 179.75 C-157.75362585 171.06810775 -159.55067506 162.38139485 -161.3125 153.6875 C-161.48402588 152.8512207 -161.65555176 152.01494141 -161.83227539 151.15332031 C-162.45586546 148.05324252 -163 145.17092546 -163 142 C-162.03400879 141.80889648 -161.06801758 141.61779297 -160.07275391 141.42089844 C-137.29477575 136.94119662 -137.29477575 136.94119662 -114.60546875 132.0390625 C-108.20504293 130.58583287 -101.78996745 129.19984198 -95.375 127.8125 C-94.17560791 127.55009521 -92.97621582 127.28769043 -91.74047852 127.01733398 C-85.83376509 125.74332066 -80.01256945 124.6161028 -74 124 C-74.2165625 123.01 -74.433125 122.02 -74.65625 121 C-76.0844606 114.2934353 -77.42219171 107.89579796 -77 101 C-77.66 101 -78.32 101 -79 101 C-80.1448495 95.52561088 -81.28556513 90.05038712 -82.421875 84.57421875 C-83.40543886 79.83875272 -84.40000878 75.10584676 -85.40467834 70.37481689 C-86.05220578 67.31966342 -86.69386694 64.26329279 -87.33468628 61.20672607 C-87.65162639 59.70151866 -87.97103957 58.19682972 -88.29299927 56.69268799 C-88.75004976 54.55556005 -89.19816664 52.41672547 -89.64453125 50.27734375 C-89.90596924 49.04234131 -90.16740723 47.80733887 -90.43676758 46.53491211 C-91.00624126 42.96082911 -91.10050254 39.61258849 -91 36 C-91.66 36 -92.32 36 -93 36 C-93 34.02 -93 32.04 -93 30 C-92.27820557 29.85377197 -91.55641113 29.70754395 -90.81274414 29.55688477 C-87.56185121 28.89601056 -84.31217511 28.22933554 -81.0625 27.5625 C-79.92619141 27.33240234 -78.78988281 27.10230469 -77.61914062 26.86523438 C-76.53955078 26.64287109 -75.45996094 26.42050781 -74.34765625 26.19140625 C-73.34742432 25.98717041 -72.34719238 25.78293457 -71.31665039 25.57250977 C-69.05241475 25.22468578 -69.05241475 25.22468578 -68 24 C-65.69478584 23.48467896 -63.39944226 23.02080931 -61.078125 22.58984375 C-60.38112488 22.45808243 -59.68412476 22.32632111 -58.96600342 22.19056702 C-57.48681705 21.91211674 -56.00725028 21.63568103 -54.52734375 21.36108398 C-52.27221199 20.94163141 -50.01890432 20.51326272 -47.765625 20.08398438 C-46.32822691 19.81455991 -44.89072983 19.54566291 -43.453125 19.27734375 C-42.78210754 19.14923813 -42.11109009 19.02113251 -41.41973877 18.8891449 C-37.90053372 18.24338985 -34.57831806 17.85956433 -31 18 C-28.30766256 25.36271872 -26.82205771 32.67044409 -25.4375 40.375 C-22.55879159 56.01454649 -18.9524095 71.46628748 -15.25170898 86.92919922 C-15.03678299 87.83369308 -14.82185699 88.73818695 -14.60041809 89.67008972 C-14.19484008 91.37526327 -13.78537358 93.07951825 -13.37138367 94.78266907 C-12.53243109 98.31186991 -12 101.35175697 -12 105 C-11.34 105 -10.68 105 -10 105 C-9.98541748 104.36312256 -9.97083496 103.72624512 -9.95581055 103.07006836 C-9.64733883 90.88053051 -9.03972729 78.88214122 -7.29980469 66.81005859 C-5.61750529 54.8552938 -4.57118596 42.83371998 -3.44604492 30.81640625 C-2.47595698 20.51668439 -1.35568419 10.25678584 0 0 Z " fill="#FEFEFE" transform="translate(243,33)"/>
<path d="M0 0 C1.23556641 0.01740234 1.23556641 0.01740234 2.49609375 0.03515625 C3.32238281 0.04417969 4.14867187 0.05320312 5 0.0625 C5.63808594 0.07410156 6.27617188 0.08570313 6.93359375 0.09765625 C6.94390121 0.65618286 6.95420868 1.21470947 6.96482849 1.79016113 C7.07344712 7.63072109 7.18799601 13.47114387 7.3059082 19.31152344 C7.34908053 21.48792638 7.39076721 23.66435935 7.4309082 25.84082031 C7.48904195 28.97860744 7.55260978 32.11624592 7.6171875 35.25390625 C7.63389999 36.21880981 7.65061249 37.18371338 7.66783142 38.17785645 C7.78441524 43.55748873 8.16365902 48.77113273 8.93359375 54.09765625 C5.63359375 54.09765625 2.33359375 54.09765625 -1.06640625 54.09765625 C-1.39640625 53.10765625 -1.72640625 52.11765625 -2.06640625 51.09765625 C-2.55109375 51.38640625 -3.03578125 51.67515625 -3.53515625 51.97265625 C-8.39367768 54.66352965 -12.50348643 56.33745427 -18.06640625 55.09765625 C-23.61967289 52.71623716 -27.24762299 49.5097201 -30.06640625 44.09765625 C-30.81640625 41.78515625 -30.81640625 41.78515625 -31.06640625 39.09765625 C-31.12957031 38.42734375 -31.19273438 37.75703125 -31.2578125 37.06640625 C-31.56806821 31.221589 -30.48945751 26.88784079 -27.06640625 22.09765625 C-23.37560641 18.30328804 -20.15662298 15.95664026 -14.81640625 15.84765625 C-14.06875 15.821875 -13.32109375 15.79609375 -12.55078125 15.76953125 C-9.31159232 16.19734866 -6.91033433 17.53596164 -4.06640625 19.09765625 C-4.00582031 17.80988281 -3.94523437 16.52210938 -3.8828125 15.1953125 C-3.79842378 13.51691466 -3.71377495 11.83852989 -3.62890625 10.16015625 C-3.58958984 9.31001953 -3.55027344 8.45988281 -3.50976562 7.58398438 C-3.46787109 6.77509766 -3.42597656 5.96621094 -3.3828125 5.1328125 C-3.34615479 4.38394775 -3.30949707 3.63508301 -3.27172852 2.86352539 C-2.971069 0.27771057 -2.60538106 0.12312765 0 0 Z " fill="#F9FDFC" transform="translate(81.06640625,293.90234375)"/>
<path d="M0 0 C5.66687 2.61058056 9.25281774 6.49160416 11.6484375 12.2734375 C12.53790112 19.35169533 12.57623485 25.80923027 8.2109375 31.6875 C3.72986477 36.23578882 -1.42283419 38.0524014 -7.6640625 38.5234375 C-13.60981077 38.12033592 -17.66277063 36.35070431 -21.6640625 31.9609375 C-25.48736721 27.08749843 -26.7923102 22.53604966 -26.6015625 16.2890625 C-25.69870103 9.00974192 -21.52955165 4.9840753 -16.2265625 0.4609375 C-11.02644365 -1.68693768 -5.37111984 -1.65951543 0 0 Z " fill="#F9FDFC" transform="translate(303.3515625,310.7265625)"/>
<path d="M0 0 C4.44460371 2.70162186 7.8480979 6.2586958 10.1875 10.9375 C10.8146755 18.864587 11.3120748 25.56640701 6.1875 31.9375 C1.66657606 36.33945225 -2.96288782 37.97927723 -9.1875 38.375 C-15.55406844 38.22469316 -19.60302222 34.91440117 -24.1875 30.8125 C-27.24717852 25.39922261 -28.48419157 18.9175927 -27.375 12.75 C-25.68901347 7.40553291 -21.6088075 2.71906498 -16.91796875 -0.26953125 C-11.52786462 -2.29957047 -5.41999998 -1.5104918 0 0 Z " fill="#FAFDFC" transform="translate(346.8125,311.0625)"/>
<path d="M0 0 C4.91108779 3.11356546 7.93470933 6.15457461 10.015625 11.640625 C10.50528117 15.06821819 10.441652 18.36555146 10.328125 21.828125 C8.58305885 23.57319115 6.13773357 23.06095284 3.76171875 23.14453125 C2.63701172 23.18642578 1.51230469 23.22832031 0.35351562 23.27148438 C-0.83048828 23.31080078 -2.01449219 23.35011719 -3.234375 23.390625 C-4.42224609 23.43380859 -5.61011719 23.47699219 -6.83398438 23.52148438 C-9.77982284 23.62796046 -12.7257493 23.72997341 -15.671875 23.828125 C-12.3439206 26.61860004 -10.25818937 27.2240648 -5.84375 27.06640625 C-2.33217989 26.68114406 0.93342184 25.79804019 4.328125 24.828125 C7.36920985 30.18043434 7.36920985 30.18043434 7.1953125 32.921875 C6.328125 34.828125 6.328125 34.828125 4.39453125 35.875 C-3.61130214 38.12312794 -10.82762911 39.59366347 -18.546875 35.765625 C-23.77904274 32.52094147 -25.74044942 28.62240174 -27.671875 22.828125 C-28.40914659 15.51212227 -26.94190384 10.27230669 -22.859375 4.078125 C-16.85871688 -2.0939805 -7.90553976 -3.467342 0 0 Z " fill="#F8FCFC" transform="translate(121.671875,311.171875)"/>
<path d="M0 0 C5.36941848 3.11707814 8.6079351 7.15193031 10.5859375 13.0859375 C10.67776692 14.62543079 10.71596102 16.16871605 10.7109375 17.7109375 C10.71480469 18.90589844 10.71480469 18.90589844 10.71875 20.125 C10.5859375 22.0859375 10.5859375 22.0859375 9.5859375 23.0859375 C7.73419044 23.24380058 5.8768464 23.33701106 4.01953125 23.40234375 C2.89482422 23.44423828 1.77011719 23.48613281 0.61132812 23.52929688 C-0.57267578 23.56861328 -1.75667969 23.60792969 -2.9765625 23.6484375 C-4.16443359 23.69162109 -5.35230469 23.73480469 -6.57617188 23.77929688 C-9.52201034 23.88577296 -12.4679368 23.98778591 -15.4140625 24.0859375 C-10.95537592 27.61221021 -7.97767462 27.6553676 -2.4140625 27.0859375 C0.01058206 26.56826704 2.23237803 25.88714923 4.5859375 25.0859375 C7.62373214 30.43245606 7.62373214 30.43245606 7.46484375 33.1796875 C6.5859375 35.0859375 6.5859375 35.0859375 4.546875 36.1328125 C-3.94459121 38.44167038 -11.35589772 39.26153197 -19.4140625 35.0859375 C-23.16703478 31.8519933 -26.22835169 27.94735182 -27.4140625 23.0859375 C-27.8607185 16.16276947 -27.22142906 10.69657808 -23.1640625 4.8359375 C-16.87362794 -1.45449706 -8.47445699 -3.20877498 0 0 Z " fill="#F9FCFC" transform="translate(235.4140625,310.9140625)"/>
<path d="M0 0 C3.3 0 6.6 0 10 0 C16.35559265 17.85618889 16.35559265 17.85618889 16 27 C16.66 27 17.32 27 18 27 C18.11214844 25.71222656 18.22429687 24.42445313 18.33984375 23.09765625 C18.90211704 18.03719667 20.13005557 13.31262601 21.5625 8.4375 C21.79646484 7.61958984 22.03042969 6.80167969 22.27148438 5.95898438 C22.84119954 3.97079473 23.41966914 1.98511701 24 0 C27.63 0 31.26 0 35 0 C34.06468025 3.93802911 33.12680316 7.87542081 32.1875 11.8125 C31.92646484 12.91271484 31.66542969 14.01292969 31.39648438 15.14648438 C26.54369549 35.45630451 26.54369549 35.45630451 25 37 C22.30345146 37.07319621 19.63308542 37.09242537 16.9375 37.0625 C15.79958008 37.05573242 15.79958008 37.05573242 14.63867188 37.04882812 C12.75908129 37.0370068 10.87953101 37.01907078 9 37 C0.98757833 10.27081468 0.98757833 10.27081468 0 0 Z " fill="#FAFDFD" transform="translate(171,311)"/>
<path d="M0 0 C2.97 0 5.94 0 9 0 C10 1 10 1 10.12025452 3.13233948 C10.1169236 4.54131752 10.1169236 4.54131752 10.11352539 5.97875977 C10.11344986 7.03978409 10.11337433 8.10080841 10.11329651 9.19398499 C10.10813522 10.348134 10.10297394 11.50228302 10.09765625 12.69140625 C10.0962413 13.86638168 10.09482635 15.04135712 10.09336853 16.25193787 C10.08774992 20.02215064 10.07519426 23.79230504 10.0625 27.5625 C10.0574874 30.11132727 10.05292408 32.66015547 10.04882812 35.20898438 C10.03777444 41.4726789 10.02049734 47.73632954 10 54 C6.7 54 3.4 54 0 54 C0 36.18 0 18.36 0 0 Z " fill="#F7FCFB" transform="translate(138,294)"/>
<path d="M0 0 C-0.60698743 4.12751449 -2.03810791 7.3321148 -4 11 C-4.71027344 10.98839844 -5.42054688 10.97679687 -6.15234375 10.96484375 C-7.07144531 10.95582031 -7.99054688 10.94679688 -8.9375 10.9375 C-10.31228516 10.92009766 -10.31228516 10.92009766 -11.71484375 10.90234375 C-13.96593327 10.74050951 -13.96593327 10.74050951 -15 12 C-15.15786308 13.85174706 -15.25107356 15.7090911 -15.31640625 17.56640625 C-15.35830078 18.69111328 -15.40019531 19.81582031 -15.44335938 20.97460938 C-15.48267578 22.15861328 -15.52199219 23.34261719 -15.5625 24.5625 C-15.60568359 25.75037109 -15.64886719 26.93824219 -15.69335938 28.16210938 C-15.79983546 31.10794784 -15.90184841 34.0538743 -16 37 C-19.3 37 -22.6 37 -26 37 C-26.02505615 36.09233887 -26.0501123 35.18467773 -26.07592773 34.24951172 C-26.17143059 30.86121766 -26.27064084 27.47307331 -26.37231445 24.08496094 C-26.41545337 22.62243852 -26.45714195 21.15987253 -26.49731445 19.69726562 C-26.5555307 17.5871064 -26.61907288 15.47716225 -26.68359375 13.3671875 C-26.72025146 12.09987793 -26.75690918 10.83256836 -26.79467773 9.52685547 C-26.98371036 6.27980984 -27.3962073 3.19301052 -28 0 C-26.37536158 -0.05395478 -24.75021459 -0.09277195 -23.125 -0.125 C-22.22007812 -0.14820313 -21.31515625 -0.17140625 -20.3828125 -0.1953125 C-18 0 -18 0 -16 2 C-14.7315625 1.2575 -14.7315625 1.2575 -13.4375 0.5 C-8.68177024 -1.57522753 -4.90642484 -1.63547495 0 0 Z " fill="#F9FCFC" transform="translate(278,311)"/>
<path d="M0 0 C3.3 0 6.6 0 10 0 C10 12.21 10 24.42 10 37 C6.7 37 3.4 37 0 37 C0 24.79 0 12.58 0 0 Z " fill="#FAFDFD" transform="translate(156,311)"/>
<path d="M0 0 C2.86930475 0.53946057 4.15272726 0.92669876 6.1796875 2.9765625 C8.05563405 6.93689411 8.41312487 9.15810851 7.62890625 13.41015625 C6.20341034 17.39423457 4.63801601 18.5189758 0.8671875 20.5390625 C-3.66711407 20.97052718 -7.01471403 20.40558881 -10.6328125 17.6015625 C-13.46019014 13.71391825 -13.71772238 10.24533735 -13.1328125 5.5390625 C-10.59531701 -0.55092667 -5.92524588 -0.27525592 0 0 Z " fill="#34B7B1" transform="translate(189.1328125,175.4609375)"/>
<path d="M0 0 C3.62026759 0.95694971 5.37364684 2.63846803 7.5234375 5.64453125 C9.06958302 8.97718944 8.5316418 11.22256061 7.453125 14.6484375 C5.11979167 19.31510417 5.11979167 19.31510417 2.453125 20.6484375 C-3.13338817 21.02087171 -6.71883874 20.82787601 -11.546875 17.6484375 C-12.79670844 13.89893717 -13.16175611 10.53536453 -12.546875 6.6484375 C-9.45747643 0.88156016 -6.52216067 -0.41007597 0 0 Z " fill="#34B7B1" transform="translate(233.546875,181.3515625)"/>
<path d="M0 0 C3.03798467 2.59340154 3.86323667 4.06219433 4.4375 8 C3.94367823 11.3862064 3.08413626 13.29834188 1 16 C-2.72813615 17.24271205 -6.13311527 17.65451162 -10 17 C-13 14.9375 -13 14.9375 -15 12 C-15.69151325 7.69725091 -15.51557405 5.79054688 -13.125 2.125 C-9.09689299 -1.90310701 -5.29670138 -1.36415933 0 0 Z " fill="#32B7B0" transform="translate(344,321)"/>
<path d="M0 0 C2.4375 1.5 2.4375 1.5 4 4 C4.67831686 7.15564802 4.7394557 9.85171135 4 13 C2.23092649 15.62937639 0.87588457 16.34902923 -2 18 C-6.00116517 18.73490789 -7.41778974 18.38814018 -10.8125 16.125 C-13.83584667 13.18803467 -13.96391701 12.44742902 -14.3125 8.125 C-14.27809912 4.96585234 -14.14957689 4.20115512 -12.1875 1.5625 C-7.9655048 -1.45321085 -4.92775201 -1.12387327 0 0 Z " fill="#32B7B0" transform="translate(74,321)"/>
<path d="M0 0 C3.30583039 2.20388692 3.88814046 3.58984836 4.9375 7.4375 C5.00698608 11.39820668 4.43366566 12.93538398 2 16 C-1.48660044 17.74330022 -5.19592935 17.5706106 -9 17 C-12.0625 14.9375 -12.0625 14.9375 -14 12 C-14.69151325 7.69725091 -14.51557405 5.79054688 -12.125 2.125 C-8.31880421 -1.68119579 -5.01398505 -1.26094277 0 0 Z " fill="#31B6B0" transform="translate(301,321)"/>
<path d="M0 0 C3.5625 0.3125 3.5625 0.3125 5.5625 1.375 C7.17897822 4.50692656 6.34915296 6.98435286 5.5625 10.3125 C3.5625 12.3125 3.5625 12.3125 0.625 12.625 C-2.4375 12.3125 -2.4375 12.3125 -4.3125 11.25 C-6.05723477 8.24517901 -5.74585443 5.70439869 -5.4375 2.3125 C-3.4375 0.3125 -3.4375 0.3125 0 0 Z " fill="#F6FBFB" transform="translate(160.4375,293.6875)"/>
<path d="M0 0 C8.58 0 17.16 0 26 0 C24.68 0.33 23.36 0.66 22 1 C21.67 1.66 21.34 2.32 21 3 C15.54141566 4.72376348 10.70905555 5.65513752 5 5 C3.35 3.35 1.7 1.7 0 0 Z " fill="#25B2AB" transform="translate(105,334)"/>
<path d="M0 0 C3 1.875 3 1.875 5 4 C5 4.66 5 5.32 5 6 C-0.61 6 -6.22 6 -12 6 C-10.36055368 -0.55778528 -6.11859266 -0.99992565 0 0 Z " fill="#2DB5AF" transform="translate(231,320)"/>
<path d="M0 0 C2.5 1.3125 2.5 1.3125 4 3 C4 3.99 4 4.98 4 6 C-1.28 6 -6.56 6 -12 6 C-10.33512387 -0.65950453 -6.15536378 -0.81741249 0 0 Z " fill="#2CB5AE" transform="translate(117,320)"/>
<path d="M0 0 C5.28 0 10.56 0 16 0 C15.67 0.99 15.34 1.98 15 3 C9.47322267 3.19392201 5.24385089 2.7479503 0 1 C0 0.67 0 0.34 0 0 Z " fill="#3EBBB6" transform="translate(240,282)"/>
<path d="M0 0 C0.66 0.33 1.32 0.66 2 1 C1.67 2.32 1.34 3.64 1 5 C0.34 5 -0.32 5 -1 5 C-1.66 6.32 -2.32 7.64 -3 9 C-3.33 8.01 -3.66 7.02 -4 6 C-3.34 6 -2.68 6 -2 6 C-2 4.68 -2 3.36 -2 2 C-1.34 2 -0.68 2 0 2 C0 1.34 0 0.68 0 0 Z " fill="#67BDAA" transform="translate(368,352)"/>
<path d="M0 0 C0.33 0 0.66 0 1 0 C1.3636198 4.24223102 0.5393228 6.58168085 -2 10 C-2.66 10 -3.32 10 -4 10 C-2.8905928 6.51329166 -1.73662334 3.22515763 0 0 Z " fill="#47BEB9" transform="translate(262,264)"/>
<path d="M0 0 C1.25541557 3.76624671 0.37061958 5.37188934 -1 9 C-1.99 9 -2.98 9 -4 9 C-2.80100302 5.9168649 -1.52299523 2.93720508 0 0 Z " fill="#77AEA5" transform="translate(24,56)"/>
<path d="M0 0 C1.32 0.66 2.64 1.32 4 2 C2.35 2 0.7 2 -1 2 C-0.67 1.34 -0.34 0.68 0 0 Z " fill="#B5D4C4" transform="translate(375,351)"/>
<path d="M0 0 C2 1 2 1 2 1 Z " fill="#CDE7DC" transform="translate(6,266)"/>
</svg>
