<?xml version="1.0" encoding="utf-8"?>
<svg xmlns="http://www.w3.org/2000/svg" viewBox="0 0 95 32" class="glovo-logo header-logo__brand" data-v-13ec0cb2="" data-v-94e22206="">
<path fill="#00A082" d="M0 20.944v-.062C0 14.947 4.527 9.917 10.894 9.917c3.169 0 5.28.758 7.211 2.152.363.273.755.787.755 1.514 0 1-.814 1.848-1.84 1.848-.483 0-.845-.211-1.147-.425-1.358-.998-2.836-1.666-5.13-1.666-3.892 0-6.85 3.424-6.85 7.482v.06c0 4.363 2.867 7.573 7.182 7.573 1.992 0 3.802-.636 5.1-1.605v-3.967H12.01c-.905 0-1.659-.698-1.659-1.606 0-.909.754-1.636 1.66-1.636h5.885c1.055 0 1.87.817 1.87 1.879v5.663c0 1.06-.422 1.818-1.298 2.363-1.811 1.212-4.346 2.302-7.513 2.302C4.345 31.848 0 27.123 0 20.944m23.093-9.905a1.8 1.8 0 0 1 1.81-1.818c1.026 0 1.842.818 1.842 1.818v18.78c0 1.03-.816 1.817-1.841 1.817a1.8 1.8 0 0 1-1.811-1.817v-18.78zm19.817 12.54v-.06c0-2.818-2.021-5.15-4.888-5.15-2.927 0-4.798 2.302-4.798 5.089v.06c0 2.787 2.022 5.119 4.858 5.119 2.957 0 4.828-2.302 4.828-5.058m-13.337 0v-.06c0-4.575 3.62-8.361 8.51-8.361 4.888 0 8.479 3.725 8.479 8.3v.06c0 4.544-3.621 8.33-8.54 8.33-4.86 0-8.449-3.725-8.449-8.269m26.105 8.209h-.18c-.997 0-1.661-.637-2.083-1.607l-5.31-12.206c-.092-.273-.212-.575-.212-.908 0-.91.815-1.757 1.81-1.757.996 0 1.51.574 1.811 1.333l4.104 10.6 4.164-10.66c.271-.636.755-1.273 1.72-1.273.996 0 1.78.757 1.78 1.757 0 .333-.12.697-.21.878L57.76 30.18c-.423.94-1.087 1.607-2.083 1.607m22.274-8.208v-.06c0-2.818-2.02-5.15-4.888-5.15-2.927 0-4.798 2.302-4.798 5.089v.06c0 2.787 2.022 5.119 4.86 5.119 2.955 0 4.826-2.302 4.826-5.058m-13.337 0v-.06c0-4.575 3.621-8.361 8.51-8.361 4.888 0 8.479 3.725 8.479 8.3v.06c0 4.544-3.62 8.33-8.54 8.33-4.858 0-8.449-3.725-8.449-8.269" class="glovo-logo__text--green" data-v-13ec0cb2=""></path>
</svg>
