<?xml version="1.0" encoding="UTF-8"?>
<svg id="_图层_2" data-name="图层 2" xmlns="http://www.w3.org/2000/svg" viewBox="0 0 18.41 18.41">
  <defs>
    <style>
      .cls-1 {
        fill: #fff;
        stroke: #000;
        stroke-miterlimit: 10;
        stroke-width: .75px;
      }
      .cls-2 {
        fill: #040000;
      }
      .cls-3 {
        fill: #ffdb00;
      }
    </style>
  </defs>
  <g id="_图层_2-2" data-name=" 图层 2">
    <circle class="cls-1" cx="9.2" cy="9.21" r="8.83" transform="translate(-1.36 16.82) rotate(-80.78)"/>
    <circle class="cls-3" cx="9.2" cy="9.21" r="6.71" transform="translate(-1.36 16.82) rotate(-80.78)"/>
    <g>
      <path class="cls-2" d="M8.54,10.9c0,.3,.66,.62,.66,.62,0,0,.66-.31,.66-.62s-.29-.43-.66-.43-.66,.13-.66,.43Z"/>
      <path class="cls-2" d="M8.73,9.53h0l-.29-.52c-.2-.34-.57-.55-.97-.55h0c-.4,0-.77,.21-.97,.55l-.34,.59c-.24,.42-.19,.96,.16,1.33,.21,.22,.52,.34,.83,.34h.53c-.02-.09-.02-.18-.02-.27,0-.69,.45-1.27,1.08-1.46h-.01Zm-1.04-.2c0-.18,.14-.32,.32-.32s.32,.14,.32,.32-.14,.32-.32,.32-.32-.14-.32-.32Z"/>
      <path class="cls-2" d="M13.4,8.64c-.14-.24-.14-.54,0-.78l.19-.32c.38-.66-.1-1.48-.86-1.48H5.68c-.19,0-.36,.05-.51,.14h0c-.44,.27-.63,.85-.34,1.34l.19,.33c.14,.24,.14,.54,0,.78l-.33,.56c-.37,.63-.37,1.4,0,2.03,.93,1.6,2.66,2.59,4.52,2.59s3.59-.99,4.52-2.59c.37-.63,.37-1.4,0-2.03l-.33-.57h0Zm-.1,2.31c-.7,1.22-1.91,2.05-3.28,2.29-.38,.07-1.31,.06-1.7-.02-1.32-.25-2.49-1.06-3.17-2.24-.29-.43-.31-.98-.05-1.43l1.22-2.09c.37-.54,.98-.87,1.65-.87h2.49c.69,0,1.32,.35,1.68,.93l1.14,1.96c.27,.46,.28,1.02,.02,1.48h0Z"/>
      <path class="cls-2" d="M11.9,9c-.2-.34-.57-.55-.97-.55h0c-.4,0-.77,.21-.97,.55l-.29,.52h0c.62,.2,1.08,.78,1.08,1.46,0,.09,0,.18-.02,.27h.53c.31,0,.62-.12,.83-.34,.35-.37,.41-.91,.16-1.33l-.34-.59h-.01Zm-1.51,.67c-.18,0-.32-.14-.32-.32s.14-.32,.32-.32,.32,.14,.32,.32-.14,.32-.32,.32Z"/>
      <path class="cls-2" d="M9.19,12.01c-.17,.15-.39,.25-.64,.25-.13,0-.25-.03-.36-.07,.27,.23,.62,.37,1,.37s.74-.14,1.01-.38c-.12,.05-.25,.08-.38,.08-.25,0-.47-.09-.64-.25h.01Z"/>
    </g>
  </g>
</svg>
