<?xml version="1.0" encoding="UTF-8"?>
<svg version="1.1" xmlns="http://www.w3.org/2000/svg" width="600" height="600">
<path d="M0 0 C3.59380875 2.7306049 7.1076158 5.55811715 10.61572266 8.39746094 C14.79751713 11.75967162 19.08253977 14.99100178 23.34521484 18.24951172 C25.6518981 20.02287429 27.94631885 21.81164268 30.24169922 23.59960938 C38.3142138 29.86013829 46.38937859 36.08171759 55.00732422 41.58007812 C55.60520752 41.97001953 56.20309082 42.35996094 56.8190918 42.76171875 C61.69531194 45.77161444 66.80042117 47.31216452 72.31982422 48.76757812 C72.39499268 48.00203613 72.47016113 47.23649414 72.54760742 46.44775391 C72.89902517 42.92826401 73.26556975 39.41050158 73.63232422 35.89257812 C73.75027344 34.68859375 73.86822266 33.48460937 73.98974609 32.24414062 C76.08565138 12.46739329 76.08565138 12.46739329 82.31982422 6.76757812 C87.01826392 4.78782015 91.35136608 4.45488196 96.38232422 4.51757812 C97.18379883 4.52362061 97.98527344 4.52966309 98.81103516 4.53588867 C147.47916428 5.28358339 147.47916428 5.28358339 158.31982422 13.76757812 C167.12444823 22.98171953 168.09102379 38.98126967 169.69482422 51.08007812 C169.79487762 51.80749207 169.89493103 52.53490601 169.99801636 53.28436279 C171.50835415 64.29282007 172.71625867 75.32591862 173.83154297 86.38085938 C173.96050964 87.65582779 174.08947632 88.9307962 174.22235107 90.24440002 C174.86386222 96.62322928 175.48840621 103.00316272 176.08886719 109.38598633 C178.7641551 137.15606617 183.73621599 158.75462118 202.546875 180.21118164 C208.26380592 186.76120187 213.46415574 193.67872681 218.69189453 200.62060547 C220.26812918 202.69940083 221.86367893 204.76139421 223.46826172 206.81835938 C235.35225253 222.08515568 246.44590875 237.9190602 256.69482422 254.33007812 C257.23623047 255.19213867 257.77763672 256.05419922 258.33544922 256.94238281 C263.22652366 264.90304996 265.18304624 271.37284517 264.31982422 280.76757812 C263.05064882 284.65971603 260.91792738 286.24878326 257.56982422 288.39257812 C245.72886107 294.35149634 231.20047702 294.49113832 218.19848633 295.42431641 C206.90998219 296.12409833 206.90998219 296.12409833 196.31982422 299.76757812 C191.66848723 305.37303552 191.17693486 310.03975381 191.0703125 317.09155273 C191.05540174 317.82741922 191.04049097 318.56328571 191.02512836 319.32145119 C190.99309195 320.92551611 190.96311247 322.52962311 190.93493462 324.13376045 C190.88939643 326.71183191 190.83811433 329.28973105 190.78517151 331.86766052 C190.70944052 335.55788627 190.63526772 339.24813804 190.56210327 342.93841553 C189.35558819 402.99093624 186.30758335 462.75963797 178.75732422 522.39257812 C178.66340393 523.15931854 178.56948364 523.92605896 178.47271729 524.71603394 C175.57738785 548.0420692 175.57738785 548.0420692 169.38232422 554.39257812 C159.56475801 561.38001562 143.85621956 558.7588032 132.55249023 558.17382812 C129.49695199 558.01704592 126.44101426 557.88305747 123.38427734 557.75195312 C121.41871924 557.65954009 119.45322134 557.56583537 117.48779297 557.47070312 C116.58554489 557.43100403 115.68329681 557.39130493 114.75370789 557.35040283 C101.78539566 556.65020663 101.78539566 556.65020663 97.11425781 553.08348083 C94.75491286 550.03850141 94.87215056 548.32784788 94.99438477 544.50708008 C95.03099213 543.25778717 95.06759949 542.00849426 95.10531616 540.72134399 C95.46380098 534.11382982 95.94987555 527.52662433 96.52685547 520.93554688 C96.65390205 519.43110856 96.78030435 517.92661573 96.90611267 516.42207336 C97.17244148 513.24453129 97.44161344 510.06724966 97.7130127 506.89013672 C98.42630253 498.5215281 99.10988795 490.15045647 99.79248047 481.77929688 C99.86027081 480.94874157 99.92806114 480.11818626 99.99790573 479.26246262 C104.29879024 426.46963513 106.49838839 373.60949614 106.50732422 320.64257812 C106.50810785 319.60803371 106.50810785 319.60803371 106.50890732 318.55258942 C106.52822735 290.9591762 105.9589353 263.39157861 104.12744141 235.85375977 C103.94199869 233.03716257 103.77129287 230.21989769 103.60107422 227.40234375 C103.00389715 217.95558003 102.16750942 208.56833089 100.90576172 199.18554688 C100.7942276 198.31190994 100.68269348 197.43827301 100.56777954 196.53816223 C99.91412815 191.99581475 99.19400265 188.49537946 96.31982422 184.76757812 C91.30372837 181.21960789 86.24318483 180.78941827 80.31982422 181.76757812 C73.32992829 185.08774053 68.8526733 190.22178516 64.50732422 196.45507812 C63.91113281 197.29103516 63.31494141 198.12699219 62.70068359 198.98828125 C60.88177512 201.56490718 59.09491849 204.16061126 57.31982422 206.76757812 C56.79984863 207.5276416 56.27987305 208.28770508 55.74414062 209.07080078 C42.57147881 228.5529487 31.7763265 249.83854941 23.31982422 271.76757812 C23.00384277 272.56776367 22.68786133 273.36794922 22.36230469 274.19238281 C9.15161406 307.82555548 1.51571987 342.81823227 -1.68017578 378.76757812 C-1.78821533 379.95528809 -1.78821533 379.95528809 -1.8984375 381.16699219 C-2.76391093 391.22668601 -2.82378403 401.33506602 -2.90933228 411.42645264 C-2.92301259 412.8809721 -2.94123436 414.33545739 -2.96444702 415.78985596 C-3.12686728 426.85014632 -3.25851994 438.5661349 4.33154297 447.36523438 C12.26494047 452.96069548 22.18054296 452.76855675 31.49755859 453.58398438 C43.27581315 454.72318187 43.27581315 454.72318187 48.31982422 457.76757812 C55.37899408 467.54341159 50.52062287 484.98793986 49.44482422 496.39257812 C49.0709824 500.41706689 48.70053519 504.44186077 48.33154297 508.46679688 C48.24121292 509.44804031 48.15088287 510.42928375 48.05781555 511.44026184 C47.54695143 517.05303171 47.09254751 522.66382765 46.71435547 528.28710938 C46.63362793 529.48319824 46.55290039 530.67928711 46.46972656 531.91162109 C46.332871 534.03366883 46.20610945 536.15640373 46.09179688 538.27978516 C45.70068315 544.2849013 44.77371788 548.80245662 40.81982422 553.58007812 C37.81131663 555.9618133 34.84492629 555.89591351 31.17529297 555.90039062 C29.59615112 555.90329102 29.59615112 555.90329102 27.98510742 555.90625 C26.83743896 555.90173828 25.68977051 555.89722656 24.50732422 555.89257812 C23.30100342 555.89064453 22.09468262 555.88871094 20.85180664 555.88671875 C12.26973831 555.84691273 3.70735223 555.60061153 -4.86767578 555.26757812 C-16.91237939 554.81167749 -28.94028296 554.64864552 -40.99267578 554.64257812 C-41.84676025 554.64174225 -42.70084473 554.64090637 -43.58081055 554.64004517 C-55.20388727 554.63935404 -66.78841996 554.82923997 -78.38647461 555.67529297 C-86.71980467 556.18115243 -86.71980467 556.18115243 -90.68017578 552.76757812 C-92.7455719 549.66948394 -92.98352329 548.64771497 -93.23828125 545.08251953 C-93.31112335 544.12252045 -93.38396545 543.16252136 -93.45901489 542.1734314 C-93.52941986 541.12426544 -93.59982483 540.07509949 -93.67236328 538.99414062 C-93.79356033 537.3395433 -93.79356033 537.3395433 -93.91720581 535.65151978 C-94.18033444 532.02411046 -94.43047299 528.39593434 -94.68017578 524.76757812 C-94.85703462 522.28934871 -95.03444764 519.81115878 -95.21240234 517.33300781 C-95.66957428 510.91322813 -96.10872195 504.49236565 -96.54003906 498.07080078 C-96.80728582 494.11131612 -97.08162882 490.15235893 -97.35595703 486.19335938 C-97.84350058 479.05385794 -98.29109897 471.91313975 -98.68017578 464.76757812 C-98.72766968 463.89895142 -98.77516357 463.03032471 -98.82409668 462.13537598 C-98.92644776 460.02539459 -98.99742937 457.918419 -99.04736328 455.80664062 C-99.09159424 454.22036865 -99.09159424 454.22036865 -99.13671875 452.60205078 C-98.29427232 447.3716748 -95.01184659 443.73726752 -91.07080078 440.39257812 C-90.40201904 439.80694092 -89.7332373 439.22130371 -89.04418945 438.61791992 C-88.34656494 438.00730713 -87.64894043 437.39669434 -86.93017578 436.76757812 C-73.81720625 424.87208318 -67.67499185 411.42779231 -66.68017578 393.76757812 C-66.50162646 387.79811312 -66.48171987 381.82552546 -66.45010567 375.85382843 C-66.43369751 372.79351763 -66.41145393 369.73329667 -66.38768005 366.67303467 C-66.35403344 362.3114624 -66.32217252 357.94988327 -66.29174805 353.58828735 C-65.84875831 291.34491849 -65.84875831 291.34491849 -64.68017578 263.58007812 C-64.63829132 262.57913116 -64.59640686 261.5781842 -64.55325317 260.54690552 C-64.17452069 251.72694941 -63.70230759 242.91653391 -63.12548828 234.10742188 C-62.74691643 228.2354755 -62.5250045 222.40097866 -62.55517578 216.51757812 C-62.55130859 215.71707031 -62.54744141 214.9165625 -62.54345703 214.09179688 C-62.54948424 210.48149878 -62.70484022 207.24081877 -63.68017578 203.76757812 C-70.17958552 202.42635114 -70.17958552 202.42635114 -76.24267578 204.26757812 C-79.56976887 210.05382697 -78.95956177 217.88402608 -79.23681641 224.40600586 C-79.28412399 225.45422012 -79.33143158 226.50243439 -79.38017273 227.58241272 C-79.53540833 231.03853312 -79.68587837 234.49484436 -79.83642578 237.95117188 C-79.94436391 240.36907945 -80.0526457 242.78697171 -80.16125488 245.20484924 C-80.44653655 251.57225058 -80.72797618 257.93981549 -81.00836182 264.30743408 C-81.45615884 274.46582486 -81.90915235 284.62398379 -82.36332703 294.78209114 C-82.52038015 298.30904724 -82.67542355 301.83608729 -82.8302002 305.36314392 C-83.10096606 311.49857746 -83.3856548 317.63324228 -83.68017578 323.76757812 C-83.71938141 324.61042988 -83.75858704 325.45328163 -83.79898071 326.32167435 C-83.90544622 328.55554881 -84.02204822 330.78860164 -84.14306641 333.02172852 C-84.23618103 334.8132711 -84.23618103 334.8132711 -84.33117676 336.64100647 C-84.82454519 341.06093792 -85.9111599 345.22486663 -88.68017578 348.76757812 C-94.3703703 353.15859549 -100.82240064 352.48394196 -107.68017578 351.76757812 C-111.57454734 350.50972454 -113.3108405 348.35342029 -115.49267578 344.89257812 C-117.42939048 339.7959605 -117.8078183 335.03778172 -117.66455078 329.61914062 C-117.63159912 328.33885986 -117.59864746 327.0585791 -117.56469727 325.73950195 C-117.52021971 324.29051616 -117.47536325 322.84154196 -117.43017578 321.39257812 C-117.40883575 320.6415683 -117.38749573 319.89055847 -117.36550903 319.11679077 C-117.00313013 306.38532048 -116.47950419 293.66055968 -115.94189453 280.93554688 C-115.90866467 280.14736069 -115.8754348 279.3591745 -115.84119797 278.54710388 C-115.50180434 270.50603849 -115.15791701 262.46520457 -114.80075264 254.42490768 C-113.90983059 235.17064112 -113.90983059 235.17064112 -113.40283203 215.90429688 C-113.38099854 214.60580811 -113.35916504 213.30731934 -113.33666992 211.96948242 C-113.71765993 208.418179 -114.46152692 206.55040409 -116.68017578 203.76757812 C-120.03610441 202.43097668 -120.03610441 202.43097668 -123.68017578 202.76757812 C-126.8598113 205.048621 -128.409505 206.56651454 -129.27819824 210.42121887 C-129.75111791 214.35815302 -130.02427355 218.28926742 -130.23681641 222.24682617 C-130.28412399 223.07905701 -130.33143158 223.91128784 -130.38017273 224.76873779 C-130.53569136 227.52207736 -130.68626392 230.27566032 -130.83642578 233.02929688 C-130.94454568 234.97712559 -131.05282507 236.92494547 -131.16125488 238.87275696 C-131.38873171 242.97405118 -131.61365682 247.07547595 -131.83691406 251.17700195 C-132.11727758 256.32255573 -132.4047289 261.46768335 -132.69422913 266.61273003 C-132.97531794 271.62633965 -133.25053133 276.64026242 -133.52392578 281.65429688 C-133.60494034 283.13171167 -133.60494034 283.13171167 -133.68759155 284.63897324 C-134.24235576 294.85263109 -134.73233127 305.05877939 -134.95361328 315.28564453 C-134.9812463 316.51223833 -134.9812463 316.51223833 -135.00943756 317.76361179 C-135.09137412 321.54773114 -135.15537969 325.33078514 -135.18835449 329.11564636 C-135.33143928 337.4815145 -135.57318017 343.10291663 -141.11767578 349.64257812 C-145.22730631 353.05056442 -149.24729092 353.06360902 -154.43798828 352.97851562 C-159.2587312 352.52499626 -162.36627475 350.34839268 -165.49267578 346.83007812 C-169.20020966 341.6395307 -168.85274684 336.79944079 -168.83251953 330.57226562 C-168.8305809 329.58555878 -168.82864227 328.59885193 -168.8266449 327.58224487 C-168.71738777 311.25897143 -167.97672047 294.94301967 -167.34777832 278.63342285 C-167.20804193 274.98940296 -167.071733 271.34525892 -166.93569374 267.7010994 C-166.80210312 264.12332561 -166.66746452 260.54559154 -166.53281784 256.96785736 C-166.46725637 255.22153568 -166.4019896 253.47520292 -166.33702469 251.72885895 C-166.02772338 243.41882676 -165.708718 235.11094221 -165.2890625 226.80566406 C-165.20446022 225.05465897 -165.20446022 225.05465897 -165.1181488 223.26828003 C-165.0151502 221.1788575 -164.90335981 219.08983891 -164.78041077 217.00149536 C-164.44823983 210.65082925 -164.44823983 210.65082925 -166.68017578 204.76757812 C-169.28434989 202.64565848 -170.84006071 202.76757812 -174.24267578 202.76757812 C-177.84961476 203.43223059 -177.84961476 203.43223059 -179.55517578 206.39257812 C-193.76524231 249.02277772 -184.90535233 311.59446545 -185.04307175 356.11585236 C-185.05511935 359.12846682 -185.07471037 362.14094464 -185.09646606 365.15350342 C-185.12984835 369.93031652 -185.14216229 374.70674876 -185.13863182 379.4836731 C-185.1402553 381.23857543 -185.14842615 382.99348698 -185.16393471 384.74832153 C-185.3173891 403.4915226 -181.38174057 419.2837277 -168.18798828 433.34960938 C-164.7047207 436.70808699 -160.99418455 439.71365796 -157.16064453 442.66210938 C-150.90116499 447.9752739 -148.3329192 453.78093323 -147.27775574 461.84187317 C-146.98539235 465.42130691 -146.77018295 468.99753589 -146.58251953 472.58398438 C-146.50306688 473.92617022 -146.42243902 475.26828694 -146.3407135 476.6103363 C-146.12872062 480.13668573 -145.9308041 483.66367648 -145.73651123 487.19104004 C-145.42690254 492.76399653 -145.09448844 498.33566334 -144.76515579 503.90748215 C-144.64541458 505.95223829 -144.52910768 507.99716942 -144.41317749 510.04214478 C-144.05100219 516.32633858 -143.6312443 522.59702514 -143.04394531 528.86474609 C-142.94215469 529.95697983 -142.84036407 531.04921356 -142.73548889 532.17454529 C-142.54194014 534.17829857 -142.33674668 536.18098033 -142.1169281 538.18202209 C-141.56016785 543.89351226 -141.68736378 548.33976285 -143.68017578 553.76757812 C-146.61984827 556.58720488 -148.70237861 557.14926508 -152.72290039 557.19995117 C-154.23515198 557.22960464 -154.23515198 557.22960464 -155.7779541 557.25985718 C-156.86846069 557.26627228 -157.95896729 557.27268738 -159.08251953 557.27929688 C-160.22047974 557.29747467 -161.35843994 557.31565247 -162.53088379 557.3343811 C-166.22645475 557.38950747 -169.92183634 557.42324958 -173.61767578 557.45507812 C-176.13925159 557.48508792 -178.66081762 557.51593107 -181.18237305 557.54760742 C-186.12430336 557.60705316 -191.06620197 557.65712978 -196.00830078 557.70019531 C-200.77930675 557.74376077 -205.54852748 557.81346771 -210.31858826 557.91673279 C-213.58475457 557.98607644 -216.85113675 558.03152895 -220.11767578 558.08007812 C-221.21909912 558.10996826 -222.32052246 558.1398584 -223.45532227 558.1706543 C-231.373245 558.22991923 -236.61157085 556.56341817 -242.49267578 551.20507812 C-248.96743931 542.4345945 -248.90158535 528.75075298 -250.11767578 518.26757812 C-250.22311707 517.37798401 -250.32855835 516.48838989 -250.43719482 515.57183838 C-253.8807962 486.49275246 -256.4949158 457.36414265 -258.36767578 428.14257812 C-258.42852356 427.19767517 -258.48937134 426.25277222 -258.55206299 425.27923584 C-259.85170125 404.84670488 -260.69128745 384.42393439 -260.92626953 363.95117188 C-260.93469313 363.22787941 -260.94311672 362.50458694 -260.95179558 361.75937653 C-261.02894566 355.04742988 -261.10021778 348.33544269 -261.15698242 341.62329102 C-261.18889279 337.89851649 -261.23012234 334.17394004 -261.27717781 330.44932747 C-261.2930328 329.05205873 -261.30542886 327.65474574 -261.31408501 326.25741386 C-261.19993632 312.02091264 -261.19993632 312.02091264 -267.68017578 299.76757812 C-274.42681408 296.45991969 -281.19589935 296.01391632 -288.62057495 295.43118286 C-292.09238268 295.15539923 -295.56001951 294.83536216 -299.02783203 294.51367188 C-299.70113052 294.45146957 -300.37442902 294.38926727 -301.06813049 294.32518005 C-324.41962563 292.11513138 -324.41962563 292.11513138 -333.68017578 284.20507812 C-336.62087685 279.15074816 -336.84127459 275.47631392 -335.68017578 269.76757812 C-331.22296458 257.82121554 -323.69388288 247.45065569 -316.35595703 237.12695312 C-314.72293414 234.82777871 -313.10559066 232.51839028 -311.49267578 230.20507812 C-305.7140101 221.93535628 -299.80659191 213.7840588 -293.68017578 205.76757812 C-292.89126953 204.73375 -292.10236328 203.69992188 -291.28955078 202.63476562 C-289.1971263 199.89995192 -287.09401779 197.17358797 -284.98486328 194.45166016 C-284.1087049 193.32072069 -283.23372072 192.18887065 -282.35986328 191.05615234 C-275.87482402 182.65831093 -269.14370983 174.52410947 -262.1875 166.51318359 C-260.69582256 164.78569838 -259.21897052 163.04667597 -257.74658203 161.30273438 C-250.87794034 153.18088288 -243.73430302 145.36490623 -236.43164062 137.63232422 C-234.74858549 135.84041244 -233.08083847 134.03569583 -231.41845703 132.22460938 C-224.37946074 124.57211296 -217.14687607 117.13039548 -209.80517578 109.76757812 C-208.92531006 108.88312012 -208.04544434 107.99866211 -207.13891602 107.08740234 C-202.73803336 102.69694733 -198.27690966 98.4532849 -193.56103516 94.40332031 C-190.40799111 91.66118699 -187.39993525 88.76666784 -184.36767578 85.89257812 C-179.14068918 80.97264039 -173.82154716 76.3138313 -168.21142578 71.83398438 C-165.67879425 69.7664503 -163.27286418 67.60644472 -160.86767578 65.39257812 C-155.90079042 60.87224239 -150.67517788 56.75817319 -145.37158203 52.64648438 C-142.91904269 50.74370802 -140.49107932 48.81556331 -138.08251953 46.85742188 C-129.27620254 39.70006819 -120.21172288 32.99168307 -110.96972656 26.40869141 C-108.71454644 24.79221446 -106.4745743 23.15681799 -104.23876953 21.51367188 C-88.51743871 9.97880196 -72.58096207 -1.32607233 -54.68017578 -9.23242188 C-53.42140625 -9.80089844 -53.42140625 -9.80089844 -52.13720703 -10.38085938 C-34.23538566 -17.0978939 -14.69334054 -10.77767844 0 0 Z " fill="#F7931D" transform="translate(335.68017578125,27.232421875)"/>
</svg>
