<?xml version="1.0" encoding="UTF-8"?>
<svg version="1.1" xmlns="http://www.w3.org/2000/svg" width="512" height="163">
<path d="M0 0 C8.97966222 8.28321977 13.03604275 18.88520258 13.640625 30.9609375 C13.73657751 38.26292371 13.73657751 38.26292371 12.4921875 41.99609375 C16.1221875 41.99609375 19.7521875 41.99609375 23.4921875 41.99609375 C22.90112474 51.0098009 20.99464538 59.64971394 19.05371094 68.44873047 C18.48768088 71.01653811 17.93071457 73.58619221 17.375 76.15625 C17.01875222 77.79047869 16.66199994 79.42459751 16.3046875 81.05859375 C16.05464966 82.21004883 16.05464966 82.21004883 15.79956055 83.38476562 C14.60839166 88.76368543 14.60839166 88.76368543 13.4921875 90.99609375 C-1.6878125 90.99609375 -16.8678125 90.99609375 -32.5078125 90.99609375 C-32.1778125 88.02609375 -31.8478125 85.05609375 -31.5078125 81.99609375 C-32.04148437 82.5271875 -32.57515625 83.05828125 -33.125 83.60546875 C-42.60930883 92.59751242 -51.47739722 95.10327695 -64.5078125 94.99609375 C-72.85730457 94.39328864 -80.9704272 90.23644114 -86.5078125 83.93359375 C-91.453154 76.67012342 -91.62246898 68.5229124 -90.5078125 59.99609375 C-89.22996283 55.76182533 -87.57807899 51.90002484 -85.5078125 47.99609375 C-88.4778125 47.99609375 -91.4478125 47.99609375 -94.5078125 47.99609375 C-94.63003174 49.27766357 -94.75225098 50.5592334 -94.87817383 51.87963867 C-95.44555705 56.96018772 -96.44937989 61.87828025 -97.58203125 66.859375 C-97.78834671 67.77261032 -97.99466217 68.68584564 -98.20722961 69.62675476 C-98.6439892 71.54764207 -99.08366435 73.46786859 -99.52612305 75.38745117 C-100.19038591 78.28708822 -100.83265922 81.19105704 -101.47460938 84.09570312 C-104.72111179 98.43376167 -108.24553979 111.64156745 -120.5078125 120.99609375 C-130.56818496 126.7507924 -139.36575961 127.20093199 -150.7578125 127.24609375 C-152.68560547 127.27703125 -152.68560547 127.27703125 -154.65234375 127.30859375 C-161.95782758 127.33856497 -167.74202761 126.80286041 -174.5078125 123.99609375 C-174.06127088 117.85614641 -172.94028078 111.98626126 -171.5703125 105.99609375 C-171.40047852 105.22982666 -171.23064453 104.46355957 -171.05566406 103.67407227 C-170.60616099 101.7645404 -170.06418631 99.87726709 -169.5078125 97.99609375 C-166.53269392 96.50853446 -164.0082627 97.41658929 -160.796875 97.9375 C-157.88324958 98.01208086 -156.80057173 97.84067988 -154.5078125 95.99609375 C-152.12656357 90.33280614 -150.58313979 84.66769233 -149.24609375 78.68359375 C-149.05057419 77.82926758 -148.85505463 76.97494141 -148.65361023 76.09472656 C-148.03730459 73.39633652 -147.42868671 70.69628179 -146.8203125 67.99609375 C-146.40089998 66.15352982 -145.98098289 64.31108066 -145.56054688 62.46875 C-144.53713359 57.97916974 -143.52060575 53.48808113 -142.5078125 48.99609375 C-147.9528125 49.49109375 -147.9528125 49.49109375 -153.5078125 49.99609375 C-151.98081238 39.93396663 -149.75376019 30.13349078 -147.3828125 20.24609375 C-146.1040625 14.88359375 -144.8253125 9.52109375 -143.5078125 3.99609375 C-127.9978125 3.99609375 -112.4878125 3.99609375 -96.5078125 3.99609375 C-94.77353339 7.46465198 -96.52773404 11.29855637 -97.37890625 14.94140625 C-97.68067528 16.2689241 -97.68067528 16.2689241 -97.98854065 17.6232605 C-98.63435424 20.45738939 -99.28971799 23.2892131 -99.9453125 26.12109375 C-100.38409297 28.0389186 -100.82225211 29.95688572 -101.25976562 31.875 C-102.33523769 36.58371407 -103.41928137 41.29038221 -104.5078125 45.99609375 C-102.88454217 45.8888011 -101.26228557 45.76608362 -99.640625 45.63671875 C-98.73715332 45.57000977 -97.83368164 45.50330078 -96.90283203 45.43457031 C-94.27907123 45.19822925 -94.27907123 45.19822925 -92.3828125 42.74609375 C-91.7640625 41.83859375 -91.1453125 40.93109375 -90.5078125 39.99609375 C-79.74904784 31.49840896 -66.74975735 30.24757683 -53.5078125 30.99609375 C-46.73823703 32.13180852 -41.76640697 34.63257919 -36.5078125 38.99609375 C-36.1778125 39.65609375 -35.8478125 40.31609375 -35.5078125 40.99609375 C-35.82194673 36.5982145 -36.84548193 33.59771224 -39.890625 30.3203125 C-46.38741096 25.00048052 -55.47846256 25.23527448 -63.45361328 25.77148438 C-70.91689807 26.58753168 -78.44291991 28.58111215 -85.2890625 31.6328125 C-88.5078125 32.99609375 -88.5078125 32.99609375 -91.5078125 32.99609375 C-90.92960989 29.31113083 -90.22494053 25.65643473 -89.5078125 21.99609375 C-89.35183594 21.16529297 -89.19585937 20.33449219 -89.03515625 19.47851562 C-88.49516275 16.6645495 -87.911231 13.86227254 -87.3203125 11.05859375 C-87.14862549 10.13473877 -86.97693848 9.21088379 -86.80004883 8.2590332 C-85.38255378 1.80313274 -85.38255378 1.80313274 -82.9621582 -0.42993164 C-81.171875 -1.47265625 -81.171875 -1.47265625 -77.5078125 -3.00390625 C-76.60160156 -3.45894531 -75.69539063 -3.91398437 -74.76171875 -4.3828125 C-52.10882065 -14.34482719 -20.18061487 -16.12563151 0 0 Z M-49.5078125 59.99609375 C-49.92537894 63.75419174 -50.05374199 66.09412329 -48.0703125 69.37109375 C-43.73933345 72.11756827 -39.25608957 72.57617991 -34.25 71.51953125 C-31.14896427 70.47822405 -28.94071181 69.38840875 -26.5078125 67.18359375 C-25.14377665 64.19976532 -25.03458167 62.24110516 -25.5078125 58.99609375 C-27.890559 56.05737307 -29.84803317 54.17819184 -33.6796875 53.7578125 C-40.71553149 53.55526548 -44.42935257 54.91763382 -49.5078125 59.99609375 Z " fill="#39C0CB" transform="translate(488.5078125,36.00390625)"/>
<path d="M0 0 C5.79540162 4.66688528 9.23749653 12.36746002 10.75 19.5625 C11.67129846 31.81995719 10.81753516 43.67580125 7.75 55.5625 C8.74 55.2325 9.73 54.9025 10.75 54.5625 C13.08299825 54.52295766 15.41708189 54.51848268 17.75 54.5625 C19.14992714 58.76228142 17.91063039 62.17035743 16.9140625 66.3515625 C16.71525482 67.21059174 16.51644714 68.06962097 16.31161499 68.9546814 C15.88991751 70.76950026 15.46432979 72.58341892 15.03515625 74.39648438 C14.37640256 77.18157024 13.73018777 79.96933995 13.0859375 82.7578125 C12.67521303 84.51840053 12.26377895 86.2788232 11.8515625 88.0390625 C11.65672272 88.87756744 11.46188293 89.71607239 11.26113892 90.57998657 C9.86627664 96.44622336 9.86627664 96.44622336 8.75 97.5625 C7.27645652 97.65554018 5.79849409 97.67996265 4.32202148 97.67602539 C3.38112167 97.67594986 2.44022186 97.67587433 1.47080994 97.67579651 C0.44790359 97.67063522 -0.57500275 97.66547394 -1.62890625 97.66015625 C-2.67070541 97.6587413 -3.71250458 97.65732635 -4.78587341 97.65586853 C-8.12811094 97.6502508 -11.47028257 97.6376953 -14.8125 97.625 C-17.07226466 97.61998728 -19.33203037 97.61542398 -21.59179688 97.61132812 C-27.14455391 97.60027561 -32.69727225 97.58352024 -38.25 97.5625 C-37.65347414 92.27825379 -36.81073467 87.19116038 -35.62109375 82 C-35.46713638 81.32324219 -35.31317902 80.64648438 -35.15455627 79.94921875 C-34.66918261 77.81945981 -34.17844631 75.69098045 -33.6875 73.5625 C-33.35445982 72.10555051 -33.02177442 70.64851988 -32.68945312 69.19140625 C-31.88039416 65.64749174 -31.06652603 62.1047025 -30.25 58.5625 C-33.88 58.5625 -37.51 58.5625 -41.25 58.5625 C-41.01603516 57.41974609 -41.01603516 57.41974609 -40.77734375 56.25390625 C-38.95673318 46.89373191 -38.95673318 46.89373191 -40.25 37.5625 C-41.82545031 35.44909105 -42.70676817 34.67735473 -45.30078125 34.12890625 C-50.7535093 34.11948876 -54.13711371 34.64091075 -58.25 38.5625 C-61.637937 44.15315512 -63.03842869 50.20175062 -64.25 56.5625 C-60.95 56.8925 -57.65 57.2225 -54.25 57.5625 C-54.92816757 66.11123201 -56.87912524 74.28871467 -58.8125 82.625 C-60.5140625 90.0190625 -60.5140625 90.0190625 -62.25 97.5625 C-78.09 97.5625 -93.93 97.5625 -110.25 97.5625 C-108 84.0625 -108 84.0625 -106.7421875 78.921875 C-106.47792969 77.83261719 -106.21367187 76.74335937 -105.94140625 75.62109375 C-105.67199219 74.52925781 -105.40257812 73.43742187 -105.125 72.3125 C-104.84785156 71.17425781 -104.57070312 70.03601563 -104.28515625 68.86328125 C-103.61062718 66.09538612 -102.93219766 63.3285131 -102.25 60.5625 C-103.24 61.0575 -103.24 61.0575 -104.25 61.5625 C-107.25092374 61.69792075 -110.24697917 61.6054003 -113.25 61.5625 C-112.60046676 54.23589964 -111.18311113 47.25060107 -109.52734375 40.08984375 C-109.26240616 38.9261879 -108.99746857 37.76253204 -108.72450256 36.56361389 C-107.88349394 32.87466012 -107.03560701 29.18732757 -106.1875 25.5 C-105.61347605 22.98773441 -105.03990359 20.47536561 -104.46679688 17.96289062 C-103.06725846 11.82801093 -101.65841563 5.6953747 -100.25 -0.4375 C-84.41 -0.4375 -68.57 -0.4375 -52.25 -0.4375 C-53.24 4.8425 -54.23 10.1225 -55.25 15.5625 C-54.445625 14.4075 -53.64125 13.2525 -52.8125 12.0625 C-40.34591613 -4.40390117 -18.50887062 -11.90608565 0 0 Z " fill="#39C0CA" transform="translate(312.25,29.4375)"/>
<path d="M0 0 C8.68299167 7.20985769 11.74714969 15.31950511 12.8125 26.328125 C13.33710815 38.93289921 10.24877834 51.06997979 7.51953125 63.30078125 C10.81953125 63.30078125 14.11953125 63.30078125 17.51953125 63.30078125 C19.08459176 66.43090227 17.89095886 68.84561251 17.12109375 72.20703125 C16.96667816 72.8875354 16.81226257 73.56803955 16.65316772 74.26916504 C16.32507304 75.70899286 15.99365207 77.14806612 15.65917969 78.58642578 C15.14694943 80.79037665 14.64486287 82.99644586 14.14453125 85.203125 C11.67748849 95.98486677 11.67748849 95.98486677 10.51953125 98.30078125 C-5.32046875 98.30078125 -21.16046875 98.30078125 -37.48046875 98.30078125 C-35.17046875 87.74078125 -32.86046875 77.18078125 -30.48046875 66.30078125 C-31.47046875 66.79578125 -31.47046875 66.79578125 -32.48046875 67.30078125 C-34.02070871 67.37028666 -35.56381863 67.38530482 -37.10546875 67.36328125 C-37.92273438 67.35425781 -38.74 67.34523438 -39.58203125 67.3359375 C-40.20851563 67.32433594 -40.835 67.31273438 -41.48046875 67.30078125 C-41.16853411 65.57151251 -40.85589513 63.84237081 -40.54296875 62.11328125 C-40.28193359 60.66888672 -40.28193359 60.66888672 -40.015625 59.1953125 C-39.68312592 57.39690508 -39.3267658 55.60253072 -38.93359375 53.81640625 C-38.41404688 50.93202534 -38.23834754 48.16826151 -38.16796875 45.23828125 C-38.13058594 44.21605469 -38.09320313 43.19382813 -38.0546875 42.140625 C-38.59092605 38.56406146 -39.60770678 37.43771296 -42.48046875 35.30078125 C-46.74857941 34.82654673 -49.28434786 34.81145907 -53.23046875 36.42578125 C-59.15422011 41.36224072 -60.54329295 47.29981661 -62.16796875 54.55078125 C-62.58674356 56.34807616 -63.00723246 58.14497282 -63.4296875 59.94140625 C-63.60846436 60.73063477 -63.78724121 61.51986328 -63.97143555 62.33300781 C-64.48046875 64.30078125 -64.48046875 64.30078125 -65.48046875 66.30078125 C-61.85046875 66.30078125 -58.22046875 66.30078125 -54.48046875 66.30078125 C-55.09546425 73.12862896 -56.34432057 79.58617022 -57.98046875 86.23828125 C-58.20605469 87.18251953 -58.43164062 88.12675781 -58.6640625 89.09960938 C-60.33688562 96.01361499 -60.33688562 96.01361499 -61.48046875 98.30078125 C-76.99046875 98.30078125 -92.50046875 98.30078125 -108.48046875 98.30078125 C-107.35443264 88.16645628 -107.35443264 88.16645628 -106.54296875 84.5546875 C-106.37023437 83.78060547 -106.1975 83.00652344 -106.01953125 82.20898438 C-105.84164062 81.43490234 -105.66375 80.66082031 -105.48046875 79.86328125 C-105.30257812 79.06212891 -105.1246875 78.26097656 -104.94140625 77.43554688 C-103.6187416 71.57732695 -103.6187416 71.57732695 -102.48046875 69.30078125 C-107.92546875 69.79578125 -107.92546875 69.79578125 -113.48046875 70.30078125 C-112.87007335 62.31274637 -111.38914634 54.75671094 -109.57421875 46.9609375 C-109.28945679 45.71702744 -109.00469482 44.47311737 -108.71130371 43.19151306 C-108.11228552 40.57969241 -107.51109913 37.96850411 -106.90576172 35.3581543 C-106.13047509 32.01486516 -105.36188055 28.67008451 -104.59575653 25.3246851 C-103.86154364 22.11961138 -103.1242368 18.91525205 -102.38671875 15.7109375 C-102.11065796 14.51098648 -101.83459717 13.31103546 -101.5501709 12.07472229 C-101.29320435 10.96604294 -101.03623779 9.85736359 -100.77148438 8.71508789 C-100.43292419 7.2514254 -100.43292419 7.2514254 -100.08752441 5.75819397 C-99.48046875 3.30078125 -99.48046875 3.30078125 -98.48046875 0.30078125 C-82.97046875 0.30078125 -67.46046875 0.30078125 -51.48046875 0.30078125 C-52.10721868 5.31478069 -52.75179216 10.30414178 -53.48046875 15.30078125 C-52.94679687 14.57632813 -52.413125 13.851875 -51.86328125 13.10546875 C-40.09394103 -2.16616649 -17.90076378 -12.26272794 0 0 Z " fill="#39C0CB" transform="translate(113.48046875,28.69921875)"/>
<path d="M0 0 C1.22244667 0.00333092 1.22244667 0.00333092 2.46958923 0.00672913 C3.85090782 0.00684242 3.85090782 0.00684242 5.26013184 0.00695801 C6.2611644 0.01211929 7.26219696 0.01728058 8.29356384 0.02259827 C9.31316696 0.02401321 10.33277008 0.02542816 11.38327026 0.02688599 C14.65417867 0.03250355 17.92501972 0.04505902 21.19590759 0.05775452 C23.40749515 0.06276725 25.61908377 0.06733055 27.83067322 0.07142639 C33.26494116 0.08247868 38.69916957 0.09923389 44.13340759 0.12025452 C45.20541765 3.3362847 45.0814527 4.26201643 44.34483337 7.45228577 C44.14777802 8.32328918 43.95072266 9.1942926 43.74769592 10.09169006 C43.5269339 11.02924133 43.30617187 11.9667926 43.07872009 12.93275452 C42.85771637 13.89802063 42.63671265 14.86328674 42.40901184 15.85780334 C41.69959566 18.94705844 40.97895209 22.03357824 40.25840759 25.12025452 C39.77984445 27.20082313 39.30197135 29.28155059 38.82481384 31.36244202 C37.94745447 35.17196696 37.0695891 38.98135403 36.18077087 42.78822327 C35.9131041 43.9371405 35.9131041 43.9371405 35.64002991 45.10926819 C35.21393362 46.80061454 34.68496997 48.46556739 34.13340759 50.12025452 C37.76340759 50.12025452 41.39340759 50.12025452 45.13340759 50.12025452 C43.80544937 58.65528697 42.07665461 66.98656834 40.00840759 75.37025452 C39.05965759 79.24775452 38.11090759 83.12525452 37.13340759 87.12025452 C21.29340759 87.12025452 5.45340759 87.12025452 -10.86659241 87.12025452 C-8.61659241 74.74525452 -8.61659241 74.74525452 -7.57752991 70.23353577 C-7.35838928 69.27640686 -7.13924866 68.31927795 -6.91346741 67.33314514 C-6.69174866 66.37601624 -6.47002991 65.41888733 -6.24159241 64.43275452 C-6.01213928 63.43308655 -5.78268616 62.43341858 -5.54627991 61.40345764 C-4.98859714 58.97521394 -4.42791633 56.5476591 -3.86659241 54.12025452 C-7.49659241 53.79025452 -11.12659241 53.46025452 -14.86659241 53.12025452 C-13.80340773 48.28562726 -12.73716265 43.45168762 -11.66835022 38.61830139 C-11.30687761 36.98175815 -10.94617192 35.34504529 -10.58631897 33.70814514 C-8.69698547 25.11642746 -6.76932086 16.53685767 -4.66346741 7.99525452 C-4.49752075 7.31390442 -4.3315741 6.63255432 -4.16059875 5.93055725 C-2.71989867 0.17522845 -2.71989867 0.17522845 0 0 Z " fill="#39C1CA" transform="translate(149.86659240722656,39.87974548339844)"/>
<path d="M0 0 C0.75563232 -0.01385742 1.51126465 -0.02771484 2.28979492 -0.04199219 C8.49757741 0.00930622 13.86462667 1.26526607 19.03125 4.8125 C22.25339598 8.3926622 23.36440812 11.08424895 23.5625 15.9375 C23.20418091 22.0205915 21.06599711 25.18200297 16.875 29.5 C8.12321156 35.08624794 -0.79283617 36.55173231 -11.0625 35.375 C-17.25290269 33.83563125 -22.0669215 31.49433496 -26.0625 26.375 C-28.26251944 22.67496731 -28.28839654 19.60408213 -27.6015625 15.36328125 C-26.15603142 10.03157604 -22.59733212 6.29744737 -18.0625 3.375 C-12.3185308 0.27697957 -6.38619525 0.07035694 0 0 Z " fill="#39C0CB" transform="translate(179.0625,-0.375)"/>
<path d="M0 0 C1.16692383 -0.0309375 1.16692383 -0.0309375 2.35742188 -0.0625 C8.69702676 -0.10479928 14.21325766 0.92703847 19.37109375 4.79296875 C22.39098319 8.39459327 24.29879216 11.42934801 24.5390625 16.20703125 C23.93425803 21.66069912 21.07772579 25.82898947 17.1875 29.5625 C9.44086815 35.58583451 -0.20677921 36.25276854 -9.6875 35.25 C-16.04893388 33.8868356 -21.75639224 31.74514203 -25.71484375 26.3671875 C-27.71588778 22.01150129 -27.66574658 17.88169809 -26.6875 13.25 C-23.98121504 7.16846076 -19.81960757 4.28360965 -13.73828125 1.94140625 C-9.04658344 0.35963384 -4.92418301 0.03184597 0 0 Z " fill="#39C0CA" transform="translate(376.6875,-0.25)"/>
</svg>
