<?xml version="1.0" encoding="UTF-8"?>
<svg version="1.1" xmlns="http://www.w3.org/2000/svg" width="221" height="228">
<path d="M0 0 C72.93 0 145.86 0 221 0 C221 75.24 221 150.48 221 228 C148.07 228 75.14 228 0 228 C0 152.76 0 77.52 0 0 Z " fill="#9619B8" transform="translate(0,0)"/>
<path d="M0 0 C5.32389028 5.010105 8.63774331 9.37743313 9.375 16.75 C9.31651531 20.18759983 8.42168493 22.60101161 6.9375 25.6875 C5.33778583 28.99918658 5.33778583 28.99918658 5 32.625 C5.88486119 34.72654532 6.88256181 36.49631136 8.0625 38.4375 C10.04014728 41.73118165 10.54265659 44.11096109 10 48 C8 50 8 50 4.75 50.6875 C1 50 1 50 -0.58203125 48.33984375 C-2.17853458 45.95140737 -3.59145478 43.50367069 -5 41 C-5.57492188 40.11441406 -6.14984375 39.22882813 -6.7421875 38.31640625 C-11.05360611 31.63072717 -11.05360611 31.63072717 -10.81640625 28.83984375 C-9.58700631 26.06928215 -7.38641757 24.78981318 -5 23 C-3.43064406 19.86128812 -3.64798897 17.46144178 -4 14 C-5.99524923 11.06947769 -7.42836485 9.35478497 -10.97265625 8.5546875 C-14.53908774 8.35470069 -16.59834205 8.69103234 -19.4375 10.875 C-22.57618275 15.14360853 -22.28402109 18.96708833 -22.5234375 24.15234375 C-23 27 -23 27 -24.3828125 28.85546875 C-26.71190604 30.50383688 -28.21480144 30.41777978 -31 30 C-32.6328125 28.8984375 -32.6328125 28.8984375 -34 27 C-35.19473434 17.67638689 -34.36994475 10.21661589 -28.625 2.75 C-20.78222416 -5.46624136 -9.26147532 -6.63646634 0 0 Z " fill="#30F1AA" transform="translate(57,94)"/>
<path d="M0 0 C6.84904919 4.892178 12.36654161 10.95951655 15.86328125 18.65234375 C15.80078125 21.96484375 15.80078125 21.96484375 14.86328125 24.65234375 C11.86328125 26.65234375 11.86328125 26.65234375 8.88671875 26.6015625 C4.98062183 25.37522975 4.38237888 24.02709336 2.48828125 20.46484375 C-1.63810686 13.47265642 -6.92642106 8.66523418 -14.75390625 6.1328125 C-24.21767762 4.22454385 -32.16963438 5.11465115 -40.578125 9.8828125 C-44.94304285 12.90160301 -47.81297448 16.23820756 -50.35546875 20.875 C-51.51116194 22.97525013 -52.55101178 24.85247521 -54.13671875 26.65234375 C-57.82421875 27.27734375 -57.82421875 27.27734375 -61.13671875 26.65234375 C-63.13671875 24.65234375 -63.13671875 24.65234375 -63.63671875 22.15234375 C-62.46154476 13.92612581 -56.47041527 6.76946886 -50.13671875 1.65234375 C-34.36222065 -9.6265554 -16.45896594 -10.38088346 0 0 Z " fill="#31F1AA" transform="translate(68.13671875,76.34765625)"/>
<path d="M0 0 C4.45265531 2.18584897 7.3033725 4.85775776 10 9 C10.37856439 11.89790583 10.53907179 14.40311466 10.49609375 17.29296875 C10.49754898 18.08020828 10.49900421 18.86744781 10.50050354 19.67854309 C10.49884928 21.33513101 10.48734105 22.99173505 10.46655273 24.64819336 C10.43747199 27.18994851 10.44597693 29.7296327 10.45898438 32.27148438 C10.45275032 33.88282267 10.44436198 35.49415438 10.43359375 37.10546875 C10.43652939 37.86691696 10.43946503 38.62836517 10.44248962 39.41288757 C10.40405273 41.54760742 10.40405273 41.54760742 10 45 C7 47 7 47 3.875 46.6875 C1 46 1 46 0 45 C-0.23678716 42.30764224 -0.42198025 39.63501844 -0.5625 36.9375 C-0.60568359 36.17888672 -0.64886719 35.42027344 -0.69335938 34.63867188 C-0.79973633 32.75934562 -0.90039934 30.87969756 -1 29 C-1.40605469 29.4846875 -1.81210938 29.969375 -2.23046875 30.46875 C-4.94982618 32.82192464 -7.23444028 32.53862755 -10.7109375 32.4140625 C-14.71734622 31.68935375 -16.29323202 30.03686163 -19 27 C-21.7104042 21.82559199 -21.81215233 15.7099281 -21 10 C-19.34821755 6.22547233 -16.88295446 3.80504672 -13.875 1.0625 C-9.27289311 -0.63827863 -4.83928988 -0.64049425 0 0 Z " fill="#30F2AA" transform="translate(206,112)"/>
<path d="M0 0 C3.87763885 1.93881943 7.03706601 4.07413201 9 8 C9.49452596 11.38612918 9.77028528 14.67951094 7.98828125 17.734375 C4.81429738 19.7547498 1.44492664 19.31122458 -2.1875 19.1875 C-2.93708984 19.17396484 -3.68667969 19.16042969 -4.45898438 19.14648438 C-6.30629767 19.11118539 -8.15324066 19.05737917 -10 19 C-9.23917179 21.01223765 -9.23917179 21.01223765 -8 23 C-3.46366092 24.17608791 -1.04309306 24.23067203 3 22 C5.98970481 22.35172998 6.82711465 22.82711465 9 25 C8.82080114 27.7775824 8.23344468 28.78265496 6.1875 30.6875 C1.50543861 33.49673683 -3.67450074 33.51028303 -9 33 C-13.70775773 31.27985775 -16.71122614 28.7585987 -20 25 C-22.0077921 18.97662369 -22.04953453 12.26053591 -19.375 6.5 C-13.43698273 0.24945551 -8.47808589 -1.26161992 0 0 Z " fill="#31EFAA" transform="translate(141,112)"/>
<path d="M0 0 C4.06538625 1.47045886 6.57035193 3.3555279 9 7 C9.265625 9.41015625 9.265625 9.41015625 9.25 12.0625 C9.25515625 12.94035156 9.2603125 13.81820312 9.265625 14.72265625 C9 17 9 17 7 19 C4.0906442 19.14517744 1.280054 19.18630796 -1.625 19.125 C-2.42679688 19.11597656 -3.22859375 19.10695312 -4.0546875 19.09765625 C-6.03658523 19.07406223 -8.01832981 19.03819065 -10 19 C-9.34 20.32 -8.68 21.64 -8 23 C-2.87416389 23.10251672 1.94997778 23.03590199 7 22 C9 25 9 25 9.0625 27.5 C8 30 8 30 5 31.8125 C-0.93398481 33.92397926 -6.55958619 33.94301449 -12.3125 31.3125 C-15.80708671 29.53223885 -17.90358607 27.31705321 -20 24 C-20.42156306 21.16244449 -20.60675574 18.82195395 -20.5625 16 C-20.58634766 15.30132812 -20.61019531 14.60265625 -20.63476562 13.8828125 C-20.62380036 10.0084175 -20.17707817 8.21794236 -17.71484375 5.1875 C-16.81894531 4.465625 -15.92304688 3.74375 -15 3 C-14.34644531 2.41089844 -13.69289062 1.82179688 -13.01953125 1.21484375 C-9.04280514 -1.17734545 -4.46661927 -0.58040815 0 0 Z " fill="#31EFAA" transform="translate(173,112)"/>
<path d="M0 0 C1.11246094 -0.00773437 2.22492188 -0.01546875 3.37109375 -0.0234375 C8.00668986 0.55530277 10.38583126 2.35294473 13.8515625 5.36328125 C16.47273253 9.97725863 16.06527558 14.35396379 15.9375 19.5625 C15.93621094 20.57248047 15.93492188 21.58246094 15.93359375 22.62304688 C15.84364421 30.09385579 15.84364421 30.09385579 13.5625 32.375 C8.26672535 32.93838028 8.26672535 32.93838028 5.6875 30.875 C5.31625 30.38 4.945 29.885 4.5625 29.375 C4.15773438 29.849375 3.75296875 30.32375 3.3359375 30.8125 C0.67084636 33.16059792 -1.74610625 33.29497698 -5.20703125 33.5546875 C-7.4375 33.375 -7.4375 33.375 -10.5 31.5 C-13.05905453 27.37249269 -13.41268113 24.11792641 -12.4375 19.375 C-10.23918636 16.34284325 -8.98786806 15.55845602 -5.4375 14.375 C-3.54279184 14.3064505 -1.6458166 14.29019628 0.25 14.3125 C1.24386719 14.32152344 2.23773438 14.33054687 3.26171875 14.33984375 C4.40060547 14.35724609 4.40060547 14.35724609 5.5625 14.375 C5.2325 12.725 4.9025 11.075 4.5625 9.375 C-2.49401252 9.22524761 -2.49401252 9.22524761 -9.4375 10.375 C-11.4375 7.375 -11.4375 7.375 -11.3125 5.375 C-9.09024948 0.29557025 -5.08916725 -0.03530058 0 0 Z " fill="#30F2AA" transform="translate(82.4375,111.625)"/>
<path d="M0 0 C0.99128906 -0.00257812 1.98257813 -0.00515625 3.00390625 -0.0078125 C5.4375 0.125 5.4375 0.125 6.4375 1.125 C6.47830783 3.12458364 6.48004356 5.12545254 6.4375 7.125 C5.88320312 7.27195312 5.32890625 7.41890625 4.7578125 7.5703125 C2.50158869 8.26885866 0.50324368 8.97408566 -1.5625 10.125 C-3.16245382 13.16521368 -3.16245382 13.16521368 -3.5625 16.125 C-1.8609375 16.0940625 -1.8609375 16.0940625 -0.125 16.0625 C3.4375 16.125 3.4375 16.125 4.4375 17.125 C4.5625 20.125 4.5625 20.125 4.4375 23.125 C3.4375 24.125 3.4375 24.125 -0.125 24.1875 C-1.259375 24.166875 -2.39375 24.14625 -3.5625 24.125 C-3.55202637 24.78097168 -3.54155273 25.43694336 -3.53076172 26.11279297 C-3.48927497 29.07515658 -3.46319738 32.03745916 -3.4375 35 C-3.42074219 36.03253906 -3.40398437 37.06507813 -3.38671875 38.12890625 C-3.38027344 39.11503906 -3.37382813 40.10117188 -3.3671875 41.1171875 C-3.35671387 42.02839355 -3.34624023 42.93959961 -3.33544922 43.87841797 C-3.5625 46.125 -3.5625 46.125 -5.5625 48.125 C-10.89583333 48.45833333 -10.89583333 48.45833333 -13.5625 47.125 C-13.71142693 41.6990954 -13.81998635 36.27439404 -13.89208984 30.84692383 C-13.92216233 29.00296288 -13.9630326 27.15914379 -14.01513672 25.31567383 C-14.08837858 22.65670709 -14.12205005 19.99963925 -14.1484375 17.33984375 C-14.17940521 16.52289536 -14.21037292 15.70594696 -14.24227905 14.86424255 C-14.24552278 9.27929654 -12.89982337 6.47352762 -9.04971313 2.4299469 C-6.1036738 -0.15503894 -3.81999489 -0.00996087 0 0 Z " fill="#2FF3AA" transform="translate(115.5625,95.875)"/>
<path d="M0 0 C2.5625 0.3125 2.5625 0.3125 4.375 1.3125 C6.2337883 4.44309083 6.11395843 7.76024828 5.5625 11.3125 C4.5725 12.7975 4.5725 12.7975 3.5625 14.3125 C0.5625 14.625 0.5625 14.625 -2.4375 14.3125 C-4.4375 12.3125 -4.4375 12.3125 -4.703125 10 C-4.69796875 9.113125 -4.6928125 8.22625 -4.6875 7.3125 C-4.69265625 6.425625 -4.6978125 5.53875 -4.703125 4.625 C-4.31923239 1.28287612 -3.30723298 0.42400423 0 0 Z " fill="#941EB8" transform="translate(200.4375,120.6875)"/>
<path d="M0 0 C6.460199 -0.36567164 6.460199 -0.36567164 8.9375 1.3125 C10 3 10 3 10 6 C5.83861737 6.08159574 2.0527516 5.98248524 -2 5 C-1.34 3.35 -0.68 1.7 0 0 Z " fill="#902BB7" transform="translate(78,120)"/>
<path d="M0 0 C2.33944736 0.28730055 4.6739143 0.61936779 7 1 C7.5625 2.9375 7.5625 2.9375 8 5 C7 6 7 6 4.93359375 6.09765625 C4.10988281 6.08605469 3.28617188 6.07445313 2.4375 6.0625 C1.61121094 6.05347656 0.78492188 6.04445313 -0.06640625 6.03515625 C-0.70449219 6.02355469 -1.34257812 6.01195313 -2 6 C-1.125 1.125 -1.125 1.125 0 0 Z " fill="#8B3DB6" transform="translate(165,119)"/>
<path d="M0 0 C2.5625 0.1875 2.5625 0.1875 4.5625 2.1875 C4.5625 3.5075 4.5625 4.8275 4.5625 6.1875 C1.5925 6.1875 -1.3775 6.1875 -4.4375 6.1875 C-3.3735 0.2595 -3.3735 0.2595 0 0 Z " fill="#9323B8" transform="translate(135.4375,118.8125)"/>
<path d="M0 0 C0.94875 0.04125 1.8975 0.0825 2.875 0.125 C2.1875 2.5625 2.1875 2.5625 0.875 5.125 C-1.75 5.9375 -1.75 5.9375 -4.125 6.125 C-4.75 4.25 -4.75 4.25 -5.125 2.125 C-3.125 0.125 -3.125 0.125 0 0 Z " fill="#9221B8" transform="translate(85.125,130.875)"/>
<path d="M0 0 C2.31 0.33 4.62 0.66 7 1 C7 1.99 7 2.98 7 4 C4.69 3.67 2.38 3.34 0 3 C0 2.01 0 1.02 0 0 Z " fill="#9715B9" transform="translate(164,120)"/>
<path d="M0 0 C2.125 0.375 2.125 0.375 4 1 C3.360625 1.350625 2.72125 1.70125 2.0625 2.0625 C-0.82163832 4.77184206 -0.7100822 7.15858911 -1 11 C-1.33 11 -1.66 11 -2 11 C-2.05399736 9.54207116 -2.09279177 8.08357288 -2.125 6.625 C-2.15980469 5.40683594 -2.15980469 5.40683594 -2.1953125 4.1640625 C-2 2 -2 2 0 0 Z " fill="#980DB9" transform="translate(198,121)"/>
</svg>
