<?xml version="1.0" encoding="UTF-8" standalone="no"?>
<svg
   xmlns:dc="http://purl.org/dc/elements/1.1/"
   xmlns:cc="http://creativecommons.org/ns#"
   xmlns:rdf="http://www.w3.org/1999/02/22-rdf-syntax-ns#"
   xmlns:svg="http://www.w3.org/2000/svg"
   xmlns="http://www.w3.org/2000/svg"
   xmlns:sodipodi="http://sodipodi.sourceforge.net/DTD/sodipodi-0.dtd"
   xmlns:inkscape="http://www.inkscape.org/namespaces/inkscape"
   width="100"
   height="42"
   viewBox="0 0 26.458333 11.1125"
   version="1.1"
   id="svg8"
   inkscape:version="1.0.1 (3bc2e813f5, 2020-09-07)"
   sodipodi:docname="Rappi logo.svg">
  <title
     id="title16">Rappi logo</title>
  <defs
     id="defs2" />
  <sodipodi:namedview
     id="base"
     pagecolor="#ffffff"
     bordercolor="#666666"
     borderopacity="1.0"
     inkscape:pageopacity="0.0"
     inkscape:pageshadow="2"
     inkscape:zoom="5.6"
     inkscape:cx="109.79689"
     inkscape:cy="26.426194"
     inkscape:document-units="px"
     inkscape:current-layer="layer1"
     inkscape:document-rotation="0"
     showgrid="false"
     units="px"
     inkscape:showpageshadow="false"
     inkscape:window-width="1366"
     inkscape:window-height="745"
     inkscape:window-x="-8"
     inkscape:window-y="-8"
     inkscape:window-maximized="1" />
  <metadata
     id="metadata5">
    <rdf:RDF>
      <cc:Work
         rdf:about="">
        <dc:format>image/svg+xml</dc:format>
        <dc:type
           rdf:resource="http://purl.org/dc/dcmitype/StillImage" />
        <dc:title>Rappi logo</dc:title>
        <cc:license
           rdf:resource="http://scripts.sil.org/OFL" />
        <dc:date>10 feb 2021</dc:date>
      </cc:Work>
      <cc:License
         rdf:about="http://scripts.sil.org/OFL">
        <cc:permits
           rdf:resource="http://scripts.sil.org/pub/OFL/Reproduction" />
        <cc:permits
           rdf:resource="http://scripts.sil.org/pub/OFL/Distribution" />
        <cc:permits
           rdf:resource="http://scripts.sil.org/pub/OFL/Embedding" />
        <cc:permits
           rdf:resource="http://scripts.sil.org/pub/OFL/DerivativeWorks" />
        <cc:requires
           rdf:resource="http://scripts.sil.org/pub/OFL/Notice" />
        <cc:requires
           rdf:resource="http://scripts.sil.org/pub/OFL/Attribution" />
        <cc:requires
           rdf:resource="http://scripts.sil.org/pub/OFL/ShareAlike" />
        <cc:requires
           rdf:resource="http://scripts.sil.org/pub/OFL/DerivativeRenaming" />
        <cc:requires
           rdf:resource="http://scripts.sil.org/pub/OFL/BundlingWhenSelling" />
      </cc:License>
    </rdf:RDF>
  </metadata>
  <g
     inkscape:label="Capa 1"
     inkscape:groupmode="layer"
     id="layer1">
    <path
       fill="#ff441f"
       fill-rule="evenodd"
       d="m 20.558408,4.3869066 c -0.0361,0.1959906 -0.09312,0.4223 -0.169641,0.6717091 -0.07688,0.2494092 -0.175417,0.5125338 -0.29164,0.7792681 -0.126324,0.2689006 -0.257351,0.520476 -0.388732,0.7471457 -0.129939,0.2245046 -0.259876,0.4176072 -0.3844,0.5738932 -0.121631,0.1523176 -0.234611,0.2649308 -0.334953,0.3349528 -0.07579,0.052698 -0.118029,0.058469 -0.132462,0.058469 -0.0068,0 -0.01228,-0.00108 -0.01805,-0.00368 -0.01269,-0.00573 -0.05487,-0.033927 -0.07327,-0.167838 -0.01733,-0.1227217 -0.0079,-0.2840593 0.02707,-0.4793268 0.0361,-0.2010435 0.09277,-0.4295179 0.169642,-0.6774837 0.07579,-0.2479659 0.174333,-0.5110905 0.292361,-0.7814344 0.11695,-0.2681775 0.244717,-0.5183097 0.38043,-0.7438962 0.134985,-0.2252263 0.266373,-0.4161638 0.390898,-0.5677586 0.12092,-0.147985 0.233889,-0.2587933 0.335673,-0.3298985 0.07616,-0.052698 0.118028,-0.058469 0.132462,-0.058469 0.0073,0 0.01269,0.00108 0.01768,0.00368 0.01269,0.00546 0.05487,0.033927 0.07363,0.1678367 0.01695,0.1227217 0.0079,0.2815329 -0.02671,0.4728306 m -5.066871,0 c -0.0361,0.1959906 -0.09312,0.4223 -0.169641,0.6717091 -0.07724,0.2508525 -0.175778,0.513617 -0.29164,0.7792681 -0.126692,0.2696222 -0.25771,0.5211976 -0.388731,0.7471457 -0.130293,0.2248647 -0.259877,0.4179673 -0.384401,0.5738932 -0.12163,0.1523163 -0.234251,0.2649294 -0.335313,0.3349528 -0.07579,0.052698 -0.117661,0.058469 -0.132107,0.058469 -0.0068,0 -0.01228,-0.00108 -0.01805,-0.00355 -0.01269,-0.00573 -0.05486,-0.033927 -0.07327,-0.167838 -0.01733,-0.1223534 -0.0083,-0.2833377 0.02707,-0.4793269 0.03573,-0.2006833 0.09277,-0.4284361 0.169641,-0.6774837 0.0758,-0.2483273 0.174335,-0.5110904 0.292361,-0.7814343 0.117306,-0.2689006 0.245439,-0.5190314 0.380071,-0.7438962 0.135708,-0.2255878 0.267094,-0.4165255 0.391257,-0.5677586 0.121276,-0.147985 0.234611,-0.2591548 0.335674,-0.3298985 0.07579,-0.052698 0.118028,-0.058469 0.132461,-0.058469 0.0073,0 0.01269,0.00108 0.01768,0.00355 0.01269,0.00546 0.05522,0.033927 0.07364,0.1678367 0.01697,0.1227217 0.0079,0.2815329 -0.02671,0.4728306 M 10.001635,4.3363773 C 9.979263,4.5356159 9.93595,4.7630086 9.8727747,5.0127779 9.8092448,5.2618269 9.7226234,5.5238684 9.6147031,5.7924075 9.5071374,6.0595046 9.3927245,6.3107186 9.2739752,6.5388314 9.157747,6.7618928 9.0404479,6.9521074 8.9245866,7.1044236 8.8119734,7.2524101 8.706218,7.3628568 8.6098468,7.4325188 c -0.071101,0.05162 -0.1108124,0.057392 -0.1241678,0.057392 -0.00614,0 -0.011595,-0.00108 -0.017326,-0.00368 C 8.455393,7.4805008 8.410607,7.4512118 8.387498,7.3151448 8.3658494,7.1906181 8.364035,7.0300035 8.3813601,6.8372624 8.3994082,6.6416334 8.4401972,6.4167673 8.5029905,6.1691629 8.5657974,5.921197 8.6527803,5.6587941 8.7610622,5.3895334 8.8700602,5.118828 8.9848452,4.8679756 9.1021511,4.6427493 9.2176564,4.4200494 9.335317,4.2276685 9.4519017,4.0706594 9.5637918,3.9190647 9.6699087,3.8071746 9.7659185,3.7375127 c 0.071101,-0.05162 0.1108124,-0.057392 0.1245224,-0.057392 0.00614,0 0.011595,0.00108 0.016602,0.00368 0.01371,0.00573 0.060269,0.036096 0.088794,0.1739727 0.02526,0.1227217 0.02707,0.2836991 0.0055,0.4789667 M 21.102712,2.6811099 c 0.265291,0 0.493406,0.08121 0.678206,0.2418284 0.178305,0.1548441 0.305717,0.3760993 0.378266,0.6572721 0.07038,0.2725088 0.08483,0.6020472 0.04331,0.97995 -0.04152,0.3732126 -0.150511,0.7991209 -0.324846,1.2658154 -0.164228,0.4410685 -0.352638,0.8290784 -0.559096,1.1528409 -0.09998,0.1573706 -0.202847,0.3046339 -0.307158,0.4407083 -0.01337,0.017325 0.0066,0.040066 0.02562,0.029603 0.06064,-0.03285 0.12092,-0.068578 0.18047,-0.1075657 0.135709,-0.087703 0.266013,-0.1822751 0.389815,-0.282256 0.345419,-0.279728 0.596272,-0.6579922 0.71827,-1.0831789 0.07292,-0.2559067 0.153759,-0.5096472 0.241829,-0.759778 0.144376,-0.4118326 0.298497,-0.7962329 0.458392,-1.1427349 0.158815,-0.3454188 0.290919,-0.6038521 0.392704,-0.7688007 0.115504,-0.1876895 0.277201,-0.3046339 0.481855,-0.3479467 0.191297,-0.040421 0.374293,-0.037542 0.542492,0.00791 0.172168,0.046928 0.312933,0.1321073 0.417967,0.2541019 0.114414,0.133185 0.139322,0.284781 0.07147,0.438542 -0.02021,0.053053 -0.07327,0.1743327 -0.15773,0.3609391 -0.08483,0.1876881 -0.180109,0.4067784 -0.290919,0.6709862 -0.106474,0.2537417 -0.21584,0.5284155 -0.324846,0.8157244 -0.106473,0.2822545 -0.189853,0.5457406 -0.247603,0.7832391 -0.0563,0.2310009 -0.07832,0.4230203 -0.06569,0.5706452 0.01228,0.1411272 0.06606,0.1411272 0.09529,0.1411272 0.04114,0 0.114059,-0.019494 0.227393,-0.1118901 0.108998,-0.09024 0.224143,-0.1988772 0.342892,-0.3244842 0.118752,-0.1259684 0.232806,-0.2616813 0.338199,-0.4031701 0.09637,-0.1288605 0.179027,-0.2429129 0.246161,-0.3392827 0.05847,-0.084102 0.151595,-0.1321073 0.255186,-0.1321073 0.109366,0 0.21548,0.054868 0.270704,0.1396826 0.05378,0.083011 0.05234,0.1819135 -0.0047,0.2707054 -0.07147,0.1115354 -0.196351,0.2984964 -0.381875,0.5724499 -0.183718,0.2707054 -0.40353,0.5497105 -0.6533,0.8298 -0.254101,0.2840594 -0.531665,0.5363565 -0.825829,0.7496722 -0.309326,0.2248647 -0.621899,0.3385611 -0.928337,0.3385611 -0.277201,0 -0.48402,-0.096011 -0.615041,-0.2858642 C 22.09315,8.1309071 22.032508,7.8984616 22.032508,7.6133191 v -0.045482 c 7.21e-4,-0.033927 -0.03899,-0.053053 -0.06533,-0.031758 -0.05812,0.04656 -0.11803,0.092764 -0.179027,0.1382407 -0.360272,0.2681775 -0.776074,0.4955688 -1.236632,0.6764005 -0.411112,0.1617005 -0.864091,0.2436333 -1.346305,0.2436333 l -0.09818,-0.00108 -0.09853,-0.00328 c -0.328456,-7.23e-4 -0.57209,-0.1035959 -0.724766,-0.3067989 -0.02706,-0.035728 -0.05198,-0.072547 -0.07399,-0.1104441 -0.01768,-0.030326 -0.06353,-0.025264 -0.07363,0.00859 -0.04945,0.1649486 -0.09636,0.324124 -0.139684,0.4764403 -0.09384,0.3273721 -0.173972,0.6107101 -0.244356,0.866255 -0.07075,0.256267 -0.132107,0.4897951 -0.182635,0.6951691 -0.04873,0.197796 -0.08266,0.358053 -0.09998,0.476802 l -0.0011,0.0044 c -0.04439,0.224864 -0.196352,0.303909 -0.316544,0.330981 -0.05342,0.01187 -0.108998,0.01805 -0.165311,0.01805 -0.101781,0 -0.209344,-0.01985 -0.319431,-0.05847 -0.167474,-0.0592 -0.317986,-0.161338 -0.447924,-0.303909 -0.134631,-0.147986 -0.202848,-0.333148 -0.202848,-0.550433 0,-0.04404 0.01118,-0.140405 0.09746,-0.4952081 0.0646,-0.2616817 0.151594,-0.5872495 0.259515,-0.9680416 0.07292,-0.2580716 0.155926,-0.5388829 0.247966,-0.8391843 0.01078,-0.036096 -0.03032,-0.066054 -0.06136,-0.044758 -0.320876,0.2183685 -0.680734,0.4071399 -1.073435,0.5612609 -0.411471,0.1617005 -0.864091,0.2436346 -1.346305,0.2436346 -0.06498,0 -0.131384,-0.0015 -0.197074,-0.00437 -0.32809,-7.212e-4 -0.571724,-0.103594 -0.724762,-0.306797 -0.02707,-0.035728 -0.05162,-0.072192 -0.07363,-0.1104441 -0.01804,-0.030326 -0.06353,-0.02491 -0.07363,0.00859 -0.04981,0.1653101 -0.09674,0.3248455 -0.140046,0.4764402 -0.09421,0.3284552 -0.174333,0.6121531 -0.243994,0.8662543 -0.07075,0.256268 -0.132463,0.4897951 -0.182997,0.6951691 -0.04873,0.198157 -0.08229,0.358415 -0.09998,0.476803 l -7.21e-4,0.0044 c -0.04439,0.224862 -0.196712,0.303908 -0.316906,0.330979 -0.05342,0.01187 -0.108643,0.01804 -0.164948,0.01804 -0.101782,0 -0.209346,-0.01985 -0.319793,-0.05847 -0.167477,-0.05918 -0.317627,-0.161335 -0.447566,-0.303906 -0.134631,-0.147986 -0.202848,-0.333148 -0.202848,-0.550434 0,-0.04439 0.01078,-0.140767 0.09746,-0.4952081 0.06498,-0.2642084 0.151955,-0.5897769 0.259155,-0.9680412 0.06353,-0.2248647 0.133908,-0.4645296 0.212954,-0.7233229 0.01159,-0.038988 -0.0361,-0.068578 -0.06641,-0.040789 -0.134631,0.1227217 -0.273233,0.2371369 -0.415443,0.3418105 -0.304993,0.2248648 -0.615402,0.3389212 -0.922201,0.3389212 -0.2772016,0 -0.4843812,-0.096011 -0.6150411,-0.2858641 C 9.4490478,8.2275281 9.4079041,8.1390964 9.3779467,8.0398372 9.3516043,7.951411 9.2382627,7.924332 9.1740166,7.9911087 9.083776,8.0849507 8.9845223,8.1704958 8.8780452,8.2459309 8.7394445,8.344111 8.5846017,8.4264012 8.4171253,8.4906486 8.2445959,8.5563339 8.057991,8.5899065 7.8623618,8.5899065 7.5977926,8.5899065 7.3657085,8.5094198 7.1729675,8.350243 6.985278,8.1964834 6.846317,7.978475 6.7593301,7.7016349 6.6748735,7.433456 6.6438248,7.1039189 6.666934,6.7216835 6.6900296,6.344141 6.7759321,5.9203977 6.9224792,5.461644 7.2346913,4.5102067 7.6418311,3.8038474 8.13307,3.3609755 8.633333,2.9097999 9.1408138,2.6809653 9.6414373,2.6809653 c 0.211871,0 0.3912577,0.04259 0.5323857,0.1263232 0.138962,0.083011 0.246161,0.1927411 0.318709,0.326289 0.04836,0.089872 0.08374,0.1862447 0.105397,0.2887521 0.0039,0.018048 0.02851,0.02165 0.03754,0.00546 0.02527,-0.045482 0.04946,-0.086257 0.07219,-0.1234448 0.115506,-0.186968 0.275038,-0.3039125 0.474638,-0.3475853 0.186604,-0.040421 0.36924,-0.037897 0.542131,0.00764 0.17722,0.046928 0.320514,0.1324619 0.425908,0.254462 0.114414,0.133185 0.139322,0.284781 0.0711,0.438542 -0.01985,0.05233 -0.0711,0.1707177 -0.15737,0.3609337 -0.0841,0.1862448 -0.182274,0.4118313 -0.290918,0.6709861 -0.107566,0.2566284 -0.216923,0.5313035 -0.324845,0.8157244 -0.106843,0.2822545 -0.190215,0.5461008 -0.247605,0.7832378 -0.0563,0.2313624 -0.07832,0.4233832 -0.06568,0.5706465 0.01228,0.1411273 0.06606,0.1411273 0.09494,0.1411273 0.04152,0 0.114414,-0.019494 0.227391,-0.1118902 0.06244,-0.05162 0.127414,-0.1097211 0.193825,-0.1736125 0.257346,-0.2479609 0.429875,-0.5186663 0.545015,-0.8554226 0.153038,-0.446843 0.314017,-0.8879114 0.479327,-1.313098 0.1765,-0.4522574 0.348668,-0.8583142 0.511813,-1.2069825 0.08518,-0.1804702 0.220172,-0.3021061 0.399921,-0.360579 0.168558,-0.054868 0.341448,-0.066409 0.511452,-0.034282 0.169641,0.032481 0.318347,0.099981 0.44179,0.2010436 0.05486,0.044758 0.09853,0.093119 0.131015,0.1440152 0.0086,0.01371 0.01877,0.015156 0.03068,0.00396 0.145819,-0.1346311 0.306798,-0.2580718 0.48041,-0.3681584 0.254101,-0.162062 0.54177,-0.2439947 0.855065,-0.2439947 0.264931,0 0.493405,0.08121 0.677845,0.2418283 0.178666,0.1552043 0.306077,0.3760993 0.378626,0.6572721 0.07038,0.2721487 0.08483,0.6020472 0.04331,0.97995 -0.04152,0.3728512 -0.150873,0.7991209 -0.324845,1.2658155 -0.164589,0.4414299 -0.353,0.8294399 -0.559457,1.1528408 -0.09998,0.1573706 -0.202848,0.3046339 -0.30716,0.4407083 -0.01337,0.017326 0.0068,0.040066 0.02599,0.029603 0.06028,-0.03285 0.120554,-0.068577 0.180471,-0.1075657 0.09709,-0.062807 0.191297,-0.1292152 0.282254,-0.198517 0.34578,-0.2627645 0.603853,-0.6222603 0.74137,-1.0315651 l 0.05414,-0.1598971 c 0.162424,-0.4800499 0.334232,-0.9528805 0.510371,-1.405498 0.176859,-0.4529792 0.349028,-0.8590372 0.512172,-1.2069825 0.08483,-0.1804703 0.219452,-0.301746 0.399922,-0.360579 0.168559,-0.054868 0.341449,-0.066409 0.511451,-0.034282 0.169641,0.032481 0.317988,0.099981 0.441429,0.2006834 0.05487,0.045114 0.09853,0.093488 0.131017,0.1443754 0.0087,0.01371 0.01877,0.015156 0.03068,0.00396 0.14582,-0.134631 0.306799,-0.2580717 0.48041,-0.3681583 0.254453,-0.1620767 0.542122,-0.2440094 0.855055,-0.2440094 z M 4.5016562,0.43281672 c 0.3804305,0 0.7615828,0.044036 1.1333508,0.1302929 0.3742945,0.087349 0.7139388,0.220172 1.0088256,0.39486766 0.2984978,0.17686052 0.5435757,0.39883742 0.7283772,0.65979712 0.1884098,0.2656511 0.2836978,0.5771428 0.2836978,0.9258097 0,0.3753776 -0.083733,0.7276542 -0.2490476,1.0467253 C 7.2429932,3.906131 7.0174054,4.1945229 6.7369557,4.4475404 6.4590324,4.6987543 6.129494,4.9203724 5.7573659,5.1058942 5.4505669,5.2589335 5.1246382,5.3895934 4.7860771,5.4946271 c -0.021663,0.00682 -0.029234,0.018048 -0.028156,0.039698 0.00723,0.1660318 0.019126,0.3302587 0.036096,0.4883509 0.019126,0.1815521 0.04439,0.3584127 0.07544,0.5262493 0.030312,0.1649499 0.067131,0.3255686 0.1086434,0.4775235 0.032481,0.1176605 0.068578,0.2320839 0.1071973,0.3407273 0.024542,0.0693 0.050529,0.1371562 0.076886,0.200682 0.053053,0.1281375 0.1115355,0.2508538 0.1736125,0.3645487 0.060993,0.1118903 0.1270462,0.2180085 0.1963508,0.3154615 0.0675,0.094934 0.140044,0.1840798 0.2154805,0.2656511 0.073638,0.07941 0.1515947,0.1523176 0.231724,0.2172867 0.077963,0.063162 0.1602571,0.1205528 0.2443562,0.1696415 0.081933,0.04836 0.1678365,0.09024 0.2555452,0.1248907 0.086271,0.033928 0.1754159,0.061361 0.2652895,0.08121 0.09024,0.019849 0.1829968,0.032481 0.2768416,0.03862 0.093488,0.00573 0.1909362,0.00464 0.288029,-0.00396 0.098903,-0.00859 0.1999604,-0.024542 0.3003027,-0.048006 0.1028726,-0.023818 0.2075394,-0.055222 0.3118516,-0.093842 0.1068427,-0.039697 0.2147589,-0.088072 0.3212359,-0.1425719 0.040789,-0.02094 0.081933,-0.043313 0.1227218,-0.066408 0.1328303,-0.075794 0.3024662,-0.039697 0.3916196,0.08301 0.089518,0.1227218 0.069668,0.2923617 -0.045836,0.3919808 -0.056668,0.04873 -0.1136909,0.096366 -0.1700029,0.1418491 -0.136796,0.1104436 -0.2739535,0.2129546 -0.4078616,0.3042726 -0.1270462,0.08662 -0.2562682,0.167476 -0.3840401,0.239303 -0.063885,0.0361 -0.131016,0.07147 -0.1992386,0.1053961 -0.131016,0.06568 -0.2634862,0.123446 -0.3945077,0.171807 -0.1302929,0.048 -0.2613197,0.08807 -0.3890916,0.118383 -0.1274146,0.03032 -0.2559068,0.05233 -0.3811523,0.06497 -0.089518,0.009 -0.1790269,0.01371 -0.2663741,0.01371 -0.035374,0 -0.070746,-7.22e-4 -0.1061197,-0.0025 -0.1212757,-0.0051 -0.2418297,-0.01912 -0.3587742,-0.04187 -0.057746,-0.01118 -0.1162281,-0.02491 -0.1732509,-0.04079 -0.055222,-0.0148 -0.1118901,-0.03248 -0.1685583,-0.05305 C 5.2036911,10.247906 5.0957708,10.1999 4.9925418,10.143962 4.8914833,10.089095 4.7918585,10.025934 4.6972934,9.955913 4.6207764,9.8992449 4.5456988,9.8368059 4.4745936,9.7707499 4.3890458,9.6913409 4.3056738,9.6029129 4.2266277,9.5090699 4.1486647,9.4163059 4.0739499,9.315966 4.0046495,9.2109335 3.9349944,9.1062599 3.8692955,8.9943698 3.808659,8.8788686 3.7483758,8.7633635 3.6909983,8.6406485 3.6390175,8.5143199 3.5873969,8.3890744 3.5393914,8.2562482 3.4957253,8.1187306 3.4527673,7.9837312 3.4134379,7.8408059 3.3787741,7.6935426 3.3444786,7.5466407 3.3145212,7.3943244 3.2896249,7.2405634 3.2672524,7.1044864 3.2484812,6.9633619 3.2336798,6.8200697 3.2293143,6.7767572 3.1669032,6.7709868 3.1542709,6.8132461 3.1001265,7.0002125 3.0510432,7.1814044 3.0077291,7.3546555 2.9532304,7.5719409 2.9030556,7.7697348 2.8575778,7.9473171 2.8131873,8.1212911 2.7817836,8.2613353 2.7637355,8.3634811 2.7276394,8.544673 2.607448,8.659091 2.4147057,8.6962676 2.2490354,8.7287484 2.0710916,8.7150391 1.8877347,8.6565695 1.7065431,8.5984583 1.5419547,8.4977587 1.3979395,8.3566315 1.2470665,8.2086465 1.1705482,8.0227617 1.1705482,7.8036716 c 0,-0.178304 0.045482,-0.460197 0.1386008,-0.8612022 C 1.4000994,6.5508512 1.5311272,6.0866818 1.6993239,5.5622373 1.8660787,5.0421228 2.0685654,4.4685897 2.3006495,3.8586015 2.4998881,3.3345172 2.7236711,2.8068246 2.9662225,2.2863486 3.0456315,2.1159857 3.2098571,1.998681 3.39935,1.9770247 3.8277848,1.9279414 4.1995528,1.9402054 4.5146527,2.0131209 4.7045072,2.0571566 4.8062928,2.2603637 4.7268852,2.4354196 4.5236768,2.8822639 4.3363488,3.3280237 4.1688723,3.7618729 4.0335183,4.1130676 3.9035828,4.4606515 3.7808624,4.7988525 c -0.011869,0.033572 0.022741,0.064608 0.055222,0.049806 C 3.9995911,4.7746655 4.1609315,4.6873184 4.3186621,4.5876991 4.577094,4.4241937 4.8124276,4.2289249 5.018524,4.0076683 5.2235372,3.7864132 5.3917353,3.537004 5.5184254,3.2659385 5.6433162,2.9973994 5.7068352,2.7057593 5.7068352,2.3982388 5.7068352,2.0030109 5.5956681,1.7110107 5.3765751,1.530902 5.1545983,1.3486269 4.8420235,1.2558654 4.4471558,1.2558654 c -0.4204939,0 -0.8048955,0.09818 -1.1423735,0.2920001 C 2.9582803,1.7463825 2.6587006,1.9903773 2.4143444,2.2733535 2.1681834,2.558496 1.9739977,2.8631299 1.8379233,3.1789514 1.7029376,3.4918864 1.6343534,3.7662001 1.6343534,3.9946745 c 0,0.1635067 -0.087703,0.2815329 -0.2468827,0.3324264 C 1.2477881,4.3718593 1.0936671,4.3653664 0.93557471,4.3072523 0.78361856,4.2516613 0.64285287,4.1415804 0.5168844,3.9806016 0.39019285,3.8188998 0.32594807,3.5998095 0.32594807,3.3294657 c 0,-0.2360538 0.0909504,-0.5139771 0.27792329,-0.8496516 C 0.7857849,2.152442 1.0550456,1.8337325 1.4033525,1.532348 1.7512978,1.2316852 2.1902013,0.97072558 2.7092313,0.75704982 3.2311506,0.54192932 3.834281,0.43292582 4.5016575,0.43292582 Z M 25.207679,0.18304606 c 0.582196,0 1.053944,0.46561276 1.053944,1.03950594 0,0.5738946 -0.471748,1.0395061 -1.053944,1.0395061 -0.582195,0 -1.053945,-0.4656115 -1.053945,-1.0395061 0,-0.57389318 0.47175,-1.03950594 1.053945,-1.03950594 z"
       id="path2"
       style="stroke-width:0.360939" />
  </g>
</svg>
