<?xml version="1.0" encoding="UTF-8"?>
<svg version="1.1" xmlns="http://www.w3.org/2000/svg" width="207" height="185">
<path d="M0 0 C68.31 0 136.62 0 207 0 C207 61.05 207 122.1 207 185 C138.69 185 70.38 185 0 185 C0 123.95 0 62.9 0 0 Z " fill="#FD7F01" transform="translate(0,0)"/>
<path d="M0 0 C-0.44934887 2.12691797 -0.90976473 4.25150039 -1.375 6.375 C-1.75785156 8.15003906 -1.75785156 8.15003906 -2.1484375 9.9609375 C-3 13 -3 13 -5 15 C-8.57001872 14.81210428 -12.071506 14.34997523 -15.6171875 13.8984375 C-19.01510643 13.70557538 -19.01510643 13.70557538 -21.4453125 15.6015625 C-23.49195578 18.75894686 -23.64629712 20.2942532 -23 24 C-21.00876371 27.00336665 -21.00876371 27.00336665 -18.3125 29.8125 C-14.00005414 34.54660723 -10.94596312 39.31187255 -8 45 C-7.16596924 42.22937509 -6.33275094 39.45850967 -5.5 36.6875 C-5.23807861 35.81697998 -4.97615723 34.94645996 -4.70629883 34.04956055 C-3.07090624 28.60346167 -1.45473451 23.15213609 0.14453125 17.6953125 C0.50417969 16.47110596 0.86382812 15.24689941 1.234375 13.9855957 C1.94926624 11.55001177 2.66153545 9.11365659 3.37109375 6.67651367 C3.69851562 5.56252197 4.0259375 4.44853027 4.36328125 3.30078125 C4.65501221 2.30216064 4.94674316 1.30354004 5.24731445 0.2746582 C6 -2 6 -2 7 -3 C8.33043625 -3.0983721 9.66593344 -3.13078592 11 -3.1328125 C11.804375 -3.13410156 12.60875 -3.13539062 13.4375 -3.13671875 C14.283125 -3.13285156 15.12875 -3.12898438 16 -3.125 C17.2684375 -3.13080078 17.2684375 -3.13080078 18.5625 -3.13671875 C19.366875 -3.13542969 20.17125 -3.13414063 21 -3.1328125 C21.7425 -3.13168457 22.485 -3.13055664 23.25 -3.12939453 C25 -3 25 -3 26 -2 C25.52979064 3.93390971 24.1919333 9.32880664 22.4375 15 C22.08655273 16.16208984 22.08655273 16.16208984 21.72851562 17.34765625 C21.15809962 19.2335214 20.57987197 21.1170209 20 23 C20.38929687 22.36835937 20.77859375 21.73671875 21.1796875 21.0859375 C33.30769231 1.69230769 33.30769231 1.69230769 38 -3 C39.34267413 -3.08631874 40.68974322 -3.10706473 42.03515625 -3.09765625 C42.84404297 -3.09443359 43.65292969 -3.09121094 44.48632812 -3.08789062 C45.33646484 -3.07951172 46.18660156 -3.07113281 47.0625 -3.0625 C47.91650391 -3.05798828 48.77050781 -3.05347656 49.65039062 -3.04882812 C51.76695663 -3.03700373 53.88348685 -3.01906769 56 -3 C55.48930694 1.60474905 53.46050395 4.57768004 50.75 8.1875 C50.31905029 8.78336914 49.88810059 9.37923828 49.4440918 9.99316406 C46.84138616 13.57962364 44.15330583 17.08637857 41.41015625 20.56640625 C40.81299805 21.34411377 40.21583984 22.12182129 39.60058594 22.9230957 C38.43247198 24.44320686 37.24237459 25.94674194 36.02832031 27.43041992 C33.09193477 31.29045932 31.5752554 33.93462383 31.98046875 38.859375 C32.27729871 40.5808891 32.61906541 42.29512239 33 44 C33.18409424 44.90008789 33.36818848 45.80017578 33.55786133 46.72753906 C34.15607929 49.49920906 34.81690687 52.24811052 35.5 55 C35.72558594 55.93972656 35.95117188 56.87945312 36.18359375 57.84765625 C37.24668603 62.54580989 37.24668603 62.54580989 39 67 C39.17539307 66.4237085 39.35078613 65.84741699 39.53149414 65.25366211 C40.06531916 63.49966561 40.59917657 61.74567896 41.13305664 59.99169922 C41.76138144 57.92699127 42.38946755 55.86221066 43.01733398 53.79736328 C44.610279 48.55983921 46.20626724 43.32330938 47.8125 38.08984375 C51.49750752 26.06578175 55.04608407 14.01098445 58.44677734 1.90332031 C58.92530769 0.25697321 59.45783304 -1.37349913 60 -3 C66.27 -3 72.54 -3 79 -3 C80.12446214 2.62231069 80.12446214 2.62231069 78.84765625 6.5703125 C78.56978271 7.45283691 78.29190918 8.33536133 78.00561523 9.24462891 C77.69438721 10.19515137 77.38315918 11.14567383 77.0625 12.125 C76.40765514 14.1975382 75.75406064 16.27047179 75.1015625 18.34375 C74.58384277 19.97376953 74.58384277 19.97376953 74.05566406 21.63671875 C72.28432843 27.28008593 70.61129082 32.95207936 68.9375 38.625 C68.43766602 40.31326904 68.43766602 40.31326904 67.92773438 42.03564453 C65.50858465 50.22453736 63.14022825 58.42724761 60.81420898 66.64306641 C60.47498413 67.84068604 60.47498413 67.84068604 60.12890625 69.0625 C59.93369385 69.75472656 59.73848145 70.44695312 59.53735352 71.16015625 C59.06279735 72.78498825 58.53528335 74.39414996 58 76 C52.48245195 76.07402793 46.96519144 76.12854366 41.44726562 76.16479492 C39.56928474 76.17990325 37.69133924 76.20039094 35.81347656 76.22631836 C33.11774981 76.26261246 30.42248854 76.27970545 27.7265625 76.29296875 C26.88380768 76.30845261 26.04105286 76.32393646 25.17276001 76.33988953 C22.80712891 76.34057617 22.80712891 76.34057617 19 76 C17.10278759 73.15418139 16.65208719 71.99746788 16.1484375 68.76953125 C16.01953125 67.96708984 15.890625 67.16464844 15.7578125 66.33789062 C15.56832031 65.08782227 15.56832031 65.08782227 15.375 63.8125 C15.17390625 62.5450293 15.17390625 62.5450293 14.96875 61.25195312 C14.63924338 59.16900055 14.31875011 57.08462573 14 55 C10.35854971 59.00637175 8.83134145 62.68068352 7.3125 67.75 C5.09635061 74.90364939 5.09635061 74.90364939 4 76 C2.58429877 76.08651611 1.164405 76.10704904 -0.25390625 76.09765625 C-1.10791016 76.09443359 -1.96191406 76.09121094 -2.84179688 76.08789062 C-3.73962891 76.07951172 -4.63746094 76.07113281 -5.5625 76.0625 C-6.46419922 76.05798828 -7.36589844 76.05347656 -8.29492188 76.04882812 C-10.53001314 76.03700225 -12.76497437 76.0205222 -15 76 C-15.09200044 71.16422707 -14.76722161 67.52850538 -13 63 C-13.36351562 63.45890625 -13.72703125 63.9178125 -14.1015625 64.390625 C-19.52715086 71.01262515 -25.46849154 75.4447184 -34 77 C-37.02204966 77.25636367 -40.03040484 77.34162594 -43.0625 77.375 C-44.19606934 77.39578613 -44.19606934 77.39578613 -45.35253906 77.41699219 C-50.8387981 77.3716512 -54.960069 76.16242215 -60 74 C-58.96232949 67.93267948 -57.66038099 62.5626148 -55 57 C-53.88625 57.2475 -53.88625 57.2475 -52.75 57.5 C-49.42610521 57.94318597 -46.22355308 58.20197319 -42.875 58.3125 C-41.86179687 58.34988281 -40.84859375 58.38726562 -39.8046875 58.42578125 C-36.91846503 58.18545835 -36.91846503 58.18545835 -34.5703125 56.41796875 C-32.70301924 54.0102695 -32.70301924 54.0102695 -32.94140625 50.63671875 C-34.14796632 46.49167289 -36.0643094 43.91135494 -38.9375 40.8125 C-44.98025658 34.08598029 -46.46356339 30.39275302 -46.3203125 21.265625 C-45.879445 16.77092706 -44.53062748 13.68572226 -42 10 C-41.443125 9.13375 -40.88625 8.2675 -40.3125 7.375 C-29.23929147 -3.99748444 -14.15548868 -7.82920856 0 0 Z " fill="#FEFBF9" transform="translate(63,59)"/>
<path d="M0 0 C4.99872122 -0.09935536 9.99685955 -0.17169622 14.99633789 -0.21972656 C16.69468202 -0.23976221 18.39295785 -0.26699885 20.09106445 -0.30175781 C22.5413504 -0.35063415 24.9907194 -0.37304872 27.44140625 -0.390625 C28.56839684 -0.42159271 28.56839684 -0.42159271 29.71815491 -0.45318604 C35.25475872 -0.45550858 38.42225864 0.86855005 43 4 C44.7421875 6.03515625 44.7421875 6.03515625 45.875 8.0625 C46.26429688 8.73410156 46.65359375 9.40570313 47.0546875 10.09765625 C50.55362897 17.1389145 49.41449711 24.3251274 47.25 31.625 C43.73035711 42.06171886 39.02361989 52.2462816 28.6875 57.5 C23.45301499 59.62928204 19.39832422 60.12591984 13.8125 60.0625 C13.06291016 60.05798828 12.31332031 60.05347656 11.54101562 60.04882812 C9.69397617 60.03706354 7.84697787 60.01912865 6 60 C5.72285156 61.21558594 5.44570312 62.43117187 5.16015625 63.68359375 C4.79446102 65.26827307 4.42856525 66.85290612 4.0625 68.4375 C3.88009766 69.23994141 3.69769531 70.04238281 3.50976562 70.86914062 C2.11328125 76.88671875 2.11328125 76.88671875 1 78 C-0.41570123 78.08651611 -1.835595 78.10704904 -3.25390625 78.09765625 C-4.10791016 78.09443359 -4.96191406 78.09121094 -5.84179688 78.08789062 C-6.73962891 78.07951172 -7.63746094 78.07113281 -8.5625 78.0625 C-9.46419922 78.05798828 -10.36589844 78.05347656 -11.29492188 78.04882812 C-13.53001634 78.03700223 -15.76496493 78.01968245 -18 78 C-17.43124131 70.99159911 -15.95677314 64.66343654 -13.9453125 57.9375 C-13.64309784 56.90616943 -13.34088318 55.87483887 -13.0295105 54.81225586 C-12.06836123 51.53938891 -11.09666023 48.26975977 -10.125 45 C-9.47981478 42.80487961 -8.83527751 40.60956866 -8.19140625 38.4140625 C-3.07867643 21.04133094 -3.07867643 21.04133094 -0.56393433 13.90332031 C0.47619542 10.39280503 0.31552774 7.26211097 -0.5625 3.75 C-1 2 -1 2 0 0 Z " fill="#FEFCF9" transform="translate(147,57)"/>
<path d="M0 0 C0.8146875 0.00257812 1.629375 0.00515625 2.46875 0.0078125 C3.2834375 0.00523438 4.098125 0.00265625 4.9375 0 C6.96875 0.1328125 6.96875 0.1328125 7.96875 1.1328125 C9.34946905 9.46955916 6.5480698 16.23232372 1.96875 23.1328125 C-0.91609597 25.82304584 -1.69357674 26.11592884 -5.78125 26.3203125 C-6.85375 26.2584375 -7.92625 26.1965625 -9.03125 26.1328125 C-8.44249445 20.23856663 -7.25804399 14.85426309 -5.53125 9.1953125 C-5.30566406 8.42896484 -5.08007812 7.66261719 -4.84765625 6.87304688 C-2.84570789 0.18606552 -2.84570789 0.18606552 0 0 Z " fill="#FD8106" transform="translate(168.03125,73.8671875)"/>
</svg>
