<?xml version="1.0" encoding="utf-8"?>
<!-- Generator: Adobe Illustrator 25.0.1, SVG Export Plug-In . SVG Version: 6.00 Build 0)  -->
<svg version="1.0"
	 id="svg136" inkscape:version="0.92.0 r15299" xmlns:cc="http://creativecommons.org/ns#" xmlns:dc="http://purl.org/dc/elements/1.1/" xmlns:inkscape="http://www.inkscape.org/namespaces/inkscape" xmlns:rdf="http://www.w3.org/1999/02/22-rdf-syntax-ns#" xmlns:sodipodi="http://sodipodi.sourceforge.net/DTD/sodipodi-0.dtd" xmlns:svg="http://www.w3.org/2000/svg"
	 xmlns="http://www.w3.org/2000/svg" xmlns:xlink="http://www.w3.org/1999/xlink" x="0px" y="0px" viewBox="0 0 180.9 95.8"
	 style="enable-background:new 0 0 180.9 95.8;" xml:space="preserve">
<style type="text/css">
	.st0{fill-rule:evenodd;clip-rule:evenodd;fill:#FF5215;}
</style>
<sodipodi:namedview  bordercolor="#666666" borderopacity="1.0" fit-margin-bottom="0" fit-margin-left="0" fit-margin-right="0" fit-margin-top="0" id="base" inkscape:current-layer="layer1" inkscape:cx="75.486847" inkscape:cy="16.839485" inkscape:document-units="mm" inkscape:pageopacity="0.0" inkscape:pageshadow="2" inkscape:window-height="744" inkscape:window-maximized="1" inkscape:window-width="1280" inkscape:window-x="-4" inkscape:window-y="-4" inkscape:zoom="5.9810492" pagecolor="#ffffff" showgrid="false" units="px">
	</sodipodi:namedview>
<g id="layer1" transform="translate(-188.04664,-330.20999)" inkscape:groupmode="layer" inkscape:label="Layer 1">
	<g id="g257" transform="translate(0.13229453,-0.1322877)">
		<path id="Fill-1" inkscape:connector-curvature="0" class="st0" d="M350.4,388.6c-1.1,0-1.8-0.2-2.3-0.8c-0.4-0.5-0.6-1.3-0.6-2.5
			v-7.2h4.9l-0.6-5.4h-4.2v-4.9v-4c0,0-1.9,0.1-2.5,0.2c-3.2,0.2-5.3,2.4-5.3,4.8l0,4.2l-3,0.2v5h3v8.3c0,2.5,0.7,4.5,2,6
			c1.3,1.5,3.3,2.2,5.9,2.2c1.3,0,2.3-0.1,3.2-0.2c0,0,0,0,0,0c1.4-0.3,2.4-1.5,2.4-3v-3.6C352.4,388.3,351.4,388.6,350.4,388.6"/>
		<path id="Fill-4" inkscape:connector-curvature="0" class="st0" d="M272,389.3c0.8-0.4,1.4-0.8,1.8-1.4V386
			c-1.3-0.9-2.7-1.3-4.3-1.3c-1,0-1.8,0.2-2.4,0.7c-0.6,0.4-0.8,1.1-0.8,1.9c0,0.8,0.3,1.4,0.8,1.9c0.5,0.4,1.3,0.7,2.4,0.7
			C270.3,389.8,271.2,389.6,272,389.3 M260.7,392.7c-1.6-1.3-2.5-3.1-2.5-5.4c0-2.4,0.8-4.2,2.4-5.5c1.6-1.3,3.8-1.9,6.8-1.9
			c1.1,0,2.3,0.1,3.4,0.4c1.1,0.3,2.1,0.6,3,1v-0.4c0-2.3-1.9-3.4-5.6-3.4c-2.6,0-4.2,0.2-6.3,1.2c0,0-0.3-2.1-0.4-2.9
			c-0.2-1.6,1.1-2.8,3.2-3.2c0,0,0,0,0,0c1.5-0.3,3.1-0.4,4.8-0.4c3.9,0,6.9,0.8,8.9,2.4c2,1.6,3,3.8,3,6.6v9.7
			c0,2.6-0.9,3.2-3.1,3.2h-4l-0.2-1.8c-0.8,0.8-1.8,1.4-3,1.8c-1.2,0.4-2.6,0.7-4.1,0.7C264.5,394.6,262.3,394,260.7,392.7"/>
		<path id="Fill-6" inkscape:connector-curvature="0" class="st0" d="M326.2,389.3c0.8-0.4,1.4-0.8,1.8-1.4V386
			c-1.3-0.9-2.7-1.3-4.3-1.3c-1,0-1.8,0.2-2.4,0.7c-0.6,0.4-0.8,1.1-0.8,1.9c0,0.8,0.3,1.4,0.8,1.9c0.5,0.4,1.3,0.7,2.4,0.7
			C324.5,389.8,325.4,389.6,326.2,389.3 M314.9,392.7c-1.6-1.3-2.5-3.1-2.5-5.4c0-2.4,0.8-4.2,2.4-5.5c1.6-1.3,3.8-1.9,6.8-1.9
			c1.1,0,2.3,0.1,3.4,0.4c1.1,0.3,2.1,0.6,3,1v-0.4c0-2.3-1.9-3.4-5.6-3.4c-2.6,0-4.2,0.2-6.3,1.2c0,0-0.3-2.1-0.4-2.9
			c-0.2-1.6,1.1-2.8,3.2-3.2c0,0,0,0,0,0c1.5-0.3,3.1-0.4,4.8-0.4c3.9,0,6.9,0.8,8.9,2.4c2,1.6,3,3.8,3,6.6v9.7
			c0,2.6-0.9,3.2-3.1,3.2h-4l-0.2-1.8c-0.8,0.8-1.8,1.4-3,1.8c-1.2,0.4-2.6,0.7-4.1,0.7C318.7,394.6,316.5,394,314.9,392.7"/>
		<path id="Fill-8" inkscape:connector-curvature="0" class="st0" d="M217.1,388.6c-1.1,0-1.8-0.2-2.3-0.8c-0.4-0.5-0.6-1.3-0.6-2.5
			v-7.2h4.9l-0.6-5.4h-4.2v-4.9v-4c0,0-1.9,0.1-2.5,0.2c-3.2,0.2-5.3,2.4-5.3,4.8l0,4.2l-3,0.2v5h3v8.3c0,2.5,0.7,4.5,2,6
			c1.3,1.5,3.3,2.2,5.9,2.2c1.3,0,2.3-0.1,3.2-0.2c0,0,0,0,0,0c1.4-0.3,2.4-1.5,2.4-3v-3.6C219,388.3,218,388.6,217.1,388.6"/>
		<path id="Fill-11" inkscape:connector-curvature="0" class="st0" d="M235.2,389.3c0.8-0.4,1.4-0.8,1.8-1.4V386
			c-1.3-0.9-2.7-1.3-4.3-1.3c-1,0-1.8,0.2-2.4,0.7c-0.6,0.4-0.8,1.1-0.8,1.9c0,0.8,0.3,1.4,0.8,1.9c0.5,0.4,1.3,0.7,2.4,0.7
			C233.6,389.8,234.4,389.6,235.2,389.3 M224,392.7c-1.6-1.3-2.5-3.1-2.5-5.4c0-2.4,0.8-4.2,2.4-5.5c1.6-1.3,3.8-1.9,6.8-1.9
			c1.1,0,2.3,0.1,3.4,0.4c1.1,0.3,2.1,0.6,3,1v-0.4c0-2.3-1.9-3.4-5.6-3.4c-2.6,0-4.2,0.2-6.3,1.2c0,0-0.3-2.1-0.4-2.9
			c-0.2-1.6,1.1-2.8,3.2-3.2c0,0,0,0,0,0c1.5-0.3,3.1-0.4,4.8-0.4c3.9,0,6.9,0.8,8.9,2.4c2,1.6,3,3.8,3,6.6v9.7
			c0,2.6-0.9,3.2-3.1,3.2h-4l-0.2-1.8c-0.8,0.8-1.8,1.4-3,1.8c-1.2,0.4-2.6,0.7-4.1,0.7C227.7,394.6,225.6,394,224,392.7"/>
		<path id="Fill-13" inkscape:connector-curvature="0" class="st0" d="M255.4,393.9l0-32c0,0-1.8,0.1-2.5,0.2
			c-3.2,0.2-5.3,2.4-5.3,4.8l0,27H255.4z"/>
		<path id="Fill-15" inkscape:connector-curvature="0" class="st0" d="M301.5,387.2c-1,0.9-2.3,1.4-3.8,1.4c-1.2,0-2.2-0.3-3.2-0.9
			c-0.9-0.6-1.6-1.4-2-2.5v-3.8c0.4-1,1.1-1.8,2-2.5c0.9-0.6,2-0.9,3.2-0.9c1.6,0,2.9,0.5,3.8,1.4c1,0.9,1.5,2.2,1.5,3.8
			C303,385,302.5,386.3,301.5,387.2 M309.5,377.5c-0.9-1.7-2.3-3.1-4-4c-1.7-0.9-3.7-1.4-5.9-1.4c-1.4,0-2.8,0.2-4,0.6
			c-1.3,0.4-2.3,1-3.2,1.7l0-12.5c0,0-1.9,0.1-2.5,0.2c-3.2,0.2-5.3,2.4-5.3,4.8v27h7.3l0.2-2.1c2,1.9,4.5,2.8,7.5,2.8
			c2.2,0,4.2-0.5,5.9-1.4c1.7-0.9,3-2.2,4-3.9c0.9-1.7,1.4-3.7,1.4-5.9C310.9,381.2,310.5,379.2,309.5,377.5"/>
	</g>
</g>
</svg>
