<svg xmlns="http://www.w3.org/2000/svg" xmlns:xlink="http://www.w3.org/1999/xlink" width="70" height="70" viewBox="0 0 70 70">
    <defs>
        <path id="icon-a" d="M4,5.35309892e-14 C36.4160122,9.87060235e-15 58.0836068,-3.97961823e-14 65,5.07020818e-14 C69,6.733808e-14 70,1 70,5 C70,43.0488877 70,62.4235458 70,65 C70,69 69,70 65,70 C61,70 9,70 4,70 C1,70 7.10542736e-15,69 7.10542736e-15,65 C7.25721566e-15,62.4676575 3.83358709e-14,41.8005206 3.60818146e-14,5 C-1.13686838e-13,1 1,5.75716207e-14 4,5.35309892e-14 Z"/>
        <linearGradient id="icon-c" x1="100%" x2="0%" y1="0%" y2="98.616%">
            <stop offset="0%" stop-color="#797C79"/>
            <stop offset="100%" stop-color="#545554"/>
        </linearGradient>
        <path id="icon-d" d="M29.2777778,17.2348485 C34.4714536,17.2348485 38.681713,21.506348 38.681713,26.7755682 C38.681713,32.0447884 34.4714536,36.3162879 29.2777778,36.3162879 C24.0841019,36.3162879 19.8738426,32.0447884 19.8738426,26.7755682 C19.8738426,21.506348 24.0841019,17.2348485 29.2777778,17.2348485 Z M42.7933813,37.84729 C42.7933813,41.2291455 53.1142387,40.370791 53.1141828,46.7993457 C53.1141828,49.8785938 50.8543359,52.5088721 47.1832578,53.0575293 L47.1832578,55.6054688 C47.1832578,55.9614111 46.8831254,56.25 46.5129453,56.25 L44.2785703,56.25 C43.9083902,56.25 43.6082578,55.9614111 43.6082578,55.6054688 L43.6082578,53.0156885 C41.4017008,52.6548584 39.4354508,51.6754395 38.0920887,50.4390137 C37.8475922,50.2139648 37.8167578,49.8485693 38.0193598,49.5878564 L39.7168703,47.4035937 C39.944609,47.1106006 40.3787481,47.0596289 40.6753613,47.2886523 C42.0671535,48.3632471 43.8647641,49.2161768 45.5824957,49.2161768 C47.5829875,49.2161768 48.4941098,48.0702539 48.4941098,47.005542 C48.4941098,43.8578662 38.1732523,44.5412305 38.1732523,37.9061572 C38.1732523,35.0744092 40.3334461,32.784873 43.6083137,32.0710547 L43.6083137,29.3945312 C43.6083137,29.0385889 43.9084461,28.75 44.2786262,28.75 L46.5130012,28.75 C46.8831813,28.75 47.1833137,29.0385889 47.1833137,29.3945312 L47.1833137,31.9317822 C48.979416,32.1313721 50.9263387,32.8088281 52.2826602,33.9623779 C52.5156496,34.1605176 52.5744695,34.4877783 52.4264981,34.7508545 L51.1108981,37.0899121 C50.9184625,37.4321045 50.4576227,37.5328125 50.1291695,37.3056689 C48.8809918,36.4425342 47.3510035,35.783877 45.8581059,35.783877 C43.9963688,35.783877 42.7933813,36.5938379 42.7933813,37.84729 Z M35.2962963,36.7272727 C35.2962963,36.3141183 26.1175854,38.5736818 22.6967864,36.0773525 L18.5053937,37.1404272 C15.9936026,37.7775087 14.2314815,40.0671622 14.2314815,42.6939608 L14.2314815,44.9029356 C14.2314815,46.4837136 15.4945475,47.7651515 17.052662,47.7651515 C29.017554,47.7651515 35,47.7651515 35,47.7651515 C33.1481481,41.4242424 35.2962963,37.1404272 35.2962963,36.7272727 Z"/>
        <path id="icon-e" d="M29.2777778,15.2348485 C34.4714536,15.2348485 38.681713,19.506348 38.681713,24.7755682 C38.681713,30.0447884 34.4714536,34.3162879 29.2777778,34.3162879 C24.0841019,34.3162879 19.8738426,30.0447884 19.8738426,24.7755682 C19.8738426,19.506348 24.0841019,15.2348485 29.2777778,15.2348485 Z M42.7933813,35.84729 C42.7933813,39.2291455 53.1142387,38.370791 53.1141828,44.7993457 C53.1141828,47.8785938 50.8543359,50.5088721 47.1832578,51.0575293 L47.1832578,53.6054688 C47.1832578,53.9614111 46.8831254,54.25 46.5129453,54.25 L44.2785703,54.25 C43.9083902,54.25 43.6082578,53.9614111 43.6082578,53.6054688 L43.6082578,51.0156885 C41.4017008,50.6548584 39.4354508,49.6754395 38.0920887,48.4390137 C37.8475922,48.2139648 37.8167578,47.8485693 38.0193598,47.5878564 L39.7168703,45.4035937 C39.944609,45.1106006 40.3787481,45.0596289 40.6753613,45.2886523 C42.0671535,46.3632471 43.8647641,47.2161768 45.5824957,47.2161768 C47.5829875,47.2161768 48.4941098,46.0702539 48.4941098,45.005542 C48.4941098,41.8578662 38.1732523,42.5412305 38.1732523,35.9061572 C38.1732523,33.0744092 40.3334461,30.784873 43.6083137,30.0710547 L43.6083137,27.3945312 C43.6083137,27.0385889 43.9084461,26.75 44.2786262,26.75 L46.5130012,26.75 C46.8831813,26.75 47.1833137,27.0385889 47.1833137,27.3945312 L47.1833137,29.9317822 C48.979416,30.1313721 50.9263387,30.8088281 52.2826602,31.9623779 C52.5156496,32.1605176 52.5744695,32.4877783 52.4264981,32.7508545 L51.1108981,35.0899121 C50.9184625,35.4321045 50.4576227,35.5328125 50.1291695,35.3056689 C48.8809918,34.4425342 47.3510035,33.783877 45.8581059,33.783877 C43.9963688,33.783877 42.7933813,34.5938379 42.7933813,35.84729 Z M35.2962963,34.7272727 C35.2962963,34.3141183 26.1175854,36.5736818 22.6967864,34.0773525 L18.5053937,35.1404272 C15.9936026,35.7775087 14.2314815,38.0671622 14.2314815,40.6939608 L14.2314815,42.9029356 C14.2314815,44.4837136 15.4945475,45.7651515 17.052662,45.7651515 C29.017554,45.7651515 35,45.7651515 35,45.7651515 C33.1481481,39.4242424 35.2962963,35.1404272 35.2962963,34.7272727 Z"/>
    </defs>
    <g fill="none" fill-rule="evenodd">
        <mask id="icon-b" fill="#fff">
            <use xlink:href="#icon-a"/>
        </mask>
        <g mask="url(#icon-b)">
            <rect width="70" height="70" fill="url(#icon-c)"/>
            <path fill="#FFF" fill-opacity=".383" d="M4,1.8 L65,1.8 C67.6666667,1.8 69.3333333,1.13333333 70,-0.2 C70,2.46666667 70,3.46666667 70,2.8 L1.10547097e-14,2.8 C-1.65952376e-14,3.46666667 -2.9161925e-14,2.46666667 -2.66453526e-14,-0.2 C0.666666667,1.13333333 2,1.8 4,1.8 Z" transform="matrix(1 0 0 -1 0 2.8)"/>
            <path fill="#393939" d="M40.2790698,48 L4,48 C2,48 -7.10542736e-15,47.8556793 0,43.9590217 L2.0734159e-16,21.6246135 L20.6658658,0.0963982452 L37.783693,7.00604553 L34.121375,14.2273604 L43.799671,6.01962237 L50.8814479,14.2273604 L46.6827849,19.2273136 L52.6062041,25.9680455 L40.2790698,48 Z" opacity=".324" transform="translate(0 21)"/>
            <path fill="#000" fill-opacity=".383" d="M4,4 L65,4 C67.6666667,4 69.3333333,3 70,1 C70,3.66666667 70,5 70,5 L1.77635684e-15,5 C1.77635684e-15,5 1.77635684e-15,3.66666667 1.77635684e-15,1 C0.666666667,3 2,4 4,4 Z" transform="translate(0 65)"/>
            <use fill="#000" fill-rule="nonzero" opacity=".3" xlink:href="#icon-d"/>
            <use fill="#FFF" fill-rule="nonzero" xlink:href="#icon-e"/>
        </g>
    </g>
</svg>
