<svg width="50" height="50" viewBox="0 0 50 50" xmlns="http://www.w3.org/2000/svg"><path d="M28 16c0 5.523-4.477 10-10 10S8 21.523 8 16 12.477 6 18 6s10 4.477 10 10Z" fill="var(--o-icons-cyan-pure, #1BB6F9)"/><path d="M28 16c0 5.523-4.477 10-10 10S8 21.523 8 16 12.477 6 18 6s10 4.477 10 10Z" fill="url(#o_icon_hr_expense__a)" fill-opacity=".2"/><path d="M43 24a5 5 0 1 1-10 0 5 5 0 0 1 10 0Z" fill="var(--o-icons-purple-cyan, #102E7A)"/><path d="M43 24a5 5 0 1 1-10 0 5 5 0 0 1 10 0Z" fill="url(#o_icon_hr_expense__b)" fill-opacity=".3"/><path d="M16 31h26a4 4 0 0 1 4 4v5a4 4 0 0 1-4 4H20a4 4 0 0 1-4-4v-9Z" fill="var(--o-icons-purple-cyan, #102E7A)"/><path d="M16 31h26a4 4 0 0 1 4 4v5a4 4 0 0 1-4 4H20a4 4 0 0 1-4-4v-9Z" fill="url(#o_icon_hr_expense__c)" fill-opacity=".3"/><path d="M4 31h16c7.18 0 13 5.82 13 13H17C9.82 44 4 38.18 4 31Z" fill="var(--o-icons-cyan-pure, #1BB6F9)"/><path d="M4 31h16c7.18 0 13 5.82 13 13H17C9.82 44 4 38.18 4 31Z" fill="url(#o_icon_hr_expense__d)" fill-opacity=".2"/><path d="M17.617 22h.787v-1.138C20.558 20.73 22 19.668 22 17.905v-.014c0-1.554-.997-2.332-2.962-2.762l-.634-.132v-2.013c.69.111 1.143.493 1.24 1.139l.008.014 2.188-.007.007-.007c-.077-1.687-1.338-2.811-3.443-2.957V10h-.787v1.16c-2.05.096-3.52 1.151-3.52 2.886v.014c0 1.562 1.032 2.402 2.893 2.811l.627.132v2.054c-.816-.076-1.29-.416-1.401-1.027l-.007-.014-2.195.007-.014.007c.056 1.777 1.491 2.755 3.617 2.839V22Zm-1.185-8.127v-.014c0-.5.404-.82 1.185-.889v1.847c-.809-.216-1.185-.486-1.185-.944Zm3.234 4.282v.014c0 .534-.454.819-1.262.888v-1.88c.906.228 1.262.464 1.262.978Z" fill="var(--o-icons-white, #FFFFFF)"/><defs><linearGradient id="o_icon_hr_expense__a" x1="8" y1="6" x2="31.529" y2="11.882" gradientUnits="userSpaceOnUse"><stop stop-color="#fff"/><stop offset="1" stop-color="#fff" stop-opacity="0"/></linearGradient><linearGradient id="o_icon_hr_expense__b" x1="33" y1="19" x2="44.765" y2="21.941" gradientUnits="userSpaceOnUse"><stop stop-color="#fff"/><stop offset="1" stop-color="#fff" stop-opacity="0"/></linearGradient><linearGradient id="o_icon_hr_expense__c" x1="16" y1="31" x2="44.135" y2="47.232" gradientUnits="userSpaceOnUse"><stop stop-color="#fff"/><stop offset="1" stop-color="#fff" stop-opacity="0"/></linearGradient><linearGradient id="o_icon_hr_expense__d" x1="4" y1="31" x2="31.65" y2="46.42" gradientUnits="userSpaceOnUse"><stop stop-color="#fff"/><stop offset="1" stop-color="#fff" stop-opacity="0"/></linearGradient></defs></svg>
