<svg width="70" height="70" viewBox="0 0 70 70" fill="none" xmlns="http://www.w3.org/2000/svg">
<path d="M38 26C38 31.5228 33.5228 36 28 36C22.4772 36 18 31.5228 18 26C18 20.4772 22.4772 16 28 16C33.5228 16 38 20.4772 38 26Z" fill="#2EBCFA"/>
<path d="M53 34C53 36.7614 50.7614 39 48 39C45.2386 39 43 36.7614 43 34C43 31.2386 45.2386 29 48 29C50.7614 29 53 31.2386 53 34Z" fill="#144496"/>
<path d="M26 41H52C54.2091 41 56 42.7909 56 45V50C56 52.2091 54.2091 54 52 54H30C27.7909 54 26 52.2091 26 50V41Z" fill="#144496"/>
<path d="M14 41H30C37.1797 41 43 46.8203 43 54H27C19.8203 54 14 48.1797 14 41Z" fill="#2EBCFA"/>
<path d="M27.6167 32H28.4042V30.8618C30.5575 30.7299 32 29.668 32 27.9051V27.8913C32 26.3366 31.0035 25.5593 29.0383 25.129L28.4042 24.9971V22.9844C29.0941 23.0954 29.547 23.4772 29.6446 24.1226L29.6516 24.1365L31.8397 24.1296L31.8467 24.1226C31.77 22.4361 30.5087 21.3117 28.4042 21.166V20H27.6167V21.1591C25.5679 21.2562 24.0976 22.3112 24.0976 24.0463V24.0602C24.0976 25.6217 25.1289 26.4615 26.9895 26.871L27.6167 27.0029V29.0573C26.8014 28.9809 26.3275 28.6408 26.216 28.0301L26.2091 28.0162L24.0139 28.0231L24 28.0301C24.0557 29.8068 25.4913 30.7854 27.6167 30.8687V32ZM26.4321 23.8728V23.8589C26.4321 23.3592 26.8362 23.0399 27.6167 22.9705V24.8167C26.8084 24.6015 26.4321 24.3308 26.4321 23.8728ZM29.6655 28.155V28.1689C29.6655 28.7033 29.2125 28.9879 28.4042 29.0573V27.1764C29.3101 27.4054 29.6655 27.6414 29.6655 28.155Z" fill="white"/>
</svg>
