<svg width="20" height="18" viewBox="0 0 20 18" fill="none" xmlns="http://www.w3.org/2000/svg">
<path d="M1 0.75H19C19.2652 0.75 19.5196 0.846577 19.7071 1.01849C19.8946 1.19039 20 1.42355 20 1.66667V16.3333C20 16.5764 19.8946 16.8096 19.7071 16.9815C19.5196 17.1534 19.2652 17.25 19 17.25H1C0.734784 17.25 0.48043 17.1534 0.292893 16.9815C0.105357 16.8096 0 16.5764 0 16.3333V1.66667C0 1.42355 0.105357 1.19039 0.292893 1.01849C0.48043 0.846577 0.734784 0.75 1 0.75ZM18 4.63483L10.072 11.1432L2 4.61467V15.4167H18V4.63483ZM2.511 2.58333L10.061 8.69017L17.502 2.58333H2.511Z" fill="#7F54B3"/>
</svg>
