<svg width="50" height="50" viewBox="0 0 50 50" xmlns="http://www.w3.org/2000/svg"><path d="M45.73 21.466c.29-.498.338-1.067.184-1.575L25 25.87l12.836 19.765c.462-.327.787-.85.833-1.472v-.006l.86-12.055.217-.371.015-.027 5.968-10.24Z" fill="#FBB945"/><path d="m24.418 42.67.015-.005.567-.174 11.126 3.426a1.97 1.97 0 0 0 1.71-.28L25 25.87 12.164 45.636a1.97 1.97 0 0 0 1.726.276l10.527-3.242Z" fill="#985184"/><path d="M4.086 19.89a1.977 1.977 0 0 0 .175 1.56l6.21 10.653.03.436.003.024.827 11.595c.045.625.37 1.15.833 1.478L25 25.871l-20.914-5.98Z" fill="#712258"/><path d="M25 4v21.87L4.087 19.89c.152-.5.5-.941 1.006-1.196l10.568-5.288 7.874-8.756c.393-.433.93-.65 1.467-.65Z" fill="#FBB945"/><path d="M25 4v21.87l20.914-5.98a1.975 1.975 0 0 0-1.01-1.197l-10.228-5.119-.015-.008-.32-.16-.242-.268-.01-.011-7.616-8.47A1.973 1.973 0 0 0 25 4Z" fill="#F78613"/></svg>
