<svg width="700" height="2678" viewBox="0 0 700 2678" fill="none" xmlns="http://www.w3.org/2000/svg" data-vsvg="002" class="theme_nano_svg_preview">
    <defs>
        <pattern id="theme_nano_s_reference_demo_image_5_id" width="1" height="1" patternunits="objectBoundingBox">
            <image href="/web/image/website.s_reference_demo_image_5" width="90" height="33" preserveAspectRatio="xMidYMid meet"></image>
        </pattern>
        <pattern id="theme_nano_s_reference_demo_image_4_id" width="1" height="1" patternunits="objectBoundingBox">
            <image href="/web/image/website.s_reference_demo_image_4" width="90" height="33" preserveAspectRatio="xMidYMid meet"></image>
        </pattern>
        <pattern id="theme_nano_s_reference_demo_image_3_id" width="1" height="1" patternunits="objectBoundingBox">
            <image href="/web/image/website.s_reference_demo_image_3" width="90" height="33" preserveAspectRatio="xMidYMid meet"></image>
        </pattern>
        <pattern id="theme_nano_s_reference_demo_image_2_id" width="1" height="1" patternunits="objectBoundingBox">
            <image href="/web/image/website.s_reference_demo_image_2" width="90" height="33" preserveAspectRatio="xMidYMid meet"></image>
        </pattern>
        <pattern id="theme_nano_s_reference_demo_image_1_id" width="1" height="1" patternunits="objectBoundingBox">
            <image href="/web/image/website.s_reference_demo_image_1" width="90" height="33" preserveAspectRatio="xMidYMid meet"></image>
        </pattern>
        <pattern id="theme_nano_s_key_images_default_image_4_id" width="1" height="1" patternunits="objectBoundingBox">
            <image href="#s_text_image_default_image_url" width="278" height="208" preserveAspectRatio="xMidYMid slice"></image>
        </pattern>
        <pattern id="theme_nano_s_key_images_default_image_3_id" width="1" height="1" patternunits="objectBoundingBox">
            <image href="#s_media_list_default_image_2_url" width="278" height="208" preserveAspectRatio="xMidYMid slice"></image>
        </pattern>
        <pattern id="theme_nano_s_key_images_default_image_2_id" width="1" height="1" patternunits="objectBoundingBox">
            <image href="#s_image_text_default_image_url" width="278" height="208" preserveAspectRatio="xMidYMid slice"></image>
        </pattern>
        <pattern id="theme_nano_s_key_images_default_image_1_id" width="1" height="1" patternunits="objectBoundingBox">
            <image href="#s_media_list_default_image_1_url" width="278" height="208" preserveAspectRatio="xMidYMid slice"></image>
        </pattern>
        <pattern id="theme_nano_s_parallax_default_image_id" width="1" height="1" patternunits="objectBoundingBox">
            <image href="#s_parallax_default_image_url" width="701" height="290" preserveAspectRatio="xMidYMid slice"></image>
        </pattern>
        <pattern id="theme_nano_s_picture_default_image_id" width="1" height="1" patternunits="objectBoundingBox">
            <image href="#s_picture_default_image_url" width="332" height="239" preserveAspectRatio="xMidYMid slice"></image>
        </pattern>
        <pattern id="theme_nano_s_company_team_image_4_id" width="1" height="1" patternunits="objectBoundingBox">
            <image href="/web/image/website.s_company_team_image_4" width="132" height="132" preserveAspectRatio="xMidYMid slice"></image>
        </pattern>
        <pattern id="theme_nano_s_company_team_image_3_id" width="1" height="1" patternunits="objectBoundingBox">
            <image href="/web/image/website.s_company_team_image_3" width="132" height="132" preserveAspectRatio="xMidYMid slice"></image>
        </pattern>
        <pattern id="theme_nano_s_company_team_image_2_id" width="1" height="1" patternunits="objectBoundingBox">
            <image href="/web/image/website.s_company_team_image_2" width="132" height="132" preserveAspectRatio="xMidYMid slice"></image>
        </pattern>
        <pattern id="theme_nano_s_company_team_image_1_id" width="1" height="1" patternunits="objectBoundingBox">
            <image href="/web/image/website.s_company_team_image_1" width="132" height="132" preserveAspectRatio="xMidYMid slice"></image>
        </pattern>
        <filter id="filter_readability_theme_nano">
            <feColorMatrix in="SourceGraphic" type="saturate" values="0"></feColorMatrix>
            <feComponentTransfer>
                <feFuncR type="table" tableValues="1 0"></feFuncR>
                <feFuncG type="table" tableValues="1 0"></feFuncG>
                <feFuncB type="table" tableValues="1 0"></feFuncB>
            </feComponentTransfer>
            <feComponentTransfer>
                <feFuncR type="linear" slope="10000" intercept="-4999.5"></feFuncR>
                <feFuncG type="linear" slope="10000" intercept="-4999.5"></feFuncG>
                <feFuncB type="linear" slope="10000" intercept="-4999.5"></feFuncB>
            </feComponentTransfer>
        </filter>
    </defs>
    <rect width="700" height="2678" fill="#ACACAC"></rect>
    <g class="svgc_footer">
        <path d="M700 2578H0V2678H700V2578Z" fill="#FOOTER_COLOR" class="svgc_footer_bg"></path>
        <path d="M355 2644H222V2646H355V2644Z" fill="#FOOTER_COLOR" class="svgc_invert" filter="url(#filter_readability_theme_nano)"></path>
        <path d="M317 2638H222V2640H317V2638Z" fill="#FOOTER_COLOR" class="svgc_invert" filter="url(#filter_readability_theme_nano)"></path>
        <path d="M468 2607H223V2609H468V2607Z" fill="#FOOTER_COLOR" fill-opacity="0.4" class="svgc_invert" filter="url(#filter_readability_theme_nano)"></path>
        <path d="M434 2613H223V2615H434V2613Z" fill="#FOOTER_COLOR" fill-opacity="0.4" class="svgc_invert" filter="url(#filter_readability_theme_nano)"></path>
        <path d="M108 2639H70V2641H108V2639Z" fill="#FOOTER_COLOR" class="svgc_invert" filter="url(#filter_readability_theme_nano)"></path>
        <path d="M115 2645H70V2647H115V2645Z" fill="#FOOTER_COLOR" class="svgc_invert" filter="url(#filter_readability_theme_nano)"></path>
        <path d="M623 2645C626.866 2645 630 2641.87 630 2638C630 2634.13 626.866 2631 623 2631C619.134 2631 616 2634.13 616 2638C616 2641.87 619.134 2645 623 2645Z" fill="#FOOTER_COLOR" class="svgc_invert" filter="url(#filter_readability_theme_nano)"></path>
        <path d="M604 2645C607.866 2645 611 2641.87 611 2638C611 2634.13 607.866 2631 604 2631C600.134 2631 597 2634.13 597 2638C597 2641.87 600.134 2645 604 2645Z" fill="#FOOTER_COLOR" class="svgc_invert" filter="url(#filter_readability_theme_nano)"></path>
        <path d="M585 2645C588.866 2645 592 2641.87 592 2638C592 2634.13 588.866 2631 585 2631C581.134 2631 578 2634.13 578 2638C578 2641.87 581.134 2645 585 2645Z" fill="#FOOTER_COLOR" class="svgc_invert" filter="url(#filter_readability_theme_nano)"></path>
        <path d="M139.596 2601H70.3003V2611H139.596V2601Z" fill="#FOOTER_COLOR" class="svgc_invert" filter="url(#filter_readability_theme_nano)"></path>
        <path d="M160.686 2614H70.3003V2624H160.686V2614Z" fill="#FOOTER_COLOR" class="svgc_invert" filter="url(#filter_readability_theme_nano)"></path>
    </g>
    <g clip-path="url(#clip0_387_2)" class="theme_nano">
        <rect width="700" height="2678" fill="#FFFFFF"></rect>
        <g class="s_cta_box">
            <rect y="2394" width="700" height="184" fill="#383E45"></rect>
            <rect x="66" y="2416" width="568" height="138" rx="3" fill="#3AADAA"></rect>
            <rect x="275" y="2474" width="150" height="2" fill="#3AADAA" fill-opacity="0.4" class="svgc_invert" filter="url(#filter_readability_theme_nano)"></rect>
            <rect x="306" y="2497" width="89" height="28" rx="14" fill="#7C6576"></rect>
            <rect x="245" y="2454" width="210" height="5" fill="#3AADAA" class="svgc_invert" filter="url(#filter_readability_theme_nano)"></rect>
        </g>
        <g class="s_numbers">
            <rect y="2250" width="700" height="144" fill="#383E45"></rect>
            <rect x="117" y="2314" width="72" height="2" fill="#383E45" fill-opacity="0.4" class="svgc_invert" filter="url(#filter_readability_theme_nano)"></rect>
            <rect x="305" y="2314" width="90" height="2" fill="#383E45" fill-opacity="0.4" class="svgc_invert" filter="url(#filter_readability_theme_nano)"></rect>
            <rect x="522" y="2314" width="48" height="2" fill="#383E45" fill-opacity="0.4" class="svgc_invert" filter="url(#filter_readability_theme_nano)"></rect>
            <text fill="#383E45" xml:space="preserve" style="white-space: pre" font-family="Arial" font-size="18" font-weight="bold" letter-spacing="0em" class="svgc_invert" filter="url(#filter_readability_theme_nano)">
                <tspan x="138" y="2295.74">KPI</tspan>
            </text>
            <text fill="#383E45" xml:space="preserve" style="white-space: pre" font-family="Arial" font-size="18" font-weight="bold" letter-spacing="0em" class="svgc_invert" filter="url(#filter_readability_theme_nano)">
                <tspan x="334" y="2295.74">KPI</tspan>
            </text>
            <text fill="#383E45" xml:space="preserve" style="white-space: pre" font-family="Arial" font-size="18" font-weight="bold" letter-spacing="0em" class="svgc_invert" filter="url(#filter_readability_theme_nano)">
                <tspan x="530" y="2295.74">KPI</tspan>
            </text>
        </g>
        <g class="s_references">
            <rect y="2078" width="700" height="172" fill="#383E45"></rect>
            <text fill="#383E45" xml:space="preserve" style="white-space: pre" font-family="Arial" font-size="18" font-weight="bold" letter-spacing="0em" class="svgc_invert" filter="url(#filter_readability_theme_nano)">
                <tspan x="299" y="2108.74">Section title</tspan>
            </text>
            <rect x="499" y="2127" width="90" height="33" fill="url(#theme_nano_s_reference_demo_image_5_id)" class="img_reference_s_reference_demo_image_5"></rect>
            <rect x="402" y="2127" width="90" height="33" fill="url(#theme_nano_s_reference_demo_image_4_id)" class="img_reference_s_reference_demo_image_4"></rect>
            <rect x="305" y="2127" width="90" height="33" fill="url(#theme_nano_s_reference_demo_image_3_id)" class="img_reference_s_reference_demo_image_3"></rect>
            <rect x="208" y="2127" width="90" height="33" fill="url(#theme_nano_s_reference_demo_image_2_id)" class="img_reference_s_reference_demo_image_2"></rect>
            <rect x="111" y="2127" width="90" height="33" fill="url(#theme_nano_s_reference_demo_image_1_id)" class="img_reference_s_reference_demo_image_1"></rect>
        </g>
        <g>
            <rect y="556" width="700" height="219" fill="#383E45"></rect>
            <rect x="66" y="593" width="50" height="2" fill="#383E45" fill-opacity="0.4" class="svgc_invert" filter="url(#filter_readability_theme_nano)"></rect>
            <rect x="66" y="617" width="562" height="5" fill="#383E45" class="svgc_invert" filter="url(#filter_readability_theme_nano)"></rect>
            <rect x="66" y="644" width="530" height="5" fill="#383E45" class="svgc_invert" filter="url(#filter_readability_theme_nano)"></rect>
            <rect x="66" y="671" width="526" height="5" fill="#383E45" class="svgc_invert" filter="url(#filter_readability_theme_nano)"></rect>
            <rect x="66" y="698" width="110" height="5" fill="#383E45" class="svgc_invert" filter="url(#filter_readability_theme_nano)"></rect>
        </g>
        <rect y="1744" width="700" height="334" fill="#383E45"></rect>
        <g class="s_company_team_basic">
            <g>
                <rect x="502" y="1878" width="132" height="132" rx="3" fill="url(#theme_nano_s_company_team_image_4_id)" class="img_reference_s_company_team_image_4"></rect>
                <rect x="552.5" y="2022" width="31" height="2" fill="#383E45" fill-opacity="0.4" class="svgc_invert" filter="url(#filter_readability_theme_nano)"></rect>
                <rect x="541.5" y="2036" width="53" height="2" fill="#383E45" fill-opacity="0.4" class="svgc_invert" filter="url(#filter_readability_theme_nano)"></rect>
            </g>
            <g>
                <rect x="357" y="1878" width="132" height="132" rx="3" fill="url(#theme_nano_s_company_team_image_3_id)" class="img_reference_s_company_team_image_3"></rect>
                <rect x="404.5" y="2022" width="37" height="2" fill="#383E45" fill-opacity="0.4" class="svgc_invert" filter="url(#filter_readability_theme_nano)"></rect>
                <rect x="398.5" y="2036" width="49" height="2" fill="#383E45" fill-opacity="0.4" class="svgc_invert" filter="url(#filter_readability_theme_nano)"></rect>
            </g>
            <g>
                <rect x="212" y="1878" width="132" height="132" rx="3" fill="url(#theme_nano_s_company_team_image_2_id)" class="img_reference_s_company_team_image_2"></rect>
                <rect x="259.5" y="2022" width="37" height="2" fill="#383E45" fill-opacity="0.4" class="svgc_invert" filter="url(#filter_readability_theme_nano)"></rect>
                <rect x="252" y="2036" width="52" height="2" fill="#383E45" fill-opacity="0.4" class="svgc_invert" filter="url(#filter_readability_theme_nano)"></rect>
            </g>
            <g>
                <rect x="67" y="1878" width="132" height="132" rx="3" fill="url(#theme_nano_s_company_team_image_1_id)" class="img_reference_s_company_team_image_1"></rect>
                <rect x="118" y="2022" width="30" height="2" fill="#383E45" fill-opacity="0.4" class="svgc_invert" filter="url(#filter_readability_theme_nano)"></rect>
                <rect x="108" y="2036" width="50" height="2" fill="#383E45" fill-opacity="0.4" class="svgc_invert" filter="url(#filter_readability_theme_nano)"></rect>
            </g>
            <rect x="233" y="1849" width="234" height="2" fill="#383E45" fill-opacity="0.4" class="svgc_invert" filter="url(#filter_readability_theme_nano)"></rect>
            <text fill="#383E45" xml:space="preserve" style="white-space: pre" font-family="Arial" font-size="18" font-weight="bold" letter-spacing="0em" class="svgc_invert" filter="url(#filter_readability_theme_nano)">
                <tspan x="299" y="1835.74">Section title</tspan>
            </text>
        </g>
        <g class="s_key_images">
            <rect y="775" width="700" height="658" fill="#383E45"></rect>
            <rect x="245" y="839" width="211" height="2" fill="#383E45" fill-opacity="0.4" class="svgc_invert" filter="url(#filter_readability_theme_nano)"></rect>
            <text fill="#383E45" xml:space="preserve" style="white-space: pre" font-family="Arial" font-size="18" font-weight="bold" letter-spacing="0em" class="svgc_invert" filter="url(#filter_readability_theme_nano)">
                <tspan x="299" y="825.74">Section title</tspan>
            </text>
            <g>
                <rect x="356" y="1379" width="16" height="2" fill="#383E45" fill-opacity="0.4" class="svgc_invert" filter="url(#filter_readability_theme_nano)"></rect>
                <rect x="356" y="1137" width="278" height="208" rx="3" fill="url(#theme_nano_s_key_images_default_image_4_id)" class="img_reference_s_key_images_default_image_4"></rect>
                <rect x="356" y="1361" width="111" height="5" fill="#383E45" class="svgc_invert" filter="url(#filter_readability_theme_nano)"></rect>
            </g>
            <g>
                <rect x="66" y="1379" width="16" height="2" fill="#383E45" fill-opacity="0.4" class="svgc_invert" filter="url(#filter_readability_theme_nano)"></rect>
                <rect x="66" y="1137" width="278" height="208" rx="3" fill="url(#theme_nano_s_key_images_default_image_3_id)" class="img_reference_s_key_images_default_image_3"></rect>
                <rect x="66" y="1361" width="111" height="5" fill="#383E45" class="svgc_invert" filter="url(#filter_readability_theme_nano)"></rect>
            </g>
            <g>
                <rect x="356" y="1105" width="16" height="2" fill="#383E45" fill-opacity="0.4" class="svgc_invert" filter="url(#filter_readability_theme_nano)"></rect>
                <rect x="356" y="866" width="278" height="208" rx="3" fill="url(#theme_nano_s_key_images_default_image_2_id)" class="img_reference_s_key_images_default_image_2"></rect>
                <rect x="356" y="1087" width="111" height="5" fill="#383E45" class="svgc_invert" filter="url(#filter_readability_theme_nano)"></rect>
            </g>
            <g>
                <rect x="66" y="1105" width="16" height="2" fill="#383E45" fill-opacity="0.4" class="svgc_invert" filter="url(#filter_readability_theme_nano)"></rect>
                <rect x="66" y="866" width="278" height="208" rx="3" fill="url(#theme_nano_s_key_images_default_image_1_id)" class="img_reference_s_key_images_default_image_1"></rect>
                <rect x="66" y="1087" width="111" height="5" fill="#383E45" class="svgc_invert" filter="url(#filter_readability_theme_nano)"></rect>
            </g>
        </g>
        <g class="s_parallax">
            <rect x="-1" y="266" width="701" height="290" fill="url(#theme_nano_s_parallax_default_image_id)" class="img_reference_s_parallax_default_image"></rect>
        </g>
        <g class="s_discovery">
            <rect x="-1" y="40" width="701" height="226" fill="#383E45"></rect>
            <text fill="#383E45" xml:space="preserve" style="white-space: pre" font-family="Assistant" font-size="24" font-weight="bold" letter-spacing="0em" class="svgc_invert" filter="url(#filter_readability_theme_nano)">
                <tspan x="254" y="144.308">Welcome message</tspan>
            </text>
            <rect x="183" y="159" width="335" height="2" fill="#383E45" fill-opacity="0.4" class="svgc_invert" filter="url(#filter_readability_theme_nano)"></rect>
            <rect x="210" y="171" width="281" height="2" fill="#383E45" fill-opacity="0.4" class="svgc_invert" filter="url(#filter_readability_theme_nano)"></rect>
            <rect x="312" y="185" width="77" height="26" rx="13" fill="#3AADAA"></rect>
        </g>
        <g class="svgc_menu">
            <rect width="700" height="40" fill="#MENU_COLOR" class="svgc_menu_bg"></rect>
            <path d="M74.3992 24.826V22.621H68.7742V12.1742H66V24.826H74.3992ZM81.4362 25C82.594 25 83.636 24.7448 84.5637 24.236C85.4944 23.7286 86.2282 22.9892 86.7695 22.0208C87.3108 21.0538 87.58 19.8795 87.58 18.4994C87.58 17.1207 87.3093 15.9464 86.768 14.978C86.2282 14.011 85.4944 13.2731 84.5652 12.7643C83.636 12.2554 82.5925 12.0003 81.4347 12.0003C80.2694 12.0003 79.2228 12.2554 78.2951 12.7643C77.3689 13.2717 76.6351 14.011 76.0983 14.978C75.56 15.9464 75.2909 17.1207 75.2909 18.5008C75.2909 19.8752 75.56 21.0466 76.0983 22.015C76.5948 22.9422 77.3574 23.7121 78.2951 24.2331C79.2228 24.7434 80.2694 24.9985 81.4347 24.9985L81.4362 25ZM81.4362 22.6326C80.8148 22.6459 80.2033 22.4803 79.6799 22.1571C79.1792 21.8396 78.7928 21.3742 78.5161 20.761C78.241 20.1477 78.1026 19.3939 78.1026 18.4994C78.1026 17.6064 78.241 16.8525 78.5161 16.2378C78.7913 15.6246 79.1792 15.1592 79.6799 14.8432C80.2027 14.5198 80.8137 14.3542 81.4347 14.3677C82.1053 14.3677 82.6902 14.5257 83.1909 14.8432C83.6901 15.1592 84.078 15.626 84.3532 16.2393C84.6299 16.8525 84.7667 17.6064 84.7667 18.5008C84.7667 19.3939 84.6299 20.1477 84.3532 20.761C84.078 21.3742 83.6916 21.8396 83.1909 22.1571C82.6677 22.4807 82.0576 22.6463 81.4362 22.6326ZM95.3853 24.9985C96.4874 24.9985 97.4663 24.784 98.3203 24.3534C99.1592 23.9371 99.8573 23.2983 100.332 22.5123C100.819 21.7149 101.063 20.761 101.063 19.649V18.0543H95.5717V20.0695H98.3865L98.3805 20.2521C98.3549 20.5957 98.2752 20.9074 98.1444 21.1872L98.0346 21.3902C97.7953 21.7878 97.4382 22.1073 97.0092 22.3078C96.5641 22.5253 96.0258 22.6326 95.3988 22.6326C94.7071 22.6326 94.1057 22.4717 93.5975 22.1484C93.0892 21.8251 92.6953 21.3539 92.4186 20.7363C92.142 20.1188 92.0021 19.3692 92.0021 18.4878C92.0021 17.6064 92.1435 16.8598 92.4246 16.248C92.7073 15.6362 93.1013 15.1694 93.608 14.849C94.1335 14.5225 94.7482 14.3549 95.3732 14.3677C95.7311 14.3677 96.0589 14.4112 96.3566 14.4967C96.6528 14.5837 96.9174 14.7084 97.1505 14.8707C97.3836 15.0331 97.5806 15.2303 97.7429 15.4637C97.9053 15.6956 98.0316 15.9624 98.1219 16.2639H100.941C100.858 15.6571 100.651 15.0722 100.332 14.5431C100.018 14.0225 99.6035 13.5644 99.1112 13.1934C98.5994 12.8072 98.0219 12.5095 97.4046 12.3134C96.7348 12.1005 96.0334 11.9947 95.3281 12.0003C94.5006 11.993 93.6797 12.1422 92.9118 12.4395C92.174 12.7281 91.5079 13.1639 90.9571 13.7182C90.3797 14.3063 89.9357 15.0039 89.6535 15.7667C89.3437 16.5713 89.1888 17.486 89.1888 18.5124C89.1888 19.8462 89.449 20.9987 89.9677 21.9686C90.4526 22.9034 91.2084 23.6825 92.1435 24.2113C93.0757 24.7361 94.1553 24.9985 95.3853 24.9985ZM108.855 24.9985C110.012 24.9985 111.055 24.7448 111.984 24.236C112.913 23.7286 113.648 22.9892 114.188 22.0208C114.729 21.0538 115 19.8795 115 18.4994C115 17.1207 114.729 15.9464 114.188 14.978C113.647 14.011 112.913 13.2731 111.984 12.7643C111.055 12.2554 110.012 12.0003 108.855 12.0003C107.688 12.0003 106.641 12.2554 105.715 12.7643C104.787 13.2717 104.055 14.011 103.517 14.978C102.979 15.9464 102.709 17.1207 102.709 18.5008C102.709 19.8752 102.979 21.0466 103.517 22.015C104.055 22.9834 104.787 23.7228 105.715 24.2331C106.641 24.7434 107.688 24.9985 108.855 24.9985ZM108.855 22.6326C108.184 22.6326 107.598 22.4731 107.098 22.1571C106.599 21.8396 106.211 21.3742 105.936 20.761C105.66 20.1477 105.523 19.3939 105.523 18.4994C105.523 17.6064 105.66 16.8525 105.936 16.2378C106.211 15.6246 106.598 15.1592 107.098 14.8432C107.622 14.5195 108.233 14.3539 108.855 14.3677C109.525 14.3677 110.11 14.5257 110.609 14.8432C111.11 15.1592 111.497 15.626 111.773 16.2393C112.048 16.8525 112.187 17.6064 112.187 18.5008C112.187 19.3939 112.048 20.1477 111.773 20.761C111.497 21.3742 111.11 21.8396 110.609 22.1571C110.087 22.4804 109.476 22.646 108.855 22.6326Z" fill="#MENU_COLOR" class="svgc_invert" filter="url(#filter_readability_theme_nano)"></path>
            <rect x="207" y="14" width="44" height="12" fill="#MENU_COLOR" fill-opacity="0.4" class="svgc_invert" filter="url(#filter_readability_theme_nano)"></rect>
            <rect x="155" y="14" width="44" height="12" fill="#MENU_COLOR" fill-opacity="0.4" class="svgc_invert" filter="url(#filter_readability_theme_nano)"></rect>
            <rect x="259" y="14" width="44" height="12" fill="#MENU_COLOR" fill-opacity="0.4" class="svgc_invert" filter="url(#filter_readability_theme_nano)"></rect>
            <rect x="310" y="14" width="44" height="12" fill="#MENU_COLOR" fill-opacity="0.4" class="svgc_invert" filter="url(#filter_readability_theme_nano)"></rect>
            <rect x="362" y="14" width="44" height="12" fill="#MENU_COLOR" fill-opacity="0.4" class="svgc_invert" filter="url(#filter_readability_theme_nano)"></rect>
            <rect x="555" y="14" width="79" height="12" fill="#MENU_COLOR" class="svgc_invert" filter="url(#filter_readability_theme_nano)"></rect>
        </g>
        <g>
            <path d="M700 2578H0V2678H700V2578Z" fill="#383E45"></path>
            <path d="M630 2626H578V2628H630V2626Z" fill="#383E45" class="svgc_invert" filter="url(#filter_readability_theme_nano)"></path>
            <path d="M615 2620H578V2622H615V2620Z" fill="#383E45" class="svgc_invert" filter="url(#filter_readability_theme_nano)"></path>
            <path d="M234 2624H70V2626H234V2624Z" fill="#383E45" fill-opacity="0.4" class="svgc_invert" filter="url(#filter_readability_theme_nano)"></path>
            <path d="M234 2630H70V2632H234V2630Z" fill="#383E45" fill-opacity="0.4" class="svgc_invert" filter="url(#filter_readability_theme_nano)"></path>
            <path d="M234 2636H70V2638H234V2636Z" fill="#383E45" fill-opacity="0.4" class="svgc_invert" filter="url(#filter_readability_theme_nano)"></path>
            <path d="M234 2642H70V2644H234V2642Z" fill="#383E45" fill-opacity="0.4" class="svgc_invert" filter="url(#filter_readability_theme_nano)"></path>
            <path d="M234 2648H70V2650H234V2648Z" fill="#383E45" fill-opacity="0.4" class="svgc_invert" filter="url(#filter_readability_theme_nano)"></path>
            <path d="M327 2624H280V2626H327V2624Z" fill="#383E45" fill-opacity="0.4" class="svgc_invert" filter="url(#filter_readability_theme_nano)"></path>
            <path d="M375 2630H280V2632H375V2630Z" fill="#383E45" fill-opacity="0.4" class="svgc_invert" filter="url(#filter_readability_theme_nano)"></path>
            <path d="M388 2636H280V2638H388V2636Z" fill="#383E45" fill-opacity="0.4" class="svgc_invert" filter="url(#filter_readability_theme_nano)"></path>
            <path d="M415 2642H280V2644H415V2642Z" fill="#383E45" fill-opacity="0.4" class="svgc_invert" filter="url(#filter_readability_theme_nano)"></path>
            <path d="M388 2648H280V2650H388V2648Z" fill="#383E45" fill-opacity="0.4" class="svgc_invert" filter="url(#filter_readability_theme_nano)"></path>
            <path d="M623 2649C626.866 2649 630 2645.87 630 2642C630 2638.13 626.866 2635 623 2635C619.134 2635 616 2638.13 616 2642C616 2645.87 619.134 2649 623 2649Z" fill="#383E45" class="svgc_invert" filter="url(#filter_readability_theme_nano)"></path>
            <path d="M604 2649C607.866 2649 611 2645.87 611 2642C611 2638.13 607.866 2635 604 2635C600.134 2635 597 2638.13 597 2642C597 2645.87 600.134 2649 604 2649Z" fill="#383E45" class="svgc_invert" filter="url(#filter_readability_theme_nano)"></path>
            <path d="M585 2649C588.866 2649 592 2645.87 592 2642C592 2638.13 588.866 2635 585 2635C581.134 2635 578 2638.13 578 2642C578 2645.87 581.134 2649 585 2649Z" fill="#383E45" class="svgc_invert" filter="url(#filter_readability_theme_nano)"></path>
            <path d="M139 2601H70V2611H139V2601Z" fill="#383E45" class="svgc_invert" filter="url(#filter_readability_theme_nano)"></path>
        </g>
        <g class="s_image_text_overlap">
            <rect y="1433" width="700" height="325" fill="#383E45"></rect>
            <rect x="66" y="1476" width="332" height="239" rx="4" fill="url(#theme_nano_s_picture_default_image_id)" class="img_reference_s_picture_default_image"></rect>
            <g>
                <rect x="330" y="1499" width="300" height="193.617" fill="#3AADAA"></rect>
                <path d="M603 1547H357V1553H603V1547Z" fill="#3AADAA" class="svgc_invert" filter="url(#filter_readability_theme_nano)"></path>
                <path d="M568 1570H357V1575.76H568V1570Z" fill="#3AADAA" class="svgc_invert" filter="url(#filter_readability_theme_nano)"></path>
                <path d="M579 1592.76H357V1598.76H579V1592.76Z" fill="#3AADAA" class="svgc_invert" filter="url(#filter_readability_theme_nano)"></path>
                <path d="M590 1615.76H357V1621.76H590V1615.76Z" fill="#3AADAA" class="svgc_invert" filter="url(#filter_readability_theme_nano)"></path>
                <path d="M568 1638.76H357V1644.52H568V1638.76Z" fill="#3AADAA" class="svgc_invert" filter="url(#filter_readability_theme_nano)"></path>
            </g>
        </g>
        <g>
            <rect x="316" y="100" width="68" height="12" rx="6" fill="#FFFFFF"></rect>
            <rect x="330" y="105" width="49" height="2" fill="black" fill-opacity="0.4"></rect>
            <circle cx="322" cy="106" r="3" fill="black" fill-opacity="0.4"></circle>
        </g>
    </g>
    <defs>
        <clipPath id="clip0_387_2">
            <rect width="700" height="2678" fill="#FFFFFF"></rect>
        </clipPath>
    </defs>
</svg>
