<svg width="50" height="50" viewBox="0 0 50 50" xmlns="http://www.w3.org/2000/svg"><path d="M29.319 6.862c3.816-3.816 10.003-3.816 13.819 0 3.816 3.816 3.816 10.003 0 13.82L20.68 43.137c-3.816 3.816-10.003 3.816-13.819 0-3.816-3.816-3.816-10.003 0-13.82L29.32 6.863Z" fill="#FC868B"/><path d="M43.138 29.319c3.816 3.816 3.816 10.003 0 13.819-3.816 3.816-10.003 3.816-13.82 0L6.863 20.68c-3.816-3.816-3.816-10.003 0-13.819 3.816-3.816 10.003-3.816 13.82 0L43.138 29.32Z" fill="#1AD3BB"/><path d="M24.999 11.18 11.179 25 25 38.82 38.82 25 25 11.18Z" fill="#1A6F66"/></svg>
