<svg id="Layer_1" data-name="Layer 1" xmlns="http://www.w3.org/2000/svg" xmlns:xlink="http://www.w3.org/1999/xlink" viewBox="0 0 70 70">
  <defs>
    <mask id="mask" x="0" y="0" width="70" height="70" maskUnits="userSpaceOnUse">
      <g id="b">
        <path id="a" d="M4,0H65c4,0,5,1,5,5V65c0,4-1,5-5,5H4c-3,0-4-1-4-5V5C0,1,1,0,4,0Z" fill="#fff" fill-rule="evenodd"/>
      </g>
    </mask>
    <linearGradient id="linear-gradient" x1="-1261.07" y1="477.94" x2="-1262.07" y2="476.94" gradientTransform="matrix(70, 0, 0, -70, 88344.99, 33455.73)" gradientUnits="userSpaceOnUse">
      <stop offset="0" stop-color="#d5cc95"/>
      <stop offset="1" stop-color="#c1b66c"/>
    </linearGradient>
  </defs>
  <g mask="url(#mask)">
    <g>
      <path d="M0,0H70V70H0Z" fill-rule="evenodd" fill="url(#linear-gradient)"/>
      <path d="M4,1H65c2.67,0,4.33.67,5,2V0H0V3C.67,1.67,2,1,4,1Z" fill="#fff" fill-opacity="0.38" fill-rule="evenodd"/>
      <path d="M4,69a3.66,3.66,0,0,1-4-4V24.25L9.19,12H38.78a2.81,2.81,0,0,0-.2,2l4.7-3.55,2.19,4,2.35,2.35L59.61,8.44l3.07,4.34L60.35,26.23l2.33,2.64L62.12,56.5,53.24,69Z" fill="#494949" fill-rule="evenodd" opacity="0.32" style="isolation: isolate"/>
      <path d="M4,69H65c2.67,0,4.33-1,5-3v4H0V66A3.92,3.92,0,0,0,4,69Z" fill-opacity="0.38" fill-rule="evenodd"/>
      <g>
        <g opacity="0.4">
          <path d="M45.94,27.56H7.82a1.65,1.65,0,0,1-1.65-1.65V17.12a1.66,1.66,0,0,1,1.65-1.66h29a2.85,2.85,0,0,1,.2-2H7.82a3.67,3.67,0,0,0-3.65,3.66v8.79a3.66,3.66,0,0,0,3.65,3.65H45.94Z"/>
          <path d="M57.06,27.56H52.64v2h4.42a2.91,2.91,0,0,1,2.9,2.9V54.07A2.9,2.9,0,0,1,57.06,57H15.2a2.91,2.91,0,0,1-2.9-2.89V32.46a2.92,2.92,0,0,1,2.9-2.9H45.94v-2H15.2a4.91,4.91,0,0,0-4.9,4.9V54.07A4.9,4.9,0,0,0,15.2,59H57.06A4.9,4.9,0,0,0,62,54.07V32.46A4.91,4.91,0,0,0,57.06,27.56Z"/>
          <g>
            <path d="M13.21,19.08l-1.94,4.57a.6.6,0,0,1-.2.27.47.47,0,0,1-.28.09.46.46,0,0,1-.36-.14.48.48,0,0,1-.12-.33.55.55,0,0,1,0-.17L12.58,18a.62.62,0,0,1,.22-.28.47.47,0,0,1,.32-.08.53.53,0,0,1,.3.09.57.57,0,0,1,.21.27l2.21,5.27a.6.6,0,0,1,0,.22.53.53,0,0,1-.15.39.54.54,0,0,1-.35.14.43.43,0,0,1-.29-.1.6.6,0,0,1-.2-.27L13,19.13Zm-1.66,3.47.49-1h2.43l.17,1Z"/>
            <path d="M20.33,25.11a.57.57,0,0,1-.17.43.58.58,0,0,1-.44.17.57.57,0,0,1-.42-.17.61.61,0,0,1-.17-.43v-8a.59.59,0,0,1,.18-.44.58.58,0,0,1,.43-.18.55.55,0,0,1,.43.18.61.61,0,0,1,.16.44Z"/>
          </g>
          <g>
            <path d="M18.54,35.25l-1.95,4.57a.51.51,0,0,1-.19.26.44.44,0,0,1-.28.1.46.46,0,0,1-.36-.14.48.48,0,0,1-.12-.33.55.55,0,0,1,0-.17l2.24-5.38a.62.62,0,0,1,.22-.28.46.46,0,0,1,.32-.08.53.53,0,0,1,.3.09.55.55,0,0,1,.2.27l2.22,5.27a.6.6,0,0,1,0,.22.46.46,0,0,1-.16.38.48.48,0,0,1-.34.15.47.47,0,0,1-.3-.1.79.79,0,0,1-.2-.27L18.28,35.3Zm-1.67,3.47.5-1H19.8l.17,1Z"/>
            <path d="M24.79,33.83a1.8,1.8,0,0,1,1.29.41,1.59,1.59,0,0,1,.42,1.2,1.39,1.39,0,0,1-.2.74,1.34,1.34,0,0,1-.62.49,2.45,2.45,0,0,1-1,.18l0-.41a3.19,3.19,0,0,1,.64.08,2.41,2.41,0,0,1,.7.27,1.53,1.53,0,0,1,.78,1.43,2.12,2.12,0,0,1-.2,1,1.45,1.45,0,0,1-.51.58,1.9,1.9,0,0,1-.67.29,3.37,3.37,0,0,1-.69.07H22.52a.51.51,0,0,1-.54-.54V34.38a.56.56,0,0,1,.15-.39.57.57,0,0,1,.39-.16Zm-.16,1.07H23l.12-.15v1.63L23,36.3h1.62a.75.75,0,0,0,.47-.17.63.63,0,0,0,.2-.5.73.73,0,0,0-.19-.56A.72.72,0,0,0,24.63,34.9Zm.07,2.46H23.06l.09-.07v1.9l-.09-.09h1.71a.92.92,0,0,0,.65-.22.83.83,0,0,0,.25-.66.87.87,0,0,0-.17-.59.64.64,0,0,0-.38-.22A2.18,2.18,0,0,0,24.7,37.36Z"/>
            <path d="M18.54,47.25l-1.95,4.57a.51.51,0,0,1-.19.26.44.44,0,0,1-.28.1.46.46,0,0,1-.36-.14.48.48,0,0,1-.12-.33.55.55,0,0,1,0-.17l2.24-5.38a.62.62,0,0,1,.22-.28.46.46,0,0,1,.32-.08.53.53,0,0,1,.3.09.55.55,0,0,1,.2.27l2.22,5.27a.6.6,0,0,1,0,.22.46.46,0,0,1-.16.38.48.48,0,0,1-.34.15.47.47,0,0,1-.3-.1.79.79,0,0,1-.2-.27L18.28,47.3Zm-1.67,3.47.5-1H19.8l.17,1Z"/>
            <path d="M24.79,45.83a1.8,1.8,0,0,1,1.29.41,1.59,1.59,0,0,1,.42,1.2,1.39,1.39,0,0,1-.2.74,1.34,1.34,0,0,1-.62.49,2.45,2.45,0,0,1-1,.18l0-.41a3.19,3.19,0,0,1,.64.08,2.41,2.41,0,0,1,.7.27,1.53,1.53,0,0,1,.78,1.43,2.12,2.12,0,0,1-.2,1,1.45,1.45,0,0,1-.51.58,1.9,1.9,0,0,1-.67.29,3.37,3.37,0,0,1-.69.07H22.52a.51.51,0,0,1-.54-.54V46.38a.56.56,0,0,1,.15-.39.57.57,0,0,1,.39-.16Zm-.16,1.07H23l.12-.15v1.63L23,48.3h1.62a.75.75,0,0,0,.47-.17.63.63,0,0,0,.2-.5.73.73,0,0,0-.19-.56A.72.72,0,0,0,24.63,46.9Zm.07,2.46H23.06l.09-.07v1.9l-.09-.09h1.71a.92.92,0,0,0,.65-.22.83.83,0,0,0,.25-.66.87.87,0,0,0-.17-.59.64.64,0,0,0-.38-.22A2.18,2.18,0,0,0,24.7,49.36Z"/>
            <path d="M32.28,46.14a.45.45,0,0,1,.27.37.53.53,0,0,1-.13.46.37.37,0,0,1-.3.18.72.72,0,0,1-.37-.07,2.41,2.41,0,0,0-.45-.16,2.73,2.73,0,0,0-.5-.05,2.33,2.33,0,0,0-.87.15,1.78,1.78,0,0,0-.66.44,1.81,1.81,0,0,0-.4.67,2.33,2.33,0,0,0-.14.85,2.76,2.76,0,0,0,.15,1,1.86,1.86,0,0,0,.44.67A1.65,1.65,0,0,0,30,51a2.39,2.39,0,0,0,.82.13,2.59,2.59,0,0,0,.48,0,1.63,1.63,0,0,0,.47-.16.72.72,0,0,1,.37-.07.45.45,0,0,1,.31.19.53.53,0,0,1,.13.47.45.45,0,0,1-.27.34,3.26,3.26,0,0,1-.48.2,3,3,0,0,1-.5.11,2.92,2.92,0,0,1-.51,0,3.53,3.53,0,0,1-1.23-.2,3.2,3.2,0,0,1-1-.61,2.79,2.79,0,0,1-.71-1A3.41,3.41,0,0,1,27.56,49a3.3,3.3,0,0,1,.23-1.27,3.09,3.09,0,0,1,.68-1,3.14,3.14,0,0,1,1-.66,3.46,3.46,0,0,1,1.3-.24,3.27,3.27,0,0,1,1.48.35Z"/>
          </g>
          <path d="M41.09,21.31h3.14a4.62,4.62,0,0,1,.69-1.84l-2.53-2.53a2.93,2.93,0,0,1-.83.13,2.6,2.6,0,1,1,2.19-1.17l2.35,2.35a4.55,4.55,0,0,1,2.66-.85,4.63,4.63,0,0,1,3.11,1.2l3.46-3.46a3.16,3.16,0,0,1-.7-2A3.26,3.26,0,1,1,56.36,16l-3.47,4a4.49,4.49,0,0,1,.45,2,4.54,4.54,0,0,1-3.58,4.42V31a3.49,3.49,0,1,1-1.2,0V26.45a4.55,4.55,0,0,1-4.33-3.94H41.06a3.46,3.46,0,1,1,0-1.2Zm7.7,4.2a3.6,3.6,0,1,0-3.64-3.6A3.62,3.62,0,0,0,48.79,25.51Z" fill-rule="evenodd"/>
        </g>
        <g>
          <path d="M47.66,26.1H9.54a1.66,1.66,0,0,1-1.66-1.66V15.66A1.66,1.66,0,0,1,9.54,14h29v0a2.77,2.77,0,0,1,.2-2H9.54a3.66,3.66,0,0,0-3.66,3.66v8.78A3.66,3.66,0,0,0,9.54,28.1H47.66Z" fill="#fff"/>
          <path d="M58.78,26.1H54.36v2h4.42a2.9,2.9,0,0,1,2.9,2.9V52.6a2.9,2.9,0,0,1-2.9,2.9H16.92A2.9,2.9,0,0,1,14,52.6V31a2.9,2.9,0,0,1,2.9-2.9H47.66v-2H16.92A4.91,4.91,0,0,0,12,31V52.6a4.91,4.91,0,0,0,4.9,4.9H58.78a4.91,4.91,0,0,0,4.9-4.9V31A4.91,4.91,0,0,0,58.78,26.1Z" fill="#fff"/>
          <g>
            <path d="M14.93,17.61,13,22.19a.59.59,0,0,1-.2.26.47.47,0,0,1-.28.09.45.45,0,0,1-.36-.13.48.48,0,0,1-.12-.33.51.51,0,0,1,0-.17l2.24-5.39a.62.62,0,0,1,.22-.28.53.53,0,0,1,.32-.08.54.54,0,0,1,.3.1.52.52,0,0,1,.2.26l2.22,5.28a.59.59,0,0,1,0,.21.5.5,0,0,1-.15.39.51.51,0,0,1-.35.14.48.48,0,0,1-.29-.09.71.71,0,0,1-.21-.27l-1.93-4.51Zm-1.67,3.48.5-1h2.43l.17,1Z" fill="#fff"/>
            <path d="M22.05,23.64a.64.64,0,0,1-.17.44.62.62,0,0,1-.44.17.59.59,0,0,1-.42-.17.64.64,0,0,1-.17-.44v-8a.6.6,0,0,1,.18-.44.63.63,0,0,1,.86,0,.63.63,0,0,1,.16.44Z" fill="#fff"/>
          </g>
          <g>
            <path d="M20.26,33.78l-2,4.57a.49.49,0,0,1-.47.36.46.46,0,0,1-.37-.13.52.52,0,0,1-.11-.33,1,1,0,0,1,0-.17l2.25-5.39a.56.56,0,0,1,.22-.28.51.51,0,0,1,.32-.08.6.6,0,0,1,.3.1.52.52,0,0,1,.2.26L22.88,38a.63.63,0,0,1,.05.21.48.48,0,0,1-.16.39.47.47,0,0,1-.35.14.52.52,0,0,1-.29-.09.79.79,0,0,1-.2-.27L20,33.84Zm-1.67,3.48.5-1h2.43l.17,1Z" fill="#fff"/>
            <path d="M26.51,32.37a1.8,1.8,0,0,1,1.29.4,1.59,1.59,0,0,1,.42,1.2,1.31,1.31,0,0,1-.21.74,1.28,1.28,0,0,1-.61.5,2.46,2.46,0,0,1-1,.17l0-.4a2.66,2.66,0,0,1,.64.08,2.41,2.41,0,0,1,.7.27,1.5,1.5,0,0,1,.55.54,1.57,1.57,0,0,1,.22.88,2.09,2.09,0,0,1-.19,1,1.48,1.48,0,0,1-.51.59,1.88,1.88,0,0,1-.67.28,3.42,3.42,0,0,1-.7.08H24.24a.53.53,0,0,1-.39-.16.53.53,0,0,1-.16-.39v-5.2a.53.53,0,0,1,.16-.39.53.53,0,0,1,.39-.16Zm-.16,1.06h-1.6l.11-.14v1.63l-.1-.08h1.62a.67.67,0,0,0,.46-.18.58.58,0,0,0,.21-.49.7.7,0,0,0-.19-.56A.72.72,0,0,0,26.35,33.43Zm.07,2.47H24.78l.08-.07v1.89l-.09-.09h1.71a.92.92,0,0,0,.66-.22,1.07,1.07,0,0,0,.08-1.24.73.73,0,0,0-.38-.23A2.19,2.19,0,0,0,26.42,35.9Z" fill="#fff"/>
            <path d="M20.26,45.78l-2,4.57a.49.49,0,0,1-.47.36.46.46,0,0,1-.37-.13.52.52,0,0,1-.11-.33,1,1,0,0,1,0-.17l2.25-5.39a.56.56,0,0,1,.22-.28.51.51,0,0,1,.32-.08.6.6,0,0,1,.3.1.52.52,0,0,1,.2.26L22.88,50a.63.63,0,0,1,.05.21.48.48,0,0,1-.16.39.47.47,0,0,1-.35.14.52.52,0,0,1-.29-.09.79.79,0,0,1-.2-.27L20,45.84Zm-1.67,3.48.5-1h2.43l.17,1Z" fill="#fff"/>
            <path d="M26.51,44.37a1.8,1.8,0,0,1,1.29.4,1.59,1.59,0,0,1,.42,1.2,1.31,1.31,0,0,1-.21.74,1.28,1.28,0,0,1-.61.5,2.46,2.46,0,0,1-1,.17l0-.4a2.66,2.66,0,0,1,.64.08,2.41,2.41,0,0,1,.7.27,1.5,1.5,0,0,1,.55.54,1.57,1.57,0,0,1,.22.88,2.09,2.09,0,0,1-.19,1,1.48,1.48,0,0,1-.51.59,1.88,1.88,0,0,1-.67.28,3.42,3.42,0,0,1-.7.08H24.24a.53.53,0,0,1-.39-.16.53.53,0,0,1-.16-.39v-5.2a.53.53,0,0,1,.16-.39.53.53,0,0,1,.39-.16Zm-.16,1.06h-1.6l.11-.14v1.63l-.1-.08h1.62a.67.67,0,0,0,.46-.18.58.58,0,0,0,.21-.49.7.7,0,0,0-.19-.56A.72.72,0,0,0,26.35,45.43Zm.07,2.47H24.78l.08-.07v1.89l-.09-.09h1.71a.92.92,0,0,0,.66-.22,1.07,1.07,0,0,0,.08-1.24.73.73,0,0,0-.38-.23A2.19,2.19,0,0,0,26.42,47.9Z" fill="#fff"/>
            <path d="M34,44.68a.46.46,0,0,1,.27.36.52.52,0,0,1-.13.46.4.4,0,0,1-.3.18.62.62,0,0,1-.37-.07,2.47,2.47,0,0,0-.46-.15,2,2,0,0,0-.5-.06,2.41,2.41,0,0,0-.87.16A1.94,1.94,0,0,0,31,46a2.08,2.08,0,0,0-.41.67,2.63,2.63,0,0,0-.14.86,2.7,2.7,0,0,0,.16.95,1.9,1.9,0,0,0,.44.68,1.73,1.73,0,0,0,.65.4,2.47,2.47,0,0,0,.82.13,2.72,2.72,0,0,0,.49,0,1.63,1.63,0,0,0,.47-.16.61.61,0,0,1,.37-.06.47.47,0,0,1,.31.19.54.54,0,0,1,.13.46.46.46,0,0,1-.27.35,3.19,3.19,0,0,1-.48.19l-.5.12a3,3,0,0,1-.52,0,3.61,3.61,0,0,1-1.23-.21,3.16,3.16,0,0,1-1-.61,3,3,0,0,1-.72-1,3.65,3.65,0,0,1-.26-1.41,3.35,3.35,0,0,1,.24-1.28,3,3,0,0,1,.68-1,3,3,0,0,1,1-.67,3.4,3.4,0,0,1,1.29-.24,3.33,3.33,0,0,1,.78.09A2.89,2.89,0,0,1,34,44.68Z" fill="#fff"/>
          </g>
          <path d="M42.81,19.84H46A4.48,4.48,0,0,1,46.64,18l-2.53-2.54A2.58,2.58,0,1,1,45.9,13a2.52,2.52,0,0,1-.43,1.41l2.35,2.35a4.62,4.62,0,0,1,5.76.36l3.47-3.46a3.18,3.18,0,0,1-.7-2,3.26,3.26,0,1,1,1.73,2.85l-3.48,4a4.45,4.45,0,0,1,.46,2,4.54,4.54,0,0,1-3.58,4.42v4.64a3.49,3.49,0,1,1-1.2,0V25A4.56,4.56,0,0,1,46,21H42.78a3.46,3.46,0,1,1,0-1.2ZM50.5,24a3.6,3.6,0,1,0-3.63-3.6A3.62,3.62,0,0,0,50.5,24Z" fill="#fff" fill-rule="evenodd"/>
        </g>
      </g>
    </g>
  </g>
</svg>
