<svg id="Layer_1" data-name="Layer 1" xmlns="http://www.w3.org/2000/svg" xmlns:xlink="http://www.w3.org/1999/xlink" viewBox="0 0 70 70">
  <defs>
    <mask id="mask" x="-0.01" y="0" width="70.01" height="70" maskUnits="userSpaceOnUse">
      <g id="b">
        <path id="a" d="M4,0H65c4,0,5,1,5,5V65c0,4-1,5-5,5H4c-3,0-4-1-4-5V5C0,1,1,0,4,0Z" fill="#fff" fill-rule="evenodd"/>
      </g>
    </mask>
    <linearGradient id="linear-gradient" x1="-1261.07" y1="477.94" x2="-1262.07" y2="476.94" gradientTransform="matrix(70, 0, 0, -70, 88344.99, 33455.73)" gradientUnits="userSpaceOnUse">
      <stop offset="0" stop-color="#d5cc95"/>
      <stop offset="1" stop-color="#c1b66c"/>
    </linearGradient>
  </defs>
  <g mask="url(#mask)">
    <g>
      <path d="M0,0H70V70H0Z" fill-rule="evenodd" fill="url(#linear-gradient)"/>
      <path d="M4,1H65c2.67,0,4.33.67,5,2V0H0V3C.67,1.67,2,1,4,1Z" fill="#fff" fill-opacity="0.38" fill-rule="evenodd"/>
      <path d="M4,69a3.66,3.66,0,0,1-4-4v-45L7.07,13l31.7-1a2.56,2.56,0,0,0-.18,2l2.89-2.88,4,3.29,2.35,2.35L50.69,16l6.65-6.6L61.9,14l-6.91,7-1.44,2.87-2.12,2.1,0,3.1,2.91-2.91,6,.14,2.33,2.64-.91,27.6L49.23,69Z" fill="#494949" fill-rule="evenodd" opacity="0.32" style="isolation: isolate"/>
      <path d="M4,69H65c2.67,0,4.33-1,5-3v4H0V66A3.92,3.92,0,0,0,4,69Z" fill-opacity="0.38" fill-rule="evenodd"/>
      <g>
        <g opacity="0.4">
          <path d="M45.64,28.11H7.53a1.65,1.65,0,0,1-1.66-1.65V17.67A1.66,1.66,0,0,1,7.53,16h29a2.85,2.85,0,0,1,.21-2H7.53a3.67,3.67,0,0,0-3.66,3.66v8.79a3.66,3.66,0,0,0,3.66,3.65H45.64Z"/>
          <path d="M56.77,28.11H52.34v2h4.43a2.9,2.9,0,0,1,2.9,2.9V54.62a2.9,2.9,0,0,1-2.9,2.89H14.91A2.9,2.9,0,0,1,12,54.62V33a2.9,2.9,0,0,1,2.9-2.9H45.64v-2H14.91A4.91,4.91,0,0,0,10,33V54.62a4.9,4.9,0,0,0,4.9,4.89H56.77a4.9,4.9,0,0,0,4.9-4.89V33A4.91,4.91,0,0,0,56.77,28.11Z"/>
          <g>
            <path d="M12.92,19.63,11,24.2a.66.66,0,0,1-.19.27.5.5,0,0,1-.29.09.46.46,0,0,1-.36-.14.52.52,0,0,1-.11-.33,1.11,1.11,0,0,1,0-.17l2.25-5.38a.56.56,0,0,1,.22-.28.44.44,0,0,1,.32-.08.58.58,0,0,1,.3.09.55.55,0,0,1,.2.27l2.21,5.27a.63.63,0,0,1,.05.22.5.5,0,0,1-.16.39.52.52,0,0,1-.35.14.46.46,0,0,1-.29-.1.68.68,0,0,1-.2-.27l-1.94-4.51ZM11.25,23.1l.5-1h2.42l.18,1Z"/>
            <path d="M20,25.66a.58.58,0,0,1-.18.43.56.56,0,0,1-.43.17.54.54,0,0,1-.42-.17.57.57,0,0,1-.17-.43v-8a.62.62,0,0,1,.17-.44.59.59,0,0,1,.44-.18.54.54,0,0,1,.42.18.62.62,0,0,1,.17.44Z"/>
          </g>
          <g>
            <path d="M18.24,35.8,16.3,40.37a.52.52,0,0,1-.2.26.42.42,0,0,1-.28.1.46.46,0,0,1-.36-.14.48.48,0,0,1-.12-.33.55.55,0,0,1,0-.17l2.24-5.38a.57.57,0,0,1,.22-.28.47.47,0,0,1,.32-.08.53.53,0,0,1,.3.09.57.57,0,0,1,.21.27L20.87,40a.6.6,0,0,1,0,.22.49.49,0,0,1-.15.38.5.5,0,0,1-.35.15.43.43,0,0,1-.29-.1.6.6,0,0,1-.2-.27L18,35.85Zm-1.66,3.47.49-1H19.5l.17,1Z"/>
            <path d="M24.5,34.38a1.79,1.79,0,0,1,1.28.41,1.6,1.6,0,0,1,.43,1.2,1.28,1.28,0,0,1-.82,1.23,2.48,2.48,0,0,1-1,.18l0-.41a3.19,3.19,0,0,1,.64.08,2.31,2.31,0,0,1,.7.27,1.53,1.53,0,0,1,.78,1.43,2.26,2.26,0,0,1-.19,1,1.45,1.45,0,0,1-.51.58,1.94,1.94,0,0,1-.68.29,3.37,3.37,0,0,1-.69.07H22.23a.53.53,0,0,1-.55-.54V34.93a.53.53,0,0,1,.16-.39.53.53,0,0,1,.39-.16Zm-.17,1.07h-1.6l.12-.15v1.63l-.11-.08h1.62a.73.73,0,0,0,.47-.17.6.6,0,0,0,.21-.5.73.73,0,0,0-.2-.56A.72.72,0,0,0,24.33,35.45Zm.08,2.46H22.77l.08-.07v1.9l-.09-.09h1.71a.94.94,0,0,0,.66-.22.86.86,0,0,0,.24-.66.92.92,0,0,0-.16-.59.7.7,0,0,0-.39-.22A2.17,2.17,0,0,0,24.41,37.91Z"/>
            <path d="M18.24,47.8,16.3,52.37a.52.52,0,0,1-.2.26.42.42,0,0,1-.28.1.46.46,0,0,1-.36-.14.48.48,0,0,1-.12-.33.55.55,0,0,1,0-.17l2.24-5.38a.57.57,0,0,1,.22-.28.47.47,0,0,1,.32-.08.53.53,0,0,1,.3.09.57.57,0,0,1,.21.27L20.87,52a.6.6,0,0,1,0,.22.49.49,0,0,1-.15.38.5.5,0,0,1-.35.15.43.43,0,0,1-.29-.1.6.6,0,0,1-.2-.27L18,47.85Zm-1.66,3.47.49-1H19.5l.17,1Z"/>
            <path d="M24.5,46.38a1.79,1.79,0,0,1,1.28.41,1.6,1.6,0,0,1,.43,1.2,1.28,1.28,0,0,1-.82,1.23,2.48,2.48,0,0,1-1,.18l0-.41a3.19,3.19,0,0,1,.64.08,2.31,2.31,0,0,1,.7.27,1.53,1.53,0,0,1,.78,1.43,2.26,2.26,0,0,1-.19,1,1.45,1.45,0,0,1-.51.58,1.94,1.94,0,0,1-.68.29,3.37,3.37,0,0,1-.69.07H22.23a.53.53,0,0,1-.55-.54V46.93a.53.53,0,0,1,.16-.39.53.53,0,0,1,.39-.16Zm-.17,1.07h-1.6l.12-.15v1.63l-.11-.08h1.62a.73.73,0,0,0,.47-.17.6.6,0,0,0,.21-.5.73.73,0,0,0-.2-.56A.72.72,0,0,0,24.33,47.45Zm.08,2.46H22.77l.08-.07v1.9l-.09-.09h1.71a.94.94,0,0,0,.66-.22.86.86,0,0,0,.24-.66.92.92,0,0,0-.16-.59.7.7,0,0,0-.39-.22A2.17,2.17,0,0,0,24.41,49.91Z"/>
            <path d="M32,46.69a.48.48,0,0,1,.28.37.56.56,0,0,1-.13.46.4.4,0,0,1-.3.18.74.74,0,0,1-.38-.07,2.18,2.18,0,0,0-.45-.16,2.73,2.73,0,0,0-.5,0,2.33,2.33,0,0,0-.87.15,1.85,1.85,0,0,0-1.06,1.11,2.33,2.33,0,0,0-.14.85,2.54,2.54,0,0,0,.16,1,1.84,1.84,0,0,0,.43.67,1.72,1.72,0,0,0,.66.4,2.39,2.39,0,0,0,.82.13,2.59,2.59,0,0,0,.48,0,1.54,1.54,0,0,0,.47-.16.74.74,0,0,1,.38-.07.49.49,0,0,1,.31.19.56.56,0,0,1,.13.47.48.48,0,0,1-.28.34,2.55,2.55,0,0,1-.48.2,2.78,2.78,0,0,1-.5.11,2.92,2.92,0,0,1-.51,0,3.87,3.87,0,0,1-1.23-.2,2.93,2.93,0,0,1-1-.62,2.59,2.59,0,0,1-.72-1,3.58,3.58,0,0,1-.26-1.41,3.3,3.3,0,0,1,.24-1.27,3.07,3.07,0,0,1,.67-1,3.25,3.25,0,0,1,1-.66,3.46,3.46,0,0,1,1.3-.24,3.27,3.27,0,0,1,1.48.35Z"/>
          </g>
          <path d="M40.79,21.86h3.15A4.34,4.34,0,0,1,44.63,20l-2.54-2.53a2.81,2.81,0,0,1-.82.13,2.6,2.6,0,1,1,2.18-1.17L45.8,18.8A4.56,4.56,0,0,1,48.47,18a4.61,4.61,0,0,1,3.1,1.2L55,15.69a3.27,3.27,0,1,1,2.57,1.24,3.31,3.31,0,0,1-1.54-.38l-3.47,4a4.49,4.49,0,0,1,.45,2,4.54,4.54,0,0,1-3.58,4.42v4.63a3.49,3.49,0,1,1-1.2,0V27a4.55,4.55,0,0,1-4.33-3.94H40.76a3.46,3.46,0,1,1,0-1.2Zm7.7,4.2a3.6,3.6,0,1,0-3.64-3.6A3.61,3.61,0,0,0,48.49,26.06Z" fill-rule="evenodd"/>
        </g>
        <g>
          <path d="M47.66,26.1H9.54a1.66,1.66,0,0,1-1.66-1.66V15.66A1.66,1.66,0,0,1,9.54,14h29v0a2.77,2.77,0,0,1,.2-2H9.54a3.66,3.66,0,0,0-3.66,3.66v8.78A3.66,3.66,0,0,0,9.54,28.1H47.66Z" fill="#fff"/>
          <path d="M58.78,26.1H54.36v2h4.42a2.9,2.9,0,0,1,2.9,2.9V52.6a2.9,2.9,0,0,1-2.9,2.9H16.92A2.9,2.9,0,0,1,14,52.6V31a2.9,2.9,0,0,1,2.9-2.9H47.66v-2H16.92A4.91,4.91,0,0,0,12,31V52.6a4.91,4.91,0,0,0,4.9,4.9H58.78a4.91,4.91,0,0,0,4.9-4.9V31A4.91,4.91,0,0,0,58.78,26.1Z" fill="#fff"/>
          <g>
            <path d="M14.93,17.61,13,22.19a.59.59,0,0,1-.2.26.47.47,0,0,1-.28.09.45.45,0,0,1-.36-.13.48.48,0,0,1-.12-.33.51.51,0,0,1,0-.17l2.24-5.39a.62.62,0,0,1,.22-.28.53.53,0,0,1,.32-.08.54.54,0,0,1,.3.1.52.52,0,0,1,.2.26l2.22,5.28a.59.59,0,0,1,0,.21.5.5,0,0,1-.15.39.51.51,0,0,1-.35.14.48.48,0,0,1-.29-.09.71.71,0,0,1-.21-.27l-1.93-4.51Zm-1.67,3.48.5-1h2.43l.17,1Z" fill="#fff"/>
            <path d="M22.05,23.64a.64.64,0,0,1-.17.44.62.62,0,0,1-.44.17.59.59,0,0,1-.42-.17.64.64,0,0,1-.17-.44v-8a.6.6,0,0,1,.18-.44.63.63,0,0,1,.86,0,.63.63,0,0,1,.16.44Z" fill="#fff"/>
          </g>
          <g>
            <path d="M20.26,33.78l-2,4.57a.49.49,0,0,1-.47.36.46.46,0,0,1-.37-.13.52.52,0,0,1-.11-.33,1,1,0,0,1,0-.17l2.25-5.39a.56.56,0,0,1,.22-.28.51.51,0,0,1,.32-.08.6.6,0,0,1,.3.1.52.52,0,0,1,.2.26L22.88,38a.63.63,0,0,1,.05.21.48.48,0,0,1-.16.39.47.47,0,0,1-.35.14.52.52,0,0,1-.29-.09.79.79,0,0,1-.2-.27L20,33.84Zm-1.67,3.48.5-1h2.43l.17,1Z" fill="#fff"/>
            <path d="M26.51,32.37a1.8,1.8,0,0,1,1.29.4,1.59,1.59,0,0,1,.42,1.2,1.31,1.31,0,0,1-.21.74,1.28,1.28,0,0,1-.61.5,2.46,2.46,0,0,1-1,.17l0-.4a2.66,2.66,0,0,1,.64.08,2.41,2.41,0,0,1,.7.27,1.5,1.5,0,0,1,.55.54,1.57,1.57,0,0,1,.22.88,2.09,2.09,0,0,1-.19,1,1.48,1.48,0,0,1-.51.59,1.88,1.88,0,0,1-.67.28,3.42,3.42,0,0,1-.7.08H24.24a.53.53,0,0,1-.39-.16.53.53,0,0,1-.16-.39v-5.2a.53.53,0,0,1,.16-.39.53.53,0,0,1,.39-.16Zm-.16,1.06h-1.6l.11-.14v1.63l-.1-.08h1.62a.67.67,0,0,0,.46-.18.58.58,0,0,0,.21-.49.7.7,0,0,0-.19-.56A.72.72,0,0,0,26.35,33.43Zm.07,2.47H24.78l.08-.07v1.89l-.09-.09h1.71a.92.92,0,0,0,.66-.22,1.07,1.07,0,0,0,.08-1.24.73.73,0,0,0-.38-.23A2.19,2.19,0,0,0,26.42,35.9Z" fill="#fff"/>
            <path d="M20.26,45.78l-2,4.57a.49.49,0,0,1-.47.36.46.46,0,0,1-.37-.13.52.52,0,0,1-.11-.33,1,1,0,0,1,0-.17l2.25-5.39a.56.56,0,0,1,.22-.28.51.51,0,0,1,.32-.08.6.6,0,0,1,.3.1.52.52,0,0,1,.2.26L22.88,50a.63.63,0,0,1,.05.21.48.48,0,0,1-.16.39.47.47,0,0,1-.35.14.52.52,0,0,1-.29-.09.79.79,0,0,1-.2-.27L20,45.84Zm-1.67,3.48.5-1h2.43l.17,1Z" fill="#fff"/>
            <path d="M26.51,44.37a1.8,1.8,0,0,1,1.29.4,1.59,1.59,0,0,1,.42,1.2,1.31,1.31,0,0,1-.21.74,1.28,1.28,0,0,1-.61.5,2.46,2.46,0,0,1-1,.17l0-.4a2.66,2.66,0,0,1,.64.08,2.41,2.41,0,0,1,.7.27,1.5,1.5,0,0,1,.55.54,1.57,1.57,0,0,1,.22.88,2.09,2.09,0,0,1-.19,1,1.48,1.48,0,0,1-.51.59,1.88,1.88,0,0,1-.67.28,3.42,3.42,0,0,1-.7.08H24.24a.53.53,0,0,1-.39-.16.53.53,0,0,1-.16-.39v-5.2a.53.53,0,0,1,.16-.39.53.53,0,0,1,.39-.16Zm-.16,1.06h-1.6l.11-.14v1.63l-.1-.08h1.62a.67.67,0,0,0,.46-.18.58.58,0,0,0,.21-.49.7.7,0,0,0-.19-.56A.72.72,0,0,0,26.35,45.43Zm.07,2.47H24.78l.08-.07v1.89l-.09-.09h1.71a.92.92,0,0,0,.66-.22,1.07,1.07,0,0,0,.08-1.24.73.73,0,0,0-.38-.23A2.19,2.19,0,0,0,26.42,47.9Z" fill="#fff"/>
            <path d="M34,44.68a.46.46,0,0,1,.27.36.52.52,0,0,1-.13.46.4.4,0,0,1-.3.18.62.62,0,0,1-.37-.07,2.47,2.47,0,0,0-.46-.15,2,2,0,0,0-.5-.06,2.41,2.41,0,0,0-.87.16A1.94,1.94,0,0,0,31,46a2.08,2.08,0,0,0-.41.67,2.63,2.63,0,0,0-.14.86,2.7,2.7,0,0,0,.16.95,1.9,1.9,0,0,0,.44.68,1.73,1.73,0,0,0,.65.4,2.47,2.47,0,0,0,.82.13,2.72,2.72,0,0,0,.49,0,1.63,1.63,0,0,0,.47-.16.61.61,0,0,1,.37-.06.47.47,0,0,1,.31.19.54.54,0,0,1,.13.46.46.46,0,0,1-.27.35,3.19,3.19,0,0,1-.48.19l-.5.12a3,3,0,0,1-.52,0,3.61,3.61,0,0,1-1.23-.21,3.16,3.16,0,0,1-1-.61,3,3,0,0,1-.72-1,3.65,3.65,0,0,1-.26-1.41,3.35,3.35,0,0,1,.24-1.28,3,3,0,0,1,.68-1,3,3,0,0,1,1-.67,3.4,3.4,0,0,1,1.29-.24,3.33,3.33,0,0,1,.78.09A2.89,2.89,0,0,1,34,44.68Z" fill="#fff"/>
          </g>
          <path d="M42.81,19.84H46A4.48,4.48,0,0,1,46.64,18l-2.53-2.54A2.58,2.58,0,1,1,45.9,13a2.52,2.52,0,0,1-.43,1.41l2.35,2.35a4.62,4.62,0,0,1,5.76.36l3.47-3.46a3.18,3.18,0,0,1-.7-2,3.26,3.26,0,1,1,1.73,2.85l-3.48,4a4.45,4.45,0,0,1,.46,2,4.54,4.54,0,0,1-3.58,4.42v4.64a3.49,3.49,0,1,1-1.2,0V25A4.56,4.56,0,0,1,46,21H42.78a3.46,3.46,0,1,1,0-1.2ZM50.5,24a3.6,3.6,0,1,0-3.63-3.6A3.62,3.62,0,0,0,50.5,24Z" fill="#fff" fill-rule="evenodd"/>
        </g>
      </g>
    </g>
  </g>
</svg>
