<svg width="70" height="70" viewBox="0 0 70 70" fill="none" xmlns="http://www.w3.org/2000/svg">
<path d="M10 18H43C45.2091 18 47 19.7909 47 22V35H14C11.7909 35 10 33.2091 10 31V18Z" fill="#FC868B"/>
<path d="M14 27C14 24.7909 15.7909 23 18 23H56C58.2091 23 60 24.7909 60 27V35H14V27Z" fill="#985184"/>
<path d="M47 23V35H14V27C14 24.7909 15.7909 23 18 23H47Z" fill="#712258"/>
<path d="M14 41H60V47H14V41Z" fill="#F78613"/>
<path d="M14 35H60V41H14V35Z" fill="#962B48"/>
<path d="M14 47H60V48C60 50.2091 58.2091 52 56 52H18C15.7909 52 14 50.2091 14 48V47Z" fill="#FBB945"/>
</svg>
