<svg width="80" height="80" viewBox="0 0 80 80" fill="none" xmlns="http://www.w3.org/2000/svg">
<g id="3116884_whatsapp_square_chat_design_message_icon 1" clip-path="url(#clip0_81_382)">
<g id="layer1">
<path id="rect3851" d="M74.6066 0.72168H5.5424C2.75742 0.72168 0.499756 2.97935 0.499756 5.76433V74.8286C0.499756 77.6135 2.75742 79.8712 5.5424 79.8712H74.6066C77.3916 79.8712 79.6492 77.6135 79.6492 74.8286V5.76433C79.6492 2.97935 77.3916 0.72168 74.6066 0.72168Z" fill="#39BB59"/>
<g id="Clip path group">
<mask id="mask0_81_382" style="mask-type:luminance" maskUnits="userSpaceOnUse" x="6" y="9" width="75" height="72">
<g id="clipPath4206">
<path id="rect4208" d="M75.7716 9.01709H11.1629C8.55758 9.01709 6.44556 11.0471 6.44556 13.5512V75.6502C6.44556 78.1543 8.55758 80.1843 11.1629 80.1843H75.7716C78.3769 80.1843 80.4889 78.1543 80.4889 75.6502V13.5512C80.4889 11.0471 78.3769 9.01709 75.7716 9.01709Z" fill="white"/>
</g>
</mask>
<g mask="url(#mask0_81_382)">
<g id="g4145" opacity="0.489612">
<g id="g4147">
<path id="path4149" d="M68.2374 43.1284C68.2374 55.8115 57.2611 66.0932 43.7212 66.0932L196.51 212.946C210.049 212.946 221.026 202.665 221.026 189.982L68.2374 43.1284Z" fill="black" fill-opacity="0.0588235"/>
<path id="path4151" d="M43.7211 66.0932C36.8369 66.0932 30.6154 63.4353 26.1624 59.1553L178.951 206.008C183.404 210.289 189.625 212.946 196.51 212.946L43.7211 66.0932Z" fill="black" fill-opacity="0.0588235"/>
<path id="path4153" d="M26.1623 59.1553C21.8571 55.0173 19.2048 49.363 19.2048 43.1284L171.993 189.982C171.993 196.216 174.645 201.87 178.951 206.008L26.1623 59.1553Z" fill="black" fill-opacity="0.0588235"/>
<path id="path4155" d="M19.2048 43.1284C19.2048 30.4453 30.1811 20.1636 43.7211 20.1636L196.509 167.017C182.969 167.017 171.993 177.299 171.993 189.982L19.2048 43.1284Z" fill="black" fill-opacity="0.0588235"/>
<path id="path4157" d="M43.7212 20.1636C50.6054 20.1636 56.8269 22.8215 61.2799 27.1015L214.068 173.955C209.615 169.675 203.394 167.017 196.51 167.017L43.7212 20.1636Z" fill="black" fill-opacity="0.0588235"/>
<path id="path4159" d="M61.2798 27.1016C65.585 31.2396 68.2373 36.8939 68.2373 43.1284L221.026 189.982C221.026 183.747 218.373 178.093 214.068 173.955L61.2798 27.1016Z" fill="black" fill-opacity="0.0588235"/>
</g>
<path id="path4111" d="M68.2373 43.1284C68.2373 55.8115 57.261 66.0932 43.7211 66.0932C30.1811 66.0932 19.2048 55.8115 19.2048 43.1284C19.2048 30.4453 30.1811 20.1636 43.7211 20.1636C57.261 20.1636 68.2373 30.4453 68.2373 43.1284Z" fill="black" fill-opacity="0.0588235"/>
</g>
</g>
</g>
<path id="path4074" d="M51.3896 43.6875C51.9673 43.9879 52.337 44.1497 52.4526 44.3808C52.5912 44.635 52.545 45.7904 51.9673 47.1076C51.5051 48.4017 49.1018 49.6496 48.0388 49.6958C46.9758 49.7421 46.9527 50.5277 41.1985 48.0089C35.4444 45.49 31.9781 39.3431 31.7008 38.9502C31.4235 38.5574 29.4823 35.7612 29.5748 32.9188C29.6903 30.0995 31.1693 28.7592 31.7701 28.2046C32.3247 27.6037 32.9487 27.5344 33.3415 27.6037H34.4276C34.7743 27.6037 35.2596 27.4651 35.6986 28.6437L37.2931 32.965C37.4318 33.2654 37.5242 33.6121 37.3163 33.9818L36.6923 34.9293L35.7911 35.8998C35.5138 36.1771 35.1902 36.4776 35.5138 37.0553C35.7911 37.6561 36.9465 39.5741 38.5641 41.1687C40.667 43.2022 42.5158 43.8724 43.0704 44.1728C43.625 44.4963 43.9716 44.4501 44.3182 44.0804L46.1901 41.9081C46.6291 41.3304 46.9989 41.4691 47.5304 41.6539L51.3896 43.6875ZM40.4128 16.0493C46.5417 16.0493 52.4195 18.484 56.7533 22.8178C61.0871 27.1515 63.5217 33.0293 63.5217 39.1582C63.5217 45.287 61.0871 51.1649 56.7533 55.4986C52.4195 59.8324 46.5417 62.2671 40.4128 62.2671C35.8604 62.2671 31.6315 60.9498 28.0496 58.6852L17.304 62.2671L20.8858 51.5214C18.6212 47.9396 17.304 43.7106 17.304 39.1582C17.304 33.0293 19.7386 27.1515 24.0724 22.8178C28.4061 18.484 34.284 16.0493 40.4128 16.0493ZM40.4128 20.6711C35.5098 20.6711 30.8075 22.6188 27.3405 26.0858C23.8735 29.5528 21.9257 34.2551 21.9257 39.1582C21.9257 43.1329 23.1736 46.8072 25.2996 49.8114L23.0812 56.4898L29.7596 54.2714C32.7638 56.3974 36.4381 57.6453 40.4128 57.6453C45.3159 57.6453 50.0182 55.6975 53.4852 52.2305C56.9522 48.7635 58.9 44.0613 58.9 39.1582C58.9 34.2551 56.9522 29.5528 53.4852 26.0858C50.0182 22.6188 45.3159 20.6711 40.4128 20.6711Z" fill="white"/>
</g>
</g>
<defs>
<clipPath id="clip0_81_382">
<rect width="80" height="80" fill="white"/>
</clipPath>
</defs>
</svg>
