<?xml version="1.0" encoding="utf-8"?>
<!-- Generator: Adobe Illustrator 26.0.1, SVG Export Plug-In . SVG Version: 6.00 Build 0)  -->
<svg version="1.1" id="Layer_1" xmlns="http://www.w3.org/2000/svg" xmlns:xlink="http://www.w3.org/1999/xlink" x="0px" y="0px"
	 viewBox="0 0 50 50" style="enable-background:new 0 0 50 50;" xml:space="preserve">
<style type="text/css">
	.st0{fill:#B3B3B3;}
	.st1{fill:#FFFFFF;}
	.st2{fill:none;}
	.st3{fill:url(#SVGID_1_);}
	.st4{fill-rule:evenodd;clip-rule:evenodd;fill:#FFFFFF;}
</style>
<path class="st0" d="M14.5,40.4l0.7,0.4c2.9,1.7,6.2,2.6,9.6,2.6h0c10.4,0,18.9-8.5,18.9-18.9c0-5.1-2-9.8-5.5-13.4
	c-3.5-3.6-8.4-5.6-13.4-5.6c-10.4,0-18.9,8.5-18.9,18.9c0,3.6,1,7.1,2.9,10.1l0.5,0.7l-1.9,7L14.5,40.4z M1.9,47.7l3.2-11.8
	c-2-3.5-3-7.4-3-11.4C2.1,12,12.3,1.8,24.8,1.8c6.1,0,11.8,2.4,16.1,6.7s6.7,10,6.7,16.1c0,12.6-10.2,22.8-22.8,22.8h0
	c-3.8,0-7.6-1-10.9-2.8L1.9,47.7z"/>
<path class="st1" d="M1.6,47.5l3.2-11.8c-2-3.5-3-7.4-3-11.4C1.8,11.7,12,1.5,24.6,1.5c6.1,0,11.8,2.4,16.1,6.7s6.7,10,6.7,16.1
	c0,12.6-10.2,22.8-22.8,22.8h0c-3.8,0-7.6-1-10.9-2.8L1.6,47.5z"/>
<path class="st2" d="M24.6,5.4c-10.4,0-18.9,8.5-18.9,18.9c0,3.6,1,7.1,2.9,10.1L9,35.1l-1.9,7l7.2-1.9l0.7,0.4
	c2.9,1.7,6.2,2.6,9.6,2.6h0c10.4,0,18.9-8.5,18.9-18.9c0-5-2-9.8-5.5-13.4C34.5,7.4,29.6,5.4,24.6,5.4L24.6,5.4z"/>
<linearGradient id="SVGID_1_" gradientUnits="userSpaceOnUse" x1="24.5016" y1="44.8036" x2="24.6936" y2="12.4423" gradientTransform="matrix(1 0 0 -1 0 52.448)">
	<stop  offset="0" style="stop-color:#57D163"/>
	<stop  offset="1" style="stop-color:#23B33A"/>
</linearGradient>
<path class="st3" d="M24.6,5.4c-10.4,0-18.9,8.5-18.9,18.9c0,3.6,1,7.1,2.9,10.1L9,35.1l-1.9,7l7.2-1.9l0.7,0.4
	c2.9,1.7,6.2,2.6,9.6,2.6h0c10.4,0,18.9-8.5,18.9-18.9c0-5-2-9.8-5.5-13.4C34.5,7.4,29.6,5.4,24.6,5.4z"/>
<path class="st4" d="M18.9,14.8c-0.4-0.9-0.9-1-1.3-1l-1.1,0c-0.4,0-1,0.1-1.5,0.7c-0.5,0.6-2,1.9-2,4.7s2,5.5,2.3,5.9
	c0.3,0.4,3.9,6.3,9.7,8.6c4.8,1.9,5.8,1.5,6.8,1.4c1-0.1,3.4-1.4,3.8-2.7c0.5-1.3,0.5-2.5,0.3-2.7c-0.1-0.2-0.5-0.4-1.1-0.7
	c-0.6-0.3-3.4-1.7-3.9-1.9c-0.5-0.2-0.9-0.3-1.3,0.3c-0.4,0.6-1.5,1.9-1.8,2.2c-0.3,0.4-0.7,0.4-1.2,0.1c-0.6-0.3-2.4-0.9-4.6-2.8
	c-1.7-1.5-2.8-3.4-3.2-3.9s0-0.9,0.3-1.2c0.3-0.3,0.6-0.7,0.9-1c0.3-0.3,0.4-0.6,0.6-0.9c0.2-0.4,0.1-0.7,0-1
	C20.5,18.7,19.4,15.9,18.9,14.8"/>
</svg>
