<svg width="234" height="60" viewBox="0 0 234 60" xmlns="http://www.w3.org/2000/svg"><path fill="#fff" fill-opacity=".5" d="M0 5h234v50H0z"/><path transform="translate(0 5)" fill="url(#header_preview_default__a)" d="M0 0h234v30H0z"/><path d="M18.082 23.789v-1.865h-3.708V16.21H12v7.58l6.082-.001Zm3.945.13c.852 0 1.565-.158 2.136-.473a3.21 3.21 0 0 0 1.31-1.324c.303-.567.454-1.293.454-2.179 0-1.22-.346-2.169-1.038-2.846-.692-.677-1.677-1.016-2.957-1.016-1.247 0-2.22.345-2.92 1.034-.699.69-1.048 1.653-1.048 2.89 0 .886.176 1.624.53 2.213.352.59.813 1.02 1.38 1.292.569.273 1.286.409 2.153.409Zm-.079-1.753c-.496 0-.889-.167-1.177-.501-.288-.335-.432-.884-.432-1.65 0-.772.145-1.325.435-1.66.29-.333.674-.5 1.153-.5.5 0 .896.164 1.188.493.291.33.437.85.437 1.564 0 .848-.14 1.436-.42 1.763-.279.327-.674.491-1.184.491Zm8.291 1.753c.741 0 1.381-.085 1.921-.256.54-.17 1.162-.492 1.864-.964v-3.232h-3.67v1.577h1.589v.714c-.26.16-.539.29-.828.388a2.52 2.52 0 0 1-.76.113c-.56 0-.996-.176-1.309-.527-.312-.352-.469-.938-.469-1.758 0-.772.155-1.336.464-1.693.31-.357.724-.535 1.245-.535.35 0 .637.076.863.227.225.152.385.37.48.657l2.29-.403c-.14-.49-.348-.894-.626-1.213a2.476 2.476 0 0 0-1.049-.705c-.42-.152-1.056-.228-1.905-.228-.881 0-1.582.122-2.103.367-.64.293-1.173.78-1.52 1.393-.346.612-.519 1.332-.519 2.159 0 .786.158 1.482.474 2.089a3.17 3.17 0 0 0 1.337 1.37c.575.306 1.319.46 2.231.46Zm8.244 0c.853 0 1.565-.158 2.136-.473a3.21 3.21 0 0 0 1.31-1.324c.303-.567.454-1.293.454-2.179 0-1.22-.346-2.169-1.038-2.846-.692-.677-1.677-1.016-2.957-1.016-1.247 0-2.22.345-2.92 1.034-.699.69-1.048 1.653-1.048 2.89 0 .886.176 1.624.53 2.213.352.59.813 1.02 1.38 1.292.569.273 1.286.409 2.153.409Zm-.079-1.753c-.496 0-.888-.167-1.177-.501-.288-.335-.432-.884-.432-1.65 0-.772.145-1.325.435-1.66.29-.333.674-.5 1.153-.5.5 0 .896.164 1.188.493.292.33.437.85.437 1.564 0 .848-.14 1.436-.419 1.763-.28.327-.675.491-1.185.491Z" fill="#fff"/><rect x="49.383" y="18" width="12" height="4" rx="1" fill="#fff"/><rect x="63.383" y="18" width="18" height="4" rx="1" fill="#fff"/><rect x="83.383" y="18" width="12" height="4" rx="1" fill="#fff"/><rect x="202" y="17" width="20" height="6" rx="3" fill="#fff"/><defs><linearGradient id="header_preview_default__a" x1="0" y1="0" x2="234" y2="30" gradientUnits="userSpaceOnUse"><stop stop-color="#357C83"/><stop offset="1" stop-color="#01A09D"/></linearGradient></defs></svg>
