<svg width="50" height="50" xmlns="http://www.w3.org/2000/svg"><path d="M.983 23.814a3.356 3.356 0 0 1 0-4.746L11.068 8.983a3.356 3.356 0 0 1 4.746 0l17.203 17.203a3.356 3.356 0 0 1 0 4.746L22.932 41.017a3.356 3.356 0 0 1-4.746 0L.983 23.814Z" fill="var(--o-icons-yellow-pure, #FBB130)"/><path d="M.983 23.814a3.356 3.356 0 0 1 0-4.746L11.068 8.983a3.356 3.356 0 0 1 4.746 0l17.203 17.203a3.356 3.356 0 0 1 0 4.746L22.932 41.017a3.356 3.356 0 0 1-4.746 0L.983 23.814Z" fill="url(#o_icon_utm__a)" fill-opacity=".2"/><path d="M16.983 19.068a3.356 3.356 0 0 0 0 4.746l4.53 4.53 7.063-6.598 4.441 4.44a3.356 3.356 0 0 1 0 4.747L28.56 35.39l5.627 5.627a3.356 3.356 0 0 0 4.746 0l10.085-10.085a3.356 3.356 0 0 0 0-4.746L31.814 8.983a3.356 3.356 0 0 0-4.746 0L16.983 19.068Z" fill="var(--o-icons-purple-pure, #93407D)"/><path d="M16.983 19.068a3.356 3.356 0 0 0 0 4.746l4.53 4.53 7.063-6.598 4.441 4.44a3.356 3.356 0 0 1 0 4.747L28.56 35.39l5.627 5.627a3.356 3.356 0 0 0 4.746 0l10.085-10.085a3.356 3.356 0 0 0 0-4.746L31.814 8.983a3.356 3.356 0 0 0-4.746 0L16.983 19.068Z" fill="url(#o_icon_utm__b)" fill-opacity=".2"/><defs><linearGradient id="o_icon_utm__a" x1="0" y1="8" x2="40" y2="18" gradientUnits="userSpaceOnUse"><stop stop-color="#fff"/><stop offset="1" stop-color="#fff" stop-opacity="0"/></linearGradient><linearGradient id="o_icon_utm__b" x1="16" y1="8" x2="56" y2="18" gradientUnits="userSpaceOnUse"><stop stop-color="#fff"/><stop offset="1" stop-color="#fff" stop-opacity="0"/></linearGradient></defs></svg>
