<svg xmlns="http://www.w3.org/2000/svg" xmlns:xlink="http://www.w3.org/1999/xlink" width="70" height="70"><defs><path id="a" d="M4 0h61c4 0 5 1 5 5v60c0 4-1 5-5 5H4c-3 0-4-1-4-5V5c0-4 1-5 4-5z"/><linearGradient id="c" x1="100%" x2="0%" y1="0%" y2="100%"><stop offset="0%" stop-color="#94B6C8"/><stop offset="100%" stop-color="#6A9EBA"/></linearGradient><path id="d" d="M19.25 46h2.714v1.212c0 .188.152.343.339.343h26.394a.342.342 0 0 0 .339-.343V37.5H33.625l-2.62-6.5h18.031v-3.212a.342.342 0 0 0-.339-.343H29.765l-1.018-2.742h20.289c1.5 0 2.714 1.228 2.714 2.742v20.11c0 1.514-1.213 2.742-2.714 2.742H21.964c-1.5 0-2.714-1.228-2.714-2.742V46zm-3.79 9.642h-1.037V55h2.833v.642h-1.037v2.832h-.76v-2.832zM17.422 55h1.07l.809 2.389h.01L20.075 55h1.07v3.474h-.711v-2.462h-.01l-.847 2.462h-.586l-.848-2.438h-.01v2.438h-.711V55zm17.163-12.266c0 .228-.19.342-.57.342-.253 0-.481-.013-.684-.038l-4.826-.076-4.826.076a4.036 4.036 0 0 1-.57.038c-.507 0-.76-.127-.76-.38 0-.279.342-.418 1.026-.418 2.23-.025 3.344-.253 3.344-.684 0-.025-.025-.127-.076-.304l-.304-1.026-.19-.532c-.228-.785-.785-2.52-1.672-5.206h-8.132c-1.52 4.053-2.28 6.384-2.28 6.992 0 .355.152.57.456.646.076.025.71.076 1.9.152.735.025 1.102.152 1.102.38 0 .253-.33.38-.988.38-1.165 0-2.52-.05-4.066-.152-.38-.025-.773-.038-1.178-.038-.405 0-.798.025-1.178.076A4.157 4.157 0 0 1 9.62 43c-.355 0-.532-.114-.532-.342 0-.228.399-.355 1.197-.38.798-.025 1.374-.146 1.729-.361s.633-.627.836-1.235c3.268-9.323 5.928-16.809 7.98-22.458a5.04 5.04 0 0 1 .304-1.026l.19-.684c.076-.279.177-.418.304-.418.076 0 .14.076.19.228.33.988 1.077 3.053 2.242 6.194.912 2.457 3.18 8.626 6.802 18.506.203.557.462.912.779 1.064.317.152.969.24 1.957.266.659.025.988.152.988.38zM24.25 33.652l-2.014-5.662-1.824-5.206c-1.064 2.787-2.343 6.41-3.838 10.868h7.676z"/><path id="e" d="M19.25 44h2.714v1.212c0 .188.152.343.339.343h26.394a.342.342 0 0 0 .339-.343V35.5H33.625l-2.62-6.5h18.031v-3.212a.342.342 0 0 0-.339-.343H29.765l-1.018-2.742h20.289c1.5 0 2.714 1.228 2.714 2.742v20.11c0 1.514-1.213 2.742-2.714 2.742H21.964c-1.5 0-2.714-1.228-2.714-2.742V44zm-3.79 9.642h-1.037V53h2.833v.642h-1.037v2.832h-.76v-2.832zM17.422 53h1.07l.809 2.389h.01L20.075 53h1.07v3.474h-.711v-2.462h-.01l-.847 2.462h-.586l-.848-2.438h-.01v2.438h-.711V53zm17.163-12.266c0 .228-.19.342-.57.342-.253 0-.481-.013-.684-.038l-4.826-.076-4.826.076a4.036 4.036 0 0 1-.57.038c-.507 0-.76-.127-.76-.38 0-.279.342-.418 1.026-.418 2.23-.025 3.344-.253 3.344-.684 0-.025-.025-.127-.076-.304l-.304-1.026-.19-.532c-.228-.785-.785-2.52-1.672-5.206h-8.132c-1.52 4.053-2.28 6.384-2.28 6.992 0 .355.152.57.456.646.076.025.71.076 1.9.152.735.025 1.102.152 1.102.38 0 .253-.33.38-.988.38-1.165 0-2.52-.05-4.066-.152-.38-.025-.773-.038-1.178-.038-.405 0-.798.025-1.178.076A4.157 4.157 0 0 1 9.62 41c-.355 0-.532-.114-.532-.342 0-.228.399-.355 1.197-.38.798-.025 1.374-.146 1.729-.361s.633-.627.836-1.235c3.268-9.323 5.928-16.809 7.98-22.458a5.04 5.04 0 0 1 .304-1.026l.19-.684c.076-.279.177-.418.304-.418.076 0 .14.076.19.228.33.988 1.077 3.053 2.242 6.194.912 2.457 3.18 8.626 6.802 18.506.203.557.462.912.779 1.064.317.152.969.24 1.957.266.659.025.988.152.988.38zM24.25 31.652l-2.014-5.662-1.824-5.206c-1.064 2.787-2.343 6.41-3.838 10.868h7.676z"/></defs><g fill="none" fill-rule="evenodd"><mask id="b" fill="#fff"><use xlink:href="#a"/></mask><g mask="url(#b)"><path fill="url(#c)" d="M0 0H70V70H0z"/><path fill="#FFF" fill-opacity=".383" d="M4 1h61c2.667 0 4.333.667 5 2V0H0v3c.667-1.333 2-2 4-2z"/><path fill="#393939" d="M4 69c-2 0-4-1-4-4V33.916l21.6-19.82 3.4 8.607h12.25L48 23l3.576 1.968-.236 22.01L39.224 69H4z" opacity=".324"/><path fill="#000" fill-opacity=".383" d="M4 69h61c2.667 0 4.333-1 5-3v4H0v-4c.667 2 2 3 4 3z"/><use fill="#000" fill-rule="nonzero" opacity=".3" xlink:href="#d"/><use fill="#FFF" fill-rule="nonzero" xlink:href="#e"/></g></g></svg>