<svg width="128" height="128" viewBox="0 0 128 128" fill="none" xmlns="http://www.w3.org/2000/svg">
<path d="M33.7261 51.4911C33.6059 51.4245 33.4862 51.3564 33.3669 51.2868C24.4097 46.0654 21.3407 34.5012 26.5121 25.4574C31.6836 16.4136 43.1372 13.315 52.0944 18.5364C52.1491 18.5683 52.2037 18.6005 52.258 18.6329C52.3137 18.6661 52.3693 18.6996 52.4246 18.7334L91.4372 41.2193C91.7357 41.3765 92.0402 41.5454 92.3507 41.7264C104.447 48.7775 108.591 64.3942 101.608 76.6072C99.3909 80.4837 96.3195 83.5513 92.7725 85.7075L35.5277 52.5272L35.512 52.535L33.7261 51.4911Z" fill="white"/>
<path d="M49.1175 67.4196L32.6626 77.12L32.673 77.1385C27.4602 80.4957 24.0031 86.386 24.0031 93.0915C24.0031 103.534 32.3877 112 42.7306 112C45.7618 112 48.6248 111.273 51.1579 109.982L51.1631 109.991L51.347 109.884C51.8299 109.631 52.3005 109.357 52.7577 109.064L92.3862 86.0288L49.1175 67.4196Z" fill="white"/>
<path d="M66.0139 72.5093L35.4547 54.7966L35.4347 54.8065L34.5026 54.2617L32.736 53.229C32.6102 53.159 32.4847 53.0876 32.3595 53.0146M66.0139 72.5093L53.282 16.915C53.2222 16.8792 53.162 16.8438 53.1017 16.8086L53.1016 16.8086C43.1766 11.0229 30.4944 14.4643 24.776 24.4646C19.0639 34.4538 22.4459 47.2357 32.3595 53.0146M66.0139 72.5093L49.9076 65.5823L48.9757 65.1815L48.1018 65.6967L31.6469 75.3971L29.9579 76.3928L30.048 76.5528C25.1533 80.3774 22.0031 86.3658 22.0031 93.0915C22.0031 104.621 31.2651 114 42.7306 114C45.4043 114 47.9628 113.488 50.3126 112.556M66.0139 72.5093L50.3126 112.556M32.3595 53.0146L33.3669 51.2868M32.3595 53.0146L33.3669 51.2868M33.3669 51.2868C33.4862 51.3564 33.6059 51.4245 33.7261 51.4911L26.5121 25.4574C21.3407 34.5012 24.4097 46.0654 33.3669 51.2868ZM50.3126 112.556L50.4155 112.739L52.1682 111.72L52.3153 111.635M50.3126 112.556L52.3153 111.635M52.3153 111.635C52.8229 111.367 53.3181 111.079 53.7997 110.772L93.3913 87.7579L96.8262 85.7612L96.4429 85.5964C99.1609 83.4693 101.522 80.7863 103.344 77.6C110.868 64.4416 106.41 47.6072 93.3579 39.9985L93.3578 39.9985C93.0357 39.8107 92.7176 39.6338 92.4034 39.4678L53.4446 17.0129C53.3908 16.9801 53.3367 16.9475 53.2824 16.9151L52.3153 111.635Z" stroke="black" stroke-opacity="0.25" stroke-width="4"/>
</svg>
