<svg width="128" height="128" viewBox="0 0 128 128" fill="none" xmlns="http://www.w3.org/2000/svg">
<path fill-rule="evenodd" clip-rule="evenodd" d="M106.843 27.3085C111.581 28.5779 115.278 32.2945 116.559 37.0407C119.911 50.581 119.692 76.1808 116.63 89.9328C115.362 94.679 111.652 98.3814 106.913 99.6649C93.5355 102.98 33.6178 102.57 21.0147 99.6649C16.2762 98.3955 12.5797 94.679 11.2983 89.9328C8.13695 77.0271 8.35522 49.7348 11.2279 37.1112C12.4952 32.365 16.2058 28.6625 20.9443 27.379C38.8281 23.6413 100.478 24.8473 106.843 27.3085ZM53.3322 46.9844L82.0589 63.4867L53.3322 79.9891V46.9844Z" fill="white"/>
<path d="M118.501 36.5601L118.495 36.5397L118.49 36.5193C117.033 31.123 112.844 26.8818 107.455 25.4022C106.36 25.0064 104.491 24.7118 102.281 24.464C99.901 24.1972 96.8613 23.9603 93.3659 23.7589C86.3708 23.3558 77.4747 23.0904 68.2285 23.0192C49.8261 22.8776 29.7234 23.501 20.5351 25.4213L20.4779 25.4333L20.4214 25.4486C14.999 26.9174 10.7481 31.1555 9.29559 36.5952L9.286 36.6311L9.27775 36.6674C7.79297 43.1921 7.01893 53.3425 7.00034 63.4125C6.98177 73.4759 7.71683 83.7181 9.35574 90.4086L9.36132 90.4314L9.36744 90.4541C10.8329 95.882 15.0629 100.141 20.4971 101.597L20.5311 101.606L20.5654 101.614C23.9117 102.385 30.1888 102.96 37.7682 103.354C45.4064 103.751 54.5292 103.972 63.6679 103.997C72.806 104.023 81.98 103.854 89.7194 103.469C97.397 103.088 103.835 102.488 107.394 101.606L107.415 101.601L107.436 101.595C112.858 100.127 117.109 95.8885 118.562 90.4488L118.573 90.4084L118.582 90.3676C120.157 83.2962 120.981 73.2994 121 63.4112C121.018 53.5317 120.233 43.5602 118.501 36.5601ZM55.3322 76.5336V50.4398L78.0438 63.4867L55.3322 76.5336Z" stroke="black" stroke-opacity="0.25" stroke-width="4"/>
</svg>
