<svg width="128" height="128" viewBox="0 0 128 128" fill="none" xmlns="http://www.w3.org/2000/svg">
<path d="M64.004 16C50.968 16 49.332 16.057 44.212 16.29C39.102 16.524 35.614 17.333 32.562 18.52C29.405 19.746 26.727 21.386 24.059 24.055C21.389 26.723 19.749 29.401 18.519 32.557C17.329 35.61 16.519 39.099 16.289 44.207C16.06 49.327 16 50.964 16 64C16 77.036 16.058 78.667 16.29 83.787C16.525 88.897 17.334 92.385 18.52 95.437C19.747 98.594 21.387 101.272 24.056 103.94C26.723 106.61 29.401 108.254 32.556 109.48C35.61 110.667 39.099 111.476 44.208 111.71C49.328 111.943 50.963 112 63.998 112C77.035 112 78.666 111.943 83.786 111.71C88.896 111.476 92.388 110.667 95.442 109.48C98.598 108.254 101.272 106.61 103.939 103.94C106.609 101.272 108.249 98.594 109.479 95.438C110.659 92.385 111.469 88.896 111.709 83.788C111.939 78.668 111.999 77.036 111.999 64C111.999 50.964 111.939 49.328 111.709 44.208C111.469 39.098 110.659 35.61 109.479 32.558C108.249 29.401 106.609 26.723 103.939 24.055C101.269 21.385 98.599 19.745 95.439 18.52C92.379 17.333 88.889 16.524 83.779 16.29C78.659 16.057 77.029 16 63.989 16H64.004ZM59.698 24.65C60.976 24.648 62.402 24.65 64.004 24.65C76.82 24.65 78.339 24.696 83.4 24.926C88.08 25.14 90.62 25.922 92.312 26.579C94.552 27.449 96.149 28.489 97.828 30.169C99.508 31.849 100.548 33.449 101.42 35.689C102.077 37.379 102.86 39.919 103.073 44.599C103.303 49.659 103.353 51.179 103.353 63.989C103.353 76.799 103.303 78.319 103.073 83.379C102.859 88.059 102.077 90.599 101.42 92.289C100.55 94.529 99.508 96.124 97.828 97.803C96.148 99.483 94.553 100.523 92.312 101.393C90.622 102.053 88.08 102.833 83.4 103.047C78.34 103.277 76.82 103.327 64.004 103.327C51.187 103.327 49.668 103.277 44.608 103.047C39.928 102.831 37.388 102.049 35.695 101.392C33.455 100.522 31.855 99.482 30.175 97.802C28.495 96.122 27.455 94.526 26.583 92.285C25.926 90.595 25.143 88.055 24.93 83.375C24.7 78.315 24.654 76.795 24.654 63.977C24.654 51.159 24.7 49.647 24.93 44.587C25.144 39.907 25.926 37.367 26.583 35.675C27.453 33.435 28.495 31.835 30.175 30.155C31.855 28.475 33.455 27.435 35.695 26.563C37.387 25.903 39.928 25.123 44.608 24.908C49.036 24.708 50.752 24.648 59.698 24.638V24.65ZM89.626 32.62C86.446 32.62 83.866 35.197 83.866 38.378C83.866 41.558 86.446 44.138 89.626 44.138C92.806 44.138 95.386 41.558 95.386 38.378C95.386 35.198 92.806 32.618 89.626 32.618V32.62ZM64.004 39.35C50.391 39.35 39.354 50.387 39.354 64C39.354 77.613 50.391 88.645 64.004 88.645C77.617 88.645 88.65 77.613 88.65 64C88.65 50.387 77.617 39.35 64.004 39.35ZM64.004 48C72.84 48 80.004 55.163 80.004 64C80.004 72.836 72.84 80 64.004 80C55.167 80 48.004 72.836 48.004 64C48.004 55.163 55.167 48 64.004 48Z" fill="white"/>
<path d="M44.1205 14.2921L44.1211 14.2921C49.2843 14.0571 50.9564 14 63.989 14L44.1205 14.2921ZM44.1205 14.2921C38.8224 14.5347 35.1172 15.3804 31.838 16.6556L44.1205 14.2921ZM14.291 44.1176L14.291 44.117C14.5296 38.8193 15.3766 35.1118 16.6555 31.8307C17.9781 28.4371 19.7642 25.5194 22.6445 22.6411C22.6448 22.6408 22.6451 22.6405 22.6453 22.6403M14.291 44.1176L24.059 24.055L22.6453 22.6403M14.291 44.1176C14.06 49.2814 14 50.9526 14 64C14 77.0467 14.058 78.7127 14.2921 83.8775L14.2921 83.8789M14.291 44.1176L14.2921 83.8789M22.6453 22.6403C25.5233 19.7614 28.4411 17.9749 31.837 16.656L22.6453 22.6403ZM14.2921 83.8789C14.5358 89.1773 15.3816 92.8824 16.6558 96.1614L16.6558 96.1615M14.2921 83.8789L16.6558 96.1615M16.6558 96.1615C17.9757 99.5575 19.7622 102.476 22.6415 105.354M16.6558 96.1615L22.6415 105.354M44.208 111.71C39.099 111.476 35.61 110.667 32.556 109.48C29.401 108.254 26.723 106.61 24.056 103.94C21.387 101.272 19.747 98.594 18.52 95.437L44.208 111.71ZM44.208 111.71C49.328 111.943 50.963 112 63.998 112C77.035 112 78.666 111.943 83.786 111.71H44.208ZM22.6415 105.354C22.6417 105.354 22.6419 105.354 22.6421 105.354M22.6415 105.354L22.6421 105.354M22.6421 105.354C25.5185 108.234 28.4363 110.025 31.8316 111.344C35.1127 112.619 38.819 113.465 44.1165 113.708L44.1171 113.708M22.6421 105.354L44.1171 113.708M44.1171 113.708C49.2823 113.943 50.9526 114 63.998 114C77.0454 114 78.7117 113.943 83.8769 113.708L83.8775 113.708M44.1171 113.708L83.8775 113.708M83.8775 113.708C89.1759 113.465 92.8852 112.62 96.1665 111.344C99.5641 110.024 102.478 108.233 105.354 105.353C108.234 102.475 110.02 99.5577 111.342 96.1643L111.345 96.159M83.8775 113.708L111.345 96.159M111.345 96.159C112.611 92.8817 113.458 89.1777 113.707 83.8819L113.707 83.8778M111.345 96.159L113.707 83.8778M113.707 83.8778C113.939 78.7138 113.999 77.0474 113.999 64C113.999 50.9526 113.939 49.2822 113.707 44.1182L113.707 44.1142M113.707 83.8778L113.707 44.1142M113.707 44.1142C113.458 38.8164 112.611 35.1132 111.344 31.8368L111.343 31.8319M113.707 44.1142L111.343 31.8319M111.343 31.8319C110.02 28.4371 108.234 25.5193 105.353 22.6408C102.474 19.7616 99.564 17.9741 96.1619 16.6552C92.8757 15.3805 89.1691 14.5347 83.8705 14.2921L83.8699 14.2921M111.343 31.8319L83.8699 14.2921M83.8699 14.2921C78.7067 14.0571 77.0406 14 64.004 14L83.8699 14.2921ZM57.698 26.6531V26.6414C50.4878 26.6584 48.7384 26.7235 44.6986 26.9059L57.698 26.6531ZM57.698 26.6531L59.7011 26.65M57.698 26.6531L59.7011 26.65M59.7011 26.65C60.5353 26.6487 61.4312 26.6491 62.4003 26.6495M59.7011 26.65L62.4003 26.6495M96.4138 31.5832L96.4134 31.5828C94.9328 30.1014 93.5717 29.2138 91.5881 28.4434C90.0946 27.8635 87.7682 27.1279 83.3092 26.9239L96.4138 31.5832ZM96.4138 31.5832C97.8949 33.0643 98.7832 34.4288 99.5562 36.4145L96.4138 31.5832ZM99.5557 91.5649L99.5559 91.5643C100.135 90.0735 100.871 87.7473 101.075 83.2882C101.075 83.288 101.075 83.2878 101.075 83.2876L103.073 83.379C103.303 78.319 103.353 76.799 103.353 63.989L99.5557 91.5649ZM99.5557 91.5649C98.7859 93.547 97.8969 94.9065 96.4142 96.3884L96.4138 96.3888M99.5557 91.5649L96.4138 96.3888M96.4138 96.3888C94.9315 97.8711 93.5721 98.7584 91.5882 99.5286L91.5844 99.53M96.4138 96.3888L91.5844 99.53M91.5844 99.53C90.0968 100.111 87.7698 100.845 83.3092 101.049L91.5844 99.53ZM36.4218 28.4263L36.4205 28.4268C34.4348 29.1998 33.0703 30.0881 31.5892 31.5692C30.1074 33.051 29.2178 34.4154 28.4474 36.3989C27.8675 37.8924 27.1319 40.2188 26.9279 44.6778L36.4218 28.4263ZM36.4218 28.4263C37.9121 27.8449 40.2383 27.111 44.6982 26.906L36.4218 28.4263ZM62.4003 26.6495C62.9137 26.6498 63.4477 26.65 64.004 26.65M62.4003 26.6495L64.004 26.65M64.004 26.65C76.8119 26.65 78.2947 26.6961 83.3086 26.9239L64.004 26.65ZM26.654 63.977C26.654 76.7873 26.7001 78.2708 26.9279 83.2841L26.654 63.977ZM26.654 63.977C26.654 51.1671 26.7001 49.6913 26.9279 44.6784L26.654 63.977ZM89.626 30.618H87.626V30.8802C84.3108 31.7619 81.866 34.7833 81.866 38.378C81.866 42.6626 85.3414 46.138 89.626 46.138C93.9106 46.138 97.386 42.6626 97.386 38.378C97.386 34.0934 93.9106 30.618 89.626 30.618ZM44.6988 101.049C40.2401 100.843 37.9134 100.108 36.4186 99.5275C34.4342 98.7567 33.0702 97.8687 31.5892 96.3878C30.1073 94.9059 29.2195 93.5453 28.4471 91.5603C27.8674 90.0691 27.1309 87.743 26.9279 83.2842L44.6988 101.049ZM64.004 37.35C49.2864 37.35 37.354 49.2824 37.354 64C37.354 78.7181 49.287 90.645 64.004 90.645C78.7215 90.645 90.65 78.7177 90.65 64C90.65 49.2829 78.722 37.35 64.004 37.35ZM64.004 50C71.7355 50 78.004 56.2677 78.004 64C78.004 71.7314 71.7354 78 64.004 78C56.2716 78 50.004 71.7315 50.004 64C50.004 56.2676 56.2716 50 64.004 50Z" stroke="black" stroke-opacity="0.25" stroke-width="4"/>
</svg>
