<svg width="128" height="128" viewBox="0 0 128 128" fill="none" xmlns="http://www.w3.org/2000/svg">
<mask id="path-1-outside-1_7_30" maskUnits="userSpaceOnUse" x="12" y="12" width="104" height="104" fill="black">
<rect fill="white" x="12" y="12" width="104" height="104"/>
<path d="M54.4 85.6V42.4L83.2 64M64 16C57.6965 16 51.4548 17.2416 45.6312 19.6538C39.8076 22.066 34.5161 25.6017 30.0589 30.0589C21.0571 39.0606 16 51.2696 16 64C16 76.7304 21.0571 88.9394 30.0589 97.9411C34.5161 102.398 39.8076 105.934 45.6312 108.346C51.4548 110.758 57.6965 112 64 112C76.7304 112 88.9394 106.943 97.9411 97.9411C106.943 88.9394 112 76.7304 112 64C112 57.6965 110.758 51.4548 108.346 45.6312C105.934 39.8076 102.398 34.5161 97.9411 30.0589C93.4839 25.6017 88.1924 22.066 82.3688 19.6538C76.5452 17.2416 70.3035 16 64 16Z"/>
</mask>
<path d="M54.4 85.6V42.4L83.2 64M64 16C57.6965 16 51.4548 17.2416 45.6312 19.6538C39.8076 22.066 34.5161 25.6017 30.0589 30.0589C21.0571 39.0606 16 51.2696 16 64C16 76.7304 21.0571 88.9394 30.0589 97.9411C34.5161 102.398 39.8076 105.934 45.6312 108.346C51.4548 110.758 57.6965 112 64 112C76.7304 112 88.9394 106.943 97.9411 97.9411C106.943 88.9394 112 76.7304 112 64C112 57.6965 110.758 51.4548 108.346 45.6312C105.934 39.8076 102.398 34.5161 97.9411 30.0589C93.4839 25.6017 88.1924 22.066 82.3688 19.6538C76.5452 17.2416 70.3035 16 64 16Z" fill="white"/>
<path d="M54.4 85.6V42.4L83.2 64M64 16C57.6965 16 51.4548 17.2416 45.6312 19.6538C39.8076 22.066 34.5161 25.6017 30.0589 30.0589C21.0571 39.0606 16 51.2696 16 64C16 76.7304 21.0571 88.9394 30.0589 97.9411C34.5161 102.398 39.8076 105.934 45.6312 108.346C51.4548 110.758 57.6965 112 64 112C76.7304 112 88.9394 106.943 97.9411 97.9411C106.943 88.9394 112 76.7304 112 64C112 57.6965 110.758 51.4548 108.346 45.6312C105.934 39.8076 102.398 34.5161 97.9411 30.0589C93.4839 25.6017 88.1924 22.066 82.3688 19.6538C76.5452 17.2416 70.3035 16 64 16Z" stroke="black" stroke-opacity="0.25" stroke-width="8" mask="url(#path-1-outside-1_7_30)"/>
</svg>
