<svg width="50" height="50" xmlns="http://www.w3.org/2000/svg"><path d="M4 8a4 4 0 0 1 4-4h34a4 4 0 0 1 4 4v34a4 4 0 0 1-4 4H8a4 4 0 0 1-4-4V8Z" fill="var(--o-icons-purple-pure, #93407D)"/><path d="M4 8a4 4 0 0 1 4-4h34a4 4 0 0 1 4 4v34a4 4 0 0 1-4 4H8a4 4 0 0 1-4-4V8Z" fill="url(#o_icon_mail_bot__a)" fill-opacity=".2"/><path d="M34 27.432a3 3 0 1 1-6 0 3 3 0 0 1 6 0Zm-5 5.001a4.001 4.001 0 0 1-8 0h8Zm-7-5.001a3 3 0 1 1-6 0 3 3 0 0 1 6 0Z" fill="var(--o-icons-white, #FFFFFF)"/><defs><linearGradient id="o_icon_mail_bot__a" x1="4" y1="4" x2="53.412" y2="16.353" gradientUnits="userSpaceOnUse"><stop stop-color="#fff"/><stop offset="1" stop-color="#fff" stop-opacity="0"/></linearGradient></defs></svg>
