<svg id="Layer_1" data-name="Layer 1" xmlns="http://www.w3.org/2000/svg" xmlns:xlink="http://www.w3.org/1999/xlink" viewBox="0 0 70 70">
  <defs>
    <mask id="mask" x="0" y="0" width="70" height="70" maskUnits="userSpaceOnUse">
      <g id="b">
        <path id="a" d="M4,0H65c4,0,5,1,5,5V65c0,4-1,5-5,5H4c-3,0-4-1-4-5V5C0,1,1,0,4,0Z" fill="#fff" fill-rule="evenodd"/>
      </g>
    </mask>
    <linearGradient id="linear-gradient" x1="-909.8" y1="477.94" x2="-910.8" y2="476.94" gradientTransform="matrix(70, 0, 0, -70, 63756, 33455.73)" gradientUnits="userSpaceOnUse">
      <stop offset="0" stop-color="#269396"/>
      <stop offset="1" stop-color="#218689"/>
    </linearGradient>
  </defs>
  <g mask="url(#mask)">
    <g>
      <path d="M0,0H70V70H0Z" fill-rule="evenodd" fill="url(#linear-gradient)"/>
      <path d="M4,1H65c2.67,0,4.33.67,5,2V0H0V3C.67,1.67,2,1,4,1Z" fill="#fff" fill-opacity="0.38" fill-rule="evenodd"/>
      <path d="M21.76,69H4c-2,0-4-.15-4-4.06v-20L21.16,23.82c17.19-5.88,27.55,1.44,28.92,16.84Z" fill="#393939" fill-rule="evenodd" opacity="0.32" style="isolation: isolate"/>
      <path d="M4,69H65c2.67,0,4.33-1,5-3v4H0V66A3.92,3.92,0,0,0,4,69Z" fill-opacity="0.38" fill-rule="evenodd"/>
      <g>
        <path d="M33,21.2c-10.18,0-18.44,6.09-18.44,13.61a11.49,11.49,0,0,0,3.76,8.25A8.54,8.54,0,0,1,15,49.25c-.25.24-.5.44-.42.77a.69.69,0,0,0,.73.51,17.63,17.63,0,0,0,9.12-3.66A23.59,23.59,0,0,0,33,48.43h0c10.18,0,18.44-6.09,18.44-13.62S43.18,21.2,33,21.2ZM24.77,36.64a2.51,2.51,0,0,1-1.77.73,2,2,0,0,1-.49,0,2.43,2.43,0,0,1-.9-.37,2.24,2.24,0,0,1-.38-.31,2.49,2.49,0,0,1-.73-1.77,2.09,2.09,0,0,1,.05-.49,2.44,2.44,0,0,1,.14-.46,2.22,2.22,0,0,1,.23-.43,1.91,1.91,0,0,1,.31-.38,2.24,2.24,0,0,1,.38-.31,3.62,3.62,0,0,1,.43-.24,2.52,2.52,0,0,1,2.73.55,2.33,2.33,0,0,1,.31.38,2.93,2.93,0,0,1,.23.43,2.44,2.44,0,0,1,.14.46,2.81,2.81,0,0,1,.05.49A2.53,2.53,0,0,1,24.77,36.64Zm10,0a2.51,2.51,0,0,1-1.77.73,2,2,0,0,1-.49,0,2.43,2.43,0,0,1-.9-.37,2.24,2.24,0,0,1-.38-.31,2.49,2.49,0,0,1-.73-1.77,2.09,2.09,0,0,1,.05-.49,2.44,2.44,0,0,1,.14-.46,2.22,2.22,0,0,1,.23-.43,1.91,1.91,0,0,1,.31-.38,2.24,2.24,0,0,1,.38-.31,3.62,3.62,0,0,1,.43-.24,2.52,2.52,0,0,1,2.73.55,2.33,2.33,0,0,1,.31.38,2.93,2.93,0,0,1,.23.43,2.44,2.44,0,0,1,.14.46,2.81,2.81,0,0,1,0,.49A2.53,2.53,0,0,1,34.77,36.64Zm10,0a2.51,2.51,0,0,1-1.77.73,2,2,0,0,1-.49,0,2.43,2.43,0,0,1-.9-.37,2.24,2.24,0,0,1-.38-.31,2.49,2.49,0,0,1-.73-1.77,2.09,2.09,0,0,1,0-.49,2.44,2.44,0,0,1,.14-.46,2.22,2.22,0,0,1,.23-.43,1.91,1.91,0,0,1,.31-.38,2.24,2.24,0,0,1,.38-.31,3.62,3.62,0,0,1,.43-.24,2.52,2.52,0,0,1,2.73.55,2.33,2.33,0,0,1,.31.38,2.93,2.93,0,0,1,.23.43,2.44,2.44,0,0,1,.14.46,2.81,2.81,0,0,1,0,.49A2.53,2.53,0,0,1,44.77,36.64Z" opacity="0.4"/>
        <path d="M35,19.2c-10.18,0-18.44,6.09-18.44,13.61a11.49,11.49,0,0,0,3.76,8.25A8.54,8.54,0,0,1,17,47.25c-.25.24-.5.44-.42.77a.69.69,0,0,0,.73.51,17.63,17.63,0,0,0,9.12-3.66A23.59,23.59,0,0,0,35,46.43h0c10.18,0,18.44-6.09,18.44-13.62S45.18,19.2,35,19.2ZM26.77,34.64a2.51,2.51,0,0,1-1.77.73,2,2,0,0,1-.49,0,2.43,2.43,0,0,1-.9-.37,2.24,2.24,0,0,1-.38-.31,2.49,2.49,0,0,1-.73-1.77,2.09,2.09,0,0,1,.05-.49,2.44,2.44,0,0,1,.14-.46,2.22,2.22,0,0,1,.23-.43,1.91,1.91,0,0,1,.31-.38,2.24,2.24,0,0,1,.38-.31,3.62,3.62,0,0,1,.43-.24,2.52,2.52,0,0,1,2.73.55,2.33,2.33,0,0,1,.31.38,2.93,2.93,0,0,1,.23.43,2.44,2.44,0,0,1,.14.46,2.81,2.81,0,0,1,.05.49A2.53,2.53,0,0,1,26.77,34.64Zm10,0a2.51,2.51,0,0,1-1.77.73,2,2,0,0,1-.49,0,2.43,2.43,0,0,1-.9-.37,2.24,2.24,0,0,1-.38-.31,2.49,2.49,0,0,1-.73-1.77,2.09,2.09,0,0,1,0-.49,2.44,2.44,0,0,1,.14-.46,2.22,2.22,0,0,1,.23-.43,1.91,1.91,0,0,1,.31-.38,2.24,2.24,0,0,1,.38-.31,3.62,3.62,0,0,1,.43-.24,2.52,2.52,0,0,1,2.73.55,2.33,2.33,0,0,1,.31.38,2.93,2.93,0,0,1,.23.43,2.44,2.44,0,0,1,.14.46,2.81,2.81,0,0,1,0,.49A2.53,2.53,0,0,1,36.77,34.64Zm10,0a2.51,2.51,0,0,1-1.77.73,2,2,0,0,1-.49,0,2.43,2.43,0,0,1-.9-.37,2.24,2.24,0,0,1-.38-.31,2.49,2.49,0,0,1-.73-1.77,2.09,2.09,0,0,1,0-.49,2.44,2.44,0,0,1,.14-.46,2.22,2.22,0,0,1,.23-.43,1.91,1.91,0,0,1,.31-.38,2.24,2.24,0,0,1,.38-.31,3.62,3.62,0,0,1,.43-.24,2.52,2.52,0,0,1,2.73.55,2.33,2.33,0,0,1,.31.38,2.93,2.93,0,0,1,.23.43,2.44,2.44,0,0,1,.14.46,2.81,2.81,0,0,1,0,.49A2.53,2.53,0,0,1,46.77,34.64Z" fill="#fff"/>
      </g>
    </g>
  </g>
</svg>
