<svg width="50" height="50" xmlns="http://www.w3.org/2000/svg"><g clip-path="url(#o_icon_mail_bot__a)"><circle cx="25" cy="25" r="25" fill="var(--o-icons-purple-pure, #93407D)"/><circle cx="25" cy="25" r="25" fill="url(#o_icon_mail_bot__b)" fill-opacity=".2"/><path d="M39.26 34.26C36.227 38.918 30.973 42 25 42s-11.227-3.081-14.26-7.74l-1.033 1.033c-.63.63-1.707.184-1.707-.707V25c0-9.389 7.611-17 17-17s17 7.611 17 17v9.586c0 .89-1.077 1.337-1.707.707l-1.034-1.034Z" fill="var(--o-icons-purple-purple, #55103D)"/><path d="M39.26 34.26C36.227 38.918 30.973 42 25 42s-11.227-3.081-14.26-7.74l-1.033 1.033c-.63.63-1.707.184-1.707-.707V25c0-9.389 7.611-17 17-17s17 7.611 17 17v9.586c0 .89-1.077 1.337-1.707.707l-1.034-1.034Z" fill="#fff"/><circle cx="25" cy="25" r="12" fill="var(--o-icons-purple-cyan, #102E7A)"/><circle cx="25" cy="25" r="12" fill="url(#o_icon_mail_bot__c)" fill-opacity=".3"/><path d="M32 25a3 3 0 0 0-6 0h6Z" fill="var(--o-icons-cyan-pure, #1BB6F9)"/><path d="M32 25a3 3 0 0 0-6 0h6Z" fill="url(#o_icon_mail_bot__d)" fill-opacity=".2"/><path d="M24 25a3 3 0 0 0-6 0h6Z" fill="var(--o-icons-cyan-pure, #1BB6F9)"/><path d="M24 25a3 3 0 0 0-6 0h6Z" fill="url(#o_icon_mail_bot__e)" fill-opacity=".2"/></g><defs><linearGradient id="o_icon_mail_bot__b" x1="0" y1="0" x2="58.824" y2="14.706" gradientUnits="userSpaceOnUse"><stop stop-color="#fff"/><stop offset="1" stop-color="#fff" stop-opacity="0"/></linearGradient><linearGradient id="o_icon_mail_bot__c" x1="13" y1="13" x2="41.235" y2="20.059" gradientUnits="userSpaceOnUse"><stop stop-color="#fff"/><stop offset="1" stop-color="#fff" stop-opacity="0"/></linearGradient><linearGradient id="o_icon_mail_bot__d" x1="26" y1="22" x2="32" y2="25" gradientUnits="userSpaceOnUse"><stop stop-color="#fff"/><stop offset="1" stop-color="#fff" stop-opacity="0"/></linearGradient><linearGradient id="o_icon_mail_bot__e" x1="18" y1="22" x2="24" y2="25" gradientUnits="userSpaceOnUse"><stop stop-color="#fff"/><stop offset="1" stop-color="#fff" stop-opacity="0"/></linearGradient></defs></svg>
