<?xml version="1.0" ?><svg id="solid" viewBox="0 0 512 512" xmlns="http://www.w3.org/2000/svg"><title/><path d="M407.951,343.116a7.2,7.2,0,0,1,.048.733c.121,13.4-15.891,29.5-41.725,41.981C345.344,395.944,309.222,408,256,408s-89.344-12.056-110.274-22.17C119.892,373.348,103.88,357.246,104,343.849a7.2,7.2,0,0,1,.048-.733L115.1,243.624a7,7,0,0,1,9.82-5.615L242.911,290.9a32.043,32.043,0,0,0,26.179,0l117.986-52.89a7,7,0,0,1,9.82,5.615ZM474.988,153.4l-205.9-92.3a32.037,32.037,0,0,0-26.179,0l-205.9,92.3a16,16,0,0,0,0,29.2l205.9,92.3a32.043,32.043,0,0,0,26.179,0L440,198.284v59.874A15.98,15.98,0,0,0,432,272V376h32V272a15.98,15.98,0,0,0-8-13.842V191.111l18.987-8.511a16,16,0,0,0,0-29.2Z" style="fill:#3b3b3b"/></svg>