<svg width="50" height="50" viewBox="0 0 50 50" xmlns="http://www.w3.org/2000/svg"><path d="M13.238 11.483a1.927 1.927 0 0 1 .654-2.55c1.403-.912 2.927-1.233 4.181-.613.2.1.376.24.54.39L49.26 37.346c.472.426.741 1.025.741 1.653H28L13.238 11.483Z" fill="#FC868B"/><path d="M50 39c0 1.657-4.925 3-11 3s-11-1.343-11-3 4.925-3 11-3 11 1.343 11 3Z" fill="#F9464C"/><path d="M36.762 11.483a1.927 1.927 0 0 0-.654-2.55c-1.403-.912-2.927-1.233-4.181-.613-.2.1-.376.24-.54.39L.74 37.346A2.226 2.226 0 0 0 0 39h22l14.762-27.517Z" fill="#FBB945"/><path d="M31.693 20.93 25 14.677l-6.693 6.255L25 33.407l6.693-12.476Z" fill="#F86126"/><path d="M0 39c0 1.657 4.925 3 11 3s11-1.343 11-3-4.925-3-11-3-11 1.343-11 3Z" fill="#F78613"/></svg>
