<svg width="70" height="70" viewBox="0 0 70 70" fill="none" xmlns="http://www.w3.org/2000/svg">
<path d="M23.2377 21.4835C22.7504 20.5959 23.0337 19.4923 23.8923 18.9337C25.2951 18.0211 26.819 17.7001 28.0733 18.3204C28.2739 18.4196 28.4487 18.5603 28.6139 18.7092L59.2588 47.3467C59.7313 47.7728 60 48.3721 60 49H38L23.2377 21.4835Z" fill="#FC868B"/>
<path d="M60 49C60 50.6569 55.0751 52 49 52C42.9249 52 38 50.6569 38 49C38 47.3431 42.9249 46 49 46C55.0751 46 60 47.3431 60 49Z" fill="#F9464C"/>
<path d="M46.7623 21.4835C47.2496 20.5959 46.9663 19.4923 46.1077 18.9337C44.7049 18.0211 43.181 17.7001 41.9267 18.3204C41.7261 18.4196 41.5513 18.5603 41.3861 18.7092L10.7412 47.3467C10.2687 47.7728 10 48.3721 10 49H32L46.7623 21.4835Z" fill="#FBB945"/>
<path d="M41.6933 30.9316L35 24.6768L28.3066 30.9316L35 43.4078L41.6933 30.9316Z" fill="#F86126"/>
<path d="M10 49C10 50.6569 14.9249 52 21 52C27.0751 52 32 50.6569 32 49C32 47.3431 27.0751 46 21 46C14.9249 46 10 47.3431 10 49Z" fill="#F78613"/>
</svg>
