<svg width="18" height="18" xmlns="http://www.w3.org/2000/svg"><g clip-path="url(#a)" fill="#000"><path d="M10.49 3.314c.337-.565.54-1.23.54-1.792C11.03.262 10.008 0 8.747 0c-1.26 0-2.282.261-2.282 1.522 0 .562.203 1.227.54 1.793a5.703 5.703 0 0 1 1.743-.272c.608 0 1.193.095 1.742.271ZM13.125 8.75a4.375 4.375 0 1 1-8.75 0 4.375 4.375 0 0 1 8.75 0ZM7.005 14.185c-.337.566-.54 1.231-.54 1.793 0 1.26 1.022 1.522 2.282 1.522 1.261 0 2.283-.261 2.283-1.522 0-.562-.203-1.227-.54-1.792a5.702 5.702 0 0 1-1.742.27 5.703 5.703 0 0 1-1.743-.27ZM14.456 8.75c0 .725-.136 1.418-.382 2.055.588.377 1.304.608 1.903.608 1.26 0 1.522-1.022 1.522-2.283 0-1.26-.261-2.282-1.522-2.282-.53 0-1.155.181-1.699.485.116.453.178.928.178 1.417ZM1.522 6.848c.531 0 1.155.181 1.7.486a5.717 5.717 0 0 0 .203 3.47c-.587.378-1.304.609-1.903.609C.262 11.413 0 10.391 0 9.13c0-1.26.261-2.282 1.522-2.282Z"/></g><defs><clipPath id="a"><path fill="#fff" d="M0 0h17.5v17.5H0z"/></clipPath></defs></svg>
