<svg viewBox="0 0 800 500" fill="none" xmlns="http://www.w3.org/2000/svg">
    <g clip-path="url(#clip1)">
        <g filter="url(#blur_1)">
            <path d="M-105.042 150C-14.2494 234.648 524.449 54.9457 824.726 53.4363L800.519 -163.376L-125.218 -86.9098L-105.042 150Z" fill="#3AADAA"/>
            <path d="M225.332 -193.316C58.5728 -176.368 -70.1825 -99.3607 -62.2508 -21.3151C-54.3191 56.7305 87.2961 106.26 254.056 89.3126C420.815 72.365 549.57 -4.64226 541.639 -82.6879C533.707 -160.734 392.092 -210.263 225.332 -193.316Z" fill="#F6F6F6" fill-opacity="0.5"/>
            <path d="M428.754 -124.008C214.579 -83.3523 21.0468 263.557 -48.9473 220L-187.246 -7.07613L428.754 -124.008Z" fill="white" fill-opacity="0.3"/>
        </g>
        <g filter="url(#blur_2)">
            <path d="M675.427 -94.5535C529.308 -107.309 406.351 -66.0598 400.795 -2.42067C395.24 61.2184 509.19 123.149 655.309 135.904C801.429 148.66 924.386 107.41 929.941 43.7712C935.496 -19.8679 821.547 -81.798 675.427 -94.5535Z" fill="#7C6576" fill-opacity="0.8"/>
        </g>
    </g>
    <defs>
        <filter id="blur_1" x="-287.246" y="-296.639" width="1211.97" height="828.569" filterUnits="userSpaceOnUse" color-interpolation-filters="sRGB">
            <feFlood flood-opacity="0" result="BackgroundImageFix"/>
            <feBlend mode="normal" in="SourceGraphic" in2="BackgroundImageFix" result="shape"/>
            <feGaussianBlur stdDeviation="50" result="effect1_foregroundBlur_9_2"/>
        </filter>
        <filter id="blur_2" x="250.601" y="-246.868" width="829.535" height="535.087" filterUnits="userSpaceOnUse" color-interpolation-filters="sRGB">
            <feFlood flood-opacity="0" result="BackgroundImageFix"/>
            <feBlend mode="normal" in="SourceGraphic" in2="BackgroundImageFix" result="shape"/>
            <feGaussianBlur stdDeviation="75" result="effect1_foregroundBlur_9_2"/>
        </filter>
        <clipPath id="clip1">
            <rect width="800" height="500" fill="white"/>
        </clipPath>
    </defs>
</svg>
