<svg width="64" height="64" viewBox="0 0 64 64" fill="none" xmlns="http://www.w3.org/2000/svg">
<path d="M31.2898 62.2633L6.87891 48.0236V19.7334L31.2898 33.9731V62.2633Z" fill="#C1DBF6" stroke="#C1DBF6" stroke-miterlimit="10"/>
<path d="M31.2891 62.2629L57.1192 47.3136V19.0234L31.2891 33.9728V62.2629Z" fill="white"/>
<path d="M42.2461 55.915L48.4411 52.3283V24.0381L42.2461 27.6249V55.915Z" fill="#FBDBD0"/>
<path d="M21.3552 56.4649L15.1602 52.8537V24.5635L21.3552 28.1747V56.4649Z" fill="#FBDBD0"/>
<path d="M59.7054 17.5197L32.7945 1.7373L4.29297 18.2373L31.2895 33.9768L59.7054 17.5197Z" fill="white"/>
<path d="M4.29297 27.6335V18.2373L31.2895 33.9768V43.3389" fill="#C1DBF6"/>
<path d="M59.7049 26.8507V17.5195L31.2891 33.9767V43.3387" fill="white"/>
<path d="M43.3008 36.3623L50.1334 32.4064V23.0684L43.3008 27.0243V36.3623Z" fill="#FBDBD0"/>
<path d="M15.5684 11.7108L22.401 7.75488L50.1336 23.0687L43.3009 27.0247L15.5684 11.7108Z" fill="#FBDBD0"/>
<path d="M20.5963 37.1189L13.7637 33.144V23.7598L20.5963 27.7427V37.1189Z" fill="#FBDBD0"/>
<path d="M49.9375 11.7915L43.1262 7.79688L13.7637 23.7592L20.5963 27.7421L49.9375 11.7915Z" fill="#FBDBD0"/>
<path d="M32.6818 15.0917V10.6034C32.6818 10.6034 32.4648 6.67474 29.4405 4.57088C27.3697 3.13029 26.3793 3.67052 26.3793 3.67052L20.752 6.91184C20.752 6.91184 22.1475 5.96771 24.2407 7.94727C27.1446 10.6934 25.839 15.6004 25.839 15.6004L32.6818 15.0917Z" fill="#FBDBD0"/>
<path fill-rule="evenodd" clip-rule="evenodd" d="M27.1536 3.35286C27.7082 3.40215 28.5108 3.64569 29.5711 4.3833C31.1367 5.47242 31.9697 7.02936 32.4113 8.30116C32.6325 8.93818 32.7569 9.50776 32.8262 9.91872C32.8608 10.1243 32.8817 10.2907 32.894 10.4064C32.9001 10.4642 32.9041 10.5095 32.9066 10.5407C32.9078 10.5563 32.9087 10.5684 32.9093 10.5768L32.9099 10.5866L32.9101 10.5894L32.9101 10.5903L32.9101 10.5906C32.9101 10.5907 32.9102 10.5908 32.6819 10.6034L32.9102 10.5908C32.9104 10.595 32.9105 10.5992 32.9105 10.6034V15.0918C32.9105 15.2114 32.8182 15.3108 32.6989 15.3197L25.8561 15.8284C25.7823 15.8339 25.7104 15.8033 25.6632 15.7464C25.616 15.6895 25.5992 15.6132 25.6182 15.5417L25.6183 15.5414L25.6188 15.5393L25.6213 15.53C25.6234 15.5215 25.6267 15.5084 25.6309 15.491C25.6393 15.4561 25.6515 15.404 25.6661 15.3362C25.6953 15.2006 25.7341 15.0027 25.7718 14.7562C25.8474 14.2629 25.9183 13.5774 25.9004 12.809C25.8644 11.2661 25.4717 9.42594 24.0838 8.1134L24.2408 7.94733L24.0838 8.1134C23.0706 7.15529 22.2508 6.92597 21.7072 6.91581C21.4326 6.91068 21.22 6.96117 21.0787 7.0109C21.0087 7.03557 20.9561 7.06006 20.9224 7.07752L20.8661 7.10996C20.7595 7.17137 20.6234 7.13738 20.5582 7.03306C20.493 6.92874 20.5221 6.79152 20.624 6.72258L20.752 6.9119C20.624 6.72258 20.6241 6.72247 20.6243 6.72236L20.6246 6.72212L20.6255 6.72157L20.6275 6.72023L20.6331 6.71657C20.6376 6.71372 20.6435 6.71006 20.6507 6.70572C20.6636 6.69802 20.6808 6.68816 20.7022 6.67682L26.2653 3.47251L26.2699 3.46991L26.3793 3.67057C26.2699 3.46991 26.2701 3.4698 26.2703 3.46969L26.2707 3.46946L26.2717 3.46896L26.2738 3.46783L26.2792 3.46503C26.2833 3.46295 26.2885 3.46043 26.2947 3.45756C26.307 3.45183 26.3234 3.44469 26.344 3.43681C26.3851 3.42102 26.4425 3.40226 26.5163 3.38566C26.6644 3.35239 26.8766 3.32824 27.1536 3.35286ZM26.4876 3.87202L21.9673 6.47568C22.6149 6.55021 23.446 6.88107 24.3979 7.78126C25.9138 9.21484 26.3202 11.2012 26.3574 12.7984C26.3761 13.6 26.3022 14.3129 26.2237 14.8254C26.1914 15.0362 26.1583 15.2135 26.1304 15.3496L32.4534 14.8795V10.6105L32.4532 10.6074C32.4527 10.6008 32.452 10.5906 32.4509 10.5769C32.4487 10.5495 32.4451 10.5083 32.4394 10.4546C32.428 10.3473 32.4083 10.1902 32.3754 9.99468C32.3094 9.60328 32.1906 9.05921 31.9794 8.45109C31.5564 7.23262 30.7688 5.77331 29.3101 4.75857C28.2995 4.05559 27.5715 3.84895 27.1132 3.80821C26.8837 3.78781 26.7189 3.80868 26.6166 3.83168C26.5652 3.84322 26.5291 3.85541 26.5079 3.86354C26.4976 3.8675 26.4908 3.8705 26.4876 3.87202Z" fill="#374874"/>
<path d="M25.8385 15.6011C25.8385 15.6011 27.1441 10.6941 24.2402 7.94794C22.147 5.9684 20.7515 6.91252 20.7515 6.91252C20.7515 6.91252 18.6806 7.94794 20.3013 11.7745C21.9219 15.6011 25.8385 15.6011 25.8385 15.6011Z" fill="white"/>
<path fill-rule="evenodd" clip-rule="evenodd" d="M21.5988 6.91649C22.1424 6.92665 22.9622 7.15597 23.9754 8.11407C25.3633 9.42662 25.756 11.2668 25.792 12.8097C25.8099 13.5781 25.739 14.2635 25.6634 14.7569C25.6257 15.0034 25.5869 15.2012 25.5577 15.3368C25.5557 15.3462 25.5537 15.3552 25.5518 15.364C25.4483 15.3564 25.3038 15.3422 25.1279 15.3154C24.7489 15.2576 24.2265 15.142 23.6556 14.9109C22.5165 14.4499 21.1855 13.5307 20.4039 11.6854C19.6103 9.81159 19.7369 8.66289 20.021 7.99845C20.1642 7.66335 20.3521 7.43993 20.501 7.30159C20.5756 7.23229 20.6404 7.1843 20.685 7.15448C20.7072 7.13958 20.7243 7.12927 20.735 7.12314C20.7403 7.12008 20.744 7.11807 20.7458 7.11707L20.7469 7.11648L20.7465 7.1167M20.5283 6.71498C20.5322 6.71254 20.5369 6.70966 20.5423 6.70639C20.5568 6.6977 20.5769 6.68625 20.6023 6.67304C20.6532 6.64662 20.7257 6.61306 20.8185 6.58039C21.0043 6.51496 21.2714 6.45314 21.6073 6.45943C22.2848 6.47209 23.2094 6.76049 24.2895 7.78193C25.8054 9.21551 26.2118 11.2019 26.249 12.799C26.2677 13.6007 26.1938 14.3136 26.1153 14.8261C26.076 15.0826 26.0355 15.2895 26.0046 15.433C25.9892 15.5048 25.9761 15.5607 25.9669 15.5991C25.9622 15.6183 25.9585 15.6331 25.9559 15.6433L25.9529 15.6551L25.952 15.6584L25.9517 15.6597C25.9516 15.6598 25.9516 15.6599 25.7307 15.6011L25.9517 15.6597C25.925 15.7598 25.8343 15.8297 25.7307 15.8297L25.7307 15.6011C25.7307 15.8297 25.7306 15.8297 25.7305 15.8297L25.7291 15.8297L25.7261 15.8297L25.7159 15.8296C25.7072 15.8294 25.6948 15.8292 25.679 15.8287C25.6474 15.8276 25.6018 15.8256 25.5438 15.8217C25.4279 15.8139 25.2622 15.7983 25.059 15.7673C24.653 15.7055 24.0949 15.5819 23.4841 15.3347C22.2597 14.8391 20.8221 13.845 19.983 11.8637C19.1559 9.91097 19.2544 8.62868 19.6006 7.81876C19.7725 7.41668 20.0011 7.14208 20.1898 6.9667C20.284 6.87914 20.3683 6.81635 20.4307 6.77459C20.4619 6.7537 20.4877 6.73803 20.5066 6.72712C20.5154 6.72208 20.5226 6.71804 20.5283 6.71498Z" fill="#374874"/>
<path d="M32.6816 15.0917V10.6034C32.6816 10.6034 32.8987 6.67474 35.923 4.57088C37.9938 3.13029 38.9842 3.67052 38.9842 3.67052L44.6115 6.91184C44.6115 6.91184 43.216 5.96771 41.1228 7.94727C38.2189 10.6934 39.5245 15.6004 39.5245 15.6004L32.6816 15.0917Z" fill="#FBDBD0"/>
<path fill-rule="evenodd" clip-rule="evenodd" d="M38.2505 3.80821C37.7921 3.84895 37.0641 4.05559 36.0536 4.75857C34.5949 5.77331 33.8072 7.23262 33.3842 8.45109C33.1731 9.05921 33.0542 9.60328 32.9883 9.99468C32.9553 10.1902 32.9356 10.3473 32.9242 10.4546C32.9185 10.5083 32.9149 10.5495 32.9127 10.5769C32.9116 10.5906 32.9109 10.6008 32.9105 10.6074L32.9103 10.6105V14.8796L39.2333 15.3496C39.2053 15.2135 39.1722 15.0362 39.14 14.8254C39.0615 14.3129 38.9875 13.6 39.0062 12.7984C39.0434 11.2012 39.4499 9.21484 40.9658 7.78126C41.9176 6.88107 42.7487 6.55021 43.3963 6.47568L38.8761 3.87202C38.8728 3.87051 38.866 3.8675 38.8557 3.86354C38.8345 3.85541 38.7984 3.84322 38.7471 3.83168C38.6447 3.80868 38.4799 3.78781 38.2505 3.80821ZM38.9843 3.67057L39.0937 3.46991L39.0984 3.47251L44.6614 6.67682C44.6829 6.68816 44.7001 6.69802 44.7129 6.70572C44.7202 6.71006 44.726 6.71372 44.7305 6.71657L44.7361 6.72023L44.7382 6.72157L44.739 6.72212L44.7393 6.72236C44.7395 6.72247 44.7397 6.72258 44.6116 6.9119L44.7397 6.72258C44.8416 6.79152 44.8706 6.92874 44.8054 7.03306C44.7402 7.13738 44.6041 7.17137 44.4975 7.10996L44.4412 7.07751C44.4075 7.06006 44.355 7.03557 44.2849 7.0109C44.1437 6.96117 43.931 6.91068 43.6564 6.91581C43.1128 6.92597 42.293 7.15529 41.2799 8.1134C39.8919 9.42594 39.4992 11.2661 39.4632 12.809C39.4453 13.5774 39.5163 14.2629 39.5918 14.7562C39.6296 15.0027 39.6684 15.2006 39.6975 15.3362C39.7121 15.404 39.7243 15.4561 39.7327 15.491C39.7369 15.5084 39.7402 15.5215 39.7424 15.53L39.7448 15.5393L39.7453 15.5414L39.7454 15.5417C39.7454 15.5417 39.7454 15.5418 39.7454 15.5418C39.7644 15.6133 39.7476 15.6895 39.7004 15.7464C39.6532 15.8033 39.5813 15.8339 39.5076 15.8284L32.6648 15.3197C32.5454 15.3108 32.4531 15.2114 32.4531 15.0918V10.6034C32.4531 10.5992 32.4532 10.595 32.4535 10.5908L32.6817 10.6034C32.4535 10.5908 32.4535 10.5907 32.4535 10.5906L32.4535 10.5903L32.4536 10.5894L32.4537 10.5866L32.4544 10.5768C32.4549 10.5684 32.4558 10.5563 32.457 10.5407C32.4595 10.5095 32.4635 10.4642 32.4696 10.4064C32.4819 10.2907 32.5028 10.1243 32.5375 9.91872C32.6067 9.50776 32.7312 8.93818 32.9523 8.30116C33.3939 7.02936 34.2269 5.47242 35.7925 4.3833L35.923 4.57094L35.7925 4.3833C36.8528 3.64569 37.6554 3.40215 38.21 3.35286C38.487 3.32824 38.6992 3.35239 38.8473 3.38566C38.9211 3.40226 38.9786 3.42102 39.0197 3.43681C39.0402 3.44469 39.0566 3.45183 39.069 3.45756C39.0751 3.46043 39.0803 3.46295 39.0844 3.46503L39.0898 3.46783L39.092 3.46896L39.0929 3.46946L39.0933 3.46969C39.0935 3.4698 39.0937 3.46991 38.9843 3.67057ZM44.485 7.10221L44.4846 7.10192C44.485 7.10223 44.4852 7.10233 44.485 7.10221Z" fill="#374874"/>
<path d="M39.5251 15.6011C39.5251 15.6011 38.2195 10.6941 41.1234 7.94794C43.2166 5.9684 44.6122 6.91252 44.6122 6.91252C44.6122 6.91252 46.683 7.94794 45.0624 11.7745C43.4417 15.6011 39.5251 15.6011 39.5251 15.6011Z" fill="white"/>
<path fill-rule="evenodd" clip-rule="evenodd" d="M43.6551 6.91649C43.1115 6.92665 42.2917 7.15597 41.2785 8.11407C39.8906 9.42662 39.4979 11.2668 39.4619 12.8097C39.444 13.5781 39.5149 14.2635 39.5905 14.7569C39.6282 15.0034 39.667 15.2012 39.6962 15.3368C39.6982 15.3462 39.7002 15.3552 39.7021 15.364C39.8056 15.3564 39.9501 15.3422 40.126 15.3154C40.5051 15.2576 41.0274 15.142 41.5983 14.9109C42.7374 14.4499 44.0685 13.5307 44.85 11.6854C45.6436 9.81159 45.517 8.66289 45.2329 7.99845C45.0897 7.66335 44.9018 7.43993 44.7529 7.30159C44.6783 7.23229 44.6135 7.1843 44.5689 7.15448C44.5467 7.13958 44.5296 7.12927 44.5189 7.12314C44.5136 7.12008 44.51 7.11807 44.5081 7.11707L44.507 7.11648L44.5074 7.1167M44.7256 6.71498C44.7217 6.71254 44.717 6.70966 44.7116 6.70639C44.6971 6.6977 44.677 6.68625 44.6516 6.67304C44.6007 6.64662 44.5282 6.61306 44.4354 6.58039C44.2496 6.51496 43.9826 6.45314 43.6466 6.45943C42.9691 6.47209 42.0445 6.76049 40.9644 7.78193C39.4485 9.21551 39.0421 11.2019 39.0049 12.799C38.9862 13.6007 39.0601 14.3136 39.1386 14.8261C39.1779 15.0826 39.2184 15.2895 39.2493 15.433C39.2647 15.5048 39.2778 15.5607 39.2871 15.5991C39.2917 15.6183 39.2954 15.6331 39.298 15.6433L39.301 15.6551L39.3019 15.6584L39.3022 15.6597C39.3023 15.6598 39.3023 15.6599 39.5232 15.6011L39.3022 15.6597C39.3289 15.7598 39.4196 15.8297 39.5232 15.8297L39.5232 15.6011C39.5232 15.8297 39.5233 15.8297 39.5234 15.8297L39.5248 15.8297L39.5278 15.8297L39.538 15.8296C39.5467 15.8294 39.5591 15.8292 39.5749 15.8287C39.6065 15.8276 39.6521 15.8256 39.7101 15.8217C39.826 15.8139 39.9917 15.7983 40.1949 15.7673C40.6009 15.7055 41.159 15.5819 41.7698 15.3347C42.9942 14.8391 44.4318 13.845 45.2709 11.8637C46.098 9.91097 45.9995 8.62868 45.6533 7.81876C45.4814 7.41668 45.2528 7.14208 45.0641 6.9667C44.9699 6.87914 44.8856 6.81635 44.8232 6.77459C44.792 6.7537 44.7662 6.73803 44.7473 6.72712C44.7385 6.72208 44.7313 6.71804 44.7256 6.71498Z" fill="#374874"/>
<path d="M41.9254 18.4847C41.7636 17.7361 41.483 17.0377 41.1228 16.3977C39.5644 13.6281 36.5144 11.9474 35.1239 11.9992C33.008 12.078 32.6816 15.092 32.6816 15.092V21.0969L39.1418 24.7621C39.6486 24.7852 40.7405 24.8118 41.2491 24.2419C42.2203 23.1537 42.4263 20.8011 41.9254 18.4847Z" fill="#C1DBF6"/>
<path fill-rule="evenodd" clip-rule="evenodd" d="M38.1879 12.9508C39.3428 13.7267 40.5222 14.8641 41.322 16.2856C41.6922 16.9434 41.9817 17.6631 42.1489 18.4365C42.4037 19.6151 42.4799 20.8072 42.3666 21.8487C42.2539 22.8844 41.9506 23.7993 41.4197 24.3941C41.1122 24.7387 40.6473 24.8859 40.2297 24.9503C39.8058 25.0157 39.3868 25.0021 39.1314 24.9905C39.0955 24.9888 39.0604 24.9787 39.0291 24.9609L32.5689 21.2957C32.4973 21.2551 32.4531 21.1792 32.4531 21.0969V15.092C32.4531 15.0838 32.4536 15.0756 32.4545 15.0674L32.6817 15.092C32.4545 15.0674 32.4545 15.0673 32.4545 15.0672L32.4545 15.067L32.4546 15.0662L32.4548 15.064L32.4557 15.0562C32.4565 15.0497 32.4577 15.0403 32.4593 15.0283C32.4624 15.0044 32.4672 14.97 32.4741 14.9267C32.4878 14.84 32.5097 14.7171 32.5427 14.5698C32.6086 14.2762 32.7198 13.881 32.9012 13.4808C33.2603 12.6888 33.927 11.8151 35.1155 11.7709L35.124 11.9992L35.1155 11.7709C35.5061 11.7563 35.9901 11.8626 36.5104 12.0617C37.0343 12.2622 37.6099 12.5625 38.1879 12.9508ZM32.9103 15.1054C32.9108 15.1009 32.9116 15.0951 32.9125 15.088C32.9152 15.0677 32.9194 15.0373 32.9256 14.9981C32.938 14.9196 32.9582 14.8064 32.9888 14.6699C33.0502 14.3959 33.1529 14.0327 33.3176 13.6696C33.6506 12.9349 34.2051 12.2622 35.1325 12.2277C35.4371 12.2163 35.8557 12.3007 36.3471 12.4887C36.8348 12.6753 37.3798 12.9586 37.933 13.3302C39.0402 14.0741 40.1651 15.1617 40.9236 16.5098L40.9236 16.5098C41.2739 17.1322 41.5456 17.8092 41.7021 18.5331L41.7021 18.5331C41.9481 19.6709 42.0194 20.8133 41.9121 21.7992C41.8042 22.7909 41.5189 23.5964 41.0787 24.0897L41.2492 24.2419L41.0787 24.0897C40.8775 24.3152 40.5421 24.4396 40.16 24.4985C39.8103 24.5525 39.4568 24.5465 39.2068 24.5362L32.9103 20.9638V15.1054Z" fill="#374874"/>
<path d="M47.1463 14.7008C46.8762 14.0705 45.7057 10.6491 41.384 9.02838C40.3035 8.62319 39.1779 9.3633 38.5097 9.8055C36.9771 10.8197 35.405 11.6874 34.7168 12.0568C34.8446 12.0263 34.9787 12.005 35.1226 11.9996C36.8345 11.9358 41.0621 14.4982 41.9242 18.4851C42.4251 20.8015 42.219 23.1541 41.2479 24.2422L46.321 21.3185C46.321 21.3185 47.1163 20.8832 47.5965 19.6828C48.0767 18.4822 47.4164 15.331 47.1463 14.7008Z" fill="#FBDBD0"/>
<path fill-rule="evenodd" clip-rule="evenodd" d="M39.7113 8.88554C40.2399 8.68503 40.8527 8.58508 41.4643 8.81445C45.6328 10.3777 46.939 13.5868 47.3009 14.4762C47.3227 14.5298 47.3411 14.5749 47.3565 14.6108C47.5042 14.9554 47.7399 15.926 47.8793 16.9471C47.9496 17.4619 47.9968 17.9992 47.9954 18.4873C47.994 18.9698 47.9452 19.4268 47.8088 19.7678C47.5558 20.4003 47.2183 20.8347 46.9404 21.1125C46.8016 21.2513 46.6779 21.3509 46.5871 21.4168C46.5417 21.4498 46.5045 21.4743 46.4778 21.4911C46.4644 21.4995 46.4536 21.506 46.4457 21.5106C46.4417 21.5129 46.4385 21.5148 46.436 21.5162L46.4328 21.518L41.3621 24.4403C41.2649 24.4964 41.1414 24.4735 41.0706 24.3865C40.9998 24.2994 41.0027 24.1738 41.0774 24.0901C41.5177 23.5968 41.803 22.7914 41.9109 21.7996C42.0182 20.8137 41.9469 19.6713 41.7009 18.5335C41.2838 16.6048 40.0491 15.0092 38.6972 13.9001C38.0224 13.3465 37.3235 12.9186 36.6924 12.6339C36.056 12.3467 35.5084 12.2141 35.1313 12.2281C35.0048 12.2328 34.8858 12.2515 34.77 12.2792C34.6583 12.3059 34.5441 12.2456 34.5033 12.1382C34.4624 12.0309 34.5076 11.9099 34.6088 11.8555C35.2944 11.4875 36.8596 10.6236 38.3837 9.61497C38.7158 9.39516 39.1842 9.08549 39.7113 8.88554ZM46.2112 21.1182L46.2146 21.1162C46.2186 21.1139 46.2253 21.1098 46.2346 21.104C46.2532 21.0923 46.2819 21.0735 46.3186 21.0468C46.392 20.9936 46.4971 20.9094 46.6171 20.7893C46.857 20.5494 47.1572 20.1659 47.3844 19.598C47.4881 19.3387 47.5369 18.9516 47.5383 18.4859C47.5396 18.0257 47.4949 17.5108 47.4264 17.0089C47.2882 15.9967 47.0587 15.0766 46.9363 14.7909C46.9208 14.7546 46.9023 14.7092 46.8805 14.6558C46.5249 13.7824 45.2839 10.7351 41.3038 9.24248C40.835 9.06666 40.3447 9.13418 39.8734 9.31297C39.4006 9.49234 38.972 9.77382 38.6359 9.9962C37.5463 10.7173 36.4377 11.3642 35.6375 11.8124C36.0131 11.8779 36.4375 12.0173 36.8805 12.2172C37.5505 12.5195 38.2833 12.9694 38.9871 13.5467C40.3925 14.6996 41.7026 16.3786 42.1477 18.4368C42.4025 19.6155 42.4787 20.8076 42.3654 21.8491C42.2956 22.4903 42.1528 23.0852 41.9281 23.5865L46.207 21.1206L46.2108 21.1184L46.2112 21.1182Z" fill="#374874"/>
<path d="M30.239 11.9992C28.8485 11.9474 25.7985 13.6281 24.2401 16.3977C23.8799 17.0377 23.5993 17.7361 23.4375 18.4847C22.9366 20.8011 23.1426 23.1537 24.1138 24.2419C24.6224 24.8118 25.7143 24.7852 26.2211 24.7621L32.6813 21.0969V15.092C32.6813 15.092 32.3549 12.078 30.239 11.9992Z" fill="#C1DBF6"/>
<path fill-rule="evenodd" clip-rule="evenodd" d="M28.8526 12.0617C29.3729 11.8626 29.8569 11.7563 30.2476 11.7709C31.436 11.8151 32.1027 12.6888 32.4618 13.4808C32.6432 13.881 32.7544 14.2762 32.8203 14.5698C32.8533 14.7171 32.8752 14.84 32.8889 14.9267C32.8958 14.97 32.9006 15.0044 32.9038 15.0283C32.9053 15.0403 32.9065 15.0497 32.9073 15.0562L32.9082 15.064L32.9084 15.0662L32.9085 15.067L32.9085 15.0672C32.9085 15.0673 32.9086 15.0674 32.6813 15.092L32.9086 15.0674C32.9094 15.0756 32.9099 15.0838 32.9099 15.092V21.0969C32.9099 21.1792 32.8657 21.2551 32.7941 21.2957L26.3339 24.9609C26.3026 24.9787 26.2675 24.9888 26.2316 24.9905C25.9762 25.0021 25.5572 25.0157 25.1333 24.9503C24.7157 24.8859 24.2508 24.7387 23.9433 24.3941L24.1138 24.2419L23.9433 24.3941C23.4124 23.7993 23.1091 22.8844 22.9964 21.8487C22.8831 20.8072 22.9593 19.6151 23.2141 18.4365C23.3813 17.6631 23.6708 16.9434 24.041 16.2856C24.8408 14.8641 26.0202 13.7267 27.1751 12.9508C27.7531 12.5625 28.3287 12.2622 28.8526 12.0617ZM32.4527 15.1054C32.4522 15.1009 32.4514 15.0951 32.4505 15.088C32.4478 15.0677 32.4436 15.0373 32.4374 14.9981C32.425 14.9196 32.4048 14.8064 32.3742 14.6699C32.3128 14.396 32.2101 14.0327 32.0455 13.6696C31.7124 12.9349 31.1579 12.2622 30.2305 12.2277C29.9259 12.2163 29.5073 12.3007 29.016 12.4887C28.5282 12.6753 27.9832 12.9586 27.4301 13.3302C26.3228 14.0741 25.1979 15.1617 24.4394 16.5098L24.4394 16.5098C24.0891 17.1322 23.8175 17.8092 23.6609 18.5331L23.4377 18.4848L23.6609 18.5331C23.4149 19.6709 23.3436 20.8133 23.4509 21.7992C23.5588 22.7909 23.8441 23.5964 24.2844 24.0897L24.115 24.2409L24.2844 24.0897C24.4855 24.3152 24.8209 24.4396 25.203 24.4985C25.5527 24.5525 25.9062 24.5465 26.1562 24.5362L32.4527 20.9638V15.1054Z" fill="#374874"/>
<path d="M18.2161 14.7008C18.4863 14.0705 19.6567 10.6491 23.9785 9.02838C25.059 8.62319 26.1845 9.3633 26.8528 9.8055C28.3854 10.8197 29.9575 11.6874 30.6457 12.0568C30.5179 12.0263 30.3838 12.005 30.2398 11.9996C28.5279 11.9358 24.3004 14.4982 23.4383 18.4851C22.9374 20.8015 23.1434 23.1541 24.1146 24.2422L19.0415 21.3185C19.0415 21.3185 18.2462 20.8832 17.7659 19.6828C17.2858 18.4822 17.9461 15.331 18.2161 14.7008Z" fill="#FBDBD0"/>
<path fill-rule="evenodd" clip-rule="evenodd" d="M25.4892 9.31297C25.0179 9.13418 24.5277 9.06666 24.0588 9.24248C20.0788 10.7351 18.8378 13.7824 18.4821 14.6558C18.4603 14.7092 18.4419 14.7546 18.4263 14.7909C18.3039 15.0766 18.0744 15.9967 17.9362 17.0089C17.8677 17.5108 17.823 18.0257 17.8244 18.4859C17.8257 18.9516 17.8745 19.3387 17.9782 19.598C18.2054 20.1659 18.5056 20.5494 18.7455 20.7893C18.8656 20.9094 18.9706 20.9936 19.044 21.0468C19.0807 21.0735 19.1094 21.0923 19.128 21.104C19.1373 21.1098 19.144 21.1139 19.148 21.1162L19.1514 21.1182L19.1518 21.1184L19.1557 21.1206L23.4345 23.5865C23.2098 23.0852 23.067 22.4903 22.9973 21.8491C22.8839 20.8076 22.9601 19.6155 23.2149 18.4368C23.66 16.3786 24.9701 14.6996 26.3755 13.5467C27.0793 12.9694 27.8121 12.5195 28.4822 12.2172C28.9251 12.0173 29.3496 11.8779 29.7251 11.8124C28.9249 11.3642 27.8163 10.7173 26.7267 9.9962C26.3906 9.77382 25.9621 9.49234 25.4892 9.31297ZM18.9266 21.5162C18.9241 21.5148 18.9209 21.5129 18.9169 21.5106C18.909 21.506 18.8982 21.4995 18.8848 21.4911C18.8581 21.4743 18.8209 21.4498 18.7755 21.4168C18.6847 21.3509 18.561 21.2513 18.4222 21.1125C18.1444 20.8347 17.8068 20.4003 17.5538 19.7678C17.4174 19.4268 17.3686 18.9698 17.3672 18.4873C17.3658 17.9992 17.413 17.4619 17.4833 16.9471C17.6227 15.926 17.8584 14.9554 18.0061 14.6108C18.0215 14.5749 18.0399 14.5298 18.0617 14.4762C18.4236 13.5868 19.7298 10.3777 23.8983 8.81445C24.5099 8.58508 25.1227 8.68503 25.6513 8.88554C26.1784 9.08549 26.6468 9.39516 26.979 9.61497C28.503 10.6236 30.0682 11.4875 30.7538 11.8555C30.855 11.9099 30.9002 12.0309 30.8594 12.1382C30.8185 12.2456 30.7043 12.3059 30.5926 12.2792C30.4768 12.2515 30.3578 12.2328 30.2314 12.2281C29.8542 12.2141 29.3066 12.3467 28.6702 12.6339C28.0391 12.9186 27.3403 13.3465 26.6654 13.9001C25.3136 15.0092 24.0788 16.6048 23.6618 18.5335C23.4157 19.6713 23.3445 20.8137 23.4517 21.7996C23.5596 22.7914 23.8449 23.5968 24.2852 24.0901C24.3599 24.1738 24.3628 24.2994 24.292 24.3865C24.2212 24.4735 24.0977 24.4964 24.0005 24.4403L18.9298 21.518L18.9266 21.5162Z" fill="#374874"/>
<path fill-rule="evenodd" clip-rule="evenodd" d="M4.40811 27.4362L31.4047 43.1416L31.1748 43.5367L4.17823 27.8313L4.40811 27.4362Z" fill="#374874"/>
<path fill-rule="evenodd" clip-rule="evenodd" d="M59.8203 27.0488L31.4045 43.5368L31.175 43.1414L59.5908 26.6534L59.8203 27.0488Z" fill="#374874"/>
<path d="M32.7947 1.73753L36.7594 4.06276C37.5104 3.67147 38.067 3.57392 38.4356 3.57392C38.8032 3.57392 38.9839 3.67101 38.9839 3.67101L44.5522 6.87826C44.5908 6.89858 44.6113 6.91229 44.6113 6.91229C44.6113 6.91229 45.73 7.47412 45.6777 9.29298L59.7056 17.52V26.8511L57.1199 28.3514V47.314L31.2898 62.2633L6.87884 48.0236V29.138L4.29319 27.6337V18.2375L19.6859 9.32635C19.6188 7.48082 20.7514 6.91229 20.7514 6.91229C20.7514 6.91229 20.7719 6.89856 20.8104 6.87826L26.3787 3.67101C26.3787 3.67101 26.5603 3.57225 26.9305 3.57225C27.3141 3.57225 27.9003 3.6784 28.6964 4.11019L32.7947 1.73753ZM32.7947 0.823242C32.6365 0.823242 32.4783 0.864202 32.3366 0.946237L28.6622 3.07357C28.0452 2.79757 27.4646 2.65794 26.9306 2.65794C26.3864 2.65794 26.0578 2.80482 25.9418 2.86788C25.9353 2.87145 25.9288 2.87501 25.9224 2.87872L20.3667 6.07883C20.3403 6.093 20.3174 6.10617 20.2983 6.11755C19.7448 6.41677 18.9064 7.27291 18.7839 8.79211L3.83511 17.4462C3.55276 17.6097 3.37891 17.9113 3.37891 18.2375V27.6337C3.37891 27.9593 3.55203 28.2603 3.83344 28.424L5.96455 29.6639V48.0236C5.96455 48.3488 6.13726 48.6495 6.41815 48.8133L30.8291 63.053C30.9714 63.1361 31.1306 63.1776 31.2898 63.1776C31.4479 63.1776 31.6061 63.1366 31.7477 63.0546L57.5779 48.1053C57.8603 47.9419 58.0342 47.6403 58.0342 47.314V28.8779L60.1644 27.642C60.4463 27.4784 60.6198 27.177 60.6198 26.8511V17.52C60.6198 17.1956 60.4479 16.8954 60.1681 16.7314L46.5758 8.75986C46.4441 7.2602 45.6121 6.41387 45.0645 6.11766C45.0453 6.10617 45.0224 6.093 44.996 6.07883L39.4403 2.87872C39.4325 2.87426 39.4246 2.86989 39.4167 2.86567C39.3014 2.80372 38.975 2.65963 38.4356 2.65963C37.9315 2.65963 37.3849 2.78395 36.8057 3.02994L33.2572 0.948911C33.1144 0.865094 32.9546 0.823242 32.7947 0.823242Z" fill="#374874"/>
</svg>
