<svg width="64" height="64" viewBox="0 0 64 64" fill="none" xmlns="http://www.w3.org/2000/svg">
<path d="M13.4657 22.3671L13.4644 22.8256C13.7366 22.9827 13.8785 23.1811 13.878 23.3616L13.8793 22.9031C13.8798 22.7226 13.7379 22.5243 13.4657 22.3671Z" fill="#C1DBF6"/>
<path d="M11.2213 23.6713L11.22 24.1298C11.4922 24.2869 11.6341 24.4853 11.6336 24.6658L11.6349 24.2073C11.6354 24.0268 11.4935 23.8284 11.2213 23.6713Z" fill="#C1DBF6"/>
<path d="M8.97713 24.9755L8.97583 25.434C9.11194 25.5126 9.21549 25.6015 9.28493 25.6933C9.31965 25.7392 9.34586 25.7858 9.36335 25.8322C9.3721 25.8554 9.37864 25.8786 9.38303 25.9016C9.3874 25.9246 9.38957 25.9475 9.3895 25.97L9.3908 25.5115C9.39133 25.3309 9.24934 25.1326 8.97713 24.9755Z" fill="#C1DBF6"/>
<path d="M6.73275 26.2798L6.73145 26.7383C7.00365 26.8954 7.14559 27.0938 7.14509 27.2743L7.14639 26.8158C7.14692 26.6352 7.00495 26.437 6.73275 26.2798Z" fill="#C1DBF6"/>
<path d="M4.64071 27.4955L4.6394 27.954C5.37355 28.3779 5.74855 28.764 5.86274 29.1235C5.8891 29.2065 5.90155 29.288 5.90132 29.3683L5.90263 28.9097C5.90384 28.4817 5.54427 28.0171 4.64071 27.4955Z" fill="#C1DBF6"/>
<path d="M15.7098 21.0627L15.7085 21.5213C15.9808 21.6785 16.1231 21.8767 16.1226 22.0572L16.1239 21.5987C16.1245 21.4182 15.9821 21.22 15.7098 21.0627Z" fill="#C1DBF6"/>
<path d="M17.9542 19.7585L17.9529 20.2171C18.2252 20.3743 18.3675 20.5725 18.367 20.753L18.3683 20.2945C18.3688 20.1139 18.2265 19.9158 17.9542 19.7585Z" fill="#C1DBF6"/>
<path d="M55.523 40.1736C55.53 40.1432 55.5389 40.1128 55.5494 40.0827C55.5531 40.072 55.5562 40.0612 55.5604 40.0506C55.5774 40.0069 55.5979 39.9636 55.6218 39.9206C55.6262 39.9128 55.6313 39.905 55.6359 39.8972C55.6675 39.8433 55.703 39.7898 55.7446 39.7369C55.7449 39.7365 55.7453 39.7361 55.7456 39.7357C55.7756 39.6977 55.8086 39.6601 55.8433 39.6226C55.8541 39.6109 55.8656 39.5994 55.8769 39.5877C55.9031 39.5606 55.9303 39.5337 55.9588 39.5068C55.9707 39.4956 55.9825 39.4845 55.9947 39.4733C56.0432 39.4292 56.0941 39.3854 56.1482 39.3419C56.1573 39.3346 56.1669 39.3273 56.1762 39.3201C56.2266 39.2803 56.2792 39.2406 56.3339 39.2012C56.3441 39.1939 56.3539 39.1865 56.3643 39.1792C56.4249 39.1361 56.4881 39.0933 56.5533 39.0506C56.5675 39.0413 56.5819 39.032 56.5963 39.0228C56.6616 38.9807 56.7283 38.9387 56.7973 38.8969C56.7998 38.8954 56.8022 38.8939 56.8046 38.8924C56.8556 38.8616 56.9075 38.8309 56.9603 38.8002L56.9616 38.3417C56.9088 38.3723 56.8569 38.4031 56.8059 38.4339C56.8053 38.4343 56.8046 38.4346 56.8039 38.435C56.8021 38.4361 56.8005 38.4373 56.7986 38.4384C56.7297 38.4801 56.6631 38.5221 56.5979 38.5641C56.5833 38.5735 56.5687 38.5828 56.5544 38.5922C56.4894 38.6348 56.4263 38.6775 56.3658 38.7205C56.3552 38.728 56.3452 38.7355 56.3348 38.743C56.2803 38.7823 56.2279 38.8218 56.1776 38.8615C56.1683 38.8688 56.1586 38.8761 56.1495 38.8834C56.0955 38.9269 56.0445 38.9707 55.9962 39.0147C55.9913 39.0191 55.9856 39.0235 55.9808 39.0279C55.9734 39.0346 55.9673 39.0415 55.9601 39.0483C55.9315 39.0752 55.9042 39.1023 55.8779 39.1295C55.8668 39.141 55.8554 39.1524 55.8447 39.1639C55.8102 39.2013 55.7772 39.2388 55.7474 39.2766C55.747 39.2772 55.7464 39.2777 55.746 39.2782C55.7459 39.2783 55.7459 39.2784 55.7459 39.2784C55.7043 39.3313 55.6688 39.3848 55.6372 39.4387C55.6343 39.4436 55.6301 39.4484 55.6272 39.4534C55.6256 39.4563 55.6247 39.4593 55.6231 39.4622C55.5992 39.5051 55.5787 39.5484 55.5617 39.592C55.5605 39.5951 55.5585 39.5981 55.5573 39.6013C55.5544 39.6089 55.5533 39.6167 55.5506 39.6244C55.5402 39.6545 55.5314 39.6847 55.5243 39.7151C55.5227 39.7222 55.5196 39.7292 55.5182 39.7364C55.517 39.7425 55.5172 39.7488 55.5161 39.755C55.5109 39.7841 55.5078 39.8134 55.506 39.8428C55.5054 39.8513 55.5033 39.8595 55.5031 39.8681C55.5029 39.8745 55.5028 39.8811 55.5027 39.8876L55.5015 40.3461C55.5015 40.3311 55.5037 40.3163 55.5047 40.3013C55.5065 40.2719 55.5096 40.2426 55.5148 40.2135C55.5171 40.2001 55.52 40.1869 55.523 40.1736Z" fill="#C1DBF6"/>
<path d="M55.8148 41.6375C55.8099 41.6355 55.8056 41.6326 55.8006 41.6307C55.7559 41.6131 55.7097 41.5985 55.6633 41.5844C55.6529 41.5812 55.643 41.577 55.6325 41.574C55.6312 41.5736 55.63 41.573 55.6288 41.5727C55.5825 41.5595 55.5356 41.548 55.4885 41.5383C55.475 41.5355 55.4614 41.5337 55.4479 41.5312C55.4356 41.5289 55.4235 41.5269 55.4111 41.5248C55.3956 41.5222 55.3801 41.5189 55.3646 41.5167C55.3267 41.5113 55.2888 41.507 55.251 41.5039C55.2447 41.5034 55.2384 41.5034 55.2321 41.5029C55.2246 41.5024 55.2172 41.5021 55.2097 41.5017C55.1877 41.5004 55.1656 41.4987 55.1439 41.4981C55.109 41.4973 55.0744 41.4974 55.0403 41.4985C55.0361 41.4987 55.032 41.4992 55.0278 41.4994C55.0216 41.4996 55.0157 41.5003 55.0096 41.5006C54.9848 41.5019 54.96 41.5031 54.9359 41.5055C54.9025 41.5088 54.8699 41.5137 54.8379 41.5191C54.8347 41.5196 54.8313 41.5199 54.8281 41.5204C54.8269 41.5207 54.8255 41.5208 54.8243 41.521C54.7705 41.5307 54.7189 41.5434 54.6702 41.5593C54.6679 41.56 54.6662 41.5613 54.6639 41.562C54.6063 41.5812 54.5523 41.6043 54.504 41.6323C54.5011 41.634 54.4982 41.6356 54.4953 41.6374C54.4726 41.6511 54.4549 41.6666 54.4357 41.6816C54.4246 41.6902 54.4112 41.698 54.4014 41.707C54.4008 41.7075 54.3999 41.708 54.3993 41.7085C54.3811 41.7253 54.3649 41.7427 54.3507 41.7608C54.3455 41.7673 54.3417 41.7744 54.337 41.7811C54.3339 41.7856 54.3308 41.7901 54.3278 41.7947C54.3247 41.7998 54.3207 41.8046 54.3178 41.8097C54.3087 41.8257 54.3011 41.842 54.2949 41.8587C54.2931 41.8633 54.2923 41.8681 54.2908 41.8728C54.2894 41.8773 54.2883 41.8818 54.287 41.8862C54.2848 41.8941 54.2819 41.9019 54.2803 41.9099C54.2766 41.9283 54.2744 41.9469 54.2739 41.9658C54.2739 41.9687 54.2738 41.9715 54.2738 41.9745L54.2725 42.433C54.2726 42.403 54.2776 42.3736 54.2857 42.3448C54.287 42.3403 54.2881 42.3358 54.2895 42.3314C54.2982 42.3045 54.3107 42.2785 54.3265 42.2533C54.3294 42.2487 54.3326 42.2442 54.3357 42.2397C54.3536 42.2139 54.3744 42.1889 54.4 42.1656C54.41 42.1564 54.4236 42.1485 54.4348 42.1398C54.4563 42.123 54.4767 42.1059 54.5027 42.0908C54.5509 42.0628 54.605 42.0397 54.6627 42.0205C54.7145 42.0033 54.7693 41.9892 54.8269 41.9789C54.83 41.9784 54.8332 41.9782 54.8363 41.9776C54.8916 41.9682 54.9493 41.9622 55.0083 41.9591C55.0144 41.9587 55.0204 41.9581 55.0265 41.9579C55.0859 41.9554 55.1468 41.9565 55.2084 41.9602C55.2159 41.9607 55.2233 41.9609 55.2308 41.9614C55.2902 41.9657 55.3501 41.9734 55.41 41.9833C55.4222 41.9854 55.4344 41.9874 55.4466 41.9897C55.5086 42.0012 55.5705 42.015 55.6313 42.0325C55.6417 42.0355 55.6517 42.0397 55.6621 42.0429C55.7135 42.0586 55.7642 42.0761 55.8135 42.096C55.8843 42.1247 55.9531 42.1566 56.0175 42.1938L56.0188 41.7353C55.9544 41.6981 55.8856 41.6661 55.8148 41.6375Z" fill="#C1DBF6"/>
<path d="M53.5565 42.9349C53.5118 42.9174 53.4657 42.9028 53.4195 42.8887C53.4089 42.8854 53.3989 42.8812 53.3883 42.8782C53.387 42.8778 53.3859 42.8773 53.3846 42.8769C53.3383 42.8637 53.2915 42.8522 53.2444 42.8424C53.2309 42.8397 53.2173 42.8379 53.2038 42.8354C53.1915 42.8331 53.1793 42.8311 53.167 42.829C53.1515 42.8263 53.136 42.8231 53.1204 42.8209C53.0825 42.8155 53.0446 42.8112 53.0069 42.8081C53.0005 42.8076 52.9943 42.8075 52.9879 42.8071C52.9804 42.8065 52.973 42.8063 52.9655 42.8059C52.9435 42.8045 52.9215 42.8029 52.8997 42.8023C52.8648 42.8014 52.8302 42.8016 52.7961 42.8028C52.7919 42.8029 52.7879 42.8034 52.7837 42.8036C52.7775 42.8039 52.7716 42.8045 52.7654 42.8048C52.7407 42.8061 52.7159 42.8073 52.6917 42.8097C52.6582 42.813 52.6256 42.8178 52.5934 42.8234C52.5903 42.8238 52.5871 42.8241 52.5841 42.8246C52.5828 42.8248 52.5814 42.825 52.5801 42.8252C52.5263 42.8349 52.4747 42.8477 52.426 42.8635C52.4238 42.8642 52.422 42.8655 52.4198 42.8662C52.3621 42.8854 52.3081 42.9085 52.2598 42.9365C52.2569 42.9382 52.254 42.94 52.2512 42.9416C52.2284 42.9553 52.2107 42.9708 52.1915 42.9858C52.1805 42.9944 52.167 43.0022 52.1572 43.0112C52.1566 43.0118 52.1557 43.0122 52.1551 43.0128C52.1369 43.0295 52.1208 43.0469 52.1066 43.065C52.1013 43.0716 52.0976 43.0786 52.0929 43.0853C52.0897 43.0899 52.0866 43.0944 52.0837 43.099C52.0805 43.1041 52.0765 43.1089 52.0736 43.1139C52.0646 43.13 52.0569 43.1463 52.0507 43.1629C52.049 43.1675 52.0482 43.1724 52.0467 43.177C52.0452 43.1815 52.0441 43.186 52.0428 43.1904C52.0406 43.1984 52.0377 43.2061 52.0361 43.2141C52.0324 43.2325 52.0303 43.2511 52.0298 43.27C52.0297 43.2729 52.0296 43.2758 52.0296 43.2787L52.0283 43.7372C52.0284 43.7071 52.0335 43.6777 52.0415 43.6489C52.0428 43.6445 52.0439 43.64 52.0454 43.6355C52.0541 43.6087 52.0665 43.5827 52.0824 43.5575C52.0853 43.553 52.0884 43.5484 52.0915 43.5439C52.1093 43.5181 52.1302 43.4932 52.1559 43.4697C52.1657 43.4607 52.1791 43.453 52.1901 43.4444C52.2117 43.4275 52.2324 43.4102 52.2585 43.395C52.3067 43.367 52.3608 43.3439 52.4185 43.3247C52.4703 43.3075 52.5251 43.2934 52.5827 43.2831C52.5858 43.2826 52.5891 43.2824 52.5921 43.2818C52.6475 43.2725 52.7051 43.2664 52.7641 43.2633C52.7702 43.263 52.7762 43.2623 52.7824 43.2621C52.8418 43.2596 52.9027 43.2607 52.9642 43.2644C52.9717 43.2649 52.9792 43.265 52.9867 43.2656C53.0461 43.2699 53.106 43.2775 53.1658 43.2875C53.178 43.2895 53.1902 43.2917 53.2024 43.2939C53.2644 43.3054 53.3263 43.3192 53.3871 43.3367C53.3975 43.3396 53.4074 43.3439 53.4177 43.347C53.4692 43.3628 53.52 43.3803 53.5694 43.4002C53.6402 43.4289 53.709 43.4608 53.7733 43.498L53.7746 43.0395C53.7102 43.0023 53.6414 42.9703 53.5706 42.9417C53.5657 42.9398 53.5614 42.9369 53.5565 42.9349Z" fill="#C1DBF6"/>
<path d="M51.3128 44.2395C51.2671 44.2216 51.2198 44.2065 51.1724 44.1922C51.1629 44.1892 51.1538 44.1853 51.1442 44.1826C51.1431 44.1823 51.1421 44.1818 51.141 44.1816C51.0947 44.1683 51.0478 44.1568 51.0007 44.1471C50.987 44.1442 50.9731 44.1425 50.9594 44.1399C50.947 44.1376 50.9347 44.1356 50.9224 44.1334C50.9071 44.131 50.8919 44.1276 50.8766 44.1255C50.8386 44.1201 50.8006 44.1159 50.7628 44.1127C50.7563 44.1122 50.7499 44.1121 50.7434 44.1116C50.7357 44.1111 50.7281 44.1109 50.7204 44.1104C50.6987 44.1091 50.6768 44.1074 50.6553 44.1069C50.6203 44.106 50.5856 44.1061 50.5514 44.1073C50.5472 44.1075 50.5431 44.108 50.5388 44.1082C50.5326 44.1084 50.5267 44.1091 50.5205 44.1094C50.4957 44.1107 50.4709 44.1119 50.4468 44.1143C50.4134 44.1176 50.3809 44.1225 50.3488 44.1279C50.3456 44.1284 50.3422 44.1287 50.3391 44.1292C50.3377 44.1295 50.3363 44.1296 50.335 44.1298C50.2811 44.1395 50.2296 44.1523 50.1809 44.1681C50.1787 44.1688 50.177 44.17 50.1748 44.1708C50.1173 44.1899 50.0635 44.2129 50.0154 44.2408C50.0125 44.2425 50.0096 44.2442 50.0068 44.2459C49.9838 44.2597 49.9659 44.2754 49.9465 44.2905C49.9357 44.299 49.9225 44.3066 49.9128 44.3154C49.9122 44.316 49.9113 44.3164 49.9107 44.317C49.8926 44.3338 49.8764 44.3512 49.8622 44.3693C49.857 44.3759 49.8531 44.3829 49.8484 44.3896C49.8453 44.3942 49.8422 44.3986 49.8393 44.4033C49.8361 44.4083 49.8321 44.4131 49.8292 44.4182C49.8202 44.4342 49.8126 44.4506 49.8063 44.4671C49.8046 44.4718 49.8038 44.4766 49.8023 44.4813C49.8008 44.4857 49.7997 44.4902 49.7984 44.4947C49.7963 44.5026 49.7933 44.5103 49.7917 44.5184C49.788 44.5367 49.7859 44.5554 49.7854 44.5742C49.7853 44.5771 49.7852 44.58 49.7852 44.5829L49.7839 45.0414C49.784 45.0114 49.7891 44.982 49.7971 44.9532C49.7984 44.9487 49.7995 44.9443 49.8009 44.9398C49.8097 44.913 49.8221 44.887 49.838 44.8618C49.8408 44.8572 49.844 44.8527 49.8471 44.8482C49.8649 44.8223 49.8858 44.7974 49.9115 44.774C49.9212 44.765 49.9345 44.7574 49.9454 44.7488C49.9671 44.7319 49.9878 44.7146 50.0141 44.6993C50.0621 44.6714 50.116 44.6484 50.1734 44.6292C50.2252 44.6121 50.28 44.5979 50.3377 44.5877C50.3409 44.5872 50.3443 44.5869 50.3475 44.5864C50.4027 44.577 50.4602 44.5711 50.5191 44.5679C50.5253 44.5676 50.5313 44.567 50.5375 44.5667C50.5968 44.5642 50.6577 44.5652 50.7192 44.5689C50.7268 44.5694 50.7344 44.5696 50.7419 44.5702C50.8013 44.5745 50.8612 44.5821 50.921 44.592C50.9334 44.594 50.9457 44.5962 50.958 44.5984C51.0201 44.6099 51.0821 44.6237 51.143 44.6411C51.1522 44.6439 51.1611 44.6476 51.1703 44.6504C51.223 44.6663 51.2749 44.6844 51.3255 44.7048C51.3958 44.7332 51.4641 44.765 51.528 44.8018C51.5283 44.802 51.5286 44.8021 51.5289 44.8023L51.5302 44.3438C51.4659 44.3066 51.3973 44.2747 51.3266 44.2462C51.3218 44.2443 51.3176 44.2414 51.3128 44.2395Z" fill="#C1DBF6"/>
<path d="M49.0686 45.5438C49.0229 45.5257 48.9758 45.5108 48.9284 45.4964C48.9187 45.4935 48.9096 45.4896 48.9 45.4868C48.8989 45.4865 48.8979 45.4861 48.8968 45.4857C48.8505 45.4726 48.8037 45.4611 48.7566 45.4513C48.7428 45.4485 48.729 45.4467 48.7152 45.4441C48.7028 45.4418 48.6906 45.4398 48.6781 45.4377C48.6629 45.4351 48.6477 45.4318 48.6324 45.4297C48.5944 45.4243 48.5564 45.42 48.5186 45.4169C48.5121 45.4163 48.5057 45.4163 48.4993 45.4159C48.4915 45.4153 48.4838 45.4151 48.476 45.4145C48.4544 45.4133 48.4326 45.4116 48.4111 45.4111C48.3761 45.4102 48.3414 45.4104 48.3072 45.4115C48.3029 45.4117 48.2988 45.4122 48.2946 45.4124C48.2884 45.4126 48.2824 45.4133 48.2762 45.4136C48.2515 45.4149 48.2267 45.4161 48.2026 45.4185C48.1693 45.4218 48.1368 45.4266 48.1049 45.432C48.1016 45.4326 48.0981 45.4329 48.0948 45.4334C48.0935 45.4337 48.092 45.4338 48.0908 45.434C48.037 45.4437 47.9854 45.4564 47.9367 45.4723C47.9345 45.473 47.9328 45.4742 47.9306 45.4749C47.8731 45.4941 47.8193 45.5171 47.7712 45.545C47.7684 45.5467 47.7655 45.5483 47.7626 45.55C47.7399 45.5637 47.7221 45.5793 47.7029 45.5943C47.6919 45.6029 47.6785 45.6107 47.6686 45.6197C47.668 45.6202 47.6672 45.6207 47.6666 45.6212C47.6484 45.638 47.6322 45.6555 47.618 45.6734C47.6128 45.6801 47.609 45.687 47.6043 45.6938C47.6012 45.6984 47.598 45.7029 47.5951 45.7075C47.5919 45.7125 47.5879 45.7173 47.5851 45.7224C47.576 45.7384 47.5684 45.7547 47.5622 45.7714C47.5604 45.7761 47.5596 45.7809 47.5581 45.7855C47.5567 45.7899 47.5555 45.7945 47.5543 45.7989C47.5521 45.8068 47.5491 45.8146 47.5475 45.8225C47.5438 45.841 47.5417 45.8597 47.5412 45.8785C47.5411 45.8813 47.5411 45.8843 47.5411 45.8871L47.5398 46.3457C47.5399 46.3157 47.545 46.2863 47.553 46.2574C47.5543 46.253 47.5554 46.2484 47.5568 46.244C47.5655 46.2172 47.5779 46.1912 47.5938 46.166C47.5967 46.1614 47.5999 46.1569 47.603 46.1523C47.6208 46.1266 47.6417 46.1016 47.6673 46.0782C47.6772 46.0692 47.6907 46.0614 47.7017 46.0527C47.7233 46.0359 47.7439 46.0186 47.77 46.0035C47.818 45.9756 47.8718 45.9526 47.9293 45.9335C47.9811 45.9162 48.0359 45.9022 48.0936 45.8919C48.0968 45.8914 48.1001 45.8911 48.1033 45.8906C48.1585 45.8812 48.216 45.8752 48.275 45.8721C48.2811 45.8718 48.2871 45.8711 48.2933 45.8708C48.3526 45.8684 48.4134 45.8694 48.4748 45.8731C48.4825 45.8736 48.4902 45.8738 48.498 45.8744C48.5573 45.8787 48.6172 45.8863 48.6769 45.8962C48.6892 45.8982 48.7015 45.9004 48.7138 45.9026C48.7759 45.9141 48.8379 45.9279 48.8987 45.9454C48.9083 45.9481 48.9175 45.952 48.9271 45.955C48.9794 45.9709 49.031 45.9887 49.0812 46.0089C49.1519 46.0375 49.2205 46.0695 49.2847 46.1065L49.286 45.6479C49.2218 45.6109 49.1532 45.579 49.0825 45.5505C49.0777 45.5485 49.0734 45.5457 49.0686 45.5438Z" fill="#C1DBF6"/>
<path d="M46.8243 46.848C46.7786 46.83 46.7314 46.815 46.6841 46.8007C46.6745 46.7977 46.6653 46.7938 46.6556 46.7911C46.6546 46.7908 46.6536 46.7903 46.6525 46.79C46.6062 46.7768 46.5593 46.7653 46.5122 46.7555C46.4984 46.7527 46.4846 46.7509 46.4707 46.7483C46.4584 46.746 46.4462 46.744 46.4339 46.7419C46.4186 46.7394 46.4034 46.7361 46.3881 46.734C46.3501 46.7285 46.3121 46.7242 46.2742 46.7211C46.2678 46.7206 46.2614 46.7206 46.255 46.7201C46.2471 46.7195 46.2395 46.7193 46.2317 46.7188C46.21 46.7175 46.1883 46.7158 46.1668 46.7153C46.1318 46.7144 46.0971 46.7145 46.0629 46.7158C46.0586 46.7159 46.0545 46.7164 46.0503 46.7165C46.0441 46.7169 46.0381 46.7174 46.0319 46.7178C46.0072 46.7191 45.9824 46.7203 45.9582 46.7227C45.9249 46.726 45.8925 46.7308 45.8605 46.7362C45.8572 46.7368 45.8537 46.737 45.8505 46.7376C45.8492 46.7378 45.8477 46.738 45.8464 46.7382C45.7926 46.7479 45.741 46.7606 45.6923 46.7764C45.6902 46.7772 45.6885 46.7784 45.6862 46.7791C45.6288 46.7983 45.575 46.8212 45.5269 46.8492C45.524 46.8508 45.5212 46.8526 45.5183 46.8542C45.4956 46.8679 45.4778 46.8833 45.4587 46.8984C45.4476 46.907 45.4342 46.9148 45.4242 46.9239C45.4237 46.9244 45.4228 46.9249 45.4222 46.9254C45.404 46.9422 45.3878 46.9596 45.3737 46.9776C45.3684 46.9843 45.3646 46.9912 45.36 46.998C45.3568 47.0025 45.3537 47.007 45.3507 47.0116C45.3476 47.0167 45.3436 47.0214 45.3407 47.0265C45.3317 47.0426 45.324 47.0589 45.3178 47.0756C45.3161 47.0802 45.3153 47.085 45.3138 47.0897C45.3123 47.0941 45.3112 47.0986 45.3099 47.1031C45.3077 47.111 45.3048 47.1188 45.3032 47.1267C45.2995 47.1451 45.2974 47.1638 45.2969 47.1826C45.2968 47.1855 45.2967 47.1884 45.2967 47.1913L45.2954 47.6498C45.2955 47.6199 45.3006 47.5904 45.3086 47.5617C45.3099 47.5571 45.311 47.5527 45.3125 47.5481C45.3212 47.5213 45.3337 47.4953 45.3495 47.4701C45.3524 47.4655 45.3555 47.461 45.3586 47.4565C45.3764 47.4307 45.3974 47.4058 45.423 47.3823C45.4327 47.3735 45.4459 47.3658 45.4567 47.3574C45.4784 47.3404 45.4993 47.323 45.5256 47.3076C45.5736 47.2797 45.6275 47.2567 45.6849 47.2376C45.7367 47.2204 45.7915 47.2063 45.8493 47.1961C45.8524 47.1955 45.8558 47.1953 45.8589 47.1947C45.9141 47.1854 45.9717 47.1793 46.0306 47.1762C46.0367 47.1759 46.0428 47.1753 46.049 47.1751C46.1082 47.1726 46.169 47.1736 46.2304 47.1773C46.2382 47.1778 46.2459 47.178 46.2536 47.1786C46.3129 47.1828 46.3728 47.1904 46.4326 47.2004C46.4448 47.2024 46.4571 47.2046 46.4694 47.2068C46.5315 47.2183 46.5934 47.2321 46.6543 47.2495C46.6638 47.2522 46.6729 47.2561 46.6824 47.259C46.7349 47.275 46.7865 47.2928 46.8368 47.3132C46.9075 47.3416 46.9761 47.3736 47.0403 47.4106L47.0416 46.9521C46.9774 46.9151 46.9088 46.8831 46.8381 46.8545C46.8333 46.8526 46.8291 46.8498 46.8243 46.848Z" fill="#C1DBF6"/>
<path d="M44.5801 48.1521C44.5344 48.1341 44.4871 48.1191 44.4396 48.1047C44.4301 48.1018 44.4211 48.098 44.4115 48.0952C44.4104 48.0949 44.4094 48.0944 44.4083 48.0942C44.362 48.081 44.3152 48.0695 44.2681 48.0597C44.2543 48.0569 44.2405 48.0551 44.2267 48.0525C44.2143 48.0502 44.2021 48.0481 44.1897 48.0461C44.1744 48.0435 44.1592 48.0402 44.1439 48.0381C44.1059 48.0327 44.0679 48.0284 44.0301 48.0253C44.0236 48.0248 44.0173 48.0247 44.0108 48.0243C44.003 48.0237 43.9954 48.0235 43.9876 48.023C43.9659 48.0217 43.9442 48.0201 43.9227 48.0195C43.8877 48.0186 43.853 48.0187 43.8187 48.0199C43.8145 48.0201 43.8105 48.0206 43.8063 48.0207C43.8 48.021 43.7939 48.0216 43.7875 48.022C43.7629 48.0233 43.7382 48.0245 43.7141 48.0269C43.6808 48.0302 43.6485 48.035 43.6165 48.0404C43.6132 48.0409 43.6096 48.0412 43.6063 48.0418C43.605 48.042 43.6036 48.0422 43.6023 48.0424C43.5485 48.0521 43.4969 48.0649 43.4482 48.0807C43.446 48.0814 43.4443 48.0826 43.4421 48.0833C43.3846 48.1025 43.3308 48.1255 43.2827 48.1534C43.2798 48.1551 43.277 48.1568 43.2741 48.1584C43.2513 48.1722 43.2335 48.1877 43.2143 48.2027C43.2033 48.2113 43.1899 48.219 43.1801 48.2281C43.1795 48.2286 43.1786 48.229 43.178 48.2296C43.1599 48.2464 43.1437 48.2638 43.1295 48.2818C43.1243 48.2884 43.1204 48.2953 43.1158 48.3022C43.1126 48.3067 43.1095 48.3112 43.1066 48.3158C43.1035 48.3208 43.0995 48.3257 43.0965 48.3307C43.0875 48.3468 43.0799 48.3631 43.0736 48.3797C43.0719 48.3844 43.0711 48.3892 43.0696 48.3939C43.0682 48.3983 43.067 48.4028 43.0658 48.4072C43.0636 48.4151 43.0606 48.4229 43.059 48.431C43.0553 48.4493 43.0532 48.468 43.0527 48.4868C43.0526 48.4897 43.0526 48.4926 43.0526 48.4955L43.0513 48.954C43.0514 48.924 43.0564 48.8946 43.0645 48.8658C43.0657 48.8613 43.0669 48.8568 43.0683 48.8523C43.0771 48.8255 43.0895 48.7995 43.1053 48.7744C43.1082 48.7697 43.1114 48.7652 43.1145 48.7607C43.1323 48.7349 43.1532 48.71 43.1788 48.6866C43.1888 48.6775 43.2023 48.6696 43.2135 48.6609C43.235 48.6441 43.2555 48.6269 43.2814 48.6119C43.3295 48.584 43.3834 48.5609 43.4408 48.5418C43.4926 48.5246 43.5474 48.5106 43.605 48.5003C43.6083 48.4997 43.6119 48.4995 43.6152 48.4989C43.6703 48.4896 43.7276 48.4836 43.7864 48.4805C43.7926 48.4801 43.7987 48.4795 43.8049 48.4792C43.8641 48.4768 43.9249 48.4778 43.9863 48.4815C43.9941 48.4819 44.0017 48.4822 44.0095 48.4828C44.0688 48.4871 44.1287 48.4946 44.1885 48.5045C44.2008 48.5066 44.213 48.5087 44.2253 48.5109C44.2874 48.5225 44.3493 48.5363 44.4102 48.5538C44.4199 48.5565 44.4291 48.5604 44.4386 48.5633C44.491 48.5792 44.5425 48.5971 44.5927 48.6173C44.6634 48.6458 44.732 48.6778 44.7962 48.7149L44.7975 48.2563C44.7333 48.2193 44.6647 48.1873 44.594 48.1588C44.5892 48.1569 44.585 48.1541 44.5801 48.1521Z" fill="#C1DBF6"/>
<path d="M55.7136 40.4579L38.8411 49.0049C39.9613 48.6102 41.1922 48.5984 42.7055 49.4721L43.4655 49.0305C42.9962 48.7596 42.9153 48.367 43.2828 48.1534C43.6503 47.9398 44.3283 47.9855 44.7975 48.2563L45.7098 47.7262C45.2405 47.4553 45.1595 47.0627 45.5271 46.8491C45.8946 46.6356 46.5726 46.6812 47.0418 46.9521L47.954 46.422C47.4848 46.151 47.4038 45.7584 47.7714 45.5449C48.1388 45.3314 48.8168 45.377 49.2861 45.6478L50.1983 45.1177C49.7291 44.8468 49.6481 44.4542 50.0156 44.2407C50.3831 44.0271 51.0611 44.0727 51.5304 44.3436L52.4426 43.8135C51.9733 43.5426 51.8924 43.15 52.2599 42.9364C52.6286 42.7221 53.3054 42.7684 53.7747 43.0394L54.6869 42.5092C54.2176 42.2383 54.1367 41.8457 54.5042 41.6322C54.8729 41.4179 55.5497 41.4642 56.0189 41.7352L56.7647 41.3018C56.2471 41.003 55.9086 40.7231 55.7136 40.4579Z" fill="white"/>
<path d="M56.9616 38.3416L23.8098 19.2014C22.3446 20.0529 20.7913 20.5326 18.7 19.3252L17.9542 19.7586C18.4235 20.0295 18.5069 20.4221 18.1382 20.6363C17.7706 20.8498 17.0914 20.8035 16.6222 20.5327L15.71 21.0627C16.1793 21.3337 16.2626 21.7262 15.8939 21.9405C15.5264 22.1541 14.8472 22.1078 14.3779 21.8369L13.4657 22.367C13.9349 22.6379 14.0171 23.0312 13.6496 23.2448C13.2821 23.4583 12.6029 23.412 12.1336 23.1411L11.2214 23.6712C11.6907 23.9421 11.7728 24.3354 11.4053 24.5489C11.0378 24.7626 10.3586 24.7162 9.88936 24.4453L8.97713 24.9754C9.44638 25.2464 9.52858 25.6396 9.16108 25.8532C8.79356 26.0668 8.11434 26.0204 7.64508 25.7495L6.73285 26.2797C7.20211 26.5505 7.28428 26.9438 6.91676 27.1574C6.54929 27.371 5.87002 27.3247 5.40076 27.0538L4.64078 27.4954C6.73214 28.7028 5.90913 29.6041 4.44385 30.4557L37.5956 49.5958C38.0007 49.3604 38.413 49.1555 38.8411 49.0048L55.7136 40.4578C55.1204 39.6514 55.8589 38.9824 56.9616 38.3416Z" fill="white"/>
<path d="M56.0189 41.7353L56.0176 42.1938L56.7633 41.7604L56.7646 41.3019L56.0189 41.7353Z" fill="white"/>
<path d="M53.7732 43.498L54.6854 42.9678L54.6867 42.5093L53.7745 43.0394L53.7732 43.498Z" fill="white"/>
<path d="M51.5291 44.8023L52.4413 44.2721L52.4426 43.8136L51.5304 44.3437L51.5291 44.8023Z" fill="white"/>
<path d="M49.2847 46.1065L50.1969 45.5763L50.1982 45.1178L49.2859 45.6479L49.2847 46.1065Z" fill="white"/>
<path d="M47.0405 47.4106L47.9527 46.8805L47.954 46.422L47.0418 46.9521L47.0405 47.4106Z" fill="white"/>
<path d="M44.7961 48.7149L45.7083 48.1847L45.7097 47.7262L44.7974 48.2563L44.7961 48.7149Z" fill="white"/>
<path d="M42.7041 49.9307L43.4641 49.4891L43.4654 49.0305L42.7054 49.4721L42.7041 49.9307Z" fill="white"/>
<path d="M4.44369 30.4558L4.44238 30.9143L37.5941 50.0545L37.5954 49.596L4.44369 30.4558Z" fill="#C1DBF6"/>
<path d="M38.2179 49.7228C38.2561 49.7044 38.2945 49.6867 38.3329 49.669C38.4031 49.6368 38.4738 49.6061 38.5448 49.5766C38.5828 49.5608 38.6207 49.5448 38.659 49.5298C38.7395 49.4982 38.8208 49.4692 38.9025 49.4416C38.9315 49.4318 38.9601 49.4208 38.9893 49.4115C39.0314 49.3981 39.0743 49.387 39.1168 49.3748C39.1713 49.3591 39.2256 49.3428 39.2806 49.3291C39.3246 49.3182 39.3693 49.3097 39.4136 49.3C39.4676 49.2884 39.5214 49.2762 39.576 49.2666C39.6395 49.2554 39.704 49.2476 39.7683 49.2394C39.8114 49.2339 39.854 49.2268 39.8976 49.2226C39.9235 49.2202 39.9499 49.2193 39.9761 49.2174C40.0481 49.212 40.1206 49.2078 40.1939 49.2064C40.2213 49.2059 40.2488 49.206 40.2763 49.206C40.3544 49.2061 40.4331 49.2085 40.5127 49.2134C40.5318 49.2146 40.5507 49.215 40.5699 49.2165C40.6666 49.2238 40.7644 49.2352 40.8634 49.2501C40.8917 49.2543 40.9206 49.2603 40.9491 49.2651C41.0209 49.2775 41.0934 49.2919 41.1665 49.3084C41.2153 49.3194 41.2646 49.332 41.3141 49.3449C41.3888 49.3644 41.4638 49.3849 41.5399 49.409C41.5614 49.4158 41.5828 49.4221 41.6044 49.4292C41.7095 49.464 41.816 49.5032 41.9239 49.5469C41.9404 49.5536 41.9571 49.5609 41.9737 49.5678C42.0834 49.6136 42.1944 49.6633 42.3071 49.7187C42.3187 49.7244 42.3304 49.7308 42.342 49.7365C42.461 49.796 42.5815 49.8599 42.7041 49.9307L42.7054 49.4721C42.5828 49.4014 42.4625 49.3376 42.3435 49.2781C42.3318 49.2723 42.32 49.2659 42.3083 49.2602C42.1956 49.2047 42.0847 49.155 41.975 49.1093C41.9584 49.1024 41.9417 49.0951 41.9252 49.0884C41.9102 49.0823 41.895 49.0754 41.88 49.0695C41.7874 49.0329 41.6962 49.0007 41.6057 48.9707C41.5841 48.9635 41.5627 48.9573 41.5412 48.9505C41.5001 48.9375 41.4587 48.9234 41.418 48.9118C41.3833 48.9019 41.3498 48.8954 41.3154 48.8864C41.2659 48.8735 41.2165 48.8609 41.1676 48.8498C41.1442 48.8445 41.1201 48.8372 41.0968 48.8323C41.0476 48.8221 40.9994 48.8151 40.9507 48.8067C40.922 48.8018 40.8931 48.7959 40.8646 48.7916C40.854 48.79 40.8432 48.7875 40.8326 48.786C40.7527 48.7746 40.6736 48.7657 40.5952 48.7592C40.5871 48.7586 40.5793 48.7586 40.5713 48.758C40.552 48.7565 40.533 48.756 40.5138 48.7549C40.4649 48.7519 40.4159 48.7483 40.3677 48.7471C40.3374 48.7463 40.3079 48.7475 40.2779 48.7475C40.2502 48.7474 40.2225 48.7474 40.195 48.7479C40.1754 48.7483 40.1554 48.7475 40.1359 48.7482C40.0824 48.75 40.0299 48.7549 39.9771 48.7589C39.9512 48.7608 39.9248 48.7617 39.899 48.7641C39.8922 48.7648 39.8852 48.7648 39.8784 48.7655C39.8416 48.7692 39.8057 48.7763 39.7692 48.781C39.705 48.7891 39.6407 48.7969 39.5774 48.8081C39.5687 48.8096 39.5597 48.8102 39.551 48.8118C39.5052 48.8201 39.4603 48.8317 39.4149 48.8416C39.3705 48.8512 39.3259 48.8597 39.282 48.8706C39.2267 48.8843 39.1721 48.9007 39.1174 48.9165C39.0752 48.9287 39.0327 48.9396 38.9909 48.953C38.985 48.9548 38.9789 48.9562 38.973 48.9581C38.9496 48.9656 38.9267 48.9754 38.9034 48.9833C38.8218 49.0109 38.7407 49.0397 38.6603 49.0712C38.6221 49.0862 38.5842 49.1022 38.5463 49.118C38.4751 49.1476 38.4043 49.1784 38.3339 49.2107C38.2957 49.2282 38.2574 49.2459 38.2194 49.2642C38.1464 49.2993 38.0737 49.336 38.0013 49.3736C37.9688 49.3905 37.9362 49.4068 37.9038 49.4241C37.8006 49.4795 37.6978 49.5365 37.5955 49.5959L37.5942 50.0544C37.6965 49.995 37.7993 49.938 37.9026 49.8827C37.9349 49.8653 37.9674 49.8491 37.9999 49.8322C38.0723 49.7946 38.1448 49.7579 38.2179 49.7228Z" fill="#C1DBF6"/>
<path d="M55.6371 39.4387L29.9743 22.543L28.3417 21.6005C26.8764 22.452 25.3232 22.9317 23.2318 21.7242L22.4861 22.1576C22.9554 22.4285 23.0387 22.8211 22.67 23.0353C22.3025 23.2489 21.6233 23.2026 21.154 22.9317L20.2419 23.4618C20.7111 23.7327 20.7945 24.1253 20.4258 24.3396C20.0583 24.5531 19.379 24.5068 18.9098 24.2359L17.9975 24.766C18.4668 25.0369 18.549 25.4302 18.1815 25.6438C17.814 25.8574 17.1348 25.8111 16.6655 25.5401L15.7533 26.0702C16.2225 26.3412 16.3047 26.7345 15.9372 26.948C15.5697 27.1616 14.8905 27.1153 14.4212 26.8443L13.509 27.3744C13.9783 27.6454 14.0604 28.0387 13.693 28.2522C13.3254 28.4658 12.6462 28.4195 12.177 28.1486L11.2647 28.6787C11.734 28.9496 11.8162 29.3428 11.4486 29.5564C11.0812 29.7701 10.689 29.6392 10.2197 29.3683L9.45972 29.8099C10.0617 30.3472 10.4305 30.7862 10.3562 32.3583L22.6033 40.9997L37.5955 49.5958L37.8111 49.4717C38.6942 48.9632 39.7098 48.703 40.7247 48.794C40.9573 48.8148 41.1891 48.8529 41.418 48.9117L42.1382 48.5001C41.6689 48.2292 41.588 47.8366 41.9555 47.623C42.323 47.4094 43.001 47.4551 43.4702 47.726L44.3825 47.1958C43.9132 46.9249 43.8322 46.5323 44.1998 46.3187C44.5673 46.1052 45.2452 46.1508 45.7145 46.4217L46.6267 45.8916C46.1575 45.6206 46.0765 45.2281 46.444 45.0145C46.8115 44.801 47.4895 44.8466 47.9588 45.1174L48.871 44.5874C48.4018 44.3164 48.3208 43.9239 48.6883 43.7103C49.0558 43.4967 49.7338 43.5423 50.2031 43.8132L51.1153 43.2831C50.646 43.0122 50.5651 42.6196 50.9326 42.406C51.3013 42.1918 51.9781 42.2381 52.4474 42.509L53.3596 41.9789C52.8903 41.7079 52.8094 41.3154 53.1769 41.1018C53.5456 40.8876 54.2224 40.9338 54.6916 41.2048L55.8736 40.6452C55.3561 40.3464 55.8322 39.7038 55.6371 39.4387Z" fill="#C1DBF6"/>
<path fill-rule="evenodd" clip-rule="evenodd" d="M24.041 20.8444L54.0164 38.1506L53.9101 38.3463C53.8432 38.4696 53.7717 38.5863 53.7059 38.6935C53.5161 39.0064 53.3709 39.2518 53.3269 39.5097C53.2864 39.747 53.3295 40.02 53.5935 40.3848L53.7416 40.5894L41.384 47.7765L41.2947 47.7549C39.9451 47.4281 39.0754 47.6057 38.0302 47.8216L38.0295 47.8217L37.9727 47.8332C37.8038 47.8676 37.6286 47.9032 37.4466 47.9372L37.3636 47.9526L7.3855 30.6448L7.49687 30.4476C7.59235 30.2786 7.69719 30.1258 7.79522 29.9844C7.98697 29.7057 8.12875 29.4936 8.17552 29.2687C8.21757 29.0665 8.18642 28.8249 7.94098 28.4859L7.79274 28.2811L20.1599 21.0998L20.2489 21.1211C21.5009 21.4213 22.2619 21.2447 23.1785 21.031C23.4225 20.9736 23.6782 20.9139 23.9574 20.8604L24.041 20.8444ZM23.9603 21.3256C23.7232 21.3729 23.502 21.4246 23.2829 21.476L23.2812 21.4764C22.3696 21.689 21.539 21.8827 20.232 21.5866L8.44812 28.4292C8.63802 28.7629 8.68426 29.0676 8.62309 29.3617C8.55565 29.686 8.35993 29.9703 8.18448 30.2251C8.18018 30.2314 8.17589 30.2376 8.17161 30.2438L8.17118 30.2445C8.11665 30.3231 8.0635 30.4004 8.01263 30.479L37.4456 47.4721C37.5942 47.4437 37.7386 47.4144 37.8815 47.3853L37.9377 47.3739C37.9379 47.3738 37.938 47.3738 37.9381 47.3738C38.9731 47.1601 39.9093 46.9669 41.3123 47.2893L53.0856 40.442C52.8765 40.0815 52.8218 39.752 52.8763 39.4328C52.9363 39.0806 53.1281 38.7646 53.304 38.4746L53.3153 38.456L53.3159 38.4549C53.3434 38.4103 53.3706 38.3658 53.3974 38.3212L23.9603 21.3256Z" fill="#C1DBF6"/>
<path d="M35.8707 46.9151C35.6053 46.824 35.3435 46.732 35.0827 46.6394C34.8246 46.5468 34.5686 46.4528 34.3163 46.3581C34.0617 46.2634 33.8129 46.168 33.5654 46.0719C33.3179 45.9759 33.0739 45.8791 32.8323 45.781C32.5919 45.6835 32.3528 45.5854 32.1171 45.4866C31.8815 45.3877 31.6483 45.2875 31.4174 45.1873C31.1865 45.0871 30.9593 44.9862 30.7343 44.8839C30.5094 44.7829 30.287 44.6807 30.0656 44.5777C29.8455 44.4754 29.6277 44.3717 29.4124 44.2681C29.1958 44.1637 28.9828 44.0601 28.771 43.9542C28.5592 43.8499 28.3498 43.7441 28.144 43.6377C27.9369 43.532 27.7323 43.4248 27.5288 43.3184C27.3266 43.2113 27.1255 43.1034 26.9269 42.9956C26.7282 42.8864 26.5307 42.7779 26.3356 42.6694C26.1404 42.5595 25.9477 42.4496 25.7562 42.339C25.7045 42.3095 25.6531 42.2801 25.6019 42.2505C25.4621 42.1697 25.3236 42.0885 25.1851 42.0066C24.9972 41.8953 24.8104 41.7833 24.626 41.67C24.4404 41.5574 24.2572 41.4447 24.074 41.3306C23.8932 41.2166 23.7123 41.1025 23.5339 40.9871C23.3531 40.8717 23.1746 40.7563 22.9986 40.6395C22.8226 40.524 22.6477 40.4065 22.4728 40.289C22.2991 40.1708 22.1254 40.0527 21.9541 39.9331C21.7828 39.8136 21.6115 39.694 21.4426 39.573C21.2725 39.4528 21.1047 39.3311 20.937 39.2081C20.7692 39.0865 20.6027 38.9627 20.4361 38.839C20.272 38.7153 20.1078 38.5902 19.9436 38.4637C19.7794 38.3387 19.6164 38.2114 19.4547 38.0836C19.2928 37.9557 19.131 37.8279 18.9704 37.6979C18.8098 37.568 18.6503 37.4373 18.4909 37.3053C18.3314 37.1733 18.1744 37.0399 18.0161 36.9059C17.8579 36.7717 17.702 36.6363 17.5449 36.5001C17.389 36.3633 17.2331 36.225 17.076 36.0861C16.9213 35.9472 16.7666 35.8069 16.6131 35.6645C16.4584 35.5228 16.3048 35.3791 16.1512 35.2353C15.9977 35.0902 15.8454 34.9444 15.6929 34.7958C15.5406 34.6485 15.3894 34.4992 15.237 34.3479C15.0858 34.1972 14.9346 34.0452 14.7846 33.891C14.6334 33.7362 14.4834 33.5807 14.3333 33.4224C14.1845 33.2649 14.0344 33.1052 13.8843 32.9441C13.7355 32.7824 13.5877 32.6186 13.4389 32.4541C13.29 32.2882 13.1423 32.1203 12.9945 31.9509C12.8468 31.7816 12.7003 31.6102 12.5537 31.436C12.4072 31.2619 12.2606 31.0863 12.114 30.908C11.9686 30.729 11.8233 30.5486 11.6778 30.3655C11.5324 30.1823 11.387 29.9964 11.2428 29.8084C11.0985 29.6204 10.9543 29.4296 10.8112 29.2354C10.6681 29.0426 10.5238 28.8463 10.3819 28.6472C10.24 28.4481 10.098 28.2463 9.95609 28.0417C9.81415 27.8372 9.67338 27.6291 9.53374 27.419C9.39296 27.2082 9.25333 26.994 9.11493 26.7776C8.97648 26.5599 8.83799 26.3394 8.70071 26.1169C8.56346 25.8929 8.42611 25.6662 8.29116 25.4354C8.15507 25.2052 8.0201 24.9716 7.88631 24.7332L7.88501 25.1917C8.01882 25.4301 8.15376 25.6638 8.28986 25.8939C8.4248 26.1248 8.56215 26.3515 8.69941 26.5754C8.83669 26.798 8.9752 27.0184 9.11365 27.2361C9.25205 27.4525 9.39166 27.6667 9.53246 27.8775C9.6721 28.0876 9.81287 28.2957 9.95481 28.5003C10.0968 28.7048 10.2387 28.9067 10.3806 29.1057C10.5225 29.3048 10.6668 29.5011 10.8099 29.6939C10.953 29.8881 11.0972 30.0789 11.2415 30.2669C11.3858 30.4548 11.5312 30.6408 11.6766 30.8239C11.822 31.0071 11.9674 31.1875 12.1128 31.3665C12.2594 31.5448 12.4059 31.7204 12.5525 31.8945C12.699 32.0687 12.8456 32.2401 12.9933 32.4095C13.141 32.5788 13.2887 32.7468 13.4376 32.9127C13.5864 33.0771 13.7342 33.2409 13.8831 33.4026C14.0331 33.5637 14.1832 33.7234 14.332 33.8809C14.4821 34.0392 14.6321 34.1948 14.7833 34.3496C14.9334 34.5036 15.0845 34.6557 15.2357 34.8064C15.3881 34.9577 15.5393 35.1071 15.6917 35.2543C15.8441 35.4029 15.9964 35.5487 16.1499 35.6938C16.3035 35.8376 16.4571 35.9814 16.6118 36.123C16.7653 36.2654 16.92 36.4057 17.0747 36.5447C17.2318 36.6836 17.3877 36.8218 17.5436 36.9586C17.7007 37.0948 17.8566 37.2303 18.0148 37.3644C18.1731 37.4984 18.3301 37.6318 18.4896 37.7639C18.649 37.8959 18.8084 38.0265 18.9691 38.1564C19.1297 38.2864 19.2915 38.4142 19.4534 38.5421C19.6151 38.67 19.7781 38.7972 19.9423 38.9223C20.1065 39.0487 20.2707 39.1738 20.4348 39.2975C20.6014 39.4212 20.7679 39.5449 20.9357 39.6666C21.1034 39.7897 21.2712 39.9113 21.4413 40.0316C21.6102 40.1525 21.7816 40.2721 21.9528 40.3916C22.1241 40.5112 22.2978 40.6294 22.4715 40.7476C22.6464 40.8651 22.8213 40.9825 22.9973 41.098C23.1733 41.2148 23.3518 41.3302 23.5326 41.4457C23.7111 41.5611 23.8919 41.6751 24.0727 41.7892C24.2559 41.9032 24.4391 42.0159 24.6247 42.1285C24.8091 42.2418 24.9958 42.3538 25.1838 42.4651C25.3223 42.5471 25.4607 42.6283 25.6006 42.7091C25.6518 42.7386 25.7032 42.7681 25.7549 42.7975C25.9464 42.9081 26.1391 43.018 26.3343 43.1279C26.5294 43.2364 26.7269 43.345 26.9256 43.4541C27.1242 43.5619 27.3253 43.6698 27.5275 43.7769C27.731 43.8833 27.9356 43.9905 28.1427 44.0962C28.3485 44.2027 28.5579 44.3084 28.7697 44.4128C28.9815 44.5185 29.1945 44.6222 29.411 44.7265C29.6264 44.8302 29.8441 44.9339 30.0643 45.0362C30.2856 45.1392 30.5081 45.2415 30.733 45.3424C30.9579 45.4447 31.1852 45.5456 31.4161 45.6458C31.6469 45.746 31.8801 45.8463 32.1158 45.9451C32.3514 46.0439 32.5906 46.142 32.831 46.2395C32.9999 46.3081 33.1701 46.3761 33.3418 46.4436C33.4156 46.4727 33.4897 46.5016 33.5641 46.5305C33.8116 46.6265 34.0603 46.7219 34.315 46.8166C34.5673 46.9113 34.8232 47.0053 35.0814 47.0979C35.3421 47.1905 35.6039 47.2825 35.8694 47.3737C36.1347 47.4649 36.4049 47.5548 36.6763 47.6439L36.6776 47.1854C36.4062 47.0962 36.1361 47.0064 35.8707 46.9151Z" fill="#C1DBF6"/>
<path d="M42.5027 46.5018C42.3411 46.4601 42.1823 46.4231 42.0262 46.3908C42.023 46.3901 42.0199 46.3897 42.0166 46.3891C41.8504 46.3549 41.6871 46.3257 41.5267 46.302C41.5089 46.2994 41.4911 46.2968 41.4733 46.2943C41.3949 46.2832 41.3185 46.2768 41.2411 46.2683C41.1761 46.261 41.1102 46.2518 41.0458 46.2463C41.0393 46.2458 41.0325 46.2447 41.0259 46.2441C40.8879 46.2327 40.7515 46.2254 40.6169 46.2219C40.6096 46.2217 40.6021 46.2215 40.5947 46.2213C40.4569 46.2178 40.3208 46.2185 40.1865 46.2231C40.1859 46.2231 40.1853 46.2232 40.1847 46.2232C40.0414 46.2281 39.9 46.2374 39.7604 46.2509C39.7453 46.2524 39.7301 46.2538 39.715 46.2553C39.6024 46.2665 39.4916 46.2813 39.3814 46.2978C39.3529 46.3021 39.3246 46.3069 39.2963 46.3115C39.2548 46.3182 39.213 46.3241 39.1718 46.3315C39.0966 46.345 39.0218 46.3597 38.9473 46.3754C38.6827 46.432 38.423 46.5025 38.1681 46.5841C38.1671 46.5844 38.166 46.5848 38.165 46.5851C38.0818 46.6118 37.9998 46.6413 37.9175 46.6702C37.8745 46.6854 37.8309 46.699 37.7882 46.7148C37.6632 46.7606 37.539 46.8089 37.4156 46.8592C37.1667 46.9608 36.9216 47.07 36.6776 47.1854L36.6763 47.644C36.9202 47.5285 37.1654 47.4193 37.4142 47.3178C37.5378 47.2674 37.6619 47.2191 37.7869 47.1732C37.8256 47.1591 37.865 47.1467 37.9038 47.1331C37.9912 47.1022 38.0784 47.0709 38.1669 47.0427C38.4217 46.9611 38.6814 46.8906 38.946 46.8339C39.0615 46.8096 39.1781 46.789 39.2953 46.77C39.3235 46.7654 39.3516 46.7606 39.38 46.7564C39.505 46.7376 39.631 46.7213 39.7591 46.7095C39.8987 46.6959 40.04 46.6867 40.1834 46.6817C40.3255 46.6769 40.4695 46.6764 40.6157 46.6805C40.7566 46.6841 40.8998 46.6926 41.0446 46.7049C41.1088 46.7103 41.1747 46.7196 41.2396 46.7268C41.3346 46.7373 41.4288 46.7463 41.5254 46.7606C41.6858 46.7843 41.8491 46.8134 42.0153 46.8476C42.1746 46.8804 42.3365 46.9177 42.5014 46.9603L42.5027 46.5018Z" fill="#C1DBF6"/>
<path d="M54.8221 40.1037C54.8082 40.1022 54.7947 40.1004 54.7806 40.0991C54.7723 40.0984 54.7645 40.0971 54.7562 40.0964C54.7021 40.092 54.6466 40.089 54.5903 40.0876C54.5878 40.0876 54.5853 40.0877 54.5828 40.0876C54.5668 40.0873 54.5505 40.088 54.5345 40.0879C54.488 40.0876 54.4415 40.087 54.3943 40.0886C54.3868 40.0889 54.3792 40.0898 54.3716 40.0901C54.3324 40.0917 54.2934 40.0951 54.2541 40.0979C54.2237 40.1002 54.1932 40.101 54.1629 40.104C54.1485 40.1054 54.1341 40.1069 54.1198 40.1085C54.046 40.1168 53.973 40.1274 53.9018 40.1403C53.9009 40.1404 53.9001 40.1406 53.8992 40.1408C53.8932 40.1419 53.8875 40.1434 53.8814 40.1446C53.8211 40.1558 53.7625 40.1688 53.7057 40.1833C53.6855 40.1884 53.6666 40.1942 53.6469 40.1997C53.6209 40.207 53.5938 40.2136 53.5688 40.2216C53.5517 40.2271 53.5363 40.2335 53.5197 40.2393C53.5046 40.2446 53.4896 40.2499 53.475 40.2554C53.4217 40.2757 53.3706 40.2971 53.3251 40.3207C53.3045 40.3315 53.2851 40.3423 53.267 40.3533C53.2582 40.3586 53.2531 40.3642 53.2449 40.3696C53.2224 40.3843 53.2025 40.3991 53.1844 40.4141C53.1772 40.4201 53.1667 40.4259 53.1601 40.4319C53.1531 40.4385 53.148 40.4452 53.1417 40.4518C53.1373 40.4564 53.1328 40.461 53.1288 40.4656C53.1255 40.4694 53.1211 40.4732 53.1181 40.4771C53.1089 40.4888 53.101 40.5005 53.0944 40.5121C53.0916 40.5171 53.0897 40.5221 53.0874 40.5271C53.0864 40.5291 53.0854 40.5311 53.0845 40.5332C53.0832 40.5362 53.0813 40.5393 53.0802 40.5423C53.0768 40.5515 53.0741 40.5607 53.0723 40.5699C53.0705 40.5787 53.0695 40.5875 53.0692 40.5963C53.0692 40.5976 53.0692 40.5989 53.0692 40.6002L53.0679 41.0588C53.0679 41.0368 53.0734 41.0143 53.0832 40.9918C53.0841 40.9897 53.0851 40.9876 53.0861 40.9856C53.0957 40.9652 53.1099 40.9447 53.1275 40.9242C53.1315 40.9195 53.1361 40.9149 53.1404 40.9103C53.1525 40.8976 53.1681 40.8852 53.1832 40.8726C53.2012 40.8577 53.2212 40.8428 53.2436 40.8281C53.2687 40.8117 53.2933 40.7952 53.3239 40.7793C53.3694 40.7556 53.4205 40.7343 53.4737 40.714C53.4883 40.7084 53.5033 40.7031 53.5185 40.6979C53.5591 40.6836 53.6018 40.6706 53.6457 40.6583C53.6653 40.6528 53.6843 40.6469 53.7044 40.6418C53.7612 40.6274 53.8199 40.6144 53.8802 40.6031C53.8862 40.602 53.8919 40.6004 53.898 40.5993C53.97 40.5863 54.0439 40.5755 54.1186 40.5671C54.1632 40.5622 54.2082 40.5598 54.2532 40.5565C54.2922 40.5536 54.3313 40.5503 54.3702 40.5487C54.4251 40.5465 54.4795 40.546 54.5336 40.5464C54.5495 40.5465 54.5658 40.5458 54.5816 40.5462C54.649 40.5477 54.7151 40.5517 54.7794 40.5576C54.7935 40.5589 54.8071 40.5607 54.8209 40.5623C54.8824 40.5689 54.9427 40.5768 54.9993 40.5878L55.0006 40.1293C54.9673 40.1228 54.9329 40.1171 54.8978 40.1121C54.8733 40.1086 54.8473 40.1065 54.8221 40.1037Z" fill="#C1DBF6"/>
<path d="M52.3808 41.4075C52.3645 41.4052 52.3472 41.4039 52.3306 41.402C52.3136 41.3999 52.2968 41.398 52.2795 41.3963C52.2637 41.3947 52.2485 41.3924 52.2325 41.3911C52.1957 41.3881 52.1578 41.3868 52.1202 41.3851C52.105 41.3844 52.0903 41.3832 52.075 41.3827C52.0704 41.3826 52.0659 41.3821 52.0612 41.382C51.9959 41.3804 51.9298 41.3807 51.8634 41.383C51.8624 41.383 51.8612 41.3832 51.8601 41.3832C51.8375 41.384 51.8151 41.3864 51.7924 41.3876C51.7421 41.3904 51.6917 41.3927 51.6419 41.3975C51.637 41.398 51.632 41.3986 51.6271 41.3991C51.5475 41.4073 51.4691 41.4186 51.3927 41.4321C51.3897 41.4327 51.3866 41.4329 51.3837 41.4334C51.3207 41.4447 51.2599 41.4581 51.2008 41.473C51.1844 41.477 51.1693 41.4819 51.1533 41.4863C51.1211 41.4951 51.0881 41.5033 51.0575 41.5131C51.0433 41.5177 51.0305 41.523 51.0167 41.5278C51.0028 41.5326 50.9892 41.5375 50.9757 41.5426C50.9222 41.5626 50.8709 41.5837 50.8253 41.6071C50.8021 41.6188 50.7805 41.6308 50.7605 41.6429C50.7521 41.648 50.7472 41.6534 50.7394 41.6585C50.718 41.6724 50.6993 41.6865 50.682 41.7007C50.6742 41.7071 50.6631 41.7133 50.656 41.7198C50.6491 41.7263 50.644 41.7328 50.6379 41.7393C50.6336 41.7437 50.6293 41.7482 50.6254 41.7527C50.622 41.7566 50.6175 41.7604 50.6145 41.7644C50.6052 41.7761 50.5973 41.7879 50.5907 41.7996C50.5877 41.8048 50.5858 41.81 50.5834 41.8152C50.5824 41.8173 50.5813 41.8193 50.5805 41.8213C50.5792 41.8243 50.5774 41.8272 50.5763 41.8302C50.5728 41.8396 50.5701 41.849 50.5682 41.8584C50.5664 41.8675 50.5653 41.8766 50.5651 41.8856C50.565 41.887 50.565 41.8884 50.565 41.8897L50.5637 42.3482C50.5638 42.3258 50.5693 42.3029 50.5792 42.2799C50.5801 42.2779 50.5811 42.2758 50.5821 42.2737C50.5919 42.2529 50.6061 42.2321 50.6241 42.2113C50.628 42.2068 50.6324 42.2023 50.6367 42.1978C50.6489 42.1849 50.6651 42.1721 50.6806 42.1593C50.6979 42.1451 50.7168 42.1309 50.7381 42.117C50.7647 42.0997 50.7911 42.0823 50.824 42.0656C50.8696 42.0422 50.921 42.0211 50.9745 42.0011C50.9879 41.9961 51.0015 41.9912 51.0153 41.9864C51.059 41.9713 51.1052 41.9575 51.1527 41.9446C51.1684 41.9404 51.1832 41.9356 51.1993 41.9315C51.2612 41.9161 51.3255 41.9023 51.3915 41.8907C51.468 41.8771 51.5463 41.8659 51.6258 41.8576C51.6805 41.852 51.7359 41.8492 51.7911 41.8462C51.8137 41.845 51.8362 41.8425 51.8588 41.8417C51.931 41.8392 52.0029 41.8392 52.0737 41.8413C52.089 41.8417 52.1037 41.843 52.1189 41.8437C52.1729 41.8461 52.2262 41.8496 52.2782 41.8549C52.2954 41.8566 52.3124 41.8585 52.3293 41.8605C52.3917 41.868 52.4528 41.8768 52.5102 41.8887L52.5115 41.4302C52.5113 41.4302 52.5112 41.4301 52.511 41.4301C52.469 41.4214 52.4255 41.4138 52.3808 41.4075Z" fill="#C1DBF6"/>
<path d="M49.8422 42.6978C49.8321 42.6964 49.8214 42.6957 49.8112 42.6944C49.7947 42.6923 49.7779 42.6906 49.7611 42.6888C49.7372 42.6862 49.7139 42.6829 49.6896 42.6809C49.6639 42.6788 49.6373 42.6782 49.6112 42.6767C49.5902 42.6756 49.5695 42.6742 49.5483 42.6734C49.5372 42.673 49.5266 42.6719 49.5156 42.6717C49.4751 42.6707 49.4339 42.6718 49.3929 42.6723C49.372 42.6725 49.3514 42.6719 49.3304 42.6726C49.326 42.6727 49.3216 42.6725 49.3172 42.6726C49.2479 42.675 49.1784 42.6794 49.1095 42.686C49.1021 42.6866 49.0946 42.6874 49.0872 42.6881C49.065 42.6903 49.0438 42.6945 49.0218 42.6972C48.9672 42.7037 48.913 42.7105 48.8601 42.7195C48.853 42.7208 48.8454 42.7213 48.8383 42.7226C48.781 42.7329 48.725 42.7449 48.6709 42.7581C48.6651 42.7596 48.6599 42.7614 48.6542 42.7628C48.6085 42.7744 48.5636 42.7865 48.521 42.8002C48.5099 42.8037 48.5 42.8079 48.4892 42.8116C48.477 42.8157 48.4655 42.82 48.4536 42.8243C48.3992 42.8441 48.3471 42.8651 48.3005 42.8885C48.2773 42.9002 48.2558 42.9121 48.2357 42.9242C48.2273 42.9293 48.2223 42.9348 48.2144 42.94C48.1931 42.9539 48.1745 42.9679 48.1572 42.9821C48.1493 42.9885 48.1382 42.9947 48.1312 43.0012C48.124 43.0078 48.1188 43.0146 48.1125 43.0212C48.1083 43.0257 48.1039 43.0301 48.1 43.0346C48.0967 43.0385 48.0924 43.0422 48.0893 43.0461C48.08 43.058 48.072 43.0699 48.0653 43.0817C48.0622 43.0871 48.0602 43.0926 48.0577 43.098C48.0567 43.1001 48.0556 43.1021 48.0547 43.1042C48.0535 43.1071 48.0518 43.11 48.0507 43.1128C48.0471 43.1224 48.0443 43.132 48.0424 43.1416C48.0405 43.151 48.0395 43.1603 48.0392 43.1696C48.0392 43.171 48.0391 43.1724 48.0391 43.1738L48.0378 43.6323C48.0379 43.6094 48.0435 43.5861 48.0535 43.5628C48.0543 43.5607 48.0554 43.5586 48.0564 43.5565C48.0662 43.5354 48.0806 43.5143 48.0988 43.4932C48.1026 43.4887 48.107 43.4842 48.1113 43.4798C48.1238 43.4666 48.1401 43.4537 48.1559 43.4406C48.1732 43.4264 48.1919 43.4124 48.2132 43.3985C48.2398 43.3811 48.2663 43.3637 48.2992 43.347C48.3458 43.3237 48.3979 43.3027 48.4522 43.2829C48.4641 43.2786 48.4759 43.2742 48.4881 43.2701C48.5402 43.2524 48.595 43.2361 48.6522 43.2216C48.6582 43.22 48.6637 43.2181 48.6697 43.2166C48.7305 43.2017 48.794 43.1893 48.8587 43.1781C48.9116 43.169 48.9661 43.1622 49.0207 43.1557C49.0501 43.1522 49.0787 43.1472 49.1083 43.1445C49.1815 43.1376 49.2555 43.1333 49.3292 43.1311C49.3501 43.1305 49.3708 43.131 49.3917 43.1308C49.4438 43.1302 49.4958 43.1301 49.5471 43.132C49.5682 43.1327 49.5888 43.1341 49.6097 43.1353C49.6607 43.1381 49.7109 43.1421 49.7601 43.1474C49.7767 43.1493 49.7935 43.1508 49.8099 43.1529C49.8751 43.1613 49.9388 43.1714 49.9987 43.1846L50 42.726C49.9926 42.7244 49.9852 42.7228 49.9777 42.7213C49.934 42.7123 49.8887 42.7044 49.8422 42.6978Z" fill="#C1DBF6"/>
<path d="M47.2722 43.9829C47.269 43.9825 47.2655 43.9823 47.2622 43.9818C47.2526 43.9805 47.2425 43.9798 47.2328 43.9785C47.1951 43.9738 47.1575 43.9691 47.1187 43.9659C47.1012 43.9644 47.0831 43.9642 47.0654 43.9631C47.0433 43.9616 47.0213 43.9605 46.999 43.9595C46.9807 43.9588 46.963 43.9571 46.9446 43.9567C46.9156 43.9559 46.8861 43.957 46.8569 43.9571C46.8301 43.9571 46.8037 43.9568 46.7768 43.9574C46.7664 43.9577 46.7562 43.9573 46.7459 43.9576C46.6869 43.9596 46.6279 43.9631 46.5692 43.9681C46.5512 43.9696 46.5333 43.9712 46.5154 43.973C46.4904 43.9755 46.4666 43.9801 46.4418 43.9832C46.3959 43.9888 46.3506 43.9945 46.3061 44.002C46.2951 44.0038 46.2834 44.0047 46.2726 44.0066C46.2286 44.0145 46.1861 44.024 46.144 44.0338C46.1366 44.0355 46.1287 44.0367 46.1213 44.0385C46.0686 44.0513 46.0176 44.0653 45.969 44.0809C45.9597 44.0839 45.9514 44.0873 45.9424 44.0904C45.9312 44.0942 45.9207 44.0981 45.9099 44.102C45.855 44.1218 45.8024 44.1429 45.7553 44.1665C45.7295 44.1793 45.7056 44.1923 45.6836 44.2056C45.6759 44.2102 45.6713 44.2153 45.6641 44.22C45.6436 44.2333 45.6259 44.2468 45.6091 44.2605C45.6005 44.2674 45.5887 44.2741 45.5811 44.2811C45.5744 44.2873 45.5696 44.2936 45.5637 44.2998C45.5595 44.3042 45.5553 44.3085 45.5514 44.313C45.5478 44.3171 45.5431 44.3212 45.5398 44.3255C45.5305 44.3373 45.5225 44.3492 45.5158 44.3611C45.5127 44.3664 45.5107 44.3718 45.5082 44.3772C45.5072 44.3793 45.5062 44.3813 45.5053 44.3834C45.504 44.3864 45.5022 44.3894 45.5011 44.3924C45.4974 44.4021 45.4946 44.4118 45.4927 44.4216C45.4908 44.4311 45.4897 44.4406 45.4894 44.4501C45.4894 44.4516 45.4893 44.453 45.4893 44.4544L45.488 44.913C45.4881 44.8895 45.4938 44.8657 45.504 44.842C45.5049 44.8399 45.5059 44.8378 45.5069 44.8357C45.517 44.8142 45.5317 44.7928 45.5502 44.7715C45.554 44.7671 45.5582 44.7627 45.5624 44.7583C45.5751 44.7451 45.5918 44.7321 45.6078 44.7191C45.6246 44.7054 45.6424 44.6919 45.6628 44.6786C45.6908 44.6604 45.7192 44.6423 45.754 44.625C45.8012 44.6015 45.8538 44.5803 45.9088 44.5605C45.9195 44.5567 45.9301 44.5527 45.941 44.549C45.9978 44.5298 46.0573 44.5123 46.12 44.4971C46.1274 44.4953 46.1354 44.494 46.1429 44.4923C46.1952 44.4802 46.2496 44.4699 46.3048 44.4605C46.3492 44.4531 46.3948 44.4473 46.4405 44.4418C46.4829 44.4366 46.5248 44.4302 46.568 44.4267C46.637 44.4208 46.7065 44.4178 46.7758 44.416C46.8024 44.4154 46.8287 44.4157 46.8552 44.4156C46.9031 44.4156 46.9508 44.4161 46.998 44.4181C47.0201 44.4191 47.0422 44.4202 47.0641 44.4216C47.1209 44.4253 47.1769 44.4303 47.2315 44.4371C47.2413 44.4384 47.2514 44.4391 47.261 44.4404C47.3307 44.45 47.3981 44.462 47.4619 44.4771L47.4632 44.0186C47.4457 44.0144 47.428 44.0105 47.41 44.0068C47.3654 43.9976 47.3193 43.9896 47.2722 43.9829Z" fill="#C1DBF6"/>
<path d="M44.712 45.2684C44.7059 45.2675 44.7001 45.2662 44.694 45.2653C44.692 45.265 44.6902 45.2646 44.6882 45.2643C44.6365 45.257 44.5834 45.2511 44.5295 45.2467C44.5186 45.2458 44.5073 45.2457 44.4963 45.2449C44.4747 45.2434 44.453 45.2426 44.4312 45.2415C44.4044 45.2401 44.3781 45.2379 44.351 45.2372C44.3298 45.2367 44.3083 45.2376 44.2869 45.2375C44.2586 45.2374 44.2308 45.2374 44.2024 45.2379C44.1853 45.2382 44.1683 45.2376 44.1511 45.2381C44.1031 45.2398 44.0552 45.2424 44.0076 45.246C43.9814 45.248 43.9552 45.2503 43.9292 45.2529C43.9066 45.2551 43.8852 45.2594 43.8628 45.2621C43.8182 45.2674 43.7744 45.2732 43.731 45.2803C43.7163 45.2827 43.7007 45.2839 43.6861 45.2865C43.6541 45.2922 43.6237 45.2994 43.5927 45.3061C43.5786 45.3092 43.5641 45.3118 43.5503 45.3151C43.4946 45.3282 43.4404 45.3426 43.3894 45.359C43.3833 45.361 43.3779 45.3632 43.3719 45.3653C43.3636 45.368 43.3558 45.371 43.3477 45.3739C43.2911 45.3936 43.2372 45.4149 43.1889 45.4389C43.1619 45.4521 43.1369 45.4657 43.114 45.4795C43.1063 45.4841 43.1018 45.4891 43.0945 45.4939C43.0746 45.5068 43.0575 45.52 43.0411 45.5333C43.0322 45.5404 43.0201 45.5472 43.0123 45.5544C43.0053 45.5609 43.0003 45.5675 42.9941 45.574C42.9899 45.5784 42.9857 45.5827 42.9818 45.5871C42.9784 45.5912 42.9738 45.5951 42.9706 45.5992C42.9612 45.6112 42.953 45.6233 42.9462 45.6354C42.9429 45.6412 42.9407 45.647 42.938 45.6527C42.9371 45.6548 42.936 45.6569 42.9351 45.659C42.9339 45.6618 42.9322 45.6646 42.9312 45.6674C42.9274 45.6774 42.9245 45.6875 42.9225 45.6975C42.9205 45.7074 42.9194 45.7172 42.9191 45.727C42.919 45.7285 42.919 45.73 42.919 45.7315L42.9177 46.19C42.9178 46.166 42.9235 46.1417 42.9338 46.1175C42.9347 46.1154 42.9358 46.1133 42.9368 46.1113C42.9469 46.0893 42.9618 46.0674 42.9806 46.0457C42.9844 46.0413 42.9886 46.0369 42.9928 46.0326C43.0059 46.0187 43.0232 46.0053 43.0398 45.9917C43.0562 45.9785 43.0734 45.9653 43.0932 45.9524C43.122 45.9337 43.1515 45.9151 43.1876 45.8974C43.2359 45.8735 43.2899 45.8522 43.3464 45.8325C43.3545 45.8296 43.3623 45.8266 43.3706 45.8237C43.427 45.805 43.4867 45.7883 43.549 45.7736C43.5629 45.7704 43.5774 45.7677 43.5915 45.7647C43.6364 45.7549 43.6828 45.7465 43.7298 45.7388C43.773 45.7317 43.8171 45.7259 43.8616 45.7205C43.9096 45.7148 43.9574 45.7082 44.0063 45.7045C44.0708 45.6996 44.1359 45.6977 44.2009 45.6964C44.2293 45.6959 44.2576 45.6958 44.286 45.696C44.3342 45.6963 44.3823 45.6976 44.4299 45.7C44.4516 45.701 44.4735 45.7019 44.495 45.7034C44.5622 45.7082 44.6286 45.7146 44.6925 45.7238C44.6989 45.7247 44.7049 45.726 44.7113 45.727C44.7784 45.7372 44.8437 45.7494 44.9052 45.7647L44.9064 45.3061C44.8818 45.3 44.8565 45.2943 44.8309 45.289C44.7924 45.281 44.7524 45.2746 44.712 45.2684Z" fill="#C1DBF6"/>
<path d="M57.3855 38.8114C57.348 38.8061 57.3091 38.8021 57.2699 38.7986C57.2649 38.7982 57.2603 38.7974 57.2554 38.797C57.2538 38.7968 57.2522 38.7966 57.2506 38.7964C57.1987 38.7922 57.1454 38.7894 57.0914 38.788C57.082 38.7878 57.0723 38.7883 57.0629 38.7882C57.0377 38.7878 57.0124 38.7884 56.987 38.7886C56.9581 38.7888 56.9296 38.788 56.9005 38.789C56.8863 38.7895 56.872 38.7912 56.8578 38.7918C56.8191 38.7936 56.7807 38.7965 56.7418 38.7996C56.7182 38.8014 56.6945 38.802 56.671 38.8043C56.6437 38.807 56.6166 38.81 56.5895 38.8134C56.5252 38.8211 56.4616 38.8307 56.3994 38.8419C56.3935 38.843 56.3879 38.8445 56.382 38.8456C56.3618 38.8493 56.3427 38.8539 56.3228 38.8581C56.2763 38.8677 56.2308 38.8779 56.1865 38.8894C56.1636 38.8953 56.1418 38.9017 56.1196 38.9081C56.099 38.9141 56.0771 38.9193 56.0572 38.9256C56.0365 38.9322 56.0179 38.94 55.9981 38.947C55.9817 38.9528 55.9653 38.9585 55.9496 38.9646C55.8963 38.9853 55.8453 39.0071 55.7997 39.0311C55.7805 39.0412 55.7623 39.0514 55.7454 39.0617C55.7262 39.0733 55.7089 39.085 55.6925 39.0968C55.6911 39.0979 55.6894 39.0988 55.688 39.0999C55.6692 39.1136 55.6523 39.1273 55.6373 39.1411C55.6302 39.1477 55.6252 39.1543 55.6189 39.1608C55.6145 39.1655 55.6099 39.1701 55.6059 39.1747C55.6027 39.1785 55.5984 39.1823 55.5954 39.1861C55.5863 39.1976 55.5785 39.2092 55.572 39.2207C55.5692 39.2256 55.5674 39.2304 55.5651 39.2353C55.5642 39.2373 55.5632 39.2393 55.5623 39.2413C55.561 39.2443 55.5592 39.2474 55.558 39.2504C55.5546 39.2595 55.552 39.2685 55.5502 39.2775C55.5485 39.2862 55.5475 39.2948 55.5472 39.3034C55.5472 39.3047 55.5472 39.306 55.5472 39.3073L55.5459 39.7658C55.5459 39.7442 55.5514 39.7221 55.561 39.6999C55.5619 39.6979 55.5629 39.6958 55.5639 39.6938C55.5734 39.6737 55.5873 39.6536 55.6046 39.6333C55.6086 39.6286 55.6133 39.624 55.6177 39.6193C55.6371 39.5989 55.6591 39.5786 55.6867 39.5584C55.6881 39.5574 55.6899 39.5563 55.6914 39.5553C55.7222 39.5331 55.7576 39.5111 55.7984 39.4896C55.844 39.4656 55.895 39.4438 55.9483 39.4231C55.964 39.4171 55.9805 39.4114 55.9968 39.4056C56.0357 39.3917 56.0765 39.3788 56.1184 39.3666C56.1404 39.3603 56.1624 39.3538 56.1852 39.3479C56.2294 39.3364 56.2751 39.3262 56.3215 39.3166C56.3414 39.3125 56.3606 39.3078 56.3808 39.3041C56.4486 39.2915 56.5178 39.2804 56.5882 39.2718C56.6386 39.2657 56.6896 39.2621 56.7406 39.2581C56.7792 39.255 56.8179 39.2522 56.8566 39.2504C56.8999 39.2484 56.9429 39.2474 56.9857 39.2471C57.011 39.2469 57.0365 39.2463 57.0616 39.2467C57.127 39.2477 57.1917 39.2502 57.2541 39.2555C57.259 39.2559 57.2636 39.2567 57.2684 39.2571C57.3349 39.2631 57.3995 39.2711 57.4606 39.2822L57.4619 38.8237C57.4369 38.8192 57.4115 38.815 57.3855 38.8114Z" fill="#C1DBF6"/>
<path d="M22.7304 17.1733C22.7094 17.0371 22.6513 16.8906 22.5538 16.7448L22.5525 17.2033C22.65 17.3491 22.7081 17.4956 22.7291 17.6317C22.7356 17.6715 22.7387 17.7103 22.7386 17.7478L22.7399 17.2893C22.74 17.2518 22.7369 17.213 22.7304 17.1733Z" fill="#C1DBF6"/>
<path d="M20.2828 17.5265L20.2815 17.985C20.3766 18.1322 20.4323 18.2801 20.4522 18.4184C20.457 18.4539 20.4593 18.4887 20.4593 18.5226L20.4606 18.0641C20.4607 18.0302 20.4583 17.9953 20.4535 17.9599C20.4336 17.8216 20.3779 17.6737 20.2828 17.5265Z" fill="#C1DBF6"/>
<path d="M18.0811 18.4197C18.0628 18.3826 18.0421 18.3452 18.0189 18.3081L18.0176 18.7666C18.1103 18.9152 18.1637 19.0659 18.1799 19.2048C18.1845 19.239 18.1867 19.2726 18.1867 19.3053L18.188 18.8468C18.188 18.8141 18.1858 18.7805 18.1812 18.7463C18.169 18.6421 18.136 18.5313 18.0811 18.4197Z" fill="#C1DBF6"/>
<path d="M15.7645 19.0898L15.7632 19.5484C15.8523 19.6991 15.9045 19.8505 15.9196 19.9914C15.9225 20.0203 15.9239 20.0488 15.9238 20.0767L15.9251 19.6181C15.9252 19.5903 15.9238 19.5618 15.9209 19.5329C15.9058 19.3919 15.8537 19.2405 15.7645 19.0898Z" fill="#C1DBF6"/>
<path d="M13.5221 19.8716L13.5208 20.3301C13.6075 20.4822 13.6549 20.6363 13.6689 20.7779C13.6709 20.803 13.6719 20.8277 13.6718 20.852L13.6731 20.3935C13.6732 20.3692 13.6722 20.3445 13.6701 20.3194C13.6562 20.1777 13.6088 20.0237 13.5221 19.8716Z" fill="#C1DBF6"/>
<path d="M11.3458 20.7696C11.3297 20.7312 11.3112 20.6925 11.2904 20.6541L11.2891 21.1126C11.3722 21.2667 11.4185 21.4215 11.4288 21.5653C11.4307 21.5885 11.4316 21.6114 11.4315 21.6339L11.4328 21.1754C11.4329 21.1528 11.432 21.1299 11.4301 21.1067C11.4224 20.9989 11.3944 20.8849 11.3458 20.7696Z" fill="#C1DBF6"/>
<path d="M9.56884 22.1926C9.49111 21.9493 9.37625 21.6804 9.2242 21.3832L9.2229 21.8417C9.37492 22.1389 9.4898 22.4077 9.56752 22.6511C9.6453 22.8957 9.68708 23.1155 9.69419 23.3153C9.69506 23.3398 9.69547 23.364 9.6954 23.388L9.69671 22.9294C9.69678 22.9055 9.69636 22.8813 9.69549 22.8568C9.68839 22.657 9.6466 22.4372 9.56884 22.1926Z" fill="#C1DBF6"/>
<path d="M58.1624 36.9737C58.2637 36.9176 58.3679 36.8611 58.4764 36.8044L58.4777 36.3458C58.3693 36.4026 58.2651 36.459 58.1638 36.5152C58.1507 36.5224 58.1372 36.5297 58.1243 36.5369C58.0288 36.5904 57.9377 36.6433 57.8502 36.6959C57.8415 36.7011 57.8316 36.7064 57.823 36.7116C57.7995 36.7259 57.7762 36.7401 57.7533 36.7543C57.5393 36.8884 57.3539 37.0183 57.2114 37.1455C57.2019 37.1539 57.1927 37.1624 57.1836 37.1708C57.1675 37.1857 57.1537 37.2003 57.1388 37.2151C57.1284 37.2255 57.1172 37.2359 57.1074 37.2463C57.083 37.2719 57.0609 37.2973 57.0404 37.3226C57.0373 37.3264 57.0335 37.3302 57.0305 37.3341C57.0301 37.3345 57.0297 37.3349 57.0294 37.3353C57.0268 37.3386 57.0253 37.3418 57.0228 37.3451C57 37.3749 56.9798 37.4044 56.9628 37.4337C56.9613 37.4363 56.959 37.4389 56.9575 37.4416C56.9436 37.4661 56.9319 37.4904 56.9223 37.5146C56.9211 37.5176 56.9199 37.5207 56.9188 37.5237C56.9128 37.5395 56.9091 37.5551 56.9051 37.5707C56.9036 37.5767 56.9011 37.5827 56.8999 37.5887C56.8998 37.5892 56.8996 37.5898 56.8995 37.5903C56.8955 37.6103 56.8931 37.6302 56.8926 37.6499C56.8925 37.6528 56.8924 37.6558 56.8924 37.6587L56.8911 38.1173C56.8912 38.0941 56.8938 38.0707 56.8986 38.0472C56.8999 38.0413 56.9023 38.0353 56.9038 38.0293C56.9086 38.0107 56.9135 37.992 56.921 37.9732C56.9316 37.9464 56.9457 37.9194 56.9615 37.8923C56.9786 37.8628 56.9989 37.8331 57.0219 37.8031C57.0245 37.7996 57.0264 37.7962 57.0291 37.7927C57.0323 37.7887 57.0363 37.7846 57.0396 37.7805C57.06 37.7554 57.0819 37.7302 57.1061 37.7048C57.1158 37.6946 57.1269 37.6842 57.1372 37.674C57.1606 37.6508 57.1838 37.6276 57.2101 37.6041C57.3526 37.4769 57.538 37.347 57.752 37.2129C57.7832 37.1936 57.8163 37.1741 57.8487 37.1546C57.9362 37.102 58.0274 37.049 58.123 36.9955C58.1359 36.9883 58.1494 36.981 58.1624 36.9737Z" fill="#C1DBF6"/>
<path d="M55.0006 40.1293L54.9993 40.5878C55.2003 40.4821 55.3502 40.402 55.5013 40.3225C55.5391 40.3026 55.5768 40.2828 55.6152 40.2625C55.7305 40.2018 55.8523 40.1376 56.0021 40.0577L56.0035 39.5992C55.8036 39.7056 55.6537 39.7845 55.5026 39.8639C55.3515 39.9434 55.2016 40.0236 55.0006 40.1293Z" fill="white"/>
<path d="M52.5116 41.4301L52.5103 41.8886C52.7137 41.7829 52.866 41.7041 53.0194 41.6246C53.1705 41.5451 53.3229 41.4664 53.5251 41.3599L53.5264 40.9014C53.3242 41.0078 53.1718 41.0866 53.0208 41.1661C52.8673 41.2456 52.715 41.3243 52.5116 41.4301Z" fill="white"/>
<path d="M50.0001 42.7259L49.9988 43.1845C50.2034 43.0794 50.3581 43.0006 50.5104 42.9218C50.665 42.843 50.8185 42.7636 51.0231 42.6585L51.0244 42.2C50.8198 42.305 50.6663 42.3845 50.5117 42.4633C50.3593 42.5421 50.2047 42.6209 50.0001 42.7259Z" fill="white"/>
<path d="M47.4632 44.0185L47.4619 44.477C47.669 44.372 47.8248 44.2938 47.9795 44.215C48.1354 44.1356 48.2901 44.0568 48.4959 43.9524L48.4972 43.4939C48.2914 43.5982 48.1367 43.6771 47.9808 43.7565C47.8261 43.8353 47.6703 43.9134 47.4632 44.0185Z" fill="white"/>
<path d="M44.9063 45.3061L44.905 45.7646C45.1132 45.6602 45.2703 45.5814 45.4262 45.5033C45.5832 45.4245 45.7391 45.3465 45.9473 45.2421L45.9486 44.7836C45.7404 44.8879 45.5845 44.966 45.4275 45.0448C45.2716 45.123 45.1146 45.2017 44.9063 45.3061Z" fill="white"/>
<path d="M42.6264 46.4407C42.5875 46.46 42.5465 46.4802 42.5028 46.5019L42.5015 46.9603C42.6763 46.874 42.8073 46.809 42.9381 46.744C43.0703 46.6784 43.2011 46.6134 43.376 46.527L43.3773 46.0685C43.2024 46.1549 43.0715 46.2199 42.9395 46.2855C42.8413 46.3342 42.7431 46.383 42.6264 46.4407Z" fill="white"/>
<path d="M58.2734 38.3896C58.1115 38.4768 57.9902 38.5417 57.8688 38.6067C57.7769 38.6559 57.685 38.7044 57.5766 38.7623C57.5404 38.7816 57.5025 38.8019 57.462 38.8237L57.4607 39.2822C57.6225 39.1952 57.745 39.1309 57.8675 39.0652C57.9282 39.0327 57.9889 39.0003 58.0546 38.965C58.1051 38.9379 58.1603 38.9083 58.2191 38.8766C58.2369 38.8671 58.2533 38.8583 58.2721 38.8482L58.2734 38.3896Z" fill="white"/>
<path d="M57.1969 38.0597C57.0838 37.9943 57.0042 37.9254 56.9554 37.8533C56.8819 37.7462 56.8753 37.6322 56.9224 37.5147C56.9695 37.3957 57.069 37.2727 57.2115 37.1456C57.354 37.0183 57.5393 36.8885 57.7534 36.7544C57.9686 36.621 58.2137 36.4841 58.4778 36.3459C58.1923 36.2858 57.9091 36.2229 57.6296 36.1593C57.3488 36.0964 57.0739 36.0314 56.8003 35.9644C56.5255 35.898 56.2555 35.8303 55.989 35.7605C55.7214 35.6914 55.456 35.6209 55.1955 35.549C54.9338 35.4765 54.6744 35.4038 54.4187 35.3292C54.1629 35.2546 53.9107 35.1793 53.6585 35.1025C53.4087 35.0258 53.1612 34.9477 52.915 34.8689C52.6699 34.7908 52.4272 34.7099 52.187 34.6291C51.9467 34.5482 51.7076 34.4666 51.4721 34.383C51.2365 34.3008 51.0034 34.2171 50.7714 34.1314C50.5406 34.0464 50.3122 33.9614 50.0851 33.8743C49.8567 33.7879 49.633 33.7002 49.4094 33.6124C49.187 33.5239 48.9669 33.4341 48.7468 33.3442C48.528 33.2537 48.3102 33.1625 48.095 33.0712C47.8797 32.9786 47.6668 32.886 47.4539 32.792C47.2421 32.6987 47.0316 32.6047 46.8234 32.5093C46.6129 32.4139 46.4059 32.3179 46.2014 32.2204C45.9956 32.1236 45.7898 32.0255 45.5876 31.9267C45.3842 31.8286 45.1819 31.7283 44.9821 31.6281C44.781 31.5272 44.5824 31.4249 44.385 31.3233C44.1863 31.221 43.99 31.1173 43.7926 31.0129C43.5975 30.9086 43.4024 30.8029 43.2085 30.6964C43.0146 30.59 42.8219 30.4828 42.6304 30.375C42.4894 30.2956 42.3488 30.2158 42.2091 30.1351C42.1579 30.1055 42.1068 30.0759 42.0558 30.0461C41.8654 29.9362 41.6762 29.8242 41.4859 29.7115C41.2979 29.5989 41.11 29.4848 40.922 29.3694C40.734 29.254 40.5472 29.1378 40.3604 29.0204C40.1736 28.9029 39.9868 28.784 39.8023 28.6637C39.6156 28.5435 39.4311 28.4218 39.2466 28.2988C39.061 28.1765 38.8765 28.052 38.6932 27.9255C38.5088 27.7998 38.3243 27.6726 38.141 27.5434C37.9565 27.4148 37.7732 27.2842 37.5899 27.1522C37.4078 27.0194 37.2245 26.8861 37.0423 26.7506C36.8578 26.6151 36.6769 26.4776 36.4936 26.3387C36.3102 26.1997 36.128 26.0587 35.9447 25.9157C35.7637 25.7727 35.5791 25.6274 35.3969 25.481C35.2135 25.3337 35.0313 25.1844 34.8491 25.0338C34.6657 24.8824 34.4835 24.729 34.3001 24.5735C34.1166 24.418 33.9343 24.2604 33.7509 24.0993C33.5686 23.939 33.3851 23.7766 33.2016 23.6114C33.0181 23.4462 32.8347 23.2782 32.6511 23.1075C32.4664 22.9375 32.2828 22.764 32.0993 22.5891C31.9157 22.4129 31.731 22.2346 31.5462 22.0521C31.3626 21.8703 31.1778 21.6865 30.993 21.4985C30.8082 21.3105 30.6233 21.1197 30.4385 20.9262C30.2537 20.7313 30.0688 20.535 29.8839 20.3332C29.699 20.1327 29.5129 19.9289 29.328 19.7215C29.1419 19.5135 28.9569 19.302 28.7731 19.087C28.587 18.8721 28.402 18.6536 28.2158 18.4304C28.0308 18.2079 27.8458 17.9812 27.6607 17.7504C27.4452 17.8257 27.2295 17.8927 27.0139 17.9473C26.7994 18.0012 26.586 18.042 26.3714 18.0655C26.1591 18.089 25.9468 18.0945 25.7355 18.0773C25.5254 18.0607 25.3152 18.022 25.1071 17.9557C24.9254 17.8977 24.7462 17.8191 24.491 17.6702C24.2875 17.5444 24.0861 17.3868 23.8882 17.1912C23.6914 16.9949 23.4979 16.762 23.309 16.4849C23.0053 16.5892 22.8565 16.641 22.554 16.7447C22.6514 16.8906 22.7096 17.0371 22.7306 17.1732C22.7529 17.3101 22.7357 17.4351 22.6826 17.5382C22.6283 17.6405 22.5392 17.7199 22.413 17.7628C22.2272 17.8278 21.9956 17.7987 21.7766 17.6999C21.7399 17.683 21.7033 17.6642 21.6673 17.6434C21.4894 17.5407 21.3248 17.3914 21.2047 17.2085C21.0201 17.2727 20.8819 17.3198 20.7426 17.3674C20.6056 17.4151 20.4663 17.4628 20.2829 17.5264C20.378 17.6736 20.4337 17.8215 20.4536 17.9598C20.4723 18.0973 20.4539 18.2245 20.3996 18.3282C20.3441 18.4311 20.2551 18.5107 20.13 18.5542C19.943 18.6185 19.715 18.5887 19.4037 18.4376C19.2238 18.3338 19.0574 18.1798 18.9384 17.9902C18.755 18.0538 18.6157 18.1015 18.4787 18.1492C18.3393 18.1969 18.2024 18.2446 18.019 18.3081C18.1117 18.4567 18.1651 18.6074 18.1813 18.7463C18.2 18.8852 18.1793 19.0138 18.125 19.1175C18.0695 19.2218 17.9781 19.3013 17.8542 19.3455C17.6672 19.4098 17.4427 19.3794 17.1491 19.2331C16.9659 19.1273 16.7981 18.9681 16.6792 18.7719C16.4958 18.8355 16.3589 18.8832 16.2219 18.9309C16.085 18.9785 15.948 19.0262 15.7646 19.0898C15.8538 19.2405 15.9059 19.3919 15.9211 19.5328C15.935 19.6731 15.9142 19.8031 15.8587 19.9074C15.8021 20.0125 15.7106 20.0934 15.5867 20.1362C15.4022 20.2005 15.1788 20.1694 14.9096 20.0326C14.7235 19.9252 14.551 19.7595 14.432 19.5536C14.251 19.6172 14.114 19.6649 13.9771 19.7126C13.8401 19.7602 13.7031 19.808 13.5222 19.8715C13.6089 20.0236 13.6563 20.1777 13.6703 20.3194C13.6818 20.4611 13.6598 20.5917 13.602 20.6975C13.5453 20.8025 13.4539 20.8847 13.3312 20.9269C13.1467 20.9926 12.9269 20.9594 12.6739 20.8271C12.4858 20.7186 12.3138 20.5482 12.1967 20.3353C12.0145 20.3996 11.8799 20.4473 11.743 20.4949C11.6084 20.5426 11.4715 20.5903 11.2905 20.6539C11.3737 20.808 11.4199 20.9628 11.4302 21.1066C11.4418 21.2497 11.4163 21.381 11.3572 21.4874C11.3005 21.5939 11.2079 21.6754 11.0864 21.7183C10.9031 21.7833 10.6857 21.7501 10.4538 21.625C10.2632 21.515 10.0904 21.3392 9.97338 21.1183C9.67452 21.2241 9.52325 21.2773 9.2243 21.3831C9.37635 21.6803 9.49121 21.9491 9.56894 22.1925C9.64673 22.4371 9.68849 22.6569 9.69559 22.8567C9.70268 23.0564 9.67863 23.2354 9.62465 23.3985C9.57068 23.5602 9.48796 23.7068 9.38019 23.8388C9.2723 23.9708 9.14055 24.089 8.98956 24.1961C8.83866 24.3032 8.66739 24.4 8.4817 24.4884C8.29607 24.5769 8.0961 24.6584 7.88647 24.7331C8.02026 24.9715 8.15523 25.2052 8.29132 25.4353C8.42627 25.6662 8.56362 25.8929 8.70087 26.1168C8.83815 26.3394 8.97665 26.5599 9.11509 26.7775C9.25349 26.9939 9.3931 27.2081 9.5339 27.4189C9.67354 27.629 9.81431 27.8371 9.95626 28.0417C10.0982 28.2463 10.2401 28.4481 10.3821 28.6472C10.524 28.8462 10.6683 29.0425 10.8113 29.2353C10.9544 29.4295 11.0987 29.6203 11.243 29.8083C11.3872 29.9963 11.5326 30.1822 11.678 30.3654C11.8234 30.5485 11.9688 30.7289 12.1142 30.9079C12.2608 31.0862 12.4074 31.2618 12.5539 31.4359C12.7005 31.6101 12.847 31.7815 12.9947 31.9509C13.1425 32.1202 13.2901 32.2882 13.4391 32.4541C13.5879 32.6185 13.7356 32.7823 13.8845 32.9441C14.0345 33.1051 14.1846 33.2648 14.3334 33.4223C14.4835 33.5806 14.6335 33.7362 14.7848 33.891C14.9348 34.0451 15.086 34.1972 15.2371 34.3479C15.3896 34.4992 15.5408 34.6485 15.6931 34.7957C15.8455 34.9443 15.9979 35.0901 16.1514 35.2353C16.305 35.379 16.4585 35.5228 16.6132 35.6645C16.7668 35.8068 16.9215 35.9472 17.0762 36.0861C17.2333 36.225 17.3892 36.3632 17.545 36.5001C17.7022 36.6362 17.858 36.7717 18.0163 36.9058C18.1745 37.0398 18.3316 37.1732 18.4911 37.3053C18.6505 37.4373 18.8099 37.5679 18.9705 37.6978C19.1312 37.8278 19.293 37.9557 19.4548 38.0835C19.6166 38.2114 19.7796 38.3386 19.9437 38.4637C20.1079 38.5901 20.2721 38.7152 20.4363 38.8389C20.6028 38.9626 20.7694 39.0864 20.9371 39.208C21.1049 39.3311 21.2726 39.4527 21.4427 39.573C21.6117 39.6939 21.783 39.8135 21.9543 39.9331C22.1256 40.0526 22.2993 40.1708 22.4729 40.289C22.6478 40.4065 22.8227 40.5239 22.9987 40.6394C23.1748 40.7562 23.3533 40.8717 23.5341 40.9871C23.7125 41.1025 23.8933 41.2165 24.0742 41.3306C24.2574 41.4446 24.4405 41.5573 24.6262 41.6699C24.8105 41.7833 24.9973 41.8953 25.1853 42.0065C25.3238 42.0885 25.4622 42.1697 25.6021 42.2505C25.6533 42.28 25.7047 42.3095 25.7563 42.339C25.9479 42.4495 26.1406 42.5594 26.3357 42.6693C26.5308 42.7778 26.7283 42.8864 26.927 42.9955C27.1257 43.1033 27.3268 43.2112 27.529 43.3183C27.7325 43.4248 27.9371 43.5319 28.1441 43.6376C28.35 43.7441 28.5594 43.8498 28.7712 43.9542C28.983 44.06 29.1959 44.1636 29.4125 44.268C29.6279 44.3716 29.8456 44.4754 30.0658 44.5776C30.2871 44.6806 30.5096 44.7829 30.7345 44.8838C30.9594 44.9861 31.1867 45.087 31.4176 45.1872C31.6484 45.2874 31.8817 45.3877 32.1173 45.4865C32.3529 45.5853 32.5921 45.6835 32.8325 45.7809C33.0741 45.879 33.318 45.9758 33.5656 46.0719C33.8131 46.168 34.0618 46.2633 34.3165 46.358C34.5688 46.4527 34.8247 46.5467 35.0829 46.6393C35.3436 46.7319 35.6054 46.8239 35.8709 46.9151C36.1363 47.0063 36.4064 47.0962 36.6778 47.1853C36.9218 47.0699 37.167 46.9607 37.4158 46.8591C37.6634 46.7582 37.9135 46.6656 38.1683 46.584C38.4232 46.5025 38.683 46.432 38.9475 46.3753C39.2133 46.3193 39.4827 46.2765 39.7606 46.2509C40.0385 46.224 40.3236 46.2136 40.6172 46.2219C40.9119 46.2295 41.2152 46.2557 41.5269 46.302C41.841 46.3484 42.1659 46.4147 42.5029 46.5018C42.6778 46.4154 42.8087 46.3504 42.9396 46.2854C43.0717 46.2198 43.2026 46.1548 43.3775 46.0684C43.2614 46.0388 43.167 46.0019 43.0947 45.9601C43.0017 45.9064 42.9451 45.8447 42.926 45.7802C42.8931 45.6662 42.9771 45.5424 43.189 45.4388C43.3996 45.3344 43.6975 45.2695 44.0077 45.2459C44.3177 45.2225 44.6424 45.2404 44.9065 45.3061C45.1147 45.2017 45.2718 45.1229 45.4277 45.0448C45.5847 44.966 45.7406 44.8879 45.9488 44.7836C45.8283 44.7542 45.7308 44.717 45.6573 44.6746C45.5696 44.6239 45.5159 44.5659 45.4974 44.505C45.4622 44.3924 45.5462 44.2701 45.7556 44.1664C45.965 44.0613 46.2606 43.9936 46.5695 43.968C46.8796 43.9417 47.2006 43.9563 47.4635 44.0185C47.6705 43.9134 47.8264 43.8353 47.9811 43.7565C48.1369 43.677 48.2916 43.5982 48.4975 43.4939C48.3736 43.4652 48.2742 43.4281 48.2002 43.3853C48.1171 43.3374 48.0659 43.2824 48.0473 43.2243C48.0121 43.1144 48.0937 42.9935 48.3007 42.8884C48.509 42.784 48.8033 42.7142 49.1098 42.6859C49.4174 42.6569 49.7385 42.6686 50.0002 42.7259C50.2048 42.6209 50.3595 42.5421 50.5118 42.4633C50.6664 42.3845 50.8199 42.3051 51.0246 42.1999C50.8961 42.1722 50.7942 42.1352 50.7192 42.0919C50.6408 42.0466 50.5919 41.9945 50.5733 41.9394C50.538 41.8323 50.6185 41.712 50.8256 41.607C51.0302 41.5019 51.3221 41.4307 51.6274 41.3989C51.9315 41.3678 52.2513 41.3761 52.5118 41.43C52.7152 41.3243 52.8675 41.2455 53.021 41.166C53.172 41.0865 53.3244 41.0077 53.5266 40.9013C53.395 40.8747 53.2906 40.8379 53.2152 40.7943C53.1414 40.7517 53.0952 40.7026 53.0777 40.6504C53.0414 40.5453 53.1218 40.4265 53.3253 40.3207C53.5287 40.2149 53.8183 40.1424 54.1199 40.1085C54.4241 40.0747 54.7415 40.0788 55.0007 40.1292C55.2018 40.0235 55.3516 39.9433 55.5027 39.8638C55.6539 39.7843 55.8037 39.7055 56.0036 39.5991C55.8691 39.5736 55.7637 39.5371 55.6883 39.4936C55.6184 39.4533 55.574 39.4067 55.556 39.3572C55.5196 39.2535 55.5989 39.1367 55.8 39.031C56.0022 38.9245 56.2882 38.8499 56.5898 38.8133C56.8891 38.7766 57.2041 38.7766 57.4622 38.8236C57.6239 38.7365 57.7465 38.6722 57.869 38.6066C57.9904 38.5416 58.1116 38.4767 58.2735 38.3896C57.8913 38.3218 57.5984 38.241 57.382 38.1504C57.3125 38.121 57.2508 38.0907 57.1969 38.0597Z" fill="white"/>
<path d="M35.6396 29.6141C35.6479 29.8187 35.6537 30.0081 35.6607 30.1857C35.6677 30.3647 35.6746 30.5327 35.6814 30.6937C35.6883 30.8548 35.6952 31.0089 35.7032 31.1609C35.71 31.3123 35.7168 31.4623 35.726 31.6137C35.7328 31.765 35.7409 31.9185 35.7501 32.0767C35.7582 32.2357 35.7686 32.4002 35.7791 32.5744C35.7897 32.7486 35.8003 32.9324 35.8133 33.1301C36.0658 33.2607 36.3051 33.3823 36.5325 33.4957C36.7598 33.609 36.9752 33.7155 37.1834 33.8164C37.3928 33.918 37.595 34.014 37.7924 34.1073C37.9898 34.2007 38.1848 34.2912 38.3798 34.3803C38.5748 34.4695 38.771 34.558 38.9708 34.6471C39.1717 34.7356 39.3763 34.8261 39.5904 34.9181C39.8045 35.01 40.027 35.1054 40.2638 35.2035C40.4982 35.3017 40.7494 35.404 41.0149 35.5104C40.693 35.5629 40.3914 35.6106 40.1041 35.6556C39.818 35.6998 39.5461 35.7413 39.285 35.782C39.0227 35.8221 38.7724 35.8595 38.5256 35.8961C38.2788 35.9327 38.038 35.9686 37.796 36.0039C37.5551 36.0398 37.3143 36.0744 37.0675 36.1096C36.8231 36.1449 36.5715 36.1801 36.3104 36.2168C36.0493 36.2534 35.7774 36.2907 35.4925 36.3301C35.2063 36.3688 34.9047 36.4096 34.5851 36.4525C34.4345 36.6218 34.2958 36.7801 34.163 36.9294C34.0314 37.0793 33.9069 37.2196 33.7883 37.3551C33.6686 37.4913 33.5536 37.6219 33.4398 37.7505C33.3259 37.879 33.2145 38.0062 33.1007 38.1348C32.9868 38.2633 32.8707 38.3946 32.7521 38.5301C32.6323 38.6663 32.5067 38.8073 32.375 38.9572C32.2422 39.1079 32.1024 39.2669 31.9518 39.4376C31.735 39.2973 31.5338 39.1646 31.3422 39.0374C31.1505 38.9102 30.9709 38.7886 30.7984 38.6697C30.6259 38.5522 30.4606 38.4375 30.2988 38.3234C30.1383 38.2101 29.9802 38.0981 29.8233 37.9855C29.6663 37.8728 29.5106 37.7595 29.3524 37.642C29.193 37.5252 29.0325 37.4049 28.8659 37.2784C28.6981 37.1526 28.5267 37.0206 28.3446 36.8796C28.1636 36.7393 27.9742 36.59 27.7729 36.4297C27.4421 36.382 27.1316 36.3364 26.8366 36.2914C26.5428 36.2472 26.2646 36.2037 25.9982 36.1615C25.7307 36.1186 25.4763 36.0765 25.2255 36.035C24.9759 35.9929 24.7298 35.9514 24.4874 35.9092C24.2437 35.8664 24.0001 35.8236 23.7528 35.7786C23.5044 35.733 23.2524 35.6867 22.9919 35.6369C22.7304 35.5879 22.4604 35.5353 22.1761 35.4787C21.8906 35.4227 21.5919 35.3619 21.2754 35.2962C21.4953 35.1476 21.6974 35.0094 21.8911 34.8787C22.0837 34.7488 22.2644 34.6257 22.4391 34.5076C22.6127 34.3901 22.7803 34.276 22.9455 34.1647C23.1107 34.0521 23.2736 33.9422 23.4388 33.8309C23.604 33.7183 23.7717 33.6056 23.9452 33.4881C24.1188 33.3706 24.2994 33.2476 24.4908 33.1183C24.6822 32.9891 24.8843 32.8522 25.103 32.7043C25.0446 32.5094 24.9911 32.3256 24.9412 32.1507C24.8913 31.9758 24.8438 31.8093 24.7999 31.6489C24.7549 31.4879 24.7123 31.3324 24.6708 31.1804C24.6294 31.0283 24.5892 30.8783 24.5501 30.7276C24.5111 30.5783 24.4721 30.4277 24.433 30.2729C24.3928 30.1187 24.3537 29.9611 24.3122 29.7967C24.2719 29.6315 24.2304 29.4601 24.1852 29.2783C24.1424 29.0965 24.0972 28.905 24.0483 28.6991C24.3377 28.8138 24.608 28.9203 24.8675 29.0205C25.127 29.1193 25.3733 29.2133 25.6113 29.3025C25.8504 29.3909 26.08 29.4753 26.306 29.5575C26.5331 29.639 26.7543 29.7185 26.9779 29.7967C27.2015 29.8748 27.4251 29.9529 27.6558 30.031C27.8841 30.1091 28.1196 30.1885 28.3647 30.2694C28.611 30.3496 28.8656 30.4332 29.1357 30.5189C29.4071 30.6053 29.694 30.6951 30 30.7892C30.3218 30.7242 30.6198 30.6634 30.9022 30.606C31.1846 30.5486 31.4517 30.4933 31.7079 30.4415C31.9641 30.3883 32.2108 30.3378 32.454 30.2867C32.6971 30.2369 32.9367 30.1865 33.181 30.136C33.4241 30.0849 33.6708 30.033 33.9283 29.9791C34.1845 29.9245 34.4515 29.8679 34.7339 29.8077C35.0188 29.7476 35.3178 29.6833 35.6396 29.6141Z" fill="#374874"/>
<path fill-rule="evenodd" clip-rule="evenodd" d="M23.8923 19.0759L11.5397 23.4945C11.7715 24.1394 11.4349 24.76 11.0874 25.1853C10.8853 25.4327 10.6615 25.6382 10.4899 25.7809C10.4483 25.8155 10.4096 25.8467 10.3746 25.874C15.9239 33.9766 22.4601 38.9243 27.6215 41.8496C30.2214 43.3231 32.4722 44.2832 34.0713 44.8746C34.8709 45.1702 35.5074 45.3736 35.9431 45.5029C36.1609 45.5675 36.3285 45.6136 36.4412 45.6435C36.4808 45.6539 36.5137 45.6624 36.5395 45.669C38.3102 44.9447 39.4678 44.8118 40.1996 44.8748C40.5711 44.9067 40.8321 44.9892 41.006 45.0698C41.0591 45.0944 41.1038 45.1187 41.1408 45.1411L54.5951 38.4323C54.4515 38.2434 54.3755 38.0459 54.3567 37.846C54.3304 37.5657 54.4194 37.3119 54.5343 37.1086C54.6127 36.97 54.7067 36.8484 54.7954 36.7489C45.8 34.6685 38.9414 30.4578 34.3142 26.744C31.9646 24.8582 30.1894 23.0997 29.0007 21.8116C28.4064 21.1675 27.9586 20.6409 27.6588 20.2746C27.509 20.0915 27.3961 19.9484 27.3205 19.8508C27.3093 19.8364 27.299 19.8231 27.2895 19.8107C26.014 19.9975 25.152 19.8101 24.5961 19.5548C24.3095 19.4231 24.1082 19.2751 23.9762 19.1563C23.9442 19.1275 23.9163 19.1005 23.8923 19.0759ZM55.4006 36.8048L55.3992 36.8059C55.3976 36.8071 55.3948 36.8092 55.391 36.8122C55.3833 36.8182 55.3715 36.8276 55.3565 36.8401C55.3263 36.8653 55.2834 36.9028 55.2346 36.9506C55.1358 37.0474 55.0189 37.1805 54.9323 37.3336C54.8456 37.487 54.7971 37.6463 54.8119 37.8032C54.8261 37.9543 54.9017 38.134 55.1224 38.3288L55.3768 38.5533L41.0749 45.6848L40.9616 45.5722L40.9623 45.5728C40.9626 45.573 40.9623 45.5728 40.9616 45.5722L40.9614 45.572L40.9605 45.5712C40.9585 45.5696 40.955 45.5667 40.9498 45.5628C40.9467 45.5604 40.943 45.5577 40.9388 45.5547C40.9159 45.5386 40.8753 45.513 40.8138 45.4846C40.6912 45.4278 40.4824 45.3579 40.1604 45.3302C39.5149 45.2747 38.412 45.3883 36.6447 46.12L36.5766 46.1482L36.5049 46.1314L36.5572 45.9089C36.5049 46.1314 36.5047 46.1313 36.5045 46.1313L36.5038 46.1311L36.5014 46.1305L36.4923 46.1283C36.4872 46.1271 36.4806 46.1255 36.4725 46.1235C36.468 46.1224 36.463 46.1211 36.4576 46.1198C36.4273 46.1122 36.3827 46.1008 36.3242 46.0854C36.2073 46.0544 36.0353 46.0071 35.813 45.9412C35.3684 45.8092 34.7223 45.6027 33.9128 45.3033C32.2937 44.7046 30.0202 43.7345 27.3961 42.2473C22.1476 39.2727 15.4951 34.2285 9.87283 25.9495L9.7439 25.7597L9.93412 25.6316L9.9347 25.6312L9.93775 25.6291C9.94063 25.6271 9.94519 25.624 9.95129 25.6197C9.9635 25.6111 9.98185 25.598 10.0053 25.5807C10.0521 25.5461 10.1191 25.4948 10.1975 25.4295C10.3553 25.2983 10.5557 25.1135 10.7334 24.8961C11.1013 24.4457 11.3054 23.9448 11.0294 23.4808L10.8875 23.2423L24.053 18.5328L24.1512 18.6783L24.1514 18.6785C24.1519 18.6792 24.153 18.6807 24.1547 18.6829C24.1586 18.6881 24.1657 18.6971 24.1761 18.7093C24.1971 18.7339 24.2318 18.7713 24.282 18.8165C24.3822 18.9067 24.5452 19.0283 24.787 19.1394C25.2683 19.3605 26.0779 19.547 27.3524 19.3384L27.4905 19.3158L27.5734 19.4285L27.5727 19.429C27.5734 19.4285 27.5734 19.4285 27.5734 19.4285L27.5737 19.4288L27.5748 19.4303L27.5796 19.4368C27.584 19.4427 27.5907 19.4516 27.5998 19.4636C27.6178 19.4876 27.6452 19.5235 27.6818 19.5708C27.7551 19.6653 27.8654 19.8052 28.0126 19.9851C28.3071 20.3449 28.7489 20.8646 29.3367 21.5016C30.5123 22.7756 32.271 24.518 34.6004 26.3875C39.2593 30.1269 46.197 34.3717 55.3144 36.3978L55.8045 36.5067L55.4009 36.8046L55.4006 36.8048Z" fill="#C1DBF6"/>
<path d="M23.3088 16.4849C23.4977 16.762 23.6912 16.9949 23.888 17.1912C24.0859 17.3869 24.2873 17.5444 24.4909 17.6702C24.746 17.8191 24.9252 17.8977 25.107 17.9557C25.315 18.0221 25.5252 18.0607 25.7353 18.0773C25.8188 18.0841 25.9024 18.0874 25.9862 18.0874C26.1144 18.0874 26.2428 18.0798 26.3712 18.0655C26.5859 18.0421 26.7992 18.0013 27.0137 17.9473C27.2294 17.8928 27.445 17.8257 27.6605 17.7505C27.8456 17.9813 28.0306 18.208 28.2156 18.4305C28.4018 18.6537 28.5868 18.8721 28.773 19.0871C28.9567 19.302 29.1417 19.5135 29.3278 19.7216C29.5127 19.929 29.6988 20.1328 29.8837 20.3333C30.0686 20.5351 30.2534 20.7314 30.4383 20.9263C30.6231 21.1198 30.808 21.3105 30.9928 21.4985C31.1776 21.6865 31.3625 21.8704 31.546 22.0521C31.7307 22.2346 31.9155 22.413 32.0991 22.5892C32.2826 22.7641 32.4662 22.9375 32.6509 23.1075C32.8344 23.2782 33.0179 23.4462 33.2014 23.6114C33.3849 23.7766 33.5684 23.9389 33.7507 24.0993C33.9341 24.2604 34.1164 24.418 34.2998 24.5735C34.4833 24.729 34.6655 24.8824 34.8489 25.0338C35.0312 25.1844 35.2133 25.3337 35.3967 25.481C35.5789 25.6275 35.7635 25.7727 35.9445 25.9157C36.1278 26.0588 36.31 26.1998 36.4934 26.3387C36.6767 26.4776 36.8576 26.6152 37.0422 26.7506C37.2243 26.8861 37.4076 27.0195 37.5897 27.1522C37.6027 27.1615 37.6158 27.1706 37.6288 27.1799L46.986 32.5823C47.1413 32.6526 47.2966 32.7228 47.4536 32.792C47.6666 32.886 47.8795 32.9786 48.0948 33.0712C48.3101 33.1625 48.5278 33.2537 48.7466 33.3443C48.9667 33.434 49.1867 33.5239 49.4092 33.6124C49.6328 33.7002 49.8564 33.788 50.0849 33.8743C50.312 33.9614 50.5404 34.0464 50.7712 34.1315C51.0032 34.2172 51.2363 34.3008 51.4718 34.383C51.7074 34.4666 51.9465 34.5482 52.1868 34.6291C52.427 34.7099 52.6697 34.7909 52.9148 34.8689C53.161 34.9477 53.4085 35.0258 53.6583 35.1025C53.9105 35.1793 54.1627 35.2546 54.4185 35.3293C54.6742 35.4039 54.9336 35.4765 55.1953 35.549C55.4558 35.6209 55.7211 35.6914 55.9888 35.7605C56.2553 35.8303 56.5253 35.8981 56.8001 35.9644C57.0737 36.0315 57.3485 36.0964 57.6294 36.1593C57.9089 36.2229 58.1921 36.2858 58.4776 36.3459L58.4763 36.8044C58.3678 36.8612 58.2635 36.9177 58.1623 36.9738C58.1492 36.9811 58.1358 36.9883 58.1229 36.9955C58.0273 37.049 57.9361 37.102 57.8486 37.1547C57.8162 37.1741 57.7831 37.1937 57.7519 37.213C57.5379 37.347 57.3525 37.4769 57.21 37.6042C57.1837 37.6277 57.1605 37.6508 57.1371 37.674C57.1268 37.6843 57.1157 37.6946 57.1061 37.7048C57.0818 37.7303 57.0599 37.7555 57.0395 37.7806C57.0363 37.7846 57.0322 37.7888 57.029 37.7928C57.0263 37.7962 57.0245 37.7997 57.0218 37.8032C57.0031 37.8275 56.9876 37.8515 56.9728 37.8755C57.0223 37.9395 57.0954 38.0012 57.1968 38.0598C57.2507 38.0908 57.3122 38.1211 57.3817 38.1505C57.5981 38.2411 57.891 38.322 58.2732 38.3896L58.2719 38.8482C58.2532 38.8583 58.2367 38.8672 58.219 38.8766C58.1602 38.9083 58.105 38.9379 58.0544 38.965C57.9887 39.0002 57.9281 39.0327 57.8674 39.0653C57.7449 39.1309 57.6223 39.1952 57.4605 39.2823C57.3995 39.2711 57.3348 39.2631 57.2684 39.2571C57.2635 39.2567 57.259 39.2559 57.2541 39.2555C57.1917 39.2502 57.127 39.2477 57.0616 39.2467C57.056 39.2466 57.0504 39.2466 57.0448 39.2466C57.0252 39.2466 57.0054 39.2469 56.9857 39.2471C56.9429 39.2474 56.8999 39.2484 56.8566 39.2504C56.8179 39.2522 56.7792 39.255 56.7406 39.2581C56.6896 39.2622 56.6386 39.2657 56.5882 39.2719C56.5178 39.2804 56.4486 39.2915 56.3808 39.3041C56.3606 39.3078 56.3414 39.3125 56.3215 39.3166C56.2751 39.3262 56.2294 39.3364 56.1852 39.3479C56.1629 39.3537 56.1414 39.3599 56.1198 39.3662C56.0766 39.4018 56.0342 39.4374 55.9947 39.4733C55.9825 39.4844 55.9706 39.4956 55.9588 39.5068C55.9353 39.5289 55.9133 39.551 55.8915 39.5732C55.9264 39.5828 55.9631 39.5917 56.0033 39.5992L56.002 40.0577C55.8521 40.1376 55.7304 40.2019 55.6151 40.2625C55.6096 40.2654 55.6043 40.2682 55.5988 40.2711C55.7578 40.5909 56.1239 40.932 56.7646 41.3019L56.7633 41.7604L56.0176 42.1938C55.9533 42.1566 55.8844 42.1246 55.8137 42.096C55.7643 42.0761 55.7136 42.0586 55.6622 42.0429C55.6518 42.0397 55.6419 42.0355 55.6314 42.0325C55.5706 42.015 55.5087 42.0012 55.4467 41.9897C55.4346 41.9874 55.4224 41.9854 55.4102 41.9833C55.3503 41.9733 55.2904 41.9657 55.231 41.9614C55.2235 41.9609 55.216 41.9606 55.2085 41.9602C55.1696 41.9578 55.131 41.9565 55.0929 41.9565C55.0707 41.9565 55.0486 41.9569 55.0267 41.9579C55.0205 41.9581 55.0146 41.9587 55.0084 41.9591C54.9494 41.9622 54.8917 41.9682 54.8364 41.9776C54.8333 41.9781 54.8301 41.9784 54.8271 41.9789C54.7694 41.9891 54.7146 42.0033 54.6628 42.0205C54.6051 42.0396 54.5511 42.0627 54.5028 42.0908C54.4769 42.1059 54.4564 42.123 54.4349 42.1397C54.4237 42.1485 54.4101 42.1564 54.4001 42.1655C54.3832 42.1811 54.3708 42.1979 54.3576 42.2146C54.4258 42.3188 54.5333 42.4207 54.6868 42.5093L54.6855 42.9679L53.7733 43.498C53.709 43.4608 53.6402 43.4288 53.5694 43.4002C53.52 43.3803 53.4692 43.3628 53.4177 43.347C53.4074 43.3439 53.3975 43.3396 53.3871 43.3367C53.3263 43.3192 53.2644 43.3054 53.2024 43.2939C53.1902 43.2916 53.178 43.2895 53.1659 43.2875C53.106 43.2775 53.0461 43.2699 52.9867 43.2656C52.9792 43.265 52.9717 43.2648 52.9642 43.2644C52.925 43.2621 52.886 43.2607 52.8475 43.2607C52.8257 43.2607 52.8039 43.2612 52.7824 43.2621C52.7762 43.2624 52.7702 43.263 52.7641 43.2633C52.7051 43.2664 52.6475 43.2725 52.5921 43.2819C52.5891 43.2824 52.5858 43.2826 52.5828 43.2831C52.5251 43.2934 52.4703 43.3075 52.4185 43.3248C52.3608 43.344 52.3068 43.367 52.2585 43.395C52.2324 43.4102 52.2117 43.4275 52.1901 43.4444C52.1791 43.4531 52.1657 43.4608 52.1559 43.4697C52.1389 43.4853 52.1266 43.5022 52.1133 43.5189C52.1816 43.623 52.289 43.725 52.4425 43.8136L52.4412 44.2721L51.529 44.8023C51.5287 44.8021 51.5284 44.802 51.5281 44.8018C51.4642 44.765 51.3959 44.7332 51.3256 44.7048C51.2751 44.6843 51.2232 44.6663 51.1705 44.6504C51.1612 44.6476 51.1524 44.6438 51.1431 44.6411C51.0822 44.6237 51.0203 44.6099 50.9582 44.5984C50.9458 44.5961 50.9335 44.594 50.9212 44.592C50.8613 44.5821 50.8015 44.5745 50.7421 44.5701C50.7345 44.5696 50.7269 44.5693 50.7193 44.5689C50.6806 44.5665 50.6422 44.5653 50.6041 44.5653C50.5818 44.5653 50.5596 44.5658 50.5376 44.5667C50.5314 44.5669 50.5254 44.5676 50.5192 44.5679C50.4603 44.571 50.4028 44.577 50.3476 44.5864C50.3444 44.5869 50.341 44.5872 50.3378 44.5877C50.2802 44.5979 50.2253 44.612 50.1735 44.6292C50.1161 44.6484 50.0622 44.6714 50.0142 44.6993C49.988 44.7146 49.9673 44.7319 49.9456 44.7488C49.9346 44.7574 49.9214 44.765 49.9116 44.774C49.8946 44.7894 49.8823 44.8065 49.8689 44.8231C49.9372 44.9273 50.0447 45.0292 50.1982 45.1179L50.1969 45.5764L49.2847 46.1065C49.2205 46.0695 49.1519 46.0375 49.0812 46.0089C49.031 45.9887 48.9794 45.9709 48.9271 45.9549C48.9175 45.952 48.9083 45.9481 48.8987 45.9453C48.8379 45.9279 48.7759 45.9141 48.7138 45.9026C48.7015 45.9004 48.6892 45.8983 48.6769 45.8962C48.6172 45.8863 48.5573 45.8786 48.498 45.8744C48.4902 45.8738 48.4825 45.8736 48.4748 45.8731C48.4358 45.8708 48.3971 45.8695 48.359 45.8695C48.3369 45.8695 48.315 45.8699 48.2933 45.8708C48.2872 45.8711 48.2811 45.8718 48.275 45.8721C48.216 45.8752 48.1585 45.8812 48.1033 45.8906C48.1001 45.8911 48.0968 45.8914 48.0936 45.8919C48.036 45.9021 47.9811 45.9162 47.9293 45.9335C47.8718 45.9526 47.818 45.9756 47.77 46.0035C47.7439 46.0186 47.7233 46.0359 47.7017 46.0527C47.6907 46.0614 47.6772 46.0692 47.6673 46.0782C47.6504 46.0938 47.638 46.1107 47.6247 46.1273C47.693 46.2315 47.8005 46.3334 47.954 46.4221L47.9527 46.8806L47.0405 47.4107C46.9763 47.3736 46.9076 47.3417 46.837 47.3132C46.7867 47.2928 46.735 47.275 46.6825 47.2591C46.6731 47.2562 46.664 47.2523 46.6545 47.2496C46.5936 47.2321 46.5317 47.2184 46.4695 47.2069C46.4572 47.2046 46.445 47.2024 46.4327 47.2004C46.3729 47.1905 46.3131 47.1829 46.2538 47.1786C46.246 47.1781 46.2383 47.1778 46.2306 47.1774C46.192 47.175 46.1537 47.1737 46.1159 47.1737C46.0935 47.1737 46.0712 47.1742 46.0491 47.1751C46.0429 47.1754 46.0369 47.176 46.0307 47.1763C45.9718 47.1794 45.9143 47.1854 45.8591 47.1948C45.8559 47.1953 45.8526 47.1955 45.8494 47.1962C45.7918 47.2064 45.7369 47.2204 45.6851 47.2377C45.6276 47.2568 45.5738 47.2798 45.5258 47.3077C45.4994 47.323 45.4786 47.3404 45.4569 47.3575C45.4461 47.3659 45.4329 47.3735 45.4232 47.3824C45.4062 47.3979 45.3938 47.4149 45.3805 47.4315C45.4488 47.5357 45.5563 47.6376 45.7098 47.7262L45.7085 48.1848L44.7963 48.7149C44.7321 48.6778 44.6635 48.6459 44.5928 48.6173C44.5426 48.5971 44.491 48.5792 44.4387 48.5634C44.4291 48.5604 44.4199 48.5566 44.4103 48.5538C44.3494 48.5363 44.2875 48.5225 44.2254 48.511C44.2131 48.5087 44.2008 48.5067 44.1886 48.5045C44.1288 48.4947 44.0689 48.4871 44.0096 48.4828C44.0018 48.4822 43.9941 48.4819 43.9864 48.4815C43.9476 48.4792 43.9091 48.478 43.871 48.478C43.8488 48.478 43.8267 48.4784 43.8049 48.4793C43.7987 48.4795 43.7927 48.4802 43.7865 48.4805C43.7277 48.4836 43.6703 48.4896 43.6153 48.499C43.612 48.4995 43.6084 48.4997 43.6051 48.5004C43.5475 48.5106 43.4927 48.5246 43.4409 48.5418C43.3834 48.561 43.3296 48.584 43.2815 48.6119C43.2555 48.627 43.235 48.6442 43.2135 48.661C43.2024 48.6696 43.1889 48.6775 43.1789 48.6866C43.1619 48.7021 43.1496 48.719 43.1363 48.7357C43.2046 48.8399 43.312 48.9418 43.4655 49.0304L43.4643 49.489L42.7043 49.9307C42.5816 49.8598 42.4612 49.7959 42.3422 49.7365C42.3306 49.7307 42.3188 49.7243 42.3073 49.7187C42.1945 49.6632 42.0836 49.6135 41.9738 49.5677C41.9573 49.5608 41.9406 49.5536 41.9241 49.5469C41.8162 49.5032 41.7097 49.464 41.6046 49.4292C41.5829 49.422 41.5616 49.4158 41.5401 49.4089C41.4639 49.3849 41.3889 49.3644 41.3142 49.3448C41.2648 49.332 41.2155 49.3193 41.1667 49.3083C41.0936 49.2918 41.0211 49.2774 40.9493 49.2651C40.9207 49.2602 40.8919 49.2543 40.8635 49.25C40.7646 49.2351 40.6667 49.2238 40.5701 49.2164C40.5509 49.215 40.532 49.2145 40.5128 49.2134C40.4333 49.2085 40.3545 49.2061 40.2764 49.2059C40.2679 49.2059 40.2595 49.2059 40.251 49.2059C40.232 49.2059 40.213 49.206 40.1941 49.2064C40.1208 49.2078 40.0483 49.2119 39.9762 49.2173C39.9501 49.2192 39.9237 49.2202 39.8977 49.2226C39.8542 49.2268 39.8116 49.2339 39.7685 49.2393C39.7042 49.2476 39.6397 49.2553 39.5762 49.2665C39.5215 49.2761 39.4678 49.2883 39.4138 49.3C39.3694 49.3096 39.3248 49.3181 39.2808 49.3291C39.2257 49.3427 39.1715 49.359 39.117 49.3747C39.0745 49.387 39.0316 49.398 38.9895 49.4115C38.9603 49.4207 38.9317 49.4317 38.9027 49.4416C38.821 49.4692 38.7397 49.4981 38.6592 49.5297C38.6209 49.5447 38.583 49.5607 38.5449 49.5765C38.474 49.6061 38.4033 49.6367 38.3331 49.669C38.2947 49.6866 38.2563 49.7043 38.2181 49.7227C38.1451 49.7578 38.0724 49.7946 38 49.8322C37.9676 49.849 37.935 49.8653 37.9027 49.8826C37.7995 49.938 37.6966 49.995 37.5944 50.0544L4.44247 30.9142L4.44378 30.4557C5.16126 30.0388 5.72364 29.6098 5.86638 29.1388C5.86485 29.1337 5.86437 29.1287 5.86275 29.1235C5.74858 28.764 5.37356 28.3779 4.63941 27.954L4.64071 27.4955L5.40069 27.0539C5.67143 27.2101 6.01205 27.2917 6.32238 27.2917C6.54993 27.2917 6.76124 27.2478 6.91669 27.1575C6.98026 27.1205 7.02551 27.0769 7.0625 27.0307C6.9939 26.9272 6.88391 26.8262 6.73148 26.7383L6.73276 26.2797L7.64499 25.7496C7.84974 25.8678 8.09427 25.9405 8.33562 25.9702C8.32046 25.9445 8.30494 25.9198 8.28983 25.894C8.15374 25.6639 8.01877 25.4303 7.88499 25.1917L7.88629 24.7333C8.09591 24.6586 8.29589 24.5771 8.48151 24.4885C8.66721 24.4001 8.83845 24.3033 8.98938 24.1962C9.14037 24.0891 9.2721 23.9709 9.38001 23.8389C9.48778 23.7069 9.5705 23.5604 9.62446 23.3987C9.65034 23.3205 9.66887 23.2384 9.68087 23.1525C9.66209 22.9975 9.62469 22.8311 9.56746 22.6511C9.48974 22.4077 9.37486 22.1389 9.22282 21.8417L9.22412 21.3832C9.52307 21.2775 9.67434 21.2242 9.97317 21.1185C10.0902 21.3393 10.263 21.5151 10.4536 21.6251C10.608 21.7084 10.7558 21.7509 10.8915 21.7509C10.9598 21.7509 11.0249 21.7401 11.0862 21.7184C11.2077 21.6756 11.3003 21.594 11.357 21.4876C11.3737 21.4575 11.387 21.425 11.3982 21.3912C11.3747 21.2997 11.3395 21.2061 11.289 21.1126L11.2903 20.654C11.4713 20.5904 11.6083 20.5428 11.7428 20.4951C11.8797 20.4474 12.0143 20.3997 12.1965 20.3354C12.3137 20.5483 12.4857 20.7187 12.6737 20.8273C12.8427 20.9156 12.9969 20.9597 13.1356 20.9597C13.2046 20.9597 13.2697 20.9489 13.331 20.927C13.4537 20.8848 13.5451 20.8026 13.6018 20.6976C13.6159 20.6718 13.6277 20.6445 13.6376 20.616C13.6127 20.5222 13.5753 20.426 13.5206 20.3302L13.5219 19.8717C13.7029 19.8081 13.8399 19.7604 13.9769 19.7127C14.1138 19.665 14.2507 19.6173 14.4318 19.5537C14.5507 19.7596 14.7233 19.9253 14.9094 20.0327C15.0895 20.1243 15.2491 20.1685 15.3902 20.1685C15.4601 20.1685 15.5254 20.1576 15.5865 20.1364C15.7104 20.0935 15.8018 20.0126 15.8585 19.9076C15.8701 19.8857 15.8793 19.8621 15.8879 19.8382C15.8612 19.7432 15.8207 19.6458 15.7631 19.5485L15.7644 19.0899C15.9478 19.0263 16.0847 18.9786 16.2216 18.9309C16.3587 18.8833 16.4956 18.8356 16.679 18.772C16.7978 18.9682 16.9657 19.1274 17.1489 19.2332C17.3464 19.3316 17.5126 19.3776 17.6572 19.3776C17.7275 19.3776 17.7928 19.3667 17.8539 19.3457C17.9778 19.3014 18.0693 19.2219 18.1247 19.1176C18.1342 19.0994 18.1414 19.0796 18.1488 19.06C18.1212 18.9639 18.0788 18.865 18.0174 18.7668L18.0187 18.3083C18.2022 18.2447 18.3391 18.197 18.4784 18.1493C18.6154 18.1016 18.7547 18.0538 18.9381 17.9903C19.0571 18.1799 19.2235 18.3339 19.4034 18.4378C19.6131 18.5395 19.785 18.5863 19.9321 18.5863C20.0033 18.5863 20.0687 18.5753 20.1298 18.5543C20.2548 18.5108 20.3438 18.4312 20.3994 18.3282C20.4074 18.3129 20.413 18.2961 20.4194 18.2798C20.39 18.1833 20.3453 18.0841 20.2814 17.985L20.2827 17.5265C20.4661 17.4629 20.6054 17.4152 20.7423 17.3676C20.8817 17.3199 21.0199 17.2728 21.2044 17.2086C21.3246 17.3915 21.4891 17.5408 21.6671 17.6435C21.703 17.6643 21.7396 17.6831 21.7763 17.6999C21.916 17.763 22.0607 17.7976 22.1954 17.7976C22.272 17.7976 22.3454 17.7864 22.4127 17.7629C22.539 17.72 22.628 17.6405 22.6823 17.5382C22.6883 17.5266 22.6921 17.5138 22.6972 17.5016C22.6667 17.4042 22.6195 17.3037 22.5524 17.2033L22.5537 16.7448C22.8562 16.6411 23.0051 16.5893 23.3088 16.4849ZM23.6713 15.3936L23.0117 15.6202L22.6761 15.7358L22.2573 15.8799L21.6413 16.091L21.641 16.208L21.5774 16.1111L20.9043 16.3451C20.741 16.4018 20.6145 16.445 20.491 16.4873L20.4465 16.5024L20.2215 16.5803L19.9831 16.6627L19.3702 16.8752L19.37 16.958L19.3262 16.8882L18.6388 17.1264L18.4191 17.2024L18.1777 17.2859C18.0769 17.3204 17.9728 17.3565 17.8493 17.3993L17.7194 17.4444L17.1063 17.6568L17.1062 17.7128L17.0779 17.6662L16.3796 17.9081L16.0161 18.0344L15.9213 18.0674L15.8753 18.0834L15.465 18.226L14.8519 18.4385L14.8518 18.4533L14.8442 18.44L14.1289 18.6911C13.9487 18.7544 13.8124 18.8019 13.6761 18.8493L13.6372 18.8629C13.5121 18.9064 13.3835 18.9512 13.2187 19.0092L12.6251 19.2179L12.6236 19.2152L11.8923 19.4732L11.7729 19.5154C11.6489 19.5592 11.5461 19.5955 11.4419 19.6318L11.1835 19.7226L10.987 19.7915L10.4119 19.9937L10.4118 19.9935L9.66812 20.2566L9.27278 20.3963L8.91916 20.5213L8.31157 20.7362L8.30974 21.3807L8.30844 21.8392L8.30782 22.0609L8.40876 22.2581C8.53825 22.5113 8.63502 22.7371 8.69639 22.9293C8.71861 22.9992 8.73662 23.0659 8.75018 23.1287C8.73285 23.1738 8.70691 23.2176 8.67173 23.2606C8.6203 23.3236 8.54912 23.3875 8.46035 23.4505C8.35957 23.522 8.23447 23.5935 8.08821 23.6632C7.93617 23.7356 7.76508 23.8059 7.57939 23.872L6.9737 24.0877L6.97187 24.7307L6.97086 25.0838L6.27324 25.4893L5.81985 25.7528L5.81847 26.2394L5.39907 25.9973L4.94122 26.2634L4.18124 26.705L3.72782 26.9685L3.72631 27.4929L3.72501 27.9514L3.7235 28.4811L4.18215 28.7458C4.45523 28.9035 4.63749 29.0355 4.75859 29.1388C4.61127 29.2658 4.37205 29.4399 3.9843 29.6652L3.53089 29.9287L3.5294 30.4532L3.5281 30.9117L3.52661 31.4412L3.98524 31.706L37.137 50.8462L37.5956 51.111L38.0535 50.8449C38.1467 50.7907 38.2404 50.7388 38.3345 50.6884L38.3819 50.6637L38.4212 50.6435C38.4854 50.6102 38.5494 50.5778 38.6139 50.5468C38.6476 50.5306 38.6806 50.5153 38.7136 50.5003C38.7749 50.472 38.8353 50.4459 38.8958 50.4207L38.9102 50.4147C38.938 50.4031 38.9659 50.3914 38.9939 50.3803C39.0597 50.3546 39.1274 50.3306 39.1953 50.3077L39.2447 50.2904L39.2666 50.2827C39.2842 50.277 39.3015 50.2725 39.3187 50.2677L39.3705 50.253L39.4028 50.2437C39.4354 50.2342 39.468 50.2245 39.501 50.2164C39.5203 50.2115 39.5398 50.2077 39.5592 50.2036L39.607 50.1935L39.635 50.1875C39.6682 50.1802 39.7014 50.1728 39.735 50.1668C39.7754 50.1597 39.8171 50.1548 39.8588 50.1495L39.8847 50.1462L39.9419 50.1384C39.9563 50.1363 39.9705 50.1341 39.985 50.1327L39.9979 50.132L40.0423 50.1292C40.0998 50.1249 40.1555 50.1216 40.2119 50.1204L40.2507 50.1202L40.2743 50.1202C40.3347 50.1203 40.3952 50.1221 40.4562 50.1259L40.4949 50.1279C40.5727 50.1336 40.649 50.1423 40.7271 50.1541L40.7514 50.1585L40.7941 50.1661C40.8507 50.1758 40.9075 50.1872 40.9649 50.2001C41.0043 50.209 41.0437 50.2192 41.0831 50.2295C41.143 50.2451 41.2035 50.2615 41.2648 50.2809L41.2972 50.2909L41.3178 50.2973C41.4035 50.3258 41.4922 50.3585 41.5803 50.3941L41.5999 50.4024L41.6213 50.4114C41.7217 50.4533 41.8138 50.4949 41.9032 50.539L41.9363 50.5558C42.0462 50.6108 42.1487 50.6657 42.2465 50.7222L42.7053 50.9874L43.1634 50.7211L43.9234 50.2795L44.3768 50.016L44.3782 49.5293L44.7976 49.7714L45.2555 49.5054L46.1677 48.9752L46.6211 48.7117L46.6225 48.2251L47.0418 48.4672L47.4998 48.2011L48.412 47.671L48.8654 47.4075L48.8668 46.9209L49.2862 47.163L49.744 46.8969L50.6563 46.3668L51.1097 46.1033L51.1111 45.6173L51.524 45.8625L51.9883 45.5927L52.9006 45.0625L53.354 44.799L53.3554 44.3124L53.7745 44.5547L54.2327 44.2884L55.1448 43.7583L55.5982 43.4948L55.5996 43.0081L56.0189 43.2504L56.4769 42.9842L57.2226 42.5508L57.676 42.2873L57.6775 41.7629L57.6788 41.3044L57.6803 40.7748L57.2217 40.51C57.1033 40.4417 57.0021 40.3781 56.9155 40.3196L56.9159 40.1629C56.9417 40.1619 56.9673 40.1615 56.9928 40.1613L57.0176 40.1611L57.0448 40.1608C57.0877 40.1614 57.1284 40.1627 57.1678 40.1657C57.1771 40.1667 57.1863 40.1676 57.1957 40.1684C57.2297 40.1715 57.2669 40.1762 57.296 40.1816L57.6114 40.2393L57.8938 40.0873C57.9883 40.0365 58.0691 39.9935 58.1445 39.9535L58.299 39.8712L58.4176 39.8076L58.4862 39.7709L58.4976 39.7648L58.6521 39.6817L58.6839 39.6646L58.7041 39.6538L59.1845 39.396L59.1861 38.8508L59.1874 38.3922L59.1896 37.6233L58.9606 37.5828L59.3889 37.3587L59.3905 36.807L59.3918 36.3485L59.3939 35.6044L58.6659 35.4511C58.3853 35.3921 58.1069 35.3303 57.8321 35.2678C57.5696 35.209 57.3043 35.1466 57.0178 35.0764C56.7417 35.0097 56.4745 34.9426 56.2205 34.876C55.9546 34.8074 55.6941 34.7381 55.4384 34.6676C55.1818 34.5964 54.9264 34.525 54.6745 34.4515C54.4222 34.3779 54.1734 34.3036 53.9245 34.2278C53.6804 34.1528 53.4363 34.0758 53.1934 33.9981C52.9519 33.9212 52.7139 33.8418 52.4781 33.7625C52.2429 33.6833 52.0085 33.6033 51.7776 33.5214C51.5428 33.4394 51.3149 33.3576 51.088 33.2738C50.8603 33.1898 50.6356 33.1063 50.4122 33.0206C50.1834 32.9341 49.9633 32.8477 49.7432 32.7613C49.5391 32.6801 49.3334 32.5962 49.1278 32.5123L49.0919 32.4976C48.8798 32.4099 48.6646 32.3197 48.4517 32.2295C48.2432 32.1398 48.033 32.0483 47.8228 31.9555C47.6819 31.8935 47.5429 31.8307 47.404 31.7679L38.1229 26.4094L38.1223 26.409L38.1008 26.3933C37.9301 26.2689 37.7583 26.1438 37.5877 26.0168C37.417 25.8915 37.2538 25.7677 37.0889 25.6428L37.0456 25.6099C36.8656 25.4736 36.6868 25.3352 36.507 25.1948L36.4193 25.1256C36.27 25.0077 36.119 24.8885 35.9696 24.7683C35.7891 24.6234 35.6102 24.4768 35.4313 24.3289C35.2505 24.1797 35.0714 24.0288 34.891 23.8759C34.7115 23.7238 34.5333 23.5697 34.3539 23.4122C34.175 23.2548 33.9941 23.0948 33.8133 22.9319C33.6333 22.7699 33.4534 22.6053 33.2735 22.4379C33.0892 22.2683 32.9095 22.0984 32.7299 21.9272C32.5518 21.7563 32.3701 21.5809 32.1885 21.4016C32.0086 21.2234 31.8267 21.0425 31.6449 20.8575C31.463 20.6725 31.2812 20.4849 31.0993 20.2946C30.9204 20.1059 30.7391 19.9134 30.5578 19.7155C30.3743 19.5165 30.1916 19.3165 30.0101 19.1129C29.8273 18.9085 29.6451 18.7002 29.4679 18.4928C29.2909 18.2885 29.1122 18.0779 28.9177 17.8447C28.7378 17.6284 28.5545 17.4037 28.3738 17.1784L27.9694 16.674L27.359 16.8872C27.1525 16.9593 26.9662 17.0161 26.7894 17.0609C26.6048 17.1073 26.4351 17.1387 26.2719 17.1565C26.1729 17.1675 26.0772 17.173 25.9862 17.173C25.9263 17.173 25.8669 17.1706 25.8096 17.1659C25.6592 17.1541 25.5171 17.1267 25.3848 17.0845C25.2909 17.0545 25.1744 17.0097 24.9621 16.8865C24.8147 16.7943 24.6696 16.6781 24.5307 16.5408C24.3718 16.3822 24.2138 16.1892 24.0643 15.9697L23.6713 15.3936Z" fill="#374874"/>
</svg>
