<svg width="64" height="64" viewBox="0 0 64 64" fill="none" xmlns="http://www.w3.org/2000/svg">
<path d="M51.64 2.91429C51.8917 2.91429 52.1434 2.97943 52.369 3.10971L53.9691 4.03422C54.4196 4.29449 54.6971 4.77518 54.6973 5.29543L54.7081 36.4299C54.7083 36.9499 54.4314 37.4305 53.9816 37.6912L12.7133 61.6054C12.4873 61.7363 12.235 61.8017 11.9826 61.8017C11.7309 61.8017 11.4792 61.7366 11.2537 61.6063L9.65342 60.6817C9.20295 60.4214 8.92539 59.9407 8.92521 59.4205L8.91426 28.2923C8.91408 27.7725 9.1909 27.2918 9.64071 27.0311L50.9093 3.11074C51.1352 2.97977 51.3876 2.91429 51.64 2.91429ZM51.64 2C51.2229 2 50.8117 2.11054 50.4508 2.3197L9.18222 26.2401C8.45271 26.663 7.9997 27.4495 8 28.2927L8.01095 59.4209C8.01125 60.2647 8.46535 61.0512 9.19605 61.4733L10.7963 62.3979C11.1565 62.606 11.5667 62.716 11.9827 62.716C12.3997 62.716 12.8108 62.6055 13.1717 62.3964L54.44 38.4823C55.1696 38.0595 55.6227 37.2729 55.6224 36.4296L55.6117 5.29513C55.6114 4.45125 55.1573 3.66475 54.4265 3.24256L52.8264 2.31806C52.4662 2.10997 52.0559 2 51.64 2Z" fill="#374874"/>
<path d="M54.6971 4.45477L51.6389 2.68787L8.91406 27.4524L11.9723 29.2193L54.6971 4.45477Z" fill="#374874"/>
<path d="M11.9838 62.0281L8.92561 60.2612L8.91406 27.4524L11.9723 29.2193L11.9838 62.0281Z" fill="#FBDBD0"/>
<path d="M11.9837 62.028L54.7084 37.2699L54.6968 4.46118L11.9722 29.2192L11.9837 62.028Z" fill="white"/>
<path d="M28.0283 29.0682C27.6993 29.274 27.4885 29.4195 27.0883 29.7141C26.9373 29.8266 26.2336 30.3852 26.0627 30.5283C25.8832 30.6795 25.1682 31.3494 24.7594 31.7473C24.0287 32.4596 23.1912 33.4271 22.459 34.4052C21.7696 35.3253 20.9706 36.5514 20.8523 36.8688C20.7327 37.1934 20.7384 37.5138 20.8666 37.7127C20.9207 37.7973 21.0959 37.8993 21.197 37.9059C21.442 37.9232 21.7041 37.783 21.9534 37.5026C22.0616 37.3798 22.1229 37.2889 22.3892 36.8622C23.0316 35.8328 23.9019 34.6829 24.6925 33.8187C25.2494 33.2083 26.1966 32.3044 26.7464 31.8553C27.3361 31.3752 28.1053 30.847 28.7975 30.4473C29.5382 30.0197 30.0239 29.8091 30.9554 29.5109C31.5722 29.3135 32.2189 29.1988 32.8242 29.1809C33.7145 29.1541 34.4452 29.2939 35.183 29.6296C35.3553 29.7078 35.4707 29.7174 35.6317 29.6673C35.8254 29.6078 36.0576 29.4278 36.2342 29.1988C36.4165 28.9619 36.5589 28.667 36.6102 28.4184C36.623 28.3571 36.6316 28.2458 36.6316 28.1443C36.6316 27.9427 36.6017 27.8346 36.5262 27.756C36.4422 27.6697 35.9365 27.4507 35.5419 27.3294C34.4523 26.9969 33.112 27.0122 31.7531 27.3699C31.1249 27.5358 30.7062 27.6824 30.1435 27.9326C30.0424 27.9783 29.8815 28.049 29.7875 28.0906C29.3744 28.2752 28.6693 28.6664 28.0283 29.0682Z" fill="#374874"/>
<path d="M28.2635 32.2806C27.9515 32.4782 27.7564 32.6162 27.4516 32.8541C26.738 33.4105 26.369 33.7298 25.8947 34.2004C24.8507 35.2396 23.8536 36.5134 23.1272 37.7358C22.9135 38.0956 22.8736 38.1868 22.8337 38.4177C22.7896 38.6781 22.8337 38.8938 22.9591 39.0308C23.093 39.1773 23.261 39.2151 23.4818 39.1511C23.6171 39.1111 23.7083 39.0585 23.8465 38.939C23.9974 38.809 24.0786 38.7098 24.2367 38.4598C24.7709 37.6151 25.0657 37.1989 25.5144 36.651C26.4502 35.5078 27.6296 34.4698 28.6837 33.8613C29.0483 33.6507 29.5981 33.3984 29.987 33.2611C31.1279 32.8611 32.1962 32.8616 33.1007 33.2629C33.3129 33.3577 33.4026 33.371 33.5508 33.3283C33.7245 33.2788 33.9553 33.1138 34.1148 32.9281C34.2288 32.794 34.404 32.5057 34.4709 32.3432C34.6404 31.9248 34.6219 31.5356 34.4239 31.3643C34.3612 31.3101 33.9638 31.1349 33.7544 31.0701C32.548 30.6892 31.0795 30.8722 29.5027 31.5953C29.1295 31.7679 28.6865 32.0126 28.2635 32.2806Z" fill="#374874"/>
<path d="M28.3347 35.5954C28.1894 35.6936 27.8447 35.9497 27.6795 36.0848C26.9517 36.678 26.2637 37.4179 25.6939 38.2213C25.4788 38.5248 25.1498 39.0433 25.0558 39.2277C24.8194 39.6911 24.8108 40.0768 25.0302 40.3183C25.2837 40.5972 25.7623 40.4478 26.1269 39.9787C26.1668 39.9287 26.2751 39.7646 26.3691 39.6151C26.5813 39.2784 26.6867 39.1239 26.8591 38.899C27.2935 38.3308 27.7479 37.8813 28.2721 37.5025C28.49 37.3449 28.9757 37.0645 29.1851 36.9769C29.7434 36.7402 30.289 36.6855 30.7847 36.8135C30.8402 36.8274 30.9698 36.8764 31.0738 36.9227C31.3402 37.0402 31.4584 37.0291 31.7176 36.8667C31.9384 36.7281 32.1079 36.5462 32.2674 36.2748C32.5309 35.8307 32.6007 35.3841 32.4498 35.1143C32.407 35.0374 32.3743 35.0119 32.2261 34.934C31.5538 34.5858 30.6821 34.5734 29.7306 34.9006C29.366 35.027 29.1694 35.1167 28.7763 35.3389C28.5726 35.4549 28.3746 35.5692 28.3347 35.5954Z" fill="#374874"/>
<path d="M28.4914 38.6215C27.9003 39.0564 27.3961 39.7553 27.1226 40.5178C26.9161 41.0924 26.8876 41.6722 27.0471 42.0625C27.2707 42.6078 27.8262 42.7964 28.4473 42.5331C28.5883 42.4739 28.8361 42.3308 28.9786 42.2263C29.6167 41.7595 30.2135 40.8199 30.4001 39.987C30.4799 39.6315 30.4799 39.2031 30.4001 38.9397C30.1907 38.2545 29.5099 38.0557 28.7621 38.4589C28.6609 38.5125 28.5384 38.5864 28.4914 38.6215Z" fill="#374874"/>
<path d="M48.1973 29.3703L54.6974 24.8858V24.2703L47.9131 28.9591C47.811 29.0296 47.7108 29.0757 47.6172 29.1027C47.4683 29.1699 47.2871 29.1679 47.1299 29.0597L46.1299 28.3713C45.9946 28.278 45.9142 28.1244 45.9141 27.9601V22.7228C45.9141 22.6323 45.9393 22.548 45.9814 22.4748C45.985 22.4623 45.9947 22.4366 46.0361 22.3957C46.092 22.3312 46.1641 22.2823 46.2461 22.2531C47.2045 21.7585 54.6083 18.2443 54.666 18.217L54.6992 19.0547L54.8447 18.9914C55.2866 18.7884 54.6992 17.0966 54.6992 17.6094C54.6489 17.6333 46.9998 21.3016 46.0195 21.8068C45.894 21.8606 45.7794 21.9392 45.6846 22.0402C45.679 22.0458 45.6743 22.0522 45.6689 22.0578C45.6657 22.0615 45.6624 22.0648 45.6592 22.0685C45.5978 22.1345 45.5523 22.2031 45.5225 22.2765C45.4564 22.4078 45.4141 22.5586 45.4141 22.7228V27.9601C45.4143 28.288 45.5756 28.5965 45.8467 28.7834L46.8467 29.4718C47.1468 29.6782 47.4949 29.688 47.7803 29.5744C47.9202 29.5311 48.0611 29.4642 48.1973 29.3703Z" fill="#374874"/>
<path d="M46.1301 28.3714L47.13 29.0596C47.4794 29.3001 47.9507 29.0236 47.9113 28.6013L47.358 22.6759C47.334 22.4189 47.1183 22.2224 46.8601 22.2224H46.4136C46.1374 22.2224 45.9136 22.4463 45.9136 22.7224V27.9596C45.9136 28.1241 45.9945 28.2781 46.1301 28.3714Z" fill="#FBDBD0"/>
<path d="M47.1887 22.9177L54.6663 19.3606V18.2166C54.6663 18.2166 46.3255 22.1716 46.1459 22.3044C45.9662 22.4373 45.9779 22.4841 45.9779 22.4841L47.1887 22.9177Z" fill="white"/>
<path fill-rule="evenodd" clip-rule="evenodd" d="M47.9161 22.1769L54.8443 18.9913C55.2864 18.7881 55.6224 19.0242 55.6224 19.5372L55.6224 22.7267C55.6224 23.2411 55.2843 23.8677 54.841 24.1739L47.9128 28.9591C47.4036 29.3106 46.9622 29.7646 46.9622 29.1739L46.9622 23.7228C46.9622 23.1304 47.4058 22.4115 47.9161 22.1769ZM48.2747 23.8575C48.0357 23.9955 47.8419 24.3315 47.8417 24.6075L47.8417 26.6075C47.8417 26.8837 48.0356 26.9956 48.2747 26.8575L49.1408 26.3575C49.3799 26.2195 49.5738 25.8837 49.5738 25.6075L49.5738 23.6075C49.5736 23.3317 49.3798 23.2195 49.1408 23.3575L48.2747 23.8575Z" fill="#374874"/>
<line x1="12.0132" y1="28.8112" x2="12.0132" y2="62.613" stroke="#374874" stroke-width="0.5"/>
</svg>
