<?xml version="1.0" encoding="UTF-8"?><svg xmlns="http://www.w3.org/2000/svg" viewBox="0 0 100 100"><g id="a"/><g id="b"/><g id="c"/><g id="d"><g><rect x="11.09" y="23.03" width="77.83" height="53.94" rx="7.23" ry="7.23" style="fill:none; stroke:#7c6576; stroke-linecap:round; stroke-linejoin:round; stroke-width:4px;"/><g><path d="M31,34.36l1.17,2.37c.12,.24,.35,.41,.61,.45l2.62,.38c.67,.1,.93,.92,.45,1.39l-1.89,1.85c-.19,.19-.28,.46-.23,.72l.45,2.61c.11,.67-.58,1.17-1.18,.86l-2.34-1.23c-.24-.12-.52-.12-.76,0l-2.34,1.23c-.6,.31-1.3-.19-1.18-.86l.45-2.61c.05-.26-.04-.53-.23-.72l-1.89-1.85c-.48-.47-.22-1.29,.45-1.39l2.62-.38c.27-.04,.49-.21,.61-.45l1.17-2.37c.3-.61,1.16-.61,1.46,0Z" style="fill:#7c6576; stroke:#7c6576; stroke-linecap:round; stroke-linejoin:round; stroke-width:4px;"/><path d="M51.01,34.36l1.17,2.37c.12,.24,.35,.41,.61,.45l2.62,.38c.67,.1,.93,.92,.45,1.39l-1.89,1.85c-.19,.19-.28,.46-.23,.72l.45,2.61c.11,.67-.58,1.17-1.18,.86l-2.34-1.23c-.24-.12-.52-.12-.76,0l-2.34,1.23c-.6,.31-1.3-.19-1.18-.86l.45-2.61c.05-.26-.04-.53-.23-.72l-1.89-1.85c-.48-.47-.22-1.29,.45-1.39l2.62-.38c.27-.04,.49-.21,.61-.45l1.17-2.37c.3-.61,1.16-.61,1.46,0Z" style="fill:#7c6576; stroke:#7c6576; stroke-linecap:round; stroke-linejoin:round; stroke-width:4px;"/><path d="M31,54.37l1.17,2.37c.12,.24,.35,.41,.61,.45l2.62,.38c.67,.1,.93,.92,.45,1.39l-1.89,1.85c-.19,.19-.28,.46-.23,.72l.45,2.61c.11,.67-.58,1.17-1.18,.86l-2.34-1.23c-.24-.12-.52-.12-.76,0l-2.34,1.23c-.6,.31-1.3-.19-1.18-.86l.45-2.61c.05-.26-.04-.53-.23-.72l-1.89-1.85c-.48-.47-.22-1.29,.45-1.39l2.62-.38c.27-.04,.49-.21,.61-.45l1.17-2.37c.3-.61,1.16-.61,1.46,0Z" style="fill:#7c6576; stroke:#7c6576; stroke-linecap:round; stroke-linejoin:round; stroke-width:4px;"/><path d="M51.01,54.37l1.17,2.37c.12,.24,.35,.41,.61,.45l2.62,.38c.67,.1,.93,.92,.45,1.39l-1.89,1.85c-.19,.19-.28,.46-.23,.72l.45,2.61c.11,.67-.58,1.17-1.18,.86l-2.34-1.23c-.24-.12-.52-.12-.76,0l-2.34,1.23c-.6,.31-1.3-.19-1.18-.86l.45-2.61c.05-.26-.04-.53-.23-.72l-1.89-1.85c-.48-.47-.22-1.29,.45-1.39l2.62-.38c.27-.04,.49-.21,.61-.45l1.17-2.37c.3-.61,1.16-.61,1.46,0Z" style="fill:#7c6576; stroke:#7c6576; stroke-linecap:round; stroke-linejoin:round; stroke-width:4px;"/><path d="M71.03,34.36l1.17,2.37c.12,.24,.35,.41,.61,.45l2.62,.38c.67,.1,.93,.92,.45,1.39l-1.89,1.85c-.19,.19-.28,.46-.23,.72l.45,2.61c.11,.67-.58,1.17-1.18,.86l-2.34-1.23c-.24-.12-.52-.12-.76,0l-2.34,1.23c-.6,.31-1.3-.19-1.18-.86l.45-2.61c.05-.26-.04-.53-.23-.72l-1.89-1.85c-.48-.47-.22-1.29,.45-1.39l2.62-.38c.27-.04,.49-.21,.61-.45l1.17-2.37c.3-.61,1.16-.61,1.46,0Z" style="fill:#7c6576; stroke:#7c6576; stroke-linecap:round; stroke-linejoin:round; stroke-width:4px;"/></g></g></g><g id="e"/><g id="f"/><g id="g"/><g id="h"/></svg>