<svg width="64" height="64" viewBox="0 0 64 64" fill="none" xmlns="http://www.w3.org/2000/svg">
<path d="M53.108 36.912L10.3834 61.6701L10.3718 28.8613L53.0965 4.10327L53.108 36.912Z" fill="white"/>
<path d="M53.1925 3.91082L50.2817 2.18176L7.31372 27.0944L10.3719 28.8613L53.1925 3.91082Z" fill="white"/>
<path d="M10.3835 61.6702L7.32526 59.9033L7.31372 27.0945L10.3719 28.8614L10.3835 61.6702Z" fill="#FBDBD0"/>
<path d="M41.923 43.7574L46.123 41.0339L46.1338 7.67871L41.9338 10.4022L41.923 43.7574Z" fill="#FBDBD0"/>
<path fill-rule="evenodd" clip-rule="evenodd" d="M41.9338 10.4022L46.1338 7.67871L42.6656 5.95959L38.3474 8.46875L41.9338 10.4022Z" fill="#FBDBD0"/>
<path d="M53.1189 18.9874L53.1188 13.5819L10.1509 38.4945L10.2983 43.9378L53.1189 18.9874Z" fill="#FBDBD0"/>
<path d="M54.2544 33.6493L45.5796 23.5374L48.6416 19.2616L57.6 29.8246C57.6 29.8246 55.0864 29.8693 54.556 30.0625C54.4733 30.6311 54.2544 33.6493 54.2544 33.6493Z" fill="#FBDBD0"/>
<path d="M54.2641 25.8926L49.3572 27.9337L46.6621 24.8005L50.969 22.3186L54.2641 25.8926Z" fill="#C1DBF6"/>
<path d="M39.9214 39.0172C39.8666 39.0107 39.8226 38.9692 39.8127 38.915L39.1454 35.2403L35.5865 38.0544C35.5637 38.0724 35.5363 38.0815 35.5087 38.0815C35.4817 38.0815 35.4546 38.0728 35.4319 38.0553C35.3864 38.0199 35.3707 37.958 35.3941 37.9053L41.4349 24.6645C41.6836 24.0991 46.6917 23.1834 46.5296 23.548L40.0509 38.9433C40.0307 38.9892 39.9855 39.0181 39.9362 39.0181C39.9313 39.0181 39.9264 39.0178 39.9214 39.0172Z" fill="#FBDBD0"/>
<path d="M44.3163 29.2678L37.9688 32.3186L40.4688 26.3186L45.9688 25.8186L44.3163 29.2678Z" fill="#C1DBF6"/>
<path d="M51.7637 12.3315C49.6672 13.0304 46.4367 17.35 45.4946 19.6281C45.4946 19.6281 46.4834 23.7723 48.1152 25.0754C49.747 26.3784 53.4021 26.7948 55.0891 25.0754C56.7761 23.356 54.6673 22.6254 54.6673 18.0842C54.6673 13.543 53.8602 11.6326 51.7637 12.3315Z" fill="#FBDBD0"/>
<path d="M51.1927 12.9804C49.2453 14.1771 46.992 17.2311 46.0499 19.5093C52.9877 18.1543 53.1613 13.328 52.824 12.871C52.4624 12.3811 52.1211 12.4099 51.1927 12.9804Z" fill="#C1DBF6"/>
<path d="M32.0312 20.3475C32.8534 17.7577 38.6772 19.5424 41.4864 20.7585C41.4864 20.7585 43.0907 22.4127 43.186 23.6537C43.2516 24.5097 42.6682 25.5375 42.6682 25.5375C40.4072 29.2888 38.7174 32.3216 35.6187 32.4937C32.5199 32.6659 33.8461 30.4956 33.0882 27.4328C32.3983 24.645 31.5414 21.8901 32.0312 20.3475Z" fill="#FBDBD0"/>
<path d="M33.2288 21.669C34.9751 22.4121 40.0343 21.7571 41.2419 21.1067C39.1054 20.2708 37.6774 19.5603 34.7049 19.5603C33.7135 19.5603 31.4824 20.926 33.2288 21.669Z" fill="#C1DBF6"/>
<path d="M41.2117 22.7192C41.2373 22.6802 41.2514 22.6334 41.2475 22.586C41.2436 22.5387 41.2225 22.4953 41.188 22.4644C41.1535 22.4336 41.1079 22.4175 41.0605 22.4189C41.013 22.4203 40.968 22.4395 40.9321 22.4693C40.8291 22.5533 40.7191 22.6348 40.6078 22.7106C39.5937 23.3833 38.4397 23.7895 37.2846 23.972C36.127 24.1501 34.9401 24.0628 33.7874 23.6307C33.6579 23.5821 33.5335 23.5323 33.4046 23.4755C33.3618 23.4567 33.3133 23.4506 33.2673 23.4623C33.2213 23.4739 33.1819 23.5019 33.1572 23.541C33.1325 23.5801 33.1241 23.6277 33.1333 23.6743C33.1425 23.7208 33.1689 23.7621 33.2042 23.7926C33.3182 23.8892 33.4312 23.9782 33.5532 24.0654C34.6324 24.8528 36.0861 25.1774 37.4353 24.9605C38.7859 24.7493 40.0519 24.091 40.9398 23.076C41.0369 22.9625 41.1299 22.842 41.2117 22.7192Z" fill="white"/>
<path d="M41.6569 20.7388C41.9102 20.0145 44.0144 18.4305 45.9755 18.7872C49.2396 19.3808 47.9933 25.0781 47.9933 25.0781C47.9933 25.0781 45.8472 26.8114 42.3447 26.2419C42.3447 26.2419 43.1784 24.4454 42.9487 23.2383C42.6966 21.9133 41.6569 20.7388 41.6569 20.7388Z" fill="#FBDBD0"/>
<path d="M46.3225 19.8526C46.0121 19.5733 45.467 20.4063 44.4099 20.7858C43.2872 21.1888 42.515 20.8219 42.5513 21.1097C42.5911 21.4255 43.5653 22.3553 45.1947 21.8121C46.7601 21.2903 46.4878 20.3307 46.3225 19.8526Z" fill="white"/>
<path d="M42.3447 26.2419C45.8472 26.8114 47.9933 25.0781 47.9933 25.0781C47.9933 25.0781 48.9208 20.8382 47.08 19.2926C48.6292 24.0016 47.0504 24.0443 46.1825 24.4317C45.3146 24.819 43.2484 24.9069 42.7792 24.7575C42.6385 25.7658 42.3447 26.2419 42.3447 26.2419Z" fill="#C1DBF6"/>
<path d="M49.1036 20.0895C49.0635 20.1114 49.0284 20.1438 49.0076 20.1854C48.9868 20.2269 48.9819 20.2734 48.9943 20.3164C49.0067 20.3594 49.0358 20.3961 49.0755 20.42C49.1153 20.444 49.1623 20.4527 49.2079 20.4498C49.3057 20.4431 49.407 20.4321 49.5059 20.4188C50.3954 20.2948 51.253 19.9781 52.0098 19.4683C52.7559 18.9619 53.4399 18.2189 53.6761 17.2896C53.7013 17.1878 53.7205 17.0848 53.7329 16.9817C53.7377 16.9362 53.7309 16.8889 53.7085 16.8482C53.6862 16.8075 53.6506 16.777 53.6082 16.7629C53.5658 16.7487 53.519 16.7518 53.4768 16.771C53.4344 16.7901 53.4006 16.8239 53.3772 16.8631C53.3294 16.9405 53.2788 17.015 53.2259 17.0868C52.7446 17.7286 52.1092 18.1864 51.4484 18.6407C50.7832 19.0888 50.0818 19.5234 49.3495 19.9505C49.268 19.9975 49.1843 20.0445 49.1036 20.0895Z" fill="white"/>
<path fill-rule="evenodd" clip-rule="evenodd" d="M50.0393 1.64209C50.4552 1.64209 50.8656 1.75237 51.2258 1.96045L52.8264 2.88428C53.5571 3.30644 54.0106 4.09321 54.011 4.93701V11.6265L53.9983 11.6353C55.1746 12.0289 55.0858 13.2176 55.3655 14.2515C55.6039 15.4021 55.6731 16.6294 55.6731 18.1235C55.6731 20.3074 56.1467 21.5382 56.4592 22.5161C56.6148 23.0029 56.7533 23.4897 56.7258 23.9995C56.7064 24.3582 56.6075 24.7042 56.4182 25.0601C56.2132 25.4454 55.9877 25.7076 55.6047 25.9146C55.6317 25.9478 58.4971 29.4828 58.9719 29.9634C59.1087 30.1019 59.1524 30.3074 59.0842 30.4897C59.016 30.6719 58.8485 30.7981 58.6545 30.813L55.3752 31.061L55.0793 34.6206C55.0647 34.7947 54.9604 34.949 54.804 35.0269C54.6474 35.1046 54.4614 35.095 54.3137 35.0015L54.0217 34.7729V36.0718C54.022 36.915 53.5695 37.7017 52.8401 38.1245L11.5715 62.0386C11.2107 62.2477 10.7991 62.3579 10.3821 62.3579C9.9662 62.3579 9.55565 62.2476 9.19556 62.0396L7.59595 61.1157C6.86526 60.6936 6.41071 59.9068 6.4104 59.063L6.39966 27.9351C6.39936 27.0919 6.85277 26.3052 7.58228 25.8823L48.8508 1.96143C49.2115 1.75249 49.6225 1.64215 50.0393 1.64209ZM50.0393 2.55615C49.787 2.55621 49.5347 2.62157 49.3088 2.75244L8.04028 26.6733C7.59065 26.934 7.31366 27.4144 7.31372 27.9341L7.32446 59.063C7.32478 59.583 7.60267 60.0635 8.05298 60.3237L9.65356 61.2485C9.87897 61.3787 10.1306 61.4438 10.3821 61.4438C10.6343 61.4438 10.8867 61.3784 11.1125 61.2476L52.3811 37.3335C52.831 37.0728 53.1078 36.5917 53.1077 36.0718V32.3306L53.1067 32.3071L54.2551 33.6528C54.2715 32.3346 54.3363 31.6147 54.5754 30.0522C55.6911 29.7821 56.3729 29.7723 57.6018 29.8257L55.1194 26.9526L54.2766 25.9146C54.2766 25.9146 54.2213 25.8627 54.137 25.7397C54.7612 25.4555 55.6893 24.651 55.7278 23.9458C55.7444 23.6384 55.6632 23.3095 55.5071 22.8208C55.1956 21.8462 54.6731 20.4804 54.6731 18.1235C54.6731 16.7044 54.3783 14.6001 54.1194 13.6431C53.8552 12.6674 53.2969 12.3859 53.0881 12.2964L53.0969 12.2896V4.93799C53.0967 4.41774 52.8189 3.93654 52.3684 3.67627L50.7688 2.75146C50.5433 2.62118 50.291 2.55615 50.0393 2.55615Z" fill="#374874"/>
</svg>
