<?xml version="1.0" encoding="UTF-8"?><svg xmlns="http://www.w3.org/2000/svg" viewBox="0 0 100 100"><g id="a"/><g id="b"/><g id="c"><g><path d="M69.02,26.08L21.21,73.89c-.78,.78-2.05,.78-2.83,0s-.78-2.05,0-2.83L66.19,23.25c.78-.78,2.05-.78,2.83,0s.78,2.05,0,2.83Z" style="fill:#7c6576;"/><path d="M63.69,20.76L15.89,68.56c-.78,.78-2.05,.78-2.83,0s-.78-2.05,0-2.83L60.86,17.93c.78-.78,2.05-.78,2.83,0s.78,2.05,0,2.83Z" style="fill:#7c6576;"/><path d="M47.77,75.37l-3.64,3.64c-3.03,3.03-7.95,3.03-10.98,0s-3.03-7.95,0-10.98l3.64-3.64c3.03-3.03,7.95-3.03,10.98,0s3.03,7.95,0,10.98Zm-11.79-4.51c-1.47,1.47-1.47,3.86,0,5.32s3.86,1.47,5.32,0l3.64-3.64c1.47-1.47,1.47-3.86,0-5.32s-3.86-1.47-5.32,0l-3.64,3.64Z" style="fill:#7c6576;"/><g><path d="M43.56,88.76c-1.76,1.76-4.62,1.76-6.38,0L12.07,63.64c-1.76-1.76-1.76-4.62,0-6.38L52.39,16.94c1.76-1.76,4.62-1.76,6.38,0l15.72,15.72,1.61,.55,2.63-1.96L61.6,14.11c-3.32-3.32-8.72-3.32-12.03,0L9.24,54.43c-3.32,3.32-3.32,8.72,0,12.03l25.12,25.12c3.32,3.32,8.72,3.32,12.03,0l28.37-28.37-2.34-3.31-28.85,28.85Z" style="fill:#7c6576;"/><path d="M60.44,56.01c-.22-.42-.37-.86-.48-1.31l-3.85,3.85c-.78,.78-.78,2.05,0,2.83s2.05,.78,2.83,0l3.26-3.26c-.72-.55-1.33-1.26-1.76-2.1Z" style="fill:#7c6576;"/><path d="M63.22,40.78l-12.44,12.44c-.78,.78-.78,2.05,0,2.83s2.05,.78,2.83,0l9.92-9.92,1.03-1.38-1.34-3.96Z" style="fill:#7c6576;"/><path d="M85.55,32.64c-.17-.09-.35-.15-.54-.19-.56-.12-1.18-.02-1.72,.38l-1.7,1.27-3.24,2.42-.64,.48c-.28,.21-.61,.35-.95,.4-.34,.05-.69,.03-1.02-.09l-6.59-2.24c-.42-.14-.84-.15-1.21-.05-.38,.1-.72,.3-.99,.57-.14,.14-.25,.29-.35,.45-.19,.33-.3,.72-.28,1.13,0,.14,.05,.29,.08,.44,.02,.06,.01,.12,.03,.18l1.38,4.06,.86,2.53c.06,.17,.09,.34,.11,.51,.04,.52-.1,1.04-.42,1.46l-.04,.05-4.13,5.53c-.88,1.18-.31,2.76,.93,3.26,.25,.1,.52,.17,.82,.17l6.96-.09c.53,0,1.04,.18,1.43,.52,.13,.11,.25,.24,.35,.39l.61,.86,2.34,3.31,1.07,1.51c.12,.17,.25,.3,.4,.42,.04,.04,.09,.07,.14,.1,.11,.07,.22,.14,.33,.19,.06,.02,.11,.05,.17,.07,.12,.04,.24,.07,.37,.09,.05,0,.1,.02,.15,.02,.17,.02,.35,.01,.52-.01,.02,0,.05-.01,.07-.02,.15-.03,.29-.07,.43-.13,.05-.02,.1-.05,.15-.07,.11-.06,.21-.12,.31-.19,.05-.04,.1-.07,.14-.11,.03-.03,.06-.05,.09-.07,.06-.06,.11-.14,.16-.21,.04-.05,.08-.09,.11-.14,.1-.16,.19-.33,.25-.53l2.07-6.65c.1-.34,.29-.64,.53-.88,.18-.18,.4-.32,.64-.42,.08-.04,.15-.08,.24-.11l6.65-2.07c.2-.06,.37-.15,.53-.25,.05-.03,.1-.07,.14-.11,.07-.05,.15-.1,.21-.16,.03-.03,.05-.06,.07-.09,.04-.05,.08-.09,.11-.14,.07-.1,.14-.2,.19-.31,.03-.05,.05-.1,.07-.15,.06-.14,.1-.28,.13-.43,0-.02,.01-.05,.02-.07,.03-.17,.03-.35,.01-.52,0-.05-.02-.1-.03-.15-.02-.12-.05-.25-.09-.37-.02-.06-.04-.11-.07-.17-.05-.11-.12-.22-.19-.33-.03-.05-.06-.1-.1-.14-.12-.14-.26-.28-.42-.4l-4.05-2.87-1.63-1.15c-.14-.1-.27-.22-.39-.35-.34-.39-.53-.9-.52-1.43l.03-2.37,.06-4.6c0-.44-.12-.84-.33-1.17s-.5-.59-.84-.77Z" style="fill:#7c6576;"/></g></g></g><g id="d"/><g id="e"/><g id="f"/><g id="g"/><g id="h"/></svg>