<?xml version="1.0" encoding="UTF-8"?><svg xmlns="http://www.w3.org/2000/svg" viewBox="0 0 100 100"><g id="a"/><g id="b"/><g id="c"><g><rect x="9.79" y="23.51" width="77.83" height="53.94" rx="7.23" ry="7.23" style="fill:none; stroke:#7c6576; stroke-linecap:round; stroke-linejoin:round; stroke-width:4px;"/><line x1="86.26" y1="43.76" x2="11.14" y2="43.76" style="fill:none; stroke:#7c6576; stroke-linecap:round; stroke-linejoin:round; stroke-width:4px;"/><line x1="11.14" y1="35.4" x2="86.26" y2="35.4" style="fill:none; stroke:#7c6576; stroke-linecap:round; stroke-linejoin:round; stroke-width:4px;"/><g><line x1="69.26" y1="63.57" x2="50.61" y2="63.57" style="fill:none; stroke:#7c6576; stroke-linecap:round; stroke-linejoin:round; stroke-width:4px;"/><line x1="50.61" y1="55.2" x2="77.03" y2="55.2" style="fill:none; stroke:#7c6576; stroke-linecap:round; stroke-linejoin:round; stroke-width:4px;"/></g><rect x="18.71" y="52.98" width="18.53" height="12.81" rx="6.41" ry="6.41" style="fill:none; stroke:#7c6576; stroke-linecap:round; stroke-linejoin:round; stroke-width:4px;"/><g><path d="M86.23,86.49c-.71,0-1.4-.17-2.04-.51l-6.85-3.6c-.06-.03-.12-.04-.18-.04s-.12,.01-.18,.04l-6.85,3.6c-.64,.34-1.33,.51-2.04,.51-1.29,0-2.52-.57-3.36-1.57-.83-.98-1.18-2.28-.96-3.56l1.31-7.62c.02-.12-.02-.25-.11-.34l-5.54-5.4c-1.2-1.17-1.63-2.89-1.11-4.49,.52-1.6,1.88-2.74,3.54-2.98l7.66-1.11c.12-.02,.23-.1,.29-.21l3.42-6.94c.74-1.51,2.25-2.44,3.93-2.44h0c1.68,0,3.19,.94,3.93,2.44l3.42,6.94c.06,.11,.16,.19,.29,.21l7.65,1.11c1.66,.24,3.02,1.38,3.54,2.98,.52,1.6,.09,3.32-1.11,4.49l-5.54,5.4c-.09,.09-.13,.21-.11,.34l1.31,7.62c.22,1.28-.13,2.57-.96,3.56-.84,1-2.07,1.57-3.36,1.57Z" style="fill:#7c6576;"/><path d="M77.17,51.83c.85,0,1.7,.44,2.14,1.33l3.42,6.94c.35,.7,1.02,1.19,1.79,1.3l7.66,1.11c1.95,.28,2.73,2.68,1.32,4.06l-5.54,5.4c-.56,.55-.82,1.34-.69,2.11l1.31,7.62c.26,1.54-.96,2.79-2.35,2.79-.37,0-.74-.09-1.11-.28l-6.85-3.6c-.35-.18-.73-.27-1.11-.27s-.76,.09-1.11,.27l-6.85,3.6c-.36,.19-.74,.28-1.11,.28-1.39,0-2.61-1.25-2.35-2.79l1.31-7.62c.13-.77-.12-1.56-.69-2.11l-5.54-5.4c-1.41-1.38-.63-3.78,1.32-4.06l7.66-1.11c.78-.11,1.45-.6,1.79-1.3l3.42-6.94c.44-.89,1.29-1.33,2.14-1.33m0-4c-2.45,0-4.64,1.36-5.72,3.56l-3.05,6.17-6.81,.99c-2.42,.35-4.4,2.02-5.15,4.34-.76,2.33-.14,4.83,1.61,6.54l4.93,4.81-1.16,6.79c-.32,1.86,.19,3.75,1.4,5.18,1.22,1.45,3,2.28,4.89,2.28,1.02,0,2.05-.26,2.97-.74l6.09-3.2,6.09,3.2c.92,.48,1.95,.74,2.97,.74,1.88,0,3.67-.83,4.89-2.28,1.21-1.43,1.72-3.32,1.4-5.18l-1.16-6.79,4.93-4.81c1.75-1.71,2.37-4.21,1.61-6.54-.76-2.33-2.73-3.99-5.15-4.34l-6.81-.99-3.05-6.17c-1.08-2.19-3.28-3.56-5.72-3.56h0Z" style="fill:#fff;"/></g></g></g><g id="d"/><g id="e"/><g id="f"/><g id="g"/><g id="h"/></svg>