<svg width="64" height="64" viewBox="0 0 64 64" fill="none" xmlns="http://www.w3.org/2000/svg">
<path d="M59.952 2.88003C59.936 2.6606 59.7486 2.32918 59.2434 2.04575C58.8183 1.81032 58.032 1.35318 58 1.33718C57.952 1.32118 57.9063 1.30518 57.8423 1.30518C57.7783 1.30518 57.7166 1.30518 57.6366 1.32118L46.5417 3.86975C46.432 3.90175 46.336 3.93375 46.2263 3.99546C46.0846 4.07318 45.9429 4.20118 45.8172 4.3406H45.8012L45.6914 4.46632L10.5394 46.8937C10.5394 46.8937 10.5394 46.9097 10.5234 46.9097C10.4914 46.9417 9.4743 47.9589 10.1143 48.8915L18.4869 61.6069L20.0457 62.5029C20.2697 62.6126 20.9417 62.864 21.4926 62.1257L56.7246 19.6229C56.96 19.3395 57.1337 18.9783 57.1977 18.6149L59.936 3.30289C59.968 3.14518 59.968 3.00346 59.952 2.87775V2.88003ZM55.104 9.88346C54.8983 10.7795 54.2537 11.9132 53.232 12.512C53.1543 12.544 53.0903 12.5897 53.0126 12.6217C52.8869 12.6857 52.7452 12.7155 52.6354 12.7155C51.6114 12.6835 51.36 11.7075 51.5817 10.7337C51.7874 9.83775 52.432 8.72003 53.4537 8.12118C53.5177 8.07318 53.5954 8.02746 53.6732 7.99546C53.7989 7.93146 53.9406 7.90175 54.0503 7.90175C55.0743 7.93375 55.3257 8.92575 55.104 9.88346Z" fill="#FBDBD0"/>
<path d="M55.0286 7.9955L53.1383 7.33264C53.6892 7.64807 53.7532 8.43436 53.6115 9.11093C53.6115 9.14293 53.5955 9.17493 53.5955 9.18864C53.5635 9.33036 53.5178 9.48807 53.4538 9.64578C53.4058 9.7715 53.3441 9.91321 53.2801 10.0389C53.2161 10.1646 53.1383 10.2904 53.0606 10.4161C52.9829 10.5578 52.8709 10.6835 52.7772 10.8092C52.5098 11.1406 52.1783 11.4378 51.7852 11.6595C51.7075 11.7075 51.6275 11.7372 51.5498 11.7852C51.4858 11.8172 51.4241 11.8332 51.3601 11.8492C51.3121 11.8652 51.2663 11.8652 51.2343 11.8652H51.1863C51.0606 11.8492 50.9349 11.8332 50.8412 11.8012C50.7772 11.7852 50.7155 11.7532 50.6675 11.7235L52.3818 13.0241C52.4298 13.0561 52.5852 13.0721 52.6469 13.0881C52.7566 13.1201 52.8846 12.9349 53.0103 12.9349H53.0583C53.1063 12.9349 53.1361 12.9349 53.1841 12.9189C53.2481 12.9029 53.3098 12.8869 53.3738 12.8549C53.4515 12.8229 53.5315 12.7772 53.6092 12.7292C54.0023 12.5098 54.3338 12.2104 54.6012 11.8789C54.7109 11.7532 54.8069 11.6115 54.8846 11.4858C54.9623 11.3601 55.0423 11.2344 55.1041 11.1086C55.1681 10.9829 55.2298 10.8412 55.2778 10.7155C55.3418 10.5578 55.3875 10.4161 55.4195 10.2584C55.4195 10.2264 55.4355 10.1944 55.4355 10.1806C55.5772 9.50407 55.5795 8.31093 55.0286 7.9955Z" fill="#FBDBD0"/>
<path d="M58.0937 1.40117C58.0617 1.38517 58.0297 1.36917 58 1.35317C57.952 1.33717 57.9063 1.32117 57.8423 1.32117C57.7783 1.32117 57.7166 1.32117 57.6366 1.33717H57.6205L46.5417 3.88574C46.432 3.91774 46.336 3.94974 46.2263 4.01145C46.0366 4.12117 45.8651 4.27888 45.6914 4.4686L47.328 5.4126C47.4857 5.20688 47.6731 5.05145 47.8628 4.95545C47.9725 4.89145 48.0823 4.84574 48.1783 4.82974L59.2571 2.28117H59.2731C59.3508 2.26517 59.4148 2.26517 59.4788 2.26517C59.5428 2.26517 59.5886 2.28117 59.6366 2.29717C59.6686 2.31317 59.7006 2.32917 59.7303 2.34517L58.0937 1.40117Z" fill="#C1DBF6" stroke="#C1DBF6" stroke-miterlimit="10"/>
<path d="M11.6754 49.744C11.5337 49.5245 11.5017 49.1931 11.5817 48.816C11.5977 48.752 11.6137 48.7062 11.6297 48.6422C11.6297 48.6102 11.6457 48.5942 11.6457 48.5645L9.99315 47.6982C9.97715 47.7302 9.96115 47.776 9.96115 47.808C9.96115 47.824 9.94515 47.84 9.94515 47.872C9.86743 48.2491 9.89715 48.5805 10.0389 48.8L18.4114 61.5154L20.048 62.4594L11.6754 49.744Z" fill="#C1DBF6"/>
<path d="M59.3417 2.3589C59.7851 2.2629 60.0388 2.62862 59.9428 3.19776L57.1885 18.5806C57.1245 18.88 56.9828 19.2138 56.7611 19.4812L21.312 62.1692C21.1862 62.3269 21.0422 62.4549 20.9005 62.5326C20.8205 62.5806 20.7428 62.6126 20.6628 62.6286C20.4411 62.6766 20.2514 62.6126 20.1417 62.4389L11.7234 49.664C11.6137 49.4903 11.5817 49.2366 11.6434 48.9532C11.7074 48.6538 11.8491 48.368 12.0548 48.1143L47.52 5.39433C47.6457 5.23662 47.7897 5.10862 47.9314 5.0309C48.0114 4.9829 48.1051 4.9509 48.1851 4.9349L59.3417 2.3589ZM55.0605 10.1006C55.28 9.14062 55.0285 8.14862 54.0068 8.1189C53.8971 8.1189 53.7554 8.1509 53.6297 8.21262C53.552 8.24462 53.472 8.29033 53.4102 8.33833C52.3862 8.93719 51.7417 10.0526 51.5382 10.9509C51.3188 11.9269 51.5702 12.9029 52.592 12.9326C52.7017 12.9326 52.8434 12.9006 52.9691 12.8389C53.0468 12.8069 53.1108 12.7612 53.1885 12.7292C54.2125 12.1303 54.8571 10.9989 55.0605 10.1006Z" fill="white"/>
<path fill-rule="evenodd" clip-rule="evenodd" d="M53.5778 7.78159C53.7309 7.70775 53.9044 7.66748 54.0503 7.66748H54.0537L54.0571 7.66758C54.6602 7.68512 55.057 7.99691 55.255 8.44824C55.4449 8.88085 55.4466 9.42359 55.3303 9.93258C55.1159 10.8789 54.4403 12.0719 53.3492 12.71L53.3353 12.7182L53.3204 12.7243C53.2953 12.7346 53.2709 12.7478 53.2339 12.768L53.2305 12.7699C53.1986 12.7874 53.1561 12.8107 53.1082 12.831C52.955 12.9049 52.7815 12.9452 52.6355 12.9452H52.6321L52.6287 12.9451C52.3356 12.9366 52.0841 12.8594 51.8789 12.7204C51.6738 12.5815 51.5274 12.3896 51.4309 12.1709C51.2406 11.7396 51.2394 11.1965 51.3554 10.6806L51.3555 10.6802C51.5693 9.73612 52.2413 8.56517 53.3241 7.92599C53.3994 7.86945 53.4897 7.81856 53.5778 7.78159ZM54.0473 8.13149C53.976 8.13213 53.8707 8.15467 53.7754 8.20145L53.7686 8.20482L53.7615 8.20772C53.7014 8.23246 53.64 8.268 53.5962 8.30204L53.5841 8.31144L53.5709 8.31918C52.6131 8.87933 52.0003 9.93376 51.8081 10.7826C51.7047 11.2426 51.7195 11.6754 51.8554 11.9835C51.9221 12.1345 52.0164 12.2531 52.139 12.3362C52.2607 12.4186 52.4226 12.4743 52.6385 12.4812C52.7098 12.4805 52.8151 12.458 52.9104 12.4112L52.9172 12.4079L52.9243 12.405C52.9493 12.3946 52.9738 12.3815 53.0108 12.3612L53.0141 12.3594C53.044 12.3429 53.0832 12.3215 53.1274 12.3022C54.0771 11.7406 54.6861 10.6765 54.8778 9.82995L54.8779 9.8295C54.9809 9.37858 54.9665 8.94545 54.8302 8.63472C54.7023 8.34348 54.4636 8.14472 54.0473 8.13149Z" fill="#374874"/>
<path d="M57.8423 1.30515C57.9063 1.30515 57.952 1.32115 58 1.33715C58.032 1.35315 58.8183 1.8103 59.2434 2.04573C59.7463 2.32915 59.936 2.66058 59.952 2.88001C59.968 3.00573 59.968 3.14744 59.936 3.30515L57.1977 18.6172C57.1337 18.9783 56.9623 19.3417 56.7246 19.6252L21.4903 62.1303C21.1931 62.528 20.8617 62.6377 20.5829 62.6377C20.3451 62.6377 20.1463 62.5577 20.0434 62.5074L18.4846 61.6114L10.112 48.896C9.472 47.9612 10.4891 46.944 10.5211 46.9143C10.5371 46.9143 10.5371 46.8983 10.5371 46.8983L45.6937 4.46858L45.8034 4.34287H45.8194C45.9451 4.20116 46.0869 4.07544 46.2286 3.99773C46.3383 3.93373 46.432 3.90401 46.544 3.87201L57.6389 1.32344C57.7166 1.30744 57.7806 1.30744 57.8446 1.30744M57.8446 0.393155C57.7577 0.393155 57.6274 0.393155 57.4606 0.427441H57.4469L57.4331 0.432012L46.3383 2.98058L46.3154 2.98515L46.2926 2.99201C46.1394 3.03544 45.9703 3.09258 45.776 3.2023C45.6686 3.26173 45.5589 3.33715 45.4514 3.42858H45.3897L45.1154 3.74173L45.0057 3.86744L44.9966 3.87658L44.9897 3.88573L9.86057 46.2789C9.08342 47.0674 8.62857 48.3314 9.35314 49.4012L17.7211 62.1097L17.84 62.2903L18.0274 62.3977L19.5863 63.2937L19.6137 63.3097L19.6434 63.3234C19.9429 63.4697 20.2674 63.5452 20.5829 63.5452C21.2114 63.5452 21.7874 63.2412 22.208 62.6903L57.4286 20.2057C57.7691 19.7966 58.0091 19.2869 58.0983 18.7726L60.8343 3.47201C60.8777 3.24573 60.8868 3.01487 60.8617 2.7863C60.8091 2.19658 60.384 1.63658 59.6914 1.24801C59.4171 1.09487 58.9966 0.854869 58.72 0.694869C58.4548 0.541726 58.4434 0.534869 58.4091 0.518869L58.352 0.489155L58.2903 0.468583C58.2149 0.443441 58.0549 0.390869 57.8446 0.390869V0.393155Z" fill="#374874"/>
<path d="M29.0212 33.8068C29.6425 33.1305 30.2875 32.7223 30.9561 32.5824C31.6283 32.4385 32.2292 32.6098 32.7588 33.0964C33.2885 33.5829 33.5252 34.1556 33.4689 34.8146C33.4127 35.4735 33.0504 36.1667 32.3821 36.8942C31.7752 37.5549 31.1368 37.951 30.467 38.0825C29.8007 38.2101 29.2028 38.0306 28.6731 37.544C28.1435 37.0575 27.9056 36.491 27.9595 35.8444C28.017 35.1939 28.3709 34.5147 29.0212 33.8068ZM29.9362 34.6039C29.7808 34.773 29.7444 34.9571 29.827 35.1562C29.9108 35.3492 30.0747 35.5578 30.3188 35.782C30.558 36.0017 30.7797 36.1474 30.984 36.219C31.1894 36.2844 31.3697 36.2326 31.5251 36.0635C31.6804 35.8944 31.7162 35.7133 31.6324 35.5204C31.5462 35.3252 31.3811 35.1155 31.137 34.8913C30.8929 34.667 30.6712 34.5214 30.4719 34.4543C30.2701 34.3849 30.0915 34.4348 29.9362 34.6039ZM35.1128 27.3298L36.0708 37.0307L34.4614 38.7826L33.5034 29.0818L35.1128 27.3298ZM37.1775 29.2048C37.7989 28.5284 38.4438 28.1202 39.1124 27.9803C39.7846 27.8364 40.3855 28.0078 40.9152 28.4943C41.4424 28.9786 41.6778 29.5502 41.6216 30.2091C41.5653 30.8681 41.2031 31.5613 40.5348 32.2888C39.9279 32.9494 39.2895 33.3455 38.6196 33.477C37.9534 33.6046 37.3567 33.4263 36.8295 32.942C36.2998 32.4554 36.062 31.8889 36.1159 31.2423C36.1734 30.5918 36.5273 29.9126 37.1775 29.2048ZM38.0925 30.0018C37.9372 30.1709 37.9008 30.355 37.9834 30.5541C38.0672 30.7471 38.2311 30.9557 38.4751 31.1799C38.7143 31.3996 38.9361 31.5453 39.1403 31.6169C39.3457 31.6823 39.5261 31.6305 39.6814 31.4614C39.8368 31.2923 39.8726 31.1113 39.7888 30.9183C39.7062 30.7192 39.5429 30.5075 39.2988 30.2833C39.045 30.0501 38.819 29.9042 38.6209 29.8455C38.424 29.7806 38.2478 29.8327 38.0925 30.0018Z" fill="#FBDBD0"/>
</svg>
