<svg xmlns="http://www.w3.org/2000/svg" width="82" height="60" fill="none">
    <path fill="#1C1C1C" stroke="#fff" d="M63 24H18v13h45V24Z" opacity=".703"/>
    <g filter="url(#a)">
        <path fill="#000" d="M65.22 39.566c.15.145.183.312.1.5-.081.194-.224.29-.427.29h-2.771l1.458 3.454a.47.47 0 0 1-.247.61l-1.284.544a.47.47 0 0 1-.61-.247l-1.385-3.28-2.263 2.264a.447.447 0 0 1-.5.102c-.194-.082-.291-.225-.291-.428v-10.91c0-.204.097-.347.29-.43a.45.45 0 0 1 .5.103l7.43 7.428Z"/>
    </g>
    <path fill="#fff" d="M65.22 39.566c.15.145.183.312.1.5-.081.194-.224.29-.427.29h-2.771l1.458 3.454a.47.47 0 0 1-.247.61l-1.284.544a.47.47 0 0 1-.61-.247l-1.385-3.28-2.263 2.264a.447.447 0 0 1-.5.102c-.194-.082-.291-.225-.291-.428v-10.91c0-.204.097-.347.29-.43a.45.45 0 0 1 .5.103l7.43 7.428Z"/>
    <g filter="url(#b)">
        <path fill="#000" d="M53 28H29v5h24v-5Z"/>
    </g>
    <path fill="#fff" fill-opacity=".95" d="M53 28H29v5h24v-5Z"/>
    <defs>
        <filter id="a" width="8.364" height="13.999" x="57" y="32" color-interpolation-filters="sRGB" filterUnits="userSpaceOnUse">
            <feFlood flood-opacity="0" result="BackgroundImageFix"/>
            <feColorMatrix in="SourceAlpha" result="hardAlpha" values="0 0 0 0 0 0 0 0 0 0 0 0 0 0 0 0 0 0 127 0"/>
            <feOffset dy="1"/>
            <feColorMatrix values="0 0 0 0 0 0 0 0 0 0 0 0 0 0 0 0 0 0 1 0"/>
            <feBlend in2="BackgroundImageFix" result="effect1_dropShadow_6_2"/>
            <feBlend in="SourceGraphic" in2="effect1_dropShadow_6_2" result="shape"/>
        </filter>
        <filter id="b" width="24" height="6" x="29" y="28" color-interpolation-filters="sRGB" filterUnits="userSpaceOnUse">
            <feFlood flood-opacity="0" result="BackgroundImageFix"/>
            <feBlend in="SourceGraphic" in2="BackgroundImageFix" result="shape"/>
            <feColorMatrix in="SourceAlpha" result="hardAlpha" values="0 0 0 0 0 0 0 0 0 0 0 0 0 0 0 0 0 0 127 0"/>
            <feOffset dy="1"/>
            <feGaussianBlur stdDeviation="2"/>
            <feComposite in2="hardAlpha" k2="-1" k3="1" operator="arithmetic"/>
            <feColorMatrix values="0 0 0 0 1 0 0 0 0 1 0 0 0 0 1 0 0 0 0.4 0"/>
            <feBlend in2="shape" result="effect1_innerShadow_6_2"/>
        </filter>
    </defs>
</svg>