<svg xmlns="http://www.w3.org/2000/svg" viewBox="0 0 196 148"><path d="M70.25,56.11H43.42a3.65,3.65,0,0,0-3.66,3.65V86.59a3.65,3.65,0,0,0,3.66,3.65H53.88V78.64h-4.8V73.17h4.8V69c0-4.74,2.82-7.35,7.14-7.35a28.94,28.94,0,0,1,4.23.37v4.65H62.87c-2.35,0-3.08,1.45-3.08,2.95v3.54H65l-.84,5.47h-4.4v11.6H70.25a3.64,3.64,0,0,0,3.65-3.65V59.76A3.64,3.64,0,0,0,70.25,56.11Z" style="fill:#fff;opacity:0.8"/><path d="M111.41,56.11H84.59a3.65,3.65,0,0,0-3.66,3.65V86.59a3.65,3.65,0,0,0,3.66,3.65h26.82a3.65,3.65,0,0,0,3.66-3.65V59.76A3.65,3.65,0,0,0,111.41,56.11Zm-3.72,12.1c0,.21,0,.43,0,.64a14.23,14.23,0,0,1-21.89,12,9.55,9.55,0,0,0,1.2.06,10,10,0,0,0,6.2-2.13,5,5,0,0,1-4.67-3.47,5.25,5.25,0,0,0,2.26-.09,5,5,0,0,1-4-4.91v-.06a4.9,4.9,0,0,0,2.25.64,5,5,0,0,1-2.22-4.17,4.9,4.9,0,0,1,.68-2.52,14.14,14.14,0,0,0,10.3,5.23,5,5,0,0,1,8.53-4.56,10.06,10.06,0,0,0,3.17-1.21,5,5,0,0,1-2.2,2.75,10,10,0,0,0,2.88-.77A10.79,10.79,0,0,1,107.69,68.21Z" style="fill:#fff;opacity:0.8"/><path d="M152.76,56.11H125.6a3.5,3.5,0,0,0-3.5,3.5V86.74a3.5,3.5,0,0,0,3.5,3.5h27.16a3.47,3.47,0,0,0,3.48-3.47V59.58A3.49,3.49,0,0,0,152.76,56.11ZM132.41,85.37h-5.06V69.07h5.07v16.3Zm-2.53-18.52a2.94,2.94,0,1,1,2.94-2.93A2.93,2.93,0,0,1,129.88,66.85Zm21.5,18.52h-5.06V77.44c0-1.89,0-4.32-2.63-4.32s-3,2.06-3,4.18v8.07h-5.06V69.07h4.86V71.3h.06a5.35,5.35,0,0,1,4.8-2.63c5.12,0,6.07,3.38,6.07,7.77Z" style="fill:#fff;opacity:0.8"/></svg>
