<svg id="5fa69d9a-7a2b-40a8-8c10-89bc447ee54b" data-name="Layer 1" xmlns="http://www.w3.org/2000/svg" xmlns:xlink="http://www.w3.org/1999/xlink" width="958.13" height="825.26" viewBox="0 0 958.13 825.26"><defs><linearGradient id="6f2fad38-51e9-4777-a827-714473c680e6" x1="435.4" y1="753.06" x2="435.4" y2="680.27" gradientTransform="translate(319.47 -182.88)" gradientUnits="userSpaceOnUse"><stop offset="0" stop-color="gray" stop-opacity="0.25"/><stop offset="0.54" stop-color="gray" stop-opacity="0.12"/><stop offset="1" stop-color="gray" stop-opacity="0.1"/></linearGradient><linearGradient id="b1328fb4-c058-4868-b663-27c7261be430" x1="411.45" y1="794.05" x2="411.45" y2="721.53" gradientTransform="translate(333.62 -215.54)" xlink:href="#6f2fad38-51e9-4777-a827-714473c680e6"/><linearGradient id="24ee94f9-53b4-4fdf-9139-6d51ea6a4e54" x1="377.72" y1="768.65" x2="377.72" y2="696.12" gradientTransform="translate(363.13 -184.76)" xlink:href="#6f2fad38-51e9-4777-a827-714473c680e6"/><linearGradient id="ccc7dbde-9e07-4ef0-9a11-0f6ab25eb6ca" x1="367.14" y1="760.97" x2="367.14" y2="688.45" gradientTransform="translate(371.71 -172.23)" xlink:href="#6f2fad38-51e9-4777-a827-714473c680e6"/><linearGradient id="a60ac96b-019a-4131-9cc6-498566604ece" x1="568.1" y1="848.12" x2="568.1" y2="105.29" gradientTransform="matrix(1, 0, 0, 1, 0, 0)" xlink:href="#6f2fad38-51e9-4777-a827-714473c680e6"/></defs><title>digital nomad</title><ellipse cx="453.92" cy="788.97" rx="118.88" ry="27.13" fill="#3AADAA" opacity="0.1"/><path d="M387.8,91.73c29.21-26,75.06-31.34,116.8-29.26C635.69,69,754,132.27,856.38,203.85c37,25.92,73.54,53.85,97.59,89.53,49,72.65,34.44,173.29-33.65,233.14-23.16,20.36-51.24,36-80.07,49.81-51.26,24.6-106.57,44.36-164.75,50-41.48,4-83.48.75-124.73-4.85-115.23-15.62-228.34-50.18-323.15-109.31C186,486.22,146.85,454,129.71,412S123.54,316.92,166,292.09c17.56-10.27,38.55-14.91,59.11-19.26,30.26-6.41,61-12.73,88.3-25.77,28.2-13.46,61.6-39.49,56-69.28C363.43,145.81,358.63,117.73,387.8,91.73Z" transform="translate(-120.94 -37.37)" fill="#3AADAA" opacity="0.1"/><path d="M349.36,241.7l-19.69,7.62-28.79,11.13c-1.09-2-2.69-4.78-4.67-8-6.82-11.3-18.11-28.88-28.15-44.33C256.75,190.67,247,176,247,176l7.06-2,57.59-16.7Z" transform="translate(-120.94 -37.37)" fill="#e6ecf8"/><path d="M349.36,241.7l-19.69,7.62a148.53,148.53,0,0,1-33.46,3.08c-6.82-11.3-18.11-28.88-28.15-44.33l-14-34.14,57.59-16.7Z" transform="translate(-120.94 -37.37)" opacity="0.1"/><path d="M364,237s-30.6,18.1-76.29,14l-36.42-88.79,17.46-3,60.34-10.36,34.22,86.42Z" transform="translate(-120.94 -37.37)" fill="#3AADAA"/><path d="M363.33,235.24a144,144,0,0,1-23.92-.68c-9.08-1.07-18.21-3.26-26-7.3a78.71,78.71,0,0,1-17-11.43c-12.69-11.41-20.54-27.74-27.59-56.65l60.34-10.36Z" transform="translate(-120.94 -37.37)" opacity="0.1"/><path d="M385.78,230.28s-22.57,4.42-45.51,1.7c-9.08-1.07-18.21-3.27-26-7.3a79.32,79.32,0,0,1-17-11.43c-15.7-14.13-24-35.78-32.54-79.51,0,0,37.49,9,74.55-10.78C339.23,123,351.73,201,385.78,230.28Z" transform="translate(-120.94 -37.37)" fill="#f9fafb"/><path d="M340.27,232c-9.08-1.07-18.21-3.27-26-7.3a79.32,79.32,0,0,1-17-11.43c13.37-1.09,15.29-8.4,15.29-8.4C322.43,220.58,340.27,232,340.27,232Z" transform="translate(-120.94 -37.37)" opacity="0.1"/><path d="M284.07,149.79s30.49-1.72,39-8.29l1.3,4.14s-20.15,8.89-40.3,9Z" transform="translate(-120.94 -37.37)" fill="#3AADAA" opacity="0.3"/><path d="M284.07,170.26s29.52-1.61,51.82-12.39l.76,1.73s-17.71,10.33-52.58,13Z" transform="translate(-120.94 -37.37)" fill="#3AADAA" opacity="0.3"/><path d="M286.44,178.26s29.53-1.62,51.83-12.39l.75,1.72s-17.7,10.33-52.58,13Z" transform="translate(-120.94 -37.37)" fill="#3AADAA" opacity="0.3"/><path d="M288.82,186.25s29.52-1.61,51.82-12.39l.76,1.73s-17.71,10.33-52.58,13Z" transform="translate(-120.94 -37.37)" fill="#3AADAA" opacity="0.3"/><path d="M291.19,194.25s29.53-1.62,51.83-12.39l.75,1.72s-17.7,10.33-52.58,13Z" transform="translate(-120.94 -37.37)" fill="#3AADAA" opacity="0.3"/><path d="M293.57,202.24s29.52-1.61,51.82-12.39l.76,1.73s-17.71,10.33-52.58,13Z" transform="translate(-120.94 -37.37)" fill="#3AADAA" opacity="0.3"/><polygon points="957.45 285.43 958.04 285.86 958.13 284.93 957.74 284.1 957.11 284.2 957.45 285.43" fill="#464a5f"/><polygon points="957.45 285.43 958.04 285.86 958.13 284.93 957.74 284.1 957.11 284.2 957.45 285.43" opacity="0.1"/><polygon points="957.45 285.43 958.03 285.87 957.63 286.54 957.06 286.42 956.89 286.19 957.45 285.43" fill="#9c9ca1"/><polygon points="957.45 285.43 958.03 285.87 957.63 286.54 957.06 286.42 956.89 286.19 957.45 285.43" opacity="0.1"/><path d="M968.76,245.09l-46.9,65.24a5.48,5.48,0,0,0,1.23,7.62l100.12,72.57a5.47,5.47,0,0,0,7.62-1.2l47.73-65.41Z" transform="translate(-120.94 -37.37)" fill="#9c9ca1"/><path d="M968.76,245.09l-46.9,65.24a5.48,5.48,0,0,0,1.23,7.62l100.12,72.57a5.47,5.47,0,0,0,7.62-1.2l47.73-65.41Z" transform="translate(-120.94 -37.37)" opacity="0.1"/><path d="M968.58,244l-46.9,65.24a5.47,5.47,0,0,0,1.23,7.61L1023,389.41a5.47,5.47,0,0,0,7.62-1.21l47.73-65.4Z" transform="translate(-120.94 -37.37)" fill="#9c9ca1"/><path d="M968,203.6l1.24,39.88,109.8,78.82L1078,281.72a5.81,5.81,0,0,0-2.46-4.61l-105.69-74.5A1.16,1.16,0,0,0,968,203.6Z" transform="translate(-120.94 -37.37)" fill="#464a5f"/><path d="M968,203.6l1.24,39.88,109.8,78.82L1078,281.72a5.81,5.81,0,0,0-2.46-4.61l-105.69-74.5A1.16,1.16,0,0,0,968,203.6Z" transform="translate(-120.94 -37.37)" opacity="0.1"/><path d="M967.34,204.09,968.58,244l109.8,78.82-1.07-40.58a5.82,5.82,0,0,0-2.47-4.61l-105.68-74.5A1.15,1.15,0,0,0,967.34,204.09Z" transform="translate(-120.94 -37.37)" fill="#464a5f"/><g opacity="0.1"><path d="M971.77,261.88l-2.84,4a1.1,1.1,0,0,0,.25,1.52l4,3a1.09,1.09,0,0,0,1.52-.22l2.87-3.76a1.09,1.09,0,0,0-.19-1.53l-4.08-3.22A1.09,1.09,0,0,0,971.77,261.88Z" transform="translate(-120.94 -37.37)"/><path d="M979.17,267.2l-2.84,4a1.1,1.1,0,0,0,.25,1.52l4,3a1.09,1.09,0,0,0,1.52-.22l2.87-3.76a1.09,1.09,0,0,0-.19-1.53L980.74,267A1.09,1.09,0,0,0,979.17,267.2Z" transform="translate(-120.94 -37.37)"/><path d="M986.94,272.78l-2.84,4a1.1,1.1,0,0,0,.25,1.52l4,3a1.09,1.09,0,0,0,1.52-.22l2.87-3.76a1.1,1.1,0,0,0-.19-1.53l-4.08-3.21A1.09,1.09,0,0,0,986.94,272.78Z" transform="translate(-120.94 -37.37)"/><path d="M994.8,278.43l-2.84,4a1.1,1.1,0,0,0,.24,1.52l4,3a1.09,1.09,0,0,0,1.52-.22l2.87-3.76a1.1,1.1,0,0,0-.19-1.53l-4.08-3.21A1.09,1.09,0,0,0,994.8,278.43Z" transform="translate(-120.94 -37.37)"/><path d="M1002.66,284.08l-2.84,4a1.1,1.1,0,0,0,.24,1.52l4,3a1.1,1.1,0,0,0,1.53-.22l2.87-3.76a1.1,1.1,0,0,0-.19-1.53l-4.08-3.21A1.09,1.09,0,0,0,1002.66,284.08Z" transform="translate(-120.94 -37.37)"/><path d="M1010.87,289.23l-3.52,5a.52.52,0,0,0,.11.71l5,3.66a.51.51,0,0,0,.71-.1l3.57-4.68a.51.51,0,0,0-.09-.71l-5-4A.52.52,0,0,0,1010.87,289.23Z" transform="translate(-120.94 -37.37)"/><path d="M1018.73,294.88l-3.52,5a.52.52,0,0,0,.11.71l5,3.66a.51.51,0,0,0,.71-.1l3.57-4.68a.51.51,0,0,0-.09-.71l-5-4A.52.52,0,0,0,1018.73,294.88Z" transform="translate(-120.94 -37.37)"/><path d="M1025.69,299.88l-3.53,5a.51.51,0,0,0,.12.71l5,3.66a.52.52,0,0,0,.72-.1l3.57-4.67a.52.52,0,0,0-.09-.72l-5-4A.51.51,0,0,0,1025.69,299.88Z" transform="translate(-120.94 -37.37)"/><path d="M1033.48,305.48l-3.52,5a.5.5,0,0,0,.11.71l5,3.66a.52.52,0,0,0,.72-.1l3.57-4.67a.52.52,0,0,0-.09-.72l-5-3.95A.51.51,0,0,0,1033.48,305.48Z" transform="translate(-120.94 -37.37)"/><path d="M1041,310.91l-3.52,5a.51.51,0,0,0,.12.71l5,3.67a.51.51,0,0,0,.71-.11l3.57-4.67a.52.52,0,0,0-.09-.72l-5-3.95A.52.52,0,0,0,1041,310.91Z" transform="translate(-120.94 -37.37)"/><path d="M1048.57,316.33l-3.52,5a.52.52,0,0,0,.11.71l5,3.66a.51.51,0,0,0,.71-.1l3.57-4.68a.51.51,0,0,0-.09-.71l-5-3.95A.51.51,0,0,0,1048.57,316.33Z" transform="translate(-120.94 -37.37)"/><path d="M1056.12,321.76l-3.53,5a.51.51,0,0,0,.12.71l5,3.67a.52.52,0,0,0,.72-.11l3.57-4.67a.52.52,0,0,0-.09-.72l-5-4A.51.51,0,0,0,1056.12,321.76Z" transform="translate(-120.94 -37.37)"/><path d="M966.6,269.06l-2.83,4a1.1,1.1,0,0,0,.24,1.52l4,3a1.11,1.11,0,0,0,1.53-.22l2.87-3.76a1.1,1.1,0,0,0-.19-1.53l-4.08-3.22A1.11,1.11,0,0,0,966.6,269.06Z" transform="translate(-120.94 -37.37)"/><path d="M955.32,284.76l-2.83,4a1.1,1.1,0,0,0,.24,1.52l4,3a1.11,1.11,0,0,0,1.53-.21l2.87-3.76a1.1,1.1,0,0,0-.19-1.53l-4.08-3.22A1.1,1.1,0,0,0,955.32,284.76Z" transform="translate(-120.94 -37.37)"/><path d="M974,274.38l-2.84,4a1.1,1.1,0,0,0,.24,1.52l4,3a1.11,1.11,0,0,0,1.53-.22l2.87-3.76a1.1,1.1,0,0,0-.19-1.53l-4.08-3.22A1.1,1.1,0,0,0,974,274.38Z" transform="translate(-120.94 -37.37)"/><path d="M981.77,280l-2.83,4a1.1,1.1,0,0,0,.24,1.52l4,3a1.11,1.11,0,0,0,1.53-.21l2.87-3.76a1.1,1.1,0,0,0-.19-1.53l-4.08-3.22A1.1,1.1,0,0,0,981.77,280Z" transform="translate(-120.94 -37.37)"/><path d="M989.63,285.62l-2.83,4a1.1,1.1,0,0,0,.24,1.52l4,3a1.11,1.11,0,0,0,1.53-.21l2.87-3.77a1.09,1.09,0,0,0-.19-1.52l-4.08-3.22A1.1,1.1,0,0,0,989.63,285.62Z" transform="translate(-120.94 -37.37)"/><path d="M962.9,289.83l-2.83,4a1.1,1.1,0,0,0,.24,1.52l4,3a1.11,1.11,0,0,0,1.53-.21l2.87-3.77a1.09,1.09,0,0,0-.19-1.52l-4.08-3.22A1.1,1.1,0,0,0,962.9,289.83Z" transform="translate(-120.94 -37.37)"/><path d="M970.67,295.41l-2.83,4a1.1,1.1,0,0,0,.24,1.52l4,3a1.11,1.11,0,0,0,1.53-.22l2.87-3.76a1.1,1.1,0,0,0-.19-1.53l-4.08-3.22A1.11,1.11,0,0,0,970.67,295.41Z" transform="translate(-120.94 -37.37)"/><path d="M978.53,301.06l-2.83,4a1.1,1.1,0,0,0,.24,1.52l4,3a1.11,1.11,0,0,0,1.53-.22l2.87-3.76a1.1,1.1,0,0,0-.2-1.53l-4.07-3.22A1.1,1.1,0,0,0,978.53,301.06Z" transform="translate(-120.94 -37.37)"/><path d="M997.49,291.27l-2.83,4a1.1,1.1,0,0,0,.24,1.52l4,3a1.11,1.11,0,0,0,1.53-.21l2.87-3.77a1.09,1.09,0,0,0-.19-1.52L999.07,291A1.1,1.1,0,0,0,997.49,291.27Z" transform="translate(-120.94 -37.37)"/><path d="M1005.35,296.91l-2.83,4a1.1,1.1,0,0,0,.24,1.52l4,3a1.11,1.11,0,0,0,1.53-.21l2.87-3.77a1.09,1.09,0,0,0-.19-1.52l-4.08-3.22A1.1,1.1,0,0,0,1005.35,296.91Z" transform="translate(-120.94 -37.37)"/><path d="M1013.57,302.06l-3.53,5a.51.51,0,0,0,.12.71l5,3.66a.52.52,0,0,0,.72-.1l3.57-4.67a.52.52,0,0,0-.09-.72l-5-4A.51.51,0,0,0,1013.57,302.06Z" transform="translate(-120.94 -37.37)"/><path d="M1020.52,307.06l-3.52,5a.51.51,0,0,0,.12.71l5,3.66a.5.5,0,0,0,.71-.1l3.57-4.67a.52.52,0,0,0-.09-.72l-5-4A.52.52,0,0,0,1020.52,307.06Z" transform="translate(-120.94 -37.37)"/><path d="M1028.32,312.66l-3.53,5a.51.51,0,0,0,.12.71l5,3.66a.5.5,0,0,0,.71-.1l3.57-4.67a.52.52,0,0,0-.09-.72l-5-3.95A.51.51,0,0,0,1028.32,312.66Z" transform="translate(-120.94 -37.37)"/><path d="M1035.86,318.09l-3.52,5a.52.52,0,0,0,.11.71l5,3.66a.51.51,0,0,0,.71-.1l3.57-4.68a.51.51,0,0,0-.09-.71l-5-4A.52.52,0,0,0,1035.86,318.09Z" transform="translate(-120.94 -37.37)"/><path d="M976.41,287.43l-2.84,4a1.1,1.1,0,0,0,.24,1.52l4,3a1.1,1.1,0,0,0,1.53-.22l2.87-3.76a1.1,1.1,0,0,0-.19-1.53L978,287.21A1.09,1.09,0,0,0,976.41,287.43Z" transform="translate(-120.94 -37.37)"/><path d="M984.27,293.08l-2.84,4a1.1,1.1,0,0,0,.24,1.52l4,3a1.1,1.1,0,0,0,1.53-.22l2.87-3.76a1.1,1.1,0,0,0-.19-1.53l-4.08-3.21A1.09,1.09,0,0,0,984.27,293.08Z" transform="translate(-120.94 -37.37)"/><path d="M992.12,298.73l-2.83,4a1.1,1.1,0,0,0,.24,1.52l4,3a1.1,1.1,0,0,0,1.53-.22l2.87-3.76a1.11,1.11,0,0,0-.19-1.53l-4.08-3.21A1.1,1.1,0,0,0,992.12,298.73Z" transform="translate(-120.94 -37.37)"/><path d="M1000,304.38l-2.83,4a1.1,1.1,0,0,0,.24,1.52l4,3a1.1,1.1,0,0,0,1.53-.22l2.87-3.76a1.1,1.1,0,0,0-.19-1.53l-4.08-3.21A1.1,1.1,0,0,0,1000,304.38Z" transform="translate(-120.94 -37.37)"/><path d="M1008.2,309.53l-3.52,5a.5.5,0,0,0,.11.71l5,3.66a.52.52,0,0,0,.72-.1l3.57-4.68a.51.51,0,0,0-.09-.71l-5-3.95A.51.51,0,0,0,1008.2,309.53Z" transform="translate(-120.94 -37.37)"/><path d="M1015.16,314.53l-3.53,5a.51.51,0,0,0,.12.71l5,3.66a.52.52,0,0,0,.72-.1l3.56-4.67a.5.5,0,0,0-.09-.72l-5-3.95A.5.5,0,0,0,1015.16,314.53Z" transform="translate(-120.94 -37.37)"/><path d="M1023,320.13l-3.53,5a.51.51,0,0,0,.12.71l5,3.66a.52.52,0,0,0,.72-.1l3.57-4.67a.52.52,0,0,0-.09-.72l-5-4A.5.5,0,0,0,1023,320.13Z" transform="translate(-120.94 -37.37)"/><path d="M1030.49,325.56l-3.52,5a.53.53,0,0,0,.11.72l5,3.66a.52.52,0,0,0,.71-.1l3.57-4.68a.51.51,0,0,0-.09-.71l-5-4A.52.52,0,0,0,1030.49,325.56Z" transform="translate(-120.94 -37.37)"/><path d="M1043.41,323.51l-3.53,5a.51.51,0,0,0,.12.71l5,3.66a.51.51,0,0,0,.72-.1l3.57-4.67a.52.52,0,0,0-.09-.72l-5-3.95A.52.52,0,0,0,1043.41,323.51Z" transform="translate(-120.94 -37.37)"/><path d="M1051,328.94l-3.52,5a.53.53,0,0,0,.11.72l5,3.66a.52.52,0,0,0,.71-.1l3.57-4.68a.51.51,0,0,0-.09-.71l-5-4A.52.52,0,0,0,1051,328.94Z" transform="translate(-120.94 -37.37)"/><path d="M1017.11,328.26l-3.32,4.67a.68.68,0,0,0,.16.95l4.68,3.46a.68.68,0,0,0,1-.13l3.36-4.4a.68.68,0,0,0-.12-1l-4.73-3.74A.69.69,0,0,0,1017.11,328.26Z" transform="translate(-120.94 -37.37)"/><path d="M1024.66,333.68l-3.32,4.68a.68.68,0,0,0,.15.95l4.69,3.46a.7.7,0,0,0,1-.14l3.36-4.4a.69.69,0,0,0-.12-1l-4.74-3.73A.68.68,0,0,0,1024.66,333.68Z" transform="translate(-120.94 -37.37)"/><path d="M1032.2,339.1l-3.32,4.68a.69.69,0,0,0,.16,1l4.69,3.46a.68.68,0,0,0,1-.13l3.36-4.41a.67.67,0,0,0-.12-.95l-4.73-3.74A.7.7,0,0,0,1032.2,339.1Z" transform="translate(-120.94 -37.37)"/><path d="M1039.85,344.38l-3.52,5a.52.52,0,0,0,.12.72l5,3.66a.51.51,0,0,0,.71-.1l3.57-4.68a.51.51,0,0,0-.09-.71l-5-4A.52.52,0,0,0,1039.85,344.38Z" transform="translate(-120.94 -37.37)"/><path d="M961,276.48l-3,4.29a1.1,1.1,0,0,0,.26,1.53L970,290.66a1.09,1.09,0,0,0,1.5-.23l3.2-4.17a1.09,1.09,0,0,0-.24-1.56l-11.93-8.48A1.09,1.09,0,0,0,961,276.48Z" transform="translate(-120.94 -37.37)"/><path d="M1037.89,331.06l-3.69,5.25a.51.51,0,0,0,.12.71l12.69,9a.52.52,0,0,0,.71-.11l3.9-5.1a.51.51,0,0,0-.11-.73l-12.9-9.17A.51.51,0,0,0,1037.89,331.06Z" transform="translate(-120.94 -37.37)"/><path d="M986.53,306.26,983,311.14a.53.53,0,0,0,.11.72l27.5,20.28a.52.52,0,0,0,.71-.1l3.88-5.09a.51.51,0,0,0-.11-.73l-27.82-20.07A.51.51,0,0,0,986.53,306.26Z" transform="translate(-120.94 -37.37)"/></g><path d="M971.65,261.14l-2.84,4a1.1,1.1,0,0,0,.24,1.52l4,3a1.1,1.1,0,0,0,1.53-.21l2.87-3.76a1.09,1.09,0,0,0-.19-1.53l-4.08-3.22A1.09,1.09,0,0,0,971.65,261.14Z" transform="translate(-120.94 -37.37)" fill="#464a5f"/><path d="M979.05,266.46l-2.84,4a1.1,1.1,0,0,0,.24,1.52l4,3a1.09,1.09,0,0,0,1.52-.21l2.87-3.76a1.09,1.09,0,0,0-.19-1.53l-4.08-3.22A1.09,1.09,0,0,0,979.05,266.46Z" transform="translate(-120.94 -37.37)" fill="#464a5f"/><path d="M986.82,272,984,276a1.1,1.1,0,0,0,.24,1.52l4,3a1.11,1.11,0,0,0,1.53-.22l2.87-3.76a1.09,1.09,0,0,0-.19-1.53l-4.08-3.22A1.1,1.1,0,0,0,986.82,272Z" transform="translate(-120.94 -37.37)" fill="#464a5f"/><path d="M994.68,277.69l-2.84,4a1.1,1.1,0,0,0,.24,1.52l4,3a1.11,1.11,0,0,0,1.53-.22l2.87-3.76a1.09,1.09,0,0,0-.19-1.53l-4.08-3.22A1.09,1.09,0,0,0,994.68,277.69Z" transform="translate(-120.94 -37.37)" fill="#464a5f"/><path d="M1002.53,283.34l-2.83,4a1.1,1.1,0,0,0,.24,1.52l4,3a1.11,1.11,0,0,0,1.53-.22l2.87-3.76a1.1,1.1,0,0,0-.19-1.53l-4.08-3.22A1.11,1.11,0,0,0,1002.53,283.34Z" transform="translate(-120.94 -37.37)" fill="#464a5f"/><path d="M1010.75,288.49l-3.52,5a.51.51,0,0,0,.11.71l5,3.66a.52.52,0,0,0,.72-.1l3.57-4.68a.51.51,0,0,0-.09-.71l-5-4A.52.52,0,0,0,1010.75,288.49Z" transform="translate(-120.94 -37.37)" fill="#464a5f"/><path d="M1018.61,294.14l-3.52,5a.51.51,0,0,0,.11.72l5,3.66a.53.53,0,0,0,.72-.1l3.57-4.68a.51.51,0,0,0-.09-.71l-5-4A.52.52,0,0,0,1018.61,294.14Z" transform="translate(-120.94 -37.37)" fill="#464a5f"/><path d="M1025.57,299.14l-3.53,5a.51.51,0,0,0,.12.71l5,3.66a.52.52,0,0,0,.72-.1l3.57-4.68a.51.51,0,0,0-.09-.71l-5-4A.51.51,0,0,0,1025.57,299.14Z" transform="translate(-120.94 -37.37)" fill="#464a5f"/><path d="M1033.36,304.74l-3.53,5a.51.51,0,0,0,.12.71l5,3.66a.52.52,0,0,0,.72-.1l3.57-4.68a.51.51,0,0,0-.09-.71l-5-4A.52.52,0,0,0,1033.36,304.74Z" transform="translate(-120.94 -37.37)" fill="#464a5f"/><path d="M1040.9,310.16l-3.52,5a.52.52,0,0,0,.11.71l5,3.66a.5.5,0,0,0,.71-.1l3.57-4.67a.52.52,0,0,0-.09-.72l-5-3.95A.52.52,0,0,0,1040.9,310.16Z" transform="translate(-120.94 -37.37)" fill="#464a5f"/><path d="M1048.45,315.59l-3.52,5a.5.5,0,0,0,.11.71l5,3.66a.52.52,0,0,0,.72-.1l3.57-4.68a.51.51,0,0,0-.09-.71l-5-4A.52.52,0,0,0,1048.45,315.59Z" transform="translate(-120.94 -37.37)" fill="#464a5f"/><path d="M1056,321l-3.53,5a.51.51,0,0,0,.12.71l5,3.66a.51.51,0,0,0,.71-.1l3.57-4.67a.51.51,0,0,0-.09-.72l-5-3.95A.51.51,0,0,0,1056,321Z" transform="translate(-120.94 -37.37)" fill="#464a5f"/><path d="M966.48,268.32l-2.83,4a1.1,1.1,0,0,0,.24,1.52l4,3a1.11,1.11,0,0,0,1.53-.22l2.87-3.76a1.1,1.1,0,0,0-.19-1.53l-4.08-3.22A1.11,1.11,0,0,0,966.48,268.32Z" transform="translate(-120.94 -37.37)" fill="#464a5f"/><path d="M955.2,284l-2.84,4a1.11,1.11,0,0,0,.25,1.52l4,3a1.09,1.09,0,0,0,1.52-.21l2.88-3.77a1.09,1.09,0,0,0-.2-1.52l-4.07-3.22A1.1,1.1,0,0,0,955.2,284Z" transform="translate(-120.94 -37.37)" fill="#464a5f"/><path d="M973.88,273.64l-2.83,4a1.1,1.1,0,0,0,.24,1.52l4,3a1.11,1.11,0,0,0,1.53-.22l2.87-3.76a1.1,1.1,0,0,0-.19-1.53l-4.08-3.22A1.11,1.11,0,0,0,973.88,273.64Z" transform="translate(-120.94 -37.37)" fill="#464a5f"/><path d="M981.65,279.22l-2.83,4a1.1,1.1,0,0,0,.24,1.52l4,3a1.1,1.1,0,0,0,1.53-.22l2.87-3.76a1.11,1.11,0,0,0-.19-1.53L983.23,279A1.1,1.1,0,0,0,981.65,279.22Z" transform="translate(-120.94 -37.37)" fill="#464a5f"/><path d="M989.51,284.87l-2.83,4a1.1,1.1,0,0,0,.24,1.52l4,3a1.1,1.1,0,0,0,1.53-.22l2.87-3.76a1.11,1.11,0,0,0-.19-1.53l-4.08-3.21A1.1,1.1,0,0,0,989.51,284.87Z" transform="translate(-120.94 -37.37)" fill="#464a5f"/><path d="M962.78,289.08l-2.83,4a1.1,1.1,0,0,0,.24,1.52l4,3a1.1,1.1,0,0,0,1.53-.22l2.87-3.76a1.1,1.1,0,0,0-.2-1.53l-4.07-3.21A1.1,1.1,0,0,0,962.78,289.08Z" transform="translate(-120.94 -37.37)" fill="#464a5f"/><path d="M970.55,294.67l-2.83,4a1.09,1.09,0,0,0,.24,1.51l4,3a1.1,1.1,0,0,0,1.52-.22l2.88-3.76a1.1,1.1,0,0,0-.2-1.53l-4.07-3.22A1.1,1.1,0,0,0,970.55,294.67Z" transform="translate(-120.94 -37.37)" fill="#464a5f"/><path d="M978.41,300.32l-2.84,4a1.1,1.1,0,0,0,.25,1.51l4,3a1.1,1.1,0,0,0,1.52-.22l2.88-3.76a1.1,1.1,0,0,0-.2-1.53L980,300.09A1.1,1.1,0,0,0,978.41,300.32Z" transform="translate(-120.94 -37.37)" fill="#464a5f"/><path d="M997.37,290.52l-2.83,4a1.1,1.1,0,0,0,.24,1.52l4,3a1.1,1.1,0,0,0,1.53-.22l2.87-3.76a1.1,1.1,0,0,0-.2-1.53L999,290.3A1.1,1.1,0,0,0,997.37,290.52Z" transform="translate(-120.94 -37.37)" fill="#464a5f"/><path d="M1005.23,296.17l-2.83,4a1.1,1.1,0,0,0,.24,1.52l4,3a1.09,1.09,0,0,0,1.52-.22l2.88-3.76a1.1,1.1,0,0,0-.2-1.53l-4.07-3.21A1.1,1.1,0,0,0,1005.23,296.17Z" transform="translate(-120.94 -37.37)" fill="#464a5f"/><path d="M1013.45,301.32l-3.53,5a.51.51,0,0,0,.12.71l5,3.66a.52.52,0,0,0,.72-.1l3.57-4.68a.5.5,0,0,0-.1-.71l-5-3.95A.5.5,0,0,0,1013.45,301.32Z" transform="translate(-120.94 -37.37)" fill="#464a5f"/><path d="M1020.4,306.32l-3.52,5a.52.52,0,0,0,.11.71l5,3.66a.51.51,0,0,0,.71-.1l3.57-4.67a.52.52,0,0,0-.09-.72l-5-3.95A.51.51,0,0,0,1020.4,306.32Z" transform="translate(-120.94 -37.37)" fill="#464a5f"/><path d="M1028.19,311.92l-3.52,5a.52.52,0,0,0,.11.71l5,3.66a.51.51,0,0,0,.71-.1l3.57-4.67a.52.52,0,0,0-.09-.72l-5-3.95A.51.51,0,0,0,1028.19,311.92Z" transform="translate(-120.94 -37.37)" fill="#464a5f"/><path d="M1035.74,317.35l-3.52,5a.51.51,0,0,0,.11.71l5,3.67a.52.52,0,0,0,.71-.1l3.57-4.68a.52.52,0,0,0-.09-.72l-5-3.95A.52.52,0,0,0,1035.74,317.35Z" transform="translate(-120.94 -37.37)" fill="#464a5f"/><path d="M976.28,286.69l-2.83,4a1.1,1.1,0,0,0,.24,1.52l4,3a1.1,1.1,0,0,0,1.53-.22l2.87-3.76a1.1,1.1,0,0,0-.19-1.53l-4.08-3.21A1.1,1.1,0,0,0,976.28,286.69Z" transform="translate(-120.94 -37.37)" fill="#464a5f"/><path d="M984.14,292.34l-2.83,4a1.1,1.1,0,0,0,.24,1.52l4,3a1.1,1.1,0,0,0,1.53-.22l2.87-3.76a1.1,1.1,0,0,0-.19-1.53l-4.08-3.21A1.1,1.1,0,0,0,984.14,292.34Z" transform="translate(-120.94 -37.37)" fill="#464a5f"/><path d="M992,298l-2.83,4a1.1,1.1,0,0,0,.24,1.52l4,3a1.11,1.11,0,0,0,1.53-.22l2.87-3.76a1.1,1.1,0,0,0-.19-1.53l-4.08-3.22A1.11,1.11,0,0,0,992,298Z" transform="translate(-120.94 -37.37)" fill="#464a5f"/><path d="M999.86,303.64l-2.83,4a1.1,1.1,0,0,0,.24,1.52l4,3a1.11,1.11,0,0,0,1.53-.22l2.87-3.76a1.1,1.1,0,0,0-.19-1.53l-4.08-3.22A1.11,1.11,0,0,0,999.86,303.64Z" transform="translate(-120.94 -37.37)" fill="#464a5f"/><path d="M1008.08,308.79l-3.53,5a.51.51,0,0,0,.12.71l5,3.66a.52.52,0,0,0,.72-.1l3.57-4.68a.51.51,0,0,0-.09-.71l-5-4A.52.52,0,0,0,1008.08,308.79Z" transform="translate(-120.94 -37.37)" fill="#464a5f"/><path d="M1015,313.79l-3.52,5a.51.51,0,0,0,.12.71l5,3.66a.51.51,0,0,0,.71-.1l3.57-4.68a.51.51,0,0,0-.09-.71l-5-4A.52.52,0,0,0,1015,313.79Z" transform="translate(-120.94 -37.37)" fill="#464a5f"/><path d="M1022.83,319.39l-3.53,5a.51.51,0,0,0,.12.71l5,3.66a.51.51,0,0,0,.71-.1l3.57-4.68a.5.5,0,0,0-.09-.71l-5-4A.51.51,0,0,0,1022.83,319.39Z" transform="translate(-120.94 -37.37)" fill="#464a5f"/><path d="M1030.37,324.82l-3.52,5a.52.52,0,0,0,.11.71l5,3.67a.51.51,0,0,0,.71-.11l3.57-4.67a.52.52,0,0,0-.09-.72l-5-4A.52.52,0,0,0,1030.37,324.82Z" transform="translate(-120.94 -37.37)" fill="#464a5f"/><path d="M1043.29,322.77l-3.53,5a.51.51,0,0,0,.12.71l5,3.66a.52.52,0,0,0,.72-.1l3.57-4.67a.52.52,0,0,0-.09-.72l-5-3.95A.5.5,0,0,0,1043.29,322.77Z" transform="translate(-120.94 -37.37)" fill="#464a5f"/><path d="M1050.83,328.2l-3.52,5a.52.52,0,0,0,.11.71l5,3.67a.51.51,0,0,0,.71-.11l3.57-4.67a.52.52,0,0,0-.09-.72l-5-4A.52.52,0,0,0,1050.83,328.2Z" transform="translate(-120.94 -37.37)" fill="#464a5f"/><path d="M1017,327.51l-3.32,4.68a.68.68,0,0,0,.15.95l4.69,3.46a.7.7,0,0,0,1-.14l3.36-4.4a.69.69,0,0,0-.12-1l-4.73-3.73A.7.7,0,0,0,1017,327.51Z" transform="translate(-120.94 -37.37)" fill="#464a5f"/><path d="M1024.53,332.94l-3.31,4.67a.7.7,0,0,0,.15,1l4.69,3.46a.68.68,0,0,0,1-.14l3.37-4.4a.69.69,0,0,0-.13-1l-4.73-3.73A.69.69,0,0,0,1024.53,332.94Z" transform="translate(-120.94 -37.37)" fill="#464a5f"/><path d="M1032.08,338.36l-3.32,4.68a.69.69,0,0,0,.16.95l4.68,3.46a.69.69,0,0,0,1-.14l3.36-4.4a.68.68,0,0,0-.12-1l-4.73-3.73A.7.7,0,0,0,1032.08,338.36Z" transform="translate(-120.94 -37.37)" fill="#464a5f"/><path d="M1039.73,343.64l-3.52,5a.52.52,0,0,0,.11.71l5,3.67a.51.51,0,0,0,.71-.11l3.57-4.67a.52.52,0,0,0-.09-.72l-5-4A.52.52,0,0,0,1039.73,343.64Z" transform="translate(-120.94 -37.37)" fill="#464a5f"/><path d="M960.83,275.74l-3,4.29a1.1,1.1,0,0,0,.26,1.53l11.75,8.36a1.1,1.1,0,0,0,1.51-.23l3.2-4.17a1.09,1.09,0,0,0-.24-1.56l-11.93-8.48A1.1,1.1,0,0,0,960.83,275.74Z" transform="translate(-120.94 -37.37)" fill="#464a5f"/><path d="M1037.77,330.32l-3.69,5.25a.51.51,0,0,0,.12.71l12.69,9a.51.51,0,0,0,.7-.11l3.91-5.1a.51.51,0,0,0-.11-.73l-12.9-9.17A.51.51,0,0,0,1037.77,330.32Z" transform="translate(-120.94 -37.37)" fill="#464a5f"/><path d="M986.41,305.52l-3.55,4.88a.53.53,0,0,0,.11.72l27.5,20.28a.51.51,0,0,0,.71-.11l3.88-5.09a.51.51,0,0,0-.11-.73l-27.82-20.06A.51.51,0,0,0,986.41,305.52Z" transform="translate(-120.94 -37.37)" fill="#464a5f"/><path d="M970.29,311.16l-15.56,21.53a2.79,2.79,0,0,0,.6,3.88l40.16,29.69a2.8,2.8,0,0,0,3.92-.6l16.06-22a2.79,2.79,0,0,0-.62-3.92l-40.66-29.25A2.8,2.8,0,0,0,970.29,311.16Z" transform="translate(-120.94 -37.37)" opacity="0.1"/><path d="M970.17,310.42,954.6,331.94a2.81,2.81,0,0,0,.61,3.89l40.16,29.69a2.8,2.8,0,0,0,3.92-.6l16.06-22a2.8,2.8,0,0,0-.63-3.92l-40.65-29.25A2.8,2.8,0,0,0,970.17,310.42Z" transform="translate(-120.94 -37.37)" fill="#939498"/><path d="M972.18,210.59l.67,33.67,101.43,72.67-.9-33.35A5.84,5.84,0,0,0,1071,279L974,209.62A1.16,1.16,0,0,0,972.18,210.59Z" transform="translate(-120.94 -37.37)" fill="#3AADAA"/><rect x="140.53" y="365.54" width="61.04" height="90.76" rx="2.91" ry="2.91" transform="translate(-328.51 139.55) rotate(-35.68)" fill="#3a3768"/><rect x="129.33" y="378.5" width="50.62" height="17.84" rx="0.18" ry="0.18" transform="translate(-317.89 125.57) rotate(-35.68)" opacity="0.1"/><rect x="129.7" y="378.87" width="49.86" height="17.26" rx="3.35" ry="3.35" transform="translate(-317.94 125.57) rotate(-35.68)" fill="#e6e8ec"/><rect x="147.37" y="410.45" width="10.07" height="11.19" rx="1.39" ry="1.39" transform="translate(-335 129.64) rotate(-35.68)" opacity="0.1"/><rect x="157.36" y="403.28" width="10.07" height="11.19" rx="1.39" ry="1.39" transform="matrix(0.81, -0.58, 0.58, 0.81, -328.94, 134.12)" opacity="0.1"/><rect x="167.36" y="396.1" width="10.07" height="11.19" rx="1.39" ry="1.39" transform="translate(-322.88 138.6) rotate(-35.68)" opacity="0.1"/><rect x="177.49" y="389.12" width="10.07" height="11.19" rx="1.59" ry="1.59" transform="translate(-316.9 143.2) rotate(-35.68)" opacity="0.1"/><rect x="154.54" y="420.45" width="10.07" height="11.19" rx="1.39" ry="1.39" transform="translate(-339.49 135.7) rotate(-35.68)" opacity="0.1"/><rect x="164.54" y="413.27" width="10.07" height="11.19" rx="1.39" ry="1.39" transform="translate(-333.42 140.18) rotate(-35.68)" opacity="0.1"/><rect x="174.53" y="406.09" width="10.07" height="11.19" rx="1.39" ry="1.39" transform="translate(-327.36 144.66) rotate(-35.68)" opacity="0.1"/><rect x="162.47" y="431.48" width="10.07" height="11.19" rx="1.39" ry="1.39" transform="translate(-344.43 142.39) rotate(-35.68)" opacity="0.1"/><rect x="172.46" y="424.3" width="10.07" height="11.19" rx="1.39" ry="1.39" transform="translate(-338.37 146.87) rotate(-35.68)" opacity="0.1"/><rect x="182.46" y="417.13" width="10.07" height="11.19" rx="1.39" ry="1.39" transform="translate(-332.31 151.36) rotate(-35.68)" opacity="0.1"/><rect x="190.38" y="428.16" width="10.07" height="11.19" rx="1.39" ry="1.39" transform="translate(-337.26 158.05) rotate(-35.68)" opacity="0.1"/><rect x="184.67" y="399.11" width="10.07" height="11.19" rx="0.91" ry="0.91" transform="translate(-321.39 149.26) rotate(-35.68)" opacity="0.1"/><rect x="169.23" y="438.92" width="22.37" height="11.19" rx="2.18" ry="2.18" transform="translate(-346.35 151.32) rotate(-35.68)" opacity="0.1"/><rect x="195.54" y="408.95" width="11.03" height="24.77" rx="2.07" ry="2.07" transform="translate(-328.96 159.01) rotate(-35.68)" opacity="0.1"/><rect x="172.47" y="380.07" width="4.41" height="0.48" transform="translate(-309.97 135.92) rotate(-35.68)" fill="#3AADAA"/><rect x="167.23" y="383.83" width="4.41" height="0.48" transform="translate(-313.15 133.57) rotate(-35.68)" fill="#3AADAA"/><rect x="161.99" y="387.59" width="4.41" height="0.48" transform="translate(-316.33 131.22) rotate(-35.68)" fill="#3AADAA"/><rect x="156.75" y="391.36" width="4.41" height="0.48" transform="translate(-319.51 128.87) rotate(-35.68)" fill="#3AADAA"/><g opacity="0.1"><path d="M753,105.25H690.55a3.27,3.27,0,0,0-3.26,3.26V148a3.28,3.28,0,0,0,3.26,3.27h49s1.27,6.73-2.9,7.46c0,0,9.34.67,7.71-7.46H753a3.28,3.28,0,0,0,3.27-3.27V108.51A3.28,3.28,0,0,0,753,105.25Z" transform="translate(-120.94 -37.37)"/><g opacity="0.2"><rect x="575.55" y="78.35" width="50.58" height="3.08" rx="1.39" ry="1.39"/><rect x="575.55" y="92.13" width="50.58" height="3.08" rx="1.39" ry="1.39"/><rect x="575.55" y="99.02" width="42.42" height="3.08" rx="1.39" ry="1.39"/><rect x="575.55" y="85.24" width="21.93" height="3.08" rx="1.39" ry="1.39"/></g></g><path d="M753.54,105H691.1a3.27,3.27,0,0,0-3.27,3.26v39.45A3.27,3.27,0,0,0,691.1,151h49s1.27,6.74-2.9,7.46c0,0,9.33.67,7.7-7.46h8.66a3.27,3.27,0,0,0,3.26-3.26V108.24A3.27,3.27,0,0,0,753.54,105Z" transform="translate(-120.94 -37.37)" fill="#f9fafb"/><g opacity="0.2"><rect x="576.09" y="78.08" width="50.58" height="3.08" rx="1.39" ry="1.39" fill="#3AADAA"/><rect x="576.09" y="91.86" width="50.58" height="3.08" rx="1.39" ry="1.39" fill="#3AADAA"/><rect x="576.09" y="98.74" width="42.42" height="3.08" rx="1.39" ry="1.39" fill="#3AADAA"/><rect x="576.09" y="84.97" width="21.93" height="3.08" rx="1.39" ry="1.39" fill="#3AADAA"/></g><g opacity="0.1"><path d="M813.28,38h-75.1A3.93,3.93,0,0,0,734.26,42V89.4a3.93,3.93,0,0,0,3.92,3.93H797.1s1.52,8.1-3.49,9c0,0,11.23.8,9.26-9h10.41a3.94,3.94,0,0,0,3.93-3.93V42A3.93,3.93,0,0,0,813.28,38Z" transform="translate(-120.94 -37.37)"/><g opacity="0.2"><rect x="624.38" y="13.25" width="60.84" height="3.71" rx="1.67" ry="1.67"/><rect x="624.38" y="29.82" width="50.2" height="3.71" rx="1.67" ry="1.67"/><rect x="624.38" y="21.54" width="36.14" height="3.71" rx="1.67" ry="1.67"/></g></g><path d="M814.26,37.37h-75.1a3.93,3.93,0,0,0-3.92,3.93V88.75a3.93,3.93,0,0,0,3.92,3.92h58.92s1.52,8.1-3.49,9c0,0,11.23.81,9.27-9h10.4a3.94,3.94,0,0,0,3.93-3.92V41.3A3.94,3.94,0,0,0,814.26,37.37Z" transform="translate(-120.94 -37.37)" fill="#f9fafb"/><g opacity="0.2"><rect x="625.36" y="12.6" width="60.84" height="3.71" rx="1.67" ry="1.67" fill="#3AADAA"/><rect x="625.36" y="29.17" width="50.2" height="3.71" rx="1.67" ry="1.67" fill="#3AADAA"/><rect x="625.36" y="20.88" width="36.14" height="3.71" rx="1.67" ry="1.67" fill="#3AADAA"/></g><path d="M322.78,553.56l67.83-25.34a6.44,6.44,0,0,1,8.3,3.79h0a6.45,6.45,0,0,1-3.78,8.3L327.3,565.65l-14.54-1.46Z" transform="translate(-120.94 -37.37)" fill="#be8b87"/><path d="M396.86,530h0a6.46,6.46,0,0,1-3.78,8.31l-67.83,25.34-10.91-1.1-1.58,1.67,14.54,1.46,67.83-25.34a6.45,6.45,0,0,0,3.78-8.3h0a6.43,6.43,0,0,0-2.64-3.23A6.28,6.28,0,0,1,396.86,530Z" transform="translate(-120.94 -37.37)" fill="#fff" opacity="0.1"/><polygon points="201.85 516.19 206.37 528.28 194.44 527.08 191.83 526.82 195.39 523.04 201.85 516.19" fill="#efc8c4"/><path d="M316.33,560.41a2.62,2.62,0,0,1,.69.76,1.09,1.09,0,0,1,0,1.18,2.77,2.77,0,0,1-.65.47,2.18,2.18,0,0,0-1,1.63l-2.61-.26Z" transform="translate(-120.94 -37.37)" fill="#727a9c"/><g opacity="0.5"><rect x="743.74" y="497.39" width="22.26" height="72.8" transform="matrix(0.97, -0.25, 0.25, 0.97, -231.15, 170.25)" fill="url(#6f2fad38-51e9-4777-a827-714473c680e6)"/></g><rect x="744.46" y="497.83" width="21.16" height="71.82" transform="matrix(0.97, -0.25, 0.25, 0.97, -231.14, 170.3)" fill="#f9fafb"/><rect x="740.7" y="499.86" width="14.96" height="14.96" transform="matrix(0.97, -0.25, 0.25, 0.97, -224.7, 167.71)" fill="#f7b643"/><rect x="745.26" y="517.34" width="14.96" height="14.96" transform="translate(-228.96 169.43) rotate(-14.61)" fill="#f7b643" opacity="0.5"/><rect x="749.81" y="534.82" width="14.96" height="14.96" transform="translate(-233.22 171.14) rotate(-14.61)" fill="#f7b643" opacity="0.3"/><g opacity="0.5"><rect x="733.94" y="505.99" width="22.26" height="72.53" transform="translate(-296.02 455.16) rotate(-32.95)" fill="url(#b1328fb4-c058-4868-b663-27c7261be430)"/></g><rect x="734.64" y="506.37" width="21.16" height="71.55" transform="translate(-295.95 455.23) rotate(-32.95)" fill="#f9fafb"/><rect x="722.99" y="511.89" width="14.96" height="14.96" transform="translate(-285.93 443.54) rotate(-32.95)" fill="#f97878"/><rect x="732.82" y="527.04" width="14.96" height="14.96" transform="translate(-292.59 451.32) rotate(-32.95)" fill="#f97878" opacity="0.5"/><rect x="742.64" y="542.2" width="14.96" height="14.96" transform="translate(-299.25 459.1) rotate(-32.95)" fill="#f97878" opacity="0.3"/><g opacity="0.5"><rect x="729.72" y="511.36" width="22.26" height="72.53" transform="translate(-292 641.29) rotate(-44.65)" fill="url(#24ee94f9-53b4-4fdf-9139-6d51ea6a4e54)"/></g><rect x="730.4" y="511.72" width="21.16" height="71.55" transform="translate(-291.87 641.34) rotate(-44.65)" fill="#f9fafb"/><rect x="714.43" y="520.71" width="14.96" height="14.96" transform="translate(-283.8 622.37) rotate(-44.65)" fill="#73b53b"/><rect x="727.12" y="533.56" width="14.96" height="14.96" transform="translate(-289.17 634.99) rotate(-44.65)" fill="#73b53b" opacity="0.5"/><rect x="739.81" y="546.4" width="14.96" height="14.96" transform="translate(-294.54 647.62) rotate(-44.65)" fill="#73b53b" opacity="0.3"/><g opacity="0.5"><rect x="727.72" y="516.22" width="22.26" height="72.53" transform="translate(-272.95 754.88) rotate(-51.85)" fill="url(#ccc7dbde-9e07-4ef0-9a11-0f6ab25eb6ca)"/></g><rect x="728.38" y="516.56" width="21.16" height="71.55" transform="translate(-272.8 754.91) rotate(-51.85)" fill="#fff"/><rect x="710.14" y="528.09" width="14.96" height="14.96" transform="translate(-267.77 731.72) rotate(-51.85)" fill="#3AADAA"/><rect x="724.34" y="539.25" width="14.96" height="14.96" transform="translate(-271.12 747.15) rotate(-51.85)" fill="#3AADAA" opacity="0.5"/><rect x="738.55" y="550.41" width="14.96" height="14.96" transform="translate(-274.46 762.58) rotate(-51.85)" fill="#3AADAA" opacity="0.3"/><path d="M945.29,598.62a15.44,15.44,0,1,0,7.53,20.51A15.45,15.45,0,0,0,945.29,598.62Zm-10.51,22.7a9.57,9.57,0,1,1,12.7-4.66A9.56,9.56,0,0,1,934.78,621.32Z" transform="translate(-120.94 -37.37)" fill="#f0cbc6"/><path d="M926.19,559l-28.73,20.21a14.07,14.07,0,0,0-6.07,11.51c0,7.26,3.31,18.16,19.15,28a14.33,14.33,0,0,0,15.51-.25l28-18.73Z" transform="translate(-120.94 -37.37)" fill="#f0cbc6"/><path d="M957.94,598.26c-4.61,3.83-15.54-1.78-24.43-12.52s-12.37-22.53-7.76-26.35,15.56,1.79,24.45,12.52c.56.69,1.12,1.38,1.63,2.07l.58.79a41.19,41.19,0,0,1,7.12,14.43c.1.48.2.95.26,1.41C960.32,594,959.76,596.77,957.94,598.26Z" transform="translate(-120.94 -37.37)" fill="#f0cbc6"/><ellipse cx="941.85" cy="578.83" rx="8.76" ry="20.41" transform="translate(-273.68 696.36) rotate(-39.63)" fill="#f9fafb"/><path d="M955.79,593.41c-.07.13-.15.25-.22.37a4,4,0,0,1-.71.76c-2.27,1.89-6.45.94-11-2l-.47-.32a37.18,37.18,0,0,1-4.24-3.42,45.86,45.86,0,0,1-4.06-4.33c-.87-1-1.66-2.09-2.39-3.14a39.16,39.16,0,0,1-2.85-4.74,1.62,1.62,0,0,1-.1-.18c-3-5.89-3.51-11.12-.93-13.25,3.73-3.09,12.58,1.45,19.77,10.13.86,1,1.66,2.09,2.38,3.15.16.21.31.43.45.65C955.86,583.66,957.62,590.15,955.79,593.41Z" transform="translate(-120.94 -37.37)" opacity="0.1"/><path d="M959.53,589.2a6.41,6.41,0,0,1-3.28,3.08l-.46.16a5.11,5.11,0,0,1-1,.2,8.33,8.33,0,0,1-3.51-.41c-4.72-1.49-6.9-1.46-7.89-1a37.18,37.18,0,0,1-4.24-3.42,45.86,45.86,0,0,1-4.06-4.33c-.87-1-1.66-2.09-2.39-3.14a39.16,39.16,0,0,1-2.85-4.74c4.77,1.9,14.07,5.26,17.2,3.83a9.78,9.78,0,0,0,3.6-3.48v0l.31-.48.13-.21c.25-.41.5-.81.72-1.23C955.85,579.3,958.52,584.72,959.53,589.2Z" transform="translate(-120.94 -37.37)" opacity="0.1"/><path d="M959.79,590.61a6.46,6.46,0,0,1-4,3.77,5,5,0,0,1-1,.2h0a8.33,8.33,0,0,1-3.51-.41c-3.41-1.07-5.5-1.36-6.76-1.27a3.3,3.3,0,0,0-1.13.24,37.18,37.18,0,0,1-4.24-3.42,45.86,45.86,0,0,1-4.06-4.33c-.87-1-1.66-2.09-2.39-3.14a38.4,38.4,0,0,1-2.85-4.74c.21.09.42.18.66.26,4.93,1.94,13.55,4.93,16.54,3.58a9.83,9.83,0,0,0,3.61-3.51l.31-.48.13-.21a3.21,3.21,0,0,0,.19-.31,23,23,0,0,0,1.11-2.07,41.19,41.19,0,0,1,7.12,14.43C959.63,589.68,959.73,590.15,959.79,590.61Z" transform="translate(-120.94 -37.37)" opacity="0.1"/><path d="M971.21,559.33a14.17,14.17,0,0,1-3.7,2.12,12,12,0,0,0-7.12,13.64l.06.25c1.63,6.87.92,16.47-4.66,18.07a5.11,5.11,0,0,1-1,.2,8.33,8.33,0,0,1-3.51-.41c-4.72-1.49-6.9-1.46-7.89-1a37.18,37.18,0,0,1-4.24-3.42,45.86,45.86,0,0,1-4.06-4.33c-.87-1-1.66-2.09-2.39-3.14a39.16,39.16,0,0,1-2.85-4.74c4.77,1.9,14.07,5.26,17.2,3.84a9.83,9.83,0,0,0,3.61-3.51l.31-.48.13-.21A24.19,24.19,0,0,0,954.67,565c.37-5.4,2.76-14.78,15.16-11.84A3.51,3.51,0,0,1,971.21,559.33Z" transform="translate(-120.94 -37.37)" fill="#59393c"/><path d="M826.7,820.3s-42.28-2.55-37.29,27.08c0,0-1,5.23,3.75,7.61,0,0,.08-2.2,4.34-1.45a19.36,19.36,0,0,0,4.59.22,9.5,9.5,0,0,0,5.62-2.32h0s11.88-4.91,16.51-24.33c0,0,3.41-4.24,3.28-5.33l-7.14,3.05s2.44,5.15.52,9.42c0,0-.23-9.23-1.6-9-.28,0-3.71,1.79-3.71,1.79s4.2,9,1,15.48c0,0,1.21-11-2.34-14.83l-5,2.93s4.9,9.26,1.58,16.81c0,0,.85-11.58-2.63-16.1l-4.55,3.55s4.6,9.13,1.79,15.39c0,0-.36-13.49-2.78-14.51,0,0-4,3.51-4.59,5,0,0,3.16,6.62,1.2,10.12,0,0-1.2-9-2.19-9,0,0-4,6-4.37,10,0,0,.17-6.08,3.41-10.61a11.89,11.89,0,0,0-6.07,3.14s.62-4.21,7.05-4.57c0,0,3.28-4.52,4.16-4.8,0,0-6.4-.53-10.28,1.19,0,0,3.41-4,11.45-2.17l4.49-3.67s-8.42-1.15-12,.13c0,0,4.12-3.52,13.21-1l4.9-2.92s-7.19-1.55-11.47-1c0,0,4.52-2.44,12.9.2l3.5-1.57s-5.27-1-6.81-1.2-1.62-.59-1.62-.59a18.26,18.26,0,0,1,9.89,1.1S826.83,820.77,826.7,820.3Z" transform="translate(-120.94 -37.37)" fill="#3AADAA"/><ellipse cx="676.64" cy="820.2" rx="29.92" ry="5.06" fill="#3AADAA" opacity="0.1"/><path d="M907.8,742.24s-23.83-1.44-21,15.26a4.07,4.07,0,0,0,2.12,4.29s0-1.23,2.44-.81a11.13,11.13,0,0,0,2.59.12,5.41,5.41,0,0,0,3.17-1.31h0s6.7-2.76,9.3-13.72c0,0,1.93-2.38,1.85-3l-4,1.72s1.37,2.9.29,5.31c0,0-.13-5.21-.9-5.08-.16,0-2.09,1-2.09,1s2.37,5.06.58,8.73c0,0,.68-6.23-1.32-8.36L898,748s2.76,5.22.89,9.48c0,0,.48-6.53-1.48-9.08l-2.57,2s2.6,5.14,1,8.67c0,0-.2-7.6-1.57-8.18a15.45,15.45,0,0,0-2.58,2.8s1.77,3.73.67,5.7c0,0-.67-5.07-1.23-5.09,0,0-2.24,3.36-2.47,5.66a12.24,12.24,0,0,1,1.93-6,6.77,6.77,0,0,0-3.43,1.77s.35-2.37,4-2.58c0,0,1.85-2.55,2.34-2.7,0,0-3.61-.3-5.79.67,0,0,1.92-2.24,6.45-1.22l2.54-2.07s-4.75-.65-6.77.07c0,0,2.32-2,7.45-.54l2.76-1.65a25.22,25.22,0,0,0-6.47-.56s2.55-1.37,7.28.12l2-.89s-3-.58-3.84-.67-.91-.34-.91-.34a10.28,10.28,0,0,1,5.57.62S907.88,742.5,907.8,742.24Z" transform="translate(-120.94 -37.37)" fill="#3AADAA"/><ellipse cx="770.45" cy="725.88" rx="16.87" ry="2.85" fill="#3AADAA" opacity="0.1"/><path d="M767.11,756.73s-28.77-1.74-25.38,18.43a4.92,4.92,0,0,0,2.56,5.18s.05-1.49,3-1a13.6,13.6,0,0,0,3.12.15,6.61,6.61,0,0,0,3.83-1.58h0s8.09-3.34,11.23-16.57c0,0,2.33-2.88,2.24-3.62l-4.86,2.07s1.66,3.51.35,6.42c0,0-.15-6.29-1.09-6.14-.19,0-2.52,1.21-2.52,1.21s2.86,6.11.7,10.54c0,0,.82-7.52-1.59-10.1l-3.42,2s3.34,6.3,1.07,11.45c0,0,.58-7.89-1.79-11l-3.1,2.41s3.14,6.21,1.23,10.48c0,0-.25-9.18-1.9-9.88,0,0-2.71,2.39-3.12,3.38,0,0,2.15,4.5.81,6.89,0,0-.81-6.12-1.48-6.15,0,0-2.7,4-3,6.83a14.71,14.71,0,0,1,2.32-7.22,8.13,8.13,0,0,0-4.13,2.14s.42-2.87,4.8-3.12c0,0,2.23-3.07,2.83-3.26,0,0-4.36-.36-7,.81,0,0,2.32-2.71,7.8-1.48l3.06-2.49s-5.74-.79-8.17.08c0,0,2.8-2.39,9-.65l3.33-2s-4.89-1-7.81-.67c0,0,3.08-1.66,8.78.14l2.39-1.07s-3.59-.71-4.64-.82-1.1-.4-1.1-.4a12.43,12.43,0,0,1,6.73.75S767.2,757.05,767.11,756.73Z" transform="translate(-120.94 -37.37)" fill="#3AADAA"/><ellipse cx="626.36" cy="744.73" rx="20.37" ry="3.44" fill="#3AADAA" opacity="0.1"/><path d="M707,331.29s1.56-4.67-.62-7.09l-4.52-5-23-33.36s-5.6-6.64-4.67-10.56-5.29-8.15-5.29-8.15,3.38-4.19,1.4-6.69-5.14-6.34-5.14-7.7-11.95-19-27.52-23.3l.48-.35a24.66,24.66,0,0,0-2.73-.45c-11.27-1.24-16.6-1.88-26.29-6l-.52.55-1.34-.55c-2.73-1.16-5.8-2.58-9.44-4.37s-7.55-3.78-12.32-6.26a32.84,32.84,0,0,1-6-11.09c-.17-.5-.32-1-.46-1.55a34.22,34.22,0,0,0,17.42-29.63,33.45,33.45,0,0,0-4.58-16.93c-.19-.33-.41-.64-.61-1,.07-.08.14-.15.2-.23a7.91,7.91,0,0,0,.56-.86,13.75,13.75,0,0,0,.83-1.88c.12-.32.23-.64.34-1,.45-1.31.9-2.62,1.36-3.93l1.35-3.93a26.1,26.1,0,0,0,1.65-7.38,9.56,9.56,0,0,0-.38-3.16,8.1,8.1,0,0,0-.62-1.46,7.42,7.42,0,0,0-.44-.7c-2.28-3.22-7.17-4.57-8.22-8.34a7,7,0,0,1-.21-1.83c0-.66,0-1.33,0-2,0-.16,0-.32,0-.49s0-.2,0-.3a5.42,5.42,0,0,0-.08-.81,6.41,6.41,0,0,0-.21-.89c0-.07,0-.14-.07-.2a7.11,7.11,0,0,0-.34-.8v0a6.59,6.59,0,0,0-.49-.8.76.76,0,0,0-.08-.11,13.12,13.12,0,0,0-6.89-4.4,27.14,27.14,0,0,0-18.62,1.2,6.07,6.07,0,0,1-2.62.78c-1.48,0-2.62-1.22-3.9-1.94-4.12-2.33-9.28.14-13.24,2.72a20.3,20.3,0,0,0-5.27,4.42c-1.3,1.72-2,3.78-3.23,5.56-3.8,5.65-11.38,7.47-16.87,11.61-5.94,4.48-9.25,11.69-10.07,18.94s.65,14.59,2.86,21.57a24.13,24.13,0,0,0,.83,2.29c-.85,9.63,3.14,21.89,3.71,24,.94,3.47-11.2,14.49-11.2,14.49L464.52,244.3s-.15-.93-4.94-.59-13.77,11.21-13.77,11.21l.72.06c-.46.53-.72.85-.72.85l1.95.16c-5.8,5-12.64,11-16.19,14.51-1,.94-1.8,1.75-2.38,2.38-5,5.43-1.71,20.38-1.71,20.38s-.78,9.2,13.7,10.41c0,0,16.81,3.32,25.06,0s23.92-4.15,23.92-4.15-6.41,21.51-6,27.85-4.28,28.87-4.28,28.87l-14.32,75.27s-13.4,26.16,27,30l0,.7,0,.52s1,.15,2.57.32c-.07.86-.14,1.76-.21,2.69-.52,6.6-1.08,14.54-.81,15.4a7.1,7.1,0,0,0,2.5,2.87l1.56,13.28s1.55,11.44,3,14.78,5,12.24,4.36,15.11,2.33,12.37,2.33,12.37,1.4,9.21,1.87,11.47,0,24.75,0,24.75a42.85,42.85,0,0,0,9.19,3.3c.09.36.18.74.28,1.12,1.47,6,3.53,14.32,4.66,18.65,1.86,7.24,5.91,19.92,5.91,19.92s.46,16.46,3.26,19.63,2.18,34.26,14,53.27c8.49,13.65,18.9,39.49,24.1,53-.19,6.1-.48,12.76-.9,18.45a13.24,13.24,0,0,0-3.24,5.86c-1.4,6.79-10.11,18.25-10.11,18.25s-8.87,7.4-12.61,8.46a6.62,6.62,0,0,0-1.88,1c-3.84,2.73-8.35,9.93.79,12.76,3.5,1.08,8.49,1,13.91.19a17.77,17.77,0,0,0,0,2.83s-4.67,11.47-6.7,15.85c-.74,1.6-2.4,3.9-3.87,6.33-2.58,4.26-4.57,8.91,0,10.88,1.4.6,25.53-.45,33.62,2.11s13.85-5.89,13.85-5.89.62-8.6,2.49-12.22c1.06-2.07.31-6.61-.53-10.15v0c-.65-2.68-1.34-4.78-1.34-4.78a144.82,144.82,0,0,1-2-21.81l11.91-8.68a10.72,10.72,0,0,0,4.18-11.25l-.4-1.59c-1.85-7.26-4.75-17.21-7.82-22a20.69,20.69,0,0,1,2-5.11c3.73-5.43,10.59-39.09,12.3-44.23a50.83,50.83,0,0,0,1.24-5.42c2.15-10.6,5.41-36.4.12-48.34L613.43,617s-1.55-22.33.16-30.93a144.83,144.83,0,0,0,1.78-16.81c0-.14,0-.27,0-.4l16.13.79V494.3l1.41-26.46.14-2.68h0a17,17,0,0,0,2.18.6c3.06-1.95,3.83-6.7,3.69-11.57a48.58,48.58,0,0,0-.54-7.8,18.93,18.93,0,0,0,5.21-9.16l33.77-30.52.14-.27c.76-1.53,4.59-9.25,6.06-13.32,1.35-3.76.46-24,.11-30.72,2.21.19,4.89.4,7.44.53,3.88.21,7.43.23,8.55-.25,2.81-1.21,6.38-9.67,9.18-14.79S707,331.29,707,331.29ZM530.36,213s.79-7.51.88-16.78l5-1.66c.76.71,1.54,1.39,2.36,2q.2,1,.36,2.1c.87,5.64,1.23,12.31-.2,18.32-.24.17-6.85,4.64-8.46,9.42-.85,2.55-3.45,3.64-5.75,4.11a17.93,17.93,0,0,1-3.94.31s-2.44.4-6.13,1Zm33.28,360.41c-.21-.57-.39-1.08-.56-1.53l.43-.26v-3.47h0C563.55,569.5,563.58,571.31,563.64,573.37Z" transform="translate(-120.94 -37.37)" fill="url(#a60ac96b-019a-4131-9cc6-498566604ece)"/><path d="M619.47,239.77s-16.87,21.54-30.38,38.52c-8.71,10.93-16,20-16.55,20.15a8.59,8.59,0,0,1-1.64-.08c-6.8-.6-32.63-4.2-44.38-5.86l-5.88-.83s.37-10.16,1.93-22.48c1.85-14.78,5.42-32.66,12.06-39.8a20.3,20.3,0,0,0,4.27-7.27c2.36-6.7,2-14.7,1.06-21.29a80.26,80.26,0,0,0-3.07-13s42.87-25.27,40.61-2.25a43.78,43.78,0,0,0,1.57,17.53c3.24,10.42,9.72,15,9.72,15l.18.13Z" transform="translate(-120.94 -37.37)" fill="#ffb9b9"/><path d="M579.07,203.15A34.32,34.32,0,0,1,540,200.83a80.26,80.26,0,0,0-3.07-13s42.87-25.27,40.61-2.25A43.78,43.78,0,0,0,579.07,203.15Z" transform="translate(-120.94 -37.37)" opacity="0.1"/><path d="M595.46,172.08A34.27,34.27,0,1,1,591,155.2,34.3,34.3,0,0,1,595.46,172.08Z" transform="translate(-120.94 -37.37)" fill="#ffb9b9"/><path d="M591,155.2a5.7,5.7,0,0,1-.39.61c-2.26,3.07-6.64,3.57-10.44,3.25-4.49-.39-9.46-2-11.38-6.06-1.77-3.76-1.28-7.79-6.15-8.35-4.22-.49-9.88-3.44-14-1.75-3.25,1.35-4.55,5.29-4.85,8.81s0,7.25-1.64,10.38c-1.55,2.95-4.57,4.91-6.14,7.85-1.76,3.32-1.39,7.32-.93,11.06s.93,7.7-.7,11.09a7.25,7.25,0,0,1-.48.86A34.3,34.3,0,1,1,591,155.2Z" transform="translate(-120.94 -37.37)" opacity="0.1"/><path d="M568.82,151.2c1.92,4.07,6.89,5.67,11.38,6.05,3.8.33,8.18-.17,10.44-3.25a13.11,13.11,0,0,0,1.67-3.69l2.62-7.84c1.38-4.15,2.68-9,.21-12.65-2.21-3.21-6.94-4.55-7.95-8.32-.47-1.75,0-3.62-.25-5.41-.58-3.69-4.25-6.09-7.82-7.19a25.42,25.42,0,0,0-18,1.2,5.82,5.82,0,0,1-2.53.77c-1.43,0-2.53-1.21-3.77-1.93-4-2.32-9,.14-12.79,2.71a19.65,19.65,0,0,0-5.1,4.41c-1.25,1.71-2,3.76-3.12,5.54-3.68,5.63-11,7.44-16.3,11.57-5.75,4.46-8.95,11.64-9.73,18.87s.62,14.54,2.75,21.5a15.32,15.32,0,0,0,1.65,3.91c2.16,3.28,6.46,4.68,8.56,8,1.69,2.67,1.85,6.41,4.42,8.26,3.05,2.19,7.65,0,9.27-3.43s1.16-7.37.7-11.1-.83-7.74.93-11.06c1.56-2.94,4.6-4.9,6.14-7.85,1.63-3.13,1.35-6.86,1.64-10.38s1.6-7.45,4.86-8.8c4.09-1.7,9.75,1.26,14,1.74C567.54,143.41,567.05,147.43,568.82,151.2Z" transform="translate(-120.94 -37.37)" fill="#b96b6b"/><g opacity="0.1"><path d="M518.94,180.94c-2.11-3.32-6.41-4.72-8.57-8a.59.59,0,0,1,0-.08c.06.23.13.46.2.69a15.32,15.32,0,0,0,1.65,3.91c2.16,3.28,6.46,4.68,8.56,8,.12.19.24.39.35.6A35,35,0,0,0,518.94,180.94Z" transform="translate(-120.94 -37.37)"/><path d="M585.39,117a6.18,6.18,0,0,0,1.59,2.69,23.89,23.89,0,0,0,0-3.59,6.94,6.94,0,0,0-1.72-3.53A18.69,18.69,0,0,0,585.39,117Z" transform="translate(-120.94 -37.37)"/><path d="M560.87,138.33c-4.22-.48-9.89-3.44-14-1.74-3.26,1.35-4.56,5.28-4.85,8.8s0,7.25-1.65,10.38c-1.54,2.95-4.57,4.91-6.13,7.85-1.77,3.32-1.39,7.32-.93,11.06s.92,7.7-.7,11.1-6.23,5.62-9.28,3.43a6.2,6.2,0,0,1-1.79-2.15c1,2.41,1.51,5.16,3.6,6.66,3.05,2.19,7.65,0,9.27-3.43s1.16-7.37.7-11.1-.83-7.74.93-11.06c1.56-2.94,4.6-4.9,6.14-7.85,1.63-3.13,1.35-6.86,1.64-10.38s1.6-7.45,4.86-8.8c4.09-1.7,9.75,1.26,14,1.74a4.79,4.79,0,0,1,3.58,1.86C565.25,141.61,564.88,138.8,560.87,138.33Z" transform="translate(-120.94 -37.37)"/><path d="M595.14,129.82c-.15-.21-.3-.41-.46-.6.26,2.84-.63,5.95-1.56,8.74l-2.61,7.84a12.86,12.86,0,0,1-1.68,3.69c-2.25,3.07-6.64,3.57-10.44,3.25-4.1-.35-8.61-1.72-10.81-5.08a26.31,26.31,0,0,0,1.24,3.54c1.92,4.07,6.89,5.67,11.38,6.05,3.8.33,8.18-.17,10.44-3.25a13.11,13.11,0,0,0,1.67-3.69c.87-2.61,1.75-5.22,2.62-7.84C596.31,138.32,597.61,133.43,595.14,129.82Z" transform="translate(-120.94 -37.37)"/></g><rect x="515.98" y="151.05" width="22.6" height="47.75" rx="4.67" ry="4.67" transform="translate(-149.18 141.58) rotate(-18.77)" fill="#464a5f"/><rect x="515.17" y="151.05" width="22.6" height="47.75" rx="4.67" ry="4.67" transform="translate(-149.22 141.32) rotate(-18.77)" fill="#9c9ca1"/><circle cx="401.98" cy="128.28" r="3.55" fill="#939498"/><path d="M520.49,575.22s4.36,18.35,6.17,25.57,5.72,19.86,5.72,19.86.45,16.39,3.15,19.55,2.11,34.15,13.54,53.1,26.48,61.53,26.48,61.53l2,14.44,19.26-22.41-16-82s-9.32-33.24-6.47-43.62-11.88-50.69-11.88-50.69Z" transform="translate(-120.94 -37.37)" fill="#ffb9b9"/><path d="M596.76,746.85,577.5,769.27l-2-14.44s-15-42.57-26.48-61.53-10.83-49.93-13.54-53.09-3.15-19.56-3.15-19.56-3.91-12.64-5.72-19.86c-1.08-4.31-3.07-12.62-4.5-18.58-1-4-1.67-7-1.67-7l42-4.66s.47,1.27,1.21,3.42c3.47,9.95,13,38.73,10.67,47.27-2.86,10.38,6.48,43.62,6.48,43.62Z" transform="translate(-120.94 -37.37)" opacity="0.05"/><path d="M603.2,784.31l-16.82,12.63c-8.13,8.73-32,15.95-42.42,12.64-8.84-2.82-4.48-10-.76-12.72a6.17,6.17,0,0,1,1.81-1c3.61-1.06,12.19-8.43,12.19-8.43s8.42-11.43,9.77-18.2,11-12.34,11-12.34,12.93-12.63,18.8-10.08c3.83,1.68,7.79,15.37,10.09,24.66l.38,1.59A10.85,10.85,0,0,1,603.2,784.31Z" transform="translate(-120.94 -37.37)" fill="#c7c0d9"/><path d="M603.2,784.31l-16.82,12.63c-8.13,8.73-32,15.95-42.42,12.64-8.84-2.82-4.48-10-.76-12.72,3.59,5.61,16.7,4.6,16.7,4.6l23.32-10.38,23.63-19.57.38,1.59A10.85,10.85,0,0,1,603.2,784.31Z" transform="translate(-120.94 -37.37)" opacity="0.1"/><path d="M576.86,753.75s-15-42.58-26.47-61.53-10.83-49.94-13.54-53.1-3.16-19.55-3.16-19.55-3.91-12.64-5.71-19.86c-1.09-4.32-3.08-12.62-4.51-18.58-1-4-1.67-7-1.67-7l39.37-4.38-.11-.29-42,4.67s.7,3,1.67,7c1.42,6,3.42,14.26,4.5,18.58,1.8,7.22,5.71,19.86,5.71,19.86s.45,16.39,3.16,19.55,2.1,34.15,13.54,53.1,26.47,61.53,26.47,61.53l2,14.44,2.34-2.72Z" transform="translate(-120.94 -37.37)" opacity="0.05"/><rect x="508.46" y="268.22" width="46.93" height="54.21" fill="#caa8b1"/><path d="M679.72,394.67c-1.42,4.05-5.12,11.74-5.86,13.26-.08.19-.13.28-.13.28L640,439.61l-.81.75-.21-.69c-1.78-6-14.47-48.55-16-50.87-1.22-1.83-.63-9.34-.25-13.12.14-1.34.25-2.2.25-2.2L622,344l5-9.6,46.31,14.66,6.49,12.75S681.3,390.15,679.72,394.67Z" transform="translate(-120.94 -37.37)" fill="#caa8b1"/><path d="M673.86,407.93c-.08.19-.13.28-.13.28L640,439.61l-1,.06-11.52.69-8.36-67.81s1.37,1.25,3.65,3.13c6.64,5.47,21,16.32,32,17.75C665.59,394.84,671.48,403.42,673.86,407.93Z" transform="translate(-120.94 -37.37)" fill="none"/><path d="M673.86,407.93c-.08.19-.13.28-.13.28L640,439.61l-1,.06-11.52.69-8.36-67.81s1.37,1.25,3.65,3.13c6.64,5.47,21,16.32,32,17.75C665.59,394.84,671.48,403.42,673.86,407.93Z" transform="translate(-120.94 -37.37)" opacity="0.1"/><path d="M677.35,390.84s-7-.68-10-3.44-10.72-7.17-10.72-7.17l10.94,12.07S675.88,395,677.35,390.84Z" transform="translate(-120.94 -37.37)" opacity="0.1"/><path d="M650.05,398.51s.67,12.29,8.12,12.41S650.05,398.51,650.05,398.51Z" transform="translate(-120.94 -37.37)" opacity="0.1"/><path d="M657.72,398.51s5.64,10.26,8.35,8.91S657.72,398.51,657.72,398.51Z" transform="translate(-120.94 -37.37)" opacity="0.1"/><path d="M500.64,298.46l-7.87,2.91s-15.15.83-23.12,4.14-24.22,0-24.22,0,28.28-36.86,28.73-37,29.94-11,29.94-11Z" transform="translate(-120.94 -37.37)" fill="#cbcdda"/><path d="M500.64,298.46l-7.87,2.91s-15.15.83-23.12,4.14-24.22,0-24.22,0,28.28-36.86,28.73-37,29.94-11,29.94-11Z" transform="translate(-120.94 -37.37)" opacity="0.03"/><path d="M613.15,700.37c-1.65,5.12-8.27,38.67-11.88,44.08S593.45,781,593.45,781l-.81.57-1.75,1.23S565,781.6,568,776.94a13.56,13.56,0,0,0,1.13-4.36c2-12.66,2.18-46.33,2.18-46.33l.3-53.41s6.8-17.23,2.1-29.93a66.4,66.4,0,0,1-4.21-23.46s.75-12.34-2.56-17.3c-2.68-4-3.19-25.28-3.28-33.1,0-1.81,0-2.9,0-2.9l4.2-6.27,46,3.16s-.1,3.71-.38,8.52a144.26,144.26,0,0,1-1.72,16.75c-1.65,8.57-.15,30.83-.15,30.83l2.56,29C620.22,662.17,614.81,695.26,613.15,700.37Z" transform="translate(-120.94 -37.37)" fill="#ffb9b9"/><path d="M563.67,574v.34c-16.56,10.56-31.84,10-41.51,7.89-1-4-1.67-7-1.67-7l42-4.66S562.93,571.83,563.67,574Z" transform="translate(-120.94 -37.37)" opacity="0.05"/><path d="M631.36,457.44l-.61,11.68-1.35,26.37-65.73,10.69v66.34c-27.84,17.74-52,4.2-52,4.2s.45-22.41,0-24.67-1.81-11.43-1.81-11.43-2.86-9.48-2.25-12.33-2.87-11.73-4.22-15-2.85-14.73-2.85-14.73L499,485.27a7,7,0,0,1-2.41-2.87c-.26-.85.28-8.76.78-15.34.38-4.88.73-9,.73-9l61.37-11.58Z" transform="translate(-120.94 -37.37)" fill="#4c4c78"/><path d="M561.67,514.19v52c-1.23-.72-2.94-2.51-3.11-6.88-.27-6.92-.82-23.31-1.8-30.68s3.74-15.35,3.74-15.35Z" transform="translate(-120.94 -37.37)" opacity="0.05"/><path d="M524.1,493.09s3,6.77,12.79,8.57S524.1,493.09,524.1,493.09Z" transform="translate(-120.94 -37.37)" opacity="0.1"/><path d="M514.63,506.63s20.75,3.46,25.72,3.31" transform="translate(-120.94 -37.37)" opacity="0.1"/><path d="M520.94,521.82s11.69.15,18.41-2.86" transform="translate(-120.94 -37.37)" opacity="0.1"/><path d="M518.54,557.17s30.08-11.48,33.69-17.48" transform="translate(-120.94 -37.37)" opacity="0.1"/><path d="M525.61,571.91c1-.15,27.52-16.1,29.78-20.31" transform="translate(-120.94 -37.37)" opacity="0.1"/><path d="M613.9,563s-.1,3.71-.38,8.52l-49.83-2.51h0v-2.9l4.2-6.27Z" transform="translate(-120.94 -37.37)" opacity="0.1"/><path d="M573.17,503.46s25.36-6.26,30.7-2.23S573.17,503.46,573.17,503.46Z" transform="translate(-120.94 -37.37)" opacity="0.1"/><path d="M547.87,459.09s5.11,47.84,9.33,51,22.11-51,22.11-51Z" transform="translate(-120.94 -37.37)" opacity="0.1"/><path d="M548.77,457.29s5.12,47.84,9.33,51,22.11-51,22.11-51Z" transform="translate(-120.94 -37.37)" fill="#4c4c78"/><path d="M631.36,457.44l-.61,11.68a43,43,0,0,1-12.93-7.47,5.53,5.53,0,0,0-.63-.48c-5.13-3.67-11.84-2.32-16.22-.77a31.71,31.71,0,0,0-4.51,2s-66.49,2.26-66.49.45c0-1.33-9.41.7-15.74,2.45a47.37,47.37,0,0,0-5,1.61h0c-2.4,1-8.27.56-11.65.17l-.21,0c.38-4.88.73-9,.73-9l61.37-11.58Z" transform="translate(-120.94 -37.37)" opacity="0.1"/><path d="M633,465.26a17.09,17.09,0,0,1-2.11-.61,42.53,42.53,0,0,1-13.08-7.52c-.21-.17-.41-.33-.63-.48-5.13-3.66-11.84-2.32-16.22-.76a30.4,30.4,0,0,0-4.51,2s-66.49,2.26-66.49.45c0-1.33-9.41.7-15.74,2.45a50.51,50.51,0,0,0-5,1.6h0c-2.4,1-8.27.56-11.65.18-1.48-.18-2.49-.33-2.49-.33l0-.51,3.29-83.43,9.47-74.3,3.47-31.14,11.25-5.48,11.31-5.51a29.44,29.44,0,0,0,4.32,4.8c5.75,5.21,16.94,11.71,31.88,2.92a45.82,45.82,0,0,0,4.72-3.2c5.1-3.93,9.89.51,14.29,10.09C606.28,313.8,617.51,429,617.51,429l17,11s.58,2.17,1.14,5.26C636.79,451.67,637.79,462.11,633,465.26Z" transform="translate(-120.94 -37.37)" opacity="0.1"/><path d="M633,467.06a15.71,15.71,0,0,1-2.11-.6,43,43,0,0,1-13.08-7.52,7,7,0,0,0-.63-.48c-5.13-3.66-11.84-2.32-16.22-.77a31,31,0,0,0-4.51,2S530,462,530,460.15c0-1.34-9.41.69-15.74,2.44a49.89,49.89,0,0,0-5,1.61h0c-2.4,1-8.27.56-11.65.17-1.48-.17-2.49-.32-2.49-.32l0-.52,3.29-83.42,9.47-74.31,3.47-31.14,11.25-5.48,11.31-5.5a29.17,29.17,0,0,0,4.32,4.79c5.75,5.22,16.94,11.72,31.88,2.93a46,46,0,0,0,4.72-3.21c5.1-3.93,9.89.52,14.29,10.09,17.19,37.31,28.42,152.52,28.42,152.52l17,11s.58,2.17,1.14,5.25C636.79,453.48,637.79,463.91,633,467.06Z" transform="translate(-120.94 -37.37)" fill="#fff"/><path d="M635.66,447c-4.42,5.59-11.76,9.18-18.47,11.42A80.79,80.79,0,0,1,602,462L601,457.69c-2.45-9.83-8.63-34-12.18-43-4.52-11.42-5.73-24.66-5.73-24.66a129.17,129.17,0,0,0-6.68-35.5c-2.91-8.46-4.55-32.47-5.48-56.19-.37-9.35-.63-18.66-.82-26.95-.37-17.07-.4-29.83-.4-29.83l5.41-8.58a17.6,17.6,0,0,1,2.45-11,28.31,28.31,0,0,1,5.52-6.91c2.12,1.13,4.07,2.18,5.91,3.14l30.5,21.53s-16.87,21.54-30.38,38.52c17.19,37.31,28.42,152.52,28.42,152.52l17,11S635.1,444,635.66,447Z" transform="translate(-120.94 -37.37)" opacity="0.1"/><path d="M631.21,389.75c-.91,17.44,10.22,46.62,10.22,46.62-1.8,20.76-37.6,24.68-37.6,24.68s-8.73-35.8-13.24-47.24-5.72-24.67-5.72-24.67a129.33,129.33,0,0,0-6.69-35.49c-6.4-18.66-6.7-113-6.7-113l5.42-8.57a17.6,17.6,0,0,1,2.44-11,28.47,28.47,0,0,1,5.53-6.91c4.61,2.47,8.52,4.52,11.91,6.24s6.49,3.2,9.13,4.36c9.36,4.08,14.51,4.71,25.4,5.95a21.09,21.09,0,0,1,2.64.45c15.69,3.59,27.94,22.29,27.94,23.57s3.05,5.2,5,7.67-1.36,6.66-1.36,6.66,6,4.22,5.12,8.13,4.51,10.53,4.51,10.53l-33.7,25.57S632.11,372.29,631.21,389.75Z" transform="translate(-120.94 -37.37)" fill="#cbcdda"/><circle cx="455.78" cy="220.11" r="1.86" fill="#767d9f"/><circle cx="455.78" cy="244.93" r="1.86" fill="#767d9f"/><circle cx="462.33" cy="304.01" r="1.86" fill="#767d9f"/><circle cx="467.07" cy="334.25" r="1.86" fill="#767d9f"/><circle cx="471.69" cy="366.17" r="1.86" fill="#767d9f"/><circle cx="459.5" cy="273.98" r="1.86" fill="#767d9f"/><path d="M596.78,222.24c-2.52,3.3-9,8-9.46,8-1.7,0-5.81-4.73-8-7.38a28.54,28.54,0,0,1,5.53-6.9C589.48,218.48,593.39,220.53,596.78,222.24Z" transform="translate(-120.94 -37.37)" opacity="0.1"/><path d="M596.78,220.44c-2.52,3.29-9,8.05-9.46,8.05-1.7,0-5.81-4.73-8-7.38a28.47,28.47,0,0,1,5.53-6.91C589.48,216.67,593.39,218.72,596.78,220.44Z" transform="translate(-120.94 -37.37)" fill="#cbcdda"/><path d="M547.11,249.7s-4.53,10.86-8.91,18.78a34.64,34.64,0,0,1-4.77,7.09c-2.52,2.52-5,10.1-6.91,16.93-1.82,6.62-3,12.55-3,12.55-2.56,3.92-2.56,52.5-2.56,52.5,4.37,18.66-3.61,71.6-3.61,71.6L515,454.85l-.72,7.74-.13,1.47c-1.69.07-3.32.12-4.88.14h0a112.08,112.08,0,0,1-11.6-.41c-.87-.07-1.71-.16-2.52-.26l3.29-83.42,9.47-74.31,3.47-31.14,11.25-5.48c1.85-14.78,5.42-32.66,12.06-39.8a20.3,20.3,0,0,0,4.27-7.27,33.23,33.23,0,0,1,2.69-2.13s1.16,2.23,2.53,4.9c1.47,2.87,3.19,6.25,4,8C549.82,236.16,547.11,249.7,547.11,249.7Z" transform="translate(-120.94 -37.37)" opacity="0.1"/><path d="M545.31,248.8s-8.72,20.91-13.68,25.87-9.93,29.48-9.93,29.48c-2.56,3.92-2.56,52.5-2.56,52.5,4.36,18.66-3.61,71.6-3.61,71.6l-3.24,34.9C452.64,465.91,469,432.92,469,432.92l13.84-75s4.59-22.46,4.14-28.78,5.75-27.75,5.75-27.75-10.94-56.86-9.81-59.45,39.26-9,39.26-9a16.77,16.77,0,0,0,3.81-.31c2.22-.46,4.73-1.55,5.55-4.09,1.59-4.86,8.21-9.41,8.21-9.41s1.15,2.23,2.52,4.91c1.47,2.87,3.2,6.25,4.06,8C548,235.26,545.31,248.8,545.31,248.8Z" transform="translate(-120.94 -37.37)" fill="#cbcdda"/><path d="M542.31,225.79c-5.91,5.33-12.26,24.51-12.26,24.51l-4-15.92c2.22-.46,4.73-1.55,5.55-4.09,1.59-4.85,8.21-9.4,8.21-9.4Z" transform="translate(-120.94 -37.37)" opacity="0.1"/><path d="M542.31,224c-5.91,5.33-12.26,24.51-12.26,24.51l-4-15.92c2.22-.46,4.73-1.55,5.55-4.09,1.59-4.86,8.21-9.41,8.21-9.41S540.94,221.31,542.31,224Z" transform="translate(-120.94 -37.37)" fill="#cbcdda"/><path d="M472.24,435.62s.79,9.14,19.52,3.5S472.24,435.62,472.24,435.62Z" transform="translate(-120.94 -37.37)" opacity="0.1"/><path d="M704.16,349.58c-2.71,5.11-6.17,13.54-8.87,14.74-1.09.48-4.52.46-8.27.26-5.61-.3-11.89-1-11.89-1S689.26,332.83,670,325H652.57l-11.14-11.62,29.33-28.13,4.37,2.56L697.39,321s2.26,2.55,4.37,5,.59,7.07.59,7.07S706.87,344.47,704.16,349.58Z" transform="translate(-120.94 -37.37)" fill="#cbcdda"/><path d="M598.48,316.49s8.45-66.3,33.66-84.39a22.92,22.92,0,0,0-2.63-.45c-10.89-1.24-16-1.87-25.41-6a66,66,0,0,0-17.84,49c1.85,33.85,0,41.75,0,41.75h3c5.38,10.9,28.22,56.18,40.9,65.69l1.35-11.52s-32.92-38-35.77-54.17Z" transform="translate(-120.94 -37.37)" opacity="0.1"/><path d="M602.09,315.59s8.45-66.31,33.66-84.39a20.93,20.93,0,0,0-2.63-.45c-10.89-1.24-16-1.87-25.41-5.95a66,66,0,0,0-17.84,49c1.85,33.85,0,41.75,0,41.75h3c5.38,10.9,28.22,56.17,40.9,65.68l1.35-11.51s-32.92-38-35.76-54.17Z" transform="translate(-120.94 -37.37)" opacity="0.1"/><path d="M589.86,313.22s27.62,57.22,42.06,68l1.35-11.51s-38.73-44.7-35.8-57.78Z" transform="translate(-120.94 -37.37)" fill="#6e6d84"/><path d="M634,231.2c-25.22,18.08-33.67,84.39-33.67,84.39H588.06s1.85-7.9,0-41.75a66,66,0,0,1,17.85-49c9.36,4.08,14.51,4.71,25.4,5.95A21.09,21.09,0,0,1,634,231.2Z" transform="translate(-120.94 -37.37)" fill="#6e6d84"/><polygon points="498.99 342.86 498.2 388.89 505.98 392.84 498.99 342.86" opacity="0.1"/><path d="M637.07,283.09c5.19-1.24,18.5-5.64,19-10S637.07,283.09,637.07,283.09Z" transform="translate(-120.94 -37.37)" opacity="0.1"/><path d="M637.86,291.78s16.47-6.78,19.07-9.48S635.38,286.37,637.86,291.78Z" transform="translate(-120.94 -37.37)" opacity="0.1"/><path d="M522.3,243.68s-7.19,14.18-2.86,15.66S522.3,243.68,522.3,243.68Z" transform="translate(-120.94 -37.37)" opacity="0.1"/><path d="M577.35,398.51s-57.76,34.11-45.58,36.06S577.35,398.51,577.35,398.51Z" transform="translate(-120.94 -37.37)" opacity="0.1"/><path d="M612,470.67s15.19,2.86,14.59,7.53" transform="translate(-120.94 -37.37)" opacity="0.1"/><path d="M683.21,337.63l-.68,17.56s-4.28,7.44-7.4,8.38a4,4,0,0,1-1.15.08h0c-6.13-.33-29.27-7.1-31.34-10.94-2.26-4.17-36.44-19.17-36.44-19.17s-28.76-43.67-7.22-54.27,20.53,41.18,20.53,41.18,19.52,2.93,22,4.51c2.08,1.36,21.27.41,27,.09L670,325l6.09,1.12Z" transform="translate(-120.94 -37.37)" fill="#ffb9b9"/><path d="M683.21,337.63l-.68,17.56s-4.28,7.44-7.4,8.38a4,4,0,0,1-1.15.08h0l-.61-.07s14-30.52-4.91-38.53L670,325l6.09,1.12Z" transform="translate(-120.94 -37.37)" opacity="0.1"/><path d="M687.92,364.58c-5.6-.3-11.88-1-11.88-1s14.12-30.74-5.11-38.61h0L686,323.48C704.86,336,691.81,358.66,687.92,364.58Z" transform="translate(-120.94 -37.37)" opacity="0.1"/><path d="M687,364.58c-5.61-.3-11.89-1-11.89-1S689.26,332.83,670,325h0l15.11-1.47C704,336,690.91,358.66,687,364.58Z" transform="translate(-120.94 -37.37)" fill="#cbcdda"/><path d="M460.49,253,504.1,214.2s11.73-11,10.83-14.44-10.68-34,5.71-35.8,11,51.14,11,51.14l-46.78,57.46Z" transform="translate(-120.94 -37.37)" fill="#ffb9b9"/><path d="M433.1,294.22s-3.16-14.89,1.65-20.3,26.63-24.37,26.63-24.37,10.95,17,30.38,14.52L470,293.17s-9.63,12.64-23.62,11.43S433.1,294.22,433.1,294.22Z" transform="translate(-120.94 -37.37)" opacity="0.1"/><path d="M432.19,295.13s-3.16-14.89,1.66-20.31,26.62-24.37,26.62-24.37,18.66,18.8,29.34,21.06l-20.76,22.56s-9.63,12.64-23.62,11.44S432.19,295.13,432.19,295.13Z" transform="translate(-120.94 -37.37)" fill="#cbcdda"/><path d="M469.37,259.55l-19.46-1.73s8.68-10.83,13.31-11.17,4.77.59,4.77.59l-6.14,5.46Z" transform="translate(-120.94 -37.37)" opacity="0.1"/><path d="M469.37,258.65l-19.46-1.73s8.68-10.83,13.31-11.17,4.77.59,4.77.59l-6.14,5.46Z" transform="translate(-120.94 -37.37)" fill="#cbcdda"/><path d="M473,263.28S468,281,485.33,282.19L490.86,265S479.64,267.2,473,263.28Z" transform="translate(-120.94 -37.37)" opacity="0.1"/><path d="M473.91,262.38s-5.05,17.67,12.32,18.91l5.53-17.22S480.55,266.3,473.91,262.38Z" transform="translate(-120.94 -37.37)" fill="#cbcdda"/><path d="M614.47,646.79l-2.56-29s-1.5-22.26.15-30.83a146.39,146.39,0,0,0,1.73-16.75c.27-4.81.38-8.52.38-8.52l-46-3.16-.12.18,43.44,3s-.11,3.71-.38,8.52a148.77,148.77,0,0,1-1.72,16.75c-1.66,8.57-.16,30.83-.16,30.83l2.57,29c6,14,.59,47.08-1.06,52.19s-8.28,38.67-11.89,44.08S591,779.61,591,779.61l-2.35,1.66,2.49.15,2.57-1.81s4.2-31.13,7.81-36.55,10.24-39,11.89-44.08S620.49,660.78,614.47,646.79Z" transform="translate(-120.94 -37.37)" opacity="0.1"/><polygon points="499.14 452.41 508.46 458.12 508.46 533.19 440.73 529.78 436.06 474.63 447.16 461.13 499.14 452.41" fill="#4c4c78"/><path d="M570.58,532.35s28.59,23.31,37.31,24.82" transform="translate(-120.94 -37.37)" opacity="0.1"/><path d="M593.45,779.2a13.81,13.81,0,0,0-.81,2.38l-1.75,1.23S565,781.6,568,776.94a13.56,13.56,0,0,0,1.13-4.36c6.05-1.4,16.31,5.56,16.31,5.56Z" transform="translate(-120.94 -37.37)" opacity="0.1"/><path d="M595.4,829.59c-1.8,3.61-2.4,12.18-2.4,12.18s-5.57,8.42-13.39,5.87-31.14-1.51-32.5-2.1c-4.39-2-2.47-6.6,0-10.84,1.43-2.43,3-4.72,3.75-6.31,2-4.37,6.47-15.8,6.47-15.8-.6-9.33,6.32-17.3,6.32-17.3l3-19.56c5.07-5.1,18.8,4.22,18.8,4.22l8,1.06c-4.06,8.87.15,33.69.15,33.69s.66,2.08,1.29,4.75v0C595.7,823,596.43,827.53,595.4,829.59Z" transform="translate(-120.94 -37.37)" fill="#c7c0d9"/><path d="M595.4,829.59c-1.8,3.61-2.4,12.18-2.4,12.18s-5.57,8.42-13.39,5.87-31.14-1.51-32.5-2.1c-4.39-2-2.47-6.6,0-10.84,10.59.58,34.28,1.69,39.55-.3,6.76-2.55,8.28-11.36,8.21-14.93C595.7,823,596.43,827.53,595.4,829.59Z" transform="translate(-120.94 -37.37)" opacity="0.1"/><circle cx="461.25" cy="763.08" r="1.55" fill="#605b89"/><circle cx="442.73" cy="763.08" r="1.55" fill="#605b89"/><circle cx="461.25" cy="771.48" r="1.55" fill="#605b89"/><circle cx="442.34" cy="771.48" r="1.55" fill="#605b89"/><circle cx="456.6" cy="790.52" r="1.55" fill="#605b89"/><circle cx="440.79" cy="790.52" r="1.55" fill="#605b89"/><circle cx="457.35" cy="786.25" r="1.55" fill="#605b89"/><circle cx="441.18" cy="786.25" r="1.55" fill="#605b89"/><circle cx="458.15" cy="781.32" r="1.55" fill="#605b89"/><circle cx="442.73" cy="781.32" r="1.55" fill="#605b89"/><circle cx="459.7" cy="776.4" r="1.55" fill="#605b89"/><circle cx="442.73" cy="776.4" r="1.55" fill="#605b89"/><path d="M567,789s7.68,9.53,17.45,2" transform="translate(-120.94 -37.37)" fill="none" stroke="#000" stroke-miterlimit="10" opacity="0.1"/><path d="M563.67,800.45s20.07,5,18.52,8.4c0,0-17.65-2.54-18.91,0s17.36,4.92,17.36,4.92-15.31,2.39-17,0,15.42,4.92,15.42,4.92-15.42-1.55-15.42,0,14.62,4.93,14.62,4.93-13.66-1.44-14.62,0,13.6,2,13.87,4.27-15.81-1.55-15.81,0,20.46-27.44,20.46-27.44" transform="translate(-120.94 -37.37)" fill="none" stroke="#605b89" stroke-miterlimit="10" opacity="0.2"/><ellipse cx="62.02" cy="791.59" rx="29.92" ry="5.06" fill="#3AADAA" opacity="0.1"/><path d="M162.86,805.46s17.07-.53,22.21-4.19,26.25-8,27.53-2.16,25.65,29.21,6.38,29.37-44.77-3-49.91-6.13S162.86,805.46,162.86,805.46Z" transform="translate(-120.94 -37.37)" fill="#a8a8a8"/><path d="M219.32,826.43c-19.27.16-44.77-3-49.9-6.13-3.91-2.38-5.47-10.92-6-14.87l-.57,0s1.08,13.76,6.21,16.89,30.64,6.28,49.91,6.13c5.56-.05,7.48-2,7.38-5C225.59,825.29,223.46,826.4,219.32,826.43Z" transform="translate(-120.94 -37.37)" opacity="0.2"/></svg>