<svg width="50" height="50" viewBox="0 0 50 50" xmlns="http://www.w3.org/2000/svg"><path d="M29.2 13.45h15.26c.85 0 1.54.69 1.54 1.54v20.02c0 .85-.69 1.54-1.54 1.54H29.2v-23.1Z" fill="#1976D2"/><path d="M43.9 18.656H29.2v16.319h14.7v-16.32Z" fill="#fff"/><path d="M28.15 46 4 41.275V8.725L28.15 4v42Z" fill="#1976D2"/><path d="M15.813 17.125c-3.335 0-6.038 3.526-6.038 7.875s2.703 7.875 6.037 7.875c3.335 0 6.038-3.526 6.038-7.875 0-4.35-2.703-7.875-6.038-7.875Zm-.263 12.6c-1.74 0-3.15-2.116-3.15-4.725 0-2.61 1.41-4.725 3.15-4.725S18.7 22.39 18.7 25c0 2.609-1.41 4.725-3.15 4.725Z" fill="#fff"/><path d="M32.084 31.023H29.25v3.045h2.835v-3.045Zm3.571 0H32.82v3.045h2.835v-3.045Zm3.572 0h-2.835v3.045h2.834v-3.045Zm-7.143-3.756H29.25v3.045h2.835v-3.045Zm3.571 0H32.82v3.045h2.835v-3.045Zm3.572 0h-2.835v3.045h2.834v-3.045Zm3.57 0h-2.834v3.045h2.834v-3.045Zm-10.713-3.626H29.25v3.045h2.835v-3.045Zm3.571 0H32.82v3.045h2.835v-3.045Zm3.572 0h-2.835v3.045h2.834v-3.045Zm3.57 0h-2.834v3.045h2.834v-3.045Zm-7.142-3.774H32.82v3.045h2.835v-3.045Zm3.572 0h-2.835v3.045h2.834v-3.045Zm3.57 0h-2.834v3.045h2.834v-3.045Z" fill="#1976D2"/></svg>
