<svg width="51" height="50" xmlns="http://www.w3.org/2000/svg"><path d="M9.096 43.956a25.15 25.15 0 0 1-1.58-1.482c-.726-.743-.67-1.924.065-2.66l25.95-25.95 1.415 1.414a2 2 0 0 1 0 2.829l-25.85 25.85Z" fill="var(--o-icons-purple-pure, #93407D)"/><path d="M9.096 43.956a25.15 25.15 0 0 1-1.58-1.482c-.726-.743-.67-1.924.065-2.66l25.95-25.95 1.415 1.414a2 2 0 0 1 0 2.829l-25.85 25.85Z" fill="url(#o_icon_hr_holidays__a)" fill-opacity=".2"/><path d="M15.848 15.808 7.362 7.322A25 25 0 0 1 30.947.708l-15.1 15.1Z" fill="var(--o-icons-yellow-pure, #FBB130)"/><path d="M15.848 15.808 7.362 7.322A25 25 0 0 1 30.947.708l-15.1 15.1Z" fill="url(#o_icon_hr_holidays__b)" fill-opacity=".2"/><path d="m15.848 15.808 15.1-15.1a25 25 0 0 1 11.77 6.614L25.04 25l-9.192-9.192Z" fill="var(--o-icons-yellow-yellow, #F77B09)"/><path d="m15.848 15.808 15.1-15.1a25 25 0 0 1 11.77 6.614L25.04 25l-9.192-9.192Z" fill="url(#o_icon_hr_holidays__c)" fill-opacity=".2"/><path d="M33.525 33.485 25.04 25 42.718 7.322a24.998 24.998 0 0 1 6.315 10.655L33.525 33.485Z" fill="var(--o-icons-cyan-cyan, #0382F3)"/><path d="M33.525 33.485 25.04 25 42.718 7.322a24.998 24.998 0 0 1 6.315 10.655L33.525 33.485Z" fill="url(#o_icon_hr_holidays__d)" fill-opacity=".2"/><path d="m33.525 33.486 15.508-15.508a24.994 24.994 0 0 1-4.959 23.23c-.716.842-1.99.837-2.77.056l-7.779-7.778Z" fill="var(--o-icons-cyan-pure, #1BB6F9)"/><path d="m33.525 33.486 15.508-15.508a24.994 24.994 0 0 1-4.959 23.23c-.716.842-1.99.837-2.77.056l-7.779-7.778Z" fill="url(#o_icon_hr_holidays__e)" fill-opacity=".2"/><defs><linearGradient id="o_icon_hr_holidays__a" x1="7" y1="13.864" x2="40.767" y2="21.868" gradientUnits="userSpaceOnUse"><stop stop-color="#fff"/><stop offset="1" stop-color="#fff" stop-opacity="0"/></linearGradient><linearGradient id="o_icon_hr_holidays__b" x1="7.362" y1="0" x2="33.243" y2="9.653" gradientUnits="userSpaceOnUse"><stop stop-color="#fff"/><stop offset="1" stop-color="#fff" stop-opacity="0"/></linearGradient><linearGradient id="o_icon_hr_holidays__c" x1="15.848" y1=".708" x2="47.049" y2="9.336" gradientUnits="userSpaceOnUse"><stop stop-color="#fff"/><stop offset="1" stop-color="#fff" stop-opacity="0"/></linearGradient><linearGradient id="o_icon_hr_holidays__d" x1="25.04" y1="7.322" x2="53.534" y2="13.855" gradientUnits="userSpaceOnUse"><stop stop-color="#fff"/><stop offset="1" stop-color="#fff" stop-opacity="0"/></linearGradient><linearGradient id="o_icon_hr_holidays__e" x1="33.525" y1="17.977" x2="53.569" y2="21.445" gradientUnits="userSpaceOnUse"><stop stop-color="#fff"/><stop offset="1" stop-color="#fff" stop-opacity="0"/></linearGradient></defs></svg>
