<svg xmlns="http://www.w3.org/2000/svg" xmlns:xlink="http://www.w3.org/1999/xlink" width="70" height="70" viewBox="0 0 70 70">
    <defs>
        <path id="icon-a" d="M4,5.35309892e-14 C36.4160122,9.87060235e-15 58.0836068,-3.97961823e-14 65,5.07020818e-14 C69,6.733808e-14 70,1 70,5 C70,43.0488877 70,62.4235458 70,65 C70,69 69,70 65,70 C61,70 9,70 4,70 C1,70 7.10542736e-15,69 7.10542736e-15,65 C7.25721566e-15,62.4676575 3.83358709e-14,41.8005206 3.60818146e-14,5 C-1.13686838e-13,1 1,5.75716207e-14 4,5.35309892e-14 Z"/>
        <linearGradient id="icon-c" x1="100%" x2="0%" y1="0%" y2="100%">
            <stop offset="0%" stop-color="#CDC484"/>
            <stop offset="100%" stop-color="#B5AA59"/>
        </linearGradient>
        <path id="icon-d" d="M27.2777778,16.2348485 C32.4714536,16.2348485 36.681713,20.506348 36.681713,25.7755682 C36.681713,31.0447884 32.4714536,35.3162879 27.2777778,35.3162879 C22.0841019,35.3162879 17.8738426,31.0447884 17.8738426,25.7755682 C17.8738426,20.506348 22.0841019,16.2348485 27.2777778,16.2348485 Z M32,36 C32,35.5868456 24.1175854,37.5736818 20.6967864,35.0773525 L16.5053937,36.1404272 C13.9936026,36.7775087 12.2314815,39.0671622 12.2314815,41.6939608 L12.2314815,43.9029356 C12.2314815,45.4837136 13.4945475,46.7651515 15.052662,46.7651515 C25.363233,46.7651515 30.5185185,46.7651515 30.5185185,46.7651515 C28.6666667,40.4242424 32,36.4131544 32,36 Z M48.5116455,29.4292211 L49.8821338,32.7804044 C50.108418,33.3336802 50.7775488,33.5511019 51.2858154,33.2365172 L54.3643115,31.3309087 C55.1962939,30.8159288 56.2338818,31.569761 56.0011523,32.5201752 L55.140166,36.0368953 C54.9979932,36.61751 55.4115674,37.186738 56.0077051,37.230942 L59.6183691,37.4987982 C60.5941357,37.5712005 60.9904688,38.790921 60.2436182,39.4230444 L57.4800293,41.7619923 C57.0237549,42.1481736 57.0237549,42.8517324 57.4800293,43.2379137 L60.2436719,45.5769153 C60.9905762,46.2090387 60.5942432,47.4287592 59.6184229,47.5011615 L56.0077588,47.7690177 C55.4116211,47.8132217 54.9980469,48.3824497 55.1402197,48.9630644 L56.0012061,52.4797846 C56.2338818,53.4301987 55.1962939,54.1840309 54.3643652,53.669051 L51.2858691,51.7634425 C50.7776025,51.4488041 50.108418,51.6662258 49.8821875,52.2195553 L48.5116992,55.5707386 C48.1413086,56.4764115 46.8587988,56.4764115 46.4884082,55.5707386 L45.1179199,52.2195553 C44.8916357,51.6662795 44.2225049,51.4488578 43.7142383,51.7634425 L40.6356885,53.669051 C39.8037061,54.1840309 38.7661182,53.4301987 38.9988477,52.4797846 L39.859834,48.9630644 C40.0020068,48.3824497 39.5884326,47.8132217 38.9922949,47.7690177 L35.3816309,47.5011615 C34.4058643,47.4287592 34.0095313,46.2090387 34.7563818,45.5769153 L37.5199707,43.2379674 C37.9762451,42.8517862 37.9762451,42.1482273 37.5199707,41.762046 L34.7563281,39.4230444 C34.0094238,38.790921 34.4057568,37.5712005 35.3815771,37.4987982 L38.9922412,37.230942 C39.5883789,37.186738 40.0019531,36.61751 39.8597803,36.0368953 L38.9987939,32.5201752 C38.7661182,31.569761 39.8037061,30.8159288 40.6356348,31.3309087 L43.7141846,33.2365172 C44.2224512,33.5511556 44.891582,33.3337339 45.1178662,32.7804044 L46.4883545,29.4292211 C46.8587451,28.5236019 48.1412549,28.5236019 48.5116455,29.4292211 Z M54.8046875,42.4999799 C54.8046875,38.4721469 51.5277832,35.1952995 47.5,35.1952995 C43.4721631,35.1952995 40.1953125,38.4721469 40.1953125,42.4999799 C40.1953125,46.5278128 43.4721631,49.8046602 47.5,49.8046602 C51.5277832,49.8046602 54.8046875,46.5278128 54.8046875,42.4999799 Z M53.0859375,42.4999799 C53.0859375,45.5800843 50.5801074,48.0859119 47.5,48.0859119 C44.4198926,48.0859119 41.9140625,45.5800843 41.9140625,42.4999799 C41.9140625,39.4198754 44.4198926,36.9140478 47.5,36.9140478 C50.5801074,36.9140478 53.0859375,39.4198754 53.0859375,42.4999799 Z"/>
        <path id="icon-e" d="M27.2777778,14.2348485 C32.4714536,14.2348485 36.681713,18.506348 36.681713,23.7755682 C36.681713,29.0447884 32.4714536,33.3162879 27.2777778,33.3162879 C22.0841019,33.3162879 17.8738426,29.0447884 17.8738426,23.7755682 C17.8738426,18.506348 22.0841019,14.2348485 27.2777778,14.2348485 Z M32,34 C32,33.5868456 24.1175854,35.5736818 20.6967864,33.0773525 L16.5053937,34.1404272 C13.9936026,34.7775087 12.2314815,37.0671622 12.2314815,39.6939608 L12.2314815,41.9029356 C12.2314815,43.4837136 13.4945475,44.7651515 15.052662,44.7651515 C25.363233,44.7651515 30.5185185,44.7651515 30.5185185,44.7651515 C28.6666667,38.4242424 32,34.4131544 32,34 Z M48.5116455,27.4292211 L49.8821338,30.7804044 C50.108418,31.3336802 50.7775488,31.5511019 51.2858154,31.2365172 L54.3643115,29.3309087 C55.1962939,28.8159288 56.2338818,29.569761 56.0011523,30.5201752 L55.140166,34.0368953 C54.9979932,34.61751 55.4115674,35.186738 56.0077051,35.230942 L59.6183691,35.4987982 C60.5941357,35.5712005 60.9904688,36.790921 60.2436182,37.4230444 L57.4800293,39.7619923 C57.0237549,40.1481736 57.0237549,40.8517324 57.4800293,41.2379137 L60.2436719,43.5769153 C60.9905762,44.2090387 60.5942432,45.4287592 59.6184229,45.5011615 L56.0077588,45.7690177 C55.4116211,45.8132217 54.9980469,46.3824497 55.1402197,46.9630644 L56.0012061,50.4797846 C56.2338818,51.4301987 55.1962939,52.1840309 54.3643652,51.669051 L51.2858691,49.7634425 C50.7776025,49.4488041 50.108418,49.6662258 49.8821875,50.2195553 L48.5116992,53.5707386 C48.1413086,54.4764115 46.8587988,54.4764115 46.4884082,53.5707386 L45.1179199,50.2195553 C44.8916357,49.6662795 44.2225049,49.4488578 43.7142383,49.7634425 L40.6356885,51.669051 C39.8037061,52.1840309 38.7661182,51.4301987 38.9988477,50.4797846 L39.859834,46.9630644 C40.0020068,46.3824497 39.5884326,45.8132217 38.9922949,45.7690177 L35.3816309,45.5011615 C34.4058643,45.4287592 34.0095313,44.2090387 34.7563818,43.5769153 L37.5199707,41.2379674 C37.9762451,40.8517862 37.9762451,40.1482273 37.5199707,39.762046 L34.7563281,37.4230444 C34.0094238,36.790921 34.4057568,35.5712005 35.3815771,35.4987982 L38.9922412,35.230942 C39.5883789,35.186738 40.0019531,34.61751 39.8597803,34.0368953 L38.9987939,30.5201752 C38.7661182,29.569761 39.8037061,28.8159288 40.6356348,29.3309087 L43.7141846,31.2365172 C44.2224512,31.5511556 44.891582,31.3337339 45.1178662,30.7804044 L46.4883545,27.4292211 C46.8587451,26.5236019 48.1412549,26.5236019 48.5116455,27.4292211 Z M54.8046875,40.4999799 C54.8046875,36.4721469 51.5277832,33.1952995 47.5,33.1952995 C43.4721631,33.1952995 40.1953125,36.4721469 40.1953125,40.4999799 C40.1953125,44.5278128 43.4721631,47.8046602 47.5,47.8046602 C51.5277832,47.8046602 54.8046875,44.5278128 54.8046875,40.4999799 Z M53.0859375,40.4999799 C53.0859375,43.5800843 50.5801074,46.0859119 47.5,46.0859119 C44.4198926,46.0859119 41.9140625,43.5800843 41.9140625,40.4999799 C41.9140625,37.4198754 44.4198926,34.9140478 47.5,34.9140478 C50.5801074,34.9140478 53.0859375,37.4198754 53.0859375,40.4999799 Z"/>
    </defs>
    <g fill="none" fill-rule="evenodd">
        <mask id="icon-b" fill="#fff">
            <use xlink:href="#icon-a"/>
        </mask>
        <g mask="url(#icon-b)">
            <rect width="70" height="70" fill="url(#icon-c)"/>
            <path fill="#FFF" fill-opacity=".383" d="M4,1.8 L65,1.8 C67.6666667,1.8 69.3333333,1.13333333 70,-0.2 C70,2.46666667 70,3.46666667 70,2.8 L1.10547097e-14,2.8 C-1.65952376e-14,3.46666667 -2.9161925e-14,2.46666667 -2.66453526e-14,-0.2 C0.666666667,1.13333333 2,1.8 4,1.8 Z" transform="matrix(1 0 0 -1 0 2.8)"/>
            <path fill="#393939" d="M43.6444444,52 L4,52 C2,52 -7.10542736e-15,51.8514286 0,47.84 L2.21121142e-16,23.3197384 L20,0 L36,9.36 L30.6694253,16.3853185 L31.9690606,16.0436983 L28.4526012,19.3069352 L28.4526012,24.5134324 L39.2011791,11.8378465 L42.1902641,14.2434656 L46.8367307,9.36 L51,14.56 L60.3723121,27.0292074 L43.6444444,52 Z" opacity=".324" transform="translate(0 18)"/>
            <path fill="#000" fill-opacity=".383" d="M4,4 L65,4 C67.6666667,4 69.3333333,3 70,1 C70,3.66666667 70,5 70,5 L1.77635684e-15,5 C1.77635684e-15,5 1.77635684e-15,3.66666667 1.77635684e-15,1 C0.666666667,3 2,4 4,4 Z" transform="translate(0 65)"/>
            <use fill="#000" fill-rule="nonzero" opacity=".3" xlink:href="#icon-d"/>
            <use fill="#FFF" fill-rule="nonzero" xlink:href="#icon-e"/>
        </g>
    </g>
</svg>
