<svg xmlns="http://www.w3.org/2000/svg" xmlns:xlink="http://www.w3.org/1999/xlink" width="70" height="70" viewBox="0 0 70 70">
    <defs>
        <path id="icon-a" d="M4,5.35309892e-14 C36.4160122,9.87060235e-15 58.0836068,-3.97961823e-14 65,5.07020818e-14 C69,6.733808e-14 70,1 70,5 C70,43.0488877 70,62.4235458 70,65 C70,69 69,70 65,70 C61,70 9,70 4,70 C1,70 7.10542736e-15,69 7.10542736e-15,65 C7.25721566e-15,62.4676575 3.83358709e-14,41.8005206 3.60818146e-14,5 C-1.13686838e-13,1 1,5.75716207e-14 4,5.35309892e-14 Z"/>
        <linearGradient id="icon-c" x1="100%" x2="0%" y1="0%" y2="100%">
            <stop offset="0%" stop-color="#CDC484"/>
            <stop offset="100%" stop-color="#B5AA59"/>
        </linearGradient>
        <path id="icon-d" d="M34.9928486,19.5391573 C35.0500601,19.8604454 36.1442308,25.9991002 36.1442308,28.3438202 C36.1442308,31.9190055 34.1561298,34.4688031 31.216887,35.4941909 L32.1394231,51.7705126 C32.1894832,52.7070335 31.409976,53.5 30.4230769,53.5 L25.8461538,53.5 C24.8664063,53.5 24.0797476,52.7138694 24.1298077,51.7705126 L25.0523437,35.4941909 C22.1059495,34.4688031 20.125,31.9121696 20.125,28.3438202 C20.125,25.9922643 21.2191707,19.8604454 21.2763822,19.5391573 C21.5052284,18.1514658 24.5159856,18.1309581 24.7019231,19.6143524 L24.7019231,29.2666692 C24.7948918,29.4990904 25.7817909,29.4854186 25.8461538,29.2666692 C25.946274,27.5371818 26.4111178,19.7510707 26.4182692,19.5733369 C26.6542668,18.1514658 29.6149639,18.1514658 29.8438101,19.5733369 C29.858113,19.7579067 30.3158053,27.5371818 30.4159255,29.2666692 C30.4802885,29.4854186 31.4743389,29.4990904 31.5601563,29.2666692 L31.5601563,19.6143524 C31.7460938,18.137794 34.7640024,18.1514658 34.9928486,19.5391573 Z M43.5173678,39.0693762 L42.4446514,51.7226612 C42.3588341,52.6796898 43.1526442,53.5 44.1538462,53.5 L48.1586538,53.5 C49.1097957,53.5 49.875,52.7685567 49.875,51.8593796 L49.875,20.1407181 C49.875,19.2383769 49.1097957,18.5000977 48.1586538,18.5000977 C42.2587139,18.5000977 32.3253606,30.7022121 43.5173678,39.0693762 Z"/>
        <path id="icon-e" d="M34.9928486,17.5391573 C35.0500601,17.8604454 36.1442308,23.9991002 36.1442308,26.3438202 C36.1442308,29.9190055 34.1561298,32.4688031 31.216887,33.4941909 L32.1394231,49.7705126 C32.1894832,50.7070335 31.409976,51.5 30.4230769,51.5 L25.8461538,51.5 C24.8664063,51.5 24.0797476,50.7138694 24.1298077,49.7705126 L25.0523437,33.4941909 C22.1059495,32.4688031 20.125,29.9121696 20.125,26.3438202 C20.125,23.9922643 21.2191707,17.8604454 21.2763822,17.5391573 C21.5052284,16.1514658 24.5159856,16.1309581 24.7019231,17.6143524 L24.7019231,27.2666692 C24.7948918,27.4990904 25.7817909,27.4854186 25.8461538,27.2666692 C25.946274,25.5371818 26.4111178,17.7510707 26.4182692,17.5733369 C26.6542668,16.1514658 29.6149639,16.1514658 29.8438101,17.5733369 C29.858113,17.7579067 30.3158053,25.5371818 30.4159255,27.2666692 C30.4802885,27.4854186 31.4743389,27.4990904 31.5601563,27.2666692 L31.5601563,17.6143524 C31.7460938,16.137794 34.7640024,16.1514658 34.9928486,17.5391573 Z M43.5173678,37.0693762 L42.4446514,49.7226612 C42.3588341,50.6796898 43.1526442,51.5 44.1538462,51.5 L48.1586538,51.5 C49.1097957,51.5 49.875,50.7685567 49.875,49.8593796 L49.875,18.1407181 C49.875,17.2383769 49.1097957,16.5000977 48.1586538,16.5000977 C42.2587139,16.5000977 32.3253606,28.7022121 43.5173678,37.0693762 Z"/>
    </defs>
    <g fill="none" fill-rule="evenodd">
        <mask id="icon-b" fill="#fff">
            <use xlink:href="#icon-a"/>
        </mask>
        <g mask="url(#icon-b)">
            <rect width="70" height="70" fill="url(#icon-c)"/>
            <path fill="#FFF" fill-opacity=".383" d="M4,1.8 L65,1.8 C67.6666667,1.8 69.3333333,1.13333333 70,-0.2 C70,2.46666667 70,3.46666667 70,2.8 L1.10547097e-14,2.8 C-1.65952376e-14,3.46666667 -2.9161925e-14,2.46666667 -2.66453526e-14,-0.2 C0.666666667,1.13333333 2,1.8 4,1.8 Z" transform="matrix(1 0 0 -1 0 2.8)"/>
            <path fill="#393939" d="M37.1559742,53 L4,52 C2,52 -7.10542736e-15,51.8543417 0,47.9215686 L2.11942169e-16,24.8800004 L21.6437579,0 L21,12.2352941 L26.7780762,0 L29.5940312,3.47275252 L33,0 L35,12.2352941 L41.1357671,3.93586958 L49,0 L49.7896212,33.2154878 L37.1559742,53 Z" opacity=".324" transform="translate(0 17)"/>
            <path fill="#000" fill-opacity=".383" d="M4,4 L65,4 C67.6666667,4 69.3333333,3 70,1 C70,3.66666667 70,5 70,5 L1.77635684e-15,5 C1.77635684e-15,5 1.77635684e-15,3.66666667 1.77635684e-15,1 C0.666666667,3 2,4 4,4 Z" transform="translate(0 65)"/>
            <use fill="#000" fill-rule="nonzero" opacity=".3" xlink:href="#icon-d"/>
            <use fill="#FFF" fill-rule="nonzero" xlink:href="#icon-e"/>
        </g>
    </g>
</svg>
