<svg width="50" height="50" viewBox="0 0 50 50" xmlns="http://www.w3.org/2000/svg"><path d="M42 25c0 9.389-7.611 17-17 17S8 34.389 8 25 15.611 8 25 8s17 7.611 17 17Z" fill="var(--o-icons-yellow-yellow, #F77B09)"/><path d="M42 25c0 9.389-7.611 17-17 17S8 34.389 8 25 15.611 8 25 8s17 7.611 17 17Z" fill="url(#o_icon_lunch__a)" fill-opacity=".2"/><path d="M19.008 40.914C12.576 38.49 8 32.28 8 25c0-9.389 7.611-17 17-17 7.28 0 13.492 4.576 15.914 11.01-2.887 10.638-11.267 19.017-21.906 21.904Z" fill="var(--o-icons-yellow-pure, #FBB130)"/><path d="M19.008 40.914C12.576 38.49 8 32.28 8 25c0-9.389 7.611-17 17-17 7.28 0 13.492 4.576 15.914 11.01-2.887 10.638-11.267 19.017-21.906 21.904Z" fill="url(#o_icon_lunch__b)" fill-opacity=".2"/><path d="M19.68 15.361c0-1.808-1.52-3.331-3.192-2.64a8.338 8.338 0 0 0-4.512 4.513c-.692 1.67.831 3.19 2.64 3.19h1.063a4 4 0 0 0 4-4v-1.063Z" fill="var(--o-icons-white, #FFFFFF)"/><path d="M8.258 42.696c-.115-.31-.012-.748.232-.976L45.304 7.136c.243-.229.533-.162.649.149.115.311.011.748-.232.976L8.907 42.846c-.244.228-.534.161-.65-.15Z" fill="var(--o-icons-teal-pure, #00CEB3)"/><path d="M8.258 42.696c-.115-.31-.012-.748.232-.976L45.304 7.136c.243-.229.533-.162.649.149.115.311.011.748-.232.976L8.907 42.846c-.244.228-.534.161-.65-.15Z" fill="url(#o_icon_lunch__c)" fill-opacity=".2"/><path d="M4.036 42.657a.892.892 0 0 1 .332-.961l38.438-25.99c.293-.199.62-.09.729.243a.892.892 0 0 1-.332.961L4.764 42.901c-.293.198-.619.089-.728-.244Z" fill="var(--o-icons-teal-teal, #00A079)"/><path d="M4.036 42.657a.892.892 0 0 1 .332-.961l38.438-25.99c.293-.199.62-.09.729.243a.892.892 0 0 1-.332.961L4.764 42.901c-.293.198-.619.089-.728-.244Z" fill="url(#o_icon_lunch__d)" fill-opacity=".2"/><defs><linearGradient id="o_icon_lunch__a" x1="8" y1="8" x2="48" y2="18" gradientUnits="userSpaceOnUse"><stop stop-color="#fff"/><stop offset="1" stop-color="#fff" stop-opacity="0"/></linearGradient><linearGradient id="o_icon_lunch__b" x1="8" y1="8" x2="46.723" y2="17.681" gradientUnits="userSpaceOnUse"><stop stop-color="#fff"/><stop offset="1" stop-color="#fff" stop-opacity="0"/></linearGradient><linearGradient id="o_icon_lunch__c" x1="8.211" y1="7" x2="52.401" y2="18.602" gradientUnits="userSpaceOnUse"><stop stop-color="#fff"/><stop offset="1" stop-color="#fff" stop-opacity="0"/></linearGradient><linearGradient id="o_icon_lunch__d" x1="4" y1="15.606" x2="47.757" y2="31.408" gradientUnits="userSpaceOnUse"><stop stop-color="#fff"/><stop offset="1" stop-color="#fff" stop-opacity="0"/></linearGradient></defs></svg>
