<svg width="70" height="70" viewBox="0 0 70 70" fill="none" xmlns="http://www.w3.org/2000/svg">
<path d="M52 35C52 44.3888 44.3888 52 35 52C25.6112 52 18 44.3888 18 35C18 25.6112 25.6112 18 35 18C44.3888 18 52 25.6112 52 35Z" fill="#F78613"/>
<path d="M29.0078 50.9138C22.5756 48.4907 18 42.2797 18 35C18 25.6112 25.6112 18 35 18C42.2803 18 48.4916 22.5764 50.9144 29.0093C48.0269 39.6485 39.6474 48.0273 29.0078 50.9138Z" fill="#FBB945"/>
<path d="M29.6792 25.3607C29.6792 23.5524 28.1591 22.0291 26.4885 22.7211C25.4769 23.1402 24.5577 23.7543 23.7834 24.5286C23.0092 25.3028 22.395 26.222 21.976 27.2336C21.284 28.9042 22.8073 30.4243 24.6156 30.4243H25.6792C27.8884 30.4243 29.6792 28.6335 29.6792 26.4243V25.3607Z" fill="white"/>
<path d="M18.2579 52.6964C18.1428 52.3855 18.2465 51.9484 18.4895 51.7201L55.3041 17.1356C55.5471 16.9072 55.8375 16.9742 55.9527 17.2851C56.0678 17.5959 55.9641 18.0331 55.7211 18.2614L18.9065 52.8459C18.6635 53.0743 18.3731 53.0073 18.2579 52.6964Z" fill="#1AD3BB"/>
<path d="M14.036 52.6569C13.9265 52.324 14.0751 51.8938 14.3678 51.6958L52.8063 25.7051C53.099 25.5071 53.4251 25.6165 53.5345 25.9494C53.644 26.2822 53.4954 26.7125 53.2027 26.9104L14.7642 52.9012C14.4715 53.0991 14.1455 52.9897 14.036 52.6569Z" fill="#03AF89"/>
</svg>
