<svg xmlns="http://www.w3.org/2000/svg" xmlns:xlink="http://www.w3.org/1999/xlink" width="70" height="70" viewBox="0 0 70 70"><defs><path id="a" d="M4 0h61c4 0 5 1 5 5v60c0 4-1 5-5 5H4c-3 0-4-1-4-5V5c0-4 1-5 4-5z"/><linearGradient id="c" x1="100%" x2="0%" y1="0%" y2="100%"><stop offset="0%" stop-color="#DA956B"/><stop offset="100%" stop-color="#CC7039"/></linearGradient></defs><g fill="none" fill-rule="evenodd"><mask id="b" fill="#fff"><use xlink:href="#a"/></mask><g mask="url(#b)"><g><path fill="url(#c)" d="M0 0H70V70H0z"/><path fill="#FFF" fill-opacity=".383" d="M4 1h61c2.667 0 4.333.667 5 2V0H0v3c.667-1.333 2-2 4-2z"/></g><path fill="#393939" d="M4 69c-2 0-4-.146-4-4.074l-.374-15.924 20.62-23.304 3.816-3.623.958 1.178 4.235-5.2 5.776-3.22 8.058 7.495-.939 5.116 4.72-.59 8.557 9.214L32.62 69H4z" opacity=".324"/><path fill="#000" fill-opacity=".383" d="M4 69h61c2.667 0 4.333-1 5-3v4H0v-4c.667 2 2 3 4 3z"/><path fill="#000" d="M47.855 45.665l-.068.117a16.426 16.426 0 0 1-6.005 6.005C39.254 53.262 36.493 54 33.5 54c-2.993 0-5.754-.738-8.282-2.213a16.426 16.426 0 0 1-6.005-6.005C17.738 43.254 17 40.493 17 37.5c0-2.993.738-5.754 2.213-8.282a16.426 16.426 0 0 1 6.005-6.005c.16-.093.32-.183.481-.27l.776 2.75a13.543 13.543 0 0 0-4.62 4.524c.1.1.187.157.258.172.058.014.093.078.108.193a.823.823 0 0 0 .053.236c.022.043.104.022.247-.064.13.114.15.25.065.408.014-.014.33.18.945.58.272.244.423.394.451.451.043.158-.028.287-.214.387a1.099 1.099 0 0 0-.194-.193c-.114-.1-.179-.13-.193-.086-.043.071-.04.204.01.397.05.194.126.283.226.269-.1 0-.168.114-.204.344-.036.229-.054.483-.054.762 0 .28-.007.448-.021.505l.043.022c-.043.171-.004.419.118.74.122.323.276.463.462.42-.186.043-.043.35.43.924.086.114.143.179.172.193.042.029.128.082.257.161.13.079.237.15.323.215.086.064.157.14.214.226.058.071.13.232.215.483.086.25.186.419.301.505-.029.086.04.229.204.43.165.2.24.365.226.494a.104.104 0 0 0-.054.021.104.104 0 0 1-.054.022c.043.1.154.2.333.3.18.1.29.194.333.28.015.043.029.114.043.215a.79.79 0 0 0 .065.236c.028.057.086.071.172.043.028-.287-.144-.73-.516-1.332a17.652 17.652 0 0 1-.365-.623 1.235 1.235 0 0 1-.118-.333 1.638 1.638 0 0 0-.097-.312c.029 0 .072.01.129.032.057.022.118.047.182.076.065.028.119.057.162.086.043.028.057.05.043.064-.043.1-.03.226.043.376.071.15.157.283.257.397a29.466 29.466 0 0 0 .623.688c.086.086.187.226.301.419.115.193.115.29 0 .29.13 0 .272.072.43.215.157.143.28.286.365.43.072.114.129.3.172.558.043.258.079.43.107.516.029.1.09.197.183.29.093.093.183.16.269.204l.343.172.28.15c.071.029.204.104.397.226.193.121.347.204.462.247a.99.99 0 0 0 .344.086c.086 0 .19-.018.311-.054.122-.036.219-.06.29-.075.215-.029.423.079.623.322.2.244.351.394.452.451.515.272.909.351 1.181.237-.029.014-.025.068.01.16.037.094.094.205.173.334a21.063 21.063 0 0 0 .311.494c.072.086.2.193.387.322.186.129.315.236.387.322.086-.057.136-.121.15-.193-.043.115.007.258.15.43.144.172.273.243.387.215.2-.043.301-.273.301-.688-.444.215-.795.086-1.053-.387a.419.419 0 0 0-.053-.118 1.369 1.369 0 0 1-.14-.365.305.305 0 0 1 0-.161c.014-.043.05-.065.107-.065.13 0 .2-.025.215-.075.014-.05 0-.14-.043-.268a4.332 4.332 0 0 1-.086-.28c-.014-.114-.093-.258-.236-.43a5.725 5.725 0 0 1-.258-.322c-.071.13-.186.187-.344.172-.157-.014-.272-.079-.343-.193 0 .014-.011.054-.033.118a.511.511 0 0 0-.032.14c-.186 0-.293-.008-.322-.022a2.66 2.66 0 0 0 .054-.376c.021-.207.046-.369.075-.483.014-.057.054-.143.118-.258.064-.115.118-.218.161-.312.043-.093.072-.182.086-.268.014-.086-.018-.154-.097-.204-.078-.05-.204-.068-.376-.054-.272.014-.458.158-.558.43a4.456 4.456 0 0 0-.065.225.728.728 0 0 1-.107.247.535.535 0 0 1-.193.15c-.1.044-.273.058-.516.044-.244-.015-.415-.05-.516-.108-.186-.114-.347-.322-.483-.623-.136-.3-.204-.565-.204-.795 0-.143.018-.333.054-.569.035-.236.057-.415.064-.537.007-.122-.032-.297-.118-.526a1.09 1.09 0 0 0 .193-.205c.086-.107.158-.182.215-.225a.383.383 0 0 1 .097-.032.22.22 0 0 1 .096 0c.029.007.058-.004.086-.033a.272.272 0 0 0 .065-.128.64.64 0 0 0-.086-.065c-.043-.043-.072-.064-.086-.064.1.043.304.032.612-.033.308-.064.505-.053.591.033.215.157.372.143.473-.043a1.71 1.71 0 0 0-.054-.204c-.036-.122-.04-.219-.01-.29.07.386.279.45.622.193.043.043.154.079.333.107.18.029.305.065.376.108.043.028.093.068.15.118.058.05.097.082.119.097.021.014.057.01.107-.011a.648.648 0 0 0 .183-.14c.143.2.229.373.258.516.157.573.293.888.408.945.1.043.179.057.236.043.057-.014.09-.082.097-.204a2.084 2.084 0 0 0 0-.3 5.339 5.339 0 0 0-.032-.27l-.022-.171v-.387l-.021-.172c-.215-.043-.348-.129-.398-.258a.461.461 0 0 1 .032-.397c.072-.136.18-.269.323-.398a.701.701 0 0 1 .172-.075c.1-.036.21-.082.333-.14a.966.966 0 0 0 .268-.171c.3-.272.408-.523.322-.752.1 0 .18-.065.237-.194-.015 0-.05-.021-.108-.064a1.57 1.57 0 0 0-.16-.107.292.292 0 0 0-.097-.043c.08-.045.116-.107.107-.186 4.292 5.112 6.94 8.087 7.945 8.922.644.536 1.599.84 2.865.911zm-11.97 5.37c2.95-.515 5.464-1.869 7.54-4.06-.042-.043-.132-.076-.268-.097a.772.772 0 0 1-.268-.075 3.38 3.38 0 0 0-.516-.172.42.42 0 0 0-.054-.28.573.573 0 0 0-.172-.193 11.49 11.49 0 0 0-.268-.172 11.31 11.31 0 0 1-.236-.15 2.026 2.026 0 0 0-.15-.129 1.525 1.525 0 0 0-.312-.215c-.08-.043-.14-.057-.183-.043a.754.754 0 0 1-.215.022l-.064.021a.594.594 0 0 0-.118.054 1.76 1.76 0 0 1-.119.064.221.221 0 0 0-.086.065c-.014.021-.014.04 0 .054-.3-.244-.558-.402-.773-.473a.607.607 0 0 1-.236-.118 2.04 2.04 0 0 0-.226-.15.314.314 0 0 0-.215-.033.49.49 0 0 0-.247.15.514.514 0 0 0-.129.323 1.629 1.629 0 0 1-.043.279c-.1-.072-.1-.197 0-.376s.115-.311.043-.397c-.043-.086-.118-.119-.225-.097a.719.719 0 0 0-.258.097 4.128 4.128 0 0 0-.247.182c-.1.079-.165.126-.194.14-.028.014-.089.054-.182.118a.723.723 0 0 0-.183.161 1.067 1.067 0 0 0-.129.258 1.3 1.3 0 0 1-.107.236c-.029-.057-.111-.104-.247-.14-.136-.035-.204-.075-.204-.118.028.144.057.394.086.752.028.359.064.63.107.817.1.444.014.788-.258 1.031-.386.358-.594.645-.623.86-.057.315.029.5.258.558 0 .1-.057.247-.172.44-.114.194-.165.348-.15.462 0 .086.014.2.043.344zm16.851-15.059c0-.455-.158-.842-.474-1.16l-3.525-3.553a1.563 1.563 0 0 0-1.153-.478c-.474 0-.88.182-1.22.546.034.034.141.14.322.316.18.177.302.299.365.367.062.069.146.177.254.325.107.148.18.293.22.435.04.143.06.3.06.47 0 .455-.159.842-.475 1.161-.316.319-.7.478-1.153.478-.169 0-.324-.02-.466-.06a1.359 1.359 0 0 1-.432-.221 4.04 4.04 0 0 1-.322-.257c-.067-.062-.189-.185-.364-.367a46.78 46.78 0 0 0-.313-.324c-.373.353-.56.768-.56 1.246 0 .456.158.843.475 1.162l3.49 3.535c.306.307.69.46 1.153.46.452 0 .836-.147 1.152-.443l2.492-2.493c.316-.32.474-.7.474-1.145zm-11.913-12.04c0-.455-.158-.842-.475-1.16l-3.49-3.536a1.563 1.563 0 0 0-1.153-.478c-.44 0-.825.154-1.152.461l-2.491 2.494c-.317.318-.475.7-.475 1.144 0 .455.158.842.475 1.161l3.524 3.552c.305.308.69.461 1.153.461.474 0 .88-.176 1.22-.53l-.322-.315c-.18-.177-.302-.299-.364-.367a4.061 4.061 0 0 1-.255-.325 1.378 1.378 0 0 1-.22-.435 1.75 1.75 0 0 1-.06-.47c0-.455.159-.842.475-1.161.317-.319.7-.478 1.153-.478.169 0 .324.02.466.06.14.04.285.113.432.222.147.108.254.193.322.256.067.062.189.185.364.367l.314.324c.372-.353.559-.768.559-1.246zm15.167 12.04c0 1.367-.48 2.522-1.44 3.467l-2.492 2.493c-.938.945-2.084 1.418-3.44 1.418-1.367 0-2.52-.484-3.457-1.452l-3.49-3.535c-.939-.945-1.407-2.1-1.407-3.467 0-1.4.497-2.59 1.49-3.569l-1.49-1.503c-.972 1.002-2.147 1.503-3.525 1.503-1.356 0-2.508-.478-3.457-1.434l-3.525-3.552c-.95-.957-1.424-2.118-1.424-3.484s.48-2.522 1.44-3.467l2.492-2.493c.938-.945 2.084-1.418 3.44-1.418 1.367 0 2.52.484 3.457 1.452l3.491 3.535c.938.945 1.407 2.1 1.407 3.467 0 1.4-.498 2.59-1.492 3.569l1.492 1.503c.971-1.002 2.146-1.503 3.524-1.503 1.356 0 2.508.478 3.457 1.434l3.525 3.553c.95.956 1.424 2.117 1.424 3.483z" opacity=".3"/><path fill="#FFF" d="M47.855 43.665l-.068.117a16.426 16.426 0 0 1-6.005 6.005C39.254 51.262 36.493 52 33.5 52c-2.993 0-5.754-.738-8.282-2.213a16.426 16.426 0 0 1-6.005-6.005C17.738 41.254 17 38.493 17 35.5c0-2.993.738-5.754 2.213-8.282a16.426 16.426 0 0 1 6.005-6.005c.16-.093.32-.183.481-.27l.776 2.75a13.543 13.543 0 0 0-4.62 4.524c.1.1.187.157.258.172.058.014.093.078.108.193a.823.823 0 0 0 .053.236c.022.043.104.022.247-.064.13.114.15.25.065.408.014-.014.33.18.945.58.272.244.423.394.451.451.043.158-.028.287-.214.387a1.099 1.099 0 0 0-.194-.193c-.114-.1-.179-.13-.193-.086-.043.071-.04.204.01.397.05.194.126.283.226.269-.1 0-.168.114-.204.344-.036.229-.054.483-.054.762 0 .28-.007.448-.021.505l.043.022c-.043.171-.004.419.118.74.122.323.276.463.462.42-.186.043-.043.35.43.924.086.114.143.179.172.193.042.029.128.082.257.161.13.079.237.15.323.215.086.064.157.14.214.226.058.071.13.232.215.483.086.25.186.419.301.505-.029.086.04.229.204.43.165.2.24.365.226.494a.104.104 0 0 0-.054.021.104.104 0 0 1-.054.022c.043.1.154.2.333.3.18.1.29.194.333.28.015.043.029.114.043.215a.79.79 0 0 0 .065.236c.028.057.086.071.172.043.028-.287-.144-.73-.516-1.332a17.652 17.652 0 0 1-.365-.623 1.235 1.235 0 0 1-.118-.333 1.638 1.638 0 0 0-.097-.312c.029 0 .072.01.129.032.057.022.118.047.182.076.065.028.119.057.162.086.043.028.057.05.043.064-.043.1-.03.226.043.376.071.15.157.283.257.397a29.466 29.466 0 0 0 .623.688c.086.086.187.226.301.419.115.193.115.29 0 .29.13 0 .272.072.43.215.157.143.28.286.365.43.072.114.129.3.172.558.043.258.079.43.107.516.029.1.09.197.183.29.093.093.183.16.269.204l.343.172.28.15c.071.029.204.104.397.226.193.121.347.204.462.247a.99.99 0 0 0 .344.086c.086 0 .19-.018.311-.054.122-.036.219-.06.29-.075.215-.029.423.079.623.322.2.244.351.394.452.451.515.272.909.351 1.181.237-.029.014-.025.068.01.16.037.094.094.205.173.334a21.063 21.063 0 0 0 .311.494c.072.086.2.193.387.322.186.129.315.236.387.322.086-.057.136-.121.15-.193-.043.115.007.258.15.43.144.172.273.243.387.215.2-.043.301-.273.301-.688-.444.215-.795.086-1.053-.387a.419.419 0 0 0-.053-.118 1.369 1.369 0 0 1-.14-.365.305.305 0 0 1 0-.161c.014-.043.05-.065.107-.065.13 0 .2-.025.215-.075.014-.05 0-.14-.043-.268a4.332 4.332 0 0 1-.086-.28c-.014-.114-.093-.258-.236-.43a5.725 5.725 0 0 1-.258-.322c-.071.13-.186.187-.344.172-.157-.014-.272-.079-.343-.193 0 .014-.011.054-.033.118a.511.511 0 0 0-.032.14c-.186 0-.293-.008-.322-.022a2.66 2.66 0 0 0 .054-.376c.021-.207.046-.369.075-.483.014-.057.054-.143.118-.258.064-.115.118-.218.161-.312.043-.093.072-.182.086-.268.014-.086-.018-.154-.097-.204-.078-.05-.204-.068-.376-.054-.272.014-.458.158-.558.43a4.456 4.456 0 0 0-.065.225.728.728 0 0 1-.107.247.535.535 0 0 1-.193.15c-.1.044-.273.058-.516.044-.244-.015-.415-.05-.516-.108-.186-.114-.347-.322-.483-.623-.136-.3-.204-.565-.204-.795 0-.143.018-.333.054-.569.035-.236.057-.415.064-.537.007-.122-.032-.297-.118-.526a1.09 1.09 0 0 0 .193-.205c.086-.107.158-.182.215-.225a.383.383 0 0 1 .097-.032.22.22 0 0 1 .096 0c.029.007.058-.004.086-.033a.272.272 0 0 0 .065-.128.64.64 0 0 0-.086-.065c-.043-.043-.072-.064-.086-.064.1.043.304.032.612-.033.308-.064.505-.053.591.033.215.157.372.143.473-.043a1.71 1.71 0 0 0-.054-.204c-.036-.122-.04-.219-.01-.29.07.386.279.45.622.193.043.043.154.079.333.107.18.029.305.065.376.108.043.028.093.068.15.118.058.05.097.082.119.097.021.014.057.01.107-.011a.648.648 0 0 0 .183-.14c.143.2.229.373.258.516.157.573.293.888.408.945.1.043.179.057.236.043.057-.014.09-.082.097-.204a2.084 2.084 0 0 0 0-.3 5.339 5.339 0 0 0-.032-.27l-.022-.171v-.387l-.021-.172c-.215-.043-.348-.129-.398-.258a.461.461 0 0 1 .032-.397c.072-.136.18-.269.323-.398a.701.701 0 0 1 .172-.075c.1-.036.21-.082.333-.14a.966.966 0 0 0 .268-.171c.3-.272.408-.523.322-.752.1 0 .18-.065.237-.194-.015 0-.05-.021-.108-.064a1.57 1.57 0 0 0-.16-.107.292.292 0 0 0-.097-.043c.08-.045.116-.107.107-.186 4.292 5.112 6.94 8.087 7.945 8.922.644.536 1.599.84 2.865.911zm-11.97 5.37c2.95-.515 5.464-1.869 7.54-4.06-.042-.043-.132-.076-.268-.097a.772.772 0 0 1-.268-.075 3.38 3.38 0 0 0-.516-.172.42.42 0 0 0-.054-.28.573.573 0 0 0-.172-.193 11.49 11.49 0 0 0-.268-.172 11.31 11.31 0 0 1-.236-.15 2.026 2.026 0 0 0-.15-.129 1.525 1.525 0 0 0-.312-.215c-.08-.043-.14-.057-.183-.043a.754.754 0 0 1-.215.022l-.064.021a.594.594 0 0 0-.118.054 1.76 1.76 0 0 1-.119.064.221.221 0 0 0-.086.065c-.014.021-.014.04 0 .054-.3-.244-.558-.402-.773-.473a.607.607 0 0 1-.236-.118 2.04 2.04 0 0 0-.226-.15.314.314 0 0 0-.215-.033.49.49 0 0 0-.247.15.514.514 0 0 0-.129.323 1.629 1.629 0 0 1-.043.279c-.1-.072-.1-.197 0-.376s.115-.311.043-.397c-.043-.086-.118-.119-.225-.097a.719.719 0 0 0-.258.097 4.128 4.128 0 0 0-.247.182c-.1.079-.165.126-.194.14-.028.014-.089.054-.182.118a.723.723 0 0 0-.183.161 1.067 1.067 0 0 0-.129.258 1.3 1.3 0 0 1-.107.236c-.029-.057-.111-.104-.247-.14-.136-.035-.204-.075-.204-.118.028.144.057.394.086.752.028.359.064.63.107.817.1.444.014.788-.258 1.031-.386.358-.594.645-.623.86-.057.315.029.5.258.558 0 .1-.057.247-.172.44-.114.194-.165.348-.15.462 0 .086.014.2.043.344zm16.851-15.059c0-.455-.158-.842-.474-1.16l-3.525-3.553a1.563 1.563 0 0 0-1.153-.478c-.474 0-.88.182-1.22.546.034.034.141.14.322.316.18.177.302.299.365.367.062.069.146.177.254.325.107.148.18.293.22.435.04.143.06.3.06.47 0 .455-.159.842-.475 1.161-.316.319-.7.478-1.153.478-.169 0-.324-.02-.466-.06a1.359 1.359 0 0 1-.432-.221 4.04 4.04 0 0 1-.322-.257c-.067-.062-.189-.185-.364-.367a46.78 46.78 0 0 0-.313-.324c-.373.353-.56.768-.56 1.246 0 .456.158.843.475 1.162l3.49 3.535c.306.307.69.46 1.153.46.452 0 .836-.147 1.152-.443l2.492-2.493c.316-.32.474-.7.474-1.145zm-11.913-12.04c0-.455-.158-.842-.475-1.16l-3.49-3.536a1.563 1.563 0 0 0-1.153-.478c-.44 0-.825.154-1.152.461l-2.491 2.494c-.317.318-.475.7-.475 1.144 0 .455.158.842.475 1.161l3.524 3.552c.305.308.69.461 1.153.461.474 0 .88-.176 1.22-.53l-.322-.315c-.18-.177-.302-.299-.364-.367a4.061 4.061 0 0 1-.255-.325 1.378 1.378 0 0 1-.22-.435 1.75 1.75 0 0 1-.06-.47c0-.455.159-.842.475-1.161.317-.319.7-.478 1.153-.478.169 0 .324.02.466.06.14.04.285.113.432.222.147.108.254.193.322.256.067.062.189.185.364.367l.314.324c.372-.353.559-.768.559-1.246zm15.167 12.04c0 1.367-.48 2.522-1.44 3.467l-2.492 2.493c-.938.945-2.084 1.418-3.44 1.418-1.367 0-2.52-.484-3.457-1.452l-3.49-3.535c-.939-.945-1.407-2.1-1.407-3.467 0-1.4.497-2.59 1.49-3.569l-1.49-1.503c-.972 1.002-2.147 1.503-3.525 1.503-1.356 0-2.508-.478-3.457-1.434l-3.525-3.552c-.95-.957-1.424-2.118-1.424-3.484s.48-2.522 1.44-3.467l2.492-2.493c.938-.945 2.084-1.418 3.44-1.418 1.367 0 2.52.484 3.457 1.452l3.491 3.535c.938.945 1.407 2.1 1.407 3.467 0 1.4-.498 2.59-1.492 3.569l1.492 1.503c.971-1.002 2.146-1.503 3.524-1.503 1.356 0 2.508.478 3.457 1.434l3.525 3.553c.95.956 1.424 2.117 1.424 3.483z"/></g></g></svg>