<svg width="50" height="50" viewBox="0 0 50 50" xmlns="http://www.w3.org/2000/svg"><path d="M.983 23.814a3.356 3.356 0 0 1 0-4.746L11.068 8.983a3.356 3.356 0 0 1 4.746 0l17.203 17.203a3.356 3.356 0 0 1 0 4.746L22.932 41.017a3.356 3.356 0 0 1-4.746 0L.983 23.814Z" fill="#FC868B"/><path d="M16.983 19.068a3.356 3.356 0 0 0 0 4.746l4.53 4.53 7.063-6.598 4.441 4.44a3.356 3.356 0 0 1 0 4.747L28.56 35.39l5.627 5.627a3.356 3.356 0 0 0 4.746 0l10.085-10.085a3.356 3.356 0 0 0 0-4.746L31.814 8.983a3.356 3.356 0 0 0-4.746 0L16.983 19.068Z" fill="#985184"/></svg>
