<svg xmlns="http://www.w3.org/2000/svg" xmlns:xlink="http://www.w3.org/1999/xlink" width="38" height="38" viewBox="0 0 38 38">
    <defs>
        <rect id="fill" width="32" height="35" x="3" y="1" rx="3"/>
        <g id="loading">
            <path fill="#414141" d="M27.8 9.9c0 0.7-0.6 1.2-1.4 1.2h-2.7c-0.8 0-1.4-0.5-1.4-1.2V1.2c0-0.7 0.6-1.2 1.4-1.2h2.7 c0.8 0 1.4 0.5 1.4 1.2V9.9z"/>
            <path fill="#D2D2D2" d="M27.8 48.8c0 0.7-0.6 1.2-1.4 1.2h-2.7c-0.8 0-1.4-0.5-1.4-1.2v-8.7c0-0.7 0.6-1.2 1.4-1.2h2.7 c0.8 0 1.4 0.5 1.4 1.2V48.8z"/>
            <path fill="#828282" d="M13.3 15c0.6 0.3 0.7 1.2 0.3 1.8l-1.3 2.3c-0.4 0.7-1.2 1-1.8 0.6L3 15.5c-0.6-0.3-0.7-1.2-0.3-1.8L4 11.4 c0.4-0.7 1.2-1 1.8-0.6L13.3 15z"/>
            <path fill="#D2D2D2" d="M47 34.5c0.6 0.3 0.7 1.2 0.3 1.8L46 38.6c-0.4 0.7-1.2 1-1.8 0.6L36.7 35c-0.6-0.3-0.7-1.2-0.3-1.8l1.3-2.3 c0.4-0.7 1.2-1 1.8-0.6L47 34.5z"/>
            <path fill="#646464" d="M19.8 10.5c0.3 0.6 0 1.4-0.6 1.8l-2.3 1.3c-0.7 0.4-1.5 0.3-1.8-0.3l-4.3-7.5c-0.3-0.6 0-1.4 0.6-1.8 l2.3-1.3c0.7-0.4 1.5-0.3 1.8 0.3L19.8 10.5z"/>
            <path fill="#D2D2D2" d="M39.3 44.2c0.3 0.6 0 1.4-0.6 1.8l-2.3 1.3c-0.7 0.4-1.5 0.3-1.8-0.3l-4.3-7.5c-0.3-0.6 0-1.4 0.6-1.8 l2.3-1.3c0.7-0.4 1.5-0.3 1.8 0.3L39.3 44.2z"/>
            <path fill="#BEBEBE" d="M10.5 30.2c0.6-0.3 1.4 0 1.8 0.6l1.3 2.3c0.4 0.7 0.3 1.5-0.3 1.8l-7.5 4.3c-0.6 0.3-1.4 0-1.8-0.6 l-1.3-2.3c-0.4-0.7-0.3-1.5 0.3-1.8L10.5 30.2z"/>
            <path fill="#D2D2D2" d="M44.2 10.7c0.6-0.3 1.4 0 1.8 0.6l1.3 2.3c0.4 0.7 0.3 1.5-0.3 1.8l-7.5 4.3c-0.6 0.3-1.4 0-1.8-0.6 l-1.3-2.3c-0.4-0.7-0.3-1.5 0.3-1.8L44.2 10.7z"/>
            <path fill="#D2D2D2" d="M15 36.7c0.3-0.6 1.2-0.7 1.8-0.3l2.3 1.3c0.7 0.4 1 1.2 0.6 1.8L15.5 47c-0.3 0.6-1.2 0.7-1.8 0.3L11.4 46 c-0.7-0.4-1-1.2-0.6-1.8L15 36.7z"/>
            <path fill="#D2D2D2" d="M34.5 3c0.3-0.6 1.2-0.7 1.8-0.3L38.6 4c0.7 0.4 1 1.2 0.6 1.8L35 13.3c-0.3 0.6-1.2 0.7-1.8 0.3l-2.3-1.3 c-0.7-0.4-1-1.2-0.6-1.8L34.5 3z"/>
            <path fill="#D2D2D2" d="M40.1 27.8c-0.7 0-1.2-0.6-1.2-1.4v-2.7c0-0.8 0.5-1.4 1.2-1.4h8.7c0.7 0 1.2 0.6 1.2 1.4v2.7 c0 0.8-0.5 1.4-1.2 1.4H40.1z"/>
            <path fill="#9F9F9F" d="M1.2 27.8c-0.7 0-1.2-0.6-1.2-1.4l0-2.7c0-0.8 0.5-1.4 1.2-1.4h8.7c0.7 0 1.2 0.6 1.2 1.4v2.7 c0 0.8-0.5 1.4-1.2 1.4H1.2z"/>
        </g>
    </defs>
    <g fill="none" fill-rule="evenodd">
        <polygon fill="#929292" points="34 2 34 34 4 34"/>
        <use fill="#FFF" fill-opacity=".93" xlink:href="#fill"/>
        <rect width="30" height="33" x="4" y="2" stroke="#929292" stroke-width="2" rx="3"/>
        <g transform="scale(0.35) translate(30 28)">
            <use fill="#929292" fill-rule="nonzero" xlink:href="#loading">
                <animateTransform
                    attributeName="transform"
                    begin="0s"
                    dur="2s"
                    type="rotate"
                    from="0 25 25"
                    to="360 25 25"
                    repeatCount="indefinite" />
            </use>
        </g>
    </g>
</svg>
