<svg width="70" height="70" viewBox="0 0 70 70" fill="none" xmlns="http://www.w3.org/2000/svg">
<g clip-path="url(#clip0_160_30)">
<mask id="mask0_160_30" style="mask-type:alpha" maskUnits="userSpaceOnUse" x="0" y="0" width="70" height="70">
<path d="M4 0H65C69 0 70 1 70 5V65C70 69 69 70 65 70H4C1 70 0 69 0 65V5C0 1 1 0 4 0Z" fill="white"/>
</mask>
<g mask="url(#mask0_160_30)">
<path fill-rule="evenodd" clip-rule="evenodd" d="M0 0H70V70H0V0Z" fill="url(#paint0_linear_160_30)"/>
<path fill-rule="evenodd" clip-rule="evenodd" d="M4 1H65C67.667 1 69.333 1.667 70 3V0H0V3C0.667 1.667 2 1 4 1Z" fill="white" fill-opacity="0.383"/>
<path fill-rule="evenodd" clip-rule="evenodd" d="M4 69H65C67.667 69 69.333 68 70 66V70H0V66C0.667 68 2 69 4 69Z" fill="black" fill-opacity="0.383"/>
</g>
<path opacity="0.324" fill-rule="evenodd" clip-rule="evenodd" d="M4 69C2 69 0 68 0 65V39.5C0 39.5 16 23.703 17.5 22.703H31H37.25L48 23L51.576 24.968L51.34 46.978L39.224 69H4Z" fill="#393939"/>
<path fill-rule="evenodd" clip-rule="evenodd" d="M28 27.445H48.697C48.7874 27.4458 48.8737 27.4823 48.9372 27.5466C49.0008 27.6108 49.0363 27.6976 49.036 27.788V31H28.0612L31.7806 37.5H49.036V47.212C49.0363 47.3024 49.0008 47.3892 48.9372 47.4534C48.8737 47.5177 48.7874 47.5542 48.697 47.555H22.303C22.116 47.555 21.964 47.4 21.964 47.212V44H19.2595L19.25 47.555C19.25 49.069 20.464 50.297 21.964 50.297H49.036C50.537 50.297 51.75 49.069 51.75 47.555V27.445C51.75 25.931 50.536 24.703 49.036 24.703H28V27.445Z" fill="#465C68"/>
<path fill-rule="evenodd" clip-rule="evenodd" d="M28 25.445H48.697C48.7874 25.4458 48.8737 25.4823 48.9372 25.5466C49.0008 25.6108 49.0363 25.6976 49.036 25.788V29H28.0612L31.7806 35.5H49.036V45.212C49.0363 45.3024 49.0008 45.3892 48.9372 45.4534C48.8737 45.5177 48.7874 45.5542 48.697 45.555H22.303C22.116 45.555 21.964 45.4 21.964 45.212V42H19.2595L19.25 45.555C19.25 47.069 20.464 48.297 21.964 48.297H49.036C50.537 48.297 51.75 47.069 51.75 45.555V25.445C51.75 23.931 50.536 22.703 49.036 22.703H28V25.445Z" fill="white"/>
<path fill-rule="evenodd" clip-rule="evenodd" d="M19.9412 12.3794C19.9412 12.9967 19.4408 13.4971 18.8235 13.4971C18.2063 13.4971 17.7059 12.9967 17.7059 12.3794C17.7059 11.7622 18.2063 11.2618 18.8235 11.2618C19.4408 11.2618 19.9412 11.7622 19.9412 12.3794ZM22.7353 15.7324C23.6612 15.7324 24.4118 14.9818 24.4118 14.0559C24.4118 13.13 23.6612 12.3794 22.7353 12.3794C21.8094 12.3794 21.0588 13.13 21.0588 14.0559C21.0588 14.9818 21.8094 15.7324 22.7353 15.7324ZM19.3824 19.0853C20.3082 19.0853 21.0588 18.3347 21.0588 17.4088C21.0588 16.4829 20.3082 15.7324 19.3824 15.7324C18.4565 15.7324 17.7059 16.4829 17.7059 17.4088C17.7059 18.3347 18.4565 19.0853 19.3824 19.0853ZM22.3442 20.9457H18.3501C17.239 20.9457 16.7525 21.7025 16.7525 22.1642C16.7525 22.746 17.0797 23.2533 17.5645 23.5207C17.5558 23.5865 17.5513 23.6536 17.5513 23.7217V29.1963L11.2445 39.0567C10.581 40.0941 11.3461 41.4383 12.6002 41.4383H28.3998C29.6539 41.4383 30.419 40.0941 29.7555 39.0567L23.143 28.7184V23.7217C23.143 23.6536 23.1385 23.5865 23.1298 23.5207C23.6146 23.2533 23.9418 22.746 23.9418 22.1642C23.9418 21.7505 23.4553 20.9457 22.3442 20.9457ZM21.5454 23.7217L19.1489 23.7217V29.1963C19.1489 29.4877 19.0651 29.7732 18.907 30.0204L12.6002 39.8808H28.3998L21.7873 29.5425C21.6292 29.2953 21.5454 29.0098 21.5454 28.7184V23.7217ZM26.3383 38.9073H14.356L17.5629 34.0442C17.7835 33.7096 18.2294 33.5929 18.6259 33.6864C19.2966 33.8445 20.2476 33.894 21.146 33.4561C22.4241 32.8331 23.2762 33.7157 23.5424 34.2348L26.3383 38.9073Z" fill="#465C68"/>
<path fill-rule="evenodd" clip-rule="evenodd" d="M19.9412 10.3794C19.9412 10.9967 19.4408 11.4971 18.8235 11.4971C18.2063 11.4971 17.7059 10.9967 17.7059 10.3794C17.7059 9.76217 18.2063 9.26178 18.8235 9.26178C19.4408 9.26178 19.9412 9.76217 19.9412 10.3794ZM22.7353 13.7324C23.6612 13.7324 24.4118 12.9818 24.4118 12.0559C24.4118 11.13 23.6612 10.3794 22.7353 10.3794C21.8094 10.3794 21.0588 11.13 21.0588 12.0559C21.0588 12.9818 21.8094 13.7324 22.7353 13.7324ZM19.3824 17.0853C20.3082 17.0853 21.0588 16.3347 21.0588 15.4088C21.0588 14.4829 20.3082 13.7324 19.3824 13.7324C18.4565 13.7324 17.7059 14.4829 17.7059 15.4088C17.7059 16.3347 18.4565 17.0853 19.3824 17.0853ZM22.3442 18.9457H18.3501C17.239 18.9457 16.7525 19.7025 16.7525 20.1642C16.7525 20.746 17.0797 21.2533 17.5645 21.5207C17.5558 21.5865 17.5513 21.6536 17.5513 21.7217V27.1963L11.2445 37.0567C10.581 38.0941 11.3461 39.4383 12.6002 39.4383H28.3998C29.6539 39.4383 30.419 38.0941 29.7555 37.0567L23.143 26.7184V21.7217C23.143 21.6536 23.1385 21.5865 23.1298 21.5207C23.6146 21.2533 23.9418 20.746 23.9418 20.1642C23.9418 19.7505 23.4553 18.9457 22.3442 18.9457ZM21.5454 21.7217L19.1489 21.7217V27.1963C19.1489 27.4877 19.0651 27.7732 18.907 28.0204L12.6002 37.8808H28.3998L21.7873 27.5425C21.6292 27.2953 21.5454 27.0098 21.5454 26.7184V21.7217ZM26.3383 36.9073H14.356L17.5629 32.0442C17.7835 31.7096 18.2294 31.5929 18.6259 31.6864C19.2966 31.8445 20.2476 31.894 21.146 31.4561C22.4241 30.8331 23.2762 31.7157 23.5424 32.2348L26.3383 36.9073Z" fill="white"/>
</g>
<defs>
<linearGradient id="paint0_linear_160_30" x1="70" y1="0" x2="0" y2="70" gradientUnits="userSpaceOnUse">
<stop stop-color="#CDC484"/>
<stop offset="1" stop-color="#B5AA59"/>
</linearGradient>
<clipPath id="clip0_160_30">
<rect width="70" height="70" fill="white"/>
</clipPath>
</defs>
</svg>
