
<svg version="1.1" id="Layer_1" xmlns="http://www.w3.org/2000/svg" xmlns:xlink="http://www.w3.org/1999/xlink" x="0px" y="0px"
	 viewBox="0 0 1400 570" style="enable-background:new 0 0 1400 570;" xml:space="preserve">
<style type="text/css">
	.st0{opacity:0.73;fill:#3AADAA;enable-background:new    ;}
	.st1{opacity:0.42;fill:#3AADAA;enable-background:new    ;}
	.st2{fill:#3AADAA;}
	.st3{opacity:0.81;fill:#3AADAA;enable-background:new    ;}
	.st4{opacity:0.84;fill:#3AADAA;enable-background:new    ;}
	.st5{fill:#FFFFFF;}
</style>
<g>
	<polygon class="st0" points="198.8,467.2 34.9,502.1 34.9,526.4 198.8,491.5 	"/>
	<polygon class="st1" points="87.4,567.3 251.4,532.4 251.4,515.7 87.4,550.6 	"/>
	<polygon class="st2" points="280.8,474.1 198.8,491.5 198.8,502.6 34.9,537.4 34.9,526.4 0,533.8 0,569.2 87.4,550.6 87.4,543 
		251.4,508.1 251.4,515.7 280.8,509.5 	"/>
	<polygon class="st3" points="87.4,543 87.4,550.6 251.4,515.7 251.4,508.1 	"/>
	<polygon class="st1" points="198.8,502.9 198.8,491.8 34.9,526.6 34.9,537.7 	"/>
</g>
<g>
	<polygon class="st0" points="1159.2,354.5 1314.4,321.3 1314.4,291.9 1159.2,325.1 	"/>
	<polygon class="st1" points="1314.4,235.5 1229,253.1 1229,267.4 1314.4,249.2 	"/>
	<polygon class="st1" points="1400,231.1 1314.4,249.2 1314.4,265 1229,282.6 1229,267.4 1059.8,303.4 1059.8,346.2 1159.2,325.1 
		1159.2,304 1314.4,270.8 1314.4,291.9 1400,273.9 	"/>
	<polygon class="st4" points="1314.4,265 1314.4,249.2 1229,267.4 1229,282.6 	"/>
	<polygon class="st5" points="1159.2,304 1159.2,325.1 1314.4,291.9 1314.4,270.8 	"/>
</g>
</svg>
