<svg version="1.1" id="Layer_1" xmlns="http://www.w3.org/2000/svg" x="0px" y="0px"
	 viewBox="0 0 1400 570" style="enable-background:new 0 0 1400 570;" xml:space="preserve">
<style type="text/css">
	.st0{fill:#F6F6F6;}
	.st1{fill:#7C6576;}
	.st2{fill:#3AADAA;}
	.st3{opacity:0.29;fill:#383E45;enable-background:new;}
	.st4{opacity:0.4;fill:#3AADAA;}
	.st5{opacity:8.000000e-02;}
	.st6{fill:#383E45;}
	.st7{opacity:8.000000e-02;enable-background:new;}
</style>
<polygon class="st0" points="0,569.7 1400,570 1400,323.1 0,570"/>
<g>
	<polygon class="st1" points="288.3,477.8 172.6,498.2 172.6,539.6 288.3,519.2"/>
	<polygon class="st2" points="347.9,426 232.2,446.4 232.2,487.8 347.9,467.4"/>
</g>
<g>
	<polygon class="st1" points="1180.3,403.9 1353.1,373.4 1353.1,331.4 1180.3,361.9"/>
</g>
<polygon class="st2" points="1400,323.1 1244.9,350.5 1244.9,303.8 1400,276.5"/>
<polygon class="st3" points="1244.9,350.5 1072.2,380.9 1072.2,334.3 1244.9,303.8 "/>
<polygon class="st4" points="1400,365.1 1353.1,373.4 1353.1,331.4 1400,323.1 "/>
<g class="st5">
	<path class="st6" d="M1351.1,375.8V414l-83,14.5v-38.2L1351.1,375.8 M1353.1,373.4l-87,15.2v42.2l87-15.2V373.4L1353.1,373.4z"/>
</g>
<polygon class="st3" points="0,528.7 172.6,498.2 172.6,539.6 0,570 "/>
<g class="st7">
	<path class="st6" d="M230.2,448.8v37.2l-187.4,33v-37.2L230.2,448.8 M232.2,446.4L40.7,480.2v41.3l191.4-33.7V446.4L232.2,446.4z"/>
</g>
</svg>
