<svg width="70" height="70" viewBox="0 0 70 70" fill="none" xmlns="http://www.w3.org/2000/svg">
<path d="M44 27C44 31.9706 39.9706 36 35 36C30.0294 36 26 31.9706 26 27C26 22.0294 30.0294 18 35 18C39.9706 18 44 22.0294 44 27Z" fill="#985184"/>
<path d="M22 34C22 36.2091 20.2091 38 18 38C15.7909 38 14 36.2091 14 34C14 31.7909 15.7909 30 18 30C20.2091 30 22 31.7909 22 34Z" fill="#FBB945"/>
<path d="M56 34C56 36.2091 54.2091 38 52 38C49.7909 38 48 36.2091 48 34C48 31.7909 49.7909 30 52 30C54.2091 30 56 31.7909 56 34Z" fill="#1AD3BB"/>
<path d="M35 40H14C11.7909 40 10 41.7909 10 44V48C10 50.2091 11.7909 52 14 52H35V40Z" fill="#FBB945"/>
<path d="M56 40H35V52H56C58.2091 52 60 50.2091 60 48V44C60 41.7909 58.2091 40 56 40Z" fill="#1AD3BB"/>
<path d="M22 40H36C42.6274 40 48 45.3726 48 52H34C27.3726 52 22 46.6274 22 40Z" fill="#985184"/>
</svg>
