<svg xmlns="http://www.w3.org/2000/svg" xmlns:xlink="http://www.w3.org/1999/xlink" width="70" height="70" viewBox="0 0 70 70">
    <defs>
        <path id="icon-a" d="M4,5.35309892e-14 C36.4160122,9.87060235e-15 58.0836068,-3.97961823e-14 65,5.07020818e-14 C69,6.733808e-14 70,1 70,5 C70,43.0488877 70,62.4235458 70,65 C70,69 69,70 65,70 C61,70 9,70 4,70 C1,70 7.10542736e-15,69 7.10542736e-15,65 C7.25721566e-15,62.4676575 3.83358709e-14,41.8005206 3.60818146e-14,5 C-1.13686838e-13,1 1,5.75716207e-14 4,5.35309892e-14 Z"/>
        <linearGradient id="icon-c" x1="100%" x2="0%" y1="0%" y2="100%">
            <stop offset="0%" stop-color="#269396"/>
            <stop offset="100%" stop-color="#218689"/>
        </linearGradient>
        <path id="icon-d" d="M35.5,22.75 C39.6529297,22.75 43.0195312,26.1166016 43.0195312,30.2695312 C43.0195312,34.4224609 39.6529297,37.7890625 35.5,37.7890625 C31.3470703,37.7890625 27.9804687,34.4224609 27.9804687,30.2695312 C27.9804687,26.1166016 31.3470703,22.75 35.5,22.75 Z M43.6256055,38.3165755 L40.7623112,37.6007161 C37.2411654,40.1333659 32.9730794,39.5681836 30.2377604,37.6007161 L27.3744661,38.3165755 C25.0790039,38.8904232 23.46875,40.9527799 23.46875,43.3188542 L23.46875,47.671875 C23.46875,49.0957161 24.6230339,50.25 26.046875,50.25 L44.953125,50.25 C46.3769661,50.25 47.53125,49.0957161 47.53125,47.671875 L47.53125,43.3188542 C47.53125,40.9527799 45.9209961,38.8904232 43.6256055,38.3165755 Z M50.3958333,39.6510417 C53.1644531,39.6510417 55.4088542,37.4066406 55.4088542,34.6380208 C55.4088542,31.869401 53.1644531,29.625 50.3958333,29.625 C47.6272135,29.625 45.3828125,31.869401 45.3828125,34.6380208 C45.3828125,37.4066406 47.6272135,39.6510417 50.3958333,39.6510417 Z M20.6041667,39.6510417 C23.3727865,39.6510417 25.6171875,37.4066406 25.6171875,34.6380208 C25.6171875,31.869401 23.3727865,29.625 20.6041667,29.625 C17.8355469,29.625 15.5911458,31.869401 15.5911458,34.6380208 C15.5911458,37.4066406 17.8355469,39.6510417 20.6041667,39.6510417 Z M22.3229167,47.671875 L22.3229167,43.3188542 C22.3229167,42.1335612 22.6518424,41.0125781 23.2326367,40.0533008 C21.0850586,41.1074674 18.6968555,40.6769206 17.0959831,39.5255013 L15.1870964,40.0027409 C13.6568359,40.3852344 12.5833333,41.7602344 12.5833333,43.3375456 L12.5833333,46.2395833 C12.5833333,47.1888346 13.352832,47.9583333 14.3020833,47.9583333 L22.3350195,47.9583333 C22.3273388,47.8630362 22.3233016,47.7674804 22.3229167,47.671875 Z M55.8129036,40.0026693 L53.9040169,39.5254297 C51.9041797,40.9638802 49.5434049,40.902793 47.7604883,40.0423437 C48.3454362,41.004056 48.6770833,42.1289779 48.6770833,43.3188542 L48.6770833,47.671875 C48.6770833,47.7683398 48.6722135,47.8636589 48.6649805,47.9583333 L56.6979167,47.9583333 C57.647168,47.9583333 58.4166667,47.1888346 58.4166667,46.2395833 L58.4166667,43.3375456 C58.4166667,41.7602344 57.3431641,40.3852344 55.8129036,40.0026693 Z"/>
        <path id="icon-e" d="M35.5,20.75 C39.6529297,20.75 43.0195312,24.1166016 43.0195312,28.2695312 C43.0195312,32.4224609 39.6529297,35.7890625 35.5,35.7890625 C31.3470703,35.7890625 27.9804687,32.4224609 27.9804687,28.2695312 C27.9804687,24.1166016 31.3470703,20.75 35.5,20.75 Z M43.6256055,36.3165755 L40.7623112,35.6007161 C37.2411654,38.1333659 32.9730794,37.5681836 30.2377604,35.6007161 L27.3744661,36.3165755 C25.0790039,36.8904232 23.46875,38.9527799 23.46875,41.3188542 L23.46875,45.671875 C23.46875,47.0957161 24.6230339,48.25 26.046875,48.25 L44.953125,48.25 C46.3769661,48.25 47.53125,47.0957161 47.53125,45.671875 L47.53125,41.3188542 C47.53125,38.9527799 45.9209961,36.8904232 43.6256055,36.3165755 Z M50.3958333,37.6510417 C53.1644531,37.6510417 55.4088542,35.4066406 55.4088542,32.6380208 C55.4088542,29.869401 53.1644531,27.625 50.3958333,27.625 C47.6272135,27.625 45.3828125,29.869401 45.3828125,32.6380208 C45.3828125,35.4066406 47.6272135,37.6510417 50.3958333,37.6510417 Z M20.6041667,37.6510417 C23.3727865,37.6510417 25.6171875,35.4066406 25.6171875,32.6380208 C25.6171875,29.869401 23.3727865,27.625 20.6041667,27.625 C17.8355469,27.625 15.5911458,29.869401 15.5911458,32.6380208 C15.5911458,35.4066406 17.8355469,37.6510417 20.6041667,37.6510417 Z M22.3229167,45.671875 L22.3229167,41.3188542 C22.3229167,40.1335612 22.6518424,39.0125781 23.2326367,38.0533008 C21.0850586,39.1074674 18.6968555,38.6769206 17.0959831,37.5255013 L15.1870964,38.0027409 C13.6568359,38.3852344 12.5833333,39.7602344 12.5833333,41.3375456 L12.5833333,44.2395833 C12.5833333,45.1888346 13.352832,45.9583333 14.3020833,45.9583333 L22.3350195,45.9583333 C22.3273388,45.8630362 22.3233016,45.7674804 22.3229167,45.671875 Z M55.8129036,38.0026693 L53.9040169,37.5254297 C51.9041797,38.9638802 49.5434049,38.902793 47.7604883,38.0423437 C48.3454362,39.004056 48.6770833,40.1289779 48.6770833,41.3188542 L48.6770833,45.671875 C48.6770833,45.7683398 48.6722135,45.8636589 48.6649805,45.9583333 L56.6979167,45.9583333 C57.647168,45.9583333 58.4166667,45.1888346 58.4166667,44.2395833 L58.4166667,41.3375456 C58.4166667,39.7602344 57.3431641,38.3852344 55.8129036,38.0026693 Z"/>
    </defs>
    <g fill="none" fill-rule="evenodd">
        <mask id="icon-b" fill="#fff">
            <use xlink:href="#icon-a"/>
        </mask>
        <g mask="url(#icon-b)">
            <rect width="70" height="70" fill="url(#icon-c)"/>
            <path fill="#FFF" fill-opacity=".383" d="M4,1.8 L65,1.8 C67.6666667,1.8 69.3333333,1.13333333 70,-0.2 C70,2.46666667 70,3.46666667 70,2.8 L1.10547097e-14,2.8 C-1.65952376e-14,3.46666667 -2.9161925e-14,2.46666667 -2.66453526e-14,-0.2 C0.666666667,1.13333333 2,1.8 4,1.8 Z" transform="matrix(1 0 0 -1 0 2.8)"/>
            <path fill="#393939" d="M44,47 L4,47 C2,47 -7.10542736e-15,46.8509317 0,42.826087 L1.81527147e-16,22.6291049 L17.2090667,6.04664397 L19.583071,9.5209307 L30.2767729,0.11143939 L40.9146315,10.270152 L46.6446282,6.41116033 L55.3045682,10.7749724 L52.3812234,16.1277957 L58.2417324,21.9036543 L44,47 Z" opacity=".324" transform="translate(0 23)"/>
            <path fill="#000" fill-opacity=".383" d="M4,4 L65,4 C67.6666667,4 69.3333333,3 70,1 C70,3.66666667 70,5 70,5 L1.77635684e-15,5 C1.77635684e-15,5 1.77635684e-15,3.66666667 1.77635684e-15,1 C0.666666667,3 2,4 4,4 Z" transform="translate(0 65)"/>
            <use fill="#000" fill-rule="nonzero" opacity=".3" xlink:href="#icon-d"/>
            <use fill="#FFF" fill-rule="nonzero" xlink:href="#icon-e"/>
        </g>
    </g>
</svg>
