<svg width="82" height="60" viewBox="0 0 82 60" fill="none" xmlns="http://www.w3.org/2000/svg">
    <path d="M72 16H44V44H72V16Z" fill="url(#paint0_linear_79_176)"/>
    <path d="M63.2674 32.125H56.1423L56.3015 32.9374H62.8256C63.1998 32.9374 63.4773 33.3006 63.3943 33.6818L63.2601 34.2982C63.7145 34.5286 64.0277 35.015 64.0277 35.578C64.0277 36.3702 63.4076 37.0112 62.6465 36.9998C61.9217 36.9888 61.3257 36.3744 61.306 35.6174C61.2954 35.2038 61.454 34.829 61.7144 34.5624H56.6189C56.8712 34.8206 57.0278 35.18 57.0278 35.578C57.0278 36.3858 56.383 37.0362 55.6018 36.9984C54.9082 36.9648 54.3439 36.3792 54.3075 35.6548C54.2794 35.0952 54.5611 34.6022 54.9893 34.345L53.2819 25.625H51.5833C51.2611 25.625 51 25.3522 51 25.0156V24.6092C51 24.2728 51.2611 24 51.5833 24H54.0753C54.3524 24 54.5914 24.2036 54.6469 24.4872L54.8696 25.625H64.4164C64.7906 25.625 65.0681 25.988 64.9853 26.3694L63.8361 31.6506C63.7758 31.928 63.5397 32.125 63.2674 32.125Z" fill="white"/>
    <rect x="10" y="21" width="21" height="2" fill="#666666"/>
    <rect x="10" y="25" width="12" height="2" fill="#666666"/>
    <rect x="10" y="29" width="17" height="2" fill="#666666"/>
    <rect x="10" y="33" width="23" height="2" fill="#666666"/>
    <rect x="10" y="37" width="19" height="2" fill="#666666"/>
    <defs>
        <linearGradient id="paint0_linear_79_176" x1="40.1366" y1="-6.32337" x2="68.1363" y2="-3.90169" gradientUnits="userSpaceOnUse">
            <stop stop-color="#00A09D"/>
            <stop offset="1" stop-color="#00C0D9"/>
        </linearGradient>
    </defs>
</svg>
