<svg width="50" height="50" viewBox="0 0 50 50" xmlns="http://www.w3.org/2000/svg"><path d="m25 4 6.857 4L15.5 19v16l.5 5.75-9-5.25v-21L25 4Z" fill="var(--o-icons-yellow-pure, #FBB130)"/><path d="m25 4 6.857 4L15.5 19v16l.5 5.75-9-5.25v-21L25 4Z" fill="url(#o_icon_stock__a)" fill-opacity=".2"/><path d="m18.086 41.967-6.138-3.58V17.5L30.046 6.943l6.282 3.665L22 23.5l-3.914 18.467Z" fill="var(--o-icons-red-yellow, #F85318)"/><path d="m18.086 41.967-6.138-3.58V17.5L30.046 6.943l6.282 3.665L22 23.5l-3.914 18.467Z" fill="url(#o_icon_stock__b)" fill-opacity=".2"/><path d="M36.328 10.608 43 14.5v21L25 46l-6.914-4.033V21.25l18.242-10.642Z" fill="var(--o-icons-purple-pure, #93407D)"/><path d="M36.328 10.608 43 14.5v21L25 46l-6.914-4.033V21.25l18.242-10.642Z" fill="url(#o_icon_stock__c)" fill-opacity=".2"/><defs><linearGradient id="o_icon_stock__a" x1="7" y1="4" x2="37.208" y2="9.108" gradientUnits="userSpaceOnUse"><stop stop-color="#fff"/><stop offset="1" stop-color="#fff" stop-opacity="0"/></linearGradient><linearGradient id="o_icon_stock__b" x1="11.948" y1="6.943" x2="41.528" y2="12.091" gradientUnits="userSpaceOnUse"><stop stop-color="#fff"/><stop offset="1" stop-color="#fff" stop-opacity="0"/></linearGradient><linearGradient id="o_icon_stock__c" x1="18.086" y1="10.608" x2="48.293" y2="15.924" gradientUnits="userSpaceOnUse"><stop stop-color="#fff"/><stop offset="1" stop-color="#fff" stop-opacity="0"/></linearGradient></defs></svg>
