<?xml version="1.0" encoding="utf-8"?>
<!-- Generator: Adobe Illustrator 23.0.4, SVG Export Plug-In . SVG Version: 6.00 Build 0)  -->
<svg version="1.1" id="Layer_1" xmlns="http://www.w3.org/2000/svg" xmlns:xlink="http://www.w3.org/1999/xlink" x="0px" y="0px"
	 viewBox="0 0 70 70" style="enable-background:new 0 0 70 70;" xml:space="preserve">
<style type="text/css">
	.st0{filter:url(#Adobe_OpacityMaskFilter);}
	.st1{fill-rule:evenodd;clip-rule:evenodd;fill:#FFFFFF;}
	.st2{mask:url(#icon-b_1_);}
	.st3{fill-rule:evenodd;clip-rule:evenodd;fill:url(#SVGID_1_);}
	.st4{fill-rule:evenodd;clip-rule:evenodd;fill:#FFFFFF;fill-opacity:0.383;}
	.st5{fill-rule:evenodd;clip-rule:evenodd;fill-opacity:0.151;}
	.st6{fill-rule:evenodd;clip-rule:evenodd;fill-opacity:0.383;}
	.st7{opacity:0.5;}
	.st8{fill:#FFFFFF;}
	.st9{filter:url(#Adobe_OpacityMaskFilter_1_);}
	.st10{mask:url(#icon-b_2_);}
	.st11{fill-rule:evenodd;clip-rule:evenodd;fill:url(#SVGID_2_);}
	.st12{fill-rule:evenodd;clip-rule:evenodd;fill:url(#SVGID_3_);}
</style>
<defs>
	<filter id="Adobe_OpacityMaskFilter" filterUnits="userSpaceOnUse" x="-0.1" y="-0.2" width="70.1" height="70.2">
		<feColorMatrix  type="matrix" values="1 0 0 0 0  0 1 0 0 0  0 0 1 0 0  0 0 0 1 0"/>
	</filter>
</defs>
<mask maskUnits="userSpaceOnUse" x="-0.1" y="-0.2" width="70.1" height="70.2" id="icon-b_2_">
	<g class="st0">
		<path id="icon-a_2_" class="st1" d="M4,0c32.4,0,54.1,0,61,0c4,0,5,1,5,5c0,38,0,57.4,0,60c0,4-1,5-5,5S9,70,4,70c-3,0-4-1-4-5
			c0-2.5,0-23.2,0-60C0,1,1,0,4,0z"/>
	</g>
</mask>
<g class="st10">
	
		<linearGradient id="SVGID_1_" gradientUnits="userSpaceOnUse" x1="-636.7537" y1="415.0251" x2="-637.7537" y2="414.0389" gradientTransform="matrix(70 0 0 -70 44643 29052)">
		<stop  offset="0" style="stop-color:#797C79"/>
		<stop  offset="1" style="stop-color:#545554"/>
	</linearGradient>
	<path class="st3" d="M0,0h70v70H0V0z"/>
	<path class="st6" d="M4,69h61c2.7,0,4.3-1,5-3v4H0v-4C0.7,68,2,69,4,69z"/>
	
		<linearGradient id="SVGID_2_" gradientUnits="userSpaceOnUse" x1="-636.7571" y1="415.0286" x2="-637.7571" y2="414.0286" gradientTransform="matrix(70 0 0 -70 44643 29052)">
		<stop  offset="0" style="stop-color:#94B6C8"/>
		<stop  offset="1" style="stop-color:#6A9EBA"/>
	</linearGradient>
	<path class="st11" d="M0,0h70v70H0V0z"/>
	<path class="st4" d="M4,1h61c2.7,0,4.3,0.7,5,2c0-2.7,0-3.7,0-3H0c0-0.7,0,0.3,0,3C0.7,1.7,2,1,4,1z"/>
	<path class="st6" d="M4,69h61c2.7,0,4.3-1,5-3v4H0v-4C0.7,68,2,69,4,69z"/>
	<g transform="translate(0 22)">
		<g>
			<path id="icon-d_1_" class="st5" d="M4,46.9c-2,0-4-1-4-4.1V7l18.6-18.9h25.7l1.2,8.5l-1.9,1.9l11.1,7.6v8.3l-9.1,9.3l-0.7,11.7
				L32.2,46.9H4z"/>
		</g>
	</g>
	<path class="st7" d="M45.4,12.1c0-1.1-0.9-2-2-2H20.1c-1.1,0-2,0.9-2,2v44.6c0,1.1,0.9,2,2,2h23.3c1.1,0,2-0.9,2-2V42.7
		c-0.7,0.5-1.5,1-2.3,1.4v9.3c0,0.2-0.1,0.3-0.3,0.3H20.7c-0.2,0-0.3-0.1-0.3-0.3v-37c0-0.2,0.1-0.3,0.3-0.3h22.1
		c0.2,0,0.3,0.1,0.3,0.3v2.8c0.5,0,1.1-0.1,1.6-0.1c0.2,0,0.5,0,0.7,0V12.1z M31.8,54.5c0.8,0,1.5,0.7,1.5,1.5
		c0,0.8-0.7,1.5-1.5,1.5c-0.8,0-1.5-0.7-1.5-1.5C30.3,55.2,31,54.5,31.8,54.5z M34.9,14.6h-6.1c-0.3,0-0.5-0.2-0.5-0.5
		s0.2-0.5,0.5-0.5h6.1c0.3,0,0.5,0.2,0.5,0.5S35.1,14.6,34.9,14.6z"/>
	<path class="st8" d="M44.7,41.7c-0.5,0-1.1,0-1.6-0.1v11.1c0,0.2-0.1,0.3-0.3,0.3H20.7c-0.2,0-0.3-0.1-0.3-0.3v-37
		c0-0.2,0.1-0.3,0.3-0.3h22.1c0.2,0,0.3,0.1,0.3,0.3v2.9c0.5,0,1.1-0.1,1.6-0.1c0.2,0,0.5,0,0.7,0v-7.2c0-1.1-0.9-2-2-2H20.1
		c-1.1,0-2,0.9-2,2V56c0,1.1,0.9,2,2,2h23.3c1.1,0,2-0.9,2-2V41.7C45.2,41.7,44.9,41.7,44.7,41.7z M28.7,13h6.1
		c0.3,0,0.5,0.2,0.5,0.5S35.1,14,34.9,14h-6.1c-0.3,0-0.5-0.2-0.5-0.5S28.4,13,28.7,13z M31.8,56.9c-0.8,0-1.5-0.7-1.5-1.5
		c0-0.8,0.7-1.5,1.5-1.5c0.8,0,1.5,0.7,1.5,1.5C33.3,56.3,32.6,56.9,31.8,56.9z"/>
</g>
<path id="icon-e" class="st7" d="M44.7,40.6c-2.2,0-4.3-0.4-6.1-1.1c-1.8,1.5-4.1,2.3-6.5,2.6c0,0,0,0-0.1,0c-0.2,0-0.4-0.1-0.5-0.4
	c-0.1-0.2,0.1-0.4,0.3-0.5c0.9-0.9,1.9-1.5,2.4-4.4c-1.7-1.6-2.7-3.6-2.7-5.8c0-5.3,5.9-9.7,13.1-9.7s13.1,4.3,13.1,9.7
	C57.8,36.3,51.9,40.6,44.7,40.6z"/>
<path class="st8" d="M44.7,39.7c-2.2,0-4.3-0.4-6.1-1.1c-1.8,1.5-4.1,2.3-6.5,2.6c0,0,0,0-0.1,0c-0.2,0-0.4-0.1-0.5-0.4
	c-0.1-0.2,0.1-0.4,0.3-0.5c0.9-0.9,1.9-1.5,2.4-4.4c-1.7-1.6-2.7-3.6-2.7-5.8c0-5.3,5.9-9.7,13.1-9.7s13.1,4.3,13.1,9.7
	C57.8,35.4,51.9,39.7,44.7,39.7z"/>
</svg>
