<svg width="30" height="49" fill="none" xmlns="http://www.w3.org/2000/svg"><g clip-path="url(#a)"><path d="m6.722 13.194.56 26.55s-.118 6.682 5.755 8.048l3.253-1.95 3.328-1.943 3.337-2.025 3.216-1.952 3.066-1.86s-4.48.355-5.04-3.855c-.56-4.21 0-24.426 0-24.426s-.15-7.9-7.076-8.573L2.1 8.918s4.62-.199 4.62 4.276Z" fill="#fff"/><path d="M.785 12.746S.337 8.489 3.473 8.6c3.137.112 3.249 4.593 3.249 4.593L.766 16.33l.019-3.584Z" fill="#FBDBD0"/><path d="M11.387 20.271a.177.177 0 0 1-.093-.327l4.492-2.774a.177.177 0 1 1 .186.301l-4.492 2.774a.175.175 0 0 1-.093.026ZM12.785 15.83a.177.177 0 0 1-.093-.328l6.376-3.938a.177.177 0 1 1 .186.301l-6.376 3.938a.175.175 0 0 1-.093.026ZM11.387 25.926a.177.177 0 0 1-.093-.328l9.424-5.82a.177.177 0 0 1 .186.301L11.48 25.9a.175.175 0 0 1-.093.027ZM11.387 31.58a.177.177 0 0 1-.093-.327l9.424-5.82a.177.177 0 0 1 .186.301l-9.424 5.82a.176.176 0 0 1-.093.027ZM16.457 34.105a.177.177 0 0 1-.093-.328l4.354-2.689a.177.177 0 0 1 .186.301l-4.354 2.69a.175.175 0 0 1-.093.026ZM11.492 28.643a.177.177 0 0 1-.093-.328l9.423-5.819a.177.177 0 1 1 .186.302l-9.423 5.82a.175.175 0 0 1-.093.026Z" fill="#374874"/><path d="M17.12 1.208c6.927.672 7.076 8.573 7.076 8.573s-.56 20.216 0 24.426c.48 3.602 3.829 3.862 4.786 3.862.161 0 .255-.007.255-.007l-3.066 1.86-3.216 1.952-3.337 2.025-3.329 1.944-3.252 1.949c-5.874-1.366-5.756-8.047-5.756-8.047l-.56-26.551L.765 16.33l.02-3.584s-.3-2.86 1.319-3.829H2.1l.047-.024c.051-.029.104-.056.16-.082L17.12 1.208Zm12.117 36.854ZM17.12.5a.708.708 0 0 0-.324.078l-14.8 7.597c-.062.028-.123.06-.185.095l-.035.017a.708.708 0 0 0-.095.06C-.14 9.498.042 12.373.076 12.776l-.019 3.55a.708.708 0 0 0 1.038.63l4.943-2.603.535 25.394c-.001.194.006 1.89.722 3.761 1.01 2.639 2.94 4.358 5.582 4.973a.709.709 0 0 0 .524-.083l3.252-1.949 3.322-1.94a.25.25 0 0 0 .01-.006l3.337-2.025 3.216-1.951 3.053-1.853a.708.708 0 0 0-.335-1.32l-.019-.001a.8.8 0 0 0-.058.002c-.014.001-.085.005-.197.005-1.098 0-3.694-.316-4.084-3.247-.546-4.107 0-24.112.006-24.313v-.033c-.002-.087-.05-2.142-1-4.306C22.614 2.52 20.291.804 17.19.503A.71.71 0 0 0 17.12.5Z" fill="#374874"/></g><defs><clipPath id="a"><path fill="#fff" transform="translate(.055 .5)" d="M0 0h29.891v48H0z"/></clipPath></defs></svg>