<svg width="48" height="49" fill="none" xmlns="http://www.w3.org/2000/svg"><path d="m27.852 42.69-8.991-4.524-.018-5.274 8.992 4.525.017 5.274Z" fill="#FBDBD0"/><path d="M38.313 8.79c4.007-2.004 7.295-.38 7.309 3.609l.029 8.85c.013 3.987-3.254 8.888-7.262 10.891L27.852 42.69l-.017-5.273-6.774 3.387c-4.007 2.004-7.295.38-7.308-3.607l-.03-8.85c-.012-3.987 3.255-8.89 7.262-10.893L38.313 8.79Z" fill="#fff"/><path d="m13.753 37.197-.03-8.85c-.006-1.998.811-4.226 2.133-6.203l-8.983-4.538c-1.326 1.98-2.147 4.214-2.14 6.216l.028 8.85c.007 1.981.822 3.378 2.131 4.038l8.991 4.525c-1.31-.66-2.124-2.057-2.13-4.038ZM34.499 3.835c-1.327-.668-3.161-.578-5.177.43l-17.328 8.664c-1.995.997-3.806 2.713-5.12 4.677l8.982 4.538c1.315-1.97 3.13-3.69 5.129-4.69L38.313 8.79c2.016-1.008 3.85-1.098 5.177-.43l-8.991-4.525Z" fill="#FBDBD0"/><path d="M32.573 3.406c.716 0 1.366.147 1.926.429l8.99 4.525-.012-.006c1.318.657 2.138 2.057 2.145 4.045l.029 8.85c.013 3.987-3.254 8.887-7.262 10.891L27.852 42.69l-5.265-2.649-1.526.763c-1.165.582-2.268.858-3.248.858-.766 0-1.456-.168-2.042-.49.038.021.074.043.112.063l-8.99-4.525c-1.31-.66-2.125-2.057-2.132-4.038l-.029-8.85c-.013-3.987 3.254-8.89 7.262-10.893l17.328-8.664c1.165-.583 2.27-.859 3.251-.859ZM43.489 8.36ZM32.573 2.72c-1.125 0-2.323.314-3.558.932l-17.328 8.663c-4.227 2.114-7.654 7.277-7.64 11.51l.029 8.85c.007 2.154.92 3.848 2.508 4.647l8.991 4.525a.71.71 0 0 0 .059.026c.648.315 1.38.474 2.179.474 1.124 0 2.32-.312 3.555-.93l1.218-.609 4.958 2.495a.684.684 0 0 0 .793-.128l10.46-10.473c4.18-2.144 7.553-7.258 7.54-11.456l-.03-8.85c-.007-2.145-.912-3.832-2.486-4.636a.512.512 0 0 0-.014-.008l-.01-.005-8.99-4.525c-.662-.333-1.413-.501-2.234-.501Z" fill="#374874"/></svg>