<svg width="48" height="49" fill="none" xmlns="http://www.w3.org/2000/svg"><path d="M32.98 5.45 8.62 19.516a3.223 3.223 0 0 0-1.611 2.8l.044 15.728c.004 1.375.977 1.93 2.174 1.238L30.87 26.786c1.196-.69 2.163-2.366 2.16-3.74L32.98 5.45Z" fill="#FBDBD0"/><path d="M34.474 6.517 9.688 20.827v19.816c.308.014.66-.08 1.034-.296l21.642-12.495c1.197-.69 2.164-2.366 2.16-3.74l-.05-17.595Z" fill="#C1DBF6"/><path d="m10.764 21.767.05 18.553c.003 1.104.631 1.677 1.497 1.504v-20.95l-1.547.893Z" fill="#fff"/><path d="M36.74 7.728 12.311 21.832v19.992c.213-.043.44-.129.677-.265L34.63 29.064c1.197-.691 2.164-2.366 2.16-3.741l-.05-17.595Z" fill="#C1DBF6"/><path d="m8.498 21.13.05 17.979c.003.945.463 1.502 1.14 1.534v-20.2l-1.19.687ZM39.555 12.74 13.58 27.738l.05 13.758c.004 1.375.977 1.93 2.174 1.238L37.446 30.24c1.196-.691 2.163-2.366 2.16-3.74l-.05-13.759Z" fill="#fff"/><path d="M39.555 12.74 13.58 23.901l.03 11.892 25.98-13.864-.034-9.189Z" fill="#FBDBD0"/><path d="m13.609 35.793.02 5.703c.004 1.375.977 1.93 2.174 1.238L37.446 30.24c1.196-.691 2.163-2.366 2.16-3.74l-.017-4.57-25.98 13.864Z" fill="#fff"/><path fill-rule="evenodd" clip-rule="evenodd" d="M13.405 24.281c.095 0 .172.076.172.171l.049 17.504a.171.171 0 0 1-.343.001l-.049-17.504c0-.095.077-.172.171-.172ZM10.642 21.595c.094 0 .171.076.171.171l.05 19.098a.171.171 0 1 1-.344 0l-.049-19.097c0-.095.077-.172.171-.172ZM8.473 20.768c.095 0 .172.077.172.171l.049 18.998a.171.171 0 1 1-.343.001L8.302 20.94c0-.095.077-.171.171-.172Z" fill="#374874"/><path d="m36.074 6.573-2.741-.994a.807.807 0 0 0-.679.06L8.252 19.727c-.309.178-1.435.89-1.435 2.398 0 .183.863-1.401 1.542-1.185l1.74.63c5.073 1.422 4.284 8.713 4.284 8.713.004 1.375.977 1.93 2.174 1.24L38.39 19.026c1.197-.691 2.164-1.982 2.16-3.357l-.397-4.113c-.006-2.232-1.981-4.223-4.08-4.984Z" fill="#fff"/><path fill-rule="evenodd" clip-rule="evenodd" d="M32.568 5.49a.978.978 0 0 1 .823-.072l2.742.994a7.14 7.14 0 0 1 2.895 1.99c.775.891 1.292 1.982 1.298 3.146l.396 4.113v.008c.004 1.454-1.012 2.794-2.245 3.506L16.641 31.672c-.63.363-1.24.42-1.704.155-.466-.265-.724-.818-.726-1.542v-.019l.001-.004.002-.015c0-.013.003-.033.005-.06l.016-.229c.011-.198.022-.485.02-.834a12.98 12.98 0 0 0-.28-2.626c-.432-1.976-1.478-4.076-3.924-4.762l-.006-.001-1.742-.632c-.096-.03-.22-.002-.378.101-.157.102-.316.26-.463.43-.123.14-.23.282-.317.396l-.048.062a1.757 1.757 0 0 1-.12.147.326.326 0 0 1-.035.03.204.204 0 0 1-.079.038.18.18 0 0 1-.186-.072.192.192 0 0 1-.032-.11c0-1.606 1.202-2.361 1.52-2.545L32.569 5.49Zm.706.25a.635.635 0 0 0-.534.047L8.338 19.875c-.26.15-1.087.674-1.3 1.732.052-.064.107-.132.166-.2.154-.177.338-.363.534-.49.193-.127.43-.218.673-.14h.003l1.737.63c2.623.738 3.718 2.993 4.16 5.016.222 1.016.282 1.984.287 2.698a13.22 13.22 0 0 1-.042 1.158l-.001.013c.003.646.232 1.054.553 1.236.321.184.796.173 1.363-.154l21.835-12.496c1.158-.668 2.073-1.906 2.073-3.2l-.396-4.113v-.008c-.003-1.064-.476-2.082-1.213-2.931a6.796 6.796 0 0 0-2.754-1.892l-2.742-.994ZM6.988 22.122v.003-.003Z" fill="#374874"/><path d="m19.612 17.358 9.686-5.593-2.163-1.257-11.05 5.652 3.527 1.198ZM30.657 10.253l-2.163-1.257 2.196-1.268 2.163 1.258-2.196 1.267Z" fill="#C1DBF6"/><path d="m29.295 10.57-.003-1.002a.624.624 0 0 0-.011-.12.377.377 0 0 0-.083-.178.27.27 0 0 0-.067-.055l-2.163-1.257c.05.029.09.074.117.133.028.06.043.134.044.22l.003 1.002.003 1.195 2.163 1.257-.003-1.195Z" fill="#FBDBD0"/><path d="M29.73 7.155a1.107 1.107 0 0 1 .166-.035.74.74 0 0 1 .113-.005h.017c.03.002.06.005.089.011l.02.005a.61.61 0 0 1 .067.019l.02.007c.027.01.054.023.079.037h-.002.002l-2.163-1.257-.007-.004a.568.568 0 0 0-.06-.029l-.012-.004-.02-.007-.031-.011c-.012-.004-.024-.006-.035-.008l-.021-.005-.012-.003a.671.671 0 0 0-.072-.008h-.023c-.018-.001-.037-.002-.056 0l-.02.001-.036.004c-.012.001-.023.001-.034.003l-.03.007a1.006 1.006 0 0 0-.05.01c-.008.002-.017.003-.025.006-.01.002-.018.006-.027.009a1.147 1.147 0 0 0-.085.03c-.01.003-.02.005-.03.01l-.017.008c-.05.021-.1.045-.15.075l2.162 1.257a1.456 1.456 0 0 1 .283-.123Z" fill="#fff"/><path d="m18.249 17.417-2.163-1.257-.007-2.367 2.163 1.257.007 2.367Z" fill="#FBDBD0"/><path d="m19.37 13.096-2.163-1.257 10.077-5.818 2.163 1.257-10.077 5.818Z" fill="#fff"/><path d="m16.053 18.685-2.163-1.257 2.196-1.268 2.163 1.257-2.196 1.268Z" fill="#C1DBF6"/><path d="m16.055 19.411-2.163-1.257-.002-.726 2.163 1.257.002.726ZM18.26 14.804l.016-.09.012-.062.015-.058.021-.081.014-.046.03-.091.014-.037c.016-.042.032-.084.05-.125l.007-.014c.016-.037.033-.073.051-.11l.018-.034a2.75 2.75 0 0 1 .055-.101l.01-.02c.023-.04.047-.078.072-.116l.022-.033a2.499 2.499 0 0 1 .183-.242l.043-.049a2.304 2.304 0 0 1 .272-.258l.03-.022c.057-.043.115-.084.175-.119l-2.163-1.257a1.71 1.71 0 0 0-.176.12l-.03.021c-.054.043-.107.09-.159.14l-.013.012-.024.026c-.026.026-.05.052-.075.08l-.024.025-.02.024a2.33 2.33 0 0 0-.044.053l-.028.035-.023.03-.031.043-.022.03-.034.051-.022.033-.01.013-.058.096-.003.007-.011.02-.039.069-.016.032-.018.034-.015.03a2.49 2.49 0 0 0-.036.08l-.007.014-.002.004a2.675 2.675 0 0 0-.041.102l-.007.018-.013.038-.019.05-.012.04-.014.047-.009.03c-.005.016-.008.034-.012.05l-.015.059-.005.02-.007.042-.015.09-.005.025-.001.023a1.675 1.675 0 0 0-.013.198l2.163 1.257c0-.065.005-.131.013-.198l.006-.048Z" fill="#FBDBD0"/><path d="M29.447 7.278c.663-.382 1.201-.076 1.203.686l.007 2.29 2.196-1.268.002.726-2.196 1.268-1.36.785-.004-1.195-.003-1.002c-.001-.349-.25-.49-.553-.315l-8.513 4.915c-.343.198-.621.68-.62 1.075l.002.92.004 1.195-1.361.785-2.196 1.268-.002-.726 2.196-1.268-.007-2.367c-.002-.718.503-1.593 1.128-1.954l10.077-5.818ZM16.053 17.681c.318 0 .576-.145.576-.323 0-.179-.258-.324-.576-.324-.319 0-.577.145-.577.324 0 .178.258.323.577.323Z" fill="#fff"/><path d="M30.673 9.314c.319 0 .577-.144.577-.323 0-.179-.258-.324-.577-.324-.318 0-.576.145-.576.324 0 .179.258.323.576.323Z" fill="#fff"/><path d="M33.061 5.534c.097 0 .195.017.288.051l2.725.988c2.099.761 4.074 2.752 4.08 4.984l.397 4.113c.002.872-.386 1.863-.976 2.649l.014 3.61.016 4.5v.07c.002.687-.239 1.45-.63 2.126-.048.085-.1.168-.153.25-.373.571-.853 1.062-1.376 1.364L15.803 42.734a2.716 2.716 0 0 1-.222.115c-.267.123-.52.182-.75.182-.084 0-.164-.007-.24-.023a1.065 1.065 0 0 1-.697-.477 1.465 1.465 0 0 1-.165-.351 2.24 2.24 0 0 1-.1-.684v-.307l-.641.37c-.35.202-.68.297-.972.297-.71 0-1.2-.562-1.202-1.536v-.026l-.092.053c-.35.202-.679.297-.971.297-.597 0-1.037-.398-1.164-1.104a1.53 1.53 0 0 1-.332.038c-.71 0-1.199-.562-1.202-1.535L7.01 22.315a3.223 3.223 0 0 1 1.611-2.8l7.463-4.309-.004-1.413c0-.065.005-.131.013-.198l.001-.023.005-.026.015-.09.007-.041.005-.02.015-.058c.004-.018.007-.035.012-.052l.01-.03.013-.046.012-.04.019-.05.013-.038.007-.018.041-.102.002-.004.007-.014.036-.08.015-.03.018-.034.016-.032c.012-.024.026-.047.039-.07l.01-.02.004-.006.059-.096.009-.013.022-.033.034-.052.022-.029.031-.043.023-.03.028-.035.045-.053.019-.024.024-.025a2.51 2.51 0 0 1 .075-.08l.024-.026.014-.012c.051-.05.104-.097.159-.14l.029-.022c.057-.043.116-.084.176-.119l10.077-5.818c.052-.03.102-.054.151-.075l.018-.009.03-.01a1.12 1.12 0 0 1 .084-.03l.027-.008.026-.006a.983.983 0 0 1 .05-.01c.01-.002.02-.006.03-.007.01-.002.021-.002.033-.003a.744.744 0 0 1 .036-.004l.02-.002a.383.383 0 0 1 .056 0h.012a.129.129 0 0 1 .008 0h.003a.661.661 0 0 1 .072.01l.012.002.02.005c.012.002.024.004.036.008l.03.01.021.008.012.004a.568.568 0 0 1 .067.033l1.993 1.158 2.508-1.447a.845.845 0 0 1 .422-.114Zm0-.685c-.268 0-.533.07-.765.205l-2.164 1.249-1.65-.959-.003-.001-.007-.005a1.281 1.281 0 0 0-.137-.067l-.025-.01-.02-.007a1.488 1.488 0 0 0-.379-.08l-.021-.002h-.033a1.567 1.567 0 0 0-.152.004 1.504 1.504 0 0 0-.234.037.85.85 0 0 0-.119.034 1.849 1.849 0 0 0-.21.078 2.083 2.083 0 0 0-.2.102l-10.078 5.818a2.383 2.383 0 0 0-.287.197 2.733 2.733 0 0 0-.39.372l-.027.033a2.95 2.95 0 0 0-.155.199 1.402 1.402 0 0 0-.063.09l-.008.012-.005.007a1.433 1.433 0 0 0-.034.05c-.025.04-.05.08-.073.12l-.004.008-.006.01-.009.017a3.4 3.4 0 0 0-.065.12l-.025.048a3.109 3.109 0 0 0-.065.138v.001l-.005.01-.006.013a3.387 3.387 0 0 0-.051.127l-.011.03.003-.008-.015.041-.003.009-.004.01a2.126 2.126 0 0 0-.033.1l-.02.065a.932.932 0 0 0-.026.096l-.002.01-.003.008a3.098 3.098 0 0 0-.033.155v-.005a2.923 2.923 0 0 0-.03.209c-.011.095-.016.178-.016.258l.003 1.016-7.118 4.11c-1.21.698-1.959 2-1.955 3.396l.045 15.728c.004 1.447.848 2.14 1.73 2.213.314.666.917 1.072 1.653 1.072.172 0 .348-.022.525-.064.302.874 1.024 1.276 1.74 1.276a2.47 2.47 0 0 0 1.033-.243 2.241 2.241 0 0 0 .271.608c.27.412.663.68 1.137.774.12.024.246.036.374.036.335 0 .684-.082 1.037-.245.092-.042.186-.09.278-.144l21.643-12.495c.602-.348 1.157-.895 1.607-1.583.06-.092.119-.187.173-.282.468-.81.724-1.687.722-2.471v-.071l-.017-4.5-.012-3.388c.616-.894.977-1.951.975-2.87v-.032l-.004-.032-.393-4.082c-.026-2.603-2.295-4.782-4.532-5.593l-2.725-.989a1.527 1.527 0 0 0-.522-.091Z" fill="#374874"/><mask id="a" style="mask-type:luminance" maskUnits="userSpaceOnUse" x="18" y="26" width="4" height="8"><path d="m18.835 33.337-.016-5.561 2.385-1.377.016 5.561-2.385 1.377Z" fill="#fff"/></mask><g mask="url(#a)"><path d="m20.62 26.736-1.217.702c-.322.187-.583.638-.582 1.01l.012 4.218c0 .37.263.52.586.334l1.216-.702c.323-.187.584-.638.583-1.01l-.012-4.218c-.001-.37-.264-.52-.587-.334Z" fill="#374874"/></g><mask id="b" style="mask-type:luminance" maskUnits="userSpaceOnUse" x="33" y="18" width="3" height="8"><path d="m33.34 25.648-.017-5.562 2.385-1.377.016 5.562-2.385 1.377Z" fill="#fff"/></mask><g mask="url(#b)"><path d="m35.124 19.047-1.216.702c-.323.186-.584.638-.583 1.009l.012 4.218c.001.371.264.52.587.334l1.216-.702c.322-.186.583-.638.582-1.009l-.012-4.218c0-.371-.263-.52-.586-.334Z" fill="#374874"/></g></svg>