<svg width="46" height="48" fill="none" xmlns="http://www.w3.org/2000/svg"><g clip-path="url(#a)"><mask id="b" style="mask-type:luminance" maskUnits="userSpaceOnUse" x="36" y="42" width="1" height="1"><path d="M36.598 42.216c-.167.11-.222.222-.222.333v-.444" fill="#fff"/></mask><g mask="url(#b)"><path d="M36.542 42.271c-.11.111-.166.167-.166.278Z" fill="#fff"/><path d="M36.542 42.271c-.11.111-.166.167-.166.278" stroke="#374975" stroke-miterlimit="10"/><path d="M36.376 42.549v-.444Z" fill="#fff"/><path d="M36.376 42.549v-.444" stroke="#374975" stroke-miterlimit="10"/></g><path d="M37.375 23.506c9.55 5.552 9.605 14.49.11 19.986a1.422 1.422 0 0 1-1.165 0c-.333-.166-1.27-1.502-.938-1.668 4.442-2.554 7.545-4.938 7.545-8.325 0-3.387-2.276-6.773-6.718-9.327-.333-.166-.333-.5 0-.666.333-.167.833-.222 1.166 0Z" fill="#C1DBF6"/><path d="M33.1 17.62c3.053 1.777 5.552 6.052 5.552 9.606 0 3.553-2.498 4.94-5.552 3.164-3.054-1.777-5.552-6.051-5.552-9.605 0-3.553 2.443-4.94 5.552-3.164Z" fill="#fff"/><path d="M36.236 29.988c.833-.52 1.354-1.562 1.406-3.124.052-1.562-.521-3.227-1.354-4.737-.833-1.51-1.978-2.863-3.28-3.592-1.301-.73-2.447-.833-3.28-.365-.833.52-1.353 1.562-1.405 3.124-.052 1.562.52 3.228 1.353 4.737.833 1.51 1.979 2.864 3.28 3.593 1.302.728 2.447.832 3.28.364Z" fill="#FBDBD0"/><path d="M36.74 15.423c-1.555-.888-2.901-.88-3.923-.347l-3.13 1.903c.935-.288 2.116-.1 3.413.642 3.053 1.776 5.552 6.051 5.552 9.605 0 1.27-.33 2.517-1.235 3.297l3.289-1.911c1-.555 1.644-1.938 1.644-3.659 0-3.553-2.501-7.753-5.61-9.53ZM41.004 37.517c-.444-.278-.888-.278-1.166-.11l-5.835 3.47c.3-.188.724-.167 1.207.117.888.5 1.61 1.777 1.61 2.832 0 .556-.203.925-.53 1.078l5.97-3.433c.278-.166.5-.555.5-1.055 0-1.054-.867-2.4-1.756-2.899Z" fill="#C1DBF6"/><path d="M35.212 40.995c.888.5 1.61 1.777 1.61 2.832 0 1.054-.722 1.443-1.665.943-.944-.5-1.61-1.776-1.61-2.831s.721-1.5 1.665-.944Z" fill="#C1DBF6"/><path d="M36.378 43.549c0 .777-.555 1.11-1.221.722-.666-.389-1.222-1.333-1.222-2.166 0-.777.555-1.11 1.222-.721.666.388 1.221 1.332 1.221 2.165Z" fill="#374874"/><path d="M32.567 6.008c-.016-.037-.03-.074-.048-.11l.048.11Z" fill="#858585"/><path d="M36.991 10.263c-.009-2.115-.968-3.893-2.84-4.816-.765-.438-1.642-.669-2.597-.715.524.37.703.67.788.816.067.117.126.237.177.35.11.245.191.467.249.66.07.25.115.554.152.813.023.234.036.476.048.732l.012 3.976.006 2.191.005 1.855c-.013.573.712 1.302 1.304 1.623 1.147.694 2.681.425 2.718.36l-.022-7.845Z" fill="#C1DBF6"/><path d="m34.152 2.58-.211-.128.005.004c-.06-.038-.46-.27-.529-.309l.005.003-.052-.03-.234-.13a10.7 10.7 0 0 0-1.453-.654l.007.002-.085-.03-.003-.001c-.727-.245-1.196-.37-1.909-.464C29.566.826 29.42.81 29.3.794l-.102-.007c-1.663-.167-3.64.192-5.347.83-.625.207-1.436.587-2.002.867-.392.178-.839.443-1.216.65l-.035.02c-.003.002-.006.005-.01.006-.407.237-.777.469-1.095.675l-.005.003-.005.003c-1.57 1.05-1.933 1.369-3.182 2.42-2.031 1.805-3.598 3.508-5.316 6.001a33.54 33.54 0 0 0-.707 1.088l-.032.055c-.217.353-.418.695-.6 1.022-.816 1.45-1.52 3.051-1.94 4.465-.103.347-.209.727-.284 1.048l-.005.017-.004.023c-.08.34-.143.655-.19.95-.192.96-.197 2.011-.187 2.992l.01 3.464.01 3.713c.002.502.494 1.197 1.304 1.623 1.23.647 2.4.509 2.719.36l-.016-5.626-.005-1.8c-.001-.352-.006-.683.013-1.035.038-1.011.276-2.09.587-3.06.338-1.09.767-2.142 1.2-3.196a26.388 26.388 0 0 1 1.596-2.984c.748-1.034 1.475-2.086 2.248-3.102 4.002-4.709 9.243-8.62 14.821-9.008 2.053-.063 4.278.67 5.454 2.443.124.184.231.384.331.59-.258-.885-.762-1.626-1.353-2.3a9.767 9.767 0 0 0-1.802-1.425Z" fill="#fff"/><path d="M24.503 5.559c7.481-4.314 13.505-2.392 13.515 4.11l.02 7.358c.002.302-.16.581-.42.732l-.605.349-.022-7.845c-.034-5.62-6.41-7.148-12.485-3.64-6.065 3.501-12.816 12.596-12.822 18.25l.022 7.486a.62.62 0 0 1-.31.54l-.318.183-.023-7.845c-.027-6.493 5.965-15.352 13.448-19.678Z" fill="#FBDBD0"/><mask id="c" style="mask-type:luminance" maskUnits="userSpaceOnUse" x="36" y="42" width="1" height="1"><path d="M36.598 42.216c-.167.11-.222.222-.222.333v-.444" fill="#fff"/></mask><g mask="url(#c)"><path d="M36.542 42.271c-.11.111-.166.167-.166.278Z" fill="#fff"/><path d="M36.542 42.271c-.11.111-.166.167-.166.278" stroke="#374975" stroke-miterlimit="10"/><path d="M36.376 42.549v-.444Z" fill="#fff"/><path d="M36.376 42.549v-.444" stroke="#374975" stroke-miterlimit="10"/></g><path d="m42.925 33.426.002.073c0 3.387-3.103 5.77-7.544 8.325-.334.166.604 1.502.937 1.669.333.166.833.166 1.166 0 5.51-3.191 7.803-7.541 6.89-11.716l-1.45 1.649Z" fill="#FBDBD0"/><path d="M37.375 23.506c-.333-.222-.833-.167-1.166 0-.333.166-.333.5 0 .666 4.41 2.535 6.683 5.892 6.716 9.254l1.45-1.649c-.66-3.017-2.994-5.942-7-8.271Z" fill="#FBDBD0"/><path d="M33.1 17.62c3.053 1.777 5.552 6.052 5.552 9.606 0 3.553-2.498 4.94-5.552 3.164-3.054-1.777-5.552-6.051-5.552-9.605 0-3.553 2.443-4.94 5.552-3.164Z" fill="#C1DBF6"/><path d="M35.097 27.92c.541-.339.88-1.015.914-2.03.034-1.016-.339-2.099-.88-3.08-.541-.981-1.286-1.861-2.132-2.335-.846-.474-1.59-.541-2.132-.237-.541.339-.88 1.015-.914 2.03-.033 1.016.339 2.099.88 3.08.542.981 1.286 1.861 2.132 2.335.846.474 1.59.541 2.132.237Z" fill="#374874"/><path d="M36.74 15.423c-1.555-.888-2.901-.88-3.923-.347l-3.13 1.903c.935-.288 2.116-.1 3.413.642 2.42 1.408 4.49 4.385 5.245 7.329l3.695-2.273c-.76-2.921-2.838-5.847-5.3-7.254Z" fill="#fff"/><path d="M38.345 24.95c.198.77.307 1.538.307 2.276 0 1.27-.33 2.517-1.235 3.297l3.289-1.911c1-.555 1.644-1.938 1.644-3.659 0-.74-.11-1.507-.31-2.276l-3.695 2.273Z" fill="#FBDBD0"/><path d="M41.004 37.517c-.444-.278-.888-.278-1.166-.11l-5.835 3.47c.3-.188.724-.167 1.207.117.657.37 1.223 1.167 1.473 1.983l5.835-3.632c-.32-.762-.912-1.49-1.514-1.828Z" fill="#fff"/><path d="M36.683 42.977c.087.286.137.575.137.849 0 .556-.203.925-.531 1.078l5.971-3.433c.278-.166.5-.555.5-1.055 0-.34-.09-.709-.242-1.071l-5.835 3.632Z" fill="#FBDBD0"/><path d="M35.212 40.995c.888.5 1.61 1.777 1.61 2.832 0 1.054-.722 1.443-1.665.943-.944-.5-1.61-1.776-1.61-2.831s.721-1.5 1.665-.944Z" fill="#C1DBF6"/><path d="M36.378 43.549c0 .777-.555 1.11-1.221.722-.666-.389-1.222-1.333-1.222-2.166 0-.777.555-1.11 1.222-.721.666.388 1.221 1.332 1.221 2.165Z" fill="#374874"/><path d="M12.915 39.83c.348 1.091.543 2.191.543 3.233 0 1.943-.777 3.276-1.888 3.886l3.998-2.22c1.11-.666 1.776-1.999 1.776-3.942.015-1.08-.183-2.219-.547-3.343l-3.882 2.387Z" fill="#FBDBD0"/><path d="M11.237 30.127c-1.72-.999-3.275-1.054-4.386-.444l-3.72 2.443c1.111-.666 2.443-.722 4.165.278 2.491 1.43 4.65 4.391 5.619 7.427l3.882-2.387c-.965-2.98-3.101-5.866-5.56-7.317Z" fill="#fff"/><path d="M7.443 32.475c3.304 1.966 6.012 6.607 6.012 10.483 0 3.877-2.708 5.406-6.012 3.44C4.138 44.432 1.43 39.791 1.43 35.97s2.708-5.405 6.013-3.494Z" fill="#C1DBF6"/><path d="M32.567 6.008c-.016-.037-.03-.074-.048-.11l.048.11Z" fill="#858585"/><path d="M36.991 10.263c-.009-2.115-.968-3.893-2.84-4.816-.765-.438-1.642-.669-2.597-.715.524.37.703.67.788.816.067.117.126.237.177.35.11.245.191.467.249.66.07.25.115.554.152.813.023.234.036.476.048.732l.012 3.976.006 2.191.005 1.855c-.013.573.712 1.302 1.304 1.623 1.147.694 2.681.425 2.718.36l-.022-7.845Z" fill="#C1DBF6"/><path d="M35.954 4.003a9.766 9.766 0 0 0-1.802-1.424l-.211-.127a.197.197 0 0 1 .005.004c-.06-.038-.46-.27-.529-.309l.005.003-.052-.03-.234-.13a10.7 10.7 0 0 0-1.453-.654l.007.002-.085-.03-.003-.001c-.727-.245-1.196-.37-1.909-.464C29.566.826 29.42.81 29.3.794l-.102-.007c-1.663-.167-3.64.192-5.347.83-.625.207-1.436.587-2.002.867-.392.178-.839.443-1.216.65l-.035.02c-.003.002-.006.005-.01.006-.407.237-.777.469-1.095.675l-.005.003-.005.003c-1.57 1.05-1.933 1.369-3.182 2.42-2.031 1.805-3.598 3.508-5.316 6.001a33.54 33.54 0 0 0-.707 1.088l-.032.055c-.217.353-.418.695-.6 1.022-.816 1.45-1.52 3.051-1.94 4.465-.103.347-.209.727-.284 1.048l-.005.017-.004.023c-.08.34-.143.655-.19.95-.007.029-.011.06-.017.089l3.975 2.515c.106-.672.276-1.345.477-1.974.338-1.088.767-2.141 1.2-3.195a26.388 26.388 0 0 1 1.596-2.984c.748-1.034 1.475-2.086 2.248-3.102 4.002-4.709 9.243-8.62 14.821-9.008 2.053-.063 4.278.67 5.454 2.443.124.184.231.384.331.59-.258-.885-.762-1.626-1.353-2.3Z" fill="#fff"/><path d="m7.035 23.922.01 3.465.01 3.712c.002.502.494 1.198 1.304 1.623 1.23.647 2.4.509 2.719.36l-.016-5.626-.005-1.8c-.001-.352-.006-.683.013-1.035.014-.356.053-.722.11-1.087l-3.974-2.515c-.175.936-.18 1.953-.171 2.903Z" fill="#C1DBF6"/><path d="M24.503 5.559c7.481-4.314 13.505-2.392 13.515 4.11l.02 7.358c.002.302-.16.581-.42.732l-.605.349-.022-7.845c-.034-5.62-6.41-7.148-12.485-3.64-6.065 3.501-12.816 12.596-12.822 18.25l.022 7.486a.62.62 0 0 1-.31.54l-.318.183-.023-7.845c-.027-6.493 5.965-15.352 13.448-19.678Z" fill="#FBDBD0"/><path d="M28.35.746c.29 0 .573.013.847.04l.102.008c.121.015.267.032.394.05.713.094 1.182.218 1.908.463h.004l.084.03-.006-.001a10.739 10.739 0 0 1 1.453.654l.234.13.05.029-.003-.002c.069.04.468.27.529.309l-.005-.003.21.126c.656.409 1.267.88 1.803 1.424.59.674 1.094 1.414 1.352 2.297.458.927.71 2.053.712 3.37l.019 6.662.063.052c.126.107.25.217.373.331l.067.064c.12.113.239.23.355.35l.016.015a11.887 11.887 0 0 1 .416.456c.237.273.465.558.68.855l.034.045c.109.151.215.304.317.46l.016.024c.21.32.407.65.59.987l.014.028c.182.34.349.686.499 1.037l.005.013c.228.537.416 1.082.558 1.628.097.375.173.749.225 1.12l.007.049c.023.173.041.345.054.515l.005.08c.011.172.019.343.019.512 0 .753-.124 1.441-.346 2.024-.023.06-.048.117-.073.175.058.066.115.133.171.2l.058.07c.134.161.263.324.386.488l.007.01c.125.166.243.334.356.503l.026.038a11.242 11.242 0 0 1 .63 1.077l.003.005c.091.18.176.359.254.539l.008.016a9.517 9.517 0 0 1 .401 1.113l.002.006c.129.445.22.893.276 1.342l.001.012c.015.12.026.241.036.362l.004.06c.007.107.013.213.016.319l.002.074c.002.104.003.209 0 .313v.067a8.186 8.186 0 0 1-.016.347l-.001.029a8.33 8.33 0 0 1-.091.776l-.002.012a8.59 8.59 0 0 1-.068.358l-.016.072a8.618 8.618 0 0 1-.178.676l-.027.09c-.032.1-.066.201-.102.302l-.023.066c-.092.25-.194.5-.31.747l-.012.026a9.703 9.703 0 0 1-.163.332l-.047.09a10.192 10.192 0 0 1-.595.993l-.065.096c-.069.1-.14.2-.213.3l-.035.048-.116.152c.05.112.094.225.13.338.002.002.002.005.003.008.026.08.048.158.067.237l.014.063c.014.063.025.126.034.188l.009.066c.01.081.015.16.015.238 0 .5-.222.889-.5 1.055l-5.828 3.35a.843.843 0 0 1-.52.165c-.225 0-.48-.07-.755-.216-.944-.5-1.61-1.776-1.61-2.831 0-.523.177-.895.47-1.07l-.013.006 5.834-3.469a.861.861 0 0 1 .445-.114c.22 0 .471.069.721.225.052.03.104.062.156.097 1.121-1.237 1.767-2.572 1.767-4.115l-.002-.074a8.013 8.013 0 0 0-.685-3.126 8.962 8.962 0 0 0-.138-.304l-.003-.006c-.048-.1-.098-.2-.15-.299l-.005-.01a9.737 9.737 0 0 0-.16-.292l-.009-.015a10.086 10.086 0 0 0-.17-.286l-.012-.02a10.542 10.542 0 0 0-.178-.278l-.02-.028c-.06-.09-.12-.18-.184-.268l-.024-.034-.091-.123a2.34 2.34 0 0 1-.39.276l-1.645.955-1.622.943c-.497.427-1.124.65-1.839.65-.752 0-1.602-.247-2.5-.77-3.054-1.776-5.552-6.051-5.552-9.605 0-2.07.83-3.404 2.138-3.806l3.131-1.903c.056-.03.113-.056.171-.082l-.002-.724-.006-2.191-.011-3.976a15.053 15.053 0 0 0-.049-.732 6.647 6.647 0 0 0-.153-.813 5.45 5.45 0 0 0-.248-.66 4.053 4.053 0 0 0-.177-.35c-.081-.14-.252-.42-.725-.77-.24-.02-.486-.03-.735-.03-1.957 0-4.186.61-6.376 1.876-6.065 3.5-12.816 12.595-12.822 18.25l.016 5.546c2.262 1.524 4.193 4.232 5.097 7.024.364 1.124.563 2.263.547 3.343 0 1.943-.666 3.276-1.776 3.942l-3.978 2.21c.152-.086.296-.186.435-.298-.517.402-1.15.613-1.866.613-.817 0-1.74-.275-2.716-.856C4.138 44.432 1.43 39.791 1.43 35.97c0-1.957.712-3.326 1.849-3.94l3.572-2.346c.065-.035.132-.069.2-.1l-.006-2.196-.01-3.465c-.01-.98-.005-2.032.186-2.993.048-.294.11-.61.19-.95l.005-.022.005-.017c.075-.321.181-.7.284-1.048.42-1.414 1.124-3.014 1.939-4.465.183-.327.384-.67.6-1.022l.033-.054.034-.053c.207-.335.445-.698.672-1.035 1.72-2.494 3.286-4.197 5.316-6.003 1.25-1.05 1.613-1.37 3.183-2.419l.005-.003.005-.003c.317-.206.688-.438 1.095-.674l.01-.006.035-.02c.377-.208.824-.473 1.216-.65.566-.281 1.377-.661 2.002-.867 1.424-.534 3.038-.872 4.5-.872Zm5.654 40.13h-.001.002ZM11.59 46.938l-.02.01.02-.01ZM28.35 0c-1.484 0-3.17.325-4.748.914-.663.22-1.49.607-2.074.897-.32.145-.662.338-.965.508l-.285.159-.003.001-.009.005-.002.001-.015.007-.049.03c-.367.214-.74.444-1.107.682l-.017.01-.012.01c-1.528 1.02-1.95 1.375-3.076 2.323l-.169.142-.008.007-.007.007c-2.208 1.963-3.782 3.739-5.43 6.129l-.002.003-.007.01c-.257.382-.494.746-.684 1.054l-.008.012-.022.033-.009.014-.008.014-.029.049c-.22.358-.426.71-.612 1.042-.864 1.538-1.575 3.178-2.003 4.617-.085.287-.205.707-.293 1.078l-.005.02-.007.032-.002.011c-.08.336-.145.664-.196.975-.201 1.017-.208 2.106-.198 3.133l.005 1.817.005 1.642.005 1.762-3.41 2.239c-1.405.776-2.21 2.443-2.21 4.58 0 4.08 2.801 8.943 6.377 11.07 1.072.638 2.114.961 3.098.961a3.84 3.84 0 0 0 1.762-.412l.009.015.022-.012 3.978-2.21.011-.006.01-.007c1.379-.826 2.138-2.452 2.14-4.576.015-1.131-.182-2.335-.584-3.578-.921-2.844-2.841-5.558-5.062-7.182l-.014-5.16c.002-2.487 1.46-5.95 3.999-9.497 2.465-3.444 5.624-6.475 8.449-8.105 1.982-1.145 4.114-1.775 6.003-1.775.152 0 .304.004.454.012.237.201.32.346.36.414a4.708 4.708 0 0 1 .355.844c.054.196.093.45.128.695.02.203.031.421.043.663l.006 1.864.006 2.094.002.73.004 1.461v.281l-2.867 1.743c-1.635.552-2.571 2.182-2.571 4.49 0 3.815 2.602 8.317 5.923 10.249.994.579 1.962.872 2.875.872.862 0 1.645-.27 2.27-.784l1.566-.91 1.462-.85.06.096.013.021c.054.087.106.175.157.264l.003.005.007.013c.048.084.098.174.145.265l.003.005.006.011c.044.085.09.177.134.268l.003.007.002.004c.044.09.085.182.125.274l.002.005.002.004c.4.922.61 1.876.62 2.827v.068c0 1.105-.394 2.148-1.203 3.175a1.992 1.992 0 0 0-.694-.129c-.302 0-.589.076-.829.22l-5.823 3.464-.008.004-.017.01v.002c-.512.322-.806.937-.806 1.693 0 1.384.863 2.885 2.008 3.49.378.201.75.303 1.104.303.343 0 .662-.098.926-.283l5.794-3.331.006-.003.006-.004c.532-.319.862-.968.862-1.695a2.858 2.858 0 0 0-.03-.395l-.002-.015a3.375 3.375 0 0 0-.043-.24l-.002-.012a3.868 3.868 0 0 0-.094-.349l-.001-.003-.003-.008a11.869 11.869 0 0 0 .184-.264l.021-.032a12.057 12.057 0 0 0 .413-.66l.066-.114c.054-.096.106-.191.157-.288l.016-.03.034-.066c.061-.118.12-.238.176-.357l.013-.027a10.312 10.312 0 0 0 .351-.856l.008-.022c.038-.109.075-.218.11-.327l.023-.076.007-.02a9.436 9.436 0 0 0 .193-.735l.005-.024.012-.054a9.37 9.37 0 0 0 .073-.388l.003-.016c.046-.277.08-.562.099-.844l.002-.03c.008-.126.014-.253.017-.38V33.711c.003-.114.002-.23 0-.342l-.002-.08a9.324 9.324 0 0 0-.018-.347l-.001-.02-.003-.046a9.17 9.17 0 0 0-.04-.395v-.012a9.4 9.4 0 0 0-.298-1.454l-.001-.002-.003-.012a9.848 9.848 0 0 0-.188-.576l-.02-.055a10.303 10.303 0 0 0-.226-.57l-.003-.006-.006-.014a10.76 10.76 0 0 0-.27-.57l-.003-.007a11.332 11.332 0 0 0-.304-.556l-.005-.01-.032-.053c-.11-.185-.222-.365-.335-.536l-.02-.03-.008-.01a12.659 12.659 0 0 0-.377-.535l-.01-.014a13.026 13.026 0 0 0-.356-.452c.206-.626.31-1.315.31-2.054 0-.168-.006-.35-.02-.56l-.001-.027-.004-.06a9.497 9.497 0 0 0-.059-.56l-.005-.037-.002-.017c-.056-.395-.137-.8-.242-1.202-.15-.575-.349-1.158-.593-1.733v-.001l-.004-.008c-.16-.374-.337-.743-.53-1.102l-.005-.01-.01-.02c-.192-.354-.401-.705-.622-1.042l-.017-.025c-.107-.162-.22-.325-.335-.486l-.023-.031-.013-.017a13.474 13.474 0 0 0-.72-.905l-.062-.07c-.135-.153-.26-.288-.38-.414l-.019-.018c-.114-.119-.238-.24-.377-.372l-.021-.02-.05-.047a12.447 12.447 0 0 0-.199-.181l-.018-6.32c-.002-1.372-.258-2.596-.76-3.64-.262-.857-.737-1.658-1.49-2.517l-.014-.016-.015-.015a10.536 10.536 0 0 0-1.939-1.534l-.005-.003-.005-.003-.092-.056-.107-.064a34.126 34.126 0 0 0-.526-.307l-.015-.009-.008-.004-.005-.003-.015-.009-.034-.02a49.241 49.241 0 0 0-.175-.097l-.06-.033-.006-.004-.007-.003a11.453 11.453 0 0 0-1.545-.695l-.019-.007-.066-.024-.006-.002L31.842.6l-.014-.004h-.002c-.722-.243-1.239-.387-2.035-.492a18.611 18.611 0 0 0-.264-.034l-.134-.016-.021-.003L29.35.05l-.09-.007A9.303 9.303 0 0 0 28.35 0Z" fill="#374874"/></g><defs><clipPath id="a"><path fill="#fff" transform="translate(.684)" d="M0 0h44.632v48H0z"/></clipPath></defs></svg>