<svg width="48" height="49" fill="none" xmlns="http://www.w3.org/2000/svg"><path d="m8 45.439-.245-.14a1.582 1.582 0 0 1-.711-1.233v-25.33c.028-.501.292-.959.711-1.233L29.698 4.838a1.576 1.576 0 0 1 1.423 0l.245.14c.417.276.679.733.706 1.233v25.33c-.027.5-.291.959-.711 1.232L9.418 45.44a1.565 1.565 0 0 1-1.418 0Z" fill="#fff"/><path d="m8 45.439-.245-.14a1.582 1.582 0 0 1-.711-1.233v-25.33c.028-.501.292-.959.711-1.233L29.698 4.838a1.576 1.576 0 0 1 1.423 0l.245.14c.417.276.679.733.706 1.233v25.33c-.027.5-.291.959-.711 1.232L9.418 45.44a1.565 1.565 0 0 1-1.418 0Z" fill="#fff"/><path d="M7.044 31.4V18.734a1.47 1.47 0 0 1 .204-.702l3.053 1.804V44.89l-.904.535a1.57 1.57 0 0 1-1.45 0l-.206-.122a1.582 1.582 0 0 1-.697-1.224V31.4Z" fill="#C1DBF6"/><path d="M7.044 31.4V18.734a1.47 1.47 0 0 1 .204-.702l3.053 1.804V44.89l-.904.535a1.57 1.57 0 0 1-1.45 0l-.206-.122a1.582 1.582 0 0 1-.697-1.224V31.4Z" fill="#FBDBD0"/><path d="M32.072 6.25c0-.45-.32-.636-.711-.41L9.468 18.48c-.42.273-.683.73-.71 1.229V44.99c0 .453.317.636.71.41L31.363 32.76c.419-.273.682-.73.71-1.23V6.25Z" fill="#fff"/><path d="M32.072 6.25c0-.45-.32-.636-.711-.41L9.468 18.48c-.42.273-.683.73-.71 1.229V44.99c0 .453.317.636.71.41L31.363 32.76c.419-.273.682-.73.71-1.23V6.25Z" fill="#fff"/><path d="M8.758 22.62v22.371c0 .453.317.636.71.41L31.363 32.76c.419-.273.682-.73.71-1.23V9.264L8.757 22.62Z" fill="#fff"/><path d="M32.072 6.25c0-.45-.32-.636-.711-.41L9.468 18.48c-.42.273-.683.73-.71 1.229v2.911L32.072 9.263V6.25Z" fill="#C1DBF6"/><path d="M13.178 17.683c-.358.232-.583.62-.606 1.046 0 .384.271.54.606.343.356-.233.58-.621.603-1.046 0-.379-.27-.535-.603-.343ZM11.582 18.657c-.358.231-.583.62-.606 1.045 0 .384.271.54.606.343.356-.232.58-.62.603-1.046 0-.378-.27-.534-.603-.342ZM9.986 19.618c-.358.232-.583.62-.606 1.046 0 .384.271.54.606.343.356-.233.58-.621.603-1.046 0-.379-.27-.535-.603-.343Z" fill="#374874"/><path d="M28.712 9.495a.956.956 0 0 1-.444.74l-13.575 7.806c-.245.143-.444.041-.444-.224a.956.956 0 0 1 .444-.74l13.575-7.805c.245-.144.444-.043.444.223ZM42.072 10.136s.507-.145.859.114c.424.311.352.662.352.662l-1.025 1.397-1.055-.776.87-1.397Z" fill="#fff"/><path d="m29.158 27.675 11.3-16.576s.36.005.76.12c.207.06.424.15.606.283.692.508.683.962.683.962L31.145 28.917l-1.987 1.118-.341-.26.341-2.1Z" fill="#C1DBF6"/><path d="m38.482 15.76 3.404-4.662s-.031-.444-.59-.372c-.559.072-.662.383-.662.383l-3.042 4.294s-.404.579.89.357Z" fill="#fff"/><path d="m28.848 29.605-.134.599a.067.067 0 0 0 .102.07l.492-.327s-.106-.18-.16-.223c-.064-.05-.3-.119-.3-.119Z" fill="#ECECEC"/><path d="m8 45.439-.245-.14a1.582 1.582 0 0 1-.711-1.233v-25.33c.028-.501.292-.959.711-1.233L29.698 4.838a1.576 1.576 0 0 1 1.423 0l.245.14c.417.276.679.733.706 1.233v25.33c-.027.5-.291.959-.711 1.232L9.418 45.44a1.565 1.565 0 0 1-1.418 0Z" fill="#fff"/><path d="m8 45.439-.245-.14a1.582 1.582 0 0 1-.711-1.233v-25.33c.028-.501.292-.959.711-1.233L29.698 4.838a1.576 1.576 0 0 1 1.423 0l.245.14c.417.276.679.733.706 1.233v25.33c-.027.5-.291.959-.711 1.232L9.418 45.44a1.565 1.565 0 0 1-1.418 0Z" fill="#fff"/><path d="M7.044 31.4V18.734a1.47 1.47 0 0 1 .204-.702l3.053 1.804V44.89l-.904.535a1.57 1.57 0 0 1-1.45 0l-.206-.122a1.582 1.582 0 0 1-.697-1.224V31.4Z" fill="#C1DBF6"/><path d="M7.044 31.4V18.734a1.47 1.47 0 0 1 .204-.702l3.053 1.804V44.89l-.904.535a1.57 1.57 0 0 1-1.45 0l-.206-.122a1.582 1.582 0 0 1-.697-1.224V31.4Z" fill="#FBDBD0"/><path d="M32.072 6.25c0-.45-.32-.636-.711-.41L9.468 18.48c-.42.273-.683.73-.71 1.229V44.99c0 .453.317.636.71.41L31.363 32.76c.419-.273.682-.73.71-1.23V6.25Z" fill="#fff"/><path d="M32.072 6.25c0-.45-.32-.636-.711-.41L9.468 18.48c-.42.273-.683.73-.71 1.229V44.99c0 .453.317.636.71.41L31.363 32.76c.419-.273.682-.73.71-1.23V6.25Z" fill="#fff"/><path d="M8.758 22.62v22.371c0 .453.317.636.71.41L31.363 32.76c.419-.273.682-.73.71-1.23V9.264L8.757 22.62Z" fill="#fff"/><path d="M32.072 6.25c0-.45-.32-.636-.711-.41L9.468 18.48c-.42.273-.683.73-.71 1.229v2.911L32.072 9.263V6.25Z" fill="#C1DBF6"/><path d="M13.178 17.683c-.358.232-.583.62-.606 1.046 0 .384.271.54.606.343.356-.233.58-.621.603-1.046 0-.379-.27-.535-.603-.343ZM11.582 18.657c-.358.231-.583.62-.606 1.045 0 .384.271.54.606.343.356-.232.58-.62.603-1.046 0-.378-.27-.534-.603-.342ZM9.986 19.618c-.358.232-.583.62-.606 1.046 0 .384.271.54.606.343.356-.233.58-.621.603-1.046 0-.379-.27-.535-.603-.343Z" fill="#374874"/><path d="M28.712 9.495a.956.956 0 0 1-.444.74l-13.575 7.806c-.245.143-.444.041-.444-.224a.956.956 0 0 1 .444-.74l13.575-7.805c.245-.144.444-.043.444.223Z" fill="#fff"/><path d="M27.803 26.261 11.25 35.818a.268.268 0 0 0-.121.21c0 .078.055.108.122.07l16.553-9.557a.267.267 0 0 0 .121-.21c0-.077-.055-.108-.122-.07ZM27.915 28.757l-16.553 9.556a.268.268 0 0 0-.122.21c0 .077.055.109.123.07l16.552-9.557a.269.269 0 0 0 .123-.21c0-.077-.056-.108-.123-.07ZM21.12 35.24l-9.647 5.569a.268.268 0 0 0-.12.21c0 .076.055.108.121.07l9.647-5.57a.268.268 0 0 0 .121-.21c0-.077-.055-.108-.121-.07Z" fill="#374874"/><path d="m31.008 12.261-2.49 1.437c-3.047 3.36-5.85 7.387-8.813 11.096l-.186.228-.032.037c-2.09 2.5-4.437 4.11-6.843 5.5l-.03.018-.02.011c-.245.142-.49.281-.738.42-.269.15-.539.299-.81.447l.007 2.036 17.695-10.216c1.264-.73 2.284-2.304 2.28-3.517l-.02-7.497Z" fill="#FBDBD0"/><path d="M14.608 27.943c-1.357.783-2.459.153-2.463-1.405-.005-1.558 1.09-3.457 2.447-4.24 1.356-.783 2.46-.154 2.464 1.405.004 1.558-1.092 3.457-2.448 4.24Zm13.91-14.245-15.465 8.93c-1.12.646-2.025 2.042-2.022 3.117l.016 5.71a107.157 107.157 0 0 0 1.548-.867l.02-.011.029-.017c2.406-1.392 4.753-3.001 6.843-5.501l.032-.037.186-.228c2.963-3.71 5.766-7.736 8.814-11.096Z" fill="#C1DBF6"/><path d="M14.591 22.298c-1.356.783-2.45 2.682-2.446 4.24.004 1.558 1.106 2.188 2.463 1.405 1.356-.783 2.452-2.682 2.448-4.24-.005-1.559-1.108-2.188-2.465-1.405ZM42.072 10.136s.507-.145.859.114c.424.311.352.662.352.662l-1.025 1.397-1.055-.776.87-1.397Z" fill="#fff"/><path d="m29.158 27.675 11.3-16.576s.36.005.76.12c.207.06.424.15.606.283.692.508.683.962.683.962L31.145 28.917l-1.987 1.118-.341-.26.341-2.1Z" fill="#C1DBF6"/><path d="m38.482 15.76 3.404-4.662s-.031-.444-.59-.372c-.559.072-.662.383-.662.383l-3.042 4.294s-.404.579.89.357Z" fill="#fff"/><path d="m28.848 29.605-.134.599a.067.067 0 0 0 .102.07l.492-.327s-.106-.18-.16-.223c-.064-.05-.3-.119-.3-.119Z" fill="#ECECEC"/><path d="M30.41 4.668c.243 0 .487.056.71.17l.246.14c.417.276.679.733.706 1.233V23.4l8.386-12.303s.068.002.175.012v-.001s.104-.31.663-.383a.911.911 0 0 1 .117-.008c.11 0 .195.024.26.059l.4-.64s.14-.041.326-.041c.166 0 .366.032.532.154.424.312.352.662.352.662l-.886 1.208c.112.207.11.344.11.344l-10.435 15.11v3.967c-.027.5-.291.959-.711 1.232L9.418 45.44a1.555 1.555 0 0 1-.925.153 1.567 1.567 0 0 1-.546-.167l-.206-.122a1.582 1.582 0 0 1-.697-1.224V18.733a1.47 1.47 0 0 1 .204-.7l.004.002c.122-.212.293-.395.503-.532L29.698 4.838c.224-.114.467-.17.711-.17Zm0-.686c-.354 0-.707.084-1.022.244l-.017.008-.016.01L7.412 16.909l-.016.01-.017.01a2.262 2.262 0 0 0-.28.216l-.087-.051-.355.59a2.16 2.16 0 0 0-.299 1.028v25.387l.001.02a2.28 2.28 0 0 0 1 1.754l.016.01.017.01.206.122.016.01.016.008c.243.126.504.207.776.239a2.255 2.255 0 0 0 1.322-.222l.017-.008.016-.01 21.942-12.665.017-.009.015-.01a2.265 2.265 0 0 0 1.022-1.77v-3.789l10.314-14.935.118-.171.003-.208c.001-.046-.002-.13-.026-.243l.67-.914.089-.121.03-.147c.073-.36-.044-.93-.618-1.352a1.568 1.568 0 0 0-.938-.288c-.268 0-.476.056-.515.067l-.254.073-.14.224-.162.26a1.66 1.66 0 0 0-.12.012c-.417.054-.697.204-.884.364l-.223-.005-.21.307-7.133 10.465V6.192l-.001-.019a2.278 2.278 0 0 0-1.012-1.767l-.019-.012-.02-.01-.244-.141-.016-.01-.016-.007a2.272 2.272 0 0 0-1.02-.244Z" fill="#374874"/></svg>