<?xml version="1.0" encoding="UTF-8"?><svg id="b" xmlns="http://www.w3.org/2000/svg" viewBox="0 0 280 280"><g id="bl"><g style="isolation:isolate;"><path d="m115.0791,102.4333c13.709,7.915,27.4179,15.8296,41.127,23.7447.0375.0217-3.8348,2.3027-10.2757,6.0457l-49.0344-28.31c6.4408-3.743,13.5821-4.1367,18.183-1.4804Z" style="fill:#c1dbf6;"/><polygon points="93.0478 106.15 96.8961 103.9136 145.9304 132.2236 142.0822 134.46 93.0478 106.15" style="fill:#c1dbf6;"/><path d="m157.2298,231.9831c-.0448-.7837-.27-1.813-.4299-2.582-.0826-.397-.2637-.9087-.377-1.2979-.233-.8003-.7205-1.8076-1.0688-2.5649l-.7068-1.3994c-.3524-.7017-.7078-1.4019-1.0615-2.1025-.2365-.4688-.473-.937-.7095-1.4053-.3563-.7056-.7125-1.4111-1.0687-2.1162.0028.0054.0008.0132.0004.0205.0004-.0073.0023-.0156-.0005-.021-1.3184-2.563-2.0947-4.5874-2.4677-5.5601-.2144-.5591-.4915-1.3076-.6758-1.8774-.1805-.5576-.4291-1.2993-.6003-1.8599-.1698-.5562-.3909-1.2993-.5362-1.8628-.2792-1.083-.6378-2.5312-.8669-3.6255-.3223-1.5405-.511-2.7666-.6237-3.499-.0541-.3516-.2426-1.6284-.396-3.2964-.112-1.2183-.1712-2.3828-.1893-3.0664-.0107-.4087-.0279-.9536-.0215-1.3618q.026-1.6567.0817-2.4751c.0535-.7866.0815-.9883.2159-1.957.0009-.0059.108-.6724.1784-.8843.1619-.4868.3015-.8179.6137-1.5068.2225-.4912.693-1.4302.8749-1.7773.3443-.6582.7346-1.4033,1.3812-2.5527.6717-1.1943,1.1686-2.0405,1.62-2.8052.1033-.1748.2397-.4087.3413-.585-.1039.1846-.2339.3721-.3509.5581.1338-.2129.2786-.4268.3954-.6377.3-.5605.692-1.3154.9196-1.9092.1804-.4707.4326-1.0947.5908-1.5737.1947-.5894.4399-1.3804.5847-1.9839.3325-1.3853.7146-3.2476.9454-4.6533.2543-1.5498.5544-3.8228.7468-5.6558.3045-2.9023.4714-4.9492.5578-6.1553.1962-2.7393.3655-5.1045.5701-9.5923.2871-6.3013.4585-36.9316.5094-44.0205-.0002.043-3.8663,2.3203-10.2759,6.0449l-3.8483,2.2363c-8.5015,4.9404-18.2616,10.5591-21.796,12.5474-.0161,1.897,6.0202,58.2202-4.0275,68.2681-.3616.3618-5.3122,8.7397-6.133,12.5537-1.497,6.9663-.3777,21.8389,6.2944,34.8311l3.5331,6.998c1.3196,2.6138,1.6581,4.9819,1.2946,6.7476-.1809,2.0771-1.7686,3.6016-3.2989,5.2017.2827.1182.5803.2344.836.3145,1.0284.3213,1.5885.4746,2.9265.6519.9127.1206,2.2532.1436,2.8126.1074,1.5067-.0986,2.0143-.1323,2.8354-.2861.4482-.0845,1.0503-.1763,1.4934-.2842.4208-.1025.9844-.229,1.4025-.3423.4571-.124,1.0629-.3027,1.5137-.4482.8824-.2837,2.0359-.7319,2.8979-1.0732.4675-.1851,1.0731-.4741,1.5317-.6807.5276-.2373,1.2131-.5928,1.7255-.8613.4429-.2324,1.0204-.5664,1.4578-.8091l3.8482-2.2363c.4535-.2642,1.0571-.6191,1.4937-.9102.4085-.2725.9589-.627,1.3616-.9077.4169-.291.9653-.6895,1.3698-.9976,1.6514-1.2578,2.9314-2.4541,3.6408-3.1753.605-.6152,1.3694-1.4766,1.9293-2.1333.3098-.3633.6921-.8735.9673-1.2637.2933-.4155.6819-.9736.9342-1.4155.3835-.6719.8579-1.5894,1.1819-2.2915.2382-.5161.7657-1.978.965-3.1763.2592-1.5586.2281-2.3076.1562-3.5649Z" style="fill:#fff;"/><path d="m119.9532,245.8171c-1.1777-2.3325-2.3554-4.665-3.5331-6.9976-6.6721-12.9922-7.7914-27.8647-6.2944-34.8311.8209-3.814,5.7714-12.1919,6.1331-12.5537,10.2339-10.2339,4.0114-66.3711,4.0275-68.2681-12.105-6.9888-24.21-13.9775-36.3151-20.9663-.8535-1.4785-1.2549-3.1279-1.2501-4.8491-.0736,26.0659-.1481,75.9702-.2217,102.0361l-.0238,8.3828c-.0016,2.479.2527,4.3794.2553,4.3979.0878.6323.1795,1.4795.3016,2.1055.1233.6328.2725,1.479.4113,2.1084.1422.6445.3572,1.498.5248,2.1362.4213,1.6055,1.1219,3.6401,1.3403,4.1987.2432.6221.543,1.4614.812,2.0728.5413,1.2305,1.2766,2.8667,1.8878,4.064.3073.6021.7374,1.3945,1.0703,1.9824.3334.5894.8051,1.3594,1.1501,1.9419.3455.583.8594,1.3271,1.2282,1.896.1508.2324,1.3786,2.0288,2.6801,3.6304.429.5278,1.0103,1.2241,1.4593,1.7349.442.5029,1.0569,1.1504,1.51,1.6431.4506.4902,1.1012,1.0957,1.5745,1.564.4836.4785,1.1677,1.0757,1.6842,1.5186.4993.4287,1.1904.9688,1.7007,1.3843.0002.0005.0004.0005.0005.0005.3749.2896.8746.6753,1.2495.9644.1874.1445.4373.3374.6247.4824.3749.2891.8746.6748,1.2495.9644.3748.2891.8746.6748,1.2495.9639.1874.145.4373.3379.6248.4824.3748.2891.8746.6748,1.2495.9644,2.0676,1.5957,4.1351,3.1914,6.2026,4.7871.3516.3276.6298.5259.7244.5923.1322.0928.3088.2007.3444.2217.0626.0361.1462.085.2099.1196.1033.0562.209.1079.3124.1641h.0001c.0439.0244.0889.0464.1327.0703.0593.0332.136.0811.1963.1118.3422.1753.7963.4136,1.146.5737.1084.0498.2404.1025.3661.1548,1.5303-1.6001,3.118-3.1245,3.2989-5.2017-.0388.188-.0868.3682-.1413.5425.5665-1.8057.3069-4.3979-1.1533-7.2905Z" style="fill:#c1dbf6;"/></g><g style="isolation:isolate;"><path d="m134.2823,144.075l-.9344,4.2344c-1.0683,4.8523-.9144,10.6289.4454,16.7894l.424,1.9208-4.1707-2.4079c-2.2147-1.2787-4.005-4.3796-3.9978-6.9273l.052-18.333,8.1815,4.7236Z" style="fill:#374874;"/><path d="m147.7203,156.6019c-.0781-.3653-.1521-.7295-.2217-1.0921-.0277-.1445-.0543-.2889-.0807-.4332-.0596-.3256-.1154-.6498-.1681-.9728-.0211-.1292-.0432-.259-.0632-.3878-.068-.4389-.1313-.8758-.1863-1.3094-.0038-.0295-.0065-.0584-.0101-.0879-.0502-.4018-.0941-.8009-.1333-1.1977-.0131-.1331-.0241-.265-.036-.3975-.027-.3011-.051-.6009-.0715-.8989-.0095-.1383-.019-.2767-.0271-.4142-.0194-.3277-.0343-.6532-.0457-.9771-.0032-.0922-.0084-.1853-.011-.2771-.0118-.4136-.0169-.8234-.0156-1.2297.0003-.0989.0031-.1965.0042-.2951.0034-.3166.0105-.6313.0219-.9433.0047-.1275.0102-.2545.0162-.3814.0153-.323.0352-.6434.0592-.9611.0068-.0898.0119-.1806.0194-.2701.0342-.4082.0761-.8116.1248-1.2103.0112-.0918.0246-.182.0366-.2732.0446-.3391.0945-.6748.1498-1.0067.0173-.1038.0337-.208.052-.311.0661-.3719.1367-.7404.2164-1.1022l.9344-4.2344-14.0022,8.1372-.9344,4.2344c-.0797.362-.1504.7309-.2165,1.103-.0072.0404-.0165.0794-.0235.1197-.0108.0623-.0178.1271-.0282.1896-.0553.3323-.1053.6682-.1499,1.0081-.0081.0621-.0196.1218-.0274.1841-.0036.0291-.0056.0596-.0091.0887-.0487.3987-.0906.8021-.1248,1.2105-.0018.0221-.0049.0435-.0068.0656-.0055.0673-.0075.1368-.0126.2043-.024.3178-.0439.6381-.0592.9613-.003.064-.009.1261-.0117.1903-.0026.0631-.0021.1279-.0044.1911-.0114.312-.0185.6265-.0219.9431-.0008.0739-.0048.1461-.0051.2204-.0001.0246.001.0501.0009.0747-.0012.4061.0038.8156.0156,1.2289.0006.0196.0002.0386.0008.0584.0022.0731.0078.1482.0104.2218.0114.323.0263.6476.0456.9747.0035.0598.0045.118.0083.1777.0049.078.0134.1579.0188.2361.0206.2986.0446.5985.0716.9.0077.0863.0122.1711.0205.2577.0044.046.0109.0929.0155.1391.0391.3968.0829.7957.1332,1.1975.0032.0258.0053.051.0086.0768.0005.0037.0011.0076.0016.0113.0551.4336.1183.8705.1863,1.3094.0064.0415.0111.0823.0176.124.0138.0877.0314.1767.0457.2646.0526.3226.1084.6465.1679.9718.0146.0799.0262.1587.0413.2388.0121.0646.0271.1302.0396.195.0693.3613.1432.7243.221,1.0886.016.0747.029.1484.0453.2233.0101.0464.0203.0929.0306.1395l.424,1.9207s4.8547.511,9.0208-1.6114c3.918-1.9959,4.9815-6.5258,4.9815-6.5258l-.424-1.9207c-.0266-.1203-.0496-.2396-.0753-.3597Z" style="fill:#c1dbf6;"/></g><g style="isolation:isolate;"><path d="m133.0881,21.0253c-2.2164-1.2881-5.2858-1.1063-8.6739.85l-54.422,27.6118,75.3483,63.2799,82.236-47.4789c2.7366-1.5799,5.2646-2.0011,7.3038-1.4264l-101.7921-42.8363Z" style="fill:#fbdbd0;"/><path d="m234.8802,63.8617l1.3702.5766c-.4262-.2478-.8846-.4398-1.3702-.5766Z" style="fill:#fff;"/><path d="m227.5764,65.2881c6.7329-3.8873,12.2076-.7675,12.2295,6.9691l-2.7674,19.6308c-2.2178,10.0459-7.3214,15.8919-12.9178,19.123l-75.0743,43.3442c-5.5964,3.2311-10.5054,4.2521-12.9864-4.1671l-2.8695-16.3763c-.0219-7.7366,5.4197-17.1589,12.1501-21.0446l82.236-47.479Z" style="fill:#fff;"/><path d="m142.3551,152.7492c-.9012,0-1.7157-1.1695-2.4219-3.4779l-2.7665-15.7882c.1339-6.2938,4.725-14.1371,10.1604-17.2751l82.2361-47.4789c1.6321-.9421,2.7952-1.14,3.4835-1.14,2.294,0,2.7397,2.6514,2.7822,4.4142l-2.703,19.1741c-1.7223,7.6613-5.42,13.1755-10.9919,16.3927l-75.0744,43.3441c-2.1089,1.2176-3.6917,1.835-4.7045,1.835Z" style="fill:#374874;"/><path d="m139.782,156.0575l-1.398-1.1742c.4378.499.9045.8872,1.398,1.1742Z" style="fill:#fff;"/><path d="m145.3404,112.767l-75.3483-63.2799c-6.7304,3.8857-12.172,13.3081-12.1501,21.0446l1.6425,9.3739c.8667,4.9462,3.331,9.4717,7.023,12.8754,18.0318,16.6234,71.8764,62.1024,71.8764,62.1024-.9114-1.0388-1.6958-2.5633-2.3241-4.6954l-2.8695-16.3762c-.0219-7.7365,5.4197-17.1589,12.1501-21.0448Z" style="fill:#fff;"/></g><path d="m129.8843,20.2028c1.192,0,2.2731.2817,3.2038.8228l101.7834,42.8325c.2236.0625.4391.1411.6505.2275.0403.0161.0806.0327.1205.0503.2028.0879.4011.1846.5917.2944.0052.0029.0109.0049.0161.0078l-.0101-.0039c2.1935,1.269,3.5547,3.9741,3.5657,7.8228l-2.7675,19.6309c-2.2178,10.0459-7.3215,15.8921-12.9178,19.123l-68.6421,39.6309c-.1169,2.0298-.229,3.5967-.3517,5.3091-.0864,1.2061-.2534,3.2529-.5578,6.1553-.1923,1.833-.4924,4.106-.7468,5.6558-.2307,1.4058-.6128,3.2681-.9453,4.6533-.1448.603-.39,1.3945-.5847,1.9839-.1582.479-.4104,1.1025-.5908,1.5737-.2275.5938-.6195,1.3486-.9196,1.9092-.0567.1025-.1197.2056-.1809.3086-.0036.0059-.0072.0122-.0108.0181.0036-.0059.0072-.0122.0108-.0181.0345-.0581.0704-.1157.1044-.1733-.0969.1675-.2164.3721-.3092.5293-.4514.7646-.9483,1.6108-1.62,2.8052-.6467,1.1494-1.0369,1.895-1.3812,2.5527-.182.3472-.6524,1.2861-.875,1.7773-.3122.689-.4518,1.02-.6137,1.5073-.0704.2114-.1776.8779-.1784.8838-.1345.9688-.1624,1.1704-.2159,1.957q-.0557.8184-.0817,2.4751c-.0064.4087.0108.9531.0215,1.3618.018.6836.0773,1.8486.1892,3.0664.1534,1.668.3419,2.9448.396,3.2964.1127.7324.3014,1.9585.6237,3.499.2291,1.0942.5876,2.5425.8669,3.6255.1452.5635.3663,1.3066.5361,1.8628.1712.5605.4198,1.3022.6003,1.8599.1843.5698.4615,1.3184.6758,1.8774.3731.9727,1.1494,2.9971,2.4677,5.5601.0028.0054.0009.0137.0005.021.0004-.0073.0023-.0151-.0004-.021.3563.7056.7125,1.4111,1.0687,2.1167.2365.4683.4732.9365.7095,1.4053.3537.7007.709,1.4009,1.0615,2.1025l.7067,1.3994c.0047.0093.0045.021.0022.0342.0021-.0122.0024-.0234-.0013-.0322.3482.7568.8351,1.7632,1.0679,2.563.1133.3892.2945.9009.377,1.2979.1599.769.3851,1.7983.4299,2.582.072,1.2573.103,2.0063-.1562,3.5649-.1993,1.1987-.7268,2.6602-.965,3.1763-.324.7021-.7985,1.6196-1.1819,2.2915-.2522.4419-.6409,1-.9342,1.4155-.2752.3901-.6575.9004-.9673,1.2637-.5598.6567-1.3242,1.5181-1.9292,2.1333-.7095.7212-1.9894,1.9175-3.6409,3.1753-.4044.3081-.9529.7065-1.3698.9976-.4026.2808-.953.6353-1.3615.9077-.4367.291-1.0403.646-1.4937.9102l-3.8483,2.2363c-.4373.2427-1.0148.5767-1.4577.8091-.5124.2686-1.1979.624-1.7255.8618-.4586.2061-1.0641.4951-1.5316.6802-.862.3413-2.0155.7896-2.8979,1.0737-.4508.145-1.0567.3237-1.5137.4478-.418.1133-.9817.2397-1.4025.3423-.4431.1079-1.0452.2002-1.4934.2842-.8212.1538-1.3287.1875-2.8354.2861-.1573.0103-.3764.0156-.6305.0156-.6492,0-1.5262-.0361-2.1822-.123-1.338-.1768-1.898-.3306-2.9265-.6523-.3694-.1152-.8501-.3076-1.2021-.4688-.3496-.1602-.8038-.3984-1.146-.5737-.0602-.0308-.137-.0786-.1963-.1118-.0438-.0239-.0888-.0459-.1328-.0703h0c-.1034-.0562-.209-.1079-.3124-.1641-.0637-.0347-.1473-.0835-.2099-.1196-.0356-.021-.2122-.1289-.3444-.2217-.0948-.0659-.3734-.2646-.7255-.5928-2.0672-1.5957-4.1343-3.1909-6.2015-4.7866-.3749-.2896-.8747-.6748-1.2495-.9644-.1874-.1445-.4373-.3374-.6247-.4819-.3748-.2896-.8746-.6753-1.2495-.9644-.3749-.2896-.8747-.6753-1.2495-.9644-.1874-.145-.4373-.3379-.6247-.4824-.3748-.2896-.8746-.6748-1.2495-.9644h-.0003c-.5103-.4155-1.2016-.9561-1.701-1.3848-.5164-.4429-1.2006-1.04-1.6842-1.5186-.4732-.4683-1.1238-1.0737-1.5744-1.564-.4531-.4927-1.0681-1.1401-1.51-1.6431-.4491-.5107-1.0303-1.207-1.4593-1.7349-1.3014-1.6016-2.5293-3.3979-2.6801-3.6304-.3687-.5684-.8827-1.313-1.2282-1.896-.3451-.5825-.8167-1.3525-1.1501-1.9419-.3329-.5879-.763-1.3804-1.0703-1.9824-.6112-1.1973-1.3464-2.8335-1.8878-4.0635-.269-.6118-.5688-1.4512-.812-2.0732-.2184-.5586-.919-2.5933-1.3404-4.1987-.1675-.6382-.3826-1.4917-.5247-2.1362-.1388-.6294-.288-1.4756-.4113-2.1084-.1221-.6265-.2138-1.4731-.3015-2.1055-.0026-.0181-.2569-1.9189-.2553-4.3979l.0238-8.3828c.0651-23.0776.131-64.8384.1963-92.2002-6.4958-5.6733-12.2128-10.7417-16.1881-14.4062-3.692-3.4038-6.1563-7.9292-7.023-12.8755l-1.6425-9.3735c-.0219-7.7368,5.4196-17.1592,12.1501-21.0449l54.422-27.6118c1.9654-1.1348,3.8235-1.6724,5.4701-1.6724m20.853,157.7588c-.0104.0186-.0211.0371-.032.0557.011-.019.0217-.0376.032-.0557m4.6168,47.5767s.0006.0015.0009.002c-.0003-.0005-.0006-.0015-.0009-.002m-25.4698-209.3354c-2.3874,0-4.8668.7236-7.3711,2.1514l-54.3309,27.5659-.0965.0488-.0936.0542c-7.9606,4.5957-14.1761,15.3662-14.1501,24.52l.001.3423.0591.3369,1.6425,9.3735c1.0132,5.7822,3.9436,11.1543,8.2516,15.126,3.4524,3.1826,8.4586,7.645,14.8951,13.2778-.027,11.5674-.0541,25.4731-.0812,39.3774-.037,18.9858-.074,37.9702-.1108,50.999l-.0238,8.3828c-.0018,2.8105.2924,4.9526.2953,4.9736.0213.1538.0449.3389.0695.5303.0722.563.1539,1.2012.2659,1.7759l.1194.6289c.1006.5361.2093,1.1104.3119,1.5757.1857.8423.4549,1.8823.562,2.2905.4488,1.71,1.1933,3.896,1.4839,4.6396.0716.1831.1485.3867.2282.5977.1973.522.4208,1.1133.6474,1.6284.8172,1.8569,1.4669,3.2539,1.987,4.2729.3143.6157.7666,1.4536,1.1522,2.1343.2407.4258.5499.9419.8391,1.4238l.3503.5859c.2894.4883.6434,1.0215.9558,1.4912.1268.1909.2494.3755.3583.5435.184.2837,1.5069,2.2227,2.9314,3.9756.4152.5107,1.0426,1.2656,1.5597,1.8535.3241.3691.7354.8115,1.119,1.2236l.4507.4858c.3917.4263.8558.8755,1.2653,1.2715.1554.1504.3054.2949.4398.4282.4536.4487,1.0554.9927,1.8939,1.7119.3668.3149.8305.6875,1.2645,1.0356.1816.1455.3572.2861.5147.4146l.0403.0327.0412.0317.5039.3887.7447.5747.6226.481,1.2516.9658,1.2493.9644.2502.1929.3772.291.6393.4937.6078.4688,3.2507,2.5093,2.8202,2.1768c.4175.3755.7784.6455,1.0176.812.2205.1548.5332.3457.5963.3833l.0137.0078.0443.0259c.0866.0498.1892.1089.2701.1528.0805.0439.1576.084.2348.1235l.0818.043c.0205.0112.064.0347.1112.0591.1058.062.2151.123.3083.1704l.1831.0942c.361.186.7799.3999,1.1159.5537.5487.251,1.1751.4941,1.6769.6504,1.2652.396,2.0453.5952,3.5935.7993,1.1018.1465,2.3499.1577,2.7061.1577.3578,0,.6664-.0098.888-.0239,1.5484-.1016,2.2534-.1475,3.3143-.3462l.3896-.0693c.4106-.0718.8761-.1533,1.314-.2603l.4061-.0967c.3729-.0879.773-.1836,1.0962-.271.528-.1436,1.1919-.3398,1.6922-.501.9957-.3203,2.204-.7896,3.1456-1.1621.4369-.1733.9054-.3882,1.3188-.5776l.3799-.1733c.6096-.2744,1.324-.6431,1.9428-.9673.3329-.1748.7324-.3994,1.1056-.6099l.4359-.2446.0348-.019.0344-.02,3.8483-2.2363c.5584-.3252,1.194-.7017,1.7023-1.04l.4132-.2729c.3481-.2295.7198-.4746,1.0179-.6821.4808-.3359,1.0713-.7661,1.5058-1.0972,1.9919-1.5171,3.4039-2.8765,4.0682-3.5518.8643-.8789,1.8426-2.0161,2.1218-2.3438.5176-.6069,1.0431-1.3418,1.1918-1.5527.3799-.5381.8131-1.1665,1.1395-1.7383.4468-.7827.9728-1.8027,1.34-2.5981.3513-.7617,1.0092-2.5737,1.2789-4.1968.3181-1.9126.2892-2.957.2038-4.4492-.0583-1.0205-.2863-2.1113-.4695-2.9873l-.0376-.1802c-.0971-.4673-.2398-.9204-.3545-1.2842-.0352-.1118-.0696-.2197-.0982-.3179-.2282-.7842-.5731-1.5879-.8957-2.2959l.0007-.0659-.37-.7402-.0004-.001-.0662-.1328-.009-.0176-.705-1.396-.7036-1.394-.3577-.708-.6346-1.2568-.0754-.1494-.3045-.603-.2383-.4722.0023-.0229-.5572-1.0747c-1.2021-2.3374-1.9258-4.2241-2.2736-5.1309-.2549-.6646-.4754-1.2759-.6056-1.6782l-.1826-.5591c-.137-.4175-.2854-.8691-.3979-1.2378-.2183-.7148-.3871-1.3003-.4882-1.6924-.3502-1.3579-.6509-2.6143-.8252-3.4468-.3002-1.4351-.4787-2.5947-.5853-3.2876-.0498-.3237-.2231-1.498-.3663-3.0547-.1033-1.1235-.1582-2.2139-.1738-2.8057l-.0042-.1553c-.009-.3306-.0213-.7295-.0165-1.0386q.0244-1.5518.073-2.2661c.0434-.6382.0572-.7422.1817-1.6392.0112-.0698.0348-.2129.0599-.3354.0809-.2314.1703-.4453.419-.9941.1819-.4009.617-1.271.7743-1.5708.3335-.6372.7086-1.3535,1.3247-2.4487.6515-1.1587,1.1369-1.9854,1.5783-2.7329.0979-.1655.2255-.3843.3288-.563l.056-.0977-.0003-.0005c.019-.0327.0376-.0659.0558-.0991l.014-.0249.0136-.0254c.3633-.6787.8198-1.561,1.1281-2.3657l.1371-.354c.1711-.439.3649-.937.5168-1.3965.1674-.5068.478-1.481.6758-2.3042.3697-1.54.7634-3.4785,1.0031-4.9395.2656-1.6182.5782-3.9839.7778-5.8862.3102-2.9565.4808-5.0508.5694-6.2871.076-1.0605.1493-2.085.2225-3.2051l66.7814-38.5566c7.5184-4.3403,12.6443-11.8525,14.8238-21.7246l.0333-.1509.0215-.1528,2.7675-19.6309.04-.2837-.0008-.2861c-.0146-5.1279-2.0421-9.2368-5.5626-11.2739l-.2231.3857.1923-.4053-.1608-.0903-.0139-.0063c-.2399-.1309-.5113-.2627-.8049-.3901-.0611-.0269-.1439-.061-.2272-.0947-.2593-.106-.5205-.2007-.7798-.2822l-101.3799-42.6631c-1.494-.8115-3.1617-1.2227-4.9618-1.2227h0Z" style="fill:#374874;"/></g></svg>