<svg width="64" height="64" viewBox="0 0 64 64" fill="none" xmlns="http://www.w3.org/2000/svg">
<path d="M29.4746 50.3288C30.5475 50.9544 32.2872 50.9618 33.3584 50.3454L57.6413 36.3723C58.7125 35.7559 58.7111 34.7482 57.6382 34.1227L39.9671 23.8192C38.8942 23.1936 37.1545 23.1862 36.0834 23.8025L11.8004 37.7756C10.7293 38.392 10.7306 39.3998 11.8035 40.0253L29.4746 50.3288Z" fill="white"/>
<path d="M31.1228 51.7239C31.1151 51.7234 31.1073 51.7234 31.0995 51.7229C31.0295 51.718 30.9598 51.7115 30.8906 51.7035C30.8886 51.7032 30.8866 51.7031 30.8847 51.7029C30.8375 51.6974 30.7906 51.6912 30.7438 51.6843C30.7059 51.6786 30.668 51.6725 30.6304 51.6659C30.6295 51.6657 30.6285 51.6656 30.6275 51.6654C30.627 51.6653 30.6265 51.6652 30.6259 51.6651C30.5877 51.6584 30.5497 51.6512 30.512 51.6435C30.4749 51.6359 30.438 51.6279 30.4014 51.6194C30.3956 51.618 30.3898 51.6164 30.3839 51.615C30.3776 51.6135 30.3714 51.6119 30.3651 51.6104C30.3398 51.6043 30.3144 51.5982 30.2892 51.5916C30.2518 51.5818 30.2147 51.5715 30.1779 51.5606C30.1668 51.5573 30.1559 51.5536 30.1449 51.5502C30.1363 51.5476 30.1278 51.545 30.1194 51.5423C30.1017 51.5368 30.0838 51.5316 30.0664 51.5258C30.0298 51.5137 29.9936 51.5012 29.9578 51.4881C29.9423 51.4824 29.9271 51.4763 29.9118 51.4704C29.9039 51.4674 29.896 51.4644 29.8882 51.4613C29.8766 51.4568 29.8648 51.4526 29.8533 51.448C29.8199 51.4345 29.787 51.4205 29.7544 51.4062C29.7311 51.3958 29.7081 51.3849 29.6851 51.3741C29.6809 51.372 29.6764 51.3701 29.6722 51.368C29.6681 51.3662 29.6641 51.3645 29.6601 51.3625C29.6303 51.3481 29.6008 51.3332 29.5717 51.3178C29.5431 51.3028 29.5148 51.2873 29.4871 51.2714C29.4806 51.2677 29.4742 51.264 29.4679 51.2603L11.7968 40.9568C11.7761 40.9448 11.7559 40.9326 11.736 40.9203C11.7102 40.9043 11.6851 40.888 11.6606 40.8716C11.6446 40.8609 11.6294 40.8498 11.6139 40.8389C11.6104 40.8363 11.6065 40.8338 11.6029 40.8312C11.5984 40.828 11.5936 40.8248 11.5892 40.8216C11.5661 40.8048 11.5437 40.7876 11.5219 40.7704C11.4996 40.7527 11.4781 40.7349 11.4572 40.7168C11.4536 40.7137 11.4504 40.7105 11.4468 40.7074C11.4435 40.7045 11.4404 40.7016 11.4372 40.6987C11.4234 40.6864 11.4096 40.6741 11.3964 40.6617C11.3758 40.6423 11.3561 40.6227 11.3372 40.6029C11.328 40.5933 11.3195 40.5834 11.3106 40.5737C11.3068 40.5695 11.3029 40.5653 11.2992 40.5611C11.2935 40.5549 11.2876 40.5487 11.2822 40.5424C11.2631 40.5202 11.2449 40.4979 11.2276 40.4754C11.2169 40.4613 11.2073 40.4471 11.1973 40.433C11.194 40.4281 11.1904 40.4234 11.187 40.4186C11.1838 40.4138 11.1801 40.4092 11.177 40.4045C11.1597 40.3787 11.1437 40.3527 11.1289 40.3265C11.1223 40.3149 11.117 40.303 11.1109 40.2913C11.1062 40.2823 11.1015 40.2733 11.0971 40.2643C11.0926 40.255 11.0872 40.2458 11.0829 40.2365C11.067 40.2015 11.0531 40.1662 11.0413 40.1309C11.0411 40.1301 11.041 40.1294 11.0408 40.1287C11.0381 40.1206 11.0369 40.1123 11.0345 40.1042C11.0234 40.0675 11.0129 40.0309 11.0062 39.994C11.0057 39.9909 11.006 39.9878 11.0054 39.9848C10.9962 39.9302 10.9909 39.8755 10.9912 39.8207L10.9978 38.8892C10.9975 38.9439 11.0028 38.9986 11.0121 39.0531C11.0189 39.0931 11.0291 39.1329 11.0411 39.1726C11.0436 39.1808 11.0447 39.189 11.0474 39.1971C11.0624 39.2427 11.0818 39.2879 11.1037 39.3327C11.1082 39.3418 11.1128 39.3508 11.1175 39.3598C11.1399 39.4026 11.1648 39.4451 11.1936 39.487C11.197 39.4918 11.2006 39.4966 11.204 39.5015C11.2346 39.5448 11.2683 39.5876 11.3058 39.6295C11.3095 39.6338 11.3134 39.6379 11.3172 39.6421C11.3559 39.6846 11.398 39.7264 11.4438 39.7671C11.4471 39.77 11.4501 39.773 11.4534 39.7758C11.5016 39.8181 11.5537 39.8595 11.6095 39.8996C11.6132 39.9022 11.6169 39.9047 11.6205 39.9074C11.6777 39.9479 11.7384 39.9874 11.8034 40.0253L29.4745 50.3287C29.5402 50.367 29.6085 50.4028 29.6787 50.4365C29.683 50.4385 29.6875 50.4405 29.6918 50.4425C29.7576 50.4736 29.8255 50.5026 29.8948 50.5297C29.9026 50.5328 29.9105 50.5358 29.9184 50.5388C29.9862 50.5647 30.0555 50.5887 30.1261 50.6107C30.1346 50.6133 30.1429 50.616 30.1513 50.6186C30.2236 50.6406 30.2971 50.6607 30.3718 50.6788C30.378 50.6803 30.3842 50.6819 30.3905 50.6834C30.4706 50.7024 30.5519 50.7193 30.6342 50.7338C30.6351 50.734 30.6361 50.7341 30.6371 50.7342C30.7209 50.7489 30.8058 50.7613 30.8913 50.7713C30.8916 50.7713 30.8919 50.7714 30.8921 50.7714C30.8938 50.7716 30.8955 50.7717 30.8972 50.7719C30.9741 50.7808 31.0517 50.7872 31.1294 50.7923C31.1435 50.7932 31.1576 50.7934 31.1717 50.794L31.1778 51.7261C31.1595 51.7253 31.1411 51.7251 31.1228 51.7239Z" fill="#C1DBF6"/>
<path d="M33.191 51.3624C33.1782 51.3687 33.1649 51.3747 33.1518 51.3809C33.1462 51.3835 33.1406 51.3862 33.135 51.3888C33.1249 51.3935 33.1152 51.3983 33.1051 51.4029C33.0761 51.416 33.0468 51.4286 33.0171 51.4409C32.9869 51.4535 32.9562 51.4657 32.9253 51.4774C32.9244 51.4777 32.9234 51.4781 32.9225 51.4784C32.9212 51.4789 32.9198 51.4794 32.9184 51.4799C32.8896 51.4907 32.8607 51.5013 32.8314 51.5114C32.7989 51.5227 32.7661 51.5335 32.733 51.544C32.7212 51.5477 32.7091 51.551 32.6973 51.5546C32.6903 51.5568 32.6833 51.5589 32.6762 51.5609C32.6617 51.5652 32.6473 51.5698 32.6325 51.574C32.5984 51.5836 32.564 51.5929 32.5293 51.6017C32.504 51.6081 32.4783 51.6141 32.4527 51.62C32.4479 51.6212 32.4433 51.6223 32.4385 51.6235C32.434 51.6245 32.4295 51.6257 32.4251 51.6267C32.3908 51.6344 32.3562 51.6418 32.3216 51.6486C32.2873 51.6555 32.2528 51.6619 32.2181 51.6679C32.2117 51.669 32.2052 51.6699 32.1987 51.671C32.1934 51.6719 32.188 51.6728 32.1827 51.6736C32.161 51.6772 32.1393 51.6809 32.1175 51.6841C32.0839 51.6892 32.0502 51.6938 32.0163 51.6981C31.992 51.7011 31.9674 51.7038 31.943 51.7064C31.9386 51.7069 31.9343 51.7075 31.9301 51.708C31.9254 51.7085 31.9207 51.7091 31.916 51.7096C31.8818 51.7131 31.8474 51.7163 31.813 51.7191C31.7751 51.7222 31.7371 51.7248 31.699 51.7269C31.6933 51.7272 31.6874 51.7274 31.6817 51.7277C31.674 51.728 31.6663 51.7283 31.6587 51.7286C31.6283 51.7301 31.5979 51.7317 31.5675 51.7325C31.5294 51.7336 31.4913 51.7333 31.4532 51.7335C31.4335 51.7336 31.4139 51.7341 31.3942 51.7339C31.3865 51.7339 31.3788 51.7342 31.371 51.7341C31.3375 51.7337 31.3041 51.7311 31.2706 51.73C31.2397 51.7289 31.2088 51.7274 31.1779 51.7261L31.1718 50.794C31.2069 50.7957 31.242 50.7972 31.2772 50.7984C31.3185 50.7997 31.3596 50.802 31.4008 50.8023C31.4206 50.8024 31.4402 50.8019 31.4598 50.8019C31.5284 50.8015 31.597 50.8003 31.6653 50.797C31.673 50.7967 31.6807 50.7964 31.6883 50.796C31.7715 50.7916 31.8544 50.7851 31.9367 50.7764C31.9411 50.7759 31.9453 50.7754 31.9496 50.7749C32.0302 50.766 32.1102 50.7551 32.1894 50.742C32.1947 50.7411 32.2001 50.7403 32.2054 50.7394C32.2863 50.7258 32.3663 50.71 32.4452 50.6919C32.4499 50.6908 32.4545 50.6896 32.4593 50.6885C32.535 50.6709 32.6096 50.6511 32.683 50.6293C32.6899 50.6273 32.6969 50.6252 32.7039 50.623C32.7793 50.6002 32.8534 50.5753 32.9255 50.5481C32.9266 50.5477 32.9278 50.5473 32.9289 50.5469C33.0018 50.5193 33.0726 50.4892 33.1416 50.4572C33.1472 50.4546 33.1528 50.4519 33.1584 50.4493C33.2272 50.4168 33.2941 50.3824 33.3583 50.3454L57.6412 36.3723C57.7055 36.3354 57.7653 36.297 57.8217 36.2574C57.8268 36.2539 57.8316 36.2503 57.8367 36.2467C57.8882 36.21 57.9364 36.1721 57.9813 36.1334C57.9873 36.1283 57.9932 36.1231 57.9991 36.1179C58.0421 36.0799 58.0821 36.0409 58.1188 36.0013C58.1257 35.9938 58.1323 35.9863 58.139 35.9788C58.1731 35.9406 58.2045 35.9018 58.2328 35.8625C58.236 35.8581 58.2397 35.854 58.2427 35.8496C58.2743 35.8046 58.302 35.7589 58.3261 35.7126C58.3604 35.647 58.3849 35.58 58.4041 35.5127C58.4088 35.4964 58.4129 35.48 58.4166 35.4637C58.4323 35.3957 58.4432 35.3274 58.4437 35.2588L58.4371 36.1904C58.4366 36.259 58.4257 36.3273 58.41 36.3953C58.4062 36.4117 58.4022 36.4279 58.3975 36.4443C58.3783 36.5116 58.3538 36.5785 58.3195 36.6442C58.319 36.6452 58.3189 36.6463 58.3183 36.6473C58.2953 36.6911 58.2689 36.7345 58.2391 36.7772C58.2382 36.7786 58.237 36.7799 58.2361 36.7812C58.233 36.7856 58.2293 36.7898 58.2262 36.7941C58.2072 36.8205 58.1877 36.8468 58.1662 36.8727C58.1556 36.8854 58.1436 36.8978 58.1324 36.9104C58.1257 36.9179 58.1191 36.9254 58.1122 36.9329C58.106 36.9396 58.1004 36.9465 58.0941 36.9531C58.0707 36.9774 58.0463 37.0013 58.0206 37.025C58.0116 37.0332 58.0019 37.0412 57.9926 37.0493C57.9866 37.0546 57.9806 37.06 57.9744 37.0652C57.9653 37.0731 57.9568 37.0811 57.9473 37.0889C57.9236 37.1085 57.899 37.128 57.8735 37.1471C57.8595 37.1576 57.8446 37.1678 57.8301 37.1782C57.8251 37.1818 57.8201 37.1854 57.8151 37.189C57.8089 37.1933 57.8031 37.1978 57.7969 37.202C57.772 37.2191 57.7464 37.2359 57.72 37.2525C57.6939 37.2689 57.6671 37.2851 57.6394 37.3011C57.6379 37.302 57.6362 37.303 57.6346 37.3039L33.3517 51.277C33.3264 51.2915 33.3009 51.3057 33.2749 51.3195C33.2473 51.3342 33.2194 51.3485 33.191 51.3624Z" fill="#FBDBD0"/>
<path d="M31.8605 50.0873C31.8226 50.0904 31.7846 50.093 31.7465 50.0951C31.7407 50.0954 31.7349 50.0955 31.7291 50.0958C31.7214 50.0963 31.7138 50.0964 31.706 50.0968C31.6757 50.0983 31.6454 50.0998 31.6149 50.1007C31.5767 50.1018 31.5383 50.1015 31.5 50.1016C31.4806 50.1017 31.4613 50.1023 31.4419 50.1021C31.4342 50.1021 31.4264 50.1024 31.4186 50.1023C31.3846 50.1019 31.3507 50.0993 31.3166 50.0981C31.2679 50.0965 31.2193 50.0952 31.1707 50.0921C31.1628 50.0916 31.1548 50.0917 31.147 50.0911C31.076 50.0862 31.0054 50.0796 30.9352 50.0715C30.9345 50.0714 30.9338 50.0713 30.9331 50.0713C30.8857 50.0657 30.8384 50.0595 30.7913 50.0525C30.7534 50.0469 30.7155 50.0407 30.6778 50.0341C30.677 50.0339 30.676 50.0338 30.6751 50.0336C30.6746 50.0335 30.674 50.0335 30.6734 50.0334C30.6353 50.0266 30.5973 50.0194 30.5595 50.0117C30.5225 50.0041 30.4856 49.9961 30.449 49.9876C30.4431 49.9862 30.4373 49.9846 30.4314 49.9832C30.4251 49.9818 30.4191 49.9802 30.4128 49.9787C30.3875 49.9725 30.362 49.9665 30.3369 49.9598C30.2994 49.95 30.2624 49.9397 30.2256 49.9288C30.2143 49.9255 30.2033 49.9218 30.1921 49.9184C30.1838 49.9158 30.1755 49.9132 30.1671 49.9106C30.1494 49.9051 30.1315 49.8998 30.1139 49.894C30.0773 49.882 30.0412 49.8694 30.0053 49.8564C29.9899 49.8506 29.9747 49.8445 29.9593 49.8386C29.9514 49.8356 29.9435 49.8326 29.9358 49.8296C29.9242 49.8251 29.9124 49.8209 29.901 49.8162C29.8676 49.8028 29.8345 49.7888 29.802 49.7744C29.7784 49.764 29.7553 49.753 29.7323 49.7421C29.7282 49.7402 29.724 49.7384 29.7199 49.7365C29.716 49.7345 29.7117 49.7327 29.7077 49.7308C29.6778 49.7163 29.6483 49.7015 29.6193 49.6861C29.5906 49.6711 29.5624 49.6556 29.5346 49.6397C29.5283 49.636 29.5218 49.6323 29.5154 49.6286L12.8167 39.8921C12.7961 39.88 12.7757 39.8679 12.7558 39.8555C12.7299 39.8394 12.7048 39.8231 12.6802 39.8066C12.6643 39.7959 12.6492 39.785 12.6337 39.7741C12.63 39.7714 12.6262 39.7688 12.6225 39.7662C12.6179 39.7629 12.6132 39.7598 12.6087 39.7565C12.5856 39.7396 12.5631 39.7225 12.5412 39.7052C12.5189 39.6875 12.4973 39.6696 12.4765 39.6515C12.4729 39.6484 12.4696 39.6453 12.4661 39.6422C12.463 39.6394 12.4599 39.6365 12.4568 39.6337C12.4428 39.6213 12.4288 39.609 12.4155 39.5964C12.3949 39.577 12.3752 39.5573 12.3562 39.5374C12.347 39.5279 12.3387 39.5181 12.3298 39.5085C12.3259 39.5042 12.322 39.5 12.3182 39.4957C12.3126 39.4894 12.3066 39.4832 12.3011 39.4769C12.2819 39.4547 12.2637 39.4323 12.2465 39.4097C12.2358 39.3959 12.2264 39.3818 12.2164 39.3678C12.213 39.3628 12.2093 39.3579 12.2059 39.353C12.2026 39.3482 12.1989 39.3436 12.1958 39.3388C12.1785 39.3129 12.1625 39.2869 12.1477 39.2607C12.1411 39.2492 12.1359 39.2375 12.1298 39.2259C12.1251 39.2168 12.1205 39.2077 12.1159 39.1986C12.1113 39.1893 12.1059 39.18 12.1016 39.1706C12.0857 39.1356 12.0718 39.1004 12.0601 39.0649C12.0598 39.0643 12.0597 39.0636 12.0595 39.0629C12.0569 39.0551 12.0558 39.0471 12.0534 39.0392C12.0422 39.0023 12.0316 38.9653 12.025 38.928C12.0244 38.925 12.0247 38.9219 12.0241 38.9189C12.0149 38.8643 12.0096 38.8095 12.0099 38.7548L12.0749 29.6252C12.0746 29.6799 12.0798 29.7347 12.0891 29.7892C12.0959 29.8295 12.1062 29.8696 12.1183 29.9096C12.1208 29.9175 12.1219 29.9254 12.1244 29.9333C12.1396 29.9789 12.1589 30.0242 12.1809 30.069C12.1854 30.0781 12.19 30.0871 12.1947 30.0961C12.2171 30.139 12.2421 30.1815 12.2709 30.2234C12.2743 30.2283 12.2779 30.2332 12.2814 30.2381C12.312 30.2814 12.3458 30.3241 12.3832 30.3661C12.387 30.3704 12.3909 30.3747 12.3949 30.3789C12.4336 30.4215 12.4759 30.4633 12.5217 30.5041C12.5249 30.5069 12.5279 30.5098 12.5311 30.5126C12.5794 30.555 12.6315 30.5964 12.6875 30.6366C12.6911 30.6392 12.695 30.6418 12.6986 30.6444C12.7559 30.685 12.8166 30.7245 12.8818 30.7625L29.5805 40.499C29.6461 40.5372 29.7144 40.573 29.7846 40.6067C29.789 40.6087 29.7935 40.6107 29.7978 40.6128C29.8636 40.6438 29.9312 40.6728 30.0004 40.6999C30.0085 40.703 30.0166 40.7061 30.0247 40.7092C30.0924 40.7351 30.1616 40.759 30.2322 40.781C30.2405 40.7837 30.2488 40.7863 30.2572 40.7888C30.3294 40.8109 30.4029 40.8309 30.4775 40.849C30.4839 40.8505 30.4902 40.8522 30.4966 40.8537C30.5766 40.8727 30.6578 40.8896 30.7399 40.904C30.7411 40.9042 30.7422 40.9044 30.7433 40.9046C30.8275 40.9193 30.9126 40.9317 30.9983 40.9417L30.9987 40.9417C31.0771 40.9509 31.1561 40.9573 31.2353 40.9625C31.2847 40.9657 31.3342 40.9669 31.3838 40.9686C31.4247 40.97 31.4656 40.9722 31.5065 40.9726C31.5262 40.9727 31.546 40.9721 31.5656 40.9721C31.6343 40.9717 31.703 40.9706 31.7714 40.9673C31.7789 40.9669 31.7865 40.9667 31.794 40.9663C31.8535 40.9631 31.9125 40.9576 31.9716 40.9522L31.8917 50.0845C31.8813 50.0854 31.8709 50.0864 31.8605 50.0873Z" fill="#C1DBF6"/>
<path d="M33.3993 49.6452C33.3741 49.6598 33.3484 49.674 33.3225 49.6878C33.2949 49.7025 33.2669 49.7168 33.2386 49.7307C33.2256 49.737 33.2124 49.743 33.1993 49.7492C33.1937 49.7518 33.1882 49.7544 33.1825 49.7571C33.1725 49.7617 33.1627 49.7666 33.1527 49.7711C33.1237 49.7842 33.0943 49.7969 33.0646 49.8092C33.0344 49.8218 33.0037 49.8339 32.9728 49.8457C32.9719 49.846 32.9709 49.8464 32.9699 49.8467C32.9687 49.8472 32.9676 49.8476 32.9663 49.8481C32.9375 49.859 32.9084 49.8695 32.879 49.8797C32.8465 49.891 32.8136 49.9019 32.7805 49.9123C32.7688 49.916 32.7567 49.9193 32.7447 49.923C32.7378 49.925 32.7309 49.9271 32.7239 49.9292C32.7092 49.9335 32.6949 49.9381 32.6802 49.9423C32.6461 49.9519 32.6117 49.9612 32.577 49.97C32.5515 49.9764 32.5256 49.9825 32.4998 49.9885C32.4953 49.9895 32.4909 49.9906 32.4864 49.9917C32.4817 49.9928 32.4773 49.994 32.4726 49.995C32.4383 50.0028 32.4038 50.0101 32.3692 50.017C32.3349 50.0238 32.3004 50.0302 32.2657 50.0362C32.2592 50.0373 32.2525 50.0383 32.246 50.0394C32.2409 50.0402 32.2358 50.041 32.2308 50.0418C32.2089 50.0454 32.187 50.0492 32.1651 50.0524C32.1315 50.0575 32.0977 50.0621 32.0639 50.0664C32.0396 50.0694 32.015 50.0721 31.9903 50.0748C31.9862 50.0753 31.9819 50.0759 31.9777 50.0763C31.9729 50.0768 31.9683 50.0774 31.9635 50.0779C31.9396 50.0804 31.9157 50.0824 31.8917 50.0845L31.9716 40.9523C31.9952 40.9502 32.019 40.9492 32.0425 40.9467C32.0469 40.9462 32.0512 40.9456 32.0555 40.9452C32.1361 40.9363 32.2162 40.9253 32.2955 40.9122C32.3007 40.9113 32.3058 40.9106 32.3109 40.9097C32.3919 40.8961 32.4719 40.8803 32.5508 40.8622C32.5557 40.8611 32.5605 40.8599 32.5655 40.8587C32.641 40.8411 32.7154 40.8214 32.7885 40.7997C32.7956 40.7976 32.8028 40.7955 32.8099 40.7933C32.8851 40.7705 32.9589 40.7458 33.0309 40.7186C33.0323 40.7181 33.0337 40.7176 33.035 40.7171C33.1077 40.6896 33.1785 40.6595 33.2473 40.6276C33.2531 40.6249 33.2587 40.6222 33.2644 40.6196C33.3331 40.5871 33.4 40.5527 33.4642 40.5157L56.4768 27.2736C56.5408 27.2368 56.6006 27.1983 56.6571 27.1588C56.6623 27.1551 56.6673 27.1515 56.6724 27.1478C56.7238 27.1111 56.772 27.0733 56.8169 27.0347C56.8228 27.0295 56.8288 27.0244 56.8346 27.0192C56.8777 26.9811 56.9176 26.9422 56.9544 26.9025C56.9613 26.8951 56.9678 26.8876 56.9746 26.8801C57.0086 26.8418 57.0402 26.803 57.0685 26.7636C57.0716 26.7593 57.0752 26.7552 57.0782 26.751C57.1098 26.7059 57.1376 26.6601 57.1617 26.6139C57.196 26.5482 57.2204 26.4813 57.2397 26.4139C57.2443 26.3976 57.2484 26.3813 57.2522 26.365C57.2678 26.297 57.2788 26.2286 57.2792 26.16L57.2144 35.2896C57.2139 35.3582 57.2029 35.4265 57.1872 35.4945C57.1834 35.511 57.1794 35.5272 57.1747 35.5435C57.1555 35.6109 57.131 35.6778 57.0967 35.7435C57.0962 35.7444 57.0961 35.7455 57.0955 35.7466C57.0725 35.7904 57.0461 35.8337 57.0163 35.8765C57.0154 35.8778 57.0142 35.8791 57.0132 35.8805C57.0102 35.8849 57.0066 35.8891 57.0034 35.8934C56.9844 35.9198 56.965 35.9461 56.9434 35.972C56.9328 35.9847 56.9208 35.9971 56.9096 36.0097C56.9029 36.0172 56.8964 36.0247 56.8894 36.0321C56.8832 36.0388 56.8777 36.0457 56.8712 36.0524C56.8479 36.0767 56.8234 36.1006 56.7978 36.1243C56.7888 36.1325 56.779 36.1405 56.7698 36.1487C56.7638 36.154 56.7578 36.1592 56.7517 36.1644C56.7426 36.1723 56.7339 36.1804 56.7245 36.1882C56.7008 36.2078 56.6761 36.2273 56.6507 36.2464C56.6367 36.2569 56.6218 36.2672 56.6073 36.2775C56.6023 36.2811 56.5974 36.2847 56.5923 36.2883C56.5861 36.2926 56.5804 36.297 56.5741 36.3013C56.5493 36.3184 56.5237 36.3352 56.4973 36.3518C56.4711 36.3683 56.4443 36.3845 56.4167 36.4004C56.4151 36.4014 56.4134 36.4023 56.4119 36.4032L33.3993 49.6452Z" fill="white"/>
<path d="M33.4641 40.5156C33.3999 40.5525 33.333 40.5869 33.2643 40.6194C33.2586 40.622 33.253 40.6247 33.2472 40.6275C33.1784 40.6594 33.1076 40.6895 33.0349 40.717C33.0336 40.7175 33.0322 40.7179 33.0308 40.7185C32.9588 40.7456 32.885 40.7704 32.8098 40.7931C32.8027 40.7954 32.7955 40.7975 32.7884 40.7996C32.7153 40.8212 32.6409 40.8409 32.5654 40.8585C32.5604 40.8598 32.5556 40.861 32.5507 40.8621C32.4718 40.8802 32.3918 40.896 32.3109 40.9096C32.3057 40.9105 32.3006 40.9112 32.2954 40.9121C32.2161 40.9251 32.136 40.9362 32.0553 40.945C32.0511 40.9455 32.0468 40.946 32.0424 40.9464C32.0189 40.949 31.9951 40.95 31.9715 40.9521L31.908 48.2162L54.1323 28.6224L33.4641 40.5156Z" fill="#FBDBD0"/>
<path d="M40.8849 37.2008L40.8933 40.1672L35.5083 43.2763L35.4999 40.3098L40.8849 37.2008Z" fill="#374874"/>
<path d="M40.8837 41.5147L40.8945 44.644L35.5095 47.753L35.4987 44.6237L40.8837 41.5147Z" fill="#374874"/>
<path d="M50.7324 31.5518L50.7409 34.5299L45.3558 37.639L45.3474 34.6608L50.7324 31.5518Z" fill="#374874"/>
<path d="M50.7312 35.8371L50.7421 38.9847L45.357 42.0938L45.3462 38.9461L50.7312 35.8371Z" fill="#374874"/>
<path d="M29.4946 40.6493C30.5675 41.2749 32.3072 41.2823 33.3784 40.6659L57.6613 26.6928C58.7325 26.0764 58.7311 25.0687 57.6582 24.4431L39.9871 14.1397C38.9142 13.5141 37.1746 13.5067 36.1034 14.123L11.8205 28.0961C10.7493 28.7125 10.7506 29.7203 11.8235 30.3458L29.4946 40.6493Z" fill="white"/>
<path d="M31.1195 42.0435C31.0483 42.0385 30.9774 42.0319 30.9069 42.0237C30.9065 42.0237 30.9061 42.0237 30.9058 42.0236C30.9057 42.0236 30.9057 42.0236 30.9056 42.0236C30.8582 42.0181 30.8109 42.0118 30.764 42.0048C30.7259 41.9992 30.6882 41.993 30.6505 41.9864C30.6496 41.9862 30.6486 41.9861 30.6476 41.986C30.6471 41.9859 30.6465 41.9858 30.646 41.9857C30.6078 41.979 30.5698 41.9717 30.5321 41.964C30.495 41.9565 30.4582 41.9484 30.4215 41.9399C30.4156 41.9386 30.4098 41.937 30.4039 41.9356C30.3977 41.9341 30.3916 41.9325 30.3854 41.931C30.3599 41.9248 30.3345 41.9188 30.3094 41.9122C30.2719 41.9024 30.2348 41.892 30.1981 41.8812C30.1868 41.8778 30.1758 41.8741 30.1646 41.8707C30.1564 41.8682 30.1482 41.8656 30.1399 41.863C30.1221 41.8575 30.1041 41.8521 30.0864 41.8464C30.0498 41.8343 30.0137 41.8217 29.9779 41.8086C29.9623 41.803 29.9473 41.7968 29.9318 41.791C29.9239 41.788 29.9161 41.785 29.9083 41.7819C29.8967 41.7774 29.8849 41.7732 29.8735 41.7685C29.8401 41.7551 29.807 41.7412 29.7745 41.7267C29.7509 41.7163 29.7278 41.7053 29.7046 41.6944C29.7006 41.6925 29.6965 41.6907 29.6925 41.6888C29.6884 41.6868 29.6842 41.6851 29.6802 41.6831C29.6503 41.6686 29.6208 41.6537 29.5917 41.6385C29.5632 41.6233 29.5349 41.6079 29.5071 41.592C29.5007 41.5883 29.4942 41.5847 29.488 41.5809L11.8168 31.2774C11.7961 31.2654 11.7759 31.2532 11.756 31.2409C11.7302 31.2248 11.705 31.2086 11.6806 31.1921C11.6646 31.1813 11.6494 31.1703 11.6338 31.1594C11.6303 31.1568 11.6265 31.1543 11.6229 31.1518C11.6185 31.1485 11.6137 31.1454 11.6093 31.1421C11.5861 31.1253 11.5636 31.1082 11.5419 31.0909C11.5196 31.0733 11.4981 31.0554 11.4773 31.0374C11.4735 31.0342 11.4702 31.0309 11.4666 31.0278C11.4635 31.025 11.4606 31.0223 11.4574 31.0196C11.4437 31.0071 11.4296 30.9949 11.4164 30.9823C11.3959 30.9629 11.3762 30.9433 11.3572 30.9235C11.3479 30.9139 11.3395 30.904 11.3306 30.8943C11.3267 30.8901 11.3229 30.8858 11.319 30.8816C11.3135 30.8753 11.3075 30.8693 11.3021 30.863C11.283 30.8408 11.2648 30.8185 11.2476 30.7959C11.2369 30.7819 11.2273 30.7677 11.2173 30.7536C11.2139 30.7488 11.2103 30.744 11.207 30.7391C11.2037 30.7344 11.2 30.7298 11.1969 30.7251C11.1797 30.6993 11.1637 30.6733 11.1489 30.6471C11.1422 30.6355 11.137 30.6236 11.1309 30.6119C11.1262 30.6029 11.1215 30.5939 11.1171 30.5848C11.1126 30.5755 11.1071 30.5664 11.1029 30.557C11.0869 30.522 11.073 30.4868 11.0613 30.4514C11.061 30.4507 11.061 30.45 11.0607 30.4493C11.058 30.441 11.0569 30.4327 11.0544 30.4245C11.0433 30.388 11.0329 30.3513 11.0262 30.3145C11.0257 30.3115 11.026 30.3084 11.0254 30.3054C11.0161 30.2508 11.0108 30.196 11.0113 30.1412L11.0179 29.2097C11.0174 29.2644 11.0228 29.3192 11.0321 29.3737C11.0388 29.4136 11.049 29.4533 11.061 29.4929C11.0635 29.5011 11.0646 29.5094 11.0673 29.5177C11.0824 29.5632 11.1017 29.6084 11.1237 29.6532C11.1281 29.6623 11.1327 29.6713 11.1375 29.6803C11.1599 29.7231 11.1848 29.7657 11.2135 29.8075C11.2168 29.8124 11.2205 29.8172 11.2239 29.822C11.2545 29.8653 11.2882 29.908 11.3256 29.95C11.3294 29.9543 11.3334 29.9585 11.3372 29.9627C11.376 30.0053 11.4181 30.0471 11.4641 30.0879C11.4671 30.0907 11.4701 30.0934 11.4732 30.0962C11.5214 30.1386 11.5735 30.18 11.6295 30.2201C11.6331 30.2227 11.6368 30.2252 11.6404 30.2279C11.6976 30.2684 11.7582 30.3079 11.8233 30.3458L29.4945 40.6493C29.5601 40.6876 29.6286 40.7235 29.699 40.7572C29.703 40.7591 29.7071 40.7609 29.7111 40.7628C29.7771 40.794 29.8452 40.8231 29.9149 40.8503C29.9226 40.8533 29.9304 40.8563 29.9381 40.8593C30.0061 40.8853 30.0756 40.9093 30.1463 40.9314C30.1546 40.934 30.1628 40.9366 30.171 40.9391C30.2434 40.9612 30.3171 40.9812 30.3919 40.9993C30.398 41.0009 30.4042 41.0025 30.4105 41.0039C30.4905 41.023 30.5719 41.0398 30.6541 41.0543C30.6551 41.0545 30.6561 41.0546 30.6569 41.0548C30.7412 41.0695 30.8263 41.082 30.9123 41.0919C30.9126 41.092 30.9131 41.092 30.9134 41.0921C30.9727 41.0989 31.0325 41.1033 31.0923 41.1078L31.1282 42.0438C31.1252 42.0437 31.1225 42.0436 31.1195 42.0435Z" fill="#C1DBF6"/>
<path d="M33.295 41.64C33.2674 41.6547 33.2395 41.669 33.2112 41.6829C33.1982 41.6892 33.1849 41.6952 33.1718 41.7014C33.1663 41.704 33.1607 41.7067 33.155 41.7093C33.1451 41.7139 33.1353 41.7188 33.1253 41.7233C33.0962 41.7364 33.0669 41.7491 33.0371 41.7615C33.0069 41.774 32.9763 41.7861 32.9453 41.7979C32.9444 41.7982 32.9433 41.7986 32.9424 41.799C32.9413 41.7994 32.9402 41.7997 32.9391 41.8002C32.9101 41.8111 32.8809 41.8217 32.8514 41.832C32.8189 41.8433 32.7861 41.8541 32.753 41.8645C32.7411 41.8682 32.7291 41.8716 32.7171 41.8752C32.7102 41.8773 32.7034 41.8793 32.6965 41.8814C32.6818 41.8857 32.6674 41.8903 32.6526 41.8945C32.6185 41.9042 32.584 41.9134 32.5494 41.9222C32.5239 41.9287 32.4982 41.9347 32.4725 41.9406C32.4679 41.9417 32.4633 41.9429 32.4586 41.944C32.4541 41.945 32.4496 41.9462 32.4451 41.9472C32.4108 41.9549 32.3763 41.9623 32.3415 41.9692C32.3073 41.976 32.2727 41.9824 32.2381 41.9884C32.2318 41.9895 32.2253 41.9905 32.2188 41.9916C32.2134 41.9924 32.208 41.9933 32.2026 41.9942C32.181 41.9977 32.1593 42.0014 32.1375 42.0046C32.104 42.0096 32.0702 42.0143 32.0364 42.0185C32.0118 42.0217 31.9871 42.0243 31.9625 42.027C31.9585 42.0275 31.9545 42.028 31.9504 42.0284C31.9456 42.029 31.9408 42.0296 31.936 42.0301C31.9018 42.0336 31.8675 42.0368 31.8331 42.0396C31.7951 42.0427 31.7571 42.0453 31.719 42.0474C31.7132 42.0478 31.7073 42.0478 31.7015 42.0482C31.694 42.0486 31.6865 42.0488 31.679 42.0491C31.6485 42.0506 31.618 42.0522 31.5875 42.053C31.5493 42.0541 31.5112 42.0538 31.473 42.054C31.4534 42.0541 31.4338 42.0546 31.4142 42.0544C31.4065 42.0544 31.3987 42.0547 31.3911 42.0546C31.3573 42.0542 31.3238 42.0516 31.2901 42.0505C31.241 42.0488 31.192 42.0476 31.1432 42.0444C31.1382 42.0441 31.1333 42.044 31.1283 42.0438L31.0924 41.1078C31.1116 41.1092 31.1306 41.1116 31.1498 41.1128C31.1986 41.116 31.2477 41.1172 31.2967 41.1189C31.3381 41.1203 31.3794 41.1225 31.4208 41.1228C31.4403 41.123 31.4598 41.1225 31.4793 41.1224C31.5482 41.1221 31.6172 41.1208 31.6858 41.1175C31.6932 41.1172 31.7006 41.117 31.708 41.1166C31.7914 41.1122 31.8745 41.1057 31.957 41.0969C31.9611 41.0964 31.965 41.0959 31.969 41.0955C32.0499 41.0866 32.1301 41.0756 32.2095 41.0625C32.2148 41.0616 32.22 41.0608 32.2252 41.06C32.3062 41.0463 32.3863 41.0305 32.4653 41.0123C32.4699 41.0113 32.4745 41.0101 32.4791 41.009C32.5549 40.9914 32.6297 40.9715 32.703 40.9498C32.7099 40.9478 32.7169 40.9457 32.7238 40.9436C32.7993 40.9207 32.8734 40.8959 32.9457 40.8686C32.9468 40.8682 32.9479 40.8678 32.9489 40.8674C33.0217 40.8399 33.0926 40.8098 33.1616 40.7778C33.1673 40.7751 33.1728 40.7725 33.1784 40.7698C33.2472 40.7373 33.3141 40.7029 33.3784 40.6659L57.6613 26.6928C57.7254 26.656 57.7852 26.6176 57.8416 26.578C57.8468 26.5744 57.8518 26.5707 57.8569 26.567C57.9083 26.5303 57.9564 26.4926 58.0013 26.4539C58.0074 26.4487 58.0133 26.4436 58.0192 26.4384C58.0622 26.4004 58.1021 26.3614 58.1388 26.3218C58.1458 26.3144 58.1523 26.3068 58.1591 26.2993C58.1931 26.2612 58.2245 26.2225 58.2528 26.1832C58.2559 26.1788 58.2597 26.1745 58.2628 26.1701C58.2944 26.1251 58.322 26.0794 58.3461 26.0332C58.3804 25.9675 58.4049 25.9006 58.4242 25.8331C58.4288 25.8169 58.4329 25.8006 58.4367 25.7843C58.4523 25.7163 58.4633 25.6479 58.4637 25.5793L58.4571 26.5109C58.4567 26.5794 58.4457 26.6478 58.43 26.7158C58.4262 26.7322 58.4222 26.7485 58.4175 26.7648C58.3983 26.8322 58.3738 26.8991 58.3396 26.9647C58.339 26.9657 58.3389 26.9668 58.3384 26.9678C58.3154 27.0116 58.2889 27.055 58.2592 27.0977C58.2582 27.0991 58.257 27.1004 58.2561 27.1018C58.253 27.1061 58.2495 27.1102 58.2465 27.1144C58.2274 27.1409 58.2078 27.1673 58.1861 27.1933C58.1756 27.2059 58.1637 27.2183 58.1525 27.2309C58.1457 27.2384 58.1391 27.246 58.1322 27.2534C58.126 27.2601 58.1205 27.267 58.1141 27.2737C58.0908 27.2979 58.0663 27.3219 58.0406 27.3455C58.0316 27.3538 58.0218 27.3618 58.0125 27.3701C58.0066 27.3753 58.0008 27.3804 57.9947 27.3856C57.9855 27.3935 57.9769 27.4016 57.9674 27.4094C57.9436 27.4291 57.919 27.4485 57.8936 27.4676C57.8796 27.4781 57.8648 27.4883 57.8504 27.4986C57.8453 27.5023 57.8402 27.506 57.8351 27.5096C57.8289 27.5139 57.8232 27.5183 57.817 27.5226C57.7922 27.5396 57.7665 27.5565 57.7402 27.573C57.714 27.5895 57.6871 27.6057 57.6596 27.6217C57.6579 27.6226 57.6564 27.6235 57.6548 27.6244L33.3717 41.5976C33.3466 41.612 33.3209 41.6262 33.295 41.64Z" fill="#FBDBD0"/>
<path d="M38.0242 13.6656C38.7339 13.6656 39.4455 13.8239 39.9872 14.1397L57.6582 24.4432C58.2478 24.7868 58.5118 25.2458 58.454 25.692C58.4597 25.6545 58.4635 25.6169 58.4638 25.5793L58.4572 26.5109C58.4568 26.5794 58.4458 26.6477 58.4301 26.7158C58.4263 26.7322 58.4222 26.7485 58.4176 26.7648C58.3984 26.8321 58.3739 26.8991 58.3397 26.9647C58.3391 26.9657 58.339 26.9667 58.3384 26.9677C58.3154 27.0116 58.2889 27.055 58.2593 27.0977C58.2582 27.0991 58.2571 27.1004 58.2562 27.1018C58.2531 27.1061 58.2495 27.1101 58.2465 27.1144C58.2275 27.1408 58.2079 27.1673 58.1862 27.1933C58.1757 27.2059 58.1637 27.2183 58.1525 27.2309C58.1458 27.2384 58.1392 27.246 58.1323 27.2534C58.1261 27.2601 58.1205 27.2671 58.1142 27.2736C58.0909 27.2979 58.0664 27.3218 58.0407 27.3455C58.0317 27.3538 58.0219 27.3618 58.0126 27.3701C58.0067 27.3752 58.0008 27.3803 57.9948 27.3856C57.9856 27.3935 57.9769 27.4016 57.9674 27.4094C57.9437 27.429 57.9191 27.4485 57.8936 27.4676C57.8797 27.4781 57.8648 27.4884 57.8504 27.4986C57.8453 27.5023 57.8402 27.506 57.8351 27.5096C57.829 27.5139 57.8232 27.5183 57.8171 27.5225C57.7922 27.5396 57.7665 27.5565 57.7402 27.573C57.714 27.5895 57.6872 27.6057 57.6596 27.6216C57.658 27.6225 57.6564 27.6234 57.6548 27.6244L57.2673 27.8474L57.2244 33.8813L57.6382 34.1226C58.2277 34.4663 58.4916 34.9252 58.4341 35.3713C58.4397 35.3339 58.4435 35.2964 58.4438 35.2588L58.4372 36.1904C58.4367 36.259 58.4257 36.3273 58.4101 36.3953C58.4062 36.4117 58.4023 36.4279 58.3976 36.4443C58.3784 36.5116 58.3539 36.5786 58.3196 36.6442C58.3191 36.6452 58.3189 36.6463 58.3184 36.6473C58.2953 36.6911 58.269 36.7345 58.2391 36.7773C58.2382 36.7786 58.2371 36.7799 58.2361 36.7813C58.2331 36.7856 58.2294 36.7899 58.2263 36.7941C58.2073 36.8206 58.1878 36.8469 58.1662 36.8728C58.1556 36.8855 58.1437 36.8979 58.1325 36.9104C58.1257 36.918 58.1192 36.9255 58.1123 36.933C58.1061 36.9397 58.1005 36.9466 58.0942 36.9532C58.0707 36.9775 58.0464 37.0014 58.0207 37.025C58.0116 37.0333 58.0019 37.0412 57.9927 37.0494C57.9867 37.0547 57.9806 37.06 57.9745 37.0652C57.9654 37.0731 57.9568 37.081 57.9474 37.0889C57.9237 37.1085 57.899 37.1279 57.8736 37.1471C57.8596 37.1576 57.8447 37.1679 57.8302 37.1783C57.8252 37.1818 57.8202 37.1855 57.8152 37.189C57.809 37.1933 57.8032 37.1978 57.797 37.202C57.7721 37.2191 57.7465 37.236 57.7201 37.2526C57.694 37.269 57.6672 37.2852 57.6395 37.3011C57.638 37.302 57.6363 37.303 57.6347 37.3039L33.3518 51.277C33.3265 51.2915 33.301 51.3057 33.275 51.3195C33.2475 51.3342 33.2195 51.3485 33.1911 51.3624C33.1782 51.3688 33.165 51.3747 33.1519 51.3809C33.1462 51.3836 33.1407 51.3862 33.1351 51.3889C33.125 51.3936 33.1153 51.3983 33.1052 51.4029C33.0762 51.416 33.0469 51.4286 33.0172 51.441C32.9869 51.4535 32.9562 51.4658 32.9254 51.4774C32.9244 51.4778 32.9235 51.4781 32.9226 51.4784C32.9212 51.4789 32.9198 51.4794 32.9184 51.4799C32.8897 51.4908 32.8608 51.5014 32.8315 51.5115C32.799 51.5228 32.7662 51.5336 32.7331 51.544C32.7213 51.5477 32.7092 51.551 32.6974 51.5547C32.6904 51.5568 32.6833 51.5589 32.6763 51.561C32.6618 51.5653 32.6473 51.5699 32.6326 51.574C32.5985 51.5837 32.5641 51.5929 32.5294 51.6017C32.504 51.6082 32.4784 51.6141 32.4527 51.6201C32.448 51.6212 32.4434 51.6223 32.4386 51.6234C32.4341 51.6246 32.4296 51.6257 32.4251 51.6267C32.3909 51.6344 32.3563 51.6418 32.3216 51.6487C32.2873 51.6555 32.2528 51.662 32.2182 51.6679C32.2118 51.669 32.2052 51.67 32.1988 51.671C32.1935 51.6719 32.1881 51.6728 32.1828 51.6737C32.1611 51.6773 32.1394 51.6809 32.1176 51.6842C32.084 51.6892 32.0502 51.6939 32.0164 51.6981C31.9921 51.7011 31.9675 51.7038 31.943 51.7065C31.9387 51.7069 31.9344 51.7075 31.9301 51.7079C31.9254 51.7085 31.9208 51.709 31.916 51.7096C31.8818 51.7132 31.8475 51.7163 31.8131 51.7191C31.7751 51.7222 31.7371 51.7248 31.699 51.7269C31.6933 51.7272 31.6875 51.7274 31.6817 51.7277C31.6741 51.728 31.6664 51.7282 31.6587 51.7287C31.6283 51.7301 31.598 51.7317 31.5675 51.7326C31.5294 51.7336 31.4913 51.7332 31.4532 51.7335C31.4357 51.7336 31.4183 51.7339 31.4008 51.7339H31.3942C31.3865 51.7339 31.3788 51.7342 31.3711 51.7342C31.3376 51.7337 31.3042 51.7312 31.2706 51.73C31.2397 51.7289 31.2089 51.7275 31.1779 51.7261C31.1596 51.7253 31.1412 51.7251 31.1229 51.7239C31.1152 51.7234 31.1074 51.7234 31.0996 51.7229C31.0296 51.7181 30.9599 51.7115 30.8907 51.7036C30.8887 51.7032 30.8867 51.7031 30.8848 51.7029C30.8376 51.6974 30.7907 51.6912 30.7439 51.6844C30.706 51.6787 30.6681 51.6725 30.6306 51.6659C30.6296 51.6657 30.6286 51.6656 30.6276 51.6655C30.6271 51.6653 30.6266 51.6653 30.626 51.6651C30.5878 51.6584 30.5498 51.6512 30.5121 51.6435C30.475 51.6359 30.4381 51.6279 30.4015 51.6194C30.3957 51.618 30.3899 51.6165 30.384 51.615C30.3777 51.6136 30.3715 51.6119 30.3653 51.6105C30.3399 51.6043 30.3145 51.5983 30.2894 51.5917C30.252 51.5818 30.2148 51.5715 30.178 51.5607C30.1669 51.5574 30.156 51.5537 30.145 51.5503C30.1364 51.5476 30.128 51.545 30.1195 51.5424C30.1018 51.5368 30.0839 51.5316 30.0664 51.5258C30.0299 51.5138 29.9936 51.5012 29.9579 51.4881C29.9424 51.4824 29.9272 51.4763 29.9119 51.4704C29.904 51.4675 29.8962 51.4645 29.8883 51.4613C29.8768 51.4569 29.865 51.4526 29.8535 51.4481C29.82 51.4346 29.7871 51.4206 29.7545 51.4062C29.7312 51.3958 29.7083 51.3849 29.6853 51.3742C29.681 51.3721 29.6765 51.3702 29.6723 51.368C29.6683 51.3663 29.6642 51.3645 29.6602 51.3626C29.6304 51.3481 29.6009 51.3332 29.5718 51.3179C29.5432 51.3029 29.5149 51.2874 29.4872 51.2714C29.4807 51.2678 29.4744 51.2642 29.468 51.2604L11.7968 40.9569C11.7762 40.9449 11.756 40.9327 11.7361 40.9204C11.7103 40.9045 11.6852 40.8882 11.6607 40.8716C11.6447 40.8609 11.6295 40.8499 11.614 40.839C11.6104 40.8364 11.6066 40.8339 11.603 40.8312C11.5985 40.8281 11.5937 40.8249 11.5893 40.8216C11.5662 40.8048 11.5438 40.7877 11.522 40.7704C11.4997 40.7528 11.4782 40.7349 11.4573 40.7169C11.4537 40.7138 11.4505 40.7106 11.4469 40.7074C11.4436 40.7045 11.4405 40.7016 11.4373 40.6987C11.4235 40.6865 11.4097 40.6743 11.3966 40.6618C11.376 40.6425 11.3563 40.6229 11.3373 40.603C11.3281 40.5934 11.3196 40.5836 11.3107 40.5738C11.3069 40.5696 11.303 40.5654 11.2993 40.5613C11.2937 40.555 11.2877 40.5487 11.2823 40.5425C11.2632 40.5203 11.245 40.498 11.2278 40.4754C11.2171 40.4615 11.2074 40.4473 11.1974 40.4331C11.1941 40.4282 11.1905 40.4234 11.1871 40.4186C11.1839 40.4139 11.1802 40.4093 11.1771 40.4045C11.1598 40.3789 11.1438 40.3529 11.1291 40.3265C11.1224 40.3149 11.1172 40.3031 11.111 40.2914C11.1064 40.2823 11.1016 40.2734 11.0972 40.2644C11.0927 40.2551 11.0873 40.2458 11.083 40.2366C11.0671 40.2015 11.0532 40.1663 11.0414 40.1309C11.0412 40.1302 11.0411 40.1295 11.0409 40.1288C11.0382 40.1206 11.0371 40.1123 11.0346 40.1042C11.0235 40.0676 11.013 40.031 11.0063 39.9941C11.0058 39.9909 11.0061 39.9878 11.0055 39.9848C10.9963 39.9302 10.991 39.8755 10.9914 39.8208L10.998 38.8894C10.998 38.8905 10.9983 38.8917 10.9983 38.8929C10.9995 38.4871 11.2668 38.0828 11.8005 37.7756L12.0179 37.6505L12.0622 31.4205L11.8169 31.2774C11.7963 31.2654 11.7761 31.2532 11.7562 31.2409C11.7304 31.2248 11.7052 31.2087 11.6808 31.1921C11.6648 31.1813 11.6495 31.1704 11.634 31.1594C11.6305 31.1569 11.6267 31.1543 11.6231 31.1517C11.6186 31.1485 11.6139 31.1454 11.6094 31.1421C11.5863 31.1253 11.5638 31.1082 11.5421 31.0909C11.5198 31.0733 11.4983 31.0554 11.4774 31.0373C11.4737 31.0342 11.4704 31.031 11.4668 31.0277C11.4637 31.025 11.4607 31.0223 11.4576 31.0196C11.4438 31.0072 11.4298 30.9949 11.4166 30.9823C11.396 30.9629 11.3763 30.9432 11.3573 30.9235C11.3481 30.9139 11.3396 30.9041 11.3307 30.8944C11.3269 30.8901 11.3231 30.8859 11.3192 30.8816C11.3137 30.8754 11.3077 30.8693 11.3023 30.863C11.2832 30.8409 11.265 30.8185 11.2478 30.7959C11.2371 30.782 11.2275 30.7677 11.2175 30.7536C11.2141 30.7487 11.2104 30.744 11.2072 30.7391C11.2038 30.7344 11.2002 30.7298 11.1971 30.725C11.1799 30.6993 11.1639 30.6733 11.149 30.6472C11.1424 30.6354 11.1372 30.6236 11.1311 30.6119C11.1263 30.6029 11.1217 30.5939 11.1173 30.5849C11.1127 30.5755 11.1072 30.5663 11.103 30.557C11.087 30.522 11.0732 30.4868 11.0614 30.4514C11.0612 30.4507 11.0611 30.4499 11.0609 30.4493C11.0582 30.441 11.0571 30.4327 11.0546 30.4245C11.0435 30.388 11.033 30.3514 11.0264 30.3145C11.0258 30.3115 11.0261 30.3084 11.0256 30.3054C11.0163 30.2508 11.011 30.196 11.0114 30.1412L11.018 29.2096C11.0181 29.2106 11.0183 29.2116 11.0183 29.2128V29.2133C11.0183 29.2131 11.0183 29.2128 11.0183 29.2128C11.0199 28.8071 11.2871 28.403 11.8205 28.0961L36.1034 14.123C36.6338 13.8178 37.3281 13.6656 38.0242 13.6656ZM38.0242 12.7512C37.1407 12.7512 36.2966 12.9569 35.6474 13.3306L11.3645 27.3037C10.5686 27.7616 10.1094 28.4536 10.104 29.2032H10.1038L10.0971 30.1347C10.0965 30.2191 10.1023 30.3068 10.1146 30.396L10.1155 30.4169L10.1286 30.4873C10.1397 30.5494 10.1559 30.61 10.1714 30.6626L10.1816 30.7113L10.2023 30.7647C10.2226 30.8232 10.2459 30.8813 10.2718 30.9378C10.2787 30.9534 10.2896 30.9753 10.3013 30.9975C10.3068 31.0084 10.3121 31.0189 10.3175 31.0292C10.3295 31.0536 10.341 31.0758 10.3537 31.0982C10.3782 31.1413 10.4043 31.184 10.4323 31.2261L10.4448 31.2456L10.4625 31.2698C10.4656 31.2741 10.4688 31.2786 10.472 31.283L10.4765 31.2894C10.4912 31.3106 10.5063 31.3316 10.5222 31.3524C10.5496 31.3882 10.5793 31.4248 10.6105 31.4609C10.6197 31.4716 10.6304 31.4834 10.6413 31.4951L10.6327 31.4855L10.6536 31.5087C10.6718 31.5291 10.6848 31.5434 10.6985 31.5575C10.7271 31.5872 10.7568 31.6169 10.7878 31.6461C10.8021 31.6599 10.8201 31.6762 10.8382 31.6923L10.8451 31.6986L10.8505 31.7033L10.8565 31.7085C10.8613 31.713 10.8709 31.7217 10.8818 31.731C10.9118 31.7569 10.9426 31.7825 10.9745 31.8077C11.0042 31.8314 11.0371 31.8564 11.0709 31.881L11.0796 31.8874L11.0898 31.8945L11.0958 31.8986L11.1002 31.9019L11.1067 31.9063C11.1214 31.9168 11.1333 31.9252 11.1441 31.9327L11.1071 37.1333C10.4577 37.5857 10.0886 38.2111 10.0839 38.8828H10.0835L10.0769 39.8143C10.0764 39.8986 10.0822 39.9853 10.0942 40.0733L10.0944 40.08L10.1033 40.1381L10.1048 40.1473L10.1065 40.1565C10.1194 40.2277 10.1358 40.2891 10.1522 40.3447C10.1537 40.3509 10.1554 40.3572 10.1571 40.3634L10.1638 40.3898L10.1744 40.4214C10.1962 40.4864 10.2217 40.5514 10.2503 40.6142C10.2618 40.6392 10.2713 40.6581 10.2809 40.6764C10.2857 40.6859 10.291 40.6963 10.2964 40.7065C10.3096 40.7333 10.322 40.7572 10.3357 40.7811C10.3565 40.8183 10.3834 40.8622 10.4126 40.9062L10.4232 40.9226L10.4408 40.9469L10.4432 40.9503L10.4474 40.9561L10.4502 40.9601C10.4703 40.9888 10.4859 41.0104 10.5024 41.032C10.5292 41.067 10.5583 41.1029 10.589 41.1385C10.5996 41.1509 10.6097 41.162 10.62 41.1732L10.6388 41.1937C10.6502 41.2068 10.664 41.2218 10.6785 41.2369C10.7056 41.2655 10.7376 41.2973 10.771 41.3287C10.7855 41.3424 10.8055 41.3605 10.8258 41.3786L10.8309 41.383C10.8393 41.3908 10.8476 41.3983 10.8561 41.4058C10.8908 41.4357 10.9222 41.4616 10.9546 41.4872C10.9853 41.5116 11.0176 41.5362 11.051 41.5606C11.0557 41.564 11.0613 41.568 11.0672 41.5722L11.0685 41.5732L11.0771 41.5791L11.0778 41.5797L11.0899 41.5881L11.1 41.5953C11.1174 41.6075 11.1349 41.6198 11.1529 41.6319C11.1835 41.6525 11.2191 41.6756 11.2558 41.6983C11.2819 41.7144 11.3084 41.7303 11.3356 41.7462L29.0074 52.0501C29.0136 52.0539 29.0249 52.0603 29.0372 52.0673C29.0731 52.0878 29.1095 52.1078 29.1464 52.1272C29.1838 52.1468 29.222 52.166 29.2607 52.1849L29.2747 52.1916L29.2878 52.1976L29.2886 52.198L29.2992 52.2029L29.3153 52.2105C29.3375 52.2208 29.3597 52.2311 29.3821 52.2412C29.4268 52.2609 29.4684 52.2786 29.5107 52.2956L29.5529 52.3119C29.5623 52.3156 29.5742 52.3202 29.5866 52.3248L29.5929 52.3273L29.6422 52.3461C29.6898 52.3635 29.736 52.3796 29.7825 52.3947C29.7957 52.3991 29.8136 52.4048 29.8316 52.4103L29.8445 52.4143L29.8662 52.421L29.8707 52.4224L29.8802 52.4253L29.9141 52.436C29.9644 52.4508 30.0093 52.4633 30.0545 52.4753C30.0839 52.483 30.1108 52.4895 30.1378 52.4961L30.15 52.499L30.164 52.5023L30.1967 52.5104C30.2393 52.5202 30.2838 52.53 30.3287 52.5392L30.3451 52.5425L30.376 52.5568L30.4986 52.5709C30.535 52.5771 30.5716 52.5829 30.6083 52.5885C30.6605 52.5961 30.7099 52.6026 30.7593 52.6086L30.7605 52.6088L30.7812 52.6112L30.7889 52.612L30.7897 52.6122C30.8716 52.6215 30.9541 52.6292 31.0369 52.6349C31.0486 52.6357 31.0622 52.6364 31.0762 52.6369C31.0903 52.6377 31.1098 52.6385 31.1293 52.6392L31.1615 52.6404L31.2374 52.6437L31.2648 52.6449C31.2961 52.6464 31.3274 52.6479 31.3587 52.6482L31.3648 52.6483H31.3709L31.3961 52.6481L31.4419 52.6478L31.4582 52.6477L31.4884 52.6475C31.5228 52.6475 31.5571 52.6473 31.5915 52.6464C31.6256 52.6454 31.6571 52.644 31.6886 52.6425L31.702 52.6418L31.6738 51.7279L31.7217 52.641L31.7282 52.6407L31.7346 52.6403L31.7435 52.6399L31.752 52.6395C31.7959 52.637 31.842 52.6339 31.888 52.6301C31.9282 52.6269 31.9695 52.6231 32.0107 52.6188L32.0175 52.6182L32.0243 52.6173L32.0366 52.6158C32.0729 52.6118 32.1008 52.6088 32.1285 52.6053C32.171 52.6 32.2118 52.5944 32.2524 52.5883L32.3188 52.5777L32.331 52.5757L32.3511 52.5723L32.3737 52.5686C32.4147 52.5617 32.4573 52.5537 32.4995 52.5453C32.5423 52.5367 32.584 52.5279 32.6253 52.5186L32.6552 52.5115L32.6726 52.5075C32.7003 52.501 32.7278 52.4944 32.7552 52.4875C32.7976 52.4767 32.8405 52.4653 32.8829 52.4532L32.9291 52.4395L32.9298 52.4393L32.9402 52.4361L32.9621 52.4297L33.0058 52.4165C33.0483 52.4031 33.0897 52.3895 33.1309 52.3752C33.1542 52.3671 33.1773 52.3588 33.2003 52.3503L33.2355 52.3409L33.2806 52.3202C33.3094 52.309 33.338 52.2974 33.3662 52.2858C33.4064 52.2691 33.4434 52.2531 33.48 52.2366L33.5167 52.2195L33.5172 52.2193L33.5297 52.2134L33.531 52.2127L33.5424 52.2074L33.5527 52.2026C33.5674 52.1957 33.5821 52.1888 33.5964 52.1817C33.6307 52.1648 33.667 52.1463 33.7028 52.1273C33.7399 52.1076 33.7736 52.0888 33.8069 52.0697L58.0811 38.1016L58.0849 38.0995L58.1011 38.0901C58.1344 38.0708 58.171 38.0487 58.2066 38.0264C58.2439 38.0029 58.2792 37.9797 58.3135 37.9561C58.3248 37.9485 58.3363 37.9403 58.3478 37.9319L58.3598 37.9233L58.3714 37.915C58.3881 37.9032 58.4048 37.8913 58.4208 37.8792C58.4606 37.8493 58.4961 37.8213 58.5302 37.793C58.5449 37.7809 58.5584 37.769 58.5719 37.7571L58.6032 37.7297C58.6113 37.723 58.6246 37.7114 58.6374 37.6997C58.6795 37.6609 58.717 37.6242 58.753 37.5868C58.7662 37.5731 58.7799 37.5579 58.7934 37.5425L58.7835 37.5535L58.8113 37.5225C58.8348 37.497 58.8522 37.4774 58.8685 37.4579C58.9003 37.4196 58.9298 37.381 58.9581 37.3421C58.9606 37.3388 58.963 37.3356 58.9655 37.3324L58.978 37.3163L58.9913 37.2967C59.038 37.2294 59.081 37.1593 59.1193 37.0881L59.1594 37.0175L59.1693 36.9872C59.2114 36.8959 59.2467 36.7997 59.2765 36.6953C59.2854 36.6644 59.2929 36.6343 59.3001 36.6038C59.3338 36.4571 59.3503 36.3252 59.3513 36.1971L59.3579 35.2652H59.3559C59.3616 34.5264 58.9211 33.8285 58.1423 33.3586L58.1777 28.3772C58.1945 28.367 58.2112 28.3567 58.2277 28.3463C58.2635 28.3238 58.2997 28.3 58.3347 28.2759L58.3659 28.2538L58.3829 28.2416C58.4077 28.2241 58.4258 28.2112 58.4431 28.1981C58.4793 28.171 58.5154 28.1424 58.5501 28.1137C58.5624 28.1036 58.5765 28.0914 58.5905 28.079L58.6067 28.0648L58.6092 28.0626L58.6196 28.0535C58.6326 28.0424 58.6454 28.0311 58.6577 28.02C58.6995 27.9815 58.7371 27.9446 58.7729 27.9074C58.7858 27.894 58.7995 27.8789 58.813 27.8635L58.8023 27.8753L58.8283 27.8465L58.839 27.8347C58.8561 27.8161 58.8728 27.7972 58.8885 27.7783C58.9206 27.7398 58.9504 27.7008 58.979 27.6614C58.9795 27.6607 58.9801 27.66 58.9806 27.6594L58.9812 27.6586L58.9905 27.6462L59.0005 27.633L59.0099 27.6194C59.0576 27.5508 59.1011 27.4798 59.1395 27.4082L59.1798 27.3375L59.1896 27.307C59.2316 27.216 59.2668 27.12 59.2966 27.0158C59.3055 26.9846 59.3137 26.9523 59.3212 26.9197C59.354 26.7779 59.3705 26.6453 59.3713 26.5164L59.3779 25.5857H59.376C59.3818 24.8331 58.9247 24.1231 58.1185 23.6531L40.4476 13.3498C39.7856 12.9638 38.925 12.7512 38.0242 12.7512Z" fill="#374874"/>
<path d="M19.7192 36.7128L19.7108 39.0053L22.4204 40.5425L22.4288 38.2501L19.7192 36.7128Z" fill="#374874"/>
<path d="M18.4146 39.3467L18.4037 42.0372L23.7887 45.1462L23.7996 42.4557L18.4146 39.3467Z" fill="#374874"/>
<path d="M31.1195 42.0435C31.0483 42.0385 30.9774 42.0319 30.9069 42.0237C30.9065 42.0237 30.9061 42.0237 30.9058 42.0236C30.9057 42.0236 30.9057 42.0236 30.9056 42.0236C30.8582 42.0181 30.8109 42.0118 30.764 42.0048C30.7259 41.9992 30.6882 41.993 30.6505 41.9864C30.6496 41.9862 30.6486 41.9861 30.6476 41.986C30.6471 41.9859 30.6465 41.9858 30.646 41.9857C30.6078 41.979 30.5698 41.9717 30.5321 41.964C30.495 41.9565 30.4582 41.9484 30.4215 41.9399C30.4156 41.9386 30.4098 41.937 30.4039 41.9356C30.3977 41.9341 30.3916 41.9325 30.3854 41.931C30.3599 41.9248 30.3345 41.9188 30.3094 41.9122C30.2719 41.9024 30.2348 41.892 30.1981 41.8812C30.1868 41.8778 30.1758 41.8741 30.1646 41.8707C30.1564 41.8682 30.1482 41.8656 30.1399 41.863C30.1221 41.8575 30.1041 41.8521 30.0864 41.8464C30.0498 41.8343 30.0137 41.8217 29.9779 41.8086C29.9623 41.803 29.9473 41.7968 29.9318 41.791C29.9239 41.788 29.9161 41.785 29.9083 41.7819C29.8967 41.7774 29.8849 41.7732 29.8735 41.7685C29.8401 41.7551 29.807 41.7412 29.7745 41.7267C29.7509 41.7163 29.7278 41.7053 29.7046 41.6944C29.7006 41.6925 29.6965 41.6907 29.6925 41.6888C29.6884 41.6868 29.6842 41.6851 29.6802 41.6831C29.6503 41.6686 29.6208 41.6537 29.5917 41.6385C29.5632 41.6233 29.5349 41.6079 29.5071 41.592C29.5007 41.5883 29.4942 41.5847 29.488 41.5809L11.8168 31.2774C11.7961 31.2654 11.7759 31.2532 11.756 31.2409C11.7302 31.2248 11.705 31.2086 11.6806 31.1921C11.6646 31.1813 11.6494 31.1703 11.6338 31.1594C11.6303 31.1568 11.6265 31.1543 11.6229 31.1518C11.6185 31.1485 11.6137 31.1454 11.6093 31.1421C11.5861 31.1253 11.5636 31.1082 11.5419 31.0909C11.5196 31.0733 11.4981 31.0554 11.4773 31.0374C11.4735 31.0342 11.4702 31.0309 11.4666 31.0278C11.4635 31.025 11.4606 31.0223 11.4574 31.0196C11.4437 31.0071 11.4296 30.9949 11.4164 30.9823C11.3959 30.9629 11.3762 30.9433 11.3572 30.9235C11.3479 30.9139 11.3395 30.904 11.3306 30.8943C11.3267 30.8901 11.3229 30.8858 11.319 30.8816C11.3135 30.8753 11.3075 30.8693 11.3021 30.863C11.283 30.8408 11.2648 30.8185 11.2476 30.7959C11.2369 30.7819 11.2273 30.7677 11.2173 30.7536C11.2139 30.7488 11.2103 30.744 11.207 30.7391C11.2037 30.7344 11.2 30.7298 11.1969 30.7251C11.1797 30.6993 11.1637 30.6733 11.1489 30.6471C11.1422 30.6355 11.137 30.6236 11.1309 30.6119C11.1262 30.6029 11.1215 30.5939 11.1171 30.5848C11.1126 30.5755 11.1071 30.5664 11.1029 30.557C11.0869 30.522 11.073 30.4868 11.0613 30.4514C11.061 30.4507 11.061 30.45 11.0607 30.4493C11.058 30.441 11.0569 30.4327 11.0544 30.4245C11.0433 30.388 11.0329 30.3513 11.0262 30.3145C11.0257 30.3115 11.026 30.3084 11.0254 30.3054C11.0161 30.2508 11.0108 30.196 11.0113 30.1412L11.0179 29.2097C11.0174 29.2644 11.0228 29.3192 11.0321 29.3737C11.0388 29.4136 11.049 29.4533 11.061 29.4929C11.0635 29.5011 11.0646 29.5094 11.0673 29.5177C11.0824 29.5632 11.1017 29.6084 11.1237 29.6532C11.1281 29.6623 11.1327 29.6713 11.1375 29.6803C11.1599 29.7231 11.1848 29.7657 11.2135 29.8075C11.2168 29.8124 11.2205 29.8172 11.2239 29.822C11.2545 29.8653 11.2882 29.908 11.3256 29.95C11.3294 29.9543 11.3334 29.9585 11.3372 29.9627C11.376 30.0053 11.4181 30.0471 11.4641 30.0879C11.4671 30.0907 11.4701 30.0934 11.4732 30.0962C11.5214 30.1386 11.5735 30.18 11.6295 30.2201C11.6331 30.2227 11.6368 30.2252 11.6404 30.2279C11.6976 30.2684 11.7582 30.3079 11.8233 30.3458L29.4945 40.6493C29.5601 40.6876 29.6286 40.7235 29.699 40.7572C29.703 40.7591 29.7071 40.7609 29.7111 40.7628C29.7771 40.794 29.8452 40.8231 29.9149 40.8503C29.9226 40.8533 29.9304 40.8563 29.9381 40.8593C30.0061 40.8853 30.0756 40.9093 30.1463 40.9314C30.1546 40.934 30.1628 40.9366 30.171 40.9391C30.2434 40.9612 30.3171 40.9812 30.3919 40.9993C30.398 41.0009 30.4042 41.0025 30.4105 41.0039C30.4905 41.023 30.5719 41.0398 30.6541 41.0543C30.6551 41.0545 30.6561 41.0546 30.6569 41.0548C30.7412 41.0695 30.8263 41.082 30.9123 41.0919C30.9126 41.092 30.9131 41.092 30.9134 41.0921C30.9727 41.0989 31.0325 41.1033 31.0923 41.1078L31.1282 42.0438C31.1252 42.0437 31.1225 42.0436 31.1195 42.0435Z" fill="#C1DBF6"/>
</svg>
