<svg width="64" height="64" viewBox="0 0 64 64" fill="none" xmlns="http://www.w3.org/2000/svg">
<path d="M6.59045 29.5922C5.04937 30.4819 5.04128 31.9244 6.57232 32.8141L22.9225 42.3158C24.4535 43.2055 26.9438 43.2056 28.4849 42.3158L54.5431 27.2711C56.0842 26.3814 56.0923 24.9389 54.5612 24.0492L38.211 14.5475C36.68 13.6578 34.1897 13.6577 32.6486 14.5475L6.59045 29.5922Z" fill="white"/>
<path d="M25.7899 42.9806C25.718 42.9816 25.646 42.981 25.5741 42.9796C25.5171 42.9786 25.4602 42.9774 25.4034 42.9749C25.3146 42.971 25.2263 42.9646 25.1381 42.9572C25.0914 42.9533 25.0445 42.9504 24.998 42.9455C24.8473 42.9297 24.6979 42.9092 24.5507 42.8832C24.5009 42.8744 24.4522 42.8632 24.4029 42.8532C24.3298 42.8384 24.2567 42.8239 24.1849 42.8066C24.1326 42.7939 24.0817 42.779 24.0302 42.765C23.9623 42.7465 23.8943 42.7282 23.828 42.7072C23.7896 42.6952 23.7525 42.6813 23.7146 42.6684C23.6093 42.6324 23.5063 42.5935 23.4058 42.5514C23.3681 42.5356 23.3303 42.52 23.2933 42.5034C23.1652 42.4455 23.0402 42.3842 22.9225 42.3158L6.57232 32.8141C6.51922 32.7832 6.47236 32.7503 6.42297 32.7182C6.37494 32.6869 6.32585 32.656 6.28132 32.6236C6.24249 32.5954 6.20772 32.5659 6.17156 32.5369C6.13035 32.5039 6.08827 32.471 6.05051 32.437C5.99145 32.3838 5.93552 32.3298 5.88491 32.2744C5.87574 32.2644 5.86774 32.2541 5.85885 32.244C5.82132 32.2015 5.78779 32.1581 5.75522 32.1145C5.72141 32.0693 5.69129 32.0234 5.66278 31.9773C5.64482 31.9482 5.62585 31.9193 5.60998 31.8898C5.5882 31.8494 5.57046 31.8084 5.55266 31.7675C5.53878 31.7356 5.52361 31.7037 5.51216 31.6715C5.4983 31.6325 5.48873 31.5933 5.47842 31.554C5.46962 31.5205 5.45942 31.487 5.45323 31.4534C5.44564 31.4122 5.44278 31.371 5.43908 31.3296C5.43563 31.2912 5.42944 31.2529 5.42932 31.2144L5.48742 47.1385C5.48745 47.15 5.48763 47.1615 5.48797 47.173C5.48875 47.2 5.49478 47.2268 5.49718 47.2536C5.50089 47.2951 5.50374 47.3362 5.51133 47.3774C5.51264 47.3846 5.51236 47.3916 5.51376 47.3986C5.51908 47.4253 5.52957 47.4515 5.53652 47.478C5.54683 47.5174 5.55641 47.5567 5.57026 47.5956C5.57314 47.6038 5.57426 47.612 5.5773 47.62C5.58633 47.6442 5.60038 47.6676 5.61078 47.6916C5.62859 47.7326 5.64633 47.7734 5.66811 47.8139C5.67341 47.8238 5.67654 47.8339 5.68208 47.8437C5.69309 47.8632 5.70893 47.882 5.72091 47.9013C5.74944 47.9475 5.77952 47.9934 5.81334 48.0386C5.82324 48.0519 5.83003 48.0656 5.84036 48.0788C5.86411 48.1089 5.89083 48.1385 5.91698 48.1681C5.92587 48.1782 5.93385 48.1885 5.94304 48.1985C5.98717 48.2467 6.03378 48.2944 6.08432 48.3411C6.09177 48.348 6.10105 48.3542 6.10864 48.3611C6.1464 48.3952 6.18845 48.4279 6.22969 48.461C6.26587 48.4901 6.30059 48.5195 6.33945 48.5478C6.38397 48.5801 6.43305 48.6109 6.48109 48.6423C6.51545 48.6646 6.54628 48.6882 6.58244 48.7098C6.59828 48.7194 6.61428 48.7288 6.63044 48.7383L22.9806 58.2399C23.0983 58.3083 23.2233 58.3696 23.3515 58.4275C23.3885 58.4442 23.4262 58.4597 23.4639 58.4754C23.5644 58.5176 23.6674 58.5566 23.7728 58.5925C23.7966 58.6006 23.8185 58.6111 23.8426 58.619C23.8567 58.6235 23.8717 58.6269 23.886 58.6313C23.9525 58.6522 24.0205 58.6706 24.0886 58.6891C24.14 58.7031 24.1908 58.7181 24.243 58.7308C24.3146 58.7481 24.3876 58.7625 24.4605 58.7772C24.5029 58.7858 24.5443 58.7966 24.5872 58.8043C24.5943 58.8056 24.6018 58.8061 24.609 58.8073C24.7562 58.8333 24.9055 58.8539 25.0561 58.8696C25.0671 58.8707 25.0778 58.8731 25.0889 58.8742C25.1244 58.8778 25.1605 58.8783 25.1962 58.8813C25.2845 58.8887 25.3727 58.8952 25.4616 58.8991C25.4828 58.9 25.5038 58.9025 25.525 58.9032C25.5607 58.9044 25.5965 58.9031 25.6322 58.9038C25.6894 58.9049 25.7465 58.9048 25.8036 58.9045V42.9803C25.7991 42.9803 25.7945 42.9805 25.7899 42.9806Z" fill="#FBDBD0"/>
<path d="M55.7042 25.6489C55.7058 26.2356 55.3185 26.8234 54.543 27.2711L28.4849 42.3158C28.3921 42.3694 28.2956 42.4193 28.1964 42.4665C28.1631 42.4822 28.128 42.4959 28.094 42.511C28.0288 42.5399 27.9635 42.5688 27.896 42.5951C27.7595 42.6483 27.6182 42.6955 27.4737 42.7377C27.4294 42.7506 27.3841 42.7619 27.3391 42.7738C27.2584 42.7953 27.1772 42.8157 27.0947 42.8337C27.0408 42.8456 26.9864 42.8563 26.9317 42.8667C26.8625 42.8798 26.793 42.8921 26.7229 42.903C26.6647 42.9121 26.6063 42.9204 26.5476 42.9278C26.4822 42.9361 26.4166 42.9435 26.3507 42.9498C26.2904 42.9556 26.23 42.9608 26.1694 42.965C26.1029 42.9696 26.0362 42.973 25.9694 42.9756C25.9142 42.9778 25.8589 42.9794 25.8036 42.9803V58.9045C25.8184 58.9044 25.8332 58.905 25.848 58.9047C25.8747 58.9044 25.9013 58.9057 25.9279 58.9051C25.9612 58.9043 25.9942 58.9011 26.0275 58.8997C26.0944 58.8972 26.1609 58.8937 26.2275 58.889C26.2567 58.887 26.2861 58.8868 26.3153 58.8843C26.3467 58.8818 26.3776 58.877 26.4089 58.874C26.4747 58.8676 26.5401 58.8602 26.6054 58.852C26.636 58.8481 26.6672 58.8459 26.6977 58.8417C26.7259 58.8377 26.7533 58.8314 26.7813 58.8271C26.8513 58.8162 26.9206 58.804 26.9897 58.7908C27.0221 58.7847 27.0554 58.7805 27.0876 58.7738C27.1098 58.7693 27.1309 58.7627 27.1529 58.7578C27.2353 58.7398 27.3162 58.7194 27.3968 58.6981C27.4301 58.6892 27.4648 58.6827 27.4979 58.6733C27.5096 58.67 27.5203 58.6651 27.532 58.6618C27.6764 58.6196 27.8175 58.5724 27.9539 58.5193C27.9609 58.5166 27.9686 58.5147 27.9755 58.512C28.0364 58.4879 28.0945 58.4607 28.1534 58.4346C28.1869 58.4196 28.2216 58.4062 28.2544 58.3906C28.3536 58.3435 28.4502 58.2935 28.543 58.2399L54.6011 43.1953C55.3766 42.7475 55.7639 42.1598 55.7623 41.5731L55.7042 25.6489Z" fill="#C1DBF6"/>
<path d="M31.2833 17.7293L27.6684 4.62152L8.26587 15.8732L11.9091 28.9282L31.2833 17.7293Z" fill="#C1DBF6"/>
<path d="M27.6685 4.6215L26.9518 4.34589L7.54932 15.5976L8.26598 15.8732L27.6685 4.6215Z" fill="white"/>
<path d="M11.1926 28.6526L11.9092 28.9282L8.26598 15.8732L7.54932 15.5976L11.1926 28.6526Z" fill="#FBDBD0"/>
<path d="M11.9092 28.9282L16.8586 31.567C17.8521 32.1443 19.4682 32.1444 20.4682 31.567L36.2211 22.3432C37.2211 21.7658 37.2264 20.8297 36.2328 20.2524L31.2834 17.6136" fill="#374874"/>
<path d="M33.7464 47.0121L33.7764 55.2321L49.8833 45.8647L49.8558 38.3435C49.8541 37.8772 49.3483 37.5875 48.9452 37.8219L34.0476 46.486C33.8604 46.5949 33.7456 46.7955 33.7464 47.0121Z" fill="#374874"/>
<path d="M28.6714 20.9626L23.3819 1.56067L11.6805 8.37493L16.9983 27.7241L28.6714 20.9626Z" fill="white"/>
<path d="M57.0248 49.6974C57.0245 49.6956 57.0242 49.694 57.024 49.6922L56.8576 48.6979C56.8618 48.7229 56.8626 48.7486 56.8615 48.7743C56.8613 48.78 56.8609 48.7857 56.8604 48.7913C56.8583 48.8166 56.8545 48.8421 56.8475 48.8678C56.8469 48.8698 56.846 48.8718 56.8455 48.8737C56.8385 48.898 56.8288 48.9224 56.8174 48.9469C56.8147 48.9528 56.8122 48.9586 56.8092 48.9644C56.796 48.9904 56.7808 49.0164 56.7628 49.0425C56.7593 49.0476 56.755 49.0526 56.7513 49.0575C56.7359 49.0787 56.7187 49.0998 56.7001 49.1208C56.6911 49.1309 56.6816 49.141 56.6718 49.151C56.6567 49.1667 56.6403 49.1823 56.6234 49.1978C56.6065 49.2133 56.5887 49.2288 56.57 49.2442C56.5556 49.2559 56.5405 49.2676 56.525 49.2794C56.475 49.3173 56.4215 49.3547 56.3603 49.391L43.7385 56.8571L43.9049 57.8514L56.5266 50.3853C56.5879 50.3491 56.6414 50.3116 56.6915 50.2737C56.6976 50.269 56.7057 50.2646 56.7116 50.26C56.7207 50.253 56.7276 50.2458 56.7362 50.2386C56.7551 50.2232 56.7729 50.2077 56.7899 50.192C56.7979 50.1847 56.8075 50.1774 56.8151 50.1701C56.8235 50.1619 56.8301 50.1537 56.838 50.1455C56.8478 50.1354 56.8575 50.1252 56.8665 50.1151C56.8719 50.1089 56.8784 50.1029 56.8835 50.0969C56.896 50.0819 56.9066 50.067 56.9176 50.052C56.9212 50.047 56.9256 50.0419 56.9291 50.0368C56.9302 50.0353 56.9316 50.0337 56.9327 50.0321C56.9463 50.0122 56.9584 49.9922 56.9692 49.9722C56.9716 49.9678 56.9732 49.9633 56.9755 49.9588C56.9784 49.9529 56.981 49.9471 56.9837 49.9413C56.9877 49.9326 56.9924 49.9239 56.9959 49.9153C57.0023 49.8994 57.0072 49.8838 57.0117 49.8682C57.0123 49.8662 57.0132 49.864 57.0138 49.862C57.014 49.8614 57.0143 49.8607 57.0145 49.86C57.0194 49.8418 57.023 49.8236 57.0254 49.8057C57.0263 49.799 57.0262 49.7924 57.0267 49.7858C57.0272 49.78 57.0276 49.7743 57.0279 49.7686C57.0281 49.763 57.029 49.7573 57.029 49.7516C57.0289 49.7333 57.0275 49.7153 57.0248 49.6974Z" fill="#C1DBF6"/>
<path d="M56.4085 48.275C57.033 48.507 57.0108 49.0062 56.3605 49.3909L43.7388 56.857C43.09 57.2407 42.0584 57.3649 41.4338 57.1329L33.772 54.2836L48.7467 45.4257L56.4085 48.275Z" fill="white"/>
<path d="M42.2727 57.2483C42.2676 57.2484 42.2626 57.2484 42.2575 57.2485C42.1611 57.2508 42.0663 57.2487 41.9743 57.2418C41.9702 57.2415 41.9659 57.2414 41.9618 57.2411C41.8729 57.234 41.7875 57.222 41.7053 57.2061C41.6963 57.2044 41.6868 57.2031 41.6779 57.2013C41.5915 57.1835 41.5093 57.161 41.4335 57.1329L33.7717 54.2836L33.7747 55.2179L41.5999 58.1272C41.6711 58.1537 41.7477 58.1756 41.8284 58.193C41.8335 58.1941 41.8391 58.1946 41.8443 58.1957C41.8531 58.1975 41.8625 58.1988 41.8715 58.2005C41.9086 58.2076 41.9456 58.2149 41.9842 58.2202C42.0273 58.2261 42.0713 58.231 42.1161 58.2347C42.1201 58.2351 42.1242 58.2352 42.1282 58.2355C42.1323 58.2358 42.1365 58.2359 42.1406 58.2362C42.1722 58.2385 42.2038 58.2407 42.236 58.242C42.2736 58.2434 42.3115 58.2442 42.3498 58.2442C42.3742 58.2442 42.3989 58.2435 42.4235 58.243C42.4288 58.2427 42.434 58.2427 42.4393 58.2426C42.4464 58.2424 42.4534 58.2425 42.4605 58.2423C42.4736 58.2418 42.4868 58.2408 42.4999 58.2403L42.3998 57.2389C42.3574 57.2418 42.3146 57.2471 42.2727 57.2483Z" fill="#FBDBD0"/>
<path d="M43.7385 56.857C43.6635 56.9014 43.5823 56.9415 43.4982 56.9788C43.4712 56.9907 43.4426 57.001 43.4149 57.0122C43.3506 57.0383 43.2855 57.0633 43.2179 57.0852C43.202 57.0904 43.1863 57.0955 43.1703 57.1004C43.0821 57.1273 42.992 57.1512 42.9005 57.1711C42.8939 57.1724 42.8873 57.1741 42.8806 57.1754C42.7831 57.1959 42.6846 57.2122 42.5861 57.2243C42.5797 57.2251 42.5733 57.2258 42.5669 57.2266C42.5108 57.2331 42.4555 57.2351 42.3998 57.2389L42.4999 58.2403C42.5233 58.2391 42.5466 58.2381 42.5702 58.2366C42.6066 58.234 42.6432 58.2309 42.6798 58.2272C42.6976 58.2254 42.7154 58.2231 42.7332 58.221C42.7397 58.2202 42.746 58.2195 42.7524 58.2187C42.7652 58.2172 42.778 58.2159 42.7908 58.2142C42.8288 58.2091 42.8667 58.2034 42.9045 58.1971C42.9441 58.1905 42.9835 58.1831 43.0227 58.1752C43.0308 58.1735 43.0387 58.1715 43.0467 58.1699C43.0536 58.1684 43.0603 58.1668 43.0671 58.1654C43.0943 58.1595 43.1216 58.1538 43.1486 58.1472C43.1959 58.1358 43.2428 58.1233 43.2891 58.11C43.3052 58.1054 43.3206 58.0997 43.3365 58.0949C43.3526 58.09 43.3683 58.0847 43.3842 58.0796C43.4093 58.0715 43.435 58.0642 43.4596 58.0555C43.5015 58.0407 43.5407 58.023 43.5812 58.0066C43.609 57.9954 43.6374 57.9851 43.6645 57.9731C43.7487 57.9358 43.8298 57.8957 43.9049 57.8513L43.7385 56.857Z" fill="#FBDBD0"/>
<path d="M46.5411 54.529C46.5306 53.8588 46.9816 53.7269 47.5469 53.3909L53.0035 50.1487C53.569 49.8127 54.037 49.3986 54.0474 50.0688L54.0595 50.8357L46.5531 55.2959L46.5411 54.529Z" fill="#C1DBF6"/>
<path d="M22.9425 1.92629C23.2467 1.92632 23.5358 2.12495 23.6233 2.44591L24.5249 5.7532L26.6602 4.51503C26.7689 4.45199 26.8909 4.41996 27.0136 4.41999C27.099 4.41999 27.1847 4.43551 27.2664 4.46691L27.3366 4.49393C27.5453 4.57416 27.7035 4.74867 27.763 4.96419L30.7139 15.6645L32.6486 14.5475C33.4192 14.1026 34.427 13.8802 35.4336 13.8802C36.4402 13.8802 37.4455 14.1026 38.211 14.5475L54.5612 24.0492C55.3243 24.4926 55.7046 25.0734 55.7038 25.6545C55.7038 25.6526 55.7042 25.6508 55.7042 25.6489L55.7623 41.5731C55.764 42.1598 55.3767 42.7475 54.6012 43.1953L49.9578 45.8761L56.4083 48.275C56.6807 48.3761 56.8299 48.5281 56.8578 48.6992C56.8578 48.6988 56.8578 48.6982 56.8578 48.6978L57.0241 49.6921C57.0244 49.6939 57.0247 49.6956 57.0249 49.6974C57.0277 49.7152 57.0291 49.7333 57.0292 49.7516C57.0292 49.7573 57.0283 49.763 57.0281 49.7686C57.0278 49.7743 57.0274 49.78 57.0269 49.7858C57.0264 49.7924 57.0265 49.7989 57.0256 49.8056C57.0232 49.8236 57.0196 49.8418 57.0147 49.86C57.0145 49.8606 57.0142 49.8613 57.014 49.862C57.0134 49.864 57.0125 49.8661 57.0119 49.8681C57.0074 49.8838 57.0025 49.8994 56.9961 49.9153C56.9926 49.9238 56.9879 49.9326 56.9839 49.9413C56.9812 49.9471 56.9786 49.9529 56.9757 49.9588C56.9734 49.9633 56.9718 49.9677 56.9694 49.9722C56.9587 49.9922 56.9465 50.0121 56.9329 50.0321C56.9318 50.0337 56.9304 50.0353 56.9293 50.0368C56.9258 50.0418 56.9214 50.047 56.9178 50.052C56.9068 50.0669 56.8962 50.0819 56.8837 50.0969C56.8786 50.1029 56.8721 50.1089 56.8667 50.115C56.8577 50.1252 56.848 50.1354 56.8382 50.1455C56.8303 50.1537 56.8237 50.1619 56.8153 50.1701C56.8077 50.1774 56.7981 50.1847 56.7901 50.1919C56.7731 50.2077 56.7553 50.2232 56.7364 50.2386C56.7278 50.2457 56.7208 50.253 56.7118 50.26C56.7059 50.2646 56.6978 50.269 56.6917 50.2737C56.6416 50.3116 56.5881 50.3491 56.5268 50.3853L43.9051 57.8513C43.83 57.8958 43.7489 57.9358 43.6647 57.9731C43.6377 57.9851 43.6092 57.9954 43.5814 58.0066C43.5409 58.023 43.5017 58.0407 43.4598 58.0555C43.4352 58.0642 43.4095 58.0716 43.3844 58.0796C43.3685 58.0847 43.3528 58.09 43.3367 58.0949C43.3208 58.0997 43.3054 58.1054 43.2893 58.1101C43.243 58.1233 43.1961 58.1358 43.1488 58.1472C43.1218 58.1538 43.0945 58.1595 43.0673 58.1654C43.0605 58.1669 43.0538 58.1684 43.047 58.1699C43.0389 58.1716 43.031 58.1736 43.0229 58.1752C42.9837 58.1832 42.9442 58.1905 42.9047 58.1971C42.8669 58.2035 42.829 58.2091 42.791 58.2142C42.7782 58.216 42.7654 58.2172 42.7526 58.2188C42.7462 58.2195 42.7399 58.2202 42.7334 58.221C42.7156 58.2231 42.6978 58.2254 42.6801 58.2272C42.6434 58.2309 42.6068 58.234 42.5704 58.2366C42.5469 58.2382 42.5235 58.2392 42.5001 58.2403C42.487 58.2408 42.4738 58.2418 42.4607 58.2423C42.4536 58.2425 42.4466 58.2424 42.4395 58.2426C42.4342 58.2427 42.429 58.2428 42.4237 58.243C42.3991 58.2435 42.3744 58.2442 42.35 58.2442C42.3117 58.2442 42.2738 58.2434 42.2362 58.242C42.204 58.2407 42.1724 58.2385 42.1409 58.2362C42.1367 58.2359 42.1325 58.2358 42.1284 58.2355C42.1244 58.2352 42.1203 58.235 42.1163 58.2347C42.0716 58.231 42.0275 58.2261 41.9844 58.2202C41.9458 58.2149 41.9088 58.2076 41.8717 58.2005C41.8627 58.1988 41.8534 58.1976 41.8445 58.1957C41.8393 58.1947 41.8337 58.1941 41.8286 58.193C41.7479 58.1756 41.6713 58.1537 41.6001 58.1273L33.7908 55.2238L33.7765 55.2322L33.7764 55.2185L28.5431 58.24C28.4503 58.2936 28.3537 58.3436 28.2545 58.3907C28.2217 58.4063 28.187 58.4197 28.1536 58.4346C28.0946 58.4608 28.0365 58.488 27.9757 58.5121C27.9687 58.5148 27.9611 58.5167 27.9541 58.5193C27.8176 58.5725 27.6765 58.6197 27.5321 58.6619C27.5204 58.6652 27.5097 58.67 27.498 58.6734C27.465 58.6827 27.4303 58.6893 27.3969 58.6981C27.3163 58.7195 27.2354 58.7399 27.153 58.7578C27.131 58.7627 27.1099 58.7693 27.0878 58.7739C27.0555 58.7806 27.0222 58.7847 26.9898 58.7909C26.9207 58.804 26.8515 58.8163 26.7815 58.8271C26.7534 58.8315 26.726 58.8377 26.6978 58.8418C26.6673 58.846 26.6361 58.8481 26.6055 58.852C26.5402 58.8603 26.4748 58.8677 26.409 58.874C26.3777 58.877 26.3468 58.8818 26.3154 58.8844C26.2863 58.8868 26.2568 58.8871 26.2276 58.8891C26.161 58.8938 26.0945 58.8972 26.0276 58.8998C25.9944 58.9012 25.9613 58.9044 25.928 58.9051C25.9225 58.9053 25.9171 58.9054 25.9116 58.9054C25.8935 58.9054 25.8754 58.9048 25.8573 58.9048C25.8542 58.9048 25.8512 58.9048 25.8482 58.9048C25.8457 58.9048 25.8432 58.9049 25.8407 58.9049C25.8296 58.9049 25.8186 58.9046 25.8076 58.9046C25.8063 58.9046 25.805 58.9046 25.8037 58.9046C25.7831 58.9047 25.7625 58.9047 25.7419 58.9047C25.7054 58.9047 25.6689 58.9045 25.6323 58.9038C25.6244 58.9037 25.6165 58.9036 25.6085 58.9036C25.5931 58.9036 25.5776 58.9038 25.5621 58.9038C25.5498 58.9038 25.5375 58.9036 25.5252 58.9032C25.5039 58.9026 25.4829 58.9 25.4617 58.8991C25.3729 58.8952 25.2846 58.8887 25.1963 58.8814C25.1606 58.8783 25.1246 58.8778 25.089 58.8742C25.0779 58.8731 25.0673 58.8708 25.0563 58.8697C24.9056 58.8539 24.7563 58.8334 24.6091 58.8074C24.6019 58.8061 24.5945 58.8056 24.5873 58.8044C24.5444 58.7966 24.503 58.7858 24.4606 58.7772C24.3877 58.7625 24.3147 58.7481 24.2432 58.7308C24.1909 58.7181 24.1402 58.7031 24.0887 58.6892C24.0207 58.6706 23.9526 58.6522 23.8861 58.6314C23.8719 58.6269 23.8569 58.6236 23.8427 58.619C23.8187 58.6112 23.7968 58.6007 23.773 58.5925C23.6675 58.5566 23.5646 58.5177 23.464 58.4755C23.4263 58.4597 23.3886 58.4442 23.3516 58.4276C23.2235 58.3697 23.0984 58.3084 22.9807 58.24L6.63057 48.7383C6.61441 48.7288 6.59841 48.7194 6.58257 48.7098C6.54643 48.6882 6.51559 48.6646 6.48122 48.6423C6.43319 48.611 6.3841 48.5801 6.33957 48.5478C6.30071 48.5196 6.26602 48.4901 6.22981 48.4611C6.18858 48.4279 6.14652 48.3952 6.10876 48.3612C6.10117 48.3542 6.09189 48.348 6.08444 48.3411C6.0339 48.2944 5.9873 48.2468 5.94316 48.1986C5.93397 48.1885 5.92599 48.1782 5.9171 48.1681C5.89095 48.1385 5.86423 48.1089 5.84049 48.0788C5.83015 48.0657 5.82334 48.0519 5.81347 48.0386C5.77964 47.9934 5.74954 47.9476 5.72103 47.9014C5.70906 47.882 5.69324 47.8633 5.6822 47.8438C5.67667 47.8339 5.67354 47.8238 5.66823 47.8139C5.64645 47.7734 5.62871 47.7326 5.61091 47.6916C5.60051 47.6676 5.58645 47.6442 5.57742 47.6201C5.57438 47.612 5.57329 47.6038 5.57038 47.5956C5.55653 47.5567 5.54695 47.5174 5.53665 47.478C5.5297 47.4516 5.51921 47.4253 5.51388 47.3987C5.51246 47.3916 5.51276 47.3846 5.51146 47.3774C5.50387 47.3363 5.50101 47.2951 5.49731 47.2537C5.49489 47.2268 5.48887 47.2 5.4881 47.173C5.48775 47.1615 5.48757 47.15 5.48755 47.1385L5.42945 31.2144C5.42956 31.2513 5.4353 31.2881 5.43882 31.3249C5.3851 30.7019 5.76638 30.0681 6.59057 29.5922L10.7799 27.1735L7.69598 16.1229C7.60967 15.8136 7.74339 15.4851 8.02113 15.3241L12.8249 12.5382L11.8244 8.89768C11.7397 8.58954 11.873 8.263 12.1492 8.10218L22.5892 2.02243C22.7019 1.95681 22.8232 1.92625 22.9425 1.92629ZM22.9427 1.01203C22.658 1.01201 22.3766 1.08821 22.129 1.23237L11.6891 7.31212C11.0553 7.68117 10.7484 8.43283 10.9428 9.13996L11.7566 12.1009L7.56247 14.5332C6.92426 14.9032 6.61706 15.658 6.81534 16.3686L9.70862 26.7363L6.13342 28.8004C5.09349 29.4008 4.51411 30.2737 4.51934 31.2177H4.51514L4.57324 47.1418C4.57329 47.1606 4.57361 47.1804 4.5742 47.2002C4.57607 47.2656 4.5835 47.3187 4.58782 47.3486L4.58807 47.3515C4.59148 47.3908 4.59589 47.4419 4.60529 47.502C4.6083 47.5275 4.6123 47.5529 4.61742 47.5784C4.6302 47.6423 4.64634 47.6934 4.65527 47.7216L4.65575 47.7235C4.6654 47.7606 4.67795 47.8091 4.69633 47.8651C4.70387 47.8915 4.71242 47.9176 4.72227 47.9437C4.74282 47.9985 4.76522 48.0436 4.77806 48.0692C4.79603 48.1104 4.81841 48.1609 4.84675 48.2161C4.85852 48.2418 4.87121 48.267 4.88545 48.2923C4.90631 48.3292 4.92983 48.3654 4.95477 48.4006C4.99157 48.4594 5.02686 48.5119 5.06346 48.5621C5.08161 48.59 5.10044 48.6168 5.12156 48.6437C5.1537 48.6845 5.18796 48.7239 5.22254 48.7629L5.22666 48.7675C5.24115 48.7849 5.25425 48.8001 5.26814 48.8153C5.33434 48.8876 5.39831 48.952 5.4643 49.0129C5.47982 49.0273 5.49811 49.0431 5.5174 49.0587C5.55683 49.0931 5.59614 49.125 5.63578 49.1567L5.65692 49.1736L5.68097 49.1931C5.72007 49.2249 5.75948 49.2564 5.80195 49.2873C5.84986 49.3221 5.90124 49.3559 5.95301 49.3894L5.98129 49.4078L6.00062 49.421C6.03674 49.446 6.07317 49.4705 6.11281 49.4942L6.16599 49.5257L22.5213 59.0304C22.6542 59.1077 22.7985 59.1809 22.9751 59.2607C23.0157 59.279 23.0561 59.296 23.0966 59.3128L23.1118 59.3191C23.2246 59.3665 23.3438 59.4118 23.4648 59.4534C23.499 59.4671 23.5289 59.4783 23.5599 59.4884C23.5818 59.4955 23.6029 59.5016 23.6241 59.5073C23.6953 59.5294 23.7684 59.5495 23.8415 59.5694L23.8913 59.5831C23.9361 59.5956 23.981 59.6079 24.0267 59.6191C24.104 59.6377 24.1809 59.6535 24.2581 59.669L24.2794 59.6734L24.3111 59.6804C24.349 59.6889 24.3869 59.6972 24.4255 59.7041L24.4511 59.7087L24.47 59.7111C24.6196 59.7372 24.7802 59.7596 24.9436 59.777C24.9617 59.7797 24.9793 59.782 24.9971 59.7838C25.0314 59.7872 25.0654 59.7894 25.0994 59.7912L25.1201 59.7924C25.2205 59.8007 25.3207 59.808 25.4215 59.8124C25.4447 59.8145 25.4703 59.8161 25.496 59.8169C25.5167 59.8177 25.5394 59.818 25.5621 59.818L25.5909 59.8178L25.6085 59.8178C25.657 59.8186 25.6994 59.8189 25.7419 59.8189L25.8075 59.8188L25.8407 59.819H25.8477L25.8621 59.8189L25.8698 59.8191L25.9116 59.8195L25.9503 59.819C25.9809 59.8183 26.0123 59.8166 26.0437 59.8145L26.0643 59.8132C26.1393 59.8103 26.2156 59.8064 26.2918 59.801L26.3046 59.8005C26.3339 59.7993 26.3631 59.7978 26.3922 59.7953C26.4195 59.7931 26.4491 59.7897 26.4786 59.7861L26.497 59.7839C26.5716 59.7767 26.646 59.7684 26.7202 59.759L26.7388 59.757C26.7672 59.7542 26.7955 59.7511 26.8235 59.7473C26.8555 59.7427 26.8839 59.7377 26.9122 59.7323L26.9248 59.73C27.0018 59.7181 27.0815 59.704 27.161 59.6889L27.1775 59.6862C27.2098 59.681 27.242 59.6755 27.2737 59.669C27.301 59.6633 27.3283 59.6566 27.3556 59.6494C27.4433 59.6302 27.5372 59.6066 27.6307 59.5819L27.6471 59.5781C27.681 59.5703 27.7147 59.5621 27.7477 59.5528C27.7694 59.5466 27.7897 59.54 27.8096 59.5331C27.9692 59.4858 28.1206 59.4347 28.2629 59.3801C28.2769 59.3754 28.2905 59.3705 28.3037 59.3654C28.3706 59.339 28.4268 59.314 28.4829 59.2888L28.5238 59.2705L28.5503 59.2591C28.5831 59.2453 28.6158 59.2312 28.6475 59.216C28.7716 59.1571 28.8907 59.0949 29.0002 59.0316L32.8688 56.7982L32.8689 56.8199L33.8778 56.2314L41.2815 58.9841C41.3928 59.0254 41.5118 59.0598 41.6358 59.0866L41.6641 59.0927L41.6869 59.0962C41.694 59.0975 41.7012 59.0988 41.7084 59.1C41.7614 59.1101 41.8092 59.1188 41.8588 59.1257C41.9195 59.134 41.9799 59.1408 42.0414 59.1458L42.0537 59.1468L42.0606 59.1472L42.0689 59.1479L42.0853 59.1487C42.1237 59.1515 42.1622 59.154 42.2013 59.1555C42.25 59.1574 42.2998 59.1584 42.35 59.1584C42.3776 59.1584 42.4056 59.1578 42.4335 59.1572L42.4429 59.1569L42.4482 59.1568L42.4516 59.1567L42.4563 59.1566L42.49 59.156L42.5351 59.1539L42.5547 59.1529C42.5801 59.1517 42.6055 59.1505 42.631 59.1487C42.6802 59.1453 42.7259 59.1414 42.7716 59.1368C42.7907 59.1349 42.8103 59.1325 42.8299 59.1301L42.8418 59.1287L42.8629 59.1262C42.8853 59.1237 42.9014 59.1218 42.9176 59.1195C42.9595 59.114 43.008 59.1067 43.0564 59.0986C43.1047 59.0905 43.1544 59.0813 43.2038 59.0713L43.2403 59.0633L43.2465 59.062L43.2562 59.0598L43.2761 59.0556C43.306 59.0491 43.3358 59.0425 43.3654 59.0353C43.4229 59.0215 43.4824 59.0057 43.5411 58.9888C43.5651 58.9819 43.5841 58.9757 43.6031 58.9694L43.6531 58.9535L43.6646 58.9498L43.6798 58.945C43.7082 58.9363 43.7365 58.9273 43.7641 58.9175C43.8093 58.9017 43.8536 58.8836 43.8977 58.8651L43.9249 58.8538L43.9396 58.8481C43.9725 58.8353 44.0051 58.8223 44.0368 58.8082C44.1605 58.7534 44.2702 58.6975 44.3706 58.6382L56.9924 51.1721C57.0684 51.1272 57.1436 51.077 57.2209 51.0195C57.2382 51.0078 57.2545 50.9961 57.2694 50.9846C57.2941 50.9653 57.3131 50.9492 57.3309 50.9334C57.3518 50.916 57.3741 50.8966 57.396 50.8768C57.4166 50.8593 57.4358 50.842 57.4532 50.8251C57.4711 50.8076 57.4878 50.7901 57.5039 50.7722C57.5162 50.7594 57.5281 50.7468 57.5394 50.7343C57.5542 50.7187 57.5682 50.7033 57.581 50.6882C57.6082 50.6558 57.6296 50.6276 57.6503 50.5992C57.651 50.5983 57.6516 50.5975 57.6523 50.5966L57.6621 50.5845L57.6816 50.5569L57.6852 50.5517L57.6888 50.5465C57.7202 50.5003 57.7492 50.4526 57.7749 50.4048L57.7911 50.3746L57.803 50.3482C57.8059 50.3421 57.8085 50.3366 57.811 50.3312C57.8231 50.3064 57.834 50.2822 57.8436 50.2586C57.8577 50.2233 57.8692 50.1907 57.8793 50.1588L57.8853 50.1429L57.8972 50.0995C57.9128 50.0411 57.9243 49.9839 57.9319 49.9272C57.9356 49.9004 57.9381 49.8725 57.9395 49.8444C57.9399 49.8388 57.9403 49.8332 57.9406 49.8277C57.9427 49.8008 57.9437 49.7739 57.9436 49.747C57.9433 49.6847 57.9384 49.6212 57.9288 49.559L57.9279 49.5527L57.926 49.5412L57.7596 48.5469C57.6751 48.0415 57.2988 47.6302 56.7267 47.4178L52.0978 45.6964L55.0584 43.987C56.0896 43.3917 56.6794 42.5108 56.6767 41.5704L56.6186 25.6456H56.6181C56.6151 24.7167 56.0334 23.8472 55.0207 23.2586L38.6705 13.757C37.7927 13.2468 36.6432 12.9659 35.4337 12.9659C34.2252 12.9659 33.0738 13.2463 32.1916 13.7556L31.2811 14.2813L28.6444 4.72104C28.5084 4.22794 28.1422 3.82399 27.6648 3.64047L27.5947 3.61352C27.4086 3.54193 27.2131 3.50563 27.0137 3.50563C26.7289 3.50563 26.4481 3.58115 26.2017 3.72405L25.0946 4.36604L24.5055 2.20538C24.3139 1.50282 23.6713 1.01212 22.9427 1.01203Z" fill="#374874"/>
</svg>
