<svg width="50" height="50" xmlns="http://www.w3.org/2000/svg"><g clip-path="url(#o_icon_website_forum__a)"><path d="M25 50c-3.069 0-6.008-.553-8.724-1.565C13.5 45.5 11.5 41.725 11.5 38c0-13.807 13.193-27 27-27 3.069 0 7 1.5 9.224 3.565A24.908 24.908 0 0 1 50 25v20.238A4.762 4.762 0 0 1 45.238 50H25Z" fill="var(--o-icons-red-pure, #FC787D)"/><path d="M25 50c-3.069 0-6.008-.553-8.724-1.565C13.5 45.5 11.5 41.725 11.5 38c0-13.807 13.193-27 27-27 3.069 0 7 1.5 9.224 3.565A24.908 24.908 0 0 1 50 25v20.238A4.762 4.762 0 0 1 45.238 50H25Z" fill="url(#o_icon_website_forum__b)" fill-opacity=".2"/><path d="M16.276 48.435a24.907 24.907 0 0 1-4.644-2.306C8.115 41.889 3.5 36.441 3.5 30.5c0-13.531 13.469-26 27-26 5.94 0 12 3.5 15.63 7.132a24.956 24.956 0 0 1 1.594 2.933A24.948 24.948 0 0 0 39 13c-13.807 0-25 11.193-25 25a24.9 24.9 0 0 0 2.276 10.435Z" fill="var(--o-icons-red-red, #F9383D)"/><path d="M16.276 48.435a24.907 24.907 0 0 1-4.644-2.306C8.115 41.889 3.5 36.441 3.5 30.5c0-13.531 13.469-26 27-26 5.94 0 12 3.5 15.63 7.132a24.956 24.956 0 0 1 1.594 2.933A24.948 24.948 0 0 0 39 13c-13.807 0-25 11.193-25 25a24.9 24.9 0 0 0 2.276 10.435Z" fill="url(#o_icon_website_forum__c)" fill-opacity=".2"/><path d="M46.13 11.632C41.697 4.641 33.89 0 25 0 11.193 0 0 11.193 0 25c0 8.89 4.64 16.697 11.632 21.13A24.4 24.4 0 0 1 6 30.5C6 16.969 16.969 6 30.5 6a24.4 24.4 0 0 1 15.63 5.632Z" fill="var(--o-icons-purple-red, #911E3D)"/><path d="M46.13 11.632C41.697 4.641 33.89 0 25 0 11.193 0 0 11.193 0 25c0 8.89 4.64 16.697 11.632 21.13A24.4 24.4 0 0 1 6 30.5C6 16.969 16.969 6 30.5 6a24.4 24.4 0 0 1 15.63 5.632Z" fill="url(#o_icon_website_forum__d)" fill-opacity=".2"/></g><defs><linearGradient id="o_icon_website_forum__b" x1="11.5" y1="11" x2="56.862" y2="22.195" gradientUnits="userSpaceOnUse"><stop stop-color="#fff"/><stop offset="1" stop-color="#fff" stop-opacity="0"/></linearGradient><linearGradient id="o_icon_website_forum__c" x1="3.5" y1="4.5" x2="55.488" y2="17.583" gradientUnits="userSpaceOnUse"><stop stop-color="#fff"/><stop offset="1" stop-color="#fff" stop-opacity="0"/></linearGradient><linearGradient id="o_icon_website_forum__d" x1="0" y1="0" x2="54.27" y2="13.568" gradientUnits="userSpaceOnUse"><stop stop-color="#fff"/><stop offset="1" stop-color="#fff" stop-opacity="0"/></linearGradient><clipPath id="o_icon_website_forum__a"><path fill="var(--o-icons-white, #FFFFFF)" d="M0 0h50v50H0z"/></clipPath></defs></svg>
