<svg fill="none" height="512" viewBox="0 0 20 20" width="512" xmlns="http://www.w3.org/2000/svg"><path d="m19 11h-18c-.265216 0-.51957-.1054-.707107-.2929-.187536-.1875-.292893-.4419-.292893-.7071 0-.26522.105357-.51957.292893-.70711.187537-.18753.441891-.29289.707107-.29289h18c.2652 0 .5196.10536.7071.29289.1875.18754.2929.44189.2929.70711 0 .2652-.1054.5196-.2929.7071s-.4419.2929-.7071.2929zm0-7h-18c-.265216 0-.51957-.10536-.707107-.29289-.187536-.18754-.292893-.44189-.292893-.70711s.105357-.51957.292893-.70711c.187537-.18753.441891-.29289.707107-.29289h18c.2652 0 .5196.10536.7071.29289.1875.18754.2929.44189.2929.70711s-.1054.51957-.2929.70711c-.1875.18753-.4419.29289-.7071.29289zm0 14h-18c-.265216 0-.51957-.1054-.707107-.2929-.187536-.1875-.292893-.4419-.292893-.7071s.105357-.5196.292893-.7071c.187537-.1875.441891-.2929.707107-.2929h18c.2652 0 .5196.1054.7071.2929s.2929.4419.2929.7071-.1054.5196-.2929.7071-.4419.2929-.7071.2929z" fill="rgb(0,0,0)"/></svg>