<svg width="20" height="21" viewBox="0 0 20 21" fill="none" xmlns="http://www.w3.org/2000/svg">
<path d="M3.33301 3.86035H7.5C7.80803 3.86035 8.10416 3.98337 8.32324 4.2041C8.54248 4.42509 8.66699 4.7258 8.66699 5.04004V19.3203C8.66691 19.6344 8.54241 19.9353 8.32324 20.1562C8.10417 20.3769 7.80795 20.5 7.5 20.5H3.33301C3.0251 20.4999 2.72877 20.3769 2.50977 20.1562C2.2906 19.9353 2.16707 19.6344 2.16699 19.3203V5.04004C2.16699 4.7258 2.29053 4.42509 2.50977 4.2041C2.72879 3.98335 3.02502 3.86044 3.33301 3.86035ZM12.5 3.86035H16.667C16.975 3.86044 17.2712 3.98335 17.4902 4.2041C17.7095 4.42509 17.833 4.7258 17.833 5.04004V15.1201C17.833 15.4343 17.7094 15.7351 17.4902 15.9561C17.2712 16.1768 16.9749 16.2997 16.667 16.2998H12.5C12.192 16.2998 11.8958 16.1767 11.6768 15.9561C11.4575 15.7351 11.333 15.4343 11.333 15.1201V5.04004C11.333 4.7258 11.4575 4.42509 11.6768 4.2041C11.8958 3.98337 12.192 3.86035 12.5 3.86035ZM0.833008 0.5H19.167C19.254 0.500087 19.3386 0.535385 19.4014 0.598633C19.464 0.66202 19.5 0.748655 19.5 0.839844C19.5 0.931251 19.4643 1.01858 19.4014 1.08203C19.3386 1.14528 19.254 1.1796 19.167 1.17969H0.833008C0.74601 1.1796 0.661379 1.14528 0.598633 1.08203C0.535735 1.01858 0.5 0.931249 0.5 0.839844C0.500041 0.748656 0.535976 0.66202 0.598633 0.598633C0.661379 0.535384 0.74601 0.500087 0.833008 0.5Z" stroke="white"/>
</svg>
