<svg width="51" height="51" viewBox="0 0 51 51" fill="none" xmlns="http://www.w3.org/2000/svg">
<foreignObject x="-2" y="-6" width="55" height="57"><div xmlns="http://www.w3.org/1999/xhtml" style="backdrop-filter:blur(4px);clip-path:url(#bgblur_0_42_758_clip_path);height:100%;width:100%"></div></foreignObject><g filter="url(#filter0_di_42_758)" data-figma-bg-blur-radius="8">
<mask id="path-1-inside-1_42_758" fill="white">
<path d="M45 21.5C45 32.2696 36.2696 41 25.5 41C14.7304 41 6 32.2696 6 21.5C6 10.7304 14.7304 2 25.5 2C36.2696 2 45 10.7304 45 21.5Z"/>
</mask>
<path d="M45 21.5C45 32.2696 36.2696 41 25.5 41C14.7304 41 6 32.2696 6 21.5C6 10.7304 14.7304 2 25.5 2C36.2696 2 45 10.7304 45 21.5Z" fill="url(#paint0_linear_42_758)" fill-opacity="0.8" shape-rendering="crispEdges"/>
<path d="M45 21.5C45 32.2696 36.2696 41 25.5 41C14.7304 41 6 32.2696 6 21.5C6 10.7304 14.7304 2 25.5 2C36.2696 2 45 10.7304 45 21.5Z" fill="url(#paint1_radial_42_758)" fill-opacity="0.3" style="mix-blend-mode:color-dodge" shape-rendering="crispEdges"/>
<path d="M45 21.5C45 32.2696 36.2696 41 25.5 41C14.7304 41 6 32.2696 6 21.5C6 10.7304 14.7304 2 25.5 2C36.2696 2 45 10.7304 45 21.5Z" fill="url(#paint2_radial_42_758)" style="mix-blend-mode:soft-light" shape-rendering="crispEdges"/>
<g clip-path="url(#paint3_angular_42_758_clip_path)" data-figma-skip-parse="true" mask="url(#path-1-inside-1_42_758)"><g transform="matrix(0.0210511 0.00476163 -0.00415015 0.0183805 25.5 22.6337)"><foreignObject x="-1328.08" y="-1328.08" width="2656.17" height="2656.17"><div xmlns="http://www.w3.org/1999/xhtml" style="background:conic-gradient(from 90deg,rgba(178, 178, 178, 0.5) 0deg,rgba(156, 156, 156, 0.5) 10.5206deg,rgba(156, 156, 156, 0.35) 32.1212deg,rgba(255, 255, 255, 0.5) 60.2813deg,rgba(255, 255, 255, 0.5) 107.788deg,rgba(156, 156, 156, 0.35) 187.591deg,rgba(249, 249, 249, 1) 207.58deg,rgba(255, 255, 255, 0.5) 287.308deg,rgba(249, 249, 249, 0.5) 327.047deg,rgba(178, 178, 178, 0.5) 360deg);height:100%;width:100%;opacity:1"></div></foreignObject></g></g><path d="M45 21.5H44.5C44.5 31.9934 35.9934 40.5 25.5 40.5V41V41.5C36.5457 41.5 45.5 32.5457 45.5 21.5H45ZM25.5 41V40.5C15.0066 40.5 6.5 31.9934 6.5 21.5H6H5.5C5.5 32.5457 14.4543 41.5 25.5 41.5V41ZM6 21.5H6.5C6.5 11.0066 15.0066 2.5 25.5 2.5V2V1.5C14.4543 1.5 5.5 10.4543 5.5 21.5H6ZM25.5 2V2.5C35.9934 2.5 44.5 11.0066 44.5 21.5H45H45.5C45.5 10.4543 36.5457 1.5 25.5 1.5V2Z" data-figma-gradient-fill="{&#34;type&#34;:&#34;GRADIENT_ANGULAR&#34;,&#34;stops&#34;:[{&#34;color&#34;:{&#34;r&#34;:0.61176472902297974,&#34;g&#34;:0.61176472902297974,&#34;b&#34;:0.61176472902297974,&#34;a&#34;:0.50},&#34;position&#34;:0.029223963618278503},{&#34;color&#34;:{&#34;r&#34;:0.61176472902297974,&#34;g&#34;:0.61176472902297974,&#34;b&#34;:0.61176472902297974,&#34;a&#34;:0.34999999403953552},&#34;position&#34;:0.089225620031356812},{&#34;color&#34;:{&#34;r&#34;:1.0,&#34;g&#34;:1.0,&#34;b&#34;:1.0,&#34;a&#34;:0.50},&#34;position&#34;:0.16744795441627502},{&#34;color&#34;:{&#34;r&#34;:1.0,&#34;g&#34;:1.0,&#34;b&#34;:1.0,&#34;a&#34;:0.50},&#34;position&#34;:0.29941025376319885},{&#34;color&#34;:{&#34;r&#34;:0.61343151330947876,&#34;g&#34;:0.61343151330947876,&#34;b&#34;:0.61343151330947876,&#34;a&#34;:0.34999999403953552},&#34;position&#34;:0.52108556032180786},{&#34;color&#34;:{&#34;r&#34;:0.97664386034011841,&#34;g&#34;:0.97664386034011841,&#34;b&#34;:0.97664386034011841,&#34;a&#34;:1.0},&#34;position&#34;:0.57661086320877075},{&#34;color&#34;:{&#34;r&#34;:1.0,&#34;g&#34;:1.0,&#34;b&#34;:1.0,&#34;a&#34;:0.50},&#34;position&#34;:0.79807692766189575},{&#34;color&#34;:{&#34;r&#34;:0.97647058963775635,&#34;g&#34;:0.97647058963775635,&#34;b&#34;:0.97647058963775635,&#34;a&#34;:0.50},&#34;position&#34;:0.90846514701843262}],&#34;stopsVar&#34;:[{&#34;color&#34;:{&#34;r&#34;:0.61176472902297974,&#34;g&#34;:0.61176472902297974,&#34;b&#34;:0.61176472902297974,&#34;a&#34;:0.50},&#34;position&#34;:0.029223963618278503},{&#34;color&#34;:{&#34;r&#34;:0.61176472902297974,&#34;g&#34;:0.61176472902297974,&#34;b&#34;:0.61176472902297974,&#34;a&#34;:0.34999999403953552},&#34;position&#34;:0.089225620031356812},{&#34;color&#34;:{&#34;r&#34;:1.0,&#34;g&#34;:1.0,&#34;b&#34;:1.0,&#34;a&#34;:0.50},&#34;position&#34;:0.16744795441627502},{&#34;color&#34;:{&#34;r&#34;:1.0,&#34;g&#34;:1.0,&#34;b&#34;:1.0,&#34;a&#34;:0.50},&#34;position&#34;:0.29941025376319885},{&#34;color&#34;:{&#34;r&#34;:0.61343151330947876,&#34;g&#34;:0.61343151330947876,&#34;b&#34;:0.61343151330947876,&#34;a&#34;:0.34999999403953552},&#34;position&#34;:0.52108556032180786},{&#34;color&#34;:{&#34;r&#34;:0.97664386034011841,&#34;g&#34;:0.97664386034011841,&#34;b&#34;:0.97664386034011841,&#34;a&#34;:1.0},&#34;position&#34;:0.57661086320877075},{&#34;color&#34;:{&#34;r&#34;:1.0,&#34;g&#34;:1.0,&#34;b&#34;:1.0,&#34;a&#34;:0.50},&#34;position&#34;:0.79807692766189575},{&#34;color&#34;:{&#34;r&#34;:0.97647058963775635,&#34;g&#34;:0.97647058963775635,&#34;b&#34;:0.97647058963775635,&#34;a&#34;:0.50},&#34;position&#34;:0.90846514701843262}],&#34;transform&#34;:{&#34;m00&#34;:42.102272033691406,&#34;m01&#34;:-8.3002977371215820,&#34;m02&#34;:8.5990133285522461,&#34;m10&#34;:9.523254394531250,&#34;m11&#34;:36.761066436767578,&#34;m12&#34;:-0.50843966007232666},&#34;opacity&#34;:1.0,&#34;blendMode&#34;:&#34;NORMAL&#34;,&#34;visible&#34;:true}" mask="url(#path-1-inside-1_42_758)"/>
</g>
<path d="M20.9395 14C20.9392 14.5305 20.7282 15.0391 20.353 15.4139C19.9777 15.7888 19.4689 15.9993 18.9385 15.999C18.408 15.9988 17.8994 15.7878 17.5245 15.4125C17.1496 15.0373 16.9392 14.5285 16.9395 13.998C16.9397 13.4676 17.1507 12.959 17.5259 12.5841C17.9012 12.2092 18.41 11.9988 18.9405 11.999C19.4709 11.9993 19.9795 12.2103 20.3544 12.5855C20.7293 12.9608 20.9397 13.4696 20.9395 14ZM20.9995 17.48H16.9995V30H20.9995V17.48ZM27.3195 17.48H23.3395V30H27.2795V23.43C27.2795 19.77 32.0495 19.43 32.0495 23.43V30H35.9995V22.07C35.9995 15.9 28.9395 16.13 27.2795 19.16L27.3195 17.48Z" fill="white"/>
<defs>
<filter id="filter0_di_42_758" x="-2" y="-6" width="55" height="57" filterUnits="userSpaceOnUse" color-interpolation-filters="sRGB">
<feFlood flood-opacity="0" result="BackgroundImageFix"/>
<feColorMatrix in="SourceAlpha" type="matrix" values="0 0 0 0 0 0 0 0 0 0 0 0 0 0 0 0 0 0 127 0" result="hardAlpha"/>
<feOffset dy="4"/>
<feGaussianBlur stdDeviation="3"/>
<feComposite in2="hardAlpha" operator="out"/>
<feColorMatrix type="matrix" values="0 0 0 0 0 0 0 0 0 0 0 0 0 0 0 0 0 0 0.12 0"/>
<feBlend mode="normal" in2="BackgroundImageFix" result="effect1_dropShadow_42_758"/>
<feBlend mode="normal" in="SourceGraphic" in2="effect1_dropShadow_42_758" result="shape"/>
<feColorMatrix in="SourceAlpha" type="matrix" values="0 0 0 0 0 0 0 0 0 0 0 0 0 0 0 0 0 0 127 0" result="hardAlpha"/>
<feOffset dy="3"/>
<feGaussianBlur stdDeviation="4"/>
<feComposite in2="hardAlpha" operator="arithmetic" k2="-1" k3="1"/>
<feColorMatrix type="matrix" values="0 0 0 0 1 0 0 0 0 1 0 0 0 0 1 0 0 0 0.5 0"/>
<feBlend mode="overlay" in2="shape" result="effect2_innerShadow_42_758"/>
</filter>
<clipPath id="bgblur_0_42_758_clip_path" transform="translate(2 6)"><path d="M45 21.5C45 32.2696 36.2696 41 25.5 41C14.7304 41 6 32.2696 6 21.5C6 10.7304 14.7304 2 25.5 2C36.2696 2 45 10.7304 45 21.5Z"/>
</clipPath><clipPath id="paint3_angular_42_758_clip_path"><path d="M45 21.5H44.5C44.5 31.9934 35.9934 40.5 25.5 40.5V41V41.5C36.5457 41.5 45.5 32.5457 45.5 21.5H45ZM25.5 41V40.5C15.0066 40.5 6.5 31.9934 6.5 21.5H6H5.5C5.5 32.5457 14.4543 41.5 25.5 41.5V41ZM6 21.5H6.5C6.5 11.0066 15.0066 2.5 25.5 2.5V2V1.5C14.4543 1.5 5.5 10.4543 5.5 21.5H6ZM25.5 2V2.5C35.9934 2.5 44.5 11.0066 44.5 21.5H45H45.5C45.5 10.4543 36.5457 1.5 25.5 1.5V2Z" mask="url(#path-1-inside-1_42_758)"/></clipPath><linearGradient id="paint0_linear_42_758" x1="25.5" y1="41" x2="31.5" y2="5" gradientUnits="userSpaceOnUse">
<stop stop-color="#C4C7CF" stop-opacity="0.58"/>
<stop offset="1" stop-color="#424345"/>
</linearGradient>
<radialGradient id="paint1_radial_42_758" cx="0" cy="0" r="1" gradientUnits="userSpaceOnUse" gradientTransform="translate(25.5 44) rotate(-90) scale(30.75)">
<stop stop-color="#5D6E9A"/>
<stop offset="1" stop-color="#5D6E9A" stop-opacity="0"/>
</radialGradient>
<radialGradient id="paint2_radial_42_758" cx="0" cy="0" r="1" gradientUnits="userSpaceOnUse" gradientTransform="translate(25.5 43.25) rotate(-90) scale(14.25)">
<stop stop-color="white"/>
<stop offset="1" stop-color="white" stop-opacity="0"/>
</radialGradient>
</defs>
</svg>
