<svg xmlns="http://www.w3.org/2000/svg" xmlns:xlink="http://www.w3.org/1999/xlink" width="70" height="70" viewBox="0 0 70 70">
    <defs>
        <path id="icon-a" d="M4 0h61c4 0 5 1 5 5v60c0 4-1 5-5 5H4c-3 0-4-1-4-5V5c0-4 1-5 4-5z"/>
        <linearGradient id="icon-c" x1="98.162%" x2="0%" y1="1.838%" y2="100%">
            <stop offset="0%" stop-color="#797DA5"/>
            <stop offset="50.799%" stop-color="#6D7194"/>
            <stop offset="100%" stop-color="#626584"/>
        </linearGradient>
        <path id="icon-d" d="M56.583 23.333h-3.5c-.518 0-.983.226-1.304.584h-1.715l-2.27-2.647-.012-.013a7.581 7.581 0 0 0-5.707-2.59h-3.394c-1.294 0-2.545.36-3.623 1.021a8.19 8.19 0 0 0-3.95-1.021h-2.342c-2.107 0-4.2.818-5.775 2.391l-2.857 2.859H18.22a1.745 1.745 0 0 0-1.304-.584h-3.5a1.75 1.75 0 0 0-1.75 1.75v17.5c0 .967.783 1.75 1.75 1.75h3.5a1.75 1.75 0 0 0 1.65-1.166h1.37l5.495 4.927c1.862 1.928 4.37 3.24 7.042 3.24 1.195 0 2.354-.281 3.362-.798 1.818.037 3.726-.756 5.036-2.29a7.109 7.109 0 0 0 3.698-2.523c1.53-.32 2.97-1.202 3.896-2.556h2.967a1.75 1.75 0 0 0 1.65 1.166h3.5a1.75 1.75 0 0 0 1.75-1.75v-17.5a1.75 1.75 0 0 0-1.75-1.75zM15.167 42a1.167 1.167 0 1 1 0-2.333 1.167 1.167 0 0 1 0 2.333zm30.08-.42c-1.12 1.042-2.69.826-2.914.583.103.976-1.331 2.993-3.579 2.835-.404 1.351-2.057 2.467-3.754 1.878-.648.648-1.638.957-2.526.957-1.82 0-3.483-1.06-4.604-2.254l-5.928-5.316a2.332 2.332 0 0 0-1.557-.596h-1.718v-12.25h1.95c.619 0 1.212-.246 1.65-.684l3.2-3.2a4.667 4.667 0 0 1 3.3-1.366h2.34c.424 0 .84.057 1.24.167l-3.155 3.682a5.376 5.376 0 0 0-.048 6.96c2.362 2.833 6.663 2.86 9.077.143l1.894-2.193 5.282 6.99c.98 1.065.799 2.781-.15 3.664zm6.086-1.913H49.55a5.985 5.985 0 0 0-1.441-3.967l-5.693-7.534a1.752 1.752 0 0 0-2.907-1.894l-3.911 4.53a2.49 2.49 0 0 1-3.765-.068 1.885 1.885 0 0 1 .016-2.44l4.224-4.928a3.434 3.434 0 0 1 2.608-1.2h3.394c1.175 0 2.293.507 3.068 1.389l3.312 3.862h2.878v12.25zm3.5 2.333a1.167 1.167 0 1 1 0-2.333 1.167 1.167 0 0 1 0 2.333z"/>
    </defs>
    <g fill="none" fill-rule="evenodd">
        <mask id="icon-b" fill="#fff">
            <use xlink:href="#icon-a"/>
        </mask>
        <g mask="url(#icon-b)">
            <path fill="url(#icon-c)" d="M0 0H70V70H0z"/>
            <path fill="#FFF" fill-opacity=".383" d="M4 1h61c2.667 0 4.333.667 5 2V0H0v3c.667-1.333 2-2 4-2z"/>
            <path fill="#000" d="M33.423 69H4.006C2.003 69 0 68.854 0 64.911V38.065l12.348-13.998 8.686.293L29.375 21h14.023l6.01 4.089L58 24.36v19.558L33.423 69z" opacity=".165"/>
            <path fill="#000" fill-opacity=".383" d="M4 69h61c2.667 0 4.333-1 5-3v4H0v-4c.667 2 2 3 4 3z"/>
            <path fill="#000" fill-rule="nonzero" d="M56.583 25.333h-3.5c-.518 0-.983.226-1.304.584h-1.715l-2.27-2.647-.012-.013a7.581 7.581 0 0 0-5.707-2.59h-3.394c-1.294 0-2.545.36-3.623 1.021a8.19 8.19 0 0 0-3.95-1.021h-2.342c-2.107 0-4.2.818-5.775 2.391l-2.857 2.859H18.22a1.745 1.745 0 0 0-1.304-.584h-3.5a1.75 1.75 0 0 0-1.75 1.75v17.5c0 .967.783 1.75 1.75 1.75h3.5a1.75 1.75 0 0 0 1.65-1.166h1.37l5.495 4.927c1.862 1.928 4.37 3.24 7.042 3.24 1.195 0 2.354-.281 3.362-.798 1.818.037 3.726-.756 5.036-2.29a7.109 7.109 0 0 0 3.698-2.523c1.53-.32 2.97-1.202 3.896-2.556h2.967a1.75 1.75 0 0 0 1.65 1.166h3.5a1.75 1.75 0 0 0 1.75-1.75v-17.5a1.75 1.75 0 0 0-1.75-1.75zM15.167 44a1.167 1.167 0 1 1 0-2.333 1.167 1.167 0 0 1 0 2.333zm30.08-.42c-1.12 1.042-2.69.826-2.914.583.103.976-1.331 2.993-3.579 2.835-.404 1.351-2.057 2.467-3.754 1.878-.648.648-1.638.957-2.526.957-1.82 0-3.483-1.06-4.604-2.254l-5.928-5.316a2.332 2.332 0 0 0-1.557-.596h-1.718v-12.25h1.95c.619 0 1.212-.246 1.65-.684l3.2-3.2a4.667 4.667 0 0 1 3.3-1.366h2.34c.424 0 .84.057 1.24.167l-3.155 3.682a5.376 5.376 0 0 0-.048 6.96c2.362 2.833 6.663 2.86 9.077.143l1.894-2.193 5.282 6.99c.98 1.065.799 2.781-.15 3.664zm6.086-1.913H49.55a5.985 5.985 0 0 0-1.441-3.967l-5.693-7.534a1.752 1.752 0 0 0-2.907-1.894l-3.911 4.53a2.49 2.49 0 0 1-3.765-.068 1.885 1.885 0 0 1 .016-2.44l4.224-4.928a3.434 3.434 0 0 1 2.608-1.2h3.394c1.175 0 2.293.507 3.068 1.389l3.312 3.862h2.878v12.25zm3.5 2.333a1.167 1.167 0 1 1 0-2.333 1.167 1.167 0 0 1 0 2.333z" opacity=".372"/>
            <use fill="#FFF" fill-rule="nonzero" xlink:href="#icon-d"/>
        </g>
    </g>
</svg>
