<svg width="70" height="70" viewBox="0 0 70 70" fill="none" xmlns="http://www.w3.org/2000/svg">
<path d="M55.8726 19C59.3929 19.0414 61.3764 23.4739 58.885 25.9639L50.4613 34.3828L46.4995 36.9995L34.9993 19.0006L55.8726 19Z" fill="#985184"/>
<path d="M20.9445 35.7881C19.3919 37.3398 19.3919 39.8556 20.9445 41.4073L29.3781 49.8361C30.9307 51.3878 33.4479 51.3878 35.0005 49.8361L33.4995 46L24.9995 37L20.9445 35.7881Z" fill="#985184"/>
<path d="M11.1141 25.9643C8.62264 23.4743 10.6078 19.0414 14.1281 19L35.0001 19.0004L50.4611 34.3832C52.0137 35.9349 52.0137 38.4507 50.4611 40.0024L40.6219 49.8359C39.0694 51.3876 36.5521 51.3876 34.9995 49.8359L11.1141 25.9643Z" fill="#1AD3BB"/>
<path d="M34.9992 49.8358C36.5518 48.2841 36.5518 45.7683 34.9992 44.2166L26.5655 35.7878C25.0129 34.2361 22.4957 34.2361 20.9431 35.7878L34.9992 49.8358Z" fill="#005E7A"/>
<path d="M27.6202 26.3056L34.9996 19L44.1361 28.0616C41.8072 25.7341 38.0313 25.7341 35.7024 28.0616L32.5398 31.2224C31.1813 32.5802 28.9787 32.5802 27.6202 31.2224C26.2617 29.8647 26.2617 27.6634 27.6202 26.3056Z" fill="#005E7A"/>
</svg>
