<svg xmlns="http://www.w3.org/2000/svg" xmlns:xlink="http://www.w3.org/1999/xlink" width="70" height="70" viewBox="0 0 70 70"><defs><path id="a" d="M4 0h61c4 0 5 1 5 5v60c0 4-1 5-5 5H4c-3 0-4-1-4-5V5c0-4 1-5 4-5z"/><linearGradient id="c" x1="100%" x2="0%" y1="0%" y2="100%"><stop offset="0%" stop-color="#B06161"/><stop offset="45.785%" stop-color="#984E4E"/><stop offset="100%" stop-color="#7C3838"/></linearGradient></defs><g fill="none" fill-rule="evenodd"><mask id="b" fill="#fff"><use xlink:href="#a"/></mask><g mask="url(#b)"><path fill="url(#c)" d="M0 0H70V70H0z"/><path fill="#FFF" fill-opacity=".383" d="M4 1h61c2.667 0 4.333.667 5 2V0H0v3c.667-1.333 2-2 4-2z"/><path fill="#393939" d="M44.5 69H4c-2 0-4-1-4-4V37.061L13.363 19H40l3 6-4.495 6.88L53.393 35l-5.208 6.243 10.564 8.238L44.5 69z" opacity=".324"/><path fill="#000" fill-opacity=".383" d="M4 69h61c2.667 0 4.333-1 5-3v4H0v-4c.667 2 2 3 4 3z"/><path fill="#000" d="M33.875 44H15a2 2 0 0 1-2-2V22a2 2 0 0 1 2-2h26a2 2 0 0 1 2 2v4.865a7.499 7.499 0 0 0-4 6.635c0 1.946.74 3.718 1.956 5.051a4.099 4.099 0 0 0-.387-.021c-2.049 0-1.256-.22-3.073-2.05-3.187 1.066-6.105 4.876-6.105 5.55.625.317 1.453.973 2.484 1.97zM43 43.132c2.348-1.51 8.09-1.51 10.439 0 1.565 1.007 3.392 3.775 5.48 8.304-1.549 1.77-2.593 2.525-3.132 2.265-1.044-1.51-1.826-2.768-2.348-3.775v5.284c-3.653 1.007-7.306 1.007-10.96 0v-5.284C38.16 45.976 35.334 43.666 34 43c0-.573 0-1 1-2 .667-.667 1.667-1.333 3-2 1.768 3.761 3.434 5.139 5 4.132zm4.74.868l-1.13 4.578 1.695 2.29L50 48.578 48.87 44h-1.13zM22 51l6-7 6 7h-2l-4-5-4 5h-2zm6-31v-2 2zm19.5 21a6.5 6.5 0 1 1 0-13 6.5 6.5 0 0 1 0 13z" opacity=".3"/><path fill="#FFF" d="M33.875 42H15a2 2 0 0 1-2-2V20a2 2 0 0 1 2-2h26a2 2 0 0 1 2 2v4.865a7.499 7.499 0 0 0-4 6.635c0 1.946.74 3.718 1.956 5.051a4.099 4.099 0 0 0-.387-.021c-2.049 0-1.256-.22-3.073-2.05-3.187 1.066-6.105 4.876-6.105 5.55.625.317 1.453.973 2.484 1.97zM43 41.132c2.348-1.51 8.09-1.51 10.439 0 1.565 1.007 3.392 3.775 5.48 8.304-1.549 1.77-2.593 2.525-3.132 2.265-1.044-1.51-1.826-2.768-2.348-3.775v5.284c-3.653 1.007-7.306 1.007-10.96 0v-5.284C38.16 43.976 35.334 41.666 34 41c0-.573 0-1 1-2 .667-.667 1.667-1.333 3-2 1.768 3.761 3.434 5.139 5 4.132zm4.74.868l-1.13 4.578 1.695 2.29L50 46.578 48.87 42h-1.13zM22 49l6-7 6 7h-2l-4-5-4 5h-2zm6-31v-2 2zm19.5 21a6.5 6.5 0 1 1 0-13 6.5 6.5 0 0 1 0 13z"/></g></g></svg>