<svg width="50" height="50" xmlns="http://www.w3.org/2000/svg"><path d="M41.413 29.672C41.413 38.69 34.065 46 25.001 46c-9.065 0-16.413-7.31-16.413-16.328 0-9.017 7.348-16.327 16.413-16.327 9.064 0 16.412 7.31 16.412 16.327Z" fill="var(--o-icons-teal-pure, #00CEB3)"/><path d="M41.413 29.672C41.413 38.69 34.065 46 25.001 46c-9.065 0-16.413-7.31-16.413-16.328 0-9.017 7.348-16.327 16.413-16.327 9.064 0 16.412 7.31 16.412 16.327Z" fill="url(#o_icon_website_slides__a)" fill-opacity=".2"/><path d="M22.637 5.551a5.337 5.337 0 0 1 4.726 0L50 16.921 27.363 28.288a5.337 5.337 0 0 1-4.726 0L0 16.92 22.637 5.551Z" fill="var(--o-icons-purple-pure, #93407D)"/><path d="M22.637 5.551a5.337 5.337 0 0 1 4.726 0L50 16.921 27.363 28.288a5.337 5.337 0 0 1-4.726 0L0 16.92 22.637 5.551Z" fill="url(#o_icon_website_slides__b)" fill-opacity=".2"/><path d="M39.574 22.157 27.363 28.29a5.336 5.336 0 0 1-4.725 0l-12.212-6.134A16.422 16.422 0 0 1 25 13.345a16.42 16.42 0 0 1 14.574 8.812Z" fill="var(--o-icons-purple-teal, #003458)"/><path d="M39.574 22.157 27.363 28.29a5.336 5.336 0 0 1-4.725 0l-12.212-6.134A16.422 16.422 0 0 1 25 13.345a16.42 16.42 0 0 1 14.574 8.812Z" fill="url(#o_icon_website_slides__c)" fill-opacity=".3"/><defs><linearGradient id="o_icon_website_slides__a" x1="8.588" y1="13.345" x2="47.182" y2="23.044" gradientUnits="userSpaceOnUse"><stop stop-color="#fff"/><stop offset="1" stop-color="#fff" stop-opacity="0"/></linearGradient><linearGradient id="o_icon_website_slides__b" x1="0" y1="5" x2="49.023" y2="30.704" gradientUnits="userSpaceOnUse"><stop stop-color="#fff"/><stop offset="1" stop-color="#fff" stop-opacity="0"/></linearGradient><linearGradient id="o_icon_website_slides__c" x1="10.426" y1="13.345" x2="40.263" y2="27.376" gradientUnits="userSpaceOnUse"><stop stop-color="#fff"/><stop offset="1" stop-color="#fff" stop-opacity="0"/></linearGradient></defs></svg>
