<svg width="70" height="70" viewBox="0 0 70 70" fill="none" xmlns="http://www.w3.org/2000/svg">
<path d="M51.4132 39.6723C51.4132 48.6898 44.065 56 35.0005 56C25.9361 56 18.5879 48.6898 18.5879 39.6723C18.5879 30.6549 25.9361 23.3447 35.0005 23.3447C44.065 23.3447 51.4132 30.6549 51.4132 39.6723Z" fill="#1AD3BB"/>
<path d="M32.6375 15.5514C34.1014 14.8162 35.8986 14.8162 37.3626 15.5514L60 26.9203L37.3626 38.2893C35.8986 39.0245 34.1014 39.0245 32.6375 38.2893L10 26.9203L32.6375 15.5514Z" fill="#985184"/>
<path d="M49.5741 32.1566L37.3629 38.2893C35.8989 39.0245 34.1017 39.0245 32.6378 38.2893L20.4258 32.1562C23.1595 26.9209 28.6599 23.3447 34.9999 23.3447C41.34 23.3447 46.8405 26.9211 49.5741 32.1566Z" fill="#005E7A"/>
</svg>
