<svg width="400" height="400" viewBox="0 0 400 400" fill="none" xmlns="http://www.w3.org/2000/svg">
<g clip-path="url(#clip0_7_41)">
<path d="M372 0H28C12.536 0 0 12.536 0 28V372C0 387.464 12.536 400 28 400H372C387.464 400 400 387.464 400 372V28C400 12.536 387.464 0 372 0Z" fill="black"/>
<path fill-rule="evenodd" clip-rule="evenodd" d="M275.124 80H315.453L227.356 181.227L331 319H249.833L186.264 235.446L113.546 319H73.2162L167.453 210.72L68 80H151.205L208.658 156.371L275.124 80ZM260.967 294.734H283.315L139.075 102.998H115.093L260.967 294.734Z" fill="white"/>
</g>
<defs>
<clipPath id="clip0_7_41">
<rect width="400" height="400" fill="white"/>
</clipPath>
</defs>
</svg>
