<?xml version="1.0" encoding="UTF-8"?><svg id="b" xmlns="http://www.w3.org/2000/svg" viewBox="0 0 280 280"><g id="bj"><path d="m93.4749,126.9205l-.1958-.0257c-.6471-.1803-1.254-.0263-2.1213.4745-2.1503,1.2414-3.8933,4.2604-3.8933,6.7433,0,.9918.064,1.4584.5352,1.9299l.2183.2902s1.156,1.3363,3.5695,2.2821l4.3385-3.7747,1.4356-5.5608s-1.4341-2.0292-3.8867-2.3588Z" style="fill:#fff;"/><path d="m98.2111,131.5877c0,2.4828-1.7432,5.5019-3.8933,6.7433-2.1501,1.2414-3.8931.2351-3.8931-2.2477s1.743-5.5019,3.8931-6.7433c2.1501-1.2414,3.8933-.235,3.8933,2.2477Z" style="fill:#fbdbd0;"/><path d="m99.4755,139.2945l-4.6807-2.6243c-1.0598-.5941-1.4372-1.9349-.8432-2.9945h0c.594-1.06,1.9351-1.4377,2.9949-.8434l4.6807,2.6245c1.0598.5941,1.4372,1.9347.8432,2.9945h0c-.594,1.06-1.9351,1.4375-2.9949.8432Z" style="fill:#374874;"/><path d="m248.0233,56.0553l-101.911,58.8384-42.7053,24.6559-59.4176,34.3048-2.1803,1.2588-6.4137,3.7028c-7.0082-3.0926-14.7514-5.6074-23.0352-7.4277-.5737-.126-1.0403.2983-.6063.5489l10.0517,5.8033c.1868.1078.223.2753.0875.4063l-5.7842,5.6035c-.1354.1312-.0993.2985.0877.4065l30.323,17.507c.0385.017.0765.0342.115.0514l33.422,11.3894c6.3072,2.1494,13.9064,2.6374,20.8779,1.3407.4002-.0744.5202-.3741.223-.5458-4.6262-2.6708-32.5382-18.7859-34.9461-20.176-.1082-.0626-.2516-.0956-.4048-.0956h-3.3318c-.1414-.034-.2668-.0638-.4083-.0978l-5.2283-3.0184c-.9939-.5739-.9939-1.5042,0-2.0781l7.1964-4.1548c.9937-.5739,2.6052-.5739,3.5991,0h.0002c.9937.5739,2.6051.5739,3.599,0l51.2248-29.5746c.9937-.5739.9937-1.5042,0-2.0779l-.0002-.0002c-.9937-.5737-.9937-1.504,0-2.0779l144.6163-83.4943c.9961-.575.9962-1.5075.0002-2.0825l-15.4439-8.9164c-.996-.575-2.6109-.575-3.607,0Z" style="fill:#fff;"/><path d="m130.8221,123.8797l-6.7716-3.9095c-.4396-.2539-1.1046-.2817-1.4855-.0615l-69.6382,40.2056c-.0049.0029-.0058.0068-.0106.0098l-8.3384,4.9258c-.2271.0781-.517.0576-.7039-.0503l-10.0515-5.8037c-.434-.2505-1.1688.019-.9504.3501,3.1525,4.7827,8.7085,10.5961,14.0653,14.642l83.0849-49.8391c.3806-.2202,1.2395-.2152.8-.4691Z" style="fill:#fff;"/><path d="m76.1934,174.2259l10.2162,5.8983c.354.2044.5528.4815.5528.7704v1.2973c.1915.267.3611.5035.5526.7704l32.9658,19.0327c1.0279.5936,2.8279.3227,3.1473-.4962,1.4264-3.6568.3982-7.5098-2.9309-10.7663l-14.7263-14.4047h0c-2.9437-2.8793-2.1391-6.5437,1.9557-8.9079l28.224-16.2952c2.4865-1.4356,6.0711-2.0383,9.5038-1.5977h0c3.4327.4405,7.0173-.1621,9.5038-1.5977h0c4.7217-2.7261,4.7217-7.146,0-9.8719l-8.1594-4.7108c-.5114-.2954-1.3407-.2954-1.8522,0l-68.9533,39.8101c-.5114.2952-.5114.774,0,1.0693Z" style="fill:#fff;"/><path d="m101.3006,214.0414c-6.9714,1.2969-14.9367,1.2126-21.2439-.9368l-33.422-11.3892c-.0385-.0171-.0765-.0347-.1149-.0513l-30.323-17.5073c-.187-.1079-.2231-.2754-.0877-.4067,0,0-.0815.0502-.1042.0639-.2799.169-.266,3.5015.046,4.1171l29.9329,17.4269,33.7267,11.5278c4.0947,1.3945,8.723,2.1084,13.3778,2.1084,2.7047,0,5.4189-.2402,8.0425-.7295.8984-.166.5701-4.2976.1699-4.2234Z" style="fill:#c1dbf6;"/><path d="m21.8057,177.7404l-10.1267-6.2185-.1926.1122.0973,3.5834c.0065.1847.0991.3556.2503.462l7.6999,4.7533,2.3594-2.2861c.1354-.1309.0993-.2983-.0876-.4062Z" style="fill:#c1dbf6;"/><path d="m122.9941,154.462c-.0602-.0356-.0953-.0576-.1299-.0762-.1109.1133-.2393.2222-.4062.3184l-51.2249,29.5747c-.9939.5737-2.6053.5737-3.5991,0h-.0002c-.994-.5737-2.6053-.5737-3.5991,0l-7.1964,4.1548c-.9939.5737-.9939,1.5044,0,2.0781l1.6682.9629,6.0644-3.501c.6637-.3843,1.8678-.3828,2.5259,0,1.3326.7671,3.3401.7671,4.6729,0l51.2243-29.5752c.8144-.4707,1.2825-1.187,1.2825-1.9683,0-.7808-.4681-1.4976-1.2825-1.9683Z" style="fill:#fbdbd0;"/><path d="m267.8211,66.0129c0,.3769-.2491.7538-.7472,1.0414l-143.8614,83.0583c-.8769.5063-1.2077,1.6079-.7549,2.5135l.0002.0005c.7568.437.9333,1.0796.5374,1.6152,0,0,136.3199-78.7261,144.5023-83.4705.2414-.14.3816-.3905.3781-.6695-.0148-1.2017-.0546-4.3955-.0547-4.0889Z" style="fill:#fbdbd0;"/><line x1="56.0995" y1="174.1879" x2="68.2703" y2="181.2161" style="fill:none; stroke:#374874; stroke-linecap:round; stroke-linejoin:round; stroke-width:2px;"/><line x1="71.8662" y1="167.404" x2="82.0295" y2="173.2714" style="fill:none; stroke:#374874; stroke-linecap:round; stroke-linejoin:round; stroke-width:2px;"/><line x1="83.6166" y1="158.3009" x2="95.7887" y2="165.3281" style="fill:none; stroke:#374874; stroke-linecap:round; stroke-linejoin:round; stroke-width:2px;"/><line x1="99.3847" y1="151.5171" x2="109.5465" y2="157.3845" style="fill:none; stroke:#374874; stroke-linecap:round; stroke-linejoin:round; stroke-width:2px;"/><line x1="111.1348" y1="142.4142" x2="123.3056" y2="149.4412" style="fill:none; stroke:#374874; stroke-linecap:round; stroke-linejoin:round; stroke-width:2px;"/><line x1="126.9029" y1="135.6304" x2="137.0648" y2="141.4978" style="fill:none; stroke:#374874; stroke-linecap:round; stroke-linejoin:round; stroke-width:2px;"/><line x1="139.6518" y1="126.526" x2="148.824" y2="131.5529" style="fill:none; stroke:#374874; stroke-linecap:round; stroke-linejoin:round; stroke-width:2px;"/><line x1="154.4199" y1="119.7421" x2="162.5832" y2="124.6095" style="fill:none; stroke:#374874; stroke-linecap:round; stroke-linejoin:round; stroke-width:2px;"/><line x1="167.1703" y1="111.639" x2="176.341" y2="116.6662" style="fill:none; stroke:#374874; stroke-linecap:round; stroke-linejoin:round; stroke-width:2px;"/><line x1="180.9383" y1="103.8552" x2="190.1002" y2="108.7226" style="fill:none; stroke:#374874; stroke-linecap:round; stroke-linejoin:round; stroke-width:2px;"/><line x1="194.1931" y1="95.8306" x2="203.355" y2="100.698" style="fill:none; stroke:#374874; stroke-linecap:round; stroke-linejoin:round; stroke-width:2px;"/><line x1="208.4479" y1="87.8061" x2="217.6098" y2="92.6735" style="fill:none; stroke:#374874; stroke-linecap:round; stroke-linejoin:round; stroke-width:2px;"/><line x1="222.7026" y1="79.7815" x2="231.8645" y2="84.6489" style="fill:none; stroke:#374874; stroke-linecap:round; stroke-linejoin:round; stroke-width:2px;"/><line x1="236.9574" y1="71.7569" x2="246.1193" y2="76.6244" style="fill:none; stroke:#374874; stroke-linecap:round; stroke-linejoin:round; stroke-width:2px;"/><line x1="250.2122" y1="63.7324" x2="259.374" y2="68.5998" style="fill:none; stroke:#374874; stroke-linecap:round; stroke-linejoin:round; stroke-width:2px;"/><path d="m124.1959,199.1852c-.085.7749-.2695,1.5483-.5679,2.3135-.3194.8188-2.1194,1.0898-3.1473.4961l-32.9658-19.0327c-.1915-.2666-.3611-.5029-.5526-.77v-1.2974c0-.2891-.1989-.5659-.5528-.7705l-10.2162-5.8984c-.4985-.2876-.5024-.7471-.0291-1.0439l-.3546.1982c-.2347.1357-.1771-.0942-.1771,2.2065,0,1.8516.5099,2.3599.8927,2.5806l9.3082,5.4087v1.4624l.8884,1.2393,32.3416,19.4937c.5283.3047,1.203.4624,1.882.4624.4595,0,.922-.0723,1.3425-.2192.7166-.2515,1.2335-.7056,1.4584-1.2783.6379-1.6362.3085-2.3042.4496-5.5508Z" style="fill:#c1dbf6;"/><path d="m155.1582,147.9293c-2.4865,1.4355-6.071,2.0381-9.5038,1.5977-3.4327-.4404-7.0173.1621-9.5038,1.5977l-28.224,16.2954c-3.7117,2.1426-4.7093,5.3525-2.6731,8.0791-.033-.2632-.0373-.5269-.0043-.79.1789-1.4155,1.2992-2.7856,3.1573-3.8584l28.2252-16.2949c2.2674-1.3091,5.6495-1.8706,8.8306-1.4629,3.6783.4722,7.4781-.1748,10.1758-1.7324.5372-.3101,1.0338-.6632,1.4881-1.0507,1.0265-.8758,1.5692-2.1935,1.5692-3.5428v-3.7258c-.0209,1.7705-1.1976,3.5371-3.5373,4.8882Z" style="fill:#fbdbd0;"/><path d="m76.1934,174.2259l10.2162,5.8983c.354.2044.5528.4815.5528.7704v1.2973c.1915.267.3611.5035.5526.7704l32.9658,19.0327c1.0279.5936,2.8279.3227,3.1473-.4962,1.4264-3.6568.3982-7.5098-2.9309-10.7663l-14.7263-14.4047h0c-2.9437-2.8793-2.1391-6.5437,1.9557-8.9079l28.224-16.2952c2.4865-1.4356,6.0711-2.0383,9.5038-1.5977h0c3.4327.4405,7.0173-.1621,9.5038-1.5977h0c4.7217-2.7261,4.7217-7.146,0-9.8719l-8.1594-4.7108c-.5114-.2954-1.3407-.2954-1.8522,0l-68.9533,39.8101c-.5114.2952-.5114.774,0,1.0693Z" style="fill:#fff;"/><polygon points="54.4723 159.2218 53.293 159.8815 53.1805 159.9679 54.4723 159.2218" style="fill:#374874;"/><path d="m249.8269,55.6235c.6527,0,1.3055.144,1.8035.4316l15.4439,8.9165c.498.2871.7469.6641.7469,1.041,0-.0142,0-.0205.0002-.0205.0033,0,.0402,2.9624.0544,4.1094.0035.2793-.1367.5298-.3781.6694-5.7081,3.3101-73.7654,42.6177-114.4094,66.0913l2.0699,1.1948c2.382,1.3755,3.5587,3.1816,3.5373,4.9839v3.7256c0,1.3496-.5427,2.667-1.5692,3.543-.4542.3877-.9509.7407-1.488,1.0508-2.1171,1.2222-4.9124,1.8838-7.7956,1.8838-.7907,0-1.5886-.0498-2.3802-.1514-.6862-.0879-1.3811-.1309-2.0728-.1309-2.515,0-4.9795.5669-6.7578,1.5938l-28.2252,16.2949c-1.8582,1.0728-2.9785,2.4429-3.1573,3.8584-.033.2632-.0286.5269.0043.7896.2101.2817.4419.5596.7173.8291l14.7263,14.4048c2.6326,2.5752,3.8199,5.5234,3.4988,8.4526-.1411,3.2466.1883,3.9146-.4496,5.5508-.2249.5728-.7418,1.0269-1.4584,1.2783-.4205.147-.883.2192-1.3425.2192-.6789,0-1.3537-.1577-1.882-.4624l-32.3415-19.4937-.8884-1.2393v-1.4624l-3.213-1.8667-10.8508,6.2646c-.6664.3838-1.5015.5752-2.3365.5752s-1.6701-.1914-2.3364-.5752c-.3294-.1914-.7955-.2876-1.2622-.2876-.4658,0-.9322.0957-1.2637.2876l-6.0644,3.501-1.6682-.9629,5.2283,3.0186c.1414.0337.2669.0635.4083.0977h3.3318c.1532,0,.2966.0332.4048.0957,2.4079,1.3896,30.3199,17.5049,34.9461,20.1758.0716.0415.1164.0908.1415.1421.0005,0,.001,0,.0015-.0005.0036-.0005.0071-.001.0107-.001.3953,0,.7099,4.0601-.1805,4.2246-2.6235.4893-5.3378.7295-8.0425.7295-4.6548,0-9.2831-.7139-13.3778-2.1084l-33.7267-11.5278-29.9329-17.4268c-.312-.6157-.3259-3.9482-.046-4.1172.0226-.0137,3.5289-3.3813,3.5289-3.3813l-7.6998-4.7534c-.1511-.106-.2438-.2773-.2502-.4619l-.0973-3.5835c.0872-.0508.1054-.0615.1925-.1123.1006-.0913.2724-.1562.4732-.1562.0667,0,.1365.0073.2081.0229,8.2838,1.8203,16.0269,4.335,23.0352,7.4277l6.4136-3.7026,1.5987-.9233c-4.2966-3.5464-7.8552-7.3853-10.5359-11.4517-.2139-.3247-.345-3.3618-.0453-3.3618.0065,0,.0132.0015.02.0044.0433-.1626.3052-.2827.581-.2827.1365,0,.2764.0293.3947.0977l10.0516,5.8032c.1113.0645.2593.0977.4088.0977.1013,0,.2034-.0151.2951-.0469l46.1998-26.7891c-1.8611-.8931-2.7595-1.9282-2.7595-1.9282l-.2184-.29c-.4713-.4717-.5352-.938-.5352-1.9302,0-2.4824,1.743-5.5015,3.8933-6.7432.6347-.3667,1.1299-.5474,1.6034-.5474.1736,0,.3444.0244.5179.0728l.1958.0259c2.4527.3296,3.8867,2.3589,3.8867,2.3589l-.0058.0225c.5272.4624.8552,1.2305.8552,2.2856,0,.5801-.103,1.1899-.2762,1.7988l.6523.3657,23.9778-13.8433c.1727-.1001.4038-.1489.646-.1489.2917,0,.5993.0713.8395.21l5.6048,3.2363c.1045.0601.4973.418.5949.8457l15.8621-9.1582,101.911-58.8384c.498-.2876,1.1508-.4316,1.8035-.4316m0-4c-1.3925,0-2.7079.335-3.804.9678l-101.9106,58.8384-13.4272,7.752-4.6346-2.6758c-.8443-.4878-1.8262-.7461-2.8391-.7461-.9568,0-1.8725.2373-2.6487.686l-19.4143,11.2085c-.1965-.3135-.4189-.6074-.6663-.8794-.6068-.7822-2.8372-3.3296-6.4734-3.8188-.4124-.0889-.8306-.1343-1.2476-.1343-1.5486,0-2.7985.6182-3.6039,1.0835-3.4144,1.9717-5.8928,6.2646-5.8928,10.207,0,.8027,0,2.1255.7278,3.459l-39.7262,23.0356-8.4438-4.8755c-.7176-.4141-1.5459-.6333-2.3948-.6333-1.2779,0-2.453.4917-3.294,1.3057-.3542.3149-.6571.6943-.8904,1.1274-.9075,1.6846-.7456,5.8384.2888,7.4082,1.9435,2.9478,4.3233,5.8062,7.107,8.54l-1.5056.8691c-6.8108-2.8584-14.1723-5.166-21.9146-6.8672-.3509-.0771-.7095-.1162-1.0666-.1162-.9713,0-1.8978.2827-2.6668.8052l-.0127.0073-2.049,1.1938.0643,2.3706.0973,3.5835c.0511,1.4629.7808,2.8076,1.9531,3.6289l.0954.0669.0991.0615,3.3013,2.0381c-1.2541,1.3569-1.2388,3.2729-1.228,4.6162.0218,2.7095.4642,3.5825.6768,4.002l.5342,1.0542,1.0213.5947,29.9329,17.4268.3431.1997.3757.1284,33.7267,11.5278c4.4645,1.5205,9.5364,2.3232,14.6715,2.3232,2.9862,0,5.9389-.2681,8.7758-.7974,1.3091-.2417,4.3119-1.4326,3.7822-7.2251-.225-2.4609-1.1696-3.708-2.1664-4.3315-.1022-.0713-.2079-.1387-.3169-.2017l-5.6536-3.2642c-7.4887-4.3237-19.7381-11.396-25.8123-14.9028.7361-.1865,1.4324-.4653,2.0681-.8311l8.3008-4.7925.5167.7207.8884,1.2393.4802.6699.7059.4253,32.3415,19.4937.0331.02.0334.0195c1.1313.6523,2.4731.9971,3.8803.9971.925,0,1.8208-.1489,2.6622-.4434,1.8352-.644,3.2049-1.9189,3.8619-3.5923.7068-1.813.6985-3.0669.6888-4.5186-.004-.6021-.0085-1.2808.029-2.2046.4037-4.1284-1.2591-8.2427-4.6931-11.6016l-13.5562-13.2603c.1329-.0938.288-.1938.4685-.2979l28.2252-16.2949c1.1473-.6626,2.9259-1.0581,4.7579-1.0581.5292,0,1.0555.0332,1.5642.0986.9502.1216,1.9224.1836,2.8888.1836,3.6143,0,7.0932-.8594,9.7957-2.4199.7371-.4253,1.4388-.9209,2.0848-1.4722,1.8888-1.6118,2.9723-4.0122,2.9723-6.5854v-3.7256c.0249-2.0845-.7729-4.0894-2.2628-5.8013,48.1365-27.8008,103.9313-60.0278,109.0717-63.0083,1.4829-.8584,2.3928-2.4604,2.3712-4.1802l-.0312-2.4863-.0153-1.1479c-.002-.1392-.0077-.2739-.0169-.4043h.0092c0-1.8291-1.0276-3.5137-2.7489-4.5063l-15.442-8.9155c-1.0955-.6323-2.4109-.9673-3.8035-.9673h0Z" style="fill:#374874;"/><path d="m146.0727,133.125c.3352,0,.6704.0742.9261.2217l8.1594,4.7104c2.382,1.3755,3.5587,3.1816,3.5373,4.9839v3.7261c0,1.3491-.5427,2.667-1.5693,3.5425-.4543.3877-.9509.7407-1.488,1.0508-2.1171,1.2222-4.9124,1.8838-7.7957,1.8838-.7907,0-1.5885-.0498-2.3801-.1514-.6862-.0879-1.3812-.1309-2.0729-.1309-2.515,0-4.9794.5669-6.7578,1.5938l-28.2252,16.2949c-1.8582,1.0728-2.9785,2.4429-3.1573,3.8584-.033.2632-.0286.5269.0043.79.2101.2812.4419.5596.7173.8286l14.7263,14.4048c2.6327,2.5752,3.8199,5.5234,3.4988,8.4526-.1411,3.2466.1883,3.9146-.4496,5.5508-.2249.5728-.7418,1.0269-1.4584,1.2783-.4205.147-.883.2192-1.3425.2192-.679,0-1.3537-.1577-1.882-.4624l-32.3416-19.4937-.8884-1.2393v-1.4624l-9.3082-5.4087c-.3828-.2207-.8927-.729-.8927-2.5806,0-2.3008-.0576-2.0708.1771-2.2065l.3546-.1982c-.0007.0005-.001.001-.0017.002.0129-.0083.0171-.019.0308-.0269l68.9533-39.8101c.2557-.1475.5909-.2217.9261-.2217m0-2c-.7056,0-1.3718.1694-1.9264.4897l-68.9529,39.8101c-.0403.0229-.0807.0488-.1206.0757l-.239.1338c-1.2196.6133-1.2129,1.6558-1.2051,2.8628.0018.2778.0041.6333.0041,1.0894,0,.7969,0,3.2212,1.8938,4.313l8.3072,4.8271v.3115c0,.418.131.8257.3745,1.1655l.8884,1.2393c.1584.2207.3602.4072.593.5474l32.3416,19.4937c.8492.4902,1.8725.7495,2.9144.7495.69,0,1.3824-.1147,2.0024-.3311,1.2751-.4478,2.219-1.312,2.6601-2.4355.5659-1.4517.5594-2.4258.5504-3.7744-.004-.6055-.009-1.3564.0331-2.3589.3631-3.5308-1.0896-7.0903-4.0958-10.0308l-14.7263-14.4048c-.035-.0342-.0696-.0693-.104-.1055.1831-.7178.9672-1.5322,2.1412-2.21l28.2252-16.2949c1.4593-.8423,3.5579-1.3257,5.7578-1.3257.6137,0,1.2256.0386,1.8186.1147.8664.1113,1.7529.1675,2.6344.1675,3.2687,0,6.3924-.7642,8.7957-2.1519.6317-.3647,1.2328-.7891,1.7863-1.2612,1.443-1.231,2.2709-3.0767,2.2709-5.064v-3.7261c.0307-2.5767-1.623-5.0332-4.5372-6.7158l-8.1595-4.7104c-.5543-.3203-1.2205-.4897-1.9261-.4897h0Z" style="fill:#374874;"/><path d="m43.4078,174.1904l.5816-.3359,1.7475-1.0088v-.0005c-5.3568-4.0464-9.7125-8.5166-12.865-13.2993-.0385-.0581-.0391-.1133-.0253-.165-.3253-.1372-.1932,3.0259.0253,3.3574,2.6808,4.0669,6.2393,7.9053,10.5359,11.4521Z" style="fill:#c1dbf6;"/><polyline points="144.1124 114.8937 103.4071 139.5496 42.9894 174.8544 39.8092 175.1132" style="fill:none; stroke:#374874; stroke-linecap:round; stroke-linejoin:round; stroke-width:2px;"/></g></svg>