<svg width="64" height="64" viewBox="0 0 64 64" fill="none" xmlns="http://www.w3.org/2000/svg">
<path d="M42.8964 20.9462C42.8701 20.9311 42.8415 20.9174 42.8111 20.9054C42.7875 20.896 42.7628 20.8878 42.7373 20.8805C42.7298 20.8783 42.7219 20.8767 42.7143 20.8749C42.7111 20.8741 42.708 20.8733 42.7048 20.8725C42.6941 20.8698 42.6837 20.8669 42.6728 20.8647C42.6531 20.8605 42.633 20.8571 42.6127 20.8542C42.5935 20.8514 42.5741 20.8493 42.5544 20.8477C42.5352 20.8461 42.5158 20.845 42.4964 20.8445C42.4949 20.8445 42.4935 20.8446 42.492 20.8445C42.4911 20.8445 42.4902 20.8446 42.4893 20.8446C42.4719 20.8442 42.4544 20.8442 42.4368 20.8448C42.4156 20.8456 42.3943 20.847 42.3732 20.8491C42.3487 20.8515 42.3244 20.8549 42.3002 20.8592C42.292 20.8607 42.2841 20.8636 42.2758 20.8654C42.2677 20.8671 42.2601 20.8693 42.252 20.8713C42.2318 20.8762 42.2112 20.8801 42.1916 20.8864C42.1444 20.9016 42.0993 20.9213 42.0575 20.9456L31.7854 26.915C31.7829 26.9165 31.7805 26.918 31.7781 26.9194C31.7672 26.926 31.7595 26.9335 31.7497 26.9404C31.7347 26.951 31.7189 26.9613 31.7065 26.9725C31.7053 26.9735 31.7035 26.9745 31.7024 26.9755C31.6884 26.9883 31.6762 27.0016 31.6655 27.0152C31.6631 27.0181 31.6615 27.0213 31.6594 27.0242C31.657 27.0274 31.655 27.0306 31.6528 27.034C31.6491 27.0395 31.6448 27.045 31.6416 27.0507C31.6353 27.0618 31.6301 27.073 31.6258 27.0843C31.6252 27.0859 31.625 27.0876 31.6244 27.0892C31.6237 27.0913 31.6233 27.0934 31.6226 27.0955C31.6203 27.1029 31.6178 27.1102 31.6163 27.1175C31.614 27.1287 31.6128 27.14 31.6124 27.1513C31.6124 27.153 31.6124 27.1548 31.6124 27.1565L31.6089 28.3811C31.6089 28.3606 31.6128 28.3402 31.6192 28.32C31.6198 28.318 31.6202 28.3159 31.621 28.3137C31.6275 28.2949 31.6373 28.2766 31.6494 28.2586C31.6516 28.2553 31.6536 28.252 31.6559 28.2488C31.6689 28.231 31.6846 28.2136 31.7031 28.197C31.7155 28.1858 31.7313 28.1755 31.7462 28.1651C31.7582 28.1566 31.7683 28.1476 31.782 28.1397L42.054 22.1702C42.1132 22.1358 42.1797 22.1125 42.2485 22.0959C42.2565 22.094 42.2643 22.0916 42.2724 22.0899C42.3422 22.0752 42.4144 22.0679 42.4858 22.0692C42.4868 22.0692 42.4877 22.0692 42.4886 22.0692C42.562 22.0707 42.6341 22.0806 42.7013 22.097C42.7045 22.0978 42.7077 22.0986 42.7109 22.0994C42.7781 22.1166 42.8405 22.1405 42.893 22.1708C42.9965 22.2306 43.0636 22.3138 43.0633 22.4127L43.0668 21.1882C43.067 21.0892 42.9999 21.006 42.8964 20.9462Z" fill="#C1DBF6"/>
<path d="M51.0548 45.192C51.0544 45.1928 51.0537 45.1934 51.0533 45.1942C51.0359 45.2232 51.0111 45.2493 50.9823 45.2732C50.9749 45.2794 50.9665 45.285 50.9584 45.2908C50.938 45.3056 50.9146 45.3185 50.8905 45.331C50.8688 45.3421 50.846 45.3524 50.8218 45.3615C50.7958 45.3714 50.7693 45.3806 50.741 45.3879C50.7271 45.3916 50.7135 45.3954 50.6992 45.3984C50.6554 45.4077 50.6101 45.4146 50.5636 45.4178C50.5595 45.4181 50.5554 45.4184 50.5512 45.4186C50.4995 45.4214 50.447 45.4205 50.395 45.4152C50.3921 45.4149 50.3892 45.4145 50.3863 45.4142C50.3337 45.4084 50.2817 45.3983 50.2318 45.3835C50.2286 45.3825 50.2256 45.3813 50.2225 45.3803C50.1723 45.3647 50.124 45.3449 50.0797 45.3194L19.0409 27.3992C18.9239 27.3316 18.8655 27.2429 18.8658 27.1545L18.8623 28.379C18.8621 28.4674 18.9204 28.5561 19.0374 28.6237L50.0763 46.544C50.104 46.56 50.1333 46.5741 50.1636 46.5861C50.1816 46.5933 50.2003 46.5991 50.219 46.6049C50.2222 46.606 50.2251 46.6072 50.2283 46.6081C50.2309 46.6089 50.2333 46.6099 50.2358 46.6107C50.2558 46.6164 50.2762 46.6214 50.2968 46.6257C50.3156 46.6296 50.3346 46.6329 50.3538 46.6356C50.3634 46.637 50.3732 46.6378 50.3829 46.6389C50.3858 46.6392 50.3886 46.6395 50.3915 46.6398C50.3977 46.6404 50.4037 46.6414 50.4099 46.6419C50.4289 46.6434 50.4479 46.6445 50.4669 46.6449C50.4869 46.6454 50.5069 46.6453 50.5267 46.6446C50.5337 46.6444 50.5406 46.6436 50.5476 46.6432C50.5519 46.643 50.5561 46.6426 50.5604 46.6423C50.5711 46.6416 50.582 46.6412 50.5926 46.6402C50.6193 46.6376 50.6456 46.6339 50.6713 46.6292C50.6798 46.6276 50.6874 46.6248 50.6957 46.623C50.7102 46.62 50.7236 46.6162 50.7377 46.6126C50.7539 46.6083 50.771 46.6054 50.7865 46.6003C50.7981 46.5965 50.8071 46.5904 50.8183 46.5862C50.8428 46.5769 50.8652 46.5667 50.8871 46.5554C50.8979 46.5499 50.9111 46.5463 50.9211 46.5403C50.9337 46.5328 50.9435 46.5237 50.9549 46.5154C50.9631 46.5095 50.9714 46.5041 50.9789 46.4978C50.9835 46.4939 50.9895 46.4908 50.9938 46.4868C51.0072 46.4746 51.0192 46.4617 51.0298 46.4483C51.0373 46.4389 51.0437 46.429 51.0497 46.4189C51.0502 46.4181 51.0509 46.4173 51.0514 46.4165C51.0519 46.4156 51.0526 46.4148 51.0531 46.4139C51.0592 46.4031 51.0645 46.3919 51.0688 46.3805C51.073 46.3694 51.0762 46.358 51.0786 46.3464C51.0808 46.3353 51.0821 46.3241 51.0826 46.3126L51.0861 45.088C51.0846 45.1252 51.0735 45.1599 51.0548 45.192Z" fill="#FBDBD0"/>
<path d="M51.086 45.0879C51.0743 45.388 50.448 45.532 50.0797 45.3194L19.0409 27.3991C18.8087 27.265 18.8075 27.048 19.0362 26.9151L51.6133 7.98338C51.8646 7.83732 52.2375 7.86146 52.4527 7.98569C52.559 8.04708 52.6268 8.13293 52.6223 8.23476L51.086 45.0879ZM41.5749 33.0505C41.9432 33.2632 42.5695 33.117 42.5812 32.8168L43.0665 21.197C43.0709 21.0941 43.003 21.0078 42.8964 20.9462C42.6815 20.8222 42.3096 20.799 42.0574 20.9456L31.7854 26.9151C31.5548 27.0491 31.5541 27.265 31.7862 27.399L41.5749 33.0505Z" fill="white"/>
<path d="M52.0244 7.883C52.1837 7.883 52.3399 7.92063 52.4527 7.98575C52.559 8.04714 52.6269 8.13299 52.6224 8.23485L51.0861 45.0879L51.0826 46.3125C51.0821 46.324 51.0808 46.3353 51.0786 46.3463C51.0762 46.3579 51.073 46.3693 51.0688 46.3804C51.0645 46.3918 51.0592 46.403 51.0531 46.4139C51.0526 46.4148 51.0519 46.4156 51.0514 46.4164C51.0509 46.4172 51.0502 46.4181 51.0497 46.4188C51.0437 46.4289 51.0373 46.4388 51.0298 46.4483C51.0192 46.4617 51.0072 46.4745 50.9938 46.4868C50.9895 46.4907 50.9835 46.4939 50.9788 46.4978C50.9714 46.504 50.963 46.5094 50.9549 46.5154C50.9435 46.5236 50.9337 46.5327 50.9211 46.5403C50.911 46.5463 50.8979 46.5499 50.8871 46.5554C50.8652 46.5667 50.8427 46.5768 50.8183 46.5861C50.8071 46.5903 50.7981 46.5964 50.7865 46.6003C50.771 46.6053 50.7538 46.6082 50.7376 46.6125C50.7236 46.6162 50.7102 46.6199 50.6957 46.623C50.6874 46.6248 50.6797 46.6276 50.6712 46.6292C50.6455 46.6339 50.6192 46.6375 50.5926 46.6402C50.5819 46.6412 50.5711 46.6416 50.5603 46.6423C50.556 46.6426 50.5519 46.643 50.5475 46.6432C50.5406 46.6435 50.5337 46.6444 50.5266 46.6446C50.5148 46.645 50.5029 46.6451 50.4909 46.6451C50.4829 46.6451 50.4749 46.6451 50.4668 46.6449C50.4478 46.6444 50.4288 46.6434 50.4098 46.6418C50.4037 46.6413 50.3976 46.6404 50.3915 46.6398C50.3885 46.6395 50.3857 46.6391 50.3828 46.6388C50.3731 46.6377 50.3634 46.6369 50.3538 46.6355C50.3346 46.6328 50.3156 46.6295 50.2967 46.6257C50.2761 46.6214 50.2558 46.6163 50.2358 46.6106C50.2332 46.6099 50.2309 46.6089 50.2283 46.608C50.2251 46.6071 50.2222 46.6059 50.219 46.6049C50.2003 46.5991 50.1816 46.5932 50.1636 46.586C50.1333 46.574 50.104 46.56 50.0763 46.5439L19.0374 28.6237C18.9204 28.5561 18.8621 28.4673 18.8623 28.379L18.8658 27.1545C18.8658 27.1548 18.866 27.1552 18.866 27.1556C18.8657 27.0684 18.9224 26.9813 19.0363 26.9152L51.6133 7.98344C51.7329 7.91395 51.8799 7.883 52.0244 7.883ZM52.0244 6.96872C51.7074 6.96872 51.4064 7.04625 51.154 7.19295L18.5769 26.1247C18.1864 26.3514 17.9529 26.7351 17.9517 27.1518L17.948 28.3764C17.9469 28.7977 18.1831 29.186 18.58 29.4153L49.6191 47.3357C49.6842 47.3733 49.7539 47.407 49.8259 47.4357C49.8587 47.4488 49.8937 47.4609 49.9293 47.4723L49.9389 47.4757L49.9495 47.4795L49.9869 47.4904C50.0249 47.5013 50.067 47.5117 50.1095 47.5206C50.1506 47.529 50.1876 47.5354 50.225 47.5407C50.2412 47.5431 50.2602 47.5453 50.2792 47.5473L50.2822 47.5476L50.2903 47.5485L50.2917 47.5487L50.3048 47.5502L50.3356 47.5531C50.3717 47.5561 50.4086 47.558 50.4455 47.5589C50.4597 47.5593 50.4754 47.5594 50.491 47.5594C50.5123 47.5594 50.5336 47.5591 50.5547 47.5584C50.5744 47.5578 50.5931 47.5567 50.6118 47.5552L50.6249 47.5543C50.6418 47.5534 50.6603 47.5521 50.6786 47.5504C50.7352 47.5447 50.7857 47.5376 50.8352 47.5287C50.8651 47.523 50.8896 47.5173 50.9127 47.5112C50.9291 47.5074 50.9453 47.5033 50.9617 47.4989C50.9999 47.4901 51.0351 47.4808 51.0685 47.4699C51.1147 47.4547 51.1515 47.4392 51.1798 47.4262C51.21 47.4139 51.2395 47.4007 51.269 47.3865C51.3018 47.3725 51.3428 47.3532 51.3882 47.3262C51.4362 47.2975 51.4724 47.271 51.4997 47.2498C51.5076 47.2441 51.5153 47.2384 51.5229 47.2327C51.5445 47.2172 51.5753 47.1937 51.6086 47.1635C51.6615 47.1149 51.7073 47.0658 51.7479 47.0141C51.7687 46.988 51.7892 46.9594 51.8092 46.9286L51.8126 46.9238L51.8247 46.907L51.8508 46.8605C51.8783 46.812 51.9036 46.7577 51.9244 46.7026C51.9458 46.6458 51.9629 46.5863 51.975 46.5261C51.9869 46.4667 51.9939 46.4066 51.9962 46.3469L51.9968 46.331L51.9968 46.315L52.0003 45.1083L53.5359 8.27288C53.5552 7.83555 53.3212 7.43137 52.9099 7.19389C52.6583 7.04863 52.3438 6.96872 52.0244 6.96872Z" fill="#374874"/>
<path d="M42.4698 22.5262L42.4714 22.5263L42.4792 22.5267L42.487 22.5265C42.5085 22.5273 42.5305 22.5295 42.5532 22.5333L42.1296 32.6752C42.0943 32.6853 42.0456 32.6941 41.9882 32.6941C41.9153 32.6941 41.8463 32.6794 41.8035 32.6547L33.3354 27.7657L42.2837 22.5655C42.2906 22.5615 42.3114 22.551 42.3541 22.5407L42.3612 22.5387L42.3664 22.5374C42.4015 22.53 42.4363 22.5262 42.4698 22.5262ZM42.4698 22.0691C42.4036 22.0691 42.337 22.0765 42.2723 22.09C42.2643 22.0917 42.2565 22.0941 42.2485 22.0959C42.1797 22.1126 42.1131 22.1359 42.054 22.1703L32.4233 27.767L41.5749 33.0506C41.6953 33.1201 41.8432 33.1513 41.9882 33.1513C42.2869 33.1513 42.5733 33.019 42.5812 32.8169L43.0211 22.2848C42.9913 22.2412 42.9477 22.2026 42.8929 22.1709C42.8404 22.1406 42.7781 22.1167 42.7108 22.0995C42.7077 22.0987 42.7044 22.0979 42.7013 22.0971C42.634 22.0807 42.562 22.0708 42.4886 22.0693H42.4858C42.4805 22.0692 42.4752 22.0691 42.4698 22.0691Z" fill="#374874"/>
<path fill-rule="evenodd" clip-rule="evenodd" d="M20.1458 26.1477C20.1773 26.093 20.2471 26.0741 20.3018 26.1055L22.1464 27.165C22.2011 27.1964 22.22 27.2663 22.1886 27.321C22.1572 27.3757 22.0873 27.3946 22.0326 27.3632L20.188 26.3037C20.1333 26.2723 20.1144 26.2024 20.1458 26.1477Z" fill="#374874"/>
<path fill-rule="evenodd" clip-rule="evenodd" d="M21.5205 25.3571C21.5521 25.3025 21.622 25.2838 21.6766 25.3154L22.5432 25.8165C22.5979 25.8481 22.6165 25.918 22.585 25.9726C22.5534 26.0273 22.4835 26.0459 22.4288 26.0143L21.5622 25.5133C21.5076 25.4817 21.4889 25.4118 21.5205 25.3571Z" fill="#374874"/>
<path fill-rule="evenodd" clip-rule="evenodd" d="M22.8951 24.5669C22.9267 24.5122 22.9966 24.4935 23.0513 24.5251L23.9179 25.0262C23.9725 25.0578 23.9912 25.1277 23.9596 25.1823C23.928 25.237 23.8581 25.2557 23.8034 25.2241L22.9369 24.723C22.8822 24.6914 22.8635 24.6215 22.8951 24.5669Z" fill="#374874"/>
<path fill-rule="evenodd" clip-rule="evenodd" d="M24.2698 23.7766C24.3014 23.7219 24.3713 23.7033 24.4259 23.7349L25.2925 24.2359C25.3471 24.2675 25.3658 24.3374 25.3342 24.3921C25.3026 24.4467 25.2327 24.4654 25.1781 24.4338L24.3115 23.9327C24.2569 23.9011 24.2382 23.8312 24.2698 23.7766Z" fill="#374874"/>
<path fill-rule="evenodd" clip-rule="evenodd" d="M25.6444 22.9863C25.676 22.9317 25.7459 22.913 25.8005 22.9446L26.6671 23.4456C26.7218 23.4772 26.7404 23.5471 26.7089 23.6018C26.6773 23.6564 26.6074 23.6751 26.5527 23.6435L25.6861 23.1424C25.6315 23.1108 25.6128 23.0409 25.6444 22.9863Z" fill="#374874"/>
<path fill-rule="evenodd" clip-rule="evenodd" d="M27.0187 22.1963C27.0502 22.1416 27.12 22.1227 27.1748 22.1541L29.0194 23.2136C29.0741 23.245 29.093 23.3149 29.0615 23.3696C29.0301 23.4243 28.9603 23.4432 28.9055 23.4118L27.0609 22.3523C27.0062 22.3209 26.9873 22.251 27.0187 22.1963Z" fill="#374874"/>
<path fill-rule="evenodd" clip-rule="evenodd" d="M28.3933 21.4062C28.4246 21.3514 28.4945 21.3324 28.5493 21.3638L29.2101 21.742C29.2649 21.7734 29.2838 21.8432 29.2525 21.898C29.2211 21.9528 29.1513 21.9717 29.0965 21.9404L28.4357 21.5621C28.3809 21.5308 28.3619 21.4609 28.3933 21.4062Z" fill="#374874"/>
<path fill-rule="evenodd" clip-rule="evenodd" d="M29.7679 20.6159C29.7993 20.5611 29.8691 20.5421 29.9239 20.5735L30.5847 20.9518C30.6395 20.9831 30.6585 21.0529 30.6271 21.1077C30.5958 21.1625 30.5259 21.1815 30.4712 21.1501L29.8103 20.7718C29.7556 20.7405 29.7366 20.6707 29.7679 20.6159Z" fill="#374874"/>
<path fill-rule="evenodd" clip-rule="evenodd" d="M31.1426 19.8256C31.1739 19.7708 31.2437 19.7518 31.2985 19.7832L31.9593 20.1614C32.0141 20.1928 32.0331 20.2626 32.0018 20.3174C31.9704 20.3722 31.9006 20.3912 31.8458 20.3598L31.185 19.9816C31.1302 19.9502 31.1112 19.8804 31.1426 19.8256Z" fill="#374874"/>
<path fill-rule="evenodd" clip-rule="evenodd" d="M32.5172 19.0353C32.5486 18.9805 32.6184 18.9615 32.6732 18.9929L33.334 19.3712C33.3888 19.4025 33.4077 19.4723 33.3764 19.5271C33.345 19.5819 33.2752 19.6009 33.2204 19.5695L32.5596 19.1913C32.5048 19.1599 32.4858 19.0901 32.5172 19.0353Z" fill="#374874"/>
<path fill-rule="evenodd" clip-rule="evenodd" d="M33.8918 18.2449C33.9232 18.1902 33.9931 18.1713 34.0478 18.2027L35.8924 19.2622C35.9471 19.2936 35.966 19.3634 35.9346 19.4182C35.9031 19.4729 35.8333 19.4918 35.7785 19.4604L33.934 18.4009C33.8792 18.3695 33.8604 18.2996 33.8918 18.2449Z" fill="#374874"/>
<path fill-rule="evenodd" clip-rule="evenodd" d="M35.2663 17.4547C35.2977 17.4 35.3675 17.381 35.4223 17.4123L36.0831 17.7906C36.1379 17.822 36.1569 17.8918 36.1255 17.9466C36.0942 18.0013 36.0244 18.0203 35.9696 17.989L35.3088 17.6107C35.254 17.5794 35.235 17.5095 35.2663 17.4547Z" fill="#374874"/>
<path fill-rule="evenodd" clip-rule="evenodd" d="M36.641 16.6645C36.6723 16.6097 36.7422 16.5907 36.7969 16.6221L37.4578 17.0003C37.5125 17.0317 37.5315 17.1015 37.5002 17.1563C37.4688 17.2111 37.399 17.23 37.3442 17.1987L36.6834 16.8204C36.6286 16.7891 36.6096 16.7192 36.641 16.6645Z" fill="#374874"/>
<path fill-rule="evenodd" clip-rule="evenodd" d="M38.0156 15.8742C38.047 15.8194 38.1168 15.8004 38.1716 15.8318L38.8324 16.21C38.8872 16.2414 38.9062 16.3112 38.8748 16.366C38.8434 16.4208 38.7736 16.4398 38.7188 16.4084L38.058 16.0301C38.0032 15.9988 37.9843 15.929 38.0156 15.8742Z" fill="#374874"/>
<path fill-rule="evenodd" clip-rule="evenodd" d="M39.3902 15.0839C39.4216 15.0291 39.4914 15.0101 39.5462 15.0415L40.207 15.4198C40.2618 15.4511 40.2808 15.521 40.2495 15.5757C40.2181 15.6305 40.1483 15.6495 40.0935 15.6181L39.4327 15.2399C39.3779 15.2085 39.3589 15.1387 39.3902 15.0839Z" fill="#374874"/>
<path fill-rule="evenodd" clip-rule="evenodd" d="M40.7648 14.2936C40.7963 14.2389 40.8661 14.22 40.9209 14.2514L42.7655 15.3109C42.8202 15.3423 42.8391 15.4121 42.8076 15.4669C42.7762 15.5216 42.7063 15.5405 42.6516 15.5091L40.807 14.4496C40.7523 14.4182 40.7334 14.3483 40.7648 14.2936Z" fill="#374874"/>
<path fill-rule="evenodd" clip-rule="evenodd" d="M42.1394 13.5035C42.1707 13.4487 42.2406 13.4297 42.2953 13.461L42.9562 13.8393C43.011 13.8707 43.03 13.9405 42.9986 13.9953C42.9672 14.05 42.8974 14.069 42.8426 14.0377L42.1818 13.6594C42.127 13.6281 42.108 13.5582 42.1394 13.5035Z" fill="#374874"/>
<path fill-rule="evenodd" clip-rule="evenodd" d="M43.514 12.7132C43.5454 12.6584 43.6152 12.6394 43.67 12.6708L44.3308 13.049C44.3856 13.0804 44.4046 13.1502 44.3732 13.205C44.3419 13.2598 44.2721 13.2787 44.2173 13.2474L43.5564 12.8691C43.5017 12.8378 43.4827 12.768 43.514 12.7132Z" fill="#374874"/>
<path fill-rule="evenodd" clip-rule="evenodd" d="M44.8887 11.9229C44.92 11.8681 44.9898 11.8491 45.0446 11.8805L45.7054 12.2587C45.7602 12.2901 45.7792 12.3599 45.7478 12.4147C45.7165 12.4695 45.6467 12.4885 45.5919 12.4571L44.9311 12.0788C44.8763 12.0475 44.8573 11.9777 44.8887 11.9229Z" fill="#374874"/>
<path fill-rule="evenodd" clip-rule="evenodd" d="M46.2633 11.1326C46.2946 11.0778 46.3645 11.0588 46.4192 11.0902L47.0801 11.4685C47.1349 11.4998 47.1538 11.5696 47.1225 11.6244C47.0911 11.6792 47.0213 11.6982 46.9665 11.6668L46.3057 11.2886C46.2509 11.2572 46.2319 11.1874 46.2633 11.1326Z" fill="#374874"/>
<path fill-rule="evenodd" clip-rule="evenodd" d="M47.6379 10.3422C47.6693 10.2874 47.7392 10.2686 47.7939 10.3L49.6385 11.3594C49.6932 11.3909 49.7121 11.4607 49.6807 11.5155C49.6492 11.5702 49.5794 11.5891 49.5246 11.5576L47.6801 10.4982C47.6253 10.4668 47.6064 10.3969 47.6379 10.3422Z" fill="#374874"/>
<path fill-rule="evenodd" clip-rule="evenodd" d="M49.0124 9.55203C49.0438 9.49726 49.1136 9.47827 49.1684 9.50963L49.8292 9.88791C49.884 9.91927 49.903 9.9891 49.8716 10.0439C49.8403 10.0987 49.7704 10.1176 49.7157 10.0863L49.0548 9.708C49.0001 9.67664 48.9811 9.60681 49.0124 9.55203Z" fill="#374874"/>
<path fill-rule="evenodd" clip-rule="evenodd" d="M50.3871 8.76175C50.4184 8.70697 50.4882 8.68799 50.543 8.71934L51.2039 9.09761C51.2586 9.12896 51.2776 9.19879 51.2463 9.25357C51.2149 9.30835 51.1451 9.32733 51.0903 9.29598L50.4295 8.91771C50.3747 8.88636 50.3557 8.81653 50.3871 8.76175Z" fill="#374874"/>
<path d="M4.69935 36.0053C4.67016 35.9884 4.64459 35.9702 4.62271 35.951C4.55704 35.8935 4.52429 35.8272 4.52447 35.761L4.521 36.9856C4.52075 37.0739 4.57908 37.1624 4.69585 37.2298L36.291 55.4712L36.2945 54.2467L4.69935 36.0053Z" fill="#FBDBD0"/>
<path d="M44.4492 49.5077C44.6794 49.6405 44.6826 49.8565 44.4519 49.9905L37.13 54.2455C36.8994 54.3795 36.5246 54.3796 36.2944 54.2466L4.69928 36.0052C4.46717 35.8712 4.46598 35.6541 4.69661 35.5201L12.0185 31.2651C12.2491 31.1311 12.6219 31.1322 12.854 31.2662L44.4492 49.5077Z" fill="white"/>
<path d="M44.6133 49.8114C44.6126 49.8135 44.6122 49.8156 44.6114 49.8178C44.605 49.8365 44.5953 49.8547 44.5834 49.8727C44.5813 49.8758 44.5792 49.8791 44.5769 49.8822C44.564 49.9 44.5485 49.9173 44.5301 49.9338C44.5181 49.9446 44.5028 49.9545 44.4884 49.9647C44.4762 49.9733 44.4658 49.9825 44.452 49.9906L37.1301 54.2456C37.0766 54.2767 37.0141 54.2989 36.9487 54.3155C36.9393 54.3179 36.9299 54.3205 36.9203 54.3226C36.8545 54.337 36.7855 54.3454 36.7161 54.3457C36.7135 54.3458 36.7109 54.3458 36.7084 54.3458C36.6354 54.3456 36.5625 54.3376 36.4937 54.3219C36.4911 54.3212 36.4885 54.3206 36.4859 54.32C36.4164 54.3034 36.3509 54.2793 36.2945 54.2467L36.291 55.4712C36.3174 55.4865 36.3456 55.5 36.3754 55.5117C36.3983 55.5207 36.4221 55.5287 36.4466 55.5358C36.4583 55.5391 36.4704 55.5416 36.4823 55.5445C36.485 55.5452 36.4876 55.5458 36.4904 55.5465C36.4963 55.5478 36.502 55.5496 36.508 55.5507C36.5272 55.5548 36.5467 55.5582 36.5664 55.5609C36.5854 55.5637 36.6046 55.5658 36.6239 55.5673C36.6432 55.5689 36.6627 55.57 36.6821 55.5705C36.6897 55.5707 36.6972 55.5703 36.7048 55.5704C36.7075 55.5704 36.7101 55.5703 36.7128 55.5703C36.7228 55.5703 36.7328 55.5706 36.7428 55.5702C36.7648 55.5695 36.7868 55.568 36.8085 55.5659C36.8341 55.5633 36.8594 55.5598 36.8843 55.5553C36.8955 55.5533 36.9058 55.5496 36.9169 55.5472C36.9266 55.5451 36.9357 55.5426 36.9453 55.5401C36.9624 55.5357 36.9801 55.5327 36.9966 55.5273C37.0432 55.5122 37.087 55.4932 37.1266 55.4702L44.4485 51.2152C44.4509 51.2137 44.4534 51.2123 44.4557 51.2108C44.4669 51.2042 44.4748 51.1965 44.4848 51.1894C44.4992 51.1792 44.5146 51.1693 44.5267 51.1583C44.5278 51.1573 44.5295 51.1565 44.5306 51.1555C44.5444 51.1427 44.5566 51.1296 44.5672 51.1162C44.5696 51.1131 44.5712 51.1099 44.5734 51.1069C44.5758 51.1036 44.5778 51.1004 44.58 51.0971C44.5835 51.0918 44.5878 51.0865 44.5909 51.081C44.5971 51.07 44.6023 51.0588 44.6065 51.0476C44.6072 51.0459 44.6074 51.0441 44.608 51.0424C44.6088 51.0403 44.6092 51.0381 44.6098 51.036C44.6121 51.0288 44.6146 51.0217 44.616 51.0145C44.6183 51.0032 44.6195 50.992 44.6199 50.9807C44.6199 50.979 44.6199 50.9773 44.62 50.9756L44.6234 49.751C44.6234 49.7712 44.6195 49.7914 44.6133 49.8114Z" fill="#C1DBF6"/>
<path fill-rule="evenodd" clip-rule="evenodd" d="M43.462 48.7549C43.4935 48.8096 43.4746 48.8795 43.4198 48.9109L41.5753 49.9704C41.5205 50.0018 41.4507 49.9829 41.4193 49.9282C41.3878 49.8735 41.4067 49.8036 41.4614 49.7722L43.306 48.7127C43.3607 48.6813 43.4306 48.7002 43.462 48.7549Z" fill="#374874"/>
<path fill-rule="evenodd" clip-rule="evenodd" d="M42.0873 47.9643C42.1189 48.019 42.1002 48.0889 42.0455 48.1205L41.179 48.6215C41.1243 48.6531 41.0544 48.6345 41.0228 48.5798C40.9912 48.5252 41.0099 48.4553 41.0645 48.4237L41.9311 47.9226C41.9858 47.891 42.0557 47.9097 42.0873 47.9643Z" fill="#374874"/>
<path fill-rule="evenodd" clip-rule="evenodd" d="M40.7126 47.1742C40.7442 47.2288 40.7255 47.2987 40.6709 47.3303L39.8043 47.8314C39.7497 47.863 39.6798 47.8443 39.6482 47.7896C39.6166 47.735 39.6353 47.6651 39.6899 47.6335L40.5565 47.1324C40.6111 47.1008 40.681 47.1195 40.7126 47.1742Z" fill="#374874"/>
<path fill-rule="evenodd" clip-rule="evenodd" d="M39.3381 46.3838C39.3697 46.4384 39.351 46.5083 39.2964 46.5399L38.4298 47.041C38.3752 47.0726 38.3053 47.0539 38.2737 46.9992C38.2421 46.9446 38.2608 46.8747 38.3154 46.8431L39.182 46.342C39.2366 46.3104 39.3065 46.3291 39.3381 46.3838Z" fill="#374874"/>
<path fill-rule="evenodd" clip-rule="evenodd" d="M37.9635 45.5935C37.9951 45.6481 37.9764 45.718 37.9218 45.7496L37.0552 46.2507C37.0005 46.2823 36.9306 46.2636 36.899 46.209C36.8674 46.1543 36.8861 46.0844 36.9408 46.0528L37.8073 45.5517C37.862 45.5201 37.9319 45.5388 37.9635 45.5935Z" fill="#374874"/>
<path fill-rule="evenodd" clip-rule="evenodd" d="M36.589 44.8035C36.6204 44.8582 36.6015 44.9281 36.5468 44.9595L34.7022 46.019C34.6475 46.0504 34.5776 46.0315 34.5462 45.9768C34.5148 45.9221 34.5337 45.8522 34.5884 45.8208L36.433 44.7613C36.4877 44.7299 36.5575 44.7487 36.589 44.8035Z" fill="#374874"/>
<path fill-rule="evenodd" clip-rule="evenodd" d="M35.2145 44.0135C35.2459 44.0682 35.2269 44.1381 35.1721 44.1694L34.5113 44.5477C34.4565 44.579 34.3867 44.5601 34.3553 44.5053C34.324 44.4505 34.343 44.3807 34.3977 44.3493L35.0586 43.9711C35.1133 43.9397 35.1832 43.9587 35.2145 44.0135Z" fill="#374874"/>
<path fill-rule="evenodd" clip-rule="evenodd" d="M33.8399 43.2232C33.8712 43.278 33.8523 43.3478 33.7975 43.3791L33.1367 43.7574C33.0819 43.7888 33.0121 43.7698 32.9807 43.715C32.9493 43.6602 32.9683 43.5904 33.0231 43.559L33.6839 43.1808C33.7387 43.1494 33.8085 43.1684 33.8399 43.2232Z" fill="#374874"/>
<path fill-rule="evenodd" clip-rule="evenodd" d="M32.4653 42.4329C32.4966 42.4877 32.4776 42.5575 32.4228 42.5889L31.762 42.9671C31.7072 42.9985 31.6374 42.9795 31.6061 42.9247C31.5747 42.87 31.5937 42.8001 31.6485 42.7688L32.3093 42.3905C32.3641 42.3591 32.4339 42.3781 32.4653 42.4329Z" fill="#374874"/>
<path fill-rule="evenodd" clip-rule="evenodd" d="M31.0906 41.6426C31.122 41.6974 31.103 41.7672 31.0482 41.7986L30.3874 42.1768C30.3326 42.2082 30.2628 42.1892 30.2314 42.1344C30.2001 42.0796 30.2191 42.0098 30.2738 41.9785L30.9347 41.6002C30.9894 41.5688 31.0593 41.5878 31.0906 41.6426Z" fill="#374874"/>
<path fill-rule="evenodd" clip-rule="evenodd" d="M29.7159 40.8522C29.7474 40.9069 29.7285 40.9768 29.6738 41.0082L27.8292 42.0677C27.7745 42.0991 27.7046 42.0802 27.6732 42.0255C27.6417 41.9707 27.6606 41.9009 27.7153 41.8695L29.5599 40.81C29.6146 40.7786 29.6845 40.7975 29.7159 40.8522Z" fill="#374874"/>
<path fill-rule="evenodd" clip-rule="evenodd" d="M28.3415 40.062C28.3728 40.1168 28.3538 40.1867 28.2991 40.218L27.6382 40.5963C27.5835 40.6276 27.5136 40.6086 27.4823 40.5539C27.4509 40.4991 27.4699 40.4293 27.5247 40.3979L28.1855 40.0196C28.2403 39.9883 28.3101 40.0073 28.3415 40.062Z" fill="#374874"/>
<path fill-rule="evenodd" clip-rule="evenodd" d="M26.9668 39.2718C26.9982 39.3265 26.9792 39.3964 26.9244 39.4277L26.2636 39.806C26.2088 39.8374 26.139 39.8184 26.1077 39.7636C26.0763 39.7088 26.0953 39.639 26.1501 39.6076L26.8109 39.2294C26.8657 39.198 26.9355 39.217 26.9668 39.2718Z" fill="#374874"/>
<path fill-rule="evenodd" clip-rule="evenodd" d="M25.5922 38.4815C25.6236 38.5363 25.6046 38.6061 25.5498 38.6374L24.889 39.0157C24.8342 39.0471 24.7644 39.0281 24.733 38.9733C24.7017 38.9185 24.7206 38.8487 24.7754 38.8173L25.4363 38.4391C25.4911 38.4077 25.5609 38.4267 25.5922 38.4815Z" fill="#374874"/>
<path fill-rule="evenodd" clip-rule="evenodd" d="M24.2176 37.6912C24.249 37.746 24.23 37.8158 24.1752 37.8472L23.5143 38.2254C23.4596 38.2568 23.3897 38.2378 23.3584 38.183C23.327 38.1282 23.346 38.0584 23.4008 38.027L24.0616 37.6488C24.1164 37.6174 24.1862 37.6364 24.2176 37.6912Z" fill="#374874"/>
<path fill-rule="evenodd" clip-rule="evenodd" d="M22.8429 36.9008C22.8744 36.9555 22.8555 37.0254 22.8007 37.0568L20.9561 38.1162C20.9014 38.1477 20.8316 38.1288 20.8001 38.0741C20.7687 38.0193 20.7876 37.9495 20.8423 37.918L22.6869 36.8586C22.7416 36.8272 22.8115 36.846 22.8429 36.9008Z" fill="#374874"/>
<path fill-rule="evenodd" clip-rule="evenodd" d="M21.4685 36.1106C21.4998 36.1654 21.4808 36.2352 21.426 36.2666L20.7652 36.6449C20.7104 36.6762 20.6406 36.6572 20.6092 36.6024C20.5779 36.5477 20.5969 36.4778 20.6516 36.4465L21.3125 36.0682C21.3673 36.0369 21.4371 36.0559 21.4685 36.1106Z" fill="#374874"/>
<path fill-rule="evenodd" clip-rule="evenodd" d="M20.0938 35.3203C20.1252 35.3751 20.1062 35.445 20.0514 35.4763L19.3906 35.8546C19.3358 35.8859 19.266 35.8669 19.2346 35.8122C19.2032 35.7574 19.2222 35.6876 19.277 35.6562L19.9378 35.2779C19.9926 35.2466 20.0624 35.2656 20.0938 35.3203Z" fill="#374874"/>
<path fill-rule="evenodd" clip-rule="evenodd" d="M18.7192 34.5301C18.7505 34.5848 18.7315 34.6547 18.6768 34.686L18.0159 35.0643C17.9612 35.0956 17.8913 35.0767 17.86 35.0219C17.8286 34.9671 17.8476 34.8973 17.9024 34.8659L18.5632 34.4877C18.618 34.4563 18.6878 34.4753 18.7192 34.5301Z" fill="#374874"/>
<path fill-rule="evenodd" clip-rule="evenodd" d="M17.3447 33.7398C17.376 33.7946 17.357 33.8644 17.3022 33.8957L16.6414 34.274C16.5866 34.3054 16.5168 34.2864 16.4855 34.2316C16.4541 34.1768 16.4731 34.107 16.5279 34.0756L17.1887 33.6974C17.2435 33.666 17.3133 33.685 17.3447 33.7398Z" fill="#374874"/>
<path fill-rule="evenodd" clip-rule="evenodd" d="M15.97 32.9494C16.0014 33.0041 15.9825 33.0739 15.9278 33.1054L14.0832 34.1648C14.0285 34.1963 13.9586 34.1774 13.9272 34.1226C13.8958 34.0679 13.9146 33.9981 13.9694 33.9666L15.8139 32.9072C15.8687 32.8757 15.9385 32.8946 15.97 32.9494Z" fill="#374874"/>
<path fill-rule="evenodd" clip-rule="evenodd" d="M14.5954 32.1592C14.6267 32.214 14.6078 32.2838 14.553 32.3152L13.8921 32.6934C13.8374 32.7248 13.7675 32.7058 13.7362 32.651C13.7048 32.5962 13.7238 32.5264 13.7786 32.4951L14.4394 32.1168C14.4942 32.0854 14.564 32.1044 14.5954 32.1592Z" fill="#374874"/>
<path fill-rule="evenodd" clip-rule="evenodd" d="M13.2207 31.3689C13.2521 31.4237 13.2331 31.4935 13.1783 31.5249L12.5175 31.9032C12.4627 31.9345 12.3929 31.9155 12.3616 31.8608C12.3302 31.806 12.3492 31.7362 12.404 31.7048L13.0648 31.3265C13.1196 31.2952 13.1894 31.3142 13.2207 31.3689Z" fill="#374874"/>
<path d="M12.4338 31.1652C12.5855 31.1652 12.7375 31.199 12.8541 31.2663L44.4492 49.5077C44.5813 49.584 44.636 49.6875 44.6173 49.7873C44.6196 49.7752 44.6233 49.7631 44.6234 49.7509L44.6199 50.9755C44.6199 50.9772 44.6199 50.9789 44.6198 50.9807C44.6195 50.992 44.6182 51.0032 44.616 51.0144C44.6146 51.0216 44.612 51.0288 44.6098 51.036C44.6091 51.0381 44.6087 51.0402 44.608 51.0423C44.6074 51.0441 44.6071 51.0458 44.6065 51.0475C44.6022 51.0587 44.597 51.0699 44.5908 51.0809C44.5877 51.0864 44.5835 51.0917 44.58 51.0971C44.5778 51.1004 44.5757 51.1036 44.5734 51.1069C44.5712 51.1099 44.5696 51.1131 44.5672 51.1161C44.5566 51.1296 44.5444 51.1427 44.5306 51.1554C44.5295 51.1565 44.5278 51.1573 44.5267 51.1583C44.5146 51.1693 44.4992 51.1791 44.4848 51.1893C44.4747 51.1965 44.4669 51.2042 44.4557 51.2108C44.4533 51.2123 44.4509 51.2137 44.4485 51.2152L37.1266 55.4701C37.087 55.4932 37.0432 55.5121 36.9966 55.5273C36.9801 55.5326 36.9623 55.5357 36.9452 55.5401C36.9356 55.5425 36.9266 55.545 36.9168 55.5472C36.9058 55.5496 36.8955 55.5532 36.8843 55.5553C36.8594 55.5597 36.8341 55.5633 36.8085 55.5658C36.7867 55.568 36.7648 55.5695 36.7428 55.5702C36.7388 55.5703 36.7349 55.5704 36.7309 55.5704C36.7265 55.5704 36.722 55.5704 36.7176 55.5704H36.7128C36.71 55.5704 36.7075 55.5704 36.7048 55.5704H36.7031C36.6981 55.5704 36.693 55.5705 36.6879 55.5705C36.686 55.5705 36.684 55.5705 36.6821 55.5705C36.6626 55.57 36.6432 55.569 36.6238 55.5673C36.6045 55.5658 36.5853 55.5637 36.5664 55.5609C36.5467 55.5581 36.5271 55.5548 36.5079 55.5508C36.5019 55.5496 36.4963 55.5478 36.4903 55.5465C36.4876 55.5459 36.485 55.5452 36.4822 55.5445C36.4703 55.5417 36.4582 55.5391 36.4466 55.5358C36.4221 55.5287 36.3983 55.5208 36.3753 55.5117C36.3456 55.5 36.3173 55.4865 36.291 55.4712L4.69586 37.2298C4.57906 37.1624 4.52073 37.0739 4.52098 36.9856L4.52443 35.761C4.52443 35.7613 4.52457 35.7616 4.52457 35.7618C4.52445 35.6744 4.58169 35.587 4.69661 35.5201L12.0185 31.2651C12.1334 31.1984 12.2834 31.1652 12.4338 31.1652ZM12.4338 30.2509C12.1134 30.2509 11.8109 30.3283 11.5589 30.4748L4.23725 34.7296C3.84541 34.9575 3.61143 35.3417 3.61028 35.7584L3.60669 36.983C3.60551 37.4042 3.8418 37.7924 4.23876 38.0216L35.8338 56.263C35.8986 56.3004 35.9679 56.3338 36.0396 56.3621C36.0893 56.3816 36.14 56.3989 36.1923 56.414C36.2203 56.4219 36.2432 56.4276 36.2663 56.4329L36.2771 56.4356L36.2931 56.4398L36.3205 56.4455C36.3593 56.4537 36.3986 56.4605 36.4384 56.4662C36.4735 56.4712 36.5116 56.4755 36.5498 56.4786C36.5845 56.4815 36.6216 56.4835 36.6586 56.4844L36.6704 56.4847L36.6879 56.4847L36.705 56.4846L36.7174 56.4846H36.7203L36.7308 56.4846C36.7469 56.4846 36.7629 56.4843 36.7789 56.4837C36.8151 56.4825 36.8573 56.4797 36.8993 56.4755C36.9492 56.4705 36.9978 56.4637 37.0457 56.4552C37.0781 56.4492 37.1065 56.4426 37.1343 56.4352C37.1442 56.4328 37.1548 56.4301 37.1654 56.4274L37.1622 56.4282C37.2042 56.4187 37.2425 56.4086 37.2792 56.3967C37.3884 56.3613 37.4921 56.3152 37.5868 56.2601L44.9078 52.0056L44.9203 51.9983L44.9236 51.9963L44.9279 51.9938L44.9346 51.9896C44.9727 51.9662 45.0036 51.9438 45.0268 51.9258C45.0366 51.919 45.049 51.9102 45.0634 51.8994L45.0846 51.8854L45.1348 51.8416L45.1436 51.8338L45.1523 51.8257C45.2009 51.7806 45.2458 51.732 45.2858 51.6812L45.3139 51.6455L45.3337 51.6146C45.3346 51.6133 45.3355 51.6119 45.3365 51.6105C45.3558 51.5825 45.3738 51.554 45.3896 51.5256C45.4153 51.4803 45.4408 51.4261 45.4617 51.3707L45.4808 51.3202L45.4894 51.2859C45.4989 51.2539 45.5063 51.2243 45.5122 51.1949C45.5249 51.1311 45.5319 51.0692 45.5337 51.0078L45.5339 50.9995L45.5341 50.9869L45.5376 49.7534H45.5351C45.5364 49.3381 45.3037 48.9453 44.9064 48.7158L13.3112 30.4745C13.0579 30.3282 12.7545 30.2509 12.4338 30.2509Z" fill="#374874"/>
</svg>
