<svg xmlns="http://www.w3.org/2000/svg" xmlns:xlink="http://www.w3.org/1999/xlink" width="70" height="70" viewBox="0 0 70 70"><defs><path id="a" d="M4 0h61c4 0 5 1 5 5v60c0 4-1 5-5 5H4c-3 0-4-1-4-5V5c0-4 1-5 4-5z"/><linearGradient id="c" x1="100%" x2="0%" y1="0%" y2="100%"><stop offset="0%" stop-color="#94B6C8"/><stop offset="100%" stop-color="#6A9EBA"/></linearGradient><path id="d" d="M53.551 19.955H16.223c-2.07 0-3.742 1.64-3.742 3.663v26.864c0 2.022 1.673 3.663 3.742 3.663h37.328c2.07 0 3.742-1.64 3.742-3.663V23.618c0-2.023-1.672-3.663-3.742-3.663zm-36.86 3.663h36.393c.257 0 .467.206.467.458v3.205H16.223v-3.205c0-.252.21-.458.467-.458zm36.393 26.864H16.69a.464.464 0 0 1-.467-.458V37.05h37.328v12.974c0 .252-.21.458-.467.458zM27.42 42.85v3.053c0 .503-.42.916-.934.916h-5.601a.928.928 0 0 1-.934-.916V42.85c0-.504.42-.916.934-.916h5.601c.514 0 .934.412.934.916zm14.937 0v3.053c0 .503-.42.916-.934.916h-10.58a.928.928 0 0 1-.934-.916V42.85c0-.504.42-.916.934-.916h10.58c.514 0 .934.412.934.916z"/><path id="e" d="M53.551 17.955H16.223c-2.07 0-3.742 1.64-3.742 3.663v26.864c0 2.022 1.673 3.663 3.742 3.663h37.328c2.07 0 3.742-1.64 3.742-3.663V21.618c0-2.023-1.672-3.663-3.742-3.663zm-36.86 3.663h36.393c.257 0 .467.206.467.458v3.205H16.223v-3.205c0-.252.21-.458.467-.458zm36.393 26.864H16.69a.464.464 0 0 1-.467-.458V35.05h37.328v12.974c0 .252-.21.458-.467.458zM27.42 40.85v3.053c0 .503-.42.916-.934.916h-5.601a.928.928 0 0 1-.934-.916V40.85c0-.504.42-.916.934-.916h5.601c.514 0 .934.412.934.916zm14.937 0v3.053c0 .503-.42.916-.934.916h-10.58a.928.928 0 0 1-.934-.916V40.85c0-.504.42-.916.934-.916h10.58c.514 0 .934.412.934.916z"/></defs><g fill="none" fill-rule="evenodd"><mask id="b" fill="#fff"><use xlink:href="#a"/></mask><g mask="url(#b)"><path fill="url(#c)" d="M0 0H70V70H0z"/><path fill="#FFF" fill-opacity=".383" d="M4 1h61c2.667 0 4.333.667 5 2V0H0v3c.667-1.333 2-2 4-2z"/><path fill="#393939" d="M43.95 70H4c-2 0-4-.149-4-4.163V38.095l13.403-18.86L56 20.04l1.006 29.996L43.95 70z" opacity=".324"/><path fill="#000" fill-opacity=".383" d="M4 69h61c2.667 0 4.333-1 5-3v4H0v-4c.667 2 2 3 4 3z"/><use fill="#000" fill-opacity=".3" fill-rule="nonzero" xlink:href="#d"/><use fill="#FFF" fill-rule="nonzero" xlink:href="#e"/></g></g></svg>