<svg width="50" height="50" viewBox="0 0 50 50" xmlns="http://www.w3.org/2000/svg"><path d="M46 30.5C46 39.06 39.06 46 30.5 46 21.94 46 15 39.06 15 30.5 15 21.94 21.94 15 30.5 15 39.06 15 46 21.94 46 30.5Z" fill="#2EBCFA"/><path d="M28 16c0 6.627-5.373 12-12 12S4 22.627 4 16 9.373 4 16 4s12 5.373 12 12Z" fill="#985184"/><path d="M16 28c6.628 0 12-5.372 12-12 0-.267-.008-.532-.026-.795-6.537 1.071-11.698 6.232-12.769 12.77.263.017.528.025.795.025Z" fill="#144496"/><path d="M12.889 9.428c0-1.301-1.094-2.397-2.297-1.9a6 6 0 0 0-3.247 3.248c-.498 1.202.598 2.296 1.9 2.296h.644a3 3 0 0 0 3-3v-.644Z" fill="#fff"/><path d="M46 9a5 5 0 1 1-10 0 5 5 0 0 1 10 0Z" fill="#985184"/><path d="M40 6.179c0-.65-.546-1.199-1.147-.95a3 3 0 0 0-1.624 1.624c-.249.601.3 1.148.95 1.148h.322A1.5 1.5 0 0 0 40 6.5v-.322Z" fill="#fff"/></svg>
