<?xml version="1.0" encoding="UTF-8" standalone="no"?><svg xmlns="http://www.w3.org/2000/svg" xmlns:xlink="http://www.w3.org/1999/xlink" style="isolation:isolate" viewBox="0 0 100 100" width="100pt" height="100pt"><defs><clipPath id="_clipPath_TzoLSQBFjHhkFKLgpM6wqrWXRbeXQKzS"><rect width="100" height="100"/></clipPath></defs><g clip-path="url(#_clipPath_TzoLSQBFjHhkFKLgpM6wqrWXRbeXQKzS)"><rect width="100" height="100" style="fill:rgb(0,0,0)" fill-opacity="0"/><path d=" M 93.77 37.5 L 95.313 37.5 C 97.91 37.5 100 35.411 100 32.813 L 100 4.689 C 100 2.794 98.867 1.076 97.109 0.353 C 95.352 -0.37 93.34 0.041 91.992 1.369 L 81.895 11.486 C 73.243 4.318 62.111 0.001 50.001 0.001 C 24.807 0.001 3.968 18.634 0.511 42.871 C 0.023 46.289 2.386 49.453 5.804 49.941 C 9.221 50.43 12.385 48.047 12.874 44.649 C 15.471 26.466 31.115 12.501 50.001 12.501 C 58.673 12.501 66.642 15.431 72.989 20.372 L 63.868 29.493 C 62.521 30.84 62.13 32.852 62.853 34.61 C 63.575 36.368 65.294 37.5 67.188 37.5 L 93.77 37.5 Z " fill="rgb(150,43,72)"/><path d=" M 99.512 57.129 C 100 53.711 97.617 50.547 94.219 50.059 C 90.821 49.57 87.637 51.953 87.149 55.351 C 84.551 73.515 68.907 87.479 50.021 87.479 C 41.349 87.479 33.381 84.55 27.033 79.608 L 36.135 70.507 C 37.482 69.16 37.873 67.148 37.15 65.39 C 36.428 63.632 34.709 62.5 32.815 62.5 L 4.69 62.5 C 2.093 62.5 0.003 64.589 0.003 67.187 L 0.003 95.311 C 0.003 97.206 1.136 98.924 2.894 99.647 C 4.651 100.37 6.663 99.959 8.011 98.631 L 18.127 88.514 C 26.76 95.682 37.892 99.999 50.001 99.999 C 75.196 99.999 96.035 81.366 99.492 57.129 L 99.512 57.129 Z " fill="rgb(252,134,139)"/></g></svg>