<svg width="50" height="50" viewBox="0 0 50 50" xmlns="http://www.w3.org/2000/svg"><path d="M49.691 30.306c0-.722-.546-1.251-1.298-1.251s-1.299.529-1.299 1.251c0 .721.547 1.25 1.299 1.25.752 0 1.298-.53 1.298-1.25Zm-1.64.064v.818h-.281v-1.803h.7c.41 0 .598.168.598.496a.382.382 0 0 1-.333.384v.008c.163.024.222.16.256.409.025.161.06.44.12.506h-.332c-.078-.169-.07-.409-.13-.61-.05-.152-.136-.208-.323-.208h-.275Zm.35-.233c.273 0 .351-.136.351-.257 0-.142-.078-.255-.352-.255h-.349v.513h.35Zm-1.616.17c0-.891.753-1.493 1.606-1.493.856 0 1.608.602 1.608 1.492 0 .889-.752 1.49-1.608 1.49-.853 0-1.606-.601-1.606-1.49Zm-5.568 1.23-1.852-1.948-1.836 1.948h-3.863l3.776-3.979-3.776-3.98h3.984l1.87 1.934 1.8-1.933h3.845l-3.757 3.963 3.81 3.995h-4Zm-14.969 0V19h7.418v2.794H29.39v1.785h4.276v2.688H29.39v2.468h4.276v2.802h-7.418Z" fill="#FF5A00"/><path d="M23.118 19v5.13h-.034c-.693-.746-1.56-1.006-2.563-1.006-2.058 0-3.608 1.313-4.152 3.047-.62-1.912-2.22-3.083-4.593-3.083-1.927 0-3.448.81-4.243 2.133v-1.643H3.55v-1.783h4.347V19H0v12.536h3.55v-5.27h3.54a4.713 4.713 0 0 0-.162 1.24c0 2.614 2.13 4.45 4.848 4.45 2.286 0 3.793-1.007 4.59-2.84h-3.043c-.411.551-.723.714-1.546.714-.954 0-1.777-.78-1.777-1.705h6.195c.27 2.077 1.994 3.867 4.362 3.867 1.02 0 1.956-.47 2.527-1.266h.035v.812h3.13V19h-3.13Zm-13.02 7.305c.197-.797.856-1.317 1.678-1.317.905 0 1.53.504 1.694 1.317h-3.372Zm11.12 3.324c-1.153 0-1.87-1.008-1.87-2.06 0-1.126.624-2.207 1.87-2.207 1.294 0 1.81 1.081 1.81 2.206 0 1.067-.546 2.061-1.81 2.061Z" fill="#29007C"/></svg>
