<svg xmlns="http://www.w3.org/2000/svg" xmlns:xlink="http://www.w3.org/1999/xlink" width="240" height="70" viewBox="0 0 240 70">
    <!-- Text -->
    <rect x="0" y="5" width="60" height="60" fill="#ffffff"/>
    <rect x="15" y="30" width="30" height="2" fill="#333333"/>
    <rect x="15" y="35" width="30" height="1" fill="#777777"/>
    <rect x="15" y="38" width="30" height="1" fill="#777777"/>
    <rect x="15" y="41" width="20" height="1" fill="#777777"/>
    <!-- Text -->
    <rect x="60" y="5" width="60" height="60" fill="#c9ecfc"/>
    <rect x="75" y="30" width="30" height="2" fill="#333333"/>
    <rect x="75" y="35" width="30" height="1" fill="#777777"/>
    <rect x="75" y="38" width="30" height="1" fill="#777777"/>
    <rect x="75" y="41" width="20" height="1" fill="#777777"/>
    <!-- Text -->
    <rect x="120" y="5" width="60" height="60" fill="#ffffff"/>
    <rect x="135" y="30" width="30" height="2" fill="#333333"/>
    <rect x="135" y="35" width="30" height="1" fill="#777777"/>
    <rect x="135" y="38" width="30" height="1" fill="#777777"/>
    <rect x="135" y="41" width="20" height="1" fill="#777777"/>
    <!-- Text -->
    <rect x="180" y="5" width="60" height="60" fill="#c9ecfc"/>
    <rect x="195" y="30" width="30" height="2" fill="#333333"/>
    <rect x="195" y="35" width="30" height="1" fill="#777777"/>
    <rect x="195" y="38" width="30" height="1" fill="#777777"/>
    <rect x="195" y="41" width="20" height="1" fill="#777777"/>
</svg>
