<svg xmlns="http://www.w3.org/2000/svg" width="680" height="143"><g fill="none" fill-rule="evenodd"><g fill-rule="nonzero"><path fill="#888" d="M397.168 143.475c-30.083 0-54.47-24.387-54.47-54.47 0-30.084 24.387-54.472 54.47-54.472 30.084 0 54.471 24.388 54.471 54.471 0 30.084-24.387 54.471-54.47 54.471zm0-22.365c17.732 0 32.106-14.375 32.106-32.106S414.9 56.9 397.168 56.9c-17.73 0-32.105 14.374-32.105 32.105 0 17.731 14.374 32.106 32.105 32.106zm-115.435 22.365c-30.083 0-54.47-24.387-54.47-54.47 0-30.084 24.387-54.472 54.47-54.472 30.084 0 54.471 24.388 54.471 54.471 0 30.084-24.387 54.471-54.47 54.471zm0-22.365c17.732 0 32.106-14.375 32.106-32.106S299.465 56.9 281.733 56.9c-17.73 0-32.105 14.374-32.105 32.105 0 17.731 14.374 32.106 32.105 32.106z"/><path fill="#888" d="M222.306 88.575l.001.43c0 30.083-24.387 54.47-54.47 54.47-30.084 0-54.471-24.387-54.471-54.47 0-30.084 24.387-54.472 54.47-54.472a54.23 54.23 0 0 1 32.84 11.009V10.825C200.676 4.847 205.52 0 211.498 0c5.977 0 10.822 4.851 10.822 10.825v77.191c0 .188-.005.374-.014.559zm-54.47 32.535c17.732 0 32.106-14.375 32.106-32.106S185.568 56.9 167.837 56.9c-17.732 0-32.106 14.374-32.106 32.105 0 17.731 14.374 32.106 32.106 32.106z"/><path fill="#9C5789" d="M54.97 143.354C24.887 143.354.5 118.967.5 88.884.5 58.8 24.887 34.411 54.97 34.411c30.084 0 54.471 24.388 54.471 54.471 0 30.084-24.387 54.471-54.47 54.471zm-.5-22.147c17.732 0 32.106-14.374 32.106-32.106 0-17.73-14.374-32.105-32.105-32.105-17.731 0-32.105 14.374-32.105 32.105 0 17.732 14.374 32.106 32.105 32.106z"/></g><text fill="#8F8F8F" font-family="Helvetica" font-size="134" letter-spacing="-4.438"><tspan x="478" y="143">IAP</tspan></text></g></svg>