<svg viewBox="0 0 1400 1400" fill="#3AADAA" xmlns="http://www.w3.org/2000/svg">
    <path d="M1468.68 1712.78C1467.26 1639.8 1398.83 1557.11 1410.13 1452.96C1420.85 1349.14 1510.74 1224.18 1479.4 1208.46C1447.16 1192.49 1292.22 1285.86 1191.33 1282.64C1090.78 1280.01 1044.05 1181.71 968.281 1135.54C892.847 1089.96 788.955 1096.17 722.73 1149.03C657.08 1201.57 629.095 1300.76 631.1 1393.38C633.682 1485.67 666.497 1570.49 730.122 1612.91C794.08 1655.9 888.516 1655.92 953.793 1646.65C1019.98 1637.62 1056.1 1619.06 1115.27 1661.74C1174.78 1705 1256.76 1809.84 1330.67 1830.17C1404.59 1850.51 1469.85 1786.66 1468.68 1712.78Z"/>
</svg>
