<svg viewBox="0 0 1400 1400" fill="#3AADAA" xmlns="http://www.w3.org/2000/svg">
    <path d="M1468.68 312.777C1467.26 239.801 1398.83 157.114 1410.13 52.9592C1420.85 -50.8628 1510.74 -175.82 1479.4 -191.541C1447.16 -207.505 1292.22 -114.145 1191.33 -117.357C1090.78 -119.992 1044.05 -218.291 968.281 -264.456C892.847 -310.044 788.955 -303.832 722.73 -250.965C657.08 -198.431 629.095 -99.2431 631.1 -6.6197C633.682 85.671 666.497 170.488 730.122 212.906C794.08 255.9 888.516 255.919 953.793 246.648C1019.98 237.621 1056.1 219.059 1115.27 261.743C1174.78 305.004 1256.76 409.843 1330.67 430.175C1404.59 450.506 1469.85 386.663 1468.68 312.777Z"/>
</svg>
