<?xml version="1.0" encoding="UTF-8"?>
<svg xmlns="http://www.w3.org/2000/svg" viewBox="0 0 200 128">
  <defs>
    <style>
      .cls-1 {
        fill: #fff;
      }

      .cls-2 {
        fill: #fca612;
      }

      .cls-3 {
        fill: #575a5d;
      }
    </style>
  </defs>
  <g id="BG">
    <rect class="cls-1" x="0" y="0" width="200" height="128" rx="4" ry="4"/>
  </g>
  <g id="LOGOS">
    <g>
      <path class="cls-2" d="m40.76,85.6c-8.51-.23-15.95-4.33-21.1-12.53-1.72-2.74-2.86-5.74-3.34-8.89-.54-3.54-.4-7.12.51-10.66.94-3.65,2.72-6.82,4.99-9.77.16-.21.36-.56.67-.37.21.13.05.44-.04.69-1.01,2.9-.98,5.88.48,8.5,1.67,3.01,4.19,5.2,7.83,5.77,3.49.55,6.55-.45,8.98-2.81,2.94-2.86,4.16-6.38,3.02-10.55-.61-2.21-1.64-4.1-3.44-5.5-2.33-1.81-4.97-2.69-7.94-2.39-.21.02-.48.17-.57-.12-.09-.29.22-.3.4-.38,3.34-1.48,6.87-2.21,10.5-2.19,3.71.02,7.31.82,10.68,2.4,4.59,2.15,8.34,5.33,10.95,9.71,1.93,3.24,3.15,6.73,3.6,10.52.33,2.8.17,5.51-.4,8.24-.71,3.36-2.01,6.46-4,9.26-1.82,2.56-3.95,4.78-6.62,6.51-2.13,1.38-4.32,2.51-6.74,3.28-2.38.76-4.79,1.16-8.42,1.27Z"/>
      <path class="cls-3" d="m94.38,85.39c-2.14,0-4.11-.02-6.06.01-.51,0-.64-.32-.83-.64-1.45-2.38-2.89-4.77-4.36-7.14-.78-1.25-1.81-2.08-3.43-1.95-.6.05-.81.17-.8.8.03,2.7-.01,5.39.03,8.09.01.68-.2.85-.85.83-1.3-.05-2.6-.07-3.9,0-.76.04-.87-.24-.86-.91.02-7.58,0-15.16.04-22.74,0-.49-.45-1.14.04-1.45.37-.23.99-.06,1.49-.06,3.01,0,6.03-.05,9.04.04,1.93.06,3.78.59,5.36,1.79,1.34,1.02,1.88,2.44,2.01,4.1.19,2.41-.35,4.51-2.22,6.16-.92.81-2.02,1.29-3.25,1.75,2.52,1.34,3.71,3.75,5.14,5.96,1.12,1.72,2.22,3.46,3.43,5.37Zm-15.48-17.52c0,.98,0,1.96,0,2.94,0,.32-.05.66.45.64.95-.03,1.91.06,2.84-.09,1.61-.26,2.74-1.13,3.13-2.82.38-1.68-.14-2.96-1.67-3.62-1.38-.59-2.87-.5-4.34-.49-.44,0-.4.3-.4.59,0,.95,0,1.9,0,2.85Z"/>
      <path class="cls-3" d="m126.68,83.01c-1.14,1.4-2.3,2.35-3.93,2.61-3.19.51-5.66-.07-7.64-3.04-2.4-3.6-1.79-9.71.76-12.89,2.21-2.75,5.85-3.09,8.65-2.14.85.29,1.57.96,2.28,1.97,0-1.85,0-3.42,0-4.98,0-1.68.02-3.36-.01-5.04-.01-.57.14-.78.74-.76,1.3.04,2.6.07,3.9,0,.8-.04.93.26.93.97-.02,7.26-.01,14.52-.01,21.78,0,1.05-.03,2.09.01,3.14.02.57-.14.78-.74.76-1.39-.04-2.79-.05-4.18,0-.66.02-.82-.22-.76-.81.04-.44,0-.89,0-1.58Zm.17-7.25c0-.35.02-.7,0-1.04-.12-1.6-1.21-2.96-2.7-3.37-1.58-.44-2.98.1-4,1.47-.92,1.24-.82,2.68-.78,4.09.02.72-.14,1.45.18,2.17.75,1.73,1.83,2.6,3.73,2.49,1.6-.09,2.73-1.12,3.23-2.94.26-.94.39-1.89.34-2.86Z"/>
      <path class="cls-2" d="m150.64,88.85c.92.19,1.67.62,2.57.55,1.24-.09,2.44-.96,2.81-2.16.14-.44.27-.91.52-1.29.36-.55.31-1.11.11-1.63-.65-1.66-1.37-3.3-2.04-4.95-1.02-2.53-2.03-5.06-3.05-7.59-.55-1.36-1.23-2.67-1.67-4.08-.14-.46-.1-.62.42-.62,1.65.02,3.3.03,4.95,0,.46,0,.62.25.72.58.99,3.33,1.95,6.67,2.96,9.99.21.7.56,1.36.82,2.13.32-1.04.65-2.08.97-3.12.65-2.14,1.3-4.29,1.95-6.43.24-.8.52-1.6.73-2.42.13-.5.36-.75.91-.74,1.4.02,2.79.03,4.19,0,.73-.02.69.29.46.81-1.3,2.95-2.19,6.04-3.42,9.01-1.02,2.47-1.97,4.97-2.84,7.49-.64,1.86-1.43,3.61-2.38,5.32-1.38,2.49-3.5,3.79-6.34,3.85-.97.02-1.95.13-2.91-.17-.32-.1-.42-.23-.42-.5,0-1.33,0-2.65,0-4.04Z"/>
      <path class="cls-3" d="m109.86,80.49c0,1.29,0,2.45,0,3.61,0,.55-.47.62-.84.76-1.96.76-4.01.87-6.09.92-2.32.06-4.33-.65-6.06-2.14-2.37-2.05-2.77-4.78-2.65-7.72.14-3.33,1.48-5.92,4.31-7.73,2.06-1.32,4.37-1.39,6.58-.94,4.08.83,6.17,3.59,6.3,7.81.02.7-.03,1.4.02,2.09.05.67-.17.86-.84.85-3.33-.03-6.66-.02-9.99-.02-1.11,0-1.17.09-.73,1.09.99,2.25,2.96,3.11,5.41,2.77,1.57-.22,3.05-.58,4.57-1.36Zm-6.99-5.94c.89,0,1.78,0,2.67,0,.28,0,.52.05.59-.39.27-1.77-.92-3.32-2.7-3.44-1.7-.11-3.61,1.58-3.79,3.33-.05.46.19.51.56.5.89-.02,1.78,0,2.67,0Z"/>
      <path class="cls-2" d="m170.26,80.16c2.01,1.23,3.96,1.77,6.1,1.58.31-.03.6-.05.91-.15.77-.25,1.4-.53,1.38-1.52-.02-.99-.82-1.28-1.47-1.46-1.27-.35-2.51-.76-3.67-1.34-1.72-.87-3.14-2.03-3.27-4.22-.15-2.44.76-4.25,2.94-5.33,2.11-1.05,4.34-1.25,6.66-.87.89.15,1.79.21,2.67.41.45.1.56.32.55.72-.01,1.01-.02,2.03,0,3.04,0,.51-.05.65-.63.4-1.69-.74-3.47-1.11-5.32-.73-.65.13-1.34.33-1.45,1.11-.12.83.55,1.26,1.15,1.56.88.46,1.82.85,2.77,1.1.9.24,1.68.69,2.44,1.14,1.23.73,1.98,1.84,1.98,3.33,0,3.95-1.95,6.08-5.91,6.49-2.39.24-4.76.3-7.1-.39-.45-.13-.7-.32-.71-.73-.03-1.32-.01-2.64-.01-4.15Z"/>
      <path class="cls-2" d="m140.01,85.56c-1.47-.01-2.94-.05-4.35-.57-.44-.16-.65-.39-.64-.88.03-1.01.02-2.03,0-3.04,0-.6.1-.83.75-.46,1.74.99,3.65,1.28,5.63,1.16.58-.03,1.1-.3,1.55-.6.7-.47.61-1.45-.07-1.98-1.08-.84-2.39-1.13-3.65-1.54-1.81-.58-3.19-1.61-4-3.36-1.12-2.42.81-6.14,3.36-6.84,1.68-.46,3.33-.81,5.07-.77,1.29.03,2.5.54,3.79.6.27.01.32.26.32.5,0,1.11,0,2.22,0,3.33,0,.58-.29.42-.61.27-1.51-.73-3.12-.89-4.78-.86-.43,0-.81.14-1.17.3-.85.38-1.02,1.31-.38,1.98.66.69,1.52,1.07,2.42,1.35,1.58.5,3.17.92,4.36,2.23,1.18,1.29,1.31,2.81,1.04,4.39-.46,2.73-2.5,3.81-4.9,4.44-1.24.33-2.5.39-3.78.35Z"/>
      <path class="cls-2" d="m155.04,64.2c.62-1.31,1.81-2.06,2.43-3.21,1.16-2.16,2.93-2.82,5.24-2.45.45.07.93.01,1.65.01-1.14,1.22-2.13,2.27-3.12,3.33-.09.09-.18.17-.27.26q-2.36,2.37-5.93,2.06Z"/>
    </g>
  </g>
</svg>