<svg width="50" height="50" viewBox="0 0 50 50" xmlns="http://www.w3.org/2000/svg"><path fill-rule="evenodd" clip-rule="evenodd" d="M15.724 6.397C16.377 4.94 17.852 4 19.481 4h11.037c1.63 0 3.104.94 3.757 2.397L37.236 13H41.9c2.46 0 4.367 2.099 4.07 4.481l-3.106 25C42.613 44.49 40.866 46 38.793 46H11.207c-2.074 0-3.82-1.51-4.07-3.519l-3.107-25C3.734 15.1 5.64 13 8.1 13h4.663l2.961-6.603ZM32.917 13H17.082c0-.56.123-1.134.39-1.691l.956-2C19.102 7.9 20.551 7 22.144 7h5.711c1.593 0 3.042.9 3.716 2.308l.957 2c.266.558.39 1.132.39 1.692Z" fill="var(--o-icons-teal-teal, #00A079)"/><path fill-rule="evenodd" clip-rule="evenodd" d="M15.724 6.397C16.377 4.94 17.852 4 19.481 4h11.037c1.63 0 3.104.94 3.757 2.397L37.236 13H41.9c2.46 0 4.367 2.099 4.07 4.481l-3.106 25C42.613 44.49 40.866 46 38.793 46H11.207c-2.074 0-3.82-1.51-4.07-3.519l-3.107-25C3.734 15.1 5.64 13 8.1 13h4.663l2.961-6.603ZM32.917 13H17.082c0-.56.123-1.134.39-1.691l.956-2C19.102 7.9 20.551 7 22.144 7h5.711c1.593 0 3.042.9 3.716 2.308l.957 2c.266.558.39 1.132.39 1.692Z" fill="url(#o_icon_website_sale_digital__a)" fill-opacity=".2"/><path fill-rule="evenodd" clip-rule="evenodd" d="M8.514 45.016a3.963 3.963 0 0 1-1.377-2.535l-3.107-25C3.734 15.1 5.64 13 8.1 13h4.663l2.961-6.603C16.377 4.94 17.852 4 19.481 4h11.037c1.63 0 3.104.94 3.757 2.397l2.59 5.777C35.5 28.256 23.848 41.405 8.515 45.016ZM17.082 13h15.835c0-.56-.123-1.134-.39-1.691l-.956-2C30.897 7.9 29.448 7 27.855 7h-5.711c-1.593 0-3.042.9-3.716 2.308l-.956 2a3.904 3.904 0 0 0-.39 1.692Z" fill="var(--o-icons-teal-pure, #00CEB3)"/><path fill-rule="evenodd" clip-rule="evenodd" d="M8.514 45.016a3.963 3.963 0 0 1-1.377-2.535l-3.107-25C3.734 15.1 5.64 13 8.1 13h4.663l2.961-6.603C16.377 4.94 17.852 4 19.481 4h11.037c1.63 0 3.104.94 3.757 2.397l2.59 5.777C35.5 28.256 23.848 41.405 8.515 45.016ZM17.082 13h15.835c0-.56-.123-1.134-.39-1.691l-.956-2C30.897 7.9 29.448 7 27.855 7h-5.711c-1.593 0-3.042.9-3.716 2.308l-.956 2a3.904 3.904 0 0 0-.39 1.692Z" fill="url(#o_icon_website_sale_digital__b)" fill-opacity=".2"/><path d="M17.142 20.864a4 4 0 0 1 4.899-2.829l11.59 3.106a4 4 0 0 1 2.83 4.9l-3.106 11.59a4 4 0 0 1-4.9 2.829l-11.59-3.106a4 4 0 0 1-2.829-4.899l3.106-11.591Z" fill="var(--o-icons-white, #FFFFFF)"/><path d="m22 32.727 6.83-2.31L24.07 25 22 32.727Z" fill="var(--o-icons-teal-teal, #00A079)"/><path d="m22 32.727 6.83-2.31L24.07 25 22 32.727Z" fill="url(#o_icon_website_sale_digital__c)" fill-opacity=".2"/><defs><linearGradient id="o_icon_website_sale_digital__a" x1="4" y1="4" x2="53.412" y2="16.353" gradientUnits="userSpaceOnUse"><stop stop-color="#fff"/><stop offset="1" stop-color="#fff" stop-opacity="0"/></linearGradient><linearGradient id="o_icon_website_sale_digital__b" x1="4" y1="4" x2="43.497" y2="11.912" gradientUnits="userSpaceOnUse"><stop stop-color="#fff"/><stop offset="1" stop-color="#fff" stop-opacity="0"/></linearGradient><linearGradient id="o_icon_website_sale_digital__c" x1="22" y1="25" x2="30.141" y2="26.799" gradientUnits="userSpaceOnUse"><stop stop-color="#fff"/><stop offset="1" stop-color="#fff" stop-opacity="0"/></linearGradient></defs></svg>
