<svg width="28" height="28" viewBox="0 0 40 40" fill="none" xmlns="http://www.w3.org/2000/svg">
<path d="M27.5213 31.5772C27.8954 31.1898 28.3429 30.8809 28.8377 30.6683C29.3325 30.4558 29.8646 30.3439 30.4031 30.3392C30.9416 30.3345 31.4757 30.4371 31.9741 30.6411C32.4725 30.845 32.9253 31.1461 33.3061 31.5269C33.6869 31.9077 33.988 32.3605 34.1919 32.8589C34.3958 33.3573 34.4985 33.8914 34.4938 34.4298C34.4891 34.9683 34.3772 35.5005 34.1647 35.9953C33.9521 36.4901 33.6432 36.9376 33.2558 37.3117C32.4909 38.0505 31.4665 38.4592 30.4031 38.45C29.3398 38.4408 28.3226 38.0142 27.5707 37.2623C26.8187 36.5104 26.3922 35.4932 26.383 34.4298C26.3737 33.3665 26.7825 32.3421 27.5213 31.5772Z" stroke="#0D5272" stroke-width="3" stroke-linecap="round" stroke-linejoin="round"/>
<path d="M12.9785 37.3117C13.3658 36.9376 13.6748 36.4901 13.8873 35.9953C14.0999 35.5005 14.2117 34.9683 14.2164 34.4298C14.2211 33.8914 14.1185 33.3573 13.9146 32.8589C13.7107 32.3605 13.4095 31.9077 13.0287 31.5269C12.6479 31.1461 12.1951 30.845 11.6967 30.6411C11.1983 30.4371 10.6643 30.3345 10.1258 30.3392C9.58729 30.3439 9.05512 30.4558 8.56033 30.6683C8.06553 30.8809 7.61802 31.1898 7.24391 31.5772C6.50516 32.3421 6.09638 33.3665 6.10562 34.4298C6.11486 35.4932 6.54138 36.5104 7.29331 37.2623C8.04525 38.0142 9.06243 38.4408 10.1258 38.45C11.1891 38.4592 12.2136 38.0505 12.9785 37.3117Z" stroke="#0D5272" stroke-width="3" stroke-linecap="round" stroke-linejoin="round"/>
<path d="M10.1111 22.2777L5.46139 26.9274C4.18389 28.2049 5.08828 30.3888 6.89503 30.3888H30.3889" stroke="#0D5272" stroke-width="3" stroke-linecap="round" stroke-linejoin="round"/>
<path d="M6.8667 6.0556H38.5L30.3889 22.2778H10.1111L6.8667 6.0556Z" stroke="#0D5272" stroke-width="3" stroke-linecap="round" stroke-linejoin="round"/>
<path d="M2 2H6.05555L6.86667 6.05555" stroke="#0D5272" stroke-width="3" stroke-linecap="round" stroke-linejoin="round"/>
</svg>
