<svg width="18" height="18" viewBox="0 0 22 22" fill="none" xmlns="http://www.w3.org/2000/svg">
<path d="M17.8701 0.899336L10.799 7.9704L3.72792 0.899334C2.94728 0.118688 1.68014 0.118688 0.899494 0.899334C0.118848 1.67998 0.118848 2.94712 0.899494 3.72776L7.97056 10.7988L0.899495 17.8699C0.118849 18.6505 0.118849 19.9177 0.899495 20.6983C1.68014 21.479 2.94728 21.479 3.72792 20.6983L10.799 13.6273L17.8701 20.6983C18.6507 21.479 19.9178 21.479 20.6985 20.6983C21.4791 19.9177 21.4791 18.6505 20.6985 17.8699L13.6274 10.7988L20.6985 3.72776C21.4791 2.94712 21.4791 1.67998 20.6985 0.899336C19.9178 0.11869 18.6507 0.11869 17.8701 0.899336Z" fill="#0D5272"/>
</svg>
