<svg width="50" height="40" viewBox="0 0 100 70" fill="none" xmlns="http://www.w3.org/2000/svg">
<path d="M4.56676 5.66015C7.21094 7.24609 43.941 30.0234 45.3111 30.8437C46.6813 31.6641 48.0755 32.0469 50.2389 32.0469C52.4023 32.0469 53.7965 31.6641 55.1667 30.8437C56.5369 30.0234 93.2669 7.24609 95.9111 5.66015C96.8966 5.08594 98.5552 4.04687 98.9158 2.87109C99.5408 0.792969 98.8677 0 96.1995 0H50.2389H4.27831C1.61009 0 0.937028 0.820312 1.56202 2.87109C1.92259 4.07422 3.58121 5.08594 4.56676 5.66015Z" fill="#0D5272"/>
<path d="M98.0028 6.89065C96.0317 8.03909 78.3398 22.3672 66.6333 30.9805L86.3925 56.2734C86.8732 56.8203 87.0896 57.4766 86.8251 57.8047C86.5367 58.1055 85.9117 57.9414 85.4069 57.4219L61.7055 34.6719C58.1238 37.2969 55.5998 39.1016 55.1671 39.375C53.3162 40.4414 52.0182 40.5781 50.2394 40.5781C48.4605 40.5781 47.1625 40.4414 45.3116 39.375C44.8549 39.1016 42.3549 37.2969 38.7732 34.6719L15.0718 57.4219C14.591 57.9688 13.942 58.1328 13.6536 57.8047C13.3651 57.5039 13.5815 56.8203 14.0622 56.2734L33.7974 30.9805C22.0909 22.3672 4.20664 8.03909 2.23553 6.89065C0.12019 5.66018 0 7.1094 0 8.2305C0 9.35159 0 64.2852 0 64.2852C0 66.8281 3.2932 70 5.64892 70H50.2394H94.8298C97.1855 70 99.998 66.8008 99.998 64.2852C99.998 64.2852 99.998 9.32425 99.998 8.2305C99.998 7.08206 100.142 5.66018 98.0028 6.89065Z" fill="#0D5272"/>
</svg>
