<svg width="28" height="28" viewBox="0 0 28 28" fill="none" xmlns="http://www.w3.org/2000/svg">
<path d="M10.5358 0.614261C10.5331 0.596752 10.5331 0.579242 10.5288 0.562679C10.5233 0.540436 10.513 0.519141 10.5053 0.496899C10.4972 0.47513 10.4917 0.451941 10.4813 0.431119C10.4726 0.413609 10.4601 0.397519 10.4497 0.380482C10.4356 0.357294 10.423 0.333159 10.4061 0.31139C10.3936 0.2953 10.3773 0.281576 10.3631 0.266432C10.344 0.246083 10.326 0.224314 10.3048 0.205858C10.2917 0.1945 10.2759 0.185509 10.2617 0.175098C10.235 0.155222 10.2078 0.134399 10.1784 0.117363C10.1762 0.116416 10.1745 0.114523 10.1724 0.113104C10.1577 0.104585 10.1408 0.099853 10.1255 0.0927544C10.0961 0.0785573 10.0672 0.0634137 10.035 0.0525293C10.0116 0.0444843 9.98763 0.0397519 9.96366 0.0331266C9.93641 0.026028 9.90971 0.017983 9.88191 0.0132506C9.85194 0.00804503 9.82252 0.00709855 9.792 0.0052056C9.77129 0.00425913 9.75113 0 9.72988 0C9.72661 0 9.72388 0.000473237 9.72061 0.000946474C9.69118 0.000946474 9.66285 0.0052056 9.63342 0.00851826C9.60835 0.0113577 9.58274 0.0118309 9.55822 0.0165633C9.54351 0.0189295 9.52988 0.0246083 9.51571 0.027921C9.47866 0.0364392 9.44215 0.0449575 9.40727 0.0577349C9.40346 0.0591546 9.40019 0.0615208 9.39637 0.0629405C9.35223 0.079977 9.30973 0.099853 9.26995 0.123042C9.25741 0.130613 9.24651 0.140551 9.23398 0.14907C9.20455 0.168946 9.17458 0.188348 9.14842 0.211064C9.13698 0.221475 9.12717 0.234252 9.11573 0.245137C9.09121 0.269272 9.06723 0.29388 9.04652 0.320381C9.04543 0.322274 9.04325 0.323694 9.04162 0.325587L0.13021 12.3425C-0.113923 12.6719 -0.00493499 13.1115 0.374888 13.3235C0.511668 13.4002 0.664796 13.4366 0.816835 13.4366C1.08549 13.4366 1.3487 13.3216 1.50509 13.111L8.91247 3.12289V27.2897C8.91247 27.6815 9.27812 27.9995 9.72988 27.9995C10.1816 27.9995 10.5473 27.6815 10.5473 27.2897V0.709855C10.5473 0.707489 10.5467 0.705123 10.5467 0.702757C10.5462 0.672943 10.5407 0.643602 10.5358 0.614261Z" fill="black"/>
<path d="M27.6245 14.6765C27.2447 14.464 26.739 14.5591 26.4949 14.8885L19.087 24.8766V0.709855C19.087 0.317542 18.7208 0 18.2696 0C17.8183 0 17.4521 0.317542 17.4521 0.709855V27.2897C17.4521 27.292 17.4527 27.2939 17.4527 27.2963C17.4532 27.328 17.4587 27.3592 17.4641 27.3905C17.4669 27.4056 17.4669 27.4212 17.4707 27.4368C17.4772 27.4643 17.4887 27.4899 17.4996 27.5168C17.5061 27.5339 17.5105 27.5514 17.5181 27.5679C17.5317 27.5963 17.5513 27.6228 17.5693 27.6498C17.578 27.6616 17.5835 27.6758 17.5933 27.6872C17.6096 27.7085 17.6303 27.7274 17.65 27.7468C17.6647 27.7624 17.6783 27.779 17.6946 27.7932C17.7094 27.806 17.7279 27.8164 17.7437 27.8282C17.7688 27.8467 17.7938 27.8661 17.8216 27.8822C17.8238 27.8831 17.826 27.885 17.8282 27.8864C17.8342 27.8897 17.8401 27.8907 17.8461 27.894C17.8995 27.9224 17.9562 27.9437 18.0167 27.9617C18.0331 27.9664 18.0499 27.9716 18.0668 27.9749C18.1317 27.9891 18.1987 27.9995 18.2685 28C18.269 28 18.2696 28 18.2701 28C18.3339 28 18.3954 27.992 18.4548 27.9801C18.4717 27.9768 18.4881 27.9711 18.5044 27.9673C18.5469 27.9565 18.5883 27.9427 18.6281 27.9257C18.6472 27.9177 18.6652 27.9091 18.6837 27.8997C18.7213 27.8803 18.7562 27.8585 18.7894 27.8348C18.8041 27.8244 18.8194 27.8145 18.8336 27.8031C18.8788 27.7657 18.9191 27.7246 18.954 27.6791C18.9551 27.6773 18.9573 27.6763 18.9584 27.6744L27.8703 15.6575C28.1139 15.3281 28.0044 14.8885 27.6245 14.6765Z" fill="black"/>
</svg>
