<svg width="28" height="22" viewBox="0 0 28 26" fill="none" xmlns="http://www.w3.org/2000/svg">
<path d="M14.0002 6.23779C10.0486 6.23779 6.77441 9.2257 6.77441 12.9475C6.77441 16.6692 9.99216 19.6571 14.0002 19.6571C18.0083 19.6571 21.226 16.6168 21.226 12.9475C21.226 9.27812 17.9518 6.23779 14.0002 6.23779ZM14.0002 17.2459C11.4599 17.2459 9.37119 15.3063 9.37119 12.9475C9.37119 10.5886 11.4599 8.64908 14.0002 8.64908C16.5405 8.64908 18.6293 10.5886 18.6293 12.9475C18.6293 15.3063 16.5405 17.2459 14.0002 17.2459Z" fill="white"/>
<path d="M21.5082 7.60087C22.4123 7.60087 23.1453 6.92027 23.1453 6.08071C23.1453 5.24115 22.4123 4.56055 21.5082 4.56055C20.604 4.56055 19.8711 5.24115 19.8711 6.08071C19.8711 6.92027 20.604 7.60087 21.5082 7.60087Z" fill="white"/>
<path d="M25.7419 2.14919C24.2742 0.733871 22.1855 0 19.8145 0H8.18548C3.27419 0 0 3.04032 0 7.60081V18.3468C0 20.6008 0.790322 22.5403 2.37097 23.9556C3.89516 25.3186 5.92742 26 8.24194 26H19.7581C22.1855 26 24.2177 25.2661 25.6855 23.9556C27.2097 22.5927 28 20.6532 28 18.3992V7.60081C28 5.39919 27.2097 3.5121 25.7419 2.14919ZM25.5161 18.3992C25.5161 20.0242 24.8952 21.3347 23.879 22.2258C22.8629 23.1169 21.4516 23.5887 19.7581 23.5887H8.24194C6.54839 23.5887 5.1371 23.1169 4.12097 22.2258C3.10484 21.2823 2.59677 19.9718 2.59677 18.3468V7.60081C2.59677 6.02823 3.10484 4.71774 4.12097 3.77419C5.08065 2.88306 6.54839 2.41129 8.24194 2.41129H19.871C21.5645 2.41129 22.9758 2.88306 23.9919 3.82661C24.9516 4.77016 25.5161 6.08065 25.5161 7.60081V18.3992Z" fill="white"/>
</svg>
