<svg width="40" height="40" viewBox="0 0 66 73" fill="none" xmlns="http://www.w3.org/2000/svg">
<path d="M33 0C14.7761 0 0 12.2568 0 27.3735C0 38.4099 4.63547 41.4923 29.6141 71.5276C31.2522 73.4908 34.7548 73.4908 36.3928 71.5276C61.3594 41.488 66 38.4085 66 27.3735C66 12.2568 51.2188 0 33 0ZM33 38.6509C25.4152 38.6509 19.25 33.5354 19.25 27.2452C19.25 20.955 25.4203 15.8396 33 15.8396C40.5797 15.8396 46.75 20.955 46.75 27.2452C46.75 33.5354 40.5797 38.6509 33 38.6509Z" fill="#0D5272"/>
</svg>
