<svg width="40" height="40" viewBox="0 0 81 73" fill="none" xmlns="http://www.w3.org/2000/svg">
<path d="M16.3125 31.6131C22.7925 43.0903 33.21 52.4789 45.9675 58.3189L55.8675 49.3764C57.105 48.2611 58.8825 47.9367 60.435 48.3828C65.475 49.8833 70.8975 50.6944 76.5 50.6944C78.9975 50.6944 81 52.4992 81 54.75V68.9444C81 71.1953 78.9975 73 76.5 73C34.245 73 0 42.1372 0 4.05556C0 1.80472 2.025 0 4.5 0H20.25C22.7475 0 24.75 1.80472 24.75 4.05556C24.75 9.10472 25.65 13.9917 27.315 18.5339C27.81 19.9331 27.45 21.535 26.2125 22.6503L16.3125 31.6131Z" fill="#0D5272"/>
</svg>
