<svg width="41" height="39" viewBox="0 0 41 39" fill="none" xmlns="http://www.w3.org/2000/svg">
<path fill-rule="evenodd" clip-rule="evenodd" d="M17.5225 17.0386C17.261 17.292 17.261 17.7016 17.5225 17.955L21.5345 21.8431C21.6649 21.9695 21.8361 22.033 22.0072 22.033C22.1784 22.033 22.3496 21.9695 22.48 21.8431C22.7414 21.5898 22.7414 21.1802 22.48 20.9268L18.468 17.0386C18.2065 16.7853 17.7839 16.7853 17.5225 17.0386ZM15.7933 19.6308C15.5318 19.3774 15.1092 19.3774 14.8478 19.6308C14.5863 19.8841 14.5863 20.2937 14.8478 20.5471L18.8598 24.4353C18.9902 24.5616 19.1614 24.6251 19.3326 24.6251C19.5037 24.6251 19.6749 24.5616 19.8053 24.4353C20.0668 24.1819 20.0668 23.7723 19.8053 23.5189L15.7933 19.6308ZM13.1186 22.2229C12.8572 21.9695 12.4346 21.9695 12.1731 22.2229C11.9117 22.4763 11.9117 22.8858 12.1731 23.1392L16.1851 27.0274C16.3155 27.1537 16.4867 27.2173 16.6579 27.2173C16.8291 27.2173 17.0002 27.1537 17.1306 27.0274C17.3921 26.774 17.3921 26.3644 17.1306 26.1111L13.1186 22.2229ZM25.7424 20.737L18.6639 13.8769L8.91068 23.3291L15.9892 30.1891L25.7424 20.737ZM19.1366 12.5024L27.1607 20.2788C27.4221 20.5322 27.4221 20.9417 27.1607 21.1951L16.462 31.5636C16.3316 31.69 16.1604 31.7535 15.9892 31.7535C15.818 31.7535 15.6469 31.69 15.5165 31.5636L7.49243 23.7872C7.23099 23.5339 7.23099 23.1243 7.49243 22.8709L18.1911 12.5024C18.4526 12.2491 18.8752 12.2491 19.1366 12.5024ZM34.6952 23.7017C34.3756 23.5196 33.9664 23.6239 33.7798 23.933L26.1155 36.602C25.5619 37.5306 24.3322 37.8501 23.4041 37.3317L21.9109 36.394C21.602 36.1989 21.1874 36.2851 20.9868 36.5852C20.7856 36.8859 20.8738 37.287 21.1841 37.4814L22.706 38.4372C23.2309 38.7308 23.8053 38.8701 24.3723 38.8701C25.5284 38.8701 26.6538 38.2901 27.271 37.2539L34.9333 24.5882C35.1198 24.2797 35.0135 23.8831 34.6952 23.7017ZM40.0613 3.24015V13.6086C40.0613 15.6136 39.4033 17.1073 37.8594 18.603L18.0012 37.8754C17.3693 38.4878 16.5295 38.8241 15.6362 38.8241C14.7428 38.8241 13.9036 38.4878 13.2731 37.8754L0.9796 25.962C0.347708 25.3496 0 24.5357 0 23.6699C0 22.8042 0.347708 21.9909 0.9796 21.3792L18.3476 4.56991C13.806 3.56935 10.9876 3.50195 10.1624 3.73589C10.5108 4.08129 11.5961 4.81486 14.2152 5.81542C14.5589 5.94697 14.7274 6.32283 14.5924 6.65591C14.4566 6.989 14.0681 7.15036 13.7251 7.0214C8.30353 4.9503 8.62048 3.80199 8.74017 3.36976C8.98825 2.46899 10.3129 2.16896 13.0263 2.39901C15.2363 2.58629 18.0888 3.11443 21.0584 3.88494C24.0279 4.6561 26.7695 5.58083 28.7795 6.49002C31.2502 7.60658 32.2405 8.50669 31.9911 9.4081C31.7504 10.2778 30.4993 10.384 30.0881 10.419C30.0687 10.421 30.0486 10.4216 30.0293 10.4216C29.6862 10.4216 29.3947 10.1669 29.3639 9.82996C29.3312 9.47355 29.6033 9.15925 29.9717 9.12815C30.2566 9.10417 30.4458 9.06659 30.5682 9.03289C30.282 8.74322 29.5578 8.29154 28.3997 7.75368C28.157 8.15027 28.0253 8.60584 28.0253 9.07242C28.0253 10.502 29.2248 11.6645 30.6999 11.6645C32.175 11.6645 33.3746 10.502 33.3746 9.07242C33.3746 7.64286 32.175 6.4803 30.6999 6.4803C30.3302 6.4803 30.0313 6.19063 30.0313 5.83227C30.0313 5.47391 30.3302 5.18424 30.6999 5.18424C32.9126 5.18424 34.7119 6.92809 34.7119 9.07242C34.7119 11.2167 32.9126 12.9606 30.6999 12.9606C28.4873 12.9606 26.6879 11.2167 26.6879 9.07242C26.6879 8.42244 26.8644 7.78932 27.1794 7.22424C25.5793 6.57297 23.4328 5.84393 20.7127 5.13693C20.4258 5.06241 20.1497 4.99437 19.8735 4.92632L1.9251 22.2961C1.54596 22.6629 1.33734 23.1515 1.33734 23.6699C1.33734 24.1897 1.54596 24.6776 1.9251 25.0451L14.2186 36.9591C14.9762 37.6933 16.2975 37.6933 17.0551 36.9591L36.9132 17.6867C38.2164 16.4243 38.724 15.2805 38.724 13.6086V3.24015C38.724 2.16831 37.8239 1.29606 36.7179 1.29606H26.0192C24.2941 1.29606 23.1139 1.78791 21.8113 3.05028C21.5499 3.30366 21.1273 3.30366 20.8658 3.05028C20.6044 2.7969 20.6044 2.38734 20.8658 2.13396C22.4091 0.637661 23.9504 0 26.0192 0H36.7179C38.5615 0 40.0613 1.45353 40.0613 3.24015Z" fill="black"/>
</svg>
