<svg width="32" height="29" viewBox="0 0 32 29" fill="none" xmlns="http://www.w3.org/2000/svg">
<path d="M16.3061 4.45094C18.8749 4.43955 21.394 5.39538 23.5737 7.20855C25.7535 9.02171 27.5054 11.6186 28.6281 14.7007C26.323 20.981 21.6149 24.9505 16.3061 24.9505C10.9973 24.9505 6.2892 20.981 3.98406 14.7007C5.10676 11.6186 6.85868 9.02171 9.03843 7.20855C11.2182 5.39538 13.7373 4.43955 16.3061 4.45094ZM16.3061 0.723755C9.32081 0.723755 3.35538 6.51953 0.938477 14.7007C3.35538 22.8819 9.32081 28.6776 16.3061 28.6776C23.2914 28.6776 29.2568 22.8819 31.6737 14.7007C29.2568 6.51953 23.2914 0.723755 16.3061 0.723755ZM16.3061 10.0417C17.2324 10.0417 18.1208 10.5326 18.7758 11.4063C19.4307 12.28 19.7987 13.4651 19.7987 14.7007C19.7987 15.9363 19.4307 17.1214 18.7758 17.9951C18.1208 18.8688 17.2324 19.3597 16.3061 19.3597C15.3798 19.3597 14.4914 18.8688 13.8364 17.9951C13.1814 17.1214 12.8134 15.9363 12.8134 14.7007C12.8134 13.4651 13.1814 12.28 13.8364 11.4063C14.4914 10.5326 15.3798 10.0417 16.3061 10.0417ZM16.3061 6.31453C12.8414 6.31453 10.0193 10.079 10.0193 14.7007C10.0193 19.3224 12.8414 23.0869 16.3061 23.0869C19.7708 23.0869 22.5928 19.3224 22.5928 14.7007C22.5928 10.079 19.7708 6.31453 16.3061 6.31453Z" fill="white"/>
</svg>
