<svg width="49" height="50" viewBox="0 0 49 50" fill="none" xmlns="http://www.w3.org/2000/svg">
<path d="M48.6733 41.456L37.8528 30.6277L38.4273 30.4546C39.4897 30.1398 40.5914 29.8172 41.095 28.9437C41.5987 28.0702 41.3232 26.9842 41.095 25.914C40.8574 25.2053 40.7795 24.4529 40.8668 23.7105C41.156 23.0512 41.5857 22.463 42.1259 21.9871C42.9128 21.2002 43.6998 20.3346 43.6998 19.3037C43.6998 18.2728 42.9128 17.4307 42.1259 16.6202C41.5857 16.1443 41.156 15.5561 40.8668 14.8968C40.7795 14.1545 40.8574 13.402 41.095 12.6934C41.3468 11.6231 41.6144 10.5214 41.095 9.66364C40.5756 8.80587 39.5211 8.46748 38.4273 8.15271C37.7059 8.00747 37.0259 7.70373 36.4363 7.26347C35.9961 6.6739 35.6923 5.99385 35.5471 5.2725C35.2323 4.21013 34.9097 3.10842 34.0362 2.60478C33.1627 2.10113 32.0767 2.36869 31.0064 2.60478C30.2978 2.8424 29.5453 2.92033 28.803 2.83299C28.1437 2.54383 27.5555 2.11411 27.0796 1.57388C26.2927 0.786941 25.427 0 24.3961 0C23.3652 0 22.5232 0.786941 21.7127 1.57388C21.2368 2.11411 20.6486 2.54383 19.9893 2.83299C19.2469 2.92033 18.4945 2.8424 17.7858 2.60478C16.7156 2.34509 15.6139 2.08539 14.7561 2.60478C13.8983 3.12416 13.56 4.17866 13.2452 5.2725C13.0999 5.99385 12.7962 6.6739 12.3559 7.26347C11.7664 7.70373 11.0863 8.00747 10.365 8.15271C9.3026 8.46748 8.20088 8.79013 7.69724 9.66364C7.1936 10.5371 7.46903 11.6231 7.69724 12.6855C7.9345 13.3969 8.01241 14.1519 7.92545 14.8968C7.63629 15.5561 7.20657 16.1443 6.66635 16.6202C5.87941 17.4071 5.09247 18.2728 5.09247 19.3037C5.09247 20.3346 5.87941 21.1766 6.66635 21.9871C7.20657 22.463 7.63629 23.0512 7.92545 23.7105C8.01241 24.4554 7.9345 25.2104 7.69724 25.9218C7.44542 26.9842 7.17786 28.0859 7.69724 28.9437C8.21662 29.8015 9.27112 30.1398 10.365 30.4546L10.9394 30.6277L0.119001 41.456C0.0645322 41.5073 0.0264834 41.5735 0.00967293 41.6463C-0.0071375 41.7192 -0.00195266 41.7954 0.0245686 41.8653C0.0480739 41.9347 0.0909155 41.9961 0.148065 42.0421C0.205215 42.0881 0.274302 42.1168 0.347214 42.1249L7.12277 42.9119L7.87037 49.6481C7.87813 49.7223 7.90768 49.7925 7.95529 49.8499C8.00291 49.9074 8.06646 49.9494 8.13793 49.9707C8.17949 49.979 8.22228 49.979 8.26384 49.9707C8.37018 49.9705 8.47207 49.928 8.54714 49.8527L21.4923 36.8052L21.7127 37.0098C22.4996 37.7968 23.3652 38.5837 24.3961 38.5837C25.427 38.5837 26.269 37.7968 27.0796 37.0098L27.2999 36.8052L40.2451 49.8763C40.3202 49.9516 40.4221 49.9941 40.5284 49.9944C40.5701 50.0019 40.6127 50.0019 40.6543 49.9944C40.7258 49.973 40.7894 49.931 40.837 49.8736C40.8846 49.8161 40.9141 49.7459 40.9219 49.6717L41.7088 42.9119L48.4844 42.1249C48.5573 42.1168 48.6264 42.0881 48.6835 42.0421C48.7407 41.9961 48.7835 41.9347 48.807 41.8653C48.8291 41.7915 48.8281 41.7129 48.8042 41.6397C48.7802 41.5666 48.7346 41.5025 48.6733 41.456ZM8.53927 48.7353L7.84676 42.4397C7.83534 42.3519 7.79519 42.2703 7.73256 42.2077C7.66993 42.145 7.58834 42.1049 7.50051 42.0935L1.20498 41.401L11.7421 30.9425L11.868 31.0055L12.0175 31.092C12.1394 31.1631 12.2529 31.2475 12.3559 31.3439C12.7962 31.9334 13.0999 32.6135 13.2452 33.3348C13.56 34.3972 13.8826 35.4989 14.7561 36.0025C15.6296 36.5062 16.7156 36.2308 17.7858 36.0025C18.4945 35.7649 19.2469 35.687 19.9893 35.7743C20.1284 35.8186 20.2629 35.8766 20.3906 35.9475H20.4299C20.567 36.0276 20.6985 36.117 20.8234 36.215H20.8628L8.53927 48.7353ZM24.3961 37.7968C23.68 37.7968 22.956 37.1121 22.2556 36.4432C22.0904 36.278 21.9173 36.1206 21.7441 35.9632C21.6104 35.8452 21.4766 35.7271 21.3271 35.6169L21.1933 35.5146C21.0813 35.4295 20.9629 35.3532 20.8392 35.2864L20.6975 35.1999C20.5376 35.1136 20.3687 35.045 20.1939 34.9953C20.0063 34.9455 19.8134 34.9191 19.6194 34.9166H19.4856C19.3125 34.9166 19.1315 34.9166 18.9584 34.9166H18.8403C18.6751 34.9166 18.5019 34.9638 18.3367 35.0031H18.1714L17.597 35.1369C16.6369 35.3651 15.7319 35.5776 15.1496 35.2392C14.5672 34.9008 14.2682 33.9486 14.0006 33.0358C13.8321 32.1735 13.4597 31.364 12.9147 30.675C12.7705 30.5357 12.6123 30.4117 12.4425 30.3051H12.4031C12.249 30.2128 12.0886 30.1313 11.9231 30.0611L11.8051 30.1084C11.4195 29.951 11.0181 29.8329 10.5932 29.707C9.68033 29.4395 8.736 29.1562 8.38975 28.5581C8.0435 27.96 8.26384 27.0708 8.49205 26.1107C8.77217 25.2752 8.84773 24.3846 8.7124 23.5138C8.40262 22.7201 7.9059 22.0128 7.26442 21.452C6.60339 20.7516 5.91089 20.0276 5.91089 19.3115C5.91089 18.5954 6.60339 17.8714 7.26442 17.1711C7.9059 16.6103 8.40262 15.903 8.7124 15.1093C8.84773 14.2385 8.77217 13.3479 8.49205 12.5124C8.26384 11.5523 8.0435 10.6473 8.38975 10.065C8.736 9.48264 9.68033 9.1836 10.5932 8.91604C11.4555 8.7475 12.2649 8.37515 12.954 7.83006C13.5023 7.14295 13.875 6.33267 14.04 5.46924C14.3075 4.55639 14.5908 3.61206 15.1889 3.26581C15.787 2.91955 16.6762 3.13989 17.6363 3.36811C18.4719 3.64822 19.3624 3.72378 20.2332 3.58845C21.0269 3.27867 21.7342 2.78196 22.295 2.14048C22.9954 1.47945 23.7194 0.786941 24.4355 0.786941C25.1516 0.786941 25.8756 1.47945 26.576 2.14048C27.1367 2.78196 27.844 3.27867 28.6377 3.58845C29.5085 3.72378 30.3991 3.64822 31.2346 3.36811C32.1947 3.13989 33.0997 2.92742 33.682 3.26581C34.2644 3.60419 34.5634 4.55639 34.831 5.46924C34.9995 6.33153 35.3719 7.14099 35.9169 7.83006C36.606 8.37515 37.4155 8.7475 38.2778 8.91604C39.1906 9.1836 40.135 9.4669 40.4812 10.065C40.8275 10.6631 40.6071 11.5523 40.3789 12.5124C40.0988 13.3479 40.0232 14.2385 40.1586 15.1093C40.4683 15.903 40.965 16.6103 41.6065 17.1711C42.2676 17.8714 42.9601 18.5954 42.9601 19.3115C42.9601 20.0276 42.2676 20.7516 41.6065 21.452C40.965 22.0128 40.4683 22.7201 40.1586 23.5138C40.0232 24.3846 40.0988 25.2752 40.3789 26.1107C40.6071 27.0708 40.8275 27.9758 40.4812 28.5581C40.135 29.1404 39.1906 29.4395 38.2778 29.707C37.8686 29.8329 37.4908 29.951 37.058 30.1084L36.94 30.1634C36.774 30.2294 36.6135 30.3084 36.4599 30.3995C36.2864 30.5041 36.1253 30.6282 35.9799 30.7694C35.4348 31.4585 35.0625 32.2679 34.8939 33.1302C34.6264 34.0431 34.3431 34.9874 33.745 35.3336C33.0975 35.5728 32.3858 35.5728 31.7383 35.3336L31.2976 35.2313C30.6526 35.044 29.986 34.9408 29.3145 34.9244C29.1072 34.929 28.9012 34.958 28.7007 35.011C28.5259 35.0607 28.357 35.1293 28.1971 35.2156L28.0554 35.2943L27.6934 35.5383L27.5675 35.6248L27.1504 35.9789C26.9773 36.1363 26.8042 36.2937 26.6389 36.459C25.8362 37.1043 25.1122 37.7968 24.3961 37.7968ZM41.2681 42.1249C41.1803 42.1364 41.0987 42.1765 41.0361 42.2391C40.9735 42.3018 40.9333 42.3834 40.9219 42.4712L40.2294 48.7667L27.8901 36.278H27.9374C28.0623 36.18 28.1937 36.0906 28.3308 36.0104H28.3702C28.4979 35.9396 28.6324 35.8816 28.7715 35.8373C29.1247 35.7659 29.4886 35.7659 29.8418 35.8373C30.2038 35.8924 30.6287 35.9789 30.975 36.0734L31.156 36.1127C32.023 36.4245 32.9682 36.4439 33.8473 36.1678C33.9018 36.149 33.9545 36.1253 34.0047 36.097C34.8782 35.5933 35.2008 34.5231 35.5156 33.4293C35.6566 32.6721 35.9719 31.9582 36.4363 31.3439C36.5394 31.2475 36.6529 31.1631 36.7747 31.092L36.9321 31.0055L37.0501 30.9425L47.5401 41.4324L41.2681 42.1249Z" fill="black"/>
<path d="M12.592 16.1558C12.4908 16.1322 12.3844 16.1495 12.2959 16.2041C12.2074 16.2586 12.1442 16.346 12.1199 16.447C12.0648 16.7224 12.0097 16.99 11.9625 17.234C11.9465 17.3361 11.9714 17.4405 12.0318 17.5244C12.0922 17.6083 12.1832 17.6651 12.2851 17.6825H12.3481C12.4424 17.6837 12.534 17.651 12.6062 17.5904C12.6784 17.5297 12.7265 17.4451 12.7415 17.352C12.7415 17.0923 12.8281 16.8405 12.8911 16.5651C12.8974 16.4725 12.8709 16.3808 12.8162 16.3059C12.7615 16.231 12.6821 16.1779 12.592 16.1558Z" fill="black"/>
<path d="M12.2221 20.1457C12.1707 20.1496 12.1205 20.1638 12.0747 20.1874C12.0289 20.2111 11.9882 20.2437 11.9552 20.2833C11.9222 20.3229 11.8975 20.3688 11.8825 20.4181C11.8675 20.4675 11.8626 20.5193 11.868 20.5706C11.868 20.8539 11.9309 21.1294 11.9781 21.3576C11.9915 21.45 12.0379 21.5345 12.1088 21.5953C12.1798 21.6561 12.2703 21.689 12.3637 21.6881H12.4346C12.5365 21.6707 12.6275 21.6139 12.6879 21.53C12.7483 21.446 12.7732 21.3417 12.7572 21.2395C12.71 20.9798 12.6785 20.728 12.6549 20.4526C12.6341 20.3567 12.5781 20.272 12.498 20.2152C12.4179 20.1584 12.3195 20.1336 12.2221 20.1457Z" fill="black"/>
<path d="M13.6701 24.2456C13.6497 24.198 13.6199 24.1549 13.5825 24.119C13.545 24.0832 13.5007 24.0552 13.4523 24.0368C13.4038 24.0185 13.3521 24.0101 13.3003 24.0121C13.2485 24.0142 13.1976 24.0267 13.1507 24.0489C13.0573 24.0934 12.9847 24.1723 12.948 24.2691C12.9114 24.3658 12.9135 24.473 12.954 24.5683C13.072 24.8201 13.198 25.0719 13.3317 25.3552C13.3663 25.4168 13.4166 25.4681 13.4774 25.504C13.5382 25.5399 13.6074 25.5592 13.678 25.5598C13.7438 25.5592 13.8085 25.543 13.8669 25.5126C13.9573 25.4612 14.0243 25.3767 14.0537 25.2769C14.0831 25.177 14.0725 25.0697 14.0242 24.9775C13.8983 24.7099 13.7803 24.4817 13.6701 24.2456Z" fill="black"/>
<path d="M15.8579 27.4485C15.783 27.3759 15.6828 27.3353 15.5785 27.3353C15.4742 27.3353 15.374 27.3759 15.2991 27.4485C15.2622 27.4851 15.233 27.5286 15.213 27.5766C15.193 27.6245 15.1827 27.6759 15.1827 27.7279C15.1827 27.7798 15.193 27.8313 15.213 27.8792C15.233 27.9272 15.2622 27.9707 15.2991 28.0072C15.4959 28.204 15.6926 28.4007 15.8972 28.5896C15.9715 28.6542 16.0663 28.6904 16.1648 28.6919C16.2744 28.6891 16.3788 28.644 16.4559 28.566C16.5285 28.4911 16.5691 28.3909 16.5691 28.2866C16.5691 28.1823 16.5285 28.0821 16.4559 28.0072C16.2198 27.8263 16.0389 27.6374 15.8579 27.4485Z" fill="black"/>
<path d="M14.2682 12.4887C14.179 12.4353 14.0726 12.4185 13.9713 12.442C13.87 12.4655 13.7818 12.5274 13.7252 12.6146C13.5757 12.8507 13.4419 13.0868 13.3081 13.3386C13.2834 13.3834 13.2678 13.4328 13.2623 13.4837C13.2569 13.5346 13.2616 13.5861 13.2762 13.6352C13.2909 13.6843 13.3152 13.73 13.3477 13.7696C13.3802 13.8092 13.4202 13.8419 13.4655 13.8658C13.5239 13.8963 13.5886 13.9124 13.6544 13.9131C13.7254 13.9141 13.7952 13.8956 13.8563 13.8595C13.9174 13.8234 13.9674 13.7711 14.0007 13.7085C14.1266 13.4802 14.2525 13.252 14.3941 13.0317C14.4216 12.9878 14.4401 12.9389 14.4487 12.8878C14.4572 12.8368 14.4556 12.7845 14.4439 12.7341C14.4322 12.6836 14.4107 12.636 14.3805 12.5939C14.3504 12.5518 14.3122 12.516 14.2682 12.4887Z" fill="black"/>
<path d="M33.5088 27.8027C33.5635 27.8035 33.6178 27.7928 33.668 27.771C33.7182 27.7493 33.7632 27.7172 33.8 27.6768C33.9889 27.4643 34.162 27.2518 34.3351 27.0315C34.3705 26.9911 34.3972 26.9438 34.4137 26.8927C34.4301 26.8416 34.4359 26.7876 34.4307 26.7341C34.4255 26.6807 34.4094 26.6288 34.3834 26.5818C34.3574 26.5348 34.3221 26.4937 34.2796 26.4608C34.2371 26.428 34.1883 26.4042 34.1362 26.391C34.0842 26.3777 34.03 26.3752 33.9769 26.3837C33.9239 26.3922 33.8731 26.4115 33.8278 26.4403C33.7825 26.4692 33.7436 26.507 33.7134 26.5514C33.5561 26.756 33.3908 26.9528 33.2177 27.1495C33.1643 27.2048 33.1287 27.2748 33.1153 27.3505C33.102 27.4262 33.1116 27.5041 33.1429 27.5743C33.1742 27.6445 33.2258 27.7038 33.291 27.7444C33.3562 27.7851 33.432 27.8054 33.5088 27.8027Z" fill="black"/>
<path d="M35.7753 16.1559C35.8003 16.2391 35.8512 16.3121 35.9205 16.3645C35.9898 16.4168 36.074 16.4458 36.1609 16.4471H36.2632C36.3636 16.4177 36.4487 16.3503 36.5001 16.2591C36.5516 16.168 36.5654 16.0604 36.5386 15.9592C36.4678 15.6916 36.3812 15.4319 36.2947 15.1722C36.2602 15.0731 36.1878 14.9917 36.0934 14.946C35.9989 14.9002 35.8901 14.8938 35.791 14.9283C35.6919 14.9627 35.6105 15.0351 35.5647 15.1296C35.519 15.224 35.5126 15.3328 35.5471 15.4319C35.6336 15.668 35.7123 15.9198 35.7753 16.1559Z" fill="black"/>
<path d="M35.4998 24.3794C35.549 24.3905 35.6001 24.3905 35.6493 24.3794C35.727 24.379 35.8028 24.3556 35.8672 24.3122C35.9316 24.2688 35.9818 24.2073 36.0113 24.1354C36.1214 23.8836 36.2159 23.6239 36.3103 23.3485C36.343 23.2504 36.3357 23.1433 36.29 23.0506C36.2444 22.9578 36.164 22.8867 36.0664 22.8527C35.9672 22.8198 35.8591 22.8269 35.765 22.8724C35.671 22.918 35.5984 22.9984 35.5627 23.0967C35.4762 23.3406 35.3896 23.5846 35.2873 23.8285C35.2601 23.8778 35.2441 23.9324 35.2403 23.9885C35.2365 24.0447 35.245 24.1009 35.2652 24.1534C35.2855 24.2059 35.3169 24.2533 35.3575 24.2924C35.398 24.3314 35.4466 24.3611 35.4998 24.3794Z" fill="black"/>
<path d="M34.1463 12.6461C34.1821 12.699 34.2301 12.7424 34.2863 12.7725C34.3425 12.8027 34.4052 12.8187 34.469 12.8193C34.5481 12.8198 34.6254 12.795 34.6893 12.7484C34.7322 12.72 34.769 12.6832 34.7975 12.6402C34.826 12.5973 34.8455 12.5491 34.8551 12.4985C34.8646 12.4479 34.8639 12.3959 34.853 12.3456C34.8421 12.2952 34.8212 12.2476 34.7916 12.2054C34.6406 11.9743 34.4777 11.751 34.3037 11.5365C34.2736 11.4921 34.2347 11.4543 34.1893 11.4254C34.144 11.3966 34.0933 11.3773 34.0402 11.3688C33.9872 11.3603 33.933 11.3628 33.8809 11.3761C33.8289 11.3893 33.7801 11.4131 33.7376 11.4459C33.6951 11.4788 33.6597 11.5199 33.6337 11.5669C33.6077 11.614 33.5916 11.6658 33.5864 11.7192C33.5812 11.7727 33.587 11.8267 33.6035 11.8778C33.6199 11.9289 33.6467 11.9762 33.682 12.0166C33.8394 12.2212 33.9968 12.4337 34.1463 12.6461Z" fill="black"/>
<path d="M36.2002 19.3036C36.2002 19.5607 36.2002 19.823 36.2002 20.0906C36.1959 20.1419 36.2019 20.1935 36.2179 20.2424C36.2339 20.2914 36.2595 20.3366 36.2932 20.3755C36.327 20.4143 36.3682 20.4461 36.4143 20.4688C36.4605 20.4915 36.5108 20.5047 36.5622 20.5077C36.6613 20.508 36.7569 20.4709 36.8298 20.4038C36.9028 20.3367 36.9477 20.2445 36.9557 20.1457C36.9557 19.8702 36.9557 19.5869 36.9557 19.3115V19.2564C36.9547 19.2065 36.9436 19.1572 36.9231 19.1117C36.9026 19.0661 36.8731 19.0252 36.8363 18.9913C36.7995 18.9575 36.7563 18.9315 36.7092 18.9148C36.662 18.8982 36.612 18.8912 36.5622 18.8944C36.462 18.9061 36.3697 18.9543 36.3029 19.0298C36.2361 19.1053 36.1995 19.2028 36.2002 19.3036Z" fill="black"/>
<path d="M23.436 31.1079C23.1763 31.1079 22.9166 31.0606 22.6491 31.0213C22.5447 31.0067 22.4388 31.0341 22.3547 31.0976C22.2706 31.161 22.2151 31.2553 22.2005 31.3597C22.1859 31.464 22.2133 31.5699 22.2768 31.654C22.3402 31.7382 22.4345 31.7936 22.5389 31.8082C22.8064 31.8502 23.0819 31.8817 23.3652 31.9027C23.4695 31.9027 23.5696 31.8612 23.6434 31.7874C23.7172 31.7136 23.7586 31.6136 23.7586 31.5092C23.7586 31.4048 23.7172 31.3048 23.6434 31.231C23.5696 31.1572 23.4695 31.1157 23.3652 31.1157L23.436 31.1079Z" fill="black"/>
<path d="M19.462 8.53824C19.5169 8.54569 19.5724 8.54569 19.6273 8.53824C19.8634 8.42807 20.0994 8.33364 20.3434 8.23921C20.3926 8.22253 20.4379 8.19608 20.4766 8.16145C20.5154 8.12682 20.5467 8.08472 20.5687 8.03768C20.5908 7.99064 20.6031 7.93964 20.605 7.88772C20.6068 7.8358 20.5981 7.78405 20.5795 7.73556C20.544 7.6375 20.471 7.55754 20.3765 7.51327C20.2821 7.469 20.1739 7.46404 20.0758 7.49948L19.2889 7.81426C19.1941 7.8572 19.1201 7.93597 19.0833 8.03331C19.0464 8.13066 19.0496 8.23865 19.0922 8.33364C19.1272 8.40005 19.1809 8.45479 19.2466 8.49113C19.3123 8.52748 19.3871 8.54385 19.462 8.53824Z" fill="black"/>
<path d="M19.6744 30.1241C19.4383 30.0218 19.2022 29.9037 18.9662 29.7857C18.8742 29.7384 18.7673 29.7293 18.6686 29.7602C18.57 29.7911 18.4874 29.8596 18.4389 29.9509C18.3913 30.0441 18.3819 30.1521 18.4128 30.2521C18.4436 30.3521 18.5123 30.436 18.6042 30.4861C18.856 30.612 19.0999 30.73 19.3911 30.8402C19.4399 30.865 19.4937 30.8785 19.5485 30.8795C19.6249 30.8779 19.6992 30.8549 19.7632 30.8132C19.8272 30.7715 19.8782 30.7127 19.9105 30.6435C19.9305 30.594 19.9402 30.541 19.9391 30.4876C19.938 30.4342 19.926 30.3817 19.9039 30.3331C19.8818 30.2845 19.8501 30.2409 19.8107 30.205C19.7712 30.1691 19.7248 30.1415 19.6744 30.1241Z" fill="black"/>
<path d="M27.4966 31.5092C27.5468 31.4963 27.5939 31.4737 27.6354 31.4426C27.6768 31.4115 27.7116 31.3726 27.7379 31.328C27.7643 31.2834 27.7815 31.234 27.7887 31.1827C27.7959 31.1315 27.7929 31.0793 27.7799 31.0291C27.768 30.9793 27.7462 30.9323 27.7159 30.891C27.6856 30.8496 27.6473 30.8147 27.6033 30.7883C27.5594 30.762 27.5106 30.7446 27.4598 30.7373C27.4091 30.73 27.3574 30.7329 27.3078 30.7458C27.0559 30.8088 26.7963 30.8639 26.5208 30.9111C26.4187 30.9302 26.3284 30.989 26.2694 31.0745C26.2104 31.16 26.1877 31.2653 26.2061 31.3675C26.2211 31.4585 26.2683 31.5411 26.339 31.6003C26.4098 31.6595 26.4994 31.6914 26.5917 31.6902H26.6625C26.9615 31.6351 27.2291 31.58 27.4966 31.5092Z" fill="black"/>
<path d="M23.3495 7.54683L24.1364 7.50748C24.1881 7.50646 24.2391 7.49527 24.2864 7.47454C24.3338 7.45382 24.3766 7.42397 24.4124 7.3867C24.4482 7.34943 24.4763 7.30547 24.4951 7.25733C24.5139 7.20919 24.5231 7.15782 24.522 7.10614C24.5179 7.00108 24.4728 6.90182 24.3962 6.82971C24.3197 6.7576 24.2179 6.7184 24.1128 6.72054L23.3259 6.76776C23.2741 6.77173 23.2237 6.78589 23.1775 6.80943C23.1312 6.83297 23.0901 6.86543 23.0565 6.90492C23.0228 6.94442 22.9973 6.99018 22.9814 7.03957C22.9655 7.08896 22.9596 7.141 22.9639 7.19271C22.9766 7.28749 23.0222 7.37481 23.0926 7.4395C23.1631 7.50419 23.254 7.54217 23.3495 7.54683Z" fill="black"/>
<path d="M30.8176 9.39605C31.0379 9.5377 31.2504 9.68722 31.455 9.84461C31.5228 9.89621 31.6058 9.92389 31.6911 9.92331C31.7524 9.92459 31.8131 9.91093 31.8679 9.88351C31.9228 9.85609 31.9701 9.81573 32.0058 9.76592C32.0685 9.68243 32.0953 9.5775 32.0806 9.47419C32.0658 9.37088 32.0106 9.27767 31.9272 9.21506C31.7068 9.0498 31.4786 8.89241 31.2504 8.73502C31.1615 8.67842 31.0538 8.65906 30.9508 8.68115C30.8477 8.70324 30.7574 8.76499 30.6995 8.85307C30.6433 8.94076 30.6242 9.04717 30.6463 9.14896C30.6684 9.25075 30.73 9.3396 30.8176 9.39605Z" fill="black"/>
<path d="M16.4716 9.51413L15.8421 10.0571C15.8052 10.0937 15.7759 10.1372 15.756 10.1852C15.736 10.2331 15.7257 10.2845 15.7257 10.3365C15.7257 10.3884 15.736 10.4399 15.756 10.4878C15.7759 10.5358 15.8052 10.5793 15.8421 10.6158C15.8777 10.6557 15.9214 10.6875 15.9702 10.7092C16.0191 10.7309 16.072 10.742 16.1254 10.7418C16.1746 10.7434 16.2235 10.7351 16.2695 10.7176C16.3154 10.7 16.3574 10.6734 16.393 10.6395C16.5897 10.4585 16.7864 10.2932 16.9832 10.1279C17.0642 10.063 17.1163 9.96868 17.1281 9.86549C17.1399 9.7623 17.1105 9.65863 17.0461 9.57709C17.0131 9.5344 16.9719 9.4988 16.9248 9.47242C16.8778 9.44604 16.8259 9.42941 16.7723 9.42353C16.7186 9.41765 16.6644 9.42265 16.6127 9.43822C16.5611 9.45378 16.5131 9.4796 16.4716 9.51413Z" fill="black"/>
<path d="M30.857 29.1876C30.6445 29.3293 30.4163 29.4631 30.1881 29.589C30.1431 29.6142 30.1036 29.6483 30.072 29.6891C30.0404 29.7299 30.0173 29.7767 30.004 29.8266C29.9908 29.8765 29.9878 29.9285 29.9951 29.9796C30.0023 30.0307 30.0198 30.0799 30.0464 30.1241C30.0791 30.1856 30.1278 30.2371 30.1874 30.2731C30.247 30.3091 30.3152 30.3283 30.3848 30.3287C30.4543 30.3292 30.5225 30.3101 30.5816 30.2736C30.8176 30.1398 31.0537 29.9903 31.2898 29.8408C31.3761 29.7831 31.436 29.6937 31.4567 29.592C31.4773 29.4903 31.4569 29.3846 31.4 29.2978C31.3721 29.2543 31.3358 29.2168 31.2932 29.1876C31.2505 29.1583 31.2025 29.138 31.1518 29.1277C31.1012 29.1174 31.049 29.1174 30.9983 29.1277C30.9477 29.138 30.8996 29.1584 30.857 29.1876Z" fill="black"/>
<path d="M27.2528 7.8458C27.5099 7.90875 27.7722 7.97958 28.0397 8.05827C28.0787 8.06571 28.1188 8.06571 28.1578 8.05827C28.2416 8.05757 28.3231 8.03063 28.3909 7.98123C28.4586 7.93183 28.5092 7.86245 28.5355 7.78284C28.5653 7.68266 28.5548 7.57481 28.5063 7.48222C28.4578 7.38964 28.3751 7.31962 28.2758 7.28707L27.4889 7.05886C27.3867 7.03499 27.2792 7.0521 27.1895 7.10653C27.0997 7.16096 27.0349 7.24836 27.0088 7.35002C26.9916 7.39855 26.9842 7.45005 26.9872 7.50146C26.9902 7.55288 27.0035 7.60318 27.0262 7.64939C27.0489 7.6956 27.0807 7.73679 27.1196 7.77052C27.1585 7.80425 27.2038 7.82985 27.2528 7.8458Z" fill="black"/>
<path d="M30.1722 16.6832C30.1026 16.6051 30.0052 16.5573 29.9009 16.5499C29.7965 16.5426 29.6934 16.5763 29.6135 16.6439L22.5861 22.664L19.6744 18.8079C19.6434 18.7666 19.6046 18.7318 19.5601 18.7055C19.5157 18.6791 19.4665 18.6618 19.4153 18.6545C19.3642 18.6472 19.3121 18.65 19.262 18.6629C19.212 18.6757 19.1649 18.6982 19.1236 18.7292C19.0418 18.7931 18.9879 18.8861 18.9733 18.9888C18.9586 19.0915 18.9843 19.1959 19.0449 19.2801L22.1927 23.4745L22.2792 23.5375H22.3264C22.381 23.5483 22.4371 23.5483 22.4917 23.5375C22.5702 23.5343 22.6464 23.5098 22.712 23.4666H22.8222L30.1644 17.1711C30.2191 17.1019 30.2495 17.0167 30.251 16.9285C30.2524 16.8403 30.2247 16.7541 30.1722 16.6832Z" fill="black"/>
</svg>
