<svg width="69" height="55" viewBox="0 0 69 55" fill="none" xmlns="http://www.w3.org/2000/svg">
<path d="M63.1462 47.1213C58.3074 52.3497 50.9853 55 41.387 55H37.9381V45.3097L40.711 44.7563C45.436 43.8144 48.7228 41.9616 50.4818 39.2425C51.3996 37.7777 51.9201 36.1005 51.9924 34.375L41.387 34.375C40.4723 34.375 39.595 34.0128 38.9482 33.3682C38.3014 32.7235 37.9381 31.8492 37.9381 30.9375L37.9381 6.875C37.9381 3.08344 41.0318 0 44.8359 0L65.5294 0C66.4441 0 67.3214 0.36216 67.9682 1.00682C68.6149 1.65147 68.9783 2.52582 68.9783 3.4375V20.625L68.968 30.6591C68.999 31.0406 69.6543 40.0813 63.1462 47.1213ZM6.89783 0L27.5913 0C28.506 0 29.3833 0.36216 30.0301 1.00682C30.6769 1.65147 31.0402 2.52582 31.0402 3.4375V20.625L31.0299 30.6591C31.0609 31.0406 31.7162 40.0813 25.2081 47.1213C20.3693 52.3497 13.0472 55 3.44891 55H0V45.3097L2.77293 44.7563C7.49795 43.8144 10.7848 41.9616 12.5437 39.2425C13.4615 37.7777 13.982 36.1005 14.0543 34.375L3.44891 34.375C2.53421 34.375 1.65696 34.0128 1.01016 33.3682C0.363365 32.7235 0 31.8492 0 30.9375V6.875C0 3.08344 3.09368 0 6.89783 0Z" fill="black" fill-opacity="0.25"/>
</svg>
