<svg id="Layer_1" data-name="Layer 1" xmlns="http://www.w3.org/2000/svg" xmlns:xlink="http://www.w3.org/1999/xlink" viewBox="0 0 70 70">
  <defs>
    <mask id="mask" x="0" y="0" width="70" height="70" maskUnits="userSpaceOnUse">
      <g id="b">
        <path id="a" d="M4,0H65c4,0,5,1,5,5V65c0,4-1,5-5,5H4c-3,0-4-1-4-5V5C0,1,1,0,4,0Z" fill="#fff" fill-rule="evenodd"/>
      </g>
    </mask>
    <linearGradient id="linear-gradient" x1="-1438.5" y1="-4.39" x2="-1439.5" y2="-5.39" gradientTransform="matrix(70, 0, 0, -70, 100764.99, -307.17)" gradientUnits="userSpaceOnUse">
      <stop offset="0" stop-color="#7cc098"/>
      <stop offset="1" stop-color="#5f8a71"/>
    </linearGradient>
  </defs>
  <g mask="url(#mask)">
    <g>
      <path d="M0,0H70V70H0Z" fill-rule="evenodd" fill="url(#linear-gradient)"/>
      <path d="M4,1H65c2.67,0,4.33.67,5,2V0H0V3C.67,1.67,2,1,4,1Z" fill="#fff" fill-opacity="0.38" fill-rule="evenodd"/>
      <path d="M4,69a3.66,3.66,0,0,1-4-4V37.35L16.62,20.8l3.49,3.38L34.74,9.61l3.68,2v1.7L39.69,12l4.41,4.32L33.82,26.52l.24,2.67,5.53-5.54L50.39,25l1.36,12.54-3.84,3.86c.66,5.52.62,13.53.44,22.08L42.8,69Z" fill="#393939" fill-rule="evenodd" opacity="0.32" style="isolation: isolate"/>
      <path d="M4,69H65c2.67,0,4.33-1,5-3v4H0V66A3.92,3.92,0,0,0,4,69Z" fill-opacity="0.38" fill-rule="evenodd"/>
      <g>
        <g opacity="0.4">
          <rect x="32.43" y="10.58" width="4" height="4" rx="1"/>
          <path d="M47,39.5h2.71V27.44A2.73,2.73,0,0,0,47,24.7H37.5v2.74h9.2a.34.34,0,0,1,.34.34V31H36.5v6.5H47Z"/>
          <rect x="37.43" y="13.58" width="5" height="5" rx="1"/>
          <polygon points="17.31 57.39 17.3 57.39 16.5 55 15.43 55 15.43 58.47 16.14 58.47 16.14 56.03 16.15 56.03 16.99 58.47 17.58 58.47 18.43 56.01 18.44 56.01 18.44 58.47 19.15 58.47 19.15 55 18.08 55 17.31 57.39"/>
          <path d="M40.22,47.53l-19.91,0a.34.34,0,0,1-.34-.34V46H17.25v1.55A2.73,2.73,0,0,0,20,50.29H40.18Z"/>
          <path d="M23.1,43.48a9.9,9.9,0,0,0,6.72-2.12q2.43-2.11,2.43-6.46V23.58h3.18a1,1,0,0,0,1-1v-4a1,1,0,0,0-1-1h-4a1,1,0,0,0-1,1v3H27.54V34.9a5.34,5.34,0,0,1-1,3.52c-.64.75-1.8,1.13-3.48,1.13a5.39,5.39,0,0,1-2.29-.41,3.49,3.49,0,0,1-1.34-1,3.45,3.45,0,0,1-.63-1.48,9.71,9.71,0,0,1-.15-1.71V21.58H14V34.9q0,4.38,2.39,6.48A9.85,9.85,0,0,0,23.1,43.48Z"/>
          <polygon points="12.43 55.64 13.46 55.64 13.46 58.47 14.22 58.47 14.22 55.64 15.26 55.64 15.26 55 12.43 55 12.43 55.64"/>
          <g id="layer101">
            <path d="M57.44,48.81c-.38-.79-2.25-1.85-3.79-2.13l-.46-.08L53,46.16a2.22,2.22,0,0,0-1.86-1.47c-.4,0-.42,0-.86-.47-.25-.25-.57-.55-.71-.68l-.25-.24-.55.06a2.81,2.81,0,0,1-1.56-.14,3.66,3.66,0,0,0-2-.16,1.2,1.2,0,0,0-.56.63s-.13,0-.27,0a.81.81,0,0,0-.55,0c-.29.11-.3.1-.41-.07a1.57,1.57,0,0,1-.14-.7,6,6,0,0,0-.06-.71c0-.2-.42-.43-.7-.43a.62.62,0,0,1-.26,0,.81.81,0,0,1,.07-.36,1.39,1.39,0,0,0,.07-.55,1.51,1.51,0,0,0-.34-.52,2.14,2.14,0,0,0-.94-.59A7.46,7.46,0,0,0,39,41.3c0,.29,0,.52,0,.58h0v0a.56.56,0,0,1,0,.12.85.85,0,0,1,0,.17,4,4,0,0,1,.56.76.37.37,0,0,1,.12.07,3.6,3.6,0,0,0,.61.31,2.49,2.49,0,0,1,1.27.88,3.48,3.48,0,0,0,2.11,1.24c.19,0,.28,0,.26.09a7.76,7.76,0,0,1-.45.73,4.64,4.64,0,0,0-.47.89,5.73,5.73,0,0,0,0,.89,2,2,0,0,0,.35,1.24c1.1,2,1.3,2.33,2,2.9a7.7,7.7,0,0,1,.62.53,5.13,5.13,0,0,1,0,1.84c0,.25-.24,1.07-.44,1.82-.61,2.21-.73,3.17-.47,3.67s.19.41-.11.69A1,1,0,0,0,44.72,62a6.27,6.27,0,0,1,.21.91,4.67,4.67,0,0,0,.21.86l.06.16,0,.07a10.3,10.3,0,0,0,.63,1.62l.34,0a7.83,7.83,0,0,0,1.15-1.21s-.09,0-.09,0a2.38,2.38,0,0,1,.21-.38,1.33,1.33,0,0,0,.21-.52.42.42,0,0,1,.11-.28,2.58,2.58,0,0,0,.59-1.35,2,2,0,0,1,.52-1.16,2.77,2.77,0,0,0,.67-1.2c0-.1,0-.14.17-.14a1.92,1.92,0,0,0,.89-.33,1.44,1.44,0,0,0,.56-.82c0-.05.14-.19.31-.28A4.49,4.49,0,0,0,53,56a7.8,7.8,0,0,1,.77-1.29,1.29,1.29,0,0,1,.79-.3c.55-.1.6-.12.88-.41a4.86,4.86,0,0,0,.86-2.29,2.11,2.11,0,0,1,.73-1.47,1.75,1.75,0,0,0,.54-1A1.28,1.28,0,0,0,57.44,48.81Z"/>
          </g>
        </g>
        <g>
          <rect x="34.42" y="8.58" width="4" height="4" rx="1" fill="#fff"/>
          <path d="M49,37.5l2.71,0V25.45A2.73,2.73,0,0,0,49,22.7H39.5v2.75h9.2a.34.34,0,0,1,.34.34V29H38.5v6.5H49Z" fill="#fff"/>
          <rect x="39.42" y="11.58" width="5" height="5" rx="1" fill="#fff"/>
          <polygon points="19.31 55.39 19.3 55.39 18.49 53 17.42 53 17.42 56.47 18.13 56.47 18.13 54.04 18.14 54.04 18.99 56.47 19.58 56.47 20.42 54.01 20.43 54.01 20.43 56.47 21.14 56.47 21.14 53 20.07 53 19.31 55.39" fill="#fff"/>
          <path d="M42.22,45.53l-19.92,0a.34.34,0,0,1-.34-.34V44H19.25v1.55A2.73,2.73,0,0,0,22,48.3H42.18Z" fill="#fff"/>
          <path d="M25.1,41.48a9.85,9.85,0,0,0,6.72-2.12c1.62-1.4,2.43-3.56,2.43-6.46V21.58h3.17a1,1,0,0,0,1-1v-4a1,1,0,0,0-1-1h-4a1,1,0,0,0-1,1v3H29.54V32.9a5.34,5.34,0,0,1-1,3.52c-.64.75-1.8,1.13-3.48,1.13a5.65,5.65,0,0,1-2.3-.4,3.39,3.39,0,0,1-1.33-1.06,3.45,3.45,0,0,1-.63-1.48,9.71,9.71,0,0,1-.15-1.71V19.58H16V32.9c0,2.92.8,5.08,2.38,6.48A9.89,9.89,0,0,0,25.1,41.48Z" fill="#fff"/>
          <polygon points="14.42 53.64 15.46 53.64 15.46 56.47 16.22 56.47 16.22 53.64 17.26 53.64 17.26 53 14.42 53 14.42 53.64" fill="#fff"/>
          <g id="layer101-2" data-name="layer101">
            <path d="M59.44,46.82c-.39-.8-2.25-1.85-3.79-2.13l-.46-.09L55,44.16a2.25,2.25,0,0,0-1.86-1.47c-.4,0-.43,0-.86-.47l-.71-.68-.25-.24-.55.06a2.86,2.86,0,0,1-1.57-.13,3.44,3.44,0,0,0-2-.16,1.18,1.18,0,0,0-.56.62s-.14,0-.27,0a.76.76,0,0,0-.55,0c-.29.1-.3.1-.41-.07a1.63,1.63,0,0,1-.14-.71,5.09,5.09,0,0,0-.07-.7.79.79,0,0,0-.7-.44.56.56,0,0,1-.25,0s0-.18.06-.36a1.21,1.21,0,0,0,.07-.55,1.42,1.42,0,0,0-.33-.52,2.17,2.17,0,0,0-.95-.59A7.28,7.28,0,0,0,41,39.31c0,.28,0,.52,0,.57h0v0s0,.07,0,.11,0,.11,0,.17a4.74,4.74,0,0,1,.56.77.24.24,0,0,1,.11.06,3.82,3.82,0,0,0,.62.31,2.52,2.52,0,0,1,1.26.88,3.48,3.48,0,0,0,2.11,1.24c.2,0,.29,0,.27.1s-.22.37-.46.73a4.12,4.12,0,0,0-.47.89,6,6,0,0,0,0,.89,2,2,0,0,0,.35,1.24c1.09,2,1.3,2.32,2,2.89a6.78,6.78,0,0,1,.63.53,5.38,5.38,0,0,1,0,1.84c0,.25-.24,1.07-.45,1.82-.61,2.21-.73,3.17-.46,3.67s.18.41-.11.69A1,1,0,0,0,46.72,60a5.3,5.3,0,0,1,.2.91,4.53,4.53,0,0,0,.22.86l.06.17,0,.06a10.93,10.93,0,0,0,.62,1.62l.35,0a7.83,7.83,0,0,0,1.14-1.22l-.09,0a2,2,0,0,1,.22-.38,1.37,1.37,0,0,0,.21-.52.35.35,0,0,1,.11-.27,2.71,2.71,0,0,0,.59-1.36,1.87,1.87,0,0,1,.52-1.15,2.85,2.85,0,0,0,.67-1.21c0-.1,0-.14.17-.14a1.89,1.89,0,0,0,.89-.33,1.48,1.48,0,0,0,.55-.81c0-.06.14-.19.31-.29A4.37,4.37,0,0,0,55,54a8.29,8.29,0,0,1,.76-1.3,1.43,1.43,0,0,1,.8-.3c.55-.09.6-.12.87-.41a4.76,4.76,0,0,0,.87-2.29,2,2,0,0,1,.73-1.46,1.81,1.81,0,0,0,.54-1A1.65,1.65,0,0,0,59.44,46.82Z" fill="#fff"/>
          </g>
        </g>
      </g>
    </g>
  </g>
</svg>
