<svg width="64" height="64" viewBox="0 0 64 64" fill="none" xmlns="http://www.w3.org/2000/svg">
<path d="M20.5075 54.8582C20.5075 54.8582 20.2578 46.6073 20.5028 40.7487C20.2317 45.1309 10.1546 44.341 10.1546 39.5475C10.1547 32.8369 9.08238 27.9654 12.5841 20.9097C15.3031 15.4312 16.63 15.6173 21.4817 11.8932C23.963 9.98852 26.8 9.60422 29.4758 8.27322C31.7616 7.13619 34.2592 5.64093 36.7608 4.76497C42.1909 2.86362 44.7868 4.71909 48.5766 7.99214C52.9807 11.7958 54.0286 20.982 53.9994 23.6887C53.9702 26.3955 47.9782 27.6746 45.6206 25.71V39.1131V43.2966V47.4802C45.6206 52.5831 40.7937 55.5315 35.0703 58.064C29.9264 60.9179 20.5075 58.2663 20.5075 54.8582Z" fill="white"/>
<path fill-rule="evenodd" clip-rule="evenodd" d="M20.5075 55.5501C20.2374 46.6244 20.5075 37.6736 20.5075 28.7444C20.5075 28.7444 22.9377 47.1498 23.2149 57.9257C22.3111 57.472 21.2595 56.6719 20.5075 55.5501Z" fill="#FBDBD0"/>
<path d="M45.5042 19.2766L45.5042 25.7271C46.0566 26.0774 46.8785 26.5625 48.1317 26.7107L45.5042 19.2766Z" fill="#FBDBD0"/>
<path d="M20.5075 40.6367C20.2546 46.5016 20.5075 54.8582 20.5075 54.8582C20.5075 58.2663 29.9264 60.9179 35.0703 58.064C40.7937 55.5315 45.6206 52.5831 45.6206 47.4801V43.2966V39.113V19.8597V25.71C47.9782 27.6746 53.9702 26.3955 53.9994 23.6887C54.0286 20.982 52.9807 11.7958 48.5766 7.99211C44.7868 4.71906 42.1909 2.86359 36.7608 4.76494C34.2592 5.6409 31.7616 7.13616 29.4758 8.27318C26.8 9.60418 23.963 9.98849 21.4817 11.8931C16.63 15.6172 15.3031 15.4312 12.5841 20.9097C9.08238 27.9653 10.1547 32.8369 10.1546 39.5475C10.1546 44.3814 20.4023 45.1439 20.5075 40.6367ZM20.5075 40.6367V28.9467" stroke="#374874" stroke-width="0.756299" stroke-linecap="round" stroke-linejoin="round"/>
<path fill-rule="evenodd" clip-rule="evenodd" d="M21.8049 13.0244C23.6116 11.7763 28.5407 10.1043 30.0253 9.32903C31.9349 8.33183 34.5669 6.67801 37.1245 5.76498C38.9086 7.59138 36.8386 9.6307 32.838 12.3625C26.7047 14.9453 21.8049 14.8344 21.8049 13.0244Z" fill="#C1DBF6"/>
</svg>
