<svg width="64" height="64" viewBox="0 0 64 64" fill="none" xmlns="http://www.w3.org/2000/svg">
<path d="M31.385 13.451C23.9518 13.451 17.9259 16.658 17.9259 20.614C17.9259 20.8828 17.9561 21.1477 18.0103 21.4088L21.4307 53.6233C21.4305 53.6127 21.4295 53.6022 21.4292 53.5916C21.4339 56.5899 25.9167 59.0198 31.4462 59.0198C36.9578 59.0198 41.4284 56.6054 41.4618 53.6204C41.4606 53.6751 41.4578 53.7296 41.4542 53.784L41.4634 53.784L44.7657 21.3841C44.8165 21.131 44.8441 20.8742 44.8441 20.614C44.8441 16.658 38.8183 13.451 31.385 13.451Z" fill="white"/>
<path d="M20.1484 30.7227L22.5718 53.5455L22.5721 53.6015C22.5897 55.879 26.7365 57.877 31.4462 57.877C36.5875 57.877 40.1829 55.7218 40.3152 53.7089L40.3949 52.6149L40.4337 52.616L42.6256 31.1097C42.3188 34.2585 37.4144 36.7614 31.409 36.7614C25.2056 36.7614 20.1768 34.0908 20.1768 30.7964" fill="#FBDBD0"/>
<path d="M31.385 27.048C24.33 27.048 18.6108 24.0042 18.6108 20.2496C18.6108 16.495 24.33 13.4512 31.385 13.4512C38.4399 13.4512 44.1591 16.4949 44.1591 20.2496C44.1591 24.0043 38.4399 27.048 31.385 27.048Z" fill="#C1DBF6"/>
<path d="M31.4085 36.755C37.6116 36.755 42.6403 34.0844 42.6403 30.79C42.6403 27.4956 37.6116 24.825 31.4085 24.825C25.2054 24.825 20.1768 27.4956 20.1768 30.79C20.1768 34.0844 25.2054 36.755 31.4085 36.755Z" fill="white"/>
<path d="M25.114 55.9855C24.9593 55.9855 24.8019 55.9567 24.6495 55.896C24.0044 55.6393 23.6895 54.9081 23.9462 54.263L43.6469 4.76027C43.7729 4.44397 44.0219 4.19197 44.3369 4.06251C44.6518 3.93305 45.0061 3.93661 45.3182 4.07323L59.4444 10.2435C60.0806 10.5214 60.371 11.2625 60.0932 11.8987C59.8153 12.5351 59.0742 12.8261 58.4379 12.5476L45.5026 6.89735L26.2824 55.1929C26.0863 55.6853 25.6136 55.9855 25.114 55.9855Z" fill="white"/>
<path d="M41.8716 16.0766L41.7805 16.301C43.2761 17.4143 44.1591 18.7766 44.1591 20.2495C44.1591 24.0042 38.44 27.0479 31.385 27.0479C24.3301 27.0479 18.6109 24.0042 18.6109 20.2495C18.6109 16.4949 24.3301 13.4511 31.385 13.4511C34.4881 13.4511 37.3279 14.0427 39.5403 15.0223L39.5962 14.8993C37.3239 13.9701 34.4783 13.4152 31.385 13.4152C23.9518 13.4152 17.9259 16.606 17.9259 20.5422C17.9259 24.4783 23.9518 27.6692 31.385 27.6692C38.8183 27.6692 44.8441 24.4783 44.8441 20.5422C44.8441 18.8512 43.7297 17.2986 41.8716 16.0766Z" fill="#374874"/>
<path d="M44.8151 3.968C44.9865 3.968 45.1579 4.00306 45.3182 4.07321L59.4443 10.2435C60.0806 10.5214 60.371 11.2625 60.0931 11.8987C59.8867 12.3711 59.4251 12.6533 58.9406 12.6533C58.7726 12.6533 58.6017 12.6193 58.4378 12.5475L45.5026 6.89732L41.8541 16.065C43.7229 17.2887 44.8441 18.8458 44.8441 20.5422C44.8441 20.5542 44.8425 20.566 44.8424 20.5781C44.8425 20.5902 44.8441 20.602 44.8441 20.6141C44.8441 20.8744 44.8165 21.1311 44.7656 21.3842L41.4634 53.7841L41.4556 53.7841C41.4591 53.7298 41.4612 53.6751 41.4618 53.6205C41.4606 53.6752 41.4578 53.7297 41.4542 53.7841H41.4556C41.2644 56.6932 36.8569 59.0199 31.4462 59.0199C25.9282 59.0199 21.4525 56.6 21.4293 53.6103L21.4307 53.6234C21.4305 53.6128 21.4295 53.6023 21.4292 53.5917C21.4292 53.5979 21.4292 53.6041 21.4293 53.6103L18.0103 21.4089C17.9561 21.1478 17.9259 20.8829 17.9259 20.6141C17.9259 20.602 17.9275 20.5902 17.9276 20.5781C17.9275 20.566 17.9259 20.5542 17.9259 20.5422C17.9259 16.606 23.9518 13.4152 31.385 13.4152C34.4836 13.4152 37.3355 13.9711 39.6104 14.9029L43.6469 4.76027C43.7729 4.44397 44.0219 4.19197 44.3368 4.06251C44.4901 3.99952 44.6526 3.968 44.8151 3.968ZM44.8151 3.05371C44.5305 3.05371 44.2526 3.10861 43.9892 3.21689C43.4484 3.43922 43.014 3.87842 42.7975 4.42192L39.0935 13.7291C36.7975 12.9238 34.1536 12.5009 31.385 12.5009C23.3252 12.5009 17.0116 16.0331 17.0116 20.5422C17.0116 20.5542 17.0118 20.5662 17.0122 20.5782C17.0118 20.5902 17.0116 20.6021 17.0116 20.6141C17.0116 20.919 17.0432 21.233 17.1057 21.5483L20.5157 53.6652C20.5859 57.1843 25.3716 59.9341 31.4462 59.9341C34.2038 59.9341 36.8271 59.3547 38.8329 58.3026C40.6356 57.3569 41.8077 56.1009 42.2156 54.703L42.2808 54.7034L42.3729 53.8768L45.6709 21.5187C45.7289 21.2154 45.7584 20.9114 45.7584 20.6141C45.7584 20.602 45.7581 20.59 45.7577 20.5781C45.7581 20.5661 45.7584 20.5542 45.7584 20.5422C45.7584 18.7889 44.7743 17.102 42.9701 15.7334L46.0026 8.11344L58.0718 13.3854C58.3477 13.5061 58.6402 13.5675 58.9406 13.5675C59.804 13.5675 60.5853 13.0561 60.9309 12.2645C61.163 11.7332 61.1744 11.1431 60.9627 10.6031C60.751 10.0631 60.3417 9.63783 59.8102 9.40564L45.6841 3.23533C45.4089 3.1149 45.1163 3.05371 44.8151 3.05371Z" fill="#374874"/>
<path d="M31.409 36.7615C31.243 36.7615 31.0782 36.7586 30.914 36.7548L23.9462 54.263C23.6895 54.9081 24.0044 55.6393 24.6495 55.896C24.8019 55.9567 24.9593 55.9855 25.114 55.9855C25.6136 55.9855 26.0863 55.6853 26.2824 55.1929L33.6658 36.6403C32.9366 36.7193 32.1822 36.7615 31.409 36.7615Z" fill="white"/>
</svg>
