<svg width="64" height="64" viewBox="0 0 64 64" fill="none" xmlns="http://www.w3.org/2000/svg">
<path d="M25.1057 46.9066L25.0551 57.8867L10.822 49.721L10.8435 38.931L25.1057 46.9066Z" fill="white"/>
<path d="M10.8804 29.1064L25.1135 37.2721L25.1056 47.3638L10.8435 39.3881L10.8804 29.1064Z" fill="#FBDBD0"/>
<path d="M25.0913 48.7375L25.1135 37.2721L35.7458 31.0933L35.7227 42.4331L25.0913 48.7375Z" fill="#C1DBF6"/>
<path d="M25.0914 48.7375L35.7228 42.4331L35.7055 45.3236L25.073 51.5892L25.0914 48.7375Z" fill="#C1DBF6"/>
<path d="M35.7056 45.3236L35.6875 51.7079L25.0552 57.8867L25.073 51.5892L35.7056 45.3236Z" fill="#C1DBF6"/>
<path d="M22.9634 36.9032C22.9634 36.3081 23.4458 35.8257 24.0409 35.8257C24.636 35.8257 25.1185 36.3081 25.1185 36.9032V46.3848H22.9634V36.9032Z" fill="#FBDBD0"/>
<path d="M25.1185 46.3848V59.2924C25.1185 59.8875 24.636 60.37 24.0409 60.37C23.4458 60.37 22.9634 59.8875 22.9634 59.2924V46.3848H25.1185Z" fill="white"/>
<path d="M4.97607 28.5266C4.97607 27.9315 5.45852 27.449 6.05361 27.449C6.64869 27.449 7.13116 27.9314 7.13116 28.5266V36.9777L4.97607 37.553V28.5266Z" fill="#FBDBD0"/>
<path d="M7.13116 36.9777V50.9158C7.13116 51.5109 6.64871 51.9933 6.05361 51.9933C5.4585 51.9933 4.97607 51.5109 4.97607 50.9158V37.553L7.13116 36.9777Z" fill="white"/>
<path d="M58.7483 18.2971C58.7483 17.702 59.2307 17.2195 59.8258 17.2195C60.4209 17.2195 60.9034 17.702 60.9034 18.2971V23.7983L58.7483 27.6913V18.2971Z" fill="#FBDBD0"/>
<path d="M60.9034 23.7982V40.6863C60.9034 41.2814 60.4209 41.7638 59.8258 41.7638C59.2307 41.7638 58.7483 41.2814 58.7483 40.6863V27.6913L60.9034 23.7982Z" fill="white"/>
<path fill-rule="evenodd" clip-rule="evenodd" d="M25.3026 42.5769C25.4288 42.5767 25.5314 42.6788 25.5316 42.805L25.5609 57.8494C25.5611 57.9757 25.459 58.0782 25.3328 58.0785C25.2065 58.0787 25.104 57.9766 25.1037 57.8503L25.0745 42.8059C25.0742 42.6797 25.1764 42.5772 25.3026 42.5769Z" fill="#374874"/>
<path fill-rule="evenodd" clip-rule="evenodd" d="M22.6988 42.5769C22.8251 42.5767 22.9276 42.6788 22.9278 42.805L22.9571 57.8494C22.9574 57.9757 22.8552 58.0782 22.729 58.0785C22.6028 58.0787 22.5002 57.9766 22.5 57.8503L22.4707 42.8059C22.4705 42.6797 22.5726 42.5772 22.6988 42.5769Z" fill="#374874"/>
<path d="M3.88582 28.427C3.14694 28.8536 3.14303 29.5447 3.87714 29.9713L22.7054 40.9131C23.439 41.3395 24.6327 41.3397 25.3716 40.9131L62.4466 19.5079C63.185 19.0815 63.1889 18.3898 62.4553 17.9635L43.627 7.0217C42.8929 6.5951 41.6993 6.59535 40.9608 7.0217L3.88582 28.427Z" fill="white"/>
<path d="M24.3727 41.2143C24.3883 41.2127 24.4038 41.211 24.4193 41.2091C24.5223 41.1969 24.6237 41.1795 24.7226 41.1572C24.7406 41.1531 24.7583 41.1484 24.7761 41.144C24.866 41.1219 24.9532 41.0951 25.0375 41.0645C25.0529 41.059 25.0691 41.0546 25.0843 41.0487C25.1854 41.0096 25.2821 40.9648 25.3716 40.9132L62.4466 19.5079C62.8182 19.2933 63.0037 19.0116 63.0029 18.7303L63.0079 20.4871C63.0087 20.7684 62.8231 21.0501 62.4516 21.2647L25.3765 42.6699C25.2914 42.719 25.2003 42.7626 25.1045 42.8004C25.0996 42.8023 25.0942 42.8036 25.0892 42.8055C25.0741 42.8114 25.058 42.8157 25.0427 42.8213C24.9878 42.8412 24.933 42.8613 24.8756 42.8776C24.8448 42.8865 24.8127 42.893 24.7812 42.9008C24.7632 42.9052 24.7456 42.9099 24.7275 42.914C24.7112 42.9176 24.6955 42.9224 24.679 42.9258C24.6175 42.9386 24.5552 42.9494 24.4921 42.9583C24.4698 42.9615 24.447 42.9632 24.4245 42.9659C24.4088 42.9678 24.3934 42.9695 24.3776 42.9711C24.3547 42.9735 24.332 42.9769 24.3089 42.9788C24.2636 42.9825 24.2179 42.9843 24.1724 42.9862V41.2255C24.2393 41.2226 24.3064 41.2212 24.3727 41.2143Z" fill="#C1DBF6"/>
<path d="M3.33376 29.2596C3.33555 29.2795 3.33692 29.2993 3.34055 29.3191C3.34352 29.3352 3.34844 29.3513 3.35264 29.3673C3.35758 29.3861 3.36218 29.4049 3.3688 29.4236C3.37429 29.439 3.38158 29.4543 3.38826 29.4696C3.3968 29.4893 3.40528 29.5088 3.41573 29.5283C3.4233 29.5423 3.43237 29.5561 3.44094 29.57C3.45463 29.5922 3.46908 29.6142 3.48533 29.6359C3.49491 29.6487 3.50531 29.6613 3.51575 29.6739C3.53991 29.703 3.56666 29.7317 3.59557 29.7598C3.60611 29.77 3.61575 29.7805 3.62693 29.7906C3.64499 29.8068 3.66515 29.8225 3.68487 29.8384C3.70224 29.8523 3.71898 29.8665 3.73763 29.88C3.75898 29.8955 3.78252 29.9104 3.80556 29.9253C3.82924 29.9407 3.85168 29.9566 3.87715 29.9713L22.7054 40.9131C22.7873 40.9607 22.8766 41.001 22.9686 41.038C22.9926 41.0476 23.0171 41.0567 23.0417 41.0656C23.0987 41.0864 23.1587 41.1029 23.2186 41.1197C23.2806 41.1371 23.3431 41.1535 23.4075 41.1667C23.4828 41.1822 23.5587 41.1963 23.6362 41.206C23.655 41.2084 23.6734 41.2118 23.6923 41.2139C23.7971 41.2251 23.9032 41.2306 24.0094 41.2315C24.0262 41.2316 24.0429 41.2318 24.0596 41.2317C24.0974 41.2314 24.1347 41.227 24.1724 41.2255V42.9861C24.156 42.9867 24.1397 42.9883 24.1232 42.9888C24.1037 42.9892 24.0842 42.9883 24.0646 42.9884C24.0478 42.9885 24.0312 42.9884 24.0143 42.9882C23.9862 42.988 23.9581 42.9887 23.9301 42.9878C23.8601 42.9854 23.7903 42.9808 23.721 42.9739C23.7131 42.9731 23.7053 42.9715 23.6974 42.9706C23.6784 42.9686 23.6601 42.9651 23.6412 42.9627C23.5874 42.956 23.5333 42.9499 23.4805 42.9404C23.4571 42.9362 23.4356 42.9283 23.4125 42.9235C23.3479 42.9102 23.2858 42.8939 23.2236 42.8764C23.1907 42.8672 23.1556 42.8619 23.1235 42.8515C23.0971 42.8429 23.0726 42.8318 23.0467 42.8224C23.0219 42.8134 22.9977 42.8044 22.9735 42.7947C22.8815 42.7577 22.7923 42.7174 22.7104 42.6699L3.88215 31.7281C3.8744 31.7236 3.8667 31.719 3.85911 31.7145C3.84179 31.704 3.82702 31.6928 3.81054 31.6821C3.7875 31.6671 3.76398 31.6523 3.74261 31.6368C3.72394 31.6232 3.70725 31.6091 3.68986 31.5951C3.67013 31.5793 3.64999 31.5635 3.63191 31.5472C3.62823 31.544 3.62378 31.5409 3.62016 31.5376C3.61278 31.5307 3.60768 31.5234 3.60058 31.5165C3.57159 31.4884 3.54487 31.4598 3.52069 31.4306C3.51541 31.4242 3.50828 31.4182 3.50323 31.4118C3.49831 31.4056 3.49509 31.399 3.49038 31.3927C3.47406 31.3709 3.45957 31.3489 3.44586 31.3266C3.44016 31.3174 3.43262 31.3085 3.42736 31.2992C3.42474 31.2946 3.42327 31.2898 3.42076 31.2851C3.41027 31.2656 3.40172 31.2459 3.39317 31.2263C3.38821 31.2148 3.38149 31.2035 3.37715 31.192C3.37571 31.1881 3.37516 31.1842 3.37379 31.1803C3.36714 31.1616 3.36256 31.1428 3.35763 31.124C3.35429 31.1113 3.34926 31.0987 3.34672 31.0859C3.34606 31.0826 3.3462 31.0792 3.34556 31.0758C3.34192 31.0561 3.34055 31.0362 3.33877 31.0164C3.33763 31.0035 3.33475 30.9907 3.33436 30.9778C3.3342 30.9723 3.33411 30.9668 3.33408 30.9613L3.3291 29.2045C3.32915 29.2229 3.33212 29.2413 3.33376 29.2596Z" fill="#FBDBD0"/>
<path d="M42.2958 6.70187C42.7782 6.70187 43.26 6.80845 43.627 7.02173L62.4552 17.9635C62.8208 18.176 63.0032 18.4544 63.0028 18.733C63.0028 18.7321 63.0029 18.7313 63.0029 18.7304L63.0079 20.4871C63.0087 20.7684 62.8231 21.0501 62.4515 21.2646L60.9033 22.1585V40.6863C60.9033 41.2814 60.4209 41.7638 59.8257 41.7638C59.2306 41.7638 58.7482 41.2814 58.7482 40.6863V23.4027L35.73 36.6923L35.7228 39.2331L35.7055 45.3236L35.6874 51.7078L25.1185 57.8499V59.2924C25.1185 59.8876 24.636 60.37 24.0409 60.37C23.4458 60.37 22.9634 59.8876 22.9634 59.2924V56.679L10.8221 49.721L10.8616 35.7842L7.13109 33.6162V50.9158C7.13109 51.5109 6.64867 51.9933 6.05356 51.9933C5.45845 51.9933 4.97601 51.5109 4.97601 50.9158V32.3638L3.88206 31.7281C3.87429 31.7236 3.86661 31.7191 3.85902 31.7145C3.85194 31.7102 3.84545 31.7058 3.8385 31.7015C3.82686 31.6942 3.81528 31.687 3.80405 31.6797C3.79386 31.673 3.78398 31.6662 3.77413 31.6594C3.7633 31.6519 3.75256 31.6445 3.74213 31.6369C3.73258 31.6299 3.7233 31.6229 3.71409 31.6159C3.70408 31.6082 3.69418 31.6005 3.68458 31.5928C3.67571 31.5856 3.66709 31.5784 3.65857 31.5711C3.64933 31.5633 3.64019 31.5553 3.63134 31.5474C3.62769 31.5441 3.62371 31.5409 3.62014 31.5376C3.61681 31.5345 3.614 31.5313 3.61075 31.5282C3.59589 31.5142 3.5817 31.5 3.56805 31.4858C3.56346 31.481 3.55866 31.4762 3.55422 31.4714C3.53692 31.4525 3.52058 31.4335 3.50531 31.4143C3.50465 31.4134 3.50387 31.4126 3.50321 31.4118C3.49973 31.4074 3.49683 31.4029 3.49347 31.3985C3.48426 31.3864 3.47523 31.3742 3.46684 31.362C3.46225 31.3553 3.45804 31.3485 3.4537 31.3418C3.44652 31.3307 3.43953 31.3196 3.43301 31.3084C3.43123 31.3053 3.42908 31.3023 3.42737 31.2992C3.42481 31.2947 3.42277 31.2901 3.42033 31.2856C3.41523 31.2762 3.41031 31.2667 3.4057 31.2573C3.40184 31.2493 3.39815 31.2414 3.39459 31.2334C3.39036 31.2239 3.38636 31.2145 3.38259 31.2049C3.38085 31.2006 3.37877 31.1964 3.37715 31.1921C3.37569 31.1882 3.37468 31.1844 3.37331 31.1805C3.37011 31.1714 3.36714 31.1624 3.36433 31.1533C3.36174 31.145 3.35925 31.1367 3.35701 31.1284C3.35457 31.1193 3.3524 31.1101 3.35036 31.101C3.34924 31.096 3.34771 31.091 3.3467 31.086C3.34602 31.0827 3.34572 31.0793 3.3451 31.0759C3.34339 31.0665 3.342 31.0572 3.34069 31.0478C3.33955 31.0395 3.33838 31.0313 3.33756 31.0229C3.3366 31.0135 3.33605 31.0041 3.33553 30.9946C3.33523 30.989 3.3345 30.9835 3.33434 30.9779C3.33418 30.9724 3.33409 30.9669 3.33406 30.9613L3.32908 29.2046C3.3291 29.2126 3.32981 29.2206 3.33013 29.2286C3.31838 28.9395 3.50339 28.6478 3.88581 28.427L40.9608 7.02173C41.3301 6.80854 41.8132 6.70187 42.2958 6.70187ZM62.9972 18.8136C62.9961 18.8217 62.9953 18.8299 62.994 18.838C62.9941 18.8373 62.9943 18.8365 62.9945 18.8357C62.9956 18.8283 62.9962 18.821 62.9972 18.8136ZM62.9883 18.8658C62.9866 18.874 62.9851 18.8821 62.9831 18.8903C62.9832 18.8896 62.9835 18.8889 62.9837 18.8881C62.9855 18.8807 62.9867 18.8732 62.9883 18.8658ZM62.9356 19.021C62.9319 19.0289 62.9284 19.0368 62.9244 19.0447C62.9246 19.0442 62.9249 19.0438 62.9252 19.0434C62.9289 19.036 62.9321 19.0285 62.9356 19.021ZM3.33438 29.2807C3.33367 29.275 3.33292 29.2694 3.33237 29.2637C3.33244 29.2645 3.33246 29.2654 3.33256 29.2661C3.33304 29.271 3.33379 29.2759 3.33438 29.2807ZM3.34291 29.3326C3.34183 29.3274 3.34072 29.3222 3.33976 29.3169C3.33989 29.3177 3.33996 29.3184 3.3401 29.3192C3.34092 29.3236 3.34197 29.3281 3.34291 29.3326ZM3.35578 29.3845C3.35431 29.3795 3.35283 29.3745 3.35148 29.3695C3.35166 29.3702 3.3518 29.3709 3.35198 29.3716C3.35315 29.3759 3.35452 29.3802 3.35578 29.3845ZM3.37265 29.4352C3.37095 29.4307 3.36924 29.4262 3.36766 29.4218C3.36787 29.4224 3.36807 29.4231 3.36828 29.4237C3.36965 29.4275 3.37121 29.4313 3.37265 29.4352ZM3.39317 29.4845C3.39171 29.4813 3.39025 29.4781 3.38883 29.475C3.38908 29.4755 3.38929 29.4761 3.38954 29.4766C3.3907 29.4793 3.39194 29.4818 3.39317 29.4845ZM3.42051 29.5382C3.4185 29.5346 3.41646 29.5309 3.41452 29.5273C3.4148 29.5278 3.41502 29.5283 3.4153 29.5288C3.41699 29.5319 3.41877 29.5351 3.42051 29.5382ZM3.45089 29.5884C3.44999 29.5871 3.44913 29.5857 3.44826 29.5843C3.4484 29.5846 3.44851 29.5848 3.44867 29.585C3.4494 29.5861 3.45013 29.5873 3.45089 29.5884ZM3.54871 29.714C3.5489 29.7142 3.54904 29.7144 3.54922 29.7146C3.55304 29.7187 3.55708 29.7228 3.56106 29.7269C3.56183 29.7277 3.56261 29.7285 3.56339 29.7293C3.56328 29.7292 3.56318 29.7291 3.56309 29.729C3.56241 29.7282 3.56174 29.7276 3.56106 29.7269C3.55692 29.7226 3.55271 29.7183 3.54871 29.714ZM3.60542 29.7711C3.60542 29.7711 3.60561 29.7713 3.60567 29.7714C3.60876 29.7743 3.61187 29.7772 3.61498 29.78C3.61178 29.777 3.60858 29.7741 3.60542 29.7711ZM3.66707 29.8255C3.66229 29.8216 3.65749 29.8177 3.65283 29.8136C3.65308 29.8139 3.65331 29.8141 3.65356 29.8143C3.65797 29.8181 3.66254 29.8218 3.66707 29.8255ZM3.72586 29.8716C3.72003 29.8673 3.7142 29.863 3.70849 29.8586C3.70869 29.8587 3.7089 29.8589 3.7091 29.8591C3.71461 29.8633 3.72024 29.8674 3.72586 29.8716ZM3.77816 29.9087C3.77491 29.9066 3.77166 29.9043 3.76844 29.9021C3.76867 29.9023 3.76883 29.9024 3.76906 29.9026C3.77207 29.9046 3.77509 29.9067 3.77816 29.9087ZM3.85038 29.9551C3.84453 29.9515 3.83873 29.9479 3.8329 29.9442C3.83304 29.9444 3.83319 29.9445 3.83335 29.9446C3.83905 29.9481 3.84469 29.9516 3.85038 29.9551ZM42.2958 5.78754C41.6342 5.78754 40.9978 5.94466 40.5037 6.22989L3.42865 27.6352C2.77923 28.0102 2.41269 28.5805 2.41527 29.2071H2.41479L2.41978 30.9639C2.4198 30.9768 2.42003 30.9907 2.42044 31.0047L2.42122 31.0312L2.4233 31.0564C2.42449 31.0762 2.42595 31.0955 2.42789 31.1148C2.42963 31.1325 2.43214 31.1524 2.43491 31.1723C2.43715 31.1885 2.43946 31.2038 2.442 31.219L2.44414 31.2343L2.45054 31.2672C2.45338 31.2815 2.45706 31.2977 2.46122 31.3142C2.4654 31.3322 2.4697 31.3495 2.47436 31.3668C2.47939 31.3854 2.4851 31.4049 2.49114 31.4243C2.49589 31.4397 2.50108 31.4557 2.50666 31.4719C2.51146 31.4867 2.51656 31.5012 2.52211 31.5159L2.5307 31.5385L2.53829 31.556C2.5446 31.5715 2.55203 31.589 2.55982 31.6064C2.56732 31.6232 2.57564 31.6411 2.5844 31.6591C2.59214 31.675 2.60078 31.6918 2.60983 31.7088C2.61665 31.7222 2.62364 31.7354 2.63105 31.7485L2.64362 31.7708L2.65271 31.7851C2.66305 31.8023 2.6742 31.8201 2.68565 31.8378C2.69507 31.8526 2.70371 31.8658 2.71278 31.879C2.72744 31.9004 2.74266 31.9213 2.75825 31.942C2.76677 31.9539 2.77539 31.9654 2.78446 31.9769L2.80236 31.9997L2.8086 32.0066C2.83265 32.0359 2.85646 32.0633 2.88138 32.0904C2.88931 32.0991 2.89905 32.1092 2.90887 32.1193C2.9278 32.1391 2.94897 32.1604 2.97116 32.1817C2.98087 32.1914 2.99079 32.201 3.00117 32.2105L3.01402 32.2223L3.02702 32.2335C3.04033 32.2454 3.05319 32.2565 3.06622 32.2676C3.08083 32.28 3.09591 32.2927 3.11143 32.3051C3.12609 32.317 3.14245 32.3298 3.15907 32.3425L3.20321 32.3755C3.22053 32.3881 3.23738 32.3999 3.25438 32.4116C3.27009 32.4225 3.2857 32.4331 3.30174 32.4436C3.31889 32.4549 3.33591 32.4656 3.35303 32.4763L3.38389 32.4956L3.42286 32.5187L4.06177 32.8901V50.9159C4.06177 52.0141 4.9553 52.9077 6.05361 52.9077C7.15192 52.9077 8.04542 52.0141 8.04542 50.9159V35.205L9.94588 36.3095L9.90787 49.7185L9.90636 50.25L10.3675 50.5143L22.0491 57.2088V59.2925C22.0491 60.3908 22.9427 61.2843 24.0409 61.2843C25.1392 61.2843 26.0328 60.3908 26.0328 59.2925V58.3761L36.1469 52.4984L36.6003 52.2349L36.6018 51.7105L36.6199 45.3263L36.6371 39.2357L36.6429 37.221L57.834 24.9863V40.6863C57.834 41.7846 58.7275 42.6781 59.8258 42.6781C60.9241 42.6781 61.8176 41.7846 61.8176 40.6863V22.6863L62.9087 22.0565C63.5546 21.6835 63.924 21.1106 63.9222 20.4845L63.9172 18.7278C63.9155 18.1088 63.5503 17.5425 62.9146 17.1731L44.0863 6.23126C43.5941 5.94516 42.9582 5.78754 42.2958 5.78754ZM62.1325 18.6342L62.1187 18.6238L62.126 18.6282L62.1355 18.6359L62.1325 18.6342ZM62.1537 18.6461L62.1313 18.6314L62.1423 18.6381L62.1537 18.6461ZM62.2336 18.7216L62.2318 18.7214L62.2345 18.7216H62.2336Z" fill="#374874"/>
<mask id="mask0_405_9579" style="mask-type:luminance" maskUnits="userSpaceOnUse" x="29" y="41" width="3" height="11">
<path d="M29.4445 51.4128L29.4197 42.6392L31.4818 41.4487L31.5066 50.2223L29.4445 51.4128Z" fill="white"/>
</mask>
<g mask="url(#mask0_405_9579)">
<path d="M31.1804 49.6631L29.7663 50.4795C29.5868 50.5831 29.4428 50.8343 29.4434 51.0405C29.4439 51.2451 29.5889 51.3294 29.7684 51.2257L31.1825 50.4093C31.362 50.3057 31.506 50.0545 31.5054 49.85C31.5048 49.6437 31.3599 49.5594 31.1804 49.6631Z" fill="#374874"/>
<path d="M31.1692 45.6502L29.7551 46.4667C29.5756 46.5703 29.4316 46.8197 29.4321 47.026C29.4327 47.2322 29.5777 47.3148 29.7572 47.2112L31.1713 46.3948C31.3508 46.2911 31.4948 46.0417 31.4942 45.8354C31.4936 45.6292 31.3487 45.5466 31.1692 45.6502Z" fill="#374874"/>
<path d="M31.1577 41.6357L29.7436 42.4521C29.5641 42.5558 29.4201 42.8069 29.4207 43.0115C29.4213 43.2177 29.5662 43.302 29.7457 43.1984L31.1598 42.382C31.3393 42.2783 31.4833 42.0272 31.4827 41.821C31.4821 41.6164 31.3372 41.5321 31.1577 41.6357Z" fill="#374874"/>
</g>
<path fill-rule="evenodd" clip-rule="evenodd" d="M62.6495 21.419C62.7126 21.5283 62.6751 21.6681 62.5658 21.7312L25.4908 43.1365C25.3952 43.1917 25.2938 43.24 25.1884 43.2816C25.1847 43.2831 25.1812 43.2844 25.1783 43.2854C25.1762 43.2861 25.1744 43.2867 25.1729 43.2872C25.1706 43.288 25.1684 43.2887 25.1669 43.2892C25.1541 43.294 25.1425 43.2977 25.1356 43.2999C25.1259 43.303 25.1231 43.3039 25.1207 43.3047L25.113 43.3075C25.0615 43.3262 25.0017 43.348 24.9384 43.3661M24.7253 43.4183C24.6589 43.4321 24.5918 43.4437 24.5243 43.4533C24.5073 43.4557 24.4784 43.4587 24.4623 43.4604C24.457 43.4609 24.4531 43.4613 24.4515 43.4615C24.4347 43.4635 24.4181 43.4653 24.4017 43.4671L24.4013 43.4671C24.3997 43.4673 24.3955 43.4678 24.3897 43.4685C24.3733 43.4704 24.3445 43.4739 24.3282 43.4752L24.3273 43.4753C24.2765 43.4794 24.226 43.4814 24.1816 43.4832L24.1809 43.4832C24.1795 43.4833 24.1781 43.4833 24.1765 43.4834C24.173 43.4836 24.1687 43.4839 24.1623 43.4843C24.1542 43.4848 24.1423 43.4856 24.1295 43.4859L24.1285 43.4859C24.1138 43.4863 24.1002 43.4861 24.0902 43.4859L24.0857 43.4859M24.0124 43.4854C24.0289 43.4856 24.0471 43.4858 24.0659 43.4857L24.0124 43.4854ZM25.1726 43.287C25.1722 43.2871 25.1719 43.2873 25.1716 43.2874L25.1726 43.287ZM62.6495 21.419C62.5863 21.3097 62.4466 21.2722 62.3372 21.3353L62.6495 21.419ZM62.3372 21.3353L25.2623 42.7406L62.3372 21.3353ZM25.2623 42.7406C25.1891 42.7828 25.1099 42.8209 25.0257 42.8544C25.0243 42.8548 25.0227 42.8553 25.021 42.8559C25.0175 42.8571 25.0125 42.8588 25.0067 42.861C25.0068 42.861 25.0062 42.8612 25.0044 42.8618C25.0035 42.8621 25.0025 42.8625 25.0014 42.8628C25 42.8633 24.9984 42.8638 24.9964 42.8644L24.9942 42.8651C24.9877 42.8672 24.9761 42.8709 24.9646 42.8751C24.9646 42.8751 24.9646 42.8751 24.9646 42.8751L24.9625 42.8759C24.9068 42.8961 24.8604 42.9129 24.8129 42.9265C24.7974 42.9309 24.7854 42.9337 24.7694 42.9373C24.7581 42.9399 24.7447 42.943 24.7266 42.9475M24.1173 43.0289C24.1107 43.0291 24.107 43.0291 24.1041 43.0291C24.0962 43.0289 24.0952 43.0283 24.0632 43.0285C24.0486 43.0286 24.0336 43.0285 24.0167 43.0283L24.0161 43.0283C23.9897 43.0281 23.9754 43.0284 23.9616 43.0284C23.9541 43.0284 23.9467 43.0283 23.9377 43.028C23.9376 43.028 23.9377 43.028 23.9377 43.028M23.7458 43.0153C23.7455 43.0153 23.7452 43.0152 23.7447 43.0152L23.7441 43.0151C23.7424 43.0148 23.7394 43.0143 23.7362 43.0139C23.7324 43.0133 23.7273 43.0126 23.7214 43.012M23.0585 42.8512C22.9718 42.8164 22.8938 42.7808 22.8252 42.7409L3.95868 31.8089C3.84946 31.7456 3.70961 31.7828 3.64632 31.8921C3.58303 32.0013 3.62027 32.1411 3.72949 32.2044L22.5955 43.1362C22.5955 43.1362 22.5956 43.1362 22.5955 43.1362C22.6906 43.1914 22.791 43.2364 22.8883 43.2755C22.9157 43.2865 22.9427 43.2965 22.9685 43.3059C22.9773 43.3091 22.9852 43.3123 23.0005 43.3184C23.0139 43.3237 23.0323 43.3309 23.0529 43.3376C23.0801 43.3464 23.1063 43.3524 23.1233 43.3562C23.1436 43.3607 23.1528 43.3627 23.1618 43.3652C23.2262 43.3833 23.2942 43.4012 23.3663 43.416L23.4124 43.1921L23.366 43.416C23.3685 43.4165 23.3714 43.4172 23.3851 43.421L23.3856 43.4212C23.3967 43.4243 23.4168 43.4298 23.4396 43.434L23.44 43.4341C23.4912 43.4433 23.5439 43.4497 23.589 43.4553C23.5972 43.4563 23.6051 43.4573 23.6128 43.4582C23.6186 43.459 23.6244 43.4599 23.635 43.4615C23.6396 43.4622 23.6451 43.463 23.6513 43.4639C23.6574 43.4647 23.664 43.4656 23.671 43.4663L23.6735 43.4667L23.6741 43.4668C23.6778 43.4674 23.6875 43.469 23.6984 43.47M23.0585 42.8512C23.0585 42.8512 23.0585 42.8512 23.0585 42.8512V42.8512ZM23.1939 42.9027C23.1938 42.9027 23.1939 42.9028 23.1939 42.9027V42.9027ZM23.7458 43.0153C23.7466 43.0155 23.7469 43.0155 23.747 43.0155C23.7468 43.0155 23.7455 43.0153 23.7435 43.0151C23.7443 43.0152 23.745 43.0153 23.7458 43.0153ZM25.2623 42.7406C25.2623 42.7406 25.2623 42.7406 25.2623 42.7406V42.7406Z" fill="#374874"/>
</svg>
