<svg xmlns="http://www.w3.org/2000/svg" width="310" height="120" viewBox="0 0 310 120">
    <g>
        <path fill="#7C6576" d="M205.104,48.417c-0.688-26.971-22.805-48.624-49.983-48.624c-26.929,0-48.883,21.258-49.954,47.883h-0.045V120c8.337,0,8.337-14.977,16.674-14.977c8.338,0,8.338,14.977,16.674,14.977c8.332,0,8.332-14.977,16.664-14.977c8.335,0,8.335,14.977,16.668,14.977c8.332,0,8.332-14.977,16.661-14.977c8.33,0,8.33,14.977,16.659,14.977V48.418L205.104,48.417zM146.152,64.963c-6.698,0-12.126-5.419-12.126-12.107s5.429-12.106,12.126-12.106c5.839,0,10.715,4.122,11.866,9.612c-1.011-1.197-2.521-1.958-4.21-1.958c-3.044,0-5.511,2.462-5.511,5.501c0,3.04,2.466,5.505,5.511,5.505c1.147,0,2.21-0.351,3.093-0.95C154.875,62.325,150.822,64.963,146.152,64.963z M180.425,64.963c-6.696,0-12.126-5.419-12.126-12.107s5.43-12.106,12.126-12.106c5.841,0,10.716,4.122,11.867,9.612c-1.011-1.197-2.522-1.958-4.212-1.958c-3.044,0-5.512,2.462-5.512,5.501c0,3.04,2.468,5.505,5.512,5.505c1.146,0,2.211-0.351,3.093-0.95C189.148,62.325,185.096,64.963,180.425,64.963z"/>
    </g>
    <g>
        <path fill="#21323A" d="M308.002,84.182h-24.3V120h-5.04V84.182h-59.758v-3.96l58.139-79.017h6.659v78.656h24.3V84.182zM224.484,79.861h54.178V18.304l0.18-12.419h-0.359c-2.52,3.96-5.76,8.64-8.459,12.419L224.484,79.861z"/>
    </g>
    <g>
        <path fill="#21323A" d="M90.002,84.182H65.703V120h-5.04V84.182H0.906v-3.96L59.043,1.205h6.66v78.656h24.299V84.182zM6.486,79.861h54.178V18.304l0.18-12.419h-0.36c-2.52,3.96-5.76,8.64-8.459,12.419L6.486,79.861z"/>
    </g>
    <desc>
        <!-- Monkey HTML formatted-text fallback -->
        <h1 style="font-size:12em;line-height:1;">404</h1>
    </desc>
</svg>
