<?xml version="1.0" encoding="UTF-8"?>
<!DOCTYPE svg PUBLIC "-//W3C//DTD SVG 1.1//EN" "http://www.w3.org/Graphics/SVG/1.1/DTD/svg11.dtd">
<svg xmlns="http://www.w3.org/2000/svg" version="1.1" width="1024px" height="1024px" style="shape-rendering:geometricPrecision; text-rendering:geometricPrecision; image-rendering:optimizeQuality; fill-rule:evenodd; clip-rule:evenodd" xmlns:xlink="http://www.w3.org/1999/xlink">
<g><path style="opacity:0.968" fill="#6802dd" d="M 872.5,351.5 C 869.316,353.414 865.649,354.08 861.5,353.5C 861.068,352.29 860.401,351.29 859.5,350.5C 855.884,340.601 851.217,331.268 845.5,322.5C 841.319,314.792 836.652,307.458 831.5,300.5C 825.654,289.989 818.654,280.322 810.5,271.5C 804.551,263.217 797.884,255.55 790.5,248.5C 783.833,241.167 776.833,234.167 769.5,227.5C 763.245,221.369 756.578,215.702 749.5,210.5C 738.906,201.529 727.572,193.529 715.5,186.5C 706.018,180.041 696.018,174.374 685.5,169.5C 673.375,162.774 660.708,157.107 647.5,152.5C 631.495,146.499 615.162,141.499 598.5,137.5C 507.572,117.423 420.572,128.089 337.5,169.5C 326.51,174.993 315.843,180.993 305.5,187.5C 296.223,193.444 287.223,199.778 278.5,206.5C 269.849,213.154 261.516,220.154 253.5,227.5C 246.167,234.167 239.167,241.167 232.5,248.5C 225.116,255.55 218.449,263.217 212.5,271.5C 204.346,280.322 197.346,289.989 191.5,300.5C 186.348,307.458 181.681,314.792 177.5,322.5C 171.798,331.237 167.132,340.57 163.5,350.5C 162.599,351.29 161.932,352.29 161.5,353.5C 157.351,354.08 153.684,353.414 150.5,351.5C 183.041,278.449 233.041,220.282 300.5,177C 398.817,117.525 503.817,101.859 615.5,130C 722.993,161.19 804.16,225.357 859,322.5C 864.059,331.948 868.559,341.615 872.5,351.5 Z"/></g>
<g><path style="opacity:1" fill="#b779fc" d="M 598.5,137.5 C 615.162,141.499 631.495,146.499 647.5,152.5C 640.391,154.014 633.058,154.847 625.5,155C 625.957,155.414 626.291,155.914 626.5,156.5C 616.183,157.332 605.849,157.832 595.5,158C 595.957,158.414 596.291,158.914 596.5,159.5C 591.533,160.329 586.533,160.829 581.5,161C 581.957,161.414 582.291,161.914 582.5,162.5C 572.833,163.167 563.167,163.833 553.5,164.5C 554.624,165.914 555.624,167.414 556.5,169C 540.819,169.345 525.152,170.011 509.5,171C 510.167,171.667 510.833,172.333 511.5,173C 501.5,173.333 491.5,173.667 481.5,174C 482.167,175 482.833,176 483.5,177C 474.176,177.744 464.843,178.244 455.5,178.5C 419.098,172.35 382.431,169.683 345.5,170.5C 358.362,169.511 371.362,168.344 384.5,167C 383.833,166 383.167,165 382.5,164C 401.944,162.442 421.944,161.109 442.5,160C 441.833,159.333 441.167,158.667 440.5,158C 445.833,157.667 451.167,157.333 456.5,157C 455.833,156.333 455.167,155.667 454.5,155C 473.944,153.442 493.944,152.109 514.5,151C 513.833,150 513.167,149 512.5,148C 517.533,147.829 522.533,147.329 527.5,146.5C 527.291,145.914 526.957,145.414 526.5,145C 536.849,144.832 547.183,144.332 557.5,143.5C 557.291,142.914 556.957,142.414 556.5,142C 566.184,141.832 575.851,141.332 585.5,140.5C 585.291,139.914 584.957,139.414 584.5,139C 589.351,138.826 594.018,138.326 598.5,137.5 Z"/></g>
<g><path style="opacity:1" fill="#ba7efd" d="M 598.5,137.5 C 594.018,138.326 589.351,138.826 584.5,139C 584.957,139.414 585.291,139.914 585.5,140.5C 575.851,141.332 566.184,141.832 556.5,142C 556.957,142.414 557.291,142.914 557.5,143.5C 547.183,144.332 536.849,144.832 526.5,145C 526.957,145.414 527.291,145.914 527.5,146.5C 522.533,147.329 517.533,147.829 512.5,148C 513.167,149 513.833,150 514.5,151C 493.944,152.109 473.944,153.442 454.5,155C 455.167,155.667 455.833,156.333 456.5,157C 451.167,157.333 445.833,157.667 440.5,158C 441.167,158.667 441.833,159.333 442.5,160C 421.944,161.109 401.944,162.442 382.5,164C 383.167,165 383.833,166 384.5,167C 371.362,168.344 358.362,169.511 345.5,170.5C 342.615,170.806 339.948,170.473 337.5,169.5C 420.572,128.089 507.572,117.423 598.5,137.5 Z"/></g>
<g><path style="opacity:1" fill="#b373fb" d="M 647.5,152.5 C 660.708,157.107 673.375,162.774 685.5,169.5C 678.679,170.329 671.679,170.829 664.5,171C 664.957,171.414 665.291,171.914 665.5,172.5C 655.851,173.332 646.184,173.832 636.5,174C 637.167,175 637.833,176 638.5,177C 633.467,177.171 628.467,177.671 623.5,178.5C 623.709,179.086 624.043,179.586 624.5,180C 603.944,181.109 583.944,182.442 564.5,184C 565.357,184.689 566.023,185.522 566.5,186.5C 561.5,187.167 556.5,187.833 551.5,188.5C 551.709,189.086 552.043,189.586 552.5,190C 542.167,190.333 531.833,190.667 521.5,191C 521.957,191.414 522.291,191.914 522.5,192.5C 519.914,193.48 517.247,193.813 514.5,193.5C 508.102,192.033 501.768,190.366 495.5,188.5C 482.32,184.531 468.987,181.198 455.5,178.5C 464.843,178.244 474.176,177.744 483.5,177C 482.833,176 482.167,175 481.5,174C 491.5,173.667 501.5,173.333 511.5,173C 510.833,172.333 510.167,171.667 509.5,171C 525.152,170.011 540.819,169.345 556.5,169C 555.624,167.414 554.624,165.914 553.5,164.5C 563.167,163.833 572.833,163.167 582.5,162.5C 582.291,161.914 581.957,161.414 581.5,161C 586.533,160.829 591.533,160.329 596.5,159.5C 596.291,158.914 595.957,158.414 595.5,158C 605.849,157.832 616.183,157.332 626.5,156.5C 626.291,155.914 625.957,155.414 625.5,155C 633.058,154.847 640.391,154.014 647.5,152.5 Z"/></g>
<g><path style="opacity:1" fill="#b06dfa" d="M 685.5,169.5 C 696.018,174.374 706.018,180.041 715.5,186.5C 712.642,187.166 709.642,187.833 706.5,188.5C 706.709,189.086 707.043,189.586 707.5,190C 697.151,190.168 686.817,190.668 676.5,191.5C 676.709,192.086 677.043,192.586 677.5,193C 662.518,194.032 647.518,194.698 632.5,195C 643.515,195.168 654.515,195.668 665.5,196.5C 645.225,197.916 624.892,199.416 604.5,201C 605.167,202 605.833,203 606.5,204C 601.833,204.333 597.167,204.667 592.5,205C 592.957,205.414 593.291,205.914 593.5,206.5C 583.183,207.332 572.849,207.832 562.5,208C 565.194,210.552 564.527,211.719 560.5,211.5C 557.166,210.166 553.833,208.833 550.5,207.5C 538.736,202.245 526.736,197.578 514.5,193.5C 517.247,193.813 519.914,193.48 522.5,192.5C 522.291,191.914 521.957,191.414 521.5,191C 531.833,190.667 542.167,190.333 552.5,190C 552.043,189.586 551.709,189.086 551.5,188.5C 556.5,187.833 561.5,187.167 566.5,186.5C 566.023,185.522 565.357,184.689 564.5,184C 583.944,182.442 603.944,181.109 624.5,180C 624.043,179.586 623.709,179.086 623.5,178.5C 628.467,177.671 633.467,177.171 638.5,177C 637.833,176 637.167,175 636.5,174C 646.184,173.832 655.851,173.332 665.5,172.5C 665.291,171.914 664.957,171.414 664.5,171C 671.679,170.829 678.679,170.329 685.5,169.5 Z"/></g>
<g><path style="opacity:1" fill="#af6bfb" d="M 337.5,169.5 C 339.948,170.473 342.615,170.806 345.5,170.5C 382.431,169.683 419.098,172.35 455.5,178.5C 468.987,181.198 482.32,184.531 495.5,188.5C 431.998,188.832 368.664,188.499 305.5,187.5C 315.843,180.993 326.51,174.993 337.5,169.5 Z"/></g>
<g><path style="opacity:1" fill="#ac66fa" d="M 305.5,187.5 C 368.664,188.499 431.998,188.832 495.5,188.5C 501.768,190.366 508.102,192.033 514.5,193.5C 526.736,197.578 538.736,202.245 550.5,207.5C 459.665,207.833 368.998,207.499 278.5,206.5C 287.223,199.778 296.223,193.444 305.5,187.5 Z"/></g>
<g><path style="opacity:1" fill="#ac66f9" d="M 715.5,186.5 C 727.572,193.529 738.906,201.529 749.5,210.5C 739.992,211.167 730.325,211.833 720.5,212.5C 720.709,213.086 721.043,213.586 721.5,214C 711.151,214.168 700.817,214.668 690.5,215.5C 690.833,216.167 691.167,216.833 691.5,217.5C 687.167,218.167 682.833,218.833 678.5,219.5C 678.709,220.086 679.043,220.586 679.5,221C 669.151,221.168 658.817,221.668 648.5,222.5C 648.977,223.478 649.643,224.311 650.5,225C 645.167,225.333 639.833,225.667 634.5,226C 635.167,226.667 635.833,227.333 636.5,228C 626.5,228.333 616.5,228.667 606.5,229C 609.145,232.164 608.145,233.331 603.5,232.5C 600.848,230.418 597.848,229.085 594.5,228.5C 583.446,222.306 572.112,216.639 560.5,211.5C 564.527,211.719 565.194,210.552 562.5,208C 572.849,207.832 583.183,207.332 593.5,206.5C 593.291,205.914 592.957,205.414 592.5,205C 597.167,204.667 601.833,204.333 606.5,204C 605.833,203 605.167,202 604.5,201C 624.892,199.416 645.225,197.916 665.5,196.5C 654.515,195.668 643.515,195.168 632.5,195C 647.518,194.698 662.518,194.032 677.5,193C 677.043,192.586 676.709,192.086 676.5,191.5C 686.817,190.668 697.151,190.168 707.5,190C 707.043,189.586 706.709,189.086 706.5,188.5C 709.642,187.833 712.642,187.166 715.5,186.5 Z"/></g>
<g><path style="opacity:1" fill="#a85ff8" d="M 278.5,206.5 C 368.998,207.499 459.665,207.833 550.5,207.5C 553.833,208.833 557.166,210.166 560.5,211.5C 572.112,216.639 583.446,222.306 594.5,228.5C 480.665,228.833 366.999,228.5 253.5,227.5C 261.516,220.154 269.849,213.154 278.5,206.5 Z"/></g>
<g><path style="opacity:1" fill="#a760f7" d="M 749.5,210.5 C 756.578,215.702 763.245,221.369 769.5,227.5C 767.031,228.317 764.365,228.817 761.5,229C 762.167,230 762.833,231 763.5,232C 753.151,232.168 742.817,232.668 732.5,233.5C 732.709,234.086 733.043,234.586 733.5,235C 728.467,235.171 723.467,235.671 718.5,236.5C 718.833,237.167 719.167,237.833 719.5,238.5C 709.833,239.167 700.167,239.833 690.5,240.5C 690.977,241.478 691.643,242.311 692.5,243C 687.167,243.333 681.833,243.667 676.5,244C 677.167,244.667 677.833,245.333 678.5,246C 668.151,246.168 657.817,246.668 647.5,247.5C 647.833,248.167 648.167,248.833 648.5,249.5C 643.208,250.495 637.875,250.828 632.5,250.5C 632.158,249.662 631.492,249.328 630.5,249.5C 621.669,243.583 612.669,237.917 603.5,232.5C 608.145,233.331 609.145,232.164 606.5,229C 616.5,228.667 626.5,228.333 636.5,228C 635.833,227.333 635.167,226.667 634.5,226C 639.833,225.667 645.167,225.333 650.5,225C 649.643,224.311 648.977,223.478 648.5,222.5C 658.817,221.668 669.151,221.168 679.5,221C 679.043,220.586 678.709,220.086 678.5,219.5C 682.833,218.833 687.167,218.167 691.5,217.5C 691.167,216.833 690.833,216.167 690.5,215.5C 700.817,214.668 711.151,214.168 721.5,214C 721.043,213.586 720.709,213.086 720.5,212.5C 730.325,211.833 739.992,211.167 749.5,210.5 Z"/></g>
<g><path style="opacity:1" fill="#a45af7" d="M 253.5,227.5 C 366.999,228.5 480.665,228.833 594.5,228.5C 597.848,229.085 600.848,230.418 603.5,232.5C 612.669,237.917 621.669,243.583 630.5,249.5C 592.663,249.168 554.996,249.502 517.5,250.5C 515.511,246.904 513.511,243.237 511.5,239.5C 509.203,243.1 507.203,246.767 505.5,250.5C 414.5,249.833 323.5,249.167 232.5,248.5C 239.167,241.167 246.167,234.167 253.5,227.5 Z"/></g>
<g><path style="opacity:1" fill="#a45af6" d="M 769.5,227.5 C 776.833,234.167 783.833,241.167 790.5,248.5C 779.674,249.33 768.674,249.83 757.5,250C 757.957,250.414 758.291,250.914 758.5,251.5C 764.167,252.167 769.833,252.833 775.5,253.5C 761.379,256.056 746.379,257.556 730.5,258C 731.167,259 731.833,260 732.5,261C 718.167,262.667 703.833,264.333 689.5,266C 690.293,267.085 690.96,268.252 691.5,269.5C 680.849,270.666 670.182,270.832 659.5,270C 650.433,263.478 641.433,256.978 632.5,250.5C 637.875,250.828 643.208,250.495 648.5,249.5C 648.167,248.833 647.833,248.167 647.5,247.5C 657.817,246.668 668.151,246.168 678.5,246C 677.833,245.333 677.167,244.667 676.5,244C 681.833,243.667 687.167,243.333 692.5,243C 691.643,242.311 690.977,241.478 690.5,240.5C 700.167,239.833 709.833,239.167 719.5,238.5C 719.167,237.833 718.833,237.167 718.5,236.5C 723.467,235.671 728.467,235.171 733.5,235C 733.043,234.586 732.709,234.086 732.5,233.5C 742.817,232.668 753.151,232.168 763.5,232C 762.833,231 762.167,230 761.5,229C 764.365,228.817 767.031,228.317 769.5,227.5 Z"/></g>
<g><path style="opacity:1" fill="#fefefe" d="M 517.5,250.5 C 520.659,258.151 524.325,265.484 528.5,272.5C 532.659,282.151 537.325,291.484 542.5,300.5C 546.263,309.024 550.263,317.358 554.5,325.5C 558.325,334.484 562.659,343.151 567.5,351.5C 571.325,360.484 575.659,369.151 580.5,377.5C 584.105,385.875 588.105,394.042 592.5,402C 615.123,405.491 637.79,408.658 660.5,411.5C 697.139,417.139 733.806,422.639 770.5,428C 766.296,432.036 762.296,436.202 758.5,440.5C 746.473,452.194 734.473,463.861 722.5,475.5C 708.807,488.861 695.14,502.194 681.5,515.5C 668.506,528.327 655.339,540.994 642,553.5C 641.26,554.749 641.427,555.749 642.5,556.5C 643.974,570.68 646.308,584.68 649.5,598.5C 652.98,621.718 656.98,644.718 661.5,667.5C 664.668,688.343 668.001,709.176 671.5,730C 671.167,730.833 670.833,731.667 670.5,732.5C 617.658,704.245 564.658,676.245 511.5,648.5C 458.5,676.5 405.5,704.5 352.5,732.5C 352.167,731.667 351.833,730.833 351.5,730C 354.999,709.176 358.332,688.343 361.5,667.5C 366.02,644.718 370.02,621.718 373.5,598.5C 376.692,584.68 379.026,570.68 380.5,556.5C 381.573,555.749 381.74,554.749 381,553.5C 366.327,539.66 351.827,525.66 337.5,511.5C 324.527,498.861 311.527,486.194 298.5,473.5C 287.193,462.527 275.86,451.527 264.5,440.5C 260.704,436.202 256.704,432.036 252.5,428C 289.455,422.173 326.455,416.673 363.5,411.5C 386.197,408.256 408.863,404.756 431.5,401C 433.974,395.886 436.307,390.72 438.5,385.5C 444.675,374.484 450.341,363.151 455.5,351.5C 460.341,343.151 464.675,334.484 468.5,325.5C 472.737,317.358 476.737,309.024 480.5,300.5C 485.675,291.484 490.341,282.151 494.5,272.5C 498.675,265.484 502.341,258.151 505.5,250.5C 507.203,246.767 509.203,243.1 511.5,239.5C 513.511,243.237 515.511,246.904 517.5,250.5 Z"/></g>
<g><path style="opacity:1" fill="#a054f5" d="M 232.5,248.5 C 323.5,249.167 414.5,249.833 505.5,250.5C 502.341,258.151 498.675,265.484 494.5,272.5C 400.332,272.833 306.332,272.499 212.5,271.5C 218.449,263.217 225.116,255.55 232.5,248.5 Z"/></g>
<g><path style="opacity:1" fill="#a054f5" d="M 790.5,248.5 C 797.884,255.55 804.551,263.217 810.5,271.5C 802.677,272.329 794.677,272.829 786.5,273C 787.357,273.689 788.023,274.522 788.5,275.5C 778.183,276.332 767.849,276.832 757.5,277C 758.167,278 758.833,279 759.5,280C 754.467,280.171 749.467,280.671 744.5,281.5C 744.833,282.167 745.167,282.833 745.5,283.5C 735.833,284.167 726.167,284.833 716.5,285.5C 716.977,286.478 717.643,287.311 718.5,288C 713.167,288.333 707.833,288.667 702.5,289C 703.357,289.689 704.023,290.522 704.5,291.5C 699.147,292.211 693.814,292.878 688.5,293.5C 680.015,286.426 671.348,279.592 662.5,273C 617.835,272.5 573.168,272.333 528.5,272.5C 524.325,265.484 520.659,258.151 517.5,250.5C 554.996,249.502 592.663,249.168 630.5,249.5C 631.492,249.328 632.158,249.662 632.5,250.5C 641.433,256.978 650.433,263.478 659.5,270C 670.182,270.832 680.849,270.666 691.5,269.5C 690.96,268.252 690.293,267.085 689.5,266C 703.833,264.333 718.167,262.667 732.5,261C 731.833,260 731.167,259 730.5,258C 746.379,257.556 761.379,256.056 775.5,253.5C 769.833,252.833 764.167,252.167 758.5,251.5C 758.291,250.914 757.957,250.414 757.5,250C 768.674,249.83 779.674,249.33 790.5,248.5 Z"/></g>
<g><path style="opacity:1" fill="#9c4df4" d="M 212.5,271.5 C 306.332,272.499 400.332,272.833 494.5,272.5C 490.341,282.151 485.675,291.484 480.5,300.5C 384.167,300.5 287.833,300.5 191.5,300.5C 197.346,289.989 204.346,280.322 212.5,271.5 Z"/></g>
<g><path style="opacity:1" fill="#9b4df3" d="M 810.5,271.5 C 818.654,280.322 825.654,289.989 831.5,300.5C 822.143,300.168 812.81,300.502 803.5,301.5C 803.833,302.167 804.167,302.833 804.5,303.5C 794.183,304.332 783.849,304.832 773.5,305C 774.167,306 774.833,307 775.5,308C 770.467,308.171 765.467,308.671 760.5,309.5C 760.833,310.167 761.167,310.833 761.5,311.5C 756.533,312.329 751.533,312.829 746.5,313C 747.167,314 747.833,315 748.5,316C 738.816,316.168 729.149,316.668 719.5,317.5C 721.167,319.167 720.833,320.167 718.5,320.5C 710.578,314.916 703.245,308.583 696.5,301.5C 645.171,300.5 593.838,300.167 542.5,300.5C 537.325,291.484 532.659,282.151 528.5,272.5C 573.168,272.333 617.835,272.5 662.5,273C 671.348,279.592 680.015,286.426 688.5,293.5C 693.814,292.878 699.147,292.211 704.5,291.5C 704.023,290.522 703.357,289.689 702.5,289C 707.833,288.667 713.167,288.333 718.5,288C 717.643,287.311 716.977,286.478 716.5,285.5C 726.167,284.833 735.833,284.167 745.5,283.5C 745.167,282.833 744.833,282.167 744.5,281.5C 749.467,280.671 754.467,280.171 759.5,280C 758.833,279 758.167,278 757.5,277C 767.849,276.832 778.183,276.332 788.5,275.5C 788.023,274.522 787.357,273.689 786.5,273C 794.677,272.829 802.677,272.329 810.5,271.5 Z"/></g>
<g><path style="opacity:1" fill="#9847f2" d="M 191.5,300.5 C 287.833,300.5 384.167,300.5 480.5,300.5C 476.737,309.024 472.737,317.358 468.5,325.5C 371.329,325.166 274.329,324.166 177.5,322.5C 181.681,314.792 186.348,307.458 191.5,300.5 Z"/></g>
<g><path style="opacity:1" fill="#9847f2" d="M 542.5,300.5 C 593.838,300.167 645.171,300.5 696.5,301.5C 703.245,308.583 710.578,314.916 718.5,320.5C 720.833,320.167 721.167,319.167 719.5,317.5C 729.149,316.668 738.816,316.168 748.5,316C 747.833,315 747.167,314 746.5,313C 751.533,312.829 756.533,312.329 761.5,311.5C 761.167,310.833 760.833,310.167 760.5,309.5C 765.467,308.671 770.467,308.171 775.5,308C 774.833,307 774.167,306 773.5,305C 783.849,304.832 794.183,304.332 804.5,303.5C 804.167,302.833 803.833,302.167 803.5,301.5C 812.81,300.502 822.143,300.168 831.5,300.5C 836.652,307.458 841.319,314.792 845.5,322.5C 836.219,324.312 826.552,325.145 816.5,325C 817.357,325.689 818.023,326.522 818.5,327.5C 808.183,328.332 797.849,328.832 787.5,329C 788.293,330.085 788.96,331.252 789.5,332.5C 784.533,333.329 779.533,333.829 774.5,334C 775.916,336.835 777.583,339.502 779.5,342C 769.5,342.333 759.5,342.667 749.5,343C 750.357,343.689 751.023,344.522 751.5,345.5C 747.541,346.66 743.541,346.827 739.5,346C 733.171,338.671 726.504,331.671 719.5,325C 664.332,324.168 609.332,324.335 554.5,325.5C 550.263,317.358 546.263,309.024 542.5,300.5 Z"/></g>
<g><path style="opacity:1" fill="#9441f0" d="M 177.5,322.5 C 274.329,324.166 371.329,325.166 468.5,325.5C 464.675,334.484 460.341,343.151 455.5,351.5C 358.335,350.501 261.001,350.167 163.5,350.5C 167.132,340.57 171.798,331.237 177.5,322.5 Z"/></g>
<g><path style="opacity:1" fill="#9441f0" d="M 845.5,322.5 C 851.217,331.268 855.884,340.601 859.5,350.5C 850.161,350.334 840.827,350.5 831.5,351C 832.357,351.689 833.023,352.522 833.5,353.5C 828.5,354.167 823.5,354.833 818.5,355.5C 819.167,356.5 819.833,357.5 820.5,358.5C 810.183,359.332 799.849,359.832 789.5,360C 790.167,361 790.833,362 791.5,363C 786.467,363.171 781.467,363.671 776.5,364.5C 777.04,365.748 777.707,366.915 778.5,368C 773.833,368.333 769.167,368.667 764.5,369C 767.388,371.296 766.888,372.462 763,372.5C 761.564,372.441 760.231,372.108 759,371.5C 754.259,364.088 748.759,357.255 742.5,351C 683.999,350.168 625.665,350.335 567.5,351.5C 562.659,343.151 558.325,334.484 554.5,325.5C 609.332,324.335 664.332,324.168 719.5,325C 726.504,331.671 733.171,338.671 739.5,346C 743.541,346.827 747.541,346.66 751.5,345.5C 751.023,344.522 750.357,343.689 749.5,343C 759.5,342.667 769.5,342.333 779.5,342C 777.583,339.502 775.916,336.835 774.5,334C 779.533,333.829 784.533,333.329 789.5,332.5C 788.96,331.252 788.293,330.085 787.5,329C 797.849,328.832 808.183,328.332 818.5,327.5C 818.023,326.522 817.357,325.689 816.5,325C 826.552,325.145 836.219,324.312 845.5,322.5 Z"/></g>
<g><path style="opacity:1" fill="#8f3bee" d="M 859.5,350.5 C 860.401,351.29 861.068,352.29 861.5,353.5C 865.09,360.937 868.09,368.603 870.5,376.5C 863.011,377.329 855.344,377.829 847.5,378C 848.167,379 848.833,380 849.5,381C 844.167,381.333 838.833,381.667 833.5,382C 834.743,383.154 835.743,384.488 836.5,386C 826.151,386.168 815.817,386.668 805.5,387.5C 806.167,388.5 806.833,389.5 807.5,390.5C 802.5,391.167 797.5,391.833 792.5,392.5C 792.977,393.478 793.643,394.311 794.5,395C 789.833,395.333 785.167,395.667 780.5,396C 782.631,397.888 782.631,399.388 780.5,400.5C 774.249,393.525 768.582,386.025 763.5,378C 702.501,377.5 641.501,377.333 580.5,377.5C 575.659,369.151 571.325,360.484 567.5,351.5C 625.665,350.335 683.999,350.168 742.5,351C 748.759,357.255 754.259,364.088 759,371.5C 760.231,372.108 761.564,372.441 763,372.5C 766.888,372.462 767.388,371.296 764.5,369C 769.167,368.667 773.833,368.333 778.5,368C 777.707,366.915 777.04,365.748 776.5,364.5C 781.467,363.671 786.467,363.171 791.5,363C 790.833,362 790.167,361 789.5,360C 799.849,359.832 810.183,359.332 820.5,358.5C 819.833,357.5 819.167,356.5 818.5,355.5C 823.5,354.833 828.5,354.167 833.5,353.5C 833.023,352.522 832.357,351.689 831.5,351C 840.827,350.5 850.161,350.334 859.5,350.5 Z"/></g>
<g><path style="opacity:1" fill="#8f39ee" d="M 163.5,350.5 C 261.001,350.167 358.335,350.501 455.5,351.5C 450.341,363.151 444.675,374.484 438.5,385.5C 341.999,385.833 245.665,385.499 149.5,384.5C 152.713,373.859 156.713,363.526 161.5,353.5C 161.932,352.29 162.599,351.29 163.5,350.5 Z"/></g>
<g><path style="opacity:1" fill="#8b34ec" d="M 149.5,384.5 C 245.665,385.499 341.999,385.833 438.5,385.5C 436.307,390.72 433.974,395.886 431.5,401C 408.863,404.756 386.197,408.256 363.5,411.5C 289.5,410.833 215.5,410.167 141.5,409.5C 143.393,400.825 146.059,392.492 149.5,384.5 Z"/></g>
<g><path style="opacity:1" fill="#8c35ec" d="M 870.5,376.5 C 875.138,387.079 878.804,398.079 881.5,409.5C 871.145,409.168 860.812,409.501 850.5,410.5C 851.248,412.332 852.248,413.999 853.5,415.5C 843.183,416.332 832.849,416.832 822.5,417C 833.358,418.147 844.358,418.98 855.5,419.5C 845.183,420.332 834.849,420.832 824.5,421C 825.357,421.689 826.023,422.522 826.5,423.5C 816.833,424.167 807.167,424.833 797.5,425.5C 797.709,426.086 798.043,426.586 798.5,427C 803.5,427.333 808.5,427.667 813.5,428C 808.833,428.333 804.167,428.667 799.5,429C 800.627,430.753 801.627,432.587 802.5,434.5C 801.167,435.833 799.833,435.833 798.5,434.5C 794.43,426.275 789.764,418.441 784.5,411C 742.998,410.169 701.665,410.335 660.5,411.5C 637.79,408.658 615.123,405.491 592.5,402C 588.105,394.042 584.105,385.875 580.5,377.5C 641.501,377.333 702.501,377.5 763.5,378C 768.582,386.025 774.249,393.525 780.5,400.5C 782.631,399.388 782.631,397.888 780.5,396C 785.167,395.667 789.833,395.333 794.5,395C 793.643,394.311 792.977,393.478 792.5,392.5C 797.5,391.833 802.5,391.167 807.5,390.5C 806.833,389.5 806.167,388.5 805.5,387.5C 815.817,386.668 826.151,386.168 836.5,386C 835.743,384.488 834.743,383.154 833.5,382C 838.833,381.667 844.167,381.333 849.5,381C 848.833,380 848.167,379 847.5,378C 855.344,377.829 863.011,377.329 870.5,376.5 Z"/></g>
<g><path style="opacity:1" fill="#872fea" d="M 141.5,409.5 C 215.5,410.167 289.5,410.833 363.5,411.5C 326.455,416.673 289.455,422.173 252.5,428C 256.704,432.036 260.704,436.202 264.5,440.5C 220.997,440.832 177.663,440.499 134.5,439.5C 135.915,429.179 138.249,419.179 141.5,409.5 Z"/></g>
<g><path style="opacity:1" fill="#8830ea" d="M 881.5,409.5 C 884.57,419.55 886.904,429.883 888.5,440.5C 886.801,440.34 885.134,440.506 883.5,441C 884.743,442.154 885.743,443.488 886.5,445C 881.167,445.333 875.833,445.667 870.5,446C 871.872,447.242 872.872,448.742 873.5,450.5C 868.533,451.329 863.533,451.829 858.5,452C 859.293,453.085 859.96,454.252 860.5,455.5C 850.183,456.332 839.849,456.832 829.5,457C 830.872,458.242 831.872,459.742 832.5,461.5C 828.167,462.167 823.833,462.833 819.5,463.5C 820.04,464.748 820.707,465.915 821.5,467C 818.773,467.818 816.106,467.652 813.5,466.5C 809.805,457.61 805.472,449.11 800.5,441C 786.504,440.5 772.504,440.333 758.5,440.5C 762.296,436.202 766.296,432.036 770.5,428C 733.806,422.639 697.139,417.139 660.5,411.5C 701.665,410.335 742.998,410.169 784.5,411C 789.764,418.441 794.43,426.275 798.5,434.5C 799.833,435.833 801.167,435.833 802.5,434.5C 801.627,432.587 800.627,430.753 799.5,429C 804.167,428.667 808.833,428.333 813.5,428C 808.5,427.667 803.5,427.333 798.5,427C 798.043,426.586 797.709,426.086 797.5,425.5C 807.167,424.833 816.833,424.167 826.5,423.5C 826.023,422.522 825.357,421.689 824.5,421C 834.849,420.832 845.183,420.332 855.5,419.5C 844.358,418.98 833.358,418.147 822.5,417C 832.849,416.832 843.183,416.332 853.5,415.5C 852.248,413.999 851.248,412.332 850.5,410.5C 860.812,409.501 871.145,409.168 881.5,409.5 Z"/></g>
<g><path style="opacity:1" fill="#8328e8" d="M 134.5,439.5 C 177.663,440.499 220.997,440.832 264.5,440.5C 275.86,451.527 287.193,462.527 298.5,473.5C 242.167,473.5 185.833,473.5 129.5,473.5C 130.162,461.889 131.829,450.556 134.5,439.5 Z"/></g>
<g><path style="opacity:1" fill="#8228e8" d="M 758.5,440.5 C 772.504,440.333 786.504,440.5 800.5,441C 805.472,449.11 809.805,457.61 813.5,466.5C 816.106,467.652 818.773,467.818 821.5,467C 820.707,465.915 820.04,464.748 819.5,463.5C 823.833,462.833 828.167,462.167 832.5,461.5C 831.872,459.742 830.872,458.242 829.5,457C 839.849,456.832 850.183,456.332 860.5,455.5C 859.96,454.252 859.293,453.085 858.5,452C 863.533,451.829 868.533,451.329 873.5,450.5C 872.872,448.742 871.872,447.242 870.5,446C 875.833,445.667 881.167,445.333 886.5,445C 885.743,443.488 884.743,442.154 883.5,441C 885.134,440.506 886.801,440.34 888.5,440.5C 891.55,452.608 893.217,464.941 893.5,477.5C 892.391,478.29 891.058,478.79 889.5,479C 890.872,480.242 891.872,481.742 892.5,483.5C 887.533,484.329 882.533,484.829 877.5,485C 878.5,486.667 879.5,488.333 880.5,490C 870.167,490.333 859.833,490.667 849.5,491C 850.5,492.667 851.5,494.333 852.5,496C 847.833,496.333 843.167,496.667 838.5,497C 842.659,501.511 841.325,503.344 834.5,502.5C 831.911,502.473 829.411,502.139 827,501.5C 823.905,492.814 820.405,484.314 816.5,476C 785.168,475.5 753.835,475.333 722.5,475.5C 734.473,463.861 746.473,452.194 758.5,440.5 Z"/></g>
<g><path style="opacity:0.967" fill="#6000cd" d="M 150.5,351.5 C 153.684,353.414 157.351,354.08 161.5,353.5C 156.713,363.526 152.713,373.859 149.5,384.5C 146.059,392.492 143.393,400.825 141.5,409.5C 138.249,419.179 135.915,429.179 134.5,439.5C 131.829,450.556 130.162,461.889 129.5,473.5C 127.987,486.116 127.32,498.782 127.5,511.5C 127.225,525.978 128.225,540.311 130.5,554.5C 131.184,565.251 132.517,575.917 134.5,586.5C 130.498,586.036 126.831,586.702 123.5,588.5C 109.33,512.205 116.163,437.872 144,365.5C 145.942,360.623 148.108,355.956 150.5,351.5 Z"/></g>
<g><path style="opacity:0.968" fill="#6000cd" d="M 872.5,351.5 C 905.029,424.884 914.362,501.217 900.5,580.5C 896.936,581.423 893.269,581.756 889.5,581.5C 892.521,561.606 894.521,541.606 895.5,521.5C 895.817,506.633 895.15,491.966 893.5,477.5C 893.217,464.941 891.55,452.608 888.5,440.5C 886.904,429.883 884.57,419.55 881.5,409.5C 878.804,398.079 875.138,387.079 870.5,376.5C 868.09,368.603 865.09,360.937 861.5,353.5C 865.649,354.08 869.316,353.414 872.5,351.5 Z"/></g>
<g><path style="opacity:1" fill="#7e22e6" d="M 129.5,473.5 C 185.833,473.5 242.167,473.5 298.5,473.5C 311.527,486.194 324.527,498.861 337.5,511.5C 267.5,511.5 197.5,511.5 127.5,511.5C 127.32,498.782 127.987,486.116 129.5,473.5 Z"/></g>
<g><path style="opacity:1" fill="#7e22e5" d="M 722.5,475.5 C 753.835,475.333 785.168,475.5 816.5,476C 820.405,484.314 823.905,492.814 827,501.5C 829.411,502.139 831.911,502.473 834.5,502.5C 841.325,503.344 842.659,501.511 838.5,497C 843.167,496.667 847.833,496.333 852.5,496C 851.5,494.333 850.5,492.667 849.5,491C 859.833,490.667 870.167,490.333 880.5,490C 879.5,488.333 878.5,486.667 877.5,485C 882.533,484.829 887.533,484.329 892.5,483.5C 891.872,481.742 890.872,480.242 889.5,479C 891.058,478.79 892.391,478.29 893.5,477.5C 895.15,491.966 895.817,506.633 895.5,521.5C 894.532,523.607 894.198,525.941 894.5,528.5C 892.076,528.192 889.743,528.526 887.5,529.5C 888.167,530.5 888.833,531.5 889.5,532.5C 884.5,533.167 879.5,533.833 874.5,534.5C 874.709,535.086 875.043,535.586 875.5,536C 870.833,536.333 866.167,536.667 861.5,537C 866.689,538.121 872.022,538.955 877.5,539.5C 867.833,540.167 858.167,540.833 848.5,541.5C 850.043,544.086 851.709,546.586 853.5,549C 849.179,549.499 844.846,549.666 840.5,549.5C 837.496,538.149 834.496,526.816 831.5,515.5C 781.5,515.5 731.5,515.5 681.5,515.5C 695.14,502.194 708.807,488.861 722.5,475.5 Z"/></g>
<g><path style="opacity:1" fill="#7a1be3" d="M 127.5,511.5 C 197.5,511.5 267.5,511.5 337.5,511.5C 351.827,525.66 366.327,539.66 381,553.5C 381.74,554.749 381.573,555.749 380.5,556.5C 297.507,554.503 214.173,553.836 130.5,554.5C 128.225,540.311 127.225,525.978 127.5,511.5 Z"/></g>
<g><path style="opacity:1" fill="#791be2" d="M 681.5,515.5 C 731.5,515.5 781.5,515.5 831.5,515.5C 834.496,526.816 837.496,538.149 840.5,549.5C 844.846,549.666 849.179,549.499 853.5,549C 851.709,546.586 850.043,544.086 848.5,541.5C 858.167,540.833 867.833,540.167 877.5,539.5C 872.022,538.955 866.689,538.121 861.5,537C 866.167,536.667 870.833,536.333 875.5,536C 875.043,535.586 874.709,535.086 874.5,534.5C 879.5,533.833 884.5,533.167 889.5,532.5C 888.833,531.5 888.167,530.5 887.5,529.5C 889.743,528.526 892.076,528.192 894.5,528.5C 894.198,525.941 894.532,523.607 895.5,521.5C 894.521,541.606 892.521,561.606 889.5,581.5C 888.393,585.142 887.393,588.809 886.5,592.5C 873.816,592.832 861.149,592.499 848.5,591.5C 846.274,579.147 843.941,566.813 841.5,554.5C 774.825,553.837 708.492,554.503 642.5,556.5C 641.427,555.749 641.26,554.749 642,553.5C 655.339,540.994 668.506,528.327 681.5,515.5 Z"/></g>
<g><path style="opacity:1" fill="#7414e0" d="M 130.5,554.5 C 214.173,553.836 297.507,554.503 380.5,556.5C 379.026,570.68 376.692,584.68 373.5,598.5C 294.833,598.5 216.167,598.5 137.5,598.5C 136.688,594.552 135.688,590.552 134.5,586.5C 132.517,575.917 131.184,565.251 130.5,554.5 Z"/></g>
<g><path style="opacity:1" fill="#7415df" d="M 886.5,592.5 C 879.597,626.622 867.931,658.955 851.5,689.5C 852.099,681.514 852.432,673.514 852.5,665.5C 853.102,643.007 851.769,620.674 848.5,598.5C 782.167,598.5 715.833,598.5 649.5,598.5C 646.308,584.68 643.974,570.68 642.5,556.5C 708.492,554.503 774.825,553.837 841.5,554.5C 843.941,566.813 846.274,579.147 848.5,591.5C 861.149,592.499 873.816,592.832 886.5,592.5 Z"/></g>
<g><path style="opacity:1" fill="#6f0edc" d="M 137.5,598.5 C 216.167,598.5 294.833,598.5 373.5,598.5C 370.02,621.718 366.02,644.718 361.5,667.5C 294.508,665.503 227.175,664.837 159.5,665.5C 150.164,643.824 142.83,621.491 137.5,598.5 Z"/></g>
<g><path style="opacity:1" fill="#6f0edc" d="M 649.5,598.5 C 715.833,598.5 782.167,598.5 848.5,598.5C 851.769,620.674 853.102,643.007 852.5,665.5C 788.491,664.837 724.825,665.504 661.5,667.5C 656.98,644.718 652.98,621.718 649.5,598.5 Z"/></g>
<g><path style="opacity:0.969" fill="#5a00c0" d="M 134.5,586.5 C 135.688,590.552 136.688,594.552 137.5,598.5C 142.83,621.491 150.164,643.824 159.5,665.5C 173.814,698.423 192.481,728.423 215.5,755.5C 226.153,768.485 237.487,780.819 249.5,792.5C 244.637,792.181 239.97,792.514 235.5,793.5C 177.143,737.155 139.81,668.821 123.5,588.5C 126.831,586.702 130.498,586.036 134.5,586.5 Z"/></g>
<g><path style="opacity:0.971" fill="#5a00c0" d="M 900.5,580.5 C 885.439,663.639 848.106,734.639 788.5,793.5C 783.695,792.513 778.695,792.179 773.5,792.5C 785.57,780.767 796.903,768.433 807.5,755.5C 824.905,735.409 839.572,713.409 851.5,689.5C 867.931,658.955 879.597,626.622 886.5,592.5C 887.393,588.809 888.393,585.142 889.5,581.5C 893.269,581.756 896.936,581.423 900.5,580.5 Z"/></g>
<g><path style="opacity:1" fill="#6907d6" d="M 661.5,667.5 C 724.825,665.504 788.491,664.837 852.5,665.5C 852.432,673.514 852.099,681.514 851.5,689.5C 839.572,713.409 824.905,735.409 807.5,755.5C 610.167,755.5 412.833,755.5 215.5,755.5C 192.481,728.423 173.814,698.423 159.5,665.5C 227.175,664.837 294.508,665.503 361.5,667.5C 358.332,688.343 354.999,709.176 351.5,730C 351.833,730.833 352.167,731.667 352.5,732.5C 405.5,704.5 458.5,676.5 511.5,648.5C 564.658,676.245 617.658,704.245 670.5,732.5C 670.833,731.667 671.167,730.833 671.5,730C 668.001,709.176 664.668,688.343 661.5,667.5 Z"/></g>
<g><path style="opacity:1" fill="#6503d2" d="M 215.5,755.5 C 412.833,755.5 610.167,755.5 807.5,755.5C 796.903,768.433 785.57,780.767 773.5,792.5C 745.16,818.852 713.494,840.518 678.5,857.5C 677.893,857.376 677.56,857.043 677.5,856.5C 682.671,851.159 686.004,844.825 687.5,837.5C 688.648,833.019 688.815,828.352 688,823.5C 686.688,818.884 684.855,814.551 682.5,810.5C 669.58,795.183 653.58,784.016 634.5,777C 628.5,775 622.5,773 616.5,771C 546.5,770.333 476.5,770.333 406.5,771C 385.378,776.727 366.378,786.394 349.5,800C 346.137,803.252 343.137,806.752 340.5,810.5C 338.145,814.551 336.312,818.884 335,823.5C 334.185,828.352 334.352,833.019 335.5,837.5C 336.996,844.825 340.329,851.159 345.5,856.5C 345.44,857.043 345.107,857.376 344.5,857.5C 309.796,840.106 278.13,818.439 249.5,792.5C 237.487,780.819 226.153,768.485 215.5,755.5 Z"/></g>
<g><path style="opacity:1" fill="#6709d1" d="M 682.5,810.5 C 568.5,810.5 454.5,810.5 340.5,810.5C 343.137,806.752 346.137,803.252 349.5,800C 366.378,786.394 385.378,776.727 406.5,771C 476.5,770.333 546.5,770.333 616.5,771C 622.5,773 628.5,775 634.5,777C 653.58,784.016 669.58,795.183 682.5,810.5 Z"/></g>
<g><path style="opacity:1" fill="#5b05bc" d="M 249.5,792.5 C 278.13,818.439 309.796,840.106 344.5,857.5C 345.107,857.376 345.44,857.043 345.5,856.5C 456.167,855.167 566.833,855.167 677.5,856.5C 677.56,857.043 677.893,857.376 678.5,857.5C 713.494,840.518 745.16,818.852 773.5,792.5C 778.695,792.179 783.695,792.513 788.5,793.5C 735.361,845.249 672.361,879.582 599.5,896.5C 619.323,891.277 638.323,883.777 656.5,874C 662.736,870.433 668.403,866.1 673.5,861C 673,860.833 672.5,860.667 672,860.5C 659.298,865.938 646.465,870.938 633.5,875.5C 552.167,875.5 470.833,875.5 389.5,875.5C 375.525,870.833 361.858,865.666 348.5,860C 363.482,872.998 380.482,882.664 399.5,889C 410.834,892.498 422.168,895.664 433.5,898.5C 356.558,883.372 290.558,848.372 235.5,793.5C 239.97,792.514 244.637,792.181 249.5,792.5 Z"/></g>
<g><path style="opacity:1" fill="#6209c4" d="M 687.5,837.5 C 686.004,844.825 682.671,851.159 677.5,856.5C 566.833,855.167 456.167,855.167 345.5,856.5C 340.329,851.159 336.996,844.825 335.5,837.5C 452.833,836.167 570.167,836.167 687.5,837.5 Z"/></g>
<g><path style="opacity:1" fill="#650acb" d="M 340.5,810.5 C 454.5,810.5 568.5,810.5 682.5,810.5C 684.855,814.551 686.688,818.884 688,823.5C 688.815,828.352 688.648,833.019 687.5,837.5C 570.167,836.167 452.833,836.167 335.5,837.5C 334.352,833.019 334.185,828.352 335,823.5C 336.312,818.884 338.145,814.551 340.5,810.5 Z"/></g>
<g><path style="opacity:1" fill="#4d03a0" d="M 389.5,875.5 C 470.821,902.166 552.155,902.166 633.5,875.5C 646.465,870.938 659.298,865.938 672,860.5C 672.5,860.667 673,860.833 673.5,861C 668.403,866.1 662.736,870.433 656.5,874C 638.323,883.777 619.323,891.277 599.5,896.5C 555.413,906.717 510.747,909.217 465.5,904C 454.57,902.901 443.903,901.068 433.5,898.5C 422.168,895.664 410.834,892.498 399.5,889C 380.482,882.664 363.482,872.998 348.5,860C 361.858,865.666 375.525,870.833 389.5,875.5 Z"/></g>
<g><path style="opacity:1" fill="#5805b5" d="M 389.5,875.5 C 470.833,875.5 552.167,875.5 633.5,875.5C 552.155,902.166 470.821,902.166 389.5,875.5 Z"/></g>
</svg>
