<svg width="50" height="50" viewBox="0 0 50 50" xmlns="http://www.w3.org/2000/svg"><path d="M40.682 41.263c-3.514 4.188-9.758 4.734-13.946 1.22-4.189-3.514-4.735-9.758-1.22-13.947 3.514-4.188 9.758-4.734 13.946-1.22 4.188 3.515 4.734 9.759 1.22 13.947Z" fill="#1AD3BB"/><path d="M25.383 21.464c-3.514 4.188-9.758 4.734-13.946 1.22-4.188-3.514-4.735-9.758-1.22-13.946 3.514-4.189 9.758-4.735 13.946-1.22 4.188 3.514 4.734 9.758 1.22 13.946Z" fill="#FBB945"/><path d="M37.09 6.545c1.407-1.406 3.36-1.732 4.364-.728L46 10.363l-33.09 33.09c-1.407 1.406-3.36 1.732-4.365.728L4 39.636 37.09 6.544Z" fill="#985184"/><path d="m31.174 25.188-7.79 7.789a9.853 9.853 0 0 1 2.13-4.442 9.858 9.858 0 0 1 5.66-3.348Z" fill="#005E7A"/><path d="M18.676 24.962a9.868 9.868 0 0 0 6.707-3.498 9.854 9.854 0 0 0 2.278-5.487l-8.985 8.985Z" fill="#953B24"/></svg>
