<svg xmlns="http://www.w3.org/2000/svg" xmlns:xlink="http://www.w3.org/1999/xlink" width="70" height="70" viewBox="0 0 70 70"><defs><path id="a" d="M4 0h61c4 0 5 1 5 5v60c0 4-1 5-5 5H4c-3 0-4-1-4-5V5c0-4 1-5 4-5z"/><linearGradient id="c" x1="100%" x2="0%" y1="0%" y2="100%"><stop offset="0%" stop-color="#DA956B"/><stop offset="100%" stop-color="#CC7039"/></linearGradient><path id="d" d="M53 23v33c0 1.333-.667 2-2 2H20c-1.333 0-2-.667-2-2V16c0-1.333.667-2 2-2h20.167L53 23zm-13-7v8h11l-11-8zm11 40V26l-10.833.1C39 26.1 38 25.1 38 24v-8H20v40h31zM33.093 36.387c0 2.517 8.147 1.878 8.147 6.663 0 2.291-1.784 4.249-4.682 4.657v1.896c0 .265-.237.48-.529.48h-1.763c-.293 0-.53-.215-.53-.48v-1.927c-1.741-.268-3.293-.997-4.354-1.918a.447.447 0 0 1-.057-.633l1.34-1.626a.566.566 0 0 1 .756-.085c1.099.8 2.518 1.434 3.874 1.434 1.579 0 2.298-.852 2.298-1.645 0-2.342-8.147-1.834-8.147-6.772 0-2.107 1.706-3.811 4.29-4.343v-1.991c0-.265.237-.48.53-.48h1.763c.293 0 .53.215.53.48v1.888c1.417.148 2.954.653 4.025 1.511.183.148.23.391.113.587l-1.038 1.74c-.152.255-.516.33-.775.161-.986-.642-2.193-1.132-3.372-1.132-1.47 0-2.419.602-2.419 1.535z"/><path id="e" d="M53 21v33c0 1.333-.667 2-2 2H20c-1.333 0-2-.667-2-2V14c0-1.333.667-2 2-2h20c2 1 10 7 13 9zm-13-6v7h10l-10-7zm10 38V25H40c-2 0-3-1-3-3v-7H21v38h29zM33.093 34.387c0 2.517 8.147 1.878 8.147 6.663 0 2.291-1.784 4.249-4.682 4.657v1.896c0 .265-.237.48-.529.48h-1.763c-.293 0-.53-.215-.53-.48v-1.927c-1.741-.268-3.293-.997-4.354-1.918a.447.447 0 0 1-.057-.633l1.34-1.626a.566.566 0 0 1 .756-.085c1.099.8 2.518 1.434 3.874 1.434 1.579 0 2.298-.852 2.298-1.645 0-2.342-8.147-1.834-8.147-6.772 0-2.107 1.706-3.811 4.29-4.343v-1.991c0-.265.237-.48.53-.48h1.763c.293 0 .53.215.53.48v1.888c1.417.148 2.954.653 4.025 1.511.183.148.23.391.113.587l-1.038 1.74c-.152.255-.516.33-.775.161-.986-.642-2.193-1.132-3.372-1.132-1.47 0-2.419.602-2.419 1.535z"/></defs><g fill="none" fill-rule="evenodd"><mask id="b" fill="#fff"><use xlink:href="#a"/></mask><g mask="url(#b)"><path fill="url(#c)" d="M0 0H70V70H0z"/><path fill="#FFF" fill-opacity=".383" d="M4 1h61c2.667 0 4.333.667 5 2V0H0v3c.667-1.333 2-2 4-2z"/><path fill="#393939" d="M42.881 69H4c-2 0-4-1-4-4V36.86l18.553-24.41L40 12l13 10-.283 33.22L42.881 69z" opacity=".324"/><path fill="#000" fill-opacity=".383" d="M4 69h61c2.667 0 4.333-1 5-3v4H0v-4c.667 2 2 3 4 3z"/><use fill="#000" fill-rule="nonzero" opacity=".3" xlink:href="#d"/><use fill="#FFF" fill-rule="nonzero" xlink:href="#e"/></g></g></svg>