<svg width="64" height="64" viewBox="0 0 64 64" fill="none" xmlns="http://www.w3.org/2000/svg">
<path d="M3.03195 37.5922L28.9837 22.6089L61.7297 41.5129C62.2215 41.7968 62.2215 42.5066 61.7298 42.7906L36.1308 57.572C35.8976 57.7066 35.6103 57.7066 35.3771 57.572L3.03195 38.8974C2.52955 38.6074 2.52955 37.8822 3.03195 37.5922Z" fill="#FBDBD0"/>
<path d="M1.90149 30.4247L28.6148 15.0018C28.843 14.87 29.1242 14.87 29.3524 15.0018L61.7296 33.6928C62.2214 33.9767 62.2214 34.6866 61.7297 34.9705L35.7539 49.9695L1.90149 30.4247Z" fill="#C1DBF6"/>
<path d="M39.8729 47.6428L6.02035 28.1L1.90791 30.4211L1.90149 30.4173V30.4247L1.90297 36.9632C1.90316 37.757 2.3267 38.4904 3.01411 38.8872L35.3936 57.5814C35.5467 57.6697 35.8857 57.8285 36.3428 57.4857C35.8857 57.3714 35.7558 57.1428 35.7558 56.9142L35.7544 51.5348C35.7541 50.5676 36.2748 49.6752 37.117 49.1995L39.8729 47.6428Z" fill="#C1DBF6"/>
<path d="M36.9329 49.2852L59.1792 36.5714V41.766L35.7539 55.326L35.754 51.3293C35.754 50.4863 36.2033 49.7073 36.9329 49.2852Z" fill="white"/>
<path d="M28.9836 14.903C29.1109 14.903 29.2383 14.9359 29.3524 15.0018L61.7297 33.6929C62.2214 33.9767 62.2215 34.6865 61.7297 34.9705L59.1792 36.4433V40.0406L61.7297 41.5129C62.2214 41.7969 62.2215 42.5066 61.7297 42.7906L36.6095 57.2956L36.5292 57.3421C36.5288 57.3423 36.5279 57.3426 36.5279 57.3426L36.5197 57.3474L36.1339 57.5712C36.0167 57.6392 35.8858 57.6732 35.7549 57.6732C35.6246 57.6732 35.4942 57.6395 35.3774 57.5721L35.3771 57.572L18.3842 47.7611L3.01415 38.8873C2.32675 38.4904 1.90321 37.757 1.90302 36.9633L1.90186 31.7977C1.90165 30.9436 2.35731 30.1544 3.09706 29.7275L28.6149 15.0017C28.729 14.9359 28.8562 14.903 28.9836 14.903ZM28.9836 13.9887C28.6941 13.9887 28.4086 14.0652 28.158 14.2098L2.64005 28.9356C1.62049 29.524 0.987275 30.6208 0.987549 31.7979L0.988715 36.9635C0.988966 38.0802 1.5899 39.1207 2.55699 39.6791L17.927 48.5529L34.9199 58.3638C35.1737 58.5102 35.4623 58.5875 35.7549 58.5875C36.0489 58.5875 36.3387 58.5095 36.5929 58.3619L36.973 58.1414C36.9778 58.1387 36.9826 58.1361 36.9873 58.1333L37.0676 58.0868L62.1869 43.5824C62.7041 43.2837 63.0129 42.7489 63.0128 42.1517C63.0128 41.5545 62.704 41.0198 62.1868 40.7212L60.0935 39.5127V36.9711L62.1869 35.7623C62.7042 35.4636 63.0129 34.9287 63.0128 34.3315C63.0127 33.7343 62.7039 33.1995 62.1867 32.9011L29.8096 14.21C29.5588 14.0652 29.2732 13.9887 28.9836 13.9887Z" fill="#374874"/>
<path fill-rule="evenodd" clip-rule="evenodd" d="M59.4078 41.7654C59.4079 41.8471 59.3644 41.9227 59.2937 41.9637L35.8684 55.5237C35.7591 55.5869 35.6193 55.5496 35.5561 55.4404C35.4928 55.3311 35.5301 55.1913 35.6394 55.128L58.9504 41.6342L58.9417 37.1441L39.9853 47.8417C39.8753 47.9038 39.7359 47.8649 39.6739 47.755C39.6118 47.6451 39.6507 47.5057 39.7606 47.4436C39.7606 47.4436 59.2487 36.3996 59.3981 36.3152C59.3981 38.132 59.4043 39.9487 59.4078 41.7654Z" fill="#374874"/>
<path fill-rule="evenodd" clip-rule="evenodd" d="M40.072 47.5303C40.134 47.6402 40.0952 47.7796 39.9853 47.8417L37.2294 49.3984C36.459 49.8335 35.9827 50.6498 35.9829 51.5346L35.9841 56.4795C35.9842 56.9665 36.501 57.2794 36.9323 57.0542L40.1219 55.3052C40.2326 55.2445 40.3715 55.285 40.4322 55.3957C40.4929 55.5064 40.4524 55.6453 40.3417 55.706L37.1502 57.4561L37.1466 57.4581C36.4105 57.8448 35.5271 57.3111 35.5269 56.4796L35.5258 51.5347C35.5255 50.4851 36.0906 49.5166 37.0046 49.0004L39.7606 47.4436C39.8705 47.3815 40.0099 47.4203 40.072 47.5303Z" fill="#374874"/>
<path d="M7.81923 26.793L31.2284 13.2777L60.7662 30.3296C61.2098 30.5857 61.2098 31.226 60.7662 31.4821L37.6752 44.8153C37.4649 44.9368 37.2058 44.9368 36.9955 44.8153L7.81923 27.9704C7.36606 27.7088 7.36606 27.0547 7.81923 26.793Z" fill="#FBDBD0"/>
<path d="M6.79958 20.3278L30.8957 6.41593C31.1015 6.29707 31.3552 6.29707 31.561 6.41593L60.7662 23.2758C61.2098 23.5319 61.2098 24.1721 60.7662 24.4283L37.3353 37.9577L6.79958 20.3278Z" fill="white"/>
<path d="M41.0508 35.859L10.5149 18.2309L6.80537 20.3246L6.79956 20.3212L6.79958 20.3278L6.80089 26.2257C6.80105 26.9417 7.1831 27.6033 7.80317 27.9613L37.0104 44.8239C37.1556 44.9077 37.3371 44.8029 37.337 44.6352L37.3357 39.3697C37.3355 38.4973 37.8052 37.6923 38.5648 37.2632L41.0508 35.859Z" fill="#FBDBD0"/>
<path fill-rule="evenodd" clip-rule="evenodd" d="M10.0828 17.7433L41.154 35.6805L40.9478 36.0376L9.87659 18.1005L10.0828 17.7433Z" fill="#374874"/>
<path d="M38.3988 37.3405L58.4656 25.7517V30.558L37.3353 42.7895L37.3354 39.1843C37.3354 38.424 37.7407 37.7213 38.3988 37.3405Z" fill="white"/>
<path d="M23.1052 20.0977L35.0106 13.2169L40.4441 16.3626L28.5385 23.245L23.1052 20.0977Z" fill="#C1DBF6"/>
<path d="M31.2283 6.32681C31.3431 6.32681 31.458 6.3565 31.561 6.41593L60.7661 23.2758C61.2097 23.5318 61.2098 24.1721 60.7662 24.4283L58.4655 25.7567V29.0016L60.7661 30.3297C61.2097 30.5858 61.2098 31.226 60.7662 31.4822L38.107 44.566L38.0346 44.608C38.0343 44.6082 38.0338 44.6083 38.0335 44.6085L38.0261 44.6128L37.6781 44.8147C37.5724 44.876 37.4543 44.9067 37.3362 44.9067C37.2187 44.9067 37.1011 44.8763 36.9957 44.8155C36.9956 44.8154 36.9955 44.8154 36.9954 44.8154L21.6673 35.9657L7.80314 27.9613C7.18308 27.6033 6.80104 26.9418 6.80086 26.2257L6.79981 21.5663C6.79962 20.7959 7.21064 20.084 7.87791 19.6989L30.8957 6.41586C30.9986 6.35648 31.1134 6.32681 31.2283 6.32681ZM31.2283 5.50208C30.9672 5.50208 30.7096 5.57106 30.4835 5.70157L7.4657 18.9846C6.546 19.5154 5.97487 20.5047 5.9751 21.5665L5.97615 26.2259C5.97638 27.2333 6.51844 28.1719 7.3908 28.6755L21.255 36.6799L36.5831 45.5296C36.8119 45.6617 37.0723 45.7314 37.3362 45.7314C37.6014 45.7314 37.8628 45.6611 38.0921 45.528L38.4348 45.3292C38.4421 45.3251 38.4493 45.321 38.4565 45.3167L38.5207 45.2795L61.1786 32.1963C61.6451 31.927 61.9236 31.4445 61.9236 30.9059C61.9236 30.3671 61.645 29.8848 61.1785 29.6155L59.2903 28.5254V26.2328L61.1786 25.1424C61.6451 24.8731 61.9236 24.3906 61.9236 23.8519C61.9235 23.3132 61.645 22.8309 61.1784 22.5615L31.9733 5.70169C31.7471 5.5711 31.4895 5.50208 31.2283 5.50208Z" fill="#374874"/>
<path fill-rule="evenodd" clip-rule="evenodd" d="M58.6718 30.5576C58.672 30.6313 58.6327 30.6995 58.5689 30.7364L37.4387 42.9679C37.3401 43.0249 37.214 42.9913 37.1569 42.8928C37.0999 42.7942 37.1335 42.6681 37.2321 42.611L58.2592 30.4392L58.2514 26.3891L41.1522 36.0386C41.053 36.0946 40.9273 36.0595 40.8713 35.9604C40.8153 35.8612 40.8504 35.7354 40.9495 35.6795L58.6631 25.6485C58.6631 27.2849 58.6687 28.9212 58.6718 30.5576Z" fill="#374874"/>
<path fill-rule="evenodd" clip-rule="evenodd" d="M41.2304 35.7576C41.2864 35.8568 41.2513 35.9826 41.1522 36.0386L38.6663 37.4427C37.9715 37.8352 37.5418 38.5716 37.542 39.3696L37.543 43.8301C37.5431 44.2694 38.0092 44.5515 38.3983 44.3485L41.2754 42.7708C41.3753 42.7161 41.5006 42.7526 41.5554 42.8525C41.6101 42.9523 41.5735 43.0776 41.4737 43.1324L38.5949 44.711L38.5916 44.7128C37.9277 45.0616 37.1308 44.5802 37.1306 43.8302L37.1296 39.3697C37.1294 38.4229 37.6391 37.5493 38.4635 37.0837L40.9495 35.6795C41.0487 35.6235 41.1744 35.6585 41.2304 35.7576Z" fill="#374874"/>
</svg>
