<svg width="18" height="11" viewBox="0 0 18 13" fill="none" xmlns="http://www.w3.org/2000/svg">
    <path fill-rule="evenodd"
        clip-rule="evenodd"
        d="M15.3 4.5C15.3 4.84313 15.2353 5.17219 15.12 5.47312C16.7625 5.805 18 7.25906
        18 9C18 10.9884 16.3884 12.6 14.4 12.6H4.05C1.81406 12.6 0 10.7859 0 8.55C0 6.78375
        1.13063 5.28188 2.70563 4.72781L2.70562 4.72779C2.70281 4.65186 2.7 4.57593 2.7
        4.5C2.7 2.01375 4.71375 0 7.2 0C8.86781 0 10.3219 0.905625 11.1009 2.25563C11.5284
        1.96875 12.0459 1.8 12.6 1.8C14.0906 1.8 15.3 3.00938 15.3 4.5ZM4.13039 7.61571L7.02427
        10.5096C7.19813 10.6835 7.48003 10.6835 7.6539 10.5096L12.7738 5.38965C12.9477 5.21577
        12.9477 4.93388 12.7738 4.76002L12.1442 4.13039C11.9704 3.95654 11.6885 3.95654 11.5146
        4.13039L7.33909 8.30589L5.38963 6.35646C5.21577 6.18258 4.93386 6.18258 4.76
        6.35646L4.13039 6.98608C3.95654 7.15996 3.95654 7.44185 4.13039 7.61571Z" fill="#374151"
    />
</svg>
