<svg width="50" height="50" viewBox="0 0 50 50" xmlns="http://www.w3.org/2000/svg"><path d="M0 21a4 4 0 0 1 4-4h46v21a4 4 0 0 1-4 4H0V21Z" fill="var(--o-icons-teal-pure, #00CEB3)"/><path d="M0 21a4 4 0 0 1 4-4h46v21a4 4 0 0 1-4 4H0V21Z" fill="url(#o_icon_website_hr_recruitment__a)" fill-opacity=".2"/><path d="M0 21a4 4 0 0 1 4-4h21v25H0V21Z" fill="var(--o-icons-teal-teal, #00A079)"/><path d="M0 21a4 4 0 0 1 4-4h21v25H0V21Z" fill="url(#o_icon_website_hr_recruitment__b)" fill-opacity=".2"/><path d="M34 17a9 9 0 1 1-18 0 9 9 0 0 1 18 0Z" fill="var(--o-icons-purple-pure, #93407D)"/><path d="M34 17a9 9 0 1 1-18 0 9 9 0 0 1 18 0Z" fill="url(#o_icon_website_hr_recruitment__c)" fill-opacity=".2"/><path d="M25 17h-9a9 9 0 0 0 9 9v-9Z" fill="var(--o-icons-purple-teal, #003458)"/><path d="M25 17h-9a9 9 0 0 0 9 9v-9Z" fill="url(#o_icon_website_hr_recruitment__d)" fill-opacity=".3"/><defs><linearGradient id="o_icon_website_hr_recruitment__a" x1="0" y1="17" x2="50" y2="42" gradientUnits="userSpaceOnUse"><stop stop-color="#fff"/><stop offset="1" stop-color="#fff" stop-opacity="0"/></linearGradient><linearGradient id="o_icon_website_hr_recruitment__b" x1="0" y1="17" x2="29.412" y2="24.353" gradientUnits="userSpaceOnUse"><stop stop-color="#fff"/><stop offset="1" stop-color="#fff" stop-opacity="0"/></linearGradient><linearGradient id="o_icon_website_hr_recruitment__c" x1="16" y1="8" x2="37.176" y2="13.294" gradientUnits="userSpaceOnUse"><stop stop-color="#fff"/><stop offset="1" stop-color="#fff" stop-opacity="0"/></linearGradient><linearGradient id="o_icon_website_hr_recruitment__d" x1="16" y1="17" x2="26.588" y2="19.647" gradientUnits="userSpaceOnUse"><stop stop-color="#fff"/><stop offset="1" stop-color="#fff" stop-opacity="0"/></linearGradient></defs></svg>
