<svg xmlns="http://www.w3.org/2000/svg" xmlns:xlink="http://www.w3.org/1999/xlink" width="70" height="70" viewBox="0 0 70 70"><defs><path id="a" d="M4 0h61c4 0 5 1 5 5v60c0 4-1 5-5 5H4c-3 0-4-1-4-5V5c0-4 1-5 4-5z"/><linearGradient id="c" x1="98.162%" x2="0%" y1="1.838%" y2="100%"><stop offset="0%" stop-color="#797DA5"/><stop offset="50.799%" stop-color="#6D7194"/><stop offset="100%" stop-color="#626584"/></linearGradient><path id="d" d="M21.98 54.23h26.04V25.582h-2.603v-3.906a3.906 3.906 0 0 0-3.907-3.906H28.49a3.906 3.906 0 0 0-3.907 3.906v3.906H21.98V54.23zm7.812-31.25h10.416v2.603H29.792V22.98zm26.041 6.51v20.833a3.906 3.906 0 0 1-3.906 3.906h-1.302V25.583h1.302a3.906 3.906 0 0 1 3.906 3.907zM19.375 54.23h-1.302a3.906 3.906 0 0 1-3.906-3.907V29.49a3.906 3.906 0 0 1 3.906-3.907h1.302V54.23z"/><path id="e" d="M21.98 52.23h26.04V23.582h-2.603v-3.906a3.906 3.906 0 0 0-3.907-3.906H28.49a3.906 3.906 0 0 0-3.907 3.906v3.906H21.98V52.23zm7.812-31.25h10.416v2.603H29.792V20.98zm26.041 6.51v20.833a3.906 3.906 0 0 1-3.906 3.906h-1.302V23.583h1.302a3.906 3.906 0 0 1 3.906 3.907zM19.375 52.23h-1.302a3.906 3.906 0 0 1-3.906-3.907V27.49a3.906 3.906 0 0 1 3.906-3.907h1.302V52.23z"/></defs><g fill="none" fill-rule="evenodd"><mask id="b" fill="#fff"><use xlink:href="#a"/></mask><g mask="url(#b)"><path fill="url(#c)" d="M0 0H70V70H0z"/><path fill="#FFF" fill-opacity=".383" d="M4 1h61c2.667 0 4.333.667 5 2V0H0v3c.667-1.333 2-2 4-2z"/><path fill="#393939" d="M43.024 69H4c-2 0-4-.146-4-4.078v-22.77l15-15.976L26 17h18v7.137h8l4 25.49L43.024 69z" opacity=".324"/><path fill="#000" fill-opacity=".383" d="M4 69h61c2.667 0 4.333-1 5-3v4H0v-4c.667 2 2 3 4 3z"/><use fill="#000" fill-rule="nonzero" opacity=".3" xlink:href="#d"/><use fill="#FFF" fill-rule="nonzero" xlink:href="#e"/></g></g></svg>