<svg width="64" height="64" viewBox="0 0 64 64" fill="none" xmlns="http://www.w3.org/2000/svg">
<path d="M39.9269 32.3223L52.7566 39.4194C52.9715 39.5268 53.1246 39.7257 53.1726 39.9611V39.9885C53.1726 39.9885 53.1726 39.9931 53.1726 39.9954C53.1909 40.2697 53.1978 40.72 53.1886 41.0148C53.1269 42.9737 52.4343 45.0354 50.6286 46.0434C47.52 47.7714 30.3795 58.5211 26.3635 59.8583C26.2469 59.8994 26.128 59.9337 26.0069 59.9611C25.1863 60.144 24.0115 60.256 22.7132 60.256C18.9486 60.256 14.1418 59.3097 13.8743 56.3931C13.6732 53.5908 13.6686 50.7794 13.8606 47.9771C13.8675 47.8811 13.9109 47.7897 13.9818 47.7234C14.1875 47.5314 22.4892 38.352 24.7178 36.1577C24.8183 35.7463 24.9418 35.3394 25.0949 34.944C25.1863 34.7154 25.4926 33.92 25.6115 33.7074C25.7326 33.4948 39.9246 32.3223 39.9246 32.3223" fill="white"/>
<path d="M39.104 37.84C39.1177 37.9726 39.104 38.1052 39.0674 38.2332C38.9988 38.368 38.6948 38.4892 38.5668 38.5692C37.5931 39.2846 36.3154 39.5132 35.0834 39.5932C34.4548 39.6434 33.824 39.632 33.1977 39.5543C31.4971 39.2732 29.7371 38.8754 28.5988 37.5817C27.4811 36.3292 26.8228 34.4092 26.2514 32.832C26.2034 32.736 26.192 32.6263 26.224 32.5234C26.3063 32.4092 26.4365 32.336 26.5783 32.3314C27.1748 32.2514 27.776 32.2286 28.3771 32.2629C31.1863 32.3452 33.9908 32.5806 36.7748 32.9669C37.2457 33.0126 37.7074 33.1246 38.1463 33.3029C38.6857 33.5543 38.8708 33.7189 38.9028 34.256C38.9783 35.4377 39.1291 36.6583 39.104 37.84Z" fill="#FBDBD0"/>
<path d="M53.1748 39.9954C53.1451 39.5679 46.1371 38.8891 42.4548 38.4937C42.4434 39.3874 42.432 40.3108 42.3862 41.1794C42.3108 42.6125 42.1577 44.0457 41.9748 45.3279C41.6365 47.5542 41.1611 50.4228 39.408 52.0274C37.0605 54.1805 33.4811 49.4651 32.304 47.9542C31.5542 46.9919 30.752 45.9176 30.0845 44.7451C29.0057 46.0639 27.8651 47.3325 26.6628 48.5394C26.6628 48.5165 26.6377 48.5394 26.5714 48.6308C26.464 48.7268 26.368 48.8342 26.288 48.9531C25.6228 49.5474 24.8662 50.0274 24.048 50.3771C22.0937 51.1748 19.9474 51.3782 17.8765 50.9622C17.0925 50.7794 16.368 50.3977 15.7737 49.8514C15.1017 49.1748 14.6308 47.0628 14.6308 47.0628C14.5828 47.1131 14.1897 47.5314 13.984 47.7234C13.9131 47.7896 13.8697 47.8811 13.8628 47.9771C13.6708 50.7794 13.6754 53.5908 13.8765 56.3931C14.2354 60.3176 22.8091 60.6742 26.0091 59.9611C26.1302 59.9336 26.2491 59.8994 26.3657 59.8582C30.3817 58.5211 47.5222 47.7714 50.6308 46.0434C52.4365 45.0354 53.1291 42.9737 53.1908 41.0148C53.2 40.7199 53.1931 40.2697 53.1748 39.9954Z" fill="#C1DBF6" stroke="#C1DBF6" stroke-miterlimit="10"/>
<path d="M42.6971 33.9772C42.7771 34.0206 42.8411 34.0892 42.8799 34.1737C43.1657 34.6675 43.3394 35.6206 43.4445 36.6057C43.6137 38.1852 43.6068 39.8492 43.6068 39.8492C43.6068 39.8492 39.7417 38.5372 39.5519 38.4366C39.4399 38.32 39.3851 38.1623 39.3988 38.0023C39.4742 37.3669 39.7051 36.6469 39.7051 36.6469C42.0822 35.936 42.6971 33.9772 42.6971 33.9772Z" fill="white"/>
<path d="M42.2651 34.8092C41.8422 35.4309 41.0628 36.2423 39.7051 36.6469C39.7051 36.6469 39.4742 37.3669 39.3988 38.0023C39.3851 38.1623 39.4399 38.32 39.5519 38.4366C39.6845 38.5075 41.6068 39.168 42.7565 39.5589C42.6514 37.9017 42.6674 36.208 42.2651 34.8069V34.8092Z" fill="#C1DBF6" stroke="#C1DBF6" stroke-miterlimit="10"/>
<path d="M42.6971 33.9772C42.7771 34.0206 42.8411 34.0892 42.8799 34.1737C43.1657 34.6674 43.3394 35.6206 43.4445 36.6057C43.6137 38.1852 43.6068 39.8492 43.6068 39.8492C43.6068 39.8492 39.7417 38.5372 39.5519 38.4366C39.4399 38.32 39.3851 38.1623 39.3988 38.0023C39.4742 37.3669 39.7051 36.6469 39.7051 36.6469C42.0822 35.936 42.6971 33.9772 42.6971 33.9772ZM42.6971 33.52C42.6399 33.52 42.5805 33.5315 42.5257 33.5543C42.3999 33.6046 42.3017 33.7097 42.2605 33.84C42.2377 33.9132 41.6731 35.5817 39.5725 36.2103C39.4285 36.2537 39.3142 36.3657 39.2685 36.5097C39.2594 36.5417 39.0239 37.28 38.9439 37.9497C38.9439 37.9543 38.9439 37.9589 38.9439 37.9634C38.9165 38.256 39.0194 38.5463 39.2228 38.7566C39.2571 38.7909 39.2937 38.8206 39.3371 38.8435C39.5314 38.9463 42.0045 39.792 43.4605 40.2857C43.5085 40.3017 43.5588 40.3109 43.6068 40.3109C43.7005 40.3109 43.7942 40.2812 43.8719 40.2263C43.9908 40.1417 44.0639 40.0023 44.0639 39.856C44.0639 39.7874 44.0685 38.1486 43.8994 36.5623C43.7645 35.3097 43.5657 34.4617 43.2868 33.968C43.2068 33.8057 43.0765 33.6686 42.9188 33.5817C42.8502 33.5452 42.7748 33.5246 42.6994 33.5246L42.6971 33.52Z" fill="#374874"/>
<path d="M35.1634 39.6732C29.2 39.6069 27.9771 37.4423 27.1931 36.2446C26.6651 35.424 26.3566 34.4412 25.8217 33.6686C25.5223 34.0594 25.2777 34.4869 25.0971 34.944C24.9326 35.3714 24.7977 35.8103 24.6949 36.256C24.6423 36.7589 29.7417 46.08 29.8651 45.9977C31.2 45.104 34.2446 41.856 35.1634 39.6732Z" fill="white"/>
<path d="M35.4125 39.6251C34.3794 41.4148 34.1439 41.776 32.6857 43.3485C30.9622 45.2091 31.1999 45.1063 29.8651 46C29.7417 46.0823 28.2034 43.456 26.9005 40.7657C29.4102 41.7737 33.1291 40.9714 35.4102 39.6251H35.4125Z" fill="#C1DBF6" stroke="#C1DBF6" stroke-miterlimit="10"/>
<path d="M25.8218 33.6685C26.3566 34.4411 26.6652 35.424 27.1932 36.2445C27.9772 37.4422 29.2001 39.6068 35.1635 39.6731C34.2446 41.856 31.2001 45.104 29.8652 45.9977C29.6983 45.9977 24.6446 36.7565 24.6972 36.256C24.8001 35.8102 24.9349 35.3714 25.0995 34.944C25.2801 34.4868 25.5246 34.0594 25.8241 33.6685M25.8423 32.8937L25.4606 33.392C25.1361 33.8148 24.8709 34.2811 24.6743 34.7771C24.5006 35.2274 24.3589 35.6891 24.2515 36.1554L24.2446 36.1828V36.2102C24.2218 36.4 24.1921 36.6857 26.7018 41.3577C27.3761 42.6125 29.1932 45.9451 29.5041 46.2902C29.6298 46.4297 29.7692 46.4571 29.8652 46.4571H30.0046L30.1212 46.3794C31.4515 45.488 34.5989 42.1988 35.5863 39.8514L35.8492 39.2251L35.1681 39.2182C29.6298 39.1565 28.3886 37.248 27.6481 36.1074L27.5749 35.9954C27.3418 35.632 27.1429 35.2137 26.9532 34.8091C26.7292 34.336 26.4983 33.8468 26.1966 33.4102L25.8401 32.8937H25.8423Z" fill="#374874"/>
<path d="M40.3109 46.3977C40.4252 47.8903 40.0412 52.3817 40.0412 52.3817L37.9338 53.632C37.9955 53.5954 35.4538 46.9348 36.2538 43.1291C36.7315 40.8571 38.0892 41.3074 38.4686 41.6091C39.6023 42.5188 40.2263 45.3028 40.3109 46.3977Z" fill="#374874"/>
<path d="M37.0675 38.16C37.9292 37.8743 39.3738 38.0526 39.6595 38.9874C39.9635 39.9863 38.6926 42.0891 37.9635 42.0891C35.9063 42.0891 34.9532 40.24 35.0492 39.9314C35.3463 38.9897 36.1349 38.4685 37.0675 38.16Z" fill="#374874"/>
<path d="M39.9268 32.3223L52.7565 39.4194C52.9714 39.5268 53.1246 39.7257 53.1726 39.9611V39.9886C53.1726 39.9886 53.1726 39.9931 53.1726 39.9954C53.1908 40.2697 53.1977 40.72 53.1885 41.0148C53.1268 42.9737 52.4343 45.0354 50.6286 46.0434C47.52 47.7714 30.3794 58.5211 26.3634 59.8583C26.2468 59.8994 26.128 59.9337 26.0068 59.9611C25.1863 60.144 24.0114 60.256 22.7131 60.256C18.9486 60.256 14.1417 59.3097 13.8743 56.3931C13.6731 53.5908 13.6686 50.7794 13.8606 47.9771C13.8674 47.8811 13.9108 47.7897 13.9817 47.7234C14.1874 47.5314 22.4891 38.352 24.7177 36.1577C24.8183 35.7463 24.9417 35.3394 25.0948 34.944C25.1863 34.7154 25.4926 33.92 25.6114 33.7074C25.7326 33.4948 39.9246 32.3223 39.9246 32.3223M40.1257 31.3874L39.8491 31.4103C39.8125 31.4126 36.2583 31.7074 32.7314 32.0228C30.6583 32.208 29.0011 32.3657 27.8057 32.4914C27.0903 32.5668 26.5303 32.6286 26.144 32.6788C25.4491 32.7703 25.0651 32.8206 24.8183 33.2548C24.7063 33.4537 24.5417 33.8514 24.2994 34.4708L24.2468 34.6034C24.112 34.9508 23.9954 35.312 23.8971 35.6868C22.0937 37.4948 17.4697 42.56 14.944 45.3257C14.144 46.2034 13.4491 46.9623 13.3463 47.0674C13.1154 47.2914 12.9737 47.5886 12.9508 47.9086C12.7566 50.7474 12.7611 53.6228 12.9646 56.4571V56.4663V56.4754C13.28 59.936 18.208 61.1703 22.7131 61.1703C24.048 61.1703 25.2868 61.0583 26.2057 60.8526C26.3611 60.8183 26.512 60.7748 26.6606 60.7223C29.6983 59.7074 39.5383 53.7668 46.0526 49.8331C48.3977 48.4183 50.2491 47.2983 51.0743 46.8411C52.9165 45.8126 54.0205 43.7006 54.1028 41.0423C54.112 40.7131 54.1051 40.2377 54.0845 39.9337V39.9291V39.8674L54.0777 39.8377L54.0708 39.7508L54.048 39.7051C53.9291 39.2297 53.6183 38.8366 53.1817 38.6103L40.3657 31.52L40.1234 31.3851L40.1257 31.3874Z" fill="#374874"/>
<path d="M36.1874 38.3679H36.1669C36.1074 38.3611 36.0434 38.3611 35.9771 38.3611H35.7852C32.5852 38.3611 29.5063 37.1931 27.1109 35.0719C23.2412 31.7691 21.504 27.0559 21.3097 25.7119C21.024 23.7074 20.8114 15.7714 21.2343 13.5336V13.4765L21.248 13.4239C21.7326 11.4468 22.56 9.59535 23.7097 7.91535C25.8309 4.69935 29.4034 2.77478 33.264 2.77478C33.3189 2.77478 33.4309 2.77478 33.4309 2.77478C33.8583 2.77478 34.2949 2.79535 34.7246 2.83421C37.8537 3.11307 42.1349 4.23078 44.752 7.9725C45.7006 9.29592 46.32 10.8525 46.544 12.4685L46.5852 12.9028C46.9097 16.4731 46.9052 20.0914 46.5714 23.6571C46.144 27.8125 45.2 31.1542 43.7669 33.5954C41.9932 36.6148 39.5017 38.2216 36.3634 38.3702H36.352H36.1852L36.1874 38.3679Z" fill="white"/>
<path d="M33.2663 3.23197C33.3188 3.23197 33.3737 3.23197 33.4263 3.23197C33.8377 3.23197 34.2606 3.25025 34.6857 3.28911C37.7188 3.55882 41.8628 4.6354 44.3794 8.23311C45.2914 9.50625 45.8788 10.9805 46.0937 12.5303C46.1074 12.6674 46.1188 12.8045 46.1326 12.9463C46.4548 16.496 46.4503 20.0663 46.1188 23.6137C45.6983 27.7005 44.7748 30.9805 43.376 33.3623C41.6846 36.2423 39.3188 37.7714 36.3451 37.9108H36.208C36.1348 37.904 36.0571 37.904 35.9794 37.904C35.9154 37.904 35.8514 37.904 35.7874 37.904C32.704 37.904 29.7257 36.7748 27.4171 34.7291C23.632 31.4994 21.952 26.9417 21.7646 25.6457C21.4811 23.6548 21.2663 15.7143 21.6937 13.5771V13.5314C22.1623 11.616 22.9737 9.80111 24.0891 8.17368C26.1257 5.08568 29.5748 3.22968 33.2663 3.22968M33.2663 2.3154C29.2548 2.3154 25.5406 4.31311 23.3303 7.66168C22.1508 9.38282 21.3006 11.2845 20.8046 13.312L20.7794 13.4194V13.4903C20.3497 15.8697 20.5646 23.7074 20.8594 25.7737C21.0948 27.4034 22.9211 32.0914 26.8183 35.4171C29.296 37.6091 32.48 38.816 35.7874 38.816H35.8903H35.9794C36.0251 38.816 36.0846 38.816 36.1303 38.8205H36.1691L36.208 38.8228H36.3886C39.6914 38.6674 42.3086 36.9851 44.1646 33.824C45.632 31.328 46.5943 27.9223 47.0286 23.7051C47.3646 20.1028 47.3691 16.4571 47.0423 12.8617L47.024 12.672C47.0171 12.592 47.0103 12.5143 47.0011 12.4365V12.4183L46.9966 12.4C46.7634 10.7085 46.1143 9.0834 45.12 7.69597C42.4068 3.8194 37.9908 2.66054 34.7634 2.37482C34.3246 2.33368 33.8766 2.3154 33.4308 2.31311C33.376 2.31311 33.3188 2.31311 33.264 2.31311L33.2663 2.3154Z" fill="#374874"/>
<path d="M46.1326 12.9463C46.1189 12.8046 46.1075 12.6674 46.0938 12.5303C45.8789 10.9806 45.2915 9.5063 44.3795 8.23316C41.8629 4.63544 37.7189 3.55887 34.6858 3.28916C34.2606 3.2503 33.8378 3.23201 33.4264 3.23201C29.6755 3.17716 26.1532 5.04001 24.0892 8.17373C22.9738 9.80116 22.1624 11.616 21.6938 13.5314V13.5772C21.2664 15.7143 21.4812 23.6549 21.7646 25.6457C21.9521 26.9417 23.6321 31.4994 27.4172 34.7292C29.7258 36.7749 32.7041 37.904 35.7875 37.904C35.9315 37.904 36.0755 37.8994 36.2081 37.9109H36.3452C39.3189 37.7714 41.6846 36.2423 43.3761 33.3623C44.7749 30.9806 45.6984 27.7006 46.1189 23.6137C46.4504 20.0663 46.4549 16.496 46.1326 12.9463ZM40.7864 33.4789C39.6709 35.1452 38.1349 36.4869 36.3315 37.3646H36.2012C33.1018 37.4697 30.0801 36.3817 27.7601 34.3246C24.2058 31.2869 22.4801 26.8937 22.2926 25.5726C21.9886 23.5177 21.8149 15.6983 22.2172 13.6732C22.2355 13.6206 23.6046 6.8663 29.2846 4.5303C34.8206 5.60687 40.1029 9.51087 41.1292 15.1017C41.0286 16.608 42.2309 31.4903 40.7864 33.4789Z" fill="#FBDBD0"/>
</svg>
