<svg xmlns="http://www.w3.org/2000/svg" xmlns:xlink="http://www.w3.org/1999/xlink" viewBox="0 0 1400 1400">
	<g transform="translate(0 924.4)">
		<path d="M1403.4 92.1l1.4-1.3-.7-.7-1.6 1.5c-.9-.5-2-.8-3.1-.8c-3.6 0-6.5 2.9-6.5 6.5c0 1 .2 1.9.6 2.7l-138.7 130.2c-1.1-.9-2.6-1.5-4.2-1.5c-2.5 0-4.6 1.4-5.7 3.4l-164.9-80.1c.2-.7.4-1.4.4-2.2c0-3.6-2.9-6.5-6.5-6.5s-6.5 2.9-6.5 6.5c0 1.8.8 3.5 2 4.7l-64.7 70.2c-1-.6-2.2-1-3.4-1c-2.2 0-4.1 1.1-5.2 2.7l-30.8-23.4c.5-.9.8-2 .8-3.1c0-3.6-2.9-6.5-6.5-6.5s-6.5 2.9-6.5 6.5c0 .9.2 1.7.5 2.5L923.2 216c-1.1-1.9-3.2-3.2-5.6-3.2c-2 0-3.7.9-4.9 2.2l-66.8-55.1c.7-1 1.1-2.3 1.1-3.7c0-3.6-2.9-6.5-6.5-6.5s-6.5 2.9-6.5 6.5c0 1.6.5 3 1.5 4.1L658.1 367.9c-1.1-.8-2.4-1.2-3.8-1.2c-3.1 0-5.7 2.2-6.3 5.1l-64.9-9.6c0-.2 0-.3 0-.5c0-3.6-2.9-6.5-6.5-6.5s-6.5 2.9-6.5 6.5c0 1.2.3 2.2.8 3.2L493 417c-1.2-1.1-2.7-1.7-4.4-1.7c-1.7 0-3.3.7-4.4 1.7l-136.2-99.6c.6-1 1-2.2 1-3.4c0-3.6-2.9-6.5-6.5-6.5s-6.5 2.9-6.5 6.5c0 1.2.3 2.3.9 3.3l-173 120.3c-1.2-1.7-3.1-2.8-5.4-2.8c-3.2 0-5.8 2.3-6.4 5.3l-50.7-10.5c-.1-3.5-3-6.2-6.5-6.2c-3.6 0-6.5 2.9-6.5 6.5c0 1.3.4 2.5 1 3.5l-21.1 19.8c-1.2-1.1-2.7-1.7-4.4-1.7c-3 0-5.5 2-6.3 4.8l-51.9-9.9c.1-.5.2-1 .2-1.5c0-3.6-2.9-6.5-6.5-6.5s-6.5 2.9-6.5 6.5s2.9 6.5 6.5 6.5c2.7 0 5-1.7 6-4l52 9.9c0 .2 0 .5 0 .7c0 3.6 2.9 6.5 6.5 6.5c3.6 0 6.5-2.9 6.5-6.5c0-1.5-.5-2.9-1.4-4.1l21-19.7c1.2 1.4 2.9 2.2 4.9 2.2c3.3 0 6.1-2.5 6.5-5.8l50.7 10.5c0 .1 0 .1 0 .2c0 3.6 2.9 6.5 6.5 6.5s6.5-2.9 6.5-6.5c0-1-.2-2-.6-2.8l173.1-120.3c1.2 1.5 3 2.4 5 2.4c2 0 3.7-.9 4.9-2.3l136.1 99.5c-.9 1.1-1.4 2.5-1.4 4c0 3.6 2.9 6.5 6.5 6.5s6.5-2.9 6.5-6.5c0-1.5-.5-2.9-1.4-4l77.7-52c1.2 1.5 3 2.5 5.1 2.5c3.1 0 5.7-2.2 6.3-5.1l64.9 9.6c0 .1 0 .3 0 .4c0 3.6 2.9 6.5 6.5 6.5s6.5-2.9 6.5-6.5c0-1.8-.8-3.5-2-4.7l177.3-207.5c1.2 1 2.7 1.7 4.3 1.7c1.9 0 3.5-.8 4.7-2.1l66.8 55.1c-.6 1-1 2.2-1 3.5c0 3.6 2.9 6.5 6.5 6.5s6.5-2.9 6.5-6.5c0-.8-.2-1.7-.5-2.4l30.5-13.7c1.1 1.9 3.2 3.1 5.5 3.1c2.1 0 4-1 5.2-2.6l30.9 23.4c-.5.9-.7 1.9-.7 3c0 3.6 2.9 6.5 6.5 6.5s6.5-2.9 6.5-6.5c0-2-.9-3.7-2.3-4.9l64.6-70.1c1.1.8 2.4 1.2 3.7 1.2c2.5 0 4.6-1.4 5.7-3.4l164.9 80.1c-.2.7-.4 1.4-.4 2.2c0 3.6 2.9 6.5 6.5 6.5s6.5-2.9 6.5-6.5c0-1.6-.6-3.1-1.6-4.3l138.5-130c1.2 1.8 3.2 2.9 5.4 2.9c3.6 0 6.5-2.9 6.5-6.5C1406 95.2 1405 93.3 1403.4 92.1z" fill="#7C6576" opacity="0.15">
		<animate attributeName="d" dur="30s" repeatCount="indefinite"
		values="
		M1403.4 92.1l1.4-1.3-.7-.7-1.6 1.5c-.9-.5-2-.8-3.1-.8c-3.6 0-6.5 2.9-6.5 6.5c0 1 .2 1.9.6 2.7l-138.7 130.2c-1.1-.9-2.6-1.5-4.2-1.5c-2.5 0-4.6 1.4-5.7 3.4l-164.9-80.1c.2-.7.4-1.4.4-2.2c0-3.6-2.9-6.5-6.5-6.5s-6.5 2.9-6.5 6.5c0 1.8.8 3.5 2 4.7l-64.7 70.2c-1-.6-2.2-1-3.4-1c-2.2 0-4.1 1.1-5.2 2.7l-30.8-23.4c.5-.9.8-2 .8-3.1c0-3.6-2.9-6.5-6.5-6.5s-6.5 2.9-6.5 6.5c0 .9.2 1.7.5 2.5L923.2 216c-1.1-1.9-3.2-3.2-5.6-3.2c-2 0-3.7.9-4.9 2.2l-66.8-55.1c.7-1 1.1-2.3 1.1-3.7c0-3.6-2.9-6.5-6.5-6.5s-6.5 2.9-6.5 6.5c0 1.6.5 3 1.5 4.1L658.1 367.9c-1.1-.8-2.4-1.2-3.8-1.2c-3.1 0-5.7 2.2-6.3 5.1l-64.9-9.6c0-.2 0-.3 0-.5c0-3.6-2.9-6.5-6.5-6.5s-6.5 2.9-6.5 6.5c0 1.2.3 2.2.8 3.2L493 417c-1.2-1.1-2.7-1.7-4.4-1.7c-1.7 0-3.3.7-4.4 1.7l-136.2-99.6c.6-1 1-2.2 1-3.4c0-3.6-2.9-6.5-6.5-6.5s-6.5 2.9-6.5 6.5c0 1.2.3 2.3.9 3.3l-173 120.3c-1.2-1.7-3.1-2.8-5.4-2.8c-3.2 0-5.8 2.3-6.4 5.3l-50.7-10.5c-.1-3.5-3-6.2-6.5-6.2c-3.6 0-6.5 2.9-6.5 6.5c0 1.3.4 2.5 1 3.5l-21.1 19.8c-1.2-1.1-2.7-1.7-4.4-1.7c-3 0-5.5 2-6.3 4.8l-51.9-9.9c.1-.5.2-1 .2-1.5c0-3.6-2.9-6.5-6.5-6.5s-6.5 2.9-6.5 6.5s2.9 6.5 6.5 6.5c2.7 0 5-1.7 6-4l52 9.9c0 .2 0 .5 0 .7c0 3.6 2.9 6.5 6.5 6.5c3.6 0 6.5-2.9 6.5-6.5c0-1.5-.5-2.9-1.4-4.1l21-19.7c1.2 1.4 2.9 2.2 4.9 2.2c3.3 0 6.1-2.5 6.5-5.8l50.7 10.5c0 .1 0 .1 0 .2c0 3.6 2.9 6.5 6.5 6.5s6.5-2.9 6.5-6.5c0-1-.2-2-.6-2.8l173.1-120.3c1.2 1.5 3 2.4 5 2.4c2 0 3.7-.9 4.9-2.3l136.1 99.5c-.9 1.1-1.4 2.5-1.4 4c0 3.6 2.9 6.5 6.5 6.5s6.5-2.9 6.5-6.5c0-1.5-.5-2.9-1.4-4l77.7-52c1.2 1.5 3 2.5 5.1 2.5c3.1 0 5.7-2.2 6.3-5.1l64.9 9.6c0 .1 0 .3 0 .4c0 3.6 2.9 6.5 6.5 6.5s6.5-2.9 6.5-6.5c0-1.8-.8-3.5-2-4.7l177.3-207.5c1.2 1 2.7 1.7 4.3 1.7c1.9 0 3.5-.8 4.7-2.1l66.8 55.1c-.6 1-1 2.2-1 3.5c0 3.6 2.9 6.5 6.5 6.5s6.5-2.9 6.5-6.5c0-.8-.2-1.7-.5-2.4l30.5-13.7c1.1 1.9 3.2 3.1 5.5 3.1c2.1 0 4-1 5.2-2.6l30.9 23.4c-.5.9-.7 1.9-.7 3c0 3.6 2.9 6.5 6.5 6.5s6.5-2.9 6.5-6.5c0-2-.9-3.7-2.3-4.9l64.6-70.1c1.1.8 2.4 1.2 3.7 1.2c2.5 0 4.6-1.4 5.7-3.4l164.9 80.1c-.2.7-.4 1.4-.4 2.2c0 3.6 2.9 6.5 6.5 6.5s6.5-2.9 6.5-6.5c0-1.6-.6-3.1-1.6-4.3l138.5-130c1.2 1.8 3.2 2.9 5.4 2.9c3.6 0 6.5-2.9 6.5-6.5C1406 95.2 1405 93.3 1403.4 92.1z;
			M1403.4 92.1l1.4-1.3-.7-.7-1.6 1.5c-.9-.5-2-.8-3.1-.8c-3.6 0-6.5 2.9-6.5 6.5c0 1 .2 1.9.6 2.7l-146.5 120.8c-1.1-.9-2.6-1.5-4.2-1.5c-2.5 0-4.6 1.4-5.7 3.4l-147-61.7c.2-.7.4-1.4.4-2.2c0-3.6-2.9-6.5-6.5-6.5s-6.5 2.9-6.5 6.5c0 1.8.8 3.5 2 4.7l-62.9 61.1c-1-.6-2.2-1-3.4-1c-2.2 0-4.1 1.1-5.2 2.7l-42.7-36.9c.5-.9.8-2 .8-3.1c0-3.6-2.9-6.5-6.5-6.5s-6.5 2.9-6.5 6.5c0 .9.2 1.7.5 2.5L915.9 228c-1.1-1.9-3.2-3.2-5.6-3.2c-2 0-3.7.9-4.9 2.2l-71.5-67.1c.7-1 1.1-2.3 1.1-3.7c0-3.6-2.9-6.5-6.5-6.5s-6.5 2.9-6.5 6.5c0 1.6.5 3 1.5 4.1L669.6 361.6c-1.1-.8-2.4-1.2-3.8-1.2c-3.1 0-5.7 2.2-6.3 5.1l-86.9-11.7c0-.2 0-.3 0-.5c0-3.6-2.9-6.5-6.5-6.5s-6.5 2.9-6.5 6.5c0 1.2.3 2.2.8 3.2L504.6 417c-1.2-1.1-2.7-1.7-4.4-1.7c-1.7 0-3.3.7-4.4 1.7l-136.3-99.6c.6-1 1-2.2 1-3.4c0-3.6-2.9-6.5-6.5-6.5s-6.5 2.9-6.5 6.5c0 1.2.3 2.3.9 3.3L172.1 429.7c-1.2-1.7-3.1-2.8-5.4-2.8c-3.2 0-5.8 2.3-6.4 5.3l-50.1 6.6c-.1-3.5-3-6.2-6.5-6.2c-3.6 0-6.5 2.9-6.5 6.5c0 1.3.4 2.5 1 3.5l-18.2 15.7c-1.2-1.1-2.7-1.7-4.4-1.7c-3 0-5.5 2-6.3 4.8L5.8 446.3c.1-.5.2-1 .2-1.5c0-3.6-2.9-6.5-6.5-6.5s-6.5 2.9-6.5 6.5s2.9 6.5 6.5 6.5c2.7 0 5-1.7 6-4l63.8 15.1c0 .2 0 .5 0 .7c0 3.6 2.9 6.5 6.5 6.5c3.6 0 6.5-2.9 6.5-6.5c0-1.5-.5-2.9-1.4-4.1L99 443.4c1.2 1.4 2.9 2.2 4.9 2.2c3.3 0 6.1-2.5 6.5-5.8l50-6.6c0 .1 0 .1 0 .2c0 3.6 2.9 6.5 6.5 6.5s6.5-2.9 6.5-6.5c0-1-.2-2-.6-2.8L349 318.1c1.2 1.5 3 2.4 5 2.4c2 0 3.7-.9 4.9-2.3l136.2 99.5c-.9 1.1-1.4 2.5-1.4 4c0 3.6 2.9 6.5 6.5 6.5s6.5-2.9 6.5-6.5c0-1.5-.5-2.9-1.4-4l55.7-60.4c1.2 1.5 3 2.5 5.1 2.5c3.1 0 5.7-2.2 6.3-5.1l86.9 11.7c0 .1 0 .3 0 .4c0 3.6 2.9 6.5 6.5 6.5s6.5-2.9 6.5-6.5c0-1.8-.8-3.5-2-4.7l153.7-201.2c1.2 1 2.7 1.7 4.3 1.7c1.9 0 3.5-.8 4.7-2.1l71.5 67.1c-.6 1-1 2.2-1 3.5c0 3.6 2.9 6.5 6.5 6.5s6.5-2.9 6.5-6.5c0-.8-.2-1.7-.5-2.4l37.8-39.2c1.1 1.9 3.2 3.1 5.5 3.1c2.1 0 4-1 5.2-2.6l42.7 36.9c-.5.9-.7 1.9-.7 3c0 3.6 2.9 6.5 6.5 6.5s6.5-2.9 6.5-6.5c0-2-.9-3.7-2.3-4.9l62.9-61.1c1.1.8 2.4 1.2 3.7 1.2c2.5 0 4.6-1.4 5.7-3.4l147 61.7c-.2.7-.4 1.4-.4 2.2c0 3.6 2.9 6.5 6.5 6.5s6.5-2.9 6.5-6.5c0-1.6-.6-3.1-1.6-4.3l146.3-120.6c1.2 1.8 3.2 2.9 5.4 2.9c3.6 0 6.5-2.9 6.5-6.5C1406 95.2 1405 93.3 1403.4 92.1z;
			M1403.4 92.1l1.4-1.3-.7-.7-1.6 1.5c-.9-.5-2-.8-3.1-.8c-3.6 0-6.5 2.9-6.5 6.5c0 1 .2 1.9.6 2.7l-151.7 132.8c-1.1-.9-2.6-1.5-4.2-1.5c-2.5 0-4.6 1.4-5.7 3.4l-154.1-70.4c.2-.7.4-1.4.4-2.2c0-3.6-2.9-6.5-6.5-6.5s-6.5 2.9-6.5 6.5c0 1.8.8 3.5 2 4.7l-55.9 47.5c-1-.6-2.2-1-3.4-1c-2.2 0-4.1 1.1-5.2 2.7l-25.9-20c.5-.9.8-2 .8-3.1c0-3.6-2.9-6.5-6.5-6.5s-6.5 2.9-6.5 6.5c0 .9.2 1.7.5 2.5L928.4 228c-1.1-1.9-3.2-3.2-5.6-3.2c-2 0-3.7.9-4.9 2.2l-77.7-78.2c.7-1 1.1-2.3 1.1-3.7c0-3.6-2.9-6.5-6.5-6.5s-6.5 2.9-6.5 6.5c0 1.6.5 3 1.5 4.1L658.1 354.9c-1.1-.8-2.4-1.2-3.8-1.2c-3.1 0-5.7 2.2-6.3 5.1l-76.1 6.4c0-.2 0-.3 0-.5c0-3.6-2.9-6.5-6.5-6.5s-6.5 2.9-6.5 6.5c0 1.2.3 2.2.8 3.2l-60.5 60.4c-1.2-1.1-2.7-1.7-4.4-1.7c-1.7 0-3.3.7-4.4 1.7L353.1 305.5c.6-1 1-2.2 1-3.4c0-3.6-2.9-6.5-6.5-6.5s-6.5 2.9-6.5 6.5c0 1.2.3 2.3.9 3.3L177 440.6c-1.2-1.7-3.1-2.8-5.4-2.8c-3.2 0-5.8 2.3-6.4 5.3l-50.9-17.4c-.1-3.5-3-6.2-6.5-6.2c-3.6 0-6.5 2.9-6.5 6.5c0 1.3.4 2.5 1 3.5l-25.3 17.4c-1.2-1.1-2.7-1.7-4.4-1.7c-3 0-5.5 2-6.3 4.8l-60.7-3.6c.1-.5.2-1 .2-1.5c0-3.6-2.9-6.5-6.5-6.5s-6.5 2.9-6.5 6.5s2.9 6.5 6.5 6.5c2.7 0 5-1.7 6-4l60.8 3.7c0 .2 0 .5 0 .7c0 3.6 2.9 6.5 6.5 6.5c3.6 0 6.5-2.9 6.5-6.5c0-1.5-.5-2.9-1.4-4.1l25.2-17.3c1.2 1.4 2.9 2.2 4.9 2.2c3.3 0 6.1-2.5 6.5-5.8l50.8 17.3c0 .1 0 .1 0 .2c0 3.6 2.9 6.5 6.5 6.5s6.5-2.9 6.5-6.5c0-1-.2-2-.6-2.8l165-135.3c1.2 1.5 3 2.4 5 2.4c2 0 3.7-.9 4.9-2.3l137.2 122.8c-.9 1.1-1.4 2.5-1.4 4c0 3.6 2.9 6.5 6.5 6.5s6.5-2.9 6.5-6.5c0-1.5-.5-2.9-1.4-4l60.4-60.3c1.2 1.5 3 2.5 5.1 2.5c3.1 0 5.7-2.2 6.3-5.1l76.1-6.4c0 .1 0 .3 0 .4c0 3.6 2.9 6.5 6.5 6.5s6.5-2.9 6.5-6.5c0-1.8-.8-3.5-2-4.7L830.5 150c1.2 1 2.7 1.7 4.3 1.7c1.9 0 3.5-.8 4.7-2.1l77.8 78.2c-.6 1-1 2.2-1 3.5c0 3.6 2.9 6.5 6.5 6.5s6.5-2.9 6.5-6.5c0-.8-.2-1.7-.5-2.4l36.8-32.7c1.1 1.9 3.2 3.1 5.5 3.1c2.1 0 4-1 5.2-2.6l25.9 20c-.5.9-.7 1.9-.7 3c0 3.6 2.9 6.5 6.5 6.5s6.5-2.9 6.5-6.5c0-2-.9-3.7-2.3-4.9l55.8-47.5c1.1.8 2.4 1.2 3.7 1.2c2.5 0 4.6-1.4 5.7-3.4l154.1 70.4c-.2.7-.4 1.4-.4 2.2c0 3.6 2.9 6.5 6.5 6.5s6.5-2.9 6.5-6.5c0-1.6-.6-3.1-1.6-4.3l151.5-132.6c1.2 1.8 3.2 2.9 5.4 2.9c3.6 0 6.5-2.9 6.5-6.5C1406 95.2 1405 93.3 1403.4 92.1z;
			M1403.4 92.1l1.4-1.3-.7-.7-1.6 1.5c-.9-.5-2-.8-3.1-.8c-3.6 0-6.5 2.9-6.5 6.5c0 1 .2 1.9.6 2.7l-138.7 130.2c-1.1-.9-2.6-1.5-4.2-1.5c-2.5 0-4.6 1.4-5.7 3.4l-164.9-80.1c.2-.7.4-1.4.4-2.2c0-3.6-2.9-6.5-6.5-6.5s-6.5 2.9-6.5 6.5c0 1.8.8 3.5 2 4.7l-64.7 70.2c-1-.6-2.2-1-3.4-1c-2.2 0-4.1 1.1-5.2 2.7l-30.8-23.4c.5-.9.8-2 .8-3.1c0-3.6-2.9-6.5-6.5-6.5s-6.5 2.9-6.5 6.5c0 .9.2 1.7.5 2.5L923.2 216c-1.1-1.9-3.2-3.2-5.6-3.2c-2 0-3.7.9-4.9 2.2l-66.8-55.1c.7-1 1.1-2.3 1.1-3.7c0-3.6-2.9-6.5-6.5-6.5s-6.5 2.9-6.5 6.5c0 1.6.5 3 1.5 4.1L658.1 367.9c-1.1-.8-2.4-1.2-3.8-1.2c-3.1 0-5.7 2.2-6.3 5.1l-64.9-9.6c0-.2 0-.3 0-.5c0-3.6-2.9-6.5-6.5-6.5s-6.5 2.9-6.5 6.5c0 1.2.3 2.2.8 3.2L493 417c-1.2-1.1-2.7-1.7-4.4-1.7c-1.7 0-3.3.7-4.4 1.7l-136.2-99.6c.6-1 1-2.2 1-3.4c0-3.6-2.9-6.5-6.5-6.5s-6.5 2.9-6.5 6.5c0 1.2.3 2.3.9 3.3l-173 120.3c-1.2-1.7-3.1-2.8-5.4-2.8c-3.2 0-5.8 2.3-6.4 5.3l-50.7-10.5c-.1-3.5-3-6.2-6.5-6.2c-3.6 0-6.5 2.9-6.5 6.5c0 1.3.4 2.5 1 3.5l-21.1 19.8c-1.2-1.1-2.7-1.7-4.4-1.7c-3 0-5.5 2-6.3 4.8l-51.9-9.9c.1-.5.2-1 .2-1.5c0-3.6-2.9-6.5-6.5-6.5s-6.5 2.9-6.5 6.5s2.9 6.5 6.5 6.5c2.7 0 5-1.7 6-4l52 9.9c0 .2 0 .5 0 .7c0 3.6 2.9 6.5 6.5 6.5c3.6 0 6.5-2.9 6.5-6.5c0-1.5-.5-2.9-1.4-4.1l21-19.7c1.2 1.4 2.9 2.2 4.9 2.2c3.3 0 6.1-2.5 6.5-5.8l50.7 10.5c0 .1 0 .1 0 .2c0 3.6 2.9 6.5 6.5 6.5s6.5-2.9 6.5-6.5c0-1-.2-2-.6-2.8l173.1-120.3c1.2 1.5 3 2.4 5 2.4c2 0 3.7-.9 4.9-2.3l136.1 99.5c-.9 1.1-1.4 2.5-1.4 4c0 3.6 2.9 6.5 6.5 6.5s6.5-2.9 6.5-6.5c0-1.5-.5-2.9-1.4-4l77.7-52c1.2 1.5 3 2.5 5.1 2.5c3.1 0 5.7-2.2 6.3-5.1l64.9 9.6c0 .1 0 .3 0 .4c0 3.6 2.9 6.5 6.5 6.5s6.5-2.9 6.5-6.5c0-1.8-.8-3.5-2-4.7l177.3-207.5c1.2 1 2.7 1.7 4.3 1.7c1.9 0 3.5-.8 4.7-2.1l66.8 55.1c-.6 1-1 2.2-1 3.5c0 3.6 2.9 6.5 6.5 6.5s6.5-2.9 6.5-6.5c0-.8-.2-1.7-.5-2.4l30.5-13.7c1.1 1.9 3.2 3.1 5.5 3.1c2.1 0 4-1 5.2-2.6l30.9 23.4c-.5.9-.7 1.9-.7 3c0 3.6 2.9 6.5 6.5 6.5s6.5-2.9 6.5-6.5c0-2-.9-3.7-2.3-4.9l64.6-70.1c1.1.8 2.4 1.2 3.7 1.2c2.5 0 4.6-1.4 5.7-3.4l164.9 80.1c-.2.7-.4 1.4-.4 2.2c0 3.6 2.9 6.5 6.5 6.5s6.5-2.9 6.5-6.5c0-1.6-.6-3.1-1.6-4.3l138.5-130c1.2 1.8 3.2 2.9 5.4 2.9c3.6 0 6.5-2.9 6.5-6.5C1406 95.2 1405 93.3 1403.4 92.1z"
			calcMode="spline" keySplines=".445 .05 .55 .95;.445 .05 .55 .95;.445 .05 .55 .95"/>
		</path>
		<polygon points="-0.5,408 79.1,348.1 164,408 272.3,325.4 306.7,365.7 340.8,366.3 444.9,260.9 514.2,306.1 580.7,252.9 633.5,300 747,181.6 825.8,234.5 971.5,101.3 1145.5,212 1227.3,115.8 1279.9,154.6 1399.5,5.5 1399.5,475.6 -0.5,475.6 " fill="#7C6576" opacity="0.15"/>
		<path d="M1399.5 0c-3.6 0-6.5 2.9-6.5 6.5c0 1.3.4 2.5 1.1 3.6l-111.5 139c-1-.5-2.1-.9-3.2-.9c-1.5 0-3 .5-4.1 1.4l-41.7-30.8c.2-.7.4-1.4.4-2.1c0-3.6-2.9-6.5-6.5-6.5s-6.5 2.9-6.5 6.5c0 1.2.4 2.4 1 3.4l-73.7 86.7c-.8-.4-1.8-.6-2.8-.6c-1.6 0-3.1.6-4.3 1.6L977.5 103.7c.1-.5.2-1 .2-1.5c0-3.6-2.9-6.5-6.5-6.5s-6.5 2.9-6.5 6.5c0 1.1.3 2 .7 2.9L829.5 229.5c-.9-.5-2-.8-3.2-.8c-1.7 0-3.3.7-4.5 1.8l-68.6-46c.1-.5.2-1 .2-1.6c0-3.6-2.9-6.5-6.5-6.5s-6.5 2.9-6.5 6.5c0 1.1.3 2.1.7 3L636.4 295.1c-.9-.4-1.8-.7-2.8-.7c-1.2 0-2.3.3-3.3.9l-43.5-38.8c.2-.6.3-1.3.3-2.1c0-3.6-2.9-6.5-6.5-6.5s-6.5 2.9-6.5 6.5c0 .7.1 1.3.3 1.9L519 300.7c-1.1-.8-2.4-1.2-3.8-1.2c-2.1 0-3.9 1-5.1 2.5l-58.9-38.4c.1-.5.2-1.1.2-1.7c0-3.6-2.9-6.5-6.5-6.5s-6.5 2.9-6.5 6.5c0 1.1.3 2.1.7 3L344.2 361c-.9-.5-2-.8-3.2-.8c-3.1 0-5.7 2.2-6.3 5.1l-21.8-.4c-.8-2.7-3.3-4.6-6.2-4.6c-.9 0-1.7.2-2.5.5L278 330c.6-1 .9-2.1.9-3.3c0-3.6-2.9-6.5-6.5-6.5s-6.5 2.9-6.5 6.5c0 .7.1 1.3.3 1.9l-98.7 75.3c-1.1-.8-2.4-1.3-3.9-1.3c-1.4 0-2.6.4-3.7 1.2l-74.2-52.4c.1-.5.2-.9.2-1.4c0-3.6-2.9-6.5-6.5-6.5s-6.5 2.9-6.5 6.5c0 .5 0 .9.1 1.3L3.2 403.7c-1.1-.7-2.3-1.2-3.7-1.2c-3.6 0-6.5 2.9-6.5 6.5s2.9 6.5 6.5 6.5S6 412.6 6 409c0-.7-.1-1.5-.4-2.1L75 354.7c1.2 1 2.7 1.7 4.3 1.7c1.7 0 3.2-.6 4.3-1.6l73.8 52.1c-.2.7-.4 1.4-.4 2.2c0 3.6 2.9 6.5 6.5 6.5s6.5-2.9 6.5-6.5c0-.7-.1-1.3-.3-1.9l98.7-75.3c1.1.8 2.4 1.3 3.9 1.3c.9 0 1.8-.2 2.6-.5l26.2 30.7c-.6 1-1 2.1-1 3.4c0 3.6 2.9 6.5 6.5 6.5c2.8 0 5.3-1.8 6.1-4.4l22.2.4c1 2.3 3.3 3.9 6 3.9c3.6 0 6.5-2.9 6.5-6.5c0-1-.2-1.9-.6-2.8l95-96.2c.9.4 1.9.7 2.9.7c1.5 0 3-.5 4.1-1.4l59.7 38.9c0 0 0 .1 0 .1c0 3.6 2.9 6.5 6.5 6.5s6.5-2.9 6.5-6.5c0-.7-.1-1.4-.3-2l55.3-44.2c1.1.8 2.4 1.3 3.9 1.3c1.4 0 2.7-.5 3.8-1.2l43.2 38.5c-.4.8-.6 1.7-.6 2.6c0 3.6 2.9 6.5 6.5 6.5s6.5-2.9 6.5-6.5c0-1.1-.3-2.2-.8-3.1L744 188.6c.9.4 1.8.7 2.9.7c1.6 0 3.1-.6 4.2-1.5l68.8 46.2c-.1.4-.1.8-.1 1.2c0 3.6 2.9 6.5 6.5 6.5s6.5-2.9 6.5-6.5c0-1-.2-1.9-.6-2.7l136-124.4c.9.5 1.9.7 3 .7c1.6 0 3.1-.6 4.3-1.6L1139 211.3c-.1.5-.2 1-.2 1.5c0 3.6 2.9 6.5 6.5 6.5s6.5-2.9 6.5-6.5c0-1.1-.3-2.2-.8-3.1l73.8-86.8c.8.3 1.6.5 2.5.5c1.4 0 2.7-.4 3.8-1.2l41.9 31c-.1.5-.2 1.1-.2 1.7c0 3.6 2.9 6.5 6.5 6.5s6.5-2.9 6.5-6.5c0-.9-.2-1.8-.6-2.6l112-139.5c.7.3 1.5.4 2.3.4c3.6 0 6.5-2.9 6.5-6.5S1403.1 0 1399.5 0z" fill="#7C6576"/>
	</g>
</svg>
