<svg width="50" height="50" viewBox="0 0 50 50" fill="none" xmlns="http://www.w3.org/2000/svg">
<path d="M31.9574 35.4295C31.7185 37.4404 30.473 39.0686 28.544 39.8736C27.463 40.3195 26.0195 40.564 24.8617 40.4913C23.0803 40.4186 21.4104 39.9867 19.8517 39.2197C19.3126 38.9292 18.4817 38.3846 17.8478 37.8761C17.6915 37.7308 17.6653 37.6581 17.7787 37.5078C17.8285 37.4196 17.9398 37.2584 18.1679 36.9318C18.5158 36.4503 18.553 36.3867 18.5901 36.325C18.7014 36.1687 18.8709 36.1545 19.0482 36.2779C19.0724 36.3021 19.0724 36.3021 19.0858 36.3139C19.1095 36.3392 19.1095 36.3392 19.173 36.3865C19.2386 36.4357 19.2862 36.4592 19.2979 36.487C20.9681 37.7667 22.9123 38.4932 24.8751 38.5659C27.5994 38.5299 29.5572 37.331 29.9179 35.4783C30.2892 33.4619 28.6656 31.7017 25.4906 30.7201C24.4903 30.4296 21.973 29.4456 21.5082 29.1718C19.3322 27.9243 18.3108 26.2869 18.4593 24.2563C18.682 21.45 21.3457 19.3613 24.7122 19.343C26.2065 19.343 27.7128 19.6479 29.1417 20.2362C29.6571 20.4508 30.577 20.9385 30.8829 21.1717C31.0665 21.3048 31.1056 21.45 30.9924 21.6127C30.9547 21.7119 30.8439 21.8597 30.6526 22.1767C30.3737 22.593 30.3633 22.6103 30.3127 22.7019C30.2134 22.8547 30.0715 22.8669 29.8824 22.7575C28.3551 21.7408 26.6323 21.232 24.75 21.1957C22.4121 21.232 20.6542 22.5959 20.541 24.4648C20.5177 26.1436 21.7987 27.3666 24.5728 28.2875C30.2152 30.0666 32.3674 32.1452 31.9574 35.4295ZM24.9999 6.45924C28.6658 6.45924 31.6606 9.8636 31.8089 14.1314H18.1997C18.3306 9.8636 21.3342 6.45924 24.9999 6.45924ZM44 14.9399C44 14.4945 43.6478 14.1314 43.1983 14.1314H43.169H34.3714C34.1488 8.5006 30.0336 4 24.9999 4C19.9632 4 15.8587 8.5006 15.6392 14.1314H6.8047C6.36164 14.1412 6.01006 14.4964 6.01006 14.9399C6.01006 14.9655 6.01006 14.9768 6.01006 15.0024H6L7.25479 42.162C7.25479 42.2354 7.26948 42.3095 7.26948 42.3978C7.26948 42.415 7.27188 42.4203 7.27188 42.4526V42.4942L7.28114 42.5086C7.47002 44.4021 8.86771 45.9117 10.7779 45.9856V46H38.8003C38.8149 46 38.8236 46 38.8381 46C38.8598 46 38.8598 46 38.8758 46H38.9339V45.9856C40.8712 45.9395 42.4575 44.4021 42.6087 42.4878L42.6172 42.4526C42.6172 42.4347 42.6172 42.4151 42.6172 42.3978C42.6172 42.3425 42.6318 42.3073 42.6318 42.2498L44 14.9768C44 14.9668 44 14.9513 44 14.9399Z" fill="#EE4D2D"/>
<path d="M43.1049 4H44.077V0.817741H45.1846V0H42V0.817741H43.1049V4Z" fill="#D1D5DB"/>
<path d="M45.8805 4H46.7384V1.45253H46.7915L47.6627 4H48.2178L49.089 1.45253H49.1448V4H50V0H48.8924L47.9681 2.71379H47.9177L46.9907 0H45.8805V4Z" fill="#D1D5DB"/>
</svg>
