<svg width="234" height="60" viewBox="0 0 234 60" xmlns="http://www.w3.org/2000/svg"><path fill="#fff" fill-opacity=".5" d="M0 5h234v50H0z"/><path transform="translate(0 5)" fill="url(#header_preview_stretch__a)" d="M0 0h234v15H0z"/><path d="M18.082 16.289v-1.865h-3.708V8.71H12v7.58l6.082-.001Zm3.945.13c.852 0 1.565-.158 2.136-.473a3.21 3.21 0 0 0 1.31-1.324c.303-.567.454-1.293.454-2.179 0-1.22-.346-2.169-1.038-2.846-.692-.677-1.677-1.016-2.957-1.016-1.247 0-2.22.345-2.92 1.034-.699.69-1.048 1.653-1.048 2.89 0 .886.176 1.624.53 2.213.352.59.813 1.02 1.38 1.292.569.273 1.286.409 2.153.409Zm-.079-1.753c-.496 0-.889-.167-1.177-.501-.288-.335-.432-.884-.432-1.65 0-.772.145-1.325.435-1.66.29-.333.674-.5 1.153-.5.5 0 .896.164 1.188.493.291.33.437.85.437 1.564 0 .848-.14 1.436-.42 1.763-.279.327-.674.491-1.184.491Zm8.291 1.753c.741 0 1.381-.085 1.921-.256.54-.17 1.162-.492 1.864-.964v-3.232h-3.67v1.577h1.589v.714c-.26.16-.539.29-.828.388a2.52 2.52 0 0 1-.76.113c-.56 0-.996-.176-1.309-.527-.312-.352-.469-.938-.469-1.758 0-.772.155-1.336.464-1.693.31-.357.724-.535 1.245-.535.35 0 .637.076.863.227.225.152.385.37.48.657l2.29-.403c-.14-.49-.348-.894-.626-1.213a2.475 2.475 0 0 0-1.049-.705c-.42-.152-1.056-.228-1.905-.228-.881 0-1.582.122-2.103.367-.64.293-1.173.78-1.52 1.393-.346.612-.519 1.332-.519 2.159 0 .786.158 1.482.474 2.089a3.17 3.17 0 0 0 1.337 1.37c.575.306 1.319.46 2.231.46Zm8.244 0c.853 0 1.565-.158 2.136-.473a3.21 3.21 0 0 0 1.31-1.324c.303-.567.454-1.293.454-2.179 0-1.22-.346-2.169-1.038-2.846-.692-.677-1.677-1.016-2.957-1.016-1.247 0-2.22.345-2.92 1.034-.699.69-1.048 1.653-1.048 2.89 0 .886.176 1.624.53 2.213.352.59.813 1.02 1.38 1.292.569.273 1.286.409 2.153.409Zm-.079-1.753c-.496 0-.888-.167-1.177-.501-.288-.335-.432-.884-.432-1.65 0-.772.145-1.325.435-1.66.29-.333.674-.5 1.153-.5.5 0 .896.164 1.188.493.292.33.437.85.437 1.564 0 .848-.14 1.436-.419 1.763-.28.327-.675.491-1.185.491Z" fill="#fff"/><path fill-opacity=".12" d="M165 5h39v15h-39z"/><g clip-path="url(#header_preview_stretch__b)"><path d="M186.286 12.143c0-.688-.245-1.277-.734-1.766a2.407 2.407 0 0 0-1.766-.734c-.688 0-1.277.244-1.766.734a2.405 2.405 0 0 0-.734 1.766c0 .688.244 1.277.734 1.766.489.49 1.078.734 1.766.734s1.277-.245 1.766-.734a2.41 2.41 0 0 0 .734-1.766Zm2.857 4.643a.69.69 0 0 1-.212.502.688.688 0 0 1-.502.212.665.665 0 0 1-.503-.212l-1.914-1.909a3.82 3.82 0 0 1-2.226.692 3.857 3.857 0 0 1-1.526-.31 3.93 3.93 0 0 1-1.256-.836 3.913 3.913 0 0 1-.837-1.256 3.851 3.851 0 0 1-.31-1.526c0-.532.103-1.04.31-1.526.206-.486.485-.904.837-1.256a3.93 3.93 0 0 1 1.256-.837c.485-.206.994-.31 1.526-.31s1.04.104 1.526.31a3.94 3.94 0 0 1 1.256.837c.351.352.63.77.837 1.256.206.485.309.994.309 1.526 0 .818-.23 1.56-.692 2.226l1.914 1.915a.683.683 0 0 1 .207.502Z" fill="#fff"/></g><path fill="#fff" d="M204 5h30v15h-30z"/><defs><linearGradient id="header_preview_stretch__a" x1="0" y1="0" x2="223.173" y2="57.224" gradientUnits="userSpaceOnUse"><stop stop-color="#357C83"/><stop offset="1" stop-color="#01A09D"/></linearGradient><clipPath id="header_preview_stretch__b"><path fill="#fff" transform="translate(179.5 7.5)" d="M0 0h10v10H0z"/></clipPath></defs></svg>
