<?xml version="1.0" encoding="UTF-8"?>
<svg xmlns="http://www.w3.org/2000/svg" xmlns:xlink="http://www.w3.org/1999/xlink" width="23" height="23" viewBox="0 0 23 23" version="1.1">
    <g fill="#FFF">
        <path class="o_graphic" d="M 11 2.9 C 9.3 3 7.7 3.6 6.3 4.6 C 5.9 5 5.3 5.5 4.9 5.9 C 3.8 7.3 3.1 8.9 2.9 10.7 C 2.9 11 2.9 12 2.9 12.3 C 3.1 14.4 4 16.2 5.4 17.6 C 6.1 18.3 6.8 18.8 7.7 19.2 C 8.9 19.8 10.1 20.1 11.3 20.1 C 11.7 20.1 11.8 20.1 11.9 20.1 C 12.4 19.9 12.7 19.5 12.9 19 C 12.9 18.9 12.9 18.5 12.9 18.3 C 12.8 18.2 12.7 17.9 12.6 17.8 C 12.3 17.4 12.2 17.2 12.2 16.8 C 12.2 16.5 12.2 16.4 12.3 16.1 C 12.5 15.7 12.9 15.5 13.3 15.4 C 13.4 15.3 13.5 15.3 14.6 15.3 C 15.9 15.3 16 15.3 16.4 15.2 C 17.6 14.9 18.6 14.2 19.3 13.2 C 20 12.1 20.2 11 20 9.6 C 19.7 7.3 18.3 5.3 16.2 4.1 C 15.1 3.5 13.8 3.1 12.5 2.9 C 12.2 2.9 11.3 2.9 11 2.9 Z M 9.5 4.8 C 10.2 5 10.6 5.7 10.5 6.4 C 10.5 6.7 10.4 7 10.1 7.3 C 9.4 8 8.2 7.7 7.8 6.9 C 7.7 6.7 7.7 6.5 7.7 6.3 C 7.6 6.1 7.7 5.9 7.8 5.7 C 8 5.2 8.3 4.9 8.8 4.8 C 9 4.8 9.3 4.8 9.5 4.8 Z M 14.2 4.8 C 14.8 4.9 15.2 5.4 15.3 5.9 C 15.4 6.1 15.3 6.4 15.3 6.6 C 15.2 6.9 15 7.2 14.8 7.4 C 14.1 7.9 13.2 7.7 12.7 7.1 C 12.3 6.5 12.4 5.7 12.8 5.2 C 13 5.1 13.2 4.9 13.4 4.9 C 13.7 4.8 14 4.8 14.2 4.8 Z M 6.4 8.6 C 7 8.7 7.5 9.1 7.6 9.7 C 7.7 9.9 7.7 10.2 7.6 10.4 C 7.4 11.4 6.3 11.8 5.4 11.3 C 5.2 11.1 5 10.8 4.8 10.5 C 4.8 10.3 4.8 10.3 4.8 10.1 C 4.8 9.8 4.8 9.8 4.8 9.6 C 4.9 9.4 5 9.2 5.2 9 C 5.5 8.7 6 8.6 6.4 8.6 Z M 17.1 8.7 C 17.4 8.7 17.6 8.8 17.8 9 C 18 9.2 18.1 9.4 18.2 9.6 C 18.2 9.8 18.2 9.8 18.2 10.1 C 18.2 10.3 18.2 10.3 18.2 10.5 C 18 10.8 17.8 11.1 17.6 11.3 C 16.7 11.8 15.6 11.4 15.4 10.4 C 15.3 10.2 15.3 9.9 15.4 9.7 C 15.5 9.1 16 8.7 16.5 8.6 C 16.7 8.6 17 8.6 17.1 8.7 Z M 17.1 8.7 "/>
    </g>
</svg>
