<svg xmlns="http://www.w3.org/2000/svg" xmlns:xlink="http://www.w3.org/1999/xlink" preserveAspectRatio="xMidYMid" viewBox="0 0 1400 1400">
<g transform="translate(700,700) scale(1,1) translate(-700,-700)"><defs>
  <linearGradient id="ldbk-photon-g08vq25v2g8-lg" x1="675" x2="1400" y1="0" y2="0" gradientUnits="userSpaceOnUse">
    <stop stop-color="#7c6576" offset="0"></stop>
    <stop stop-color="#383e45" offset="1"></stop>
  </linearGradient>
  <mask id="ldbk-photon-g08vq25v2g8-mask">
  <g><path d="M1700 -0.5 L691.9610977719506 -0.5 A15 15 0 0 1 691.9610977719506 30.5 L1700 30.5" fill="#fff">
  <animateTransform attributeName="transform" type="translate" dur="10s" repeatCount="indefinite" keyTimes="0;0.5;1" calcMode="spline" keySplines="0.5 0 0.5 1;0.5 0 0.5 1" values="28.644384455908867;0;28.644384455908867" begin="0s"></animateTransform>
</path><path d="M1449.77820978432 -0.5 L1469.5564195686402 -0.5 A15 15 0 0 1 1469.5564195686402 30.5 L1449.77820978432 30.5 A15 15 0 0 1 1449.77820978432 -0.5" fill="#000">
  <animateTransform attributeName="transform" type="translate" dur="3.3333333333333335s" repeatCount="indefinite" keyTimes="0;1" values="0;-1104.6811961775347" begin="0s"></animateTransform>
  <animate attributeName="opacity" dur="3.3333333333333335s" repeatCount="indefinite" keyTimes="0;0.3;1" values="1;1;0" begin="0s"></animate>
</path><path d="M1700 29.5 L656.2825554853434 29.5 A15 15 0 0 0 656.2825554853434 60.5 L1700 60.5" fill="#fff">
  <animateTransform attributeName="transform" type="translate" dur="10s" repeatCount="indefinite" keyTimes="0;0.5;1" calcMode="spline" keySplines="0.5 0 0.5 1;0.5 0 0.5 1" values="-36.63755484062527;0;-36.63755484062527" begin="-0.6382978723404255s"></animateTransform>
</path><path d="M718.8525598130691 29.5 L736.5949775752255 29.5 A15 15 0 0 1 736.5949775752255 60.5 L718.8525598130691 60.5 A15 15 0 0 1 718.8525598130691 29.5" fill="#fff">
  <animateTransform attributeName="transform" type="translate" dur="3.3333333333333335s" repeatCount="indefinite" keyTimes="0;1" values="0;0" begin="-0.6382978723404255s"></animateTransform>
  <animate attributeName="opacity" dur="3.3333333333333335s" repeatCount="indefinite" keyTimes="0;0.3;1" values="1;1;0" begin="-0.6382978723404255s"></animate>
</path><path d="M1700 59.5 L681.2001007717968 59.5 A15 15 0 0 1 681.2001007717968 90.5 L1700 90.5" fill="#fff">
  <animateTransform attributeName="transform" type="translate" dur="10s" repeatCount="indefinite" keyTimes="0;0.5;1" calcMode="spline" keySplines="0.5 0 0.5 1;0.5 0 0.5 1" values="35.79343920738471;0;35.79343920738471" begin="-1.276595744680851s"></animateTransform>
</path><path d="M1463.6015949227547 59.5 L1497.2031898455093 59.5 A15 15 0 0 1 1497.2031898455093 90.5 L1463.6015949227547 90.5 A15 15 0 0 1 1463.6015949227547 59.5" fill="#000">
  <animateTransform attributeName="transform" type="translate" dur="10s" repeatCount="indefinite" keyTimes="0;1" values="0;-1561.6769943193608" begin="-1.276595744680851s"></animateTransform>
  <animate attributeName="opacity" dur="10s" repeatCount="indefinite" keyTimes="0;0.3;1" values="1;1;0" begin="-1.276595744680851s"></animate>
</path><path d="M1700 89.5 L624.1566664991622 89.5 A15 15 0 0 0 624.1566664991622 120.5 L1700 120.5" fill="#fff">
  <animateTransform attributeName="transform" type="translate" dur="10s" repeatCount="indefinite" keyTimes="0;0.5;1" calcMode="spline" keySplines="0.5 0 0.5 1;0.5 0 0.5 1" values="-38.85185836220507;0;-38.85185836220507" begin="-1.9148936170212765s"></animateTransform>
</path><path d="M769.6829785419882 89.5 L790.7855511629203 89.5 A15 15 0 0 1 790.7855511629203 120.5 L769.6829785419882 120.5 A15 15 0 0 1 769.6829785419882 89.5" fill="#fff">
  <animateTransform attributeName="transform" type="translate" dur="3.3333333333333335s" repeatCount="indefinite" keyTimes="0;1" values="0;0" begin="-1.9148936170212765s"></animateTransform>
  <animate attributeName="opacity" dur="3.3333333333333335s" repeatCount="indefinite" keyTimes="0;0.3;1" values="1;1;0" begin="-1.9148936170212765s"></animate>
</path><path d="M1700 119.5 L679.6790059722545 119.5 A15 15 0 0 1 679.6790059722545 150.5 L1700 150.5" fill="#fff">
  <animateTransform attributeName="transform" type="translate" dur="10s" repeatCount="indefinite" keyTimes="0;0.5;1" calcMode="spline" keySplines="0.5 0 0.5 1;0.5 0 0.5 1" values="27.081791876140148;0;27.081791876140148" begin="-2.553191489361702s"></animateTransform>
</path><path d="M1469.676733402836 119.5 L1509.3534668056718 119.5 A15 15 0 0 1 1509.3534668056718 150.5 L1469.676733402836 150.5 A15 15 0 0 1 1469.676733402836 119.5" fill="#000">
  <animateTransform attributeName="transform" type="translate" dur="10s" repeatCount="indefinite" keyTimes="0;1" values="0;-1717.0368679145943" begin="-2.553191489361702s"></animateTransform>
  <animate attributeName="opacity" dur="10s" repeatCount="indefinite" keyTimes="0;0.3;1" values="1;1;0" begin="-2.553191489361702s"></animate>
</path><path d="M1700 149.5 L640.8303745333549 149.5 A15 15 0 0 0 640.8303745333549 180.5 L1700 180.5" fill="#fff">
  <animateTransform attributeName="transform" type="translate" dur="5s" repeatCount="indefinite" keyTimes="0;0.5;1" calcMode="spline" keySplines="0.5 0 0.5 1;0.5 0 0.5 1" values="-30.749713381325762;0;-30.749713381325762" begin="-3.1914893617021276s"></animateTransform>
</path><path d="M749.5718298059985 149.5 L777.1671049936273 149.5 A15 15 0 0 1 777.1671049936273 180.5 L749.5718298059985 180.5 A15 15 0 0 1 749.5718298059985 149.5" fill="#fff">
  <animateTransform attributeName="transform" type="translate" dur="3.3333333333333335s" repeatCount="indefinite" keyTimes="0;1" values="0;0" begin="-3.1914893617021276s"></animateTransform>
  <animate attributeName="opacity" dur="3.3333333333333335s" repeatCount="indefinite" keyTimes="0;0.3;1" values="1;1;0" begin="-3.1914893617021276s"></animate>
</path><path d="M1700 179.5 L679.5081822929205 179.5 A15 15 0 0 1 679.5081822929205 210.5 L1700 210.5" fill="#fff">
  <animateTransform attributeName="transform" type="translate" dur="10s" repeatCount="indefinite" keyTimes="0;0.5;1" calcMode="spline" keySplines="0.5 0 0.5 1;0.5 0 0.5 1" values="37.305580949592134;0;37.305580949592134" begin="-3.829787234042553s"></animateTransform>
</path><path d="M1457.7878620268234 179.5 L1485.5757240536468 179.5 A15 15 0 0 1 1485.5757240536468 210.5 L1457.7878620268234 210.5 A15 15 0 0 1 1457.7878620268234 179.5" fill="#000">
  <animateTransform attributeName="transform" type="translate" dur="5s" repeatCount="indefinite" keyTimes="0;1" values="0;-1367.9719104289109" begin="-3.829787234042553s"></animateTransform>
  <animate attributeName="opacity" dur="5s" repeatCount="indefinite" keyTimes="0;0.3;1" values="1;1;0" begin="-3.829787234042553s"></animate>
</path><path d="M1700 209.5 L641.5585150868103 209.5 A15 15 0 0 0 641.5585150868103 240.5 L1700 240.5" fill="#fff">
  <animateTransform attributeName="transform" type="translate" dur="5s" repeatCount="indefinite" keyTimes="0;0.5;1" calcMode="spline" keySplines="0.5 0 0.5 1;0.5 0 0.5 1" values="-28.353094686375712;0;-28.353094686375712" begin="-4.468085106382978s"></animateTransform>
</path><path d="M710.7522855072157 209.5 L724.8799320176652 209.5 A15 15 0 0 1 724.8799320176652 240.5 L710.7522855072157 240.5 A15 15 0 0 1 710.7522855072157 209.5" fill="#fff">
  <animateTransform attributeName="transform" type="translate" dur="3.3333333333333335s" repeatCount="indefinite" keyTimes="0;1" values="0;0" begin="-4.468085106382978s"></animateTransform>
  <animate attributeName="opacity" dur="3.3333333333333335s" repeatCount="indefinite" keyTimes="0;0.3;1" values="1;1;0" begin="-4.468085106382978s"></animate>
</path><path d="M1700 239.5 L673.7102836635113 239.5 A15 15 0 0 1 673.7102836635113 270.5 L1700 270.5" fill="#fff">
  <animateTransform attributeName="transform" type="translate" dur="10s" repeatCount="indefinite" keyTimes="0;0.5;1" calcMode="spline" keySplines="0.5 0 0.5 1;0.5 0 0.5 1" values="49.695148424644366;0;49.695148424644366" begin="-5.106382978723404s"></animateTransform>
</path><path d="M1462.447561513345 239.5 L1494.8951230266898 239.5 A15 15 0 0 1 1494.8951230266898 270.5 L1462.447561513345 270.5 A15 15 0 0 1 1462.447561513345 239.5" fill="#000">
  <animateTransform attributeName="transform" type="translate" dur="3.3333333333333335s" repeatCount="indefinite" keyTimes="0;1" values="0;-1161.207381705884" begin="-5.106382978723404s"></animateTransform>
  <animate attributeName="opacity" dur="3.3333333333333335s" repeatCount="indefinite" keyTimes="0;0.3;1" values="1;1;0" begin="-5.106382978723404s"></animate>
</path><path d="M1700 269.5 L613.7118744563631 269.5 A15 15 0 0 0 613.7118744563631 300.5 L1700 300.5" fill="#fff">
  <animateTransform attributeName="transform" type="translate" dur="5s" repeatCount="indefinite" keyTimes="0;0.5;1" calcMode="spline" keySplines="0.5 0 0.5 1;0.5 0 0.5 1" values="-41.34183899282312;0;-41.34183899282312" begin="-5.74468085106383s"></animateTransform>
</path><path d="M756.9398229522894 269.5 L794.8401563210925 269.5 A15 15 0 0 1 794.8401563210925 300.5 L756.9398229522894 300.5 A15 15 0 0 1 756.9398229522894 269.5" fill="#fff">
  <animateTransform attributeName="transform" type="translate" dur="3.3333333333333335s" repeatCount="indefinite" keyTimes="0;1" values="0;0" begin="-5.74468085106383s"></animateTransform>
  <animate attributeName="opacity" dur="3.3333333333333335s" repeatCount="indefinite" keyTimes="0;0.3;1" values="1;1;0" begin="-5.74468085106383s"></animate>
</path><path d="M1700 299.5 L655.5698365446759 299.5 A15 15 0 0 1 655.5698365446759 330.5 L1700 330.5" fill="#fff">
  <animateTransform attributeName="transform" type="translate" dur="3.3333333333333335s" repeatCount="indefinite" keyTimes="0;0.5;1" calcMode="spline" keySplines="0.5 0 0.5 1;0.5 0 0.5 1" values="47.50199864209887;0;47.50199864209887" begin="-6.382978723404255s"></animateTransform>
</path><path d="M1469.452132127448 299.5 L1508.9042642548961 299.5 A15 15 0 0 1 1508.9042642548961 330.5 L1469.452132127448 330.5 A15 15 0 0 1 1469.452132127448 299.5" fill="#000">
  <animateTransform attributeName="transform" type="translate" dur="5s" repeatCount="indefinite" keyTimes="0;1" values="0;-1415.495529615175" begin="-6.382978723404255s"></animateTransform>
  <animate attributeName="opacity" dur="5s" repeatCount="indefinite" keyTimes="0;0.3;1" values="1;1;0" begin="-6.382978723404255s"></animate>
</path><path d="M1700 329.5 L613.6386485532408 329.5 A15 15 0 0 0 613.6386485532408 360.5 L1700 360.5" fill="#fff">
  <animateTransform attributeName="transform" type="translate" dur="3.3333333333333335s" repeatCount="indefinite" keyTimes="0;0.5;1" calcMode="spline" keySplines="0.5 0 0.5 1;0.5 0 0.5 1" values="-45.649898017275106;0;-45.649898017275106" begin="-7.0212765957446805s"></animateTransform>
</path><path d="M710.0808403670461 329.5 L729.6195963829997 329.5 A15 15 0 0 1 729.6195963829997 360.5 L710.0808403670461 360.5 A15 15 0 0 1 710.0808403670461 329.5" fill="#fff">
  <animateTransform attributeName="transform" type="translate" dur="5s" repeatCount="indefinite" keyTimes="0;1" values="0;0" begin="-7.0212765957446805s"></animateTransform>
  <animate attributeName="opacity" dur="5s" repeatCount="indefinite" keyTimes="0;0.3;1" values="1;1;0" begin="-7.0212765957446805s"></animate>
</path><path d="M1700 359.5 L671.8685770619514 359.5 A15 15 0 0 1 671.8685770619514 390.5 L1700 390.5" fill="#fff">
  <animateTransform attributeName="transform" type="translate" dur="3.3333333333333335s" repeatCount="indefinite" keyTimes="0;0.5;1" calcMode="spline" keySplines="0.5 0 0.5 1;0.5 0 0.5 1" values="40.40655012992611;0;40.40655012992611" begin="-7.659574468085106s"></animateTransform>
</path><path d="M1461.3102860697334 359.5 L1492.6205721394667 359.5 A15 15 0 0 1 1492.6205721394667 390.5 L1461.3102860697334 390.5 A15 15 0 0 1 1461.3102860697334 359.5" fill="#000">
  <animateTransform attributeName="transform" type="translate" dur="5s" repeatCount="indefinite" keyTimes="0;1" values="0;-1663.761278925088" begin="-7.659574468085106s"></animateTransform>
  <animate attributeName="opacity" dur="5s" repeatCount="indefinite" keyTimes="0;0.3;1" values="1;1;0" begin="-7.659574468085106s"></animate>
</path><path d="M1700 389.5 L640.1531403973346 389.5 A15 15 0 0 0 640.1531403973346 420.5 L1700 420.5" fill="#fff">
  <animateTransform attributeName="transform" type="translate" dur="10s" repeatCount="indefinite" keyTimes="0;0.5;1" calcMode="spline" keySplines="0.5 0 0.5 1;0.5 0 0.5 1" values="-44.18522841425255;0;-44.18522841425255" begin="-8.297872340425531s"></animateTransform>
</path><path d="M729.4397202375254 389.5 L748.8639355561719 389.5 A15 15 0 0 1 748.8639355561719 420.5 L729.4397202375254 420.5 A15 15 0 0 1 729.4397202375254 389.5" fill="#fff">
  <animateTransform attributeName="transform" type="translate" dur="5s" repeatCount="indefinite" keyTimes="0;1" values="0;0" begin="-8.297872340425531s"></animateTransform>
  <animate attributeName="opacity" dur="5s" repeatCount="indefinite" keyTimes="0;0.3;1" values="1;1;0" begin="-8.297872340425531s"></animate>
</path><path d="M1700 419.5 L672.0480056028891 419.5 A15 15 0 0 1 672.0480056028891 450.5 L1700 450.5" fill="#fff">
  <animateTransform attributeName="transform" type="translate" dur="5s" repeatCount="indefinite" keyTimes="0;0.5;1" calcMode="spline" keySplines="0.5 0 0.5 1;0.5 0 0.5 1" values="34.082318364905454;0;34.082318364905454" begin="-8.936170212765957s"></animateTransform>
</path><path d="M1466.8906379701305 419.5 L1503.781275940261 419.5 A15 15 0 0 1 1503.781275940261 450.5 L1466.8906379701305 450.5 A15 15 0 0 1 1466.8906379701305 419.5" fill="#000">
  <animateTransform attributeName="transform" type="translate" dur="10s" repeatCount="indefinite" keyTimes="0;1" values="0;-1485.5529094558901" begin="-8.936170212765957s"></animateTransform>
  <animate attributeName="opacity" dur="10s" repeatCount="indefinite" keyTimes="0;0.3;1" values="1;1;0" begin="-8.936170212765957s"></animate>
</path><path d="M1700 449.5 L638.2787034474336 449.5 A15 15 0 0 0 638.2787034474336 480.5 L1700 480.5" fill="#fff">
  <animateTransform attributeName="transform" type="translate" dur="5s" repeatCount="indefinite" keyTimes="0;0.5;1" calcMode="spline" keySplines="0.5 0 0.5 1;0.5 0 0.5 1" values="-30.23739247725963;0;-30.23739247725963" begin="-9.574468085106384s"></animateTransform>
</path><path d="M699.665961337701 449.5 L718.8861993337023 449.5 A15 15 0 0 1 718.8861993337023 480.5 L699.665961337701 480.5 A15 15 0 0 1 699.665961337701 449.5" fill="#fff">
  <animateTransform attributeName="transform" type="translate" dur="10s" repeatCount="indefinite" keyTimes="0;1" values="0;0" begin="-9.574468085106384s"></animateTransform>
  <animate attributeName="opacity" dur="10s" repeatCount="indefinite" keyTimes="0;0.3;1" values="1;1;0" begin="-9.574468085106384s"></animate>
</path><path d="M1700 479.5 L673.3330457097026 479.5 A15 15 0 0 1 673.3330457097026 510.5 L1700 510.5" fill="#fff">
  <animateTransform attributeName="transform" type="translate" dur="3.3333333333333335s" repeatCount="indefinite" keyTimes="0;0.5;1" calcMode="spline" keySplines="0.5 0 0.5 1;0.5 0 0.5 1" values="25.957431006549736;0;25.957431006549736" begin="-10.212765957446807s"></animateTransform>
</path><path d="M1451.5866020530812 479.5 L1473.1732041061623 479.5 A15 15 0 0 1 1473.1732041061623 510.5 L1451.5866020530812 510.5 A15 15 0 0 1 1451.5866020530812 479.5" fill="#000">
  <animateTransform attributeName="transform" type="translate" dur="10s" repeatCount="indefinite" keyTimes="0;1" values="0;-1681.6683398616028" begin="-10.212765957446807s"></animateTransform>
  <animate attributeName="opacity" dur="10s" repeatCount="indefinite" keyTimes="0;0.3;1" values="1;1;0" begin="-10.212765957446807s"></animate>
</path><path d="M1700 509.5 L645.477943838155 509.5 A15 15 0 0 0 645.477943838155 540.5 L1700 540.5" fill="#fff">
  <animateTransform attributeName="transform" type="translate" dur="3.3333333333333335s" repeatCount="indefinite" keyTimes="0;0.5;1" calcMode="spline" keySplines="0.5 0 0.5 1;0.5 0 0.5 1" values="-35.519635234201054;0;-35.519635234201054" begin="-10.851063829787236s"></animateTransform>
</path><path d="M700.1711096902217 509.5 L720.4156016114971 509.5 A15 15 0 0 1 720.4156016114971 540.5 L700.1711096902217 540.5 A15 15 0 0 1 700.1711096902217 509.5" fill="#fff">
  <animateTransform attributeName="transform" type="translate" dur="10s" repeatCount="indefinite" keyTimes="0;1" values="0;0" begin="-10.851063829787236s"></animateTransform>
  <animate attributeName="opacity" dur="10s" repeatCount="indefinite" keyTimes="0;0.3;1" values="1;1;0" begin="-10.851063829787236s"></animate>
</path><path d="M1700 539.5 L689.408790555995 539.5 A15 15 0 0 1 689.408790555995 570.5 L1700 570.5" fill="#fff">
  <animateTransform attributeName="transform" type="translate" dur="5s" repeatCount="indefinite" keyTimes="0;0.5;1" calcMode="spline" keySplines="0.5 0 0.5 1;0.5 0 0.5 1" values="48.57808710102461;0;48.57808710102461" begin="-11.48936170212766s"></animateTransform>
</path><path d="M1446.4815280100183 539.5 L1462.9630560200367 539.5 A15 15 0 0 1 1462.9630560200367 570.5 L1446.4815280100183 570.5 A15 15 0 0 1 1446.4815280100183 539.5" fill="#000">
  <animateTransform attributeName="transform" type="translate" dur="5s" repeatCount="indefinite" keyTimes="0;1" values="0;-1625.6773694092349" begin="-11.48936170212766s"></animateTransform>
  <animate attributeName="opacity" dur="5s" repeatCount="indefinite" keyTimes="0;0.3;1" values="1;1;0" begin="-11.48936170212766s"></animate>
</path><path d="M1700 569.5 L657.5753345805498 569.5 A15 15 0 0 0 657.5753345805498 600.5 L1700 600.5" fill="#fff">
  <animateTransform attributeName="transform" type="translate" dur="10s" repeatCount="indefinite" keyTimes="0;0.5;1" calcMode="spline" keySplines="0.5 0 0.5 1;0.5 0 0.5 1" values="-34.26566204261271;0;-34.26566204261271" begin="-12.127659574468083s"></animateTransform>
</path><path d="M724.0838059282315 569.5 L759.4753789270096 569.5 A15 15 0 0 1 759.4753789270096 600.5 L724.0838059282315 600.5 A15 15 0 0 1 724.0838059282315 569.5" fill="#fff">
  <animateTransform attributeName="transform" type="translate" dur="5s" repeatCount="indefinite" keyTimes="0;1" values="0;0" begin="-12.127659574468083s"></animateTransform>
  <animate attributeName="opacity" dur="5s" repeatCount="indefinite" keyTimes="0;0.3;1" values="1;1;0" begin="-12.127659574468083s"></animate>
</path><path d="M1700 599.5 L673.0339441616674 599.5 A15 15 0 0 1 673.0339441616674 630.5 L1700 630.5" fill="#fff">
  <animateTransform attributeName="transform" type="translate" dur="10s" repeatCount="indefinite" keyTimes="0;0.5;1" calcMode="spline" keySplines="0.5 0 0.5 1;0.5 0 0.5 1" values="26.386248492304254;0;26.386248492304254" begin="-12.76595744680851s"></animateTransform>
</path><path d="M1452.1182489612095 599.5 L1474.236497922419 599.5 A15 15 0 0 1 1474.236497922419 630.5 L1452.1182489612095 630.5 A15 15 0 0 1 1452.1182489612095 599.5" fill="#000">
  <animateTransform attributeName="transform" type="translate" dur="3.3333333333333335s" repeatCount="indefinite" keyTimes="0;1" values="0;-1656.7491837241173" begin="-12.76595744680851s"></animateTransform>
  <animate attributeName="opacity" dur="3.3333333333333335s" repeatCount="indefinite" keyTimes="0;0.3;1" values="1;1;0" begin="-12.76595744680851s"></animate>
</path><path d="M1700 629.5 L655.3637812431846 629.5 A15 15 0 0 0 655.3637812431846 660.5 L1700 660.5" fill="#fff">
  <animateTransform attributeName="transform" type="translate" dur="10s" repeatCount="indefinite" keyTimes="0;0.5;1" calcMode="spline" keySplines="0.5 0 0.5 1;0.5 0 0.5 1" values="-38.311122864889235;0;-38.311122864889235" begin="-13.404255319148938s"></animateTransform>
</path><path d="M743.5656655428056 629.5 L766.0208892660509 629.5 A15 15 0 0 1 766.0208892660509 660.5 L743.5656655428056 660.5 A15 15 0 0 1 743.5656655428056 629.5" fill="#fff">
  <animateTransform attributeName="transform" type="translate" dur="5s" repeatCount="indefinite" keyTimes="0;1" values="0;0" begin="-13.404255319148938s"></animateTransform>
  <animate attributeName="opacity" dur="5s" repeatCount="indefinite" keyTimes="0;0.3;1" values="1;1;0" begin="-13.404255319148938s"></animate>
</path><path d="M1700 659.5 L693.0548620179188 659.5 A15 15 0 0 1 693.0548620179188 690.5 L1700 690.5" fill="#fff">
  <animateTransform attributeName="transform" type="translate" dur="10s" repeatCount="indefinite" keyTimes="0;0.5;1" calcMode="spline" keySplines="0.5 0 0.5 1;0.5 0 0.5 1" values="27.56847812612081;0;27.56847812612081" begin="-14.042553191489361s"></animateTransform>
</path><path d="M1463.1640059031795 659.5 L1496.328011806359 659.5 A15 15 0 0 1 1496.328011806359 690.5 L1463.1640059031795 690.5 A15 15 0 0 1 1463.1640059031795 659.5" fill="#000">
  <animateTransform attributeName="transform" type="translate" dur="5s" repeatCount="indefinite" keyTimes="0;1" values="0;-1151.0731114051373" begin="-14.042553191489361s"></animateTransform>
  <animate attributeName="opacity" dur="5s" repeatCount="indefinite" keyTimes="0;0.3;1" values="1;1;0" begin="-14.042553191489361s"></animate>
</path><path d="M1700 689.5 L630.6170221530242 689.5 A15 15 0 0 0 630.6170221530242 720.5 L1700 720.5" fill="#fff">
  <animateTransform attributeName="transform" type="translate" dur="10s" repeatCount="indefinite" keyTimes="0;0.5;1" calcMode="spline" keySplines="0.5 0 0.5 1;0.5 0 0.5 1" values="-33.728050703924815;0;-33.728050703924815" begin="-14.680851063829788s"></animateTransform>
</path><path d="M766.442450184328 689.5 L786.7804431706403 689.5 A15 15 0 0 1 786.7804431706403 720.5 L766.442450184328 720.5 A15 15 0 0 1 766.442450184328 689.5" fill="#fff">
  <animateTransform attributeName="transform" type="translate" dur="3.3333333333333335s" repeatCount="indefinite" keyTimes="0;1" values="0;0" begin="-14.680851063829788s"></animateTransform>
  <animate attributeName="opacity" dur="3.3333333333333335s" repeatCount="indefinite" keyTimes="0;0.3;1" values="1;1;0" begin="-14.680851063829788s"></animate>
</path><path d="M1700 719.5 L696.791073713244 719.5 A15 15 0 0 1 696.791073713244 750.5 L1700 750.5" fill="#fff">
  <animateTransform attributeName="transform" type="translate" dur="5s" repeatCount="indefinite" keyTimes="0;0.5;1" calcMode="spline" keySplines="0.5 0 0.5 1;0.5 0 0.5 1" values="47.10308668060024;0;47.10308668060024" begin="-15.319148936170212s"></animateTransform>
</path><path d="M1444.5210837447362 719.5 L1459.0421674894724 719.5 A15 15 0 0 1 1459.0421674894724 750.5 L1444.5210837447362 750.5 A15 15 0 0 1 1444.5210837447362 719.5" fill="#000">
  <animateTransform attributeName="transform" type="translate" dur="3.3333333333333335s" repeatCount="indefinite" keyTimes="0;1" values="0;-1260.0918530570484" begin="-15.319148936170212s"></animateTransform>
  <animate attributeName="opacity" dur="3.3333333333333335s" repeatCount="indefinite" keyTimes="0;0.3;1" values="1;1;0" begin="-15.319148936170212s"></animate>
</path><path d="M1700 749.5 L627.1541726175932 749.5 A15 15 0 0 0 627.1541726175932 780.5 L1700 780.5" fill="#fff">
  <animateTransform attributeName="transform" type="translate" dur="5s" repeatCount="indefinite" keyTimes="0;0.5;1" calcMode="spline" keySplines="0.5 0 0.5 1;0.5 0 0.5 1" values="-36.46967781086524;0;-36.46967781086524" begin="-15.957446808510639s"></animateTransform>
</path><path d="M777.0725143778726 749.5 L813.753461391723 749.5 A15 15 0 0 1 813.753461391723 780.5 L777.0725143778726 780.5 A15 15 0 0 1 777.0725143778726 749.5" fill="#fff">
  <animateTransform attributeName="transform" type="translate" dur="5s" repeatCount="indefinite" keyTimes="0;1" values="0;0" begin="-15.957446808510639s"></animateTransform>
  <animate attributeName="opacity" dur="5s" repeatCount="indefinite" keyTimes="0;0.3;1" values="1;1;0" begin="-15.957446808510639s"></animate>
</path><path d="M1700 779.5 L686.8624301294852 779.5 A15 15 0 0 1 686.8624301294852 810.5 L1700 810.5" fill="#fff">
  <animateTransform attributeName="transform" type="translate" dur="5s" repeatCount="indefinite" keyTimes="0;0.5;1" calcMode="spline" keySplines="0.5 0 0.5 1;0.5 0 0.5 1" values="45.09040213051179;0;45.09040213051179" begin="-16.595744680851062s"></animateTransform>
</path><path d="M1442.0807110777607 779.5 L1454.1614221555214 779.5 A15 15 0 0 1 1454.1614221555214 810.5 L1442.0807110777607 810.5 A15 15 0 0 1 1442.0807110777607 779.5" fill="#000">
  <animateTransform attributeName="transform" type="translate" dur="10s" repeatCount="indefinite" keyTimes="0;1" values="0;-1713.5547618747178" begin="-16.595744680851062s"></animateTransform>
  <animate attributeName="opacity" dur="10s" repeatCount="indefinite" keyTimes="0;0.3;1" values="1;1;0" begin="-16.595744680851062s"></animate>
</path><path d="M1700 809.5 L667.1785008370948 809.5 A15 15 0 0 0 667.1785008370948 840.5 L1700 840.5" fill="#fff">
  <animateTransform attributeName="transform" type="translate" dur="10s" repeatCount="indefinite" keyTimes="0;0.5;1" calcMode="spline" keySplines="0.5 0 0.5 1;0.5 0 0.5 1" values="-40.78068616280204;0;-40.78068616280204" begin="-17.23404255319149s"></animateTransform>
</path><path d="M753.5297978952647 809.5 L773.1785355355568 809.5 A15 15 0 0 1 773.1785355355568 840.5 L753.5297978952647 840.5 A15 15 0 0 1 753.5297978952647 809.5" fill="#fff">
  <animateTransform attributeName="transform" type="translate" dur="5s" repeatCount="indefinite" keyTimes="0;1" values="0;0" begin="-17.23404255319149s"></animateTransform>
  <animate attributeName="opacity" dur="5s" repeatCount="indefinite" keyTimes="0;0.3;1" values="1;1;0" begin="-17.23404255319149s"></animate>
</path><path d="M1700 839.5 L689.443289337074 839.5 A15 15 0 0 1 689.443289337074 870.5 L1700 870.5" fill="#fff">
  <animateTransform attributeName="transform" type="translate" dur="3.3333333333333335s" repeatCount="indefinite" keyTimes="0;0.5;1" calcMode="spline" keySplines="0.5 0 0.5 1;0.5 0 0.5 1" values="37.17347039144227;0;37.17347039144227" begin="-17.872340425531913s"></animateTransform>
</path><path d="M1465.4492534837816 839.5 L1500.8985069675632 839.5 A15 15 0 0 1 1500.8985069675632 870.5 L1465.4492534837816 870.5 A15 15 0 0 1 1465.4492534837816 839.5" fill="#000">
  <animateTransform attributeName="transform" type="translate" dur="10s" repeatCount="indefinite" keyTimes="0;1" values="0;-1682.6017974288807" begin="-17.872340425531913s"></animateTransform>
  <animate attributeName="opacity" dur="10s" repeatCount="indefinite" keyTimes="0;0.3;1" values="1;1;0" begin="-17.872340425531913s"></animate>
</path><path d="M1700 869.5 L681.5999637205804 869.5 A15 15 0 0 0 681.5999637205804 900.5 L1700 900.5" fill="#fff">
  <animateTransform attributeName="transform" type="translate" dur="3.3333333333333335s" repeatCount="indefinite" keyTimes="0;0.5;1" calcMode="spline" keySplines="0.5 0 0.5 1;0.5 0 0.5 1" values="-43.35994275148414;0;-43.35994275148414" begin="-18.51063829787234s"></animateTransform>
</path><path d="M769.484573278288 869.5 L807.7875885415276 869.5 A15 15 0 0 1 807.7875885415276 900.5 L769.484573278288 900.5 A15 15 0 0 1 769.484573278288 869.5" fill="#fff">
  <animateTransform attributeName="transform" type="translate" dur="5s" repeatCount="indefinite" keyTimes="0;1" values="0;0" begin="-18.51063829787234s"></animateTransform>
  <animate attributeName="opacity" dur="5s" repeatCount="indefinite" keyTimes="0;0.3;1" values="1;1;0" begin="-18.51063829787234s"></animate>
</path><path d="M1700 899.5 L725.9766756728541 899.5 A15 15 0 0 1 725.9766756728541 930.5 L1700 930.5" fill="#fff">
  <animateTransform attributeName="transform" type="translate" dur="5s" repeatCount="indefinite" keyTimes="0;0.5;1" calcMode="spline" keySplines="0.5 0 0.5 1;0.5 0 0.5 1" values="28.39427502559621;0;28.39427502559621" begin="-19.148936170212767s"></animateTransform>
</path><path d="M1466.6854069252097 899.5 L1503.3708138504194 899.5 A15 15 0 0 1 1503.3708138504194 930.5 L1466.6854069252097 930.5 A15 15 0 0 1 1466.6854069252097 899.5" fill="#000">
  <animateTransform attributeName="transform" type="translate" dur="5s" repeatCount="indefinite" keyTimes="0;1" values="0;-1710.2579108755222" begin="-19.148936170212767s"></animateTransform>
  <animate attributeName="opacity" dur="5s" repeatCount="indefinite" keyTimes="0;0.3;1" values="1;1;0" begin="-19.148936170212767s"></animate>
</path><path d="M1700 929.5 L665.956464534408 929.5 A15 15 0 0 0 665.956464534408 960.5 L1700 960.5" fill="#fff">
  <animateTransform attributeName="transform" type="translate" dur="5s" repeatCount="indefinite" keyTimes="0;0.5;1" calcMode="spline" keySplines="0.5 0 0.5 1;0.5 0 0.5 1" values="-36.21473368673479;0;-36.21473368673479" begin="-19.78723404255319s"></animateTransform>
</path><path d="M795.3394518345578 929.5 L835.0142504153794 929.5 A15 15 0 0 1 835.0142504153794 960.5 L795.3394518345578 960.5 A15 15 0 0 1 795.3394518345578 929.5" fill="#fff">
  <animateTransform attributeName="transform" type="translate" dur="3.3333333333333335s" repeatCount="indefinite" keyTimes="0;1" values="0;0" begin="-19.78723404255319s"></animateTransform>
  <animate attributeName="opacity" dur="3.3333333333333335s" repeatCount="indefinite" keyTimes="0;0.3;1" values="1;1;0" begin="-19.78723404255319s"></animate>
</path><path d="M1700 959.5 L720.971451053178 959.5 A15 15 0 0 1 720.971451053178 990.5 L1700 990.5" fill="#fff">
  <animateTransform attributeName="transform" type="translate" dur="10s" repeatCount="indefinite" keyTimes="0;0.5;1" calcMode="spline" keySplines="0.5 0 0.5 1;0.5 0 0.5 1" values="36.6209198282292;0;36.6209198282292" begin="-20.425531914893615s"></animateTransform>
</path><path d="M1467.5965751112594 959.5 L1505.1931502225189 959.5 A15 15 0 0 1 1505.1931502225189 990.5 L1467.5965751112594 990.5 A15 15 0 0 1 1467.5965751112594 959.5" fill="#000">
  <animateTransform attributeName="transform" type="translate" dur="5s" repeatCount="indefinite" keyTimes="0;1" values="0;-1632.1265206345697" begin="-20.425531914893615s"></animateTransform>
  <animate attributeName="opacity" dur="5s" repeatCount="indefinite" keyTimes="0;0.3;1" values="1;1;0" begin="-20.425531914893615s"></animate>
</path><path d="M1700 989.5 L696.0982784407186 989.5 A15 15 0 0 0 696.0982784407186 1020.5 L1700 1020.5" fill="#fff">
  <animateTransform attributeName="transform" type="translate" dur="3.3333333333333335s" repeatCount="indefinite" keyTimes="0;0.5;1" calcMode="spline" keySplines="0.5 0 0.5 1;0.5 0 0.5 1" values="-40.98935922253689;0;-40.98935922253689" begin="-21.063829787234045s"></animateTransform>
</path><path d="M777.0194927417131 989.5 L789.4623435203911 989.5 A15 15 0 0 1 789.4623435203911 1020.5 L777.0194927417131 1020.5 A15 15 0 0 1 777.0194927417131 989.5" fill="#fff">
  <animateTransform attributeName="transform" type="translate" dur="3.3333333333333335s" repeatCount="indefinite" keyTimes="0;1" values="0;0" begin="-21.063829787234045s"></animateTransform>
  <animate attributeName="opacity" dur="3.3333333333333335s" repeatCount="indefinite" keyTimes="0;0.3;1" values="1;1;0" begin="-21.063829787234045s"></animate>
</path><path d="M1700 1019.5 L713.9985650291354 1019.5 A15 15 0 0 1 713.9985650291354 1050.5 L1700 1050.5" fill="#fff">
  <animateTransform attributeName="transform" type="translate" dur="3.3333333333333335s" repeatCount="indefinite" keyTimes="0;0.5;1" calcMode="spline" keySplines="0.5 0 0.5 1;0.5 0 0.5 1" values="29.841074187921613;0;29.841074187921613" begin="-21.702127659574472s"></animateTransform>
</path><path d="M1463.0871106979016 1019.5 L1496.1742213958032 1019.5 A15 15 0 0 1 1496.1742213958032 1050.5 L1463.0871106979016 1050.5 A15 15 0 0 1 1463.0871106979016 1019.5" fill="#000">
  <animateTransform attributeName="transform" type="translate" dur="5s" repeatCount="indefinite" keyTimes="0;1" values="0;-1290.9179593329782" begin="-21.702127659574472s"></animateTransform>
  <animate attributeName="opacity" dur="5s" repeatCount="indefinite" keyTimes="0;0.3;1" values="1;1;0" begin="-21.702127659574472s"></animate>
</path><path d="M1700 1049.5 L681.2728862505121 1049.5 A15 15 0 0 0 681.2728862505121 1080.5 L1700 1080.5" fill="#fff">
  <animateTransform attributeName="transform" type="translate" dur="5s" repeatCount="indefinite" keyTimes="0;0.5;1" calcMode="spline" keySplines="0.5 0 0.5 1;0.5 0 0.5 1" values="-47.88981532919959;0;-47.88981532919959" begin="-22.340425531914892s"></animateTransform>
</path><path d="M807.1257661233076 1049.5 L843.6085725553851 1049.5 A15 15 0 0 1 843.6085725553851 1080.5 L807.1257661233076 1080.5 A15 15 0 0 1 807.1257661233076 1049.5" fill="#fff">
  <animateTransform attributeName="transform" type="translate" dur="10s" repeatCount="indefinite" keyTimes="0;1" values="0;0" begin="-22.340425531914892s"></animateTransform>
  <animate attributeName="opacity" dur="10s" repeatCount="indefinite" keyTimes="0;0.3;1" values="1;1;0" begin="-22.340425531914892s"></animate>
</path><path d="M1700 1079.5 L719.1804202002846 1079.5 A15 15 0 0 1 719.1804202002846 1110.5 L1700 1110.5" fill="#fff">
  <animateTransform attributeName="transform" type="translate" dur="10s" repeatCount="indefinite" keyTimes="0;0.5;1" calcMode="spline" keySplines="0.5 0 0.5 1;0.5 0 0.5 1" values="36.38405724422566;0;36.38405724422566" begin="-22.97872340425532s"></animateTransform>
</path><path d="M1445.7977138544627 1079.5 L1461.5954277089254 1079.5 A15 15 0 0 1 1461.5954277089254 1110.5 L1445.7977138544627 1110.5 A15 15 0 0 1 1445.7977138544627 1079.5" fill="#000">
  <animateTransform attributeName="transform" type="translate" dur="3.3333333333333335s" repeatCount="indefinite" keyTimes="0;1" values="0;-1414.1546012428946" begin="-22.97872340425532s"></animateTransform>
  <animate attributeName="opacity" dur="3.3333333333333335s" repeatCount="indefinite" keyTimes="0;0.3;1" values="1;1;0" begin="-22.97872340425532s"></animate>
</path><path d="M1700 1109.5 L675.6647261896144 1109.5 A15 15 0 0 0 675.6647261896144 1140.5 L1700 1140.5" fill="#fff">
  <animateTransform attributeName="transform" type="translate" dur="5s" repeatCount="indefinite" keyTimes="0;0.5;1" calcMode="spline" keySplines="0.5 0 0.5 1;0.5 0 0.5 1" values="-42.51559383677365;0;-42.51559383677365" begin="-23.617021276595747s"></animateTransform>
</path><path d="M795.9308189351082 1109.5 L827.962834722284 1109.5 A15 15 0 0 1 827.962834722284 1140.5 L795.9308189351082 1140.5 A15 15 0 0 1 795.9308189351082 1109.5" fill="#fff">
  <animateTransform attributeName="transform" type="translate" dur="10s" repeatCount="indefinite" keyTimes="0;1" values="0;0" begin="-23.617021276595747s"></animateTransform>
  <animate attributeName="opacity" dur="10s" repeatCount="indefinite" keyTimes="0;0.3;1" values="1;1;0" begin="-23.617021276595747s"></animate>
</path><path d="M1700 1139.5 L733.323234507293 1139.5 A15 15 0 0 1 733.323234507293 1170.5 L1700 1170.5" fill="#fff">
  <animateTransform attributeName="transform" type="translate" dur="5s" repeatCount="indefinite" keyTimes="0;0.5;1" calcMode="spline" keySplines="0.5 0 0.5 1;0.5 0 0.5 1" values="39.646608534074275;0;39.646608534074275" begin="-24.255319148936167s"></animateTransform>
</path><path d="M1456.7248956544895 1139.5 L1483.449791308979 1139.5 A15 15 0 0 1 1483.449791308979 1170.5 L1456.7248956544895 1170.5 A15 15 0 0 1 1456.7248956544895 1139.5" fill="#000">
  <animateTransform attributeName="transform" type="translate" dur="3.3333333333333335s" repeatCount="indefinite" keyTimes="0;1" values="0;-1495.485941113897" begin="-24.255319148936167s"></animateTransform>
  <animate attributeName="opacity" dur="3.3333333333333335s" repeatCount="indefinite" keyTimes="0;0.3;1" values="1;1;0" begin="-24.255319148936167s"></animate>
</path><path d="M1700 1169.5 L662.1105204085094 1169.5 A15 15 0 0 0 662.1105204085094 1200.5 L1700 1200.5" fill="#fff">
  <animateTransform attributeName="transform" type="translate" dur="3.3333333333333335s" repeatCount="indefinite" keyTimes="0;0.5;1" calcMode="spline" keySplines="0.5 0 0.5 1;0.5 0 0.5 1" values="-28.76462153078502;0;-28.76462153078502" begin="-24.893617021276597s"></animateTransform>
</path><path d="M774.2792280658472 1169.5 L813.7471680151394 1169.5 A15 15 0 0 1 813.7471680151394 1200.5 L774.2792280658472 1200.5 A15 15 0 0 1 774.2792280658472 1169.5" fill="#fff">
  <animateTransform attributeName="transform" type="translate" dur="5s" repeatCount="indefinite" keyTimes="0;1" values="0;0" begin="-24.893617021276597s"></animateTransform>
  <animate attributeName="opacity" dur="5s" repeatCount="indefinite" keyTimes="0;0.3;1" values="1;1;0" begin="-24.893617021276597s"></animate>
</path><path d="M1700 1199.5 L719.5623157592797 1199.5 A15 15 0 0 1 719.5623157592797 1230.5 L1700 1230.5" fill="#fff">
  <animateTransform attributeName="transform" type="translate" dur="5s" repeatCount="indefinite" keyTimes="0;0.5;1" calcMode="spline" keySplines="0.5 0 0.5 1;0.5 0 0.5 1" values="25.578926094398195;0;25.578926094398195" begin="-25.53191489361702s"></animateTransform>
</path><path d="M1466.38262439662 1199.5 L1502.76524879324 1199.5 A15 15 0 0 1 1502.76524879324 1230.5 L1466.38262439662 1230.5 A15 15 0 0 1 1466.38262439662 1199.5" fill="#000">
  <animateTransform attributeName="transform" type="translate" dur="3.3333333333333335s" repeatCount="indefinite" keyTimes="0;1" values="0;-1288.1215164919224" begin="-25.53191489361702s"></animateTransform>
  <animate attributeName="opacity" dur="3.3333333333333335s" repeatCount="indefinite" keyTimes="0;0.3;1" values="1;1;0" begin="-25.53191489361702s"></animate>
</path><path d="M1700 1229.5 L697.338025451454 1229.5 A15 15 0 0 0 697.338025451454 1260.5 L1700 1260.5" fill="#fff">
  <animateTransform attributeName="transform" type="translate" dur="5s" repeatCount="indefinite" keyTimes="0;0.5;1" calcMode="spline" keySplines="0.5 0 0.5 1;0.5 0 0.5 1" values="-47.278519320334;0;-47.278519320334" begin="-26.170212765957448s"></animateTransform>
</path><path d="M757.884849863926 1229.5 L793.2424914103102 1229.5 A15 15 0 0 1 793.2424914103102 1260.5 L757.884849863926 1260.5 A15 15 0 0 1 757.884849863926 1229.5" fill="#fff">
  <animateTransform attributeName="transform" type="translate" dur="3.3333333333333335s" repeatCount="indefinite" keyTimes="0;1" values="0;0" begin="-26.170212765957448s"></animateTransform>
  <animate attributeName="opacity" dur="3.3333333333333335s" repeatCount="indefinite" keyTimes="0;0.3;1" values="1;1;0" begin="-26.170212765957448s"></animate>
</path><path d="M1700 1259.5 L713.0407281878432 1259.5 A15 15 0 0 1 713.0407281878432 1290.5 L1700 1290.5" fill="#fff">
  <animateTransform attributeName="transform" type="translate" dur="10s" repeatCount="indefinite" keyTimes="0;0.5;1" calcMode="spline" keySplines="0.5 0 0.5 1;0.5 0 0.5 1" values="27.531854905076216;0;27.531854905076216" begin="-26.808510638297875s"></animateTransform>
</path><path d="M1444.2938025285669 1259.5 L1458.5876050571337 1259.5 A15 15 0 0 1 1458.5876050571337 1290.5 L1444.2938025285669 1290.5 A15 15 0 0 1 1444.2938025285669 1259.5" fill="#000">
  <animateTransform attributeName="transform" type="translate" dur="3.3333333333333335s" repeatCount="indefinite" keyTimes="0;1" values="0;-1628.7630390672093" begin="-26.808510638297875s"></animateTransform>
  <animate attributeName="opacity" dur="3.3333333333333335s" repeatCount="indefinite" keyTimes="0;0.3;1" values="1;1;0" begin="-26.808510638297875s"></animate>
</path><path d="M1700 1289.5 L658.2155889857208 1289.5 A15 15 0 0 0 658.2155889857208 1320.5 L1700 1320.5" fill="#fff">
  <animateTransform attributeName="transform" type="translate" dur="3.3333333333333335s" repeatCount="indefinite" keyTimes="0;0.5;1" calcMode="spline" keySplines="0.5 0 0.5 1;0.5 0 0.5 1" values="-28.253557450508875;0;-28.253557450508875" begin="-27.4468085106383s"></animateTransform>
</path><path d="M774.61742205933 1289.5 L814.3413623416764 1289.5 A15 15 0 0 1 814.3413623416764 1320.5 L774.61742205933 1320.5 A15 15 0 0 1 774.61742205933 1289.5" fill="#fff">
  <animateTransform attributeName="transform" type="translate" dur="5s" repeatCount="indefinite" keyTimes="0;1" values="0;0" begin="-27.4468085106383s"></animateTransform>
  <animate attributeName="opacity" dur="5s" repeatCount="indefinite" keyTimes="0;0.3;1" values="1;1;0" begin="-27.4468085106383s"></animate>
</path><path d="M1700 1319.5 L680.8464391487669 1319.5 A15 15 0 0 1 680.8464391487669 1350.5 L1700 1350.5" fill="#fff">
  <animateTransform attributeName="transform" type="translate" dur="10s" repeatCount="indefinite" keyTimes="0;0.5;1" calcMode="spline" keySplines="0.5 0 0.5 1;0.5 0 0.5 1" values="45.56161492724183;0;45.56161492724183" begin="-28.085106382978722s"></animateTransform>
</path><path d="M1458.1276308512463 1319.5 L1486.2552617024926 1319.5 A15 15 0 0 1 1486.2552617024926 1350.5 L1458.1276308512463 1350.5 A15 15 0 0 1 1458.1276308512463 1319.5" fill="#000">
  <animateTransform attributeName="transform" type="translate" dur="5s" repeatCount="indefinite" keyTimes="0;1" values="0;-1687.9692956864192" begin="-28.085106382978722s"></animateTransform>
  <animate attributeName="opacity" dur="5s" repeatCount="indefinite" keyTimes="0;0.3;1" values="1;1;0" begin="-28.085106382978722s"></animate>
</path><path d="M1700 1349.5 L635.4512179685618 1349.5 A15 15 0 0 0 635.4512179685618 1380.5 L1700 1380.5" fill="#fff">
  <animateTransform attributeName="transform" type="translate" dur="3.3333333333333335s" repeatCount="indefinite" keyTimes="0;0.5;1" calcMode="spline" keySplines="0.5 0 0.5 1;0.5 0 0.5 1" values="-40.525033767516945;0;-40.525033767516945" begin="-28.72340425531915s"></animateTransform>
</path><path d="M772.54542842946 1349.5 L801.081918743783 1349.5 A15 15 0 0 1 801.081918743783 1380.5 L772.54542842946 1380.5 A15 15 0 0 1 772.54542842946 1349.5" fill="#fff">
  <animateTransform attributeName="transform" type="translate" dur="10s" repeatCount="indefinite" keyTimes="0;1" values="0;0" begin="-28.72340425531915s"></animateTransform>
  <animate attributeName="opacity" dur="10s" repeatCount="indefinite" keyTimes="0;0.3;1" values="1;1;0" begin="-28.72340425531915s"></animate>
</path><path d="M1700 1379.5 L650.6899240099524 1379.5 A15 15 0 0 1 650.6899240099524 1410.5 L1700 1410.5" fill="#fff">
  <animateTransform attributeName="transform" type="translate" dur="3.3333333333333335s" repeatCount="indefinite" keyTimes="0;0.5;1" calcMode="spline" keySplines="0.5 0 0.5 1;0.5 0 0.5 1" values="31.21725352802629;0;31.21725352802629" begin="-29.361702127659576s"></animateTransform>
</path><path d="M1462.7027473311684 1379.5 L1495.4054946623369 1379.5 A15 15 0 0 1 1495.4054946623369 1410.5 L1462.7027473311684 1410.5 A15 15 0 0 1 1462.7027473311684 1379.5" fill="#000">
  <animateTransform attributeName="transform" type="translate" dur="5s" repeatCount="indefinite" keyTimes="0;1" values="0;-1710.748472185334" begin="-29.361702127659576s"></animateTransform>
  <animate attributeName="opacity" dur="5s" repeatCount="indefinite" keyTimes="0;0.3;1" values="1;1;0" begin="-29.361702127659576s"></animate>
</path>    </g>
  </mask>
</defs>
<rect x="0" y="0" width="1400" height="1400" fill="url(#ldbk-photon-g08vq25v2g8-lg)" mask="url(#ldbk-photon-g08vq25v2g8-mask)"></rect></g>
</svg>
