<svg xmlns="http://www.w3.org/2000/svg" viewBox="0 0 1400 1400">
<linearGradient id="SVGID_1_" gradientUnits="userSpaceOnUse" x1="700.3501" y1="557.15" x2="700.3501" y2="60.8" gradientTransform="matrix(1 0 0 -1 0 572)">
	<stop offset="0" style="stop-color:#383E45"/>
	<stop offset="1" style="stop-color:#3AADAA"/>
</linearGradient>
<path d="M1400.7,0H0v60.8c0,10.4,8.4,18.7,18.8,18.8h0.4c10.4,0,18.7-8.4,18.8-18.8v-7.5c0-10.4,8.4-18.7,18.8-18.8h0.4
	c10.4,0,18.7,8.4,18.8,18.8v40c0,10.4,8.4,18.7,18.8,18.8H95c10.4,0,18.7-8.4,18.8-18.8v-2.8c0-10.4,8.4-18.8,18.8-18.8h0.4
	c8.9,0,16.6,6.2,18.4,14.9v56c0,10.4,8.4,18.7,18.8,18.8h0.4c10.4,0,18.7-8.4,18.8-18.8l0.4-68.5c1.8-8.7,9.5-14.9,18.3-14.9h0.4
	c10.4,0,18.7,8.4,18.8,18.8v44.1c0,10.4,8.4,18.8,18.8,18.8h0.4c10.4,0,18.7-8.4,18.7-18.8v-15.6c0-10.4,8.4-18.7,18.8-18.8h0.4
	c10.4,0,18.7,8.4,18.8,18.8l0,0v48.8c0,10.4,8.4,18.8,18.8,18.8h0.4c10.4,0,18.7-8.4,18.8-18.8v-7.5c0-10.3,8.4-18.7,18.7-18.8h0.4
	c10.4,0,18.7,8.4,18.8,18.8v40c0,10.4,8.4,18.7,18.8,18.8h0.4c10.4,0,18.7-8.4,18.8-18.8V185c0-10.4,8.4-18.7,18.8-18.8h0.4
	c8.9,0,16.5,6.3,18.4,14.9v56c0,10.4,8.4,18.8,18.8,18.8h0.4c10.4,0,18.7-8.4,18.8-18.8l0.4-68.5c1.9-8.7,9.5-14.9,18.3-14.9h0.4
	c10.4,0,18.7,8.4,18.8,18.8v44.1c0,10.4,8.4,18.8,18.8,18.8h0.4c10.4,0,18.7-8.4,18.8-18.8V201c0-10.4,8.4-18.8,18.8-18.8h0.4
	c9.2,0,17,6.7,18.5,15.7l0.3,58c0,10.4,8.4,18.7,18.8,18.8h0.4c10.4,0,18.7-8.4,18.8-18.8v-56c1.8-8.7,9.5-14.9,18.3-14.9h0.4
	c10.4,0,18.7,8.4,18.8,18.8v2.8c0,10.4,8.4,18.8,18.8,18.8h0.4c10.4,0,18.7-8.4,18.8-18.8v-40c0-10.4,8.4-18.8,18.8-18.8h0.4
	c10.4,0,18.7,8.4,18.8,18.8v7.5c0,10.4,8.4,18.8,18.8,18.8h0.4c10.2,0,18.6-8.3,18.7-18.5v-2.9c0-10.4,8.4-18.8,18.8-18.8h0.4
	c9.7,0,17.8,7.4,18.7,17.1c0.1,0.6,0.1,17.5,0.1,17.5c0,10.4,8.4,18.7,18.8,18.8h0.4c10.4,0,18.7-8.4,18.8-18.8v-44.1
	c0-10.4,8.4-18.8,18.8-18.8h0.4c8.9,0,16.5,6.2,18.3,14.9l0.4,68.5c0,10.4,8.4,18.8,18.8,18.8h0.4c10.4,0,18.7-8.4,18.8-18.8v-56
	c1.8-8.7,9.5-14.9,18.4-14.9h0.4c10.4,0,18.7,8.4,18.8,18.8v2.8c0,10.4,8.4,18.7,18.8,18.8h0.4c10.4,0,18.7-8.4,18.8-18.8v-40
	c0-10.4,8.4-18.7,18.8-18.8h0.4c10.4,0,18.7,8.4,18.8,18.8v7.5c0,10.4,8.4,18.8,18.8,18.8h0.4c10.4,0,18.7-8.4,18.7-18.8V77.1l0,0
	c0-10.4,8.4-18.7,18.8-18.8h0.4c10.4,0,18.7,8.4,18.8,18.8v15.6c0,10.4,8.4,18.8,18.8,18.8h0.4c10.4,0,18.7-8.4,18.8-18.8V48.6
	c0-10.3,8.4-18.7,18.7-18.7h0.4c8.9,0,16.5,6.2,18.3,14.9l0.4,68.5c0,10.3,8.4,18.7,18.7,18.7h0.4c10.4,0,18.7-8.4,18.8-18.8v-56
	c1.8-8.7,9.5-14.9,18.3-14.9h0.4c10.4,0,18.7,8.4,18.8,18.8v2.8c0,10.4,8.4,18.7,18.8,18.8h0.4c10.4,0,18.7-8.4,18.8-18.8v-40
	c0-10.4,8.4-18.7,18.8-18.8h0.4c10.4,0,18.7,8.4,18.8,18.8v7.5c0,10.4,8.4,18.7,18.8,18.8h0.4c10.4,0,18.7-8.4,18.8-18.8L1400.7,0z" style="fill:url(#SVGID_1_)"
	/>
</svg>
