<svg xmlns="http://www.w3.org/2000/svg" viewBox="0 -830 1400 1400">
  <line x1="1351.39" y1="78.27" x2="1247.64" y2="182.02" style="fill: none;stroke: #F6F6F6;stroke-linecap: round;stroke-miterlimit: 10;stroke-width: 20px"/>
  <line x1="1154.71" y1="184.46" x2="1128.35" y2="210.82" style="fill: none;stroke: #3aadaa;stroke-linecap: round;stroke-miterlimit: 10;stroke-width: 9px"/>
  <line x1="647.52" y1="100.54" x2="494.36" y2="253.7" style="fill: none;stroke: #3aadaa;stroke-linecap: round;stroke-miterlimit: 10;stroke-width: 9px"/>
  <line x1="619.32" y1="232.3" x2="440.32" y2="411.29" style="fill: none;stroke: #F6F6F6;stroke-linecap: round;stroke-miterlimit: 10;stroke-width: 12px"/>
  <line x1="1018.48" y1="238.8" x2="973.98" y2="283.31" style="fill: none;stroke: #7c6576;stroke-linecap: round;stroke-miterlimit: 10;stroke-width: 30px"/>
  <line x1="795.71" y1="184.78" x2="704.65" y2="275.85" style="fill: none;stroke: #7c6576;stroke-linecap: round;stroke-miterlimit: 10;stroke-width: 9px"/>
  <line x1="865.18" y1="30.26" x2="738.04" y2="157.39" style="fill: none;stroke: #F6F6F6;stroke-linecap: round;stroke-miterlimit: 10;stroke-width: 20px"/>
  <line x1="460.27" y1="175.69" x2="304.69" y2="331.27" style="fill: none;stroke: #7c6576;stroke-linecap: round;stroke-miterlimit: 10;stroke-width: 20px"/>
  <line x1="121.19" y1="261.8" x2="-34.39" y2="417.38" style="fill: none;stroke: #F6F6F6;stroke-linecap: round;stroke-miterlimit: 10;stroke-width: 20px"/>
  <line x1="376.56" y1="141.96" x2="324.25" y2="192.37" style="fill: none;stroke: #F6F6F6;stroke-linecap: round;stroke-miterlimit: 10;stroke-width: 30px"/>
  <line x1="-27.1" y1="112.28" x2="61.91" y2="23.27" style="fill: none;stroke: #3aadaa;stroke-linecap: round;stroke-miterlimit: 10;stroke-width: 30px"/>
  <line x1="1290.66" y1="58.02" x2="1313.28" y2="35.4" style="fill: none;stroke: #7c6576;stroke-linecap: round;stroke-miterlimit: 10;stroke-width: 9px"/>
  <line x1="11.59" y1="287.15" x2="201.73" y2="97.01" style="fill: none;stroke: #7c6576;stroke-linecap: round;stroke-miterlimit: 10;stroke-width: 4px"/>
  <line x1="917.69" y1="473.58" x2="1073.27" y2="318" style="fill: none;stroke: #3aadaa;stroke-linecap: round;stroke-miterlimit: 10;stroke-width: 20px"/>
  <line x1="153.75" y1="376.92" x2="177.79" y2="352.89" style="fill: none;stroke: #7c6576;stroke-linecap: round;stroke-miterlimit: 10;stroke-width: 10px"/>
  <line x1="471.15" y1="607.87" x2="593.29" y2="485.73" style="fill: none;stroke: #7c6576;stroke-linecap: round;stroke-miterlimit: 10;stroke-width: 20px"/>
  <line x1="759.7" y1="580.1" x2="859.8" y2="480.1" style="fill: none;stroke: #F6F6F6;stroke-linecap: round;stroke-miterlimit: 10;stroke-width: 12px"/>
  <line x1="111.19" y1="544.02" x2="131.58" y2="523.63" style="fill: none;stroke: #3aadaa;stroke-linecap: round;stroke-miterlimit: 10;stroke-width: 30px"/>
  <line x1="205.26" y1="239.31" x2="232.46" y2="212.1" style="fill: none;stroke: #3aadaa;stroke-linecap: round;stroke-miterlimit: 10;stroke-width: 6px"/>
  <line x1="766.15" y1="421.86" x2="843.94" y2="344.07" style="fill: none;stroke: #F6F6F6;stroke-linecap: round;stroke-miterlimit: 10;stroke-width: 4px"/>
  <line x1="1120.38" y1="427.5" x2="1357.66" y2="190.22" style="fill: none;stroke: #7c6576;stroke-linecap: round;stroke-miterlimit: 10;stroke-width: 20px"/>
  <line x1="1355.61" y1="315.58" x2="1444.62" y2="226.57" style="fill: none;stroke: #F6F6F6;stroke-linecap: round;stroke-miterlimit: 10;stroke-width: 30px"/>
  <line x1="505.03" y1="482.2" x2="559.44" y2="427.8" style="fill: none;stroke: #3aadaa;stroke-linecap: round;stroke-miterlimit: 10;stroke-width: 9px"/>
  <line x1="1065.97" y1="741.31" x2="1352.27" y2="455.01" style="fill: none;stroke: #F6F6F6;stroke-linecap: round;stroke-miterlimit: 10;stroke-width: 9px"/>
  <line x1="259.67" y1="501.44" x2="388.95" y2="372.16" style="fill: none;stroke: #F6F6F6;stroke-linecap: round;stroke-miterlimit: 10;stroke-width: 4px"/>
  <line x1="270.71" y1="583.69" x2="307.72" y2="546.68" style="fill: none;stroke: #7c6576;stroke-linecap: round;stroke-miterlimit: 10;stroke-width: 9px"/>
  <line x1="1040.1" y1="596.04" x2="1144.14" y2="492" style="fill: none;stroke: #3aadaa;stroke-linecap: round;stroke-miterlimit: 10;stroke-width: 9px"/>
</svg>
