<?xml version="1.0" encoding="UTF-8"?><svg xmlns="http://www.w3.org/2000/svg" viewBox="0 0 100 100"><g id="a"/><g id="b"/><g id="c"/><g id="d"/><g id="e"/><g id="f"><g><g><line x1="19.65" y1="42.53" x2="22.48" y2="45.36" style="fill:none; stroke:#7c6576; stroke-linecap:round; stroke-linejoin:round; stroke-width:4px;"/><line x1="28.86" y1="51.74" x2="51.19" y2="74.07" style="fill:none; stroke:#7c6576; stroke-dasharray:0 0 9.02 9.02; stroke-linecap:round; stroke-linejoin:round; stroke-width:4px;"/><line x1="54.38" y1="77.26" x2="57.21" y2="80.09" style="fill:none; stroke:#7c6576; stroke-linecap:round; stroke-linejoin:round; stroke-width:4px;"/></g><path d="M68.28,13.26c-4.89,5.04-4.85,13.09,.13,18.08s13.03,5.02,18.08,.13h.01l4.98,4.97c2.82,2.82,2.82,7.4,0,10.23l-44.8,44.8c-2.82,2.82-7.4,2.82-10.23,0l-4.85-4.85c4.89-5.04,4.85-13.09-.13-18.08s-13.03-5.02-18.08-.13l-4.85-4.85c-2.82-2.82-2.82-7.4,0-10.23L53.33,8.53c2.82-2.82,7.4-2.82,10.23,0l4.72,4.72" style="fill:none; stroke:#7c6576; stroke-linecap:round; stroke-linejoin:round; stroke-width:4px;"/></g></g><g id="g"/><g id="h"/></svg>