<?xml version="1.0" encoding="UTF-8"?><svg xmlns="http://www.w3.org/2000/svg" viewBox="0 0 100 100"><g id="a"/><g id="b"><path d="M81.68,21.03H18.32c-5.09,0-9.23,4.14-9.23,9.23v39.47c0,5.09,4.14,9.23,9.23,9.23h63.36c5.09,0,9.23-4.14,9.23-9.23V30.26c0-5.09-4.14-9.23-9.23-9.23Zm-35.04,53.94l40.28-29.08v5.41l-32.78,23.67h-7.49Zm-2.96-30.58l-.46-.16-3.37-1.14-.61-.21c.92-1.19,1.35-2.63,1.28-4.06-.02-.35-.06-.7-.13-1.05-.19-.85-.57-1.66-1.13-2.38l4.86-1.36c.07,.25,.19,.49,.36,.7,.01,.02,.03,.04,.04,.06,.76,.97,1.58,2.29,1.78,3.65,.05,.32,.07,.65,.04,.97v.02c-.12,1.08-.75,2.04-1.92,2.94-.62,.48-.89,1.27-.73,2.01Zm.5-14.53l-.53,.15,6.67-4.82c.07-.05,.12-.11,.18-.16h7.53l-9.93,7.17c-.1-.43-.28-.85-.56-1.22-.79-1.03-2.11-1.47-3.36-1.12Zm-25.86-4.83h25.39l-10.32,7.45-7.5-2.54c-1.45-.49-3.04-.06-4.05,1.09-.63,.71-.95,1.62-.94,2.52-1.36,1.32-2.18,2.83-2.44,4.51-.05,.16-.07,.33-.08,.51,0,.06,0,.12,0,.17-.08,1.3,.17,2.66,.76,4.03l-6.06,4.37V30.26c0-2.89,2.35-5.23,5.23-5.23Zm-5.23,27.04l7.67-5.53c.11,.26,.24,.52,.42,.75,.61,.79,1.53,1.24,2.5,1.24,.29,0,.58-.04,.86-.12l.61-.17v.54l-12.06,8.7v-5.41Zm11.52-7.84c-.04-.13-.08-.25-.15-.37-.06-.12-.13-.23-.21-.33-.67-.85-1.41-2-1.72-3.21-.12-.48-.18-.96-.14-1.44,0-.02,0-.04,0-.05,.12-1.08,.75-2.04,1.92-2.94,.62-.48,.89-1.27,.73-2.01l4.37,1.48,.07,.02c-.79,1.02-1.22,2.22-1.28,3.45-.04,.72,.06,1.44,.27,2.13,.2,.66,.52,1.29,.95,1.87,.01,.01,.02,.03,.03,.04l-.32,.09-4,1.12-.54,.15Zm4.54,6.59v-3.71l5.52-1.55,1.2,.41,3.35,1.13v15.19l-3.71-3.44c-.38-.36-.87-.53-1.36-.53s-.98,.18-1.37,.54l-3.64,3.41v-11.44Zm3.06-11.99c.04-.25,.12-.5,.24-.73,.1-.18,.21-.36,.37-.51,.33-.33,.74-.53,1.17-.6,.12-.02,.25-.04,.37-.04,.56,0,1.12,.21,1.55,.64,.35,.35,.55,.79,.61,1.24,.09,.66-.11,1.35-.61,1.85-.85,.85-2.24,.85-3.09,0-.5-.5-.7-1.19-.61-1.85Zm-19.12,30.91v-7.32l12.06-8.7v13.16c0,.8,.47,1.52,1.2,1.83,.26,.11,.53,.17,.8,.17,.5,0,.99-.19,1.37-.54l5.65-5.28,5.7,5.29c.58,.54,1.43,.68,2.16,.37,.73-.32,1.2-1.04,1.2-1.83v-18.45c1.34,.3,2.74-.14,3.66-1.19,.63-.71,.95-1.62,.94-2.53,1.36-1.32,2.18-2.83,2.44-4.51,.05-.16,.07-.33,.08-.51,0-.06,0-.11,0-.17,.07-1.16-.13-2.36-.58-3.58l15.03-10.85s.05-.05,.08-.07h16.83c2.89,0,5.23,2.35,5.23,5.23v10.69l-46.53,33.59c-.17,.12-.3,.26-.42,.42H18.32c-2.88,0-5.23-2.35-5.23-5.23Zm68.6,5.23h-20.72l25.95-18.73v13.5c0,2.89-2.35,5.23-5.23,5.23Z" style="fill:#7c6576;"/></g><g id="c"/><g id="d"/><g id="e"/><g id="f"/><g id="g"/><g id="h"/></svg>