<svg xmlns="http://www.w3.org/2000/svg" xmlns:xlink="http://www.w3.org/1999/xlink" width="70" height="70" viewBox="0 0 70 70">
    <defs>
        <path id="icon-a" d="M4,5.35309892e-14 C36.4160122,9.87060235e-15 58.0836068,-3.97961823e-14 65,5.07020818e-14 C69,6.733808e-14 70,1 70,5 C70,43.0488877 70,62.4235458 70,65 C70,69 69,70 65,70 C61,70 9,70 4,70 C1,70 7.10542736e-15,69 7.10542736e-15,65 C7.25721566e-15,62.4676575 3.83358709e-14,41.8005206 3.60818146e-14,5 C-1.13686838e-13,1 1,5.75716207e-14 4,5.35309892e-14 Z"/>
        <linearGradient id="icon-c" x1="100%" x2="0%" y1="0%" y2="100%">
            <stop offset="0%" stop-color="#7CC098"/>
            <stop offset="100%" stop-color="#5F8A71"/>
        </linearGradient>
    </defs>
    <g fill="none" fill-rule="evenodd">
        <mask id="icon-b" fill="#fff">
            <use xlink:href="#icon-a"/>
        </mask>
        <g mask="url(#icon-b)">
            <rect width="70" height="70" fill="url(#icon-c)"/>
            <path fill="#FFF" fill-opacity=".383" d="M4,1.8 L65,1.8 C67.6666667,1.8 69.3333333,1.13333333 70,-0.2 C70,2.46666667 70,3.46666667 70,2.8 L1.10547097e-14,2.8 C-1.65952376e-14,3.46666667 -2.9161925e-14,2.46666667 -2.66453526e-14,-0.2 C0.666666667,1.13333333 2,1.8 4,1.8 Z" transform="matrix(1 0 0 -1 0 2.8)"/>
            <path fill="#393939" d="M4,50 C2,50 -7.10542736e-15,49.8542274 0,45.9183673 L2.12440903e-16,22.80445 L20,0 L50,0 L52.6478104,5.68199944 L41.6482009,31.5743024 L43.0774821,32.5463035 L33.6110344,50 L4,50 Z" opacity=".324" transform="translate(0 19)"/>
            <path fill="#000" fill-opacity=".383" d="M4,4 L65,4 C67.6666667,4 69.3333333,3 70,1 C70,3.66666667 70,5 70,5 L1.77635684e-15,5 C1.77635684e-15,5 1.77635684e-15,3.66666667 1.77635684e-15,1 C0.666666667,3 2,4 4,4 Z" transform="translate(0 65)"/>
            <path fill="#000" fill-rule="nonzero" d="M51.4715595,21.2569497 C50.3159332,20.3969451 48.6924841,20.2231449 46.6336479,20.7285969 C46.6324003,20.2243717 46.6249152,19.7692195 46.6132716,19.3884947 C46.6066181,19.1717555 46.4265583,19 46.2065776,19 L24.7936,19 C24.5736193,19 24.3935595,19.1717555 24.3869061,19.3880858 C24.3752625,19.7688106 24.3677773,20.2239628 24.3669456,20.727779 C22.3076936,20.2227359 20.6846603,20.3961272 19.5282023,21.2561318 C18.3235066,22.1525322 17.8041194,23.7052842 18.066516,25.6281284 C18.6299826,29.7592583 22.681536,35.3842525 28.5931529,38.1008528 C29.5911749,39.4793955 30.8245637,40.6395634 32.3357354,41.4615364 L32.3357354,41.7150803 C31.7706054,41.9665795 31.3734758,42.5243761 31.3734758,43.1717309 L31.3734758,43.2175324 C31.3734758,43.9070082 31.8246649,44.491795 32.4488445,44.716304 L32.4488445,45.4106872 C32.4488445,45.4106872 32.4488445,45.4106872 32.4488445,45.4110961 C31.7668628,46.7278887 30.6727812,48.4053678 29.1046392,49.5827112 C28.9661636,49.6869914 28.9104407,49.8661079 28.9661636,50.0288667 C29.0218865,50.1916256 29.1769958,50.300813 29.3516496,50.300813 L41.6489439,50.300813 C41.8231819,50.300813 41.9778753,50.1912166 42.034014,50.0288667 C42.0901528,49.8665168 42.034014,49.6869914 41.8955385,49.5827112 C40.3290598,48.4070036 39.2349782,46.7270708 38.551749,45.4086425 L38.551749,44.716304 C39.1759286,44.491795 39.6271177,43.9070082 39.6271177,43.2175324 L39.6271177,43.1717309 C39.6271177,42.524785 39.2299881,41.9673974 38.665274,41.7154892 L38.665274,41.4615364 C40.1768614,40.6395634 41.411082,39.4789866 42.409104,38.1000349 C48.3198892,35.3826168 52.3701951,29.7584404 52.9336617,25.6281284 C53.1956424,23.7052842 52.6762552,22.1529411 51.4715595,21.2569497 Z M20.5665611,25.2989303 C20.4879668,24.7206866 20.4459667,23.6844281 21.0501859,23.2345922 C21.644009,22.792935 22.8632592,22.8362829 24.4301537,23.3257862 C24.5848471,26.3998016 25.0688877,30.337502 26.3846134,33.8666696 C23.1048636,31.3455435 20.920443,27.8940748 20.5665611,25.2989303 Z M50.4336166,25.2985213 C50.0793188,27.893257 47.8965615,31.3439077 44.6176434,33.8646249 C45.9325374,30.3358662 46.4165781,26.3989837 46.5704398,23.3253772 C48.1373343,22.8362829 49.3557528,22.792935 49.9495759,23.2350011 C50.5542109,23.6844281 50.5126267,24.7206866 50.4336166,25.2985213 Z M42.9997627,51.2357724 C43.2067373,51.2357724 43.3746167,51.3477838 43.375,51.4861358 L43.375,53.7496365 C43.375,53.8879886 43.2071206,54 43.000146,54 L28.0002373,54 C27.7928794,54 27.625,53.8879886 27.625,53.7496365 L27.625,51.4861358 C27.625,51.3477838 27.7928794,51.2357724 28.0002373,51.2357724 L42.9997627,51.2357724 Z" opacity=".3"/>
            <path fill="#FFF" fill-rule="nonzero" d="M51.4715595,19.2569497 C50.3159332,18.3969451 48.6924841,18.2231449 46.6336479,18.7285969 C46.6324003,18.2243717 46.6249152,17.7692195 46.6132716,17.3884947 C46.6066181,17.1717555 46.4265583,17 46.2065776,17 L24.7936,17 C24.5736193,17 24.3935595,17.1717555 24.3869061,17.3880858 C24.3752625,17.7688106 24.3677773,18.2239628 24.3669456,18.727779 C22.3076936,18.2227359 20.6846603,18.3961272 19.5282023,19.2561318 C18.3235066,20.1525322 17.8041194,21.7052842 18.066516,23.6281284 C18.6299826,27.7592583 22.681536,33.3842525 28.5931529,36.1008528 C29.5911749,37.4793955 30.8245637,38.6395634 32.3357354,39.4615364 L32.3357354,39.7150803 C31.7706054,39.9665795 31.3734758,40.5243761 31.3734758,41.1717309 C31.3734758,41.9070082 31.8246649,42.491795 32.4488445,42.716304 L32.4488445,43.4106872 C31.7668628,44.7278887 30.6727812,46.4053678 29.1046392,47.5827112 C28.9661636,47.6869914 28.9104407,47.8661079 28.9661636,48.0288667 C29.0218865,48.1916256 29.1769958,48.300813 29.3516496,48.300813 L41.6489439,48.300813 C41.8231819,48.300813 41.9778753,48.1912166 42.034014,48.0288667 C42.0901528,47.8665168 42.034014,47.6869914 41.8955385,47.5827112 C40.3290598,46.4070036 39.2349782,44.7270708 38.551749,43.4086425 L38.551749,42.716304 C39.1759286,42.491795 39.6271177,41.9070082 39.6271177,41.2175324 C39.6271177,40.524785 39.2299881,39.9673974 38.665274,39.7154892 L38.665274,39.4615364 C40.1768614,38.6395634 41.411082,37.4789866 42.409104,36.1000349 C48.3198892,33.3826168 52.3701951,27.7584404 52.9336617,23.6281284 C53.1956424,21.7052842 52.6762552,20.1529411 51.4715595,19.2569497 Z M20.5665611,23.2989303 C20.4879668,22.7206866 20.4459667,21.6844281 21.0501859,21.2345922 C21.644009,20.792935 22.8632592,20.8362829 24.4301537,21.3257862 C24.5848471,24.3998016 25.0688877,28.337502 26.3846134,31.8666696 C23.1048636,29.3455435 20.920443,25.8940748 20.5665611,23.2989303 Z M50.4336166,23.2985213 C50.0793188,25.893257 47.8965615,29.3439077 44.6176434,31.8646249 C45.9325374,28.3358662 46.4165781,24.3989837 46.5704398,21.3253772 C48.1373343,20.8362829 49.3557528,20.792935 49.9495759,21.2350011 C50.5542109,21.6844281 50.5126267,22.7206866 50.4336166,23.2985213 Z M42.9997627,49.2357724 C43.2067373,49.2357724 43.3746167,49.3477838 43.375,49.4861358 L43.375,51.7496365 C43.375,51.8879886 43.2071206,52 43.000146,52 L28.0002373,52 C27.7928794,52 27.625,51.8879886 27.625,51.7496365 L27.625,49.4861358 C27.625,49.3477838 27.7928794,49.2357724 28.0002373,49.2357724 L42.9997627,49.2357724 Z"/>
        </g>
    </g>
</svg>
