<svg width="50" height="50" xmlns="http://www.w3.org/2000/svg"><path d="M42 33c0 9.389-7.611 17-17 17S8 42.39 8 33s7.611-17 17-17 17 7.611 17 17Z" fill="var(--o-icons-yellow-pure, #FBB130)"/><path d="M42 33c0 9.389-7.611 17-17 17S8 42.39 8 33s7.611-17 17-17 17 7.611 17 17Z" fill="url(#o_icon_gamification__a)" fill-opacity=".2"/><path d="M33.496 18.272 25 33l-8.497-14.728A16.922 16.922 0 0 1 25 16c3.095 0 5.997.827 8.496 2.272Z" fill="var(--o-icons-yellow-yellow, #F77B09)"/><path d="M33.496 18.272 25 33l-8.497-14.728A16.922 16.922 0 0 1 25 16c3.095 0 5.997.827 8.496 2.272Z" fill="url(#o_icon_gamification__b)" fill-opacity=".2"/><path d="M8 33c0 9.389 7.611 17 17 17V16c-9.389 0-17 7.611-17 17Z" fill="var(--o-icons-yellow-yellow, #F77B09)"/><path d="M8 33c0 9.389 7.611 17 17 17V16c-9.389 0-17 7.611-17 17Z" fill="url(#o_icon_gamification__c)" fill-opacity=".2"/><path d="M16.62 0H25v16c-3.095 0-5.997.827-8.497 2.272L11.206 9.09a4 4 0 0 1 .08-4.131l1.95-3.092A4 4 0 0 1 16.618 0Z" fill="var(--o-icons-purple-red, #911E3D)"/><path d="M16.62 0H25v16c-3.095 0-5.997.827-8.497 2.272L11.206 9.09a4 4 0 0 1 .08-4.131l1.95-3.092A4 4 0 0 1 16.618 0Z" fill="url(#o_icon_gamification__d)" fill-opacity=".2"/><path d="M25 16c-3.096 0-5.997.827-8.497 2.272L25 33V16Z" fill="var(--o-icons-yellow-pure, #FBB130)"/><path d="M25 16c-3.096 0-5.997.827-8.497 2.272L25 33V16Z" fill="url(#o_icon_gamification__e)" fill-opacity=".2"/><path d="M25 16c3.095 0 5.997.827 8.496 2.272l5.298-9.182a4 4 0 0 0-.08-4.131l-1.949-3.092A4 4 0 0 0 33.381 0H25v16Z" fill="var(--o-icons-purple-pure, #93407D)"/><path d="M25 16c3.095 0 5.997.827 8.496 2.272l5.298-9.182a4 4 0 0 0-.08-4.131l-1.949-3.092A4 4 0 0 0 33.381 0H25v16Z" fill="url(#o_icon_gamification__f)" fill-opacity=".2"/><defs><linearGradient id="o_icon_gamification__a" x1="8" y1="16" x2="48" y2="26" gradientUnits="userSpaceOnUse"><stop stop-color="#fff"/><stop offset="1" stop-color="#fff" stop-opacity="0"/></linearGradient><linearGradient id="o_icon_gamification__b" x1="16.503" y1="16" x2="36.496" y2="20.996" gradientUnits="userSpaceOnUse"><stop stop-color="#fff"/><stop offset="1" stop-color="#fff" stop-opacity="0"/></linearGradient><linearGradient id="o_icon_gamification__c" x1="8" y1="16" x2="28.923" y2="18.615" gradientUnits="userSpaceOnUse"><stop stop-color="#fff"/><stop offset="1" stop-color="#fff" stop-opacity="0"/></linearGradient><linearGradient id="o_icon_gamification__d" x1="10.671" y1="0" x2="27.92" y2="3.382" gradientUnits="userSpaceOnUse"><stop stop-color="#fff"/><stop offset="1" stop-color="#fff" stop-opacity="0"/></linearGradient><linearGradient id="o_icon_gamification__e" x1="16.503" y1="16" x2="26.96" y2="17.307" gradientUnits="userSpaceOnUse"><stop stop-color="#fff"/><stop offset="1" stop-color="#fff" stop-opacity="0"/></linearGradient><linearGradient id="o_icon_gamification__f" x1="25" y1="0" x2="42.249" y2="3.382" gradientUnits="userSpaceOnUse"><stop stop-color="#fff"/><stop offset="1" stop-color="#fff" stop-opacity="0"/></linearGradient></defs></svg>
