<svg width="25" height="24" viewBox="0 0 25 24" fill="none" xmlns="http://www.w3.org/2000/svg">
<path d="M18.1074 6.5H7.10742V17.5H18.1074V6.5Z" fill="white"/>
<path d="M13.4473 10.46L13.9513 11.18L14.7433 10.604V14.78H15.6073V9.308H14.8873L13.4473 10.46Z" fill="#1E88E5"/>
<path d="M12.0789 11.8725C12.3914 11.5855 12.5854 11.1875 12.5854 10.748C12.5854 9.8745 11.8189 9.164 10.8769 9.164C10.0759 9.164 9.39092 9.6685 9.21192 10.3905L10.0404 10.601C10.1229 10.269 10.4744 10.028 10.8769 10.028C11.3479 10.028 11.7314 10.351 11.7314 10.748C11.7314 11.145 11.3479 11.468 10.8769 11.468H10.3784V12.332H10.8769C11.4174 12.332 11.8734 12.7075 11.8734 13.152C11.8734 13.604 11.4404 13.972 10.9079 13.972C10.4269 13.972 10.0159 13.667 9.95092 13.263L9.10742 13.401C9.23842 14.219 10.0124 14.836 10.9074 14.836C11.9109 14.836 12.7274 14.0805 12.7274 13.152C12.7274 12.6405 12.4754 12.1815 12.0789 11.8725Z" fill="#1E88E5"/>
<path d="M17.6074 21H7.60742L7.10742 19L7.60742 17H17.6074L18.1074 19L17.6074 21Z" fill="#FBC02D"/>
<path d="M19.6074 17.5L21.6074 17V7L19.6074 6.5L17.6074 7V17L19.6074 17.5Z" fill="#4CAF50"/>
<path d="M17.6074 7L18.1074 5L17.6074 3H5.10742C4.27892 3 3.60742 3.6715 3.60742 4.5V17L5.60742 17.5L7.60742 17V7H17.6074Z" fill="#1E88E5"/>
<path d="M17.6074 17V21L21.6074 17H17.6074Z" fill="#E53935"/>
<path d="M20.1074 3H17.6074V7H21.6074V4.5C21.6074 3.6715 20.9359 3 20.1074 3Z" fill="#1565C0"/>
<path d="M5.10742 21H7.60742V17H3.60742V19.5C3.60742 20.3285 4.27892 21 5.10742 21Z" fill="#1565C0"/>
</svg>
