<svg width="50" height="50" viewBox="0 0 50 50" xmlns="http://www.w3.org/2000/svg"><path d="M48.735 21.367c1.707-1.607 1.721-4.234-.171-5.645a38.54 38.54 0 0 0-9.046-5.004A40.01 40.01 0 0 0 25 8a40.01 40.01 0 0 0-14.518 2.718 38.54 38.54 0 0 0-9.046 5.004c-1.892 1.411-1.878 4.038-.171 5.645l20.643 19.428c1.708 1.607 4.476 1.607 6.183 0l20.644-19.428Z" fill="#2EBCFA"/><path d="M44.51 25.342c-10.775-10.14-28.245-10.14-39.02 0l7.317 6.886c6.734-6.338 17.653-6.338 24.387 0l7.317-6.886Z" fill="#088BF5"/><path d="M37.194 32.228c-6.735-6.338-17.653-6.338-24.387 0l9.101 8.566c1.708 1.607 4.476 1.607 6.183 0l9.103-8.566Z" fill="#144496"/></svg>
