<svg width="325" height="110" viewBox="0 0 325 110" fill="none" xmlns="http://www.w3.org/2000/svg">
<mask id="path-1-inside-1_6882_7494" fill="white">
<path d="M35 31.5H290V78.5H35V31.5Z"/>
</mask>
<path d="M290 78.5V77.9H35V78.5V79.1H290V78.5Z" fill="white" mask="url(#path-1-inside-1_6882_7494)"/>
<rect x="35" y="38.5" width="35.2" height="33" rx="2" fill="#9CCDE4"/>
<path d="M52.5 43.3154H44.7177L39.5 50.1063L42.4744 53.9376H44.2424V66.7214H60.7368V53.9376H62.5318L65.5 50.1063L60.2823 43.3154H52.5Z" fill="#3AADAA" stroke="#1A4746"/>
<path d="M44.2362 53.9386H42.4682L39.5 50.1063L44.7177 43.3154H60.2823L65.5 50.1063L62.5256 53.9386H60.7306" stroke="#1A4746" stroke-linecap="round" stroke-linejoin="round"/>
<path d="M60.7327 51.769V66.7218H44.2383V48.5557" stroke="#1A4746" stroke-linecap="round" stroke-linejoin="round"/>
<path d="M56.4708 44.6138C56.2221 45.3775 55.7594 46.0537 55.1376 46.562C54.5159 47.0704 53.7614 47.3894 52.9636 47.4814C52.1659 47.5733 51.3586 47.4342 50.6376 47.0805C49.9166 46.7269 49.3123 46.1737 48.8965 45.4866" stroke="#1A4746" stroke-linecap="round" stroke-linejoin="round"/>
<path d="M60.7277 61.7441H58.1641" stroke="#1A4746" stroke-linecap="round" stroke-linejoin="round"/>
<path d="M60.7306 63.4365H54.4199" stroke="#1A4746" stroke-linecap="round" stroke-linejoin="round"/>
<path d="M75.1992 51.3003H101.183" stroke="white" stroke-width="2.4"/>
<path d="M75.1992 58.7002H207.399" stroke="#E9ECEF" stroke-width="1.6"/>
<path d="M218.807 55H244.79" stroke="#E9ECEF" stroke-width="2.4"/>
<path d="M257.607 55H283.591" stroke="#E9ECEF" stroke-width="2.4"/>
</svg>
