<svg width="325" height="110" viewBox="0 0 325 110" fill="none" xmlns="http://www.w3.org/2000/svg">
<rect x="16" y="15.2" width="62.6" height="44.2" rx="2" fill="#9CCDE4"/>
<path d="M47.3191 23.8H37.9088L31.5996 32.0094L35.1962 36.641H37.3341V52.0952H57.279V36.641H59.4496L63.0386 32.0094L56.7294 23.8H47.3191Z" fill="#3AADAA" stroke="#1A4746" stroke-width="1.6"/>
<path d="M37.3265 36.6423H35.1887L31.5996 32.0094L37.9088 23.8H56.7294L63.0386 32.0094L59.442 36.6423H57.2715" stroke="#1A4746" stroke-width="1.6" stroke-linecap="round" stroke-linejoin="round"/>
<path d="M57.2711 34.0191V52.0953H37.3262V30.1345" stroke="#1A4746" stroke-width="1.6" stroke-linecap="round" stroke-linejoin="round"/>
<path d="M52.1198 25.3696C51.819 26.2929 51.2595 27.1103 50.5077 27.7248C49.7559 28.3394 48.8435 28.7251 47.8789 28.8362C46.9143 28.9473 45.9381 28.7792 45.0663 28.3517C44.1945 27.9242 43.4637 27.2554 42.9609 26.4247" stroke="#1A4746" stroke-width="1.6" stroke-linecap="round" stroke-linejoin="round"/>
<path d="M57.2718 46.0779H54.1719" stroke="#1A4746" stroke-width="1.6" stroke-linecap="round" stroke-linejoin="round"/>
<path d="M57.2715 48.1238H49.6406" stroke="#1A4746" stroke-width="1.6" stroke-linecap="round" stroke-linejoin="round"/>
<path d="M26.125 69.3997H68.475" stroke="white" stroke-width="2.4"/>
<path d="M21.4492 76.7998H73.1492" stroke="#C7C7C7" stroke-width="1.6"/>
<path d="M21.4492 81.8H73.1492" stroke="#C7C7C7" stroke-width="1.6"/>
<path d="M39 86.8H55.6" stroke="#C7C7C7" stroke-width="1.6"/>
<rect x="92.8008" y="15.2" width="62.6" height="44.2" rx="2" fill="#9CCDE4"/>
<path d="M132.38 52.0952H126.138L123.923 32.2182L121.708 52.0952H115.469V23.8H132.38V52.0952Z" fill="#3AADAA" stroke="#1A4746" stroke-width="1.6" stroke-linecap="round" stroke-linejoin="round"/>
<path d="M117.771 29.1421H120.865V33.5549L118.193 34.8854L115.469 33.4543" stroke="#1A4746" stroke-width="1.6" stroke-linecap="round" stroke-linejoin="round"/>
<path d="M132.332 29.1421H126.938V33.5549L129.61 34.8854" stroke="#1A4746" stroke-width="1.6" stroke-linecap="round" stroke-linejoin="round"/>
<path d="M98.25 69.3999H149.95" stroke="white" stroke-width="2.4"/>
<path d="M98.25 76.8H149.95" stroke="#C7C7C7" stroke-width="1.6"/>
<path d="M98.25 81.8003H149.95" stroke="#C7C7C7" stroke-width="1.6"/>
<path d="M115.801 86.8003H132.401" stroke="#C7C7C7" stroke-width="1.6"/>
<rect x="169.6" y="15.2" width="62.6" height="44.2" rx="2" fill="#9CCDE4"/>
<path d="M200.919 23.8H191.508L185.199 32.0094L188.796 36.641H190.934V52.0952H210.879V36.641H213.049L216.638 32.0094L210.329 23.8H200.919Z" fill="#3AADAA" stroke="#1A4746" stroke-width="1.6"/>
<path d="M190.926 36.6423H188.788L185.199 32.0094L191.508 23.8H210.329L216.638 32.0094L213.042 36.6423H210.871" stroke="#1A4746" stroke-width="1.6" stroke-linecap="round" stroke-linejoin="round"/>
<path d="M210.871 34.0191V52.0953H190.926V30.1345" stroke="#1A4746" stroke-width="1.6" stroke-linecap="round" stroke-linejoin="round"/>
<path d="M205.719 25.3696C205.419 26.2929 204.859 27.1103 204.107 27.7248C203.356 28.3394 202.443 28.7251 201.479 28.8362C200.514 28.9473 199.538 28.7792 198.666 28.3517C197.794 27.9242 197.063 27.2554 196.561 26.4247" stroke="#1A4746" stroke-width="1.6" stroke-linecap="round" stroke-linejoin="round"/>
<path d="M210.871 46.0779H207.771" stroke="#1A4746" stroke-width="1.6" stroke-linecap="round" stroke-linejoin="round"/>
<path d="M210.871 48.1238H203.24" stroke="#1A4746" stroke-width="1.6" stroke-linecap="round" stroke-linejoin="round"/>
<path d="M187.906 69.3999H213.89" stroke="white" stroke-width="2.4"/>
<path d="M175.049 76.8H226.749" stroke="#C7C7C7" stroke-width="1.6"/>
<path d="M175.049 81.8003H226.749" stroke="#C7C7C7" stroke-width="1.6"/>
<path d="M192.6 86.8003H209.2" stroke="#C7C7C7" stroke-width="1.6"/>
<rect x="246.4" y="15.2" width="62.6" height="44.2" rx="2" fill="#9CCDE4"/>
<path d="M280.734 42.7434H274.77V51.6998H280.734V42.7434Z" fill="#3AADAA" stroke="#1A4746" stroke-width="1.6" stroke-linecap="round" stroke-linejoin="round"/>
<path d="M280.734 22.9998H274.77V31.9561H280.734V22.9998Z" fill="#3AADAA" stroke="#1A4746" stroke-width="1.6" stroke-linecap="round" stroke-linejoin="round"/>
<path d="M284.484 37.6403C284.483 38.9736 284.088 40.2768 283.347 41.3853C282.606 42.4938 281.553 43.3577 280.321 43.8678C279.089 44.3779 277.734 44.5114 276.426 44.2512C275.119 43.991 273.917 43.3489 272.975 42.4062C272.032 41.4634 271.39 40.2622 271.13 38.9546C270.869 37.6469 271.003 36.2915 271.513 35.0596C272.023 33.8278 272.887 32.7748 273.995 32.0339C275.104 31.293 276.407 30.8975 277.741 30.8972C279.529 30.8972 281.244 31.6076 282.509 32.8722C283.773 34.1368 284.484 35.8519 284.484 37.6403Z" fill="#3AADAA" stroke="#1A4746" stroke-width="1.6" stroke-linecap="round" stroke-linejoin="round"/>
<path d="M277.74 37.6403V33.6375" stroke="#1A4746" stroke-width="1.6" stroke-linecap="round" stroke-linejoin="round"/>
<path d="M277.74 37.6404L280.206 35.9893" stroke="#1A4746" stroke-width="1.6" stroke-linecap="round" stroke-linejoin="round"/>
<path d="M251.85 69.3999H303.55" stroke="white" stroke-width="2.4"/>
<path d="M251.85 76.7998H303.55" stroke="#C7C7C7" stroke-width="1.6"/>
<path d="M251.85 81.7998H303.55" stroke="#C7C7C7" stroke-width="1.6"/>
<path d="M269.4 86.7998H286" stroke="#C7C7C7" stroke-width="1.6"/>
</svg>
