<svg width="325" height="110" viewBox="0 0 325 110" fill="none" xmlns="http://www.w3.org/2000/svg">
<mask id="path-1-inside-1_6882_7473" fill="white">
<path d="M16 23H309V87H16V23Z"/>
</mask>
<path d="M309 87V86.4H16V87V87.6H309V87Z" fill="white" mask="url(#path-1-inside-1_6882_7473)"/>
<rect x="16" y="30" width="53.3333" height="50" rx="2" fill="#9CCDE4"/>
<path d="M42.8086 42.9998H34.7913L29.416 49.9957L32.4802 53.9426H34.3016V67.1125H51.2941V53.9426H53.1433L56.2011 49.9957L50.8259 42.9998H42.8086Z" fill="#3AADAA" stroke="#1A4746" stroke-width="1.2"/>
<path d="M34.2952 53.9437H32.4738L29.416 49.9957L34.7913 42.9998H50.8259L56.2011 49.9957L53.1369 53.9437H51.2877" stroke="#1A4746" stroke-width="1.2" stroke-linecap="round" stroke-linejoin="round"/>
<path d="M51.2874 51.7084V67.1126H34.2949V48.3979" stroke="#1A4746" stroke-width="1.2" stroke-linecap="round" stroke-linejoin="round"/>
<path d="M46.9007 44.3372C46.6445 45.1239 46.1678 45.8205 45.5273 46.3442C44.8868 46.8679 44.1094 47.1966 43.2876 47.2913C42.4658 47.386 41.6341 47.2427 40.8914 46.8784C40.1486 46.5141 39.526 45.9442 39.0977 45.2363" stroke="#1A4746" stroke-width="1.2" stroke-linecap="round" stroke-linejoin="round"/>
<path d="M51.2875 61.9846H48.6465" stroke="#1A4746" stroke-width="1.2" stroke-linecap="round" stroke-linejoin="round"/>
<path d="M51.2884 63.7283H44.7871" stroke="#1A4746" stroke-width="1.2" stroke-linecap="round" stroke-linejoin="round"/>
<path d="M79.334 46.2998H105.317" stroke="white" stroke-width="2.4"/>
<path d="M79.334 53.7H226.401" stroke="#E9ECEF" stroke-width="1.6"/>
<path d="M79.334 58.7002H136.734" stroke="#E9ECEF" stroke-width="1.6"/>
<path d="M79.334 63.7002H95.934" stroke="#E9ECEF" stroke-width="1.6"/>
<path d="M237.809 55H263.792" stroke="#E9ECEF" stroke-width="2.4"/>
<path d="M276.609 55H302.593" stroke="#E9ECEF" stroke-width="2.4"/>
</svg>
