<svg width="325" height="110" viewBox="0 0 325 110" fill="none" xmlns="http://www.w3.org/2000/svg">
<mask id="path-1-inside-1_6882_7551" fill="white">
<path d="M16 16H309V94H16V16Z"/>
</mask>
<path d="M309 94V93.4H16V94V94.6H309V94Z" fill="white" mask="url(#path-1-inside-1_6882_7551)"/>
<rect width="100.428" height="64" transform="translate(16 23)" fill="#9CCDE4"/>
<path d="M66.1324 31.6541H50.5797L40.1523 45.2253L46.0966 52.882H49.6299V78.43H82.5934V52.882H86.1807L92.1124 45.2253L81.6851 31.6541H66.1324Z" fill="#3AADAA" stroke="#1A4746" stroke-width="2"/>
<path d="M49.6174 52.8841H46.0841L40.1523 45.2253L50.5797 31.6541H81.6851L92.1124 45.2253L86.1682 52.8841H82.5809" stroke="#1A4746" stroke-width="2" stroke-linecap="round" stroke-linejoin="round"/>
<path d="M82.5807 48.5478V78.4304H49.6172V42.126" stroke="#1A4746" stroke-width="2" stroke-linecap="round" stroke-linejoin="round"/>
<path d="M74.0667 34.2485C73.5696 35.7748 72.6449 37.1261 71.4024 38.142C70.16 39.1579 68.652 39.7956 67.0578 39.9793C65.4636 40.163 63.8501 39.885 62.4093 39.1783C60.9684 38.4716 59.7607 37.366 58.9297 35.9928" stroke="#1A4746" stroke-width="2" stroke-linecap="round" stroke-linejoin="round"/>
<path d="M82.5803 68.4824H77.457" stroke="#1A4746" stroke-width="2" stroke-linecap="round" stroke-linejoin="round"/>
<path d="M82.5805 71.8647H69.9688" stroke="#1A4746" stroke-width="2" stroke-linecap="round" stroke-linejoin="round"/>
<path d="M128.428 35.3H154.411" stroke="white" stroke-width="2.4"/>
<path d="M128.428 47.5H297" stroke="#E9ECEF" stroke-width="1.6"/>
<path d="M128.428 52.5002H205.428" stroke="#E9ECEF" stroke-width="1.6"/>
<path d="M128.428 57.5002H185.828" stroke="#E9ECEF" stroke-width="1.6"/>
<path d="M128.428 62.5002H145.028" stroke="#E9ECEF" stroke-width="1.6"/>
<path d="M280.4 74.7002H297" stroke="#E9ECEF" stroke-width="1.6"/>
</svg>
