<svg width="325" height="110" viewBox="0 0 325 110" fill="none" xmlns="http://www.w3.org/2000/svg">
<rect x="16.3" y="30.3" width="292.4" height="49.4" rx="1.7" fill="white"/>
<rect x="16.3" y="30.3" width="292.4" height="49.4" rx="1.7" stroke="black" stroke-width="0.6"/>
<path d="M18 30.2998H69.0332V79.7002H18C17.0611 79.7002 16.2998 78.9389 16.2998 78V32C16.2998 31.0611 17.0611 30.2998 18 30.2998Z" fill="#9CCDE4"/>
<path d="M18 30.2998H69.0332V79.7002H18C17.0611 79.7002 16.2998 78.9389 16.2998 78V32C16.2998 31.0611 17.0611 30.2998 18 30.2998Z" stroke="black" stroke-width="0.6"/>
<path d="M42.8086 42.9998H34.7913L29.416 49.9957L32.4802 53.9426H34.3016V67.1125H51.2941V53.9426H53.1433L56.2011 49.9957L50.8259 42.9998H42.8086Z" fill="#3AADAA" stroke="#1A4746" stroke-width="1.2"/>
<path d="M34.2952 53.9437H32.4738L29.416 49.9957L34.7913 42.9998H50.8259L56.2011 49.9957L53.1369 53.9437H51.2877" stroke="#1A4746" stroke-width="1.2" stroke-linecap="round" stroke-linejoin="round"/>
<path d="M51.2874 51.7084V67.1126H34.2949V48.3979" stroke="#1A4746" stroke-width="1.2" stroke-linecap="round" stroke-linejoin="round"/>
<path d="M46.9007 44.3374C46.6445 45.1242 46.1678 45.8208 45.5273 46.3445C44.8868 46.8682 44.1094 47.1969 43.2876 47.2916C42.4658 47.3863 41.6341 47.243 40.8914 46.8787C40.1486 46.5144 39.526 45.9444 39.0977 45.2365" stroke="#1A4746" stroke-width="1.2" stroke-linecap="round" stroke-linejoin="round"/>
<path d="M51.2875 61.9846H48.6465" stroke="#1A4746" stroke-width="1.2" stroke-linecap="round" stroke-linejoin="round"/>
<path d="M51.2884 63.7283H44.7871" stroke="#1A4746" stroke-width="1.2" stroke-linecap="round" stroke-linejoin="round"/>
<path d="M79.334 46.3H105.317" stroke="#343A40" stroke-width="2.4"/>
<path d="M79.334 53.7H226.401" stroke="#6C757D" stroke-width="1.6"/>
<path d="M79.334 58.7H136.734" stroke="#6C757D" stroke-width="1.6"/>
<path d="M79.334 63.7H95.934" stroke="#6C757D" stroke-width="1.6"/>
<mask id="path-13-inside-1_6882_7452" fill="white">
<path d="M231.4 30H270.2V80H231.4V30Z"/>
</mask>
<path d="M231.4 80H232V30H231.4H230.8V80H231.4Z" fill="black" mask="url(#path-13-inside-1_6882_7452)"/>
<path d="M237.809 55H263.792" stroke="#6C757D" stroke-width="2.4"/>
<mask id="path-16-inside-2_6882_7452" fill="white">
<path d="M270.201 30H309.001V80H270.201V30Z"/>
</mask>
<path d="M270.201 80H270.801V30H270.201H269.601V80H270.201Z" fill="black" mask="url(#path-16-inside-2_6882_7452)"/>
<path d="M276.609 55H302.593" stroke="#6C757D" stroke-width="2.4"/>
</svg>
