<svg width="325" height="110" viewBox="0 0 325 110" fill="none" xmlns="http://www.w3.org/2000/svg">
<rect x="15.7" y="14.9" width="63.2" height="80.2" rx="3.3" fill="white"/>
<rect x="15.7" y="14.9" width="63.2" height="80.2" rx="3.3" stroke="black" stroke-width="0.6"/>
<rect x="19" y="18.2002" width="56.6" height="39.7791" rx="3" fill="#9CCDE4"/>
<path d="M47.3183 25.9399H38.8099L33.1055 33.3282L36.3574 37.4965H38.2903V51.405H56.3236V37.4965H58.2861L61.5312 33.3282L55.8267 25.9399H47.3183Z" fill="#3AADAA" stroke="#1A4746" stroke-width="1.4"/>
<path d="M38.2835 37.4977H36.3505L33.1055 33.3282L38.8099 25.9399H55.8267L61.5312 33.3282L58.2793 37.4977H56.3168" stroke="#1A4746" stroke-width="1.4" stroke-linecap="round" stroke-linejoin="round"/>
<path d="M56.3165 35.1369V51.4051H38.2832V31.6409" stroke="#1A4746" stroke-width="1.4" stroke-linecap="round" stroke-linejoin="round"/>
<path d="M51.6599 27.3525C51.3879 28.1834 50.8821 28.9191 50.2023 29.4722C49.5226 30.0252 48.6977 30.3724 47.8255 30.4724C46.9534 30.5724 46.0707 30.4211 45.2825 30.0363C44.4942 29.6516 43.8335 29.0497 43.3789 28.3021" stroke="#1A4746" stroke-width="1.4" stroke-linecap="round" stroke-linejoin="round"/>
<path d="M56.3164 45.9895H53.5137" stroke="#1A4746" stroke-width="1.4" stroke-linecap="round" stroke-linejoin="round"/>
<path d="M56.3155 47.8311H49.416" stroke="#1A4746" stroke-width="1.4" stroke-linecap="round" stroke-linejoin="round"/>
<path d="M21.4492 67.9792H63.7992" stroke="#343A40" stroke-width="2.4"/>
<path d="M21.4492 75.3792H73.1492" stroke="#6C757D" stroke-width="1.6"/>
<path d="M21.4492 80.3792H73.1492" stroke="#6C757D" stroke-width="1.6"/>
<path d="M21.4492 85.3792H38.0492" stroke="#6C757D" stroke-width="1.6"/>
<rect x="92.5008" y="14.9" width="63.2" height="80.2" rx="3.3" fill="white"/>
<rect x="92.5008" y="14.9" width="63.2" height="80.2" rx="3.3" stroke="black" stroke-width="0.6"/>
<rect x="95.8008" y="18.2" width="56.6" height="39.9636" rx="3" fill="#9CCDE4"/>
<path d="M131.586 51.559H125.941L123.939 33.5871L121.936 51.559H116.295V25.9758H131.586V51.559Z" fill="#3AADAA" stroke="#1A4746" stroke-width="1.4" stroke-linecap="round" stroke-linejoin="round"/>
<path d="M118.377 30.8059H121.174V34.7957L118.758 35.9987L116.295 34.7048" stroke="#1A4746" stroke-width="1.4" stroke-linecap="round" stroke-linejoin="round"/>
<path d="M131.544 30.8059H126.666V34.7957L129.082 35.9987" stroke="#1A4746" stroke-width="1.4" stroke-linecap="round" stroke-linejoin="round"/>
<path d="M98.25 68.1636H149.95" stroke="#343A40" stroke-width="2.4"/>
<path d="M98.25 75.5635H149.95" stroke="#6C757D" stroke-width="1.6"/>
<path d="M98.25 80.5635H149.95" stroke="#6C757D" stroke-width="1.6"/>
<path d="M98.25 85.5635H114.85" stroke="#6C757D" stroke-width="1.6"/>
<rect x="169.3" y="14.9" width="63.2" height="80.2" rx="3.3" fill="white"/>
<rect x="169.3" y="14.9" width="63.2" height="80.2" rx="3.3" stroke="black" stroke-width="0.6"/>
<rect x="172.6" y="18.2" width="56.6" height="39.9636" rx="3" fill="#9CCDE4"/>
<path d="M200.918 25.9758H192.41L186.705 33.3983L189.957 37.586H191.89V51.559H209.923V37.586H211.886L215.131 33.3983L209.426 25.9758H200.918Z" fill="#3AADAA" stroke="#1A4746" stroke-width="1.4"/>
<path d="M191.883 37.5872H189.95L186.705 33.3983L192.41 25.9758H209.426L215.131 33.3983L211.879 37.5872H209.916" stroke="#1A4746" stroke-width="1.4" stroke-linecap="round" stroke-linejoin="round"/>
<path d="M209.916 35.2154V51.559H191.883V31.7031" stroke="#1A4746" stroke-width="1.4" stroke-linecap="round" stroke-linejoin="round"/>
<path d="M205.259 27.3948C204.988 28.2295 204.482 28.9686 203.802 29.5242C203.122 30.0799 202.297 30.4286 201.425 30.5291C200.553 30.6296 199.67 30.4775 198.882 30.091C198.094 29.7045 197.433 29.0998 196.979 28.3487" stroke="#1A4746" stroke-width="1.4" stroke-linecap="round" stroke-linejoin="round"/>
<path d="M209.916 46.1184H207.113" stroke="#1A4746" stroke-width="1.4" stroke-linecap="round" stroke-linejoin="round"/>
<path d="M209.915 47.9683H203.016" stroke="#1A4746" stroke-width="1.4" stroke-linecap="round" stroke-linejoin="round"/>
<path d="M175.049 68.1636H201.032" stroke="#343A40" stroke-width="2.4"/>
<path d="M175.049 75.5635H226.749" stroke="#6C757D" stroke-width="1.6"/>
<path d="M175.049 80.5635H226.749" stroke="#6C757D" stroke-width="1.6"/>
<path d="M175.049 85.5635H191.649" stroke="#6C757D" stroke-width="1.6"/>
<rect x="246.1" y="14.9" width="63.2" height="80.2" rx="3.3" fill="white"/>
<rect x="246.1" y="14.9" width="63.2" height="80.2" rx="3.3" stroke="black" stroke-width="0.6"/>
<rect x="249.4" y="18.2" width="56.6" height="39.9636" rx="3" fill="#9CCDE4"/>
<path d="M280.444 43.1038H275.051V51.2017H280.444V43.1038Z" fill="#3AADAA" stroke="#1A4746" stroke-width="1.4" stroke-linecap="round" stroke-linejoin="round"/>
<path d="M280.444 25.2527H275.051V33.3506H280.444V25.2527Z" fill="#3AADAA" stroke="#1A4746" stroke-width="1.4" stroke-linecap="round" stroke-linejoin="round"/>
<path d="M283.834 38.4901C283.834 39.6956 283.476 40.8739 282.806 41.8762C282.136 42.8784 281.184 43.6595 280.07 44.1207C278.957 44.582 277.731 44.7026 276.549 44.4673C275.366 44.2321 274.28 43.6516 273.428 42.7992C272.576 41.9467 271.995 40.8607 271.76 39.6784C271.525 38.4961 271.645 37.2705 272.106 36.1568C272.568 35.043 273.349 34.091 274.351 33.4211C275.353 32.7512 276.532 32.3935 277.737 32.3933C279.354 32.3933 280.905 33.0356 282.048 34.179C283.191 35.3224 283.834 36.8731 283.834 38.4901Z" fill="#3AADAA" stroke="#1A4746" stroke-width="1.4" stroke-linecap="round" stroke-linejoin="round"/>
<path d="M277.736 38.49V34.8708" stroke="#1A4746" stroke-width="1.4" stroke-linecap="round" stroke-linejoin="round"/>
<path d="M277.736 38.49L279.966 36.9971" stroke="#1A4746" stroke-width="1.4" stroke-linecap="round" stroke-linejoin="round"/>
<path d="M251.85 68.1636H303.55" stroke="#343A40" stroke-width="2.4"/>
<path d="M251.85 75.5635H303.55" stroke="#6C757D" stroke-width="1.6"/>
<path d="M251.85 80.5635H303.55" stroke="#6C757D" stroke-width="1.6"/>
<path d="M251.85 85.5635H268.45" stroke="#6C757D" stroke-width="1.6"/>
</svg>
