<svg width="325" height="110" viewBox="0 0 325 110" fill="none" xmlns="http://www.w3.org/2000/svg">
<rect x="15.8572" y="14.499" width="63.832" height="81.002" rx="2.323" fill="white"/>
<rect x="15.8572" y="14.499" width="63.832" height="81.002" rx="2.323" stroke="black" stroke-width="0.606"/>
<path d="M16.1602 16.822C16.1602 15.7064 17.0645 14.802 18.1802 14.802H77.3662C78.4818 14.802 79.3862 15.7064 79.3862 16.822V59.444H16.1602V16.822Z" fill="#9CCDE4"/>
<path d="M47.7927 23.488H38.2883L31.916 31.7795L35.5486 36.4574H37.7078V52.0661H57.8522V36.4574H60.0445L63.6694 31.7795L57.2972 23.488H47.7927Z" fill="#3AADAA" stroke="#1A4746" stroke-width="1.616"/>
<path d="M37.7002 36.4587H35.541L31.916 31.7795L38.2883 23.488H57.2972L63.6694 31.7795L60.0368 36.4587H57.8446" stroke="#1A4746" stroke-width="1.616" stroke-linecap="round" stroke-linejoin="round"/>
<path d="M57.8455 33.8094V52.0664H37.7012V29.886" stroke="#1A4746" stroke-width="1.616" stroke-linecap="round" stroke-linejoin="round"/>
<path d="M52.643 25.0732C52.3392 26.0057 51.7741 26.8313 51.0148 27.452C50.2555 28.0727 49.334 28.4623 48.3597 28.5745C47.3855 28.6867 46.3995 28.5169 45.519 28.0851C44.6385 27.6534 43.9004 26.9778 43.3926 26.1389" stroke="#1A4746" stroke-width="1.616" stroke-linecap="round" stroke-linejoin="round"/>
<path d="M57.8457 45.9888H54.7148" stroke="#1A4746" stroke-width="1.616" stroke-linecap="round" stroke-linejoin="round"/>
<path d="M57.8439 48.0552H50.1367" stroke="#1A4746" stroke-width="1.616" stroke-linecap="round" stroke-linejoin="round"/>
<path d="M21.6641 69.5442H64.4376" stroke="#343A40" stroke-width="2.424"/>
<path d="M21.6641 77.0183H73.8811" stroke="#6C757D" stroke-width="1.616"/>
<path d="M21.6641 82.0684H73.8811" stroke="#6C757D" stroke-width="1.616"/>
<path d="M21.6641 87.1184H38.4301" stroke="#6C757D" stroke-width="1.616"/>
<rect x="92.3415" y="14.499" width="63.832" height="81.002" rx="2.323" fill="white"/>
<rect x="92.3415" y="14.499" width="63.832" height="81.002" rx="2.323" stroke="black" stroke-width="0.606"/>
<path d="M92.6445 16.822C92.6445 15.7064 93.5489 14.802 94.6645 14.802H153.851C154.966 14.802 155.871 15.7064 155.871 16.822V59.444H92.6445V16.822Z" fill="#9CCDE4"/>
<path d="M132.62 52.0661H126.315L124.078 31.9903L121.84 52.0661H115.539V23.488H132.62V52.0661Z" fill="#3AADAA" stroke="#1A4746" stroke-width="1.616" stroke-linecap="round" stroke-linejoin="round"/>
<path d="M117.865 28.8838H120.989V33.3407L118.29 34.6845L115.539 33.2391" stroke="#1A4746" stroke-width="1.616" stroke-linecap="round" stroke-linejoin="round"/>
<path d="M132.572 28.8838H127.123V33.3407L129.822 34.6845" stroke="#1A4746" stroke-width="1.616" stroke-linecap="round" stroke-linejoin="round"/>
<path d="M98.1484 69.5439H150.365" stroke="#343A40" stroke-width="2.424"/>
<path d="M98.1484 77.0178H150.365" stroke="#6C757D" stroke-width="1.616"/>
<path d="M98.1484 82.0676H150.365" stroke="#6C757D" stroke-width="1.616"/>
<path d="M98.1484 87.1177H114.914" stroke="#6C757D" stroke-width="1.616"/>
<rect x="168.826" y="14.499" width="63.832" height="81.002" rx="2.323" fill="white"/>
<rect x="168.826" y="14.499" width="63.832" height="81.002" rx="2.323" stroke="black" stroke-width="0.606"/>
<path d="M169.129 16.822C169.129 15.7064 170.033 14.802 171.149 14.802H230.335C231.451 14.802 232.355 15.7064 232.355 16.822V59.444H169.129V16.822Z" fill="#9CCDE4"/>
<path d="M200.761 23.488H191.257L184.885 31.7795L188.517 36.4574H190.677V52.0661H210.821V36.4574H213.013L216.638 31.7795L210.266 23.488H200.761Z" fill="#3AADAA" stroke="#1A4746" stroke-width="1.616"/>
<path d="M190.669 36.4587H188.51L184.885 31.7795L191.257 23.488H210.266L216.638 31.7795L213.006 36.4587H210.813" stroke="#1A4746" stroke-width="1.616" stroke-linecap="round" stroke-linejoin="round"/>
<path d="M210.812 33.8094V52.0664H190.668V29.886" stroke="#1A4746" stroke-width="1.616" stroke-linecap="round" stroke-linejoin="round"/>
<path d="M205.61 25.0732C205.306 26.0057 204.741 26.8313 203.982 27.452C203.222 28.0727 202.301 28.4623 201.327 28.5745C200.352 28.6867 199.366 28.5169 198.486 28.0851C197.605 27.6534 196.867 26.9778 196.359 26.1389" stroke="#1A4746" stroke-width="1.616" stroke-linecap="round" stroke-linejoin="round"/>
<path d="M210.813 45.9888H207.682" stroke="#1A4746" stroke-width="1.616" stroke-linecap="round" stroke-linejoin="round"/>
<path d="M210.813 48.0552H203.105" stroke="#1A4746" stroke-width="1.616" stroke-linecap="round" stroke-linejoin="round"/>
<path d="M174.633 69.5439H200.876" stroke="#343A40" stroke-width="2.424"/>
<path d="M174.633 77.0178H226.85" stroke="#6C757D" stroke-width="1.616"/>
<path d="M174.633 82.0676H226.85" stroke="#6C757D" stroke-width="1.616"/>
<path d="M174.633 87.1177H191.399" stroke="#6C757D" stroke-width="1.616"/>
<rect x="245.31" y="14.499" width="63.832" height="81.002" rx="2.323" fill="white"/>
<rect x="245.31" y="14.499" width="63.832" height="81.002" rx="2.323" stroke="black" stroke-width="0.606"/>
<path d="M245.613 16.822C245.613 15.7064 246.518 14.802 247.633 14.802H306.819C307.935 14.802 308.839 15.7064 308.839 16.822V59.444H245.613V16.822Z" fill="#9CCDE4"/>
<path d="M280.292 42.6216H274.268V51.6675H280.292V42.6216Z" fill="#3AADAA" stroke="#1A4746" stroke-width="1.616" stroke-linecap="round" stroke-linejoin="round"/>
<path d="M280.292 22.6804H274.268V31.7263H280.292V22.6804Z" fill="#3AADAA" stroke="#1A4746" stroke-width="1.616" stroke-linecap="round" stroke-linejoin="round"/>
<path d="M284.077 37.4675C284.077 38.8141 283.678 40.1304 282.929 41.25C282.181 42.3695 281.118 43.2421 279.873 43.7573C278.629 44.2725 277.26 44.4073 275.939 44.1445C274.619 43.8817 273.406 43.2332 272.453 42.281C271.501 41.3288 270.853 40.1156 270.59 38.7949C270.327 37.4742 270.462 36.1052 270.977 34.861C271.492 33.6168 272.365 32.5534 273.484 31.8051C274.604 31.0568 275.92 30.6572 277.267 30.657C279.073 30.657 280.805 31.3745 282.083 32.6517C283.36 33.9289 284.077 35.6612 284.077 37.4675Z" fill="#3AADAA" stroke="#1A4746" stroke-width="1.616" stroke-linecap="round" stroke-linejoin="round"/>
<path d="M277.268 37.4674V33.4246" stroke="#1A4746" stroke-width="1.616" stroke-linecap="round" stroke-linejoin="round"/>
<path d="M277.268 37.4675L279.758 35.7998" stroke="#1A4746" stroke-width="1.616" stroke-linecap="round" stroke-linejoin="round"/>
<path d="M251.117 69.5442H303.334" stroke="#343A40" stroke-width="2.424"/>
<path d="M251.117 77.0183H303.334" stroke="#6C757D" stroke-width="1.616"/>
<path d="M251.117 82.0684H303.334" stroke="#6C757D" stroke-width="1.616"/>
<path d="M251.117 87.1184H267.883" stroke="#6C757D" stroke-width="1.616"/>
</svg>
