<svg width="325" height="110" viewBox="0 0 325 110" fill="none" xmlns="http://www.w3.org/2000/svg">
<mask id="path-1-inside-1_7128_81322" fill="white">
<path d="M16 31.5H309V78.5H16V31.5Z"/>
</mask>
<path d="M309 78.5V77.9H16V78.5V79.1H309V78.5Z" fill="white" mask="url(#path-1-inside-1_7128_81322)"/>
<rect x="16" y="42" width="27" height="26" rx="2" fill="#9CCDE4"/>
<path d="M29.4233 45.7939H23.4539L19.4517 51.1443L21.7332 54.1629H23.0894V64.235H35.7413V54.1629H37.1182L39.3949 51.1443L35.3927 45.7939H29.4233Z" fill="#3AADAA" stroke="#1A4746"/>
<path d="M23.0846 54.1637H21.7284L19.4517 51.1443L23.4539 45.7939H35.3927L39.3949 51.1443L37.1134 54.1637H35.7365" stroke="#1A4746" stroke-linecap="round" stroke-linejoin="round"/>
<path d="M35.7375 52.4541V64.2351H23.0856V49.9224" stroke="#1A4746" stroke-linecap="round" stroke-linejoin="round"/>
<path d="M32.4695 46.8169C32.2787 47.4186 31.9237 47.9514 31.4469 48.3519C30.97 48.7524 30.3912 49.0038 29.7793 49.0762C29.1674 49.1486 28.5482 49.039 27.9951 48.7604C27.4421 48.4818 26.9786 48.0459 26.6596 47.5045" stroke="#1A4746" stroke-linecap="round" stroke-linejoin="round"/>
<path d="M35.7347 60.3135H33.7683" stroke="#1A4746" stroke-linecap="round" stroke-linejoin="round"/>
<path d="M35.7365 61.647H30.8959" stroke="#1A4746" stroke-linecap="round" stroke-linejoin="round"/>
<path d="M48 55H143" stroke="white" stroke-width="2.4"/>
<path d="M237.808 55H263.792" stroke="#E9ECEF" stroke-width="2.4"/>
<path d="M276.608 55H302.592" stroke="#E9ECEF" stroke-width="2.4"/>
</svg>
