<svg xmlns="http://www.w3.org/2000/svg" viewBox="0 0 836.89 590.28"><path d="M15.17,570.38l.09-.12a1,1,0,0,1,.33-.65l.18-.15.11-.09a35.15,35.15,0,0,0,4.08-8.3,35.19,35.19,0,0,0,1.82-10.44v-.09a1.36,1.36,0,0,0-2.49-.75,45.6,45.6,0,0,1-5.51,6.68l-.41.41A4.67,4.67,0,0,0,12,560.21V574c.39-.37.8-.74,1.21-1.1.67-.77,1.28-1.53,1.82-2.26C15.06,570.55,15.12,570.47,15.17,570.38Z" style="fill:#fff"/><path d="M13.91,524.52a37.1,37.1,0,0,1,6.44,9.59,36.82,36.82,0,0,1,1.68,4.3.14.14,0,0,0,.14.11.15.15,0,0,0,.15-.12,42.32,42.32,0,0,0,2.19-12.54c0-.32,0-.63,0-1a42.59,42.59,0,0,0-1.61-11.61,42.1,42.1,0,0,0-5.41-11.76c-.57-.87-1.2-1.74-1.85-2.57a2,2,0,0,0-2.28-.68,2,2,0,0,0-1.4,1.95v19.7a6.31,6.31,0,0,0,1.72,4.35Z" style="fill:#fff"/><path d="M16.36,549.9a43,43,0,0,0,3.76-6.2,4.76,4.76,0,0,0,.52-2.18,4.84,4.84,0,0,0-.19-1.35,35.18,35.18,0,0,0-4.5-9.79,35.67,35.67,0,0,0-4-5V555l.16-.16A43,43,0,0,0,16.36,549.9Z" style="fill:#fff"/><path d="M38.33,567.1a1.37,1.37,0,0,0-.07-.42,1.32,1.32,0,0,0-1.32-.95h0a35.14,35.14,0,0,0-10.44,1.83,34.77,34.77,0,0,0-8.13,4l-.13.14L18,572a1,1,0,0,1-.77.35l-.1.06-.2.15c-.73.53-1.49,1.14-2.26,1.82-.37.42-.75.83-1.14,1.24H27.29a4.6,4.6,0,0,0,3.31-1.41l.44-.45a45.61,45.61,0,0,1,6.69-5.5A1.32,1.32,0,0,0,38.33,567.1Z" style="fill:#fff"/><path d="M820.53,39a43.57,43.57,0,0,0-3.76,6.2,4.85,4.85,0,0,0-.33,3.53,35.05,35.05,0,0,0,4.5,9.79,35.75,35.75,0,0,0,4,5V34l-.16.15A43,43,0,0,0,820.53,39Z" style="fill:#fff"/><path d="M47.35,567.06h0a4.92,4.92,0,0,0-3.51.33,42.73,42.73,0,0,0-6.2,3.77,44.8,44.8,0,0,0-4.91,4.22l-.19.2H62.12a35,35,0,0,0-5-4A35.41,35.41,0,0,0,47.35,567.06Z" style="fill:#fff"/><path d="M823,64.4a36.93,36.93,0,0,1-6.44-9.59,36.14,36.14,0,0,1-1.68-4.3.14.14,0,0,0-.14-.1.15.15,0,0,0-.15.11,42.38,42.38,0,0,0-2.19,12.55c0,.31,0,.63,0,.95A42.46,42.46,0,0,0,814,75.62a42,42,0,0,0,5.41,11.77c.57.87,1.2,1.73,1.85,2.57a2.06,2.06,0,0,0,3.68-1.27V69a6.34,6.34,0,0,0-1.72-4.36Z" style="fill:#fff"/><path d="M86,570a42,42,0,0,0-11.77-5.41,42.47,42.47,0,0,0-25.11.6.15.15,0,0,0,0,.28,37.93,37.93,0,0,1,4.3,1.68A36.93,36.93,0,0,1,63,573.6l.27.26a6.34,6.34,0,0,0,4.36,1.72H90.84a.77.77,0,0,0,.72-.48.93.93,0,0,0,0-.29.74.74,0,0,0-.24-.55A43.36,43.36,0,0,0,86,570Z" style="fill:#fff"/><path d="M13.1,90.64A2,2,0,0,0,15.39,90c.65-.84,1.27-1.7,1.84-2.57a42,42,0,0,0,5.41-11.77A42.46,42.46,0,0,0,24.25,64c0-.32,0-.64,0-.95a42.38,42.38,0,0,0-2.19-12.55.14.14,0,0,0-.14-.11.15.15,0,0,0-.15.1,36.09,36.09,0,0,1-1.67,4.3,37,37,0,0,1-6.45,9.59l-.21.23A6.3,6.3,0,0,0,11.7,69v19.7A2,2,0,0,0,13.1,90.64Z" style="fill:#fff"/><path d="M37.35,17.77a43,43,0,0,0,6.2,3.76,4.86,4.86,0,0,0,3.51.34h0a35.13,35.13,0,0,0,9.78-4.5,35.09,35.09,0,0,0,5-4H32.24c.07.07.13.14.2.2A42.15,42.15,0,0,0,37.35,17.77Z" style="fill:#fff"/><path d="M16.61,16.41l.21.14.09.07a1,1,0,0,1,.77.34,3.47,3.47,0,0,0,.25.29l.12.15a34.77,34.77,0,0,0,8.13,4,35.19,35.19,0,0,0,10.44,1.82h.06A1.32,1.32,0,0,0,38,22.25a1.49,1.49,0,0,0,.07-.43,1.32,1.32,0,0,0-.6-1.11,45.67,45.67,0,0,1-6.69-5.51l-.43-.44A4.65,4.65,0,0,0,27,13.34H13.21c.39.41.77.83,1.14,1.25C15.12,15.26,15.88,15.87,16.61,16.41Z" style="fill:#fff"/><path d="M48.83,23.44a.15.15,0,0,0-.1.14.15.15,0,0,0,.1.15,42.5,42.5,0,0,0,12.56,2.19A42.27,42.27,0,0,0,74,24.32a42.1,42.1,0,0,0,11.76-5.41,42.36,42.36,0,0,0,5.39-4.24.74.74,0,0,0,.24-.55.84.84,0,0,0,0-.29.75.75,0,0,0-.71-.49H67.35A6.26,6.26,0,0,0,63,15.07l-.28.25a37.05,37.05,0,0,1-9.58,6.44A37,37,0,0,1,48.83,23.44Z" style="fill:#fff"/><path d="M821.72,18.54l-.09.12a1,1,0,0,1-.33.66l-.18.14-.11.1a35,35,0,0,0-5.9,18.74v.05s0,0,0,0a1.36,1.36,0,0,0,2.49.74,46.13,46.13,0,0,1,5.51-6.68l.41-.4a4.69,4.69,0,0,0,1.41-3.34V14.92c-.39.38-.8.75-1.21,1.11-.67.77-1.28,1.53-1.82,2.26Z" style="fill:#fff"/><path d="M69.29,513.14a26.27,26.27,0,0,0-3.76.14,9.38,9.38,0,0,0-3.88,1.36h.7a26.66,26.66,0,0,1,3.26.48l1.43.26a11.51,11.51,0,0,0,2.07.18,5,5,0,0,0,1-.07l.4-.09a2.46,2.46,0,0,0,.34-.12,1.17,1.17,0,0,1,1.4.26,1.2,1.2,0,0,1,.26,1.4,4.7,4.7,0,0,0-.25.94,7.83,7.83,0,0,0,0,1,16.36,16.36,0,0,0,.27,2.34c0,.24.09.48.14.73a21.48,21.48,0,0,1,.5,4.14v0a9.56,9.56,0,0,0,1.43-4.48c.09-1.07.09-2.18.09-3.26a22.4,22.4,0,0,1,.49-5.72,16.49,16.49,0,0,1-3.88.5Z" style="fill:#fff"/><path d="M13.52,32.45A46.13,46.13,0,0,1,19,39.13a1.36,1.36,0,0,0,2.49-.74V38.3a35.47,35.47,0,0,0-1.83-10.44,35,35,0,0,0-4.08-8.3l-.11-.1-.18-.14a1,1,0,0,1-.33-.66l-.08-.12-.18-.25c-.54-.73-1.15-1.49-1.82-2.26-.41-.36-.81-.73-1.21-1.11V28.71a4.66,4.66,0,0,0,1.42,3.34Z" style="fill:#fff"/><path d="M20.18,48.75a4.77,4.77,0,0,0,.19-1.34,4.92,4.92,0,0,0-.51-2.19A43.63,43.63,0,0,0,16.09,39a43,43,0,0,0-4.23-4.91L11.7,34V63.5a35,35,0,0,0,4-5A34.77,34.77,0,0,0,20.18,48.75Z" style="fill:#fff"/><path d="M69,75.79c.64,0,1.3,0,1.94,0a16.42,16.42,0,0,1,3.88.5,22.48,22.48,0,0,1-.49-5.73c0-1.07,0-2.19-.08-3.26a9.76,9.76,0,0,0-1.44-4.48v0a21.38,21.38,0,0,1-.5,4.13c0,.25-.09.5-.13.74A14.72,14.72,0,0,0,71.91,70a6.42,6.42,0,0,0,0,1,4.14,4.14,0,0,0,.24.94,1.17,1.17,0,0,1-.26,1.39,1.15,1.15,0,0,1-1.4.26,2.74,2.74,0,0,0-.34-.11,2.46,2.46,0,0,0-.39-.09,5.07,5.07,0,0,0-1-.08,12.71,12.71,0,0,0-2.07.19l-1.43.26a26.77,26.77,0,0,1-3.25.47l-.7,0a9.48,9.48,0,0,0,3.87,1.36A27.81,27.81,0,0,0,69,75.79Z" style="fill:#fff"/><path d="M798.56,21.82a1.49,1.49,0,0,0,.07.43,1.33,1.33,0,0,0,1.32.94h0a35.13,35.13,0,0,0,10.44-1.82,34.77,34.77,0,0,0,8.13-4l.13-.15.24-.29a1,1,0,0,1,.77-.34l.1-.07.2-.14c.73-.54,1.49-1.15,2.26-1.82.37-.42.75-.84,1.14-1.25H809.6a4.61,4.61,0,0,0-3.31,1.42l-.44.44a45.15,45.15,0,0,1-6.69,5.51A1.32,1.32,0,0,0,798.56,21.82Z" style="fill:#fff"/><path d="M767.6,75.79a27.81,27.81,0,0,0,3.76-.14,9.68,9.68,0,0,0,3.88-1.36l-.7,0a28.74,28.74,0,0,1-3.26-.47l-1.43-.26a12.61,12.61,0,0,0-2.07-.19,4.88,4.88,0,0,0-.95.08,2.35,2.35,0,0,0-.4.09,2.74,2.74,0,0,0-.34.11,1.15,1.15,0,0,1-1.4-.26,1.18,1.18,0,0,1-.26-1.39,4.14,4.14,0,0,0,.24-.94,6.42,6.42,0,0,0,0-1,16,16,0,0,0-.27-2.33c-.05-.24-.09-.49-.14-.74a21.38,21.38,0,0,1-.5-4.13v0a9.64,9.64,0,0,0-1.43,4.48c-.09,1.07-.09,2.19-.09,3.26a22.48,22.48,0,0,1-.49,5.73,16.49,16.49,0,0,1,3.88-.5C766.31,75.77,767,75.78,767.6,75.79Z" style="fill:#fff"/><path d="M816.44,540.17a4.91,4.91,0,0,0,.32,3.53,44,44,0,0,0,3.77,6.2,43,43,0,0,0,4.23,4.91l.16.16V525.43a34.87,34.87,0,0,0-8.48,14.74Z" style="fill:#fff"/><path d="M787.79,565.48a.15.15,0,0,0,0-.28A42.31,42.31,0,0,0,750.91,570a43.36,43.36,0,0,0-5.39,4.25.71.71,0,0,0-.24.55.93.93,0,0,0,.05.29.75.75,0,0,0,.71.48h23.23a6.34,6.34,0,0,0,4.36-1.72l.27-.26a36.93,36.93,0,0,1,9.59-6.44A37.93,37.93,0,0,1,787.79,565.48Z" style="fill:#fff"/><path d="M820,572.52l-.21-.15-.09-.06a1,1,0,0,1-.77-.35l-.24-.29-.13-.14a34.81,34.81,0,0,0-8.13-4A35.45,35.45,0,0,0,800,565.73h0a1.32,1.32,0,0,0-1.32.95,1.37,1.37,0,0,0-.07.42,1.32,1.32,0,0,0,.6,1.12,45,45,0,0,1,6.69,5.5l.44.45a4.6,4.6,0,0,0,3.31,1.41h13.81c-.39-.41-.77-.82-1.14-1.24C821.5,573.66,820.74,573.05,820,572.52Z" style="fill:#fff"/><path d="M799.28,571.16a43.27,43.27,0,0,0-6.2-3.77,4.92,4.92,0,0,0-3.51-.33h0a35,35,0,0,0-14.78,8.52h29.62l-.2-.2A43.81,43.81,0,0,0,799.28,571.16Z" style="fill:#fff"/><path d="M767.6,513.14h-1.94a16.49,16.49,0,0,1-3.88-.5,22.4,22.4,0,0,1,.49,5.72c0,1.08,0,2.19.09,3.27a9.64,9.64,0,0,0,1.43,4.48v0a21.48,21.48,0,0,1,.5-4.14c.05-.24.09-.49.14-.73a16.36,16.36,0,0,0,.27-2.34,6.23,6.23,0,0,0,0-1,4.14,4.14,0,0,0-.24-.94,1.2,1.2,0,0,1,.26-1.4,1.17,1.17,0,0,1,1.4-.26,2.46,2.46,0,0,0,.34.12l.4.09a5,5,0,0,0,.95.07,11.51,11.51,0,0,0,2.07-.18l1.43-.26a26.66,26.66,0,0,1,3.26-.48h.7a9.38,9.38,0,0,0-3.88-1.36A26.27,26.27,0,0,0,767.6,513.14Z" style="fill:#fff"/><path d="M789.54,21.86h0a4.87,4.87,0,0,0,3.51-.34,43.57,43.57,0,0,0,6.2-3.76,43,43,0,0,0,4.91-4.23l.19-.2H774.77a35,35,0,0,0,5,4A35.13,35.13,0,0,0,789.54,21.86Z" style="fill:#fff"/><path d="M823.52,498.29a2,2,0,0,0-2.28.68c-.65.83-1.28,1.7-1.85,2.57A42.1,42.1,0,0,0,814,513.3a42.59,42.59,0,0,0-1.61,11.61c0,.32,0,.63,0,1a42.37,42.37,0,0,0,2.19,12.54.15.15,0,0,0,.15.12.17.17,0,0,0,.14-.11,38.62,38.62,0,0,1,1.67-4.3,37.39,37.39,0,0,1,6.45-9.59l.22-.23a6.31,6.31,0,0,0,1.72-4.35v-19.7A2,2,0,0,0,823.52,498.29Z" style="fill:#fff"/><path d="M750.91,18.91a42,42,0,0,0,11.77,5.41,42.2,42.2,0,0,0,12.55,1.6,42.5,42.5,0,0,0,12.56-2.19.15.15,0,0,0,.1-.15.15.15,0,0,0-.1-.14,36.14,36.14,0,0,1-4.3-1.68,36.93,36.93,0,0,1-9.59-6.44l-.27-.25a6.3,6.3,0,0,0-4.36-1.73H746.05a.76.76,0,0,0-.72.49.84.84,0,0,0-.05.29.74.74,0,0,0,.24.55A42.36,42.36,0,0,0,750.91,18.91Z" style="fill:#fff"/><path d="M0,0V590.28H836.89V0ZM9.67,12.33a1,1,0,0,1,.17-.57v-.2h0v0h.21a1,1,0,0,1,.62-.21H120.18a1,1,0,0,1,0,2H97.51a4.21,4.21,0,0,0-3,1.28c-.59.61-1.2,1.21-1.81,1.78a44.28,44.28,0,0,1-11.5,7.72,44.67,44.67,0,0,1-12.88,3.76,45.57,45.57,0,0,1-13.5-.24,43.74,43.74,0,0,1-10.34-3.09c-.77.15-1.45.26-2.08.35a38.28,38.28,0,0,1-11.26-.2c-.84-.14-1.69-.32-2.53-.52a1.55,1.55,0,0,0-1.39,2.67,88.21,88.21,0,0,0,8.32,6.57,43.52,43.52,0,0,0,4.65,2.94,9.49,9.49,0,0,0,4.39,1.24,5.06,5.06,0,0,0,2-.4l.12-.05.21-.1c.17-.09.34-.18.5-.28a3.34,3.34,0,0,0,.34-.23,1.31,1.31,0,0,1,.16-.13,1.54,1.54,0,0,0,.19-.17,3.29,3.29,0,0,0,1-1.45A2.94,2.94,0,0,0,49,33c-.42-1.4-1.82-2.91-3.25-2.92a1.6,1.6,0,0,0-.88.24l-.18.12-.15.15,0,0s0,0,0,.05h0a1,1,0,0,1-.07.15l0,.11a.75.75,0,0,1,0,.15v.14a1.42,1.42,0,0,1,.05.16.54.54,0,0,0,.07.13l0,0h0l0,0,.09.08h0l0,0a1.14,1.14,0,0,1,.79,1.37,1.16,1.16,0,0,1-.55.7,1.09,1.09,0,0,1-.84.11,2.81,2.81,0,0,1-1.92-2.09,3.08,3.08,0,0,1,.85-2.95,3.85,3.85,0,0,1,2.89-1,5.32,5.32,0,0,1,3,1.31,6.33,6.33,0,0,1,2.39,5.27,5.92,5.92,0,0,1-3,4.41,8,8,0,0,1-5.45.94,11.83,11.83,0,0,1-3.22-1C42.52,40.89,45.38,43,48.27,45a61.42,61.42,0,0,0,7.84,4.83,15,15,0,0,0,7.82,1.8,10.24,10.24,0,0,0,3.25-.9,9.78,9.78,0,0,0,1.6-1l.17-.13.4-.34a6.85,6.85,0,0,0,.66-.66,6.25,6.25,0,0,0,.9-1.28l.18-.37a1.19,1.19,0,0,0,.08-.2l0,0a7.1,7.1,0,0,0,.25-.87,3.25,3.25,0,0,0,.08-.43.37.37,0,0,0,0-.11c0-.06,0-.12,0-.14a7.23,7.23,0,0,0,0-1,7.08,7.08,0,0,0-.45-1.8,8.59,8.59,0,0,0-2.26-3.19,5.93,5.93,0,0,0-3.37-1.67,3.36,3.36,0,0,0-3,1.2l-.07.12-.07.1-.11.22s0,0,0,0h0c0,.13-.07.26-.1.38s0,0,0,.08a1.7,1.7,0,0,0,0,.22,1.61,1.61,0,0,0,.08.61,1.09,1.09,0,0,0,.05.17v0a.34.34,0,0,1,0,.08,3.27,3.27,0,0,0,.18.33l0,.07h0l.08.09,0,0c.06.07.14.14.2.2l.05,0,0,0,.13.08.08,0,.14.05h0a1.1,1.1,0,0,1,.77.78,1.24,1.24,0,0,1-.33,1.17,1,1,0,0,1-1,.24,4,4,0,0,1-2.77-3.23,4.38,4.38,0,0,1,1.61-4.18,5.91,5.91,0,0,1,4.69-1.16,8.69,8.69,0,0,1,4.39,2.38,9.56,9.56,0,0,1,3.07,8.63,9.44,9.44,0,0,1-5.2,6.26,12.88,12.88,0,0,1-8.69.91,28.07,28.07,0,0,1-8.58-3.89c-3.55-2.24-7.15-4.77-10.72-7.54,2.21,2.87,4.32,5.8,6.27,8.74,3.43,5.16,6.93,11.17,5,17.29a10.59,10.59,0,0,1-5.09,6.46,8.64,8.64,0,0,1-8.75-.85c-2.46-1.69-5-4.93-4.12-8.47a5.09,5.09,0,0,1,3.08-3.59,4.42,4.42,0,0,1,4.23.79,3.63,3.63,0,0,1,1.17,1.82,1.06,1.06,0,0,1-.76,1.34,1.1,1.1,0,0,1-1.42-.76s0-.08,0-.12l0-.11h0c0-.05-.05-.1-.08-.14h0l-.07-.09-.08-.09-.11-.11h0l-.1-.08-.07,0-.06,0a2.12,2.12,0,0,0-1.28-.33H38a3.59,3.59,0,0,0-.41.11h0l-.21.11a2.53,2.53,0,0,0-.31.19,3.1,3.1,0,0,0-.91,1.24c-.91,2.4.88,5,2.94,6.43a7.22,7.22,0,0,0,3.48,1.36,5.57,5.57,0,0,0,3.22-.65,8,8,0,0,0,.73-.45,6.58,6.58,0,0,0,.59-.49,8.11,8.11,0,0,0,.58-.59,6.78,6.78,0,0,0,.77-1,12.71,12.71,0,0,0,.66-1.17,9.48,9.48,0,0,0,.59-1.63A9.85,9.85,0,0,0,50,63.51a15.5,15.5,0,0,0-1-3.93A38.12,38.12,0,0,0,44.78,52c-2.42-3.64-5-7.21-7.78-10.65a9.44,9.44,0,0,1,.73,7.49A6.53,6.53,0,0,1,34,52.74a5.72,5.72,0,0,1-5.57-1.14c-1.87-1.47-3.06-4.09-1.75-6.24a3.12,3.12,0,0,1,2.93-1.58,2.89,2.89,0,0,1,2.59,2,1.06,1.06,0,0,1-.1.83,1.17,1.17,0,0,1-.7.56,1.15,1.15,0,0,1-1.38-.8v0s0,0,0,0v0h0l-.08-.09-.09-.06h0l-.12-.05-.14,0h-.26l-.14,0h0a.88.88,0,0,0-.27.19l0,.06a1.37,1.37,0,0,0-.33.64c-.33,1.34,1,2.69,2,3.26a3.54,3.54,0,0,0,1.94.56A2.83,2.83,0,0,0,34,50.25l.14-.1.1-.07c.13-.12.27-.25.39-.38a3.37,3.37,0,0,0,.54-.69,5.28,5.28,0,0,0,.74-1.91,6.12,6.12,0,0,0,0-2,10.46,10.46,0,0,0-.68-2.3,27.48,27.48,0,0,0-2.58-4.45,90.69,90.69,0,0,0-7.43-9.56l-.07-.07a1.5,1.5,0,0,0-1.87-.34,1.53,1.53,0,0,0-.79,1.76c.22.87.4,1.76.55,2.63a37.94,37.94,0,0,1,.2,11.26c-.08.63-.2,1.31-.34,2.08A43.91,43.91,0,0,1,26,56.49,45.51,45.51,0,0,1,26.2,70a44.62,44.62,0,0,1-3.75,12.89,44.74,44.74,0,0,1-7.73,11.5h0a11.13,11.13,0,0,0-3,7.57V121.8a1,1,0,0,1-2,0Zm67.19,506a26.33,26.33,0,0,1-.29,5,11.54,11.54,0,0,1-2.1,4.72,12.81,12.81,0,0,1-4.33,3.69A7.23,7.23,0,0,1,67,532.9a11.2,11.2,0,0,1-1.66.23,1.09,1.09,0,0,1-.94-.48,1.06,1.06,0,0,1-.43-.87,1.22,1.22,0,0,1,.41-.88,1,1,0,0,1,.74-.25,10.86,10.86,0,0,0,1.1.06l.41,0a9.39,9.39,0,0,0,1.18-.34,8.55,8.55,0,0,0,1.2-.52A4.22,4.22,0,0,0,70.51,528l.06-.18s0-.08,0-.12a3.11,3.11,0,0,0,.11-.41c0-.12.06-.25.08-.37s0-.12,0-.25a9.61,9.61,0,0,0-.07-2c-.09-.67-.22-1.34-.36-2.06a15.74,15.74,0,0,1-.44-4.77,12.3,12.3,0,0,1-3.09-.13c-.57-.08-1.14-.19-1.69-.3-.84-.16-1.7-.33-2.56-.41a8.59,8.59,0,0,0-1.76,0,5.54,5.54,0,0,0-.87.21,3.31,3.31,0,0,0-.57.25,3.62,3.62,0,0,0-1.13.85,3.41,3.41,0,0,0-.28.33h0l-.07.1a9.6,9.6,0,0,0-.87,2.42s0,.09,0,.14,0,.26,0,.39a7.94,7.94,0,0,0,.06,1,1,1,0,0,1-.25.75,1.24,1.24,0,0,1-.88.41,1,1,0,0,1-.86-.43,1.09,1.09,0,0,1-.49-.88v-.06a11.58,11.58,0,0,1,.22-1.63,7.28,7.28,0,0,1,.77-2.59,4.58,4.58,0,0,1,.36-.61c.17-.31.31-.57.47-.81a12.21,12.21,0,0,1,8.68-5.69,30.75,30.75,0,0,1,4.17-.17h1.93a10.85,10.85,0,0,0,5.15-1.17A1.27,1.27,0,0,1,78,511.38a11.64,11.64,0,0,0-1.18,5.85ZM56.78,67.67a.61.61,0,0,1,0,.14,9.89,9.89,0,0,0,.87,2.42l.07.1h0c.1.13.2.23.29.33a3.54,3.54,0,0,0,1.13.85,3.13,3.13,0,0,0,.56.24,7.37,7.37,0,0,0,.87.22,8.61,8.61,0,0,0,1.76,0,24.34,24.34,0,0,0,2.56-.4c.56-.11,1.13-.22,1.69-.3a12.33,12.33,0,0,1,3.1-.14,15.73,15.73,0,0,1,.43-4.77c.14-.71.27-1.38.36-2.06a9.52,9.52,0,0,0,.07-2c0-.13,0-.17,0-.25s0-.25-.07-.38-.07-.27-.12-.4a.5.5,0,0,0,0-.13L70.24,61a4.22,4.22,0,0,0-1.48-1.86,10.54,10.54,0,0,0-1.19-.52,11.59,11.59,0,0,0-1.19-.33l-.41,0a7,7,0,0,0-1.09.06,1,1,0,0,1-.75-.25,1.25,1.25,0,0,1-.41-.88,1.06,1.06,0,0,1,.44-.87,1,1,0,0,1,.93-.48,12.63,12.63,0,0,1,1.66.22,7.4,7.4,0,0,1,3.13,1.12,13,13,0,0,1,4.32,3.69,11.45,11.45,0,0,1,2.1,4.73,26.22,26.22,0,0,1,.29,5V71.7a11.58,11.58,0,0,0,1.18,5.84,1.28,1.28,0,0,1-1.67,1.68A10.85,10.85,0,0,0,71,78.05c-.64,0-1.3,0-1.93,0a30.77,30.77,0,0,1-4.17-.18,12.17,12.17,0,0,1-8.68-5.69,8.06,8.06,0,0,1-.46-.81,6.23,6.23,0,0,1-.37-.61,7.17,7.17,0,0,1-.77-2.58,11.72,11.72,0,0,1-.22-1.64v0a1.07,1.07,0,0,1,.49-.88,1,1,0,0,1,.86-.43,1.2,1.2,0,0,1,.88.41,1,1,0,0,1,.25.74,8.07,8.07,0,0,0-.06,1C56.77,67.41,56.78,67.54,56.78,67.67Zm63.67,509.94H11a1,1,0,0,1-.62-.2h-.21v0h0v-.21a1,1,0,0,1-.17-.56V467.12a1,1,0,0,1,2,0V487a11.09,11.09,0,0,0,3,7.57l0,0a44.28,44.28,0,0,1,7.72,11.5,44.26,44.26,0,0,1,3.76,12.88,45.58,45.58,0,0,1-.24,13.5,43.74,43.74,0,0,1-3.09,10.34c.15.77.26,1.45.35,2.08a38.28,38.28,0,0,1-.2,11.26c-.15.87-.33,1.75-.55,2.63a1.53,1.53,0,0,0,.79,1.75,1.5,1.5,0,0,0,1.87-.34l.06-.07a86.22,86.22,0,0,0,7.43-9.56,26.76,26.76,0,0,0,2.59-4.44,10.38,10.38,0,0,0,.68-2.31,6.12,6.12,0,0,0,0-2,5.08,5.08,0,0,0-.75-1.9,3,3,0,0,0-.53-.69,3.48,3.48,0,0,0-.39-.38l-.1-.08-.14-.1a2.85,2.85,0,0,0-1.62-.54,3.63,3.63,0,0,0-1.94.56c-1,.58-2.3,1.93-2,3.27a1.53,1.53,0,0,0,.32.64l.06,0a1.11,1.11,0,0,0,.27.2h0l.14,0h.26l.14,0,.12-.06h0l.08-.06.09-.08h0v0l0,0v0a1.13,1.13,0,0,1,1.37-.8,1.15,1.15,0,0,1,.71.55,1.08,1.08,0,0,1,.1.84,2.91,2.91,0,0,1-2.59,2A3.13,3.13,0,0,1,27,543.56c-1.32-2.14-.12-4.76,1.74-6.24a5.79,5.79,0,0,1,5.58-1.14A6.58,6.58,0,0,1,38,540.1a9.42,9.42,0,0,1-.73,7.48c2.75-3.43,5.36-7,7.78-10.64a38.7,38.7,0,0,0,4.22-7.6,15.3,15.3,0,0,0,1-3.93,9.8,9.8,0,0,0-.27-3.66,8.57,8.57,0,0,0-.6-1.64,10.5,10.5,0,0,0-.65-1.16,6.3,6.3,0,0,0-.77-1c-.19-.21-.39-.41-.59-.6s-.42-.36-.58-.48a8.09,8.09,0,0,0-.73-.46,5.57,5.57,0,0,0-3.22-.65,7.34,7.34,0,0,0-3.48,1.37c-2.06,1.41-3.85,4-2.94,6.42a3.1,3.1,0,0,0,.91,1.24,1.94,1.94,0,0,0,.31.2l.2.1h0a3.06,3.06,0,0,0,.41.1h.18a2.27,2.27,0,0,0,1.28-.33l.06,0,.07,0a.39.39,0,0,1,.1-.08h0l.11-.11.08-.09.07-.09h0s0-.1.08-.14h0a.37.37,0,0,1,.05-.11.34.34,0,0,1,0-.12,1.1,1.1,0,0,1,1.42-.76,1.06,1.06,0,0,1,.76,1.34,3.6,3.6,0,0,1-1.17,1.81,4.37,4.37,0,0,1-4.23.79,5,5,0,0,1-3.08-3.59c-.9-3.54,1.65-6.77,4.12-8.47a8.66,8.66,0,0,1,8.75-.85A10.61,10.61,0,0,1,52,520.78c1.89,6.12-1.61,12.14-5,17.3-2,2.93-4.06,5.86-6.27,8.73,3.57-2.76,7.17-5.29,10.72-7.53a28.09,28.09,0,0,1,8.58-3.9,12.94,12.94,0,0,1,8.69.91,9.44,9.44,0,0,1,5.2,6.26,9.55,9.55,0,0,1-3.07,8.63,8.62,8.62,0,0,1-4.39,2.38,5.91,5.91,0,0,1-4.69-1.16,4.37,4.37,0,0,1-1.61-4.17A4,4,0,0,1,62.93,545a1,1,0,0,1,1,.23,1.26,1.26,0,0,1,.33,1.17,1.09,1.09,0,0,1-.77.78h0l-.14,0-.08,0a.57.57,0,0,0-.13.08l0,0,0,0-.21.19,0,0-.07.1h0l0,.06a3.51,3.51,0,0,0-.18.34.69.69,0,0,1,0,.08v0a1.21,1.21,0,0,0,0,.18,1.55,1.55,0,0,0-.08.6,1.62,1.62,0,0,0,0,.22s0,.07,0,.09.06.24.1.37v0l.11.21.06.1s.06.08.08.12a3.34,3.34,0,0,0,3,1.2,5.92,5.92,0,0,0,3.37-1.66,8.51,8.51,0,0,0,2.27-3.19,6.22,6.22,0,0,0,.46-2.85,1.23,1.23,0,0,1,0-.13s0-.09,0-.12-.05-.28-.08-.43a6.1,6.1,0,0,0-.26-.86v0a.88.88,0,0,0-.09-.2,3,3,0,0,0-.18-.36,5.91,5.91,0,0,0-.89-1.29,8.13,8.13,0,0,0-.66-.65l-.4-.35-.17-.12a9.78,9.78,0,0,0-1.6-.95,10.24,10.24,0,0,0-3.25-.9,15.08,15.08,0,0,0-7.82,1.79,62.61,62.61,0,0,0-7.84,4.84c-2.89,2-5.75,4.12-8.52,6.33a11.78,11.78,0,0,1,3.22-1,8,8,0,0,1,5.44.93,5.9,5.9,0,0,1,3,4.42,6.3,6.3,0,0,1-2.39,5.27,5.34,5.34,0,0,1-3,1.31,3.89,3.89,0,0,1-2.89-1,3.09,3.09,0,0,1-.85-3,2.82,2.82,0,0,1,1.92-2.08,1.06,1.06,0,0,1,.83.1,1.12,1.12,0,0,1-.23,2.08h0l0,0-.09.07,0,0h0l0,.05-.06.12c0,.05,0,.1,0,.17v0s0,0,0,0V558l0,.12.07.14v0l0,0,0,0,.15.16a.44.44,0,0,1,.17.12,1.72,1.72,0,0,0,.89.24c1.42,0,2.83-1.52,3.25-2.93a2.94,2.94,0,0,0,0-1.83,3.21,3.21,0,0,0-1-1.44l-.19-.18a.57.57,0,0,1-.16-.13l-.34-.23a4.82,4.82,0,0,0-.5-.27l-.21-.11-.12,0a5.29,5.29,0,0,0-2-.4,9.58,9.58,0,0,0-4.39,1.24,43.15,43.15,0,0,0-4.66,3,88.09,88.09,0,0,0-8.31,6.57,1.55,1.55,0,0,0,1.39,2.67c.84-.21,1.69-.38,2.53-.52a37.61,37.61,0,0,1,11.26-.2c.63.08,1.31.19,2.08.34a44.55,44.55,0,0,1,10.34-3.09,45.24,45.24,0,0,1,13.5-.23A44.38,44.38,0,0,1,93,572.53c.61.56,1.22,1.16,1.81,1.77a4.17,4.17,0,0,0,3,1.28h22.67a1,1,0,0,1,0,2Zm596-566.3H825.91a1,1,0,0,1,.62.21h.21v0h0v.2a1,1,0,0,1,.17.57V121.8a1,1,0,0,1-2,0V102a11.13,11.13,0,0,0-3-7.57h0A44.55,44.55,0,0,1,810.42,70a45.51,45.51,0,0,1,.24-13.49,43.47,43.47,0,0,1,3.09-10.34c-.15-.77-.26-1.45-.35-2.08a38.28,38.28,0,0,1,.2-11.26c.15-.87.33-1.76.55-2.63a1.53,1.53,0,0,0-.79-1.76,1.5,1.5,0,0,0-1.87.34l-.06.07A88.12,88.12,0,0,0,804,38.39a26.84,26.84,0,0,0-2.59,4.45,10.46,10.46,0,0,0-.68,2.3,6.12,6.12,0,0,0,0,2,5.13,5.13,0,0,0,.75,1.91,3,3,0,0,0,.53.69c.12.13.26.26.39.38l.1.07.14.1a2.85,2.85,0,0,0,1.62.54,3.54,3.54,0,0,0,1.94-.56c1-.57,2.3-1.92,2-3.26a1.47,1.47,0,0,0-.32-.64l-.06-.06a.88.88,0,0,0-.27-.19h0l-.14,0h-.26l-.14,0-.12.05h0l-.08.06a.75.75,0,0,0-.09.09h0v0l0,0v0a1.14,1.14,0,0,1-1.37.8,1.16,1.16,0,0,1-.71-.56,1.06,1.06,0,0,1-.1-.83,2.89,2.89,0,0,1,2.59-2,3.12,3.12,0,0,1,2.93,1.58c1.32,2.15.12,4.77-1.74,6.24a5.74,5.74,0,0,1-5.58,1.14,6.56,6.56,0,0,1-3.71-3.91,9.44,9.44,0,0,1,.73-7.49c-2.75,3.44-5.36,7-7.78,10.65a38.63,38.63,0,0,0-4.22,7.59,15.5,15.5,0,0,0-1,3.93,9.85,9.85,0,0,0,.27,3.67,8.72,8.72,0,0,0,.6,1.63,10.6,10.6,0,0,0,.65,1.17,6.78,6.78,0,0,0,.77,1,8.21,8.21,0,0,0,.59.59,6.62,6.62,0,0,0,.58.49,8,8,0,0,0,.73.45,5.57,5.57,0,0,0,3.22.65,7.29,7.29,0,0,0,3.49-1.36c2.05-1.42,3.84-4,2.93-6.43a3.1,3.1,0,0,0-.91-1.24,2.53,2.53,0,0,0-.31-.19l-.2-.11h0a3.11,3.11,0,0,0-.41-.11h-.18a2.12,2.12,0,0,0-1.28.33l-.06,0-.07,0-.1.08h0a.57.57,0,0,0-.11.11l-.08.09-.07.09h0s0,.09-.08.14h0l-.05.11a.42.42,0,0,1,0,.12,1.1,1.1,0,0,1-1.42.76,1.06,1.06,0,0,1-.76-1.34,3.63,3.63,0,0,1,1.17-1.82,4.42,4.42,0,0,1,4.23-.79,5.07,5.07,0,0,1,3.08,3.59c.9,3.54-1.65,6.78-4.12,8.47a8.64,8.64,0,0,1-8.75.85,10.59,10.59,0,0,1-5.09-6.46C783,62,786.46,56,789.89,50.85c2-2.94,4.06-5.87,6.27-8.74-3.57,2.77-7.17,5.3-10.72,7.54a27.85,27.85,0,0,1-8.58,3.89,12.88,12.88,0,0,1-8.69-.91,9.44,9.44,0,0,1-5.2-6.26A9.56,9.56,0,0,1,766,37.74a8.69,8.69,0,0,1,4.39-2.38,5.91,5.91,0,0,1,4.69,1.16,4.38,4.38,0,0,1,1.61,4.18A4,4,0,0,1,774,43.93a1,1,0,0,1-1-.24,1.24,1.24,0,0,1-.33-1.17,1.1,1.1,0,0,1,.77-.78h0l.14-.05.08,0,.13-.08,0,0,.05,0,.21-.2,0,0,.07-.09.05-.07a3.27,3.27,0,0,0,.18-.33.34.34,0,0,1,0-.08v0a1.09,1.09,0,0,0,.05-.17,1.61,1.61,0,0,0,.08-.61,1.7,1.7,0,0,0,0-.22s0-.07,0-.08-.06-.25-.1-.38h0l0,0c0-.08-.07-.15-.11-.22l-.06-.1a.83.83,0,0,1-.08-.12,3.34,3.34,0,0,0-3-1.2,5.88,5.88,0,0,0-3.37,1.67,8.51,8.51,0,0,0-2.27,3.19,7.08,7.08,0,0,0-.45,1.8,6,6,0,0,0,0,1,.88.88,0,0,0,0,.14s0,.08,0,.11,0,.29.08.43a7.31,7.31,0,0,0,.26.87v0a.72.72,0,0,0,.09.2,2.53,2.53,0,0,0,.18.37,5.85,5.85,0,0,0,.89,1.28,6.85,6.85,0,0,0,.66.66l.4.34.17.13a9.89,9.89,0,0,0,4.85,1.85,15,15,0,0,0,7.82-1.8A61.42,61.42,0,0,0,788.35,45c2.89-2,5.75-4.12,8.52-6.34a11.83,11.83,0,0,1-3.22,1,8,8,0,0,1-5.44-.94,5.87,5.87,0,0,1-3-4.41,6.28,6.28,0,0,1,2.39-5.27,5.27,5.27,0,0,1,3-1.31,3.85,3.85,0,0,1,2.89,1,3.08,3.08,0,0,1,.85,2.95,2.81,2.81,0,0,1-1.92,2.09,1.06,1.06,0,0,1-.83-.11,1.12,1.12,0,0,1,.23-2.07l0,0h0l.09-.08,0,0h0l0,0,.06-.13a1.42,1.42,0,0,1,.05-.16v-.05a0,0,0,0,0,0,0v-.21l0-.11-.07-.15h0l0-.05,0,0-.15-.15a.88.88,0,0,1-.17-.12,1.63,1.63,0,0,0-.89-.24c-1.42,0-2.83,1.52-3.25,2.92a2.94,2.94,0,0,0,0,1.83,3.29,3.29,0,0,0,1,1.45,1.54,1.54,0,0,0,.19.17.83.83,0,0,1,.16.13c.1.08.22.15.34.23s.33.19.5.28l.21.1.12.05a5.1,5.1,0,0,0,2,.4,9.46,9.46,0,0,0,4.39-1.24,44.72,44.72,0,0,0,4.66-2.94,88.09,88.09,0,0,0,8.31-6.57A1.55,1.55,0,0,0,808,24.18c-.84.2-1.69.38-2.53.52a38.28,38.28,0,0,1-11.26.2c-.63-.09-1.31-.2-2.08-.35a43.61,43.61,0,0,1-10.34,3.09,45.51,45.51,0,0,1-13.49.24,44.64,44.64,0,0,1-12.89-3.76,44.45,44.45,0,0,1-11.5-7.72c-.61-.57-1.22-1.17-1.81-1.78a4.21,4.21,0,0,0-3-1.28H716.44a1,1,0,0,1,0-2Zm63.4,510s0-.09,0-.14a9.6,9.6,0,0,0-.87-2.42l-.07-.1v0c-.1-.12-.19-.23-.28-.32a3.47,3.47,0,0,0-1.13-.85,3.68,3.68,0,0,0-.57-.25A5.54,5.54,0,0,0,776,517a8,8,0,0,0-1.76,0,24.34,24.34,0,0,0-2.56.4c-.55.11-1.13.22-1.69.3a12.3,12.3,0,0,1-3.09.13,15.74,15.74,0,0,1-.44,4.77c-.14.72-.27,1.39-.36,2.06a9.61,9.61,0,0,0-.07,2c0,.13,0,.16,0,.25s0,.25.08.37a3.11,3.11,0,0,0,.11.41s0,.08,0,.12l.06.18a4.22,4.22,0,0,0,1.48,1.86,8.55,8.55,0,0,0,1.2.52,9.39,9.39,0,0,0,1.18.34l.41,0a10.86,10.86,0,0,0,1.1-.06,1,1,0,0,1,.74.25,1.24,1.24,0,0,1,.41.88,1.06,1.06,0,0,1-.43.87,1.09,1.09,0,0,1-.94.48,11.2,11.2,0,0,1-1.66-.23,7.23,7.23,0,0,1-3.12-1.12,12.81,12.81,0,0,1-4.33-3.69,11.41,11.41,0,0,1-2.1-4.72,26.33,26.33,0,0,1-.29-5v-1.14a11.64,11.64,0,0,0-1.18-5.85,1.27,1.27,0,0,1,1.67-1.67,10.85,10.85,0,0,0,5.15,1.17h1.93a30.75,30.75,0,0,1,4.17.17,12.21,12.21,0,0,1,8.68,5.69c.16.24.3.5.47.81a4.58,4.58,0,0,1,.36.61,7.28,7.28,0,0,1,.77,2.59,11.58,11.58,0,0,1,.22,1.63v.06a1.07,1.07,0,0,1-.49.88,1,1,0,0,1-.86.43,1.21,1.21,0,0,1-.88-.42,1,1,0,0,1-.25-.74,7.94,7.94,0,0,0,.06-1C779.85,521.52,779.85,521.39,779.84,521.26ZM760,70.55a26.18,26.18,0,0,1,.29-5,11.58,11.58,0,0,1,2.1-4.73,12.93,12.93,0,0,1,4.33-3.69A7.36,7.36,0,0,1,769.87,56a11.14,11.14,0,0,1,1.66-.22,1.07,1.07,0,0,1,.94.48,1,1,0,0,1,.43.87,1.25,1.25,0,0,1-.41.88,1,1,0,0,1-.74.25,7.08,7.08,0,0,0-1.1-.06l-.41,0a11.41,11.41,0,0,0-1.18.33,9.91,9.91,0,0,0-1.2.52A4.22,4.22,0,0,0,766.38,61l-.06.18s0,.08,0,.13a3,3,0,0,0-.11.4c0,.13-.06.25-.08.38s0,.12,0,.25a9.52,9.52,0,0,0,.07,2c.09.68.22,1.35.36,2.06a15.74,15.74,0,0,1,.44,4.77,12.27,12.27,0,0,1,3.09.14c.57.08,1.14.19,1.69.3.84.16,1.7.32,2.56.4A8.61,8.61,0,0,0,776,72a6.9,6.9,0,0,0,.87-.22,3.53,3.53,0,0,0,.57-.24,3.78,3.78,0,0,0,1.13-.85c.09-.1.18-.2.28-.33h0l.07-.1a9.89,9.89,0,0,0,.87-2.42s0-.1,0-.14,0-.26,0-.4a8.07,8.07,0,0,0-.06-1,1,1,0,0,1,.25-.74,1.2,1.2,0,0,1,.88-.41,1,1,0,0,1,.86.43,1.07,1.07,0,0,1,.49.88v0a11.72,11.72,0,0,1-.22,1.64,7.17,7.17,0,0,1-.77,2.58,4.58,4.58,0,0,1-.36.61,8,8,0,0,1-.47.81,12.16,12.16,0,0,1-8.68,5.69,30.77,30.77,0,0,1-4.17.18c-.63,0-1.29,0-1.93,0a10.85,10.85,0,0,0-5.15,1.17,1.28,1.28,0,0,1-1.67-1.68A11.58,11.58,0,0,0,760,71.7ZM827,576.6a1,1,0,0,1-.17.56v.21h0v0h-.21a1,1,0,0,1-.62.2H716.44a1,1,0,0,1,0-2h22.67a4.17,4.17,0,0,0,3-1.28c.59-.61,1.2-1.21,1.81-1.77a44.38,44.38,0,0,1,24.38-11.48,45.24,45.24,0,0,1,13.5.23,44.55,44.55,0,0,1,10.34,3.09c.77-.15,1.45-.26,2.08-.34a37.61,37.61,0,0,1,11.26.2c.84.14,1.69.31,2.53.52a1.55,1.55,0,0,0,1.39-2.67,89.39,89.39,0,0,0-8.31-6.57,43.15,43.15,0,0,0-4.66-3,9.58,9.58,0,0,0-4.39-1.24,5.25,5.25,0,0,0-2,.4l-.12,0-.21.1c-.17.09-.34.18-.5.28l-.34.23a.83.83,0,0,1-.16.13l-.19.17a3.29,3.29,0,0,0-1,1.45,2.94,2.94,0,0,0,0,1.83c.42,1.41,1.83,2.92,3.25,2.93a1.75,1.75,0,0,0,.89-.24.64.64,0,0,1,.17-.13l.15-.15,0,0s0,0,0,0v0l.07-.14,0-.12v-.21s0,0,0,0v0c0-.07,0-.12-.05-.17l-.06-.12,0-.05h0l0,0-.09-.07,0,0h0a1.13,1.13,0,0,1-.24-2.08,1.08,1.08,0,0,1,.84-.1,2.82,2.82,0,0,1,1.92,2.08,3.09,3.09,0,0,1-.85,3,3.89,3.89,0,0,1-2.89,1,5.46,5.46,0,0,1-3-1.31,6.32,6.32,0,0,1-2.38-5.27,5.92,5.92,0,0,1,3-4.42,8,8,0,0,1,5.45-.94,12.18,12.18,0,0,1,3.22,1c-2.77-2.22-5.63-4.34-8.52-6.33a61.46,61.46,0,0,0-7.84-4.84,15,15,0,0,0-7.82-1.79,10.24,10.24,0,0,0-3.25.9,9.78,9.78,0,0,0-1.6.95l-.17.12-.4.35a8.13,8.13,0,0,0-.66.65,5.91,5.91,0,0,0-.89,1.29,3,3,0,0,0-.18.36.88.88,0,0,0-.09.2l0,0a7.54,7.54,0,0,0-.25.86c0,.15-.06.29-.08.43s0,.08,0,.12a1.23,1.23,0,0,1,0,.13,7.23,7.23,0,0,0,0,1,7.08,7.08,0,0,0,.45,1.8,8.62,8.62,0,0,0,2.26,3.2,6,6,0,0,0,3.38,1.66,3.34,3.34,0,0,0,3-1.2,1.27,1.27,0,0,0,.07-.12l.07-.1.11-.21v0c0-.13.07-.25.1-.37s0-.06,0-.09a1.62,1.62,0,0,0,0-.22,1.55,1.55,0,0,0-.08-.6,1.21,1.21,0,0,0-.05-.18v0l0-.08a3.51,3.51,0,0,0-.18-.34l-.05-.06-.07-.1,0,0-.21-.19-.05,0,0,0a.57.57,0,0,0-.13-.08l-.08,0-.14,0h0a1.09,1.09,0,0,1-.77-.78,1.26,1.26,0,0,1,.33-1.17,1,1,0,0,1,1-.23,4,4,0,0,1,2.77,3.22,4.38,4.38,0,0,1-1.61,4.18,5.91,5.91,0,0,1-4.69,1.16,8.62,8.62,0,0,1-4.39-2.38,9.55,9.55,0,0,1-3.07-8.63,9.44,9.44,0,0,1,5.2-6.26,12.94,12.94,0,0,1,8.69-.91,28.09,28.09,0,0,1,8.58,3.9c3.55,2.24,7.15,4.77,10.72,7.53-2.21-2.87-4.32-5.8-6.27-8.73-3.43-5.16-6.93-11.18-5-17.3a10.61,10.61,0,0,1,5.09-6.46,8.66,8.66,0,0,1,8.75.85c2.46,1.7,5,4.93,4.12,8.47a5.07,5.07,0,0,1-3.08,3.59,4.37,4.37,0,0,1-4.23-.79,3.64,3.64,0,0,1-1.17-1.81,1.06,1.06,0,0,1,.76-1.34,1.1,1.1,0,0,1,1.42.75.5.5,0,0,1,0,.13.37.37,0,0,1,.05.11h0l.08.13h0l.07.09a.6.6,0,0,0,.08.08h0l.11.12h0l.1.08.07,0,.06,0a2.27,2.27,0,0,0,1.28.33h.18a3.48,3.48,0,0,0,.41-.1h0l.21-.1a1.94,1.94,0,0,0,.31-.2,3.1,3.1,0,0,0,.91-1.24c.91-2.39-.88-5-2.94-6.42a7.34,7.34,0,0,0-3.48-1.37,5.57,5.57,0,0,0-3.22.65,8.09,8.09,0,0,0-.73.46,6.61,6.61,0,0,0-.58.48l-.59.59a6.8,6.8,0,0,0-.77,1,10.5,10.5,0,0,0-.65,1.16,8.57,8.57,0,0,0-.6,1.64,9.8,9.8,0,0,0-.27,3.66,15.3,15.3,0,0,0,1,3.93,38.34,38.34,0,0,0,4.22,7.59c2.42,3.64,5,7.22,7.78,10.65a9.42,9.42,0,0,1-.73-7.48,6.55,6.55,0,0,1,3.71-3.92,5.77,5.77,0,0,1,5.58,1.14c1.86,1.48,3.06,4.1,1.74,6.24a3.13,3.13,0,0,1-2.93,1.59,2.91,2.91,0,0,1-2.59-2,1.08,1.08,0,0,1,.1-.84,1.16,1.16,0,0,1,.7-.55,1.13,1.13,0,0,1,1.38.8v0l0,.06v0h0l.09.08.08.06h0l.12.06.14,0h.26a.58.58,0,0,0,.14,0h0a1.11,1.11,0,0,0,.27-.2l.06,0a1.53,1.53,0,0,0,.32-.64c.34-1.34-1-2.69-2-3.27a3.63,3.63,0,0,0-1.94-.56,2.85,2.85,0,0,0-1.62.54l-.14.1-.1.08a4.51,4.51,0,0,0-.39.37,3.31,3.31,0,0,0-.53.7,5.08,5.08,0,0,0-.75,1.9,6.12,6.12,0,0,0,0,2,10.38,10.38,0,0,0,.68,2.31,26.76,26.76,0,0,0,2.59,4.44,87.34,87.34,0,0,0,7.42,9.56l.07.07a1.5,1.5,0,0,0,1.87.34,1.53,1.53,0,0,0,.79-1.75c-.22-.88-.4-1.76-.55-2.64a37.87,37.87,0,0,1-.2-11.25c.09-.63.2-1.31.34-2.08a44.19,44.19,0,0,1-3.08-10.34,45.58,45.58,0,0,1-.24-13.5,44.48,44.48,0,0,1,11.48-24.38l0,0a11.09,11.09,0,0,0,3-7.57V467.12a1,1,0,0,1,2,0Z" style="fill:#fff"/><path d="M823.1,556.47a45.6,45.6,0,0,1-5.51-6.68,1.36,1.36,0,0,0-2.49.75v.09a35,35,0,0,0,5.9,18.74l.11.09.18.15a1,1,0,0,1,.33.65l.08.12.18.26c.54.73,1.15,1.49,1.82,2.26.41.36.81.73,1.21,1.1V560.21a4.71,4.71,0,0,0-1.41-3.34C823.37,556.74,823.23,556.61,823.1,556.47Z" style="fill:#fff"/></svg>