<svg width="1350" height="952" viewBox="0 0 1350 952" xmlns="http://www.w3.org/2000/svg">
<path d="M1142.91 85C1154.98 146.547 1203.45 195.019 1265 207.093V744.905C1203.45 756.979 1154.98 805.453 1142.91 867H207.094C195.02 805.453 146.547 756.979 85 744.905V207.093C146.547 195.019 195.02 146.547 207.094 85H1142.91Z" fill="white"/>
<path fill-rule="evenodd" clip-rule="evenodd" d="M1165.09 60C1167.66 127.821 1222.18 182.34 1290 184.904V767.095C1222.18 769.66 1167.66 824.179 1165.09 892H184.905C182.34 824.179 127.821 769.66 60 767.095V184.904C127.821 182.34 182.34 127.821 184.905 60H1165.09ZM198.63 75C189.789 139.079 139.079 189.789 75 198.63V753.369C139.079 762.21 189.789 812.921 198.63 877H1151.37C1160.21 812.921 1210.92 762.21 1275 753.369V198.63C1210.92 189.789 1160.21 139.079 1151.37 75H198.63Z" fill="white"/>
<path fill-rule="evenodd" clip-rule="evenodd" d="M1350 952H0V0H1350V952ZM180 55C180 124.036 124.036 180 55 180V772C124.036 772 180 827.964 180 897H1170C1170 827.964 1225.96 772 1295 772V180C1225.96 180 1170 124.036 1170 55H180Z" fill="white"/>
</svg>
