<svg viewBox="0 0 1350 953" xmlns="http://www.w3.org/2000/svg" fill="#ffffff">
    <defs>
        <pattern id="pattern-bg" patternUnits="userSpaceOnUse" width="200" height="200">
            <path d="M12.627 200H0V187.373L12.627 200Z"/>
            <path d="M65.959 160L53.333 172.626L26.666 145.96L25.959 146.667L52.626 173.333L25.959 200H14.041L27.374 186.667L27.373 186.666L40.7061 173.333L14.0391 146.665L26.666 134.04L53.333 160.707L54.04 160L26.666 132.626L0 159.292V147.373L13.333 134.039L13.334 134.04L26.666 120.707L65.959 160Z"/>
            <path d="M119.292 186.666L105.959 200H94.041L107.374 186.666L93.333 172.626L79.999 185.959L66.666 172.626L65.959 173.333L79.292 186.666L66.666 199.292L53.333 185.96L39.293 200H27.373L40.7061 186.667L40.7051 186.666L53.333 174.039L66.667 187.373L67.374 186.666L54.04 173.332L66.666 160.707L80 174.04L93.333 160.706L119.292 186.666Z"/>
            <path d="M65.96 200H40.707L53.333 187.373L65.96 200Z"/>
            <path d="M105.96 186.666L92.627 200H80.707L94.04 186.667L93.333 185.96L79.293 200H67.374L67.373 199.999L80.7061 186.667L80.7051 186.666L93.333 174.039L105.96 186.666Z"/>
            <path d="M132.626 200H107.373L119.999 187.373L132.626 200Z"/>
            <path d="M132.626 26.666L119.999 39.293L107.373 26.667L107.374 26.666L93.333 12.626L39.999 65.959L27.373 53.333L40.7061 40L39.999 39.293L25.959 53.333L39.292 66.666L25.959 80L26.666 80.707L39.999 67.373L66.667 94.04L67.374 93.333L67.373 93.332L80.7061 80L79.999 79.293L66.666 92.625L54.041 80L67.374 66.667L66.667 65.96L53.333 79.293L40.7051 66.665L53.333 54.0391L53.334 54.04L67.374 40L67.373 39.999L79.999 27.373L105.959 53.333L93.333 65.959L80 52.626L79.293 53.333L159.292 133.333L146.666 145.958L133.333 132.626L105.959 160L145.96 200H134.04L94.041 160L107.374 146.667L107.372 146.665L119.999 134.039L120 134.04L133.333 120.706L146.667 134.04L147.374 133.333L67.373 53.332L79.999 40.7061L93.333 54.04L94.04 53.333L79.999 39.293L52.627 66.666L53.334 67.373L66.666 54.04L79.292 66.666L65.959 80L66.666 80.707L79.999 67.373L92.626 80L66.666 105.958L39.999 79.293L26.666 92.625L14.041 80L27.374 66.666L14.041 53.333L27.374 40L27.373 39.999L39.999 27.373L52.626 40L39.293 53.333L40 54.04L53.333 40.7061L53.334 40.707L67.374 26.666L67.373 26.665L79.999 14.0391L80 14.04L93.333 0.706055L119.999 27.373L120.706 26.666L94.04 0H105.959L132.626 26.666Z"/>
            <path d="M172.626 200H160.706L147.373 186.667L147.374 186.666L133.334 172.626L132.627 173.333L145.96 186.666L145.959 186.667L159.292 200H147.374L120.706 173.332L133.333 160.706L172.626 200Z"/>
            <path d="M200 159.294L199.999 159.293L172.627 186.667L185.96 200H174.04L160.706 186.666L173.333 174.039L173.334 174.04L187.374 160L187.373 159.999L200 147.372V159.294Z"/>
            <path d="M200 200H187.374L187.373 199.999L200 187.372V200Z"/>
            <path d="M13.334 174.04L26.666 160.707L39.292 173.333L25.959 186.666L25.96 186.667L13.333 199.293L0 185.96V174.039L13.334 187.373L27.374 173.333L26.667 172.626L13.333 185.959L0 172.626V160.706L13.334 174.04Z"/>
            <path d="M199.292 186.666L186.666 199.292L174.04 186.666L186.666 174.04L199.292 186.666Z"/>
            <path fill-rule="evenodd" clip-rule="evenodd" d="M172.626 173.333L159.999 185.959L134.04 159.999L146.666 147.374L172.626 173.333ZM145.959 160L159.999 174.04L160.706 173.333L146.666 159.293L145.959 160Z"/>
            <path d="M200 185.959L187.373 173.332L200 160.705V185.959Z"/>
            <path d="M25.959 160L13.333 172.626L0.706055 159.999L13.333 147.373L25.959 160Z"/>
            <path fill-rule="evenodd" clip-rule="evenodd" d="M79.292 120L65.959 133.333L92.626 160L79.999 172.626L40.7061 133.332L53.333 120.706L53.334 120.707L66.666 107.374L79.292 120ZM52.627 133.333L65.96 146.666L65.959 146.667L79.999 160.707L80.7061 160L67.373 146.667L67.374 146.666L54.041 133.333L67.374 120L66.667 119.293L52.627 133.333Z"/>
            <path fill-rule="evenodd" clip-rule="evenodd" d="M145.959 146.665V146.667L119.999 172.626L107.373 160L120.706 146.667L120.705 146.666L133.333 134.039L145.959 146.665ZM119.293 160L120 160.707L134.04 146.667L133.333 145.96L119.293 160Z"/>
            <path d="M186.667 54.04L187.374 53.333L187.373 53.332L200 40.7051V52.627L199.999 52.626L186.666 65.958L146.666 25.96L145.959 26.667L185.959 66.665V66.667L173.333 79.293L146.667 52.626L133.333 65.959L120 52.626L119.293 53.333L133.334 67.373L146.666 54.04L159.292 66.666L133.333 92.626L106.666 65.96L105.959 66.667L146.667 107.373L147.374 106.666L147.373 106.665L159.999 94.0391L172.626 106.666L159.293 120L172.626 133.333L159.293 146.667L173.334 160.707L187.374 146.667L186.667 145.96L173.333 159.293L160.706 146.666L174.04 133.333L160.706 119.999L173.333 107.373L199.999 134.04L200 134.039V145.959L173.334 119.293L172.627 120L185.959 133.333L172.627 146.666L173.334 147.373L186.666 134.04L199.292 146.666L173.333 172.626L147.373 146.667L147.374 146.666L147.373 146.665L160.706 133.333L147.373 119.999L160.706 106.667L159.999 105.96L146.666 119.292L94.04 66.666L106.666 54.04L133.334 80.707L147.374 66.667L146.667 65.96L133.333 79.293L107.373 53.332L119.999 40.7061L133.334 54.04L146.666 40.707L173.333 67.373L174.04 66.666L134.039 26.665L146.666 14.04L186.667 54.04Z"/>
            <path fill-rule="evenodd" clip-rule="evenodd" d="M93.334 134.04L106.666 120.707L119.292 133.333L105.959 146.666L105.96 146.667L93.333 159.293L67.3721 133.332L79.999 120.706L93.334 134.04ZM93.333 145.959L80 132.626L79.293 133.333L93.334 147.373L107.374 133.333L106.667 132.626L93.333 145.959Z"/>
            <path d="M12.626 133.333L0 145.959V120.707L12.626 133.333Z"/>
            <path d="M25.959 120L13.333 132.626L0 119.293V107.374L13.333 120.707L14.04 120L0 105.96V94.04L25.959 120Z"/>
            <path fill-rule="evenodd" clip-rule="evenodd" d="M52.626 93.333L39.293 106.666L40 107.373L53.333 94.0391L65.959 106.665V106.667L39.999 132.626L14.04 106.666L27.374 93.333L27.373 93.332L39.999 80.7061L52.626 93.333ZM25.959 106.667L40 120.707L54.04 106.667L53.333 105.96L39.999 119.293L27.3721 106.666L40.7061 93.333L39.999 92.626L25.959 106.667Z"/>
            <path fill-rule="evenodd" clip-rule="evenodd" d="M105.959 120L93.333 132.626L67.373 106.667L67.374 106.666L67.373 106.665L79.999 94.0391L105.959 120ZM79.293 106.667L93.333 120.707L94.04 120L80 105.96L79.293 106.667Z"/>
            <path fill-rule="evenodd" clip-rule="evenodd" d="M132.626 120L119.999 132.626L94.04 106.666L106.666 94.04L132.626 120ZM105.959 106.667L119.999 120.707L120.706 120L106.666 105.96L105.959 106.667Z"/>
            <path d="M199.999 80.707L200 80.7061V92.627L186.666 79.293L185.959 80L199.292 93.333L185.959 106.667L199.999 120.707L200 120.706V132.626L174.04 106.666L187.374 93.333L174.04 79.999L186.666 67.374L199.999 80.707Z"/>
            <path d="M200 119.294L187.372 106.666L200 94.0381V119.294Z"/>
            <path d="M25.959 93.333L13.333 105.959L0 92.626V80.707L13.333 94.04L14.04 93.333L0 79.293V67.374L25.959 93.333Z"/>
            <path d="M105.959 93.333L93.333 105.959L80.7061 93.332L93.333 80.7061L105.959 93.333Z"/>
            <path d="M185.96 93.333L173.333 105.959L160.706 93.332L173.333 80.7061L185.96 93.333Z"/>
            <path fill-rule="evenodd" clip-rule="evenodd" d="M172.626 80L146.666 105.958L134.041 93.333L147.374 80L147.373 79.999L159.999 67.373L172.626 80ZM145.959 93.333L146.666 94.04L160.706 80L159.999 79.293L145.959 93.333Z"/>
            <path d="M200 79.2939L187.373 66.667L187.374 66.666L187.373 66.665L200 54.0381V79.2939Z"/>
            <path d="M25.96 66.666L13.333 79.293L0 65.96V54.04L13.333 67.373L14.04 66.666L0 52.626V40.7061L25.96 66.666Z"/>
            <path d="M52.627 13.333L65.96 26.667L53.333 39.293L39.999 25.96L26.666 39.292L13.334 25.96L12.627 26.667L25.959 40L13.333 52.626L0 39.293V27.374L13.333 40.707L14.04 40L0.706055 26.666L13.333 14.0391L26.667 27.373L27.374 26.666L27.373 26.665L39.999 14.0391L53.333 27.373L54.04 26.666L40.707 13.333L54.04 0H65.96L52.627 13.333Z"/>
            <path d="M145.959 40L133.333 52.626L120.706 39.999L133.333 27.373L145.959 40Z"/>
            <path d="M119.292 40L106.666 52.625L94.04 39.999L106.666 27.374L119.292 40Z"/>
            <path d="M172.627 26.667L186.667 40.707L187.374 40L174.04 26.666L187.374 13.333L187.373 13.332L200 0.705078V12.627L199.999 12.626L185.959 26.667L199.292 40L186.666 52.625L160.706 26.666L173.333 14.0391L173.334 14.04L187.374 0H199.292L172.627 26.667Z"/>
            <path d="M200 39.2939L187.372 26.666L200 14.0381V39.2939Z"/>
            <path d="M105.96 26.666L93.333 39.293L80.7051 26.665L93.333 14.0391L105.96 26.666Z"/>
            <path d="M39.292 13.333L26.666 25.958L13.333 12.626L0 25.959V14.04L13.333 0.706055L26.667 14.04L27.374 13.333L14.04 0H25.959L39.292 13.333Z"/>
            <path d="M145.959 13.333L133.333 25.959L120.706 13.332L133.333 0.706055L145.959 13.333Z"/>
            <path d="M159.999 14.04L160.706 13.333L147.373 0H159.293L172.626 13.333L159.999 25.959L134.04 0H145.959L159.999 14.04Z"/>
            <path d="M65.959 13.333L66.666 14.04L80.7061 0H92.626L66.666 25.958L54.041 13.333L67.374 0H79.292L65.959 13.333Z"/>
            <path d="M0 12.626V0H12.626L0 12.626Z"/>
            <path d="M39.999 12.626L27.373 0H52.626L39.999 12.626Z"/>
            <path d="M119.999 12.626L107.373 0H132.626L119.999 12.626Z"/>
            <path d="M173.333 12.626L160.707 0H185.96L173.333 12.626Z"/>
        </pattern>
    </defs>
    <rect width="1500" height="1000" fill="url(#pattern-bg)"/>
</svg>
