<svg width="240" height="240" viewBox="0 0 240 240" xmlns="http://www.w3.org/2000/svg">
<path d="M240 240H120C186.274 240 240 186.274 240 120C240 53.7258 186.274 0 120 0C53.7258 5.47626e-07 5.47768e-07 53.7258 0 120C0 186.274 53.7258 240 120 240H0V0H240V240Z" fill="white"/>
<path d="M120 19.4697C175.521 19.4697 220.53 64.4789 220.53 120C220.53 175.521 175.521 220.53 120 220.53C64.4789 220.53 19.4697 175.521 19.4697 120C19.4697 64.4789 64.4789 19.4697 120 19.4697Z" fill="white"/>
<path fill-rule="evenodd" clip-rule="evenodd" d="M120 13.5098C178.813 13.5098 226.49 61.1872 226.49 120C226.49 178.813 178.813 226.49 120 226.49C61.1872 226.49 13.5098 178.813 13.5098 120C13.5098 61.1872 61.1872 13.5098 120 13.5098ZM120 17.8809C63.6011 17.8809 17.8809 63.6011 17.8809 120C17.8809 176.399 63.6011 222.119 120 222.119C176.399 222.119 222.119 176.399 222.119 120C222.119 63.6011 176.399 17.8809 120 17.8809Z" fill="white"/>
<path fill-rule="evenodd" clip-rule="evenodd" d="M120 7.5498C182.105 7.5498 232.45 57.8954 232.45 120C232.45 182.105 182.105 232.45 120 232.45C57.8954 232.45 7.5498 182.105 7.5498 120C7.54981 57.8954 57.8954 7.54981 120 7.5498ZM120 11.9209C60.3094 11.9209 11.9209 60.3094 11.9209 120C11.9209 179.691 60.3094 228.079 120 228.079C179.691 228.079 228.079 179.691 228.079 120C228.079 60.3094 179.691 11.9209 120 11.9209Z" fill="white"/>
<path fill-rule="evenodd" clip-rule="evenodd" d="M120 1.58984C185.396 1.58984 238.41 54.6036 238.41 120C238.41 185.396 185.396 238.41 120 238.41C54.6036 238.41 1.58984 185.396 1.58984 120C1.58984 54.6036 54.6036 1.58984 120 1.58984ZM120 5.95996C57.0176 5.95996 5.95996 57.0176 5.95996 120C5.95996 182.982 57.0176 234.04 120 234.04C182.982 234.04 234.04 182.982 234.04 120C234.04 57.0176 182.982 5.95996 120 5.95996Z" fill="white"/>
</svg>
