<svg xmlns="http://www.w3.org/2000/svg" viewBox="0 0 307.99 46.65"><path d="M306.54,42.84H1.44a1,1,0,0,1,0-1.91h305.1a1,1,0,0,1,0,1.91" style="fill:#d7a520"/><path d="M222,46.65H86a1,1,0,1,1,0-1.9H222a1,1,0,1,1,0,1.9" style="fill:#d7a520"/><path d="M120.49,29.11l.33.34c8.23,8.52,13.68,14.15,23.71,10.2,3.75-1.48,6-4.24,6.44-7.76a11.31,11.31,0,0,0-5-10.35c-2.49-1.72-7.86-4-15.91.19a35.54,35.54,0,0,0-9.61,7.38m17.84,13.76c-7.19,0-12.33-5.32-18.88-12.1l-.26-.27L118,31.77c-4.9,5.43-9.52,10.56-22.12,10.56-6.68,0-12-3.07-14.64-8.44-2.33-4.76-2-10.45.86-14.14,2.55-3.31,6.65-4.58,11.56-3.58,3.58.74,6,2.76,6.92,5.69a10,10,0,0,1-2.5,9.45,6.19,6.19,0,0,1-6.24,1.83A1,1,0,0,1,91.24,32a.94.94,0,0,1,1.18-.64A4.37,4.37,0,0,0,96.77,30a8,8,0,0,0,2-7.55c-.68-2.26-2.58-3.77-5.48-4.37-4.16-.85-7.59.17-9.67,2.87-2.42,3.14-2.68,8-.66,12.14,2.3,4.69,7,7.38,12.93,7.38,11.75,0,15.9-4.61,20.71-9.94l1.23-1.36c-5.78-5.95-13-12.93-23.72-18.27C81,4.31,72,6.53,66.68,9.54c-6.91,3.94-10.43,10.88-10.79,15.65-.4,5.36,1,10.12,3.66,12.72,2.09,2,5,2.84,8.54,2.43,6-.67,6.75-4.58,6.81-6.24.11-2.65-1.35-5.28-3.11-5.63a4.3,4.3,0,0,0-5.12,2.44.95.95,0,0,1-1.77-.69,6.22,6.22,0,0,1,7.25-3.62c2.71.53,4.8,3.93,4.65,7.58-.17,4.46-3.35,7.48-8.49,8.06-4.18.47-7.56-.52-10.08-3-3.14-3-4.68-8.23-4.24-14.24.4-5.26,4.24-12.88,11.75-17.17C71.42,4.64,81.1,2.23,95,9.15c11,5.47,18.3,12.55,24.18,18.59A37.42,37.42,0,0,1,129.23,20c6.52-3.39,13-3.41,17.86-.07a13.24,13.24,0,0,1,5.77,12.14c-.48,4.19-3.26,7.59-7.63,9.31a18.7,18.7,0,0,1-6.9,1.45" style="fill:#d7a520"/><path d="M139.75,37.75c-6.95,0-15.23-8-29-21.43C93.54-.38,77,2,76.86,2.07a1,1,0,0,1-1.09-.79,1,1,0,0,1,.79-1.1C77.27.07,94.18-2.41,112.06,15c19.78,19.21,26.38,25,33.6,18.13a.95.95,0,0,1,1.3,1.38c-2.36,2.24-4.7,3.29-7.21,3.29" style="fill:#d7a520"/><path d="M39.55,42a16.61,16.61,0,0,1-4.68-.7c-5.22-1.54-6.6-5-6.95-6.91a9,9,0,0,1,3.32-8.58,8.22,8.22,0,0,1,8.83-.64,1,1,0,0,1-.83,1.72,6.28,6.28,0,0,0-6.84.43,7,7,0,0,0-2.61,6.72c.47,2.58,2.47,4.5,5.61,5.43a13.21,13.21,0,0,0,12-2,16.1,16.1,0,0,0,6.53-11.93c0-1.88-.31-4.21-2.13-4.7A3.05,3.05,0,0,0,49,21.5a2,2,0,0,0,.5,2.72,1,1,0,0,1-1.07,1.58,3.93,3.93,0,0,1-1.13-5.15c.59-1.19,2.84-2.18,4.86-1.68,1.39.34,3.72,1.66,3.63,6.6s-3,10.28-7.3,13.44a15,15,0,0,1-9,3" style="fill:#d7a520"/><path d="M162.31,19.36a12.55,12.55,0,0,0-7.21,2.18,11.33,11.33,0,0,0-5,10.35c.41,3.52,2.7,6.28,6.45,7.76,10,4,15.47-1.68,23.7-10.2l.33-.34a35.48,35.48,0,0,0-9.6-7.38,18.93,18.93,0,0,0-8.71-2.37m.47,23.51a18.69,18.69,0,0,1-6.89-1.45c-4.37-1.72-7.15-5.12-7.64-9.31A13.26,13.26,0,0,1,154,20c4.84-3.34,11.35-3.32,17.87.07A37.42,37.42,0,0,1,182,27.74c5.88-6,13.21-13.12,24.18-18.59C220,2.23,229.7,4.64,235.38,7.88c7.51,4.29,11.35,11.91,11.74,17.17.45,6-1.1,11.2-4.24,14.24-2.51,2.43-5.9,3.42-10.07,3-5.14-.58-8.32-3.6-8.5-8.06-.14-3.65,1.95-7,4.66-7.58a6.22,6.22,0,0,1,7.24,3.62.95.95,0,1,1-1.77.69,4.28,4.28,0,0,0-5.11-2.44c-1.77.35-3.22,3-3.12,5.63.07,1.66.86,5.57,6.81,6.24,3.58.4,6.46-.41,8.54-2.43,2.7-2.6,4.06-7.35,3.66-12.72-.35-4.77-3.88-11.71-10.78-15.65-5.28-3-14.33-5.23-27.46,1.32C196.26,16.2,189,23.18,183.25,29.13l1.24,1.36c4.8,5.33,8.95,9.94,20.71,9.94,5.92,0,10.63-2.69,12.92-7.38,2-4.13,1.76-9-.65-12.14-2.08-2.7-5.52-3.72-9.67-2.87-2.91.6-4.8,2.11-5.48,4.37a8.05,8.05,0,0,0,2,7.55,4.39,4.39,0,0,0,4.35,1.35.94.94,0,0,1,1.18.64,1,1,0,0,1-.64,1.19A6.16,6.16,0,0,1,203,31.31a9.91,9.91,0,0,1-2.5-9.45c.88-2.93,3.34-4.95,6.92-5.69,4.9-1,9,.27,11.55,3.58,2.85,3.69,3.19,9.38.86,14.14-2.63,5.37-8,8.44-14.63,8.44-12.6,0-17.23-5.13-22.12-10.56-.38-.42-.77-.84-1.15-1.27l-.27.27c-6.54,6.78-11.68,12.1-18.88,12.1" style="fill:#d7a520"/><path d="M161.37,37.75c-2.52,0-4.86-1-7.22-3.29a1,1,0,0,1,1.31-1.38c7.21,6.83,13.82,1.08,33.6-18.13C206.93-2.41,223.84.07,224.55.18a1,1,0,0,1,.79,1.1,1,1,0,0,1-1.08.79c-.17,0-16.73-2.41-33.88,14.25-13.79,13.39-22.07,21.43-29,21.43" style="fill:#d7a520"/><path d="M261.56,42a15,15,0,0,1-9-3c-4.29-3.16-7.22-8.56-7.31-13.44s2.24-6.26,3.64-6.6c2-.5,4.26.49,4.85,1.68a3.91,3.91,0,0,1-1.13,5.15,1,1,0,1,1-1.06-1.58,2,2,0,0,0,.49-2.72,3,3,0,0,0-2.75-.66c-1.83.49-2.17,2.82-2.14,4.7a16.14,16.14,0,0,0,6.53,11.93,13.22,13.22,0,0,0,12,2c3.15-.93,5.14-2.85,5.62-5.42a7.08,7.08,0,0,0-2.61-6.73,6.28,6.28,0,0,0-6.84-.43,1,1,0,0,1-1.27-.44,1,1,0,0,1,.44-1.28,8.2,8.2,0,0,1,8.82.64,9,9,0,0,1,3.33,8.58c-.36,1.92-1.73,5.37-6.95,6.91a16.68,16.68,0,0,1-4.69.7" style="fill:#d7a520"/><path d="M142.43,35.51a6.52,6.52,0,0,1-3.34-.85c-2.08-1.24-3.23-3.71-3.41-7.35-.58-11.3,13.6-20.86,14.2-21.26a.94.94,0,0,1,1.32.26,1,1,0,0,1-.26,1.32c-.14.1-13.88,9.37-13.36,19.58.15,3,1,4.92,2.48,5.81,2.41,1.43,6-.24,6-.26a1,1,0,0,1,.83,1.72,11.44,11.44,0,0,1-4.49,1" style="fill:#d7a520"/><path d="M158.62,35.59a10.88,10.88,0,0,1-4.23-1,1,1,0,0,1,.83-1.72s3.36,1.59,5.67.21c1.5-.89,2.34-2.88,2.5-5.91C163.91,17,150.17,7.73,150,7.63a1,1,0,0,1-.27-1.32.94.94,0,0,1,1.32-.26c.6.4,14.78,10,14.2,21.26-.18,3.71-1.34,6.22-3.42,7.46a6.38,6.38,0,0,1-3.24.82" style="fill:#d7a520"/><path d="M180.75,25.2a1,1,0,0,1-.58-1.71c.08-.06,8-6.24,6.7-12.4-.16-.77-.53-1.71-1.34-1.87-1.07-.21-2.65.8-3.67,2.34-.47.7-1.86,3.15-.32,5.48a1,1,0,0,1-.26,1.33A1,1,0,0,1,180,18.1a6.73,6.73,0,0,1,.31-7.6c1.5-2.25,3.76-3.51,5.62-3.15.83.16,2.31.81,2.84,3.35,1.53,7.33-7,14-7.4,14.3a.91.91,0,0,1-.58.2" style="fill:#d7a520"/><path d="M120.55,25.2A.88.88,0,0,1,120,25c-.37-.28-8.93-7-7.4-14.3.53-2.54,2-3.19,2.84-3.35,1.86-.37,4.11.9,5.61,3.15a6.75,6.75,0,0,1,.32,7.6,1,1,0,0,1-1.32.27,1,1,0,0,1-.27-1.33c1.54-2.33.15-4.78-.31-5.48-1-1.54-2.6-2.55-3.67-2.34-.82.16-1.18,1.1-1.34,1.87-1.29,6.16,6.61,12.34,6.69,12.4a1,1,0,0,1,.18,1.34,1,1,0,0,1-.76.37" style="fill:#d7a520"/></svg>
