<svg width="50" height="50" viewBox="0 0 50 50" xmlns="http://www.w3.org/2000/svg"><path d="M48 30.689c0-5.403-4.13-9.884-9.418-10.444-.76-2.734-2.38-5.172-4.56-7.017C31.51 11.154 28.272 10 25 10c-3.272 0-6.51 1.153-9.022 3.229a13.882 13.882 0 0 0-4.56 7.017C6.131 20.805 2 25.285 2 30.688c0 .527.066 4.216 2.842 7.05C6.957 39.913 10.03 41 13.93 41c3.767 0 7.501-.659 11.07-1.944 1.124.396 2.28.758 3.437 1.022 2.511.593 5.056.922 7.633.922 3.933 0 7.006-1.087 9.088-3.261 2.776-2.8 2.842-6.457 2.842-7.05Zm-2.875.033c0 .032.033 2.932-2.049 5.04-1.553 1.581-3.9 2.372-7.006 2.372a29.966 29.966 0 0 1-12.16-2.603c-2.479-1.12-4.065-2.273-4.462-2.57a92.219 92.219 0 0 1-.099-.098c0-.033-.033-.066-.033-.132v-5.963c0-.099.066-.197.165-.263l5.387-2.767a.364.364 0 0 1 .264 0l5.387 2.767c.099.066.165.165.165.263v5.996c0 .099-.033.165-.066.198-.265.23-1.19.89-2.644 1.68 1.19.362 2.545.659 3.999.89.33-.231.495-.363.528-.396l.034-.033a3.215 3.215 0 0 0 1.057-2.372v-5.963a3.209 3.209 0 0 0-1.718-2.833l-5.387-2.767a3.23 3.23 0 0 0-2.908 0l-5.42 2.767c-1.057.56-1.718 1.614-1.718 2.833v5.996c0 1.087.562 1.944 1.058 2.372l.033.033c.066.066 1.288 1.021 3.436 2.174-2.28.56-4.66.857-7.038.857-3.107 0-5.453-.79-7.006-2.372-2.082-2.109-2.049-5.04-2.049-5.074v-.032c0-4.217 3.437-7.643 7.667-7.643h1.19l.23-1.153a11.275 11.275 0 0 1 3.834-6.457 11.373 11.373 0 0 1 7.171-2.57c2.61 0 5.188.923 7.17 2.57a11.171 11.171 0 0 1 3.834 6.457l.232 1.153h1.19c4.23 0 7.666 3.426 7.666 7.643h.066Z" fill="#1D97FF"/><path d="M43.105 4h.972V.818h1.108V0H42v.818h1.105V4Zm2.775 0h.858V1.453h.053L47.663 4h.555l.871-2.547h.056V4H50V0h-1.108l-.924 2.714h-.05L46.99 0h-1.11v4Z" fill="#D1D5DB"/></svg>
