<svg xmlns="http://www.w3.org/2000/svg" xmlns:xlink="http://www.w3.org/1999/xlink" width="70" height="70" viewBox="0 0 70 70"><defs><path id="a" d="M4 0h61c4 0 5 1 5 5v60c0 4-1 5-5 5H4c-3 0-4-1-4-5V5c0-4 1-5 4-5z"/><linearGradient id="c" x1="100%" x2="0%" y1="0%" y2="100%"><stop offset="0%" stop-color="#94B6C8"/><stop offset="100%" stop-color="#6A9EBA"/></linearGradient><path id="d" d="M28.278 17.235c5.193 0 9.404 4.271 9.404 9.54 0 5.27-4.21 9.541-9.404 9.541s-9.404-4.271-9.404-9.54c0-5.27 4.21-9.541 9.404-9.541zm6.018 19.492c0-.413-9.178 1.847-12.6-.65l-4.19 1.063c-2.512.638-4.275 2.927-4.275 5.554v2.209c0 1.58 1.264 2.862 2.822 2.862h15.466c-1.852-6.34 2.777-10.625 2.777-11.038zM45.5 33.794c-6.466 0-11.706 5.24-11.706 11.706 0 6.466 5.24 11.706 11.706 11.706 6.466 0 11.706-5.24 11.706-11.706 0-6.466-5.24-11.706-11.706-11.706zm2.695 16.525l-4.163-3.025a.57.57 0 0 1-.231-.458v-7.944c0-.312.255-.566.566-.566h2.266c.311 0 .566.254.566.566v6.5l2.997 2.18a.566.566 0 0 1 .123.793l-1.33 1.831a.57.57 0 0 1-.794.123z"/><path id="e" d="M28.278 15.235c5.193 0 9.404 4.271 9.404 9.54 0 5.27-4.21 9.541-9.404 9.541s-9.404-4.271-9.404-9.54c0-5.27 4.21-9.541 9.404-9.541zm6.018 19.492c0-.413-9.178 1.847-12.6-.65l-4.19 1.063c-2.512.638-4.275 2.927-4.275 5.554v2.209c0 1.58 1.264 2.862 2.822 2.862h15.466c-1.852-6.34 2.777-10.625 2.777-11.038zM45.5 31.794c-6.466 0-11.706 5.24-11.706 11.706 0 6.466 5.24 11.706 11.706 11.706 6.466 0 11.706-5.24 11.706-11.706 0-6.466-5.24-11.706-11.706-11.706zm2.695 16.525l-4.163-3.025a.57.57 0 0 1-.231-.458v-7.944c0-.312.255-.566.566-.566h2.266c.311 0 .566.254.566.566v6.5l2.997 2.18a.566.566 0 0 1 .123.793l-1.33 1.831a.57.57 0 0 1-.794.123z"/></defs><g fill="none" fill-rule="evenodd"><mask id="b" fill="#fff"><use xlink:href="#a"/></mask><g mask="url(#b)"><path fill="url(#c)" d="M0 0H70V70H0z"/><path fill="#FFF" fill-opacity=".383" d="M4 1h61c2.667 0 4.333.667 5 2V0H0v3c.667-1.333 2-2 4-2z"/><path fill="#393939" d="M42.488 69H4c-2 0-4-1-4-4V41.348l20.938-22.35 14.703 11.46-4.201 5.183-1.252 7.42 6.406-7.111L46 33l9.958 15.844L42.488 69z" opacity=".324"/><path fill="#000" fill-opacity=".383" d="M4 69h61c2.667 0 4.333-1 5-3v4H0v-4c.667 2 2 3 4 3z"/><use fill="#000" fill-rule="nonzero" opacity=".3" xlink:href="#d"/><use fill="#FFF" fill-rule="nonzero" xlink:href="#e"/></g></g></svg>