<svg width="70" height="70" viewBox="0 0 70 70" fill="none" xmlns="http://www.w3.org/2000/svg">
<circle cx="28" cy="26" r="10" fill="#FBB945"/>
<path d="M20.2158 19.7214C20.6662 19.1638 21.1752 18.6555 21.7336 18.2061L29.2126 24.2051C30.1975 24.9951 30.2656 26.4795 29.3733 27.373C28.4809 28.2664 26.9983 28.1982 26.2093 27.212L20.2158 19.7214Z" fill="white"/>
<circle cx="48" cy="34" r="5" fill="#953B24"/>
<path d="M26 41H52C54.2091 41 56 42.7909 56 45V50C56 52.2091 54.2091 54 52 54H26V41Z" fill="#953B24"/>
<path d="M14 41H30C37.1797 41 43 46.8203 43 54H27C19.8203 54 14 48.1797 14 41Z" fill="#FBB945"/>
</svg>
