<?xml version="1.0" encoding="utf-8"?>
<!-- Generator: Adobe Illustrator 25.3.1, SVG Export Plug-In . SVG Version: 6.00 Build 0)  -->
<svg version="1.1" id="Layer_1" xmlns="http://www.w3.org/2000/svg" xmlns:xlink="http://www.w3.org/1999/xlink" x="0px" y="0px"
	 viewBox="0 0 408.2 320.2" style="enable-background:new 0 0 408.2 320.2;" xml:space="preserve">
<style type="text/css">
	.st0{fill-rule:evenodd;clip-rule:evenodd;}
	.st1{fill-rule:evenodd;clip-rule:evenodd;fill:#EEF2F8;}
	.st2{fill-rule:evenodd;clip-rule:evenodd;fill:#7C6576;}
	.st3{fill-rule:evenodd;clip-rule:evenodd;fill:#FFFFFF;}
	.st4{fill-rule:evenodd;clip-rule:evenodd;fill:#FF4200;}
	.st5{fill-rule:evenodd;clip-rule:evenodd;fill:#FFBA00;}
	.st6{fill-rule:evenodd;clip-rule:evenodd;fill:#009E80;}
	.st7{filter:url(#Adobe_OpacityMaskFilter);}
	.st8{mask:url(#support-personboy-mask-2_1_);}
	.st9{fill-rule:evenodd;clip-rule:evenodd;fill:#3AADAA;}
	.st10{filter:url(#Adobe_OpacityMaskFilter_1_);}
	.st11{mask:url(#support-personboy-mask-2_2_);}
	.st12{fill-rule:evenodd;clip-rule:evenodd;fill:#DCAD7F;}
	.st13{filter:url(#Adobe_OpacityMaskFilter_2_);}
	.st14{mask:url(#support-personboy-mask-2_3_);}
	.st15{fill-rule:evenodd;clip-rule:evenodd;fill:#FCBD21;}
	.st16{fill-rule:evenodd;clip-rule:evenodd;fill:#D96E05;}
	.st17{fill-rule:evenodd;clip-rule:evenodd;fill:#EFF2F7;}
</style>
<g id="Master_x2F_Spot_Illustration_x2F_Support">
	<g id="Support" transform="translate(164.000000, 109.000000)">
		<path id="Fill-19" class="st0" d="M236.5,183.9h-386.3c-0.3,0-0.5-0.2-0.5-0.5s0.2-0.5,0.5-0.5h386.3c0.3,0,0.5,0.2,0.5,0.5
			S236.8,183.9,236.5,183.9"/>
		<g id="Store_Option" transform="translate(57.966100, 23.828500) scale(0.8454545454545455 0.8473684210526315)">
			<g id="Store_Option_x2F_Shoe">
				<g id="Shoe" transform="translate(30.000000, 24.009200)">
					<path id="Combined-Shape" class="st1" d="M-80.7-22.3c1.7,0,3.1,1.4,3.1,3.1c0,1.7-1.4,3.1-3.1,3.1h-86.8
						c-1.7,0-3.1-1.4-3.1-3.1c0-1.7,1.4-3.1,3.1-3.1H-80.7z M-105.6-33.8c1.7,0,3.1,1.4,3.1,3.1s-1.4,3.1-3.1,3.1h-61.8
						c-1.7,0-3.1-1.4-3.1-3.1s1.4-3.1,3.1-3.1H-105.6z"/>
					<path id="Combined-Shape_1_" class="st0" d="M-25.3-148c3.7,0,6.7,3,6.7,6.7v128.6c0,3.7-3,6.7-6.7,6.7h-146.5
						c-3.7,0-6.7-3-6.7-6.7v-128.6c0-3.7,3-6.7,6.7-6.7H-25.3z M-19.7-44.8h-157.8v32.1c0,3.1,2.5,5.7,5.7,5.7h146.5
						c3.1,0,5.7-2.5,5.7-5.7V-44.8z M-25.3-147h-146.5c-3.1,0-5.7,2.5-5.7,5.7v95.5h157.8v-95.5C-19.7-144.5-22.2-147-25.3-147z"/>
					<path class="st2" d="M-149.7-69.4h105.2l-0.3-0.7c-3.4-9.4-11.6-16.3-21.5-18.1l-10-1.8c-5.1-0.9-9.9-3.2-13.8-6.7l-0.2-0.2
						h-59.4V-69.4z"/>
					<path id="Fill-29" class="st0" d="M-149.2-69.9h103.9l0-0.1c-3.3-9.2-11.4-16.1-21.1-17.8l-10-1.8c-5.2-0.9-10.1-3.3-14.1-6.9
						l-0.1-0.1h-58.7V-69.9z M-44.6-68.9h-105.2c-0.3,0-0.5-0.2-0.5-0.5v-27.5c0-0.3,0.2-0.5,0.5-0.5h59.4c0.1,0,0.2,0,0.3,0.1
						l0.2,0.2c3.8,3.4,8.5,5.7,13.6,6.6l10,1.8c10,1.8,18.4,8.8,21.8,18.4l0.3,0.7c0.1,0.2,0,0.3-0.1,0.5
						C-44.3-69-44.4-68.9-44.6-68.9L-44.6-68.9z"/>
					<path id="Fill-31" class="st1" d="M-149.7-75.6h102.2c1.1,1.7,2,3.5,2.7,5.5l0.3,0.7h-105.2V-75.6z"/>
					<path id="Fill-33" class="st0" d="M-149.2-69.9h103.9l0-0.1c-0.6-1.8-1.5-3.5-2.5-5.2h-101.4V-69.9z M-44.6-68.9h-105.2
						c-0.3,0-0.5-0.2-0.5-0.5v-6.2c0-0.3,0.2-0.5,0.5-0.5h102.2c0.2,0,0.3,0.1,0.4,0.2c1.1,1.8,2.1,3.7,2.8,5.6l0.3,0.7
						c0.1,0.2,0,0.3-0.1,0.5C-44.3-69-44.4-68.9-44.6-68.9L-44.6-68.9z"/>
				</g>
			</g>
		</g>
		<g id="Internet-Window" transform="translate(145.234900, 138.129500)">
			<path id="Fill-23" class="st3" d="M9.7,10.8h-150.8c-5.1,0-9.3-4.2-9.3-9.3l0.5-117.1c0-5.1,4.2-9.3,9.3-9.3H10.3
				c5.1,0,9.3,4.2,9.3,9.3L19,1.5C19,6.6,14.9,10.8,9.7,10.8"/>
			<path id="Fill-25" class="st0" d="M-140.5-124.4c-4.9,0-8.8,3.9-8.8,8.8l-0.5,117.1c0,4.9,3.9,8.8,8.8,8.8H9.7
				c4.9,0,8.8-3.9,8.8-8.8l0.5-117.1c0-4.8-3.9-8.8-8.8-8.8H-140.5z M9.7,11.3h-150.8c-5.4,0-9.8-4.4-9.8-9.8l0.5-117.1
				c0-5.4,4.4-9.8,9.8-9.8H10.3c5.4,0,9.8,4.4,9.8,9.8L19.5,1.5C19.5,6.9,15.2,11.3,9.7,11.3L9.7,11.3z"/>
			<path id="Fill-27" class="st1" d="M10.3-124.9h-150.8c-5.1,0-9.3,4.2-9.3,9.3l0,4.5H19.6l0-4.5C19.6-120.8,15.4-124.9,10.3-124.9
				"/>
			<path id="Fill-29_1_" class="st0" d="M-149.3-111.6H19.1l0-4c0-4.9-3.9-8.8-8.8-8.8h-150.8c-4.9,0-8.8,3.9-8.8,8.8L-149.3-111.6z
				 M20.1-110.6h-170.4l0-5c0-5.4,4.4-9.8,9.8-9.8H10.3c5.4,0,9.8,4.4,9.8,9.8L20.1-110.6z"/>
			<path id="Fill-31_1_" class="st4" d="M-139.5-117.3c0,1.7-1.4,3.1-3.1,3.1s-3.1-1.4-3.1-3.1c0-1.7,1.4-3.1,3.1-3.1
				S-139.5-119-139.5-117.3"/>
			<path id="Fill-33_1_" class="st0" d="M-142.6-119.9c-1.4,0-2.6,1.2-2.6,2.6c0,1.4,1.2,2.6,2.6,2.6c1.4,0,2.6-1.2,2.6-2.6
				C-140-118.7-141.1-119.9-142.6-119.9 M-142.6-113.7c-2,0-3.6-1.6-3.6-3.6s1.6-3.6,3.6-3.6c2,0,3.6,1.6,3.6,3.6
				S-140.6-113.7-142.6-113.7"/>
			<path id="Fill-35" class="st5" d="M-128.5-117.3c0,1.7-1.4,3.1-3.1,3.1c-1.7,0-3.1-1.4-3.1-3.1c0-1.7,1.4-3.1,3.1-3.1
				C-129.8-120.4-128.5-119-128.5-117.3"/>
			<path id="Fill-37" class="st0" d="M-131.5-119.9c-1.4,0-2.6,1.2-2.6,2.6c0,1.4,1.2,2.6,2.6,2.6c1.4,0,2.6-1.2,2.6-2.6
				C-129-118.7-130.1-119.9-131.5-119.9 M-131.5-113.7c-2,0-3.6-1.6-3.6-3.6s1.6-3.6,3.6-3.6c2,0,3.6,1.6,3.6,3.6
				S-129.6-113.7-131.5-113.7"/>
			<path id="Fill-39" class="st6" d="M-117.5-117.3c0,1.7-1.4,3.1-3.1,3.1c-1.7,0-3.1-1.4-3.1-3.1c0-1.7,1.4-3.1,3.1-3.1
				C-118.8-120.4-117.5-119-117.5-117.3"/>
			<path id="Fill-41" class="st0" d="M-120.5-119.9c-1.4,0-2.6,1.2-2.6,2.6c0,1.4,1.2,2.6,2.6,2.6c1.4,0,2.6-1.2,2.6-2.6
				C-118-118.7-119.1-119.9-120.5-119.9 M-120.5-113.7c-2,0-3.6-1.6-3.6-3.6s1.6-3.6,3.6-3.6c2,0,3.6,1.6,3.6,3.6
				S-118.6-113.7-120.5-113.7"/>
			<path id="Fill-43" class="st1" d="M-55.1-1.7h-78.6c-2.2,0-4-1.8-4-4v-28.1c0-2.2,1.8-4,4-4h78.6c2.2,0,4,1.8,4,4v28.1
				C-51.1-3.5-52.9-1.7-55.1-1.7"/>
			<path id="Fill-45" class="st1" d="M2.8-0.8h-40.3c-2.2,0-4-1.8-4-4v-88.4c0-2.2,1.8-4,4-4H2.8c2.2,0,4,1.8,4,4v88.4
				C6.8-2.6,5-0.8,2.8-0.8"/>
			<path id="Fill-47" class="st1" d="M-56.7-85.5h-75.4c-3.1,0-5.6-2.5-5.6-5.6c0-3.1,2.5-5.6,5.6-5.6h75.4c3.1,0,5.6,2.5,5.6,5.6
				C-51.1-88-53.6-85.5-56.7-85.5"/>
			<path id="Fill-49" class="st1" d="M-56.7-66h-75.4c-3.1,0-5.6-2.5-5.6-5.6c0-3.1,2.5-5.6,5.6-5.6h75.4c3.1,0,5.6,2.5,5.6,5.6
				C-51.1-68.5-53.6-66-56.7-66"/>
			<path id="Fill-51" class="st1" d="M-56.7-46.4h-75.4c-3.1,0-5.6-2.5-5.6-5.6c0-3.1,2.5-5.6,5.6-5.6h75.4c3.1,0,5.6,2.5,5.6,5.6
				C-51.1-48.9-53.6-46.4-56.7-46.4"/>
			<path id="Fill-21" class="st1" d="M2.8-1.7h-40.5c-2.2,0-4-1.8-4-4v-87c0-2.2,1.8-4,4-4H2.8c2.2,0,4,1.8,4,4v87
				C6.8-3.5,5-1.7,2.8-1.7"/>
		</g>
		<g id="Support_Person" transform="translate(209.000000, 0.000000) scale(1 1)">
			<g id="Support_Person_x2F_Boy">
				<g id="Group-6" transform="translate(24.000000, 24.000000)">
					<path id="Fill-1" class="st1" d="M-0.2-49.8c0,41.5-33.6,75.1-75.1,75.1s-75.1-33.6-75.1-75.1c0-41.5,33.6-75.1,75.1-75.1
						S-0.2-91.3-0.2-49.8"/>
				</g>
				<g id="Character" transform="translate(24.000000, 24.000000)">
					<g id="Mask">
						<path id="support-personboy-path-1_1_" class="st1" d="M-0.2-49.8c0,41.5-33.6,75.1-75.1,75.1s-75.1-33.6-75.1-75.1
							c0-41.5,33.6-75.1,75.1-75.1S-0.2-91.3-0.2-49.8"/>
					</g>
					<defs>
						<filter id="Adobe_OpacityMaskFilter" filterUnits="userSpaceOnUse" x="-198.9" y="-40.4" width="246.3" height="124.8">
							<feColorMatrix  type="matrix" values="1 0 0 0 0  0 1 0 0 0  0 0 1 0 0  0 0 0 1 0"/>
						</filter>
					</defs>
					<mask maskUnits="userSpaceOnUse" x="-198.9" y="-40.4" width="246.3" height="124.8" id="support-personboy-mask-2_1_">
						<g class="st7">
							<path id="support-personboy-path-1_2_" class="st3" d="M-0.2-49.8c0,41.5-33.6,75.1-75.1,75.1s-75.1-33.6-75.1-75.1
								c0-41.5,33.6-75.1,75.1-75.1S-0.2-91.3-0.2-49.8"/>
						</g>
					</mask>
					<g id="Body" class="st8">
						<g transform="translate(-48.000000, 85.000000)">
							<path id="Sweater" class="st9" d="M94.9-1.2c0,0-5.6-10.9-18-59.7c-12.4-48.9-57.6-59.7-57.6-59.7v0
								c-6.5-2.1-13.3-3.4-20.3-4c0,0-0.1,0-0.1,0c-1.1-0.1-2.1-0.1-3.2-0.2c-0.1,0-0.2,0-0.3,0c-1.2,0-2.3-0.1-3.5-0.1h-7.2
								c0,0,0,0,0,0l-0.1,0l0,0h0c-1.9,4.1-6.7,7-12.3,7c-5.6,0-10.4-2.9-12.3-7h0h0l-0.1,0c0,0,0,0,0,0h-7.2c-1.2,0-2.3,0-3.5,0.1
								c-0.1,0-0.2,0-0.3,0c-1.1,0-2.1,0.1-3.2,0.2c0,0-0.1,0-0.1,0c-7,0.6-13.8,1.9-20.3,4v0c0,0-45.2,10.9-57.6,59.7
								c-12.4,48.9-18,59.7-18,59.7h43.1c0,0,7.5-34.4,20.8-54.1c-1,16.5-4,43-4,43H35c0,0-3-26.5-4-43C44.3-35.6,51.8-1.2,51.8-1.2
								H94.9z"/>
							<path id="Fill-3" class="st0" d="M52.2-1.7h41.9C92.7-4.8,87-19,76.4-60.8c-12-47.4-55.6-59-57.2-59.4c0,0-0.1,0-0.1,0
								c-6.6-2.1-13.3-3.4-20.2-4c0,0-0.1,0-0.1,0c-1-0.1-2.1-0.1-3.2-0.2l-0.3,0c-1.2,0-2.3-0.1-3.5-0.1h-7c-2.2,4.2-7.1,7-12.7,7
								c-5.6,0-10.5-2.7-12.7-7h-7c-1.2,0-2.3,0-3.5,0.1l-0.3,0c-1.1,0-2.1,0.1-3.2,0.2c-6.9,0.5-13.7,1.9-20.3,4c0,0,0,0-0.1,0
								c-1.5,0.4-45.2,12-57.2,59.4C-142.4-19-148.2-4.8-149.6-1.7h41.9c0.9-3.9,8.4-35.5,20.8-53.9c0.1-0.2,0.4-0.3,0.6-0.2
								c0.2,0.1,0.4,0.3,0.3,0.5c-0.9,15-3.5,38.5-4,42.5H34.4c-0.4-3.9-3.1-27.5-4-42.5c0-0.2,0.1-0.4,0.3-0.5
								c0.2-0.1,0.5,0,0.6,0.2C43.8-37.2,51.3-5.6,52.2-1.7 M94.9-0.6H51.8c-0.2,0-0.4-0.2-0.5-0.4C51.2-1.4,44-33.8,31.6-53.4
								c1.1,16.4,3.9,40.8,3.9,41c0,0.1,0,0.3-0.1,0.4c-0.1,0.1-0.2,0.2-0.4,0.2H-90.4c-0.1,0-0.3-0.1-0.4-0.2
								c-0.1-0.1-0.1-0.3-0.1-0.4c0-0.3,2.8-24.7,3.9-41c-12.5,19.6-19.6,52-19.7,52.3c-0.1,0.2-0.3,0.4-0.5,0.4h-43.1
								c-0.2,0-0.3-0.1-0.4-0.2c-0.1-0.2-0.1-0.3,0-0.5c0.1-0.1,5.7-11.5,17.9-59.6c12.3-48.6,57.5-60,58-60.1c0,0,0,0,0,0
								c6.6-2.1,13.5-3.5,20.4-4c1.2-0.1,2.2-0.2,3.3-0.2l0.3,0c1.2,0,2.3-0.1,3.5-0.1h7.2c0,0,0,0,0.1,0c0.2,0,0.4,0.1,0.5,0.3
								c1.9,4.1,6.6,6.7,11.9,6.7c5.3,0,10-2.6,11.9-6.7c0.1-0.2,0.3-0.3,0.5-0.3c0,0,0,0,0,0h7.2c1.2,0,2.4,0,3.5,0.1l0.3,0
								c1.1,0,2.1,0.1,3.2,0.2c0,0,0.1,0,0.1,0c6.9,0.5,13.8,1.9,20.4,4c0,0,0,0,0,0c0.5,0.1,45.7,11.5,58,60.1
								C89.7-12.8,95.3-1.5,95.4-1.4c0.1,0.2,0.1,0.3,0,0.5C95.3-0.7,95.1-0.6,94.9-0.6"/>
						</g>
					</g>
					<defs>
						<filter id="Adobe_OpacityMaskFilter_1_" filterUnits="userSpaceOnUse" x="-95.9" y="-97.4" width="38.6" height="65.7">
							<feColorMatrix  type="matrix" values="1 0 0 0 0  0 1 0 0 0  0 0 1 0 0  0 0 0 1 0"/>
						</filter>
					</defs>
					<mask maskUnits="userSpaceOnUse" x="-95.9" y="-97.4" width="38.6" height="65.7" id="support-personboy-mask-2_2_">
						<g class="st10">
							<path id="support-personboy-path-1_3_" class="st3" d="M-0.2-49.8c0,41.5-33.6,75.1-75.1,75.1s-75.1-33.6-75.1-75.1
								c0-41.5,33.6-75.1,75.1-75.1S-0.2-91.3-0.2-49.8"/>
						</g>
					</mask>
					<g id="Head" class="st11">
						<g transform="translate(55.000000, 28.000000)">
							<path id="Combined-Shape_2_" class="st12" d="M-131.6-124.9c10.4,0,18.8,8.9,18.8,19.9c0,8.9-5.6,16.5-13.2,19l0,0h1.6
								l6,18.8c-0.7,1.5-1.9,2.9-3.3,4c-2.4,1.8-5.6,3-9.1,3l0,0c-4.9,0-9.2-2.2-11.5-5.5c-0.3-0.5-0.6-1-0.9-1.5l0,0l6-18.8
								c0,0,0,0,0,0c-7.7-2.5-13.2-10.1-13.2-19C-150.4-116-142-124.9-131.6-124.9z"/>
							<path id="Combined-Shape_3_" class="st0" d="M-131.6-125.4c10.6,0,19.3,9.2,19.3,20.4c0,8.4-4.8,15.6-11.7,18.8
								c0,0,0,0.1,0,0.1l6,18.8c0,0.1,0,0.3,0,0.4c-0.8,1.6-1.9,3-3.4,4.2c-2.6,2-5.9,3.1-9.4,3.1c-4.9,0-9.5-2.2-11.9-5.7
								c-0.3-0.5-0.6-1-0.9-1.5c-0.1-0.1-0.1-0.3,0-0.4l5.9-18.3c-7.6-2.7-13.1-10.4-13.1-19.3
								C-150.9-116.3-142.2-125.4-131.6-125.4z M-124.8-85.5h-1.1c-0.2,0.1-0.5,0.1-0.7,0.2c0,0,0,0-0.1,0c-0.1,0-0.1,0-0.2,0.1
								c-0.1,0-0.2,0-0.2,0.1c0,0-0.1,0-0.1,0c-1.4,0.3-2.8,0.5-4.3,0.5c-1.3,0-2.6-0.1-3.8-0.4c-0.1,0-0.2,0-0.3-0.1
								c-0.1,0-0.1,0-0.2,0c-0.3-0.1-0.7-0.2-1-0.3l-5.8,18.1c0.2,0.4,0.5,0.8,0.7,1.2c2.3,3.3,6.5,5.3,11.1,5.3
								c3.3,0,6.4-1,8.8-2.9c1.3-1,2.4-2.3,3-3.6L-124.8-85.5z M-131.6-124.4c-10.1,0-18.3,8.7-18.3,19.4c0,9.1,5.9,16.7,13.8,18.8
								c0,0,0.1,0,0.1,0l-0.1,0c0.1,0,0.3,0.1,0.4,0.1c2.7,0.6,5.5,0.6,8.1,0c0.1,0,0.1,0,0.2,0c0.1,0,0.1,0,0.2-0.1l-0.2,0.1
								c0.1,0,0.3-0.1,0.4-0.1l-0.2,0.1c0.1,0,0.2-0.1,0.3-0.1l-0.1,0c7.8-2.2,13.6-9.8,13.6-18.7
								C-113.3-115.7-121.5-124.4-131.6-124.4z"/>
							<path id="Fill-10" class="st0" d="M-136.9-98.9C-136.9-98.9-136.9-98.9-136.9-98.9l-3.2-0.4c-0.1,0-0.3-0.1-0.4-0.2
								c-0.1-0.1-0.1-0.3-0.1-0.4l0.9-3.6c0.1-0.3,0.4-0.4,0.6-0.4c0.3,0.1,0.4,0.4,0.4,0.6l-0.8,3l2.6,0.3c0.3,0,0.5,0.3,0.4,0.6
								C-136.4-99.1-136.6-98.9-136.9-98.9"/>
							<path id="Fill-12" class="st0" d="M-131.6-105.4c0,0.9-0.5,1.7-1.1,1.7c-0.6,0-1.1-0.8-1.1-1.7c0-0.9,0.5-1.7,1.1-1.7
								C-132.1-107.1-131.6-106.4-131.6-105.4"/>
							<path id="Fill-14" class="st0" d="M-141.8-105.4c0,0.9-0.5,1.7-1.1,1.7c-0.6,0-1.1-0.8-1.1-1.7c0-0.9,0.5-1.7,1.1-1.7
								C-142.3-107.1-141.8-106.4-141.8-105.4"/>
							<path id="Fill-16" class="st0" d="M-130-109.4c-0.1,0-0.2,0-0.3-0.1c-1.6-1.3-3.3-1.3-3.3-1.3c-0.3,0-0.5-0.2-0.5-0.5
								c0-0.3,0.2-0.5,0.5-0.5c0.1,0,2.2,0,4,1.6c0.2,0.2,0.2,0.5,0.1,0.7C-129.7-109.5-129.9-109.4-130-109.4"/>
							<path id="Fill-18" class="st0" d="M-145.5-109.4c-0.1,0-0.3-0.1-0.4-0.2c-0.2-0.2-0.2-0.5,0.1-0.7c1.9-1.6,3.9-1.6,4-1.6
								c0.3,0,0.5,0.2,0.5,0.5c0,0.3-0.2,0.5-0.5,0.5c0,0-1.8,0-3.3,1.3C-145.3-109.5-145.4-109.4-145.5-109.4"/>
							<path id="Fill-20" class="st0" d="M-136.8-92.9c-2,0-3.5-1-3.5-1c-0.2-0.2-0.3-0.5-0.1-0.7c0.2-0.2,0.5-0.3,0.7-0.1
								c0.1,0.1,3.1,2,6.1-0.4c0.2-0.2,0.5-0.1,0.7,0.1c0.2,0.2,0.1,0.5-0.1,0.7C-134.3-93.2-135.6-92.9-136.8-92.9"/>
						</g>
					</g>
					<defs>
						<filter id="Adobe_OpacityMaskFilter_2_" filterUnits="userSpaceOnUse" x="-95.9" y="-110.4" width="44.2" height="49">
							<feColorMatrix  type="matrix" values="1 0 0 0 0  0 1 0 0 0  0 0 1 0 0  0 0 0 1 0"/>
						</filter>
					</defs>
					<mask maskUnits="userSpaceOnUse" x="-95.9" y="-110.4" width="44.2" height="49" id="support-personboy-mask-2_3_">
						<g class="st13">
							<path id="support-personboy-path-1_4_" class="st3" d="M-0.2-49.8c0,41.5-33.6,75.1-75.1,75.1s-75.1-33.6-75.1-75.1
								c0-41.5,33.6-75.1,75.1-75.1S-0.2-91.3-0.2-49.8"/>
						</g>
					</mask>
					<g id="Hair" class="st14">
						<g transform="translate(55.000000, 14.000000)">
							<path id="Fill-1_1_" class="st15" d="M-109.6-83.2c-2.3,4.3-5.9,7.3-10.6,7.3l-0.4-8.8c0.1,0,0.2,0,0.3,0
								c2,0,3.6-1.6,3.6-3.6c0-0.8-0.3-1.5-0.8-2.1c-1.3-1.6-2.4-1.7-3.4-1.5l-1-8.5c-0.2-1.8-1.8-3.2-3.6-3.2h-18
								c-4.1,0-7.2-3.5-6.8-7.6c0.9-8.5,5.5-19.5,24.4-7.7c9.5,5.9,15.5,12.1,17.5,18.5C-106.5-94.6-106.8-88.4-109.6-83.2"/>
							<g id="Group-5" transform="translate(0.000000, 0.035000)">
								<path id="Fill-3_1_" class="st0" d="M-120.1-84.2l0.3,7.7c3.9-0.2,7.3-2.7,9.7-7c2.6-4.9,3.1-11,1.2-16.7
									c-2-6.2-7.9-12.3-17.3-18.2c-7.6-4.8-13.5-6.2-17.6-4.2c-4.2,2-5.6,7.4-6.1,11.5c-0.2,1.8,0.4,3.6,1.6,4.9
									c1.2,1.3,2.9,2.1,4.7,2.1h18c2.1,0,3.9,1.6,4.1,3.7l0.9,7.9c0.9-0.1,2.1,0.2,3.4,1.7c0.6,0.7,1,1.6,1,2.4
									C-116.2-86.1-117.9-84.3-120.1-84.2 M-120.2-75.4c-0.3,0-0.5-0.2-0.5-0.5l-0.4-8.8c0-0.1,0.1-0.3,0.2-0.4
									c0.1-0.1,0.3-0.1,0.4-0.1l0.1,0c0.1,0,0.1,0,0.2,0c1.7,0,3.1-1.4,3.1-3.1c0-0.6-0.2-1.2-0.7-1.7c-1.2-1.4-2.1-1.5-2.9-1.3
									c-0.1,0-0.3,0-0.4-0.1c-0.1-0.1-0.2-0.2-0.2-0.4l-1-8.5c-0.2-1.6-1.5-2.8-3.1-2.8h-18c-2.1,0-4.1-0.9-5.5-2.4
									c-1.4-1.6-2.1-3.6-1.8-5.7c0.7-6.3,3-10.6,6.6-12.4c4.4-2.1,10.6-0.7,18.5,4.3c9.7,6,15.7,12.4,17.8,18.7
									c2,6,1.5,12.4-1.2,17.5C-111.8-78.1-115.7-75.4-120.2-75.4"/>
							</g>
							<path id="Fill-6" class="st0" d="M-111.2-88.4c0,3.7-3,6.7-6.7,6.7c-3.7,0-6.7-3-6.7-6.7c0-3.7,3-6.7,6.7-6.7
								C-114.2-95.1-111.2-92.1-111.2-88.4"/>
							<path id="Fill-8" class="st0" d="M-133.6-76.7c-0.3,0-0.5-0.2-0.6-0.5c0-0.3,0.2-0.6,0.5-0.6c0.1,0,10.8-0.6,15.2-9.8
								c0.1-0.3,0.5-0.4,0.7-0.3c0.3,0.1,0.4,0.5,0.3,0.7C-122-77.4-133.4-76.7-133.6-76.7C-133.5-76.7-133.5-76.7-133.6-76.7"/>
							<g id="Group-12" transform="translate(0.000000, 13.035000)">
								<path id="Fill-10_1_" class="st0" d="M-150.3-102.7c-0.3,0-0.6-0.2-0.6-0.6v-5.7c0-8.7,7.8-15.8,17.5-15.8
									c9.6,0,17.5,7.1,17.5,15.8v4.9c0,0.3-0.2,0.6-0.6,0.6c-0.3,0-0.6-0.2-0.6-0.6v-4.9c0-8.1-7.3-14.7-16.4-14.7
									c-9,0-16.4,6.6-16.4,14.7v5.7C-149.8-103-150-102.7-150.3-102.7"/>
							</g>
						</g>
					</g>
				</g>
				<path id="Fill-3_2_" class="st0" d="M-51.3-100.3c-41.1,0-74.5,33.4-74.5,74.5c0,41.1,33.4,74.5,74.5,74.5s74.5-33.4,74.5-74.5
					C23.2-66.9-10.2-100.3-51.3-100.3 M-51.3,49.8c-41.7,0-75.6-33.9-75.6-75.6s33.9-75.6,75.6-75.6s75.6,33.9,75.6,75.6
					S-9.6,49.8-51.3,49.8"/>
			</g>
		</g>
	</g>
	<g id="Button" transform="translate(406.096000, 342.977700) scale(1 1)">
		<g id="Button_x2F_Add_to_the_Car">
			<g id="Add-to-de-car-button" transform="translate(16.000000, 19.000000)">
				<path id="Fill-148" class="st9" d="M-65-90.7h-78.8c-3.6,0-6.5-2.9-6.5-6.5v-21.2c0-3.6,2.9-6.5,6.5-6.5H-65
					c3.6,0,6.5,2.9,6.5,6.5v21.2C-58.5-93.6-61.4-90.7-65-90.7"/>
				<path id="Fill-150" class="st0" d="M-143.9-124.4c-3.3,0-6,2.7-6,6v21.2c0,3.3,2.7,6,6,6H-65c3.3,0,6-2.7,6-6v-21.2
					c0-3.3-2.7-6-6-6H-143.9z M-65-90.2h-78.8c-3.9,0-7-3.1-7-7v-21.2c0-3.9,3.1-7,7-7H-65c3.9,0,7,3.1,7,7v21.2
					C-58-93.3-61.1-90.2-65-90.2L-65-90.2z"/>
				<path id="Combined-Shape_4_" class="st0" d="M-93.1-117.8c0.3,0,0.5,0.2,0.5,0.5c0,0.3-0.2,0.5-0.5,0.5h-1.2
					c-0.5,0-0.9,0.2-1.2,0.6c-0.4,0.5-0.9,0.8-1.5,0.9c0.1,0.2,0.1,0.4,0.1,0.7l-1.1,7.6c-0.2,1.4-1.5,2.5-2.9,2.5l-10,0
					c-0.2,0.7-0.8,1.2-1.6,1.2h-0.4c-0.3,0-0.6,0.3-0.6,0.6s0.3,0.6,0.6,0.6h13.9c0.3,0,0.5,0.2,0.5,0.5s-0.2,0.5-0.5,0.5l-1.8,0
					c0.2,0.3,0.3,0.7,0.3,1.1c0,1.2-0.9,2.1-2.1,2.1c-1.2,0-2.1-0.9-2.1-2.1c0-0.4,0.1-0.8,0.3-1.1h-4c0.2,0.3,0.3,0.7,0.3,1.1
					c0,1.2-0.9,2.1-2.1,2.1c-1.2,0-2.1-0.9-2.1-2.1c0-0.4,0.1-0.8,0.3-1.1l-1,0c-0.9,0-1.6-0.7-1.6-1.6c0-0.9,0.7-1.6,1.6-1.6h0.4
					c0.2,0,0.3-0.1,0.5-0.2l0,0c-1.5,0-2.7-1.1-2.9-2.5l-1.1-7.6c-0.1-0.4,0.1-0.8,0.3-1.1c0.3-0.3,0.7-0.5,1.1-0.5h16.4h0h0.9
					c0.5,0,0.9-0.2,1.2-0.6c0.5-0.6,1.2-0.9,2-0.9H-93.1z M-110.3-101.1c-0.6,0-1.1,0.5-1.1,1.1c0,0.6,0.5,1.1,1.1,1.1
					c0.6,0,1.1-0.5,1.1-1.1C-109.2-100.6-109.7-101.1-110.3-101.1z M-102.7-101.1c-0.6,0-1.1,0.5-1.1,1.1c0,0.6,0.5,1.1,1.1,1.1
					c0.6,0,1.1-0.5,1.1-1.1C-101.6-100.6-102.1-101.1-102.7-101.1z M-100.1-115.3l-14.8,0c-0.2,0-0.3,0.1-0.3,0.1
					c0,0.1-0.1,0.2-0.1,0.3l1.1,7.6c0.1,1,1,1.7,2,1.7h11.1c1,0,1.8-0.7,2-1.7l1.1-7.6c0-0.2-0.1-0.3-0.1-0.3c0-0.1-0.1-0.1-0.3-0.1
					L-100.1-115.3L-100.1-115.3z M-106.7-114.3c0.3,0,0.5,0.2,0.5,0.5l0,2.9l2.9,0c0.3,0,0.5,0.2,0.5,0.5s-0.2,0.5-0.5,0.5l-2.9,0
					l0,2.9c0,0.3-0.2,0.5-0.5,0.5c-0.3,0-0.5-0.2-0.5-0.5l0-2.9l-2.9,0c-0.3,0-0.5-0.2-0.5-0.5s0.2-0.5,0.5-0.5l2.9,0l0-2.9
					C-107.2-114.1-106.9-114.3-106.7-114.3z"/>
			</g>
		</g>
	</g>
	
		<g id="Master_x2F_Character_x2F_Torso_1_" transform="translate(284.000000, 351.000000) scale(-1, 1) translate(-284.000000, -351.000000) translate(84.000000, 119.000000) scale(1 1)">
		<g id="Master_x2F_Character_x2F_Torso">
			<g id="Torso_Body" transform="translate(0.000000, 44.768385) scale(1 1)">
				<g id="Torso_Body_x2F_Computer">
					<g id="Computer" transform="translate(91.000000, 111.000000)">
						<path id="Tshirt" class="st9" d="M385.1-36.4l-13.2-19.3c-16.8-24.5-44.7-39.2-74.4-39.2h-7.2l0.6-5.8
							c0.1-1.1-0.8-2.1-1.9-2.1h-17.6c-0.4,0.7-0.8,1.3-1.2,1.8c-1.4,1.6-3.7,0.7-5.6-0.5c-0.1,0.3-0.1,0.6-0.1,1l1.1,5.6h-3.9
							c-0.4,1.7-1.1,3.6-2.1,5.8c-4.9,10.6-21,19.2-21,19.2s-6,28.3-18.2,51.4l-6.2,36.2h127.2l-6.3-36.9l-2.9-21.8l3,5.9
							c0.2,0.5,0.7,0.8,1.2,0.8H384C385.1-34.2,385.7-35.5,385.1-36.4"/>
						<path id="Fill-3_3_" class="st0" d="M385.5-36.7L372.3-56c-16.9-24.7-44.9-39.4-74.8-39.4h-6.6l0.6-5.2
							c0.1-0.7-0.2-1.4-0.6-1.9c-0.5-0.5-1.1-0.8-1.8-0.8h-22.6c-0.7,0-1.4,0.3-1.9,0.9c-0.5,0.6-0.7,1.3-0.5,2l1,5h-3.5
							c0,0.3,0,0.7-0.1,1h4.2c0.2,0,0.3-0.1,0.4-0.2c0.1-0.1,0.1-0.3,0.1-0.4l-1.1-5.6c-0.1-0.4,0-0.8,0.3-1.2
							c0.3-0.3,0.7-0.5,1.1-0.5h22.6c0.4,0,0.8,0.2,1.1,0.5c0.3,0.3,0.4,0.7,0.4,1.1l-0.6,5.8c0,0.1,0,0.3,0.1,0.4
							c0.1,0.1,0.2,0.2,0.4,0.2h7.2c29.6,0,57.2,14.6,74,39l13.2,19.3c0.2,0.3,0.2,0.6,0.1,0.9c-0.1,0.3-0.4,0.5-0.8,0.5h-47.5
							c-0.3,0-0.6-0.2-0.8-0.5l-3-5.9c-0.1-0.2-0.4-0.3-0.6-0.3c-0.2,0.1-0.4,0.3-0.4,0.6l2.9,21.8l6.2,36.3h-126l5.6-32.7
							c-0.3,0-0.7,0-1-0.1l-5.7,33.2c0,0.1,0,0.3,0.1,0.4c0.1,0.1,0.2,0.2,0.4,0.2h127.2c0.2,0,0.3-0.1,0.4-0.2
							c0.1-0.1,0.1-0.3,0.1-0.4l-6.3-36.8l-2.5-18.8l1.6,3.2c0.3,0.6,1,1,1.7,1H384c0.7,0,1.3-0.4,1.7-1
							C386-35.3,385.9-36.1,385.5-36.7"/>
						<path id="Fill-5" class="st0" d="M268.8-95.1c-0.3,0-0.5-0.2-0.5-0.5v-4.6c0-0.3,0.2-0.5,0.5-0.5c0.3,0,0.5,0.2,0.5,0.5v4.6
							C269.3-95.3,269.1-95.1,268.8-95.1"/>
						<path id="Fill-7" class="st0" d="M272.3-95.1c-0.3,0-0.5-0.2-0.5-0.5v-4.6c0-0.3,0.2-0.5,0.5-0.5c0.3,0,0.5,0.2,0.5,0.5v4.6
							C272.8-95.3,272.6-95.1,272.3-95.1"/>
						<path id="Fill-9" class="st0" d="M275.7-95.1c-0.3,0-0.5-0.2-0.5-0.5v-4.6c0-0.3,0.2-0.5,0.5-0.5c0.3,0,0.5,0.2,0.5,0.5v4.6
							C276.2-95.3,276-95.1,275.7-95.1"/>
						<path id="Fill-11" class="st0" d="M279.2-95.1c-0.3,0-0.5-0.2-0.5-0.5v-4.6c0-0.3,0.2-0.5,0.5-0.5c0.3,0,0.5,0.2,0.5,0.5v4.6
							C279.7-95.3,279.5-95.1,279.2-95.1"/>
						<path id="Fill-13" class="st0" d="M282.6-95.1c-0.3,0-0.5-0.2-0.5-0.5v-4.6c0-0.3,0.2-0.5,0.5-0.5c0.3,0,0.5,0.2,0.5,0.5v4.6
							C283.2-95.3,282.9-95.1,282.6-95.1"/>
						<path id="Fill-15" class="st0" d="M286.1-95.1c-0.3,0-0.5-0.2-0.5-0.5v-4.6c0-0.3,0.2-0.5,0.5-0.5c0.3,0,0.5,0.2,0.5,0.5v4.6
							C286.6-95.3,286.4-95.1,286.1-95.1"/>
						<path id="Skin" class="st16" d="M379.5-34.2h-41.8c0,0,15.4,25.1,0,33.8C322.4,8.2,253-14.7,253-14.7s-18.8-6.2-20.3,1.7
							c-0.2,0.9-0.2,1.7,0,2.4c0,0-5.6-1.3-8.3-4.6h-5.7c13.4-23.6,19.9-54.7,19.9-54.7s16.1-8.6,21-19.2
							c4.9-10.6,1.6-15.1,1.6-15.1s6.2,6.2,8.9,3.1c2.7-3.1,6.8-12.6-14.7-21.9c-21.5-9.3-36.4,16.8-41,26.2
							c-4.6,9.4-29.5,62.5-29.5,62.5h-12.8c0,0-16.2,34,4.1,42.7c13.4,5.8,24.6-0.1,33.6-10.7c5.4,3.1,13.6,6.5,25.8,9.8
							c0,0,14.9,4.9,21.3,8.3c6.3,3.3,76.6,36.7,112.1,10.5C404.3,0.2,379.5-34.2,379.5-34.2"/>
						<path id="Fill-19_1_" class="st16" d="M189.7-44.5c0,0-6.5,11.2-9.1,23.1"/>
						<path id="Fill-21_1_" class="st0" d="M180.6-20.9c0,0-0.1,0-0.1,0c-0.3-0.1-0.5-0.3-0.4-0.6c2.6-11.8,9.1-23.1,9.2-23.3
							c0.1-0.2,0.5-0.3,0.7-0.2c0.2,0.1,0.3,0.5,0.2,0.7c-0.1,0.1-6.5,11.3-9,23C181-21.1,180.8-20.9,180.6-20.9"/>
						<path id="Fill-23_1_" class="st0" d="M368.6,26C332,53,257.8,15.8,257,15.4c-6.3-3.3-21.2-8.2-21.4-8.3
							c-26.2-7.2-33.3-14.6-35.3-18.3c-0.9-1.7-0.9-2.9-0.8-3.5h7.5c0,0.2,0,0.4,0,0.6c0.3,1.9,2.9,4.1,8,6.6
							c9.9,4.9,22.3,8.6,22.4,8.7c0.1,0,0.1,0,0.1,0c0.2,0,0.4-0.1,0.5-0.4c0.1-0.3-0.1-0.6-0.3-0.6c-0.1,0-12.4-3.8-22.3-8.6
							c-6.1-3-7.3-4.9-7.4-5.8c0-0.2,0-0.4,0-0.5h16c2.5,2.9,7,4.2,8.1,4.5c1.5,5.7,10.9,6.1,11.3,6.1l7.1,0.6c0,0,0,0,0,0
							c0.3,0,0.5-0.2,0.5-0.5c0-0.3-0.2-0.5-0.5-0.6L243.6-5c-0.1,0-9.4-0.4-10.4-5.6c-0.1-0.7-0.1-1.4,0-2.2c0.2-1.1,0.8-2,1.8-2.6
							c5-2.9,17.7,1.2,17.8,1.2c0.2,0.1,17.6,5.8,36.6,10.4c25.7,6.2,42,7.5,48.5,3.8c3.4-1.9,5.6-4.7,6.5-8.4
							c2.5-9.6-4.1-22.1-5.9-25.3h40.7c0.9,1.4,6.2,9.5,7.7,20.1C389.3,1.9,383.1,15.3,368.6,26 M379.9-34.5
							c-0.1-0.1-0.3-0.2-0.4-0.2h-41.8c-0.2,0-0.4,0.1-0.4,0.3c-0.1,0.2-0.1,0.4,0,0.5c0.1,0.1,9,14.8,6.3,25.3
							c-0.9,3.4-2.9,6-6,7.8c-15,8.5-83.6-14.1-84.3-14.3c-0.5-0.2-13.3-4.3-18.7-1.1c-1.3,0.7-2,1.8-2.3,3.3
							c-0.1,0.6-0.2,1.2-0.1,1.8c-1.6-0.5-5.3-1.8-7.3-4.2c-0.1-0.1-0.2-0.2-0.4-0.2h-25.2c-0.2,0-0.4,0.1-0.5,0.3
							c0,0.1-0.7,1.8,0.7,4.6c1.2,2.4,3.9,5.4,9.6,8.7c-3.5,4.1-7.4,7.4-11.5,9.5c-6.7,3.5-13.8,3.7-21.1,0.5
							c-4.1-1.8-6.9-4.7-8.5-8.8c-4.5-12,3.4-30.3,4.5-32.9h12.5c0.2,0,0.4-0.1,0.5-0.3c0.2-0.5,25-53.3,29.5-62.5
							c5.3-10.8,19.8-34.8,40.4-25.9c9.6,4.2,15.3,8.9,16.4,13.8c0.8,3.6-1,6.3-1.9,7.2c-0.4,0.4-0.9,0.7-1.5,0.7
							c-2.7,0.1-6.7-3.8-6.7-3.8l-4.9-4.9c-0.1-0.1-0.2-0.1-0.3-0.1c-4.6-5.7-13.2-8.3-13.3-8.4c-0.3-0.1-0.6,0.1-0.6,0.3
							c-0.1,0.3,0.1,0.6,0.3,0.6c0.2,0,16.7,5.1,15.4,16.3c-1,7.9-2.8,12.7-5.2,13.6c-1.2,0.4-2.7-0.1-4.3-1.7c0,0-0.1,0-0.1-0.1
							c1.1-3.3,1.2-7.9,0.1-13.8c-1.5-8.6-13.5-9-13.6-9c-0.3,0-0.5,0.2-0.5,0.5c0,0.3,0.2,0.5,0.5,0.5c0.1,0,11.2,0.4,12.6,8.2
							c2,11.2,0,17.4-5.8,18.5c-1,0.1-3.9,0-4.7-1.5c0,0-0.1-0.1-0.1-0.1c2-3.3,3.3-8.1,3.5-11.4c0.6-7.6-10.9-9.3-11.4-9.4
							c-0.3,0-0.5,0.2-0.6,0.4c0,0.3,0.2,0.5,0.4,0.6c0.1,0,11,1.7,10.5,8.3c-0.4,4.9-3,12.8-6.7,14.1c-1.5,0.5-3.1-0.1-4.7-1.8
							c-4.6-4.9,2.5-13,2.6-13.1c0.2-0.2,0.2-0.5,0-0.7c-0.2-0.2-0.5-0.2-0.7,0c-0.1,0.1-1.2,1.3-2.2,3.1c0-0.1-0.1-0.1-0.2-0.2
							c-0.9-0.6-0.5-2.8-0.2-3.5c0.1-0.3-0.1-0.6-0.3-0.6c-0.3-0.1-0.6,0.1-0.6,0.3c-0.1,0.4-1,3.5,0.6,4.6c0.1,0.1,0.2,0.1,0.3,0.1
							c0,0,0,0,0,0c-1.7,3.1-3,7.4,0.1,10.7c1.5,1.5,2.9,2.3,4.4,2.3c0.5,0,1-0.1,1.4-0.3c1.2-0.4,2.3-1.4,3.2-2.7
							c1.1,1.5,3.5,1.8,4.8,1.8c0.4,0,0.7,0,0.8,0c2.9-0.5,5-2.2,6.2-4.9c1.4,1.3,2.7,1.9,4,1.9c0.4,0,0.8-0.1,1.2-0.2
							c2.9-1,4.8-5.9,5.9-14.4c0.3-2.2-0.1-4.1-0.8-5.8l2.5,2.5c0.2,0.3,2.9,4.7-1.6,14.6c-4.7,10.3-20.6,18.9-20.8,19
							c-0.1,0.1-0.2,0.2-0.3,0.3c-0.1,0.4-5.4,25.2-16,47.1c0.3,0.3,0.5,0.6,0.6,1c10.3-21.1,15.8-45,16.3-47.6
							c2-1.1,16.4-9.3,21-19.3c3.1-6.8,3-11.2,2.4-13.5c1.5,1.2,3.9,2.8,5.8,2.7c0.9,0,1.6-0.4,2.2-1c0.9-1.1,3-4,2.1-8.1
							c-1.2-5.3-6.9-10.2-17-14.6c-9.4-4.1-18.7-2-27.4,6.2c-7,6.5-11.9,15.5-14.3,20.2c-4.4,8.9-27.4,58-29.4,62.2h-12.5
							c-0.2,0-0.4,0.1-0.5,0.3c-0.4,0.8-9.7,20.7-4.7,34c1.6,4.4,4.7,7.5,9,9.4c3.6,1.5,7.1,2.3,10.6,2.3c3.9,0,7.7-1,11.4-2.9
							c4.3-2.2,8.3-5.7,11.9-9.9c5.5,3.1,13.6,6.4,25.5,9.7c0.1,0,15,4.9,21.2,8.2c0.5,0.3,40.8,20.5,76.9,20.5
							c13.2,0,25.8-2.7,35.7-10C404.6,0.7,380.2-34.2,379.9-34.5"/>
						<polygon id="Laptop" class="st17" points="254.5,-22.2 236.6,-78.5 151.4,-78.5 171.5,-15.2 268.8,-15.2 268.8,-22.2 						
							"/>
						<path id="Fill-28" class="st0" d="M171.9-15.7h96.5v-6h-13.8c-0.2,0-0.4-0.1-0.5-0.4L236.2-78h-84.1L171.9-15.7z M268.8-14.7
							h-97.3c-0.2,0-0.4-0.1-0.5-0.4l-20.1-63.3c0-0.2,0-0.3,0.1-0.5c0.1-0.1,0.2-0.2,0.4-0.2h85.2c0.2,0,0.4,0.1,0.5,0.4l17.8,55.9
							h14c0.3,0,0.5,0.2,0.5,0.5v7C269.3-14.9,269.1-14.7,268.8-14.7L268.8-14.7z"/>
						<path id="Fill-31_2_" class="st0" d="M256.4-14.7c-0.2,0-0.4-0.1-0.5-0.4L248.6-39c-0.1-0.3,0.1-0.6,0.3-0.6
							c0.3-0.1,0.6,0.1,0.6,0.3l7.3,23.9c0.1,0.3-0.1,0.6-0.3,0.6C256.5-14.7,256.5-14.7,256.4-14.7"/>
					</g>
				</g>
			</g>
			<g id="Torso_Head" transform="translate(189.790032, 120.000000) scale(1 1)">
				<g id="Torso_Head_x2F_Very_Happy">
					<path id="Path-2" class="st16" d="M166.9-59.6c3.7-2.4,5.2-8.6,4.5-18.5c5.8,2.7,11.9,1.8,18.3-2.8l2.2,21.2
						c-4.4,5-8.9,7.3-13.5,6.8C173.7-53.5,169.9-55.7,166.9-59.6z"/>
					<path id="Path-2-Copy" d="M189.4-81.3c-6.2,4.5-12.1,5.4-17.8,2.8c-0.3-0.2-0.7,0.1-0.7,0.5c0.6,9.8-0.8,15.8-4.3,18.1
						c-0.2,0.2-0.3,0.5-0.1,0.7c3.1,4,7.1,6.3,11.8,6.8c4.8,0.5,9.5-1.8,14-6.9c0.1-0.1,0.1-0.2,0.1-0.4L190.2-81
						C190.1-81.4,189.7-81.6,189.4-81.3z M189.3-80l2.1,20.1l0.1-0.2c-4.3,4.9-8.7,7.1-13.1,6.6l-0.4,0c-4-0.5-7.4-2.4-10.1-5.7
						l-0.2-0.3l0.1-0.1c3.3-2.7,4.7-8.5,4.2-17.5l0-0.2l0.3,0.1c5.3,2.1,10.9,1.3,16.6-2.5L189.3-80z"/>
					<g id="Head_1_" transform="translate(8.000000, 9.000000)">
						<path id="Combined-Shape_5_" class="st16" d="M170.4-85.7c-10.1,0-18.3-8.7-18.3-19.4s8.2-19.4,18.3-19.4s18.3,8.7,18.3,19.4
							S180.5-85.7,170.4-85.7z"/>
						<path id="Fill-18_1_" class="st0" d="M170.4-124c-9.8,0-17.8,8.5-17.8,18.9s8,18.9,17.8,18.9c9.8,0,17.8-8.5,17.8-18.9
							S180.2-124,170.4-124 M170.4-85.2c-10.4,0-18.8-8.9-18.8-19.9c0-11,8.4-19.9,18.8-19.9s18.8,8.9,18.8,19.9
							C189.1-94.1,180.7-85.2,170.4-85.2"/>
						<g id="Group-3" transform="translate(6.000000, 13.000000)">
							<path id="Fill-1_2_" class="st0" d="M162.3-109.6c-0.2-0.1-0.3,0-0.5,0.1c-2.6,2.4-5.2,0.4-5.3,0.4c-0.2-0.2-0.5-0.1-0.6,0.1
								c-0.1,0.2-0.1,0.6,0.1,0.7c0,0,2.8,2.1,5.7,0.2c0,0.9-0.3,2.3-1.1,3.1c-0.7,0.7-1.9,0.8-3.3,0.2c-0.2-0.1-0.5,0.1-0.6,0.3
								c-0.1,0.3,0.1,0.6,0.3,0.7c0.8,0.3,1.4,0.4,2,0.4c0.9,0,1.6-0.3,2.1-0.8c1.7-1.6,1.4-4.8,1.4-4.9
								C162.5-109.4,162.4-109.5,162.3-109.6 M154.6-125.4c-0.1,0-1.9,0-3.6,1.6c-0.2,0.2-0.2,0.5,0,0.7c0.1,0.1,0.2,0.2,0.3,0.2
								c0.1,0,0.2,0,0.3-0.1c1.4-1.4,2.9-1.3,2.9-1.3c0.3,0,0.5-0.2,0.5-0.5C155-125.2,154.8-125.4,154.6-125.4 M165.3-123.8
								c-1.6-1.6-3.5-1.6-3.6-1.6c-0.2,0-0.4,0.2-0.4,0.5c0,0.3,0.2,0.5,0.5,0.5c0,0,1.6,0,2.9,1.3c0.1,0.1,0.2,0.1,0.3,0.1
								c0.1,0,0.3-0.1,0.3-0.2C165.5-123.3,165.5-123.6,165.3-123.8 M153.6-120.5c-0.5,0-0.9,0.8-0.9,1.7c0,0.9,0.4,1.7,0.9,1.7
								c0.5,0,0.9-0.8,0.9-1.7C154.6-119.8,154.2-120.5,153.6-120.5 M162.7-120.5c-0.5,0-0.9,0.8-0.9,1.7c0,0.9,0.4,1.7,0.9,1.7
								c0.5,0,0.9-0.8,0.9-1.7C163.6-119.8,163.2-120.5,162.7-120.5 M156.1-112.5l2.8,0.4c0,0,0,0,0.1,0c0.2,0,0.4-0.2,0.4-0.5
								c0-0.3-0.1-0.5-0.4-0.6l-2.3-0.3l0.7-3.1c0.1-0.3-0.1-0.6-0.3-0.6c-0.2-0.1-0.5,0.1-0.6,0.4l-0.8,3.7c0,0.1,0,0.3,0.1,0.4
								C155.9-112.6,156-112.5,156.1-112.5"/>
						</g>
					</g>
				</g>
			</g>
			<g id="Torso_Facial_Hair" transform="translate(192.000000, 144.000000) scale(1 1)">
				<g id="Torso_Facial_Hair_x2F_No_Face_Hair">
				</g>
			</g>
			<g id="Torso_Accesories" transform="translate(165.000000, 117.010300) scale(1 1)">
				<g id="Torso_Accesories_x2F_No_Accesory">
				</g>
			</g>
			<g id="Torso_Hair" transform="translate(107.790032, 57.000000) scale(1 1)">
				<g id="Torso_Hair_x2F_Big_Quiff">
					<g id="Big-Quiff" transform="translate(63.000000, 46.000000)">
						<path id="Fill-126" class="st2" d="M223.3-90.2c-1.6-4.9-5.8-9.4-12.7-11.2c0.3-1,0.5-2.1,0.5-3.2c0-6-4.8-10.8-10.7-10.8
							c-3.4,0-6.4,1.6-8.4,4.1c-2.1-5.3-7.2-9-13.2-9c-2.6,0-5,0.7-7.1,1.9c-1.6-3.9-5.4-6.6-9.8-6.6c-5.9,0-10.7,4.9-10.7,10.8
							c0,6,4.8,10.8,10.7,10.8c1,0,1.9-0.1,2.8-0.4c1,7,6.9,12.3,14.1,12.3c1.2,0,3.3-0.1,3.3-0.1h0.3c1.8,2.6,4.8,4.3,8.2,4.3
							c3,0,5.7-1.3,7.5-3.4c1.2,2.4,3.6,4,6.4,4c1.5,0,2.9-0.5,4.1-1.3l0.9,8c1-0.2,2-0.1,3.3,1.5c0.5,0.6,0.8,1.3,0.8,2
							c0,1.9-1.6,3.5-3.5,3.5c-0.1,0-0.2,0-0.3,0l0.4,8.7c4.6,0,8.1-3,10.3-7.2C223.3-76.5,225.1-84.6,223.3-90.2"/>
						<path id="Fill-128" class="st0" d="M200.5-115c5.6,0,10.2,4.6,10.2,10.3c0,1-0.2,2.1-0.5,3.1c0,0.1,0,0.3,0,0.4
							c0.1,0.1,0.2,0.2,0.3,0.2c6.1,1.6,10.6,5.5,12.3,10.9c1.8,5.4,0,13.4-2.7,18.5c-2.3,4.3-5.6,6.7-9.4,6.9l-0.3-7.7
							c2.1-0.1,3.8-1.9,3.8-4c0-0.8-0.3-1.7-0.9-2.4c-1.3-1.5-2.4-1.8-3.3-1.7l-0.8-7.5c0-0.2-0.1-0.3-0.3-0.4
							c-0.2-0.1-0.3-0.1-0.5,0c-1.1,0.8-2.4,1.2-3.8,1.2c-2.5,0-4.8-1.4-5.9-3.7c-0.1-0.1-0.2-0.3-0.4-0.3c-0.2,0-0.3,0-0.4,0.2
							c-1.8,2.1-4.4,3.3-7.1,3.3c-3.1,0-6-1.5-7.8-4.1c-0.1-0.1-0.2-0.2-0.4-0.2h-0.3c0,0-2.1,0.1-3.3,0.1
							c-6.7,0-12.6-5.1-13.6-11.9c0-0.1-0.1-0.3-0.2-0.4c-0.1-0.1-0.3-0.1-0.4-0.1c-0.9,0.2-1.8,0.4-2.7,0.4
							c-5.6,0-10.2-4.6-10.2-10.3c0-5.7,4.6-10.3,10.2-10.3c4.1,0,7.7,2.5,9.3,6.3c0.1,0.1,0.2,0.2,0.3,0.3c0.1,0,0.3,0,0.4,0
							c2.1-1.2,4.4-1.9,6.8-1.9c5.6,0,10.6,3.4,12.7,8.6c0.1,0.2,0.2,0.3,0.4,0.3c0.2,0,0.4,0,0.5-0.2
							C194.4-113.5,197.3-115,200.5-115 M210.2-63.6c4.4,0,8.2-2.7,10.8-7.5c2.8-5.3,4.7-13.6,2.8-19.3c-1.8-5.5-6.3-9.6-12.5-11.4
							c0.2-0.9,0.4-1.9,0.4-2.9c0-6.3-5-11.3-11.2-11.3c-3.2,0-6.1,1.3-8.2,3.7c-2.4-5.2-7.6-8.5-13.3-8.5c-2.4,0-4.7,0.6-6.8,1.7
							c-1.9-3.9-5.7-6.4-10-6.4c-6.2,0-11.2,5.1-11.2,11.3c0,6.3,5,11.3,11.2,11.3c0.8,0,1.6-0.1,2.4-0.3c1.3,7,7.4,12.2,14.5,12.2
							c1.2,0,3.2-0.1,3.3-0.1h0.1c2,2.7,5.1,4.3,8.4,4.3c2.8,0,5.4-1.1,7.4-3.1c1.4,2.3,3.8,3.7,6.5,3.7c1.3,0,2.5-0.3,3.6-0.9
							l0.8,7.2c0,0.1,0.1,0.3,0.2,0.4c0.1,0.1,0.3,0.1,0.4,0.1c0.8-0.1,1.7-0.1,2.9,1.3c0.4,0.5,0.7,1.1,0.7,1.7c0,1.7-1.4,3-3,3
							c-0.1,0-0.1,0-0.2,0l-0.1,0c-0.2,0-0.3,0-0.4,0.1c-0.1,0.1-0.2,0.2-0.2,0.4l0.4,8.7C209.7-63.8,209.9-63.6,210.2-63.6"/>
					</g>
				</g>
			</g>
		</g>
	</g>
</g>
</svg>
